<svg version="1.1" xmlns="http://www.w3.org/2000/svg" xmlns:xlink="http://www.w3.org/1999/xlink" width="469.74379" height="181.59359" viewBox="0,0,469.74379,181.59359"><defs><linearGradient x1="556.55208" y1="209.97829" x2="555.86946" y2="214.7412" gradientUnits="userSpaceOnUse" id="color-1"><stop offset="0" stop-color="#1f1d20"/><stop offset="1" stop-color="#202022"/></linearGradient><linearGradient x1="557.67603" y1="205.23468" x2="556.89058" y2="210.71488" gradientUnits="userSpaceOnUse" id="color-2"><stop offset="0" stop-color="#302d31"/><stop offset="1" stop-color="#1f1e20"/></linearGradient><linearGradient x1="219.45812" y1="205.3198" x2="218.97711" y2="208.67553" gradientUnits="userSpaceOnUse" id="color-3"><stop offset="0" stop-color="#585758"/><stop offset="1" stop-color="#575758"/></linearGradient><linearGradient x1="205.04764" y1="213.43586" x2="204.67004" y2="216.07029" gradientUnits="userSpaceOnUse" id="color-4"><stop offset="0" stop-color="#363536"/><stop offset="1" stop-color="#353536"/></linearGradient><linearGradient x1="360.13037" y1="141.91366" x2="359.34458" y2="147.3961" gradientUnits="userSpaceOnUse" id="color-5"><stop offset="0" stop-color="#5e555b"/><stop offset="1" stop-color="#2b2629"/></linearGradient><linearGradient x1="353.40368" y1="120.07138" x2="352.8367" y2="124.02711" gradientUnits="userSpaceOnUse" id="color-6"><stop offset="0" stop-color="#72676e"/><stop offset="1" stop-color="#5e555b"/></linearGradient><linearGradient x1="239.61767" y1="117.80345" x2="238.77662" y2="123.67153" gradientUnits="userSpaceOnUse" id="color-7"><stop offset="0" stop-color="#5e555b"/><stop offset="1" stop-color="#4d454a"/></linearGradient><linearGradient x1="241.63978" y1="103.69533" x2="241.04926" y2="107.8155" gradientUnits="userSpaceOnUse" id="color-8"><stop offset="0" stop-color="#74686f"/><stop offset="1" stop-color="#5e555b"/></linearGradient></defs><g transform="translate(-91.68896,-102.37388)"><g data-paper-data="{&quot;isPaintingLayer&quot;:true}" fill-rule="nonzero" stroke="none" stroke-linecap="butt" stroke-linejoin="miter" stroke-miterlimit="10" stroke-dasharray="" stroke-dashoffset="0" style="mix-blend-mode: normal"><path d="M122.8806,233.19406c1.07469,-4.03907 11.26246,-16.34014 13.02467,-24.95491c1.76221,-8.61474 11.17669,-15.87139 14.90697,-13.61112c3.73028,2.26027 2.93066,5.03343 4.98181,12.7563c0.85601,3.22302 -6.51846,4.44654 -8.42412,7.9635c-2.44789,4.51761 -6.23521,8.09279 -5.25921,8.56551c0.86178,0.41742 1.02987,5.5408 1.90623,5.62897c9.79854,0.98592 27.73874,-2.18964 33.3429,-0.69853c7.30976,1.94496 4.73841,12.9138 6.30272,19.37503c0.84988,3.51037 1.30867,6.74361 2.8396,9.82987c1.46348,2.95025 -1.63776,8.87431 -2.64785,12.6706c-4.01173,15.07745 -31.86099,12.96058 -46.93848,8.94883c-4.06498,-1.08158 -5.32829,6.97174 -8.79535,3.36155c-7.11877,-7.41273 -14.80996,-29.56366 -14.04458,-39.70196c0.24446,-3.23834 8.09535,-7.46767 8.8047,-10.13364z" fill="#86c8f5" stroke-width="0"/><g stroke-width="0"><g><path d="M160.75801,180.96952l0.59021,-8.55136l39.62082,2.57359l-0.59021,8.55136z" fill="#696366"/><path d="M161.7861,173.9996c0,0 0.12819,-1.20833 -0.09928,-2.75333c-0.27292,-1.85356 -0.56717,-4.13079 -0.5411,-5.18045c0.02896,-1.16572 1.24106,-2.48455 1.24106,-2.48455c0,0 8.8699,1.76237 15.22595,2.85299c0.41775,0.07169 14.7811,1.44519 15.35356,1.41159c3.20414,-0.18816 7.49285,-0.07339 7.49285,-0.07339c0,0 0.57774,1.45277 0.65948,3.00876c0.08739,1.66416 -0.31904,3.4555 -0.25933,4.00524c0.0591,0.54394 -0.37735,1.16971 -0.37735,1.16971z" fill="#454143"/><path d="M160.4284,179.26067l0.10703,-2.18986l40.33957,1.97173l-0.10703,2.18986z" fill="#514c4e"/></g><g><g><path d="M198.82675,252.90437l0.68743,-5.53942c0,0 2.20236,0.4527 3.1691,-0.39836c1.36581,-1.20242 4.45368,-5.99848 4.45368,-5.99848l-0.3679,8.1102c0,0 -3.45061,2.79483 -5.08785,3.49594c-1.18207,0.5062 -2.85447,0.33016 -2.85447,0.33016z" fill="#4d484c"/><g><g><path d="M159.79885,236.62397l4.75216,-5.01499c0,0 16.88348,-6.92223 23.9227,-9.97004c5.41476,-2.34448 14.07942,-6.25793 14.07942,-6.25793l-0.63008,26.47051z" fill="#eb59c1"/><path d="M162.62139,225.7648l3.02417,-29.12326c0,0 17.90348,11.05011 24.36807,14.83177c4.69109,2.7442 10.55032,12.80543 10.55032,12.80543l-6.56732,5.37971z" fill="#dd54b6"/><path d="M163.25985,208.73488l4.03992,-30.17717c0,0 10.77642,15.18856 15.27757,16.51872c6.66981,1.97105 19.7406,0.80635 19.7406,0.80635l-3.20864,25.85555z" fill="#ff77d8"/><path d="M167.17024,196.2408l1.73048,-13.94456l33.47884,1.20481l0.23307,17.13809z" fill="#ee51c1"/></g><g><g><path d="M158.47534,225.87341l0.02304,-41.11669l8.33739,1.03467l-0.02304,41.11669z" fill="#a59da1"/><path d="M158.43991,184.94151c0,0 -0.21589,-4.55344 1.7261,-5.60405c1.942,-1.05062 7.01668,-0.67603 7.01668,-0.67603l-0.39181,7.31643z" fill="#b9b0b5"/><path d="M158.93086,236.65669l-0.39393,-10.80358l8.29754,1.0297l0.39393,10.80358z" fill="#8b8488"/></g><g><path d="M198.77937,227.45225l0.02305,-41.11668l4.50464,0.55902l-0.02304,41.11668z" fill="#a59da1"/><path d="M198.83784,187.34499l-0.01531,-6.49252c0,0 2.99618,-0.3138 3.90209,0.95715c0.90593,1.27095 0.53754,5.27145 0.53754,5.27145z" fill="#b9b0b5"/><path d="M199.22246,238.23404l-0.39393,-10.80358l4.47721,0.55562l0.39394,10.80358z" fill="#8b8488"/></g><path d="M158.82667,245.28551c0,0 -2.90748,-3.12463 -3.11928,-4.64691c-0.23578,-1.69458 1.76886,-5.05914 1.76886,-5.05914l47.84573,1.50901c0,0 1.71136,2.56414 1.94659,4.09108c0.32972,2.14021 -4.45311,6.49895 -4.45311,6.49895z" fill="#494547"/><path d="M167.02132,182.60269c0,0 -2.22888,-0.84829 -2.58557,-1.47122c-0.3917,-0.68407 1.13729,-2.5929 1.13729,-2.5929c0,0 12.07698,0.47901 17.35363,0.80922c6.15137,0.38495 16.52774,1.48741 16.52774,1.48741c0,0 0.37632,1.27999 0.21805,1.86232c-0.15326,0.56399 -0.75283,1.62804 -0.75283,1.62804z" fill="#c2b8bd"/><path d="M159.32947,244.11785c0,0 -0.87622,-2.96578 -0.91012,-4.65845c-0.02813,-1.40475 0.57294,-3.60481 0.57294,-3.60481l45.00411,1.49701c0,0 1.62467,3.37875 1.41989,5.02877c-0.21997,1.77257 -2.54959,4.07442 -2.54959,4.07442z" fill="#6f696b"/><path d="M169.69821,250.87595l0.68743,-5.53941l29.76431,2.0766l-0.68743,5.53941z" fill="#333032"/><path d="M158.23816,249.57615c-1.02248,-0.77977 -2.50916,-2.44126 -2.50916,-2.44126l-0.02335,-6.87456c0,0 2.17501,2.55973 3.20551,4.05954c0.72938,1.06155 11.53528,0.91187 11.53528,0.91187l-0.68743,5.53941c0,0 -10.49833,-0.4152 -11.52082,-1.19501z" data-paper-data="{&quot;index&quot;:null}" fill="#444043"/><g><path d="M164.48877,197.37141c0,0 -1.98105,-5.02436 -1.79259,-6.75653c0.13047,-1.19926 2.81478,-2.63885 2.81478,-2.63885l35.16751,1.31662c0,0 1.19687,3.29633 1.02839,4.8448c-0.17219,1.5826 -2.05059,4.55058 -2.05059,4.55058z" fill="#979797"/><path d="M164.67307,196.32004c0,0 -2.06893,-4.48618 -1.91343,-6.01651c0.10766,-1.05953 2.75688,-2.28412 2.75688,-2.28412l35.08479,1.82325c0,0 1.25484,2.94133 1.11583,4.30934c-0.14208,1.39818 -1.95928,3.99126 -1.95928,3.99126z" fill="#a2a2a2"/></g><g><path d="M164.81448,214.07836c0,0 -1.98105,-5.02436 -1.79259,-6.75653c0.13047,-1.19926 2.81478,-2.63885 2.81478,-2.63885l35.16751,1.31662c0,0 1.19687,3.29633 1.02839,4.8448c-0.17219,1.5826 -2.05059,4.55057 -2.05059,4.55057z" fill="#979797"/><path d="M164.99879,213.027c0,0 -2.06892,-4.48618 -1.91342,-6.01651c0.10765,-1.05953 2.75687,-2.28412 2.75687,-2.28412l35.08478,1.82326c0,0 1.25484,2.94133 1.11583,4.30934c-0.14209,1.39818 -1.95928,3.99126 -1.95928,3.99126z" fill="#a2a2a2"/></g><g><path d="M165.18542,231.28996c0,0 -1.98105,-5.02436 -1.79259,-6.75653c0.13047,-1.19926 2.81478,-2.63885 2.81478,-2.63885l35.16751,1.31662c0,0 1.19687,3.29633 1.02839,4.8448c-0.17219,1.5826 -2.05059,4.55057 -2.05059,4.55057z" fill="#7a7a7a"/><path d="M165.3697,230.23862c0,0 -2.06893,-4.48618 -1.91343,-6.01652c0.10765,-1.05953 2.75687,-2.28411 2.75687,-2.28411l35.0848,1.82325c0,0 1.25483,2.94133 1.11583,4.30934c-0.14209,1.39818 -1.95928,3.99127 -1.95928,3.99127z" fill="#929292"/></g></g></g></g><path d="M158.59955,229.87304c0,0 -0.17122,-1.75086 -0.18914,-4.08141c-0.0526,-6.84231 -0.15743,-41.00129 -0.15743,-41.00129l2.61393,4.66036l-0.25382,29.61895z" fill="#777275"/></g></g><g><g stroke-width="0"><path d="M282.35179,199.18953l-7.94956,-16.64148l25.40045,3.04439c0,0 -1.91432,5.61402 -2.49509,8.25688c-0.56175,2.55654 -0.93429,7.3499 -0.93429,7.3499z" fill="#7f7d7e"/><path d="M282.42125,199.39824l-2.80728,-6.0666c0,0 1.83032,3.85374 4.9465,4.92138c2.24394,0.76878 4.155,0.72957 6.76382,1.42758c2.60879,0.698 4.9238,1.69944 4.9238,1.69944z" fill="#6c6a6b"/></g><g><g><g><path d="M552.90859,214.31684l-1.3555,-5.05505c0,0 5.69566,2.49115 8.14007,3.74348c2.44443,1.25234 0.76032,2.1587 0.76032,2.1587z" fill="url(#color-1)" stroke-width="0"/><path d="M561.19603,205.94088c0,0 1.13439,2.51419 -1.56336,3.0295c-2.69775,0.51534 -5.74496,1.31412 -5.74496,1.31412l-0.17536,-5.61794z" data-paper-data="{&quot;index&quot;:null}" fill="url(#color-2)" stroke-width="0"/><path d="M543.38866,212.94772l0.29772,-2.07715l14.62311,2.09592c0,0 1.13218,0.9647 1.56309,1.39646c0.38735,0.38814 -0.86081,0.82399 -0.86081,0.82399z" fill="#444444" stroke-width="NaN"/><path d="M543.69938,211.01733l-0.92977,-1.90508l12.48805,1.78989l3.12671,2.107c0,0 -4.20896,-0.36283 -6.49294,-0.67263c-2.57584,-0.34939 -8.19205,-1.31923 -8.19205,-1.31923z" fill="#535353" stroke-width="0"/><path d="M542.6392,209.23167l-0.23068,-0.6796l11.35771,1.62786l1.59384,0.75952z" fill="#363636" stroke-width="0"/><path d="M543.38866,212.94772l0.16151,-1.12685c0,0 6.32395,1.36464 9.17463,1.77323c2.41569,0.34623 6.84143,0.52234 6.84143,0.52234c0,0 0.7898,0.58016 1.00586,0.81609c0.18226,0.19901 -0.31329,0.43319 -0.31329,0.43319c0,0 -4.74228,-0.27109 -7.03261,-0.59935c-3.08997,-0.44288 -9.83749,-1.81863 -9.83749,-1.81863z" fill="#3a3a3a" stroke-width="NaN"/><path d="M542.72364,208.61571l-0.42253,-0.95332l13.50364,1.93546l-1.93336,0.64989z" fill="#242424" stroke-width="0"/><path d="M541.47436,207.73504l0.23472,-1.63757c0,0 8.04074,0.94415 11.00617,1.3692c2.02039,0.28959 5.0661,0.93444 5.0661,0.93444l-2.00661,1.21696z" fill="#3a3a3a" stroke-width="0"/><path d="M541.57478,206.12122l0.28978,-2.02189c0,0 7.62269,0.75929 10.90341,1.2295c2.83899,0.40691 7.6481,1.42947 7.6481,1.42947l-2.68351,1.67881c0,0 -3.60625,-0.6002 -5.82796,-0.91862c-2.9532,-0.42326 -10.32981,-1.39725 -10.32981,-1.39725z" fill="#444444" stroke-width="0"/><path d="M541.80978,204.17743l0.12076,-0.84246c0,0 7.81172,0.99466 11.37255,1.50504c2.47946,0.35539 7.94837,1.26418 7.94837,1.26418l-0.97704,0.71972c0,0 -4.96189,-1.00281 -7.89713,-1.42349c-3.23387,-0.46352 -10.5675,-1.22298 -10.5675,-1.22298z" fill="#535353" stroke-width="0"/><path d="M541.79023,203.40085l0.04832,-0.33698c0,0 7.67059,0.58717 11.09595,1.07814c2.96151,0.42447 8.26771,1.69721 8.26771,1.69721l-0.0111,0.34232c0,0 -5.92471,-1.0158 -9.13689,-1.47621c-3.25417,-0.46642 -10.26392,-1.30447 -10.26392,-1.30447z" fill="#4e4e4e" stroke-width="0"/></g><g stroke-width="0"><g><g><g><path d="M537.66334,211.6341l-2.66779,-13.68053l0.79164,-1.62548c0,0 2.98149,3.68952 3.54124,6.2856c0.30387,1.40939 -0.22519,9.22677 -0.22519,9.22677z" fill="#383638"/><path d="M538.80198,211.09882c0,0 0.1443,-0.59523 -0.12968,-3.11449c-0.29876,-2.74733 -1.16115,-6.54517 -1.39792,-7.66404c-0.53155,-2.51153 -1.26029,-2.7478 -1.26029,-2.7478l4.83399,0.10511l2.99333,14.14352z" fill="#555355"/><path d="M536.06532,197.66611l-0.40051,-1.30642c0,0 2.11326,-0.5053 3.06512,-0.36885c0.89197,0.12783 1.91259,1.00883 1.91259,1.00883l0.3902,1.37837z" fill="#686668"/></g><path d="M532.04802,210.82928l-2.66779,-13.68052l0.46131,-1.65248c0,0 3.31184,3.71654 3.87153,6.31255c0.30387,1.40938 -0.22518,9.22677 -0.22518,9.22677z" fill="#383638"/><path d="M533.18664,210.29398c0,0 0.1443,-0.59524 -0.12967,-3.11449c-0.29876,-2.74733 -1.16115,-6.54517 -1.39792,-7.66404c-0.53155,-2.51153 -1.26029,-2.7478 -1.26029,-2.7478l4.16253,-0.49626c0,0 0.83777,1.38713 0.9998,2.15264c0.46161,2.18103 2.665,12.59222 2.665,12.59222z" fill="#555355"/><path d="M530.45,196.86121l-0.6165,-1.33738c0,0 2.32923,-0.47433 3.28115,-0.33789c0.89197,0.12783 1.62462,0.96756 1.62462,0.96756l0.51396,1.39615z" fill="#686668"/><path d="M539.75305,210.23124c0.11625,-0.81122 0.86816,-1.3746 1.67939,-1.25834c0.81123,0.11625 1.3746,0.86816 1.25834,1.67939c-0.11625,0.81122 -0.86816,1.3746 -1.67938,1.25834c-0.81123,-0.11625 -1.3746,-0.86816 -1.25834,-1.67939z" fill="#312f31"/><path d="M540.81761,207.42461l-1.19223,-5.77407l1.5956,0.08389l1.18309,5.83797z" fill="#444144"/></g><path d="M493.818,200.3326l-2.19097,-11.24816l29.41313,5.40425l-1.83452,9.48271z" fill="#444444"/><path d="M506.88654,198.25019c0,0 0.70359,-0.42643 1.57534,-1.41766c0.79708,-0.90629 1.74616,-2.36429 2.19272,-2.76877c1.20749,-1.55085 3.49579,-0.75127 3.49579,-0.75127l-1.06233,0.50747l-5.07019,4.59244z" fill="#292929"/><path d="M508.16366,209.07029l-4.8918,-11.78466c0,0 3.38797,1.0223 5.2232,0.22556c1.42611,-0.61918 1.70634,-3.23787 3.3076,-3.29216c4.59411,-0.15568 17.39997,1.24147 17.39997,1.24147c0,0 2.19364,7.5324 2.7019,10.52182c0.35086,2.06378 0.12941,6.50933 0.12941,6.50933z" fill="#4a464a"/><path d="M514.11878,196.68133c-4.42443,-1.27669 -2.80468,-2.42244 -2.80468,-2.42244c0,0 0.96946,-1.17659 2.83864,-1.05632c4.58689,0.2951 13.06069,2.09243 14.76914,2.31141c0.80573,0.10325 0.24435,0.73793 0.24435,0.73793c0,0 -1.81283,2.15051 -3.38381,2.18199c-1.571,0.03146 -7.2392,-0.47583 -11.66364,-1.75257z" fill="#5e595e"/></g><g><path d="M495.54622,213.90434l-2.56442,-18.48633l18.67587,2.96603l4.13681,4.96551l6.05149,0.76783l1.03381,13.70467z" fill="#4d4846"/><path d="M500.1344,214.95304l21.77972,-6.36583l22.13027,2.927c0,0 0.70527,4.3267 0.65463,5.68786c-0.02586,0.69396 -0.57111,2.89232 -0.57111,2.89232z" fill="#423d3b"/><path d="M497.53838,206.18503l-1.75035,-10.19765l0.81222,0.11642l1.75036,10.19765z" fill="#363332"/><path d="M500.8278,214.24262l0.17272,-1.20508c0,0 5.57237,-1.77277 14.54554,-0.48667c1.19224,0.17089 5.03642,3.29333 6.23809,3.46556c7.62418,1.09276 15.08681,2.16237 17.92589,2.56929c2.31215,0.33141 4.85765,-0.61705 4.85765,-0.61705l-0.35718,2.49194z" fill="#312e2c"/><path d="M504.98127,201.96753l-1.07113,-4.81605l8.22366,1.17869l3.48569,4.9661l6.21521,1.08687l-7.78942,0.8522z" fill="#585350"/><path d="M494.59323,207.57608l0.16008,-1.11679c0,0 8.49561,-2.5642 11.34371,-2.15598c4.29251,0.61524 16.1427,2.31372 16.1427,2.31372l-0.16008,1.11679c0,0 -12.05337,-1.7276 -16.34579,-2.3428c-2.78961,-0.39984 -11.14067,2.18507 -11.14067,2.18507z" fill="#2b2827"/></g></g></g><g><g><g><path d="M157.29437,202.32137c0.21837,2.28812 -0.45531,4.80756 -1.57276,4.91419c-1.11742,0.10665 -2.25551,-2.23986 -2.47388,-4.52803c-0.21837,-2.28812 -1.11506,-11.07462 0.00241,-11.18127c1.11742,-0.10665 3.82588,8.50694 4.04426,10.79509z" fill="#615e5f" stroke-width="0"/><g><path d="M202.71238,178.59625c-0.45902,-0.59881 -2.58982,-2.22999 -2.58982,-2.22999l10.22827,-1.44342l-6.96081,6.27591c0,0 -0.21862,-2.00368 -0.67764,-2.60247z" fill="#756a6a" stroke-width="0"/><path d="M194.01792,175.63554l1.94846,-13.59441l19.17819,-3.17783l-2.78081,19.40174z" fill="#8a7c7c" stroke-width="0"/><path d="M153.61426,175.34728l9.17196,-17.00405l34.59887,4.82432l2.69034,13.18171c0,0 -22.98096,-1.70168 -30.7314,-1.86879c-3.21728,-0.06938 -15.72977,0.86685 -15.72977,0.86685z" fill="#7c787a" stroke-width="0"/><path d="M162.56219,160.74052l0.06355,-1.48751c0,0 25.66197,3.67806 33.72937,4.83436c4.51374,0.64693 16.88862,-4.01483 16.88862,-4.01483l-0.23121,1.61316c0,0 -12.08092,4.68444 -16.44421,4.04425c-8.00063,-1.17386 -34.00609,-4.98939 -34.00609,-4.98939z" fill="#535353" stroke-width="0"/><path d="M121.75887,171.49659l2.85941,-19.95012c0,0 5.48614,-6.33992 12.98279,-7.58486c9.31114,-1.54626 25.77581,2.61692 27.82551,2.91072c1.57291,0.22546 -14.25491,8.47999 -14.25491,8.47999l-2.85941,19.95012z" fill="#8d898b" stroke-width="0"/><path d="M299.5034,150.35805l2.03253,-2.88506l106.45676,15.40258l-2.09217,14.59705c0,0 -37.66029,-3.53341 -49.69843,-5.67918c-5.97849,-1.06565 -56.69867,-21.43542 -56.69867,-21.43542z" fill="#c98cac" stroke-width="0"/><path d="M263.72873,247.26277l-2.66228,-13.45022c0,0 4.25759,6.50937 6.92365,7.97936c1.69862,0.93658 5.82785,1.91405 12.22261,0.36828c5.14803,-1.2444 11.04631,-5.96612 11.04631,-5.96612l-13.66824,13.05549z" fill="#a08e97" stroke-width="0"/><path d="M359.95944,213.6599l1.03708,-23.71416l18.55878,1.24293l-3.0074,20.98259c0,0 -6.57658,0.79407 -9.4128,1.09299c-1.30592,0.13763 -7.17565,0.3957 -7.17565,0.3957z" fill="#96858d" stroke-width="0"/><path d="M261.37823,250.71002l0.78601,-5.48411c0,0 11.64773,3.75913 16.66336,1.32479c2.44098,-1.18472 22.09214,-19.51457 32.93206,-29.71175c4.23027,-3.97944 7.11866,-6.7203 7.11866,-6.7203c0,0 3.86069,-3.25843 4.27358,-6.11089c0.2077,-1.43492 1.26577,-5.5047 0.77056,-7.91064c-0.49963,-2.42746 -2.55349,-3.18483 -2.55349,-3.18483l-2.89725,-14.12626l19.59517,2.95369l-6.65015,25.89175l3.35671,3.06915c0,0 -10.30963,4.58376 -15.59485,8.8326c-8.26941,6.64781 -35.73304,33.4069 -35.73304,33.4069z" fill="#918189" stroke-width="0"/><path d="M336.9637,210.72031l5.25959,-28.14234l13.59716,2.22745l8.55599,13.35115l-4.53488,15.84285z" fill="#96858d" stroke-width="0"/><path d="M332.22254,211.90882l-1.89569,-4.45985l7.21893,-25.42287l5.04048,0.63688l-4.72462,28.20166z" fill="#8f8187" stroke-width="0"/><path d="M358.60503,213.92678c0,0 3.66981,-6.2092 3.09846,-11.75721c-0.32898,-3.1945 -4.91076,-5.84106 -5.11244,-7.7994c-0.38523,-3.74095 -0.98125,-9.52826 -0.98125,-9.52826l7.1565,5.4343c0,0 2.34823,7.62404 2.33528,11.92725c-0.00865,2.89113 -2.38194,8.99212 -3.66793,11.43324c-0.10841,0.2058 -1.26086,-0.04351 -1.33543,0.11281c-0.18215,0.3819 0.73949,0.74765 0.73949,0.74765z" fill="#86787e" stroke-width="0"/><path d="M362.3411,191.73049c0,0 -2.49843,-4.35345 -6.99574,-5.97959c-5.09144,-1.84095 -21.99225,-4.50186 -21.99225,-4.50186l158.1538,8.34122l2.06121,9.69228l6.25686,12.15334c0,0 -99.40747,-16.84564 -119.78754,-19.76666c-6.65031,-0.95318 -17.69638,0.0613 -17.69638,0.0613z" fill="#df8db7" stroke-width="0"/><path d="M202.97538,216.65238l0.39642,-36.58368c0,0 2.19834,-3.47391 2.72504,-3.61629c5.80702,-1.56984 39.03087,-7.56857 44.37446,-6.51348c5.85364,1.15579 -10.80411,10.81874 -10.80411,10.81874c0,0 -14.55149,-0.03901 -17.66647,3.80783c-4.22922,5.22289 -1.89298,23.08863 -1.89298,23.08863z" fill="#c77da3" stroke-width="0"/><path d="M278.90938,197.30109l-1.47269,-2.33786c0,0 7.71372,-7.58893 10.44798,-9.51318c2.82283,-1.98663 6.23176,-2.22548 6.23176,-2.22548l5.54879,3.12101c0,0 -4.35949,-1.13255 -6.94283,0.231c-2.21769,1.17057 -6.36863,3.68573 -9.57926,6.34951c-2.33548,1.93768 -4.23374,4.37498 -4.23374,4.37498z" fill="#414041" stroke-width="0"/><path d="M162.3945,159.65951l6.40994,-10.89027l48.13653,6.89932c0,0 -3.5014,3.99919 -6.8684,5.50281c-3.30459,1.47579 -13.14985,3.43697 -13.14985,3.43697z" fill="#979395" stroke-width="0"/><path d="M163.34854,158.64166l5.61802,-11.00376l48.13653,6.89932c0,0 -3.5014,3.99919 -6.8684,5.50281c-3.30459,1.47579 -13.14985,3.43697 -13.14985,3.43697z" fill="#bdb7ba" stroke-width="0"/><path d="M360.94334,214.58592l-1.7811,-0.77404l17.27076,-1.74204c0,0 -3.81623,1.53143 -6.38812,1.96787c-2.57188,0.43646 -9.1015,0.5482 -9.1015,0.5482z" fill="#887980" stroke-width="0"/><path d="M205.37005,217.46481c0,0 -0.8317,-10.69164 -0.80923,-19.31412c0.02259,-8.66455 0.06893,-16.78688 0.55568,-20.33846c0.08247,-0.60171 3.12285,-10.19809 3.69152,-10.6433c3.06969,-2.40323 9.63452,6.36042 15.29893,6.05746c8.38708,-0.44859 27.37522,1.75359 27.37522,1.75359l-9.12167,4.05757c0,0 -19.65935,0.07665 -22.75567,4.8226c-4.18806,6.41939 0.34473,28.15511 0.34473,28.15511z" fill="#d486ae" stroke-width="0"/><path d="M206.9894,214.1421c0,0 -0.79494,-41.4032 1.94823,-51.18998c1.28349,-4.57914 -0.74514,-14.07083 -0.74514,-14.07083l49.16599,14.08678l-0.87047,16.10945c0,0 -31.2793,-7.60802 -38.45562,-2.29849c-4.79043,3.54427 -2.05731,32.46769 -2.05731,32.46769z" fill="#e490bb" stroke-width="0"/><g stroke-width="0"><path d="M352.95053,171.425l1.17402,-8.19118l9.2653,1.328l-1.17402,8.19118z" fill="#454545"/><path d="M353.88295,170.786l0.68231,-7.27489l11.21162,1.60694l-1.03544,7.22427z" fill="#b0b0b0"/><path d="M354.29165,166.30964l0.17529,-2.8341l11.42607,1.63768l-0.27062,1.88808c0,0 -7.75978,-0.78644 -9.46164,-0.89032c-0.56867,-0.03471 -1.86913,0.19867 -1.86913,0.19867z" fill="#bebebe"/><path d="M365.07026,171.83431c0,0 -5.12209,-3.31561 -4.02516,-6.94436c1.63003,-5.3923 5.64172,-4.33434 5.64172,-4.33434l39.64613,7.02939l-1.42738,9.95884z" fill="#9c989a"/><path d="M367.02239,170.81169c0,0 -1.96234,-3.83615 -2.07252,-4.78824c-0.16333,-1.41132 2.23088,-4.05569 2.23088,-4.05569l41.17024,5.93454l-1.45842,7.35616z" fill="#898587"/><path d="M366.90482,170.99512l-0.73412,-2.06443l37.84501,5.42425l-0.27514,1.91977z" fill="#c1bcbf"/><path d="M367.2664,167.61834c0,0 -1.12578,-1.54332 -0.99278,-2.47119c0.1244,-0.86794 1.76667,-2.9282 1.76667,-2.9282l38.27552,5.48598l-0.77389,5.39936z" fill="#0d0d0d"/><path d="M367.1561,168.38776c0,0 -1.04009,-2.14096 -0.9071,-3.06885c0.1244,-0.86794 1.68098,-2.33052 1.68098,-2.33052l38.27553,5.48598l-0.77389,5.39936z" fill="#2e2e2e"/><path d="M362.10888,169.58712c-2.17703,-3.41033 -0.69212,-5.55792 -0.69212,-5.55792c0,0 1.23026,4.33068 2.32591,5.39451c1.29721,1.25948 4.6767,3.12381 4.6767,3.12381l-3.48323,-0.42835c0,0 -2.44411,-1.93183 -2.82723,-2.53199z" fill="#7d7a7c"/><path d="M369.68589,169.06322c0,0 -0.56608,-2.31573 -0.40382,-3.44773c0.14262,-0.99506 1.32602,-2.98652 1.32602,-2.98652l4.77453,0.68433c0,0 -0.76916,2.11627 -0.8923,2.9757c-0.16931,1.18125 -0.02987,3.4585 -0.02987,3.4585z" fill="#555555"/><path d="M378.2154,170.28577c0,0 1.0179,-2.40301 1.18014,-3.53499c0.14262,-0.99506 -0.25791,-2.89928 -0.25791,-2.89928l5.32888,0.76378c0,0 -0.65577,1.6386 -0.77895,2.49807c-0.16931,1.18125 -0.14324,3.93616 -0.14324,3.93616z" fill="#555555"/><path d="M387.44773,171.60901c0,0 1.01791,-2.40301 1.18016,-3.53499c0.14262,-0.99506 -0.25792,-2.89927 -0.25792,-2.89927l5.24968,0.7524c0,0 -0.65577,1.6386 -0.77895,2.49807c-0.16931,1.18125 -0.14324,3.93616 -0.14324,3.93616z" fill="#555555"/><path d="M397.01327,172.98003c0,0 1.14344,-2.02579 1.30567,-3.15782c0.14262,-0.99506 -0.38346,-3.27642 -0.38346,-3.27642l5.09131,0.72973c0,0 0.53822,2.07912 0.41504,2.93863c-0.16931,1.18125 -1.33723,3.49564 -1.33723,3.49564z" fill="#555555"/><path d="M370.24477,163.28807l-0.5449,-0.88627l35.20285,5.04556l-1.63223,0.57423c0,0 -2.80145,-0.40154 -5.23876,-0.75085c-0.53125,-0.07616 -1.48993,-0.54565 -2.28568,-0.65975c-0.76941,-0.11029 -1.36834,0.136 -2.32475,-0.00106c-1.49144,-0.21379 -3.17421,-0.45496 -4.93585,-0.70744c-0.73038,-0.10468 -1.31146,-0.57545 -2.06096,-0.68285c-0.66648,-0.09551 -1.50018,0.17245 -2.16979,0.07649c-1.66188,-0.2382 -3.30739,-0.47405 -4.85452,-0.69578c-0.71044,-0.10183 -1.33791,-0.6346 -1.99892,-0.72933c-0.80693,-0.11568 -1.6333,0.20874 -2.3403,0.1074c-2.88398,-0.41334 -4.81625,-0.69029 -4.81625,-0.69029z" fill="#474747"/></g><g><path d="M215.00171,208.7959l4.08634,-2.31106c0,0 2.39697,3.18722 5.07536,4.47523c2.36891,1.13918 10.18082,2.86122 10.18082,2.86122l-3.246,3.93355z" fill="#6d6a6b" stroke-width="0"/><path d="M206.10201,214.08696l10.18589,-6.00073c0,0 2.88185,2.69265 4.93478,3.65556c3.10578,1.4567 11.88658,4.23433 11.88658,4.23433l-4.8456,3.65685z" fill="#615e5f" stroke-width="0"/><path d="M204.96389,236.11568l1.73432,-22.55517c0,0 4.19781,1.40171 8.96614,2.11505c3.72186,0.55679 7.84889,0.29256 10.2212,1.24713c4.16475,1.67584 35.59867,18.66316 35.59867,18.66316l1.00981,10.42354z" fill="#575455" stroke-width="0"/><path d="M230.1736,212.41071c7.65277,-4.52523 17.54914,-16.69633 19.15958,-19.06318c1.16019,-1.70513 2.5893,-6.83026 2.5893,-6.83026l6.6589,7.83885c0,0 2.8826,21.11937 2.25695,33.80567c-0.17507,3.54974 1.7572,7.81222 0.3749,9.09556c-1.23852,1.14981 -18.35315,1.01011 -23.58428,-0.51228c-11.00879,-3.2037 -17.13804,-1.26417 -20.09641,-7.01746c-2.9584,-5.75328 4.96018,-10.95266 4.96018,-10.95266c0,0 5.68864,-5.18619 7.68094,-6.36428z" fill="#504e4f" stroke-width="0"/><path d="M239.5878,180.59934c0,0 0.60363,-1.42153 1.54609,-1.95674c1.2121,-0.68833 5.12323,-1.83064 5.12323,-1.83064c0,0 8.97889,3.37541 11.6054,6.26733c2.42337,2.66815 -5.2525,11.95426 -5.2525,11.95426l-1.22554,-5.59182z" fill="#464445" stroke-width="0"/><path d="M255.8867,230.64554c0,0 -10.0779,4.87526 -18.50078,3.8412c-8.12559,-0.99757 -14.61273,-7.87939 -14.30501,-9.27206c0.1667,-0.75456 8.48345,-2.90162 12.52372,-6.58709c4.49117,-4.09676 4.81663,-9.80991 6.43906,-11.60837c4.52937,-5.02086 14.33304,-13.89827 14.14019,-20.03129c-0.20222,-6.43185 -10.51712,-10.00534 -10.51712,-10.00534c0,0 4.13172,-1.68251 9.08538,-1.10369c2.11008,0.24654 6.41505,2.26359 7.27438,2.77566c2.81798,1.67914 4.5564,3.58129 4.5564,3.58129c0,0 4.31383,-4.3109 7.92342,-4.10615c3.60958,0.20474 21.82673,5.79352 21.82673,5.79352l-17.83337,10.16667z" fill="#555354" stroke-width="0"/><path d="M241.56697,207.55194c0,0 6.11666,-10.1072 11.57029,-14.81601c5.45362,-4.70878 9.94201,-7.27846 13.43863,-6.77727c2.53206,0.36291 4.56468,9.35769 4.56468,9.35769l-15.04661,26.90665c0,0 -14.93848,1.17152 -16.04884,-1.49364c-0.87697,-2.10495 1.52187,-13.17737 1.52187,-13.17737z" fill="#585758" stroke-width="0"/><path d="M260.02097,237.77563c0,0 -1.97067,-6.53679 -1.21893,-9.48213c1.05016,-4.11463 4.27481,-16.43571 4.27481,-16.43571l0.45628,10.60775c0,0 -2.01696,9.55802 -2.31548,12.57608c-0.288,2.91192 0.81298,5.26229 0.81298,5.26229z" fill="#3f3e3f" stroke-width="0"/><path d="M261.63644,219.95937c0.04416,-1.68558 1.40234,-9.28066 1.40234,-9.28066c0,0 11.52837,-13.06449 13.98099,-15.39316c0.71902,-0.68267 4.28632,-1.91999 4.28632,-1.91999l-2.31828,4.57124c0,0 -1.64363,0.37458 -1.88939,0.82208c-0.26186,0.47677 0.36337,1.95622 0.36337,1.95622l-6.28011,7.66666c0,0 -1.77731,0.76618 -2.02637,1.241c-0.24913,0.47496 0.30553,1.45168 0.30553,1.45168c0,0 -5.08393,8.30396 -6.26049,10.57477c-0.544,1.04995 -0.51457,2.5014 -0.51457,2.5014c0,0 -1.09347,-2.50567 -1.04929,-4.19126z" fill="#474647" stroke-width="0"/><path d="M251.61811,197.3408l19.67737,11.13981c0,0 -1.32053,0.83338 -1.63179,1.33332c-0.22969,0.3689 -0.06653,1.39452 -0.06653,1.39452z" fill="#3f3e3e" stroke-width="NaN"/><path d="M259.02628,187.94385l20.19367,10.02529c0,0 -1.22338,0.67658 -1.51119,1.19735c-0.30001,0.54288 -0.08736,1.66361 -0.08736,1.66361z" fill="#3f3e3e" stroke-width="NaN"/><path d="M242.64302,214.56876c0,0 9.49279,9.13221 14.46338,15.88331c4.97056,6.75112 2.87829,7.67038 2.87829,7.67038z" fill="#636162" stroke-width="NaN"/><path d="M259.06664,193.6305c0,0 -6.35198,2.02331 -9.51276,4.69785c-3.16079,2.67453 -13.70646,17.51133 -13.28857,14.5956c0.41791,-2.91572 16.34677,-21.56555 18.12356,-21.31089c0.6726,0.09642 3.8402,-0.60353 4.61666,-0.25234c1.27467,0.57655 0.06113,2.26976 0.06113,2.26976z" fill="#918f91" stroke-width="0"/><path d="M204.53064,235.92285l14.06967,0.10898c0,0 12.51562,1.45817 15.59857,2.05671c7.5079,1.45757 29.61249,6.72045 29.61249,6.72045l-1.3393,6.19371c0,0 -24.62039,0.0731 -31.25841,-2.2074c-1.92037,-0.65974 -7.59051,-2.09681 -11.61135,-4.03912c-7.86862,-3.801 -15.07168,-8.83331 -15.07168,-8.83331z" fill="#626061" stroke-width="0"/><path d="M261.52722,250.51185c0,0 0.64907,-4.24347 0.53663,-6.62335c-0.12636,-2.67491 -1.2579,-8.6447 -1.2579,-8.6447l1.76431,0.25289c0,0 1.06946,4.65562 1.18387,7.07722c0.12506,2.64762 -0.46258,8.19084 -0.46258,8.19084z" fill="#4a494a" stroke-width="0"/><path d="M261.21529,251.31201l0.56936,-3.35028c0,0 0.52346,0.34246 0.79222,0.38095c0.31934,0.04579 0.95739,-0.13019 0.95739,-0.13019l-0.27871,3.16909c0,0 -0.82654,0.29332 -1.19828,0.28064c-0.28487,-0.00969 -0.84192,-0.35023 -0.84192,-0.35023z" fill="#363536" stroke-width="0"/><path d="M260.93276,236.29778l-0.15202,-1.65898c0,0 0.46343,-0.2916 0.8366,-0.29796c0.35537,-0.00605 0.85509,0.18958 0.85509,0.18958l0.25019,1.79c0,0 -0.54895,0.43394 -0.85558,0.43004c-0.2889,-0.00366 -0.93428,-0.45268 -0.93428,-0.45268z" fill="#585758" stroke-width="0"/><path d="M220.16377,244.1477c0,0 -7.39634,-4.0431 -7.20296,-5.39234c0.19435,-1.35596 6.53454,-1.63 6.53454,-1.63c0,0 10.86733,1.31436 15.7497,2.18852c2.73333,0.48941 11.05071,2.60988 11.05071,2.60988c0,0 7.0685,2.07811 7.71193,3.33382c0.70185,1.36972 -3.52635,3.63437 -3.52635,3.63437c0,0 -12.78044,-0.51241 -16.6756,-1.28104c-1.38369,-0.27307 -13.64195,-3.46311 -13.64195,-3.46311z" fill="#6b696a" stroke-width="0"/><path d="M210.86494,235.8429l-1.97459,-0.04985c0,0 1.10737,-3.31105 3.62365,-1.69554c2.51625,1.61556 21.4418,3.30638 21.4418,3.30638z" fill="#4b4949" stroke-width="0"/><path d="M204.62329,235.79065c0,0 -2.00475,-0.09381 -2.01761,-3.77563c-0.00651,-1.86371 0.28468,-16.15915 0.28468,-16.15915l4.10948,-2.33972c0,0 -0.17551,6.02983 -0.38317,8.93197c-0.27624,3.85981 -1.07957,13.47347 -1.07957,13.47347z" fill="#3f3d3e" stroke-width="0"/><path d="M211.15997,236.05278c0,0 3.46657,-1.68332 19.40835,0.26102c1.31651,0.16058 -1.77248,-0.2864 7.46019,1.54942c9.23267,1.83578 12.88673,3.88763 12.88673,3.88763c0,0 -14.76205,-3.19612 -20.90212,-4.07617c-6.99895,-1.00313 -18.85319,-1.62189 -18.85319,-1.62189z" fill="#838082" stroke-width="0"/><path d="M220.36369,207.43696c0,0 -4.63673,1.54521 -7.01901,2.83583c-2.67761,1.45062 -8.26431,5.44414 -8.26431,5.44414l-0.5493,-1.69671c0,0 4.27129,-3.28087 6.69528,-4.5941c2.65023,-1.43578 8.58806,-3.68588 8.58806,-3.68588z" fill="#4a494a" stroke-width="0"/><path d="M221.32482,207.31431l-3.76346,1.15832c0,0 0.18713,-0.62621 0.10344,-0.88466c-0.09943,-0.30711 -0.57156,-0.78697 -0.57156,-0.78697l3.36841,-1.33735c0,0 0.67847,0.58888 0.83573,0.9261c0.12052,0.25841 0.02738,0.92453 0.02738,0.92453z" fill="url(#color-3)" stroke-width="0"/><path d="M206.10007,215.07686l-3.30842,2.2835l0.16729,-2.18097l2.34464,-1.70681c0,0 0.69516,0.27148 0.83158,0.54635c0.12856,0.25895 -0.03512,1.05792 -0.03512,1.05792z" fill="url(#color-4)" stroke-width="0"/></g><path d="M338.25624,209.79786c0,0 1.54493,-4.24238 2.24024,-5.54603c0.472,-0.88497 3.02449,-1.96542 3.02449,-1.96542l16.87822,2.19867c0,0 -2.0868,5.55787 -2.65788,6.8563c-0.25018,0.56879 -1.40361,1.10316 -1.40361,1.10316z" fill="#665b60" stroke-width="0"/><path d="M292.72406,184.82871c0,0 -3.53414,-2.08496 -8.24929,-3.92479c-2.99742,-1.16959 -7.14382,-2.33645 -9.00101,-2.49577c-5.39946,-0.46324 -8.61725,4.23263 -8.61725,4.23263c0,0 -2.91161,-2.75672 -4.87666,-3.90181c-1.83429,-1.06887 -6.00135,-2.67731 -6.00135,-2.67731c0,0 25.03335,-1.55531 28.92786,-1.58316c7.4661,-0.05342 33.82187,4.11954 33.82187,4.11954l4.13413,15.02424z" fill="#8b7c84" stroke-width="0"/><g stroke-width="0"><path d="M339.82996,209.07104c0,0 0.8351,-2.5031 1.36828,-3.3306c0.55281,-0.85803 2.86379,-1.58997 2.86379,-1.58997l14.38304,2.06147c0,0 0.24291,1.02783 -0.09474,1.72477c-0.45913,0.94757 -3.59738,3.27323 -3.59738,3.27323z" fill="#585852"/><path d="M339.9357,208.33323c0,0 0.72935,-1.76527 1.26254,-2.59277c0.55281,-0.85803 2.96955,-2.32778 2.96955,-2.32778l14.38304,2.06148c0,0 0.13722,1.76566 -0.20049,2.46259c-0.45913,0.94757 -3.49164,2.53536 -3.49164,2.53536z" fill="#797971"/><path d="M356.73415,205.71441c-1.01302,-0.32495 -12.47951,-2.24257 -12.47951,-2.24257l14.36335,2.05867l-0.34928,2.43694c0,0 -0.52156,-1.92806 -1.53457,-2.25306z" fill="#85857b"/></g><path d="M343.82441,191.28979l0.73631,-5.13725l7.06374,1.01242l0.54801,5.32133z" fill="#7c6e75" stroke-width="0"/><path d="M337.25472,163.65454l-2.9808,-8.64161l1.36537,0.19573l4.83263,9.36324z" fill="#d495b6" stroke-width="0"/><path d="M299.72807,150.56892l13.52368,-1.18292l21.21531,5.67996l2.81435,8.57832z" fill="#df9cbe" stroke-width="0"/><path d="M343.27165,196.28947l0.23011,-1.60539l10.75611,1.54169l0.73314,1.74345z" fill="#7c6e75" stroke-width="0"/><path d="M304.83453,178.50198c0,0 -18.1202,-1.38649 -23.76697,-1.69054c-8.55042,-0.46043 -25.77792,-0.5806 -25.77792,-0.5806c0,0 15.50175,-2.26418 29.08764,-1.84851c14.73055,0.45066 58.54129,5.2577 58.54129,5.2577l-0.76742,5.35435z" fill="#75686e" stroke-width="0"/><path d="M296.74176,186.20216l-3.12943,-1.02518c0,0 10.00993,-0.97408 15.18725,0.53857c5.17732,1.51263 13.63495,7.88234 13.63495,7.88234z" fill="#7c6e76" stroke-width="0"/><path d="M251.3274,175.62163c0,0 -29.84551,-19.83149 -30.07249,-24.53137c-0.20616,-4.26926 29.18696,6.55527 29.49707,6.49037c5.42622,-1.13548 77.60562,1.92125 77.60562,1.92125l25.37629,10.49586l52.30924,6.92012l5.30827,14.47499c0,0 -61.10222,-7.57684 -84.65121,-10.78739c-8.17448,-1.11446 -24.74461,-4.14375 -40.0555,-5.18628c-11.81032,-0.80416 -29.93013,0.95946 -29.93013,0.95946z" fill="#ee96c3" stroke-width="0"/><path d="M121.72249,169.71706l6.15271,-19.47809c0,0 0.90031,-6.99718 8.39699,-8.24213c9.31114,-1.54626 25.77581,2.61693 27.82552,2.91073c1.57291,0.22546 -14.25492,8.47999 -14.25492,8.47999l-2.8594,19.95012z" fill="#c4b4b3" stroke-width="0"/><g stroke-width="0"><path d="M402.627,191.53859l-0.67979,-15.39507l90.8587,19.85627l-1.57298,5.64084l-47.63791,-1.9211z" fill="#ad6d8e"/><path d="M430.73988,181.0852l8.37289,-7.15717l26.80594,1.69126l-5.73726,9.68577z" fill="#8d788b"/><path d="M405.35792,178.64803l2.30344,-16.07104l31.52037,11.3651l-5.50694,6.14992z" fill="#857183"/><path d="M447.81872,181.37904l18.03781,-5.76744l27.02472,7.68466l-1.26129,6.78367z" fill="#947e92"/><path d="M401.31739,177.45416l4.67558,-12.22627l1.86687,-2.82754l-2.13724,14.91146z" fill="#756474"/><path d="M404.34942,188.53823l0.99885,-12.05293l43.1096,4.51315l-3.49184,15.72067z" fill="#746373"/><path d="M444.96062,196.70268c0,0 1.27103,-6.18976 1.87129,-8.97694c0.51393,-2.38632 1.51157,-6.73108 1.51157,-6.73108l43.62391,7.17091l0.78798,8.5988z" fill="#867284"/><path d="M401.36743,177.39018l4.20405,-0.94398l-1.19341,12.10386z" fill="#6f5e6d"/><path d="M485.75419,182.16602l-19.14048,-6.14139l25.94097,7.39161l-0.86298,3.45802c0,0 -0.08776,-1.59789 -1.18386,-2.46708c-0.73322,-0.58142 -4.75367,-2.24115 -4.75367,-2.24115z" fill="#978195"/><path d="M446.25375,180.49839c0,0 8.38562,-2.29878 11.32784,-3.24502c2.1433,-0.68926 4.70079,-1.90983 4.70079,-1.90983l2.49223,0.47097l-15.89901,5.05961z" fill="#9c859a"/><path d="M431.9037,179.25819c0,0 1.69357,-2.53769 3.22177,-3.68275c1.52818,-1.14506 3.92874,-1.62454 3.92874,-1.62454l-4.71386,5.6565z" fill="#806b7d"/><path d="M467.66533,174.10724l2.92519,-5.37267l14.51657,5.85214l4.63535,7.12975z" fill="#55494f"/><path d="M464.76033,176.51959c0,0 1.18361,-0.62863 1.82128,-1.12797c0.48034,-0.37613 1.3578,-1.64909 1.3578,-1.64909l21.52048,7.12536c0,0 0.78857,0.61507 1.32264,1.02062c0.55816,0.42383 1.95717,1.46991 1.95717,1.46991z" fill="#685960"/><path d="M468.34741,173.30369l2.29231,-4.30367l13.53123,5.30024c0,0 -7.70824,-2.6532 -12.18015,-3.03685c-2.59395,-0.22255 -3.64339,2.04029 -3.64339,2.04029z" fill="#41383c"/></g><path d="M128.91828,131.06687l0.73894,-5.15563c0,0 22.2943,1.88712 44.02223,5.05888c12.94786,1.89009 26.15377,5.39686 33.05471,6.03228c15.56007,1.43266 26.56318,-1.54858 26.56318,-1.54858l-7.78649,9.63588z" fill="#ffa1d1" stroke-width="0"/><path d="M124.38614,144.51751l4.42025,-15.6134c0,0 53.94963,9.81409 71.6788,11.91c10.50202,1.24154 24.89394,-0.49329 24.89394,-0.49329l-2.07747,14.49424c0,0 -66.81819,-9.57695 -82.92596,-11.88565c-6.62291,-0.94926 -19.80388,28.20042 -19.80388,28.20042z" fill="#ee96c3" stroke-width="0"/><path d="M290.93005,245.66177l11.11511,-12.14171c0,0 12.06811,-14.28961 22.34701,-19.74922c2.61205,-1.38736 7.89905,-1.83836 7.89905,-1.83836c0,0 -7.93728,3.89843 -10.90189,6.29347c-7.0011,5.65606 -30.45923,27.43581 -30.45923,27.43581z" fill="#70646b" stroke-width="0"/><path d="M395.16677,195.09861l-3.68283,-18.71362l1.33646,0.19155c0,0 1.11535,5.66746 1.70468,8.66215c0.08399,0.42667 1.26191,1.82909 1.36589,2.35759c0.18031,0.91617 -0.69798,1.0363 -0.49646,2.0603c0.56116,2.85133 1.10868,5.63355 1.10868,5.63355z" fill="#795467" stroke-width="0"/><path d="M223.86638,155.3322c0,0 -9.44636,-7.9732 -8.2383,-11.61357c0.72333,-2.17967 18.52374,-7.66174 18.52374,-7.66174l67.57171,11.37414l-2.0594,2.8326l28.60557,9.40205l-74.84014,16.12005c0,0 0.01313,-5.66931 3.98447,-7.98746c3.85974,-2.25299 19.51833,-5.73156 19.51833,-5.73156c0,0 -33.86429,-4.9032 -41.06918,-6.02344c-2.40373,-0.37375 -11.9969,-0.7111 -11.9969,-0.7111z" fill="#f399c8" stroke-width="0"/><g><path d="M232.10015,137.70666l0.45947,-3.20559l174.76765,25.04918l-0.45947,3.20559z" fill="#584f54" stroke-width="0"/><path d="M401.55433,158.97359l0.38821,-2.70865l3.02436,0.43347l2.2803,3.09112z" fill="#685d63" stroke-width="0"/><g fill="#685d63" stroke-width="0"><g><g><g><path d="M394.92629,158.27533l0.42238,-2.94689l3.84186,0.55063l-0.42238,2.94689z"/><path d="M388.69247,157.38187l0.42238,-2.94689l3.84186,0.55064l-0.42238,2.94689z"/></g><g><path d="M382.69388,156.52209l0.42238,-2.9469l3.84186,0.55064l-0.42238,2.94689z"/><path d="M376.46001,155.62858l0.42238,-2.94689l3.84185,0.55064l-0.42238,2.9469z"/></g></g><g><g><path d="M370.34381,154.75196l0.42238,-2.9469l3.84185,0.55064l-0.42238,2.94689z"/><path d="M364.10995,153.8585l0.42238,-2.94689l3.84186,0.55063l-0.42238,2.9469z"/></g><g><path d="M358.1114,152.99872l0.42238,-2.94689l3.84185,0.55064l-0.42238,2.94689z"/><path d="M351.87761,152.10525l0.42238,-2.94689l3.84185,0.55063l-0.42238,2.9469z"/></g></g></g><g><g><g><path d="M351.64237,152.07155l0.42238,-2.94689l3.84185,0.55064l-0.42238,2.94689z"/><path d="M345.40858,151.17804l0.42238,-2.94689l3.84186,0.55064l-0.42238,2.94689z"/></g><g><path d="M339.40996,150.31827l0.42238,-2.9469l3.84185,0.55064l-0.42238,2.94689z"/><path d="M333.17614,149.42478l0.42238,-2.94689l3.84185,0.55063l-0.42238,2.9469z"/></g></g><g><g><path d="M327.05998,148.54818l0.42238,-2.9469l3.84186,0.55064l-0.42238,2.94689z"/><path d="M320.82613,147.65469l0.42238,-2.94689l3.84186,0.55064l-0.42238,2.9469z"/></g><g><path d="M314.82754,146.79492l0.42238,-2.94689l3.84186,0.55063l-0.42238,2.9469z"/><path d="M308.59371,145.90141l0.42238,-2.94689l3.84186,0.55064l-0.42238,2.94689z"/></g></g></g></g><g><g fill="#685d63" stroke-width="0"><g><g><path d="M302.43749,145.01905l0.42238,-2.9469l3.84186,0.55064l-0.42238,2.94689z"/><path d="M296.20367,144.12557l0.42238,-2.94689l3.84186,0.55064l-0.42238,2.9469z"/></g><g><path d="M290.20508,143.26583l0.42238,-2.94689l3.84186,0.55064l-0.42238,2.9469z"/><path d="M283.97132,142.37232l0.42238,-2.94689l3.84186,0.55063l-0.42238,2.9469z"/></g></g><g><g><path d="M277.85508,141.4957l0.42238,-2.9469l3.84186,0.55064l-0.42238,2.94689z"/><path d="M271.62125,140.6022l0.42238,-2.94689l3.84186,0.55064l-0.42238,2.9469z"/></g><g><path d="M265.62263,139.74246l0.42238,-2.94689l3.84186,0.55064l-0.42238,2.9469z"/><path d="M259.38879,138.84899l0.42238,-2.94689l3.84186,0.55063l-0.42238,2.94689z"/></g></g></g><g><g fill="#685d63" stroke-width="0"><g><path d="M259.1536,138.81525l0.42238,-2.9469l3.84186,0.55064l-0.42238,2.94689z"/><path d="M252.91975,137.92174l0.42238,-2.94689l3.84186,0.55063l-0.42238,2.9469z"/></g><g><path d="M246.92117,137.06198l0.42238,-2.94689l3.84186,0.55063l-0.42238,2.9469z"/><path d="M240.68736,136.16848l0.42238,-2.94689l3.84186,0.55063l-0.42238,2.94689z"/></g></g><g fill="none" stroke-width="1" font-family="sans-serif" font-weight="normal" font-size="12" text-anchor="start"><g/><g/></g></g></g><path d="M232.59518,134.75694l3.05675,-2.32616l3.02436,0.43347l-0.38821,2.70865z" data-paper-data="{&quot;index&quot;:null}" fill="#685d63" stroke-width="0"/></g><path d="M284.26463,175.38516l-2.56435,-0.09475c0,0 2.02621,-2.30337 11.68429,-2.05831c7.32226,0.18581 27.8636,1.80507 40.15522,2.81345c5.70792,0.46823 62.91532,-0.42624 62.91532,-0.42624l5.14825,0.72343c0,0 -62.60162,1.78091 -68.30206,1.29026c-12.6052,-1.08496 -33.80501,-2.87365 -39.97353,-3.17335c-3.35789,-0.16316 -9.06309,0.92552 -9.06309,0.92552z" fill="#70475c" stroke-width="0"/><path d="M381.45461,208.53735l-5.13588,1.12855l2.68665,-18.73977c0,0 7.70579,1.15336 15.24187,2.2813c21.6339,3.23801 125.60785,18.80014 125.60785,18.80014l-0.95445,6.65921z" fill="#5a5959" stroke-width="0"/><path d="M380.31774,210.01945l1.50636,-2.82085l137.10412,11.36155l-13.29713,9.42029z" fill="#4b4a4a" stroke-width="0"/><path d="M502.4054,227.32706c0,0 -5.38899,-4.03009 -8.18816,-5.87398c-1.50013,-0.98817 -7.3014,-4.32935 -7.3014,-4.32935c0,0 7.50852,4.0096 10.6848,5.42251c1.13357,0.50425 2.14043,1.39894 3.35632,2.10674c0.39205,0.22822 2.58852,-2.24432 4.71148,-3.67192c0.63454,-0.42672 1.73133,0.09876 2.29834,-0.15414c1.29982,-0.57978 1.81007,-1.60923 1.81007,-1.60923c0,0 0.20215,0.96804 -1.17667,1.99658c-0.37618,0.28064 -2.21087,0.37361 -2.58417,0.68414c-1.496,1.24463 -2.71454,2.68539 -3.10046,3.22732c-1.07697,1.51232 0.93841,2.40895 0.93841,2.40895z" fill="#414040" stroke-width="0"/><path d="M223.77571,155.61966l5.3513,-10.4452l7.02381,0.37603c0,0 -1.31674,2.48653 -2.09276,3.95199c-0.19545,0.3691 11.75687,0.10606 12.0101,0.82024c0.46986,1.32505 -5.57931,4.25634 -6.06734,5.17798c-0.55796,1.05363 -9.23054,0.21049 -9.23054,0.21049z" fill="#303030" stroke-width="0"/><path d="M223.68612,155.233l5.12938,-9.63339c0,0 2.78473,1.71706 2.64498,2.69206c-0.25426,1.77407 -2.6384,7.27864 -2.6384,7.27864z" fill="#252525" stroke-width="0"/><path d="M375.92404,212.29218l0.41888,-2.92253l5.88678,-2.13882l-1.64446,2.74685c0,0 -1.26881,1.16706 -2.08857,1.5741c-0.72134,0.35819 -2.57262,0.74034 -2.57262,0.74034z" fill="#383838" stroke-width="0"/><g><g fill="#4b4b4b" stroke-width="0"><g data-paper-data="{&quot;origPos&quot;:null}"><g data-paper-data="{&quot;origPos&quot;:null}"><path d="M442.19156,223.17517l0.32245,-2.24978l3.71207,0.53203l-0.32245,2.24978z" data-paper-data="{&quot;origPos&quot;:null}"/><path d="M436.0209,222.17596l0.32245,-2.24978l3.71206,0.53203l-0.32245,2.24977z" data-paper-data="{&quot;origPos&quot;:null}"/></g><g data-paper-data="{&quot;origPos&quot;:null}"><path d="M454.549,225.06119l0.32245,-2.24978l3.71207,0.53203l-0.32245,2.24977z" data-paper-data="{&quot;origPos&quot;:null}"/><path d="M448.37832,224.06194l0.32245,-2.24977l3.71206,0.53203l-0.32245,2.24978z" data-paper-data="{&quot;origPos&quot;:null}"/></g></g><g data-paper-data="{&quot;origPos&quot;:null,&quot;index&quot;:null}"><g data-paper-data="{&quot;origPos&quot;:null}"><path d="M473.59151,227.56092l0.32245,-2.24978l3.71207,0.53203l-0.32245,2.24977z" data-paper-data="{&quot;origPos&quot;:null}"/><path d="M479.79441,228.33515l0.32244,-2.24977l3.71207,0.53203l-0.32245,2.24976z" data-paper-data="{&quot;origPos&quot;:null}"/></g><g data-paper-data="{&quot;origPos&quot;:null}"><path d="M461.20185,225.89988l0.32245,-2.24978l3.71206,0.53203l-0.32244,2.24977z" data-paper-data="{&quot;origPos&quot;:null}"/><path d="M467.40475,226.67418l0.32245,-2.24977l3.71207,0.53203l-0.32245,2.24977z" data-paper-data="{&quot;origPos&quot;:null}"/></g></g></g><path d="M401.0718,208.95216l1.93112,-13.47342l83.61948,11.98505l-1.93112,13.47342z" data-paper-data="{&quot;origPos&quot;:null}" fill="#444444" stroke-width="0"/><path d="M400.49932,213.64059l0.67853,-4.73407l83.37371,11.94981l-0.67853,4.73408z" data-paper-data="{&quot;origPos&quot;:null}" fill="#414141" stroke-width="0"/><path d="M400.33172,215.05537l0.22952,-1.60127l83.36311,11.94831l-0.22951,1.60127z" data-paper-data="{&quot;origPos&quot;:null}" fill="#3f3f3f" stroke-width="0"/><g stroke-width="0"><g data-paper-data="{&quot;origPos&quot;:null}" fill="#5a5a5a"><g data-paper-data="{&quot;origPos&quot;:null}"><path d="M443.89446,215.17008l1.95082,-13.61091l3.53529,0.50671l-1.95082,13.61091z" data-paper-data="{&quot;origPos&quot;:null}"/></g><g data-paper-data="{&quot;origPos&quot;:null}"><path d="M449.90448,216.03148l1.95082,-13.61091l3.5353,0.50671l-1.95082,13.61091z" data-paper-data="{&quot;origPos&quot;:null}"/><path d="M456.09126,216.91821l1.95083,-13.61092l3.53529,0.50671l-1.95082,13.61091z" data-paper-data="{&quot;origPos&quot;:null}"/></g></g><g data-paper-data="{&quot;origPos&quot;:null}" fill="#5a5a5a"><g data-paper-data="{&quot;origPos&quot;:null}"><path d="M462.63156,217.85562l1.95082,-13.61091l3.53529,0.50671l-1.95082,13.61092z" data-paper-data="{&quot;origPos&quot;:null}"/><path d="M468.81832,218.74237l1.95082,-13.61091l3.5353,0.50671l-1.95083,13.61092z" data-paper-data="{&quot;origPos&quot;:null}"/></g><g data-paper-data="{&quot;origPos&quot;:null}"><path d="M474.82836,219.60378l1.95083,-13.61092l3.53529,0.50671l-1.95083,13.61092z" data-paper-data="{&quot;origPos&quot;:null}"/><path d="M481.01513,220.49051l1.95083,-13.61092l3.53529,0.50671l-1.95082,13.61091z" data-paper-data="{&quot;origPos&quot;:null}"/></g></g><path d="M447.4905,215.68548l-1.14389,1.78679l-5.19446,-0.70098l1.25197,-9.71715l3.38289,-5.50339l-1.88257,13.6207z" fill="#3a3a3a"/><path d="M453.49809,216.54652l-1.14389,1.7868l-5.19447,-0.70099l1.25198,-9.71715l3.38289,-5.50338l-1.88257,13.62069z" fill="#3a3a3a"/><path d="M459.64216,217.42717l-1.14389,1.7868l-5.19447,-0.70098l1.25197,-9.71715l3.38289,-5.50338l-1.88257,13.6207z" fill="#3a3a3a"/><path d="M466.26415,218.3763l-1.14389,1.7868l-5.19447,-0.70098l1.25197,-9.71715l3.38289,-5.50338l-1.88257,13.6207z" fill="#3a3a3a"/><path d="M472.47654,219.2667l-1.14389,1.7868l-5.19447,-0.70098l1.25197,-9.71715l3.38289,-5.50338l-1.88257,13.62069z" fill="#3a3a3a"/><path d="M478.41582,220.11796l-1.14389,1.78679l-5.19446,-0.70098l1.25197,-9.71715l3.38289,-5.50338l-1.88257,13.6207z" fill="#3a3a3a"/><path d="M484.63605,221.00949l-1.14389,1.78679l-5.19447,-0.70098l1.25198,-9.71715l3.38289,-5.50339l-1.88257,13.6207z" fill="#3a3a3a"/></g><g stroke-width="0"><g data-paper-data="{&quot;origPos&quot;:null}" fill="#5a5a5a"><g data-paper-data="{&quot;origPos&quot;:null}"><path d="M401.10272,209.0368l1.95083,-13.61092l3.5353,0.50671l-1.95082,13.61091z" data-paper-data="{&quot;origPos&quot;:null}"/></g><g data-paper-data="{&quot;origPos&quot;:null}"><path d="M407.1127,209.89822l1.95082,-13.61091l3.53529,0.50671l-1.95082,13.61091z" data-paper-data="{&quot;origPos&quot;:null}"/><path d="M413.29947,210.78496l1.95082,-13.61091l3.5353,0.50671l-1.95083,13.61092z" data-paper-data="{&quot;origPos&quot;:null}"/></g></g><g data-paper-data="{&quot;origPos&quot;:null}" fill="#5a5a5a"><g data-paper-data="{&quot;origPos&quot;:null}"><path d="M419.83976,211.72235l1.95083,-13.61092l3.53529,0.50672l-1.95082,13.61091z" data-paper-data="{&quot;origPos&quot;:null}"/><path d="M426.02664,212.60911l1.95082,-13.61091l3.5353,0.50671l-1.95083,13.61092z" data-paper-data="{&quot;origPos&quot;:null}"/></g><g data-paper-data="{&quot;origPos&quot;:null}"><path d="M432.03664,213.4705l1.95082,-13.61091l3.5353,0.50671l-1.95083,13.61092z" data-paper-data="{&quot;origPos&quot;:null}"/><path d="M438.22342,214.35727l1.95083,-13.61092l3.5353,0.50671l-1.95082,13.61092z" data-paper-data="{&quot;origPos&quot;:null}"/></g></g><path d="M404.6987,209.5522l-1.14389,1.7868l-2.70827,-0.34465l0.26614,-1.95618z" fill="#3a3a3a"/><path d="M410.70631,210.41328l-1.14389,1.7868l-5.19447,-0.70098l1.25198,-9.71715l3.38289,-5.50338l-1.88257,13.6207z" fill="#3a3a3a"/><path d="M416.85037,211.29388l-1.14389,1.78679l-5.19447,-0.70098l1.25197,-9.71714l3.38289,-5.50339l-1.88257,13.6207z" fill="#3a3a3a"/><path d="M423.47235,212.24298l-1.14389,1.78679l-5.19447,-0.70098l1.25198,-9.71715l3.38289,-5.50338l-1.88257,13.6207z" fill="#3a3a3a"/><path d="M429.68481,213.13344l-1.14389,1.78679l-5.19446,-0.70098l1.25197,-9.71715l3.38289,-5.50338l-1.88257,13.6207z" fill="#3a3a3a"/><path d="M435.6241,213.98469l-1.14389,1.78679l-5.19446,-0.70098l1.25197,-9.71715l3.38289,-5.50339l-1.88257,13.6207z" fill="#3a3a3a"/><path d="M441.84433,214.87627l-1.14389,1.7868l-5.19446,-0.70098l1.25197,-9.71715l3.38289,-5.50338l-1.88257,13.6207z" fill="#3a3a3a"/></g><g><g data-paper-data="{&quot;origPos&quot;:null}"><g data-paper-data="{&quot;origPos&quot;:null}" fill="none" stroke-width="1" font-family="sans-serif" font-weight="normal" font-size="12" text-anchor="start"/><g data-paper-data="{&quot;origPos&quot;:null}" fill="#4b4b4b" stroke-width="0"><path d="M406.29531,218.22274l0.32245,-2.24978l3.71206,0.53203l-0.32244,2.24977z" data-paper-data="{&quot;origPos&quot;:null}"/><path d="M400.12463,217.22352l0.32245,-2.24978l3.71206,0.53203l-0.32245,2.24978z" data-paper-data="{&quot;origPos&quot;:null}"/></g></g><g data-paper-data="{&quot;origPos&quot;:null,&quot;index&quot;:null}" fill="#4b4b4b" stroke-width="0"><g data-paper-data="{&quot;origPos&quot;:null}"><path d="M425.33789,220.72247l0.32245,-2.24977l3.71207,0.53203l-0.32245,2.24977z" data-paper-data="{&quot;origPos&quot;:null}"/><path d="M431.54075,221.4967l0.32245,-2.24976l3.71207,0.53203l-0.32245,2.24977z" data-paper-data="{&quot;origPos&quot;:null}"/></g><g data-paper-data="{&quot;origPos&quot;:null}"><path d="M412.9481,219.06149l0.32245,-2.24978l3.71207,0.53203l-0.32245,2.24977z" data-paper-data="{&quot;origPos&quot;:null}"/><path d="M419.15102,219.83567l0.32245,-2.24978l3.71207,0.53203l-0.32245,2.24978z" data-paper-data="{&quot;origPos&quot;:null}"/></g></g></g></g><path d="M236.55362,155.84084l1.62715,-4.02497c0,0 5.01097,-2.46143 8.52769,-2.10894c4.02028,0.40299 33.68248,4.67964 33.68248,4.67964c0,0 0.38919,1.95069 0.1641,3.14808c-0.29,1.54267 -2.81947,4.27607 -2.81947,4.27607z" fill="#242424" stroke-width="0"/><path d="M261.72827,155.60012l0.44697,-3.11845l17.81969,2.55405l-0.44697,3.11845z" fill="#313131" stroke-width="0"/><path d="M258.19389,157.04391l0.09254,-0.64564c0,0 1.20619,-0.88902 2.21892,-0.74386c0.96166,0.13784 3.06014,0.91839 5.46404,1.42798c4.57943,0.97075 10.13649,1.86994 10.13649,1.86994l-0.09254,0.64564c0,0 -5.37306,-0.77217 -9.88809,-1.73314c-2.46361,-0.52434 -4.62812,-1.40937 -5.62572,-1.55236c-1.04856,-0.15029 -2.30561,0.73144 -2.30561,0.73144z" fill="#616161" stroke-width="0"/><path d="M287.28161,145.34152l12.13546,4.79689l29.78528,9.63142c0,0 0.6939,0.32593 -7.21941,-1.54395c-2.69199,-0.6361 -12.99442,-3.73821 -21.85396,-6.93029c-2.39728,-0.86373 -15.10829,-6.16156 -15.10829,-6.16156z" fill="#df8cb7" stroke-width="0"/><path d="M107.12713,125.9213l0.84177,-5.87308c0,0 5.96044,-0.91656 9.72575,-0.37688c3.08254,0.44181 10.98181,5.11577 10.98181,5.11577l-1.87442,12.12748z" fill="#626061" stroke-width="0"/><path d="M220.5959,152.27238l3.40233,3.01926l12.31098,0.42782l50.23162,7.19965l-0.15476,1.08001c0,0 -37.66053,-5.54455 -49.48076,-6.97383c-3.24523,-0.3924 -12.94878,-1.05497 -12.94878,-1.05497z" fill="#ffa6d4" stroke-width="0"/><path d="M95.20356,188.79596l1.01722,-7.09706l25.55018,-13.1381l-3.53032,13.30258l-15.1686,8.06039z" fill="#3f3d3e" stroke-width="0"/><path d="M94.30787,183.55571c0,0 2.97387,-19.42644 5.13107,-28.7985c2.43474,-10.57783 8.74571,-31.49012 8.74571,-31.49012c0,0 8.55429,1.03478 11.86661,3.17218c2.83489,1.82929 6.79888,8.87233 6.79888,8.87233l-4.76025,33.21215c0,0 -13.68032,11.87735 -17.01493,13.68159c-5.1292,2.77526 -10.76707,1.35038 -10.76707,1.35038z" fill="#555354" stroke-width="0"/><path d="M106.53169,133.73694c0,0 -0.67431,-6.15079 1.75359,-8.5276c2.42791,-2.3768 6.87777,-2.76632 9.41214,-2.40308c2.02174,0.28977 6.19449,0.96738 8.40625,5.78847c2.21179,4.82106 -0.63477,11.1513 -0.63477,11.1513c0,0 -4.76002,-11.19225 -7.23016,-11.97608c-3.48563,-1.10604 -11.7071,5.967 -11.7071,5.967z" fill="#6f6b6c" stroke-width="0"/><path d="M92.17833,188.1721c0,0 5.3949,-25.55562 7.01855,-36.88366c1.6909,-11.79725 4.41823,-32.33647 4.41823,-32.33647c0,0 1.23573,-0.47241 2.26603,-0.32474c0.94208,0.13501 2.40187,0.99381 2.40187,0.99381c0,0 -2.9299,18.93108 -4.44724,29.51769c-1.76293,12.29978 -8.26243,39.51995 -8.26243,39.51995z" fill="#333232" stroke-width="0"/><path d="M91.68896,188.55014l3.16989,-14.40424c0,0 0.9184,1.02962 1.51726,1.07639c0.75617,0.05904 2.62016,-1.126 2.62016,-1.126l-3.37833,15.01692z" fill="#2e2d2d" stroke-width="0"/><path d="M122.335,156.31221c-1.15841,8.08202 -6.47066,16.07715 -11.20711,18.35561c-3.93375,1.89235 -12.31533,7.51797 -11.15695,-0.56403c0.24574,-1.71458 3.95455,-13.18374 5.0791,-20.12424c1.48715,-9.17868 0.56477,-14.34268 1.91462,-17.00977c2.44086,-4.82248 8.11813,-5.50339 10.31023,-5.18919c4.32109,0.61935 6.2185,16.44962 5.06012,24.53164z" fill="#585758" stroke-width="0"/><path d="M154.45005,175.14216l-0.3396,-1.80721c0,0 8.051,-0.2104 14.0768,0.16418c8.48294,0.52731 32.01999,2.70128 32.01999,2.70128l1.59597,1.52305c0,0 -25.08652,-1.95867 -33.82104,-2.43479c-2.56521,-0.13983 -13.53214,-0.14646 -13.53214,-0.14646z" fill="#585657" stroke-width="0"/><path d="M146.74643,187.37341l7.07979,-12.81657l7.30391,0.08648c0,0 -2.3325,4.02326 -2.3542,4.78302c-0.10379,3.63033 -0.53761,27.7801 -0.53761,27.7801c0,0 -1.52501,0.22635 -2.43624,-1.79898c-1.63505,-3.63403 -2.47842,-10.68706 -3.91446,-13.01701c-1.24075,-2.01308 -5.14115,-5.01703 -5.14115,-5.01703z" fill="#5a5759" stroke-width="0"/><path d="M163.51955,158.65862l4.46763,-10.80878l2.3255,0.22105l-5.59904,10.87112z" fill="#a5a0a2" stroke-width="0"/><path d="M170.39428,158.5494l0.19901,-1.38856l26.22819,3.75924l-0.199,1.38856z" fill="#494748" stroke-width="0"/><path d="M170.73604,155.59672l0.19901,-1.38856l26.22819,3.75924l-0.19901,1.38856z" fill="#494748" stroke-width="0"/><path d="M148.32004,175.0206l2.85721,-19.93461l13.48783,-7.78134l4.8398,0.37873l-22.18544,40.07125l-5.27023,-2.77922z" fill="#dbd5d8" stroke-width="0"/><path d="M120.39914,183.05491l1.51656,-11.69396l26.49688,3.00021c0,0 -0.03312,2.55894 -0.2753,3.33088c-0.60362,1.9243 -3.57492,8.50714 -3.57492,8.50714z" fill="#ccc6c9" stroke-width="0"/><path d="M125.76671,172.31746l0.0448,-0.3126l22.70941,2.37758l-2.74708,0.80266c0,0 -4.30432,-0.42883 -6.98114,-0.84456c-3.66526,-0.56925 -13.02601,-2.02306 -13.02601,-2.02306z" fill="#d8d1d5" stroke-width="0"/><path d="M129.77676,169.11719l2.41195,-16.82801l15.96189,2.28779l-2.41195,16.82801z" fill="#a39999" stroke-width="0"/><path d="M120.10131,183.1837l1.61163,-11.24439c0,0 7.84134,7.57582 11.75257,10.50093c3.91125,2.92511 10.38641,3.57032 10.38641,3.57032z" fill="#b4afb1" stroke-width="0"/><path d="M152.54687,193.93848c0,0 2.8512,1.45979 3.95663,1.47304c0.67907,0.00811 2.04511,-1.40126 2.04511,-1.40126l0.35445,9.21674l-0.5952,4.15268c0,0 -1.96756,0.03261 -2.86729,-2.70532c-0.74234,-2.25902 -2.89374,-10.73581 -2.89374,-10.73581z" fill="#504e4f" stroke-width="0"/><path d="M146.96889,187.96731l20.23776,-39.26952l1.69685,0.45045l-20.19445,39.69017z" fill="#858183" stroke-width="0"/><path d="M136.08539,145.23487l1.7336,-1.41888c0,0 27.22962,3.25229 39.51437,5.01306c10.66233,1.52823 31.57171,4.88174 31.57171,4.88174l0.24869,1.99687c0,0 -20.98169,-3.72047 -32.22045,-5.33128c-12.83322,-1.83936 -40.84792,-5.14148 -40.84792,-5.14148z" fill="#918b8e" stroke-width="0"/><path d="M137.26795,144.16105l2.27885,-1.63462c0,0 25.67652,3.32359 37.96126,5.08433c10.66232,1.52823 31.57171,4.88174 31.57171,4.88174l0.24868,1.99687c0,0 -20.98168,-3.72047 -32.22045,-5.33129c-12.83322,-1.83936 -39.84004,-4.99706 -39.84004,-4.99706z" fill="#a59fa2" stroke-width="0"/><path d="M198.27396,173.90343l-1.09979,-5.89833c0,0 0.38046,-1.16281 0.72606,-1.22726c0.3045,-0.05678 1.24,0.86062 1.24,0.86062l1.09978,5.89833c0,0 -0.39788,0.82958 -0.70307,0.88647c-0.34525,0.06438 -1.26304,-0.51988 -1.26304,-0.51988z" fill="#494242" stroke-width="0"/><path d="M158.03099,170.81118l4.85284,-8.88708l3.84641,0.55129l-4.85284,8.88708z" fill="#9c989a" stroke-width="0"/><path d="M170.02351,154.57225l1.96933,-0.69557l24.18906,3.48522l1.86286,1.22663z" fill="#757274" stroke-width="0"/><path d="M169.71801,157.36845l1.96933,-0.69558l24.18905,3.48524l1.86287,1.22662z" fill="#757274" stroke-width="0"/><path d="M117.84459,181.86724l9.94102,-57.32723l1.81848,0.84728l-9.45793,57.8017z" fill="#686666" stroke-width="0"/><path d="M117.64452,182.11163l2.95431,-15.99843l1.72615,4.10487l-2.32037,13.1135z" fill="#535252" stroke-width="0"/><path d="M151.32481,163.83051c0,0 2.43532,-2.02037 2.56965,-2.95761c0.13183,-0.91973 -1.77107,-2.61416 -1.77107,-2.61416c0,0 2.87667,1.08885 2.53398,2.7453c-0.26103,1.2617 -1.61155,3.27952 -1.85445,4.35833c-0.69067,3.0675 -2.41475,10.24283 -2.41475,10.24283z" fill="#c4bec1" stroke-width="0"/><path d="M159.19434,163.02726l3.3388,-9.82109l3.14084,-3.94861l-3.98429,9.08481z" fill="#aca7a9" stroke-width="0"/></g></g><g stroke-width="0"><path d="M280.0074,152.22832l3.00145,-2.93302c0,0 1.99293,-1.16535 2.77056,-0.77611c0.8866,0.44381 2.26499,3.29678 2.26499,3.29678l-1.1156,3.96376c0,0 -4.23687,-0.6149 -5.47141,-0.92648c-0.55656,-0.14048 -1.44995,-2.62493 -1.44995,-2.62493z" fill="#c0c0c0"/><path d="M236.15343,155.69256c0,0 0.23394,-2.8759 1.44392,-3.85297c1.51639,-1.22447 7.84867,-2.55168 7.84867,-2.55168l-1.37549,4.58836l-0.41445,2.89168z" fill="#838383"/><path d="M235.99355,155.59451l9.08418,-6.25572l37.18236,5.32929l-1.06143,7.4056z" fill="#999999"/><path d="M237.07558,155.08646l6.92612,-4.9081l33.43067,4.79156l-0.82869,5.78202c0,0 -4.04623,-0.57994 -9.25124,-1.32593c-3.3841,-0.48505 -7.10732,-2.09154 -10.67749,-2.60326c-3.82991,-0.54895 -7.46101,0.0035 -9.61219,-0.30483c-4.21014,-0.60343 -9.98714,-1.43146 -9.98714,-1.43146z" fill="#d952b3"/><path d="M240.53279,155.57977l9.12177,-4.6562l12.33802,1.76838c0,0 -7.57208,0.84155 -10.04794,1.41058c-2.62844,0.60408 -6.10756,2.23748 -6.10756,2.23748z" fill="#a5899d"/><path d="M248.4571,156.60165c0,0 5.17161,-0.24082 7.60386,0.10782c3.1078,0.44544 9.51801,2.34625 9.51801,2.34625l-9.50883,-1.70151z" fill="#adadad"/><path d="M236.09963,155.59134l8.20353,-5.64485l34.61295,4.96105l-0.0977,0.68162c0,0 -29.97053,-4.29562 -33.87719,-4.85558c-0.81712,-0.11711 -8.84155,4.85779 -8.84155,4.85779z" fill="#8a8a8a"/><path d="M281.90506,168.45614l1.38409,-9.65664l1.66598,-7.03671c0,0 1.1085,0.63358 1.57685,1.26997c0.46837,0.63637 0.68792,1.8072 0.68792,1.8072l-3.32217,13.90183z" fill="#9e9e9e"/><path d="M277.10887,163.49469c0,0 -0.60107,-2.23278 -0.51091,-3.82523c0.12137,-2.14441 1.75119,-7.4854 1.75119,-7.4854l1.96796,-0.04663c0,0 0.63886,0.89143 1.13308,0.81161c0.68138,-0.11008 2.57711,-1.411 2.57711,-1.411l-2.31605,12.61632z" fill="#9c9c9c"/><path d="M277.41727,165.38826c-0.61778,-1.20426 -0.18497,-2.5294 -0.18497,-2.5294l5.84992,-6.43549c0,0 0.82852,4.04223 0.69847,4.94941c-0.36967,2.57918 -0.04722,7.42362 -0.04722,7.42362c0,0 -2.96184,-0.33993 -3.92794,-0.9215c-1.15875,-0.69752 -1.77041,-1.28239 -2.38822,-2.48668z" fill="#888888"/><path d="M279.28983,164.87451c-0.69453,-2.11971 -1.06161,-6.68101 1.34064,-10.44503c2.40229,-3.76403 4.48983,-1.31186 4.48983,-1.31186c0,0 0.3688,4.52103 0.04066,6.81051c-0.2989,2.08552 -1.92999,6.37159 -1.92999,6.37159c0,0 -3.24656,0.6945 -3.94108,-1.42522z" fill="#b4b4b4"/><path d="M284.50132,157.84751c-0.2002,1.39681 -5.26945,0.74842 -5.06927,-0.64835c0.2002,-1.39681 3.99447,-6.31039 4.79865,-6.19509c0.31145,0.04464 0.93435,0.23681 0.97836,1.31465c0.0696,1.70517 -0.58511,4.67298 -0.70779,5.52879z" fill="#bbbbbb"/></g><g stroke-width="0"><path d="M220.50268,152.24374c0,0 -5.09964,-5.6985 -4.83386,-7.55296c0.21701,-1.51417 6.20964,-0.77963 6.20964,-0.77963l7.45876,1.14161l-5.51273,10.09899z" fill="#f399c8"/><path d="M190.05243,149.53778c0,0 -0.66264,-2.21425 -0.25578,-3.23962c0.44899,-1.13156 2.99991,-4.40769 2.99991,-4.40769l22.83144,3.08484l7.81041,9.83074z" fill="#ee96c3"/></g></g><g stroke-width="0"><g><path d="M287.37342,143.55982l0.87704,-6.11927l47.33445,6.78437l-0.87704,6.11927z" fill="#61585b"/><path d="M287.672,140.32592l0.46966,-3.27687l47.51442,6.8102l-0.46966,3.27686c0,0 -8.55346,-1.22597 -17.34004,-2.48533c-2.7472,-0.39374 -6.82469,0.55457 -9.36316,0.1907c-3.01852,-0.43265 -6.04061,-2.39854 -7.97685,-2.67604c-5.80598,-0.83217 -12.83435,-1.83957 -12.83435,-1.83957z" fill="#494344"/><path d="M349.81105,142.55951l-6.55275,-20.06562l20.70762,2.96801l12.89257,18.7936c0,0 -5.84553,0.53746 -9.08152,0.33457c-4.99341,-0.31309 -17.96595,-2.03051 -17.96595,-2.03051z" fill="#5e555b"/><path d="M349.32577,145.96013l0.7858,-5.48247c0,0 12.38023,0.30647 17.3335,0.22881c3.93102,-0.06162 6.79091,-0.23972 6.79091,-0.23972l4.89483,7.71125c0,0 -5.50494,0.82343 -9.67382,0.67439c-5.64867,-0.20198 -20.13119,-2.89223 -20.13119,-2.89223z" fill="url(#color-5)"/><path d="M341.55806,122.41061l0.56696,-3.95575l18.95778,2.7172l3.03262,4.47167z" fill="url(#color-6)"/><path d="M348.74434,145.902l0.17868,-1.24651c0,0 15.46265,2.13905 20.81843,2.73745c4.00478,0.44745 8.60428,-0.48628 8.60428,-0.48628l0.71748,1.25928l-8.4314,0.8731z" fill="#312c30"/><g><path d="M250.25066,121.07608l1.03266,-8.80087l92.97517,13.32599l5.9626,12.25173z" fill="#8a6672"/><path d="M265.44705,131.62451c0,0 -2.97234,-4.06866 -5.54131,-5.91338c-2.56895,-1.84475 -9.59244,-2.61155 -9.59244,-2.61155l0.40716,-2.05005c0,0 12.1594,2.02201 19.10411,3.11361c16.58995,2.60755 80.00534,12.46423 80.00534,12.46423l2.65481,7.01464z" fill="#755761"/><path d="M267.91331,134.49435l-2.6271,-2.99482l86.76976,11.94221l0.75614,3.22098z" fill="#694e57"/><path d="M251.06402,112.64396l0.64257,-4.48318l89.98396,12.21097l3.0075,6.15014c0,0 2.25369,3.69516 -2.9755,2.92011c-1.64617,-0.24399 -10.19686,-4.87246 -11.84717,-5.11705c-15.8933,-2.35562 -78.81136,-11.681 -78.81136,-11.681z" fill="#916b77"/><path d="M251.94604,108.19521l0.24054,-2.51585l89.01897,12.6188l0.69522,2.51637z" fill="#9e7582"/><path d="M325.22495,119.38905c-7.89428,-1.78603 -71.7575,-11.98233 -71.7575,-11.98233l86.96532,12.46459l3.69648,8.04702c0,0 -11.00999,-6.74329 -18.90431,-8.52931z" fill="#b38f9a"/></g><path d="M298.47327,138.8716l1.30159,-9.08096l20.00775,2.86767l-1.30159,9.08097z" fill="#3a3336"/><path d="M299.68731,129.78227l0.92522,-1.40545l18.35089,2.6302l0.75918,1.64683z" fill="#4b4246"/><path d="M298.68285,138.3972l1.16023,-8.09487c0,0 0.30131,5.36284 2.7754,6.83505c2.4741,1.47221 15.51304,4.04736 15.51304,4.04736z" fill="#332c30"/><path d="M342.48563,124.79009l-3.02906,-6.49547c0,0 1.10719,-0.51482 1.70173,-0.42958c0.66466,0.09528 2.09938,0.97438 2.09938,0.97438l3.02906,6.49547z" fill="#757575"/><path d="M344.80372,129.90533l-4.35539,-9.32453l3.80114,0.54481l4.35539,9.32452z" fill="#5a5a5a"/><path d="M348.09073,136.8913l-4.35539,-9.32452l3.80113,0.54481l4.35539,9.32453z" fill="#505050"/><path d="M351.48766,144.12617c-0.7439,-1.5926 -3.64642,-7.8067 -3.64642,-7.8067l3.80113,0.54482l5.08187,11.16041c0,0 -2.11098,0.2384 -3.04876,0.08903c-0.73152,-0.11653 -1.85979,-3.28535 -2.18779,-3.98759z" fill="#3b3b3b"/><path d="M248.35553,123.42916l2.64955,-18.48584l3.14879,0.45131l-2.64955,18.48584z" fill="#443e42"/><path d="M229.44347,122.33383l0.16227,-5.96534l20.02394,2.86996l-0.84107,5.86804z" fill="url(#color-7)"/><path d="M229.51628,116.99274l1.53895,-10.73726l20.02394,2.86996l-1.53896,10.73727z" fill="#5e555b"/><path d="M231.03731,106.38049l1.38244,-4.00661l19.23201,2.75648l-0.59052,4.12012z" fill="url(#color-8)"/><path d="M301.1893,112.42977l0.87019,-6.07127l14.71894,3.18719l3.90707,5.31923z" fill="#5e555b"/><path d="M320.63504,115.21692l-3.86925,-5.58322c0,0 2.8877,1.11156 4.95176,2.41587c2.06408,1.30431 5.34071,4.08795 5.34071,4.08795z" fill="#776b73"/><path d="M298.03368,113.14484l3.3442,-0.77784l25.37889,3.36813l3.39317,2.01291z" fill="#6d6269"/></g><g><path d="M300.46845,135.1469c0.17718,-1.23622 0.84646,-2.3088 1.37722,-3.27282c0.73956,-1.34334 1.5045,-2.43364 2.90523,-3.0877c0.85561,-0.39953 2.03661,-0.62363 3.04965,-0.72125c0.67004,-0.06454 1.71584,-0.31884 2.41176,-0.21908c1.57757,0.2261 1.90483,0.3556 2.97255,1.00972c0.64319,0.39406 2.20233,1.0712 2.63655,1.81246c0.36753,0.62735 0.70389,1.63381 0.94573,2.35504c0.41324,1.23255 0.94305,3.19207 0.74603,4.56665c-0.08326,0.58091 -0.76013,1.836 -0.88243,2.33923c-0.38824,1.59753 -0.46128,2.10187 -1.81904,3.02203c-0.82525,0.55925 -2.39497,0.8877 -3.42697,1.15394c-1.06878,0.27574 -2.45455,0.95202 -3.6154,0.78566c-0.78352,-0.11229 -2.12123,-0.84448 -2.86094,-1.0881c-1.60482,-0.52852 -2.46313,-0.82775 -3.32045,-2.10247c-0.73518,-1.09309 -0.76642,-2.71223 -0.93436,-4.1078c-0.08819,-0.73315 -0.29489,-1.67971 -0.18514,-2.44553z" fill="#3a3a3a"/><path d="M301.2089,135.13319c0.16215,-1.13126 0.77462,-2.11277 1.26028,-2.99493c0.67677,-1.22928 1.37672,-2.22701 2.65854,-2.82555c0.78293,-0.36562 1.86372,-0.57067 2.79072,-0.66001c0.61316,-0.05908 1.57018,-0.29174 2.20695,-0.20048c1.44365,0.20693 1.74311,0.32539 2.72019,0.92397c0.58856,0.36057 2.01533,0.98026 2.41271,1.65853c0.3363,0.57412 0.64416,1.49513 0.86542,2.15509c0.37816,1.12792 0.86296,2.92106 0.68269,4.1789c-0.0762,0.53156 -0.69559,1.6801 -0.8075,2.14061c-0.35529,1.46189 -0.42212,1.92341 -1.66459,2.76543c-0.75519,0.51177 -2.19164,0.81229 -3.13599,1.05596c-0.97804,0.25232 -2.24616,0.87122 -3.30843,0.71897c-0.71697,-0.10275 -1.94111,-0.77277 -2.61803,-0.99569c-1.46856,-0.48364 -2.25399,-0.75747 -3.03854,-1.92395c-0.67276,-1.00031 -0.70131,-2.48197 -0.855,-3.75902c-0.08072,-0.67091 -0.26984,-1.5371 -0.16942,-2.23786z" fill="#5a5a5a"/><path d="M313.92017,132.37942c-1.68578,-2.65178 -6.69927,-3.57301 -6.69927,-3.57301c0,0 1.99922,-0.25898 3.96831,0.03025c1.59499,0.23427 3.09974,0.81813 4.06297,2.27048c0.96401,1.45353 1.14326,2.97909 1.22918,4.40116c0.16847,2.78809 -0.60445,5.09458 -0.60445,5.09458c0,0 -0.27098,-5.57167 -1.95675,-8.22342z" fill="#6d6d6d"/><path d="M307.93508,136.59173c0.08165,-0.5699 0.60987,-0.96565 1.17977,-0.88399c0.5699,0.08165 0.96565,0.60987 0.88399,1.17978c-0.08165,0.5699 -0.60987,0.96565 -1.17978,0.88398c-0.5699,-0.08165 -0.96565,-0.60987 -0.88398,-1.17978z" fill="#272727"/><path d="M307.83743,136.71596c0.07492,-0.52271 0.55938,-0.8857 1.08207,-0.81078c0.52271,0.07492 0.8857,0.55938 0.81078,1.08207c-0.07492,0.52271 -0.55938,0.8857 -1.08206,0.81078c-0.52271,-0.07492 -0.8857,-0.55938 -0.81078,-1.08206z" fill="#131313"/></g></g></g></g></g><path d="M204.27819,232.88397c0.22482,-1.56864 2.05712,-44.36763 2.78515,-45.95556c0.98295,-2.144 9.18668,0.39625 12.33476,-0.67574c9.64152,-3.28317 20.00608,-6.43161 20.00608,-6.43161c0,0 13.84367,2.5706 18.03732,3.17169c3.13609,0.44952 65.03919,0.74491 64.30869,11.06726c-0.99083,14.00101 -42.41567,-3.77451 -44.13677,8.23341c-0.43571,3.03985 1.9219,3.57526 0.91541,6.61037c-0.24158,0.72844 -3.30428,5.52128 -3.76413,7.14855c-0.73001,2.58309 1.96395,7.01265 -1.75244,9.61092c-2.96249,2.07119 -1.76187,7.31139 -2.56662,8.4241c-5.54583,7.66768 -13.25065,2.72007 -22.17235,1.44134c-10.57794,-1.51612 -26.49897,-0.03667 -35.61209,-2.59281c-3.93378,-1.10342 -9.03737,4.5142 -8.38292,-0.05187z" fill="#86c8f5" stroke-width="0"/></g></g></svg>