<svg version="1.1" xmlns="http://www.w3.org/2000/svg" xmlns:xlink="http://www.w3.org/1999/xlink" width="465.19765" height="160.32108" viewBox="0,0,465.19765,160.32108"><defs><linearGradient x1="498.98059" y1="206.52989" x2="499.73616" y2="211.28181" gradientUnits="userSpaceOnUse" id="color-1"><stop offset="0" stop-color="#1f1d20"/><stop offset="1" stop-color="#202022"/></linearGradient><linearGradient x1="498.65235" y1="201.66603" x2="499.52168" y2="207.13359" gradientUnits="userSpaceOnUse" id="color-2"><stop offset="0" stop-color="#302d31"/><stop offset="1" stop-color="#1f1e20"/></linearGradient><linearGradient x1="175.5693" y1="301.70957" x2="176.1016" y2="305.05762" gradientUnits="userSpaceOnUse" id="color-3"><stop offset="0" stop-color="#585758"/><stop offset="1" stop-color="#575758"/></linearGradient><linearGradient x1="164.20133" y1="313.72213" x2="164.61922" y2="316.35052" gradientUnits="userSpaceOnUse" id="color-4"><stop offset="0" stop-color="#363536"/><stop offset="1" stop-color="#353536"/></linearGradient><linearGradient x1="291.21701" y1="199.55957" x2="292.08672" y2="205.02935" gradientUnits="userSpaceOnUse" id="color-5"><stop offset="0" stop-color="#5e555b"/><stop offset="1" stop-color="#2b2629"/></linearGradient><linearGradient x1="278.33526" y1="180.68123" x2="278.96276" y2="184.62782" gradientUnits="userSpaceOnUse" id="color-6"><stop offset="0" stop-color="#72676e"/><stop offset="1" stop-color="#5e555b"/></linearGradient><linearGradient x1="168.96227" y1="212.14468" x2="169.89314" y2="217.9992" gradientUnits="userSpaceOnUse" id="color-7"><stop offset="0" stop-color="#5e555b"/><stop offset="1" stop-color="#4d454a"/></linearGradient><linearGradient x1="166.72432" y1="198.06923" x2="167.37793" y2="202.17988" gradientUnits="userSpaceOnUse" id="color-8"><stop offset="0" stop-color="#74686f"/><stop offset="1" stop-color="#5e555b"/></linearGradient></defs><g transform="translate(-39.37502,-179.46311)"><g data-paper-data="{&quot;isPaintingLayer&quot;:true}" fill-rule="nonzero" stroke="none" stroke-linecap="butt" stroke-linejoin="miter" stroke-miterlimit="10" stroke-dasharray="" stroke-dashoffset="0" style="mix-blend-mode: normal"><g><g stroke-width="0"><path d="M233.8414,277.26456l-12.51288,-13.54849l25.16548,-4.59883c0,0 -0.16955,5.92901 0.05675,8.62542c0.21894,2.60836 1.27975,7.29768 1.27975,7.29768z" fill="#7f7d7e"/><path d="M233.96945,277.44352l-4.4749,-4.96583c0,0 2.88753,3.14062 6.18007,3.23956c2.37093,0.07122 4.18501,-0.53105 6.8836,-0.63528c2.69856,-0.10421 5.20608,0.16826 5.20608,0.16826z" fill="#6c6a6b"/></g><g><g><g><path d="M496.78216,211.75154l-2.78901,-4.4286c0,0 6.17746,0.69648 8.8828,1.17039c2.70537,0.47395 1.36437,1.83753 1.36437,1.83753z" fill="url(#color-1)" stroke-width="0"/><path d="M502.2238,201.30035c0,0 1.8268,2.06661 -0.59813,3.35624c-2.42491,1.28967 -5.09992,2.95336 -5.09992,2.95336l-1.82797,-5.31511z" data-paper-data="{&quot;index&quot;:null}" fill="url(#color-2)" stroke-width="0"/><path d="M487.28289,213.2572l-0.32949,-2.07236l14.58931,-2.31967c0,0 1.36673,0.58697 1.90602,0.87211c0.48477,0.25633 -0.57882,1.04163 -0.57882,1.04163z" fill="#444444" stroke-width="NaN"/><path d="M487.00921,211.32128l-1.45128,-1.5452l12.45916,-1.98098l3.60976,1.08876c0,0 -4.12817,0.89737 -6.40166,1.27644c-2.56404,0.42751 -8.21596,1.16092 -8.21596,1.16092z" fill="#535353" stroke-width="0"/><path d="M485.4686,209.9287l-0.42122,-0.58106l11.33146,-1.80171l1.74712,0.25452z" fill="#363636" stroke-width="0"/><path d="M487.28289,213.2572l-0.17875,-1.12425c0,0 6.44476,-0.5654 9.28881,-1.0176c2.41011,-0.38317 6.69014,-1.52303 6.69014,-1.52303c0,0 0.92597,0.32081 1.20211,0.48235c0.23295,0.13626 -0.17127,0.50642 -0.17127,0.50642c0,0 -4.61054,1.14264 -6.89557,1.50593c-3.08283,0.49016 -9.93554,1.17014 -9.93554,1.17014z" fill="#3a3a3a" stroke-width="NaN"/><path d="M485.36719,209.31531l-0.68538,-0.78584l13.47241,-2.14206l-1.65491,1.19227z" fill="#242424" stroke-width="0"/><path d="M483.91349,208.84324l-0.25974,-1.63379c0,0 7.96058,-1.47452 10.91915,-1.94491c2.0157,-0.32049 5.11594,-0.60464 5.11594,-0.60464l-1.55728,1.75566z" fill="#3a3a3a" stroke-width="0"/><path d="M483.53242,207.27179l-0.32073,-2.0172c0,0 7.50656,-1.52756 10.7797,-2.04802c2.8324,-0.45034 7.72889,-0.89484 7.72889,-0.89484l-2.06744,2.39693c0,0 -3.62251,0.49246 -5.83911,0.84494c-2.94637,0.46848 -10.28132,1.71821 -10.28132,1.71821z" fill="#444444" stroke-width="0"/><path d="M483.18243,205.34538l-0.1336,-0.8405c0,0 7.75673,-1.35857 11.30935,-1.92343c2.47372,-0.39332 7.96693,-1.14149 7.96693,-1.14149l-0.72067,0.97635c0,0 -5.03662,0.5085 -7.96504,0.97411c-3.22639,0.51299 -10.4569,1.95494 -10.4569,1.95494z" fill="#535353" stroke-width="0"/><path d="M482.93425,204.6093l-0.05346,-0.33622c0,0 7.50143,-1.70615 10.91889,-2.24949c2.95467,-0.46979 8.39995,-0.82216 8.39995,-0.82216l0.09058,0.33032c0,0 -5.96025,0.78065 -9.165,1.29017c-3.24666,0.51622 -10.19092,1.78739 -10.19092,1.78739z" fill="#4e4e4e" stroke-width="0"/></g><g stroke-width="0"><g><g><g><path d="M481.42511,213.69445l-6.59199,-12.28086l0.27587,-1.78682c0,0 3.93874,2.64353 5.24076,4.95817c0.70683,1.25661 2.51189,8.88114 2.51189,8.88114z" fill="#383638"/><path d="M482.35468,212.84661c0,0 -0.03807,-0.61127 -1.04438,-2.937c-1.09739,-2.53627 -3.04373,-5.90958 -3.60061,-6.90846c-1.25011,-2.24223 -2.01613,-2.25257 -2.01613,-2.25257l4.64911,-1.32834l7.03977,12.62699z" fill="#555355"/><path d="M475.77017,200.82278l-0.76877,-1.12967c0,0 1.8695,-1.10733 2.8192,-1.2583c0.88989,-0.14151 2.12529,0.39851 2.12529,0.39851l0.78013,1.20148z" fill="#686668"/></g><path d="M475.82278,214.58521l-6.59199,-12.28085l-0.0477,-1.71501c0,0 4.26233,2.57167 5.56428,4.8863c0.70685,1.2566 2.5119,8.88114 2.5119,8.88114z" fill="#383638"/><path d="M476.75231,213.73731c0,0 -0.03807,-0.61128 -1.04438,-2.937c-1.09739,-2.53627 -3.04373,-5.90958 -3.60061,-6.90846c-1.25011,-2.24223 -2.01613,-2.25257 -2.01613,-2.25257l3.8299,-1.70438c0,0 1.21034,1.07754 1.59137,1.76096c1.0856,1.94717 6.26765,11.242 6.26765,11.242z" fill="#555355"/><path d="M470.16779,201.71347l-0.98422,-1.09542c0,0 2.085,-1.14156 3.0347,-1.29256c0.88989,-0.14151 1.83799,0.44419 1.83799,0.44419l0.90363,1.18189z" fill="#686668"/><path d="M483.00683,211.73665c-0.12869,-0.80936 0.42313,-1.56978 1.23246,-1.69845c0.80937,-0.1287 1.56978,0.42313 1.69845,1.23246c0.12869,0.80936 -0.42313,1.56978 -1.23245,1.69845c-0.80937,0.1287 -1.56978,-0.42313 -1.69845,-1.23246z" fill="#312f31"/><path d="M483.19434,208.74078l-2.84552,-5.16376l1.54912,-0.39143l2.85568,5.2275z" fill="#444144"/></g><path d="M436.19831,215.85657l-5.41755,-10.0981l29.69635,-3.53041l1.05008,9.60127z" fill="#444444"/><path d="M448.06753,210.00475c0,0 0.54613,-0.61532 1.08597,-1.81995c0.49359,-1.10139 0.96937,-2.77476 1.27642,-3.29314c0.69518,-1.83844 3.11757,-1.7509 3.11757,-1.7509l-0.86488,0.79877l-3.48636,5.88582z" fill="#292929"/><path d="M452.48553,219.96398l-8.15629,-9.81238c0,0 3.53876,-0.0247 5.05654,-1.32825c1.17941,-1.01301 0.67312,-3.59754 2.18684,-4.12268c4.34285,-1.50652 16.98957,-3.95666 16.98957,-3.95666c0,0 4.3219,6.54754 5.69097,9.25318c0.94514,1.86791 2.0475,6.1803 2.0475,6.1803z" fill="#4a464a"/><path d="M454.51297,206.36839c-4.60409,0.088 -3.39533,-1.48526 -3.39533,-1.48526c0,0 0.5784,-1.41055 2.39962,-1.8481c4.4692,-1.07377 13.09564,-1.86123 14.79248,-2.15696c0.80022,-0.1395 0.4515,0.63276 0.4515,0.63276c0,0 -1.09624,2.59023 -2.58772,3.08461c-1.49155,0.49439 -7.05644,1.68501 -11.6606,1.77299z" fill="#5e595e"/></g><g><path d="M441.86053,228.31125l-7.91361,-16.90253l18.7182,-2.68623l5.41959,3.521l6.00809,-1.05504l5.03813,12.78686z" fill="#4d4846"/><path d="M446.55369,227.957l18.92527,-12.51856l22.00668,-3.74447c0,0 1.95254,3.925 2.30643,5.24029c0.18042,0.67062 0.30924,2.93194 0.30924,2.93194z" fill="#423d3b"/><path d="M441.48218,220.34798l-4.6861,-9.22474l0.81032,-0.12882l4.6861,9.22474z" fill="#363332"/><path d="M447.00612,227.07339l-0.19115,-1.20229c0,0 4.79944,-3.34053 13.75188,-4.76395c1.18947,-0.18912 5.78477,1.65762 6.98367,1.46706c7.60654,-1.20943 15.05191,-2.39321 17.8844,-2.84359c2.3068,-0.36675 4.4583,-2.02518 4.4583,-2.02518l0.39528,2.48618z" fill="#312e2c"/><path d="M447.34606,214.11913l-2.44672,-4.2843l8.20463,-1.30452l4.79774,3.71403l6.25877,-0.79861l-7.18959,3.11633z" fill="#585350"/><path d="M439.07977,222.5473l-0.17715,-1.1142c0,0 7.35822,-4.96055 10.19972,-5.41237c4.28257,-0.68093 16.10538,-2.56072 16.10538,-2.56072l0.17715,1.1142c0,0 -12.02547,1.91201 -16.30798,2.59298c-2.78317,0.44247 -9.99714,5.38014 -9.99714,5.38014z" fill="#2b2827"/></g></g></g><g><g><g><path d="M115.29648,317.21795c0.88488,2.12132 0.98591,4.72735 -0.05007,5.15948c-1.03597,0.43214 -2.81674,-1.47317 -3.70163,-3.59458c-0.88488,-2.12132 -4.33842,-10.2503 -3.30238,-10.68246c1.03597,-0.43214 6.16924,6.99612 7.05411,9.11752z" fill="#615e5f" stroke-width="0"/><g><path d="M151.67336,281.12921c-0.61548,-0.43637 -3.13318,-1.36493 -3.13318,-1.36493l9.3447,-4.40198l-4.79498,8.05282c0,0 -0.80102,-1.84953 -1.41656,-2.28594z" fill="#756a6a" stroke-width="0"/><path d="M142.49228,280.87043l-2.1565,-13.56296l17.38218,-8.70407l3.07774,19.35687z" fill="#8a7c7c" stroke-width="0"/><path d="M103.80842,292.53657l3.73656,-18.95521l34.47904,-5.61708l6.46608,11.79768c0,0 -22.45724,5.1665 -29.91083,7.29752c-3.09408,0.8846 -14.77088,5.47714 -14.77088,5.47714z" fill="#7c787a" stroke-width="0"/><path d="M108.0395,275.93775l-0.37892,-1.43984c0,0 25.60259,-4.07081 33.65132,-5.35052c4.5033,-0.71603 14.94752,-8.82699 14.94752,-8.82699l0.2559,1.60943c0,0 -10.15669,8.04573 -14.51428,8.72378c-7.99017,1.24323 -33.96154,5.2842 -33.96154,5.2842z" fill="#535353" stroke-width="0"/><path d="M72.23803,298.27294l-3.16469,-19.90399c0,0 3.36723,-7.67813 10.16104,-11.08314c8.43816,-4.22915 25.39774,-5.11816 27.44272,-5.44331c1.56929,-0.24952 -11.11178,12.31426 -11.11178,12.31426l3.16469,19.90399z" fill="#8d898b" stroke-width="0"/><path d="M235.79433,225.54539l1.08903,-3.3569l106.25318,-16.74944l2.31556,14.56331c0,0 -37.02214,7.75517 -49.15672,9.26318c-6.02635,0.74894 -60.50108,-3.7202 -60.50108,-3.7202z" fill="#c98cac" stroke-width="0"/><path d="M230.25863,328.69439l-6.51863,-12.06248c0,0 5.99129,4.96024 8.97269,5.57655c1.89955,0.39268 6.13319,0.10613 11.78546,-3.26067c4.55024,-2.71031 8.78948,-8.9644 8.78948,-8.9644l-9.199,16.51199z" fill="#a08e97" stroke-width="0"/><path d="M312.25873,268.15115l-6.01809,-22.96126l18.09701,-4.29775l3.32848,20.93408c0,0 -6.04809,2.70235 -8.66924,3.82618c-1.20692,0.51744 -6.73812,2.49881 -6.73812,2.49881z" fill="#96858d" stroke-width="0"/><path d="M229.03196,332.68225l-0.86995,-5.47142c0,0 12.23841,0.14866 16.31049,-3.65935c1.98176,-1.85324 15.33752,-25.17222 22.67935,-38.11764c2.86512,-5.05194 4.81445,-8.52404 4.81445,-8.52404c0,0 2.72517,-4.25391 2.27656,-7.10098c-0.22568,-1.43221 -0.41773,-5.6329 -1.60188,-7.78498c-1.19474,-2.17136 -3.38074,-2.28783 -3.38074,-2.28783l-6.9429,-12.63888l19.59276,-2.96973l1.2994,26.70053l4.11384,1.93995c0,0 -8.49433,7.42606 -12.28763,13.04716c-5.93517,8.79488 -24.26311,42.47555 -24.26311,42.47555z" fill="#918189" stroke-width="0"/><path d="M289.42156,272.13941l-3.29301,-28.4396l13.64804,-1.89079l12.11974,10.22593l0.35016,16.47536z" fill="#96858d" stroke-width="0"/><path d="M285.24346,274.67608l-3.1291,-3.70033l-0.61745,-26.4207l5.00354,-0.88132l3.82163,28.33816z" fill="#8f8187" stroke-width="0"/><path d="M311.04376,268.80638c0,0 1.67072,-7.01643 -0.51487,-12.14773c-1.25845,-2.95457 -6.41773,-4.12872 -7.1892,-5.93997c-1.47367,-3.45999 -3.75353,-8.81255 -3.75353,-8.81255l8.4429,3.07638c0,0 4.49665,6.58938 5.75608,10.70421c0.84623,2.7645 0.38212,9.2944 -0.1249,12.00655c-0.04276,0.22864 -1.2174,0.33106 -1.24242,0.50246c-0.06115,0.41866 0.92744,0.49573 0.92744,0.49573z" fill="#86787e" stroke-width="0"/><path d="M308.05265,246.49751c0,0 -3.67349,-3.42052 -8.45049,-3.64482c-5.4081,-0.25391 -22.34031,2.19919 -22.34031,2.19919l153.55365,-38.77468l4.83373,8.65009l9.56932,9.76113c0,0 -99.9453,13.28735 -120.27822,16.52027c-6.63493,1.05493 -16.88769,5.28885 -16.88769,5.28885z" fill="#df8db7" stroke-width="0"/><path d="M163.1723,317.40742l-10.43378,-35.06649c0,0 1.0734,-3.96847 1.53449,-4.26014c5.08367,-3.216 35.05024,-18.76628 40.46699,-19.33762c5.93376,-0.62595 -7.12391,13.52864 -7.12391,13.52864c0,0 -13.91295,4.2635 -15.75182,8.85915c-2.49664,6.23954 5.01554,22.61663 5.01554,22.61663z" fill="#c77da3" stroke-width="0"/><path d="M229.99465,276.47796l-2.09785,-1.79815c0,0 5.12616,-9.52976 7.16955,-12.17615c2.10955,-2.73217 5.29561,-3.96789 5.29561,-3.96789l6.22335,1.34159c0,0 -4.49946,0.20654 -6.5644,2.27265c-1.77266,1.77373 -4.99478,5.40337 -7.27467,8.89705c-1.65849,2.54139 -2.75155,5.43082 -2.75155,5.43082z" fill="#414041" stroke-width="0"/><path d="M107.5598,274.95458l2.90492,-12.29825l48.02518,-7.63594c0,0 -2.16299,4.85537 -4.93515,7.28696c-2.72077,2.38658 -11.5466,7.16994 -11.5466,7.16994z" fill="#979395" stroke-width="0"/><path d="M108.17038,273.70028l2.11478,-12.17261l48.02518,-7.63594c0,0 -2.16299,4.85537 -4.93515,7.28696c-2.72077,2.38658 -11.5466,7.16994 -11.5466,7.16994z" fill="#bdb7ba" stroke-width="0"/><path d="M313.4724,268.74501l-1.9303,-0.21302l15.98434,-6.7687c0,0 -3.19312,2.59094 -5.52114,3.76801c-2.32799,1.1771 -8.53286,3.21372 -8.53286,3.21372z" fill="#887980" stroke-width="0"/><path d="M165.70014,317.4758c0,0 -3.9545,-9.96818 -6.48151,-18.21209c-2.53929,-8.28413 -4.89559,-16.0573 -5.48032,-19.59408c-0.09903,-0.59919 -0.03078,-10.66546 0.38093,-11.25883c2.22222,-3.20313 11.08399,3.22875 16.40578,1.26517c7.8798,-2.9074 26.67055,-6.41563 26.67055,-6.41563l-7.51491,6.57226c0,0 -18.75842,5.88367 -20.31374,11.3327c-2.10368,7.37042 8.6507,26.79542 8.6507,26.79542z" fill="#d486ae" stroke-width="0"/><path d="M166.26509,313.823c0,0 -12.99639,-39.31857 -13.26829,-49.47895c-0.12724,-4.75394 -4.87057,-13.22195 -4.87057,-13.22195l51.13294,-1.07384l3.92966,15.64705c0,0 -32.13051,1.97663 -37.41699,9.16997c-3.52892,4.80176 7.63062,31.62528 7.63062,31.62528z" fill="#e490bb" stroke-width="0"/><g stroke-width="0"><path d="M293.08019,229.87459l-1.2994,-8.17222l9.24385,-1.46974l1.2994,8.17222z" fill="#454545"/><path d="M293.78214,228.9885l-1.4983,-7.15156l11.1857,-1.7785l1.14597,7.20757z" fill="#b0b0b0"/><path d="M292.84956,224.59138l-0.67016,-2.75929l11.39963,-1.81252l0.29953,1.88371c0,0 -7.64559,1.54215 -9.30209,1.94589c-0.55352,0.1349 -1.72689,0.74222 -1.72689,0.74222z" fill="#bebebe"/><path d="M304.77946,226.68353c0,0 -5.8732,-1.65364 -5.8978,-5.44448c-0.03653,-5.63314 4.1086,-5.80815 4.1086,-5.80815l39.95255,-5.00229l1.57979,9.93578z" fill="#9c989a"/><path d="M306.34213,225.12963c0,0 -3.00849,-3.08479 -3.39515,-3.96179c-0.57317,-1.29999 0.93253,-4.53385 0.93253,-4.53385l41.08497,-6.49869l0.78088,7.45854z" fill="#898587"/><path d="M306.28402,225.33961l-1.31147,-1.75521l37.75747,-6.00335l0.30454,1.91532z" fill="#c1bcbf"/><path d="M305.63143,222.00683c0,0 -1.5316,-1.14164 -1.6788,-2.06736c-0.13772,-0.86594 0.82231,-3.31952 0.82231,-3.31952l38.187,-6.07164l0.85646,5.38689z" fill="#0d0d0d"/><path d="M305.75348,222.77452c0,0 -1.6264,-1.73791 -1.77358,-2.66363c-0.13772,-0.86594 0.91707,-2.72326 0.91707,-2.72326l38.18701,-6.07164l0.85646,5.38689z" fill="#2e2e2e"/><path d="M301.28619,225.41198c-3.0877,-2.61456 -2.30388,-5.10507 -2.30388,-5.10507c0,0 2.45527,3.7736 3.81639,4.46609c1.61151,0.81979 5.39104,1.60201 5.39104,1.60201l-3.45424,0.62026c0,0 -2.9059,-1.12316 -3.44924,-1.58327z" fill="#7d7a7c"/><path d="M308.36987,222.67204c0,0 -1.2252,-2.045 -1.40477,-3.17438c-0.15785,-0.99278 0.38407,-3.24501 0.38407,-3.24501l4.76348,-0.75737c0,0 -0.10932,2.24905 0.02703,3.10649c0.18737,1.1785 0.99365,3.31284 0.99365,3.31284z" fill="#555555"/><path d="M316.87968,221.31908c0,0 0.26219,-2.5965 0.0826,-3.72587c-0.15785,-0.99278 -1.10327,-2.6935 -1.10327,-2.6935l5.31654,-0.84531c0,0 -0.14218,1.75921 -0.00585,2.61669c0.18737,1.1785 1.02654,3.80268 1.02654,3.80268z" fill="#555555"/><path d="M326.09065,219.85449c0,0 0.2622,-2.5965 0.08262,-3.72587c-0.15785,-0.99278 -1.10327,-2.69349 -1.10327,-2.69349l5.23754,-0.83277c0,0 -0.14218,1.75921 -0.00585,2.61669c0.18737,1.1785 1.02654,3.80268 1.02654,3.80268z" fill="#555555"/><path d="M335.63406,218.33709c0,0 0.49362,-2.27322 0.31402,-3.40264c-0.15785,-0.99278 -1.3347,-3.01669 -1.3347,-3.01669l5.07955,-0.80763c0,0 1.12867,1.82718 1.26503,2.68469c0.18737,1.1785 -0.24431,3.73471 -0.24431,3.73471z" fill="#555555"/><path d="M307.19689,216.98976l-0.7825,-0.68562l35.12144,-5.58425l-1.38959,1.03098c0,0 -2.79496,0.44438 -5.22661,0.83103c-0.53004,0.08423 -1.58463,-0.08089 -2.37859,0.04526c-0.76762,0.12205 -1.26699,0.53435 -2.2212,0.68606c-1.48799,0.23656 -3.16686,0.50354 -4.92445,0.78298c-0.72868,0.11587 -1.42293,-0.16212 -2.17071,-0.04323c-0.66492,0.10575 -1.3822,0.60812 -2.05027,0.71437c-1.65803,0.26363 -3.29976,0.52464 -4.84327,0.77008c-0.7088,0.1127 -1.46573,-0.21082 -2.12517,-0.10596c-0.80507,0.12798 -1.49861,0.68216 -2.20401,0.79433c-2.87733,0.45747 -4.80509,0.76401 -4.80509,0.76401z" fill="#474747"/></g><g><path d="M172.33936,306.34756l3.22069,-3.41555c0,0 3.23189,2.33639 6.17131,2.77521c2.59978,0.38815 10.57165,-0.27557 10.57165,-0.27557l-1.93839,4.71719z" fill="#6d6a6b" stroke-width="0"/><path d="M165.40106,314.03251l7.95731,-8.74313c0,0 3.54895,1.7206 5.79474,2.03373c3.39759,0.4737 12.60706,0.53203 12.60706,0.53203l-3.54832,4.92559z" fill="#615e5f" stroke-width="0"/><path d="M170.82449,335.41353l-5.00949,-22.0601c0,0 4.42458,0.09838 9.19071,-0.62945c3.72014,-0.56811 7.58467,-2.04031 10.13315,-1.82952c4.47401,0.37001 39.52436,7.30802 39.52436,7.30802l4.04545,9.65941z" fill="#575455" stroke-width="0"/><path d="M187.90184,305.3167c5.9734,-6.58488 11.83046,-21.13718 12.6694,-23.87427c0.60439,-1.97184 0.45489,-7.29038 0.45489,-7.29038l8.67824,5.5206c0,0 8.99577,19.3239 12.14756,31.62839c0.8819,3.44292 3.98768,6.94388 3.04639,8.57844c-0.84335,1.4645 -17.2347,6.38936 -22.68209,6.48108c-11.46387,0.19313 -16.74602,3.85755 -21.27267,-0.76436c-4.52665,-4.62187 1.50145,-11.92936 1.50145,-11.92936c0,0 3.90168,-6.63581 5.45679,-8.35011z" fill="#504e4f" stroke-width="0"/><path d="M187.49346,272.14407c0,0 0.1565,-1.53642 0.8987,-2.32626c0.95451,-1.01584 4.35332,-3.26308 4.35332,-3.26308c0,0 9.57538,0.57087 12.9393,2.5573c3.10368,1.8327 -1.48471,12.97262 -1.48471,12.97262l-2.82351,-4.97978z" fill="#464445" stroke-width="0"/><path d="M217.85564,315.13727c0,0 -8.18678,7.63603 -16.53899,9.13761c-8.05742,1.44859 -16.28871,-3.20854 -16.40639,-4.6299c-0.06377,-0.7701 7.24688,-5.27932 10.01737,-9.99427c3.07971,-5.24115 1.70206,-10.79525 2.72044,-12.99287c2.84308,-6.13526 9.58501,-17.51356 7.58811,-23.3156c-2.09418,-6.08473 -13.00441,-6.44993 -13.00441,-6.44993c0,0 3.44985,-2.82849 8.35327,-3.73961c2.08869,-0.38811 6.79746,0.26646 7.76975,0.50167c3.18838,0.77127 5.41131,2.07461 5.41131,2.07461c0,0 2.84699,-5.39329 6.35583,-6.26453c3.50884,-0.87121 22.56393,-0.91631 22.56393,-0.91631l-14.03184,14.98323z" fill="#555354" stroke-width="0"/><path d="M197.35018,297.30763c0,0 2.85618,-11.46349 6.67446,-17.57378c3.81827,-6.11024 7.34665,-9.89173 10.83519,-10.44639c2.52622,-0.40166 7.12648,7.59054 7.12648,7.59054l-6.42201,30.1517c0,0 -13.92485,5.53433 -15.77329,3.31641c-1.45991,-1.75172 -2.44075,-13.03847 -2.44075,-13.03847z" fill="#585758" stroke-width="0"/><path d="M223.91254,320.72692c0,0 -3.81463,-5.66231 -3.96696,-8.69828c-0.21281,-4.24119 -0.77386,-16.96489 -0.77386,-16.96489l3.57106,9.99901c0,0 0.89806,9.72715 1.50491,12.69859c0.58549,2.86695 2.33196,4.78694 2.33196,4.78694z" fill="#3f3e3f" stroke-width="0"/><path d="M220.19012,303.22916c-0.45599,-1.62332 -1.40322,-9.28051 -1.40322,-9.28051c0,0 7.15206,-15.88812 8.80686,-18.83764c0.48511,-0.86465 3.52736,-3.10107 3.52736,-3.10107l-0.86364,5.05222c0,0 -1.45947,0.84361 -1.56202,1.34376c-0.10925,0.53286 0.92531,1.76142 0.92531,1.76142l-3.73363,9.18027c0,0 -1.47149,1.25723 -1.56905,1.78448c-0.09763,0.52736 0.72095,1.29654 0.72095,1.29654c0,0 -2.40255,9.43557 -2.85536,11.95271c-0.20937,1.16384 0.24771,2.54173 0.24771,2.54173c0,0 -1.78518,-2.07055 -2.24116,-3.69388z" fill="#474647" stroke-width="0"/><path d="M203.93432,284.58197l22.09076,4.82638c0,0 -1.01522,1.18643 -1.16484,1.75602c-0.1104,0.42031 0.34859,1.35188 0.34859,1.35188z" fill="#3f3e3e" stroke-width="NaN"/><path d="M208.23419,273.41531l22.25454,3.60907c0,0 -0.96877,1.00792 -1.08981,1.59052c-0.12615,0.60731 0.40822,1.61508 0.40822,1.61508z" fill="#3f3e3e" stroke-width="NaN"/><path d="M200.45196,303.69294c0,0 11.76779,5.9186 18.51163,10.89898c6.74381,4.98043 5.01672,6.47703 5.01672,6.47703z" fill="#636162" stroke-width="NaN"/><path d="M209.95349,278.83602c0,0 -5.4702,3.81028 -7.69928,7.29951c-2.22911,3.48923 -7.91857,20.78004 -8.38108,17.87105c-0.46252,-2.909 9.24268,-25.4335 11.01533,-25.71533c0.67107,-0.10669 3.49027,-1.71156 4.33582,-1.60552c1.38812,0.17403 0.72924,2.15028 0.72924,2.15028z" fill="#918f91" stroke-width="0"/><path d="M170.35359,335.35733l13.47333,-4.05427c0,0 12.38747,-2.30605 15.5096,-2.64544c7.60327,-0.82655 30.27582,-2.33192 30.27582,-2.33192l0.55115,6.31284c0,0 -23.49887,7.34653 -30.51437,7.12981c-2.02958,-0.06269 -7.87116,0.24029 -12.28641,-0.42689c-8.6405,-1.30556 -17.00911,-3.98416 -17.00911,-3.98416z" fill="#626061" stroke-width="0"/><path d="M229.11577,332.44894c0,0 -0.6341,-4.24575 -1.44489,-6.48605c-0.91128,-2.51806 -3.7567,-7.88672 -3.7567,-7.88672l1.76023,-0.27986c0,0 2.39771,4.13159 3.22269,6.41113c0.90199,2.49237 1.97893,7.96163 1.97893,7.96163z" fill="#4a494a" stroke-width="0"/><path d="M229.05425,333.30556l-0.4463,-3.3689c0,0 0.60127,0.17245 0.86942,0.12979c0.3186,-0.05066 0.87614,-0.40732 0.87614,-0.40732l0.67039,3.10989c0,0 -0.70292,0.52452 -1.06181,0.62225c-0.27498,0.07494 -0.90783,-0.08574 -0.90783,-0.08574z" fill="#363536" stroke-width="0"/><path d="M224.34681,319.04559l-0.63553,-1.53996c0,0 0.35655,-0.41553 0.71116,-0.53192c0.33771,-0.11081 0.8729,-0.07163 0.8729,-0.07163l0.76804,1.63611c0,0 -0.3962,0.57678 -0.69027,0.66373c-0.27709,0.08188 -1.02634,-0.15634 -1.02634,-0.15634z" fill="#585758" stroke-width="0"/><path d="M187.71921,338.5943c0,0 -8.26087,-1.67643 -8.4749,-3.02258c-0.21509,-1.35282 5.76089,-3.48851 5.76089,-3.48851c0,0 10.77032,-1.95624 15.69295,-2.56416c2.75587,-0.34031 11.32836,-0.77284 11.32836,-0.77284c0,0 7.3669,-0.10387 8.35274,0.90559c1.0753,1.10109 -2.29466,4.51424 -2.29466,4.51424c0,0 -12.36092,3.28781 -16.30924,3.70475c-1.40256,0.14811 -14.05603,0.72355 -14.05603,0.72355z" fill="#6b696a" stroke-width="0"/><path d="M176.38126,333.4088l-1.90109,0.53599c0,0 0.07931,-3.49043 2.96063,-2.69078c2.88135,0.79971 21.46111,-3.17858 21.46111,-3.17858z" fill="#4b4949" stroke-width="0"/><path d="M170.40304,335.20365c0,0 -1.9429,0.50292 -3.04336,-3.01061c-0.55702,-1.77854 -4.50395,-15.5214 -4.50395,-15.5214l3.23437,-3.44977c0,0 1.6145,5.81234 2.27384,8.6462c0.8769,3.76902 2.95083,13.19064 2.95083,13.19064z" fill="#3f3d3e" stroke-width="0"/><path d="M176.72518,333.52218c0,0 2.8142,-2.63268 18.61846,-5.48689c1.30517,-0.23569 -1.77792,0.25023 7.58486,-0.72468c9.36279,-0.97498 13.46006,-0.09477 13.46006,-0.09477c0,0 -15.0472,1.30965 -21.17307,2.2837c-6.98276,1.11022 -18.49031,4.02273 -18.49031,4.02273z" fill="#838082" stroke-width="0"/><path d="M177.06016,303.46451c0,0 -3.97287,2.84659 -5.86729,4.78362c-2.12924,2.1772 -6.28603,7.6435 -6.28603,7.6435l-1.02621,-1.45856c0,0 3.1108,-4.39669 5.03833,-6.36771c2.10748,-2.15495 7.11497,-6.05946 7.11497,-6.05946z" fill="#4a494a" stroke-width="0"/><path d="M177.94208,303.0633l-3.25299,2.21891c0,0 -0.00631,-0.65355 -0.16267,-0.87571c-0.18576,-0.26399 -0.77862,-0.58288 -0.77862,-0.58288l2.82266,-2.27315c0,0 0.82217,0.36204 1.0721,0.6377c0.19152,0.21125 0.29942,0.87513 0.29942,0.87513z" fill="url(#color-3)" stroke-width="0"/><path d="M165.69176,314.97882l-2.48572,3.15931l-0.48481,-2.13296l1.73545,-2.32355c0,0 0.74432,0.0539 0.9559,0.27612c0.19935,0.20939 0.2791,1.02105 0.2791,1.02105z" fill="url(#color-4)" stroke-width="0"/></g><path d="M290.38371,270.87617c0,0 0.22206,-4.50945 0.50103,-5.96037c0.18933,-0.98493 2.30849,-2.77149 2.30849,-2.77149l16.77404,-2.88798c0,0 -0.35091,5.92634 -0.51273,7.33556c-0.0709,0.61731 -1.01489,1.46872 -1.01489,1.46872z" fill="#665b60" stroke-width="0"/><path d="M239.50584,260.47978c0,0 -3.99247,-0.94725 -9.04076,-1.3113c-3.20918,-0.23145 -7.51523,-0.12068 -9.33656,0.27604c-5.29514,1.1533 -6.98129,6.59041 -6.98129,6.59041c0,0 -3.5963,-1.77304 -5.81199,-2.28619c-2.06828,-0.47899 -6.52452,-0.78396 -6.52452,-0.78396c0,0 23.45532,-8.88459 27.16764,-10.06223c7.11675,-2.25768 33.52844,-6.06075 33.52844,-6.06075l8.38994,13.13119z" fill="#8b7c84" stroke-width="0"/><g stroke-width="0"><path d="M291.67227,269.71666c0,0 0.05796,-2.63809 0.32277,-3.58624c0.27452,-0.98307 2.26592,-2.36536 2.26592,-2.36536l14.34977,-2.2816c0,0 0.53586,0.91012 0.41925,1.67572c-0.15857,1.04091 -2.46925,4.19018 -2.46925,4.19018z" fill="#585852"/><path d="M291.55523,268.98059c0,0 0.17502,-1.90198 0.43983,-2.85012c0.27452,-0.98307 2.14888,-3.10145 2.14888,-3.10145l14.34977,-2.28159c0,0 0.65292,1.64623 0.53633,2.41183c-0.15857,1.04091 -2.58633,3.45405 -2.58633,3.45405z" fill="#797971"/><path d="M306.82922,261.51386c-1.0638,-0.01103 -12.58481,1.54601 -12.58481,1.54601l14.33013,-2.27846l0.38656,2.43131c0,0 -1.06811,-1.68778 -2.1319,-1.69887z" fill="#85857b"/></g><path d="M290.23293,251.5492l-0.81493,-5.12539l7.04738,-1.12055l2.09628,4.92166z" fill="#7c6e75" stroke-width="0"/><path d="M275.789,227.09025l-5.40172,-7.37456l1.36225,-0.21658l7.38411,7.51663z" fill="#d495b6" stroke-width="0"/><path d="M236.07131,225.68043l12.56991,-5.12707l21.94627,-0.84411l5.22398,7.3633z" fill="#df9cbe" stroke-width="0"/><path d="M291.18255,256.48891l-0.25465,-1.60167l10.73124,-1.70624l1.21566,1.4489z" fill="#7c6e75" stroke-width="0"/><path d="M249.20542,250.85639c0,0 -17.72049,4.03095 -23.20483,5.40948c-8.30453,2.08727 -24.7979,7.06417 -24.7979,7.06417c0,0 14.14005,-6.74467 27.24182,-10.36298c14.20569,-3.92318 57.47993,-12.27938 57.47993,-12.27938l0.84939,5.34194z" fill="#75686e" stroke-width="0"/><path d="M243.75,260.60445l-3.29265,-0.05446c0,0 9.27487,-3.88905 14.66791,-3.97417c5.39307,-0.08514 15.35548,3.50032 15.35548,3.50032z" fill="#7c6e76" stroke-width="0"/><path d="M197.23737,263.91903c0,0 -34.37348,-10.12452 -35.97943,-14.54733c-1.45876,-4.0176 29.82048,-2.36395 30.09757,-2.5176c4.84819,-2.68852 74.70646,-21.10139 74.70646,-21.10139l27.34475,2.52686l52.01764,-8.84932l9.34927,12.25944c0,0 -60.61188,10.82074 -84.05772,14.71367c-8.13867,1.35135 -24.86385,3.35479 -39.79884,6.88406c-11.52037,2.72236 -28.30945,9.7626 -28.30945,9.7626z" fill="#ee96c3" stroke-width="0"/><path d="M71.67735,296.5837l0.12099,-20.42637c0,0 -1.20795,-6.95068 5.58586,-10.3557c8.43816,-4.22915 25.39774,-5.11815 27.44273,-5.4433c1.56929,-0.24952 -11.11179,12.31426 -11.11179,12.31426l3.1647,19.90397z" fill="#c4b4b3" stroke-width="0"/><g stroke-width="0"><path d="M346.48211,234.40746l-5.19954,-14.50639l92.66828,-7.8846l0.16449,5.85376l-46.0775,12.24435z" fill="#ad6d8e"/><path d="M370.24949,216.11216l5.88349,-9.31207l26.10825,-6.30694l-2.61826,10.94873z" fill="#8d788b"/><path d="M345.28115,221.28563l-2.54937,-16.03388l33.47124,1.54135l-3.44327,7.5028z" fill="#857183"/><path d="M386.6522,211.34509l15.52733,-10.84096l28.08866,-0.64597l0.80002,6.85338z" fill="#947e92"/><path d="M341.06828,221.33933l0.85313,-13.06199l0.94778,-3.25298l2.36542,14.87699z" fill="#756474"/><path d="M347.2408,231.03207l-2.60808,-11.80966l42.51756,-8.42977l1.3105,16.05041z" fill="#746373"/><path d="M388.45079,226.82894c0,0 -0.61517,-6.2889 -0.86549,-9.12897c-0.21433,-2.43161 -0.54536,-6.87711 -0.54536,-6.87711l43.79445,-6.04273l3.29421,7.98174z" fill="#867284"/><path d="M341.09713,221.26338l3.73724,-2.14435l2.43729,11.91583z" fill="#6f5e6d"/><path d="M423.12548,200.8849l-20.10051,-0.20998l26.96669,-0.60563l0.19761,3.55859c0,0 -0.5561,-1.50054 -1.86014,-2.007c-0.87231,-0.33874 -5.20366,-0.73606 -5.20366,-0.73606z" fill="#978195"/><path d="M384.89687,210.96633c0,0 7.33156,-4.67453 9.86267,-6.44807c1.84384,-1.29195 3.92631,-3.21385 3.92631,-3.21385l2.52008,-0.28666l-13.69333,9.5326z" fill="#9c859a"/><path d="M370.82134,214.02279c0,0 0.86787,-2.92486 1.98939,-4.47042c1.12148,-1.54556 3.27308,-2.71313 3.27308,-2.71313l-2.83145,6.79696z" fill="#806b7d"/><path d="M403.46294,198.53243l1.20656,-5.99719l15.5977,1.30027l6.5355,5.44125z" fill="#55494f"/><path d="M401.40069,201.69557c0,0 0.94492,-0.95035 1.40651,-1.61586c0.34771,-0.50129 0.80975,-1.97674 0.80975,-1.97674l22.66502,0.44656c0,0 0.93514,0.35455 1.56521,0.58412c0.65846,0.23991 2.30417,0.82577 2.30417,0.82577z" fill="#685960"/><path d="M403.87704,197.56317l0.91793,-4.78892l14.49328,1.06422c0,0 -8.14807,-0.25644 -12.53357,0.6987c-2.54385,0.55407 -2.87761,3.02596 -2.87761,3.02596z" fill="#41383c"/></g><path d="M67.1284,257.53343l-0.81785,-5.14374c0,0 21.85608,-4.7864 43.55074,-8.17814c12.92807,-2.02117 26.58046,-2.57414 33.36086,-4.0067c15.28837,-3.2302 24.91881,-9.33029 24.91881,-9.33029l-4.59068,11.50673z" fill="#ffa1d1" stroke-width="0"/><path d="M66.77416,271.72265l-0.39182,-16.22231c0,0 54.44006,-6.56949 71.99663,-9.80712c10.39979,-1.91784 23.63604,-7.82878 23.63604,-7.82878l2.29921,14.46072c0,0 -66.66364,10.59939 -82.73417,13.15456c-6.6076,1.05059 -10.58433,32.79372 -10.58433,32.79372z" fill="#ee96c3" stroke-width="0"/><path d="M255.7716,319.12539l7.03002,-14.88443c0,0 7.3056,-17.218 15.51169,-25.47176c2.08531,-2.09741 7.00282,-4.09084 7.00282,-4.09084c0,0 -6.43049,6.07018 -8.55478,9.23442c-5.01665,7.4726 -20.98965,35.21252 -20.98965,35.21252z" fill="#70646b" stroke-width="0"/><path d="M340.40736,240.01336l-9.04923,-16.78912l1.33335,-0.21201c0,0 2.74056,5.08461 4.18868,7.77136c0.20632,0.38279 1.74612,1.37442 2.00168,1.84859c0.44305,0.82197 -0.36048,1.19629 0.13466,2.11497c1.37878,2.5581 2.72419,5.05421 2.72419,5.05421z" fill="#795467" stroke-width="0"/><path d="M165.00648,252.65224c0,0 -11.38087,-4.82509 -11.3027,-8.65985c0.04678,-2.29607 15.43176,-12.79427 15.43176,-12.79427l67.91469,-9.10519l-1.1302,3.3147l30.10647,0.52747l-66.73233,37.51935c0,0 -1.66307,-5.41991 1.44574,-8.80825c3.02143,-3.29313 16.95235,-11.24426 16.95235,-11.24426c0,0 -33.80059,5.32463 -41.01469,6.38388c-2.40677,0.35337 -11.67113,2.86644 -11.67113,2.86644z" fill="#f399c8" stroke-width="0"/><g><path d="M167.66308,233.38062l-0.50849,-3.19816l174.36341,-27.72344l0.50849,3.19816z" fill="#584f54" stroke-width="0"/><path d="M335.83259,203.61428l-0.42969,-2.70239l3.01738,-0.47975l3.09204,2.27912z" fill="#685d63" stroke-width="0"/><g fill="#685d63" stroke-width="0"><g><g><g><path d="M329.29426,204.90619l-0.46744,-2.94012l3.83295,-0.60945l0.46744,2.94012z"/><path d="M323.07486,205.89506l-0.46744,-2.94012l3.83296,-0.60944l0.46744,2.94012z"/></g><g><path d="M317.09014,206.84663l-0.46744,-2.94013l3.83296,-0.60944l0.46744,2.94012z"/><path d="M310.87074,207.8355l-0.46744,-2.94012l3.83295,-0.60944l0.46744,2.94013z"/></g></g><g><g><path d="M304.76863,208.80569l-0.46744,-2.94013l3.83295,-0.60944l0.46744,2.94012z"/><path d="M298.54919,209.79459l-0.46744,-2.94012l3.83295,-0.60945l0.46744,2.94013z"/></g><g><path d="M292.56455,210.74612l-0.46744,-2.94012l3.83295,-0.60944l0.46744,2.94012z"/><path d="M286.34513,211.73498l-0.46744,-2.94012l3.83294,-0.60946l0.46744,2.94013z"/></g></g></g><g><g><g><path d="M286.11047,211.77236l-0.46744,-2.94012l3.83295,-0.60944l0.46744,2.94012z"/><path d="M279.89108,212.76119l-0.46744,-2.94012l3.83296,-0.60944l0.46744,2.94012z"/></g><g><path d="M273.90635,213.71277l-0.46744,-2.94013l3.83295,-0.60944l0.46744,2.94012z"/><path d="M267.68692,214.70162l-0.46744,-2.94012l3.83294,-0.60946l0.46744,2.94013z"/></g></g><g><g><path d="M261.58492,215.67183l-0.46744,-2.94013l3.83296,-0.60944l0.46744,2.94012z"/><path d="M255.36549,216.66073l-0.46744,-2.94012l3.83296,-0.60944l0.46744,2.94013z"/></g><g><path d="M249.38077,217.61231l-0.46744,-2.94012l3.83295,-0.60945l0.46744,2.94013z"/><path d="M243.16138,218.60115l-0.46744,-2.94012l3.83296,-0.60944l0.46744,2.94012z"/></g></g></g></g><g><g fill="#685d63" stroke-width="0"><g><g><path d="M237.01937,219.57773l-0.46744,-2.94013l3.83296,-0.60944l0.46744,2.94012z"/><path d="M230.79997,220.56657l-0.46744,-2.94012l3.83296,-0.60944l0.46744,2.94013z"/></g><g><path d="M224.81527,221.51818l-0.46744,-2.94012l3.83296,-0.60944l0.46744,2.94013z"/><path d="M218.59588,222.50699l-0.46744,-2.94012l3.83295,-0.60945l0.46744,2.94013z"/></g></g><g><g><path d="M212.49386,223.47725l-0.46744,-2.94013l3.83296,-0.60944l0.46744,2.94012z"/><path d="M206.27441,224.46606l-0.46744,-2.94012l3.83296,-0.60944l0.46744,2.94013z"/></g><g><path d="M200.28963,225.41766l-0.46744,-2.94012l3.83296,-0.60944l0.46744,2.94013z"/><path d="M194.07024,226.40657l-0.46744,-2.94012l3.83295,-0.60945l0.46744,2.94012z"/></g></g></g><g><g fill="#685d63" stroke-width="0"><g><path d="M193.8356,226.44385l-0.46744,-2.94013l3.83296,-0.60944l0.46744,2.94012z"/><path d="M187.61618,227.43272l-0.46744,-2.94012l3.83295,-0.60945l0.46744,2.94013z"/></g><g><path d="M181.63149,228.38429l-0.46744,-2.94012l3.83295,-0.60945l0.46744,2.94013z"/><path d="M175.41207,229.37311l-0.46744,-2.94012l3.83295,-0.60945l0.46744,2.94012z"/></g></g><g fill="none" stroke-width="1" font-family="sans-serif" font-weight="normal" font-size="12" text-anchor="start"><g/><g/></g></g></g><path d="M167.26421,230.41635l2.23269,-3.12567l3.01738,-0.47975l0.42969,2.70239z" data-paper-data="{&quot;index&quot;:null}" fill="#685d63" stroke-width="0"/></g><path d="M228.63327,253.95829l-2.47781,0.6674c0,0 1.25493,-2.79933 10.55397,-5.41972c7.05007,-1.98664 27.15229,-6.51081 39.19286,-9.18034c5.59134,-1.2397 59.97865,-19.00217 59.97865,-19.00217l5.13208,-0.83048c0,0 -59.27858,20.20359 -64.86935,21.41968c-12.36272,2.68904 -33.1441,7.24598 -39.12563,8.7828c-3.2561,0.83658 -8.38464,3.56283 -8.38464,3.56283z" fill="#70475c" stroke-width="0"/><path d="M331.27963,256.90441l-4.57289,2.59606l-2.97202,-18.69661c0,0 7.7024,-1.17564 15.23521,-2.3254c21.62443,-3.30067 125.5529,-19.16388 125.5529,-19.16388l1.05634,6.64379z" fill="#5a5959" stroke-width="0"/><path d="M330.63162,258.65629l0.60533,-3.14006l134.33707,-29.66791l-9.91884,12.92951z" fill="#4b4a4a" stroke-width="0"/><path d="M452.3804,239.10703c0,0 -6.33936,-2.25731 -9.55845,-3.19151c-1.72514,-0.50063 -8.25479,-1.97797 -8.25479,-1.97797c0,0 8.35814,1.61129 11.8101,2.02231c1.23196,0.14672 2.45826,0.70382 3.82903,1.02065c0.44202,0.10214 1.80958,-2.90913 3.41574,-4.90038c0.48009,-0.59519 1.68318,-0.41734 2.15008,-0.82655c1.07041,-0.93805 1.25358,-2.07232 1.25358,-2.07232c0,0 0.47922,0.86503 -0.53402,2.25518c-0.27643,0.37931 -2.00167,1.01036 -2.2665,1.41734c-1.06132,1.63122 -1.79959,3.36774 -2.00811,3.99951c-0.58188,1.76304 1.60846,2.02396 1.60846,2.02396z" fill="#414040" stroke-width="0"/><path d="M165.00484,252.95367l2.0251,-11.56017l6.82118,-1.71667c0,0 -0.52302,2.76463 -0.83126,4.39399c-0.07761,0.41038 11.26296,-3.3735 11.71599,-2.76607c0.84053,1.12695 -4.07204,5.71517 -4.26593,6.73986c-0.22163,1.17148 -8.75595,2.92921 -8.75595,2.92921z" fill="#303030" stroke-width="0"/><path d="M164.80497,252.61075l2.05302,-10.71902c0,0 3.16781,0.81732 3.32248,1.79005c0.28141,1.76999 -0.36926,7.73326 -0.36926,7.73326z" fill="#252525" stroke-width="0"/><path d="M327.10589,262.12607l-0.4636,-2.91576l4.99164,-3.78317l-0.75915,3.11016c0,0 -0.86722,1.48992 -1.53002,2.12109c-0.58324,0.55538 -2.23887,1.46764 -2.23887,1.46764z" fill="#383838" stroke-width="0"/><g><g fill="#4b4b4b" stroke-width="0"><g data-paper-data="{&quot;origPos&quot;:null}"><g data-paper-data="{&quot;origPos&quot;:null}"><path d="M393.62947,252.93718l-0.35688,-2.24456l3.70348,-0.58885l0.35688,2.24456z" data-paper-data="{&quot;origPos&quot;:null}"/><path d="M387.43917,253.80638l-0.35688,-2.24456l3.70347,-0.58885l0.35688,2.24455z" data-paper-data="{&quot;origPos&quot;:null}"/></g><g data-paper-data="{&quot;origPos&quot;:null}"><path d="M405.9923,251.08656l-0.35688,-2.24456l3.70348,-0.58885l0.35688,2.24455z" data-paper-data="{&quot;origPos&quot;:null}"/><path d="M399.80196,251.95576l-0.35688,-2.24455l3.70347,-0.58885l0.35688,2.24456z" data-paper-data="{&quot;origPos&quot;:null}"/></g></g><g data-paper-data="{&quot;origPos&quot;:null,&quot;index&quot;:null}"><g data-paper-data="{&quot;origPos&quot;:null}"><path d="M424.92293,247.84654l-0.35688,-2.24456l3.70348,-0.58885l0.35688,2.24455z" data-paper-data="{&quot;origPos&quot;:null}"/><path d="M431.0775,246.75288l-0.35689,-2.24455l3.70348,-0.58885l0.35687,2.24454z" data-paper-data="{&quot;origPos&quot;:null}"/></g><g data-paper-data="{&quot;origPos&quot;:null}"><path d="M412.59582,249.92156l-0.35688,-2.24456l3.70347,-0.58885l0.35689,2.24455z" data-paper-data="{&quot;origPos&quot;:null}"/><path d="M418.75044,248.82795l-0.35688,-2.24455l3.70348,-0.58885l0.35688,2.24455z" data-paper-data="{&quot;origPos&quot;:null}"/></g></g></g><path d="M350.14304,251.50271l-2.13729,-13.44226l83.42609,-13.26456l2.13729,13.44226z" data-paper-data="{&quot;origPos&quot;:null}" fill="#444444" stroke-width="0"/><path d="M350.98186,256.15092l-0.75095,-4.72312l83.18088,-13.2256l0.75095,4.72313z" data-paper-data="{&quot;origPos&quot;:null}" fill="#414141" stroke-width="0"/><path d="M351.2399,257.55202l-0.25399,-1.59756l83.17025,-13.22392l0.254,1.59755z" data-paper-data="{&quot;origPos&quot;:null}" fill="#3f3f3f" stroke-width="0"/><g stroke-width="0"><g data-paper-data="{&quot;origPos&quot;:null}" fill="#5a5a5a"><g data-paper-data="{&quot;origPos&quot;:null}"><path d="M392.89038,244.78637l-2.15911,-13.57942l3.52713,-0.5608l2.15911,13.57942z" data-paper-data="{&quot;origPos&quot;:null}"/></g><g data-paper-data="{&quot;origPos&quot;:null}"><path d="M398.88647,243.83302l-2.15911,-13.57942l3.52714,-0.5608l2.15911,13.57942z" data-paper-data="{&quot;origPos&quot;:null}"/><path d="M405.05897,242.85157l-2.1591,-13.57943l3.52713,-0.5608l2.15911,13.57942z" data-paper-data="{&quot;origPos&quot;:null}"/></g></g><g data-paper-data="{&quot;origPos&quot;:null}" fill="#5a5a5a"><g data-paper-data="{&quot;origPos&quot;:null}"><path d="M411.58413,241.81409l-2.15911,-13.57942l3.52713,-0.5608l2.15911,13.57943z" data-paper-data="{&quot;origPos&quot;:null}"/><path d="M417.75655,240.83267l-2.15911,-13.57942l3.52714,-0.5608l2.1591,13.57943z" data-paper-data="{&quot;origPos&quot;:null}"/></g><g data-paper-data="{&quot;origPos&quot;:null}"><path d="M423.75271,239.87929l-2.1591,-13.57943l3.52713,-0.5608l2.1591,13.57943z" data-paper-data="{&quot;origPos&quot;:null}"/><path d="M429.92518,238.89787l-2.1591,-13.57943l3.52713,-0.5608l2.15911,13.57942z" data-paper-data="{&quot;origPos&quot;:null}"/></g></g><path d="M396.47807,244.21595l-0.56468,2.04504l-5.16959,0.86556l-1.67594,-9.65306l1.60521,-6.25738l2.22721,13.5686z" fill="#3a3a3a"/><path d="M402.47177,243.26291l-0.56468,2.04505l-5.1696,0.86558l-1.67593,-9.65306l1.60521,-6.25737l2.22721,13.56859z" fill="#3a3a3a"/><path d="M408.60167,242.2883l-0.56468,2.04505l-5.16959,0.86558l-1.67594,-9.65306l1.60521,-6.25737l2.22721,13.5686z" fill="#3a3a3a"/><path d="M415.20831,241.23786l-0.56468,2.04505l-5.16959,0.86558l-1.67594,-9.65306l1.60521,-6.25737l2.22721,13.5686z" fill="#3a3a3a"/><path d="M421.40636,240.25241l-0.56468,2.04505l-5.16959,0.86558l-1.67594,-9.65306l1.60521,-6.25737l2.22721,13.56859z" fill="#3a3a3a"/><path d="M427.33189,239.31023l-0.56468,2.04504l-5.16959,0.86556l-1.67594,-9.65306l1.60521,-6.25737l2.22721,13.5686z" fill="#3a3a3a"/><path d="M433.5377,238.32351l-0.56468,2.04504l-5.16959,0.86558l-1.67593,-9.65306l1.60521,-6.25738l2.22721,13.5686z" fill="#3a3a3a"/></g><g stroke-width="0"><g data-paper-data="{&quot;origPos&quot;:null}" fill="#5a5a5a"><g data-paper-data="{&quot;origPos&quot;:null}"><path d="M350.19762,251.57445l-2.1591,-13.57943l3.52714,-0.5608l2.15911,13.57942z" data-paper-data="{&quot;origPos&quot;:null}"/></g><g data-paper-data="{&quot;origPos&quot;:null}"><path d="M356.19369,250.62111l-2.15911,-13.57942l3.52713,-0.5608l2.15911,13.57942z" data-paper-data="{&quot;origPos&quot;:null}"/><path d="M362.36612,249.63969l-2.15911,-13.57942l3.52714,-0.5608l2.1591,13.57943z" data-paper-data="{&quot;origPos&quot;:null}"/></g></g><g data-paper-data="{&quot;origPos&quot;:null}" fill="#5a5a5a"><g data-paper-data="{&quot;origPos&quot;:null}"><path d="M368.89136,248.60221l-2.1591,-13.57943l3.52715,-0.56079l2.15911,13.57942z" data-paper-data="{&quot;origPos&quot;:null}"/><path d="M375.06388,247.62077l-2.15911,-13.57942l3.52714,-0.5608l2.1591,13.57943z" data-paper-data="{&quot;origPos&quot;:null}"/></g><g data-paper-data="{&quot;origPos&quot;:null}"><path d="M381.05997,246.66741l-2.15911,-13.57942l3.52714,-0.5608l2.1591,13.57943z" data-paper-data="{&quot;origPos&quot;:null}"/><path d="M387.23248,245.68601l-2.1591,-13.57943l3.52714,-0.5608l2.15911,13.57943z" data-paper-data="{&quot;origPos&quot;:null}"/></g></g><path d="M353.78526,251.00403l-0.56468,2.04505l-2.68913,0.4712l-0.3239,-1.94744z" fill="#3a3a3a"/><path d="M359.77898,250.05108l-0.56468,2.04505l-5.16959,0.86558l-1.67593,-9.65306l1.60521,-6.25737l2.22721,13.5686z" fill="#3a3a3a"/><path d="M365.90881,249.0764l-0.56468,2.04504l-5.16959,0.86558l-1.67595,-9.65305l1.60521,-6.25738l2.22721,13.5686z" fill="#3a3a3a"/><path d="M372.5155,248.02594l-0.56468,2.04504l-5.16959,0.86558l-1.67593,-9.65306l1.60521,-6.25737l2.22721,13.5686z" fill="#3a3a3a"/><path d="M378.7136,247.0405l-0.56468,2.04504l-5.16959,0.86556l-1.67594,-9.65306l1.60521,-6.25737l2.22721,13.5686z" fill="#3a3a3a"/><path d="M384.63913,246.09826l-0.56468,2.04504l-5.16959,0.86556l-1.67594,-9.65306l1.60521,-6.25738l2.22721,13.5686z" fill="#3a3a3a"/><path d="M390.84499,245.1116l-0.56468,2.04505l-5.16959,0.86556l-1.67594,-9.65306l1.60521,-6.25737l2.22721,13.5686z" fill="#3a3a3a"/></g><g><g data-paper-data="{&quot;origPos&quot;:null}"><g data-paper-data="{&quot;origPos&quot;:null}" fill="none" stroke-width="1" font-family="sans-serif" font-weight="normal" font-size="12" text-anchor="start"/><g data-paper-data="{&quot;origPos&quot;:null}" fill="#4b4b4b" stroke-width="0"><path d="M357.87318,258.81532l-0.35688,-2.24456l3.70347,-0.58885l0.35689,2.24455z" data-paper-data="{&quot;origPos&quot;:null}"/><path d="M351.68285,259.6845l-0.35688,-2.24456l3.70347,-0.58885l0.35688,2.24456z" data-paper-data="{&quot;origPos&quot;:null}"/></g></g><g data-paper-data="{&quot;origPos&quot;:null,&quot;index&quot;:null}" fill="#4b4b4b" stroke-width="0"><g data-paper-data="{&quot;origPos&quot;:null}"><path d="M376.80382,255.5752l-0.35688,-2.24455l3.70348,-0.58885l0.35688,2.24455z" data-paper-data="{&quot;origPos&quot;:null}"/><path d="M382.95842,254.48158l-0.35687,-2.24454l3.70348,-0.58885l0.35688,2.24455z" data-paper-data="{&quot;origPos&quot;:null}"/></g><g data-paper-data="{&quot;origPos&quot;:null}"><path d="M364.47664,257.65033l-0.35688,-2.24456l3.70348,-0.58885l0.35688,2.24455z" data-paper-data="{&quot;origPos&quot;:null}"/><path d="M370.63128,256.55662l-0.35688,-2.24456l3.70348,-0.58885l0.35688,2.24456z" data-paper-data="{&quot;origPos&quot;:null}"/></g></g></g></g><path d="M177.2773,249.3884l0.36485,-4.32606c0,0 4.05964,-3.83248 7.5234,-4.53511c3.95975,-0.80325 33.56082,-5.48449 33.56082,-5.48449c0,0 0.94834,1.74852 1.08719,2.95893c0.17892,1.55945 -1.4297,4.91836 -1.4297,4.91836z" fill="#242424" stroke-width="0"/><path d="M201.2561,241.71787l-0.49469,-3.11122l17.77846,-2.82677l0.49469,3.11122z" fill="#313131" stroke-width="0"/><path d="M198.30635,244.14179l-0.10242,-0.64416c0,0 0.88957,-1.20581 1.89993,-1.36646c0.95944,-0.15253 3.19485,-0.02711 5.64198,-0.25074c4.66175,-0.42612 10.2363,-1.20946 10.2363,-1.20946l0.10242,0.64416c0,0 -5.36126,0.85036 -9.95858,1.26679c-2.5085,0.22723 -4.83791,0.02145 -5.83319,0.1797c-1.04615,0.16634 -1.98642,1.3802 -1.98642,1.3802z" fill="#616161" stroke-width="0"/><path d="M222.63587,224.36517l13.01108,0.99589l31.30128,0.39793c0,0 0.75923,0.10628 -7.35325,0.65878c-2.75974,0.18794 -13.51874,0.26938 -22.92595,-0.16167c-2.54547,-0.11661 -16.25446,-1.42094 -16.25446,-1.42094z" fill="#df8cb7" stroke-width="0"/><path d="M44.78997,259.05823l-0.93167,-5.85951c0,0 5.42323,-2.63725 9.17987,-3.23454c3.07543,-0.489 12.00322,1.64147 12.00322,1.64147l1.79365,12.13966z" fill="#626061" stroke-width="0"/><path d="M160.97779,250.69576l4.14269,1.8788l11.88743,-3.22985l50.11545,-7.96824l0.17135,1.07751c0,0 -37.61682,5.83395 -49.33138,7.96202c-3.21621,0.58428 -12.68211,2.81925 -12.68211,2.81925z" fill="#ffa6d4" stroke-width="0"/><path d="M51.98201,322.64807l-1.12583,-7.08067l20.52571,-20.10268l0.55904,13.75171l-12.10869,12.18343z" fill="#3f3d3e" stroke-width="0"/><path d="M49.57757,317.90666c0,0 -2.90058,-19.43751 -3.6097,-29.02843c-0.80037,-10.82487 -0.95208,-32.66818 -0.95208,-32.66818c0,0 8.47797,-1.53969 12.27402,-0.47677c3.24889,0.90969 9.11738,6.46653 9.11738,6.46653l5.26844,33.13533c0,0 -9.55875,15.39001 -12.21111,18.09921c-4.07982,4.16725 -9.88696,4.47233 -9.88696,4.47233z" fill="#555354" stroke-width="0"/><path d="M46.53109,266.70072c0,0 -2.46209,-5.67671 -0.84511,-8.6649c1.61697,-2.9882 5.7529,-4.6755 8.2814,-5.07753c2.01706,-0.32072 6.20367,-0.90668 9.74153,3.04535c3.53787,3.95199 2.68943,10.84076 2.68943,10.84076c0,0 -7.85533,-9.2854 -10.44677,-9.30412c-3.6568,-0.02643 -9.42054,9.16054 -9.42054,9.16054z" fill="#6f6b6c" stroke-width="0"/><path d="M48.90757,322.94621c0,0 -2.39923,-26.00845 -4.19615,-37.31027c-1.87138,-11.76996 -5.33639,-32.1977 -5.33639,-32.1977c0,0 1.04092,-0.81655 2.06882,-0.98c0.93989,-0.14946 2.58828,0.23954 2.58828,0.23954c0,0 2.7962,18.95131 4.47553,29.5134c1.95109,12.27132 3.78705,40.19644 3.78705,40.19644z" fill="#333232" stroke-width="0"/><path d="M48.55179,323.45202l-1.22897,-14.69762c0,0 1.1817,0.71215 1.76759,0.57985c0.73982,-0.16707 2.17033,-1.85007 2.17033,-1.85007l1.21094,15.34455z" fill="#2e2d2d" stroke-width="0"/><path d="M68.30059,283.59665c1.28203,8.06335 -1.4299,17.27136 -5.28131,20.84788c-3.19872,2.97045 -9.54321,10.822 -10.82521,2.75866c-0.27198,-1.71061 -0.11862,-13.76355 -1.09562,-20.72634c-1.29208,-9.20818 -3.69953,-13.86885 -3.19826,-16.81575c0.90649,-5.32846 6.12892,-7.65687 8.31593,-8.00458c4.31111,-0.68545 10.80249,13.87682 12.08454,21.94016z" fill="#585758" stroke-width="0"/><path d="M104.54626,292.09356l-0.85855,-1.6261c0,0 7.62916,-2.58054 13.49646,-4.00364c8.25981,-2.00344 31.38789,-6.8831 31.38789,-6.8831l1.97484,0.98331c0,0 -24.5447,5.5433 -33.0297,7.66998c-2.49194,0.62457 -12.97088,3.8596 -12.97088,3.8596z" fill="#585657" stroke-width="0"/><path d="M100.80178,306.05525l2.9755,-14.33646l7.00318,-2.07609c0,0 -1.03919,4.5329 -0.83535,5.26514c0.97382,3.49882 7.697,26.69792 7.697,26.69792c0,0 -1.38997,0.66694 -2.85911,-0.99856c-2.63606,-2.98847 -5.52632,-9.47711 -7.58687,-11.27855c-1.78031,-1.55646 -6.39428,-3.27341 -6.39428,-3.27341z" fill="#5a5759" stroke-width="0"/><path d="M108.33875,273.66592l1.07343,-11.64633l2.28695,-0.47613l-2.1359,12.04024z" fill="#a5a0a2" stroke-width="0"/><path d="M114.87409,271.52971l-0.22028,-1.38537l26.16755,-4.16059l0.22028,1.38536z" fill="#494748" stroke-width="0"/><path d="M114.3279,268.60791l-0.22028,-1.38537l26.16755,-4.16059l0.22028,1.38537z" fill="#494748" stroke-width="0"/><path d="M98.65416,293.78922l-3.16221,-19.88852l10.58544,-11.42009l4.73552,-1.06862l-9.35103,44.83809l-5.85622,-1.09739z" fill="#dbd5d8" stroke-width="0"/><path d="M74.35522,309.71679l-2.00741,-11.61974l26.19986,-4.96512c0,0 0.72468,2.4544 0.72147,3.26341c-0.00787,2.01674 -0.90086,9.18369 -0.90086,9.18369z" fill="#ccc6c9" stroke-width="0"/><path d="M76.30945,297.87258l-0.04962,-0.31188l22.39758,-4.44051l-2.38711,1.57872c0,0 -4.23879,0.86252 -6.91889,1.25648c-3.66977,0.53948 -13.04199,1.91721 -13.04199,1.91721z" fill="#d8d1d5" stroke-width="0"/><path d="M79.19451,293.63013l-2.66944,-16.78906l15.92498,-2.53204l2.66944,16.78906z" fill="#a39999" stroke-width="0"/><path d="M74.10873,309.92784l-1.78374,-11.21837c0,0 9.73013,4.91982 14.33113,6.55826c4.60105,1.63843 10.97763,0.34107 10.97763,0.34107z" fill="#b4afb1" stroke-width="0"/><path d="M108.28343,310.6127c0,0 3.15526,0.55189 4.21524,0.23782c0.65113,-0.19297 1.5396,-1.9431 1.5396,-1.9431l3.06269,8.70022l0.65873,4.14306c0,0 -1.87004,0.61268 -3.53876,-1.73702c-1.37682,-1.93869 -5.93749,-9.40093 -5.93749,-9.40093z" fill="#504e4f" stroke-width="0"/><path d="M101.18986,306.55694l7.72733,-43.49656l1.75418,-0.07121l-7.56162,43.88561z" fill="#858183" stroke-width="0"/><path d="M78.1628,268.9502l1.23682,-1.86787c0,0 26.97438,-4.94088 39.23074,-6.88958c10.63766,-1.69134 31.60409,-4.66756 31.60409,-4.66756l0.82776,1.83415c0,0 -21.14396,2.64702 -32.35671,4.42981c-12.80354,2.03577 -40.54268,7.16105 -40.54268,7.16105z" fill="#918b8e" stroke-width="0"/><path d="M78.9751,267.57485l1.69391,-2.23513c0,0 25.51174,-4.41369 37.76803,-6.36247c10.63765,-1.69134 31.60409,-4.66756 31.60409,-4.66756l0.82775,1.83415c0,0 -21.14395,2.64703 -32.35671,4.4298c-12.80354,2.03577 -39.53709,7.00113 -39.53709,7.00113z" fill="#a59fa2" stroke-width="0"/><path d="M146.04626,277.9578l-2.79397,-5.30977c0,0 0.01978,-1.22334 0.33091,-1.387c0.27413,-0.14426 1.43894,0.45567 1.43894,0.45567l2.79397,5.30978c0,0 -0.1349,0.91012 -0.40967,1.05467c-0.3108,0.16355 -1.36025,-0.12335 -1.36025,-0.12335z" fill="#494242" stroke-width="0"/><path d="M106.68715,286.89775l2.00941,-9.92437l3.83752,-0.61016l-2.00941,9.92437z" fill="#9c989a" stroke-width="0"/><path d="M113.34442,267.83975l1.67579,-1.24654l24.13852,-3.81967l2.14218,0.62127z" fill="#757274" stroke-width="0"/><path d="M113.879,270.60137l1.67579,-1.24655l24.13851,-3.81966l2.14219,0.62124z" fill="#757274" stroke-width="0"/><path d="M71.56375,309.33718l-7.44647,-57.70432l1.98765,0.27198l8.04822,58.01478z" fill="#686666" stroke-width="0"/><path d="M71.44484,309.62979l-1.90611,-16.15686l2.86225,3.41133l1.65906,13.21348z" fill="#535252" stroke-width="0"/><path d="M98.21739,282.21097c0,0 1.72941,-2.64991 1.58071,-3.58493c-0.14587,-0.9176 -2.46458,-1.97393 -2.46458,-1.97393c0,0 3.06995,0.19001 3.23217,1.87372c0.12354,1.28251 -0.57028,3.60931 -0.48348,4.71173c0.2468,3.13458 0.72045,10.49892 0.72045,10.49892z" fill="#c4bec1" stroke-width="0"/><path d="M105.49798,279.11772l0.28695,-10.36915l1.83351,-4.70048l-1.1212,9.85652z" fill="#aca7a9" stroke-width="0"/></g></g><g stroke-width="0"><path d="M217.72208,233.09427l2.00051,-3.68909c0,0 1.55948,-1.7023 2.41739,-1.5603c0.97816,0.16194 3.13819,2.48008 3.13819,2.48008l0.10575,4.1164c0,0 -4.22933,0.6648 -5.50082,0.732c-0.57321,0.0303 -2.16097,-2.07911 -2.16097,-2.07911z" fill="#c0c0c0"/><path d="M176.85115,249.36498c0,0 -0.62651,-2.81658 0.24065,-4.1076c1.08673,-1.61795 6.74388,-4.75744 6.74388,-4.75744l0.04207,4.78991l0.4587,2.88496z" fill="#838383"/><path d="M176.66945,249.31861l6.82945,-8.66113l37.09634,-5.89826l1.17477,7.38846z" fill="#999999"/><path d="M177.55295,248.51341l5.16607,-6.73591l33.35337,-5.30311l0.91721,5.76863c0,0 -4.03689,0.64182 -9.22985,1.46757c-3.37626,0.53686 -7.40794,0.10252 -10.96987,0.66883c-3.82107,0.60751 -7.12667,2.20847 -9.27284,2.54972c-4.20039,0.66785 -9.96407,1.58424 -9.96407,1.58424z" fill="#2e2e2e"/><path d="M181.00151,247.96289l7.33809,-7.1442l12.30948,-1.95719c0,0 -6.98507,3.04192 -9.18214,4.3173c-2.33249,1.35391 -5.17341,3.94267 -5.17341,3.94267z" fill="#a5899d"/><path d="M188.87385,246.59705c0,0 4.86939,-1.75857 7.296,-2.14438c3.10063,-0.49301 9.78624,-0.57168 9.78624,-0.57168l-9.58692,1.1849z" fill="#adadad"/><path d="M176.76983,249.28424l6.1687,-7.81726l34.5329,-5.49062l0.10811,0.68004c0,0 -29.90119,4.75424 -33.79885,5.37394c-0.81522,0.12961 -7.0108,7.25395 -7.0108,7.25395z" fill="#8a8a8a"/><path d="M224.33117,248.03621l-1.53182,-9.63433l-0.4882,-7.21474c0,0 1.24623,0.27765 1.88178,0.7472c0.63551,0.46954 1.1913,1.52316 1.1913,1.52316l0.93503,14.26264z" fill="#9e9e9e"/><path d="M218.28288,244.714c0,0 -1.23414,-1.95538 -1.61865,-3.50336c-0.51783,-2.08448 -0.53941,-7.66856 -0.53941,-7.66856l1.86625,-0.62616c0,0 0.87378,0.6628 1.32233,0.44046c0.6184,-0.30654 2.04494,-2.10964 2.04494,-2.10964l1.51625,12.73723z" fill="#9c9c9c"/><path d="M219.13718,246.43178c-0.94612,-0.9679 -0.92428,-2.36175 -0.92428,-2.36175l3.68657,-7.87698c0,0 1.98621,3.61675 2.13011,4.52186c0.40912,2.57321 2.14897,7.10595 2.14897,7.10595c0,0 -2.92999,0.55065 -4.02482,0.28059c-1.31313,-0.32388 -2.07033,-0.70184 -3.01649,-1.66973z" fill="#888888"/><path d="M220.77422,245.3875c-1.29002,-1.81975 -2.98882,-6.06878 -1.80635,-10.37464c1.1825,-4.30589 3.90154,-2.58026 3.90154,-2.58026c0,0 1.68853,4.21007 2.05173,6.49425c0.33085,2.0807 0.03939,6.65735 0.03939,6.65735c0,0 -2.89626,1.62305 -4.18627,-0.19675z" fill="#b4b4b4"/><path d="M223.676,237.13421c0.22158,1.39356 -4.81284,2.27241 -5.03443,0.87889c-0.22158,-1.39356 1.95096,-7.20905 2.75331,-7.33658c0.31075,-0.04937 0.9626,-0.04994 1.32322,0.96677c0.57047,1.60844 0.82213,4.63717 0.95789,5.49099z" fill="#bbbbbb"/></g><g stroke-width="0"><path d="M160.88026,250.6959c0,0 -6.55606,-3.93668 -6.85022,-5.78684c-0.24024,-1.51067 5.70182,-2.58011 5.70182,-2.58011l7.46298,-1.11385l-2.28163,11.27712z" fill="#f399c8"/><path d="M130.99059,257.1106c0,0 -1.28747,-1.91949 -1.20183,-3.01927c0.0945,-1.21373 1.56317,-5.09743 1.56317,-5.09743l22.72319,-3.80092l10.36701,7.08317z" fill="#ee96c3"/></g></g><g stroke-width="0"><g><path d="M222.19701,222.63592l-0.97073,-6.1051l47.22495,-7.50868l0.97073,6.1051z" fill="#61585b"/><path d="M221.52642,219.45826l-0.5198,-3.26927l47.40453,-7.53719l0.5198,3.26926c0,0 -8.53368,1.35683 -17.2999,2.75065c-2.74085,0.43579 -6.3559,2.54688 -8.8885,2.94953c-3.01156,0.47883 -6.47962,-0.50605 -8.4114,-0.19891c-5.79256,0.92101 -12.80471,2.03587 -12.80471,2.03587z" fill="#494344"/><path d="M281.54961,203.22653l-12.19049,-17.23249l20.65974,-3.28483l17.87114,14.14354c0,0 -5.42551,2.24113 -8.57693,3.00371c-4.86287,1.17672 -17.76342,3.37012 -17.76342,3.37012z" fill="#5e555b"/><path d="M282.09109,206.61861l-0.86968,-5.46978c0,0 11.91773,-3.36627 16.62678,-4.90442c3.73715,-1.2207 6.41672,-2.23609 6.41672,-2.23609l6.95527,5.92005c0,0 -5.01561,2.41364 -9.04232,3.5034c-5.45597,1.47656 -20.08667,3.18687 -20.08667,3.18687z" fill="url(#color-5)"/><path d="M267.71022,186.41699l-0.6275,-3.94661l18.91397,-3.00726l4.21877,3.37559z" fill="url(#color-6)"/><path d="M281.51844,206.73492l-0.19773,-1.24363c0,0 15.40408,-2.52657 20.69745,-3.53788c3.95813,-0.75617 8.07619,-3.00758 8.07619,-3.00758l1.0576,0.99099l-7.79669,3.32605z" fill="#312c30"/><g><path d="M180.08746,212.12849l-1.61463,-8.71289l92.76012,-14.74868l9.31729,9.94213z" fill="#8a6672"/><path d="M197.72261,217.71429c0,0 -4.04207,-3.00839 -7.04147,-4.01143c-2.99941,-1.00309 -9.93575,0.3402 -9.93575,0.3402l-0.21694,-2.07877c0,0 12.2138,-1.66213 19.17087,-2.67183c16.61948,-2.41221 80.11502,-11.73865 80.11502,-11.73865l4.60942,5.9166z" fill="#755761"/><path d="M200.92693,219.72708l-3.39489,-2.0846l86.423,-14.23657l1.67435,2.8536z" fill="#694e57"/><path d="M178.37236,203.83268l-0.71115,-4.47282l89.573,-14.92984l4.69087,4.98649c0,0 3.24513,2.86401 -1.9795,3.66907c-1.64474,0.25345 -11.18141,-1.64103 -12.83028,-1.38695c-15.87953,2.44696 -78.74286,12.13399 -78.74286,12.13399z" fill="#916b77"/><path d="M177.90011,199.32198l-0.51382,-2.47456l88.77164,-14.25496l1.40788,2.1985z" fill="#9e7582"/><path d="M251.21372,188.35778c-8.06946,0.62697 -72.0932,9.76133 -72.0932,9.76133l86.76417,-13.79532l5.90971,6.59499c0,0 -12.51112,-3.18797 -20.58067,-2.56099z" fill="#b38f9a"/></g><path d="M231.41534,214.87653l-1.44049,-9.05999l19.96149,-3.17386l1.44049,9.06z" fill="#3a3336"/><path d="M229.88876,205.83447l0.46851,-1.61611l18.30844,-2.911l1.21196,1.3489z" fill="#4b4246"/><path d="M231.47536,214.36137l-1.28409,-8.07614c0,0 1.87286,5.03421 4.67155,5.7094c2.7987,0.67521 16.01621,-0.71841 16.01621,-0.71841z" fill="#332c30"/><path d="M269.29961,188.41603l-4.81351,-5.31003c0,0 0.90557,-0.81903 1.49875,-0.9133c0.66313,-0.10543 2.29359,0.31039 2.29359,0.31039l4.81351,5.31003z" fill="#757575"/><path d="M273.02598,192.61758l-6.91674,-7.62068l3.79237,-0.60297l6.91674,7.62067z" fill="#5a5a5a"/><path d="M278.23087,198.31999l-6.91674,-7.62067l3.79236,-0.60297l6.91674,7.62068z" fill="#505050"/><path d="M283.61434,204.22763c-1.18136,-1.30158 -5.79082,-6.38021 -5.79082,-6.38021l3.79236,-0.60296l8.15335,9.15984c0,0 -1.94618,0.85167 -2.88626,0.98613c-0.73326,0.1049 -2.74771,-2.5889 -3.26862,-3.16284z" fill="#3b3b3b"/><path d="M178.97248,214.93658l-2.93242,-18.44307l3.14151,-0.4995l2.93242,18.44307z" fill="#443e42"/><path d="M160.58158,219.47976l-1.60809,-5.74681l19.9776,-3.17644l0.93085,5.85448z" fill="url(#color-7)"/><path d="M159.07254,214.35571l-1.70326,-10.71242l19.9776,-3.17644l1.70326,10.71243z" fill="#5e555b"/><path d="M157.38911,203.76805l0.13647,-4.23623l19.18751,-3.05079l0.65356,4.1106z" fill="url(#color-8)"/><path d="M226.19503,188.81327l-0.96311,-6.05724l15.00336,-1.30546l5.30465,3.92686z" fill="#5e555b"/><path d="M245.59581,185.72859l-5.34655,-4.19022c0,0 3.08723,0.20842 5.44459,0.84442c2.35736,0.63596 6.31033,2.32686 6.31033,2.32686z" fill="#776b73"/><path d="M223.3917,190.42907l2.9649,-1.73149l25.2406,-4.28319l3.83654,0.92011z" fill="#6d6269"/></g><g><path d="M232.22054,210.72853c-0.1961,-1.23333 0.12627,-2.45581 0.34838,-3.53365c0.3095,-1.5019 0.718,-2.76959 1.86283,-3.80843c0.69928,-0.63457 1.7613,-1.1977 2.70023,-1.59036c0.621,-0.25969 1.54495,-0.8117 2.23925,-0.9221c1.57393,-0.25027 1.92483,-0.22329 3.13818,0.08605c0.7309,0.18636 2.42054,0.37242 3.05443,0.95222c0.53651,0.4907 1.15534,1.3528 1.59954,1.97033c0.75905,1.05536 1.84434,2.77073 2.06238,4.14213c0.09216,0.57956 -0.18352,1.97865 -0.15164,2.49551c0.10122,1.64091 0.18053,2.14432 -0.84457,3.42466c-0.6231,0.77817 -2.02561,1.55591 -2.93285,2.11526c-0.93953,0.57931 -2.0635,1.63495 -3.22172,1.81913c-0.78169,0.12429 -2.27605,-0.17981 -3.05471,-0.19393c-1.68933,-0.03061 -2.59775,-0.06277 -3.79348,-1.02718c-1.02542,-0.82695 -1.53377,-2.36455 -2.10671,-3.64811c-0.30096,-0.67432 -0.77816,-1.5175 -0.89966,-2.28155z" fill="#3a3a3a"/><path d="M232.92389,210.49661c-0.17943,-1.12866 0.11561,-2.24735 0.3188,-3.23365c0.28322,-1.37437 0.65703,-2.5344 1.70471,-3.4851c0.63992,-0.58067 1.6118,-1.09599 2.47094,-1.45533c0.56831,-0.23765 1.41384,-0.7428 2.0491,-0.8438c1.44031,-0.22901 1.76141,-0.20434 2.87177,0.07871c0.66886,0.17052 2.21499,0.34083 2.7951,0.87133c0.49099,0.44905 1.0573,1.23797 1.46372,1.80303c0.69463,0.96578 1.68775,2.53549 1.88727,3.79042c0.08433,0.53033 -0.16794,1.81064 -0.13877,2.28366c0.09265,1.50157 0.16522,1.96224 -0.77293,3.13387c-0.57018,0.71212 -1.85366,1.42376 -2.68379,1.93566c-0.85976,0.53013 -1.88832,1.49618 -2.94814,1.66471c-0.7153,0.11375 -2.08279,-0.16455 -2.79537,-0.17743c-1.5459,-0.02797 -2.37716,-0.05744 -3.47144,-0.93993c-0.93837,-0.75677 -1.40354,-2.16382 -1.9278,-3.3384c-0.27538,-0.61706 -0.71205,-1.38868 -0.82326,-2.08783z" fill="#5a5a5a"/><path d="M244.25335,204.10898c-2.39422,-2.03509 -7.45598,-1.43336 -7.45598,-1.43336c0,0 1.83339,-0.8383 3.79998,-1.14393c1.59298,-0.24762 3.20306,-0.13456 4.5525,0.96822c1.35055,1.10366 1.97269,2.50811 2.47503,3.84127c0.98496,2.61375 0.9283,5.04562 0.9283,5.04562c0,0 -1.90561,-5.24265 -4.29982,-7.27769z" fill="#6d6d6d"/><path d="M239.78062,209.902c-0.09044,-0.56857 0.2972,-1.10277 0.86583,-1.19319c0.56857,-0.09044 1.10277,0.2972 1.19319,0.86584c0.09044,0.56857 -0.2972,1.10277 -0.86583,1.19318c-0.56857,0.09044 -1.10277,-0.2972 -1.19318,-0.86583z" fill="#272727"/><path d="M239.72407,210.04955c-0.08291,-0.52152 0.27261,-1.01143 0.79408,-1.09438c0.52152,-0.08291 1.01143,0.27261 1.09438,0.79408c0.08291,0.52152 -0.27261,1.01143 -0.79407,1.09438c-0.52152,0.08291 -1.01143,-0.27261 -1.09438,-0.79407z" fill="#131313"/></g></g></g></g></g><path d="M169.21429,332.5289c-0.24885,-1.56502 -11.14789,-42.99353 -10.92175,-44.72568c0.30536,-2.33874 8.89337,-2.33663 11.58402,-4.29117c8.24043,-5.98612 17.2114,-12.05721 17.2114,-12.05721c0,0 13.985,-1.63583 18.16894,-2.30101c3.12885,-0.49748 62.35376,-18.51104 64.70673,-8.43396c3.1915,13.66836 -41.63637,8.93032 -39.73156,20.91047c0.48219,3.03283 2.89274,2.84748 2.82822,6.04454c-0.0155,0.76729 -1.52482,6.25121 -1.48317,7.94175c0.06607,2.68346 3.94885,6.11893 1.16643,9.69951c-2.21797,2.85425 0.4778,7.50551 0.03782,8.80634c-3.03183,8.96425 -11.85477,6.51487 -20.75583,7.93011c-10.55346,1.67801 -25.32599,7.79692 -34.78748,8.04838c-4.08416,0.10851 -7.29945,6.9836 -8.02374,2.42808z" fill="#86c8f5" stroke-width="0"/></g></g></svg>