<svg version="1.1" xmlns="http://www.w3.org/2000/svg" xmlns:xlink="http://www.w3.org/1999/xlink" width="468.32998" height="152.82646" viewBox="0,0,468.32998,152.82646"><defs><linearGradient x1="536.8277" y1="224.93805" x2="535.91888" y2="229.663" gradientUnits="userSpaceOnUse" id="color-1"><stop offset="0" stop-color="#1f1d20"/><stop offset="1" stop-color="#202022"/></linearGradient><linearGradient x1="538.17634" y1="220.25332" x2="537.13068" y2="225.68989" gradientUnits="userSpaceOnUse" id="color-2"><stop offset="0" stop-color="#302d31"/><stop offset="1" stop-color="#1f1e20"/></linearGradient><linearGradient x1="200.33851" y1="204.2236" x2="199.69817" y2="207.55255" gradientUnits="userSpaceOnUse" id="color-3"><stop offset="0" stop-color="#585758"/><stop offset="1" stop-color="#575758"/></linearGradient><linearGradient x1="185.55769" y1="211.6438" x2="185.05501" y2="214.25729" gradientUnits="userSpaceOnUse" id="color-4"><stop offset="0" stop-color="#363536"/><stop offset="1" stop-color="#353536"/></linearGradient><linearGradient x1="343.87206" y1="147.59195" x2="342.82598" y2="153.03075" gradientUnits="userSpaceOnUse" id="color-5"><stop offset="0" stop-color="#5e555b"/><stop offset="1" stop-color="#2b2629"/></linearGradient><linearGradient x1="338.19368" y1="125.45398" x2="337.43891" y2="129.37817" gradientUnits="userSpaceOnUse" id="color-6"><stop offset="0" stop-color="#72676e"/><stop offset="1" stop-color="#5e555b"/></linearGradient><linearGradient x1="224.645" y1="117.76715" x2="223.5253" y2="123.58848" gradientUnits="userSpaceOnUse" id="color-7"><stop offset="0" stop-color="#5e555b"/><stop offset="1" stop-color="#4d454a"/></linearGradient><linearGradient x1="227.337" y1="103.7714" x2="226.55085" y2="107.85874" gradientUnits="userSpaceOnUse" id="color-8"><stop offset="0" stop-color="#74686f"/><stop offset="1" stop-color="#5e555b"/></linearGradient></defs><g transform="translate(-73.51347,-102.01216)"><g data-paper-data="{&quot;isPaintingLayer&quot;:true}" fill-rule="nonzero" stroke="none" stroke-linecap="butt" stroke-linejoin="miter" stroke-miterlimit="10" stroke-dasharray="" stroke-dashoffset="0" style="mix-blend-mode: normal"><g><g stroke-width="0"><path d="M263.4528,201.09693l-7.1476,-17.00135l25.22656,4.25116c0,0 -2.17965,5.51641 -2.88566,8.12861c-0.68293,2.52686 -1.28343,7.29701 -1.28343,7.29701z" fill="#7f7d7e"/><path d="M263.5123,201.30869l-2.51504,-6.19345c0,0 1.64464,3.93656 4.70639,5.1515c2.20476,0.87481 4.11552,0.92672 6.68813,1.74821c2.57259,0.82153 4.83722,1.93211 4.83722,1.93211z" fill="#6c6a6b"/></g><g><g><g><path d="M532.98159,229.09802l-1.11313,-5.11391c0,0 5.57053,2.75972 7.95249,4.12705c2.382,1.36741 0.6566,2.19251 0.6566,2.19251z" fill="url(#color-1)" stroke-width="0"/><path d="M541.65867,221.12645c0,0 1.01332,2.56535 -1.70593,2.9516c-2.71923,0.38622 -5.80102,1.03888 -5.80102,1.03888l0.09254,-5.61991z" data-paper-data="{&quot;index&quot;:null}" fill="url(#color-2)" stroke-width="0"/><path d="M523.5377,227.27689l0.39632,-2.06058l14.50664,2.79029c0,0 1.08494,1.01754 1.49476,1.46933c0.36842,0.40615 -0.8991,0.78203 -0.8991,0.78203z" fill="#444444" stroke-width="NaN"/><path d="M523.94005,225.36348l-0.83794,-1.94721l12.38859,2.38287l3.02277,2.25359c0,0 -4.1869,-0.56298 -6.45352,-0.98121c-2.5563,-0.47174 -8.11992,-1.70805 -8.11992,-1.70805z" fill="#535353" stroke-width="0"/><path d="M522.96613,223.52936l-0.19804,-0.68979l11.26724,2.16714l1.55585,0.83461z" fill="#363636" stroke-width="0"/><path d="M523.5377,227.27689l0.21501,-1.11789c0,0 6.25177,1.6644 9.07971,2.20835c2.39644,0.46094 6.80878,0.84774 6.80878,0.84774c0,0 0.76129,0.61713 0.96581,0.86306c0.17258,0.20747 -0.33355,0.4178 -0.33355,0.4178c0,0 -4.72401,-0.49674 -6.99606,-0.93376c-3.06536,-0.58958 -9.73966,-2.28528 -9.73966,-2.28528z" fill="#3a3a3a" stroke-width="NaN"/><path d="M523.07986,222.91807l-0.37664,-0.97238l13.39609,2.57669l-1.96213,0.55701z" fill="#242424" stroke-width="0"/><path d="M521.87395,221.97893l0.31249,-1.62455c0,0 7.98663,1.32623 10.92842,1.89204c2.00429,0.38553 5.01587,1.17478 5.01587,1.17478l-2.06233,1.11998z" fill="#3a3a3a" stroke-width="0"/><path d="M522.05115,220.37168l0.38581,-2.00582c0,0 7.57783,1.12164 10.83248,1.74762c2.81639,0.54172 7.57132,1.79226 7.57132,1.79226l-2.76046,1.54904c0,0 -3.57356,-0.77134 -5.77758,-1.19528c-2.92968,-0.56349 -10.25152,-1.88784 -10.25152,-1.88784z" fill="#444444" stroke-width="0"/><path d="M522.37851,218.44132l0.16074,-0.83575c0,0 7.75543,1.36575 11.28791,2.04519c2.4597,0.47311 7.87913,1.64149 7.87913,1.64149l-1.01024,0.67232c0,0 -4.90849,-1.23804 -7.82035,-1.79814c-3.20809,-0.61706 -10.49721,-1.72513 -10.49721,-1.72513z" fill="#535353" stroke-width="0"/><path d="M522.39597,217.66469l0.06435,-0.33427c0,0 7.63392,0.95201 11.032,1.6056c2.93789,0.5651 8.17745,2.08919 8.17745,2.08919l-0.02739,0.34143c0,0 -5.86959,-1.29695 -9.05619,-1.9099c-3.22828,-0.62095 -10.19012,-1.79203 -10.19012,-1.79203z" fill="#4e4e4e" stroke-width="0"/></g><g stroke-width="0"><g><g><g><path d="M517.88148,225.69196l-2.01291,-13.79214l0.86819,-1.58593c0,0 2.80233,3.82739 3.23776,6.44716c0.23638,1.42228 -0.6645,9.20555 -0.6645,9.20555z" fill="#383638"/><path d="M519.04432,225.21153c0,0 0.17251,-0.5877 0.01886,-3.11711c-0.1675,-2.75842 -0.84798,-6.59302 -1.03115,-7.72193c-0.41126,-2.53403 -1.12794,-2.8047 -1.12794,-2.8047l4.82354,0.3353l2.31605,14.27009z" fill="#555355"/><path d="M516.95078,211.66371l-0.33782,-1.32402c0,0 2.13493,-0.40405 3.0792,-0.22239c0.88489,0.17017 1.86238,1.09882 1.86238,1.09882l0.32409,1.3954z" fill="#686668"/></g><path d="M512.3109,224.62054l-2.01291,-13.79213l0.53951,-1.62859c0,0 3.13099,3.87013 3.56636,6.48985c0.23638,1.42227 -0.66449,9.20554 -0.66449,9.20554z" fill="#383638"/><path d="M513.47374,224.14012c0,0 0.17251,-0.58771 0.01887,-3.11709c-0.1675,-2.75842 -0.84798,-6.59302 -1.03115,-7.72193c-0.41126,-2.53403 -1.12794,-2.8047 -1.12794,-2.8047l4.18146,-0.29738c0,0 0.77075,1.42548 0.89611,2.19782c0.35719,2.20059 2.06197,12.70494 2.06197,12.70494z" fill="#555355"/><path d="M511.38017,210.59217l-0.55207,-1.36527c0,0 2.3492,-0.3628 3.29354,-0.18117c0.88489,0.17017 1.57668,1.04392 1.57668,1.04392l0.44687,1.41903z" fill="#686668"/><path d="M520.03566,224.39026c0.15474,-0.80475 0.9327,-1.33164 1.73744,-1.17692c0.80476,0.15475 1.33164,0.9327 1.17692,1.73744c-0.15474,0.80475 -0.9327,1.33164 -1.73743,1.17692c-0.80476,-0.15475 -1.33164,-0.9327 -1.17692,-1.73744z" fill="#312f31"/><path d="M521.23274,221.63754l-0.91577,-5.82432l1.58981,0.15982l0.90361,5.88768z" fill="#444144"/></g><path d="M474.62441,212.31428l-1.65256,-11.33979l29.12224,6.79954l-2.28424,9.38454z" fill="#444444"/><path d="M487.77732,210.85687c0,0 0.72313,-0.39241 1.64106,-1.34102c0.83939,-0.86724 1.85683,-2.27841 2.32215,-2.66114c1.28002,-1.49157 3.5276,-0.58381 3.5276,-0.58381l-1.08526,0.45628l-5.28321,4.34564z" fill="#292929"/><path d="M488.53744,221.72551l-4.32472,-12.00432c0,0 3.33542,1.18255 5.20652,0.47418c1.45399,-0.55051 1.85865,-3.15287 3.46069,-3.13086c4.59635,0.06341 17.32103,2.06908 17.32103,2.06908c0,0 1.83223,7.62837 2.19748,10.63862c0.25213,2.07815 -0.18089,6.50812 -0.18089,6.50812z" fill="#4a464a"/><path d="M495.07607,209.63439c-4.35854,-1.48601 -2.68608,-2.55329 -2.68608,-2.55329c0,0 1.02443,-1.12903 2.88573,-0.91988c4.56763,0.51332 12.94609,2.71232 14.64224,3.01246c0.79991,0.14151 0.20891,0.74875 0.20891,0.74875c0,0 -1.91326,2.0617 -3.48392,2.01827c-1.57075,-0.04345 -7.20831,-0.82022 -11.5669,-2.30626z" fill="#5e595e"/></g><g><path d="M475.704,225.9529l-1.6807,-18.58751l18.51332,3.85251l3.89551,5.15698l6.00803,1.05526l0.37967,13.73838z" fill="#4d4846"/><path d="M480.23705,227.21907l22.05832,-5.32087l21.96569,3.97812c0,0 0.49831,4.35539 0.38287,5.7126c-0.05892,0.69196 -0.70829,2.86183 -0.70829,2.86183z" fill="#423d3b"/><path d="M478.06171,218.33728l-1.26251,-10.26946l0.80574,0.155l1.26252,10.26948z" fill="#363332"/><path d="M480.96349,226.54241l0.22992,-1.19545c0,0 5.6505,-1.50524 14.55221,0.20692c1.18274,0.22751 4.87381,3.52955 6.06589,3.75884c7.56346,1.45479 14.96661,2.87876 17.78312,3.42048c2.29373,0.44119 4.88152,-0.38491 4.88152,-0.38491l-0.47553,2.47211z" fill="#312e2c"/><path d="M485.69709,214.4792l-0.84046,-4.86163l8.15815,1.5692l3.24515,5.12652l6.15633,1.38178l-7.8212,0.48012z" fill="#585350"/><path d="M475.05364,219.58643l0.21311,-1.1079c0,0 8.60811,-2.15647 11.43355,-1.61306c4.2583,0.81904 16.01411,3.0802 16.01411,3.0802l-0.21311,1.1079c0,0 -11.95739,-2.29992 -16.21559,-3.11898c-2.76741,-0.53231 -11.23214,1.65178 -11.23214,1.65178z" fill="#2b2827"/></g></g></g><g><g><g><path d="M138.3882,198.26665c0.10911,2.29593 -0.68387,4.78045 -1.80512,4.83368c-1.12123,0.0533 -2.14622,-2.34479 -2.25533,-4.64075c-0.10911,-2.29593 -0.58614,-11.11514 0.53516,-11.16849c1.12123,-0.0533 3.41623,8.67958 3.52534,10.97551z" fill="#615e5f" stroke-width="0"/><g><path d="M184.88505,176.73252c-0.42997,-0.61996 -2.4806,-2.35085 -2.4806,-2.35085l10.28544,-0.95444l-7.25195,5.93711c0,0 -0.1229,-2.01181 -0.55289,-2.63179z" fill="#756a6a" stroke-width="0"/><path d="M176.34156,173.36087l2.59395,-13.48615l19.30783,-2.26045l-3.70205,19.24721z" fill="#8a7c7c" stroke-width="0"/><path d="M135.99751,171.14786l9.9717,-16.54773l34.3297,6.46739l2.05924,13.29491c0,0 -22.87376,-2.79472 -30.60748,-3.33086c-3.21036,-0.2226 -15.75322,0.11642 -15.75322,0.11642z" fill="#7c787a" stroke-width="0"/><path d="M145.63119,156.98405l0.13438,-1.48278c0,0 25.45758,4.89659 33.46073,6.43594c4.47776,0.86122 17.06073,-3.20559 17.06073,-3.20559l-0.30783,1.60035c0,0 -12.29035,4.10352 -16.61827,3.25614c-7.93563,-1.55373 -33.72977,-6.60401 -33.72977,-6.60401z" fill="#535353" stroke-width="0"/><path d="M104.36175,165.78378l3.80671,-19.79119c0,0 5.78197,-6.07137 13.3294,-6.95767c9.37422,-1.10081 25.62185,3.84206 27.65522,4.23317c1.56035,0.30016 -14.64273,7.79118 -14.64273,7.79118l-3.80671,19.79119z" fill="#8d898b" stroke-width="0"/><path d="M282.9116,153.1381l2.16768,-2.78493l105.60199,20.45734l-2.78529,14.48081c0,0 -37.44916,-5.32377 -49.3714,-8.04067c-5.92092,-1.34929 -55.61298,-24.11254 -55.61298,-24.11254z" fill="#c98cac" stroke-width="0"/><path d="M242.56041,248.22825l-2.01842,-13.56177c0,0 3.94263,6.70484 6.5356,8.30018c1.65206,1.01646 5.73005,2.18954 12.19117,0.9502c5.20148,-0.99767 11.31803,-5.43298 11.31803,-5.43298l-14.27476,12.38943z" fill="#a08e97" stroke-width="0"/><path d="M340.28289,219.24854l2.16578,-23.63783l18.47846,2.12579l-4.0037,20.81546c0,0 -6.60696,0.4798 -9.45418,0.64329c-1.31097,0.07526 -7.18639,0.05332 -7.18639,0.05332z" fill="#96858d" stroke-width="0"/><path d="M240.04835,251.55959l1.04642,-5.44042c0,0 11.45538,4.30981 16.58131,2.11724c2.49465,-1.06707 22.99684,-18.43977 34.31031,-28.10892c4.41507,-3.77335 7.43079,-6.37349 7.43079,-6.37349c0,0 4.01155,-3.07075 4.55987,-5.90032c0.27581,-1.42339 1.52659,-5.43812 1.14661,-7.86494c-0.3834,-2.44852 -2.39884,-3.30288 -2.39884,-3.30288l-2.22087,-14.24823l19.43218,3.88393l-7.87626,25.54553l3.20663,3.22558c0,0 -10.51635,4.08734 -15.99799,8.07956c-8.57682,6.24626 -37.28417,31.6664 -37.28417,31.6664z" fill="#918189" stroke-width="0"/><path d="M317.45329,215.2166l6.59447,-27.85974l13.47558,2.87277l7.91014,13.74366l-5.2846,15.60877z" fill="#96858d" stroke-width="0"/><path d="M312.66091,216.17789l-1.68103,-4.54512l8.42201,-25.05003l5.00441,0.87632l-6.06295,27.94455z" fill="#8f8187" stroke-width="0"/><path d="M338.91729,219.45059c0,0 3.96146,-6.02729 3.65514,-11.59626c-0.17639,-3.20653 -4.62688,-6.0684 -4.73502,-8.03413c-0.20657,-3.75504 -0.52615,-9.5642 -0.52615,-9.5642l6.88947,5.76913c0,0 1.98232,7.72727 1.76437,12.02499c-0.14637,2.88744 -2.80765,8.86841 -4.2085,11.24553c-0.1181,0.20038 -1.25736,-0.10352 -1.33928,0.04903c-0.20012,0.37281 0.70305,0.78204 0.70305,0.78204z" fill="#86787e" stroke-width="0"/><path d="M343.70671,197.45752c0,0 -2.28818,-4.46754 -6.70292,-6.30611c-4.99791,-2.08144 -21.75278,-5.54456 -21.75278,-5.54456l157.57677,15.86717l1.59708,9.77948l5.67069,12.43766c0,0 -98.49198,-21.56291 -118.70968,-25.45162c-6.59735,-1.26899 -17.67919,-0.78194 -17.67919,-0.78194z" fill="#df8db7" stroke-width="0"/><path d="M183.33452,214.75793l2.13908,-36.52324c0,0 2.36137,-3.36526 2.89424,-3.48235c5.87521,-1.29141 39.34712,-5.70032 44.63437,-4.3918c5.79189,1.43339 -11.30735,10.29166 -11.30735,10.29166c0,0 -14.53311,-0.73232 -17.82781,2.96176c-4.47326,5.01542 -2.99089,22.9722 -2.99089,22.9722z" fill="#c77da3" stroke-width="0"/><path d="M260.10433,199.04657l-1.35961,-2.40538c0,0 8.06652,-7.2128 10.88939,-9.00456c2.91429,-1.84989 6.33073,-1.92606 6.33073,-1.92606l5.39376,3.3818c0,0 -4.30057,-1.33902 -6.94596,-0.10003c-2.27091,1.06355 -6.537,3.37812 -9.87089,5.8859c-2.42514,1.82419 -4.4374,4.1683 -4.4374,4.1683z" fill="#414041" stroke-width="0"/><path d="M145.51526,155.89628l6.92155,-10.57248l47.75314,9.185c0,0 -3.68796,3.82782 -7.12278,5.16932c-3.37112,1.31665 -13.29869,2.8065 -13.29869,2.8065z" fill="#979395" stroke-width="0"/><path d="M146.51668,154.92503l6.13593,-10.72362l47.75314,9.185c0,0 -3.68796,3.82782 -7.12278,5.16932c-3.37112,1.31665 -13.29869,2.8065 -13.29869,2.8065z" fill="#bdb7ba" stroke-width="0"/><path d="M341.22152,220.22037l-1.74221,-0.85808l17.33415,-0.9172c0,0 -3.88485,1.3479 -6.47463,1.66126c-2.58976,0.31342 -9.1173,0.11392 -9.1173,0.11392z" fill="#887980" stroke-width="0"/><path d="M185.68779,215.6836c0,0 -0.32131,-10.71916 0.11193,-19.33074c0.43541,-8.65362 0.86867,-16.76453 1.5241,-20.28893c0.11104,-0.59711 3.6052,-10.03771 4.19445,-10.45532c3.18071,-2.25424 9.32053,6.81221 14.99293,6.7795c8.39895,-0.04843 27.26058,3.05593 27.26058,3.05593l-9.30463,3.61837c0,0 -19.64069,-0.86012 -22.95959,3.73288c-4.48916,6.21253 -0.99717,28.13954 -0.99717,28.13954z" fill="#d486ae" stroke-width="0"/><path d="M187.46359,212.44174c0,0 1.17869,-41.39404 4.38501,-51.039c1.50021,-4.5128 -0.07386,-14.09037 -0.07386,-14.09037l48.43896,16.41337l-1.63703,16.04966c0,0 -30.88125,-9.08975 -38.30243,-4.12815c-4.95388,3.312 -3.60193,32.33278 -3.60193,32.33278z" fill="#e490bb" stroke-width="0"/><g stroke-width="0"><path d="M335.2943,176.72767l1.563,-8.12592l9.19148,1.76794l-1.563,8.12592z" fill="#454545"/><path d="M336.25606,176.13381l1.02814,-7.23412l11.1223,2.13932l-1.3785,7.16675z" fill="#b0b0b0"/><path d="M336.87756,171.68206l0.31014,-2.8225l11.33504,2.18023l-0.36025,1.87305c0,0 -7.71351,-1.15523 -9.40848,-1.34011c-0.56638,-0.06173 -1.87645,0.10941 -1.87645,0.10941z" fill="#bebebe"/><path d="M347.38071,177.71398c0,0 -4.95827,-3.55591 -3.68973,-7.12826c1.88507,-5.30851 5.84186,-4.06059 5.84186,-4.06059l39.26618,8.91043l-1.90029,9.87953z" fill="#9c989a"/><path d="M349.37937,176.78554c0,0 -1.77732,-3.92525 -1.842,-4.88154c-0.09588,-1.41748 2.42156,-3.9448 2.42156,-3.9448l40.84074,7.8894l-1.8073,7.27826z" fill="#898587"/><path d="M349.25317,176.96315l-0.63491,-2.09704l37.5436,7.22125l-0.36627,1.90445z" fill="#c1bcbf"/><path d="M349.77523,173.60743c0,0 -1.05097,-1.5952 -0.87394,-2.51568c0.16559,-0.86102 1.90419,-2.8407 1.90419,-2.8407l37.97066,7.30339l-1.03022,5.35638z" fill="#0d0d0d"/><path d="M349.62844,174.37076c0,0 -0.9369,-2.18807 -0.75988,-3.10857c0.16559,-0.86102 1.7901,-2.24774 1.7901,-2.24774l37.97068,7.30341l-1.03022,5.35638z" fill="#2e2e2e"/><path d="M344.5298,175.32823c-2.01204,-3.51018 -0.4265,-5.58457 -0.4265,-5.58457c0,0 1.02253,4.38435 2.06628,5.49919c1.23573,1.31984 4.52255,3.34307 4.52255,3.34307l-3.45886,-0.59382c0,0 -2.34931,-2.0461 -2.70338,-2.66384z" fill="#7d7a7c"/><path d="M352.12315,175.16595c0,0 -0.45511,-2.34008 -0.23909,-3.46303c0.18988,-0.98715 1.46683,-2.91996 1.46683,-2.91996l4.73649,0.91102c0,0 -0.86911,2.07722 -1.03304,2.9298c-0.22539,1.17184 -0.19461,3.45314 -0.19461,3.45314z" fill="#555555"/><path d="M360.58472,176.79352c0,0 1.13125,-2.35183 1.34718,-3.47471c0.18988,-0.98715 -0.11951,-2.90831 -0.11951,-2.90831l5.28647,1.01682c0,0 -0.7331,1.60547 -0.89709,2.45811c-0.22539,1.17184 -0.3306,3.92486 -0.3306,3.92486z" fill="#555555"/><path d="M369.74352,178.55513c0,0 1.13125,-2.3518 1.34722,-3.47475c0.18988,-0.98715 -0.11952,-2.9083 -0.11952,-2.9083l5.20786,1.00169c0,0 -0.7331,1.60547 -0.89709,2.45811c-0.22539,1.17184 -0.3306,3.92486 -0.3306,3.92486z" fill="#555555"/><path d="M379.23284,180.38038c0,0 1.23867,-1.96901 1.45464,-3.09203c0.18988,-0.98715 -0.22695,-3.29096 -0.22695,-3.29096l5.05074,0.97148c0,0 0.43859,2.10242 0.27453,2.95508c-0.22539,1.17184 -1.50228,3.42801 -1.50228,3.42801z" fill="#555555"/><path d="M352.95656,169.424l-0.50207,-0.91122l34.92248,6.71712l-1.65776,0.49578c0,0 -2.77913,-0.53455 -5.19706,-0.99958c-0.52703,-0.10141 -1.46225,-0.61604 -2.25165,-0.76789c-0.76327,-0.14684 -1.37327,0.07061 -2.32204,-0.11183c-1.47961,-0.2846 -3.14891,-0.60567 -4.89658,-0.94181c-0.72456,-0.13936 -1.28251,-0.63726 -2.02609,-0.78028c-0.6612,-0.12715 -1.50673,0.10078 -2.17095,-0.02699c-1.64865,-0.31712 -3.28102,-0.63111 -4.81585,-0.92632c-0.70481,-0.13555 -1.30614,-0.69763 -1.96191,-0.82378c-0.80048,-0.15399 -1.64138,0.13068 -2.34274,-0.00423c-2.86103,-0.55026 -4.7779,-0.91898 -4.7779,-0.91898z" fill="#474747"/></g><g><path d="M195.72155,207.48338l4.19184,-2.11375c0,0 2.24239,3.2978 4.85638,4.71199c2.31198,1.25074 10.03292,3.34303 10.03292,3.34303l-3.42971,3.77443z" fill="#6d6a6b" stroke-width="0"/><path d="M186.57987,212.34439l10.46022,-5.5086c0,0 2.7503,2.82691 4.75502,3.88651c3.03281,1.60303 11.67132,4.79587 11.67132,4.79587l-5.01435,3.42181z" fill="#615e5f" stroke-width="0"/><path d="M184.39341,234.29387l2.80701,-22.44692c0,0 4.12622,1.60012 8.85513,2.53985c3.6911,0.73351 7.82607,0.66619 10.15017,1.73272c4.08015,1.87232 34.66901,20.3381 34.66901,20.3381l0.51204,10.45982z" fill="#575455" stroke-width="0"/><path d="M210.70396,211.81698c7.8597,-4.15543 18.32471,-15.84121 20.04614,-18.12867c1.24014,-1.64793 2.91181,-6.69912 2.91181,-6.69912l6.27783,8.14721c0,0 1.87307,21.23272 0.64366,33.87482c-0.34398,3.53738 1.38298,7.88707 -0.05887,9.10313c-1.29192,1.08948 -18.38042,0.13452 -23.53305,-1.63539c-10.84367,-3.72462 -17.05831,-2.07929 -19.73921,-7.96703c-2.68089,-5.88769 5.47638,-10.70389 5.47638,-10.70389c0,0 5.92928,-4.90922 7.97547,-5.99107z" fill="#504e4f" stroke-width="0"/><path d="M221.62318,180.49028c0,0 0.67064,-1.39112 1.63758,-1.88086c1.24354,-0.62978 5.20464,-1.58447 5.20464,-1.58447c0,0 8.80782,3.7994 11.2936,6.81317c2.29349,2.78056 -5.81609,11.69039 -5.81609,11.69039l-0.95775,-5.64384z" fill="#464445" stroke-width="0"/><path d="M235.51902,231.25628c0,0 -10.29872,4.38955 -18.66279,2.95532c-8.06887,-1.3836 -14.22073,-8.56669 -13.84698,-9.94314c0.20246,-0.74581 8.61204,-2.49414 12.82336,-5.9829c4.68128,-3.87809 5.27857,-9.56928 6.98486,-11.28845c4.76346,-4.79932 14.97897,-13.19956 15.07856,-19.33482c0.10443,-6.4342 -10.02848,-10.49514 -10.02848,-10.49514c0,0 4.20719,-1.48369 9.12764,-0.66957c2.09593,0.34682 6.29992,2.56666 7.13384,3.11911c2.73476,1.81148 4.38059,3.79433 4.38059,3.79433c0,0 4.51428,-4.10047 8.11006,-3.724c3.5957,0.37648 21.5259,6.8269 21.5259,6.8269l-18.29752,9.30544z" fill="#555354" stroke-width="0"/><path d="M222.31591,207.5066c0,0 6.59129,-9.80432 12.26306,-14.24791c5.67177,-4.44359 10.27752,-6.7965 13.74628,-6.12928c2.51187,0.48314 4.11362,9.56454 4.11362,9.56454l-16.31155,26.15922c0,0 -14.97729,0.45844 -15.95946,-2.25662c-0.7757,-2.14435 2.14801,-13.08989 2.14801,-13.08989z" fill="#585758" stroke-width="0"/><path d="M239.30892,238.57516c0,0 -1.65696,-6.62328 -0.76576,-9.52944c1.24502,-4.05991 5.05303,-16.21337 5.05303,-16.21337l-0.04968,10.61745c0,0 -2.47004,9.45109 -2.91209,12.45146c-0.42643,2.8949 0.5613,5.29508 0.5613,5.29508z" fill="#3f3e3f" stroke-width="0"/><path d="M241.77139,220.85615c0.1244,-1.68158 1.84296,-9.20327 1.84296,-9.20327c0,0 12.13773,-12.50036 14.69848,-14.70953c0.75073,-0.64763 4.37295,-1.71358 4.37295,-1.71358l-2.53345,4.45559c0,0 -1.65961,0.29584 -1.9264,0.73114c-0.28428,0.46376 0.26975,1.97132 0.26975,1.97132l-6.63821,7.35872c0,0 -1.81179,0.68062 -2.08319,1.14302c-0.27147,0.46254 0.23604,1.46462 0.23604,1.46462c0,0 -5.47381,8.05232 -6.75722,10.26447c-0.59342,1.02284 -0.63315,2.47408 -0.63315,2.47408c0,0 -0.97285,-2.55494 -0.84838,-4.23645z" fill="#474647" stroke-width="0"/><path d="M232.84214,197.7859l19.12424,12.06474c0,0 -1.35877,0.76952 -1.69345,1.25409c-0.24699,0.35757 -0.13287,1.38979 -0.13287,1.38979z" fill="#3f3e3e" stroke-width="NaN"/><path d="M240.68961,188.75259l19.69306,10.97602c0,0 -1.25422,0.61755 -1.56654,1.124c-0.32556,0.52796 -0.16656,1.65756 -0.16656,1.65756z" fill="#3f3e3e" stroke-width="NaN"/><path d="M223.05638,214.56667c0,0 9.04688,9.57412 13.69018,16.5544c4.64323,6.9803 2.50953,7.79881 2.50953,7.79881z" fill="#636162" stroke-width="NaN"/><path d="M240.45896,194.43475c0,0 -6.44115,1.71838 -9.72576,4.23927c-3.28466,2.52087 -14.52528,16.83837 -13.96891,13.94592c0.55636,-2.8925 17.35571,-20.76222 19.11836,-20.42319c0.66723,0.12835 3.86455,-0.41989 4.62343,-0.03209c1.24578,0.63664 -0.04711,2.27009 -0.04711,2.27009z" fill="#918f91" stroke-width="0"/><path d="M183.96984,234.08067l14.04851,0.77921c0,0 12.43195,2.05283 15.48286,2.79758c7.42992,1.81362 29.25867,8.12376 29.25867,8.12376l-1.63288,6.12286c0,0 -24.59591,-1.10004 -31.11774,-3.69425c-1.88674,-0.7505 -7.48195,-2.45607 -11.40574,-4.58774c-7.67859,-4.17162 -14.63369,-9.54136 -14.63369,-9.54136z" fill="#626061" stroke-width="0"/><path d="M240.20659,251.36873c0,0 0.85052,-4.20769 0.85162,-6.59027c0.00125,-2.67789 -0.84459,-8.69485 -0.84459,-8.69485l1.75026,0.33665c0,0 0.84637,4.70129 0.84534,7.12555c-0.00124,2.6506 -0.85232,8.15953 -0.85232,8.15953z" fill="#4a494a" stroke-width="0"/><path d="M239.85693,252.1531l0.72835,-3.31933c0,0 0.50656,0.36701 0.77316,0.41831c0.31678,0.06097 0.9625,-0.08441 0.9625,-0.08441l-0.42939,3.1522c0,0 -0.83958,0.25356 -1.21027,0.22325c-0.28408,-0.02324 -0.82431,-0.38996 -0.82431,-0.38996z" fill="#363536" stroke-width="0"/><path d="M240.29007,237.14248l-0.07278,-1.66433c0,0 0.47683,-0.26918 0.84981,-0.25778c0.35526,0.01092 0.84507,0.23015 0.84507,0.23015l0.16464,1.7999c0,0 -0.569,0.40727 -0.87506,0.38878c-0.28837,-0.01741 -0.91164,-0.49669 -0.91164,-0.49669z" fill="#585758" stroke-width="0"/><path d="M199.19334,243.04102c0,0 -7.19533,-4.39093 -6.93786,-5.72946c0.25874,-1.34511 6.60479,-1.31679 6.60479,-1.31679c0,0 10.79236,1.83065 15.62756,2.93647c2.70691,0.61907 10.91381,3.13345 10.91381,3.13345c0,0 6.96144,2.41253 7.54432,3.69748c0.63581,1.40159 -3.69553,3.46219 -3.69553,3.46219c0,0 -12.7415,-1.12079 -16.59566,-2.07409c-1.36911,-0.3387 -13.46146,-4.10919 -13.46146,-4.10919z" fill="#6b696a" stroke-width="0"/><path d="M190.30078,234.30259l-1.96998,-0.14386c0,0 1.26388,-3.25452 3.70028,-1.52095c2.43639,1.73359 21.25991,4.32426 21.25991,4.32426z" fill="#4b4949" stroke-width="0"/><path d="M184.06871,233.95301c0,0 -1.99805,-0.18922 -1.83542,-3.86746c0.0823,-1.8619 1.05428,-16.12725 1.05428,-16.12725l4.21629,-2.14124c0,0 -0.46258,6.01461 -0.80832,8.90354c-0.45985,3.84227 -1.72031,13.4067 -1.72031,13.4067z" fill="#3f3d3e" stroke-width="0"/><path d="M190.58548,234.52624c0,0 3.54284,-1.51625 19.37383,1.18543c1.30733,0.22313 -1.7568,-0.37053 7.3779,1.9031c9.13474,2.27358 12.68687,4.49724 12.68687,4.49724c0,0 -14.59297,-3.89586 -20.68417,-5.06745c-6.9432,-1.33546 -18.75448,-2.51834 -18.75448,-2.51834z" fill="#838082" stroke-width="0"/><path d="M201.14219,206.38148c0,0 -4.70509,1.32255 -7.14614,2.49819c-2.74369,1.3214 -8.51432,5.04422 -8.51432,5.04422l-0.46787,-1.72096c0,0 4.42274,-3.0736 6.90656,-4.26988c2.71564,-1.30789 8.75392,-3.27253 8.75392,-3.27253z" fill="#4a494a" stroke-width="0"/><path d="M202.10805,206.30473l-3.81436,0.97772c0,0 0.21676,-0.61659 0.14549,-0.87868c-0.08469,-0.31149 -0.53345,-0.81324 -0.53345,-0.81324l3.42831,-1.17533c0,0 0.64964,0.62054 0.79064,0.96489c0.10811,0.26385 -0.01668,0.92479 -0.01668,0.92479z" fill="url(#color-3)" stroke-width="0"/><path d="M186.53075,213.3331l-3.4135,2.12326l0.271,-2.17053l2.42329,-1.59315c0,0 0.68146,0.30432 0.8046,0.58541c0.11611,0.26481 -0.08547,1.05505 -0.08547,1.05505z" fill="url(#color-4)" stroke-width="0"/></g><path d="M318.78834,214.35682c0,0 1.7453,-4.16399 2.50195,-5.43305c0.51369,-0.86147 3.1147,-1.81907 3.1147,-1.81907l16.75427,3.00038c0,0 -2.34926,5.45214 -2.98152,6.72188c-0.27701,0.55621 -1.45462,1.03501 -1.45462,1.03501z" fill="#665b60" stroke-width="0"/><path d="M274.49757,187.24656c0,0 -3.43081,-2.25098 -8.05293,-4.31343c-2.93829,-1.31108 -7.02438,-2.67418 -8.87187,-2.92179c-5.37126,-0.71997 -8.80913,3.81724 -8.80913,3.81724c0,0 -2.77697,-2.89233 -4.68521,-4.12977c-1.78132,-1.15506 -5.86696,-2.96021 -5.86696,-2.96021c0,0 25.07904,-0.36079 28.97044,-0.2031c7.46012,0.30238 33.58719,5.72631 33.58719,5.72631l3.4136,15.20413z" fill="#8b7c84" stroke-width="0"/><g stroke-width="0"><path d="M320.39488,213.7058c0,0 0.95341,-2.46042 1.52542,-3.2616c0.59302,-0.83068 2.9363,-1.45171 2.9363,-1.45171l14.26849,2.7444c0,0 0.19366,1.03822 -0.17679,1.71828c-0.50374,0.92461 -3.74926,3.09813 -3.74926,3.09813z" fill="#585852"/><path d="M320.53566,212.97387c0,0 0.81261,-1.72855 1.38466,-2.52968c0.59302,-0.83068 3.07709,-2.18366 3.07709,-2.18366l14.26849,2.74441c0,0 0.05295,1.7702 -0.31759,2.45023c-0.50374,0.92461 -3.60847,2.36608 -3.60847,2.36608z" fill="#797971"/><path d="M337.43984,211.15844c-0.9964,-0.37287 -12.3585,-2.83464 -12.3585,-2.83464l14.24896,2.74069l-0.46501,2.41754c0,0 -0.4291,-1.95069 -1.42552,-2.32362z" fill="#85857b"/></g><path d="M325.23204,196.13505l0.98025,-5.0963l7.00754,1.34784l0.29385,5.34141z" fill="#7c6e75" stroke-width="0"/><path d="M319.98654,168.21821l-2.56566,-8.77379l1.35449,0.26056l4.38101,9.58287z" fill="#d495b6" stroke-width="0"/><path d="M283.12599,153.35943l13.56468,-0.53722l20.92058,6.68433l2.40246,8.7027z" fill="#df9cbe" stroke-width="0"/><path d="M324.44168,201.10275l0.30634,-1.59261l10.67043,2.05242l0.64925,1.77642z" fill="#7c6e75" stroke-width="0"/><path d="M286.8957,181.50406c0,0 -18.03357,-2.24829 -23.65939,-2.821c-8.51875,-0.86733 -25.72096,-1.80817 -25.72096,-1.80817c0,0 15.59202,-1.52302 29.14269,-0.46051c14.69232,1.15203 58.22425,8.04098 58.22425,8.04098l-1.02169,5.31172z" fill="#75686e" stroke-width="0"/><path d="M278.44527,188.80989l-3.07702,-1.17313c0,0 10.04494,-0.49605 15.14434,1.2616c5.09937,1.75758 13.24389,8.52304 13.24389,8.52304z" fill="#7c6e76" stroke-width="0"/><path d="M233.5866,176.07755c0,0 -28.86671,-21.23097 -28.86952,-25.93635c-0.0025,-4.2742 28.84152,7.93846 29.15436,7.88844c5.47416,-0.87566 77.42598,5.61667 77.42598,5.61667l24.84738,11.69306l51.9201,9.40457l4.61259,14.71148c0,0 -60.6718,-10.47956 -84.0411,-14.80844c-8.11213,-1.50269 -24.51906,-5.31804 -39.76292,-7.08891c-11.7586,-1.36596 -29.94187,-0.4677 -29.94187,-0.4677z" fill="#ee96c3" stroke-width="0"/><path d="M104.41022,164.00455l7.07376,-19.16281c0,0 1.23268,-6.94634 8.78023,-7.8327c9.37422,-1.10081 25.62186,3.84209 27.65524,4.23316c1.56035,0.30016 -14.64274,7.79118 -14.64274,7.79118l-3.8067,19.7912z" fill="#c4b4b3" stroke-width="0"/><g stroke-width="0"><path d="M383.95599,199.18534l0.05447,-15.40996l89.80942,24.16279l-1.83995,5.55947l-47.49229,-4.18866z" fill="#ad6d8e"/><path d="M412.535,190.08321l8.70439,-6.7501l26.69491,2.96656l-6.19225,9.40142z" fill="#8d788b"/><path d="M387.298,186.43956l3.06656,-15.94308l30.94306,12.85401l-5.79371,5.88058z" fill="#857183"/><path d="M429.58044,191.19052l18.29211,-4.90146l26.62786,8.96354l-1.58306,6.71585z" fill="#947e92"/><path d="M383.31891,185.05448l5.25279,-11.98958l1.99946,-2.73535l-2.84526,14.7927z" fill="#756474"/><path d="M385.81941,196.27039l1.57202,-11.99163l42.84562,6.56202l-4.23687,15.53642z" fill="#746373"/><path d="M425.9955,206.3606c0,0 1.56449,-6.12215 2.2969,-8.87758c0.62703,-2.35916 1.83056,-6.65143 1.83056,-6.65143l43.23273,9.24132l0.37741,8.62662z" fill="#867284"/><path d="M383.37194,184.993l4.24423,-0.74265l-1.76874,12.03324z" fill="#6f5e6d"/><path d="M467.43533,193.78405l-18.82614,-7.04639l25.55932,8.61922l-1.02679,3.41295c0,0 -0.01152,-1.60025 -1.06496,-2.52067c-0.70469,-0.61569 -4.6415,-2.46514 -4.6415,-2.46514z" fill="#978195"/><path d="M428.0592,190.23632c0,0 8.48563,-1.89661 11.46957,-2.7016c2.17366,-0.58634 4.78641,-1.68365 4.78641,-1.68365l2.46697,0.58915l-16.12203,4.29634z" fill="#9c859a"/><path d="M413.78456,188.31376c0,0 1.81255,-2.45408 3.3936,-3.52509c1.58101,-1.07093 4.00171,-1.4355 4.00171,-1.4355l-4.97804,5.42546z" fill="#806b7d"/><path d="M449.75094,184.8726l3.17784,-5.22725l14.22124,6.53715l4.29039,7.34254z" fill="#55494f"/><path d="M446.73431,187.14378c0,0 1.21222,-0.57151 1.87296,-1.0399c0.4977,-0.35278 1.43482,-1.58252 1.43482,-1.58252l21.15656,8.14263c0,0 0.75836,0.65195 1.27252,1.08245c0.53738,0.44993 1.88494,1.56148 1.88494,1.56148z" fill="#685960"/><path d="M450.47058,184.10245l2.49476,-4.18955l13.26336,5.93897c0,0 -7.57308,-3.01744 -12.0216,-3.61375c-2.58041,-0.34593 -3.73645,1.86435 -3.73645,1.86435z" fill="#41383c"/></g><path d="M113.43937,125.74105l0.98379,-5.11456c0,0 22.17908,2.9472 43.73119,7.15062c12.84311,2.50485 25.86694,6.63686 32.72973,7.60038c15.47414,2.17242 26.6068,-0.28116 26.6068,-0.28116l-8.23679,9.25393z" fill="#ffa1d1" stroke-width="0"/><path d="M108.27149,138.96047l5.15917,-15.38506c0,0 53.42074,12.37344 71.02993,15.31166c10.43092,1.74049 24.88915,0.69337 24.88915,0.69337l-2.76572,14.37881c0,0 -66.286,-12.7497 -82.26548,-15.82326c-6.57016,-1.26373 -21.12502,27.22478 -21.12502,27.22478z" fill="#ee96c3" stroke-width="0"/><path d="M269.8071,247.92511l11.68105,-11.59832c0,0 12.73522,-13.69838 23.2626,-18.66204c2.6752,-1.26136 7.97769,-1.45991 7.97769,-1.45991c0,0 -8.11397,3.51581 -11.18937,5.76688c-7.26265,5.31606 -31.73186,25.9534 -31.73186,25.9534z" fill="#70646b" stroke-width="0"/><path d="M376.33459,202.38587l-2.78704,-18.86785l1.32583,0.255c0,0 0.84406,5.71418 1.29002,8.73352c0.06356,0.43018 1.1733,1.88714 1.25205,2.41999c0.13644,0.92371 -0.74658,1.00188 -0.59409,2.03428c0.42466,2.87484 0.83901,5.67995 0.83901,5.67995z" fill="#795467" stroke-width="0"/><path d="M207.12346,154.5028c0,0 -9.05574,-8.41426 -7.6756,-11.99292c0.82637,-2.14275 18.86775,-6.77044 18.86775,-6.77044l66.95304,14.58075l-2.19199,2.73126l28.12513,10.75429l-75.52323,12.53589c0,0 0.28323,-5.66217 4.36055,-7.78854c3.96264,-2.06652 19.76925,-4.79507 19.76925,-4.79507c0,0 -33.59221,-6.51112 -40.73556,-7.97336c-2.3832,-0.48782 -11.94943,-1.28187 -11.94943,-1.28187z" fill="#f399c8" stroke-width="0"/><g><path d="M216.18767,137.28956l0.61169,-3.18006l173.37564,33.34779l-0.61169,3.18006z" fill="#584f54" stroke-width="0"/><path d="M384.43609,166.6062l0.51682,-2.68705l3.00027,0.57706l2.13042,3.19626z" fill="#685d63" stroke-width="0"/><g fill="#685d63" stroke-width="0"><g><g><g><path d="M377.84889,165.59289l0.56231,-2.92341l3.81126,0.73304l-0.56231,2.92341z"/><path d="M371.66471,164.40347l0.56231,-2.92341l3.81127,0.73305l-0.56231,2.92341z"/></g><g><path d="M365.71388,163.25884l0.5623,-2.92342l3.81127,0.73305l-0.56231,2.92341z"/><path d="M359.52968,162.06936l0.56231,-2.92341l3.81126,0.73305l-0.5623,2.92342z"/></g></g><g><g><path d="M353.46222,160.90235l0.5623,-2.92342l3.81126,0.73305l-0.56231,2.92341z"/><path d="M347.278,159.71285l0.56231,-2.92341l3.81126,0.73304l-0.5623,2.92342z"/></g><g><path d="M341.32717,158.5682l0.56231,-2.92341l3.81126,0.73305l-0.56231,2.92341z"/><path d="M335.14308,157.37874l0.56231,-2.92341l3.81124,0.73306l-0.5623,2.92342z"/></g></g></g><g><g><g><path d="M334.90972,157.33384l0.56231,-2.92341l3.81126,0.73305l-0.56231,2.92341z"/><path d="M328.72557,156.14438l0.56231,-2.92341l3.81127,0.73305l-0.56231,2.92341z"/></g><g><path d="M322.77476,154.99976l0.5623,-2.92342l3.81126,0.73305l-0.56231,2.92341z"/><path d="M316.59052,153.81025l0.56231,-2.92341l3.81124,0.73306l-0.5623,2.92342z"/></g></g><g><g><path d="M310.52309,152.64324l0.5623,-2.92342l3.81127,0.73305l-0.56231,2.92341z"/><path d="M304.33892,151.45372l0.56231,-2.92341l3.81127,0.73305l-0.5623,2.92342z"/></g><g><path d="M298.38811,150.30917l0.56231,-2.92341l3.81126,0.73304l-0.5623,2.92342z"/><path d="M292.20392,149.11965l0.56231,-2.92341l3.81127,0.73305l-0.56231,2.92341z"/></g></g></g></g><g><g fill="#685d63" stroke-width="0"><g><g><path d="M286.09675,147.94495l0.5623,-2.92342l3.81127,0.73305l-0.56231,2.92341z"/><path d="M279.91261,146.75546l0.56231,-2.92341l3.81127,0.73305l-0.5623,2.92342z"/></g><g><path d="M273.96176,145.61093l0.56231,-2.92341l3.81127,0.73305l-0.5623,2.92342z"/><path d="M267.77765,144.42141l0.56231,-2.92341l3.81126,0.73304l-0.5623,2.92342z"/></g></g><g><g><path d="M261.71013,143.25432l0.5623,-2.92342l3.81127,0.73305l-0.56231,2.92341z"/><path d="M255.52592,142.06481l0.56231,-2.92341l3.81127,0.73305l-0.5623,2.92342z"/></g><g><path d="M249.57508,140.9203l0.56231,-2.92341l3.81127,0.73305l-0.5623,2.92342z"/><path d="M243.3909,139.7308l0.56231,-2.92341l3.81126,0.73304l-0.56231,2.92341z"/></g></g></g><g><g fill="#685d63" stroke-width="0"><g><path d="M243.1576,139.68589l0.5623,-2.92342l3.81127,0.73305l-0.56231,2.92341z"/><path d="M236.97341,138.49638l0.56231,-2.92341l3.81126,0.73304l-0.5623,2.92342z"/></g><g><path d="M231.02262,137.35178l0.56231,-2.92341l3.81126,0.73304l-0.5623,2.92342z"/><path d="M224.83842,136.1623l0.56231,-2.92341l3.81126,0.73304l-0.56231,2.92341z"/></g></g><g fill="none" stroke-width="1" font-family="sans-serif" font-weight="normal" font-size="12" text-anchor="start"><g/><g/></g></g></g><path d="M216.8227,134.36679l3.16413,-2.17787l3.00027,0.57706l-0.51682,2.68705z" data-paper-data="{&quot;index&quot;:null}" fill="#685d63" stroke-width="0"/></g><path d="M266.49767,177.4107l-2.55693,-0.21682c0,0 2.13365,-2.2042 11.7691,-1.49925c7.30511,0.53446 27.74596,3.13063 39.97554,4.7235c5.67912,0.73969 62.86416,2.57194 62.86416,2.57194l5.10792,0.96793c0,0 -62.61539,-1.20383 -68.28596,-1.96553c-12.53919,-1.68432 -33.62969,-4.48108 -39.77692,-5.07433c-3.34626,-0.32294 -9.09693,0.49268 -9.09693,0.49268z" fill="#70475c" stroke-width="0"/><path d="M361.99772,215.15599l-5.1838,0.88255l3.57649,-18.5905c0,0 7.64208,1.51921 15.11586,3.00492c21.45506,4.26512 124.56944,24.76355 124.56944,24.76355l-1.27063,6.60617z" fill="#5a5959" stroke-width="0"/><path d="M360.79151,216.58227l1.63906,-2.74588l136.40705,17.8811l-13.73089,8.77605z" fill="#4b4a4a" stroke-width="0"/><path d="M481.91586,239.68722c0,0 -5.19085,-4.2823 -7.89898,-6.25748c-1.45133,-1.05852 -7.08682,-4.67231 -7.08682,-4.67231c0,0 7.30897,4.36278 10.41431,5.92542c1.10825,0.55775 2.07137,1.49934 3.25214,2.26426c0.38076,0.24661 2.6925,-2.11845 4.88111,-3.44329c0.65415,-0.396 1.72464,0.18112 2.30306,-0.04447c1.32597,-0.5172 1.88469,-1.5212 1.88469,-1.5212c0,0 0.15583,0.9766 -1.27047,1.93826c-0.38912,0.26242 -2.22615,0.26785 -2.61384,0.56024c-1.55364,1.17192 -2.83944,2.55302 -3.25068,3.07591c-1.14778,1.45932 0.82256,2.45093 0.82256,2.45093z" fill="#414040" stroke-width="0"/><path d="M207.01921,154.78559l5.84288,-10.17841l6.99792,0.71026c0,0 -1.43375,2.42099 -2.2787,3.84781c-0.21285,0.35935 11.73849,0.66613 11.95741,1.39154c0.40619,1.34595 -5.77573,3.98566 -6.30717,4.88301c-0.60757,1.02587 -9.23011,-0.22954 -9.23011,-0.22954z" fill="#303030" stroke-width="0"/><path d="M206.94814,154.39508l5.58253,-9.37803c0,0 2.6998,1.84783 2.51374,2.81501c-0.3385,1.75993 -2.9822,7.14462 -2.9822,7.14462z" fill="#252525" stroke-width="0"/><path d="M356.29449,218.64302l0.55765,-2.89922l5.98204,-1.85593l-1.77349,2.66538c0,0 -1.32295,1.10526 -2.16122,1.47281c-0.73761,0.32343 -2.60497,0.61692 -2.60497,0.61692z" fill="#383838" stroke-width="0"/><g><g fill="#4b4b4b" stroke-width="0"><g data-paper-data="{&quot;origPos&quot;:null}"><g data-paper-data="{&quot;origPos&quot;:null}"><path d="M421.96826,232.67107l0.42926,-2.23183l3.68251,0.70831l-0.42926,2.23183z" data-paper-data="{&quot;origPos&quot;:null}"/><path d="M415.85221,231.37897l0.42926,-2.23183l3.6825,0.70831l-0.42927,2.23183z" data-paper-data="{&quot;origPos&quot;:null}"/></g><g data-paper-data="{&quot;origPos&quot;:null}"><path d="M434.22177,235.14372l0.42926,-2.23183l3.68251,0.70831l-0.42927,2.23183z" data-paper-data="{&quot;origPos&quot;:null}"/><path d="M428.10571,233.8516l0.42927,-2.23183l3.6825,0.70831l-0.42926,2.23183z" data-paper-data="{&quot;origPos&quot;:null}"/></g></g><g data-paper-data="{&quot;origPos&quot;:null,&quot;index&quot;:null}"><g data-paper-data="{&quot;origPos&quot;:null}"><path d="M453.12357,238.54794l0.42926,-2.23183l3.68251,0.70831l-0.42927,2.23183z" data-paper-data="{&quot;origPos&quot;:null}"/><path d="M459.28251,239.61681l0.42925,-2.23182l3.68251,0.70831l-0.42925,2.23181z" data-paper-data="{&quot;origPos&quot;:null}"/></g><g data-paper-data="{&quot;origPos&quot;:null}"><path d="M440.82714,236.29849l0.42926,-2.23183l3.6825,0.70831l-0.42925,2.23182z" data-paper-data="{&quot;origPos&quot;:null}"/><path d="M446.9861,237.36744l0.42927,-2.23183l3.68251,0.70831l-0.42927,2.23183z" data-paper-data="{&quot;origPos&quot;:null}"/></g></g></g><path d="M381.57282,216.50497l2.5709,-13.36616l82.95349,15.95558l-2.5709,13.36616z" data-paper-data="{&quot;origPos&quot;:null}" fill="#444444" stroke-width="0"/><path d="M380.77763,221.16082l0.90335,-4.69635l82.70965,15.90867l-0.90337,4.69636z" data-paper-data="{&quot;origPos&quot;:null}" fill="#414141" stroke-width="0"/><path d="M380.54282,222.566l0.30556,-1.58854l82.69915,15.90665l-0.30555,1.58853z" data-paper-data="{&quot;origPos&quot;:null}" fill="#3f3f3f" stroke-width="0"/><g stroke-width="0"><g data-paper-data="{&quot;origPos&quot;:null}" fill="#5a5a5a"><g data-paper-data="{&quot;origPos&quot;:null}"><path d="M424.05062,224.75619l2.59712,-13.50248l3.5071,0.67458l-2.59712,13.50248z" data-paper-data="{&quot;origPos&quot;:null}"/></g><g data-paper-data="{&quot;origPos&quot;:null}"><path d="M430.01277,225.90298l2.59712,-13.50248l3.50712,0.67459l-2.59712,13.50248z" data-paper-data="{&quot;origPos&quot;:null}"/><path d="M436.15026,227.08348l2.59713,-13.5025l3.5071,0.67458l-2.59712,13.50248z" data-paper-data="{&quot;origPos&quot;:null}"/></g></g><g data-paper-data="{&quot;origPos&quot;:null}" fill="#5a5a5a"><g data-paper-data="{&quot;origPos&quot;:null}"><path d="M442.63848,228.33147l2.59712,-13.50248l3.5071,0.67458l-2.59712,13.50249z" data-paper-data="{&quot;origPos&quot;:null}"/><path d="M448.77598,229.51198l2.59712,-13.50248l3.50712,0.67459l-2.59713,13.5025z" data-paper-data="{&quot;origPos&quot;:null}"/></g><g data-paper-data="{&quot;origPos&quot;:null}"><path d="M454.7381,230.65872l2.59713,-13.5025l3.5071,0.67458l-2.59713,13.5025z" data-paper-data="{&quot;origPos&quot;:null}"/><path d="M460.87562,231.83925l2.59713,-13.5025l3.5071,0.67458l-2.59712,13.50248z" data-paper-data="{&quot;origPos&quot;:null}"/></g></g><path d="M427.61801,225.44237l-1.22772,1.73023l-5.15516,-0.94769l1.71354,-9.64648l3.64128,-5.33597l-2.52942,13.51553z" fill="#3a3a3a"/><path d="M433.57772,226.58867l-1.22772,1.73024l-5.15517,-0.94769l1.71355,-9.64649l3.64128,-5.33595l-2.52941,13.51552z" fill="#3a3a3a"/><path d="M439.67289,227.76107l-1.22772,1.73024l-5.15517,-0.94768l1.71354,-9.64648l3.64128,-5.33595l-2.52942,13.51553z" fill="#3a3a3a"/><path d="M446.24216,229.02461l-1.22772,1.73024l-5.15517,-0.94768l1.71354,-9.64648l3.64128,-5.33595l-2.52942,13.51553z" fill="#3a3a3a"/><path d="M452.40509,230.21003l-1.22772,1.73024l-5.15517,-0.94768l1.71354,-9.64648l3.64128,-5.33595l-2.52941,13.51552z" fill="#3a3a3a"/><path d="M458.29706,231.34327l-1.22772,1.73023l-5.15516,-0.94769l1.71354,-9.64648l3.64128,-5.33595l-2.52942,13.51553z" fill="#3a3a3a"/><path d="M464.46772,232.53015l-1.22772,1.73023l-5.15517,-0.94768l1.71355,-9.64649l3.64128,-5.33597l-2.52942,13.51553z" fill="#3a3a3a"/></g><g stroke-width="0"><g data-paper-data="{&quot;origPos&quot;:null}" fill="#5a5a5a"><g data-paper-data="{&quot;origPos&quot;:null}"><path d="M381.59968,216.591l2.59713,-13.5025l3.50712,0.67459l-2.59712,13.50248z" data-paper-data="{&quot;origPos&quot;:null}"/></g><g data-paper-data="{&quot;origPos&quot;:null}"><path d="M387.56178,217.73785l2.59712,-13.50248l3.5071,0.67458l-2.59712,13.50248z" data-paper-data="{&quot;origPos&quot;:null}"/><path d="M393.69931,218.91833l2.59712,-13.50248l3.50712,0.67459l-2.59713,13.5025z" data-paper-data="{&quot;origPos&quot;:null}"/></g></g><g data-paper-data="{&quot;origPos&quot;:null}" fill="#5a5a5a"><g data-paper-data="{&quot;origPos&quot;:null}"><path d="M400.18752,220.16624l2.59713,-13.5025l3.50711,0.67459l-2.59712,13.50248z" data-paper-data="{&quot;origPos&quot;:null}"/><path d="M406.32509,221.34678l2.59712,-13.50248l3.50712,0.67459l-2.59713,13.5025z" data-paper-data="{&quot;origPos&quot;:null}"/></g><g data-paper-data="{&quot;origPos&quot;:null}"><path d="M412.28725,222.49357l2.59712,-13.50248l3.50712,0.67459l-2.59713,13.5025z" data-paper-data="{&quot;origPos&quot;:null}"/><path d="M418.42475,223.67413l2.59713,-13.5025l3.50712,0.67459l-2.59712,13.50249z" data-paper-data="{&quot;origPos&quot;:null}"/></g></g><path d="M385.167,217.27719l-1.22772,1.73024l-2.68878,-0.47331l0.35901,-1.94127z" fill="#3a3a3a"/><path d="M391.12681,218.42352l-1.22772,1.73024l-5.15517,-0.94768l1.71355,-9.64649l3.64128,-5.33595l-2.52942,13.51553z" fill="#3a3a3a"/><path d="M397.22193,219.59584l-1.22772,1.73023l-5.15517,-0.94768l1.71354,-9.64648l3.64128,-5.33597l-2.52942,13.51553z" fill="#3a3a3a"/><path d="M403.79116,220.85935l-1.22772,1.73023l-5.15517,-0.94768l1.71355,-9.64649l3.64128,-5.33595l-2.52942,13.51553z" fill="#3a3a3a"/><path d="M409.95415,222.04482l-1.22772,1.73023l-5.15516,-0.94769l1.71354,-9.64648l3.64128,-5.33595l-2.52942,13.51553z" fill="#3a3a3a"/><path d="M415.8461,223.17811l-1.22772,1.73023l-5.15516,-0.94769l1.71354,-9.64648l3.64128,-5.33597l-2.52942,13.51553z" fill="#3a3a3a"/><path d="M422.01681,224.36506l-1.22772,1.73024l-5.15516,-0.94769l1.71354,-9.64648l3.64128,-5.33595l-2.52942,13.51553z" fill="#3a3a3a"/></g><g><g data-paper-data="{&quot;origPos&quot;:null}"><g data-paper-data="{&quot;origPos&quot;:null}" fill="none" stroke-width="1" font-family="sans-serif" font-weight="normal" font-size="12" text-anchor="start"/><g data-paper-data="{&quot;origPos&quot;:null}" fill="#4b4b4b" stroke-width="0"><path d="M386.34873,226.01397l0.42926,-2.23183l3.6825,0.70831l-0.42925,2.23182z" data-paper-data="{&quot;origPos&quot;:null}"/><path d="M380.23266,224.72191l0.42926,-2.23183l3.6825,0.70831l-0.42926,2.23183z" data-paper-data="{&quot;origPos&quot;:null}"/></g></g><g data-paper-data="{&quot;origPos&quot;:null,&quot;index&quot;:null}" fill="#4b4b4b" stroke-width="0"><g data-paper-data="{&quot;origPos&quot;:null}"><path d="M405.25057,229.41813l0.42927,-2.23183l3.68251,0.70831l-0.42927,2.23183z" data-paper-data="{&quot;origPos&quot;:null}"/><path d="M411.40949,230.48706l0.42925,-2.23181l3.68251,0.70831l-0.42927,2.23183z" data-paper-data="{&quot;origPos&quot;:null}"/></g><g data-paper-data="{&quot;origPos&quot;:null}"><path d="M392.95396,227.16871l0.42926,-2.23183l3.68251,0.70831l-0.42927,2.23183z" data-paper-data="{&quot;origPos&quot;:null}"/><path d="M399.11298,228.23759l0.42926,-2.23183l3.68251,0.70831l-0.42926,2.23183z" data-paper-data="{&quot;origPos&quot;:null}"/></g></g></g></g><path d="M219.77209,155.61535l1.8171,-3.94287c0,0 5.12253,-2.21993 8.61847,-1.70022c3.99653,0.59408 33.42127,6.27916 33.42127,6.27916c0,0 0.2958,1.967 0.01397,3.15231c-0.36318,1.52714 -3.02001,4.13688 -3.02001,4.13688z" fill="#242424" stroke-width="0"/><path d="M244.92961,156.57436l0.59503,-3.09361l17.67777,3.40018l-0.59503,3.09361z" fill="#313131" stroke-width="0"/><path d="M241.33045,157.84813l0.12318,-0.64054c0,0 1.24714,-0.83052 2.25187,-0.63729c0.954,0.18352 3.01289,1.06314 5.3898,1.68669c4.52795,1.18784 10.03589,2.35077 10.03589,2.35077l-0.12318,0.64054c0,0 -5.33018,-1.02726 -9.79431,-2.20234c-2.43578,-0.64116 -4.55571,-1.62829 -5.54535,-1.81863c-1.04024,-0.20008 -2.33783,0.62074 -2.33783,0.62074z" fill="#616161" stroke-width="0"/><path d="M270.94269,147.54496l11.89309,5.36965l29.29258,11.03965c0,0 0.67762,0.35867 -7.13765,-1.88619c-2.65862,-0.76363 -12.80155,-4.35312 -21.49895,-7.96368c-2.35338,-0.97698 -14.79757,-6.87445 -14.79757,-6.87445z" fill="#df8cb7" stroke-width="0"/><path d="M91.91814,119.56311l1.12065,-5.8263c0,0 5.99735,-0.63151 9.7327,0.08696c3.05799,0.58816 10.72555,5.63324 10.72555,5.63324l-2.45011,12.02442z" fill="#626061" stroke-width="0"/><path d="M204.00251,151.29065l3.25464,3.17797l12.27663,1.01388l49.83153,9.58483l-0.20602,1.07138c0,0 -37.35354,-7.33264 -49.09229,-9.32347c-3.22285,-0.54658 -12.88379,-1.67077 -12.88379,-1.67077z" fill="#ffa6d4" stroke-width="0"/><path d="M77.01235,181.79825l1.3542,-7.04052l26.14711,-11.90585l-4.16014,13.1193l-15.53543,7.32852z" fill="#3f3d3e" stroke-width="0"/><path d="M76.36737,176.52122c0,0 3.8961,-19.26268 6.49737,-28.52134c2.93594,-10.44981 10.23617,-31.03763 10.23617,-31.03763c0,0 8.49528,1.44121 11.70196,3.73397c2.74453,1.9623 6.36845,9.18619 6.36845,9.18619l-6.33727,32.94761c0,0 -14.23068,11.21203 -17.6475,12.85536c-5.25559,2.52772 -10.81916,0.83585 -10.81916,0.83585z" fill="#555354" stroke-width="0"/><path d="M90.95102,127.34146c0,0 -0.38047,-6.17594 2.15792,-8.43435c2.53839,-2.25844 7.00175,-2.43548 9.51596,-1.95188c2.00569,0.38579 6.14141,1.26141 8.12086,6.18243c1.97956,4.92097 -1.16536,11.1084 -1.16536,11.1084c0,0 -4.22132,-11.40632 -6.65133,-12.30697c-3.42899,-1.27085 -11.97806,5.40243 -11.97806,5.40243z" fill="#6f6b6c" stroke-width="0"/><path d="M74.02028,181.03095c0,0 6.60645,-25.26956 8.76794,-36.5074c2.25104,-11.70327 5.95394,-32.08925 5.95394,-32.08925c0,0 1.25681,-0.41302 2.27892,-0.21638c0.93456,0.17975 2.35181,1.1071 2.35181,1.1071c0,0 -3.8286,18.76995 -5.84856,29.27227c-2.34697,12.2018 -10.13599,39.08141 -10.13599,39.08141z" fill="#333232" stroke-width="0"/><path d="M73.51347,181.38526l3.85261,-14.2368c0,0 0.86831,1.07217 1.46421,1.14745c0.75248,0.09507 2.67085,-0.99987 2.67085,-0.99987l-4.09001,14.83894z" fill="#2e2d2d" stroke-width="0"/><path d="M105.66071,150.64407c-1.54217,8.01764 -7.22933,15.75061 -12.06898,17.80082c-4.01945,1.7028 -12.65956,6.92264 -11.11739,-1.09499c0.32715,-1.70089 4.57824,-12.98034 6.03219,-19.85938c1.92278,-9.09738 1.2475,-14.29948 2.72289,-16.89924c2.66785,-4.70073 8.37113,-5.11036 10.54581,-4.69205c4.2867,0.82453 5.42769,16.72724 3.88551,24.7449z" fill="#585758" stroke-width="0"/><path d="M136.84209,170.98277l-0.25311,-1.82135c0,0 8.0519,0.17343 14.053,0.83466c8.4482,0.93088 31.8549,4.22384 31.8549,4.22384l1.52164,1.59737c0,0 -24.96471,-3.15173 -33.66663,-4.04349c-2.55562,-0.2619 -13.50977,-0.79105 -13.50977,-0.79105z" fill="#585657" stroke-width="0"/><path d="M128.56449,182.83312l7.68237,-12.46467l7.29149,0.43437c0,0 -2.52152,3.90755 -2.57945,4.66544c-0.27665,3.62126 -1.86063,27.72292 -1.86063,27.72292c0,0 -1.53405,0.15341 -2.3478,-1.91304c-1.46005,-3.70782 -1.96641,-10.79299 -3.28981,-13.18873c-1.1434,-2.06992 -4.89629,-5.25627 -4.89629,-5.25627z" fill="#5a5759" stroke-width="0"/><path d="M146.68669,154.95013l4.97758,-10.5836l2.3123,0.33158l-6.11065,10.59206z" fill="#a5a0a2" stroke-width="0"/><path d="M153.55882,155.16858l0.26496,-1.37746l26.0193,5.00463l-0.26495,1.37746z" fill="#494748" stroke-width="0"/><path d="M154.0409,152.23554l0.26496,-1.37746l26.0193,5.00463l-0.26496,1.37746z" fill="#494748" stroke-width="0"/><path d="M130.72486,170.56928l3.80375,-19.77583l13.84324,-7.12989l4.81626,0.60894l-24.06949,38.96867l-5.13183,-3.02718z" fill="#dbd5d8" stroke-width="0"/><path d="M102.45283,177.26417l2.07202,-11.60844l26.32385,4.25927c0,0 -0.15501,2.55444 -0.43366,3.314c-0.69458,1.89337 -3.9762,8.32714 -3.9762,8.32714z" fill="#ccc6c9" stroke-width="0"/><path d="M108.3259,166.79463l0.05965,-0.31012l22.57031,3.4569l-2.78222,0.67086c0,0 -4.279,-0.63345 -6.93297,-1.17624c-3.63398,-0.74325 -12.91484,-2.64137 -12.91484,-2.64137z" fill="#d8d1d5" stroke-width="0"/><path d="M112.48393,163.78908l3.211,-16.69395l15.83476,3.04572l-3.211,16.69395z" fill="#a39999" stroke-width="0"/><path d="M102.14922,177.37865l2.14558,-11.15488c0,0 7.47151,7.94085 11.2389,11.04893c3.76741,3.10818 10.2045,4.06115 10.2045,4.06115z" fill="#b4afb1" stroke-width="0"/><path d="M134.04551,189.66715c0,0 2.77838,1.59396 3.88191,1.65989c0.67791,0.04046 2.10956,-1.30223 2.10956,-1.30223l-0.08512,9.22314l-0.79237,4.11962c0,0 -1.96688,-0.06117 -2.73515,-2.8389c-0.63385,-2.2918 -2.37895,-10.8615 -2.37895,-10.8615z" fill="#504e4f" stroke-width="0"/><path d="M128.7584,183.43694l22.08582,-38.26063l1.67348,0.53078l-22.06262,38.68294z" fill="#858183" stroke-width="0"/><path d="M119.92325,140.23446l1.7992,-1.33472c0,0 27.04376,4.54598 39.23067,6.89008c10.57741,2.03453 31.30327,6.38045 31.30327,6.38045l0.15328,2.00645c0,0 -20.78061,-4.71598 -31.92984,-6.86039c-12.73104,-2.4487 -40.55656,-7.08188 -40.55656,-7.08188z" fill="#918b8e" stroke-width="0"/><path d="M121.15568,139.21824l2.35413,-1.52417c0,0 25.48902,4.5432 37.67591,6.88725c10.57742,2.03455 31.30327,6.38045 31.30327,6.38045l0.15328,2.00646c0,0 -20.7806,-4.71597 -31.92984,-6.8604c-12.73104,-2.4487 -39.55674,-6.88964 -39.55674,-6.88964z" fill="#a59fa2" stroke-width="0"/><path d="M180.67525,171.83351l-0.81752,-5.94404c0,0 0.43546,-1.14334 0.78367,-1.19126c0.30685,-0.04225 1.19758,0.91872 1.19758,0.91872l0.81751,5.94405c0,0 -0.43694,0.80962 -0.74451,0.85198c-0.34793,0.04784 -1.23684,-0.57944 -1.23684,-0.57944z" fill="#494242" stroke-width="0"/><path d="M140.62534,166.82735l5.27073,-8.64577l3.81574,0.73395l-5.27073,8.64577z" fill="#9c989a" stroke-width="0"/><path d="M153.37796,151.17828l2.00023,-0.60096l23.99552,4.63376l1.8023,1.31398z" fill="#757274" stroke-width="0"/><path d="M152.93961,153.95672l2.00021,-0.60098l23.99552,4.63378l1.80231,1.31397z" fill="#757274" stroke-width="0"/><path d="M99.95777,175.95613l12.66112,-56.78846l1.77605,0.93295l-12.20125,57.28544z" fill="#686666" stroke-width="0"/><path d="M99.7463,176.19071l3.71322,-15.8395l1.52861,4.18246l-2.9425,12.98807z" fill="#535252" stroke-width="0"/><path d="M134.25937,159.53513c0,0 2.52881,-1.90201 2.70767,-2.83178c0.17549,-0.91238 -1.64452,-2.69561 -1.64452,-2.69561c0,0 2.82153,1.22466 2.40028,2.86291c-0.32086,1.24784 -1.76596,3.19902 -2.05998,4.26503c-0.83605,3.03108 -2.90003,10.11615 -2.90003,10.11615z" fill="#c4bec1" stroke-width="0"/><path d="M142.15825,159.10774l3.80291,-9.65085l3.3254,-3.79444l-4.41263,8.88466z" fill="#aca7a9" stroke-width="0"/></g></g><g stroke-width="0"><path d="M263.34867,154.07733l3.13778,-2.78671c0,0 2.04618,-1.06906 2.80437,-0.64321c0.86445,0.48556 2.10535,3.40094 2.10535,3.40094l-1.30323,3.90611c0,0 -4.20274,-0.8161 -5.42105,-1.18613c-0.54922,-0.16685 -1.32322,-2.69106 -1.32322,-2.69106z" fill="#c0c0c0"/><path d="M219.3794,155.44817c0,0 0.37071,-2.86146 1.62586,-3.77979c1.57302,-1.15086 7.96131,-2.17485 7.96131,-2.17485l-1.59252,4.51758l-0.55178,2.86866z" fill="#838383"/><path d="M219.22434,155.34262l9.37192,-5.8158l36.88621,7.09482l-1.4131,7.34661z" fill="#999999"/><path d="M220.32936,154.88667l7.15212,-4.57252l33.16436,6.37896l-1.10322,5.73598c0,0 -4.01402,-0.77201 -9.17759,-1.76519c-3.35713,-0.64576 -6.99963,-2.42781 -10.54135,-3.10906c-3.79942,-0.73079 -7.45269,-0.35202 -9.58676,-0.76248c-4.17658,-0.80334 -9.9076,-1.90571 -9.9076,-1.90571z" fill="#d952b3"/><path d="M223.75915,155.54414l9.33322,-4.21626l12.23976,2.35422c0,0 -7.60358,0.47982 -10.10369,0.93026c-2.65424,0.47813 -6.20724,1.94393 -6.20724,1.94393z" fill="#a5899d"/><path d="M231.62578,156.94244c0,0 5.17724,0.00588 7.59009,0.46997c3.08306,0.59298 9.39542,2.79713 9.39542,2.79713l-9.41697,-2.15262z" fill="#adadad"/><path d="M219.33051,155.34448l8.4632,-5.24756l34.33729,6.60457l-0.13004,0.67621c0,0 -29.73185,-5.71873 -33.60736,-6.46421c-0.81062,-0.1559 -9.06295,4.431 -9.06295,4.431z" fill="#8a8a8a"/><path d="M264.47095,170.37712l1.84266,-9.57969l1.99935,-6.94936c0,0 1.07707,0.6857 1.51454,1.34366c0.43751,0.65797 0.60099,1.83796 0.60099,1.83796l-3.98077,13.72774z" fill="#9e9e9e"/><path d="M259.91658,165.19279c0,0 -0.494,-2.25888 -0.32809,-3.84523c0.22342,-2.13619 2.10584,-7.39343 2.10584,-7.39343l1.96794,0.04718c0,0 0.59565,0.92086 1.0931,0.86467c0.6858,-0.07749 2.64139,-1.28658 2.64139,-1.28658l-2.91456,12.49165z" fill="#9c9c9c"/><path d="M260.13442,167.09891c-0.55967,-1.2323 -0.06424,-2.53533 -0.06424,-2.53533l6.1499,-6.14946c0,0 0.635,4.07708 0.46189,4.97703c-0.49215,2.55865 -0.40089,7.41293 -0.40089,7.41293c0,0 -2.94225,-0.48066 -3.87958,-1.10759c-1.12419,-0.75197 -1.70729,-1.36528 -2.26703,-2.59765z" fill="#888888"/><path d="M262.02932,166.67499c-0.59276,-2.15038 -0.74207,-6.72399 1.8368,-10.3693c2.57891,-3.64534 4.54723,-1.09647 4.54723,-1.09647c0,0 0.15297,4.5335 -0.2839,6.80474c-0.39793,2.06894 -2.2314,6.27242 -2.2314,6.27242c0,0 -3.27596,0.53901 -3.86869,-1.61137z" fill="#b4b4b4"/><path d="M267.56968,159.90429c-0.26651,1.38567 -5.29909,0.49649 -5.03263,-0.88915c0.26651,-1.38567 4.2906,-6.11288 5.08834,-5.95942c0.30899,0.05944 0.92201,0.28104 0.91463,1.35979c-0.01173,1.70654 -0.80713,4.63979 -0.97042,5.48878z" fill="#bbbbbb"/></g><g stroke-width="0"><path d="M203.91076,151.25754c0,0 -4.82231,-5.935 -4.46851,-7.77473c0.28894,-1.50212 6.23973,-0.4829 6.23973,-0.4829l7.39585,1.49571l-5.98764,9.82486z" fill="#f399c8"/><path d="M173.62402,147.10386c0,0 -0.55637,-2.24329 -0.10113,-3.24814c0.50238,-1.10888 3.20652,-4.25975 3.20652,-4.25975l22.65853,4.16922l7.33315,10.19171z" fill="#ee96c3"/></g></g><g stroke-width="0"><g><path d="M271.11929,145.76958l1.16758,-6.07048l46.95747,9.03197l-1.16758,6.07048z" fill="#61585b"/><path d="M271.57165,142.55362l0.6253,-3.25078l47.13597,9.06631l-0.62528,3.25079c0,0 -8.48536,-1.63212 -17.20193,-3.30869c-2.72529,-0.52418 -6.8434,0.22875 -9.36163,-0.25566c-2.99451,-0.57599 -5.91947,-2.68361 -7.84028,-3.0531c-5.75972,-1.10786 -12.73213,-2.44899 -12.73213,-2.44899z" fill="#494344"/><path d="M333.53364,147.74537l-5.58925,-20.35507l20.5427,3.95127l11.98245,19.38655c0,0 -5.86451,0.25832 -9.08715,-0.0985c-4.97282,-0.55068 -17.84877,-2.88422 -17.84877,-2.88422z" fill="#5e555b"/><path d="M332.88695,151.11904l1.04613,-5.43881c0,0 12.35154,0.89597 17.30294,1.05443c3.92949,0.12574 6.79462,0.08415 6.79462,0.08415l4.52187,7.93568c0,0 -5.53787,0.5602 -9.69496,0.21267c-5.6326,-0.47089 -19.9705,-3.84813 -19.9705,-3.84813z" fill="url(#color-5)"/><path d="M326.25005,127.22613l0.75478,-3.92423l18.80678,3.61738l2.81615,4.61109z" fill="url(#color-6)"/><path d="M332.30891,151.03325l0.23789,-1.23659c0,0 15.34316,2.87335 20.66435,3.72623c3.9789,0.63775 8.6177,-0.0758 8.6177,-0.0758l0.65669,1.29205l-8.46343,0.47041z" fill="#312c30"/><g><path d="M235.10999,121.54269l1.45081,-8.74168l92.23463,17.74076l5.37209,12.52191z" fill="#8a6672"/><path d="M249.78653,132.80318c0,0 -2.77509,-4.20569 -5.25324,-6.17068c-2.47814,-1.96504 -9.45711,-3.06563 -9.45711,-3.06563l0.50436,-2.02832c0,0 12.04927,2.59905 18.93404,4.02028c16.44689,3.39506 79.32063,16.26202 79.32063,16.26202l2.31757,7.13312z" fill="#755761"/><path d="M252.11323,135.78725l-2.48143,-3.11658l86.10222,16.06289l0.60182,3.25332z" fill="#694e57"/><path d="M236.32418,113.15888l0.85544,-4.44747l89.29997,16.4845l2.71108,6.28644c0,0 2.07509,3.79837 -3.11125,2.77504c-1.63268,-0.32215 -9.95311,-5.35276 -11.58991,-5.67572c-15.76303,-3.11017 -78.16533,-15.42284 -78.16533,-15.42284z" fill="#916b77"/><path d="M237.41711,108.75721l0.36012,-2.50149l88.31662,16.84591l0.57451,2.54663z" fill="#9e7582"/><path d="M310.07946,123.42983c-7.80025,-2.16011 -71.10509,-15.38769 -71.10509,-15.38769l86.27264,16.59398l3.30887,8.21403c0,0 -10.6762,-7.26021 -18.47644,-9.42037z" fill="#b38f9a"/></g><path d="M282.42991,141.61561l1.73279,-9.00865l19.8484,3.81772l-1.7328,9.00866z" fill="#3a3336"/><path d="M284.07566,132.59444l0.99115,-1.3598l18.20474,3.50154l0.67985,1.68113z" fill="#4b4246"/><path d="M282.66187,141.15172l1.54461,-8.03042c0,0 0.04544,5.37111 2.44654,6.9595c2.40116,1.58839 15.30256,4.7819 15.30256,4.7819z" fill="#332c30"/><path d="M327.0632,129.64711l-2.71611,-6.63241c0,0 1.13044,-0.46146 1.72022,-0.34801c0.65935,0.12684 2.05059,1.07328 2.05059,1.07328l2.71611,6.63241z" fill="#757575"/><path d="M329.13497,134.86696l-3.90617,-9.52147l3.77088,0.72531l3.90616,9.52147z" fill="#5a5a5a"/><path d="M332.08538,142.00166l-3.90616,-9.52147l3.77088,0.72532l3.90617,9.52147z" fill="#505050"/><path d="M335.13374,149.39014c-0.66715,-1.62625 -3.27032,-7.97162 -3.27032,-7.97162l3.77088,0.72533l4.54435,11.38988c0,0 -2.11992,0.13755 -3.04951,-0.05633c-0.72513,-0.15124 -1.70115,-3.37021 -1.9953,-4.08729z" fill="#3b3b3b"/><path d="M233.10486,123.80276l3.52736,-18.33859l3.12375,0.60088l-3.52736,18.33859z" fill="#443e42"/><path d="M214.26651,121.80762l0.44627,-5.95084l19.86446,3.82081l-1.11969,5.8213z" fill="url(#color-7)"/><path d="M214.5937,116.47604l2.04879,-10.65175l19.86446,3.82081l-2.0488,10.65176z" fill="#5e555b"/><path d="M216.61863,105.94834l1.57174,-3.93619l19.07883,3.66966l-0.78618,4.08725z" fill="url(#color-8)"/><path d="M286.40275,115.33323l1.15846,-6.02289l14.55038,3.88485l3.64919,5.49937z" fill="#5e555b"/><path d="M305.69354,119.04371l-3.59884,-5.76124c0,0 2.83143,1.24787 4.83103,2.64907c1.99956,1.4012 5.13987,4.33778 5.13987,4.33778z" fill="#776b73"/><path d="M283.21658,115.8971l3.37748,-0.61761l25.18961,4.57352l3.29339,2.17229z" fill="#6d6269"/></g><g><path d="M284.60029,137.99022c0.23588,-1.22638 0.95547,-2.26586 1.5316,-3.20349c0.80274,-1.30661 1.61877,-2.35922 3.04904,-2.94573c0.87363,-0.35832 2.06402,-0.52585 3.08055,-0.57514c0.67236,-0.03257 1.72909,-0.23676 2.41946,-0.10392c1.56502,0.30099 1.88569,0.44595 2.92105,1.15022c0.6237,0.42426 2.14881,1.17491 2.54717,1.93601c0.33719,0.64415 0.62522,1.6655 0.83245,2.39739c0.35403,1.25085 0.78986,3.23338 0.52758,4.59702c-0.11082,0.57626 -0.84676,1.7977 -0.99291,2.29453c-0.4639,1.57727 -0.5609,2.07751 -1.96099,2.93189c-0.85097,0.51929 -2.43454,0.77262 -3.47807,0.98935c-1.0807,0.22454 -2.49714,0.83402 -3.64868,0.61251c-0.77728,-0.14953 -2.07861,-0.94459 -2.80582,-1.22317c-1.57785,-0.6044 -2.42088,-0.94415 -3.21649,-2.2583c-0.68225,-1.12689 -0.63633,-2.74567 -0.73756,-4.14764c-0.05317,-0.73652 -0.2145,-1.69189 -0.06844,-2.45159z" fill="#3a3a3a"/><path d="M285.34057,138.01176c0.21591,-1.12227 0.8744,-2.07346 1.40157,-2.93145c0.73457,-1.19563 1.48126,-2.15885 2.79014,-2.69567c0.79945,-0.3279 1.88886,-0.48124 2.81902,-0.52627c0.61528,-0.02979 1.58231,-0.21659 2.21399,-0.09511c1.4322,0.27545 1.72566,0.40808 2.67308,1.0525c0.57069,0.38821 1.96632,1.07518 2.33096,1.77159c0.30855,0.58948 0.5722,1.52413 0.76174,2.19385c0.32399,1.14466 0.72279,2.95886 0.48281,4.20667c-0.10148,0.52736 -0.77488,1.64509 -0.90857,2.09968c-0.42456,1.44329 -0.51327,1.90113 -1.79444,2.68296c-0.77866,0.47523 -2.22783,0.70692 -3.18273,0.90535c-0.98892,0.20549 -2.28513,0.76318 -3.33892,0.56053c-0.71127,-0.13679 -1.90209,-0.86438 -2.56764,-1.11927c-1.44387,-0.55309 -2.21534,-0.86401 -2.94344,-2.06653c-0.62433,-1.0312 -0.58226,-2.51256 -0.67493,-3.79547c-0.04865,-0.67402 -0.19629,-1.5482 -0.06257,-2.2434z" fill="#5a5a5a"/><path d="M298.16856,135.86679c-1.55751,-2.72905 -6.52144,-3.88811 -6.52144,-3.88811c0,0 2.0093,-0.16345 3.96236,0.21927c1.58203,0.31002 3.05726,0.9649 3.95019,2.46147c0.89365,1.49783 0.99999,3.03021 1.01811,4.45473c0.03545,2.79295 -0.84649,5.06 -0.84649,5.06c0,0 -0.00523,-5.57825 -1.56276,-8.30731z" fill="#6d6d6d"/><path d="M291.98962,139.78915c0.10874,-0.56541 0.65513,-0.93551 1.22051,-0.82674c0.56541,0.10874 0.93551,0.65513 0.82674,1.22052c-0.10874,0.56541 -0.65513,0.93551 -1.22052,0.82674c-0.56541,-0.10874 -0.93551,-0.65513 -0.82674,-1.22052z" fill="#272727"/><path d="M291.88613,139.90857c0.09974,-0.51854 0.60093,-0.85803 1.11946,-0.75831c0.51854,0.09974 0.85803,0.60093 0.75831,1.11946c-0.09974,0.51854 -0.60093,0.85803 -1.11945,0.75833c-0.51854,-0.09974 -0.85803,-0.60093 -0.75833,-1.11945z" fill="#131313"/></g></g></g></g></g><path d="M183.8625,231.03316c0.29929,-1.55615 4.16875,-44.21917 4.9716,-45.77065c1.084,-2.09475 9.15737,0.83353 12.35293,-0.08725c9.78704,-2.82006 20.28982,-5.47114 20.28982,-5.47114c0,0 13.70547,3.22723 17.8657,4.02748c3.11113,0.59846 64.92984,3.84294 63.70836,14.11871c-1.65681,13.93786 -42.18764,-5.79116 -44.47896,6.1211c-0.58008,3.01565 1.74938,3.66274 0.59941,6.64651c-0.27602,0.7161 -3.56361,5.35758 -4.10046,6.96105c-0.8523,2.5454 1.62758,7.09829 -2.20836,9.51647c-3.05778,1.92771 -2.10826,7.21916 -2.96507,8.29225c-5.90487,7.39472 -13.36523,2.08563 -22.21584,0.38325c-10.49375,-2.01841 -26.46717,-1.2992 -35.44817,-4.28662c-3.87671,-1.28957 -9.24218,4.07847 -8.3709,-0.45125z" fill="#86c8f5" stroke-width="0"/></g></g></svg>