<svg version="1.1" xmlns="http://www.w3.org/2000/svg" xmlns:xlink="http://www.w3.org/1999/xlink" width="470.10901" height="148.25245" viewBox="0,0,470.10901,148.25245"><defs><linearGradient x1="534.07849" y1="186.49089" x2="533.59968" y2="191.27865" gradientUnits="userSpaceOnUse" id="color-1"><stop offset="0" stop-color="#1f1d20"/><stop offset="1" stop-color="#202022"/></linearGradient><linearGradient x1="534.99912" y1="181.70368" x2="534.44812" y2="187.21246" gradientUnits="userSpaceOnUse" id="color-2"><stop offset="0" stop-color="#302d31"/><stop offset="1" stop-color="#1f1e20"/></linearGradient><linearGradient x1="197.09268" y1="196.21632" x2="196.75527" y2="199.58958" gradientUnits="userSpaceOnUse" id="color-3"><stop offset="0" stop-color="#585758"/><stop offset="1" stop-color="#575758"/></linearGradient><linearGradient x1="183.04153" y1="204.93969" x2="182.77665" y2="207.58785" gradientUnits="userSpaceOnUse" id="color-4"><stop offset="0" stop-color="#363536"/><stop offset="1" stop-color="#353536"/></linearGradient><linearGradient x1="334.93211" y1="126.86714" x2="334.38093" y2="132.37815" gradientUnits="userSpaceOnUse" id="color-5"><stop offset="0" stop-color="#5e555b"/><stop offset="1" stop-color="#2b2629"/></linearGradient><linearGradient x1="327.27984" y1="105.33175" x2="326.88212" y2="109.30806" gradientUnits="userSpaceOnUse" id="color-6"><stop offset="0" stop-color="#72676e"/><stop offset="1" stop-color="#5e555b"/></linearGradient><linearGradient x1="213.50064" y1="107.91966" x2="212.91069" y2="113.81826" gradientUnits="userSpaceOnUse" id="color-7"><stop offset="0" stop-color="#5e555b"/><stop offset="1" stop-color="#4d454a"/></linearGradient><linearGradient x1="214.9191" y1="93.73816" x2="214.50486" y2="97.87978" gradientUnits="userSpaceOnUse" id="color-8"><stop offset="0" stop-color="#74686f"/><stop offset="1" stop-color="#5e555b"/></linearGradient></defs><g transform="translate(-68.72446,-92.81121)"><g data-paper-data="{&quot;isPaintingLayer&quot;:true}" fill-rule="nonzero" stroke="none" stroke-linecap="butt" stroke-linejoin="miter" stroke-miterlimit="10" stroke-dasharray="" stroke-dashoffset="0" style="mix-blend-mode: normal"><g><g stroke-width="0"><path d="M259.66762,187.40871l-8.65221,-16.28723l25.50717,1.95812c0,0 -1.67313,5.69057 -2.14061,8.35576c-0.4522,2.57818 -0.61993,7.38306 -0.61993,7.38306z" fill="#7f7d7e"/><path d="M259.74591,187.61436l-3.06351,-5.94131c0,0 1.99303,3.77214 5.15193,4.70587c2.27473,0.67237 4.18235,0.55166 6.81859,1.13777c2.6362,0.58609 4.99178,1.48785 4.99178,1.48785z" fill="#6c6a6b"/></g><g><g><g><path d="M530.62341,190.98098l-1.56989,-4.99265c0,0 5.79674,2.24591 8.29234,3.39281c2.49561,1.14694 0.85174,2.12431 0.85174,2.12431z" fill="url(#color-1)" stroke-width="0"/><path d="M538.546,182.2591c0,0 1.24061,2.46352 -1.43269,3.09346c-2.67331,0.62996 -5.6837,1.55799 -5.6837,1.55799l-0.41492,-5.60531z" data-paper-data="{&quot;index&quot;:null}" fill="url(#color-2)" stroke-width="0"/><path d="M521.05379,190.01916l0.20884,-2.08799l14.69921,1.47024c0,0 1.17233,0.91552 1.62126,1.32855c0.40352,0.37128 -0.82488,0.85999 -0.82488,0.85999z" fill="#444444" stroke-width="NaN"/><path d="M521.28187,188.07737l-1.01019,-1.8637l12.55302,1.25555l3.21374,1.9717c0,0 -4.22062,-0.18293 -6.51572,-0.39506c-2.58839,-0.23922 -8.24085,-0.96857 -8.24085,-0.96857z" fill="#535353" stroke-width="0"/><path d="M520.14645,186.33849l-0.25947,-0.66916l11.41684,1.14187l1.62479,0.69085z" fill="#363636" stroke-width="0"/><path d="M521.05379,190.01916l0.11331,-1.13271c0,0 6.37643,1.09363 9.24188,1.38023c2.42825,0.24291 6.85745,0.22997 6.85745,0.22997c0,0 0.81384,0.54593 1.03975,0.77245c0.19059,0.19107 -0.29455,0.44615 -0.29455,0.44615c0,0 -4.74952,-0.06853 -7.05176,-0.29883c-3.10607,-0.31069 -9.90614,-1.39733 -9.90614,-1.39733z" fill="#3a3a3a" stroke-width="NaN"/><path d="M520.20452,185.71951l-0.46277,-0.9344l13.57391,1.35766l-1.90388,0.73177z" fill="#242424" stroke-width="0"/><path d="M518.91885,184.89295l0.16468,-1.64611c0,0 8.0737,0.60029 11.05455,0.89845c2.03087,0.20313 5.10136,0.71744 5.10136,0.71744l-1.95286,1.30147z" fill="#3a3a3a" stroke-width="0"/><path d="M518.9503,183.27627l0.20327,-2.03241c0,0 7.64814,0.43344 10.94595,0.76325c2.85374,0.28541 7.70208,1.10189 7.70208,1.10189l-2.60942,1.79176c0,0 -3.62852,-0.4458 -5.86188,-0.66914c-2.96855,-0.2969 -10.38003,-0.95533 -10.38003,-0.95533z" fill="#444444" stroke-width="0"/><path d="M519.1022,181.32423l0.08472,-0.84683c0,0 7.84706,0.66054 11.42643,1.01854c2.49238,0.24927 7.99506,0.92399 7.99506,0.92399l-0.94545,0.76077c0,0 -5.00015,-0.79026 -7.95067,-1.08537c-3.2507,-0.32514 -10.6101,-0.7711 -10.6101,-0.7711z" fill="#535353" stroke-width="0"/><path d="M519.04952,180.54918l0.0339,-0.33874c0,0 7.68862,0.25943 11.13184,0.60387c2.97691,0.29776 8.33256,1.34299 8.33256,1.34299l0.0035,0.3425c0,0 -5.96263,-0.76214 -9.19152,-1.08512c-3.27112,-0.32717 -10.31021,-0.86543 -10.31021,-0.86543z" fill="#4e4e4e" stroke-width="0"/></g><g stroke-width="0"><g><g><g><path d="M515.27764,188.95099l-3.24897,-13.55426l0.72159,-1.65774c0,0 3.13615,3.55899 3.80614,6.1288c0.36372,1.39514 0.16861,9.22799 0.16861,9.22799z" fill="#383638"/><path d="M516.3924,188.36766c0,0 0.11877,-0.60084 -0.2624,-3.10609c-0.41566,-2.73204 -1.43929,-6.48969 -1.72358,-7.59742c-0.6382,-2.48658 -1.37638,-2.69155 -1.37638,-2.69155l4.8341,-0.10123l3.59388,14.00297z" fill="#555355"/><path d="M513.08521,175.06391l-0.45591,-1.28813c0,0 2.08978,-0.59502 3.04661,-0.49928c0.89662,0.08968 1.95385,0.92633 1.95385,0.92633l0.44862,1.36045z" fill="#686668"/></g><path d="M509.6331,188.38642l-3.24897,-13.55425l0.3904,-1.67067c0,0 3.46737,3.57189 4.13729,6.14167c0.36373,1.39513 0.16862,9.22799 0.16862,9.22799z" fill="#383638"/><path d="M510.74781,187.80308c0,0 0.11878,-0.60085 -0.2624,-3.10609c-0.41566,-2.73204 -1.43929,-6.48969 -1.72358,-7.59742c-0.6382,-2.48658 -1.37638,-2.69155 -1.37638,-2.69155l4.1376,-0.67338c0,0 0.8962,1.35012 1.09072,2.10802c0.55422,2.15936 3.19976,12.46704 3.19976,12.46704z" fill="#555355"/><path d="M507.44064,174.49925l-0.67297,-1.30986c0,0 2.30689,-0.57323 3.26375,-0.47756c0.89662,0.08968 1.6644,0.89739 1.6644,0.89739l0.57305,1.37295z" fill="#686668"/><path d="M517.30557,187.46029c0.08157,-0.81545 0.80877,-1.41036 1.62417,-1.3288c0.81547,0.08156 1.41036,0.80877 1.3288,1.62417c-0.08157,0.81545 -0.80877,1.41036 -1.62416,1.3288c-0.81547,-0.08156 -1.41036,-0.80877 -1.3288,-1.62417z" fill="#312f31"/><path d="M518.24947,184.6108l-1.43744,-5.71797l1.59775,0.01577l1.43106,5.7822z" fill="#444144"/></g><path d="M470.9901,179.53013l-2.66882,-11.14445l29.61689,4.14462l-1.42837,9.55232z" fill="#444444"/><path d="M483.95791,176.89218c0,0 0.68477,-0.45607 1.51343,-1.4836c0.75769,-0.93947 1.64372,-2.43664 2.0726,-2.85979c1.14023,-1.60095 3.46055,-0.89973 3.46055,-0.89973l-1.03972,0.55232l-4.86968,4.80455z" fill="#292929"/><path d="M485.69538,187.64791l-5.39004,-11.56524c0,0 3.42849,0.87683 5.22807,0.00257c1.39843,-0.67944 1.56665,-3.30771 3.16417,-3.43027c4.58326,-0.35147 17.43709,0.49809 17.43709,0.49809c0,0 2.51297,7.43198 3.14826,10.39695c0.43857,2.04695 0.40696,6.4979 0.40696,6.4979z" fill="#4a464a"/><path d="M491.11661,175.01616c-4.47486,-1.08681 -2.90545,-2.30058 -2.90545,-2.30058c0,0 0.91837,-1.21686 2.79099,-1.17646c4.59528,0.09918 13.13806,1.53337 14.85431,1.67928c0.80938,0.06877 0.27557,0.72684 0.27557,0.72684c0,0 -1.71943,2.22588 -3.28763,2.32433c-1.56825,0.09845 -7.25292,-0.16662 -11.72781,-1.25343z" fill="#5e595e"/></g><g><path d="M473.29566,193.01583l-3.35068,-18.36012l18.78541,2.16668l4.34489,4.78451l6.07874,0.50897l1.61748,13.64811z" fill="#4d4846"/><path d="M477.92446,193.8678l21.48838,-7.28911l22.23498,1.98033c0,0 0.88918,4.29271 0.89663,5.65477c0.00379,0.69446 -0.44723,2.91409 -0.44723,2.91409z" fill="#423d3b"/><path d="M474.95672,185.21852l-2.18371,-10.11367l0.81643,0.08168l2.18371,10.11367z" fill="#363332"/><path d="M478.58689,193.12845l0.12118,-1.21133c0,0 5.49166,-2.00888 14.51152,-1.1067c1.19842,0.11987 5.17231,3.07548 6.38023,3.19632c7.66386,0.76653 15.16532,1.51684 18.01912,1.80228c2.3242,0.23249 4.82693,-0.82369 4.82693,-0.82369l-0.25054,2.50489z" fill="#312e2c"/><path d="M482.2129,180.68738l-1.27562,-4.76598l8.26644,0.82679l3.69437,4.8129l6.2559,0.82076l-7.746,1.18368z" fill="#585350"/><path d="M472.07364,186.7339l0.11228,-1.12259c0,0 8.3785,-2.92423 11.24138,-2.63792c4.31488,0.4316 16.22673,1.62299 16.22673,1.62299l-0.11228,1.12259c0,0 -12.1161,-1.21186 -16.43087,-1.64336c-2.80413,-0.28052 -11.03732,2.65834 -11.03732,2.65834z" fill="#2b2827"/></g></g></g><g><g><g><path d="M134.85762,195.8724c0.31581,2.27666 -0.24984,4.82259 -1.36169,4.97679c-1.11186,0.15421 -2.34899,-2.1416 -2.66478,-4.41835c-0.31581,-2.27666 -1.58645,-11.01696 -0.47457,-11.17118c1.11186,-0.15421 4.1853,8.33598 4.50105,10.61274z" fill="#615e5f" stroke-width="0"/><g><path d="M179.22219,170.23146c-0.48412,-0.57865 -2.68256,-2.11746 -2.68256,-2.11746l10.15737,-1.87845l-6.68677,6.56707c0,0 -0.30386,-1.99248 -0.78807,-2.5712z" fill="#756a6a" stroke-width="0"/><path d="M170.40937,167.64429l1.36679,-13.66513l19.02515,-3.99304l-1.95062,19.50274z" fill="#8a7c7c" stroke-width="0"/><path d="M130.0302,169.07981l8.43826,-17.3798l34.77317,3.34403l3.25017,13.05495c0,0 -23.03263,-0.71982 -30.78315,-0.55617c-3.21734,0.06791 -15.67851,1.53704 -15.67851,1.53704z" fill="#7c787a" stroke-width="0"/><path d="M138.34688,154.10464l0.00004,-1.48887c0,0 25.79551,2.58002 33.90486,3.39113c4.53723,0.4538 16.70197,-4.73159 16.70197,-4.73159l-0.16216,1.62157c0,0 -11.87008,5.1955 -16.25673,4.74205c-8.04345,-0.83151 -34.18797,-3.53422 -34.18797,-3.53422z" fill="#535353" stroke-width="0"/><path d="M98.0395,166.59153l2.00582,-20.05396c0,0 5.21068,-6.56815 12.6474,-8.13175c9.23668,-1.94206 25.86394,1.51504 27.92439,1.72109c1.58109,0.15813 -13.88022,9.08036 -13.88022,9.08036l-2.00582,20.05396z" fill="#8d898b" stroke-width="0"/><path d="M274.72054,137.89007l1.9076,-2.96916l107.0169,10.84735l-1.46757,14.67304c0,0 -37.77674,-1.9237 -49.89546,-3.554c-6.01849,-0.80965 -57.56149,-18.9973 -57.56149,-18.9973z" fill="#c98cac" stroke-width="0"/><path d="M243.1122,236.23268l-3.23363,-13.3244c0,0 4.5314,6.32184 7.25773,7.67676c1.73706,0.86326 5.90416,1.66374 12.22724,-0.15347c5.09024,-1.46288 10.78174,-6.43195 10.78174,-6.43195l-13.0989,13.62667z" fill="#a08e97" stroke-width="0"/><path d="M337.82187,198.55541l0.02456,-23.73681l18.59487,0.45011l-2.10959,21.09179c0,0 -6.53674,1.07391 -9.35761,1.49355c-1.29886,0.1932 -7.15223,0.70143 -7.15223,0.70143z" fill="#96858d" stroke-width="0"/><path d="M240.91087,239.77695l0.55135,-5.51265c0,0 11.79748,3.25885 16.70469,0.61277c2.38819,-1.28775 21.23958,-20.4392 31.63463,-31.08949c4.05666,-4.15631 6.82556,-7.01786 6.82556,-7.01786c0,0 3.71815,-3.42015 4.00903,-6.28764c0.14628,-1.44247 1.0298,-5.55368 0.43243,-7.9363c-0.6027,-2.40395 -2.68706,-3.073 -2.68706,-3.073l-3.49719,-13.98983l19.70333,2.11512l-5.53961,26.15183l3.48456,2.92317c0,0 -10.10477,5.01936 -15.20387,9.48982c-7.97828,6.99451 -34.27548,34.90077 -34.27548,34.90077z" fill="#918189" stroke-width="0"/><path d="M314.7217,196.59944l4.05432,-28.34108l13.67981,1.64539l9.11769,12.97403l-3.85491,16.02185z" fill="#96858d" stroke-width="0"/><path d="M310.03555,197.98909l-2.08417,-4.37492l6.12785,-25.70763l5.0631,0.4213l-3.51729,28.37753z" fill="#8f8187" stroke-width="0"/><path d="M336.48011,198.87979c0,0 3.40162,-6.36008 2.5941,-11.87866c-0.46498,-3.17758 -5.15546,-5.62627 -5.44047,-7.57425c-0.54442,-3.72112 -1.3868,-9.47769 -1.3868,-9.47769l7.38178,5.1241c0,0 2.67135,7.51691 2.84191,11.81675c0.1147,2.88883 -1.9962,9.08553 -3.17685,11.57931c-0.0995,0.21023 -1.26158,0.01028 -1.3294,0.16969c-0.16571,0.38928 0.77071,0.71545 0.77071,0.71545z" fill="#86787e" stroke-width="0"/><path d="M339.26592,176.54438c0,0 -2.68184,-4.2429 -7.24442,-5.67572c-5.16533,-1.6221 -22.16427,-3.55962 -22.16427,-3.55962l158.36567,1.58714l2.47278,9.59555l6.76959,11.87535c0,0 -100.03556,-12.58983 -120.52165,-14.63881c-6.68492,-0.66863 -17.67767,0.81616 -17.67767,0.81616z" fill="#df8db7" stroke-width="0"/><path d="M181.10836,208.24165l-1.16449,-36.56729c0,0 2.04816,-3.56454 2.56831,-3.72925c5.73482,-1.81611 38.67249,-9.22668 44.05626,-8.40047c5.89766,0.90502 -10.33277,11.26977 -10.33277,11.26977c0,0 -14.53991,0.58175 -17.48799,4.55799c-4.00261,5.39857 -0.90635,23.14834 -0.90635,23.14834z" fill="#c77da3" stroke-width="0"/><path d="M256.14779,185.66889l-1.57109,-2.27289c0,0 7.38296,-7.9111 10.03268,-9.95022c2.73548,-2.10521 6.13114,-2.48928 6.13114,-2.48928l5.67691,2.88149c0,0 -4.40385,-0.94552 -6.92667,0.52693c-2.16577,1.26409 -6.20564,3.95408 -9.29966,6.75235c-2.25071,2.03552 -4.04323,4.5516 -4.04323,4.5516z" fill="#414041" stroke-width="0"/><path d="M138.13325,153.03174l5.93958,-11.1538l48.38702,4.83964c0,0 -3.32761,4.14489 -6.62742,5.7908c-3.23864,1.61543 -12.99129,3.99478 -12.99129,3.99478z" fill="#979395" stroke-width="0"/><path d="M139.04297,151.97419l5.14346,-11.23338l48.38702,4.83964c0,0 -3.32761,4.14489 -6.62742,5.7908c-3.23864,1.61543 -12.99129,3.99478 -12.99129,3.99478z" fill="#bdb7ba" stroke-width="0"/><path d="M338.84439,199.43862l-1.8125,-0.69734l17.18072,-2.47719c0,0 -3.74744,1.69286 -6.29838,2.23859c-2.55091,0.54579 -9.06983,0.93596 -9.06983,0.93596z" fill="#887980" stroke-width="0"/><path d="M183.53553,208.95125c0,0 -1.287,-10.6464 -1.63242,-19.26203c-0.34708,-8.65761 -0.64721,-16.77451 -0.31246,-20.34367c0.05675,-0.60465 2.68498,-10.32203 3.23413,-10.79108c2.96435,-2.53198 9.8971,5.94369 15.54339,5.39933c8.36033,-0.80593 27.42514,0.58426 27.42514,0.58426l-8.94027,4.44301c0,0 -19.63817,0.91518 -22.52923,5.7889c-3.91043,6.5922 1.54542,28.11476 1.54542,28.11476z" fill="#d486ae" stroke-width="0"/><path d="M185.01164,205.56253c0,0 -2.5604,-41.33157 -0.23719,-51.22654c1.08698,-4.62973 -1.34471,-14.02621 -1.34471,-14.02621l49.72215,11.97663l-0.1825,16.13192c0,0 -31.57534,-6.26681 -38.51868,-0.65596c-4.6349,3.74539 -0.67044,32.5259 -0.67044,32.5259z" fill="#e490bb" stroke-width="0"/><g stroke-width="0"><path d="M329.01769,156.65793l0.82352,-8.23379l9.31349,0.93155l-0.82352,8.23379z" fill="#454545"/><path d="M329.92204,155.97969l0.37138,-7.29737l11.26997,1.12722l-0.72632,7.26186z" fill="#b0b0b0"/><path d="M330.13941,151.49002l0.05423,-2.83902l11.48553,1.1488l-0.18982,1.89793c0,0 -7.78632,-0.45472 -9.491,-0.4859c-0.56962,-0.01045 -1.85891,0.27823 -1.85891,0.27823z" fill="#bebebe"/><path d="M341.14387,156.54985c0,0 -5.25886,-3.09412 -4.31774,-6.76633c1.3985,-5.45692 5.45164,-4.57108 5.45164,-4.57108l39.90989,5.33177l-1.00126,10.01066z" fill="#9c989a"/><path d="M343.0506,155.44485c0,0 -2.12422,-3.74897 -2.27489,-4.69548c-0.2234,-1.40307 2.05582,-4.14717 2.05582,-4.14717l41.38592,4.17292l-1.14331,7.41164z" fill="#898587"/><path d="M342.94094,155.63312l-0.82151,-2.0312l38.04194,3.80496l-0.19301,1.92976z" fill="#c1bcbf"/><path d="M343.15815,152.24401c0,0 -1.19057,-1.49388 -1.09728,-2.42659c0.08722,-0.87247 1.64014,-3.00087 1.64014,-3.00087l38.47471,3.84825l-0.54292,5.42745z" fill="#0d0d0d"/><path d="M343.08079,153.01747c0,0 -1.13046,-2.09464 -1.03718,-3.02734c0.08722,-0.87247 1.58003,-2.40013 1.58003,-2.40013l38.47472,3.84825l-0.54292,5.42745z" fill="#2e2e2e"/><path d="M338.08931,154.43099c-2.32052,-3.31439 -0.92857,-5.52333 -0.92857,-5.52333c0,0 1.41388,4.27428 2.55389,5.2904c1.34976,1.20298 4.80568,2.92146 4.80568,2.92146l-3.49835,-0.27939c0,0 -2.5243,-1.82582 -2.93266,-2.40908z" fill="#7d7a7c"/><path d="M345.63709,153.58433c0,0 -0.6643,-2.28954 -0.55052,-3.42738c0.10002,-1.00027 1.19738,-3.04036 1.19738,-3.04036l4.79935,0.48007c0,0 -0.67818,2.14714 -0.76456,3.01105c-0.11877,1.18736 0.11769,3.45663 0.11769,3.45663z" fill="#555555"/><path d="M354.21102,154.442c0,0 0.91445,-2.44425 1.02823,-3.58215c0.10002,-1.00027 -0.38134,-2.8856 -0.38134,-2.8856l5.3566,0.53576c0,0 -0.58529,1.66506 -0.67172,2.52899c-0.11877,1.18736 0.02481,3.93874 0.02481,3.93874z" fill="#555555"/><path d="M363.49139,155.37016c0,0 0.91445,-2.44424 1.02825,-3.58214c0.10002,-1.00027 -0.38134,-2.88559 -0.38134,-2.88559l5.27702,0.52779c0,0 -0.58529,1.66506 -0.67172,2.52899c-0.11877,1.18736 0.02481,3.93874 0.02481,3.93874z" fill="#555555"/><path d="M373.10668,156.33187c0,0 1.05597,-2.07272 1.16975,-3.21066c0.10002,-1.00027 -0.52289,-3.25705 -0.52289,-3.25705l5.1178,0.51189c0,0 0.62643,2.05428 0.54001,2.91827c-0.11877,1.18736 -1.18688,3.54951 -1.18688,3.54951z" fill="#555555"/><path d="M345.94909,147.79066l-0.5822,-0.86223l35.38603,3.53929l-1.60626,0.64333c0,0 -2.81603,-0.28167 -5.26599,-0.5267c-0.53402,-0.05344 -1.51186,-0.48159 -2.31176,-0.56168c-0.7734,-0.07733 -1.36126,0.19425 -2.32267,0.0981c-1.4992,-0.14997 -3.19074,-0.31911 -4.96155,-0.49626c-0.73415,-0.07344 -1.33479,-0.51896 -2.0882,-0.59435c-0.66993,-0.06697 -1.49148,0.23624 -2.16458,0.16897c-1.67053,-0.16707 -3.3246,-0.33254 -4.87977,-0.48807c-0.71414,-0.07143 -1.36377,-0.57693 -2.02822,-0.6434c-0.81115,-0.08116 -1.62288,0.27824 -2.3336,0.20713c-2.89903,-0.28997 -4.8413,-0.48422 -4.8413,-0.48422z" fill="#474747"/></g><g><path d="M192.7886,199.87944l3.98401,-2.4833c0,0 2.53073,3.08207 5.26167,4.25462c2.41535,1.03709 10.29359,2.42434 10.29359,2.42434l-3.07522,4.06845z" fill="#6d6a6b" stroke-width="0"/><path d="M184.12276,205.54523l9.92065,-6.42978c0,0 2.9941,2.56725 5.08623,3.44171c3.16512,1.32291 12.05641,3.72341 12.05641,3.72341l-4.68517,3.86019z" fill="#615e5f" stroke-width="0"/><path d="M183.92534,227.60248l0.77054,-22.60865c0,0 4.2538,1.22135 9.04821,1.73065c3.74221,0.39749 7.85418,-0.04255 10.26508,0.81c4.23249,1.49664 36.36242,17.12763 36.36242,17.12763l1.45354,10.37098z" fill="#575455" stroke-width="0"/><path d="M208.10091,202.8437c7.45274,-4.84757 16.82094,-17.42975 18.32898,-19.86314c1.08639,-1.75307 2.29556,-6.93448 2.29556,-6.93448l6.98723,7.54769c0,0 3.78085,20.97718 3.69695,33.67865c-0.0235,3.554 2.08889,7.73017 0.76254,9.07133c-1.18833,1.20162 -18.29337,1.79209 -23.58468,0.49424c-11.13545,-2.73119 -17.17634,-0.53195 -20.37747,-6.15381c-3.20114,-5.62183 4.48841,-11.15427 4.48841,-11.15427c0,0 5.46221,-5.42411 7.40246,-6.68614z" fill="#504e4f" stroke-width="0"/><path d="M216.14955,170.65974c0,0 0.5424,-1.44598 1.46121,-2.02088c1.18164,-0.73942 5.04051,-2.04751 5.04051,-2.04751c0,0 9.11471,2.98931 11.86222,5.76656c2.53497,2.56235 -4.73778,12.16744 -4.73778,12.16744l-1.46298,-5.53445z" fill="#464445" stroke-width="0"/><path d="M234.56844,219.96512c0,0 -9.86078,5.30069 -18.3201,4.6269c-8.16074,-0.65 -14.93555,-7.2489 -14.68754,-8.65337c0.13438,-0.76099 8.35193,-3.26087 12.23134,-7.11532c4.31233,-4.28463 4.39378,-10.00648 5.938,-11.87248c4.31108,-5.20951 13.72711,-14.49702 13.27283,-20.61623c-0.4764,-6.41736 -10.93437,-9.54756 -10.93437,-9.54756c0,0 4.05617,-1.85723 9.03002,-1.49024c2.11872,0.15634 6.50578,1.98787 7.38615,2.46283c2.88706,1.55744 4.70502,3.38366 4.70502,3.38366c0,0 4.126,-4.49099 7.74104,-4.44041c3.61502,0.0506 22.05398,4.85718 22.05398,4.85718l-17.38345,10.91816z" fill="#555354" stroke-width="0"/><path d="M219.27666,197.50336c0,0 5.67998,-10.3589 10.92778,-15.29609c5.24776,-4.93713 9.62248,-7.69596 13.13728,-7.34439c2.54525,0.25456 4.9597,9.15448 4.9597,9.15448l-13.88515,27.52398c0,0 -14.87489,1.8077 -16.09792,-0.80768c-0.96594,-2.0656 0.95837,-13.2303 0.95837,-13.2303z" fill="#585758" stroke-width="0"/><path d="M239.00309,226.91236c0,0 -2.24773,-6.44677 -1.62229,-9.42153c0.8737,-4.15568 3.56975,-16.6031 3.56975,-16.6031l0.90835,10.57862c0,0 -1.60742,9.63538 -1.7769,12.66339c-0.16355,2.92155 1.03673,5.22286 1.03673,5.22286z" fill="#3f3e3f" stroke-width="0"/><path d="M239.8571,209.04342c-0.02778,-1.68591 1.00522,-9.33201 1.00522,-9.33201c0,0 10.96057,-13.54438 13.31164,-15.97554c0.6892,-0.7127 4.20051,-2.1011 4.20051,-2.1011l-2.12114,4.66599c0,0 -1.62612,0.44434 -1.85261,0.90191c-0.24128,0.48751 0.44647,1.93894 0.44647,1.93894l-5.94737,7.92758c0,0 -1.74304,0.84128 -1.97158,1.32631c-0.22862,0.48514 0.36718,1.43736 0.36718,1.43736c0,0 -4.72509,8.51327 -5.80371,10.83224c-0.49872,1.0722 -0.40742,2.52107 -0.40742,2.52107c0,0 -1.19935,-2.45673 -1.22711,-4.14268z" fill="#474647" stroke-width="0"/><path d="M228.88303,186.87274l20.13469,10.29028c0,0 -1.28377,0.88895 -1.57345,1.40168c-0.21375,0.37839 -0.00697,1.39606 -0.00697,1.39606z" fill="#3f3e3e" stroke-width="NaN"/><path d="M235.88361,177.16833l20.60291,9.15475c0,0 -1.19341,0.72812 -1.45874,1.26072c-0.27658,0.5552 -0.01632,1.6658 -0.01632,1.6658z" fill="#3f3e3e" stroke-width="NaN"/><path d="M220.65096,204.46788c0,0 9.87372,8.71898 15.12776,15.25186c5.254,6.53293 3.20285,7.54066 3.20285,7.54066z" fill="#636162" stroke-width="NaN"/><path d="M236.16652,182.84812c0,0 -6.25989,2.29244 -9.30368,5.09936c-3.04382,2.80694 -12.94702,18.08008 -12.65382,15.14916c0.29316,-2.93091 15.41196,-22.24323 17.19797,-22.0646c0.67611,0.06761 3.81098,-0.76679 4.60167,-0.44903c1.2981,0.52164 0.15789,2.26506 0.15789,2.26506z" fill="#918f91" stroke-width="0"/><path d="M183.48424,227.42827l14.06152,-0.49132c0,0 12.56646,0.92296 15.67214,1.38943c7.56326,1.13596 29.87219,5.45111 29.87219,5.45111l-1.07386,6.2452c0,0 -24.59485,1.12328 -31.32411,-0.87197c-1.94676,-0.57723 -7.67306,-1.77111 -11.77307,-3.54013c-8.02359,-3.46188 -15.4348,-8.18235 -15.4348,-8.18235z" fill="#626061" stroke-width="0"/><path d="M241.05132,239.57268c0,0 0.46747,-4.26731 0.25364,-6.6402c-0.24034,-2.66705 -1.62554,-8.58318 -1.62554,-8.58318l1.77347,0.17741c0,0 1.26712,4.6058 1.48468,7.02027c0.23789,2.63988 -0.11275,8.20309 -0.11275,8.20309z" fill="#4a494a" stroke-width="0"/><path d="M240.77376,240.38542l0.42591,-3.37154c0,0 0.53759,0.31983 0.80776,0.34682c0.32099,0.03211 0.95096,-0.1709 0.95096,-0.1709l-0.14326,3.1781c0,0 -0.81328,0.32833 -1.18521,0.33148c-0.285,0.00246 -0.85612,-0.31399 -0.85612,-0.31399z" fill="#363536" stroke-width="0"/><path d="M239.85103,225.39694l-0.22265,-1.651c0,0 0.45058,-0.31108 0.82314,-0.33339c0.3548,-0.02119 0.86238,0.1529 0.86238,0.1529l0.3263,1.77771c0,0 -0.52997,0.45697 -0.83648,0.46617c-0.28881,0.00867 -0.95273,-0.41243 -0.95273,-0.41243z" fill="#585758" stroke-width="0"/><path d="M199.45398,234.97878c0,0 -7.56207,-3.7239 -7.42642,-5.08017c0.13636,-1.36302 6.45911,-1.90725 6.45911,-1.90725c0,0 10.9135,0.84963 15.82874,1.51468c2.75171,0.37238 11.15197,2.1361 11.15197,2.1361c0,0 7.1507,1.77468 7.84716,3.00183c0.75963,1.33854 -3.36812,3.7815 -3.36812,3.7815c0,0 -12.79066,0.03326 -16.71508,-0.56853c-1.39406,-0.21379 -13.77724,-2.87802 -13.77724,-2.87802z" fill="#6b696a" stroke-width="0"/><path d="M189.80935,227.07817l-1.97487,0.03442c0,0 0.96514,-3.35527 3.54799,-1.84855c2.5829,1.50676 21.56331,2.38873 21.56331,2.38873z" fill="#4b4949" stroke-width="0"/><path d="M183.57121,227.29225c0,0 -2.00694,-0.00819 -2.17681,-3.6861c-0.08598,-1.86175 -0.40486,-16.15659 -0.40486,-16.15659l4.00591,-2.51287c0,0 0.08188,6.03188 -0.00178,8.9402c-0.11134,3.86807 -0.50385,13.50727 -0.50385,13.50727z" fill="#3f3d3e" stroke-width="0"/><path d="M190.11307,227.27536c0,0 3.39162,-1.82968 19.40182,-0.56712c1.32216,0.10429 -1.78305,-0.21056 7.51951,1.22981c9.30261,1.44029 13.04086,3.33439 13.04086,3.33439c0,0 -14.88494,-2.56351 -21.05699,-3.1808c-7.03537,-0.70369 -18.90524,-0.81618 -18.90524,-0.81618z" fill="#838082" stroke-width="0"/><path d="M198.08775,198.29294c0,0 -4.56656,1.7416 -6.89164,3.13265c-2.6133,1.56351 -8.02451,5.79174 -8.02451,5.79174l-0.62114,-1.67175c0,0 4.12745,-3.4601 6.49322,-4.87556c2.58659,-1.54752 8.423,-4.04889 8.423,-4.04889z" fill="#4a494a" stroke-width="0"/><path d="M199.04272,198.12942l-3.71063,1.31782c0,0 0.16026,-0.63362 0.06559,-0.88827c-0.11245,-0.30258 -0.60462,-0.76186 -0.60462,-0.76186l3.3083,-1.47982c0,0 0.70294,0.5594 0.87447,0.88959c0.13144,0.25303 0.0668,0.9225 0.0668,0.9225z" fill="url(#color-3)" stroke-width="0"/><path d="M184.16299,206.53436l-3.20801,2.42257l0.07407,-2.18612l2.26973,-1.80528c0,0 0.70608,0.24157 0.85412,0.51033c0.13947,0.25326 0.01003,1.05846 0.01003,1.05846z" fill="url(#color-4)" stroke-width="0"/></g><path d="M315.9737,195.62269c0,0 1.36254,-4.3044 2.00163,-5.63654c0.43379,-0.90431 2.93791,-2.09261 2.93791,-2.09261l16.95665,1.47673c0,0 -1.84782,5.64184 -2.363,6.96344c-0.22568,0.57891 -1.3553,1.16202 -1.3553,1.16202z" fill="#665b60" stroke-width="0"/><path d="M269.41781,172.61857c0,0 -3.61986,-1.9323 -8.40923,-3.5693c-3.04456,-1.04065 -7.23701,-2.02957 -9.0993,-2.10953c-5.41431,-0.2325 -8.42886,4.59636 -8.42886,4.59636c0,0 -3.02657,-2.63004 -5.03863,-3.69026c-1.87824,-0.98967 -6.11009,-2.41884 -6.11009,-2.41884c0,0 24.9442,-2.62175 28.83402,-2.81571c7.45702,-0.37185 33.96678,2.67301 33.96678,2.67301l4.77126,14.83423z" fill="#8b7c84" stroke-width="0"/><g stroke-width="0"><path d="M317.51497,194.82936c0,0 0.72752,-2.53645 1.22495,-3.38597c0.5157,-0.88081 2.79332,-1.71071 2.79332,-1.71071l14.45788,1.44607c0,0 0.28658,1.01653 -0.02109,1.72724c-0.4183,0.96626 -3.45447,3.42366 -3.45447,3.42366z" fill="#585852"/><path d="M317.58914,194.08777c0,0 0.65336,-1.79479 1.15079,-2.64431c0.5157,-0.88081 2.86752,-2.45233 2.86752,-2.45233l14.45787,1.44607c0,0 0.21239,1.7582 -0.09523,2.4689c-0.4183,0.96626 -3.38031,2.68198 -3.38031,2.68198z" fill="#797971"/><path d="M334.26059,190.75473c-1.02597,-0.28143 -12.56381,-1.70817 -12.56381,-1.70817l14.43809,1.4441l-0.24503,2.44962c0,0 -0.60333,-1.90407 -1.62928,-2.18555z" fill="#85857b"/></g><path d="M320.74727,176.89392l0.5165,-5.164l7.10046,0.71016l0.77449,5.29314z" fill="#7c6e75" stroke-width="0"/><path d="M313.0047,149.56409l-3.34674,-8.5066l1.37251,0.13729l5.22767,9.14857z" fill="#d495b6" stroke-width="0"/><path d="M274.95405,138.09117l13.4609,-1.75871l21.4383,4.76977l3.17769,8.45045z" fill="#df9cbe" stroke-width="0"/><path d="M320.40828,181.91266l0.16144,-1.61372l10.81207,1.08141l0.80683,1.71062z" fill="#7c6e75" stroke-width="0"/><path d="M281.24741,165.78099c0,0 -18.16286,-0.6123 -23.81744,-0.67513c-8.56228,-0.09526 -25.77922,0.51958 -25.77922,0.51958c0,0 15.39107,-2.92339 28.98231,-3.08765c14.73637,-0.17813 58.71229,2.7557 58.71229,2.7557l-0.5383,5.3822z" fill="#75686e" stroke-width="0"/><path d="M273.49044,173.8194l-3.17036,-0.89078c0,0 9.95928,-1.40017 15.19637,-0.10978c5.23712,1.29041 13.9588,7.2935 13.9588,7.2935z" fill="#7c6e76" stroke-width="0"/><path d="M227.66607,165.18573c0,0 -30.6643,-18.54027 -31.09161,-23.2262c-0.3881,-4.25661 29.44001,5.30424 29.74709,5.2262c5.37282,-1.36592 77.61695,-1.39099 77.61695,-1.39099l25.80092,9.40382l52.55681,4.68247l5.92088,14.23537c0,0 -61.36978,-4.96347 -85.03431,-7.16653c-8.21459,-0.76475 -24.89885,-3.08442 -40.24026,-3.47285c-11.83385,-0.29962 -29.86195,2.23533 -29.86195,2.23533z" fill="#ee96c3" stroke-width="0"/><path d="M97.92729,164.81516l5.31621,-19.72284c0,0 0.60101,-7.0292 8.03776,-8.5928c9.23668,-1.94206 25.86394,1.51505 27.92438,1.7211c1.58109,0.15813 -13.88023,9.08036 -13.88023,9.08036l-2.00581,20.05394z" fill="#c4b4b3" stroke-width="0"/><g stroke-width="0"><path d="M379.50698,174.63412l-1.33591,-15.35208l91.62302,15.96237l-1.33088,5.70281l-47.67651,0.11274z" fill="#ad6d8e"/><path d="M407.1483,162.99103l8.05997,-7.50784l26.85367,0.54625l-5.31884,9.9217z" fill="#8d788b"/><path d="M381.68554,161.6388l1.61577,-16.15468l31.97649,10.01019l-5.2396,6.37923z" fill="#857183"/><path d="M424.22417,162.55605l17.77531,-6.53165l27.32794,6.52484l-0.97075,6.8313z" fill="#947e92"/><path d="M377.59773,160.61842l4.14977,-12.4146l1.74454,-2.90462l-1.4992,14.98907z" fill="#756474"/><path d="M381.09984,171.56304l0.48381,-12.08452l43.26287,2.67006l-2.81804,15.85535z" fill="#746373"/><path d="M422.02236,177.98771c0,0 1.00584,-6.23836 1.48665,-9.0486c0.41165,-2.40607 1.22306,-6.78941 1.22306,-6.78941l43.8901,5.3035l1.15409,8.55733z" fill="#867284"/><path d="M377.64498,160.55232l4.15995,-1.12248l-0.67599,12.14376z" fill="#6f5e6d"/><path d="M462.15863,161.72408l-19.38504,-5.31934l26.23265,6.27831l-0.71466,3.49164c0,0 -0.15587,-1.59267 -1.288,-2.41435c-0.75735,-0.54963 -4.84493,-2.0363 -4.84493,-2.0363z" fill="#978195"/><path d="M422.6231,161.74296c0,0 8.27991,-2.65443 11.17909,-3.72529c2.11195,-0.78006 4.61503,-2.10862 4.61503,-2.10862l2.51004,0.36422l-15.66869,5.7332z" fill="#9c859a"/><path d="M408.23316,161.11603c0,0 1.58378,-2.60765 3.06172,-3.8168c1.47794,-1.20921 3.85585,-1.79065 3.85585,-1.79065l-4.46827,5.85238z" fill="#806b7d"/><path d="M443.7425,154.44428l2.69334,-5.49256l14.75299,5.22761l4.93527,6.92556z" fill="#55494f"/><path d="M440.94306,156.97834c0,0 1.15568,-0.67852 1.77148,-1.20462c0.46385,-0.39629 1.28624,-1.70553 1.28624,-1.70553l21.80483,6.20087c0,0 0.8141,0.5809 1.365,0.96329c0.57572,0.39961 2.0181,1.38507 2.0181,1.38507z" fill="#685960"/><path d="M444.3897,153.61234l2.10666,-4.39755l13.74505,4.71823c0,0 -7.81444,-2.32197 -12.2986,-2.51453c-2.60109,-0.11169 -3.55304,2.19383 -3.55304,2.19383z" fill="#41383c"/></g><path d="M103.46781,125.89321l0.51834,-5.18251c0,0 22.35451,0.93439 44.19798,3.17638c13.01673,1.33605 26.3602,4.27626 33.2819,4.61673c15.60705,0.76762 26.47295,-2.68028 26.47295,-2.68028l-7.36833,9.95926z" fill="#ffa1d1" stroke-width="0"/><path d="M99.51358,139.52491l3.7502,-15.78773c0,0 54.31915,7.50375 72.12159,8.84151c10.54542,0.79244 24.85025,-1.55475 24.85025,-1.55475l-1.45727,14.56966c0,0 -67.16591,-6.71792 -83.35748,-8.33741c-6.65739,-0.66589 -18.58289,29.01955 -18.58289,29.01955z" fill="#ee96c3" stroke-width="0"/><path d="M270.2205,233.47277l10.58707,-12.60479c0,0 11.44757,-14.79137 21.48426,-20.68456c2.55048,-1.49753 7.81343,-2.17363 7.81343,-2.17363c0,0 -7.76374,4.23347 -10.62349,6.7528c-6.75346,5.94958 -29.26116,28.71016 -29.26116,28.71016z" fill="#70646b" stroke-width="0"/><path d="M372.2054,178.50915l-4.47776,-18.53948l1.34338,0.13437c0,0 1.3561,5.6147 2.07266,8.58156c0.10209,0.42268 1.33878,1.77359 1.46522,2.29721c0.21925,0.90768 -0.65313,1.06513 -0.4081,2.07956c0.68224,2.8248 1.34797,5.58115 1.34797,5.58115z" fill="#795467" stroke-width="0"/><path d="M199.36457,146.08616c0,0 -9.77788,-7.56297 -8.72619,-11.25156c0.62967,-2.20852 18.18006,-8.44497 18.18006,-8.44497l67.99539,8.48133l-1.93669,2.91784l28.98063,8.17323l-74.08439,19.29788c0,0 -0.22875,-5.66469 3.64014,-8.15017c3.76015,-2.41558 19.25607,-6.55896 19.25607,-6.55896c0,0 -34.04261,-3.45416 -41.28875,-4.26604c-2.41745,-0.27089 -12.01632,-0.19867 -12.01632,-0.19867z" fill="#f399c8" stroke-width="0"/><g><path d="M206.83897,128.12547l0.32231,-3.22226l175.67711,17.57123l-0.32231,3.22226z" fill="#584f54" stroke-width="0"/><path d="M377.04612,142.14448l0.27232,-2.72275l3.04011,0.30409l2.41008,2.99108z" fill="#685d63" stroke-width="0"/><g fill="#685d63" stroke-width="0"><g><g><g><path d="M370.39433,141.72962l0.29632,-2.96224l3.86183,0.38625l-0.29632,2.96224z"/><path d="M364.12805,141.10286l0.29632,-2.96224l3.86184,0.38626l-0.29632,2.96224z"/></g><g><path d="M358.09827,140.4998l0.29632,-2.96225l3.86184,0.38626l-0.29632,2.96224z"/><path d="M351.83198,139.87305l0.29632,-2.96224l3.86183,0.38626l-0.29632,2.96225z"/></g></g><g><g><path d="M345.68394,139.25807l0.29632,-2.96225l3.86183,0.38626l-0.29632,2.96224z"/><path d="M339.41763,138.63134l0.29632,-2.96224l3.86183,0.38625l-0.29632,2.96225z"/></g><g><path d="M333.38789,138.02821l0.29632,-2.96224l3.86183,0.38626l-0.29632,2.96224z"/><path d="M327.12161,137.40146l0.29632,-2.96224l3.86182,0.38623l-0.29632,2.96225z"/></g></g></g><g><g><g><path d="M326.88516,137.37788l0.29632,-2.96224l3.86183,0.38626l-0.29632,2.96224z"/><path d="M320.61893,136.75108l0.29632,-2.96224l3.86184,0.38626l-0.29632,2.96224z"/></g><g><path d="M314.58912,136.148l0.29632,-2.96225l3.86183,0.38626l-0.29632,2.96224z"/><path d="M308.32283,135.52123l0.29632,-2.96224l3.86182,0.38623l-0.29632,2.96225z"/></g></g><g><g><path d="M302.17487,134.90634l0.29632,-2.96225l3.86184,0.38626l-0.29632,2.96224z"/><path d="M295.90855,134.27958l0.29632,-2.96224l3.86184,0.38626l-0.29632,2.96225z"/></g><g><path d="M289.87875,133.6765l0.29632,-2.96224l3.86183,0.38625l-0.29632,2.96225z"/><path d="M283.61249,133.0497l0.29632,-2.96224l3.86184,0.38626l-0.29632,2.96224z"/></g></g></g></g><g><g fill="#685d63" stroke-width="0"><g><g><path d="M277.4242,132.43081l0.29632,-2.96225l3.86184,0.38626l-0.29632,2.96224z"/><path d="M271.15797,131.804l0.29632,-2.96224l3.86184,0.38626l-0.29632,2.96225z"/></g><g><path d="M265.12816,131.20095l0.29632,-2.96224l3.86184,0.38626l-0.29632,2.96225z"/><path d="M258.86194,130.57415l0.29632,-2.96224l3.86183,0.38625l-0.29632,2.96225z"/></g></g><g><g><path d="M252.71392,129.95927l0.29632,-2.96225l3.86184,0.38626l-0.29632,2.96224z"/><path d="M246.44763,129.33244l0.29632,-2.96224l3.86184,0.38626l-0.29632,2.96225z"/></g><g><path d="M240.41776,128.72936l0.29632,-2.96224l3.86184,0.38626l-0.29632,2.96225z"/><path d="M234.15153,128.10268l0.29632,-2.96224l3.86183,0.38625l-0.29632,2.96224z"/></g></g></g><g><g fill="#685d63" stroke-width="0"><g><path d="M233.91511,128.07899l0.29632,-2.96225l3.86184,0.38626l-0.29632,2.96224z"/><path d="M227.64882,127.45224l0.29632,-2.96224l3.86183,0.38625l-0.29632,2.96225z"/></g><g><path d="M221.61903,126.84914l0.29632,-2.96224l3.86183,0.38625l-0.29632,2.96225z"/><path d="M215.35279,126.22234l0.29632,-2.96224l3.86183,0.38625l-0.29632,2.96224z"/></g></g><g fill="none" stroke-width="1" font-family="sans-serif" font-weight="normal" font-size="12" text-anchor="start"><g/><g/></g></g></g><path d="M207.20774,125.15732l2.95476,-2.45443l3.04011,0.30409l-0.27232,2.72275z" data-paper-data="{&quot;index&quot;:null}" fill="#685d63" stroke-width="0"/></g><path d="M260.56331,163.54439l-2.56609,0.01473c0,0 1.92612,-2.38768 11.58587,-2.55488c7.32349,-0.12672 27.9152,0.61483 40.23871,1.09797c5.72271,0.22433 62.83989,-3.10966 62.83989,-3.10966l5.17441,0.50316c0,0 -62.46867,4.44973 -68.18483,4.2027c-12.64001,-0.54627 -33.89682,-1.429 -40.07249,-1.4653c-3.3618,-0.01974 -9.01535,1.3113 -9.01535,1.3113z" fill="#70475c" stroke-width="0"/><path d="M359.07897,192.52056l-5.08308,1.34661l1.8848,-18.83731c0,0 7.74796,0.82362 15.32532,1.62906c21.75233,2.31221 126.29551,13.42488 126.29551,13.42488l-0.66952,6.69383z" fill="#5a5959" stroke-width="0"/><path d="M358.00637,194.04981l1.38463,-2.88256l137.46404,5.50269l-12.88316,9.97895z" fill="#4b4a4a" stroke-width="0"/><path d="M480.72114,206.1337c0,0 -5.556,-3.79655 -8.43126,-5.51934c-1.54087,-0.92324 -7.47945,-4.01394 -7.47945,-4.01394c0,0 7.67274,3.68563 10.90637,4.9618c1.15403,0.45546 2.19815,1.30637 3.44312,1.96168c0.40148,0.21129 2.49043,-2.35272 4.55055,-3.86957c0.61578,-0.45339 1.73397,0.02482 2.28968,-0.25206c1.27391,-0.63472 1.73976,-1.68499 1.73976,-1.68499c0,0 0.24327,0.95851 -1.09043,2.04498c-0.36385,0.29647 -2.19293,0.4676 -2.55262,0.79376c-1.44156,1.30734 -2.59752,2.79875 -2.95998,3.35664c-1.01146,1.55687 1.04033,2.36672 1.04033,2.36672z" fill="#414040" stroke-width="0"/><path d="M199.28627,146.37725l4.90087,-10.66395l7.03347,0.0761c0,0 -1.20948,2.54043 -1.92229,4.03768c-0.17953,0.37708 11.75066,-0.39557 12.03415,0.30719c0.52602,1.30379 -5.39262,4.49049 -5.84095,5.43206c-0.51253,1.07651 -9.21317,0.60403 -9.21317,0.60403z" fill="#303030" stroke-width="0"/><path d="M199.18024,145.99473l4.71376,-9.8434c0,0 2.85545,1.59672 2.7574,2.57678c-0.17838,1.78332 -2.32546,7.38456 -2.32546,7.38456z" fill="#252525" stroke-width="0"/><path d="M353.71362,196.50788l0.29382,-2.93776l5.79019,-2.38801l-1.52582,2.81449c0,0 -1.21789,1.22013 -2.01953,1.66179c-0.70539,0.38862 -2.53871,0.84941 -2.53871,0.84941z" fill="#383838" stroke-width="0"/><g><g fill="#4b4b4b" stroke-width="0"><g data-paper-data="{&quot;origPos&quot;:null}"><g data-paper-data="{&quot;origPos&quot;:null}"><path d="M420.38501,204.5542l0.2262,-2.26147l3.7314,0.3732l-0.2262,2.26147z" data-paper-data="{&quot;origPos&quot;:null}"/><path d="M414.17735,203.81912l0.2262,-2.26147l3.73139,0.3732l-0.2262,2.26146z" data-paper-data="{&quot;origPos&quot;:null}"/></g><g data-paper-data="{&quot;origPos&quot;:null}"><path d="M432.81172,205.91129l0.2262,-2.26147l3.7314,0.3732l-0.2262,2.26146z" data-paper-data="{&quot;origPos&quot;:null}"/><path d="M426.60403,205.17618l0.2262,-2.26146l3.73139,0.3732l-0.2262,2.26147z" data-paper-data="{&quot;origPos&quot;:null}"/></g></g><g data-paper-data="{&quot;origPos&quot;:null,&quot;index&quot;:null}"><g data-paper-data="{&quot;origPos&quot;:null}"><path d="M451.94353,207.59647l0.2262,-2.26147l3.7314,0.3732l-0.2262,2.26146z" data-paper-data="{&quot;origPos&quot;:null}"/><path d="M458.17378,208.10539l0.22619,-2.26146l3.7314,0.3732l-0.22621,2.26145z" data-paper-data="{&quot;origPos&quot;:null}"/></g><g data-paper-data="{&quot;origPos&quot;:null}"><path d="M439.49425,206.46546l0.2262,-2.26147l3.73139,0.3732l-0.22619,2.26146z" data-paper-data="{&quot;origPos&quot;:null}"/><path d="M445.72452,206.97445l0.2262,-2.26146l3.7314,0.3732l-0.2262,2.26146z" data-paper-data="{&quot;origPos&quot;:null}"/></g></g></g><path d="M378.69598,192.09814l1.35462,-13.54353l84.05463,8.40716l-1.35462,13.54353z" data-paper-data="{&quot;origPos&quot;:null}" fill="#444444" stroke-width="0"/><path d="M378.32405,196.80678l0.47601,-4.75868l83.80758,8.38243l-0.47601,4.75869z" data-paper-data="{&quot;origPos&quot;:null}" fill="#414141" stroke-width="0"/><path d="M378.21697,198.22742l0.16102,-1.60959l83.79689,8.38136l-0.16099,1.60959z" data-paper-data="{&quot;origPos&quot;:null}" fill="#3f3f3f" stroke-width="0"/><g stroke-width="0"><g data-paper-data="{&quot;origPos&quot;:null}" fill="#5a5a5a"><g data-paper-data="{&quot;origPos&quot;:null}"><path d="M421.7449,196.48373l1.36844,-13.68173l3.55369,0.35546l-1.36844,13.68173z" data-paper-data="{&quot;origPos&quot;:null}"/></g><g data-paper-data="{&quot;origPos&quot;:null}"><path d="M427.78622,197.08798l1.36844,-13.68173l3.5537,0.35546l-1.36844,13.68173z" data-paper-data="{&quot;origPos&quot;:null}"/><path d="M434.0052,197.70994l1.36846,-13.68173l3.55369,0.35546l-1.36844,13.68173z" data-paper-data="{&quot;origPos&quot;:null}"/></g></g><g data-paper-data="{&quot;origPos&quot;:null}" fill="#5a5a5a"><g data-paper-data="{&quot;origPos&quot;:null}"><path d="M440.57954,198.36752l1.36844,-13.68173l3.55369,0.35546l-1.36845,13.68173z" data-paper-data="{&quot;origPos&quot;:null}"/><path d="M446.79847,198.98955l1.36844,-13.68173l3.5537,0.35546l-1.36846,13.68173z" data-paper-data="{&quot;origPos&quot;:null}"/></g><g data-paper-data="{&quot;origPos&quot;:null}"><path d="M452.83978,199.59378l1.36846,-13.68173l3.55369,0.35546l-1.36846,13.68173z" data-paper-data="{&quot;origPos&quot;:null}"/><path d="M459.05878,200.21579l1.36846,-13.68173l3.55369,0.35546l-1.36844,13.68173z" data-paper-data="{&quot;origPos&quot;:null}"/></g></g><path d="M425.35964,196.84527l-1.06661,1.83394l-5.21964,-0.47878l0.8363,-9.76171l3.14508,-5.6427l-1.29983,13.68859z" fill="#3a3a3a"/><path d="M431.39849,197.44922l-1.06661,1.83394l-5.21966,-0.47876l0.83631,-9.76171l3.14508,-5.64269l-1.29983,13.68858z" fill="#3a3a3a"/><path d="M437.57458,198.06699l-1.06661,1.83394l-5.21965,-0.47876l0.8363,-9.76171l3.14508,-5.64269l-1.29983,13.68859z" fill="#3a3a3a"/><path d="M444.23102,198.73277l-1.06661,1.83394l-5.21965,-0.47876l0.8363,-9.76171l3.14508,-5.64269l-1.29983,13.68859z" fill="#3a3a3a"/><path d="M450.47574,199.3574l-1.06661,1.83394l-5.21965,-0.47876l0.8363,-9.76171l3.14508,-5.64269l-1.29983,13.68858z" fill="#3a3a3a"/><path d="M456.44593,199.9545l-1.06661,1.83394l-5.21964,-0.47878l0.8363,-9.76171l3.14508,-5.64269l-1.29983,13.68859z" fill="#3a3a3a"/><path d="M462.6985,200.5799l-1.06661,1.83394l-5.21965,-0.47876l0.83631,-9.76171l3.14508,-5.6427l-1.29983,13.68859z" fill="#3a3a3a"/></g><g stroke-width="0"><g data-paper-data="{&quot;origPos&quot;:null}" fill="#5a5a5a"><g data-paper-data="{&quot;origPos&quot;:null}"><path d="M378.73053,192.18142l1.36846,-13.68173l3.5537,0.35546l-1.36844,13.68173z" data-paper-data="{&quot;origPos&quot;:null}"/></g><g data-paper-data="{&quot;origPos&quot;:null}"><path d="M384.77175,192.78573l1.36844,-13.68173l3.55369,0.35546l-1.36844,13.68173z" data-paper-data="{&quot;origPos&quot;:null}"/><path d="M390.99071,193.40769l1.36844,-13.68173l3.5537,0.35546l-1.36846,13.68173z" data-paper-data="{&quot;origPos&quot;:null}"/></g></g><g data-paper-data="{&quot;origPos&quot;:null}" fill="#5a5a5a"><g data-paper-data="{&quot;origPos&quot;:null}"><path d="M397.5651,194.06529l1.36846,-13.68173l3.55371,0.35546l-1.36844,13.68173z" data-paper-data="{&quot;origPos&quot;:null}"/><path d="M403.78413,194.68728l1.36844,-13.68173l3.5537,0.35546l-1.36846,13.68173z" data-paper-data="{&quot;origPos&quot;:null}"/></g><g data-paper-data="{&quot;origPos&quot;:null}"><path d="M409.82539,195.29152l1.36844,-13.68173l3.5537,0.35546l-1.36846,13.68173z" data-paper-data="{&quot;origPos&quot;:null}"/><path d="M416.04442,195.91358l1.36846,-13.68173l3.5537,0.35546l-1.36845,13.68173z" data-paper-data="{&quot;origPos&quot;:null}"/></g></g><path d="M382.34522,192.54299l-1.06661,1.83394l-2.72049,-0.22879l0.18245,-1.96575z" fill="#3a3a3a"/><path d="M388.38405,193.147l-1.06661,1.83394l-5.21965,-0.47876l0.83631,-9.76171l3.14508,-5.64269l-1.29983,13.68859z" fill="#3a3a3a"/><path d="M394.56009,193.76468l-1.06661,1.83394l-5.21965,-0.47876l0.83628,-9.7617l3.14508,-5.6427l-1.29983,13.68859z" fill="#3a3a3a"/><path d="M401.21655,194.43044l-1.06661,1.83394l-5.21965,-0.47876l0.83631,-9.76171l3.14508,-5.64269l-1.29983,13.68859z" fill="#3a3a3a"/><path d="M407.46134,195.05511l-1.06661,1.83394l-5.21964,-0.47878l0.8363,-9.76171l3.14508,-5.64269l-1.29983,13.68859z" fill="#3a3a3a"/><path d="M413.43153,195.65217l-1.06661,1.83394l-5.21964,-0.47878l0.8363,-9.76171l3.14508,-5.6427l-1.29983,13.68859z" fill="#3a3a3a"/><path d="M419.68415,196.27759l-1.06661,1.83394l-5.21964,-0.47878l0.8363,-9.76171l3.14508,-5.64269l-1.29983,13.68859z" fill="#3a3a3a"/></g><g><g data-paper-data="{&quot;origPos&quot;:null}"><g data-paper-data="{&quot;origPos&quot;:null}" fill="none" stroke-width="1" font-family="sans-serif" font-weight="normal" font-size="12" text-anchor="start"/><g data-paper-data="{&quot;origPos&quot;:null}" fill="#4b4b4b" stroke-width="0"><path d="M384.31022,201.1375l0.2262,-2.26147l3.73139,0.3732l-0.22619,2.26146z" data-paper-data="{&quot;origPos&quot;:null}"/><path d="M378.10251,200.40242l0.2262,-2.26147l3.73139,0.3732l-0.2262,2.26147z" data-paper-data="{&quot;origPos&quot;:null}"/></g></g><g data-paper-data="{&quot;origPos&quot;:null,&quot;index&quot;:null}" fill="#4b4b4b" stroke-width="0"><g data-paper-data="{&quot;origPos&quot;:null}"><path d="M403.44206,202.8226l0.2262,-2.26146l3.7314,0.3732l-0.2262,2.26146z" data-paper-data="{&quot;origPos&quot;:null}"/><path d="M409.67234,203.33157l0.22621,-2.26145l3.7314,0.3732l-0.2262,2.26146z" data-paper-data="{&quot;origPos&quot;:null}"/></g><g data-paper-data="{&quot;origPos&quot;:null}"><path d="M390.99273,201.69169l0.2262,-2.26147l3.7314,0.3732l-0.2262,2.26146z" data-paper-data="{&quot;origPos&quot;:null}"/><path d="M397.22304,202.20058l0.2262,-2.26147l3.7314,0.3732l-0.2262,2.26147z" data-paper-data="{&quot;origPos&quot;:null}"/></g></g></g></g><path d="M212.06198,146.05317l1.45399,-4.09069c0,0 4.90143,-2.67295 8.42997,-2.47077c4.03379,0.23111 33.85144,3.23855 33.85144,3.23855c0,0 0.47204,1.93233 0.29825,3.13821c-0.22389,1.55363 -2.6345,4.39245 -2.6345,4.39245z" fill="#242424" stroke-width="0"/><path d="M237.20343,144.73873l0.31352,-3.13464l17.91242,1.79153l-0.31352,3.13464z" fill="#313131" stroke-width="0"/><path d="M233.73386,146.332l0.06492,-0.64901c0,0 1.16719,-0.93967 2.18517,-0.83785c0.96667,0.09673 3.09652,0.787 5.51997,1.19359c4.6167,0.77447 10.20699,1.43586 10.20699,1.43586l-0.06492,0.64901c0,0 -5.40114,-0.54227 -9.953,-1.30973c-2.48373,-0.41874 -4.68405,-1.21068 -5.68681,-1.31097c-1.05403,-0.10543 -2.27228,0.82912 -2.27228,0.82912z" fill="#616161" stroke-width="0"/><path d="M262.29588,133.39943l12.32907,4.27485l30.16907,8.35207c0,0 0.70718,0.29603 -7.27875,-1.23457c-2.71666,-0.52072 -13.14205,-3.18047 -22.12971,-5.99179c-2.43194,-0.76069 -15.35744,-5.51146 -15.35744,-5.51146z" fill="#df8cb7" stroke-width="0"/><path d="M81.477,121.68189l0.59043,-5.90362c0,0 5.91588,-1.17 9.70082,-0.79142c3.0986,0.30994 11.19006,4.64262 11.19006,4.64262l-1.35539,12.19637z" fill="#626061" stroke-width="0"/><path d="M195.96654,143.16866l3.52801,2.87135l12.31803,-0.0977l50.49303,5.05034l-0.10853,1.08566c0,0 -37.86282,-3.93297 -49.73317,-4.85677c-3.25898,-0.2536 -12.98199,-0.50163 -12.98199,-0.50163z" fill="#ffa6d4" stroke-width="0"/><path d="M72.24634,185.00794l0.71356,-7.13402l24.9665,-14.21605l-2.95966,13.44109l-14.81099,8.70008z" fill="#3f3d3e" stroke-width="0"/><path d="M71.12794,179.81068c0,0 2.14245,-19.53562 3.89796,-28.99115c1.9813,-10.67207 7.39446,-31.83453 7.39446,-31.83453c0,0 8.59065,0.66897 11.99114,2.66311c2.91036,1.70667 7.17114,8.57423 7.17114,8.57423l-3.3392,33.385c0,0 -13.16122,12.45008 -16.4158,14.39493c-5.00616,2.99153 -10.69967,1.80845 -10.69967,1.80845z" fill="#555354" stroke-width="0"/><path d="M81.21554,129.51585c0,0 -0.93608,-6.11643 1.38825,-8.59461c2.32432,-2.47821 6.75348,-3.05719 9.30104,-2.80239c2.03226,0.20325 6.23013,0.70224 8.64552,5.42461c2.41543,4.72234 -0.15849,11.16822 -0.15849,11.16822c0,0 -5.23313,-10.97904 -7.73447,-11.65676c-3.52962,-0.95634 -11.44193,6.46096 -11.44193,6.46096z" fill="#6f6b6c" stroke-width="0"/><path d="M69.19727,184.51372c0,0 4.29983,-25.7625 5.43882,-37.14945c1.1861,-11.85861 3.0348,-32.49553 3.0348,-32.49553c0,0 1.21447,-0.52471 2.25015,-0.42116c0.94698,0.09469 2.44204,0.89046 2.44204,0.89046c0,0 -2.11966,19.03886 -3.18405,29.68052c-1.23664,12.36376 -6.56906,39.83645 -6.56906,39.83645z" fill="#333232" stroke-width="0"/><path d="M68.72446,184.91231l2.55257,-14.52635c0,0 0.96151,0.9895 1.56179,1.01064c0.758,0.02676 2.56976,-1.23669 2.56976,-1.23669l-2.73465,15.14737z" fill="#2e2d2d" stroke-width="0"/><path d="M97.96738,151.39637c-0.81258,8.12409 -5.77895,16.33855 -10.41387,18.81696c-3.84944,2.05842 -11.98347,8.03648 -11.17085,-0.08759c0.1724,-1.7235 3.38858,-13.34043 4.21603,-20.3226c1.09428,-9.23378 -0.04757,-14.35372 1.18728,-17.07598c2.23291,-4.92225 7.87597,-5.84466 10.07948,-5.62427c4.34357,0.43447 6.91457,16.16938 6.10199,24.29346z" fill="#585758" stroke-width="0"/><path d="M130.85648,168.83922l-0.41638,-1.79108c0,0 8.03468,-0.55368 14.07102,-0.43645c8.49772,0.16496 32.10607,1.33292 32.10607,1.33292l1.65953,1.45358c0,0 -25.14723,-0.88674 -33.89411,-0.98986c-2.56882,-0.03027 -13.52609,0.43093 -13.52609,0.43093z" fill="#585657" stroke-width="0"/><path d="M123.68162,181.38796l6.52663,-13.10689l7.30096,-0.22517c0,0 -2.15875,4.1191 -2.148,4.87912c0.05116,3.63144 0.64791,27.77774 0.64791,27.77774c0,0 -1.51394,0.2912 -2.51078,-1.69341c-1.7886,-3.56101 -2.93206,-10.57161 -4.4662,-12.8382c-1.32548,-1.95832 -5.3505,-4.79315 -5.3505,-4.79315z" fill="#5a5759" stroke-width="0"/><path d="M139.21454,151.98381l4.00247,-10.98952l2.33281,0.12167l-5.13022,11.10002z" fill="#a5a0a2" stroke-width="0"/><path d="M146.0784,151.58145l0.1396,-1.39582l26.36471,2.63698l-0.1396,1.39581z" fill="#494748" stroke-width="0"/><path d="M146.29386,148.61686l0.1396,-1.39582l26.36471,2.63698l-0.1396,1.39582z" fill="#494748" stroke-width="0"/><path d="M124.72684,168.97927l2.00427,-20.03838l13.14364,-8.34958l4.85154,0.17194l-20.45589,40.98113l-5.38399,-2.55185z" fill="#dbd5d8" stroke-width="0"/><path d="M97.17412,178.1973l1.01634,-11.74797l26.60074,1.86721c0,0 0.07608,2.55805 -0.13293,3.33954c-0.52096,1.94829 -3.20876,8.65194 -3.20876,8.65194z" fill="#ccc6c9" stroke-width="0"/><path d="M102.07872,167.24063l0.03139,-0.31423l22.79013,1.4067l-2.71033,0.91913c0,0 -4.31873,-0.24482 -7.01082,-0.54603c-3.68622,-0.41237 -13.10044,-1.46558 -13.10044,-1.46558z" fill="#d8d1d5" stroke-width="0"/><path d="M105.94863,163.87227l1.69187,-16.91556l16.04496,1.60483l-1.69187,16.91556z" fill="#a39999" stroke-width="0"/><path d="M96.88201,178.33868l1.13046,-11.30292c0,0 8.15737,7.23443 12.18981,9.99003c4.03247,2.75561 10.52926,3.12401 10.52926,3.12401z" fill="#b4afb1" stroke-width="0"/><path d="M129.75683,187.69963c0,0 2.91087,1.33682 4.01586,1.30293c0.67878,-0.02089 1.98346,-1.48724 1.98346,-1.48724l0.74731,9.19323l-0.41751,4.17426c0,0 -1.96438,0.11651 -2.98006,-2.58054c-0.83801,-2.22527 -3.34905,-10.6026 -3.34905,-10.6026z" fill="#504e4f" stroke-width="0"/><path d="M123.92922,181.97189l18.5442,-40.0971l1.71451,0.37765l-18.48298,40.51547z" fill="#858183" stroke-width="0"/><path d="M111.23281,139.74259l1.67155,-1.49155c0,0 27.34356,2.08776 39.69226,3.32293c10.71779,1.07199 31.75121,3.53047 31.75121,3.53047l0.33366,1.98443c0,0 -21.1213,-2.82204 -32.41853,-3.95198c-12.90003,-1.29022 -41.0301,-3.39433 -41.0301,-3.39433z" fill="#918b8e" stroke-width="0"/><path d="M112.36843,138.61931l2.20704,-1.73038c0,0 25.79491,2.22529 38.14357,3.46036c10.71778,1.07199 31.75121,3.53047 31.75121,3.53047l0.33365,1.98443c0,0 -21.12129,-2.82204 -32.41853,-3.95199c-12.90003,-1.29022 -40.0169,-3.29302 -40.0169,-3.29302z" fill="#a59fa2" stroke-width="0"/><path d="M174.58768,165.73222l-1.3504,-5.84607c0,0 0.33051,-1.17801 0.67304,-1.25708c0.30184,-0.06974 1.27557,0.80693 1.27557,0.80693l1.3504,5.84608c0,0 -0.36211,0.84581 -0.6646,0.91565c-0.34221,0.07905 -1.28403,-0.46553 -1.28403,-0.46553z" fill="#494242" stroke-width="0"/><path d="M134.2494,164.35945l4.46933,-9.08603l3.86645,0.3867l-4.46933,9.08603z" fill="#9c989a" stroke-width="0"/><path d="M145.53833,147.62367l1.93788,-0.77893l24.3157,2.45023l1.91349,1.14606z" fill="#757274" stroke-width="0"/><path d="M145.35235,150.4304l1.9379,-0.77894l24.31569,2.45024l1.91352,1.14603z" fill="#757274" stroke-width="0"/><path d="M94.5712,177.11969l7.48656,-57.69914l1.85297,0.76895l-6.98362,58.15254z" fill="#686666" stroke-width="0"/><path d="M94.38173,177.37238l2.26915,-16.10987l1.8997,4.02753l-1.75887,13.20058z" fill="#535252" stroke-width="0"/><path d="M127.25152,157.67119c0,0 2.34695,-2.12243 2.44112,-3.0645c0.09248,-0.9245 -1.88097,-2.53622 -1.88097,-2.53622c0,0 2.92048,0.96516 2.6488,2.63474c-0.20695,1.27172 -1.47018,3.34527 -1.66684,4.43351c-0.5592,3.09416 -1.97562,10.3365 -1.97562,10.3365z" fill="#c4bec1" stroke-width="0"/><path d="M135.07966,156.533l2.9168,-9.95459l2.96956,-4.07896l-3.59311,9.24649z" fill="#aca7a9" stroke-width="0"/></g></g><g stroke-width="0"><path d="M255.32208,140.5903l2.87362,-3.05838c0,0 1.9414,-1.24932 2.73492,-0.8936c0.90472,0.40557 2.40357,3.19717 2.40357,3.19717l-0.9455,4.00774c0,0 -4.25927,-0.43357 -5.50594,-0.69226c-0.56207,-0.11661 -1.56058,-2.56067 -1.56058,-2.56067z" fill="#c0c0c0"/><path d="M211.65586,145.92201c0,0 0.11103,-2.88327 1.27824,-3.91107c1.46276,-1.28805 7.73269,-2.8842 7.73269,-2.8842l-1.17851,4.64285l-0.29072,2.9067z" fill="#838383"/><path d="M211.49195,145.83099l8.80909,-6.63754l37.37584,3.73832l-0.74454,7.44412z" fill="#999999"/><path d="M212.55126,145.27716l6.71044,-5.19912l33.60465,3.36114l-0.58133,5.8121c0,0 -4.0673,-0.40683 -9.2994,-0.93009c-3.40171,-0.3402 -7.19005,-1.78641 -10.77881,-2.14541c-3.84986,-0.38509 -7.45407,0.32175 -9.6164,0.1055c-4.23203,-0.42329 -10.03913,-1.00414 -10.03913,-1.00414z" fill="#2e2e2e"/><path d="M216.0264,145.62258l8.91486,-5.04112l12.40221,1.24048c0,0 -7.5293,1.16378 -9.97863,1.83795c-2.60028,0.71561 -6.00657,2.49601 -6.00657,2.49601z" fill="#a5899d"/><path d="M223.98709,146.30549c0,0 5.15663,-0.46121 7.60154,-0.21665c3.12398,0.31246 9.60942,1.93808 9.60942,1.93808l-9.57278,-1.29433z" fill="#adadad"/><path d="M211.59772,145.82328l7.9553,-5.98964l34.79305,3.48006l-0.06853,0.68516c0,0 -30.12648,-3.01324 -34.05349,-3.40602c-0.82136,-0.08213 -8.62625,5.23055 -8.62625,5.23055z" fill="#8a8a8a"/><path d="M257.91023,156.72235l0.97089,-9.70689l1.36427,-7.10137c0,0 1.1345,0.58572 1.62963,1.20156c0.49506,0.61582 0.76436,1.77623 0.76436,1.77623l-2.72611,14.03088z" fill="#9e9e9e"/><path d="M252.90679,151.97006c0,0 -0.69577,-2.2051 -0.67362,-3.79995c0.02982,-2.14763 1.43025,-7.55327 1.43025,-7.55327l1.96416,-0.1305c0,0 0.6763,0.86341 1.16667,0.76253c0.67608,-0.13902 2.51457,-1.51964 2.51457,-1.51964l-1.77574,12.70364z" fill="#9c9c9c"/><path d="M253.29572,153.84871c-0.66857,-1.17684 -0.29269,-2.51921 -0.29269,-2.51921l5.57013,-6.67918c0,0 1.00018,4.00318 0.90898,4.9151c-0.25933,2.59259 0.26947,7.41891 0.26947,7.41891c0,0 -2.97365,-0.21326 -3.96368,-0.75312c-1.18745,-0.64743 -1.8235,-1.2057 -2.49212,-2.38253z" fill="#888888"/><path d="M255.14464,153.25552c-0.78434,-2.08817 -1.34568,-6.62965 0.89385,-10.49271c2.23954,-3.86308 4.42979,-1.50221 4.42979,-1.50221c0,0 0.56134,4.50121 0.33113,6.80257c-0.20966,2.09638 -1.65642,6.44812 -1.65642,6.44812c0,0 -3.21397,0.83242 -3.99834,-1.25581z" fill="#b4b4b4"/><path d="M260.05159,146.01268c-0.14044,1.40409 -5.23273,0.97253 -5.09232,-0.4315c0.14044,-1.40409 3.72164,-6.47501 4.53002,-6.39413c0.31307,0.03135 0.94362,0.19673 1.03358,1.27173c0.14228,1.70067 -0.38529,4.6937 -0.4713,5.55394z" fill="#bbbbbb"/></g><g stroke-width="0"><path d="M195.87218,143.14399c0,0 -5.33809,-5.47578 -5.15165,-7.33987c0.15221,-1.52206 6.17073,-1.0438 6.17073,-1.0438l7.5007,0.82242l-5.07692,10.32495z" fill="#f399c8"/><path d="M165.33421,141.73947c0,0 -0.75647,-2.18398 -0.39373,-3.22572c0.40031,-1.14971 2.80915,-4.53165 2.80915,-4.53165l22.94222,2.10809l8.22265,9.48864z" fill="#ee96c3"/></g></g><g stroke-width="0"><g><path d="M262.31164,131.61546l0.61523,-6.15111l47.58075,4.75902l-0.61523,6.15111z" fill="#61585b"/><path d="M262.47199,128.37175l0.32949,-3.2939l47.76167,4.77713l-0.32949,3.29389c0,0 -8.59797,-0.85999 -17.43023,-1.74337c-2.76151,-0.27622 -6.79484,0.84521 -9.34652,0.58994c-3.03426,-0.30349 -6.1374,-2.13868 -8.08372,-2.33338c-5.8362,-0.58374 -12.90118,-1.29042 -12.90118,-1.29042z" fill="#494344"/><path d="M324.64973,127.9526l-7.40272,-19.76783l20.81538,2.08197l13.68249,18.22652c0,0 -5.81726,0.78635 -9.05898,0.72165c-5.00221,-0.09979 -18.03616,-1.2623 -18.03616,-1.2623z" fill="#5e555b"/><path d="M324.31,131.37081l0.55123,-5.51098c0,0 12.38203,-0.22193 17.32751,-0.5108c3.92476,-0.22925 6.77453,-0.52916 6.77453,-0.52916l5.21933,7.49543c0,0 -5.46478,1.05751 -9.63624,1.08644c-5.65208,0.0392 -20.23626,-2.03087 -20.23626,-2.03087z" fill="url(#color-5)"/><path d="M315.54481,108.17413l0.39774,-3.97637l19.05646,1.90605l3.22062,4.33823z" fill="url(#color-6)"/><path d="M323.7266,131.33751l0.12535,-1.25301c0,0 15.53982,1.47751 20.91626,1.84686c4.02022,0.27621 8.57573,-0.85287 8.57573,-0.85287l0.77051,1.22752l-8.38651,1.23198z" fill="#312c30"/><g><path d="M224.26353,110.73575l0.6563,-8.83689l93.459,9.34776l6.4798,11.98624z" fill="#8a6672"/><path d="M239.89606,120.62632c0,0 -3.14318,-3.93816 -5.78851,-5.67159c-2.64531,-1.73349 -9.6951,-2.19997 -9.6951,-2.19997l0.31933,-2.06553c0,0 12.23461,1.50144 19.21954,2.29582c16.68609,1.8975 80.46422,9.04005 80.46422,9.04005l2.95162,6.895z" fill="#755761"/><path d="M242.48255,123.38843l-2.75247,-2.88006l87.20024,8.22997l0.89286,3.1858z" fill="#694e57"/><path d="M224.7165,102.27664l0.45077,-4.5065l90.42295,8.36134l3.26713,6.01626c0,0 2.40927,3.59567 -2.84822,3.04438c-1.65508,-0.17354 -10.39542,-4.43305 -12.05467,-4.60702c-15.97935,-1.67553 -79.23788,-8.30847 -79.23788,-8.30847z" fill="#916b77"/><path d="M225.40791,97.79429l0.13296,-2.52381l89.47622,8.81l0.80189,2.48445z" fill="#9e7582"/><path d="M299.09762,105.85205c-7.96327,-1.44761 -72.20333,-8.91038 -72.20333,-8.91038l87.41787,8.74354l4.0364,7.88197c0,0 -11.2876,-6.26748 -19.25092,-7.71512z" fill="#b38f9a"/></g><path d="M273.20139,126.45801l0.91305,-9.12824l20.11188,2.01156l-0.91305,9.12825z" fill="#3a3336"/><path d="M274.02658,117.3252l0.86444,-1.44364l18.44637,1.845l0.82869,1.61296z" fill="#4b4246"/><path d="M273.39054,125.97507l0.81386,-8.137c0,0 0.52981,5.3451 3.06444,6.71043c2.53465,1.36534 15.67155,3.38193 15.67155,3.38193z" fill="#332c30"/><path d="M316.57299,110.51186l-3.30338,-6.36035c0,0 1.08423,-0.56153 1.68186,-0.50173c0.66813,0.06681 2.13906,0.88395 2.13906,0.88395l3.30338,6.36035z" fill="#757575"/><path d="M319.10722,115.52354l-4.74921,-9.13025l3.82094,0.38216l4.74921,9.13024z" fill="#5a5a5a"/><path d="M322.68919,122.36296l-4.74921,-9.13024l3.82093,0.38216l4.74921,9.13025z" fill="#505050"/><path d="M326.39164,129.4463c-0.81115,-1.55941 -3.97612,-7.64402 -3.97612,-7.64402l3.82092,0.38216l5.55331,10.93346c0,0 -2.09885,0.32824 -3.04221,0.219c-0.73582,-0.08519 -1.99824,-3.20301 -2.35589,-3.89063z" fill="#3b3b3b"/><path d="M222.47051,113.16754l1.85855,-18.58201l3.16516,0.31657l-1.85855,18.58201z" fill="#443e42"/><path d="M203.52896,112.87996l-0.09236,-5.96684l20.12812,2.01317l-0.58997,5.89859z" fill="url(#color-7)"/><path d="M203.37385,107.5406l1.07952,-10.79312l20.12812,2.01317l-1.07952,10.79313z" fill="#5e555b"/><path d="M204.44079,96.87316l1.21023,-4.06195l19.3321,1.93356l-0.41426,4.14158z" fill="url(#color-8)"/><path d="M274.78702,99.9244l0.61038,-6.10289l14.8415,2.55641l4.13041,5.14773z" fill="#5e555b"/><path d="M294.33395,101.87947l-4.10387,-5.41308c0,0 2.93248,0.98734 5.05033,2.20242c2.11783,1.21505 5.51023,3.85642 5.51023,3.85642z" fill="#776b73"/><path d="M271.66473,100.77346l3.30798,-0.91979l25.49948,2.28248l3.47597,1.86634z" fill="#6d6269"/></g><g><path d="M275.03584,122.65159c0.12427,-1.24261 0.74723,-2.3428 1.23633,-3.32856c0.68158,-1.37366 1.39932,-2.4956 2.77084,-3.20884c0.8378,-0.43569 2.00814,-0.70993 3.0161,-0.8507c0.66663,-0.09308 1.70069,-0.3917 2.40021,-0.32175c1.58579,0.15858 1.91827,0.274 3.01292,0.88201c0.6594,0.36625 2.24603,0.97627 2.71145,1.69831c0.39395,0.61111 0.77294,1.60231 1.04533,2.31254c0.46542,1.2138 1.07837,3.14893 0.94016,4.53066c-0.05838,0.58392 -0.68109,1.86679 -0.78183,2.37471c-0.31977,1.61263 -0.37121,2.11965 -1.68844,3.09689c-0.80065,0.59395 -2.35492,0.98908 -3.37467,1.29905c-1.05603,0.32109 -2.41167,1.05587 -3.57862,0.93915c-0.78754,-0.07876 -2.1553,-0.75322 -2.90476,-0.96509c-1.62592,-0.45961 -2.49618,-0.72194 -3.40707,-1.95891c-0.78117,-1.06073 -0.88139,-2.67706 -1.10877,-4.06417c-0.11942,-0.72871 -0.36626,-1.66555 -0.2893,-2.43541z" fill="#3a3a3a"/><path d="M275.77508,122.6063c0.11375,-1.13718 0.68383,-2.14389 1.13137,-3.04599c0.62371,-1.25701 1.28048,-2.28369 2.53564,-2.9364c0.76661,-0.39866 1.83768,-0.64964 2.76,-0.77845c0.61008,-0.08516 1.55639,-0.35847 2.19638,-0.29445c1.45116,0.14513 1.7554,0.25074 2.75714,0.80708c0.60339,0.33514 2.05528,0.89343 2.48124,1.55408c0.36053,0.55923 0.70736,1.46633 0.95657,2.11625c0.42591,1.11078 0.98681,2.88158 0.8603,4.14597c-0.05343,0.53432 -0.62325,1.70825 -0.71547,2.17313c-0.2926,1.47572 -0.3397,1.93965 -1.54513,2.83391c-0.73267,0.54353 -2.15501,0.90502 -3.08811,1.18876c-0.9664,0.29382 -2.20694,0.96625 -3.27479,0.85948c-0.72069,-0.07207 -1.97233,-0.68927 -2.65812,-0.88308c-1.48785,-0.42051 -2.28424,-0.66064 -3.11785,-1.7926c-0.71481,-0.97071 -0.80655,-2.4498 -1.01456,-3.71915c-0.10922,-0.66684 -0.33515,-1.52418 -0.26473,-2.22859z" fill="#5a5a5a"/><path d="M288.35727,119.31282c-1.79734,-2.57747 -6.84558,-3.28397 -6.84558,-3.28397c0,0 1.98636,-0.34405 3.966,-0.13904c1.60354,0.16604 3.13182,0.68516 4.15611,2.09509c1.02516,1.41108 1.2693,2.92761 1.41577,4.34473c0.28725,2.77836 -0.38656,5.11572 -0.38656,5.11572c0,0 -0.50843,-5.55502 -2.30578,-8.13244z" fill="#6d6d6d"/><path d="M282.55731,123.77655c0.05727,-0.57286 0.56809,-0.99078 1.14103,-0.93352c0.57286,0.05727 0.99078,0.56809 0.93352,1.14104c-0.05727,0.57286 -0.56809,0.99078 -1.14103,0.93351c-0.57286,-0.05727 -0.99078,-0.56809 -0.93351,-1.14103z" fill="#272727"/><path d="M282.46509,123.90487c0.05259,-0.52545 0.52107,-0.90873 1.04648,-0.85621c0.52545,0.05259 0.90873,0.52107 0.85621,1.04648c-0.05259,0.52545 -0.52107,0.90873 -1.04647,0.85621c-0.52545,-0.05259 -0.90873,-0.52107 -0.85621,-1.04647z" fill="#131313"/></g></g></g></g></g><path d="M183.10239,224.40301c0.15772,-1.57684 0.16264,-44.415 0.82222,-46.03254c0.89059,-2.18398 9.19518,0.004 12.29474,-1.20128c9.49271,-3.69148 19.71349,-7.27918 19.71349,-7.27918c0,0 13.94078,1.97771 18.15622,2.39942c3.15239,0.31529 65.01177,-2.03013 64.72226,8.31392c-0.39269,14.03052 -42.5381,-1.9617 -43.74539,10.1087c-0.30564,3.05565 2.07268,3.48999 1.19653,6.56536c-0.2103,0.73808 -3.06575,5.6572 -3.45577,7.30267c-0.61914,2.61189 2.2613,6.9225 -1.34085,9.67695c-2.87141,2.19569 -1.44834,7.37993 -2.20496,8.52593c-5.21367,7.8973 -13.12257,3.28281 -22.0907,2.38585c-10.63298,-1.06349 -26.47646,1.09378 -35.69028,-1.07133c-3.97725,-0.93464 -8.83657,4.89563 -8.37749,0.30577z" fill="#86c8f5" stroke-width="0"/></g></g></svg>