<svg version="1.1" xmlns="http://www.w3.org/2000/svg" xmlns:xlink="http://www.w3.org/1999/xlink" width="466.09504" height="171.52713" viewBox="0,0,466.09504,171.52713"><defs><linearGradient x1="527.02613" y1="217.62542" x2="525.91108" y2="222.30601" gradientUnits="userSpaceOnUse" id="color-1"><stop offset="0" stop-color="#1f1d20"/><stop offset="1" stop-color="#202022"/></linearGradient><linearGradient x1="528.57888" y1="213.00437" x2="527.29589" y2="218.38987" gradientUnits="userSpaceOnUse" id="color-2"><stop offset="0" stop-color="#302d31"/><stop offset="1" stop-color="#1f1e20"/></linearGradient><linearGradient x1="191.76839" y1="182.18104" x2="190.98276" y2="185.47878" gradientUnits="userSpaceOnUse" id="color-3"><stop offset="0" stop-color="#585758"/><stop offset="1" stop-color="#575758"/></linearGradient><linearGradient x1="176.67652" y1="188.94624" x2="176.05977" y2="191.53518" gradientUnits="userSpaceOnUse" id="color-4"><stop offset="0" stop-color="#363536"/><stop offset="1" stop-color="#353536"/></linearGradient><linearGradient x1="337.64639" y1="131.89556" x2="336.3629" y2="137.28325" gradientUnits="userSpaceOnUse" id="color-5"><stop offset="0" stop-color="#5e555b"/><stop offset="1" stop-color="#2b2629"/></linearGradient><linearGradient x1="332.94394" y1="109.52995" x2="332.01784" y2="113.41735" gradientUnits="userSpaceOnUse" id="color-6"><stop offset="0" stop-color="#72676e"/><stop offset="1" stop-color="#5e555b"/></linearGradient><linearGradient x1="219.84132" y1="96.87318" x2="218.46751" y2="102.63983" gradientUnits="userSpaceOnUse" id="color-7"><stop offset="0" stop-color="#5e555b"/><stop offset="1" stop-color="#4d454a"/></linearGradient><linearGradient x1="223.14423" y1="83.00891" x2="222.17963" y2="87.05784" gradientUnits="userSpaceOnUse" id="color-8"><stop offset="0" stop-color="#74686f"/><stop offset="1" stop-color="#5e555b"/></linearGradient></defs><g transform="translate(-66.06638,-80.85042)"><g data-paper-data="{&quot;isPaintingLayer&quot;:true}" fill-rule="nonzero" stroke="none" stroke-linecap="butt" stroke-linejoin="miter" stroke-miterlimit="10" stroke-dasharray="" stroke-dashoffset="0" style="mix-blend-mode: normal"><path d="M356.76909,239.89282c-0.60519,8.65238 -5.36701,13.51653 -22.76259,12.29977c-6.4524,-0.45131 -17.45422,-2.79783 -22.56339,-2.4486c-3.79717,0.25954 -7.15103,2.24443 -9.39507,0.19735c-2.87681,-2.62432 -1.38647,-22.41969 -1.17261,-25.47746c0.60519,-8.65238 23.47577,-14.09204 40.87131,-12.87529c17.39557,1.21675 15.62751,19.65185 15.02233,28.30424z" fill="#86c8f5" stroke-width="0"/><g><g><g stroke-width="0"><path d="M254.9591,181.82398l-6.39549,-17.29833l25.01597,5.35287c0,0 -2.41935,5.41557 -3.23921,7.99431c-0.79303,2.4945 -1.60204,7.2338 -1.60204,7.2338z" fill="#7f7d7e"/><path d="M255.00925,182.0382l-2.24112,-6.29774c0,0 1.47049,4.00488 4.47606,5.35281c2.16431,0.97064 4.07096,1.10625 6.60505,2.03973c2.5341,0.93348 4.74788,2.1423 4.74788,2.1423z" fill="#6c6a6b"/></g><g><g><g><path d="M523.0014,221.61284l-0.88787,-5.15776c0,0 5.44416,3.0012 7.76393,4.4717c2.31977,1.47049 0.55986,2.21914 0.55986,2.21914z" fill="url(#color-1)" stroke-width="0"/><path d="M532.01958,214.02926c0,0 0.89988,2.6073 -1.83366,2.87396c-2.73359,0.26665 -5.84103,0.78362 -5.84103,0.78362l0.33877,-5.61046z" data-paper-data="{&quot;index&quot;:null}" fill="url(#color-2)" stroke-width="0"/><path d="M513.64642,219.37947l0.48632,-2.04122l14.37039,3.42347c0,0 1.03926,1.06412 1.42893,1.53347c0.35028,0.42192 -0.93252,0.7419 -0.93252,0.7419z" fill="#444444" stroke-width="NaN"/><path d="M514.13224,217.48558l-0.7518,-1.98208l12.27221,2.92362l2.92106,2.38393c0,0 -4.15818,-0.74595 -6.40429,-1.26317c-2.53314,-0.58332 -8.03722,-2.06233 -8.03722,-2.06233z" fill="#535353" stroke-width="0"/><path d="M513.23969,215.61051l-0.16759,-0.69782l11.16141,2.65899l1.51776,0.902z" fill="#363636" stroke-width="0"/><path d="M513.64642,219.37947l0.2638,-1.10736c0,0 6.17279,1.93686 8.97419,2.60422c2.37393,0.56553 6.76506,1.14537 6.76506,1.14537c0,0 0.73348,0.64993 0.92705,0.90458c0.16331,0.21485 -0.35157,0.40275 -0.35157,0.40275c0,0 -4.69764,-0.70335 -6.9484,-1.23951c-3.03658,-0.72341 -9.63012,-2.71002 -9.63012,-2.71002z" fill="#3a3a3a" stroke-width="NaN"/><path d="M513.38004,215.00481l-0.33364,-0.98794l13.27026,3.16138l-1.98468,0.47052z" fill="#242424" stroke-width="0"/><path d="M512.2165,214.01369l0.38338,-1.60928c0,0 7.9208,1.67501 10.83499,2.36927c1.98546,0.47303 4.95951,1.39348 4.95951,1.39348l-2.10944,1.02849z" fill="#3a3a3a" stroke-width="0"/><path d="M512.46396,212.41581l0.47336,-1.98693c0,0 7.52138,1.4527 10.74542,2.22076c2.7899,0.66465 7.48547,2.12241 7.48547,2.12241l-2.82571,1.42654c0,0 -3.53631,-0.92721 -5.71961,-1.44737c-2.90215,-0.69137 -10.15891,-2.33541 -10.15891,-2.33541z" fill="#444444" stroke-width="0"/><path d="M512.87563,210.5016l0.19725,-0.82789c0,0 7.68814,1.70437 11.18742,2.53804c2.43661,0.58048 7.79956,1.98525 7.79956,1.98525l-1.03872,0.62742c0,0 -4.84951,-1.45206 -7.73401,-2.13922c-3.17796,-0.75712 -10.41152,-2.18361 -10.41152,-2.18361z" fill="#535353" stroke-width="0"/><path d="M512.9271,209.7265l0.07891,-0.33118c0,0 7.58484,1.28573 10.951,2.08764c2.91031,0.69334 8.07801,2.44567 8.07801,2.44567l-0.04234,0.33988c0,0 -5.80706,-1.55297 -8.96375,-2.30502c-3.19794,-0.76187 -10.10177,-2.237 -10.10177,-2.237z" fill="#4e4e4e" stroke-width="0"/></g><g stroke-width="0"><g><g><g><path d="M508.0651,217.54817l-1.40645,-13.8671l0.93686,-1.54634c0,0 2.63185,3.94657 2.95197,6.58291c0.17379,1.43124 -1.06744,9.16759 -1.06744,9.16759z" fill="#383638"/><path d="M509.24786,217.11918c0,0 0.19808,-0.57955 0.15547,-3.11332c-0.04645,-2.76314 -0.55815,-6.62388 -0.69169,-7.75972c-0.2998,-2.54959 -1.0039,-2.85148 -1.0039,-2.85148l4.80414,0.54642l1.68829,14.3579z" fill="#555355"/><path d="M507.75024,203.49257l-0.27945,-1.33755c0,0 2.15059,-0.31006 3.08604,-0.08722c0.87657,0.20883 1.81237,1.1794 1.81237,1.1794l0.26258,1.40829z" fill="#686668"/></g><path d="M502.54683,216.23354l-1.40644,-13.86708l0.61039,-1.6034c0,0 2.95836,4.00363 3.27845,6.63994c0.17379,1.43123 -1.06743,9.16759 -1.06743,9.16759z" fill="#383638"/><path d="M503.72959,215.80453c0,0 0.19809,-0.57956 0.15548,-3.11332c-0.04645,-2.76314 -0.55814,-6.62387 -0.69168,-7.75972c-0.2998,-2.54959 -1.00391,-2.85148 -1.00391,-2.85148l4.19045,-0.1138c0,0 0.70752,1.45791 0.7989,2.23501c0.26036,2.21407 1.50313,12.78306 1.50313,12.78306z" fill="#555355"/><path d="M502.23196,202.1779l-0.49171,-1.38812c0,0 2.36284,-0.25949 3.29829,-0.03662c0.87657,0.20883 1.52938,1.11196 1.52938,1.11196l0.38421,1.43726z" fill="#686668"/><path d="M510.27425,216.34213c0.1899,-0.7972 0.99014,-1.28949 1.78738,-1.0996c0.79722,0.1899 1.28949,0.99014 1.09959,1.78737c-0.1899,0.7972 -0.99014,1.2895 -1.78736,1.0996c-0.79722,-0.1899 -1.28948,-0.99014 -1.0996,-1.78737z" fill="#312f31"/><path d="M511.59087,213.64451l-0.65957,-5.85888l1.58125,0.22934l0.64461,5.92164z" fill="#444144"/></g><path d="M465.43603,202.28715l-1.1539,-11.40134l28.79619,8.06956l-2.69343,9.27539z" fill="#444444"/><path d="M478.64019,201.40772c0,0 0.73963,-0.36034 1.6983,-1.26777c0.87656,-0.82965 1.95491,-2.19482 2.43656,-2.55681c1.3442,-1.43403 3.54979,-0.42868 3.54979,-0.42868l-1.10425,0.40827l-5.46866,4.10985z" fill="#292929"/><path d="M478.92316,212.29923l-3.79437,-12.18241c0,0 3.28036,1.32766 5.18074,0.70192c1.47675,-0.48628 1.9951,-3.06838 3.59461,-2.97609c4.5891,0.2648 17.2137,2.82634 17.2137,2.82634c0,0 1.49614,7.70135 1.72906,10.72469c0.16081,2.0872 -0.46598,6.49391 -0.46598,6.49391z" fill="#4a464a"/><path d="M485.98552,200.50631c-4.28926,-1.67569 -2.57155,-2.6686 -2.57155,-2.6686c0,0 1.07292,-1.08308 2.92327,-0.79252c4.54076,0.71305 12.81482,3.27723 14.49611,3.6514c0.7929,0.17646 0.17589,0.75718 0.17589,0.75718c0,0 -2.00177,1.97584 -3.56906,1.86363c-1.5673,-0.11222 -7.16543,-1.13539 -11.45466,-2.81112z" fill="#5e595e"/></g><g><path d="M465.91678,215.96002l-0.86432,-18.64332l18.32668,4.66031l3.66573,5.32279l5.95602,1.31761l-0.2229,13.74181z" fill="#4d4846"/><path d="M470.3899,217.42361l22.27033,-4.34887l21.77017,4.93714c0,0 0.30694,4.37305 0.13206,5.72387c-0.08917,0.68872 -0.83302,2.82802 -0.83302,2.82802z" fill="#423d3b"/><path d="M468.60601,208.45503l-0.81112,-10.31493l0.79817,0.19015l0.81113,10.31493z" fill="#363332"/><path d="M471.14531,216.77954l0.28213,-1.18425c0,0 5.71106,-1.25614 14.52915,0.84459c1.17163,0.27914 4.71438,3.7398 5.89528,4.02114c7.49245,1.78493 14.82607,3.53203 17.61609,4.19668c2.27219,0.54131 4.89372,-0.17055 4.89372,-0.17055l-0.58342,2.44885z" fill="#312e2c"/><path d="M476.40316,204.93536l-0.62654,-4.8938l8.08152,1.92526l3.01727,5.26387l6.08987,1.65029l-7.83471,0.1368z" fill="#585350"/><path d="M465.54608,209.57114l0.26148,-1.09748c0,0 8.69437,-1.7771 11.49327,-1.11031c4.2183,1.00494 15.86374,3.77924 15.86374,3.77924l-0.26147,1.09748c0,0 -11.84508,-2.82185 -16.06329,-3.82678c-2.74139,-0.65309 -11.29373,1.15785 -11.29373,1.15785z" fill="#2b2827"/></g></g></g><g><g><g><path d="M130.13879,173.51428c0.00834,2.29849 -0.89275,4.74584 -2.01526,4.7499c-1.12251,0.00408 -2.04139,-2.43661 -2.04974,-4.73513c-0.00834,-2.29849 -0.09833,-11.13018 1.02422,-11.13426c1.12251,-0.00408 3.03248,8.82098 3.0408,11.11953z" fill="#615e5f" stroke-width="0"/><g><path d="M177.53488,154.03901c-0.40238,-0.63825 -2.37518,-2.45733 -2.37518,-2.45733l10.31737,-0.50269l-7.50521,5.61353c0,0 -0.0346,-2.01527 -0.43695,-2.6535z" fill="#756a6a" stroke-width="0"/><path d="M169.14734,150.29616l3.18265,-13.35946l19.38837,-1.41193l-4.54219,19.06641z" fill="#8a7c7c" stroke-width="0"/><path d="M128.93912,146.31679l10.68749,-16.09472l34.01323,7.96597l1.47446,13.37241c0,0 -22.72929,-3.79468 -30.43203,-4.66941c-3.19747,-0.36311 -15.74317,-0.57424 -15.74317,-0.57424z" fill="#7c787a" stroke-width="0"/><path d="M139.18443,132.58887l0.19922,-1.47549c0,0 25.21846,6.0078 33.14645,7.89649c4.43571,1.05673 17.18484,-2.45467 17.18484,-2.45467l-0.37765,1.58527c0,0 -12.45849,3.56082 -16.74501,2.52456c-7.85987,-1.9001 -33.40784,-8.07615 -33.40784,-8.07615z" fill="#535353" stroke-width="0"/><path d="M97.5689,139.57109l4.6706,-19.60533c0,0 6.04254,-5.812 13.62161,-6.36669c9.41349,-0.6889 25.4288,4.96153 27.44309,5.44138c1.54575,0.36824 -14.97023,7.14183 -14.97023,7.14183l-4.6706,19.60535z" fill="#8d898b" stroke-width="0"/><path d="M276.50144,134.76421l2.28766,-2.68725l104.60376,25.0667l-3.41736,14.3448c0,0 -37.17983,-6.96021 -48.97148,-10.19711c-5.85609,-1.60755 -54.50252,-26.52714 -54.50252,-26.52714z" fill="#c98cac" stroke-width="0"/><path d="M232.0208,227.99422l-1.422,-13.63722c0,0 3.64491,6.87124 6.16548,8.5787c1.60591,1.08788 5.62855,2.43865 12.13783,1.48374c5.24021,-0.76874 11.54529,-4.9317 11.54529,-4.9317l-14.8041,11.75178z" fill="#a08e97" stroke-width="0"/><path d="M330.91968,203.326l3.19987,-23.52017l18.36755,2.93371l-4.9123,20.61997c0,0 -6.62162,0.18976 -9.47328,0.22822c-1.31302,0.0177 -7.18178,-0.26171 -7.18178,-0.26171z" fill="#96858d" stroke-width="0"/><path d="M229.36511,231.21222l1.28391,-5.38934c0,0 11.25545,4.80783 16.47257,2.84204c2.53903,-0.95669 23.78302,-17.414 35.50951,-26.57792c4.57623,-3.5762 7.70301,-6.04167 7.70301,-6.04167c0,0 4.14231,-2.89196 4.81418,-5.69477c0.33796,-1.40995 1.76351,-5.36598 1.49025,-7.80713c-0.27571,-2.46295 -2.25175,-3.40488 -2.25175,-3.40488l-1.59421,-14.33191l19.24326,4.73203l-8.98844,25.17568l3.06218,3.36307c0,0 -10.68541,3.62243 -16.33673,7.37051c-8.84231,5.8643 -38.63641,30.00165 -38.63641,30.00165z" fill="#918189" stroke-width="0"/><path d="M308.28877,198.29722l7.80935,-27.54393l13.33671,3.46071l7.30009,14.07715l-5.9637,15.36213z" fill="#96858d" stroke-width="0"/><path d="M303.45885,199.04752l-1.48021,-4.61442l9.51202,-24.65677l4.96119,1.09483l-7.28208,27.65189z" fill="#8f8187" stroke-width="0"/><path d="M329.54653,203.46797c0,0 4.22189,-5.84787 4.15994,-11.42486c-0.0357,-3.21123 -4.35641,-6.26539 -4.3783,-8.23397c-0.04175,-3.76049 -0.10638,-9.57805 -0.10638,-9.57805l6.62995,6.06554c0,0 1.64167,7.80673 1.23554,12.09073c-0.27283,2.87822 -3.19373,8.7368 -4.69741,11.05018c-0.12676,0.19501 -1.25161,-0.15856 -1.34014,-0.0097c-0.21627,0.36363 0.66808,0.8121 0.66808,0.8121z" fill="#86787e" stroke-width="0"/><path d="M335.29537,181.70598c0,0 -2.09014,-4.56354 -6.42,-6.59388c-4.90187,-2.29856 -21.48882,-6.49278 -21.48882,-6.49278l156.72977,22.75921l1.16687,9.84011l5.12004,12.67426c0,0 -97.45205,-25.85952 -117.47992,-30.63076c-6.5354,-1.55693 -17.62794,-1.55614 -17.62794,-1.55614z" fill="#df8db7" stroke-width="0"/><path d="M174.31903,191.95994l3.73795,-36.39437c0,0 2.5066,-3.25848 3.04412,-3.35213c5.92622,-1.03259 39.55919,-3.97008 44.78402,-2.43108c5.72351,1.68589 -11.74758,9.78613 -11.74758,9.78613c0,0 -14.48703,-1.36862 -17.94056,2.17744c-4.68883,4.81454 -3.99503,22.81902 -3.99503,22.81902z" fill="#c77da3" stroke-width="0"/><path d="M251.70369,179.62888l-1.25288,-2.46267c0,0 8.37497,-6.85223 11.27363,-8.51858c2.99257,-1.72036 6.40905,-1.64667 6.40905,-1.64667l5.24035,3.61502c0,0 -4.23774,-1.52622 -6.93489,-0.40444c-2.31538,0.96299 -6.67882,3.08832 -10.11943,5.44751c-2.5028,1.71616 -4.61584,3.96977 -4.61584,3.96977z" fill="#414041" stroke-width="0"/><path d="M139.11622,131.49703l7.37832,-10.25891l47.3046,11.26942c0,0 -3.85221,3.6625 -7.34251,4.85213c-3.42564,1.1676 -13.40891,2.22088 -13.40891,2.22088z" fill="#979395" stroke-width="0"/><path d="M140.15929,130.57063l6.60011,-10.44432l47.3046,11.26943c0,0 -3.85222,3.66249 -7.34252,4.85212c-3.42564,1.1676 -13.40892,2.22088 -13.40892,2.22088z" fill="#bdb7ba" stroke-width="0"/><path d="M331.81483,204.33803l-1.70291,-0.93354l17.3577,-0.15649c0,0 -3.94024,1.1763 -6.54126,1.37584c-2.60102,0.1996 -9.11351,-0.28583 -9.11351,-0.28583z" fill="#887980" stroke-width="0"/><path d="M176.62941,192.9878c0,0 0.14882,-10.72291 0.95917,-19.30725c0.81433,-8.62625 1.6027,-16.71034 2.41197,-20.20256c0.13712,-0.59164 4.04171,-9.87002 4.64872,-10.2614c3.27644,-2.11265 9.01297,7.21427 14.68134,7.43021c8.39298,0.31975 27.1004,4.24795 27.1004,4.24795l-9.45428,3.207c0,0 -19.58409,-1.72024 -23.10117,2.72288c-4.75717,6.00978 -2.22966,28.06881 -2.22966,28.06881z" fill="#d486ae" stroke-width="0"/><path d="M178.54563,189.82697c0,0 2.99204,-41.3026 6.61811,-50.79775c1.6966,-4.44267 0.54382,-14.08006 0.54382,-14.08006l47.67295,18.52086l-2.339,15.9625c0,0 -30.45314,-10.43467 -38.08465,-5.80317c-5.09429,3.09166 -5.01577,32.14384 -5.01577,32.14384z" fill="#e490bb" stroke-width="0"/><g stroke-width="0"><path d="M327.7997,160.62727l1.91768,-8.04962l9.10517,2.16914l-1.91768,8.04963z" fill="#454545"/><path d="M328.78663,160.07619l1.34426,-7.18207l11.01784,2.62478l-1.69131,7.09941z" fill="#b0b0b0"/><path d="M329.60267,155.6559l0.43357,-2.80622l11.2286,2.67498l-0.44203,1.85547c0,0 -7.65543,-1.49229 -9.34066,-1.75127c-0.56311,-0.08651 -1.87949,0.02701 -1.87949,0.02701z" fill="#bebebe"/><path d="M339.83134,162.14245c0,0 -4.79766,-3.76982 -3.3737,-7.28315c2.116,-5.22077 6.0142,-3.80061 6.0142,-3.80061l38.83787,10.62303l-2.33151,9.78672z" fill="#9c989a"/><path d="M341.86875,161.30251c0,0 -1.60356,-3.99944 -1.62629,-4.95762c-0.03367,-1.42033 2.59216,-3.83485 2.59216,-3.83485l40.45564,9.67208l-2.12456,7.19211z" fill="#898587"/><path d="M341.7349,161.47445l-0.54239,-2.12289l37.19093,8.86004l-0.44944,1.8866z" fill="#c1bcbf"/><path d="M342.40357,158.14481c0,0 -0.98002,-1.63975 -0.7628,-2.55157c0.20322,-0.85292 2.02686,-2.75449 2.02686,-2.75449l37.61402,8.96083l-1.26407,5.30604z" fill="#0d0d0d"/><path d="M342.22341,158.90095c0,0 -0.84009,-2.22706 -0.62286,-3.1389c0.20322,-0.85292 1.88692,-2.16716 1.88692,-2.16716l37.61402,8.96083l-1.26406,5.30605z" fill="#2e2e2e"/><path d="M337.08772,159.63402c-1.85623,-3.59501 -0.18133,-5.59791 -0.18133,-5.59791c0,0 0.82937,4.425 1.8232,5.58448c1.17668,1.37278 4.37167,3.53812 4.37167,3.53812l-3.4295,-0.74488c0,0 -2.25737,-2.14712 -2.58403,-2.77978z" fill="#7d7a7c"/><path d="M344.6809,159.80475c0,0 -0.35209,-2.35779 -0.08707,-3.47021c0.23295,-0.97785 1.5934,-2.85283 1.5934,-2.85283l4.69203,1.1178c0,0 -0.95932,2.03713 -1.16054,2.88169c-0.27656,1.1608 -0.3458,3.44133 -0.3458,3.44133z" fill="#555555"/><path d="M353.063,161.80163c0,0 1.23322,-2.29993 1.49824,-3.41234c0.23295,-0.97785 0.0081,-2.9107 0.0081,-2.9107l5.23678,1.24755c0,0 -0.80279,1.57183 -1.004,2.41641c-0.27656,1.1608 -0.50233,3.90661 -0.50233,3.90661z" fill="#555555"/><path d="M362.13575,163.96306c0,0 1.23324,-2.29994 1.49827,-3.41234c0.23295,-0.97785 0.00811,-2.91069 0.00811,-2.91069l5.15895,1.229c0,0 -0.80279,1.57183 -1.004,2.41641c-0.27656,1.1608 -0.50233,3.9066 -0.50233,3.9066z" fill="#555555"/><path d="M371.53599,166.20248c0,0 1.32378,-1.91281 1.58879,-3.02527c0.23295,-0.97785 -0.08245,-3.29776 -0.08245,-3.29776l5.00332,1.19193c0,0 0.34596,2.1196 0.14477,2.96424c-0.27656,1.1608 -1.6511,3.35882 -1.6511,3.35882z" fill="#555555"/><path d="M345.76517,154.10484l-0.46162,-0.93236l34.59446,8.24147l-1.67788,0.42267c0,0 -2.75303,-0.65587 -5.1482,-1.22646c-0.52207,-0.12439 -1.43384,-0.67953 -2.21584,-0.86587c-0.75613,-0.18015 -1.37503,0.01038 -2.31491,-0.21354c-1.46566,-0.34918 -3.11935,-0.74313 -4.85055,-1.15555c-0.71775,-0.17099 -1.25339,-0.69291 -1.98992,-0.86835c-0.65494,-0.156 -1.50965,0.03463 -2.16768,-0.12213c-1.63316,-0.38907 -3.25026,-0.77432 -4.77062,-1.13651c-0.69816,-0.16633 -1.27434,-0.75423 -1.9239,-0.90898c-0.79297,-0.18893 -1.64554,0.05861 -2.34031,-0.10691c-2.83413,-0.67516 -4.733,-1.12756 -4.733,-1.12756z" fill="#474747"/></g><g><path d="M187.01298,185.23534l4.2804,-1.92797c0,0 2.09568,3.39292 4.6451,4.92031c2.25491,1.35089 9.87676,3.77961 9.87676,3.77961l-3.59189,3.62047z" fill="#6d6a6b" stroke-width="0"/><path d="M177.667,189.69096l10.69165,-5.04478c0,0 2.62374,2.94474 4.58006,4.09125c2.95965,1.73443 11.44991,5.30288 11.44991,5.30288l-5.15951,3.19872z" fill="#615e5f" stroke-width="0"/><path d="M174.52054,211.52352l3.7883,-22.30232c0,0 4.05215,1.77946 8.73534,2.92558c3.65543,0.89459 7.7893,1.00858 10.06446,2.17598c3.9942,2.04941 33.74419,21.83829 33.74419,21.83829l0.05304,10.47221z" fill="#575455" stroke-width="0"/><path d="M201.79104,190.22152c8.03428,-3.80695 19.0015,-15.02276 20.8215,-17.23252c1.31117,-1.59196 3.20262,-6.56505 3.20262,-6.56505l5.91467,8.41459c0,0 0.94056,21.29442 -0.84184,33.8705c-0.49873,3.51889 1.03592,7.94012 -0.45786,9.09173c-1.33841,1.03182 -18.36865,-0.67134 -23.43877,-2.66537c-10.66996,-4.19635 -16.95078,-2.82504 -19.37102,-8.82462c-2.42027,-5.99956 5.94033,-10.45355 5.94033,-10.45355c0,0 6.13878,-4.64464 8.23042,-5.63576z" fill="#504e4f" stroke-width="0"/><path d="M214.07296,159.40359c0,0 0.731,-1.36041 1.71843,-1.80727c1.26992,-0.57468 5.2691,-1.35482 5.2691,-1.35482c0,0 8.63286,4.18183 10.98413,7.30166c2.16938,2.87845 -6.32296,11.42425 -6.32296,11.42425l-0.70941,-5.68042z" fill="#464445" stroke-width="0"/><path d="M225.73018,210.72985c0,0 -10.48124,3.93391 -18.77438,2.13441c-8.00043,-1.73595 -13.83152,-9.18178 -13.39783,-10.54052c0.23497,-0.73615 8.7131,-2.1142 13.07329,-5.41505c4.84678,-3.6692 5.69295,-9.3287 7.47295,-10.97136c4.96925,-4.58594 15.54317,-12.53028 15.9116,-18.65525c0.3864,-6.42342 -9.55877,-10.92457 -9.55877,-10.92457c0,0 4.26819,-1.29789 9.14823,-0.2688c2.07871,0.43836 6.18136,2.84034 6.99028,3.42881c2.65274,1.92964 4.21007,3.98272 4.21007,3.98272c0,0 4.68973,-3.89864 8.26548,-3.36491c3.57577,0.53373 21.20593,7.7639 21.20593,7.7639l-18.68783,8.49443z" fill="#555354" stroke-width="0"/><path d="M213.58077,186.42426c0,0 7.01472,-9.50596 12.87584,-13.69664c5.86114,-4.19068 10.56558,-6.33944 14.00175,-5.52083c2.48831,0.59278 3.69043,9.73566 3.69043,9.73566l-17.44252,25.41903c0,0 -14.98305,-0.19855 -15.84518,-2.95404c-0.68093,-2.17628 2.7197,-12.98315 2.7197,-12.98315z" fill="#585758" stroke-width="0"/><path d="M229.19556,218.20791c0,0 -1.36505,-6.68951 -0.34729,-9.55385c1.42179,-4.00143 5.75888,-15.9763 5.75888,-15.9763l-0.51502,10.60506c0,0 -2.88197,9.33372 -3.45503,12.31184c-0.55293,2.87341 0.32867,5.31456 0.32867,5.31456z" fill="#3f3e3f" stroke-width="0"/><path d="M232.4324,200.61382c0.19799,-1.6745 2.24461,-9.11366 2.24461,-9.11366c0,0 12.67403,-11.95632 15.32916,-14.05112c0.7784,-0.6141 4.44382,-1.52027 4.44382,-1.52027l-2.72633,4.34026c0,0 -1.67096,0.22281 -1.95661,0.64599c-0.30434,0.45084 0.18307,1.98126 0.18307,1.98126l-6.95445,7.06065c0,0 -1.83988,0.60056 -2.13129,1.05064c-0.29152,0.45019 0.17163,1.47353 0.17163,1.47353c0,0 -5.8215,7.80461 -7.20066,9.95839c-0.63765,0.99583 -0.741,2.44392 -0.741,2.44392c0,0 -0.85989,-2.59509 -0.66189,-4.26962z" fill="#474647" stroke-width="0"/><path d="M224.52299,177.17438l18.57701,12.8914c0,0 -1.39116,0.7092 -1.74681,1.17861c-0.26245,0.34636 -0.1937,1.38261 -0.1937,1.38261z" fill="#3f3e3e" stroke-width="NaN"/><path d="M232.75889,168.49374l19.19299,11.82875c0,0 -1.2801,0.56195 -1.61427,1.05423c-0.34837,0.51319 -0.23904,1.64868 -0.23904,1.64868z" fill="#3f3e3e" stroke-width="NaN"/><path d="M214.01105,193.51006c0,0 8.61855,9.96151 12.95134,17.1386c4.33283,7.17712 2.16529,7.90132 2.16529,7.90132z" fill="#636162" stroke-width="NaN"/><path d="M232.27944,174.16028c0,0 -6.51028,1.43439 -9.90226,3.80888c-3.39198,2.37449 -15.24941,16.18551 -14.56678,13.32014c0.68262,-2.86534 18.24914,-19.98146 19.99524,-19.56549c0.66095,0.15746 3.87927,-0.25007 4.62038,0.17061c1.21666,0.69063 -0.14657,2.26584 -0.14657,2.26584z" fill="#918f91" stroke-width="0"/><path d="M174.10675,211.29192l14.00085,1.3943c0,0 12.33001,2.59579 15.34537,3.47356c7.3433,2.13758 28.87442,9.39847 28.87442,9.39847l-1.89972,6.04539c0,0 -24.52405,-2.17714 -30.92589,-5.05472c-1.85203,-0.83248 -7.36712,-2.78169 -11.19364,-5.08335c-7.48835,-4.50419 -14.20136,-10.17368 -14.20136,-10.17368z" fill="#626061" stroke-width="0"/><path d="M229.53158,231.02848c0,0 1.03416,-4.16641 1.13966,-6.5466c0.11861,-2.67523 -0.46264,-8.72346 -0.46264,-8.72346l1.73381,0.41304c0,0 0.63951,4.7339 0.53213,7.15579c-0.1174,2.64796 -1.20916,8.11428 -1.20916,8.11428z" fill="#4a494a" stroke-width="0"/><path d="M229.14784,231.79679l0.87311,-3.28423c0,0 0.48997,0.38884 0.75412,0.45177c0.31382,0.07477 0.96529,-0.04214 0.96529,-0.04214l-0.56714,3.13034c0,0 -0.84987,0.21656 -1.21892,0.16995c-0.28278,-0.03568 -0.8064,-0.42571 -0.8064,-0.42571z" fill="#363536" stroke-width="0"/><path d="M230.23857,216.81955l0.00022,-1.66592c0,0 0.48815,-0.24803 0.86031,-0.22025c0.35443,0.02646 0.83419,0.26693 0.83419,0.26693l0.08555,1.80536c0,0 -0.5863,0.382 -0.89134,0.35007c-0.28735,-0.03003 -0.88895,-0.53617 -0.88895,-0.53617z" fill="#585758" stroke-width="0"/><path d="M188.92279,220.91095c0,0 -6.99592,-4.7021 -6.68004,-6.02801c0.31747,-1.33252 6.65617,-1.02603 6.65617,-1.02603c0,0 10.70176,2.30199 15.48381,3.61866c2.6772,0.73713 10.76596,3.6088 10.76596,3.6088c0,0 6.84899,2.71536 7.37499,4.02463c0.57375,1.42813 -3.8437,3.2969 -3.8437,3.2969c0,0 -12.68015,-1.6782 -16.48875,-2.79958c-1.35294,-0.39838 -13.26838,-4.69529 -13.26838,-4.69529z" fill="#6b696a" stroke-width="0"/><path d="M180.42185,211.79114l-1.96176,-0.23007c0,0 1.40532,-3.19601 3.76341,-1.35727c2.35811,1.83877 21.04993,5.25201 21.04993,5.25201z" fill="#4b4949" stroke-width="0"/><path d="M174.21105,211.16868c0,0 -1.98779,-0.2766 -1.6641,-3.94418c0.16385,-1.85649 1.76018,-16.06553 1.76018,-16.06553l4.30609,-1.9544c0,0 -0.72579,5.98855 -1.19781,8.8596c-0.62781,3.81842 -2.30634,13.31843 -2.30634,13.31843z" fill="#3f3d3e" stroke-width="0"/><path d="M180.69644,212.0271c0,0 3.60592,-1.35948 19.30329,2.03356c1.29631,0.28023 -1.7389,-0.44716 7.28739,2.22467c9.02628,2.67183 12.47755,5.04904 12.47755,5.04904c0,0 -14.40822,-4.53178 -20.44217,-5.96925c-6.87799,-1.63854 -18.62608,-3.33801 -18.62608,-3.33801z" fill="#838082" stroke-width="0"/><path d="M192.47671,184.37209c0,0 -4.75855,1.11501 -7.24879,2.18253c-2.79897,1.19986 -8.72726,4.66612 -8.72726,4.66612l-0.39193,-1.73983c0,0 4.55323,-2.87681 7.08708,-3.96304c2.77036,-1.18759 8.88896,-2.88563 8.88896,-2.88563z" fill="#4a494a" stroke-width="0"/><path d="M193.44504,184.33778l-3.85356,0.80957c0,0 0.24358,-0.6065 0.18387,-0.87152c-0.07095,-0.31492 -0.49722,-0.83592 -0.49722,-0.83592l3.47655,-1.02393c0,0 0.62181,0.64844 0.74759,0.99859c0.0964,0.26834 -0.05721,0.92317 -0.05721,0.92317z" fill="url(#color-3)" stroke-width="0"/><path d="M177.5746,190.67655l-3.50326,1.97162l0.36591,-2.15655l2.49082,-1.48542c0,0 0.6674,0.3339 0.77817,0.62004c0.10437,0.26961 -0.13167,1.05031 -0.13167,1.05031z" fill="url(#color-4)" stroke-width="0"/></g><path d="M309.6602,197.49675c0,0 1.92616,-4.08346 2.7377,-5.31809c0.55089,-0.83812 3.19144,-1.68077 3.19144,-1.68077l16.60667,3.7319c0,0 -2.58598,5.34391 -3.2733,6.58471c-0.30111,0.54355 -1.49854,0.97028 -1.49854,0.97028z" fill="#665b60" stroke-width="0"/><path d="M266.60037,168.47112c0,0 -3.32882,-2.39921 -7.8561,-4.66223c-2.87796,-1.43863 -6.90039,-2.97951 -8.73528,-3.30788c-5.33452,-0.95475 -8.96801,3.42743 -8.96801,3.42743c0,0 -2.64749,-3.01127 -4.49965,-4.33111c-1.72894,-1.23203 -5.73157,-3.21454 -5.73157,-3.21454c0,0 25.07073,0.73888 28.95149,1.06706c7.43974,0.62911 33.30388,7.19313 33.30388,7.19313l2.74384,15.33918z" fill="#8b7c84" stroke-width="0"/><g stroke-width="0"><path d="M311.29374,196.91677c0,0 1.06036,-2.41634 1.66691,-3.19163c0.62895,-0.80391 2.99711,-1.32162 2.99711,-1.32162l14.13446,3.36725c0,0 0.148,1.04572 -0.25195,1.70887c-0.54381,0.90167 -3.88147,2.93078 -3.88147,2.93078z" fill="#585852"/><path d="M311.46648,196.19174c0,0 0.88762,-1.69123 1.49418,-2.46654c0.62895,-0.80391 3.16985,-2.04668 3.16985,-2.04668l14.13446,3.36726c0,0 -0.02473,1.77081 -0.42471,2.43396c-0.54381,0.90167 -3.70873,2.20567 -3.70873,2.20567z" fill="#797971"/><path d="M328.43399,195.11899c-0.97907,-0.41617 -12.22235,-3.37363 -12.22235,-3.37363l14.11513,3.36267l-0.57053,2.39481c0,0 -0.34318,-1.96768 -1.32226,-2.38386z" fill="#85857b"/></g><path d="M316.89641,179.57495l1.20271,-5.04847l6.94164,1.65372l0.05943,5.34917z" fill="#7c6e75" stroke-width="0"/><path d="M312.87971,151.45498l-2.17862,-8.87784l1.34175,0.31967l3.95678,9.76569z" fill="#d495b6" stroke-width="0"/><path d="M276.70588,134.99474l13.57517,0.05791l20.6075,7.59497l2.01862,8.79965z" fill="#df9cbe" stroke-width="0"/><path d="M315.88908,184.50321l0.37587,-1.57762l10.57024,2.51815l0.57073,1.80316z" fill="#7c6e75" stroke-width="0"/><path d="M279.23832,163.27759c0,0 -17.9177,-3.0366 -23.51304,-3.85544c-8.47254,-1.23989 -25.61699,-2.93389 -25.61699,-2.93389c0,0 15.64381,-0.83808 29.13485,0.81739c14.6277,1.79493 57.81586,10.58551 57.81586,10.58551l-1.25352,5.26182z" fill="#75686e" stroke-width="0"/><path d="M270.47573,170.20599l-3.02265,-1.30688c0,0 10.05704,-0.05523 15.07447,1.92423c5.01739,1.97943 12.85758,9.0954 12.85758,9.0954z" fill="#7c6e76" stroke-width="0"/><path d="M226.21831,155.5195c0,0 -27.90829,-22.47597 -27.70486,-27.1769c0.18483,-4.27024 28.46577,9.19511 28.7805,9.15884c5.50727,-0.63486 77.10533,9.00522 77.10533,9.00522l24.31096,12.77098l51.45796,11.67145l3.96326,14.89954c0,0 -60.15413,-13.12898 -83.31118,-18.47812c-8.03843,-1.85683 -24.2624,-6.38768 -39.41392,-8.82505c-11.6874,-1.88011 -29.89259,-1.77972 -29.89259,-1.77972z" fill="#ee96c3" stroke-width="0"/><path d="M97.69532,137.79569l7.90694,-18.83432c0,0 1.53598,-6.8856 9.11508,-7.44029c9.41349,-0.6889 25.4288,4.96154 27.4431,5.44139c1.54575,0.36825 -14.97024,7.14182 -14.97024,7.14182l-4.67059,19.60534z" fill="#c4b4b3" stroke-width="0"/><g stroke-width="0"><path d="M375.43026,185.19643l0.72992,-15.39275l88.66393,28.07629l-2.08187,5.47348l-47.26302,-6.26647z" fill="#ad6d8e"/><path d="M404.3808,177.35587l8.99191,-6.36208l26.53923,4.13386l-6.59839,9.12094z" fill="#8d788b"/><path d="M379.32773,172.60937l3.76246,-15.7933l30.34988,14.19806l-6.04592,5.62092z" fill="#857183"/><path d="M421.36129,179.20925l18.48939,-4.09494l26.20939,10.12213l-1.87591,6.64003z" fill="#947e92"/><path d="M375.4132,171.05122l5.77332,-11.74781l2.11743,-2.64513l-3.49098,14.65375z" fill="#756474"/><path d="M377.41966,182.36602l2.09613,-11.91123l42.51678,8.43384l-4.91381,15.33581z" fill="#746373"/><path d="M417.11478,194.20753c0,0 1.83135,-6.0477 2.68382,-8.76837c0.72984,-2.32937 2.12036,-6.5648 2.12036,-6.5648l42.78605,11.12751l-0.00112,8.63482z" fill="#867284"/><path d="M375.46888,170.99209l4.27273,-0.55586l-2.29453,11.94414z" fill="#6f5e6d"/><path d="M459.06611,183.45962l-18.49919,-7.86486l25.15695,9.73129l-1.17537,3.36467c0,0 0.05864,-1.59926 -0.95345,-2.56495c-0.67701,-0.64602 -4.52898,-2.66618 -4.52898,-2.66618z" fill="#978195"/><path d="M419.88337,178.18922c0,0 8.5606,-1.52285 11.57699,-2.19625c2.19733,-0.49053 4.85567,-1.47224 4.85567,-1.47224l2.43875,0.69677l-16.29486,3.58553z" fill="#9c859a"/><path d="M405.7067,175.64283c0,0 1.91838,-2.37229 3.54484,-3.37289c1.62639,-1.0006 4.06076,-1.25872 4.06076,-1.25872l-5.21103,5.20207z" fill="#806b7d"/><path d="M441.7894,173.78153l3.40392,-5.08287l13.92102,7.15423l3.96439,7.52355z" fill="#55494f"/><path d="M438.6761,175.91834c0,0 1.23607,-0.51784 1.91673,-0.95682c0.5127,-0.33066 1.50283,-1.51813 1.50283,-1.51813l20.77928,9.06221c0,0 0.7291,0.68456 1.22386,1.13721c0.51708,0.47303 1.81464,1.64259 1.81464,1.64259z" fill="#685960"/><path d="M442.54205,173.04369l2.67603,-4.0762l12.99024,6.51462c0,0 -7.43354,-3.34652 -11.85165,-4.13721c-2.56274,-0.45867 -3.81462,1.6988 -3.81462,1.6988z" fill="#41383c"/></g><path d="M108.39305,99.96482l1.20698,-5.06656c0,0 22.02856,3.91659 43.37573,9.0607c12.72096,3.06543 25.55115,7.76438 32.36513,9.02775c15.36404,2.84864 26.59354,0.88535 26.59354,0.88535l-8.63448,8.88398z" fill="#ffa1d1" stroke-width="0"/><path d="M102.65067,112.94499l5.8286,-15.1441c0,0 52.82705,14.70323 70.29046,18.41057c10.34462,2.19607 24.83483,1.78371 24.83483,1.78371l-3.39332,14.24375c0,0 -65.6634,-15.64308 -81.4928,-19.41413c-6.50843,-1.55051 -22.2981,26.27266 -22.2981,26.27266z" fill="#ee96c3" stroke-width="0"/><path d="M259.25461,228.8857l12.17819,-11.07515c0,0 13.32347,-13.12697 24.05829,-17.62441c2.72791,-1.14288 8.03402,-1.10879 8.03402,-1.10879c0,0 -8.26033,3.15676 -11.43145,5.27087c-7.48871,4.99258 -32.839,24.53747 -32.839,24.53747z" fill="#70646b" stroke-width="0"/><path d="M367.67591,188.05977l-1.95724,-18.97187l1.31337,0.31289c0,0 0.59276,5.74568 0.90596,8.78172c0.04466,0.4326 1.08946,1.93676 1.14474,2.47255c0.09583,0.92881 -0.78977,0.96817 -0.68268,2.00633c0.2982,2.89068 0.58922,5.71127 0.58922,5.71127z" fill="#795467" stroke-width="0"/><path d="M200.72637,132.80546c0,0 -8.67822,-8.80311 -7.1425,-12.31782c0.9195,-2.10444 19.14641,-5.93688 19.14641,-5.93688l66.24957,17.50161l-2.30962,2.63257l27.62667,11.97683l-76.00012,9.21333c0,0 0.53115,-5.64437 4.69773,-7.58991c4.04949,-1.89084 19.9604,-3.9239 19.9604,-3.9239c0,0 -33.27452,-7.97738 -40.34686,-9.75135c-2.35952,-0.59183 -11.8817,-1.80445 -11.8817,-1.80445z" fill="#f399c8" stroke-width="0"/><g><path d="M210.53637,116.00613l0.75048,-3.15019l171.74725,40.91555l-0.75048,3.15018z" fill="#584f54" stroke-width="0"/><path d="M377.33802,152.66968l0.63412,-2.66183l2.97209,0.70803l1.98828,3.28657z" fill="#685d63" stroke-width="0"/><g fill="#685d63" stroke-width="0"><g><g><g><path d="M370.80152,151.36862l0.68992,-2.89594l3.77547,0.89943l-0.68993,2.89595z"/><path d="M364.67544,149.9092l0.68992,-2.89594l3.77547,0.89943l-0.68993,2.89594z"/></g><g><path d="M358.78053,148.50482l0.68992,-2.89596l3.77547,0.89944l-0.68993,2.89595z"/><path d="M352.6544,147.04539l0.68993,-2.89595l3.77546,0.89944l-0.68993,2.89595z"/></g></g><g><g><path d="M346.64388,145.61352l0.68993,-2.89595l3.77546,0.89943l-0.68993,2.89595z"/><path d="M340.51779,144.1541l0.68992,-2.89595l3.77547,0.89943l-0.68993,2.89596z"/></g><g><path d="M334.6229,142.74972l0.68992,-2.89596l3.77546,0.89944l-0.68993,2.89595z"/><path d="M328.49684,141.29031l0.68992,-2.89594l3.77546,0.89943l-0.68993,2.89596z"/></g></g></g><g><g><g><path d="M328.26565,141.23526l0.68992,-2.89594l3.77546,0.89943l-0.68993,2.89594z"/><path d="M322.13962,139.77583l0.68993,-2.89595l3.77546,0.89944l-0.68992,2.89595z"/></g><g><path d="M316.24463,138.37148l0.68993,-2.89596l3.77546,0.89943l-0.68992,2.89595z"/><path d="M310.11857,136.91206l0.68993,-2.89594l3.77546,0.89942l-0.68992,2.89595z"/></g></g><g><g><path d="M304.10809,135.48018l0.68992,-2.89596l3.77547,0.89943l-0.68993,2.89595z"/><path d="M297.98197,134.02074l0.68992,-2.89595l3.77547,0.89944l-0.68993,2.89596z"/></g><g><path d="M292.08705,132.61639l0.68992,-2.89595l3.77548,0.89942l-0.68993,2.89596z"/><path d="M285.96097,131.15693l0.68993,-2.89594l3.77546,0.89943l-0.68992,2.89595z"/></g></g></g></g><g><g fill="#685d63" stroke-width="0"><g><g><path d="M279.91115,129.71572l0.68993,-2.89597l3.77546,0.89944l-0.68992,2.89595z"/><path d="M273.78507,128.25627l0.68992,-2.89595l3.77547,0.89944l-0.68992,2.89596z"/></g><g><path d="M267.89013,126.85195l0.68993,-2.89595l3.77547,0.89944l-0.68993,2.89596z"/><path d="M261.7641,125.39251l0.68993,-2.89594l3.77546,0.89943l-0.68992,2.89595z"/></g></g><g><g><path d="M255.7536,123.96062l0.68992,-2.89596l3.77547,0.89943l-0.68993,2.89595z"/><path d="M249.62748,122.50121l0.68993,-2.89594l3.77546,0.89943l-0.68992,2.89595z"/></g><g><path d="M243.73252,121.09686l0.68993,-2.89594l3.77545,0.89943l-0.68992,2.89596z"/><path d="M237.60645,119.63742l0.68993,-2.89595l3.77546,0.89943l-0.68992,2.89596z"/></g></g></g><g><g fill="#685d63" stroke-width="0"><g><path d="M237.37531,119.58235l0.68992,-2.89595l3.77547,0.89943l-0.68993,2.89595z"/><path d="M231.24919,118.1229l0.68993,-2.89596l3.77546,0.89943l-0.68992,2.89595z"/></g><g><path d="M225.35429,116.7186l0.68992,-2.89595l3.77547,0.89943l-0.68992,2.89596z"/><path d="M219.22823,115.25913l0.68992,-2.89595l3.77546,0.89943l-0.68992,2.89594z"/></g></g><g fill="none" stroke-width="1" font-family="sans-serif" font-weight="normal" font-size="12" text-anchor="start"><g/><g/></g></g></g><path d="M211.29889,113.11396l3.25656,-2.0371l2.97208,0.70805l-0.63413,2.66184z" data-paper-data="{&quot;index&quot;:null}" fill="#685d63" stroke-width="0"/></g><path d="M259.03932,158.29402l-2.54498,-0.32872c0,0 2.22824,-2.10855 11.82351,-0.98195c7.27465,0.85417 27.58205,4.34386 39.73008,6.47127c5.64124,0.98789 62.69103,5.32511 62.69103,5.32511l5.0606,1.19089c0,0 -62.50244,-3.94738 -68.13419,-4.95692c-12.4533,-2.23233 -33.40094,-5.95091 -39.51626,-6.81308c-3.32891,-0.46935 -9.10973,0.09343 -9.10973,0.09343z" fill="#70475c" stroke-width="0"/><path d="M352.79299,200.18921l-5.21753,0.65451l4.38794,-18.41585c0,0 7.5681,1.85271 14.96963,3.66465c21.24746,5.20149 123.36422,30.20015 123.36422,30.20015l-1.55902,6.54414z" fill="#5a5959" stroke-width="0"/><path d="M351.52547,201.56121l1.75784,-2.6714l135.49212,23.84329l-14.10238,8.16571z" fill="#4b4a4a" stroke-width="0"/><path d="M471.5206,229.95339c0,0 -4.99813,-4.50569 -7.6171,-6.59766c-1.40357,-1.12114 -6.87523,-4.97848 -6.87523,-4.97848c0,0 7.11067,4.679 10.14453,6.37624c1.08275,0.60572 2.00362,1.58868 3.14976,2.40465c0.36956,0.26308 2.78276,-1.9984 5.0273,-3.22599c0.67089,-0.36695 1.71505,0.25656 2.30279,0.05655c1.34737,-0.45856 1.94955,-1.43709 1.94955,-1.43709c0,0 0.11284,0.98246 -1.35418,1.88067c-0.40026,0.24509 -2.23577,0.17 -2.63587,0.44512c-1.60347,1.10272 -2.94854,2.4261 -3.38241,2.93049c-1.21067,1.40756 0.71434,2.48462 0.71434,2.48462z" fill="#414040" stroke-width="0"/><path d="M200.6098,133.08344l6.28346,-9.91248l6.96006,1.01633c0,0 -1.53846,2.35582 -2.44517,3.74421c-0.22834,0.34969 11.69799,1.18002 11.88489,1.91433c0.34682,1.36243 -5.9449,3.72867 -6.51517,4.60187c-0.65192,0.99826 -9.21112,-0.63393 -9.21112,-0.63393z" fill="#303030" stroke-width="0"/><path d="M200.5559,132.6902l5.98827,-9.12434c0,0 2.61617,1.96437 2.38789,2.92252c-0.41532,1.74339 -3.29252,7.00707 -3.29252,7.00707z" fill="#252525" stroke-width="0"/><path d="M346.94244,203.42292l0.68421,-2.87202l6.05761,-1.59192l-1.88858,2.58508c0,0 -1.37016,1.04621 -2.22369,1.37664c-0.75107,0.29076 -2.62953,0.50215 -2.62953,0.50215z" fill="#383838" stroke-width="0"/><g><g fill="#4b4b4b" stroke-width="0"><g data-paper-data="{&quot;origPos&quot;:null}"><g data-paper-data="{&quot;origPos&quot;:null}"><path d="M411.93814,220.31621l0.52671,-2.21088l3.6479,0.86902l-0.52671,2.21088z" data-paper-data="{&quot;origPos&quot;:null}"/><path d="M405.88462,218.75728l0.52671,-2.21088l3.64789,0.86902l-0.52672,2.21086z" data-paper-data="{&quot;origPos&quot;:null}"/></g><g data-paper-data="{&quot;origPos&quot;:null}"><path d="M424.07153,223.32363l0.52671,-2.21088l3.6479,0.86902l-0.52672,2.21087z" data-paper-data="{&quot;origPos&quot;:null}"/><path d="M418.01799,221.76467l0.52672,-2.21087l3.64791,0.86902l-0.52672,2.21088z" data-paper-data="{&quot;origPos&quot;:null}"/></g></g><g data-paper-data="{&quot;origPos&quot;:null,&quot;index&quot;:null}"><g data-paper-data="{&quot;origPos&quot;:null}"><path d="M442.8059,227.55312l0.52671,-2.21088l3.64791,0.86902l-0.52673,2.21087z" data-paper-data="{&quot;origPos&quot;:null}"/><path d="M448.91211,228.89095l0.52671,-2.21087l3.6479,0.86902l-0.52671,2.21086z" data-paper-data="{&quot;origPos&quot;:null}"/></g><g data-paper-data="{&quot;origPos&quot;:null}"><path d="M430.61989,224.7668l0.52672,-2.21088l3.64789,0.86903l-0.52672,2.21086z" data-paper-data="{&quot;origPos&quot;:null}"/><path d="M436.72606,226.10471l0.52672,-2.21086l3.6479,0.86901l-0.52672,2.21087z" data-paper-data="{&quot;origPos&quot;:null}"/></g></g></g><path d="M372.29021,202.39501l3.15431,-13.24058l82.17433,19.57647l-3.15431,13.24057z" data-paper-data="{&quot;origPos&quot;:null}" fill="#444444" stroke-width="0"/><path d="M371.2917,207.01151l1.10831,-4.65225l81.93282,19.51894l-1.10832,4.65226z" data-paper-data="{&quot;origPos&quot;:null}" fill="#414141" stroke-width="0"/><path d="M370.99547,208.40505l0.37488,-1.57358l81.92239,19.51645l-0.37487,1.57358z" data-paper-data="{&quot;origPos&quot;:null}" fill="#3f3f3f" stroke-width="0"/><g stroke-width="0"><g data-paper-data="{&quot;origPos&quot;:null}" fill="#5a5a5a"><g data-paper-data="{&quot;origPos&quot;:null}"><path d="M414.36547,212.50025l3.18648,-13.37568l3.47421,0.82766l-3.18649,13.37567z" data-paper-data="{&quot;origPos&quot;:null}"/></g><g data-paper-data="{&quot;origPos&quot;:null}"><path d="M420.27161,213.90726l3.18648,-13.37567l3.47422,0.82766l-3.18649,13.37567z" data-paper-data="{&quot;origPos&quot;:null}"/><path d="M426.35148,215.35567l3.1865,-13.37568l3.47421,0.82766l-3.1865,13.37568z" data-paper-data="{&quot;origPos&quot;:null}"/></g></g><g data-paper-data="{&quot;origPos&quot;:null}" fill="#5a5a5a"><g data-paper-data="{&quot;origPos&quot;:null}"><path d="M432.77875,216.88686l3.18648,-13.37567l3.47421,0.82766l-3.1865,13.37569z" data-paper-data="{&quot;origPos&quot;:null}"/><path d="M438.85859,218.33527l3.1865,-13.37567l3.47421,0.82766l-3.18649,13.37566z" data-paper-data="{&quot;origPos&quot;:null}"/></g><g data-paper-data="{&quot;origPos&quot;:null}"><path d="M444.76473,219.7423l3.1865,-13.37568l3.4742,0.82764l-3.1865,13.37568z" data-paper-data="{&quot;origPos&quot;:null}"/><path d="M450.84458,221.1907l3.1865,-13.37568l3.4742,0.82765l-3.18648,13.37567z" data-paper-data="{&quot;origPos&quot;:null}"/></g></g><path d="M417.89934,213.34213l-1.3024,1.6748l-5.10865,-1.17276l2.13473,-9.56205l3.87169,-5.17122l-3.11944,13.39168z" fill="#3a3a3a"/><path d="M423.80309,214.74858l-1.30241,1.67482l-5.10865,-1.17276l2.13473,-9.56205l3.87169,-5.17121l-3.11943,13.39167z" fill="#3a3a3a"/><path d="M429.84099,216.187l-1.30241,1.6748l-5.10865,-1.17276l2.13473,-9.56204l3.87169,-5.17121l-3.11944,13.39168z" fill="#3a3a3a"/><path d="M436.34856,217.7373l-1.3024,1.6748l-5.10865,-1.17277l2.13473,-9.56205l3.87169,-5.17121l-3.11942,13.39168z" fill="#3a3a3a"/><path d="M442.45355,219.19171l-1.3024,1.6748l-5.10865,-1.17276l2.13473,-9.56205l3.87169,-5.17121l-3.11942,13.39168z" fill="#3a3a3a"/><path d="M448.29021,220.58217l-1.30241,1.6748l-5.10864,-1.17276l2.13473,-9.56205l3.87169,-5.17121l-3.11942,13.39169z" fill="#3a3a3a"/><path d="M454.40292,222.03842l-1.3024,1.6748l-5.10865,-1.17276l2.13474,-9.56204l3.87168,-5.17122l-3.11944,13.39168z" fill="#3a3a3a"/></g><g stroke-width="0"><g data-paper-data="{&quot;origPos&quot;:null}" fill="#5a5a5a"><g data-paper-data="{&quot;origPos&quot;:null}"><path d="M372.31327,202.48211l3.1865,-13.37568l3.47422,0.82766l-3.18649,13.37567z" data-paper-data="{&quot;origPos&quot;:null}"/></g><g data-paper-data="{&quot;origPos&quot;:null}"><path d="M378.21938,203.88915l3.18648,-13.37566l3.47421,0.82766l-3.1865,13.37568z" data-paper-data="{&quot;origPos&quot;:null}"/><path d="M384.29923,205.33755l3.1865,-13.37568l3.47422,0.82765l-3.1865,13.37568z" data-paper-data="{&quot;origPos&quot;:null}"/></g></g><g data-paper-data="{&quot;origPos&quot;:null}" fill="#5a5a5a"><g data-paper-data="{&quot;origPos&quot;:null}"><path d="M390.72652,206.8687l3.1865,-13.37568l3.47422,0.82766l-3.18649,13.37567z" data-paper-data="{&quot;origPos&quot;:null}"/><path d="M396.80643,208.31713l3.1865,-13.37569l3.47422,0.82767l-3.1865,13.37567z" data-paper-data="{&quot;origPos&quot;:null}"/></g><g data-paper-data="{&quot;origPos&quot;:null}"><path d="M402.71256,209.72417l3.1865,-13.37568l3.47422,0.82766l-3.1865,13.37568z" data-paper-data="{&quot;origPos&quot;:null}"/><path d="M408.79241,211.1726l3.1865,-13.37568l3.47422,0.82766l-3.1865,13.3757z" data-paper-data="{&quot;origPos&quot;:null}"/></g></g><path d="M375.84708,203.32397l-1.30241,1.6748l-2.66544,-0.59067l0.44377,-1.92366z" fill="#3a3a3a"/><path d="M381.75089,204.73046l-1.3024,1.67482l-5.10865,-1.17277l2.13474,-9.56204l3.87169,-5.17121l-3.11943,13.39168z" fill="#3a3a3a"/><path d="M387.78877,206.16885l-1.3024,1.6748l-5.10865,-1.17276l2.13473,-9.56204l3.87169,-5.17122l-3.11943,13.39169z" fill="#3a3a3a"/><path d="M394.2963,207.71913l-1.3024,1.6748l-5.10866,-1.17275l2.13474,-9.56205l3.87169,-5.17122l-3.11943,13.39168z" fill="#3a3a3a"/><path d="M400.40138,209.1736l-1.30241,1.67481l-5.10865,-1.17276l2.13473,-9.56205l3.87169,-5.17122l-3.11944,13.39169z" fill="#3a3a3a"/><path d="M406.23801,210.56405l-1.3024,1.67481l-5.10865,-1.17276l2.13473,-9.56204l3.87169,-5.17122l-3.11943,13.39168z" fill="#3a3a3a"/><path d="M412.35077,212.02034l-1.3024,1.67482l-5.10865,-1.17276l2.13473,-9.56205l3.8717,-5.17121l-3.11943,13.39168z" fill="#3a3a3a"/></g><g><g data-paper-data="{&quot;origPos&quot;:null}"><g data-paper-data="{&quot;origPos&quot;:null}" fill="none" stroke-width="1" font-family="sans-serif" font-weight="normal" font-size="12" text-anchor="start"/><g data-paper-data="{&quot;origPos&quot;:null}" fill="#4b4b4b" stroke-width="0"><path d="M376.64467,212.10413l0.52673,-2.21087l3.64789,0.86902l-0.52671,2.21087z" data-paper-data="{&quot;origPos&quot;:null}"/><path d="M370.59114,210.5452l0.52671,-2.21088l3.6479,0.86902l-0.52671,2.21088z" data-paper-data="{&quot;origPos&quot;:null}"/></g></g><g data-paper-data="{&quot;origPos&quot;:null,&quot;index&quot;:null}" fill="#4b4b4b" stroke-width="0"><g data-paper-data="{&quot;origPos&quot;:null}"><path d="M395.37911,216.33363l0.52672,-2.21087l3.6479,0.86902l-0.52672,2.21087z" data-paper-data="{&quot;origPos&quot;:null}"/><path d="M401.48531,217.67145l0.52671,-2.21086l3.6479,0.86902l-0.52672,2.21087z" data-paper-data="{&quot;origPos&quot;:null}"/></g><g data-paper-data="{&quot;origPos&quot;:null}"><path d="M383.19299,213.54735l0.52672,-2.21087l3.6479,0.86902l-0.52672,2.21087z" data-paper-data="{&quot;origPos&quot;:null}"/><path d="M389.29917,214.88516l0.52673,-2.21087l3.64791,0.86902l-0.52672,2.21087z" data-paper-data="{&quot;origPos&quot;:null}"/></g></g></g></g><path d="M213.31401,134.4714l1.98816,-3.85946c0,0 5.21497,-1.9932 8.68472,-1.3208c3.96664,0.76867 33.1139,7.73815 33.1139,7.73815c0,0 0.2093,1.97808 -0.12427,3.14989c-0.42976,1.5097 -3.19841,4.00053 -3.19841,4.00053z" fill="#242424" stroke-width="0"/><path d="M238.40533,136.53227l0.73006,-3.06456l17.51173,4.17183l-0.73007,3.06457z" fill="#313131" stroke-width="0"/><path d="M234.75381,137.64702l0.15116,-0.63448c0,0 1.2824,-0.77507 2.27763,-0.53799c0.94506,0.22517 2.96341,1.19422 5.31069,1.92134c4.47156,1.38519 9.92318,2.78844 9.92318,2.78844l-0.15117,0.63448c0,0 -5.28001,-1.25996 -9.68835,-2.62949c-2.40537,-0.74728 -4.47997,-1.82641 -5.4603,-2.05998c-1.03045,-0.24549 -2.36282,0.51768 -2.36282,0.51768z" fill="#616161" stroke-width="0"/><path d="M264.78921,128.65177l11.64632,5.88583l28.78046,12.31303c0,0 0.66121,0.38798 -7.04813,-2.19723c-2.62259,-0.87946 -12.59843,-4.91006 -21.12919,-8.89843c-2.30831,-1.07919 -14.48202,-7.51645 -14.48202,-7.51645z" fill="#df8cb7" stroke-width="0"/><path d="M87.16331,92.84939l1.37498,-5.7716c0,0 6.01925,-0.36804 9.71949,0.51349c3.02928,0.72169 10.46836,6.09792 10.46836,6.09792l-2.97486,11.90544z" fill="#626061" stroke-width="0"/><path d="M197.74918,129.45958l3.11219,3.31756l12.22037,1.55108l49.3635,11.75992l-0.25281,1.06134c0,0 -36.99625,-8.96297 -48.63642,-11.46644c-3.19579,-0.68733 -12.79818,-2.23388 -12.79818,-2.23388z" fill="#ffa6d4" stroke-width="0"/><path d="M69.54381,154.37133l1.66151,-6.97441l26.6439,-10.74822l-4.73123,12.9243l-15.84173,6.64047z" fill="#3f3d3e" stroke-width="0"/><path d="M69.13076,149.07114c0,0 4.73671,-19.0734 7.74137,-28.2091c3.39121,-10.31106 11.58688,-30.55914 11.58688,-30.55914c0,0 8.42392,1.81217 11.52704,4.24333c2.65586,2.08072 5.95961,9.45654 5.95961,9.45654l-7.77542,32.63815c0,0 -14.70849,10.57746 -18.19402,12.06946c-5.36135,2.29493 -10.84542,0.36075 -10.84542,0.36075z" fill="#555354" stroke-width="0"/><path d="M85.85613,100.57791c0,0 -0.1094,-6.18668 2.52557,-8.33166c2.63497,-2.14498 7.10179,-2.12624 9.59235,-1.53288c1.98679,0.47333 6.08018,1.52943 7.84209,6.53244c1.76194,5.00299 -1.65118,11.04665 -1.65118,11.04665c0,0 -3.71731,-11.58041 -6.10547,-12.58668c-3.36995,-1.41997 -12.20339,4.87217 -12.20339,4.87217z" fill="#6f6b6c" stroke-width="0"/><path d="M66.58824,153.4736c0,0 7.70775,-24.95568 10.3598,-36.08794c2.76189,-11.59338 7.35482,-31.79742 7.35482,-31.79742c0,0 1.27371,-0.3575 2.28622,-0.11631c0.92582,0.22054 2.30101,1.20914 2.30101,1.20914c0,0 -4.64765,18.58413 -7.12612,28.98782c-2.87957,12.08722 -11.83938,38.59955 -11.83938,38.59955z" fill="#333232" stroke-width="0"/><path d="M66.06638,153.80533l4.47295,-14.05427c0,0 0.82047,1.10924 1.41255,1.21054c0.74758,0.12789 2.71208,-0.88184 2.71208,-0.88184l-4.73655,14.64537z" fill="#2e2d2d" stroke-width="0"/><path d="M99.53026,124.50294c-1.89214,7.94237 -7.91279,15.41857 -12.83762,17.25462c-4.09022,1.52493 -12.95084,6.36109 -11.05873,-1.58127c0.40141,-1.68495 5.14282,-12.76718 6.89689,-19.57586c2.31972,-9.00437 1.87311,-14.23107 3.46106,-16.76364c2.8713,-4.57925 8.58707,-4.73849 10.74129,-4.22529c4.24641,1.01163 4.68923,16.94905 2.79711,24.89143z" fill="#585758" stroke-width="0"/><path d="M129.79017,146.1889l-0.17304,-1.8307c0,0 8.03656,0.52623 14.00291,1.44989c8.39925,1.30032 31.63913,5.61611 31.63913,5.61611l1.45011,1.66254c0,0 -24.80257,-4.243 -33.45701,-5.51533c-2.5417,-0.37367 -13.46212,-1.38248 -13.46212,-1.38248z" fill="#585657" stroke-width="0"/><path d="M121.001,157.66497l8.22142,-12.11595l7.26542,0.7536c0,0 -2.69041,3.79325 -2.78148,4.54784c-0.43511,3.60565 -3.07402,27.61476 -3.07402,27.61476c0,0 -1.5393,0.08604 -2.26168,-2.01408c-1.29614,-3.76826 -1.4914,-10.86882 -2.70853,-13.3203c-1.05158,-2.11802 -4.66115,-5.46585 -4.66115,-5.46585z" fill="#5a5759" stroke-width="0"/><path d="M140.32801,130.60315l5.43668,-10.35531l2.29557,0.43265l-6.56905,10.31396z" fill="#a5a0a2" stroke-width="0"/><path d="M147.18398,131.12263l0.32507,-1.36456l25.7749,6.14038l-0.32506,1.36456z" fill="#494748" stroke-width="0"/><path d="M147.79416,128.21354l0.32507,-1.36456l25.7749,6.14038l-0.32507,1.36456z" fill="#494748" stroke-width="0"/><path d="M123.69689,145.50766l4.66696,-19.59009l14.1425,-6.51617l4.78492,0.81944l-25.75451,37.87618l-4.99418,-3.2492z" fill="#dbd5d8" stroke-width="0"/><path d="M95.15862,150.95679l2.57888,-11.50643l26.1118,5.40905c0,0 -0.26681,2.54518 -0.57853,3.29178c-0.77694,1.86109 -4.33739,8.14484 -4.33739,8.14484z" fill="#ccc6c9" stroke-width="0"/><path d="M101.48497,140.75477l0.07318,-0.30721l22.39709,4.44294l-2.80896,0.54825c0,0 -4.24713,-0.82039 -6.87473,-1.47899c-3.59791,-0.90182 -12.78662,-3.20497 -12.78662,-3.20497z" fill="#d8d1d5" stroke-width="0"/><path d="M105.77071,137.93438l3.93967,-16.53719l15.68603,3.73691l-3.93968,16.53719z" fill="#a39999" stroke-width="0"/><path d="M94.85028,151.05783l2.63247,-11.05006c0,0 7.11621,8.26071 10.74376,11.53101c3.62756,3.27028 10.01666,4.50455 10.01666,4.50455z" fill="#b4afb1" stroke-width="0"/><path d="M126.1772,164.73262c0,0 2.70587,1.71424 3.80544,1.82844c0.67551,0.07011 2.1646,-1.20848 2.1646,-1.20848l-0.48928,9.21055l-0.9722,4.08093c0,0 -1.96228,-0.14734 -2.60805,-2.95604c-0.53279,-2.31739 -1.90054,-10.95531 -1.90054,-10.95531z" fill="#504e4f" stroke-width="0"/><path d="M121.16826,158.27672l23.74175,-37.25576l1.64858,0.60363l-23.73702,37.67862z" fill="#858183" stroke-width="0"/><path d="M114.23543,114.7285l1.856,-1.25449c0,0 26.81848,5.72706 38.89092,8.60311c10.47806,2.49619 30.99348,7.74649 30.99348,7.74649l0.06518,2.01125c0,0 -20.55391,-5.62231 -31.59842,-8.25345c-12.61142,-3.00443 -40.20713,-8.85285 -40.20713,-8.85285z" fill="#918b8e" stroke-width="0"/><path d="M115.51114,113.76725l2.41868,-1.41952c0,0 25.26537,5.65615 37.33779,8.53217c10.47805,2.49618 30.99349,7.7465 30.99349,7.7465l0.06516,2.01123c0,0 -20.55391,-5.6223 -31.59842,-8.25345c-12.61142,-3.00444 -39.21668,-8.61691 -39.21668,-8.61691z" fill="#a59fa2" stroke-width="0"/><path d="M173.54389,148.96022l-0.55619,-5.97416c0,0 0.4851,-1.12318 0.83519,-1.15575c0.30843,-0.02871 1.15618,0.97036 1.15618,0.97036l0.55617,5.97415c0,0 -0.47201,0.78975 -0.78114,0.81855c-0.34969,0.03255 -1.21025,-0.6331 -1.21025,-0.6331z" fill="#494242" stroke-width="0"/><path d="M133.7519,142.20329l5.64467,-8.40643l3.77994,0.90051l-5.64467,8.40642z" fill="#9c989a" stroke-width="0"/><path d="M147.17824,127.12823l2.02466,-0.51268l23.76936,5.68118l1.74296,1.39173z" fill="#757274" stroke-width="0"/><path d="M146.61847,129.88485l2.02467,-0.51269l23.76935,5.68117l1.74299,1.39172z" fill="#757274" stroke-width="0"/><path d="M92.72329,149.54066l15.13828,-56.17888l1.73346,1.00993l-14.70059,56.69552z" fill="#686666" stroke-width="0"/><path d="M92.50172,149.76575l4.40399,-15.66152l1.34381,4.24546l-3.50902,12.84658z" fill="#535252" stroke-width="0"/><path d="M127.7117,134.63899c0,0 2.60977,-1.7894 2.82917,-2.71039c0.21533,-0.90381 -1.52477,-2.76509 -1.52477,-2.76509c0,0 2.76512,1.3472 2.27246,2.9654c-0.37525,1.23256 -1.9045,3.11852 -2.24497,4.17062c-0.9681,2.99156 -3.34068,9.97929 -3.34068,9.97929z" fill="#c4bec1" stroke-width="0"/><path d="M135.6217,134.55827l4.22233,-9.47485l3.48857,-3.64509l-4.79784,8.68269z" fill="#aca7a9" stroke-width="0"/></g></g><g stroke-width="0"><path d="M256.91611,134.84503l3.25694,-2.64648c0,0 2.09111,-0.97836 2.82986,-0.51968c0.8423,0.52297 1.95422,3.48998 1.95422,3.48998l-1.47316,3.84521c0,0 -4.16294,-0.99949 -5.36386,-1.42261c-0.5414,-0.19076 -1.204,-2.74642 -1.204,-2.74642z" fill="#c0c0c0"/><path d="M212.92906,134.28716c0,0 0.49575,-2.84249 1.78999,-3.70491c1.62195,-1.08078 8.04901,-1.82376 8.04901,-1.82376l-1.78903,4.44349l-0.67696,2.84171z" fill="#838383"/><path d="M212.77878,134.17491l9.61784,-5.39938l36.53976,8.70489l-1.73377,7.27759z" fill="#999999"/><path d="M213.90273,133.76787l7.34568,-4.2546l32.85288,7.82657l-1.35363,5.6821c0,0 -3.97631,-0.94727 -9.09136,-2.16582c-3.3256,-0.79229 -6.88642,-2.7323 -10.39492,-3.56812c-3.76372,-0.89665 -7.43012,-0.67834 -9.5441,-1.18195c-4.13737,-0.98567 -9.81454,-2.33814 -9.81454,-2.33814z" fill="#2e2e2e"/><path d="M217.30037,134.57505l9.50911,-3.80314l12.12478,2.8885c0,0 -7.6173,0.14606 -10.13483,0.48646c-2.67264,0.36135 -6.28648,1.66999 -6.28648,1.66999z" fill="#a5899d"/><path d="M225.09816,136.31683c0,0 5.17199,0.23278 7.56223,0.80224c3.0541,0.72759 9.26377,3.20625 9.26377,3.20625l-9.31356,-2.56337z" fill="#adadad"/><path d="M212.88472,134.18148l8.68504,-4.87154l34.01476,8.10341l-0.15956,0.66984c0,0 -29.45255,-7.0165 -33.29172,-7.93113c-0.80303,-0.1913 -9.24853,4.02949 -9.24853,4.02949z" fill="#8a8a8a"/><path d="M257.32283,151.17834l2.26075,-9.48976l2.30205,-6.85501c0,0 1.04594,0.73222 1.45419,1.40874c0.40824,0.67653 0.51991,1.86249 0.51991,1.86249l-4.57868,13.54005z" fill="#9e9e9e"/><path d="M253.00013,145.79935c0,0 -0.39449,-2.27836 -0.15922,-3.8559c0.31686,-2.12435 2.42791,-7.29408 2.42791,-7.29408l1.96398,0.13341c0,0 0.55474,0.94609 1.05415,0.91176c0.68859,-0.04732 2.69528,-1.16959 2.69528,-1.16959l-3.4593,12.35189z" fill="#9c9c9c"/><path d="M253.13418,147.71322c-0.50513,-1.25568 0.04696,-2.53572 0.04696,-2.53572l6.41353,-5.87399c0,0 0.45564,4.10101 0.24324,4.99253c-0.60382,2.53461 -0.72545,7.38825 -0.72545,7.38825c0,0 -2.91837,-0.60917 -3.82731,-1.2766c-1.09014,-0.80048 -1.64583,-1.43881 -2.15099,-2.69449z" fill="#888888"/><path d="M255.04586,147.37273c-0.49792,-2.17434 -0.44663,-6.75007 2.28956,-10.27882c2.7362,-3.52874 4.59092,-0.89607 4.59092,-0.89607c0,0 -0.04592,4.53584 -0.5819,6.78572c-0.48823,2.0495 -2.50421,6.16857 -2.50421,6.16857c0,0 -3.29645,0.39494 -3.79436,-1.77943z" fill="#b4b4b4"/><path d="M260.87772,140.85139c-0.32703,1.37265 -5.3158,0.26375 -4.98878,-1.10888c0.32703,-1.37265 4.55442,-5.91892 5.34472,-5.73065c0.30608,0.07292 0.90881,0.3212 0.85415,1.39856c-0.0865,1.70441 -1.0097,4.59995 -1.21009,5.44099z" fill="#bbbbbb"/></g><g stroke-width="0"><path d="M197.65897,129.42253c0,0 -4.55758,-6.14071 -4.12342,-7.96311c0.35448,-1.488 6.25491,-0.20891 6.25491,-0.20891l7.32322,1.81848l-6.41257,9.55293z" fill="#f399c8"/><path d="M167.58344,123.94519c0,0 -0.45751,-2.26553 0.04133,-3.24945c0.55053,-1.0858 3.39014,-4.11512 3.39014,-4.11512l22.45401,5.1584l6.87934,10.50333z" fill="#ee96c3"/></g></g><g stroke-width="0"><g><path d="M265.04347,126.88593l1.43261,-6.01353l46.5164,11.08164l-1.4326,6.01353z" fill="#61585b"/><path d="M265.63631,123.69287l0.76716,-3.22024l46.69325,11.12381l-0.76717,3.22024c0,0 -8.40562,-2.00252 -17.04037,-4.05955c-2.69972,-0.64315 -6.8468,-0.07142 -9.34139,-0.66573c-2.96639,-0.70668 -5.79614,-2.94054 -7.69893,-3.39384c-5.70565,-1.35926 -12.61256,-3.00469 -12.61256,-3.00469z" fill="#494344"/><path d="M327.31125,131.59567l-4.69163,-20.58048l20.34973,4.84797l11.12117,19.89314c0,0 -5.87021,0.001 -9.07407,-0.49675c-4.9439,-0.76811 -17.70522,-3.66385 -17.70522,-3.66385z" fill="#5e555b"/><path d="M326.51724,134.93772l1.28351,-5.38771c0,0 12.30043,1.43655 17.24007,1.81192c3.92022,0.29787 6.7844,0.38186 6.7844,0.38186l4.16965,8.12631c0,0 -5.55714,0.31693 -9.69496,-0.21245c-5.60658,-0.71735 -19.78266,-4.7198 -19.78266,-4.7198z" fill="url(#color-5)"/><path d="M320.93414,110.77687l0.9261,-3.88738l18.63013,4.43827l2.61129,4.73008z" fill="url(#color-6)"/><path d="M325.94359,134.82671l0.29184,-1.22496c0,0 15.20248,3.54316 20.48117,4.6285c3.94715,0.81156 8.61273,0.30206 8.61273,0.30206l0.59939,1.31957l-8.4759,0.09896z" fill="#312c30"/><g><path d="M230.13071,101.10383l1.8326,-8.66966l91.36836,21.76678l4.81801,12.74533z" fill="#8a6672"/><path d="M244.29956,112.99682c0,0 -2.58812,-4.32325 -4.97772,-6.39503c-2.38961,-2.0718 -9.31365,-3.47721 -9.31365,-3.47721l0.5928,-2.00428c0,0 11.92377,3.12474 18.73965,4.8464c16.28224,4.11272 78.53154,19.72334 78.53154,19.72334l2.00267,7.22793z" fill="#755761"/><path d="M246.49322,116.08005l-2.3424,-3.22238l85.31536,19.82172l0.45862,3.27661z" fill="#694e57"/><path d="M231.71123,92.7813l1.04957,-4.40572l88.49154,20.38308l2.43286,6.39926c0,0 1.90656,3.88564 -3.22989,2.63598c-1.617,-0.39339 -9.70894,-5.78389 -11.32996,-6.17828c-15.61154,-3.79818 -77.4141,-18.83429 -77.4141,-18.83429z" fill="#916b77"/><path d="M232.99613,88.43177l0.46944,-2.48334l87.49332,20.701l0.46233,2.56937z" fill="#9e7582"/><path d="M304.94547,106.27538c-7.69802,-2.49996 -70.36225,-18.48975 -70.36225,-18.48975l85.46237,20.3598l2.94563,8.35114c0,0 -10.34771,-7.72123 -18.04575,-10.22119z" fill="#b38f9a"/></g><path d="M276.5253,123.23171l2.12601,-8.92405l19.66197,4.68408l-2.12601,8.92405z" fill="#3a3336"/><path d="M278.5649,114.29135l1.04978,-1.31503l18.03373,4.29619l0.60552,1.70933z" fill="#4b4246"/><path d="M276.77737,122.77841l1.89512,-7.95496c0,0 -0.19004,5.36793 2.13917,7.06007c2.32921,1.69214 15.07823,5.44811 15.07823,5.44811z" fill="#332c30"/><path d="M321.64036,113.23117l-2.42281,-6.74512c0,0 1.14959,-0.41149 1.73388,-0.27229c0.6532,0.15561 2.00156,1.16217 2.00156,1.16217l2.42281,6.74512z" fill="#757575"/><path d="M323.48128,118.53687l-3.48504,-9.68353l3.73547,0.88989l3.48504,9.68351z" fill="#5a5a5a"/><path d="M326.1161,125.79399l-3.48504,-9.68351l3.73545,0.88988l3.48505,9.68353z" fill="#505050"/><path d="M328.83766,133.30901c-0.59524,-1.65393 -2.91777,-8.10726 -2.91777,-8.10726l3.73545,0.8899l4.04069,11.57814c0,0 -2.12393,0.04449 -3.04416,-0.18996c-0.71781,-0.18288 -1.55176,-3.44155 -1.81423,-4.17084z" fill="#3b3b3b"/><path d="M228.02849,103.27386l4.32778,-18.16634l3.09437,0.73715l-4.32779,18.16635z" fill="#443e42"/><path d="M209.29567,100.45481l0.70675,-5.92555l19.67789,4.68787l-1.37379,5.76661z" fill="url(#color-7)"/><path d="M209.85627,95.14274l2.51375,-10.55168l19.67789,4.68787l-2.51377,10.55169z" fill="#5e555b"/><path d="M212.34073,84.71391l1.74278,-3.86349l18.89965,4.50247l-0.96457,4.04891z" fill="url(#color-8)"/><path d="M281.64633,97.1487l1.42137,-5.96633l14.3661,4.51896l3.40462,5.65406z" fill="#5e555b"/><path d="M300.75605,101.70125l-3.34282,-5.91346c0,0 2.77406,1.37082 4.71027,2.85827c1.93624,1.48747 4.94476,4.55892 4.94476,4.55892z" fill="#776b73"/><path d="M278.43859,97.57241l3.40129,-0.469l24.96488,5.67328l3.19504,2.31455z" fill="#6d6269"/></g><g><path d="M278.85251,119.7049c0.2894,-1.21486 1.05391,-2.22179 1.67056,-3.13327c0.85922,-1.27011 1.72061,-2.28597 3.17523,-2.80926c0.88853,-0.31964 2.08508,-0.43489 3.10281,-0.43953c0.67315,-0.00304 1.73779,-0.16069 2.42171,0.00223c1.5503,0.36934 1.86436,0.52817 2.86787,1.27713c0.60449,0.45117 2.09521,1.26798 2.45986,2.04581c0.30864,0.65832 0.55166,1.69131 0.72655,2.43163c0.29886,1.26517 0.64738,3.26488 0.32559,4.61572c-0.13601,0.57086 -0.92471,1.75885 -1.09251,2.24879c-0.53263,1.55535 -0.65146,2.0509 -2.08762,2.84315c-0.87288,0.48152 -2.46606,0.66512 -3.51807,0.83595c-1.08949,0.17692 -2.5313,0.72373 -3.67208,0.45195c-0.76997,-0.18344 -2.03519,-1.03482 -2.74953,-1.34499c-1.5498,-0.67295 -2.37717,-1.0494 -3.11441,-2.39708c-0.63222,-1.15572 -0.51537,-2.77094 -0.55506,-4.17598c-0.02082,-0.73813 -0.14015,-1.69963 0.03912,-2.45221z" fill="#3a3a3a"/><path d="M279.59114,119.75892c0.26483,-1.11169 0.96443,-2.03313 1.5287,-2.86724c0.78629,-1.16227 1.57447,-2.09185 2.90566,-2.57078c0.81308,-0.29251 1.90806,-0.39798 2.83936,-0.40219c0.61598,-0.00281 1.59027,-0.14704 2.21605,0.00205c1.4187,0.33798 1.70609,0.48332 2.62437,1.16867c0.55316,0.41287 1.91732,1.1603 2.25104,1.87208c0.28244,0.60247 0.50482,1.54775 0.66486,2.22517c0.27348,1.15772 0.59242,2.98769 0.29797,4.22379c-0.12445,0.52238 -0.84623,1.60952 -0.99976,2.05787c-0.48739,1.4233 -0.59611,1.87678 -1.91036,2.60175c-0.7988,0.44061 -2.2567,0.60864 -3.21937,0.76495c-0.99697,0.1619 -2.3164,0.66228 -3.36029,0.41359c-0.70459,-0.16784 -1.86236,-0.94693 -2.51608,-1.23077c-1.41824,-0.61581 -2.17537,-0.96028 -2.85,-2.19357c-0.57851,-1.0576 -0.4716,-2.53567 -0.50791,-3.82141c-0.01907,-0.6755 -0.12824,-1.55534 0.0358,-2.24398z" fill="#5a5a5a"/><path d="M292.50088,118.17831c-1.43636,-2.79472 -6.34471,-4.17029 -6.34471,-4.17029c0,0 2.01454,-0.07518 3.94892,0.39275c1.56691,0.37905 3.01198,1.09796 3.83846,2.63227c0.82714,1.53555 0.86625,3.07113 0.82182,4.49506c-0.08703,2.79181 -1.06747,5.01802 -1.06747,5.01802c0,0 0.23935,-5.5731 -1.19705,-8.36782z" fill="#6d6d6d"/><path d="M286.15585,121.82605c0.13342,-0.56002 0.69555,-0.90587 1.25562,-0.77248c0.56002,0.13341 0.90586,0.69555 0.77247,1.25563c-0.13342,0.56002 -0.69555,0.90586 -1.25562,0.77247c-0.56002,-0.13341 -0.90587,-0.69554 -0.77246,-1.25563z" fill="#272727"/><path d="M286.04728,121.94082c0.12238,-0.51364 0.63797,-0.83087 1.15163,-0.70849c0.51364,0.12238 0.83087,0.63797 0.70849,1.15163c-0.12238,0.51364 -0.63797,0.83088 -1.15163,0.70851c-0.51364,-0.12238 -0.83088,-0.63797 -0.7085,-1.15163z" fill="#131313"/></g></g></g></g></g><path d="M174.13306,208.24264c0.36726,-1.54153 6.10305,-43.99398 6.97314,-45.50873c1.17476,-2.04522 9.11204,1.23412 12.34491,0.45429c9.90122,-2.38834 20.51012,-4.57642 20.51012,-4.57642c0,0 13.55083,3.82493 17.672,4.80676c3.08189,0.73421 64.69896,6.6854 63.0282,16.89782c-2.26614,13.85188 -41.89325,-7.63489 -44.70448,4.1655c-0.71169,2.98732 1.58714,3.73593 0.30747,6.66637c-0.30715,0.70331 -3.79503,5.19621 -4.40167,6.77467c-0.96301,2.50559 1.31488,7.16277 -2.62342,9.41057c-3.13937,1.79179 -2.42264,7.11979 -3.32571,8.15429c-6.22333,7.12878 -13.44382,1.49775 -22.21129,-0.59091c-10.39511,-2.47642 -26.38475,-2.45814 -35.22614,-5.8364c-3.81648,-1.45831 -9.41208,3.66942 -8.34309,-0.81775z" fill="#86c8f5" stroke-width="0"/><g stroke-width="0"><g><path d="M166.07827,224.27177l1.29358,-5.42998c0,0 2.13908,0.69263 3.19372,-0.04679c1.49001,-1.0446 5.08747,-5.47126 5.08747,-5.47126l-1.25922,8.02028c0,0 -3.73754,2.39761 -5.44206,2.91409c-1.23066,0.37286 -2.87346,0.01365 -2.87346,0.01365z" fill="#4d484c"/><g><g><path d="M129.08175,203.79038l5.27576,-4.46089c0,0 17.5434,-5.01985 24.87555,-7.27355c5.64012,-1.73362 14.6832,-4.66855 14.6832,-4.66855l-3.54279,26.23993z" fill="#eb59c1"/><path d="M133.0836,193.3083l6.21456,-28.61272c0,0 25.86057,10.48212 31.86915,14.95304c4.36021,3.24436 -0.20847,16.36321 -0.20847,16.36321l-7.12009,4.62334z" fill="#dd54b6"/><path d="M135.03243,171.73033l4.63645,-23.52527c0,0 11.74111,10.26041 16.0683,12.0784c6.41204,2.69394 19.53156,2.97648 19.53156,2.97648l-6.03787,25.3446c0,0 -10.87563,-6.04434 -11.70044,-6.45132c-3.84772,-1.89854 -22.49802,-10.42289 -22.49802,-10.42289z" fill="#ff77d8"/><path d="M136.05527,164.35273l3.25639,-13.66902l36.96494,4.43116l-5.47927,17.51442c0,0 -7.98554,-3.83094 -11.96979,-4.7801c-6.40425,-1.52568 -22.77227,-3.49646 -22.77227,-3.49646z" fill="#ee51c1"/></g><g><g><path d="M128.95079,192.95947l4.55318,-40.86382l8.17265,1.94699l-4.55318,40.86382z" fill="#a59da1"/><path d="M133.4255,152.27285c0,0 0.28711,-4.54952 2.33305,-5.37975c2.04595,-0.83028 7.04847,0.10119 7.04847,0.10119l-1.19556,7.22875z" fill="#b9b0b5"/><path d="M128.21545,203.72724l0.79883,-10.78121l8.13358,1.93769l-0.79883,10.7812z" fill="#8b8488"/></g><g><path d="M168.83549,198.96942l4.55318,-40.86381l4.41561,1.05192l-4.55317,40.86381z" fill="#a59da1"/><path d="M173.31267,159.11275l0.70017,-6.45466c0,0 3.01251,0.01822 3.77287,1.38125c0.76036,1.36302 -0.04655,5.29858 -0.04655,5.29858z" fill="#b9b0b5"/><path d="M168.08795,209.73437l0.79883,-10.78122l4.38875,1.04553l-0.79882,10.78122z" fill="#8b8488"/></g><path d="M127.16112,212.29207c0,0 -2.54549,-3.42594 -2.58831,-4.96231c-0.04765,-1.71021 2.3155,-4.83347 2.3155,-4.83347l47.38814,6.77149c0,0 1.41841,2.7371 1.484,4.28067c0.0919,2.16354 -5.14206,5.96876 -5.14206,5.96876z" fill="#494547"/><path d="M142.21235,150.89376c0,0 -2.12186,-1.08871 -2.40775,-1.74715c-0.31395,-0.72307 1.41605,-2.4518 1.41605,-2.4518c0,0 11.95067,1.80677 17.1588,2.71633c6.0715,1.06035 16.26322,3.29937 16.26322,3.29937c0,0 0.23302,1.31367 0.01152,1.87503c-0.21447,0.54366 -0.92761,1.53516 -0.92761,1.53516z" fill="#c2b8bd"/><path d="M127.78952,211.18689c0,0 -0.54411,-3.04425 -0.3913,-4.73036c0.12678,-1.3993 0.96662,-3.51976 0.96662,-3.51976l44.56516,6.44647c0,0 1.24252,3.5372 0.85717,5.1546c-0.41393,1.73757 -2.98298,3.76869 -2.98298,3.76869z" fill="#6f696b"/><path d="M137.35056,219.04628l1.29358,-5.42997l29.35428,5.34341l-1.29357,5.42997z" fill="#333032"/><path d="M126.10351,216.4917c-0.93033,-0.8877 -2.22495,-2.70287 -2.22495,-2.70287l0.73425,-6.83528c0,0 1.87976,2.78379 2.73873,4.38801c0.60798,1.1355 11.36457,2.17727 11.36457,2.17727l-1.29357,5.42998c0,0 -10.38868,-1.56939 -11.31902,-2.45709z" data-paper-data="{&quot;index&quot;:null}" fill="#444043"/><g><path d="M138.06798,165.29354c0,0 -1.41541,-5.21203 -1.03726,-6.9129c0.26183,-1.17756 3.08839,-2.31262 3.08839,-2.31262l34.80836,5.18338c0,0 0.82638,3.40817 0.48833,4.92862c-0.34552,1.554 -2.53951,4.29692 -2.53951,4.29692z" fill="#979797"/><path d="M138.36702,164.26887c0,0 -1.56202,-4.68682 -1.23885,-6.19068c0.22375,-1.04122 2.99172,-1.96645 2.99172,-1.96645l34.67029,5.6778c0,0 0.92312,3.06167 0.63422,4.40606c-0.29525,1.374 -2.38708,3.7511 -2.38708,3.7511z" fill="#a2a2a2"/></g><g><path d="M136.55094,181.93465c0,0 -1.41541,-5.21203 -1.03726,-6.9129c0.26183,-1.17756 3.08838,-2.31264 3.08838,-2.31264l34.80835,5.18338c0,0 0.8264,3.40816 0.48835,4.92861c-0.34552,1.554 -2.53949,4.29691 -2.53949,4.29691z" fill="#979797"/><path d="M136.84997,180.91c0,0 -1.56201,-4.68681 -1.23883,-6.19068c0.22373,-1.0412 2.99172,-1.96645 2.99172,-1.96645l34.67029,5.67783c0,0 0.92311,3.06167 0.63422,4.40606c-0.29526,1.374 -2.38708,3.75109 -2.38708,3.75109z" fill="#a2a2a2"/></g><g><path d="M135.02325,199.08232c0,0 -1.41541,-5.21203 -1.03726,-6.9129c0.26183,-1.17756 3.08838,-2.31263 3.08838,-2.31263l34.80835,5.18338c0,0 0.82638,3.40817 0.48834,4.92862c-0.34552,1.554 -2.53949,4.29691 -2.53949,4.29691z" fill="#7a7a7a"/><path d="M135.32225,198.0577c0,0 -1.56203,-4.68681 -1.23885,-6.19068c0.22373,-1.0412 2.99172,-1.96643 2.99172,-1.96643l34.67032,5.67781c0,0 0.92309,3.06167 0.63422,4.40607c-0.29526,1.374 -2.38708,3.75111 -2.38708,3.75111z" fill="#929292"/></g></g></g></g><path d="M128.63357,196.94841c0,0 0.02275,-1.75906 0.26167,-4.07743c0.70162,-6.80647 4.36109,-40.76901 4.36109,-40.76901l2.08453,4.92001l-3.51571,29.41064z" fill="#777275"/></g></g><g fill="#86c8f5" stroke-width="0"><path d="M345.57915,223.8557c4.93459,0.90467 5.13297,7.73383 3.19681,15.54237c-1.93617,7.80851 -6.50651,13.51005 -10.20824,12.73478c-3.70169,-0.77528 -5.13297,-7.73383 -3.19681,-15.54237c1.93617,-7.80851 4.52323,-13.77703 10.20824,-12.73478z" data-paper-data="{&quot;index&quot;:null}"/><path d="M323.2831,234.29357c1.93617,-7.80851 3.98473,-11.9911 9.66969,-10.94886c4.93459,0.90467 5.67151,5.94793 3.73535,13.75644c-1.93617,7.80852 -6.50651,13.51004 -10.20823,12.73478c-3.70169,-0.77528 -5.13297,-7.73383 -3.19681,-15.54237z" data-paper-data="{&quot;index&quot;:null}"/><path d="M310.29554,239.07685c1.93617,-7.80851 4.77775,-14.96231 10.46274,-13.92008c4.93459,0.90467 4.87848,8.91916 2.94232,16.72766c-1.93617,7.80851 -6.08615,9.38521 -9.78788,8.60993c-3.7017,-0.77528 -5.55331,-3.60901 -3.61716,-11.41749z" data-paper-data="{&quot;index&quot;:null}"/><path d="M308.29437,227.8618c4.93459,0.90467 5.67151,5.94793 3.73535,13.75644c-1.93617,7.80851 -6.08615,9.38521 -9.78788,8.60993c-3.7017,-0.77528 -5.5533,-3.60901 -3.61715,-11.41749c1.93617,-7.80851 3.98472,-11.99109 9.66968,-10.94886z" data-paper-data="{&quot;index&quot;:null}"/></g></g></g></svg>