<svg version="1.1" xmlns="http://www.w3.org/2000/svg" xmlns:xlink="http://www.w3.org/1999/xlink" width="469.65814" height="155.2262" viewBox="0,0,469.65814,155.2262"><defs><linearGradient x1="497.68242" y1="187.52502" x2="497.4564" y2="192.33131" gradientUnits="userSpaceOnUse" id="color-1"><stop offset="0" stop-color="#1f1d20"/><stop offset="1" stop-color="#202022"/></linearGradient><linearGradient x1="498.34958" y1="182.69597" x2="498.08951" y2="188.22605" gradientUnits="userSpaceOnUse" id="color-2"><stop offset="0" stop-color="#302d31"/><stop offset="1" stop-color="#1f1e20"/></linearGradient><linearGradient x1="161.67654" y1="214.98605" x2="161.51728" y2="218.37234" gradientUnits="userSpaceOnUse" id="color-3"><stop offset="0" stop-color="#585758"/><stop offset="1" stop-color="#575758"/></linearGradient><linearGradient x1="148.10437" y1="224.43743" x2="147.97934" y2="227.09585" gradientUnits="userSpaceOnUse" id="color-4"><stop offset="0" stop-color="#363536"/><stop offset="1" stop-color="#353536"/></linearGradient><linearGradient x1="295.67203" y1="138.47309" x2="295.41185" y2="144.00546" gradientUnits="userSpaceOnUse" id="color-5"><stop offset="0" stop-color="#5e555b"/><stop offset="1" stop-color="#2b2629"/></linearGradient><linearGradient x1="286.89609" y1="117.37059" x2="286.70835" y2="121.36234" gradientUnits="userSpaceOnUse" id="color-6"><stop offset="0" stop-color="#72676e"/><stop offset="1" stop-color="#5e555b"/></linearGradient><linearGradient x1="173.41115" y1="125.94777" x2="173.13266" y2="131.86925" gradientUnits="userSpaceOnUse" id="color-7"><stop offset="0" stop-color="#5e555b"/><stop offset="1" stop-color="#4d454a"/></linearGradient><linearGradient x1="174.08067" y1="111.71121" x2="173.88515" y2="115.86887" gradientUnits="userSpaceOnUse" id="color-8"><stop offset="0" stop-color="#74686f"/><stop offset="1" stop-color="#5e555b"/></linearGradient></defs><g transform="translate(-32.89113,-108.60905)"><g data-paper-data="{&quot;isPaintingLayer&quot;:true}" fill-rule="nonzero" stroke="none" stroke-linecap="butt" stroke-linejoin="miter" stroke-miterlimit="10" stroke-dasharray="" stroke-dashoffset="0" style="mix-blend-mode: normal"><path d="M350.84152,221.59548c4.20549,7.58577 2.25943,14.59265 -15.37263,24.36776c-6.54012,3.62581 -18.56551,8.49388 -23.35252,11.95372c-3.5577,2.57137 -12.50217,1.27269 -15.82426,0.95856c-4.25889,-0.40269 -7.51727,-30.06062 -7.51727,-30.06062c0,0 3.26594,-1.64413 16.55206,-8.37539c1.49861,-0.75926 13.57176,-8.72838 15.20556,-9.63414c6.66861,-3.69702 15.51119,-11.49498 19.8239,-10.20509c7.09026,2.12061 7.87021,16.27849 10.48514,20.99527z" fill="#86c8f5" stroke-width="0"/><g><g stroke-width="0"><path d="M223.70073,202.89486l-9.49803,-15.80891l25.57494,0.6119c0,0 -1.37106,5.7708 -1.69751,8.45694c-0.31577,2.59841 -0.23016,7.40548 -0.23016,7.40548z" fill="#7f7d7e"/><path d="M223.78975,203.09601l-3.37219,-5.7717c0,0 2.18896,3.66195 5.39264,4.42799c2.30696,0.55162 4.20558,0.33062 6.86901,0.77704c2.66341,0.4464 5.06324,1.22287 5.06324,1.22287z" fill="#6c6a6b"/></g><g><g><g><path d="M494.4686,192.1908l-1.83067,-4.90301c0,0 5.90698,1.93748 8.45956,2.95138c2.55257,1.0139 0.96241,2.07649 0.96241,2.07649z" fill="url(#color-1)" stroke-width="0"/><path d="M501.9208,183.06376c0,0 1.36865,2.39474 -1.26779,3.16461c-2.63644,0.76988 -5.59374,1.8552 -5.59374,1.8552l-0.70951,-5.57571z" data-paper-data="{&quot;index&quot;:null}" fill="url(#color-2)" stroke-width="0"/><path d="M484.86154,191.73441l0.09858,-2.09604l14.75624,0.69397c0,0 1.21889,0.8525 1.68896,1.24129c0.42256,0.34949 -0.77844,0.90223 -0.77844,0.90223z" fill="#444444" stroke-width="NaN"/><path d="M484.98706,189.78322l-1.10696,-1.8079l12.60173,0.59262l3.31313,1.7997c0,0 -4.2244,0.03961 -6.52747,-0.05131c-2.5974,-0.10252 -8.28044,-0.53318 -8.28044,-0.53318z" fill="#535353" stroke-width="0"/><path d="M483.76165,188.10662l-0.29433,-0.65455l11.46111,0.539l1.65894,0.6043z" fill="#363636" stroke-width="0"/><path d="M484.86154,191.73441l0.05347,-1.1371c0,0 6.42518,0.75627 9.30178,0.89155c2.43768,0.11464 6.86009,-0.13148 6.86009,-0.13148c0,0 0.84146,0.50232 1.07898,0.7166c0.20037,0.18077 -0.27064,0.46105 -0.27064,0.46105c0,0 -4.74653,0.1817 -7.05772,0.07302c-3.11811,-0.14664 -9.96597,-0.87363 -9.96597,-0.87363z" fill="#3a3a3a" stroke-width="NaN"/><path d="M483.78704,187.48541l-0.51139,-0.90875l13.62657,0.64084l-1.86271,0.83105z" fill="#242424" stroke-width="0"/><path d="M482.4596,186.72771l0.07771,-1.65249c0,0 8.0941,0.17423 11.08654,0.31496c2.03877,0.0959 5.13205,0.44777 5.13205,0.44777l-1.88161,1.40251z" fill="#3a3a3a" stroke-width="0"/><path d="M482.4059,185.11165l0.09596,-2.0403c0,0 7.66034,0.02999 10.97094,0.18569c2.86483,0.13473 7.74946,0.69472 7.74946,0.69472l-2.51148,1.9267c0,0 -3.64701,-0.25406 -5.88894,-0.35951c-2.98008,-0.14014 -10.41592,-0.40729 -10.41592,-0.40729z" fill="#444444" stroke-width="0"/><path d="M482.45474,183.15431l0.03999,-0.85013c0,0 7.87094,0.24632 11.46419,0.41531c2.50204,0.11766 8.03261,0.5016 8.03261,0.5016l-0.90406,0.80949c0,0 -5.03484,-0.52577 -7.99679,-0.66505c-3.26331,-0.15347 -10.63594,-0.2112 -10.63594,-0.2112z" fill="#535353" stroke-width="0"/><path d="M482.36131,182.38313l0.016,-0.34006c0,0 7.69167,-0.14588 11.1482,0.01668c2.98847,0.14055 8.39175,0.90225 8.39175,0.90225l0.02155,0.34182c0,0 -5.9945,-0.44704 -9.23595,-0.59949c-3.28382,-0.15444 -10.34151,-0.32121 -10.34151,-0.32121z" fill="#4e4e4e" stroke-width="0"/></g><g stroke-width="0"><g><g><g><path d="M479.03717,190.97194l-3.95837,-13.36435l0.63326,-1.69347c0,0 3.31927,3.38889 4.12365,5.91984c0.43667,1.37405 0.65441,9.2063 0.65441,9.2063z" fill="#383638"/><path d="M480.11966,190.33068c0,0 0.08695,-0.60627 -0.42566,-3.08799c-0.55901,-2.7064 -1.77908,-6.40485 -2.12133,-7.4961c-0.76827,-2.4495 -1.51621,-2.61531 -1.51621,-2.61531l4.82202,-0.35568l4.32648,13.79424z" fill="#555355"/><path d="M476.11637,177.21957l-0.52309,-1.26233c0,0 2.05554,-0.70423 3.0161,-0.65904c0.9001,0.04233 1.99995,0.82214 1.99995,0.82214l0.51967,1.33498z" fill="#686668"/></g><path d="M473.37074,190.70546l-3.95837,-13.36434l0.30187,-1.68889c0,0 3.65069,3.38429 4.45504,5.91523c0.43667,1.37404 0.65442,9.20629 0.65442,9.20629z" fill="#383638"/><path d="M474.45318,190.06418c0,0 0.08695,-0.60628 -0.42565,-3.08799c-0.55901,-2.7064 -1.77908,-6.40485 -2.12133,-7.4961c-0.76827,-2.4495 -1.51621,-2.61531 -1.51621,-2.61531l4.09634,-0.89036c0,0 0.96604,1.30107 1.20022,2.04766c0.66717,2.12715 3.85194,12.28124 3.85194,12.28124z" fill="#555355"/><path d="M470.44991,176.95304l-0.74103,-1.2726c0,0 2.27348,-0.69397 3.23406,-0.64878c0.9001,0.04233 1.70935,0.80846 1.70935,0.80846l0.64456,1.34086z" fill="#686668"/><path d="M480.98377,189.37645c0.03849,-0.81861 0.73333,-1.45101 1.55195,-1.41252c0.81862,0.03849 1.45101,0.73333 1.41252,1.55195c-0.03849,0.81861 -0.73333,1.45101 -1.55194,1.41252c-0.81862,-0.03849 -1.45101,-0.73333 -1.41252,-1.55195z" fill="#312f31"/><path d="M481.77628,186.4812l-1.73661,-5.63432l1.59633,-0.06843l1.73359,5.69878z" fill="#444144"/></g><path d="M434.31493,183.89676l-3.25209,-10.98843l29.79409,2.57895l-0.92325,9.61431z" fill="#444444"/><path d="M447.12579,180.57944c0,0 0.65979,-0.49149 1.43319,-1.56124c0.70716,-0.97807 1.51309,-2.51981 1.91909,-2.96499c1.05435,-1.65878 3.40836,-1.08074 3.40836,-1.08074l-1.00919,0.60632l-4.60986,5.05433z" fill="#292929"/><path d="M449.4274,191.22875l-5.99171,-11.26533c0,0 3.46991,0.69507 5.22095,-0.27284c1.36069,-0.75216 1.39028,-3.38564 2.9791,-3.59213c4.55842,-0.59244 17.43912,-0.42103 17.43912,-0.42103c0,0 2.90094,7.28929 3.69153,10.21672c0.54579,2.02099 0.74865,6.46744 0.74865,6.46744z" fill="#4a464a"/><path d="M454.17577,178.32901c-4.52591,-0.8496 -3.0226,-2.14436 -3.0226,-2.14436c0,0 0.85302,-1.26355 2.72514,-1.32181c4.59416,-0.143 13.20058,0.83929 14.92212,0.89458c0.81189,0.02606 0.3135,0.7113 0.3135,0.7113c0,0 -1.5998,2.31337 -3.16066,2.49427c-1.56087,0.18091 -7.25162,0.21565 -11.7775,-0.63397z" fill="#5e595e"/></g><g><path d="M437.32761,197.24228l-4.31305,-18.15815l18.87344,1.17422l4.59083,4.54904l6.09711,0.18809l2.33408,13.54396z" fill="#4d4846"/><path d="M441.99479,197.84931l21.07458,-8.41081l22.30841,0.80645c0,0 1.11406,4.23988 1.19322,5.59968c0.04034,0.69328 -0.29309,2.93355 -0.29309,2.93355z" fill="#423d3b"/><path d="M438.57565,189.36832l-2.71344,-9.98463l0.8196,0.03854l2.71345,9.98463z" fill="#363332"/><path d="M442.61738,197.07611l0.05719,-1.21605c0,0 5.37824,-2.29532 14.43311,-1.8695c1.20309,0.05659 5.32713,2.79878 6.53974,2.85581c7.69361,0.36181 15.22417,0.71597 18.08909,0.8507c2.33319,0.10974 4.77684,-1.0768 4.77684,-1.0768l-0.11828,2.51461z" fill="#312e2c"/><path d="M445.58311,184.46129l-1.52485,-4.69218l8.29852,0.39026l3.94271,4.61163l6.29045,0.49011l-7.67291,1.59004z" fill="#585350"/><path d="M435.77635,191.03352l0.053,-1.12697c0,0 8.21283,-3.3615 11.08688,-3.22634c4.33157,0.20371 16.28968,0.76609 16.28968,0.76609l-0.053,1.12697c0,0 -12.1631,-0.57201 -16.4946,-0.77571c-2.81501,-0.1324 -10.88197,3.23597 -10.88197,3.23597z" fill="#2b2827"/></g></g></g><g><g><g><path d="M99.50976,217.9205c0.43525,2.25693 0.00454,4.82908 -1.09768,5.04162c-1.10221,0.21257 -2.45855,-2.01492 -2.89381,-4.27187c-0.43525,-2.25693 -2.16453,-10.91812 -1.06229,-11.1307c1.10221,-0.21257 4.61853,8.10398 5.0538,10.36094z" fill="#615e5f" stroke-width="0"/><g><path d="M142.46229,189.97847c-0.51395,-0.55238 -2.79038,-1.97326 -2.79038,-1.97326l10.04434,-2.41081l-6.33159,6.9102c0,0 -0.40841,-1.97376 -0.92236,-2.52612z" fill="#756a6a" stroke-width="0"/><path d="M133.52539,187.85913l0.64515,-13.71816l18.78847,-4.98955l-0.92073,19.57837z" fill="#8a7c7c" stroke-width="0"/><path d="M93.27789,191.41942l7.51114,-17.80014l34.90103,1.50788l3.93329,12.86565c0,0 -23.03857,0.49431 -30.76971,1.06594c-3.20927,0.23728 -15.57576,2.3607 -15.57576,2.3607z" fill="#7c787a" stroke-width="0"/><path d="M100.79427,176.02701l-0.07839,-1.48681c0,0 25.8956,1.21782 34.03645,1.60067c4.55482,0.2142 16.42958,-5.60474 16.42958,-5.60474l-0.07654,1.62783c0,0 -11.57998,5.81351 -15.98441,5.59171c-8.07605,-0.4067 -34.32667,-1.72865 -34.32667,-1.72865z" fill="#535353" stroke-width="0"/><path d="M61.20055,190.61951l0.94676,-20.13175c0,0 4.85751,-6.83349 12.20157,-8.78662c9.1216,-2.42585 25.90787,0.15066 27.97624,0.24793c1.58724,0.07466 -13.38268,9.79882 -13.38268,9.79882l-0.94676,20.13175z" fill="#8d898b" stroke-width="0"/><path d="M236.12463,152.65208l1.74857,-3.0655l107.4397,5.19571l-0.69272,14.72994c0,0 -37.82561,0.06869 -50.01339,-0.92105c-6.05279,-0.49153 -58.48214,-15.93913 -58.48214,-15.93913z" fill="#c98cac" stroke-width="0"/><path d="M209.73985,252.52299l-3.93093,-13.13558c0,0 4.85807,6.07439 7.65199,7.28382c1.78007,0.77056 5.98364,1.35044 12.20216,-0.79722c5.00615,-1.72895 10.42801,-6.99085 10.42801,-6.99085l-12.36297,14.29767z" fill="#a08e97" stroke-width="0"/><path d="M302.33362,209.90963l-1.22572,-23.70516l18.5928,-0.52991l-0.99575,21.17361c0,0 -6.47109,1.4167 -9.26595,1.98431c-1.28688,0.26136 -7.10537,1.07717 -7.10537,1.07717z" fill="#96858d" stroke-width="0"/><path d="M207.72827,256.17837l0.26026,-5.53404c0,0 11.95275,2.63293 16.71381,-0.26793c2.31708,-1.41177 20.13354,-21.52953 29.95327,-32.71256c3.83213,-4.36416 6.44642,-7.36762 6.44642,-7.36762c0,0 3.53289,-3.61123 3.6723,-6.49007c0.07013,-1.44818 0.73585,-5.60021 0.01381,-7.94806c-0.7285,-2.36885 -2.84515,-2.92721 -2.84515,-2.92721l-4.2292,-13.78618l19.7874,1.07441l-4.15449,26.40732l3.6337,2.73559c0,0 -9.82633,5.54464 -14.68294,10.27741c-7.59881,7.40502 -32.38964,36.65764 -32.38964,36.65764z" fill="#918189" stroke-width="0"/><path d="M279.16246,209.17305l2.55595,-28.5153l13.74748,0.9226l9.78843,12.47576l-3.0057,16.20267z" fill="#96858d" stroke-width="0"/><path d="M274.55602,210.80765l-2.31175,-4.25908l4.76535,-25.99473l5.07822,0.15402l-2.01778,28.5234z" fill="#8f8187" stroke-width="0"/><path d="M301.01078,210.30425c0,0 3.0619,-6.53044 1.96486,-11.99883c-0.63167,-3.14867 -5.44463,-5.3469 -5.83187,-7.27715c-0.73971,-3.68727 -1.88407,-9.39152 -1.88407,-9.39152l7.64144,4.72815c0,0 3.06351,7.3658 3.4604,11.65069c0.26668,2.8788 -1.5149,9.17807 -2.56259,11.73054c-0.08832,0.21518 -1.25928,0.07675 -1.31861,0.23946c-0.14495,0.39749 0.80732,0.67386 0.80732,0.67386z" fill="#86787e" stroke-width="0"/><path d="M302.61631,187.85308c0,0 -2.90162,-4.09576 -7.53332,-5.2863c-5.24361,-1.34778 -22.32099,-2.38727 -22.32099,-2.38727l158.22945,-6.75621l2.97477,9.45197l7.38568,11.50233c0,0 -100.55982,-7.30343 -121.12545,-8.2706c-6.71085,-0.31561 -17.61011,1.74609 -17.61011,1.74609z" fill="#df8db7" stroke-width="0"/><path d="M146.34782,227.83664l-3.08892,-36.4552c0,0 1.85756,-3.66745 2.36832,-3.85935c5.63116,-2.11565 38.13284,-11.25073 43.55263,-10.70925c5.93707,0.59315 -9.72487,11.79835 -9.72487,11.79835c0,0 -14.48907,1.34677 -17.22363,5.47275c-3.71269,5.60188 0.31413,23.16397 0.31413,23.16397z" fill="#c77da3" stroke-width="0"/><path d="M220.09414,201.34281l-1.6886,-2.18702c0,0 6.95606,-8.28894 9.49464,-10.46483c2.62084,-2.24639 5.99151,-2.80877 5.99151,-2.80877l5.82077,2.57847c0,0 -4.44752,-0.71229 -6.88927,0.89106c-2.09616,1.37641 -5.98874,4.27543 -8.93113,7.2328c-2.14037,2.15128 -3.79793,4.75824 -3.79793,4.75824z" fill="#414041" stroke-width="0"/><path d="M100.52442,174.96686l5.34382,-11.45113l48.57476,2.28438c0,0 -3.10469,4.31443 -6.3132,6.13183c-3.14906,1.78373 -12.76283,4.67348 -12.76283,4.67348z" fill="#979395" stroke-width="0"/><path d="M101.37721,173.86282l4.54472,-11.48872l48.57476,2.28438c0,0 -3.10469,4.31443 -6.3132,6.13183c-3.14906,1.78373 -12.76283,4.67348 -12.76283,4.67348z" fill="#bdb7ba" stroke-width="0"/><path d="M303.40123,210.73774l-1.84672,-0.60091l17.0264,-3.37869c0,0 -3.6531,1.88787 -6.17173,2.56721c-2.51865,0.67936 -9.00793,1.41237 -9.00793,1.41237z" fill="#887980" stroke-width="0"/><path d="M148.80896,228.41735c0,0 -1.84599,-10.56385 -2.64468,-19.1493c-0.80255,-8.62735 -1.52984,-16.71718 -1.3835,-20.29895c0.0248,-0.60682 2.13757,-10.4491 2.6613,-10.94645c2.82688,-2.68459 10.19638,5.41412 15.8062,4.57316c8.30626,-1.24516 27.41779,-0.86106 27.41779,-0.86106l-8.69385,4.9077c0,0 -19.56272,1.94828 -22.19307,6.9675c-3.55777,6.78899 3.02411,27.99435 3.02411,27.99435z" fill="#d486ae" stroke-width="0"/><path d="M150.10455,224.95555c0,0 -4.73377,-41.13937 -2.93496,-51.1429c0.84165,-4.68054 -2.08159,-13.93595 -2.08159,-13.93595l50.28393,9.34113l0.66744,16.11914c0,0 -31.8616,-4.595 -38.49974,1.37371c-4.43118,3.98431 1.04364,32.51607 1.04364,32.51607z" fill="#e490bb" stroke-width="0"/><g stroke-width="0"><path d="M291.3349,168.534l0.38872,-8.26574l9.34966,0.43971l-0.38872,8.26574z" fill="#454545"/><path d="M292.20226,167.80913l-0.01351,-7.30679l11.31368,0.53206l-0.34285,7.29004z" fill="#b0b0b0"/><path d="M292.18284,163.31422l-0.09535,-2.83792l11.5301,0.54224l-0.08961,1.90528c0,0 -7.7994,-0.04399 -9.50342,0.01465c-0.56939,0.0196 -1.84173,0.37575 -1.84173,0.37575z" fill="#bebebe"/><path d="M303.43855,167.78742c0,0 -5.41454,-2.81281 -4.66811,-6.52954c1.10917,-5.523 5.20337,-4.85184 5.20337,-4.85184l40.13534,3.22231l-0.4726,10.0495z" fill="#9c989a"/><path d="M305.28443,166.58357c0,0 -2.31871,-3.63187 -2.51906,-4.56915c-0.29696,-1.38934 1.83455,-4.24968 1.83455,-4.24968l41.54827,1.98732l-0.75133,7.46161z" fill="#898587"/><path d="M305.18487,166.77738l-0.92737,-1.98516l38.18952,1.79599l-0.0911,1.93725z" fill="#c1bcbf"/><path d="M305.22327,163.38149c0,0 -1.2676,-1.42911 -1.22357,-2.36542c0.04119,-0.87583 1.47981,-3.08311 1.47981,-3.08311l38.62397,1.81641l-0.25623,5.44852z" fill="#0d0d0d"/><path d="M305.18674,164.15792c0,0 -1.23924,-2.0322 -1.1952,-2.96853c0.04119,-0.87583 1.45144,-2.48 1.45144,-2.48l38.62398,1.81641l-0.25623,5.44852z" fill="#2e2e2e"/><path d="M300.27666,165.83242c-2.49186,-3.18752 -1.21821,-5.46675 -1.21821,-5.46675c0,0 1.63704,4.19387 2.82901,5.14852c1.41124,1.13023 4.9529,2.66428 4.9529,2.66428l-3.50821,-0.09473c0,0 -2.61697,-1.69033 -3.05549,-2.25128z" fill="#7d7a7c"/><path d="M307.76936,164.58941c0,0 -0.784,-2.25131 -0.73028,-3.3936c0.04722,-1.00412 1.03562,-3.09921 1.03562,-3.09921l4.81801,0.22659c0,0 -0.56414,2.17989 -0.60493,3.04715c-0.05606,1.19198 0.29958,3.44565 0.29958,3.44565z" fill="#555555"/><path d="M316.37652,164.99421c0,0 0.78445,-2.489 0.83817,-3.6313c0.04722,-1.00412 -0.53282,-2.86153 -0.53282,-2.86153l5.37739,0.25288c0,0 -0.49677,1.69361 -0.53756,2.56089c-0.05606,1.19198 0.23222,3.93192 0.23222,3.93192z" fill="#555555"/><path d="M325.69288,165.43234c0,0 0.78446,-2.489 0.83819,-3.6313c0.04722,-1.00412 -0.53283,-2.86152 -0.53283,-2.86152l5.29748,0.24911c0,0 -0.49677,1.69361 -0.53756,2.56089c-0.05606,1.19198 0.23222,3.93192 0.23222,3.93192z" fill="#555555"/><path d="M335.34552,165.88629c0,0 0.94535,-2.12548 0.99905,-3.26779c0.04722,-1.00412 -0.69371,-3.22503 -0.69371,-3.22503l5.13766,0.24161c0,0 0.73375,2.01844 0.69297,2.88574c-0.05606,1.19198 -0.99831,3.60709 -0.99831,3.60709z" fill="#555555"/><path d="M307.77574,158.7873l-0.62681,-0.83036l35.52332,1.6706l-1.57013,0.72706c0,0 -2.82696,-0.13296 -5.28644,-0.24862c-0.53609,-0.02522 -1.53513,-0.40131 -2.33811,-0.43911c-0.77643,-0.03652 -1.34917,0.26569 -2.31427,0.22029c-1.50502,-0.07079 -3.20308,-0.15064 -4.98078,-0.23425c-0.73703,-0.03466 -1.36029,-0.44795 -2.11662,-0.48351c-0.67253,-0.03161 -1.47695,0.31451 -2.15265,0.28274c-1.67701,-0.07888 -3.3375,-0.15696 -4.8987,-0.23038c-0.7169,-0.03372 -1.39228,-0.50432 -2.0593,-0.53569c-0.81427,-0.03831 -1.606,0.36331 -2.31943,0.32977c-2.91025,-0.13685 -4.86009,-0.22856 -4.86009,-0.22856z" fill="#474747"/></g><g><path d="M157.57138,218.8707l3.84768,-2.68966c0,0 2.68957,2.94448 5.47841,3.97162c2.46662,0.90842 10.40702,1.87879 10.40702,1.87879l-2.85668,4.22478z" fill="#6d6a6b" stroke-width="0"/><path d="M149.21596,224.98514l9.56822,-6.94336c0,0 3.12515,2.406 5.26044,3.16906c3.23037,1.15436 12.23578,3.08324 12.23578,3.08324l-4.47537,4.10162z" fill="#615e5f" stroke-width="0"/><path d="M150.18058,247.02217l-0.42126,-22.61783c0,0 4.31221,0.99561 9.1268,1.25168c3.75798,0.19988 7.84108,-0.45615 10.29351,0.2682c4.30541,1.27164 37.21405,15.18863 37.21405,15.18863l1.99777,10.28002z" fill="#575455" stroke-width="0"/><path d="M173.01854,221.02442c7.18709,-5.23337 15.87956,-18.29151 17.25732,-20.80094c0.99256,-1.80786 1.92715,-7.04577 1.92715,-7.04577l7.37506,7.16917c0,0 4.88051,20.74893 5.4657,33.43717c0.16373,3.55029 2.49311,7.6094 1.23927,9.01851c-1.1234,1.26252 -18.17356,2.75312 -23.52592,1.73578c-11.26383,-2.14088 -17.18052,0.37346 -20.6733,-5.07197c-3.49278,-5.44543 3.89471,-11.37521 3.89471,-11.37521c0,0 5.16897,-5.7043 7.04002,-7.06676z" fill="#504e4f" stroke-width="0"/><path d="M179.36089,188.46116c0,0 0.46552,-1.47254 1.35274,-2.09506c1.14104,-0.80061 4.92564,-2.31019 4.92564,-2.31019c0,0 9.25949,2.50509 12.14946,5.13377c2.6664,2.42528 -4.09035,12.40008 -4.09035,12.40008l-1.75244,-5.4497z" fill="#464445" stroke-width="0"/><path d="M200.35115,236.72796c0,0 -9.56788,5.81273 -18.05096,5.58539c-8.18367,-0.2193 -15.29662,-6.45216 -15.1229,-7.8678c0.09411,-0.76699 8.1686,-3.69621 11.83959,-7.74968c4.08068,-4.50581 3.86063,-10.22399 5.30443,-12.16876c4.03071,-5.42935 12.94451,-15.1999 12.16857,-21.28671c-0.81376,-6.38336 -11.42205,-8.95842 -11.42205,-8.95842c0,0 3.95274,-2.06829 8.939,-1.96381c2.12396,0.0445 6.60144,1.64246 7.50563,2.07036c2.96505,1.40319 4.87671,3.13116 4.87671,3.13116c0,0 3.88375,-4.70207 7.49642,-4.84197c3.61268,-0.1399 22.27921,3.68883 22.27921,3.68883l-16.78425,11.81857z" fill="#555354" stroke-width="0"/><path d="M183.89751,215.10283c0,0 5.12645,-10.64373 10.10693,-15.8504c4.98047,-5.20669 9.20379,-8.19207 12.73224,-8.02612c2.55511,0.12015 5.43498,8.88051 5.43498,8.88051l-12.41618,28.21712c0,0 -14.75904,2.58865 -16.11814,0.04133c-1.07342,-2.01188 0.26019,-13.26241 0.26019,-13.26241z" fill="#585758" stroke-width="0"/><path d="M205.14557,243.43199c0,0 -2.58414,-6.31942 -2.11628,-9.32297c0.65361,-4.19594 2.69035,-16.76808 2.69035,-16.76808l1.4643,10.5161c0,0 -1.09767,9.70665 -1.10745,12.73942c-0.00943,2.92612 1.31035,5.16098 1.31035,5.16098z" fill="#3f3e3f" stroke-width="0"/><path d="M205.0572,225.54283c-0.11654,-1.68213 0.51227,-9.37201 0.51227,-9.37201c0,0 10.23198,-14.10288 12.4517,-16.6545c0.65075,-0.74803 4.08399,-2.31942 4.08399,-2.31942l-1.87247,4.77122c0,0 -1.60047,0.52938 -1.80253,0.99826c-0.21528,0.49954 0.54799,1.91275 0.54799,1.91275l-5.52157,8.22981c0,0 -1.69627,0.93191 -1.89899,1.42832c-0.20279,0.49652 0.44239,1.41598 0.44239,1.41598c0,0 -4.27012,8.75033 -5.22511,11.12284c-0.44156,1.09697 -0.27403,2.53905 -0.27403,2.53905c0,0 -1.32709,-2.39016 -1.44362,-4.07232z" fill="#474647" stroke-width="0"/><path d="M192.93065,203.981l20.6487,9.21547c0,0 -1.23518,0.95532 -1.49743,1.48264c-0.19351,0.38909 0.06656,1.39451 0.06656,1.39451z" fill="#3f3e3e" stroke-width="NaN"/><path d="M199.41036,193.92135l21.05653,8.05689c0,0 -1.15341,0.79 -1.39032,1.3358c-0.24696,0.56898 0.07145,1.66436 0.07145,1.66436z" fill="#3f3e3e" stroke-width="NaN"/><path d="M185.63679,221.98531c0,0 10.31925,8.18681 15.91008,14.43393c5.59083,6.24715 3.5956,7.36146 3.5956,7.36146z" fill="#636162" stroke-width="NaN"/><path d="M199.99205,199.57831c0,0 -6.13044,2.61897 -9.0222,5.58232c-2.89177,2.96336 -11.97675,18.73691 -11.83839,15.79464c0.13837,-2.94227 14.21902,-23.02411 16.01198,-22.93981c0.67872,0.03193 3.76528,-0.96646 4.57163,-0.69081c1.32378,0.45255 0.27697,2.25362 0.27697,2.25362z" fill="#918f91" stroke-width="0"/><path d="M149.73097,246.87148l14.01612,-1.23123c0,0 12.59761,0.2598 15.72354,0.56204c7.61259,0.73603 30.11786,3.87019 30.11786,3.87019l-0.74345,6.29311c0,0 -24.50156,2.41714 -31.32656,0.77908c-1.97447,-0.47389 -7.75567,-1.36452 -11.94321,-2.91513c-8.19481,-3.03449 -15.84428,-7.35805 -15.84428,-7.35805z" fill="#626061" stroke-width="0"/><path d="M207.85773,255.96691c0,0 0.24206,-4.286 -0.09649,-6.64436c-0.38049,-2.65071 -2.07533,-8.48563 -2.07533,-8.48563l1.78037,0.08372c0,0 1.50791,4.53265 1.85237,6.93233c0.3766,2.62366 0.31946,8.19768 0.31946,8.19768z" fill="#4a494a" stroke-width="0"/><path d="M207.6234,256.79313l0.24773,-3.38927c0,0 0.55369,0.29105 0.82491,0.3038c0.32224,0.01516 0.94066,-0.22076 0.94066,-0.22076l0.02433,3.18123c0,0 -0.79484,0.3707 -1.16613,0.39346c-0.2845,0.01747 -0.87144,-0.26846 -0.87144,-0.26846z" fill="#363536" stroke-width="0"/><path d="M205.9125,241.87403l-0.30929,-1.63696c0,0 0.43356,-0.33441 0.80442,-0.37626c0.35319,-0.03985 0.86926,0.1073 0.86926,0.1073l0.41949,1.75803c0,0 -0.50514,0.48425 -0.81076,0.50957c-0.28794,0.02387 -0.97312,-0.36168 -0.97312,-0.36168z" fill="#585758" stroke-width="0"/><path d="M166.07621,253.57034c0,0 -7.74772,-3.32046 -7.68369,-4.68197c0.06436,-1.36831 6.34965,-2.24482 6.34965,-2.24482c0,0 10.94314,0.27361 15.88654,0.67888c2.76753,0.2269 11.249,1.54574 11.249,1.54574c0,0 7.23425,1.3956 7.99433,2.58433c0.82909,1.29667 -3.16426,3.95364 -3.16426,3.95364c0,0 -12.77116,0.7069 -16.7218,0.31264c-1.40341,-0.14007 -13.90971,-2.14837 -13.90971,-2.14837z" fill="#6b696a" stroke-width="0"/><path d="M156.02887,246.1887l-1.97036,0.1384c0,0 0.78705,-3.40146 3.44571,-2.03285c2.65867,1.36862 21.6592,1.24965 21.6592,1.24965z" fill="#4b4949" stroke-width="0"/><path d="M149.81058,246.73102c0,0 -2.00457,0.09753 -2.36794,-3.56634c-0.18394,-1.85461 -1.2553,-16.11283 -1.2553,-16.11283l3.86802,-2.7204c0,0 0.39947,6.01914 0.46909,8.92787c0.09256,3.86856 0.20828,13.51504 0.20828,13.51504z" fill="#3f3d3e" stroke-width="0"/><path d="M156.34252,246.36956c0,0 3.29054,-2.00576 19.34503,-1.58825c1.32581,0.03449 -1.7917,-0.11632 7.57383,0.83201c9.36553,0.9483 13.19839,2.6429 13.19839,2.6429c0,0 -14.99933,-1.77595 -21.1953,-2.06734c-7.06265,-0.33214 -18.92196,0.1807 -18.92196,0.1807z" fill="#838082" stroke-width="0"/><path d="M162.77961,217.00736c0,0 -4.46853,1.9797 -6.71708,3.4913c-2.52731,1.69899 -7.70838,6.20634 -7.70838,6.20634l-0.70837,-1.6367c0,0 3.93947,-3.67266 6.2274,-5.21076c2.50149,-1.68162 8.19805,-4.4869 8.19805,-4.4869z" fill="#4a494a" stroke-width="0"/><path d="M163.7247,216.79373l-3.63607,1.51143c0,0 0.12665,-0.64118 0.01874,-0.8905c-0.12822,-0.29625 -0.64388,-0.72897 -0.64388,-0.72897l3.22577,-1.65201c0,0 0.73146,0.52161 0.92012,0.84231c0.14458,0.24575 0.1153,0.91772 0.1153,0.91772z" fill="url(#color-3)" stroke-width="0"/><path d="M149.30828,225.97075l-3.07593,2.58816l-0.04115,-2.18699l2.17147,-1.92233c0,0 0.71783,0.20406 0.87983,0.46466c0.15263,0.24553 0.06576,1.05648 0.06576,1.05648z" fill="url(#color-4)" stroke-width="0"/></g><path d="M280.36129,208.13174c0,0 1.13395,-4.37023 1.70196,-5.73415c0.38558,-0.92588 2.8236,-2.24447 2.8236,-2.24447l17.01089,0.58155c0,0 -1.54809,5.73134 -1.99293,7.07822c-0.19488,0.59002 -1.2922,1.2318 -1.2922,1.2318z" fill="#665b60" stroke-width="0"/><path d="M232.65843,187.61163c0,0 -3.71662,-1.73896 -8.58553,-3.12145c-3.09516,-0.87887 -7.33383,-1.64558 -9.19776,-1.62734c-5.41904,0.05299 -8.17506,5.03394 -8.17506,5.03394c0,0 -3.16085,-2.46696 -5.22601,-3.41971c-1.92774,-0.88936 -6.22902,-2.09369 -6.22902,-2.09369c0,0 24.7715,-3.93193 28.64567,-4.33051c7.4271,-0.7641 34.06045,0.88026 34.06045,0.88026l5.54596,14.56231z" fill="#8b7c84" stroke-width="0"/><g stroke-width="0"><path d="M281.85863,207.25836c0,0 0.59298,-2.57126 1.04492,-3.44576c0.46861,-0.90676 2.69939,-1.85544 2.69939,-1.85544l14.51398,0.68255c0,0 0.3397,1.00002 0.06992,1.72595c-0.36683,0.98699 -3.26936,3.6009 -3.26936,3.6009z" fill="#585852"/><path d="M281.89364,206.51382c0,0 0.55795,-1.82669 1.00991,-2.70121c0.46861,-0.90676 2.7344,-2.59998 2.7344,-2.59998l14.51398,0.68256c0,0 0.30471,1.74457 0.0349,2.47048c-0.36683,0.98699 -3.23434,2.85633 -3.23434,2.85633z" fill="#797971"/><path d="M298.36643,202.30734c-1.03935,-0.22702 -12.63635,-1.04406 -12.63635,-1.04406l14.49414,0.68162l-0.11565,2.45911c0,0 -0.70279,-1.86965 -1.74213,-2.09668z" fill="#85857b"/></g><path d="M284.14177,189.17754l0.24379,-5.18402l7.12803,0.33522l1.05222,5.24498z" fill="#7c6e75" stroke-width="0"/><path d="M274.97052,162.29344l-3.79013,-8.31849l1.37779,0.06481l5.70226,8.86053z" fill="#d495b6" stroke-width="0"/><path d="M236.36836,152.84058l13.34959,-2.46528l21.65977,3.63401l3.6184,8.27137z" fill="#df9cbe" stroke-width="0"/><path d="M284.06761,194.20713l0.07619,-1.62l10.85404,0.51046l0.89581,1.66572z" fill="#7c6e75" stroke-width="0"/><path d="M244.11142,180.16049c0,0 -18.1699,0.34524 -23.81997,0.58024c-8.55541,0.35582 -25.71607,1.87663 -25.71607,1.87663c0,0 15.21572,-3.72998 28.77945,-4.60987c14.70653,-0.95404 58.77594,-0.34054 58.77594,-0.34054l-0.25409,5.4031z" fill="#75686e" stroke-width="0"/><path d="M236.78864,188.59629l-3.21285,-0.72253c0,0 9.87168,-1.9228 15.16951,-0.91002c5.29782,1.01277 14.32357,6.5482 14.32357,6.5482z" fill="#7c6e76" stroke-width="0"/><path d="M190.57315,182.3882c0,0 -31.59825,-16.89947 -32.27174,-21.55638c-0.61175,-4.23023 29.67854,3.74629 29.98106,3.65216c5.29343,-1.64703 77.43595,-5.47714 77.43595,-5.47714l26.26043,8.03182l52.73049,1.90775l6.66247,13.90377c0,0 -61.54607,-1.72423 -85.29375,-2.67782c-8.24346,-0.33102 -25.02674,-1.76871 -40.36733,-1.3486c-11.83322,0.32406 -29.70278,3.80507 -29.70278,3.80507z" fill="#ee96c3" stroke-width="0"/><path d="M60.99492,188.85154l4.27003,-19.97546c0,0 0.22993,-7.05112 7.57402,-9.00425c9.1216,-2.42585 25.90787,0.15067 27.97624,0.24794c1.58724,0.07466 -13.38269,9.79882 -13.38269,9.79882l-0.94675,20.13175z" fill="#c4b4b3" stroke-width="0"/><g stroke-width="0"><path d="M342.70089,183.82598l-2.14263,-15.26038l92.33657,11.1144l-1.02871,5.76498l-47.60437,2.62374z" fill="#ad6d8e"/><path d="M369.69067,170.74316l7.65333,-7.92194l26.84518,-0.8689l-4.7889,10.18806z" fill="#8d788b"/><path d="M344.19195,170.73397l0.76268,-16.21736l32.45935,8.31207l-4.89633,6.64633z" fill="#857183"/><path d="M386.71987,169.40943l17.40666,-7.4588l27.63367,5.0764l-0.6096,6.87295z" fill="#947e92"/><path d="M340.05609,169.93026l3.49013,-12.61593l1.58913,-2.99248l-0.70765,15.04721z" fill="#756474"/><path d="M344.1298,180.67525l-0.15338,-12.09329l43.34345,0.38771l-1.97902,15.98174z" fill="#746373"/><path d="M385.33388,184.93557c0,0 0.67587,-6.28264 1.008,-9.11433c0.28435,-2.42441 0.86376,-6.84445 0.86376,-6.84445l44.1085,2.98445l1.60318,8.48468z" fill="#867284"/><path d="M340.09982,169.86179l4.09506,-1.34001l-0.03545,12.16249z" fill="#6f5e6d"/><path d="M424.55791,166.58055l-19.63831,-4.29093l26.52694,4.88791l-0.52979,3.52446c0,0 -0.23951,-1.58229 -1.4134,-2.34315c-0.78526,-0.50896 -4.94548,-1.77831 -4.94548,-1.77831z" fill="#978195"/><path d="M385.07816,168.68174c0,0 8.12863,-3.08683 10.96738,-4.30892c2.06793,-0.89023 4.49759,-2.34874 4.49759,-2.34874l2.52575,0.23152l-15.34499,6.55055z" fill="#9c859a"/><path d="M370.67521,168.81362c0,0 1.44423,-2.68742 2.85646,-3.97276c1.4122,-1.28536 3.7562,-1.99125 3.7562,-1.99125l-4.15382,6.07967z" fill="#806b7d"/><path d="M405.78387,160.28085l2.4003,-5.62678l15.00785,4.44326l5.29318,6.656z" fill="#55494f"/><path d="M403.12179,162.95887c0,0 1.11836,-0.73847 1.7056,-1.29627c0.44234,-0.42015 1.19461,-1.77089 1.19461,-1.77089l22.10118,5.0438c0,0 0.84357,0.53719 1.41384,0.89004c0.59596,0.36874 2.08823,1.27687 2.08823,1.27687z" fill="#685960"/><path d="M406.38634,159.41601l1.8721,-4.5024l13.97445,3.9877c0,0 -7.92587,-1.90714 -12.41398,-1.86326c-2.60336,0.02545 -3.43257,2.37795 -3.43257,2.37795z" fill="#41383c"/></g><path d="M64.47771,149.69178l0.24465,-5.20258c0,0 22.3727,-0.24434 44.30391,0.84406c13.06901,0.6486 26.54883,2.88196 33.47891,2.85738c15.62579,-0.05548 26.295,-4.07092 26.295,-4.07092l-6.83356,10.33351z" fill="#ffa1d1" stroke-width="0"/><path d="M61.24692,163.51286l2.91345,-15.96335c0,0 54.63902,4.63238 72.48716,5.0306c10.57252,0.23589 24.73384,-2.86148 24.73384,-2.86148l-0.68785,14.62618c0,0 -67.4265,-3.17096 -83.68091,-3.93538c-6.6832,-0.31431 -17.02862,29.95804 -17.02862,29.95804z" fill="#ee96c3" stroke-width="0"/><path d="M236.66513,248.33912l9.90846,-13.14494c0,0 10.65261,-15.37381 20.36495,-21.78738c2.46808,-1.6298 7.68811,-2.58214 7.68811,-2.58214c0,0 -7.53002,4.63651 -10.25311,7.30296c-6.43073,6.297 -27.70837,30.21148 -27.70837,30.21148z" fill="#70646b" stroke-width="0"/><path d="M335.61356,188.08019l-5.44801,-18.27791l1.34863,0.06343c0,0 1.64995,5.53551 2.52177,8.46048c0.12423,0.41676 1.43033,1.70063 1.58418,2.21683c0.26672,0.89484 -0.59613,1.09805 -0.29803,2.09821c0.83011,2.78495 1.64007,5.50237 1.64007,5.50237z" fill="#795467" stroke-width="0"/><path d="M161.30494,164.80583c0,0 -10.16265,-7.03751 -9.30671,-10.77634c0.5125,-2.23864 17.71004,-9.39078 17.71004,-9.39078l68.34775,4.88824l-1.78032,3.01583l29.37085,6.63548l-72.96512,23.17316c0,0 -0.52677,-5.6448 3.20579,-8.33057c3.62767,-2.6103 18.88387,-7.56406 18.88387,-7.56406c0,0 -34.17731,-1.65634 -41.45612,-2.08545c-2.42839,-0.14316 -12.01009,0.4345 -12.01009,0.4345z" fill="#f399c8" stroke-width="0"/><g><path d="M167.82296,146.47636l0.15213,-3.23476l176.35875,8.29387l-0.15213,3.23476z" fill="#584f54" stroke-width="0"/><path d="M338.53223,151.51111l0.12853,-2.7333l3.05188,0.14353l2.56428,2.85994z" fill="#685d63" stroke-width="0"/><g fill="#685d63" stroke-width="0"><g><g><g><path d="M331.86783,151.44714l0.13985,-2.97372l3.87684,0.18231l-0.13985,2.97372z"/><path d="M325.57726,151.15133l0.13985,-2.97372l3.87684,0.18232l-0.13985,2.97372z"/></g><g><path d="M319.52404,150.86663l0.13985,-2.97373l3.87684,0.18232l-0.13985,2.97372z"/><path d="M313.23345,150.5708l0.13985,-2.97372l3.87683,0.18232l-0.13985,2.97373z"/></g></g><g><g><path d="M307.06155,150.28055l0.13985,-2.97373l3.87683,0.18232l-0.13985,2.97372z"/><path d="M300.77095,149.98472l0.13985,-2.97372l3.87684,0.18231l-0.13985,2.97373z"/></g><g><path d="M294.71776,149.70003l0.13985,-2.97372l3.87683,0.18232l-0.13985,2.97372z"/><path d="M288.42724,149.4042l0.13985,-2.97372l3.87683,0.18231l-0.13985,2.97373z"/></g></g></g><g><g><g><path d="M288.18986,149.39306l0.13985,-2.97372l3.87683,0.18232l-0.13985,2.97372z"/><path d="M281.8993,149.0972l0.13985,-2.97372l3.87684,0.18232l-0.13985,2.97372z"/></g><g><path d="M275.84607,148.81254l0.13985,-2.97373l3.87683,0.18232l-0.13985,2.97372z"/><path d="M269.5555,148.5167l0.13985,-2.97372l3.87683,0.18231l-0.13985,2.97373z"/></g></g><g><g><path d="M263.38364,148.22646l0.13985,-2.97373l3.87684,0.18232l-0.13985,2.97372z"/><path d="M257.09304,147.93062l0.13985,-2.97372l3.87684,0.18232l-0.13985,2.97373z"/></g><g><path d="M251.03985,147.64594l0.13985,-2.97372l3.87684,0.18231l-0.13985,2.97373z"/><path d="M244.74927,147.3501l0.13985,-2.97372l3.87684,0.18232l-0.13985,2.97372z"/></g></g></g></g><g><g fill="#685d63" stroke-width="0"><g><g><path d="M238.53701,147.05795l0.13985,-2.97373l3.87684,0.18232l-0.13985,2.97372z"/><path d="M232.24644,146.76212l0.13985,-2.97372l3.87684,0.18232l-0.13985,2.97373z"/></g><g><path d="M226.19323,146.47746l0.13985,-2.97372l3.87684,0.18232l-0.13985,2.97373z"/><path d="M219.90271,146.18162l0.13985,-2.97372l3.87684,0.18231l-0.13985,2.97373z"/></g></g><g><g><path d="M213.7308,145.89136l0.13985,-2.97373l3.87684,0.18232l-0.13985,2.97372z"/><path d="M207.4402,145.59552l0.13985,-2.97372l3.87684,0.18232l-0.13985,2.97373z"/></g><g><path d="M201.38699,145.31085l0.13985,-2.97372l3.87684,0.18232l-0.13985,2.97373z"/><path d="M195.09641,145.01503l0.13985,-2.97372l3.87684,0.18231l-0.13985,2.97372z"/></g></g></g><g><g fill="#685d63" stroke-width="0"><g><path d="M194.85905,145.00385l0.13985,-2.97373l3.87684,0.18232l-0.13985,2.97372z"/><path d="M188.56843,144.70801l0.13985,-2.97372l3.87684,0.18231l-0.13985,2.97373z"/></g><g><path d="M182.51525,144.42335l0.13985,-2.97372l3.87684,0.18231l-0.13985,2.97373z"/><path d="M176.2247,144.1275l0.13985,-2.97372l3.87684,0.18231l-0.13985,2.97372z"/></g></g><g fill="none" stroke-width="1" font-family="sans-serif" font-weight="normal" font-size="12" text-anchor="start"><g/><g/></g></g></g><path d="M168.03488,143.49289l2.82138,-2.60666l3.05188,0.14353l-0.12853,2.7333z" data-paper-data="{&quot;index&quot;:null}" fill="#685d63" stroke-width="0"/></g><path d="M223.33821,179.01651l-2.56174,0.14985c0,0 1.79768,-2.48584 11.4352,-3.16156c7.30667,-0.51227 27.90888,-0.8563 40.24066,-1.02295c5.72657,-0.07741 62.58887,-6.41512 62.58887,-6.41512l5.19374,0.22993c0,0 -62.14761,7.73379 -67.86885,7.78818c-12.65123,0.12025 -33.92503,0.35835 -40.09406,0.64737c-3.35817,0.15733 -8.93377,1.78432 -8.93377,1.78432z" fill="#70475c" stroke-width="0"/><path d="M323.24334,202.76356l-5.00507,1.61247l0.89004,-18.91045c0,0 7.78059,0.41437 15.38985,0.81959c21.84393,1.16331 126.82728,6.75424 126.82728,6.75424l-0.31602,6.71984z" fill="#5a5959" stroke-width="0"/><path d="M322.25278,204.34719l1.23091,-2.95148l137.56298,-1.74523l-12.33971,10.64367z" fill="#4b4a4a" stroke-width="0"/><path d="M445.43372,209.95087c0,0 -5.74825,-3.49863 -8.71027,-5.06759c-1.58742,-0.84085 -7.68047,-3.61444 -7.68047,-3.61444c0,0 7.8562,3.27642 11.15258,4.38045c1.17644,0.39401 2.2639,1.18878 3.54168,1.77758c0.41201,0.18984 2.36305,-2.48061 4.34041,-4.10386c0.59102,-0.48519 1.73286,-0.06653 2.27321,-0.37226c1.23872,-0.70093 1.64861,-1.77429 1.64861,-1.77429c0,0 0.29343,0.94439 -0.98119,2.09954c-0.34777,0.31518 -2.16526,0.58242 -2.50727,0.92711c-1.37068,1.38143 -2.44649,2.93167 -2.77906,3.50789c-0.92807,1.60799 1.16352,2.30864 1.16352,2.30864z" fill="#414040" stroke-width="0"/><path d="M161.24206,165.10063l4.33238,-10.9073l7.02769,-0.2945c0,0 -1.07399,2.60063 -1.70696,4.13332c-0.1594,0.38603 11.71355,-1.01392 12.03364,-0.3271c0.59391,1.27427 -5.14866,4.76826 -5.54674,5.7322c-0.4551,1.10199 -9.16855,1.08847 -9.16855,1.08847z" fill="#303030" stroke-width="0"/><path d="M161.11604,164.72425l4.18877,-10.07804c0,0 2.93558,1.4441 2.8893,2.42799c-0.08418,1.79021 -1.93333,7.49679 -1.93333,7.49679z" fill="#252525" stroke-width="0"/><path d="M318.09544,207.02797l0.13871,-2.94913l5.65639,-2.68964l-1.37542,2.89096c0,0 -1.15191,1.28257 -1.9292,1.76583c-0.68394,0.42523 -2.49045,0.98195 -2.49045,0.98195z" fill="#383838" stroke-width="0"/><g><g fill="#4b4b4b" stroke-width="0"><g data-paper-data="{&quot;origPos&quot;:null}"><g data-paper-data="{&quot;origPos&quot;:null}"><path d="M385.09814,211.55145l0.10676,-2.27024l3.74587,0.17616l-0.10676,2.27024z" data-paper-data="{&quot;origPos&quot;:null}"/><path d="M378.86038,211.14434l0.10676,-2.27024l3.74586,0.17616l-0.10676,2.27023z" data-paper-data="{&quot;origPos&quot;:null}"/></g><g data-paper-data="{&quot;origPos&quot;:null}"><path d="M397.57901,212.2522l0.10676,-2.27024l3.74587,0.17616l-0.10676,2.27023z" data-paper-data="{&quot;origPos&quot;:null}"/><path d="M391.34124,211.84507l0.10676,-2.27023l3.74586,0.17616l-0.10676,2.27024z" data-paper-data="{&quot;origPos&quot;:null}"/></g></g><g data-paper-data="{&quot;origPos&quot;:null,&quot;index&quot;:null}"><g data-paper-data="{&quot;origPos&quot;:null}"><path d="M416.77303,212.92734l0.10676,-2.27024l3.74587,0.17616l-0.10676,2.27023z" data-paper-data="{&quot;origPos&quot;:null}"/><path d="M423.02147,213.10741l0.10675,-2.27023l3.74587,0.17616l-0.10676,2.27022z" data-paper-data="{&quot;origPos&quot;:null}"/></g><g data-paper-data="{&quot;origPos&quot;:null}"><path d="M404.2815,212.45361l0.10676,-2.27024l3.74586,0.17616l-0.10675,2.27023z" data-paper-data="{&quot;origPos&quot;:null}"/><path d="M410.52994,212.63374l0.10676,-2.27023l3.74587,0.17616l-0.10676,2.27023z" data-paper-data="{&quot;origPos&quot;:null}"/></g></g></g><path d="M342.81091,201.30853l0.63941,-13.59609l84.38075,3.96827l-0.63941,13.59609z" data-paper-data="{&quot;origPos&quot;:null}" fill="#444444" stroke-width="0"/><path d="M342.68747,206.03017l0.22466,-4.77717l84.13275,3.95661l-0.22466,4.77718z" data-paper-data="{&quot;origPos&quot;:null}" fill="#414141" stroke-width="0"/><path d="M342.65533,207.45447l0.076,-1.61585l84.12204,3.95611l-0.07599,1.61585z" data-paper-data="{&quot;origPos&quot;:null}" fill="#3f3f3f" stroke-width="0"/><g stroke-width="0"><g data-paper-data="{&quot;origPos&quot;:null}" fill="#5a5a5a"><g data-paper-data="{&quot;origPos&quot;:null}"><path d="M386.03107,203.42057l0.64593,-13.73481l3.56748,0.16776l-0.64593,13.73481z" data-paper-data="{&quot;origPos&quot;:null}"/></g><g data-paper-data="{&quot;origPos&quot;:null}"><path d="M392.09578,203.70579l0.64593,-13.73481l3.56749,0.16776l-0.64593,13.73481z" data-paper-data="{&quot;origPos&quot;:null}"/><path d="M398.33889,203.99939l0.64594,-13.73481l3.56748,0.16776l-0.64593,13.73481z" data-paper-data="{&quot;origPos&quot;:null}"/></g></g><g data-paper-data="{&quot;origPos&quot;:null}" fill="#5a5a5a"><g data-paper-data="{&quot;origPos&quot;:null}"><path d="M404.93873,204.30977l0.64593,-13.73481l3.56748,0.16776l-0.64593,13.73482z" data-paper-data="{&quot;origPos&quot;:null}"/><path d="M411.18182,204.60337l0.64593,-13.73481l3.56749,0.16776l-0.64594,13.73481z" data-paper-data="{&quot;origPos&quot;:null}"/></g><g data-paper-data="{&quot;origPos&quot;:null}"><path d="M417.24657,204.8886l0.64594,-13.73481l3.56748,0.16776l-0.64594,13.73481z" data-paper-data="{&quot;origPos&quot;:null}"/><path d="M423.48966,205.18219l0.64594,-13.73481l3.56748,0.16776l-0.64593,13.73481z" data-paper-data="{&quot;origPos&quot;:null}"/></g></g><path d="M389.65982,203.59122l-0.96856,1.88762l-5.2376,-0.20318l0.32101,-9.79219l2.8435,-5.80052l-0.57704,13.73807z" fill="#3a3a3a"/><path d="M395.72209,203.87633l-0.96856,1.88763l-5.23761,-0.20319l0.32102,-9.79219l2.8435,-5.80051l-0.57704,13.73806z" fill="#3a3a3a"/><path d="M401.92211,204.16791l-0.96856,1.88763l-5.23761,-0.20318l0.32101,-9.79219l2.8435,-5.80051l-0.57704,13.73807z" fill="#3a3a3a"/><path d="M408.6044,204.48216l-0.96856,1.88763l-5.23761,-0.20318l0.32101,-9.79219l2.8435,-5.80051l-0.57704,13.73807z" fill="#3a3a3a"/><path d="M414.87333,204.77699l-0.96856,1.88763l-5.23761,-0.20318l0.32101,-9.79219l2.8435,-5.80051l-0.57704,13.73806z" fill="#3a3a3a"/><path d="M420.86669,205.05883l-0.96856,1.88762l-5.2376,-0.20318l0.32101,-9.79219l2.8435,-5.80051l-0.57704,13.73807z" fill="#3a3a3a"/><path d="M427.14356,205.35404l-0.96856,1.88762l-5.23761,-0.20318l0.32102,-9.79219l2.8435,-5.80052l-0.57704,13.73807z" fill="#3a3a3a"/></g><g stroke-width="0"><g data-paper-data="{&quot;origPos&quot;:null}" fill="#5a5a5a"><g data-paper-data="{&quot;origPos&quot;:null}"><path d="M342.84974,201.38983l0.64594,-13.73481l3.56749,0.16776l-0.64593,13.73481z" data-paper-data="{&quot;origPos&quot;:null}"/></g><g data-paper-data="{&quot;origPos&quot;:null}"><path d="M348.91443,201.67505l0.64593,-13.73481l3.56748,0.16776l-0.64593,13.73481z" data-paper-data="{&quot;origPos&quot;:null}"/><path d="M355.15753,201.96865l0.64593,-13.73481l3.56749,0.16776l-0.64594,13.73481z" data-paper-data="{&quot;origPos&quot;:null}"/></g></g><g data-paper-data="{&quot;origPos&quot;:null}" fill="#5a5a5a"><g data-paper-data="{&quot;origPos&quot;:null}"><path d="M361.75739,202.27902l0.64594,-13.73481l3.56749,0.16777l-0.64593,13.73481z" data-paper-data="{&quot;origPos&quot;:null}"/><path d="M368.00055,202.57263l0.64593,-13.73481l3.56749,0.16776l-0.64594,13.73481z" data-paper-data="{&quot;origPos&quot;:null}"/></g><g data-paper-data="{&quot;origPos&quot;:null}"><path d="M374.06527,202.85784l0.64593,-13.73481l3.56749,0.16776l-0.64594,13.73481z" data-paper-data="{&quot;origPos&quot;:null}"/><path d="M380.30838,203.15146l0.64594,-13.73481l3.56749,0.16776l-0.64593,13.73482z" data-paper-data="{&quot;origPos&quot;:null}"/></g></g><path d="M346.47843,201.56048l-0.96856,1.88763l-2.72877,-0.08518l0.07865,-1.97262z" fill="#3a3a3a"/><path d="M352.54078,201.8456l-0.96856,1.88763l-5.23761,-0.20318l0.32102,-9.79219l2.8435,-5.80051l-0.57704,13.73807z" fill="#3a3a3a"/><path d="M358.74077,202.13716l-0.96856,1.88762l-5.23761,-0.20318l0.32101,-9.79218l2.8435,-5.80052l-0.57704,13.73807z" fill="#3a3a3a"/><path d="M365.42302,202.45141l-0.96856,1.88762l-5.23761,-0.20318l0.32102,-9.79219l2.8435,-5.80051l-0.57704,13.73807z" fill="#3a3a3a"/><path d="M371.69204,202.74624l-0.96856,1.88762l-5.2376,-0.20318l0.32101,-9.79219l2.8435,-5.80051l-0.57704,13.73807z" fill="#3a3a3a"/><path d="M377.68538,203.02809l-0.96856,1.88762l-5.2376,-0.20318l0.32101,-9.79219l2.8435,-5.80052l-0.57704,13.73807z" fill="#3a3a3a"/><path d="M383.96228,203.32331l-0.96856,1.88763l-5.2376,-0.20318l0.32101,-9.79219l2.8435,-5.80051l-0.57704,13.73807z" fill="#3a3a3a"/></g><g><g data-paper-data="{&quot;origPos&quot;:null}"><g data-paper-data="{&quot;origPos&quot;:null}" fill="none" stroke-width="1" font-family="sans-serif" font-weight="normal" font-size="12" text-anchor="start"/><g data-paper-data="{&quot;origPos&quot;:null}" fill="#4b4b4b" stroke-width="0"><path d="M348.89342,210.03958l0.10676,-2.27024l3.74586,0.17616l-0.10675,2.27023z" data-paper-data="{&quot;origPos&quot;:null}"/><path d="M342.65566,209.63248l0.10676,-2.27024l3.74586,0.17616l-0.10676,2.27024z" data-paper-data="{&quot;origPos&quot;:null}"/></g></g><g data-paper-data="{&quot;origPos&quot;:null,&quot;index&quot;:null}" fill="#4b4b4b" stroke-width="0"><g data-paper-data="{&quot;origPos&quot;:null}"><path d="M368.08749,210.71473l0.10676,-2.27023l3.74587,0.17616l-0.10676,2.27023z" data-paper-data="{&quot;origPos&quot;:null}"/><path d="M374.33591,210.89478l0.10676,-2.27022l3.74587,0.17616l-0.10676,2.27023z" data-paper-data="{&quot;origPos&quot;:null}"/></g><g data-paper-data="{&quot;origPos&quot;:null}"><path d="M355.59587,210.24103l0.10676,-2.27024l3.74587,0.17616l-0.10676,2.27023z" data-paper-data="{&quot;origPos&quot;:null}"/><path d="M361.8443,210.42108l0.10676,-2.27024l3.74587,0.17616l-0.10676,2.27024z" data-paper-data="{&quot;origPos&quot;:null}"/></g></g></g></g><path d="M173.98295,164.10407l1.23649,-4.16164c0,0 4.75383,-2.92739 8.28812,-2.91136c4.04038,0.01833 33.97505,1.4511 33.97505,1.4511c0,0 0.57317,1.90476 0.46312,3.11814c-0.14179,1.56327 -2.39948,4.52511 -2.39948,4.52511z" fill="#242424" stroke-width="0"/><path d="M199.0203,161.4673l0.14799,-3.14683l17.98192,0.84566l-0.14799,3.14683z" fill="#313131" stroke-width="0"/><path d="M195.63946,163.24106l0.03064,-0.65152c0,0 1.11605,-0.99984 2.13801,-0.95177c0.97043,0.04564 3.1337,0.62283 5.5752,0.90121c4.65106,0.53028 10.26848,0.89623 10.26848,0.89623l-0.03064,0.65152c0,0 -5.42218,-0.25704 -10.00821,-0.78369c-2.50234,-0.28737 -4.7413,-0.96228 -5.74797,-1.00962c-1.05812,-0.04976 -2.22549,0.94765 -2.22549,0.94765z" fill="#616161" stroke-width="0"/><path d="M223.48069,148.82208l12.5371,3.61955l30.56705,6.75148c0,0 0.7218,0.25838 -7.33363,-0.8495c-2.74034,-0.37689 -13.29133,-2.48388 -22.41457,-4.81786c-2.46863,-0.63154 -15.62635,-4.69494 -15.62635,-4.69494z" fill="#df8cb7" stroke-width="0"/><path d="M42.2956,146.64457l0.27871,-5.92656c0,0 5.84606,-1.47996 9.64567,-1.30126c3.11062,0.14629 11.41905,4.04682 11.41905,4.04682l-0.71113,12.25087z" fill="#626061" stroke-width="0"/><path d="M157.75795,162.07134l3.67438,2.68158l12.29578,-0.74639l50.68894,2.38384l-0.05123,1.08983c0,0 -38.01735,-1.9333 -49.91999,-2.23054c-3.26784,-0.08161 -12.99039,0.18283 -12.99039,0.18283z" fill="#ffa6d4" stroke-width="0"/><path d="M36.41318,210.36891l0.3368,-7.16168l24.18307,-15.5113l-2.24761,13.57831l-14.33217,9.4681z" fill="#3f3d3e" stroke-width="0"/><path d="M35.02258,205.23775c0,0 1.11056,-19.62134 2.36554,-29.15624c1.41645,-10.76161 5.70748,-32.17982 5.70748,-32.17982c0,0 8.61396,0.21553 12.11475,2.02781c2.99619,1.55104 7.61279,8.18462 7.61279,8.18462l-1.57613,33.51452c0,0 -12.48719,13.12602 -15.63484,15.23961c-4.84164,3.25107 -10.58956,2.36949 -10.58956,2.36949z" fill="#555354" stroke-width="0"/><path d="M42.44707,154.48138c0,0 -1.25694,-6.05864 0.93362,-8.65582c2.19056,-2.59718 6.58312,-3.40868 9.14055,-3.28839c2.04015,0.09596 6.25845,0.37314 8.91923,4.96169c2.66079,4.58854 0.42996,11.16109 0.42996,11.16109c0,0 -5.80414,-10.68815 -8.33768,-11.23319c-3.5751,-0.76911 -11.08571,7.05463 -11.08571,7.05463z" fill="#6f6b6c" stroke-width="0"/><path d="M33.34228,210.03594c0,0 2.93697,-25.95321 3.47456,-37.38437c0.55987,-11.90466 1.31905,-32.61026 1.31905,-32.61026c0,0 1.18514,-0.58792 2.22481,-0.53903c0.95067,0.0447 2.48559,0.76057 2.48559,0.76057c0,0 -1.11393,19.12405 -1.61634,29.80707c-0.58373,12.41176 -4.46175,40.12715 -4.46175,40.12715z" fill="#333232" stroke-width="0"/><path d="M32.89113,210.45885l1.7839,-14.6406c0,0 1.01226,0.93749 1.61286,0.92701c0.75834,-0.01323 2.50103,-1.37036 2.50103,-1.37036l-1.93307,15.2704z" fill="#2e2d2d" stroke-width="0"/><path d="M60.32821,175.44931c-0.38356,8.15562 -4.91038,16.62024 -9.40834,19.33933c-3.73569,2.25832 -11.54352,8.65651 -11.15998,0.50089c0.08136,-1.73019 2.68122,-13.50039 3.13976,-20.51642c0.6064,-9.27858 -0.80353,-14.33132 0.28625,-17.11479c1.97054,-5.033 7.5572,-6.2514 9.76926,-6.14736c4.36043,0.20507 7.7566,15.78274 7.37305,23.93836z" fill="#585758" stroke-width="0"/><path d="M94.09036,191.13564l-0.51015,-1.76666c0,0 7.9944,-0.97607 14.02847,-1.177c8.49461,-0.28284 32.13172,-0.35997 32.13172,-0.35997l1.73375,1.36414c0,0 -25.15903,0.439 -33.89918,0.79675c-2.56687,0.10506 -13.4846,1.14274 -13.4846,1.14274z" fill="#585657" stroke-width="0"/><path d="M87.58637,204.04486l5.82721,-13.43248l7.27895,-0.60939c0,0 -1.93881,4.22707 -1.88807,4.98544c0.24235,3.62371 2.11008,27.70507 2.11008,27.70507c0,0 -1.49652,0.37053 -2.59647,-1.55882c-1.97367,-3.46183 -3.4848,-10.4025 -5.13618,-12.58514c-1.42678,-1.88579 -5.59551,-4.50467 -5.59551,-4.50467z" fill="#5a5759" stroke-width="0"/><path d="M101.54904,173.8634l3.4181,-11.18511l2.33598,-0.00138l-4.53843,11.35487z" fill="#a5a0a2" stroke-width="0"/><path d="M108.38215,173.10006l0.06589,-1.4012l26.46699,1.2447l-0.06588,1.4012z" fill="#494748" stroke-width="0"/><path d="M108.4412,170.12826l0.06589,-1.4012l26.46699,1.2447l-0.06589,1.4012z" fill="#494748" stroke-width="0"/><path d="M87.9766,191.59834l0.94602,-20.1161l12.68559,-9.03028l4.85385,-0.08382l-18.269,42.0017l-5.51091,-2.26475z" fill="#dbd5d8" stroke-width="0"/><path d="M60.9476,202.25479l0.39617,-11.78522l26.66216,0.46352c0,0 0.2107,2.55045 0.04312,3.34196c-0.41765,1.97304 -2.74862,8.80888 -2.74862,8.80888z" fill="#ccc6c9" stroke-width="0"/><path d="M65.26836,191.05501l0.01484,-0.31546l22.8326,0.20436l-2.65818,1.06057c0,0 -4.32562,-0.01702 -7.02984,-0.17597c-3.70281,-0.21765 -13.15944,-0.7735 -13.15944,-0.7735z" fill="#d8d1d5" stroke-width="0"/><path d="M68.95547,187.48749l0.7986,-16.98123l16.1072,0.75751l-0.7986,16.98123z" fill="#a39999" stroke-width="0"/><path d="M60.66341,202.41137l0.53363,-11.34677c0,0 8.52708,6.79475 12.69908,9.33413c4.172,2.53938 10.67917,2.5651 10.67917,2.5651z" fill="#b4afb1" stroke-width="0"/><path d="M93.9856,210.02777c0,0 2.97725,1.18167 4.07891,1.08959c0.67677,-0.05659 1.90239,-1.58963 1.90239,-1.58963l1.23047,9.14109l-0.19707,4.19048c0,0 -1.95552,0.21981 -3.11185,-2.42001c-0.95408,-2.17806 -3.90286,-10.41148 -3.90286,-10.41148z" fill="#504e4f" stroke-width="0"/><path d="M87.86439,204.61489l16.40654,-41.01815l1.73204,0.28682l-16.32336,41.43276z" fill="#858183" stroke-width="0"/><path d="M72.96135,163.11297l1.59062,-1.57749c0,0 27.41558,0.64469 39.81218,1.22769c10.75942,0.50599 31.89309,1.85327 31.89309,1.85327l0.4377,1.96412c0,0 -21.24062,-1.70566 -32.58169,-2.239c-12.95005,-0.60901 -41.15189,-1.22855 -41.15189,-1.22855z" fill="#918b8e" stroke-width="0"/><path d="M74.03626,161.93142l2.11284,-1.84419c0,0 25.87632,0.86355 38.27291,1.44654c10.75941,0.50599 31.89309,1.85327 31.89309,1.85327l0.43769,1.96412c0,0 -21.24061,-1.70566 -32.58169,-2.23901c-12.95005,-0.60901 -40.13484,-1.18074 -40.13484,-1.18074z" fill="#a59fa2" stroke-width="0"/><path d="M137.59717,185.72961l-1.65645,-5.7668c0,0 0.26799,-1.19376 0.60592,-1.2908c0.29772,-0.08552 1.31633,0.73867 1.31633,0.73867l1.65644,5.7668c0,0 -0.31707,0.86369 -0.61547,0.9494c-0.33754,0.09695 -1.30679,-0.39724 -1.30679,-0.39724z" fill="#494242" stroke-width="0"/><path d="M97.2426,186.48337l3.98456,-9.3088l3.88143,0.18254l-3.98456,9.3088z" fill="#9c989a" stroke-width="0"/><path d="M107.63435,169.17628l1.89414,-0.87994l24.41102,1.16608l1.9712,1.04366z" fill="#757274" stroke-width="0"/><path d="M107.59651,171.98889l1.89414,-0.87995l24.41101,1.16609l1.97121,1.04365z" fill="#757274" stroke-width="0"/><path d="M58.29157,201.31578l4.4371,-58.01331l1.8909,0.67029l-3.91105,58.43966z" fill="#686666" stroke-width="0"/><path d="M58.11569,201.57812l1.41751,-16.20704l2.10917,3.92187l-1.06115,13.27486z" fill="#535252" stroke-width="0"/><path d="M89.90218,180.17298c0,0 2.23188,-2.2431 2.27635,-3.18885c0.04366,-0.92808 -2.01194,-2.43364 -2.01194,-2.43364c0,0 2.96729,0.80999 2.78386,2.49154c-0.13971,1.28081 -1.29195,3.41807 -1.43102,4.51511c-0.39544,3.11933 -1.42845,10.42622 -1.42845,10.42622z" fill="#c4bec1" stroke-width="0"/><path d="M97.65949,178.62405l2.38847,-10.09436l2.75059,-4.22975l-3.10113,9.42292z" fill="#aca7a9" stroke-width="0"/></g></g><g stroke-width="0"><path d="M216.89531,156.37027l2.70854,-3.20551c0,0 1.87294,-1.34983 2.68406,-1.0364c0.9248,0.35736 2.56862,3.06614 2.56862,3.06614l-0.7331,4.05197c0,0 -4.27617,-0.20865 -5.53478,-0.40127c-0.5674,-0.08685 -1.6933,-2.47492 -1.6933,-2.47492z" fill="#c0c0c0"/><path d="M173.57048,163.99457c0,0 -0.041,-2.88511 1.07047,-3.97297c1.39289,-1.3633 7.57005,-3.28745 7.57005,-3.28745l-0.93233,4.69849l-0.13721,2.91801z" fill="#838383"/><path d="M173.40197,163.9122l8.44724,-7.09231l37.52086,1.76454l-0.35145,7.47303z" fill="#999999"/><path d="M174.43071,163.30342l6.42731,-5.5453l33.73502,1.58649l-0.27438,5.83467c0,0 -4.08307,-0.19202 -9.33547,-0.43902c-3.41491,-0.16061 -7.27418,-1.40528 -10.87686,-1.57471c-3.86479,-0.18176 -7.42677,0.71393 -9.59754,0.61184c-4.24847,-0.1998 -10.07806,-0.47396 -10.07806,-0.47396z" fill="#d952b3"/><path d="M177.91917,163.4653l8.63696,-5.50363l12.45033,0.58552c0,0 -7.45754,1.55874 -9.86799,2.36095c-2.55897,0.85162 -5.86675,2.80889 -5.86675,2.80889z" fill="#a5899d"/><path d="M185.90481,163.72797c0,0 5.12519,-0.73216 7.57959,-0.61672c3.13611,0.14748 9.69818,1.42928 9.69818,1.42928l-9.62766,-0.78835z" fill="#adadad"/><path d="M173.50728,163.89897l7.62874,-6.40035l34.92807,1.64263l-0.03234,0.68782c0,0 -30.24337,-1.42229 -34.18562,-1.60769c-0.82458,-0.03877 -8.33883,5.67763 -8.33883,5.67763z" fill="#8a8a8a"/><path d="M220.32956,172.34363l0.45827,-9.74457l0.98837,-7.16336c0,0 1.16377,0.52515 1.69062,1.11404c0.52684,0.58889 0.85688,1.73347 0.85688,1.73347l-1.98333,14.15499z" fill="#9e9e9e"/><path d="M215.08275,167.86143c0,0 -0.81093,-2.1654 -0.87283,-3.7592c-0.08336,-2.14624 1.03047,-7.61816 1.03047,-7.61816l1.95457,-0.2338c0,0 0.72084,0.82655 1.2052,0.70003c0.66779,-0.17445 2.43104,-1.64997 2.43104,-1.64997l-1.10419,12.77954z" fill="#9c9c9c"/><path d="M215.57004,169.71705c-0.72964,-1.13996 -0.42497,-2.50029 -0.42497,-2.50029l5.21053,-6.96328c0,0 1.20964,3.94497 1.16658,4.86041c-0.1224,2.60267 0.65987,7.39439 0.65987,7.39439c0,0 -2.98075,-0.05635 -3.99785,-0.5433c-1.21989,-0.58402 -1.8845,-1.10798 -2.61415,-2.24795z" fill="#888888"/><path d="M217.38517,169.02732c-0.89323,-2.04397 -1.69298,-6.54956 0.33997,-10.52523c2.03295,-3.97568 4.3445,-1.73342 4.3445,-1.73342c0,0 0.79761,4.46538 0.68896,6.77568c-0.09896,2.1045 -1.31453,6.52643 -1.31453,6.52643c0,0 -3.16568,1.0005 -4.05889,-1.04348z" fill="#b4b4b4"/><path d="M221.90388,161.53601c-0.06629,1.40951 -5.17423,1.24679 -5.10794,-0.16272c0.06629,-1.40951 3.37543,-6.66206 4.18696,-6.62387c0.31429,0.01477 0.95266,0.14677 1.09911,1.21551c0.23167,1.69081 -0.1375,4.70745 -0.17812,5.57108z" fill="#bbbbbb"/></g><g stroke-width="0"><path d="M157.66242,162.05169c0,0 -5.61911,-5.18703 -5.5311,-7.05836c0.07184,-1.52795 6.10719,-1.36739 6.10719,-1.36739l7.53357,0.42621l-4.52605,10.57803z" fill="#f399c8"/><path d="M127.09289,162.25753c0,0 -0.87046,-2.1411 -0.56311,-3.20055c0.33922,-1.16918 2.56658,-4.67332 2.56658,-4.67332l23.02145,0.89678l8.71101,9.04236z" fill="#ee96c3"/></g></g><g stroke-width="0"><g><path d="M223.40244,147.03976l0.29039,-6.17499l47.76538,2.24633l-0.29039,6.17499z" fill="#61585b"/><path d="M223.39172,143.79212l0.15551,-3.3067l47.947,2.25488l-0.15551,3.30669c0,0 -8.63132,-0.40593 -17.49791,-0.8229c-2.7722,-0.13037 -6.74087,1.20191 -9.30246,1.08143c-3.04602,-0.14325 -6.24156,-1.81246 -8.19545,-1.90434c-5.85883,-0.27552 -12.9512,-0.60907 -12.9512,-0.60907z" fill="#494344"/><path d="M285.46111,140.09862l-8.43363,-19.3505l20.89614,0.98273l14.62353,17.48056c0,0 -5.76782,1.09164 -9.00839,1.19779c-5.00052,0.16379 -18.07765,-0.31056 -18.07765,-0.31056z" fill="#5e555b"/><path d="M285.30184,143.53001l0.26016,-5.53237c0,0 12.35316,-0.87379 17.27652,-1.42273c3.90731,-0.43565 6.73722,-0.88527 6.73722,-0.88527l5.60687,7.21013c0,0 -5.40153,1.34387 -9.56565,1.59247c-5.64225,0.3368 -20.31512,-0.96218 -20.31512,-0.96218z" fill="url(#color-5)"/><path d="M275.32704,120.82712l0.18773,-3.99177l19.13037,0.89967l3.44462,4.16258z" fill="url(#color-6)"/><path d="M284.71756,143.52752l0.05916,-1.25785c0,0 15.59607,0.65697 20.9845,0.74266c4.02922,0.06408 8.51888,-1.30337 8.51888,-1.30337l0.83414,1.18523l-8.30994,1.67199z" fill="#312c30"/><g><path d="M184.30742,128.19304l0.18994,-8.85922l93.82164,4.41227l7.10211,11.62829z" fill="#8a6672"/><path d="M200.4392,137.24651c0,0 -3.34628,-3.76712 -6.07919,-5.35886c-2.73294,-1.59174 -9.7975,-1.68627 -9.7975,-1.68627l0.21012,-2.07952c0,0 12.2967,0.85501 19.3138,1.28034c16.76287,1.01601 80.82867,4.78941 80.82867,4.78941l3.31068,6.72998z" fill="#755761"/><path d="M203.16753,139.86849l-2.90032,-2.73107l87.51265,3.62567l1.0594,3.13436z" fill="#694e57"/><path d="M184.31417,119.72178l0.21277,-4.52398l90.73783,3.58715l3.57944,5.83583c0,0 2.5953,3.46377 -2.68393,3.19018c-1.66192,-0.08613 -10.61449,-3.87936 -12.28057,-3.9657c-16.04539,-0.83155 -79.56553,-4.12344 -79.56553,-4.12344z" fill="#916b77"/><path d="M184.76858,115.20926l-0.00012,-2.52732l89.81607,4.08502l0.93167,2.43872z" fill="#9e7582"/><path d="M258.78041,119.37454c-8.02848,-1.02622 -72.5724,-5.09508 -72.5724,-5.09508l87.75707,4.12707l4.44592,7.65848c0,0 -11.60208,-5.66426 -19.63058,-6.69047z" fill="#b38f9a"/></g><path d="M234.00544,141.31591l0.43097,-9.16365l20.1899,0.94949l-0.43097,9.16366z" fill="#3a3336"/><path d="M234.34845,132.15228l0.78719,-1.48716l18.51795,0.87086l0.91253,1.56707z" fill="#4b4246"/><path d="M234.1689,140.82368l0.38415,-8.16856c0,0 0.81059,5.30979 3.41365,6.53971c2.60305,1.22993 15.82792,2.55181 15.82792,2.55181z" fill="#332c30"/><path d="M276.47696,123.10748l-3.63382,-6.17753c0,0 1.05313,-0.61789 1.6531,-0.58967c0.67072,0.03155 2.18264,0.77004 2.18264,0.77004l3.63382,6.17753z" fill="#757575"/><path d="M279.27159,127.97876l-5.22351,-8.86742l3.83576,0.1804l5.2235,8.86741z" fill="#5a5a5a"/><path d="M283.20887,134.62l-5.2235,-8.86741l3.83575,0.1804l5.22351,8.86742z" fill="#505050"/><path d="M287.27926,141.49853c-0.89216,-1.51452 -4.37323,-7.424 -4.37323,-7.424l3.83575,0.18041l6.12147,10.62582c0,0 -2.0787,0.43833 -3.02645,0.37892c-0.73928,-0.04635 -2.16415,-3.09333 -2.55755,-3.76116z" fill="#3b3b3b"/><path d="M182.64497,130.71589l0.87727,-18.65413l3.17746,0.14942l-0.87727,18.65413z" fill="#443e42"/><path d="M163.71454,131.42634l-0.40649,-5.95368l20.20624,0.95025l-0.27847,5.92146z" fill="url(#color-7)"/><path d="M163.27844,126.10259l0.50955,-10.83501l20.20624,0.95025l-0.50956,10.83502z" fill="#5e555b"/><path d="M163.78206,115.39373l0.99464,-4.12004l19.40711,0.91268l-0.19552,4.15762z" fill="url(#color-8)"/><path d="M234.19129,114.73559l0.28812,-6.12654l14.95554,1.77117l4.39582,4.92305z" fill="#5e555b"/><path d="M253.81409,115.65842l-4.38329,-5.18943c0,0 2.98042,0.83155 5.1593,1.93339c2.17889,1.10183 5.7057,3.56085 5.7057,3.56085z" fill="#776b73"/><path d="M231.11812,115.74789l3.25494,-1.09275l25.58427,0.93622l3.56943,1.68065z" fill="#6d6269"/></g><g><path d="M235.63688,137.41813c0.05866,-1.24747 0.62278,-2.37891 1.05933,-3.38909c0.60827,-1.40764 1.26592,-2.56583 2.59801,-3.35031c0.81367,-0.47917 1.96797,-0.81472 2.96713,-1.00836c0.66085,-0.12805 1.67768,-0.48076 2.37994,-0.44774c1.59193,0.07486 1.93004,0.17258 3.05521,0.72207c0.67778,0.331 2.29432,0.85663 2.79714,1.55316c0.42558,0.58952 0.85629,1.55936 1.16568,2.2543c0.52872,1.18762 1.24271,3.08777 1.17749,4.47486c-0.02757,0.58619 -0.58185,1.90005 -0.65568,2.41262c-0.23437,1.62724 -0.25905,2.13624 -1.52303,3.18151c-0.76823,0.6353 -2.29956,1.11172 -3.30151,1.47504c-1.03766,0.37626 -2.35276,1.18143 -3.52416,1.12635c-0.79064,-0.03719 -2.192,-0.63867 -2.95155,-0.81073c-1.64784,-0.3733 -2.53075,-0.58945 -3.50555,-1.77673c-0.83593,-1.01813 -1.02121,-2.62695 -1.32126,-4.00015c-0.1576,-0.72142 -0.45349,-1.64401 -0.41716,-2.41678z" fill="#3a3a3a"/><path d="M236.37267,137.33399c0.05369,-1.14153 0.56992,-2.17692 0.96939,-3.10132c0.55664,-1.28813 1.15841,-2.34797 2.37743,-3.06587c0.74458,-0.43848 1.80089,-0.74555 2.71519,-0.92274c0.60474,-0.1172 1.53525,-0.43993 2.17783,-0.40971c1.45677,0.06852 1.76617,0.15793 2.79581,0.66076c0.62022,0.3029 2.09952,0.78389 2.55967,1.42126c0.38945,0.53949 0.78359,1.427 1.06671,2.0629c0.48383,1.08679 1.13719,2.82561 1.07752,4.0949c-0.02523,0.5364 -0.53244,1.73873 -0.60001,2.20777c-0.21447,1.48908 -0.23706,1.95487 -1.39372,2.91138c-0.70303,0.58135 -2.10433,1.0173 -3.0212,1.34978c-0.94955,0.34431 -2.153,1.08113 -3.22494,1.03072c-0.7235,-0.03402 -2.00589,-0.58444 -2.70095,-0.74187c-1.50794,-0.34161 -2.31589,-0.53941 -3.20792,-1.62588c-0.76495,-0.9317 -0.93449,-2.4039 -1.20905,-3.66053c-0.14424,-0.66018 -0.41498,-1.50443 -0.38174,-2.21156z" fill="#5a5a5a"/><path d="M248.76397,133.38236c-1.9306,-2.4792 -7.00905,-2.91887 -7.00905,-2.91887c0,0 1.9655,-0.44816 3.95314,-0.34775c1.61005,0.08133 3.16355,0.51924 4.2607,1.87329c1.09804,1.35513 1.42174,2.85672 1.64267,4.26411c0.43318,2.75938 -0.11658,5.12897 -0.11658,5.12897c0,0 -0.80027,-5.52054 -2.73089,-7.99973z" fill="#6d6d6d"/><path d="M243.20715,138.14543c0.02704,-0.57507 0.51515,-1.01934 1.09023,-0.9923c0.57507,0.02704 1.01934,0.51515 0.99231,1.09024c-0.02704,0.57507 -0.51515,1.01934 -1.09024,0.9923c-0.57507,-0.02704 -1.01934,-0.51515 -0.9923,-1.09024z" fill="#272727"/><path d="M243.12179,138.27839c0.02481,-0.52745 0.47248,-0.93493 0.99994,-0.91013c0.52745,0.02481 0.93493,0.47248 0.91013,0.99994c-0.02481,0.52745 -0.47248,0.93493 -0.99993,0.91013c-0.52745,-0.02481 -0.93493,-0.47248 -0.91013,-0.99993z" fill="#131313"/></g></g></g></g></g><path d="M149.19029,243.87041c0.07445,-1.58292 -2.17695,-44.36192 -1.60345,-46.01195c0.77433,-2.22787 9.18266,-0.4803 12.21438,-1.84719c9.28509,-4.18633 19.30275,-8.30736 19.30275,-8.30736c0,0 14.02555,1.24072 18.25737,1.43974c3.16463,0.14883 64.81458,-5.45155 65.0703,4.89346c0.34687,14.03173 -42.58236,0.28148 -43.15222,12.39873c-0.14428,3.06753 2.25361,3.37602 1.54068,6.49318c-0.17112,0.74814 -2.76352,5.81083 -3.06635,7.4745c-0.48071,2.64088 2.62278,6.79378 -0.82933,9.73412c-2.75181,2.34387 -1.05766,7.44594 -1.75281,8.63021c-4.79049,8.16091 -12.93145,3.96944 -21.93437,3.54605c-10.67423,-0.50199 -26.38206,2.48674 -35.69717,0.80996c-4.02097,-0.72383 -8.56647,5.35423 -8.34976,0.74658z" fill="#86c8f5" stroke-width="0"/><path d="M344.34615,222.79732c4.79955,-1.43645 7.84001,4.18379 9.37896,11.5711c1.53893,7.38728 -0.16507,14.18392 -3.80599,15.18068c-3.64092,0.99676 -7.84001,-4.18379 -9.37896,-11.5711c-1.53893,-7.38728 -1.72342,-13.5258 3.80599,-15.18068z" data-paper-data="{&quot;index&quot;:null}" fill="#86c8f5" stroke-width="0"/><path d="M329.70531,241.79254c-1.51932,-7.39193 -1.42599,-11.79869 4.10703,-13.44046c4.8027,-1.42505 7.56636,2.47026 9.08566,9.86218c1.51932,7.39193 -0.20234,14.18527 -3.84538,15.17341c-3.64306,0.98811 -7.82801,-4.2032 -9.3473,-11.59513z" data-paper-data="{&quot;index&quot;:null}" fill="#86c8f5" stroke-width="0"/><path d="M319.5587,249.13932c-1.48534,-7.39983 -1.88659,-14.64755 3.65265,-16.26659c4.80808,-1.40535 8.06795,5.34272 9.55329,12.74254c1.48534,7.39983 -1.5928,10.54272 -5.23951,11.51586c-3.64673,0.97314 -6.48109,-0.59198 -7.96644,-7.99181z" data-paper-data="{&quot;index&quot;:null}" fill="#86c8f5" stroke-width="0"/><path d="M314.67671,242.15715c4.80808,-1.40535 7.55337,2.50233 9.03869,9.90215c1.48534,7.39983 -1.5928,10.54273 -5.23951,11.51586c-3.64673,0.97314 -6.48108,-0.59198 -7.96643,-7.99181c-1.48534,-7.39983 -1.37198,-11.80714 4.16723,-13.42619z" data-paper-data="{&quot;index&quot;:null}" fill="#86c8f5" stroke-width="0"/><g stroke-width="0"><g><path d="M144.25383,261.11694l0.26221,-5.57576c0,0 2.23051,0.28313 3.12941,-0.63934c1.26997,-1.30324 3.98238,-6.32121 3.98238,-6.32121l0.25279,8.1146c0,0 -3.227,3.05026 -4.8059,3.87443c-1.13994,0.59503 -2.82089,0.54726 -2.82089,0.54726z" fill="#4d484c"/><g><g><path d="M104.09618,247.86584l4.35512,-5.3634c0,0 16.30528,-8.19187 23.09107,-11.76858c5.21982,-2.75131 13.56017,-7.31529 13.56017,-7.31529l1.39408,26.44127z" fill="#eb59c1"/><path d="M106.08086,236.82276l0.79036,-29.26917c0,0 18.69535,9.65001 25.42999,12.92672c4.88706,2.37779 11.49779,11.96198 11.49779,11.96198l-6.13713,5.86572z" fill="#dd54b6"/><path d="M105.41637,219.79385l1.72261,-30.39761c0,0 11.90532,14.32088 16.49493,15.30326c6.80089,1.4557 19.74451,-0.70416 19.74451,-0.70416l-1.22393,26.02511z" fill="#ff77d8"/><path d="M108.36079,207.03752l0.66009,-14.03602l33.47305,-1.35645l1.54173,17.07018z" fill="#ee51c1"/></g><g><g><path d="M101.95522,237.24782l-3.11829,-40.99828l8.39206,0.39468l3.11829,40.99828z" fill="#a59da1"/><path d="M98.79275,196.43824c0,0 -0.56315,-4.52364 1.29292,-5.71954c1.85607,-1.19593 6.94456,-1.21013 6.94456,-1.21013l0.1683,7.32499z" fill="#b9b0b5"/><path d="M103.23323,247.96474l-1.21813,-10.74192l8.35196,0.39279l1.21813,10.74192z" fill="#8b8488"/></g><g><path d="M142.26207,235.74287l-3.11829,-40.99827l4.53418,0.21324l3.1183,40.99827z" fill="#a59da1"/><path d="M139.25623,195.74833l-0.51126,-6.47236c0,0 2.96345,-0.54179 3.96381,0.65624c1.00036,1.19801 0.93869,5.21498 0.93869,5.21498z" fill="#b9b0b5"/><path d="M143.52759,246.45931l-1.21813,-10.74192l4.50659,0.21192l1.21814,10.74192z" fill="#8b8488"/></g><path d="M103.78855,256.57634c0,0 -3.1377,-2.89336 -3.46521,-4.39502c-0.36456,-1.67159 1.37717,-5.1795 1.37717,-5.1795l47.82116,-2.15077c0,0 1.90225,2.42591 2.25348,3.93043c0.49227,2.10879 -3.94358,6.82017 -3.94358,6.82017z" fill="#494547"/><path d="M107.17038,193.45065c0,0 -2.28718,-0.67551 -2.69043,-1.26939c-0.44283,-0.65215 0.93587,-2.67221 0.93587,-2.67221c0,0 12.07827,-0.44504 17.36473,-0.51894c6.16281,-0.08614 16.59306,0.22035 16.59306,0.22035c0,0 0.47301,1.24751 0.3597,1.84024c-0.10974,0.57403 -0.62624,1.68078 -0.62624,1.68078z" fill="#c2b8bd"/><path d="M104.20066,255.37365c0,0 -1.10023,-2.89016 -1.26335,-4.5753c-0.13538,-1.39848 0.29585,-3.63806 0.29585,-3.63806l44.98693,-1.94562c0,0 1.87804,3.24475 1.79993,4.9056c-0.0839,1.78421 -2.23085,4.25729 -2.23085,4.25729z" fill="#6f696b"/><path d="M115.05545,261.31985l0.26222,-5.57575l29.83596,-0.20343l-0.26221,5.57575z" fill="#333032"/><path d="M103.52959,260.89938c-1.07907,-0.69939 -2.68837,-2.24243 -2.68837,-2.24243l-0.54849,-6.85268c0,0 2.36422,2.38609 3.50629,3.80277c0.80836,1.00275 11.57122,0.02792 11.57122,0.02792l-0.26221,5.57575c0,0 -10.49938,0.38808 -11.57844,-0.31132z" data-paper-data="{&quot;index&quot;:null}" fill="#444043"/><g><path d="M105.77354,208.36969c0,0 -2.35913,-4.85832 -2.30355,-6.59984c0.03848,-1.20571 2.60496,-2.84617 2.60496,-2.84617l35.16532,-1.374c0,0 1.44521,3.19529 1.39553,4.75207c-0.05077,1.59113 -1.69696,4.69393 -1.69696,4.69393z" fill="#979797"/><path d="M105.877,207.30731c0,0 -2.40563,-4.31501 -2.36747,-5.85272c0.02642,-1.06466 2.5743,-2.48807 2.5743,-2.48807l35.12154,-0.86252c0,0 1.47588,2.83686 1.44179,4.21153c-0.03483,1.40494 -1.6486,4.12928 -1.6486,4.12928z" fill="#a2a2a2"/></g><g><path d="M107.37471,225.00294c0,0 -2.35913,-4.85832 -2.30355,-6.59984c0.03848,-1.20571 2.60495,-2.84618 2.60495,-2.84618l35.16532,-1.37399c0,0 1.44521,3.19528 1.39554,4.75206c-0.05077,1.59113 -1.69696,4.69392 -1.69696,4.69392z" fill="#979797"/><path d="M107.47814,223.94057c0,0 -2.40561,-4.31501 -2.36746,-5.85272c0.02641,-1.06465 2.5743,-2.48806 2.5743,-2.48806l35.12154,-0.86251c0,0 1.47588,2.83686 1.44179,4.21153c-0.03484,1.40494 -1.64861,4.12927 -1.64861,4.12927z" fill="#a2a2a2"/></g><g><path d="M109.0595,242.1359c0,0 -2.35913,-4.85832 -2.30355,-6.59984c0.03848,-1.20571 2.60495,-2.84617 2.60495,-2.84617l35.16532,-1.374c0,0 1.44521,3.19529 1.39553,4.75207c-0.05077,1.59113 -1.69696,4.69392 -1.69696,4.69392z" fill="#7a7a7a"/><path d="M109.16293,241.07355c0,0 -2.40563,-4.31501 -2.36747,-5.85273c0.02641,-1.06465 2.5743,-2.48805 2.5743,-2.48805l35.12155,-0.86252c0,0 1.47586,2.83686 1.44179,4.21153c-0.03484,1.40494 -1.64861,4.12929 -1.64861,4.12929z" fill="#929292"/></g></g></g></g><path d="M102.38462,241.22626c0,0 -0.30448,-1.73266 -0.50041,-4.05505c-0.5752,-6.81831 -3.2894,-40.86944 -3.2894,-40.86944l2.96233,4.44705l2.00976,29.55178z" fill="#777275"/></g></g></g></svg>