<svg version="1.1" xmlns="http://www.w3.org/2000/svg" xmlns:xlink="http://www.w3.org/1999/xlink" width="469.02857" height="151.95513" viewBox="0,0,469.02857,151.95513"><defs><linearGradient x1="523.0344" y1="214.21928" x2="522.21674" y2="218.96093" gradientUnits="userSpaceOnUse" id="color-1"><stop offset="0" stop-color="#1f1d20"/><stop offset="1" stop-color="#202022"/></linearGradient><linearGradient x1="524.29273" y1="209.50956" x2="523.35185" y2="214.96529" gradientUnits="userSpaceOnUse" id="color-2"><stop offset="0" stop-color="#302d31"/><stop offset="1" stop-color="#1f1e20"/></linearGradient><linearGradient x1="186.20891" y1="199.98534" x2="185.63275" y2="203.32612" gradientUnits="userSpaceOnUse" id="color-3"><stop offset="0" stop-color="#585758"/><stop offset="1" stop-color="#575758"/></linearGradient><linearGradient x1="171.57367" y1="207.68868" x2="171.12135" y2="210.31135" gradientUnits="userSpaceOnUse" id="color-4"><stop offset="0" stop-color="#363536"/><stop offset="1" stop-color="#353536"/></linearGradient><linearGradient x1="328.62582" y1="140.6015" x2="327.68461" y2="146.05946" gradientUnits="userSpaceOnUse" id="color-5"><stop offset="0" stop-color="#5e555b"/><stop offset="1" stop-color="#2b2629"/></linearGradient><linearGradient x1="322.52245" y1="118.577" x2="321.84332" y2="122.51501" gradientUnits="userSpaceOnUse" id="color-6"><stop offset="0" stop-color="#72676e"/><stop offset="1" stop-color="#5e555b"/></linearGradient><linearGradient x1="208.84682" y1="113.07708" x2="207.83938" y2="118.91887" gradientUnits="userSpaceOnUse" id="color-7"><stop offset="0" stop-color="#5e555b"/><stop offset="1" stop-color="#4d454a"/></linearGradient><linearGradient x1="211.26894" y1="99.03213" x2="210.56159" y2="103.13389" gradientUnits="userSpaceOnUse" id="color-8"><stop offset="0" stop-color="#74686f"/><stop offset="1" stop-color="#5e555b"/></linearGradient></defs><g transform="translate(-58.96776,-97.44925)"><g data-paper-data="{&quot;isPaintingLayer&quot;:true}" fill-rule="nonzero" stroke="none" stroke-linecap="butt" stroke-linejoin="miter" stroke-miterlimit="10" stroke-dasharray="" stroke-dashoffset="0" style="mix-blend-mode: normal"><g><g stroke-width="0"><path d="M249.25138,195.64442l-7.47354,-16.86063l25.30368,3.76485c0,0 -2.07309,5.55736 -2.72869,8.18261c-0.63418,2.53954 -1.14275,7.32038 -1.14275,7.32038z" fill="#7f7d7e"/><path d="M249.31487,195.85513l-2.63378,-6.14388c0,0 1.72007,3.90416 4.80468,5.0599c2.22123,0.83223 4.13261,0.84733 6.72056,1.61919c2.58791,0.77184 4.8735,1.83863 4.8735,1.83863z" fill="#6c6a6b"/></g><g><g><g><path d="M519.26915,218.45262l-1.21131,-5.09155c0,0 5.62258,2.65196 8.03042,3.97322c2.40784,1.3213 0.69872,2.17944 0.69872,2.17944z" fill="url(#color-1)" stroke-width="0"/><path d="M527.7912,210.31549c0,0 1.0625,2.54541 -1.64879,2.98389c-2.71129,0.4385 -5.77999,1.15036 -5.77999,1.15036l-0.01574,-5.62064z" data-paper-data="{&quot;index&quot;:null}" fill="url(#color-2)" stroke-width="0"/><path d="M509.792,216.81353l0.35662,-2.06788l14.55767,2.51057c0,0 1.10434,0.99646 1.5228,1.44035c0.37614,0.39901 -0.88386,0.79924 -0.88386,0.79924z" fill="#444444" stroke-width="NaN"/><path d="M510.15742,214.89286l-0.87525,-1.93075l12.43214,2.14398l3.06558,2.19497c0,0 -4.19696,-0.48225 -6.4712,-0.85685c-2.56487,-0.42245 -8.15124,-1.55144 -8.15124,-1.55144z" fill="#535353" stroke-width="0"/><path d="M509.14838,213.07772l-0.21128,-0.68589l11.3069,1.94989l1.57163,0.8045z" fill="#363636" stroke-width="0"/><path d="M509.792,216.81353l0.19348,-1.1218c0,0 6.28266,1.54377 9.1205,2.03317c2.40486,0.41476 6.8238,0.71645 6.8238,0.71645c0,0 0.773,0.60235 0.98225,0.84435c0.17654,0.20412 -0.32549,0.4241 -0.32549,0.4241c0,0 -4.73267,-0.40569 -7.01274,-0.79894c-3.07616,-0.53052 -9.78188,-2.09739 -9.78188,-2.09739z" fill="#3a3a3a" stroke-width="NaN"/><path d="M509.25026,212.46444l-0.39523,-0.9649l13.4432,2.31833l-1.95104,0.59471z" fill="#242424" stroke-width="0"/><path d="M508.02654,211.54865l0.28119,-1.63025c0,0 8.01068,1.17221 10.96282,1.68135c2.0113,0.34686 5.03753,1.07795 5.03753,1.07795l-2.04035,1.15947z" fill="#3a3a3a" stroke-width="0"/><path d="M508.17275,209.93829l0.34711,-2.01284c0,0 7.59804,0.97557 10.86409,1.53878c2.82626,0.48739 7.60438,1.64616 7.60438,1.64616l-2.73009,1.60191c0,0 -3.58768,-0.7024 -5.79955,-1.0838c-2.93996,-0.507 -10.28596,-1.69016 -10.28596,-1.69016z" fill="#444444" stroke-width="0"/><path d="M508.46291,208.00197l0.14466,-0.83868c0,0 7.78033,1.21621 11.32524,1.82754c2.46837,0.42567 7.90925,1.48952 7.90925,1.48952l-0.9971,0.69169c0,0 -4.9314,-1.14341 -7.85351,-1.64734c-3.21939,-0.55521 -10.52853,-1.52275 -10.52853,-1.52275z" fill="#535353" stroke-width="0"/><path d="M508.4654,207.22512l0.05788,-0.33547c0,0 7.65077,0.80486 11.06083,1.393c2.94824,0.50844 8.21613,1.93141 8.21613,1.93141l-0.02083,0.34188c0,0 -5.89344,-1.18372 -9.09124,-1.73522c-3.23962,-0.55867 -10.22271,-1.59553 -10.22271,-1.59553z" fill="#4e4e4e" stroke-width="0"/></g><g stroke-width="0"><g><g><g><path d="M504.10631,215.33781l-2.27805,-13.75079l0.83751,-1.6023c0,0 2.87545,3.77276 3.36121,6.38365c0.26371,1.41745 -0.48724,9.21666 -0.48724,9.21666z" fill="#383638"/><path d="M505.25969,214.83515c0,0 0.16114,-0.59089 -0.04112,-3.11687c-0.22057,-2.75467 -0.97471,-6.57553 -1.17961,-7.70066c-0.45997,-2.52562 -1.18174,-2.78251 -1.18174,-2.78251l4.82907,0.24236l2.59023,14.22287z" fill="#555355"/><path d="M502.90576,201.33009l-0.36327,-1.31725c0,0 2.12676,-0.44509 3.07438,-0.28163c0.88798,0.15313 1.88312,1.06276 1.88312,1.06276l0.35086,1.38888z" fill="#686668"/></g><path d="M498.51612,214.37376l-2.27805,-13.75078l0.50807,-1.63872c0,0 3.20491,3.80915 3.69063,6.42002c0.26372,1.41744 -0.48723,9.21666 -0.48723,9.21666z" fill="#383638"/><path d="M499.66945,213.87106c0,0 0.16115,-0.5909 -0.04112,-3.11687c-0.22057,-2.75467 -0.97471,-6.57553 -1.17961,-7.70066c-0.45997,-2.52562 -1.18174,-2.78251 -1.18174,-2.78251l4.17498,-0.3778c0,0 0.79804,1.41038 0.93823,2.18017c0.39945,2.19327 2.3062,12.66281 2.3062,12.66281z" fill="#555355"/><path d="M497.31555,200.36595l-0.57822,-1.35436c0,0 2.34177,-0.40794 3.28942,-0.24455c0.88798,0.15313 1.59645,1.01334 1.59645,1.01334l0.47409,1.41017z" fill="#686668"/><path d="M506.235,213.99491c0.13928,-0.8076 0.9069,-1.34936 1.71445,-1.2101c0.80762,0.13928 1.34936,0.9069 1.2101,1.71445c-0.13928,0.8076 -0.9069,1.34936 -1.71444,1.2101c-0.80762,-0.13928 -1.34936,-0.9069 -1.2101,-1.71445z" fill="#312f31"/><path d="M507.37891,211.21966l-1.02769,-5.80563l1.59261,0.12922l1.01676,5.86924z" fill="#444144"/></g><path d="M460.59974,202.79518l-1.87052,-11.30587l29.24773,6.23772l-2.10324,9.42673z" fill="#444444"/><path d="M473.72216,201.08494c0,0 0.71543,-0.40629 1.61499,-1.37236c0.82249,-0.88328 1.81264,-2.31374 2.27049,-2.70535c1.25106,-1.51592 3.51572,-0.65166 3.51572,-0.65166l-1.07632,0.47708l-5.19863,4.44653z" fill="#292929"/><path d="M474.69131,211.93692l-4.555,-11.91886c0,0 3.35755,1.11813 5.21469,0.37389c1.44316,-0.5784 1.79761,-3.18808 3.39982,-3.19688c4.59665,-0.02505 17.35766,1.73532 17.35766,1.73532c0,0 1.97877,7.59168 2.40185,10.5943c0.29207,2.07293 -0.05559,6.5104 -0.05559,6.5104z" fill="#4a464a"/><path d="M480.99603,199.72211c-4.38636,-1.4019 -2.73471,-2.50113 -2.73471,-2.50113c0,0 1.00247,-1.14857 2.86751,-0.97527c4.57662,0.42532 12.99598,2.46264 14.69753,2.73008c0.80245,0.12608 0.22325,0.74458 0.22325,0.74458c0,0 -1.87318,2.09814 -3.44441,2.08494c-1.57128,-0.01318 -7.22276,-0.68135 -11.60918,-2.08325z" fill="#5e595e"/></g><g><path d="M461.94166,216.41057l-2.03816,-18.55174l18.58407,3.49547l3.9941,5.08103l6.02725,0.93943l0.64402,13.72852z" fill="#4d4846"/><path d="M466.49825,217.58915l21.95183,-5.74447l22.03817,3.55461c0,0 0.58204,4.34503 0.49273,5.70417c-0.04554,0.69299 -0.65308,2.87498 -0.65308,2.87498z" fill="#423d3b"/><path d="M464.15231,208.75094l-1.45987,-10.24322l0.80857,0.13946l1.45987,10.24322z" fill="#363332"/><path d="M467.2115,216.89872l0.2069,-1.19966c0,0 5.62047,-1.61375 14.55347,-0.07322c1.18688,0.20468 4.9408,3.43508 6.1371,3.64141c7.59006,1.30894 15.01929,2.59014 17.84561,3.07755c2.30182,0.397 4.87325,-0.47876 4.87325,-0.47876l-0.42782,2.48076z" fill="#312e2c"/><path d="M471.712,204.74661l-0.9339,-4.84455l8.18683,1.41184l3.34319,5.06315l6.18182,1.26302l-7.81052,0.63052z" fill="#585350"/><path d="M461.16891,210.0577l0.19173,-1.11178c0,0 8.56505,-2.32174 11.40035,-1.83284c4.27332,0.73697 16.07047,2.7714 16.07047,2.7714l-0.19173,1.11178c0,0 -11.99941,-2.06936 -16.27266,-2.80622c-2.77713,-0.47898 -11.19825,1.86769 -11.19825,1.86769z" fill="#2b2827"/></g></g></g><g><g><g><path d="M124.15544,195.22197c0.1533,2.29334 -0.59174,4.79266 -1.71175,4.8675c-1.12001,0.07485 -2.19094,-2.30304 -2.34422,-4.59647c-0.1533,-2.29334 -0.79995,-11.10182 0.32008,-11.17668c1.12001,-0.07485 3.58266,8.61219 3.73589,10.90563z" fill="#615e5f" stroke-width="0"/><g><path d="M170.22915,172.79683c-0.4418,-0.61159 -2.52539,-2.30265 -2.52539,-2.30265l10.26513,-1.15228l-7.13632,6.07555c0,0 -0.16158,-2.00904 -0.60345,-2.62068z" fill="#756a6a" stroke-width="0"/><path d="M161.62235,169.59025l2.33392,-13.53354l19.2607,-2.63167l-3.33088,19.31494z" fill="#8a7c7c" stroke-width="0"/><path d="M121.2432,168.15418l9.65136,-16.73657l34.44782,5.80539l2.31471,13.25283c0,0 -22.92333,-2.35392 -30.66591,-2.74118c-3.21404,-0.16078 -15.74807,0.41958 -15.74807,0.41958z" fill="#7c787a" stroke-width="0"/><path d="M130.60251,153.80753l0.10578,-1.4851c0,0 25.54711,4.40565 33.57838,5.79069c4.49354,0.77491 16.99585,-3.53337 16.99585,-3.53337l-0.27692,1.60597c0,0 -12.20912,4.33929 -16.55248,3.57541c-7.96407,-1.40071 -33.85061,-5.95353 -33.85061,-5.95353z" fill="#535353" stroke-width="0"/><path d="M89.51003,163.40001l3.42511,-19.86085c0,0 5.66403,-6.18146 13.19302,-7.21293c9.35129,-1.28111 25.69101,3.34823 27.73162,3.70009c1.56586,0.27002 -14.49012,8.07157 -14.49012,8.07157l-3.42511,19.86085z" fill="#8d898b" stroke-width="0"/><path d="M267.78341,147.32001l2.11367,-2.82617l105.97617,18.42095l-2.50603,14.53175c0,0 -37.5447,-4.60198 -49.51702,-7.08889c-5.94577,-1.23508 -56.0668,-23.0377 -56.0668,-23.0377z" fill="#c98cac" stroke-width="0"/><path d="M229.26999,243.16923l-2.27909,-13.52042c0,0 4.07095,6.62771 6.69416,8.17286c1.67136,0.98444 5.77109,2.07889 12.20726,0.71538c5.18129,-1.09764 11.21134,-5.64992 11.21134,-5.64992l-14.03367,12.66189z" fill="#a08e97" stroke-width="0"/><path d="M326.41655,212.31398l1.71042,-23.67513l18.51593,1.76971l-3.60233,20.88868c0,0 -6.59651,0.60691 -9.44006,0.82515c-1.30931,0.10046 -7.18399,0.19165 -7.18399,0.19165z" fill="#96858d" stroke-width="0"/><path d="M226.8225,246.54819l0.9415,-5.45956c0,0 11.53623,4.08855 16.61898,1.7977c2.47362,-1.11488 22.63766,-18.87902 33.76291,-28.76408c4.34162,-3.85768 7.30677,-6.51535 7.30677,-6.51535c0,0 3.95168,-3.14742 4.44549,-5.98702c0.24836,-1.42844 1.42166,-5.46651 0.99503,-7.88554c-0.43044,-2.44068 -2.46201,-3.25608 -2.46201,-3.25608l-2.49471,-14.20289l19.50334,3.50924l-7.38308,25.69233l3.26814,3.16328c0,0 -10.43575,4.28897 -15.83949,8.38598c-8.45492,6.41018 -36.66778,32.37818 -36.66778,32.37818z" fill="#918189" stroke-width="0"/><path d="M303.51363,208.72224l6.05705,-27.98154l13.52839,2.61286l8.17317,13.58886l-4.98314,15.70759z" fill="#96858d" stroke-width="0"/><path d="M298.74063,209.77553l-1.76818,-4.51191l7.93828,-25.20746l5.02039,0.77984l-5.52396,28.05604z" fill="#8f8187" stroke-width="0"/><path d="M325.05513,212.54225c0,0 3.84477,-6.10241 3.43125,-11.66441c-0.23812,-3.2026 -4.74283,-5.97824 -4.88875,-7.94154c-0.27874,-3.75039 -0.71013,-9.55225 -0.71013,-9.55225l6.99919,5.63546c0,0 2.1307,7.68766 1.99543,11.98877c-0.09077,2.88968 -2.63647,8.92079 -3.99127,11.32443c-0.11419,0.20265 -1.25911,-0.07934 -1.33809,0.07485c-0.19295,0.37651 0.71795,0.76838 0.71795,0.76838z" fill="#86787e" stroke-width="0"/><path d="M329.42031,190.4611c0,0 -2.37371,-4.42267 -6.823,-6.17593c-5.03708,-1.98488 -21.85547,-5.12486 -21.85547,-5.12486l157.85298,12.83124l1.785,9.74695l5.90904,12.32617c0,0 -98.88871,-19.66318 -119.17753,-23.16203c-6.62053,-1.14174 -17.69098,-0.44148 -17.69098,-0.44148z" fill="#df8db7" stroke-width="0"/><path d="M169.41084,210.84499l1.43568,-36.55765c0,0 2.29617,-3.41006 2.82669,-3.53741c5.84933,-1.40421 39.23016,-6.45661 44.54164,-5.25011c5.81848,1.32161 -11.10712,10.50742 -11.10712,10.50742c0,0 -14.54451,-0.45242 -17.76756,3.30437c-4.37595,5.10064 -2.54821,23.0255 -2.54821,23.0255z" fill="#c77da3" stroke-width="0"/><path d="M245.86401,193.65899l-1.40569,-2.37875c0,0 7.9262,-7.36673 10.71407,-9.2125c2.8781,-1.9056 6.29247,-2.04752 6.29247,-2.04752l5.4579,3.27742c0,0 -4.32557,-1.25591 -6.9466,0.03362c-2.25008,1.10707 -6.47081,3.50333 -9.75577,6.07478c-2.38959,1.87052 -4.3563,4.25293 -4.3563,4.25293z" fill="#414041" stroke-width="0"/><path d="M130.46563,152.72217l6.7168,-10.70377l47.92108,8.26417c0,0 -3.6136,3.89808 -7.02198,5.30545c-3.34519,1.38133 -13.24222,3.06197 -13.24222,3.06197z" fill="#979395" stroke-width="0"/><path d="M131.44815,151.73191l5.92834,-10.83968l47.92108,8.26417c0,0 -3.6136,3.89808 -7.02198,5.30545c-3.34519,1.38133 -13.24222,3.06197 -13.24222,3.06197z" fill="#bdb7ba" stroke-width="0"/><path d="M327.37376,213.26759l-1.75839,-0.82432l17.31327,-1.25065c0,0 -3.85822,1.42241 -6.44146,1.78558c-2.58323,0.36324 -9.1134,0.2894 -9.1134,0.2894z" fill="#887980" stroke-width="0"/><path d="M171.78149,211.72519c0,0 -0.52757,-10.71092 -0.26019,-19.32933c0.2687,-8.66041 0.54586,-16.77812 1.13326,-20.31449c0.09955,-0.59908 3.41133,-10.10526 3.99241,-10.53412c3.13671,-2.31504 9.44996,6.63163 15.12066,6.48967c8.39646,-0.21009 27.31438,2.53068 27.31438,2.53068l-9.23326,3.79679c0,0 -19.65357,-0.48196 -22.8835,4.17412c-4.36879,6.29781 -0.45537,28.15353 -0.45537,28.15353z" fill="#d486ae" stroke-width="0"/><path d="M173.49456,208.44987c0,0 0.3817,-41.40904 3.40183,-51.114c1.41307,-4.54083 -0.34508,-14.08629 -0.34508,-14.08629l48.74592,15.47794l-1.32782,16.07822c0,0 -31.05049,-8.49366 -38.37481,-3.39014c-4.88921,3.40673 -2.97894,32.39614 -2.97894,32.39614z" fill="#e490bb" stroke-width="0"/><g stroke-width="0"><path d="M320.61042,169.89698l1.40626,-8.15449l9.22379,1.59069l-1.40626,8.15449z" fill="#454545"/><path d="M321.56065,169.2847l0.88874,-7.25256l11.16144,1.92484l-1.24027,7.19194z" fill="#b0b0b0"/><path d="M322.09637,164.8218l0.25574,-2.828l11.37494,1.96167l-0.32414,1.87965c0,0 -7.73436,-1.0066 -9.43251,-1.15878c-0.56744,-0.05088 -1.87398,0.14548 -1.87398,0.14548z" fill="#bebebe"/><path d="M332.71366,170.65044c0,0 -5.02582,-3.45982 -3.82625,-7.0559c1.78254,-5.34381 5.76254,-4.17233 5.76254,-4.17233l39.43039,8.15294l-1.70976,9.91426z" fill="#9c989a"/><path d="M334.69406,169.68367c0,0 -1.85258,-3.89038 -1.93564,-4.84521c-0.12318,-1.41539 2.34519,-3.99067 2.34519,-3.99067l40.98502,7.10187l-1.66683,7.31171z" fill="#898587"/><path d="M334.5713,169.86367l-0.67516,-2.08442l37.6756,6.49732l-0.32959,1.91118z" fill="#c1bcbf"/><path d="M335.02867,166.49855c0,0 -1.08147,-1.57466 -0.92216,-2.4984c0.14897,-0.86408 1.84914,-2.87679 1.84914,-2.87679l38.10422,6.57124l-0.92703,5.37519z" fill="#0d0d0d"/><path d="M334.89658,167.26457c0,0 -0.97883,-2.16965 -0.81954,-3.09336c0.14897,-0.86408 1.74651,-2.28186 1.74651,-2.28186l38.10423,6.57124l-0.92703,5.37519z" fill="#2e2e2e"/><path d="M329.8173,168.31999c-2.07926,-3.47085 -0.53393,-5.57534 -0.53393,-5.57534c0,0 1.10672,4.3639 2.17169,5.45843c1.26091,1.29581 4.58604,3.25542 4.58604,3.25542l-3.46968,-0.52716c0,0 -2.38824,-2.00049 -2.75414,-2.61128z" fill="#7d7a7c"/><path d="M337.40615,168.01157c0,0 -0.5,-2.33094 -0.3057,-3.45783c0.17081,-0.99065 1.4103,-2.94763 1.4103,-2.94763l4.75314,0.81973c0,0 -0.82898,2.09355 -0.9765,2.94915c-0.2028,1.17593 -0.12812,3.45625 -0.12812,3.45625z" fill="#555555"/><path d="M345.89751,169.47603c0,0 1.08575,-2.37313 1.28006,-3.50008c0.17081,-0.99065 -0.17542,-2.90541 -0.17542,-2.90541l5.30501,0.91486c0,0 -0.70208,1.61929 -0.84966,2.4749c-0.2028,1.17593 -0.25501,3.93056 -0.25501,3.93056z" fill="#555555"/><path d="M355.08852,171.061c0,0 1.08575,-2.37312 1.28008,-3.50006c0.17081,-0.99065 -0.17542,-2.9054 -0.17542,-2.9054l5.22621,0.90126c0,0 -0.70208,1.61929 -0.84966,2.4749c-0.2028,1.17593 -0.25501,3.93056 -0.25501,3.93056z" fill="#555555"/><path d="M364.61121,172.70322c0,0 1.20052,-1.99249 1.39484,-3.11946c0.17081,-0.99065 -0.29024,-3.28596 -0.29024,-3.28596l5.06852,0.87409c0,0 0.47894,2.09357 0.33137,2.94925c-0.2028,1.17593 -1.43599,3.45624 -1.43599,3.45624z" fill="#555555"/><path d="M338.12887,162.25468l-0.51948,-0.9014l35.04528,6.04368l-1.64789,0.52762c0,0 -2.78891,-0.48097 -5.21529,-0.89939c-0.52887,-0.09124 -1.47383,-0.58776 -2.26604,-0.72446c-0.76596,-0.13206 -1.3716,0.09707 -2.32378,-0.06712c-1.48476,-0.25605 -3.16001,-0.54492 -4.91378,-0.8474c-0.72708,-0.1254 -1.29455,-0.61245 -2.04072,-0.74116c-0.66348,-0.11439 -1.50449,0.12971 -2.17112,0.0148c-1.65445,-0.28531 -3.29258,-0.56783 -4.83277,-0.83342c-0.70726,-0.12197 -1.31934,-0.67233 -1.9774,-0.78582c-0.80334,-0.13857 -1.63854,0.16227 -2.34241,0.04086c-2.87112,-0.49515 -4.79467,-0.82684 -4.79467,-0.82684z" fill="#474747"/></g><g><path d="M181.65553,203.3335l4.15032,-2.19406c0,0 2.30544,3.25402 4.94619,4.6176c2.33558,1.20602 10.09541,3.14933 10.09541,3.14933l-3.35643,3.83975z" fill="#6d6a6b" stroke-width="0"/><path d="M172.60914,208.36949l10.35228,-5.70891c0,0 2.8042,2.77342 4.82894,3.79427c3.06316,1.54438 11.7615,4.57032 11.7615,4.57032l-4.9475,3.51767z" fill="#615e5f" stroke-width="0"/><path d="M170.84559,230.35701l2.3744,-22.49682c0,0 4.15631,1.5204 8.90243,2.36894c3.70453,0.66227 7.83737,0.5154 10.18163,1.53705c4.1155,1.79347 35.05407,19.66705 35.05407,19.66705l0.71326,10.44803z" fill="#575455" stroke-width="0"/><path d="M196.71863,207.37787c7.77823,-4.30598 18.01643,-16.191 19.69349,-18.51113c1.20816,-1.67148 2.78229,-6.75393 2.78229,-6.75393l6.4335,8.02491c0,0 2.28137,21.19274 1.29555,33.85617c-0.27586,3.54336 1.53458,7.859 0.11632,9.10258c-1.27068,1.11418 -18.37445,0.48826 -23.56022,-1.18213c-10.91334,-3.5152 -17.09518,-1.75058 -19.88892,-7.5856c-2.79377,-5.83499 5.26931,-10.8073 5.26931,-10.8073c0,0 5.83368,-5.02245 7.85864,-6.14348z" fill="#504e4f" stroke-width="0"/><path d="M207.03284,175.84684c0,0 0.64373,-1.4038 1.60105,-1.912c1.23119,-0.65362 5.17321,-1.68433 5.17321,-1.68433c0,0 8.87938,3.62915 11.42268,6.59452c2.34657,2.73594 -5.59002,11.80021 -5.59002,11.80021l-1.0662,-5.62438z" fill="#464445" stroke-width="0"/><path d="M221.90325,226.33591c0,0 -10.21237,4.58693 -18.60247,3.31402c-8.09397,-1.22799 -14.38297,-8.29141 -14.03584,-9.67471c0.18809,-0.74951 8.56245,-2.65943 12.70582,-6.2286c4.60576,-3.96752 5.09341,-9.66912 6.76626,-11.42074c4.6702,-4.89016 14.7221,-13.48542 14.7036,-19.62145c-0.01939,-6.43499 -10.22864,-10.30007 -10.22864,-10.30007c0,0 4.17784,-1.56445 9.11306,-0.8451c2.10227,0.30645 6.34817,2.44494 7.19257,2.98122c2.76916,1.75857 4.45281,3.70929 4.45281,3.70929c0,0 4.43457,-4.1866 8.03687,-3.87938c3.60229,0.30723 21.65328,6.41133 21.65328,6.41133l-18.11502,9.65591z" fill="#555354" stroke-width="0"/><path d="M208.24545,202.84478c0,0 6.40138,-9.92931 11.98661,-14.48129c5.58518,-4.55193 10.1448,-6.99307 13.62574,-6.39275c2.52075,0.43471 4.29697,9.48362 4.29697,9.48362l-15.805,26.46827c0,0 -14.96571,0.74662 -15.99989,-1.94902c-0.81679,-2.129 1.89565,-13.12881 1.89565,-13.12881z" fill="#585758" stroke-width="0"/><path d="M225.83325,233.58058c0,0 -1.78416,-6.59014 -0.94902,-9.51296c1.16665,-4.08312 4.73999,-16.30762 4.73999,-16.30762l0.1547,10.61641c0,0 -2.28772,9.49688 -2.67185,12.5052c-0.37063,2.90256 0.66314,5.2833 0.66314,5.2833z" fill="#3f3e3f" stroke-width="0"/><path d="M227.95428,215.81743c0.09204,-1.68363 1.6655,-9.23704 1.6655,-9.23704c0,0 11.89488,-12.73167 14.41271,-14.98971c0.73808,-0.66195 4.33913,-1.79745 4.33913,-1.79745l-2.44719,4.50354c0,0 -1.65357,0.32772 -1.91199,0.76805c-0.27529,0.46914 0.30763,1.96575 0.30763,1.96575l-6.49541,7.48515c0,0 -1.7984,0.71535 -2.06079,1.18293c-0.26249,0.46768 0.26417,1.45981 0.26417,1.45981c0,0 -5.31783,8.15617 -6.55843,10.39267c-0.57361,1.03407 -0.58547,2.48576 -0.58547,2.48576c0,0 -1.02183,-2.53571 -0.92977,-4.21938z" fill="#474647" stroke-width="0"/><path d="M218.58261,192.9233l19.35296,11.69438c0,0 -1.34367,0.79553 -1.66903,1.28637c-0.24009,0.36226 -0.1061,1.39204 -0.1061,1.39204z" fill="#3f3e3e" stroke-width="NaN"/><path d="M226.25477,183.74062l19.90064,10.59498c0,0 -1.24211,0.64153 -1.54459,1.15393c-0.31532,0.53416 -0.13459,1.66043 -0.13459,1.66043z" fill="#3f3e3e" stroke-width="NaN"/><path d="M209.12161,209.88932c0,0 9.22951,9.39826 14.00627,16.28781c4.77673,6.88959 2.65917,7.74911 2.65917,7.74911z" fill="#636162" stroke-width="NaN"/><path d="M226.13355,189.42616c0,0 -6.40691,1.84202 -9.64237,4.42567c-3.23551,2.58366 -14.19847,17.11485 -13.69786,14.21214c0.50059,-2.90269 16.95288,-21.09239 18.72171,-20.78737c0.66961,0.11546 3.85582,-0.49417 4.62194,-0.12107c1.25777,0.61252 -0.00339,2.27055 -0.00339,2.27055z" fill="#918f91" stroke-width="0"/><path d="M170.41798,230.15192l14.06091,0.50865c0,0 12.46917,1.81317 15.53387,2.49904c7.46348,1.67027 29.40957,7.55905 29.40957,7.55905l-1.51472,6.15315c0,0 -24.61252,-0.62644 -31.18306,-3.0946c-1.90083,-0.71405 -7.5279,-2.31163 -11.49189,-4.36739c-7.75744,-4.02303 -14.81466,-9.25795 -14.81466,-9.25795z" fill="#626061" stroke-width="0"/><path d="M226.9771,246.35441c0,0 0.76938,-4.22333 0.72463,-6.60542c-0.05031,-2.6774 -1.0118,-8.67696 -1.0118,-8.67696l1.7564,0.30293c0,0 0.93678,4.68416 0.98232,7.10799c0.04979,2.6501 -0.6951,8.17436 -0.6951,8.17436z" fill="#4a494a" stroke-width="0"/><path d="M226.64251,247.14539l0.66429,-3.33277c0,0 0.51351,0.3572 0.78108,0.40331c0.3179,0.05483 0.96071,-0.10294 0.96071,-0.10294l-0.36862,3.1599c0,0 -0.83454,0.26972 -1.20576,0.24646c-0.28445,-0.01779 -0.83166,-0.37401 -0.83166,-0.37401z" fill="#363536" stroke-width="0"/><path d="M226.78669,232.12922l-0.10482,-1.66264c0,0 0.47153,-0.2783 0.84475,-0.2741c0.35541,0.00406 0.84936,0.21375 0.84936,0.21375l0.19921,1.79641c0,0 -0.56109,0.41817 -0.86747,0.40558c-0.2887,-0.01186 -0.92103,-0.47905 -0.92103,-0.47905z" fill="#585758" stroke-width="0"/><path d="M185.8111,238.81761c0,0 -7.27848,-4.25161 -7.04684,-5.59482c0.23283,-1.34989 6.57826,-1.44367 6.57826,-1.44367c0,0 10.82559,1.62263 15.68119,2.6351c2.71831,0.56688 10.97209,2.92279 10.97209,2.92279c0,0 7.00659,2.2781 7.61414,3.55159c0.66264,1.38912 -3.62821,3.53272 -3.62821,3.53272c0,0 -12.76072,-0.87529 -16.63248,-1.7543c-1.37536,-0.31227 -13.53803,-3.84929 -13.53803,-3.84929z" fill="#6b696a" stroke-width="0"/><path d="M176.75198,230.25195l-1.97233,-0.10593c0,0 1.20102,-3.27825 3.67032,-1.59188c2.46936,1.68642 21.3392,3.91426 21.3392,3.91426z" fill="#4b4949" stroke-width="0"/><path d="M170.51439,230.02241c0,0 -2.00129,-0.15071 -1.90951,-3.8314c0.04648,-1.86315 0.74371,-16.14454 0.74371,-16.14454l4.17428,-2.22201c0,0 -0.34674,6.02246 -0.63675,8.9175c-0.38579,3.85039 -1.46194,13.43738 -1.46194,13.43738z" fill="#3f3d3e" stroke-width="0"/><path d="M177.04092,230.4702c0,0 3.51301,-1.58417 19.39311,0.81235c1.31141,0.19793 -1.76359,-0.33668 7.41316,1.76079c9.17682,2.09738 12.7711,4.25222 12.7711,4.25222c0,0 -14.66528,-3.61426 -20.7779,-4.66836c-6.96762,-1.20161 -18.79952,-2.15688 -18.79952,-2.15688z" fill="#838082" stroke-width="0"/><path d="M187.05398,202.12739c0,0 -4.67873,1.41286 -7.09672,2.63525c-2.71774,1.37396 -8.4156,5.20716 -8.4156,5.20716l-0.50084,-1.71164c0,0 4.36278,-3.1582 6.82311,-4.40205c2.68997,-1.3599 8.6893,-3.44042 8.6893,-3.44042z" fill="#4a494a" stroke-width="0"/><path d="M188.01814,202.03211l-3.79486,1.05094c0,0 0.20486,-0.62064 0.12851,-0.88137c-0.09068,-0.30981 -0.54898,-0.80289 -0.54898,-0.80289l3.40505,-1.2411c0,0 0.66143,0.60791 0.80907,0.94945c0.11313,0.26173 0.00109,0.92491 0.00109,0.92491z" fill="url(#color-3)" stroke-width="0"/><path d="M172.57903,209.35896l-3.37197,2.18861l0.22915,-2.17533l2.39223,-1.6395c0,0 0.68714,0.29112 0.81572,0.56971c0.12113,0.26253 -0.06518,1.0565 -0.06518,1.0565z" fill="url(#color-4)" stroke-width="0"/></g><path d="M304.83186,207.83688c0,0 1.66483,-4.19675 2.39692,-5.48014c0.49693,-0.87123 3.07913,-1.87866 3.07913,-1.87866l16.80893,2.67737c0,0 -2.24387,5.49635 -2.85162,6.77801c-0.26623,0.56142 -1.4344,1.06282 -1.4344,1.06282z" fill="#665b60" stroke-width="0"/><path d="M260.02744,181.58416c0,0 -3.47346,-2.18452 -8.13448,-4.15758c-2.96297,-1.25427 -7.07458,-2.53845 -8.92648,-2.75048c-5.38412,-0.61647 -8.73404,3.98607 -8.73404,3.98607c0,0 -2.83213,-2.83835 -4.76381,-4.03881c-1.80321,-1.12058 -5.92285,-2.8467 -5.92285,-2.8467c0,0 25.06742,-0.84346 28.96118,-0.76062c7.46461,0.15873 33.69115,5.07879 33.69115,5.07879l3.70559,15.13565z" fill="#8b7c84" stroke-width="0"/><g stroke-width="0"><path d="M306.42558,207.15501c0,0 0.90584,-2.47838 1.46234,-3.29041c0.57695,-0.84195 2.90777,-1.50798 2.90777,-1.50798l14.31866,2.4693c0,0 0.21366,1.03432 -0.14372,1.72138c-0.48588,0.9341 -3.68891,3.16966 -3.68891,3.16966z" fill="#585852"/><path d="M306.55224,206.42056c0,0 0.77918,-1.74384 1.3357,-2.5559c0.57695,-0.84195 3.03447,-2.24246 3.03447,-2.24246l14.31865,2.4693c0,0 0.08698,1.76884 -0.27035,2.4559c-0.48588,0.9341 -3.56225,2.43511 -3.56225,2.43511z" fill="#797971"/><path d="M323.41832,204.28005c-1.00339,-0.35359 -12.41076,-2.59622 -12.41076,-2.59622l14.29906,2.46593l-0.4184,2.42602c0,0 -0.46657,-1.94212 -1.46994,-2.29575z" fill="#85857b"/></g><path d="M310.9236,189.49445l0.88198,-5.11426l7.03207,1.21269l0.39659,5.33477z" fill="#7c6e75" stroke-width="0"/><path d="M305.14172,161.68372l-2.7341,-8.72282l1.35929,0.23443l4.56468,9.49676z" fill="#d495b6" stroke-width="0"/><path d="M268.00206,147.53719l13.55181,-0.79819l21.04538,6.28039l2.56945,8.6548z" fill="#df9cbe" stroke-width="0"/><path d="M310.229,194.47643l0.27565,-1.59818l10.70797,1.84662l0.6833,1.76361z" fill="#7c6e75" stroke-width="0"/><path d="M272.3128,175.60407c0,0 -18.07349,-1.90078 -23.70934,-2.36509c-8.53389,-0.70316 -25.75102,-1.31272 -25.75102,-1.31272c0,0 15.55984,-1.82284 29.12842,-1.02136c14.7118,0.86899 58.36828,6.91884 58.36828,6.91884l-0.91921,5.33037z" fill="#75686e" stroke-width="0"/><path d="M264.00448,183.07122l-3.09909,-1.11371c0,0 10.03358,-0.68927 15.16578,0.96983c5.13222,1.65912 13.40552,8.26653 13.40552,8.26653z" fill="#7c6e76" stroke-width="0"/><path d="M218.90907,171.20464c0,0 -29.27001,-20.67142 -29.3634,-25.37586c-0.0848,-4.27343 28.98893,7.38185 29.30076,7.32582c5.45627,-0.98086 77.51972,4.12536 77.51972,4.12536l25.06785,11.2126l52.0915,8.40355l4.89484,14.61995c0,0 -60.86226,-9.30979 -84.31054,-13.1881c-8.13953,-1.34626 -24.61689,-4.84509 -39.89197,-6.32219c-11.78268,-1.13937 -29.94529,0.10871 -29.94529,0.10871z" fill="#ee96c3" stroke-width="0"/><path d="M89.52426,161.62015l6.70363,-19.29543c0,0 1.09874,-6.96876 8.62777,-8.0002c9.35129,-1.28111 25.69101,3.34824 27.73161,3.7001c1.56586,0.27002 -14.49013,8.07157 -14.49013,8.07157l-3.4251,19.86083z" fill="#c4b4b3" stroke-width="0"/><g stroke-width="0"><path d="M369.6954,191.41384l-0.24213,-15.40819l90.25787,22.42968l-1.73258,5.59388l-47.56411,-3.27383z" fill="#ad6d8e"/><path d="M398.0939,181.76341l8.57287,-6.91641l26.74705,2.45219l-6.01011,9.51886z" fill="#8d788b"/><path d="M372.79149,178.60606l2.75908,-15.99911l31.18476,12.25608l-5.67945,5.99097z" fill="#857183"/><path d="M415.15753,182.54236l18.19433,-5.25265l26.79549,8.44935l-1.45349,6.7451z" fill="#947e92"/><path d="M368.78646,177.29792l5.02106,-12.08851l1.94643,-2.77338l-2.56003,14.84473z" fill="#756474"/><path d="M371.50237,188.46365l1.34092,-12.01964l42.96395,5.73611l-3.93706,15.61515z" fill="#746373"/><path d="M411.86523,197.77867c0,0 1.44638,-6.15118 2.12558,-8.92015c0.58151,-2.37077 1.7022,-6.6854 1.7022,-6.6854l43.40256,8.40746l0.54337,8.61768z" fill="#867284"/><path d="M368.83829,177.23535l4.22918,-0.82417l-1.53682,12.06507z" fill="#6f5e6d"/><path d="M453.05527,184.40682l-18.95825,-6.68275l25.72046,8.12566l-0.96085,3.43207c0,0 -0.04236,-1.59973 -1.11326,-2.49973c-0.71639,-0.60203 -4.68806,-2.37528 -4.68806,-2.37528z" fill="#978195"/><path d="M413.61825,181.61762c0,0 8.44753,-2.05964 11.41544,-2.92188c2.16203,-0.62809 4.75314,-1.77552 4.75314,-1.77552l2.47783,0.54157l-16.03633,4.60583z" fill="#9c859a"/><path d="M399.30919,179.9702c0,0 1.76499,-2.48858 3.32508,-3.5897c1.5601,-1.10117 3.9733,-1.51226 3.9733,-1.51226l-4.87266,5.52025z" fill="#806b7d"/><path d="M435.20271,175.83738l3.07666,-5.28739l14.34444,6.26226l4.43092,7.2586z" fill="#55494f"/><path d="M432.23036,178.16622c0,0 1.20095,-0.59471 1.85256,-1.07575c0.49082,-0.36234 1.40413,-1.60986 1.40413,-1.60986l21.30935,7.73392c0,0 0.77078,0.63725 1.29314,1.05781c0.54588,0.43949 1.91463,1.52491 1.91463,1.52491z" fill="#685960"/><path d="M435.90736,175.05351l2.41367,-4.23682l13.37522,5.68258c0,0 -7.62979,-2.87113 -12.08893,-3.38171c-2.58658,-0.29615 -3.69989,1.93594 -3.69989,1.93594z" fill="#41383c"/></g><path d="M97.81527,123.19002l0.88512,-5.1326c0,0 22.23169,2.51979 43.86075,6.30757c12.88896,2.25721 25.9899,6.13772 32.86994,6.96896c15.51311,1.87418 26.59645,-0.79324 26.59645,-0.79324l-8.0571,9.41076z" fill="#ffa1d1" stroke-width="0"/><path d="M92.90282,136.50644l4.86208,-15.48151c0,0 53.649,11.34287 71.31147,13.94169c10.46251,1.53944 24.89791,0.21419 24.89791,0.21419l-2.48842,14.42936c0,0 -66.51914,-11.47148 -82.55479,-14.23692c-6.59329,-1.13705 -20.5971,27.6264 -20.5971,27.6264z" fill="#ee96c3" stroke-width="0"/><path d="M256.50587,242.34169l11.45561,-11.821c0,0 12.46924,-13.94094 22.89914,-19.10637c2.6504,-1.31259 7.94808,-1.61318 7.94808,-1.61318c0,0 -8.04481,3.67135 -11.07629,5.9812c-7.15897,5.45488 -31.22644,26.55934 -31.22644,26.55934z" fill="#70646b" stroke-width="0"/><path d="M362.13705,194.76046l-3.14966,-18.81071l1.33045,0.22945c0,0 0.9539,5.69684 1.4579,8.70711c0.07181,0.42888 1.20943,1.8642 1.29836,2.39547c0.15422,0.92096 -0.72712,1.01606 -0.55477,2.04532c0.47989,2.86611 0.94816,5.66279 0.94816,5.66279z" fill="#795467" stroke-width="0"/><path d="M192.03562,150.14315c0,0 -9.21602,-8.23836 -7.905,-11.84294c0.78494,-2.15821 18.73397,-7.13239 18.73397,-7.13239l67.22128,13.28937l-2.13904,2.77291l28.32693,10.21097l-75.26795,13.9872c0,0 0.17417,-5.66662 4.20982,-7.87104c3.92223,-2.14241 19.67329,-5.17471 19.67329,-5.17471c0,0 -33.71129,-5.86335 -40.88148,-7.18785c-2.3921,-0.44191 -11.97185,-1.05165 -11.97185,-1.05165z" fill="#f399c8" stroke-width="0"/><g><path d="M200.76683,132.7587l0.55036,-3.19124l173.98542,30.00453l-0.55036,3.19124z" fill="#584f54" stroke-width="0"/><path d="M369.54839,158.83146l0.46501,-2.69653l3.01084,0.51925l2.19156,3.15471z" fill="#685d63" stroke-width="0"/><g fill="#685d63" stroke-width="0"><g><g><g><path d="M362.94286,157.9452l0.50597,-2.93372l3.82464,0.65956l-0.50597,2.93372z"/><path d="M356.73693,156.87495l0.50597,-2.93372l3.82465,0.65957l-0.50597,2.93372z"/></g><g><path d="M350.7652,155.84514l0.50597,-2.93373l3.82465,0.65957l-0.50597,2.93372z"/><path d="M344.55927,154.77491l0.50597,-2.93372l3.82464,0.65957l-0.50597,2.93373z"/></g></g><g><g><path d="M338.47042,153.72481l0.50597,-2.93373l3.82464,0.65957l-0.50597,2.93372z"/><path d="M332.26444,152.6546l0.50597,-2.93372l3.82464,0.65956l-0.50597,2.93373z"/></g><g><path d="M326.29278,151.6247l0.50597,-2.93372l3.82464,0.65957l-0.50597,2.93372z"/><path d="M320.08685,150.55447l0.50597,-2.93372l3.82463,0.65954l-0.50597,2.93373z"/></g></g></g><g><g><g><path d="M319.85266,150.51415l0.50597,-2.93372l3.82464,0.65957l-0.50597,2.93372z"/><path d="M313.64678,149.44387l0.50597,-2.93372l3.82465,0.65957l-0.50597,2.93372z"/></g><g><path d="M307.67504,148.41404l0.50597,-2.93373l3.82464,0.65957l-0.50597,2.93372z"/><path d="M301.46908,147.3438l0.50597,-2.93372l3.82463,0.65954l-0.50597,2.93373z"/></g></g><g><g><path d="M295.38032,146.29379l0.50597,-2.93373l3.82465,0.65957l-0.50597,2.93372z"/><path d="M289.17435,145.22353l0.50597,-2.93372l3.82465,0.65957l-0.50597,2.93373z"/></g><g><path d="M283.20261,144.1937l0.50597,-2.93372l3.82464,0.65956l-0.50597,2.93373z"/><path d="M276.99671,143.12343l0.50597,-2.93372l3.82465,0.65957l-0.50597,2.93372z"/></g></g></g></g><g><g fill="#685d63" stroke-width="0"><g><g><path d="M270.86799,142.06657l0.50597,-2.93373l3.82465,0.65957l-0.50597,2.93372z"/><path d="M264.6621,140.99628l0.50597,-2.93372l3.82465,0.65957l-0.50597,2.93373z"/></g><g><path d="M258.69036,139.96647l0.50597,-2.93372l3.82465,0.65957l-0.50597,2.93373z"/><path d="M252.48448,138.89617l0.50597,-2.93372l3.82464,0.65956l-0.50597,2.93373z"/></g></g><g><g><path d="M246.39566,137.84619l0.50597,-2.93373l3.82465,0.65957l-0.50597,2.93372z"/><path d="M240.18972,136.77586l0.50597,-2.93372l3.82465,0.65957l-0.50597,2.93373z"/></g><g><path d="M234.21791,135.74604l0.50597,-2.93372l3.82465,0.65957l-0.50597,2.93373z"/><path d="M228.01203,134.67587l0.50597,-2.93372l3.82464,0.65956l-0.50597,2.93372z"/></g></g></g><g><g fill="#685d63" stroke-width="0"><g><path d="M227.77788,134.63546l0.50597,-2.93373l3.82465,0.65957l-0.50597,2.93372z"/><path d="M221.57193,133.56522l0.50597,-2.93372l3.82464,0.65956l-0.50597,2.93373z"/></g><g><path d="M215.6002,132.53536l0.50597,-2.93372l3.82464,0.65956l-0.50597,2.93373z"/><path d="M209.39432,131.46507l0.50597,-2.93372l3.82464,0.65956l-0.50597,2.93372z"/></g></g><g fill="none" stroke-width="1" font-family="sans-serif" font-weight="normal" font-size="12" text-anchor="start"><g/><g/></g></g></g><path d="M201.34548,129.82424l3.12163,-2.23837l3.01084,0.51925l-0.46501,2.69653z" data-paper-data="{&quot;index&quot;:null}" fill="#685d63" stroke-width="0"/></g><path d="M251.83981,171.90399l-2.56066,-0.16756c0,0 2.09085,-2.24484 11.73807,-1.72552c7.314,0.39376 27.80103,2.59599 40.05909,3.9532c5.69232,0.63022 62.90205,1.36148 62.90205,1.36148l5.1256,0.86942c0,0 -62.62694,0.00158 -68.31112,-0.65082c-12.5693,-1.44266 -33.70972,-3.83294 -39.86721,-4.30779c-3.35191,-0.25847 -9.08572,0.66768 -9.08572,0.66768z" fill="#70475c" stroke-width="0"/><path d="M348.04858,207.80419l-5.16588,0.98219l3.21797,-18.65586c0,0 7.6699,1.37184 15.1709,2.71345c21.53315,3.85136 125.02303,22.36127 125.02303,22.36127l-1.14327,6.62936z" fill="#5a5959" stroke-width="0"/><path d="M346.87009,209.25338l1.58586,-2.77694l136.72602,15.25234l-13.5594,9.0387z" fill="#4b4a4a" stroke-width="0"/><path d="M468.41666,230.02272c0,0 -5.27231,-4.18159 -8.01796,-6.10424c-1.4714,-1.03036 -7.17546,-4.53504 -7.17546,-4.53504c0,0 7.39158,4.22129 10.52641,5.7239c1.11877,0.53628 2.09981,1.4592 3.29508,2.20128c0.38547,0.23929 2.65124,-2.1699 4.81388,-3.53659c0.64643,-0.4085 1.72784,0.1479 2.30181,-0.0888c1.31578,-0.54264 1.85504,-1.55715 1.85504,-1.55715c0,0 0.17459,0.97336 -1.23291,1.96236c-0.384,0.26989 -2.22059,0.31067 -2.60256,0.61044c-1.53078,1.20164 -2.78975,2.60718 -3.19091,3.13792c-1.11948,1.48109 0.86959,2.43464 0.86959,2.43464z" fill="#414040" stroke-width="0"/><path d="M191.93685,150.42795l5.64591,-10.28893l7.01031,0.57546c0,0 -1.38686,2.44811 -2.20422,3.89094c-0.20585,0.36338 11.74908,0.44004 11.98194,1.16116c0.43208,1.33786 -5.69795,4.09613 -6.21201,5.00348c-0.58769,1.03738 -9.2328,-0.05187 -9.2328,-0.05187z" fill="#303030" stroke-width="0"/><path d="M191.85824,150.03885l5.40099,-9.48373c0,0 2.73483,1.7955 2.56742,2.76612c-0.30459,1.76615 -2.84408,7.20073 -2.84408,7.20073z" fill="#252525" stroke-width="0"/><path d="M342.41358,211.40035l0.50173,-2.90947l5.94518,-1.97072l-1.72187,2.69901c0,0 -1.30148,1.13054 -2.13246,1.51415c-0.7312,0.33754 -2.59263,0.66696 -2.59263,0.66696z" fill="#383838" stroke-width="0"/><g><g fill="#4b4b4b" stroke-width="0"><g data-paper-data="{&quot;origPos&quot;:null}"><g data-paper-data="{&quot;origPos&quot;:null}"><path d="M408.34511,224.16177l0.38625,-2.23968l3.69548,0.63729l-0.38625,2.23968z" data-paper-data="{&quot;origPos&quot;:null}"/><path d="M402.20533,222.98763l0.38625,-2.23968l3.69547,0.63729l-0.38625,2.23967z" data-paper-data="{&quot;origPos&quot;:null}"/></g><g data-paper-data="{&quot;origPos&quot;:null}"><path d="M420.64403,226.39805l0.38625,-2.23968l3.69548,0.63729l-0.38625,2.23967z" data-paper-data="{&quot;origPos&quot;:null}"/><path d="M414.50423,225.22389l0.38625,-2.23967l3.69547,0.63729l-0.38625,2.23968z" data-paper-data="{&quot;origPos&quot;:null}"/></g></g><g data-paper-data="{&quot;origPos&quot;:null,&quot;index&quot;:null}"><g data-paper-data="{&quot;origPos&quot;:null}"><path d="M439.60783,229.43782l0.38625,-2.23968l3.69548,0.63729l-0.38625,2.23967z" data-paper-data="{&quot;origPos&quot;:null}"/><path d="M445.78621,230.38798l0.38624,-2.23967l3.69548,0.63729l-0.38626,2.23966z" data-paper-data="{&quot;origPos&quot;:null}"/></g><g data-paper-data="{&quot;origPos&quot;:null}"><path d="M427.27033,227.42546l0.38625,-2.23968l3.69547,0.63729l-0.38624,2.23967z" data-paper-data="{&quot;origPos&quot;:null}"/><path d="M433.44871,228.37566l0.38625,-2.23967l3.69548,0.63729l-0.38625,2.23967z" data-paper-data="{&quot;origPos&quot;:null}"/></g></g></g><path d="M367.64605,208.77615l2.31314,-13.41312l83.24521,14.35601l-2.31314,13.41312z" data-paper-data="{&quot;origPos&quot;:null}" fill="#444444" stroke-width="0"/><path d="M366.94062,213.44648l0.8128,-4.71285l83.00055,14.31377l-0.8128,4.71286z" data-paper-data="{&quot;origPos&quot;:null}" fill="#414141" stroke-width="0"/><path d="M366.73293,214.85593l0.27494,-1.59409l82.98996,14.31197l-0.27491,1.59409z" data-paper-data="{&quot;origPos&quot;:null}" fill="#3f3f3f" stroke-width="0"/><g stroke-width="0"><g data-paper-data="{&quot;origPos&quot;:null}" fill="#5a5a5a"><g data-paper-data="{&quot;origPos&quot;:null}"><path d="M410.27477,216.20827l2.33674,-13.54998l3.51947,0.60696l-2.33674,13.54998z" data-paper-data="{&quot;origPos&quot;:null}"/></g><g data-paper-data="{&quot;origPos&quot;:null}"><path d="M416.25791,217.24007l2.33674,-13.54998l3.51948,0.60696l-2.33674,13.54998z" data-paper-data="{&quot;origPos&quot;:null}"/><path d="M422.41701,218.30217l2.33676,-13.54998l3.51947,0.60696l-2.33674,13.54998z" data-paper-data="{&quot;origPos&quot;:null}"/></g></g><g data-paper-data="{&quot;origPos&quot;:null}" fill="#5a5a5a"><g data-paper-data="{&quot;origPos&quot;:null}"><path d="M428.92804,219.42505l2.33674,-13.54998l3.51947,0.60696l-2.33675,13.54998z" data-paper-data="{&quot;origPos&quot;:null}"/><path d="M435.08708,220.48722l2.33674,-13.54998l3.51948,0.60696l-2.33676,13.54998z" data-paper-data="{&quot;origPos&quot;:null}"/></g><g data-paper-data="{&quot;origPos&quot;:null}"><path d="M441.07022,221.51901l2.33676,-13.54998l3.51947,0.60696l-2.33676,13.54998z" data-paper-data="{&quot;origPos&quot;:null}"/><path d="M447.22934,222.58116l2.33676,-13.54998l3.51947,0.60696l-2.33674,13.54998z" data-paper-data="{&quot;origPos&quot;:null}"/></g></g><path d="M413.85469,216.82563l-1.19417,1.75355l-5.17244,-0.84829l1.52753,-9.67766l3.53791,-5.40506l-2.2688,13.5617z" fill="#3a3a3a"/><path d="M419.8354,217.85697l-1.19417,1.75355l-5.17246,-0.84829l1.52754,-9.67766l3.53791,-5.40505l-2.26879,13.56169z" fill="#3a3a3a"/><path d="M425.95202,218.91184l-1.19417,1.75355l-5.17245,-0.84829l1.52753,-9.67766l3.53791,-5.40505l-2.2688,13.5617z" fill="#3a3a3a"/><path d="M432.54435,220.04871l-1.19417,1.75355l-5.17245,-0.84829l1.52753,-9.67766l3.53791,-5.40505l-2.2688,13.5617z" fill="#3a3a3a"/><path d="M438.72895,221.11531l-1.19417,1.75355l-5.17245,-0.84829l1.52753,-9.67766l3.53791,-5.40505l-2.26879,13.56169z" fill="#3a3a3a"/><path d="M444.64164,222.13494l-1.19417,1.75355l-5.17244,-0.84829l1.52753,-9.67766l3.53791,-5.40505l-2.2688,13.5617z" fill="#3a3a3a"/><path d="M450.83401,223.20288l-1.19417,1.75355l-5.17245,-0.84829l1.52754,-9.67766l3.53791,-5.40506l-2.2688,13.5617z" fill="#3a3a3a"/></g><g stroke-width="0"><g data-paper-data="{&quot;origPos&quot;:null}" fill="#5a5a5a"><g data-paper-data="{&quot;origPos&quot;:null}"><path d="M367.67462,208.86167l2.33676,-13.54998l3.51948,0.60696l-2.33674,13.54998z" data-paper-data="{&quot;origPos&quot;:null}"/></g><g data-paper-data="{&quot;origPos&quot;:null}"><path d="M373.65764,209.89354l2.33674,-13.54998l3.51947,0.60696l-2.33674,13.54998z" data-paper-data="{&quot;origPos&quot;:null}"/><path d="M379.81673,210.95563l2.33674,-13.54998l3.51948,0.60696l-2.33676,13.54998z" data-paper-data="{&quot;origPos&quot;:null}"/></g></g><g data-paper-data="{&quot;origPos&quot;:null}" fill="#5a5a5a"><g data-paper-data="{&quot;origPos&quot;:null}"><path d="M386.3278,212.07852l2.33676,-13.54998l3.51949,0.60696l-2.33674,13.54998z" data-paper-data="{&quot;origPos&quot;:null}"/><path d="M392.48696,213.14067l2.33674,-13.54998l3.51948,0.60696l-2.33676,13.54998z" data-paper-data="{&quot;origPos&quot;:null}"/></g><g data-paper-data="{&quot;origPos&quot;:null}"><path d="M398.47005,214.17247l2.33674,-13.54998l3.51948,0.60696l-2.33676,13.54998z" data-paper-data="{&quot;origPos&quot;:null}"/><path d="M404.62917,215.23466l2.33676,-13.54998l3.51948,0.60696l-2.33675,13.54998z" data-paper-data="{&quot;origPos&quot;:null}"/></g></g><path d="M371.25449,209.47907l-1.19417,1.75355l-2.69737,-0.42144l0.32161,-1.94783z" fill="#3a3a3a"/><path d="M377.23517,210.51046l-1.19417,1.75355l-5.17245,-0.84829l1.52754,-9.67766l3.53791,-5.40505l-2.2688,13.5617z" fill="#3a3a3a"/><path d="M383.35174,211.56525l-1.19417,1.75355l-5.17245,-0.84829l1.52751,-9.67766l3.53791,-5.40506l-2.2688,13.5617z" fill="#3a3a3a"/><path d="M389.9441,212.70211l-1.19417,1.75355l-5.17245,-0.84829l1.52754,-9.67766l3.53791,-5.40505l-2.2688,13.5617z" fill="#3a3a3a"/><path d="M396.12876,213.76874l-1.19417,1.75355l-5.17244,-0.84829l1.52753,-9.67766l3.53791,-5.40505l-2.2688,13.5617z" fill="#3a3a3a"/><path d="M402.04145,214.78834l-1.19417,1.75355l-5.17244,-0.84829l1.52753,-9.67766l3.53791,-5.40506l-2.2688,13.5617z" fill="#3a3a3a"/><path d="M408.23386,215.85629l-1.19417,1.75355l-5.17244,-0.84829l1.52753,-9.67766l3.53791,-5.40505l-2.2688,13.5617z" fill="#3a3a3a"/></g><g><g data-paper-data="{&quot;origPos&quot;:null}"><g data-paper-data="{&quot;origPos&quot;:null}" fill="none" stroke-width="1" font-family="sans-serif" font-weight="normal" font-size="12" text-anchor="start"/><g data-paper-data="{&quot;origPos&quot;:null}" fill="#4b4b4b" stroke-width="0"><path d="M372.60409,218.19144l0.38625,-2.23968l3.69547,0.63729l-0.38624,2.23967z" data-paper-data="{&quot;origPos&quot;:null}"/><path d="M366.46427,217.0173l0.38625,-2.23968l3.69547,0.63729l-0.38625,2.23968z" data-paper-data="{&quot;origPos&quot;:null}"/></g></g><g data-paper-data="{&quot;origPos&quot;:null,&quot;index&quot;:null}" fill="#4b4b4b" stroke-width="0"><g data-paper-data="{&quot;origPos&quot;:null}"><path d="M391.56792,221.23114l0.38625,-2.23967l3.69548,0.63729l-0.38625,2.23967z" data-paper-data="{&quot;origPos&quot;:null}"/><path d="M397.74632,222.18134l0.38626,-2.23966l3.69548,0.63729l-0.38625,2.23967z" data-paper-data="{&quot;origPos&quot;:null}"/></g><g data-paper-data="{&quot;origPos&quot;:null}"><path d="M379.23037,219.21885l0.38625,-2.23968l3.69548,0.63729l-0.38625,2.23967z" data-paper-data="{&quot;origPos&quot;:null}"/><path d="M385.4088,220.16897l0.38625,-2.23968l3.69548,0.63729l-0.38625,2.23968z" data-paper-data="{&quot;origPos&quot;:null}"/></g></g></g></g><path d="M204.7033,151.0121l1.74086,-3.97709c0,0 5.0789,-2.31808 8.58418,-1.86578c4.00718,0.51704 33.53592,5.63472 33.53592,5.63472c0,0 0.3336,1.96096 0.07461,3.15148c-0.33367,1.53381 -2.93982,4.19424 -2.93982,4.19424z" fill="#242424" stroke-width="0"/><path d="M229.87461,151.48667l0.53537,-3.10445l17.73995,3.05927l-0.53537,3.10445z" fill="#313131" stroke-width="0"/><path d="M226.30064,152.82949l0.11085,-0.64276c0,0 1.23098,-0.8544 2.23916,-0.68054c0.95736,0.16514 3.0328,1.00495 5.42126,1.58265c4.55003,1.10041 10.07922,2.15718 10.07922,2.15718l-0.11085,0.64276c0,0 -5.34899,-0.92452 -9.83483,-2.01336c-2.44772,-0.5941 -4.58623,-1.54031 -5.57935,-1.71156c-1.04387,-0.18003 -2.32544,0.66563 -2.32544,0.66563z" fill="#616161" stroke-width="0"/><path d="M255.70908,141.95824l11.9943,5.13974l29.49966,10.47377c0,0 0.68436,0.34551 -7.17268,-1.74843c-2.67282,-0.71234 -12.88296,-4.10588 -21.64823,-7.54846c-2.37177,-0.9315 -14.92719,-6.58831 -14.92719,-6.58831z" fill="#df8cb7" stroke-width="0"/><path d="M76.17913,117.42742l1.00824,-5.84676c0,0 5.98403,-0.74686 9.73252,-0.10041c3.06876,0.52925 10.83206,5.42568 10.83206,5.42568l-2.21823,12.06931z" fill="#626061" stroke-width="0"/><path d="M188.8534,146.99167l3.31516,3.11468l12.29386,0.77745l50.0068,8.62391l-0.18536,1.07521c0,0 -37.48786,-6.61229 -49.2626,-8.37686c-3.23274,-0.48442 -12.91358,-1.42243 -12.91358,-1.42243z" fill="#ffa6d4" stroke-width="0"/><path d="M62.47396,179.93791l1.21845,-7.06531l25.91314,-12.40687l-3.90684,13.19693l-15.39151,7.62615z" fill="#3f3d3e" stroke-width="0"/><path d="M61.72754,174.67433c0,0 3.52458,-19.33411 5.94725,-28.64107c2.7343,-10.50439 9.63688,-31.22893 9.63688,-31.22893c0,0 8.52144,1.27746 11.7717,3.50808c2.78179,1.90907 6.54404,9.06192 6.54404,9.06192l-5.70197,33.06352c0,0 -14.01226,11.48384 -17.39676,13.19261c-5.20599,2.62842 -10.8011,1.04393 -10.8011,1.04393z" fill="#555354" stroke-width="0"/><path d="M75.36192,125.22302c0,0 -0.49929,-6.16746 1.99518,-8.4743c2.49447,-2.30686 6.95356,-2.5698 9.4766,-2.13469c2.01269,0.34708 6.16451,1.14297 8.2384,6.02497c2.07391,4.88198 -0.95133,11.12876 -0.95133,11.12876c0,0 -4.44011,-11.32301 -6.887,-12.17667c-3.45279,-1.20461 -11.87193,5.63197 -11.87193,5.63197z" fill="#6f6b6c" stroke-width="0"/><path d="M59.46771,179.22838c0,0 6.11878,-25.39204 8.06367,-36.66933c2.02537,-11.74442 5.33516,-32.19791 5.33516,-32.19791c0,0 1.24869,-0.43713 2.27439,-0.26027c0.93786,0.1617 2.37263,1.06166 2.37263,1.06166c0,0 -3.46656,18.84023 -5.28409,29.37941c-2.11168,12.24469 -9.38191,39.26926 -9.38191,39.26926z" fill="#333232" stroke-width="0"/><path d="M58.96776,179.59238l3.57788,-14.30836c0,0 0.8888,1.05529 1.48606,1.11901c0.75417,0.08052 2.6511,-1.05104 2.6511,-1.05104l-3.80361,14.91488z" fill="#2e2d2d" stroke-width="0"/><path d="M90.51734,148.23811c-1.38755,8.04586 -6.92482,15.88683 -11.72407,18.02979c-3.98593,1.7798 -12.52401,7.16505 -11.13642,-0.88077c0.29438,-1.7069 4.32754,-13.06605 5.64882,-19.97183c1.74736,-9.13274 0.97202,-14.32086 2.39712,-16.94852c2.57689,-4.75122 8.27121,-5.27051 10.45348,-4.89415c4.30173,0.74188 5.74866,16.61966 4.36111,24.66552z" fill="#585758" stroke-width="0"/><path d="M122.08448,167.97288l-0.28811,-1.81613c0,0 8.05372,0.0184 14.06647,0.56407c8.46454,0.7681 31.93031,3.60993 31.93031,3.60993l1.55209,1.56778c0,0 -25.02073,-2.67061 -33.7382,-3.39472c-2.56018,-0.21264 -13.52254,-0.53086 -13.52254,-0.53086z" fill="#585657" stroke-width="0"/><path d="M114.03645,179.98033l7.44109,-12.61023l7.29851,0.29395c0,0 -2.44586,3.95538 -2.48912,4.71424c-0.2069,3.62589 -1.32668,27.75361 -1.32668,27.75361c0,0 -1.53079,0.18294 -2.38416,-1.86748c-1.53115,-3.67906 -2.1738,-10.75317 -3.54306,-13.12299c-1.18304,-2.04751 -4.99655,-5.16107 -4.99655,-5.16107z" fill="#5a5759" stroke-width="0"/><path d="M131.6186,151.75368l4.77292,-10.67749l2.31828,0.28705l-5.90565,10.70761z" fill="#a5a0a2" stroke-width="0"/><path d="M138.49372,151.83986l0.23838,-1.38238l26.11083,4.5029l-0.23838,1.38237z" fill="#494748" stroke-width="0"/><path d="M138.91918,148.89805l0.23838,-1.38238l26.11083,4.5029l-0.23838,1.38238z" fill="#494748" stroke-width="0"/><path d="M115.96038,167.67721l3.42245,-19.84541l13.70349,-7.39496l4.82707,0.5161l-23.31495,39.42472l-5.18914,-2.92781z" fill="#dbd5d8" stroke-width="0"/><path d="M87.82253,174.91501l1.84819,-11.64612l26.40094,3.75185c0,0 -0.10579,2.557 -0.36978,3.32167c-0.65802,1.90637 -3.81518,8.40219 -3.81518,8.40219z" fill="#ccc6c9" stroke-width="0"/><path d="M93.49295,164.33436l0.05363,-0.31121l22.63267,3.02185l-2.76877,0.72432c0,0 -4.29044,-0.55095 -6.95434,-1.0426c-3.64762,-0.67315 -12.96325,-2.39235 -12.96325,-2.39235z" fill="#d8d1d5" stroke-width="0"/><path d="M97.59233,161.24937l2.88904,-16.75267l15.89046,2.74039l-2.88904,16.75267z" fill="#a39999" stroke-width="0"/><path d="M87.52111,175.03528l1.9304,-11.19408c0,0 7.62294,7.79554 11.44948,10.83059c3.82657,3.03506 10.28078,3.86397 10.28078,3.86397z" fill="#b4afb1" stroke-width="0"/><path d="M119.64802,186.70755c0,0 2.80858,1.54019 3.91317,1.58487c0.67855,0.02738 2.08408,-1.34261 2.08408,-1.34261l0.09246,9.22308l-0.71294,4.13405c0,0 -1.9677,-0.02331 -2.78925,-2.78568c-0.67784,-2.27917 -2.58752,-10.81369 -2.58752,-10.81369z" fill="#504e4f" stroke-width="0"/><path d="M114.24196,180.58036l21.34531,-38.67871l1.68335,0.49847l-21.31396,39.10038z" fill="#858183" stroke-width="0"/><path d="M104.57699,137.55594l1.77326,-1.36905c0,0 27.12621,4.0246 39.356,6.13373c10.61459,1.83052 31.42027,5.77672 31.42027,5.77672l0.19187,2.00312c0,0 -20.86752,-4.31508 -32.05596,-6.24455c-12.77582,-2.2032 -40.68539,-6.29996 -40.68539,-6.29996z" fill="#918b8e" stroke-width="0"/><path d="M105.78953,136.51617l2.32436,-1.56924c0,0 25.57171,4.05178 37.80147,6.16083c10.61458,1.83052 31.42027,5.77672 31.42027,5.77672l0.19186,2.00312c0,0 -20.86751,-4.31508 -32.05596,-6.24456c-12.77582,-2.2032 -39.68195,-6.12695 -39.68195,-6.12695z" fill="#a59fa2" stroke-width="0"/><path d="M165.92593,167.97979l-0.93176,-5.92723c0,0 0.41334,-1.15155 0.76061,-1.2061c0.30603,-0.04812 1.21503,0.89549 1.21503,0.89549l0.93176,5.92724c0,0 -0.42125,0.81795 -0.72795,0.86613c-0.34697,0.05455 -1.24773,-0.55554 -1.24773,-0.55554z" fill="#494242" stroke-width="0"/><path d="M125.78701,163.74541l5.10339,-8.74564l3.82922,0.66034l-5.10339,8.74564z" fill="#9c989a" stroke-width="0"/><path d="M138.23611,147.85371l1.98831,-0.63932l24.08026,4.1711l1.82724,1.27907z" fill="#757274" stroke-width="0"/><path d="M137.85125,150.64013l1.98833,-0.63933l24.08024,4.17111l1.82727,1.27904z" fill="#757274" stroke-width="0"/><path d="M85.3027,173.65522l11.5658,-57.02167l1.79368,0.89861l-11.09633,57.50966z" fill="#686666" stroke-width="0"/><path d="M85.09577,173.89382l3.40764,-15.90801l1.60885,4.15229l-2.69201,13.04231z" fill="#535252" stroke-width="0"/><path d="M119.28184,156.57701c0,0 2.49178,-1.95037 2.65262,-2.88337c0.15792,-0.9156 -1.69608,-2.66341 -1.69608,-2.66341c0,0 2.84454,1.17014 2.45497,2.81621c-0.29675,1.25382 -1.70407,3.2324 -1.97752,4.30394c-0.77755,3.04663 -2.70479,10.17008 -2.70479,10.17008z" fill="#c4bec1" stroke-width="0"/><path d="M127.17106,155.99769l3.61647,-9.72227l3.25177,-3.85774l-4.24078,8.96794z" fill="#aca7a9" stroke-width="0"/></g></g><g stroke-width="0"><path d="M248.24215,148.63563l3.08359,-2.84656c0,0 2.02523,-1.10827 2.79149,-0.6971c0.87362,0.46879 2.17041,3.35981 2.17041,3.35981l-1.22777,3.93045c0,0 -4.21772,-0.73499 -5.44287,-1.08158c-0.55238,-0.15623 -1.37477,-2.66504 -1.37477,-2.66504z" fill="#c0c0c0"/><path d="M204.30752,150.85242c0,0 0.31554,-2.8681 1.55279,-3.81041c1.55055,-1.18091 7.91801,-2.32768 7.91801,-2.32768l-1.5053,4.54741l-0.49644,2.87872z" fill="#838383"/><path d="M204.1505,150.75l9.25829,-5.9951l37.01592,6.38354l-1.27139,7.37244z" fill="#999999"/><path d="M205.24645,150.2728l7.06276,-4.70936l33.28105,5.73946l-0.99266,5.75614c0,0 -4.02813,-0.69468 -9.20986,-1.58825c-3.36896,-0.58096 -7.04501,-2.2926 -10.59921,-2.90557c-3.81279,-0.65755 -7.45809,-0.2085 -9.59961,-0.57778c-4.19128,-0.7228 -9.94245,-1.71465 -9.94245,-1.71465z" fill="#2e2e2e"/><path d="M208.6883,150.86416l9.2504,-4.3952l12.28278,2.11823c0,0 -7.59295,0.62606 -10.08397,1.12458c-2.64454,0.52912 -6.16869,2.06308 -6.16869,2.06308z" fill="#a5899d"/><path d="M216.58038,152.11077c0,0 5.17636,-0.09379 7.59773,0.32382c3.0939,0.53356 9.44749,2.61571 9.44749,2.61571l-9.45666,-1.97098z" fill="#adadad"/><path d="M204.25653,150.7498l8.36064,-5.40948l34.45801,5.94248l-0.11702,0.67857c0,0 -29.83637,-5.1454 -33.72556,-5.8161c-0.81345,-0.14026 -8.97597,4.60465 -8.97597,4.60465z" fill="#8a8a8a"/><path d="M249.67797,164.91076l1.65789,-9.61341l1.86521,-6.98653c0,0 1.09002,0.66483 1.54017,1.31427c0.45008,0.64943 0.63627,1.82603 0.63627,1.82603l-3.71579,13.80182z" fill="#9e9e9e"/><path d="M245.02469,159.81509c0,0 -0.53738,-2.24894 -0.40204,-3.8382c0.18228,-2.14008 1.96312,-7.43261 1.96312,-7.43261l1.96846,0.00933c0,0 0.61327,0.90926 1.10957,0.84346c0.68424,-0.09064 2.61615,-1.3372 2.61615,-1.3372l-2.67355,12.54544z" fill="#9c9c9c"/><path d="M245.27922,161.71662c-0.5833,-1.22136 -0.11302,-2.53363 -0.11302,-2.53363l6.03046,-6.2667c0,0 0.71331,4.06412 0.55759,4.96725c-0.4428,2.56762 -0.25815,7.41931 -0.25815,7.41931c0,0 -2.95099,-0.42394 -3.90018,-1.03273c-1.13846,-0.73013 -1.73326,-1.33218 -2.31659,-2.55351z" fill="#888888"/><path d="M247.16561,161.25624c-0.63404,-2.13862 -0.8714,-6.7085 1.63685,-10.40273c2.50827,-3.69426 4.5253,-1.18378 4.5253,-1.18378c0,0 0.24022,4.52972 -0.15286,6.80891c-0.35802,2.07619 -2.11023,6.31419 -2.11023,6.31419c0,0 -3.26499,0.60203 -3.89905,-1.53662z" fill="#b4b4b4"/><path d="M252.57458,154.38022c-0.23981,1.39057 -5.28859,0.59842 -5.04881,-0.7921c0.23981,-1.39057 4.17213,-6.19432 4.97273,-6.05622c0.31006,0.05351 0.92726,0.26325 0.94065,1.34194c0.02113,1.70648 -0.71769,4.65449 -0.86458,5.50644z" fill="#bbbbbb"/></g><g stroke-width="0"><path d="M188.76102,146.96036c0,0 -4.9357,-5.8411 -4.61732,-7.68723c0.25993,-1.50742 6.22928,-0.60288 6.22928,-0.60288l7.42334,1.35309l-5.79744,9.93828z" fill="#f399c8"/><path d="M158.39993,143.39039c0,0 -0.59945,-2.2322 -0.16363,-3.24554c0.48095,-1.11837 3.12393,-4.32069 3.12393,-4.32069l22.73455,3.73227l7.52794,10.0487z" fill="#ee96c3"/></g></g><g stroke-width="0"><g><path d="M255.85152,140.17989l1.05056,-6.09189l47.12257,8.12647l-1.05056,6.09189z" fill="#61585b"/><path d="M256.24185,136.95577l0.56262,-3.26218l47.30174,8.15739l-0.56261,3.26217c0,0 -8.51518,-1.46849 -17.26239,-2.97697c-2.73492,-0.47167 -6.83772,0.36047 -9.36482,-0.07539c-3.00504,-0.51824 -5.97,-2.5692 -7.89757,-2.90165c-5.78,-0.99679 -12.77694,-2.20348 -12.77694,-2.20348z" fill="#494344"/><path d="M318.29233,140.95391l-5.97998,-20.24369l20.61495,3.55515l12.35336,19.15231c0,0 -5.85842,0.37119 -9.08736,0.0764c-4.98249,-0.45483 -17.90094,-2.54015 -17.90094,-2.54015z" fill="#5e555b"/><path d="M317.71067,144.33936l0.94126,-5.45791c0,0 12.36654,0.65809 17.32004,0.72119c3.93113,0.05009 6.795,-0.04664 6.795,-0.04664l4.67377,7.8472c0,0 -5.52609,0.6667 -9.68907,0.39928c-5.64058,-0.36235 -20.0409,-3.46305 -20.0409,-3.46305z" fill="url(#color-5)"/><path d="M310.61518,120.5787l0.67916,-3.93808l18.87295,3.25474l2.90436,4.55602z" fill="url(#color-6)"/><path d="M317.13111,144.26469l0.21402,-1.24095c0,0 15.39563,2.57751 20.73226,3.3278c3.99044,0.56106 8.61464,-0.24162 8.61464,-0.24162l0.68137,1.27915l-8.45282,0.63321z" fill="#312c30"/><g><path d="M219.3825,116.6505l1.28229,-8.76796l92.55903,15.96219l5.6121,12.4162z" fill="#8a6672"/><path d="M234.27306,127.62641c0,0 -2.85553,-4.15146 -5.37106,-6.06839c-2.5155,-1.91701 -9.51437,-2.88303 -9.51437,-2.88303l0.46523,-2.03763c0,0 12.09706,2.36663 19.00795,3.65512c16.50917,3.07785 79.61893,14.73229 79.61893,14.73229l2.45443,7.08723z" fill="#755761"/><path d="M236.65684,130.56524l-2.54096,-3.06829l86.39547,14.4027l0.66433,3.24116z" fill="#694e57"/><path d="M220.43513,108.24492l0.76971,-4.46309l89.6007,14.76262l2.83157,6.23312c0,0 2.1478,3.75771 -3.05726,2.83439c-1.63858,-0.29066 -10.0543,-5.16021 -11.69701,-5.45159c-15.81998,-2.80626 -78.44764,-13.91546 -78.44764,-13.91546z" fill="#916b77"/><path d="M221.44317,103.82301l0.31189,-2.50798l88.6245,15.1429l0.62341,2.53514z" fill="#9e7582"/><path d="M294.37446,117.09431c-7.84034,-2.00954 -71.38811,-14.01621 -71.38811,-14.01621l86.57607,14.93042l3.46638,8.14874c0,0 -10.81392,-7.05337 -18.65433,-9.06295z" fill="#b38f9a"/></g><path d="M267.08006,135.80892l1.55908,-9.04033l19.91822,3.43494l-1.55908,9.04034z" fill="#3a3336"/><path d="M268.55184,126.75778l0.9648,-1.3786l18.26874,3.15051l0.71203,1.66774z" fill="#4b4246"/><path d="M267.30304,135.34063l1.38974,-8.05865c0,0 0.14883,5.36922 2.58007,6.91114c2.43127,1.54193 15.39177,4.48648 15.39177,4.48648z" fill="#332c30"/><path d="M311.47473,122.98356l-2.84329,-6.57891c0,0 1.12138,-0.4831 1.71324,-0.38101c0.66171,0.1141 2.07086,1.03365 2.07086,1.03365l2.84329,6.57891z" fill="#757575"/><path d="M313.64661,128.16257l-4.08872,-9.44449l3.78414,0.65258l4.08872,9.44448z" fill="#5a5a5a"/><path d="M316.73374,135.23913l-4.08872,-9.44448l3.78413,0.65258l4.08872,9.44449z" fill="#505050"/><path d="M319.92375,142.56756c-0.69835,-1.61309 -3.42317,-7.90713 -3.42317,-7.90713l3.78412,0.65258l4.76273,11.30027c0,0 -2.11685,0.17834 -3.05008,0.00237c-0.72792,-0.13724 -1.76568,-3.33685 -2.07361,-4.04814z" fill="#3b3b3b"/><path d="M217.42128,118.94881l3.17368,-18.40307l3.13468,0.54059l-3.17368,18.40307z" fill="#443e42"/><path d="M198.54801,117.3166l0.33168,-5.95833l19.93428,3.43771l-1.00744,5.84181z" fill="url(#color-7)"/><path d="M198.77252,111.97971l1.84339,-10.68919l19.93428,3.43771l-1.84339,10.6892z" fill="#5e555b"/><path d="M200.59443,101.41499l1.49567,-3.96574l19.14594,3.30175l-0.70739,4.10169z" fill="url(#color-8)"/><path d="M270.54628,109.45493l1.04231,-6.04413l14.62245,3.60409l3.75435,5.42809z" fill="#5e555b"/><path d="M289.90498,112.79341l-3.70903,-5.69088c0,0 2.85494,1.19314 4.88115,2.55557c2.02618,1.36241 5.2224,4.23806 5.2224,4.23806z" fill="#776b73"/><path d="M267.37157,110.0801l3.36495,-0.68252l25.27297,4.08785l3.33464,2.10853z" fill="#6d6269"/></g><g><path d="M269.18024,132.1424c0.21221,-1.23064 0.91175,-2.28381 1.46963,-3.23235c0.77743,-1.32178 1.57304,-2.38992 2.99175,-3.00393c0.86664,-0.37509 2.05349,-0.56552 3.0689,-0.63433c0.67155,-0.04549 1.72422,-0.26993 2.417,-0.15045c1.57053,0.27081 1.89396,0.40955 2.94266,1.09378c0.63172,0.41216 2.17103,1.13333 2.58398,1.88661c0.34955,0.63754 0.65718,1.65316 0.87844,2.38094c0.37803,1.24379 0.85198,3.21757 0.61598,4.58601c-0.09971,0.57829 -0.81195,1.8137 -0.94852,2.31318c-0.4335,1.58585 -0.52083,2.08792 -1.90414,2.96915c-0.84082,0.53558 -2.41922,0.81931 -3.45841,1.05608c-1.07616,0.24528 -2.48057,0.8819 -3.63629,0.6826c-0.77995,-0.1345 -2.09636,-0.90439 -2.82888,-1.16896c-1.58917,-0.57393 -2.4386,-0.89739 -3.25933,-2.19595c-0.70385,-1.11354 -0.68902,-2.7329 -0.81731,-4.13265c-0.06736,-0.73535 -0.24703,-1.68736 -0.11559,-2.4498z" fill="#3a3a3a"/><path d="M269.92083,132.14973c0.19422,-1.12624 0.83437,-2.0899 1.34486,-2.95794c0.71142,-1.20953 1.43945,-2.18697 2.7378,-2.74888c0.79298,-0.34321 1.87919,-0.51748 2.80833,-0.58045c0.61459,-0.04162 1.57792,-0.24702 2.21175,-0.13771c1.43719,0.24782 1.73316,0.37479 2.69286,1.00088c0.57807,0.37715 1.98664,1.03715 2.3646,1.72639c0.31991,0.58342 0.60142,1.51288 0.80384,2.17886c0.34594,1.13822 0.77965,2.94439 0.56364,4.19661c-0.09123,0.52917 -0.743,1.65966 -0.86803,2.11682c-0.39668,1.45121 -0.47661,1.91063 -1.74252,2.717c-0.76942,0.49011 -2.21384,0.74967 -3.16474,0.96642c-0.98484,0.22443 -2.26999,0.80706 -3.32756,0.62471c-0.71374,-0.12308 -1.91839,-0.82762 -2.58869,-1.06964c-1.45423,-0.52512 -2.23155,-0.82122 -2.98265,-2.00951c-0.64406,-1.01904 -0.63052,-2.50089 -0.74784,-3.78181c-0.06159,-0.67292 -0.22604,-1.54414 -0.10577,-2.24176z" fill="#5a5a5a"/><path d="M282.70517,129.75823c-1.60972,-2.69861 -6.59505,-3.76189 -6.59505,-3.76189c0,0 2.00577,-0.20209 3.96587,0.143c1.5877,0.27951 3.07525,0.90588 3.9968,2.385c0.92234,1.48033 1.05816,3.01037 1.10361,4.43432c0.08919,2.79174 -0.74893,5.07535 -0.74893,5.07535c0,0 -0.11261,-5.57711 -1.72233,-8.27568z" fill="#6d6d6d"/><path d="M276.60282,133.79876c0.09781,-0.56735 0.63703,-0.94793 1.20444,-0.85012c0.56735,0.09781 0.94793,0.63703 0.85012,1.20445c-0.09781,0.56735 -0.63703,0.94793 -1.20444,0.85011c-0.56735,-0.09781 -0.94793,-0.63703 -0.85011,-1.20444z" fill="#272727"/><path d="M276.50172,133.9202c0.08978,-0.52038 0.5843,-0.86943 1.10465,-0.77973c0.52038,0.08978 0.86943,0.5843 0.77973,1.10465c-0.08978,0.52038 -0.5843,0.86943 -1.10464,0.77973c-0.52038,-0.08978 -0.86943,-0.5843 -0.77973,-1.10464z" fill="#131313"/></g></g></g></g></g><path d="M170.25197,227.10716c0.26932,-1.56165 3.31686,-44.29128 4.08966,-45.85789c1.04344,-2.11521 9.17167,0.65709 12.34901,-0.32499c9.73092,-3.00792 20.18071,-5.86063 20.18071,-5.86063c0,0 13.76511,2.96286 17.93994,3.68293c3.12204,0.53839 64.99177,2.59252 63.96829,12.88991c-1.38824,13.96719 -42.29133,-4.97806 -44.35289,6.9761c-0.5219,3.02623 1.81956,3.62838 0.7272,6.63377c-0.26221,0.72128 -3.45982,5.42516 -3.96571,7.03877c-0.80309,2.56131 1.76391,7.06563 -2.02478,9.55727c-3.02012,1.98621 -1.96886,7.25843 -2.80496,8.34778c-5.7614,7.50704 -13.3226,2.34247 -22.20437,0.81081c-10.5306,-1.81603 -26.48728,-0.78952 -35.52404,-3.60357c-3.90083,-1.21477 -9.16198,4.25563 -8.37805,-0.29002z" fill="#86c8f5" stroke-width="0"/></g></g></svg>