<svg version="1.1" xmlns="http://www.w3.org/2000/svg" xmlns:xlink="http://www.w3.org/1999/xlink" width="470.10887" height="183.31004" viewBox="0,0,470.10887,183.31004"><defs><linearGradient x1="541.94884" y1="193.73835" x2="541.47047" y2="198.52611" gradientUnits="userSpaceOnUse" id="color-1"><stop offset="0" stop-color="#1f1d20"/><stop offset="1" stop-color="#202022"/></linearGradient><linearGradient x1="542.86895" y1="188.95104" x2="542.31852" y2="194.45981" gradientUnits="userSpaceOnUse" id="color-2"><stop offset="0" stop-color="#302d31"/><stop offset="1" stop-color="#1f1e20"/></linearGradient><linearGradient x1="204.96394" y1="203.49659" x2="204.62686" y2="206.86982" gradientUnits="userSpaceOnUse" id="color-3"><stop offset="0" stop-color="#585758"/><stop offset="1" stop-color="#575758"/></linearGradient><linearGradient x1="190.91364" y1="212.22136" x2="190.64902" y2="214.86952" gradientUnits="userSpaceOnUse" id="color-4"><stop offset="0" stop-color="#363536"/><stop offset="1" stop-color="#353536"/></linearGradient><linearGradient x1="342.79663" y1="134.13398" x2="342.24596" y2="139.64501" gradientUnits="userSpaceOnUse" id="color-5"><stop offset="0" stop-color="#5e555b"/><stop offset="1" stop-color="#2b2629"/></linearGradient><linearGradient x1="335.14224" y1="112.59927" x2="334.7449" y2="116.57563" gradientUnits="userSpaceOnUse" id="color-6"><stop offset="0" stop-color="#72676e"/><stop offset="1" stop-color="#5e555b"/></linearGradient><linearGradient x1="221.36331" y1="115.19835" x2="220.7739" y2="121.09702" gradientUnits="userSpaceOnUse" id="color-7"><stop offset="0" stop-color="#5e555b"/><stop offset="1" stop-color="#4d454a"/></linearGradient><linearGradient x1="222.78037" y1="101.01668" x2="222.36654" y2="105.15831" gradientUnits="userSpaceOnUse" id="color-8"><stop offset="0" stop-color="#74686f"/><stop offset="1" stop-color="#5e555b"/></linearGradient></defs><g transform="translate(-76.59463,-100.09063)"><g data-paper-data="{&quot;isPaintingLayer&quot;:true}" fill-rule="nonzero" stroke="none" stroke-linecap="butt" stroke-linejoin="miter" stroke-miterlimit="10" stroke-dasharray="" stroke-dashoffset="0" style="mix-blend-mode: normal"><path d="M108.98677,229.80104c1.59092,-3.86498 5.4289,-15.65108 8.29665,-23.96346c2.86773,-8.31236 12.08717,-16.84959 15.49177,-14.12333c3.40459,2.72626 1.96218,1.22491 2.99142,9.14896c0.42954,3.307 -1.98306,7.10708 -4.32999,10.34629c-3.0147,4.16084 -5.37512,11.02853 -4.4689,11.62418c0.80018,0.52596 2.59337,5.89439 3.45083,6.09581c9.58707,2.25202 19.23403,0.31478 24.59663,2.52216c6.99469,2.8792 3.01846,13.42043 3.72907,20.03024c0.38607,3.59109 0.42041,6.85652 1.53692,10.1157c1.06731,3.11554 -2.77811,8.58588 -4.27342,12.21856c-5.93876,14.42757 -24.72224,9.82847 -39.14981,3.8897c-3.88978,-1.60114 -6.18984,6.21948 -9.15787,2.18898c-6.09415,-8.27568 -10.83883,-31.23883 -8.76127,-41.19145c0.66359,-3.17902 8.99789,-6.35128 10.04798,-8.90235z" fill="#86c8f5" stroke-width="0"/><g><g><g stroke-width="0"><path d="M267.53801,194.6829l-8.65378,-16.28639l25.5074,1.95561c0,0 -1.67256,5.69073 -2.13978,8.356c-0.45194,2.57822 -0.61918,7.38313 -0.61918,7.38313z" fill="#7f7d7e"/><path d="M267.61633,194.88847l-3.06409,-5.94101c0,0 1.99341,3.77195 5.15239,4.70538c2.27476,0.67214 4.18239,0.55126 6.81866,1.13708c2.63626,0.58581 4.99195,1.48737 4.99195,1.48737z" fill="#6c6a6b"/></g><g><g><g><path d="M538.49418,198.22872l-1.57038,-4.99247c0,0 5.79695,2.24535 8.29269,3.39203c2.49574,1.14669 0.85191,2.12421 0.85191,2.12421z" fill="url(#color-1)" stroke-width="0"/><path d="M546.41592,189.50608c0,0 1.24085,2.46338 -1.4324,3.09358c-2.67326,0.63021 -5.68353,1.55855 -5.68353,1.55855l-0.41539,-5.6053z" data-paper-data="{&quot;index&quot;:null}" fill="url(#color-2)" stroke-width="0"/><path d="M528.9244,197.26788l0.20864,-2.08796l14.69934,1.46879c0,0 1.17238,0.9154 1.62136,1.32836c0.4036,0.37122 -0.82481,0.86006 -0.82481,0.86006z" fill="#444444" stroke-width="NaN"/><path d="M529.15232,195.32598l-1.01038,-1.86359l12.55315,1.25432l3.21393,1.97139c0,0 -4.22063,-0.18254 -6.51575,-0.3944c-2.58842,-0.23894 -8.24097,-0.96777 -8.24097,-0.96777z" fill="#535353" stroke-width="0"/><path d="M528.01676,193.58729l-0.25952,-0.66912l11.41692,1.14078l1.62487,0.69068z" fill="#363636" stroke-width="0"/><path d="M528.9244,197.26788l0.11318,-1.13272c0,0 6.37652,1.09301 9.24204,1.37934c2.42828,0.24264 6.85751,0.22936 6.85751,0.22936c0,0 0.81389,0.54586 1.03982,0.77233c0.19059,0.19105 -0.2945,0.44618 -0.2945,0.44618c0,0 -4.74952,-0.06809 -7.0518,-0.29813c-3.10607,-0.31037 -9.90625,-1.39637 -9.90625,-1.39637z" fill="#3a3a3a" stroke-width="NaN"/><path d="M528.07478,192.96826l-0.46291,-0.93437l13.57404,1.35634l-1.90382,0.73197z" fill="#242424" stroke-width="0"/><path d="M526.789,192.14182l0.16448,-1.64611c0,0 8.07374,0.5995 11.05465,0.89739c2.0309,0.20294 5.10141,0.71697 5.10141,0.71697l-1.95275,1.30164z" fill="#3a3a3a" stroke-width="0"/><path d="M526.82033,190.52518l0.20309,-2.03243c0,0 7.64817,0.43267 10.946,0.7622c2.85378,0.28515 7.70222,1.10117 7.70222,1.10117l-2.60929,1.792c0,0 -3.62861,-0.44545 -5.8619,-0.66861c-2.9686,-0.29662 -10.38011,-0.95432 -10.38011,-0.95432z" fill="#444444" stroke-width="0"/><path d="M526.97201,188.57311l0.08463,-0.84684c0,0 7.8471,0.65977 11.4265,1.01743c2.49239,0.24904 7.99514,0.92319 7.99514,0.92319l-0.94537,0.76084c0,0 -5.00024,-0.78975 -7.95077,-1.08455c-3.25072,-0.32483 -10.61013,-0.77006 -10.61013,-0.77006z" fill="#535353" stroke-width="0"/><path d="M526.91926,187.79808l0.03386,-0.33875c0,0 7.68869,0.25869 11.13191,0.60275c2.97695,0.29747 8.33271,1.34217 8.33271,1.34217l0.00355,0.34248c0,0 -5.96271,-0.76156 -9.19165,-1.08423c-3.27115,-0.32687 -10.31031,-0.86445 -10.31031,-0.86445z" fill="#4e4e4e" stroke-width="0"/></g><g stroke-width="0"><g><g><g><path d="M523.14817,196.20026l-3.25028,-13.55396l0.72142,-1.65784c0,0 3.13651,3.5587 3.80672,6.12844c0.36384,1.3951 0.1695,9.22797 0.1695,9.22797z" fill="#383638"/><path d="M524.26287,195.6168c0,0 0.11871,-0.60086 -0.26273,-3.10609c-0.41596,-2.73204 -1.43991,-6.48952 -1.7243,-7.59726c-0.63844,-2.48651 -1.37662,-2.69141 -1.37662,-2.69141l4.83406,-0.10167l3.59529,14.00262z" fill="#555355"/><path d="M520.95441,182.31335l-0.456,-1.28809c0,0 2.08971,-0.59519 3.04657,-0.49957c0.89662,0.08958 1.95396,0.92614 1.95396,0.92614l0.44877,1.36044z" fill="#686668"/></g><path d="M517.50358,195.63625l-3.25028,-13.55395l0.39024,-1.67069c0,0 3.46772,3.57154 4.13789,6.14126c0.36384,1.39509 0.16951,9.22796 0.16951,9.22796z" fill="#383638"/><path d="M518.61825,195.05275c0,0 0.11871,-0.60087 -0.26272,-3.10609c-0.41596,-2.73204 -1.43991,-6.48952 -1.7243,-7.59726c-0.63844,-2.48651 -1.37662,-2.69141 -1.37662,-2.69141l4.13749,-0.67378c0,0 0.89631,1.35006 1.09091,2.10793c0.55442,2.15929 3.20095,12.46677 3.20095,12.46677z" fill="#555355"/><path d="M515.3098,181.74929l-0.67311,-1.3098c0,0 2.30682,-0.57349 3.2637,-0.47785c0.89662,0.08958 1.66448,0.89721 1.66448,0.89721l0.57318,1.37289z" fill="#686668"/><path d="M525.17597,194.70931c0.08147,-0.81546 0.8086,-1.41045 1.62406,-1.32898c0.81547,0.08147 1.41045,0.8086 1.32898,1.62406c-0.08147,0.81546 -0.8086,1.41045 -1.62405,1.32898c-0.81547,-0.08147 -1.41045,-0.8086 -1.32898,-1.62406z" fill="#312f31"/><path d="M526.11958,191.85974l-1.438,-5.71782l1.59773,0.01559l1.4316,5.78204z" fill="#444144"/></g><path d="M478.85974,186.78369l-2.66989,-11.14421l29.6173,4.14174l-1.42742,9.55247z" fill="#444444"/><path d="M491.82727,184.14445c0,0 0.68472,-0.45612 1.51329,-1.48374c0.7576,-0.93954 1.64347,-2.43678 2.07233,-2.85999c1.1401,-1.60106 3.46046,-0.90005 3.46046,-0.90005l-1.03966,0.55242l-4.8692,4.805z" fill="#292929"/><path d="M493.56584,194.90004l-5.39118,-11.56474c0,0 3.42857,0.87652 5.22807,0.00201c1.39835,-0.67958 1.56635,-3.30786 3.16383,-3.43055c4.58326,-0.35197 17.43713,0.49638 17.43713,0.49638c0,0 2.5137,7.43172 3.14929,10.39667c0.43878,2.04689 0.4076,6.49785 0.4076,6.49785z" fill="#4a464a"/><path d="M498.98583,182.26779c-4.47498,-1.08637 -2.90569,-2.3003 -2.90569,-2.3003c0,0 0.91827,-1.21697 2.79087,-1.17673c4.59533,0.09872 13.13821,1.53212 14.85446,1.67784c0.8094,0.0687 0.27567,0.72681 0.27567,0.72681c0,0 -1.71922,2.22605 -3.28742,2.32466c-1.56823,0.09861 -7.25292,-0.16588 -11.7279,-1.25228z" fill="#5e595e"/></g><g><path d="M481.16664,200.26914l-3.35246,-18.35979l18.78562,2.16483l4.34532,4.7841l6.07879,0.50837l1.61882,13.64794z" fill="#4d4846"/><path d="M485.79545,201.1207l21.48763,-7.29122l22.23517,1.97816c0,0 0.88962,4.29259 0.89719,5.65467c0.00383,0.69444 -0.44692,2.91409 -0.44692,2.91409z" fill="#423d3b"/><path d="M482.82692,192.47169l-2.18476,-10.11348l0.81645,0.08158l2.18477,10.11348z" fill="#363332"/><path d="M486.45783,200.3813l0.12104,-1.21136c0,0 5.49147,-2.0094 14.51143,-1.10813c1.19845,0.11976 5.17262,3.07498 6.38055,3.19568c7.66395,0.76579 15.16548,1.51536 18.01935,1.80052c2.32419,0.23225 4.82684,-0.82417 4.82684,-0.82417l-0.25032,2.50492z" fill="#312e2c"/><path d="M490.08267,187.93984l-1.27607,-4.76586l8.26653,0.826l3.69482,4.81253l6.25598,0.82015l-7.74588,1.18445z" fill="#585350"/><path d="M479.94394,193.98741l0.11219,-1.12262c0,0 8.3782,-2.92509 11.24116,-2.639c4.31488,0.43115 16.22687,1.62142 16.22687,1.62142l-0.11219,1.12262c0,0 -12.11621,-1.21067 -16.43101,-1.64181c-2.80415,-0.28022 -11.03705,2.65939 -11.03705,2.65939z" fill="#2b2827"/></g></g></g><g><g><g><path d="M142.72885,203.15869c0.316,2.27669 -0.24934,4.82264 -1.36122,4.97694c-1.11185,0.15432 -2.34922,-2.14138 -2.66522,-4.4181c-0.316,-2.27669 -1.58753,-11.01682 -0.47565,-11.17115c1.11185,-0.15432 4.18609,8.33558 4.5021,10.6123z" fill="#615e5f" stroke-width="0"/><g><path d="M187.09097,177.51344c-0.48419,-0.57864 -2.68279,-2.11723 -2.68279,-2.11723l10.1572,-1.87942l-6.68612,6.56778c0,0 -0.30409,-1.99251 -0.78828,-2.57111z" fill="#756a6a" stroke-width="0"/><path d="M178.27784,174.92719l1.36545,-13.66528l19.0248,-3.99489l-1.94875,19.50289z" fill="#8a7c7c" stroke-width="0"/><path d="M137.89882,176.36662l8.43656,-17.38064l34.77349,3.34064l3.25147,13.05464c0,0 -23.0327,-0.71757 -30.78321,-0.55318c-3.2173,0.06823 -15.67833,1.53857 -15.67833,1.53857z" fill="#7c787a" stroke-width="0"/><path d="M146.21405,161.39066l-0.00012,-1.48887c0,0 25.79576,2.57753 33.90521,3.38784c4.53726,0.45336 16.70151,-4.73324 16.70151,-4.73324l-0.16201,1.62157c0,0 -11.8696,5.19668 -16.25627,4.74363c-8.04349,-0.83072 -34.18832,-3.5309 -34.18832,-3.5309z" fill="#535353" stroke-width="0"/><path d="M105.9079,173.88143l2.00384,-20.05413c0,0 5.21005,-6.56867 12.64663,-8.133c9.23652,-1.94294 25.86412,1.51251 27.92451,1.71838c1.58112,0.15801 -13.87932,9.0817 -13.87932,9.0817l-2.00384,20.05413z" fill="#8d898b" stroke-width="0"/><path d="M282.58615,145.16277l1.90731,-2.96933l107.01796,10.83694l-1.46616,14.67316c0,0 -37.77692,-1.92 -49.8958,-3.54912c-6.01859,-0.80907 -57.56329,-18.99166 -57.56329,-18.99166z" fill="#c98cac" stroke-width="0"/><path d="M250.98735,243.50843l-3.2349,-13.32408c0,0 4.532,6.32138 7.25848,7.67604c1.7371,0.86309 5.90436,1.66314 12.22719,-0.15462c5.09012,-1.46338 10.78111,-6.43295 10.78111,-6.43295l-13.09754,13.62794z" fill="#a08e97" stroke-width="0"/><path d="M345.69338,205.82194l0.02222,-23.73682l18.59495,0.4483l-2.10754,21.09198c0,0 -6.53662,1.07454 -9.35746,1.49443c-1.29884,0.19335 -7.15217,0.70213 -7.15217,0.70213z" fill="#96858d" stroke-width="0"/><path d="M248.78638,247.05301l0.55083,-5.5127c0,0 11.7978,3.25768 16.70477,0.61114c2.38809,-1.28799 21.23757,-20.44128 31.63163,-31.09259c4.05626,-4.15666 6.82483,-7.01852 6.82483,-7.01852c0,0 3.71785,-3.42051 4.00842,-6.28802c0.14616,-1.44249 1.02925,-5.55378 0.43164,-7.93635c-0.60295,-2.40387 -2.68733,-3.07274 -2.68733,-3.07274l-3.49857,-13.98946l19.70355,2.11321l-5.53706,26.1524l3.48486,2.92284c0,0 -10.10423,5.02036 -15.20294,9.49128c-7.97761,6.99529 -34.27205,34.90412 -34.27205,34.90412z" fill="#918189" stroke-width="0"/><path d="M322.59299,203.86821l4.05154,-28.34149l13.67996,1.64407l9.11901,12.97312l-3.85337,16.02225z" fill="#96858d" stroke-width="0"/><path d="M317.90698,205.25836l-2.08464,-4.37473l6.12538,-25.70826l5.0631,0.42079l-3.51455,28.37788z" fill="#8f8187" stroke-width="0"/><path d="M344.35161,206.14647c0,0 3.40099,-6.36043 2.59296,-11.87894c-0.46526,-3.17753 -5.156,-5.62576 -5.44123,-7.57368c-0.54483,-3.72106 -1.38772,-9.47758 -1.38772,-9.47758l7.3823,5.12335c0,0 2.67204,7.51667 2.8431,11.8165c0.11497,2.88885 -1.99532,9.08573 -3.17575,11.5796c-0.09952,0.21024 -1.26157,0.01043 -1.32938,0.16981c-0.16565,0.38932 0.77079,0.71536 0.77079,0.71536z" fill="#86787e" stroke-width="0"/><path d="M347.13525,183.81075c0,0 -2.68228,-4.24264 -7.245,-5.67503c-5.1655,-1.62157 -22.1646,-3.55746 -22.1646,-3.55746l158.36582,1.57173l2.47373,9.59529l6.77075,11.87471c0,0 -100.0368,-12.58006 -120.52314,-14.62708c-6.68498,-0.66798 -17.67757,0.81786 -17.67757,0.81786z" fill="#df8db7" stroke-width="0"/><path d="M188.98081,215.52353l-1.16809,-36.56717c0,0 2.0478,-3.56472 2.56793,-3.72949c5.7346,-1.81668 38.67158,-9.23041 44.05541,-8.40476c5.89769,0.90445 -10.33168,11.27077 -10.33168,11.27077c0,0 -14.53984,0.58318 -17.48752,4.55969c-4.00206,5.39894 -0.9041,23.14844 -0.9041,23.14844z" fill="#c77da3" stroke-width="0"/><path d="M264.01801,192.94339l-1.57129,-2.27277c0,0 7.38222,-7.91178 10.03168,-9.95118c2.73532,-2.10549 6.1309,-2.48989 6.1309,-2.48989l5.67716,2.88092c0,0 -4.40391,-0.94512 -6.92659,0.52763c-2.16563,1.2643 -6.20524,3.95466 -9.29903,6.75326c-2.25051,2.03577 -4.04282,4.55199 -4.04282,4.55199z" fill="#414041" stroke-width="0"/><path d="M146.0003,160.31779l5.93845,-11.15436l48.38749,4.83494c0,0 -3.32721,4.14524 -6.62684,5.79145c-3.23847,1.61571 -12.99088,3.99604 -12.99088,3.99604z" fill="#979395" stroke-width="0"/><path d="M146.90996,159.2601l5.14242,-11.2339l48.38749,4.83494c0,0 -3.32721,4.14524 -6.62684,5.79145c-3.23847,1.61571 -12.99088,3.99604 -12.99088,3.99604z" fill="#bdb7ba" stroke-width="0"/><path d="M346.71597,206.70503l-1.81257,-0.69717l17.18048,-2.47888c0,0 -3.74729,1.69319 -6.29816,2.23919c-2.55088,0.54601 -9.06973,0.93685 -9.06973,0.93685z" fill="#887980" stroke-width="0"/><path d="M191.40802,216.23282c0,0 -1.28807,-10.64629 -1.63429,-19.26186c-0.34788,-8.65761 -0.64885,-16.77448 -0.31441,-20.34361c0.05667,-0.60468 2.68396,-10.32228 3.2331,-10.7914c2.96412,-2.53227 9.89765,5.94269 15.54393,5.39782c8.36024,-0.80676 27.42514,0.58157 27.42514,0.58157l-8.93984,4.44384c0,0 -19.63809,0.91712 -22.52868,5.79111c-3.90976,6.59257 1.54819,28.11463 1.54819,28.11463z" fill="#d486ae" stroke-width="0"/><path d="M192.88382,212.84391c0,0 -2.56441,-41.33135 -0.24218,-51.22647c1.08654,-4.62982 -1.34606,-14.02611 -1.34606,-14.02611l49.72331,11.97179l-0.18091,16.13195c0,0 -31.57597,-6.26371 -38.51871,-0.65223c-4.63453,3.74584 -0.66727,32.52597 -0.66727,32.52597z" fill="#e490bb" stroke-width="0"/><g stroke-width="0"><path d="M336.88511,163.9253l0.82274,-8.23388l9.31361,0.93063l-0.82274,8.23388z" fill="#454545"/><path d="M337.78937,163.24702l0.37065,-7.2974l11.27007,1.12612l-0.72563,7.26193z" fill="#b0b0b0"/><path d="M338.0063,158.75731l0.05397,-2.83901l11.48565,1.14767l-0.18965,1.89793c0,0 -7.7863,-0.45397 -9.49106,-0.48499c-0.56963,-0.01036 -1.85894,0.27841 -1.85894,0.27841z" fill="#bebebe"/><path d="M349.01126,163.81607c0,0 -5.25917,-3.09358 -4.31838,-6.76591c1.39799,-5.45706 5.45125,-4.57158 5.45125,-4.57158l39.91043,5.32789l-1.00028,10.01076z" fill="#9c989a"/><path d="M350.91788,162.71093c0,0 -2.12456,-3.74875 -2.27536,-4.69526c-0.22352,-1.40304 2.05544,-4.14736 2.05544,-4.14736l41.38633,4.16888l-1.14258,7.41179z" fill="#898587"/><path d="M350.80828,162.89923l-0.82172,-2.03117l38.0423,3.80124l-0.19282,1.92979z" fill="#c1bcbf"/><path d="M351.02515,159.51006c0,0 -1.19073,-1.49377 -1.09752,-2.42648c0.08718,-0.87246 1.63985,-3.00105 1.63985,-3.00105l38.47506,3.84448l-0.54233,5.42752z" fill="#0d0d0d"/><path d="M350.94785,160.28349c0,0 -1.13068,-2.09454 -1.03747,-3.02726c0.08718,-0.87246 1.57981,-2.40027 1.57981,-2.40027l38.47507,3.84448l-0.54233,5.42752z" fill="#2e2e2e"/><path d="M345.95652,161.69755c-2.32084,-3.31413 -0.92912,-5.52324 -0.92912,-5.52324c0,0 1.41429,4.27413 2.55442,5.29013c1.34987,1.20285 4.80598,2.92099 4.80598,2.92099l-3.49837,-0.27904c0,0 -2.52449,-1.82557 -2.9329,-2.40879z" fill="#7d7a7c"/><path d="M353.50421,160.85016c0,0 -0.66456,-2.28941 -0.55086,-3.42731c0.09994,-1.00025 1.19712,-3.04048 1.19712,-3.04048l4.79943,0.47958c0,0 -0.67797,2.14722 -0.76428,3.01113c-0.11866,1.18739 0.11802,3.45663 0.11802,3.45663z" fill="#555555"/><path d="M362.07819,161.70691c0,0 0.91422,-2.44433 1.02792,-3.58221c0.09994,-1.00025 -0.38164,-2.88559 -0.38164,-2.88559l5.35666,0.53524c0,0 -0.58512,1.66514 -0.67144,2.52909c-0.11866,1.18739 0.02519,3.93868 0.02519,3.93868z" fill="#555555"/><path d="M371.35864,162.63422c0,0 0.91423,-2.44433 1.02794,-3.58221c0.09994,-1.00025 -0.38165,-2.88558 -0.38165,-2.88558l5.27706,0.52727c0,0 -0.58512,1.66514 -0.67144,2.52909c-0.11866,1.18739 0.02519,3.93868 0.02519,3.93868z" fill="#555555"/><path d="M380.97405,163.59501c0,0 1.05578,-2.07283 1.16947,-3.21075c0.09994,-1.00025 -0.5232,-3.25704 -0.5232,-3.25704l5.11786,0.51138c0,0 0.62662,2.05422 0.5403,2.91819c-0.11866,1.18739 -1.18656,3.54962 -1.18656,3.54962z" fill="#555555"/><path d="M353.81563,155.05642l-0.58229,-0.86217l35.38637,3.53585l-1.60618,0.6435c0,0 -2.81606,-0.2814 -5.26606,-0.52619c-0.53402,-0.05337 -1.5119,-0.48145 -2.3118,-0.56142c-0.77343,-0.07729 -1.36127,0.1944 -2.32266,0.09832c-1.49922,-0.14982 -3.19074,-0.31882 -4.96157,-0.49578c-0.73419,-0.07337 -1.33487,-0.51886 -2.08828,-0.59412c-0.66995,-0.06692 -1.49144,0.23642 -2.16453,0.16918c-1.67054,-0.16693 -3.32463,-0.33221 -4.87982,-0.48759c-0.71414,-0.07136 -1.36384,-0.57683 -2.02828,-0.64321c-0.81113,-0.08107 -1.62289,0.27838 -2.33356,0.20737c-2.89902,-0.28967 -4.84135,-0.48374 -4.84135,-0.48374z" fill="#474747"/></g><g><path d="M200.66023,207.16004l3.98377,-2.48365c0,0 2.53105,3.08181 5.26204,4.25414c2.41545,1.03685 10.29385,2.42332 10.29385,2.42332l-3.07484,4.06875z" fill="#6d6a6b" stroke-width="0"/><path d="M191.99489,212.82676l9.92002,-6.43073c0,0 2.99434,2.56697 5.08655,3.44123c3.16522,1.32259 12.05677,3.72225 12.05677,3.72225l-4.68482,3.86067z" fill="#615e5f" stroke-width="0"/><path d="M191.79964,234.88401l0.7684,-22.6087c0,0 4.25391,1.22095 9.04838,1.72976c3.74227,0.39716 7.85422,-0.04329 10.26517,0.80898c4.2326,1.49623 36.36407,17.12408 36.36407,17.12408l1.45456,10.37084z" fill="#575455" stroke-width="0"/><path d="M215.97279,210.12288c7.45229,-4.8483 16.81924,-17.43138 18.32702,-19.86491c1.08623,-1.75318 2.2949,-6.93472 2.2949,-6.93472l6.98796,7.54698c0,0 3.78293,20.97681 3.70025,33.67828c-0.02314,3.55398 2.08961,7.72995 0.76343,9.0712c-1.18823,1.20172 -18.29317,1.79387 -23.58464,0.49655c-11.13569,-2.73009 -17.1764,-0.53029 -20.37805,-6.15182c-3.20167,-5.62152 4.48736,-11.15472 4.48736,-11.15472c0,0 5.46171,-5.42466 7.40181,-6.68687z" fill="#504e4f" stroke-width="0"/><path d="M224.01831,177.93809c0,0 0.54229,-1.44603 1.46102,-2.02105c1.18157,-0.73952 5.04028,-2.04803 5.04028,-2.04803c0,0 9.11499,2.98842 11.86276,5.7654c2.53522,2.5621 -4.7366,12.1679 -4.7366,12.1679l-1.4635,-5.5343z" fill="#464445" stroke-width="0"/><path d="M242.44202,227.24167c0,0 -9.86024,5.30168 -18.31964,4.62868c-8.16082,-0.64924 -14.93626,-7.24743 -14.68835,-8.65198c0.13429,-0.76099 8.35163,-3.26165 12.23064,-7.11652c4.31192,-4.28504 4.3928,-10.00687 5.93685,-11.87306c4.31056,-5.20993 13.72571,-14.49836 13.27084,-20.61753c-0.47704,-6.41732 -10.93529,-9.54653 -10.93529,-9.54653c0,0 4.056,-1.85762 9.02988,-1.49114c2.11868,0.15609 6.50596,1.98724 7.38641,2.4621c2.88719,1.55712 4.70536,3.38321 4.70536,3.38321c0,0 4.12558,-4.49139 7.74061,-4.44117c3.61504,0.05022 22.05447,4.85502 22.05447,4.85502l-17.38237,10.91983z" fill="#555354" stroke-width="0"/><path d="M227.14803,204.78142c0,0 5.67893,-10.3595 10.92625,-15.29714c5.24732,-4.93764 9.62173,-7.69687 13.13658,-7.34564c2.54527,0.25432 4.96059,9.15396 4.96059,9.15396l-13.88247,27.52534c0,0 -14.87473,1.80914 -16.09803,-0.80611c-0.96616,-2.06553 0.95707,-13.23039 0.95707,-13.23039z" fill="#585758" stroke-width="0"/><path d="M246.87737,234.18848c0,0 -2.24834,-6.44655 -1.62322,-9.42134c0.87329,-4.15577 3.56817,-16.60345 3.56817,-16.60345l0.9094,10.57854c0,0 -1.60645,9.63552 -1.77566,12.66358c-0.16326,2.92157 1.03721,5.22273 1.03721,5.22273z" fill="#3f3e3f" stroke-width="0"/><path d="M247.7296,216.31942c-0.02795,-1.68593 1.00427,-9.33211 1.00427,-9.33211c0,0 10.95926,-13.54544 13.31006,-15.97685c0.68918,-0.71278 4.2003,-2.10151 4.2003,-2.10151l-2.12072,4.66618c0,0 -1.62609,0.44452 -1.85252,0.90212c-0.24125,0.48753 0.44668,1.93891 0.44668,1.93891l-5.94659,7.92815c0,0 -1.74293,0.84145 -1.97145,1.32651c-0.22861,0.48517 0.36733,1.43729 0.36733,1.43729c0,0 -4.72425,8.51373 -5.80265,10.83276c-0.49861,1.07224 -0.40715,2.52113 -0.40715,2.52113c0,0 -1.1996,-2.45663 -1.22753,-4.14258z" fill="#474647" stroke-width="0"/><path d="M236.75338,194.14988l20.13565,10.2883c0,0 -1.2837,0.88907 -1.5733,1.40186c-0.21371,0.37838 -0.00685,1.39608 -0.00685,1.39608z" fill="#3f3e3e" stroke-width="NaN"/><path d="M243.75301,184.44478l20.60384,9.15275c0,0 -1.19334,0.72827 -1.45862,1.26086c-0.27653,0.55521 -0.01615,1.66582 -0.01615,1.66582z" fill="#3f3e3e" stroke-width="NaN"/><path d="M228.52307,211.74582c0,0 9.87457,8.718 15.12924,15.25041c5.25466,6.53244 3.2036,7.54031 3.2036,7.54031z" fill="#636162" stroke-width="NaN"/><path d="M244.03648,190.12452c0,0 -6.25966,2.29305 -9.30321,5.10027c-3.04356,2.80723 -12.94524,18.08134 -12.65239,15.15041c0.29287,-2.93093 15.4098,-22.24473 17.19584,-22.06629c0.6761,0.06757 3.81088,-0.76716 4.60164,-0.44951c1.29816,0.52152 0.15811,2.26506 0.15811,2.26506z" fill="#918f91" stroke-width="0"/><path d="M191.35857,234.7099l14.06147,-0.49266c0,0 12.56652,0.92173 15.67225,1.3879c7.56336,1.13522 29.87274,5.44823 29.87274,5.44823l-1.07327,6.24532c0,0 -24.59475,1.12567 -31.3242,-0.86892c-1.94683,-0.57704 -7.67321,-1.77037 -11.77343,-3.53899c-8.02394,-3.46112 -15.43555,-8.18085 -15.43555,-8.18085z" fill="#626061" stroke-width="0"/><path d="M248.92677,246.84865c0,0 0.46705,-4.26735 0.25295,-6.64024c-0.2406,-2.66704 -1.62636,-8.583 -1.62636,-8.583l1.77351,0.1772c0,0 1.26753,4.60565 1.48536,7.02013c0.23814,2.63985 -0.11196,8.20313 -0.11196,8.20313z" fill="#4a494a" stroke-width="0"/><path d="M248.64933,247.66141l0.42558,-3.37156c0,0 0.53762,0.31976 0.80779,0.34674c0.321,0.03209 0.95096,-0.171 0.95096,-0.171l-0.14295,3.17811c0,0 -0.81323,0.32839 -1.18519,0.33161c-0.28502,0.00249 -0.85613,-0.3139 -0.85613,-0.3139z" fill="#363536" stroke-width="0"/><path d="M247.72513,232.67298l-0.2228,-1.65096c0,0 0.45055,-0.31115 0.82309,-0.33345c0.35479,-0.02124 0.86242,0.15285 0.86242,0.15285l0.32649,1.77766c0,0 -0.5299,0.45701 -0.83642,0.46624c-0.2888,0.0087 -0.95276,-0.41233 -0.95276,-0.41233z" fill="#585758" stroke-width="0"/><path d="M207.32904,242.25882c0,0 -7.56245,-3.72319 -7.42692,-5.07945c0.13621,-1.36303 6.45888,-1.90791 6.45888,-1.90791c0,0 10.91361,0.84854 15.82887,1.51315c2.75176,0.37208 11.15218,2.135 11.15218,2.135c0,0 7.15087,1.77399 7.84741,3.00104c0.75977,1.33846 -3.36773,3.78182 -3.36773,3.78182c0,0 -12.79066,0.03449 -16.71511,-0.56691c-1.3941,-0.21366 -13.77753,-2.87668 -13.77753,-2.87668z" fill="#6b696a" stroke-width="0"/><path d="M197.68365,234.35917l-1.97491,0.03462c0,0 0.96479,-3.35537 3.54783,-1.8489c2.58303,1.50651 21.56355,2.38661 21.56355,2.38661z" fill="#4b4949" stroke-width="0"/><path d="M191.44546,234.57382c0,0 -2.00691,-0.00799 -2.17717,-3.6859c-0.08618,-1.86173 -0.40647,-16.15655 -0.40647,-16.15655l4.00569,-2.51328c0,0 0.08246,6.03182 -0.00093,8.94018c-0.11095,3.86808 -0.50254,13.5073 -0.50254,13.5073z" fill="#3f3d3e" stroke-width="0"/><path d="M197.98737,234.55626c0,0 3.39144,-1.82999 19.40176,-0.56902c1.32217,0.10415 -1.7831,-0.21035 7.51962,1.22903c9.30272,1.43936 13.04118,3.33312 13.04118,3.33312c0,0 -14.88522,-2.56205 -21.0573,-3.17878c-7.03543,-0.70298 -18.90529,-0.81434 -18.90529,-0.81434z" fill="#838082" stroke-width="0"/><path d="M205.95921,205.5731c0,0 -4.56643,1.74204 -6.89135,3.13333c-2.61313,1.56378 -8.024,5.7925 -8.024,5.7925l-0.62134,-1.67168c0,0 4.1271,-3.46048 6.49273,-4.87616c2.58643,-1.54778 8.42261,-4.0497 8.42261,-4.0497z" fill="#4a494a" stroke-width="0"/><path d="M206.91421,205.40944l-3.7105,1.31817c0,0 0.16019,-0.63364 0.06552,-0.88828c-0.11247,-0.30257 -0.60468,-0.7618 -0.60468,-0.7618l3.30815,-1.48013c0,0 0.70303,0.55935 0.87456,0.88952c0.13146,0.25302 0.0669,0.92252 0.0669,0.92252z" fill="url(#color-3)" stroke-width="0"/><path d="M192.03527,213.81586l-3.20775,2.42287l0.07389,-2.18613l2.26953,-1.80551c0,0 0.70612,0.24151 0.85419,0.51028c0.13952,0.2532 0.01013,1.05847 0.01013,1.05847z" fill="url(#color-4)" stroke-width="0"/></g><path d="M323.8449,202.89134c0,0 1.36214,-4.30456 2.00107,-5.63674c0.43373,-0.90433 2.9377,-2.09292 2.9377,-2.09292l16.95679,1.47505c0,0 -1.84727,5.64203 -2.36231,6.96366c-0.22563,0.57896 -1.35517,1.16216 -1.35517,1.16216z" fill="#665b60" stroke-width="0"/><path d="M277.2868,179.89175c0,0 -3.62006,-1.93196 -8.40956,-3.5685c-3.04468,-1.04038 -7.23718,-2.02887 -9.09949,-2.10865c-5.41432,-0.23197 -8.4284,4.59719 -8.4284,4.59719c0,0 -3.02679,-2.62972 -5.039,-3.68973c-1.87832,-0.98948 -6.11033,-2.41828 -6.11033,-2.41828c0,0 24.94396,-2.62419 28.83372,-2.81852c7.457,-0.37258 33.96706,2.66971 33.96706,2.66971l4.77271,14.83374z" fill="#8b7c84" stroke-width="0"/><g stroke-width="0"><path d="M325.3861,202.0979c0,0 0.72732,-2.53653 1.22463,-3.38606c0.51563,-0.88088 2.7932,-1.71096 2.7932,-1.71096l14.45803,1.44464c0,0 0.28665,1.0165 -0.02091,1.72724c-0.4182,0.96634 -3.45415,3.42404 -3.45415,3.42404z" fill="#585852"/><path d="M325.4602,201.35624c0,0 0.65321,-1.79483 1.15052,-2.64438c0.51563,-0.88088 2.8673,-2.45262 2.8673,-2.45262l14.45803,1.44465c0,0 0.21258,1.75818 -0.09503,2.4689c-0.4182,0.96634 -3.38004,2.68234 -3.38004,2.68234z" fill="#797971"/><path d="M342.13134,198.0216c-1.02598,-0.28133 -12.56398,-1.70694 -12.56398,-1.70694l14.43825,1.44268l-0.24478,2.44963c0,0 -0.60353,-1.90401 -1.62949,-2.18538z" fill="#85857b"/></g><path d="M328.61664,184.16212l0.51599,-5.16403l7.10056,0.70949l0.77502,5.29304z" fill="#7c6e75" stroke-width="0"/><path d="M320.87144,156.83304l-3.34756,-8.50626l1.37248,0.13716l5.22855,9.14806z" fill="#d495b6" stroke-width="0"/><path d="M282.81963,145.36383l13.46073,-1.76004l21.43877,4.76771l3.17854,8.45016z" fill="#df9cbe" stroke-width="0"/><path d="M328.27816,189.18085l0.16126,-1.61375l10.81219,1.08039l0.80701,1.71051z" fill="#7c6e75" stroke-width="0"/><path d="M289.11569,173.05303c0,0 -18.16292,-0.61049 -23.81753,-0.67285c-8.56229,-0.09445 -25.77917,0.52206 -25.77917,0.52206c0,0 15.39078,-2.92489 28.98201,-3.09047c14.73635,-0.17955 58.71256,2.74996 58.71256,2.74996l-0.53779,5.38227z" fill="#75686e" stroke-width="0"/><path d="M281.35954,181.09218l-3.17042,-0.89044c0,0 9.95912,-1.40116 15.19638,-0.11125c5.23725,1.28989 13.95949,7.29217 13.95949,7.29217z" fill="#7c6e76" stroke-width="0"/><path d="M235.53434,172.46299c0,0 -30.6661,-18.53732 -31.09383,-23.22319c-0.38851,-4.25654 29.44054,5.3014 29.7476,5.22329c5.3727,-1.36646 77.61681,-1.39853 77.61681,-1.39853l25.80185,9.4013l52.55727,4.6773l5.9223,14.2348c0,0 -61.3703,-4.9575 -85.03501,-7.15827c-8.21465,-0.76395 -24.89914,-3.082 -40.24061,-3.46896c-11.8339,-0.29849 -29.86175,2.23825 -29.86175,2.23825z" fill="#ee96c3" stroke-width="0"/><path d="M105.79551,172.10509l5.31429,-19.72335c0,0 0.60032,-7.02928 8.03692,-8.59361c9.23652,-1.94294 25.86412,1.51252 27.92451,1.71839c1.58112,0.15801 -13.87933,9.0817 -13.87933,9.0817l-2.00383,20.05413z" fill="#c4b4b3" stroke-width="0"/><g stroke-width="0"><path d="M387.37612,181.8966l-1.33738,-15.35192l91.62457,15.95344l-1.33037,5.70293l-47.67648,0.11741z" fill="#ad6d8e"/><path d="M415.01637,170.2508l8.05923,-7.50863l26.85373,0.54362l-5.31789,9.92221z" fill="#8d788b"/><path d="M389.55341,168.90106l1.61423,-16.15484l31.97747,10.00706l-5.23897,6.37973z" fill="#857183"/><path d="M432.09215,169.81418l17.77472,-6.53337l27.32857,6.52217l-0.97009,6.8314z" fill="#947e92"/><path d="M385.46552,167.88104l4.14857,-12.415l1.74426,-2.9048l-1.49775,14.9892z" fill="#756474"/><path d="M388.96869,178.82533l0.4826,-12.08462l43.26313,2.66586l-2.81649,15.8556z" fill="#746373"/><path d="M429.89181,185.24599c0,0 1.00522,-6.23843 1.48577,-9.04874c0.41142,-2.40611 1.2224,-6.78957 1.2224,-6.78957l43.8906,5.29923l1.1549,8.55724z" fill="#867284"/><path d="M385.51278,167.81497l4.15985,-1.12287l-0.67481,12.14381z" fill="#6f5e6d"/><path d="M470.02657,168.97847l-19.38557,-5.31743l26.23328,6.27574l-0.71435,3.49173c0,0 -0.15599,-1.5927 -1.28826,-2.41421c-0.75741,-0.54954 -4.84514,-2.03585 -4.84514,-2.03585z" fill="#978195"/><path d="M430.49095,169.0012c0,0 8.27966,-2.65521 11.17874,-3.72637c2.11187,-0.78028 4.61484,-2.10905 4.61484,-2.10905l2.51009,0.36398l-15.66815,5.73476z" fill="#9c859a"/><path d="M416.10099,168.37568c0,0 1.58352,-2.60777 3.06137,-3.81711c1.47782,-1.20935 3.85569,-1.79102 3.85569,-1.79102l-4.4677,5.85288z" fill="#806b7d"/><path d="M451.6097,161.70047l2.6928,-5.49281l14.7535,5.22613l4.93594,6.92507z" fill="#55494f"/><path d="M448.8105,164.23484c0,0 1.15563,-0.67865 1.77139,-1.20481c0.46382,-0.39632 1.28606,-1.70564 1.28606,-1.70564l21.80545,6.19874c0,0 0.81416,0.5808 1.36508,0.96314c0.57575,0.39957 2.01822,1.38489 2.01822,1.38489z" fill="#685960"/><path d="M452.2568,160.8685l2.10621,-4.39775l13.74547,4.71686c0,0 -7.81464,-2.3212 -12.29885,-2.51332c-2.6011,-0.11145 -3.55284,2.1942 -3.55284,2.1942z" fill="#41383c"/></g><path d="M111.33222,133.18259l0.51783,-5.18251c0,0 22.3546,0.9322 44.19827,3.17208c13.01684,1.33477 26.3606,4.27373 33.28239,4.61351c15.60709,0.76609 26.47267,-2.68288 26.47267,-2.68288l-7.36738,9.95997z" fill="#ffa1d1" stroke-width="0"/><path d="M107.37929,146.81469l3.74866,-15.78811c0,0 54.31991,7.49851 72.12245,8.8345c10.5455,0.79139 24.85008,-1.55719 24.85008,-1.55719l-1.45585,14.5698c0,0 -67.16655,-6.71139 -83.35829,-8.32929c-6.65743,-0.66523 -18.58006,29.02136 -18.58006,29.02136z" fill="#ee96c3" stroke-width="0"/><path d="M278.09536,240.7459l10.58584,-12.60584c0,0 11.44612,-14.79252 21.48221,-20.68661c2.55034,-1.49779 7.81322,-2.1744 7.81322,-2.1744c0,0 -7.76336,4.23422 -10.62286,6.75383c-6.75288,5.95021 -29.25835,28.713 -29.25835,28.713z" fill="#70646b" stroke-width="0"/><path d="M380.07493,185.77231l-4.47956,-18.53904l1.34343,0.13424c0,0 1.35665,5.61459 2.07348,8.58136c0.10216,0.42271 1.33894,1.77346 1.46545,2.29705c0.21931,0.90762 -0.65303,1.06519 -0.40793,2.07965c0.68255,2.82474 1.34853,5.581 1.34853,5.581z" fill="#795467" stroke-width="0"/><path d="M207.23097,153.36623c0,0 -9.77861,-7.56205 -8.7273,-11.25071c0.62948,-2.2086 18.17925,-8.44671 18.17925,-8.44671l67.99623,8.47472l-1.93641,2.91807l28.98139,8.17041l-74.08249,19.30512c0,0 -0.22928,-5.66469 3.63932,-8.15051c3.75989,-2.41597 19.25541,-6.56083 19.25541,-6.56083c0,0 -34.04296,-3.45085 -41.28916,-4.26203c-2.4175,-0.27063 -12.01632,-0.19752 -12.01632,-0.19752z" fill="#f399c8" stroke-width="0"/><g><path d="M214.70361,135.40477l0.32198,-3.22229l175.67883,17.55409l-0.32198,3.22229z" fill="#584f54" stroke-width="0"/><path d="M384.91211,149.40725l0.27206,-2.72277l3.04012,0.30378l2.41039,2.9908z" fill="#685d63" stroke-width="0"/><g fill="#685d63" stroke-width="0"><g><g><g><path d="M378.26028,148.99299l0.296,-2.96225l3.86189,0.38587l-0.296,2.96225z"/><path d="M371.99397,148.36688l0.296,-2.96225l3.86189,0.38588l-0.296,2.96225z"/></g><g><path d="M365.96409,147.76435l0.296,-2.96226l3.86189,0.38588l-0.296,2.96225z"/><path d="M359.69774,147.13821l0.296,-2.96225l3.86188,0.38588l-0.296,2.96226z"/></g></g><g><g><path d="M353.54964,146.52388l0.296,-2.96226l3.86188,0.38588l-0.296,2.96225z"/><path d="M347.28329,145.89775l0.296,-2.96225l3.86189,0.38587l-0.296,2.96226z"/></g><g><path d="M341.25345,145.29522l0.296,-2.96225l3.86188,0.38588l-0.296,2.96225z"/><path d="M334.98717,144.66908l0.296,-2.96225l3.86188,0.38587l-0.296,2.96226z"/></g></g></g><g><g><g><path d="M334.7507,144.64548l0.296,-2.96225l3.86188,0.38588l-0.296,2.96225z"/><path d="M328.48441,144.01932l0.296,-2.96225l3.86189,0.38588l-0.296,2.96225z"/></g><g><path d="M322.45451,143.41681l0.296,-2.96226l3.86188,0.38588l-0.296,2.96225z"/><path d="M316.18819,142.79067l0.296,-2.96225l3.86188,0.38587l-0.296,2.96226z"/></g></g><g><g><path d="M310.04013,142.17637l0.296,-2.96226l3.86189,0.38588l-0.296,2.96225z"/><path d="M303.77379,141.5502l0.296,-2.96225l3.86189,0.38588l-0.296,2.96226z"/></g><g><path d="M297.74391,140.9477l0.296,-2.96225l3.86189,0.38587l-0.296,2.96226z"/><path d="M291.47759,140.32155l0.296,-2.96225l3.86189,0.38588l-0.296,2.96225z"/></g></g></g></g><g><g fill="#685d63" stroke-width="0"><g><g><path d="M285.28929,139.7032l0.296,-2.96226l3.86189,0.38588l-0.296,2.96225z"/><path d="M279.02297,139.07706l0.296,-2.96225l3.86189,0.38588l-0.296,2.96226z"/></g><g><path d="M272.9931,138.47457l0.296,-2.96225l3.86189,0.38588l-0.296,2.96226z"/><path d="M266.72683,137.84843l0.296,-2.96225l3.86189,0.38587l-0.296,2.96226z"/></g></g><g><g><path d="M260.57872,137.23409l0.296,-2.96226l3.86189,0.38588l-0.296,2.96225z"/><path d="M254.31238,136.60794l0.296,-2.96225l3.86189,0.38588l-0.296,2.96226z"/></g><g><path d="M248.28248,136.00544l0.296,-2.96225l3.86189,0.38588l-0.296,2.96226z"/><path d="M242.01616,135.37931l0.296,-2.96225l3.86189,0.38587l-0.296,2.96225z"/></g></g></g><g><g fill="#685d63" stroke-width="0"><g><path d="M241.77972,135.35567l0.296,-2.96226l3.86189,0.38588l-0.296,2.96225z"/><path d="M235.51337,134.72951l0.296,-2.96225l3.86189,0.38587l-0.296,2.96226z"/></g><g><path d="M229.48351,134.12702l0.296,-2.96225l3.86189,0.38587l-0.296,2.96226z"/><path d="M223.21721,133.50085l0.296,-2.96225l3.86189,0.38587l-0.296,2.96225z"/></g></g><g fill="none" stroke-width="1" font-family="sans-serif" font-weight="normal" font-size="12" text-anchor="start"><g/><g/></g></g></g><path d="M215.07208,132.43658l2.95451,-2.45473l3.04012,0.30378l-0.27206,2.72277z" data-paper-data="{&quot;index&quot;:null}" fill="#685d63" stroke-width="0"/></g><path d="M268.43135,170.81851l-2.56607,0.01497c0,0 1.92588,-2.38789 11.5856,-2.556c7.32351,-0.12743 27.9153,0.61213 40.23879,1.09403c5.72272,0.22377 62.83958,-3.11578 62.83958,-3.11578l5.17448,0.50267c0,0 -62.46825,4.45581 -68.18444,4.20935c-12.64006,-0.54503 -33.89695,-1.42569 -40.07265,-1.46139c-3.36179,-0.01944 -9.01523,1.31217 -9.01523,1.31217z" fill="#70475c" stroke-width="0"/><path d="M366.94986,199.78504l-5.08293,1.34712l1.88297,-18.83751c0,0 7.74804,0.82285 15.32548,1.62755c21.75257,2.31009 126.2968,13.41258 126.2968,13.41258l-0.66887,6.69394z" fill="#5a5959" stroke-width="0"/><path d="M365.87742,201.31439l1.38438,-2.88269l137.4645,5.48927l-12.88221,9.98021z" fill="#4b4a4a" stroke-width="0"/><path d="M488.59342,213.38631c0,0 -5.55637,-3.796 -8.43181,-5.51851c-1.54102,-0.92313 -7.47983,-4.01323 -7.47983,-4.01323c0,0 7.67309,3.68491 10.90686,4.96072c1.1541,0.45532 2.19828,1.30615 3.44333,1.96132c0.40145,0.21125 2.49019,-2.35294 4.55016,-3.86999c0.61571,-0.45345 1.73396,0.02466 2.28963,-0.25225c1.27385,-0.63484 1.73961,-1.68515 1.73961,-1.68515c0,0 0.24336,0.95851 -1.09022,2.04506c-0.36385,0.29647 -2.19288,0.46779 -2.55255,0.79401c-1.44141,1.30745 -2.59724,2.79899 -2.95964,3.35694c-1.01132,1.55697 1.04054,2.36662 1.04054,2.36662z" fill="#414040" stroke-width="0"/><path d="M207.15266,153.65731l4.89983,-10.66445l7.03346,0.07538c0,0 -1.20923,2.54056 -1.92189,4.03786c-0.17948,0.37712 11.75066,-0.3967 12.0342,0.30599c0.52608,1.30374 -5.39222,4.49099 -5.84042,5.43266c-0.51241,1.07653 -9.2131,0.60495 -9.2131,0.60495z" fill="#303030" stroke-width="0"/><path d="M207.04661,153.27482l4.71281,-9.84389c0,0 2.8556,1.59642 2.75766,2.57652c-0.17819,1.78331 -2.32478,7.38479 -2.32478,7.38479z" fill="#252525" stroke-width="0"/><path d="M361.58489,203.7729l0.29355,-2.93775l5.78996,-2.38855l-1.52551,2.81465c0,0 -1.21774,1.22024 -2.01936,1.66196c-0.70535,0.3887 -2.53862,0.84966 -2.53862,0.84966z" fill="#383838" stroke-width="0"/><g><g fill="#4b4b4b" stroke-width="0"><g data-paper-data="{&quot;origPos&quot;:null}"><g data-paper-data="{&quot;origPos&quot;:null}"><path d="M428.25713,211.81266l0.22597,-2.26149l3.73143,0.37284l-0.22597,2.26149z" data-paper-data="{&quot;origPos&quot;:null}"/><path d="M422.04939,211.07818l0.22597,-2.26149l3.73142,0.37284l-0.22597,2.26148z" data-paper-data="{&quot;origPos&quot;:null}"/></g><g data-paper-data="{&quot;origPos&quot;:null}"><path d="M440.6839,213.16861l0.22597,-2.26149l3.73143,0.37284l-0.22597,2.26148z" data-paper-data="{&quot;origPos&quot;:null}"/><path d="M434.47614,212.4341l0.22597,-2.26148l3.73142,0.37284l-0.22597,2.26149z" data-paper-data="{&quot;origPos&quot;:null}"/></g></g><g data-paper-data="{&quot;origPos&quot;:null,&quot;index&quot;:null}"><g data-paper-data="{&quot;origPos&quot;:null}"><path d="M459.81587,214.85189l0.22597,-2.26149l3.73143,0.37284l-0.22597,2.26148z" data-paper-data="{&quot;origPos&quot;:null}"/><path d="M466.0462,215.36021l0.22596,-2.26148l3.73143,0.37284l-0.22597,2.26147z" data-paper-data="{&quot;origPos&quot;:null}"/></g><g data-paper-data="{&quot;origPos&quot;:null}"><path d="M447.36653,213.72209l0.22597,-2.26149l3.73142,0.37284l-0.22596,2.26148z" data-paper-data="{&quot;origPos&quot;:null}"/><path d="M453.59686,214.23048l0.22597,-2.26148l3.73143,0.37284l-0.22597,2.26148z" data-paper-data="{&quot;origPos&quot;:null}"/></g></g></g><path d="M386.56687,199.36074l1.3533,-13.54367l84.05543,8.39894l-1.3533,13.54367z" data-paper-data="{&quot;origPos&quot;:null}" fill="#444444" stroke-width="0"/><path d="M386.19538,204.06936l0.47551,-4.75875l83.80839,8.37425l-0.47551,4.75876z" data-paper-data="{&quot;origPos&quot;:null}" fill="#414141" stroke-width="0"/><path d="M386.0884,205.49001l0.16084,-1.60961l83.79773,8.37318l-0.16083,1.60961z" data-paper-data="{&quot;origPos&quot;:null}" fill="#3f3f3f" stroke-width="0"/><g stroke-width="0"><g data-paper-data="{&quot;origPos&quot;:null}" fill="#5a5a5a"><g data-paper-data="{&quot;origPos&quot;:null}"><path d="M429.61622,203.74208l1.36711,-13.68186l3.55373,0.35509l-1.36711,13.68186z" data-paper-data="{&quot;origPos&quot;:null}"/></g><g data-paper-data="{&quot;origPos&quot;:null}"><path d="M435.65755,204.34573l1.36711,-13.68186l3.55374,0.35509l-1.36711,13.68186z" data-paper-data="{&quot;origPos&quot;:null}"/><path d="M441.87659,204.96715l1.36712,-13.68186l3.55373,0.35509l-1.36711,13.68186z" data-paper-data="{&quot;origPos&quot;:null}"/></g></g><g data-paper-data="{&quot;origPos&quot;:null}" fill="#5a5a5a"><g data-paper-data="{&quot;origPos&quot;:null}"><path d="M448.45099,205.62408l1.36711,-13.68186l3.55373,0.35509l-1.36711,13.68187z" data-paper-data="{&quot;origPos&quot;:null}"/><path d="M454.67002,206.24549l1.36711,-13.68186l3.55374,0.35509l-1.36712,13.68186z" data-paper-data="{&quot;origPos&quot;:null}"/></g><g data-paper-data="{&quot;origPos&quot;:null}"><path d="M460.71139,206.84915l1.36712,-13.68186l3.55373,0.35509l-1.36712,13.68186z" data-paper-data="{&quot;origPos&quot;:null}"/><path d="M466.93041,207.47056l1.36712,-13.68186l3.55373,0.35509l-1.36711,13.68186z" data-paper-data="{&quot;origPos&quot;:null}"/></g></g><path d="M433.23098,204.10326l-1.06645,1.83408l-5.21968,-0.47825l0.83536,-9.76178l3.14452,-5.643l-1.29849,13.68874z" fill="#3a3a3a"/><path d="M439.26989,204.70668l-1.06645,1.83409l-5.21969,-0.47826l0.83537,-9.76178l3.14452,-5.64299l-1.29849,13.68873z" fill="#3a3a3a"/><path d="M445.44601,205.32381l-1.06645,1.83409l-5.21969,-0.47825l0.83536,-9.76178l3.14452,-5.64299l-1.29849,13.68874z" fill="#3a3a3a"/><path d="M452.10253,205.98895l-1.06645,1.83409l-5.21969,-0.47825l0.83536,-9.76178l3.14452,-5.64299l-1.29849,13.68874z" fill="#3a3a3a"/><path d="M458.3473,206.61293l-1.06645,1.83409l-5.21969,-0.47825l0.83536,-9.76178l3.14452,-5.64299l-1.29849,13.68873z" fill="#3a3a3a"/><path d="M464.31755,207.20949l-1.06645,1.83408l-5.21968,-0.47825l0.83536,-9.76178l3.14452,-5.64299l-1.29849,13.68874z" fill="#3a3a3a"/><path d="M470.57021,207.83426l-1.06645,1.83408l-5.21969,-0.47825l0.83537,-9.76178l3.14452,-5.643l-1.29849,13.68874z" fill="#3a3a3a"/></g><g stroke-width="0"><g data-paper-data="{&quot;origPos&quot;:null}" fill="#5a5a5a"><g data-paper-data="{&quot;origPos&quot;:null}"><path d="M386.60137,199.44397l1.36712,-13.68186l3.55374,0.35509l-1.36711,13.68186z" data-paper-data="{&quot;origPos&quot;:null}"/></g><g data-paper-data="{&quot;origPos&quot;:null}"><path d="M392.64269,200.04764l1.36711,-13.68186l3.55373,0.35509l-1.36711,13.68186z" data-paper-data="{&quot;origPos&quot;:null}"/><path d="M398.86172,200.66905l1.36711,-13.68186l3.55374,0.35509l-1.36712,13.68186z" data-paper-data="{&quot;origPos&quot;:null}"/></g></g><g data-paper-data="{&quot;origPos&quot;:null}" fill="#5a5a5a"><g data-paper-data="{&quot;origPos&quot;:null}"><path d="M405.43612,201.32596l1.36712,-13.68186l3.55374,0.3551l-1.36711,13.68186z" data-paper-data="{&quot;origPos&quot;:null}"/><path d="M411.65523,201.94738l1.36711,-13.68186l3.55374,0.35509l-1.36712,13.68186z" data-paper-data="{&quot;origPos&quot;:null}"/></g><g data-paper-data="{&quot;origPos&quot;:null}"><path d="M417.69656,202.55104l1.36711,-13.68186l3.55374,0.35509l-1.36712,13.68186z" data-paper-data="{&quot;origPos&quot;:null}"/><path d="M423.91561,203.17248l1.36712,-13.68186l3.55374,0.35509l-1.36711,13.68187z" data-paper-data="{&quot;origPos&quot;:null}"/></g></g><path d="M390.21609,199.80516l-1.06645,1.83409l-2.72052,-0.22853l0.18225,-1.96576z" fill="#3a3a3a"/><path d="M396.25505,200.4086l-1.06645,1.83409l-5.21969,-0.47825l0.83537,-9.76178l3.14452,-5.64299l-1.29849,13.68874z" fill="#3a3a3a"/><path d="M402.43113,201.0257l-1.06645,1.83408l-5.21969,-0.47825l0.83536,-9.76177l3.14452,-5.643l-1.29849,13.68874z" fill="#3a3a3a"/><path d="M409.08763,201.69082l-1.06645,1.83408l-5.21969,-0.47825l0.83537,-9.76178l3.14452,-5.64299l-1.29849,13.68874z" fill="#3a3a3a"/><path d="M415.33247,202.31484l-1.06645,1.83408l-5.21968,-0.47825l0.83536,-9.76178l3.14452,-5.64299l-1.29849,13.68874z" fill="#3a3a3a"/><path d="M421.30272,202.91138l-1.06645,1.83408l-5.21968,-0.47825l0.83536,-9.76178l3.14452,-5.643l-1.29849,13.68874z" fill="#3a3a3a"/><path d="M427.5554,203.53619l-1.06645,1.83409l-5.21968,-0.47825l0.83536,-9.76178l3.14452,-5.64299l-1.29849,13.68874z" fill="#3a3a3a"/></g><g><g data-paper-data="{&quot;origPos&quot;:null}"><g data-paper-data="{&quot;origPos&quot;:null}" fill="none" stroke-width="1" font-family="sans-serif" font-weight="normal" font-size="12" text-anchor="start"/><g data-paper-data="{&quot;origPos&quot;:null}" fill="#4b4b4b" stroke-width="0"><path d="M392.18195,208.3995l0.22597,-2.26149l3.73142,0.37284l-0.22596,2.26148z" data-paper-data="{&quot;origPos&quot;:null}"/><path d="M385.97422,207.66503l0.22597,-2.26149l3.73142,0.37284l-0.22597,2.26149z" data-paper-data="{&quot;origPos&quot;:null}"/></g></g><g data-paper-data="{&quot;origPos&quot;:null,&quot;index&quot;:null}" fill="#4b4b4b" stroke-width="0"><g data-paper-data="{&quot;origPos&quot;:null}"><path d="M411.31399,210.08279l0.22597,-2.26148l3.73143,0.37284l-0.22597,2.26148z" data-paper-data="{&quot;origPos&quot;:null}"/><path d="M417.5443,210.5911l0.22597,-2.26147l3.73143,0.37284l-0.22597,2.26148z" data-paper-data="{&quot;origPos&quot;:null}"/></g><g data-paper-data="{&quot;origPos&quot;:null}"><path d="M398.86454,208.95304l0.22597,-2.26149l3.73143,0.37284l-0.22597,2.26148z" data-paper-data="{&quot;origPos&quot;:null}"/><path d="M405.09488,209.46133l0.22597,-2.26149l3.73143,0.37284l-0.22597,2.26149z" data-paper-data="{&quot;origPos&quot;:null}"/></g></g></g></g><path d="M219.92833,153.33196l1.45357,-4.09087c0,0 4.90115,-2.67342 8.42971,-2.47161c4.03383,0.23072 33.85176,3.23526 33.85176,3.23526c0,0 0.47224,1.93226 0.29855,3.13817c-0.22378,1.55365 -2.63406,4.3927 -2.63406,4.3927z" fill="#242424" stroke-width="0"/><path d="M245.06969,152.01512l0.31323,-3.1347l17.9126,1.78985l-0.31323,3.1347z" fill="#313131" stroke-width="0"/><path d="M241.60027,153.60869l0.06485,-0.649c0,0 1.16708,-0.93978 2.1851,-0.83805c0.96669,0.0966 3.09662,0.78671 5.52011,1.19307c4.61675,0.77407 10.20717,1.43484 10.20717,1.43484l-0.06485,0.649c0,0 -5.40117,-0.54175 -9.95315,-1.30877c-2.48376,-0.41853 -4.68415,-1.2102 -5.68694,-1.31041c-1.05403,-0.10532 -2.27223,0.82935 -2.27223,0.82935z" fill="#616161" stroke-width="0"/><path d="M270.16105,140.67334l12.32946,4.27366l30.16983,8.34914c0,0 0.70722,0.29596 -7.27883,-1.23388c-2.71673,-0.52043 -13.14236,-3.17921 -22.13028,-5.98959c-2.43202,-0.76045 -15.35792,-5.50997 -15.35792,-5.50997z" fill="#df8cb7" stroke-width="0"/><path d="M89.341,128.97341l0.5899,-5.90372c0,0 5.91578,-1.17057 9.70074,-0.79236c3.09862,0.30962 11.1905,4.64155 11.1905,4.64155l-1.3542,12.19654z" fill="#626061" stroke-width="0"/><path d="M203.83265,150.44903l3.52832,2.87104l12.31801,-0.09893l50.49351,5.04541l-0.10845,1.08564c0,0 -37.86314,-3.92931 -49.73369,-4.8519c-3.25903,-0.2533 -12.98204,-0.50037 -12.98204,-0.50037z" fill="#ffa6d4" stroke-width="0"/><path d="M80.11653,192.30036l0.71285,-7.13407l24.9651,-14.21847l-2.95835,13.44137l-14.81012,8.70153z" fill="#3f3d3e" stroke-width="0"/><path d="M78.99762,187.10319c0,0 2.14057,-19.53583 3.8951,-28.99154c1.98027,-10.67226 7.39137,-31.83526 7.39137,-31.83526c0,0 8.59072,0.66809 11.99139,2.66191c2.9105,1.70641 7.17199,8.57353 7.17199,8.57353l-3.33591,33.38531c0,0 -13.16,12.45138 -16.41441,14.39656c-5.00586,2.99203 -10.69949,1.80949 -10.69949,1.80949z" fill="#555354" stroke-width="0"/><path d="M89.08025,136.80736c0,0 -0.93667,-6.11634 1.3874,-8.59477c2.32408,-2.47843 6.75322,-3.05786 9.30078,-2.80329c2.03228,0.20307 6.23019,0.70165 8.64605,5.42375c2.41589,4.72208 -0.15741,11.16825 -0.15741,11.16825c0,0 -5.2342,-10.9785 -7.7356,-11.656c-3.52973,-0.956 -11.44126,6.46207 -11.44126,6.46207z" fill="#6f6b6c" stroke-width="0"/><path d="M77.06739,191.80641c0,0 4.29735,-25.76292 5.43516,-37.15001c1.18495,-11.85877 3.03164,-32.49581 3.03164,-32.49581c0,0 1.2144,-0.52481 2.25008,-0.42132c0.94701,0.09461 2.44217,0.8902 2.44217,0.8902c0,0 -2.1178,19.03904 -3.18114,29.68086c-1.23544,12.36391 -6.56519,39.83709 -6.56519,39.83709z" fill="#333232" stroke-width="0"/><path d="M76.59463,192.20502l2.55113,-14.52658c0,0 0.96158,0.98941 1.5619,1.01053c0.75799,0.02665 2.56962,-1.23699 2.56962,-1.23699l-2.7332,15.14765z" fill="#2e2d2d" stroke-width="0"/><path d="M105.83431,158.68633c-0.8118,8.12417 -5.77736,16.33911 -10.41206,18.81796c-3.84924,2.0588 -11.98265,8.03766 -11.17088,-0.08651c0.17221,-1.72352 3.38727,-13.34076 4.21403,-20.32299c1.09336,-9.23387 -0.04898,-14.35373 1.18563,-17.07608c2.23243,-4.92244 7.8754,-5.84545 10.07893,-5.62526c4.34362,0.43403 6.91613,16.1687 6.10435,24.29287z" fill="#585758" stroke-width="0"/><path d="M138.7251,176.12594l-0.41657,-1.79103c0,0 8.03465,-0.55443 14.07095,-0.43784c8.49773,0.16413 32.1062,1.32979 32.1062,1.32979l1.65964,1.45341c0,0 -25.14731,-0.8843 -33.89419,-0.98653c-2.56885,-0.03003 -13.52603,0.43224 -13.52603,0.43224z" fill="#585657" stroke-width="0"/><path d="M131.55144,188.67539l6.52534,-13.10755l7.30093,-0.22588c0,0 -2.15836,4.1193 -2.14755,4.87929c0.05151,3.63145 0.65062,27.77769 0.65062,27.77769c0,0 -1.51394,0.29134 -2.51093,-1.69317c-1.78893,-3.56081 -2.93308,-10.57132 -4.46743,-12.83776c-1.32567,-1.9582 -5.35095,-4.79263 -5.35095,-4.79263z" fill="#5a5759" stroke-width="0"/><path d="M147.08152,159.26972l4.0014,-10.98993l2.33282,0.12143l-5.12912,11.10057z" fill="#a5a0a2" stroke-width="0"/><path d="M153.94531,158.86668l0.13946,-1.3958l26.36494,2.63443l-0.13945,1.3958z" fill="#494748" stroke-width="0"/><path d="M154.16051,155.90209l0.13946,-1.3958l26.36494,2.63443l-0.13946,1.3958z" fill="#494748" stroke-width="0"/><path d="M132.59547,176.26659l2.00228,-20.03855l13.1428,-8.35089l4.85155,0.17147l-20.45189,40.98316l-5.38423,-2.55134z" fill="#dbd5d8" stroke-width="0"/><path d="M105.04361,185.48731l1.0152,-11.7481l26.60092,1.86458c0,0 0.07633,2.558 -0.13263,3.33961c-0.5208,1.94835 -3.20793,8.6522 -3.20793,8.6522z" fill="#ccc6c9" stroke-width="0"/><path d="M109.9472,174.53019l0.0314,-0.31424l22.79029,1.40446l-2.71026,0.91937c0,0 -4.31874,-0.2444 -7.01086,-0.54531c-3.68625,-0.41201 -13.10058,-1.46427 -13.10058,-1.46427z" fill="#d8d1d5" stroke-width="0"/><path d="M113.81677,171.16143l1.69025,-16.91576l16.04511,1.60327l-1.69025,16.91576z" fill="#a39999" stroke-width="0"/><path d="M104.75158,185.62874l1.12941,-11.30302c0,0 8.15807,7.23364 12.1908,9.98885c4.03274,2.75521 10.52955,3.123 10.52955,3.123z" fill="#b4afb1" stroke-width="0"/><path d="M137.62726,194.98645c0,0 2.91101,1.33655 4.01599,1.30252c0.6788,-0.02094 1.98333,-1.48741 1.98333,-1.48741l0.74819,9.19314l-0.41711,4.17433c0,0 -1.96437,0.1167 -2.98033,-2.58026c-0.83825,-2.22521 -3.35011,-10.60227 -3.35011,-10.60227z" fill="#504e4f" stroke-width="0"/><path d="M131.7991,189.25924l18.54029,-40.09888l1.71456,0.37748l-18.47903,40.5173z" fill="#858183" stroke-width="0"/><path d="M119.09854,147.03121l1.67135,-1.49169c0,0 27.34377,2.08512 39.69257,3.31903c10.71793,1.07095 31.75156,3.52742 31.75156,3.52742l0.33384,1.98442c0,0 -21.12157,-2.81999 -32.41891,-3.94883c-12.90012,-1.28899 -41.0304,-3.39033 -41.0304,-3.39033z" fill="#918b8e" stroke-width="0"/><path d="M120.23409,145.90781l2.20687,-1.73056c0,0 25.79514,2.22275 38.14392,3.45666c10.71792,1.07095 31.75156,3.52742 31.75156,3.52742l0.33383,1.98442c0,0 -21.12156,-2.81999 -32.41891,-3.94884c-12.90012,-1.28899 -40.01726,-3.28912 -40.01726,-3.28912z" fill="#a59fa2" stroke-width="0"/><path d="M182.45595,173.01467l-1.35097,-5.84591c0,0 0.33039,-1.17802 0.67294,-1.25716c0.3018,-0.06975 1.27567,0.80684 1.27567,0.80684l1.35096,5.84591c0,0 -0.36204,0.84584 -0.66453,0.91573c-0.34217,0.07907 -1.28411,-0.46539 -1.28411,-0.46539z" fill="#494242" stroke-width="0"/><path d="M142.11756,171.64584l4.46844,-9.08645l3.86646,0.38634l-4.46844,9.08645z" fill="#9c989a" stroke-width="0"/><path d="M153.40483,154.90901l1.93779,-0.77914l24.31595,2.44784l1.9136,1.14585z" fill="#757274" stroke-width="0"/><path d="M153.21918,157.71575l1.93779,-0.77915l24.31594,2.44785l1.91361,1.14584z" fill="#757274" stroke-width="0"/><path d="M102.44062,184.40996l7.48091,-57.69982l1.85305,0.76877l-6.97798,58.15322z" fill="#686666" stroke-width="0"/><path d="M102.25119,184.6627l2.2676,-16.11011l1.90007,4.02733l-1.75758,13.20072z" fill="#535252" stroke-width="0"/><path d="M135.11905,164.95828c0,0 2.34672,-2.12266 2.44085,-3.06477c0.09239,-0.9245 -1.88121,-2.53605 -1.88121,-2.53605c0,0 2.9206,0.96487 2.64903,2.63445c-0.20685,1.2717 -1.46986,3.34542 -1.66641,4.43364c-0.55889,3.09421 -1.9746,10.3367 -1.9746,10.3367z" fill="#c4bec1" stroke-width="0"/><path d="M142.94706,163.8193l2.91585,-9.95485l2.96915,-4.07929l-3.59223,9.24687z" fill="#aca7a9" stroke-width="0"/></g></g><g stroke-width="0"><path d="M263.18794,147.86488l2.87331,-3.05868c0,0 1.9413,-1.24949 2.73483,-0.89386c0.90475,0.40549 2.40388,3.19693 2.40388,3.19693l-0.94512,4.00784c0,0 -4.25928,-0.43318 -5.50603,-0.6917c-0.56205,-0.11656 -1.56085,-2.56053 -1.56085,-2.56053z" fill="#c0c0c0"/><path d="M219.52219,153.20091c0,0 0.11075,-2.88327 1.27786,-3.91119c1.46264,-1.28818 7.73241,-2.88492 7.73241,-2.88492l-1.17805,4.64298l-0.29044,2.90676z" fill="#838383"/><path d="M219.35826,153.1098l8.80842,-6.6384l37.37622,3.73468l-0.74384,7.44422z" fill="#999999"/><path d="M220.41757,152.55595l6.70995,-5.19973l33.60497,3.35785l-0.58074,5.81218c0,0 -4.06732,-0.40642 -9.29948,-0.92919c-3.40174,-0.33992 -7.19025,-1.78576 -10.77903,-2.14436c-3.84989,-0.38469 -7.45404,0.32249 -9.61644,0.10641c-4.23209,-0.42288 -10.03921,-1.00313 -10.03921,-1.00313z" fill="#d952b3"/><path d="M223.8927,152.90099l8.91436,-5.04195l12.40233,1.23926c0,0 -7.52917,1.16452 -9.97846,1.8389c-2.6002,0.71591 -6.00631,2.49657 -6.00631,2.49657z" fill="#a5899d"/><path d="M231.85347,153.58314c0,0 5.15659,-0.46171 7.60153,-0.21738c3.12401,0.31215 9.60963,1.93717 9.60963,1.93717l-9.57288,-1.29341z" fill="#adadad"/><path d="M219.4641,153.10212l7.95468,-5.99043l34.7934,3.47664l-0.06846,0.68517c0,0 -30.12678,-3.0103 -34.05382,-3.4027c-0.82139,-0.08207 -8.62579,5.23138 -8.62579,5.23138z" fill="#8a8a8a"/><path d="M265.77768,163.9967l0.96995,-9.70701l1.3636,-7.1015c0,0 1.13456,0.5856 1.62971,1.20138c0.49514,0.61578 0.76456,1.77613 0.76456,1.77613l-2.72476,14.03115z" fill="#9e9e9e"/><path d="M260.77375,159.24487c0,0 -0.69597,-2.20503 -0.674,-3.7999c0.02958,-2.14765 1.42955,-7.55344 1.42955,-7.55344l1.96416,-0.13071c0,0 0.67638,0.8633 1.16673,0.76242c0.67604,-0.1391 2.51443,-1.51989 2.51443,-1.51989l-1.77452,12.70381z" fill="#9c9c9c"/><path d="M261.16283,161.12353c-0.6687,-1.17675 -0.29294,-2.51917 -0.29294,-2.51917l5.56941,-6.67972c0,0 1.00057,4.00311 0.90944,4.91502c-0.25906,2.59263 0.27021,7.41885 0.27021,7.41885c0,0 -2.97366,-0.21298 -3.96375,-0.75272c-1.1875,-0.64734 -1.82363,-1.20552 -2.49235,-2.38228z" fill="#888888"/><path d="M263.01171,160.53017c-0.78453,-2.08809 -1.34631,-6.6295 0.89284,-10.4928c2.23916,-3.8633 4.42963,-1.50262 4.42963,-1.50262c0,0 0.56175,4.50113 0.3318,6.80253c-0.20946,2.09639 -1.65582,6.44829 -1.65582,6.44829c0,0 -3.2139,0.83268 -3.99842,-1.25542z" fill="#b4b4b4"/><path d="M267.918,153.2868c-0.14029,1.40408 -5.23263,0.97304 -5.09234,-0.43103c0.14029,-1.40408 3.72101,-6.47539 4.52941,-6.39459c0.31308,0.03127 0.94363,0.19665 1.03368,1.27161c0.14245,1.70065 -0.38478,4.69371 -0.47077,5.554z" fill="#bbbbbb"/></g><g stroke-width="0"><path d="M203.73828,150.4244c0,0 -5.33863,-5.47527 -5.15237,-7.33938c0.15205,-1.52207 6.17064,-1.04442 6.17064,-1.04442l7.50075,0.82168l-5.07591,10.32545z" fill="#f399c8"/><path d="M173.2002,149.02282c0,0 -0.7567,-2.1839 -0.39407,-3.22573c0.40021,-1.14972 2.80871,-4.53194 2.80871,-4.53194l22.94246,2.10585l8.22358,9.48782z" fill="#ee96c3"/></g></g><g stroke-width="0"><g><path d="M270.1766,138.88937l0.61462,-6.15118l47.58123,4.75439l-0.61462,6.15118z" fill="#61585b"/><path d="M270.33664,135.64566l0.32914,-3.29396l47.76215,4.77248l-0.32914,3.29395c0,0 -8.59805,-0.85914 -17.43044,-1.74167c-2.76151,-0.27593 -6.79474,0.84586 -9.34645,0.59086c-3.03427,-0.30319 -6.13763,-2.13808 -8.08399,-2.33257c-5.83625,-0.58317 -12.90127,-1.28912 -12.90127,-1.28912z" fill="#494344"/><path d="M332.51436,135.22043l-7.40466,-19.76712l20.81558,2.07994l13.6843,18.22519c0,0 -5.81723,0.78689 -9.0589,0.72254c-5.00222,-0.09932 -18.03633,-1.26052 -18.03633,-1.26052z" fill="#5e555b"/><path d="M332.17492,138.6387l0.55066,-5.51104c0,0 12.38201,-0.22313 17.32743,-0.51248c3.9248,-0.22963 6.77445,-0.52985 6.77445,-0.52985l5.22006,7.49493c0,0 -5.46469,1.05804 -9.63614,1.08738c-5.65215,0.03972 -20.23644,-2.02888 -20.23644,-2.02888z" fill="url(#color-5)"/><path d="M323.40747,115.44281l0.39733,-3.97638l19.05663,1.90417l3.22102,4.33792z" fill="url(#color-6)"/><path d="M331.59157,138.6055l0.12522,-1.253c0,0 15.53996,1.476 20.91643,1.84485c4.02027,0.27582 8.57562,-0.85371 8.57562,-0.85371l0.77067,1.22744l-8.38635,1.2328z" fill="#312c30"/><g><path d="M232.12648,118.01337l0.65543,-8.83698l93.45992,9.33865l6.48095,11.9856z" fill="#8a6672"/><path d="M247.75998,127.90242c0,0 -3.1436,-3.93785 -5.78906,-5.67105c-2.64548,-1.73322 -9.69531,-2.19903 -9.69531,-2.19903l0.31915,-2.06559c0,0 12.23474,1.50029 19.21977,2.29395c16.68627,1.89586 80.4651,9.03219 80.4651,9.03219l2.9523,6.89472z" fill="#755761"/><path d="M250.34669,130.66421l-2.75272,-2.87977l87.20102,8.22146l0.89317,3.18572z" fill="#694e57"/><path d="M232.57857,109.55418l0.4503,-4.50655l90.42376,8.35254l3.26769,6.01594c0,0 2.4096,3.59542 -2.84793,3.04466c-1.65509,-0.17338 -10.39587,-4.43203 -12.0551,-4.60585c-15.97948,-1.67396 -79.23871,-8.30073 -79.23871,-8.30073z" fill="#916b77"/><path d="M233.2696,105.07179l0.13275,-2.52384l89.47709,8.80127l0.80217,2.48434z" fill="#9e7582"/><path d="M306.9601,113.12234c-7.96342,-1.44689 -72.20418,-8.90339 -72.20418,-8.90339l87.41873,8.73502l4.03715,7.88162c0,0 -11.28825,-6.26638 -19.25169,-7.71326z" fill="#b38f9a"/></g><path d="M281.06585,133.73086l0.91213,-9.12831l20.11207,2.00961l-0.91213,9.12832z" fill="#3a3336"/><path d="M281.89016,124.59794l0.86428,-1.44373l18.44656,1.8432l0.8289,1.61287z" fill="#4b4246"/><path d="M281.25497,133.24791l0.81306,-8.13707c0,0 0.53032,5.34506 3.0651,6.71014c2.53479,1.36508 15.67188,3.3804 15.67188,3.3804z" fill="#332c30"/><path d="M324.43592,117.78047l-3.30401,-6.36003c0,0 1.08415,-0.56167 1.68181,-0.50194c0.66814,0.06677 2.13913,0.88373 2.13913,0.88373l3.30401,6.36003z" fill="#757575"/><path d="M326.9706,122.79192l-4.75009,-9.12978l3.82096,0.3818l4.75009,9.12977z" fill="#5a5a5a"/><path d="M330.55326,129.63099l-4.75009,-9.12977l3.82095,0.3818l4.75009,9.12978z" fill="#505050"/><path d="M334.2564,136.714c-0.8113,-1.55933 -3.97688,-7.64365 -3.97688,-7.64365l3.82095,0.38181l5.55438,10.93294c0,0 -2.09886,0.32844 -3.04218,0.21928c-0.73582,-0.08514 -1.99854,-3.20283 -2.35628,-3.89042z" fill="#3b3b3b"/><path d="M230.33369,120.44532l1.85676,-18.58221l3.16521,0.31627l-1.85676,18.58221z" fill="#443e42"/><path d="M211.39209,120.15957l-0.09293,-5.96682l20.12834,2.01123l-0.5894,5.89863z" fill="url(#color-7)"/><path d="M211.23648,114.82025l1.07847,-10.79324l20.12834,2.01123l-1.07848,10.79325z" fill="#5e555b"/><path d="M212.3024,104.15268l1.20986,-4.06205l19.33229,1.9317l-0.41383,4.1416z" fill="url(#color-8)"/><path d="M282.64887,107.19707l0.60981,-6.10292l14.84174,2.55498l4.13092,5.14734z" fill="#5e555b"/><path d="M302.196,109.15026l-4.10441,-5.4127c0,0 2.93259,0.98709 5.05051,2.20196c2.11795,1.21485 5.5106,3.85589 5.5106,3.85589z" fill="#776b73"/><path d="M279.52671,108.04641l3.30789,-0.92011l25.49968,2.27996l3.47613,1.86599z" fill="#6d6269"/></g><g><path d="M282.89996,129.92425c0.12416,-1.24266 0.74698,-2.34287 1.23603,-3.32871c0.68144,-1.37372 1.39907,-2.49573 2.77056,-3.2091c0.83774,-0.43573 2.00808,-0.71013 3.01604,-0.85097c0.66667,-0.09313 1.70064,-0.39191 2.40019,-0.32199c1.5858,0.15845 1.91829,0.27382 3.01302,0.88169c0.65946,0.36618 2.24611,0.97606 2.71162,1.69806c0.394,0.61108 0.77312,1.60222 1.04556,2.31246c0.46555,1.21377 1.07866,3.14883 0.9406,4.53058c-0.05835,0.58392 -0.68093,1.86682 -0.78161,2.37482c-0.31959,1.61266 -0.371,2.11967 -1.68818,3.09704c-0.80058,0.59403 -2.35483,0.98929 -3.37449,1.29942c-1.056,0.32119 -2.41162,1.0561 -3.57851,0.93952c-0.7876,-0.0787 -2.1554,-0.75302 -2.90485,-0.96479c-1.62594,-0.45943 -2.49627,-0.7217 -3.40729,-1.95858c-0.78125,-1.06066 -0.88169,-2.67699 -1.10913,-4.06408c-0.11947,-0.72872 -0.36643,-1.66557 -0.28953,-2.43537z" fill="#3a3a3a"/><path d="M283.63915,129.87889c0.11363,-1.13714 0.68357,-2.14395 1.13108,-3.04608c0.62359,-1.25709 1.28025,-2.28383 2.53532,-2.93663c0.7666,-0.39874 1.8376,-0.64984 2.75995,-0.77872c0.61006,-0.08524 1.55627,-0.35861 2.19636,-0.29465c1.45117,0.14501 1.75543,0.25056 2.75721,0.80683c0.60344,0.33508 2.0554,0.89319 2.48142,1.55387c0.36054,0.55922 0.70749,1.46623 0.95678,2.11613c0.42603,1.11072 0.98706,2.88149 0.86075,4.14589c-0.0534,0.53433 -0.62312,1.70832 -0.71525,2.17317c-0.29246,1.47574 -0.3395,1.93971 -1.54485,2.83408c-0.73263,0.54359 -2.1549,0.90526 -3.08798,1.18907c-0.96634,0.29391 -2.20686,0.96645 -3.27467,0.85976c-0.72072,-0.07201 -1.97238,-0.68909 -2.65821,-0.88284c-1.4879,-0.42041 -2.28432,-0.66041 -3.11801,-1.79228c-0.71491,-0.97063 -0.80681,-2.4497 -1.01494,-3.71903c-0.10933,-0.66684 -0.33531,-1.52416 -0.26494,-2.22857z" fill="#5a5a5a"/><path d="M296.22106,126.58418c-1.7976,-2.57728 -6.84591,-3.28331 -6.84591,-3.28331c0,0 1.98633,-0.34422 3.96597,-0.13944c1.60354,0.16586 3.13188,0.68485 4.15632,2.09469c1.02527,1.41098 1.26959,2.9275 1.41623,4.34458c0.28752,2.77833 -0.38608,5.11575 -0.38608,5.11575c0,0 -0.50893,-5.55498 -2.30655,-8.13224z" fill="#6d6d6d"/><path d="M290.42153,131.04853c0.05723,-0.57286 0.56803,-0.99085 1.1409,-0.93362c0.57286,0.05723 0.99085,0.56803 0.93362,1.14091c-0.05723,0.57286 -0.56803,0.99085 -1.14091,0.93361c-0.57286,-0.05723 -0.99085,-0.56803 -0.93361,-1.14091z" fill="#272727"/><path d="M290.3293,131.17683c0.0525,-0.52543 0.52099,-0.9088 1.0464,-0.8563c0.52543,0.0525 0.9088,0.52099 0.8563,1.0464c-0.0525,0.52543 -0.52099,0.9088 -1.04639,0.8563c-0.52543,-0.0525 -0.9088,-0.52099 -0.8563,-1.04639z" fill="#131313"/></g></g></g></g></g><path d="M190.97641,231.68456c0.15756,-1.57682 0.15831,-44.41502 0.81776,-46.03261c0.89038,-2.18408 9.19521,0.00311 12.2946,-1.20249c9.49234,-3.6924 19.7128,-7.28108 19.7128,-7.28108c0,0 13.94092,1.97636 18.15643,2.3976c3.15242,0.31501 65.01155,-2.03651 64.72305,8.30763c-0.3913,14.03056 -42.53826,-1.95758 -43.74439,10.11295c-0.30534,3.0557 2.07301,3.48982 1.19719,6.5652c-0.21022,0.73811 -3.06519,5.65752 -3.45507,7.30295c-0.61889,2.61196 2.26199,6.92227 -1.33992,9.67706c-2.87123,2.19596 -1.44765,7.38004 -2.2041,8.52613c-5.21292,7.89777 -13.12225,3.28411 -22.09046,2.388c-10.63308,-1.06246 -26.47632,1.09633 -35.69039,-1.06785c-3.97736,-0.93423 -8.83611,4.89646 -8.37746,0.30658z" fill="#86c8f5" stroke-width="0"/><g stroke-width="0"><g><path d="M185.14008,248.64772l0.55499,-5.55427c0,0 2.21254,0.4 3.1587,-0.47393c1.33674,-1.23467 4.3092,-6.1031 4.3092,-6.1031l-0.17416,8.11667c0,0 -3.38291,2.87639 -5.00295,3.61642c-1.16966,0.53427 -2.84576,0.39821 -2.84576,0.39821z" fill="#4d484c"/><g><g><path d="M145.73461,233.30374l4.63108,-5.12702c0,0 16.71341,-7.32332 23.67783,-10.53834c5.35725,-2.47309 13.92601,-6.59227 13.92601,-6.59227l0.00206,26.47799z" fill="#eb59c1"/><path d="M148.29711,222.38025l2.32804,-29.18714c0,0 18.16216,10.61953 24.71521,14.24577c4.75529,2.63143 10.85301,12.54992 10.85301,12.54992l-6.43703,5.53496z" fill="#dd54b6"/><path d="M148.5288,205.33996l3.31832,-30.26501c0,0 11.13596,14.92698 15.66759,16.14928c6.71496,1.81123 19.75422,0.33484 19.75422,0.33484l-2.59045,25.92477z" fill="#ff77d8"/><path d="M152.13978,192.75608l1.39709,-13.98191l33.49807,0.40519l0.64217,17.12763z" fill="#ee51c1"/></g><g><g><path d="M144.15483,222.58785l-0.95858,-41.10552l8.35971,0.83533l0.95858,41.10552z" fill="#a59da1"/><path d="M143.14221,181.66843c0,0 -0.32454,-4.54698 1.59183,-5.64365c1.91638,-1.09671 6.99857,-0.84336 6.99857,-0.84336l-0.21703,7.32372z" fill="#b9b0b5"/><path d="M144.86766,233.35714l-0.65171,-10.79111l8.31976,0.83133l0.65171,10.79111z" fill="#8b8488"/></g><g><path d="M184.48506,223.20403l-0.95858,-41.10551l4.5167,0.45132l0.95859,41.10551z" fill="#a59da1"/><path d="M183.58601,183.10677l-0.17028,-6.49029c0,0 2.98783,-0.38525 3.92383,0.86372c0.936,1.24895 0.66322,5.25711 0.66322,5.25711z" fill="#b9b0b5"/><path d="M185.18543,233.97218l-0.65171,-10.79111l4.48922,0.44855l0.65172,10.79111z" fill="#8b8488"/></g><path d="M144.96946,241.98602c0,0 -2.98125,-3.05431 -3.22936,-4.57112c-0.27618,-1.68844 1.64757,-5.09993 1.64757,-5.09993l47.8681,0.3663c0,0 1.77209,2.52256 2.04373,4.04348c0.38073,2.13175 -4.29669,6.60342 -4.29669,6.60342z" fill="#494547"/><path d="M151.66533,179.12541c0,0 -2.2485,-0.79482 -2.61998,-1.40908c-0.40793,-0.67454 1.07505,-2.61933 1.07505,-2.61933c0,0 12.08497,0.19055 17.36799,0.39469c6.15882,0.23797 16.55852,1.0924 16.55852,1.0924c0,0 0.40677,1.27065 0.26246,1.8566c-0.13976,0.56746 -0.71373,1.64554 -0.71373,1.64554z" fill="#c2b8bd"/><path d="M145.44424,240.80665c0,0 -0.94677,-2.944 -1.02106,-4.63539c-0.06168,-1.40366 0.48671,-3.61747 0.48671,-3.61747l45.027,0.42216c0,0 1.70486,3.339 1.53953,4.99345c-0.17758,1.77733 -2.45159,4.13412 -2.45159,4.13412z" fill="#6f696b"/><path d="M155.9714,247.3153l0.555,-5.55426l29.80539,1.36542l-0.55499,5.55426z" fill="#333032"/><path d="M144.4836,246.28946c-1.04081,-0.75514 -2.56677,-2.38066 -2.56677,-2.38066l-0.18748,-6.87204c0,0 2.23552,2.50708 3.30152,3.98185c0.75453,1.04387 11.55375,0.63622 11.55375,0.63622l-0.55499,5.55426c0,0 -10.50527,-0.16444 -11.54606,-0.9196z" data-paper-data="{&quot;index&quot;:null}" fill="#444043"/><g><path d="M149.48607,193.95039c0,0 -2.10044,-4.97563 -1.95339,-6.71181c0.10182,-1.20202 2.75099,-2.70527 2.75099,-2.70527l35.18894,0.47665c0,0 1.27523,3.26684 1.14377,4.81887c-0.13434,1.58626 -1.94138,4.59822 -1.94138,4.59822z" fill="#979797"/><path d="M149.64525,192.89491c0,0 -2.17545,-4.43552 -2.0565,-5.96909c0.08236,-1.06181 2.70154,-2.34928 2.70154,-2.34928l35.11832,0.98511c0,0 1.32468,2.91052 1.21838,4.28151c-0.10864,1.40117 -1.86341,4.03691 -1.86341,4.03691z" fill="#a2a2a2"/></g><g><path d="M150.21057,210.64481c0,0 -2.10044,-4.97563 -1.95339,-6.71181c0.10182,-1.20202 2.75098,-2.70528 2.75098,-2.70528l35.18894,0.47666c0,0 1.27523,3.26683 1.14378,4.81886c-0.13434,1.58626 -1.94138,4.59821 -1.94138,4.59821z" fill="#979797"/><path d="M150.36972,209.58934c0,0 -2.17543,-4.43551 -2.05649,-5.96909c0.08235,-1.0618 2.70154,-2.34927 2.70154,-2.34927l35.11832,0.98512c0,0 1.32468,2.91052 1.21838,4.28151c-0.10865,1.40117 -1.86342,4.0369 -1.86342,4.0369z" fill="#a2a2a2"/></g><g><path d="M150.99231,227.84265c0,0 -2.10044,-4.97563 -1.95339,-6.71181c0.10182,-1.20202 2.75098,-2.70527 2.75098,-2.70527l35.18894,0.47665c0,0 1.27523,3.26684 1.14377,4.81887c-0.13434,1.58626 -1.94138,4.59821 -1.94138,4.59821z" fill="#7a7a7a"/><path d="M151.15145,226.78721c0,0 -2.17545,-4.43552 -2.0565,-5.9691c0.08235,-1.0618 2.70154,-2.34926 2.70154,-2.34926l35.11833,0.98511c0,0 1.32466,2.91052 1.21838,4.28151c-0.10865,1.40117 -1.86342,4.03692 -1.86342,4.03692z" fill="#929292"/></g></g></g></g><path d="M144.37447,226.58336c0,0 -0.21296,-1.74627 -0.28654,-4.07575c-0.21595,-6.83912 -1.13623,-40.98585 -1.13623,-40.98585l2.72444,4.59664l0.45336,29.61657z" fill="#777275"/></g></g></g></g></svg>