<svg version="1.1" xmlns="http://www.w3.org/2000/svg" xmlns:xlink="http://www.w3.org/1999/xlink" width="461.51992" height="188.63916" viewBox="0,0,461.51992,188.63916"><defs><linearGradient x1="433.17211" y1="150.01835" x2="434.22512" y2="154.71334" gradientUnits="userSpaceOnUse" id="color-1"><stop offset="0" stop-color="#1f1d20"/><stop offset="1" stop-color="#202022"/></linearGradient><linearGradient x1="432.53856" y1="145.18478" x2="433.7501" y2="150.58681" gradientUnits="userSpaceOnUse" id="color-2"><stop offset="0" stop-color="#302d31"/><stop offset="1" stop-color="#1f1e20"/></linearGradient><linearGradient x1="116.38861" y1="265.35372" x2="117.13044" y2="268.66156" gradientUnits="userSpaceOnUse" id="color-3"><stop offset="0" stop-color="#585758"/><stop offset="1" stop-color="#575758"/></linearGradient><linearGradient x1="105.7988" y1="278.05762" x2="106.38124" y2="280.65446" gradientUnits="userSpaceOnUse" id="color-4"><stop offset="0" stop-color="#363536"/><stop offset="1" stop-color="#353536"/></linearGradient><linearGradient x1="225.38156" y1="156.13122" x2="226.59361" y2="161.53538" gradientUnits="userSpaceOnUse" id="color-5"><stop offset="0" stop-color="#5e555b"/><stop offset="1" stop-color="#2b2629"/></linearGradient><linearGradient x1="211.33777" y1="138.10053" x2="212.21226" y2="141.99985" gradientUnits="userSpaceOnUse" id="color-6"><stop offset="0" stop-color="#72676e"/><stop offset="1" stop-color="#5e555b"/></linearGradient><linearGradient x1="104.16065" y1="176.38183" x2="105.45789" y2="182.16616" gradientUnits="userSpaceOnUse" id="color-7"><stop offset="0" stop-color="#5e555b"/><stop offset="1" stop-color="#4d454a"/></linearGradient><linearGradient x1="101.04167" y1="162.47501" x2="101.95251" y2="166.53638" gradientUnits="userSpaceOnUse" id="color-8"><stop offset="0" stop-color="#74686f"/><stop offset="1" stop-color="#5e555b"/></linearGradient></defs><g transform="translate(22.57249,-136.40287)"><g data-paper-data="{&quot;isPaintingLayer&quot;:true}" fill-rule="nonzero" stroke="none" stroke-linecap="butt" stroke-linejoin="miter" stroke-miterlimit="10" stroke-dasharray="" stroke-dashoffset="0" style="mix-blend-mode: normal"><g><path d="M357.79019,194.80218c1.95693,8.44989 -1.84122,14.65128 -21.48176,19.19991c-7.28511,1.68717 -20.18565,3.0601 -25.73962,5.06989c-4.12772,1.49369 -7.2405,4.48725 -10.34809,3.27154c-3.98388,-1.55853 -8.34389,-20.9253 -9.03548,-23.91151c-1.95693,-8.44989 7.85868,-6.14501 27.49924,-10.69367c19.64057,-4.54864 37.14879,-1.38604 39.10574,7.06383z" fill="#86c8f5" stroke-width="0"/><g stroke-width="0"><path d="M173.00758,237.29154l-13.34037,-12.73458l24.82638,-6.17281c0,0 0.20375,5.92791 0.59923,8.60481c0.38256,2.58941 1.73629,7.20277 1.73629,7.20277z" fill="#7f7d7e"/><path d="M173.14666,237.462l-4.77836,-4.67453c0,0 3.07938,2.95275 6.37158,2.84436c2.37071,-0.07806 4.14332,-0.79323 6.82999,-1.06701c2.68665,-0.27379 5.20638,-0.15954 5.20638,-0.15954z" fill="#6c6a6b"/></g><g><g><path d="M431.30653,155.36791l-3.06205,-4.24437c0,0 6.20906,0.3065 8.93886,0.60931c2.72983,0.30282 1.47724,1.74806 1.47724,1.74806z" fill="url(#color-1)" stroke-width="0"/><path d="M436.0799,144.59509c0,0 1.95316,1.94754 -0.38582,3.3872c-2.33902,1.43966 -4.90406,3.26833 -4.90406,3.26833l-2.15865,-5.18962z" data-paper-data="{&quot;index&quot;:null}" fill="url(#color-2)" stroke-width="0"/><path d="M421.92076,157.46816l-0.45917,-2.0475l14.41451,-3.23283c0,0 1.4009,0.49984 1.95707,0.75046c0.49994,0.22531 -0.51215,1.07598 -0.51215,1.07598z" fill="#444444" stroke-width="NaN"/><path d="M421.52582,155.55327l-1.54562,-1.45083l12.30988,-2.76079l3.67108,0.85954c0,0 -4.06354,1.15526 -6.30868,1.67662c-2.53204,0.58795 -8.12668,1.67546 -8.12668,1.67546z" fill="#535353" stroke-width="0"/><path d="M419.90074,154.26039l-0.45692,-0.55341l11.19565,-2.5109l1.75966,0.14414z" fill="#363636" stroke-width="0"/><path d="M421.92076,157.46816l-0.24914,-1.11077c0,0 6.39647,-0.96967 9.20642,-1.59993c2.38118,-0.53406 6.58111,-1.94087 6.58111,-1.94087c0,0 0.94433,0.26194 1.23006,0.40577c0.24105,0.12133 -0.13908,0.51623 -0.13908,0.51623c0,0 -4.52952,1.43034 -6.78718,1.93673c-3.04589,0.6831 -9.84222,1.79282 -9.84222,1.79282z" fill="#3a3a3a" stroke-width="NaN"/><path d="M419.76091,153.65456l-0.7335,-0.74114l13.31095,-2.98534l-1.57665,1.29405z" fill="#242424" stroke-width="0"/><path d="M418.28038,153.27488l-0.36201,-1.61421c0,0 7.85203,-1.97236 10.77517,-2.62795c1.99154,-0.44661 5.06779,-0.92525 5.06779,-0.92525l-1.44377,1.85011z" fill="#3a3a3a" stroke-width="0"/><path d="M417.8012,151.73058l-0.44697,-1.99305c0,0 7.39557,-1.99674 10.62951,-2.72201c2.79845,-0.62763 7.65732,-1.37922 7.65732,-1.37922l-1.9126,2.52225c0,0 -3.58439,0.7194 -5.77435,1.21054c-2.91106,0.65289 -10.1529,2.36155 -10.1529,2.36155z" fill="#444444" stroke-width="0"/><path d="M417.33074,149.82995l-0.18624,-0.83041c0,0 7.65587,-1.84383 11.16593,-2.63103c2.44409,-0.54814 7.87932,-1.64038 7.87932,-1.64038l-0.65783,1.01971c0,0 -4.99469,0.82435 -7.88799,1.47326c-3.18771,0.71492 -10.31317,2.60883 -10.31317,2.60883z" fill="#535353" stroke-width="0"/><path d="M417.03672,149.11096l-0.0745,-0.3322c0,0 7.37929,-2.1746 10.75577,-2.93187c2.91925,-0.6547 8.33162,-1.34891 8.33162,-1.34891l0.1112,0.32395c0,0 -5.89934,1.15405 -9.06572,1.86414c-3.20777,0.71941 -10.05833,2.4249 -10.05833,2.4249z" fill="#4e4e4e" stroke-width="0"/></g><g stroke-width="0"><g><g><g><path d="M416.10208,158.27303l-7.35147,-11.84188l0.16293,-1.80064c0,0 4.09727,2.39054 5.54224,4.61868c0.7845,1.20967 3.06556,8.70552 3.06556,8.70552z" fill="#383638"/><path d="M416.97645,157.36835c0,0 -0.07646,-0.60767 -1.22709,-2.86549c-1.25479,-2.46223 -3.40945,-5.70641 -4.02809,-6.6683c-1.38867,-2.15916 -2.15382,-2.12128 -2.15382,-2.12128l4.55629,-1.61812l7.82014,12.15914z" fill="#555355"/><path d="M409.64867,145.78255l-0.83828,-1.07905c0,0 1.79615,-1.22275 2.73447,-1.43317c0.87924,-0.19719 2.14615,0.26404 2.14615,0.26404l0.85416,1.15004z" fill="#686668"/></g><path d="M410.56688,159.51446l-7.35146,-11.84186l-0.15548,-1.70859c0,0 4.41567,2.29841 5.86062,4.52662c0.78449,1.20966 3.06557,8.70552 3.06557,8.70552z" fill="#383638"/><path d="M411.44123,158.60975c0,0 -0.07647,-0.60768 -1.22708,-2.8655c-1.25479,-2.46223 -3.40944,-5.70641 -4.02808,-6.6683c-1.38867,-2.15916 -2.15383,-2.12128 -2.15383,-2.12128l3.71508,-1.94188c0,0 1.27573,0.9993 1.699,1.65739c1.20594,1.875 6.96244,10.82544 6.96244,10.82544z" fill="#555355"/><path d="M404.11341,147.02393l-1.0512,-1.03131c0,0 2.00904,-1.27046 2.94737,-1.48087c0.87924,-0.19719 1.86227,0.32764 1.86227,0.32764l0.97618,1.12266z" fill="#686668"/><path d="M417.55749,156.21959c-0.17935,-0.79967 0.32352,-1.59327 1.12318,-1.77267c0.79969,-0.17935 1.59327,0.32352 1.77266,1.12319c0.17935,0.79967 -0.32351,1.59328 -1.12316,1.77267c-0.79969,0.17935 -1.59326,-0.32353 -1.77267,-1.12317z" fill="#312f31"/><path d="M417.5562,153.21783l-3.16471,-4.97455l1.52141,-0.48812l3.17882,5.03748z" fill="#444144"/></g><path d="M371.10088,163.27588l-6.04205,-9.73733l29.41549,-5.39146l1.65198,9.51625z" fill="#444444"/><path d="M382.57847,156.68898c0,0 0.50637,-0.64848 0.96934,-1.88462c0.42333,-1.13024 0.7929,-2.83024 1.06673,-3.36691c0.57817,-1.87857 3.00123,-1.94357 3.00123,-1.94357l-0.81292,0.85162l-3.10923,6.0934z" fill="#292929"/><path d="M387.61424,166.35057l-8.75738,-9.27992c0,0 3.53018,-0.24724 4.96294,-1.64374c1.11335,-1.08525 0.44551,-3.63274 1.92318,-4.25206c4.23946,-1.77674 16.70699,-5.01758 16.70699,-5.01758c0,0 4.72522,6.26269 6.26179,8.87689c1.06077,1.80472 2.43224,6.03923 2.43224,6.03923z" fill="#4a464a"/><path d="M388.78245,152.65439c-4.58945,0.37747 -3.48203,-1.26877 -3.48203,-1.26877c0,0 0.4885,-1.44417 2.27859,-1.99538c4.39279,-1.35279 12.95261,-2.68129 14.62753,-3.08324c0.78988,-0.18958 0.49046,0.60308 0.49046,0.60308c0,0 -0.93115,2.65406 -2.38858,3.24131c-1.45748,0.58727 -6.93647,2.12554 -11.52593,2.50299z" fill="#5e595e"/></g><g><path d="M377.53535,175.34966l-8.96116,-16.37124l18.51212,-3.85839l5.63036,3.17312l5.9298,-1.43089l5.83252,12.44463z" fill="#4d4846"/><path d="M382.19689,174.7009l18.10026,-13.68429l21.72759,-5.1214c0,0 2.19558,3.79437 2.63151,5.08482c0.22223,0.65796 0.49307,2.90662 0.49307,2.90662z" fill="#423d3b"/><path d="M376.65681,167.42596l-5.25713,-8.9117l0.80062,-0.17955l5.25714,8.9117z" fill="#363332"/><path d="M382.59287,173.79059l-0.26641,-1.18789c0,0 4.57984,-3.63581 13.42496,-5.61961c1.17525,-0.26353 5.87757,1.29047 7.06214,1.02483c7.51543,-1.68557 14.87156,-3.33534 17.67012,-3.96298c2.27916,-0.51116 4.32207,-2.30163 4.32207,-2.30163l0.55085,2.45637z" fill="#312e2c"/><path d="M382.11723,160.84057l-2.71137,-4.12195l8.10633,-1.81806l5.02188,3.4049l6.19614,-1.19074l-6.9793,3.56244z" fill="#585350"/><path d="M374.39748,169.7721l-0.24688,-1.10087c0,0 7.03157,-5.41359 9.83908,-6.04324c4.23127,-0.94896 15.91243,-3.56874 15.91243,-3.56874l0.24689,1.10087c0,0 -11.88143,2.66471 -16.11256,3.61368c-2.74981,0.61669 -9.63888,5.99836 -9.63888,5.99836z" fill="#2b2827"/></g></g></g><g><path d="M57.2107,284.62277c1.01657,2.06152 1.28137,4.65596 0.27459,5.1524c-1.00675,0.49645 -2.90384,-1.29305 -3.92043,-3.35457c-1.01657,-2.06152 -4.9746,-9.95708 -3.96784,-10.4536c1.00675,-0.49645 6.59714,6.59422 7.61363,8.65575z" fill="#615e5f" stroke-width="0"/><g><path d="M91.24539,246.31725c-0.64172,-0.39684 -3.21284,-1.16514 -3.21284,-1.16514l9.04929,-4.98107l-4.2789,8.33852c0,0 -0.9158,-1.79549 -1.55752,-2.1923z" fill="#756a6a" stroke-width="0"/><path d="M82.06621,246.63657l-3.00539,-13.40041l16.80021,-9.78029l4.28927,19.12493z" fill="#8a7c7c" stroke-width="0"/><path d="M44.19284,260.71303l2.53676,-19.15274l34.05743,-7.77486l7.1954,11.36757c0,0 -22.08777,6.56893 -29.39254,9.16459c-3.03229,1.07748 -14.39707,6.39549 -14.39707,6.39549z" fill="#7c787a" stroke-width="0"/><path d="M47.3714,243.88093l-0.46874,-1.41315c0,0 25.29582,-5.67325 33.24814,-7.45678c4.44933,-0.99786 14.36262,-9.74978 14.36262,-9.74978l0.35662,1.59014c0,0 -9.63051,8.66873 -13.9368,9.61952c-7.89613,1.74336 -33.56189,7.4101 -33.56189,7.4101z" fill="#535353" stroke-width="0"/><path d="M13.0458,268.42395l-4.41046,-19.66547c0,0 2.87756,-7.87472 9.44375,-11.70038c8.15542,-4.75159 25.02547,-6.70566 27.04595,-7.15879c1.55049,-0.34774 -10.31514,12.98889 -10.31514,12.98889l4.41048,19.66549z" fill="#8d898b" stroke-width="0"/><path d="M171.70327,185.55188l0.87567,-3.41875l104.98916,-23.40011l3.22707,14.38881c0,0 -36.46101,10.06867 -48.47663,12.33705c-5.96733,1.12652 -60.61523,0.09299 -60.61523,0.09299z" fill="#c98cac" stroke-width="0"/><path d="M172.66713,288.8448l-7.26454,-11.62852c0,0 6.29143,4.57354 9.30571,5.0011c1.92046,0.27242 6.12775,-0.27992 11.55699,-3.99551c4.37076,-2.9912 8.20818,-9.49954 8.20818,-9.49954l-8.14207,17.05791z" fill="#a08e97" stroke-width="0"/><path d="M250.69638,223.26329l-7.45057,-22.53722l17.79085,-5.42763l4.63873,20.68321c0,0 -5.86609,3.07747 -8.41135,4.36388c-1.17196,0.59235 -6.56761,2.91774 -6.56761,2.91774z" fill="#96858d" stroke-width="0"/><path d="M171.69376,292.90201l-1.21242,-5.4059c0,0 12.22352,-0.62149 16.048,-4.67812c1.86129,-1.97422 13.72368,-26.08715 20.23669,-39.46882c2.54167,-5.22217 4.26866,-8.81002 4.26866,-8.81002c0,0 2.45218,-4.4169 1.82539,-7.23011c-0.31534,-1.41519 -0.77124,-5.59544 -2.08845,-7.66878c-1.32898,-2.09188 -3.51791,-2.07068 -3.51791,-2.07068l-7.72425,-12.17711l19.36713,-4.19634l2.97639,26.5659l4.22774,1.67736c0,0 -8.01037,7.94567 -11.44251,13.79425c-5.37017,9.15082 -21.54309,43.91772 -21.54309,43.91772z" fill="#918189" stroke-width="0"/><path d="M228.15526,228.68024l-5.07548,-28.17611l13.50208,-2.74556l12.73898,9.44328l1.38586,16.42076z" fill="#96858d" stroke-width="0"/><path d="M224.14503,231.47473l-3.35571,-3.49615l-2.27821,-26.32957l4.93818,-1.19432l5.59665,28.04164z" fill="#8f8187" stroke-width="0"/><path d="M249.525,223.99366c0,0 1.22602,-7.10765 -1.27798,-12.09129c-1.44182,-2.86955 -6.66471,-3.71685 -7.54863,-5.47596c-1.68842,-3.3604 -4.30043,-8.55902 -4.30043,-8.55902l8.61973,2.53917c0,0 4.90226,6.29349 6.41808,10.32089c1.01843,2.70581 0.96602,9.25196 0.63057,11.9906c-0.02829,0.23085 -1.19417,0.407 -1.20835,0.57961c-0.0347,0.42166 0.95676,0.43639 0.95676,0.43639z" fill="#86787e" stroke-width="0"/><path d="M245.13645,201.91713c0,0 -3.8814,-3.18267 -8.66303,-3.10604c-5.41333,0.08674 -22.15773,3.60017 -22.15773,3.60017l150.81044,-48.35719l5.36832,8.32889l10.16438,9.13983c0,0 -98.91152,19.5481 -119.00081,24.05367c-6.55545,1.47025 -16.52154,6.3407 -16.52154,6.3407z" fill="#df8db7" stroke-width="0"/><path d="M105.00368,281.80033l-12.61901,-34.34068c0,0 0.82166,-4.02811 1.26346,-4.34822c4.87129,-3.52944 33.80033,-20.93395 39.17037,-21.84493c5.88261,-0.99796 -6.25877,13.94996 -6.25877,13.94996c0,0 -13.61717,5.13024 -15.16333,9.83247c-2.0992,6.38421 6.42833,22.25635 6.42833,22.25635z" fill="#c77da3" stroke-width="0"/><path d="M169.11897,236.74846l-2.20683,-1.66263c0,0 4.51656,-9.8333 6.38942,-12.60305c1.93353,-2.85946 5.03553,-4.29316 5.03553,-4.29316l6.29541,0.94745c0,0 -4.47754,0.48914 -6.40844,2.6811c-1.65757,1.88171 -4.645,5.70687 -6.70062,9.33701c-1.49529,2.64067 -2.40446,5.59317 -2.40446,5.59317z" fill="#414041" stroke-width="0"/><path d="M46.83077,242.92986l2.12551,-12.45659l47.44971,-10.64181c0,0 -1.85323,4.98186 -4.46697,7.58297c-2.56528,2.55294 -11.07268,7.88206 -11.07268,7.88206z" fill="#979395" stroke-width="0"/><path d="M47.36125,241.63956l1.34492,-12.28157l47.44972,-10.64181c0,0 -1.85324,4.98185 -4.46698,7.58298c-2.56528,2.55294 -11.07269,7.88206 -11.07269,7.88206z" fill="#bdb7ba" stroke-width="0"/><path d="M251.94496,223.77958l-1.93988,-0.09116l15.52686,-7.76079c0,0 -3.02382,2.78667 -5.27319,4.10784c-2.24933,1.32123 -8.31379,3.74412 -8.31379,3.74412z" fill="#887980" stroke-width="0"/><path d="M107.53077,281.70956c0,0 -4.57375,-9.6997 -7.61428,-17.76831c-3.05536,-8.10804 -5.89602,-15.71755 -6.70202,-19.21051c-0.13654,-0.59177 -0.70162,-10.6424 -0.32807,-11.26052c2.01634,-3.33657 11.26513,2.52512 16.45287,0.23066c7.68129,-3.39732 26.21412,-8.08062 26.21412,-8.08062l-7.0866,7.03195c0,0 -18.35116,7.05199 -19.56061,12.58811c-1.63586,7.48813 10.31919,26.19817 10.31919,26.19817z" fill="#d486ae" stroke-width="0"/><path d="M107.86481,278.02837c0,0 -15.44398,-38.4232 -16.35446,-48.54627c-0.42602,-4.73648 -5.69267,-12.88943 -5.69267,-12.88943l50.96415,-4.28822l4.90615,15.36889c0,0 -31.94254,3.99387 -36.76601,11.50547c-3.21984,5.01425 9.60486,31.08265 9.60486,31.08265z" fill="#e490bb" stroke-width="0"/><g stroke-width="0"><path d="M229.14797,186.2689l-1.81085,-8.07435l9.13313,-2.04832l1.81086,8.07435z" fill="#454545"/><path d="M229.79279,185.34054l-1.94519,-7.04309l11.05164,-2.47863l1.59709,7.1212z" fill="#b0b0b0"/><path d="M228.58541,181.01074l-0.84238,-2.71167l11.26305,-2.52602l0.41742,1.86116c0,0 -7.53342,2.02 -9.16124,2.52718c-0.54394,0.16947 -1.67683,0.84938 -1.67683,0.84938z" fill="#bebebe"/><path d="M240.62339,182.34828c0,0 -5.96561,-1.28089 -6.22858,-5.06269c-0.39079,-5.61971 3.73515,-6.05508 3.73515,-6.05508l39.55875,-7.50559l2.20166,9.81674z" fill="#9c989a"/><path d="M242.08522,180.69916c0,0 -3.19656,-2.88945 -3.63763,-3.74036c-0.65378,-1.26136 0.64547,-4.58351 0.64547,-4.58351l40.5948,-9.07025l1.24853,7.39467z" fill="#898587"/><path d="M242.04044,180.91241l-1.4193,-1.66926l37.30502,-8.36659l0.42444,1.89239z" fill="#c1bcbf"/><path d="M241.17946,177.62726c0,0 -1.60038,-1.04304 -1.80555,-1.95765c-0.19185,-0.85558 0.61183,-3.36468 0.61183,-3.36468l37.72942,-8.4618l1.19365,5.32232z" fill="#0d0d0d"/><path d="M241.34958,178.38572c0,0 -1.73252,-1.63216 -1.93764,-2.5468c-0.19185,-0.85558 0.74394,-2.77554 0.74394,-2.77554l37.72942,-8.4618l1.19368,5.32233z" fill="#2e2e2e"/><path d="M237.05703,181.29899c-3.24603,-2.41515 -2.62045,-4.95003 -2.62045,-4.95003c0,0 2.68776,3.6117 4.08977,4.21715c1.65989,0.71685 5.48113,1.25974 5.48113,1.25974l-3.40838,0.83633c0,0 -2.9708,-0.93815 -3.54207,-1.36316z" fill="#7d7a7c"/><path d="M243.95436,178.11889c0,0 -1.35145,-1.96385 -1.60169,-3.07968c-0.21999,-0.98085 0.17925,-3.26273 0.17925,-3.26273l4.70641,-1.05552c0,0 0.03235,2.25147 0.22236,3.09862c0.26114,1.16437 1.2001,3.24377 1.2001,3.24377z" fill="#555555"/><path d="M252.36215,176.23326c0,0 0.09833,-2.60784 -0.1519,-3.72367c-0.21999,-0.98085 -1.27056,-2.61877 -1.27056,-2.61877l5.25282,-1.17809c0,0 -0.03125,1.76468 0.15874,2.61186c0.26114,1.16437 1.2637,3.73053 1.2637,3.73053z" fill="#555555"/><path d="M261.46276,174.19223c0,0 0.09836,-2.60786 -0.15188,-3.72368c-0.21999,-0.98085 -1.27054,-2.61877 -1.27054,-2.61877l5.17474,-1.1606c0,0 -0.03125,1.76468 0.15874,2.61186c0.26114,1.16437 1.2637,3.73052 1.2637,3.73052z" fill="#555555"/><path d="M270.89184,172.0775c0,0 0.34962,-2.2998 0.09938,-3.41562c-0.21999,-0.98085 -1.52182,-2.92678 -1.52182,-2.92678l5.01865,-1.12558c0,0 1.24135,1.75256 1.43138,2.59975c0.26114,1.16437 -0.00893,3.74268 -0.00893,3.74268z" fill="#555555"/><path d="M242.42624,172.52161l-0.82407,-0.63505l34.70061,-7.7825l-1.32198,1.11637c0,0 -2.7615,0.61931 -5.164,1.15815c-0.52367,0.11743 -1.5866,0.01892 -2.37102,0.19481c-0.75848,0.17007 -1.23085,0.61298 -2.17365,0.82441c-1.47017,0.32972 -3.12892,0.70174 -4.86543,1.09123c-0.71994,0.1615 -1.43035,-0.0723 -2.16912,0.09339c-0.65694,0.14734 -1.34121,0.69387 -2.00124,0.8419c-1.63817,0.36739 -3.26024,0.73117 -4.78525,1.07323c-0.7003,0.15703 -1.4761,-0.11822 -2.12764,0.02791c-0.79541,0.17836 -1.45273,0.77505 -2.14967,0.93137c-2.84282,0.6376 -4.74755,1.06475 -4.74755,1.06475z" fill="#474747"/></g><g><path d="M113.45681,270.1856l2.99947,-3.61139c0,0 3.37246,2.12844 6.33361,2.38157c2.61905,0.22383 10.53339,-0.94009 10.53339,-0.94009l-1.63785,4.82982z" fill="#6d6a6b" stroke-width="0"/><path d="M107.01569,278.2919l7.39156,-9.22639c0,0 3.65018,1.49397 5.91121,1.66523c3.42062,0.25903 12.61554,-0.26207 12.61554,-0.26207l-3.23147,5.13907z" fill="#615e5f" stroke-width="0"/><path d="M113.77334,299.28937l-6.3872,-21.70133c0,0 4.42197,-0.18011 9.13293,-1.20631c3.67705,-0.80099 7.44133,-2.51339 9.99801,-2.46331c4.48842,0.08786 39.90576,4.80728 39.90576,4.80728l4.64506,9.3858z" fill="#575455" stroke-width="0"/><path d="M128.92361,268.17789c5.54738,-6.94762 10.47735,-21.83955 11.14249,-24.62393c0.47917,-2.00597 -0.0046,-7.30456 -0.0046,-7.30456l9.00831,4.96376c0,0 10.19356,18.71974 14.11311,30.80162c1.09675,3.38063 4.41656,6.67927 3.57996,8.36975c-0.74957,1.51464 -16.79863,7.46083 -22.22943,7.89508c-11.42901,0.91387 -16.4702,4.9033 -21.27862,0.5753c-4.80842,-4.32795 0.74806,-12.00019 0.74806,-12.00019c0,0 3.47655,-6.8681 4.92072,-8.67686z" fill="#504e4f" stroke-width="0"/><path d="M126.4293,235.09666c0,0 0.05954,-1.54322 0.75059,-2.37821c0.88872,-1.07382 4.13942,-3.53046 4.13942,-3.53046c0,0 9.59232,-0.03261 13.07455,1.73827c3.2128,1.63384 -0.66572,13.04033 -0.66572,13.04033l-3.13116,-4.79231z" fill="#464445" stroke-width="0"/><path d="M159.43587,276.09476c0,0 -7.69017,8.13592 -15.93142,10.1599c-7.95032,1.95253 -16.45827,-2.17748 -16.66509,-3.58871c-0.11205,-0.76456 6.90042,-5.7247 9.36887,-10.60464c2.74392,-5.4245 1.0196,-10.88094 1.89777,-13.13826c2.4515,-6.30193 8.46433,-18.08186 6.10645,-23.74678c-2.47276,-5.94095 -13.38437,-5.61914 -13.38437,-5.61914c0,0 3.26511,-3.03991 8.10152,-4.25768c2.06014,-0.51871 6.80079,-0.16169 7.78595,0.01194c3.23057,0.56914 5.53112,1.73012 5.53112,1.73012c0,0 2.5021,-5.56169 5.94914,-6.65194c3.44708,-1.09026 22.46158,-2.33388 22.46158,-2.33388l-13.06156,15.83623z" fill="#555354" stroke-width="0"/><path d="M137.84947,259.59032c0,0 2.1294,-11.62047 5.55577,-17.95881c3.42638,-6.33835 6.70992,-10.33428 10.1566,-11.10728c2.49593,-0.55979 7.58982,7.12717 7.58982,7.12717l-4.51261,30.496c0,0 -13.54917,6.3993 -15.53347,4.30205c-1.56724,-1.65641 -3.25613,-12.85911 -3.25613,-12.85911z" fill="#585758" stroke-width="0"/><path d="M165.83238,281.29232c0,0 -4.16325,-5.41114 -4.50628,-8.4315c-0.47924,-4.21941 -1.83949,-16.88262 -1.83949,-16.88262l4.19299,9.75452c0,0 1.50819,9.6514 2.30072,12.57875c0.76466,2.82445 2.62846,4.63076 2.62846,4.63076z" fill="#3f3e3f" stroke-width="0"/><path d="M161.01664,264.06335c-0.55722,-1.59141 -1.98425,-9.17388 -1.98425,-9.17388c0,0 6.13845,-16.30655 7.6044,-19.35433c0.42978,-0.89348 3.32531,-3.31681 3.32531,-3.31681l-0.54414,5.09652c0,0 -1.4035,0.93376 -1.47438,1.43937c-0.07552,0.53867 1.03428,1.69975 1.03428,1.69975l-3.14875,9.39694c0,0 -1.38946,1.34732 -1.45369,1.87964c-0.06432,0.53246 0.80108,1.24859 0.80108,1.24859c0,0 -1.80419,9.56801 -2.09782,12.1086c-0.13574,1.17467 0.40713,2.52113 0.40713,2.52113c0,0 -1.91187,-1.95414 -2.46909,-3.54561z" fill="#474647" stroke-width="0"/><path d="M143.62004,246.47571l22.35056,3.42721c0,0 -0.93858,1.24796 -1.05206,1.82583c-0.08376,0.42641 0.43293,1.3273 0.43293,1.3273z" fill="#3f3e3e" stroke-width="NaN"/><path d="M147.20899,235.06068l22.43749,2.20201c0,0 -0.90345,1.0669 -0.98761,1.6559c-0.08771,0.61401 0.50903,1.58624 0.50903,1.58624z" fill="#3f3e3e" stroke-width="NaN"/><path d="M141.34678,265.7679c0,0 12.11682,5.1666 19.16056,9.71299c7.04378,4.54637 5.41424,6.14861 5.41424,6.14861z" fill="#636162" stroke-width="NaN"/><path d="M149.26586,240.36247c0,0 -5.21965,4.14688 -7.22487,7.76937c-2.0052,3.62254 -6.59575,21.23703 -7.24032,18.36288c-0.64461,-2.87413 7.62444,-25.96453 9.37593,-26.35737c0.66298,-0.1487 3.37568,-1.92771 4.22623,-1.87507c1.39632,0.08639 0.86304,2.10018 0.86304,2.10018z" fill="#918f91" stroke-width="0"/><path d="M113.29986,299.26301l13.19162,-4.89375c0,0 12.21787,-3.08073 15.31245,-3.61585c7.53626,-1.3032 30.06914,-4.23179 30.06914,-4.23179l0.94711,6.26567c0,0 -22.99019,8.81018 -30.00542,9.0352c-2.02949,0.06513 -7.84038,0.73494 -12.28893,0.3468c-8.70554,-0.75947 -17.22602,-2.90631 -17.22602,-2.90631z" fill="#626061" stroke-width="0"/><path d="M171.76267,292.66384c0,0 -0.89992,-4.19745 -1.85006,-6.38236c-1.0679,-2.45572 -4.24537,-7.63479 -4.24537,-7.63479l1.73914,-0.39005c0,0 2.65283,3.97256 3.61955,6.19573c1.05701,2.4307 2.47584,7.82136 2.47584,7.82136z" fill="#4a494a" stroke-width="0"/><path d="M171.75518,293.52263l-0.65735,-3.33413c0,0 0.61096,0.13427 0.8759,0.07482c0.31479,-0.07058 0.84881,-0.46164 0.84881,-0.46164l0.86471,3.06153c0,0 -0.66852,0.56765 -1.02057,0.68783c-0.26972,0.09209 -0.91143,-0.02849 -0.91143,-0.02849z" fill="#363536" stroke-width="0"/><path d="M166.16003,279.58699l-0.73115,-1.4969c0,0 0.32973,-0.43714 0.67627,-0.57555c0.33008,-0.13181 0.86666,-0.12639 0.86666,-0.12639l0.86942,1.58453c0,0 -0.35905,0.60061 -0.64718,0.70583c-0.27135,0.09917 -1.0341,-0.09147 -1.0341,-0.09147z" fill="#585758" stroke-width="0"/><path d="M130.83469,301.40108c0,0 -8.34999,-1.15345 -8.64825,-2.48348c-0.29975,-1.33663 5.53002,-3.844 5.53002,-3.844c0,0 10.62593,-2.6299 15.50054,-3.54623c2.72904,-0.51302 11.2573,-1.48393 11.2573,-1.48393c0,0 7.34579,-0.56708 8.39315,0.37836c1.14245,1.03126 -2.00614,4.64962 -2.00614,4.64962c0,0 -12.12964,4.05888 -16.04389,4.72335c-1.39051,0.23601 -13.98269,1.60632 -13.98269,1.60632z" fill="#6b696a" stroke-width="0"/><path d="M119.19308,296.9391l-1.8636,0.65451c0,0 -0.14041,-3.48851 2.78552,-2.87169c2.92596,0.61687 21.21867,-4.52229 21.21867,-4.52229z" fill="#4b4949" stroke-width="0"/><path d="M113.33955,299.10645c0,0 -1.90742,0.62414 -3.22671,-2.81323c-0.66783,-1.73995 -5.47142,-15.20732 -5.47142,-15.20732l3.01095,-3.64641c0,0 1.97694,5.69924 2.81327,8.48604c1.11226,3.70638 3.77473,12.97891 3.77473,12.97891z" fill="#3f3d3e" stroke-width="0"/><path d="M119.54335,297.03055c0,0 2.64304,-2.80452 18.23642,-6.64722c1.28772,-0.31731 -1.75869,0.36164 7.52427,-1.2004c9.2829,-1.56202 13.42743,-0.94132 13.42743,-0.94132c0,0 -14.93503,2.25362 -20.98749,3.61107c-6.89909,1.54732 -18.20062,5.17789 -18.20062,5.17789z" fill="#838082" stroke-width="0"/><path d="M117.98691,267.01139c0,0 -3.78598,3.09088 -5.55477,5.14327c-1.98806,2.30685 -5.7928,8.02376 -5.7928,8.02376l-1.11594,-1.39116c0,0 2.82803,-4.58371 4.62781,-6.67202c1.96775,-2.28326 6.71976,-6.49504 6.71976,-6.49504z" fill="#4a494a" stroke-width="0"/><path d="M118.84187,266.55543l-3.10697,2.41912c0,0 -0.0474,-0.65184 -0.21742,-0.86379c-0.202,-0.25181 -0.81373,-0.53276 -0.81373,-0.53276l2.67411,-2.44622c0,0 0.84336,0.30963 1.11011,0.56902c0.20441,0.1988 0.3539,0.85456 0.3539,0.85456z" fill="url(#color-3)" stroke-width="0"/><path d="M107.36533,279.21796l-2.28207,3.30944l-0.61798,-2.09826l1.58586,-2.42814c0,0 0.74624,0.007 0.97136,0.2155c0.21212,0.1964 0.3428,1.0015 0.3428,1.0015z" fill="url(#color-4)" stroke-width="0"/></g><path d="M229.03607,227.35894c0,0 -0.06206,-4.51451 0.12508,-5.98009c0.12702,-0.99486 2.12958,-2.91123 2.12958,-2.91123l16.55914,-3.93744c0,0 0.02255,5.93666 -0.05026,7.35325c-0.03194,0.62054 -0.92047,1.52964 -0.92047,1.52964z" fill="#665b60" stroke-width="0"/><path d="M177.60501,220.1836c0,0 -4.04418,-0.69426 -9.10535,-0.74004c-3.21735,-0.02912 -7.50793,0.35231 -9.30069,0.86284c-5.21212,1.48406 -6.55292,7.01653 -6.55292,7.01653c0,0 -3.7007,-1.54328 -5.94426,-1.91604c-2.09432,-0.34792 -6.56091,-0.37198 -6.56091,-0.37198c0,0 22.84995,-10.34242 26.48083,-11.75126c6.96065,-2.70089 33.08081,-8.15784 33.08081,-8.15784l9.19936,12.57741z" fill="#8b7c84" stroke-width="0"/><g stroke-width="0"><path d="M230.24913,226.12069c0,0 -0.10807,-2.63655 0.09655,-3.59941c0.21216,-0.99842 2.11262,-2.50322 2.11262,-2.50322l14.17782,-3.17978c0,0 0.59206,0.87458 0.52385,1.64599c-0.09275,1.04887 -2.20079,4.33725 -2.20079,4.33725z" fill="#585852"/><path d="M230.08605,225.39343c0,0 0.05503,-1.90918 0.25963,-2.8721c0.21216,-0.99842 1.94954,-3.23048 1.94954,-3.23048l14.17782,-3.17977c0,0 0.75519,1.60187 0.68694,2.37331c-0.09275,1.04887 -2.36392,3.60994 -2.36392,3.60994z" fill="#797971"/><path d="M244.86007,216.98068c-1.06238,0.05589 -12.46262,2.33457 -12.46262,2.33457l14.15844,-3.17537l0.53872,2.40215c0,0 -1.17219,-1.61725 -2.23456,-1.56138z" fill="#85857b"/></g><path d="M227.66979,208.07973l-1.13571,-5.06398l6.96295,-1.56162l2.40172,4.78004z" fill="#7c6e75" stroke-width="0"/><path d="M211.71589,184.57784l-5.85493,-7.02013l1.34587,-0.30183l7.84232,7.03725z" fill="#d495b6" stroke-width="0"/><path d="M171.98817,185.66926l12.22247,-5.90761l21.84975,-2.22296l5.67682,7.02012z" fill="#df9cbe" stroke-width="0"/><path d="M228.92828,212.94991l-0.35487,-1.58248l10.60266,-2.37794l1.3044,1.36955z" fill="#7c6e75" stroke-width="0"/><path d="M186.67997,209.96912c0,0 -17.43182,5.13774 -22.81861,6.8584c-8.15673,2.60553 -24.30438,8.61004 -24.30438,8.61004c0,0 13.68776,-7.62079 26.53596,-12.05607c13.93073,-4.809 56.59365,-15.87083 56.59365,-15.87083l1.18374,5.27795z" fill="#75686e" stroke-width="0"/><path d="M181.84857,220.04104l-3.28953,0.15276c0,0 9.01182,-4.46475 14.38892,-4.88897c5.37703,-0.42418 15.54528,2.52746 15.54528,2.52746z" fill="#7c6e76" stroke-width="0"/><path d="M135.63657,226.27496c0,0 -34.9423,-7.94225 -36.82326,-12.25523c-1.7086,-3.91787 29.61273,-4.23513 29.87959,-4.40584c4.66945,-2.98813 73.23113,-25.75898 73.23113,-25.75898l27.44956,0.80176l51.35794,-12.10398l10.10199,11.64705c0,0 -59.81117,14.61209 -82.9657,19.97219c-8.03754,1.86064 -24.60359,4.91222 -39.28697,9.37395c-11.32633,3.44167 -27.63928,11.5241 -27.63928,11.5241z" fill="#ee96c3" stroke-width="0"/><path d="M12.38002,266.77329l-1.1642,-20.39353c0,0 -1.64279,-6.86088 4.92337,-10.68658c8.15542,-4.75159 25.02547,-6.70565 27.04596,-7.15879c1.55049,-0.34773 -10.31514,12.98888 -10.31514,12.98888l4.41048,19.66548z" fill="#c4b4b3" stroke-width="0"/><g stroke-width="0"><path d="M282.72933,187.43361l-6.10174,-14.15055l91.98874,-13.69827l0.53239,5.83179l-45.216,15.11862z" fill="#ad6d8e"/><path d="M305.29875,167.6794l5.28605,-9.66376l25.65982,-7.93678l-1.92434,11.09175z" fill="#8d788b"/><path d="M280.70526,174.41332l-3.5529,-15.84175l33.50192,-0.56719l-2.96453,7.7045z" fill="#857183"/><path d="M321.36907,161.89003l14.81467,-11.79626l27.99238,-2.41163l1.22956,6.7895z" fill="#947e92"/><path d="M276.50409,174.73189l0.02982,-13.08975l0.74121,-3.30618l3.29656,14.69871z" fill="#756474"/><path d="M283.27418,184.01715l-3.34582,-11.62225l41.90306,-11.08763l2.31761,15.93615z" fill="#746373"/><path d="M324.13807,177.23001c0,0 -1.00957,-6.23773 -1.43803,-9.05645c-0.36688,-2.41329 -0.97691,-6.82921 -0.97691,-6.82921l43.32759,-8.78562l3.78977,7.75875z" fill="#867284"/><path d="M276.52814,174.65431l3.59494,-2.37522l3.182,11.7389z" fill="#6f5e6d"/><path d="M357.11216,149.15614l-20.07395,1.05489l26.87521,-2.30076l0.42105,3.53909c0,0 -0.64941,-1.46264 -1.98272,-1.88599c-0.8919,-0.28323 -5.2397,-0.40722 -5.2397,-0.40722z" fill="#978195"/><path d="M319.59338,161.62237c0,0 7.023,-5.12643 9.43755,-7.05569c1.75894,-1.40538 3.71644,-3.45447 3.71644,-3.45447l2.49706,-0.44457l-13.06658,10.37513z" fill="#9c859a"/><path d="M305.73802,165.5582c0,0 0.68217,-2.97365 1.70427,-4.5867c1.022,-1.613 3.09592,-2.91362 3.09592,-2.91362l-2.39825,6.96166z" fill="#806b7d"/><path d="M337.34054,148.0452l0.82696,-6.06121l15.64855,0.31646l6.86484,5.01935z" fill="#55494f"/><path d="M335.4814,151.33181c0,0 0.88324,-1.00793 1.30209,-1.70117c0.31547,-0.52218 0.68381,-2.02376 0.68381,-2.02376l22.6482,-0.98008c0,0 0.95562,0.29498 1.59886,0.48448c0.67227,0.19802 2.35154,0.67918 2.35154,0.67918z" fill="#685960"/><path d="M337.69289,147.05181l0.61489,-4.83718l14.53146,0.15042c0,0 -8.14807,0.25659 -12.46474,1.48579c-2.50394,0.71296 -2.68156,3.20099 -2.68156,3.20099z" fill="#41383c"/></g><path d="M5.38359,228.08652l-1.13982,-5.08206c0,0 21.51173,-6.15177 42.95003,-10.9015c12.77534,-2.83039 26.36588,-4.24106 33.04278,-6.09735c15.0549,-4.18549 24.28249,-10.87935 24.28249,-10.87935l-3.85776,11.77273z" fill="#ffa1d1" stroke-width="0"/><path d="M5.92257,242.2699l-1.41152,-16.16552c0,0 53.91903,-9.98102 71.23713,-14.31663c10.25855,-2.56827 23.09672,-9.30014 23.09672,-9.30014l3.20432,14.28746c0,0 -65.86485,14.77186 -81.74284,18.33289c-6.5284,1.46417 -8.50047,33.39462 -8.50047,33.39462z" fill="#ee96c3" stroke-width="0"/><path d="M197.52758,277.68991l6.0798,-15.29715c0,0 6.20806,-17.64347 13.87862,-26.39704c1.94923,-2.22442 6.73165,-4.52326 6.73165,-4.52326c0,0 -6.0359,6.46265 -7.957,9.7543c-4.53668,7.77335 -18.73306,36.46311 -18.73306,36.46311z" fill="#70646b" stroke-width="0"/><path d="M277.0192,193.4105l-10.08738,-16.18664l1.31742,-0.29546c0,0 3.055,4.90217 4.66923,7.49249c0.23005,0.36907 1.8291,1.26186 2.114,1.719c0.49386,0.79242 -0.28457,1.2166 0.26742,2.10237c1.53696,2.46632 3.0367,4.87283 3.0367,4.87283z" fill="#795467" stroke-width="0"/><path d="M102.76083,217.05799c0,0 -11.66187,-4.0996 -11.82503,-7.93171c-0.09771,-2.29448 14.59637,-13.73968 14.59637,-13.73968l67.20742,-13.35933l-0.91944,3.37927l30.08003,-1.36738l-64.23999,41.64282c0,0 -2.00073,-5.30454 0.88879,-8.88174c2.80828,-3.47664 16.21144,-12.28836 16.21144,-12.28836c0,0 -33.39871,7.44031 -40.53186,8.95126c-2.3798,0.50408 -11.46769,3.5949 -11.46769,3.5949z" fill="#f399c8" stroke-width="0"/><g><path d="M104.19983,197.65741l-0.70868,-3.15986l172.2742,-38.63687l0.70867,3.15985z" fill="#584f54" stroke-width="0"/><path d="M270.16382,157.37137l-0.59883,-2.67001l2.9812,-0.6686l3.22928,2.08009z" fill="#685d63" stroke-width="0"/><g fill="#685d63" stroke-width="0"><g><g><g><path d="M263.71969,159.07197l-0.65147,-2.90484l3.78703,-0.8493l0.65146,2.90486z"/><path d="M257.57484,160.45012l-0.65147,-2.90484l3.78703,-0.8493l0.65146,2.90485z"/></g><g><path d="M251.66182,161.77624l-0.65148,-2.90486l3.78705,-0.84929l0.65146,2.90486z"/><path d="M245.51689,163.15438l-0.65146,-2.90486l3.78704,-0.84929l0.65146,2.90486z"/></g></g><g><g><path d="M239.48794,164.50657l-0.65146,-2.90486l3.78702,-0.8493l0.65146,2.90486z"/><path d="M233.34308,165.8847l-0.65147,-2.90485l3.78703,-0.8493l0.65147,2.90486z"/></g><g><path d="M227.43005,167.21081l-0.65148,-2.90486l3.78704,-0.84929l0.65146,2.90486z"/><path d="M221.28521,168.58899l-0.65147,-2.90484l3.78702,-0.8493l0.65147,2.90486z"/></g></g></g><g><g><g><path d="M221.05334,168.64103l-0.65147,-2.90484l3.78702,-0.8493l0.65146,2.90485z"/><path d="M214.9085,170.01913l-0.65146,-2.90486l3.78704,-0.84929l0.65147,2.90485z"/></g><g><path d="M208.99546,171.34527l-0.65147,-2.90486l3.78702,-0.8493l0.65147,2.90485z"/><path d="M202.8506,172.72344l-0.65146,-2.90485l3.78701,-0.84931l0.65147,2.90485z"/></g></g><g><g><path d="M196.82169,174.07561l-0.65148,-2.90486l3.78703,-0.8493l0.65146,2.90486z"/><path d="M190.67677,175.45372l-0.65147,-2.90485l3.78705,-0.84929l0.65147,2.90486z"/></g><g><path d="M184.76375,176.77986l-0.65147,-2.90485l3.78703,-0.84931l0.65147,2.90486z"/><path d="M178.61886,178.15798l-0.65146,-2.90485l3.78702,-0.8493l0.65147,2.90485z"/></g></g></g></g><g><g fill="#685d63" stroke-width="0"><g><g><path d="M172.55052,179.51901l-0.65148,-2.90487l3.78704,-0.84929l0.65147,2.90485z"/><path d="M166.40562,180.89713l-0.65147,-2.90485l3.78705,-0.84929l0.65148,2.90486z"/></g><g><path d="M160.4926,182.22329l-0.65146,-2.90486l3.78705,-0.84929l0.65147,2.90486z"/><path d="M154.34778,183.60139l-0.65146,-2.90485l3.78702,-0.8493l0.65147,2.90485z"/></g></g><g><g><path d="M148.31883,184.95357l-0.65148,-2.90486l3.78703,-0.8493l0.65146,2.90486z"/><path d="M142.17391,186.33173l-0.65146,-2.90485l3.78702,-0.8493l0.65147,2.90485z"/></g><g><path d="M136.26088,187.6579l-0.65146,-2.90485l3.78701,-0.8493l0.65148,2.90486z"/><path d="M130.11601,189.03602l-0.65146,-2.90486l3.78702,-0.8493l0.65148,2.90486z"/></g></g></g><g><g fill="#685d63" stroke-width="0"><g><path d="M129.88415,189.08803l-0.65147,-2.90485l3.78703,-0.8493l0.65146,2.90486z"/><path d="M123.73922,190.46615l-0.65147,-2.90486l3.78702,-0.8493l0.65147,2.90485z"/></g><g><path d="M117.82625,191.79231l-0.65147,-2.90485l3.78703,-0.8493l0.65148,2.90486z"/><path d="M111.68139,193.17042l-0.65147,-2.90485l3.78702,-0.8493l0.65147,2.90484z"/></g></g><g fill="none" stroke-width="1" font-family="sans-serif" font-weight="normal" font-size="12" text-anchor="start"><g/><g/></g></g></g><path d="M103.61525,194.72407l2.03164,-3.25998l2.98122,-0.66859l0.59882,2.67002z" data-paper-data="{&quot;index&quot;:null}" fill="#685d63" stroke-width="0"/></g><path d="M166.34369,214.35905l-2.43095,0.8219c0,0 1.07637,-2.87271 10.19212,-6.07292c6.91111,-2.42616 26.68896,-8.20593 38.53773,-11.62758c5.50223,-1.58896 58.66455,-22.73747 58.66455,-22.73747l5.0697,-1.15167c0,0 -57.89028,23.89253 -63.3935,25.4579c-12.16911,3.4614 -32.62266,9.31657 -38.49566,11.2266c-3.19699,1.03972 -8.14389,4.08319 -8.14389,4.08319z" fill="#70475c" stroke-width="0"/><path d="M268.97207,210.84232l-4.40053,2.87862l-4.14224,-18.47265c0,0 7.61317,-1.65786 15.05877,-3.2792c21.37398,-4.65439 124.09874,-27.02382 124.09874,-27.02382l1.47221,6.56422z" fill="#5a5959" stroke-width="0"/><path d="M268.43558,212.63149l0.40662,-3.1719l132.20469,-38.05964l-9.08592,13.52781z" fill="#4b4a4a" stroke-width="0"/><path d="M388.71351,185.46232c0,0 -6.46878,-1.85404 -9.74027,-2.5839c-1.75328,-0.39112 -8.3629,-1.4548 -8.3629,-1.4548c0,0 8.44294,1.08233 11.91393,1.27539c1.23875,0.0689 2.49767,0.54779 3.88567,0.77777c0.44752,0.07414 1.62297,-3.0172 3.1007,-5.10552c0.44169,-0.62422 1.65362,-0.52244 2.09383,-0.96014c1.00928,-1.00351 1.12077,-2.14707 1.12077,-2.14707c0,0 0.53271,0.83317 -0.39106,2.28423c-0.25202,0.39593 -1.93415,1.13429 -2.17288,1.55708c-0.95659,1.69472 -1.58413,3.47427 -1.75251,4.1179c-0.46982,1.79618 1.73258,1.91882 1.73258,1.91882z" fill="#414040" stroke-width="0"/><path d="M102.77811,217.35893l1.29389,-11.66468l6.6997,-2.14239c0,0 -0.34805,2.79206 -0.5532,4.43758c-0.05167,0.41444 11.02847,-4.07532 11.5188,-3.49761c0.90971,1.07187 -3.70445,5.96001 -3.83349,6.99491c-0.14749,1.18311 -8.55432,3.4742 -8.55432,3.4742z" fill="#303030" stroke-width="0"/><path d="M102.55703,217.02929l1.3747,-10.82696c0,0 3.21296,0.61642 3.4285,1.57752c0.39221,1.74873 0.11791,7.74116 0.11791,7.74116z" fill="#252525" stroke-width="0"/><path d="M265.13511,216.31621l-0.64609,-2.88085l4.74378,-4.08966l-0.56197,3.15174c0,0 -0.77176,1.54152 -1.39362,2.21311c-0.54718,0.59095 -2.14212,1.60554 -2.14212,1.60554z" fill="#383838" stroke-width="0"/><g><g fill="#4b4b4b" stroke-width="0"><g data-paper-data="{&quot;origPos&quot;:null}"><g data-paper-data="{&quot;origPos&quot;:null}"><path d="M330.9489,202.96077l-0.49734,-2.21768l3.65909,-0.82065l0.49734,2.21768z" data-paper-data="{&quot;origPos&quot;:null}"/><path d="M324.82553,204.21766l-0.49734,-2.21768l3.65908,-0.82064l0.49733,2.21767z" data-paper-data="{&quot;origPos&quot;:null}"/></g><g data-paper-data="{&quot;origPos&quot;:null}"><path d="M343.17082,200.33622l-0.49734,-2.21768l3.65909,-0.82065l0.49733,2.21767z" data-paper-data="{&quot;origPos&quot;:null}"/><path d="M337.04746,201.59307l-0.49733,-2.21767l3.6591,-0.82066l0.49734,2.21769z" data-paper-data="{&quot;origPos&quot;:null}"/></g></g><g data-paper-data="{&quot;origPos&quot;:null,&quot;index&quot;:null}"><g data-paper-data="{&quot;origPos&quot;:null}"><path d="M361.8601,195.91176l-0.49734,-2.21768l3.6591,-0.82066l0.49733,2.21768z" data-paper-data="{&quot;origPos&quot;:null}"/><path d="M367.93375,194.43309l-0.49734,-2.21767l3.65909,-0.82065l0.49733,2.21766z" data-paper-data="{&quot;origPos&quot;:null}"/></g><g data-paper-data="{&quot;origPos&quot;:null}"><path d="M349.688,198.75809l-0.49734,-2.21769l3.65908,-0.82063l0.49733,2.21767z" data-paper-data="{&quot;origPos&quot;:null}"/><path d="M355.76163,197.2795l-0.49733,-2.21767l3.65909,-0.82066l0.49733,2.21767z" data-paper-data="{&quot;origPos&quot;:null}"/></g></g></g><path d="M287.45837,204.26473l-2.97864,-13.28121l82.42643,-18.48626l2.97864,13.2812z" data-paper-data="{&quot;origPos&quot;:null}" fill="#444444" stroke-width="0"/><path d="M288.58792,208.85092l-1.0466,-4.66654l82.1842,-18.43189l1.04659,4.66656z" data-paper-data="{&quot;origPos&quot;:null}" fill="#414141" stroke-width="0"/><path d="M288.93354,210.23304l-0.35399,-1.57838l82.17372,-18.42956l0.354,1.57838z" data-paper-data="{&quot;origPos&quot;:null}" fill="#3f3f3f" stroke-width="0"/><g stroke-width="0"><g data-paper-data="{&quot;origPos&quot;:null}" fill="#5a5a5a"><g data-paper-data="{&quot;origPos&quot;:null}"><path d="M329.69853,194.87267l-3.00908,-13.4167l3.48489,-0.78156l3.00905,13.41669z" data-paper-data="{&quot;origPos&quot;:null}"/></g><g data-paper-data="{&quot;origPos&quot;:null}"><path d="M335.62279,193.54398l-3.00906,-13.41669l3.4849,-0.78156l3.00905,13.41669z" data-paper-data="{&quot;origPos&quot;:null}"/><path d="M341.72132,192.17623l-3.00906,-13.4167l3.48489,-0.78156l3.00906,13.4167z" data-paper-data="{&quot;origPos&quot;:null}"/></g></g><g data-paper-data="{&quot;origPos&quot;:null}" fill="#5a5a5a"><g data-paper-data="{&quot;origPos&quot;:null}"><path d="M348.16831,190.73034l-3.00906,-13.41669l3.48489,-0.78156l3.00906,13.41671z" data-paper-data="{&quot;origPos&quot;:null}"/><path d="M354.26684,189.3626l-3.00904,-13.41669l3.48489,-0.78156l3.00904,13.41668z" data-paper-data="{&quot;origPos&quot;:null}"/></g><g data-paper-data="{&quot;origPos&quot;:null}"><path d="M360.19106,188.03394l-3.00906,-13.4167l3.48486,-0.78157l3.00906,13.4167z" data-paper-data="{&quot;origPos&quot;:null}"/><path d="M366.2896,186.66617l-3.00906,-13.4167l3.48487,-0.78157l3.00906,13.41669z" data-paper-data="{&quot;origPos&quot;:null}"/></g></g><path d="M333.24327,194.07764l-0.43495,2.07656l-5.10487,1.18905l-2.27981,-9.5285l1.20843,-6.34596l3.07631,13.40164z" fill="#3a3a3a"/><path d="M339.16512,192.74953l-0.43493,2.07658l-5.10487,1.18905l-2.27981,-9.5285l1.20842,-6.34595l3.07632,13.40163z" fill="#3a3a3a"/><path d="M345.22152,191.39123l-0.43495,2.07657l-5.10487,1.18905l-2.27981,-9.52849l1.20842,-6.34595l3.07631,13.40164z" fill="#3a3a3a"/><path d="M351.74908,189.92728l-0.43495,2.07656l-5.10487,1.18905l-2.27981,-9.5285l1.20842,-6.34595l3.07633,13.40163z" fill="#3a3a3a"/><path d="M357.87279,188.55384l-0.43495,2.07656l-5.10487,1.18905l-2.27981,-9.5285l1.20842,-6.34595l3.07633,13.40163z" fill="#3a3a3a"/><path d="M363.72737,187.24082l-0.43495,2.07657l-5.10486,1.18904l-2.27981,-9.5285l1.20842,-6.34595l3.07633,13.40164z" fill="#3a3a3a"/><path d="M369.85884,185.86569l-0.43495,2.07656l-5.10487,1.18905l-2.2798,-9.52849l1.20842,-6.34596l3.07631,13.40164z" fill="#3a3a3a"/></g><g stroke-width="0"><g data-paper-data="{&quot;origPos&quot;:null}" fill="#5a5a5a"><g data-paper-data="{&quot;origPos&quot;:null}"><path d="M287.5173,204.33286l-3.00906,-13.4167l3.4849,-0.78156l3.00905,13.41669z" data-paper-data="{&quot;origPos&quot;:null}"/></g><g data-paper-data="{&quot;origPos&quot;:null}"><path d="M293.44156,203.00421l-3.00905,-13.41668l3.48489,-0.78156l3.00906,13.4167z" data-paper-data="{&quot;origPos&quot;:null}"/><path d="M299.54008,201.63646l-3.00906,-13.4167l3.48489,-0.78157l3.00906,13.4167z" data-paper-data="{&quot;origPos&quot;:null}"/></g></g><g data-paper-data="{&quot;origPos&quot;:null}" fill="#5a5a5a"><g data-paper-data="{&quot;origPos&quot;:null}"><path d="M305.98708,200.19057l-3.00906,-13.4167l3.4849,-0.78156l3.00905,13.41669z" data-paper-data="{&quot;origPos&quot;:null}"/><path d="M312.08561,198.82281l-3.00906,-13.41671l3.4849,-0.78155l3.00904,13.41669z" data-paper-data="{&quot;origPos&quot;:null}"/></g><g data-paper-data="{&quot;origPos&quot;:null}"><path d="M318.00992,197.49414l-3.00906,-13.4167l3.4849,-0.78156l3.00906,13.4167z" data-paper-data="{&quot;origPos&quot;:null}"/><path d="M324.1084,196.12639l-3.00906,-13.4167l3.4849,-0.78156l3.00906,13.41672z" data-paper-data="{&quot;origPos&quot;:null}"/></g></g><path d="M291.06197,203.53789l-0.43495,2.07657l-2.65415,0.63942l-0.44579,-1.92319z" fill="#3a3a3a"/><path d="M296.98391,202.20976l-0.43492,2.07659l-5.10487,1.18905l-2.2798,-9.52849l1.20842,-6.34595l3.07632,13.40164z" fill="#3a3a3a"/><path d="M303.04031,200.85141l-0.43495,2.07656l-5.10487,1.18905l-2.27981,-9.52849l1.20843,-6.34596l3.07634,13.40165z" fill="#3a3a3a"/><path d="M309.56781,199.38746l-0.43495,2.07656l-5.10487,1.18907l-2.2798,-9.5285l1.20843,-6.34596l3.07632,13.40164z" fill="#3a3a3a"/><path d="M315.69161,198.01412l-0.43494,2.07656l-5.10487,1.18905l-2.27981,-9.5285l1.20843,-6.34596l3.07633,13.40165z" fill="#3a3a3a"/><path d="M321.54615,196.70105l-0.43493,2.07657l-5.10487,1.18905l-2.27981,-9.52849l1.20843,-6.34596l3.07632,13.40164z" fill="#3a3a3a"/><path d="M327.67769,195.32595l-0.43492,2.07659l-5.10487,1.18905l-2.27981,-9.5285l1.20843,-6.34595l3.07632,13.40164z" fill="#3a3a3a"/></g><g><g data-paper-data="{&quot;origPos&quot;:null}"><g data-paper-data="{&quot;origPos&quot;:null}" fill="none" stroke-width="1" font-family="sans-serif" font-weight="normal" font-size="12" text-anchor="start"/><g data-paper-data="{&quot;origPos&quot;:null}" fill="#4b4b4b" stroke-width="0"><path d="M295.63316,211.07651l-0.49733,-2.21768l3.65908,-0.82064l0.49734,2.21767z" data-paper-data="{&quot;origPos&quot;:null}"/><path d="M289.50979,212.33344l-0.49734,-2.21768l3.65909,-0.82065l0.49734,2.21768z" data-paper-data="{&quot;origPos&quot;:null}"/></g></g><g data-paper-data="{&quot;origPos&quot;:null,&quot;index&quot;:null}" fill="#4b4b4b" stroke-width="0"><g data-paper-data="{&quot;origPos&quot;:null}"><path d="M314.3225,206.65206l-0.49733,-2.21767l3.65909,-0.82065l0.49733,2.21767z" data-paper-data="{&quot;origPos&quot;:null}"/><path d="M320.39616,205.1734l-0.49733,-2.21766l3.65909,-0.82065l0.49733,2.21767z" data-paper-data="{&quot;origPos&quot;:null}"/></g><g data-paper-data="{&quot;origPos&quot;:null}"><path d="M302.15032,209.49851l-0.49733,-2.21767l3.65909,-0.82065l0.49733,2.21767z" data-paper-data="{&quot;origPos&quot;:null}"/><path d="M308.22393,208.01981l-0.49733,-2.21768l3.6591,-0.82066l0.49733,2.21767z" data-paper-data="{&quot;origPos&quot;:null}"/></g></g></g></g><path d="M114.80194,213.02872l0.092,-4.34049c0,0 3.81054,-4.08029 7.22321,-4.99942c3.90143,-1.05075 33.14934,-7.58475 33.14934,-7.58475c0,0 1.05645,1.68538 1.27117,2.88468c0.27663,1.5451 -1.11744,4.99853 -1.11744,4.99853z" fill="#242424" stroke-width="0"/><path d="M138.25078,203.86502l-0.6894,-3.07395l17.56545,-3.9395l0.68941,3.07397z" fill="#313131" stroke-width="0"/><path d="M135.45934,206.46968l-0.14274,-0.63643c0,0 0.81195,-1.25939 1.8102,-1.48327c0.94796,-0.21258 3.18686,-0.22797 5.61505,-0.60515c4.62573,-0.71848 10.13995,-1.85102 10.13995,-1.85102l0.14273,0.63643c0,0 -5.29712,1.18591 -9.85919,1.89072c-2.48922,0.38456 -4.82699,0.32574 -5.81035,0.54625c-1.03359,0.23182 -1.89568,1.50243 -1.89568,1.50243z" fill="#616161" stroke-width="0"/><path d="M158.49663,185.20175l13.04796,0.17545l31.26426,-1.57188c0,0 0.76442,0.05831 -7.29723,1.12005c-2.74243,0.36116 -13.47503,1.11924 -22.89071,1.28083c-2.54778,0.04372 -16.31163,-0.39562 -16.31163,-0.39562z" fill="#df8cb7" stroke-width="0"/><path d="M-16.81468,231.01349l-1.29839,-5.78931c0,0 5.24664,-2.9732 8.95824,-3.80558c3.0386,-0.68147 12.08268,0.88316 12.08268,0.88316l2.55372,12.00283z" fill="#626061" stroke-width="0"/><path d="M98.61697,215.35879l4.25268,1.61449l11.66073,-3.97125l49.51496,-11.10499l0.23881,1.06459c0,0 -37.17533,8.18866 -48.73284,11.04948c-3.17311,0.78542 -12.47962,3.61142 -12.47962,3.61142z" fill="#ffa6d4" stroke-width="0"/><path d="M-5.63676,294.02498l-1.56899,-6.99583l19.22052,-21.35401l1.42297,13.68933l-11.31829,12.92103z" fill="#3f3d3e" stroke-width="0"/><path d="M-8.3347,289.44418c0,0 -4.11755,-19.21658 -5.42859,-28.74392c-1.47972,-10.75307 -3.00516,-32.54359 -3.00516,-32.54359c0,0 8.36433,-2.06996 12.2197,-1.24794c3.29969,0.70357 9.50612,5.88022 9.50612,5.88022l7.34242,32.73829c0,0 -8.57171,15.96085 -11.04838,18.83155c-3.80956,4.41567 -9.58605,5.08538 -9.58605,5.08538z" fill="#555354" stroke-width="0"/><path d="M-14.59627,238.53127c0,0 -2.81429,-5.5106 -1.38851,-8.59462c1.42581,-3.084 5.44735,-5.02814 7.94561,-5.58841c1.99291,-0.44696 6.13437,-1.29508 9.91378,2.42652c3.77944,3.72159 3.36604,10.65008 3.36604,10.65008c0,0 -8.42382,-8.77288 -11.01134,-8.62855c-3.65122,0.20365 -8.82559,9.73498 -8.82559,9.73498z" fill="#6f6b6c" stroke-width="0"/><path d="M-8.68639,294.5159c0,0 -4.03052,-25.80603 -6.53489,-36.97242c-2.60811,-11.62894 -7.35121,-31.79826 -7.35121,-31.79826c0,0 0.98745,-0.88034 2.00305,-1.10816c0.92866,-0.2083 2.59824,0.07624 2.59824,0.07624c0,0 3.98276,18.73787 6.32329,29.1735c2.71917,12.12431 6.30812,39.87861 6.30812,39.87861z" fill="#333232" stroke-width="0"/><path d="M-9.00964,295.04308l-2.1511,-14.59118c0,0 1.22416,0.63642 1.80059,0.46753c0.72786,-0.21328 2.04962,-1.98297 2.04962,-1.98297l2.17376,15.238z" fill="#2e2d2d" stroke-width="0"/><path d="M8.193,254.02443c1.78675,7.96675 -0.34061,17.32709 -3.95942,21.13882c-3.00558,3.16578 -8.84355,11.40086 -10.63025,3.43415c-0.37906,-1.69012 -0.98419,-13.7288 -2.39727,-20.61636c-1.86878,-9.10863 -4.56462,-13.60869 -4.24969,-16.58127c0.56947,-5.37491 5.63509,-8.02725 7.79594,-8.5119c4.25944,-0.95527 11.654,13.16982 13.44072,21.13651z" fill="#585758" stroke-width="0"/><path d="M44.90137,260.22446l-0.95919,-1.56887c0,0 7.4517,-3.05532 13.21789,-4.84473c8.11744,-2.51904 30.89273,-8.84391 30.89273,-8.84391l2.03275,0.85713c0,0 -24.14739,7.07636 -32.48181,9.73252c-2.44773,0.78009 -12.70238,4.66786 -12.70238,4.66786z" fill="#585657" stroke-width="0"/><path d="M42.04254,274.39405l2.06776,-14.49525l6.85869,-2.51249c0,0 -0.75201,4.58929 -0.50254,5.30724c1.19196,3.43062 9.36119,26.16088 9.36119,26.16088c0,0 -1.34526,0.75307 -2.91629,-0.81672c-2.81887,-2.81669 -6.11152,-9.1107 -8.28133,-10.77897c-1.87463,-1.44135 -6.58752,-2.86469 -6.58752,-2.86469z" fill="#5a5759" stroke-width="0"/><path d="M47.52713,241.59474l0.33866,-11.69083l2.25245,-0.61906l-1.37423,12.15077z" fill="#a5a0a2" stroke-width="0"/><path d="M53.91515,239.05165l-0.30697,-1.36876l25.85399,-5.79842l0.30698,1.36876z" fill="#494748" stroke-width="0"/><path d="M53.18629,236.17l-0.30697,-1.36876l25.85399,-5.79842l0.30697,1.36876z" fill="#494748" stroke-width="0"/><path d="M39.1276,262.28743l-4.40708,-19.65019l9.84612,-12.06336l4.65891,-1.36437l-6.51195,45.33758l-5.91363,-0.72687z" fill="#dbd5d8" stroke-width="0"/><path d="M15.87869,279.71192l-2.73437,-11.47048l25.83561,-6.6034c0,0 0.87763,2.40394 0.9253,3.21161c0.11896,2.01325 -0.32139,9.22215 -0.32139,9.22215z" fill="#ccc6c9" stroke-width="0"/><path d="M17.08402,267.76827l-0.06911,-0.30814l22.0739,-5.84067l-2.28313,1.72576c0,0 -4.17613,1.12744 -6.82612,1.68922c-3.62857,0.76924 -12.89558,2.73382 -12.89558,2.73382z" fill="#d8d1d5" stroke-width="0"/><path d="M19.69647,263.35272l-3.72027,-16.58793l15.73417,-3.52878l3.72027,16.58794z" fill="#a39999" stroke-width="0"/><path d="M15.646,279.93807l-2.48584,-11.08397c0,0 10.02033,4.29801 14.7153,5.64381c4.69498,1.34574 10.97734,-0.35017 10.97734,-0.35017z" fill="#b4afb1" stroke-width="0"/><path d="M49.79609,278.47179c0,0 3.18374,0.35233 4.22183,-0.02784c0.63772,-0.23355 1.4143,-2.03607 1.4143,-2.03607l3.60392,8.49032l0.91806,4.09344c0,0 -1.82778,0.72907 -3.64104,-1.511c-1.49604,-1.84824 -6.5171,-9.00882 -6.5171,-9.00882z" fill="#504e4f" stroke-width="0"/><path d="M42.4614,274.87026l4.97587,-43.8965l1.74623,-0.18139l-4.78601,44.27436z" fill="#858183" stroke-width="0"/><path d="M17.11429,238.78657l1.11684,-1.94194c0,0 26.61018,-6.62791 38.71967,-9.34377c10.5102,-2.35716 31.24788,-6.64638 31.24788,-6.64638l0.9415,1.77847c0,0 -20.93555,3.97184 -32.01396,6.45643c-12.65009,2.83711 -40.01189,9.6972 -40.01189,9.6972z" fill="#918b8e" stroke-width="0"/><path d="M17.83848,237.3628l1.54997,-2.33724c0,0 25.18357,-6.00981 37.29304,-8.72564c10.51018,-2.35716 31.2479,-6.64639 31.2479,-6.64639l0.94148,1.77846c0,0 -20.93554,3.97184 -32.01396,6.45643c-12.6501,2.83711 -39.01837,9.47438 -39.01837,9.47438z" fill="#a59fa2" stroke-width="0"/><path d="M85.42993,243.50614l-3.12243,-5.1235c0,0 -0.05722,-1.22211 0.24302,-1.40507c0.26451,-0.16118 1.46482,0.36428 1.46482,0.36428l3.12241,5.12349c0,0 -0.07741,0.91681 -0.34249,1.07836c-0.29989,0.18275 -1.36534,-0.03752 -1.36534,-0.03752z" fill="#494242" stroke-width="0"/><path d="M46.71117,254.90426l1.38112,-10.03109l3.79155,-0.85033l-1.38113,10.03108z" fill="#9c989a" stroke-width="0"/><path d="M52.15639,235.46526l1.59404,-1.34946l23.85042,-5.33054l2.17699,0.48526z" fill="#757274" stroke-width="0"/><path d="M52.86364,238.1878l1.59405,-1.34947l23.8504,-5.33055l2.17702,0.48525z" fill="#757274" stroke-width="0"/><path d="M13.0689,279.50869l-11.06161,-57.12158l2.00084,0.14642l11.68168,57.39363z" fill="#686666" stroke-width="0"/><path d="M12.96861,279.80821l-2.91865,-16.005l3.07116,3.22452l2.487,13.08292z" fill="#535252" stroke-width="0"/><path d="M37.96335,250.75954c0,0 1.55926,-2.75346 1.35206,-3.6773c-0.20332,-0.9066 -2.58387,-1.81498 -2.58387,-1.81498c0,0 3.07586,-0.00349 3.34363,1.66673c0.20396,1.27218 -0.34211,3.63801 -0.1861,4.7328c0.44352,3.11285 1.37946,10.43281 1.37946,10.43281z" fill="#c4bec1" stroke-width="0"/><path d="M45.03492,247.21446l-0.36586,-10.36663l1.53417,-4.80657l-0.49898,9.90754z" fill="#aca7a9" stroke-width="0"/></g></g><g stroke-width="0"><g><path d="M157.94983,183.50355l-1.35281,-6.032l46.65909,-10.46449l1.35282,6.032z" fill="#61585b"/><path d="M157.08072,180.37439l-0.72441,-3.23012l46.83652,-10.50425l0.72441,3.23014c0,0 -8.43144,1.89091 -17.09265,3.83345c-2.70802,0.60737 -6.18308,2.94164 -8.68537,3.50281c-2.97547,0.66733 -6.49865,-0.09746 -8.40728,0.33059c-5.72314,1.28356 -12.65124,2.83738 -12.65124,2.83738z" fill="#494344"/><path d="M215.96397,160.399l-13.25038,-16.43154l20.41215,-4.57791l18.72545,12.99134c0,0 -5.27382,2.57795 -8.37098,3.5373c-4.77922,1.48028 -17.51628,4.48085 -17.51628,4.48085z" fill="#5e555b"/><path d="M216.71776,163.75036l-1.21206,-5.40422c0,0 11.68236,-4.10928 16.28533,-5.94061c3.65302,-1.4534 6.26331,-2.63534 6.26331,-2.63534l7.31387,5.47083c0,0 -4.85387,2.72437 -8.80405,4.06532c-5.35233,1.81683 -19.8464,4.44411 -19.8464,4.44411z" fill="url(#color-5)"/><path d="M201.09457,144.49329l-0.8745,-3.89931l18.68729,-4.19111l4.42275,3.10353z" fill="url(#color-6)"/><path d="M216.15361,163.90244l-0.27556,-1.22874c0,0 15.21463,-3.49057 20.43395,-4.8328c3.90272,-1.00365 7.87098,-3.50967 7.87098,-3.50967l1.11786,0.92246l-7.572,3.80992z" fill="#312c30"/><g><path d="M115.26275,175.66583l-2.1595,-8.59408l91.64869,-20.55456l9.92422,9.33631z" fill="#8a6672"/><path d="M133.21435,180.13122c0,0 -4.22331,-2.74816 -7.27988,-3.56056c-3.05656,-0.81239 -9.89468,0.9646 -9.89468,0.9646l-0.34731,-2.06103c0,0 12.08509,-2.42715 18.96488,-3.87247c16.43483,-3.45284 79.21794,-16.75507 79.21794,-16.75507l4.9725,5.61499z" fill="#755761"/><path d="M136.53891,181.9384l-3.51926,-1.8669l85.35625,-19.6448l1.85052,2.74267z" fill="#694e57"/><path d="M113.02914,167.49432l-0.99113,-4.41924l88.45643,-20.53483l4.99523,4.68158c0,0 3.41884,2.65419 -1.74477,3.78634c-1.62555,0.35642 -11.26249,-0.93441 -12.89207,-0.5771c-15.69414,3.44104 -77.82364,17.06326 -77.82364,17.06326z" fill="#916b77"/><path d="M112.27413,163.02228l-0.66845,-2.43732l87.69914,-19.81094l1.54339,2.10557z" fill="#9e7582"/><path d="M184.75284,147.46797c-8.01404,1.13334 -71.33641,14.27701 -71.33641,14.27701l85.72456,-19.22594l6.31286,6.21019c0,0 -12.68692,-2.39465 -20.70099,-1.26128z" fill="#b38f9a"/></g><path d="M166.66183,175.17968l-2.00758,-8.95143l19.72229,-4.42324l2.00758,8.95143z" fill="#3a3336"/><path d="M164.56947,166.25149l0.3659,-1.64241l18.08905,-4.05692l1.29447,1.26996z" fill="#4b4246"/><path d="M166.6893,174.66172l-1.78956,-7.97938c0,0 2.18584,4.90641 5.02147,5.4042c2.83563,0.49782 15.9393,-1.72448 15.9393,-1.72448z" fill="#332c30"/><path d="M202.80657,146.38841l-5.13804,-4.99672c0,0 0.85222,-0.8744 1.43833,-1.00585c0.65521,-0.14694 2.30855,0.16549 2.30855,0.16549l5.13804,4.99672z" fill="#757575"/><path d="M206.78984,150.34725l-7.38241,-7.1705l3.74693,-0.84036l7.38241,7.17048z" fill="#5a5a5a"/><path d="M212.34313,155.71096l-7.38241,-7.17048l3.74691,-0.84035l7.38242,7.1705z" fill="#505050"/><path d="M218.08757,161.26826c-1.26092,-1.22472 -6.1807,-6.00331 -6.1807,-6.00331l3.74691,-0.84033l8.71339,8.62886c0,0 -1.88877,0.97238 -2.81853,1.16575c-0.72522,0.15083 -2.90508,-2.41093 -3.46107,-2.95098z" fill="#3b3b3b"/><path d="M114.32662,178.53847l-4.08677,-18.22207l3.10386,-0.69615l4.08675,18.22209z" fill="#443e42"/><path d="M96.25792,184.22952l-1.96637,-5.63427l19.73829,-4.42683l1.29729,5.7843z" fill="url(#color-7)"/><path d="M94.42956,179.21058l-2.37376,-10.58406l19.73829,-4.42683l2.37374,10.58407z" fill="#5e555b"/><path d="M92.08342,168.74979l-0.13027,-4.23639l18.95763,-4.25175l0.91088,4.06132z" fill="url(#color-8)"/><path d="M159.81229,149.49635l-1.34219,-5.98465l14.89156,-2.24667l5.54118,3.58543z" fill="#5e555b"/><path d="M178.98064,145.19743l-5.59953,-3.84559c0,0 3.09425,0.01382 5.48693,0.50024c2.39268,0.48644 6.44418,1.9253 6.44418,1.9253z" fill="#776b73"/><path d="M157.11618,151.28529l2.85011,-1.9146l24.92115,-5.86248l3.8868,0.67692z" fill="#6d6269"/></g><g><path d="M167.20449,170.98922c-0.27331,-1.21857 -0.02847,-2.4589 0.12543,-3.54856c0.21437,-1.51836 0.54236,-2.80924 1.61959,-3.91803c0.65801,-0.67726 1.68246,-1.30611 2.59487,-1.75707c0.60347,-0.29824 1.49083,-0.90728 2.17684,-1.06115c1.55506,-0.34876 1.907,-0.34391 3.1374,-0.11157c0.74117,0.13998 2.43918,0.21943 3.10827,0.75824c0.5663,0.45601 1.23814,1.27744 1.7203,1.8658c0.82396,1.00554 2.015,2.64922 2.3189,4.00421c0.12839,0.57262 -0.0587,1.98625 0.00565,2.50013c0.20427,1.6313 0.31504,2.12869 -0.62752,3.47105c-0.57288,0.81586 -1.92371,1.68023 -2.79391,2.29556c-0.90122,0.63727 -1.95659,1.76152 -3.10088,2.01814c-0.77234,0.17318 -2.28288,-0.03631 -3.0609,-0.00138c-1.6879,0.07575 -2.59654,0.10073 -3.85057,-0.78648c-1.07543,-0.76084 -1.6795,-2.26338 -2.332,-3.50838c-0.34277,-0.6541 -0.87209,-1.46555 -1.0414,-2.22044z" fill="#3a3a3a"/><path d="M167.89186,170.71347c-0.25012,-1.11509 -0.02603,-2.25014 0.11476,-3.24729c0.19625,-1.38947 0.49628,-2.5707 1.48208,-3.5854c0.60214,-0.61977 1.53963,-1.19524 2.37455,-1.60788c0.55223,-0.27295 1.36427,-0.83026 1.99198,-0.97103c1.42305,-0.31918 1.74506,-0.31472 2.87099,-0.10208c0.6783,0.12813 2.23205,0.20078 2.84439,0.69383c0.51827,0.41732 1.13303,1.16902 1.57423,1.70742c0.75398,0.92012 1.84388,2.42429 2.122,3.66419c0.11751,0.52396 -0.05372,1.81764 0.00516,2.28787c0.18693,1.49282 0.28835,1.94795 -0.57423,3.17632c-0.52428,0.74657 -1.76041,1.53757 -2.55672,2.10065c-0.82465,0.58316 -1.79047,1.61197 -2.83762,1.84683c-0.70675,0.15851 -2.08901,-0.03319 -2.80097,-0.00125c-1.54461,0.06933 -2.37612,0.09221 -3.52366,-0.7197c-0.98407,-0.69627 -1.5369,-2.07122 -2.13399,-3.2105c-0.3137,-0.59853 -0.79805,-1.34115 -0.95297,-2.03188z" fill="#5a5a5a"/><path d="M178.79711,163.62585c-2.51746,-1.88044 -7.5314,-0.96157 -7.5314,-0.96157c0,0 1.77702,-0.95195 3.72046,-1.38071c1.57427,-0.34735 3.18822,-0.33581 4.60439,0.67994c1.41729,1.01655 2.12658,2.37907 2.71177,3.67796c1.14743,2.54661 1.24384,4.97722 1.24384,4.97722c0,0 -2.23162,-5.1124 -4.7491,-6.99283z" fill="#6d6d6d"/><path d="M174.69759,169.68879c-0.12596,-0.56175 0.22723,-1.11923 0.78901,-1.24528c0.56175,-0.12597 1.11923,0.22724 1.24527,0.78902c0.12596,0.56175 -0.22724,1.11923 -0.78901,1.24527c-0.56175,0.12597 -1.11923,-0.22722 -1.24526,-0.78903z" fill="#272727"/><path d="M174.65041,169.83957c-0.11553,-0.51523 0.20844,-1.02661 0.72369,-1.14216c0.51523,-0.11553 1.02661,0.20844 1.14216,0.72369c0.11553,0.51523 -0.20844,1.02662 -0.72368,1.14218c-0.51523,0.11553 -1.02662,-0.20844 -1.14217,-0.72369z" fill="#131313"/></g></g><path d="M355.1806,178.8808c5.0131,0.19273 6.18197,6.92407 5.37747,14.92871c-0.80446,8.00466 -4.51636,14.29892 -8.29076,14.05864c-3.77439,-0.24025 -6.18197,-6.92407 -5.37747,-14.92871c0.80446,-8.00466 2.51528,-14.28071 8.29076,-14.05864z" data-paper-data="{&quot;index&quot;:null}" fill="#86c8f5" stroke-width="0"/><path d="M333.77881,196.66542c0.53023,-8.02748 1.80992,-12.50555 7.58959,-12.48116c5.01678,0.02119 6.63065,4.85575 6.10042,12.88321c-0.53022,8.02749 -4.02465,14.44501 -7.80507,14.334c-3.78036,-0.11104 -6.41517,-6.7086 -5.88491,-14.73607z" data-paper-data="{&quot;index&quot;:null}" fill="#86c8f5" stroke-width="0"/><path d="M321.83704,203.66197c0.53023,-8.02748 2.06707,-15.56998 7.84675,-15.5456c5.01678,0.02119 6.37346,7.92018 5.84323,15.94768c-0.53023,8.02748 -4.33758,10.31063 -8.11798,10.1996c-3.78037,-0.11103 -6.10226,-2.57423 -5.57202,-10.60168z" data-paper-data="{&quot;index&quot;:null}" fill="#86c8f5" stroke-width="0"/><path d="M317.89144,192.97482c5.01678,0.02119 6.63065,4.85575 6.10042,12.88321c-0.53023,8.02748 -4.33758,10.31063 -8.11798,10.1996c-3.78037,-0.11103 -6.10226,-2.57423 -5.57202,-10.60168c0.53023,-8.02748 1.80992,-12.50555 7.58959,-12.48116z" data-paper-data="{&quot;index&quot;:null}" fill="#86c8f5" stroke-width="0"/><g stroke-width="0"><g><path d="M111.78472,314.4497l-1.22158,-5.44661c0,0 2.22599,-0.31673 2.84896,-1.44412c0.88015,-1.59267 2.16904,-7.14929 2.16904,-7.14929l2.38958,7.75889c0,0 -2.30553,3.79502 -3.61027,5.00736c-0.94204,0.87527 -2.57579,1.27375 -2.57579,1.27375z" fill="#4d484c"/><g><g><path d="M69.55249,312.28937l2.7818,-6.32416c0,0 13.55868,-12.21195 19.15707,-17.45575c4.30649,-4.0337 11.14306,-10.64069 11.14306,-10.64069l8.33646,25.13142z" fill="#eb59c1"/><path d="M68.54634,301.11455l-6.97762,-28.43629c0,0 27.83702,-1.93505 35.19839,-0.55584c5.34188,1.00082 6.99632,14.79357 6.99632,14.79357l-4.36757,7.27976z" fill="#dd54b6"/><path d="M60.82435,280.8716l-6.16205,-23.17247c0,0 15.05361,4.0643 19.73962,3.79811c6.94375,-0.39449 18.85545,-5.90023 18.85545,-5.90023l5.70163,25.42234z" fill="#ff77d8"/><path d="M58.50455,273.79391l-3.07503,-13.71095l35.15765,-12.24666l2.76599,18.14186z" fill="#ee51c1"/></g><g><g><path d="M64.67991,302.61548l-13.84867,-38.7143l8.19772,-1.83855l13.84867,38.7143z" fill="#a59da1"/><path d="M50.83855,264.09486c0,0 -1.7393,-4.2137 -0.26555,-5.85783c1.47375,-1.64416 6.37736,-3.00345 6.37736,-3.00345l2.09931,7.01973z" fill="#b9b0b5"/><path d="M68.74642,312.61296l-4.01533,-10.03743l8.15854,-1.82974l4.01533,10.03742z" fill="#8b8488"/></g><g><path d="M103.15408,290.50556l-13.84866,-38.71429l4.42918,-0.99337l13.84867,38.71428z" fill="#a59da1"/><path d="M89.67925,252.72954l-2.20458,-6.10678c0,0 2.71472,-1.30615 3.99621,-0.4153c1.28157,0.89083 2.28429,4.78113 2.28429,4.78113z" fill="#b9b0b5"/><path d="M107.20833,300.50585l-4.01533,-10.03744l4.40219,-0.98731l4.01534,10.03742z" fill="#8b8488"/></g><path d="M71.55913,320.77119c0,0 -3.79112,-1.96064 -4.50404,-3.32227c-0.79359,-1.51566 -0.0415,-5.35935 -0.0415,-5.35935l45.55013,-14.71982c0,0 2.47601,1.83656 3.2126,3.19463c1.03239,1.90358 -1.9997,7.62021 -1.9997,7.62021z" fill="#494547"/><path d="M58.12795,258.99828c0,0 -2.38442,-0.04667 -2.93034,-0.51275c-0.5995,-0.51185 0.19592,-2.82456 0.19592,-2.82456c0,0 11.53063,-3.62312 16.60937,-5.09232c5.92063,-1.71277 16.06069,-4.1753 16.06069,-4.1753c0,0 0.78609,1.07801 0.83351,1.67962c0.04597,0.58263 -0.15951,1.78654 -0.15951,1.78654z" fill="#c2b8bd"/><path d="M71.6386,319.50233c0,0 -1.82534,-2.49634 -2.42822,-4.07836c-0.50038,-1.31294 -0.67673,-3.58681 -0.67673,-3.58681l42.87106,-13.77251c0,0 2.66924,2.63264 3.03308,4.25501c0.3909,1.74289 -1.02565,4.69567 -1.02565,4.69567z" fill="#6f696b"/><path d="M83.67934,322.36645l-1.22156,-5.4466l28.72013,-8.08586l1.22157,5.4466z" fill="#333032"/><path d="M72.45261,325.00876c-1.22557,-0.38916 -3.18564,-1.4517 -3.18564,-1.4517l-2.34105,-6.46372c0,0 2.91104,1.67594 4.38708,2.74019c1.04473,0.7533 11.16669,-3.03292 11.16669,-3.03292l1.22159,5.44661c0,0 -10.02301,3.15065 -11.24863,2.76152z" data-paper-data="{&quot;index&quot;:null}" fill="#444043"/><g><path d="M60.72595,273.75563c0,0 -3.55989,-4.06152 -3.96683,-5.75576c-0.28172,-1.17298 1.75959,-3.4337 1.75959,-3.4337l33.55023,-10.62405c0,0 2.23869,2.6994 2.60247,4.21386c0.3718,1.54793 -0.39531,4.97555 -0.39531,4.97555z" fill="#979797"/><path d="M60.54481,272.70368c0,0 -3.46101,-3.52528 -3.83086,-5.01839c-0.25606,-1.03377 1.82475,-3.08022 1.82475,-3.08022l33.64326,-10.11921c0,0 2.17353,2.34562 2.50413,3.68036c0.33791,1.36413 -0.49799,4.41822 -0.49799,4.41822z" fill="#a2a2a2"/></g><g><path d="M66.66856,289.37333c0,0 -3.55989,-4.06152 -3.96683,-5.75576c-0.28172,-1.17298 1.75958,-3.43371 1.75958,-3.43371l33.55023,-10.62404c0,0 2.23871,2.69939 2.60249,4.21385c0.3718,1.54793 -0.39532,4.97554 -0.39532,4.97554z" fill="#979797"/><path d="M66.48735,288.32143c0,0 -3.461,-3.52527 -3.83084,-5.01839c-0.25608,-1.03371 1.82475,-3.08022 1.82475,-3.08022l33.64327,-10.11918c0,0 2.17352,2.34562 2.50413,3.68036c0.3379,1.36413 -0.498,4.41821 -0.498,4.41821z" fill="#a2a2a2"/></g><g><path d="M72.82393,305.45088c0,0 -3.55989,-4.06152 -3.96683,-5.75576c-0.28172,-1.17298 1.75959,-3.4337 1.75959,-3.4337l33.55023,-10.62404c0,0 2.23869,2.6994 2.60248,4.21386c0.3718,1.54793 -0.39532,4.97554 -0.39532,4.97554z" fill="#7a7a7a"/><path d="M72.64276,304.39902c0,0 -3.46102,-3.52527 -3.83086,-5.01839c-0.25608,-1.03371 1.82475,-3.0802 1.82475,-3.0802l33.6433,-10.11922c0,0 2.1735,2.34564 2.50414,3.68037c0.3379,1.36413 -0.49799,4.41823 -0.49799,4.41823z" fill="#929292"/></g></g></g></g><path d="M66.14609,306.33874c0,0 -0.75179,-1.59048 -1.55494,-3.77839c-2.35774,-6.42353 -13.97965,-38.54479 -13.97965,-38.54479l4.03285,3.50541l9.75271,27.96837z" fill="#777275"/></g></g><g stroke-width="0"><path d="M140.71173,197.7462l1.76445,-3.80764c0,0 1.44932,-1.79707 2.31443,-1.70925c0.9864,0.1001 3.28798,2.27777 3.28798,2.27777l0.36448,4.10158c0,0 -4.17909,0.92954 -5.44389,1.07661c-0.57018,0.0663 -2.28747,-1.93904 -2.28747,-1.93904z" fill="#c0c0c0"/><path d="M100.94526,216.55569c0,0 -0.80244,-2.77159 -0.01823,-4.11464c0.9828,-1.68311 6.43126,-5.17221 6.43126,-5.17221l0.34333,4.77781l0.6393,2.85038z" fill="#838383"/><path d="M100.76091,216.52087l6.27108,-9.07356l36.65183,-8.2201l1.63719,7.29993z" fill="#999999"/><path d="M101.5921,215.66169l4.73213,-7.04749l32.95368,-7.39071l1.27829,5.69954c0,0 -3.9885,0.89455 -9.11924,2.04526c-3.33583,0.74812 -7.38683,0.56829 -10.90609,1.35756c-3.77529,0.84669 -6.97363,2.65241 -9.09406,3.12802c-4.15006,0.93074 -9.84465,2.20791 -9.84465,2.20791z" fill="#dd54b6"/><path d="M104.99915,214.89534l6.87416,-7.59164l12.16198,-2.72764c0,0 -6.77988,3.47531 -8.8924,4.88636c-2.24268,1.49798 -4.91515,4.26028 -4.91515,4.26028z" fill="#a5899d"/><path d="M112.77,213.03699c0,0 4.74913,-2.0614 7.14673,-2.59911c3.06348,-0.68706 9.73091,-1.18611 9.73091,-1.18611l-9.49345,1.78559z" fill="#adadad"/><path d="M100.85897,216.48024l5.66471,-8.18982l34.11915,-7.65206l0.15072,0.67189c0,0 -29.5429,6.62573 -33.39386,7.48941c-0.80548,0.18069 -6.54065,7.68059 -6.54065,7.68059z" fill="#8a8a8a"/><path d="M148.24762,212.24286l-2.13483,-9.51887l-0.94107,-7.16971c0,0 1.26121,0.19868 1.92502,0.62733c0.66379,0.42862 1.28479,1.44517 1.28479,1.44517l1.83035,14.17558z" fill="#9e9e9e"/><path d="M142.00234,209.30762c0,0 -1.35467,-1.87389 -1.83583,-3.39456c-0.64792,-2.04779 -1.02074,-7.61948 -1.02074,-7.61948l1.82318,-0.74235c0,0 0.91376,0.60652 1.34743,0.35641c0.59792,-0.34478 1.9082,-2.23412 1.9082,-2.23412l2.31448,12.61662z" fill="#9c9c9c"/><path d="M142.96297,210.96838c-1.00511,-0.90646 -1.07103,-2.2989 -1.07103,-2.2989l3.1837,-8.09329c0,0 2.20976,3.48465 2.41031,4.37891c0.57019,2.54236 2.59172,6.9567 2.59172,6.9567c0,0 -2.88952,0.73388 -3.99922,0.53321c-1.33089,-0.24063 -2.11038,-0.57022 -3.11555,-1.47665z" fill="#888888"/><path d="M144.53112,209.8232c-1.40193,-1.73503 -3.36465,-5.86875 -2.45538,-10.24049c0.90927,-4.37172 3.73148,-2.82054 3.73148,-2.82054c0,0 1.95,4.09553 2.45619,6.3523c0.46106,2.05576 0.45805,6.64171 0.45805,6.64171c0,0 -2.78841,1.80204 -4.19035,0.06699z" fill="#b4b4b4"/><path d="M146.90798,201.4036c0.30877,1.37685 -4.66035,2.57065 -4.96918,1.19379c-0.30877,-1.37685 1.4936,-7.31748 2.28632,-7.49528c0.30701,-0.06884 0.95753,-0.11038 1.3814,0.88159c0.67053,1.56936 1.11222,4.57625 1.3014,5.41988z" fill="#bbbbbb"/></g><g stroke-width="0"><path d="M98.51966,215.36511c0,0 -6.79073,-3.51649 -7.20073,-5.34449c-0.33474,-1.49255 5.52823,-2.93365 5.52823,-2.93365l7.37812,-1.5811l-1.56774,11.39834z" fill="#f399c8"/><path d="M69.09272,223.64726c0,0 -1.40565,-1.8347 -1.38939,-2.93772c0.01797,-1.21726 1.23942,-5.18567 1.23942,-5.18567l22.43912,-5.22279l10.79201,6.41695z" fill="#ee96c3"/></g><path d="M72.03741,214.68777c-6.02209,-6.85004 0.86796,-2.13935 12.88518,-8.22929c2.43877,-1.23589 10.7561,-7.51575 21.85858,-12.92191c12.53707,-6.10471 12.75081,-10.64589 24.95625,-13.24139c8.30574,-1.76622 14.89206,-7.52168 20.3134,-4.52119c5.42133,3.00049 4.75542,11.70371 -1.48504,10.54993c-1.28098,-0.23683 -12.81492,5.21576 -14.74232,6.34708c-8.88721,5.21646 -17.4374,8.14763 -17.44682,15.08172c-0.00093,0.68967 -0.80134,9.2325 3.80354,13.5835c2.35888,2.22881 9.70775,1.54767 11.89435,1.90506c6.4552,1.0551 14.58058,-4.59936 15.30098,-6.52017c2.16473,-5.77186 4.75733,-10.95151 4.68704,-13.56301c-0.07028,-2.6115 5.12728,-6.08742 6.58517,-7.67184c1.4228,-1.54629 4.84032,2.37224 7.08847,4.73735c2.24815,2.36512 0.747,12.43865 0.83229,12.75965c1.41304,5.31832 -5.9518,8.1238 -12.08756,19.11682c-8.49905,15.22716 -19.46804,13.77354 -29.1918,13.16633c-2.93742,-0.18342 -4.07257,1.61793 -6.71749,2.07237c-1.2367,0.21248 -4.30915,1.81129 -5.30803,2.31749c-17.59419,8.91617 -24.68516,13.62079 -33.60132,-3.97342c-0.06746,-0.13312 -9.62487,-30.99507 -9.62487,-30.99507z" data-paper-data="{&quot;index&quot;:null}" fill="#86c8f5" stroke-width="0"/></g></g></svg>