<svg version="1.1" xmlns="http://www.w3.org/2000/svg" xmlns:xlink="http://www.w3.org/1999/xlink" width="119.69768" height="48.1028" viewBox="0,0,119.69768,48.1028"><g transform="translate(-249.97674,-64)"><g data-paper-data="{&quot;isPaintingLayer&quot;:true}" fill="#302f31" fill-rule="evenodd" stroke="none" stroke-width="1" stroke-linecap="butt" stroke-linejoin="miter" stroke-miterlimit="10" stroke-dasharray="" stroke-dashoffset="0" style="mix-blend-mode: normal"><path d="M302.79442,88.05541c0,-2.78395 1.47916,-4.91477 3.87775,-5.68121c0.41302,1.8267 0.63081,3.7265 0.63081,5.6768c0,1.94469 -0.2166,3.83927 -0.62721,5.66103c-2.40073,-0.76457 -3.88136,-2.89178 -3.88136,-5.65662zM308.10564,97.51656c-3.04036,7.26379 -9.47465,12.7757 -17.33866,14.58624c6.87122,-2.6693 12.3194,-8.15543 14.90278,-15.02718c-3.89379,-1.22194 -6.46622,-4.75109 -6.46622,-9.02021c0,-4.29077 2.57337,-7.80775 6.46836,-9.02315c-2.58219,-6.87388 -8.03063,-12.3619 -14.90278,-15.03226c7.86601,1.81178 14.30136,7.32687 17.33999,14.59412c0.20925,-0.01216 0.42103,-0.01831 0.63509,-0.01831c3.3549,0 6.3167,1.69282 7.88939,4.29705l-3.11907,1.79704c-0.81588,-1.47823 -2.37868,-2.43267 -4.24601,-2.58339c0.47742,1.91008 0.73076,3.90795 0.73076,5.96461c0,2.05025 -0.25174,4.04211 -0.72635,5.94698c1.86919,-0.15166 3.45031,-1.10369 4.2416,-2.55706l3.11907,1.79691c-1.54651,2.60437 -4.5083,4.29718 -7.88939,4.29718c-0.08271,0 -0.16502,-0.00094 -0.24693,-0.00281l-0.05719,-0.00134c-0.11211,-0.00307 -0.22368,-0.00802 -0.33445,-0.01443zM350.54447,78.94033v18.23016h-2.75201l-7.86321,-11.14636v11.14636h-3.61706v-16.43272l-2.27673,-1.80265l2.29303,0.00321v0.002h2.73585l7.86321,11.12043v-11.12043zM255.60111,82.37808v4.32311h7.12929v3.43775h-7.12929v7.03156h-3.61705v-16.64611l-2.00732,-1.58926l2.29306,0.00321v0.002h13.05775v3.43775zM275.47617,93.88908h-7.31283l-1.10089,3.28141h-3.90528l5.92092,-16.80899l-1.80158,-1.42638l2.29303,0.00321v0.02793l0.00922,-0.02592h4.48198l6.44778,18.23016h-3.9316zM272.96707,90.5295l2.02112,1.67812l-0.63923,-1.67812l-2.51604,-7.44832l-2.51631,7.44832zM294.05454,90.29513c2.09688,-0.96353 3.5385,-3.02099 3.5385,-5.31269c0,-3.33352 -2.72596,-6.04211 -6.10705,-6.04211h-9.17387v-0.002l-2.29303,-0.00321l2.27099,1.79811v16.43726h3.61706v-6.32846h4.60905l3.69563,6.32846h4.45085zM293.97597,84.98244c0,1.51043 -1.12708,2.70846 -2.48999,2.70846h-5.57886v-5.39099h5.57886c1.36291,0 2.48999,1.17197 2.48999,2.68253zM328.03851,78.94033h-4.4586v-0.002l-2.29303,-0.00321l1.77606,1.40634l-5.928,16.82903h3.90541l1.10075,-3.28141h7.31283l1.10075,3.28141h3.9316zM328.32672,90.5295l0.63923,1.67812l-2.02112,-1.67812h-3.65047l2.51631,-7.44832zM364.64193,93.88908h-7.3127l-1.10089,3.28141h-3.90541l5.92974,-16.83358l-1.77045,-1.4018l2.29303,0.00321v0.002h4.45138l6.44778,18.23016h-3.9316zM362.13297,90.5295l2.02112,1.67812l-0.63923,-1.67812l-2.51618,-7.44832l-2.51618,7.44832z"/></g></g></svg>