<svg version="1.1" xmlns="http://www.w3.org/2000/svg" xmlns:xlink="http://www.w3.org/1999/xlink" width="465.54343" height="159.59545" viewBox="0,0,465.54343,159.59545"><defs><linearGradient x1="499.42508" y1="210.98875" x2="500.14144" y2="215.74673" gradientUnits="userSpaceOnUse" id="color-1"><stop offset="0" stop-color="#1f1d20"/><stop offset="1" stop-color="#202022"/></linearGradient><linearGradient x1="499.13697" y1="206.12233" x2="499.96118" y2="211.59688" gradientUnits="userSpaceOnUse" id="color-2"><stop offset="0" stop-color="#302d31"/><stop offset="1" stop-color="#1f1e20"/></linearGradient><linearGradient x1="175.23988" y1="303.49817" x2="175.74456" y2="306.85048" gradientUnits="userSpaceOnUse" id="color-3"><stop offset="0" stop-color="#585758"/><stop offset="1" stop-color="#575758"/></linearGradient><linearGradient x1="163.77323" y1="315.41658" x2="164.16945" y2="318.0483" gradientUnits="userSpaceOnUse" id="color-4"><stop offset="0" stop-color="#363536"/><stop offset="1" stop-color="#353536"/></linearGradient><linearGradient x1="291.72605" y1="202.30533" x2="292.55062" y2="207.7821" gradientUnits="userSpaceOnUse" id="color-5"><stop offset="0" stop-color="#5e555b"/><stop offset="1" stop-color="#2b2629"/></linearGradient><linearGradient x1="279.00042" y1="183.3214" x2="279.59535" y2="187.27303" gradientUnits="userSpaceOnUse" id="color-6"><stop offset="0" stop-color="#72676e"/><stop offset="1" stop-color="#5e555b"/></linearGradient><linearGradient x1="169.37168" y1="213.88184" x2="170.25425" y2="219.74383" gradientUnits="userSpaceOnUse" id="color-7"><stop offset="0" stop-color="#5e555b"/><stop offset="1" stop-color="#4d454a"/></linearGradient><linearGradient x1="167.24987" y1="199.78841" x2="167.86957" y2="203.9043" gradientUnits="userSpaceOnUse" id="color-8"><stop offset="0" stop-color="#74686f"/><stop offset="1" stop-color="#5e555b"/></linearGradient></defs><g transform="translate(-39.4483,-182.16651)"><g data-paper-data="{&quot;isPaintingLayer&quot;:true}" fill-rule="nonzero" stroke="none" stroke-linecap="butt" stroke-linejoin="miter" stroke-miterlimit="10" stroke-dasharray="" stroke-dashoffset="0" style="mix-blend-mode: normal"><g><g stroke-width="0"><path d="M233.71158,279.53453l-12.40073,-13.65122l25.20255,-4.39115c0,0 -0.21843,5.92742 -0.01439,8.62561c0.19742,2.61008 1.21953,7.30798 1.21953,7.30798z" fill="#7f7d7e"/><path d="M233.83816,279.71453l-4.43379,-5.00258c0,0 2.86154,3.16432 6.15314,3.29041c2.37026,0.09077 4.18926,-0.49652 6.88861,-0.57848c2.69933,-0.08196 5.20451,0.21119 5.20451,0.21119z" fill="#6c6a6b"/></g><g><g><g><path d="M497.18367,216.19208l-2.75239,-4.45145c0,0 6.17152,0.74739 8.87285,1.24359c2.70136,0.49624 1.34918,1.84873 1.34918,1.84873z" fill="url(#color-1)" stroke-width="0"/><path d="M502.7113,205.78612c0,0 1.8097,2.0816 -0.62579,3.3512c-2.43546,1.26962 -5.1241,2.9112 -5.1241,2.9112l-1.78407,-5.33002z" data-paper-data="{&quot;index&quot;:null}" fill="url(#color-2)" stroke-width="0"/><path d="M487.67231,217.61936l-0.31239,-2.075l14.60795,-2.19928c0,0 1.36184,0.59822 1.89876,0.88781c0.48264,0.26032 -0.58739,1.03682 -0.58739,1.03682z" fill="#444444" stroke-width="NaN"/><path d="M487.4146,215.68124l-1.4385,-1.5571l12.47508,-1.87817l3.60067,1.11848c0,0 -4.13544,0.8633 -6.41197,1.2236c-2.56747,0.40635 -8.22526,1.09312 -8.22526,1.09312z" fill="#535353" stroke-width="0"/><path d="M485.88552,214.276l-0.41642,-0.58451l11.34593,-1.70822l1.74496,0.26892z" fill="#363636" stroke-width="0"/><path d="M487.67231,217.61936l-0.16948,-1.12569c0,0 6.44921,-0.51223 9.29689,-0.94097c2.41319,-0.36329 6.70247,-1.46781 6.70247,-1.46781c0,0 0.92329,0.32844 1.1981,0.49225c0.23181,0.13819 -0.17545,0.50499 -0.17545,0.50499c0,0 -4.6198,1.10459 -6.90775,1.44901c-3.08677,0.46472 -9.94486,1.08817 -9.94486,1.08817z" fill="#3a3a3a" stroke-width="NaN"/><path d="M485.78918,213.6618l-0.67889,-0.79146l13.48961,-2.03089l-1.66468,1.17858z" fill="#242424" stroke-width="0"/><path d="M484.33942,213.17776l-0.24626,-1.63587c0,0 7.97246,-1.40882 10.93482,-1.8548c2.01827,-0.30386 5.12076,-0.56244 5.12076,-0.56244l-1.5717,1.74276z" fill="#3a3a3a" stroke-width="0"/><path d="M483.97132,211.60322l-0.30408,-2.01978c0,0 7.5189,-1.46561 10.79623,-1.95904c2.83602,-0.42696 7.736,-0.83107 7.736,-0.83107l-2.08715,2.3798c0,0 -3.62645,0.46258 -5.84588,0.79675c-2.95013,0.44417 -10.29514,1.63336 -10.29514,1.63336z" fill="#444444" stroke-width="0"/><path d="M483.63723,209.67399l-0.12666,-0.84158c0,0 7.76767,-1.29455 11.32483,-1.83009c2.47687,-0.37291 7.97607,-1.07576 7.97607,-1.07576l-0.7287,0.97038c0,0 -5.04064,0.46695 -7.97281,0.9084c-3.23051,0.48636 -10.47266,1.86863 -10.47266,1.86863z" fill="#535353" stroke-width="0"/><path d="M483.39512,208.93589l-0.05068,-0.33664c0,0 7.51526,-1.64423 10.93708,-2.15936c2.95844,-0.4454 8.40644,-0.75286 8.40644,-0.75286l0.08785,0.33105c0,0 -5.96648,0.73147 -9.17534,1.21455c-3.25081,0.48942 -10.2053,1.70328 -10.2053,1.70328z" fill="#4e4e4e" stroke-width="0"/></g><g stroke-width="0"><g><g><g><path d="M481.81112,218.00828l-6.49048,-12.3348l0.29059,-1.78449c0,0 3.91682,2.67592 5.1997,5.00121c0.69645,1.2624 2.43856,8.90155 2.43856,8.90155z" fill="#383638"/><path d="M482.74766,217.16813c0,0 -0.03303,-0.61157 -1.02012,-2.94551c-1.07644,-2.54523 -2.99488,-5.93448 -3.54352,-6.93791c-1.23158,-2.25247 -1.99748,-2.26913 -1.99748,-2.26913l4.6599,-1.28995l6.9354,12.68461z" fill="#555355"/><path d="M476.26251,205.09042l-0.75942,-1.13597c0,0 1.87857,-1.09187 2.82947,-1.23501c0.89103,-0.13415 2.12193,0.41601 2.12193,0.41601l0.77019,1.20786z" fill="#686668"/></g><path d="M476.20163,218.85281l-6.49048,-12.33479l-0.03355,-1.71535c0,0 4.24097,2.60673 5.52379,4.93201c0.69646,1.26239 2.43857,8.90155 2.43857,8.90155z" fill="#383638"/><path d="M477.13813,218.01262c0,0 -0.03303,-0.61158 -1.02012,-2.94551c-1.07644,-2.54523 -2.99488,-5.93448 -3.54352,-6.93791c-1.23158,-2.25247 -1.99748,-2.26913 -1.99748,-2.26913l3.84382,-1.67274c0,0 1.20141,1.0875 1.5768,1.77402c1.0695,1.95605 6.17474,11.2933 6.17474,11.2933z" fill="#555355"/><path d="M470.65297,205.93489l-0.97516,-1.1035c0,0 2.09434,-1.12433 3.04525,-1.26749c0.89103,-0.13415 1.83427,0.45933 1.83427,0.45933l0.89386,1.1893z" fill="#686668"/><path d="M483.40894,216.06358c-0.12201,-0.81039 0.43606,-1.56624 1.24642,-1.68823c0.8104,-0.12202 1.56624,0.43606 1.68823,1.24642c0.12201,0.81039 -0.43606,1.56624 -1.24641,1.68823c-0.8104,0.12202 -1.56624,-0.43606 -1.68823,-1.24642z" fill="#312f31"/><path d="M483.62114,213.06937l-2.80285,-5.18705l1.55229,-0.37864l2.81248,5.25087z" fill="#444144"/></g><path d="M436.56803,219.79737l-5.3341,-10.14243l29.72445,-3.28539l0.97087,9.6096z" fill="#444444"/><path d="M448.48509,214.04362c0,0 0.55119,-0.61079 1.10095,-1.81093c0.50266,-1.09728 0.99222,-2.76667 1.30354,-3.2825c0.71032,-1.83264 3.1319,-1.72514 3.1319,-1.72514l-0.87145,0.79162l-3.53478,5.85687z" fill="#292929"/><path d="M452.82082,224.03896l-8.0751,-9.87931c0,0 3.53885,0.00449 5.06732,-1.28651c1.18772,-1.00325 0.70277,-3.59187 2.22076,-4.1045c4.35513,-1.47066 17.02162,-3.81642 17.02162,-3.81642c0,0 4.26776,6.58296 5.61447,9.2998c0.9297,1.87563 1.99647,6.19697 1.99647,6.19697z" fill="#4a464a"/><path d="M454.96031,210.46055c-4.60466,0.05003 -3.38297,-1.51321 -3.38297,-1.51321c0,0 0.59001,-1.40574 2.41478,-1.82825c4.47791,-1.03688 13.11054,-1.75317 14.80976,-2.0349c0.80134,-0.1329 0.44627,0.63646 0.44627,0.63646c0,0 -1.11756,2.58111 -2.61307,3.06316c-1.49558,0.48207 -7.0701,1.62676 -11.67482,1.67677z" fill="#5e595e"/></g><g><path d="M442.12734,232.29833l-7.77395,-16.96723l18.73972,-2.53178l5.39037,3.56558l6.01658,-1.00547l4.93251,12.82796z" fill="#4d4846"/><path d="M446.82326,231.98278l19.02786,-12.36208l22.03682,-3.56285c0,0 1.92011,3.94097 2.26314,5.25914c0.17488,0.67208 0.28506,2.93439 0.28506,2.93439z" fill="#423d3b"/><path d="M441.81468,224.3322l-4.60987,-9.26307l0.81136,-0.12213l4.60987,9.26307z" fill="#363332"/><path d="M447.28297,231.10293l-0.18122,-1.20383c0,0 4.82684,-3.30084 13.7907,-4.65038c1.19098,-0.17929 5.77091,1.70527 6.97134,1.52459c7.61626,-1.14665 15.07114,-2.26901 17.90723,-2.69601c2.30974,-0.34771 4.47484,-1.98835 4.47484,-1.98835l0.37477,2.48936z" fill="#312e2c"/><path d="M447.72972,218.15192l-2.41131,-4.30433l8.21511,-1.23683l4.76695,3.75347l6.26514,-0.74696l-7.21505,3.05692z" fill="#585350"/><path d="M439.39422,226.51162l-0.16797,-1.11563c0,0 7.39887,-4.89971 10.244,-5.32807c4.28805,-0.64559 16.12595,-2.42782 16.12595,-2.42782l0.16797,1.11563c0,0 -12.04083,1.81278 -16.3288,2.45841c-2.78673,0.4195 -10.04117,5.29752 -10.04117,5.29752z" fill="#2b2827"/></g></g></g><g><g><g><path d="M114.84123,318.50897c0.86736,2.12855 0.9469,4.73532 -0.09262,5.15889c-1.03949,0.42359 -2.8045,-1.49634 -3.67188,-3.62498c-0.86736,-2.12855 -4.25373,-10.28573 -3.21417,-10.70933c1.03949,-0.42359 6.11133,7.04676 6.97868,9.17538z" fill="#615e5f" stroke-width="0"/><g><path d="M151.51447,282.72144c-0.61186,-0.44144 -3.12183,-1.39072 -3.12183,-1.39072l9.38069,-4.32476l-4.86122,8.013c0,0 -0.78575,-1.85607 -1.39766,-2.29754z" fill="#756a6a" stroke-width="0"/><path d="M142.33584,282.38695l-2.04458,-13.58027l17.45337,-8.56044l2.918,19.3816z" fill="#8a7c7c" stroke-width="0"/><path d="M103.5571,293.73369l3.89275,-18.92376l34.52419,-5.33256l6.36857,11.8506c0,0 -22.49908,4.98114 -29.96999,7.05062c-3.10128,0.85905 -14.81555,5.35515 -14.81555,5.35515z" fill="#7c787a" stroke-width="0"/><path d="M107.92491,277.17032l-0.36703,-1.44291c0,0 25.63529,-3.85953 33.6943,-5.07283c4.50904,-0.67887 15.0198,-8.70344 15.0198,-8.70344l0.24262,1.6115c0,0 -10.2227,7.9617 -14.58572,8.60378c-8.00015,1.17729 -34.00397,5.00396 -34.00397,5.00396z" fill="#535353" stroke-width="0"/><path d="M71.94048,299.20953l-3.00044,-19.92941c0,0 3.43045,-7.6501 10.25208,-10.99897c8.47274,-4.15942 25.43908,-4.90855 27.48668,-5.21682c1.57129,-0.23656 -11.21295,12.22222 -11.21295,12.22222l3.00044,19.92941z" fill="#8d898b" stroke-width="0"/><path d="M236.09095,227.83322l1.11667,-3.34781l106.38769,-15.87264l2.19538,14.5819c0,0 -37.08484,7.44961 -49.23143,8.85748c-6.03232,0.69921 -60.46834,-4.219 -60.46834,-4.219z" fill="#c98cac" stroke-width="0"/><path d="M229.70483,330.93306l-6.41894,-12.11582c0,0 5.95017,5.00948 8.92639,5.65036c1.89624,0.40833 6.1321,0.1567 11.81194,-3.16337c4.57244,-2.6727 8.8631,-8.89162 8.8631,-8.89162l-9.33484,16.43555z" fill="#a08e97" stroke-width="0"/><path d="M312.20141,271.0681l-5.82853,-23.0101l18.13184,-4.14836l3.15574,20.96081c0,0 -6.07017,2.65239 -8.7005,3.75457c-1.21113,0.50748 -6.7585,2.44316 -6.7585,2.44316z" fill="#96858d" stroke-width="0"/><path d="M228.44532,334.91067l-0.82481,-5.47841c0,0 12.23677,0.24957 16.34011,-3.52472c1.99699,-1.83683 15.54458,-25.04488 22.99292,-37.92931c2.90668,-5.02814 4.88457,-8.48404 4.88457,-8.48404c0,0 2.76015,-4.23128 2.33503,-7.08196c-0.21386,-1.43402 -0.37127,-5.63615 -1.53763,-7.79793c-1.17679,-2.18114 -3.36177,-2.31562 -3.36177,-2.31562l-6.83844,-12.6957l19.61659,-2.80805l1.07917,26.71033l4.0977,1.9738c0,0 -8.55528,7.35577 -12.39481,12.94539c-6.00749,8.74564 -24.61256,42.27402 -24.61256,42.27402z" fill="#918189" stroke-width="0"/><path d="M289.33212,274.8679l-3.05836,-28.4658l13.66318,-1.77817l12.03501,10.32553l0.21429,16.47769z" fill="#96858d" stroke-width="0"/><path d="M285.13325,277.37002l-3.09848,-3.726l-0.39954,-26.4249l5.01065,-0.84003l3.58781,28.36871z" fill="#8f8187" stroke-width="0"/><path d="M310.98108,271.71329c0,0 1.72853,-7.00241 -0.41468,-12.15155c-1.23404,-2.96485 -6.38346,-4.1815 -7.13996,-5.99905c-1.44508,-3.47202 -3.68072,-8.84321 -3.68072,-8.84321l8.41726,3.1459c0,0 4.44216,6.62624 5.66761,10.75131c0.8234,2.77138 0.30545,9.29724 -0.22391,12.00511c-0.04464,0.22829 -1.22009,0.321 -1.24653,0.49219c-0.0646,0.41814 0.92332,0.50336 0.92332,0.50336z" fill="#86787e" stroke-width="0"/><path d="M308.17404,249.38051c0,0 -3.64516,-3.4507 -8.42015,-3.7144c-5.40581,-0.2985 -22.35769,2.01489 -22.35769,2.01489l153.86819,-37.50707l4.76223,8.68966l9.4885,9.83971c0,0 -100.05149,12.46271 -120.41037,15.52783c-6.6434,1.00018 -16.93072,5.14941 -16.93072,5.14941z" fill="#df8db7" stroke-width="0"/><path d="M162.71386,319.09324l-10.14425,-35.15133c0,0 1.10609,-3.95949 1.56958,-4.24734c5.11001,-3.17397 35.2038,-18.4766 40.62507,-19.00324c5.93872,-0.57699 -7.23523,13.46942 -7.23523,13.46942c0,0 -13.94763,4.14862 -15.82434,8.72895c-2.54801,6.21874 4.82887,22.65722 4.82887,22.65722z" fill="#c77da3" stroke-width="0"/><path d="M229.87147,278.71622l-2.08295,-1.81538c0,0 5.20457,-9.48716 7.26972,-12.11661c2.13202,-2.71467 5.32815,-3.92409 5.32815,-3.92409l6.21208,1.39287c0,0 -4.501,0.16943 -6.58292,2.21845c-1.78723,1.75905 -5.03918,5.362 -7.34779,8.83675c-1.67939,2.52763 -2.79625,5.40794 -2.79625,5.40794z" fill="#414041" stroke-width="0"/><path d="M107.45333,276.18323l3.00623,-12.27387l48.08653,-7.23963c0,0 -2.20295,4.83737 -4.99508,7.24601c-2.74036,2.36406 -11.60533,7.07449 -11.60533,7.07449z" fill="#979395" stroke-width="0"/><path d="M108.07424,274.93401l2.2151,-12.15475l48.08653,-7.23963c0,0 -2.20295,4.83737 -4.99508,7.24601c-2.74036,2.36406 -11.60533,7.07449 -11.60533,7.07449z" fill="#bdb7ba" stroke-width="0"/><path d="M313.41014,271.67195l-1.92849,-0.22893l16.03961,-6.63666c0,0 -3.21439,2.56453 -5.55203,3.72235c-2.33762,1.15786 -8.55907,3.14324 -8.55907,3.14324z" fill="#887980" stroke-width="0"/><path d="M165.24104,319.18247c0,0 -3.87217,-10.00046 -6.33111,-18.26493c-2.47088,-8.30478 -4.76301,-16.09712 -5.31855,-19.6386c-0.09409,-0.59999 0.05718,-10.66536 0.47377,-11.25532c2.24856,-3.1847 11.05697,3.32005 16.39478,1.40042c7.90351,-2.84232 26.72255,-6.19547 26.72255,-6.19547l-7.56886,6.51007c0,0 -18.80629,5.72877 -20.40651,11.1648c-2.16439,7.35281 8.42943,26.86585 8.42943,26.86585z" fill="#d486ae" stroke-width="0"/><path d="M165.83611,315.53445c0,0 -12.67171,-39.4244 -12.85982,-49.58668c-0.08803,-4.75482 -4.76138,-13.26168 -4.76138,-13.26168l51.14006,-0.65213l3.80049,15.67892c0,0 -32.1457,1.7116 -37.49133,8.86109c-3.5684,4.7725 7.36955,31.68714 7.36955,31.68714z" fill="#e490bb" stroke-width="0"/><g stroke-width="0"><path d="M293.33917,232.63468l-1.23197,-8.18267l9.25565,-1.39346l1.23197,8.18267z" fill="#454545"/><path d="M294.0484,231.75441l-1.43927,-7.16367l11.19998,-1.6862l1.0865,7.21678z" fill="#b0b0b0"/><path d="M293.15212,227.34975l-0.64739,-2.76473l11.41419,-1.71845l0.28399,1.88612c0,0 -7.65804,1.47905 -9.31782,1.86911c-0.55461,0.13032 -1.73295,0.72796 -1.73295,0.72796z" fill="#bebebe"/><path d="M305.06436,229.54021c0,0 -5.85936,-1.70203 -5.8527,-5.49294c0.00991,-5.63326 4.15636,-5.77408 4.15636,-5.77408l39.99245,-4.67266l1.4978,9.94847z" fill="#9c989a"/><path d="M306.63979,227.99925c0,0 -2.98295,-3.10949 -3.36236,-3.98965c-0.56243,-1.30467 0.96988,-4.52601 0.96988,-4.52601l41.13716,-6.15967l0.71934,7.46474z" fill="#898587"/><path d="M306.57995,228.20874l-1.29695,-1.76596l37.8057,-5.69177l0.28873,1.91776z" fill="#c1bcbf"/><path d="M305.95486,224.87068c0,0 -1.52212,-1.15423 -1.6617,-2.08113c-0.13057,-0.86704 0.84965,-3.31263 0.84965,-3.31263l38.23578,-5.75652l0.81201,5.39377z" fill="#0d0d0d"/><path d="M306.07058,225.63935c0,0 -1.61201,-1.75126 -1.75156,-2.67818c-0.13057,-0.86704 0.93949,-2.7156 0.93949,-2.7156l38.23579,-5.75652l0.81201,5.39377z" fill="#2e2e2e"/><path d="M301.58169,228.23989c-3.06604,-2.63993 -2.2617,-5.1239 -2.2617,-5.1239c0,0 2.42407,3.79372 3.77942,4.49741c1.60469,0.83306 5.37764,1.64642 5.37764,1.64642l-3.45923,0.59175c0,0 -2.89654,-1.14709 -3.43607,-1.61166z" fill="#7d7a7c"/><path d="M308.68773,225.55846c0,0 -1.20829,-2.05503 -1.37854,-3.18585c-0.14965,-0.99405 0.41081,-3.24173 0.41081,-3.24173l4.76957,-0.71807c0,0 -0.12786,2.24806 0.00141,3.10662c0.17765,1.17999 0.96631,3.32091 0.96631,3.32091z" fill="#555555"/><path d="M317.2084,224.27573c0,0 0.2836,-2.59424 0.11332,-3.72505c-0.14965,-0.99405 -1.08103,-2.7025 -1.08103,-2.7025l5.32334,-0.80143c0,0 -0.15669,1.75798 -0.02744,2.61656c0.17765,1.17999 0.99515,3.81101 0.99515,3.81101z" fill="#555555"/><path d="M326.43114,222.88714c0,0 0.28361,-2.59424 0.11334,-3.72505c-0.14965,-0.99405 -1.08103,-2.70249 -1.08103,-2.70249l5.24423,-0.78955c0,0 -0.15669,1.75798 -0.02744,2.61656c0.17765,1.17999 0.99515,3.81101 0.99515,3.81101z" fill="#555555"/><path d="M335.98674,221.44851c0,0 0.51234,-2.26907 0.34207,-3.39994c-0.14965,-0.99405 -1.30977,-3.02759 -1.30977,-3.02759l5.08603,-0.76571c0,0 1.11356,1.83642 1.24284,2.69504c0.17765,1.17999 -0.2751,3.73258 -0.2751,3.73258z" fill="#555555"/><path d="M307.56165,219.8667l-0.77682,-0.69205l35.16629,-5.29443l-1.39805,1.01948c0,0 -2.79853,0.42132 -5.23328,0.7879c-0.53071,0.07986 -1.58392,-0.09396 -2.37889,0.02565c-0.7686,0.11572 -1.27135,0.52388 -2.22679,0.66772c-1.48989,0.22428 -3.1709,0.47741 -4.93074,0.74235c-0.7296,0.10985 -1.42155,-0.17386 -2.17028,-0.06114c-0.66576,0.10026 -1.38718,0.59669 -2.05609,0.69744c-1.66015,0.24996 -3.30397,0.49742 -4.84945,0.73011c-0.70971,0.10685 -1.46394,-0.22289 -2.12422,-0.12348c-0.80609,0.12134 -1.50418,0.66977 -2.21049,0.77612c-2.88101,0.43374 -4.81123,0.72436 -4.81123,0.72436z" fill="#474747"/></g><g><path d="M171.97181,308.10936l3.24876,-3.38887c0,0 3.21251,2.36296 6.14822,2.82602c2.59649,0.40958 10.57355,-0.18839 10.57355,-0.18839l-1.97723,4.70105z" fill="#6d6a6b" stroke-width="0"/><path d="M164.97037,315.73683l8.02914,-8.67722c0,0 3.53464,1.74981 5.77777,2.08144c3.39356,0.5017 12.60225,0.63597 12.60225,0.63597l-3.58881,4.89617z" fill="#615e5f" stroke-width="0"/><path d="M170.2173,337.16186l-4.8274,-22.10066c0,0 4.42362,0.13487 9.19559,-0.55363c3.7247,-0.53741 7.60124,-1.9777 10.14789,-1.7459c4.4708,0.4069 39.46275,7.6337 39.46275,7.6337l3.96565,9.69245z" fill="#575455" stroke-width="0"/><path d="M187.54226,307.20687c6.02751,-6.5354 12.00437,-21.0389 12.86586,-23.76899c0.62064,-1.96679 0.515,-7.28639 0.515,-7.28639l8.63242,5.59198c0,0 8.83611,19.39743 11.88632,31.72748c0.85347,3.45007 3.93027,6.97653 2.97553,8.60327c-0.8554,1.45749 -17.2868,6.24701 -22.73476,6.29381c-11.46508,0.09858 -16.77727,3.71933 -21.26564,-0.93976c-4.48839,-4.65904 1.59977,-11.91657 1.59977,-11.91657c0,0 3.95627,-6.60341 5.52546,-8.30482z" fill="#504e4f" stroke-width="0"/><path d="M187.40744,274.032c0,0 0.16917,-1.53508 0.91785,-2.31877c0.96286,-1.00794 4.38006,-3.22706 4.38006,-3.22706c0,0 9.57035,0.64981 12.91777,2.66392c3.08845,1.85823 -1.59164,12.95993 -1.59164,12.95993l-2.78234,-5.00289z" fill="#464445" stroke-width="0"/><path d="M217.41406,317.27411c0,0 -8.24947,7.56826 -16.61377,9.00091c-8.0691,1.38209 -16.2617,-3.34275 -16.36765,-4.76504c-0.05741,-0.77059 7.29017,-5.21936 10.09944,-9.91132c3.12282,-5.21558 1.79102,-10.78086 2.8275,-12.97c2.89358,-6.1116 9.72911,-17.43392 7.78012,-23.25224c-2.04392,-6.1018 -12.95078,-6.55695 -12.95078,-6.55695c0,0 3.47306,-2.79995 8.38382,-3.6706c2.09182,-0.37087 6.79503,0.3225 7.76535,0.56572c3.18191,0.79755 5.39401,2.11916 5.39401,2.11916c0,0 2.89137,-5.36963 6.40728,-6.21191c3.5159,-0.84224 22.5707,-0.7302 22.5707,-0.7302l-14.15492,14.86701z" fill="#555354" stroke-width="0"/><path d="M197.05634,299.27598c0,0 2.95062,-11.43954 6.81915,-17.51814c3.86853,-6.07854 7.42797,-9.8308 10.92097,-10.35669c2.52946,-0.38081 7.06364,7.64905 7.06364,7.64905l-6.67043,30.09772c0,0 -13.97002,5.41932 -15.8001,3.18623c-1.44542,-1.76371 -2.33315,-13.05816 -2.33315,-13.05816z" fill="#585758" stroke-width="0"/><path d="M223.42465,322.91353c0,0 -3.7678,-5.69359 -3.8951,-8.7307c-0.17784,-4.24281 -0.63393,-16.9707 -0.63393,-16.9707l3.48849,10.02811c0,0 0.81781,9.73423 1.40013,12.71057c0.56182,2.87167 2.29241,4.80601 2.29241,4.80601z" fill="#3f3e3f" stroke-width="0"/><path d="M219.84666,305.38567c-0.44259,-1.62703 -1.32664,-9.29176 -1.32664,-9.29176c0,0 7.28284,-15.82861 8.9619,-18.76437c0.49223,-0.86063 3.55282,-3.07187 3.55282,-3.07187l-0.90527,5.04493c0,0 -1.46638,0.83155 -1.57305,1.33084c-0.11364,0.53194 0.91075,1.76899 0.91075,1.76899l-3.8092,9.14917c0,0 -1.4818,1.24506 -1.58371,1.77148c-0.10197,0.52653 0.71023,1.30244 0.71023,1.30244c0,0 -2.48027,9.41544 -2.95382,11.92875c-0.21895,1.16207 0.22674,2.54369 0.22674,2.54369c0,0 -1.76804,-2.08519 -2.21062,-3.71224z" fill="#474647" stroke-width="0"/><path d="M203.74518,286.60506l22.05021,5.00839c0,0 -1.02497,1.17802 -1.17928,1.74635c-0.11387,0.41938 0.33742,1.3547 0.33742,1.3547z" fill="#3f3e3e" stroke-width="NaN"/><path d="M208.137,275.47424l22.22402,3.79246c0,0 -0.97706,0.99989 -1.10289,1.58148c-0.13114,0.60626 0.39489,1.61839 0.39489,1.61839z" fill="#3f3e3e" stroke-width="NaN"/><path d="M200.10535,305.68666c0,0 11.71858,6.01544 18.42113,11.05127c6.70251,5.03587 4.96315,6.51819 4.96315,6.51819z" fill="#636162" stroke-width="NaN"/><path d="M209.81154,280.90894c0,0 -5.50144,3.76505 -7.75921,7.23578c-2.25781,3.47073 -8.08965,20.71404 -8.52817,17.80134c-0.43851,-2.91271 9.4521,-25.3564 11.22702,-25.62362c0.67192,-0.10115 3.50427,-1.68272 4.3489,-1.56971c1.38664,0.18548 0.71148,2.15622 0.71148,2.15622z" fill="#918f91" stroke-width="0"/><path d="M169.74687,337.10177l13.50631,-3.94302c0,0 12.40606,-2.20382 15.53089,-2.51744c7.60983,-0.76382 30.29402,-2.08218 30.29402,-2.08218l0.49908,6.31717c0,0 -23.55865,7.1525 -30.57213,6.87794c-2.02899,-0.07943 -7.87287,0.17536 -12.28247,-0.52819c-8.62944,-1.37678 -16.97569,-4.1243 -16.97569,-4.1243z" fill="#626061" stroke-width="0"/><path d="M228.53105,334.67807c0,0 -0.59907,-4.25083 -1.39134,-6.49774c-0.89049,-2.52549 -3.69154,-7.91743 -3.69154,-7.91743l1.76248,-0.26534c0,0 2.36355,4.15121 3.16971,6.43749c0.88141,2.49972 1.91321,7.97769 1.91321,7.97769z" fill="#4a494a" stroke-width="0"/><path d="M228.46247,335.53415l-0.41849,-3.37246c0,0 0.59983,0.1774 0.86832,0.13695c0.319,-0.04803 0.87947,-0.40008 0.87947,-0.40008l0.64473,3.11532c0,0 -0.70722,0.5187 -1.06689,0.61348c-0.27559,0.07267 -0.90709,-0.09321 -0.90709,-0.09321z" fill="#363536" stroke-width="0"/><path d="M223.87277,321.23584l-0.62281,-1.54514c0,0 0.35997,-0.41257 0.71552,-0.52604c0.33862,-0.10803 0.87346,-0.06444 0.87346,-0.06444l0.75451,1.64239c0,0 -0.40095,0.5735 -0.69573,0.658c-0.27775,0.0796 -1.02501,-0.16481 -1.02501,-0.16481z" fill="#585758" stroke-width="0"/><path d="M187.08522,340.48183c0,0 -8.24677,-1.7445 -8.44969,-3.09236c-0.20393,-1.35456 5.78946,-3.44088 5.78946,-3.44088c0,0 10.78608,-1.86736 15.71355,-2.43466c2.75859,-0.31757 11.33436,-0.6794 11.33436,-0.6794c0,0 7.36751,-0.04311 8.34499,0.97445c1.06619,1.10993 -2.33181,4.49516 -2.33181,4.49516c0,0 -12.38762,3.18576 -16.33923,3.57014c-1.40374,0.13653 -14.06151,0.60761 -14.06151,0.60761z" fill="#6b696a" stroke-width="0"/><path d="M175.79041,335.20301l-1.90544,0.5203c0,0 0.10809,-3.48967 2.98271,-2.66628c2.87466,0.82344 21.4866,-3.00149 21.4866,-3.00149z" fill="#4b4949" stroke-width="0"/><path d="M169.79758,336.9485c0,0 -1.94699,0.48688 -3.01844,-3.03561c-0.54234,-1.78307 -4.3758,-15.55801 -4.3758,-15.55801l3.26271,-3.42299c0,0 1.5665,5.82546 2.20246,8.66465c0.8458,3.77613 2.84195,13.21453 2.84195,13.21453z" fill="#3f3d3e" stroke-width="0"/><path d="M176.13339,335.31922c0,0 2.83581,-2.60939 18.66307,-5.33316c1.30707,-0.22492 -1.77993,0.23556 7.59057,-0.66211c9.37051,-0.89775 13.46038,0.01623 13.46038,0.01623c0,0 -15.05749,1.18552 -21.19119,2.10902c-6.99168,1.0526 -18.52284,3.87011 -18.52284,3.87011z" fill="#838082" stroke-width="0"/><path d="M176.71623,305.26534c0,0 -3.99622,2.81372 -5.90654,4.73509c-2.14712,2.15957 -6.34885,7.59142 -6.34885,7.59142l-1.01415,-1.46698c0,0 3.14694,-4.37089 5.09067,-6.32594c2.12518,-2.1375 7.16471,-6.00059 7.16471,-6.00059z" fill="#4a494a" stroke-width="0"/><path d="M177.60142,304.87141l-3.27118,2.192c0,0 -0.00092,-0.65357 -0.15545,-0.87703c-0.18358,-0.26551 -0.77379,-0.58929 -0.77379,-0.58929l2.84132,-2.2498c0,0 0.81917,0.36881 1.0668,0.64652c0.18977,0.21281 0.2922,0.87757 0.2922,0.87757z" fill="url(#color-3)" stroke-width="0"/><path d="M165.25326,316.6855l-2.51169,3.13871l-0.46722,-2.1369l1.75456,-2.30916c0,0 0.74384,0.06005 0.95359,0.284c0.19763,0.21102 0.27068,1.02332 0.27068,1.02332z" fill="url(#color-4)" stroke-width="0"/></g><path d="M290.30466,273.61262c0,0 0.25923,-4.50746 0.55017,-5.95604c0.19745,-0.98334 2.33126,-2.75235 2.33126,-2.75235l16.79729,-2.74956c0,0 -0.39978,5.92325 -0.5732,7.33108c-0.07599,0.61671 -1.02697,1.4603 -1.02697,1.4603z" fill="#665b60" stroke-width="0"/><path d="M239.51426,262.79703c0,0 -3.98453,-0.98015 -9.02964,-1.38581c-3.20716,-0.25792 -7.51398,-0.18265 -9.33852,0.19904c-5.30446,1.10959 -7.0354,6.53261 -7.0354,6.53261c0,0 -3.58156,-1.80264 -5.79294,-2.33405c-2.06425,-0.49604 -6.51784,-0.83775 -6.51784,-0.83775c0,0 23.52779,-8.69085 27.2497,-9.83785c7.13513,-2.19892 33.57727,-5.78404 33.57727,-5.78404l8.28138,13.19993z" fill="#8b7c84" stroke-width="0"/><g stroke-width="0"><path d="M291.60274,272.4638c0,0 0.07971,-2.63752 0.35234,-3.58345c0.28261,-0.98077 2.28535,-2.3466 2.28535,-2.3466l14.3681,-2.16319c0,0 0.52834,0.91451 0.40541,1.67913c-0.16715,1.03958 -2.50372,4.16968 -2.50372,4.16968z" fill="#585852"/><path d="M291.49177,271.72677c0,0 0.1907,-1.90047 0.46332,-2.8464c0.28261,-0.98077 2.17438,-3.08362 2.17438,-3.08362l14.3681,-2.16318c0,0 0.63932,1.65156 0.51642,2.41618c-0.16715,1.03958 -2.61473,3.43261 -2.61473,3.43261z" fill="#797971"/><path d="M306.82683,264.38626c-1.06368,-0.01981 -12.59713,1.44217 -12.59713,1.44217l14.34843,-2.16021l0.3665,2.43442c0,0 -1.05416,-1.69654 -2.11783,-1.71639z" fill="#85857b"/></g><path d="M290.31327,254.28507l-0.77264,-5.13194l7.05638,-1.06239l2.05563,4.93877z" fill="#7c6e75" stroke-width="0"/><path d="M276.07153,229.70784l-5.34071,-7.41884l1.36399,-0.20534l7.32187,7.57727z" fill="#d495b6" stroke-width="0"/><path d="M236.36681,227.97053l12.61175,-5.02324l21.95249,-0.66311l5.16307,7.40612z" fill="#df9cbe" stroke-width="0"/><path d="M291.22212,259.23245l-0.24143,-1.60372l10.74494,-1.61769l1.20367,1.45888z" fill="#7c6e75" stroke-width="0"/><path d="M249.29286,253.25395c0,0 -17.75312,3.88469 -23.24865,5.21793c-8.32145,2.01871 -24.85531,6.85943 -24.85531,6.85943c0,0 14.19519,-6.62784 27.32635,-10.13797c14.23755,-3.80591 57.57923,-11.80495 57.57923,-11.80495l0.8053,5.34876z" fill="#75686e" stroke-width="0"/><path d="M243.75725,262.9567l-3.29209,-0.08161c0,0 9.30662,-3.81243 14.70018,-3.85308c5.39359,-0.04067 15.32609,3.62683 15.32609,3.62683z" fill="#7c6e76" stroke-width="0"/><path d="M197.21886,265.8876c0,0 -34.28882,-10.40763 -35.85823,-14.84355c-1.42558,-4.0295 29.83896,-2.11795 30.11731,-2.2693c4.8702,-2.64846 74.87793,-20.4846 74.87793,-20.4846l27.32299,2.75228l52.08885,-8.42005l9.24786,12.33613c0,0 -60.69905,10.32054 -84.17619,14.01999c-8.14954,1.28418 -24.89068,3.14963 -39.85427,6.55563c-11.54243,2.62728 -28.38899,9.52881 -28.38899,9.52881z" fill="#ee96c3" stroke-width="0"/><path d="M71.39375,297.51572l0.28944,-20.42468c0,0 -1.15059,-6.96041 5.67106,-10.30929c8.47274,-4.15942 25.43908,-4.90854 27.48669,-5.21681c1.57129,-0.23656 -11.21296,12.22222 -11.21296,12.22222l3.00046,19.92939z" fill="#c4b4b3" stroke-width="0"/><g stroke-width="0"><path d="M346.7019,237.60778l-5.07973,-14.54878l92.73015,-7.12014l0.11621,5.85492l-46.17692,11.86395z" fill="#ad6d8e"/><path d="M370.61934,219.5091l5.96009,-9.26324l26.15938,-6.09142l-2.70845,10.92676z" fill="#8d788b"/><path d="M345.60918,224.4765l-2.41706,-16.05435l33.4574,1.81732l-3.50504,7.47416z" fill="#857183"/><path d="M387.06081,214.87746l15.61621,-10.71254l28.09303,-0.41431l0.74348,6.85976z" fill="#947e92"/><path d="M341.39601,224.49545l0.96082,-13.05451l0.97458,-3.24505l2.24266,14.896z" fill="#756474"/><path d="M347.48839,234.23875l-2.51059,-11.83077l42.58563,-8.07887l1.17809,16.06067z" fill="#746373"/><path d="M388.73164,230.37562c0,0 -0.56329,-6.29376 -0.79018,-9.13579c-0.19427,-2.4333 -0.48864,-6.88138 -0.48864,-6.88138l43.84279,-5.68137l3.22828,8.00864z" fill="#867284"/><path d="M341.42549,224.41974l3.7548,-2.11346l2.33894,11.93552z" fill="#6f5e6d"/><path d="M423.61911,204.71841l-20.09809,-0.37573l26.97076,-0.38322l0.16826,3.56009c0,0 -0.5437,-1.50508 -1.84352,-2.02227c-0.86949,-0.34592 -5.19741,-0.77894 -5.19741,-0.77894z" fill="#978195"/><path d="M385.30867,214.48424c0,0 7.36986,-4.61391 9.91552,-6.36651c1.85443,-1.2767 3.95269,-3.18137 3.95269,-3.18137l2.52237,-0.26586l-13.77148,9.41936z" fill="#9c859a"/><path d="M371.2084,217.42452c0,0 0.89196,-2.91761 2.02619,-4.45386c1.13418,-1.53627 3.29535,-2.68604 3.29535,-2.68604l-2.8874,6.77339z" fill="#806b7d"/><path d="M403.97663,202.20386l1.25597,-5.98703l15.58643,1.42885l6.49041,5.49496z" fill="#55494f"/><path d="M401.88837,205.34989c0,0 0.95272,-0.94252 1.4198,-1.6042c0.35183,-0.49842 0.82602,-1.96999 0.82602,-1.96999l22.66055,0.63344c0,0 0.93219,0.36225 1.56035,0.59701c0.65646,0.24533 2.29728,0.84475 2.29728,0.84475z" fill="#685960"/><path d="M404.39872,201.23805l0.9574,-4.78118l14.48401,1.1837c0,0 -8.14568,-0.32362 -12.5389,0.59532c-2.54834,0.53307 -2.90246,3.00213 -2.90246,3.00213z" fill="#41383c"/></g><path d="M67.16697,258.42926l-0.77541,-5.15032c0,0 21.8948,-4.606 43.61671,-7.81871c12.9443,-1.91448 26.60078,-2.35486 33.39276,-3.73145c15.31449,-3.10402 24.9949,-9.12449 24.9949,-9.12449l-4.6854,11.46848z" fill="#ffa1d1" stroke-width="0"/><path d="M66.69573,272.61508l-0.25803,-16.22499c0,0 54.49238,-6.12032 72.07505,-9.21307c10.41525,-1.83201 23.6998,-7.6336 23.6998,-7.6336l2.17988,14.47918c0,0 -66.74879,10.04929 -82.83984,12.47185c-6.61603,0.99606 -10.8544,32.70532 -10.8544,32.70532z" fill="#ee96c3" stroke-width="0"/><path d="M255.29583,321.57478l7.15252,-14.82594c0,0 7.44734,-17.15717 15.72122,-25.34297c2.10253,-2.08013 7.03632,-4.03295 7.03632,-4.03295c0,0 -6.48032,6.01694 -8.63065,9.16356c-5.0781,7.43097 -21.27932,35.03822 -21.27932,35.03822z" fill="#70646b" stroke-width="0"/><path d="M340.58112,243.1634l-8.91046,-16.86318l1.33506,-0.20101c0,0 2.69854,5.10703 4.12446,7.80563c0.20316,0.38448 1.73472,1.38878 1.98636,1.86503c0.43626,0.82558 -0.37033,1.19327 0.11722,2.116c1.35764,2.56937 2.68241,5.0765 2.68241,5.0765z" fill="#795467" stroke-width="0"/><path d="M165.08198,254.35539c0,0 -11.34069,-4.91877 -11.2309,-8.75277c0.06571,-2.29561 15.53674,-12.66658 15.53674,-12.66658l67.98747,-8.54482l-1.1575,3.30527l30.10109,0.77573l-67.03946,36.96776c0,0 -1.61831,-5.43345 1.51833,-8.79603c3.0485,-3.2681 17.0445,-11.10409 17.0445,-11.10409c0,0 -33.84335,5.04571 -41.06594,6.04543c-2.40961,0.33351 -11.69438,2.7701 -11.69438,2.7701z" fill="#f399c8" stroke-width="0"/><g><path d="M167.89742,235.10634l-0.4821,-3.20225l174.5861,-26.2846l0.4821,3.20225z" fill="#584f54" stroke-width="0"/><path d="M336.30667,206.72782l-0.4074,-2.70585l3.02123,-0.45486l3.07314,2.30454z" fill="#685d63" stroke-width="0"/><g fill="#685d63" stroke-width="0"><g><g><g><path d="M329.7579,207.96577l-0.44318,-2.94387l3.83785,-0.57782l0.44318,2.94387z"/><path d="M323.53057,208.90332l-0.44318,-2.94387l3.83786,-0.57781l0.44318,2.94387z"/></g><g><path d="M317.53821,209.80551l-0.44318,-2.94388l3.83786,-0.57781l0.44318,2.94387z"/><path d="M311.31086,210.74306l-0.44318,-2.94387l3.83785,-0.57781l0.44318,2.94388z"/></g></g><g><g><path d="M305.20095,211.66289l-0.44318,-2.94388l3.83785,-0.57781l0.44318,2.94387z"/><path d="M298.97357,212.60047l-0.44318,-2.94387l3.83785,-0.57782l0.44318,2.94388z"/></g><g><path d="M292.98128,213.50261l-0.44318,-2.94387l3.83785,-0.57781l0.44318,2.94387z"/><path d="M286.75393,214.44015l-0.44318,-2.94387l3.83784,-0.57783l0.44318,2.94388z"/></g></g></g><g><g><g><path d="M286.51897,214.47559l-0.44318,-2.94387l3.83785,-0.57781l0.44318,2.94387z"/><path d="M280.29164,215.41311l-0.44318,-2.94387l3.83786,-0.57781l0.44318,2.94387z"/></g><g><path d="M274.29926,216.3153l-0.44318,-2.94388l3.83785,-0.57781l0.44318,2.94387z"/><path d="M268.07189,217.25282l-0.44318,-2.94387l3.83784,-0.57783l0.44318,2.94388z"/></g></g><g><g><path d="M261.9621,218.17268l-0.44318,-2.94388l3.83786,-0.57781l0.44318,2.94387z"/><path d="M255.73472,219.11027l-0.44318,-2.94387l3.83786,-0.57781l0.44318,2.94388z"/></g><g><path d="M249.74236,220.01246l-0.44318,-2.94387l3.83785,-0.57782l0.44318,2.94388z"/><path d="M243.51501,220.94996l-0.44318,-2.94387l3.83786,-0.57781l0.44318,2.94387z"/></g></g></g></g><g><g fill="#685d63" stroke-width="0"><g><g><path d="M237.36518,221.87587l-0.44318,-2.94388l3.83786,-0.57781l0.44318,2.94387z"/><path d="M231.13783,222.81337l-0.44318,-2.94387l3.83786,-0.57781l0.44318,2.94388z"/></g><g><path d="M225.14548,223.7156l-0.44318,-2.94387l3.83786,-0.57781l0.44318,2.94388z"/><path d="M218.91815,224.6531l-0.44318,-2.94387l3.83785,-0.57782l0.44318,2.94388z"/></g></g><g><g><path d="M212.80833,225.573l-0.44318,-2.94388l3.83786,-0.57781l0.44318,2.94387z"/><path d="M206.58095,226.51048l-0.44318,-2.94387l3.83786,-0.57781l0.44318,2.94388z"/></g><g><path d="M200.58853,227.41271l-0.44318,-2.94387l3.83786,-0.57781l0.44318,2.94388z"/><path d="M194.36119,228.3503l-0.44318,-2.94387l3.83785,-0.57782l0.44318,2.94387z"/></g></g></g><g><g fill="#685d63" stroke-width="0"><g><path d="M194.12626,228.38564l-0.44318,-2.94388l3.83786,-0.57781l0.44318,2.94387z"/><path d="M187.89888,229.32318l-0.44318,-2.94387l3.83785,-0.57782l0.44318,2.94388z"/></g><g><path d="M181.90655,230.22537l-0.44318,-2.94387l3.83785,-0.57782l0.44318,2.94388z"/><path d="M175.67919,231.16286l-0.44318,-2.94387l3.83785,-0.57782l0.44318,2.94387z"/></g></g><g fill="none" stroke-width="1" font-family="sans-serif" font-weight="normal" font-size="12" text-anchor="start"><g/><g/></g></g></g><path d="M167.523,232.13887l2.25838,-3.10715l3.02123,-0.45486l0.4074,2.70585z" data-paper-data="{&quot;index&quot;:null}" fill="#685d63" stroke-width="0"/></g><path d="M228.69583,256.18609l-2.48322,0.64695c0,0 1.27798,-2.78888 10.59831,-5.3325c7.06621,-1.92843 27.20506,-6.28667 39.26723,-8.85683c5.60136,-1.19354 60.13332,-18.50691 60.13332,-18.50691l5.13875,-0.78813c0,0 -59.44318,19.71406 -65.04377,20.88401c-12.38447,2.58701 -33.20273,6.9724 -39.19673,8.45986c-3.26289,0.8097 -8.41374,3.49356 -8.41374,3.49356z" fill="#70475c" stroke-width="0"/><path d="M331.31441,259.9786l-4.59414,2.55826l-2.81774,-18.72049c0,0 7.71183,-1.11209 15.25387,-2.19968c21.65092,-3.12223 125.70666,-18.12785 125.70666,-18.12785l1.00151,6.65228z" fill="#5a5959" stroke-width="0"/><path d="M330.65197,261.72507l0.63122,-3.13495l134.57717,-28.55908l-10.02513,12.84727z" fill="#4b4a4a" stroke-width="0"/><path d="M452.55783,243.18049c0,0 -6.32054,-2.30951 -9.53179,-3.27021c-1.72095,-0.51484 -8.23819,-2.04597 -8.23819,-2.04597c0,0 8.34456,1.68015 11.79302,2.11964c1.23071,0.15688 2.45238,0.72407 3.82049,1.05219c0.44117,0.10578 1.83351,-2.89411 3.45603,-4.87204c0.48499,-0.5912 1.68656,-0.40344 2.15683,-0.80879c1.07811,-0.92919 1.27063,-2.0619 1.27063,-2.0619c0,0 0.47207,0.86895 -0.55259,2.2507c-0.27955,0.37701 -2.00994,0.99382 -2.27811,1.39861c-1.07473,1.6224 -1.82731,3.35278 -2.04102,3.98281c-0.5964,1.75818 1.59172,2.03716 1.59172,2.03716z" fill="#414040" stroke-width="0"/><path d="M165.07785,254.6568l2.12036,-11.54307l6.8351,-1.66036c0,0 -0.54581,2.76021 -0.86746,4.38699c-0.08099,0.40973 11.2904,-3.2805 11.7384,-2.66935c0.8312,1.13384 -4.11904,5.6814 -4.32136,6.70445c-0.23128,1.16961 -8.77981,2.8569 -8.77981,2.8569z" fill="#303030" stroke-width="0"/><path d="M164.88081,254.31224l2.14135,-10.70172c0,0 3.16095,0.84341 3.3076,1.81738c0.26681,1.77225 -0.43302,7.72996 -0.43302,7.72996z" fill="#252525" stroke-width="0"/><path d="M327.09775,265.16567l-0.43954,-2.91948l5.02267,-3.74188l-0.78478,3.10379c0,0 -0.87949,1.48271 -1.54747,2.1084c-0.58781,0.55055 -2.2509,1.44913 -2.2509,1.44913z" fill="#383838" stroke-width="0"/><g><g fill="#4b4b4b" stroke-width="0"><g data-paper-data="{&quot;origPos&quot;:null}"><g data-paper-data="{&quot;origPos&quot;:null}"><path d="M393.69485,256.52567l-0.33835,-2.24744l3.70822,-0.5583l0.33835,2.24744z" data-paper-data="{&quot;origPos&quot;:null}"/><path d="M387.49758,257.34379l-0.33835,-2.24744l3.70821,-0.5583l0.33835,2.24743z" data-paper-data="{&quot;origPos&quot;:null}"/></g><g data-paper-data="{&quot;origPos&quot;:null}"><path d="M406.07251,254.77707l-0.33835,-2.24744l3.70822,-0.5583l0.33835,2.24743z" data-paper-data="{&quot;origPos&quot;:null}"/><path d="M399.87522,255.59517l-0.33835,-2.24743l3.70821,-0.5583l0.33835,2.24744z" data-paper-data="{&quot;origPos&quot;:null}"/></g></g><g data-paper-data="{&quot;origPos&quot;:null,&quot;index&quot;:null}"><g data-paper-data="{&quot;origPos&quot;:null}"><path d="M425.02921,251.69327l-0.33835,-2.24744l3.70822,-0.5583l0.33835,2.24743z" data-paper-data="{&quot;origPos&quot;:null}"/><path d="M431.19261,250.65039l-0.33836,-2.24743l3.70822,-0.5583l0.33834,2.24742z" data-paper-data="{&quot;origPos&quot;:null}"/></g><g data-paper-data="{&quot;origPos&quot;:null}"><path d="M412.68542,253.66655l-0.33835,-2.24744l3.70821,-0.5583l0.33836,2.24743z" data-paper-data="{&quot;origPos&quot;:null}"/><path d="M418.84885,252.62374l-0.33835,-2.24743l3.70822,-0.5583l0.33835,2.24743z" data-paper-data="{&quot;origPos&quot;:null}"/></g></g></g><path d="M350.22173,254.73263l-2.02638,-13.45943l83.53264,-12.57613l2.02638,13.45943z" data-paper-data="{&quot;origPos&quot;:null}" fill="#444444" stroke-width="0"/><path d="M351.02218,259.38762l-0.71198,-4.72915l83.28711,-12.5392l0.71198,4.72916z" data-paper-data="{&quot;origPos&quot;:null}" fill="#414141" stroke-width="0"/><path d="M351.26867,260.79079l-0.2408,-1.5996l83.27648,-12.53759l0.24081,1.59959z" data-paper-data="{&quot;origPos&quot;:null}" fill="#3f3f3f" stroke-width="0"/><g stroke-width="0"><g data-paper-data="{&quot;origPos&quot;:null}" fill="#5a5a5a"><g data-paper-data="{&quot;origPos&quot;:null}"><path d="M393.02299,248.36904l-2.04704,-13.59676l3.53162,-0.5317l2.04704,13.59676z" data-paper-data="{&quot;origPos&quot;:null}"/></g><g data-paper-data="{&quot;origPos&quot;:null}"><path d="M399.02674,247.46517l-2.04704,-13.59676l3.53163,-0.5317l2.04704,13.59676z" data-paper-data="{&quot;origPos&quot;:null}"/><path d="M405.20712,246.53466l-2.04703,-13.59677l3.53162,-0.5317l2.04704,13.59676z" data-paper-data="{&quot;origPos&quot;:null}"/></g></g><g data-paper-data="{&quot;origPos&quot;:null}" fill="#5a5a5a"><g data-paper-data="{&quot;origPos&quot;:null}"><path d="M411.74061,245.55102l-2.04704,-13.59676l3.53162,-0.5317l2.04704,13.59677z" data-paper-data="{&quot;origPos&quot;:null}"/><path d="M417.92093,244.62054l-2.04704,-13.59676l3.53163,-0.5317l2.04703,13.59677z" data-paper-data="{&quot;origPos&quot;:null}"/></g><g data-paper-data="{&quot;origPos&quot;:null}"><path d="M423.92475,243.71664l-2.04703,-13.59677l3.53162,-0.5317l2.04703,13.59677z" data-paper-data="{&quot;origPos&quot;:null}"/><path d="M430.1051,242.78615l-2.04703,-13.59677l3.53162,-0.5317l2.04704,13.59676z" data-paper-data="{&quot;origPos&quot;:null}"/></g></g><path d="M396.61526,247.82823l-0.58153,2.04031l-5.17655,0.8229l-1.59627,-9.66655l1.65675,-6.24393l2.11524,13.5865z" fill="#3a3a3a"/><path d="M402.61662,246.92465l-0.58153,2.04032l-5.17656,0.82291l-1.59626,-9.66655l1.65675,-6.24392l2.11524,13.58649z" fill="#3a3a3a"/><path d="M408.75434,246.00062l-0.58153,2.04032l-5.17655,0.82292l-1.59627,-9.66655l1.65675,-6.24392l2.11524,13.5865z" fill="#3a3a3a"/><path d="M415.36943,245.0047l-0.58153,2.04032l-5.17655,0.82292l-1.59627,-9.66655l1.65675,-6.24392l2.11524,13.5865z" fill="#3a3a3a"/><path d="M421.5754,244.0704l-0.58153,2.04032l-5.17655,0.82292l-1.59627,-9.66655l1.65675,-6.24392l2.11524,13.58649z" fill="#3a3a3a"/><path d="M427.5085,243.17711l-0.58153,2.04031l-5.17655,0.8229l-1.59627,-9.66655l1.65675,-6.24392l2.11524,13.5865z" fill="#3a3a3a"/><path d="M433.72223,242.2416l-0.58153,2.04031l-5.17655,0.82292l-1.59626,-9.66655l1.65675,-6.24393l2.11524,13.5865z" fill="#3a3a3a"/></g><g stroke-width="0"><g data-paper-data="{&quot;origPos&quot;:null}" fill="#5a5a5a"><g data-paper-data="{&quot;origPos&quot;:null}"><path d="M350.2757,254.80483l-2.04703,-13.59677l3.53163,-0.5317l2.04704,13.59676z" data-paper-data="{&quot;origPos&quot;:null}"/></g><g data-paper-data="{&quot;origPos&quot;:null}"><path d="M356.27944,253.90096l-2.04704,-13.59676l3.53162,-0.5317l2.04704,13.59676z" data-paper-data="{&quot;origPos&quot;:null}"/><path d="M362.45976,252.97048l-2.04704,-13.59676l3.53163,-0.5317l2.04703,13.59677z" data-paper-data="{&quot;origPos&quot;:null}"/></g></g><g data-paper-data="{&quot;origPos&quot;:null}" fill="#5a5a5a"><g data-paper-data="{&quot;origPos&quot;:null}"><path d="M368.99333,251.98684l-2.04703,-13.59677l3.53164,-0.53168l2.04704,13.59676z" data-paper-data="{&quot;origPos&quot;:null}"/><path d="M375.17373,251.05634l-2.04704,-13.59676l3.53163,-0.5317l2.04703,13.59677z" data-paper-data="{&quot;origPos&quot;:null}"/></g><g data-paper-data="{&quot;origPos&quot;:null}"><path d="M381.17748,250.15246l-2.04704,-13.59676l3.53163,-0.5317l2.04703,13.59677z" data-paper-data="{&quot;origPos&quot;:null}"/><path d="M387.35787,249.22199l-2.04703,-13.59677l3.53163,-0.5317l2.04704,13.59677z" data-paper-data="{&quot;origPos&quot;:null}"/></g></g><path d="M353.86793,254.26401l-0.58153,2.04032l-2.69293,0.44901l-0.30783,-1.95005z" fill="#3a3a3a"/><path d="M359.86931,253.36052l-0.58153,2.04032l-5.17655,0.82292l-1.59626,-9.66655l1.65675,-6.24392l2.11524,13.5865z" fill="#3a3a3a"/><path d="M366.00697,252.43643l-0.58153,2.04031l-5.17655,0.82292l-1.59628,-9.66654l1.65675,-6.24393l2.11524,13.5865z" fill="#3a3a3a"/><path d="M372.62209,251.44048l-0.58153,2.04031l-5.17655,0.82292l-1.59626,-9.66655l1.65675,-6.24392l2.11524,13.5865z" fill="#3a3a3a"/><path d="M378.82811,250.50618l-0.58153,2.04031l-5.17655,0.8229l-1.59627,-9.66655l1.65675,-6.24392l2.11524,13.5865z" fill="#3a3a3a"/><path d="M384.7612,249.61285l-0.58153,2.04031l-5.17655,0.8229l-1.59627,-9.66655l1.65675,-6.24393l2.11524,13.5865z" fill="#3a3a3a"/><path d="M390.97499,248.6774l-0.58153,2.04032l-5.17655,0.8229l-1.59627,-9.66655l1.65675,-6.24392l2.11524,13.5865z" fill="#3a3a3a"/></g><g><g data-paper-data="{&quot;origPos&quot;:null}"><g data-paper-data="{&quot;origPos&quot;:null}" fill="none" stroke-width="1" font-family="sans-serif" font-weight="normal" font-size="12" text-anchor="start"/><g data-paper-data="{&quot;origPos&quot;:null}" fill="#4b4b4b" stroke-width="0"><path d="M357.89129,262.10875l-0.33835,-2.24744l3.70821,-0.5583l0.33836,2.24743z" data-paper-data="{&quot;origPos&quot;:null}"/><path d="M351.69401,262.92685l-0.33835,-2.24744l3.70821,-0.5583l0.33835,2.24744z" data-paper-data="{&quot;origPos&quot;:null}"/></g></g><g data-paper-data="{&quot;origPos&quot;:null,&quot;index&quot;:null}" fill="#4b4b4b" stroke-width="0"><g data-paper-data="{&quot;origPos&quot;:null}"><path d="M376.84801,259.02484l-0.33835,-2.24743l3.70822,-0.5583l0.33835,2.24743z" data-paper-data="{&quot;origPos&quot;:null}"/><path d="M383.01143,257.98202l-0.33834,-2.24742l3.70822,-0.5583l0.33835,2.24743z" data-paper-data="{&quot;origPos&quot;:null}"/></g><g data-paper-data="{&quot;origPos&quot;:null}"><path d="M364.50414,260.99825l-0.33835,-2.24744l3.70822,-0.5583l0.33835,2.24743z" data-paper-data="{&quot;origPos&quot;:null}"/><path d="M370.66759,259.95533l-0.33835,-2.24744l3.70822,-0.5583l0.33835,2.24744z" data-paper-data="{&quot;origPos&quot;:null}"/></g></g></g></g><path d="M177.37929,251.19286l0.40051,-4.3229c0,0 4.0911,-3.79887 7.56055,-4.47292c3.96624,-0.77057 33.6049,-5.20754 33.6049,-5.20754c0,0 0.93389,1.75628 1.06276,2.96778c0.16605,1.56087 -1.47021,4.9064 -1.47021,4.9064z" fill="#242424" stroke-width="0"/><path d="M201.42054,243.72033l-0.46902,-3.1152l17.80117,-2.68007l0.46902,3.1152z" fill="#313131" stroke-width="0"/><path d="M198.45091,246.11984l-0.0971,-0.64499c0,0 0.89948,-1.19843 1.91114,-1.35074c0.96067,-0.14461 3.19496,-0.00076 5.64385,-0.2042c4.66511,-0.38766 10.24592,-1.125 10.24592,-1.125l0.0971,0.64499c0,0 -5.36809,0.80611 -9.96869,1.18462c-2.51029,0.20653 -4.83793,-0.01845 -5.83447,0.1316c-1.04749,0.15771 -1.99773,1.36377 -1.99773,1.36377z" fill="#616161" stroke-width="0"/><path d="M222.94267,226.54453l13.00242,1.10316l31.29693,0.65605c0,0 0.75833,0.11254 -7.35843,0.59813c-2.76119,0.16518 -13.52051,0.15789 -22.92383,-0.35072c-2.54443,-0.1376 -16.24218,-1.55493 -16.24218,-1.55493z" fill="#df8cb7" stroke-width="0"/><path d="M44.81673,259.7698l-0.88332,-5.86699c0,0 5.44479,-2.59244 9.20623,-3.15874c3.07935,-0.46361 11.98927,1.74041 11.98927,1.74041l1.69347,12.15404z" fill="#626061" stroke-width="0"/><path d="M161.06957,252.36575l4.12705,1.91289l11.91366,-3.13171l50.17944,-7.55469l0.16247,1.07889c0,0 -37.66364,5.52354 -49.39535,7.55493c-3.22092,0.55773 -12.70493,2.71457 -12.70493,2.71457z" fill="#ffa6d4" stroke-width="0"/><path d="M51.48414,323.41679l-1.06741,-7.08971l20.69079,-19.93273l0.44561,13.75586l-12.20874,12.08317z" fill="#3f3d3e" stroke-width="0"/><path d="M49.11887,318.6557c0,0 -2.7402,-19.46077 -3.37019,-29.05721c-0.71107,-10.83112 -0.68265,-32.67492 -0.68265,-32.67492c0,0 8.49038,-1.46973 12.27754,-0.37553c3.24128,0.93645 9.06375,6.5415 9.06375,6.5415l4.995,33.17765c0,0 -9.68533,15.31066 -12.35995,17.9979c-4.11406,4.13347 -9.92349,4.39065 -9.92349,4.39065z" fill="#555354" stroke-width="0"/><path d="M46.49477,267.42638c0,0 -2.4152,-5.69682 -0.77363,-8.67158c1.64156,-2.97477 5.79127,-4.62789 8.32298,-5.00906c2.01964,-0.30407 6.21094,-0.85548 9.71609,3.12559c3.50517,3.98104 2.59994,10.86256 2.59994,10.86256c0,0 -7.77849,-9.34985 -10.36969,-9.38995c-3.65645,-0.05658 -9.49576,9.08254 -9.49576,9.08254z" fill="#6f6b6c" stroke-width="0"/><path d="M48.40733,323.68957c0,0 -2.18467,-26.02735 -3.88833,-37.3436c-1.77425,-11.785 -5.0707,-32.24062 -5.0707,-32.24062c0,0 1.04761,-0.80793 2.07683,-0.9629c0.9411,-0.1417 2.58621,0.26087 2.58621,0.26087c0,0 2.63982,18.97373 4.232,29.5493c1.84983,12.28699 3.45544,40.2263 3.45544,40.2263z" fill="#333232" stroke-width="0"/><path d="M48.0474,324.19242l-1.10772,-14.70724c0,0 1.17579,0.72188 1.76275,0.59441c0.74117,-0.16096 2.18551,-1.83212 2.18551,-1.83212l1.08437,15.35401z" fill="#2e2d2d" stroke-width="0"/><path d="M68.1242,284.50126c1.2155,8.07365 -1.57227,17.25898 -5.45306,20.80362c-3.22311,2.94396 -9.63212,10.74293 -10.84759,2.6693c-0.25786,-1.7128 -0.00513,-13.76407 -0.92466,-20.73467c-1.2161,-9.21852 -3.58503,-13.89888 -3.05948,-16.84156c0.95039,-5.32081 6.19186,-7.60606 8.38166,-7.93573c4.31662,-0.64987 10.68768,13.96544 11.9032,22.03908z" fill="#585758" stroke-width="0"/><path d="M104.29856,293.2968l-0.84511,-1.63312c0,0 7.65018,-2.51753 13.52901,-3.8922c8.27605,-1.93526 31.44359,-6.62403 31.44359,-6.62403l1.96666,0.99957c0,0 -24.58958,5.3407 -33.09183,7.39734c-2.497,0.60401 -13.00226,3.7525 -13.00226,3.7525z" fill="#585657" stroke-width="0"/><path d="M100.43907,307.22712l3.09362,-14.31143l7.02007,-2.01826c0,0 -1.07654,4.52418 -0.87874,5.25808c0.94494,3.50674 7.47656,26.76049 7.47656,26.76049c0,0 -1.39542,0.65546 -2.85077,-1.02209c-2.61133,-3.0101 -5.44798,-9.52236 -7.49359,-11.34073c-1.76742,-1.57108 -6.36707,-3.32603 -6.36707,-3.32603z" fill="#5a5759" stroke-width="0"/><path d="M108.24288,274.90104l1.16944,-11.63709l2.2908,-0.45726l-2.23512,12.02222z" fill="#a5a0a2" stroke-width="0"/><path d="M114.79562,272.8188l-0.20885,-1.38714l26.20098,-3.94465l0.20885,1.38713z" fill="#494748" stroke-width="0"/><path d="M114.27354,269.8926l-0.20885,-1.38714l26.20098,-3.94465l0.20885,1.38714z" fill="#494748" stroke-width="0"/><path d="M98.39268,294.9438l-2.99809,-19.91393l10.67926,-11.33241l4.74417,-1.02953l-9.72047,44.75945l-5.84696,-1.14564z" fill="#dbd5d8" stroke-width="0"/><path d="M73.96321,310.67044l-1.91152,-11.6359l26.23991,-4.74889c0,0 0.70441,2.4603 0.69453,3.26925c-0.02451,2.0166 -0.97657,9.17595 -0.97657,9.17595z" fill="#ccc6c9" stroke-width="0"/><path d="M76.01505,298.84276l-0.04705,-0.31227l22.43344,-4.25565l-2.40005,1.55898c0,0 -4.24576,0.82753 -6.92901,1.19939c-3.6741,0.5092 -13.05736,1.80961 -13.05736,1.80961z" fill="#d8d1d5" stroke-width="0"/><path d="M78.93501,294.62423l-2.5309,-16.8105l15.94532,-2.40062l2.5309,16.8105z" fill="#a39999" stroke-width="0"/><path d="M73.71499,310.87945l-1.69117,-11.2327c0,0 9.68923,4.9999 14.27656,6.67623c4.58738,1.67632 10.97444,0.43159 10.97444,0.43159z" fill="#b4afb1" stroke-width="0"/><path d="M107.88289,311.84611c0,0 3.15061,0.57788 4.21314,0.27258c0.65269,-0.18759 1.55556,-1.93035 1.55556,-1.93035l2.99083,8.72518l0.62456,4.14835c0,0 -1.87503,0.59723 -3.52431,-1.76615c-1.36078,-1.94998 -5.85976,-9.44958 -5.85976,-9.44958z" fill="#504e4f" stroke-width="0"/><path d="M100.82301,307.73199l8.08575,-43.43136l1.75471,-0.05674l-7.92327,43.82176z" fill="#858183" stroke-width="0"/><path d="M78.10685,269.93665l1.25218,-1.8576c0,0 27.01421,-4.71827 39.28622,-6.56582c10.65125,-1.60355 31.6415,-4.40677 31.6415,-4.40677l0.8126,1.84091c0,0 -21.16507,2.47257 -32.39214,4.16284c-12.81988,1.93012 -40.60035,6.82647 -40.60035,6.82647z" fill="#918b8e" stroke-width="0"/><path d="M78.93047,268.56804l1.71229,-2.22109c0,0 25.54727,-4.20316 37.81922,-6.05079c10.65124,-1.60355 31.6415,-4.40677 31.6415,-4.40677l0.81259,1.84091c0,0 -21.16506,2.47257 -32.39214,4.16283c-12.81988,1.93012 -39.59347,6.67485 -39.59347,6.67485z" fill="#a59fa2" stroke-width="0"/><path d="M145.91372,279.50374l-2.75008,-5.33263c0,0 0.02986,-1.22313 0.34234,-1.38422c0.2753,-0.142 1.43513,0.46752 1.43513,0.46752l2.75008,5.33264c0,0 -0.14241,0.90898 -0.41835,1.05126c-0.31214,0.16098 -1.35919,-0.13456 -1.35919,-0.13456z" fill="#494242" stroke-width="0"/><path d="M106.48222,288.1188l2.09118,-9.90745l3.84242,-0.5785l-2.09118,9.90745z" fill="#9c989a" stroke-width="0"/><path d="M113.29643,269.11635l1.68601,-1.23268l24.16919,-3.62049l2.13699,0.63892z" fill="#757274" stroke-width="0"/><path d="M113.80823,271.88228l1.68601,-1.23269l24.16918,-3.62048l2.137,0.63889z" fill="#757274" stroke-width="0"/><path d="M71.17498,310.26784l-6.97035,-57.76376l1.98534,0.28836l7.56953,58.07918z" fill="#686666" stroke-width="0"/><path d="M71.05365,310.55945l-1.77281,-16.17203l2.83404,3.43482l1.55005,13.2267z" fill="#535252" stroke-width="0"/><path d="M98.0514,283.36235c0,0 1.75119,-2.63556 1.61022,-3.57178c-0.13831,-0.91877 -2.44822,-1.99419 -2.44822,-1.99419c0,0 3.06827,0.21531 3.21662,1.90031c0.11296,1.28349 -0.60002,3.60449 -0.52232,4.70758c0.22094,3.13652 0.63385,10.50451 0.63385,10.50451z" fill="#c4bec1" stroke-width="0"/><path d="M105.35725,280.32923l0.37246,-10.36643l1.8722,-4.68519l-1.20245,9.84694z" fill="#aca7a9" stroke-width="0"/></g></g><g stroke-width="0"><path d="M217.95708,235.23281l2.03086,-3.67246c0,0 1.57346,-1.68939 2.43017,-1.54031c0.97678,0.17 3.11764,2.50588 3.11764,2.50588l0.07181,4.11712c0,0 -4.23467,0.6299 -5.50666,0.68661c-0.57344,0.02558 -2.14374,-2.09686 -2.14374,-2.09686z" fill="#c0c0c0"/><path d="M176.95335,251.16592c0,0 -0.60327,-2.82164 0.27452,-4.10548c1.10003,-1.60893 6.78288,-4.70166 6.78288,-4.70166l0.00257,4.79009l0.4349,2.88866z" fill="#838383"/><path d="M176.77204,251.11806l6.90064,-8.60453l37.14372,-5.59215l1.1138,7.39789z" fill="#999999"/><path d="M177.66216,250.32018l5.22144,-6.69307l33.39597,-5.02789l0.8696,5.77601c0,0 -4.04203,0.60852 -9.24163,1.3914c-3.38057,0.509 -7.40855,0.04142 -10.97501,0.57835c-3.82595,0.57598 -7.14464,2.14963 -9.29355,2.47316c-4.20575,0.63319 -9.9768,1.50202 -9.9768,1.50202z" fill="#2e2e2e"/><path d="M181.11514,249.79811l7.39677,-7.08345l12.32519,-1.8556c0,0 -7.00992,2.98422 -9.21743,4.24144c-2.34357,1.33464 -5.20574,3.89987 -5.20574,3.89987z" fill="#a5899d"/><path d="M188.99846,248.49723c0,0 4.88373,-1.71834 7.31344,-2.08414c3.10459,-0.46741 9.79063,-0.49095 9.79063,-0.49095l-9.59636,1.10581z" fill="#adadad"/><path d="M176.87271,251.08452l6.23296,-7.76613l34.577,-5.20565l0.10251,0.6809c0,0 -29.93938,4.5075 -33.84202,5.09504c-0.81626,0.12289 -7.07039,7.19588 -7.07039,7.19588z" fill="#8a8a8a"/><path d="M224.44272,250.22875l-1.45232,-9.64664l-0.42869,-7.21852c0,0 1.2439,0.28791 1.87555,0.7627c0.63161,0.47477 1.17869,1.53294 1.17869,1.53294l0.81738,14.26988z" fill="#9e9e9e"/><path d="M218.42204,246.85677c0,0 -1.21798,-1.96549 -1.58971,-3.51658c-0.50062,-2.08868 -0.47615,-7.67275 -0.47615,-7.67275l1.87136,-0.61075c0,0 0.86829,0.66998 1.31865,0.45135c0.62091,-0.30143 2.06228,-2.09271 2.06228,-2.09271l1.41116,12.7493z" fill="#9c9c9c"/><path d="M219.26213,248.58155c-0.93811,-0.97568 -0.90477,-2.36928 -0.90477,-2.36928l3.75141,-7.84631c0,0 1.95631,3.633 2.09274,4.53927c0.38789,2.5765 2.09029,7.12343 2.09029,7.12343c0,0 -2.93444,0.52648 -4.027,0.24738c-1.31042,-0.3347 -2.06448,-0.71889 -3.00261,-1.69455z" fill="#888888"/><path d="M220.90773,247.55081c-1.27497,-1.83033 -2.93868,-6.09322 -1.72073,-10.38918c1.21797,-4.29599 3.92268,-2.54799 3.92268,-2.54799c0,0 1.65375,4.22385 1.99809,6.51096c0.31367,2.08335 -0.01551,6.65745 -0.01551,6.65745c0,0 -2.90955,1.5991 -4.1845,-0.23125z" fill="#b4b4b4"/><path d="M223.87747,239.32171c0.21009,1.39535 -4.83142,2.23265 -5.04151,0.83735c-0.21009,-1.39535 2.01034,-7.19271 2.81372,-7.31363c0.31115,-0.0468 0.96299,-0.042 1.3152,0.97764c0.55718,1.61309 0.78387,4.64379 0.91258,5.4987z" fill="#bbbbbb"/></g><g stroke-width="0"><path d="M160.97203,252.36509c0,0 -6.52336,-3.99061 -6.80227,-5.84314c-0.22777,-1.51259 5.7229,-2.53299 5.7229,-2.53299l7.47191,-1.05227l-2.37456,11.25793z" fill="#f399c8"/><path d="M131.03048,258.53309c0,0 -1.27159,-1.93004 -1.1769,-3.02908c0.1045,-1.21291 1.60515,-5.08436 1.60515,-5.08436l22.75376,-3.61341l10.30825,7.16842z" fill="#ee96c3"/></g></g><g stroke-width="0"><g><path d="M222.5181,224.81172l-0.92034,-6.11289l47.28526,-7.11898l0.92034,6.11289z" fill="#61585b"/><path d="M221.87374,221.62863l-0.49282,-3.27344l47.46508,-7.14602l0.49282,3.27343c0,0 -8.54458,1.2864 -17.322,2.60789c-2.74435,0.41316 -6.37669,2.49438 -8.91253,2.87613c-3.01541,0.45398 -6.47523,-0.55947 -8.40947,-0.26826c-5.79996,0.87321 -12.82106,1.9302 -12.82106,1.9302z" fill="#494344"/><path d="M282.02874,205.89244l-12.04797,-17.33243l20.68612,-3.11435l17.7539,14.29043c0,0 -5.44381,2.19631 -8.60141,2.93288c-4.87242,1.13657 -17.79061,3.22353 -17.79061,3.22353z" fill="#5e555b"/><path d="M282.54224,209.28887l-0.82454,-5.47677c0,0 11.94509,-3.26788 16.66666,-4.76714c3.74709,-1.18983 6.43494,-2.1831 6.43494,-2.1831l6.90621,5.9772c0,0 -5.03536,2.37221 -9.07091,3.42873c-5.46797,1.43151 -20.11227,3.02111 -20.11227,3.02111z" fill="url(#color-5)"/><path d="M268.32843,188.96935l-0.59493,-3.95166l18.93812,-2.85118l4.19079,3.41027z" fill="url(#color-6)"/><path d="M281.96863,209.40045l-0.18746,-1.24522c0,0 15.4244,-2.39945 20.72592,-3.36707c3.96423,-0.72351 8.10072,-2.94088 8.10072,-2.94088l1.04939,0.99967l-7.82386,3.26165z" fill="#312c30"/><g><path d="M180.49663,213.95739l-1.54272,-8.72591l92.87859,-13.98323l9.235,10.01863z" fill="#8a6672"/><path d="M198.08512,219.68843c0,0 -4.01712,-3.04161 -7.00815,-4.06936c-2.99104,-1.02778 -9.93821,0.25826 -9.93821,0.25826l-0.19979,-2.08049c0,0 12.22709,-1.56135 19.19225,-2.51363c16.6388,-2.27507 80.20911,-11.07758 80.20911,-11.07758l4.56048,5.95441z" fill="#755761"/><path d="M201.27272,221.72757l-3.37758,-2.11253l86.53746,-13.52339l1.65076,2.86731z" fill="#694e57"/><path d="M178.84999,205.64772l-0.67425,-4.47853l89.69308,-14.19066l4.64958,5.025c0,0 3.22141,2.89067 -2.0097,3.65263c-1.64677,0.23987 -11.1675,-1.73319 -12.81841,-1.49271c-15.89917,2.31593 -78.84025,11.48422 -78.84025,11.48422z" fill="#916b77"/><path d="M178.41496,201.13327l-0.49339,-2.47871l88.88619,-13.52242l1.38971,2.21003z" fill="#9e7582"/><path d="M251.81649,190.77403c-8.07436,0.56039 -72.17125,9.16647 -72.17125,9.16647l86.875,-13.07934l5.85512,6.6435c0,0 -12.48441,-3.29103 -20.55884,-2.73062z" fill="#b38f9a"/></g><path d="M231.80011,217.12861l-1.36572,-9.07156l19.98699,-3.00914l1.36572,9.07157z" fill="#3a3336"/><path d="M230.34813,208.07427l0.48181,-1.61219l18.33183,-2.75992l1.2008,1.35885z" fill="#4b4246"/><path d="M231.86437,216.61396l-1.21745,-8.08645c0,0 1.83128,5.04949 4.62431,5.74773c2.79303,0.69827 16.0216,-0.58631 16.0216,-0.58631z" fill="#332c30"/><path d="M269.90129,190.98143l-4.76957,-5.34954c0,0 0.91229,-0.81153 1.50623,-0.90092c0.66397,-0.09996 2.29094,0.3293 2.29094,0.3293l4.76957,5.34954z" fill="#757575"/><path d="M273.59289,195.21356l-6.85366,-7.67747l3.79721,-0.57168l6.85366,7.67746z" fill="#5a5a5a"/><path d="M278.75058,200.95871l-6.85366,-7.67746l3.7972,-0.57168l6.85366,7.67747z" fill="#505050"/><path d="M284.08514,206.91054c-1.17059,-1.31129 -5.73801,-6.42775 -5.73801,-6.42775l3.7972,-0.57167l8.07754,9.22677c0,0 -1.95314,0.8356 -2.89429,0.9623c-0.7341,0.09885 -2.72626,-2.61147 -3.24243,-3.18969z" fill="#3b3b3b"/><path d="M179.35853,216.75618l-2.78022,-18.46663l3.14552,-0.47358l2.78022,18.46663z" fill="#443e42"/><path d="M160.93078,221.14756l-1.56064,-5.75987l20.00312,-3.01159l0.88254,5.86196z" fill="url(#color-7)"/><path d="M159.46405,216.01123l-1.61486,-10.72611l20.00312,-3.01159l1.61486,10.72612z" fill="#5e555b"/><path d="M157.86799,205.41004l0.17141,-4.23496l19.21202,-2.89246l0.61964,4.11585z" fill="url(#color-8)"/><path d="M226.79491,191.02319l-0.91313,-6.06497l15.01362,-1.18169l5.27208,3.97047z" fill="#5e555b"/><path d="M246.22046,188.09861l-5.31181,-4.23417c0,0 3.0854,0.23388 5.43744,0.88928c2.35204,0.65538 6.29092,2.37882 6.29092,2.37882z" fill="#776b73"/><path d="M223.97834,192.61581l2.97908,-1.70698l25.27507,-4.0749l3.82882,0.95172z" fill="#6d6269"/></g><g><path d="M232.63949,212.9874c-0.18592,-1.23491 0.14651,-2.45468 0.37752,-3.53066c0.32187,-1.4993 0.74082,-2.76358 1.89417,-3.79293c0.7045,-0.62879 1.77112,-1.18313 2.71326,-1.56804c0.62313,-0.25457 1.5516,-0.79893 2.24678,-0.90361c1.57595,-0.23728 1.92661,-0.2074 3.13736,0.11193c0.72935,0.19238 2.41739,0.39237 3.04648,0.97738c0.53245,0.4951 1.14413,1.36228 1.58324,1.98345c0.75031,1.06158 1.82144,2.78584 2.02816,4.15899c0.08738,0.5803 -0.19982,1.97707 -0.17222,2.49417c0.0877,1.6417 0.16284,2.14573 -0.87279,3.41757c-0.6295,0.773 -2.03837,1.53915 -2.9502,2.09099c-0.94428,0.57154 -2.07692,1.61789 -3.23661,1.7925c-0.78269,0.11784 -2.2745,-0.19857 -3.05302,-0.21911c-1.68902,-0.04453 -2.59715,-0.08419 -3.78488,-1.05842c-1.01858,-0.83538 -1.51421,-2.37713 -2.07656,-3.66536c-0.29539,-0.67678 -0.76562,-1.52387 -0.88082,-2.28889z" fill="#3a3a3a"/><path d="M233.34471,212.76128c-0.17012,-1.1301 0.13413,-2.24631 0.34545,-3.23092c0.29454,-1.37199 0.6779,-2.52888 1.73338,-3.47092c0.64468,-0.57537 1.62077,-1.08266 2.48287,-1.43491c0.57025,-0.23296 1.41992,-0.73112 2.05599,-0.82688c1.44216,-0.21712 1.76303,-0.18981 2.87104,0.10239c0.66742,0.17603 2.21211,0.3591 2.78782,0.89435c0.48727,0.45309 1.04706,1.24665 1.4488,1.81504c0.68664,0.97147 1.66678,2.54932 1.85595,3.80586c0.07995,0.53101 -0.18286,1.80919 -0.15759,2.28244c0.08026,1.50228 0.14904,1.96353 -0.79875,3.12739c-0.57604,0.70738 -1.86534,1.40842 -2.69966,1.91346c-0.8641,0.52303 -1.9006,1.48056 -2.96177,1.64034c-0.71622,0.10784 -2.08137,-0.18172 -2.79381,-0.20048c-1.54561,-0.04072 -2.37661,-0.07705 -3.46357,-0.96853c-0.93209,-0.76449 -1.38564,-2.17532 -1.9002,-3.35419c-0.27028,-0.61932 -0.70058,-1.3945 -0.80602,-2.09455z" fill="#5a5a5a"/><path d="M244.72647,206.46729c-2.37735,-2.05476 -7.44391,-1.4948 -7.44391,-1.4948c0,0 1.84024,-0.82315 3.80928,-1.11256c1.59496,-0.23447 3.20406,-0.10814 4.54436,1.00573c1.34141,1.11476 1.95193,2.52429 2.44327,3.86155c0.96337,2.62178 0.88665,5.05311 0.88665,5.05311c0,0 -1.86231,-5.25818 -4.23966,-7.3129z" fill="#6d6d6d"/><path d="M240.20612,212.22323c-0.08575,-0.56929 0.30628,-1.10027 0.87563,-1.18602c0.56929,-0.08575 1.10027,0.30628 1.18601,0.87564c0.08575,0.56929 -0.30628,1.10027 -0.87564,1.186c-0.56929,0.08575 -1.10027,-0.30628 -1.186,-0.87564z" fill="#272727"/><path d="M240.14835,212.37031c-0.07861,-0.52218 0.28095,-1.00915 0.80307,-1.0878c0.52218,-0.07861 1.00915,0.28095 1.0878,0.80307c0.07861,0.52218 -0.28095,1.00915 -0.80306,1.0878c-0.52218,0.07861 -1.00915,-0.28095 -1.0878,-0.80306z" fill="#131313"/></g></g></g></g></g><path d="M168.63093,334.26403c-0.23594,-1.56701 -10.79296,-43.084 -10.55254,-44.81422c0.32464,-2.33614 8.91233,-2.26321 11.61902,-4.1955c8.28951,-5.91796 17.31025,-11.91486 17.31025,-11.91486c0,0 13.99801,-1.52044 18.18729,-2.1511c3.13285,-0.47165 62.50429,-17.99622 64.77408,-7.90007c3.07868,13.6942 -41.7086,8.58666 -39.90265,20.58212c0.45715,3.03669 2.86917,2.87125 2.77828,6.06765c-0.02182,0.76715 -1.57633,6.23842 -1.54862,7.92924c0.04393,2.68392 3.89826,6.15128 1.0864,9.7088c-2.24143,2.83587 0.41589,7.50919 -0.03481,8.80636c-3.10565,8.93894 -11.90809,6.41688 -20.82052,7.75868c-10.56694,1.59092 -25.38942,7.58779 -34.85266,7.76123c-4.08492,0.07482 -7.35679,6.92316 -8.04348,2.36182z" fill="#86c8f5" stroke-width="0"/></g></g></svg>