<svg version="1.1" xmlns="http://www.w3.org/2000/svg" xmlns:xlink="http://www.w3.org/1999/xlink" width="469.34122" height="151.44813" viewBox="0,0,469.34122,151.44813"><defs><linearGradient x1="524.27008" y1="212.78581" x2="523.50304" y2="217.53591" gradientUnits="userSpaceOnUse" id="color-1"><stop offset="0" stop-color="#1f1d20"/><stop offset="1" stop-color="#202022"/></linearGradient><linearGradient x1="525.47811" y1="208.06294" x2="524.59547" y2="213.52839" gradientUnits="userSpaceOnUse" id="color-2"><stop offset="0" stop-color="#302d31"/><stop offset="1" stop-color="#1f1e20"/></linearGradient><linearGradient x1="187.31194" y1="202.14501" x2="186.77144" y2="205.49175" gradientUnits="userSpaceOnUse" id="color-3"><stop offset="0" stop-color="#585758"/><stop offset="1" stop-color="#575758"/></linearGradient><linearGradient x1="172.75969" y1="210.004" x2="172.33537" y2="212.63135" gradientUnits="userSpaceOnUse" id="color-4"><stop offset="0" stop-color="#363536"/><stop offset="1" stop-color="#353536"/></linearGradient><linearGradient x1="329.08741" y1="141.24564" x2="328.20446" y2="146.71332" gradientUnits="userSpaceOnUse" id="color-5"><stop offset="0" stop-color="#5e555b"/><stop offset="1" stop-color="#2b2629"/></linearGradient><linearGradient x1="322.74949" y1="119.28748" x2="322.11239" y2="123.23251" gradientUnits="userSpaceOnUse" id="color-6"><stop offset="0" stop-color="#72676e"/><stop offset="1" stop-color="#5e555b"/></linearGradient><linearGradient x1="209.02166" y1="115.00025" x2="208.07658" y2="120.85246" gradientUnits="userSpaceOnUse" id="color-7"><stop offset="0" stop-color="#5e555b"/><stop offset="1" stop-color="#4d454a"/></linearGradient><linearGradient x1="211.29385" y1="100.93027" x2="210.63029" y2="105.03934" gradientUnits="userSpaceOnUse" id="color-8"><stop offset="0" stop-color="#74686f"/><stop offset="1" stop-color="#5e555b"/></linearGradient></defs><g transform="translate(-59.86053,-99.44537)"><g data-paper-data="{&quot;isPaintingLayer&quot;:true}" fill-rule="nonzero" stroke="none" stroke-linecap="butt" stroke-linejoin="miter" stroke-miterlimit="10" stroke-dasharray="" stroke-dashoffset="0" style="mix-blend-mode: normal"><g><g stroke-width="0"><path d="M250.30453,197.13197l-7.65294,-16.77996l25.34239,3.49477c0,0 -2.0137,5.57915 -2.64127,8.21125c-0.60706,2.54616 -1.06461,7.33215 -1.06461,7.33215z" fill="#7f7d7e"/><path d="M250.37026,197.34199l-2.69916,-6.11544c0,0 1.76161,3.88559 4.85837,5.00837c2.22998,0.80849 4.14141,0.80321 6.73745,1.54742c2.59599,0.7442 4.89283,1.78655 4.89283,1.78655z" fill="#6c6a6b"/></g><g><g><g><path d="M520.55019,217.05907l-1.26554,-5.07834c0,0 5.65054,2.59184 8.07234,3.88735c2.4218,1.29554 0.72192,2.17186 0.72192,2.17186z" fill="url(#color-1)" stroke-width="0"/><path d="M528.98498,208.83151c0,0 1.08959,2.53393 -1.61687,3.00131c-2.70646,0.46739 -5.76739,1.21194 -5.76739,1.21194l-0.07568,-5.62015z" data-paper-data="{&quot;index&quot;:null}" fill="url(#color-2)" stroke-width="0"/><path d="M511.0561,215.52115l0.33455,-2.07157l14.58362,2.35517c0,0 1.1149,0.98463 1.53808,1.42403c0.38037,0.39498 -0.87529,0.80862 -0.87529,0.80862z" fill="#444444" stroke-width="NaN"/><path d="M511.40102,213.59669l-0.89579,-1.92131l12.4543,2.01127l3.08882,2.16215c0,0 -4.20186,-0.43746 -6.47997,-0.78778c-2.56923,-0.39507 -8.16732,-1.46442 -8.16732,-1.46442z" fill="#535353" stroke-width="0"/><path d="M510.37268,211.79241l-0.21858,-0.6836l11.32705,1.82919l1.58012,0.78769z" fill="#363636" stroke-width="0"/><path d="M511.0561,215.52115l0.1815,-1.1238c0,0 6.29877,1.47668 9.14167,1.93578c2.40915,0.38909 6.83105,0.64363 6.83105,0.64363c0,0 0.77938,0.59407 0.9912,0.83383c0.17871,0.20223 -0.32095,0.42755 -0.32095,0.42755c0,0 -4.73673,-0.35519 -7.02086,-0.7241c-3.08164,-0.49768 -9.80369,-1.99294 -9.80369,-1.99294z" fill="#3a3a3a" stroke-width="NaN"/><path d="M510.46801,211.17808l-0.4055,-0.96063l13.46716,2.17482l-1.94459,0.61548z" fill="#242424" stroke-width="0"/><path d="M509.23459,210.2754l0.26379,-1.63316c0,0 8.02273,1.08671 10.98013,1.56433c2.01488,0.32539 5.04874,1.02416 5.04874,1.02416l-2.02787,1.18116z" fill="#3a3a3a" stroke-width="0"/><path d="M509.36362,208.66357l0.32562,-2.01643c0,0 7.60801,0.89448 10.87988,1.42282c2.8313,0.45722 7.6215,1.56496 7.6215,1.56496l-2.71285,1.63094c0,0 -3.59497,-0.6641 -5.81078,-1.02188c-2.9452,-0.47562 -10.3034,-1.58036 -10.3034,-1.58036z" fill="#444444" stroke-width="0"/><path d="M509.63311,206.72426l0.13571,-0.84018c0,0 7.79286,1.13316 11.34409,1.70665c2.47277,0.39932 7.92469,1.40508 7.92469,1.40508l-0.98967,0.70228c0,0 -4.94331,-1.09075 -7.87063,-1.56349c-3.22513,-0.52084 -10.54417,-1.41037 -10.54417,-1.41037z" fill="#535353" stroke-width="0"/><path d="M509.62732,205.94743l0.0543,-0.33607c0,0 7.65892,0.72322 11.07506,1.27495c2.95349,0.47697 8.23626,1.84367 8.23626,1.84367l-0.01718,0.34208c0,0 -5.90573,-1.1208 -9.10923,-1.63816c-3.24539,-0.52409 -10.23915,-1.48641 -10.23915,-1.48641z" fill="#4e4e4e" stroke-width="0"/></g><g stroke-width="0"><g><g><g><path d="M505.355,214.10615l-2.42458,-13.72571l0.82037,-1.61114c0,0 2.91552,3.74188 3.4291,6.34744c0.27881,1.41456 -0.38891,9.22133 -0.38891,9.22133z" fill="#383638"/><path d="M506.50295,213.59122c0,0 0.15483,-0.59257 -0.07436,-3.11625c-0.24994,-2.75216 -1.04478,-6.56476 -1.26167,-7.68764c-0.48688,-2.52057 -1.21135,-2.76975 -1.21135,-2.76975l4.83138,0.19084l2.74177,14.19444z" fill="#555355"/><path d="M504.00512,200.11203l-0.3773,-1.3133c0,0 2.12189,-0.46775 3.0712,-0.3144c0.88956,0.14365 1.89435,1.04262 1.89435,1.04262l0.36565,1.38506z" fill="#686668"/></g><path d="M499.75484,213.20178l-2.42458,-13.7257l0.49056,-1.64405c0,0 3.24535,3.77475 3.75889,6.38029c0.27882,1.41455 -0.3889,9.22133 -0.3889,9.22133z" fill="#383638"/><path d="M500.90275,212.6868c0,0 0.15484,-0.59259 -0.07436,-3.11625c-0.24994,-2.75216 -1.04478,-6.56476 -1.26167,-7.68764c-0.48688,-2.52057 -1.21135,-2.76975 -1.21135,-2.76975l4.17071,-0.42231c0,0 0.81304,1.40179 0.96143,2.17004c0.42282,2.18889 2.44112,12.63749 2.44112,12.63749z" fill="#555355"/><path d="M498.40494,199.20757l-0.59263,-1.34812c0,0 2.33729,-0.43289 3.28662,-0.27962c0.88956,0.14365 1.60717,0.99626 1.60717,0.99626l0.4891,1.40503z" fill="#686668"/><path d="M507.46924,212.74062c0.13066,-0.80904 0.89246,-1.35896 1.70145,-1.22832c0.80906,0.13066 1.35896,0.89246 1.22832,1.70145c-0.13066,0.80904 -0.89246,1.35896 -1.70144,1.22832c-0.80906,-0.13066 -1.35896,-0.89246 -1.22832,-1.70145z" fill="#312f31"/><path d="M508.58349,209.95333l-1.08955,-5.79434l1.5939,0.11223l1.0793,5.85806z" fill="#444144"/></g><path d="M461.71713,202.02824l-1.99099,-11.28528l29.31259,5.92543l-2.00258,9.44863z" fill="#444444"/><path d="M474.82056,200.17815c0,0 0.71106,-0.4139 1.60026,-1.38951c0.81302,-0.892 1.78786,-2.33294 2.24151,-2.72941c1.23482,-1.52918 3.50857,-0.68912 3.50857,-0.68912l-1.07117,0.48853l-5.15091,4.50172z" fill="#292929"/><path d="M475.9054,211.01917l-4.68186,-11.8696c0,0 3.36928,1.08226 5.21838,0.31825c1.43691,-0.59376 1.76351,-3.20707 3.36553,-3.23296c4.59612,-0.07407 17.37518,1.5501 17.37518,1.5501c0,0 2.05962,7.57014 2.5147,10.56808c0.31416,2.0697 0.01385,6.51062 0.01385,6.51062z" fill="#4a464a"/><path d="M482.07949,198.73782c-4.40106,-1.35504 -2.76123,-2.47182 -2.76123,-2.47182c0,0 0.99016,-1.1592 2.85695,-1.0058c4.5809,0.37648 13.02151,2.32389 14.72581,2.57317c0.80375,0.11751 0.23118,0.74216 0.23118,0.74216c0,0 -1.8507,2.118 -3.42198,2.12156c-1.57133,0.00358 -7.22962,-0.60428 -11.63074,-1.95932z" fill="#5e595e"/></g><g><path d="M463.20419,215.62855l-2.2359,-18.52895l18.62029,3.29707l4.04806,5.03814l6.03693,0.87509l0.7904,13.72087z" fill="#4d4846"/><path d="M467.77309,216.75846l21.88932,-5.97827l22.07483,3.31937c0,0 0.62835,4.33858 0.55354,5.69859c-0.03815,0.69344 -0.62238,2.88178 -0.62238,2.88178z" fill="#423d3b"/><path d="M465.33302,207.94577l-1.56903,-10.22707l0.81001,0.13083l1.56903,10.22707z" fill="#363332"/><path d="M468.47893,216.06046l0.19409,-1.2018c0,0 5.60294,-1.6736 14.55186,-0.22843c1.189,0.19201 4.97716,3.38219 6.17559,3.57575c7.60359,1.22792 15.04606,2.42981 17.87742,2.88705c2.30592,0.37243 4.86787,-0.53071 4.86787,-0.53071l-0.40134,2.48518z" fill="#312e2c"/><path d="M472.84957,203.86105l-0.98552,-4.83431l8.20142,1.32445l3.397,5.02721l6.19494,1.19702l-7.80335,0.71379z" fill="#585350"/><path d="M462.36373,209.28428l0.17986,-1.11376c0,0 8.5398,-2.41296 11.38015,-1.95432c4.28094,0.69135 16.09911,2.59985 16.09911,2.59985l-0.17986,1.11376c0,0 -12.0208,-1.94127 -16.30166,-2.63251c-2.78208,-0.44933 -11.17769,1.98702 -11.17769,1.98702z" fill="#2b2827"/></g></g></g><g><g><g><path d="M125.2112,198.04373c0.17775,2.29157 -0.54059,4.7987 -1.65974,4.88548c-1.11915,0.08679 -2.21538,-2.27954 -2.39311,-4.57121c-0.17775,-2.29157 -0.91831,-11.09266 0.20086,-11.17946c1.11915,-0.08679 3.67431,8.57349 3.85199,10.86517z" fill="#615e5f" stroke-width="0"/><g><path d="M171.04312,175.12848c-0.4483,-0.60684 -2.5498,-2.27559 -2.5498,-2.27559l10.25226,-1.26169l-7.07112,6.15132c0,0 -0.183,-2.0072 -0.63137,-2.61409z" fill="#756a6a" stroke-width="0"/><path d="M162.40261,172.01387l2.18945,-13.55766l19.23154,-2.83694l-3.12469,19.34937z" fill="#8a7c7c" stroke-width="0"/><path d="M122.01044,171.00854l9.47231,-16.83855l34.50778,5.43766l2.45592,13.22739c0,0 -22.94713,-2.1093 -30.6934,-2.41396c-3.21557,-0.12649 -15.7427,0.58751 -15.7427,0.58751z" fill="#7c787a" stroke-width="0"/><path d="M131.2162,156.56288l0.08994,-1.48614c0,0 25.59264,4.13293 33.63823,5.43224c4.50155,0.72694 16.9572,-3.71443 16.9572,-3.71443l-0.25978,1.60883c0,0 -12.16215,4.46926 -16.51341,3.75174c-7.97856,-1.31569 -33.91218,-5.59217 -33.91218,-5.59217z" fill="#535353" stroke-width="0"/><path d="M90.22837,166.59308l3.21309,-19.89625c0,0 5.59778,-6.24152 13.11534,-7.35323c9.33709,-1.38077 25.72526,3.07404 27.76951,3.40411c1.56865,0.2533 -14.40321,8.22565 -14.40321,8.22565l-3.21309,19.89625z" fill="#8d898b" stroke-width="0"/><path d="M268.32011,148.61266l2.08341,-2.84855l106.16661,17.28964l-2.3509,14.55765c0,0 -37.59165,-4.20129 -49.58981,-6.56037c-5.9586,-1.1716 -56.30931,-22.43842 -56.30931,-22.43842z" fill="#c98cac" stroke-width="0"/><path d="M230.83114,244.86719l-2.42316,-13.49534c0,0 4.1414,6.58392 6.78094,8.101c1.68176,0.96656 5.79293,2.01722 12.2142,0.58515c5.16929,-1.15284 11.15044,-5.76917 11.15044,-5.76917l-13.89783,12.81084z" fill="#a08e97" stroke-width="0"/><path d="M327.64309,212.9776l1.45782,-23.69203l18.53375,1.57213l-3.37934,20.92591c0,0 -6.58966,0.67723 -9.43072,0.92578c-1.30816,0.11442 -7.18154,0.26826 -7.18154,0.26826z" fill="#96858d" stroke-width="0"/><path d="M228.41982,248.27206l0.88322,-5.46929c0,0 11.57918,3.96528 16.63721,1.62035c2.46159,-1.1412 22.43502,-19.11938 33.45421,-29.12253c4.30023,-3.90377 7.23687,-6.59291 7.23687,-6.59291c0,0 3.91789,-3.18939 4.38138,-6.03409c0.23311,-1.43101 1.36328,-5.48136 0.91087,-7.8957c-0.45645,-2.43595 -2.4966,-3.22964 -2.4966,-3.22964l-2.64605,-14.17548l19.53966,3.30103l-7.10864,25.76961l3.30169,3.12824c0,0 -10.38941,4.40003 -15.74915,8.55444c-8.38607,6.49999 -36.32037,32.76741 -36.32037,32.76741z" fill="#918189" stroke-width="0"/><path d="M304.70317,209.63033l5.75828,-28.04455l13.55549,2.46843l8.31763,13.50092l-4.81533,15.75984z" fill="#96858d" stroke-width="0"/><path d="M299.94167,210.73446l-1.8162,-4.4928l7.66898,-25.29069l5.02842,0.72625l-5.22442,28.11336z" fill="#8f8187" stroke-width="0"/><path d="M326.28419,213.22038c0,0 3.77947,-6.14307 3.30665,-11.70034c-0.27226,-3.19988 -4.80632,-5.92732 -4.97317,-7.88895c-0.31872,-3.7472 -0.81197,-9.54413 -0.81197,-9.54413l7.0589,5.56049c0,0 2.21257,7.6645 2.12318,11.96681c-0.05995,2.89048 -2.54118,8.9484 -3.87027,11.36635c-0.11202,0.20386 -1.25988,-0.06591 -1.33722,0.08912c-0.18892,0.37855 0.7261,0.76068 0.7261,0.76068z" fill="#86787e" stroke-width="0"/><path d="M330.41362,191.09393c0,0 -2.42074,-4.3971 -6.88848,-6.10281c-5.05796,-1.93105 -21.90888,-4.89147 -21.90888,-4.89147l157.98085,11.14697l1.88885,9.72736l6.04017,12.26245c0,0 -99.0928,-18.60739 -119.41778,-21.88965c-6.63233,-1.07107 -17.69468,-0.25278 -17.69468,-0.25278z" fill="#df8db7" stroke-width="0"/><path d="M170.63065,213.1832l1.0457,-36.57088c0,0 2.25967,-3.43436 2.7888,-3.56736c5.83402,-1.46651 39.15907,-6.87464 44.48311,-5.72486c5.83224,1.25948 -10.99442,10.62528 -10.99442,10.62528c0,0 -14.54851,-0.29727 -17.73131,3.49368c-4.3213,5.14702 -2.30249,23.05137 -2.30249,23.05137z" fill="#c77da3" stroke-width="0"/><path d="M246.89617,195.18278l-1.43098,-2.36362c0,0 7.84718,-7.45085 10.61521,-9.32624c2.85761,-1.93619 6.27027,-2.11451 6.27027,-2.11451l5.49254,3.21902c0,0 -4.33872,-1.20971 -6.94585,0.10771c-2.23814,1.131 -6.43308,3.57214 -9.69043,6.17848c-2.3695,1.8959 -4.31069,4.29915 -4.31069,4.29915z" fill="#414041" stroke-width="0"/><path d="M131.06776,155.47905l6.60226,-10.7748l48.00649,7.75261c0,0 -3.57182,3.9364 -6.965,5.38004c-3.33027,1.41693 -13.20881,3.20303 -13.20881,3.20303z" fill="#979395" stroke-width="0"/><path d="M132.03966,154.47836l5.81239,-10.90229l48.00649,7.75261c0,0 -3.57182,3.9364 -6.965,5.38004c-3.33027,1.41693 -13.20881,3.20303 -13.20881,3.20303z" fill="#bdb7ba" stroke-width="0"/><path d="M328.61042,213.92095l-1.76708,-0.80552l17.29895,-1.43523c0,0 -3.84283,1.46348 -6.42205,1.85418c-2.57921,0.39077 -9.1098,0.38658 -9.1098,0.38658z" fill="#887980" stroke-width="0"/><path d="M173.01055,214.03807c0,0 -0.64177,-10.70468 -0.46633,-19.32546c0.17632,-8.66278 0.36689,-16.78299 0.91654,-20.32542c0.09315,-0.60011 3.30336,-10.14107 3.87983,-10.5761c3.11184,-2.34836 9.52015,6.53047 15.18901,6.32804c8.39374,-0.29963 27.33982,2.23922 27.33982,2.23922l-9.19224,3.89505c0,0 -19.65759,-0.27232 -22.83768,4.41794c-4.30137,6.34405 -0.15508,28.15679 -0.15508,28.15679z" fill="#d486ae" stroke-width="0"/><path d="M174.68859,210.74466c0,0 -0.05996,-41.41076 2.85649,-51.14737c1.36456,-4.55564 -0.49529,-14.08181 -0.49529,-14.08181l48.90822,14.95717l-1.15627,16.09147c0,0 -31.13931,-8.16202 -38.40878,-2.98067c-4.8526,3.45868 -2.63326,32.42607 -2.63326,32.42607z" fill="#e490bb" stroke-width="0"/><g stroke-width="0"><path d="M321.38491,170.62494l1.31921,-8.16902l9.24023,1.49223l-1.31921,8.16902z" fill="#454545"/><path d="M322.32855,170.00256l0.81134,-7.26163l11.18133,1.80569l-1.1635,7.20476z" fill="#b0b0b0"/><path d="M322.81664,165.5342l0.22556,-2.83057l11.39521,1.84024l-0.30407,1.883c0,0 -7.74466,-0.92405 -9.44433,-1.05811c-0.56795,-0.04483 -1.87232,0.16546 -1.87232,0.16546z" fill="#bebebe"/><path d="M333.49549,171.24927c0,0 -5.06243,-3.40602 -3.90129,-7.01469c1.72545,-5.36252 5.71771,-4.23355 5.71771,-4.23355l39.5151,7.73194l-1.60392,9.93193z" fill="#9c989a"/><path d="M335.46547,170.26143c0,0 -1.89397,-3.8704 -1.98721,-4.82429c-0.13827,-1.414 2.3025,-4.01546 2.3025,-4.01546l41.05843,6.66435l-1.58875,7.32907z" fill="#898587"/><path d="M335.34464,170.44273l-0.69735,-2.0771l37.74275,6.09513l-0.30919,1.91459z" fill="#c1bcbf"/><path d="M335.76609,167.07292c0,0 -1.0982,-1.56304 -0.94875,-2.48842c0.13975,-0.86562 1.81835,-2.89635 1.81835,-2.89635l38.17214,6.16447l-0.86965,5.38477z" fill="#0d0d0d"/><path d="M335.64218,167.84031c0,0 -1.00191,-2.15909 -0.85248,-3.08444c0.13975,-0.86562 1.72207,-2.30036 1.72207,-2.30036l38.17215,6.16447l-0.86965,5.38477z" fill="#2e2e2e"/><path d="M330.57444,168.94984c-2.11616,-3.44848 -0.59336,-5.56933 -0.59336,-5.56933c0,0 1.1532,4.35185 2.22978,5.43496c1.27466,1.28229 4.6205,3.20632 4.6205,3.20632l-3.4751,-0.49012c0,0 -2.40944,-1.97491 -2.78183,-2.58176z" fill="#7d7a7c"/><path d="M338.15957,168.5605c0,0 -0.52483,-2.32547 -0.34256,-3.45437c0.16023,-0.99242 1.37878,-2.9625 1.37878,-2.9625l4.76161,0.76899c0,0 -0.8066,2.10227 -0.94499,2.9594c-0.19025,1.17803 -0.09125,3.45742 -0.09125,3.45742z" fill="#555555"/><path d="M346.66607,169.93432c0,0 1.06038,-2.38457 1.24266,-3.51353c0.16023,-0.99242 -0.2064,-2.90337 -0.2064,-2.90337l5.31447,0.85823c0,0 -0.68477,1.62669 -0.82322,2.48382c-0.19025,1.17803 -0.21308,3.93306 -0.21308,3.93306z" fill="#555555"/><path d="M355.87346,171.42117c0,0 1.06038,-2.38456 1.24268,-3.51351c0.16023,-0.99242 -0.2064,-2.90336 -0.2064,-2.90336l5.23552,0.84547c0,0 -0.68477,1.62669 -0.82322,2.48382c-0.19025,1.17803 -0.21308,3.93306 -0.21308,3.93306z" fill="#555555"/><path d="M365.41312,172.96174c0,0 1.1792,-2.00518 1.36149,-3.13416c0.16023,-0.99242 -0.32527,-3.28268 -0.32527,-3.28268l5.07755,0.81998c0,0 0.50124,2.08834 0.36281,2.94555c-0.19025,1.17803 -1.39905,3.47136 -1.39905,3.47136z" fill="#555555"/><path d="M338.82085,162.79623l-0.52906,-0.89581l35.10774,5.66957l-1.64217,0.54517c0,0 -2.79388,-0.4512 -5.22459,-0.84372c-0.52981,-0.08559 -1.48001,-0.57201 -2.27364,-0.70025c-0.76732,-0.12388 -1.37049,0.11169 -2.32436,-0.04233c-1.48741,-0.2402 -3.16564,-0.51119 -4.92254,-0.79495c-0.72838,-0.11764 -1.30101,-0.59861 -2.04851,-0.71935c-0.66466,-0.10731 -1.50302,0.14575 -2.17084,0.03795c-1.6574,-0.26765 -3.29845,-0.53268 -4.84138,-0.78183c-0.70852,-0.11442 -1.32644,-0.65822 -1.98567,-0.76469c-0.80477,-0.12999 -1.63672,0.17974 -2.34184,0.06584c-2.87624,-0.4645 -4.80322,-0.77566 -4.80322,-0.77566z" fill="#474747"/></g><g><path d="M182.79453,205.54154l4.12668,-2.2382c0,0 2.34001,3.22925 4.99516,4.56458c2.34831,1.18104 10.12842,3.04148 10.12842,3.04148l-3.31529,3.87533z" fill="#6d6a6b" stroke-width="0"/><path d="M173.80236,210.67373l10.2908,-5.819c0,0 2.83362,2.74335 4.86913,3.74255c3.07946,1.51162 11.80957,4.44462 11.80957,4.44462l-4.9097,3.57024z" fill="#615e5f" stroke-width="0"/><path d="M172.27342,232.67881l2.13433,-22.52086c0,0 4.17229,1.47599 8.92719,2.27386c3.71138,0.62272 7.84242,0.43178 10.19744,1.42837c4.13439,1.74948 35.26183,19.29207 35.26183,19.29207l0.82465,10.43983z" fill="#575455" stroke-width="0"/><path d="M197.89991,209.42503c7.73186,-4.38869 17.84272,-16.38223 19.49494,-18.72011c1.19026,-1.68427 2.7101,-6.78322 2.7101,-6.78322l6.51872,7.95584c0,0 2.50727,21.1672 1.65656,33.84043c-0.23805,3.5461 1.61831,7.84219 0.21339,9.10082c-1.25872,1.12767 -18.3682,0.6842 -23.57149,-0.93079c-10.95021,-3.39861 -17.11288,-1.56816 -19.96869,-7.37305c-2.85584,-5.80486 5.15375,-10.86288 5.15375,-10.86288c0,0 5.77978,-5.08438 7.79267,-6.22695z" fill="#504e4f" stroke-width="0"/><path d="M207.87724,177.78579c0,0 0.62872,-1.41059 1.58057,-1.92897c1.22415,-0.66671 5.15495,-1.73941 5.15495,-1.73941c0,0 8.91758,3.53424 11.49236,6.47232c2.37562,2.71076 -5.46385,11.85916 -5.46385,11.85916l-1.12612,-5.61269z" fill="#464445" stroke-width="0"/><path d="M223.28529,228.11339c0,0 -10.16287,4.69559 -18.56607,3.51223c-8.10661,-1.1416 -14.47058,-8.13754 -14.13822,-9.52446c0.18009,-0.75147 8.5336,-2.7506 12.63867,-6.36376c4.56318,-4.01642 4.99,-9.72289 6.64407,-11.49225c4.61778,-4.93969 14.57744,-13.64167 14.4935,-19.77715c-0.08802,-6.43442 -10.33791,-10.19039 -10.33791,-10.19039c0,0 4.16092,-1.60892 9.10353,-0.94225c2.10542,0.28401 6.37388,2.3771 7.22396,2.90434c2.78776,1.72894 4.49212,3.66159 4.49212,3.66159c0,0 4.38967,-4.23366 7.99504,-3.96487c3.60536,0.26879 21.72043,6.18003 21.72043,6.18003l-18.01101,9.84856z" fill="#555354" stroke-width="0"/><path d="M209.37772,204.76926c0,0 6.29512,-9.99702 11.83148,-14.60831c5.53631,-4.61124 10.06964,-7.10087 13.55678,-6.53771c2.52524,0.4078 4.39787,9.43725 4.39787,9.43725l-15.52181,26.63533c0,0 -14.9569,0.90619 -16.01977,-1.77827c-0.83945,-2.12017 1.75552,-13.14828 1.75552,-13.14828z" fill="#585758" stroke-width="0"/><path d="M227.29233,235.31574c0,0 -1.85434,-6.57074 -1.05042,-9.5023c1.12304,-4.09533 4.5658,-16.35725 4.5658,-16.35725l0.26792,10.61416c0,0 -2.1863,9.52074 -2.53833,12.53298c-0.33965,2.90635 0.71945,5.27593 0.71945,5.27593z" fill="#3f3e3f" stroke-width="0"/><path d="M229.22379,217.53098c0.07408,-1.68452 1.56689,-9.25428 1.56689,-9.25428c0,0 11.75842,-12.85781 14.25202,-15.14257c0.73098,-0.66978 4.31971,-1.84363 4.31971,-1.84363l-2.39902,4.52938c0,0 -1.64998,0.34534 -1.90369,0.7884c-0.27027,0.47205 0.32858,1.96236 0.32858,1.96236l-6.41521,7.554c0,0 -1.79067,0.73449 -2.04806,1.20484c-0.25749,0.47045 0.27972,1.45691 0.27972,1.45691c0,0 -5.23054,8.21242 -6.44722,10.46203c-0.56255,1.04013 -0.55893,2.49186 -0.55893,2.49186c0,0 -1.04882,-2.52467 -0.97472,-4.20922z" fill="#474647" stroke-width="0"/><path d="M219.60848,194.7381l19.47658,11.48731c0,0 -1.33511,0.80982 -1.65522,1.3041c-0.23621,0.3648 -0.09125,1.39309 -0.09125,1.39309z" fill="#3f3e3e" stroke-width="NaN"/><path d="M227.18227,185.47412l20.01251,10.38213c0,0 -1.2352,0.65474 -1.5322,1.17034c-0.30961,0.53749 -0.11687,1.66177 -0.11687,1.66177z" fill="#3f3e3e" stroke-width="NaN"/><path d="M210.32896,211.80406c0,0 9.32922,9.29929 14.17919,16.1375c4.84994,6.83825 2.74167,7.72031 2.74167,7.72031z" fill="#636162" stroke-width="NaN"/><path d="M227.12169,191.16063c0,0 -6.3869,1.91025 -9.59462,4.52826c-3.20777,2.61802 -14.01513,17.26531 -13.5455,14.35742c0.4696,-2.90786 16.72696,-21.272 18.49894,-20.98586c0.6708,0.10831 3.85033,-0.53527 4.62039,-0.17036c1.26423,0.59907 0.02083,2.27046 0.02083,2.27046z" fill="#918f91" stroke-width="0"/><path d="M171.84364,232.47829l14.06554,0.35866c0,0 12.4878,1.68008 15.55964,2.33323c7.48087,1.59058 29.48852,7.24496 29.48852,7.24496l-1.44901,6.16895c0,0 -24.6178,-0.36391 -31.21429,-2.76185c-1.90834,-0.69374 -7.55213,-2.23121 -11.53782,-4.24458c-7.79991,-3.94007 -14.91256,-9.09942 -14.91256,-9.09942z" fill="#626061" stroke-width="0"/><path d="M228.57235,248.07664c0,0 0.72429,-4.2313 0.65414,-6.61277c-0.07886,-2.67671 -1.10428,-8.66568 -1.10428,-8.66568l1.75953,0.28418c0,0 0.98668,4.6739 1.05807,7.09711c0.07805,2.64942 -0.60788,8.18131 -0.60788,8.18131z" fill="#4a494a" stroke-width="0"/><path d="M228.24621,248.87114l0.62871,-3.33967c0,0 0.51729,0.3517 0.78534,0.39496c0.31847,0.05144 0.95956,-0.11318 0.95956,-0.11318l-0.3349,3.16365c0,0 -0.83162,0.27861 -1.20306,0.25931c-0.28462,-0.01476 -0.8356,-0.36512 -0.8356,-0.36512z" fill="#363536" stroke-width="0"/><path d="M228.23023,233.85429l-0.12255,-1.66143c0,0 0.46854,-0.28331 0.84178,-0.28309c0.35543,0.00027 0.85159,0.20468 0.85159,0.20468l0.21836,1.79418c0,0 -0.5566,0.42413 -0.8631,0.41481c-0.28881,-0.00878 -0.92609,-0.4692 -0.92609,-0.4692z" fill="#585758" stroke-width="0"/><path d="M187.32831,240.97932c0,0 -7.32341,-4.17374 -7.10611,-5.51935c0.21842,-1.3523 6.56249,-1.51375 6.56249,-1.51375c0,0 10.84228,1.50708 15.7084,2.46771c2.7242,0.53786 11.00264,2.8056 11.00264,2.8056c0,0 7.03049,2.20324 7.65159,3.47018c0.67742,1.38197 -3.59033,3.57121 -3.59033,3.57121c0,0 -12.76933,-0.73914 -16.65024,-1.57681c-1.37861,-0.29758 -13.57831,-3.70468 -13.57831,-3.70468z" fill="#6b696a" stroke-width="0"/><path d="M178.17835,232.51076l-1.97335,-0.08489c0,0 1.16599,-3.29087 3.65313,-1.63093c2.48721,1.65999 21.37973,3.68645 21.37973,3.68645z" fill="#4b4949" stroke-width="0"/><path d="M171.93867,232.34776c0,0 -2.00278,-0.12936 -1.95026,-3.81082c0.02661,-1.86354 0.57148,-16.15155 0.57148,-16.15155l4.15034,-2.2664c0,0 -0.28249,6.02582 -0.54161,8.92378c-0.3447,3.85429 -1.31854,13.45221 -1.31854,13.45221z" fill="#3f3d3e" stroke-width="0"/><path d="M178.4696,232.72592c0,0 3.49591,-1.62155 19.40067,0.60547c1.31345,0.18393 -1.76708,-0.31785 7.43152,1.68163c9.19867,1.99939 12.81572,4.11577 12.81572,4.11577c0,0 -14.70299,-3.45765 -20.82651,-4.44649c-6.98004,-1.12723 -18.82145,-1.95626 -18.82145,-1.95626z" fill="#838082" stroke-width="0"/><path d="M188.17981,204.27793c0,0 -4.6634,1.46268 -7.06821,2.71079c-2.70293,1.40287 -8.35959,5.29662 -8.35959,5.29662l-0.51907,-1.7062c0,0 4.32885,-3.20455 6.77577,-4.47457c2.67531,-1.38851 8.65211,-3.5329 8.65211,-3.5329z" fill="#4a494a" stroke-width="0"/><path d="M189.1429,204.17237l-3.78344,1.09135c0,0 0.19823,-0.62279 0.1191,-0.88269c-0.09398,-0.30883 -0.55751,-0.79699 -0.55751,-0.79699l3.39162,-1.27735c0,0 0.66788,0.60082 0.81915,0.94077c0.11591,0.26051 0.01095,0.92485 0.01095,0.92485z" fill="url(#color-3)" stroke-width="0"/><path d="M173.78281,211.66346l-3.34844,2.22445l0.20594,-2.17765l2.37461,-1.66492c0,0 0.69021,0.28377 0.82175,0.56098c0.12392,0.26122 -0.05391,1.05714 -0.05391,1.05714z" fill="url(#color-4)" stroke-width="0"/></g><path d="M306.01188,208.73096c0,0 1.61998,-4.21427 2.33834,-5.50539c0.48761,-0.87648 3.05892,-1.91139 3.05892,-1.91139l16.83653,2.49795c0,0 -2.18512,5.51997 -2.77917,6.80804c-0.26023,0.56423 -1.42298,1.07806 -1.42298,1.07806z" fill="#665b60" stroke-width="0"/><path d="M260.93002,182.95758c0,0 -3.49656,-2.14735 -8.17836,-4.07059c-2.97618,-1.2226 -7.10125,-2.46285 -8.95531,-2.65512c-5.39039,-0.55901 -8.69103,4.07899 -8.69103,4.07899c0,0 -2.86224,-2.80798 -4.80661,-3.98777c-1.81506,-1.10128 -5.95287,-2.78337 -5.95287,-2.78337c0,0 25.057,-1.11076 28.95142,-1.06946c7.46588,0.07911 33.7434,4.71918 33.7434,4.71918l3.8668,15.09527z" fill="#8b7c84" stroke-width="0"/><g stroke-width="0"><path d="M307.59824,208.03213c0,0 0.87936,-2.4879 1.42716,-3.30582c0.56794,-0.84806 2.89152,-1.53891 2.89152,-1.53891l14.34418,2.31645c0,0 0.22468,1.03198 -0.12535,1.72281c-0.47589,0.93923 -3.65489,3.20882 -3.65489,3.20882z" fill="#585852"/><path d="M307.71706,207.29637c0,0 0.76054,-1.75205 1.30836,-2.57c0.56794,-0.84806 3.01038,-2.2747 3.01038,-2.2747l14.34417,2.31645c0,0 0.10584,1.76781 -0.24414,2.45864c-0.47589,0.93923 -3.53608,2.47296 -3.53608,2.47296z" fill="#797971"/><path d="M324.55935,204.9761c-1.0071,-0.34287 -12.43774,-2.46371 -12.43774,-2.46371l14.32455,2.31329l-0.3925,2.43034c0,0 -0.48726,-1.93703 -1.49434,-2.27994z" fill="#85857b"/></g><path d="M311.90765,190.3246l0.82738,-5.12338l7.0446,1.13762l0.45346,5.33024z" fill="#7c6e75" stroke-width="0"/><path d="M305.82949,162.57712l-2.82698,-8.69316l1.36171,0.21992l4.66571,9.44754z" fill="#d495b6" stroke-width="0"/><path d="M268.54106,148.8275l13.54253,-0.94268l21.11117,6.05558l2.66161,8.6269z" fill="#df9cbe" stroke-width="0"/><path d="M311.26622,195.31371l0.25859,-1.60103l10.72706,1.73231l0.70207,1.75622z" fill="#7c6e75" stroke-width="0"/><path d="M273.1509,176.84681c0,0 -18.09273,-1.70791 -23.73322,-2.11209c-8.5409,-0.6121 -25.76356,-1.038 -25.76356,-1.038c0,0 15.53951,-1.98869 29.11587,-1.33196c14.72023,0.71204 58.43875,6.29593 58.43875,6.29593l-0.86231,5.33987z" fill="#75686e" stroke-width="0"/><path d="M264.92269,184.40214l-3.11079,-1.08059c0,0 10.02566,-0.79624 15.17526,0.80803c5.14962,1.60429 13.49292,8.12309 13.49292,8.12309z" fill="#7c6e76" stroke-width="0"/><path d="M219.70329,173.01719c0,0 -29.48881,-20.35807 -29.63237,-25.06125c-0.13037,-4.27228 29.06601,7.07226 29.37723,7.0129c5.4455,-1.039 77.55931,3.29836 77.55931,3.29836l25.18601,10.94461l52.17816,7.8475l5.05049,14.56691c0,0 -60.95809,-8.66015 -84.4464,-12.28816c-8.15343,-1.25937 -24.66716,-4.58227 -39.95713,-5.89637c-11.79416,-1.01364 -29.94243,0.42808 -29.94243,0.42808z" fill="#ee96c3" stroke-width="0"/><path d="M90.22361,164.81317l6.49746,-19.36583c0,0 1.02435,-6.98008 8.54196,-8.09176c9.33709,-1.38077 25.72526,3.07405 27.7695,3.40412c1.56865,0.2533 -14.40322,8.22565 -14.40322,8.22565l-3.21308,19.89623z" fill="#c4b4b3" stroke-width="0"/><g stroke-width="0"><path d="M370.69658,191.61707l-0.40645,-15.40473l90.49195,21.46578l-1.67282,5.61204l-47.59632,-2.76636z" fill="#ad6d8e"/><path d="M398.99054,181.66431l8.49862,-7.00745l26.77168,2.16679l-5.90825,9.58242z" fill="#8d788b"/><path d="M373.65589,178.777l2.58829,-16.02763l31.3137,11.92279l-5.61523,6.0512z" fill="#857183"/><path d="M416.0615,182.26123l18.13727,-5.4464l26.88408,8.16309l-1.38147,6.76022z" fill="#947e92"/><path d="M369.63714,177.51164l4.89185,-12.14137l1.91674,-2.79398l-2.40156,14.87119z" fill="#756474"/><path d="M372.47198,188.64777l1.21265,-12.03326l43.02268,5.27756l-3.7703,15.65625z" fill="#746373"/><path d="M412.93189,197.53178c0,0 1.38069,-6.16626 2.03032,-8.94231c0.55619,-2.37684 1.6308,-6.70317 1.6308,-6.70317l43.48976,7.94408l0.63525,8.61139z" fill="#867284"/><path d="M369.6883,177.44853l4.22015,-0.86923l-1.40806,12.08077z" fill="#6f5e6d"/><path d="M453.97697,183.72139l-19.02844,-6.48018l25.80566,7.85088l-0.92419,3.44212c0,0 -0.05942,-1.59919 -1.13986,-2.48771c-0.72277,-0.59436 -4.71313,-2.32515 -4.71313,-2.32515z" fill="#978195"/><path d="M414.51245,181.35296c0,0 8.42508,-2.14962 11.38363,-3.04346c2.15521,-0.65111 4.73393,-1.82611 4.73393,-1.82611l2.48347,0.51511l-15.9863,4.7766z" fill="#9c859a"/><path d="M400.18663,179.85824c0,0 1.73835,-2.50726 3.28661,-3.62496c1.54827,-1.11775 3.95695,-1.55455 3.95695,-1.55455l-4.81351,5.5719z" fill="#806b7d"/><path d="M436.03403,175.34284l3.02009,-5.3199l14.41041,6.10892l4.50808,7.21093z" fill="#55494f"/><path d="M433.08669,177.70325c0,0 1.19454,-0.60748 1.84098,-1.09545c0.48693,-0.36755 1.38688,-1.62474 1.38688,-1.62474l21.39062,7.50621c0,0 0.77753,0.62899 1.30435,1.04396c0.55054,0.43364 1.93078,1.5044 1.93078,1.5044z" fill="#685960"/><path d="M436.73028,174.5515l2.36835,-4.26232l13.43507,5.53961c0,0 -7.65998,-2.78959 -12.12431,-3.25259c-2.58959,-0.26855 -3.67903,1.97529 -3.67903,1.97529z" fill="#41383c"/></g><path d="M98.10429,126.2968l0.83033,-5.14175c0,0 22.2573,2.28254 43.92553,5.83943c12.9123,2.11962 26.05388,5.86018 32.9424,6.618c15.53222,1.70862 26.58648,-1.07685 26.58648,-1.07685l-7.95627,9.49616z" fill="#ffa1d1" stroke-width="0"/><path d="M93.33414,139.66486l4.69669,-15.53248c0,0 53.76692,10.77004 71.45611,13.18034c10.47833,1.42777 24.89878,-0.05136 24.89878,-0.05136l-2.33439,14.45508c0,0 -66.6377,-10.76138 -82.70194,-13.35564c-6.60504,-1.06667 -20.30129,27.8445 -20.30129,27.8445z" fill="#ee96c3" stroke-width="0"/><path d="M258.05664,243.74922l11.32888,-11.9425c0,0 12.31985,-14.07313 22.69406,-19.34951c2.63625,-1.34078 7.93042,-1.69786 7.93042,-1.69786c0,0 -8.0052,3.75694 -11.01187,6.09899c-7.10039,5.53092 -30.9414,26.89087 -30.9414,26.89087z" fill="#70646b" stroke-width="0"/><path d="M363.17435,195.04411l-3.3501,-18.77605l1.33282,0.21525c0,0 1.0146,5.68634 1.55068,8.69107c0.07638,0.42809 1.22924,1.8512 1.32383,2.38149c0.16403,0.91926 -0.71624,1.02376 -0.53292,2.05112c0.51043,2.86083 1.0085,5.65236 1.0085,5.65236z" fill="#795467" stroke-width="0"/><path d="M192.60674,152.24351c0,0 -9.30336,-8.1396 -8.03086,-11.75796c0.76188,-2.16646 18.65684,-7.33179 18.65684,-7.33179l67.35919,12.57168l-2.10934,2.79557l28.43422,9.90828l-75.11449,14.78916c0,0 0.11372,-5.66816 4.12563,-7.91549c3.89916,-2.18412 19.61698,-5.38424 19.61698,-5.38424c0,0 -33.77191,-5.50348 -40.95582,-6.75143c-2.39668,-0.41637 -11.98239,-0.92391 -11.98239,-0.92391z" fill="#f399c8" stroke-width="0"/><g><path d="M201.15204,134.76693l0.51629,-3.19693l174.29553,28.14722l-0.51629,3.19693z" fill="#584f54" stroke-width="0"/><path d="M370.20208,159.03811l0.43622,-2.70134l3.01621,0.48711l2.22508,3.13116z" fill="#685d63" stroke-width="0"/><g fill="#685d63" stroke-width="0"><g><g><g><path d="M363.58747,158.22235l0.47465,-2.93895l3.83146,0.61873l-0.47465,2.93895z"/><path d="M357.37048,157.21835l0.47465,-2.93895l3.83147,0.61874l-0.47465,2.93895z"/></g><g><path d="M351.3881,156.25229l0.47465,-2.93896l3.83147,0.61874l-0.47465,2.93895z"/><path d="M345.17111,155.2483l0.47465,-2.93895l3.83146,0.61874l-0.47465,2.93896z"/></g></g><g><g><path d="M339.07141,154.2632l0.47465,-2.93896l3.83146,0.61874l-0.47465,2.93895z"/><path d="M332.85437,153.25924l0.47465,-2.93895l3.83146,0.61873l-0.47465,2.93896z"/></g><g><path d="M326.87206,152.29309l0.47465,-2.93895l3.83146,0.61874l-0.47465,2.93895z"/><path d="M320.65507,151.28911l0.47465,-2.93895l3.83145,0.61871l-0.47465,2.93896z"/></g></g></g><g><g><g><path d="M320.42047,151.25129l0.47465,-2.93895l3.83146,0.61874l-0.47465,2.93895z"/><path d="M314.20352,150.24726l0.47465,-2.93895l3.83147,0.61874l-0.47465,2.93895z"/></g><g><path d="M308.22114,149.28118l0.47465,-2.93896l3.83146,0.61874l-0.47465,2.93895z"/><path d="M302.00412,148.27719l0.47465,-2.93895l3.83145,0.61871l-0.47465,2.93896z"/></g></g><g><g><path d="M295.90451,147.29217l0.47465,-2.93896l3.83147,0.61874l-0.47465,2.93895z"/><path d="M289.68747,146.28816l0.47465,-2.93895l3.83147,0.61874l-0.47465,2.93896z"/></g><g><path d="M283.70509,145.32208l0.47465,-2.93895l3.83146,0.61873l-0.47465,2.93896z"/><path d="M277.48813,144.31806l0.47465,-2.93895l3.83147,0.61874l-0.47465,2.93895z"/></g></g></g></g><g><g fill="#685d63" stroke-width="0"><g><g><path d="M271.34849,143.32662l0.47465,-2.93896l3.83147,0.61874l-0.47465,2.93895z"/><path d="M265.13153,142.32258l0.47465,-2.93895l3.83147,0.61874l-0.47465,2.93896z"/></g><g><path d="M259.14915,141.35652l0.47465,-2.93895l3.83147,0.61874l-0.47465,2.93896z"/><path d="M252.93221,140.35247l0.47465,-2.93895l3.83146,0.61873l-0.47465,2.93896z"/></g></g><g><g><path d="M246.83254,139.36749l0.47465,-2.93896l3.83147,0.61874l-0.47465,2.93895z"/><path d="M240.61553,138.36341l0.47465,-2.93895l3.83147,0.61874l-0.47465,2.93896z"/></g><g><path d="M234.63308,137.39734l0.47465,-2.93895l3.83147,0.61874l-0.47465,2.93896z"/><path d="M228.41614,136.39341l0.47465,-2.93895l3.83146,0.61873l-0.47465,2.93895z"/></g></g></g><g><g fill="#685d63" stroke-width="0"><g><path d="M228.18157,136.3555l0.47465,-2.93896l3.83147,0.61874l-0.47465,2.93895z"/><path d="M221.96456,135.35151l0.47465,-2.93895l3.83146,0.61873l-0.47465,2.93896z"/></g><g><path d="M215.98219,134.3854l0.47465,-2.93895l3.83146,0.61873l-0.47465,2.93896z"/><path d="M209.76524,133.38136l0.47465,-2.93895l3.83146,0.61873l-0.47465,2.93895z"/></g></g><g fill="none" stroke-width="1" font-family="sans-serif" font-weight="normal" font-size="12" text-anchor="start"><g/><g/></g></g></g><path d="M201.69936,131.82647l3.09758,-2.27154l3.01621,0.48711l-0.43622,2.70134z" data-paper-data="{&quot;index&quot;:null}" fill="#685d63" stroke-width="0"/></g><path d="M252.63961,173.36529l-2.5623,-0.14024c0,0 2.06679,-2.26701 11.719,-1.85061c7.31778,0.31573 27.82714,2.29934 40.09897,3.52573c5.69872,0.56947 62.91299,0.69054 62.91299,0.69054l5.13458,0.8147c0,0 -62.62336,0.66951 -68.31418,0.07777c-12.58397,-1.30852 -33.74868,-3.4732 -39.91089,-3.88235c-3.35448,-0.22271 -9.07808,0.76454 -9.07808,0.76454z" fill="#70475c" stroke-width="0"/><path d="M349.22579,208.23735l-5.15511,1.03723l3.01882,-18.68912c0,0 7.68409,1.28996 15.19898,2.55149c21.573,3.62148 125.25441,21.0266 125.25441,21.0266l-1.0725,6.64118z" fill="#5a5959" stroke-width="0"/><path d="M348.06283,209.69903l1.55615,-2.7937l136.88091,13.79325l-13.46223,9.1828z" fill="#4b4a4a" stroke-width="0"/><path d="M469.824,229.17086c0,0 -5.31661,-4.12512 -8.08261,-6.01838c-1.48231,-1.01461 -7.22342,-4.45825 -7.22342,-4.45825c0,0 7.43618,4.14222 10.58686,5.61131c1.12443,0.52432 2.11525,1.43672 3.31837,2.16601c0.388,0.23517 2.62795,-2.19805 4.77589,-3.58773c0.64204,-0.41537 1.72932,0.12946 2.30073,-0.11334c1.30992,-0.55664 1.83833,-1.57685 1.83833,-1.57685c0,0 0.18496,0.97144 -1.21191,1.9754c-0.3811,0.27397 -2.21715,0.33434 -2.5959,0.63816c-1.51788,1.2179 -2.76179,2.63679 -3.15726,3.17177c-1.10362,1.49295 0.89551,2.42523 0.89551,2.42523z" fill="#414040" stroke-width="0"/><path d="M192.51101,152.52935l5.53585,-10.34856l7.01605,0.50066c0,0 -1.36067,2.46276 -2.1626,3.91423c-0.20196,0.36555 11.7531,0.31471 11.99364,1.0333c0.44632,1.33318 -5.65394,4.15667 -6.15829,5.06945c-0.57659,1.04359 -9.23283,0.0466 -9.23283,0.0466z" fill="#303030" stroke-width="0"/><path d="M192.42826,152.14111l5.29954,-9.54079c0,0 2.75382,1.76623 2.59678,2.73858c-0.28574,1.7693 -2.76712,7.23065 -2.76712,7.23065z" fill="#252525" stroke-width="0"/><path d="M343.62947,211.89341l0.47067,-2.91466l5.92382,-2.03401l-1.69299,2.71722c0,0 -1.28935,1.14436 -2.11619,1.53681c-0.72756,0.34532 -2.58537,0.69457 -2.58537,0.69457z" fill="#383838" stroke-width="0"/><g><g fill="#4b4b4b" stroke-width="0"><g data-paper-data="{&quot;origPos&quot;:null}"><g data-paper-data="{&quot;origPos&quot;:null}"><path d="M409.69335,223.95093l0.36234,-2.24367l3.70207,0.59784l-0.36234,2.24367z" data-paper-data="{&quot;origPos&quot;:null}"/><path d="M403.5414,222.84234l0.36234,-2.24367l3.70206,0.59784l-0.36234,2.24366z" data-paper-data="{&quot;origPos&quot;:null}"/></g><g data-paper-data="{&quot;origPos&quot;:null}"><path d="M422.01542,226.05591l0.36234,-2.24367l3.70207,0.59784l-0.36234,2.24366z" data-paper-data="{&quot;origPos&quot;:null}"/><path d="M415.86345,224.9473l0.36234,-2.24366l3.70206,0.59784l-0.36234,2.24367z" data-paper-data="{&quot;origPos&quot;:null}"/></g></g><g data-paper-data="{&quot;origPos&quot;:null,&quot;index&quot;:null}"><g data-paper-data="{&quot;origPos&quot;:null}"><path d="M441.01057,228.89325l0.36234,-2.24367l3.70207,0.59784l-0.36234,2.24366z" data-paper-data="{&quot;origPos&quot;:null}"/><path d="M447.19873,229.77746l0.36233,-2.24366l3.70207,0.59784l-0.36235,2.24365z" data-paper-data="{&quot;origPos&quot;:null}"/></g><g data-paper-data="{&quot;origPos&quot;:null}"><path d="M428.65231,227.01259l0.36234,-2.24367l3.70206,0.59784l-0.36233,2.24366z" data-paper-data="{&quot;origPos&quot;:null}"/><path d="M434.84047,227.89684l0.36234,-2.24366l3.70207,0.59784l-0.36234,2.24366z" data-paper-data="{&quot;origPos&quot;:null}"/></g></g></g><path d="M368.83252,209.00025l2.16995,-13.43703l83.39359,13.46736l-2.16995,13.43703z" data-paper-data="{&quot;origPos&quot;:null}" fill="#444444" stroke-width="0"/><path d="M368.17694,213.67784l0.76249,-4.72125l83.14849,13.42773l-0.76249,4.72126z" data-paper-data="{&quot;origPos&quot;:null}" fill="#414141" stroke-width="0"/><path d="M367.98429,215.08942l0.25792,-1.59693l83.13788,13.42605l-0.25789,1.59693z" data-paper-data="{&quot;origPos&quot;:null}" fill="#3f3f3f" stroke-width="0"/><g stroke-width="0"><g data-paper-data="{&quot;origPos&quot;:null}" fill="#5a5a5a"><g data-paper-data="{&quot;origPos&quot;:null}"><path d="M411.53808,215.9773l2.19209,-13.57413l3.52574,0.56939l-2.19209,13.57413z" data-paper-data="{&quot;origPos&quot;:null}"/></g><g data-paper-data="{&quot;origPos&quot;:null}"><path d="M417.53188,216.94523l2.19209,-13.57413l3.52575,0.56939l-2.19209,13.57413z" data-paper-data="{&quot;origPos&quot;:null}"/><path d="M423.70196,217.94158l2.19211,-13.57413l3.52574,0.56939l-2.19209,13.57413z" data-paper-data="{&quot;origPos&quot;:null}"/></g></g><g data-paper-data="{&quot;origPos&quot;:null}" fill="#5a5a5a"><g data-paper-data="{&quot;origPos&quot;:null}"><path d="M430.22459,218.99495l2.19209,-13.57413l3.52574,0.56939l-2.1921,13.57413z" data-paper-data="{&quot;origPos&quot;:null}"/><path d="M436.39461,219.99137l2.19209,-13.57413l3.52575,0.56939l-2.19211,13.57413z" data-paper-data="{&quot;origPos&quot;:null}"/></g><g data-paper-data="{&quot;origPos&quot;:null}"><path d="M442.38842,220.95929l2.19211,-13.57413l3.52574,0.56939l-2.19211,13.57413z" data-paper-data="{&quot;origPos&quot;:null}"/><path d="M448.55851,221.9557l2.19211,-13.57413l3.52574,0.56939l-2.19209,13.57413z" data-paper-data="{&quot;origPos&quot;:null}"/></g></g><path d="M415.12438,216.55644l-1.1754,1.76619l-5.18119,-0.79308l1.42423,-9.6934l3.48006,-5.44249l-2.12403,13.58513z" fill="#3a3a3a"/><path d="M421.11575,217.52394l-1.1754,1.76619l-5.18121,-0.79308l1.42424,-9.6934l3.48006,-5.44248l-2.12402,13.58512z" fill="#3a3a3a"/><path d="M427.24327,218.51351l-1.1754,1.76619l-5.1812,-0.79308l1.42423,-9.6934l3.48006,-5.44248l-2.12403,13.58513z" fill="#3a3a3a"/><path d="M433.84735,219.58001l-1.1754,1.76619l-5.1812,-0.79308l1.42423,-9.6934l3.48006,-5.44248l-2.12403,13.58513z" fill="#3a3a3a"/><path d="M440.04297,220.58059l-1.1754,1.76619l-5.1812,-0.79308l1.42423,-9.6934l3.48006,-5.44248l-2.12402,13.58512z" fill="#3a3a3a"/><path d="M445.9662,221.5371l-1.1754,1.76619l-5.18119,-0.79308l1.42423,-9.6934l3.48006,-5.44248l-2.12403,13.58513z" fill="#3a3a3a"/><path d="M452.16961,222.53894l-1.1754,1.76619l-5.1812,-0.79308l1.42424,-9.6934l3.48006,-5.44249l-2.12403,13.58513z" fill="#3a3a3a"/></g><g stroke-width="0"><g data-paper-data="{&quot;origPos&quot;:null}" fill="#5a5a5a"><g data-paper-data="{&quot;origPos&quot;:null}"><path d="M368.862,209.08546l2.19211,-13.57413l3.52575,0.56939l-2.19209,13.57413z" data-paper-data="{&quot;origPos&quot;:null}"/></g><g data-paper-data="{&quot;origPos&quot;:null}"><path d="M374.85568,210.05346l2.19209,-13.57413l3.52574,0.56939l-2.19209,13.57413z" data-paper-data="{&quot;origPos&quot;:null}"/><path d="M381.02575,211.0498l2.19209,-13.57413l3.52575,0.56939l-2.19211,13.57413z" data-paper-data="{&quot;origPos&quot;:null}"/></g></g><g data-paper-data="{&quot;origPos&quot;:null}" fill="#5a5a5a"><g data-paper-data="{&quot;origPos&quot;:null}"><path d="M387.54842,212.10318l2.19211,-13.57413l3.52576,0.56939l-2.19209,13.57413z" data-paper-data="{&quot;origPos&quot;:null}"/><path d="M393.71856,213.09958l2.19209,-13.57413l3.52575,0.56939l-2.19211,13.57413z" data-paper-data="{&quot;origPos&quot;:null}"/></g><g data-paper-data="{&quot;origPos&quot;:null}"><path d="M399.71232,214.06751l2.19209,-13.57413l3.52575,0.56939l-2.19211,13.57413z" data-paper-data="{&quot;origPos&quot;:null}"/><path d="M405.88241,215.06396l2.19211,-13.57413l3.52575,0.56939l-2.1921,13.57413z" data-paper-data="{&quot;origPos&quot;:null}"/></g></g><path d="M372.44825,209.66464l-1.1754,1.76619l-2.70171,-0.39265l0.30082,-1.95115z" fill="#3a3a3a"/><path d="M378.43959,210.63219l-1.1754,1.76619l-5.1812,-0.79308l1.42424,-9.6934l3.48006,-5.44248l-2.12403,13.58513z" fill="#3a3a3a"/><path d="M384.56706,211.62168l-1.1754,1.76619l-5.1812,-0.79308l1.42421,-9.6934l3.48006,-5.44249l-2.12403,13.58513z" fill="#3a3a3a"/><path d="M391.17117,212.68817l-1.1754,1.76619l-5.1812,-0.79308l1.42424,-9.6934l3.48006,-5.44248l-2.12403,13.58513z" fill="#3a3a3a"/><path d="M397.36685,213.68878l-1.1754,1.76619l-5.18119,-0.79308l1.42423,-9.6934l3.48006,-5.44248l-2.12403,13.58513z" fill="#3a3a3a"/><path d="M403.29008,214.64526l-1.1754,1.76619l-5.18119,-0.79308l1.42423,-9.6934l3.48006,-5.44249l-2.12403,13.58513z" fill="#3a3a3a"/><path d="M409.49353,215.6471l-1.1754,1.76619l-5.18119,-0.79308l1.42423,-9.6934l3.48006,-5.44248l-2.12403,13.58513z" fill="#3a3a3a"/></g><g><g data-paper-data="{&quot;origPos&quot;:null}"><g data-paper-data="{&quot;origPos&quot;:null}" fill="none" stroke-width="1" font-family="sans-serif" font-weight="normal" font-size="12" text-anchor="start"/><g data-paper-data="{&quot;origPos&quot;:null}" fill="#4b4b4b" stroke-width="0"><path d="M373.89069,218.36212l0.36234,-2.24367l3.70206,0.59784l-0.36233,2.24366z" data-paper-data="{&quot;origPos&quot;:null}"/><path d="M367.7387,217.25353l0.36234,-2.24367l3.70206,0.59784l-0.36234,2.24367z" data-paper-data="{&quot;origPos&quot;:null}"/></g></g><g data-paper-data="{&quot;origPos&quot;:null,&quot;index&quot;:null}" fill="#4b4b4b" stroke-width="0"><g data-paper-data="{&quot;origPos&quot;:null}"><path d="M392.88586,221.1994l0.36234,-2.24366l3.70207,0.59784l-0.36234,2.24366z" data-paper-data="{&quot;origPos&quot;:null}"/><path d="M399.07404,222.08365l0.36235,-2.24365l3.70207,0.59784l-0.36234,2.24366z" data-paper-data="{&quot;origPos&quot;:null}"/></g><g data-paper-data="{&quot;origPos&quot;:null}"><path d="M380.52755,219.3188l0.36234,-2.24367l3.70207,0.59784l-0.36234,2.24366z" data-paper-data="{&quot;origPos&quot;:null}"/><path d="M386.71576,220.20297l0.36234,-2.24367l3.70207,0.59784l-0.36234,2.24367z" data-paper-data="{&quot;origPos&quot;:null}"/></g></g></g></g><path d="M205.28297,152.97731l1.69834,-3.99543c0,0 5.05389,-2.37212 8.56379,-1.95723c4.01247,0.47427 33.59411,5.27673 33.59411,5.27673c0,0 0.3545,1.95729 0.10822,3.15051c-0.31729,1.53728 -2.89492,4.22536 -2.89492,4.22536z" fill="#242424" stroke-width="0"/><path d="M230.45791,153.18339l0.50223,-3.10998l17.77157,2.86989l-0.50223,3.10998z" fill="#313131" stroke-width="0"/><path d="M226.89846,154.56425l0.10399,-0.64391c0,0 1.2218,-0.86748 2.23177,-0.70438c0.95907,0.15492 3.04335,0.97255 5.43783,1.52474c4.56151,1.05182 10.10165,2.04956 10.10165,2.04956l-0.10399,0.64391c0,0 -5.35855,-0.86742 -9.85574,-1.90835c-2.45392,-0.56796 -4.6024,-1.49131 -5.59729,-1.65196c-1.04573,-0.16889 -2.31821,0.69039 -2.31821,0.69039z" fill="#616161" stroke-width="0"/><path d="M256.18928,143.37997l12.04843,5.01153l29.60969,10.15855c0,0 0.68801,0.33819 -7.19092,-1.67183c-2.68027,-0.68379 -12.92602,-3.96825 -21.72751,-7.31715c-2.38157,-0.90615 -14.99661,-6.42873 -14.99661,-6.42873z" fill="#df8cb7" stroke-width="0"/><path d="M76.40792,120.76528l0.94583,-5.85718c0,0 5.97572,-0.81064 9.7309,-0.2042c3.07423,0.49649 10.88931,5.30984 10.88931,5.30984l-2.08938,12.09228z" fill="#626061" stroke-width="0"/><path d="M189.39109,149.12615l3.34819,3.07915l12.30145,0.64629l50.09593,8.09008l-0.17388,1.07713c0,0 -37.55625,-6.2121 -49.34914,-7.85099c-3.23772,-0.44991 -12.92802,-1.28462 -12.92802,-1.28462z" fill="#ffa6d4" stroke-width="0"/><path d="M63.37022,183.41839l1.14303,-7.0779l25.77934,-12.68253l-3.76587,13.23785l-15.3093,7.78987z" fill="#3f3d3e" stroke-width="0"/><path d="M62.5677,178.16307c0,0 3.31818,-19.3706 5.64145,-28.70287c2.62211,-10.53295 9.30327,-31.32993 9.30327,-31.32993c0,0 8.53458,1.1865 11.80845,3.38233c2.80199,1.87929 6.64032,8.99161 6.64032,8.99161l-5.34901,33.12245c0,0 -13.88898,11.63263 -17.25507,13.3774c-5.17766,2.68379 -10.78935,1.15907 -10.78935,1.15907z" fill="#555354" stroke-width="0"/><path d="M75.67389,128.56916c0,0 -0.56504,-6.16178 1.90469,-8.4951c2.46972,-2.33333 6.92576,-2.64382 9.45329,-2.23564c2.01628,0.32559 6.17635,1.07716 8.30219,5.93676c2.12586,4.85958 -0.83258,11.13827 -0.83258,11.13827c0,0 -4.56062,-11.27501 -7.01648,-12.10253c-3.46544,-1.16772 -11.81119,5.75827 -11.81119,5.75827z" fill="#6f6b6c" stroke-width="0"/><path d="M60.35657,182.74096c0,0 5.84762,-25.45585 7.67212,-36.75325c1.9,-11.76535 4.99146,-32.25298 4.99146,-32.25298c0,0 1.24396,-0.45042 2.27148,-0.28451c0.93953,0.15169 2.38382,1.03629 2.38382,1.03629c0,0 -3.26543,18.87613 -4.97045,29.4341c-1.98097,12.26652 -8.96256,39.36709 -8.96256,39.36709z" fill="#333232" stroke-width="0"/><path d="M59.86053,183.11027l3.42507,-14.34571c0,0 0.9,1.04575 1.49791,1.1031c0.75499,0.07247 2.63974,-1.07925 2.63974,-1.07925l-3.64432,14.9546z" fill="#2e2d2d" stroke-width="0"/><path d="M91.07391,151.4213c-1.30166,8.0602 -6.75499,15.95978 -11.53111,18.1538c-3.96672,1.82221 -12.44688,7.29821 -11.14518,-0.76195c0.27616,-1.70994 4.18794,-13.11146 5.43549,-20.03094c1.64986,-9.15086 0.81923,-14.33041 2.21622,-16.97312c2.52607,-4.77843 8.21453,-5.35842 10.40069,-5.00536c4.3094,0.69596 5.92559,16.5574 4.62393,24.6176z" fill="#585758" stroke-width="0"/><path d="M122.84974,170.81828l-0.30746,-1.81295c0,0 8.05346,-0.0675 14.07169,0.41402c8.47225,0.67778 31.96699,3.26918 31.96699,3.26918l1.56872,1.55114c0,0 -25.04779,-2.40361 -33.77249,-3.0347c-2.5623,-0.18532 -13.52743,-0.38661 -13.52743,-0.38661z" fill="#585657" stroke-width="0"/><path d="M114.93023,182.91088l7.30618,-12.68887l7.30123,0.21609c0,0 -2.40354,3.98124 -2.4387,4.74052c-0.16822,3.62789 -1.03061,27.76618 -1.03061,27.76618c0,0 -1.52875,0.19926 -2.40394,-1.84195c-1.5703,-3.66252 -2.28836,-10.72937 -3.68282,-13.08446c-1.20481,-2.03478 -5.05131,-5.10749 -5.05131,-5.10749z" fill="#5a5759" stroke-width="0"/><path d="M132.21033,154.49831l4.65877,-10.72779l2.32121,0.26231l-5.79111,10.76999z" fill="#a5a0a2" stroke-width="0"/><path d="M139.08598,154.51116l0.22362,-1.38484l26.15737,4.22417l-0.22362,1.38483z" fill="#494748" stroke-width="0"/><path d="M139.48004,151.56498l0.22362,-1.38484l26.15737,4.22417l-0.22362,1.38484z" fill="#494748" stroke-width="0"/><path d="M116.72283,170.58794l3.2106,-19.88078l13.62384,-7.54069l4.8323,0.46459l-22.89315,39.67114l-5.22007,-2.8723z" fill="#dbd5d8" stroke-width="0"/><path d="M88.66377,178.12542l1.72388,-11.66517l26.43945,3.47006c0,0 -0.07851,2.55798 -0.33433,3.32542c-0.63765,1.91328 -3.72535,8.4424 -3.72535,8.4424z" fill="#ccc6c9" stroke-width="0"/><path d="M94.22103,167.4849l0.05031,-0.31176l22.66361,2.78029l-2.76089,0.75381c0,0 -4.29607,-0.50516 -6.96506,-0.96837c-3.65459,-0.63421 -12.98803,-2.25396 -12.98803,-2.25396z" fill="#d8d1d5" stroke-width="0"/><path d="M98.28727,164.35636l2.7102,-16.78253l15.91878,2.57076l-2.7102,16.78253z" fill="#a39999" stroke-width="0"/><path d="M88.36365,178.2489l1.8109,-11.21403c0,0 7.70565,7.7138 11.56434,10.70786c3.85872,2.99408 10.32141,3.7541 10.32141,3.7541z" fill="#b4afb1" stroke-width="0"/><path d="M120.61322,189.57787c0,0 2.82485,1.51015 3.92985,1.54304c0.6788,0.02014 2.06964,-1.36476 2.06964,-1.36476l0.19082,9.22157l-0.66881,4.14142c0,0 -1.96784,-0.00232 -2.8188,-2.75577c-0.70211,-2.27181 -2.7027,-10.78548 -2.7027,-10.78548z" fill="#504e4f" stroke-width="0"/><path d="M115.14212,183.50868l20.93158,-38.90416l1.68857,0.48049l-20.89573,39.32548z" fill="#858183" stroke-width="0"/><path d="M105.01884,140.58979l1.75856,-1.38788c0,0 27.16759,3.73506 39.41918,5.71364c10.63351,1.71721 31.48009,5.44129 31.48009,5.44129l0.21322,2.00096c0,0 -20.91235,-4.09228 -32.12074,-5.90231c-12.79859,-2.06682 -40.75027,-5.86568 -40.75027,-5.86568z" fill="#918b8e" stroke-width="0"/><path d="M106.22022,139.53714l2.30749,-1.59394c0,0 25.61347,3.77882 37.86503,5.75732c10.6335,1.71721 31.48009,5.44129 31.48009,5.44129l0.21321,2.00096c0,0 -20.91234,-4.09228 -32.12074,-5.90232c-12.79859,-2.06682 -39.74504,-5.70338 -39.74504,-5.70338z" fill="#a59fa2" stroke-width="0"/><path d="M166.68877,170.3576l-0.99492,-5.91696c0,0 0.40103,-1.15589 0.7477,-1.21414c0.3055,-0.05138 1.22451,0.88248 1.22451,0.88248l0.99492,5.91697c0,0 -0.4125,0.8224 -0.71867,0.87384c-0.34637,0.05825 -1.25358,-0.5422 -1.25358,-0.5422z" fill="#494242" stroke-width="0"/><path d="M126.50697,166.55156l5.00983,-8.79957l3.83604,0.61946l-5.00983,8.79957z" fill="#9c989a" stroke-width="0"/><path d="M138.78587,150.52799l1.98138,-0.66049l24.12338,3.91404l1.84078,1.25951z" fill="#757274" stroke-width="0"/><path d="M138.43075,153.31835l1.9814,-0.6605l24.12336,3.91405l1.84081,1.25948z" fill="#757274" stroke-width="0"/><path d="M86.13065,176.89258l10.95699,-57.14178l1.80316,0.87943l-10.48234,57.62473z" fill="#686666" stroke-width="0"/><path d="M85.92628,177.13337l3.23778,-15.94345l1.65304,4.1349l-2.55276,13.07028z" fill="#535252" stroke-width="0"/><path d="M119.92572,159.45294c0,0 2.47084,-1.97683 2.62172,-2.9115c0.14815,-0.91723 -1.72439,-2.64517 -1.72439,-2.64517c0,0 2.85686,1.13974 2.48487,2.78987c-0.28336,1.25691 -1.6695,3.25039 -1.9315,4.32479c-0.74501,3.05475 -2.59617,10.19835 -2.59617,10.19835z" fill="#c4bec1" stroke-width="0"/><path d="M127.80831,158.78952l3.51257,-9.76029l3.21044,-3.8922l-4.14489,9.01266z" fill="#aca7a9" stroke-width="0"/></g></g><g stroke-width="0"><path d="M248.79399,150.13662l3.05306,-2.87929c0,0 2.01329,-1.12981 2.7839,-0.72683c0.87857,0.45945 2.20612,3.33647 2.20612,3.33647l-1.18578,3.94332c0,0 -4.22532,-0.68997 -5.4541,-1.02347c-0.55401,-0.15033 -1.40312,-2.65023 -1.40312,-2.65023z" fill="#c0c0c0"/><path d="M204.8855,152.82186c0,0 0.28493,-2.8713 1.51206,-3.82675c1.53787,-1.19738 7.89273,-2.412 7.89273,-2.412l-1.45672,4.56321l-0.46571,2.88385z" fill="#838383"/><path d="M204.7274,152.72112l9.19382,-6.0935l37.0819,5.98839l-1.19269,7.38558z" fill="#999999"/><path d="M205.8182,152.23226l7.01213,-4.78442l33.34037,5.38418l-0.93121,5.7664c0,0 -4.03531,-0.65168 -9.22628,-1.48993c-3.37496,-0.545 -7.06906,-2.21733 -10.6296,-2.79236c-3.81959,-0.61685 -7.45989,-0.12895 -9.60523,-0.47536c-4.19875,-0.67806 -9.96017,-1.60851 -9.96017,-1.60851z" fill="#2e2e2e"/><path d="M209.26616,152.78688l9.203,-4.49361l12.30467,1.98711c0,0 -7.58584,0.70701 -10.0714,1.23206c-2.63875,0.55729 -6.14634,2.12875 -6.14634,2.12875z" fill="#a5899d"/><path d="M217.17109,153.94924c0,0 5.17507,-0.14899 7.60075,0.24277c3.09941,0.50053 9.47485,2.5148 9.47485,2.5148l-9.47714,-1.87001z" fill="#adadad"/><path d="M204.83342,152.71979l8.30247,-5.49834l34.51943,5.57464l-0.10978,0.67978c0,0 -29.88955,-4.82689 -33.78567,-5.45608c-0.8149,-0.13158 -8.92635,4.70012 -8.92635,4.70012z" fill="#8a8a8a"/><path d="M250.40331,166.39551l1.55527,-9.63055l1.79059,-7.00603c0,0 1.09705,0.65317 1.5541,1.29777c0.45698,0.64459 0.65571,1.81914 0.65571,1.81914l-3.56838,13.84066z" fill="#9e9e9e"/><path d="M245.69595,161.34976c0,0 -0.56133,-2.24308 -0.44295,-3.83369c0.15945,-2.1419 1.88374,-7.45312 1.88374,-7.45312l1.96845,-0.01166c0,0 0.62293,0.90267 1.1185,0.83158c0.68323,-0.09793 2.60174,-1.36503 2.60174,-1.36503l-2.5396,12.57324z" fill="#9c9c9c"/><path d="M245.97074,163.24847c-0.59629,-1.21507 -0.14004,-2.53228 -0.14004,-2.53228l5.96328,-6.33066c0,0 0.75661,4.05628 0.61054,4.96102c-0.41539,2.5722 -0.17901,7.42164 -0.17901,7.42164c0,0 -2.95534,-0.39244 -3.91097,-0.99107c-1.14618,-0.71795 -1.74737,-1.31362 -2.34369,-2.52866z" fill="#888888"/><path d="M247.85212,162.76799c-0.65681,-2.13174 -0.9429,-6.69882 1.52581,-10.4196c2.46873,-3.7208 4.51242,-1.23198 4.51242,-1.23198c0,0 0.28852,4.5269 -0.08023,6.81015c-0.33586,2.07989 -2.04277,6.33634 -2.04277,6.33634c0,0 -3.25838,0.63682 -3.91522,-1.49495z" fill="#b4b4b4"/><path d="M253.18744,155.83468c-0.22497,1.39305 -5.28191,0.65479 -5.05697,-0.73821c0.22497,-1.39305 4.10583,-6.23846 4.90786,-6.10891c0.31061,0.0502 0.93001,0.25335 0.95491,1.33183c0.03933,1.70616 -0.66801,4.66188 -0.8058,5.51535z" fill="#bbbbbb"/></g><g stroke-width="0"><path d="M189.29838,149.09583c0,0 -4.99772,-5.78813 -4.69904,-7.63755c0.24384,-1.51011 6.2225,-0.66928 6.2225,-0.66928l7.43735,1.27384l-5.69112,9.99955z" fill="#f399c8"/><path d="M158.90094,145.84987c0,0 -0.62322,-2.22568 -0.19824,-3.24361c0.46899,-1.12344 3.07767,-4.35376 3.07767,-4.35376l22.77306,3.48959l7.63468,9.96784z" fill="#ee96c3"/></g></g><g stroke-width="0"><g><path d="M256.31275,141.60021l0.98553,-6.10275l47.20656,7.62343l-0.98553,6.10275z" fill="#61585b"/><path d="M256.66867,138.37211l0.5278,-3.26799l47.38605,7.65244l-0.52779,3.26798c0,0 -8.53036,-1.37759 -17.29316,-2.79269c-2.73979,-0.44247 -6.83349,0.43338 -9.36509,0.02449c-3.0104,-0.48616 -5.99706,-2.50538 -7.92807,-2.81726c-5.7903,-0.93509 -12.79971,-2.06709 -12.79971,-2.06709z" fill="#494344"/><path d="M318.75826,141.70823l-6.19554,-20.17876l20.65169,3.33508l12.55692,19.01947c0,0 -5.85413,0.43365 -9.08603,0.17331c-4.98706,-0.40166 -17.92701,-2.34909 -17.92701,-2.34909z" fill="#5e555b"/><path d="M318.21274,145.0997l0.883,-5.46764c0,0 12.37286,0.52616 17.32675,0.53643c3.93144,0.00816 6.79412,-0.11911 6.79412,-0.11911l4.7572,7.79691c0,0 -5.51867,0.7256 -9.68426,0.50259c-5.64412,-0.30217 -20.07669,-3.24911 -20.07669,-3.24911z" fill="url(#color-5)"/><path d="M310.86424,121.41606l0.63712,-3.9451l18.90659,3.05327l2.95279,4.52479z" fill="url(#color-6)"/><path d="M317.63242,145.03121l0.20077,-1.24316c0,0 15.42224,2.41317 20.76657,3.1065c3.9962,0.51847 8.61157,-0.33348 8.61157,-0.33348l0.69497,1.27181l-8.44559,0.72333z" fill="#312c30"/><g><path d="M219.59486,118.46111l1.1887,-8.78114l92.72401,14.97412l5.7442,12.35564z" fill="#8a6672"/><path d="M234.60163,129.27758c0,0 -2.89964,-4.12077 -5.43548,-6.01076c-2.5358,-1.89007 -9.54458,-2.78139 -9.54458,-2.78139l0.44347,-2.04248c0,0 12.12161,2.23748 19.04585,3.45219c16.54106,2.9016 79.77153,13.8823 79.77153,13.8823l2.52988,7.06065z" fill="#755761"/><path d="M237.01662,132.19082l-2.57354,-3.04102l86.54416,13.48045l0.69886,3.23389z" fill="#694e57"/><path d="M220.55778,110.04478l0.72207,-4.47105l89.75305,13.80617l2.89789,6.20257c0,0 2.18775,3.73459 -3.02686,2.86684c-1.64159,-0.27317 -10.10876,-5.05268 -11.75449,-5.32653c-15.84901,-2.63738 -78.59159,-13.078 -78.59159,-13.078z" fill="#916b77"/><path d="M221.5186,105.61237l0.28512,-2.51116l88.78096,14.19684l0.65041,2.52835z" fill="#9e7582"/><path d="M294.58728,118.10508c-7.86133,-1.92581 -71.53354,-13.25404 -71.53354,-13.25404l86.73038,14.00621l3.55309,8.11131c0,0 -10.88853,-6.93764 -18.74993,-8.86348z" fill="#b38f9a"/></g><path d="M267.49403,137.10973l1.46257,-9.05644l19.95372,3.22231l-1.46257,9.05645z" fill="#3a3336"/><path d="M268.8692,128.04341l0.95004,-1.38881l18.3013,2.95549l0.72978,1.66005z" fill="#4b4246"/><path d="M267.712,136.63909l1.30371,-8.07301c0,0 0.20609,5.36733 2.65363,6.88323c2.44758,1.51591 15.43874,4.32207 15.43874,4.32207z" fill="#332c30"/><path d="M311.74939,123.81162l-2.91329,-6.54821c0,0 1.11616,-0.49503 1.70908,-0.39926c0.66289,0.10704 2.08177,1.0115 2.08177,1.0115l2.91329,6.54821z" fill="#757575"/><path d="M313.97638,128.96717l-4.18922,-9.40035l3.79088,0.61218l4.18922,9.40034z" fill="#5a5a5a"/><path d="M317.13881,136.0104l-4.18922,-9.40034l3.79087,0.61218l4.18922,9.40035z" fill="#505050"/><path d="M320.4068,143.30439c-0.71551,-1.60555 -3.50731,-7.87017 -3.50731,-7.87017l3.79086,0.61218l4.88298,11.24883c0,0 -2.11483,0.20091 -3.04988,0.0349c-0.72934,-0.12947 -1.80117,-3.31783 -2.11667,-4.02579z" fill="#3b3b3b"/><path d="M217.65826,120.7802l2.97723,-18.43587l3.14027,0.50713l-2.97723,18.43587z" fill="#443e42"/><path d="M198.76865,119.34937l0.26811,-5.96153l19.96981,3.22491l-0.94508,5.85222z" fill="url(#color-7)"/><path d="M198.93623,114.01039l1.72928,-10.70824l19.96981,3.22491l-1.72928,10.70825z" fill="#5e555b"/><path d="M200.64536,103.42684l1.45329,-3.98147l19.18007,3.09737l-0.6636,4.109z" fill="url(#color-8)"/><path d="M270.67898,110.72027l0.97779,-6.0549l14.66006,3.44793l3.81203,5.38774z" fill="#5e555b"/><path d="M290.07219,113.85209l-3.76951,-5.651c0,0 2.8675,1.16262 4.90813,2.50337c2.0406,1.34072 5.2673,4.18212 5.2673,4.18212z" fill="#776b73"/><path d="M267.51112,111.37926l3.35748,-0.71837l25.31513,3.81807l3.35694,2.07285z" fill="#6d6269"/></g><g><path d="M269.55499,133.42102c0.19907,-1.23283 0.88734,-2.2934 1.43507,-3.24784c0.76329,-1.33 1.54746,-2.40656 2.95954,-3.03567c0.86259,-0.38431 2.04734,-0.58739 3.06196,-0.66702c0.67103,-0.05265 1.72124,-0.2883 2.41526,-0.17622c1.57333,0.25404 1.89822,0.38933 2.95416,1.06233c0.63608,0.4054 2.18299,1.11011 2.60395,1.85894c0.35633,0.63378 0.67477,1.64606 0.90378,2.37144c0.39127,1.23969 0.88625,3.2083 0.66486,4.57918c-0.09354,0.57932 -0.79256,1.82226 -0.9238,2.32316c-0.41656,1.59038 -0.49853,2.09336 -1.87236,2.98929c-0.83506,0.54452 -2.41034,0.84507 -3.44695,1.0929c-1.07348,0.25674 -2.47102,0.90831 -3.6288,0.72134c-0.78134,-0.12617 -2.10589,-0.88198 -2.84119,-1.13872c-1.5952,-0.55695 -2.44803,-0.87133 -3.28256,-2.16106c-0.71569,-1.10597 -0.71813,-2.7254 -0.86134,-4.1237c-0.0752,-0.73459 -0.26501,-1.68463 -0.14171,-2.44843z" fill="#3a3a3a"/><path d="M270.29561,133.42045c0.1822,-1.12825 0.81203,-2.09868 1.31324,-2.97212c0.69848,-1.21705 1.41604,-2.2022 2.70833,-2.77792c0.78927,-0.35165 1.87356,-0.53749 2.80198,-0.61037c0.61411,-0.04817 1.5752,-0.26383 2.21016,-0.16129c1.43975,0.23248 1.73706,0.35628 2.70338,0.9721c0.58206,0.37096 1.99759,1.0159 2.38288,1.70107c0.32611,0.57997 0.61752,1.50638 0.82703,2.17016c0.35806,1.13447 0.81101,2.93591 0.60837,4.19036c-0.08558,0.53011 -0.72526,1.66749 -0.8454,2.12596c-0.38118,1.45536 -0.45621,1.9156 -1.71344,2.73543c-0.76415,0.49829 -2.20572,0.77324 -3.15425,1.00012c-0.98239,0.23492 -2.26125,0.83122 -3.32071,0.66016c-0.71501,-0.11546 -1.92711,-0.80711 -2.59995,-1.04197c-1.45975,-0.50958 -2.24018,-0.79737 -3.00391,-1.97758c-0.65489,-1.01211 -0.65716,-2.49402 -0.78813,-3.77362c-0.06876,-0.67222 -0.2425,-1.54164 -0.12967,-2.2405z" fill="#5a5a5a"/><path d="M283.05372,130.89274c-1.63841,-2.68129 -6.6348,-3.69134 -6.6348,-3.69134c0,0 2.0035,-0.22347 3.96717,0.10069c1.59059,0.26256 3.08474,0.87303 4.02201,2.34224c0.93808,1.47041 1.09021,2.99891 1.15084,4.4223c0.11896,2.79063 -0.69476,5.08305 -0.69476,5.08305c0,0 -0.17208,-5.57559 -1.81049,-8.25684z" fill="#6d6d6d"/><path d="M276.99481,134.99812c0.09175,-0.56836 0.62688,-0.95467 1.1953,-0.86292c0.56836,0.09175 0.95467,0.62688 0.86292,1.19531c-0.09175,0.56836 -0.62688,0.95467 -1.1953,0.86291c-0.56836,-0.09175 -0.95467,-0.62688 -0.86291,-1.1953z" fill="#272727"/><path d="M276.89501,135.12063c0.08422,-0.52131 0.57499,-0.87561 1.09627,-0.79147c0.52131,0.08422 0.87561,0.57499 0.79147,1.09627c-0.08422,0.52131 -0.57499,0.87561 -1.09626,0.79147c-0.52131,-0.08422 -0.87561,-0.57499 -0.79147,-1.09626z" fill="#131313"/></g></g></g></g></g><path d="M171.64517,229.43547c0.25265,-1.56443 2.84429,-44.32414 3.60034,-45.8989c1.02082,-2.12622 9.17816,0.55923 12.34484,-0.45668c9.69829,-3.11153 20.11706,-6.07553 20.11706,-6.07553c0,0 13.79593,2.81588 17.9782,3.49139c3.1276,0.50506 65.01572,1.89922 64.10213,12.20694c-1.2392,13.9812 -42.34202,-4.52673 -44.27597,7.44874c-0.48959,3.03162 1.85815,3.60877 0.79791,6.62564c-0.2545,0.72404 -3.40176,5.46175 -3.89041,7.08066c-0.77573,2.56973 1.83917,7.04642 -1.92273,9.57832c-2.99876,2.01831 -1.89133,7.27902 -2.71577,8.37722c-5.68101,7.56806 -13.29686,2.48443 -22.19446,1.04758c-10.54937,-1.70362 -26.49419,-0.50698 -35.56045,-3.22449c-3.91356,-1.1731 -9.11607,4.3531 -8.38067,-0.20065z" fill="#86c8f5" stroke-width="0"/></g></g></svg>