<svg version="1.1" xmlns="http://www.w3.org/2000/svg" xmlns:xlink="http://www.w3.org/1999/xlink" width="466.13336" height="158.15505" viewBox="0,0,466.13336,158.15505"><defs><linearGradient x1="502.07407" y1="191.56702" x2="502.71286" y2="196.33604" gradientUnits="userSpaceOnUse" id="color-1"><stop offset="0" stop-color="#1f1d20"/><stop offset="1" stop-color="#202022"/></linearGradient><linearGradient x1="501.86525" y1="186.69656" x2="502.6002" y2="192.18381" gradientUnits="userSpaceOnUse" id="color-2"><stop offset="0" stop-color="#302d31"/><stop offset="1" stop-color="#1f1e20"/></linearGradient><linearGradient x1="176.42537" y1="278.78486" x2="176.87539" y2="282.14493" gradientUnits="userSpaceOnUse" id="color-3"><stop offset="0" stop-color="#585758"/><stop offset="1" stop-color="#575758"/></linearGradient><linearGradient x1="164.76615" y1="290.51495" x2="165.11946" y2="293.15278" gradientUnits="userSpaceOnUse" id="color-4"><stop offset="0" stop-color="#363536"/><stop offset="1" stop-color="#353536"/></linearGradient><linearGradient x1="294.54401" y1="179.50241" x2="295.27929" y2="184.99188" gradientUnits="userSpaceOnUse" id="color-5"><stop offset="0" stop-color="#5e555b"/><stop offset="1" stop-color="#2b2629"/></linearGradient><linearGradient x1="282.12921" y1="160.31376" x2="282.65971" y2="164.27455" gradientUnits="userSpaceOnUse" id="color-6"><stop offset="0" stop-color="#72676e"/><stop offset="1" stop-color="#5e555b"/></linearGradient><linearGradient x1="172.01734" y1="189.08486" x2="172.80433" y2="194.96042" gradientUnits="userSpaceOnUse" id="color-7"><stop offset="0" stop-color="#5e555b"/><stop offset="1" stop-color="#4d454a"/></linearGradient><linearGradient x1="170.12534" y1="174.95873" x2="170.67791" y2="179.08417" gradientUnits="userSpaceOnUse" id="color-8"><stop offset="0" stop-color="#74686f"/><stop offset="1" stop-color="#5e555b"/></linearGradient></defs><g transform="translate(-41.45616,-159.28393)"><g data-paper-data="{&quot;isPaintingLayer&quot;:true}" fill-rule="nonzero" stroke="none" stroke-linecap="butt" stroke-linejoin="miter" stroke-miterlimit="10" stroke-dasharray="" stroke-dashoffset="0" style="mix-blend-mode: normal"><g><g stroke-width="0"><path d="M235.27958,255.77659l-12.17678,-13.85136l25.27071,-3.98014c0,0 -0.31494,5.92307 -0.15486,8.62421c0.15488,2.61294 1.10036,7.32686 1.10036,7.32686z" fill="#7f7d7e"/><path d="M235.40319,255.95863l-4.35174,-5.07412c0,0 2.80961,3.21051 6.09873,3.39017c2.36847,0.12936 4.19678,-0.42824 6.89712,-0.46623c2.7003,-0.038 5.20038,0.29592 5.20038,0.29592z" fill="#6c6a6b"/></g><g><g><g><path d="M499.74823,196.73316l-2.67952,-4.49568c0,0 6.15854,0.84779 8.85142,1.38792c2.69292,0.54017 1.31891,1.87045 1.31891,1.87045z" fill="url(#color-1)" stroke-width="0"/><path d="M505.4446,186.41859c0,0 1.77555,2.1108 -0.68028,3.34056c-2.45582,1.22979 -5.17084,2.82738 -5.17084,2.82738l-1.69706,-5.35835z" data-paper-data="{&quot;index&quot;:null}" fill="url(#color-2)" stroke-width="0"/><path d="M490.2149,198.00535l-0.27857,-2.07982l14.64182,-1.9611c0,0 1.35193,0.62032 1.88405,0.91861c0.47832,0.26815 -0.6042,1.02712 -0.6042,1.02712z" fill="#444444" stroke-width="NaN"/><path d="M489.98878,196.06332l-1.41295,-1.58032l12.504,-1.67477l3.58197,1.17698c0,0 -4.14895,0.79585 -6.43106,1.11902c-2.57374,0.36448 -8.24197,0.95903 -8.24197,0.95903z" fill="#535353" stroke-width="0"/><path d="M488.48279,194.63335l-0.40685,-0.59122l11.37225,-1.52322l1.74035,0.29731z" fill="#363636" stroke-width="0"/><path d="M490.2149,198.00535l-0.15111,-1.12829c0,0 6.4567,-0.40714 9.31097,-0.78946c2.41876,-0.32393 6.72548,-1.35847 6.72548,-1.35847c0,0 0.91782,0.34342 1.18992,0.51169c0.22954,0.14194 -0.18365,0.50208 -0.18365,0.50208c0,0 -4.63718,1.02921 -6.93043,1.33633c-3.09392,0.41439 -9.96127,0.92608 -9.96127,0.92608z" fill="#3a3a3a" stroke-width="NaN"/><path d="M488.39646,194.01766l-0.6659,-0.80241l13.52089,-1.81095l-1.68366,1.15131z" fill="#242424" stroke-width="0"/><path d="M486.95476,193.51008l-0.21958,-1.63967c0,0 7.99435,-1.2788 10.96357,-1.67649c2.02295,-0.27095 5.12924,-0.47897 5.12924,-0.47897l-1.59987,1.71694z" fill="#3a3a3a" stroke-width="0"/><path d="M486.61236,191.92974l-0.27115,-2.02446c0,0 7.54177,-1.34295 10.8267,-1.78297c2.84259,-0.38074 7.74851,-0.70499 7.74851,-0.70499l-2.12561,2.3455c0,0 -3.63349,0.40345 -5.85809,0.70145c-2.95696,0.39606 -10.32038,1.46549 -10.32038,1.46549z" fill="#444444" stroke-width="0"/><path d="M486.30973,189.99533l-0.11295,-0.84353c0,0 7.78773,-1.16788 11.35313,-1.64542c2.48263,-0.33253 7.99252,-0.94571 7.99252,-0.94571l-0.7444,0.95839c0,0 -5.04757,0.38479 -7.98655,0.77844c-3.238,0.43369 -10.5017,1.69784 -10.5017,1.69784z" fill="#535353" stroke-width="0"/><path d="M486.07967,189.25337l-0.0452,-0.33743c0,0 7.54103,-1.52163 10.97079,-1.98096c2.9653,-0.39717 8.41759,-0.61588 8.41759,-0.61588l0.08244,0.33245c0,0 -5.97759,0.6342 -9.19389,1.06496c-3.25835,0.43643 -10.23169,1.53687 -10.23169,1.53687z" fill="#4e4e4e" stroke-width="0"/></g><g stroke-width="0"><g><g><g><path d="M484.34814,198.29878l-6.28876,-12.43886l0.31961,-1.77951c0,0 3.87272,2.73934 5.11756,5.08522c0.67581,1.27357 2.29328,8.94009 2.29328,8.94009z" fill="#383638"/><path d="M485.29824,197.47398c0,0 -0.02307,-0.61203 -0.97201,-2.96173c-1.03484,-2.56242 -2.89785,-5.98247 -3.43006,-6.99471c-1.19474,-2.27222 -1.96027,-2.30136 -1.96027,-2.30136l4.68029,-1.2139l6.72791,12.79588z" fill="#555355"/><path d="M479.01063,185.29227l-0.74082,-1.14819c0,0 1.8961,-1.06115 2.84922,-1.18877c0.8931,-0.11963 2.11487,0.45052 2.11487,0.45052l0.75043,1.22024z" fill="#686668"/></g><path d="M478.72564,199.05184l-6.28876,-12.43885l-0.00563,-1.71566c0,0 4.19797,2.67547 5.44275,5.02131c0.67582,1.27356 2.29329,8.94009 2.29329,8.94009z" fill="#383638"/><path d="M479.67569,198.22701c0,0 -0.02307,-0.61204 -0.97201,-2.96173c-1.03484,-2.56242 -2.89785,-5.98247 -3.43006,-6.99471c-1.19474,-2.27222 -1.96027,-2.30136 -1.96027,-2.30136l3.87056,-1.6099c0,0 1.18354,1.1069 1.5477,1.79946c1.03751,1.97322 5.99001,11.39235 5.99001,11.39235z" fill="#555355"/><path d="M473.38809,186.04527l-0.95706,-1.11923c0,0 2.11237,-1.09005 3.06549,-1.21773c0.8931,-0.11963 1.82654,0.48914 1.82654,0.48914l0.87438,1.20369z" fill="#686668"/><path d="M485.97742,196.38037c-0.1088,-0.81227 0.46152,-1.55892 1.27375,-1.6677c0.81228,-0.10881 1.55892,0.46152 1.6677,1.27375c0.1088,0.81227 -0.46152,1.55892 -1.27374,1.6677c-0.81228,0.10881 -1.55892,-0.46152 -1.6677,-1.27375z" fill="#312f31"/><path d="M486.23836,193.38999l-2.71801,-5.232l1.55827,-0.35332l2.7266,5.29598z" fill="#444144"/></g><path d="M439.08193,199.35087l-5.16822,-10.22794l29.77402,-2.8009l0.81424,9.62415z" fill="#444444"/><path d="M451.09113,193.79194c0,0 0.56105,-0.60174 1.13029,-1.79277c0.52046,-1.08894 1.03714,-2.75016 1.35681,-3.26084c0.74008,-1.82085 3.15958,-1.67391 3.15958,-1.67391l-0.88421,0.77732l-3.62969,5.79852z" fill="#292929"/><path d="M455.26346,203.85654l-7.91314,-10.0095c0,0 3.5383,0.06211 5.08759,-1.20381c1.20391,-0.98378 0.76116,-3.57994 2.28732,-4.06779c4.3785,-1.39954 17.08151,-3.53871 17.08151,-3.53871c0,0 4.15999,6.6516 5.46227,9.38999c0.89904,1.89052 1.89528,6.22866 1.89528,6.22866z" fill="#4a464a"/><path d="M457.6238,190.31478c-4.60487,-0.02496 -3.35787,-1.5681 -3.35787,-1.5681c0,0 0.61282,-1.39593 2.44422,-1.78869c4.49419,-0.96381 13.13736,-1.53943 14.84093,-1.79345c0.8034,-0.11983 0.43584,0.64363 0.43584,0.64363c0,0 -1.15945,2.56256 -2.6626,3.0202c-1.50323,0.45765 -7.09566,1.51139 -11.70057,1.48643z" fill="#5e595e"/></g><g><path d="M444.43691,211.94068l-7.49662,-17.09158l18.77845,-2.22626l5.3316,3.65289l6.03214,-0.90736l4.72295,12.9066z" fill="#4d4846"/><path d="M449.13737,211.70165l19.22666,-12.05057l22.09192,-3.20353c0,0 1.85567,3.97172 2.17719,5.29529c0.16392,0.67484 0.23723,2.93864 0.23723,2.93864z" fill="#423d3b"/><path d="M444.25402,203.97052l-4.45841,-9.33691l0.81324,-0.1089l4.45841,9.33691z" fill="#363332"/><path d="M449.61134,210.8294l-0.16159,-1.20661c0,0 4.87994,-3.22179 13.8646,-4.42518c1.19374,-0.15988 5.74237,1.79904 6.94559,1.63792c7.63392,-1.02247 15.10609,-2.02328 17.94876,-2.40402c2.31511,-0.31006 4.50663,-1.91521 4.50663,-1.91521l0.3342,2.49511z" fill="#312e2c"/><path d="M450.26892,197.88739l-2.34089,-4.34303l8.23415,-1.10288l4.7052,3.8306l6.27648,-0.64484l-7.26387,2.93903z" fill="#585350"/><path d="M441.79838,206.11023l-0.14977,-1.1182c0,0 7.47769,-4.77856 10.3294,-5.16054c4.29801,-0.57566 16.16335,-2.16489 16.16335,-2.16489l0.14977,1.1182c0,0 -12.06877,1.61645 -16.36668,2.19217c-2.79319,0.37407 -10.1261,5.1333 -10.1261,5.1333z" fill="#2b2827"/></g></g></g><g><g><g><path d="M115.79027,292.8101c0.83259,2.14238 0.86965,4.75011 -0.1766,5.1567c-1.04626,0.4066 -2.77974,-1.54182 -3.61234,-3.68429c-0.83259,-2.14238 -4.08567,-10.35364 -3.03934,-10.76024c1.04626,-0.4066 5.99578,7.14535 6.82834,9.28781z" fill="#615e5f" stroke-width="0"/><g><path d="M153.04145,257.62452c-0.60459,-0.45133 -3.09875,-1.44136 -3.09875,-1.44136l9.44986,-4.17143l-4.99107,7.93277c0,0 -0.75541,-1.86861 -1.36006,-2.32z" fill="#756a6a" stroke-width="0"/><path d="M143.86948,257.1406l-1.82314,-13.61178l17.59044,-8.27508l2.60199,19.42656z" fill="#8a7c7c" stroke-width="0"/><path d="M104.91111,267.85433l4.2004,-18.85784l34.60646,-4.76964l6.17473,11.95274c0,0 -22.57722,4.61407 -30.08085,6.56162c-3.11486,0.80844 -14.90079,5.11317 -14.90079,5.11317z" fill="#7c787a" stroke-width="0"/><path d="M109.54807,251.36428l-0.34349,-1.44871c0,0 25.69475,-3.44156 33.77244,-4.52346c4.5195,-0.60536 15.15954,-8.45767 15.15954,-8.45767l0.21635,1.61523c0,0 -10.351,7.79416 -14.72391,8.36512c-8.01827,1.04685 -34.08094,4.44956 -34.08094,4.44956z" fill="#535353" stroke-width="0"/><path d="M73.2095,272.81457l-2.67549,-19.97563c0,0 3.55457,-7.59321 10.42984,-10.83055c8.53935,-4.02089 25.51563,-4.49361 27.56801,-4.76851c1.57492,-0.21095 -11.41051,12.038 -11.41051,12.038l2.67549,19.97563z" fill="#8d898b" stroke-width="0"/><path d="M238.50058,204.1209l1.17104,-3.32918l106.63206,-14.13803l1.95762,14.61574c0,0 -37.20125,6.84468 -49.36915,8.05459c-6.04291,0.60089 -60.39163,-5.20316 -60.39163,-5.20316z" fill="#c98cac" stroke-width="0"/><path d="M230.43632,307.10306l-6.22079,-12.21874c0,0 5.86781,5.10571 8.83319,5.79498c1.88936,0.43916 6.12873,0.25655 11.86189,-2.97059c4.61535,-2.59787 9.00672,-8.74611 9.00672,-8.74611l-9.60127,16.28137z" fill="#a08e97" stroke-width="0"/><path d="M313.89687,248.5895l-5.45304,-23.10197l18.19699,-3.85255l2.81398,21.00942c0,0 -6.11256,2.55319 -8.76048,3.61238c-1.21924,0.48768 -6.79739,2.33277 -6.79739,2.33277z" fill="#96858d" stroke-width="0"/><path d="M229.11219,311.05963l-0.73549,-5.49111c0,0 12.23108,0.44881 16.39534,-3.25815c2.02663,-1.80405 15.95038,-24.78842 23.60753,-37.54984c2.98819,-4.98016 5.02209,-8.40337 5.02209,-8.40337c0,0 2.82867,-4.18578 2.45005,-7.04301c-0.19049,-1.43731 -0.27944,-5.64144 -1.41042,-7.82193c-1.14112,-2.20002 -3.32362,-2.37007 -3.32362,-2.37007l-6.63078,-12.80538l19.65971,-2.48823l0.64405,26.72436l4.06501,2.04029c0,0 -8.67394,7.21547 -12.60397,12.74181c-6.14912,8.64666 -25.29773,41.86761 -25.29773,41.86761z" fill="#918189" stroke-width="0"/><path d="M290.96873,252.01636l-2.5944,-28.51183l13.69032,-1.55544l11.86525,10.52015l-0.05407,16.47899z" fill="#96858d" stroke-width="0"/><path d="M286.72967,254.44977l-3.03739,-3.77598l0.03082,-26.42788l5.02367,-0.75832l3.12534,28.42337z" fill="#8f8187" stroke-width="0"/><path d="M312.66618,249.21472c0,0 1.84232,-6.97334 -0.21672,-12.15669c-1.18562,-2.98455 -6.31451,-4.2849 -7.04131,-6.11454c-1.38834,-3.49509 -3.53623,-8.90198 -3.53623,-8.90198l8.3649,3.28256c0,0 4.33368,6.6977 5.49178,10.84217c0.77815,2.78443 0.15402,9.30098 -0.41937,11.99987c-0.04834,0.22752 -1.22516,0.3011 -1.25438,0.47183c-0.07141,0.41702 0.915,0.51832 0.915,0.51832z" fill="#86787e" stroke-width="0"/><path d="M310.22321,226.8392c0,0 -3.58849,-3.5096 -8.35854,-3.85101c-5.40024,-0.3865 -22.38754,1.65053 -22.38754,1.65053l154.45859,-34.99637l4.62009,8.76606l9.327,9.99292c0,0 -100.24117,10.83173 -120.64726,13.56491c-6.65882,0.89186 -17.01235,4.87302 -17.01235,4.87302z" fill="#df8db7" stroke-width="0"/><path d="M163.64706,294.17387l-9.57047,-35.31187c0,0 1.17043,-3.94094 1.63852,-4.2212c5.16103,-3.09033 35.50002,-17.90086 40.92915,-18.33917c5.94733,-0.48021 -7.45362,13.34981 -7.45362,13.34981c0,0 -14.01333,3.92094 -15.96439,8.4701c-2.64895,6.17643 4.45927,22.73286 4.45927,22.73286z" fill="#c77da3" stroke-width="0"/><path d="M231.45328,254.89587l-2.05312,-1.84906c0,0 5.35837,-9.40114 7.46607,-11.99662c2.17593,-2.67959 5.39134,-3.83679 5.39134,-3.83679l6.18859,1.49385c0,0 -4.50317,0.09611 -6.61818,2.11095c-1.81565,1.72972 -5.12584,5.27924 -7.49072,8.71593c-1.72031,2.49993 -2.88393,5.3617 -2.88393,5.3617z" fill="#414041" stroke-width="0"/><path d="M109.09264,250.36964l3.20571,-12.22329l48.19805,-6.45559c0,0 -2.28144,4.80085 -5.11242,7.16372c-2.7785,2.31912 -11.719,6.88454 -11.719,6.88454z" fill="#979395" stroke-width="0"/><path d="M109.7338,249.13071l2.41273,-12.11707l48.19805,-6.45559c0,0 -2.28144,4.80085 -5.11242,7.16372c-2.7785,2.31912 -11.719,6.88454 -11.719,6.88454z" fill="#bdb7ba" stroke-width="0"/><path d="M315.0956,249.21295l-1.9245,-0.26031l16.14555,-6.37457c0,0 -3.25572,2.51185 -5.6119,3.63145c-2.35616,1.11964 -8.60912,3.00344 -8.60912,3.00344z" fill="#887980" stroke-width="0"/><path d="M166.17244,294.30426c0,0 -3.70879,-10.06219 -6.03282,-18.36559c-2.33532,-8.34391 -4.50024,-16.17254 -4.99804,-19.72261c-0.0843,-0.60144 0.23086,-10.66302 0.65699,-11.24612c2.30013,-3.14765 11.00145,3.49967 16.3698,1.66723c7.94875,-2.71324 26.8199,-5.75947 26.8199,-5.75947l-7.67387,6.38595c0,0 -18.8971,5.42174 -20.58561,10.831c-2.28385,7.3166 7.99081,26.99956 7.99081,26.99956z" fill="#d486ae" stroke-width="0"/><path d="M166.82683,290.6664c0,0 -12.028,-39.62553 -12.0506,-49.78953c-0.0106,-4.75561 -4.54477,-13.33745 -4.54477,-13.33745l51.14389,0.18076l3.54466,15.73873c0,0 -32.16931,1.18788 -37.63066,8.24938c-3.64564,4.71376 6.85256,31.80293 6.85256,31.80293z" fill="#e490bb" stroke-width="0"/><g stroke-width="0"><path d="M295.66299,209.85402l-1.09854,-8.20163l9.27712,-1.24256l1.09854,8.20163z" fill="#454545"/><path d="M296.38647,208.98541l-1.32242,-7.18615l11.22596,-1.50359l0.96883,7.23351z" fill="#b0b0b0"/><path d="M295.56204,204.56672l-0.60229,-2.77491l11.44067,-1.53234l0.25324,1.89051c0,0 -7.68112,1.35413 -9.34703,1.71713c-0.55667,0.12127 -1.74457,0.69964 -1.74457,0.69964z" fill="#bebebe"/><path d="M307.43704,206.95089c0,0 -5.83087,-1.79721 -5.76247,-5.5875c0.10166,-5.63235 4.24984,-5.70563 4.24984,-5.70563l40.06322,-4.02077l1.33559,9.97155z" fill="#9c989a"/><path d="M309.03734,205.43578c0,0 -2.93191,-3.15767 -3.29694,-4.04388c-0.54111,-1.31365 1.04345,-4.50962 1.04345,-4.50962l41.23201,-5.48893l0.59768,7.47546z" fill="#898587"/><path d="M308.9741,205.64426l-1.26802,-1.78684l37.89338,-5.07537l0.25747,1.92221z" fill="#c1bcbf"/><path d="M308.40345,202.29647c0,0 -1.50314,-1.17887 -1.62757,-2.10792c-0.11644,-0.86906 0.90348,-3.29836 0.90348,-3.29836l38.32444,-5.1331l0.72405,5.40627z" fill="#0d0d0d"/><path d="M308.50664,203.06692c0,0 -1.58326,-1.77728 -1.70771,-2.70634c-0.11644,-0.86906 0.98361,-2.69994 0.98361,-2.69994l38.32445,-5.1331l0.72405,5.40627z" fill="#2e2e2e"/><path d="M303.976,205.59402c-3.02264,-2.68952 -2.17795,-5.16004 -2.17795,-5.16004c0,0 2.36196,3.8327 3.70568,4.55837c1.59092,0.85909 5.35011,1.73377 5.35011,1.73377l-3.46842,0.53535c0,0 -2.87748,-1.1941 -3.40937,-1.66741z" fill="#7d7a7c"/><path d="M311.12476,203.02866c0,0 -1.17467,-2.07445 -1.32649,-3.20788c-0.13346,-0.99635 0.46355,-3.23461 0.46355,-3.23461l4.78062,-0.64028c0,0 -0.16445,2.24569 -0.04917,3.10623c0.15841,1.18273 0.91208,3.33622 0.91208,3.33622z" fill="#555555"/><path d="M319.66521,201.88486c0,0 0.3258,-2.58929 0.17396,-3.72272c-0.13346,-0.99635 -1.03686,-2.71975 -1.03686,-2.71975l5.33568,-0.71465c0,0 -0.18531,1.75518 -0.07007,2.61576c0.15841,1.18273 0.93295,3.82672 0.93295,3.82672z" fill="#555555"/><path d="M328.90932,200.64666c0,0 0.32581,-2.58929 0.17398,-3.72271c-0.13346,-0.99635 -1.03686,-2.71974 -1.03686,-2.71974l5.2564,-0.70406c0,0 -0.18531,1.75518 -0.07007,2.61576c0.15841,1.18273 0.93295,3.82672 0.93295,3.82672z" fill="#555555"/><path d="M338.48708,199.36381c0,0 0.54923,-2.26044 0.39739,-3.39392c-0.13346,-0.99635 -1.26029,-3.04853 -1.26029,-3.04853l5.09783,-0.68279c0,0 1.08351,1.85432 1.1988,2.71491c0.15841,1.18273 -0.33585,3.7276 -0.33585,3.7276z" fill="#555555"/><path d="M310.09152,197.31933l-0.76544,-0.70462l35.24784,-4.72106l-1.41447,0.99659c0,0 -2.80503,0.37569 -5.24542,0.70257c-0.53195,0.07121 -1.58218,-0.11975 -2.37898,-0.0131c-0.77039,0.1032 -1.27971,0.5031 -2.23737,0.63137c-1.49335,0.19999 -3.17827,0.42571 -4.94217,0.66194c-0.73129,0.09796 -1.41852,-0.19698 -2.169,-0.09647c-0.6673,0.08941 -1.3967,0.57401 -2.06716,0.66385c-1.66399,0.22288 -3.31163,0.44353 -4.86071,0.65104c-0.71134,0.09528 -1.46011,-0.24669 -2.12194,-0.15805c-0.80798,0.1082 -1.51488,0.64519 -2.22282,0.74c-2.8877,0.38676 -4.82238,0.64592 -4.82238,0.64592z" fill="#474747"/></g><g><path d="M173.08263,283.34222l3.30352,-3.33553c0,0 3.1736,2.41496 6.10138,2.92576c2.58946,0.45181 10.57522,-0.01618 10.57522,-0.01618l-2.05352,4.66823z" fill="#6d6a6b" stroke-width="0"/><path d="M165.95793,290.85467l8.16938,-8.54532c0,0 3.50567,1.80713 5.74312,2.17527c3.38495,0.5569 12.59022,0.8411 12.59022,0.8411l-3.66806,4.83708z" fill="#615e5f" stroke-width="0"/><path d="M170.85524,312.36228l-4.46686,-22.17636c0,0 4.42083,0.20689 9.20339,-0.40379c3.73295,-0.47669 7.63243,-1.85365 10.17499,-1.5804c4.4636,0.47965 39.33319,8.27533 39.33319,8.27533l3.80729,9.75574z" fill="#575455" stroke-width="0"/><path d="M188.66572,282.69341c6.13313,-6.43637 12.34539,-20.84062 13.25124,-23.55632c0.65258,-1.95643 0.63359,-7.27704 0.63359,-7.27704l8.54021,5.73182c0,0 8.51904,19.53875 11.36808,31.91685c0.79717,3.46353 3.81614,7.0396 2.83505,8.65059c-0.87902,1.44337 -17.38624,5.96467 -22.83424,5.92275c-11.46516,-0.08814 -16.8356,3.44561 -21.24752,-1.28594c-4.41191,-4.7315 1.79361,-11.88893 1.79361,-11.88893c0,0 4.06328,-6.53811 5.65998,-8.21374z" fill="#504e4f" stroke-width="0"/><path d="M189.07117,249.52074c0,0 0.19413,-1.53212 0.95549,-2.30352c0.97914,-0.99212 4.43205,-3.1553 4.43205,-3.1553c0,0 9.55851,0.80557 12.87269,2.87393c3.05779,1.90829 -1.80248,12.93228 -1.80248,12.93228l-2.70051,-5.04754z" fill="#464445" stroke-width="0"/><path d="M218.36961,293.24579c0,0 -8.37163,7.4329 -16.75815,8.72916c-8.09052,1.25052 -16.20511,-3.60714 -16.28787,-5.03094c-0.04484,-0.77143 7.37419,-5.09996 10.25952,-9.74555c3.20735,-5.16402 1.96635,-10.75025 3.03835,-12.92222c2.99273,-6.06367 10.01173,-17.27317 8.15776,-23.12245c-1.94427,-6.13426 -12.84229,-6.76699 -12.84229,-6.76699c0,0 3.5182,-2.74302 8.4425,-3.53359c2.0976,-0.33676 6.78889,0.43312 7.7551,0.69212c3.16851,0.84925 5.3588,2.20672 5.3588,2.20672c0,0 2.97842,-5.32182 6.50759,-6.10674c3.52915,-0.78488 22.57961,-0.36255 22.57961,-0.36255l-14.39515,14.63453z" fill="#555354" stroke-width="0"/><path d="M198.30769,274.91851c0,0 3.13652,-11.38997 7.10354,-17.40477c3.96699,-6.01474 7.58708,-9.70854 11.08818,-10.17747c2.53531,-0.33958 6.93815,7.76307 6.93815,7.76307l-7.15969,29.9851c0,0 -14.05641,5.19109 -15.8499,2.9285c-1.41649,-1.787 -2.12019,-13.09443 -2.12019,-13.09443z" fill="#585758" stroke-width="0"/><path d="M224.28757,298.98233c0,0 -3.67458,-5.75418 -3.7524,-8.79298c-0.10873,-4.24514 -0.3575,-16.97876 -0.3575,-16.97876l3.32471,10.0836c0,0 0.65919,9.74626 1.19296,12.7317c0.51498,2.88045 2.21385,4.8427 2.21385,4.8427z" fill="#3f3e3f" stroke-width="0"/><path d="M220.9955,281.39852c-0.41602,-1.63401 -1.17515,-9.31213 -1.17515,-9.31213c0,0 7.53963,-15.70791 9.26629,-18.61594c0.50616,-0.85249 3.60237,-3.01362 3.60237,-3.01362l-0.98729,5.02951c0,0 -1.47971,0.80755 -1.59452,1.30504c-0.12228,0.53003 0.88182,1.78359 0.88182,1.78359l-3.95769,9.08593c0,0 -1.50189,1.22076 -1.61235,1.74546c-0.11053,0.5248 0.68892,1.31385 0.68892,1.31385c0,0 -2.63327,9.37379 -3.14771,11.87907c-0.23786,1.15836 0.18529,2.54705 0.18529,2.54705c0,0 -1.73386,-2.11371 -2.14987,-3.74775z" fill="#474647" stroke-width="0"/><path d="M205.20199,262.3582l21.96572,5.3668c0,0 -1.04402,1.16117 -1.20757,1.72692c-0.12068,0.41748 0.31532,1.36002 0.31532,1.36002z" fill="#3f3e3e" stroke-width="NaN"/><path d="M209.7745,251.30037l22.15931,4.15388c0,0 -0.99321,0.98384 -1.1285,1.56331c-0.14101,0.60404 0.36848,1.62462 0.36848,1.62462z" fill="#3f3e3e" stroke-width="NaN"/><path d="M201.2519,281.378c0,0 11.61906,6.20548 18.23872,11.34979c6.61962,5.14436 4.85634,6.59815 4.85634,6.59815z" fill="#636162" stroke-width="NaN"/><path d="M211.36032,256.76161c0,0 -5.56201,3.67497 -7.87602,7.10845c-2.31402,3.4335 -8.42591,20.57955 -8.81692,17.66009c-0.39102,-2.91947 9.86378,-25.19912 11.6428,-25.43739c0.67347,-0.0902 3.53121,-1.62543 4.37389,-1.49868c1.38344,0.20802 0.67627,2.16751 0.67627,2.16751z" fill="#918f91" stroke-width="0"/><path d="M170.38586,312.29454l13.56873,-3.72255c0,0 12.4403,-2.00149 15.56982,-2.26419c7.62127,-0.6398 30.32392,-1.58857 30.32392,-1.58857l0.39613,6.32446c0,0 -23.67201,6.7679 -30.68006,6.37916c-2.02742,-0.11246 -7.87468,0.04712 -12.27224,-0.72813c-8.60586,-1.51712 -16.90627,-4.4002 -16.90627,-4.4002z" fill="#626061" stroke-width="0"/><path d="M229.20171,310.82844c0,0 -0.52976,-4.26002 -1.28535,-6.51954c-0.84924,-2.53966 -3.56212,-7.9765 -3.56212,-7.9765l1.76655,-0.23661c0,0 2.29565,4.18914 3.06445,6.48826c0.84058,2.51374 1.78303,8.00778 1.78303,8.00778z" fill="#4a494a" stroke-width="0"/><path d="M229.11918,311.6833l-0.36353,-3.37883c0,0 0.59685,0.18714 0.86598,0.15109c0.31975,-0.04282 0.88586,-0.38571 0.88586,-0.38571l0.59391,3.12539c0,0 -0.71557,0.50712 -1.07675,0.59601c-0.27674,0.06818 -0.90545,-0.10797 -0.90545,-0.10797z" fill="#363536" stroke-width="0"/><path d="M224.76296,297.31217l-0.59757,-1.55508c0,0 0.36664,-0.40665 0.72399,-0.51432c0.34032,-0.10249 0.8744,-0.0502 0.8744,-0.0502l0.72768,1.65446c0,0 -0.41022,0.5669 -0.70634,0.64659c-0.27902,0.07507 -1.02218,-0.18147 -1.02218,-0.18147z" fill="#585758" stroke-width="0"/><path d="M187.66686,315.95651c0,0 -8.21726,-1.87857 -8.39821,-3.22955c-0.18184,-1.35769 5.84473,-3.34613 5.84473,-3.34613c0,0 10.81505,-1.69145 15.75112,-2.17845c2.76339,-0.2726 11.34393,-0.49472 11.34393,-0.49472c0,0 7.36723,0.07687 8.32803,1.11021c1.04797,1.12714 -2.40471,4.4566 -2.40471,4.4566c0,0 -12.43785,2.98361 -16.39522,3.30359c-1.40578,0.11366 -14.06955,0.37855 -14.06955,0.37855z" fill="#6b696a" stroke-width="0"/><path d="M176.45951,310.49446l-1.91365,0.48919c0,0 0.16492,-3.48743 3.02574,-2.61734c2.86087,0.87015 21.53263,-2.65118 21.53263,-2.65118z" fill="#4b4949" stroke-width="0"/><path d="M170.43908,312.14213c0,0 -1.95466,0.4551 -2.9686,-3.08436c-0.51323,-1.79166 -4.12185,-15.6272 -4.12185,-15.6272l3.31802,-3.36939c0,0 1.47144,5.85021 2.06108,8.69938c0.78418,3.78939 2.62638,13.25906 2.62638,13.25906z" fill="#3f3d3e" stroke-width="0"/><path d="M176.80054,310.61625c0,0 2.87792,-2.56286 18.74744,-5.02853c1.31055,-0.20359 -1.78352,0.20654 7.60035,-0.53841c9.3839,-0.74503 13.45833,0.23543 13.45833,0.23543c0,0 -15.0748,0.94016 -21.22272,1.76363c-7.0079,0.9386 -18.58341,3.56797 -18.58341,3.56797z" fill="#838082" stroke-width="0"/><path d="M177.87274,280.57583c0,0 -4.04149,2.74827 -5.98286,4.63827c-2.18202,2.12431 -6.47162,7.48701 -6.47162,7.48701l-0.99012,-1.48331c0,0 3.2177,-4.31908 5.19303,-6.24221c2.15972,-2.10259 7.26148,-5.88313 7.26148,-5.88313z" fill="#4a494a" stroke-width="0"/><path d="M178.76422,280.19638l-3.30644,2.13843c0,0 0.00972,-0.6535 -0.14114,-0.87945c-0.17923,-0.26848 -0.76409,-0.60181 -0.76409,-0.60181l2.87759,-2.20323c0,0 0.81306,0.3821 1.05613,0.6638c0.18628,0.21588 0.27786,0.88219 0.27786,0.88219z" fill="url(#color-3)" stroke-width="0"/><path d="M166.22531,291.80781l-2.56247,3.09739l-0.43234,-2.1442l1.79194,-2.28027c0,0 0.74277,0.07214 0.94884,0.29948c0.19414,0.21423 0.25397,1.0276 0.25397,1.0276z" fill="url(#color-4)" stroke-width="0"/></g><path d="M291.96157,250.77707c0,0 0.33261,-4.50264 0.64708,-5.94629c0.21343,-0.97999 2.37578,-2.71402 2.37578,-2.71402l16.83984,-2.47564c0,0 -0.49619,5.91596 -0.69251,7.32078c-0.08602,0.61538 -1.05062,1.44338 -1.05062,1.44338z" fill="#665b60" stroke-width="0"/><path d="M241.35404,239.13583c0,0 -3.96803,-1.04491 -9.00587,-1.53267c-3.20254,-0.3101 -7.51002,-0.30498 -9.34052,0.04693c-5.32184,1.02306 -7.14085,6.41717 -7.14085,6.41717c0,0 -3.55173,-1.86073 -5.75416,-2.42808c-2.0559,-0.52958 -6.50333,-0.94377 -6.50333,-0.94377c0,0 23.66619,-8.30655 27.40628,-9.39279c7.16999,-2.08242 33.667,-5.23648 33.667,-5.23648l8.06531,13.33305z" fill="#8b7c84" stroke-width="0"/><g stroke-width="0"><path d="M293.2782,249.64954c0,0 0.12265,-2.63587 0.41064,-3.57724c0.29855,-0.97605 2.32325,-2.30907 2.32325,-2.30907l14.40142,-1.92891c0,0 0.51339,0.92299 0.37801,1.6855c-0.18405,1.03671 -2.57129,4.12835 -2.57129,4.12835z" fill="#585852"/><path d="M293.17923,248.91083c0,0 0.22162,-1.89712 0.50961,-2.83847c0.29855,-0.97605 2.22431,-3.0478 2.22431,-3.0478l14.40141,-1.9289c0,0 0.61234,1.66174 0.477,2.42426c-0.18405,1.03671 -2.67028,3.38958 -2.67028,3.38958z" fill="#797971"/><path d="M308.6318,241.82101c-1.06321,-0.03712 -12.61893,1.23685 -12.61893,1.23685l14.3817,-1.92626l0.32681,2.44006c0,0 -1.02638,-1.71348 -2.08958,-1.75065z" fill="#85857b"/></g><path d="M292.28493,231.45224l-0.68896,-5.14384l7.07274,-0.94734l1.97492,4.97161z" fill="#7c6e75" stroke-width="0"/><path d="M278.44531,206.64635l-5.2192,-7.50483l1.36716,-0.1831l7.19751,7.6955z" fill="#d495b6" stroke-width="0"/><path d="M238.77415,204.26268l12.69188,-4.8172l21.96037,-0.30552l5.04178,7.48922z" fill="#df9cbe" stroke-width="0"/><path d="M293.11309,236.41377l-0.21529,-1.60743l10.76986,-1.4425l1.17976,1.47829z" fill="#7c6e75" stroke-width="0"/><path d="M251.28675,229.75323c0,0 -17.81404,3.59505 -23.33054,4.83864c-8.35324,1.88294 -24.96373,6.45376 -24.96373,6.45376c0,0 14.30124,-6.3958 27.48783,-9.69161c14.29764,-3.57354 57.76385,-10.86571 57.76385,-10.86571l0.7181,5.36117z" fill="#75686e" stroke-width="0"/><path d="M245.59386,239.36456l-3.29033,-0.13522c0,0 9.36748,-3.66036 14.76099,-3.61317c5.39354,0.04717 15.265,3.87592 15.265,3.87592z" fill="#7c6e76" stroke-width="0"/><path d="M199.0139,241.53718c0,0 -34.11477,-10.96463 -35.61177,-15.42552c-1.35979,-4.05219 29.8695,-1.63174 30.15028,-1.77856c4.91267,-2.56878 75.20161,-19.26251 75.20161,-19.26251l27.27453,3.19686l52.21906,-7.57066l9.04574,12.48508c0,0 -60.85907,9.33069 -84.39335,12.64733c-8.16938,1.15129 -24.93866,2.74387 -39.95573,5.90573c-11.58367,2.43897 -28.54041,9.06525 -28.54041,9.06525z" fill="#ee96c3" stroke-width="0"/><path d="M72.69044,271.11208l0.622,-20.41726c0,0 -1.0371,-6.97822 5.83821,-10.21556c8.53935,-4.02089 25.51563,-4.4936 27.56801,-4.7685c1.57492,-0.21095 -11.41052,12.038 -11.41052,12.038l2.6755,19.97561z" fill="#c4b4b3" stroke-width="0"/><g stroke-width="0"><path d="M348.93765,215.69544l-4.84213,-14.62958l92.8338,-5.60909l0.02085,5.85603l-46.364,11.1104z" fill="#ad6d8e"/><path d="M373.14666,197.98865l6.11015,-9.16497l26.25511,-5.66462l-2.88603,10.88122z" fill="#8d788b"/><path d="M348.05894,202.5481l-2.15529,-16.0916l33.42336,2.36193l-3.62629,7.41607z" fill="#857183"/><path d="M389.66137,193.62539l15.78859,-10.45681l28.09605,0.04324l0.63166,6.87095z" fill="#947e92"/><path d="M343.84602,202.49846l1.17329,-13.03713l1.02729,-3.22876l1.99977,14.93053z" fill="#756474"/><path d="M349.77892,212.33967l-2.31761,-11.87009l42.71155,-7.38429l0.9164,16.07772z" fill="#746373"/><path d="M391.07962,209.14868c0,0 -0.46072,-6.30209 -0.6413,-9.14746c-0.15462,-2.43614 -0.37651,-6.88842 -0.37651,-6.88842l43.92951,-4.96664l3.09743,8.06014z" fill="#867284"/><path d="M343.87673,202.42323l3.78871,-2.05204l2.14426,11.97204z" fill="#6f5e6d"/><path d="M426.38027,184.06301l-20.08932,-0.70298l26.97343,0.05606l0.11025,3.56235c0,0 -0.51914,-1.51373 -1.81034,-2.05202c-0.86373,-0.36005 -5.18403,-0.86347 -5.18403,-0.86347z" fill="#978195"/><path d="M387.91589,193.20365c0,0 7.44401,-4.49328 10.01788,-6.2042c1.87498,-1.24634 4.00396,-3.11658 4.00396,-3.11658l2.52635,-0.22476l-13.92305,9.19384z" fill="#9c859a"/><path d="M373.7696,195.91394c0,0 0.93936,-2.90271 2.09844,-4.42028c1.15905,-1.5176 3.33864,-2.63202 3.33864,-2.63202l-2.99733,6.72547z" fill="#806b7d"/><path d="M406.78134,181.22892l1.35331,-5.96579l15.5611,1.68249l6.40007,5.59993z" fill="#55494f"/><path d="M404.64214,184.34053c0,0 0.96794,-0.92689 1.44572,-1.58087c0.3599,-0.49262 0.85799,-1.95629 0.85799,-1.95629l22.64724,1.00239c0,0 0.92616,0.37738 1.55041,0.62233c0.65238,0.25599 2.28323,0.88204 2.28323,0.88204z" fill="#685960"/><path d="M407.21912,180.27012l1.03514,-4.76496l14.46282,1.41942c0,0 -8.13934,-0.45623 -12.54694,0.39105c-2.55668,0.4915 -2.95096,2.95446 -2.95096,2.95446z" fill="#41383c"/></g><path d="M69.10073,231.96197l-0.69145,-5.16226c0,0 21.96691,-4.24883 43.73825,-7.1074c12.97376,-1.70343 26.6356,-1.92136 33.44909,-3.18717c15.36302,-2.85421 25.14018,-8.71623 25.14018,-8.71623l-4.87154,11.39066z" fill="#ffa1d1" stroke-width="0"/><path d="M68.39854,246.13823l0.00621,-16.22705c0,0 54.58481,-5.23211 72.21554,-8.03812c10.44369,-1.66217 23.82097,-7.24664 23.82097,-7.24664l1.94379,14.51277c0,0 -66.90359,8.96096 -83.03195,11.12116c-6.63139,0.88818 -11.38557,32.52422 -11.38557,32.52422z" fill="#ee96c3" stroke-width="0"/><path d="M256.17634,298.16277l7.39301,-14.70749c0,0 7.72577,-17.03362 16.13184,-25.0836c2.13613,-2.04562 7.10106,-3.91783 7.10106,-3.91783c0,0 -6.57745,5.9106 -8.77872,9.0218c-5.19844,7.34729 -21.8471,34.68706 -21.8471,34.68706z" fill="#70646b" stroke-width="0"/><path d="M342.72723,221.15064l-8.63467,-17.00604l1.33814,-0.17924c0,0 2.61502,5.1503 3.9968,7.87176c0.19686,0.38772 1.71188,1.41684 1.95573,1.89713c0.42276,0.83259 -0.38972,1.18708 0.08274,2.11763c1.31562,2.59115 2.59937,5.11952 2.59937,5.11952z" fill="#795467" stroke-width="0"/><path d="M167.0691,229.48319c0,0 -11.25909,-5.10279 -11.08688,-8.9345c0.10309,-2.29421 15.74095,-12.41189 15.74095,-12.41189l68.1176,-7.43653l-1.21117,3.28597l30.08447,1.26582l-67.6326,35.87112c0,0 -1.52962,-5.45906 1.66137,-8.77015c3.10133,-3.21801 17.22307,-10.82504 17.22307,-10.82504c0,0 -33.92103,4.49391 -41.15895,5.37588c-2.41472,0.29423 -11.73793,2.57928 -11.73793,2.57928z" fill="#f399c8" stroke-width="0"/><g><path d="M170.19763,210.28253l-0.42988,-3.20968l174.99101,-23.43799l0.42988,3.20968z" fill="#584f54" stroke-width="0"/><path d="M339.04669,184.6503l-0.36327,-2.71212l3.02824,-0.40558l3.03521,2.35428z" fill="#685d63" stroke-width="0"/><g fill="#685d63" stroke-width="0"><g><g><g><path d="M332.47864,185.78143l-0.39517,-2.95069l3.84674,-0.51524l0.39517,2.95069z"/><path d="M326.23684,186.61744l-0.39517,-2.95069l3.84675,-0.51523l0.39517,2.95069z"/></g><g><path d="M320.2306,187.42194l-0.39517,-2.9507l3.84675,-0.51523l0.39517,2.95069z"/><path d="M313.9888,188.25795l-0.39517,-2.95069l3.84674,-0.51523l0.39517,2.9507z"/></g></g><g><g><path d="M307.86474,189.07815l-0.39517,-2.9507l3.84674,-0.51523l0.39517,2.95069z"/><path d="M301.62292,189.91421l-0.39517,-2.95069l3.84674,-0.51524l0.39517,2.9507z"/></g><g><path d="M295.61673,190.71864l-0.39517,-2.95069l3.84674,-0.51523l0.39517,2.95069z"/><path d="M289.37491,191.55465l-0.39517,-2.95069l3.84673,-0.51525l0.39517,2.9507z"/></g></g></g><g><g><g><path d="M289.13942,191.58625l-0.39517,-2.95069l3.84674,-0.51523l0.39517,2.95069z"/><path d="M282.89764,192.42223l-0.39517,-2.95069l3.84675,-0.51523l0.39517,2.95069z"/></g><g><path d="M276.89138,193.22672l-0.39517,-2.9507l3.84674,-0.51523l0.39517,2.95069z"/><path d="M270.64956,194.06271l-0.39517,-2.95069l3.84673,-0.51525l0.39517,2.9507z"/></g></g><g><g><path d="M264.52561,194.88296l-0.39517,-2.9507l3.84675,-0.51523l0.39517,2.95069z"/><path d="M258.28377,195.719l-0.39517,-2.95069l3.84675,-0.51523l0.39517,2.9507z"/></g><g><path d="M252.27751,196.52348l-0.39517,-2.95069l3.84674,-0.51524l0.39517,2.9507z"/><path d="M246.03574,197.35944l-0.39517,-2.95069l3.84675,-0.51523l0.39517,2.95069z"/></g></g></g></g><g><g fill="#685d63" stroke-width="0"><g><g><path d="M239.87163,198.18509l-0.39517,-2.9507l3.84675,-0.51523l0.39517,2.95069z"/><path d="M233.62986,199.02106l-0.39517,-2.95069l3.84675,-0.51523l0.39517,2.9507z"/></g><g><path d="M227.62361,199.82559l-0.39517,-2.95069l3.84675,-0.51523l0.39517,2.9507z"/><path d="M221.38183,200.66154l-0.39517,-2.95069l3.84674,-0.51524l0.39517,2.9507z"/></g></g><g><g><path d="M215.25784,201.48183l-0.39517,-2.9507l3.84675,-0.51523l0.39517,2.95069z"/><path d="M209.016,202.31776l-0.39517,-2.95069l3.84675,-0.51523l0.39517,2.9507z"/></g><g><path d="M203.00969,203.12228l-0.39517,-2.95069l3.84675,-0.51523l0.39517,2.9507z"/><path d="M196.76793,203.95834l-0.39517,-2.95069l3.84674,-0.51524l0.39517,2.95069z"/></g></g></g><g><g fill="#685d63" stroke-width="0"><g><path d="M196.53244,203.98985l-0.39517,-2.9507l3.84675,-0.51523l0.39517,2.95069z"/><path d="M190.29062,204.82586l-0.39517,-2.95069l3.84674,-0.51524l0.39517,2.9507z"/></g><g><path d="M184.28439,205.63034l-0.39517,-2.95069l3.84674,-0.51524l0.39517,2.9507z"/><path d="M178.04258,206.46629l-0.39517,-2.95069l3.84674,-0.51524l0.39517,2.95069z"/></g></g><g fill="none" stroke-width="1" font-family="sans-serif" font-weight="normal" font-size="12" text-anchor="start"><g/><g/></g></g></g><path d="M169.87159,207.30937l2.3087,-3.06997l3.02824,-0.40558l0.36327,2.71212z" data-paper-data="{&quot;index&quot;:null}" fill="#685d63" stroke-width="0"/></g><path d="M230.6447,232.34957l-2.49344,0.60641c0,0 1.32323,-2.76768 10.68372,-5.15921c7.09667,-1.8131 27.30382,-5.84281 39.40626,-8.21619c5.62005,-1.10216 60.42673,-17.52519 60.42673,-17.52519l5.15089,-0.70435c0,0 -59.75634,18.74343 -65.37524,19.82201c-12.42498,2.38498 -33.31187,6.43078 -39.32929,7.82041c-3.27564,0.75647 -8.46952,3.35608 -8.46952,3.35608z" fill="#70475c" stroke-width="0"/><path d="M333.18792,237.8127l-4.6352,2.48311l-2.5125,-18.76389c0,0 7.72893,-0.98635 15.28767,-1.95099c21.69888,-2.76924 125.9852,-16.07833 125.9852,-16.07833l0.89304,6.66769z" fill="#5a5959" stroke-width="0"/><path d="M332.49713,239.54818l0.68217,-3.12426l135.02441,-26.36372l-10.23301,12.68231z" fill="#4b4a4a" stroke-width="0"/><path d="M454.68881,222.99126c0,0 -6.28209,-2.41213 -9.47727,-3.42502c-1.71234,-0.54279 -8.20379,-2.17986 -8.20379,-2.17986c0,0 8.3161,1.81582 11.75695,2.3114c1.22798,0.17689 2.44026,0.76391 3.80285,1.11428c0.43939,0.11296 1.88039,-2.86386 3.53492,-4.81513c0.49455,-0.58323 1.69291,-0.37593 2.16972,-0.77356c1.09309,-0.91151 1.30404,-2.04095 1.30404,-2.04095c0,0 0.45786,0.87652 -0.58916,2.2414c-0.28565,0.37241 -2.02586,0.96097 -2.30059,1.36132c-1.10101,1.60469 -1.88166,3.32258 -2.10561,3.94904c-0.62494,1.74824 1.55834,2.06281 1.55834,2.06281z" fill="#414040" stroke-width="0"/><path d="M167.06008,229.78448l2.30806,-11.50701l6.86124,-1.54883c0,0 -0.59068,2.75096 -0.93879,4.37226c-0.08766,0.40834 11.34232,-3.0962 11.78031,-2.47784c0.81264,1.14723 -4.211,5.61358 -4.42997,6.6332c-0.25031,1.16571 -8.82519,2.71354 -8.82519,2.71354z" fill="#303030" stroke-width="0"/><path d="M166.86866,229.43675l2.31535,-10.66543c0,0 3.14681,0.89478 3.27756,1.871c0.2379,1.77636 -0.55884,7.72189 -0.55884,7.72189z" fill="#252525" stroke-width="0"/><path d="M328.88735,242.93042l-0.39194,-2.92627l5.08295,-3.65958l-0.83522,3.09061c0,0 -0.90349,1.4682 -1.58159,2.08292c-0.59669,0.5409 -2.2742,1.41227 -2.2742,1.41227z" fill="#383838" stroke-width="0"/><g><g fill="#4b4b4b" stroke-width="0"><g data-paper-data="{&quot;origPos&quot;:null}"><g data-paper-data="{&quot;origPos&quot;:null}"><path d="M395.6163,235.3761l-0.30172,-2.25263l3.71682,-0.49783l0.30172,2.25263z" data-paper-data="{&quot;origPos&quot;:null}"/><path d="M389.40654,236.09319l-0.30172,-2.25263l3.71681,-0.49783l0.30172,2.25262z" data-paper-data="{&quot;origPos&quot;:null}"/></g><g data-paper-data="{&quot;origPos&quot;:null}"><path d="M408.0208,233.82929l-0.30172,-2.25263l3.71682,-0.49783l0.30172,2.25262z" data-paper-data="{&quot;origPos&quot;:null}"/><path d="M401.81102,234.54637l-0.30172,-2.25262l3.71681,-0.49783l0.30172,2.25263z" data-paper-data="{&quot;origPos&quot;:null}"/></g></g><g data-paper-data="{&quot;origPos&quot;:null,&quot;index&quot;:null}"><g data-paper-data="{&quot;origPos&quot;:null}"><path d="M427.02522,231.0546l-0.30172,-2.25263l3.71682,-0.49783l0.30172,2.25262z" data-paper-data="{&quot;origPos&quot;:null}"/><path d="M433.20478,230.11224l-0.30173,-2.25262l3.71682,-0.49783l0.30171,2.25261z" data-paper-data="{&quot;origPos&quot;:null}"/></g><g data-paper-data="{&quot;origPos&quot;:null}"><path d="M414.65091,232.82661l-0.30172,-2.25263l3.71681,-0.49783l0.30173,2.25262z" data-paper-data="{&quot;origPos&quot;:null}"/><path d="M420.83051,231.88432l-0.30172,-2.25262l3.71682,-0.49783l0.30172,2.25262z" data-paper-data="{&quot;origPos&quot;:null}"/></g></g></g><path d="M352.17814,232.87534l-1.80691,-13.49065l83.72636,-11.21415l1.80691,13.49065z" data-paper-data="{&quot;origPos&quot;:null}" fill="#444444" stroke-width="0"/><path d="M352.90268,237.54274l-0.63486,-4.74011l83.48027,-11.18121l0.63486,4.74012z" data-paper-data="{&quot;origPos&quot;:null}" fill="#414141" stroke-width="0"/><path d="M353.12628,238.94976l-0.21472,-1.60331l83.46961,-11.17978l0.21474,1.6033z" data-paper-data="{&quot;origPos&quot;:null}" fill="#3f3f3f" stroke-width="0"/><g stroke-width="0"><g data-paper-data="{&quot;origPos&quot;:null}" fill="#5a5a5a"><g data-paper-data="{&quot;origPos&quot;:null}"><path d="M395.07735,227.20962l-1.82535,-13.62829l3.53982,-0.47411l1.82535,13.62829z" data-paper-data="{&quot;origPos&quot;:null}"/></g><g data-paper-data="{&quot;origPos&quot;:null}"><path d="M401.09504,226.40363l-1.82535,-13.62829l3.53983,-0.47411l1.82535,13.62829z" data-paper-data="{&quot;origPos&quot;:null}"/><path d="M407.28975,225.57387l-1.82533,-13.6283l3.53982,-0.47411l1.82535,13.62829z" data-paper-data="{&quot;origPos&quot;:null}"/></g></g><g data-paper-data="{&quot;origPos&quot;:null}" fill="#5a5a5a"><g data-paper-data="{&quot;origPos&quot;:null}"><path d="M413.83841,224.69677l-1.82535,-13.62829l3.53982,-0.47411l1.82534,13.6283z" data-paper-data="{&quot;origPos&quot;:null}"/><path d="M420.03305,223.86705l-1.82535,-13.62829l3.53983,-0.47411l1.82533,13.6283z" data-paper-data="{&quot;origPos&quot;:null}"/></g><g data-paper-data="{&quot;origPos&quot;:null}"><path d="M426.05078,223.06106l-1.82533,-13.6283l3.53982,-0.47411l1.82533,13.6283z" data-paper-data="{&quot;origPos&quot;:null}"/><path d="M432.24548,222.23135l-1.82533,-13.6283l3.53982,-0.47411l1.82535,13.62829z" data-paper-data="{&quot;origPos&quot;:null}"/></g></g><path d="M398.67796,226.72737l-0.61468,2.03056l-5.18927,0.73849l-1.43865,-9.69127l1.75823,-6.21612l1.8937,13.61915z" fill="#3a3a3a"/><path d="M404.69324,225.92164l-0.61468,2.03057l-5.18928,0.73851l-1.43864,-9.69127l1.75823,-6.21611l1.8937,13.61914z" fill="#3a3a3a"/><path d="M410.8452,225.09769l-0.61468,2.03057l-5.18927,0.73851l-1.43865,-9.69127l1.75823,-6.21611l1.8937,13.61915z" fill="#3a3a3a"/><path d="M417.47564,224.20963l-0.61468,2.03057l-5.18927,0.73851l-1.43865,-9.69127l1.75823,-6.21611l1.8937,13.61915z" fill="#3a3a3a"/><path d="M423.69599,223.37651l-0.61468,2.03057l-5.18927,0.73851l-1.43865,-9.69127l1.75823,-6.21611l1.8937,13.61914z" fill="#3a3a3a"/><path d="M429.64285,222.57996l-0.61468,2.03056l-5.18927,0.73849l-1.43865,-9.69127l1.75823,-6.21611l1.8937,13.61915z" fill="#3a3a3a"/><path d="M435.871,221.74579l-0.61468,2.03056l-5.18927,0.73851l-1.43864,-9.69127l1.75823,-6.21612l1.8937,13.61915z" fill="#3a3a3a"/></g><g stroke-width="0"><g data-paper-data="{&quot;origPos&quot;:null}" fill="#5a5a5a"><g data-paper-data="{&quot;origPos&quot;:null}"><path d="M352.23096,232.9484l-1.82533,-13.6283l3.53983,-0.47411l1.82535,13.62829z" data-paper-data="{&quot;origPos&quot;:null}"/></g><g data-paper-data="{&quot;origPos&quot;:null}"><path d="M358.24861,232.14245l-1.82535,-13.62829l3.53982,-0.47411l1.82535,13.62829z" data-paper-data="{&quot;origPos&quot;:null}"/><path d="M364.44325,231.31272l-1.82535,-13.62829l3.53983,-0.47411l1.82533,13.6283z" data-paper-data="{&quot;origPos&quot;:null}"/></g></g><g data-paper-data="{&quot;origPos&quot;:null}" fill="#5a5a5a"><g data-paper-data="{&quot;origPos&quot;:null}"><path d="M370.99198,230.43562l-1.82533,-13.6283l3.53984,-0.47411l1.82535,13.62829z" data-paper-data="{&quot;origPos&quot;:null}"/><path d="M377.18671,229.60587l-1.82535,-13.62829l3.53983,-0.47411l1.82533,13.6283z" data-paper-data="{&quot;origPos&quot;:null}"/></g><g data-paper-data="{&quot;origPos&quot;:null}"><path d="M383.20438,228.79987l-1.82535,-13.62829l3.53983,-0.47411l1.82533,13.6283z" data-paper-data="{&quot;origPos&quot;:null}"/><path d="M389.39912,227.97019l-1.82533,-13.6283l3.53983,-0.47411l1.82534,13.6283z" data-paper-data="{&quot;origPos&quot;:null}"/></g></g><path d="M355.83151,232.46616l-0.61468,2.03057l-2.69989,0.4051l-0.27604,-1.9548z" fill="#3a3a3a"/><path d="M361.8468,231.66051l-0.61468,2.03057l-5.18927,0.73851l-1.43864,-9.69127l1.75823,-6.21611l1.8937,13.61915z" fill="#3a3a3a"/><path d="M367.99868,230.83649l-0.61468,2.03056l-5.18927,0.73851l-1.43866,-9.69126l1.75823,-6.21612l1.8937,13.61915z" fill="#3a3a3a"/><path d="M374.62916,229.94841l-0.61468,2.03056l-5.18927,0.73851l-1.43864,-9.69127l1.75823,-6.21611l1.8937,13.61915z" fill="#3a3a3a"/><path d="M380.84958,229.11531l-0.61468,2.03056l-5.18927,0.73849l-1.43865,-9.69127l1.75823,-6.21611l1.8937,13.61915z" fill="#3a3a3a"/><path d="M386.79642,228.31872l-0.61468,2.03056l-5.18927,0.73849l-1.43865,-9.69127l1.75823,-6.21612l1.8937,13.61915z" fill="#3a3a3a"/><path d="M393.02463,227.48456l-0.61468,2.03057l-5.18927,0.73849l-1.43865,-9.69127l1.75823,-6.21611l1.8937,13.61915z" fill="#3a3a3a"/></g><g><g data-paper-data="{&quot;origPos&quot;:null}"><g data-paper-data="{&quot;origPos&quot;:null}" fill="none" stroke-width="1" font-family="sans-serif" font-weight="normal" font-size="12" text-anchor="start"/><g data-paper-data="{&quot;origPos&quot;:null}" fill="#4b4b4b" stroke-width="0"><path d="M359.72659,240.37537l-0.30172,-2.25263l3.71681,-0.49783l0.30173,2.25262z" data-paper-data="{&quot;origPos&quot;:null}"/><path d="M353.51678,241.09246l-0.30172,-2.25263l3.71681,-0.49783l0.30172,2.25263z" data-paper-data="{&quot;origPos&quot;:null}"/></g></g><g data-paper-data="{&quot;origPos&quot;:null,&quot;index&quot;:null}" fill="#4b4b4b" stroke-width="0"><g data-paper-data="{&quot;origPos&quot;:null}"><path d="M378.731,237.60059l-0.30172,-2.25262l3.71682,-0.49783l0.30172,2.25262z" data-paper-data="{&quot;origPos&quot;:null}"/><path d="M384.91059,236.65827l-0.30171,-2.25261l3.71682,-0.49783l0.30172,2.25262z" data-paper-data="{&quot;origPos&quot;:null}"/></g><g data-paper-data="{&quot;origPos&quot;:null}"><path d="M366.35664,239.37271l-0.30172,-2.25263l3.71682,-0.49783l0.30172,2.25262z" data-paper-data="{&quot;origPos&quot;:null}"/><path d="M372.53626,238.4303l-0.30172,-2.25263l3.71682,-0.49783l0.30172,2.25263z" data-paper-data="{&quot;origPos&quot;:null}"/></g></g></g></g><path d="M179.41629,226.52133l0.47087,-4.3158c0,0 4.15243,-3.73175 7.63239,-4.3492c3.97827,-0.70587 33.68526,-4.6596 33.68526,-4.6596c0,0 0.90517,1.77127 1.01429,2.98471c0.14062,1.56337 -1.54992,4.8818 -1.54992,4.8818z" fill="#242424" stroke-width="0"/><path d="M203.57603,219.4413l-0.41821,-3.1224l17.84245,-2.38984l0.41821,3.1224z" fill="#313131" stroke-width="0"/><path d="M200.56772,221.79214l-0.08657,-0.64648c0,0 0.91889,-1.18362 1.93289,-1.31944c0.96289,-0.12893 3.19455,0.05127 5.64643,-0.11227c4.67082,-0.31165 10.26288,-0.95801 10.26288,-0.95801l0.08657,0.64648c0,0 -5.38051,0.7186 -9.98666,1.02212c-2.51332,0.16563 -4.83699,-0.09722 -5.83584,0.03656c-1.04992,0.14061 -2.01967,1.33104 -2.01967,1.33104z" fill="#616161" stroke-width="0"/><path d="M225.37502,202.61826l12.98275,1.31475l31.28212,1.16561c0,0 0.7564,0.12487 -7.3672,0.47822c-2.76351,0.12019 -13.52128,-0.06231 -22.91509,-0.72398c-2.54184,-0.17902 -16.21471,-1.81922 -16.21471,-1.81922z" fill="#df8cb7" stroke-width="0"/><path d="M46.73162,232.93836l-0.78767,-5.88058c0,0 5.48628,-2.50344 9.25645,-3.00839c3.08649,-0.4134 11.95933,1.93541 11.95933,1.93541l1.49533,12.18002z" fill="#626061" stroke-width="0"/><path d="M163.08962,227.42845l4.09535,1.97985l11.9631,-2.93728l50.29583,-6.73652l0.14488,1.08139c0,0 -37.74861,4.90947 -49.51183,6.74954c-3.22957,0.50522 -12.74745,2.50732 -12.74745,2.50732z" fill="#ffa6d4" stroke-width="0"/><path d="M52.36166,296.68548l-0.95179,-7.10615l21.01265,-19.59313l0.22154,13.7613l-12.40389,11.88275z" fill="#3f3d3e" stroke-width="0"/><path d="M50.07424,291.88652c0,0 -2.42292,-19.50281 -2.89654,-29.10825c-0.5346,-10.84125 -0.15046,-32.68169 -0.15046,-32.68169c0,0 8.5132,-1.33126 12.28203,-0.17554c3.22561,0.98911 8.95602,6.68823 8.95602,6.68823l4.45405,33.2546c0,0 -9.9334,15.15091 -12.65141,17.79423c-4.18082,4.06593 -9.99369,4.22846 -9.99369,4.22846z" fill="#555354" stroke-width="0"/><path d="M48.28477,240.62126c0,0 -2.32209,-5.7354 -0.63229,-8.68303c1.68979,-2.94765 5.86586,-4.53298 8.40345,-4.87286c2.02431,-0.27114 6.22404,-0.75422 9.6639,3.28339c3.43987,4.03758 2.4227,10.90345 2.4227,10.90345c0,0 -7.62519,-9.4753 -10.2154,-9.55759c-3.65505,-0.11612 -9.64241,8.92669 -9.64241,8.92669z" fill="#6f6b6c" stroke-width="0"/><path d="M49.28082,296.90813c0,0 -1.76053,-26.05948 -3.27967,-37.40197c-1.58212,-11.81232 -4.54499,-32.3189 -4.54499,-32.3189c0,0 1.06063,-0.79077 2.09225,-0.92897c0.94327,-0.12637 2.58162,0.30296 2.58162,0.30296c0,0 2.33049,19.0142 3.75024,29.61431c1.6495,12.31548 2.79991,40.27723 2.79991,40.27723z" fill="#333232" stroke-width="0"/><path d="M48.91276,297.40505l-0.86806,-14.72334c0,0 1.16386,0.74093 1.75283,0.62303c0.74371,-0.14887 2.21507,-1.79628 2.21507,-1.79628l0.83419,15.36963z" fill="#2e2d2d" stroke-width="0"/><path d="M69.63325,258.0461c1.08386,8.09237 -1.85312,17.23109 -5.79112,20.71206c-3.27062,2.89109 -9.80579,10.58465 -10.88964,2.4923c-0.22993,-1.71678 0.21904,-13.76233 -0.58689,-20.74699c-1.06581,-9.2371 -3.35822,-13.95542 -2.78481,-16.88915c1.03693,-5.30463 6.31488,-7.50421 8.50979,-7.7982c4.32662,-0.57948 10.45884,14.13763 11.54271,22.22999z" fill="#585758" stroke-width="0"/><path d="M105.65959,267.42957l-0.81841,-1.64667c0,0 7.69014,-2.39262 13.59061,-3.67137c8.30648,-1.80023 31.54729,-6.11108 31.54729,-6.11108l1.95013,1.03145c0,0 -24.67328,4.93957 -33.20792,6.85746c-2.5065,0.56327 -13.06165,3.54027 -13.06165,3.54027z" fill="#585657" stroke-width="0"/><path d="M101.57375,281.29521l3.32627,-14.25915l7.052,-1.90368c0,0 -1.15008,4.50604 -0.96425,5.24307c0.88769,3.52165 7.03977,26.8787 7.03977,26.8787c0,0 -1.40591,0.63265 -2.83377,-1.06839c-2.56197,-3.05223 -5.29219,-9.60982 -7.30792,-11.46125c-1.7416,-1.59965 -6.31207,-3.42927 -6.31207,-3.42927z" fill="#5a5759" stroke-width="0"/><path d="M109.90295,249.10049l1.35879,-11.61649l2.29794,-0.41989l-2.4306,11.98422z" fill="#a5a0a2" stroke-width="0"/><path d="M116.48874,247.12523l-0.18623,-1.39036l26.26174,-3.51746l0.18623,1.39035z" fill="#494748" stroke-width="0"/><path d="M116.01437,244.19092l-0.18623,-1.39036l26.26174,-3.51746l0.18623,1.39036z" fill="#494748" stroke-width="0"/><path d="M99.72766,268.98017l-2.6734,-19.96013l10.86241,-11.15699l4.7603,-0.95214l-10.44807,44.59522l-5.82753,-1.24069z" fill="#dbd5d8" stroke-width="0"/><path d="M75.04534,284.3069l-1.72177,-11.66548l26.31377,-4.32094c0,0 0.66425,2.47145 0.6412,3.28011c-0.05734,2.01594 -1.12586,9.15884 -1.12586,9.15884z" fill="#ccc6c9" stroke-width="0"/><path d="M77.28949,272.51419l-0.04194,-0.313l22.49976,-3.88977l-2.42512,1.51969c0,0 -4.25867,0.75828 -6.94763,1.08637c-3.68189,0.44931 -13.0851,1.59672 -13.0851,1.59672z" fill="#d8d1d5" stroke-width="0"/><path d="M80.27778,268.34379l-2.25681,-16.84949l15.9823,-2.14064l2.25681,16.84949z" fill="#a39999" stroke-width="0"/><path d="M74.79373,284.51183l-1.50803,-11.25875c0,0 9.60651,5.15702 14.16595,6.90783c4.55948,1.75081 10.96596,0.61024 10.96596,0.61024z" fill="#b4afb1" stroke-width="0"/><path d="M108.94136,286.03479c0,0 3.14078,0.62912 4.20814,0.34115c0.65566,-0.17695 1.58679,-1.90476 1.58679,-1.90476l2.84836,8.77272l0.55691,4.15797c0,0 -1.8845,0.56663 -3.49508,-1.8233c-1.32884,-1.97187 -5.70509,-9.54375 -5.70509,-9.54375z" fill="#504e4f" stroke-width="0"/><path d="M101.94941,281.80625l8.79196,-43.29393l1.75539,-0.02816l-8.63584,43.68692z" fill="#858183" stroke-width="0"/><path d="M79.85177,243.64599l1.28228,-1.83697c0,0 27.08745,-4.27771 39.38793,-5.92519c10.67594,-1.4299 31.70907,-3.89093 31.70907,-3.89093l0.78252,1.85391c0,0 -21.20251,2.12757 -32.45562,3.63478c-12.84963,1.72109 -40.70614,6.16439 -40.70614,6.16439z" fill="#918b8e" stroke-width="0"/><path d="M80.69757,242.29097l1.74824,-2.19293c0,0 25.61232,-3.78657 37.91274,-5.43411c10.67593,-1.4299 31.70907,-3.89093 31.70907,-3.89093l0.78251,1.85391c0,0 -21.2025,2.12757 -32.45562,3.63477c-12.84963,1.72109 -39.69693,6.02918 -39.69693,6.02918z" fill="#a59fa2" stroke-width="0"/><path d="M147.49384,254.31604l-2.66288,-5.37673c0,0 0.04978,-1.22249 0.36483,-1.37845c0.27759,-0.13748 1.42734,0.49083 1.42734,0.49083l2.66288,5.37674c0,0 -0.15719,0.90655 -0.43541,1.04431c-0.31472,0.15588 -1.35681,-0.15669 -1.35681,-0.15669z" fill="#494242" stroke-width="0"/><path d="M107.92728,262.28781l2.25225,-9.87208l3.85132,-0.51585l-2.25225,9.87208z" fill="#9c989a" stroke-width="0"/><path d="M115.05006,243.39886l1.70586,-1.20506l24.22494,-3.22641l2.1263,0.67364z" fill="#757274" stroke-width="0"/><path d="M115.51672,246.17277l1.70586,-1.20507l24.22493,-3.2264l2.12631,0.67361z" fill="#757274" stroke-width="0"/><path d="M72.26401,283.85893l-6.02874,-57.86962l1.98038,0.32066l6.6227,58.19475z" fill="#686666" stroke-width="0"/><path d="M72.13796,284.14853l-1.50921,-16.19875l2.77773,3.48053l1.33443,13.2502z" fill="#535252" stroke-width="0"/><path d="M99.57503,257.39471c0,0 1.79388,-2.60669 1.66817,-3.54507c-0.12332,-0.92089 -2.41541,-2.03379 -2.41541,-2.03379c0,0 3.06437,0.26525 3.18525,1.95245c0.09206,1.28515 -0.65865,3.59424 -0.5989,4.69846c0.16983,3.13969 0.4627,10.51343 0.4627,10.51343z" fill="#c4bec1" stroke-width="0"/><path d="M106.92931,254.48097l0.54121,-10.35898l1.94827,-4.65409l-1.36264,9.82604z" fill="#aca7a9" stroke-width="0"/></g></g><g stroke-width="0"><path d="M220.24859,211.22418l2.09041,-3.6389c0,0 1.60075,-1.66354 2.45494,-1.50053c0.9739,0.18588 3.07642,2.55631 3.07642,2.55631l0.00475,4.11775c0,0 -4.24436,0.56087 -5.51711,0.59684c-0.57379,0.01623 -2.10932,-2.13149 -2.10932,-2.13149z" fill="#c0c0c0"/><path d="M178.99085,226.48744c0,0 -0.55723,-2.83109 0.34134,-4.10046c1.12609,-1.59081 6.85855,-4.59058 6.85855,-4.59058l-0.07544,4.7895l0.3878,2.89536z" fill="#838383"/><path d="M178.81034,226.43666l7.03985,-8.491l37.22985,-4.98651l0.99318,7.41505z" fill="#999999"/><path d="M179.71331,225.65336l5.32975,-6.60716l33.47342,-4.48337l0.77543,5.7894c0,0 -4.05142,0.54261 -9.26307,1.24072c-3.38842,0.45389 -7.40823,-0.07922 -10.98297,0.39953c-3.83482,0.5136 -7.17869,2.033 -9.33259,2.32149c-4.2155,0.56462 -9.99993,1.33934 -9.99993,1.33934z" fill="#2e2e2e"/><path d="M183.17436,225.18761l7.51113,-6.96206l12.35378,-1.65464c0,0 -7.0576,2.86966 -9.28529,4.09077c-2.365,1.29629 -5.26857,3.81459 -5.26857,3.81459z" fill="#a5899d"/><path d="M191.07782,224.01528c0,0 4.91106,-1.63859 7.34642,-1.96476c3.11178,-0.4168 9.79732,-0.33146 9.79732,-0.33146l-9.6131,0.94938z" fill="#adadad"/><path d="M178.91152,226.40475l6.35861,-7.66359l34.65719,-4.64189l0.0914,0.68248c0,0 -30.00882,4.01934 -33.92051,4.54326c-0.81815,0.10959 -7.18663,7.07979 -7.18663,7.07979z" fill="#8a8a8a"/><path d="M226.48916,226.32377l-1.29504,-9.669l-0.31108,-7.22455c0,0 1.23905,0.30813 1.86288,0.79314c0.6238,0.48498 1.15357,1.55194 1.15357,1.55194l0.58488,14.28129z" fill="#9e9e9e"/><path d="M220.52421,222.85418c0,0 -1.1858,-1.98506 -1.53221,-3.542c-0.46653,-2.09656 -0.35114,-7.67947 -0.35114,-7.67947l1.88105,-0.58019c0,0 0.85726,0.68404 1.31113,0.47276c0.62574,-0.29127 2.09607,-2.05884 2.09607,-2.05884l1.20337,12.77059z" fill="#9c9c9c"/><path d="M221.3361,224.5924c-0.92208,-0.99081 -0.86606,-2.38371 -0.86606,-2.38371l3.87869,-7.78419c0,0 1.89688,3.66439 2.01855,4.57274c0.34588,2.58247 1.97401,7.15654 1.97401,7.15654c0,0 -2.94261,0.47861 -4.0305,0.18177c-1.30479,-0.35599 -2.0525,-0.75241 -2.97462,-1.74323z" fill="#888888"/><path d="M222.99826,223.5886c-1.24499,-1.85084 -2.83906,-6.14026 -1.55132,-10.41582c1.28775,-4.27558 3.96366,-2.48378 3.96366,-2.48378c0,0 1.58476,4.25023 1.8918,6.5426c0.27971,2.08818 -0.12392,6.65631 -0.12392,6.65631c0,0 -2.9352,1.55152 -4.18019,-0.29937z" fill="#b4b4b4"/><path d="M226.10161,215.40897c0.18734,1.39859 -4.86714,2.15366 -5.05446,0.75513c-0.18734,-1.39859 2.12721,-7.15902 2.93244,-7.26683c0.31186,-0.04173 0.96354,-0.02632 1.29912,0.99894c0.53086,1.62195 0.70813,4.65594 0.82292,5.51283z" fill="#bbbbbb"/></g><g stroke-width="0"><path d="M162.99211,227.42621c0,0 -6.45751,-4.09632 -6.70621,-5.95314c-0.2031,-1.5161 5.76338,-2.43946 5.76338,-2.43946l7.48806,-0.93044l-2.55758,11.21776z" fill="#f399c8"/><path d="M132.95408,233.10581c0,0 -1.23999,-1.95049 -1.12741,-3.04784c0.12423,-1.21105 1.68773,-5.05755 1.68773,-5.05755l22.80959,-3.2424l10.19015,7.33533z" fill="#ee96c3"/></g></g><g stroke-width="0"><g><path d="M224.97871,200.87877l-0.82068,-6.12708l47.39491,-6.348l0.82068,6.12708z" fill="#61585b"/><path d="M224.38629,197.68559l-0.43943,-3.28104l47.57514,-6.37212l0.43943,3.28103c0,0 -8.56439,1.14708 -17.36217,2.32546c-2.75071,0.36842 -6.41647,2.39021 -8.95818,2.7306c-3.02239,0.40481 -6.46526,-0.66485 -8.40399,-0.4052c-5.81342,0.77864 -12.85079,1.72117 -12.85079,1.72117z" fill="#494344"/><path d="M284.78956,182.9311l-11.76412,-17.52634l20.73409,-2.77706l17.51882,14.57765c0,0 -5.47884,2.10737 -8.64802,2.79241c-4.89027,1.05709 -17.84074,2.93336 -17.84074,2.93336z" fill="#5e555b"/><path d="M285.24769,186.33546l-0.73524,-5.48946c0,0 11.99672,-3.07292 16.74209,-4.49509c3.76598,-1.12865 6.46963,-2.07801 6.46963,-2.07801l6.80796,6.08889c0,0 -5.0733,2.28989 -9.12554,3.28056c-5.49055,1.34228 -20.1588,2.69319 -20.1588,2.69319z" fill="url(#color-5)"/><path d="M271.36668,165.78716l-0.53049,-3.96083l18.98203,-2.5424l4.13471,3.47806z" fill="url(#color-6)"/><path d="M284.67234,186.43767l-0.16715,-1.2481c0,0 15.46141,-2.14795 20.778,-3.0291c3.97548,-0.65884 8.14753,-2.80858 8.14753,-2.80858l1.03296,1.01662l-7.87594,3.13381z" fill="#312c30"/><g><path d="M183.13957,189.34156l-1.40042,-8.74988l93.09398,-12.46885l9.0706,10.16769z" fill="#8a6672"/><path d="M200.6324,195.35826c0,0 -3.96705,-3.10664 -6.94094,-4.18295c-2.97391,-1.07635 -9.9411,0.0964 -9.9411,0.0964l-0.16588,-2.08348c0,0 12.25089,-1.36204 19.23064,-2.20075c16.67365,-2.0038 80.37887,-9.76991 80.37887,-9.76991l4.4629,6.02789z" fill="#755761"/><path d="M203.78639,197.44904l-3.34274,-2.16725l86.74623,-12.11235l1.60384,2.89381z" fill="#694e57"/><path d="M181.6285,181.00618l-0.60122,-4.48891l89.91228,-12.72813l4.56714,5.10006c0,0 3.1739,2.94275 -2.06891,3.61942c-1.65045,0.21303 -11.13779,-1.91482 -12.7924,-1.70126c-15.93477,2.0567 -79.01681,10.1988 -79.01681,10.1988z" fill="#916b77"/><path d="M181.26702,176.48526l-0.45296,-2.4864l89.09461,-12.07313l1.35352,2.23237z" fill="#9e7582"/><path d="M254.82752,167.32271c-8.0824,0.42884 -72.31095,7.98997 -72.31095,7.98997l87.07646,-11.66285l5.74615,6.73797c0,0 -12.42917,-3.4939 -20.51164,-3.06506z" fill="#b38f9a"/></g><path d="M234.38462,193.34784l-1.21782,-9.09259l20.03333,-2.68325l1.21782,9.0926z" fill="#3a3336"/><path d="M233.08029,184.27105l0.508,-1.60414l18.37434,-2.46104l1.17851,1.37823z" fill="#4b4246"/><path d="M234.45723,192.83429l-1.0856,-8.10521c0,0 1.74881,5.07864 4.5301,5.82227c2.78129,0.74367 16.02901,-0.32533 16.02901,-0.32533z" fill="#332c30"/><path d="M272.90654,167.82459l-4.68181,-5.42651c0,0 0.92539,-0.79656 1.5207,-0.87626c0.66553,-0.08914 2.28529,0.36656 2.28529,0.36656l4.68181,5.42651z" fill="#757575"/><path d="M276.52874,172.11629l-6.72774,-7.78807l3.80602,-0.50976l6.72774,7.78806z" fill="#5a5a5a"/><path d="M281.59218,177.94465l-6.72774,-7.78806l3.80601,-0.50976l6.72774,7.78807z" fill="#505050"/><path d="M286.82912,183.98257c-1.14907,-1.33017 -5.63258,-6.52033 -5.63258,-6.52033l3.80601,-0.50975l7.9262,9.35709c0,0 -1.96648,0.80367 -2.90958,0.91504c-0.73561,0.08689 -2.68338,-2.65552 -3.19004,-3.24207z" fill="#3b3b3b"/><path d="M181.95605,192.12145l-2.47914,-18.50946l3.15281,-0.42229l2.47914,18.50946z" fill="#443e42"/><path d="M163.45924,196.21213l-1.46663,-5.78453l20.04952,-2.68544l0.78698,5.87556z" fill="url(#color-7)"/><path d="M162.07634,191.05262l-1.43997,-10.75098l20.04952,-2.68544l1.43997,10.75099z" fill="#5e555b"/><path d="M160.65314,180.42685l0.24034,-4.2316l19.25659,-2.57921l0.55254,4.1254z" fill="url(#color-8)"/><path d="M229.80519,167.16435l-0.81425,-6.07905l15.03087,-0.93704l5.20672,4.0558z" fill="#5e555b"/><path d="M249.2758,164.55649l-5.24214,-4.32011c0,0 3.08117,0.28408 5.42224,0.97771c2.34105,0.69361 6.25135,2.48095 6.25135,2.48095z" fill="#776b73"/><path d="M226.96306,168.7109l3.00649,-1.65823l25.33807,-3.66276l3.8128,1.01395z" fill="#6d6269"/></g><g><path d="M235.29131,189.22083c-0.16578,-1.23776 0.18649,-2.45199 0.43496,-3.52401c0.34624,-1.49387 0.78573,-2.75114 1.95568,-3.76158c0.71465,-0.61724 1.79015,-1.15414 2.73843,-1.52365c0.62717,-0.24439 1.56441,-0.77354 2.2612,-0.86689c1.5796,-0.21159 1.92973,-0.17599 3.13513,0.163c0.72611,0.20423 2.41068,0.43168 3.03015,1.02685c0.52432,0.50371 1.1218,1.38073 1.55072,2.00897c0.73293,1.07366 1.77582,2.81514 1.96017,4.19146c0.07792,0.58164 -0.23199,1.97356 -0.21281,2.49104c0.06094,1.6429 0.12787,2.1481 -0.92832,3.4029c-0.642,0.76266 -2.06316,1.50576 -2.98387,2.04267c-0.95345,0.55608 -2.10298,1.58385 -3.26537,1.73955c-0.78449,0.10508 -2.27095,-0.23558 -3.04905,-0.26881c-1.68808,-0.07204 -2.59543,-0.12648 -3.76713,-1.11993c-1.00483,-0.85186 -1.47529,-2.40147 -2.0166,-3.69869c-0.28433,-0.6815 -0.7407,-1.53612 -0.84343,-2.30294z" fill="#3a3a3a"/><path d="M236.00013,189.00623c-0.15171,-1.13273 0.17071,-2.24382 0.39801,-3.22486c0.31685,-1.36701 0.719,-2.51752 1.78967,-3.44224c0.65396,-0.56479 1.63819,-1.05613 2.50591,-1.39429c0.57397,-0.22363 1.43165,-0.7079 2.06918,-0.79329c1.4455,-0.19361 1.76589,-0.16106 2.86897,0.14913c0.66446,0.18687 2.20597,0.39507 2.77288,0.93962c0.47984,0.46095 1.02662,1.26353 1.41906,1.83842c0.67073,0.98252 1.62506,2.57614 1.79372,3.83558c0.0713,0.53224 -0.2123,1.80596 -0.19474,2.27957c0.0558,1.5034 0.11703,1.9657 -0.84956,3.11396c-0.58749,0.69793 -1.88803,1.37785 -2.73048,1.86924c-0.87251,0.50888 -1.92446,1.44941 -2.9881,1.5919c-0.71787,0.09617 -2.07814,-0.21558 -2.79016,-0.24593c-1.54474,-0.06586 -2.37504,-0.11573 -3.44733,-1.02481c-0.91951,-0.77957 -1.35004,-2.19759 -1.84532,-3.38469c-0.26014,-0.62364 -0.67778,-1.40572 -0.7718,-2.10739z" fill="#5a5a5a"/><path d="M247.48287,182.89843c-2.34357,-2.0932 -7.41859,-1.61584 -7.41859,-1.61584c0,0 1.8534,-0.79308 3.82689,-1.05039c1.59857,-0.20846 3.2054,-0.05596 4.52738,1.07959c1.32307,1.13646 1.91057,2.55573 2.38007,3.90083c0.92055,2.63711 0.80426,5.06687 0.80426,5.06687c0,0 -1.77644,-5.28781 -4.12002,-7.38097z" fill="#6d6d6d"/><path d="M242.86938,188.57999c-0.07647,-0.57061 0.32415,-1.09514 0.89484,-1.1716c0.57061,-0.07647 1.09514,0.32415 1.1716,0.89485c0.07647,0.57061 -0.32415,1.09514 -0.89485,1.17159c-0.57061,0.07647 -1.09514,-0.32415 -1.17159,-0.89485z" fill="#272727"/><path d="M242.80924,188.72612c-0.07008,-0.5234 0.29734,-1.00443 0.82068,-1.07458c0.5234,-0.07008 1.00443,0.29734 1.07458,0.82068c0.07008,0.5234 -0.29734,1.00443 -0.82067,1.07458c-0.5234,0.07008 -1.00443,-0.29734 -1.07458,-0.82067z" fill="#131313"/></g></g></g></g></g><path d="M169.31628,309.43901c-0.21038,-1.57065 -10.08991,-43.25405 -9.82135,-44.98013c0.36263,-2.33054 8.948,-2.11777 11.6858,-4.00572c8.38479,-5.78218 17.50198,-11.63139 17.50198,-11.63139c0,0 14.02092,-1.29229 18.21992,-1.85463c3.14009,-0.42059 62.78908,-16.97595 64.89415,-6.84419c2.85525,13.74254 -41.8429,7.90631 -40.23253,19.92958c0.40765,3.04374 2.82202,2.91758 2.67909,6.11209c-0.03432,0.76669 -1.67771,6.21192 -1.67754,7.90297c0.00021,2.68428 3.79756,6.21395 0.92815,9.72521c-2.28731,2.79899 0.29354,7.51496 -0.17822,8.80463c-3.2508,8.88718 -12.01101,6.2221 -20.94411,7.41859c-10.59144,1.41863 -25.50963,7.17333 -34.97443,7.19262c-4.08559,0.00829 -7.46854,6.80245 -8.08088,2.23052z" fill="#86c8f5" stroke-width="0"/></g></g></svg>