<svg version="1.1" xmlns="http://www.w3.org/2000/svg" xmlns:xlink="http://www.w3.org/1999/xlink" width="468.27027" height="152.88987" viewBox="0,0,468.27027,152.88987"><defs><linearGradient x1="531.74513" y1="235.80959" x2="530.82945" y2="240.5332" gradientUnits="userSpaceOnUse" id="color-1"><stop offset="0" stop-color="#1f1d20"/><stop offset="1" stop-color="#202022"/></linearGradient><linearGradient x1="533.10057" y1="231.12684" x2="532.04702" y2="236.56187" gradientUnits="userSpaceOnUse" id="color-2"><stop offset="0" stop-color="#302d31"/><stop offset="1" stop-color="#1f1e20"/></linearGradient><linearGradient x1="195.28641" y1="214.60639" x2="194.64122" y2="217.93438" gradientUnits="userSpaceOnUse" id="color-3"><stop offset="0" stop-color="#585758"/><stop offset="1" stop-color="#575758"/></linearGradient><linearGradient x1="180.49482" y1="222.00509" x2="179.98833" y2="224.61785" gradientUnits="userSpaceOnUse" id="color-4"><stop offset="0" stop-color="#363536"/><stop offset="1" stop-color="#353536"/></linearGradient><linearGradient x1="338.90206" y1="158.18328" x2="337.84808" y2="163.62058" gradientUnits="userSpaceOnUse" id="color-5"><stop offset="0" stop-color="#5e555b"/><stop offset="1" stop-color="#2b2629"/></linearGradient><linearGradient x1="333.25584" y1="136.03707" x2="332.49538" y2="139.96018" gradientUnits="userSpaceOnUse" id="color-6"><stop offset="0" stop-color="#72676e"/><stop offset="1" stop-color="#5e555b"/></linearGradient><linearGradient x1="219.71845" y1="128.18533" x2="218.59027" y2="134.00504" gradientUnits="userSpaceOnUse" id="color-7"><stop offset="0" stop-color="#5e555b"/><stop offset="1" stop-color="#4d454a"/></linearGradient><linearGradient x1="222.43077" y1="114.19351" x2="221.63867" y2="118.27969" gradientUnits="userSpaceOnUse" id="color-8"><stop offset="0" stop-color="#74686f"/><stop offset="1" stop-color="#5e555b"/></linearGradient></defs><g transform="translate(-68.49465,-112.42098)"><g data-paper-data="{&quot;isPaintingLayer&quot;:true}" fill-rule="nonzero" stroke="none" stroke-linecap="butt" stroke-linejoin="miter" stroke-miterlimit="10" stroke-dasharray="" stroke-dashoffset="0" style="mix-blend-mode: normal"><g><g stroke-width="0"><path d="M258.40516,211.57138l-7.12289,-17.01172l25.22037,4.2878c0,0 -2.18765,5.51324 -2.89747,8.1244c-0.68659,2.52588 -1.29404,7.29514 -1.29404,7.29514z" fill="#7f7d7e"/><path d="M258.46435,211.78322l-2.50605,-6.1971c0,0 1.63891,3.93894 4.6989,5.15832c2.20347,0.87801 4.11416,0.9327 6.68558,1.75791c2.5714,0.82527 4.83441,1.93912 4.83441,1.93912z" fill="#6c6a6b"/></g><g><g><g><path d="M527.89298,239.96399l-1.1057,-5.11552c0,0 5.56654,2.76782 7.94649,4.1386c2.38002,1.37087 0.65341,2.19346 0.65341,2.19346z" fill="url(#color-1)" stroke-width="0"/><path d="M536.58163,232.00502c0,0 1.0096,2.56681 -1.7102,2.94911c-2.71979,0.38227 -5.80252,1.03045 -5.80252,1.03045l0.1007,-5.61977z" data-paper-data="{&quot;index&quot;:null}" fill="url(#color-2)" stroke-width="0"/><path d="M518.45175,238.12913l0.39932,-2.05999l14.50257,2.81135c0,0 1.08346,1.01911 1.49262,1.47151c0.36785,0.40668 -0.90022,0.78072 -0.90022,0.78072z" fill="#444444" stroke-width="NaN"/><path d="M518.85689,236.2163l-0.8351,-1.94841l12.38512,2.40086l3.01952,2.25798c0,0 -4.18606,-0.56906 -6.4521,-0.99057c-2.55561,-0.47545 -8.11742,-1.71985 -8.11742,-1.71985z" fill="#535353" stroke-width="0"/><path d="M517.88563,234.38076l-0.19704,-0.69008l11.26408,2.18351l1.55463,0.83687z" fill="#363636" stroke-width="0"/><path d="M518.45175,238.12913l0.21664,-1.11758c0,0 6.24936,1.67348 9.0765,2.22154c2.39576,0.46441 6.80755,0.85762 6.80755,0.85762c0,0 0.7604,0.61823 0.96455,0.86447c0.17229,0.2077 -0.33416,0.41732 -0.33416,0.41732c0,0 -4.72329,-0.5036 -6.99469,-0.94392c-3.0645,-0.59403 -9.73634,-2.29941 -9.73634,-2.29941z" fill="#3a3a3a" stroke-width="NaN"/><path d="M518.00024,233.76965l-0.37521,-0.97291l13.39233,2.59615l-1.96293,0.55416z" fill="#242424" stroke-width="0"/><path d="M516.79569,232.82876l0.31486,-1.62409c0,0 7.9847,1.33783 10.92565,1.90791c2.00374,0.38846 5.01415,1.18206 5.01415,1.18206l-2.06396,1.11698z" fill="#3a3a3a" stroke-width="0"/><path d="M516.97523,231.22176l0.38873,-2.00526c0,0 7.5762,1.13264 10.82993,1.76336c2.81561,0.54581 7.56871,1.80325 7.56871,1.80325l-2.76269,1.54503c0,0 -3.57243,-0.77654 -5.77584,-1.20366c-2.92886,-0.56774 -10.24877,-1.90274 -10.24877,-1.90274z" fill="#444444" stroke-width="0"/><path d="M517.30539,229.29188l0.16196,-0.83552c0,0 7.75344,1.37702 11.28492,2.06158c2.45902,0.4767 7.87674,1.65294 7.87674,1.65294l-1.01121,0.67085c0,0 -4.90669,-1.24517 -7.81774,-1.80949c-3.2072,-0.6217 -10.49469,-1.74038 -10.49469,-1.74038z" fill="#535353" stroke-width="0"/><path d="M517.32397,228.51527l0.06483,-0.33418c0,0 7.63254,0.96309 11.02965,1.62162c2.93706,0.56935 8.1744,2.10108 8.1744,2.10108l-0.02788,0.34139c0,0 -5.8677,-1.30547 -9.05342,-1.92305c-3.22737,-0.62564 -10.18752,-1.80683 -10.18752,-1.80683z" fill="#4e4e4e" stroke-width="0"/></g><g stroke-width="0"><g><g><g><path d="M512.79784,236.53598l-1.99288,-13.79505l0.87049,-1.58467c0,0 2.79678,3.83146 3.22839,6.45186c0.23432,1.42261 -0.67788,9.20457 -0.67788,9.20457z" fill="#383638"/><path d="M513.96137,236.05724c0,0 0.17336,-0.58745 0.02337,-3.11707c-0.1635,-2.75866 -0.83841,-6.59424 -1.01993,-7.7234c-0.4076,-2.53463 -1.12386,-2.80633 -1.12386,-2.80633l4.82306,0.3423l2.29531,14.27344z" fill="#555355"/><path d="M511.88752,222.50639l-0.33589,-1.32452c0,0 2.13551,-0.40096 3.07951,-0.21791c0.88463,0.17145 1.86078,1.10153 1.86078,1.10153l0.32207,1.39587z" fill="#686668"/></g><path d="M507.22883,235.45648l-1.99288,-13.79504l0.54188,-1.62778c0,0 3.12536,3.87467 3.55694,6.49502c0.23431,1.4226 -0.67787,9.20456 -0.67787,9.20456z" fill="#383638"/><path d="M508.39237,234.97775c0,0 0.17336,-0.58746 0.02338,-3.11706c-0.1635,-2.75866 -0.83841,-6.59424 -1.01993,-7.7234c-0.4076,-2.53463 -1.12386,-2.80633 -1.12386,-2.80633l4.18187,-0.2913c0,0 0.76867,1.4266 0.89291,2.19912c0.35399,2.20111 2.04352,12.70792 2.04352,12.70792z" fill="#555355"/><path d="M506.31848,221.42677l-0.55008,-1.36608c0,0 2.34973,-0.35939 3.2938,-0.17637c0.88463,0.17145 1.57517,1.04622 1.57517,1.04622l0.4448,1.41969z" fill="#686668"/><path d="M514.95391,235.23741c0.15591,-0.80453 0.93464,-1.33028 1.73914,-1.17439c0.80454,0.15592 1.33028,0.93464 1.17439,1.73914c-0.15591,0.80453 -0.93464,1.33028 -1.73913,1.17439c-0.80454,-0.15592 -1.33028,-0.93464 -1.17439,-1.73914z" fill="#312f31"/><path d="M516.15498,232.48643l-0.90731,-5.82564l1.58956,0.16214l0.89506,5.88899z" fill="#444144"/></g><path d="M469.56025,223.09548l-1.63608,-11.34218l29.11235,6.84182l-2.29787,9.38121z" fill="#444444"/><path d="M482.71525,221.65717c0,0 0.72371,-0.39136 1.64301,-1.33863c0.84066,-0.86601 1.86013,-2.2757 2.32601,-2.65776c1.28219,-1.48971 3.52845,-0.57869 3.52845,-0.57869l-1.08591,0.45469l-5.2895,4.33795z" fill="#292929"/><path d="M483.45961,232.5269l-4.30729,-12.01058c0,0 3.3337,1.1874 5.20584,0.48173c1.4548,-0.54841 1.86324,-3.15017 3.46524,-3.12582c4.59625,0.07009 17.318,2.09424 17.318,2.09424c0,0 1.82113,7.63102 2.18201,10.6418c0.24911,2.07851 -0.19037,6.50785 -0.19037,6.50785z" fill="#4a464a"/><path d="M490.01576,220.44529c-4.35638,-1.49234 -2.68236,-2.5572 -2.68236,-2.5572c0,0 1.02605,-1.12753 2.88706,-0.91568c4.56688,0.51995 12.94212,2.73112 14.63786,3.03372c0.79971,0.14266 0.2078,0.74905 0.2078,0.74905c0,0 -1.91627,2.05892 -3.48682,2.0132c-1.57069,-0.04573 -7.20711,-0.83068 -11.56355,-2.32307z" fill="#5e595e"/></g><g><path d="M470.62002,236.73565l-1.65369,-18.58993l18.50772,3.87939l3.88802,5.16264l6.00649,1.06398l0.35971,13.73891z" fill="#4d4846"/><path d="M475.15123,238.0084l22.06602,-5.28883l21.95989,4.01002c0,0 0.49199,4.35609 0.37458,5.71315c-0.05992,0.69188 -0.71244,2.86079 -0.71244,2.86079z" fill="#423d3b"/><path d="M472.98879,229.12346l-1.2476,-10.27129l0.80551,0.15617l1.24761,10.27131z" fill="#363332"/><path d="M475.87865,237.33279l0.23165,-1.1951c0,0 5.65268,-1.49703 14.55189,0.22807c1.18241,0.22923 4.86867,3.53663 6.06042,3.76764c7.56135,1.46578 14.96241,2.9005 17.77813,3.4463c2.29308,0.44451 4.88208,-0.37782 4.88208,-0.37782l-0.47912,2.47141z" fill="#312e2c"/><path d="M480.62975,225.27648l-0.83339,-4.86285l8.15588,1.58104l3.2377,5.13123l6.15431,1.39073l-7.82189,0.46875z" fill="#585350"/><path d="M469.9789,230.36826l0.21471,-1.10757c0,0 8.61122,-2.14397 11.43589,-1.59643c4.2571,0.82523 16.00962,3.10344 16.00962,3.10344l-0.21471,1.10757c0,0 -11.95405,-2.31728 -16.21103,-3.14254c-2.76663,-0.53633 -11.23452,1.63546 -11.23452,1.63546z" fill="#2b2827"/></g></g></g><g><g><g><path d="M133.3448,208.55945c0.10579,2.2961 -0.69082,4.77945 -1.81213,4.83106c-1.12131,0.05166 -2.14281,-2.3479 -2.24859,-4.64401c-0.10579,-2.2961 -0.57001,-11.11598 0.55139,-11.16771c1.12131,-0.05166 3.40361,8.68454 3.50938,10.98061z" fill="#615e5f" stroke-width="0"/><g><path d="M179.87288,187.09288c-0.42906,-0.6206 -2.47717,-2.35446 -2.47717,-2.35446l10.2868,-0.93952l-7.26055,5.92657c0,0 -0.11998,-2.01198 -0.54907,-2.63259z" fill="#756a6a" stroke-width="0"/><path d="M171.33429,183.70884l2.61355,-13.48237l19.31109,-2.23239l-3.73001,19.24182z" fill="#8a7c7c" stroke-width="0"/><path d="M130.99351,181.43721l9.99571,-16.53322l34.32027,6.51726l2.03994,13.29788c0,0 -22.86969,-2.82794 -30.60261,-3.37533c-3.21003,-0.22727 -15.75338,0.09354 -15.75338,0.09354z" fill="#7c787a" stroke-width="0"/><path d="M140.64774,167.2874l0.13653,-1.48259c0,0 25.45045,4.93357 33.45134,6.48454c4.47652,0.86772 17.06537,-3.18081 17.06537,-3.18081l-0.31017,1.59991c0,0 -12.2963,4.08566 -16.62298,3.232c-7.93337,-1.56526 -33.72014,-6.653 -33.72014,-6.653z" fill="#535353" stroke-width="0"/><path d="M99.36557,176.02718l3.83547,-19.78564c0,0 5.79078,-6.06297 13.3395,-6.9383c9.37581,-1.08718 25.61624,3.87927 27.64904,4.27334c1.55991,0.30244 -14.65404,7.7699 -14.65404,7.7699l-3.83547,19.78564z" fill="#8d898b" stroke-width="0"/><path d="M277.9336,163.64088l2.17172,-2.78179l105.57216,20.61071l-2.80633,14.47676c0,0 -37.44139,-5.37815 -49.35967,-8.11237c-5.91896,-1.3579 -55.57789,-24.19331 -55.57789,-24.19331z" fill="#c98cac" stroke-width="0"/><path d="M237.44431,258.67233l-1.99871,-13.5647c0,0 3.93289,6.71057 6.52353,8.30968c1.65058,1.01886 5.72686,2.19786 12.18978,0.9679c5.20293,-0.99013 11.32591,-5.41655 11.32591,-5.41655l-14.29275,12.36868z" fill="#a08e97" stroke-width="0"/><path d="M335.2088,229.83459l2.20011,-23.63466l18.47536,2.15262l-4.03395,20.80961c0,0 -6.60765,0.47021 -9.45511,0.62955c-1.31106,0.07335 -7.18647,0.04288 -7.18647,0.04288z" fill="#96858d" stroke-width="0"/><path d="M234.92742,262l1.05433,-5.4389c0,0 11.44911,4.32644 16.57821,2.14132c2.4962,-1.06344 23.0236,-18.40634 34.3511,-28.05904c4.42054,-3.76693 7.44005,-6.3627 7.44005,-6.3627c0,0 4.016,-3.0649 4.56843,-5.89371c0.27786,-1.42299 1.53448,-5.43589 1.15803,-7.86326c-0.37984,-2.44908 -2.39404,-3.30636 -2.39404,-3.30636l-2.20017,-14.25144l19.42652,3.91214l-7.91337,25.53405l3.20193,3.23024c0,0 -10.52226,4.07206 -16.00971,8.0563c-8.58587,6.23379 -37.33012,31.6122 -37.33012,31.6122z" fill="#918189" stroke-width="0"/><path d="M312.38508,225.76949l6.63493,-27.85014l13.47138,2.89235l7.89016,13.75513l-5.30726,15.60109z" fill="#96858d" stroke-width="0"/><path d="M307.59129,226.72382l-1.67442,-4.54756l8.45839,-25.03779l5.00312,0.8836l-6.10353,27.93571z" fill="#8f8187" stroke-width="0"/><path d="M333.8429,230.03466c0,0 3.97021,-6.02154 3.67197,-11.59093c-0.17173,-3.20679 -4.61805,-6.07512 -4.72333,-8.041c-0.20111,-3.75534 -0.51225,-9.56495 -0.51225,-9.56495l6.88109,5.77914c0,0 1.9711,7.73014 1.74691,12.02754c-0.15056,2.88721 -2.82053,8.86433 -4.22481,11.2394c-0.1184,0.2002 -1.25721,-0.10534 -1.33934,0.04708c-0.20066,0.3725 0.7019,0.78306 0.7019,0.78306z" fill="#86787e" stroke-width="0"/><path d="M338.66426,208.04856c0,0 -2.28169,-4.47085 -6.69375,-6.31584c-4.9949,-2.0887 -21.74469,-5.57614 -21.74469,-5.57614l157.55355,16.09605l1.58288,9.78178l5.65262,12.44588c0,0 -98.46057,-21.70597 -118.67257,-25.62403c-6.59549,-1.27857 -17.67805,-0.80761 -17.67805,-0.80761z" fill="#df8db7" stroke-width="0"/><path d="M178.2671,225.11599l2.19212,-36.5201c0,0 2.36626,-3.36183 2.8993,-3.47815c5.87707,-1.28287 39.35534,-5.64317 44.64072,-4.32694c5.7898,1.44179 -11.32227,10.27522 -11.32227,10.27522c0,0 -14.53203,-0.75343 -17.8321,2.93585c-4.48055,5.00891 -3.02425,22.96784 -3.02425,22.96784z" fill="#c77da3" stroke-width="0"/><path d="M255.05966,209.51617l-1.35611,-2.40735c0,0 8.07698,-7.20109 10.90245,-8.98874c2.91698,-1.84567 6.33353,-1.91685 6.33353,-1.91685l5.38885,3.38964c0,0 -4.29862,-1.34526 -6.94582,-0.11011c-2.27246,1.06022 -6.54191,3.36863 -9.87943,5.87158c-2.42779,1.82066 -4.44345,4.16187 -4.44345,4.16187z" fill="#414041" stroke-width="0"/><path d="M140.53339,166.19947l6.93689,-10.56243l47.73974,9.25437c0,0 -3.69352,3.82246 -7.13027,5.15899c-3.37304,1.31175 -13.30273,2.78716 -13.30273,2.78716z" fill="#979395" stroke-width="0"/><path d="M141.53622,165.22969l6.15151,-10.7147l47.73974,9.25437c0,0 -3.69352,3.82246 -7.13027,5.15899c-3.37304,1.31175 -13.30273,2.78716 -13.30273,2.78716z" fill="#bdb7ba" stroke-width="0"/><path d="M336.14602,230.8078l-1.74097,-0.86062l17.33546,-0.89202c0,0 -3.88681,1.34224 -6.47702,1.65184c-2.5902,0.30966 -9.11747,0.10067 -9.11747,0.10067z" fill="#887980" stroke-width="0"/><path d="M180.61903,226.04508c0,0 -0.30575,-10.71963 0.14,-19.33056c0.44798,-8.65299 0.89303,-16.76325 1.55357,-20.28668c0.11192,-0.59693 3.61978,-10.03246 4.20963,-10.44922c3.18398,-2.24965 9.31061,6.82575 14.98308,6.80129c8.39903,-0.03624 27.25611,3.09554 27.25611,3.09554l-9.30987,3.60486c0,0 -19.63942,-0.88864 -22.96499,3.69953c-4.49816,6.20599 -1.03804,28.13807 -1.03804,28.13807z" fill="#d486ae" stroke-width="0"/><path d="M182.39954,222.80582c0,0 1.2388,-41.39228 4.45916,-51.03258c1.50677,-4.51061 -0.05339,-14.09046 -0.05339,-14.09046l48.41507,16.48371l-1.66034,16.04727c0,0 -30.86802,-9.1346 -38.29639,-4.18378c-4.95869,3.30479 -3.64889,32.32752 -3.64889,32.32752z" fill="#e490bb" stroke-width="0"/><g stroke-width="0"><path d="M330.28198,187.30651l1.5748,-8.12364l9.1889,1.78129l-1.5748,8.12364z" fill="#454545"/><path d="M331.2446,186.71406l1.03864,-7.23264l11.11918,2.15548l-1.38891,7.16474z" fill="#b0b0b0"/><path d="M331.87257,182.26322l0.31425,-2.82205l11.33188,2.19669l-0.36297,1.87253c0,0 -7.71181,-1.16644 -9.40652,-1.35377c-0.56628,-0.06255 -1.87661,0.1067 -1.87661,0.1067z" fill="#bebebe"/><path d="M342.36696,188.31039c0,0 -4.9531,-3.56311 -3.67937,-7.13363c1.89278,-5.30576 5.84776,-4.05212 5.84776,-4.05212l39.25319,8.96745l-1.91463,9.87676z" fill="#9c989a"/><path d="M344.36694,187.38485c0,0 -1.77162,-3.92783 -1.8349,-4.88424c-0.09383,-1.41762 2.42729,-3.94127 2.42729,-3.94127l40.82923,7.94871l-1.81788,7.27564z" fill="#898587"/><path d="M344.2405,187.56227l-0.63186,-2.09795l37.53307,7.27577l-0.36904,1.90392z" fill="#c1bcbf"/><path d="M344.76743,184.20731c0,0 -1.04865,-1.59672 -0.87028,-2.51694c0.16683,-0.86079 1.90832,-2.83793 1.90832,-2.83793l37.96,7.35853l-1.038,5.35488z" fill="#0d0d0d"/><path d="M344.61952,184.97043c0,0 -0.93371,-2.18943 -0.75538,-3.10968c0.16683,-0.86079 1.79336,-2.24513 1.79336,-2.24513l37.96002,7.35855l-1.038,5.35488z" fill="#2e2e2e"/><path d="M339.5195,185.9205c-2.00694,-3.5131 -0.41839,-5.58517 -0.41839,-5.58517c0,0 1.01617,4.38583 2.05829,5.50219c1.23382,1.32163 4.51768,3.34963 4.51768,3.34963l-3.458,-0.59885c0,0 -2.34634,-2.0495 -2.69951,-2.66776z" fill="#7d7a7c"/><path d="M347.11307,185.76925c0,0 -0.45172,-2.34072 -0.23406,-3.46337c0.19129,-0.98688 1.47106,-2.91781 1.47106,-2.91781l4.73515,0.9179c0,0 -0.87213,2.07596 -1.0373,2.9283c-0.2271,1.17152 -0.19962,3.45286 -0.19962,3.45286z" fill="#555555"/><path d="M355.57227,187.4091c0,0 1.13467,-2.35018 1.35222,-3.47274c0.19129,-0.98688 -0.1153,-2.90847 -0.1153,-2.90847l5.28499,1.02448c0,0 -0.73543,1.60442 -0.90066,2.45681c-0.2271,1.17152 -0.33631,3.92437 -0.33631,3.92437z" fill="#555555"/><path d="M364.72851,189.18401c0,0 1.13467,-2.35015 1.35226,-3.47278c0.19129,-0.98688 -0.11531,-2.90846 -0.11531,-2.90846l5.2064,1.00926c0,0 -0.73543,1.60442 -0.90066,2.45681c-0.2271,1.17152 -0.33631,3.92437 -0.33631,3.92437z" fill="#555555"/><path d="M374.21516,191.02305c0,0 1.24152,-1.96722 1.45914,-3.08991c0.19129,-0.98688 -0.22217,-3.29128 -0.22217,-3.29128l5.04933,0.97881c0,0 0.43553,2.10305 0.27025,2.95548c-0.2271,1.17152 -1.50725,3.42581 -1.50725,3.42581z" fill="#555555"/><path d="M347.95482,180.02852l-0.50074,-0.91195l34.91268,6.76785l-1.65848,0.49338c0,0 -2.77836,-0.5386 -5.1956,-1.00714c-0.52687,-0.10219 -1.46136,-0.61816 -2.25054,-0.77115c-0.76306,-0.14796 -1.37337,0.06861 -2.32188,-0.11521c-1.47919,-0.28675 -3.14803,-0.61025 -4.8952,-0.94891c-0.72436,-0.14042 -1.28158,-0.63912 -2.02496,-0.78323c-0.66101,-0.12811 -1.50687,0.09858 -2.1709,-0.03016c-1.64819,-0.31951 -3.28009,-0.63587 -4.81449,-0.93333c-0.70461,-0.13658 -1.30512,-0.69952 -1.96072,-0.82665c-0.80025,-0.15515 -1.64157,0.12828 -2.34272,-0.00762c-2.86023,-0.55442 -4.77656,-0.92593 -4.77656,-0.92593z" fill="#474747"/></g><g><path d="M190.66471,217.85945l4.19489,-2.10764c0,0 2.23761,3.30106 4.84953,4.71905c2.31015,1.25411 10.02806,3.35758 10.02806,3.35758l-3.43519,3.76943z" fill="#6d6a6b" stroke-width="0"/><path d="M181.51597,222.70717l10.46821,-5.49342c0,0 2.7462,2.83091 4.74938,3.89341c3.03048,1.60745 11.66436,4.81281 11.66436,4.81281l-5.01931,3.41453z" fill="#615e5f" stroke-width="0"/><path d="M179.29763,244.65345l2.83962,-22.44281c0,0 4.12389,1.60613 8.85143,2.55271c3.69004,0.73887 7.8251,0.67756 10.14764,1.74747c4.07744,1.87825 34.63943,20.38844 34.63943,20.38844l0.49686,10.46056z" fill="#575455" stroke-width="0"/><path d="M205.6408,222.2148c7.86571,-4.14402 18.3477,-15.81457 20.07244,-18.09954c1.24253,-1.64612 2.92154,-6.69487 2.92154,-6.69487l6.26599,8.15632c0,0 1.84221,21.23542 0.59447,33.87573c-0.34912,3.53687 1.37153,7.88907 -0.07209,9.10303c-1.2935,1.08761 -18.3806,0.10782 -23.53065,-1.66958c-10.83825,-3.74037 -17.05528,-2.10407 -19.72762,-7.9957c-2.67233,-5.89157 5.49192,-10.69594 5.49192,-10.69594c0,0 5.9364,-4.9006 7.98417,-5.97947z" fill="#504e4f" stroke-width="0"/><path d="M216.6055,190.90401c0,0 0.67267,-1.39013 1.64029,-1.87848c1.24446,-0.62795 5.20692,-1.57691 5.20692,-1.57691c0,0 8.8023,3.81219 11.28368,6.82956c2.28944,2.7839 -5.83307,11.68193 -5.83307,11.68193l-0.94955,-5.64523z" fill="#464445" stroke-width="0"/><path d="M230.4276,241.69012c0,0 -10.30509,4.37459 -18.66705,2.9282c-8.06686,-1.39532 -14.20828,-8.58735 -13.83252,-9.96325c0.20354,-0.74551 8.61564,-2.48162 12.83203,-5.96427c4.68691,-3.87128 5.29245,-9.56162 7.00126,-11.27829c4.77042,-4.79241 14.99812,-13.17778 15.10663,-19.3129c0.11377,-6.43406 -10.01322,-10.50969 -10.01322,-10.50969c0,0 4.20934,-1.47758 9.12861,-0.6563c2.09542,0.34986 6.29617,2.57581 7.12932,3.12947c2.73214,1.81546 4.37506,3.80069 4.37506,3.80069c0,0 4.52023,-4.09391 8.11547,-3.71222c3.59516,0.38169 21.51596,6.85817 21.51596,6.85817l-18.31101,9.27885z" fill="#555354" stroke-width="0"/><path d="M217.259,217.9213c0,0 6.60552,-9.79474 12.28376,-14.23008c5.67822,-4.43534 10.28737,-6.78156 13.75515,-6.10931c2.51116,0.48678 4.09972,9.57052 4.09972,9.57052l-16.34953,26.1355c0,0 -14.97795,0.43669 -15.95618,-2.27979c-0.77257,-2.14546 2.16702,-13.08676 2.16702,-13.08676z" fill="#585758" stroke-width="0"/><path d="M234.20686,249.01452c0,0 -1.64735,-6.62566 -0.75191,-9.53055c1.25091,-4.05811 5.07657,-16.20604 5.07657,-16.20604l-0.0651,10.61736c0,0 -2.48377,9.44749 -2.93017,12.44723c-0.43063,2.89427 0.55361,5.2959 0.55361,5.2959z" fill="#3f3e3f" stroke-width="0"/><path d="M236.69507,231.2991c0.12684,-1.6814 1.85632,-9.20058 1.85632,-9.20058c0,0 12.15588,-12.48273 14.71982,-14.68816c0.75166,-0.64653 4.37542,-1.70722 4.37542,-1.70722l-2.53991,4.45191c0,0 -1.66004,0.29343 -1.92746,0.72833c-0.28496,0.46334 0.26686,1.97172 0.26686,1.97172l-6.64891,7.34907c0,0 -1.81278,0.67799 -2.08486,1.13999c-0.27215,0.46216 0.23392,1.46496 0.23392,1.46496c0,0 -5.48551,8.04437 -6.77212,10.25465c-0.59491,1.02197 -0.63676,2.47315 -0.63676,2.47315c0,0 -0.96914,-2.55635 -0.84224,-4.23767z" fill="#474647" stroke-width="0"/><path d="M227.79934,208.21589l19.1067,12.0925c0,0 -1.3599,0.76755 -1.69528,1.25164c-0.24753,0.3572 -0.1349,1.3896 -0.1349,1.3896z" fill="#3f3e3e" stroke-width="NaN"/><path d="M235.65992,199.19399l19.6771,11.00462c0,0 -1.25509,0.61574 -1.56817,1.12172c-0.32633,0.52749 -0.16897,1.65731 -0.16897,1.65731z" fill="#3f3e3e" stroke-width="NaN"/><path d="M217.98921,224.98245c0,0 9.03297,9.58726 13.6661,16.57427c4.6331,6.98704 2.49819,7.80244 2.49819,7.80244z" fill="#636162" stroke-width="NaN"/><path d="M235.42102,204.87582c0,0 -6.44364,1.70901 -9.73191,4.22514c-3.28832,2.5161 -14.54973,16.81725 -13.98914,13.92561c0.56057,-2.8917 17.38584,-20.73698 19.148,-20.39539c0.66705,0.12932 3.86515,-0.41427 4.62347,-0.02537c1.24486,0.63845 -0.05042,2.27003 -0.05042,2.27003z" fill="#918f91" stroke-width="0"/><path d="M178.87437,244.43963l14.04736,0.79962c0,0 12.42895,2.07091 15.47878,2.82006c7.42729,1.82442 29.24683,8.16624 29.24683,8.16624l-1.64177,6.12048c0,0 -24.59428,-1.13577 -31.11233,-3.73944c-1.88564,-0.75323 -7.47837,-2.46694 -11.39907,-4.60432c-7.67252,-4.18278 -14.61982,-9.5626 -14.61982,-9.5626z" fill="#626061" stroke-width="0"/><path d="M235.08594,261.80937c0,0 0.85664,-4.20647 0.86119,-6.58903c0.00514,-2.67788 -0.83196,-8.69608 -0.83196,-8.69608l1.74977,0.33919c0,0 0.83955,4.70251 0.835,7.12677c-0.00509,2.65061 -0.86418,8.15828 -0.86418,8.15828z" fill="#4a494a" stroke-width="0"/><path d="M234.73514,262.59322l0.73318,-3.31827c0,0 0.50602,0.36775 0.77255,0.41944c0.31669,0.06143 0.96263,-0.08302 0.96263,-0.08302l-0.43398,3.15157c0,0 -0.83994,0.25235 -1.21059,0.22149c-0.28405,-0.02366 -0.82374,-0.39117 -0.82374,-0.39117z" fill="#363536" stroke-width="0"/><path d="M235.19008,247.58327l-0.07036,-1.66442c0,0 0.47723,-0.26849 0.85019,-0.25654c0.35526,0.01145 0.84473,0.23138 0.84473,0.23138l0.16203,1.80013c0,0 -0.56959,0.40643 -0.87562,0.3875c-0.28835,-0.01784 -0.91092,-0.498 -0.91092,-0.498z" fill="#585758" stroke-width="0"/><path d="M194.08483,253.42209c0,0 -7.18894,-4.40137 -6.92954,-5.73952c0.2607,-1.34473 6.60669,-1.30718 6.60669,-1.30718c0,0 10.78968,1.84633 15.62328,2.95917c2.70602,0.623 10.90924,3.1493 10.90924,3.1493c0,0 6.95793,2.42265 7.53893,3.70844c0.63379,1.40252 -3.70057,3.45682 -3.70057,3.45682c0,0 -12.73986,-1.1393 -16.59262,-2.09819c-1.36862,-0.34068 -13.45549,-4.12873 -13.45549,-4.12873z" fill="#6b696a" stroke-width="0"/><path d="M185.20497,244.67075l-1.96976,-0.14672c0,0 1.26861,-3.25269 3.70249,-1.51555c2.43386,1.73714 21.25361,4.35516 21.25361,4.35516z" fill="#4b4949" stroke-width="0"/><path d="M178.97343,244.31212c0,0 -1.99778,-0.1921 -1.8298,-3.87012c0.08501,-1.86177 1.07772,-16.12571 1.07772,-16.12571l4.21941,-2.13512c0,0 -0.47132,6.01393 -0.82126,8.90237c-0.46542,3.84161 -1.73978,13.40419 -1.73978,13.40419z" fill="#3f3d3e" stroke-width="0"/><path d="M185.48935,244.89481c0,0 3.54502,-1.5111 19.37209,1.21358c1.30701,0.22504 -1.75626,-0.37308 7.37512,1.91382c9.13144,2.28685 12.68032,4.51566 12.68032,4.51566c0,0 -14.58729,-3.91704 -20.67678,-5.09749c-6.94125,-1.34556 -18.7508,-2.54557 -18.7508,-2.54557z" fill="#838082" stroke-width="0"/><path d="M196.08694,216.76543c0,0 -4.70701,1.31571 -7.14977,2.48782c-2.74562,1.31741 -8.52164,5.03184 -8.52164,5.03184l-0.46535,-1.72163c0,0 4.4272,-3.06717 6.91275,-4.25983c2.71753,-1.30394 8.75866,-3.25981 8.75866,-3.25981z" fill="#4a494a" stroke-width="0"/><path d="M197.0529,216.69008l-3.81577,0.97218c0,0 0.21766,-0.61627 0.14677,-0.87847c-0.08425,-0.31163 -0.53226,-0.81402 -0.53226,-0.81402l3.43002,-1.17036c0,0 0.64874,0.62149 0.78924,0.96605c0.10774,0.26399 -0.01802,0.92477 -0.01802,0.92477z" fill="url(#color-3)" stroke-width="0"/><path d="M181.46542,223.69579l-3.41657,2.11829l0.27415,-2.17013l2.4256,-1.58962c0,0 0.68102,0.30531 0.80375,0.58657c0.11572,0.26496 -0.08701,1.05492 -0.08701,1.05492z" fill="url(#color-4)" stroke-width="0"/></g><path d="M313.72137,224.91164c0,0 1.75135,-4.16146 2.50983,-5.42942c0.51494,-0.86072 3.11734,-1.81456 3.11734,-1.81456l16.74989,3.02472c0,0 -2.35718,5.44873 -2.99128,6.71755c-0.27783,0.55581 -1.45613,1.0329 -1.45613,1.0329z" fill="#665b60" stroke-width="0"/><path d="M269.47004,197.73707c0,0 -3.42754,-2.25596 -8.04665,-4.32513c-2.93638,-1.31535 -7.02048,-2.68439 -8.86761,-2.93468c-5.37021,-0.72778 -8.81469,3.80443 -8.81469,3.80443c0,0 -2.77277,-2.89636 -4.67919,-4.13656c-1.77965,-1.15764 -5.86267,-2.96871 -5.86267,-2.96871c0,0 25.07953,-0.32435 28.97072,-0.16103c7.45969,0.31322 33.57885,5.77509 33.57885,5.77509l3.39151,15.20908z" fill="#8b7c84" stroke-width="0"/><g stroke-width="0"><path d="M315.32886,224.26295c0,0 0.95698,-2.45904 1.53017,-3.25938c0.59422,-0.82982 2.93839,-1.44745 2.93839,-1.44745l14.26451,2.76511c0,0 0.19216,1.03849 -0.17928,1.71803c-0.50508,0.92388 -3.75376,3.09268 -3.75376,3.09268z" fill="#585852"/><path d="M315.4707,223.53125c0,0 0.81512,-1.72737 1.38834,-2.52766c0.59422,-0.82982 3.08026,-2.17916 3.08026,-2.17916l14.2645,2.76512c0,0 0.05038,1.77027 -0.32115,2.44977c-0.50508,0.92388 -3.61191,2.36083 -3.61191,2.36083z" fill="#797971"/><path d="M332.3775,221.74036c-0.99586,-0.37431 -12.35438,-2.85258 -12.35438,-2.85258l14.24496,2.76139l-0.46852,2.41685c0,0 -0.42627,-1.95133 -1.42215,-2.32569z" fill="#85857b"/></g><path d="M320.19154,206.69927l0.98767,-5.09488l7.00557,1.35802l0.28608,5.34183z" fill="#7c6e75" stroke-width="0"/><path d="M314.98659,178.77483l-2.55292,-8.77751l1.35411,0.26253l4.36709,9.58921z" fill="#d495b6" stroke-width="0"/><path d="M278.14768,163.86253l13.56546,-0.51751l20.91084,6.71471l2.38982,8.70619z" fill="#df9cbe" stroke-width="0"/><path d="M319.39396,211.6658l0.30865,-1.59216l10.66746,2.06791l0.64668,1.77736z" fill="#7c6e75" stroke-width="0"/><path d="M281.87649,192.0126c0,0 -18.03029,-2.27449 -23.65527,-2.85537c-8.51749,-0.8797 -25.71831,-1.84553 -25.71831,-1.84553c0,0 15.59422,-1.50036 29.14332,-0.4182c14.69063,1.17337 58.21251,8.12554 58.21251,8.12554l-1.02941,5.31024z" fill="#75686e" stroke-width="0"/><path d="M273.41545,199.30614l-3.07533,-1.17759c0,0 10.04565,-0.48145 15.1425,1.2836c5.0968,1.765 13.2315,8.54227 13.2315,8.54227z" fill="#7c6e76" stroke-width="0"/><path d="M228.57533,186.50866c0,0 -28.83582,-21.27287 -28.83183,-25.97827c0.00371,-4.27418 28.82996,7.98034 29.14287,7.93077c5.4754,-0.8677 77.41773,5.72913 77.41773,5.72913l24.83038,11.72914l51.9064,9.47999l4.59121,14.71818c0,0 -60.6565,-10.56769 -84.0195,-14.93051c-8.10993,-1.51448 -24.5113,-5.35365 -39.75258,-7.14666c-11.75661,-1.38305 -29.94115,-0.51119 -29.94115,-0.51119z" fill="#ee96c3" stroke-width="0"/><path d="M99.41662,174.24804l7.10158,-19.15251c0,0 1.24276,-6.94453 8.79161,-7.81993c9.37581,-1.08718 25.61625,3.8793 27.64906,4.27333c1.55991,0.30244 -14.65405,7.7699 -14.65405,7.7699l-3.83546,19.78565z" fill="#c4b4b3" stroke-width="0"/><g stroke-width="0"><path d="M378.91101,209.83484l0.07686,-15.40986l89.77423,24.29321l-1.84802,5.55679l-47.48615,-4.25764z" fill="#ad6d8e"/><path d="M407.50319,200.77424l8.71419,-6.73744l26.69057,3.00533l-6.2059,9.39242z" fill="#8d788b"/><path d="M382.27151,197.09394l3.08971,-15.9386l30.92435,12.89894l-5.80224,5.87216z" fill="#857183"/><path d="M424.54702,201.9063l18.29921,-4.87488l26.61481,9.0022l-1.59282,6.71353z" fill="#947e92"/><path d="M378.29443,195.70308l5.27019,-11.98194l2.00343,-2.73244l-2.86674,14.78854z" fill="#756474"/><path d="M380.77864,206.92261l1.58943,-11.98934l42.83606,6.62427l-4.25943,15.53025z" fill="#746373"/><path d="M420.94003,217.07118c0,0 1.57338,-6.11986 2.30979,-8.87422c0.63048,-2.35825 1.84023,-6.64876 1.84023,-6.64876l43.21926,9.30411l0.36487,8.62714z" fill="#867284"/><path d="M378.34757,195.64166l4.2453,-0.73647l-1.7862,12.03064z" fill="#6f5e6d"/><path d="M462.3981,204.55481l-18.81589,-7.07372l25.54678,8.65633l-1.03174,3.41144c0,0 -0.00918,-1.60026 -1.06129,-2.5222c-0.7038,-0.6167 -4.63791,-2.47189 -4.63791,-2.47189z" fill="#978195"/><path d="M423.02716,200.94991c0,0 8.48837,-1.88427 11.47348,-2.68493c2.17449,-0.58319 4.78886,-1.67669 4.78886,-1.67669l2.4661,0.59274l-16.12825,4.27292z" fill="#9c859a"/><path d="M408.75533,199.00661c0,0 1.8161,-2.45144 3.3987,-3.52015c1.58257,-1.06863 4.00379,-1.42969 4.00379,-1.42969l-4.9859,5.41822z" fill="#806b7d"/><path d="M444.72666,195.6177l3.18544,-5.22264l14.21173,6.5578l4.27972,7.34876z" fill="#55494f"/><path d="M441.70672,197.88449c0,0 1.21304,-0.56974 1.87448,-1.03717c0.49822,-0.35205 1.43712,-1.58044 1.43712,-1.58044l21.1447,8.17336c0,0 0.75741,0.65304 1.27094,1.0843c0.53673,0.4507 1.88267,1.56421 1.88267,1.56421z" fill="#685960"/><path d="M445.44741,194.8486l2.50084,-4.18592l13.25472,5.95822c0,0 -7.5687,-3.02843 -12.01632,-3.6312c-2.5799,-0.34968 -3.73914,1.85892 -3.73914,1.85892z" fill="#41383c"/></g><path d="M108.50134,135.99768l0.99121,-5.11314c0,0 22.17477,2.9794 43.72076,7.21414c12.83944,2.5235 25.85727,6.67443 32.71864,7.64791c15.47096,2.19489 26.60717,-0.24251 26.60717,-0.24251l-8.25022,9.24195z" fill="#ffa1d1" stroke-width="0"/><path d="M103.31426,149.20958l5.18152,-15.37755c0,0 53.40272,12.45103 71.0076,15.41482c10.42838,1.75565 24.88812,0.72952 24.88812,0.72952l-2.7866,14.37476c0,0 -66.26741,-12.84597 -82.24241,-15.94274c-6.56832,-1.27328 -21.16454,27.19407 -21.16454,27.19407z" fill="#ee96c3" stroke-width="0"/><path d="M264.69144,258.40876l11.69788,-11.58133c0,0 12.75511,-13.67986 23.28968,-18.62822c2.67704,-1.25748 7.97979,-1.4483 7.97979,-1.4483c0,0 -8.11908,3.50402 -11.19773,5.75061c-7.27037,5.3055 -31.76952,25.90728 -31.76952,25.90728z" fill="#70646b" stroke-width="0"/><path d="M371.28496,213.02431l-2.75963,-18.87188l1.32545,0.25692c0,0 0.83577,5.71541 1.27735,8.73538c0.06295,0.43029 1.17055,1.88884 1.24854,2.42181c0.1351,0.92389 -0.74804,1.00078 -0.59706,2.03342c0.42049,2.87545 0.83076,5.68116 0.83076,5.68116z" fill="#795467" stroke-width="0"/><path d="M202.14355,164.8955c0,0 -9.04351,-8.42741 -7.65817,-12.00408c0.82947,-2.14153 18.87756,-6.74302 18.87756,-6.74302l66.93179,14.67801l-2.19597,2.72808l28.10947,10.79513l-75.54136,12.42616c0,0 0.29145,-5.66175 4.37185,-7.7822c3.96563,-2.06076 19.77619,-4.76635 19.77619,-4.76635c0,0 -33.58272,-6.55991 -40.72394,-8.03253c-2.38248,-0.49129 -11.94757,-1.29922 -11.94757,-1.29922z" fill="#f399c8" stroke-width="0"/><g><path d="M211.23276,147.69545l0.6163,-3.17918l173.32702,33.5996l-0.6163,3.17918z" fill="#584f54" stroke-width="0"/><path d="M379.43842,177.25643l0.52072,-2.68629l2.99943,0.58144l2.12578,3.19934z" fill="#685d63" stroke-width="0"/><g fill="#685d63" stroke-width="0"><g><g><g><path d="M372.85271,176.23355l0.56655,-2.92259l3.81019,0.73857l-0.56655,2.92259z"/><path d="M366.67024,175.03517l0.56655,-2.92259l3.8102,0.73858l-0.56655,2.92259z"/></g><g><path d="M360.7211,173.88187l0.56654,-2.9226l3.8102,0.73858l-0.56655,2.92259z"/><path d="M354.53861,172.68342l0.56655,-2.92259l3.81019,0.73858l-0.56654,2.9226z"/></g></g><g><g><path d="M348.47287,171.5076l0.56654,-2.9226l3.81019,0.73858l-0.56655,2.92259z"/><path d="M342.29039,170.30912l0.56655,-2.92259l3.81019,0.73857l-0.56654,2.9226z"/></g><g><path d="M336.34122,169.15582l0.56655,-2.92259l3.81019,0.73858l-0.56655,2.92259z"/><path d="M330.15887,167.95739l0.56655,-2.92259l3.81017,0.73859l-0.56654,2.9226z"/></g></g></g><g><g><g><path d="M329.92557,167.91216l0.56655,-2.92259l3.81019,0.73858l-0.56655,2.92259z"/><path d="M323.74314,166.71369l0.56655,-2.92259l3.8102,0.73858l-0.56655,2.92259z"/></g><g><path d="M317.79401,165.56045l0.56654,-2.9226l3.81019,0.73858l-0.56655,2.92259z"/><path d="M311.61151,164.36194l0.56655,-2.92259l3.81017,0.73859l-0.56654,2.9226z"/></g></g><g><g><path d="M305.54578,163.18613l0.56654,-2.9226l3.8102,0.73858l-0.56655,2.92259z"/><path d="M299.36335,161.98763l0.56655,-2.92259l3.8102,0.73858l-0.56654,2.9226z"/></g><g><path d="M293.41422,160.83442l0.56655,-2.92259l3.81019,0.73857l-0.56654,2.9226z"/><path d="M287.23175,159.63592l0.56655,-2.92259l3.8102,0.73858l-0.56655,2.92259z"/></g></g></g></g><g><g fill="#685d63" stroke-width="0"><g><g><path d="M281.12629,158.45237l0.56654,-2.9226l3.8102,0.73858l-0.56655,2.92259z"/><path d="M274.94388,157.25389l0.56655,-2.92259l3.8102,0.73858l-0.56654,2.9226z"/></g><g><path d="M268.9947,156.10072l0.56655,-2.92259l3.8102,0.73858l-0.56654,2.9226z"/><path d="M262.81232,154.90221l0.56655,-2.92259l3.81019,0.73857l-0.56654,2.9226z"/></g></g><g><g><path d="M256.74653,153.72631l0.56654,-2.9226l3.8102,0.73858l-0.56655,2.92259z"/><path d="M250.56405,152.52782l0.56655,-2.92259l3.8102,0.73858l-0.56654,2.9226z"/></g><g><path d="M244.61485,151.37466l0.56655,-2.92259l3.8102,0.73858l-0.56654,2.9226z"/><path d="M238.43242,150.17618l0.56655,-2.92259l3.81019,0.73857l-0.56655,2.92259z"/></g></g></g><g><g fill="#685d63" stroke-width="0"><g><path d="M238.19918,150.13093l0.56654,-2.9226l3.8102,0.73858l-0.56655,2.92259z"/><path d="M232.01672,148.93243l0.56655,-2.92259l3.81019,0.73857l-0.56654,2.9226z"/></g><g><path d="M226.0676,147.77921l0.56655,-2.92259l3.81019,0.73857l-0.56654,2.9226z"/><path d="M219.88514,146.58072l0.56655,-2.92259l3.81019,0.73857l-0.56655,2.92259z"/></g></g><g fill="none" stroke-width="1" font-family="sans-serif" font-weight="normal" font-size="12" text-anchor="start"><g/><g/></g></g></g><path d="M211.87204,144.77358l3.16729,-2.17327l2.99943,0.58144l-0.52072,2.68629z" data-paper-data="{&quot;index&quot;:null}" fill="#685d63" stroke-width="0"/></g><path d="M261.48444,187.8896l-2.55661,-0.22052c0,0 2.13686,-2.20109 11.77127,-1.48216c7.30432,0.54506 27.74138,3.17093 39.96863,4.78156c5.67804,0.74793 62.86035,2.66325 62.86035,2.66325l5.10652,0.97535c0,0 -62.61358,-1.29479 -68.28304,-2.06474c-12.53672,-1.70252 -33.62314,-4.52991 -39.76951,-5.1321c-3.34578,-0.32782 -9.09763,0.47944 -9.09763,0.47944z" fill="#70475c" stroke-width="0"/><path d="M356.92955,225.77358l-5.18508,0.87502l3.6035,-18.58528c0,0 7.63987,1.5303 15.11147,3.02686c21.44884,4.29627 124.53334,24.94448 124.53334,24.94448l-1.28023,6.60433z" fill="#5a5959" stroke-width="0"/><path d="M355.72125,227.1981l1.64306,-2.74351l136.38095,18.07922l-13.74362,8.75609z" fill="#4b4a4a" stroke-width="0"/><path d="M476.81194,250.47897c0,0 -5.18462,-4.28984 -7.88988,-6.26895c-1.4498,-1.06062 -7.08002,-4.68261 -7.08002,-4.68261c0,0 7.30261,4.37338 10.4057,5.94054c1.10744,0.55937 2.06918,1.50234 3.24885,2.26897c0.38041,0.24715 2.69558,-2.11453 4.8861,-3.4362c0.65472,-0.39505 1.72436,0.18364 2.30312,-0.04113c1.32671,-0.51528 1.8869,-1.51846 1.8869,-1.51846c0,0 0.15442,0.97683 -1.27329,1.9364c-0.38949,0.26185 -2.22654,0.26463 -2.61465,0.55645c-1.55534,1.16966 -2.84313,2.5489 -3.25514,3.07119c-1.14989,1.45765 0.81899,2.45213 0.81899,2.45213z" fill="#414040" stroke-width="0"/><path d="M202.03889,165.17813l5.85764,-10.16991l6.99688,0.72042c0,0 -1.43727,2.41889 -2.28429,3.8445c-0.21337,0.35904 11.73751,0.6832 11.95536,1.40891c0.40424,1.34653 -5.78151,3.97725 -6.31425,4.87385c-0.60906,1.02499 -9.22976,-0.24295 -9.22976,-0.24295z" fill="#303030" stroke-width="0"/><path d="M201.96839,164.78749l5.59616,-9.3699c0,0 2.69711,1.85175 2.50965,2.81865c-0.34104,1.75944 -2.99257,7.14027 -2.99257,7.14027z" fill="#252525" stroke-width="0"/><path d="M351.22127,229.25233l0.56186,-2.89841l5.98472,-1.84724l-1.77736,2.66279c0,0 -1.32455,1.10335 -2.16335,1.46966c-0.73809,0.32237 -2.60585,0.61312 -2.60585,0.61312z" fill="#383838" stroke-width="0"/><g><g fill="#4b4b4b" stroke-width="0"><g data-paper-data="{&quot;origPos&quot;:null}"><g data-paper-data="{&quot;origPos&quot;:null}"><path d="M416.87459,243.37576l0.43251,-2.23121l3.68148,0.71366l-0.43251,2.23121z" data-paper-data="{&quot;origPos&quot;:null}"/><path d="M410.76041,242.07477l0.43251,-2.23121l3.68147,0.71366l-0.43252,2.23121z" data-paper-data="{&quot;origPos&quot;:null}"/></g><g data-paper-data="{&quot;origPos&quot;:null}"><path d="M429.1245,245.8662l0.43251,-2.23121l3.68148,0.71366l-0.43252,2.23121z" data-paper-data="{&quot;origPos&quot;:null}"/><path d="M423.0103,244.56518l0.43252,-2.23121l3.68147,0.71366l-0.43251,2.23121z" data-paper-data="{&quot;origPos&quot;:null}"/></g></g><g data-paper-data="{&quot;origPos&quot;:null,&quot;index&quot;:null}"><g data-paper-data="{&quot;origPos&quot;:null}"><path d="M448.02132,249.29789l0.43251,-2.23121l3.68148,0.71366l-0.43252,2.23121z" data-paper-data="{&quot;origPos&quot;:null}"/><path d="M454.1787,250.37569l0.4325,-2.2312l3.68148,0.71366l-0.43249,2.23119z" data-paper-data="{&quot;origPos&quot;:null}"/></g><g data-paper-data="{&quot;origPos&quot;:null}"><path d="M435.72817,247.03058l0.43251,-2.23121l3.68147,0.71366l-0.4325,2.2312z" data-paper-data="{&quot;origPos&quot;:null}"/><path d="M441.88557,248.10847l0.43252,-2.23121l3.68148,0.71366l-0.43252,2.23121z" data-paper-data="{&quot;origPos&quot;:null}"/></g></g></g><path d="M376.50266,227.15099l2.59031,-13.36242l82.93021,16.07605l-2.59031,13.36242z" data-paper-data="{&quot;origPos&quot;:null}" fill="#444444" stroke-width="0"/><path d="M375.70073,231.8057l0.91016,-4.69503l82.68646,16.02879l-0.91018,4.69504z" data-paper-data="{&quot;origPos&quot;:null}" fill="#414141" stroke-width="0"/><path d="M375.46386,233.21053l0.30786,-1.5881l82.67596,16.02676l-0.30785,1.58809z" data-paper-data="{&quot;origPos&quot;:null}" fill="#3f3f3f" stroke-width="0"/><g stroke-width="0"><g data-paper-data="{&quot;origPos&quot;:null}" fill="#5a5a5a"><g data-paper-data="{&quot;origPos&quot;:null}"><path d="M418.96844,235.46393l2.61674,-13.49869l3.50611,0.67967l-2.61674,13.49869z" data-paper-data="{&quot;origPos&quot;:null}"/></g><g data-paper-data="{&quot;origPos&quot;:null}"><path d="M424.92893,236.61936l2.61674,-13.49869l3.50613,0.67968l-2.61674,13.49869z" data-paper-data="{&quot;origPos&quot;:null}"/><path d="M431.06469,237.80877l2.61675,-13.49871l3.50611,0.67967l-2.61674,13.49869z" data-paper-data="{&quot;origPos&quot;:null}"/></g></g><g data-paper-data="{&quot;origPos&quot;:null}" fill="#5a5a5a"><g data-paper-data="{&quot;origPos&quot;:null}"><path d="M437.55109,239.0662l2.61674,-13.49869l3.50611,0.67967l-2.61674,13.4987z" data-paper-data="{&quot;origPos&quot;:null}"/><path d="M443.68686,240.25563l2.61674,-13.49869l3.50613,0.67968l-2.61675,13.49871z" data-paper-data="{&quot;origPos&quot;:null}"/></g><g data-paper-data="{&quot;origPos&quot;:null}"><path d="M449.64731,241.41102l2.61675,-13.49871l3.50611,0.67967l-2.61675,13.49871z" data-paper-data="{&quot;origPos&quot;:null}"/><path d="M455.78312,242.60045l2.61675,-13.49871l3.50611,0.67967l-2.61674,13.49869z" data-paper-data="{&quot;origPos&quot;:null}"/></g></g><path d="M422.53481,236.15528l-1.23023,1.72845l-5.15378,-0.95516l1.72755,-9.64399l3.64902,-5.33066l-2.54903,13.51182z" fill="#3a3a3a"/><path d="M428.49288,237.31023l-1.23023,1.72846l-5.15379,-0.95516l1.72756,-9.644l3.64903,-5.33064l-2.54902,13.51182z" fill="#3a3a3a"/><path d="M434.58632,238.49148l-1.23023,1.72846l-5.15379,-0.95515l1.72755,-9.64399l3.64903,-5.33064l-2.54903,13.51182z" fill="#3a3a3a"/><path d="M441.15376,239.76456l-1.23023,1.72846l-5.15379,-0.95515l1.72755,-9.64399l3.64903,-5.33064l-2.54903,13.51182z" fill="#3a3a3a"/><path d="M447.31495,240.95895l-1.23023,1.72846l-5.15379,-0.95515l1.72755,-9.64399l3.64903,-5.33064l-2.54902,13.51182z" fill="#3a3a3a"/><path d="M453.20528,242.10073l-1.23023,1.72845l-5.15378,-0.95516l1.72755,-9.64399l3.64903,-5.33064l-2.54903,13.51182z" fill="#3a3a3a"/><path d="M459.3742,243.29656l-1.23023,1.72845l-5.15379,-0.95515l1.72756,-9.644l3.64902,-5.33066l-2.54903,13.51182z" fill="#3a3a3a"/></g><g stroke-width="0"><g data-paper-data="{&quot;origPos&quot;:null}" fill="#5a5a5a"><g data-paper-data="{&quot;origPos&quot;:null}"><path d="M376.52942,227.23706l2.61675,-13.49871l3.50613,0.67968l-2.61674,13.49869z" data-paper-data="{&quot;origPos&quot;:null}"/></g><g data-paper-data="{&quot;origPos&quot;:null}"><path d="M382.48984,228.39258l2.61674,-13.49869l3.50611,0.67967l-2.61674,13.49869z" data-paper-data="{&quot;origPos&quot;:null}"/><path d="M388.62565,229.58197l2.61674,-13.49869l3.50613,0.67968l-2.61675,13.49871z" data-paper-data="{&quot;origPos&quot;:null}"/></g></g><g data-paper-data="{&quot;origPos&quot;:null}" fill="#5a5a5a"><g data-paper-data="{&quot;origPos&quot;:null}"><path d="M395.11203,230.83931l2.61675,-13.49871l3.50612,0.67968l-2.61674,13.49869z" data-paper-data="{&quot;origPos&quot;:null}"/><path d="M401.24786,232.02875l2.61674,-13.49869l3.50613,0.67968l-2.61675,13.49871z" data-paper-data="{&quot;origPos&quot;:null}"/></g><g data-paper-data="{&quot;origPos&quot;:null}"><path d="M407.20837,233.1842l2.61674,-13.49869l3.50613,0.67968l-2.61675,13.49871z" data-paper-data="{&quot;origPos&quot;:null}"/><path d="M413.34416,234.37368l2.61675,-13.49871l3.50613,0.67968l-2.61674,13.4987z" data-paper-data="{&quot;origPos&quot;:null}"/></g></g><path d="M380.09573,227.92843l-1.23023,1.72846l-2.68808,-0.47722l0.36181,-1.94075z" fill="#3a3a3a"/><path d="M386.05387,229.08342l-1.23023,1.72846l-5.15379,-0.95515l1.72756,-9.644l3.64903,-5.33064l-2.54903,13.51182z" fill="#3a3a3a"/><path d="M392.14728,230.26462l-1.23023,1.72845l-5.15379,-0.95515l1.72755,-9.64399l3.64902,-5.33066l-2.54903,13.51182z" fill="#3a3a3a"/><path d="M398.71467,231.53765l-1.23023,1.72845l-5.15379,-0.95515l1.72756,-9.644l3.64903,-5.33064l-2.54903,13.51182z" fill="#3a3a3a"/><path d="M404.87592,232.73205l-1.23023,1.72845l-5.15378,-0.95516l1.72755,-9.64399l3.64903,-5.33064l-2.54903,13.51182z" fill="#3a3a3a"/><path d="M410.76622,233.87392l-1.23023,1.72845l-5.15378,-0.95516l1.72755,-9.64399l3.64902,-5.33066l-2.54903,13.51182z" fill="#3a3a3a"/><path d="M416.9352,235.06983l-1.23023,1.72846l-5.15378,-0.95516l1.72755,-9.64399l3.64903,-5.33064l-2.54903,13.51182z" fill="#3a3a3a"/></g><g><g data-paper-data="{&quot;origPos&quot;:null}"><g data-paper-data="{&quot;origPos&quot;:null}" fill="none" stroke-width="1" font-family="sans-serif" font-weight="normal" font-size="12" text-anchor="start"/><g data-paper-data="{&quot;origPos&quot;:null}" fill="#4b4b4b" stroke-width="0"><path d="M381.26476,236.66692l0.43251,-2.23121l3.68147,0.71366l-0.4325,2.2312z" data-paper-data="{&quot;origPos&quot;:null}"/><path d="M375.15057,235.36598l0.43251,-2.23121l3.68147,0.71366l-0.43251,2.23121z" data-paper-data="{&quot;origPos&quot;:null}"/></g></g><g data-paper-data="{&quot;origPos&quot;:null,&quot;index&quot;:null}" fill="#4b4b4b" stroke-width="0"><g data-paper-data="{&quot;origPos&quot;:null}"><path d="M400.16164,240.09854l0.43252,-2.23121l3.68148,0.71366l-0.43252,2.23121z" data-paper-data="{&quot;origPos&quot;:null}"/><path d="M406.31898,241.17642l0.43249,-2.23119l3.68148,0.71366l-0.43252,2.23121z" data-paper-data="{&quot;origPos&quot;:null}"/></g><g data-paper-data="{&quot;origPos&quot;:null}"><path d="M387.8683,237.83126l0.43251,-2.23121l3.68148,0.71366l-0.43252,2.23121z" data-paper-data="{&quot;origPos&quot;:null}"/><path d="M394.02576,238.90909l0.43251,-2.23121l3.68148,0.71366l-0.43251,2.23121z" data-paper-data="{&quot;origPos&quot;:null}"/></g></g></g></g><path d="M214.79055,166.02642l1.82284,-3.94022c0,0 5.12575,-2.21249 8.62091,-1.68768c3.99567,0.59988 33.41212,6.32769 33.41212,6.32769c0,0 0.29293,1.96743 0.0094,3.15232c-0.3654,1.52661 -3.02601,4.13248 -3.02601,4.13248z" fill="#242424" stroke-width="0"/><path d="M239.94668,167.02198l0.59952,-3.09274l17.67282,3.42586l-0.59952,3.09274z" fill="#313131" stroke-width="0"/><path d="M236.34564,168.2905l0.12411,-0.64037c0,0 1.24834,-0.82872 2.2528,-0.63402c0.95375,0.18491 3.01135,1.06752 5.38735,1.69452c4.52622,1.19442 10.03246,2.36534 10.03246,2.36534l-0.12411,0.64037c0,0 -5.3287,-1.035 -9.79109,-2.21657c-2.43485,-0.6447 -4.55335,-1.63491 -5.5427,-1.82668c-1.03994,-0.20159 -2.33871,0.61733 -2.33871,0.61733z" fill="#616161" stroke-width="0"/><path d="M265.97283,158.03037l11.88528,5.38693l29.27649,11.08219c0,0 0.6771,0.35963 -7.13489,-1.89656c-2.6575,-0.76749 -12.7952,-4.37171 -21.48736,-7.9949c-2.35196,-0.9804 -14.78757,-6.89594 -14.78757,-6.89594z" fill="#df8cb7" stroke-width="0"/><path d="M86.98912,129.78849l1.12911,-5.82467c0,0 5.99827,-0.62281 9.73256,0.10111c3.05713,0.59259 10.71736,5.64881 10.71736,5.64881l-2.46756,12.02084z" fill="#626061" stroke-width="0"/><path d="M199.02728,161.67881l3.25003,3.18269l12.27516,1.03173l49.81757,9.6572l-0.20757,1.07106c0,0 -37.34285,-7.38689 -49.0787,-9.39478c-3.22207,-0.55124 -12.88135,-1.68948 -12.88135,-1.68948z" fill="#ffa6d4" stroke-width="0"/><path d="M71.99291,192.00189l1.36442,-7.03853l26.16438,-11.86785l-4.1792,13.11322l-15.54605,7.30596z" fill="#3f3d3e" stroke-width="0"/><path d="M71.35561,186.72395c0,0 3.92406,-19.25699 6.53879,-28.51188c2.95112,-10.44552 10.28125,-31.02272 10.28125,-31.02272c0,0 8.49317,1.45355 11.69653,3.75097c2.74167,1.96626 6.35509,9.19543 6.35509,9.19543l-6.38513,32.93837c0,0 -14.24695,11.19136 -17.66617,12.82971c-5.25926,2.52007 -10.82035,0.82012 -10.82035,0.82012z" fill="#555354" stroke-width="0"/><path d="M86.01069,137.56542c0,0 -0.3715,-6.17648 2.17017,-8.4312c2.54167,-2.25474 7.00528,-2.4253 9.51877,-1.93805c2.00513,0.38871 6.13956,1.27033 8.11188,6.19422c1.97239,4.92383 -1.18148,11.10668 -1.18148,11.10668c0,0 -4.20475,-11.41242 -6.63345,-12.31662c-3.42715,-1.27582 -11.98589,5.38502 -11.98589,5.38502z" fill="#6f6b6c" stroke-width="0"/><path d="M69.00199,191.23026c0,0 6.64315,-25.25994 8.82097,-36.49463c2.26803,-11.69998 6.00056,-32.08058 6.00056,-32.08058c0,0 1.25739,-0.41119 2.27923,-0.21307c0.93432,0.18112 2.35019,1.11051 2.35019,1.11051c0,0 -3.85586,18.76437 -5.89107,29.26376c-2.36468,12.19838 -10.19275,39.06664 -10.19275,39.06664z" fill="#333232" stroke-width="0"/><path d="M68.49465,191.58384l3.87328,-14.23118c0,0 0.86674,1.07343 1.46254,1.14958c0.75235,0.09617 2.67229,-0.996 2.67229,-0.996l-4.11157,14.83298z" fill="#2e2d2d" stroke-width="0"/><path d="M100.6865,160.88936c-1.55382,8.01539 -7.2522,15.74009 -12.09483,17.78326c-4.02191,1.69697 -12.66961,6.90424 -11.11578,-1.11113c0.3296,-1.70042 4.59709,-12.97366 6.06103,-19.85061c1.93599,-9.09457 1.26827,-14.29767 2.74744,-16.89528c2.67467,-4.69685 8.37856,-5.0982 10.55262,-4.67673c4.28552,0.83076 5.40338,16.73511 3.84955,24.75053z" fill="#585758" stroke-width="0"/><path d="M131.83832,181.27333l-0.25048,-1.82173c0,0 8.05163,0.18512 14.05177,0.85506c8.44683,0.94316 31.84873,4.27011 31.84873,4.27011l1.51933,1.59958c0,0 -24.96011,-3.18798 -33.66072,-4.09239c-2.55525,-0.26562 -13.5086,-0.81067 -13.5086,-0.81067z" fill="#585657" stroke-width="0"/><path d="M123.54353,193.11166l7.70046,-12.4535l7.29086,0.44496c0,0 -2.52721,3.90389 -2.58623,4.66167c-0.28192,3.62086 -1.90091,27.7202 -1.90091,27.7202c0,0 -1.53425,0.15117 -2.34502,-1.91645c-1.45467,-3.70994 -1.95074,-10.79584 -3.27065,-13.19348c-1.1404,-2.0716 -4.88864,-5.26339 -4.88864,-5.26339z" fill="#5a5759" stroke-width="0"/><path d="M141.7062,165.25502l4.99296,-10.57636l2.3118,0.33495l-6.12604,10.58317z" fill="#a5a0a2" stroke-width="0"/><path d="M148.57799,165.48346l0.26696,-1.37707l26.012,5.04242l-0.26695,1.37707z" fill="#494748" stroke-width="0"/><path d="M149.06435,162.55113l0.26696,-1.37707l26.012,5.04242l-0.26696,1.37707z" fill="#494748" stroke-width="0"/><path d="M125.72169,180.85097l3.83248,-19.77029l13.85358,-7.10975l4.81538,0.61595l-24.12608,38.93366l-5.12742,-3.03463z" fill="#dbd5d8" stroke-width="0"/><path d="M97.43998,187.50478l2.08889,-11.60542l26.31764,4.29751c0,0 -0.15874,2.55422 -0.43846,3.31338c-0.69735,1.89235 -3.9883,8.32135 -3.9883,8.32135z" fill="#ccc6c9" stroke-width="0"/><path d="M103.32825,177.0438l0.06012,-0.31005l22.56528,3.48968l-2.78319,0.66683c0,0 -4.27807,-0.63966 -6.93125,-1.1863c-3.63291,-0.74853 -12.91099,-2.66012 -12.91099,-2.66012z" fill="#d8d1d5" stroke-width="0"/><path d="M107.49064,174.04428l3.23526,-16.68927l15.83032,3.06871l-3.23526,16.68927z" fill="#a39999" stroke-width="0"/><path d="M97.13621,187.61883l2.16178,-11.15176c0,0 7.45997,7.95169 11.22283,11.06526c3.76289,3.11365 10.19859,4.07597 10.19859,4.07597z" fill="#b4afb1" stroke-width="0"/><path d="M129.01462,199.95365c0,0 2.77607,1.59802 3.87948,1.66553c0.67784,0.04143 2.11146,-1.29916 2.11146,-1.29916l-0.09852,9.22301l-0.79834,4.11847c0,0 -1.96678,-0.06402 -2.73102,-2.84287c-0.63053,-2.29272 -2.36316,-10.86495 -2.36316,-10.86495z" fill="#504e4f" stroke-width="0"/><path d="M123.73656,193.71576l22.14139,-38.22851l1.67272,0.53321l-22.1188,38.65086z" fill="#858183" stroke-width="0"/><path d="M114.96416,150.50048l1.80113,-1.33211c0,0 27.03713,4.58527 39.22061,6.94705c10.57445,2.04988 31.29398,6.42592 31.29398,6.42592l0.15037,2.00668c0,0 -20.77374,-4.74615 -31.91984,-6.90678c-12.72746,-2.46719 -40.54623,-7.1408 -40.54623,-7.1408z" fill="#918b8e" stroke-width="0"/><path d="M116.19806,149.48607l2.35634,-1.52075c0,0 25.48238,4.58022 37.66586,6.94197c10.57446,2.0499 31.29398,6.42592 31.29398,6.42592l0.15037,2.00669c0,0 -20.77373,-4.74614 -31.91983,-6.90679c-12.72746,-2.46719 -39.5467,-6.9471 -39.5467,-6.9471z" fill="#a59fa2" stroke-width="0"/><path d="M175.67022,182.18775l-0.80888,-5.94524c0,0 0.43713,-1.1427 0.78541,-1.19011c0.3069,-0.0418 1.19625,0.92045 1.19625,0.92045l0.80887,5.94525c0,0 -0.43812,0.80898 -0.74573,0.85089c-0.348,0.04734 -1.23599,-0.58124 -1.23599,-0.58124z" fill="#494242" stroke-width="0"/><path d="M135.6276,177.12343l5.28328,-8.63811l3.81467,0.7395l-5.28328,8.63811z" fill="#9c989a" stroke-width="0"/><path d="M148.40294,161.49289l2.00109,-0.59803l23.98876,4.6686l1.80038,1.3166z" fill="#757274" stroke-width="0"/><path d="M147.96055,164.2707l2.00107,-0.59805l23.98876,4.66862l1.80039,1.31659z" fill="#757274" stroke-width="0"/><path d="M94.94683,186.19314l12.7436,-56.77002l1.7747,0.93552l-12.28443,57.26766z" fill="#686666" stroke-width="0"/><path d="M94.73501,186.42739l3.73624,-15.83409l1.52251,4.18468l-2.96136,12.98377z" fill="#535252" stroke-width="0"/><path d="M129.27224,169.82198c0,0 2.53157,-1.89834 2.71178,-2.82784c0.17683,-0.91213 -1.64059,-2.69799 -1.64059,-2.69799c0,0 2.81974,1.22876 2.39612,2.86639c-0.32269,1.24736 -1.77062,3.19645 -2.06618,4.26202c-0.84045,3.02986 -2.91472,10.11193 -2.91472,10.11193z" fill="#c4bec1" stroke-width="0"/><path d="M137.17173,169.40605l3.81692,-9.64532l3.33092,-3.78961l-4.42554,8.87823z" fill="#aca7a9" stroke-width="0"/></g></g><g stroke-width="0"><path d="M258.36933,164.55169l3.14183,-2.78215c0,0 2.04773,-1.06609 2.8053,-0.63913c0.86373,0.48681 2.10042,3.40399 2.10042,3.40399l-1.3089,3.9042c0,0 -4.20154,-0.8222 -5.41931,-1.194c-0.54898,-0.16764 -1.31931,-2.69299 -1.31931,-2.69299z" fill="#c0c0c0"/><path d="M214.39811,165.85866c0,0 0.37486,-2.86092 1.63135,-3.77743c1.5747,-1.14857 7.96446,-2.1633 7.96446,-2.1633l-1.59907,4.51526l-0.55594,2.86786z" fill="#838383"/><path d="M214.2432,165.75288l9.38035,-5.80217l36.87587,7.1484l-1.42377,7.34454z" fill="#999999"/><path d="M215.34888,165.29853l7.15876,-4.56211l33.15506,6.42712l-1.11154,5.73438c0,0 -4.0129,-0.77784 -9.17501,-1.77852c-3.35619,-0.65062 -6.99609,-2.43797 -10.53683,-3.12438c-3.79836,-0.73632 -7.45217,-0.36286 -9.58564,-0.77641c-4.17541,-0.80941 -9.90482,-1.92009 -9.90482,-1.92009z" fill="#d952b3"/><path d="M218.77773,165.961l9.33935,-4.20269l12.23633,2.37198c0,0 -7.60428,0.46877 -10.10501,0.9156c-2.65492,0.47428 -6.21006,1.9349 -6.21006,1.9349z" fill="#a5899d"/><path d="M226.6423,167.37073c0,0 5.17723,0.01342 7.58939,0.48098c3.08219,0.59746 9.39134,2.81076 9.39134,2.81076l-9.41383,-2.16629z" fill="#adadad"/><path d="M214.34938,165.75489l8.47082,-5.23528l34.32765,6.65444l-0.13101,0.67602c0,0 -29.72351,-5.76191 -33.59794,-6.51302c-0.81039,-0.15708 -9.06939,4.41782 -9.06939,4.41782z" fill="#8a8a8a"/><path d="M259.46792,180.85311l1.85657,-9.57701l2.00945,-6.94645c0,0 1.0761,0.68726 1.51259,1.34586c0.43655,0.6586 0.59832,1.83882 0.59832,1.83882l-4.0007,13.72194z" fill="#9e9e9e"/><path d="M254.92109,175.66215c0,0 -0.49071,-2.25958 -0.3225,-3.8457c0.22651,-2.13586 2.11658,-7.39037 2.11658,-7.39037l1.96786,0.05004c0,0 0.59431,0.92171 1.09184,0.86625c0.68591,-0.07649 2.64326,-1.28275 2.64326,-1.28275l-2.93269,12.48741z" fill="#9c9c9c"/><path d="M255.13616,177.56857c-0.55789,-1.23311 -0.06055,-2.53542 -0.06055,-2.53542l6.15883,-6.14053c0,0 0.62908,4.078 0.45464,4.9777c-0.49586,2.55793 -0.41167,7.41234 -0.41167,7.41234c0,0 -2.94156,-0.48494 -3.87797,-1.11323c-1.12309,-0.75361 -1.70532,-1.36775 -2.26324,-2.60093z" fill="#888888"/><path d="M257.03168,177.14742c-0.58965,-2.15125 -0.7323,-6.72506 1.85186,-10.36662c2.58421,-3.6416 4.54882,-1.08985 4.54882,-1.08985c0,0 0.14639,4.53372 -0.29379,6.80434c-0.40093,2.06835 -2.24051,6.26917 -2.24051,6.26917c0,0 -3.27673,0.53425 -3.86635,-1.61699z" fill="#b4b4b4"/><path d="M262.58188,170.38478c-0.26852,1.38529 -5.2998,0.4888 -5.03133,-0.89645c0.26852,-1.38529 4.29948,-6.10664 5.09699,-5.95202c0.30891,0.05989 0.92159,0.28238 0.91265,1.36111c-0.01421,1.70651 -0.81388,4.63861 -0.97838,5.48738z" fill="#bbbbbb"/></g><g stroke-width="0"><path d="M198.93557,161.64557c0,0 -4.8137,-5.94198 -4.45721,-7.78121c0.29111,-1.50171 6.24042,-0.47383 6.24042,-0.47383l7.39366,1.50645l-6.00191,9.81615z" fill="#f399c8"/><path d="M168.65489,157.4479c0,0 -0.55311,-2.24409 -0.09641,-3.2483c0.504,-1.10815 3.21271,-4.2551 3.21271,-4.2551l22.65245,4.20213l7.31834,10.20236z" fill="#ee96c3"/></g></g><g stroke-width="0"><g><path d="M266.152,156.25524l1.1764,-6.06877l46.9443,9.10017l-1.1764,6.06877z" fill="#61585b"/><path d="M266.60903,153.03994l0.63002,-3.24986l47.12275,9.13478l-0.62999,3.24987c0,0 -8.483,-1.64445 -17.1971,-3.33369c-2.72452,-0.52813 -6.84371,0.21881 -9.36126,-0.26926c-2.99368,-0.58034 -5.91557,-2.6922 -7.83585,-3.0645c-5.75811,-1.11623 -12.72856,-2.46748 -12.72856,-2.46748z" fill="#494344"/><path d="M328.56342,158.3217l-5.55968,-20.36318l20.53695,3.9811l11.95428,19.40394c0,0 -5.86488,0.2498 -9.08698,-0.11169c-4.97201,-0.5579 -17.84456,-2.91013 -17.84456,-2.91013z" fill="#5e555b"/><path d="M327.91184,161.69442l1.05404,-5.43728c0,0 12.35023,0.91391 17.30138,1.07956c3.92929,0.13145 6.79448,0.09403 6.79448,0.09403l4.51033,7.94224c0,0 -5.5387,0.55215 -9.69526,0.19859c-5.63191,-0.47909 -19.96488,-3.87713 -19.96488,-3.87713z" fill="url(#color-5)"/><path d="M321.30963,137.79188l0.76048,-3.92313l18.8015,3.6447l2.80945,4.61517z" fill="url(#color-6)"/><path d="M327.33392,161.60779l0.23968,-1.23624c0,0 15.33897,2.89564 20.65891,3.75625c3.97797,0.64353 8.61781,-0.06328 8.61781,-0.06328l0.65481,1.293l-8.46411,0.45812z" fill="#312c30"/><g><path d="M230.17792,131.97606l1.46351,-8.73957l92.20876,17.87473l5.35389,12.52971z" fill="#8a6672"/><path d="M244.83811,143.25786c0,0 -2.76899,-4.20971 -5.24427,-6.1783c-2.47527,-1.96864 -9.45264,-3.07937 -9.45264,-3.07937l0.50731,-2.0276c0,0 12.04549,2.61655 18.92819,4.04781c16.44194,3.41894 79.29691,16.37722 79.29691,16.37722l2.30722,7.13649z" fill="#755761"/><path d="M247.16047,146.2453l-2.47691,-3.12017l86.0788,16.18794l0.59709,3.25419z" fill="#694e57"/><path d="M231.40432,123.59403l0.86191,-4.44622l89.27592,16.61421l2.70195,6.29036c0,0 2.06957,3.80138 -3.11528,2.77053c-1.6322,-0.32451 -9.94533,-5.36721 -11.58166,-5.69255c-15.75849,-3.13305 -78.14285,-15.53635 -78.14285,-15.53635z" fill="#916b77"/><path d="M232.50362,119.19394l0.36375,-2.50095l88.29204,16.97419l0.5708,2.54747z" fill="#9e7582"/><path d="M305.14458,133.97212c-7.79711,-2.17145 -71.08267,-15.49096 -71.08267,-15.49096l86.24844,16.71929l3.29694,8.21882c0,0 -10.66563,-7.27572 -18.46275,-9.44719z" fill="#b38f9a"/></g><path d="M277.46864,152.1177l1.74588,-9.00612l19.84282,3.84654l-1.74589,9.00614z" fill="#3a3336"/><path d="M279.1275,143.09893l0.99312,-1.35836l18.19963,3.52798l0.67739,1.68212z" fill="#4b4246"/><path d="M277.70128,151.65414l1.55628,-8.02816c0,0 0.03763,5.37118 2.43643,6.96304c2.39885,1.59188 15.29558,4.80413 15.29558,4.80413z" fill="#332c30"/><path d="M322.11927,140.21405l-2.70647,-6.63634c0,0 1.1311,-0.45981 1.72072,-0.34551c0.65916,0.12781 2.04904,1.07627 2.04904,1.07627l2.70647,6.63634z" fill="#757575"/><path d="M324.18347,145.4369l-3.89232,-9.52713l3.76983,0.73079l3.89231,9.52712z" fill="#5a5a5a"/><path d="M327.12351,152.57587l-3.89231,-9.52712l3.76983,0.7308l3.89232,9.52713z" fill="#505050"/><path d="M330.16112,159.96878c-0.66477,-1.62723 -3.25872,-7.97636 -3.25872,-7.97636l3.76983,0.73081l4.5278,11.39648c0,0 -2.12013,0.13447 -3.04942,-0.06076c-0.72491,-0.15227 -1.69626,-3.37268 -1.98936,-4.09019z" fill="#3b3b3b"/><path d="M228.16952,134.23322l3.55398,-18.33344l3.12287,0.60542l-3.55398,18.33344z" fill="#443e42"/><path d="M209.33409,132.21072l0.45491,-5.95019l19.85889,3.84966l-1.12815,5.81966z" fill="url(#color-7)"/><path d="M209.66904,126.87962l2.06426,-10.64877l19.85889,3.84966l-2.06427,10.64878z" fill="#5e555b"/><path d="M211.70925,116.35487l1.57745,-3.93389l19.07348,3.69737l-0.79213,4.0861z" fill="url(#color-8)"/><path d="M281.47967,125.84112l1.16721,-6.02121l14.5447,3.90599l3.6412,5.50466z" fill="#5e555b"/><path d="M300.76504,129.57962l-3.59046,-5.76645c0,0 2.82963,1.252 4.82718,2.65608c1.99754,1.4041 5.13355,4.34525 5.13355,4.34525z" fill="#776b73"/><path d="M278.29267,126.40038l3.37839,-0.61269l25.18291,4.6101l3.29024,2.17708z" fill="#6d6269"/></g><g><path d="M279.64428,148.49547c0.23765,-1.22603 0.95876,-2.26447 1.53625,-3.20125c0.80464,-1.30546 1.6222,-2.35688 3.05332,-2.94129c0.87415,-0.35704 2.06478,-0.52285 3.08137,-0.57065c0.6724,-0.03161 1.72943,-0.23425 2.4196,-0.10039c1.56458,0.30327 1.88503,0.44869 2.91938,1.15446c0.62309,0.42516 2.1471,1.17804 2.54436,1.93969c0.33625,0.64463 0.6228,1.66641 0.82896,2.39861c0.35221,1.25139 0.78513,3.23453 0.5209,4.59779c-0.11167,0.57609 -0.84937,1.79648 -0.99625,2.29308c-0.46619,1.57659 -0.5639,2.07669 -1.96524,2.92906c-0.85172,0.51806 -2.43565,0.76908 -3.4795,0.98429c-1.08102,0.22297 -2.49836,0.8304 -3.64955,0.60722c-0.77704,-0.15067 -2.07722,-0.94762 -2.80403,-1.22724c-1.57697,-0.60668 -2.41951,-0.94768 -3.2132,-2.26297c-0.68061,-1.12789 -0.63234,-2.74658 -0.73153,-4.14871c-0.05209,-0.73659 -0.21205,-1.6922 -0.06487,-2.45169z" fill="#3a3a3a"/><path d="M280.38455,148.51807c0.21754,-1.12196 0.87742,-2.07218 1.40582,-2.92942c0.73631,-1.19456 1.48439,-2.15669 2.79404,-2.69161c0.79994,-0.32673 1.88956,-0.47848 2.81978,-0.52217c0.61533,-0.02891 1.58263,-0.21428 2.21412,-0.0919c1.43181,0.27753 1.72506,0.41059 2.67155,1.05635c0.57013,0.38904 1.96475,1.07805 2.32839,1.77498c0.30768,0.58993 0.56999,1.52496 0.75856,2.19495c0.32232,1.14514 0.71849,2.95988 0.4767,4.20735c-0.10224,0.52721 -0.77728,1.64397 -0.91163,2.09835c-0.42665,1.44267 -0.51603,1.90039 -1.79834,2.68034c-0.77935,0.47409 -2.22884,0.70369 -3.18406,0.90073c-0.98922,0.20404 -2.28623,0.75986 -3.33973,0.55568c-0.71109,-0.13782 -1.90085,-0.86713 -2.566,-1.123c-1.44308,-0.55518 -2.21407,-0.86723 -2.94044,-2.07081c-0.62284,-1.03211 -0.57861,-2.5134 -0.66943,-3.79645c-0.04766,-0.67408 -0.19404,-1.54848 -0.05931,-2.24349z" fill="#5a5a5a"/><path d="M293.21563,146.39173c-1.55354,-2.73131 -6.51577,-3.89758 -6.51577,-3.89758c0,0 2.00953,-0.16052 3.96204,0.22501c1.58157,0.31232 3.05585,0.96936 3.94662,2.46722c0.89147,1.49913 0.99558,3.03166 1.01165,4.45621c0.03139,2.793 -0.85384,5.05877 -0.85384,5.05877c0,0 0.00286,-5.57825 -1.55068,-8.30956z" fill="#6d6d6d"/><path d="M287.031,150.30513c0.10956,-0.56525 0.65648,-0.93456 1.22172,-0.82496c0.56525,0.10956 0.93456,0.65648 0.82496,1.22173c-0.10956,0.56525 -0.65648,0.93456 -1.22173,0.82496c-0.56525,-0.10956 -0.93456,-0.65648 -0.82496,-1.22173z" fill="#272727"/><path d="M286.92734,150.42442c0.10048,-0.51839 0.60216,-0.85716 1.12055,-0.75669c0.51839,0.10048 0.85716,0.60216 0.75669,1.12055c-0.10048,0.51839 -0.60216,0.85716 -1.12054,0.75671c-0.51839,-0.10048 -0.85716,-0.60216 -0.75671,-1.12054z" fill="#131313"/></g></g></g></g></g><path d="M178.77144,241.39198c0.30156,-1.55571 4.23298,-44.21305 5.03806,-45.76338c1.08704,-2.09318 9.15615,0.84682 12.35304,-0.0693c9.79112,-2.80585 20.29775,-5.44166 20.29775,-5.44166c0,0 13.70075,3.24714 17.85983,4.05344c3.11025,0.60298 64.9242,3.93724 63.68779,14.21124c-1.67706,13.93544 -42.17917,-5.85244 -44.48781,6.05649c-0.58444,3.0148 1.74407,3.66527 0.58976,6.64739c-0.27706,0.7157 -3.57137,5.3524 -4.11057,6.95509c-0.85599,2.54417 1.61727,7.10064 -2.22217,9.51326c-3.06057,1.92324 -2.11875,7.21609 -2.97711,8.28795c-5.9156,7.38613 -13.36823,2.06621 -22.21638,0.35099c-10.4908,-2.03364 -26.46523,-1.33764 -35.4419,-4.33812c-3.87484,-1.29518 -9.24808,4.06505 -8.37024,-0.4634z" fill="#86c8f5" stroke-width="0"/></g></g></svg>