<svg version="1.1" xmlns="http://www.w3.org/2000/svg" xmlns:xlink="http://www.w3.org/1999/xlink" width="467.21457" height="164.31744" viewBox="0,0,467.21457,164.31744"><defs><linearGradient x1="475.19227" y1="155.56405" x2="475.42921" y2="160.36981" gradientUnits="userSpaceOnUse" id="color-1"><stop offset="0" stop-color="#1f1d20"/><stop offset="1" stop-color="#202022"/></linearGradient><linearGradient x1="475.39222" y1="150.69323" x2="475.66485" y2="156.22272" gradientUnits="userSpaceOnUse" id="color-2"><stop offset="0" stop-color="#302d31"/><stop offset="1" stop-color="#1f1e20"/></linearGradient><linearGradient x1="143.38114" y1="215.19147" x2="143.54806" y2="218.5774" gradientUnits="userSpaceOnUse" id="color-3"><stop offset="0" stop-color="#585758"/><stop offset="1" stop-color="#575758"/></linearGradient><linearGradient x1="130.78014" y1="225.90351" x2="130.91122" y2="228.56165" gradientUnits="userSpaceOnUse" id="color-4"><stop offset="0" stop-color="#363536"/><stop offset="1" stop-color="#353536"/></linearGradient><linearGradient x1="269.40268" y1="126.1544" x2="269.67542" y2="131.6862" gradientUnits="userSpaceOnUse" id="color-5"><stop offset="0" stop-color="#5e555b"/><stop offset="1" stop-color="#2b2629"/></linearGradient><linearGradient x1="258.63919" y1="105.99305" x2="258.83597" y2="109.98437" gradientUnits="userSpaceOnUse" id="color-6"><stop offset="0" stop-color="#72676e"/><stop offset="1" stop-color="#5e555b"/></linearGradient><linearGradient x1="146.50394" y1="125.43757" x2="146.79585" y2="131.35839" gradientUnits="userSpaceOnUse" id="color-7"><stop offset="0" stop-color="#5e555b"/><stop offset="1" stop-color="#4d454a"/></linearGradient><linearGradient x1="145.80208" y1="111.20257" x2="146.00706" y2="115.35975" gradientUnits="userSpaceOnUse" id="color-8"><stop offset="0" stop-color="#74686f"/><stop offset="1" stop-color="#5e555b"/></linearGradient></defs><g transform="translate(-13.20945,-102.30982)"><g data-paper-data="{&quot;isPaintingLayer&quot;:true}" fill-rule="nonzero" stroke="none" stroke-linecap="butt" stroke-linejoin="miter" stroke-miterlimit="10" stroke-dasharray="" stroke-dashoffset="0" style="mix-blend-mode: normal"><path d="M391.16267,186.19433c0.42711,8.66298 -4.41077,14.09238 -24.54671,15.08517c-7.46885,0.36824 -20.40833,-0.56884 -26.23072,0.42398c-4.32722,0.73786 -7.92159,3.13184 -10.76428,1.38418c-3.64428,-2.24045 -4.5,-22.07347 -4.65098,-25.13503c-0.42711,-8.66298 8.82402,-4.65366 28.95997,-5.64645c20.13596,-0.9928 36.80562,5.22513 37.23273,13.88813z" fill="#86c8f5" stroke-width="0"/><g><g stroke-width="0"><path d="M203.95609,197.19514l-10.97346,-14.82288l25.51537,-1.84894c0,0 -0.8101,5.87584 -0.87685,8.58093c-0.06457,2.61673 0.48262,7.39332 0.48262,7.39332z" fill="#7f7d7e"/><path d="M204.06403,197.38679l-3.91127,-5.42088c0,0 2.53078,3.43464 5.79324,3.88918c2.3493,0.32736 4.21787,-0.0751 6.9119,0.11327c2.694,0.18836 5.15732,0.73059 5.15732,0.73059z" fill="#6c6a6b"/></g><g><g><g><path d="M472.44175,160.5171l-2.29342,-4.70437c0,0 6.06586,1.3608 8.70405,2.12468c2.63819,0.76387 1.15752,1.97439 1.15752,1.97439z" fill="url(#color-1)" stroke-width="0"/><path d="M478.98227,150.71609c0,0 1.59249,2.25211 -0.95778,3.27178c-2.55027,1.01968 -5.38953,2.38424 -5.38953,2.38424l-1.2421,-5.48171z" data-paper-data="{&quot;index&quot;:null}" fill="url(#color-2)" stroke-width="0"/><path d="M462.83531,160.98616l-0.10335,-2.09581l14.75464,-0.72747c0,0 1.29514,0.73142 1.80043,1.07321c0.4542,0.30727 -0.68812,0.97284 -0.68812,0.97284z" fill="#444444" stroke-width="NaN"/><path d="M462.77269,159.03195l-1.2756,-1.69313l12.60036,-0.62125l3.47077,1.47294c0,0 -4.20104,0.44541 -6.50218,0.57629c-2.59522,0.1476 -8.29336,0.26515 -8.29336,0.26515z" fill="#535353" stroke-width="0"/><path d="M461.39185,157.48087l-0.35585,-0.62323l11.45987,-0.56503l1.70935,0.44206z" fill="#363636" stroke-width="0"/><path d="M462.83531,160.98616l-0.05605,-1.13699c0,0 6.46811,0.13525 9.34441,-0.00656c2.43741,-0.12018 6.81571,-0.7902 6.81571,-0.7902c0,0 0.88587,0.41912 1.14285,0.60958c0.2168,0.16067 -0.22507,0.48491 -0.22507,0.48491c0,0 -4.7071,0.63708 -7.01801,0.75099c-3.11776,0.15373 -10.00379,0.08825 -10.00379,0.08825z" fill="#3a3a3a" stroke-width="NaN"/><path d="M461.3574,156.86009l-0.59636,-0.8554l13.62508,-0.67178l-1.77421,1.00622z" fill="#242424" stroke-width="0"/><path d="M459.9633,156.23349l-0.08147,-1.65231c0,0 8.07337,-0.60449 11.06547,-0.75203c2.03854,-0.10051 5.15131,-0.04754 5.15131,-0.04754l-1.73811,1.57686z" fill="#3a3a3a" stroke-width="0"/><path d="M459.75453,154.63007l-0.10059,-2.04007c0,0 7.62774,-0.70638 10.938,-0.86961c2.86452,-0.14123 7.78035,-0.05331 7.78035,-0.05331l-2.31469,2.15917c0,0 -3.65456,0.0976 -5.89623,0.20814c-2.97976,0.14693 -10.40683,0.59568 -10.40683,0.59568z" fill="#444444" stroke-width="0"/><path d="M459.61499,152.67712l-0.04191,-0.85002c0,0 7.85821,-0.51131 11.45105,-0.68845c2.50178,-0.12333 8.0436,-0.27274 8.0436,-0.27274l-0.82206,0.89266c0,0 -5.06208,-0.03943 -8.02369,0.1066c-3.26296,0.16087 -10.60701,0.81198 -10.60701,0.81198z" fill="#535353" stroke-width="0"/><path d="M459.44789,151.91849l-0.01679,-0.34001c0,0 7.64206,-0.88445 11.0982,-1.05485c2.98817,-0.14734 8.43962,0.09156 8.43962,0.09156l0.0543,0.33816c0,0 -6.00971,0.13116 -9.25083,0.29096c-3.28346,0.1619 -10.32452,0.6742 -10.32452,0.6742z" fill="#4e4e4e" stroke-width="0"/></g><g stroke-width="0"><g><g><g><path d="M456.96463,160.78699l-5.22448,-12.92202l0.46756,-1.74648c0,0 3.62963,3.05417 4.67351,5.49611c0.56671,1.32573 1.53621,9.10078 1.53621,9.10078z" fill="#383638"/><path d="M457.98045,160.04466c0,0 0.02829,-0.61182 -0.72049,-3.03278c-0.81656,-2.64017 -2.3864,-6.20421 -2.83197,-7.25753c-1.00013,-2.36433 -1.76056,-2.45747 -1.76056,-2.45747l4.76551,-0.81748l5.6322,13.31457z" fill="#555355"/><path d="M452.73559,147.37899l-0.64198,-1.2062c0,0 1.97833,-0.89851 2.93881,-0.94586c0.9,-0.04436 2.06969,0.62611 2.06969,0.62611l0.6456,1.27886z" fill="#686668"/></g><path d="M451.29877,161.06635l-5.22449,-12.92202l0.13816,-1.71006c0,0 3.95905,3.01775 5.00294,5.45968c0.56671,1.32572 1.53622,9.10078 1.53622,9.10078z" fill="#383638"/><path d="M452.3146,160.32401c0,0 0.02828,-0.61183 -0.72047,-3.03278c-0.81656,-2.64017 -2.3864,-6.20421 -2.83197,-7.25753c-1.00013,-2.36433 -1.76056,-2.45746 -1.76056,-2.45746l3.99182,-1.27995c0,0 1.08663,1.2022 1.39148,1.92286c0.86852,2.05318 5.01446,11.85417 5.01446,11.85417z" fill="#555355"/><path d="M447.06975,147.65835l-0.8599,-1.19546c0,0 2.19625,-0.90927 3.1567,-0.9566c0.9,-0.04436 1.77915,0.64042 1.77915,0.64042l0.77043,1.27269z" fill="#686668"/><path d="M458.74885,159.01181c-0.04036,-0.81851 0.59048,-1.51478 1.409,-1.55514c0.81851,-0.04036 1.51478,0.59047 1.55514,1.409c0.04036,0.81851 -0.59048,1.51478 -1.409,1.55514c-0.81851,0.04036 -1.51478,-0.59047 -1.55514,-1.409z" fill="#312f31"/><path d="M459.25944,156.05382l-2.27007,-5.44133l1.58233,-0.22154l2.27326,5.50575z" fill="#444144"/></g><path d="M411.76939,158.04281l-4.29313,-10.62501l29.90404,-0.2965l0.00505,9.65853z" fill="#444444"/><path d="M424.20214,153.50961c0,0 0.60949,-0.55264 1.2765,-1.69176c0.60987,-1.04153 1.26388,-2.65359 1.62527,-3.13572c0.89004,-1.75242 3.28871,-1.40332 3.28871,-1.40332l-0.94624,0.70051l-4.10275,5.47398z" fill="#292929"/><path d="M427.5166,163.88843l-7.04668,-10.63734c0,0 3.52065,0.35839 5.17056,-0.77335c1.28211,-0.87944 1.05844,-3.50358 2.62007,-3.86183c4.48039,-1.0278 17.31794,-2.09516 17.31794,-2.09516c0,0 3.58809,6.97674 4.65637,9.81463c0.7375,1.95919 1.36678,6.36553 1.36678,6.36553z" fill="#4a464a"/><path d="M431.00322,150.59204c-4.5866,-0.41069 -3.21471,-1.84393 -3.21471,-1.84393c0,0 0.72765,-1.3397 2.5855,-1.57761c4.55916,-0.58387 13.22014,-0.43329 14.93903,-0.54373c0.81063,-0.05209 0.38039,0.67786 0.38039,0.67786c0,0 -1.37004,2.45641 -2.90631,2.78652c-1.53624,0.33008 -7.19731,0.9116 -11.7839,0.5009z" fill="#5e595e"/></g><g><path d="M416.05077,171.03703l-6.03827,-17.65955l18.89896,-0.64515l5.0068,4.08674l6.08696,-0.39876l3.62496,13.25694z" fill="#4d4846"/><path d="M420.75469,171.1927l20.16866,-10.39735l22.28266,-1.34136c0,0 1.51642,4.11317 1.72589,5.4591c0.10679,0.68618 -0.00978,2.94813 -0.00978,2.94813z" fill="#423d3b"/><path d="M416.53626,163.07957l-3.6605,-9.67763l0.8195,-0.04039l3.6605,9.67763z" fill="#363332"/><path d="M421.30007,170.36324l-0.05994,-1.21592c0,0 5.13272,-2.80162 14.18662,-3.24803c1.20294,-0.05931 5.57147,2.27385 6.78393,2.21408c7.69277,-0.37929 15.2225,-0.75054 18.08712,-0.89178c2.33291,-0.11504 4.65123,-1.5309 4.65123,-1.5309l0.12398,2.51435z" fill="#312e2c"/><path d="M423.03968,157.52178l-1.96876,-4.52391l8.29759,-0.4091l4.36768,4.21135l6.30845,-0.11674l-7.48457,2.32011z" fill="#585350"/><path d="M413.90998,165.00609l-0.05556,-1.12683c0,0 7.85172,-4.13528 10.72547,-4.27695c4.33111,-0.21354 16.28791,-0.80308 16.28791,-0.80308l0.05556,1.12683c0,0 -12.16177,0.59965 -16.4928,0.81316c-2.81469,0.13877 -10.5206,4.26686 -10.5206,4.26686z" fill="#2b2827"/></g></g></g><g><g><g><path d="M81.78418,224.08718c0.65015,2.20465 0.46865,4.80628 -0.60805,5.12377c-1.0767,0.3175 -2.64083,-1.76932 -3.29099,-3.97395c-0.65015,-2.20465 -3.20385,-10.65953 -2.12715,-10.97706c1.0767,-0.3175 5.37604,7.62258 6.02618,9.82724z" fill="#615e5f" stroke-width="0"/><g><path d="M121.85234,192.14634c-0.56466,-0.5004 -2.96713,-1.69594 -2.96713,-1.69594l9.76612,-3.365l-5.63816,7.48675c0,0 -0.5962,-1.92537 -1.16086,-2.42577z" fill="#756a6a" stroke-width="0"/><path d="M112.75314,190.89571l-0.67631,-13.71666l18.22195,-6.77222l0.9652,19.57622z" fill="#8a7c7c" stroke-width="0"/><path d="M73.03412,198.30772l5.76561,-18.43963l34.88439,-1.85346l5.15159,12.42807c0,0 -22.88439,2.70626 -30.52484,4.01828c-3.1716,0.54462 -15.27676,3.84677 -15.27676,3.84677z" fill="#7c787a" stroke-width="0"/><path d="M79.03636,182.26418l-0.22091,-1.47238c0,0 25.89279,-1.27664 34.03274,-1.67799c4.55432,-0.22457 15.81485,-7.15783 15.81485,-7.15783l0.08026,1.62765c0,0 -10.96761,6.89953 -15.37298,7.10209c-8.07776,0.37137 -34.33391,1.5785 -34.33391,1.5785z" fill="#535353" stroke-width="0"/><path d="M41.0284,200.59449l-0.99248,-20.12956c0,0 4.17827,-7.26873 11.3006,-9.91864c8.8462,-3.2913 25.80242,-2.34005 27.87056,-2.442c1.58707,-0.07825 -12.37899,11.03965 -12.37899,11.03965l0.99247,20.12956z" fill="#8d898b" stroke-width="0"/><path d="M211.49366,145.99087l1.44584,-3.21936l107.44169,-5.15437l0.72619,14.72833c0,0 -37.64388,3.70377 -49.87037,3.89c-6.072,0.09247 -59.74332,-10.24462 -59.74332,-10.24462z" fill="#c98cac" stroke-width="0"/><path d="M194.82961,247.93529l-5.17518,-12.69696c0,0 5.41939,5.57936 8.31662,6.51467c1.84588,0.59589 6.08575,0.7691 12.06904,-1.96628c4.8168,-2.20209 9.70786,-7.96072 9.70786,-7.96072l-10.93158,15.41967z" fill="#a08e97" stroke-width="0"/><path d="M282.89914,196.61999l-3.49834,-23.47762l18.45579,-2.31441l1.04384,21.17129c0,0 -6.30496,2.03209 -9.03234,2.86566c-1.25581,0.38384 -6.96897,1.75507 -6.96897,1.75507z" fill="#96858d" stroke-width="0"/><path d="M193.17866,251.76706l-0.27281,-5.53344c0,0 12.15046,1.47196 16.6107,-1.87307c3.01776,-2.26321 32.37908,-43.393 32.37908,-43.393c0,0 3.16942,-3.93405 3.03155,-6.81297c-0.06938,-1.44822 0.19424,-5.645 -0.75014,-7.9126c-0.9528,-2.28788 -3.1133,-2.64021 -3.1133,-2.64021l-5.53461,-13.31588l19.79906,-0.83233l-1.59726,26.68434l3.87982,2.37368c0,0 -9.24796,6.4634 -13.62721,11.64098c-6.85195,8.10106 -28.71654,39.60091 -28.71654,39.60091z" fill="#918189" stroke-width="0"/><path d="M259.76448,198.1138l-0.19648,-28.62894l13.77252,-0.40296l10.94216,11.47723l-1.43455,16.41656z" fill="#96858d" stroke-width="0"/><path d="M255.33646,200.18358l-2.71039,-4.01717l2.24494,-26.33238l5.06953,-0.33476l0.73297,28.58529z" fill="#8f8187" stroke-width="0"/><path d="M281.62038,197.13993c0,0 2.42008,-6.7945 0.80255,-12.13212c-0.93134,-3.07337 -5.93333,-4.79886 -6.50428,-6.68297c-1.09067,-3.59912 -2.77796,-9.16697 -2.77796,-9.16697l8.0605,3.97184c0,0 3.75724,7.03727 4.56415,11.26418c0.54213,2.83983 -0.62582,9.28117 -1.42333,11.92254c-0.06723,0.22267 -1.24605,0.19743 -1.28949,0.36509c-0.10608,0.4096 0.86835,0.59316 0.86835,0.59316z" fill="#86787e" stroke-width="0"/><path d="M281.0607,174.63838c0,0 -3.28183,-3.79793 -8.00651,-4.53779c-5.34886,-0.83758 -22.4471,-0.23095 -22.4471,-0.23095l156.84762,-21.93237l3.86943,9.12229l8.45699,10.73922c0,0 -100.79624,2.39518 -121.35961,3.40904c-6.71011,0.33085 -17.36078,3.43053 -17.36078,3.43053z" fill="#df8db7" stroke-width="0"/><path d="M129.35842,229.45579l-6.57833,-35.98956c0,0 1.49649,-3.82899 1.98643,-4.06911c5.40176,-2.64705 36.87502,-14.8636 42.32175,-14.84553c5.96663,0.01979 -8.54592,12.6784 -8.54592,12.6784c0,0 -14.29256,2.73307 -16.61792,7.10281c-3.15712,5.93278 2.53896,23.02654 2.53896,23.02654z" fill="#c77da3" stroke-width="0"/><path d="M200.21703,195.99689l-1.89097,-2.01458c0,0 6.12719,-8.91912 8.44493,-11.3289c2.39282,-2.48788 5.69382,-3.37161 5.69382,-3.37161l6.04164,2.00712c0,0 -4.49537,-0.28155 -6.77173,1.54906c-1.95416,1.57148 -5.55011,4.83121 -8.19463,8.05769c-1.9237,2.34705 -3.32303,5.10123 -3.32303,5.10123z" fill="#414041" stroke-width="0"/><path d="M78.66585,181.23487l4.21851,-11.91172l48.56939,-2.39471c0,0 -2.67566,4.59286 -5.69466,6.71021c-2.96303,2.07813 -12.25458,5.87851 -12.25458,5.87851z" fill="#979395" stroke-width="0"/><path d="M79.40858,180.05399l3.41951,-11.87232l48.5694,-2.39471c0,0 -2.67566,4.59287 -5.69466,6.71022c-2.96303,2.07813 -12.25458,5.87851 -12.25458,5.87851z" fill="#bdb7ba" stroke-width="0"/><path d="M284.04143,197.34168l-1.89594,-0.42064l16.62284,-4.99946c0,0 -3.45473,2.2302 -5.89642,3.1485c-2.44168,0.91828 -8.83048,2.27159 -8.83048,2.27159z" fill="#887980" stroke-width="0"/><path d="M131.86399,229.7973c0,0 -2.85274,-10.33751 -4.47287,-18.80647c-1.62803,-8.5103 -3.12946,-16.49275 -3.32803,-20.07201c-0.03364,-0.6064 1.12342,-10.60617 1.59691,-11.15158c2.55577,-2.94386 10.6695,4.40909 16.17253,3.03288c8.14814,-2.03773 27.20813,-3.4922 27.20813,-3.4922l-8.18193,5.72054c0,0 -19.28494,3.81944 -21.42068,9.06823c-2.8888,7.09952 5.70065,27.5741 5.70065,27.5741z" fill="#d486ae" stroke-width="0"/><path d="M132.82089,226.22701c0,0 -8.66576,-40.49395 -7.83673,-50.62407c0.3879,-4.73975 -3.41135,-13.67136 -3.41135,-13.67136l50.94892,4.46508l2.21357,15.98034c0,0 -32.15573,-1.51152 -38.18948,5.06752c-4.02776,4.39176 4.16394,32.26523 4.16394,32.26523z" fill="#e490bb" stroke-width="0"/><g stroke-width="0"><path d="M267.97476,156.49299l-0.40749,-8.26483l9.34864,-0.46094l0.40749,8.26483z" fill="#454545"/><path d="M268.76845,155.68815l-0.71569,-7.27168l11.31245,-0.55777l0.3594,7.28923z" fill="#b0b0b0"/><path d="M268.31711,151.21589l-0.36765,-2.81563l11.52885,-0.56843l0.09394,1.90507c0,0 -7.76753,0.70581 -9.458,0.92797c-0.56486,0.07422 -1.7971,0.55104 -1.7971,0.55104z" fill="#bebebe"/><path d="M279.95066,154.58658c0,0 -5.65981,-2.2794 -5.27405,-6.05067c0.57318,-5.60404 4.71297,-5.32947 4.71297,-5.32947l40.25924,-0.65003l0.49543,10.0484z" fill="#9c989a"/><path d="M281.67223,153.21088c0,0 -2.65704,-3.39222 -2.94653,-4.30588c-0.42912,-1.35436 1.41759,-4.40632 1.41759,-4.40632l41.54693,-2.01508l-0.03074,7.4993z" fill="#898587"/><path d="M281.59178,153.41341l-1.11386,-1.88684l38.18534,-1.88271l0.09551,1.93704z" fill="#c1bcbf"/><path d="M281.30363,150.02953c0,0 -1.39908,-1.30064 -1.44523,-2.23687c-0.04317,-0.87574 1.17662,-3.21105 1.17662,-3.21105l38.61976,-1.90414l0.26861,5.44792z" fill="#0d0d0d"/><path d="M281.3419,150.80588c0,0 -1.42879,-1.9037 -1.47497,-2.83991c-0.04317,-0.87574 1.20635,-2.60803 1.20635,-2.60803l38.61977,-1.90414l0.2686,5.44793z" fill="#2e2e2e"/><path d="M276.61548,152.94453c-2.78666,-2.93328 -1.738,-5.32438 -1.738,-5.32438c0,0 2.03254,4.01712 3.31073,4.85278c1.51333,0.98936 5.18606,2.1759 5.18606,2.1759l-3.50105,0.24288c0,0 -2.7673,-1.43097 -3.25772,-1.94719z" fill="#7d7a7c"/><path d="M283.95403,150.98717c0,0 -0.99674,-2.16555 -1.05306,-3.30771c-0.04952,-1.00402 0.73297,-3.1844 0.73297,-3.1844l4.81747,-0.23752c0,0 -0.35203,2.224 -0.30927,3.09119c0.05877,1.19184 0.62938,3.40091 0.62938,3.40091z" fill="#555555"/><path d="M292.56022,150.56283c0,0 0.54161,-2.55289 0.48529,-3.69506c-0.04951,-1.004 -0.80539,-2.79708 -0.80539,-2.79708l5.3768,-0.26511c0,0 -0.33171,1.73352 -0.28896,2.60072c0.05877,1.19184 0.60905,3.8914 0.60905,3.8914z" fill="#555555"/><path d="M301.87559,150.10356c0,0 0.54162,-2.5529 0.48531,-3.69507c-0.04952,-1.00402 -0.8054,-2.79708 -0.8054,-2.79708l5.29687,-0.26115c0,0 -0.33171,1.73352 -0.28896,2.60072c0.05877,1.19184 0.60904,3.89139 0.60904,3.89139z" fill="#555555"/><path d="M311.5272,149.62767c0,0 0.73668,-2.20651 0.68038,-3.34867c-0.04951,-1.004 -1.00046,-3.14343 -1.00046,-3.14343l5.1371,-0.25329c0,0 0.92437,1.93858 0.96711,2.80577c0.05877,1.19184 -0.64702,3.68633 -0.64702,3.68633z" fill="#555555"/><path d="M283.40272,145.21129l-0.70372,-0.76628l35.51944,-1.75127l-1.49299,0.87458c0,0 -2.82665,0.13937 -5.28587,0.26063c-0.53604,0.02644 -1.56661,-0.25192 -2.36951,-0.21234c-0.77633,0.03827 -1.3174,0.39412 -2.28238,0.44171c-1.50483,0.07418 -3.20271,0.1579 -4.98023,0.24556c-0.73697,0.03632 -1.39703,-0.31515 -2.15329,-0.27786c-0.67246,0.03315 -1.43988,0.45502 -2.11551,0.48833c-1.67684,0.08267 -3.33713,0.16453 -4.89814,0.2415c-0.71681,0.03532 -1.4343,-0.36817 -2.10124,-0.33529c-0.81418,0.04013 -1.56364,0.51599 -2.27699,0.55116c-2.90992,0.14349 -4.85957,0.23959 -4.85957,0.23959z" fill="#474747"/></g><g><path d="M139.66831,219.45267l3.57137,-3.04705c0,0 2.96012,2.67237 5.83479,3.42668c2.54252,0.66716 10.53943,0.86989 10.53943,0.86989l-2.43741,4.47979z" fill="#6d6a6b" stroke-width="0"/><path d="M131.93921,226.34183l8.8566,-7.83084c0,0 3.34193,2.09451 5.54067,2.64881c3.32635,0.83855 12.47547,1.89299 12.47547,1.89299l-4.06045,4.51276z" fill="#615e5f" stroke-width="0"/><path d="M135.01736,248.18416l-2.59309,-22.47261c0,0 4.38796,0.57654 9.20483,0.3687c3.75978,-0.16221 7.76093,-1.20764 10.27165,-0.72236c4.40769,0.85195 38.50156,11.54167 38.50156,11.54167l2.97654,10.04039z" fill="#575455" stroke-width="0"/><path d="M155.25098,220.1118c6.65085,-5.89988 14.04806,-19.73301 15.17824,-22.36328c0.81423,-1.89488 1.24104,-7.19837 1.24104,-7.19837l8.02994,6.42717c0,0 6.85211,20.18381 8.65405,32.75708c0.5042,3.51812 3.21291,7.33454 2.10029,8.85764c-0.99686,1.36464 -17.8248,4.48703 -23.25018,3.98882c-11.41743,-1.04842 -17.0651,2.02294 -21.06505,-3.06158c-3.99995,-5.08452 2.78342,-11.69686 2.78342,-11.69686c0,0 4.59681,-6.1747 6.32827,-7.71067z" fill="#504e4f" stroke-width="0"/><path d="M158.43431,187.08971c0,0 0.32184,-1.51045 1.14513,-2.21538c1.05882,-0.90657 4.68083,-2.77293 4.68083,-2.77293c0,0 9.45741,1.60357 12.58664,3.94232c2.88714,2.15779 -2.87962,12.73578 -2.87962,12.73578l-2.26814,-5.25605z" fill="#464445" stroke-width="0"/><path d="M183.9663,233.11573c0,0 -8.9649,6.70538 -17.43058,7.29444c-8.16687,0.56824 -15.8459,-4.95211 -15.80907,-6.37791c0.01995,-0.77248 7.77553,-4.46421 11.03998,-8.85172c3.62874,-4.87715 2.86014,-10.5477 4.11033,-12.62225c3.49026,-5.7916 11.42373,-16.37364 10.06638,-22.35772c-1.42349,-6.27561 -12.23019,-7.81917 -12.23019,-7.81917c0,0 3.73562,-2.4386 8.70888,-2.81386c2.11841,-0.15985 6.72874,1.00039 7.66985,1.3394c3.08618,1.11173 5.15509,2.64795 5.15509,2.64795c0,0 3.41385,-5.05355 6.99637,-5.54003c3.58252,-0.48648 22.53062,1.53049 22.53062,1.53049l-15.57068,13.377z" fill="#555354" stroke-width="0"/><path d="M165.51043,213.17206c0,0 4.07976,-11.08716 8.53677,-16.74841c4.45697,-5.66125 8.37384,-9.03872 11.90192,-9.21268c2.55482,-0.12597 6.26332,8.31702 6.26332,8.31702l-9.64675,29.27979c0,0 -14.44194,3.99517 -16.03958,1.59026c-1.2618,-1.89941 -1.01567,-13.22601 -1.01567,-13.22601z" fill="#585758" stroke-width="0"/><path d="M189.38285,239.32793c0,0 -3.17953,-6.0418 -3.0025,-9.07643c0.24732,-4.23933 1.06629,-16.94903 1.06629,-16.94903l2.46821,10.32668c0,0 -0.15968,9.76722 0.12207,12.78692c0.27184,2.91347 1.80032,5.01115 1.80032,5.01115z" fill="#3f3e3f" stroke-width="0"/><path d="M187.57558,221.53007c-0.27767,-1.66317 -0.39086,-9.37785 -0.39086,-9.37785c0,0 8.82919,-15.02098 10.79341,-17.77416c0.57585,-0.80712 3.84215,-2.70121 3.84215,-2.70121l-1.40525,4.92908c0,0 -1.54219,0.68077 -1.69824,1.16689c-0.16628,0.51789 0.7293,1.85125 0.7293,1.85125l-4.70504,8.72238c0,0 -1.59882,1.09063 -1.7529,1.60422c-0.15411,0.51371 0.57642,1.36691 0.57642,1.36691c0,0 -3.40937,9.12022 -4.13191,11.57353c-0.33408,1.1343 -0.02873,2.55364 -0.02873,2.55364c0,0 -1.55066,-2.25156 -1.82833,-3.9147z" fill="#474647" stroke-width="0"/><path d="M173.43283,201.23356l21.43881,7.18824c0,0 -1.13766,1.06963 -1.348,1.61969c-0.1552,0.40589 0.20028,1.38165 0.20028,1.38165z" fill="#3f3e3e" stroke-width="NaN"/><path d="M178.91572,190.5977l21.73342,5.99583c0,0 -1.07212,0.89722 -1.25549,1.46326c-0.19116,0.5901 0.23108,1.64979 0.23108,1.64979z" fill="#3f3e3e" stroke-width="NaN"/><path d="M167.90317,219.8555c0,0 11.05831,7.15712 17.22369,12.83801c6.16536,5.68089 4.28646,6.98183 4.28646,6.98183z" fill="#636162" stroke-width="NaN"/><path d="M180.03842,196.17255c0,0 -5.85033,3.19603 -8.44392,6.42359c-2.59357,3.22757 -10.1205,19.80124 -10.26555,16.8593c-0.14505,-2.94193 11.94034,-24.28411 13.73311,-24.37254c0.67864,-0.03346 3.65494,-1.32386 4.48407,-1.12699c1.36115,0.32322 0.49229,2.21656 0.49229,2.21656z" fill="#918f91" stroke-width="0"/><path d="M134.55533,248.0774l13.83292,-2.57262c0,0 12.56424,-0.95215 15.70478,-0.95174c7.64808,0.00097 30.3504,0.95765 30.3504,0.95765l-0.13519,6.33542c0,0 -24.15582,4.76079 -31.10666,3.78627c-2.01086,-0.28192 -7.85091,-0.6128 -12.1681,-1.75378c-8.44851,-2.23285 -16.47813,-5.8012 -16.47813,-5.8012z" fill="#626061" stroke-width="0"/><path d="M193.28718,251.54416c0,0 -0.171,-4.28942 -0.73463,-6.60433c-0.6335,-2.60187 -2.8813,-8.24687 -2.8813,-8.24687l1.78016,-0.08778c0,0 1.93656,4.36676 2.51006,6.72219c0.62702,2.57532 1.10586,8.12902 1.10586,8.12902z" fill="#4a494a" stroke-width="0"/><path d="M193.13338,252.38908l-0.07916,-3.3974c0,0 0.57909,0.23647 0.85026,0.22311c0.32221,-0.01588 0.91508,-0.31015 0.91508,-0.31015l0.32996,3.16414c0,0 -0.75554,0.44539 -1.12294,0.50373c-0.28152,0.04473 -0.8932,-0.18348 -0.8932,-0.18348z" fill="#363536" stroke-width="0"/><path d="M189.99648,237.70345l-0.46519,-1.59962c0,0 0.39942,-0.37453 0.76456,-0.45183c0.34773,-0.0736 0.87557,0.02326 0.87557,0.02326l0.58653,1.70958c0,0 -0.45625,0.53054 -0.75803,0.58515c-0.28434,0.05143 -1.00339,-0.26647 -1.00339,-0.26647z" fill="#585758" stroke-width="0"/><path d="M151.46874,253.17432c0,0 -8.03098,-2.56044 -8.09812,-3.92182c-0.06745,-1.36817 6.10449,-2.84469 6.10449,-2.84469c0,0 10.91877,-0.77943 15.87826,-0.85113c2.77653,-0.04014 11.34547,0.45745 11.34547,0.45745c0,0 7.33486,0.69386 8.20567,1.80402c0.94989,1.211 -2.76962,4.23947 -2.76962,4.23947c0,0 -12.64411,1.93108 -16.61437,1.91832c-1.41037,-0.00455 -14.05181,-0.80155 -14.05181,-0.80155z" fill="#6b696a" stroke-width="0"/><path d="M140.75848,246.79249l-1.94795,0.32711c0,0 0.45646,-3.46139 3.23437,-2.35461c2.77789,1.10677 21.67901,-0.83782 21.67901,-0.83782z" fill="#4b4949" stroke-width="0"/><path d="M134.62107,247.92992c0,0 -1.98591,0.28976 -2.69975,-3.32225c-0.36134,-1.82835 -2.7981,-15.91759 -2.7981,-15.91759l3.58866,-3.0796c0,0 0.97612,5.95288 1.32497,8.84146c0.46395,3.84176 1.50626,13.43247 1.50626,13.43247z" fill="#3f3d3e" stroke-width="0"/><path d="M141.08807,246.94238c0,0 3.08254,-2.31271 19.10281,-3.44013c1.32299,-0.09309 -1.79458,0.05645 7.61875,0.10022c9.41331,0.04379 13.39132,1.36215 13.39132,1.36215c0,0 -15.10058,-0.32616 -21.29586,-0.02071c-7.06189,0.3482 -18.81701,1.99849 -18.81701,1.99849z" fill="#838082" stroke-width="0"/><path d="M144.67336,217.09743c0,0 -4.25759,2.4 -6.35044,4.12072c-2.3523,1.93402 -7.07618,6.91847 -7.07618,6.91847l-0.86241,-1.56105c0,0 3.56825,-4.03428 5.69777,-5.78516c2.32828,-1.91426 7.72886,-5.25403 7.72886,-5.25403z" fill="#4a494a" stroke-width="0"/><path d="M145.59353,216.79395l-3.47395,1.85389c0,0 0.06443,-0.65038 -0.06695,-0.88819c-0.15608,-0.28256 -0.71096,-0.6637 -0.71096,-0.6637l3.05207,-1.95439c0,0 0.77817,0.44888 0.99682,0.74998c0.16752,0.23073 0.20296,0.9024 0.20296,0.9024z" fill="url(#color-3)" stroke-width="0"/><path d="M132.12585,227.31403l-2.81295,2.87177l-0.25117,-2.17292l1.97668,-2.12211c0,0 0.73412,0.13413 0.92041,0.37796c0.17553,0.22973 0.16699,1.04529 0.16699,1.04529z" fill="url(#color-4)" stroke-width="0"/></g><path d="M260.85767,196.96212c0,0 0.70869,-4.45898 1.14295,-5.87119c0.29481,-0.95867 2.59481,-2.50546 2.59481,-2.50546l16.98802,-1.05608c0,0 -0.99009,5.85361 -1.3034,7.23701c-0.13726,0.60603 -1.16784,1.3503 -1.16784,1.3503z" fill="#665b60" stroke-width="0"/><path d="M211.40346,181.12175c0,0 -3.86653,-1.37371 -8.84579,-2.28187c-3.16531,-0.57732 -7.45804,-0.93311 -9.31157,-0.73583c-5.38885,0.57357 -7.65342,5.79634 -7.65342,5.79634c0,0 -3.38333,-2.15176 -5.53049,-2.90161c-2.0043,-0.69997 -6.40143,-1.48532 -6.40143,-1.48532c0,0 24.27894,-6.29452 28.09687,-7.06359c7.31929,-1.47437 33.98739,-2.39737 33.98739,-2.39737l6.91986,13.96187z" fill="#8b7c84" stroke-width="0"/><g stroke-width="0"><path d="M262.26418,195.94886c0,0 0.34312,-2.61634 0.70891,-3.53024c0.37931,-0.9476 2.50856,-2.10627 2.50856,-2.10627l14.51239,-0.71555c0,0 0.43425,0.96273 0.23548,1.71123c-0.27028,1.0177 -2.90814,3.89845 -2.90814,3.89845z" fill="#585852"/><path d="M262.22743,195.20439c0,0 0.37982,-1.87186 0.74562,-2.78578c0.37931,-0.9476 2.47186,-2.85074 2.47186,-2.85074l14.51239,-0.71554c0,0 0.47095,1.7072 0.27217,2.45571c-0.27028,1.0177 -2.94485,3.15396 -2.94485,3.15396z" fill="#797971"/><path d="M278.2197,189.4342c-1.05637,-0.12607 -12.67818,0.17525 -12.67818,0.17525l14.49253,-0.71456l0.12124,2.45882c0,0 -0.87923,-1.79347 -1.93558,-1.91953z" fill="#85857b"/></g><path d="M262.79898,177.73229l-0.25556,-5.18345l7.12725,-0.35141l1.55145,5.11957z" fill="#7c6e75" stroke-width="0"/><path d="M251.08635,151.85409l-4.57207,-7.9157l1.37763,-0.06792l6.52746,8.27145z" fill="#d495b6" stroke-width="0"/><path d="M211.75437,146.15509l13.05085,-3.73688l21.90876,1.53547l4.39662,7.88532z" fill="#df9cbe" stroke-width="0"/><path d="M263.20856,182.74575l-0.07986,-1.61983l10.85285,-0.53509l1.05176,1.57192z" fill="#7c6e75" stroke-width="0"/><path d="M222.08731,172.60431c0,0 -18.05261,2.08996 -23.65394,2.86687c-8.4816,1.17645 -25.41667,4.33948 -25.41667,4.33948c0,0 14.78681,-5.17506 28.20317,-7.35451c14.54677,-2.36306 58.47111,-5.98791 58.47111,-5.98791l0.26636,5.4025z" fill="#75686e" stroke-width="0"/><path d="M215.60918,181.70486l-3.26742,-0.41039c0,0 9.64118,-2.86269 15.01182,-2.36374c5.37065,0.49891 14.88663,5.14124 14.88663,5.14124z" fill="#7c6e76" stroke-width="0"/><path d="M169.01099,179.96728c0,0 -33.0762,-13.78432 -34.19413,-18.35496c-1.01548,-4.15186 29.90122,0.87654 30.19327,0.75377c5.11063,-2.14818 76.55107,-12.89417 76.55107,-12.89417l26.9108,5.47076l52.66975,-3.169l7.96794,13.19907c0,0 -61.42688,4.19896 -85.15627,5.53215c-8.23714,0.46279 -25.08087,0.64479 -40.31007,2.53734c-11.74728,1.45984 -29.19955,6.6422 -29.19955,6.6422z" fill="#ee96c3" stroke-width="0"/><path d="M40.65379,198.85442l2.33041,-20.29338c0,0 -0.44882,-7.04059 6.67355,-9.6905c8.8462,-3.2913 25.80242,-2.34005 27.87056,-2.442c1.58707,-0.07825 -12.37899,11.03965 -12.37899,11.03965l0.99247,20.12955z" fill="#c4b4b3" stroke-width="0"/><g stroke-width="0"><path d="M320.57266,166.7774l-3.59938,-14.98378l92.97733,2.18849l-0.46988,5.83718l-47.13183,7.18686z" fill="#ad6d8e"/><path d="M346.18011,151.16116l6.85652,-8.62084l26.6374,-3.44498l-3.78759,10.60116z" fill="#8d788b"/><path d="M320.79854,153.60268l-0.79952,-16.21559l33.10797,5.15395l-4.23489,7.08615z" fill="#857183"/><path d="M363.00229,148.19691l16.60921,-9.09721l27.99365,2.39704l0.05375,6.89973z" fill="#947e92"/><path d="M316.60461,153.20025l2.26143,-12.89298l1.29419,-3.13137l0.74183,15.04555z" fill="#756474"/><path d="M321.69214,163.5039l-1.31496,-12.02257l43.18007,-3.77983l-0.43386,16.09794z" fill="#746373"/><path d="M363.11495,163.78439c0,0 0.06894,-6.3185 0.12736,-9.16903c0.05003,-2.44052 0.20192,-6.89578 0.20192,-6.89578l44.19114,-1.26864l2.41124,8.29131z" fill="#867284"/><path d="M316.64153,153.12783l3.94731,-1.72739l1.13365,12.1096z" fill="#6f5e6d"/><path d="M400.39331,141.74454l-19.95978,-2.38362l26.87392,2.31578l-0.1886,3.55905c0,0 -0.39048,-1.55193 -1.63205,-2.19644c-0.83056,-0.43115 -5.0935,-1.2948 -5.0935,-1.2948z" fill="#978195"/><path d="M361.29825,147.6304c0,0 7.79431,-3.85379 10.50247,-5.34304c1.97282,-1.08485 4.251,-2.77012 4.251,-2.77012l2.53629,-0.01229l-14.64436,7.99503z" fill="#9c859a"/><path d="M346.97467,149.14595c0,0 1.17926,-2.81378 2.4614,-4.22889c1.28215,-1.41514 3.54742,-2.34304 3.54742,-2.34304l-3.55027,6.45073z" fill="#806b7d"/><path d="M381.10069,137.27837l1.84841,-5.83143l15.3654,2.9803l5.90837,6.11644z" fill="#55494f"/><path d="M378.70832,140.19985c0,0 1.04223,-0.84257 1.57312,-1.45422c0.39991,-0.46073 1.01887,-1.87751 1.01887,-1.87751l22.48363,2.89632c0,0 0.89129,0.45362 1.49284,0.75003c0.62863,0.30976 2.20129,1.07025 2.20129,1.07025z" fill="#685960"/><path d="M381.61728,136.35966l1.43071,-4.66148l14.29299,2.62614c0,0 -8.07247,-1.13653 -12.53558,-0.66154c-2.58888,0.27553 -3.18814,2.69685 -3.18814,2.69685z" fill="#41383c"/></g><path d="M40.35681,159.54122l-0.25647,-5.20202c0,0 22.24565,-2.39346 44.17996,-3.41788c13.07084,-0.61046 26.70291,0.317 33.59855,-0.37351c15.54813,-1.55702 25.78201,-6.5793 25.78201,-6.5793l-5.80877,10.94244z" fill="#ffa1d1" stroke-width="0"/><path d="M38.46932,173.60884l1.36571,-16.16944c0,0 54.8313,-0.64041 72.63509,-1.95943c10.54626,-0.78133 24.34434,-5.22542 24.34434,-5.22542l0.72106,14.62461c0,0 -67.41912,3.32409 -83.67176,4.12542c-6.68246,0.32947 -14.07052,31.45599 -14.07052,31.45599z" fill="#ee96c3" stroke-width="0"/><path d="M221.22812,241.183l8.59923,-14.03639c0,0 9.12573,-16.32647 18.17669,-23.64379c2.3,-1.85945 7.40433,-3.3091 7.40433,-3.3091c0,0 -7.04951,5.33873 -9.50375,8.25458c-5.79576,6.8859 -24.67649,32.73469 -24.67649,32.73469z" fill="#70646b" stroke-width="0"/><path d="M313.92704,171.6931l-7.17949,-17.66969l1.34848,-0.06647c0,0 2.17432,5.3513 3.32325,8.17894c0.1637,0.40289 1.58717,1.55529 1.78992,2.05431c0.35149,0.86507 -0.48783,1.15027 -0.095,2.11715c1.09391,2.69228 2.16128,5.31926 2.16128,5.31926z" fill="#795467" stroke-width="0"/><path d="M138.18846,165.27927c0,0 -10.79199,-6.02821 -10.29936,-9.83197c0.29497,-2.27754 16.72553,-11.04943 16.72553,-11.04943l68.50117,-1.70328l-1.48222,3.17298l29.8726,3.78192l-70.40017,30.07856c0,0 -1.06684,-5.56804 2.3903,-8.60012c3.36001,-2.94689 18.06951,-9.34398 18.06951,-9.34398c0,0 -34.17831,1.63608 -41.46465,1.90856c-2.43092,0.09089 -11.91273,1.58679 -11.91273,1.58679z" fill="#f399c8" stroke-width="0"/><g><path d="M142.91464,146.4082l-0.15948,-3.23438l176.33947,-8.69434l0.15948,3.23438z" fill="#584f54" stroke-width="0"/><path d="M313.3175,135.01279l-0.13474,-2.73298l3.05155,-0.15047l2.82727,2.60025z" fill="#685d63" stroke-width="0"/><g fill="#685d63" stroke-width="0"><g><g><g><path d="M306.67786,135.58963l-0.14661,-2.97343l3.87641,-0.19112l0.14662,2.97342z"/><path d="M300.38794,135.89976l-0.14661,-2.97342l3.87642,-0.19113l0.14661,2.97343z"/></g><g><path d="M294.33538,136.19816l-0.14661,-2.97342l3.87641,-0.19112l0.14662,2.97342z"/><path d="M288.0455,136.50829l-0.14661,-2.97343l3.87642,-0.19112l0.1466,2.97343z"/></g></g><g><g><path d="M281.87429,136.81258l-0.14662,-2.97342l3.87642,-0.19112l0.14662,2.97342z"/><path d="M275.58436,137.12267l-0.14661,-2.97343l3.87641,-0.19112l0.14662,2.97342z"/></g><g><path d="M269.53183,137.42111l-0.14662,-2.97342l3.87641,-0.19112l0.14662,2.97342z"/><path d="M263.24199,137.73123l-0.14662,-2.97342l3.87642,-0.19112l0.14662,2.97342z"/></g></g></g><g><g><g><path d="M263.00464,137.74293l-0.14662,-2.97342l3.87641,-0.19113l0.14662,2.97342z"/><path d="M256.71474,138.05307l-0.14661,-2.97342l3.87642,-0.19112l0.14662,2.97342z"/></g><g><path d="M250.66219,138.35146l-0.14661,-2.97342l3.87642,-0.19112l0.14661,2.97342z"/><path d="M244.37232,138.66159l-0.14662,-2.97342l3.87642,-0.19112l0.14662,2.97342z"/></g></g><g><g><path d="M238.20115,138.96587l-0.14662,-2.97342l3.87642,-0.19112l0.14661,2.97342z"/><path d="M231.91123,139.27597l-0.1466,-2.97343l3.87642,-0.19112l0.14661,2.97343z"/></g><g><path d="M225.85867,139.57443l-0.14661,-2.97342l3.87641,-0.19112l0.14661,2.97342z"/><path d="M219.5688,139.88453l-0.14661,-2.97342l3.87642,-0.19112l0.14661,2.97342z"/></g></g></g></g><g><g fill="#685d63" stroke-width="0"><g><g><path d="M213.35722,140.19079l-0.14662,-2.97342l3.87642,-0.19112l0.14661,2.97342z"/><path d="M207.06732,140.5009l-0.14661,-2.97342l3.87641,-0.19113l0.14661,2.97343z"/></g><g><path d="M201.01481,140.79932l-0.14661,-2.97342l3.87642,-0.19113l0.1466,2.97343z"/><path d="M194.72493,141.10943l-0.1466,-2.97343l3.87642,-0.19112l0.1466,2.97343z"/></g></g><g><g><path d="M188.55374,141.41374l-0.14661,-2.97342l3.87642,-0.19112l0.14661,2.97342z"/><path d="M182.26382,141.72384l-0.1466,-2.97343l3.87642,-0.19112l0.14662,2.97342z"/></g><g><path d="M176.21127,142.02226l-0.14661,-2.97343l3.87642,-0.19112l0.14662,2.97342z"/><path d="M169.92135,142.33237l-0.14662,-2.97342l3.87642,-0.19112l0.14662,2.97342z"/></g></g></g><g><g fill="#685d63" stroke-width="0"><g><path d="M169.68402,142.34407l-0.14661,-2.97342l3.87642,-0.19112l0.14661,2.97342z"/><path d="M163.39412,142.65419l-0.14661,-2.97342l3.87641,-0.19113l0.14662,2.97342z"/></g><g><path d="M157.34158,142.95262l-0.14662,-2.97342l3.87642,-0.19113l0.1466,2.97343z"/><path d="M151.05173,143.26274l-0.14661,-2.97343l3.87642,-0.19112l0.14661,2.97343z"/></g></g><g fill="none" stroke-width="1" font-family="sans-serif" font-weight="normal" font-size="12" text-anchor="start"><g/><g/></g></g></g><path d="M142.83883,143.41819l2.55779,-2.86575l3.05155,-0.15046l0.13475,2.73298z" data-paper-data="{&quot;index&quot;:null}" fill="#685d63" stroke-width="0"/></g><path d="M201.30031,173.46212l-2.53548,0.39537c0,0 1.55043,-2.6471 11.07841,-4.24597c7.2236,-1.21215 27.6974,-3.53465 39.95605,-4.88576c5.69264,-0.62743 61.68257,-12.40085 61.68257,-12.40085l5.19177,-0.27032c0,0 -61.11661,13.67099 -66.80614,14.27501c-12.58109,1.33562 -33.7335,3.61723 -39.84628,4.49781c-3.32752,0.47937 -8.72093,2.63467 -8.72093,2.63467z" fill="#70475c" stroke-width="0"/><path d="M303.02531,187.49737l-4.82693,2.08602l-0.93154,-18.90845c0,0 7.78439,-0.33535 15.39735,-0.66331c21.85461,-0.94152 126.88932,-5.46638 126.88932,-5.46638l0.33129,6.71911z" fill="#5a5959" stroke-width="0"/><path d="M302.19151,189.16891l0.94153,-3.05614l136.75844,-14.95834l-11.25963,11.78036z" fill="#4b4a4a" stroke-width="0"/><path d="M425.34079,182.9077c0,0 -6.05789,-2.92998 -9.157,-4.20699c-1.66088,-0.68438 -7.99229,-2.85951 -7.99229,-2.85951c0,0 8.13474,2.5062 11.52197,3.2883c1.20886,0.27912 2.36766,0.96569 3.69613,1.42896c0.42835,0.14936 2.11368,-2.69626 3.9259,-4.50204c0.54165,-0.53975 1.71845,-0.23277 2.22691,-0.58903c1.16564,-0.81672 1.47046,-1.92451 1.47046,-1.92451c0,0 0.38282,0.91181 -0.77485,2.18414c-0.31587,0.34714 -2.09926,0.78783 -2.40654,1.16381c-1.23158,1.50676 -2.15339,3.15324 -2.42905,3.75874c-0.76925,1.68972 1.38005,2.18615 1.38005,2.18615z" fill="#414040" stroke-width="0"/><path d="M138.15416,165.57875l3.26403,-11.27321l6.96686,-0.96856c0,0 -0.81907,2.69179 -1.30181,4.27826c-0.12157,0.39958 11.56188,-2.13501 11.94649,-1.48215c0.71364,1.2113 -4.66655,5.24104 -4.97013,6.23876c-0.34706,1.14062 -9.02149,1.96462 -9.02149,1.96462z" fill="#303030" stroke-width="0"/><path d="M137.99257,165.21623l3.20078,-10.43396c0,0 3.06079,1.15527 3.10927,2.13907c0.08824,1.78999 -1.20387,7.64791 -1.20387,7.64791z" fill="#252525" stroke-width="0"/><path d="M298.31106,192.23681l-0.14538,-2.94882l5.37171,-3.22082l-1.09119,3.00976c0,0 -1.02332,1.38734 -1.75057,1.94309c-0.63993,0.48899 -2.38457,1.21676 -2.38457,1.21676z" fill="#383838" stroke-width="0"/><g><g fill="#4b4b4b" stroke-width="0"><g data-paper-data="{&quot;origPos&quot;:null}"><g data-paper-data="{&quot;origPos&quot;:null}"><path d="M365.43835,190.29973l-0.11192,-2.26996l3.74545,-0.18467l0.11193,2.26997z" data-paper-data="{&quot;origPos&quot;:null}"/><path d="M359.19033,190.49401l-0.11192,-2.26996l3.74546,-0.18467l0.11192,2.26997z" data-paper-data="{&quot;origPos&quot;:null}"/></g><g data-paper-data="{&quot;origPos&quot;:null}"><path d="M377.92878,189.79768l-0.11192,-2.26996l3.74546,-0.18467l0.11192,2.26997z" data-paper-data="{&quot;origPos&quot;:null}"/><path d="M371.68074,189.99196l-0.11192,-2.26996l3.74545,-0.18467l0.11193,2.26997z" data-paper-data="{&quot;origPos&quot;:null}"/></g></g><g data-paper-data="{&quot;origPos&quot;:null,&quot;index&quot;:null}"><g data-paper-data="{&quot;origPos&quot;:null}"><path d="M397.09883,188.62495l-0.11192,-2.26996l3.74546,-0.18466l0.11192,2.26996z" data-paper-data="{&quot;origPos&quot;:null}"/><path d="M403.33564,188.20367l-0.11193,-2.26996l3.74546,-0.18467l0.11192,2.26996z" data-paper-data="{&quot;origPos&quot;:null}"/></g><g data-paper-data="{&quot;origPos&quot;:null}"><path d="M384.61959,189.35402l-0.11192,-2.26996l3.74545,-0.18467l0.11192,2.26997z" data-paper-data="{&quot;origPos&quot;:null}"/><path d="M390.8564,188.93274l-0.11192,-2.26997l3.74545,-0.18467l0.11192,2.26996z" data-paper-data="{&quot;origPos&quot;:null}"/></g></g></g><path d="M322.36241,184.16846l-0.67029,-13.59459l84.37153,-4.15991l0.67029,13.59458z" data-paper-data="{&quot;origPos&quot;:null}" fill="#444444" stroke-width="0"/><path d="M322.69336,188.88007l-0.23551,-4.77666l84.12357,-4.14771l0.23551,4.77667z" data-paper-data="{&quot;origPos&quot;:null}" fill="#414141" stroke-width="0"/><path d="M322.79826,190.30089l-0.07967,-1.61567l84.11287,-4.14717l0.07967,1.61567z" data-paper-data="{&quot;origPos&quot;:null}" fill="#3f3f3f" stroke-width="0"/><g stroke-width="0"><g data-paper-data="{&quot;origPos&quot;:null}" fill="#5a5a5a"><g data-paper-data="{&quot;origPos&quot;:null}"><path d="M365.5855,182.11684l-0.67711,-13.73332l3.56709,-0.17586l0.6771,13.73332z" data-paper-data="{&quot;origPos&quot;:null}"/></g><g data-paper-data="{&quot;origPos&quot;:null}"><path d="M371.64955,181.81784l-0.6771,-13.73332l3.56709,-0.17586l0.6771,13.73332z" data-paper-data="{&quot;origPos&quot;:null}"/><path d="M377.89197,181.51007l-0.6771,-13.73332l3.56709,-0.17586l0.6771,13.73332z" data-paper-data="{&quot;origPos&quot;:null}"/></g></g><g data-paper-data="{&quot;origPos&quot;:null}" fill="#5a5a5a"><g data-paper-data="{&quot;origPos&quot;:null}"><path d="M384.4911,181.18469l-0.6771,-13.73332l3.56709,-0.17587l0.6771,13.73332z" data-paper-data="{&quot;origPos&quot;:null}"/><path d="M390.73352,180.87692l-0.6771,-13.73332l3.56709,-0.17586l0.6771,13.73332z" data-paper-data="{&quot;origPos&quot;:null}"/></g><g data-paper-data="{&quot;origPos&quot;:null}"><path d="M396.79759,180.57792l-0.67711,-13.73332l3.56709,-0.17586l0.67711,13.73332z" data-paper-data="{&quot;origPos&quot;:null}"/><path d="M403.04001,180.27016l-0.6771,-13.73332l3.56709,-0.17586l0.6771,13.73332z" data-paper-data="{&quot;origPos&quot;:null}"/></g></g><path d="M369.21384,181.93795l-0.78266,1.97198l-5.23292,0.30117l-0.62159,-9.7777l2.27287,-6.04696l0.74602,13.72991z" fill="#3a3a3a"/><path d="M375.27545,181.63909l-0.78267,1.97198l-5.23291,0.30117l-0.6216,-9.77771l2.27287,-6.04696l0.74602,13.72992z" fill="#3a3a3a"/><path d="M381.47482,181.33344l-0.78267,1.97199l-5.23291,0.30116l-0.62159,-9.7777l2.27287,-6.04696l0.74602,13.72991z" fill="#3a3a3a"/><path d="M388.15635,181.004l-0.78267,1.97199l-5.23291,0.30116l-0.62159,-9.7777l2.27287,-6.04696l0.74602,13.72991z" fill="#3a3a3a"/><path d="M394.42459,180.69495l-0.78267,1.97198l-5.23291,0.30116l-0.62159,-9.7777l2.27286,-6.04696l0.74602,13.72991z" fill="#3a3a3a"/><path d="M400.41731,180.39948l-0.78266,1.97198l-5.23291,0.30117l-0.62159,-9.77771l2.27286,-6.04696l0.74602,13.72991z" fill="#3a3a3a"/><path d="M406.69349,180.09003l-0.78267,1.97199l-5.23291,0.30116l-0.62159,-9.77771l2.27285,-6.04695l0.74602,13.72991z" fill="#3a3a3a"/></g><g stroke-width="0"><g data-paper-data="{&quot;origPos&quot;:null}" fill="#5a5a5a"><g data-paper-data="{&quot;origPos&quot;:null}"><path d="M322.40889,184.24563l-0.67711,-13.73333l3.56709,-0.17586l0.67711,13.73332z" data-paper-data="{&quot;origPos&quot;:null}"/></g><g data-paper-data="{&quot;origPos&quot;:null}"><path d="M328.47291,183.94667l-0.6771,-13.73332l3.56709,-0.17586l0.6771,13.73332z" data-paper-data="{&quot;origPos&quot;:null}"/><path d="M334.71534,183.63887l-0.6771,-13.73332l3.56709,-0.17586l0.67711,13.73332z" data-paper-data="{&quot;origPos&quot;:null}"/></g></g><g data-paper-data="{&quot;origPos&quot;:null}" fill="#5a5a5a"><g data-paper-data="{&quot;origPos&quot;:null}"><path d="M341.31451,183.3135l-0.6771,-13.73332l3.56709,-0.17586l0.6771,13.73332z" data-paper-data="{&quot;origPos&quot;:null}"/><path d="M347.55695,183.0057l-0.67711,-13.73332l3.56709,-0.17586l0.6771,13.73332z" data-paper-data="{&quot;origPos&quot;:null}"/></g><g data-paper-data="{&quot;origPos&quot;:null}"><path d="M353.62101,182.70674l-0.6771,-13.73332l3.56709,-0.17586l0.6771,13.73332z" data-paper-data="{&quot;origPos&quot;:null}"/><path d="M359.86342,182.39895l-0.67711,-13.73332l3.56709,-0.17586l0.6771,13.73332z" data-paper-data="{&quot;origPos&quot;:null}"/></g></g><path d="M326.0372,184.06676l-0.78266,1.97198l-2.7243,0.17746l-0.11129,-1.97105z" fill="#3a3a3a"/><path d="M332.09886,183.7679l-0.78266,1.97198l-5.23291,0.30117l-0.62159,-9.7777l2.27287,-6.04696l0.74602,13.72992z" fill="#3a3a3a"/><path d="M338.29819,183.46222l-0.78267,1.97198l-5.23291,0.30116l-0.62159,-9.7777l2.27287,-6.04696l0.74602,13.72991z" fill="#3a3a3a"/><path d="M344.97973,183.13281l-0.78266,1.97198l-5.23292,0.30117l-0.62159,-9.7777l2.27287,-6.04696l0.74602,13.72991z" fill="#3a3a3a"/><path d="M351.24804,182.82374l-0.78267,1.97198l-5.23291,0.30117l-0.62159,-9.77771l2.27286,-6.04696l0.74602,13.72991z" fill="#3a3a3a"/><path d="M357.24076,182.52827l-0.78267,1.97198l-5.23291,0.30117l-0.6216,-9.77772l2.27287,-6.04696l0.74602,13.72991z" fill="#3a3a3a"/><path d="M363.51695,182.21882l-0.78266,1.97198l-5.23291,0.30116l-0.62159,-9.77771l2.27285,-6.04695l0.74602,13.72991z" fill="#3a3a3a"/></g><g><g data-paper-data="{&quot;origPos&quot;:null}"><g data-paper-data="{&quot;origPos&quot;:null}" fill="none" stroke-width="1" font-family="sans-serif" font-weight="normal" font-size="12" text-anchor="start"/><g data-paper-data="{&quot;origPos&quot;:null}" fill="#4b4b4b" stroke-width="0"><path d="M329.25591,192.27451l-0.11192,-2.26996l3.74545,-0.18467l0.11193,2.26996z" data-paper-data="{&quot;origPos&quot;:null}"/><path d="M323.0079,192.46878l-0.11192,-2.26996l3.74546,-0.18467l0.11192,2.26996z" data-paper-data="{&quot;origPos&quot;:null}"/></g></g><g data-paper-data="{&quot;origPos&quot;:null,&quot;index&quot;:null}" fill="#4b4b4b" stroke-width="0"><g data-paper-data="{&quot;origPos&quot;:null}"><path d="M348.42601,191.10179l-0.11192,-2.26997l3.74545,-0.18467l0.11192,2.26996z" data-paper-data="{&quot;origPos&quot;:null}"/><path d="M354.66282,190.68048l-0.11193,-2.26996l3.74546,-0.18467l0.11192,2.26996z" data-paper-data="{&quot;origPos&quot;:null}"/></g><g data-paper-data="{&quot;origPos&quot;:null}"><path d="M335.94672,191.83083l-0.11192,-2.26996l3.74545,-0.18467l0.11192,2.26996z" data-paper-data="{&quot;origPos&quot;:null}"/><path d="M342.18353,191.40952l-0.11192,-2.26996l3.74545,-0.18466l0.11193,2.26996z" data-paper-data="{&quot;origPos&quot;:null}"/></g></g></g></g><path d="M150.74031,163.36225l0.83081,-4.2612c0,0 4.4505,-3.37072 7.96994,-3.69445c4.02344,-0.37007 33.95722,-1.82098 33.95722,-1.82098c0,0 0.75357,1.84087 0.76065,3.0592c0.00912,1.56964 -1.95345,4.73475 -1.95345,4.73475z" fill="#242424" stroke-width="0"/><path d="M175.40834,158.33137l-0.15514,-3.14648l17.97995,-0.88651l0.15514,3.14649z" fill="#313131" stroke-width="0"/><path d="M172.21362,160.42181l-0.03212,-0.65145c0,0 1.01477,-1.10248 2.03663,-1.15284c0.97031,-0.04783 3.17905,0.3188 5.63601,0.36122c4.68047,0.0808 10.30709,-0.09485 10.30709,-0.09485l0.03212,0.65145c0,0 -5.42178,0.26529 -10.03719,0.18183c-2.51836,-0.04553 -4.81184,-0.50213 -5.81841,-0.45249c-1.05799,0.05216 -2.12411,1.15714 -2.12411,1.15714z" fill="#616161" stroke-width="0"/><path d="M198.54014,143.3938l12.82693,2.39788l31.07444,3.78244c0,0 0.7433,0.18781 -7.3813,-0.14073c-2.76388,-0.11177 -13.46855,-1.19495 -22.77384,-2.64129c-2.51789,-0.39136 -16.00525,-3.17134 -16.00525,-3.17134z" fill="#df8cb7" stroke-width="0"/><path d="M17.98453,158.64007l-0.29218,-5.92593c0,0 5.67675,-2.03498 9.47597,-2.22229c3.11028,-0.15335 11.75515,2.93061 11.75515,2.93061l0.4696,12.26251z" fill="#626061" stroke-width="0"/><path d="M134.39503,162.89834l3.9151,2.31605l12.16715,-1.9247l50.68339,-2.49891l0.05372,1.0897c0,0 -38.02717,1.7295 -49.90326,2.5776c-3.26056,0.23283 -12.91267,1.43047 -12.91267,1.43047z" fill="#ffa6d4" stroke-width="0"/><path d="M18.25388,222.63475l-0.35306,-7.16088l22.58034,-17.76371l-0.93218,13.73145l-13.35584,10.80173z" fill="#3f3d3e" stroke-width="0"/><path d="M16.37656,217.66101c0,0 -0.78039,-19.63721 -0.44762,-29.2486c0.37559,-10.84793 2.58827,-32.57938 2.58827,-32.57938c0,0 8.59482,-0.61335 12.25356,0.85408c3.1314,1.2559 8.36416,7.41507 8.36416,7.41507l1.65226,33.51086c0,0 -11.16783,14.26543 -14.09777,16.67174c-4.5068,3.70134 -10.31282,3.37629 -10.31282,3.37629z" fill="#555354" stroke-width="0"/><path d="M18.8885,166.42602c0,0 -1.83343,-5.90977 0.0974,-8.70549c1.9308,-2.79572 6.225,-4.02559 8.78221,-4.15168c2.03992,-0.10058 6.26533,-0.23008 9.35482,4.08152c3.08948,4.31156 1.50066,11.06809 1.50066,11.06809c0,0 -6.80451,-10.08084 -9.37867,-10.37987c-3.63248,-0.42194 -10.35639,8.08745 -10.35639,8.08745z" fill="#6f6b6c" stroke-width="0"/><path d="M15.16521,222.59849c0,0 0.42902,-26.11533 -0.13453,-37.54524c-0.58689,-11.90334 -1.82122,-32.58606 -1.82122,-32.58606c0,0 1.12315,-0.69911 2.16269,-0.75037c0.95056,-0.04685 2.54717,0.51814 2.54717,0.51814c0,0 0.72925,19.14258 1.25591,29.82444c0.6119,12.41039 -0.58448,40.37019 -0.58448,40.37019z" fill="#333232" stroke-width="0"/><path d="M14.75679,223.06277l0.36852,-14.74429c0,0 1.09767,0.83586 1.69453,0.7677c0.75355,-0.08603 2.35775,-1.6044 2.35775,-1.6044l-0.45649,15.38551z" fill="#2e2d2d" stroke-width="0"/><path d="M38.70208,185.57837c0.40207,8.15473 -3.29029,17.01522 -7.5061,20.15404c-3.50136,2.60689 -10.6581,9.72588 -11.06017,1.57113c-0.08529,-1.72997 1.37128,-13.69558 1.15338,-20.72318c-0.28818,-9.29392 -2.17719,-14.18776 -1.35998,-17.06307c1.47772,-5.19908 6.92142,-6.94879 9.13321,-7.05782c4.35993,-0.21497 9.23759,14.96421 9.63964,23.11892z" fill="#585758" stroke-width="0"/><path d="M73.81556,197.94716l-0.67759,-1.70946c0,0 7.86358,-1.7399 13.85043,-2.51981c8.42811,-1.09796 31.94837,-3.44651 31.94837,-3.44651l1.85684,1.19119c0,0 -25.00036,2.85499 -33.66568,4.0511c-2.54488,0.35128 -13.31235,2.43346 -13.31235,2.43346z" fill="#585657" stroke-width="0"/><path d="M68.5824,211.42172l4.50923,-13.93037l7.18671,-1.30611c0,0 -1.52355,4.39383 -1.40018,5.14383c0.5895,3.58362 4.76304,27.37402 4.76304,27.37402c0,0 -1.45398,0.51265 -2.73428,-1.30207c-2.29722,-3.25612 -4.46847,-10.01942 -6.32195,-12.03324c-1.6014,-1.73992 -6.00256,-3.94606 -6.00256,-3.94606z" fill="#5a5759" stroke-width="0"/><path d="M79.5797,180.03806l2.32728,-11.46184l2.32504,-0.22588l-3.42611,11.73852z" fill="#a5a0a2" stroke-width="0"/><path d="M86.3078,178.62148l-0.06907,-1.40105l26.46411,-1.30481l0.06907,1.40105z" fill="#494748" stroke-width="0"/><path d="M86.08095,175.65777l-0.06907,-1.40105l26.46411,-1.30481l0.06907,1.40105z" fill="#494748" stroke-width="0"/><path d="M67.77454,198.99532l-0.9917,-20.11389l11.75896,-10.20768l4.82333,-0.54995l-14.14765,43.5631l-5.70306,-1.72461z" fill="#dbd5d8" stroke-width="0"/><path d="M41.89486,212.2002l-0.73834,-11.76871l26.58329,-2.10115c0,0 0.45486,2.51839 0.36414,3.32233c-0.22611,2.00404 -1.88928,9.03228 -1.88928,9.03228z" fill="#ccc6c9" stroke-width="0"/><path d="M45.11925,200.63698l-0.01556,-0.3154l22.74653,-1.99101l-2.54392,1.31113c0,0 -4.30723,0.39879 -7.0142,0.50049c-3.70658,0.13924 -13.17287,0.49482 -13.17287,0.49482z" fill="#d8d1d5" stroke-width="0"/><path d="M48.44639,196.73163l-0.83716,-16.97938l16.10544,-0.79407l0.83716,16.97937z" fill="#a39999" stroke-width="0"/><path d="M41.62709,212.38339l-0.5594,-11.34551c0,0 9.14062,5.94375 13.53738,8.07042c4.39677,2.12666 10.87627,1.52686 10.87627,1.52686z" fill="#b4afb1" stroke-width="0"/><path d="M75.52702,216.76195c0,0 3.07705,0.89005 4.16476,0.6925c0.6682,-0.12135 1.74081,-1.76511 1.74081,-1.76511l2.10333,8.9805l0.20659,4.19001c0,0 -1.92534,0.40675 -3.33004,-2.10972c-1.159,-2.0763 -4.88545,-9.98818 -4.88545,-9.98818z" fill="#504e4f" stroke-width="0"/><path d="M68.91388,211.9624l12.38835,-42.40511l1.75156,0.11903l-12.26569,42.8098z" fill="#858183" stroke-width="0"/><path d="M50.09111,172.08495l1.43164,-1.72307c0,0 27.35065,-1.99319 39.74587,-2.60433c10.75821,-0.53043 31.92356,-1.22055 31.92356,-1.22055l0.62445,1.91297c0,0 -21.30621,0.34369 -32.64605,0.90278c-12.94862,0.63841 -41.07946,2.73223 -41.07946,2.73223z" fill="#918b8e" stroke-width="0"/><path d="M51.04744,170.80556l1.9258,-2.0387c0,0 25.83953,-1.62741 38.2348,-2.23857c10.75821,-0.53043 31.92356,-1.22055 31.92356,-1.22055l0.62445,1.91297c0,0 -21.30621,0.3437 -32.64605,0.90279c-12.94862,0.63841 -40.06251,2.68209 -40.06251,2.68209z" fill="#a59fa2" stroke-width="0"/><path d="M116.6014,188.38477l-2.20303,-5.58092c0,0 0.15206,-1.21396 0.47907,-1.34309c0.28812,-0.11372 1.38123,0.60873 1.38123,0.60873l2.20302,5.58092c0,0 -0.23258,0.89015 -0.52138,1.00415c-0.32663,0.12895 -1.33894,-0.2698 -1.33894,-0.2698z" fill="#494242" stroke-width="0"/><path d="M76.5061,193.01348l3.07145,-9.64868l3.88101,-0.19135l-3.07145,9.64868z" fill="#9c989a" stroke-width="0"/><path d="M85.18633,174.78776l1.80078,-1.05794l24.41007,-1.18545l2.06238,0.84939z" fill="#757274" stroke-width="0"/><path d="M85.41899,177.59099l1.80079,-1.05794l24.41007,-1.18545l2.06238,0.84939z" fill="#757274" stroke-width="0"/><path d="M39.16089,211.5208l-1.15912,-58.17118l1.94658,0.48544l1.72369,58.54503z" fill="#686666" stroke-width="0"/><path d="M39.01106,211.79885l-0.14671,-16.26824l2.47631,3.70098l0.2196,13.3154z" fill="#535252" stroke-width="0"/><path d="M68.59315,187.4378c0,0 2.00597,-2.44724 1.95934,-3.39288c-0.04576,-0.92797 -2.23653,-2.22902 -2.23653,-2.22902c0,0 3.03139,0.52104 3.01043,2.21243c-0.01597,1.28831 -0.95747,3.52639 -0.99044,4.63174c-0.0938,3.14287 -0.41976,10.51526 -0.41976,10.51526z" fill="#c4bec1" stroke-width="0"/><path d="M76.16567,185.15048l1.40724,-10.27717l2.33133,-4.47453l-2.18114,9.67734z" fill="#aca7a9" stroke-width="0"/></g></g><g stroke-width="0"><path d="M192.7107,151.53996l2.38794,-3.45099c0,0 1.73454,-1.52361 2.57198,-1.28957c0.95489,0.26685 2.85141,2.80509 2.85141,2.80509l-0.34028,4.10368c0,0 -4.27642,0.2033 -5.54773,0.13252c-0.57308,-0.03192 -1.92332,-2.30074 -1.92332,-2.30074z" fill="#c0c0c0"/><path d="M150.31921,163.29293c0,0 -0.31811,-2.86782 0.68368,-4.05746c1.25542,-1.49085 7.21906,-3.99978 7.21906,-3.99978l-0.47645,4.76633l0.14384,2.91766z" fill="#838383"/><path d="M150.14358,163.22712l7.72648,-7.87134l37.51676,-1.84976l0.36843,7.47222z" fill="#999999"/><path d="M151.10903,162.52229l5.86461,-6.13737l33.73134,-1.66311l0.28763,5.83403c0,0 -4.08262,0.20127 -9.33448,0.46022c-3.41453,0.16835 -7.37559,-0.69966 -10.97787,-0.52206c-3.86435,0.19053 -7.32374,1.42442 -9.4943,1.53142c-4.24798,0.20947 -10.07698,0.49685 -10.07698,0.49685z" fill="#d952b3"/><path d="M154.59693,162.34814l8.06799,-6.30827l12.449,-0.6138c0,0 -7.27323,2.26829 -9.59539,3.29843c-2.46529,1.09362 -5.56964,3.35975 -5.56964,3.35975z" fill="#a5899d"/><path d="M162.57083,161.84209c0,0 5.03111,-1.22133 7.48523,-1.34236c3.13578,-0.15461 9.79067,0.49056 9.79067,0.49056l-9.65886,0.14061z" fill="#adadad"/><path d="M150.24713,163.20385l6.9783,-7.10391l34.92423,-1.72193l0.0339,0.68774c0,0 -30.24005,1.49097 -34.18191,1.68532c-0.82446,0.04064 -7.75454,6.4528 -7.75454,6.4528z" fill="#8a8a8a"/><path d="M197.66425,167.10933l-0.48041,-9.7435l0.29531,-7.2252c0,0 1.20886,0.41088 1.78987,0.9464c0.58101,0.53554 1.01951,1.6431 1.01951,1.6431l-0.61372,14.28009z" fill="#9e9e9e"/><path d="M192.01094,163.15213c0,0 -1.01527,-2.07744 -1.23009,-3.65793c-0.28923,-2.1283 0.29354,-7.68195 0.29354,-7.68195l1.92303,-0.42056c0,0 0.79694,0.75345 1.2669,0.58094c0.64792,-0.23782 2.26121,-1.87597 2.26121,-1.87597l0.12916,12.8265z" fill="#9c9c9c"/><path d="M192.67434,164.95234c-0.83584,-1.06458 -0.6633,-2.44786 -0.6633,-2.44786l4.51716,-7.43183c0,0 1.58318,3.81046 1.62832,4.72581c0.12831,2.60238 1.36749,7.29671 1.36749,7.29671c0,0 -2.97235,0.23038 -4.03158,-0.15655c-1.27036,-0.46409 -1.98226,-0.92174 -2.81809,-1.98628z" fill="#888888"/><path d="M194.41478,164.09133c-1.08553,-1.94869 -2.31463,-6.35653 -0.67322,-10.50917c1.64144,-4.15265 4.1578,-2.14293 4.1578,-2.14293c0,0 1.22309,4.36805 1.33697,6.67809c0.10374,2.10429 -0.6812,6.62255 -0.6812,6.62255c0,0 -3.05487,1.30013 -4.14041,-0.64855z" fill="#b4b4b4"/><path d="M198.19257,156.20042c0.06949,1.40937 -5.03044,1.73829 -5.09994,0.32897c-0.06949,-1.40937 2.71951,-6.95561 3.53096,-6.99562c0.31426,-0.01549 0.96235,0.05454 1.21084,1.10424c0.39313,1.66072 0.31559,4.69887 0.35813,5.56241z" fill="#bbbbbb"/></g><g stroke-width="0"><path d="M134.29804,162.88798c0,0 -6.09162,-4.62296 -6.18387,-6.4941c-0.07531,-1.52779 5.94752,-1.94802 5.94752,-1.94802l7.53966,-0.29981l-3.48844,10.96404z" fill="#f399c8"/><path d="M103.88983,166.03089c0,0 -1.0722,-2.04754 -0.86809,-3.13163c0.22527,-1.19636 2.10556,-4.89836 2.10556,-4.89836l23.00104,-1.31995l9.53974,8.16329z" fill="#ee96c3"/></g></g><g stroke-width="0"><g><path d="M198.29095,141.62726l-0.30442,-6.17432l47.76019,-2.35479l0.30441,6.17433z" fill="#61585b"/><path d="M197.96818,138.39566l-0.16302,-3.30633l47.94176,-2.36374l0.16302,3.30633c0,0 -8.63038,0.42552 -17.49598,0.86263c-2.77187,0.13667 -6.59417,1.84422 -9.15546,1.97049c-3.04569,0.15018 -6.38686,-1.20417 -8.34054,-1.10786c-5.8582,0.28883 -12.94979,0.63849 -12.94979,0.63849z" fill="#494344"/><path d="M259.39525,128.75377l-10.25437,-18.45037l20.89386,-1.03017l16.23589,15.99419c0,0 -5.63619,1.64093 -8.85158,2.05805c-4.96162,0.64363 -18.02383,1.42832 -18.02383,1.42832z" fill="#5e555b"/><path d="M259.56648,132.18462l-0.27275,-5.53177c0,0 12.212,-2.05699 17.05979,-3.07659c3.84735,-0.80919 6.62094,-1.52867 6.62094,-1.52867l6.27387,6.63787c0,0 -5.24735,1.8568 -9.3683,2.50445c-5.58377,0.87753 -20.31355,0.99475 -20.31355,0.99475z" fill="url(#color-5)"/><path d="M247.45589,110.54548l-0.1968,-3.99134l19.12829,-0.94312l3.82877,3.81227z" fill="url(#color-6)"/><path d="M258.98465,132.23827l-0.06202,-1.25771c0,0 15.587,-0.84501 20.95871,-1.27761c4.01673,-0.32345 8.35417,-2.11607 8.35417,-2.11607l0.94419,1.09957l-8.11077,2.46293z" fill="#312c30"/><g><path d="M157.56555,126.62522l-0.66241,-8.83646l93.81137,-4.62535l8.18682,10.89185z" fill="#8a6672"/><path d="M174.49281,134.08632c0,0 -3.69282,-3.42808 -6.5661,-4.74978c-2.87325,-1.32171 -9.9142,-0.73683 -9.9142,-0.73683l0.00929,-2.09009c0,0 12.32197,-0.33078 19.34743,-0.58185c16.78291,-0.59976 80.9148,-3.00122 80.9148,-3.00122l3.94218,6.38063z" fill="#755761"/><path d="M177.46049,136.43396l-3.14938,-2.43966l87.456,-4.80194l1.35573,3.01803z" fill="#694e57"/><path d="M156.7581,118.1925l-0.22305,-4.52349l90.66253,-5.15025l4.12374,5.4648c0,0 2.91616,3.19829 -2.36489,3.43336c-1.6625,0.07399 -10.93822,-2.84123 -12.60487,-2.76706c-16.05105,0.71442 -79.59349,3.54268 -79.59349,3.54268z" fill="#916b77"/><path d="M156.77674,113.65719l-0.243,-2.51562l89.79287,-4.56611l1.16175,2.33788z" fill="#9e7582"/><path d="M230.84624,110.68992c-8.08995,-0.24985 -72.72615,1.90343 -72.72615,1.90343l87.74746,-4.32636l5.16139,7.19574c0,0 -12.09276,-4.52298 -20.18271,-4.77281z" fill="#b38f9a"/></g><path d="M208.29474,134.91084l-0.45176,-9.16263l20.18772,-0.99535l0.45176,9.16263z" fill="#3a3336"/><path d="M207.75545,125.75666l0.64063,-1.55589l18.51593,-0.91292l1.0589,1.47211z" fill="#4b4246"/><path d="M208.41015,134.40518l-0.40271,-8.16765c0,0 1.31717,5.20732 4.02637,6.18136c2.7092,0.97404 15.9999,1.01876 15.9999,1.01876z" fill="#332c30"/><path d="M248.81963,112.7048l-4.21071,-5.79968c0,0 0.98889,-0.71623 1.58877,-0.74582c0.67064,-0.03305 2.24657,0.55671 2.24657,0.55671l4.21071,5.79968z" fill="#757575"/><path d="M252.06952,117.2849l-6.05156,-8.32433l3.83533,-0.18909l6.05156,8.32433z" fill="#5a5a5a"/><path d="M256.62685,123.51701l-6.05156,-8.32433l3.83533,-0.1891l6.05155,8.32433z" fill="#505050"/><path d="M261.3395,129.97248c-1.03361,-1.42176 -5.06651,-6.96931 -5.06651,-6.96931l3.83533,-0.1891l7.11438,9.98831c0,0 -2.02693,0.63608 -2.97603,0.66804c-0.74031,0.02493 -2.45144,-2.87101 -2.90718,-3.49792z" fill="#3b3b3b"/><path d="M156.15329,129.29617l-0.91963,-18.65209l3.1771,-0.15664l0.91963,18.65209z" fill="#443e42"/><path d="M137.37875,131.82271l-0.97679,-5.88706l20.20403,-0.99614l0.29191,5.92081z" fill="url(#color-7)"/><path d="M136.43301,126.56554l-0.53415,-10.83383l20.20402,-0.99614l0.53416,10.83383z" fill="#5e555b"/><path d="M135.90506,115.8578l0.59405,-4.19657l19.40501,-0.95676l0.20497,4.15716z" fill="url(#color-8)"/><path d="M205.92511,108.43572l-0.30205,-6.12589l15.05653,0.32562l4.8486,4.47776z" fill="#5e555b"/><path d="M225.54577,107.46832l-4.86172,-4.74412c0,0 3.04653,0.54128 5.32124,1.42858c2.27471,0.88733 6.02152,2.996 6.02152,2.996z" fill="#776b73"/><path d="M202.96345,109.73869l3.13483,-1.40052l25.55583,-1.52701l3.71441,1.32981z" fill="#6d6269"/></g><g><path d="M209.54403,130.87431c-0.0615,-1.24729 0.39127,-2.42774 0.72869,-3.47521c0.47017,-1.45959 1.01344,-2.67562 2.26399,-3.5845c0.76385,-0.55514 1.88055,-1.00011 2.85648,-1.28886c0.64549,-0.19098 1.6237,-0.63976 2.32588,-0.67439c1.59175,-0.07849 1.93769,-0.01371 3.11046,0.42507c0.70643,0.26433 2.36604,0.63214 2.93346,1.2771c0.48027,0.5459 1.00221,1.46987 1.37696,2.13185c0.64042,1.13129 1.53373,2.95403 1.60211,4.34099c0.0289,0.5861 -0.39654,1.94719 -0.42077,2.46445c-0.07689,1.64223 -0.05253,2.15126 -1.21021,3.31316c-0.70362,0.7062 -2.18207,1.32755 -3.14446,1.7855c-0.9967,0.47426 -2.22833,1.4021 -3.39958,1.45984c-0.79053,0.03899 -2.24323,-0.42501 -3.01582,-0.52329c-1.6761,-0.21318 -2.57569,-0.34348 -3.66012,-1.4316c-0.92989,-0.93308 -1.26897,-2.51663 -1.69959,-3.85467c-0.22623,-0.70293 -0.60941,-1.5928 -0.6475,-2.36549z" fill="#3a3a3a"/><path d="M210.26832,130.71985c-0.05629,-1.14139 0.35805,-2.22161 0.66683,-3.18013c0.43026,-1.33566 0.92739,-2.44844 2.07178,-3.28015c0.69899,-0.508 1.72088,-0.91518 2.61394,-1.17941c0.59068,-0.17478 1.48586,-0.58545 2.12838,-0.61713c1.45659,-0.07183 1.77319,-0.01253 2.84638,0.389c0.64645,0.24187 2.16516,0.57846 2.68441,1.16867c0.4395,0.49954 0.91711,1.34508 1.26002,1.95083c0.58602,1.03525 1.4035,2.7032 1.46606,3.9724c0.02643,0.53634 -0.36286,1.78185 -0.38503,2.25519c-0.07035,1.50281 -0.04808,1.9686 -1.10745,3.03186c-0.64389,0.64623 -1.99679,1.21485 -2.87748,1.63391c-0.91208,0.43397 -2.03912,1.28307 -3.11094,1.33591c-0.72343,0.03566 -2.0528,-0.38894 -2.75974,-0.47886c-1.5338,-0.19511 -2.35699,-0.3143 -3.34932,-1.31003c-0.85095,-0.85387 -1.16123,-2.30295 -1.55526,-3.52738c-0.20701,-0.64323 -0.55767,-1.45758 -0.59253,-2.16464z" fill="#5a5a5a"/><path d="M222.22248,125.59558c-2.15995,-2.28217 -7.25712,-2.23171 -7.25712,-2.23171c0,0 1.91331,-0.635 3.90141,-0.7261c1.61039,-0.07378 3.19879,0.21278 4.42102,1.45515c1.22318,1.24333 1.6897,2.70684 2.04488,4.08647c0.69638,2.70499 0.37692,5.11642 0.37692,5.11642c0,0 -1.32712,-5.41805 -3.48706,-7.70022z" fill="#6d6d6d"/><path d="M217.14914,130.87068c-0.02836,-0.57499 0.41482,-1.06413 0.98983,-1.09249c0.57499,-0.02836 1.06414,0.41482 1.09249,0.98983c0.02836,0.57499 -0.41482,1.06414 -0.98983,1.09249c-0.57499,0.02836 -1.06413,-0.41482 -1.09249,-0.98983z" fill="#272727"/><path d="M217.07696,131.0112c-0.02599,-0.52737 0.38045,-0.97602 0.90786,-1.00201c0.52737,-0.02599 0.97602,0.38044 1.002,0.90785c0.02599,0.52737 -0.38044,0.97603 -0.90785,1.00201c-0.52737,0.02599 -0.97602,-0.38044 -1.002,-0.90785z" fill="#131313"/></g></g></g></g></g><path d="M392.40349,171.65918c4.94598,0.84016 5.23352,7.66616 3.39949,15.49927c-1.83404,7.83313 -6.32958,13.59386 -10.04108,12.86698c-3.7115,-0.72688 -5.23351,-7.66616 -3.39948,-15.49927c1.83404,-7.83313 4.34296,-13.83488 10.04107,-12.86698z" data-paper-data="{&quot;index&quot;:null}" fill="#86c8f5" stroke-width="0"/><path d="M367.20151,183.76908c1.94569,-7.80615 3.99935,-11.98622 9.68304,-10.93704c4.93349,0.91069 5.66423,5.95487 3.71856,13.76102c-1.94569,7.80616 -6.52303,13.5021 -10.22377,12.7223c-3.70074,-0.7798 -5.12352,-7.74009 -3.17784,-15.54622z" data-paper-data="{&quot;index&quot;:null}" fill="#86c8f5" stroke-width="0"/><path d="M354.20809,188.53656c1.94569,-7.80615 4.79601,-14.95648 10.47969,-13.90729c4.93349,0.91069 4.86759,8.92508 2.92191,16.73121c-1.94569,7.80615 -6.09762,9.37778 -9.79839,8.59798c-3.70075,-0.77981 -5.5489,-3.61576 -3.60322,-11.42191z" data-paper-data="{&quot;index&quot;:null}" fill="#86c8f5" stroke-width="0"/><path d="M352.22068,177.31901c4.93349,0.91069 5.66423,5.95487 3.71856,13.76102c-1.94569,7.80615 -6.09762,9.37779 -9.79839,8.59798c-3.70075,-0.77981 -5.5489,-3.61577 -3.60322,-11.42192c1.94569,-7.80615 3.99935,-11.98623 9.68304,-10.93704z" data-paper-data="{&quot;index&quot;:null}" fill="#86c8f5" stroke-width="0"/><g stroke-width="0"><g><path d="M130.4727,262.78331l-0.27489,-5.57515c0,0 2.24741,0.06743 3.05346,-0.93713c1.13884,-1.41927 3.3564,-6.67468 3.3564,-6.67468l1.03153,8.05273c0,0 -2.91891,3.34631 -4.41128,4.31838c-1.07749,0.70183 -2.75523,0.81584 -2.75523,0.81584z" fill="#4d484c"/><g><g><path d="M89.22742,253.45309l3.81946,-5.75713c0,0 15.4425,-9.72104 21.85309,-13.93338c4.93124,-3.24025 12.79432,-8.58469 12.79432,-8.58469l3.9289,26.18487z" fill="#eb59c1"/><path d="M90.14153,242.27042l-2.02636,-29.20964c0,0 19.53629,7.80852 26.55464,10.42282c5.09296,1.89711 12.59423,10.80153 12.59423,10.80153l-5.54496,6.4284z" fill="#dd54b6"/><path d="M87.84349,225.38416l-1.20688,-30.42244c0,0 13.22661,13.11034 17.88936,13.64709c6.90932,0.79534 19.58544,-2.59855 19.58544,-2.59855l1.28301,26.02226z" fill="#ff77d8"/><path d="M89.54827,212.40391l-0.69198,-14.03446l33.18773,-4.56728l3.17522,16.84301z" fill="#ee51c1"/></g><g><g><path d="M86.07583,243.08999l-7.04421,-40.5088l8.39115,-0.41372l7.04421,40.50879z" fill="#a59da1"/><path d="M79.0058,202.7733c0,0 -0.9953,-4.44857 0.73721,-5.81734c1.73252,-1.36876 6.79607,-1.87196 6.79607,-1.87196l0.87155,7.27492z" fill="#b9b0b5"/><path d="M88.37794,253.63452l-2.24489,-10.5751l8.35105,-0.41175l2.2449,10.57511z" fill="#8b8488"/></g><g><path d="M126.05144,237.71812l-7.0442,-40.50878l4.53368,-0.22353l7.0442,40.50877z" fill="#a59da1"/><path d="M119.21564,198.19765l-1.13095,-6.39328c0,0 2.89765,-0.82411 4.00852,0.27224c1.11088,1.09634 1.43557,5.10063 1.43557,5.10063z" fill="#b9b0b5"/><path d="M128.34106,248.26329l-2.2449,-10.5751l4.5061,-0.22218l2.2449,10.5751z" fill="#8b8488"/></g><path d="M89.75834,262.15284c0,0 -3.40128,-2.57842 -3.87155,-4.04163c-0.52353,-1.6288 0.87298,-5.28788 0.87298,-5.28788l47.39308,-6.73691c0,0 2.12661,2.23183 2.6208,3.69564c0.69268,2.0517 -3.26986,7.16761 -3.26986,7.16761z" fill="#494547"/><path d="M87.05751,198.99437c0,0 -2.34151,-0.45257 -2.79997,-1.00492c-0.50345,-0.60655 0.67472,-2.74979 0.67472,-2.74979c0,0 11.97959,-1.60382 17.23448,-2.18546c6.126,-0.67805 16.53744,-1.37541 16.53744,-1.37541c0,0 0.59071,1.19628 0.53489,1.79714c-0.05405,0.58194 -0.46179,1.73319 -0.46179,1.73319z" fill="#c2b8bd"/><path d="M90.053,260.91611c0,0 -1.37293,-2.77104 -1.69722,-4.4327c-0.26915,-1.379 -0.05516,-3.64964 -0.05516,-3.64964l44.5917,-6.26029c0,0 2.1812,3.04923 2.26308,4.7099c0.08797,1.78401 -1.81136,4.45199 -1.81136,4.45199z" fill="#6f696b"/><path d="M101.42899,265.79152l-0.27489,-5.57514l29.67829,-3.07002l0.27489,5.57514z" fill="#333032"/><path d="M89.9161,266.48076c-1.14128,-0.59244 -2.89142,-1.97367 -2.89142,-1.97367l-1.20457,-6.76826c0,0 2.58259,2.14781 3.85552,3.44817c0.90099,0.92042 11.52034,-1.08431 11.52034,-1.08431l0.27489,5.57514c0,0 -10.41349,1.39535 -11.55476,0.8029z" data-paper-data="{&quot;index&quot;:null}" fill="#444043"/><g><path d="M87.10101,213.9786c0,0 -2.81512,-4.60911 -2.92719,-6.3479c-0.07759,-1.20383 2.31933,-3.08338 2.31933,-3.08338l34.8705,-4.74737c0,0 1.74561,3.04157 1.8458,4.59593c0.10239,1.58863 -1.23794,4.8353 -1.23794,4.8353z" fill="#979797"/><path d="M87.10189,212.91116c0,0 -2.8092,-4.06384 -2.91905,-5.5981c-0.07606,-1.06226 2.32327,-2.72398 2.32327,-2.72398l34.87607,-4.23407c0,0 1.74172,2.68187 1.83988,4.05346c0.10035,1.40181 -1.24413,4.26861 -1.24413,4.26861z" fill="#a2a2a2"/></g><g><path d="M90.29339,230.38093c0,0 -2.81513,-4.6091 -2.92719,-6.34789c-0.07759,-1.20383 2.31933,-3.08338 2.31933,-3.08338l34.8705,-4.74736c0,0 1.74561,3.04156 1.8458,4.59593c0.10239,1.58863 -1.23794,4.83529 -1.23794,4.83529z" fill="#979797"/><path d="M90.29423,229.31354c0,0 -2.80919,-4.06381 -2.91903,-5.59811c-0.07607,-1.06223 2.32326,-2.72399 2.32326,-2.72399l34.87607,-4.23405c0,0 1.74172,2.68187 1.83988,4.05345c0.10033,1.40181 -1.24413,4.26861 -1.24413,4.26861z" fill="#a2a2a2"/></g><g><path d="M93.61704,247.27266c0,0 -2.81513,-4.6091 -2.92719,-6.34789c-0.07759,-1.20384 2.31933,-3.08338 2.31933,-3.08338l34.87049,-4.74736c0,0 1.74562,3.04156 1.8458,4.59593c0.10239,1.58862 -1.23794,4.83529 -1.23794,4.83529z" fill="#7a7a7a"/><path d="M93.61787,246.20529c0,0 -2.8092,-4.06384 -2.91905,-5.59811c-0.07607,-1.06224 2.32325,-2.72398 2.32325,-2.72398l34.87608,-4.23404c0,0 1.74171,2.68187 1.83988,4.05345c0.10033,1.40181 -1.24413,4.26862 -1.24413,4.26862z" fill="#929292"/></g></g></g></g><path d="M86.88565,247.00877c0,0 -0.46961,-1.69537 -0.88781,-3.98816c-1.22785,-6.73147 -7.20214,-40.36409 -7.20214,-40.36409l3.37604,4.14175l4.84069,29.22179z" fill="#777275"/></g><path d="M142.21651,250.43185c-0.13079,-1.57927 -7.89357,-43.70823 -7.53817,-45.41856c0.47981,-2.30927 9.04354,-1.66338 11.87307,-3.41072c8.66599,-5.35153 18.06685,-10.73301 18.06685,-10.73301c0,0 14.06826,-0.58287 18.2903,-0.93255c3.15734,-0.26153 63.56596,-13.78469 65.15689,-3.55955c2.15794,13.86915 -29.54,2.23644 -28.53863,14.32567c0.25349,3.06044 6.26401,3.42145 5.96002,6.60463c-0.07299,0.76399 -1.98916,6.11932 -2.07435,7.80821c-0.13529,2.68088 3.47904,6.39769 0.43602,9.75965c-2.42571,2.67993 -0.08621,7.52019 -0.62241,8.78439c-3.69529,8.71172 -28.55133,8.79023 -37.5334,9.53427c-10.64955,0.88216 -25.83922,5.87642 -35.29293,5.41793c-4.08082,-0.19797 -7.8024,6.41672 -8.1832,1.81973z" fill="#86c8f5" stroke-width="0"/></g></g></svg>