<svg version="1.1" xmlns="http://www.w3.org/2000/svg" xmlns:xlink="http://www.w3.org/1999/xlink" width="459.28443" height="177.81912" viewBox="0,0,459.28443,177.81912"><defs><linearGradient x1="549.14186" y1="225.03031" x2="547.63588" y2="229.60015" gradientUnits="userSpaceOnUse" id="color-1"><stop offset="0" stop-color="#1f1d20"/><stop offset="1" stop-color="#202022"/></linearGradient><linearGradient x1="551.07895" y1="220.55677" x2="549.34615" y2="225.8148" gradientUnits="userSpaceOnUse" id="color-2"><stop offset="0" stop-color="#302d31"/><stop offset="1" stop-color="#1f1e20"/></linearGradient><linearGradient x1="218.06997" y1="161.42638" x2="217.0089" y2="164.64608" gradientUnits="userSpaceOnUse" id="color-3"><stop offset="0" stop-color="#585758"/><stop offset="1" stop-color="#575758"/></linearGradient><linearGradient x1="202.46113" y1="166.89415" x2="201.62814" y2="169.42182" gradientUnits="userSpaceOnUse" id="color-4"><stop offset="0" stop-color="#363536"/><stop offset="1" stop-color="#353536"/></linearGradient><linearGradient x1="367.67046" y1="123.62805" x2="365.93697" y2="128.88823" gradientUnits="userSpaceOnUse" id="color-5"><stop offset="0" stop-color="#5e555b"/><stop offset="1" stop-color="#2b2629"/></linearGradient><linearGradient x1="364.87177" y1="100.94542" x2="363.62099" y2="104.74082" gradientUnits="userSpaceOnUse" id="color-6"><stop offset="0" stop-color="#72676e"/><stop offset="1" stop-color="#5e555b"/></linearGradient><linearGradient x1="253.24028" y1="78.79123" x2="251.38483" y2="84.42141" gradientUnits="userSpaceOnUse" id="color-7"><stop offset="0" stop-color="#5e555b"/><stop offset="1" stop-color="#4d454a"/></linearGradient><linearGradient x1="257.70116" y1="65.25506" x2="256.39839" y2="69.20818" gradientUnits="userSpaceOnUse" id="color-8"><stop offset="0" stop-color="#74686f"/><stop offset="1" stop-color="#5e555b"/></linearGradient></defs><g transform="translate(-95.21023,-56.0202)"><g data-paper-data="{&quot;isPaintingLayer&quot;:true}" fill-rule="nonzero" stroke="none" stroke-linecap="butt" stroke-linejoin="miter" stroke-miterlimit="10" stroke-dasharray="" stroke-dashoffset="0" style="mix-blend-mode: normal"><path d="M201.94608,201.2751c-2.47547,8.31276 -8.18253,12.02278 -24.8953,7.04583c-6.19913,-1.84604 -16.42557,-6.53284 -21.48813,-7.30496c-3.76251,-0.57385 -7.46822,0.63277 -9.21244,-1.85399c-2.23606,-3.18797 3.53069,-22.1833 4.40553,-25.12107c2.47547,-8.31276 25.98178,-8.6397 42.69451,-3.66275c16.71275,4.97695 10.97129,22.58418 8.49581,30.89694z" fill="#86c8f5" stroke-width="0"/><g><g><g stroke-width="0"><path d="M281.0655,166.40204l-4.91322,-17.77624l24.47515,7.4444c0,0 -2.86764,5.19215 -3.90213,7.69251c-1.00067,2.4187 -2.20665,7.07284 -2.20665,7.07284z" fill="#7f7d7e"/><path d="M281.09738,166.61972l-1.70179,-6.46437c0,0 1.12735,4.11466 4.00848,5.71137c2.0747,1.14978 3.9631,1.44577 6.4094,2.58972c2.4463,1.14395 4.5502,2.53525 4.5502,2.53525z" fill="#6c6a6b"/></g><g><g><g><path d="M544.79505,228.66395l-0.44953,-5.21428c0,0 5.17153,3.44984 7.35898,5.1108c2.18742,1.66097 0.37064,2.25847 0.37064,2.25847z" fill="url(#color-1)" stroke-width="0"/><path d="M554.42092,221.86829c0,0 0.67669,2.67394 -2.0696,2.709c-2.74634,0.03507 -5.88632,0.28802 -5.88632,0.28802l0.81092,-5.56187z" data-paper-data="{&quot;index&quot;:null}" fill="url(#color-2)" stroke-width="0"/><path d="M535.66186,225.64926l0.6568,-1.99292l14.03032,4.62371c0,0 0.94578,1.14802 1.29445,1.64856c0.31343,0.44997 -0.99179,0.66058 -0.99179,0.66058z" fill="#444444" stroke-width="NaN"/><path d="M536.30574,223.80312l-0.58189,-2.03844l11.98179,3.94861l2.70952,2.62189c0,0 -4.08042,-1.09412 -6.27488,-1.799c-2.47488,-0.79497 -7.83456,-2.73308 -7.83456,-2.73308z" fill="#535353" stroke-width="0"/><path d="M535.57458,221.85943l-0.10812,-0.70948l10.89727,3.5912l1.43624,1.02685z" fill="#363636" stroke-width="0"/><path d="M535.66186,225.64926l0.35629,-1.08116c0,0 5.98737,2.45076 8.72247,3.3521c2.31775,0.76381 6.64431,1.71206 6.64431,1.71206c0,0 0.67604,0.70949 0.84742,0.97957c0.1446,0.22787 -0.3843,0.37165 -0.3843,0.37165c0,0 -4.62155,-1.09718 -6.81904,-1.82133c-2.96471,-0.97702 -9.36714,-3.51286 -9.36714,-3.51286z" fill="#3a3a3a" stroke-width="NaN"/><path d="M535.76553,221.26773l-0.2491,-1.01256l12.95622,4.26974l-2.0173,0.30139z" fill="#242424" stroke-width="0"/><path d="M534.68975,220.18198l0.51779,-1.5712c0,0 7.75124,2.33731 10.59646,3.27498c1.93847,0.63885 4.82425,1.80694 4.82425,1.80694l-2.18869,0.84686z" fill="#3a3a3a" stroke-width="0"/><path d="M535.07115,218.61066l0.63931,-1.93991c0,0 7.372,2.08211 10.51975,3.11945c2.72388,0.89767 7.27971,2.7464 7.27971,2.7464l-2.936,1.18304c0,0 -3.44547,-1.22227 -5.5771,-1.92478c-2.83348,-0.93376 -9.92564,-3.1842 -9.92564,-3.1842z" fill="#444444" stroke-width="0"/><path d="M535.64285,216.73802l0.26639,-0.80831c0,0 7.51693,2.34695 10.9334,3.47288c2.37895,0.78399 7.60426,2.63622 7.60426,2.63622l-1.08795,0.53755c0,0 -4.7097,-1.85603 -7.52594,-2.78412c-3.10275,-1.02254 -10.19017,-3.05425 -10.19017,-3.05425z" fill="#535353" stroke-width="0"/><path d="M535.75954,215.97001l0.10657,-0.32334c0,0 7.44932,1.92109 10.73582,3.00415c2.84144,0.93642 7.84286,3.1185 7.84286,3.1185l-0.07086,0.3351c0,0 -5.65534,-2.03739 -8.73732,-3.05308c-3.12226,-1.02897 -9.87703,-3.08131 -9.87703,-3.08131z" fill="#4e4e4e" stroke-width="0"/></g><g stroke-width="0"><g><g><g><path d="M530.25496,223.35359l-0.23145,-13.93631l1.06399,-1.46177c0,0 2.28949,4.15455 2.38604,6.8085c0.05241,1.44081 -1.83711,9.04483 -1.83711,9.04483z" fill="#383638"/><path d="M531.4697,223.02593c0,0 0.24627,-0.56077 0.41759,-3.0891c0.18684,-2.7572 0.0027,-6.64735 -0.03452,-7.79041c-0.08362,-2.5658 -0.75973,-2.92602 -0.75973,-2.92602l4.74091,0.9498l0.47089,14.44914z" fill="#555355"/><path d="M531.12709,209.32155l-0.16561,-1.35636c0,0 2.16908,-0.12752 3.08239,0.17347c0.85582,0.28204 1.7064,1.32811 1.7064,1.32811l0.14283,1.42542z" fill="#686668"/></g><path d="M524.86727,221.57807l-0.23145,-13.93629l0.74349,-1.54618c0,0 2.61002,4.23895 2.70655,6.89287c0.05241,1.4408 -1.8371,9.04483 -1.8371,9.04483z" fill="#383638"/><path d="M526.08201,221.25038c0,0 0.24628,-0.56078 0.4176,-3.0891c0.18684,-2.7572 0.00271,-6.64734 -0.03451,-7.79041c-0.08362,-2.5658 -0.75974,-2.92602 -0.75974,-2.92602l4.1851,0.24016c0,0 0.58198,1.5124 0.60748,2.29445c0.07263,2.22814 0.41925,12.86431 0.41925,12.86431z" fill="#555355"/><path d="M525.73942,207.54598l-0.37284,-1.42466c0,0 2.37631,-0.05921 3.28962,0.24178c0.85582,0.28204 1.43012,1.23703 1.43012,1.23703l0.26158,1.46455z" fill="#686668"/><path d="M532.55797,222.33824c0.25649,-0.77834 1.09541,-1.20135 1.87377,-0.94487c0.77836,0.25649 1.20135,1.09541 0.94486,1.87376c-0.25649,0.77834 -1.09541,1.20136 -1.87375,0.94487c-0.77836,-0.25649 -1.20134,-1.09541 -0.94487,-1.87376z" fill="#312f31"/><path d="M534.0975,219.76133l-0.1629,-5.89363l1.55626,0.36194l0.1427,5.95492z" fill="#444144"/></g><path d="M489.06547,204.55033l-0.18784,-11.45804l28.01267,10.47035l-3.4664,9.01506z" fill="#444444"/><path d="M502.29674,204.78809c0,0 0.76739,-0.29665 1.79921,-1.11997c0.94343,-0.75274 2.13311,-2.02205 2.64358,-2.34212c1.46039,-1.3155 3.57331,-0.12766 3.57331,-0.12766l-1.13477,0.31365l-5.7959,3.6338z" fill="#292929"/><path d="M501.65978,215.66465l-2.753,-12.4591c0,0 3.15664,1.59968 5.10304,1.13652c1.5125,-0.35994 2.24687,-2.88912 3.83289,-2.6622c4.55041,0.65104 16.91386,4.26859 16.91386,4.26859c0,0 0.84104,7.80012 0.81805,10.83234c-0.01586,2.09332 -1.01221,6.43144 -1.01221,6.43144z" fill="#4a464a"/><path d="M509.69193,204.50963c-4.13257,-2.0316 -2.33723,-2.87604 -2.33723,-2.87604c0,0 1.16048,-0.9887 2.97971,-0.54304c4.46441,1.09361 12.49262,4.34675 14.13635,4.86144c0.77518,0.24272 0.11138,0.76932 0.11138,0.76932c0,0 -2.16133,1.79991 -3.71357,1.55585c-1.55224,-0.24406 -7.04409,-1.7359 -11.17665,-3.76753z" fill="#5e595e"/></g><g><path d="M488.39091,218.21502l0.71171,-18.64977l17.86814,6.18992l3.20358,5.61309l5.82361,1.81542l-1.38152,13.674z" fill="#4d4846"/><path d="M492.7246,220.05079l22.55784,-2.45441l21.27599,6.7563c0,0 -0.06312,4.38336 -0.35134,5.7146c-0.14696,0.67873 -1.06865,2.74765 -1.06865,2.74765z" fill="#423d3b"/><path d="M491.70375,210.96369l0.06205,-10.34659l0.77928,0.25681l-0.06204,10.34659z" fill="#363332"/><path d="M493.53165,219.47276l0.38104,-1.15622c0,0 5.79667,-0.76981 14.40609,2.06742c1.1439,0.37699 4.38205,4.12422 5.535,4.50419c7.31515,2.4107 14.4752,4.77032 17.19921,5.66801c2.21842,0.73109 4.89066,0.24295 4.89066,0.24295l-0.78794,2.39089z" fill="#312e2c"/><path d="M499.77006,208.11442l-0.21141,-4.92921l7.89028,2.60025l2.56239,5.49967l5.92891,2.15821l-7.81832,-0.52472z" fill="#585350"/><path d="M488.56055,211.81764l0.35314,-1.07151c0,0 8.81331,-1.03722 11.54596,-0.13666c4.11848,1.35726 15.48831,5.1042 15.48831,5.1042l-0.35313,1.07151c0,0 -11.56476,-3.81117 -15.68315,-5.1684c-2.67652,-0.88205 -11.35115,0.20087 -11.35115,0.20087z" fill="#2b2827"/></g></g></g><g><g><g><path d="M157.39134,147.5908c-0.18561,2.291 -1.28998,4.6536 -2.40882,4.56293c-1.11884,-0.09064 -1.82853,-2.60015 -1.64292,-4.89119c0.18561,-2.291 0.84109,-11.09879 1.95997,-11.00815c1.11884,0.09064 2.27743,9.04537 2.09181,11.33643z" fill="#615e5f" stroke-width="0"/><g><path d="M206.26157,132.18381c-0.34709,-0.66993 -2.15939,-2.64897 -2.15939,-2.64897l10.323,0.3696l-7.95206,4.9603c0,0 0.13556,-2.01101 -0.21152,-2.68091z" fill="#756a6a" stroke-width="0"/><path d="M198.21972,127.74664l4.29844,-13.04331l19.43837,0.22892l-6.13465,18.61521z" fill="#8a7c7c" stroke-width="0"/><path d="M158.49061,120.38907l12.00731,-15.13562l33.21986,10.80728l0.34097,13.44913c0,0 -22.32808,-5.69883 -29.92955,-7.22032c-3.15543,-0.63159 -15.6386,-1.90046 -15.6386,-1.90046z" fill="#7c787a" stroke-width="0"/><path d="M169.85763,107.57449l0.32299,-1.45342c0,0 24.62166,8.11408 32.36202,10.66492c4.33073,1.4272 17.33067,-0.99602 17.33067,-0.99602l-0.51005,1.54776c0,0 -12.71449,2.497 -16.89831,1.10279c-7.67153,-2.55647 -32.60734,-10.86601 -32.60734,-10.86601z" fill="#535353" stroke-width="0"/><path d="M127.80138,111.02069l6.30806,-19.14136c0,0 6.51136,-5.28147 14.11021,-5.19472c9.43805,0.10779 24.91953,7.08928 26.88614,7.73737c1.50917,0.49735 -15.51941,5.85331 -15.51941,5.85331l-6.30806,19.14138z" fill="#8d898b" stroke-width="0"/><path d="M306.50148,121.32762l2.50623,-2.48466l102.11589,33.80282l-4.61547,14.00532c0,0 -36.46001,-10.07227 -47.93654,-14.29252c-5.69958,-2.09589 -52.07008,-31.03097 -52.07008,-31.03097z" fill="#c98cac" stroke-width="0"/><path d="M254.31357,210.47234l-0.26635,-13.70857c0,0 3.05218,7.15425 5.41971,9.0683c1.50841,1.21949 5.40273,2.90483 11.96937,2.50251c5.28639,-0.32387 11.92021,-3.94003 11.92021,-3.94003l-15.74283,10.46085z" fill="#a08e97" stroke-width="0"/><path d="M354.94108,194.23624l5.17286,-23.16633l18.05454,4.47293l-6.63451,20.13199c0,0 -6.61402,-0.36958 -9.45876,-0.57185c-1.30984,-0.09313 -7.13409,-0.86671 -7.13409,-0.86671z" fill="#96858d" stroke-width="0"/><path d="M251.39584,213.4548l1.73403,-5.26181c0,0 10.80968,5.74031 16.17405,4.22171c2.61069,-0.73906 25.16745,-15.34533 37.6253,-23.4872c4.86164,-3.17735 8.18528,-5.37021 8.18528,-5.37021c0,0 4.37154,-2.53217 5.27749,-5.26829c0.45572,-1.37641 2.20995,-5.19807 2.14363,-7.65355c-0.06692,-2.47743 -1.95645,-3.58271 -1.95645,-3.58271l-0.37933,-14.41531l18.77541,6.33873l-11.08048,24.32755l2.76752,3.60944c0,0 -10.95293,2.70797 -16.90034,5.96588c-9.30555,5.09736 -41.02991,26.6349 -41.02991,26.6349z" fill="#918189" stroke-width="0"/><path d="M332.81516,187.31601l10.10541,-26.78684l12.99718,4.57359l6.08636,14.64288l-7.23855,14.8042z" fill="#96858d" stroke-width="0"/><path d="M327.93916,187.65613l-1.08561,-4.72286l11.55841,-23.76632l4.85112,1.5095l-9.58912,26.9389z" fill="#8f8187" stroke-width="0"/><path d="M353.56085,194.26186c0,0 4.70022,-5.47081 5.10903,-11.03316c0.23536,-3.20278 -3.81226,-6.6106 -3.66798,-8.57401c0.27568,-3.7506 0.7021,-9.55287 0.7021,-9.55287l6.09455,6.6033c0,0 0.97715,7.91741 0.21103,12.15188c-0.51469,2.84494 -3.91948,8.43619 -5.61298,10.61446c-0.14276,0.18363 -1.23377,-0.26359 -1.33454,-0.12273c-0.24618,0.34409 0.59717,0.86557 0.59717,0.86557z" fill="#86787e" stroke-width="0"/><path d="M361.12526,173.0625c0,0 -1.69766,-4.72362 -5.84079,-7.11204c-4.69047,-2.70393 -20.8644,-8.28266 -20.8644,-8.28266l154.25073,35.90147l0.3325,9.90347l4.03245,13.06105c0,0 -94.9228,-33.98941 -114.4767,-40.43341c-6.38072,-2.10277 -17.43379,-3.03787 -17.43379,-3.03787z" fill="#df8db7" stroke-width="0"/><path d="M199.85777,169.69819l6.79524,-35.94923c0,0 2.77258,-3.03538 3.31608,-3.08335c5.9922,-0.5289 39.7531,-0.61829 44.82944,1.35605c5.56086,2.16278 -12.53136,8.76008 -12.53136,8.76008c0,0 -14.3199,-2.58602 -18.0603,0.65602c-5.07832,4.40178 -5.90604,22.4006 -5.90604,22.4006z" fill="#c77da3" stroke-width="0"/><path d="M278.00689,163.94012l-1.04065,-2.55959c0,0 8.92323,-6.12119 11.95215,-7.53704c3.12706,-1.46173 6.52513,-1.10007 6.52513,-1.10007l4.91667,4.04426c0,0 -4.09387,-1.87831 -6.87603,-0.9881c-2.38838,0.76422 -6.91556,2.51382 -10.54296,4.57432c-2.63867,1.49888 -4.93432,3.56618 -4.93432,3.56618z" fill="#414041" stroke-width="0"/><path d="M169.88179,106.48079l8.21756,-9.59981l46.18512,15.22036c0,0 -4.14749,3.32443 -7.72572,4.21534c-3.51193,0.87442 -13.54848,1.08164 -13.54848,1.08164z" fill="#979395" stroke-width="0"/><path d="M170.99929,105.64571l7.45777,-9.85023l46.18512,15.22037c0,0 -4.1475,3.32442 -7.72573,4.21533c-3.51193,0.87442 -13.54849,1.08164 -13.54849,1.08164z" fill="#bdb7ba" stroke-width="0"/><path d="M355.74766,195.32019l-1.61808,-1.07389l17.30901,1.30854c0,0 -4.02544,0.83966 -6.63401,0.81905c-2.60859,-0.02057 -9.05689,-1.05371 -9.05689,-1.05371z" fill="#887980" stroke-width="0"/><path d="M202.07319,170.91733c0,0 1.053,-10.67212 2.58471,-19.15749c1.53923,-8.52679 3.00685,-16.51554 4.10787,-19.92703c0.18655,-0.57796 4.86004,-9.49383 5.49791,-9.8326c3.443,-1.82869 8.37215,7.94898 14.00211,8.64239c8.33608,1.02673 26.64536,6.51928 26.64536,6.51928l-9.69115,2.39789c0,0 -19.36913,-3.36643 -23.24854,0.76412c-5.24726,5.58698 -4.5899,27.78061 -4.5899,27.78061z" fill="#d486ae" stroke-width="0"/><path d="M204.24926,167.92944c0,0 6.4661,-40.90289 10.88035,-50.05825c2.06539,-4.28368 1.72983,-13.98397 1.72983,-13.98397l45.94034,22.47702l-3.67742,15.70825c0,0 -29.46418,-12.9668 -37.45923,-8.9957c-5.33698,2.65083 -7.70989,31.60604 -7.70989,31.60604z" fill="#e490bb" stroke-width="0"/><g stroke-width="0"><path d="M355.43476,151.42653l2.58999,-7.85911l8.8897,2.92962l-2.58999,7.85912z" fill="#454545"/><path d="M356.46466,150.96067l1.94542,-7.04306l10.7571,3.54501l-2.28426,6.9314z" fill="#b0b0b0"/><path d="M357.65073,146.62501l0.66878,-2.75964l10.96287,3.61282l-0.597,1.81156c0,0 -7.50223,-2.13286 -9.15961,-2.53311c-0.55381,-0.13372 -1.87507,-0.13165 -1.87507,-0.13165z" fill="#bebebe"/><path d="M367.29565,153.95142c0,0 -4.4625,-4.16116 -2.74718,-7.54183c2.54893,-5.02362 6.31342,-3.27964 6.31342,-3.27964l37.80312,13.86193l-3.14891,9.55512z" fill="#9c989a"/><path d="M369.39666,153.28637c0,0 -1.2604,-4.12048 -1.20221,-5.07715c0.08628,-1.4181 2.90647,-3.60247 2.90647,-3.60247l39.49535,13.05086l-2.72379,6.98722z" fill="#898587"/><path d="M369.2488,153.44641l-0.36135,-2.16108l36.31079,11.96628l-0.60701,1.84195z" fill="#c1bcbf"/><path d="M370.196,150.18506c0,0 -0.83818,-1.71658 -0.54481,-2.60683c0.27445,-0.83274 2.25204,-2.57367 2.25204,-2.57367l36.72387,12.1024l-1.70723,5.18047z" fill="#0d0d0d"/><path d="M369.95269,150.9233c0,0 -0.6492,-2.29 -0.35581,-3.18026c0.27445,-0.83274 2.06304,-2.00023 2.06304,-2.00023l36.72387,12.1024l-1.70722,5.18048z" fill="#2e2e2e"/><path d="M364.77346,151.22046c-1.54631,-3.73879 0.29162,-5.59325 0.29162,-5.59325c0,0 0.45307,4.47919 1.34554,5.71839c1.05666,1.46715 4.05757,3.89435 4.05757,3.89435l-3.35444,-1.03158c0,0 -2.06816,-2.32992 -2.34029,-2.98788z" fill="#7d7a7c"/><path d="M372.32516,152.03121c0,0 -0.15191,-2.37908 0.20602,-3.46518c0.31462,-0.95472 1.82842,-2.70823 1.82842,-2.70823l4.58099,1.50968c0,0 -1.12778,1.94893 -1.39953,2.77351c-0.37351,1.13333 -0.63492,3.39988 -0.63492,3.39988z" fill="#555555"/><path d="M380.50889,154.72819c0,0 1.42287,-2.18767 1.7808,-3.27376c0.31462,-0.95472 0.25366,-2.89964 0.25366,-2.89964l5.11285,1.68494c0,0 -0.93254,1.49849 -1.20429,2.3231c-0.37351,1.13333 -0.83015,3.85029 -0.83015,3.85029z" fill="#555555"/><path d="M389.36693,157.64738c0,0 1.42289,-2.18768 1.78083,-3.27376c0.31462,-0.95472 0.25365,-2.89963 0.25365,-2.89963l5.03687,1.65989c0,0 -0.93254,1.49849 -1.20429,2.3231c-0.37351,1.13333 -0.83015,3.85028 -0.83015,3.85028z" fill="#555555"/><path d="M398.5447,160.67192c0,0 1.48045,-1.79431 1.83836,-2.88044c0.31462,-0.95472 0.19608,-3.29296 0.19608,-3.29296l4.88492,1.60982c0,0 0.16589,2.14124 -0.10585,2.96589c-0.37351,1.13333 -1.9286,3.20754 -1.9286,3.20754z" fill="#555555"/><path d="M373.88647,146.44312l-0.3813,-0.96799l33.77577,11.13085l-1.70755,0.2796c0,0 -2.68788,-0.8858 -5.02638,-1.65645c-0.50971,-0.168 -1.37141,-0.79809 -2.13487,-1.04973c-0.73823,-0.2433 -1.371,-0.10566 -2.28864,-0.40808c-1.43098,-0.47159 -3.04552,-1.00367 -4.73576,-1.56067c-0.70076,-0.23094 -1.19046,-0.79618 -1.90957,-1.03314c-0.63945,-0.21071 -1.5072,-0.09287 -2.14966,-0.30458c-1.5945,-0.52548 -3.17333,-1.04578 -4.65772,-1.53496c-0.68164,-0.22464 -1.20616,-0.85905 -1.84036,-1.06806c-0.77421,-0.25516 -1.64463,-0.08044 -2.32294,-0.30399c-2.76707,-0.91188 -4.621,-1.52286 -4.621,-1.52286z" fill="#474747"/></g><g><path d="M213.07382,164.06858l4.42781,-1.55995c0,0 1.80194,3.55763 4.21342,5.29468c2.13289,1.53633 9.52266,4.59944 9.52266,4.59944l-3.88455,3.30452z" fill="#6d6a6b" stroke-width="0"/><path d="M203.38524,167.71979l11.07916,-4.12472c0,0 2.36593,3.15561 4.21854,4.46308c2.80276,1.97796 10.96167,6.25001 10.96167,6.25001l-5.41098,2.75201z" fill="#615e5f" stroke-width="0"/><path d="M198.40797,189.20903l5.65645,-21.90317c0,0 3.88757,2.11499 8.45736,3.65216c3.56691,1.19981 7.67644,1.66218 9.84498,3.01736c3.80705,2.3791 31.78136,24.60744 31.78136,24.60744l-0.83069,10.43934z" fill="#575455" stroke-width="0"/><path d="M227.3785,170.28382c8.32683,-3.11553 20.20123,-13.36602 22.20118,-15.41435c1.44081,-1.47567 3.74511,-6.27143 3.74511,-6.27143l5.18364,8.8836c0,0 -0.85942,21.29785 -3.69651,33.6787c-0.79384,3.46427 0.36232,7.9992 -1.22331,9.02069c-1.42069,0.91522 -18.24652,-2.21871 -23.13033,-4.63341c-10.27786,-5.08161 -16.65199,-4.24512 -18.55741,-10.4275c-1.90545,-6.18236 6.80112,-9.91508 6.80112,-9.91508c0,0 6.50876,-4.11014 8.67655,-4.92125z" fill="#504e4f" stroke-width="0"/><path d="M242.21676,140.61201c0,0 0.84317,-1.29389 1.86479,-1.65584c1.31387,-0.46548 5.36462,-0.90542 5.36462,-0.90542c0,0 8.24926,4.89527 10.3289,8.20236c1.91879,3.05121 -7.26429,10.85003 -7.26429,10.85003l-0.22763,-5.72002z" fill="#464445" stroke-width="0"/><path d="M249.50197,192.73878c0,0 -10.77579,3.03556 -18.88753,0.54279c-7.82545,-2.40476 -13.00753,-10.31603 -12.46074,-11.63332c0.29624,-0.71369 8.86042,-1.37153 13.48354,-4.29274c5.13907,-3.24719 6.45972,-8.81512 8.37196,-10.30175c5.33845,-4.15034 16.54493,-11.17421 17.42882,-17.24627c0.92696,-6.36791 -8.60296,-11.69211 -8.60296,-11.69211c0,0 4.36248,-0.93315 9.13829,0.504c2.03431,0.61217 5.91967,3.35174 6.67607,4.00636c2.48048,2.14658 3.85903,4.32372 3.85903,4.32372c0,0 5.00194,-3.48906 8.51992,-2.65554c3.51799,0.83352 20.47528,9.52538 20.47528,9.52538l-19.33787,6.88743z" fill="#555354" stroke-width="0"/><path d="M239.44658,167.49481c0,0 7.79173,-8.88023 13.98552,-12.56146c6.19381,-3.68124 11.06277,-5.42541 14.41762,-4.3198c2.42942,0.8006 2.85587,10.01231 2.85587,10.01231l-19.52495,23.85674c0,0 -14.91287,-1.46197 -15.53945,-4.28037c-0.49489,-2.22597 3.8054,-12.7074 3.8054,-12.7074z" fill="#585758" stroke-width="0"/><path d="M252.32408,200.48256c0,0 -0.79579,-6.78083 0.46001,-9.54908c1.75433,-3.86721 7.08628,-15.43345 7.08628,-15.43345l-1.40793,10.5238c0,0 -3.65919,9.05728 -4.48147,11.97645c-0.7934,2.81653 -0.1209,5.32335 -0.1209,5.32335z" fill="#3f3e3f" stroke-width="0"/><path d="M257.0338,183.22428c0.33857,-1.65182 3.00552,-8.89178 3.00552,-8.89178c0,0 13.63761,-10.84438 16.46001,-12.70768c0.82744,-0.54624 4.55624,-1.13992 4.55624,-1.13992l-3.0828,4.09476c0,0 -1.6838,0.08104 -2.00414,0.4786c-0.34129,0.42355 0.01527,1.98964 0.01527,1.98964l-7.52537,6.44873c0,0 -1.88399,0.44318 -2.21234,0.86708c-0.32846,0.42399 0.04668,1.48276 0.04668,1.48276c0,0 -6.45923,7.28561 -8.01519,9.31536c-0.7194,0.93848 -0.94455,2.37269 -0.94455,2.37269c0,0 -0.63788,-2.65839 -0.2993,-4.31023z" fill="#474647" stroke-width="0"/><path d="M251.1302,159.2011l17.42312,14.4128c0,0 -1.44604,0.5893 -1.84002,1.02702c-0.29073,0.32299 -0.30966,1.36133 -0.30966,1.36133z" fill="#3f3e3e" stroke-width="NaN"/><path d="M260.06912,151.24628l18.12657,13.4059c0,0 -1.32295,0.45194 -1.69747,0.91427c-0.39043,0.48197 -0.37729,1.62263 -0.37729,1.62263z" fill="#3f3e3e" stroke-width="NaN"/><path d="M239.27749,174.59163c0,0 7.74735,10.65314 11.45918,18.1702c3.71184,7.5171 1.49093,8.05583 1.49093,8.05583z" fill="#636162" stroke-width="NaN"/><path d="M259.11329,156.85217c0,0 -6.60809,0.88 -10.18832,2.95983c-3.58023,2.07984 -16.56062,14.84119 -15.63867,12.04365c0.92193,-2.79753 19.86992,-18.37053 21.5747,-17.80873c0.64532,0.21267 3.88654,0.07812 4.58952,0.55982c1.15405,0.79083 -0.33722,2.2454 -0.33722,2.2454z" fill="#918f91" stroke-width="0"/><path d="M198.0152,188.94334l13.83329,2.57058c0,0 12.06704,3.62683 14.99759,4.75588c7.13677,2.74952 27.97851,11.80112 27.97851,11.80112l-2.40299,5.86356c0,0 -24.25292,-4.23849 -30.38915,-7.64593c-1.7752,-0.98577 -7.10615,-3.39335 -10.72485,-6.00964c-7.08163,-5.11993 -13.29237,-11.33558 -13.29237,-11.33558z" fill="#626061" stroke-width="0"/><path d="M251.57722,213.28577c0,0 1.382,-4.06429 1.68794,-6.42711c0.3439,-2.65568 0.27502,-8.7314 0.27502,-8.7314l1.69278,0.55785c0,0 0.23783,4.77097 -0.0735,7.17517c-0.34039,2.62861 -1.88947,7.98334 -1.88947,7.98334z" fill="#4a494a" stroke-width="0"/><path d="M251.13003,214.01895l1.1471,-3.19886c0,0 0.45542,0.4288 0.71331,0.51378c0.3064,0.10099 0.9654,0.03945 0.9654,0.03945l-0.82923,3.07134c0,0 -0.86511,0.14408 -1.22891,0.0665c-0.27877,-0.05942 -0.76761,-0.49222 -0.76761,-0.49222z" fill="#363536" stroke-width="0"/><path d="M253.48051,199.18715l0.14078,-1.65996c0,0 0.50733,-0.20597 0.87583,-0.14688c0.35094,0.05627 0.8087,0.33636 0.8087,0.33636l-0.06707,1.80615c0,0 -0.61644,0.33116 -0.91769,0.27362c-0.2838,-0.05416 -0.84055,-0.60926 -0.84055,-0.60926z" fill="#585758" stroke-width="0"/><path d="M211.96685,199.77812c0,0 -6.57425,-5.27559 -6.14763,-6.57012c0.42877,-1.30099 6.71901,-0.46078 6.71901,-0.46078c0,0 10.46938,3.1967 15.12329,4.91213c2.60545,0.96038 10.4231,4.50427 10.4231,4.50427c0,0 6.59547,3.28353 7.00913,4.6325c0.45121,1.47145 -4.10816,2.96086 -4.10816,2.96086c0,0 -12.49335,-2.74204 -16.19376,-4.18077c-1.31451,-0.51111 -12.82492,-5.79801 -12.82492,-5.79801z" fill="#6b696a" stroke-width="0"/><path d="M204.26565,189.97359l-1.93535,-0.39477c0,0 1.66996,-3.06605 3.86451,-1.03491c2.19456,2.03116 20.53176,7.00927 20.53176,7.00927z" fill="#4b4949" stroke-width="0"/><path d="M198.12953,188.82934c0,0 -1.95737,-0.44332 -1.3254,-4.07052c0.31989,-1.83605 3.10937,-15.85974 3.10937,-15.85974l4.45564,-1.58411c0,0 -1.22846,5.90597 -1.94103,8.72694c-0.94773,3.75183 -3.42181,13.07635 -3.42181,13.07635z" fill="#3f3d3e" stroke-width="0"/><path d="M204.51936,190.23189c0,0 3.70775,-1.05039 19.06289,3.65493c1.26805,0.3886 -1.69496,-0.59229 7.07371,2.83158c8.76867,3.42386 12.00708,6.08378 12.00708,6.08378c0,0 -13.9745,-5.73126 -19.86565,-7.67269c-6.71522,-2.213 -18.27804,-4.89759 -18.27804,-4.89759z" fill="#838082" stroke-width="0"/><path d="M218.59091,163.6694c0,0 -4.83565,0.70955 -7.40708,1.56317c-2.89022,0.95943 -9.08983,3.91316 -9.08983,3.91316l-0.24375,-1.7667c0,0 4.77972,-2.48239 7.39618,-3.35097c2.86069,-0.94962 9.10072,-2.12537 9.10072,-2.12537z" fill="#4a494a" stroke-width="0"/><path d="M219.55867,163.71689l-3.90813,0.48155c0,0 0.29388,-0.58378 0.25674,-0.8529c-0.04413,-0.31978 -0.42492,-0.87488 -0.42492,-0.87488l3.55054,-0.72696c0,0 0.56489,0.69859 0.66067,1.05811c0.07341,0.27551 -0.13488,0.91505 -0.13488,0.91505z" fill="url(#color-3)" stroke-width="0"/><path d="M203.21002,168.69406l-3.65711,1.66901l0.54655,-2.11799l2.60727,-1.26998c0,0 0.63686,0.389 0.72309,0.68349c0.08125,0.27745 -0.21981,1.03546 -0.21981,1.03546z" fill="url(#color-4)" stroke-width="0"/></g><path d="M334.24924,186.63411c0,0 2.26382,-3.90639 3.17662,-5.06816c0.61964,-0.78865 3.32187,-1.40552 3.32187,-1.40552l16.23259,5.11971c0,0 -3.02763,5.10668 -3.81719,6.28506c-0.34589,0.5162 -1.57506,0.84038 -1.57506,0.84038z" fill="#665b60" stroke-width="0"/><path d="M293.79184,154.07898c0,0 -3.11453,-2.67151 -7.43474,-5.30843c-2.74633,-1.67631 -6.62441,-3.55107 -8.42504,-4.03308c-5.23495,-1.40142 -9.2252,2.65857 -9.2252,2.65857c0,0 -2.38399,-3.2239 -4.11819,-4.69531c-1.61882,-1.3735 -5.43994,-3.68666 -5.43994,-3.68666c0,0 24.919,2.85147 28.75823,3.50591c7.36013,1.25457 32.57824,9.97735 32.57824,9.97735l1.43989,15.51598z" fill="#8b7c84" stroke-width="0"/><g stroke-width="0"><path d="M335.92588,186.19402c0,0 1.26045,-2.31825 1.93025,-3.03961c0.69452,-0.74799 3.09793,-1.06404 3.09793,-1.06404l13.79997,4.54778c0,0 0.05924,1.05447 -0.39523,1.68153c-0.61795,0.85257 -4.1149,2.59284 -4.1149,2.59284z" fill="#585852"/><path d="M336.15917,185.48613c0,0 1.02714,-1.6103 1.69696,-2.33168c0.69452,-0.74799 3.33123,-1.77194 3.33123,-1.77194l13.79997,4.54779c0,0 -0.17404,1.76241 -0.62855,2.38945c-0.61795,0.85257 -3.88159,1.8849 -3.88159,1.8849z" fill="#797971"/><path d="M353.15669,185.84878c-0.94046,-0.49729 -11.89413,-4.39282 -11.89413,-4.39282l13.7811,4.54158l-0.77055,2.33813c0,0 -0.17595,-1.98961 -1.11642,-2.48691z" fill="#85857b"/></g><path d="M342.97171,169.38674l1.62436,-4.929l6.77737,2.23349l-0.39209,5.3351z" fill="#7c6e75" stroke-width="0"/><path d="M341.34182,141.02814l-1.42183,-9.03l1.31,0.43174l3.11873,10.06471z" fill="#d495b6" stroke-width="0"/><path d="M306.68575,121.57457l13.52189,1.20305l19.89323,9.30655l1.26899,8.93859z" fill="#df9cbe" stroke-width="0"/><path d="M341.55217,174.21242l0.50762,-1.54028l10.32009,3.40099l0.41656,1.84488z" fill="#7c6e75" stroke-width="0"/><path d="M306.82291,149.97024c0,0 -17.59761,-4.5375 -23.10392,-5.8255c-8.33773,-1.95031 -25.27811,-5.08475 -25.27811,-5.08475c0,0 15.65873,0.48478 28.96201,3.27261c14.42411,3.02268 56.71661,15.42573 56.71661,15.42573l-1.69299,5.1373z" fill="#75686e" stroke-width="0"/><path d="M297.507,156.13463l-2.90162,-1.55724c0,0 10.02584,0.79349 14.85837,3.1892c4.8325,2.3957 12.04435,10.14778 12.04435,10.14778z" fill="#7c6e76" stroke-width="0"/><path d="M254.64651,137.76649c0,0 -25.91247,-24.75047 -25.31314,-29.41748c0.54446,-4.23942 27.58846,11.56401 27.90515,11.55441c5.5412,-0.16795 76.07063,15.47854 76.07063,15.47854l23.14678,14.77658l50.28976,15.97138l2.69205,15.18079c0,0 -58.83195,-18.15742 -81.45511,-25.44126c-7.8531,-2.52842 -23.63695,-8.41194 -38.52882,-12.11897c-11.48711,-2.85948 -29.63585,-4.29543 -29.63585,-4.29543z" fill="#ee96c3" stroke-width="0"/><path d="M128.07714,109.26229l9.46782,-18.10005c0,0 2.11145,-6.73146 9.71031,-6.64472c9.43805,0.10779 24.91953,7.08929 26.88615,7.73738c1.50917,0.49736 -15.51942,5.8533 -15.51942,5.8533l-6.30805,19.14137z" fill="#c4b4b3" stroke-width="0"/><g stroke-width="0"><path d="M400.82255,179.9267l2.02602,-15.27629l85.97898,35.45682l-2.53626,5.27832l-46.56579,-10.23173z" fill="#ad6d8e"/><path d="M430.33139,174.55668l9.49663,-5.58074l26.09582,6.35824l-7.3444,8.53172z" fill="#8d788b"/><path d="M405.76812,167.71336l5.08154,-15.41954l29.04376,16.70807l-6.49861,5.09078z" fill="#857183"/><path d="M447.09497,177.83611l18.76896,-2.52037l25.26193,12.29735l-2.42945,6.45808z" fill="#947e92"/><path d="M401.99901,165.8305l6.7439,-11.21884l2.33305,-2.45706l-4.71488,14.30696z" fill="#756474"/><path d="M403.04367,177.27423l3.09361,-11.69191l41.65361,11.99094l-6.19019,14.86655z" fill="#746373"/><path d="M441.59819,192.42264c0,0 2.33508,-5.87162 3.41405,-8.51067c0.92376,-2.25949 2.66668,-6.36249 2.66668,-6.36249l41.69466,14.69772l-0.72963,8.60394z" fill="#867284"/><path d="M402.05948,165.77627l4.3044,-0.19338l-3.29409,11.70796z" fill="#6f5e6d"/><path d="M484.30674,185.25251l-17.76966,-9.39761l24.24621,11.8191l-1.45507,3.2535c0,0 0.19336,-1.58861 -0.73365,-2.63625c-0.6201,-0.70082 -4.28789,-3.03879 -4.28789,-3.03879z" fill="#978195"/><path d="M445.70838,176.69501c0,0 8.65857,-0.79515 11.72101,-1.21166c2.23087,-0.30339 4.96257,-1.05731 4.96257,-1.05731l2.37126,0.90004l-16.53927,2.19793z" fill="#9c859a"/><path d="M431.79709,172.96162c0,0 2.11169,-2.20199 3.81677,-3.06178c1.70503,-0.85981 4.15248,-0.91162 4.15248,-0.91162l-5.63136,4.74386z" fill="#806b7d"/><path d="M467.90818,174.15128l3.82063,-4.77755l13.26779,8.30325l3.31548,7.8312z" fill="#55494f"/><path d="M464.6257,176.0178c0,0 1.27536,-0.4117 1.99063,-0.79169c0.53877,-0.28622 1.62556,-1.38592 1.62556,-1.38592l19.94061,10.78306c0,0 0.66873,0.74364 1.12355,1.23641c0.47533,0.51498 1.66958,1.78984 1.66958,1.78984z" fill="#685960"/><path d="M468.7204,173.47958l3.01039,-3.83588l12.39428,7.58739c0,0 -7.12469,-3.96175 -11.46033,-5.1224c-2.51491,-0.67326 -3.94434,1.3709 -3.94434,1.3709z" fill="#41383c"/></g><path d="M141.92854,72.46888l1.63015,-4.94666c0,0 21.61957,5.76119 42.45661,12.68803c12.41698,4.12778 24.80496,9.89246 31.48805,11.72623c15.06892,4.13476 26.42402,3.12592 26.42402,3.12592l-9.35324,8.1238z" fill="#ffa1d1" stroke-width="0"/><path d="M135.11149,84.91827l7.08554,-14.59834c0,0 51.39816,19.10787 68.48652,24.27538c10.12245,3.06102 24.5958,3.87267 24.5958,3.87267l-4.58297,13.90666c0,0 -64.10945,-21.12737 -79.56424,-26.22052c-6.35441,-2.09411 -24.43523,24.29767 -24.43523,24.29767z" fill="#ee96c3" stroke-width="0"/><path d="M281.37506,213.65837l13.06918,-10.00818c0,0 14.38349,-11.95605 25.45949,-15.53175c2.81461,-0.90864 8.09892,-0.427 8.09892,-0.427c0,0 -8.49722,2.44858 -11.83539,4.2876c-7.88324,4.34295 -34.79216,21.67933 -34.79216,21.67933z" fill="#70646b" stroke-width="0"/><path d="M392.85428,182.1256l-0.34959,-19.06936l1.28229,0.42258c0,0 0.10588,5.7752 0.16181,8.82684c0.00799,0.43482 0.92217,2.02177 0.93205,2.56031c0.01712,0.93358 -0.86863,0.89809 -0.84952,1.94157c0.05326,2.90555 0.10525,5.74063 0.10525,5.74063z" fill="#795467" stroke-width="0"/><path d="M231.16186,112.98265c0,0 -7.90454,-9.50391 -6.07777,-12.87652c1.09378,-2.01936 19.57905,-4.30032 19.57905,-4.30032l64.53672,23.02873l-2.5235,2.42831l26.51768,14.265l-76.50647,2.76829c0,0 1.00547,-5.57944 5.32135,-7.16649c4.19458,-1.54245 20.22031,-2.22584 20.22031,-2.22584c0,0 -32.48281,-10.75633 -39.38027,-13.12067c-2.30117,-0.7888 -11.6871,-2.80049 -11.6871,-2.80049z" fill="#f399c8" stroke-width="0"/><g><path d="M242.35425,97.07089l1.01359,-3.07564l167.6828,55.2601l-1.01359,3.07563z" fill="#584f54" stroke-width="0"/><path d="M405.46783,147.67689l0.85644,-2.59884l2.90175,0.95627l1.7039,3.4426z" fill="#685d63" stroke-width="0"/><g fill="#685d63" stroke-width="0"><g><g><g><path d="M399.06441,145.82898l0.93179,-2.82741l3.68612,1.21476l-0.9318,2.82742z"/><path d="M393.08331,143.85791l0.93179,-2.82741l3.68612,1.21476l-0.9318,2.82741z"/></g><g><path d="M387.32789,141.96118l0.93179,-2.82743l3.68612,1.21477l-0.9318,2.82742z"/><path d="M381.34675,139.99008l0.9318,-2.82742l3.68611,1.21477l-0.9318,2.82742z"/></g></g><g><g><path d="M375.47846,138.0562l0.9318,-2.82742l3.68611,1.21476l-0.9318,2.82742z"/><path d="M369.49735,136.08513l0.93179,-2.82742l3.68612,1.21476l-0.9318,2.82743z"/></g><g><path d="M363.74195,134.1884l0.93179,-2.82743l3.68611,1.21477l-0.9318,2.82742z"/><path d="M357.76089,132.21733l0.93179,-2.82741l3.68611,1.21476l-0.9318,2.82743z"/></g></g></g><g><g><g><path d="M357.53517,132.14298l0.93179,-2.82741l3.68611,1.21476l-0.9318,2.82741z"/><path d="M351.5541,130.17189l0.9318,-2.82742l3.68611,1.21477l-0.93179,2.82742z"/></g><g><path d="M345.79863,128.27518l0.9318,-2.82743l3.68611,1.21476l-0.93179,2.82742z"/><path d="M339.81754,126.3041l0.9318,-2.82741l3.68611,1.21475l-0.93179,2.82742z"/></g></g><g><g><path d="M333.9493,124.37023l0.93179,-2.82743l3.68612,1.21476l-0.9318,2.82742z"/><path d="M327.96815,122.39912l0.93179,-2.82742l3.68612,1.21477l-0.9318,2.82743z"/></g><g><path d="M322.21274,120.50242l0.93179,-2.82742l3.68613,1.21475l-0.9318,2.82743z"/><path d="M316.23163,118.53131l0.9318,-2.82741l3.68611,1.21476l-0.93179,2.82742z"/></g></g></g></g><g><g fill="#685d63" stroke-width="0"><g><g><path d="M310.32499,116.5848l0.9318,-2.82744l3.68611,1.21477l-0.93179,2.82742z"/><path d="M304.34388,114.6137l0.93179,-2.82742l3.68612,1.21477l-0.93179,2.82743z"/></g><g><path d="M298.58845,112.71702l0.9318,-2.82742l3.68612,1.21477l-0.9318,2.82743z"/><path d="M292.60739,110.74593l0.9318,-2.82741l3.68611,1.21476l-0.93179,2.82742z"/></g></g><g><g><path d="M286.73912,108.81204l0.93179,-2.82743l3.68612,1.21476l-0.9318,2.82742z"/><path d="M280.75799,106.84095l0.9318,-2.82741l3.68611,1.21476l-0.93179,2.82742z"/></g><g><path d="M275.00254,104.94425l0.9318,-2.82741l3.6861,1.21476l-0.93179,2.82743z"/><path d="M269.02144,102.97316l0.9318,-2.82742l3.68611,1.21476l-0.93179,2.82743z"/></g></g></g><g><g fill="#685d63" stroke-width="0"><g><path d="M268.79577,102.89878l0.93179,-2.82742l3.68612,1.21476l-0.9318,2.82742z"/><path d="M262.81462,100.92767l0.9318,-2.82743l3.68611,1.21476l-0.93179,2.82742z"/></g><g><path d="M257.05922,99.03101l0.93179,-2.82742l3.68612,1.21476l-0.93179,2.82743z"/><path d="M251.07814,97.0599l0.93179,-2.82742l3.68611,1.21476l-0.93179,2.82741z"/></g></g><g fill="none" stroke-width="1" font-family="sans-serif" font-weight="normal" font-size="12" text-anchor="start"><g/><g/></g></g></g><path d="M243.35807,94.25338l3.41681,-1.75507l2.90174,0.95629l-0.85645,2.59885z" data-paper-data="{&quot;index&quot;:null}" fill="#685d63" stroke-width="0"/></g><path d="M287.1164,143.30023l-2.50817,-0.54227c0,0 2.39819,-1.91304 11.86418,0.01911c7.17663,1.4649 27.11721,6.65549 39.04244,9.80024c5.53777,1.46032 62.01822,10.59541 62.01822,10.59541l4.94208,1.61361c0,0 -61.94654,-9.20669 -67.47303,-10.68778c-12.22055,-3.27508 -32.77977,-8.74774 -38.80054,-10.1228c-3.27745,-0.74853 -9.08513,-0.6755 -9.08513,-0.6755z" fill="#70475c" stroke-width="0"/><path d="M377.00107,192.95611l-5.25414,0.21196l5.92606,-17.97997c0,0 7.38481,2.48464 14.60706,4.91458c20.73285,6.9756 120.37635,40.50081 120.37635,40.50081l-2.1056,6.38927z" fill="#5a5959" stroke-width="0"/><path d="M375.6223,194.21628l1.97697,-2.51357l132.99734,35.18984l-14.74104,6.94677z" fill="#4b4a4a" stroke-width="0"/><path d="M492.79411,232.6313c0,0 -4.60017,-4.91131 -7.03328,-7.2168c-1.30398,-1.23556 -6.43068,-5.54079 -6.43068,-5.54079c0,0 6.69055,5.26225 9.5704,7.20942c1.02779,0.69491 1.86244,1.75207 2.93564,2.66183c0.34604,0.29333 2.94145,-1.75649 5.28155,-2.79033c0.69945,-0.30904 1.68729,0.40035 2.28981,0.25064c1.38125,-0.34325 2.06385,-1.26748 2.06385,-1.26748c0,0 0.02955,0.98848 -1.50803,1.75972c-0.41951,0.21044 -2.24214,-0.01924 -2.66402,0.22115c-1.6908,0.9635 -3.14273,2.16868 -3.61761,2.63467c-1.32511,1.30039 0.50216,2.53603 0.50216,2.53603z" fill="#414040" stroke-width="0"/><path d="M231.02226,113.24981l7.09737,-9.347l6.84949,1.59993c0,0 -1.73174,2.21761 -2.75235,3.52456c-0.25703,0.32918 11.55672,2.16278 11.681,2.91025c0.23063,1.38683 -6.2383,3.2138 -6.8802,4.03577c-0.73382,0.93969 -9.1248,-1.40882 -9.1248,-1.40882z" fill="#303030" stroke-width="0"/><path d="M231.00172,112.85342l6.73674,-8.58657c0,0 2.4411,2.17809 2.1328,3.11356c-0.56093,1.70213 -3.87196,6.7043 -3.87196,6.7043z" fill="#252525" stroke-width="0"/><path d="M370.89854,195.68467l0.92408,-2.80404l6.17032,-1.07515l-2.09996,2.41652c0,0 -1.45353,0.92688 -2.3319,1.18413c-0.77291,0.22635 -2.66252,0.27851 -2.66252,0.27851z" fill="#383838" stroke-width="0"/><g><g fill="#4b4b4b" stroke-width="0"><g data-paper-data="{&quot;origPos&quot;:null}"><g data-paper-data="{&quot;origPos&quot;:null}"><path d="M434.23718,218.00147l0.71136,-2.15856l3.56158,1.17371l-0.71136,2.15856z" data-paper-data="{&quot;origPos&quot;:null}"/><path d="M428.33678,215.93734l0.71136,-2.15856l3.56157,1.17371l-0.71136,2.15854z" data-paper-data="{&quot;origPos&quot;:null}"/></g><g data-paper-data="{&quot;origPos&quot;:null}"><path d="M446.07358,222.02186l0.71136,-2.15856l3.56158,1.17371l-0.71136,2.15855z" data-paper-data="{&quot;origPos&quot;:null}"/><path d="M440.17315,219.95771l0.71136,-2.15855l3.56159,1.17371l-0.71137,2.15856z" data-paper-data="{&quot;origPos&quot;:null}"/></g></g><g data-paper-data="{&quot;origPos&quot;:null,&quot;index&quot;:null}"><g data-paper-data="{&quot;origPos&quot;:null}"><path d="M464.38432,227.81689l0.71136,-2.15856l3.56159,1.17371l-0.71137,2.15855z" data-paper-data="{&quot;origPos&quot;:null}"/><path d="M470.35586,229.66515l0.71135,-2.15855l3.56158,1.17371l-0.71135,2.15854z" data-paper-data="{&quot;origPos&quot;:null}"/></g><g data-paper-data="{&quot;origPos&quot;:null}"><path d="M452.47683,224.01237l0.71137,-2.15856l3.56157,1.17372l-0.71136,2.15854z" data-paper-data="{&quot;origPos&quot;:null}"/><path d="M458.44836,225.8607l0.71136,-2.15854l3.56158,1.1737l-0.71136,2.15855z" data-paper-data="{&quot;origPos&quot;:null}"/></g></g></g><path d="M396.24267,196.79904l4.26019,-12.92724l80.22965,26.43978l-4.26018,12.92723z" data-paper-data="{&quot;origPos&quot;:null}" fill="#444444" stroke-width="0"/><path d="M394.8582,201.31482l1.49687,-4.54217l79.99385,26.36207l-1.49688,4.54218z" data-paper-data="{&quot;origPos&quot;:null}" fill="#414141" stroke-width="0"/><path d="M394.44547,202.67841l0.50631,-1.53634l79.98368,26.35872l-0.5063,1.53634z" data-paper-data="{&quot;origPos&quot;:null}" fill="#3f3f3f" stroke-width="0"/><g stroke-width="0"><g data-paper-data="{&quot;origPos&quot;:null}" fill="#5a5a5a"><g data-paper-data="{&quot;origPos&quot;:null}"><path d="M437.31531,210.41816l4.30364,-13.05915l3.39199,1.11784l-4.30365,13.05914z" data-paper-data="{&quot;origPos&quot;:null}"/></g><g data-paper-data="{&quot;origPos&quot;:null}"><path d="M443.08167,212.31846l4.30364,-13.05914l3.392,1.11784l-4.30365,13.05914z" data-paper-data="{&quot;origPos&quot;:null}"/><path d="M449.01766,214.27469l4.30366,-13.05914l3.39199,1.11784l-4.30366,13.05914z" data-paper-data="{&quot;origPos&quot;:null}"/></g></g><g data-paper-data="{&quot;origPos&quot;:null}" fill="#5a5a5a"><g data-paper-data="{&quot;origPos&quot;:null}"><path d="M455.29282,216.34268l4.30364,-13.05914l3.39199,1.11784l-4.30366,13.05915z" data-paper-data="{&quot;origPos&quot;:null}"/><path d="M461.22879,218.29888l4.30366,-13.05913l3.39199,1.11784l-4.30365,13.05913z" data-paper-data="{&quot;origPos&quot;:null}"/></g><g data-paper-data="{&quot;origPos&quot;:null}"><path d="M466.99516,220.1992l4.30366,-13.05914l3.39198,1.11782l-4.30366,13.05914z" data-paper-data="{&quot;origPos&quot;:null}"/><path d="M472.93114,222.1554l4.30366,-13.05914l3.39198,1.11783l-4.30364,13.05914z" data-paper-data="{&quot;origPos&quot;:null}"/></g></g><path d="M440.76555,211.5552l-1.43906,1.55895l-4.99149,-1.59959l2.93388,-9.34785l4.29419,-4.82613l-4.23817,13.08074z" fill="#3a3a3a"/><path d="M446.52958,213.45474l-1.43907,1.55897l-4.99149,-1.59959l2.93388,-9.34785l4.29418,-4.82612l-4.23816,13.08073z" fill="#3a3a3a"/><path d="M452.42459,215.39744l-1.43907,1.55895l-4.99149,-1.59959l2.93388,-9.34784l4.29418,-4.82612l-4.23817,13.08074z" fill="#3a3a3a"/><path d="M458.77817,217.49128l-1.43906,1.55895l-4.99149,-1.5996l2.93388,-9.34785l4.29418,-4.82612l-4.23815,13.08074z" fill="#3a3a3a"/><path d="M464.73867,219.45558l-1.43906,1.55895l-4.99149,-1.59959l2.93388,-9.34785l4.29418,-4.82612l-4.23815,13.08074z" fill="#3a3a3a"/><path d="M470.43721,221.33352l-1.43907,1.55895l-4.99148,-1.59959l2.93388,-9.34785l4.29418,-4.82612l-4.23815,13.08075z" fill="#3a3a3a"/><path d="M476.40526,223.30031l-1.43906,1.55895l-4.99149,-1.59959l2.93389,-9.34784l4.29418,-4.82613l-4.23817,13.08074z" fill="#3a3a3a"/></g><g stroke-width="0"><g data-paper-data="{&quot;origPos&quot;:null}" fill="#5a5a5a"><g data-paper-data="{&quot;origPos&quot;:null}"><path d="M396.25827,196.88777l4.30366,-13.05914l3.392,1.11784l-4.30365,13.05914z" data-paper-data="{&quot;origPos&quot;:null}"/></g><g data-paper-data="{&quot;origPos&quot;:null}"><path d="M402.02463,198.7881l4.30364,-13.05913l3.39199,1.11784l-4.30366,13.05914z" data-paper-data="{&quot;origPos&quot;:null}"/><path d="M407.9606,200.74429l4.30366,-13.05914l3.392,1.11783l-4.30366,13.05914z" data-paper-data="{&quot;origPos&quot;:null}"/></g></g><g data-paper-data="{&quot;origPos&quot;:null}" fill="#5a5a5a"><g data-paper-data="{&quot;origPos&quot;:null}"><path d="M414.23578,202.81226l4.30366,-13.05914l3.392,1.11784l-4.30365,13.05914z" data-paper-data="{&quot;origPos&quot;:null}"/><path d="M420.17181,204.76849l4.30366,-13.05915l3.392,1.11785l-4.30366,13.05913z" data-paper-data="{&quot;origPos&quot;:null}"/></g><g data-paper-data="{&quot;origPos&quot;:null}"><path d="M425.93816,206.66881l4.30366,-13.05914l3.392,1.11784l-4.30366,13.05914z" data-paper-data="{&quot;origPos&quot;:null}"/><path d="M431.87414,208.62505l4.30366,-13.05914l3.392,1.11784l-4.30366,13.05916z" data-paper-data="{&quot;origPos&quot;:null}"/></g></g><path d="M399.70846,198.02479l-1.43907,1.55895l-2.6061,-0.81345l0.6045,-1.87936z" fill="#3a3a3a"/><path d="M405.47256,199.92437l-1.43906,1.55897l-4.99149,-1.5996l2.93389,-9.34784l4.29418,-4.82612l-4.23816,13.08074z" fill="#3a3a3a"/><path d="M411.36755,201.86705l-1.43906,1.55895l-4.99149,-1.59959l2.93388,-9.34784l4.29419,-4.82613l-4.23816,13.08075z" fill="#3a3a3a"/><path d="M417.72109,203.96085l-1.43906,1.55895l-4.9915,-1.59959l2.93389,-9.34785l4.29419,-4.82613l-4.23816,13.08074z" fill="#3a3a3a"/><path d="M423.68168,205.92521l-1.43907,1.55896l-4.99149,-1.59959l2.93388,-9.34785l4.29419,-4.82613l-4.23817,13.08075z" fill="#3a3a3a"/><path d="M429.38019,207.80314l-1.43906,1.55896l-4.99149,-1.59959l2.93388,-9.34784l4.29419,-4.82613l-4.23816,13.08074z" fill="#3a3a3a"/><path d="M435.34828,209.76997l-1.43906,1.55897l-4.99149,-1.59959l2.93388,-9.34785l4.29419,-4.82612l-4.23816,13.08074z" fill="#3a3a3a"/></g><g><g data-paper-data="{&quot;origPos&quot;:null}"><g data-paper-data="{&quot;origPos&quot;:null}" fill="none" stroke-width="1" font-family="sans-serif" font-weight="normal" font-size="12" text-anchor="start"/><g data-paper-data="{&quot;origPos&quot;:null}" fill="#4b4b4b" stroke-width="0"><path d="M399.76242,206.84092l0.71137,-2.15855l3.56157,1.17371l-0.71135,2.15855z" data-paper-data="{&quot;origPos&quot;:null}"/><path d="M393.86201,204.77681l0.71136,-2.15856l3.56158,1.17371l-0.71136,2.15856z" data-paper-data="{&quot;origPos&quot;:null}"/></g></g><g data-paper-data="{&quot;origPos&quot;:null,&quot;index&quot;:null}" fill="#4b4b4b" stroke-width="0"><g data-paper-data="{&quot;origPos&quot;:null}"><path d="M418.07322,212.63598l0.71136,-2.15855l3.56158,1.17371l-0.71136,2.15855z" data-paper-data="{&quot;origPos&quot;:null}"/><path d="M424.04477,214.48422l0.71135,-2.15854l3.56158,1.17371l-0.71136,2.15855z" data-paper-data="{&quot;origPos&quot;:null}"/></g><g data-paper-data="{&quot;origPos&quot;:null}"><path d="M406.16563,208.83148l0.71136,-2.15855l3.56158,1.17371l-0.71136,2.15855z" data-paper-data="{&quot;origPos&quot;:null}"/><path d="M412.13717,210.67971l0.71137,-2.15855l3.56159,1.17371l-0.71136,2.15855z" data-paper-data="{&quot;origPos&quot;:null}"/></g></g></g></g><path d="M243.56407,115.70468l2.3067,-3.67796c0,0 5.36453,-1.5461 8.76519,-0.58335c3.88764,1.10059 32.34295,10.50439 32.34295,10.50439c0,0 0.04166,1.98868 -0.38959,3.12817c-0.5556,1.46806 -3.52454,3.7164 -3.52454,3.7164z" fill="#242424" stroke-width="0"/><path d="M268.39204,119.87518l0.98602,-2.99203l17.09731,5.63444l-0.98603,2.99204z" fill="#313131" stroke-width="0"/><path d="M264.65948,120.67787l0.20414,-0.61947c0,0 1.34322,-0.66412 2.31489,-0.3439c0.92268,0.30409 2.85209,1.43998 5.12965,2.36256c4.33875,1.75752 9.65254,3.61572 9.65254,3.61572l-0.20415,0.61947c0,0 -5.15488,-1.70094 -9.43195,-3.43753c-2.33375,-0.94755 -4.3099,-2.19788 -5.26704,-2.51332c-1.00607,-0.33155 -2.39807,0.31648 -2.39807,0.31648z" fill="#616161" stroke-width="0"/><path d="M295.34673,114.2488l11.1082,6.84745l27.63898,14.69737c0,0 0.62612,0.44238 -6.83761,-2.78406c-2.53904,-1.09759 -12.13924,-5.95549 -20.30308,-10.64938c-2.20902,-1.2701 -13.79621,-8.71151 -13.79621,-8.71151z" fill="#df8cb7" stroke-width="0"/><path d="M121.37483,63.58764l1.85703,-5.63501c0,0 6.02883,0.14112 9.64151,1.33171c2.9576,0.97469 9.91655,6.9594 9.91655,6.9594l-3.96873,11.612z" fill="#626061" stroke-width="0"/><path d="M228.47758,109.39751l2.8212,3.5683l12.04594,2.57658l48.1953,15.88284l-0.34146,1.03622c0,0 -36.10812,-12.05241 -47.49557,-15.52905c-3.1264,-0.95451 -12.56407,-3.30571 -12.56407,-3.30571z" fill="#ffa6d4" stroke-width="0"/><path d="M98.62751,123.40366l2.24403,-6.80937l27.45574,-8.46192l-5.80479,12.47905l-16.3455,5.2802z" fill="#3f3d3e" stroke-width="0"/><path d="M98.66311,118.08753c0,0 6.32906,-18.60575 10.09378,-27.45538c4.24907,-9.98818 14.12386,-29.47258 14.12386,-29.47258c0,0 8.24099,2.51644 11.12794,5.20076c2.47084,2.29737 5.1405,9.92562 5.1405,9.92562l-10.50141,31.86577c0,0 -15.54848,9.29879 -19.14747,10.49138c-5.53586,1.8344 -10.83718,-0.55556 -10.83718,-0.55556z" fill="#555354" stroke-width="0"/><path d="M119.42025,71.17832c0,0 0.41296,-6.17386 3.2195,-8.08887c2.80654,-1.91502 7.25586,-1.51947 9.68748,-0.71811c1.93977,0.63927 5.92946,2.03697 7.26298,7.17079c1.33356,5.13382 -2.5773,10.86795 -2.5773,10.86795c0,0 -2.72701,-11.85276 -5.02175,-13.05693c-3.23813,-1.69923 -12.57095,3.82519 -12.57095,3.82519z" fill="#6f6b6c" stroke-width="0"/><path d="M95.75823,122.25977c0,0 9.78579,-24.21639 13.36762,-35.0852c3.73019,-11.31901 10.01137,-31.06352 10.01137,-31.06352c0,0 1.29934,-0.24876 2.28788,0.077c0.90391,0.29787 2.19079,1.39896 2.19079,1.39896c0,0 -6.19903,18.12574 -9.54643,28.28323c-3.88911,11.80117 -15.05383,37.46302 -15.05383,37.46302z" fill="#333232" stroke-width="0"/><path d="M95.21023,122.54628l5.64277,-13.62677c0,0 0.72396,1.17451 1.30537,1.3254c0.73413,0.19052 2.77681,-0.64987 2.77681,-0.64987l-5.9553,14.19353z" fill="#2e2d2d" stroke-width="0"/><path d="M131.02706,96.17174c-2.55548,7.75441 -9.18546,14.69598 -14.24763,16.10998c-4.2043,1.17441 -13.44135,5.24575 -10.88589,-2.50866c0.54213,-1.64508 6.20165,-12.28775 8.52393,-18.92417c3.07116,-8.77654 3.06712,-14.0223 4.86308,-16.41185c3.24743,-4.32067 8.95626,-3.9971 11.05948,-3.30397c4.14591,1.3663 3.24251,17.28425 0.68703,25.03867z" fill="#585758" stroke-width="0"/><path d="M159.34941,120.33343l-0.01797,-1.83877c0,0 7.96351,1.2024 13.83065,2.62616c8.2596,2.00433 31.05249,8.26551 31.05249,8.26551l1.30467,1.77895c0,0 -24.35614,-6.32049 -32.87238,-8.31845c-2.50111,-0.58678 -13.29748,-2.51336 -13.29748,-2.51336z" fill="#585657" stroke-width="0"/><path d="M149.62334,131.02704l9.21433,-11.3791l7.17595,1.3639c0,0 -3.00086,3.55273 -3.15526,4.29696c-0.73778,3.55608 -5.39294,27.25693 -5.39294,27.25693c0,0 -1.54107,-0.04414 -2.08367,-2.19772c-0.97358,-3.86418 -0.56908,-10.9559 -1.57502,-13.50132c-0.86914,-2.1992 -4.18338,-5.83964 -4.18338,-5.83964z" fill="#5a5759" stroke-width="0"/><path d="M171.16467,105.69234l6.29099,-9.85969l2.25088,0.62479l-7.41583,9.72295z" fill="#a5a0a2" stroke-width="0"/><path d="M177.95237,106.78841l0.43904,-1.33228l25.16493,8.29314l-0.43903,1.33228z" fill="#494748" stroke-width="0"/><path d="M178.80581,103.94118l0.43904,-1.33228l25.16493,8.29314l-0.43904,1.33228z" fill="#494748" stroke-width="0"/><path d="M153.33534,119.14053l6.30315,-19.12648l14.64184,-5.29972l4.69872,1.22022l-28.85831,35.5682l-4.70223,-3.65898z" fill="#dbd5d8" stroke-width="0"/><path d="M124.43908,122.16243l3.5405,-11.24782l25.56234,7.59284c0,0 -0.4806,2.5136 -0.8542,3.23124c-0.93121,1.7889 -5.00911,7.74985 -5.00911,7.74985z" fill="#ccc6c9" stroke-width="0"/><path d="M131.60362,112.53055l0.09884,-0.29994l21.94238,6.31675l-2.8452,0.3093c0,0 -4.16277,-1.17579 -6.72544,-2.05375c-3.50899,-1.20216 -12.47062,-4.27235 -12.47062,-4.27235z" fill="#d8d1d5" stroke-width="0"/><path d="M136.11204,110.08181l5.32088,-16.14584l15.31481,5.04703l-5.32089,16.14584z" fill="#a39999" stroke-width="0"/><path d="M124.12331,122.2371l3.55539,-10.78856c0,0 6.39387,8.83166 9.73257,12.39634c3.33871,3.56469 9.60089,5.3336 9.60089,5.3336z" fill="#b4afb1" stroke-width="0"/><path d="M154.18479,138.50621c0,0 2.55159,1.93643 3.63761,2.143c0.66718,0.12685 2.25885,-1.02155 2.25885,-1.02155l-1.26465,9.13642l-1.31305,3.98434c0,0 -1.94286,-0.31237 -2.34935,-3.16554c-0.33538,-2.35408 -0.96946,-11.0766 -0.96946,-11.0766z" fill="#504e4f" stroke-width="0"/><path d="M149.73839,131.65072l26.80039,-35.11982l1.59178,0.74057l-26.83136,35.54157z" fill="#858183" stroke-width="0"/><path d="M146.50448,87.67285l1.95523,-1.09343c0,0 26.23966,7.96934 38.0264,11.85369c10.2301,3.37133 30.2294,10.33381 30.2294,10.33381l-0.10475,2.00958c0,0 -20.00626,-7.33641 -30.7894,-10.89c-12.31297,-4.05775 -39.31685,-12.2136 -39.31685,-12.2136z" fill="#918b8e" stroke-width="0"/><path d="M147.85674,86.82266l2.52983,-1.21039c0,0 24.69806,7.76763 36.4848,11.65197c10.23009,3.37132 30.22941,10.33382 30.22941,10.33382l-0.10477,2.00956c0,0 -20.00626,-7.3364 -30.7894,-10.89c-12.31297,-4.05776 -38.34984,-11.89493 -38.34984,-11.89493z" fill="#a59fa2" stroke-width="0"/><path d="M202.71331,126.7864l-0.05017,-5.99978c0,0 0.57814,-1.07825 0.92972,-1.08117c0.30975,-0.00259 1.07019,1.06445 1.07019,1.06445l0.05015,5.99977c0,0 -0.53696,0.74711 -0.84741,0.74971c-0.35118,0.00292 -1.15252,-0.73296 -1.15252,-0.73296z" fill="#494242" stroke-width="0"/><path d="M163.63328,116.69628l6.33381,-7.90021l3.69048,1.21621l-6.33381,7.9002z" fill="#9c989a" stroke-width="0"/><path d="M178.28365,102.80777l2.06069,-0.34004l23.20527,7.66635l1.61933,1.53382z" fill="#757274" stroke-width="0"/><path d="M177.49331,105.50733l2.0607,-0.34005l23.20526,7.66634l1.61936,1.53381z" fill="#757274" stroke-width="0"/><path d="M122.13192,120.54588l19.82415,-54.70134l1.64207,1.15259l-19.43161,55.25306z" fill="#686666" stroke-width="0"/><path d="M121.89214,120.75148l5.70965,-15.2341l0.98082,4.3437l-4.58039,12.50472z" fill="#535252" stroke-width="0"/><path d="M158.25282,108.64934c0,0 2.75143,-1.56283 3.04776,-2.46203c0.29081,-0.88242 -1.28603,-2.88387 -1.28603,-2.88387c0,0 2.6416,1.57569 2.01417,3.14655c-0.4779,1.1965 -2.16082,2.94671 -2.58885,3.96635c-1.21705,2.89921 -4.17073,9.66185 -4.17073,9.66185z" fill="#c4bec1" stroke-width="0"/><path d="M166.14145,109.23628l5.00668,-9.08483l3.78366,-3.33776l-5.51329,8.24694z" fill="#aca7a9" stroke-width="0"/></g></g><g stroke-width="0"><path d="M286.97918,119.75571l3.4686,-2.36225c0,0 2.1662,-0.79844 2.86363,-0.27907c0.79518,0.59217 1.65281,3.64242 1.65281,3.64242l-1.79233,3.70721c0,0 -4.06376,-1.34716 -5.22471,-1.87009c-0.52337,-0.23576 -0.96798,-2.83821 -0.96798,-2.83821z" fill="#c0c0c0"/><path d="M243.19602,115.48861c0,0 0.73381,-2.79052 2.09619,-3.54068c1.70734,-0.94009 8.17419,-1.13815 8.17419,-1.13815l-2.15756,4.2767l-0.91431,2.77447z" fill="#838383"/><path d="M243.05577,115.36409l10.0391,-4.56867l35.67504,11.75675l-2.3416,7.10537z" fill="#999999"/><path d="M244.21004,115.05333l7.67845,-3.61967l32.07542,10.57049l-1.82821,5.54764c0,0 -3.88221,-1.27939 -8.87621,-2.92515c-3.2469,-1.07004 -6.63135,-3.30358 -10.05681,-4.43243c-3.67465,-1.211 -7.3464,-1.30281 -9.41036,-1.98299c-4.03946,-1.33123 -9.58228,-3.15787 -9.58228,-3.15787z" fill="#2e2e2e"/><path d="M247.52747,116.14429l9.79608,-2.98728l11.83785,3.90117c0,0 -7.60246,-0.49714 -10.13973,-0.37037c-2.6936,0.13457 -6.40496,1.13363 -6.40496,1.13363z" fill="#a5899d"/><path d="M255.1505,118.53777c0,0 5.13391,0.66833 7.46758,1.4374c2.98183,0.98267 8.96022,3.9764 8.96022,3.9764l-9.06407,-3.34002z" fill="#adadad"/><path d="M243.16076,115.37958l9.06509,-4.12141l33.20978,10.94436l-0.21551,0.65399c0,0 -28.75555,-9.47642 -32.50387,-10.71169c-0.78402,-0.25838 -9.55552,3.23482 -9.55552,3.23482z" fill="#8a8a8a"/><path d="M286.00639,136.06511l3.05335,-9.26519l2.87221,-6.63635c0,0 0.98044,0.81786 1.33015,1.52641c0.34971,0.70856 0.36091,1.89971 0.36091,1.89971l-5.70474,13.10547z" fill="#9e9e9e"/><path d="M282.15292,130.34058c0,0 -0.20086,-2.30352 0.16668,-3.85559c0.49495,-2.09005 3.03467,-7.06322 3.03467,-7.06322l1.94572,0.29864c0,0 0.47293,0.98951 0.97346,0.99744c0.69012,0.01094 2.78434,-0.93801 2.78434,-0.93801l-4.48911,12.01599z" fill="#9c9c9c"/><path d="M282.12502,132.25894c-0.39739,-1.29382 0.26072,-2.52271 0.26072,-2.52271l6.88625,-5.31192c0,0 0.10801,4.12483 -0.17885,4.99525c-0.81551,2.47463 -1.34621,7.30069 -1.34621,7.30069c0,0 -2.85657,-0.85322 -3.70596,-1.59497c-1.01872,-0.88961 -1.51857,-1.57255 -1.91598,-2.86637z" fill="#888888"/><path d="M284.05862,132.08094c-0.31269,-2.2086 0.12446,-6.76368 3.14863,-10.049c3.02417,-3.2853 4.65016,-0.50553 4.65016,-0.50553c0,0 -0.42845,4.51579 -1.15234,6.71243c-0.65941,2.001 -3.01573,5.9353 -3.01573,5.9353c0,0 -3.31802,0.1154 -3.6307,-2.09322z" fill="#b4b4b4"/><path d="M290.41988,126.07489c-0.44166,1.34017 -5.3191,-0.18569 -4.87744,-1.52583c0.44166,-1.34017 5.03757,-5.51356 5.80916,-5.25927c0.29884,0.09848 0.87846,0.39674 0.73311,1.46564c-0.23,1.69104 -1.39421,4.49836 -1.66484,5.31949z" fill="#bbbbbb"/></g><g stroke-width="0"><path d="M228.39081,109.35298c0,0 -4.02323,-6.50334 -3.43686,-8.28261c0.47876,-1.45279 6.25024,0.31957 6.25024,0.31957l7.14367,2.42985l-7.19569,8.97785z" fill="#f399c8"/><path d="M198.88465,101.35769c0,0 -0.26473,-2.29606 0.31534,-3.23437c0.64017,-1.03548 3.72525,-3.81441 3.72525,-3.81441l21.93873,7.03446l5.96863,11.0463z" fill="#ee96c3"/></g></g><g stroke-width="0"><g><path d="M295.74907,112.51071l1.93487,-5.87121l45.41557,14.96676l-1.93486,5.87121z" fill="#61585b"/><path d="M296.6092,109.37905l1.03613,-3.14403l45.58824,15.02368l-1.03614,3.14403c0,0 -8.20671,-2.70456 -16.63711,-5.48278c-2.63582,-0.86864 -6.81637,-0.64883 -9.25192,-1.4515c-2.89618,-0.95444 -5.52738,-3.41907 -7.38515,-4.03131c-5.57061,-1.8358 -12.31407,-4.05811 -12.31407,-4.05811z" fill="#494344"/><path d="M357.39747,122.45724l-2.9385,-20.90294l19.86814,6.54761l9.40312,20.7605c0,0 -5.84936,-0.49427 -8.99981,-1.26057c-4.86146,-1.1825 -17.33296,-5.14458 -17.33296,-5.14458z" fill="#5e555b"/><path d="M356.32431,125.72037l1.7335,-5.26021c0,0 12.13537,2.46923 17.02573,3.26c3.88112,0.62756 6.728,0.9529 6.728,0.9529l3.46917,8.44914c0,0 -5.56407,-0.15307 -9.64246,-1.02967c-5.52606,-1.18782 -19.3139,-6.37206 -19.3139,-6.37206z" fill="url(#color-5)"/><path d="M352.79959,101.17463l1.25078,-3.79539l18.18924,5.99428l2.2029,4.93353z" fill="url(#color-6)"/><path d="M355.76207,125.56136l0.39415,-1.19597c0,0 14.84933,4.81317 20.01763,6.34c3.8646,1.14169 8.55653,1.02764 8.55653,1.02764l0.48593,1.36543l-8.45403,-0.61651z" fill="#312c30"/><g><path d="M263.13605,83.87492l2.55753,-8.48414l89.20611,29.39798l3.72549,13.1064z" fill="#8a6672"/><path d="M276.25095,96.92094c0,0 -2.21413,-4.5262 -4.42042,-6.7922c-2.2063,-2.26603 -8.98706,-4.2506 -8.98706,-4.2506l0.75979,-1.94712c0,0 11.61761,4.11962 18.26393,6.4102c15.87719,5.4718 76.58746,26.27878 76.58746,26.27878l1.38569,7.37111z" fill="#755761"/><path d="M278.17667,100.17826l-2.06218,-3.40853l83.33878,26.94916l0.18053,3.30362z" fill="#694e57"/><path d="M265.41311,75.71542l1.41755,-4.30145l86.45629,27.7765l1.88428,6.5817c0,0 1.57193,4.03264 -3.44078,2.35407c-1.57804,-0.52841 -9.18633,-6.58242 -10.7683,-7.11216c-15.23541,-5.10178 -75.54901,-25.29862 -75.54901,-25.29862z" fill="#916b77"/><path d="M267.0604,71.4898l0.67728,-2.43488l85.4348,28.00907l0.2439,2.59922z" fill="#9e7582"/><path d="M337.24772,95.3402c-7.45965,-3.14055 -68.55137,-24.36033 -68.55137,-24.36033l83.43987,27.49773l2.23053,8.5699c0,0 -9.65937,-8.56674 -17.11904,-11.70728z" fill="#b38f9a"/></g><path d="M307.49826,109.83825l2.87135,-8.71285l19.19666,6.32628l-2.87135,8.71285z" fill="#3a3336"/><path d="M310.2849,101.10184l1.15699,-1.22177l17.60696,5.80239l0.45913,1.75432z" fill="#4b4246"/><path d="M307.78767,109.40784l2.55953,-7.76671c0,0 -0.64226,5.33276 1.53588,7.21539c2.17814,1.88262 14.56481,6.70084 14.56481,6.70084z" fill="#332c30"/><path d="M353.29622,103.67976l-1.84509,-6.92548c0,0 1.1802,-0.31303 1.75067,-0.12503c0.63774,0.21017 1.89636,1.32689 1.89636,1.32689l1.84509,6.92548z" fill="#757575"/><path d="M354.68293,109.12185l-2.65561,-9.94303l3.64707,1.20189l2.65561,9.94301z" fill="#5a5a5a"/><path d="M356.69607,116.5754l-2.65561,-9.94301l3.64705,1.20188l2.65562,9.94303z" fill="#505050"/><path d="M358.77387,124.29325c-0.45357,-1.69825 -2.22335,-8.32452 -2.22335,-8.32452l3.64705,1.2019l3.04943,11.87777c0,0 -2.12012,-0.13486 -3.01727,-0.44612c-0.69982,-0.24279 -1.25586,-3.5602 -1.45587,-4.30904z" fill="#3b3b3b"/><path d="M260.85823,85.85984l5.84505,-17.73643l3.02115,0.9956l-5.84507,17.73644z" fill="#443e42"/><path d="M242.43006,81.47034l1.20416,-5.84479l19.2122,6.33139l-1.85541,5.63015z" fill="url(#color-7)"/><path d="M243.43683,76.22452l3.39503,-10.30197l19.2122,6.33139l-3.39505,10.30198z" fill="#5e555b"/><path d="M246.79232,66.04248l2.06253,-3.70268l18.45239,6.08099l-1.30274,3.95308z" fill="url(#color-8)"/><path d="M314.80168,84.28031l1.91968,-5.82514l13.93361,5.71492l2.91545,5.92114z" fill="#5e555b"/><path d="M333.45916,90.42891l-2.83197,-6.17441c0,0 2.6485,1.59998 4.45232,3.2455c1.80385,1.64553 4.5425,4.95987 4.5425,4.95987z" fill="#776b73"/><path d="M311.56964,84.43186l3.42873,-0.18035l24.39721,7.75936l2.98836,2.57586z" fill="#6d6269"/></g><g><path d="M310.11474,106.52035c0.39086,-1.18612 1.23761,-2.12495 1.92895,-2.98116c0.96331,-1.19309 1.90733,-2.13265 3.40094,-2.53136c0.91234,-0.24354 2.11434,-0.25743 3.12883,-0.17617c0.671,0.05376 1.74516,-0.01351 2.41288,0.20655c1.51361,0.49882 1.81316,0.68358 2.74989,1.51454c0.56427,0.50055 1.98077,1.44023 2.27849,2.24605c0.252,0.68201 0.407,1.73183 0.51881,2.48426c0.19105,1.28588 0.36962,3.30787 -0.065,4.62673c-0.18369,0.55735 -1.06981,1.67456 -1.27834,2.1486c-0.66195,1.50487 -0.82217,1.98863 -2.32005,2.65688c-0.9104,0.40616 -2.51338,0.45469 -3.57605,0.53615c-1.10054,0.08437 -2.58333,0.50758 -3.69711,0.14053c-0.75174,-0.24775 -1.94063,-1.20283 -2.62625,-1.57218c-1.48749,-0.80131 -2.28016,-1.24622 -2.90106,-2.65131c-0.53246,-1.20494 -0.27975,-2.80455 -0.20074,-4.20793c0.04152,-0.73727 0.00375,-1.7054 0.24588,-2.44016z" fill="#3a3a3a"/><path d="M310.84619,106.63651c0.35768,-1.08539 1.13254,-1.94451 1.76516,-2.72804c0.88154,-1.0918 1.74536,-1.95156 3.11221,-2.31646c0.83486,-0.22287 1.93483,-0.23557 2.86316,-0.1612c0.61402,0.04917 1.59701,-0.01234 2.20797,0.18901c1.38512,0.45647 1.65923,0.62554 2.51642,1.38593c0.51635,0.45807 1.81259,1.31794 2.08507,2.05533c0.2306,0.62414 0.37244,1.58482 0.47475,2.27333c0.17483,1.17668 0.33823,3.02702 -0.05946,4.23387c-0.16808,0.51001 -0.97901,1.53238 -1.16982,1.96618c-0.60574,1.3771 -0.75234,1.8198 -2.12306,2.4313c-0.83312,0.37164 -2.3,0.41606 -3.27243,0.49061c-1.00708,0.0772 -2.36401,0.46449 -3.38321,0.12862c-0.68791,-0.22669 -1.77584,-1.10069 -2.40326,-1.43866c-1.36121,-0.73328 -2.08659,-1.14039 -2.65477,-2.42621c-0.48723,-1.10264 -0.25598,-2.56642 -0.18368,-3.85064c0.03798,-0.67469 0.00344,-1.56061 0.22499,-2.23295z" fill="#5a5a5a"/><path d="M323.84324,106.15073c-1.19545,-2.90594 -5.97024,-4.69073 -5.97024,-4.69073c0,0 2.0137,0.09505 3.9017,0.72453c1.52934,0.50989 2.90861,1.34817 3.60269,2.94674c0.69463,1.59985 0.60404,3.13327 0.43964,4.54838c-0.32227,2.77451 -1.48704,4.91007 -1.48704,4.91007c0,0 0.7087,-5.53304 -0.48678,-8.43898z" fill="#6d6d6d"/><path d="M317.21307,109.25013c0.18019,-0.54677 0.76951,-0.84396 1.31632,-0.66379c0.54677,0.18018 0.84395,0.76951 0.66378,1.31633c-0.18019,0.54677 -0.76951,0.84395 -1.31632,0.66378c-0.54677,-0.18018 -0.84396,-0.7695 -0.66377,-1.31632z" fill="#272727"/><path d="M317.09521,109.35533c0.16528,-0.50149 0.70579,-0.77408 1.2073,-0.6088c0.50149,0.16528 0.77408,0.70579 0.6088,1.2073c-0.16528,0.50149 -0.70579,0.77409 -1.2073,0.60882c-0.50149,-0.16528 -0.77409,-0.70579 -0.60881,-1.2073z" fill="#131313"/></g></g></g></g></g><path d="M198.29868,185.90716c0.49601,-1.50505 9.7931,-43.3222 10.78787,-44.75814c1.34313,-1.93881 8.97542,1.99851 12.26256,1.49422c10.06743,-1.54445 20.8231,-2.82965 20.8231,-2.82965c0,0 13.1798,4.95459 17.20344,6.28062c3.00895,0.99161 63.90421,12.12027 61.37778,22.1553c-3.42676,13.61129 -41.09971,-11.14223 -44.89654,0.3789c-0.96119,2.91662 1.26628,3.85652 -0.25607,6.66855c-0.36539,0.67489 -4.21989,4.85749 -4.95756,6.37914c-1.17097,2.41541 0.70587,7.24817 -3.40804,9.15567c-3.27935,1.52053 -3.0147,6.89001 -4.00183,7.84462c-6.8026,6.5783 -13.52224,0.35815 -22.08224,-2.46279c-10.14911,-3.34463 -26.08327,-4.67547 -34.60811,-8.78764c-3.67984,-1.7751 -9.68811,2.86224 -8.24435,-1.51875z" fill="#86c8f5" stroke-width="0"/><g stroke-width="0"><g><path d="M188.92022,201.19953l1.7471,-5.30147c0,0 2.07301,0.87063 3.18627,0.22283c1.57282,-0.91516 5.53095,-5.02252 5.53095,-5.02252l-1.93141,7.88546c0,0 -3.9265,2.07372 -5.66852,2.44455c-1.25773,0.2677 -2.86436,-0.22883 -2.86436,-0.22883z" fill="#4d484c"/><g><g><path d="M153.78365,177.66977l5.63333,-3.99985c0,0 17.90437,-3.5218 25.40052,-5.14885c5.76628,-1.25157 15.02473,-3.41308 15.02473,-3.41308l-5.74403,25.84746z" fill="#eb59c1"/><path d="M158.65561,167.56269l8.60649,-27.98637c0,0 24.88398,12.62663 30.49393,17.58855c4.07093,3.60067 -1.5883,16.28728 -1.5883,16.28728l-7.48478,4.00613z" fill="#dd54b6"/><path d="M162.41803,146.22608l6.60477,-23.05021c0,0 10.83357,11.21444 14.99195,13.39103c6.16189,3.22531 19.2108,4.61376 19.2108,4.61376l-8.15468,24.74481c0,0 -16.28651,0.24098 -17.00948,-0.19518c-3.54225,-2.13703 -15.64336,-19.50421 -15.64336,-19.50421z" fill="#ff77d8"/><path d="M164.0597,138.96109l4.39804,-13.34553l36.45927,7.53412l-6.93744,16.98969c0,0 -12.18063,1.64079 -16.17077,0.32584c-6.25964,-2.06286 -17.7491,-11.50412 -17.7491,-11.50412z" fill="#ee51c1"/></g><g><g><path d="M154.56697,166.8664l7.98465,-40.33396l7.97923,2.62959l-7.98465,40.33396z" fill="#a59da1"/><path d="M162.45848,126.7024c0,0 0.66994,-4.50907 2.77863,-5.16373c2.1087,-0.6547 7.01481,0.69551 7.01481,0.69551l-1.80119,7.10209z" fill="#b9b0b5"/><path d="M152.92576,177.53375l1.7056,-10.67537l7.94109,2.61702l-1.7056,10.67536z" fill="#8b8488"/></g><g><path d="M193.80239,176.22004l7.98465,-40.33395l4.31112,1.42072l-7.98464,40.33396z" fill="#a59da1"/><path d="M201.62633,136.88322l1.24226,-6.37257c0,0 3.00023,0.27234 3.64288,1.69464c0.64265,1.42231 -0.49343,5.27576 -0.49343,5.27576z" fill="#b9b0b5"/><path d="M192.14927,186.88354l1.7056,-10.67538l4.28489,1.41209l-1.70559,10.67538z" fill="#8b8488"/></g><path d="M151.15257,185.97909c0,0 -2.24737,-3.6285 -2.1604,-5.16299c0.09682,-1.70814 2.71504,-4.62087 2.71504,-4.62087l46.64786,10.74552c0,0 1.18242,2.84701 1.11754,4.39062c-0.09097,2.16358 -5.62732,5.51364 -5.62732,5.51364z" fill="#494547"/><path d="M171.33035,126.06958c0,0 -2.02244,-1.26384 -2.25176,-1.94407c-0.25183,-0.74698 1.61786,-2.32359 1.61786,-2.32359c0,0 11.75561,2.8086 16.86845,4.15435c5.9604,1.56883 15.92686,4.65974 15.92686,4.65974c0,0 0.12134,1.32865 -0.14671,1.86932c-0.25958,0.52363 -1.05383,1.45142 -1.05383,1.45142z" fill="#c2b8bd"/><path d="M151.87198,184.93086c0,0 -0.28532,-3.0793 0.0092,-4.7465c0.24439,-1.38361 1.26014,-3.42565 1.26014,-3.42565l43.86236,10.18347c0,0 0.93964,3.62941 0.41922,5.20854c-0.55905,1.69645 -3.29031,3.50358 -3.29031,3.50358z" fill="#6f696b"/><path d="M160.73582,193.56891l1.7471,-5.30146l28.79879,7.801l-1.74709,5.30146z" fill="#333032"/><path d="M149.7444,190.07452c-0.85212,-0.96303 -1.98897,-2.88095 -1.98897,-2.88095l1.30832,-6.74896c0,0 1.63819,2.93246 2.35874,4.60343c0.51001,1.18274 11.14035,3.12834 11.14035,3.12834l-1.74709,5.30147c0,0 -10.21922,-2.44029 -11.07135,-3.40332z" data-paper-data="{&quot;index&quot;:null}" fill="#444043"/><g><path d="M165.98584,140.06836c0,0 -0.97063,-5.31287 -0.45031,-6.97576c0.36024,-1.15127 3.2725,-2.04381 3.2725,-2.04381l34.24692,8.1017c0,0 0.53589,3.46574 0.07075,4.95224c-0.47539,1.51931 -2.89299,4.06734 -2.89299,4.06734z" fill="#979797"/><path d="M166.37027,139.07257c0,0 -1.16102,-4.8019 -0.71213,-6.27313c0.31081,-1.01864 3.14697,-1.70703 3.14697,-1.70703l34.06763,8.58271c0,0 0.66151,3.12864 0.26022,4.44386c-0.41012,1.3442 -2.69506,3.53632 -2.69506,3.53632z" fill="#a2a2a2"/></g><g><path d="M163.07018,156.52214c0,0 -0.97063,-5.31287 -0.45031,-6.97576c0.36024,-1.15127 3.27249,-2.04383 3.27249,-2.04383l34.24691,8.1017c0,0 0.53591,3.46573 0.07077,4.95223c-0.47539,1.51931 -2.89297,4.06733 -2.89297,4.06733z" fill="#979797"/><path d="M163.4546,155.52638c0,0 -1.16101,-4.80189 -0.71211,-6.27313c0.31079,-1.01862 3.14697,-1.70703 3.14697,-1.70703l34.06763,8.58274c0,0 0.6615,3.12864 0.26022,4.44386c-0.41013,1.3442 -2.69506,3.53631 -2.69506,3.53631z" fill="#a2a2a2"/></g><g><path d="M160.10118,173.47978c0,0 -0.97063,-5.31287 -0.45031,-6.97576c0.36024,-1.15127 3.27249,-2.04382 3.27249,-2.04382l34.24691,8.1017c0,0 0.53589,3.46574 0.07076,4.95224c-0.47539,1.51931 -2.89297,4.06733 -2.89297,4.06733z" fill="#7a7a7a"/><path d="M160.48556,172.48404c0,0 -1.16103,-4.80189 -0.71213,-6.27313c0.31079,-1.01862 3.14697,-1.70701 3.14697,-1.70701l34.06766,8.58272c0,0 0.66148,3.12864 0.26022,4.44387c-0.41013,1.3442 -2.69506,3.53633 -2.69506,3.53633z" fill="#929292"/></g></g></g></g><path d="M153.91432,170.81437c0,0 0.17109,-1.75087 0.60476,-4.04081c1.27339,-6.72301 7.78525,-40.25569 7.78525,-40.25569l1.66199,5.07834l-5.98458,29.00916z" fill="#777275"/></g></g><g fill="#86c8f5" stroke-width="0"><path d="M194.4835,185.22326c4.61901,1.95788 3.32497,8.66626 -0.26568,15.86549c-3.59065,7.19922 -9.29327,11.76825 -12.7372,10.2052c-3.44391,-1.56304 -3.32497,-8.66626 0.26568,-15.86549c3.59065,-7.19922 7.41577,-12.46083 12.7372,-10.2052z" data-paper-data="{&quot;index&quot;:null}"/><path d="M170.44914,190.55353c3.59065,-7.19922 6.50116,-10.8351 11.82256,-8.57949c4.61901,1.95788 4.2396,7.04057 0.64896,14.23978c-3.59065,7.19923 -9.29326,11.76824 -12.73719,10.2052c-3.44391,-1.56304 -3.32497,-8.66626 0.26568,-15.86549z" data-paper-data="{&quot;index&quot;:null}"/><path d="M156.7315,192.39275c3.59065,-7.19922 7.92237,-13.56221 13.2438,-11.30661c4.61901,1.95788 2.81838,9.76767 -0.77227,16.9669c-3.59065,7.19922 -7.98447,7.83403 -11.42839,6.27099c-3.44392,-1.56304 -4.63377,-4.73206 -1.04313,-11.93126z" data-paper-data="{&quot;index&quot;:null}"/><path d="M157.22145,181.0111c4.61901,1.95788 4.2396,7.04057 0.64896,14.23978c-3.59065,7.19922 -7.98447,7.83403 -11.42839,6.27099c-3.44392,-1.56304 -4.63376,-4.73206 -1.04312,-11.93126c3.59065,-7.19922 6.50115,-10.83509 11.82255,-8.57949z" data-paper-data="{&quot;index&quot;:null}"/></g></g></g></svg>