<svg version="1.1" xmlns="http://www.w3.org/2000/svg" xmlns:xlink="http://www.w3.org/1999/xlink" width="460.01639" height="192.8087" viewBox="0,0,460.01639,192.8087"><defs><linearGradient x1="518.90802" y1="251.24171" x2="517.43612" y2="255.82265" gradientUnits="userSpaceOnUse" id="color-1"><stop offset="0" stop-color="#1f1d20"/><stop offset="1" stop-color="#202022"/></linearGradient><linearGradient x1="520.81175" y1="246.75387" x2="519.11815" y2="252.02465" gradientUnits="userSpaceOnUse" id="color-2"><stop offset="0" stop-color="#302d31"/><stop offset="1" stop-color="#1f1e20"/></linearGradient><linearGradient x1="187.37173" y1="190.10453" x2="186.33468" y2="193.33205" gradientUnits="userSpaceOnUse" id="color-3"><stop offset="0" stop-color="#585758"/><stop offset="1" stop-color="#575758"/></linearGradient><linearGradient x1="171.80406" y1="195.68838" x2="170.98992" y2="198.22215" gradientUnits="userSpaceOnUse" id="color-4"><stop offset="0" stop-color="#363536"/><stop offset="1" stop-color="#353536"/></linearGradient><linearGradient x1="336.68666" y1="151.19339" x2="334.99238" y2="156.46635" gradientUnits="userSpaceOnUse" id="color-5"><stop offset="0" stop-color="#5e555b"/><stop offset="1" stop-color="#2b2629"/></linearGradient><linearGradient x1="333.71918" y1="128.53224" x2="332.49669" y2="132.33686" gradientUnits="userSpaceOnUse" id="color-6"><stop offset="0" stop-color="#72676e"/><stop offset="1" stop-color="#5e555b"/></linearGradient><linearGradient x1="221.92583" y1="107.20984" x2="220.11233" y2="112.85369" gradientUnits="userSpaceOnUse" id="color-7"><stop offset="0" stop-color="#5e555b"/><stop offset="1" stop-color="#4d454a"/></linearGradient><linearGradient x1="226.28577" y1="93.64081" x2="225.01247" y2="97.60352" gradientUnits="userSpaceOnUse" id="color-8"><stop offset="0" stop-color="#74686f"/><stop offset="1" stop-color="#5e555b"/></linearGradient></defs><g transform="translate(-64.22593,-85.42976)"><g data-paper-data="{&quot;isPaintingLayer&quot;:true}" fill-rule="nonzero" stroke="none" stroke-linecap="butt" stroke-linejoin="miter" stroke-miterlimit="10" stroke-dasharray="" stroke-dashoffset="0" style="mix-blend-mode: normal"><path d="M262.31518,261.7335c-2.30983,8.36029 -7.94202,12.18301 -24.7504,7.53912c-6.23459,-1.72251 -16.55211,-6.20517 -21.62903,-6.87655c-3.77316,-0.49897 -7.45418,0.78103 -9.24747,-1.67058c-2.29896,-3.1429 3.08923,-22.24907 3.90552,-25.20366c2.30983,-8.36029 25.80498,-9.15424 42.61333,-4.51035c16.80833,4.64389 11.41786,22.36173 9.10805,30.72203z" fill="#86c8f5" stroke-width="0"/><g><g><g stroke-width="0"><path d="M250.40261,194.61101l-5.04544,-17.73918l24.52991,7.26198c0,0 -2.82891,5.21336 -3.84472,7.72136c-0.98265,2.42605 -2.15393,7.08906 -2.15393,7.08906z" fill="#7f7d7e"/><path d="M250.43607,194.82847l-1.74986,-6.45151c0,0 1.15795,4.10615 4.05088,5.68139c2.08318,1.1343 3.97374,1.41621 6.4285,2.54191c2.45474,1.12569 4.56895,2.50127 4.56895,2.50127z" fill="#6c6a6b"/></g><g><g><g><path d="M514.58842,254.9076l-0.48837,-5.21082c0,0 5.19707,3.41123 7.39681,5.05587c2.1997,1.64464 0.38745,2.25565 0.38745,2.25565z" fill="url(#color-1)" stroke-width="0"/><path d="M524.1634,248.04045c0,0 0.6966,2.66884 -2.04939,2.72434c-2.74598,0.0555 -5.88402,0.33185 -5.88402,0.33185l0.76949,-5.56776z" data-paper-data="{&quot;index&quot;:null}" fill="url(#color-2)" stroke-width="0"/><path d="M505.433,251.96099l0.64193,-1.99775l14.06436,4.51911c0,0 0.9543,1.14094 1.30669,1.63889c0.31678,0.44761 -0.98684,0.66795 -0.98684,0.66795z" fill="#444444" stroke-width="NaN"/><path d="M506.06315,250.11012l-0.59703,-2.03408l12.01084,3.85929l2.72898,2.60164c0,0 -4.08847,-1.06371 -6.28812,-1.75223c-2.48071,-0.7765 -7.85469,-2.67469 -7.85469,-2.67469z" fill="#535353" stroke-width="0"/><path d="M505.31751,248.17194l-0.11339,-0.70867l10.92372,3.50996l1.44387,1.01611z" fill="#363636" stroke-width="0"/><path d="M505.433,251.96099l0.34823,-1.08377c0,0 6.00545,2.4061 8.74716,3.28706c2.32338,0.74654 6.6569,1.66256 6.6569,1.66256c0,0 0.68127,0.70441 0.85471,0.97324c0.14628,0.22679 -0.38153,0.37449 -0.38153,0.37449c0,0 -4.62957,-1.06274 -6.8324,-1.77052c-2.9719,-0.95493 -9.39306,-3.44301 -9.39306,-3.44301z" fill="#3a3a3a" stroke-width="NaN"/><path d="M505.50405,247.57884l-0.25663,-1.01065l12.98763,4.17315l-2.01502,0.3164z" fill="#242424" stroke-width="0"/><path d="M504.42024,246.5011l0.50608,-1.575c0,0 7.76842,2.27953 10.62054,3.196c1.94317,0.62441 4.83758,1.77099 4.83758,1.77099l-2.18233,0.86314z" fill="#3a3a3a" stroke-width="0"/><path d="M504.78992,244.92697l0.62486,-1.94465c0,0 7.38728,2.02717 10.54267,3.04104c2.7305,0.87733 7.29995,2.69212 7.29995,2.69212l-2.92713,1.20486c0,0 -3.45448,-1.19658 -5.59129,-1.88318c-2.84034,-0.91265 -9.94905,-3.11019 -9.94905,-3.11019z" fill="#444444" stroke-width="0"/><path d="M505.34764,243.05013l0.26037,-0.81026c0,0 7.53419,2.29095 10.95896,3.39138c2.38472,0.76625 7.62369,2.57952 7.62369,2.57952l-1.0839,0.54564c0,0 -4.72339,-1.82092 -7.54646,-2.728c-3.11027,-0.9994 -10.21265,-2.97831 -10.21265,-2.97831z" fill="#535353" stroke-width="0"/><path d="M505.45861,242.28128l0.10417,-0.32414c0,0 7.46342,1.86556 10.7579,2.92413c2.84833,0.91524 7.86587,3.06001 7.86587,3.06001l-0.06836,0.33561c0,0 -5.67035,-1.99524 -8.7598,-2.98793c-3.12983,-1.00568 -9.89969,-3.00768 -9.89969,-3.00768z" fill="#4e4e4e" stroke-width="0"/></g><g stroke-width="0"><g><g><g><path d="M500.00917,249.70564l-0.33522,-13.9342l1.05308,-1.46965c0,0 2.32037,4.13739 2.43666,6.79056c0.06313,1.44038 -1.76973,9.05826 -1.76973,9.05826z" fill="#383638"/><path d="M501.22143,249.36893c0,0 0.24211,-0.56261 0.3946,-3.09211c0.16629,-2.75853 -0.04677,-6.64719 -0.09254,-7.78992c-0.10272,-2.56511 -0.78152,-2.92028 -0.78152,-2.92028l4.74787,0.91448l0.57847,14.44524z" fill="#555355"/><path d="M500.77679,235.66752l-0.17568,-1.35508c0,0 2.16809,-0.14368 3.0836,0.15051c0.85788,0.27565 1.71627,1.31536 1.71627,1.31536l0.15344,1.42431z" fill="#686668"/></g><path d="M494.60841,247.97029l-0.33523,-13.93418l0.73197,-1.55168c0,0 2.64149,4.21941 2.7578,6.87254c0.06313,1.44037 -1.76972,9.05827 -1.76972,9.05827z" fill="#383638"/><path d="M495.82068,247.63358c0,0 0.24211,-0.56262 0.39461,-3.09211c0.16629,-2.75853 -0.04676,-6.64719 -0.09253,-7.78992c-0.10272,-2.56511 -0.78152,-2.92028 -0.78152,-2.92028l4.18681,0.20899c0,0 0.59321,1.50803 0.62454,2.28986c0.08924,2.22755 0.51502,12.86083 0.51502,12.86083z" fill="#555355"/><path d="M495.37606,233.93211l-0.38343,-1.42184c0,0 2.37581,-0.07689 3.29133,0.21729c0.85788,0.27565 1.43928,1.22634 1.43928,1.22634l0.27247,1.46257z" fill="#686668"/><path d="M502.30454,248.67316c0.2507,-0.78021 1.08645,-1.20946 1.86669,-0.95879c0.78022,0.2507 1.20945,1.08644 0.95878,1.86668c-0.2507,0.78021 -1.08644,1.20946 -1.86667,0.95879c-0.78022,-0.2507 -1.20945,-1.08644 -0.95879,-1.86668z" fill="#312f31"/><path d="M503.82483,246.08487l-0.20677,-5.89228l1.55891,0.35034l0.18704,5.95368z" fill="#444144"/></g><path d="M458.68081,231.20957l-0.27317,-11.45629l28.08988,10.26148l-3.39919,9.04062z" fill="#444444"/><path d="M471.91347,231.34885c0,0 0.76515,-0.30234 1.79083,-1.13333c0.93781,-0.75974 2.11799,-2.03789 2.62605,-2.36173c1.45053,-1.32632 3.57227,-0.15427 3.57227,-0.15427l-1.13239,0.3221l-5.76867,3.67686z" fill="#292929"/><path d="M471.35754,242.22983l-2.8457,-12.43827c0,0 3.16847,1.57611 5.11135,1.0985c1.50979,-0.37117 2.22531,-2.90575 3.81295,-2.69068c4.55513,0.61714 16.94517,4.14257 16.94517,4.14257c0,0 0.89908,7.79363 0.89866,10.82594c-0.00027,2.0934 -0.96431,6.4388 -0.96431,6.4388z" fill="#4a464a"/><path d="M479.3064,231.01531c-4.14759,-2.00076 -2.35859,-2.85857 -2.35859,-2.85857c0,0 1.15307,-0.99729 2.97556,-0.56518c4.4724,1.06035 12.52463,4.2536 14.17215,4.75609c0.77699,0.23695 0.11709,0.76844 0.11709,0.76844c0,0 -2.14786,1.81595 -3.70186,1.58345c-1.55403,-0.2325 -7.0568,-1.68339 -11.2044,-3.68418z" fill="#5e595e"/></g><g><path d="M458.10801,244.87894l0.57283,-18.65457l17.91372,6.05673l3.2453,5.58908l5.83695,1.77202l-1.2797,13.68391z" fill="#4d4846"/><path d="M462.45525,246.68239l22.53892,-2.6223l21.3257,6.59768c0,0 -0.03048,4.38368 -0.30878,5.71705c-0.14192,0.6798 -1.04817,2.75556 -1.04817,2.75556z" fill="#423d3b"/><path d="M461.36677,237.60313l-0.01502,-10.34676l0.78119,0.251l0.01503,10.34676z" fill="#363332"/><path d="M463.25797,246.09832l0.37243,-1.15901c0,0 5.79078,-0.81295 14.42107,1.96011c1.14668,0.36846 4.41263,4.09148 5.56837,4.46284c7.33285,2.35619 14.51034,4.6624 17.24091,5.53982c2.22379,0.71455 4.89233,0.20651 4.89233,0.20651l-0.77012,2.39668z" fill="#312e2c"/><path d="M469.41163,234.69389l-0.24808,-4.9275l7.90942,2.54145l2.60328,5.48045l5.94482,2.11399l-7.822,-0.46651z" fill="#585350"/><path d="M458.23002,238.48048l0.34515,-1.0741c0,0 8.80534,-1.1028 11.54463,-0.22262c4.12846,1.32656 15.52588,4.98874 15.52588,4.98874l-0.34515,1.0741c0,0 -11.59279,-3.72497 -15.72121,-5.05149c-2.68301,-0.86212 -11.34934,0.28538 -11.34934,0.28538z" fill="#2b2827"/></g></g></g><g><g><g><path d="M126.59179,176.72114c-0.16852,2.29231 -1.25529,4.66307 -2.37478,4.58075c-1.11951,-0.08231 -1.84784,-2.58646 -1.67929,-4.87882c0.16852,-2.29231 0.75842,-11.10476 1.87793,-11.02242c1.11951,0.08231 2.34469,9.02815 2.17618,11.32053z" fill="#615e5f" stroke-width="0"/><g><path d="M175.34594,160.9507c-0.35207,-0.66733 -2.17905,-2.63281 -2.17905,-2.63281l10.32545,0.29274l-7.91492,5.01938c0,0 0.12058,-2.01197 -0.23149,-2.67925z" fill="#756a6a" stroke-width="0"/><path d="M167.27129,156.57351l4.20121,-13.07495l19.43951,0.08419l-5.9959,18.66038z" fill="#8a7c7c" stroke-width="0"/><path d="M127.48849,149.51196l11.89428,-15.2246l33.29938,10.55965l0.44108,13.44624c0,0 -22.36991,-5.53244 -29.9825,-6.99727c-3.16003,-0.60807 -15.65232,-1.78398 -15.65232,-1.78398z" fill="#7c787a" stroke-width="0"/><path d="M138.75978,136.6131l0.31215,-1.4558c0,0 24.68139,7.93054 32.44054,10.42367c4.34124,1.39492 17.3228,-1.12504 17.3228,-1.12504l-0.49853,1.5515c0,0 -12.69556,2.5916 -16.88962,1.22858c-7.69036,-2.49925 -32.68733,-10.62292 -32.68733,-10.62292z" fill="#535353" stroke-width="0"/><path d="M96.73037,140.37236l6.16538,-19.18778c0,0 6.47188,-5.32981 14.07113,-5.29963c9.43856,0.03753 24.97163,6.90353 26.94299,7.53699c1.51282,0.4861 -15.47538,5.9687 -15.47538,5.9687l-6.16538,19.18779z" fill="#8d898b" stroke-width="0"/><path d="M275.50224,149.34849l2.48767,-2.50325l102.36472,33.04158l-4.51106,14.03929c0,0 -36.53396,-9.80052 -48.04162,-13.93521c-5.71504,-2.05339 -52.29967,-30.64241 -52.29967,-30.64241z" fill="#c98cac" stroke-width="0"/><path d="M223.97952,238.87926l-0.36841,-13.70618c0,0 3.10536,7.13132 5.48708,9.02769c1.51746,1.20821 5.4242,2.86451 11.98767,2.41331c5.28383,-0.36323 11.89056,-4.02865 11.89056,-4.02865l-15.6645,10.57781z" fill="#a08e97" stroke-width="0"/><path d="M324.48335,221.89441l5.00021,-23.20422l18.08733,4.33837l-6.48443,20.18083c0,0 -6.6166,-0.32032 -9.46274,-0.50142c-1.31052,-0.08337 -7.14034,-0.81357 -7.14034,-0.81357z" fill="#96858d" stroke-width="0"/><path d="M221.08407,241.88339l1.69481,-5.27458c0,0 10.85211,5.65967 16.20506,4.10117c2.6051,-0.7585 25.05254,-15.5323 37.44934,-23.76671c4.83785,-3.21344 8.1451,-5.43099 8.1451,-5.43099c0,0 4.35256,-2.56466 5.23811,-5.30745c0.44546,-1.37975 2.17119,-5.21437 2.08659,-7.66931c-0.08537,-2.47688 -1.98307,-3.56801 -1.98307,-3.56801l-0.48667,-14.41208l18.82206,6.19878l-10.89902,24.40938l2.79431,3.58874c0,0 -10.93246,2.78944 -16.85547,6.09154c-9.26732,5.16652 -40.83044,26.93963 -40.83044,26.93963z" fill="#918189" stroke-width="0"/><path d="M302.30652,215.13911l9.90569,-26.86133l13.03086,4.47668l6.19522,14.59716l-7.12813,14.85768z" fill="#96858d" stroke-width="0"/><path d="M297.43317,215.51552l-1.12074,-4.71467l11.38114,-23.85174l4.86222,1.47334l-9.38828,27.00957z" fill="#8f8187" stroke-width="0"/><path d="M323.10335,221.93031c0,0 4.65934,-5.50564 5.02676,-11.07088c0.21151,-3.20445 -3.86139,-6.58204 -3.73171,-8.54646c0.24772,-3.75254 0.63095,-9.55784 0.63095,-9.55784l6.14351,6.55775c0,0 1.0361,7.9099 0.3015,12.14998c-0.49349,2.84869 -3.85656,8.46515 -5.53379,10.65598c-0.14139,0.18468 -1.2357,-0.25441 -1.33542,-0.11279c-0.24361,0.34592 0.60359,0.86114 0.60359,0.86114z" fill="#86787e" stroke-width="0"/><path d="M330.50972,200.67522c0,0 -1.7328,-4.71082 -5.89357,-7.06836c-4.71049,-2.66892 -20.92548,-8.12706 -20.92548,-8.12706l154.51376,34.75202l0.40621,9.90069l4.12961,13.03068c0,0 -95.17325,-33.28173 -114.77458,-39.57993c-6.39619,-2.05519 -17.4559,-2.90799 -17.4559,-2.90799z" fill="#df8db7" stroke-width="0"/><path d="M169.22164,198.51174l6.52739,-35.99883c0,0 2.74992,-3.05595 3.29301,-3.10797c5.98808,-0.57351 39.7474,-0.91424 44.8383,1.02223c5.5768,2.1213 -12.46579,8.85314 -12.46579,8.85314c0,0 -14.33876,-2.47933 -18.05491,0.79044c-5.04541,4.43947 -5.73908,22.44394 -5.73908,22.44394z" fill="#c77da3" stroke-width="0"/><path d="M247.32574,192.17194l-1.05967,-2.55179c0,0 8.87741,-6.18744 11.89568,-7.62583c3.1161,-1.48497 6.51675,-1.14864 6.51675,-1.14864l4.94666,4.00756c0,0 -4.10775,-1.84779 -6.88318,-0.93688c-2.38263,0.78198 -6.89665,2.56526 -10.50863,4.65269c-2.62741,1.51849 -4.90762,3.60282 -4.90762,3.60282z" fill="#414041" stroke-width="0"/><path d="M138.77582,135.51927l8.14585,-9.66076l46.29718,14.87607c0,0 -4.1226,3.3552 -7.6941,4.27272c-3.50534,0.90054 -13.54005,1.18247 -13.54005,1.18247z" fill="#979395" stroke-width="0"/><path d="M139.88706,134.6759l7.38423,-9.9055l46.29718,14.87607c0,0 -4.12261,3.35521 -7.69411,4.27271c-3.50534,0.90054 -13.54006,1.18247 -13.54006,1.18247z" fill="#bdb7ba" stroke-width="0"/><path d="M325.29796,222.97233l-1.62603,-1.06182l17.31825,1.17964c0,0 -4.01908,0.86957 -6.6277,0.86841c-2.60867,-0.00114 -9.06449,-0.98626 -9.06449,-0.98626z" fill="#887980" stroke-width="0"/><path d="M171.44608,199.71432c0,0 0.97351,-10.67967 2.442,-19.17619c1.47572,-8.53799 2.8838,-16.53745 3.9594,-19.95705c0.18223,-0.57932 4.7892,-9.52977 5.42456,-9.87325c3.4293,-1.85426 8.43111,7.88642 14.06607,8.53789c8.34349,0.96464 26.69316,6.3207 26.69316,6.3207l-9.67303,2.46999c0,0 -19.39364,-3.22213 -23.24219,0.93722c-5.2055,5.6259 -4.38294,27.814 -4.38294,27.814z" fill="#d486ae" stroke-width="0"/><path d="M173.59985,196.71033c0,0 6.16136,-40.9499 10.50732,-50.13788c2.03342,-4.29894 1.62569,-13.99646 1.62569,-13.99646l46.10643,22.13436l-3.56035,15.73519c0,0 -29.55992,-12.74708 -37.52518,-8.71653c-5.3171,2.69049 -7.47434,31.66257 -7.47434,31.66257z" fill="#e490bb" stroke-width="0"/><g stroke-width="0"><path d="M324.65826,179.08223l2.53141,-7.87817l8.91128,2.86336l-2.53141,7.87818z" fill="#454545"/><path d="M325.68468,178.60867l1.89293,-7.05736l10.7832,3.46483l-2.2326,6.94821z" fill="#b0b0b0"/><path d="M326.83846,174.26432l0.64823,-2.76453l10.98947,3.53112l-0.58349,1.81598c0,0 -7.51789,-2.07694 -9.17823,-2.46487c-0.5548,-0.12959 -1.87599,-0.1177 -1.87599,-0.1177z" fill="#bebebe"/><path d="M336.53763,181.51874c0,0 -4.49337,-4.12781 -2.80325,-7.52115c2.51145,-5.04245 6.28882,-3.32658 6.28882,-3.32658l37.90527,13.5801l-3.07767,9.57831z" fill="#9c989a"/><path d="M338.63361,180.83804c0,0 -1.29103,-4.11096 -1.23997,-5.06807c0.07574,-1.4187 2.87958,-3.62399 2.87958,-3.62399l39.59144,12.75641l-2.67167,7.00729z" fill="#898587"/><path d="M338.48699,180.99919l-0.37743,-2.15831l36.39891,11.69558l-0.59329,1.84643z" fill="#c1bcbf"/><path d="M339.40985,177.73087c0,0 -0.85093,-1.7103 -0.56419,-2.60272c0.26822,-0.83478 2.23283,-2.59037 2.23283,-2.59037l36.81297,11.82861l-1.66861,5.19303z" fill="#0d0d0d"/><path d="M339.17206,178.47091c0,0 -0.66622,-2.28512 -0.37946,-3.17753c0.26822,-0.83478 2.0481,-2.01551 2.0481,-2.01551l36.81296,11.8286l-1.66861,5.19304z" fill="#2e2e2e"/><path d="M333.99517,178.80663c-1.57411,-3.72717 0.24997,-5.59527 0.24997,-5.59527c0,0 0.4864,4.4757 1.38807,5.70821c1.06755,1.45923 4.08646,3.86402 4.08646,3.86402l-3.36204,-1.00658c0,0 -2.08544,-2.31445 -2.36247,-2.97038z" fill="#7d7a7c"/><path d="M341.55271,179.56114c0,0 -0.16962,-2.37787 0.18023,-3.46659c0.30749,-0.95704 1.80821,-2.72176 1.80821,-2.72176l4.5921,1.47552c0,0 -1.11324,1.95726 -1.37883,2.78387c-0.36507,1.13608 -0.60959,3.40451 -0.60959,3.40451z" fill="#555555"/><path d="M349.75629,182.19709c0,0 1.40657,-2.19822 1.75638,-3.28693c0.30749,-0.95704 0.23205,-2.90144 0.23205,-2.90144l5.12526,1.64684c0,0 -0.92134,1.50539 -1.18696,2.33201c-0.36507,1.13608 -0.80149,3.85636 -0.80149,3.85636z" fill="#555555"/><path d="M358.63583,185.05027c0,0 1.40659,-2.19821 1.7564,-3.28693c0.30749,-0.95704 0.23204,-2.90142 0.23204,-2.90142l5.04909,1.62231c0,0 -0.92134,1.50539 -1.18696,2.33201c-0.36507,1.13608 -0.80149,3.85636 -0.80149,3.85636z" fill="#555555"/><path d="M367.83586,188.00639c0,0 1.46704,-1.80527 1.81688,-2.89404c0.30749,-0.95704 0.17155,-3.29435 0.17155,-3.29435l4.89677,1.57341c0,0 0.18183,2.13995 -0.08378,2.96661c-0.36507,1.13608 -1.90466,3.2218 -1.90466,3.2218z" fill="#555555"/><path d="M343.07236,173.96157l-0.38849,-0.96513l33.85771,10.87908l-1.70544,0.29232c0,0 -2.6944,-0.86581 -5.03857,-1.619c-0.51095,-0.16421 -1.37729,-0.78784 -2.14262,-1.03381c-0.74003,-0.2378 -1.37174,-0.09543 -2.29164,-0.39099c-1.43445,-0.46093 -3.05291,-0.98094 -4.74724,-1.52539c-0.70246,-0.22571 -1.19637,-0.78726 -1.91723,-1.01888c-0.64101,-0.20594 -1.50785,-0.08166 -2.15186,-0.28858c-1.59838,-0.5136 -3.18103,-1.02215 -4.66903,-1.50023c-0.68332,-0.21957 -1.21254,-0.85006 -1.84827,-1.05431c-0.77611,-0.24938 -1.64519,-0.06819 -2.32515,-0.28668c-2.77378,-0.89124 -4.63222,-1.48839 -4.63222,-1.48839z" fill="#474747"/></g><g><path d="M182.3954,192.78386l4.41608,-1.59288c0,0 1.82838,3.54411 4.25273,5.26315c2.14429,1.52039 9.55665,4.52843 9.55665,4.52843l-3.85983,3.33335z" fill="#6d6a6b" stroke-width="0"/><path d="M172.73428,196.5071l11.04815,-4.20709c0,0 2.38936,3.1379 4.25166,4.43152c2.8174,1.95704 11.00789,6.16825 11.00789,6.16825l-5.39035,2.7922z" fill="#615e5f" stroke-width="0"/><path d="M167.91716,218.03281l5.49321,-21.9447c0,0 3.90319,2.08598 8.48433,3.58907c3.57576,1.17323 7.68859,1.605 9.8672,2.94398c3.82465,2.35069 31.96372,24.3701 31.96372,24.3701l-0.75296,10.44524z" fill="#575455" stroke-width="0"/><path d="M196.74599,198.89245c8.30339,-3.17744 20.10115,-13.51605 22.08583,-15.57921c1.42978,-1.48637 3.69832,-6.29914 3.69832,-6.29914l5.24963,8.84475c0,0 -0.70084,21.30367 -3.44565,33.70529c-0.76804,3.47007 0.42189,7.9963 -1.15611,9.02956c-1.41382,0.92577 -18.26252,-2.0828 -23.1642,-4.46105c-10.3154,-5.00495 -16.68312,-4.12102 -18.63452,-10.28904c-1.95141,-6.168 6.72711,-9.96547 6.72711,-9.96547c0,0 6.47798,-4.15847 8.63968,-4.9857z" fill="#504e4f" stroke-width="0"/><path d="M211.36288,169.11093c0,0 0.83351,-1.30015 1.85242,-1.66966c1.31037,-0.47525 5.35773,-0.94535 5.35773,-0.94535c0,0 8.28546,4.83368 10.38967,8.12523c1.94147,3.03685 -7.18329,10.9038 -7.18329,10.9038l-0.2702,-5.71817z" fill="#464445" stroke-width="0"/><path d="M219.036,221.18205c0,0 -10.75289,3.11571 -18.88297,0.6834c-7.84315,-2.3464 -13.08398,-10.21892 -12.54699,-11.54022c0.29092,-0.71589 8.84995,-1.43747 13.4512,-4.39301c5.11473,-3.28534 6.3939,-8.86293 8.29501,-10.36381c5.30739,-4.18997 16.46126,-11.29708 17.29994,-17.37555c0.87952,-6.37465 -8.6898,-11.62772 -8.6898,-11.62772c0,0 4.35543,-0.9656 9.14179,0.43595c2.03883,0.597 5.94444,3.30759 6.70573,3.95652c2.49638,2.12807 3.89111,4.29483 3.89111,4.29483c0,0 4.97584,-3.52622 8.49991,-2.71891c3.52409,0.80731 20.54565,9.37267 20.54565,9.37267l-19.28604,7.03124z" fill="#555354" stroke-width="0"/><path d="M208.79294,196.01366c0,0 7.72537,-8.93799 13.8916,-12.66524c6.16621,-3.72727 11.02207,-5.50762 14.38505,-4.42704c2.43532,0.7825 2.93032,9.99079 2.93032,9.99079l-19.34676,24.00142c0,0 -14.92333,-1.35087 -15.57091,-4.16456c-0.51144,-2.22223 3.7107,-12.73539 3.7107,-12.73539z" fill="#585758" stroke-width="0"/><path d="M221.9157,228.90461c0,0 -0.84625,-6.77471 0.38888,-9.55223c1.7255,-3.88019 6.97116,-15.48579 6.97116,-15.48579l-1.32955,10.53399c0,0 -3.59166,9.08427 -4.39218,12.0095c-0.7724,2.82238 -0.08126,5.3241 -0.08126,5.3241z" fill="#3f3e3f" stroke-width="0"/><path d="M226.49679,211.61173c0.32627,-1.65427 2.93922,-8.91391 2.93922,-8.91391c0,0 13.5565,-10.94562 16.36496,-12.82987c0.82334,-0.55238 4.54763,-1.1738 4.54763,-1.1738l-3.05223,4.11761c0,0 -1.68314,0.09355 -2.00052,0.49349c-0.33813,0.42608 0.03008,1.98946 0.03008,1.98946l-7.47715,6.50457c0,0 -1.88063,0.45719 -2.20582,0.8835c-0.32529,0.42642 0.05771,1.48235 0.05771,1.48235c0,0 -6.40481,7.3335 -7.9456,9.37479c-0.7124,0.9438 -0.92685,2.37966 -0.92685,2.37966c0,0 -0.65768,-2.65356 -0.33138,-4.30788z" fill="#474647" stroke-width="0"/><path d="M220.41449,187.63318l17.52995,14.28266c0,0 -1.4416,0.60003 -1.83233,1.0407c-0.28831,0.32514 -0.29949,1.36359 -0.29949,1.36359z" fill="#3f3e3e" stroke-width="NaN"/><path d="M229.29393,179.612l18.22588,13.27057c0,0 -1.31956,0.46178 -1.6906,0.92688c-0.38683,0.48486 -0.36519,1.62539 -0.36519,1.62539z" fill="#3f3e3e" stroke-width="NaN"/><path d="M208.6767,203.11152c0,0 7.82647,10.59517 11.59414,18.08437c3.76769,7.48925 1.55087,8.04452 1.55087,8.04452z" fill="#636162" stroke-width="NaN"/><path d="M228.37988,185.22486c0,0 -6.60133,0.92917 -10.16599,3.03561c-3.56467,2.10642 -16.44966,14.96409 -15.54858,12.15977c0.90106,-2.80431 19.73262,-18.51793 21.44152,-17.96888c0.6469,0.20786 3.88702,0.0492 4.59357,0.52561c1.15989,0.78219 -0.3205,2.24787 -0.3205,2.24787z" fill="#918f91" stroke-width="0"/><path d="M167.5224,217.77005l13.85205,2.46753c0,0 12.0937,3.53691 15.03259,4.64409c7.15705,2.6963 28.06559,11.59247 28.06559,11.59247l-2.35927,5.88131c0,0 -24.28381,-4.05781 -30.44526,-7.41948c-1.78248,-0.9725 -7.13122,-3.34035 -10.7693,-5.92964c-7.11955,-5.06706 -13.3764,-11.23631 -13.3764,-11.23631z" fill="#626061" stroke-width="0"/><path d="M221.2642,241.713c0,0 1.35168,-4.07447 1.64003,-6.4395c0.32413,-2.65817 0.21,-8.73319 0.21,-8.73319l1.69691,0.54524c0,0 0.27336,4.76908 -0.02006,7.17552c-0.32083,2.63108 -1.82995,7.99718 -1.82995,7.99718z" fill="#4a494a" stroke-width="0"/><path d="M220.82247,242.44952l1.12326,-3.2073c0,0 0.4586,0.4254 0.7171,0.50848c0.30715,0.0987 0.96568,0.03225 0.96568,0.03225l-0.80634,3.07743c0,0 -0.86402,0.15052 -1.22838,0.07568c-0.27921,-0.05735 -0.77121,-0.48649 -0.77121,-0.48649z" fill="#363536" stroke-width="0"/><path d="M223.06246,227.60061l0.1284,-1.66097c0,0 0.50577,-0.20973 0.87472,-0.15342c0.35136,0.05366 0.81119,0.33033 0.81119,0.33033l-0.05361,1.80658c0,0 -0.61397,0.33573 -0.91561,0.28045c-0.28421,-0.05207 -0.84508,-0.60298 -0.84508,-0.60298z" fill="#585758" stroke-width="0"/><path d="M181.55437,228.50067c0,0 -6.61334,-5.2265 -6.19638,-6.52418c0.41906,-1.30413 6.71538,-0.51081 6.71538,-0.51081c0,0 10.49289,3.11865 15.15945,4.79939c2.61253,0.94092 10.45633,4.42653 10.45633,4.42653c0,0 6.61977,3.23433 7.04342,4.58019c0.46215,1.46805 -4.086,2.99138 -4.086,2.99138c0,0 -12.51342,-2.64894 -16.22444,-4.0601c-1.31828,-0.50131 -12.86774,-5.70234 -12.86774,-5.70234z" fill="#6b696a" stroke-width="0"/><path d="M173.78035,218.75372l-1.93825,-0.38037c0,0 1.64708,-3.0784 3.8567,-1.06365c2.2096,2.01475 20.58337,6.85622 20.58337,6.85622z" fill="#4b4949" stroke-width="0"/><path d="M167.63589,217.65524c0,0 -1.9606,-0.42875 -1.3557,-4.06053c0.3062,-1.83839 2.9912,-15.88245 2.9912,-15.88245l4.44376,-1.61725c0,0 -1.18447,5.91497 -1.87599,8.74113c-0.91978,3.7588 -3.32434,13.10148 -3.32434,13.10148z" fill="#3f3d3e" stroke-width="0"/><path d="M174.03599,219.01013c0,0 3.69984,-1.07799 19.08959,3.51291c1.2709,0.37914 -1.69933,-0.57964 7.09461,2.77887c8.79392,3.35849 12.05205,5.99422 12.05205,5.99422c0,0 -14.01676,-5.62703 -19.92224,-7.52455c-6.73153,-2.16293 -18.31399,-4.76137 -18.31399,-4.76137z" fill="#838082" stroke-width="0"/><path d="M187.90936,192.34362c0,0 -4.83021,0.74552 -7.39524,1.61828c-2.88299,0.98091 -9.06043,3.98074 -9.06043,3.98074l-0.2569,-1.76482c0,0 4.76112,-2.51789 7.371,-3.40593c2.85354,-0.97089 9.08466,-2.19308 9.08466,-2.19308z" fill="#4a494a" stroke-width="0"/><path d="M188.87745,192.3839l-3.90443,0.51064c0,0 0.28952,-0.5859 0.25041,-0.85478c-0.04652,-0.31941 -0.43144,-0.87171 -0.43144,-0.87171l3.545,-0.75337c0,0 0.57006,0.69438 0.66855,1.05314c0.07547,0.27496 -0.12807,0.91602 -0.12807,0.91602z" fill="url(#color-3)" stroke-width="0"/><path d="M172.56633,197.4827l-3.64458,1.6962l0.53075,-2.12201l2.59774,-1.28936c0,0 0.63975,0.38426 0.72818,0.67808c0.08329,0.27684 -0.21212,1.03706 -0.21212,1.03706z" fill="url(#color-4)" stroke-width="0"/></g><path d="M303.73545,214.44657c0,0 2.23465,-3.92312 3.13881,-5.09169c0.61374,-0.79323 3.31132,-1.43024 3.31132,-1.43024l16.27028,4.9987c0,0 -2.98954,5.1291 -3.77028,6.3133c-0.34203,0.51878 -1.56875,0.85208 -1.56875,0.85208z" fill="#665b60" stroke-width="0"/><path d="M263.03684,182.19354c0,0 -3.13435,-2.64823 -7.47406,-5.25292c-2.75873,-1.65584 -6.65068,-3.50164 -8.45482,-3.97025c-5.24524,-1.36242 -9.20515,2.72717 -9.20515,2.72717c0,0 -2.40793,-3.20605 -4.15304,-4.66455c-1.62901,-1.36143 -5.46723,-3.64605 -5.46723,-3.64605c0,0 24.93954,2.66586 28.78354,3.29168c7.36929,1.19973 32.65161,9.73449 32.65161,9.73449l1.55537,15.50481z" fill="#8b7c84" stroke-width="0"/><g stroke-width="0"><path d="M305.40882,213.99402c0,0 1.24315,-2.32755 1.90756,-3.0539c0.68894,-0.75315 3.08993,-1.08707 3.08993,-1.08707l13.83346,4.44489c0,0 0.06708,1.054 -0.38272,1.68443c-0.61158,0.85713 -4.09549,2.62339 -4.09549,2.62339z" fill="#585852"/><path d="M305.63682,213.28437c0,0 1.01513,-1.6179 1.67956,-2.34424c0.68894,-0.75315 3.31794,-1.79671 3.31794,-1.79671l13.83346,4.4449c0,0 -0.1609,1.76367 -0.61073,2.39408c-0.61158,0.85713 -3.86743,1.91374 -3.86743,1.91374z" fill="#797971"/><path d="M322.63658,213.52047c-0.94414,-0.49026 -11.9265,-4.30413 -11.9265,-4.30413l13.81452,4.43884l-0.75313,2.34379c0,0 -0.19076,-1.98825 -1.1349,-2.47855z" fill="#85857b"/></g><path d="M312.3293,197.13473l1.58761,-4.94095l6.79383,2.18295l-0.35238,5.33788z" fill="#7c6e75" stroke-width="0"/><path d="M310.4883,168.78906l-1.48902,-9.01916l1.31318,0.42198l3.19359,10.04122z" fill="#d495b6" stroke-width="0"/><path d="M275.68837,149.59405l13.53048,1.10232l19.96199,9.15818l1.33552,8.92889z" fill="#df9cbe" stroke-width="0"/><path d="M310.94573,201.97085l0.49612,-1.54401l10.34511,3.32405l0.4303,1.84172z" fill="#7c6e75" stroke-width="0"/><path d="M276.03693,177.98791c0,0 -17.63091,-4.40634 -23.14664,-5.65332c-8.35203,-1.88817 -25.31529,-4.89638 -25.31529,-4.89638c0,0 15.66193,0.36818 28.98558,3.05685c14.44622,2.9152 56.82991,15.003 56.82991,15.003l-1.65469,5.14975z" fill="#75686e" stroke-width="0"/><path d="M266.76719,184.22149l-2.91313,-1.5356c0,0 10.03147,0.71883 14.8817,3.07845c4.85024,2.35966 12.11955,10.05782 12.11955,10.05782z" fill="#7c6e76" stroke-width="0"/><path d="M223.7711,166.173c0,0 -26.09602,-24.55682 -25.53146,-29.22819c0.51289,-4.24334 27.6738,11.35828 27.9904,11.34633c5.53979,-0.20921 76.18377,14.91173 76.18377,14.91173l23.25618,14.60384l50.40727,15.59648l2.805,15.16035c0,0 -58.96552,-17.71889 -81.64228,-24.83406c-7.87171,-2.46988 -23.69891,-8.23572 -38.61798,-11.83176c-11.50808,-2.77387 -29.66701,-4.07466 -29.66701,-4.07466z" fill="#ee96c3" stroke-width="0"/><path d="M96.99302,138.61196l9.3328,-18.17006c0,0 2.06126,-6.74703 9.66055,-6.71684c9.43856,0.03753 24.97162,6.90354 26.94299,7.537c1.51282,0.48611 -15.47539,5.9687 -15.47539,5.9687l-6.16537,19.18778z" fill="#c4b4b3" stroke-width="0"/><g stroke-width="0"><path d="M370.25701,207.24366l1.91224,-15.29096l86.24058,34.81569l-2.49688,5.29706l-46.64069,-9.88474z" fill="#ad6d8e"/><path d="M399.72501,201.65408l9.4548,-5.65129l26.14242,6.16378l-7.28068,8.58615z" fill="#8d788b"/><path d="M375.11151,194.99384l4.96659,-15.45696l29.16734,16.49135l-6.46053,5.13902z" fill="#857183"/><path d="M416.51259,204.80861l18.74967,-2.66003l25.35279,12.10891l-2.38132,6.476z" fill="#947e92"/><path d="M371.3285,193.13907l6.66018,-11.26873l2.31472,-2.47436l-4.60822,14.34167z" fill="#756474"/><path d="M372.45832,204.57472l3.0065,-11.71461l41.74174,11.68045l-6.07933,14.91221z" fill="#746373"/><path d="M411.12455,219.43567c0,0 2.29128,-5.88883 3.35058,-8.53585c0.90691,-2.2663 2.61924,-6.38218 2.61924,-6.38218l41.80293,14.38688l-0.66554,8.6091z" fill="#867284"/><path d="M371.38855,193.08441l4.30283,-0.22543l-3.20682,11.73215z" fill="#6f5e6d"/><path d="M453.77854,211.94774l-17.83915,-9.26504l24.33355,11.63824l-1.43079,3.26423c0,0 0.18153,-1.59003 -0.75326,-2.63071c-0.62529,-0.69618 -4.31039,-3.00678 -4.31039,-3.00678z" fill="#978195"/><path d="M415.11754,203.67788c0,0 8.65242,-0.8596 11.71168,-1.29889c2.22854,-0.32 4.95456,-1.09423 4.95456,-1.09423l2.37789,0.88237l-16.52245,2.321z" fill="#9c859a"/><path d="M401.17883,200.04814c0,0 2.09524,-2.21767 3.79387,-3.09009c1.6986,-0.8725 4.14557,-0.94252 4.14557,-0.94252l-5.59589,4.78566z" fill="#806b7d"/><path d="M437.29776,200.96891l3.78497,-4.80587l13.32925,8.20423l3.3737,7.80631z" fill="#55494f"/><path d="M434.02927,202.85982c0,0 1.27225,-0.4212 1.98469,-0.80648c0.5366,-0.29019 1.61519,-1.39796 1.61519,-1.39796l20.02036,10.63429c0,0 0.67425,0.73865 1.13271,1.22802c0.47915,0.51142 1.68284,1.77736 1.68284,1.77736z" fill="#685960"/><path d="M438.10496,200.29115l2.98176,-3.85818l12.45042,7.49489c0,0 -7.15399,-3.90862 -11.49815,-5.03693c-2.51988,-0.65452 -3.93402,1.40022 -3.93402,1.40022z" fill="#41383c"/></g><path d="M110.57009,101.71639l1.59328,-4.95865c0,0 21.66189,5.60005 42.54993,12.37156c12.44737,4.0352 24.87794,9.70747 31.57449,11.49144c15.09928,4.02243 26.44656,2.9291 26.44656,2.9291l-9.29249,8.19321z" fill="#ffa1d1" stroke-width="0"/><path d="M103.84591,114.21624l6.97664,-14.6507c0,0 51.539,18.72466 68.66537,23.76478c10.14497,2.98556 24.62396,3.68942 24.62396,3.68942l-4.47927,13.94039c0,0 -64.26499,-20.64946 -79.75728,-25.6274c-6.36984,-2.04673 -24.25367,24.47893 -24.25367,24.47893z" fill="#ee96c3" stroke-width="0"/><path d="M251.06398,241.86373l12.99429,-10.10522c0,0 14.29408,-12.06282 25.34316,-15.72085c2.80776,-0.92958 8.09549,-0.48731 8.09549,-0.48731c0,0 -8.47879,2.5118 -11.80311,4.37559c-7.85068,4.40155 -34.62979,21.93777 -34.62979,21.93777z" fill="#70646b" stroke-width="0"/><path d="M362.30533,209.50185l-0.49155,-19.06623l1.28539,0.41301c0,0 0.14888,5.77429 0.22751,8.82541c0.01123,0.43472 0.93718,2.01484 0.95107,2.55333c0.02407,0.93343 -0.86194,0.90452 -0.83503,1.94783c0.07491,2.90509 0.148,5.73969 0.148,5.73969z" fill="#795467" stroke-width="0"/><path d="M200.10257,141.56469c0,0 -7.97507,-9.44479 -6.17347,-12.83091c1.0787,-2.02747 19.5465,-4.44599 19.5465,-4.44599l64.70642,22.54755l-2.50536,2.44702l26.62316,14.06717l-76.48376,3.33784c0,0 0.9639,-5.58678 5.26785,-7.20591c4.18296,-1.57364 20.20317,-2.37632 20.20317,-2.37632c0,0 -32.562,-10.51417 -39.47688,-12.8271c-2.30697,-0.77164 -11.70764,-2.71337 -11.70764,-2.71337z" fill="#f399c8" stroke-width="0"/><g><path d="M211.17617,125.57004l0.99064,-3.0831l168.08958,54.01008l-0.99064,3.08309z" fill="#584f54" stroke-width="0"/><path d="M374.66204,174.96014l0.83706,-2.60517l2.90878,0.93463l1.7295,3.4298z" fill="#685d63" stroke-width="0"/><g fill="#685d63" stroke-width="0"><g><g><g><path d="M368.24504,173.15998l0.91069,-2.83426l3.69506,1.18728l-0.91069,2.83426z"/><path d="M362.24944,171.23352l0.91069,-2.83426l3.69506,1.18728l-0.91069,2.83426z"/></g><g><path d="M356.48006,169.37965l0.91069,-2.83427l3.69506,1.18729l-0.91069,2.83426z"/><path d="M350.4844,167.45315l0.91069,-2.83426l3.69505,1.18729l-0.9107,2.83427z"/></g></g><g><g><path d="M344.60186,165.56304l0.9107,-2.83427l3.69505,1.18728l-0.91069,2.83426z"/><path d="M338.60624,163.63654l0.91069,-2.83426l3.69506,1.18728l-0.91069,2.83427z"/></g><g><path d="M332.83686,161.78272l0.91069,-2.83427l3.69505,1.18729l-0.91069,2.83426z"/><path d="M326.84132,159.85621l0.91069,-2.83426l3.69505,1.18728l-0.91069,2.83427z"/></g></g></g><g><g><g><path d="M326.61504,159.78357l0.91069,-2.83426l3.69505,1.18728l-0.91069,2.83426z"/><path d="M320.61945,157.85706l0.91069,-2.83426l3.69506,1.18729l-0.91069,2.83426z"/></g><g><path d="M314.85006,156.00326l0.91069,-2.83427l3.69505,1.18728l-0.91069,2.83426z"/><path d="M308.85442,154.07677l0.91069,-2.83426l3.69506,1.18727l-0.91069,2.83427z"/></g></g><g><g><path d="M302.97194,152.18664l0.91069,-2.83427l3.69506,1.18728l-0.91069,2.83426z"/><path d="M296.97632,150.26011l0.91069,-2.83427l3.69506,1.18729l-0.91069,2.83427z"/></g><g><path d="M291.20697,148.40631l0.91069,-2.83426l3.69506,1.18726l-0.91069,2.83427z"/><path d="M285.21135,146.47981l0.91069,-2.83426l3.69506,1.18728l-0.91069,2.83426z"/></g></g></g></g><g><g fill="#685d63" stroke-width="0"><g><g><path d="M279.29036,144.57732l0.91069,-2.83428l3.69506,1.18729l-0.91069,2.83426z"/><path d="M273.29474,142.65077l0.91069,-2.83426l3.69506,1.18729l-0.91069,2.83427z"/></g><g><path d="M267.52532,140.79703l0.91069,-2.83426l3.69506,1.18729l-0.91069,2.83427z"/><path d="M261.52976,138.87054l0.91069,-2.83426l3.69506,1.18728l-0.91069,2.83427z"/></g></g><g><g><path d="M255.64726,136.98041l0.91069,-2.83427l3.69506,1.18728l-0.91069,2.83426z"/><path d="M249.65162,135.05389l0.91069,-2.83426l3.69506,1.18728l-0.91069,2.83427z"/></g><g><path d="M243.88223,133.20008l0.91069,-2.83426l3.69505,1.18728l-0.91069,2.83427z"/><path d="M237.8866,131.27356l0.91069,-2.83426l3.69506,1.18728l-0.91069,2.83427z"/></g></g></g><g><g fill="#685d63" stroke-width="0"><g><path d="M237.66037,131.20088l0.91069,-2.83427l3.69506,1.18728l-0.91069,2.83426z"/><path d="M231.66475,129.27437l0.91069,-2.83427l3.69506,1.18728l-0.91069,2.83427z"/></g><g><path d="M225.89537,127.42058l0.91069,-2.83426l3.69506,1.18728l-0.91069,2.83427z"/><path d="M219.89977,125.49409l0.91069,-2.83427l3.69506,1.18728l-0.91069,2.83426z"/></g></g><g fill="none" stroke-width="1" font-family="sans-serif" font-weight="normal" font-size="12" text-anchor="start"><g/><g/></g></g></g><path d="M212.15901,122.74511l3.40364,-1.78045l2.90878,0.93464l-0.83707,2.60517z" data-paper-data="{&quot;index&quot;:null}" fill="#685d63" stroke-width="0"/></g><path d="M256.28133,171.46479l-2.51213,-0.52357c0,0 2.38388,-1.93083 11.86399,-0.06919c7.18735,1.41142 27.16603,6.45338 39.11433,9.50929c5.5485,1.41905 62.09539,10.13335 62.09539,10.13335l4.95393,1.57676c0,0 -62.01337,-8.74521 -67.55074,-10.18511c-12.2446,-3.18401 -32.84399,-8.50345 -38.87482,-9.83362c-3.28297,-0.72412 -9.0899,-0.60785 -9.0899,-0.60785z" fill="#70475c" stroke-width="0"/><path d="M346.53319,220.45005l-5.2524,0.25108l5.79203,-18.02361c0,0 7.40312,2.42958 14.64325,4.8057c20.7842,6.82105 120.67457,39.60342 120.67457,39.60342l-2.05795,6.40476z" fill="#5a5959" stroke-width="0"/><path d="M345.16386,221.72049l1.9582,-2.52823l133.25567,34.19861l-14.68891,7.05634z" fill="#4b4a4a" stroke-width="0"/><path d="M462.61841,259.26201c0,0 -4.63662,-4.87694 -7.08684,-7.16424c-1.31316,-1.22581 -6.47174,-5.49276 -6.47174,-5.49276c0,0 6.72956,5.21228 9.62382,7.13795c1.03292,0.68723 1.87544,1.73815 2.95537,2.63987c0.34824,0.29074 2.92831,-1.77833 5.26059,-2.82958c0.69711,-0.31424 1.69022,0.38779 2.29161,0.23357c1.37866,-0.35353 2.05436,-1.28284 2.05436,-1.28284c0,0 0.03692,0.98825 -1.49487,1.7709c-0.41794,0.21356 -2.24221,-0.00256 -2.66229,0.24098c-1.68359,0.97605 -3.12652,2.192 -3.59789,2.66152c-1.31539,1.31023 0.52103,2.53221 0.52103,2.53221z" fill="#414040" stroke-width="0"/><path d="M199.96496,141.83287l7.02759,-9.39959l6.8612,1.54886c0,0 -1.71517,2.23042 -2.72604,3.54498c-0.25459,0.33109 11.57251,2.07668 11.70233,2.82318c0.24096,1.38504 -6.21422,3.26017 -6.84995,4.08688c-0.72679,0.94512 -9.13505,-1.34085 -9.13505,-1.34085z" fill="#303030" stroke-width="0"/><path d="M199.94147,141.43664l6.67262,-8.6365c0,0 2.45723,2.15986 2.15593,3.09759c-0.54826,1.70625 -3.82193,6.73296 -3.82193,6.73296z" fill="#252525" stroke-width="0"/><path d="M340.45115,223.22398l0.90319,-2.81085l6.16215,-1.12105l-2.08194,2.43209c0,0 -1.44659,0.93769 -2.32302,1.20145c-0.7712,0.2321 -2.66037,0.29834 -2.66037,0.29834z" fill="#383838" stroke-width="0"/><g><g fill="#4b4b4b" stroke-width="0"><g data-paper-data="{&quot;origPos&quot;:null}"><g data-paper-data="{&quot;origPos&quot;:null}"><path d="M403.95423,245.06859l0.69526,-2.16378l3.57025,1.14717l-0.69526,2.16378z" data-paper-data="{&quot;origPos&quot;:null}"/><path d="M398.0386,243.04848l0.69526,-2.16378l3.57024,1.14718l-0.69526,2.16377z" data-paper-data="{&quot;origPos&quot;:null}"/></g><g data-paper-data="{&quot;origPos&quot;:null}"><path d="M415.82018,249.0007l0.69526,-2.16378l3.57025,1.14717l-0.69526,2.16377z" data-paper-data="{&quot;origPos&quot;:null}"/><path d="M409.90457,246.98058l0.69526,-2.16377l3.57025,1.14717l-0.69527,2.16378z" data-paper-data="{&quot;origPos&quot;:null}"/></g></g><g data-paper-data="{&quot;origPos&quot;:null,&quot;index&quot;:null}"><g data-paper-data="{&quot;origPos&quot;:null}"><path d="M434.17358,254.65928l0.69527,-2.16379l3.57025,1.14717l-0.69526,2.16377z" data-paper-data="{&quot;origPos&quot;:null}"/><path d="M440.15871,256.463l0.69525,-2.16377l3.57025,1.14717l-0.69526,2.16376z" data-paper-data="{&quot;origPos&quot;:null}"/></g><g data-paper-data="{&quot;origPos&quot;:null}"><path d="M422.23809,250.9435l0.69527,-2.16378l3.57024,1.14718l-0.69525,2.16377z" data-paper-data="{&quot;origPos&quot;:null}"/><path d="M428.2232,252.74733l0.69526,-2.16377l3.57025,1.14716l-0.69526,2.16377z" data-paper-data="{&quot;origPos&quot;:null}"/></g></g></g><path d="M365.80288,224.14964l4.16383,-12.95861l80.42428,25.84169l-4.16383,12.95861z" data-paper-data="{&quot;origPos&quot;:null}" fill="#444444" stroke-width="0"/><path d="M364.45206,228.67561l1.46302,-4.55318l80.1879,25.76573l-1.46303,4.55319z" data-paper-data="{&quot;origPos&quot;:null}" fill="#414141" stroke-width="0"/><path d="M364.0495,230.0422l0.49487,-1.54008l80.17771,25.76249l-0.49486,1.54008z" data-paper-data="{&quot;origPos&quot;:null}" fill="#3f3f3f" stroke-width="0"/><g stroke-width="0"><g data-paper-data="{&quot;origPos&quot;:null}" fill="#5a5a5a"><g data-paper-data="{&quot;origPos&quot;:null}"><path d="M406.97579,237.46256l4.20627,-13.09082l3.40022,1.09255l-4.20628,13.09082z" data-paper-data="{&quot;origPos&quot;:null}"/></g><g data-paper-data="{&quot;origPos&quot;:null}"><path d="M412.75615,239.3199l4.20627,-13.09082l3.40022,1.09256l-4.20628,13.09081z" data-paper-data="{&quot;origPos&quot;:null}"/><path d="M418.70652,241.23186l4.20629,-13.09081l3.40022,1.09255l-4.20628,13.09081z" data-paper-data="{&quot;origPos&quot;:null}"/></g></g><g data-paper-data="{&quot;origPos&quot;:null}" fill="#5a5a5a"><g data-paper-data="{&quot;origPos&quot;:null}"><path d="M424.99689,243.25306l4.20627,-13.09082l3.40022,1.09255l-4.20629,13.09083z" data-paper-data="{&quot;origPos&quot;:null}"/><path d="M430.94726,245.16502l4.20628,-13.09081l3.40022,1.09255l-4.20628,13.09081z" data-paper-data="{&quot;origPos&quot;:null}"/></g><g data-paper-data="{&quot;origPos&quot;:null}"><path d="M436.72762,247.02238l4.20629,-13.09081l3.4002,1.09254l-4.20629,13.09082z" data-paper-data="{&quot;origPos&quot;:null}"/><path d="M442.67804,248.93429l4.20629,-13.09082l3.40021,1.09255l-4.20627,13.09082z" data-paper-data="{&quot;origPos&quot;:null}"/></g></g><path d="M410.43439,238.57388l-1.4274,1.56961l-5.00328,-1.5624l2.86419,-9.36943l4.25813,-4.85797l-4.14063,13.11192z" fill="#3a3a3a"/><path d="M416.21242,240.43046l-1.42741,1.56962l-5.00328,-1.56241l2.8642,-9.36943l4.25812,-4.85797l-4.14063,13.11191z" fill="#3a3a3a"/><path d="M422.12171,242.32922l-1.42741,1.56961l-5.00328,-1.56241l2.86419,-9.36942l4.25812,-4.85797l-4.14063,13.11192z" fill="#3a3a3a"/><path d="M428.49066,244.37569l-1.4274,1.56961l-5.00328,-1.56241l2.86419,-9.36943l4.25812,-4.85797l-4.14062,13.11192z" fill="#3a3a3a"/><path d="M434.4657,246.29556l-1.4274,1.56961l-5.00328,-1.56241l2.86419,-9.36943l4.25812,-4.85797l-4.14062,13.11192z" fill="#3a3a3a"/><path d="M440.17805,248.131l-1.42741,1.56961l-5.00327,-1.56241l2.86419,-9.36943l4.25812,-4.85797l-4.14063,13.11194z" fill="#3a3a3a"/><path d="M446.16059,250.05334l-1.4274,1.56961l-5.00328,-1.56241l2.8642,-9.36942l4.25812,-4.85798l-4.14063,13.11192z" fill="#3a3a3a"/></g><g stroke-width="0"><g data-paper-data="{&quot;origPos&quot;:null}" fill="#5a5a5a"><g data-paper-data="{&quot;origPos&quot;:null}"><path d="M365.81915,224.23825l4.20629,-13.09081l3.40023,1.09255l-4.20627,13.09082z" data-paper-data="{&quot;origPos&quot;:null}"/></g><g data-paper-data="{&quot;origPos&quot;:null}"><path d="M371.59949,226.09558l4.20627,-13.09081l3.40022,1.09255l-4.20628,13.09082z" data-paper-data="{&quot;origPos&quot;:null}"/><path d="M377.54985,228.00753l4.20628,-13.09082l3.40023,1.09255l-4.20629,13.09082z" data-paper-data="{&quot;origPos&quot;:null}"/></g></g><g data-paper-data="{&quot;origPos&quot;:null}" fill="#5a5a5a"><g data-paper-data="{&quot;origPos&quot;:null}"><path d="M383.84026,230.02873l4.20629,-13.09082l3.40022,1.09256l-4.20628,13.09081z" data-paper-data="{&quot;origPos&quot;:null}"/><path d="M389.79069,231.9407l4.20628,-13.09082l3.40022,1.09256l-4.20629,13.09081z" data-paper-data="{&quot;origPos&quot;:null}"/></g><g data-paper-data="{&quot;origPos&quot;:null}"><path d="M395.57105,233.79803l4.20628,-13.09081l3.40023,1.09255l-4.20629,13.09081z" data-paper-data="{&quot;origPos&quot;:null}"/><path d="M401.52142,235.70999l4.20629,-13.09082l3.40022,1.09256l-4.2063,13.09084z" data-paper-data="{&quot;origPos&quot;:null}"/></g></g><path d="M369.2777,225.34952l-1.42741,1.56961l-2.61212,-0.79402l0.59049,-1.88381z" fill="#3a3a3a"/><path d="M375.0558,227.20615l-1.4274,1.56962l-5.00328,-1.56241l2.8642,-9.36942l4.25813,-4.85796l-4.14063,13.11192z" fill="#3a3a3a"/><path d="M380.96507,229.10488l-1.4274,1.56961l-5.00328,-1.56241l2.86419,-9.36942l4.25813,-4.85797l-4.14064,13.11194z" fill="#3a3a3a"/><path d="M387.33402,231.15131l-1.4274,1.5696l-5.00328,-1.56239l2.8642,-9.36943l4.25813,-4.85796l-4.14063,13.11192z" fill="#3a3a3a"/><path d="M393.30906,233.07124l-1.42741,1.56961l-5.00328,-1.56241l2.86419,-9.36943l4.25813,-4.85796l-4.14064,13.11194z" fill="#3a3a3a"/><path d="M399.02141,234.90668l-1.4274,1.56961l-5.00328,-1.56241l2.86419,-9.36942l4.25813,-4.85797l-4.14063,13.11192z" fill="#3a3a3a"/><path d="M405.004,236.82903l-1.4274,1.56962l-5.00328,-1.56241l2.86419,-9.36943l4.25813,-4.85796l-4.14063,13.11192z" fill="#3a3a3a"/></g><g><g data-paper-data="{&quot;origPos&quot;:null}"><g data-paper-data="{&quot;origPos&quot;:null}" fill="none" stroke-width="1" font-family="sans-serif" font-weight="normal" font-size="12" text-anchor="start"/><g data-paper-data="{&quot;origPos&quot;:null}" fill="#4b4b4b" stroke-width="0"><path d="M369.39729,234.16503l0.69527,-2.16378l3.57024,1.14718l-0.69525,2.16377z" data-paper-data="{&quot;origPos&quot;:null}"/><path d="M363.4817,232.14491l0.69526,-2.16378l3.57025,1.14717l-0.69526,2.16378z" data-paper-data="{&quot;origPos&quot;:null}"/></g></g><g data-paper-data="{&quot;origPos&quot;:null,&quot;index&quot;:null}" fill="#4b4b4b" stroke-width="0"><g data-paper-data="{&quot;origPos&quot;:null}"><path d="M387.75076,239.82359l0.69526,-2.16377l3.57025,1.14717l-0.69526,2.16377z" data-paper-data="{&quot;origPos&quot;:null}"/><path d="M393.73588,241.62733l0.69525,-2.16375l3.57025,1.14717l-0.69526,2.16377z" data-paper-data="{&quot;origPos&quot;:null}"/></g><g data-paper-data="{&quot;origPos&quot;:null}"><path d="M375.81513,236.10785l0.69526,-2.16378l3.57025,1.14717l-0.69526,2.16377z" data-paper-data="{&quot;origPos&quot;:null}"/><path d="M381.80029,237.91155l0.69527,-2.16378l3.57025,1.14717l-0.69526,2.16378z" data-paper-data="{&quot;origPos&quot;:null}"/></g></g></g></g><path d="M212.52473,144.19429l2.27925,-3.69501c0,0 5.35286,-1.58599 8.76059,-0.64855c3.89573,1.07162 32.42028,10.26327 32.42028,10.26327c0,0 0.05647,1.98831 -0.36627,3.13099c-0.54466,1.47216 -3.49676,3.74254 -3.49676,3.74254z" fill="#242424" stroke-width="0"/><path d="M237.38304,148.17983l0.96374,-2.99929l17.13878,5.50698l-0.96375,2.99929z" fill="#313131" stroke-width="0"/><path d="M233.65657,149.01026l0.19952,-0.62098c0,0 1.33823,-0.67412 2.31227,-0.36111c0.92492,0.29719 2.86274,1.41869 5.1471,2.3243c4.35172,1.72518 9.6792,3.54374 9.6792,3.54374l-0.19954,0.62097c0,0 -5.16738,-1.66256 -9.45729,-3.36724c-2.34077,-0.93015 -4.32614,-2.16573 -5.28562,-2.47405c-1.00852,-0.32408 -2.39564,0.33434 -2.39564,0.33434z" fill="#616161" stroke-width="0"/><path d="M264.29511,142.3529l11.1589,6.76456l27.74766,14.49118c0,0 0.62942,0.4377 -6.85814,-2.73309c-2.54715,-1.07866 -12.18326,-5.86495 -20.3818,-10.49793c-2.21842,-1.25363 -13.86068,-8.60855 -13.86068,-8.60855z" fill="#df8cb7" stroke-width="0"/><path d="M89.95082,92.98846l1.81501,-5.64867c0,0 6.02971,0.09624 9.65117,1.25988c2.96476,0.95263 9.9681,6.88536 9.9681,6.88536l-3.88216,11.64124z" fill="#626061" stroke-width="0"/><path d="M197.39169,137.99961l2.84768,3.54722l12.06479,2.48683l48.31224,15.52358l-0.33373,1.03873c0,0 -36.19688,-11.78322 -47.60988,-15.175c-3.13342,-0.9312 -12.58834,-3.21208 -12.58834,-3.21208z" fill="#ffa6d4" stroke-width="0"/><path d="M67.64949,152.97222l2.19326,-6.82589l27.39197,-8.66611l-5.71171,12.52191l-16.30573,5.40176z" fill="#3f3d3e" stroke-width="0"/><path d="M67.64551,147.65594c0,0 6.19034,-18.65235 9.88909,-27.52977c4.17461,-10.01954 13.90401,-29.57694 13.90401,-29.57694c0,0 8.25951,2.45503 11.16638,5.11778c2.48787,2.27891 5.21429,9.88707 5.21429,9.88707l-10.26387,31.94309c0,0 -15.47882,9.41428 -19.06882,10.63366c-5.52207,1.87556 -10.84103,-0.47487 -10.84103,-0.47487z" fill="#555354" stroke-width="0"/><path d="M88.05281,100.5935c0,0 0.36698,-6.17675 3.15918,-8.11262c2.7922,-1.93587 7.24436,-1.57345 9.68188,-0.79022c1.9445,0.62481 5.94444,1.99275 7.31618,7.11651c1.37178,5.12373 -2.49632,10.88682 -2.49632,10.88682c0,0 -2.81517,-11.83215 -5.11885,-13.01916c-3.25069,-1.67507 -12.54211,3.91866 -12.54211,3.91866z" fill="#6f6b6c" stroke-width="0"/><path d="M64.77177,151.8497c0,0 9.60522,-24.28857 13.10601,-35.18377c3.64582,-11.34646 9.77982,-31.1372 9.77982,-31.1372c0,0 1.29744,-0.25844 2.2884,0.05996c0.90612,0.29114 2.20116,1.38264 2.20116,1.38264c0,0 -6.06389,18.1714 -9.33558,28.3535c-3.80112,11.8298 -14.77448,37.57406 -14.77448,37.57406z" fill="#333232" stroke-width="0"/><path d="M64.22593,152.14031l5.54114,-13.66841c0,0 0.7327,1.16909 1.31521,1.31562c0.73551,0.18504 2.77187,-0.67052 2.77187,-0.67052l-5.84946,14.23748z" fill="#2e2d2d" stroke-width="0"/><path d="M99.84538,125.4998c-2.49769,7.77321 -9.0758,14.76396 -14.1273,16.21563c-4.19542,1.20569 -13.40191,5.34568 -10.90428,-2.42754c0.52986,-1.64906 6.10999,-12.33359 8.38279,-18.98711c3.00576,-8.79916 2.96262,-14.04475 4.74073,-16.44761c3.21519,-4.34472 8.92626,-4.06367 11.03459,-3.38623c4.15597,1.33539 3.37112,17.25964 0.87343,25.03286z" fill="#585758" stroke-width="0"/><path d="M128.34687,149.44994l-0.03166,-1.83856c0,0 7.97223,1.14307 13.8498,2.5231c8.27431,1.94277 31.11317,8.03411 31.11317,8.03411l1.31791,1.76917c0,0 -24.40252,-6.13896 -32.93342,-8.07348c-2.50542,-0.56813 -13.31581,-2.41429 -13.31581,-2.41429z" fill="#585657" stroke-width="0"/><path d="M118.70068,160.21566l9.12934,-11.4474l7.18589,1.31041c0,0 -2.97432,3.57497 -3.12316,4.32032c-0.71127,3.56146 -5.18985,27.29634 -5.18985,27.29634c0,0 -1.54136,-0.03266 -2.09997,-2.18213c-1.00231,-3.85682 -0.65064,-10.95136 -1.67549,-13.48923c-0.88546,-2.19267 -4.22674,-5.80829 -4.22674,-5.80829z" fill="#5a5759" stroke-width="0"/><path d="M140.05279,134.72132l6.21741,-9.90624l2.25547,0.60801l-7.34325,9.77789z" fill="#a5a0a2" stroke-width="0"/><path d="M146.84843,135.76678l0.4291,-1.33551l25.226,8.10556l-0.42909,1.33551z" fill="#494748" stroke-width="0"/><path d="M147.68067,132.91329l0.4291,-1.33551l25.226,8.10556l-0.4291,1.33551z" fill="#494748" stroke-width="0"/><path d="M122.32407,148.30185l6.16057,-19.17288l14.60196,-5.40861l4.70769,1.18523l-28.5927,35.78208l-4.72934,-3.62388z" fill="#dbd5d8" stroke-width="0"/><path d="M93.4511,151.53881l3.45664,-11.27387l25.61817,7.40231c0,0 -0.46189,2.5171 -0.83013,3.23748c-0.91786,1.7958 -4.95129,7.78693 -4.95129,7.78693z" fill="#ccc6c9" stroke-width="0"/><path d="M100.54374,141.85386l0.09662,-0.30067l21.9888,6.1532l-2.84279,0.33047c0,0 -4.17141,-1.14475 -6.74058,-2.00364c-3.51785,-1.17598 -12.50206,-4.17936 -12.50206,-4.17936z" fill="#d8d1d5" stroke-width="0"/><path d="M105.03379,139.37163l5.20054,-16.185l15.35195,4.93288l-5.20055,16.185z" fill="#a39999" stroke-width="0"/><path d="M93.13589,151.61586l3.47495,-10.81471c0,0 6.45942,8.7838 9.82462,12.32355c3.36516,3.53974 9.64033,5.26196 9.64033,5.26196z" fill="#b4afb1" stroke-width="0"/><path d="M123.31769,167.66069c0,0 2.56593,1.91737 3.65345,2.11588c0.66811,0.12189 2.25118,-1.03835 2.25118,-1.03835l-1.1966,9.14558l-1.28336,3.99401c0,0 -1.94516,-0.29791 -2.37286,-3.14795c-0.35289,-2.35152 -1.05191,-11.06907 -1.05191,-11.06907z" fill="#504e4f" stroke-width="0"/><path d="M118.82036,160.83846l26.53815,-35.31838l1.59728,0.72872l-26.56602,35.74037z" fill="#858183" stroke-width="0"/><path d="M115.25911,116.88591l1.94705,-1.10795c0,0 26.29827,7.77375 38.1136,11.57024c10.25492,3.29504 30.3055,10.10847 30.3055,10.10847l-0.08979,2.01029c0,0 -20.0603,-7.18725 -30.86963,-10.66045c-12.34286,-3.96596 -39.40669,-11.92051 -39.40669,-11.92051z" fill="#918b8e" stroke-width="0"/><path d="M116.605,116.02566l2.52074,-1.2292c0,0 24.7552,7.58352 36.57054,11.37998c10.25491,3.29504 30.3055,10.10848 30.3055,10.10848l-0.08979,2.01027c0,0 -20.0603,-7.18725 -30.86963,-10.66046c-12.34286,-3.96597 -38.43732,-11.60907 -38.43732,-11.60907z" fill="#a59fa2" stroke-width="0"/><path d="M171.75759,155.57984l-0.09481,-5.99925c0,0 0.57009,-1.08253 0.92164,-1.08806c0.30972,-0.00488 1.07809,1.05645 1.07809,1.05645l0.09481,5.99924c0,0 -0.53139,0.75109 -0.84182,0.756c-0.35115,0.00554 -1.15794,-0.72437 -1.15794,-0.72437z" fill="#494242" stroke-width="0"/><path d="M132.60351,145.78101l6.2748,-7.94718l3.69943,1.1887l-6.27481,7.94716z" fill="#9c989a" stroke-width="0"/><path d="M147.15008,131.78378l2.05809,-0.35538l23.2617,7.49337l1.63073,1.52172z" fill="#757274" stroke-width="0"/><path d="M146.37987,134.48916l2.05809,-0.35539l23.26169,7.49336l1.63075,1.52172z" fill="#757274" stroke-width="0"/><path d="M91.13198,149.93948l19.41632,-54.8474l1.65058,1.14033l-19.01968,55.39621z" fill="#686666" stroke-width="0"/><path d="M90.89373,150.14688l5.59607,-15.27618l1.01312,4.33629l-4.48716,12.53847z" fill="#535252" stroke-width="0"/><path d="M127.1633,137.77434c0,0 2.73971,-1.58327 3.02935,-2.48465c0.28424,-0.88454 -1.30745,-2.87419 -1.30745,-2.87419c0,0 2.65327,1.55597 2.03755,3.13149c-0.46895,1.20002 -2.13884,2.96272 -2.55925,3.98552c-1.1954,2.9082 -4.09868,9.69264 -4.09868,9.69264z" fill="#c4bec1" stroke-width="0"/><path d="M135.05611,138.30251l4.93889,-9.12186l3.75871,-3.36582l-5.45175,8.28777z" fill="#aca7a9" stroke-width="0"/></g></g><g stroke-width="0"><path d="M255.9688,147.92195l3.4509,-2.38802c0,0 2.1602,-0.81455 2.8615,-0.30039c0.79956,0.58624 1.67989,3.62999 1.67989,3.62999l-1.76468,3.72046c0,0 -4.07369,-1.31686 -5.23849,-1.83115c-0.52509,-0.23184 -0.98911,-2.83093 -0.98911,-2.83093z" fill="#c0c0c0"/><path d="M212.15507,143.98096c0,0 0.71304,-2.79591 2.06974,-3.5562c1.70029,-0.95278 8.16551,-1.19897 8.16551,-1.19897l-2.12565,4.29263l-0.8936,2.78116z" fill="#838383"/><path d="M212.01388,143.85751l10.00481,-4.64328l35.76155,11.49081l-2.28862,7.12265z" fill="#999999"/><path d="M213.16582,143.53815l7.65129,-3.67674l32.15322,10.33137l-1.78686,5.56109c0,0 -3.89163,-1.25044 -8.89774,-2.85898c-3.25479,-1.04583 -6.65576,-3.25413 -10.0895,-4.35743c-3.68357,-1.1836 -7.35589,-1.2481 -9.42486,-1.91288c-4.04928,-1.30112 -9.60553,-3.08643 -9.60553,-3.08643z" fill="#d952b3"/><path d="M216.49129,144.60437l9.77357,-3.06015l11.86654,3.81292c0,0 -7.60594,-0.44055 -10.1422,-0.29487c-2.69254,0.15462 -6.39634,1.1813 -6.39634,1.1813z" fill="#a5899d"/><path d="M224.13196,146.94101c0,0 5.13875,0.63009 7.47806,1.38177c2.98907,0.96044 8.98958,3.90959 8.98958,3.90959l-9.08868,-3.27244z" fill="#adadad"/><path d="M212.119,143.8722l9.03416,-4.18876l33.29035,10.69679l-0.21063,0.65558c0,0 -28.82531,-9.26204 -32.58272,-10.46942c-0.78591,-0.25251 -9.53117,3.30587 -9.53117,3.30587z" fill="#8a8a8a"/><path d="M255.11748,164.23815l2.98428,-9.28766l2.8227,-6.65757c0,0 0.98651,0.81054 1.3415,1.51648c0.35499,0.70595 0.37505,1.89698 0.37505,1.89698l-5.607,13.14759z" fill="#9e9e9e"/><path d="M251.22147,158.54249c0,0 -0.21799,-2.30197 0.13796,-3.85671c0.47938,-2.09368 2.98198,-7.08562 2.98198,-7.08562l1.9479,0.28414c0,0 0.48028,0.98597 0.98086,0.99015c0.69018,0.00579 2.77727,-0.95869 2.77727,-0.95869l-4.39953,12.04906z" fill="#9c9c9c"/><path d="M251.20785,160.46098c-0.40701,-1.29084 0.24193,-2.52457 0.24193,-2.52457l6.84654,-5.36305c0,0 0.13872,4.12392 -0.14165,4.99644c-0.79708,2.48063 -1.29181,7.3105 -1.29181,7.3105c0,0 -2.86286,-0.83192 -3.71772,-1.56734c-1.02532,-0.88199 -1.53024,-1.56119 -1.93727,-2.85205z" fill="#888888"/><path d="M253.14008,160.26861c-0.32915,-2.2062 0.07408,-6.7644 3.07372,-10.07219c2.99961,-3.30773 4.64625,-0.54014 4.64625,-0.54014c0,0 -0.3948,4.51884 -1.10235,6.72084c-0.64451,2.00583 -2.97146,5.9576 -2.97146,5.9576c0,0 -3.31707,0.14011 -3.64617,-2.06613z" fill="#b4b4b4"/><path d="M259.45645,154.21536c-0.43166,1.34343 -5.32031,-0.1461 -4.88866,-1.4895c0.43166,-1.34343 4.99636,-5.5509 5.76985,-5.3024c0.29957,0.09624 0.88139,0.39018 0.74398,1.46015c-0.2174,1.69269 -1.36066,4.50858 -1.62515,5.33176z" fill="#bbbbbb"/></g><g stroke-width="0"><path d="M197.30456,137.95575c0,0 -4.07152,-6.47322 -3.49842,-8.25678c0.46792,-1.45632 6.25245,0.27303 6.25245,0.27303l7.16158,2.37658l-7.12863,9.03117z" fill="#f399c8"/><path d="M167.73971,130.18035c0,0 -0.28181,-2.29402 0.29125,-3.23663c0.63244,-1.0402 3.69675,-3.84203 3.69675,-3.84203l21.9905,6.87091l6.05071,11.00157z" fill="#ee96c3"/></g></g><g stroke-width="0"><g><path d="M264.68451,140.61187l1.8911,-5.88547l45.52574,14.62821l-1.89109,5.88547z" fill="#61585b"/><path d="M265.52129,137.47387l1.01271,-3.15164l45.69884,14.68381l-1.01271,3.15164c0,0 -8.22663,-2.64337 -16.67746,-5.35877c-2.64223,-0.84899 -6.821,-0.59807 -9.26248,-1.38256c-2.90318,-0.93284 -5.55267,-3.37783 -7.41499,-3.97619c-5.58413,-1.79429 -12.34395,-3.96631 -12.34395,-3.96631z" fill="#494344"/><path d="M326.40526,150.09911l-3.09405,-20.88046l19.91634,6.3995l9.55745,20.68992c0,0 -5.85287,-0.45069 -9.00895,-1.19352c-4.87012,-1.14627 -17.37078,-5.01538 -17.37078,-5.01538z" fill="#5e555b"/><path d="M325.3564,153.37014l1.69429,-5.27296c0,0 12.15343,2.37881 17.04953,3.13313c3.8857,0.59865 6.7349,0.9028 6.7349,0.9028l3.53199,8.42307c0,0 -5.56504,-0.11166 -9.64987,-0.95786c-5.53477,-1.14662 -19.36081,-6.22808 -19.36081,-6.22808z" fill="url(#color-5)"/><path d="M321.64901,128.85132l1.22251,-3.80458l18.23337,5.85867l2.23953,4.91701z" fill="url(#color-6)"/><path d="M324.793,153.21534l0.38524,-1.19887c0,0 14.88475,4.70246 20.06427,6.19077c3.87302,1.11289 8.56392,0.96391 8.56392,0.96391l0.49607,1.36178l-8.45837,-0.55352z" fill="#312c30"/><g><path d="M231.85916,112.21966l2.4943,-8.50295l89.42253,28.73297l3.82297,13.07831z" fill="#8a6672"/><path d="M245.07085,125.16769c0,0 -2.24776,-4.5096 -4.47088,-6.75907c-2.22309,-2.24953 -9.01846,-4.18357 -9.01846,-4.18357l0.7453,-1.9527c0,0 11.64794,4.033 18.31115,6.27404c15.9175,5.35344 76.781,25.70784 76.781,25.70784l1.44056,7.36059z" fill="#755761"/><path d="M247.02076,128.41059l-2.0875,-3.39307l83.53714,26.32792l0.20511,3.30216z" fill="#694e57"/><path d="M234.07539,104.04348l1.38549,-4.31185l86.66071,27.132l1.93322,6.56749c0,0 1.60192,4.02083 -3.42316,2.37962c-1.58192,-0.51664 -9.23507,-6.51384 -10.82095,-7.03181c-15.27297,-4.98821 -75.73529,-24.73542 -75.73529,-24.73542z" fill="#916b77"/><path d="M235.69119,99.8057l0.65913,-2.43984l85.64097,27.3722l0.26326,2.59731z" fill="#9e7582"/><path d="M306.05415,123.13284c-7.48284,-3.08492 -68.73082,-23.84926 -68.73082,-23.84926l83.64228,26.87571l2.29428,8.55304c0,0 -9.72288,-8.49457 -17.20574,-11.5795z" fill="#b38f9a"/></g><path d="M276.41346,137.852l2.80639,-8.73399l19.24323,6.18317l-2.80639,8.73399z" fill="#3a3336"/><path d="M279.13496,129.09507l1.14787,-1.23034l17.64968,5.67112l0.47218,1.75086z" fill="#4b4246"/><path d="M276.69967,137.41945l2.50162,-7.78555c0,0 -0.60255,5.33738 1.58957,7.20375c2.19212,1.86637 14.6143,6.59218 14.6143,6.59218z" fill="#332c30"/><path d="M322.16427,131.35268l-1.8966,-6.91154c0,0 1.17785,-0.3218 1.74969,-0.13804c0.6393,0.20542 1.90621,1.31271 1.90621,1.31271l1.8966,6.91154z" fill="#757575"/><path d="M323.59148,136.7843l-2.72959,-9.92299l3.65589,1.17473l2.72959,9.92297z" fill="#5a5a5a"/><path d="M325.66005,144.22267l-2.72959,-9.92297l3.65588,1.17472l2.72959,9.92299z" fill="#505050"/><path d="M327.79527,151.92481c-0.46618,-1.69481 -2.28525,-8.30772 -2.28525,-8.30772l3.65587,1.17474l3.13777,11.85474c0,0 -2.12107,-0.11907 -3.02052,-0.42365c-0.70158,-0.23757 -1.28232,-3.55076 -1.48791,-4.29807z" fill="#3b3b3b"/><path d="M229.59619,114.22154l5.71284,-17.77947l3.02847,0.97308l-5.71285,17.77947z" fill="#443e42"/><path d="M211.13581,109.96934l1.16061,-5.8536l19.25879,6.18819l-1.81345,5.6438z" fill="url(#color-7)"/><path d="M212.10352,104.71617l3.31824,-10.32698l19.25879,6.18819l-3.31826,10.32699z" fill="#5e555b"/><path d="M215.38312,94.50943l2.03491,-3.71791l18.49714,5.94345l-1.27328,3.96269z" fill="url(#color-8)"/><path d="M283.5264,112.24038l1.87628,-5.83927l13.97577,5.611l2.95946,5.89926z" fill="#5e555b"/><path d="M302.22911,118.24989l-2.87784,-6.15315c0,0 2.66033,1.58021 4.47636,3.21225c1.81603,1.63204 4.57931,4.9259 4.57931,4.9259z" fill="#776b73"/><path d="M280.29557,112.41602l3.42729,-0.20587l24.45432,7.5775l3.00744,2.55354z" fill="#6d6269"/></g><g><path d="M279.00517,134.51472c0.38201,-1.18897 1.22175,-2.1341 1.90668,-2.99544c0.95443,-1.20023 1.89139,-2.14678 3.382,-2.55662c0.91051,-0.25033 2.11236,-0.27316 3.12742,-0.19947c0.67138,0.04879 1.745,-0.02651 2.41435,0.18856c1.51729,0.48752 1.81822,0.67006 2.76107,1.49403c0.56799,0.49636 1.99145,1.42544 2.29516,2.229c0.25708,0.68012 0.4199,1.72874 0.53729,2.48033c0.20062,1.2844 0.39425,3.30501 -0.03054,4.6271c-0.17954,0.55869 -1.05732,1.68248 -1.26231,2.15805c-0.65073,1.50976 -0.80733,1.99468 -2.30022,2.6741c-0.90736,0.41292 -2.50994,0.4734 -3.57196,0.56277c-1.0999,0.09257 -2.57949,0.5268 -3.69597,0.16806c-0.75357,-0.24214 -1.94953,-1.18835 -2.63788,-1.55259c-1.49342,-0.79021 -2.28938,-1.2292 -2.92075,-2.62964c-0.54142,-1.20095 -0.30061,-2.80236 -0.23208,-4.20631c0.03602,-0.73754 -0.00894,-1.70539 0.2277,-2.4419z" fill="#3a3a3a"/><path d="M279.73747,134.62543c0.3496,-1.088 1.11804,-1.9529 1.7448,-2.74111c0.8734,-1.09836 1.73078,-1.96451 3.09486,-2.33958c0.83319,-0.22909 1.93303,-0.24997 2.86188,-0.18255c0.61439,0.0446 1.59688,-0.02423 2.20926,0.17259c1.38847,0.44615 1.66383,0.61315 2.52667,1.36716c0.51974,0.45422 1.82235,1.30441 2.10031,2.03976c0.23526,0.62241 0.38422,1.58196 0.49167,2.26973c0.18359,1.17535 0.36078,3.02441 -0.02793,4.23417c-0.1643,0.51125 -0.96756,1.53964 -1.15515,1.97483c-0.59545,1.38158 -0.73878,1.82534 -2.10491,2.44704c-0.83036,0.37783 -2.29683,0.43318 -3.2687,0.51497c-1.00652,0.0847 -2.36047,0.4821 -3.38217,0.15381c-0.6896,-0.22158 -1.784,-1.08745 -2.41391,-1.42075c-1.36665,-0.72312 -2.09504,-1.12483 -2.67276,-2.40639c-0.49545,-1.09899 -0.27507,-2.56442 -0.21234,-3.84915c0.03297,-0.67492 -0.00819,-1.56059 0.20836,-2.23456z" fill="#5a5a5a"/><path d="M292.73053,134.04288c-1.21703,-2.89697 -6.005,-4.64612 -6.005,-4.64612c0,0 2.01435,0.08007 3.907,0.69547c1.53308,0.49851 2.91858,1.32648 3.62453,2.91984c0.70652,1.59465 0.62735,3.12867 0.47351,4.54501c-0.3016,2.77685 -1.45046,4.92101 -1.45046,4.92101c0,0 0.66748,-5.53816 -0.54959,-8.43515z" fill="#6d6d6d"/><path d="M286.12363,137.19156c0.1761,-0.54814 0.76321,-0.84968 1.31134,-0.67358c0.54814,0.17609 0.84968,0.7632 0.67357,1.31135c-0.1761,0.54814 -0.7632,0.84968 -1.31134,0.67357c-0.54814,-0.17609 -0.84968,-0.76321 -0.67357,-1.31134z" fill="#272727"/><path d="M286.00655,137.29765c0.16154,-0.50271 0.69999,-0.77931 1.20274,-0.61777c0.50272,0.16154 0.77931,0.69999 0.61777,1.20274c-0.16154,0.50271 -0.69999,0.77932 -1.20273,0.61779c-0.50272,-0.16154 -0.77932,-0.69999 -0.61779,-1.20273z" fill="#131313"/></g></g></g></g></g><path d="M167.78324,214.73185c0.48477,-1.5087 9.47027,-43.39392 10.45432,-44.83722c1.32867,-1.94877 8.99005,1.93163 12.27333,1.40288c10.05565,-1.61934 20.80144,-2.98463 20.80144,-2.98463c0,0 13.21632,4.85635 17.24972,6.15236c3.01624,0.96918 63.99267,11.64413 61.54104,21.6977c-3.32533,13.63642 -41.18154,-10.83592 -44.89249,0.71319c-0.93944,2.92369 1.29494,3.84701 -0.20643,6.67027c-0.36035,0.67758 -4.18361,4.88879 -4.90992,6.41586c-1.15297,2.42406 0.75981,7.24272 -3.33979,9.18077c-3.26794,1.54491 -2.96333,6.91224 -3.94334,7.87419c-6.75341,6.62876 -13.5192,0.45883 -22.09997,-2.29831c-10.17373,-3.26899 -26.11737,-4.48114 -34.67257,-8.52972c-3.69293,-1.74764 -9.66654,2.93428 -8.25542,-1.45731z" fill="#86c8f5" stroke-width="0"/><g stroke-width="0"><g><path d="M158.51894,230.09363l1.70758,-5.31433c0,0 2.07944,0.85518 3.18784,0.19912c1.56596,-0.92684 5.49341,-5.06354 5.49341,-5.06354l-1.87265,7.8996c0,0 -3.91097,2.10288 -5.65015,2.48668c-1.2557,0.27706 -2.86597,-0.20755 -2.86597,-0.20755z" fill="#4d484c"/><g><g><path d="M123.20815,206.82615l5.60337,-4.04168c0,0 17.87763,-3.65499 25.36149,-5.33781c5.7568,-1.29448 14.99892,-3.52485 14.99892,-3.52485l-5.55142,25.8895z" fill="#eb59c1"/><path d="M128.00471,196.68307l8.3979,-28.04968c0,0 15.5309,14.19258 21.17763,19.11263c4.09762,3.57023 7.97941,14.54707 7.97941,14.54707l-7.45473,4.06175z" fill="#dd54b6"/><path d="M131.80523,180.07038l9.59219,-28.89586c0,0 7.75751,16.93058 11.93199,19.07616c6.18572,3.17933 19.24463,4.47061 19.24463,4.47061l-7.97022,24.80483z" fill="#ff77d8"/><path d="M137.97523,168.52372l4.29855,-13.3779l32.66803,7.42199l-2.96442,16.88138z" fill="#ee51c1"/></g><g><g><path d="M123.91102,196.01724l7.68414,-40.39228l7.99858,2.57008l-7.68414,40.39228z" fill="#a59da1"/><path d="M131.50326,155.79557c0,0 0.63635,-4.51392 2.74008,-5.18425c2.10381,-0.67038 7.0198,0.64324 7.0198,0.64324l-1.74825,7.1153z" fill="#b9b0b5"/><path d="M122.34928,206.6965l1.62608,-10.68777l7.96038,2.55781l-1.62608,10.68776z" fill="#8b8488"/></g><g><path d="M163.21499,205.0785l7.68413,-40.39228l4.3216,1.3886l-7.68412,40.3923z" fill="#a59da1"/><path d="M170.74584,165.6845l1.19476,-6.38163c0,0 3.00218,0.24998 3.65538,1.66746c0.65323,1.41748 -0.45414,5.27931 -0.45414,5.27931z" fill="#b9b0b5"/><path d="M161.64131,215.75401l1.62608,-10.68777l4.29527,1.38014l-1.62607,10.68778z" fill="#8b8488"/></g><path d="M120.63903,215.15481c0,0 -2.27433,-3.61167 -2.19879,-5.14676c0.08409,-1.7088 2.68056,-4.64096 2.68056,-4.64096l46.72657,10.39793c0,0 1.20362,2.83812 1.15021,4.38218c-0.07486,2.16419 -5.58608,5.55539 -5.58608,5.55539z" fill="#494547"/><path d="M140.37015,155.09674c0,0 -2.03181,-1.24873 -2.26616,-1.92725c-0.25737,-0.74508 1.60052,-2.33558 1.60052,-2.33558c0,0 11.77618,2.72098 16.89893,4.02864c5.97191,1.52442 15.96112,4.54102 15.96112,4.54102c0,0 0.13123,1.32772 -0.1328,1.87036c-0.25568,0.52553 -1.043,1.45921 -1.043,1.45921z" fill="#c2b8bd"/><path d="M121.35059,214.10127c0,0 -0.30826,-3.07708 -0.02612,-4.74646c0.23408,-1.38539 1.23459,-3.43495 1.23459,-3.43495l43.93697,9.85663c0,0 0.96665,3.62232 0.45798,5.20527c-0.5464,1.70056 -3.26414,3.528 -3.26414,3.528z" fill="#6f696b"/><path d="M130.27852,222.67307l1.70758,-5.31432l28.85608,7.58634l-1.70757,5.31432z" fill="#333032"/><path d="M119.26136,219.26064c-0.85929,-0.95664 -2.01037,-2.86605 -2.01037,-2.86605l1.25804,-6.75849c0,0 1.65998,2.92018 2.39297,4.5857c0.51883,1.17891 11.16332,3.04533 11.16332,3.04533l-1.70757,5.31432c0,0 -10.23716,-2.36411 -11.09637,-3.32079z" data-paper-data="{&quot;index&quot;:null}" fill="#444043"/><g><path d="M135.13003,169.1349c0,0 -1.01016,-5.3055 -0.50222,-6.97225c0.35166,-1.15393 3.2572,-2.06813 3.2572,-2.06813l34.30629,7.84652c0,0 0.56171,3.46163 0.10763,4.95158c-0.46406,1.52279 -2.86263,4.08878 -2.86263,4.08878z" fill="#979797"/><path d="M135.50703,168.13629c0,0 -1.19677,-4.79314 -0.75881,-6.26766c0.30321,-1.02094 3.13418,-1.73041 3.13418,-1.73041l34.13059,8.32883c0,0 0.68478,3.1236 0.29329,4.44183c-0.40009,1.34721 -2.66864,3.55629 -2.66864,3.55629z" fill="#a2a2a2"/></g><g><path d="M132.33696,185.60997c0,0 -1.01016,-5.3055 -0.50222,-6.97225c0.35166,-1.15393 3.25719,-2.06814 3.25719,-2.06814l34.30629,7.84652c0,0 0.5617,3.46161 0.10764,4.95157c-0.46406,1.52279 -2.86262,4.08878 -2.86262,4.08878z" fill="#979797"/><path d="M132.71397,184.61135c0,0 -1.19676,-4.79313 -0.7588,-6.26765c0.30319,-1.02093 3.13418,-1.73041 3.13418,-1.73041l34.13059,8.32885c0,0 0.68478,3.1236 0.29329,4.44183c-0.4001,1.34721 -2.66866,3.55628 -2.66866,3.55628z" fill="#a2a2a2"/></g><g><path d="M129.49429,202.58922c0,0 -1.01016,-5.3055 -0.50222,-6.97224c0.35166,-1.15393 3.25719,-2.06814 3.25719,-2.06814l34.30629,7.84652c0,0 0.56169,3.46164 0.10763,4.95158c-0.46406,1.52279 -2.86262,4.08878 -2.86262,4.08878z" fill="#7a7a7a"/><path d="M129.87126,201.59064c0,0 -1.19677,-4.79313 -0.75881,-6.26766c0.30319,-1.02093 3.13418,-1.73039 3.13418,-1.73039l34.13061,8.32884c0,0 0.68476,3.12361 0.29329,4.44183c-0.4001,1.34721 -2.66865,3.5563 -2.66865,3.5563z" fill="#929292"/></g></g></g></g><path d="M123.28778,199.96993c0,0 0.15806,-1.7521 0.57468,-4.04519c1.22331,-6.7323 7.48532,-40.31253 7.48532,-40.31253l1.69977,5.06584l-5.76842,29.05291z" fill="#777275"/></g></g><g fill="#86c8f5" stroke-width="0"><path d="M262.70281,251.63668c4.657,1.86571 3.49652,8.59849 0.04962,15.86763c-3.44689,7.26914 -9.0576,11.95057 -12.5319,10.45627c-3.47428,-1.4943 -3.49652,-8.59849 -0.04962,-15.86763c3.44689,-7.26914 7.16671,-12.60572 12.5319,-10.45627z" data-paper-data="{&quot;index&quot;:null}"/><path d="M238.77912,257.44345c3.44689,-7.26914 6.28458,-10.96213 11.64975,-8.8127c4.657,1.86571 4.37865,6.95495 0.93177,14.22405c-3.4469,7.26915 -9.05759,11.95057 -12.5319,10.45627c-3.47428,-1.4943 -3.49652,-8.59849 -0.04962,-15.86763z" data-paper-data="{&quot;index&quot;:null}"/><path d="M225.10075,259.55492c3.44689,-7.26914 7.65133,-13.71694 13.01652,-11.56751c4.657,1.86571 3.01189,9.70974 -0.43497,16.9789c-3.44689,7.26914 -7.82724,7.99113 -11.30153,6.49684c-3.47429,-1.4943 -4.72687,-4.63906 -1.28002,-11.90817z" data-paper-data="{&quot;index&quot;:null}"/><path d="M225.36444,248.16575c4.657,1.86571 4.37865,6.95495 0.93177,14.22405c-3.44689,7.26914 -7.82724,7.99113 -11.30153,6.49684c-3.47429,-1.4943 -4.72687,-4.63906 -1.28002,-11.90817c3.44689,-7.26914 6.28458,-10.96213 11.64975,-8.8127z" data-paper-data="{&quot;index&quot;:null}"/></g></g></g></svg>