<svg version="1.1" xmlns="http://www.w3.org/2000/svg" xmlns:xlink="http://www.w3.org/1999/xlink" width="469.9432" height="159.61848" viewBox="0,0,469.9432,159.61848"><defs><linearGradient x1="502.15462" y1="187.51302" x2="501.83242" y2="192.31381" gradientUnits="userSpaceOnUse" id="color-1"><stop offset="0" stop-color="#1f1d20"/><stop offset="1" stop-color="#202022"/></linearGradient><linearGradient x1="502.91837" y1="182.69829" x2="502.54761" y2="188.22208" gradientUnits="userSpaceOnUse" id="color-2"><stop offset="0" stop-color="#302d31"/><stop offset="1" stop-color="#1f1e20"/></linearGradient><linearGradient x1="165.66628" y1="208.24084" x2="165.43925" y2="211.62328" gradientUnits="userSpaceOnUse" id="color-3"><stop offset="0" stop-color="#585758"/><stop offset="1" stop-color="#575758"/></linearGradient><linearGradient x1="151.90757" y1="217.41856" x2="151.72934" y2="220.07396" gradientUnits="userSpaceOnUse" id="color-4"><stop offset="0" stop-color="#363536"/><stop offset="1" stop-color="#353536"/></linearGradient><linearGradient x1="301.1669" y1="134.42613" x2="300.79602" y2="139.95221" gradientUnits="userSpaceOnUse" id="color-5"><stop offset="0" stop-color="#5e555b"/><stop offset="1" stop-color="#2b2629"/></linearGradient><linearGradient x1="292.81524" y1="113.15218" x2="292.54761" y2="117.13936" gradientUnits="userSpaceOnUse" id="color-6"><stop offset="0" stop-color="#72676e"/><stop offset="1" stop-color="#5e555b"/></linearGradient><linearGradient x1="179.18129" y1="119.45536" x2="178.78433" y2="125.37008" gradientUnits="userSpaceOnUse" id="color-7"><stop offset="0" stop-color="#5e555b"/><stop offset="1" stop-color="#4d454a"/></linearGradient><linearGradient x1="180.13575" y1="105.23509" x2="179.85702" y2="109.38796" gradientUnits="userSpaceOnUse" id="color-8"><stop offset="0" stop-color="#74686f"/><stop offset="1" stop-color="#5e555b"/></linearGradient></defs><g transform="translate(-36.99735,-103.34287)"><g data-paper-data="{&quot;isPaintingLayer&quot;:true}" fill-rule="nonzero" stroke="none" stroke-linecap="butt" stroke-linejoin="miter" stroke-miterlimit="10" stroke-dasharray="" stroke-dashoffset="0" style="mix-blend-mode: normal"><path d="M350.71001,221.54813c4.02316,7.68403 1.91034,14.64244 -15.95011,23.99374c-6.62483,3.46861 -18.76304,8.04815 -23.6313,11.39269c-3.61809,2.48569 -12.52899,0.9738 -15.84264,0.58043c-4.24806,-0.50427 -6.79733,-30.23155 -6.79733,-30.23155c0,0 3.30427,-1.56568 16.74733,-7.97777c1.51631,-0.72326 13.77631,-8.40182 15.43127,-9.26831c6.75499,-3.53673 15.78125,-11.12132 20.06193,-9.72882c7.0376,2.28931 7.47926,16.46178 9.98082,21.23965z" fill="#86c8f5" stroke-width="0"/><path d="M344.18779,222.59453c4.83248,-1.32144 7.73787,4.3698 9.09999,11.79175c1.3621,7.42192 -0.50371,14.17593 -4.16739,15.08547c-3.66368,0.90954 -7.73787,-4.3698 -9.09999,-11.79175c-1.3621,-7.42192 -1.39996,-13.5631 4.16739,-15.08547z" data-paper-data="{&quot;index&quot;:null}" fill="#86c8f5" stroke-width="0"/><path d="M329.09755,241.23474c-1.34238,-7.4261 -1.14385,-11.82938 4.42679,-13.33856c4.83536,-1.30996 7.50522,2.65023 8.84758,10.07632c1.34238,7.4261 -0.541,14.17639 -4.2066,15.07726c-3.66562,0.90084 -7.72541,-4.38892 -9.06776,-11.81502z" data-paper-data="{&quot;index&quot;:null}" fill="#86c8f5" stroke-width="0"/><path d="M318.77841,248.33714c-1.30822,-7.43319 -1.53629,-14.68842 4.04003,-16.17473c4.84027,-1.29014 7.93807,5.53385 9.2463,12.96702c1.30822,7.43319 -1.84409,10.50168 -5.51299,11.38747c-3.66893,0.88579 -6.46511,-0.74657 -7.77334,-8.17976z" data-paper-data="{&quot;index&quot;:null}" fill="#86c8f5" stroke-width="0"/><path d="M314.06453,241.24039c4.84027,-1.29014 7.49147,2.68198 8.79967,10.11515c1.30822,7.43319 -1.84409,10.50169 -5.51299,11.38747c-3.66893,0.88579 -6.4651,-0.74657 -7.77333,-8.17976c-1.30822,-7.43319 -1.08966,-11.83653 4.48664,-13.32286z" data-paper-data="{&quot;index&quot;:null}" fill="#86c8f5" stroke-width="0"/><g><g><g stroke-width="0"><path d="M227.92012,197.39396l-9.1796,-15.99591l25.55756,1.12386c0,0 -1.48635,5.74217 -1.86652,8.42125c-0.36774,2.59158 -0.37841,7.39941 -0.37841,7.39941z" fill="#7f7d7e"/><path d="M228.00511,197.59685l-3.25594,-5.83807c0,0 2.11523,3.70505 5.3029,4.53507c2.29546,0.59769 4.19811,0.41475 6.85208,0.91443c2.65394,0.49965 5.03775,1.324 5.03775,1.324z" fill="#6c6a6b"/></g><g><g><g><path d="M498.84804,192.11351l-1.73213,-4.93867c0,0 5.86699,2.05539 8.39877,3.12016c2.53174,1.06481 0.92063,2.09535 0.92063,2.09535z" fill="url(#color-1)" stroke-width="0"/><path d="M506.48151,183.13751c0,0 1.32044,2.42165 -1.3309,3.1386c-2.65134,0.71694 -5.62975,1.74285 -5.62975,1.74285l-0.59773,-5.58882z" data-paper-data="{&quot;index&quot;:null}" fill="url(#color-2)" stroke-width="0"/><path d="M489.25207,191.46484l0.14051,-2.09365l14.7394,0.9893c0,0 1.20155,0.87674 1.66377,1.27485c0.41549,0.35787 -0.79635,0.88645 -0.79635,0.88645z" fill="#444444" stroke-width="NaN"/><path d="M489.4166,189.51655l-1.07056,-1.82968l12.58735,0.84483l3.27644,1.86568c0,0 -4.22434,-0.04499 -6.52513,-0.18199c-2.59482,-0.15451 -8.26809,-0.69886 -8.26809,-0.69886z" fill="#535353" stroke-width="0"/><path d="M488.22502,187.81576l-0.28115,-0.66032l11.44803,0.76837l1.6465,0.63741z" fill="#363636" stroke-width="0"/><path d="M489.25207,191.46484l0.07623,-1.1358c0,0 6.40875,0.88478 9.28204,1.07764c2.43492,0.16343 6.86132,0.00588 6.86132,0.00588c0,0 0.83125,0.51905 1.06441,0.73807c0.1967,0.18472 -0.2798,0.45554 -0.2798,0.45554c0,0 -4.74921,0.08664 -7.05777,-0.0683c-3.11455,-0.20905 -9.94645,-1.07299 -9.94645,-1.07299z" fill="#3a3a3a" stroke-width="NaN"/><path d="M488.26283,187.19517l-0.49309,-0.9188l13.61101,0.91354l-1.87896,0.79356z" fill="#242424" stroke-width="0"/><path d="M486.95083,186.41107l0.11079,-1.65059c0,0 8.08897,0.33626 11.07798,0.53688c2.03646,0.13666 5.12205,0.55043 5.12205,0.55043l-1.90931,1.36456z" fill="#3a3a3a" stroke-width="0"/><path d="M486.9295,184.79424l0.13677,-2.03797c0,0 7.65819,0.18337 10.96503,0.40531c2.86156,0.19207 7.73398,0.84973 7.73398,0.84973l-2.54956,1.87605c0,0 -3.6412,-0.32705 -5.88056,-0.47737c-2.97669,-0.1998 -10.40566,-0.61574 -10.40566,-0.61574z" fill="#444444" stroke-width="0"/><path d="M487.01752,182.83828l0.05699,-0.84918c0,0 7.86445,0.40385 11.45357,0.64477c2.4992,0.16775 8.02094,0.66235 8.02094,0.66235l-0.92008,0.79125c0,0 -5.0233,-0.62646 -7.98185,-0.82504c-3.2596,-0.21876 -10.62957,-0.42414 -10.62957,-0.42414z" fill="#535353" stroke-width="0"/><path d="M486.93957,182.06539l0.0228,-0.33967c0,0 7.69306,0.00817 11.14561,0.2399c2.98507,0.20036 8.37201,1.0701 8.37201,1.0701l0.0147,0.34218c0,0 -5.98435,-0.567 -9.22212,-0.7843c-3.28008,-0.22017 -10.33302,-0.5282 -10.33302,-0.5282z" fill="#4e4e4e" stroke-width="0"/></g><g stroke-width="0"><g><g><g><path d="M483.44412,190.58591l-3.69001,-13.44093l0.66703,-1.68045c0,0 3.25077,3.45466 4.00427,6.00121c0.40909,1.38252 0.46995,9.21756 0.46995,9.21756z" fill="#383638"/><path d="M484.53923,189.96645c0,0 0.09907,-0.60441 -0.36376,-3.09588c-0.50473,-2.71706 -1.65047,-6.43918 -1.97082,-7.53708c-0.71908,-2.46439 -1.46354,-2.64512 -1.46354,-2.64512l4.82816,-0.25906l4.04939,13.87809z" fill="#555355"/><path d="M480.79924,176.77781l-0.49772,-1.27254c0,0 2.06926,-0.66291 3.02873,-0.59852c0.89907,0.06035 1.98308,0.86201 1.98308,0.86201l0.49285,1.34513z" fill="#686668"/></g><path d="M477.78412,190.20604l-3.69001,-13.44092l0.33562,-1.6825c0,0 3.5822,3.45669 4.3357,6.00326c0.40908,1.38251 0.46995,9.21756 0.46995,9.21756z" fill="#383638"/><path d="M478.87922,189.58656c0,0 0.09907,-0.60442 -0.36375,-3.09588c-0.50473,-2.71706 -1.65047,-6.43918 -1.97082,-7.53708c-0.71908,-2.46439 -1.46354,-2.64512 -1.46354,-2.64512l4.11336,-0.80817c0,0 0.93981,1.32015 1.15898,2.07129c0.62445,2.14005 3.60526,12.35591 3.60526,12.35591z" fill="#555355"/><path d="M475.13928,176.39788l-0.71541,-1.28718c0,0 2.28688,-0.64832 3.2464,-0.5839c0.89907,0.06035 1.69284,0.84253 1.69284,0.84253l0.61756,1.35348z" fill="#686668"/><path d="M485.42226,189.02971c0.05489,-0.81768 0.76223,-1.43604 1.57993,-1.38116c0.81768,0.05489 1.43604,0.76223 1.38116,1.57993c-0.05489,0.81768 -0.76223,1.43604 -1.57993,1.38116c-0.81768,-0.05489 -1.43604,-0.76223 -1.38116,-1.57993z" fill="#312f31"/><path d="M486.27259,186.15095l-1.62344,-5.66797l1.59736,-0.03646l1.61914,5.73232z" fill="#444144"/></g><path d="M438.8725,182.6167l-3.03141,-11.05134l29.73651,3.17496l-1.11557,9.5939z" fill="#444444"/><path d="M451.74721,179.55654c0,0 0.66949,-0.47819 1.46416,-1.53223c0.7266,-0.96374 1.56321,-2.48901 1.97808,-2.92597c1.08736,-1.63732 3.4293,-1.01227 3.4293,-1.01227l-1.02112,0.58599l-4.71015,4.961z" fill="#292929"/><path d="M453.83516,190.2498l-5.76494,-11.38304c0,0 3.4553,0.76442 5.22537,-0.16823c1.37547,-0.72477 1.45779,-3.35713 3.05044,-3.53177c4.56938,-0.50104 17.44406,-0.07177 17.44406,-0.07177c0,0 2.75443,7.34591 3.48622,10.28858c0.50521,2.03151 0.619,6.48112 0.619,6.48112z" fill="#4a464a"/><path d="M458.84086,177.44773c-4.50798,-0.94007 -2.97906,-2.20446 -2.97906,-2.20446c0,0 0.87816,-1.24624 2.75108,-1.26698c4.59611,-0.05098 13.18113,1.10344 14.90122,1.19318c0.81123,0.04233 0.29919,0.71743 0.29919,0.71743c0,0 -1.64581,2.28088 -3.20998,2.43048c-1.56419,0.14962 -7.25446,0.07043 -11.76246,-0.86965z" fill="#5e595e"/></g><g><path d="M441.61734,196.01986l-3.94862,-18.24088l18.84617,1.55188l4.49882,4.64004l6.09214,0.31015l2.06243,13.58796z" fill="#4d4846"/><path d="M446.27145,196.72022l21.23878,-7.98717l22.28779,1.25296c0,0 1.02897,4.26131 1.08087,5.62247c0.02645,0.69394 -0.35178,2.92709 -0.35178,2.92709z" fill="#423d3b"/><path d="M443.0228,188.17245l-2.51298,-10.03697l0.81867,0.05495l2.51298,10.03697z" fill="#363332"/><path d="M446.90939,195.95965l0.08153,-1.21465c0,0 5.42311,-2.18717 14.46767,-1.58014c1.2017,0.08065 5.27003,2.9049 6.48124,2.98619c7.68481,0.51577 15.20678,1.02064 18.06844,1.21272c2.33051,0.15642 4.79743,-0.98093 4.79743,-0.98093l-0.16858,2.51173z" fill="#312e2c"/><path d="M450.12712,183.40673l-1.4306,-4.72178l8.28906,0.55637l3.8496,4.68964l6.27938,0.61595l-7.7032,1.43608z" fill="#585350"/><path d="M440.19075,189.78129l0.07555,-1.12567c0,0 8.27848,-3.19638 11.14925,-3.00369c4.3266,0.29038 16.2711,1.09208 16.2711,1.09208l-0.07555,1.12567c0,0 -12.14921,-0.81544 -16.47576,-1.10584c-2.8118,-0.18873 -10.94459,3.01744 -10.94459,3.01744z" fill="#2b2827"/></g></g></g><g><g><g><path d="M103.45321,209.93c0.38999,2.26519 -0.09214,4.82818 -1.19841,5.01864c-1.10626,0.19046 -2.41771,-2.06374 -2.80771,-4.32895c-0.38999,-2.26519 -1.94548,-10.95927 -0.83923,-11.14974c1.10626,-0.19046 4.45534,8.19485 4.84533,10.46005z" fill="#615e5f" stroke-width="0"/><g><path d="M146.95658,182.85356c-0.50279,-0.56255 -2.75033,-2.02874 -2.75033,-2.02874l10.09059,-2.20923l-6.46871,6.78204c0,0 -0.36878,-1.98155 -0.87159,-2.54407z" fill="#756a6a" stroke-width="0"/><path d="M138.06391,180.5557l0.91971,-13.7025l18.88462,-4.61237l-1.31255,19.556z" fill="#8a7c7c" stroke-width="0"/><path d="M97.75322,183.30942l7.86606,-17.64616l34.86384,2.20636l3.6749,12.94182c0,0 -23.04384,0.03294 -30.78489,0.44963c-3.21339,0.17296 -15.6199,2.04838 -15.6199,2.04838z" fill="#7c787a" stroke-width="0"/><path d="M105.57628,168.0706l-0.04862,-1.48806c0,0 25.86604,1.73609 33.99758,2.28183c4.54962,0.30534 16.53849,-5.27468 16.53849,-5.27468l-0.10913,1.62597c0,0 -11.69407,5.58044 -16.09316,5.27053c-8.06629,-0.56832 -34.28518,-2.4156 -34.28518,-2.4156z" fill="#535353" stroke-width="0"/><path d="M65.69832,181.86739l1.34966,-20.10875c0,0 4.99337,-6.73487 12.37505,-8.54055c9.16834,-2.24273 25.89967,0.66938 27.96566,0.80804c1.58543,0.10643 -13.57621,9.52888 -13.57621,9.52888l-1.34966,20.10875z" fill="#8d898b" stroke-width="0"/><path d="M241.34753,147.41001l1.8096,-3.02989l107.31414,7.34589l-0.98751,14.71313c0,0 -37.81936,-0.68871 -49.98491,-1.92226c-6.04173,-0.61262 -58.15128,-17.10688 -58.15128,-17.10688z" fill="#c98cac" stroke-width="0"/><path d="M212.96837,246.7326l-3.66714,-13.21167c0,0 4.73546,6.17046 7.5046,7.43557c1.7643,0.80605 5.95542,1.46998 12.21568,-0.55274c5.03976,-1.62837 10.5659,-6.78066 10.5659,-6.78066l-12.64677,14.04726z" fill="#a08e97" stroke-width="0"/><path d="M306.39679,205.98173l-0.75085,-23.72495l18.5997,-0.15754l-1.41951,21.14944c0,0 -6.49816,1.28685 -9.3038,1.79835c-1.29186,0.23555 -7.12552,0.93469 -7.12552,0.93469z" fill="#96858d" stroke-width="0"/><path d="M210.88398,250.34698l0.37102,-5.52773c0,0 11.89764,2.87174 16.71585,0.06677c3.25997,-1.89781 37.19491,-39.34333 37.19491,-39.34333c0,0 3.60448,-3.53978 3.8015,-6.41522c0.09912,-1.44648 0.84784,-5.58434 0.17295,-7.9462c-0.68091,-2.38296 -2.78596,-2.98359 -2.78596,-2.98359l-3.95232,-13.86809l19.76192,1.4704l-4.6824,26.31883l3.57819,2.80781c0,0 -9.93538,5.3468 -14.88579,9.98134c-7.74554,7.25139 -33.11713,36.00177 -33.11713,36.00177z" fill="#918189" stroke-width="0"/><path d="M283.24503,204.78136l3.12639,-28.4584l13.72625,1.19765l9.53667,12.66925l-3.32954,16.13926z" fill="#96858d" stroke-width="0"/><path d="M278.60677,206.32341l-2.22601,-4.3045l5.28489,-25.8941l5.07411,0.25568l-2.58848,28.47726z" fill="#8f8187" stroke-width="0"/><path d="M305.06634,206.34981c0,0 3.19202,-6.46782 2.20472,-11.95709c-0.56849,-3.16067 -5.3365,-5.45485 -5.685,-7.39246c-0.66573,-3.70133 -1.69563,-9.42736 -1.69563,-9.42736l7.54523,4.88019c0,0 2.9154,7.42567 3.22644,11.71765c0.20896,2.88356 -1.69838,9.14589 -2.79696,11.67687c-0.09261,0.21336 -1.26054,0.05153 -1.32315,0.21302c-0.15289,0.39451 0.79366,0.68989 0.79366,0.68989z" fill="#86787e" stroke-width="0"/><path d="M307.12104,183.93528c0,0 -2.81904,-4.15306 -7.42596,-5.43607c-5.21557,-1.45248 -22.26873,-2.83371 -22.26873,-2.83371l158.33301,-3.58672l2.78492,9.50962l7.15388,11.64788c0,0 -100.39342,-9.31544 -120.93557,-10.69418c-6.70317,-0.4499 -17.64156,1.39316 -17.64156,1.39316z" fill="#df8db7" stroke-width="0"/><path d="M150.08334,220.78191l-2.35838,-36.50974c0,0 1.93062,-3.62954 2.44511,-3.81114c5.6724,-2.00249 38.35048,-10.48496 43.75832,-9.83507c5.924,0.7119 -9.95917,11.60127 -9.95917,11.60127c0,0 -14.51312,1.05637 -17.32975,5.12682c-3.82413,5.52642 -0.14975,23.16561 -0.14975,23.16561z" fill="#c77da3" stroke-width="0"/><path d="M224.34535,195.76999l-1.64448,-2.22038c0,0 7.12065,-8.148 9.70228,-10.2726c2.6653,-2.19348 6.04655,-2.68824 6.04655,-2.68824l5.76798,2.69453c0,0 -4.43235,-0.80119 -6.90573,0.75294c-2.12329,1.33415 -6.07312,4.15467 -9.07415,7.05253c-2.18299,2.10799 -3.89244,4.68125 -3.89244,4.68125z" fill="#414041" stroke-width="0"/><path d="M105.32773,167.00524l5.57204,-11.34182l48.51926,3.25653c0,0 -3.19044,4.25139 -6.43471,6.0042c-3.18413,1.72032 -12.85386,4.41701 -12.85386,4.41701z" fill="#979395" stroke-width="0"/><path d="M106.20241,165.9185l4.77382,-11.39542l48.51926,3.25653c0,0 -3.19044,4.25139 -6.43471,6.0042c-3.18413,1.72032 -12.85386,4.41701 -12.85386,4.41701z" fill="#bdb7ba" stroke-width="0"/><path d="M307.44763,206.83107l-1.83432,-0.63776l17.09063,-3.0371c0,0 -3.69016,1.81433 -6.22189,2.44313c-2.53175,0.62881 -9.03439,1.23173 -9.03439,1.23173z" fill="#887980" stroke-width="0"/><path d="M152.53236,221.41182c0,0 -1.63411,-10.5987 -2.26073,-19.19842c-0.62967,-8.6417 -1.19484,-16.74443 -0.97681,-20.32257c0.03695,-0.6062 2.34638,-10.40419 2.87996,-10.89097c2.8801,-2.62745 10.08593,5.61719 15.71144,4.88876c8.32954,-1.0786 27.42954,-0.3119 27.42954,-0.3119l-8.79037,4.73263c0,0 -19.59782,1.55622 -22.32814,6.52177c-3.693,6.7164 2.463,28.04929 2.463,28.04929z" fill="#d486ae" stroke-width="0"/><path d="M153.89697,217.97665c0,0 -3.90912,-41.22589 -1.91036,-51.19141c0.93521,-4.66276 -1.80217,-13.97484 -1.80217,-13.97484l50.08682,10.34606l0.34455,16.12926c0,0 -31.76321,-5.23204 -38.51953,0.60255c-4.51007,3.89477 0.39237,32.53043 0.39237,32.53043z" fill="#e490bb" stroke-width="0"/><g stroke-width="0"><path d="M296.22872,164.39418l0.55412,-8.25629l9.339,0.62682l-0.55412,8.25629z" fill="#454545"/><path d="M297.11043,163.68684l0.13282,-7.3056l11.30077,0.75849l-0.48875,7.28174z" fill="#b0b0b0"/><path d="M297.18101,159.19245l-0.03851,-2.83928l11.51696,0.773l-0.12774,1.90313c0,0 -7.79694,-0.20014 -9.50179,-0.17562c-0.56966,0.00819 -1.8489,0.3388 -1.8489,0.3388z" fill="#bebebe"/><path d="M308.34491,163.89011c0,0 -5.35713,-2.92065 -4.53642,-6.6217c1.21951,-5.4997 5.29947,-4.74667 5.29947,-4.74667l40.0628,4.02528l-0.67373,10.03803z" fill="#9c989a"/><path d="M310.2145,162.72346c0,0 -2.24553,-3.67756 -2.42706,-4.61868c-0.26907,-1.39499 1.91926,-4.2121 1.91926,-4.2121l41.50013,2.81883l-0.90058,7.44507z" fill="#898587"/><path d="M310.11109,162.91525l-0.88746,-2.0033l38.14591,2.56028l-0.12989,1.93505z" fill="#c1bcbf"/><path d="M310.21749,159.52078c0,0 -1.23873,-1.45421 -1.17596,-2.38942c0.05871,-0.87483 1.54124,-3.05286 1.54124,-3.05286l38.57988,2.58943l-0.36529,5.44229z" fill="#0d0d0d"/><path d="M310.16542,160.29636c0,0 -1.1983,-2.05662 -1.13552,-2.99184c0.05871,-0.87483 1.50081,-2.45044 1.50081,-2.45044l38.57988,2.58943l-0.36529,5.44229z" fill="#2e2e2e"/><path d="M305.22281,161.87219c-2.42754,-3.23677 -1.10851,-5.49005 -1.10851,-5.49005c0,0 1.55275,4.2258 2.72535,5.20414c1.38831,1.15826 4.89859,2.76291 4.89859,2.76291l-3.50558,-0.16495c0,0 -2.5826,-1.74236 -3.00982,-2.31202z" fill="#7d7a7c"/><path d="M312.73888,160.77948c0,0 -0.73876,-2.26659 -0.66217,-3.40757c0.06731,-1.00298 1.09748,-3.07786 1.09748,-3.07786l4.8125,0.323c0,0 -0.60766,2.16814 -0.66582,3.03443c-0.07991,1.19061 0.23053,3.45096 0.23053,3.45096z" fill="#555555"/><path d="M321.33622,161.35649c0,0 0.83413,-2.4728 0.9107,-3.61378c0.06731,-1.00297 -0.47541,-2.87162 -0.47541,-2.87162l5.37125,0.3605c0,0 -0.53059,1.68333 -0.58873,2.54961c-0.07991,1.19061 0.15345,3.93577 0.15345,3.93577z" fill="#555555"/><path d="M330.64192,161.9811c0,0 0.83414,-2.4728 0.91071,-3.61378c0.06731,-1.00298 -0.47542,-2.87162 -0.47542,-2.87162l5.29143,0.35516c0,0 -0.53059,1.68333 -0.58873,2.54961c-0.07991,1.19061 0.15345,3.93577 0.15345,3.93577z" fill="#555555"/><path d="M340.28355,162.62822c0,0 0.98772,-2.10614 1.06429,-3.24712c0.06731,-1.00297 -0.629,-3.23828 -0.629,-3.23828l5.1318,0.34444c0,0 0.69319,2.03271 0.63507,2.89904c-0.07991,1.19061 -1.07036,3.58638 -1.07036,3.58638z" fill="#555555"/><path d="M312.86144,154.97862l-0.61004,-0.84275l35.48277,2.38155l-1.58438,0.69547c0,0 -2.82373,-0.18952 -5.28041,-0.35442c-0.53549,-0.03593 -1.5268,-0.43196 -2.32886,-0.48583c-0.77552,-0.05204 -1.35421,0.23863 -2.31821,0.17392c-1.50329,-0.10089 -3.19941,-0.21475 -4.9751,-0.33393c-0.73619,-0.04941 -1.35105,-0.4751 -2.1065,-0.5258c-0.67175,-0.04509 -1.48294,0.2849 -2.15788,0.2396c-1.6751,-0.11243 -3.33368,-0.22375 -4.89308,-0.32842c-0.71609,-0.04806 -1.38189,-0.53209 -2.04817,-0.57683c-0.81334,-0.05458 -1.61294,0.33109 -2.32556,0.28324c-2.90692,-0.19509 -4.85454,-0.32582 -4.85454,-0.32582z" fill="#474747"/></g><g><path d="M161.48413,212.04251l3.90076,-2.6121c0,0 2.63008,2.99775 5.39781,4.0805c2.44794,0.95765 10.36731,2.08681 10.36731,2.08681l-2.94068,4.16672z" fill="#6d6a6b" stroke-width="0"/><path d="M153.00798,217.98842l9.70532,-6.75041c0,0 3.07634,2.46811 5.19593,3.27374c3.20657,1.21881 12.17158,3.32761 12.17158,3.32761l-4.5566,4.0112z" fill="#615e5f" stroke-width="0"/><path d="M153.53117,240.04037l0.03171,-22.62171c0,0 4.29143,1.08175 9.0999,1.43418c3.75323,0.27508 7.84863,-0.29908 10.28607,0.47425c4.27908,1.35757 36.90247,15.93071 36.90247,15.93071l1.79153,10.31794z" fill="#575455" stroke-width="0"/><path d="M176.88512,214.50509c7.29043,-5.08841 16.24261,-17.96989 17.67034,-20.45124c1.02856,-1.78763 2.06782,-7.00578 2.06782,-7.00578l7.23004,7.31542c0,0 4.46409,20.84249 4.79512,33.5399c0.09262,3.55287 2.34026,7.65779 1.05844,9.0415c-1.14846,1.23976 -18.22503,2.38868 -23.55595,1.2644c-11.2187,-2.366 -17.18458,0.02939 -20.5676,-5.48487c-3.38306,-5.51426 4.12169,-11.29493 4.12169,-11.29493c0,0 5.28218,-5.59966 7.1801,-6.92439z" fill="#504e4f" stroke-width="0"/><path d="M183.87819,182.07535c0,0 0.49491,-1.46292 1.39441,-2.06755c1.15685,-0.77761 4.9709,-2.21112 4.9709,-2.21112c0,0 9.20747,2.68998 12.04423,5.376c2.61733,2.47819 -4.33781,12.31568 -4.33781,12.31568l-1.64298,-5.4837z" fill="#464445" stroke-width="0"/><path d="M203.89784,230.75275c0,0 -9.68233,5.61999 -18.15917,5.22286c-8.17764,-0.38311 -15.16435,-6.75713 -14.96233,-8.16902c0.10945,-0.76494 8.24097,-3.53195 11.99238,-7.51105c4.17006,-4.4232 4.06456,-10.14465 5.547,-12.06012c4.13863,-5.34756 13.24627,-14.93766 12.59234,-21.03882c-0.68578,-6.3984 -11.24038,-9.18532 -11.24038,-9.18532c0,0 3.99334,-1.98873 8.97652,-1.78445c2.12265,0.08702 6.56722,1.77429 7.46265,2.22022c2.93635,1.46229 4.81303,3.22817 4.81303,3.22817c0,0 3.97712,-4.62336 7.59186,-4.6909c3.61474,-0.06755 22.20089,4.13418 22.20089,4.13418l-17.01754,11.48014z" fill="#555354" stroke-width="0"/><path d="M187.88044,208.80254c0,0 5.33855,-10.53896 10.42227,-15.64486c5.08371,-5.10593 9.36596,-8.00614 12.89038,-7.76959c2.5522,0.17128 5.25608,8.98756 5.25608,8.98756l-12.97867,27.96284c0,0 -14.80794,2.29262 -16.11577,-0.28141c-1.03291,-2.03297 0.52568,-13.25455 0.52568,-13.25455z" fill="#585758" stroke-width="0"/><path d="M208.55701,237.55143c0,0 -2.4571,-6.36991 -1.92918,-9.36348c0.7375,-4.18201 3.02554,-16.71084 3.02554,-16.71084l1.25344,10.5433c0,0 -1.29181,9.68272 -1.3623,12.7147c-0.06803,2.92535 1.20676,5.18619 1.20676,5.18619z" fill="#3f3e3f" stroke-width="0"/><path d="M208.82685,219.66411c-0.08284,-1.68414 0.6998,-9.35986 0.6998,-9.35986c0,0 10.5123,-13.89518 12.78267,-16.40185c0.66559,-0.73485 4.1296,-2.23717 4.1296,-2.23717l-1.96763,4.73276c0,0 -1.61075,0.49724 -1.82217,0.96197c-0.22524,0.49511 0.5096,1.92335 0.5096,1.92335l-5.68523,8.11761c0,0 -1.71456,0.89776 -1.92718,1.39001c-0.21269,0.49237 0.41393,1.42456 0.41393,1.42456c0,0 -4.44446,8.66308 -5.44676,11.016c-0.46344,1.08792 -0.32482,2.53306 -0.32482,2.53306c0,0 -1.27896,-2.41627 -1.36181,-4.10041z" fill="#474647" stroke-width="0"/><path d="M197.13446,197.86379l20.46006,9.62706c0,0 -1.25405,0.93038 -1.5268,1.45235c-0.20127,0.38515 0.03863,1.39558 0.03863,1.39558z" fill="#3f3e3e" stroke-width="NaN"/><path d="M203.81429,187.93588l20.89097,8.47686c0,0 -1.16899,0.76676 -1.41678,1.30771c-0.25832,0.56393 0.03811,1.66546 0.03811,1.66546z" fill="#3f3e3e" stroke-width="NaN"/><path d="M189.48159,215.71844c0,0 10.15326,8.39177 15.61789,14.7496c5.46463,6.35783 3.44748,7.43198 3.44748,7.43198z" fill="#636162" stroke-width="NaN"/><path d="M204.2826,193.60335c0,0 -6.18163,2.4957 -9.13214,5.40058c-2.95052,2.90487 -12.34952,18.49334 -12.15226,15.55445c0.19724,-2.93892 14.67719,-22.73481 16.46808,-22.6146c0.67793,0.0455 3.78387,-0.89087 4.58456,-0.59914c1.31445,0.47896 0.2318,2.25874 0.2318,2.25874z" fill="#918f91" stroke-width="0"/><path d="M153.08465,239.88068l14.03797,-0.95032c0,0 12.58987,0.51199 15.70914,0.87677c7.5963,0.88829 30.03433,4.47245 30.03433,4.47245l-0.86933,6.27694c0,0 -24.54505,1.92606 -31.33587,0.15168c-1.96459,-0.51331 -7.7268,-1.51953 -11.88245,-3.15367c-8.13241,-3.19798 -15.6938,-7.67382 -15.6938,-7.67382z" fill="#626061" stroke-width="0"/><path d="M211.01766,250.13816c0,0 0.32781,-4.28032 0.03656,-6.645c-0.32735,-2.65782 -1.90501,-8.52551 -1.90501,-8.52551l1.77833,0.11935c0,0 1.41685,4.56192 1.71323,6.96802c0.32399,2.63067 0.15526,8.20244 0.15526,8.20244z" fill="#4a494a" stroke-width="0"/><path d="M210.76684,250.95951l0.31555,-3.38362c0,0 0.54775,0.30205 0.81865,0.32026c0.32187,0.02162 0.94489,-0.20188 0.94489,-0.20188l-0.03937,3.18105c0,0 -0.80211,0.3547 -1.17377,0.37004c-0.28479,0.01174 -0.86589,-0.28584 -0.86589,-0.28584z" fill="#363536" stroke-width="0"/><path d="M209.35499,236.00915l-0.27646,-1.64283c0,0 0.44017,-0.32566 0.8118,-0.36008c0.35393,-0.03278 0.86695,0.12468 0.86695,0.12468l0.38421,1.76607c0,0 -0.51473,0.47404 -0.8208,0.49323c-0.28837,0.0181 -0.96568,-0.38111 -0.96568,-0.38111z" fill="#585758" stroke-width="0"/><path d="M169.29251,246.90547c0,0 -7.67972,-3.47491 -7.58841,-4.83487c0.09173,-1.36676 6.3933,-2.11723 6.3933,-2.11723c0,0 10.93547,0.49265 15.86976,0.99682c2.76244,0.28225 11.21577,1.77067 11.21577,1.77067c0,0 7.20485,1.54017 7.94095,2.74387c0.80298,1.31301 -3.24279,3.8895 -3.24279,3.8895c0,0 -12.78274,0.45105 -16.72472,-0.02224c-1.40031,-0.16813 -13.86392,-2.42643 -13.86392,-2.42643z" fill="#6b696a" stroke-width="0"/><path d="M159.39499,239.32415l-1.97275,0.0989c0,0 0.85499,-3.38503 3.48573,-1.96344c2.63074,1.42158 21.62983,1.68305 21.62983,1.68305z" fill="#4b4949" stroke-width="0"/><path d="M153.16708,239.74186c0,0 -2.00612,0.05738 -2.29607,-3.61304c-0.14676,-1.85793 -0.93243,-16.13475 -0.93243,-16.13475l3.92171,-2.64243c0,0 0.27888,6.02592 0.29024,8.93547c0.01507,3.86962 -0.06236,13.51651 -0.06236,13.51651z" fill="#3f3d3e" stroke-width="0"/><path d="M159.70495,239.51127c0,0 3.33004,-1.93948 19.37295,-1.20059c1.32484,0.06103 -1.78901,-0.15215 7.55565,0.98351c9.34466,1.13563 13.14283,2.90664 13.14283,2.90664c0,0 -14.96075,-2.07593 -21.14965,-2.49133c-7.05458,-0.4735 -18.92178,-0.19819 -18.92178,-0.19819z" fill="#838082" stroke-width="0"/><path d="M166.72865,210.28386c0,0 -4.50729,1.88983 -6.78565,3.35612c-2.56081,1.64806 -7.83109,6.05079 -7.83109,6.05079l-0.67548,-1.65056c0,0 4.01222,-3.59305 6.33047,-5.08505c2.53464,-1.6312 8.28626,-4.32187 8.28626,-4.32187z" fill="#4a494a" stroke-width="0"/><path d="M167.67783,210.08917l-3.66559,1.43831c0,0 0.13946,-0.63851 0.03657,-0.88997c-0.12225,-0.29876 -0.62917,-0.74168 -0.62917,-0.74168l3.2582,-1.58709c0,0 0.72086,0.53613 0.90307,0.86056c0.13962,0.2486 0.0969,0.91984 0.0969,0.91984z" fill="url(#color-3)" stroke-width="0"/><path d="M153.08056,218.9757l-3.12713,2.52603l0.00264,-2.18739l2.20955,-1.87847c0,0 0.71359,0.21839 0.87034,0.4822c0.14768,0.24853 0.04461,1.0576 0.04461,1.0576z" fill="url(#color-4)" stroke-width="0"/></g><path d="M284.46447,203.76428c0,0 1.22123,-4.34666 1.81642,-5.69893c0.40405,-0.91799 2.86798,-2.18747 2.86798,-2.18747l16.99584,0.92203c0,0 -1.66256,5.6992 -2.13425,7.03689c-0.20665,0.586 -1.3166,1.20568 -1.3166,1.20568z" fill="#665b60" stroke-width="0"/><path d="M237.18204,182.29317c0,0 -3.68104,-1.81303 -8.52127,-3.29275c-3.07698,-0.94066 -7.29941,-1.7921 -9.16333,-1.8112c-5.41901,-0.05551 -8.27422,4.86923 -8.27422,4.86923c0,0 -3.11083,-2.52976 -5.1565,-3.52365c-1.90957,-0.92776 -6.18587,-2.218 -6.18587,-2.218c0,0 24.84525,-3.43517 28.72663,-3.75608c7.44091,-0.61521 34.036,1.56206 34.036,1.56206l5.25329,14.67044z" fill="#8b7c84" stroke-width="0"/><g stroke-width="0"><path d="M285.97901,202.92106c0,0 0.64437,-2.55885 1.11372,-3.42416c0.48669,-0.89721 2.73601,-1.80101 2.73601,-1.80101l14.4974,0.97304c0,0 0.31963,1.0066 0.03534,1.72698c-0.3865,0.97946 -3.34081,3.53472 -3.34081,3.53472z" fill="#585852"/><path d="M286.02892,202.17735c0,0 0.59443,-1.81516 1.06378,-2.68044c0.48669,-0.89721 2.78592,-2.54472 2.78592,-2.54472l14.4974,0.97304c0,0 0.2697,1.75033 -0.01455,2.47068c-0.3865,0.97946 -3.29088,2.79099 -3.29088,2.79099z" fill="#797971"/><path d="M302.58263,198.30155c-1.03459,-0.2478 -12.61289,-1.29686 -12.61289,-1.29686l14.47758,0.9717l-0.16487,2.45631c0,0 -0.66521,-1.88337 -1.69979,-2.13114z" fill="#85857b"/></g><path d="M288.62369,184.88956l0.34753,-5.1781l7.11989,0.47788l0.94697,5.26498z" fill="#7c6e75" stroke-width="0"/><path d="M279.99255,157.82721l-3.62281,-8.39271l1.37623,0.09237l5.52371,8.97293z" fill="#d495b6" stroke-width="0"/><path d="M241.58744,147.60336l13.39627,-2.1975l21.58265,4.06698l3.45207,8.34215z" fill="#df9cbe" stroke-width="0"/><path d="M288.44885,189.91668l0.10861,-1.61817l10.84165,0.72767l0.86228,1.68332z" fill="#7c6e75" stroke-width="0"/><path d="M248.78192,175.07284c0,0 -18.17318,-0.01863 -23.82682,0.10317c-8.56082,0.18445 -25.7485,1.36135 -25.7485,1.36135c0,0 15.28736,-3.42456 28.86598,-4.0327c14.7227,-0.65938 58.77096,0.83639 58.77096,0.83639l-0.36221,5.39691z" fill="#75686e" stroke-width="0"/><path d="M241.2917,183.36031l-3.19773,-0.78673c0,0 9.90821,-1.72477 15.18468,-0.60607c5.2765,1.11864 14.18959,6.83369 14.18959,6.83369z" fill="#7c6e76" stroke-width="0"/><path d="M195.20977,176.22813c0,0 -31.25355,-17.52878 -31.83366,-22.19822c-0.52693,-4.24163 29.59759,4.33978 29.90192,4.25172c5.32535,-1.54071 77.53007,-3.92558 77.53007,-3.92558l26.09435,8.55601l52.68173,2.96318l6.38274,14.03437c0,0 -61.49919,-2.95618 -85.22303,-4.38506c-8.23518,-0.496 -24.98631,-2.26947 -40.3322,-2.15658c-11.83734,0.08706 -29.77303,3.20959 -29.77303,3.20959z" fill="#ee96c3" stroke-width="0"/><path d="M65.5281,180.09567l4.66912,-19.88596c0,0 0.37108,-7.0451 7.75277,-8.85081c9.16834,-2.24273 25.89967,0.66938 27.96566,0.80804c1.58543,0.10643 -13.57621,9.52888 -13.57621,9.52888l-1.34966,20.10875z" fill="#c4b4b3" stroke-width="0"/><g stroke-width="0"><path d="M347.27825,180.71157l-1.83666,-15.30021l92.09554,12.96097l-1.14394,5.74323l-47.64737,1.67005z" fill="#ad6d8e"/><path d="M374.52454,168.1718l7.8104,-7.76713l26.85719,-0.33122l-4.99194,10.09014z" fill="#8d788b"/><path d="M349.03113,167.65203l1.08723,-16.19884l32.28642,8.96033l-5.02841,6.54695z" fill="#857183"/><path d="M391.57704,167.17928l17.5525,-7.10879l27.5265,5.62867l-0.74711,6.85937z" fill="#947e92"/><path d="M344.91219,166.76569l3.74203,-12.54354l1.64875,-2.96007l-1.00878,15.03z" fill="#756474"/><path d="M348.76992,177.59009l0.08879,-12.09395l43.327,1.25547l-2.29861,15.93889z" fill="#746373"/><path d="M389.88047,182.67458c0,0 0.80154,-6.26787 1.19029,-9.09233c0.33285,-2.41821 1.00061,-6.82578 1.00061,-6.82578l44.03991,3.86702l1.433,8.51508z" fill="#867284"/><path d="M344.95728,166.69812l4.12108,-1.25775l-0.27897,12.15933z" fill="#6f5e6d"/><path d="M429.46414,165.10859l-19.54843,-4.68327l26.42377,5.41807l-0.60025,3.51316c0,0 -0.20778,-1.58678 -1.36619,-2.37097c-0.7749,-0.5246 -4.90889,-1.87697 -4.90889,-1.87697z" fill="#978195"/><path d="M389.95023,166.41886c0,0 8.18881,-2.92344 11.05146,-4.08844c2.08534,-0.84866 4.54371,-2.25823 4.54371,-2.25823l2.52059,0.28206l-15.47306,6.24199z" fill="#9c859a"/><path d="M375.54754,166.26236c0,0 1.49776,-2.65796 2.93542,-3.91477c1.43767,-1.25684 3.79529,-1.91563 3.79529,-1.91563l-4.27472,5.99527z" fill="#806b7d"/><path d="M410.81999,158.43423l2.51249,-5.57759l14.91588,4.74284l5.15884,6.76065z" fill="#55494f"/><path d="M408.10485,161.05844c0,0 1.13292,-0.71595 1.73121,-1.26187c0.45066,-0.41124 1.22983,-1.74661 1.22983,-1.74661l21.99578,5.4853c0,0 0.83264,0.55397 1.39572,0.91817c0.58844,0.38061 2.06225,1.31842 2.06225,1.31842z" fill="#685960"/><path d="M411.43968,157.58166l1.96188,-4.464l13.8918,4.26671c0,0 -7.8861,-2.06545 -12.3742,-2.11146c-2.60336,-0.02669 -3.4795,2.30875 -3.4795,2.30875z" fill="#41383c"/></g><path d="M69.79428,141.01347l0.34878,-5.19663c0,0 22.37312,0.20367 44.27814,1.73098c13.05338,0.91016 26.4858,3.41297 33.415,3.5271c15.62377,0.2574 26.37122,-3.54362 26.37122,-3.54362l-7.03909,10.19462z" fill="#ffa1d1" stroke-width="0"/><path d="M66.2874,154.76712l3.23251,-15.9018c0,0 54.53531,5.72546 72.3719,6.48096c10.56567,0.44753 24.78618,-2.36568 24.78618,-2.36568l-0.98055,14.60947c0,0 -67.34947,-4.52036 -83.58533,-5.6101c-6.67558,-0.44807 -17.62502,29.61109 -17.62502,29.61109z" fill="#ee96c3" stroke-width="0"/><path d="M239.97202,243.08869l10.16965,-12.94393c0,0 10.9583,-15.15743 20.79709,-21.37526c2.5002,-1.58006 7.73825,-2.42768 7.73825,-2.42768c0,0 -7.62132,4.48479 -10.39727,7.09621c-6.55553,6.16697 -28.30774,29.65065 -28.30774,29.65065z" fill="#70646b" stroke-width="0"/><path d="M340.10714,184.82304l-5.08094,-18.38332l1.34712,0.09043c0,0 1.53879,5.56742 2.35187,8.50929c0.11585,0.41916 1.39599,1.72893 1.53949,2.2481c0.24873,0.89999 -0.618,1.08589 -0.33998,2.09183c0.77415,2.80101 1.52956,5.53411 1.52956,5.53411z" fill="#795467" stroke-width="0"/><path d="M166.2995,158.06326c0,0 -10.0197,-7.23958 -9.0891,-10.96052c0.55722,-2.22791 17.89452,-9.03432 17.89452,-9.03432l68.23619,6.25575l-1.84036,2.97956l29.23208,7.22223l-73.41446,21.70755c0,0 -0.41365,-5.65421 3.37194,-8.26472c3.67921,-2.53714 19.03155,-7.18446 19.03155,-7.18446c0,0 -34.13733,-2.34036 -41.40605,-2.91509c-2.42505,-0.19175 -12.01638,0.19396 -12.01638,0.19396z" fill="#f399c8" stroke-width="0"/><g><path d="M173.18321,139.86795l0.21687,-3.23107l176.15734,11.82336l-0.21687,3.23107z" fill="#584f54" stroke-width="0"/><path d="M343.75743,148.31973l0.18325,-2.73018l3.04841,0.2046l2.50652,2.91071z" fill="#685d63" stroke-width="0"/><g fill="#685d63" stroke-width="0"><g><g><g><path d="M337.09566,148.12234l0.19935,-2.97033l3.87241,0.2599l-0.19935,2.97033z"/><path d="M330.81225,147.70064l0.19935,-2.97033l3.87241,0.2599l-0.19935,2.97033z"/></g><g><path d="M324.76598,147.29477l0.19935,-2.97033l3.87241,0.2599l-0.19935,2.97033z"/><path d="M318.48256,146.87306l0.19935,-2.97033l3.87241,0.2599l-0.19935,2.97033z"/></g></g><g><g><path d="M312.31771,146.45927l0.19935,-2.97033l3.87241,0.2599l-0.19935,2.97033z"/><path d="M306.0343,146.03758l0.19935,-2.97033l3.87241,0.2599l-0.19935,2.97033z"/></g><g><path d="M299.98802,145.63173l0.19935,-2.97033l3.87241,0.2599l-0.19935,2.97033z"/><path d="M293.70469,145.21002l0.19935,-2.97033l3.87241,0.2599l-0.19935,2.97033z"/></g></g></g><g><g><g><path d="M293.46757,145.19409l0.19935,-2.97033l3.87241,0.2599l-0.19935,2.97033z"/><path d="M287.18419,144.77238l0.19935,-2.97033l3.87241,0.2599l-0.19935,2.97033z"/></g><g><path d="M281.13788,144.36655l0.19935,-2.97033l3.87241,0.2599l-0.19935,2.97033z"/><path d="M274.85449,143.94481l0.19935,-2.97033l3.87241,0.2599l-0.19935,2.97033z"/></g></g><g><g><path d="M268.68969,143.53104l0.19935,-2.97033l3.87241,0.2599l-0.19935,2.97033z"/><path d="M262.40627,143.10933l0.19935,-2.97033l3.87241,0.2599l-0.19935,2.97033z"/></g><g><path d="M256.35998,142.70352l0.19935,-2.97033l3.87241,0.2599l-0.19935,2.97033z"/><path d="M250.07659,142.28178l0.19935,-2.97033l3.87241,0.2599l-0.19935,2.97033z"/></g></g></g></g><g><g fill="#685d63" stroke-width="0"><g><g><path d="M243.87142,141.8653l0.19935,-2.97033l3.87241,0.2599l-0.19935,2.97033z"/><path d="M237.58804,141.44358l0.19935,-2.97033l3.87241,0.2599l-0.19935,2.97033z"/></g><g><path d="M231.54176,141.03776l0.19935,-2.97033l3.87241,0.2599l-0.19935,2.97033z"/><path d="M225.2584,140.61602l0.19935,-2.97033l3.87241,0.2599l-0.19935,2.97033z"/></g></g><g><g><path d="M219.09355,140.20226l0.19935,-2.97033l3.87241,0.2599l-0.19935,2.97033z"/><path d="M212.81014,139.78053l0.19935,-2.97033l3.87241,0.2599l-0.19935,2.97033z"/></g><g><path d="M206.76384,139.37471l0.19935,-2.97033l3.87241,0.2599l-0.19935,2.97033z"/><path d="M200.48043,138.95298l0.19935,-2.97033l3.87241,0.2599l-0.19935,2.97033z"/></g></g></g><g><g fill="#685d63" stroke-width="0"><g><path d="M200.24335,138.93707l0.19935,-2.97033l3.87241,0.2599l-0.19935,2.97033z"/><path d="M193.95995,138.51533l0.19935,-2.97033l3.87241,0.2599l-0.19935,2.97033z"/></g><g><path d="M187.91364,138.10954l0.19935,-2.97033l3.87241,0.2599l-0.19935,2.97033z"/><path d="M181.63028,137.6878l0.19935,-2.97033l3.87241,0.2599l-0.19935,2.97033z"/></g></g><g fill="none" stroke-width="1" font-family="sans-serif" font-weight="normal" font-size="12" text-anchor="start"><g/><g/></g></g></g><path d="M173.45481,136.88933l2.87301,-2.54964l3.04841,0.2046l-0.18325,2.73018z" data-paper-data="{&quot;index&quot;:null}" fill="#685d63" stroke-width="0"/></g><path d="M228.03579,173.51311l-2.56423,0.09854c0,0 1.84709,-2.44935 11.49621,-2.93193c7.31547,-0.36588 27.92045,-0.29731 40.25307,-0.21703c5.72697,0.03727 62.70476,-5.16064 62.70476,-5.16064l5.18808,0.33386c0,0 -62.29001,6.48789 -68.01117,6.42771c-12.65112,-0.13307 -33.92539,-0.32098 -40.099,-0.15555c-3.36065,0.09005 -8.96771,1.60507 -8.96771,1.60507z" fill="#70475c" stroke-width="0"/><path d="M327.44542,199.25576l-5.03636,1.51193l1.2685,-18.88883c0,0 7.77073,0.57006 15.37034,1.12756c21.81625,1.60043 126.66662,9.29229 126.66662,9.29229l-0.45051,6.71216z" fill="#5a5959" stroke-width="0"/><path d="M326.42334,200.81926l1.28978,-2.92626l137.57034,1.00949l-12.55037,10.39445z" fill="#4b4a4a" stroke-width="0"/><path d="M449.46739,208.88819c0,0 -5.67704,-3.61301 -8.60704,-5.24097c-1.57026,-0.87246 -7.60655,-3.76749 -7.60655,-3.76749c0,0 7.78905,3.43306 11.06266,4.60286c1.16831,0.41748 2.23963,1.23387 3.50538,1.84814c0.40812,0.19806 2.41224,-2.4328 4.42171,-4.01615c0.60061,-0.47325 1.73383,-0.03181 2.2802,-0.32669c1.25251,-0.67601 1.68378,-1.74091 1.68378,-1.74091c0,0 0.27447,0.95008 -1.02303,2.07947c-0.354,0.30817 -2.17648,0.53895 -2.52532,0.87672c-1.39808,1.3537 -2.50473,2.88211 -2.84874,3.45152c-0.96008,1.58909 1.11707,2.33149 1.11707,2.33149z" fill="#414040" stroke-width="0"/><path d="M166.23073,158.35672l4.54989,-10.81837l7.03218,-0.15372c0,0 -1.12585,2.57861 -1.7894,4.09831c-0.16712,0.38276 11.7315,-0.77917 12.03778,-0.08609c0.56829,1.28593 -5.24311,4.66419 -5.66041,5.62c-0.47708,1.09266 -9.1885,0.90467 -9.1885,0.90467z" fill="#303030" stroke-width="0"/><path d="M166.11228,157.9779l4.38971,-9.99215c0,0 2.90607,1.50259 2.84011,2.48537c-0.12002,1.78816 -2.08306,7.45657 -2.08306,7.45657z" fill="#252525" stroke-width="0"/><path d="M322.21316,203.41626l0.19771,-2.94577l5.70912,-2.57585l-1.43305,2.86285c0,0 -1.17737,1.25927 -1.96419,1.72687c-0.69233,0.41145 -2.5096,0.93189 -2.5096,0.93189z" fill="#383838" stroke-width="0"/><g><g fill="#4b4b4b" stroke-width="0"><g data-paper-data="{&quot;origPos&quot;:null}"><g data-paper-data="{&quot;origPos&quot;:null}"><path d="M389.11185,209.28042l0.1522,-2.26764l3.74159,0.25112l-0.1522,2.26764z" data-paper-data="{&quot;origPos&quot;:null}"/><path d="M382.8835,208.74848l0.1522,-2.26764l3.74159,0.25112l-0.1522,2.26764z" data-paper-data="{&quot;origPos&quot;:null}"/></g><g data-paper-data="{&quot;origPos&quot;:null}"><path d="M401.5762,210.23089l0.1522,-2.26764l3.74159,0.25112l-0.1522,2.26764z" data-paper-data="{&quot;origPos&quot;:null}"/><path d="M395.34782,209.69896l0.1522,-2.26764l3.74159,0.25112l-0.1522,2.26764z" data-paper-data="{&quot;origPos&quot;:null}"/></g></g><g data-paper-data="{&quot;origPos&quot;:null,&quot;index&quot;:null}"><g data-paper-data="{&quot;origPos&quot;:null}"><path d="M420.75286,211.29022l0.1522,-2.26764l3.74159,0.25112l-0.1522,2.26764z" data-paper-data="{&quot;origPos&quot;:null}"/><path d="M426.99642,211.59538l0.15219,-2.26763l3.74159,0.25112l-0.15219,2.26763z" data-paper-data="{&quot;origPos&quot;:null}"/></g><g data-paper-data="{&quot;origPos&quot;:null}"><path d="M408.27332,210.56649l0.1522,-2.26764l3.74159,0.25112l-0.1522,2.26764z" data-paper-data="{&quot;origPos&quot;:null}"/><path d="M414.51689,210.87166l0.1522,-2.26764l3.74159,0.25112l-0.1522,2.26764z" data-paper-data="{&quot;origPos&quot;:null}"/></g></g></g><path d="M347.03817,198.19282l0.91148,-13.58055l84.28438,5.65702l-0.91148,13.58055z" data-paper-data="{&quot;origPos&quot;:null}" fill="#444444" stroke-width="0"/><path d="M346.82023,202.91108l0.32027,-4.77171l84.03665,5.64038l-0.32027,4.77171z" data-paper-data="{&quot;origPos&quot;:null}" fill="#414141" stroke-width="0"/><path d="M346.75959,204.33443l0.10833,-1.61401l84.02597,5.63965l-0.10833,1.61401z" data-paper-data="{&quot;origPos&quot;:null}" fill="#3f3f3f" stroke-width="0"/><g stroke-width="0"><g data-paper-data="{&quot;origPos&quot;:null}" fill="#5a5a5a"><g data-paper-data="{&quot;origPos&quot;:null}"><path d="M390.20739,201.16981l0.92079,-13.71913l3.56341,0.23918l-0.92079,13.71913z" data-paper-data="{&quot;origPos&quot;:null}"/></g><g data-paper-data="{&quot;origPos&quot;:null}"><path d="M396.2652,201.57641l0.92079,-13.71913l3.56341,0.23918l-0.92079,13.71913z" data-paper-data="{&quot;origPos&quot;:null}"/><path d="M402.50116,201.99497l0.92079,-13.71913l3.56341,0.23918l-0.92079,13.71913z" data-paper-data="{&quot;origPos&quot;:null}"/></g></g><g data-paper-data="{&quot;origPos&quot;:null}" fill="#5a5a5a"><g data-paper-data="{&quot;origPos&quot;:null}"><path d="M409.09347,202.43743l0.92079,-13.71913l3.56341,0.23918l-0.92079,13.71913z" data-paper-data="{&quot;origPos&quot;:null}"/><path d="M415.32943,202.85598l0.92079,-13.71913l3.56341,0.23918l-0.92079,13.71913z" data-paper-data="{&quot;origPos&quot;:null}"/></g><g data-paper-data="{&quot;origPos&quot;:null}"><path d="M421.38725,203.26258l0.92079,-13.71913l3.56341,0.23918l-0.92079,13.71913z" data-paper-data="{&quot;origPos&quot;:null}"/><path d="M427.62321,203.68112l0.92079,-13.71913l3.56341,0.23918l-0.92079,13.71913z" data-paper-data="{&quot;origPos&quot;:null}"/></g></g><path d="M393.83199,201.41309l-1.00615,1.86784l-5.23249,-0.30801l0.51705,-9.78379l2.95907,-5.74241l-0.85198,13.72376z" fill="#3a3a3a"/><path d="M399.88735,201.81954l-1.00615,1.86784l-5.23249,-0.30801l0.51705,-9.78379l2.95907,-5.74241l-0.85198,13.72376z" fill="#3a3a3a"/><path d="M406.0803,202.2352l-1.00615,1.86784l-5.23249,-0.30801l0.51705,-9.78379l2.95907,-5.74241l-0.85198,13.72376z" fill="#3a3a3a"/><path d="M412.75495,202.68318l-1.00615,1.86784l-5.23249,-0.30801l0.51705,-9.78379l2.95907,-5.74241l-0.85198,13.72376z" fill="#3a3a3a"/><path d="M419.01672,203.10345l-1.00615,1.86784l-5.23249,-0.30801l0.51705,-9.78379l2.95907,-5.74241l-0.85198,13.72376z" fill="#3a3a3a"/><path d="M425.00324,203.50527l-1.00615,1.86784l-5.23249,-0.30801l0.51705,-9.78379l2.95907,-5.74241l-0.85198,13.72376z" fill="#3a3a3a"/><path d="M431.27292,203.92607l-1.00615,1.86784l-5.23249,-0.30801l0.51705,-9.78379l2.95907,-5.74241l-0.85198,13.72376z" fill="#3a3a3a"/></g><g stroke-width="0"><g data-paper-data="{&quot;origPos&quot;:null}" fill="#5a5a5a"><g data-paper-data="{&quot;origPos&quot;:null}"><path d="M347.07539,198.2749l0.92079,-13.71913l3.56341,0.23918l-0.92079,13.71913z" data-paper-data="{&quot;origPos&quot;:null}"/></g><g data-paper-data="{&quot;origPos&quot;:null}"><path d="M353.13316,198.68148l0.92079,-13.71913l3.56341,0.23918l-0.92079,13.71913z" data-paper-data="{&quot;origPos&quot;:null}"/><path d="M359.36911,199.10005l0.92079,-13.71913l3.56341,0.23918l-0.92079,13.71913z" data-paper-data="{&quot;origPos&quot;:null}"/></g></g><g data-paper-data="{&quot;origPos&quot;:null}" fill="#5a5a5a"><g data-paper-data="{&quot;origPos&quot;:null}"><path d="M365.96146,199.5425l0.92079,-13.71913l3.56341,0.23918l-0.92079,13.71913z" data-paper-data="{&quot;origPos&quot;:null}"/><path d="M372.19748,199.96104l0.92079,-13.71913l3.56341,0.23918l-0.92079,13.71913z" data-paper-data="{&quot;origPos&quot;:null}"/></g><g data-paper-data="{&quot;origPos&quot;:null}"><path d="M378.25525,200.36762l0.92079,-13.71913l3.56341,0.23918l-0.92079,13.71913z" data-paper-data="{&quot;origPos&quot;:null}"/><path d="M384.49123,200.78617l0.92079,-13.71913l3.56341,0.23918l-0.92079,13.71913z" data-paper-data="{&quot;origPos&quot;:null}"/></g></g><path d="M350.69996,198.51818l-1.00615,1.86784l-2.72651,-0.13981l0.11815,-1.97067z" fill="#3a3a3a"/><path d="M356.75536,198.9246l-1.00615,1.86784l-5.23249,-0.30801l0.51705,-9.78379l2.95907,-5.74241l-0.85198,13.72376z" fill="#3a3a3a"/><path d="M362.94825,199.34024l-1.00615,1.86784l-5.23249,-0.30801l0.51705,-9.78379l2.95907,-5.74241l-0.85198,13.72376z" fill="#3a3a3a"/><path d="M369.62289,199.78824l-1.00615,1.86784l-5.23249,-0.30801l0.51705,-9.78379l2.95907,-5.74241l-0.85198,13.72376z" fill="#3a3a3a"/><path d="M375.88472,200.20853l-1.00615,1.86784l-5.23249,-0.30801l0.51705,-9.78379l2.95907,-5.74241l-0.85198,13.72376z" fill="#3a3a3a"/><path d="M381.87125,200.61032l-1.00615,1.86784l-5.23249,-0.30801l0.51705,-9.78379l2.95907,-5.74241l-0.85198,13.72376z" fill="#3a3a3a"/><path d="M388.14095,201.03113l-1.00615,1.86784l-5.23249,-0.30801l0.51705,-9.78379l2.95907,-5.74241l-0.85198,13.72376z" fill="#3a3a3a"/></g><g><g data-paper-data="{&quot;origPos&quot;:null}"><g data-paper-data="{&quot;origPos&quot;:null}" fill="none" stroke-width="1" font-family="sans-serif" font-weight="normal" font-size="12" text-anchor="start"/><g data-paper-data="{&quot;origPos&quot;:null}" fill="#4b4b4b" stroke-width="0"><path d="M352.94467,207.04393l0.1522,-2.26764l3.74159,0.25112l-0.1522,2.26764z" data-paper-data="{&quot;origPos&quot;:null}"/><path d="M346.71632,206.51201l0.1522,-2.26764l3.74159,0.25112l-0.1522,2.26764z" data-paper-data="{&quot;origPos&quot;:null}"/></g></g><g data-paper-data="{&quot;origPos&quot;:null,&quot;index&quot;:null}" fill="#4b4b4b" stroke-width="0"><g data-paper-data="{&quot;origPos&quot;:null}"><path d="M372.12135,208.10324l0.1522,-2.26764l3.74159,0.25112l-0.1522,2.26764z" data-paper-data="{&quot;origPos&quot;:null}"/><path d="M378.36492,208.40837l0.15219,-2.26763l3.74159,0.25112l-0.15219,2.26763z" data-paper-data="{&quot;origPos&quot;:null}"/></g><g data-paper-data="{&quot;origPos&quot;:null}"><path d="M359.64175,207.37955l0.1522,-2.26764l3.74159,0.25112l-0.1522,2.26764z" data-paper-data="{&quot;origPos&quot;:null}"/><path d="M365.8853,207.68466l0.1522,-2.26764l3.74159,0.25112l-0.1522,2.26764z" data-paper-data="{&quot;origPos&quot;:null}"/></g></g></g></g><path d="M178.989,157.61546l1.31956,-4.13606c0,0 4.8115,-2.83162 8.34474,-2.74483c4.03922,0.09922 33.93919,2.13105 33.93919,2.13105c0,0 0.5349,1.91586 0.4006,3.12679c-0.17305,1.56011 -2.48957,4.47615 -2.48957,4.47615z" fill="#242424" stroke-width="0"/><path d="M204.07414,155.48055l0.21098,-3.14326l17.96139,1.20553l-0.21098,3.14326z" fill="#313131" stroke-width="0"/><path d="M200.65844,157.18627l0.04367,-0.65077c0,0 1.13586,-0.97728 2.15664,-0.90877c0.96931,0.06505 3.1206,0.68545 5.55605,1.01267c4.6395,0.62331 10.2485,1.10165 10.2485,1.10165l-0.04367,0.65077c0,0 -5.41595,-0.36554 -9.9905,-0.98391c-2.49607,-0.33743 -4.72108,-1.05701 -5.72662,-1.12448c-1.05691,-0.07092 -2.244,0.9029 -2.244,0.9029z" fill="#616161" stroke-width="0"/><path d="M228.78281,143.32759l12.46211,3.86984l30.42576,7.36214c0,0 0.7165,0.27278 -7.31516,-0.9962c-2.73224,-0.43168 -13.23893,-2.74952 -22.31359,-5.2657c-2.45549,-0.68086 -15.52919,-5.00688 -15.52919,-5.00688z" fill="#df8cb7" stroke-width="0"/><path d="M47.67763,137.52275l0.39734,-5.91979c0,0 5.87452,-1.36261 9.6698,-1.1079c3.10709,0.20853 11.33573,4.27465 11.33573,4.27465l-0.95629,12.23419z" fill="#626061" stroke-width="0"/><path d="M162.80796,155.25829l3.61996,2.75461l12.30827,-0.50003l50.63104,3.39827l-0.07307,1.08859c0,0 -37.97102,-2.69412 -49.86531,-3.22962c-3.26555,-0.14703 -12.99145,-0.07732 -12.99145,-0.07732z" fill="#ffa6d4" stroke-width="0"/><path d="M40.52046,201.11653l0.48012,-7.15348l24.48881,-15.024l-2.51901,13.53056l-14.5189,9.17924z" fill="#3f3d3e" stroke-width="0"/><path d="M39.23287,195.95858c0,0 1.5032,-19.59516 2.94882,-29.10302c1.63164,-10.73108 6.35067,-32.05909 6.35067,-32.05909c0,0 8.60794,0.38798 12.07172,2.26996c2.96453,1.61071 7.44739,8.3354 7.44739,8.3354l-2.24685,33.47626c0,0 -12.7475,12.87334 -15.93684,14.92351c-4.90576,3.15346 -10.63489,2.15699 -10.63489,2.15699z" fill="#555354" stroke-width="0"/><path d="M47.67219,145.36101c0,0 -1.13539,-6.0826 1.10673,-8.63538c2.24212,-2.55282 6.65004,-3.27619 9.2046,-3.10472c2.03782,0.13676 6.24971,0.49838 8.8181,5.13931c2.56837,4.6409 0.20643,11.16748 0.20643,11.16748c0,0 -5.58894,-10.80222 -8.1111,-11.39787c-3.559,-0.84052 -11.22474,6.83127 -11.22474,6.83127z" fill="#6f6b6c" stroke-width="0"/><path d="M37.45684,200.72216c0,0 3.45602,-25.88921 4.2224,-37.3073c0.79809,-11.89104 1.97172,-32.5773 1.97172,-32.5773c0,0 1.19668,-0.56408 2.23516,-0.49437c0.94958,0.06372 2.46987,0.81019 2.46987,0.81019c0,0 -1.49663,19.09792 -2.21282,29.76875c-0.83212,12.39756 -5.2643,40.02975 -5.2643,40.02975z" fill="#333232" stroke-width="0"/><path d="M36.99735,201.13591l2.07668,-14.60194c0,0 0.99329,0.95757 1.59399,0.95911c0.75846,0.00196 2.52797,-1.32 2.52797,-1.32l-2.23844,15.22864z" fill="#2e2d2d" stroke-width="0"/><path d="M65.1299,166.68279c-0.54675,8.14631 -5.2422,16.51858 -9.79368,19.14708c-3.78017,2.18306 -11.71453,8.42364 -11.16778,0.27734c0.11599,-1.7282 2.95097,-13.44401 3.54991,-20.44944c0.79206,-9.26458 -0.51641,-14.34457 0.62889,-17.10564c2.07092,-4.99253 7.68085,-6.09883 9.8904,-5.95053c4.35544,0.29232 7.43905,15.93489 6.89226,24.08117z" fill="#585758" stroke-width="0"/><path d="M98.57119,183.04196l-0.47469,-1.77651c0,0 8.01236,-0.8158 14.04921,-0.89586c8.49858,-0.11271 32.13248,0.28342 32.13248,0.28342l1.7061,1.39857c0,0 -25.16276,-0.06484 -33.90834,0.11783c-2.56845,0.05366 -13.50477,0.87253 -13.50477,0.87253z" fill="#585657" stroke-width="0"/><path d="M91.81003,195.81836l6.09498,-13.31313l7.28971,-0.46351c0,0 -2.02305,4.18741 -1.98752,4.94666c0.16974,3.62781 1.55493,27.74175 1.55493,27.74175c0,0 -1.50362,0.34048 -2.56474,-1.61049c-1.90392,-3.50064 -3.27582,-10.47019 -4.88318,-12.68545c-1.38872,-1.91397 -5.50419,-4.6158 -5.50419,-4.6158z" fill="#5a5759" stroke-width="0"/><path d="M106.37422,165.92253l3.64138,-11.11443l2.33554,0.04539l-4.76488,11.26174z" fill="#a5a0a2" stroke-width="0"/><path d="M113.22124,165.29615l0.09396,-1.39961l26.43679,1.77441l-0.09396,1.39961z" fill="#494748" stroke-width="0"/><path d="M113.33979,162.32613l0.09396,-1.39961l26.43679,1.77441l-0.09396,1.39961z" fill="#494748" stroke-width="0"/><path d="M92.44939,183.38213l1.34861,-20.09313l12.86386,-8.77447l4.85456,0.01338l-19.10632,41.62749l-5.46446,-2.37466z" fill="#dbd5d8" stroke-width="0"/><path d="M65.21244,193.4953l0.63206,-11.77491l26.64754,0.99723c0,0 0.15962,2.55415 -0.02378,3.34214c-0.45707,1.96427 -2.92444,8.75207 -2.92444,8.75207z" fill="#ccc6c9" stroke-width="0"/><path d="M69.75659,182.38425l0.02114,-0.3151l22.82393,0.66148l-2.67886,1.00714c0,0 -4.3244,-0.10363 -7.02491,-0.31668c-3.69769,-0.29174 -13.14131,-1.03685 -13.14131,-1.03685z" fill="#d8d1d5" stroke-width="0"/><path d="M73.51438,178.89128l1.13843,-16.96182l16.08881,1.07985l-1.13843,16.96182z" fill="#a39999" stroke-width="0"/><path d="M64.92518,193.64616l0.76071,-11.33382c0,0 8.3893,6.96412 12.50963,9.58653c4.12034,2.62242 10.62567,2.77843 10.62567,2.77843z" fill="#b4afb1" stroke-width="0"/><path d="M98.08817,201.92822c0,0 2.95298,1.24106 4.05628,1.17101c0.67776,-0.04302 1.93382,-1.55123 1.93382,-1.55123l1.0472,9.16388l-0.28093,4.18571c0,0 -1.95954,0.18064 -3.06278,-2.48182c-0.91027,-2.19672 -3.6936,-10.48755 -3.6936,-10.48755z" fill="#504e4f" stroke-width="0"/><path d="M92.07657,196.39384l17.22455,-40.68142l1.72594,0.32143l-17.14968,41.09763z" fill="#858183" stroke-width="0"/><path d="M78.00749,154.60185l1.62189,-1.54535c0,0 27.39717,1.19349 39.77961,2.0246c10.74711,0.72132 31.84957,2.49147 31.84957,2.49147l0.39826,1.97249c0,0 -21.20218,-2.1306 -32.53032,-2.89093c-12.93526,-0.86821 -41.11903,-2.05229 -41.11903,-2.05229z" fill="#918b8e" stroke-width="0"/><path d="M79.10585,153.44207l2.14933,-1.80151c0,0 25.85384,1.38148 38.23628,2.21257c10.74711,0.72132 31.84957,2.49147 31.84957,2.49147l0.39826,1.97249c0,0 -21.20218,-2.1306 -32.53032,-2.89093c-12.93526,-0.86821 -40.10314,-1.9841 -40.10314,-1.9841z" fill="#a59fa2" stroke-width="0"/><path d="M142.17753,178.50813l-1.54064,-5.79882c0,0 0.29186,-1.18813 0.63166,-1.27842c0.29938,-0.07955 1.30128,0.76486 1.30128,0.76486l1.54063,5.79882c0,0 -0.33428,0.85716 -0.63436,0.93689c-0.33939,0.09018 -1.29857,-0.42334 -1.29857,-0.42334z" fill="#494242" stroke-width="0"/><path d="M101.81596,178.45374l4.17014,-9.22718l3.87697,0.26022l-4.17014,9.22718z" fill="#9c989a" stroke-width="0"/><path d="M112.55214,161.35818l1.91137,-0.84185l24.38276,1.65463l1.94991,1.08293z" fill="#757274" stroke-width="0"/><path d="M112.45801,164.16951l1.91137,-0.84185l24.38276,1.65463l1.94991,1.08293z" fill="#757274" stroke-width="0"/><path d="M62.57576,192.50328l5.59779,-57.91284l1.87711,0.70803l-5.08036,58.34966z" fill="#686666" stroke-width="0"/><path d="M62.39465,192.76206l1.74173,-16.1754l2.03022,3.9633l-1.32675,13.25097z" fill="#535252" stroke-width="0"/><path d="M94.60335,171.99765c0,0 2.27634,-2.19795 2.33975,-3.14263c0.06222,-0.92701 -1.9628,-2.47346 -1.9628,-2.47346c0,0 2.95049,0.86925 2.73341,2.54678c-0.16534,1.27776 -1.36011,3.3915 -1.52112,4.48554c-0.45781,3.11078 -1.63692,10.39553 -1.63692,10.39553z" fill="#c4bec1" stroke-width="0"/><path d="M102.39009,170.60435l2.59012,-10.04449l2.83473,-4.17383l-3.28917,9.35893z" fill="#aca7a9" stroke-width="0"/></g></g><g stroke-width="0"><path d="M222.0476,150.74243l2.77216,-3.15065c0,0 1.8996,-1.31206 2.70425,-0.98246c0.91748,0.37582 2.5067,3.11695 2.5067,3.11695l-0.81411,4.03649c0,0 -4.27111,-0.29423 -5.52563,-0.51203c-0.56553,-0.09818 -1.64341,-2.50832 -1.64341,-2.50832z" fill="#c0c0c0"/><path d="M178.57881,157.49774c0,0 0.01678,-2.88535 1.14981,-3.95075c1.41991,-1.33514 7.63435,-3.13522 7.63435,-3.13522l-1.02622,4.67887l-0.19564,2.91465z" fill="#838383"/><path d="M178.41199,157.41201l8.58757,-6.92177l37.47801,2.51545l-0.50101,7.46449z" fill="#999999"/><path d="M179.45271,156.82395l6.53705,-5.41551l33.6965,2.26165l-0.39116,5.828c0,0 -4.07842,-0.27373 -9.32483,-0.62587c-3.41098,-0.22895 -7.2446,-1.55064 -10.84314,-1.79218c-3.86036,-0.25911 -7.43957,0.56508 -9.60787,0.41954c-4.24361,-0.28483 -10.06657,-0.67564 -10.06657,-0.67564z" fill="#2e2e2e"/><path d="M182.93724,157.05563l8.7454,-5.3296l12.43612,0.83468c0,0 -7.48725,1.40914 -9.9133,2.1629c-2.57552,0.80022 -5.9218,2.69086 -5.9218,2.69086z" fill="#a5899d"/><path d="M190.916,157.47814c0,0 5.13883,-0.62939 7.59042,-0.46485c3.13254,0.21025 9.66764,1.62317 9.66764,1.62317l-9.60995,-0.98095z" fill="#adadad"/><path d="M178.51753,157.40091l7.75539,-6.24632l34.88818,2.34164l-0.04611,0.68701c0,0 -30.20882,-2.02758 -34.1466,-2.29185c-0.82364,-0.05528 -8.45086,5.50952 -8.45086,5.50952z" fill="#8a8a8a"/><path d="M225.16133,166.78134l0.65329,-9.73347l1.13159,-7.14214c0,0 1.15304,0.54837 1.66799,1.14768c0.51494,0.59932 0.82201,1.75029 0.82201,1.75029l-2.26639,14.11245z" fill="#9e9e9e"/><path d="M220.00534,162.19498c0,0 -0.76739,-2.18119 -0.79737,-3.77593c-0.04036,-2.14748 1.18281,-7.596 1.18281,-7.596l1.95885,-0.19461c0,0 0.70412,0.84084 1.19094,0.72401c0.67115,-0.16106 2.46359,-1.60097 2.46359,-1.60097l-1.35986,12.75486z" fill="#9c9c9c"/><path d="M220.45538,164.06c-0.70668,-1.15435 -0.37482,-2.50828 -0.37482,-2.50828l5.34892,-6.85756c0,0 1.1304,3.96843 1.06901,4.8828c-0.17447,2.5997 0.51168,7.4061 0.51168,7.4061c0,0 -2.97901,-0.11602 -3.98619,-0.62325c-1.20795,-0.60833 -1.86194,-1.14548 -2.56861,-2.29984z" fill="#888888"/><path d="M222.28396,163.40675c-0.85213,-2.06146 -1.56151,-6.58214 0.55064,-10.51631c2.11215,-3.93417 4.37834,-1.64609 4.37834,-1.64609c0,0 0.70803,4.48044 0.55315,6.78811c-0.1411,2.10211 -1.44496,6.49882 -1.44496,6.49882c0,0 -3.18507,0.93692 -4.03719,-1.12452z" fill="#b4b4b4"/><path d="M226.95176,156.00743c-0.09451,1.40791 -5.19816,1.14294 -5.10367,-0.26495c0.09451,-1.40791 3.50815,-6.59311 4.31873,-6.5387c0.31394,0.02108 0.94953,0.1658 1.07453,1.23727c0.19778,1.6951 -0.23174,4.70376 -0.2896,5.5664z" fill="#bbbbbb"/></g><g stroke-width="0"><path d="M162.71284,155.23672c0,0 -5.51412,-5.29849 -5.38867,-7.1677c0.10244,-1.52622 6.13336,-1.24484 6.13336,-1.24484l7.52353,0.57699l-4.73696,10.48529z" fill="#f399c8"/><path d="M132.14533,154.83047c0,0 -0.82743,-2.15811 -0.4989,-3.21118c0.36256,-1.16216 2.65965,-4.62099 2.65965,-4.62099l22.99886,1.35755l8.52823,9.21498z" fill="#ee96c3"/></g></g><g stroke-width="0"><g><path d="M228.74027,141.54406l0.41398,-6.16795l47.71083,3.20227l-0.41398,6.16795z" fill="#61585b"/><path d="M228.79457,138.29687l0.22167,-3.30293l47.89226,3.21443l-0.22167,3.30293c0,0 -8.62147,-0.57866 -17.47791,-1.17309c-2.76903,-0.18585 -6.76358,1.06671 -9.32223,0.89496c-3.04256,-0.20421 -6.20402,-1.93704 -8.15567,-2.06805c-5.85213,-0.3928 -12.93641,-0.86827 -12.93641,-0.86827z" fill="#494344"/><path d="M290.92548,135.84691l-8.0445,-19.51547l20.87229,1.40092l14.27059,17.76986c0,0 -5.78853,0.97594 -9.03058,1.01719c-5.0028,0.06365 -18.06782,-0.67246 -18.06782,-0.67246z" fill="#5e555b"/><path d="M290.69752,139.27443l0.37091,-5.52605c0,0 12.36821,-0.62626 17.30157,-1.07653c3.91526,-0.35736 6.75359,-0.7502 6.75359,-0.7502l5.46139,7.32094c0,0 -5.42735,1.23546 -9.59561,1.40062c-5.64786,0.22376 -20.2918,-1.36873 -20.2918,-1.36873z" fill="url(#color-5)"/><path d="M281.17928,116.37636l0.26762,-3.98719l19.10851,1.28255l3.36059,4.23073z" fill="url(#color-6)"/><path d="M290.11341,139.26023l0.08431,-1.2564c0,0 15.57976,0.96912 20.96542,1.16267c4.02712,0.14475 8.54326,-1.13251 8.54326,-1.13251l0.81024,1.2017l-8.34175,1.50527z" fill="#312c30"/><g><path d="M190.03042,121.91835l0.36729,-8.85364l93.71448,6.28996l6.86786,11.76815z" fill="#8a6672"/><path d="M205.9777,131.29302c0,0 -3.27017,-3.83337 -5.97065,-5.47953c-2.70049,-1.64614 -9.76175,-1.88211 -9.76175,-1.88211l0.25173,-2.07489c0,0 12.27712,1.10106 19.2843,1.66677c16.73918,1.35144 80.71658,6.40682 80.71658,6.40682l3.17529,6.79493z" fill="#755761"/><path d="M208.65301,133.96908l-2.84505,-2.78858l87.4225,5.37716l0.99643,3.15494z" fill="#694e57"/><path d="M190.20679,113.44895l0.3033,-4.5188l90.64779,5.40324l3.46188,5.90632c0,0 2.52542,3.51505 -2.74727,3.1358c-1.65986,-0.1194 -10.53469,-4.09111 -12.1987,-4.21079c-16.02552,-1.15265 -79.46702,-5.71572 -79.46702,-5.71572z" fill="#916b77"/><path d="M190.75147,108.94641l0.0505,-2.5268l89.71626,5.88255l0.88265,2.45689z" fill="#9e7582"/><path d="M264.66506,114.59277c-8.00633,-1.18678 -72.45586,-6.54717 -72.45586,-6.54717l87.65683,5.88337l4.29168,7.74597c0,0 -11.48634,-5.89543 -19.49265,-7.08219z" fill="#b38f9a"/></g><path d="M239.45573,136.03369l0.61433,-9.15319l20.16685,1.35355l-0.61433,9.15319z" fill="#3a3336"/><path d="M239.98216,126.87876l0.81683,-1.4711l18.49681,1.24147l0.88096,1.58504z" fill="#4b4246"/><path d="M239.62904,135.54479l0.54764,-8.15923c0,0 0.70412,5.32497 3.28201,6.60676c2.5779,1.2818 15.77368,2.8682 15.77368,2.8682z" fill="#332c30"/><path d="M282.28333,118.67931l-3.5094,-6.24905c0,0 1.06529,-0.59669 1.66457,-0.55644c0.66995,0.04497 2.16682,0.81358 2.16682,0.81358l3.5094,6.24905z" fill="#757575"/><path d="M284.97987,123.60555l-5.0449,-8.97023l3.83136,0.25715l5.0449,8.97023z" fill="#5a5a5a"/><path d="M288.78338,130.3243l-5.0449,-8.97023l3.83136,0.25715l5.0449,8.97023z" fill="#505050"/><path d="M292.71523,137.28294c-0.86165,-1.53209 -4.22372,-7.51006 -4.22372,-7.51006l3.83136,0.25715l5.90751,10.74625c0,0 -2.08706,0.39661 -3.03344,0.31825c-0.7382,-0.06115 -2.10178,-3.13604 -2.48171,-3.81161z" fill="#3b3b3b"/><path d="M188.31779,124.40741l1.25059,-18.63281l3.17382,0.21304l-1.25059,18.63281z" fill="#443e42"/><path d="M169.37694,124.73869l-0.28719,-5.96061l20.18315,1.35466l-0.39698,5.91469z" fill="url(#color-7)"/><path d="M169.04754,119.40729l0.7264,-10.82263l20.18315,1.35466l-0.7264,10.82263z" fill="#5e555b"/><path d="M169.76547,108.71064l1.07695,-4.09931l19.38495,1.30109l-0.27872,4.15288z" fill="url(#color-8)"/><path d="M240.17376,109.46241l0.41073,-6.11954l14.91705,2.07027l4.29634,5.01005z" fill="#5e555b"/><path d="M259.77414,110.77795l-4.2785,-5.27615c0,0 2.96316,0.89106 5.11954,2.0363c2.1564,1.14523 5.63325,3.67437 5.63325,3.67437z" fill="#776b73"/><path d="M237.08093,110.41297l3.27614,-1.02735l25.56038,1.44831l3.53506,1.75177z" fill="#6d6269"/></g><g><path d="M241.16491,132.16935c0.08366,-1.246 0.67029,-2.36597 1.12697,-3.36721c0.63634,-1.39516 1.31702,-2.53996 2.66457,-3.29762c0.8231,-0.46278 1.98387,-0.77514 2.98668,-0.94876c0.66326,-0.11479 1.68698,-0.44706 2.38842,-0.40001c1.59013,0.10672 1.92621,0.2112 3.04011,0.78312c0.67101,0.34452 2.27669,0.9024 2.76549,1.60883c0.41369,0.5979 0.82492,1.57621 1.1203,2.2772c0.50483,1.19797 1.18065,3.11203 1.08764,4.49754c-0.03931,0.58553 -0.61977,1.88802 -0.70386,2.399c-0.2669,1.62222 -0.30177,2.13063 -1.58643,3.15036c-0.78082,0.61978 -2.32138,1.06543 -3.33038,1.40862c-1.04499,0.35541 -2.37595,1.13408 -3.546,1.05556c-0.78972,-0.05301 -2.17878,-0.68242 -2.93472,-0.86968c-1.64005,-0.4062 -2.51846,-0.64001 -3.46928,-1.84655c-0.81535,-1.03468 -0.9684,-2.64688 -1.24088,-4.02582c-0.14315,-0.72444 -0.42048,-1.65276 -0.36869,-2.42464z" fill="#3a3a3a"/><path d="M241.90223,132.09996c0.07653,-1.14022 0.6134,-2.16508 1.03128,-3.08132c0.58232,-1.27673 1.2052,-2.32431 2.43834,-3.01762c0.75321,-0.4235 1.81544,-0.70935 2.73314,-0.86818c0.60696,-0.10507 1.54374,-0.4091 2.18562,-0.36603c1.45512,0.09766 1.76265,0.19326 2.782,0.7166c0.61401,0.31527 2.08341,0.82576 2.53068,1.47222c0.37856,0.54717 0.75487,1.44239 1.02518,2.08383c0.46197,1.09626 1.0804,2.84782 0.99529,4.11568c-0.03595,0.5358 -0.56714,1.72771 -0.64409,2.19529c-0.24423,1.48449 -0.27616,1.94972 -1.45171,2.8829c-0.71453,0.56718 -2.12424,0.97497 -3.04761,1.28903c-0.95627,0.32524 -2.17422,1.03782 -3.24492,0.96592c-0.72266,-0.0485 -1.99382,-0.62448 -2.68555,-0.79581c-1.5008,-0.37173 -2.30461,-0.58566 -3.17472,-1.6898c-0.74614,-0.94682 -0.88618,-2.42212 -1.13552,-3.68402c-0.13098,-0.66295 -0.38479,-1.51243 -0.3374,-2.21877z" fill="#5a5a5a"/><path d="M254.37018,128.3972c-1.88058,-2.51737 -6.94919,-3.05862 -6.94919,-3.05862c0,0 1.97408,-0.40873 3.9593,-0.26854c1.60809,0.11354 3.1525,0.58249 4.22232,1.95824c1.07067,1.37686 1.36425,2.88459 1.55696,4.29612c0.37783,2.76751 -0.21925,5.1256 -0.21925,5.1256c0,0 -0.68956,-5.53545 -2.57014,-8.05279z" fill="#6d6d6d"/><path d="M248.71908,133.04808c0.03856,-0.57444 0.53546,-1.00882 1.10989,-0.97028c0.57444,0.03856 1.00882,0.53546 0.97028,1.10989c-0.03856,0.57444 -0.53546,1.00882 -1.10989,0.97028c-0.57444,-0.03856 -1.00882,-0.53546 -0.97028,-1.10989z" fill="#272727"/><path d="M248.63109,133.1793c0.03537,-0.52686 0.49112,-0.92527 1.01797,-0.88992c0.52686,0.03537 0.92527,0.49112 0.88992,1.01797c-0.03537,0.52686 -0.49112,0.92527 -1.01797,0.88992c-0.52686,-0.03537 -0.92527,-0.49112 -0.88992,-1.01797z" fill="#131313"/></g></g></g></g></g><path d="M152.60418,236.86942c0.10613,-1.58113 -1.28828,-44.39662 -0.68186,-46.03482c0.81877,-2.21191 9.19043,-0.29633 12.24893,-1.60226c9.36703,-3.99959 19.46521,-7.91921 19.46521,-7.91921c0,0 13.99789,1.52131 18.22487,1.80499c3.16102,0.21216 66.42767,-4.82842 66.47622,5.51962c0.06584,14.03587 -44.09642,0.10456 -44.90877,12.20796c-0.20566,3.06404 2.18556,3.42047 1.41038,6.52273c-0.18604,0.74456 -2.87933,5.75433 -3.21539,7.41161c-0.53347,2.63073 2.4862,6.84493 -1.02407,9.71556c-2.79817,2.28831 -1.20651,7.42329 -1.92525,8.5934c-4.95294,8.06337 -13.00834,3.70973 -22.00098,3.10617c-10.66202,-0.71563 -26.4266,1.95802 -35.70622,0.09506c-4.00566,-0.80417 -8.67196,5.18162 -8.36306,0.57924z" fill="#86c8f5" stroke-width="0"/><g><g><path d="M147.32341,254.01363l0.37381,-5.56939c0,0 2.22439,0.32772 3.14157,-0.57654c1.2958,-1.27757 4.10815,-6.24021 4.10815,-6.24021l0.09026,8.11803c0,0 -3.28742,2.98502 -4.8825,3.77742c-1.15164,0.57209 -2.83131,0.49066 -2.83131,0.49066z" fill="#4d484c" stroke-width="0"/><g><g fill="none" stroke-width="1" font-family="sans-serif" font-weight="normal" font-size="12" text-anchor="start"/><g stroke-width="0"><g><path d="M105.51119,229.30237l-2.29676,-41.05248l8.38248,0.5626l2.29676,41.05248z" fill="#a59da1"/><path d="M103.16646,188.43765c0,0 -0.47245,-4.53401 1.40719,-5.6925c1.87964,-1.15852 6.96737,-1.07085 6.96737,-1.07085l0.02161,7.32688z" fill="#b9b0b5"/><path d="M106.57435,240.04274l-1.00283,-10.76415l8.34243,0.55994l1.00283,10.76415z" fill="#8b8488"/></g><g><path d="M145.84009,228.60475l-2.29675,-41.05247l4.52898,0.30398l2.29676,41.05247z" fill="#a59da1"/><path d="M143.63562,188.55807l-0.38157,-6.48131c0,0 2.97371,-0.48236 3.94987,0.73546c0.97618,1.21781 0.83409,5.23273 0.83409,5.23273z" fill="#b9b0b5"/><path d="M146.89077,239.34438l-1.00283,-10.76415l4.50142,0.30211l1.00284,10.76415z" fill="#8b8488"/></g><path d="M106.95717,248.66372c0,0 -3.07917,-2.95562 -3.37652,-4.4635c-0.33099,-1.67855 1.48059,-5.15087 1.48059,-5.15087l47.85464,-1.19285c0,0 1.85329,2.46352 2.17432,3.97475c0.44996,2.11822 -4.07935,6.73986 -4.07935,6.73986z" fill="#494547"/><path d="M111.60223,185.61839c0,0 -2.27317,-0.72116 -2.66447,-1.32301c-0.42968,-0.66088 0.98918,-2.65293 0.98918,-2.65293c0,0 12.08477,-0.20314 17.37163,-0.17115c6.16329,0.03727 16.58536,0.55255 16.58536,0.55255c0,0 0.44793,1.25673 0.32279,1.84706c-0.12122,0.57173 -0.65977,1.66789 -0.65977,1.66789z" fill="#c2b8bd"/><path d="M107.39326,247.46952c0,0 -1.04215,-2.91163 -1.17148,-4.59967c-0.10734,-1.40093 0.36864,-3.6314 0.36864,-3.6314l45.01687,-1.04448c0,0 1.8127,3.28168 1.70135,4.94065c-0.11963,1.78217 -2.31565,4.21179 -2.31565,4.21179z" fill="#6f696b"/><path d="M118.12681,253.63186l0.3738,-5.56938l29.83408,0.39401l-0.3738,5.56938z" fill="#333032"/><path d="M106.61169,252.9807c-1.06484,-0.72086 -2.64293,-2.29581 -2.64293,-2.29581l-0.41118,-6.86231c0,0 2.31597,2.43294 3.42944,3.87221c0.78811,1.01872 11.56835,0.2596 11.56835,0.2596l-0.3738,5.56938c0,0 -10.50504,0.17776 -11.56988,-0.54308z" data-paper-data="{&quot;index&quot;:null}" fill="#444043"/><g><path d="M109.90694,200.50651c0,0 -2.26139,-4.9046 -2.17093,-6.64464c0.06261,-1.20471 2.66143,-2.79345 2.66143,-2.79345l35.18577,-0.66962c0,0 1.38093,3.22357 1.30011,4.77904c-0.08262,1.58978 -1.7906,4.65901 -1.7906,4.65901z" fill="#979797"/><path d="M110.03166,199.44638c0,0 -2.31874,-4.36231 -2.24983,-5.89896c0.04772,-1.0639 2.62362,-2.43603 2.62362,-2.43603l35.13178,-0.15913c0,0 1.4188,2.86585 1.35717,4.23956c-0.06297,1.40398 -1.73096,4.09546 -1.73096,4.09546z" fill="#a2a2a2"/></g><g><path d="M111.17475,217.16845c0,0 -2.26139,-4.9046 -2.17093,-6.64464c0.06261,-1.20471 2.66143,-2.79345 2.66143,-2.79345l35.18577,-0.66962c0,0 1.38093,3.22357 1.30011,4.77904c-0.08262,1.58978 -1.7906,4.659 -1.7906,4.659z" fill="#979797"/><path d="M111.29945,216.10838c0,0 -2.31873,-4.36231 -2.24982,-5.89896c0.04771,-1.06389 2.62361,-2.43603 2.62361,-2.43603l35.13178,-0.15912c0,0 1.4188,2.86585 1.35717,4.23956c-0.06298,1.40398 -1.73096,4.09546 -1.73096,4.09546z" fill="#a2a2a2"/></g><g><path d="M112.51617,234.33172c0,0 -2.26139,-4.9046 -2.17093,-6.64464c0.06261,-1.20471 2.66143,-2.79345 2.66143,-2.79345l35.18577,-0.66962c0,0 1.38093,3.22357 1.30011,4.77904c-0.08262,1.58978 -1.7906,4.659 -1.7906,4.659z" fill="#7a7a7a"/><path d="M112.64087,233.27166c0,0 -2.31874,-4.36231 -2.24983,-5.89897c0.04771,-1.06389 2.6236,-2.43602 2.6236,-2.43602l35.13179,-0.15913c0,0 1.41879,2.86585 1.35717,4.23956c-0.06298,1.40398 -1.73096,4.09547 -1.73096,4.09547z" fill="#929292"/></g></g></g></g><path d="M105.86082,233.28863c0,0 -0.26972,-1.73842 -0.41911,-4.06424c-0.43857,-6.82846 -2.47045,-40.92709 -2.47045,-40.92709l2.87271,4.50547l1.41767,29.5861z" fill="#777275" stroke-width="0"/></g></g></g></g></svg>