<svg version="1.1" xmlns="http://www.w3.org/2000/svg" xmlns:xlink="http://www.w3.org/1999/xlink" width="466.31258" height="157.6361" viewBox="0,0,466.31258,157.6361"><defs><linearGradient x1="503.81708" y1="188.44792" x2="504.42838" y2="193.22055" gradientUnits="userSpaceOnUse" id="color-1"><stop offset="0" stop-color="#1f1d20"/><stop offset="1" stop-color="#202022"/></linearGradient><linearGradient x1="503.63634" y1="183.57634" x2="504.33965" y2="189.06774" gradientUnits="userSpaceOnUse" id="color-2"><stop offset="0" stop-color="#302d31"/><stop offset="1" stop-color="#1f1e20"/></linearGradient><linearGradient x1="177.67113" y1="273.78751" x2="178.10178" y2="277.15012" gradientUnits="userSpaceOnUse" id="color-3"><stop offset="0" stop-color="#585758"/><stop offset="1" stop-color="#575758"/></linearGradient><linearGradient x1="165.9445" y1="285.45021" x2="166.2826" y2="288.09003" gradientUnits="userSpaceOnUse" id="color-4"><stop offset="0" stop-color="#363536"/><stop offset="1" stop-color="#353536"/></linearGradient><linearGradient x1="296.36" y1="175.18746" x2="297.06363" y2="180.68108" gradientUnits="userSpaceOnUse" id="color-5"><stop offset="0" stop-color="#5e555b"/><stop offset="1" stop-color="#2b2629"/></linearGradient><linearGradient x1="284.056" y1="155.92758" x2="284.56366" y2="159.89136" gradientUnits="userSpaceOnUse" id="color-6"><stop offset="0" stop-color="#72676e"/><stop offset="1" stop-color="#5e555b"/></linearGradient><linearGradient x1="173.78014" y1="184.06359" x2="174.53325" y2="189.94359" gradientUnits="userSpaceOnUse" id="color-7"><stop offset="0" stop-color="#5e555b"/><stop offset="1" stop-color="#4d454a"/></linearGradient><linearGradient x1="171.96958" y1="169.92679" x2="172.49837" y2="174.05535" gradientUnits="userSpaceOnUse" id="color-8"><stop offset="0" stop-color="#74686f"/><stop offset="1" stop-color="#5e555b"/></linearGradient></defs><g transform="translate(-43.00153,-154.94208)"><g data-paper-data="{&quot;isPaintingLayer&quot;:true}" fill-rule="nonzero" stroke="none" stroke-linecap="butt" stroke-linejoin="miter" stroke-miterlimit="10" stroke-dasharray="" stroke-dashoffset="0" style="mix-blend-mode: normal"><g><g stroke-width="0"><path d="M236.65697,251.11881l-12.09675,-13.92131l25.29323,-3.83443c0,0 -0.34907,5.92116 -0.20456,8.62317c0.13982,2.61379 1.05811,7.33308 1.05811,7.33308z" fill="#7f7d7e"/><path d="M236.77952,251.30156l-4.32242,-5.09912c0,0 2.79106,3.22665 6.07909,3.42526c2.36769,0.14301 4.19918,-0.40405 6.89969,-0.42647c2.70047,-0.02244 5.19859,0.32589 5.19859,0.32589z" fill="#6c6a6b"/></g><g><g><g><path d="M501.46151,193.60057l-2.65357,-4.51105c0,0 6.15355,0.88327 8.84327,1.43891c2.68976,0.55568 1.30811,1.87802 1.30811,1.87802z" fill="url(#color-1)" stroke-width="0"/><path d="M507.21723,183.319c0,0 1.76336,2.121 -0.69952,3.33658c-2.46287,1.21562 -5.18705,2.79753 -5.18705,2.79753l-1.66615,-5.36804z" data-paper-data="{&quot;index&quot;:null}" fill="url(#color-2)" stroke-width="0"/><path d="M491.921,194.8178l-0.26658,-2.08139l14.65288,-1.87668c0,0 1.34833,0.6281 1.87872,0.92945c0.47677,0.2709 -0.61011,1.02362 -0.61011,1.02362z" fill="#444444" stroke-width="NaN"/><path d="M491.70608,192.8745l-1.40382,-1.58844l12.51344,-1.60268l3.57513,1.1976c0,0 -4.15347,0.77193 -6.4374,1.08194c-2.5758,0.34964 -8.24736,0.91151 -8.24736,0.91151z" fill="#535353" stroke-width="0"/><path d="M490.20836,191.43587l-0.40344,-0.59355l11.38084,-1.45765l1.73861,0.30734z" fill="#363636" stroke-width="0"/><path d="M491.921,194.8178l-0.1446,-1.12914c0,0 6.45894,-0.36992 9.31537,-0.73579c2.42059,-0.30998 6.7332,-1.31969 6.7332,-1.31969c0,0 0.91583,0.3487 1.18695,0.51854c0.22872,0.14326 -0.18654,0.50101 -0.18654,0.50101c0,0 -4.64303,1.00247 -6.93802,1.29637c-3.09626,0.39655 -9.96644,0.86865 -9.96644,0.86865z" fill="#3a3a3a" stroke-width="NaN"/><path d="M490.12558,190.81969l-0.66126,-0.80623l13.5311,-1.733l-1.69027,1.14159z" fill="#242424" stroke-width="0"/><path d="M488.68683,190.30381l-0.21013,-1.64091c0,0 8.00159,-1.23271 10.97305,-1.61328c2.02448,-0.25929 5.13192,-0.4494 5.13192,-0.4494l-1.60974,1.70769z" fill="#3a3a3a" stroke-width="0"/><path d="M488.35354,188.72153l-0.25948,-2.02599c0,0 7.54938,-1.29946 10.8368,-1.72054c2.84474,-0.36435 7.75244,-0.66032 7.75244,-0.66032l-2.13909,2.33321c0,0 -3.63575,0.3825 -5.86204,0.66768c-2.95919,0.37901 -10.32865,1.40599 -10.32865,1.40599z" fill="#444444" stroke-width="0"/><path d="M488.06206,186.7854l-0.10809,-0.84417c0,0 7.79433,-1.12298 11.36242,-1.57996c2.48451,-0.31822 7.99784,-0.89963 7.99784,-0.89963l-0.74991,0.95408c0,0 -5.0497,0.35569 -7.9909,0.7324c-3.24045,0.41502 -10.51131,1.63729 -10.51131,1.63729z" fill="#535353" stroke-width="0"/><path d="M487.83628,186.04213l-0.04325,-0.33768c0,0 7.54967,-1.47814 10.98202,-1.9177c2.96754,-0.38007 8.421,-0.56736 8.421,-0.56736l0.08052,0.33292c0,0 -5.98115,0.59974 -9.19987,1.01196c-3.26081,0.41764 -10.24038,1.47788 -10.24038,1.47788z" fill="#4e4e4e" stroke-width="0"/></g><g stroke-width="0"><g><g><g><path d="M486.05265,195.07741l-6.21697,-12.4749l0.32986,-1.77764c0,0 3.85687,2.76161 5.08817,5.11463c0.66846,1.27744 2.24172,8.95316 2.24172,8.95316z" fill="#383638"/><path d="M487.00749,194.2581c0,0 -0.01954,-0.61215 -0.95492,-2.96728c-1.02005,-2.56834 -2.86332,-5.99907 -3.38969,-7.01436c-1.18162,-2.27907 -1.94697,-2.31262 -1.94697,-2.31262l4.68721,-1.18691l6.65405,12.83444z" fill="#555355"/><path d="M480.79019,182.04036l-0.73419,-1.15244c0,0 1.90218,-1.0502 2.85602,-1.17233c0.89377,-0.11448 2.11224,0.4627 2.11224,0.4627l0.74338,1.22454z" fill="#686668"/></g><path d="M480.4259,195.79806l-6.21697,-12.47489l0.00426,-1.71566c0,0 4.18248,2.69962 5.41372,5.05259c0.66847,1.27743 2.24173,8.95316 2.24173,8.95316z" fill="#383638"/><path d="M481.38069,194.97871c0,0 -0.01954,-0.61216 -0.95492,-2.96728c-1.02005,-2.56834 -2.86332,-5.99907 -3.38969,-7.01436c-1.18162,-2.27907 -1.94697,-2.31262 -1.94697,-2.31262l3.87977,-1.58757c0,0 1.17714,1.1137 1.5373,1.80835c1.02612,1.97917 5.92425,11.42668 5.92425,11.42668z" fill="#555355"/><path d="M475.1634,182.76094l-0.95059,-1.12473c0,0 2.11862,-1.07786 3.07246,-1.20004c0.89377,-0.11448 1.82369,0.49966 1.82369,0.49966l0.86743,1.20871z" fill="#686668"/><path d="M487.69296,193.16842c-0.10412,-0.81288 0.4705,-1.55623 1.28334,-1.66033c0.81289,-0.10413 1.55623,0.4705 1.66033,1.28334c0.10412,0.81288 -0.4705,1.55623 -1.28333,1.66033c-0.81289,0.10413 -1.55623,-0.4705 -1.66033,-1.28334z" fill="#312f31"/><path d="M487.97113,190.1796l-2.68781,-5.24758l1.56028,-0.34433l2.69603,5.31161z" fill="#444144"/></g><path d="M440.78113,195.8686l-5.10919,-10.25756l29.78967,-2.62926l0.75876,9.62868z" fill="#444444"/><path d="M452.82217,190.37898c0,0 0.56451,-0.5985 1.1406,-1.78623c0.52673,-1.08592 1.05297,-2.74414 1.37558,-3.25297c0.75056,-1.81655 3.16917,-1.65567 3.16917,-1.65567l-0.88868,0.77221l-3.66305,5.7775z" fill="#292929"/><path d="M456.93642,200.46746l-7.85532,-10.05494c0,0 3.53788,0.0825 5.09444,-1.17447c1.20956,-0.97683 0.78178,-3.57549 2.31073,-4.05454c4.38649,-1.37428 17.10162,-3.44021 17.10162,-3.44021c0,0 4.12159,6.67546 5.40806,9.42131c0.88813,1.89567 1.85935,6.23948 1.85935,6.23948z" fill="#4a464a"/><path d="M459.37477,186.93952c-4.60465,-0.0515 -3.34878,-1.58743 -3.34878,-1.58743c0,0 0.62085,-1.39237 2.45449,-1.77457c4.49967,-0.93789 13.14601,-1.46369 14.85102,-1.70789c0.80408,-0.1152 0.43212,0.64613 0.43212,0.64613c0,0 -1.1742,2.55584 -2.67996,3.0048c-1.50584,0.44898 -7.10425,1.47047 -11.70894,1.41897z" fill="#5e595e"/></g><g><path d="M446.06346,208.48907l-7.39799,-17.1345l18.79097,-2.118l5.31046,3.68356l6.03727,-0.87258l4.64849,12.93361z" fill="#4d4846"/><path d="M450.76522,208.27713l19.29579,-11.93956l22.11002,-3.07615c0,0 1.83275,3.98235 2.14664,5.30775c0.16003,0.67577 0.22029,2.93996 0.22029,2.93996z" fill="#423d3b"/><path d="M445.92651,200.51798l-4.40452,-9.36245l0.81385,-0.10421l4.40452,9.36245z" fill="#363332"/><path d="M451.24421,207.40763l-0.15463,-1.20752c0,0 4.89843,-3.19361 13.88987,-4.3452c1.19464,-0.153 5.73191,1.83211 6.93603,1.67792c7.63969,-0.97846 15.1175,-1.93619 17.96232,-2.30054c2.31686,-0.29671 4.51759,-1.88921 4.51759,-1.88921l0.31981,2.49699z" fill="#312e2c"/><path d="M451.97637,194.46962l-2.31582,-4.35645l8.24037,-1.05541l4.68305,3.85765l6.28009,-0.60866l-7.28069,2.89712z" fill="#585350"/><path d="M443.45858,202.64351l-0.14332,-1.11904c0,0 7.50511,-4.73538 10.35897,-5.10092c4.30126,-0.55088 16.17556,-2.0717 16.17556,-2.0717l0.14332,1.11904c0,0 -12.07789,1.54687 -16.37904,2.09781c-2.7953,0.35797 -10.15552,5.07486 -10.15552,5.07486z" fill="#2b2827"/></g></g></g><g><g><g><path d="M116.95621,287.46306c0.82023,2.14714 0.84226,4.75504 -0.20632,5.1556c-1.04859,0.40056 -2.77081,-1.55781 -3.59105,-3.70505c-0.82023,-2.14714 -4.02593,-10.37701 -2.97728,-10.77758c1.04859,-0.40056 5.9545,7.17979 6.7747,9.32701z" fill="#615e5f" stroke-width="0"/><g><path d="M154.40955,252.49275c-0.60198,-0.45481 -3.09039,-1.4592 -3.09039,-1.4592l9.47374,-4.1169l-5.03671,7.90387c0,0 -0.74463,-1.87293 -1.34667,-2.3278z" fill="#756a6a" stroke-width="0"/><path d="M145.24052,251.95598l-1.74466,-13.62206l17.63784,-8.17356l2.48999,19.44123z" fill="#8a7c7c" stroke-width="0"/><path d="M106.22105,262.445l4.30901,-18.83332l34.63337,-4.57011l6.10574,11.98813c0,0 -22.60344,4.48387 -30.11817,6.38815c-3.11947,0.79047 -14.93001,5.02721 -14.93001,5.02721z" fill="#7c787a" stroke-width="0"/><path d="M110.95297,245.98195l-0.33513,-1.45067c0,0 25.71416,-3.29342 33.79795,-4.32874c4.52291,-0.5793 15.20803,-8.37016 15.20803,-8.37016l0.20704,1.61645c0,0 -10.39575,7.73437 -14.77188,8.28012c-8.02417,1.00062 -34.10602,4.25307 -34.10602,4.25307z" fill="#535353" stroke-width="0"/><path d="M74.49138,267.22246l-2.56032,-19.99072c0,0 3.59827,-7.5726 10.49209,-10.77026c8.56238,-3.97161 25.5411,-4.34648 27.59503,-4.60955c1.57611,-0.20187 -11.4797,11.97204 -11.4797,11.97204l2.56032,19.99072z" fill="#8d898b" stroke-width="0"/><path d="M240.17562,199.48255l1.19021,-3.32238l106.71177,-13.52324l1.87335,14.62678c0,0 -37.24008,6.63016 -49.41475,7.76993c-6.04627,0.56605 -60.36064,-5.55113 -60.36064,-5.55113z" fill="#c98cac" stroke-width="0"/><path d="M231.51798,302.41652l-6.15027,-12.25439c0,0 5.83829,5.13944 8.79965,5.84579c1.8868,0.45004 6.12715,0.29187 11.87881,-2.90218c4.63025,-2.57123 9.05698,-8.69406 9.05698,-8.69406l-9.69494,16.22576z" fill="#a08e97" stroke-width="0"/><path d="M315.31437,244.38494l-5.31981,-23.13301l18.21889,-3.74761l2.69285,21.02529c0,0 -6.12717,2.51792 -8.78115,3.56183c-1.22203,0.48065 -6.81072,2.29356 -6.81072,2.29356z" fill="#96858d" stroke-width="0"/><path d="M230.17107,306.36539l-0.70383,-5.49526c0,0 12.22829,0.51929 16.41385,-3.1636c2.03699,-1.79234 16.09298,-24.69608 23.82355,-37.41316c3.01684,-4.96286 5.07044,-8.37429 5.07044,-8.37429c0,0 2.85275,-4.16941 2.4906,-7.02877c-0.1822,-1.43838 -0.24692,-5.64296 -1.36532,-7.82993c-1.12842,-2.20656 -3.30991,-2.38919 -3.30991,-2.38919l-6.55687,-12.84338l19.67372,-2.37488l0.49002,26.72763l4.05318,2.06368c0,0 -8.71538,7.16536 -12.6772,12.66896c-6.19885,8.61108 -25.5386,41.72112 -25.5386,41.72112z" fill="#918189" stroke-width="0"/><path d="M292.36686,247.6796l-2.43004,-28.52631l13.69906,-1.47651l11.80442,10.58836l-0.14904,16.4784z" fill="#96858d" stroke-width="0"/><path d="M288.11385,250.08854l-3.01558,-3.79342l0.18313,-26.42726l5.02796,-0.72935l2.96148,28.44091z" fill="#8f8187" stroke-width="0"/><path d="M314.0801,245.00305c0,0 1.88248,-6.96261 -0.14665,-12.15774c-1.1684,-2.99133 -6.28971,-4.32122 -7.00595,-6.15502c-1.36817,-3.50303 -3.48487,-8.92221 -3.48487,-8.92221l8.34584,3.33071c0,0 4.29501,6.72256 5.4292,10.87364c0.76209,2.78887 0.10041,9.30171 -0.48852,11.99725c-0.04965,0.22724 -1.22687,0.29403 -1.25708,0.46459c-0.07381,0.4166 0.912,0.52358 0.912,0.52358z" fill="#86787e" stroke-width="0"/><path d="M311.76613,222.61383c0,0 -3.5682,-3.53022 -8.33621,-3.89912c-5.39792,-0.41762 -22.39668,1.52148 -22.39668,1.52148l154.65772,-34.1056l4.56949,8.79254l9.26925,10.04651c0,0 -100.30193,10.25383 -120.72343,12.86936c-6.66385,0.85347 -17.04015,4.77489 -17.04015,4.77489z" fill="#df8db7" stroke-width="0"/><path d="M164.80434,289.10262l-9.3668,-35.36644c0,0 1.19312,-3.93413 1.66282,-4.21169c5.17875,-3.06053 35.6026,-17.69597 41.03416,-18.10298c5.95,-0.44593 -7.53043,13.30663 -7.53043,13.30663c0,0 -14.03569,3.84011 -16.01294,8.37795c-2.6845,6.16106 4.32818,22.75818 4.32818,22.75818z" fill="#c77da3" stroke-width="0"/><path d="M232.83581,250.21606l-2.04243,-1.86086c0,0 5.41246,-9.3701 7.53509,-11.95339c2.19134,-2.667 5.41336,-3.80565 5.41336,-3.80565l6.17988,1.52949c0,0 -4.50365,0.07016 -6.63024,2.07277c-1.82559,1.71923 -5.15618,5.24961 -7.54083,8.67261c-1.73469,2.48997 -2.91478,5.34499 -2.91478,5.34499z" fill="#414041" stroke-width="0"/><path d="M110.50328,244.9847l3.2761,-12.20461l48.23445,-6.1777c0,0 -2.30907,4.78762 -5.15362,7.13414c-2.79182,2.30307 -11.75848,6.81689 -11.75848,6.81689z" fill="#979395" stroke-width="0"/><path d="M111.15157,243.74949l2.48252,-12.10296l48.23445,-6.1777c0,0 -2.30907,4.78762 -5.15362,7.13414c-2.79182,2.30307 -11.75848,6.81689 -11.75848,6.81689z" fill="#bdb7ba" stroke-width="0"/><path d="M316.50949,245.01529l-1.92297,-0.2714l16.18202,-6.28141c0,0 -3.27014,2.49304 -5.63274,3.59905c-2.36257,1.10604 -8.62629,2.95377 -8.62629,2.95377z" fill="#887980" stroke-width="0"/><path d="M167.32893,289.24756c0,0 -3.65074,-10.0834 -5.92687,-18.40005c-2.28719,-8.35723 -4.40696,-16.19821 -4.88429,-19.75109c-0.08083,-0.60192 0.29231,-10.66151 0.72179,-11.24215c2.31823,-3.13434 10.9811,3.56302 16.35992,1.76155c7.96426,-2.66738 26.85265,-5.6048 26.85265,-5.6048l-7.71055,6.34162c0,0 -18.92803,5.31274 -20.64769,10.71218c-2.32598,7.30332 7.83507,27.04516 7.83507,27.04516z" fill="#d486ae" stroke-width="0"/><path d="M168.00427,285.61353c0,0 -11.79943,-39.69419 -11.76345,-49.85815c0.01681,-4.75559 -4.46783,-13.36342 -4.46783,-13.36342l51.142,0.47551l3.45389,15.7589c0,0 -32.17562,1.00246 -37.67758,8.03237c-3.67275,4.69267 6.66916,31.8419 6.66916,31.8419z" fill="#e490bb" stroke-width="0"/><g stroke-width="0"><path d="M297.30404,205.54501l-1.05125,-8.20782l9.28413,-1.18907l1.05125,8.20782z" fill="#454545"/><path d="M298.03251,204.68059l-1.28098,-7.19365l11.23444,-1.43887l0.92713,7.23897z" fill="#b0b0b0"/><path d="M297.23356,200.25722l-0.58629,-2.77834l11.44931,-1.46638l0.24234,1.89194c0,0 -7.6888,1.30984 -9.35677,1.66323c-0.55736,0.11806 -1.74857,0.68957 -1.74857,0.68957z" fill="#bebebe"/><path d="M309.09462,202.70979c0,0 -5.82042,-1.83079 -5.73017,-5.62062c0.13412,-5.63167 4.28265,-5.68104 4.28265,-5.68104l40.08573,-3.78981l1.2781,9.97908z" fill="#9c989a"/><path d="M310.70363,201.20393c0,0 -2.91366,-3.17451 -3.27358,-4.06281c-0.53353,-1.31675 1.06942,-4.50353 1.06942,-4.50353l41.26296,-5.25121l0.55459,7.47878z" fill="#898587"/><path d="M310.63919,201.41204l-1.2577,-1.79412l37.922,-4.8569l0.24639,1.92366z" fill="#c1bcbf"/><path d="M310.08784,198.06102c0,0 -1.49632,-1.18751 -1.61539,-2.11727c-0.11143,-0.86972 0.92247,-3.2931 0.92247,-3.2931l38.35339,-4.91214l0.69288,5.41035z" fill="#0d0d0d"/><path d="M310.18659,198.83205c0,0 -1.57299,-1.78638 -1.69208,-2.71614c-0.11143,-0.86972 0.99915,-2.69423 0.99915,-2.69423l38.3534,-4.91214l0.69288,5.41035z" fill="#2e2e2e"/><path d="M305.64146,201.33299c-3.00709,-2.7069 -2.14818,-5.17251 -2.14818,-5.17251c0,0 2.33983,3.84625 3.67935,4.57965c1.58594,0.86824 5.34003,1.76458 5.34003,1.76458l-3.47145,0.51535c0,0 -2.87055,-1.21066 -3.3997,-1.68703z" fill="#7d7a7c"/><path d="M312.80489,198.80888c0,0 -1.16269,-2.08119 -1.30798,-3.21547c-0.12772,-0.9971 0.48218,-3.23188 0.48218,-3.23188l4.78423,-0.61272c0,0 -0.17739,2.2447 -0.06707,3.1059c0.15159,1.18362 0.89284,3.34142 0.89284,3.34142z" fill="#555555"/><path d="M321.35179,197.71432c0,0 0.34072,-2.58737 0.19541,-3.72166c-0.12772,-0.9971 -1.02117,-2.72568 -1.02117,-2.72568l5.33971,-0.68389c0,0 -0.19542,1.75408 -0.08514,2.61531c0.15159,1.18362 0.91088,3.83203 0.91088,3.83203z" fill="#555555"/><path d="M330.60288,196.52941c0,0 0.34073,-2.58737 0.19543,-3.72165c-0.12772,-0.9971 -1.02117,-2.72567 -1.02117,-2.72567l5.26037,-0.67375c0,0 -0.19542,1.75408 -0.08514,2.61531c0.15159,1.18362 0.91088,3.83203 0.91088,3.83203z" fill="#555555"/><path d="M340.18787,195.30179c0,0 0.56225,-2.25724 0.41694,-3.39157c-0.12772,-0.9971 -1.2427,-3.05574 -1.2427,-3.05574l5.10168,-0.6534c0,0 1.07281,1.86053 1.18313,2.72177c0.15159,1.18362 -0.35733,3.7256 -0.35733,3.7256z" fill="#555555"/><path d="M311.80457,193.09369l-0.76137,-0.70902l35.27446,-4.51784l-1.42019,0.98842c0,0 -2.80715,0.35952 -5.24938,0.67233c-0.53235,0.06814 -1.58146,-0.12887 -2.37886,-0.02681c-0.77097,0.09876 -1.28259,0.49572 -2.24097,0.61846c-1.49448,0.19138 -3.18067,0.40739 -4.9459,0.63345c-0.73184,0.09374 -1.41736,-0.20515 -2.16841,-0.10897c-0.6678,0.08556 -1.39998,0.56595 -2.07095,0.65193c-1.66525,0.21329 -3.31413,0.42444 -4.86438,0.62302c-0.71188,0.09118 -1.45866,-0.2551 -2.12099,-0.17028c-0.80859,0.10354 -1.51857,0.63645 -2.22705,0.72718c-2.88988,0.37011 -4.82602,0.61812 -4.82602,0.61812z" fill="#474747"/></g><g><path d="M174.30218,278.32553l3.32269,-3.31644c0,0 3.15963,2.43321 6.08442,2.96088c2.58681,0.46673 10.57514,0.04477 10.57514,0.04477l-2.08039,4.65632z" fill="#6d6a6b" stroke-width="0"/><path d="M167.1343,285.79679l8.21849,-8.4981c0,0 3.4952,1.8273 5.73049,2.20833c3.38168,0.5764 12.58516,0.91365 12.58516,0.91365l-3.69588,4.81586z" fill="#615e5f" stroke-width="0"/><path d="M171.90758,307.33227l-4.33898,-22.20174c0,0 4.41956,0.23237 9.20556,-0.35074c3.73564,-0.45517 7.64299,-1.80963 10.18393,-1.52173c4.46076,0.50537 39.28484,8.50188 39.28484,8.50188l3.751,9.77752z" fill="#575455" stroke-width="0"/><path d="M189.88875,277.76654c6.17012,-6.40092 12.4653,-20.76912 13.38678,-23.47956c0.66384,-1.95264 0.67552,-7.27327 0.67552,-7.27327l8.50703,5.78094c0,0 8.40629,19.58752 11.18395,31.98184c0.7772,3.46807 3.77551,7.06148 2.78515,8.66679c-0.88732,1.43828 -17.42033,5.86437 -22.868,5.79105c-11.46446,-0.15422 -16.85518,3.34852 -21.23976,-1.40837c-4.38457,-4.75685 1.8621,-11.8784 1.8621,-11.8784c0,0 4.10089,-6.51458 5.70722,-8.18098z" fill="#504e4f" stroke-width="0"/><path d="M190.48538,244.59676c0,0 0.20296,-1.53098 0.96875,-2.29797c0.98484,-0.98646 4.45016,-3.1297 4.45016,-3.1297c0,0 9.55371,0.86065 12.85591,2.94807c3.04674,1.92588 -1.87698,12.92168 -1.87698,12.92168l-2.67137,-5.06302z" fill="#464445" stroke-width="0"/><path d="M219.53133,288.48993c0,0 -8.41433,7.38453 -16.80818,8.63243c-8.09759,1.20387 -16.18405,-3.70047 -16.2586,-5.12473c-0.04039,-0.77168 7.40346,-5.05738 10.31552,-9.68626c3.23706,-5.14545 2.02827,-10.73874 3.11277,-12.90449c3.02763,-6.04632 10.11111,-17.21518 8.29089,-23.07505c-1.90888,-6.14536 -12.80308,-6.84089 -12.80308,-6.84089c0,0 3.53395,-2.7227 8.46272,-3.48487c2.09951,-0.32467 6.78628,0.47224 7.75098,0.7368c3.16356,0.8675 5.34599,2.23757 5.34599,2.23757c0,0 3.00904,-5.30457 6.54268,-6.06913c3.53361,-0.76453 22.58132,-0.23241 22.58132,-0.23241l-14.47925,14.55132z" fill="#555354" stroke-width="0"/><path d="M199.57537,270.04734c0,0 3.20211,-11.3717 7.20373,-17.36354c4.00159,-5.99178 7.64291,-9.66465 11.14665,-10.1134c2.53722,-0.32496 6.89329,7.80293 6.89329,7.80293l-7.33238,29.94334c0,0 -14.08609,5.10999 -15.86651,2.8371c-1.40617,-1.79513 -2.04469,-13.10643 -2.04469,-13.10643z" fill="#585758" stroke-width="0"/><path d="M225.41613,294.26049c0,0 -3.64136,-5.77526 -3.70166,-8.81446c-0.08426,-4.2457 -0.25964,-16.98054 -0.25964,-16.98054l3.26654,10.10259c0,0 0.60301,9.7499 1.11956,12.73836c0.49837,2.88337 2.1859,4.85538 2.1859,4.85538z" fill="#3f3e3f" stroke-width="0"/><path d="M222.22546,276.658c-0.4066,-1.63638 -1.12146,-9.31875 -1.12146,-9.31875c0,0 7.63003,-15.6642 9.37343,-18.56223c0.51106,-0.84956 3.61968,-2.99281 3.61968,-2.99281l-1.01626,5.02374c0,0 -1.48434,0.79901 -1.60201,1.29583c-0.12533,0.52932 0.87153,1.78864 0.87153,1.78864l-4.00999,9.06297c0,0 -1.5089,1.21208 -1.62238,1.73614c-0.11355,0.52415 0.68134,1.3178 0.68134,1.3178c0,0 -2.68725,9.35846 -3.21612,11.86073c-0.24453,1.15697 0.17061,2.54808 0.17061,2.54808c0,0 -1.72165,-2.12367 -2.12823,-3.76008z" fill="#474647" stroke-width="0"/><path d="M206.54194,257.52697l21.93442,5.49331c0,0 -1.05069,1.15513 -1.2175,1.71993c-0.12308,0.41678 0.30748,1.36181 0.30748,1.36181z" fill="#3f3e3e" stroke-width="NaN"/><path d="M211.17811,246.49568l22.135,4.28152c0,0 -0.99886,0.9781 -1.13749,1.55678c-0.14449,0.60322 0.35911,1.62672 0.35911,1.62672z" fill="#3f3e3e" stroke-width="NaN"/><path d="M202.4823,276.52369c0,0 11.5831,6.27234 18.17301,11.45472c6.58986,5.18243 4.81823,6.62603 4.81823,6.62603z" fill="#636162" stroke-width="NaN"/><path d="M212.73243,251.96596c0,0 -5.5831,3.64285 -7.91686,7.06294c-2.33377,3.42011 -8.54438,20.53065 -8.91855,17.60898c-0.37419,-2.92168 10.00885,-25.14185 11.78921,-25.36987c0.67398,-0.08632 3.54052,-1.60505 4.38245,-1.47345c1.38222,0.21599 0.66377,2.17137 0.66377,2.17137z" fill="#918f91" stroke-width="0"/><path d="M171.43859,307.26182l13.58996,-3.64429c0,0 12.45163,-1.92976 15.58261,-2.17442c7.62483,-0.59587 30.33257,-1.41378 30.33257,-1.41378l0.35967,6.32664c0,0 -23.71062,6.63136 -30.71632,6.20224c-2.02674,-0.12414 -7.87482,0.00174 -12.26784,-0.79885c-8.59697,-1.56669 -16.88063,-4.49756 -16.88063,-4.49756z" fill="#626061" stroke-width="0"/><path d="M230.26192,306.13472c0,0 -0.5052,-4.263 -1.24775,-6.52684c-0.83459,-2.54451 -3.51609,-7.9969 -3.51609,-7.9969l1.76788,-0.22642c0,0 2.27147,4.2023 3.02701,6.50581c0.82608,2.51854 1.73685,8.01792 1.73685,8.01792z" fill="#4a494a" stroke-width="0"/><path d="M230.17446,306.98909l-0.34405,-3.38087c0,0 0.59576,0.19058 0.86509,0.15608c0.31999,-0.04098 0.88807,-0.3806 0.88807,-0.3806l0.57589,3.12876c0,0 -0.71848,0.50299 -1.08017,0.58979c-0.27713,0.06658 -0.90481,-0.11319 -0.90481,-0.11319z" fill="#363536" stroke-width="0"/><path d="M225.90114,292.59309l-0.5886,-1.5585c0,0 0.36898,-0.40453 0.72694,-0.51014c0.34091,-0.10053 0.87467,-0.04516 0.87467,-0.04516l0.71813,1.65863c0,0 -0.41348,0.56453 -0.71005,0.64251c-0.27945,0.07346 -1.02112,-0.18736 -1.02112,-0.18736z" fill="#585758" stroke-width="0"/><path d="M188.6982,311.02333c0,0 -8.2063,-1.9259 -8.37946,-3.2779c-0.17401,-1.35872 5.86392,-3.31239 5.86392,-3.31239c0,0 10.82462,-1.62909 15.76341,-2.08764c2.76492,-0.25667 11.34659,-0.42933 11.34659,-0.42933c0,0 7.36666,0.11933 8.32149,1.15819c1.04146,1.13316 -2.43035,4.44267 -2.43035,4.44267c0,0 -12.45484,2.91188 -16.41399,3.20904c-1.40641,0.10556 -14.0715,0.29746 -14.0715,0.29746z" fill="#6b696a" stroke-width="0"/><path d="M177.52252,305.49678l-1.91644,0.47815c0,0 0.18502,-3.48642 3.04077,-2.59986c2.85581,0.88662 21.54755,-2.52704 21.54755,-2.52704z" fill="#4b4949" stroke-width="0"/><path d="M171.49269,307.10972c0,0 -1.95725,0.44383 -2.95077,-3.10142c-0.5029,-1.79459 -4.03172,-15.6507 -4.03172,-15.6507l3.33738,-3.35021c0,0 1.4377,5.85859 2.01091,8.71111c0.76233,3.79385 2.54992,13.27398 2.54992,13.27398z" fill="#3f3d3e" stroke-width="0"/><path d="M177.86284,305.62053c0,0 2.89264,-2.54623 18.77611,-4.9204c1.3117,-0.19603 -1.78468,0.19626 7.60333,-0.4946c9.38804,-0.69094 13.45675,0.31299 13.45675,0.31299c0,0 -15.07997,0.85326 -21.23253,1.64129c-7.01319,0.8982 -18.60366,3.46081 -18.60366,3.46081z" fill="#838082" stroke-width="0"/><path d="M179.10815,275.58679c0,0 -4.05726,2.72493 -6.00949,4.60371c-2.19423,2.1117 -6.51466,7.44959 -6.51466,7.44959l-0.98155,-1.48899c0,0 3.24254,-4.30046 5.22892,-6.21218c2.1718,-2.09011 7.29527,-5.84118 7.29527,-5.84118z" fill="#4a494a" stroke-width="0"/><path d="M180.00181,275.21248l-3.31871,2.11934c0,0 0.01349,-0.65343 -0.13607,-0.88025c-0.17768,-0.26951 -0.76061,-0.6062 -0.76061,-0.6062l2.89024,-2.18661c0,0 0.81084,0.38678 1.05229,0.66988c0.18503,0.21695 0.27277,0.88378 0.27277,0.88378z" fill="url(#color-3)" stroke-width="0"/><path d="M167.39618,286.75146l-2.58028,3.08257l-0.41998,-2.14666l1.80505,-2.2699c0,0 0.74234,0.07642 0.9471,0.30494c0.1929,0.21535 0.24804,1.02905 0.24804,1.02905z" fill="url(#color-4)" stroke-width="0"/></g><path d="M293.36683,246.44605c0,0 0.35855,-4.50065 0.68134,-5.94246c0.21907,-0.97874 2.39138,-2.70028 2.39138,-2.70028l16.85383,-2.37855c0,0 -0.53028,5.913 -0.73469,7.31667c-0.08957,0.61487 -1.05892,1.4373 -1.05892,1.4373z" fill="#665b60" stroke-width="0"/><path d="M242.82723,234.51334c0,0 -3.96194,-1.06776 -8.99689,-1.58455c-3.2007,-0.32855 -7.50814,-0.34826 -9.34064,-0.0069c-5.32765,0.99237 -7.17772,6.37591 -7.17772,6.37591c0,0 -3.54095,-1.88117 -5.74007,-2.4612c-2.05281,-0.54142 -6.49778,-0.98123 -6.49778,-0.98123c0,0 23.71367,-8.17002 27.45996,-9.23468c7.18187,-2.04106 33.69662,-5.04236 33.69662,-5.04236l7.98833,13.37931z" fill="#8b7c84" stroke-width="0"/><g stroke-width="0"><path d="M294.68993,245.32613c0,0 0.13784,-2.63512 0.43125,-3.57481c0.30417,-0.97431 2.33652,-2.29564 2.33652,-2.29564l14.4123,-1.84588c0,0 0.50806,0.92593 0.36829,1.68765c-0.19002,1.03563 -2.59504,4.11346 -2.59504,4.11346z" fill="#585852"/><path d="M294.59522,244.58686c0,0 0.23255,-1.89581 0.52596,-2.83549c0.30417,-0.97431 2.24184,-3.03493 2.24184,-3.03493l14.41229,-1.84587c0,0 0.60275,1.66524 0.46302,2.42697c-0.19002,1.03563 -2.68977,3.37413 -2.68977,3.37413z" fill="#797971"/><path d="M310.0884,237.58622c-1.06298,-0.04325 -12.62585,1.1641 -12.62585,1.1641l14.39256,-1.84334l0.31274,2.4419c0,0 -1.01649,-1.71937 -2.07946,-1.76266z" fill="#85857b"/></g><path d="M293.80156,227.12341l-0.6593,-5.14773l7.07808,-0.90656l1.94623,4.98291z" fill="#7c6e75" stroke-width="0"/><path d="M280.10513,202.23817l-5.17586,-7.53479l1.36819,-0.17522l7.15304,7.73685z" fill="#d495b6" stroke-width="0"/><path d="M240.44837,199.6259l12.71943,-4.74397l21.96177,-0.17895l4.99853,7.51815z" fill="#df9cbe" stroke-width="0"/><path d="M294.60111,232.08963l-0.20602,-1.60864l10.77799,-1.38041l1.17122,1.48506z" fill="#7c6e75" stroke-width="0"/><path d="M252.81385,225.18814c0,0 -17.83446,3.49232 -23.35804,4.7041c-8.36395,1.83477 -25.00051,6.30978 -25.00051,6.30978c0,0 14.33786,-6.31327 27.54323,-9.53303c14.318,-3.49108 57.82551,-10.53262 57.82551,-10.53262l0.68719,5.36522z" fill="#75686e" stroke-width="0"/><path d="M247.06566,234.7665l-3.2895,-0.15418c0,0 9.38842,-3.60631 14.78157,-3.52804c5.39318,0.07825 15.24241,3.96383 15.24241,3.96383z" fill="#7c6e76" stroke-width="0"/><path d="M200.47395,236.67063c0,0 -34.05101,-11.16106 -35.52228,-15.6305c-1.33641,-4.05996 29.87841,-1.45957 30.16003,-1.60477c4.92739,-2.54042 75.31138,-18.82878 75.31138,-18.82878l27.25565,3.354l52.26182,-7.26958l8.97363,12.53701c0,0 -60.91183,8.97979 -84.46484,12.16074c-8.17588,1.10419 -24.95406,2.6001 -39.9891,5.67536c-11.59753,2.37217 -28.59218,8.90061 -28.59218,8.90061z" fill="#ee96c3" stroke-width="0"/><path d="M73.98214,265.517l0.73966,-20.41334c0,0 -0.99687,-6.98408 5.89699,-10.18174c8.56238,-3.97161 25.5411,-4.34647 27.59503,-4.60954c1.57611,-0.20187 -11.47971,11.97204 -11.47971,11.97204l2.56033,19.9907z" fill="#c4b4b3" stroke-width="0"/><g stroke-width="0"><path d="M350.54415,211.69337l-4.75774,-14.65724l92.86459,-5.07397l-0.0129,5.85605l-46.42726,10.84301z" fill="#ad6d8e"/><path d="M374.8548,194.1264l6.16287,-9.1296l26.28732,-5.51321l-2.94869,10.86441z" fill="#8d788b"/><path d="M349.74122,198.54119l-2.06251,-16.10375l33.40919,2.55452l-3.66897,7.39505z" fill="#857183"/><path d="M391.39439,189.85839l15.84859,-10.36564l28.09533,0.20516l0.59205,6.87448z" fill="#947e92"/><path d="M345.52866,198.46727l1.24841,-13.03015l1.04588,-3.22279l1.91369,14.94181z" fill="#756474"/><path d="M351.40474,208.34251l-2.24916,-11.88325l42.7534,-7.13801l0.82372,16.08273z" fill="#746373"/><path d="M392.72315,205.3896c0,0 -0.42439,-6.30464 -0.58857,-9.151c-0.14058,-2.43699 -0.3368,-6.89048 -0.3368,-6.89048l43.9574,-4.71338l3.05093,8.07786z" fill="#867284"/><path d="M345.5598,198.39222l3.80047,-2.03017l2.07523,11.9842z" fill="#6f5e6d"/><path d="M428.16779,180.50779l-20.08493,-0.81875l26.97266,0.21151l0.08972,3.56293c0,0 -0.51041,-1.5167 -1.79848,-2.06242c-0.86164,-0.36502 -5.17897,-0.89333 -5.17897,-0.89333z" fill="#978195"/><path d="M389.65137,189.4266c0,0 7.46978,-4.4503 10.05347,-6.14636c1.88213,-1.23551 4.02186,-3.09345 4.02186,-3.09345l2.5276,-0.2102l-13.97581,9.11344z" fill="#9c859a"/><path d="M375.48969,192.05532c0,0 0.95607,-2.89725 2.12388,-4.40811c1.16778,-1.51089 3.35375,-2.61273 3.35375,-2.61273l-3.03604,6.70808z" fill="#806b7d"/><path d="M408.58552,177.5608l1.38767,-5.95789l15.55114,1.77215l6.36769,5.63672z" fill="#55494f"/><path d="M406.42842,180.66003c0,0 0.97327,-0.9213 1.45481,-1.57251c0.36273,-0.49054 0.86925,-1.95131 0.86925,-1.95131l22.64109,1.1329c0,0 0.92397,0.38271 1.5468,0.63126c0.65089,0.25975 2.27811,0.89518 2.27811,0.89518z" fill="#685960"/><path d="M409.02882,176.60453l1.06258,-4.75892l14.4544,1.50275c0,0 -8.13658,-0.50313 -12.54899,0.31873c-2.55947,0.47676 -2.96794,2.9374 -2.96794,2.9374z" fill="#41383c"/></g><path d="M70.61813,226.34685l-0.66169,-5.16616c0,0 21.99103,-4.12216 43.77849,-6.85521c12.98336,-1.62863 26.64623,-1.76782 33.4669,-2.99434c15.37921,-2.76562 25.19,-8.5712 25.19,-8.5712l-4.93711,11.36239z" fill="#ffa1d1" stroke-width="0"/><path d="M69.83425,240.51883l0.09973,-16.22674c0,0 54.61406,-4.91744 72.26067,-7.62179c10.4531,-1.60195 23.86234,-7.10923 23.86234,-7.10923l1.86012,14.52373c0,0 -66.95412,8.57523 -83.09467,10.64244c-6.6364,0.84995 -11.57283,32.45806 -11.57283,32.45806z" fill="#ee96c3" stroke-width="0"/><path d="M257.3091,293.62472l7.47765,-14.66464c0,0 7.82381,-16.98881 16.27614,-24.99021c2.14788,-2.03327 7.12352,-3.87684 7.12352,-3.87684c0,0 -6.61141,5.87259 -8.83057,8.97106c-5.2407,7.31721 -22.04665,34.56057 -22.04665,34.56057z" fill="#70646b" stroke-width="0"/><path d="M344.30239,217.11269l-8.53652,-17.05552l1.33915,-0.17152c0,0 2.58529,5.16529 3.95137,7.89466c0.19462,0.38885 1.70369,1.42668 1.94476,1.90837c0.41795,0.83501 -0.39656,1.18481 0.07053,2.11807c1.30066,2.59869 2.56982,5.13442 2.56982,5.13442z" fill="#795467" stroke-width="0"/><path d="M168.59916,224.43273c0,0 -11.22949,-5.16759 -11.0352,-8.99825c0.11631,-2.29358 15.81222,-12.32096 15.81222,-12.32096l68.15933,-7.04383l-1.23009,3.27894l30.07668,1.43918l-67.83821,35.48074c0,0 -1.49813,-5.46778 1.71189,-8.76043c3.11982,-3.20008 17.28517,-10.7256 17.28517,-10.7256c0,0 -33.94637,4.29834 -41.18925,5.13858c-2.41638,0.28031 -11.7526,2.51159 -11.7526,2.51159z" fill="#f399c8" stroke-width="0"/><g><path d="M171.83829,205.25042l-0.41137,-3.2121l175.12318,-22.42908l0.41137,3.2121z" fill="#584f54" stroke-width="0"/><path d="M340.83227,180.59174l-0.34763,-2.71417l3.03053,-0.38812l3.02159,2.37173z" fill="#685d63" stroke-width="0"/><g fill="#685d63" stroke-width="0"><g><g><g><path d="M334.25781,181.685l-0.37816,-2.95292l3.84965,-0.49306l0.37816,2.95292z"/><path d="M328.0113,182.48503l-0.37816,-2.95292l3.84966,-0.49305l0.37816,2.95292z"/></g><g><path d="M322.00052,183.2549l-0.37816,-2.95293l3.84966,-0.49305l0.37816,2.95292z"/><path d="M315.75401,184.05492l-0.37816,-2.95292l3.84965,-0.49305l0.37816,2.95293z"/></g></g><g><g><path d="M309.62532,184.83981l-0.37816,-2.95293l3.84965,-0.49305l0.37816,2.95292z"/><path d="M303.37879,185.63988l-0.37816,-2.95292l3.84965,-0.49306l0.37816,2.95293z"/></g><g><path d="M297.36806,186.40968l-0.37816,-2.95292l3.84965,-0.49305l0.37816,2.95292z"/><path d="M291.12153,187.20971l-0.37816,-2.95292l3.84964,-0.49307l0.37816,2.95293z"/></g></g></g><g><g><g><path d="M290.88586,187.23995l-0.37816,-2.95292l3.84965,-0.49305l0.37816,2.95292z"/><path d="M284.63936,188.03994l-0.37816,-2.95292l3.84966,-0.49305l0.37816,2.95292z"/></g><g><path d="M278.62857,188.8098l-0.37816,-2.95293l3.84965,-0.49305l0.37816,2.95292z"/><path d="M272.38203,189.60981l-0.37816,-2.95292l3.84964,-0.49307l0.37816,2.95293z"/></g></g><g><g><path d="M266.25346,190.39475l-0.37816,-2.95293l3.84966,-0.49305l0.37816,2.95292z"/><path d="M260.0069,191.1948l-0.37816,-2.95292l3.84966,-0.49305l0.37816,2.95293z"/></g><g><path d="M253.99611,191.96465l-0.37816,-2.95292l3.84965,-0.49306l0.37816,2.95293z"/><path d="M247.74962,192.76463l-0.37816,-2.95292l3.84966,-0.49305l0.37816,2.95292z"/></g></g></g></g><g><g fill="#685d63" stroke-width="0"><g><g><path d="M241.58086,193.55474l-0.37816,-2.95293l3.84966,-0.49305l0.37816,2.95292z"/><path d="M235.33437,194.35472l-0.37816,-2.95292l3.84966,-0.49305l0.37816,2.95293z"/></g><g><path d="M229.32358,195.12462l-0.37816,-2.95292l3.84966,-0.49305l0.37816,2.95293z"/><path d="M223.07709,195.92458l-0.37816,-2.95292l3.84965,-0.49306l0.37816,2.95293z"/></g></g><g><g><path d="M216.94847,196.70956l-0.37816,-2.95293l3.84966,-0.49305l0.37816,2.95292z"/><path d="M210.70192,197.50951l-0.37816,-2.95292l3.84966,-0.49305l0.37816,2.95293z"/></g><g><path d="M204.69107,198.2794l-0.37816,-2.95292l3.84966,-0.49305l0.37816,2.95293z"/><path d="M198.4446,199.07947l-0.37816,-2.95292l3.84965,-0.49306l0.37816,2.95292z"/></g></g></g><g><g fill="#685d63" stroke-width="0"><g><path d="M198.20893,199.10962l-0.37816,-2.95293l3.84966,-0.49305l0.37816,2.95292z"/><path d="M191.9624,199.90965l-0.37816,-2.95292l3.84965,-0.49306l0.37816,2.95293z"/></g><g><path d="M185.95163,200.6795l-0.37816,-2.95292l3.84965,-0.49306l0.37816,2.95293z"/><path d="M179.70511,201.47946l-0.37816,-2.95292l3.84965,-0.49306l0.37816,2.95292z"/></g></g><g fill="none" stroke-width="1" font-family="sans-serif" font-weight="normal" font-size="12" text-anchor="start"><g/><g/></g></g></g><path d="M171.52939,202.27543l2.32635,-3.05661l3.03053,-0.38812l0.34763,2.71417z" data-paper-data="{&quot;index&quot;:null}" fill="#685d63" stroke-width="0"/></g><path d="M232.15718,227.66547l-2.49689,0.59203c0,0 1.33916,-2.76001 10.71328,-5.09755c7.107,-1.77217 27.33704,-5.68535 39.45296,-7.98894c5.62631,-1.06975 60.52673,-17.17664 60.52673,-17.17664l5.15486,-0.67465c0,0 -59.86337,18.39873 -65.48839,19.4449c-12.43852,2.31333 -33.34838,6.23869 -39.37371,7.59361c-3.27995,0.73758 -8.48872,3.30721 -8.48872,3.30721z" fill="#70475c" stroke-width="0"/><path d="M334.66721,233.7195l-4.64943,2.45635l-2.40432,-18.77806c0,0 7.73449,-0.94179 15.29866,-1.86285c21.71448,-2.64414 126.07577,-15.35197 126.07577,-15.35197l0.8546,6.67273z" fill="#5a5959" stroke-width="0"/><path d="M333.96643,235.45097l0.70016,-3.12028l135.17411,-25.5851l-10.30593,12.62312z" fill="#4b4a4a" stroke-width="0"/><path d="M456.2515,219.59855c0,0 -6.26808,-2.4483 -9.45737,-3.47958c-1.70918,-0.55265 -8.19109,-2.2271 -8.19109,-2.2271c0,0 8.3055,1.86372 11.74343,2.37912c1.22694,0.18396 2.43582,0.77796 3.79636,1.13618c0.43873,0.11549 1.89686,-2.85298 3.56261,-4.79468c0.4979,-0.58037 1.69505,-0.36617 2.17414,-0.76104c1.09833,-0.9052 1.31578,-2.0334 1.31578,-2.0334c0,0 0.4528,0.87914 -0.60207,2.23797c-0.28779,0.37076 -2.03136,0.94928 -2.3084,1.34804c-1.11024,1.59832 -1.90078,3.31168 -2.12833,3.93684c-0.63501,1.74461 1.54643,2.07176 1.54643,2.07176z" fill="#414040" stroke-width="0"/><path d="M168.5884,224.73397l2.37434,-11.49352l6.87005,-1.50926c0,0 -0.60652,2.74751 -0.96397,4.36678c-0.09001,0.40783 11.35998,-3.03078 11.79439,-2.40991c0.80601,1.15189 -4.24328,5.58922 -4.46813,6.60756c-0.25702,1.16425 -8.84068,2.66263 -8.84068,2.66263z" fill="#303030" stroke-width="0"/><path d="M168.39899,224.38514l2.37678,-10.65191c0,0 3.1416,0.9129 3.26672,1.88986c0.22766,1.7777 -0.60333,7.71854 -0.60333,7.71854z" fill="#252525" stroke-width="0"/><path d="M330.33722,238.81235l-0.37507,-2.92848l5.10396,-3.63022l-0.85302,3.08575c0,0 -0.91194,1.46297 -1.59357,2.07377c-0.5998,0.53745 -2.2823,1.39914 -2.2823,1.39914z" fill="#383838" stroke-width="0"/><g><g fill="#4b4b4b" stroke-width="0"><g data-paper-data="{&quot;origPos&quot;:null}"><g data-paper-data="{&quot;origPos&quot;:null}"><path d="M397.1086,231.64273l-0.28873,-2.25433l3.71963,-0.4764l0.28873,2.25433z" data-paper-data="{&quot;origPos&quot;:null}"/><path d="M390.89481,232.32402l-0.28873,-2.25433l3.71962,-0.4764l0.28873,2.25432z" data-paper-data="{&quot;origPos&quot;:null}"/></g><g data-paper-data="{&quot;origPos&quot;:null}"><path d="M409.52181,230.16744l-0.28873,-2.25433l3.71963,-0.4764l0.28873,2.25432z" data-paper-data="{&quot;origPos&quot;:null}"/><path d="M403.308,230.84871l-0.28873,-2.25432l3.71962,-0.4764l0.28873,2.25433z" data-paper-data="{&quot;origPos&quot;:null}"/></g></g><g data-paper-data="{&quot;origPos&quot;:null,&quot;index&quot;:null}"><g data-paper-data="{&quot;origPos&quot;:null}"><path d="M428.5419,227.50232l-0.28873,-2.25433l3.71963,-0.4764l0.28873,2.25432z" data-paper-data="{&quot;origPos&quot;:null}"/><path d="M434.72679,226.59559l-0.28874,-2.25432l3.71963,-0.4764l0.28872,2.25431z" data-paper-data="{&quot;origPos&quot;:null}"/></g><g data-paper-data="{&quot;origPos&quot;:null}"><path d="M416.15758,229.20298l-0.28873,-2.25433l3.71962,-0.4764l0.28874,2.25432z" data-paper-data="{&quot;origPos&quot;:null}"/><path d="M422.34251,228.29632l-0.28873,-2.25432l3.71963,-0.4764l0.28873,2.25432z" data-paper-data="{&quot;origPos&quot;:null}"/></g></g></g><path d="M353.68557,228.89166l-1.72913,-13.50084l83.7896,-10.73142l1.72913,13.50084z" data-paper-data="{&quot;origPos&quot;:null}" fill="#444444" stroke-width="0"/><path d="M354.3832,233.56316l-0.60753,-4.74369l83.54332,-10.6999l0.60753,4.7437z" data-paper-data="{&quot;origPos&quot;:null}" fill="#414141" stroke-width="0"/><path d="M354.59869,234.97145l-0.20548,-1.60452l83.53266,-10.69854l0.2055,1.60451z" data-paper-data="{&quot;origPos&quot;:null}" fill="#3f3f3f" stroke-width="0"/><g stroke-width="0"><g data-paper-data="{&quot;origPos&quot;:null}" fill="#5a5a5a"><g data-paper-data="{&quot;origPos&quot;:null}"><path d="M396.61672,223.47328l-1.74678,-13.63858l3.54249,-0.4537l1.74678,13.63858z" data-paper-data="{&quot;origPos&quot;:null}"/></g><g data-paper-data="{&quot;origPos&quot;:null}"><path d="M402.63896,222.70198l-1.74678,-13.63858l3.5425,-0.4537l1.74678,13.63858z" data-paper-data="{&quot;origPos&quot;:null}"/><path d="M408.83835,221.90794l-1.74676,-13.63859l3.54249,-0.4537l1.74678,13.63858z" data-paper-data="{&quot;origPos&quot;:null}"/></g></g><g data-paper-data="{&quot;origPos&quot;:null}" fill="#5a5a5a"><g data-paper-data="{&quot;origPos&quot;:null}"><path d="M415.39195,221.0686l-1.74678,-13.63858l3.54249,-0.4537l1.74677,13.63859z" data-paper-data="{&quot;origPos&quot;:null}"/><path d="M421.59127,220.27459l-1.74678,-13.63858l3.5425,-0.4537l1.74676,13.63859z" data-paper-data="{&quot;origPos&quot;:null}"/></g><g data-paper-data="{&quot;origPos&quot;:null}"><path d="M427.61355,219.5033l-1.74676,-13.63859l3.54249,-0.4537l1.74676,13.63859z" data-paper-data="{&quot;origPos&quot;:null}"/><path d="M433.81293,218.7093l-1.74676,-13.63859l3.54249,-0.4537l1.74678,13.63858z" data-paper-data="{&quot;origPos&quot;:null}"/></g></g><path d="M400.22005,223.01179l-0.62637,2.02698l-5.19344,0.70857l-1.38277,-9.6994l1.79403,-6.20588l1.81518,13.62984z" fill="#3a3a3a"/><path d="M406.23987,222.24074l-0.62637,2.02699l-5.19345,0.70859l-1.38276,-9.6994l1.79403,-6.20587l1.81518,13.62983z" fill="#3a3a3a"/><path d="M412.39648,221.45226l-0.62637,2.02699l-5.19344,0.70859l-1.38277,-9.6994l1.79403,-6.20587l1.81518,13.62984z" fill="#3a3a3a"/><path d="M419.03193,220.60243l-0.62637,2.02699l-5.19344,0.70859l-1.38277,-9.6994l1.79403,-6.20587l1.81518,13.62984z" fill="#3a3a3a"/><path d="M425.25698,219.80517l-0.62637,2.02699l-5.19344,0.70859l-1.38277,-9.6994l1.79403,-6.20587l1.81518,13.62983z" fill="#3a3a3a"/><path d="M431.20833,219.04291l-0.62637,2.02698l-5.19344,0.70857l-1.38277,-9.6994l1.79403,-6.20587l1.81518,13.62984z" fill="#3a3a3a"/><path d="M437.44118,218.24464l-0.62637,2.02698l-5.19344,0.70859l-1.38276,-9.6994l1.79403,-6.20588l1.81518,13.62984z" fill="#3a3a3a"/></g><g stroke-width="0"><g data-paper-data="{&quot;origPos&quot;:null}" fill="#5a5a5a"><g data-paper-data="{&quot;origPos&quot;:null}"><path d="M353.73797,228.96503l-1.74676,-13.63859l3.5425,-0.4537l1.74678,13.63858z" data-paper-data="{&quot;origPos&quot;:null}"/></g><g data-paper-data="{&quot;origPos&quot;:null}"><path d="M359.76016,228.19377l-1.74678,-13.63858l3.54249,-0.4537l1.74678,13.63858z" data-paper-data="{&quot;origPos&quot;:null}"/><path d="M365.95948,227.39976l-1.74678,-13.63858l3.5425,-0.4537l1.74676,13.63859z" data-paper-data="{&quot;origPos&quot;:null}"/></g></g><g data-paper-data="{&quot;origPos&quot;:null}" fill="#5a5a5a"><g data-paper-data="{&quot;origPos&quot;:null}"><path d="M372.51316,226.56041l-1.74676,-13.63859l3.54251,-0.4537l1.74678,13.63858z" data-paper-data="{&quot;origPos&quot;:null}"/><path d="M378.71257,225.76638l-1.74678,-13.63858l3.5425,-0.4537l1.74676,13.63859z" data-paper-data="{&quot;origPos&quot;:null}"/></g><g data-paper-data="{&quot;origPos&quot;:null}"><path d="M384.73478,224.99507l-1.74678,-13.63858l3.5425,-0.4537l1.74676,13.63859z" data-paper-data="{&quot;origPos&quot;:null}"/><path d="M390.9342,224.20111l-1.74676,-13.63859l3.5425,-0.4537l1.74677,13.63859z" data-paper-data="{&quot;origPos&quot;:null}"/></g></g><path d="M357.34124,228.50355l-0.62637,2.02699l-2.70218,0.38953l-0.26477,-1.95636z" fill="#3a3a3a"/><path d="M363.36107,227.73258l-0.62637,2.02699l-5.19344,0.70859l-1.38276,-9.6994l1.79403,-6.20587l1.81518,13.62984z" fill="#3a3a3a"/><path d="M369.5176,226.94403l-0.62637,2.02698l-5.19344,0.70859l-1.38278,-9.69939l1.79403,-6.20588l1.81518,13.62984z" fill="#3a3a3a"/><path d="M376.15309,226.09417l-0.62637,2.02698l-5.19344,0.70859l-1.38276,-9.6994l1.79403,-6.20587l1.81518,13.62984z" fill="#3a3a3a"/><path d="M382.3782,225.29694l-0.62637,2.02698l-5.19344,0.70857l-1.38277,-9.6994l1.79403,-6.20587l1.81518,13.62984z" fill="#3a3a3a"/><path d="M388.32954,224.53463l-0.62637,2.02698l-5.19344,0.70857l-1.38277,-9.6994l1.79403,-6.20588l1.81518,13.62984z" fill="#3a3a3a"/><path d="M394.56245,223.73638l-0.62637,2.02699l-5.19344,0.70857l-1.38277,-9.6994l1.79403,-6.20587l1.81518,13.62984z" fill="#3a3a3a"/></g><g><g data-paper-data="{&quot;origPos&quot;:null}"><g data-paper-data="{&quot;origPos&quot;:null}" fill="none" stroke-width="1" font-family="sans-serif" font-weight="normal" font-size="12" text-anchor="start"/><g data-paper-data="{&quot;origPos&quot;:null}" fill="#4b4b4b" stroke-width="0"><path d="M361.19067,236.43507l-0.28873,-2.25433l3.71962,-0.4764l0.28874,2.25432z" data-paper-data="{&quot;origPos&quot;:null}"/><path d="M354.97683,237.11636l-0.28873,-2.25433l3.71962,-0.4764l0.28873,2.25433z" data-paper-data="{&quot;origPos&quot;:null}"/></g></g><g data-paper-data="{&quot;origPos&quot;:null,&quot;index&quot;:null}" fill="#4b4b4b" stroke-width="0"><g data-paper-data="{&quot;origPos&quot;:null}"><path d="M380.21076,233.76987l-0.28873,-2.25432l3.71963,-0.4764l0.28873,2.25432z" data-paper-data="{&quot;origPos&quot;:null}"/><path d="M386.39568,232.86318l-0.28872,-2.25431l3.71963,-0.4764l0.28873,2.25432z" data-paper-data="{&quot;origPos&quot;:null}"/></g><g data-paper-data="{&quot;origPos&quot;:null}"><path d="M367.82639,235.47064l-0.28873,-2.25433l3.71963,-0.4764l0.28873,2.25432z" data-paper-data="{&quot;origPos&quot;:null}"/><path d="M374.01134,234.56386l-0.28873,-2.25433l3.71963,-0.4764l0.28873,2.25433z" data-paper-data="{&quot;origPos&quot;:null}"/></g></g></g></g><path d="M180.96321,221.54208l0.49574,-4.31301c0,0 4.17387,-3.70776 7.65733,-4.30514c3.98227,-0.68293 33.71156,-4.46538 33.71156,-4.46538c0,0 0.89495,1.77646 0.99707,2.99051c0.13161,1.56415 -1.57803,4.87279 -1.57803,4.87279z" fill="#242424" stroke-width="0"/><path d="M205.16335,214.60141l-0.40021,-3.12476l17.85593,-2.28697l0.40021,3.12476z" fill="#313131" stroke-width="0"/><path d="M202.14154,216.93487l-0.08284,-0.64697c0,0 0.9257,-1.1783 1.94046,-1.30828c0.96362,-0.12338 3.1942,0.06968 5.64698,-0.07973c4.67254,-0.28473 10.26823,-0.89885 10.26823,-0.89885l0.08284,0.64697c0,0 -5.38456,0.68758 -9.99238,0.96455c-2.51423,0.15114 -4.83635,-0.1251 -5.83595,0.00293c-1.05071,0.13456 -2.02731,1.31938 -2.02731,1.31938z" fill="#616161" stroke-width="0"/><path d="M227.05894,197.90428l12.97496,1.38955l31.27488,1.34588c0,0 0.75567,0.12923 -7.36983,0.43575c-2.76416,0.10426 -13.5207,-0.14024 -22.91054,-0.85603c-2.54077,-0.19367 -16.20396,-1.91264 -16.20396,-1.91264z" fill="#df8cb7" stroke-width="0"/><path d="M48.24376,227.19431l-0.75377,-5.88502c0,0 5.50062,-2.47178 9.27363,-2.95499c3.08882,-0.3956 11.94798,2.0043 11.94798,2.0043l1.42511,12.18844z" fill="#626061" stroke-width="0"/><path d="M164.63158,222.35509l4.08387,2.00342l11.97983,-2.86828l50.33382,-6.44654l0.13865,1.08221c0,0 -37.77628,4.69183 -49.54991,6.46408c-3.23243,0.4866 -12.76169,2.43381 -12.76169,2.43381z" fill="#ffa6d4" stroke-width="0"/><path d="M53.50631,290.97282l-0.91082,-7.11152l21.12522,-19.4717l0.14223,13.76235l-12.47217,11.81107z" fill="#3f3d3e" stroke-width="0"/><path d="M51.24659,286.16075c0,0 -2.31048,-19.51645 -2.72873,-29.12446c-0.47211,-10.84415 0.0379,-32.68201 0.0379,-32.68201c0,0 8.52073,-1.28217 12.28284,-0.10475c3.21986,1.00768 8.91733,6.73974 8.91733,6.73974l4.26232,33.27972c0,0 -10.02055,15.09341 -12.75375,17.72102c-4.20418,4.04177 -10.01789,4.17079 -10.01789,4.17079z" fill="#555354" stroke-width="0"/><path d="M49.75261,234.88603c0,0 -2.289,-5.74869 -0.58224,-8.68653c1.70675,-2.93786 5.89189,-4.4991 8.43139,-4.82435c2.02584,-0.25947 6.22828,-0.71834 9.64482,3.33903c3.41654,4.05734 2.35982,10.91723 2.35982,10.91723c0,0 -7.57045,-9.51909 -10.16015,-9.61631c-3.65432,-0.13718 -9.6937,8.87097 -9.6937,8.87097z" fill="#6f6b6c" stroke-width="0"/><path d="M50.42424,291.17771c0,0 -1.61031,-26.06919 -3.06406,-37.42025c-1.51402,-11.82124 -4.35865,-32.34456 -4.35865,-32.34456c0,0 1.06517,-0.78464 2.09757,-0.9169c0.94398,-0.12093 2.57983,0.31783 2.57983,0.31783c0,0 2.22087,19.02732 3.5795,29.63543c1.57849,12.32478 2.56773,40.2927 2.56773,40.2927z" fill="#333232" stroke-width="0"/><path d="M50.05332,291.6725l-0.78319,-14.7281c0,0 1.15957,0.74763 1.74921,0.63312c0.74456,-0.14458 2.22539,-1.78348 2.22539,-1.78348l0.7456,15.37418z" fill="#2e2d2d" stroke-width="0"/><path d="M71.00031,252.43362c1.0372,8.09848 -1.9524,17.22012 -5.91039,20.67834c-3.28723,2.87219 -9.86663,10.52796 -10.90382,2.4295c-0.22003,-1.71808 0.29835,-13.76084 -0.46731,-20.75003c-1.01256,-9.24309 -3.27774,-13.97454 -2.68743,-16.90492c1.06748,-5.29857 6.35802,-7.46769 8.55459,-7.74903c4.32989,-0.55453 10.37719,14.19767 11.4144,22.29614z" fill="#585758" stroke-width="0"/><path d="M106.97197,262.02456l-0.80891,-1.65136c0,0 7.7038,-2.34826 13.61154,-3.59298c8.31672,-1.75233 31.58199,-5.92916 31.58199,-5.92916l1.94415,1.04267c0,0 -24.70134,4.79729 -33.24689,6.66596c-2.5097,0.54881 -13.08184,3.46493 -13.08184,3.46493z" fill="#585657" stroke-width="0"/><path d="M102.80629,275.86643l3.40839,-14.23974l7.06285,-1.86301c0,0 -1.17603,4.49934 -0.99445,5.23743c0.86738,3.52671 6.88474,26.91883 6.88474,26.91883c0,0 -1.40953,0.62454 -2.82757,-1.0847c-2.54434,-3.06694 -5.23672,-9.64016 -7.24174,-11.50318c-1.73235,-1.60966 -6.2922,-3.46559 -6.2922,-3.46559z" fill="#5a5759" stroke-width="0"/><path d="M111.32089,243.72024l1.42572,-11.60847l2.30032,-0.40664l-2.49963,11.97001z" fill="#a5a0a2" stroke-width="0"/><path d="M117.91796,241.78297l-0.17821,-1.39141l26.28158,-3.36605l0.17821,1.3914z" fill="#494748" stroke-width="0"/><path d="M117.46051,238.84598l-0.17821,-1.39141l26.28158,-3.36605l0.17821,1.39141z" fill="#494748" stroke-width="0"/><path d="M101.0312,263.54095l-2.55832,-19.97521l10.92653,-11.0942l4.76571,-0.92469l-10.70491,44.53426l-5.82028,-1.27426z" fill="#dbd5d8" stroke-width="0"/><path d="M76.26096,278.72517l-1.65451,-11.67521l26.33824,-4.16921c0,0 0.65,2.47524 0.62229,3.28375c-0.06896,2.01558 -1.17863,9.1522 -1.17863,9.1522z" fill="#ccc6c9" stroke-width="0"/><path d="M78.57304,266.94559l-0.04014,-0.31324l22.5218,-3.76003l-2.43384,1.50569c0,0 -4.26297,0.73372 -6.95378,1.04631c-3.68442,0.42808 -13.09409,1.52128 -13.09409,1.52128z" fill="#d8d1d5" stroke-width="0"/><path d="M81.58531,262.79249l-2.15966,-16.86222l15.99437,-2.04849l2.15966,16.86222z" fill="#a39999" stroke-width="0"/><path d="M76.00817,278.92865l-1.44312,-11.26725c0,0 9.57663,5.2123 14.1259,6.98936c4.54931,1.77706 10.96226,0.67343 10.96226,0.67343z" fill="#b4afb1" stroke-width="0"/><path d="M110.14646,280.64839c0,0 3.1371,0.64721 4.2061,0.3654c0.65667,-0.17317 1.59774,-1.89558 1.59774,-1.89558l2.79775,8.78899l0.53294,4.16111c0,0 -1.88773,0.55576 -3.48451,-1.84341c-1.31745,-1.9795 -5.64999,-9.57647 -5.64999,-9.57647z" fill="#504e4f" stroke-width="0"/><path d="M103.17899,276.37962l9.04133,-43.24254l1.75552,-0.01804l-8.88748,43.63642z" fill="#858183" stroke-width="0"/><path d="M81.30165,238.09264l1.29285,-1.82955c0,0 27.11165,-4.12153 39.42142,-5.69809c10.684,-1.36835 31.73097,-3.70812 31.73097,-3.70812l0.77182,1.85839c0,0 -21.21442,2.00534 -32.47603,3.44767c-12.85934,1.64701 -40.74099,5.92969 -40.74099,5.92969z" fill="#918b8e" stroke-width="0"/><path d="M82.15524,236.74252l1.76085,-2.18282c0,0 25.63372,-3.6389 37.94343,-5.21552c10.68399,-1.36835 31.73097,-3.70812 31.73097,-3.70812l0.77181,1.85839c0,0 -21.21441,2.00534 -32.47603,3.44766c-12.85934,1.64701 -39.73102,5.8003 -39.73102,5.8003z" fill="#a59fa2" stroke-width="0"/><path d="M148.8811,249.15235l-2.63185,-5.39199c0,0 0.05682,-1.22218 0.37277,-1.37632c0.27838,-0.13588 1.42449,0.49905 1.42449,0.49905l2.63185,5.392c0,0 -0.16241,0.90563 -0.44142,1.04178c-0.31561,0.15406 -1.35588,-0.16451 -1.35588,-0.16451z" fill="#494242" stroke-width="0"/><path d="M109.26925,256.89596l2.30911,-9.85894l3.85423,-0.49365l-2.30911,9.85894z" fill="#9c989a" stroke-width="0"/><path d="M116.50078,238.04837l1.71278,-1.19521l24.24313,-3.08674l2.12238,0.68588z" fill="#757274" stroke-width="0"/><path d="M116.95144,240.82493l1.71278,-1.19522l24.24312,-3.08673l2.12239,0.68585z" fill="#757274" stroke-width="0"/><path d="M73.48226,278.26118l-5.69512,-57.9034l1.9785,0.33207l6.2872,58.23195z" fill="#686666" stroke-width="0"/><path d="M73.35454,278.55005l-1.41583,-16.20718l2.75762,3.49648l1.25804,13.25767z" fill="#535252" stroke-width="0"/><path d="M100.94534,251.9548c0,0 1.80887,-2.59631 1.68857,-3.5354c-0.11801,-0.92159 -2.40365,-2.04768 -2.40365,-2.04768c0,0 3.06279,0.28291 3.17394,1.97078c0.08465,1.28566 -0.67935,3.59038 -0.62597,4.69493c0.15173,3.14062 0.4021,10.51592 0.4021,10.51592z" fill="#c4bec1" stroke-width="0"/><path d="M108.31629,249.0835l0.6009,-10.35569l1.97506,-4.64278l-1.41925,9.81802z" fill="#aca7a9" stroke-width="0"/></g></g><g stroke-width="0"><path d="M221.88299,206.48052l2.11135,-3.62679c0,0 1.61031,-1.65429 2.46355,-1.48636c0.97281,0.19149 3.06164,2.574 3.06164,2.574l-0.01898,4.11771c0,0 -4.24752,0.5364 -5.52046,0.56503c-0.57387,0.01292 -2.097,-2.14361 -2.097,-2.14361z" fill="#c0c0c0"/><path d="M180.53797,221.50574c0,0 -0.5409,-2.83425 0.36497,-4.09842c1.13524,-1.58429 6.88489,-4.55098 6.88489,-4.55098l-0.10304,4.78899l0.37111,2.89755z" fill="#838383"/><path d="M180.35776,221.45392l7.08867,-8.45029l37.25797,-4.77186l0.95043,7.42065z" fill="#999999"/><path d="M181.26523,220.67584l5.36774,-6.57633l33.4987,-4.29038l0.74205,5.79377c0,0 -4.05448,0.51925 -9.27007,1.18731c-3.39098,0.43435 -7.40765,-0.12191 -10.98509,0.33623c-3.83772,0.49149 -7.19029,1.99159 -9.34581,2.26767c-4.21868,0.54032 -10.00748,1.28169 -10.00748,1.28169z" fill="#2e2e2e"/><path d="M184.7289,220.23005l7.55113,-6.91866l12.36311,-1.58341c0,0 -7.07402,2.82894 -9.30871,4.03719c-2.37243,1.28264 -5.29047,3.78416 -5.29047,3.78416z" fill="#a5899d"/><path d="M192.63899,219.10328c0,0 4.92042,-1.61026 7.35762,-1.92239c3.11413,-0.39886 9.79907,-0.27499 9.79907,-0.27499l-9.61841,0.89396z" fill="#adadad"/><path d="M180.45912,221.4226l6.40267,-7.62682l34.68337,-4.44207l0.08747,0.683c0,0 -30.03149,3.84632 -33.94613,4.34769c-0.81877,0.10487 -7.22731,7.03825 -7.22731,7.03825z" fill="#8a8a8a"/><path d="M228.03644,221.61582l-1.23929,-9.6763l-0.26944,-7.22622c0,0 1.23725,0.31527 1.85828,0.80386c0.62099,0.48857 1.14461,1.55856 1.14461,1.55856l0.50256,14.28442z" fill="#9e9e9e"/><path d="M222.09158,218.11191c0,0 -1.17434,-1.99186 -1.51177,-3.55077c-0.45444,-2.09921 -0.30688,-7.68137 -0.30688,-7.68137l1.88436,-0.56934c0,0 0.8533,0.68897 1.30838,0.48031c0.62741,-0.28766 2.1079,-2.04673 2.1079,-2.04673l1.12975,12.77731z" fill="#9c9c9c"/><path d="M222.89344,219.85478c-0.91635,-0.99611 -0.85231,-2.38866 -0.85231,-2.38866l3.92349,-7.76171c0,0 1.87573,3.67526 1.99216,4.5843c0.33099,2.58442 1.93273,7.1678 1.93273,7.1678c0,0 -2.94532,0.46164 -4.03148,0.15854c-1.30272,-0.3635 -2.04813,-0.76423 -2.96452,-1.76034z" fill="#888888"/><path d="M224.56136,218.86058c-1.2343,-1.85798 -2.80362,-6.15652 -1.49126,-10.42459c1.31237,-4.26809 3.97791,-2.4609 3.97791,-2.4609c0,0 1.56024,4.25929 1.85406,6.55339c0.26767,2.08976 -0.16228,6.65549 -0.16228,6.65549c0,0 -2.94409,1.53458 -4.1784,-0.32346z" fill="#b4b4b4"/><path d="M227.7118,210.69897c0.17928,1.39965 -4.87947,2.12557 -5.05873,0.72599c-0.17928,-1.39965 2.16843,-7.14664 2.97427,-7.24981c0.3121,-0.03993 0.96368,-0.02077 1.29334,1.00641c0.5215,1.62498 0.68128,4.65994 0.79113,5.51748z" fill="#bbbbbb"/></g><g stroke-width="0"><path d="M164.53409,222.35229c0,0 -6.43379,-4.13347 -6.67179,-5.99169c-0.19436,-1.51725 5.77734,-2.4062 5.77734,-2.4062l7.4933,-0.88727l-2.62219,11.20283z" fill="#f399c8"/><path d="M134.46382,227.85868c0,0 -1.22873,-1.9576 -1.10983,-3.05429c0.13121,-1.21031 1.71685,-5.04774 1.71685,-5.04774l22.8279,-3.11089l10.14771,7.39394z" fill="#ee96c3"/></g></g><g stroke-width="0"><g><path d="M226.67266,196.16254l-0.78535,-6.13171l47.43071,-6.07474l0.78535,6.13171z" fill="#61585b"/><path d="M226.09865,192.966l-0.42051,-3.28352l47.61107,-6.09783l0.42051,3.28351c0,0 -8.57086,1.0977 -17.37528,2.22536c-2.75279,0.35256 -6.43014,2.35319 -8.97377,2.67893c-3.02467,0.38738 -6.46132,-0.7021 -8.40152,-0.45363c-5.81781,0.74512 -12.8605,1.64708 -12.8605,1.64708z" fill="#494344"/><path d="M286.58595,178.55987l-11.66292,-17.59385l20.74975,-2.65752l17.43451,14.67837c0,0 -5.49089,2.07576 -8.66397,2.74252c-4.89628,1.02889 -17.85735,2.83049 -17.85735,2.83049z" fill="#5e555b"/><path d="M287.02446,181.96682l-0.70359,-5.49361c0,0 12.01423,-3.00373 16.76772,-4.39853c3.77242,-1.10693 6.4815,-2.04069 6.4815,-2.04069l6.77275,6.12803c0,0 -5.08641,2.26061 -9.1443,3.22791c-5.49819,1.31061 -20.17399,2.57696 -20.17399,2.57696z" fill="url(#color-5)"/><path d="M273.2621,161.33886l-0.50765,-3.96382l18.99637,-2.43296l4.1146,3.50183z" fill="url(#color-6)"/><path d="M286.44853,182.06571l-0.15995,-1.24904c0,0 15.47353,-2.05881 20.79511,-2.9093c3.97921,-0.63592 8.16358,-2.76158 8.16358,-2.76158l1.02708,1.02256l-7.89387,3.08837z" fill="#312c30"/><g><path d="M184.90071,184.38439l-1.34997,-8.75781l93.1643,-11.93212l9.01185,10.2198z" fill="#8a6672"/><path d="M202.35857,190.50181c0,0 -3.94908,-3.12945 -6.91672,-4.22288c-2.96766,-1.09347 -9.94149,0.03911 -9.94149,0.03911l-0.15387,-2.0844c0,0 12.25854,-1.29141 19.243,-2.08988c16.68492,-1.90767 80.43384,-9.3065 80.43384,-9.3065l4.42809,6.05351z" fill="#755761"/><path d="M205.50046,192.61073l-3.33019,-2.18648l86.8146,-11.61221l1.58714,2.90301z" fill="#694e57"/><path d="M183.4377,176.04044l-0.57534,-4.4923l89.98414,-12.20973l4.53767,5.1263c0,0 3.15689,2.96099 -2.08974,3.60744c-1.65165,0.20351 -11.12657,-1.97898 -12.78238,-1.77496c-15.94636,1.96483 -79.07428,9.74323 -79.07428,9.74323z" fill="#916b77"/><path d="M183.10228,171.51751l-0.43862,-2.48897l89.16271,-11.55945l1.34063,2.24013z" fill="#9e7582"/><path d="M256.71437,162.77906c-8.08474,0.38225 -72.3558,7.57309 -72.3558,7.57309l87.14223,-11.16081l5.70722,6.77097c0,0 -12.40883,-3.56547 -20.49363,-3.18322z" fill="#b38f9a"/></g><path d="M236.12182,188.68594l-1.1654,-9.09946l20.04846,-2.56775l1.1654,9.09947z" fill="#3a3336"/><path d="M234.86982,179.60179l0.51724,-1.60119l18.38822,-2.3551l1.17055,1.385z" fill="#4b4246"/><path d="M236.19738,188.17282l-1.03887,-8.11133c0,0 1.71951,5.08863 4.49647,5.84828c2.77696,0.75969 16.03062,-0.23294 16.03062,-0.23294z" fill="#332c30"/><path d="M274.79019,163.38513l-4.65046,-5.4534c0,0 0.92997,-0.79121 1.52572,-0.86748c0.66603,-0.0853 2.28314,0.37972 2.28314,0.37972l4.65046,5.4534z" fill="#757575"/><path d="M278.3876,167.69763l-6.68274,-7.82671l3.80889,-0.48782l6.68274,7.8267z" fill="#5a5a5a"/><path d="M283.41736,173.55508l-6.68274,-7.8267l3.80888,-0.48782l6.68274,7.82671z" fill="#505050"/><path d="M288.61942,179.62308c-1.14138,-1.33677 -5.59491,-6.55268 -5.59491,-6.55268l3.80888,-0.48781l7.87214,9.40262c0,0 -1.97108,0.79232 -2.91481,0.89826c-0.7361,0.08265 -2.66803,-2.67094 -3.1713,-3.2604z" fill="#3b3b3b"/><path d="M183.70118,187.15741l-2.37242,-18.52344l3.15519,-0.40411l2.37242,18.52344z" fill="#443e42"/><path d="M165.18111,191.14142l-1.43327,-5.79289l20.06466,-2.56984l0.7531,5.88z" fill="url(#color-7)"/><path d="M163.82796,185.97403l-1.37799,-10.7591l20.06466,-2.56984l1.37799,10.75911z" fill="#5e555b"/><path d="M162.46603,175.34023l0.26472,-4.23014l19.27113,-2.46819l0.52875,4.12852z" fill="url(#color-8)"/><path d="M231.69336,162.4765l-0.7792,-6.08364l15.03602,-0.8504l5.18326,4.08574z" fill="#5e555b"/><path d="M251.17868,159.98089l-5.21715,-4.35025c0,0 3.07948,0.30183 5.41652,1.00894c2.33701,0.70709 6.23695,2.51694 6.23695,2.51694z" fill="#776b73"/><path d="M228.84237,164.00664l3.016,-1.64088l25.35876,-3.51667l3.80689,1.03591z" fill="#6d6269"/></g><g><path d="M237.05228,184.56423c-0.15864,-1.23869 0.20062,-2.45087 0.45526,-3.52144c0.35484,-1.49185 0.80157,-2.74657 1.97733,-3.75025c0.7182,-0.61311 1.79677,-1.1438 2.74717,-1.50784c0.62857,-0.24077 1.56884,-0.76451 2.26616,-0.85384c1.58079,-0.20248 1.93071,-0.16487 3.13414,0.18107c0.72492,0.20841 2.40815,0.44557 3.02418,1.0443c0.52141,0.50672 1.11382,1.38717 1.53912,2.01787c0.72673,1.07787 1.75957,2.82533 1.93598,4.20269c0.07457,0.58208 -0.24336,1.97219 -0.22716,2.48977c0.05147,1.64322 0.11549,2.1488 -0.94792,3.39749c-0.64638,0.75895 -2.0718,1.49384 -2.99559,2.02544c-0.95664,0.55058 -2.11207,1.5717 -3.27534,1.7207c-0.78508,0.10056 -2.26955,-0.24866 -3.04745,-0.28638c-1.68764,-0.08177 -2.59466,-0.14144 -3.76061,-1.14162c-0.9999,-0.85764 -1.46143,-2.40993 -1.99525,-3.71025c-0.2804,-0.68313 -0.73183,-1.54036 -0.83014,-2.30776z" fill="#3a3a3a"/><path d="M237.76232,184.35372c-0.14518,-1.13359 0.18364,-2.2428 0.41659,-3.22251c0.32472,-1.36516 0.7335,-2.51333 1.80948,-3.43187c0.6572,-0.56101 1.64425,-1.04667 2.5139,-1.37982c0.57525,-0.22032 1.43571,-0.69964 2.07372,-0.78135c1.44659,-0.18528 1.76679,-0.15088 2.86806,0.16566c0.66337,0.1907 2.20366,0.40778 2.76742,0.95559c0.47718,0.46371 1.01932,1.26943 1.40844,1.84657c0.66506,0.98637 1.61019,2.58546 1.77158,3.84585c0.06823,0.53264 -0.2227,1.80471 -0.20787,2.27841c0.04713,1.5037 0.1057,1.96634 -0.86749,3.10901c-0.5915,0.69453 -1.89594,1.36695 -2.74121,1.85347c-0.87543,0.50384 -1.93278,1.43829 -2.99722,1.57465c-0.71841,0.09203 -2.07686,-0.22755 -2.7887,-0.26201c-1.54433,-0.07476 -2.37433,-0.12942 -3.44137,-1.04466c-0.915,-0.78486 -1.33735,-2.20533 -1.82578,-3.39527c-0.25654,-0.62513 -0.66967,-1.4096 -0.75964,-2.1118z" fill="#5a5a5a"/><path d="M249.28007,178.3122c-2.33147,-2.10667 -7.40915,-1.65857 -7.40915,-1.65857c0,0 1.85794,-0.78239 3.83288,-1.02832c1.59974,-0.19924 3.20567,-0.03749 4.52108,1.10566c1.3165,1.14407 1.89581,2.5667 2.35755,3.91448c0.90534,2.64237 0.77504,5.07142 0.77504,5.07142c0,0 -1.74594,-5.29796 -4.07741,-7.40459z" fill="#6d6d6d"/><path d="M244.63391,183.96707c-0.07318,-0.57104 0.33046,-1.09325 0.90158,-1.16642c0.57104,-0.07318 1.09325,0.33046 1.16642,0.90159c0.07318,0.57104 -0.33046,1.09325 -0.90159,1.16641c-0.57104,0.07318 -1.09325,-0.33046 -1.16641,-0.90159z" fill="#272727"/><path d="M244.57293,184.11285c-0.06706,-0.5238 0.30312,-1.0027 0.82686,-1.06983c0.5238,-0.06706 1.0027,0.30312 1.06983,0.82686c0.06706,0.5238 -0.30312,1.0027 -0.82685,1.06983c-0.5238,0.06706 -1.0027,-0.30312 -1.06983,-0.82685z" fill="#131313"/></g></g></g></g></g><path d="M170.38549,304.40018c-0.20132,-1.57184 -9.84046,-43.31148 -9.56195,-45.03599c0.37606,-2.32841 8.96006,-2.06616 11.70869,-3.9383c8.41798,-5.73376 17.56872,-11.53033 17.56872,-11.53033c0,0 14.02813,-1.21146 18.23031,-1.74959c3.14246,-0.40249 62.88587,-16.6138 64.93252,-6.47007c2.776,13.75877 -41.88777,7.66503 -40.34672,19.69738c0.3901,3.04604 2.80516,2.9338 2.64382,6.12743c-0.03874,0.76648 -1.71348,6.20215 -1.72306,7.89317c-0.01526,2.68424 3.76168,6.23573 0.87209,9.7304c-2.3034,2.78576 0.25022,7.51653 -0.22896,8.80346c-3.30197,8.8683 -12.04667,6.15277 -20.98652,7.29776c-10.59944,1.35756 -25.55055,7.02619 -35.0153,6.99093c-4.08557,-0.01526 -7.50762,6.75929 -8.0936,2.18391z" fill="#86c8f5" stroke-width="0"/></g></g></svg>