<svg version="1.1" xmlns="http://www.w3.org/2000/svg" xmlns:xlink="http://www.w3.org/1999/xlink" width="468.6965" height="152.40323" viewBox="0,0,468.6965,152.40323"><defs><linearGradient x1="509.28142" y1="213.8801" x2="508.41756" y2="218.6135" gradientUnits="userSpaceOnUse" id="color-1"><stop offset="0" stop-color="#1f1d20"/><stop offset="1" stop-color="#202022"/></linearGradient><linearGradient x1="510.58553" y1="209.18283" x2="509.59155" y2="214.62909" gradientUnits="userSpaceOnUse" id="color-2"><stop offset="0" stop-color="#302d31"/><stop offset="1" stop-color="#1f1e20"/></linearGradient><linearGradient x1="172.61056" y1="196.36455" x2="172.00191" y2="199.69949" gradientUnits="userSpaceOnUse" id="color-3"><stop offset="0" stop-color="#585758"/><stop offset="1" stop-color="#575758"/></linearGradient><linearGradient x1="157.90094" y1="203.92494" x2="157.42313" y2="206.54308" gradientUnits="userSpaceOnUse" id="color-4"><stop offset="0" stop-color="#363536"/><stop offset="1" stop-color="#353536"/></linearGradient><linearGradient x1="315.59941" y1="138.37134" x2="314.60505" y2="143.81982" gradientUnits="userSpaceOnUse" id="color-5"><stop offset="0" stop-color="#5e555b"/><stop offset="1" stop-color="#2b2629"/></linearGradient><linearGradient x1="309.71095" y1="116.28833" x2="308.99346" y2="120.21959" gradientUnits="userSpaceOnUse" id="color-6"><stop offset="0" stop-color="#72676e"/><stop offset="1" stop-color="#5e555b"/></linearGradient><linearGradient x1="196.09432" y1="109.68102" x2="195.02997" y2="115.51273" gradientUnits="userSpaceOnUse" id="color-7"><stop offset="0" stop-color="#5e555b"/><stop offset="1" stop-color="#4d454a"/></linearGradient><linearGradient x1="198.65318" y1="95.66035" x2="197.90587" y2="99.75495" gradientUnits="userSpaceOnUse" id="color-8"><stop offset="0" stop-color="#74686f"/><stop offset="1" stop-color="#5e555b"/></linearGradient></defs><g transform="translate(-45.57421,-93.98812)"><g data-paper-data="{&quot;isPaintingLayer&quot;:true}" fill-rule="nonzero" stroke="none" stroke-linecap="butt" stroke-linejoin="miter" stroke-miterlimit="10" stroke-dasharray="" stroke-dashoffset="0" style="mix-blend-mode: normal"><path d="M417.43199,225.63553c-0.14292,8.67234 -4.63857,13.78351 -22.07429,13.49614c-6.46728,-0.10658 -17.57858,-1.86306 -22.66186,-1.24187c-3.77793,0.46167 -7.02117,2.62258 -9.37117,0.69808c-3.01267,-2.46717 -2.58009,-22.31386 -2.52959,-25.37868c0.14292,-8.67234 22.69087,-15.32389 40.12655,-15.03653c17.43569,0.28736 16.65325,18.79051 16.51034,27.46286z" fill="#86c8f5" stroke-width="0"/><g><g><g stroke-width="0"><path d="M235.69232,192.63821l-7.30886,-16.93266l25.26583,4.01122c0,0 -2.12711,5.53689 -2.80828,8.15568c-0.65888,2.53324 -1.214,7.30894 -1.214,7.30894z" fill="#7f7d7e"/><path d="M235.75382,192.84945l-2.57377,-6.16926c0,0 1.68197,3.92076 4.75514,5.1065c2.21299,0.85384 4.12416,0.88759 6.70442,1.6846c2.58028,0.79702 4.85537,1.88606 4.85537,1.88606z" fill="#6c6a6b"/></g><g><g><g><path d="M505.47505,218.07649l-1.16166,-5.10307c0,0 5.59647,2.70661 7.99135,4.05131c2.39488,1.34469 0.6774,2.18613 0.6774,2.18613z" fill="url(#color-1)" stroke-width="0"/><path d="M514.07599,210.02277c0,0 1.03765,2.55561 -1.67779,2.96765c-2.71548,0.41204 -5.79093,1.09399 -5.79093,1.09399l0.0391,-5.62054z" data-paper-data="{&quot;index&quot;:null}" fill="url(#color-2)" stroke-width="0"/><path d="M496.01428,216.34516l0.37677,-2.06425l14.53252,2.65227c0,0 1.09453,1.00718 1.50867,1.45509c0.37228,0.40265 -0.89163,0.79057 -0.89163,0.79057z" fill="#444444" stroke-width="NaN"/><path d="M496.39841,214.42806l-0.85643,-1.93916l12.41066,2.26501l3.04404,2.22476c0,0 -4.19204,-0.52315 -6.46254,-0.91985c-2.56064,-0.44741 -8.13576,-1.63079 -8.13576,-1.63079z" fill="#535353" stroke-width="0"/><path d="M495.40715,212.60325l-0.20457,-0.68789l11.28733,2.06l1.5637,0.81978z" fill="#363636" stroke-width="0"/><path d="M496.01428,216.34516l0.20438,-1.11985c0,0 6.26729,1.60493 9.1003,2.12195c2.40071,0.43813 6.81652,0.78297 6.81652,0.78297c0,0 0.76709,0.60989 0.97397,0.85386c0.17454,0.20584 -0.32959,0.42092 -0.32959,0.42092c0,0 -4.72847,-0.45184 -7.00462,-0.86721c-3.07083,-0.56045 -9.76093,-2.19262 -9.76093,-2.19262z" fill="#3a3a3a" stroke-width="NaN"/><path d="M495.51499,211.99094l-0.38585,-0.96874l13.41997,2.44922l-1.95676,0.57569z" fill="#242424" stroke-width="0"/><path d="M494.30025,211.06328l0.29701,-1.62744c0,0 7.99885,1.25023 10.94592,1.78809c2.00786,0.36649 5.02677,1.12703 5.02677,1.12703l-2.05159,1.13952z" fill="#3a3a3a" stroke-width="0"/><path d="M494.46215,209.45446l0.36673,-2.00935c0,0 7.58814,1.04954 10.84856,1.64457c2.82137,0.51493 7.588,1.72021 7.588,1.72021l-2.74562,1.57519c0,0 -3.58073,-0.73732 -5.78865,-1.14031c-2.93488,-0.53562 -10.269,-1.79034 -10.269,-1.79034z" fill="#444444" stroke-width="0"/><path d="M494.77116,207.52103l0.15282,-0.83723c0,0 7.76809,1.29195 11.30685,1.93783c2.46409,0.44971 7.89432,1.5665 7.89432,1.5665l-1.00378,0.68192c0,0 -4.92005,-1.19138 -7.83709,-1.72375c-3.21381,-0.58657 -10.51315,-1.62528 -10.51315,-1.62528z" fill="#535353" stroke-width="0"/><path d="M494.78121,206.74429l0.06114,-0.33492c0,0 7.64261,0.87942 11.04675,1.50069c2.94314,0.53716 8.19694,2.01142 8.19694,2.01142l-0.02415,0.34165c0,0 -5.88161,-1.24109 -9.07392,-1.82373c-3.23403,-0.59025 -10.2067,-1.69511 -10.2067,-1.69511z" fill="#4e4e4e" stroke-width="0"/></g><g stroke-width="0"><g><g><g><path d="M490.34325,214.81411l-2.14394,-13.77236l0.85307,-1.5941c0,0 2.83857,3.80061 3.29882,6.41613c0.24986,1.41994 -0.57704,9.21147 -0.57704,9.21147z" fill="#383638"/><path d="M491.50145,214.32265c0,0 0.1669,-0.58929 -0.01078,-3.11718c-0.19374,-2.75673 -0.91059,-6.58469 -1.10451,-7.71179c-0.43533,-2.52998 -1.15453,-2.79389 -1.15453,-2.79389l4.82644,0.28945l2.45155,14.24743z" fill="#555355"/><path d="M489.27929,200.7953l-0.35038,-1.32074c0,0 2.13099,-0.42431 3.077,-0.25166c0.88646,0.16179 1.87268,1.08107 1.87268,1.08107l0.3373,1.39228z" fill="#686668"/></g><path d="M484.76272,213.79562l-2.14393,-13.77234l0.52402,-1.63366c0,0 3.16765,3.84017 3.62788,6.45566c0.24986,1.41993 -0.57703,9.21147 -0.57703,9.21147z" fill="#383638"/><path d="M485.92092,213.30415c0,0 0.1669,-0.5893 -0.01077,-3.11718c-0.19374,-2.75673 -0.91058,-6.58469 -1.1045,-7.71179c-0.43533,-2.52998 -1.15454,-2.79389 -1.15454,-2.79389l4.17841,-0.3371c0,0 0.78426,1.4181 0.91695,2.18923c0.37807,2.19703 2.18267,12.68471 2.18267,12.68471z" fill="#555355"/><path d="M483.69875,199.77677l-0.56503,-1.35992c0,0 2.34564,-0.38512 3.29164,-0.21245c0.88646,0.16179 1.58651,1.02882 1.58651,1.02882l0.46031,1.41472z" fill="#686668"/><path d="M492.48494,213.49198c0.14712,-0.80619 0.91996,-1.34046 1.7262,-1.19336c0.80621,0.14712 1.34046,0.91996 1.19335,1.72619c-0.14712,0.80619 -0.91996,1.34047 -1.72618,1.19336c-0.80621,-0.14712 -1.34045,-0.91996 -1.19336,-1.72619z" fill="#312f31"/><path d="M493.65583,210.72799l-0.97107,-5.81537l1.59123,0.14469l0.95948,5.87884z" fill="#444144"/></g><path d="M446.961,201.84809l-1.76026,-11.32358l29.18554,6.52246l-2.19497,9.40583z" fill="#444444"/><path d="M460.09947,200.26577c0,0 0.71936,-0.39926 1.62828,-1.35653c0.83106,-0.87522 1.83509,-2.29595 2.29674,-2.68311c1.26582,-1.50367 3.52188,-0.61737 3.52188,-0.61737l-1.08091,0.46658l-5.2417,4.39563z" fill="#292929"/><path d="M460.96286,211.1267l-4.43862,-11.96273c0,0 3.34649,1.15083 5.2108,0.42465c1.44871,-0.56433 1.82864,-3.17041 3.43079,-3.16354c4.59669,0.0197 17.33993,1.90435 17.33993,1.90435c0,0 1.9047,7.6106 2.29852,10.61722c0.27188,2.07565 -0.11901,6.50951 -0.11901,6.50951z" fill="#4a464a"/><path d="M467.38629,198.97394c-4.37251,-1.44457 -2.7102,-2.52767 -2.7102,-2.52767c0,0 1.01364,-1.13875 2.87685,-0.94728c4.57232,0.46989 12.97135,2.58919 14.6702,2.87317c0.80119,0.13392 0.21601,0.74672 0.21601,0.74672c0,0 -1.89356,2.07978 -3.4646,2.05131c-1.57105,-0.02848 -7.21578,-0.75167 -11.58827,-2.19627z" fill="#5e595e"/></g><g><path d="M448.17021,215.47586l-1.85729,-18.5707l18.54913,3.67636l3.94437,5.11973l6.0178,0.99811l0.51022,13.73414z" fill="#4d4846"/><path d="M452.71501,216.69884l22.00672,-5.5303l22.00248,3.76916c0,0 0.53971,4.35047 0.43711,5.70868c-0.05232,0.69249 -0.68102,2.86841 -0.68102,2.86841z" fill="#423d3b"/><path d="M450.45539,207.83815l-1.36003,-10.257l0.80718,0.14732l1.36004,10.257z" fill="#363332"/><path d="M453.43501,216.0154l0.21857,-1.19761c0,0 5.63595,-1.55891 14.55352,0.06859c1.18485,0.21626 4.9071,3.48307 6.10133,3.70104c7.57698,1.38283 14.99333,2.73637 17.81482,3.25128c2.29782,0.41937 4.87766,-0.43128 4.87766,-0.43128l-0.45199,2.47648z" fill="#312e2c"/><path d="M458.05375,203.90769l-0.88662,-4.85343l8.17269,1.49155l3.29368,5.09548l6.1692,1.32319l-7.81627,0.55441z" fill="#585350"/><path d="M447.45933,209.11586l0.20259,-1.10986c0,0 8.58723,-2.23822 11.41771,-1.72164c4.26589,0.77856 16.0427,2.92789 16.0427,2.92789l-0.20258,1.10986c0,0 -11.97871,-2.18617 -16.24451,-2.96472c-2.77232,-0.50597 -11.21591,1.75847 -11.21591,1.75847z" fill="#2b2827"/></g></g></g><g><g><g><path d="M110.60648,190.99666c0.1309,2.29478 -0.63839,4.78669 -1.75909,4.85061c-1.1207,0.06393 -2.16842,-2.32428 -2.29934,-4.61909c-0.1309,-2.29478 -0.69173,-11.1091 0.429,-11.17304c1.1207,-0.06393 3.49856,8.64671 3.62944,10.94155z" fill="#615e5f" stroke-width="0"/><g><path d="M156.89657,169.0216c-0.43584,-0.61588 -2.50284,-2.32717 -2.50284,-2.32717l10.27588,-1.05217l-7.19518,6.00578c0,0 -0.14201,-2.01055 -0.57783,-2.62643z" fill="#756a6a" stroke-width="0"/><path d="M148.32136,165.73136l2.4657,-13.51017l19.28549,-2.44385l-3.51896,19.2815z" fill="#8a7c7c" stroke-width="0"/><path d="M107.95815,163.90185l9.81399,-16.64175l34.38964,6.1408l2.18548,13.27475c0,0 -22.89931,-2.57719 -30.63773,-3.03991c-3.21229,-0.19208 -15.7514,0.26612 -15.7514,0.26612z" fill="#7c787a" stroke-width="0"/><path d="M117.45681,149.64711l0.12025,-1.48401c0,0 25.50296,4.65441 33.52038,6.11764c4.48575,0.81868 17.02948,-3.3676 17.02948,-3.3676l-0.29258,1.60316c0,0 -12.25087,4.22013 -16.58656,3.41393c-7.95002,-1.47825 -33.79098,-6.28311 -33.79098,-6.28311z" fill="#535353" stroke-width="0"/><path d="M76.27284,158.83863l3.61845,-19.8265c0,0 5.724,-6.12596 13.26271,-7.08403c9.36336,-1.18991 25.6572,3.59842 27.69421,3.97018c1.56319,0.28528 -14.56807,7.92999 -14.56807,7.92999l-3.61845,19.82652z" fill="#8d898b" stroke-width="0"/><path d="M254.69443,144.49661l2.14109,-2.80542l105.79165,19.45279l-2.64753,14.50663c0,0 -37.49809,-4.96761 -49.44559,-7.57108c-5.93349,-1.29298 -55.83959,-23.58293 -55.83959,-23.58293z" fill="#c98cac" stroke-width="0"/><path d="M215.2488,239.966l-2.14722,-13.54199c0,0 4.00615,6.66709 6.61418,8.2377c1.66163,1.00069 5.75059,2.13502 12.19968,0.83435c5.19176,-1.04709 11.26587,-5.54036 11.26587,-5.54036l-14.15635,12.52453z" fill="#a08e97" stroke-width="0"/><path d="M312.69145,210.05886l1.94105,-23.65734l18.49786,1.95004l-3.80571,20.85259c0,0 -6.60208,0.54261 -9.44763,0.73308c-1.31021,0.0877 -7.18552,0.12165 -7.18552,0.12165z" fill="#96858d" stroke-width="0"/><path d="M212.76849,243.32103l0.99469,-5.45014c0,0 11.49582,4.20076 16.60069,1.95955c2.4844,-1.09073 22.82053,-18.6575 34.04165,-28.43373c4.37901,-3.81515 7.36987,-6.44385 7.36987,-6.44385c0,0 3.9822,-3.10874 4.50363,-5.94339c0.26229,-1.42597 1.47484,-5.45239 1.07179,-7.87548c-0.40666,-2.44474 -2.43012,-3.27995 -2.43012,-3.27995l-2.35623,-14.22651l19.46823,3.6991l-7.6331,25.61918l3.23717,3.19499c0,0 -10.47703,4.1871 -15.92043,8.23121c-8.517,6.32749 -36.98152,32.01934 -36.98152,32.01934z" fill="#918189" stroke-width="0"/><path d="M289.82459,206.24409l6.3294,-27.92119l13.50229,2.74457l8.04039,13.66783l-5.13599,15.6583z" fill="#96858d" stroke-width="0"/><path d="M285.04154,207.25088l-1.72418,-4.52892l8.18361,-25.12894l5.01251,0.82871l-5.79712,28.00088z" fill="#8f8187" stroke-width="0"/><path d="M311.32783,210.27385c0,0 3.90403,-6.06469 3.54476,-11.63045c-0.2069,-3.20475 -4.68432,-6.02416 -4.81117,-7.98878c-0.24223,-3.75292 -0.617,-9.55874 -0.617,-9.55874l6.94397,5.70335c0,0 2.05565,7.70808 1.87855,12.00765c-0.11895,2.88868 -2.72328,8.89468 -4.10146,11.28495c-0.11618,0.2015 -1.25828,-0.09159 -1.33875,0.06178c-0.19658,0.37464 0.71044,0.77532 0.71044,0.77532z" fill="#86787e" stroke-width="0"/><path d="M315.90798,188.23626c0,0 -2.33053,-4.44559 -6.7625,-6.24214c-5.01748,-2.03389 -21.80449,-5.3376 -21.80449,-5.3376l157.72045,14.36886l1.68996,9.76388l5.78864,12.38319c0,0 -98.6924,-20.62587 -118.94621,-24.3223c-6.60912,-1.2062 -17.68584,-0.61388 -17.68584,-0.61388z" fill="#df8db7" stroke-width="0"/><path d="M155.70752,207.06007l1.79181,-36.54192c0,0 2.32927,-3.38751 2.86102,-3.5097c5.86272,-1.34715 39.29118,-6.07402 44.59065,-4.81583c5.80527,1.37827 -11.20899,10.39867 -11.20899,10.39867c0,0 -14.53941,-0.59412 -17.79891,3.13106c-4.42541,5.05773 -2.77247,22.99959 -2.77247,22.99959z" fill="#c77da3" stroke-width="0"/><path d="M232.32448,190.61984l-1.38243,-2.39235c0,0 7.99764,-7.2891 10.80332,-9.10765c2.89658,-1.87749 6.31212,-1.98611 6.31212,-1.98611l5.42568,3.33042c0,0 -4.3131,-1.29805 -6.94659,-0.03404c-2.26073,1.08509 -6.50463,3.44009 -9.81453,5.9794c-2.40772,1.84719 -4.39757,4.21028 -4.39757,4.21028z" fill="#414041" stroke-width="0"/><path d="M117.33047,148.56047l6.82073,-10.63777l47.83825,8.73075c0,0 -3.65142,3.86271 -7.07331,5.23677c-3.35849,1.34861 -13.2714,2.93278 -13.2714,2.93278z" fill="#979395" stroke-width="0"/><path d="M118.32266,147.57976l6.03375,-10.78143l47.83826,8.73076c0,0 -3.65143,3.8627 -7.07332,5.23677c-3.35849,1.34861 -13.27141,2.93278 -13.27141,2.93278z" fill="#bdb7ba" stroke-width="0"/><path d="M313.63931,211.02171l-1.75028,-0.8414l17.32465,-1.0819c0,0 -3.8719,1.38475 -6.45858,1.72271c-2.58668,0.33802 -9.11578,0.20058 -9.11578,0.20058z" fill="#887980" stroke-width="0"/><path d="M158.06943,207.96326c0,0 -0.42321,-10.71559 -0.0718,-19.33093c0.35316,-8.65741 0.7093,-16.77203 1.33119,-20.30244c0.10538,-0.5981 3.50962,-10.07151 4.0949,-10.49471c3.15912,-2.28437 9.38486,6.72337 15.05669,6.63672c8.39808,-0.12828 27.28837,2.79672 27.28837,2.79672l-9.26981,3.7066c0,0 -19.64796,-0.67343 -22.9231,3.95093c-4.42992,6.25491 -0.72966,28.14777 -0.72966,28.14777z" fill="#d486ae" stroke-width="0"/><path d="M159.81435,204.70474c0,0 0.78523,-41.40339 3.89979,-51.0784c1.45727,-4.52682 -0.20781,-14.08903 -0.20781,-14.08903l48.59278,15.95223l-1.48444,16.06452c0,0 -30.96627,-8.79583 -38.33992,-3.76397c-4.92217,3.35892 -3.2945,32.36558 -3.2945,32.36558z" fill="#e490bb" stroke-width="0"/><g stroke-width="0"><path d="M307.29891,167.58727l1.48568,-8.14043l9.20789,1.6805l-1.48568,8.14044z" fill="#454545"/><path d="M308.25505,166.98434l0.95935,-7.24354l11.14213,2.0335l-1.31031,7.1795z" fill="#b0b0b0"/><path d="M308.83419,162.52683l0.2833,-2.82535l11.35527,2.07238l-0.34245,1.8764c0,0 -7.72412,-1.08192 -9.42076,-1.25066c-0.56693,-0.05636 -1.87537,0.1272 -1.87537,0.1272z" fill="#bebebe"/><path d="M319.39423,168.45868c0,0 -4.99187,-3.50861 -3.75728,-7.09287c1.83458,-5.32618 5.80296,-4.11593 5.80296,-4.11593l39.3491,8.5368l-1.80629,9.89713z" fill="#9c989a"/><path d="M321.38394,167.51128c0,0 -1.81456,-3.90823 -1.88836,-4.86384c-0.10937,-1.41651 2.38397,-3.96762 2.38397,-3.96762l40.91386,7.50092l-1.738,7.29517z" fill="#898587"/><path d="M321.25946,167.69012l-0.65483,-2.09094l37.61049,6.86414l-0.3482,1.90789z" fill="#c1bcbf"/><path d="M321.74962,164.32956c0,0 -1.06607,-1.58515 -0.89779,-2.50726c0.15745,-0.86255 1.87708,-2.85865 1.87708,-2.85865l38.03836,6.94222l-0.97932,5.3659z" fill="#0d0d0d"/><path d="M321.61004,165.09423c0,0 -0.95766,-2.17909 -0.78936,-3.10122c0.15745,-0.86255 1.76867,-2.26469 1.76867,-2.26469l38.03836,6.94222l-0.97931,5.36591z" fill="#2e2e2e"/><path d="M316.52075,166.10013c-2.0453,-3.4909 -0.47959,-5.58027 -0.47959,-5.58027c0,0 1.06416,4.37447 2.11841,5.47931c1.24822,1.30807 4.55413,3.29996 4.55413,3.29996l-3.46435,-0.56093c0,0 -2.36866,-2.02369 -2.72859,-2.63802z" fill="#7d7a7c"/><path d="M324.11222,165.86568c0,0 -0.47733,-2.33567 -0.272,-3.46063c0.18048,-0.98888 1.439,-2.93374 1.439,-2.93374l4.74496,0.866c0,0 -0.84932,2.08539 -1.00521,2.93948c-0.21426,1.1739 -0.16179,3.45487 -0.16179,3.45487z" fill="#555555"/><path d="M332.58888,167.41273c0,0 1.10882,-2.36242 1.31414,-3.48738c0.18048,-0.98888 -0.14713,-2.907 -0.14713,-2.907l5.29586,0.96652c0,0 -0.71782,1.61241 -0.8737,2.46652c-0.21426,1.1739 -0.29329,3.92783 -0.29329,3.92783z" fill="#555555"/><path d="M341.76399,169.08727c0,0 1.10884,-2.36244 1.31417,-3.48738c0.18048,-0.98888 -0.14712,-2.90699 -0.14712,-2.90699l5.21715,0.95213c0,0 -0.71782,1.61241 -0.8737,2.46652c-0.21426,1.1739 -0.29329,3.92782 -0.29329,3.92782z" fill="#555555"/><path d="M351.27027,170.8222c0,0 1.2199,-1.98069 1.42519,-3.10569c0.18048,-0.98888 -0.25819,-3.28868 -0.25819,-3.28868l5.05977,0.92342c0,0 0.4585,2.09814 0.30263,2.9523c-0.21426,1.1739 -1.46963,3.44209 -1.46963,3.44209z" fill="#555555"/><path d="M324.891,160.11606l-0.51067,-0.90642l34.98474,6.38492l-1.65295,0.51154c0,0 -2.78409,-0.50812 -5.20628,-0.95018c-0.52796,-0.09637 -1.46804,-0.6021 -2.25886,-0.74647c-0.76466,-0.13958 -1.37252,0.08369 -2.32301,-0.08979c-1.48219,-0.27052 -3.15453,-0.57573 -4.90526,-0.89523c-0.72584,-0.13247 -1.28856,-0.62508 -2.03339,-0.761c-0.66233,-0.12086 -1.50566,0.11508 -2.17111,-0.00636c-1.65158,-0.30143 -3.28693,-0.59989 -4.82444,-0.88048c-0.70604,-0.12886 -1.31275,-0.6852 -1.96963,-0.80509c-0.80192,-0.14637 -1.64007,0.14628 -2.34268,0.01804c-2.8661,-0.52307 -4.7864,-0.87356 -4.7864,-0.87356z" fill="#474747"/></g><g><path d="M168.0248,199.6681l4.1715,-2.15348c0,0 2.27363,3.27633 4.90088,4.6656c2.32374,1.22872 10.06426,3.24753 10.06426,3.24753l-3.39372,3.80687z" fill="#6d6a6b" stroke-width="0"/><path d="M158.92973,204.61578l10.40741,-5.60775c0,0 2.77704,2.80064 4.79171,3.84118c3.04793,1.57413 11.7164,4.68474 11.7164,4.68474l-4.98159,3.46931z" fill="#615e5f" stroke-width="0"/><path d="M156.95201,226.58506l2.59359,-22.4726c0,0 4.14128,1.56084 8.87892,2.45559c3.69793,0.69838 7.832,0.59175 10.16619,1.63617c4.09781,1.8335 34.86075,20.00773 34.86075,20.00773l0.61142,10.45448z" fill="#575455" stroke-width="0"/><path d="M183.04773,203.85911c7.81983,-4.22998 18.17333,-16.01468 19.87291,-18.31835c1.22441,-1.65962 2.84797,-6.7265 2.84797,-6.7265l6.35499,8.0872c0,0 2.0748,21.21396 0.96558,33.86719c-0.31036,3.54048 1.45787,7.87358 0.02763,9.10321c-1.28149,1.10173 -18.37831,0.30917 -23.54756,-1.41165c-10.87855,-3.62137 -17.07732,-1.91708 -19.81405,-7.77906c-2.73676,-5.86195 5.37442,-10.75545 5.37442,-10.75545c0,0 5.88235,-4.96539 7.91817,-6.06664z" fill="#504e4f" stroke-width="0"/><path d="M193.66873,172.43007c0,0 0.65741,-1.39746 1.61961,-1.89635c1.23746,-0.64158 5.18935,-1.63387 5.18935,-1.63387c0,0 8.84358,3.71551 11.35788,6.70551c2.31979,2.75867 -5.70475,11.74519 -5.70475,11.74519l-1.01132,-5.63451z" fill="#464445" stroke-width="0"/><path d="M208.04646,223.06165c0,0 -10.25654,4.48725 -18.63385,3.13256c-8.08162,-1.30685 -14.30148,-8.43112 -13.94086,-9.81105c0.19538,-0.74764 8.58796,-2.57584 12.76592,-6.10451c4.64421,-3.92244 5.18737,-9.61902 6.87725,-11.35426c4.71762,-4.84441 14.85284,-13.34133 14.89413,-19.47723c0.04331,-6.43488 -10.12774,-10.39929 -10.12774,-10.39929c0,0 4.19291,-1.52365 9.12088,-0.75627c2.09912,0.32689 6.32402,2.50667 7.16319,3.05116c2.75186,1.78543 4.41647,3.75254 4.41647,3.75254c0,0 4.47515,-4.14318 8.07427,-3.8009c3.59914,0.34228 21.58979,6.622 21.58979,6.622l-18.20826,9.47892z" fill="#555354" stroke-width="0"/><path d="M194.61818,199.43854c0,0 6.49782,-9.86651 12.12711,-14.36378c5.62933,-4.49728 10.21248,-6.89385 13.68741,-6.25965c2.51638,0.45924 4.20436,9.525 4.20436,9.525l-16.06217,26.31302c0,0 -14.97232,0.60074 -15.98017,-2.10486c-0.79602,-2.13687 2.02348,-13.10971 2.02348,-13.10971z" fill="#585758" stroke-width="0"/><path d="M211.9057,230.34427c0,0 -1.71983,-6.60719 -0.85628,-9.52173c1.20638,-4.07156 4.89872,-16.26067 4.89872,-16.26067l0.05126,10.61743c0,0 -2.38013,9.47413 -2.79356,12.47857c-0.39891,2.89881 0.61161,5.28947 0.61161,5.28947z" fill="#3f3e3f" stroke-width="0"/><path d="M214.19968,212.6026c0.10841,-1.68267 1.7554,-9.22039 1.7554,-9.22039c0,0 12.0184,-12.61517 14.55805,-14.84858c0.74453,-0.65474 4.35643,-1.75509 4.35643,-1.75509l-2.49099,4.47947c0,0 -1.6567,0.31161 -1.91938,0.74941c-0.27986,0.46642 0.28847,1.96868 0.28847,1.96868l-6.56803,7.42147c0,0 -1.80524,0.69782 -2.07223,1.1628c-0.26709,0.4651 0.24996,1.46228 0.24996,1.46228c0,0 -5.39702,8.10395 -6.65936,10.32821c-0.58364,1.02841 -0.60962,2.47996 -0.60962,2.47996c0,0 -0.99706,-2.54554 -0.88864,-4.22825z" fill="#474647" stroke-width="0"/><path d="M205.05157,189.6183l19.23804,11.8824c0,0 -1.35136,0.78239 -1.68147,1.27008c-0.24361,0.35986 -0.1197,1.39098 -0.1197,1.39098z" fill="#3f3e3e" stroke-width="NaN"/><path d="M212.81283,180.51081l19.79648,10.78841c0,0 -1.24831,0.62941 -1.55576,1.13881c-0.32051,0.53103 -0.15078,1.65907 -0.15078,1.65907z" fill="#3f3e3e" stroke-width="NaN"/><path d="M195.42572,206.49131c0,0 9.13751,9.48774 13.84687,16.42356c4.7094,6.93586 2.58356,7.7746 2.58356,7.7746z" fill="#636162" stroke-width="NaN"/><path d="M212.63624,186.19486c0,0 -6.42453,1.77953 -9.68506,4.33152c-3.26053,2.552 -14.36458,16.97569 -13.83573,14.078c0.52884,-2.89767 17.15762,-20.92621 18.92341,-20.60395c0.66841,0.12198 3.86042,-0.45659 4.62291,-0.07603c1.25176,0.62477 -0.02553,2.27043 -0.02553,2.27043z" fill="#918f91" stroke-width="0"/><path d="M156.52646,226.37587l14.05528,0.64569c0,0 12.4509,1.93458 15.50877,2.65029c7.44684,1.74295 29.33453,7.84531 29.33453,7.84531l-1.57462,6.13809c0,0 -24.60525,-0.86624 -31.15144,-3.39833c-1.89379,-0.73253 -7.50497,-2.38487 -11.44879,-4.47919c-7.71789,-4.09845 -14.7237,-9.40188 -14.7237,-9.40188z" fill="#626061" stroke-width="0"/><path d="M212.92493,243.12868c0,0 0.81051,-4.21563 0.78892,-6.59807c-0.02422,-2.67775 -0.92717,-8.68638 -0.92717,-8.68638l1.75337,0.31999c0,0 0.89105,4.69307 0.91297,7.11723c0.02397,2.65045 -0.77473,8.16721 -0.77473,8.16721z" fill="#4a494a" stroke-width="0"/><path d="M212.58271,243.91636l0.69672,-3.32613c0,0 0.51002,0.36215 0.77715,0.41091c0.31737,0.05793 0.96167,-0.09355 0.96167,-0.09355l-0.3994,3.15613c0,0 -0.83712,0.26157 -1.20812,0.23472c-0.28428,-0.02055 -0.82795,-0.3821 -0.82795,-0.3821z" fill="#363536" stroke-width="0"/><path d="M212.87318,228.90227l-0.08862,-1.66357c0,0 0.47422,-0.27371 0.84734,-0.26581c0.35534,0.00752 0.84723,0.22207 0.84723,0.22207l0.1817,1.79823c0,0 -0.56509,0.41272 -0.8714,0.3971c-0.28855,-0.01466 -0.91628,-0.488 -0.91628,-0.488z" fill="#585758" stroke-width="0"/><path d="M171.83438,235.1911c0,0 -7.23672,-4.32234 -6.99199,-5.66321c0.24596,-1.34756 6.59199,-1.37952 6.59199,-1.37952c0,0 10.8093,1.72802 15.65474,2.7878c2.71269,0.59331 10.94309,3.02955 10.94309,3.02955c0,0 6.98405,2.34626 7.57912,3.62561c0.64909,1.3955 -3.66242,3.49719 -3.66242,3.49719c0,0 -12.75161,-0.99961 -16.61457,-1.9163c-1.37227,-0.32566 -13.49988,-3.98104 -13.49988,-3.98104z" fill="#6b696a" stroke-width="0"/><path d="M162.8592,226.5376l-1.97123,-0.12513c0,0 1.23289,-3.2664 3.68568,-1.55604c2.45282,1.7104 21.30005,4.122 21.30005,4.122z" fill="#4b4949" stroke-width="0"/><path d="M156.62404,226.24723c0,0 -1.99971,-0.1702 -1.87206,-3.84982c0.06462,-1.86259 0.90095,-16.13654 0.90095,-16.13654l4.19573,-2.18125c0,0 -0.40541,6.01874 -0.72364,8.91086c-0.42329,3.84646 -1.59283,13.42247 -1.59283,13.42247z" fill="#3f3d3e" stroke-width="0"/><path d="M163.14597,226.75859c0,0 3.52829,-1.54984 19.38427,1.00127c1.30942,0.21071 -1.76028,-0.35379 7.39566,1.83289c9.15592,2.18669 12.72905,4.37646 12.72905,4.37646c0,0 -14.62939,-3.75698 -20.73141,-4.87063c-6.95559,-1.26943 -18.77759,-2.33998 -18.77759,-2.33998z" fill="#838082" stroke-width="0"/><path d="M173.43472,198.51471c0,0 -4.69232,1.36718 -7.12209,2.56599c-2.731,1.34742 -8.46601,5.12489 -8.46601,5.12489l-0.48415,-1.71645c0,0 4.39334,-3.11554 6.86565,-4.33534c2.70309,-1.33364 8.72243,-3.35555 8.72243,-3.35555z" fill="#4a494a" stroke-width="0"/><path d="M174.39984,198.42881l-3.8049,1.01392c0,0 0.21088,-0.61863 0.13713,-0.88009c-0.08765,-0.31069 -0.54109,-0.80821 -0.54109,-0.80821l3.417,-1.20787c0,0 0.65551,0.61436 0.79978,0.9573c0.11057,0.26282 -0.0079,0.9249 -0.0079,0.9249z" fill="url(#color-3)" stroke-width="0"/><path d="M158.89001,205.60489l-3.39314,2.15564l0.25038,-2.173l2.40806,-1.61614c0,0 0.68426,0.29783 0.81013,0.57767c0.1186,0.26366 -0.07547,1.05584 -0.07547,1.05584z" fill="url(#color-4)" stroke-width="0"/></g><path d="M291.15137,205.37161c0,0 1.70567,-4.18036 2.45021,-5.45652c0.50541,-0.86631 3.09727,-1.84857 3.09727,-1.84857l16.78205,2.841c0,0 -2.29733,5.47421 -2.91749,6.74989c-0.27169,0.55883 -1.44467,1.04881 -1.44467,1.04881z" fill="#665b60" stroke-width="0"/><path d="M246.60495,178.68356c0,0 -3.45203,-2.21828 -8.09355,-4.23666c-2.95058,-1.28311 -7.04947,-2.60729 -8.89926,-2.83734c-5.37784,-0.66892 -8.77247,3.90079 -8.77247,3.90079c0,0 -2.80431,-2.8658 -4.72421,-4.085c-1.79218,-1.13808 -5.89484,-2.90432 -5.89484,-2.90432c0,0 25.07445,-0.59913 28.9672,-0.47837c7.4627,0.23147 33.64008,5.40689 33.64008,5.40689l3.55793,15.17104z" fill="#8b7c84" stroke-width="0"/><g stroke-width="0"><path d="M292.75166,204.70535c0,0 0.92999,-2.46944 1.49434,-3.27599c0.58518,-0.83631 2.92236,-1.47957 2.92236,-1.47957l14.29392,2.60871c0,0 0.20356,1.03634 -0.16046,1.71988c-0.49495,0.92939 -3.71965,3.1336 -3.71965,3.1336z" fill="#585852"/><path d="M292.88549,203.97213c0,0 0.79617,-1.73616 1.36052,-2.54271c0.58518,-0.83631 3.0562,-2.2128 3.0562,-2.2128l14.29392,2.60872c0,0 0.06974,1.7696 -0.2943,2.45314c-0.49495,0.92939 -3.58583,2.40031 -3.58583,2.40031z" fill="#797971"/><path d="M309.77165,201.99609c-0.99987,-0.36337 -12.38486,-2.71705 -12.38486,-2.71705l14.27437,2.60517l-0.44201,2.42183c0,0 -0.44763,-1.94658 -1.44751,-2.30995z" fill="#85857b"/></g><path d="M297.42156,187.08943l0.93178,-5.10543l7.01995,1.28119l0.3446,5.33839z" fill="#7c6e75" stroke-width="0"/><path d="M291.91101,159.22368l-2.64896,-8.74902l1.35689,0.24766l4.47193,9.54079z" fill="#d495b6" stroke-width="0"/><path d="M254.91088,144.7159l13.55894,-0.6661l20.98319,6.48522l2.48501,8.67948z" fill="#df9cbe" stroke-width="0"/><path d="M296.67848,192.06439l0.29121,-1.59542l10.68949,1.95089l0.66607,1.77016z" fill="#7c6e75" stroke-width="0"/><path d="M258.94796,172.82346c0,0 -18.05414,-2.07677 -23.68519,-2.59607c-8.52661,-0.7863 -25.73699,-1.56364 -25.73699,-1.56364c0,0 15.57686,-1.67113 29.13698,-0.73746c14.70261,1.01232 58.29809,7.48728 58.29809,7.48728l-0.97114,5.32117z" fill="#75686e" stroke-width="0"/><path d="M250.56731,180.20929l-3.08805,-1.14383c0,0 10.03978,-0.59147 15.15564,1.11762c5.11581,1.70905 13.32432,8.3968 13.32432,8.3968z" fill="#7c6e76" stroke-width="0"/><path d="M205.58968,167.90384c0,0 -29.06717,-20.95571 -29.11471,-25.6608c-0.04315,-4.27402 28.91561,7.66402 29.22796,7.61102c5.46558,-0.92764 77.47583,4.88058 77.47583,4.88058l24.95742,11.45637l52.00715,8.91072l4.75217,14.66699c0,0 -60.76867,-9.90244 -84.17802,-14.00907c-8.12601,-1.42553 -24.56851,-5.08474 -39.82845,-6.71066c-11.77104,-1.25417 -29.94497,-0.1831 -29.94497,-0.1831z" fill="#ee96c3" stroke-width="0"/><path d="M76.3044,157.05903l6.8913,-19.22917c0,0 1.1666,-6.95771 8.70533,-7.91579c9.36336,-1.18991 25.6572,3.59843 27.69422,3.97018c1.56319,0.28529 -14.56808,7.92998 -14.56808,7.92998l-3.61844,19.82651z" fill="#c4b4b3" stroke-width="0"/><g stroke-width="0"><path d="M356.17189,189.58146l-0.09197,-15.40977l90.03501,23.30813l-1.78703,5.57671l-47.52994,-3.73715z" fill="#ad6d8e"/><path d="M384.66313,180.2082l8.63984,-6.83254l26.72191,2.71271l-6.1026,9.45984z" fill="#8d788b"/><path d="M359.39259,176.80447l2.91489,-15.97147l31.06384,12.55937l-5.73756,5.93534z" fill="#857183"/><path d="M401.71829,181.15341l18.24471,-5.0751l26.71188,8.71005l-1.51915,6.73061z" fill="#947e92"/><path d="M355.40053,175.45728l5.13863,-12.03897l1.97335,-2.75428l-2.70457,14.81906z" fill="#756474"/><path d="M358.00753,186.64898l1.45795,-12.00607l42.90603,6.15453l-4.089,15.57603z" fill="#746373"/><path d="M398.27765,196.35681c0,0 1.50624,-6.13676 2.21241,-8.89901c0.60458,-2.36498 1.76726,-6.66853 1.76726,-6.66853l43.31857,8.83001l0.45935,8.6226z" fill="#867284"/><path d="M355.45299,175.39527l4.23701,-0.78293l-1.65432,12.04951z" fill="#6f5e6d"/><path d="M439.59612,183.38705l-18.89228,-6.86716l25.64009,8.37589l-0.99427,3.42257c0,0 -0.02673,-1.60011 -1.08888,-2.51045c-0.7105,-0.609 -4.66472,-2.42087 -4.66472,-2.42087z" fill="#978195"/><path d="M400.18808,180.21366c0,0 8.46722,-1.9772 11.4434,-2.8105c2.16805,-0.60701 4.77026,-1.72908 4.77026,-1.72908l2.47243,0.56573l-16.08047,4.44938z" fill="#9c859a"/><path d="M385.89579,178.4269c0,0 1.78915,-2.47122 3.35993,-3.55713c1.57072,-1.08591 3.98785,-1.47347 3.98785,-1.47347l-4.9262,5.47256z" fill="#806b7d"/><path d="M421.82789,174.64404l3.12803,-5.25716l14.28273,6.40167l4.35996,7.30144z" fill="#55494f"/><path d="M418.83297,176.94384c0,0 1.2067,-0.58302 1.86298,-1.05767c0.49435,-0.35753 1.41973,-1.59611 1.41973,-1.59611l21.23298,7.94122c0,0 0.76456,0.64471 1.28276,1.07032c0.54157,0.44479 1.89965,1.54348 1.89965,1.54348z" fill="#685960"/><path d="M422.54013,173.86712l2.45484,-4.2131l13.31916,5.81261c0,0 -7.60142,-2.94535 -12.05541,-3.49931c-2.58355,-0.32135 -3.7186,1.89981 -3.7186,1.89981z" fill="#41383c"/></g><path d="M84.96949,118.71151l0.93507,-5.12371c0,0 22.20607,2.7363 43.79718,6.73469c12.86633,2.3827 25.92884,6.39076 32.8005,7.28896c15.49408,2.02526 26.60292,-0.53406 26.60292,-0.53406l-8.14843,9.33179z" fill="#ffa1d1" stroke-width="0"/><path d="M79.92748,131.97943l5.01271,-15.43337c0,0 53.53597,11.86519 71.17222,14.63597c10.44701,1.6413 24.89461,0.4568 24.89461,0.4568l-2.62891,14.40444c0,0 -66.40417,-12.11917 -82.41215,-15.04071c-6.58186,-1.20123 -20.86532,27.42438 -20.86532,27.42438z" fill="#ee96c3" stroke-width="0"/><path d="M242.4914,239.40389l11.57025,-11.70882c0,0 12.60449,-13.81879 23.08419,-18.8823c2.66308,-1.28672 7.96346,-1.53564 7.96346,-1.53564c0,0 -8.08024,3.59277 -11.1341,5.87298c-7.21182,5.38483 -31.48376,26.25378 -31.48376,26.25378z" fill="#70646b" stroke-width="0"/><path d="M348.58127,192.85424l-2.96618,-18.8405l1.32819,0.24241c0,0 0.89832,5.70589 1.37297,8.72091c0.06766,0.4296 1.1912,1.8759 1.27496,2.40799c0.14522,0.92237 -0.73701,1.00891 -0.57471,2.03988c0.45193,2.87066 0.89295,5.67173 0.89295,5.67173z" fill="#795467" stroke-width="0"/><path d="M178.92273,146.58153c0,0 -9.13531,-8.3278 -7.7892,-11.9194c0.80597,-2.15048 18.80257,-6.94946 18.80257,-6.94946l67.08862,13.9438l-2.16594,2.75198l28.22605,10.48654l-75.40065,13.25311c0,0 0.22939,-5.66467 4.2863,-7.82962c3.94289,-2.10409 19.72275,-4.98275 19.72275,-4.98275c0,0 -33.65258,-6.19159 -40.80946,-7.58588c-2.38772,-0.46516 -11.96103,-1.16827 -11.96103,-1.16827z" fill="#f399c8" stroke-width="0"/><g><path d="M187.8229,129.28295l0.58142,-3.18572l173.68479,31.69851l-0.58142,3.18571z" fill="#584f54" stroke-width="0"/><path d="M356.34238,156.99926l0.49127,-2.69186l3.00561,0.54853l2.16071,3.17587z" fill="#685d63" stroke-width="0"/><g fill="#685d63" stroke-width="0"><g><g><g><path d="M349.7458,156.04863l0.53451,-2.92862l3.81806,0.69682l-0.53452,2.92863z"/><path d="M343.55061,154.91797l0.53451,-2.92862l3.81806,0.69682l-0.53452,2.92862z"/></g><g><path d="M337.58919,153.82994l0.5345,-2.92864l3.81806,0.69683l-0.53452,2.92863z"/><path d="M331.39396,152.69928l0.53452,-2.92863l3.81805,0.69683l-0.53452,2.92863z"/></g></g><g><g><path d="M325.31563,151.58997l0.53452,-2.92863l3.81805,0.69682l-0.53452,2.92863z"/><path d="M319.12043,150.45931l0.53451,-2.92863l3.81806,0.69682l-0.53451,2.92864z"/></g><g><path d="M313.15903,149.37129l0.5345,-2.92864l3.81805,0.69683l-0.53452,2.92863z"/><path d="M306.96387,148.24065l0.53451,-2.92862l3.81805,0.69682l-0.53451,2.92864z"/></g></g></g><g><g><g><path d="M306.73007,148.198l0.53451,-2.92862l3.81805,0.69682l-0.53452,2.92862z"/><path d="M300.53493,147.06733l0.53452,-2.92863l3.81805,0.69683l-0.53451,2.92863z"/></g><g><path d="M294.57345,145.97934l0.53451,-2.92864l3.81805,0.69682l-0.53451,2.92863z"/><path d="M288.37826,144.84869l0.53452,-2.92862l3.81804,0.69681l-0.53451,2.92863z"/></g></g><g><g><path d="M282.29998,143.73938l0.5345,-2.92864l3.81806,0.69682l-0.53452,2.92863z"/><path d="M276.10476,142.6087l0.53451,-2.92863l3.81806,0.69683l-0.53451,2.92864z"/></g><g><path d="M270.14333,141.5207l0.53451,-2.92863l3.81806,0.69681l-0.53451,2.92864z"/><path d="M263.94814,140.39001l0.53452,-2.92862l3.81805,0.69682l-0.53451,2.92863z"/></g></g></g></g><g><g fill="#685d63" stroke-width="0"><g><g><path d="M257.83007,139.27347l0.53451,-2.92865l3.81805,0.69683l-0.53451,2.92863z"/><path d="M251.63488,138.14279l0.53451,-2.92863l3.81806,0.69683l-0.5345,2.92864z"/></g><g><path d="M245.67344,137.05482l0.53452,-2.92863l3.81806,0.69683l-0.53451,2.92864z"/><path d="M239.4783,135.92414l0.53452,-2.92862l3.81805,0.69682l-0.53451,2.92863z"/></g></g><g><g><path d="M233.39999,134.81482l0.5345,-2.92864l3.81806,0.69682l-0.53452,2.92863z"/><path d="M227.20476,133.68417l0.53452,-2.92862l3.81805,0.69682l-0.53451,2.92863z"/></g><g><path d="M221.2433,132.59618l0.53452,-2.92862l3.81804,0.69682l-0.5345,2.92864z"/><path d="M215.04812,131.4655l0.53452,-2.92863l3.81805,0.69682l-0.5345,2.92864z"/></g></g></g><g><g fill="#685d63" stroke-width="0"><g><path d="M214.81436,131.42285l0.53451,-2.92863l3.81806,0.69682l-0.53452,2.92863z"/><path d="M208.61914,130.29215l0.53451,-2.92864l3.81805,0.69682l-0.53451,2.92863z"/></g><g><path d="M202.65773,129.20421l0.53451,-2.92863l3.81806,0.69682l-0.5345,2.92864z"/><path d="M196.46256,128.07351l0.53451,-2.92863l3.81805,0.69682l-0.53451,2.92862z"/></g></g><g fill="none" stroke-width="1" font-family="sans-serif" font-weight="normal" font-size="12" text-anchor="start"><g/><g/></g></g></g><path d="M188.43011,126.35423l3.14329,-2.20787l3.0056,0.54856l-0.49128,2.69187z" data-paper-data="{&quot;index&quot;:null}" fill="#685d63" stroke-width="0"/></g><path d="M238.51194,168.92415l-2.55889,-0.19254c0,0 2.11263,-2.22438 11.75431,-1.61106c7.30985,0.46502 27.77445,2.8668 40.01864,4.34336c5.68589,0.68565 62.8858,1.97439 62.8858,1.97439l5.1169,0.91933c0,0 -62.62401,-0.60868 -68.30158,-1.31645c-12.55462,-1.56506 -33.67076,-4.16126 -39.82336,-4.69608c-3.3492,-0.29115 -9.09178,0.5791 -9.09178,0.5791z" fill="#70475c" stroke-width="0"/><path d="M334.36637,205.7601l-5.17521,0.93182l3.39963,-18.62364c0,0 7.65614,1.44648 15.14376,2.86115c21.49461,4.06102 124.79918,23.5785 124.79918,23.5785l-1.20782,6.61797z" fill="#5a5959" stroke-width="0"/><path d="M333.17382,207.19772l1.61289,-2.76134l136.57082,16.58393l-13.64685,8.90613z" fill="#4b4a4a" stroke-width="0"/><path d="M454.51228,229.15049c0,0 -5.23129,-4.23274 -7.95809,-6.18208c-1.46136,-1.04469 -7.13094,-4.60475 -7.13094,-4.60475c0,0 7.35007,4.29315 10.47013,5.82619c1.11351,0.54712 2.08549,1.47958 3.27351,2.23327c0.38306,0.243 2.67223,-2.14396 4.84812,-3.4895c0.65036,-0.40221 1.7263,0.16473 2.30252,-0.06633c1.32099,-0.52976 1.87014,-1.53901 1.87014,-1.53901c0,0 0.16507,0.97505 -1.25196,1.95022c-0.38662,0.26608 -2.22351,0.28899 -2.60838,0.58505c-1.54238,1.18666 -2.81497,2.57988 -3.22132,3.1067c-1.13389,1.47012 0.84582,2.44299 0.84582,2.44299z" fill="#414040" stroke-width="0"/><path d="M178.82115,146.86532l5.74591,-10.23346l7.00435,0.64373c0,0 -1.41064,2.43451 -2.24202,3.86928c-0.20937,0.36137 11.74427,0.55452 11.97007,1.27782c0.41899,1.342 -5.7376,4.04039 -6.26049,4.94275c-0.59776,1.0316 -9.23182,-0.14182 -9.23182,-0.14182z" fill="#303030" stroke-width="0"/><path d="M178.74635,146.47552l5.49317,-9.4307c0,0 2.71719,1.82206 2.54034,2.79102c-0.32176,1.76306 -2.91416,7.17268 -2.91416,7.17268z" fill="#252525" stroke-width="0"/><path d="M328.69658,209.30119l0.53007,-2.90442l5.9641,-1.91269l-1.74804,2.68211c0,0 -1.31241,1.11779 -2.14712,1.49326c-0.73449,0.3304 -2.59901,0.64166 -2.59901,0.64166z" fill="#383838" stroke-width="0"/><g><g fill="#4b4b4b" stroke-width="0"><g data-paper-data="{&quot;origPos&quot;:null}"><g data-paper-data="{&quot;origPos&quot;:null}"><path d="M394.50067,222.7044l0.40806,-2.23582l3.68905,0.67326l-0.40806,2.23582z" data-paper-data="{&quot;origPos&quot;:null}"/><path d="M388.37263,221.47051l0.40806,-2.23582l3.68904,0.67326l-0.40806,2.2358z" data-paper-data="{&quot;origPos&quot;:null}"/></g><g data-paper-data="{&quot;origPos&quot;:null}"><path d="M406.77718,225.06049l0.40806,-2.23582l3.68905,0.67326l-0.40806,2.23581z" data-paper-data="{&quot;origPos&quot;:null}"/><path d="M400.64912,223.82658l0.40806,-2.23581l3.68906,0.67326l-0.40807,2.23582z" data-paper-data="{&quot;origPos&quot;:null}"/></g></g><g data-paper-data="{&quot;origPos&quot;:null,&quot;index&quot;:null}"><g data-paper-data="{&quot;origPos&quot;:null}"><path d="M425.71043,228.28492l0.40806,-2.23582l3.68906,0.67326l-0.40807,2.23581z" data-paper-data="{&quot;origPos&quot;:null}"/><path d="M431.87931,229.29521l0.40805,-2.23581l3.68905,0.67326l-0.40805,2.2358z" data-paper-data="{&quot;origPos&quot;:null}"/></g><g data-paper-data="{&quot;origPos&quot;:null}"><path d="M413.39318,226.15241l0.40807,-2.23582l3.68904,0.67327l-0.40806,2.2358z" data-paper-data="{&quot;origPos&quot;:null}"/><path d="M419.56202,227.16279l0.40806,-2.2358l3.68905,0.67325l-0.40806,2.23581z" data-paper-data="{&quot;origPos&quot;:null}"/></g></g></g><path d="M353.95348,206.92302l2.44374,-13.38995l83.10136,15.16647l-2.44374,13.38994z" data-paper-data="{&quot;origPos&quot;:null}" fill="#444444" stroke-width="0"/><path d="M353.20257,211.58619l0.85865,-4.70473l82.85713,15.12192l-0.85866,4.70475z" data-paper-data="{&quot;origPos&quot;:null}" fill="#414141" stroke-width="0"/><path d="M352.98108,212.99355l0.29043,-1.59133l82.84658,15.11998l-0.29042,1.59133z" data-paper-data="{&quot;origPos&quot;:null}" fill="#3f3f3f" stroke-width="0"/><g stroke-width="0"><g data-paper-data="{&quot;origPos&quot;:null}" fill="#5a5a5a"><g data-paper-data="{&quot;origPos&quot;:null}"><path d="M396.50775,214.77012l2.46866,-13.52657l3.5134,0.64122l-2.46867,13.52656z" data-paper-data="{&quot;origPos&quot;:null}"/></g><g data-paper-data="{&quot;origPos&quot;:null}"><path d="M402.48052,215.86017l2.46866,-13.52656l3.51341,0.64122l-2.46867,13.52656z" data-paper-data="{&quot;origPos&quot;:null}"/><path d="M408.62897,216.98229l2.46868,-13.52657l3.5134,0.64122l-2.46868,13.52657z" data-paper-data="{&quot;origPos&quot;:null}"/></g></g><g data-paper-data="{&quot;origPos&quot;:null}" fill="#5a5a5a"><g data-paper-data="{&quot;origPos&quot;:null}"><path d="M415.12875,218.16856l2.46866,-13.52656l3.5134,0.64122l-2.46868,13.52658z" data-paper-data="{&quot;origPos&quot;:null}"/><path d="M421.27719,219.29068l2.46868,-13.52656l3.5134,0.64122l-2.46868,13.52655z" data-paper-data="{&quot;origPos&quot;:null}"/></g><g data-paper-data="{&quot;origPos&quot;:null}"><path d="M427.24995,220.38076l2.46868,-13.52657l3.51339,0.6412l-2.46868,13.52657z" data-paper-data="{&quot;origPos&quot;:null}"/><path d="M433.39839,221.50287l2.46868,-13.52657l3.51339,0.64121l-2.46866,13.52656z" data-paper-data="{&quot;origPos&quot;:null}"/></g></g><path d="M400.08149,215.42235l-1.21124,1.74188l-5.16392,-0.89865l1.62178,-9.66228l3.59042,-5.37032l-2.40086,13.53897z" fill="#3a3a3a"/><path d="M406.05184,216.51196l-1.21124,1.7419l-5.16392,-0.89865l1.62178,-9.66228l3.59041,-5.37031l-2.40085,13.53896z" fill="#3a3a3a"/><path d="M412.15785,217.62635l-1.21125,1.74188l-5.16392,-0.89865l1.62178,-9.66227l3.59041,-5.37031l-2.40086,13.53897z" fill="#3a3a3a"/><path d="M418.73883,218.82742l-1.21124,1.74188l-5.16392,-0.89866l1.62178,-9.66228l3.59041,-5.37031l-2.40084,13.53897z" fill="#3a3a3a"/><path d="M424.9127,219.9542l-1.21124,1.74188l-5.16392,-0.89865l1.62178,-9.66228l3.59041,-5.37031l-2.40084,13.53897z" fill="#3a3a3a"/><path d="M430.81521,221.03142l-1.21125,1.74188l-5.16391,-0.89865l1.62178,-9.66228l3.59041,-5.37031l-2.40084,13.53898z" fill="#3a3a3a"/><path d="M436.99687,222.15962l-1.21124,1.74188l-5.16392,-0.89865l1.62179,-9.66227l3.59041,-5.37032l-2.40086,13.53897z" fill="#3a3a3a"/></g><g stroke-width="0"><g data-paper-data="{&quot;origPos&quot;:null}" fill="#5a5a5a"><g data-paper-data="{&quot;origPos&quot;:null}"><path d="M353.98114,207.00876l2.46868,-13.52657l3.51341,0.64122l-2.46867,13.52656z" data-paper-data="{&quot;origPos&quot;:null}"/></g><g data-paper-data="{&quot;origPos&quot;:null}"><path d="M359.95388,208.09884l2.46867,-13.52655l3.5134,0.64122l-2.46868,13.52657z" data-paper-data="{&quot;origPos&quot;:null}"/><path d="M366.10233,209.22096l2.46868,-13.52657l3.51341,0.64121l-2.46868,13.52657z" data-paper-data="{&quot;origPos&quot;:null}"/></g></g><g data-paper-data="{&quot;origPos&quot;:null}" fill="#5a5a5a"><g data-paper-data="{&quot;origPos&quot;:null}"><path d="M372.60212,210.40718l2.46868,-13.52657l3.51341,0.64122l-2.46867,13.52656z" data-paper-data="{&quot;origPos&quot;:null}"/><path d="M378.75062,211.52933l2.46868,-13.52658l3.51342,0.64123l-2.46868,13.52656z" data-paper-data="{&quot;origPos&quot;:null}"/></g><g data-paper-data="{&quot;origPos&quot;:null}"><path d="M384.72338,212.6194l2.46868,-13.52657l3.51341,0.64122l-2.46868,13.52657z" data-paper-data="{&quot;origPos&quot;:null}"/><path d="M390.87182,213.74155l2.46868,-13.52657l3.51341,0.64122l-2.46868,13.52659z" data-paper-data="{&quot;origPos&quot;:null}"/></g></g><path d="M357.55483,207.66098l-1.21125,1.74188l-2.69314,-0.44768l0.34056,-1.94459z" fill="#3a3a3a"/><path d="M363.52524,208.75064l-1.21123,1.7419l-5.16392,-0.89866l1.62179,-9.66227l3.59041,-5.37031l-2.40085,13.53897z" fill="#3a3a3a"/><path d="M369.63123,209.865l-1.21124,1.74188l-5.16392,-0.89865l1.62178,-9.66227l3.59042,-5.37032l-2.40085,13.53898z" fill="#3a3a3a"/><path d="M376.21217,211.06604l-1.21124,1.74188l-5.16393,-0.89865l1.62179,-9.66228l3.59042,-5.37032l-2.40085,13.53897z" fill="#3a3a3a"/><path d="M382.38612,212.19287l-1.21124,1.74189l-5.16392,-0.89865l1.62178,-9.66228l3.59042,-5.37032l-2.40086,13.53898z" fill="#3a3a3a"/><path d="M388.2886,213.27009l-1.21123,1.74189l-5.16392,-0.89865l1.62178,-9.66227l3.59042,-5.37032l-2.40085,13.53897z" fill="#3a3a3a"/><path d="M394.47032,214.39833l-1.21123,1.7419l-5.16392,-0.89865l1.62178,-9.66228l3.59042,-5.37031l-2.40085,13.53897z" fill="#3a3a3a"/></g><g><g data-paper-data="{&quot;origPos&quot;:null}"><g data-paper-data="{&quot;origPos&quot;:null}" fill="none" stroke-width="1" font-family="sans-serif" font-weight="normal" font-size="12" text-anchor="start"/><g data-paper-data="{&quot;origPos&quot;:null}" fill="#4b4b4b" stroke-width="0"><path d="M358.8195,216.38611l0.40807,-2.23581l3.68904,0.67326l-0.40805,2.23581z" data-paper-data="{&quot;origPos&quot;:null}"/><path d="M352.69145,215.15222l0.40806,-2.23582l3.68905,0.67326l-0.40806,2.23582z" data-paper-data="{&quot;origPos&quot;:null}"/></g></g><g data-paper-data="{&quot;origPos&quot;:null,&quot;index&quot;:null}" fill="#4b4b4b" stroke-width="0"><g data-paper-data="{&quot;origPos&quot;:null}"><path d="M377.75283,219.61053l0.40806,-2.23581l3.68905,0.67326l-0.40806,2.23581z" data-paper-data="{&quot;origPos&quot;:null}"/><path d="M383.92168,220.62083l0.40805,-2.2358l3.68905,0.67326l-0.40806,2.23581z" data-paper-data="{&quot;origPos&quot;:null}"/></g><g data-paper-data="{&quot;origPos&quot;:null}"><path d="M365.43546,217.47806l0.40806,-2.23581l3.68905,0.67326l-0.40806,2.23581z" data-paper-data="{&quot;origPos&quot;:null}"/><path d="M371.6043,218.48835l0.40807,-2.23581l3.68906,0.67326l-0.40806,2.23581z" data-paper-data="{&quot;origPos&quot;:null}"/></g></g></g></g><path d="M191.5813,147.57383l1.77952,-3.95999c0,0 5.10125,-2.26846 8.60193,-1.78205c4.00199,0.55605 33.47943,5.96126 33.47943,5.96126c0,0 0.31449,1.96411 0.04388,3.15204c-0.34864,1.53047 -2.98052,4.1654 -2.98052,4.1654z" fill="#242424" stroke-width="0"/><path d="M216.74682,148.29371l0.56559,-3.09913l17.70928,3.23204l-0.5656,3.09914z" fill="#313131" stroke-width="0"/><path d="M213.15994,149.60161l0.11711,-0.64164c0,0 1.23924,-0.84236 2.2457,-0.65869c0.95573,0.17445 3.02287,1.03449 5.4056,1.6354c4.53906,1.14477 10.05776,2.25529 10.05776,2.25529l-0.11712,0.64164c0,0 -5.33968,-0.97661 -9.81478,-2.1091c-2.4418,-0.61795 -4.57099,-1.5849 -5.56238,-1.76586c-1.04208,-0.19018 -2.33186,0.64294 -2.33186,0.64294z" fill="#616161" stroke-width="0"/><path d="M242.67291,139.01745l11.94363,5.25639l29.39613,10.76072c0,0 0.68097,0.35217 -7.15528,-1.81825c-2.66575,-0.73836 -12.84234,-4.23123 -21.57365,-7.75901c-2.36257,-0.95456 -14.86225,-6.73346 -14.86225,-6.73346z" fill="#df8cb7" stroke-width="0"/><path d="M63.39051,112.73832l1.06524,-5.8367c0,0 5.99105,-0.68851 9.73305,-0.00555c3.06345,0.55911 10.77864,5.531 10.77864,5.531l-2.33575,12.04714z" fill="#626061" stroke-width="0"/><path d="M175.77135,143.39917l3.28468,3.14688l12.2857,0.8972l49.92039,9.11077l-0.19585,1.07331c0,0 -37.42158,-6.9773 -49.17868,-8.85647c-3.22789,-0.51593 -12.89909,-1.54821 -12.89909,-1.54821z" fill="#ffa6d4" stroke-width="0"/><path d="M49.07687,175.11232l1.28722,-7.05309l26.03282,-12.15377l-4.03527,13.15822l-15.46508,7.47581z" fill="#3f3d3e" stroke-width="0"/><path d="M48.38177,169.8417c0,0 3.71284,-19.29886 6.22604,-28.58179c2.83652,-10.47722 9.94076,-31.13355 9.94076,-31.13355c0,0 8.50858,1.36037 11.73693,3.62259c2.76304,1.93613 6.45542,9.12527 6.45542,9.12527l-6.02385,33.00636c0,0 -14.12349,11.34677 -17.52451,13.02252c-5.23134,2.57757 -10.81075,0.9386 -10.81075,0.9386z" fill="#555354" stroke-width="0"/><path d="M62.49733,120.52555c0,0 -0.43917,-6.17204 2.07767,-8.45448c2.51683,-2.28245 6.97829,-2.50194 9.49696,-2.04223c2.00921,0.3667 6.15309,1.20302 8.17929,6.10494c2.02623,4.90192 -1.05974,11.11899 -1.05974,11.11899c0,0 -4.32958,-11.36571 -6.76799,-12.24318c-3.44088,-1.23824 -11.9262,5.51601 -11.9262,5.51601z" fill="#6f6b6c" stroke-width="0"/><path d="M46.07764,174.37348c0,0 6.36597,-25.33121 8.42059,-36.58904c2.13972,-11.72417 5.64868,-32.14439 5.64868,-32.14439c0,0 1.25283,-0.42491 2.27677,-0.23806c0.93626,0.17085 2.36222,1.08472 2.36222,1.08472c0,0 -3.64999,18.80553 -5.57013,29.3266c-2.23089,12.22358 -9.76412,39.17599 -9.76412,39.17599z" fill="#333232" stroke-width="0"/><path d="M45.57421,174.73257l3.71711,-14.2728c0,0 0.87846,1.06391 1.47509,1.13348c0.75334,0.08785 2.6612,-1.02522 2.6612,-1.02522l-3.94881,14.87711z" fill="#2e2d2d" stroke-width="0"/><path d="M77.42787,143.68733c-1.4659,8.03197 -7.0793,15.8186 -11.89921,17.91467c-4.00309,1.74089 -12.59319,7.04267 -11.12732,-0.98929c0.31098,-1.70396 4.45466,-13.02326 5.84315,-19.9158c1.83624,-9.11526 1.11154,-14.31071 2.56218,-16.92436c2.62301,-4.72586 8.32216,-5.18967 10.50069,-4.79209c4.29431,0.78373 5.58641,16.67487 4.12053,24.70685z" fill="#585758" stroke-width="0"/><path d="M108.80117,163.72876l-0.27042,-1.81887c0,0 8.05319,0.09691 14.06031,0.70109c8.45664,0.85056 31.8936,3.92089 31.8936,3.92089l1.53671,1.58284c0,0 -24.99355,-2.9143 -33.70351,-3.72331c-2.558,-0.2376 -13.51669,-0.66261 -13.51669,-0.66261z" fill="#585657" stroke-width="0"/><path d="M100.63649,175.6572l7.56361,-12.53713l7.29527,0.36508c0,0 -2.4843,3.93133 -2.53499,4.6897c-0.24222,3.62372 -1.59702,27.7394 -1.59702,27.7394c0,0 -1.53252,0.168 -2.36586,-1.8906c-1.49525,-3.69378 -2.06888,-10.77382 -3.41502,-13.1569c-1.16303,-2.05893 -4.94599,-5.20951 -4.94599,-5.20951z" fill="#5a5759" stroke-width="0"/><path d="M118.49287,147.60323l4.87673,-10.6305l2.31537,0.30962l-6.00969,10.6496z" fill="#a5a0a2" stroke-width="0"/><path d="M125.36679,147.75637l0.25183,-1.37996l26.06567,4.75714l-0.25182,1.37996z" fill="#494748" stroke-width="0"/><path d="M125.82096,144.81886l0.25183,-1.37996l26.06567,4.75714l-0.25183,1.37996z" fill="#494748" stroke-width="0"/><path d="M102.68024,163.37343l3.61564,-19.81109l13.77488,-7.26109l4.82181,0.5631l-23.69803,39.1957l-5.16034,-2.97826z" fill="#dbd5d8" stroke-width="0"/><path d="M74.47316,170.33667l1.96161,-11.62759l26.3631,4.00888c0,0 -0.13071,2.55579 -0.40217,3.31795c-0.67659,1.89988 -3.89687,8.36455 -3.89687,8.36455z" fill="#ccc6c9" stroke-width="0"/><path d="M80.24646,159.8118l0.05669,-0.31067l22.60216,3.24224l-2.77573,0.69727c0,0 -4.28483,-0.59274 -6.94382,-1.11028c-3.64088,-0.70867 -12.93934,-2.51853 -12.93934,-2.51853z" fill="#d8d1d5" stroke-width="0"/><path d="M84.37569,156.76687l3.05218,-16.72375l15.86299,2.89511l-3.05219,16.72375z" fill="#a39999" stroke-width="0"/><path d="M74.17064,170.45402l2.03945,-11.17472c0,0 7.5466,7.86947 11.34339,10.94167c3.79679,3.07217 10.24262,3.96398 10.24262,3.96398z" fill="#b4afb1" stroke-width="0"/><path d="M106.18223,182.43877c0,0 2.79344,1.56751 3.89753,1.6229c0.67828,0.03399 2.09707,-1.32219 2.09707,-1.32219l0.00259,9.22354l-0.75319,4.12696c0,0 -1.96735,-0.04249 -2.76198,-2.81275c-0.65561,-2.28568 -2.48206,-10.83837 -2.48206,-10.83837z" fill="#504e4f" stroke-width="0"/><path d="M100.83613,176.25917l21.72122,-38.46883l1.67843,0.51486l-21.69395,38.89083z" fill="#858183" stroke-width="0"/><path d="M91.59086,133.14262l1.78646,-1.35168c0,0 27.08572,4.28876 39.29437,6.51692c10.59626,1.93387 31.36248,6.08266 31.36248,6.08266l0.17234,2.00492c0,0 -20.82448,-4.51822 -31.99359,-6.55664c-12.75369,-2.32762 -40.62202,-6.69612 -40.62202,-6.69612z" fill="#918b8e" stroke-width="0"/><path d="M92.8135,132.1147l2.33954,-1.54648c0,0 25.53104,4.30077 37.73966,6.52891c10.59625,1.93386 31.36249,6.08267 31.36249,6.08267l0.17232,2.0049c0,0 -20.82448,-4.51821 -31.99359,-6.55664c-12.75369,-2.32763 -39.6204,-6.51333 -39.6204,-6.51333z" fill="#a59fa2" stroke-width="0"/><path d="M152.64041,164.16287l-0.87399,-5.936c0,0 0.42452,-1.14745 0.77237,-1.19865c0.30645,-0.04511 1.20629,0.90733 1.20629,0.90733l0.87397,5.93599c0,0 -0.42923,0.8138 -0.73638,0.85903c-0.34745,0.05114 -1.24229,-0.56767 -1.24229,-0.56767z" fill="#494242" stroke-width="0"/><path d="M112.54472,159.53756l5.18835,-8.69548l3.82258,0.69766l-5.18835,8.69547z" fill="#9c989a" stroke-width="0"/><path d="M125.14804,143.76795l1.99444,-0.61992l24.0385,4.40554l1.8147,1.2968z" fill="#757274" stroke-width="0"/><path d="M124.73607,146.55049l1.99445,-0.61993l24.03849,4.40553l1.81473,1.29679z" fill="#757274" stroke-width="0"/><path d="M71.96578,169.05242l12.12087,-56.90623l1.78484,0.91606l-11.65625,57.39879z" fill="#686666" stroke-width="0"/><path d="M71.75652,169.28901l3.56253,-15.87409l1.56829,4.16775l-2.81895,13.01543z" fill="#535252" stroke-width="0"/><path d="M106.10972,152.30612c0,0 2.51063,-1.92603 2.6806,-2.85741c0.16682,-0.91401 -1.67005,-2.67984 -1.67005,-2.67984c0,0 2.83303,1.19783 2.42736,2.84c-0.30898,1.25082 -1.73549,3.21564 -2.01937,4.2844c-0.80719,3.03893 -2.80375,10.14323 -2.80375,10.14323z" fill="#c4bec1" stroke-width="0"/><path d="M114.00418,151.8037l3.71106,-9.68654l3.28922,-3.82594l-4.32798,8.92619z" fill="#aca7a9" stroke-width="0"/></g></g><g stroke-width="0"><path d="M235.14128,145.62175l3.11117,-2.81639c0,0 2.03596,-1.08847 2.79812,-0.66985c0.86899,0.4773 2.13756,3.3808 2.13756,3.3808l-1.26601,3.9183c0,0 -4.21031,-0.77607 -5.4321,-1.13454c-0.5508,-0.16161 -1.34874,-2.6783 -1.34874,-2.6783z" fill="#c0c0c0"/><path d="M191.18707,147.41038c0,0 0.34347,-2.86488 1.58987,-3.79509c1.562,-1.16574 7.9403,-2.25039 7.9403,-2.25039l-1.54953,4.53257l-0.52445,2.87377z" fill="#838383"/><path d="M191.03103,147.30631l9.31622,-5.90459l36.95197,6.74394l-1.34321,7.35969z" fill="#999999"/><path d="M192.13166,146.83991l7.10834,-4.64026l33.2235,6.06347l-1.04869,5.74621c0,0 -4.02117,-0.73388 -9.19392,-1.67793c-3.36312,-0.61382 -7.02233,-2.36118 -10.57041,-3.00871c-3.80619,-0.69466 -7.45571,-0.28115 -9.59355,-0.6713c-4.18405,-0.76363 -9.92527,-1.81143 -9.92527,-1.81143z" fill="#2e2e2e"/><path d="M195.56751,147.46475l9.29276,-4.30482l12.26157,2.23781c0,0 -7.59867,0.55207 -10.09446,1.02623c-2.64956,0.50336 -6.18849,2.00285 -6.18849,2.00285z" fill="#a5899d"/><path d="M203.44708,148.78822c0,0 5.17705,-0.04336 7.59425,0.39782c3.08855,0.56369 9.42157,2.70767 9.42157,2.70767l-9.43701,-2.06305z" fill="#adadad"/><path d="M191.13715,147.30721l8.4129,-5.32776l34.3985,6.27796l-0.12361,0.6774c0,0 -29.78482,-5.43589 -33.66729,-6.14449c-0.81209,-0.1482 -9.02049,4.51695 -9.02049,4.51695z" fill="#8a8a8a"/><path d="M236.41843,161.91013l1.75147,-9.59681l1.93321,-6.96802c0,0 1.0835,0.67539 1.52724,1.32919c0.44374,0.65379 0.61849,1.83212 0.61849,1.83212l-3.8501,13.76495z" fill="#9e9e9e"/><path d="M231.81504,156.76931c0,0 -0.51543,-2.25409 -0.36462,-3.84193c0.20312,-2.13822 2.03548,-7.41318 2.03548,-7.41318l1.9683,0.02849c0,0 0.6044,0.91516 1.10127,0.85425c0.68508,-0.08397 2.62907,-1.31166 2.62907,-1.31166l-2.79569,12.51879z" fill="#9c9c9c"/><path d="M232.05095,158.6733c-0.57138,-1.22696 -0.08833,-2.53461 -0.08833,-2.53461l6.09116,-6.20765c0,0 0.67369,4.07088 0.50914,4.97245c-0.46779,2.5632 -0.33042,7.41642 -0.33042,7.41642c0,0 -2.9467,-0.45267 -3.88995,-1.07069c-1.13127,-0.74121 -1.72022,-1.34899 -2.29163,-2.57595z" fill="#888888"/><path d="M233.94176,158.23136c-0.61317,-2.14469 -0.80596,-6.71665 1.73815,-10.38629c2.54413,-3.66963 4.53661,-1.13961 4.53661,-1.13961c0,0 0.19603,4.53183 -0.2192,6.8071c-0.37824,2.07262 -2.17169,6.29333 -2.17169,6.29333c0,0 -3.2707,0.57017 -3.88385,-1.57456z" fill="#b4b4b4"/><path d="M239.41755,151.40829c-0.25336,1.38813 -5.29417,0.54685 -5.04082,-0.84126c0.25336,-1.38813 4.2323,-6.15337 5.03151,-6.00752c0.30954,0.05649 0.92464,0.27228 0.92751,1.35103c0.00451,1.7066 -0.76297,4.64725 -0.91822,5.49778z" fill="#bbbbbb"/></g><g stroke-width="0"><path d="M175.67929,143.36699c0,0 -4.87857,-5.88893 -4.54221,-7.73189c0.27463,-1.50479 6.23487,-0.54217 6.23487,-0.54217l7.40977,1.42536l-5.89401,9.88131z" fill="#f399c8"/><path d="M145.35447,139.50129c0,0 -0.57768,-2.23791 -0.13201,-3.24703c0.49184,-1.11361 3.16587,-4.29005 3.16587,-4.29005l22.69714,3.95365l7.42966,10.12153z" fill="#ee96c3"/></g></g><g stroke-width="0"><g><path d="M242.83264,137.24056l1.10989,-6.08138l47.04116,8.58528l-1.10988,6.08137z" fill="#61585b"/><path d="M243.25435,134.02043l0.59434,-3.25657l47.22,8.61795l-0.59435,3.25657c0,0 -8.50045,-1.55143 -17.23261,-3.14506c-2.73018,-0.49827 -6.84087,0.29381 -9.3636,-0.16663c-2.99985,-0.54748 -5.94471,-2.62726 -7.86896,-2.97845c-5.77001,-1.05306 -12.75485,-2.32782 -12.75485,-2.32782z" fill="#494344"/><path d="M305.26298,138.62303l-5.78245,-20.301l20.5793,3.75588l12.16619,19.27177c0,0 -5.86181,0.31404 -9.08765,-0.01215c-4.97783,-0.50337 -17.87541,-2.71446 -17.87541,-2.71446z" fill="#5e555b"/><path d="M304.64832,142.00265l0.99437,-5.4485c0,0 12.35953,0.77856 17.31216,0.88997c3.93053,0.08839 6.79512,0.01952 6.79512,0.01952l4.59707,7.89239c0,0 -5.53234,0.61282 -9.69249,0.30485c-5.63686,-0.41735 -20.0062,-3.65814 -20.0062,-3.65814z" fill="url(#color-5)"/><path d="M297.78473,118.17393l0.71748,-3.93123l18.8403,3.43846l2.85981,4.58409z" fill="url(#color-6)"/><path d="M304.06956,141.92241l0.2261,-1.23879c0,0 15.3698,2.72741 20.69886,3.52972c3.98482,0.59992 8.61658,-0.15767 8.61658,-0.15767l0.66891,1.28573l-8.45856,0.55082z" fill="#312c30"/><g><path d="M206.59467,113.35694l1.36766,-8.75505l92.39911,16.86338l5.49082,12.47027z" fill="#8a6672"/><path d="M221.37757,124.47743c0,0 -2.81498,-4.17908 -5.31167,-6.12048c-2.4967,-1.94142 -9.48583,-2.97559 -9.48583,-2.97559l0.48507,-2.03304c0,0 12.07344,2.48443 18.97143,3.84017c16.47839,3.23858 79.47159,15.5074 79.47159,15.5074l2.38527,7.11085z" fill="#755761"/><path d="M223.73254,127.4393l-2.51091,-3.09289l86.251,15.24388l0.6327,3.2475z" fill="#694e57"/><path d="M207.72912,104.96198l0.81313,-4.45542l89.4526,15.63506l2.77066,6.26042c0,0 2.11106,3.77844 -3.08472,2.80447c-1.63567,-0.30659 -10.00356,-5.25791 -11.6433,-5.56529c-15.79187,-2.96025 -78.30832,-14.67921 -78.30832,-14.67921z" fill="#916b77"/><path d="M208.78025,100.55011l0.33634,-2.50484l88.47275,16.00576l0.59869,2.54107z" fill="#9e7582"/><path d="M281.57875,114.53147c-7.82038,-2.08589 -71.24814,-14.71121 -71.24814,-14.71121l86.4265,15.77335l3.38678,8.18217c0,0 -10.74474,-7.15843 -18.56514,-9.24432z" fill="#b38f9a"/></g><path d="M254.10327,132.97925l1.64709,-9.02473l19.88378,3.62889l-1.64709,9.02473z" fill="#3a3336"/><path d="M255.66319,123.94284l0.97816,-1.36914l18.23717,3.32839l0.69582,1.6746z" fill="#4b4246"/><path d="M254.3308,132.51315l1.46821,-8.04471c0,0 0.09649,5.37042 2.51262,6.93595c2.41614,1.56552 15.34731,4.63628 15.34731,4.63628z" fill="#332c30"/><path d="M298.62082,120.58706l-2.77906,-6.60632c0,0 1.12601,-0.47221 1.71689,-0.36436c0.66057,0.12056 2.06069,1.05378 2.06069,1.05378l2.77906,6.60632z" fill="#757575"/><path d="M300.74207,125.78704l-3.99648,-9.4839l3.77761,0.68942l3.99648,9.48388z" fill="#5a5a5a"/><path d="M303.76014,132.89333l-3.99648,-9.48388l3.77759,0.68941l3.99649,9.4839z" fill="#505050"/><path d="M306.87859,140.25252c-0.68259,-1.61983 -3.34595,-7.94013 -3.34595,-7.94013l3.77759,0.68943l4.65236,11.34619c0,0 -2.11854,0.1577 -3.04996,-0.02735c-0.72654,-0.14434 -1.73308,-3.35389 -2.03407,-4.06816z" fill="#3b3b3b"/><path d="M204.61116,115.636l3.35285,-18.37128l3.12929,0.57108l-3.35287,18.37129z" fill="#443e42"/><path d="M185.75467,113.81993l0.38975,-5.95481l19.89989,3.63182l-1.06431,5.83166z" fill="url(#color-7)"/><path d="M186.03119,108.48553l1.94747,-10.67071l19.89989,3.63182l-1.94749,10.67072z" fill="#5e555b"/><path d="M187.95597,97.93905l1.53427,-3.95093l19.11285,3.4882l-0.74729,4.09459z" fill="url(#color-8)"/><path d="M257.82608,106.66026l1.10118,-6.03364l14.58665,3.74642l3.70129,5.46446z" fill="#5e555b"/><path d="M277.15137,110.18726l-3.65342,-5.72678c0,0 2.84321,1.22094 4.856,2.60302c2.01281,1.3821 5.18084,4.28875 5.18084,4.28875z" fill="#776b73"/><path d="M254.64549,107.25442l3.37144,-0.64972l25.2319,4.3339l3.31392,2.14087z" fill="#6d6269"/></g><g><path d="M256.23909,129.33335c0.2242,-1.22856 0.93393,-2.27484 1.50109,-3.21789c0.79026,-1.31412 1.59626,-2.37447 3.0209,-2.97459c0.87022,-0.36656 2.05892,-0.54547 3.07496,-0.60437c0.67203,-0.03893 1.72675,-0.25314 2.41838,-0.12691c1.56779,0.28614 1.88988,0.42799 2.93189,1.12238c0.62769,0.41829 2.15985,1.15444 2.56545,1.91172c0.34331,0.64093 0.64107,1.65949 0.85519,2.38942c0.3659,1.24743 0.82057,3.22571 0.57128,4.59179c-0.10538,0.5773 -0.82961,1.80566 -0.97103,2.30385c-0.44893,1.58154 -0.54116,2.08272 -1.93304,2.95044c-0.84596,0.52739 -2.42709,0.79568 -3.46848,1.02237c-1.0785,0.23476 -2.4891,0.85769 -3.64275,0.64713c-0.77866,-0.14212 -2.08748,-0.92482 -2.81735,-1.19645c-1.58347,-0.58935 -2.42975,-0.92113 -3.23781,-2.22759c-0.69295,-1.12036 -0.6624,-2.73952 -0.77696,-4.14044c-0.06015,-0.73597 -0.23058,-1.68973 -0.09171,-2.45081z" fill="#3a3a3a"/><path d="M256.97955,129.34791c0.20516,-1.12423 0.85464,-2.08167 1.37363,-2.94469c0.72319,-1.20255 1.46067,-2.17284 2.76443,-2.72207c0.79633,-0.33545 1.88412,-0.49916 2.81387,-0.55304c0.61495,-0.03566 1.58016,-0.23163 2.213,-0.11613c1.43471,0.26184 1.72944,0.39165 2.68296,1.02706c0.57439,0.38278 1.97647,1.05641 2.34766,1.74938c0.31417,0.58655 0.58664,1.51863 0.78258,2.18655c0.33484,1.14149 0.7509,2.95185 0.52279,4.20189c-0.09641,0.52827 -0.75919,1.65236 -0.8886,2.10826c-0.4108,1.44726 -0.49517,1.9059 -1.7689,2.69993c-0.77417,0.48258 -2.22103,0.72811 -3.17399,0.93554c-0.98691,0.21484 -2.27779,0.78487 -3.33345,0.5922c-0.71253,-0.13003 -1.91021,-0.84627 -2.57813,-1.09485c-1.44907,-0.5393 -2.22348,-0.8429 -2.96292,-2.03846c-0.63409,-1.02525 -0.60614,-2.50691 -0.71097,-3.78889c-0.05507,-0.67352 -0.211,-1.54629 -0.08392,-2.2427z" fill="#5a5a5a"/><path d="M269.78663,127.0811c-1.58334,-2.71414 -6.55807,-3.826 -6.55807,-3.826c0,0 2.00766,-0.1825 3.96425,0.18161c1.5849,0.29495 3.06625,0.93578 3.97337,2.42383c0.90785,1.48926 1.02879,3.02057 1.06036,4.44484c0.06197,2.79247 -0.79835,5.0678 -0.79835,5.0678c0,0 -0.05819,-5.57793 -1.64158,-8.29208z" fill="#6d6d6d"/><path d="M263.64514,131.06202c0.10337,-0.56634 0.64625,-0.94168 1.21264,-0.83835c0.56634,0.10336 0.94167,0.64625 0.83834,1.21265c-0.10337,0.56634 -0.64625,0.94167 -1.21264,0.83834c-0.56634,-0.10336 -0.94168,-0.64624 -0.83833,-1.21265z" fill="#272727"/><path d="M263.54285,131.18241c0.09481,-0.51944 0.59275,-0.86371 1.11221,-0.7689c0.51944,0.09481 0.86371,0.59275 0.7689,1.11221c-0.09481,0.51944 -0.59275,0.86372 -1.11221,0.76892c-0.51944,-0.09481 -0.86372,-0.59275 -0.76891,-1.11221z" fill="#131313"/></g></g></g></g></g><path d="M156.39012,223.32952c0.28453,-1.55892 3.74828,-44.25684 4.53636,-45.81584c1.06402,-2.10495 9.16488,0.74644 12.35157,-0.20467c9.75977,-2.91295 20.23689,-5.66366 20.23689,-5.66366c0,0 13.73553,3.09686 17.90319,3.85753c3.11666,0.56882 64.96341,3.22567 63.83963,13.51266c-1.52423,13.95303 -42.24078,-5.38997 -44.41874,6.54354c-0.55137,3.02102 1.78411,3.64598 0.66253,6.64049c-0.2692,0.71869 -3.51253,5.39119 -4.03413,6.99976c-0.82802,2.55338 1.69498,7.08245 -2.11784,9.53708c-3.03936,1.95665 -2.03951,7.23885 -2.88613,8.32004c-5.83431,7.45051 -13.34482,2.21254 -22.21119,0.59439c-10.51238,-1.91856 -26.47829,-1.04762 -35.48725,-3.94958c-3.88882,-1.25271 -9.20301,4.16612 -8.37483,-0.37167z" fill="#86c8f5" stroke-width="0"/><g stroke-width="0"><g><path d="M149.20158,239.76538l1.00217,-5.49123c0,0 2.17297,0.57758 3.18668,-0.21704c1.43218,-1.12256 4.78846,-5.73478 4.78846,-5.73478l-0.82973,8.07602c0,0 -3.60436,2.59351 -5.27891,3.20015c-1.20902,0.43795 -2.86865,0.16686 -2.86865,0.16686z" fill="#4d484c"/><g><g><path d="M111.16549,221.28605l5.03037,-4.73589c0,0 17.25075,-5.94824 24.45227,-8.58974c5.53965,-2.03192 14.41334,-5.44492 14.41334,-5.44492l-2.13844,26.39152z" fill="#eb59c1"/><path d="M114.60267,210.60548l4.67988,-28.90342c0,0 26.38276,9.08814 32.62121,13.23226c4.52702,3.00722 0.66443,16.35105 0.66443,16.35105l-6.86341,4.99646z" fill="#dd54b6"/><path d="M115.39803,188.95429l3.37532,-23.73904c0,0 12.27157,9.61968 16.68955,11.20433c6.54658,2.34816 19.6625,1.93067 19.6625,1.93067l-4.67772,25.63052c0,0 -16.45566,-1.13026 -17.87976,-1.74079c-4.87024,-2.08797 -17.1699,-13.28568 -17.1699,-13.28568z" fill="#ff77d8"/><path d="M116.02599,181.53265l2.52283,-13.82322l37.14864,2.45362l-4.53748,17.7817c0,0 -11.54652,0.333 -14.03286,-0.12078c-5.89785,-1.07638 -21.10113,-6.29131 -21.10113,-6.29131z" fill="#ee51c1"/></g><g><g><path d="M110.45714,210.47754l2.36755,-41.04848l8.26484,1.5084l-2.36755,41.04848z" fill="#a59da1"/><path d="M112.75577,169.61019c0,0 0.04409,-4.55835 2.04285,-5.49651c1.99877,-0.9382 7.04384,-0.27483 7.04384,-0.27483l-0.80837,7.28221z" fill="#b9b0b5"/><path d="M110.29705,221.26921l0.22276,-10.80847l8.22533,1.50119l-0.22276,10.80846z" fill="#8b8488"/></g><g><path d="M150.60557,214.35199l2.36755,-41.04847l4.46542,0.81495l-2.36754,41.04847z" fill="#a59da1"/><path d="M152.95093,174.31328l0.35496,-6.48281c0,0 3.00919,-0.14245 3.84116,1.17809c0.83197,1.32054 0.23607,5.29352 0.23607,5.29352z" fill="#b9b0b5"/><path d="M150.43316,225.14149l0.22276,-10.80848l4.43825,0.81l-0.22275,10.80848z" fill="#8b8488"/></g><path d="M109.70096,229.87807c0,0 -2.72457,-3.28533 -2.84925,-4.81722c-0.13879,-1.70524 2.05445,-4.95007 2.05445,-4.95007l47.68182,4.23477c0,0 1.56234,2.65757 1.71017,4.19544c0.20714,2.15556 -4.81645,6.23447 -4.81645,6.23447z" fill="#494547"/><path d="M121.45657,167.76449c0,0 -2.1769,-0.97401 -2.4975,-1.61626c-0.35207,-0.7053 1.28329,-2.52383 1.28329,-2.52383c0,0 12.03002,1.16689 17.27924,1.79743c6.11941,0.73506 16.41602,2.4274 16.41602,2.4274c0,0 0.30274,1.29938 0.1115,1.87174c-0.18517,0.55433 -0.84443,1.58244 -0.84443,1.58244z" fill="#c2b8bd"/><path d="M110.26953,228.74095c0,0 -0.70568,-3.0109 -0.643,-4.70276c0.05199,-1.40406 0.77755,-3.56629 0.77755,-3.56629l44.84552,4.06075c0,0 1.42938,3.4659 1.13084,5.10155c-0.32069,1.75717 -2.77776,3.9224 -2.77776,3.9224z" fill="#6f696b"/><path d="M120.23609,236.0793l1.00217,-5.49122l29.59746,3.77042l-1.00216,5.49122z" fill="#333032"/><path d="M108.86882,234.12812c-0.97634,-0.83683 -2.36592,-2.58037 -2.36592,-2.58037l0.36869,-6.86471c0,0 2.02555,2.67958 2.96883,4.23571c0.66766,1.10146 11.46451,1.56814 11.46451,1.56814l-1.00216,5.49123c0,0 -10.45758,-1.01316 -11.43395,-1.84998z" data-paper-data="{&quot;index&quot;:null}" fill="#444043"/><g><path d="M118.086,182.36478c0,0 -1.69134,-5.12913 -1.40443,-6.84775c0.19866,-1.18985 2.96067,-2.47402 2.96067,-2.47402l35.03524,3.31977c0,0 1.00694,3.35925 0.75046,4.89556c-0.26215,1.57022 -2.30674,4.42623 -2.30674,4.42623z" fill="#979797"/><path d="M118.32997,181.32562c0,0 -1.80973,-4.59685 -1.56722,-6.1158c0.1679,-1.05168 2.8826,-2.1232 2.8826,-2.1232l34.92374,3.82084c0,0 1.08508,3.00809 0.86828,4.36597c-0.22156,1.38779 -2.18364,3.87306 -2.18364,3.87306z" fill="#a2a2a2"/></g><g><path d="M117.45855,199.06311c0,0 -1.69134,-5.12913 -1.40443,-6.84775c0.19866,-1.18985 2.96066,-2.47404 2.96066,-2.47404l35.03523,3.31977c0,0 1.00696,3.35924 0.75048,4.89555c-0.26215,1.57022 -2.30673,4.42622 -2.30673,4.42622z" fill="#979797"/><path d="M117.70251,198.02397c0,0 -1.80972,-4.59684 -1.5672,-6.1158c0.16789,-1.05166 2.8826,-2.1232 2.8826,-2.1232l34.92374,3.82087c0,0 1.08507,3.00809 0.86828,4.36597c-0.22157,1.38779 -2.18364,3.87305 -2.18364,3.87305z" fill="#a2a2a2"/></g><g><path d="M116.84747,216.26785c0,0 -1.69134,-5.12913 -1.40443,-6.84775c0.19866,-1.18985 2.96066,-2.47403 2.96066,-2.47403l35.03523,3.31977c0,0 1.00694,3.35925 0.75047,4.89556c-0.26215,1.57022 -2.30673,4.42622 -2.30673,4.42622z" fill="#7a7a7a"/><path d="M117.0914,215.22874c0,0 -1.80974,-4.59684 -1.56722,-6.1158c0.16789,-1.05166 2.8826,-2.12318 2.8826,-2.12318l34.92377,3.82085c0,0 1.08505,3.00809 0.86828,4.36598c-0.22157,1.38779 -2.18364,3.87307 -2.18364,3.87307z" fill="#929292"/></g></g></g></g><path d="M110.35308,214.47772c0,0 -0.07108,-1.75778 0.04386,-4.08558c0.33765,-6.8342 2.18078,-40.94356 2.18078,-40.94356l2.34393,4.80185l-1.94232,29.55627z" fill="#777275"/></g></g><g fill="#86c8f5" stroke-width="0"><path d="M405.40276,210.21796c4.97581,0.64024 5.53809,7.44909 4.02109,15.34978c-1.51701,7.90065 -5.7768,13.8378 -9.5146,13.26104c-3.73777,-0.57678 -5.53809,-7.44909 -4.02109,-15.34978c1.51701,-7.90065 3.7821,-13.99864 9.5146,-13.26104z" data-paper-data="{&quot;index&quot;:null}"/><path d="M383.69506,221.82996c1.51701,-7.90065 3.3396,-12.18653 9.07206,-11.44894c4.97581,0.64024 5.98062,5.63702 4.46363,13.53767c-1.51701,7.90066 -5.7768,13.83779 -9.51459,13.26104c-3.73777,-0.57678 -5.53809,-7.44909 -4.02109,-15.34978z" data-paper-data="{&quot;index&quot;:null}"/><path d="M370.98107,227.29903c1.51701,-7.90065 3.97305,-15.1958 9.70553,-14.45822c4.97581,0.64024 5.34717,8.64631 3.83017,16.54695c-1.51701,7.90065 -5.577,9.69641 -9.3148,9.11964c-3.73778,-0.57678 -5.73787,-3.30773 -4.22088,-11.20835z" data-paper-data="{&quot;index&quot;:null}"/><path d="M368.38468,216.20666c4.97581,0.64024 5.98062,5.63702 4.46363,13.53767c-1.51701,7.90065 -5.577,9.69641 -9.3148,9.11964c-3.73778,-0.57678 -5.73786,-3.30773 -4.22087,-11.20835c1.51701,-7.90065 3.33959,-12.18652 9.07205,-11.44894z" data-paper-data="{&quot;index&quot;:null}"/></g></g></g></svg>