<svg version="1.1" xmlns="http://www.w3.org/2000/svg" xmlns:xlink="http://www.w3.org/1999/xlink" width="469.77816" height="188.35872" viewBox="0,0,469.77816,188.35872"><defs><linearGradient x1="551.94248" y1="202.63023" x2="551.26889" y2="207.39444" gradientUnits="userSpaceOnUse" id="color-1"><stop offset="0" stop-color="#1f1d20"/><stop offset="1" stop-color="#202022"/></linearGradient><linearGradient x1="553.05741" y1="197.8845" x2="552.28238" y2="203.36618" gradientUnits="userSpaceOnUse" id="color-2"><stop offset="0" stop-color="#302d31"/><stop offset="1" stop-color="#1f1e20"/></linearGradient><linearGradient x1="214.84027" y1="198.61201" x2="214.36564" y2="201.96864" gradientUnits="userSpaceOnUse" id="color-3"><stop offset="0" stop-color="#585758"/><stop offset="1" stop-color="#575758"/></linearGradient><linearGradient x1="200.44522" y1="206.75542" x2="200.07263" y2="209.39056" gradientUnits="userSpaceOnUse" id="color-4"><stop offset="0" stop-color="#363536"/><stop offset="1" stop-color="#353536"/></linearGradient><linearGradient x1="355.39184" y1="134.93879" x2="354.61646" y2="140.42272" gradientUnits="userSpaceOnUse" id="color-5"><stop offset="0" stop-color="#5e555b"/><stop offset="1" stop-color="#2b2629"/></linearGradient><linearGradient x1="348.62368" y1="113.10932" x2="348.06421" y2="117.06613" gradientUnits="userSpaceOnUse" id="color-6"><stop offset="0" stop-color="#72676e"/><stop offset="1" stop-color="#5e555b"/></linearGradient><linearGradient x1="234.83357" y1="111.05753" x2="234.00365" y2="116.92718" gradientUnits="userSpaceOnUse" id="color-7"><stop offset="0" stop-color="#5e555b"/><stop offset="1" stop-color="#4d454a"/></linearGradient><linearGradient x1="236.82888" y1="96.94559" x2="236.24618" y2="101.06686" gradientUnits="userSpaceOnUse" id="color-8"><stop offset="0" stop-color="#74686f"/><stop offset="1" stop-color="#5e555b"/></linearGradient></defs><g transform="translate(-87.03949,-95.64164)"><g data-paper-data="{&quot;isPaintingLayer&quot;:true}" fill-rule="nonzero" stroke="none" stroke-linecap="butt" stroke-linejoin="miter" stroke-miterlimit="10" stroke-dasharray="" stroke-dashoffset="0" style="mix-blend-mode: normal"><path d="M120.26261,231.44767c1.46108,-3.9159 4.90374,-15.82349 7.49257,-24.22691c2.58883,-8.4034 16.87519,-17.50532 20.36884,-14.89415c3.49365,2.61116 2.00195,1.15875 3.29498,9.04406c0.53963,3.29083 -7.10173,7.43114 -9.33928,10.74684c-2.87421,4.2591 -5.0042,11.20171 -4.07861,11.7668c0.81727,0.49897 2.78857,5.80459 3.65227,5.97728c9.65686,1.93093 19.23383,-0.32707 24.66708,1.70017c7.08685,2.64425 3.46451,13.31226 4.39525,19.89467c0.50567,3.57621 0.64893,6.83869 1.87353,10.0588c1.17065,3.0782 -2.49012,8.67379 -3.8634,12.35433c-5.45412,14.61767 -24.38058,10.64777 -38.99826,5.19364c-3.94103,-1.47048 -5.9789,6.42252 -9.07974,2.49329c-6.36684,-8.06777 -11.87498,-30.85984 -10.13061,-40.87624c0.55717,-3.19938 8.78099,-6.64793 9.74539,-9.23261z" fill="#86c8f5" stroke-width="0"/><g><g stroke-width="0"><path d="M277.72219,192.36228l-7.98114,-16.62636l25.40619,2.99614c0,0 -1.90366,5.61765 -2.47941,8.2616c-0.5569,2.5576 -0.92033,7.35167 -0.92033,7.35167z" fill="#7f7d7e"/><path d="M277.79204,192.57088l-2.8188,-6.06125c0,0 1.83763,3.85025 4.95584,4.91197c2.2454,0.76451 4.15637,0.72167 6.76652,1.41473c2.61012,0.69304 4.92701,1.69008 4.92701,1.69008z" fill="#6c6a6b"/></g><g><g><g><path d="M548.30723,206.97569l-1.3651,-5.05246c0,0 5.70037,2.48032 8.14718,3.72801c2.44681,1.2477 0.76441,2.15725 0.76441,2.15725z" fill="url(#color-1)" stroke-width="0"/><path d="M556.57875,198.584c0,0 1.13917,2.51202 -1.5576,3.03247c-2.69678,0.52046 -5.74246,1.32503 -5.74246,1.32503l-0.18603,-5.6176z" data-paper-data="{&quot;index&quot;:null}" fill="url(#color-2)" stroke-width="0"/><path d="M538.78471,205.62466l0.29377,-2.0777l14.62706,2.06814c0,0 1.13401,0.96254 1.56574,1.39349c0.38809,0.3874 -0.85925,0.82563 -0.85925,0.82563z" fill="#444444" stroke-width="NaN"/><path d="M539.09178,203.69369l-0.93339,-1.90332l12.49142,1.76617l3.1307,2.10105c0,0 -4.20965,-0.35484 -6.4942,-0.66029c-2.5765,-0.3445 -8.19455,-1.30367 -8.19455,-1.30367z" fill="#535353" stroke-width="0"/><path d="M538.02821,201.91005l-0.23197,-0.67916l11.36078,1.60629l1.59529,0.75649z" fill="#363636" stroke-width="0"/><path d="M538.78471,205.62466l0.15937,-1.12716c0,0 6.32653,1.35262 9.17797,1.7558c2.41634,0.34165 6.84241,0.50935 6.84241,0.50935c0,0 0.79091,0.57866 1.00741,0.81418c0.18263,0.19867 -0.31247,0.43378 -0.31247,0.43378c0,0 -4.74278,-0.26209 -7.03373,-0.586c-3.0908,-0.43701 -9.84093,-1.79994 -9.84093,-1.79994z" fill="#3a3a3a" stroke-width="NaN"/><path d="M538.11147,201.29392l-0.42435,-0.95251l13.50729,1.90981l-1.93213,0.65357z" fill="#242424" stroke-width="0"/><path d="M536.86052,200.41563l0.2316,-1.63801c0,0 8.04251,0.92887 11.00875,1.34831c2.02092,0.28574 5.06786,0.92481 5.06786,0.92481l-2.0043,1.22077z" fill="#3a3a3a" stroke-width="0"/><path d="M536.95787,198.80162l0.28595,-2.02244c0,0 7.62411,0.7448 10.90572,1.20878c2.83975,0.40152 7.6508,1.41494 7.6508,1.41494l-2.68032,1.68391c0,0 -3.60738,-0.59334 -5.82969,-0.90756c-2.954,-0.41766 -10.33244,-1.37763 -10.33244,-1.37763z" fill="#444444" stroke-width="0"/><path d="M537.18919,196.85739l0.11916,-0.84268c0,0 7.8136,0.97983 11.3754,1.48344c2.48013,0.35067 7.95075,1.24908 7.95075,1.24908l-0.97567,0.72158c0,0 -4.96379,-0.99338 -7.89982,-1.40849c-3.23474,-0.45738 -10.56981,-1.20291 -10.56981,-1.20291z" fill="#535353" stroke-width="0"/><path d="M537.16816,196.08085l0.04767,-0.33707c0,0 7.6717,0.57261 11.09798,1.05707c2.96232,0.41885 8.27092,1.6815 8.27092,1.6815l-0.01045,0.34234c0,0 -5.92662,-1.00455 -9.13968,-1.45886c-3.25506,-0.46024 -10.26638,-1.28498 -10.26638,-1.28498z" fill="#4e4e4e" stroke-width="0"/></g><g stroke-width="0"><g><g><g><path d="M533.05691,204.32193l-2.69378,-13.67544l0.78855,-1.62698c0,0 2.98849,3.68386 3.55316,6.27887c0.30654,1.40881 -0.20767,9.22718 -0.20767,9.22718z" fill="#383638"/><path d="M534.19453,203.7845c0,0 0.14317,-0.59551 -0.13559,-3.11423c-0.30398,-2.74675 -1.17357,-6.54294 -1.41247,-7.66137c-0.53631,-2.51052 -1.2655,-2.7454 -1.2655,-2.7454l4.83418,0.09593l3.02018,14.13782z" fill="#555355"/><path d="M531.43237,190.35699l-0.40299,-1.30565c0,0 2.1123,-0.50932 3.06443,-0.37467c0.89221,0.12614 1.91449,1.00521 1.91449,1.00521l0.39281,1.37764z" fill="#686668"/></g><path d="M527.44008,203.52777l-2.69378,-13.67543l0.45817,-1.65336c0,0 3.31889,3.71024 3.88351,6.30519c0.30654,1.4088 -0.20766,9.22718 -0.20766,9.22718z" fill="#383638"/><path d="M528.57767,202.99031c0,0 0.14317,-0.59552 -0.13558,-3.11423c-0.30398,-2.74675 -1.17357,-6.54294 -1.41247,-7.66137c-0.53631,-2.51052 -1.2655,-2.7454 -1.2655,-2.7454l4.16157,-0.50417c0,0 0.8404,1.38555 1.00388,2.15074c0.46574,2.18015 2.68891,12.58714 2.68891,12.58714z" fill="#555355"/><path d="M525.81552,189.56276l-0.61904,-1.33621c0,0 2.32833,-0.47876 3.28051,-0.34411c0.89221,0.12614 1.62644,0.96447 1.62644,0.96447l0.5166,1.39517z" fill="#686668"/><path d="M535.14394,202.91509c0.11471,-0.81144 0.86555,-1.37624 1.677,-1.26152c0.81145,0.11471 1.37624,0.86555 1.26152,1.677c-0.11471,0.81144 -0.86555,1.37624 -1.67699,1.26152c-0.81145,-0.11471 -1.37624,-0.86555 -1.26152,-1.677z" fill="#312f31"/><path d="M536.20319,200.10644l-1.20319,-5.7718l1.59576,0.08086l1.19417,5.83571z" fill="#444144"/></g><path d="M489.19019,193.10371l-2.21233,-11.24399l29.42335,5.34837l-1.81651,9.48617z" fill="#444444"/><path d="M502.25474,190.9965c0,0 0.70278,-0.42776 1.57265,-1.42066c0.79535,-0.9078 1.74166,-2.3676 2.18745,-2.77293c1.20455,-1.55315 3.49435,-0.75791 3.49435,-0.75791l-1.06136,0.50948l-5.06145,4.60206z" fill="#292929"/><path d="M503.55241,201.81414l-4.91417,-11.77535c0,0 3.3899,1.01587 5.22362,0.21563c1.42494,-0.62188 1.70019,-3.24111 3.30135,-3.29843c4.59381,-0.16441 17.40229,1.20841 17.40229,1.20841c0,0 2.20795,7.52822 2.72188,10.51667c0.35478,2.06311 0.14178,6.50908 0.14178,6.50908z" fill="#4a464a"/><path d="M509.484,189.41389c-4.42685,-1.26829 -2.80928,-2.4171 -2.80928,-2.4171c0,0 0.96722,-1.17843 2.83662,-1.06172c4.58745,0.28639 13.06464,2.06763 14.7735,2.28336c0.80592,0.10172 0.24575,0.73746 0.24575,0.73746c0,0 -1.80874,2.15395 -3.37966,2.18841c-1.57094,0.03445 -7.24009,-0.46208 -11.66695,-1.73042z" fill="#5e595e"/></g><g><path d="M490.94419,206.67216l-2.59953,-18.48143l18.68147,2.93055l4.14623,4.95764l6.05294,0.75632l1.05985,13.70268z" fill="#4d4846"/><path d="M495.53435,207.71213l21.76759,-6.40719l22.13579,2.88497c0,0 0.71349,4.32536 0.66542,5.68661c-0.02455,0.69401 -0.56561,2.8934 -0.56561,2.8934z" fill="#423d3b"/><path d="M492.92167,198.94905l-1.76971,-10.1943l0.81243,0.11487l1.76972,10.1943z" fill="#363332"/><path d="M496.22639,207.0004l0.17043,-1.2054c0,0 5.56899,-1.78335 14.54459,-0.5143c1.19257,0.16862 5.04267,3.28375 6.24465,3.4537c7.62625,1.07827 15.09089,2.13371 17.93073,2.53524c2.31276,0.32701 4.85648,-0.62627 4.85648,-0.62627l-0.35245,2.49261z" fill="#312e2c"/><path d="M500.35653,194.71744l-1.08028,-4.81401l8.22589,1.16306l3.49511,4.95947l6.21725,1.07507l-7.7878,0.86699z" fill="#585350"/><path d="M489.97918,200.34571l0.15796,-1.11709c0,0 8.49073,-2.58033 11.3396,-2.17752c4.29367,0.60708 16.14707,2.28306 16.14707,2.28306l-0.15796,1.11709c0,0 -12.05663,-1.7047 -16.35021,-2.31176c-2.79037,-0.39455 -11.13649,2.20623 -11.13649,2.20623z" fill="#2b2827"/></g></g></g><g><g><g><path d="M152.67095,195.73164c0.22272,2.28769 1.24961,4.41708 0.13238,4.52583c-1.01436,0.09875 -2.57135,-1.43331 -2.92008,-3.50054c-0.03537,-0.20965 -2.39429,-11.70392 -1.27702,-11.8127c1.11723,-0.10877 3.84202,8.49965 4.06475,10.78738z" fill="#615e5f" stroke-width="0"/><g><path d="M198.04381,171.92031c-0.46015,-0.59794 -2.59405,-2.22507 -2.59405,-2.22507l10.2255,-1.46285l-6.94888,6.28912c0,0 -0.22242,-2.00327 -0.68258,-2.60117z" fill="#756a6a" stroke-width="0"/><path d="M189.34373,168.97614l1.92264,-13.59808l19.17213,-3.21425l-2.74396,19.40699z" fill="#8a7c7c" stroke-width="0"/><path d="M148.9396,168.76458l9.13965,-17.02144l34.60797,4.7586l2.71537,13.17658c0,0 -22.98415,-1.65802 -30.7349,-1.81043c-3.21741,-0.06327 -15.7281,0.89672 -15.7281,0.89672z" fill="#7c787a" stroke-width="0"/><path d="M157.85977,154.14087l0.06072,-1.48763c0,0 25.66891,3.62932 33.73849,4.77029c4.51495,0.63836 16.88096,-4.0469 16.88096,-4.0469l-0.22814,1.6136c0,0 -12.07201,4.70738 -16.4365,4.07547c-8.00284,-1.15866 -34.01552,-4.92479 -34.01552,-4.92479z" fill="#535353" stroke-width="0"/><path d="M117.07694,164.9744l2.82152,-19.95552c0,0 5.47408,-6.35032 12.96836,-7.6095c9.30819,-1.56394 25.78073,2.56797 27.83099,2.85787c1.57334,0.22247 -14.23878,8.50705 -14.23878,8.50705l-2.82152,19.95552z" fill="#8d898b" stroke-width="0"/><path d="M294.78102,143.49833l2.02704,-2.88892l106.48582,15.20036l-2.06444,14.601c0,0 -37.66693,-3.46187 -49.70913,-5.58478c-5.9805,-1.0543 -56.73928,-21.32769 -56.73928,-21.32769z" fill="#c98cac" stroke-width="0"/><path d="M259.19046,240.47083l-2.68782,-13.44513c0,0 4.26995,6.50127 6.93879,7.96619c1.70039,0.93334 5.83148,1.90298 12.2233,0.34507c5.14565,-1.25418 11.03495,-5.9871 11.03495,-5.9871l-13.64342,13.08143z" fill="#a08e97" stroke-width="0"/><path d="M355.35718,206.68524l0.99203,-23.71609l18.56111,1.20767l-2.96754,20.98826c0,0 -6.57506,0.80657 -9.41071,1.11087c-1.30566,0.14012 -7.17488,0.40932 -7.17488,0.40932z" fill="#96858d" stroke-width="0"/><path d="M256.84652,243.92252l0.7756,-5.48559c0,0 11.65485,3.73699 16.66585,1.29314c2.43872,-1.18935 22.05502,-19.55649 32.87558,-29.77425c4.2227,-3.98747 7.10589,-6.73381 7.10589,-6.73381c0,0 3.8545,-3.26576 4.26198,-6.11901c0.20497,-1.43532 1.25531,-5.5071 0.75554,-7.91208c-0.50423,-2.42651 -2.55954,-3.17997 -2.55954,-3.17997l-2.92408,-14.12072l19.60075,2.91647l-6.60096,25.90432l3.36253,3.06277c0,0 -10.30091,4.60334 -15.57803,8.8622c-8.25676,6.66351 -35.66953,33.4747 -35.66953,33.4747z" fill="#918189" stroke-width="0"/><path d="M332.35591,203.78933l5.20613,-28.15229l13.60137,2.20162l8.58134,13.33487l-4.50478,15.85143z" fill="#96858d" stroke-width="0"/><path d="M327.61702,204.98685l-1.90416,-4.45625l7.17064,-25.43653l5.04168,0.62731l-4.67105,28.21058z" fill="#8f8187" stroke-width="0"/><path d="M354.00328,206.95469c0,0 3.65802,-6.21615 3.07613,-11.76308c-0.33503,-3.19387 -4.92185,-5.83172 -5.12724,-7.78968c-0.39233,-3.74022 -0.99933,-9.52637 -0.99933,-9.52637l7.16681,5.42069c0,0 2.3627,7.61956 2.35793,11.92279c-0.00316,2.89113 -2.36487,8.99663 -3.64621,11.44018c-0.10802,0.206 -1.26095,-0.04112 -1.33521,0.11535c-0.18142,0.38223 0.74091,0.74625 0.74091,0.74625z" fill="#86787e" stroke-width="0"/><path d="M357.69718,184.75133c0,0 -2.50669,-4.34869 -7.00709,-5.9663c-5.09493,-1.83127 -22.00075,-4.46008 -22.00075,-4.46008l158.16936,8.04082l2.07962,9.68835l6.27992,12.14143c0,0 -99.43928,-16.6568 -119.82487,-19.53912c-6.65211,-0.94055 -17.69623,0.09491 -17.69623,0.09491z" fill="#df8db7" stroke-width="0"/><path d="M198.37909,209.97586l0.32693,-36.58437c0,0 2.19174,-3.47807 2.71817,-3.62146c5.80404,-1.58086 39.01642,-7.64269 44.36202,-6.59775c5.85582,1.14466 -10.78354,10.83924 -10.78354,10.83924c0,0 -14.55153,-0.01137 -17.65921,3.84138c-4.2193,5.23091 -1.84913,23.09218 -1.84913,23.09218z" fill="#c77da3" stroke-width="0"/><path d="M274.2762,190.4804l-1.47712,-2.33507c0,0 7.6993,-7.60356 10.42989,-9.53301c2.81906,-1.99198 6.22752,-2.23731 6.22752,-2.23731l5.55471,3.11047c0,0 -4.36163,-1.12426 -6.94237,0.24419c-2.21547,1.17477 -6.36163,3.69782 -9.56719,6.36769c-2.3318,1.94212 -4.22543,4.38301 -4.22543,4.38301z" fill="#414041" stroke-width="0"/><path d="M157.69003,153.06017l6.38924,-10.90242l48.14955,6.80789c0,0 -3.4938,4.00583 -6.85793,5.51585c-3.30179,1.48206 -13.1433,3.46193 -13.1433,3.46193z" fill="#979395" stroke-width="0"/><path d="M158.64214,152.04052l5.59711,-11.01441l48.14955,6.80789c0,0 -3.4938,4.00583 -6.85793,5.51585c-3.30179,1.48206 -13.1433,3.46193 -13.1433,3.46193z" fill="#bdb7ba" stroke-width="0"/><path d="M356.34284,207.60938l-1.78257,-0.77066l17.26742,-1.77485c0,0 -3.81333,1.53868 -6.38438,1.97999c-2.57105,0.44134 -9.10044,0.56549 -9.10044,0.56549z" fill="#887980" stroke-width="0"/><path d="M200.77529,210.78374c0,0 -0.85201,-10.69003 -0.84593,-19.31255c0.00614,-8.66459 0.03705,-16.78698 0.51704,-20.33948c0.08133,-0.60186 3.10347,-10.204 3.67131,-10.65029c3.0651,-2.40905 9.64659,6.34211 15.31041,6.02839c8.38622,-0.46451 27.37849,1.7016 27.37849,1.7016l-9.11395,4.07488c0,0 -19.65916,0.114 -22.74648,4.86581c-4.17585,6.42733 0.3982,28.1544 0.3982,28.1544z" fill="#d486ae" stroke-width="0"/><path d="M202.38833,207.45797c0,0 -0.87358,-41.40161 1.851,-51.19359c1.2748,-4.58156 -0.77187,-14.06939 -0.77187,-14.06939l49.19265,13.99336l-0.83986,16.11108c0,0 -31.2937,-7.5486 -38.45991,-2.22545c-4.7837,3.55336 -1.99564,32.47154 -1.99564,32.47154z" fill="#e490bb" stroke-width="0"/><g stroke-width="0"><path d="M348.26806,164.46372l1.15846,-8.19339l9.26781,1.31039l-1.15846,8.19339z" fill="#454545"/><path d="M349.19928,163.82294l0.6685,-7.27617l11.21465,1.58565l-1.02172,7.22622z" fill="#b0b0b0"/><path d="M349.59946,159.34584l0.16991,-2.83443l11.42916,1.61598l-0.26703,1.88859c0,0 -7.76126,-0.77171 -9.46332,-0.87236c-0.56873,-0.03363 -1.86876,0.20222 -1.86876,0.20222z" fill="#bebebe"/><path d="M360.38854,164.85001c0,0 -5.12838,-3.30588 -4.03834,-6.9367c1.61978,-5.39538 5.63347,-4.34505 5.63347,-4.34505l39.65942,6.95408l-1.40846,9.96153z" fill="#9c989a"/><path d="M362.33873,163.82369c0,0 -1.96963,-3.83242 -2.08162,-4.7843c-0.16601,-1.411 2.22318,-4.05992 2.22318,-4.05992l41.18144,5.85634l-1.44445,7.35892z" fill="#898587"/><path d="M362.22152,164.00735l-0.73805,-2.06304l37.85524,5.35237l-0.2715,1.9203z" fill="#c1bcbf"/><path d="M362.57668,160.62987c0,0 -1.1287,-1.54117 -0.99746,-2.4693c0.12274,-0.86817 1.7611,-2.93154 1.7611,-2.93154l38.28586,5.41327l-0.76363,5.40082z" fill="#0d0d0d"/><path d="M362.46785,161.39951c0,0 -1.04416,-2.13899 -0.91293,-3.06712c0.12274,-0.86817 1.67656,-2.33371 1.67656,-2.33371l38.28587,5.41327l-0.76363,5.40082z" fill="#2e2e2e"/><path d="M357.42291,162.60845c-2.1835,-3.40619 -0.70268,-5.55659 -0.70268,-5.55659c0,0 1.23848,4.32834 2.33615,5.39008c1.2996,1.257 4.68262,3.11492 4.68262,3.11492l-3.48404,-0.42173c0,0 -2.44779,-1.92719 -2.83203,-2.52661z" fill="#7d7a7c"/><path d="M364.99891,162.07014c0,0 -0.57047,-2.31465 -0.41037,-3.44696c0.14073,-0.99534 1.32034,-2.98904 1.32034,-2.98904l4.77582,0.67526c0,0 -0.76514,2.11773 -0.88666,2.9774c-0.16706,1.18156 -0.02331,3.45856 -0.02331,3.45856z" fill="#555555"/><path d="M373.53073,163.2765c0,0 1.01333,-2.40493 1.17342,-3.53722c0.14073,-0.99534 -0.26342,-2.89878 -0.26342,-2.89878l5.33032,0.75366c0,0 -0.65266,1.63984 -0.77421,2.49955c-0.16706,1.18156 -0.13576,3.93642 -0.13576,3.93642z" fill="#555555"/><path d="M382.76555,164.58221c0,0 1.01334,-2.40493 1.17344,-3.53722c0.14073,-0.99534 -0.26343,-2.89877 -0.26343,-2.89877l5.2511,0.74243c0,0 -0.65266,1.63984 -0.77421,2.49955c-0.16706,1.18156 -0.13576,3.93642 -0.13576,3.93642z" fill="#555555"/><path d="M392.33369,165.93504c0,0 1.13959,-2.02796 1.29967,-3.16029c0.14073,-0.99534 -0.38969,-3.27569 -0.38969,-3.27569l5.09269,0.72005c0,0 0.54217,2.0781 0.42062,2.93784c-0.16706,1.18156 -1.33059,3.49818 -1.33059,3.49818z" fill="#555555"/><path d="M365.54681,156.29396l-0.54658,-0.88524l35.21237,4.97869l-1.63114,0.57733c0,0 -2.80221,-0.39622 -5.24017,-0.7409c-0.5314,-0.07515 -1.49096,-0.54282 -2.28693,-0.65541c-0.76962,-0.10883 -1.36807,0.13861 -2.32474,0.00335c-1.49184,-0.21095 -3.17506,-0.44892 -4.93718,-0.69807c-0.73057,-0.1033 -1.31256,-0.57296 -2.06225,-0.67894c-0.66665,-0.09424 -1.49985,0.17529 -2.16965,0.08061c-1.66233,-0.23505 -3.30828,-0.46777 -4.85583,-0.68655c-0.71063,-0.10047 -1.33913,-0.63206 -2.0003,-0.72554c-0.80715,-0.11414 -1.6329,0.21184 -2.34009,0.11185c-2.88476,-0.40788 -4.81755,-0.68114 -4.81755,-0.68114z" fill="#474747"/></g><g><path d="M210.39047,202.09656l4.08193,-2.31882c0,0 2.40302,3.18265 5.08384,4.46558c2.37108,1.13468 10.18623,2.84188 10.18623,2.84188l-3.23852,3.93971z" fill="#6d6a6b" stroke-width="0"/><path d="M201.50084,207.40451l10.17447,-6.02005c0,0 2.88696,2.68717 4.94171,3.64618c3.10854,1.45081 11.89461,4.21175 11.89461,4.21175l-4.83865,3.66604z" fill="#615e5f" stroke-width="0"/><path d="M200.40455,229.43535l1.69148,-22.55843c0,0 4.20046,1.39373 8.97015,2.09802c3.72291,0.54972 7.84943,0.27765 10.22354,1.22771c4.16793,1.66792 35.63406,18.59552 35.63406,18.59552l1.02961,10.4216z" fill="#575455" stroke-width="0"/><path d="M225.5692,205.68255c7.64416,-4.53977 17.5174,-16.72963 19.12334,-19.09953c1.15695,-1.70734 2.57632,-6.83517 2.57632,-6.83517l6.67378,7.82619c0,0 2.9227,21.11385 2.32116,33.80133c-0.16833,3.55006 1.77204,7.80887 0.39217,9.09483c-1.23634,1.15217 -18.35119,1.04497 -23.58522,-0.46748c-11.01485,-3.18278 -17.1404,-1.23162 -20.10969,-6.97928c-2.96932,-5.74764 4.93936,-10.96206 4.93936,-10.96206c0,0 5.67878,-5.19698 7.66884,-6.37886z" fill="#504e4f" stroke-width="0"/><path d="M234.92297,173.85335c0,0 0.60092,-1.42267 1.54238,-1.95967c1.2108,-0.69063 5.11975,-1.84038 5.11975,-1.84038c0,0 8.98529,3.35834 11.61729,6.24527c2.42842,2.66354 -5.2298,11.96422 -5.2298,11.96422l-1.23616,-5.58949z" fill="#464445" stroke-width="0"/><path d="M251.31689,223.86852c0,0 -10.06862,4.89439 -18.49346,3.87633c-8.12748,-0.98213 -14.62767,-7.85163 -14.3226,-9.24488c0.16526,-0.75487 8.47792,-2.91772 12.51119,-6.61087c4.48338,-4.10529 4.79799,-9.81904 6.417,-11.62058c4.51982,-5.02946 14.30661,-13.92547 14.10213,-20.05811c-0.21445,-6.43145 -10.53611,-9.98535 -10.53611,-9.98535c0,0 4.12851,-1.69035 9.08327,-1.12095c2.11054,0.24253 6.41933,2.2514 7.27964,2.76184c2.82117,1.67379 4.5632,3.57263 4.5632,3.57263c0,0 4.30564,-4.31909 7.91561,-4.1212c3.60997,0.19789 21.83769,5.75205 21.83769,5.75205l-17.81402,10.20051z" fill="#555354" stroke-width="0"/><path d="M236.95333,200.80215c0,0 6.09746,-10.11882 11.54213,-14.83796c5.44467,-4.71913 9.92817,-7.29733 13.42574,-6.80279c2.53275,0.3581 4.58244,9.34901 4.58244,9.34901l-14.99548,26.93517c0,0 -14.93623,1.19989 -16.05165,-1.46316c-0.88096,-2.10328 1.49683,-13.18024 1.49683,-13.18024z" fill="#585758" stroke-width="0"/><path d="M255.46469,230.99074c0,0 -1.98308,-6.53303 -1.23694,-9.4798c1.04235,-4.11662 4.24358,-16.44379 4.24358,-16.44379l0.47643,10.60686c0,0 -1.9988,9.56184 -2.29158,12.58045c-0.28247,2.91246 0.82297,5.26074 0.82297,5.26074z" fill="#3f3e3f" stroke-width="0"/><path d="M257.04631,213.17143c0.04096,-1.68566 1.38471,-9.28329 1.38471,-9.28329c0,0 11.50354,-13.08636 13.95173,-15.41969c0.71772,-0.68403 4.28266,-1.92814 4.28266,-1.92814l-2.30959,4.57564c0,0 -1.6429,0.37771 -1.88783,0.82568c-0.26096,0.47726 0.36709,1.95553 0.36709,1.95553l-6.26554,7.67857c0,0 -1.77585,0.76954 -2.02401,1.24485c-0.24823,0.47543 0.30829,1.4511 0.30829,1.4511c0,0 -5.06815,8.3136 -6.2404,10.58664c-0.54201,1.05098 -0.50982,2.50238 -0.50982,2.50238c0,0 -1.09823,-2.50358 -1.05725,-4.18926z" fill="#474647" stroke-width="0"/><path d="M246.98505,190.57193l19.69849,11.10241c0,0 -1.31895,0.83588 -1.62926,1.33641c-0.229,0.36934 -0.06389,1.39464 -0.06389,1.39464z" fill="#3f3e3e" stroke-width="NaN"/><path d="M254.37535,181.16093l20.21267,9.98692c0,0 -1.2221,0.6789 -1.50892,1.20022c-0.29898,0.54345 -0.0842,1.66377 -0.0842,1.66377z" fill="#3f3e3e" stroke-width="NaN"/><path d="M238.04269,207.81691c0,0 9.51012,9.11416 14.49352,15.85581c4.98337,6.74167 2.89286,7.66491 2.89286,7.66491z" fill="#636162" stroke-width="NaN"/><path d="M254.42652,186.84749c0,0 -6.34812,2.03538 -9.50382,4.71591c-3.15571,2.68053 -13.67318,17.53733 -13.26083,14.62081c0.41237,-2.91652 16.30579,-21.59655 18.08305,-21.34528c0.67278,0.09513 3.83905,-0.61082 4.61616,-0.26111c1.27577,0.57412 0.06543,2.26963 0.06543,2.26963z" fill="#918f91" stroke-width="0"/><path d="M199.97096,229.24337l14.06986,0.08226c0,0 12.51836,1.43439 15.60245,2.02707c7.51066,1.4433 29.6252,6.6642 29.6252,6.6642l-1.32753,6.19625c0,0 -24.62021,0.11986 -31.26255,-2.14802c-1.92162,-0.6561 -7.59448,-2.0824 -11.61901,-4.01706c-7.87582,-3.78606 -15.08842,-8.80468 -15.08842,-8.80468z" fill="#626061" stroke-width="0"/><path d="M256.99513,243.72407c0,0 0.64101,-4.2447 0.52405,-6.62435c-0.13143,-2.67466 -1.27432,-8.64229 -1.27432,-8.64229l1.76479,0.24952c0,0 1.0783,4.65359 1.1973,7.07496c0.13009,2.64739 -0.44702,8.19171 -0.44702,8.19171z" fill="#4a494a" stroke-width="0"/><path d="M256.68472,244.52482l0.56298,-3.35136c0,0 0.5241,0.34146 0.79295,0.37945c0.31942,0.04518 0.95714,-0.13201 0.95714,-0.13201l-0.27269,3.16961c0,0 -0.82598,0.29489 -1.19774,0.28291c-0.28488,-0.00916 -0.84259,-0.34863 -0.84259,-0.34863z" fill="#363536" stroke-width="0"/><path d="M256.37368,229.51115l-0.15517,-1.65868c0,0 0.46288,-0.29248 0.83602,-0.29955c0.35536,-0.00673 0.85545,0.18796 0.85545,0.18796l0.25358,1.78952c0,0 -0.54813,0.43498 -0.85476,0.43168c-0.28891,-0.00311 -0.93513,-0.45091 -0.93513,-0.45091z" fill="#585758" stroke-width="0"/><path d="M215.61966,237.4385c0,0 -7.40401,-4.02906 -7.21318,-5.37865c0.19178,-1.35634 6.53144,-1.64242 6.53144,-1.64242c0,0 10.86982,1.29373 15.75383,2.15861c2.73425,0.48421 11.05564,2.58888 11.05564,2.58888c0,0 7.07242,2.06468 7.71825,3.31916c0.70445,1.36838 -3.51944,3.64107 -3.51944,3.64107c0,0 -12.78139,-0.48814 -16.67799,-1.24937c-1.38421,-0.27044 -13.6485,-3.43719 -13.6485,-3.43719z" fill="#6b696a" stroke-width="0"/><path d="M206.30509,229.15136l-1.97468,-0.0461c0,0 1.10107,-3.31315 3.62042,-1.70241c2.51932,1.61079 21.44804,3.26565 21.44804,3.26565z" fill="#4b4949" stroke-width="0"/><path d="M200.06334,229.11097c0,0 -2.00492,-0.08999 -2.02477,-3.77178c-0.01004,-1.8637 0.25399,-16.15967 0.25399,-16.15967l4.10504,-2.34752c0,0 -0.16405,6.03015 -0.3662,8.93267c-0.26891,3.86033 -1.05399,13.47549 -1.05399,13.47549z" fill="#3f3d3e" stroke-width="0"/><path d="M206.60051,229.3607c0,0 3.46337,-1.6899 19.40881,0.22416c1.31681,0.15808 -1.77301,-0.28303 7.46313,1.53524c9.23614,1.81824 12.8941,3.86316 12.8941,3.86316c0,0 -14.7681,-3.16808 -20.90983,-4.03646c-7.00084,-0.98984 -18.85623,-1.58608 -18.85623,-1.58608z" fill="#838082" stroke-width="0"/><path d="M215.74986,200.72744c0,0 -4.63379,1.55402 -7.01361,2.84915c-2.67484,1.45571 -8.25396,5.45983 -8.25396,5.45983l-0.55253,-1.69567c0,0 4.26505,-3.28897 6.68654,-4.60681c2.6475,-1.44081 8.58104,-3.70219 8.58104,-3.70219z" fill="#4a494a" stroke-width="0"/><path d="M216.71075,200.60295l-3.76126,1.16546c0,0 0.18594,-0.62657 0.10176,-0.88487c-0.10001,-0.30691 -0.57305,-0.78588 -0.57305,-0.78588l3.36587,-1.34374c0,0 0.67958,0.5876 0.83748,0.92451c0.12102,0.25818 0.02914,0.92448 0.02914,0.92448z" fill="url(#color-3)" stroke-width="0"/><path d="M201.50078,208.39442l-3.30407,2.28978l0.16314,-2.18128l2.34139,-1.71127c0,0 0.69567,0.27016 0.83262,0.54476c0.12905,0.2587 -0.03312,1.05799 -0.03312,1.05799z" fill="url(#color-4)" stroke-width="0"/></g><path d="M333.64669,202.86442c0,0 1.53687,-4.24531 2.22971,-5.55028c0.47032,-0.88586 3.02075,-1.97116 3.02075,-1.97116l16.88236,2.16662c0,0 -2.07625,5.56183 -2.64486,6.86134c-0.2491,0.56926 -1.40152,1.10582 -1.40152,1.10582z" fill="#665b60" stroke-width="0"/><path d="M288.06716,177.98179c0,0 -3.5381,-2.07824 -8.25674,-3.90911c-2.99963,-1.16391 -7.14825,-2.32287 -9.00574,-2.47867c-5.40033,-0.45298 -8.60919,4.24899 -8.60919,4.24899c0,0 -2.91683,-2.75119 -4.88405,-3.89254c-1.83632,-1.06539 -6.00642,-2.66592 -6.00642,-2.66592c0,0 25.03035,-1.60286 28.9248,-1.63811c7.46599,-0.0676 33.82963,4.05529 33.82963,4.05529l4.16266,15.01636z" fill="#8b7c84" stroke-width="0"/><g stroke-width="0"><path d="M335.21902,202.13461c0,0 0.83035,-2.50469 1.36195,-3.3332c0.55119,-0.85908 2.86077,-1.59541 2.86077,-1.59541l14.38693,2.03415c0,0 0.24487,1.02737 -0.09146,1.72495c-0.45733,0.94844 -3.59116,3.28005 -3.59116,3.28005z" fill="#585852"/><path d="M335.32336,201.3966c0,0 0.726,-1.76665 1.25761,-2.59517c0.55119,-0.85908 2.96512,-2.33342 2.96512,-2.33342l14.38693,2.03416c0,0 0.14057,1.7654 -0.19582,2.46296c-0.45733,0.94844 -3.48682,2.54199 -3.48682,2.54199z" fill="#797971"/><path d="M352.11681,198.74589c-1.01363,-0.32302 -12.48374,-2.21886 -12.48374,-2.21886l14.36724,2.03139l-0.34466,2.43759c0,0 -0.52523,-1.92707 -1.53885,-2.25014z" fill="#85857b"/></g><path d="M339.17968,184.3458l0.72656,-5.13864l7.06564,0.999l0.55811,5.32029z" fill="#7c6e75" stroke-width="0"/><path d="M332.55753,156.72309l-2.99722,-8.63593l1.36574,0.19312l4.85041,9.35404z" fill="#d495b6" stroke-width="0"/><path d="M295.00609,143.70877l13.52141,-1.20859l21.22607,5.63966l2.83063,8.57297z" fill="#df9cbe" stroke-width="0"/><path d="M338.63643,189.34652l0.22706,-1.60582l10.75902,1.52124l0.73645,1.74205z" fill="#7c6e75" stroke-width="0"/><path d="M300.16559,171.63207c0,0 -18.1228,-1.35207 -23.77015,-1.6454c-8.55128,-0.44419 -25.77897,-0.53164 -25.77897,-0.53164c0,0 15.49742,-2.29362 29.08408,-1.90376c14.73139,0.42269 58.55117,5.1465 58.55117,5.1465l-0.75725,5.35579z" fill="#75686e" stroke-width="0"/><path d="M292.08746,179.34762l-3.13138,-1.01923c0,0 10.00806,-0.99309 15.18824,0.50973c5.18018,1.50279 13.6499,7.85642 13.6499,7.85642z" fill="#7c6e76" stroke-width="0"/><path d="M246.65309,168.85335c0,0 -29.88311,-19.77477 -30.11903,-24.4742c-0.21427,-4.26886 29.19936,6.49983 29.50935,6.43434c5.42405,-1.14579 77.60913,1.77385 77.60913,1.77385l25.39619,10.44764l52.32229,6.82076l5.33576,14.46488c0,0 -61.1165,-7.46078 -84.67154,-10.62659c-8.17658,-1.09894 -24.75243,-4.09674 -40.06528,-5.11019c-11.81182,-0.78173 -29.92826,1.0163 -29.92826,1.0163z" fill="#ee96c3" stroke-width="0"/><path d="M117.0372,163.19496l6.1157,-19.48975c0,0 0.88702,-6.99888 8.38132,-8.25807c9.30819,-1.56394 25.78073,2.56798 27.83099,2.85788c1.57334,0.22247 -14.23879,8.50705 -14.23879,8.50705l-2.82151,19.95552z" fill="#c4b4b3" stroke-width="0"/><g stroke-width="0"><path d="M397.98265,184.48292l-0.70903,-15.39374l90.89625,19.68366l-1.56226,5.64382l-47.64146,-1.83062z" fill="#ad6d8e"/><path d="M426.07563,173.97616l8.35928,-7.17307l26.8091,1.64034l-5.71885,9.69665z" fill="#8d788b"/><path d="M400.68908,171.58719l2.27292,-16.07539l31.5419,11.30521l-5.49525,6.16036z" fill="#857183"/><path d="M443.15499,174.23757l18.02682,-5.80169l27.03927,7.63331l-1.2484,6.78606z" fill="#947e92"/><path d="M396.64628,170.40101l4.65235,-12.23514l1.86149,-2.8311l-2.10892,14.91549z" fill="#756474"/><path d="M399.69938,181.47928l0.97594,-12.05481l43.11809,4.43126l-3.46196,15.72728z" fill="#746373"/><path d="M440.326,189.5666c0,0 1.25927,-6.19216 1.85423,-8.98048c0.50939,-2.3873 1.49878,-6.73395 1.49878,-6.73395l43.63745,7.08805l0.80431,8.59728z" fill="#867284"/><path d="M396.69621,170.33693l4.20225,-0.95197l-1.17041,12.1061z" fill="#6f5e6d"/><path d="M481.09188,174.95248l-19.15212,-6.10503l25.95496,7.34233l-0.85641,3.45964c0,0 -0.09079,-1.59773 -1.18854,-2.46483c-0.73433,-0.58003 -4.75792,-2.23212 -4.75792,-2.23212z" fill="#978195"/><path d="M441.58835,173.35987c0,0 8.38123,-2.31472 11.32165,-3.26652c2.14198,-0.69334 4.69716,-1.91875 4.69716,-1.91875l2.49312,0.46624l-15.88938,5.08981z" fill="#9c859a"/><path d="M427.23597,172.14694c0,0 1.68874,-2.5409 3.21477,-3.68885c1.526,-1.14796 3.92564,-1.632 3.92564,-1.632l-4.7031,5.66545z" fill="#806b7d"/><path d="M462.98776,166.92808l2.91497,-5.37822l14.52765,5.82456l4.64888,7.12094z" fill="#55494f"/><path d="M460.08734,169.34596c0,0 1.1824,-0.63087 1.81912,-1.13143c0.47962,-0.37703 1.35467,-1.65167 1.35467,-1.65167l21.53398,7.08447c0,0 0.78974,0.61357 1.32458,1.01811c0.55895,0.42276 1.95996,1.46619 1.95996,1.46619z" fill="#685960"/><path d="M463.6683,166.12324l2.28413,-4.30802l13.54128,5.27453c0,0 -7.71327,-2.63855 -12.18589,-3.01372c-2.59437,-0.21763 -3.63951,2.04721 -3.63951,2.04721z" fill="#41383c"/></g><path d="M124.15956,124.53117l0.72915,-5.15703c0,0 22.29784,1.84478 44.03177,4.97526c12.95143,1.86549 26.16398,5.34718 33.06611,5.96949c15.56276,1.40312 26.56019,-1.59903 26.56019,-1.59903l-7.76816,9.65065z" fill="#ffa1d1" stroke-width="0"/><path d="M119.65298,137.99038l4.39058,-15.62177c0,0 53.96818,9.71161 71.70128,11.77384c10.50436,1.2216 24.89296,-0.54057 24.89296,-0.54057l-2.04993,14.49815c0,0 -66.83626,-9.45002 -82.94838,-11.72813c-6.62469,-0.93668 -19.75028,28.23799 -19.75028,28.23799z" fill="#ee96c3" stroke-width="0"/><path d="M286.38871,238.81818l11.09204,-12.1628c0,0 12.04095,-14.31251 22.30947,-19.79163c2.6094,-1.39233 7.89554,-1.85335 7.89554,-1.85335c0,0 -7.92987,3.91349 -10.88992,6.31416c-6.99035,5.66934 -30.40706,27.49361 -30.40706,27.49361z" fill="#70646b" stroke-width="0"/><path d="M390.5292,188.0571l-3.71837,-18.70659l1.33682,0.18902c0,0 1.12612,5.66533 1.72113,8.6589c0.0848,0.42652 1.26537,1.82669 1.37037,2.355c0.18206,0.91583 -0.696,1.03763 -0.49255,2.06124c0.56656,2.85026 1.11938,5.63143 1.11938,5.63143z" fill="#795467" stroke-width="0"/><path d="M219.15359,148.61613c0,0 -9.46149,-7.95526 -8.26034,-11.59789c0.71919,-2.18105 18.50917,-7.69691 18.50917,-7.69691l67.59319,11.24579l-2.05402,2.83651l28.62337,9.34769l-74.80939,16.26217c0,0 0.00236,-5.66933 3.96929,-7.99501c3.85546,-2.26032 19.5074,-5.76863 19.5074,-5.76863c0,0 -33.87354,-4.83887 -41.08055,-5.94543c-2.40443,-0.36918 -11.99823,-0.68831 -11.99823,-0.68831z" fill="#f399c8" stroke-width="0"/><g><path d="M227.35385,130.97499l0.45337,-3.20645l174.81492,24.7172l-0.45337,3.20645z" fill="#584f54" stroke-width="0"/><path d="M396.84813,151.92003l0.38308,-2.70938l3.02518,0.42773l2.28617,3.08679z" fill="#685d63" stroke-width="0"/><g fill="#685d63" stroke-width="0"><g><g><g><path d="M390.21877,151.23435l0.41678,-2.94768l3.8429,0.54333l-0.41678,2.94768z"/><path d="M383.98327,150.35274l0.41678,-2.94768l3.8429,0.54334l-0.41678,2.94768z"/></g><g><path d="M377.98305,149.50434l0.41678,-2.94769l3.8429,0.54334l-0.41678,2.94768z"/><path d="M371.7475,148.62269l0.41678,-2.94768l3.84289,0.54334l-0.41678,2.94769z"/></g></g><g><g><path d="M365.62964,147.75768l0.41678,-2.94769l3.84289,0.54334l-0.41678,2.94768z"/><path d="M359.39411,146.87606l0.41678,-2.94768l3.8429,0.54333l-0.41678,2.94769z"/></g><g><path d="M353.39393,146.02766l0.41678,-2.94768l3.84289,0.54334l-0.41678,2.94768z"/><path d="M347.15845,145.14602l0.41678,-2.94768l3.84289,0.54333l-0.41678,2.94769z"/></g></g></g><g><g><g><path d="M346.92316,145.11279l0.41678,-2.94768l3.84289,0.54334l-0.41678,2.94768z"/><path d="M340.68768,144.23112l0.41678,-2.94768l3.8429,0.54334l-0.41678,2.94768z"/></g><g><path d="M334.68743,143.38275l0.41678,-2.94769l3.84289,0.54334l-0.41678,2.94768z"/><path d="M328.45193,142.5011l0.41678,-2.94768l3.84289,0.54333l-0.41678,2.94769z"/></g></g><g><g><path d="M322.33411,141.63612l0.41678,-2.94769l3.8429,0.54334l-0.41678,2.94768z"/><path d="M316.09858,140.75445l0.41678,-2.94768l3.8429,0.54334l-0.41678,2.94769z"/></g><g><path d="M310.09835,139.90609l0.41678,-2.94768l3.8429,0.54333l-0.41678,2.94769z"/><path d="M303.86285,139.02443l0.41678,-2.94768l3.8429,0.54334l-0.41678,2.94768z"/></g></g></g></g><g><g fill="#685d63" stroke-width="0"><g><g><path d="M297.70497,138.15377l0.41678,-2.94769l3.8429,0.54334l-0.41678,2.94768z"/><path d="M291.46946,137.27212l0.41678,-2.94768l3.8429,0.54334l-0.41678,2.94769z"/></g><g><path d="M285.46924,136.42377l0.41678,-2.94768l3.8429,0.54334l-0.41678,2.94769z"/><path d="M279.2338,135.54212l0.41678,-2.94768l3.8429,0.54333l-0.41678,2.94769z"/></g></g><g><g><path d="M273.11591,134.67711l0.41678,-2.94769l3.8429,0.54334l-0.41678,2.94768z"/><path d="M266.88039,133.79545l0.41678,-2.94768l3.8429,0.54334l-0.41678,2.94769z"/></g><g><path d="M260.88014,132.94709l0.41678,-2.94768l3.8429,0.54334l-0.41678,2.94769z"/><path d="M254.64464,132.06545l0.41678,-2.94768l3.8429,0.54333l-0.41678,2.94768z"/></g></g></g><g><g fill="#685d63" stroke-width="0"><g><path d="M254.40936,132.03218l0.41678,-2.94769l3.8429,0.54334l-0.41678,2.94768z"/><path d="M248.17383,131.15052l0.41678,-2.94768l3.8429,0.54333l-0.41678,2.94769z"/></g><g><path d="M242.17363,130.30216l0.41678,-2.94768l3.8429,0.54333l-0.41678,2.94769z"/><path d="M235.93813,129.42049l0.41678,-2.94768l3.8429,0.54333l-0.41678,2.94768z"/></g></g><g fill="none" stroke-width="1" font-family="sans-serif" font-weight="normal" font-size="12" text-anchor="start"><g/><g/></g></g></g><path d="M227.84329,128.02432l3.05234,-2.33196l3.02518,0.42773l-0.38308,2.70938z" data-paper-data="{&quot;index&quot;:null}" fill="#685d63" stroke-width="0"/></g><path d="M279.58981,168.55432l-2.56453,-0.08988c0,0 2.02184,-2.30721 11.68036,-2.0805c7.3226,0.1719 27.86698,1.75215 40.16049,2.73717c5.7088,0.45739 62.9144,-0.54573 62.9144,-0.54573l5.14962,0.71365c0,0 -62.59814,1.8998 -68.29949,1.41999c-12.60724,-1.06102 -33.8104,-2.80944 -39.97948,-3.09743c-3.35819,-0.15678 -9.06131,0.94273 -9.06131,0.94273z" fill="#70475c" stroke-width="0"/><path d="M376.84258,201.52187l-5.13372,1.13831l2.65105,-18.74484c0,0 7.70796,1.13872 15.24617,2.25235c21.64001,3.19691 125.64334,18.56154 125.64334,18.56154l-0.94181,6.66102z" fill="#5a5959" stroke-width="0"/><path d="M375.70854,203.00612l1.501,-2.82372l137.12545,11.10112l-13.27921,9.44554z" fill="#4b4a4a" stroke-width="0"/><path d="M497.82884,220.08182c0,0 -5.39664,-4.01985 -8.1993,-5.85841c-1.50201,-0.98531 -7.30961,-4.31548 -7.30961,-4.31548c0,0 7.51612,3.99533 10.69507,5.4022c1.13452,0.50209 2.14308,1.39488 3.36032,2.10037c0.39249,0.22747 2.58425,-2.24923 4.70448,-3.68086c0.63373,-0.42792 1.73151,0.09548 2.29803,-0.1585c1.29872,-0.58226 1.80701,-1.61267 1.80701,-1.61267c0,0 0.20399,0.96765 -1.17288,1.99882c-0.37565,0.28136 -2.21016,0.3778 -2.58286,0.68905c-1.49363,1.24747 -2.70944,2.69053 -3.09432,3.23321c-1.07409,1.51436 0.94298,2.40716 0.94298,2.40716z" fill="#414040" stroke-width="0"/><path d="M219.06346,148.90376l5.33145,-10.45535l7.02452,0.36268c0,0 -1.31202,2.48903 -2.08525,3.95596c-0.19475,0.36947 11.75705,0.08373 12.01164,0.79742c0.47237,1.32415 -5.57121,4.26693 -6.0575,5.1895c-0.55596,1.05469 -9.23012,0.22802 -9.23012,0.22802z" fill="#303030" stroke-width="0"/><path d="M218.97313,148.51726l5.11107,-9.64311c0,0 2.78799,1.71176 2.65008,2.68704c-0.2509,1.77454 -2.62457,7.28364 -2.62457,7.28364z" fill="#252525" stroke-width="0"/><path d="M371.31915,205.28719l0.41333,-2.92332l5.88271,-2.15l-1.63924,2.74997c0,0 -1.26658,1.16946 -2.08558,1.57807c-0.72065,0.35956 -2.57121,0.74523 -2.57121,0.74523z" fill="#383838" stroke-width="0"/><g><g fill="#4b4b4b" stroke-width="0"><g data-paper-data="{&quot;origPos&quot;:null}"><g data-paper-data="{&quot;origPos&quot;:null}"><path d="M437.60723,216.0443l0.31818,-2.25038l3.71308,0.52498l-0.31818,2.25038z" data-paper-data="{&quot;origPos&quot;:null}"/><path d="M431.43468,215.0568l0.31818,-2.25038l3.71307,0.52498l-0.31818,2.25037z" data-paper-data="{&quot;origPos&quot;:null}"/></g><g data-paper-data="{&quot;origPos&quot;:null}"><path d="M449.96823,217.90685l0.31818,-2.25038l3.71308,0.52498l-0.31818,2.25037z" data-paper-data="{&quot;origPos&quot;:null}"/><path d="M443.79566,216.91932l0.31818,-2.25037l3.71307,0.52498l-0.31818,2.25038z" data-paper-data="{&quot;origPos&quot;:null}"/></g></g><g data-paper-data="{&quot;origPos&quot;:null,&quot;index&quot;:null}"><g data-paper-data="{&quot;origPos&quot;:null}"><path d="M469.01545,220.3704l0.31818,-2.25038l3.71308,0.52498l-0.31818,2.25037z" data-paper-data="{&quot;origPos&quot;:null}"/><path d="M475.21981,221.13285l0.31817,-2.25037l3.71308,0.52498l-0.31818,2.25036z" data-paper-data="{&quot;origPos&quot;:null}"/></g><g data-paper-data="{&quot;origPos&quot;:null}"><path d="M456.62265,218.73289l0.31818,-2.25038l3.71307,0.52498l-0.31817,2.25037z" data-paper-data="{&quot;origPos&quot;:null}"/><path d="M462.82701,219.49541l0.31818,-2.25037l3.71308,0.52498l-0.31818,2.25037z" data-paper-data="{&quot;origPos&quot;:null}"/></g></g></g><path d="M396.46053,201.89942l1.90552,-13.47707l83.64209,11.82621l-1.90552,13.47707z" data-paper-data="{&quot;origPos&quot;:null}" fill="#444444" stroke-width="0"/><path d="M395.89696,206.58893l0.66954,-4.73535l83.39626,11.79144l-0.66954,4.73536z" data-paper-data="{&quot;origPos&quot;:null}" fill="#414141" stroke-width="0"/><path d="M395.73204,208.00402l0.22647,-1.6017l83.38565,11.78995l-0.22646,1.6017z" data-paper-data="{&quot;origPos&quot;:null}" fill="#3f3f3f" stroke-width="0"/><g stroke-width="0"><g data-paper-data="{&quot;origPos&quot;:null}" fill="#5a5a5a"><g data-paper-data="{&quot;origPos&quot;:null}"><path d="M439.29492,208.03599l1.92497,-13.61458l3.53625,0.49999l-1.92497,13.61458z" data-paper-data="{&quot;origPos&quot;:null}"/></g><g data-paper-data="{&quot;origPos&quot;:null}"><path d="M445.30656,208.88597l1.92497,-13.61458l3.53626,0.49999l-1.92497,13.61458z" data-paper-data="{&quot;origPos&quot;:null}"/><path d="M451.49501,209.76095l1.92498,-13.61459l3.53625,0.49999l-1.92497,13.61458z" data-paper-data="{&quot;origPos&quot;:null}"/></g></g><g data-paper-data="{&quot;origPos&quot;:null}" fill="#5a5a5a"><g data-paper-data="{&quot;origPos&quot;:null}"><path d="M458.03708,210.68594l1.92497,-13.61458l3.53625,0.49999l-1.92497,13.61459z" data-paper-data="{&quot;origPos&quot;:null}"/><path d="M464.22552,211.56093l1.92497,-13.61458l3.53626,0.49999l-1.92498,13.61459z" data-paper-data="{&quot;origPos&quot;:null}"/></g><g data-paper-data="{&quot;origPos&quot;:null}"><path d="M470.23718,212.41093l1.92498,-13.61459l3.53625,0.49999l-1.92498,13.61459z" data-paper-data="{&quot;origPos&quot;:null}"/><path d="M476.42562,213.28591l1.92498,-13.61459l3.53625,0.49999l-1.92497,13.61458z" data-paper-data="{&quot;origPos&quot;:null}"/></g></g><path d="M442.89192,208.54455l-1.14049,1.78897l-5.19578,-0.69111l1.23351,-9.71951l3.37244,-5.5098l-1.85669,13.62426z" fill="#3a3a3a"/><path d="M448.90114,209.39419l-1.14049,1.78898l-5.19579,-0.69112l1.23352,-9.71951l3.37244,-5.50979l-1.85669,13.62425z" fill="#3a3a3a"/><path d="M455.04688,210.26317l-1.14049,1.78898l-5.19579,-0.69111l1.23351,-9.71951l3.37244,-5.50979l-1.85669,13.62426z" fill="#3a3a3a"/><path d="M461.67066,211.19971l-1.14049,1.78898l-5.19579,-0.69111l1.23351,-9.71951l3.37244,-5.50979l-1.85669,13.62426z" fill="#3a3a3a"/><path d="M467.88473,212.07832l-1.14049,1.78898l-5.19579,-0.69111l1.23351,-9.71951l3.37244,-5.50979l-1.85669,13.62425z" fill="#3a3a3a"/><path d="M473.82561,212.9183l-1.14049,1.78897l-5.19578,-0.69111l1.23351,-9.71951l3.37244,-5.50979l-1.85669,13.62426z" fill="#3a3a3a"/><path d="M480.04752,213.79801l-1.14049,1.78897l-5.19579,-0.69111l1.23352,-9.71951l3.37244,-5.5098l-1.85669,13.62426z" fill="#3a3a3a"/></g><g stroke-width="0"><g data-paper-data="{&quot;origPos&quot;:null}" fill="#5a5a5a"><g data-paper-data="{&quot;origPos&quot;:null}"><path d="M396.4916,201.98399l1.92498,-13.61459l3.53626,0.49999l-1.92497,13.61458z" data-paper-data="{&quot;origPos&quot;:null}"/></g><g data-paper-data="{&quot;origPos&quot;:null}"><path d="M402.50322,202.83399l1.92497,-13.61458l3.53625,0.49999l-1.92497,13.61458z" data-paper-data="{&quot;origPos&quot;:null}"/><path d="M408.69166,203.70898l1.92497,-13.61458l3.53626,0.49999l-1.92498,13.61459z" data-paper-data="{&quot;origPos&quot;:null}"/></g></g><g data-paper-data="{&quot;origPos&quot;:null}" fill="#5a5a5a"><g data-paper-data="{&quot;origPos&quot;:null}"><path d="M415.23373,204.63396l1.92498,-13.61459l3.53626,0.5l-1.92497,13.61458z" data-paper-data="{&quot;origPos&quot;:null}"/><path d="M421.42227,205.50895l1.92497,-13.61458l3.53626,0.49999l-1.92498,13.61459z" data-paper-data="{&quot;origPos&quot;:null}"/></g><g data-paper-data="{&quot;origPos&quot;:null}"><path d="M427.43389,206.35893l1.92497,-13.61458l3.53626,0.49999l-1.92498,13.61459z" data-paper-data="{&quot;origPos&quot;:null}"/><path d="M433.62234,207.23395l1.92498,-13.61459l3.53626,0.49999l-1.92497,13.61459z" data-paper-data="{&quot;origPos&quot;:null}"/></g></g><path d="M400.08855,202.49256l-1.14049,1.78898l-2.70892,-0.33949l0.26242,-1.95667z" fill="#3a3a3a"/><path d="M406.0978,203.34224l-1.14049,1.78898l-5.19579,-0.69111l1.23352,-9.71951l3.37244,-5.50979l-1.85669,13.62426z" fill="#3a3a3a"/><path d="M412.24351,204.21116l-1.14049,1.78897l-5.19579,-0.69111l1.23351,-9.7195l3.37244,-5.5098l-1.85669,13.62426z" fill="#3a3a3a"/><path d="M418.86729,205.14769l-1.14049,1.78897l-5.19579,-0.69111l1.23352,-9.71951l3.37244,-5.50979l-1.85669,13.62426z" fill="#3a3a3a"/><path d="M425.08142,206.02634l-1.14049,1.78897l-5.19578,-0.69111l1.23351,-9.71951l3.37244,-5.50979l-1.85669,13.62426z" fill="#3a3a3a"/><path d="M431.02231,206.86631l-1.14049,1.78897l-5.19578,-0.69111l1.23351,-9.71951l3.37244,-5.5098l-1.85669,13.62426z" fill="#3a3a3a"/><path d="M437.24423,207.74607l-1.14049,1.78898l-5.19578,-0.69111l1.23351,-9.71951l3.37244,-5.50979l-1.85669,13.62426z" fill="#3a3a3a"/></g><g><g data-paper-data="{&quot;origPos&quot;:null}"><g data-paper-data="{&quot;origPos&quot;:null}" fill="none" stroke-width="1" font-family="sans-serif" font-weight="normal" font-size="12" text-anchor="start"/><g data-paper-data="{&quot;origPos&quot;:null}" fill="#4b4b4b" stroke-width="0"><path d="M401.70163,211.16006l0.31818,-2.25038l3.71307,0.52498l-0.31817,2.25037z" data-paper-data="{&quot;origPos&quot;:null}"/><path d="M395.52908,210.17256l0.31818,-2.25038l3.71307,0.52498l-0.31818,2.25038z" data-paper-data="{&quot;origPos&quot;:null}"/></g></g><g data-paper-data="{&quot;origPos&quot;:null,&quot;index&quot;:null}" fill="#4b4b4b" stroke-width="0"><g data-paper-data="{&quot;origPos&quot;:null}"><path d="M420.74892,213.62361l0.31818,-2.25037l3.71308,0.52498l-0.31818,2.25037z" data-paper-data="{&quot;origPos&quot;:null}"/><path d="M426.95325,214.38606l0.31818,-2.25036l3.71308,0.52498l-0.31818,2.25037z" data-paper-data="{&quot;origPos&quot;:null}"/></g><g data-paper-data="{&quot;origPos&quot;:null}"><path d="M408.35601,211.98616l0.31818,-2.25038l3.71308,0.52498l-0.31818,2.25037z" data-paper-data="{&quot;origPos&quot;:null}"/><path d="M414.56038,212.74859l0.31818,-2.25038l3.71308,0.52498l-0.31818,2.25038z" data-paper-data="{&quot;origPos&quot;:null}"/></g></g></g></g><path d="M231.84176,149.10067l1.61951,-4.02806c0,0 5.00629,-2.47094 8.52366,-2.12513c4.02103,0.39534 33.69131,4.61565 33.69131,4.61565c0,0 0.39289,1.94995 0.17008,3.14776c-0.28707,1.54322 -2.81134,4.28141 -2.81134,4.28141z" fill="#242424" stroke-width="0"/><path d="M257.01592,148.81213l0.44104,-3.11929l17.82451,2.52022l-0.44104,3.11929z" fill="#313131" stroke-width="0"/><path d="M253.48429,150.26262l0.09131,-0.64582c0,0 1.2045,-0.89131 2.2175,-0.74807c0.96193,0.13602 3.06189,0.91258 5.46676,1.41761c4.58126,0.96205 10.14002,1.85068 10.14002,1.85068l-0.09131,0.64582c0,0 -5.37452,-0.76197 -9.89137,-1.71435c-2.46459,-0.51966 -4.63079,-1.40058 -5.62865,-1.54167c-1.04885,-0.1483 -2.30422,0.73582 -2.30422,0.73582z" fill="#616161" stroke-width="0"/><path d="M282.54973,138.505l12.14455,4.77384l29.80352,9.57483c0,0 0.69453,0.32461 -7.22234,-1.53024c-2.69319,-0.63099 -13.00149,-3.71352 -21.86708,-6.88877c-2.39891,-0.85918 -15.11996,-6.13285 -15.11996,-6.13285z" fill="#df8cb7" stroke-width="0"/><path d="M102.35868,119.42701l0.83062,-5.87468c0,0 5.95868,-0.92789 9.72501,-0.39535c3.08338,0.43596 10.99151,5.09489 10.99151,5.09489l-1.85138,12.13102z" fill="#626061" stroke-width="0"/><path d="M215.8773,145.56252l3.40807,3.01279l12.31177,0.40444l50.24521,7.10423l-0.15271,1.0803c0,0 -37.67099,-5.47302 -49.49392,-6.87984c-3.24597,-0.38624 -12.95077,-1.03037 -12.95077,-1.03037z" fill="#ffa6d4" stroke-width="0"/><path d="M90.55455,182.32419l1.00374,-7.09899l25.52519,-13.1866l-3.50506,13.30927l-15.15327,8.08918z" fill="#3f3d3e" stroke-width="0"/><path d="M89.64891,177.08565c0,0 2.93697,-19.43205 5.07636,-28.80819c2.41465,-10.58244 8.68589,-31.50668 8.68589,-31.50668c0,0 8.55625,1.01854 11.87261,3.14963c2.83836,1.8239 6.81572,8.8594 6.81572,8.8594l-4.69716,33.22114c0,0 -13.65774,11.90331 -16.98891,13.71389c-5.12392,2.78501 -10.76449,1.37083 -10.76449,1.37083z" fill="#555354" stroke-width="0"/><path d="M101.77808,127.24376c0,0 -0.68599,-6.1495 1.7374,-8.53091c2.4234,-2.38141 6.87251,-2.77938 9.40756,-2.42095c2.02229,0.28593 6.19632,0.95561 8.41723,5.77249c2.22094,4.81685 -0.61358,11.15249 -0.61358,11.15249c0,0 -4.78128,-11.18319 -7.25291,-11.96232c-3.48772,-1.09942 -11.69574,5.98922 -11.69574,5.98922z" fill="#6f6b6c" stroke-width="0"/><path d="M87.52814,181.70607c0,0 5.34636,-25.56583 6.94848,-36.89692c1.66849,-11.80045 4.3568,-32.34481 4.3568,-32.34481c0,0 1.23483,-0.47475 2.26541,-0.32904c0.94234,0.13322 2.40375,0.98924 2.40375,0.98924c0,0 -2.89393,18.93662 -4.39117,29.52609c-1.73957,12.3031 -8.18735,39.53558 -8.18735,39.53558z" fill="#333232" stroke-width="0"/><path d="M87.03949,182.08504l3.14252,-14.41022c0,0 0.92035,1.02787 1.51931,1.07351c0.75628,0.0576 2.61801,-1.13097 2.61801,-1.13097l-3.34981,15.02332z" fill="#2e2d2d" stroke-width="0"/><path d="M117.62424,149.78898c-1.14305,8.08422 -6.44011,16.08941 -11.17222,18.37685c-3.93014,1.89981 -12.30104,7.54136 -11.15801,-0.54284c0.24249,-1.71504 3.92951,-13.19122 5.04086,-20.13385c1.46972,-9.18149 0.53752,-14.34374 1.88232,-17.01338c2.43169,-4.82712 8.10766,-5.51879 10.30035,-5.20876c4.32226,0.61113 6.24974,16.43778 5.10671,24.52199z" fill="#585758" stroke-width="0"/><path d="M149.77502,168.55787l-0.34304,-1.80656c0,0 8.05059,-0.22569 14.07709,0.13743c8.48393,0.51119 32.02507,2.64045 32.02507,2.64045l1.59887,1.52001c0,0 -25.09019,-1.91102 -33.8256,-2.37054c-2.56547,-0.13495 -13.53239,-0.12076 -13.53239,-0.12076z" fill="#585657" stroke-width="0"/><path d="M142.09462,180.80374l7.05543,-12.83l7.30407,0.07261c0,0 -2.32486,4.02768 -2.34511,4.78748c-0.0969,3.63052 -0.48484,27.78108 -0.48484,27.78108c0,0 -1.52457,0.22924 -2.43965,-1.79434c-1.64195,-3.63093 -2.49871,-10.68234 -3.93919,-13.00957c-1.24457,-2.01073 -5.15067,-5.00726 -5.15067,-5.00726z" fill="#5a5759" stroke-width="0"/><path d="M158.81318,152.05714l4.44709,-10.81726l2.32592,0.21664l-5.57839,10.88173z" fill="#a5a0a2" stroke-width="0"/><path d="M165.68769,151.93488l0.19638,-1.38894l26.23528,3.70943l-0.19637,1.38894z" fill="#494748" stroke-width="0"/><path d="M166.02384,148.98156l0.19638,-1.38894l26.23528,3.70943l-0.19638,1.38894z" fill="#494748" stroke-width="0"/><path d="M143.64477,168.44797l2.81934,-19.94l13.47302,-7.80694l4.8405,0.36954l-22.10928,40.11332l-5.2755,-2.76921z" fill="#dbd5d8" stroke-width="0"/><path d="M115.73919,176.53529l1.49435,-11.69681l26.50253,2.94987c0,0 -0.02826,2.55899 -0.26897,3.3314c-0.59997,1.92544 -3.55876,8.51392 -3.55876,8.51392z" fill="#ccc6c9" stroke-width="0"/><path d="M121.08635,165.78766l0.04421,-0.31269l22.71388,2.33445l-2.74556,0.80788c0,0 -4.30513,-0.42065 -6.98273,-0.8313c-3.66633,-0.56227 -13.02982,-1.99831 -13.02982,-1.99831z" fill="#d8d1d5" stroke-width="0"/><path d="M125.09033,162.57981l2.37998,-16.83257l15.9662,2.25748l-2.37998,16.83257z" fill="#a39999" stroke-width="0"/><path d="M115.44161,176.66465l1.59027,-11.24744c0,0 7.85572,7.56092 11.77249,10.47859c3.91679,2.91767 10.39317,3.55059 10.39317,3.55059z" fill="#b4afb1" stroke-width="0"/><path d="M147.90752,187.35778c0,0 2.85398,1.45437 3.95943,1.46552c0.67908,0.00681 2.04245,-1.40514 2.04245,-1.40514l0.37196,9.21604l-0.58731,4.1538c0,0 -1.9675,0.03635 -2.87242,-2.69986c-0.74663,-2.2576 -2.91413,-10.73029 -2.91413,-10.73029z" fill="#504e4f" stroke-width="0"/><path d="M142.31822,181.39722l20.16314,-39.30788l1.6977,0.44722l-20.11903,39.72846z" fill="#858183" stroke-width="0"/><path d="M131.35359,138.68553l1.7309,-1.42217c0,0 27.23575,3.20057 39.52382,4.938c10.66522,1.50797 31.58093,4.82176 31.58093,4.82176l0.25248,1.9964c0,0 -20.98871,-3.68061 -32.23051,-5.27008c-12.83669,-1.81498 -40.85762,-5.06389 -40.85762,-5.06389z" fill="#918b8e" stroke-width="0"/><path d="M132.53409,137.60947l2.27574,-1.63895c0,0 25.68279,3.27483 37.97084,5.01223c10.66521,1.50797 31.58093,4.82176 31.58093,4.82176l0.25247,1.9964c0,0 -20.9887,-3.68061 -32.23051,-5.27009c-12.83669,-1.81498 -39.84946,-4.92137 -39.84946,-4.92137z" fill="#a59fa2" stroke-width="0"/><path d="M193.59649,167.23592l-1.11099,-5.89623c0,0 0.37825,-1.16354 0.72373,-1.22862c0.30439,-0.05736 1.24163,0.85827 1.24163,0.85827l1.11098,5.89623c0,0 -0.3963,0.83033 -0.70139,0.88781c-0.34512,0.06503 -1.26402,-0.51748 -1.26402,-0.51748z" fill="#494242" stroke-width="0"/><path d="M153.34771,164.22011l4.83596,-8.89629l3.84745,0.54399l-4.83596,8.89629z" fill="#9c989a" stroke-width="0"/><path d="M165.30937,147.95843l1.96801,-0.69931l24.19563,3.43928l1.86519,1.22308z" fill="#757274" stroke-width="0"/><path d="M165.00919,150.75522l1.96801,-0.69932l24.19562,3.43929l1.8652,1.22307z" fill="#757274" stroke-width="0"/><path d="M113.18238,175.35248l9.83212,-57.34601l1.82009,0.84383l-9.34814,57.81956z" fill="#686666" stroke-width="0"/><path d="M112.98278,175.59726l2.92392,-16.00401l1.73394,4.10159l-2.29546,13.11788z" fill="#535252" stroke-width="0"/><path d="M146.62827,157.25219c0,0 2.43149,-2.025 2.56403,-2.96248c0.13009,-0.91996 -1.77602,-2.6108 -1.77602,-2.6108c0,0 2.87873,1.08339 2.53919,2.74048c-0.25864,1.26219 -1.60532,3.28257 -1.84617,4.36185c-0.68484,3.0688 -2.39529,10.2474 -2.39529,10.2474z" fill="#c4bec1" stroke-width="0"/><path d="M154.49628,156.434l3.32014,-9.82741l3.13334,-3.95457l-3.96703,9.09237z" fill="#aca7a9" stroke-width="0"/></g></g><g stroke-width="0"><path d="M275.28861,145.40563l2.99588,-2.93872c0,0 1.99072,-1.16913 2.76908,-0.78136c0.88743,0.44212 2.27125,3.29248 2.27125,3.29248l-1.10807,3.96588c0,0 -4.23803,-0.60685 -5.47317,-0.91609c-0.55682,-0.13942 -1.45493,-2.62216 -1.45493,-2.62216z" fill="#c0c0c0"/><path d="M231.4413,148.95314c0,0 0.22847,-2.87635 1.4366,-3.85571c1.51405,-1.22735 7.84382,-2.56658 7.84382,-2.56658l-1.36677,4.59096l-0.40895,2.89246z" fill="#838383"/><path d="M231.28124,148.8554l9.07229,-6.27297l37.19241,5.25866l-1.04737,7.40761z" fill="#999999"/><path d="M232.36229,148.3453l6.91678,-4.92125l33.43971,4.72806l-0.81772,5.7836c0,0 -4.04732,-0.57226 -9.25375,-1.30836c-3.38501,-0.47862 -7.11128,-2.07804 -10.68241,-2.58297c-3.83094,-0.54167 -7.46098,0.01767 -9.61276,-0.28657c-4.21128,-0.59544 -9.98984,-1.41248 -9.98984,-1.41248z" fill="#d952b3"/><path d="M235.82043,148.83202l9.11291,-4.67352l12.34135,1.74495c0,0 -7.57047,0.85593 -10.04525,1.42966c-2.62728,0.60907 -6.1033,2.24908 -6.1033,2.24908z" fill="#a5899d"/><path d="M243.74667,149.83887c0,0 5.17115,-0.25065 7.60406,0.09337c3.10864,0.43953 9.52245,2.32817 9.52245,2.32817l-9.51204,-1.68344z" fill="#adadad"/><path d="M231.3873,148.85204l8.1928,-5.66042l34.62231,4.8953l-0.0964,0.6818c0,0 -29.97863,-4.23869 -33.88636,-4.79122c-0.81735,-0.11555 -8.83232,4.87457 -8.83232,4.87457z" fill="#8a8a8a"/><path d="M277.21709,161.62979l1.36574,-9.65926l1.6526,-7.03986c0,0 1.10969,0.63148 1.57927,1.26697c0.46957,0.6355 0.69136,1.80588 0.69136,1.80588l-3.29576,13.9081z" fill="#9e9e9e"/><path d="M272.41148,156.67748c0,0 -0.6053,-2.23163 -0.51818,-3.82426c0.1173,-2.14464 1.73698,-7.48871 1.73698,-7.48871l1.96786,-0.05035c0,0 0.64054,0.89022 1.13461,0.80945c0.68116,-0.11137 2.57442,-1.4159 2.57442,-1.4159l-2.29209,12.6207z" fill="#9c9c9c"/><path d="M272.72347,158.57046c-0.62007,-1.20309 -0.18977,-2.52904 -0.18977,-2.52904l5.83769,-6.44659c0,0 0.83618,4.04064 0.70787,4.94808c-0.36477,2.57988 -0.03313,7.4237 -0.03313,7.4237c0,0 -2.96248,-0.3343 -3.92969,-0.91404c-1.16007,-0.69532 -1.77285,-1.27902 -2.39294,-2.48213z" fill="#888888"/><path d="M274.59506,158.05314c-0.69856,-2.1184 -1.07431,-6.67898 1.32081,-10.44756c2.39513,-3.76859 4.48732,-1.32039 4.48732,-1.32039c0,0 0.37738,4.52032 0.05359,6.81041c-0.29494,2.08608 -1.91789,6.37524 -1.91789,6.37524c0,0 -3.24523,0.70068 -3.94378,-1.41773z" fill="#b4b4b4"/><path d="M279.7932,151.01627c-0.19754,1.39718 -5.26802,0.75843 -5.07049,-0.63872c0.19754,-1.39718 3.98247,-6.31796 4.78689,-6.20419c0.31154,0.04404 0.9348,0.23504 0.98086,1.31279c0.07284,1.70505 -0.57624,4.67407 -0.69729,5.53013z" fill="#bbbbbb"/></g><g stroke-width="0"><path d="M215.78402,145.53406c0,0 -5.11046,-5.68881 -4.8482,-7.54377c0.21412,-1.51458 6.20816,-0.79142 6.20816,-0.79142l7.46092,1.12745l-5.49354,10.10944z" fill="#f399c8"/><path d="M185.32869,142.88594c0,0 -0.66684,-2.21299 -0.26194,-3.23913c0.44685,-1.13241 2.99153,-4.41339 2.99153,-4.41339l22.83726,3.04147l7.82907,9.81588z" fill="#ee96c3"/></g></g><g stroke-width="0"><g><path d="M282.63815,136.72314l0.86542,-6.12092l47.34725,6.69446l-0.86542,6.12092z" fill="#61585b"/><path d="M282.93059,133.48868l0.46344,-3.27776l47.52728,6.71994l-0.46344,3.27775c0,0 -8.55577,-1.20972 -17.34473,-2.45238c-2.74794,-0.38853 -6.82362,0.56754 -9.36279,0.20849c-3.01935,-0.42691 -6.04515,-2.38706 -7.98192,-2.6609c-5.80755,-0.82114 -12.83783,-1.81517 -12.83783,-1.81517z" fill="#494344"/><path d="M345.07377,135.60423l-6.59085,-20.05314l20.71322,2.92868l12.92824,18.76908c0,0 -5.84451,0.54856 -9.08086,0.35181c-4.99399,-0.30361 -17.96977,-1.99638 -17.96977,-1.99638z" fill="#5e555b"/><path d="M344.59494,139.00577l0.77538,-5.48394c0,0 12.38079,0.28296 17.3339,0.19589c3.9309,-0.06908 6.79045,-0.25262 6.79045,-0.25262l4.90947,7.70195c0,0 -5.50336,0.83389 -9.67253,0.69276c-5.64904,-0.19125 -20.13665,-2.85399 -20.13665,-2.85399z" fill="url(#color-5)"/><path d="M336.78253,115.47104l0.55946,-3.95682l18.96291,2.68119l3.0411,4.4659z" fill="url(#color-6)"/><path d="M344.01342,138.94876l0.17631,-1.24684c0,0 15.46668,2.10968 20.82359,2.6979c4.00564,0.43984 8.60334,-0.50262 8.60334,-0.50262l0.71987,1.25791l-8.42972,0.88912z" fill="#312c30"/><g><path d="M245.47274,114.30995l1.01595,-8.80281l93.00032,13.14938l5.98585,12.24038z" fill="#8a6672"/><path d="M260.68914,124.82949c0,0 -2.98007,-4.063 -5.55253,-5.90284c-2.57244,-1.83987 -9.59737,-2.59333 -9.59737,-2.59333l0.40327,-2.05082c0,0 12.16322,1.99891 19.10999,3.07731c16.59488,2.57604 80.02887,12.31224 80.02887,12.31224l2.66813,7.00958z" fill="#755761"/><path d="M263.16086,127.69466l-2.63277,-2.98983l86.79229,11.7774l0.76226,3.21954z" fill="#694e57"/><path d="M246.27009,105.8763l0.63406,-4.48439l90.007,12.04004l3.01917,6.14442c0,0 2.26069,3.69087 -2.96995,2.92576c-1.64664,-0.24086 -10.2061,-4.85308 -11.85686,-5.09454c-15.89774,-2.32543 -78.8334,-11.53129 -78.8334,-11.53129z" fill="#916b77"/><path d="M247.14366,101.42589l0.23576,-2.51631l89.04278,12.44971l0.69999,2.51505z" fill="#9e7582"/><path d="M320.4437,112.48052c-7.89766,-1.77104 -71.78012,-11.84602 -71.78012,-11.84602l86.98885,12.29941l3.71175,8.03998c0,0 -11.02279,-6.72236 -18.92048,-8.49339z" fill="#b38f9a"/></g><path d="M293.72907,132.01385l1.28433,-9.08342l20.01317,2.82966l-1.28433,9.08343z" fill="#3a3336"/><path d="M294.92584,122.92223l0.92254,-1.40722l18.35585,2.59534l0.7623,1.64538z" fill="#4b4246"/><path d="M293.93776,131.53904l1.14484,-8.09706c0,0 0.31149,5.36226 2.78838,6.82976c2.4769,1.46751 15.52069,4.01789 15.52069,4.01789z" fill="#332c30"/><path d="M337.71461,117.84877l-3.04139,-6.48971c0,0 1.10621,-0.51691 1.70092,-0.43281c0.66485,0.09402 2.10124,0.97039 2.10124,0.97039l3.04139,6.48971z" fill="#757575"/><path d="M340.04242,122.95959l-4.3731,-9.31624l3.80217,0.53759l4.3731,9.31623z" fill="#5a5a5a"/><path d="M343.34268,129.93932l-4.3731,-9.31623l3.80216,0.53759l4.3731,9.31624z" fill="#505050"/><path d="M346.75333,137.16773c-0.74692,-1.59118 -3.66125,-7.79976 -3.66125,-7.79976l3.80216,0.5376l5.10306,11.15074c0,0 -2.11052,0.24242 -3.04859,0.09481c-0.73173,-0.11514 -1.86602,-3.28181 -2.19536,-3.98343z" fill="#3b3b3b"/><path d="M243.58209,116.66662l2.61443,-18.49084l3.14964,0.44533l-2.61443,18.49084z" fill="#443e42"/><path d="M224.66798,115.60721l0.15095,-5.96564l20.02936,2.83194l-0.82991,5.86962z" fill="url(#color-7)"/><path d="M224.73064,110.26599l1.51856,-10.74016l20.02936,2.83194l-1.51857,10.74017z" fill="#5e555b"/><path d="M226.23153,99.65087l1.37483,-4.00923l19.23722,2.71995l-0.5827,4.12124z" fill="url(#color-8)"/><path d="M296.39488,105.5669l0.85865,-6.07291l14.72496,3.15923l3.91717,5.31181z" fill="#5e555b"/><path d="M315.84588,108.31711l-3.87984,-5.57587c0,0 2.88981,1.10608 4.95634,2.40646c2.06655,1.30038 5.34846,4.07781 5.34846,4.07781z" fill="#776b73"/><path d="M293.24062,106.28797l3.34272,-0.78419l25.38524,3.31992l3.39699,2.00646z" fill="#6d6269"/></g><g><path d="M295.71718,128.28535c0.17483,-1.23655 0.84207,-2.3104 1.371,-3.27543c0.73701,-1.34474 1.49987,-2.43649 2.89936,-3.09322c0.85485,-0.40115 2.03542,-0.62749 3.04828,-0.72704c0.66992,-0.06581 1.71523,-0.32209 2.41134,-0.22365c1.578,0.2231 1.90551,0.35198 2.97447,1.00407c0.64394,0.39283 2.20436,1.06701 2.63998,1.80744c0.36871,0.62665 0.707,1.63247 0.95021,2.35325c0.41557,1.23177 0.94911,3.19027 0.7547,4.56523c-0.08216,0.58106 -0.75663,1.83744 -0.87799,2.3409c-0.38521,1.59826 -0.45729,2.10274 -1.8133,3.02548c-0.82419,0.56082 -2.39328,0.89226 -3.42477,1.16046c-1.06825,0.27778 -2.45275,0.95668 -3.6139,0.79253c-0.78373,-0.1108 -2.12283,-0.84045 -2.863,-1.08267c-1.60582,-0.52548 -2.4647,-0.82307 -3.32443,-2.09616c-0.73726,-1.09169 -0.77157,-2.71078 -0.94216,-4.10601c-0.08959,-0.73299 -0.29807,-1.67915 -0.18979,-2.44516z" fill="#3a3a3a"/><path d="M296.45761,128.27025c0.16,-1.13156 0.7706,-2.11423 1.25459,-2.99733c0.67444,-1.23056 1.37248,-2.22961 2.65318,-2.8306c0.78225,-0.3671 1.86263,-0.57421 2.78946,-0.66531c0.61305,-0.06024 1.56963,-0.29472 2.20657,-0.20467c1.44404,0.20418 1.74373,0.32208 2.72195,0.91881c0.58925,0.35945 2.01719,0.97643 2.41586,1.65395c0.3374,0.57349 0.64699,1.49392 0.86952,2.15345c0.3803,1.1272 0.86851,2.91941 0.69063,4.1776c-0.07518,0.53171 -0.6924,1.68142 -0.80344,2.14214c-0.35251,1.46256 -0.41847,1.92421 -1.65935,2.76859c-0.75422,0.51321 -2.19009,0.81646 -3.13398,1.06192c-0.97755,0.25418 -2.2445,0.87548 -3.30706,0.72525c-0.71717,-0.10139 -1.94258,-0.76909 -2.61992,-0.99071c-1.46948,-0.48085 -2.25542,-0.75319 -3.04219,-1.91818c-0.67465,-0.99902 -0.70604,-2.48063 -0.86214,-3.7574c-0.08199,-0.67075 -0.27276,-1.53658 -0.17367,-2.23753z" fill="#5a5a5a"/><path d="M309.16361,125.49233c-1.69081,-2.64858 -6.70605,-3.56027 -6.70605,-3.56027c0,0 1.99873,-0.26278 3.96836,0.02272c1.59543,0.23123 3.10128,0.81224 4.06727,2.26276c0.96677,1.4517 1.14892,2.97692 1.23753,4.39882c0.17376,2.78776 -0.59478,5.09571 -0.59478,5.09571c0,0 -0.28155,-5.57114 -1.97237,-8.21969z" fill="#6d6d6d"/><path d="M303.18653,129.71601c0.08057,-0.57005 0.60803,-0.96682 1.17809,-0.88623c0.57005,0.08057 0.96682,0.60803 0.88623,1.1781c-0.08057,0.57005 -0.60803,0.96682 -1.1781,0.88622c-0.57005,-0.08057 -0.96682,-0.60803 -0.88622,-1.1781z" fill="#272727"/><path d="M303.08914,129.84042c0.07393,-0.52285 0.55769,-0.88675 1.08052,-0.81283c0.52285,0.07393 0.88675,0.55769 0.81283,1.08052c-0.07393,0.52285 -0.55769,0.88675 -1.08051,0.81283c-0.52285,-0.07393 -0.88675,-0.55769 -0.81283,-1.08051z" fill="#131313"/></g></g></g></g></g><path d="M199.71273,226.20495c0.22184,-1.56907 1.97285,-44.37145 2.69785,-45.96077c0.97887,-2.14587 9.18741,0.3788 12.33346,-0.69916c9.63527,-3.30148 19.99383,-6.46959 19.99383,-6.46959c0,0 13.84853,2.54431 18.04331,3.13744c3.13693,0.44355 65.04048,0.62139 64.32958,10.9451c-0.96423,14.00286 -42.42276,-3.69394 -44.12106,8.31722c-0.42994,3.04067 1.92869,3.57161 0.92796,6.60863c-0.2402,0.7289 -3.29379,5.52755 -3.75056,7.15569c-0.7251,2.58449 1.97727,7.00891 -1.73419,9.61422c-2.95855,2.07682 -1.74798,7.31473 -2.55061,8.42896c-5.53125,7.6782 -13.24547,2.74523 -22.16958,1.48345c-10.58079,-1.49601 -26.499,0.01366 -35.61696,-2.52517c-3.93587,-1.09595 -9.02879,4.53136 -8.383,-0.03595z" fill="#86c8f5" stroke-width="0"/><g stroke-width="0"><g><path d="M193.1882,243.83867l0.78146,-5.52696c0,0 2.19435,0.49006 3.17542,-0.34449c1.38607,-1.17903 4.55496,-5.92194 4.55496,-5.92194l-0.50564,8.10277c0,0 -3.4976,2.73578 -5.14653,3.40899c-1.19051,0.48605 -2.85965,0.28161 -2.85965,0.28161z" fill="#4d484c"/><g><g><path d="M154.44255,226.8975l4.8367,-4.93354c0,0 16.99867,-6.63433 24.08863,-9.56212c5.45383,-2.25214 14.18372,-6.01778 14.18372,-6.01778l-1.07976,26.45596z" fill="#eb59c1"/><path d="M157.44922,216.08783l3.51862,-29.06765c0,0 17.71311,11.35272 24.11254,15.24368c4.6438,2.82352 10.33119,12.98286 10.33119,12.98286l-6.6578,5.26734z" fill="#dd54b6"/><path d="M158.37693,199.07123l4.55209,-30.10417c0,0 10.51677,15.3695 14.99469,16.77594c6.63535,2.08408 19.72404,1.14166 19.72404,1.14166l-3.6475,25.79728z" fill="#ff77d8"/><path d="M162.49905,186.6454l1.96718,-13.91315l33.45356,1.7735l-0.05815,17.13956z" fill="#ee51c1"/></g><g><g><path d="M153.30191,216.12601l0.72168,-41.11037l8.3186,1.17619l-0.72168,41.11037z" fill="#a59da1"/><path d="M153.96201,175.19939c0,0 -0.13849,-4.55644 1.82108,-5.5739c1.9596,-1.0175 7.0272,-0.55671 7.0272,-0.55671l-0.51607,7.30873z" fill="#b9b0b5"/><path d="M153.57414,226.91544l-0.21028,-10.80873l8.27885,1.17056l0.21028,10.80873z" fill="#8b8488"/></g><g><path d="M193.5733,218.38946l0.72168,-41.11036l4.49449,0.63547l-0.72167,41.11036z" fill="#a59da1"/><path d="M194.31325,178.28895l0.09504,-6.49183c0,0 3.00107,-0.26285 3.88527,1.02331c0.88418,1.28616 0.44787,5.27982 0.44787,5.27982z" fill="#b9b0b5"/><path d="M193.83313,229.17725l-0.21028,-10.80873l4.46715,0.63159l0.21029,10.80873z" fill="#8b8488"/></g><path d="M153.3233,235.54127c0,0 -2.85397,-3.17356 -3.03989,-4.69925c-0.20696,-1.69831 1.85457,-5.02835 1.85457,-5.02835l47.81316,2.32175c0,0 1.66754,2.59286 1.87682,4.1236c0.2933,2.14553 -4.5629,6.42235 -4.5629,6.42235z" fill="#494547"/><path d="M162.58191,173.00673c0,0 -2.21415,-0.88603 -2.56021,-1.51495c-0.38004,-0.69064 1.18117,-2.57323 1.18117,-2.57323c0,0 12.0671,0.68414 17.33735,1.10397c6.14395,0.4894 16.50005,1.76801 16.50005,1.76801c0,0 0.35452,1.28621 0.18638,1.86578c-0.16283,0.56128 -0.78037,1.61502 -0.78037,1.61502z" fill="#c2b8bd"/><path d="M153.84588,234.3823c0,0 -0.8257,-2.98023 -0.83083,-4.67324c-0.00427,-1.40502 0.6341,-3.59455 0.6341,-3.59455l44.97215,2.26149c0,0 1.567,3.40587 1.33422,5.05218c-0.25005,1.76859 -2.61845,4.0305 -2.61845,4.0305z" fill="#6f696b"/><path d="M164.09832,241.31561l0.78146,-5.52695l29.72472,2.58206l-0.78145,5.52695z" fill="#333032"/><path d="M152.66203,239.82126c-1.00909,-0.79703 -2.46737,-2.48354 -2.46737,-2.48354l0.09344,-6.87396c0,0 2.13121,2.59632 3.13607,4.11341c0.71125,1.07383 11.51811,1.10774 11.51811,1.10774l-0.78145,5.52695c0,0 -10.48979,-0.59351 -11.49884,-1.39058z" data-paper-data="{&quot;index&quot;:null}" fill="#444043"/><g><path d="M159.79875,187.73027c0,0 -1.89538,-5.0573 -1.67753,-6.78601c0.15085,-1.19685 2.85922,-2.59062 2.85922,-2.59062l35.14008,1.91397c0,0 1.14069,3.31621 0.94593,4.86159c-0.19904,1.57946 -2.12763,4.51507 -2.12763,4.51507z" fill="#979797"/><path d="M160.00091,186.68219c0,0 -1.99241,-4.5207 -1.81089,-6.04812c0.12567,-1.05755 2.79527,-2.23694 2.79527,-2.23694l35.04875,2.41913c0,0 1.20466,2.96221 1.04242,4.32771c-0.16579,1.39555 -2.0268,3.95741 -2.0268,3.95741z" fill="#a2a2a2"/></g><g><path d="M159.84056,204.44037c0,0 -1.89538,-5.0573 -1.67753,-6.78601c0.15085,-1.19685 2.85921,-2.59063 2.85921,-2.59063l35.14008,1.91398c0,0 1.14069,3.3162 0.94594,4.86158c-0.19904,1.57946 -2.12763,4.51506 -2.12763,4.51506z" fill="#979797"/><path d="M160.04269,203.39227c0,0 -1.99239,-4.52069 -1.81088,-6.04812c0.12566,-1.05754 2.79527,-2.23693 2.79527,-2.23693l35.04875,2.41914c0,0 1.20466,2.96221 1.04242,4.32771c-0.1658,1.39555 -2.0268,3.9574 -2.0268,3.9574z" fill="#a2a2a2"/></g><g><path d="M159.91899,221.65579c0,0 -1.89538,-5.0573 -1.67753,-6.78601c0.15085,-1.19685 2.85921,-2.59062 2.85921,-2.59062l35.14008,1.91397c0,0 1.14069,3.31621 0.94593,4.86159c-0.19904,1.57946 -2.12763,4.51506 -2.12763,4.51506z" fill="#7a7a7a"/><path d="M160.12112,220.60773c0,0 -1.99241,-4.5207 -1.81089,-6.04813c0.12566,-1.05754 2.79527,-2.23692 2.79527,-2.23692l35.04876,2.41913c0,0 1.20464,2.96221 1.04242,4.32771c-0.1658,1.39555 -2.02681,3.95742 -2.02681,3.95742z" fill="#929292"/></g></g></g></g><path d="M153.35813,220.12716c0,0 -0.14142,-1.75351 -0.11977,-4.08406c0.06365,-6.84223 0.53929,-40.99805 0.53929,-40.99805l2.53436,4.70412l-0.75706,29.61036z" fill="#777275"/></g></g></g></svg>