<svg version="1.1" xmlns="http://www.w3.org/2000/svg" xmlns:xlink="http://www.w3.org/1999/xlink" width="462.80493" height="179.60884" viewBox="0,0,462.80493,179.60884"><defs><linearGradient x1="512.86675" y1="249.59711" x2="511.53832" y2="254.2217" gradientUnits="userSpaceOnUse" id="color-1"><stop offset="0" stop-color="#1f1d20"/><stop offset="1" stop-color="#202022"/></linearGradient><linearGradient x1="514.6297" y1="245.05213" x2="513.10118" y2="250.37312" gradientUnits="userSpaceOnUse" id="color-2"><stop offset="0" stop-color="#302d31"/><stop offset="1" stop-color="#1f1e20"/></linearGradient><linearGradient x1="179.58629" y1="198.82112" x2="178.65032" y2="202.07939" gradientUnits="userSpaceOnUse" id="color-3"><stop offset="0" stop-color="#585758"/><stop offset="1" stop-color="#575758"/></linearGradient><linearGradient x1="164.20019" y1="204.88739" x2="163.4654" y2="207.4453" gradientUnits="userSpaceOnUse" id="color-4"><stop offset="0" stop-color="#363536"/><stop offset="1" stop-color="#353536"/></linearGradient><linearGradient x1="327.61613" y1="155.27585" x2="326.08699" y2="160.59905" gradientUnits="userSpaceOnUse" id="color-5"><stop offset="0" stop-color="#5e555b"/><stop offset="1" stop-color="#2b2629"/></linearGradient><linearGradient x1="323.94392" y1="132.71818" x2="322.84058" y2="136.55905" gradientUnits="userSpaceOnUse" id="color-6"><stop offset="0" stop-color="#72676e"/><stop offset="1" stop-color="#5e555b"/></linearGradient><linearGradient x1="211.5404" y1="114.8899" x2="209.90366" y2="120.58752" gradientUnits="userSpaceOnUse" id="color-7"><stop offset="0" stop-color="#5e555b"/><stop offset="1" stop-color="#4d454a"/></linearGradient><linearGradient x1="215.47538" y1="101.19159" x2="214.32619" y2="105.19206" gradientUnits="userSpaceOnUse" id="color-8"><stop offset="0" stop-color="#74686f"/><stop offset="1" stop-color="#5e555b"/></linearGradient></defs><g transform="translate(-55.31724,-97.26724)"><g data-paper-data="{&quot;isPaintingLayer&quot;:true}" fill-rule="nonzero" stroke="none" stroke-linecap="butt" stroke-linejoin="miter" stroke-miterlimit="10" stroke-dasharray="" stroke-dashoffset="0" style="mix-blend-mode: normal"><path d="M323.36563,258.46919c-0.57,8.65476 -5.31197,13.53826 -22.71237,12.39229c-6.45418,-0.42506 -17.46542,-2.7268 -22.57316,-2.35679c-3.79607,0.275 -7.14185,2.2735 -9.3942,0.23557c-2.88747,-2.61258 -1.47765,-22.41385 -1.27623,-25.47252c0.57,-8.65476 23.41825,-14.18742 40.81862,-13.04145c17.40036,1.14598 15.70732,19.58812 15.13734,28.24289z" fill="#86c8f5" stroke-width="0"/><g><g><g stroke-width="0"><path d="M242.72699,201.36121l-5.59579,-17.57334l24.7443,6.49404c0,0 -2.66507,5.29898 -3.60224,7.83742c-0.90657,2.45549 -1.93197,7.15274 -1.93197,7.15274z" fill="#7f7d7e"/><path d="M242.76721,201.57753l-1.95006,-6.39385c0,0 1.28535,4.06807 4.22596,5.5524c2.11752,1.06883 4.01594,1.29169 6.50459,2.34035c2.48863,1.04865 4.64468,2.35768 4.64468,2.35768z" fill="#6c6a6b"/></g><g><g><g><path d="M508.66349,253.39583l-0.65051,-5.19307c0,0 5.30085,3.24762 7.55077,4.82291c2.24988,1.57529 0.45755,2.24248 0.45755,2.24248z" fill="url(#color-1)" stroke-width="0"/><path d="M518.01982,246.23364c0,0 0.77943,2.64584 -1.9635,2.78688c-2.74292,0.14104 -5.87082,0.51505 -5.87082,0.51505l0.59561,-5.58904z" data-paper-data="{&quot;index&quot;:null}" fill="url(#color-2)" stroke-width="0"/><path d="M499.42069,250.73596l0.57936,-2.01678l14.19836,4.07863c0,0 0.98939,1.11065 1.35713,1.59737c0.33057,0.43752 -0.96555,0.69838 -0.96555,0.69838z" fill="#444444" stroke-width="NaN"/><path d="M499.99285,248.86635l-0.66013,-2.01449l12.12527,3.48313l2.80873,2.51533c0,0 -4.11963,-0.93579 -6.33967,-1.55543c-2.5037,-0.69882 -7.93423,-2.42862 -7.93423,-2.42862z" fill="#535353" stroke-width="0"/><path d="M499.18718,246.95235l-0.13542,-0.70479l11.02779,3.16784l1.47483,0.97062z" fill="#363636" stroke-width="0"/><path d="M499.42069,250.73596l0.31429,-1.0941c0,0 6.07751,2.21779 8.84534,3.01288c2.34552,0.67378 6.70548,1.45431 6.70548,1.45431c0,0 0.70289,0.68284 0.88462,0.94613c0.15328,0.22212 -0.36967,0.3862 -0.36967,0.3862c0,0 -4.66044,-0.91795 -6.88426,-1.55675c-3.00021,-0.86185 -9.49579,-3.14863 -9.49579,-3.14863z" fill="#3a3a3a" stroke-width="NaN"/><path d="M499.35514,246.35372l-0.288,-1.00216l13.11137,3.7664l-2.00418,0.37904z" fill="#242424" stroke-width="0"/><path d="M498.23828,245.31028l0.45675,-1.59001c0,0 7.83568,2.03634 10.71498,2.86349c1.96168,0.56355 4.89042,1.61938 4.89042,1.61938l-2.15437,0.93073z" fill="#3a3a3a" stroke-width="0"/><path d="M498.55872,243.72539l0.56396,-1.96318c0,0 7.44686,1.79598 10.63232,2.71103c2.75651,0.79181 7.3803,2.46333 7.3803,2.46333l-2.88816,1.29549c0,0 -3.49009,-1.08835 -5.64726,-1.70803c-2.8674,-0.82369 -10.04114,-2.79864 -10.04114,-2.79864z" fill="#444444" stroke-width="0"/><path d="M499.05768,241.83209l0.23499,-0.81798c0,0 7.60192,2.05505 11.05932,3.04822c2.40744,0.69156 7.70037,2.34069 7.70037,2.34069l-1.06637,0.57915c0,0 -4.77784,-1.67284 -7.62781,-2.49151c-3.1399,-0.90199 -10.3005,-2.65861 -10.3005,-2.65861z" fill="#535353" stroke-width="0"/><path d="M499.14464,241.06015l0.09402,-0.32723c0,0 7.51793,1.63208 10.8438,2.58747c2.87547,0.82603 7.95741,2.8134 7.95741,2.8134l-0.05787,0.33758c0,0 -5.72977,-1.81757 -8.84866,-2.7135c-3.15965,-0.90766 -9.98861,-2.69772 -9.98861,-2.69772z" fill="#4e4e4e" stroke-width="0"/></g><g stroke-width="0"><g><g><g><path d="M493.92921,248.65072l-0.76928,-13.91699l1.00677,-1.50175c0,0 2.44817,4.06307 2.64709,6.71133c0.10799,1.43771 -1.48659,9.10901 -1.48659,9.10901z" fill="#383638"/><path d="M495.13039,248.2764c0,0 0.22446,-0.56988 0.29805,-3.1029c0.08025,-2.76237 -0.25389,-6.6425 -0.33525,-7.78325c-0.18261,-2.56066 -0.87214,-2.89451 -0.87214,-2.89451l4.77406,0.76608l1.02834,14.4202z" fill="#555355"/><path d="M494.25899,234.5955l-0.21782,-1.34895c0,0 2.16256,-0.21117 3.08679,0.05434c0.86605,0.24878 1.75643,1.26124 1.75643,1.26124l0.19775,1.41884z" fill="#686668"/></g><path d="M488.477,247.08452l-0.76929,-13.91697l0.68326,-1.57374c0,0 2.77169,4.13505 2.97063,6.78326c0.10798,1.4377 -1.48658,9.10902 -1.48658,9.10902z" fill="#383638"/><path d="M489.67818,246.71019c0,0 0.22446,-0.56989 0.29806,-3.10291c0.08025,-2.76237 -0.25388,-6.6425 -0.33524,-7.78325c-0.18261,-2.56066 -0.87214,-2.89451 -0.87214,-2.89451l4.19129,0.07842c0,0 0.63992,1.48881 0.69559,2.26929c0.15861,2.22369 0.91555,12.83853 0.91555,12.83853z" fill="#555355"/><path d="M488.80681,233.02923l-0.42755,-1.4092c0,0 2.37226,-0.15089 3.2965,0.11462c0.86605,0.24878 1.4768,1.18089 1.4768,1.18089l0.31791,1.45337z" fill="#686668"/><path d="M496.19129,247.54722c0.22626,-0.78764 1.04823,-1.24273 1.83591,-1.0165c0.78765,0.22626 1.24272,1.04822 1.01648,1.8359c-0.22626,0.78764 -1.04822,1.24273 -1.83589,1.01649c-0.78765,-0.22626 -1.24272,-1.04822 -1.01649,-1.8359z" fill="#312f31"/><path d="M497.63018,244.91281l-0.39029,-5.88297l1.56907,0.30159l0.37248,5.94496z" fill="#444144"/></g><path d="M452.04454,231.45153l-0.63004,-11.44221l28.39601,9.38115l-3.11581,9.14216z" fill="#444444"/><path d="M465.27511,231.17838c0,0 0.75536,-0.32604 1.75464,-1.18859c0.91368,-0.7886 2.05346,-2.1029 2.55118,-2.44242c1.40849,-1.37088 3.56573,-0.26552 3.56573,-0.26552l-1.1218,0.35723l-5.65129,3.85484z" fill="#292929"/><path d="M465.05853,242.0714l-3.23193,-12.34355c0,0 3.21605,1.47661 5.1431,0.93868c1.49749,-0.41804 2.13368,-2.97368 3.72725,-2.80819c4.57215,0.47489 17.06603,3.6125 17.06603,3.6125c0,0 1.14151,7.76183 1.23559,10.79268c0.06497,2.09239 -0.76319,6.46572 -0.76319,6.46572z" fill="#4a464a"/><path d="M472.65406,230.61462c-4.20792,-1.87054 -2.44652,-2.78368 -2.44652,-2.78368c0,0 1.12143,-1.03274 2.9565,-0.65763c4.50327,0.92046 12.6511,3.86124 14.31348,4.31214c0.784,0.21262 0.14098,0.76442 0.14098,0.76442c0,0 -2.09023,1.882 -3.65072,1.69804c-1.56052,-0.18396 -7.10583,-1.46266 -11.31377,-3.33323z" fill="#5e595e"/></g><g><path d="M451.89799,245.13211l-0.00877,-18.66336l18.09376,5.49555l3.41789,5.48523l5.88934,1.58927l-0.85265,13.71714z" fill="#4d4846"/><path d="M456.29932,246.79922l22.44626,-3.3234l21.52094,5.92991c0,0 0.10614,4.3825 -0.13047,5.7239c-0.12067,0.68389 -0.96179,2.78689 -0.96179,2.78689z" fill="#423d3b"/><path d="M454.92843,237.75829l-0.33744,-10.34127l0.78863,0.22653l0.33745,10.34127z" fill="#363332"/><path d="M457.08345,246.19041l0.33613,-1.17005c0,0 5.76263,-0.99301 14.47515,1.50976c1.15761,0.33255 4.53799,3.95198 5.70474,4.28715c7.40271,2.12654 14.64858,4.20796 17.40517,4.99986c2.24498,0.6449 4.89639,0.05395 4.89639,0.05395l-0.69506,2.41951z" fill="#312e2c"/><path d="M462.87873,234.59976l-0.40151,-4.91738l7.98478,2.29374l2.7728,5.39666l6.00781,1.92771l-7.83274,-0.22253z" fill="#585350"/><path d="M451.82055,238.73296l0.31151,-1.08433c0,0 8.7667,-1.37666 11.53209,-0.58227c4.16779,1.19726 15.6738,4.50249 15.6738,4.50249l-0.31151,1.08433c0,0 -11.70324,-3.3619 -15.87099,-4.55912c-2.70857,-0.77809 -11.33493,0.63892 -11.33493,0.63892z" fill="#2b2827"/></g></g></g><g><g><g><path d="M118.41881,187.33829c-0.097,2.29645 -1.10937,4.69992 -2.23088,4.65253c-1.12153,-0.04738 -1.92754,-2.52762 -1.83051,-4.82412c0.097,-2.29645 0.412,-11.123 1.53353,-11.07559c1.12153,0.04738 2.62489,8.9507 2.5279,11.24722z" fill="#615e5f" stroke-width="0"/><g><path d="M166.65783,170.0562c-0.37269,-0.65603 -2.26004,-2.56363 -2.26004,-2.56363l10.32956,-0.02917l-7.75466,5.26359c0,0 0.05782,-2.01475 -0.31487,-2.67073z" fill="#756a6a" stroke-width="0"/><path d="M158.4507,165.93277l3.79172,-13.19952l19.43269,-0.52163l-5.41148,18.83816z" fill="#8a7c7c" stroke-width="0"/><path d="M118.46717,160.11438l11.41407,-15.58786l33.61227,9.51683l0.85988,13.42596c0,0 -22.53145,-4.83265 -30.18599,-6.05954c-3.17744,-0.5093 -15.70031,-1.29535 -15.70031,-1.29535z" fill="#7c787a" stroke-width="0"/><path d="M129.33102,146.87054l0.26663,-1.46482c0,0 24.91654,7.15755 32.74961,9.40768c4.3826,1.25896 17.27933,-1.66432 17.27933,-1.66432l-0.44994,1.56628c0,0 -12.60863,2.98597 -16.84313,1.75431c-7.76451,-2.25839 -33.00249,-9.59914 -33.00249,-9.59914z" fill="#535353" stroke-width="0"/><path d="M87.43917,151.93772l5.56445,-19.37059c0,0 6.30265,-5.5289 13.89915,-5.73555c9.43515,-0.25662 25.17463,6.122 27.16478,6.69372c1.52723,0.43872 -15.28186,6.44805 -15.28186,6.44805l-5.56445,19.3706z" fill="#8d898b" stroke-width="0"/><path d="M266.40394,155.33851l2.40845,-2.57956l103.34466,29.83559l-4.07137,14.17305c0,0 -36.82163,-8.65727 -48.45254,-12.43135c-5.77625,-1.8743 -53.22916,-28.99774 -53.22916,-28.99774z" fill="#c98cac" stroke-width="0"/><path d="M217.69624,246.43137l-0.79535,-13.68804c0,0 3.32608,7.03109 5.76574,8.85231c1.55437,1.16034 5.51083,2.69409 12.05705,2.03857c5.26994,-0.52771 11.75924,-4.39723 11.75924,-4.39723l-15.32726,11.06082z" fill="#a08e97" stroke-width="0"/><path d="M317.62197,226.32282l4.27468,-23.34877l18.21374,3.77262l-5.8524,20.3731c0,0 -6.62337,-0.11397 -9.47377,-0.20629c-1.31248,-0.04249 -7.16223,-0.59066 -7.16223,-0.59066z" fill="#96858d" stroke-width="0"/><path d="M214.89581,249.52427l1.52962,-5.32483c0,0 11.02321,5.31874 16.32499,3.59419c2.5802,-0.83931 24.55635,-16.30546 36.69052,-24.92218c4.73536,-3.36264 7.9719,-5.68217 7.9719,-5.68217c0,0 4.27052,-2.69905 5.07017,-5.4681c0.40225,-1.39296 2.00764,-5.2795 1.84658,-7.73061c-0.16251,-2.47302 -2.09329,-3.50448 -2.09329,-3.50448l-0.93555,-14.38991l19.00609,5.60923l-10.13307,24.73717l2.90479,3.49992c0,0 -10.84022,3.12877 -16.65746,6.61384c-9.10182,5.4528 -39.9711,28.19892 -39.9711,28.19892z" fill="#918189" stroke-width="0"/><path d="M295.2454,220.26189l9.06381,-27.15697l13.16404,4.06843l6.6471,14.39701l-6.66167,15.07259z" fill="#96858d" stroke-width="0"/><path d="M290.38615,220.78998l-1.26712,-4.67746l10.63233,-24.19482l4.90577,1.32111l-8.54203,27.28901z" fill="#8f8187" stroke-width="0"/><path d="M316.24376,226.40171c0,0 4.48551,-5.64816 4.67932,-11.22215c0.11155,-3.20948 -4.06463,-6.45851 -3.99623,-8.42602c0.13066,-3.75844 0.3328,-9.57286 0.3328,-9.57286l6.34488,6.36312c0,0 1.28209,7.87377 0.67998,12.13468c-0.40448,2.86268 -3.59089,8.58122 -5.19904,10.82325c-0.13557,0.189 -1.24303,-0.21578 -1.33829,-0.07112c-0.23271,0.35334 0.63013,0.84191 0.63013,0.84191z" fill="#86787e" stroke-width="0"/><path d="M322.98417,204.92614c0,0 -1.87876,-4.65453 -6.11098,-6.88127c-4.79137,-2.52083 -21.16858,-7.47102 -21.16858,-7.47102l155.52168,29.92011l0.71454,9.88322l4.53367,12.89566c0,0 -96.16417,-30.29973 -115.95225,-35.98405c-6.45713,-1.85487 -17.53804,-2.36261 -17.53804,-2.36261z" fill="#df8db7" stroke-width="0"/><path d="M161.707,207.78985l5.40241,-36.18476c0,0 2.65335,-3.14016 3.19456,-3.20908c5.9673,-0.75983 39.69961,-2.15242 44.84838,-0.37554c5.6402,1.94648 -12.18385,9.23731 -12.18385,9.23731c0,0 -14.40906,-2.03129 -18.02151,1.35269c-4.90461,4.59454 -5.03688,22.61188 -5.03688,22.61188z" fill="#c77da3" stroke-width="0"/><path d="M239.57561,199.01921l-1.13868,-2.51753c0,0 8.68028,-6.46108 11.65226,-7.99283c3.06831,-1.58135 6.47779,-1.35116 6.47779,-1.35116l5.06914,3.85146c0,0 -4.16334,-1.71888 -6.90903,-0.72193c-2.3571,0.85585 -6.81336,2.77893 -10.35854,4.97791c-2.57881,1.59963 -4.79296,3.754 -4.79296,3.754z" fill="#414041" stroke-width="0"/><path d="M129.31297,145.77674l7.84084,-9.90991l46.73827,13.42611c0,0 -4.01604,3.48204 -7.55721,4.51041c-3.47557,1.00934 -13.49663,1.60384 -13.49663,1.60384z" fill="#979395" stroke-width="0"/><path d="M130.39739,144.89915l7.07196,-10.1308l46.73827,13.42611c0,0 -4.01605,3.48205 -7.55722,4.5104c-3.47557,1.00934 -13.49664,1.60384 -13.49664,1.60384z" fill="#bdb7ba" stroke-width="0"/><path d="M318.46978,227.37483l-1.65833,-1.01063l17.3466,0.63939c0,0 -3.99003,0.99439 -6.59742,1.07452c-2.60744,0.08015 -9.09082,-0.70331 -9.09082,-0.70331z" fill="#887980" stroke-width="0"/><path d="M163.96784,208.92253c0,0 0.64023,-10.70482 1.84324,-19.24298c1.20894,-8.57983 2.36705,-16.61928 3.33557,-20.07074c0.16409,-0.58472 4.4899,-9.67439 5.11425,-10.0375c3.36985,-1.96022 8.67278,7.61986 14.3253,8.09541c8.3695,0.70417 26.87716,5.4858 26.87716,5.4858l-9.59136,2.77023c0,0 -19.48463,-2.61621 -23.2017,1.66105c-5.02765,5.78538 -3.51406,27.93707 -3.51406,27.93707z" fill="#d486ae" stroke-width="0"/><path d="M166.02695,205.85288c0,0 4.88227,-41.12202 8.9398,-50.44096c1.89847,-4.36022 1.18874,-14.04032 1.18874,-14.04032l46.7738,20.68682l-3.06827,15.8385c0,0 -29.94279,-11.81973 -37.77858,-7.54292c-5.23068,2.85488 -6.48403,31.88011 -6.48403,31.88011z" fill="#e490bb" stroke-width="0"/><g stroke-width="0"><path d="M316.46266,183.52598l2.28468,-7.95323l8.99618,2.58427l-2.28468,7.95324z" fill="#454545"/><path d="M317.47383,183.02067l1.67209,-7.11292l10.88594,3.12712l-2.01499,7.01441z" fill="#b0b0b0"/><path d="M318.49166,178.64247l0.56177,-2.78339l11.09417,3.18695l-0.52662,1.83328c0,0 -7.57896,-1.84166 -9.25058,-2.17766c-0.55857,-0.11224 -1.87875,-0.05918 -1.87875,-0.05918z" fill="#bebebe"/><path d="M328.41219,185.59112c0,0 -4.61982,-3.98578 -3.03627,-7.43014c2.35309,-5.11826 6.1821,-3.52094 6.1821,-3.52094l38.31005,12.39228l-2.77769,9.66957z" fill="#9c989a"/><path d="M330.48594,184.84544c0,0 -1.41851,-4.06873 -1.3973,-5.02697c0.03149,-1.42037 2.76525,-3.71196 2.76525,-3.71196l39.96973,11.51645l-2.45201,7.08714z" fill="#898587"/><path d="M330.34441,185.01108l-0.44451,-2.1455l36.7457,10.55562l-0.53546,1.86402z" fill="#c1bcbf"/><path d="M331.16497,181.71558c0,0 -0.90381,-1.68295 -0.64502,-2.58387c0.24208,-0.84273 2.15102,-2.65869 2.15102,-2.65869l37.1637,10.67568l-1.50597,5.24251z" fill="#0d0d0d"/><path d="M330.95036,182.46268c0,0 -0.73711,-2.26325 -0.4783,-3.16416c0.24208,-0.84273 1.9843,-2.07836 1.9843,-2.07836l37.16369,10.67567l-1.50597,5.24252z" fill="#2e2e2e"/><path d="M325.78645,182.95956c-1.68949,-3.67631 0.07549,-5.60034 0.07549,-5.60034c0,0 0.62564,4.45837 1.56528,5.66218c1.1125,1.42525 4.20489,3.7348 4.20489,3.7348l-3.39177,-0.90132c0,0 -2.15655,-2.24834 -2.45389,-2.89532z" fill="#7d7a7c"/><path d="M333.36383,183.47819c0,0 -0.24364,-2.37143 0.07211,-3.47052c0.27752,-0.96616 1.72251,-2.77679 1.72251,-2.77679l4.63585,1.3317c0,0 -1.05171,1.991 -1.29141,2.82549c-0.32949,1.1469 -0.5032,3.42185 -0.5032,3.42185z" fill="#555555"/><path d="M341.64557,185.85721c0,0 1.33738,-2.24098 1.6531,-3.34007c0.27752,-0.96616 0.14152,-2.90726 0.14152,-2.90726l5.17409,1.48632c0,0 -0.87398,1.53337 -1.11371,2.36787c-0.32949,1.1469 -0.68093,3.87946 -0.68093,3.87946z" fill="#555555"/><path d="M350.60971,188.4323c0,0 1.33741,-2.24098 1.65312,-3.34007c0.27752,-0.96616 0.14151,-2.90724 0.14151,-2.90724l5.09719,1.46418c0,0 -0.87398,1.53337 -1.11371,2.36787c-0.32949,1.1469 -0.68093,3.87946 -0.68093,3.87946z" fill="#555555"/><path d="M359.89739,191.10029c0,0 1.41007,-1.85011 1.72581,-2.94925c0.27752,-0.96616 0.06881,-3.2981 0.06881,-3.2981l4.94342,1.42005c0,0 0.24843,2.13324 0.00871,2.96778c-0.32949,1.1469 -1.80334,3.27959 -1.80334,3.27959z" fill="#555555"/><path d="M334.70825,177.83398l-0.41838,-0.95255l34.18029,9.81871l-1.6955,0.34532c0,0 -2.72007,-0.78143 -5.08657,-1.4612c-0.51582,-0.14821 -1.40117,-0.74454 -2.1738,-0.96654c-0.74708,-0.21462 -1.37405,-0.05264 -2.30271,-0.31939c-1.44812,-0.41601 -3.082,-0.88533 -4.79247,-1.37671c-0.70915,-0.20371 -1.22032,-0.7496 -1.94805,-0.95864c-0.64712,-0.18586 -1.50966,-0.03463 -2.15981,-0.22138c-1.61361,-0.46354 -3.21134,-0.92252 -4.71351,-1.354c-0.68983,-0.19817 -1.23844,-0.81186 -1.88023,-0.9962c-0.7835,-0.22507 -1.64652,-0.01689 -2.33295,-0.21408c-2.80021,-0.80437 -4.67635,-1.34332 -4.67635,-1.34332z" fill="#474747"/></g><g><path d="M174.69587,201.65423l4.3643,-1.72972c0,0 1.93794,3.48541 4.41468,5.12807c2.19063,1.45283 9.69313,4.22842 9.69313,4.22842l-3.75408,3.45201z" fill="#6d6a6b" stroke-width="0"/><path d="M165.15547,205.67672l10.91168,-4.54933c0,0 2.48598,3.06192 4.38769,4.29688c2.87702,1.86829 11.19476,5.82222 11.19476,5.82222l-5.30072,2.95882z" fill="#615e5f" stroke-width="0"/><path d="M161.01148,227.34209l4.80669,-22.10522c0,0 3.9663,1.96333 8.59205,3.32293c3.61058,1.06123 7.73487,1.36462 9.95415,2.63506c3.89605,2.23036 32.70763,23.3622 32.70763,23.3622l-0.42709,10.46363z" fill="#575455" stroke-width="0"/><path d="M189.22985,207.31265c8.20034,-3.43465 19.67019,-14.13589 21.58962,-16.25989c1.38277,-1.5302 3.50023,-6.41133 3.50023,-6.41133l5.5227,8.67686c0,0 -0.03662,21.31516 -2.39364,33.7963c-0.65953,3.49232 0.67087,7.97927 -0.87416,9.0612c-1.38428,0.96938 -18.31856,-1.51268 -23.29197,-3.73703c-10.46636,-4.68107 -16.80344,-3.59913 -18.9461,-9.70334c-2.14267,-6.10419 6.41329,-10.17026 6.41329,-10.17026c0,0 6.34525,-4.35832 8.48012,-5.25251z" fill="#504e4f" stroke-width="0"/><path d="M202.91157,177.09009c0,0 0.79259,-1.32549 1.79949,-1.72658c1.29492,-0.51585 5.32567,-1.11185 5.32567,-1.11185c0,0 8.43207,4.57314 10.63783,7.79752c2.03516,2.97487 -6.84001,11.12235 -6.84001,11.12235l-0.44826,-5.70697z" fill="#464445" stroke-width="0"/><path d="M212.20363,228.89681c0,0 -10.65057,3.44928 -18.8525,1.27151c-7.91246,-2.10085 -13.39607,-9.80623 -12.90052,-11.14362c0.26847,-0.72461 8.80086,-1.71256 13.30777,-4.81005c5.00987,-3.44313 6.1146,-9.05788 7.96802,-10.61727c5.17424,-4.35333 16.10122,-11.80457 16.75007,-17.90622c0.68044,-6.39896 -9.04793,-11.35128 -9.04793,-11.35128c0,0 4.32322,-1.10086 9.15094,0.15086c2.05644,0.53318 6.04463,3.12074 6.82577,3.74563c2.56148,2.04924 4.02306,4.17149 4.02306,4.17149c0,0 4.86354,-3.67957 8.41105,-2.98247c3.54754,0.6971 20.82775,8.72786 20.82775,8.72786l-19.05756,7.62883z" fill="#555354" stroke-width="0"/><path d="M201.18124,204.05984c0,0 7.44309,-9.17439 13.49017,-13.09199c6.04706,-3.91761 10.84509,-5.84842 14.24011,-4.87316c2.45852,0.70623 3.24023,9.89462 3.24023,9.89462l-18.58942,24.59266c0,0 -14.95818,-0.88517 -15.69313,-3.67731c-0.58044,-2.20521 3.31203,-12.84484 3.31203,-12.84484z" fill="#585758" stroke-width="0"/><path d="M215.32259,236.52588c0,0 -1.05696,-6.74505 0.09102,-9.55971c1.60375,-3.93208 6.4852,-15.69551 6.4852,-15.69551l-1.00064,10.57031c0,0 -3.30683,9.19178 -4.0158,12.14054c-0.68407,2.84508 0.08469,5.32405 0.08469,5.32405z" fill="#3f3e3f" stroke-width="0"/><path d="M219.36257,219.09864c0.27456,-1.66363 2.66001,-9.00117 2.66001,-9.00117c0,0 13.20882,-11.36276 15.9572,-13.33361c0.80573,-0.57777 4.50884,-1.31495 4.50884,-1.31495l-2.92243,4.21073c0,0 -1.67941,0.14596 -1.98417,0.55559c-0.32469,0.43641 0.09206,1.98756 0.09206,1.98756l-7.27082,6.73442c0,0 -1.86547,0.51557 -2.17722,0.95181c-0.31184,0.43635 0.10388,1.47983 0.10388,1.47983c0,0 -6.17317,7.52953 -7.6496,9.61784c-0.68264,0.96554 -0.85224,2.40739 -0.85224,2.40739c0,0 -0.74005,-2.63178 -0.46546,-4.29546z" fill="#474647" stroke-width="0"/><path d="M212.53599,195.32128l17.96652,13.72945c0,0 -1.4222,0.64466 -1.79901,1.09729c-0.27804,0.33397 -0.25685,1.37226 -0.25685,1.37226z" fill="#3f3e3e" stroke-width="NaN"/><path d="M221.16116,187.02729l18.63057,12.69616c0,0 -1.30453,0.50268 -1.6609,0.97911c-0.37153,0.49668 -0.31436,1.63598 -0.31436,1.63598z" fill="#3f3e3e" stroke-width="NaN"/><path d="M201.28624,211.15788c0,0 8.15284,10.34613 12.15206,17.71428c3.99924,7.3682 1.8008,7.99228 1.8008,7.99228z" fill="#636162" stroke-width="NaN"/><path d="M220.42246,192.66591c0,0 -6.56917,1.13443 -10.06646,3.35093c-3.4973,2.21648 -15.97535,15.46943 -15.1621,12.6384c0.81323,-2.83103 19.14597,-19.12385 20.87115,-18.62832c0.65306,0.1876 3.88667,-0.07195 4.60772,0.38221c1.1837,0.74567 -0.2503,2.25677 -0.2503,2.25677z" fill="#918f91" stroke-width="0"/><path d="M160.60873,227.09176l13.92222,2.03467c0,0 12.19805,3.15832 15.17001,4.17338c7.2376,2.47196 28.41321,10.71225 28.41321,10.71225l-2.17485,5.95197c0,0 -24.39847,-3.2991 -30.66168,-6.46713c-1.81192,-0.91648 -7.23185,-3.1165 -10.94885,-5.59116c-7.27399,-4.84274 -13.72005,-10.81401 -13.72005,-10.81401z" fill="#626061" stroke-width="0"/><path d="M215.07055,249.34835c0,0 1.22405,-4.11461 1.43856,-6.48748c0.24114,-2.66698 -0.06225,-8.73549 -0.06225,-8.73549l1.71308,0.4921c0,0 0.42184,4.75825 0.20356,7.17266c-0.23868,2.6398 -1.57985,8.05032 -1.57985,8.05032z" fill="#4a494a" stroke-width="0"/><path d="M214.65198,250.09828l1.02277,-3.24075c0,0 0.47163,0.4109 0.7326,0.48589c0.31008,0.08908 0.96622,0.00214 0.96622,0.00214l-0.71005,3.10106c0,0 -0.85891,0.17737 -1.22543,0.11392c-0.28086,-0.04862 -0.786,-0.46222 -0.786,-0.46222z" fill="#363536" stroke-width="0"/><path d="M216.42816,235.18678l0.07658,-1.66416c0,0 0.49899,-0.22539 0.86951,-0.1806c0.35286,0.04268 0.82109,0.30489 0.82109,0.30489l0.00271,1.80737c0,0 -0.60321,0.3547 -0.90643,0.30885c-0.28569,-0.04319 -0.86346,-0.57635 -0.86346,-0.57635z" fill="#585758" stroke-width="0"/><path d="M174.96827,237.3799c0,0 -6.773,-5.01787 -6.39668,-6.32792c0.37822,-1.31656 6.6962,-0.71983 6.6962,-0.71983c0,0 10.58498,2.79015 15.30165,4.32465c2.64058,0.85905 10.58919,4.09853 10.58919,4.09853c0,0 6.71734,3.02647 7.18273,4.35848c0.50767,1.45294 -3.9908,3.11726 -3.9908,3.11726c0,0 -12.58989,-2.2577 -16.34308,-3.55253c-1.33326,-0.45999 -13.03919,-5.29858 -13.03919,-5.29858z" fill="#6b696a" stroke-width="0"/><path d="M166.89429,227.87994l-1.94916,-0.31978c0,0 1.55035,-3.12823 3.82168,-1.18332c2.27131,1.94491 20.78703,6.21146 20.78703,6.21146z" fill="#4b4949" stroke-width="0"/><path d="M160.71858,226.97347c0,0 -1.97301,-0.36744 -1.48158,-4.01631c0.24876,-1.84704 2.49481,-15.96795 2.49481,-15.96795l4.3912,-1.75494c0,0 -0.99957,5.94901 -1.60268,8.79535c-0.8022,3.78564 -2.91445,13.19871 -2.91445,13.19871z" fill="#3f3d3e" stroke-width="0"/><path d="M167.1578,228.12826c0,0 3.66445,-1.19276 19.18979,2.91632c1.2821,0.33935 -1.71657,-0.5264 7.17776,2.55643c8.89431,3.08282 12.23299,5.61574 12.23299,5.61574c0,0 -14.1853,-5.1875 -20.14705,-6.90007c-6.79566,-1.95211 -18.45347,-4.18835 -18.45347,-4.18835z" fill="#838082" stroke-width="0"/><path d="M180.19343,201.04237c0,0 -4.80463,0.89568 -7.34122,1.84795c-2.85102,1.07027 -8.93198,4.26115 -8.93198,4.26115l-0.31177,-1.75596c0,0 4.68034,-2.66504 7.26128,-3.63397c2.8219,-1.05934 9.01191,-2.47512 9.01191,-2.47512z" fill="#4a494a" stroke-width="0"/><path d="M181.16231,201.05246l-3.88662,0.63206c0,0 0.27112,-0.59464 0.22365,-0.86217c-0.05645,-0.31781 -0.4584,-0.85784 -0.4584,-0.85784l3.5198,-0.86348c0,0 0.59142,0.67628 0.70104,1.03179c0.084,0.27247 -0.09946,0.91957 -0.09946,0.91957z" fill="url(#color-3)" stroke-width="0"/><path d="M165.018,206.65708l-3.58995,1.80895l0.46437,-2.13752l2.5563,-1.36969c0,0 0.65141,0.36414 0.74896,0.65506c0.09188,0.27411 -0.1797,1.04317 -0.1797,1.04317z" fill="url(#color-4)" stroke-width="0"/></g><path d="M296.65205,219.52516c0,0 2.11131,-3.99085 2.97862,-5.18703c0.58872,-0.81197 3.26514,-1.53273 3.26514,-1.53273l16.41815,4.48925c0,0 -2.82825,5.21977 -3.57171,6.42773c-0.3257,0.52919 -1.54144,0.90055 -1.54144,0.90055z" fill="#665b60" stroke-width="0"/><path d="M254.96812,188.55606c0,0 -3.21535,-2.54927 -7.63412,-5.01746c-2.80899,-1.56907 -6.75657,-3.29269 -8.57444,-3.70485c-5.28515,-1.1983 -9.11569,3.0127 -9.11569,3.0127c0,0 -2.50667,-3.12946 -4.29638,-4.53287c-1.67064,-1.31 -5.57819,-3.47391 -5.57819,-3.47391c0,0 25.0105,1.88739 28.87214,2.39311c7.4031,0.9695 32.9391,8.71226 32.9391,8.71226l2.03778,15.44881z" fill="#8b7c84" stroke-width="0"/><g stroke-width="0"><path d="M298.31051,219.02068c0,0 1.17001,-2.36516 1.81147,-3.11186c0.66514,-0.77425 3.05455,-1.18283 3.05455,-1.18283l13.96526,4.01165c0,0 0.09989,1.0514 -0.33004,1.69554c-0.58457,0.87577 -4.01175,2.74974 -4.01175,2.74974z" fill="#585852"/><path d="M298.51628,218.30427c0,0 0.96422,-1.64875 1.60569,-2.39544c0.66514,-0.77425 3.26034,-1.89923 3.26034,-1.89923l13.96526,4.01166c0,0 -0.10586,1.76783 -0.53583,2.41195c-0.58457,0.87577 -3.80591,2.03333 -3.80591,2.03333z" fill="#797971"/><path d="M315.51514,218.0105c-0.95896,-0.4606 -12.05484,-3.93038 -12.05484,-3.93038l13.94614,4.00619l-0.67973,2.36612c0,0 -0.25263,-1.98134 -1.21159,-2.44198z" fill="#85857b"/></g><path d="M304.70225,201.95392l1.43287,-4.98802l6.85856,1.97018l-0.18587,5.34627z" fill="#7c6e75" stroke-width="0"/><path d="M301.97882,173.67938l-1.76936,-8.96838l1.32569,0.38085l3.50495,9.93682z" fill="#d495b6" stroke-width="0"/><path d="M266.59763,155.57815l13.55826,0.68014l20.23769,8.53167l1.61312,8.88294z" fill="#df9cbe" stroke-width="0"/><path d="M303.47006,206.8308l0.44776,-1.55872l10.44367,3.00006l0.48748,1.82742z" fill="#7c6e75" stroke-width="0"/><path d="M267.83084,183.94736c0,0 -17.75966,-3.85478 -23.31157,-4.92927c-8.40681,-1.62698 -25.45558,-4.10511 -25.45558,-4.10511c0,0 15.6658,-0.12006 29.06676,2.1521c14.53005,2.4636 57.26984,13.22475 57.26984,13.22475l-1.49341,5.19881z" fill="#75686e" stroke-width="0"/><path d="M258.75986,190.46678l-2.95957,-1.44407c0,0 10.049,0.40588 14.9704,2.6132c4.92142,2.20737 12.42709,9.67526 12.42709,9.67526z" fill="#7c6e76" stroke-width="0"/><path d="M215.22221,173.76692c0,0 -26.8486,-23.73168 -26.42988,-28.41837c0.38041,-4.25726 28.01431,10.49038 28.33039,10.46857c5.53058,-0.38174 76.61146,12.53041 76.61146,12.53041l23.69998,13.87203l50.86881,14.01809l3.27607,15.06558c0,0 -59.48905,-15.87277 -82.37652,-22.27782c-7.94485,-2.22338 -23.94405,-7.4932 -38.96793,-10.62258c-11.58893,-2.4139 -29.77958,-3.14818 -29.77958,-3.14818z" fill="#ee96c3" stroke-width="0"/><path d="M87.64684,150.16999l8.76204,-18.45207c0,0 1.85,-6.80799 9.44654,-7.01462c9.43515,-0.25662 25.17462,6.12201 27.16478,6.69373c1.52723,0.43873 -15.28187,6.44805 -15.28187,6.44805l-5.56444,19.37059z" fill="#c4b4b3" stroke-width="0"/><g stroke-width="0"><path d="M362.91685,210.25277l1.43481,-15.34312l87.28364,32.11131l-2.3306,5.3723l-46.92607,-8.4265z" fill="#ad6d8e"/><path d="M392.19635,203.74761l9.2741,-5.94318l26.3218,5.34612l-7.00958,8.80886z" fill="#8d788b"/><path d="M367.38725,197.85762l4.4825,-15.60422l29.66709,15.57441l-6.29725,5.33785z" fill="#857183"/><path d="M409.07408,206.37746l18.65767,-3.24302l25.71782,11.31297l-2.17836,6.54706z" fill="#947e92"/><path d="M363.54828,196.12164l6.30578,-11.4708l2.23649,-2.54529l-4.15906,14.47831z" fill="#756474"/><path d="M365.03392,207.51652l2.63998,-11.80261l42.08546,10.374l-5.61168,15.09441z" fill="#746373"/><path d="M404.14447,221.16532c0,0 2.10666,-5.95737 3.08295,-8.63612c0.83585,-2.29346 2.41908,-6.4607 2.41908,-6.4607l42.23096,13.07721l-0.39694,8.62566z" fill="#867284"/><path d="M363.6066,196.06513l4.29372,-0.35941l-2.83966,11.82638z" fill="#6f5e6d"/><path d="M446.5444,212.35182l-18.11921,-8.70463l24.68441,10.87429l-1.32837,3.30723c0,0 0.13189,-1.59491 -0.83487,-2.60596c-0.64668,-0.67636 -4.402,-2.871 -4.402,-2.871z" fill="#978195"/><path d="M407.64447,205.29075c0,0 8.62143,-1.12881 11.66552,-1.66322c2.21749,-0.38929 4.91805,-1.24809 4.91805,-1.24809l2.40423,0.80784l-16.4421,2.83475z" fill="#9c859a"/><path d="M393.59942,202.09714c0,0 2.02511,-2.28189 3.69573,-3.20682c1.67059,-0.92501 4.11419,-1.07125 4.11419,-1.07125l-5.44404,4.95772z" fill="#806b7d"/><path d="M429.7295,201.89191l3.63337,-4.92149l13.57844,7.78487l3.61533,7.69739z" fill="#55494f"/><path d="M426.52152,203.88375c0,0 1.25851,-0.46064 1.95859,-0.86794c0.5273,-0.30677 1.57084,-1.44761 1.57084,-1.44761l20.34203,10.00524c0,0 0.69694,0.71728 1.17043,1.19213c0.49485,0.49624 1.73741,1.72406 1.73741,1.72406z" fill="#685960"/><path d="M430.51519,201.18932l2.86008,-3.94923l12.67793,7.10326c0,0 -7.27232,-3.68379 -11.64953,-4.67617c-2.53905,-0.57568 -3.88848,1.52213 -3.88848,1.52213z" fill="#41383c"/></g><path d="M100.06755,112.86924l1.43798,-5.00589c0,0 21.82588,4.92229 42.91479,11.03959c12.56707,3.64535 25.16837,8.9275 31.91726,10.50192c15.2173,3.54995 26.52499,2.10354 26.52499,2.10354l-9.03266,8.47881z" fill="#ffa1d1" stroke-width="0"/><path d="M93.73617,125.57256l6.5167,-14.86099c0,0 52.09748,17.10948 69.37259,21.61345c10.23308,2.66797 24.72697,2.92028 24.72697,2.92028l-4.04268,14.0732c0,0 -64.87727,-18.63677 -80.51716,-23.12952c-6.43053,-1.84724 -23.47907,25.22285 -23.47907,25.22285z" fill="#ee96c3" stroke-width="0"/><path d="M244.86055,248.57037l12.67308,-10.50525c0,0 13.91123,-12.5024 24.84095,-16.50297c2.77743,-1.01663 8.07637,-0.73935 8.07637,-0.73935c0,0 -8.3964,2.7748 -11.66102,4.74128c-7.7097,4.64406 -33.92934,23.00627 -33.92934,23.00627z" fill="#70646b" stroke-width="0"/><path d="M355.0394,212.75765l-1.08546,-19.04165l1.29764,0.37275c0,0 0.32875,5.76685 0.50242,8.81403c0.02477,0.43416 0.99951,1.98466 1.03018,2.52245c0.05315,0.93223 -0.83333,0.93094 -0.77393,1.97291c0.1654,2.90134 0.32679,5.73229 0.32679,5.73229z" fill="#795467" stroke-width="0"/><path d="M190.79832,149.90813c0,0 -8.26552,-9.19168 -6.57031,-12.6323c1.015,-2.0601 19.39846,-5.05295 19.39846,-5.05295l65.37763,20.52019l-2.42789,2.5239l27.0486,13.23069l-76.3426,5.71964c0,0 0.78933,-5.6141 5.04074,-7.36657c4.13189,-1.70323 20.11931,-3.00475 20.11931,-3.00475c0,0 -32.87383,-9.49435 -39.85743,-11.59067c-2.3299,-0.69937 -11.78651,-2.34721 -11.78651,-2.34721z" fill="#f399c8" stroke-width="0"/><g><path d="M201.36811,133.57617l0.89408,-3.11247l169.69103,48.74576l-0.89408,3.11246z" fill="#584f54" stroke-width="0"/><path d="M366.3137,177.84765l0.75547,-2.62999l2.93649,0.84353l1.83554,3.37424z" fill="#685d63" stroke-width="0"/><g fill="#685d63" stroke-width="0"><g><g><g><path d="M359.84372,176.24834l0.82193,-2.86126l3.73026,1.07156l-0.82193,2.86126z"/><path d="M353.791,174.50965l0.82193,-2.86126l3.73026,1.07156l-0.82193,2.86126z"/></g><g><path d="M347.96665,172.83647l0.82192,-2.86127l3.73026,1.07157l-0.82193,2.86126z"/><path d="M341.91387,171.09775l0.82193,-2.86126l3.73025,1.07157l-0.82193,2.86127z"/></g></g><g><g><path d="M335.97528,169.39187l0.82193,-2.86127l3.73025,1.07156l-0.82193,2.86126z"/><path d="M329.92254,167.65314l0.82193,-2.86126l3.73026,1.07156l-0.82192,2.86127z"/></g><g><path d="M324.09819,165.98001l0.82192,-2.86127l3.73025,1.07157l-0.82193,2.86126z"/><path d="M318.04553,164.24127l0.82193,-2.86126l3.73025,1.07156l-0.82192,2.86127z"/></g></g></g><g><g><g><path d="M317.8171,164.17572l0.82193,-2.86126l3.73025,1.07156l-0.82193,2.86126z"/><path d="M311.76438,162.43698l0.82193,-2.86126l3.73026,1.07157l-0.82193,2.86126z"/></g><g><path d="M305.94003,160.76387l0.82192,-2.86127l3.73025,1.07156l-0.82193,2.86126z"/><path d="M299.88726,159.02516l0.82193,-2.86126l3.73026,1.07155l-0.82192,2.86127z"/></g></g><g><g><path d="M293.94874,157.31926l0.82192,-2.86127l3.73026,1.07156l-0.82193,2.86126z"/><path d="M287.896,155.5805l0.82192,-2.86127l3.73026,1.07157l-0.82192,2.86127z"/></g><g><path d="M282.07168,153.90739l0.82193,-2.86126l3.73026,1.07154l-0.82192,2.86127z"/><path d="M276.01894,152.16866l0.82193,-2.86126l3.73026,1.07156l-0.82193,2.86126z"/></g></g></g></g><g><g fill="#685d63" stroke-width="0"><g><g><path d="M270.04154,150.45161l0.82192,-2.86128l3.73026,1.07157l-0.82193,2.86126z"/><path d="M263.98879,148.71283l0.82193,-2.86126l3.73026,1.07157l-0.82192,2.86127z"/></g><g><path d="M258.16441,147.03978l0.82193,-2.86126l3.73026,1.07157l-0.82192,2.86127z"/><path d="M252.11172,145.30107l0.82193,-2.86126l3.73026,1.07156l-0.82192,2.86127z"/></g></g><g><g><path d="M246.17318,143.59517l0.82192,-2.86127l3.73026,1.07156l-0.82193,2.86126z"/><path d="M240.12042,141.85642l0.82193,-2.86126l3.73026,1.07156l-0.82192,2.86127z"/></g><g><path d="M234.29606,140.1833l0.82193,-2.86126l3.73025,1.07156l-0.82192,2.86127z"/><path d="M228.24331,138.44455l0.82193,-2.86126l3.73026,1.07156l-0.82192,2.86127z"/></g></g></g><g><g fill="#685d63" stroke-width="0"><g><path d="M228.01492,138.37896l0.82192,-2.86127l3.73026,1.07156l-0.82193,2.86126z"/><path d="M221.96218,136.64022l0.82192,-2.86127l3.73026,1.07156l-0.82192,2.86127z"/></g><g><path d="M216.13783,134.96712l0.82193,-2.86126l3.73026,1.07156l-0.82192,2.86127z"/><path d="M210.08511,133.22841l0.82192,-2.86127l3.73026,1.07156l-0.82193,2.86126z"/></g></g><g fill="none" stroke-width="1" font-family="sans-serif" font-weight="normal" font-size="12" text-anchor="start"><g/><g/></g></g></g><path d="M202.26244,130.72198l3.3465,-1.88565l2.93649,0.84354l-0.75548,2.62999z" data-paper-data="{&quot;index&quot;:null}" fill="#685d63" stroke-width="0"/></g><path d="M247.88156,178.04304l-2.52723,-0.44503c0,0 2.32255,-2.00418 11.85607,-0.43887c7.22784,1.18676 27.35394,5.60368 39.39167,8.28577c5.59003,1.24546 62.38101,8.19338 62.38101,8.19338l5.00066,1.42162c0,0 -62.25577,-6.80847 -67.83533,-8.07511c-12.33787,-2.80089 -33.09303,-7.47582 -39.16238,-8.61741c-3.30394,-0.62146 -9.10443,-0.32429 -9.10443,-0.32429z" fill="#70475c" stroke-width="0"/><path d="M339.61609,224.19204l-5.24202,0.41464l5.22756,-18.19535c0,0 7.47524,2.1977 14.7859,4.34705c20.98667,6.17005 121.8501,35.82367 121.8501,35.82367l-1.85736,6.46578z" fill="#5a5959" stroke-width="0"/><path d="M338.28702,225.50453l1.87846,-2.58802l134.25667,30.02942l-14.46188,7.51066z" fill="#4b4a4a" stroke-width="0"/><path d="M456.85441,259.36764c0,0 -4.78635,-4.73008 -7.30665,-6.93992c-1.35072,-1.18429 -6.63976,-5.28842 -6.63976,-5.28842c0,0 6.88872,5.00004 9.84158,6.83458c1.05383,0.65471 1.92869,1.67886 3.0362,2.54649c0.35713,0.27975 2.87147,-1.86872 5.16986,-2.99214c0.68698,-0.33581 1.70148,0.33493 2.29778,0.16204c1.36697,-0.39632 2.01339,-1.34624 2.01339,-1.34624c0,0 0.0677,0.98662 -1.43896,1.81662c-0.41108,0.22648 -2.2412,0.06731 -2.65349,0.32383c-1.65236,1.02804 -3.05669,2.28837 -3.5132,2.77235c-1.27392,1.35058 0.59969,2.51474 0.59969,2.51474z" fill="#414040" stroke-width="0"/><path d="M190.66914,150.18047l6.73126,-9.61402l6.90613,1.3343c0,0 -1.64483,2.28279 -2.61425,3.62821c-0.24415,0.33886 11.6316,1.71504 11.78462,2.45714c0.284,1.37686 -6.10961,3.45224 -6.71927,4.29836c-0.69698,0.96731 -9.1724,-1.05553 -9.1724,-1.05553z" fill="#303030" stroke-width="0"/><path d="M190.63331,149.78516l6.40024,-8.84024c0,0 2.52334,2.08224 2.25141,3.0289c-0.49482,1.72251 -3.61026,6.84879 -3.61026,6.84879z" fill="#252525" stroke-width="0"/><path d="M333.62345,227.15415l0.81516,-2.83763l6.12422,-1.31253l-2.00514,2.49579c0,0 -1.41667,0.98231 -2.28445,1.27326c-0.76359,0.25602 -2.64978,0.3811 -2.64978,0.3811z" fill="#383838" stroke-width="0"/><g><g fill="#4b4b4b" stroke-width="0"><g data-paper-data="{&quot;origPos&quot;:null}"><g data-paper-data="{&quot;origPos&quot;:null}"><path d="M397.77642,247.00924l0.62749,-2.1844l3.60426,1.03535l-0.62749,2.1844z" data-paper-data="{&quot;origPos&quot;:null}"/><path d="M391.80071,245.17445l0.62749,-2.1844l3.60426,1.03537l-0.62749,2.18439z" data-paper-data="{&quot;origPos&quot;:null}"/></g><g data-paper-data="{&quot;origPos&quot;:null}"><path d="M409.75914,250.56966l0.62749,-2.1844l3.60426,1.03535l-0.62749,2.18439z" data-paper-data="{&quot;origPos&quot;:null}"/><path d="M403.78345,248.73487l0.62749,-2.18439l3.60426,1.03535l-0.6275,2.1844z" data-paper-data="{&quot;origPos&quot;:null}"/></g></g><g data-paper-data="{&quot;origPos&quot;:null,&quot;index&quot;:null}"><g data-paper-data="{&quot;origPos&quot;:null}"><path d="M428.27996,255.65356l0.6275,-2.18441l3.60426,1.03535l-0.62749,2.18439z" data-paper-data="{&quot;origPos&quot;:null}"/><path d="M434.31839,257.26989l0.62748,-2.18438l3.60426,1.03535l-0.62749,2.18438z" data-paper-data="{&quot;origPos&quot;:null}"/></g><g data-paper-data="{&quot;origPos&quot;:null}"><path d="M416.23448,252.31152l0.6275,-2.1844l3.60426,1.03537l-0.62748,2.18438z" data-paper-data="{&quot;origPos&quot;:null}"/><path d="M422.27289,253.92797l0.62749,-2.18439l3.60426,1.03534l-0.62749,2.18439z" data-paper-data="{&quot;origPos&quot;:null}"/></g></g></g><path d="M358.99171,227.28934l3.75799,-13.08207l81.19051,23.32292l-3.75799,13.08207z" data-paper-data="{&quot;origPos&quot;:null}" fill="#444444" stroke-width="0"/><path d="M357.78259,231.8552l1.32042,-4.59656l80.95188,23.25436l-1.32043,4.59657z" data-paper-data="{&quot;origPos&quot;:null}" fill="#414141" stroke-width="0"/><path d="M357.42281,233.23368l0.44664,-1.55475l80.94159,23.25144l-0.44663,1.55475z" data-paper-data="{&quot;origPos&quot;:null}" fill="#3f3f3f" stroke-width="0"/><g stroke-width="0"><g data-paper-data="{&quot;origPos&quot;:null}" fill="#5a5a5a"><g data-paper-data="{&quot;origPos&quot;:null}"><path d="M400.55949,239.31274l3.79628,-13.21554l3.43262,0.98606l-3.79629,13.21554z" data-paper-data="{&quot;origPos&quot;:null}"/></g><g data-paper-data="{&quot;origPos&quot;:null}"><path d="M406.39492,240.98905l3.79628,-13.21554l3.43262,0.98607l-3.79629,13.21553z" data-paper-data="{&quot;origPos&quot;:null}"/><path d="M412.40198,242.71465l3.7963,-13.21553l3.43262,0.98606l-3.79629,13.21553z" data-paper-data="{&quot;origPos&quot;:null}"/></g></g><g data-paper-data="{&quot;origPos&quot;:null}" fill="#5a5a5a"><g data-paper-data="{&quot;origPos&quot;:null}"><path d="M418.75228,244.53885l3.79628,-13.21554l3.43262,0.98606l-3.7963,13.21555z" data-paper-data="{&quot;origPos&quot;:null}"/><path d="M424.75934,246.26445l3.79629,-13.21553l3.43262,0.98606l-3.79629,13.21553z" data-paper-data="{&quot;origPos&quot;:null}"/></g><g data-paper-data="{&quot;origPos&quot;:null}"><path d="M430.59478,247.94078l3.7963,-13.21553l3.43259,0.98605l-3.7963,13.21554z" data-paper-data="{&quot;origPos&quot;:null}"/><path d="M436.60189,249.66633l3.7963,-13.21554l3.43261,0.98606l-3.79628,13.21554z" data-paper-data="{&quot;origPos&quot;:null}"/></g></g><path d="M404.05104,240.31574l-1.37779,1.61333l-5.04954,-1.40573l2.57082,-9.45413l4.10468,-4.9883l-3.73002,13.23458z" fill="#3a3a3a"/><path d="M409.88412,241.99136l-1.3778,1.61334l-5.04954,-1.40574l2.57083,-9.45414l4.10467,-4.9883l-3.73002,13.23457z" fill="#3a3a3a"/><path d="M415.84971,243.70505l-1.3778,1.61333l-5.04954,-1.40574l2.57082,-9.45412l4.10467,-4.9883l-3.73002,13.23458z" fill="#3a3a3a"/><path d="M422.27934,245.55206l-1.37779,1.61333l-5.04954,-1.40574l2.57082,-9.45413l4.10467,-4.9883l-3.73001,13.23458z" fill="#3a3a3a"/><path d="M428.31131,247.2848l-1.37779,1.61333l-5.04954,-1.40574l2.57082,-9.45413l4.10467,-4.9883l-3.73001,13.23458z" fill="#3a3a3a"/><path d="M434.07808,248.94134l-1.3778,1.61333l-5.04953,-1.40574l2.57082,-9.45413l4.10467,-4.9883l-3.73002,13.2346z" fill="#3a3a3a"/><path d="M440.11762,250.67631l-1.37779,1.61333l-5.04954,-1.40574l2.57083,-9.45413l4.10467,-4.98831l-3.73002,13.23458z" fill="#3a3a3a"/></g><g stroke-width="0"><g data-paper-data="{&quot;origPos&quot;:null}" fill="#5a5a5a"><g data-paper-data="{&quot;origPos&quot;:null}"><path d="M359.01073,227.3774l3.7963,-13.21553l3.43263,0.98606l-3.79628,13.21554z" data-paper-data="{&quot;origPos&quot;:null}"/></g><g data-paper-data="{&quot;origPos&quot;:null}"><path d="M364.84615,229.0537l3.79628,-13.21553l3.43262,0.98606l-3.79629,13.21554z" data-paper-data="{&quot;origPos&quot;:null}"/><path d="M370.8532,230.77929l3.79629,-13.21554l3.43263,0.98606l-3.7963,13.21554z" data-paper-data="{&quot;origPos&quot;:null}"/></g></g><g data-paper-data="{&quot;origPos&quot;:null}" fill="#5a5a5a"><g data-paper-data="{&quot;origPos&quot;:null}"><path d="M377.20354,232.60348l3.7963,-13.21554l3.43262,0.98607l-3.79629,13.21553z" data-paper-data="{&quot;origPos&quot;:null}"/><path d="M383.21066,234.32909l3.79629,-13.21554l3.43262,0.98607l-3.7963,13.21553z" data-paper-data="{&quot;origPos&quot;:null}"/></g><g data-paper-data="{&quot;origPos&quot;:null}"><path d="M389.04609,236.00539l3.79629,-13.21553l3.43263,0.98606l-3.7963,13.21553z" data-paper-data="{&quot;origPos&quot;:null}"/><path d="M395.05315,237.73099l3.7963,-13.21554l3.43262,0.98607l-3.79631,13.21556z" data-paper-data="{&quot;origPos&quot;:null}"/></g></g><path d="M362.50223,228.38035l-1.3778,1.61333l-2.6356,-0.71223l0.5315,-1.9013z" fill="#3a3a3a"/><path d="M368.33539,230.05602l-1.37779,1.61334l-5.04954,-1.40574l2.57083,-9.45413l4.10468,-4.98829l-3.73002,13.23458z" fill="#3a3a3a"/><path d="M374.30095,231.76968l-1.37779,1.61333l-5.04954,-1.40574l2.57082,-9.45412l4.10468,-4.9883l-3.73003,13.2346z" fill="#3a3a3a"/><path d="M380.73058,233.61664l-1.37779,1.61332l-5.04954,-1.40572l2.57083,-9.45414l4.10468,-4.98829l-3.73002,13.23458z" fill="#3a3a3a"/><path d="M386.76255,235.34944l-1.3778,1.61333l-5.04954,-1.40574l2.57082,-9.45413l4.10468,-4.98829l-3.73003,13.2346z" fill="#3a3a3a"/><path d="M392.52932,237.00598l-1.37779,1.61333l-5.04954,-1.40574l2.57082,-9.45412l4.10468,-4.9883l-3.73002,13.23458z" fill="#3a3a3a"/><path d="M398.56891,238.74097l-1.37779,1.61334l-5.04954,-1.40574l2.57082,-9.45413l4.10468,-4.98829l-3.73002,13.23458z" fill="#3a3a3a"/></g><g><g data-paper-data="{&quot;origPos&quot;:null}"><g data-paper-data="{&quot;origPos&quot;:null}" fill="none" stroke-width="1" font-family="sans-serif" font-weight="normal" font-size="12" text-anchor="start"/><g data-paper-data="{&quot;origPos&quot;:null}" fill="#4b4b4b" stroke-width="0"><path d="M362.89648,237.18785l0.6275,-2.1844l3.60426,1.03537l-0.62748,2.18438z" data-paper-data="{&quot;origPos&quot;:null}"/><path d="M356.92081,235.35306l0.62749,-2.1844l3.60426,1.03535l-0.62749,2.1844z" data-paper-data="{&quot;origPos&quot;:null}"/></g></g><g data-paper-data="{&quot;origPos&quot;:null,&quot;index&quot;:null}" fill="#4b4b4b" stroke-width="0"><g data-paper-data="{&quot;origPos&quot;:null}"><path d="M381.41737,242.27172l0.62749,-2.18439l3.60426,1.03535l-0.62749,2.18439z" data-paper-data="{&quot;origPos&quot;:null}"/><path d="M387.45579,243.88808l0.62748,-2.18436l3.60426,1.03535l-0.62749,2.18439z" data-paper-data="{&quot;origPos&quot;:null}"/></g><g data-paper-data="{&quot;origPos&quot;:null}"><path d="M369.37175,238.92973l0.62749,-2.1844l3.60426,1.03535l-0.62749,2.18439z" data-paper-data="{&quot;origPos&quot;:null}"/><path d="M375.41021,240.54605l0.6275,-2.1844l3.60426,1.03535l-0.62749,2.1844z" data-paper-data="{&quot;origPos&quot;:null}"/></g></g></g></g><path d="M203.2964,152.14935l2.163,-3.76424c0,0 5.30084,-1.75203 8.73612,-0.92124c3.92723,0.9497 32.72436,9.24799 32.72436,9.24799c0,0 0.1184,1.98558 -0.26852,3.14088c-0.49852,1.48842 -3.37843,3.84969 -3.37843,3.84969z" fill="#242424" stroke-width="0"/><path d="M228.26683,155.35831l0.86981,-3.02787l17.30207,4.97022l-0.86982,3.02787z" fill="#313131" stroke-width="0"/><path d="M224.56805,156.30446l0.18007,-0.6269c0,0 1.31657,-0.7155 2.29989,-0.43299c0.93373,0.26822 2.90556,1.32879 5.21703,2.16277c4.40337,1.58873 9.78493,3.24039 9.78493,3.24039l-0.18009,0.62689c0,0 -5.21668,-1.50072 -9.55763,-3.07089c-2.36862,-0.85675 -4.39153,-2.02986 -5.36015,-2.30814c-1.01813,-0.29249 -2.38406,0.40883 -2.38406,0.40883z" fill="#616161" stroke-width="0"/><path d="M254.98425,148.69556l11.36428,6.41354l28.18577,13.61946c0,0 0.64275,0.41787 -6.93998,-2.51805c-2.57953,-0.99876 -12.36011,-5.48244 -20.69904,-9.85768c-2.25641,-1.18389 -14.12221,-8.17244 -14.12221,-8.17244z" fill="#df8cb7" stroke-width="0"/><path d="M79.18631,104.7881l1.6381,-5.70249c0,0 6.02978,-0.09171 9.68574,0.95851c2.99301,0.85978 10.17782,6.57139 10.17782,6.57139l-3.5175,11.75656z" fill="#626061" stroke-width="0"/><path d="M187.97766,146.42926l2.95684,3.45676l12.13643,2.10965l48.77253,14.01051l-0.3012,1.04863c0,0 -36.54649,-10.64951 -48.05965,-13.68399c-3.16092,-0.8331 -12.68232,-2.81824 -12.68232,-2.81824z" fill="#ffa6d4" stroke-width="0"/><path d="M58.76506,165.43769l1.97948,-6.89092l27.10861,-9.5155l-5.31872,12.69382l-16.12948,5.90726z" fill="#3f3d3e" stroke-width="0"/><path d="M58.59541,160.12411c0,0 5.60608,-18.8362 9.02639,-27.82457c3.86035,-10.14477 12.97557,-29.99586 12.97557,-29.99586c0,0 8.332,2.19645 11.32044,4.76732c2.55768,2.20027 5.51986,9.71978 5.51986,9.71978l-9.26346,32.24742c0,0 -15.17793,9.89207 -18.72819,11.22273c-5.46094,2.04673 -10.85056,-0.13681 -10.85056,-0.13681z" fill="#555354" stroke-width="0"/><path d="M77.52622,112.44859c0,0 0.17432,-6.18519 2.90484,-8.20713c2.73052,-2.02194 7.19181,-1.79844 9.65255,-1.09155c1.96303,0.56391 6.00365,1.80654 7.53439,6.88506c1.53078,5.07849 -2.15585,10.95932 -2.15585,10.95932c0,0 -3.18252,-11.73868 -5.52207,-12.85332c-3.30131,-1.57296 -12.4139,4.3076 -12.4139,4.3076z" fill="#6f6b6c" stroke-width="0"/><path d="M55.85376,164.40539c0,0 8.84366,-24.5761 12.00323,-35.5751c3.29047,-11.45456 8.80476,-31.42684 8.80476,-31.42684c0,0 1.28876,-0.29875 2.28916,-0.01138c0.91475,0.26276 2.24318,1.31337 2.24318,1.31337c0,0 -5.49468,18.35154 -8.44748,28.63065c-3.43063,11.94251 -13.5964,38.01622 -13.5964,38.01622z" fill="#333232" stroke-width="0"/><path d="M55.31724,164.71287l5.11251,-13.83445c0,0 0.76878,1.14569 1.35557,1.274c0.74092,0.16203 2.74963,-0.75657 2.74963,-0.75657l-5.40294,14.41285z" fill="#2e2d2d" stroke-width="0"/><path d="M90.0892,136.97531c-2.25424,7.84727 -8.61131,15.03961 -13.61512,16.648c-4.15581,1.33584 -13.22882,5.76072 -10.97463,-2.08656c0.47821,-1.66477 5.72268,-12.518 7.78703,-19.23912c2.7301,-8.88855 2.52351,-14.13025 4.22588,-16.58735c3.07824,-4.4428 8.79529,-4.33986 10.92371,-3.72845c4.19557,1.20523 3.90734,17.14621 1.65309,24.99348z" fill="#585758" stroke-width="0"/><path d="M119.3232,160.02564l-0.08894,-1.83668c0,0 8.00398,0.89408 13.9217,2.09028c8.33083,1.68398 31.34842,7.06064 31.34842,7.06064l1.3724,1.72724c0,0 -24.58197,-5.37554 -33.16902,-7.04327c-2.52191,-0.48978 -13.38458,-1.99816 -13.38458,-1.99816z" fill="#585657" stroke-width="0"/><path d="M110.01718,171.08673l8.76818,-11.72633l7.22324,1.08584c0,0 -2.86147,3.66592 -2.98701,4.41555c-0.59994,3.5819 -4.33671,27.44481 -4.33671,27.44481c0,0 -1.54163,0.01539 -2.16695,-2.11563c-1.12201,-3.82371 -0.9916,-10.92577 -2.09503,-13.43047c-0.95336,-2.16401 -4.40569,-5.67375 -4.40569,-5.67375z" fill="#5a5759" stroke-width="0"/><path d="M130.56445,144.93939l5.90569,-10.09518l2.27332,0.53743l-7.03498,10.00198z" fill="#a5a0a2" stroke-width="0"/><path d="M137.38937,145.77257l0.38727,-1.34823l25.46634,7.31552l-0.38726,1.34823z" fill="#494748" stroke-width="0"/><path d="M138.13228,142.89453l0.38727,-1.34823l25.46634,7.31552l-0.38727,1.34823z" fill="#494748" stroke-width="0"/><path d="M113.26754,159.06579l5.5601,-19.35555l14.42632,-5.86102l4.74234,1.03795l-27.46375,36.65572l-4.83997,-3.47474z" fill="#dbd5d8" stroke-width="0"/><path d="M84.50947,163.20093l3.10364,-11.37611l25.8364,6.60039c0,0 -0.38323,2.53027 -0.72884,3.26178c-0.86145,1.82353 -4.70623,7.93744 -4.70623,7.93744z" fill="#ccc6c9" stroke-width="0"/><path d="M91.29686,153.29966l0.0872,-0.30353l22.16987,5.46499l-2.83111,0.4189c0,0 -4.20506,-1.0142 -6.79974,-1.79261c-3.55279,-1.06578 -12.62623,-3.78773 -12.62623,-3.78773z" fill="#d8d1d5" stroke-width="0"/><path d="M95.70737,150.67872l4.69365,-16.3392l15.49821,4.45208l-4.69366,16.3392z" fill="#a39999" stroke-width="0"/><path d="M84.19681,163.28777l3.13625,-10.91775c0,0 6.73001,8.57824 10.20388,12.01141c3.47383,3.43315 9.79962,4.95899 9.79962,4.95899z" fill="#b4afb1" stroke-width="0"/><path d="M114.86395,178.38427c0,0 2.62443,1.83648 3.71761,2.001c0.67158,0.10101 2.21773,-1.108 2.21773,-1.108l-0.91102,9.17843l-1.15827,4.03206c0,0 -1.9535,-0.23715 -2.46981,-3.07248c-0.426,-2.33938 -1.39634,-11.03091 -1.39634,-11.03091z" fill="#504e4f" stroke-width="0"/><path d="M110.15621,171.7055l25.42465,-36.12822l1.61921,0.67859l-25.43936,36.55088z" fill="#858183" stroke-width="0"/><path d="M105.22702,127.88527l1.91158,-1.16809c0,0 26.52775,6.95045 38.45565,10.37691c10.35262,2.97387 30.60579,9.15917 30.60579,9.15917l-0.0271,2.01211c0,0 -20.27453,-6.55863 -31.18684,-9.6933c-12.46045,-3.5794 -39.75902,-10.68671 -39.75902,-10.68671z" fill="#918b8e" stroke-width="0"/><path d="M106.54545,126.9835l2.48121,-1.30716c0,0 24.9795,6.8084 36.90741,10.23482c10.35261,2.97387 30.60579,9.15918 30.60579,9.15918l-0.0271,2.01209c0,0 -20.27453,-6.55863 -31.18684,-9.69331c-12.46045,-3.57941 -38.78042,-10.40563 -38.78042,-10.40563z" fill="#a59fa2" stroke-width="0"/><path d="M162.90386,164.79977l-0.28172,-5.99338c0,0 0.53608,-1.09977 0.88729,-1.11625c0.30942,-0.01453 1.11049,1.02234 1.11049,1.02234l0.28172,5.99337c0,0 -0.50773,0.76728 -0.81785,0.78187c-0.35081,0.01648 -1.17995,-0.68793 -1.17995,-0.68793z" fill="#494242" stroke-width="0"/><path d="M123.46344,156.22584l6.0241,-8.13886l3.73468,1.07284l-6.02411,8.13884z" fill="#9c989a" stroke-width="0"/><path d="M137.56675,141.7821l2.04602,-0.41934l23.48391,6.76484l1.67736,1.47016z" fill="#757274" stroke-width="0"/><path d="M136.88122,144.51017l2.04602,-0.41935l23.4839,6.76483l1.67738,1.47016z" fill="#757274" stroke-width="0"/><path d="M82.14164,161.67465l17.69771,-55.42582l1.68531,1.08834l-17.28416,55.96201z" fill="#686666" stroke-width="0"/><path d="M81.90997,161.88937l5.11731,-15.44315l1.14776,4.30261l-4.09425,12.67221z" fill="#535252" stroke-width="0"/><path d="M117.77636,148.39259c0,0 2.68904,-1.66788 2.95045,-2.57785c0.25654,-0.89297 -1.39638,-2.83205 -1.39638,-2.83205c0,0 2.70047,1.47253 2.13415,3.06647c-0.43133,1.21405 -2.04548,3.02793 -2.43381,4.06334c-1.10419,2.94404 -3.79464,9.81566 -3.79464,9.81566z" fill="#c4bec1" stroke-width="0"/><path d="M125.6818,148.67455l4.65223,-9.27134l3.652,-3.48132l-5.19083,8.45364z" fill="#aca7a9" stroke-width="0"/></g></g><g stroke-width="0"><path d="M246.83553,154.52137l3.37481,-2.4944c0,0 2.13377,-0.88147 2.85075,-0.38942c0.81744,0.56104 1.79219,3.57588 1.79219,3.57588l-1.64788,3.77364c0,0 -4.11275,-1.18927 -5.29301,-1.66702c-0.53206,-0.21536 -1.07685,-2.79873 -1.07685,-2.79873z" fill="#c0c0c0"/><path d="M202.92027,151.94764c0,0 0.62557,-2.81677 1.95791,-3.61897c1.66977,-1.0053 8.12418,-1.45285 8.12418,-1.45285l-1.99085,4.35679l-0.8065,2.80766z" fill="#838383"/><path d="M202.7753,151.82865l9.85525,-4.9528l36.10226,10.37081l-2.06555,7.19051z" fill="#999999"/><path d="M203.91673,151.47355l7.533,-3.91339l32.45956,9.32438l-1.61269,5.61407c0,0 -3.92871,-1.12856 -8.98251,-2.58032c-3.2858,-0.94389 -6.75393,-3.04514 -10.22039,-4.0409c-3.71866,-1.06824 -7.39121,-1.01827 -9.47989,-1.61825c-4.08786,-1.1743 -9.69705,-2.7856 -9.69705,-2.7856z" fill="#d952b3"/><path d="M207.27381,152.43562l9.67346,-3.36323l11.9796,3.44128c0,0 -7.61597,-0.20332 -10.14646,0.02133c-2.68641,0.23845 -6.35642,1.38005 -6.35642,1.38005z" fill="#a5899d"/><path d="M214.98358,154.53302c0,0 5.15589,0.46965 7.51749,1.14806c3.01755,0.86683 9.10705,3.62755 9.10705,3.62755l-9.18624,-2.98762z" fill="#adadad"/><path d="M202.88083,151.84006l8.89924,-4.46825l33.60752,9.65418l-0.1901,0.66183c0,0 -29.09994,-8.35927 -32.89315,-9.44898c-0.7934,-0.2279 -9.42352,3.60128 -9.42352,3.60128z" fill="#8a8a8a"/><path d="M246.49308,170.85618l2.6934,-9.37615l2.61386,-6.7423c0,0 1.01129,0.7794 1.38811,1.47394c0.37682,0.69454 0.43398,1.88437 0.43398,1.88437l-5.19457,13.31593z" fill="#9e9e9e"/><path d="M242.42147,165.28469c0,0 -0.28962,-2.29406 0.01771,-3.85914c0.4139,-2.1076 2.75973,-7.1751 2.75973,-7.1751l1.95581,0.2233c0,0 0.51077,0.97052 1.01124,0.9591c0.69003,-0.01572 2.74605,-1.04477 2.74605,-1.04477l-4.02191,12.18031z" fill="#9c9c9c"/><path d="M242.46764,167.20268c-0.44704,-1.27753 0.16314,-2.53088 0.16314,-2.53088l6.67609,-5.5738c0,0 0.26716,4.11759 0.01412,4.99843c-0.71939,2.50426 -1.06337,7.34721 -1.06337,7.34721c0,0 -2.88739,-0.7423 -3.76476,-1.45073c-1.05231,-0.84961 -1.57815,-1.51275 -2.02521,-2.79029z" fill="#888888"/><path d="M244.39294,166.95019c-0.39774,-2.19487 -0.13675,-6.76342 2.75835,-10.16308c2.89508,-3.3996 4.62716,-0.68467 4.62716,-0.68467c0,0 -0.25379,4.52895 -0.89238,6.75193c-0.58169,2.02494 -2.78436,6.0473 -2.78436,6.0473c0,0 -3.31109,0.24341 -3.70878,-1.9515z" fill="#b4b4b4"/><path d="M250.5176,160.70304c-0.38959,1.35623 -5.32228,0.01977 -4.9327,-1.33643c0.38959,-1.35623 4.82095,-5.7039 5.60181,-5.47963c0.30242,0.08686 0.89312,0.36252 0.78912,1.43626c-0.16455,1.69864 -1.2195,4.54879 -1.45821,5.37981z" fill="#bbbbbb"/></g><g stroke-width="0"><path d="M187.88921,146.38814c0,0 -4.27126,-6.3432 -3.75402,-8.14375c0.42231,-1.47019 6.25792,0.07806 6.25792,0.07806l7.23216,2.15225l-6.84373,9.24893z" fill="#f399c8"/><path d="M158.09642,139.53783c0,0 -0.35316,-2.28412 0.19025,-3.24413c0.59972,-1.0594 3.57523,-3.95536 3.57523,-3.95536l22.19393,6.18229l6.39061,10.80767z" fill="#ee96c3"/></g></g><g stroke-width="0"><g><path d="M255.31921,146.94324l1.70678,-5.94154l45.95948,13.20241l-1.70677,5.94154z" fill="#61585b"/><path d="M256.05779,143.78069l0.91401,-3.18167l46.13423,13.25259l-0.91401,3.18167c0,0 -8.30501,-2.38572 -16.83635,-4.83646c-2.6674,-0.76624 -6.83632,-0.38522 -9.30107,-1.09325c-2.93084,-0.84192 -5.65523,-3.20315 -7.5353,-3.74319c-5.63733,-1.6194 -12.46156,-3.57972 -12.46156,-3.57972z" fill="#494344"/><path d="M317.30563,154.5025l-3.74323,-20.7739l20.10609,5.77575l10.19756,20.38204c0,0 -5.86407,-0.26808 -9.04177,-0.9122c-4.90348,-0.99395 -17.51864,-4.47163 -17.51864,-4.47163z" fill="#5e555b"/><path d="M316.35921,157.80463l1.52915,-5.3232c0,0 12.22166,1.99892 17.13889,2.6003c3.90247,0.47727 6.75976,0.69249 6.75976,0.69249l3.79276,8.30891c0,0 -5.56582,0.06181 -9.67503,-0.65668c-5.56781,-0.97359 -19.54549,-5.62172 -19.54549,-5.62172z" fill="url(#color-5)"/><path d="M311.88955,133.41325l1.10336,-3.84083l18.40709,5.28763l2.39167,4.84483z" fill="url(#color-6)"/><path d="M315.79126,157.66746l0.34769,-1.21029c0,0 15.02406,4.23633 20.24745,5.56251c3.90582,0.99166 8.5898,0.69657 8.5898,0.69657l0.53827,1.34566l-8.47151,-0.28967z" fill="#312c30"/><g><path d="M221.62503,119.58774l2.22812,-8.57655l90.27449,25.93239l4.22867,12.95283z" fill="#8a6672"/><path d="M235.23379,132.11777c0,0 -2.3872,-4.43736 -4.67934,-6.61646c-2.29211,-2.17916 -9.14445,-3.9005 -9.14445,-3.9005l0.68409,-1.97498c0,0 11.76796,3.66806 18.49777,5.70037c16.0766,4.85481 77.54483,23.30267 77.54483,23.30267l1.66923,7.31212z" fill="#755761"/><path d="M237.28381,135.29833l-2.19222,-3.32637l84.31701,23.71191l0.30791,3.29416z" fill="#694e57"/><path d="M223.58539,111.34647l1.25045,-4.35293l87.46412,24.41826l2.13694,6.50406c0,0 1.72644,3.96896 -3.34734,2.48514c-1.59725,-0.46709 -9.43357,-6.22289 -11.03482,-6.69119c-15.421,-4.50984 -76.46933,-22.36331 -76.46933,-22.36331z" fill="#916b77"/><path d="M225.06835,107.06039l0.58278,-2.4592l86.45236,24.69012l0.34407,2.58784z" fill="#9e7582"/><path d="M296.12406,128.18352c-7.57534,-2.85024 -69.44064,-21.69585 -69.44064,-21.69585l84.43917,24.25616l2.5597,8.47739c0,0 -9.98287,-8.18746 -17.55823,-11.0377z" fill="#b38f9a"/></g><path d="M266.95646,143.81921l2.53285,-8.8172l19.42657,5.5805l-2.53285,8.8172z" fill="#3a3336"/><path d="M269.40375,134.98172l1.10897,-1.26551l17.81783,5.11836l0.52651,1.7353z" fill="#4b4246"/><path d="M267.22905,143.37795l2.25779,-7.85973c0,0 -0.43593,5.35356 1.81328,7.15072c2.24922,1.79715 14.81263,6.13356 14.81263,6.13356z" fill="#332c30"/><path d="M312.48251,135.89733l-2.11106,-6.84908c0,0 1.16725,-0.35835 1.74454,-0.1925c0.64539,0.1854 1.94619,1.25267 1.94619,1.25267l2.11106,6.84908z" fill="#757575"/><path d="M314.07829,141.28184l-3.03749,-9.83311l3.69072,1.06023l3.03749,9.83309z" fill="#5a5a5a"/><path d="M316.37765,148.65214l-3.03749,-9.83309l3.69071,1.06022l3.03749,9.83311z" fill="#505050"/><path d="M318.75185,156.284c-0.51877,-1.67946 -2.54303,-8.23247 -2.54303,-8.23247l3.6907,1.06024l3.50567,11.7512c0,0 -2.12375,-0.05291 -3.03226,-0.32932c-0.70864,-0.21559 -1.39235,-3.50908 -1.62113,-4.24962z" fill="#3b3b3b"/><path d="M219.42554,121.65917l5.15601,-17.94886l3.05732,0.87823l-5.15602,17.94886z" fill="#443e42"/><path d="M200.84162,117.9843l0.97763,-5.88692l19.44228,5.58503l-1.63669,5.69757z" fill="url(#color-7)"/><path d="M201.64515,112.70353l2.99481,-10.42537l19.44228,5.58503l-2.99483,10.42538z" fill="#5e555b"/><path d="M204.60509,102.39954l1.91806,-3.77952l18.67337,5.36415l-1.14917,4.00044z" fill="url(#color-8)"/><path d="M273.26782,117.99837l1.6934,-5.8949l14.14384,5.17276l3.14186,5.80417z" fill="#5e555b"/><path d="M292.14872,123.42214l-3.06819,-6.06048c0,0 2.70828,1.49654 4.57429,3.0712c1.86601,1.57466 4.73059,4.7808 4.73059,4.7808z" fill="#776b73"/><path d="M270.04403,118.2746l3.41921,-0.31257l24.67858,6.81176l3.08555,2.45858z" fill="#6d6269"/></g><g><path d="M269.44291,140.40278c0.34477,-1.2003 1.15465,-2.17114 1.81241,-3.0534c0.91656,-1.22939 1.82357,-2.20468 3.30069,-2.66077c0.90227,-0.27858 2.10282,-0.33885 3.11969,-0.29683c0.67257,0.02784 1.74333,-0.08088 2.41905,0.11323c1.53175,0.44 1.83822,0.61307 2.80629,1.40726c0.58318,0.47842 2.0349,1.36269 2.36351,2.15639c0.27815,0.67178 0.47357,1.71482 0.61432,2.46238c0.24055,1.27752 0.49705,3.29112 0.11367,4.6258c-0.16204,0.56401 -1.00438,1.71461 -1.19445,2.19634c-0.60337,1.52931 -0.74478,2.01887 -2.21577,2.74448c-0.89405,0.441 -2.49397,0.55139 -3.55269,0.67381c-1.09648,0.1268 -2.56182,0.60693 -3.68894,0.28315c-0.76075,-0.21854 -1.98562,-1.12702 -2.68498,-1.46963c-1.51732,-0.74329 -2.32657,-1.15726 -3.00128,-2.53735c-0.57858,-1.18349 -0.38779,-2.79163 -0.36305,-4.19703c0.01302,-0.7383 -0.06208,-1.70428 0.15149,-2.44781z" fill="#3a3a3a"/><path d="M270.1783,140.49062c0.31553,-1.09837 1.05664,-1.98679 1.65853,-2.79415c0.83875,-1.12504 1.66872,-2.01749 3.02045,-2.43489c0.82565,-0.25494 1.9243,-0.31009 2.8548,-0.27164c0.61548,0.02543 1.59535,-0.07398 2.21357,0.10366c1.4017,0.40267 1.68213,0.561 2.56805,1.28776c0.53364,0.4378 1.86211,1.24699 2.16285,1.97332c0.25454,0.61478 0.43333,1.56922 0.56216,2.25331c0.22013,1.16906 0.45485,3.0117 0.10403,4.23298c-0.14829,0.51612 -0.91911,1.56904 -1.09305,2.00987c-0.55211,1.39946 -0.68154,1.84748 -2.02763,2.51145c-0.81818,0.40352 -2.28222,0.50454 -3.25106,0.61658c-1.00339,0.11602 -2.3443,0.55542 -3.37573,0.25913c-0.69617,-0.19998 -1.81702,-1.03133 -2.45701,-1.34484c-1.38852,-0.68018 -2.12908,-1.059 -2.74645,-2.32193c-0.52946,-1.08302 -0.35485,-2.5546 -0.33219,-3.84066c0.01192,-0.67562 -0.05682,-1.55958 0.13862,-2.23997z" fill="#5a5a5a"/><path d="M283.1469,139.50346c-1.30672,-2.85764 -6.14687,-4.45673 -6.14687,-4.45673c0,0 2.01587,0.01726 3.92678,0.57338c1.54787,0.45049 2.9585,1.23489 3.71376,2.80547c0.75587,1.57186 0.72454,3.1076 0.61491,4.52805c-0.21492,2.7849 -1.2964,4.96382 -1.2964,4.96382c0,0 0.49457,-5.55627 -0.81218,-8.41393z" fill="#6d6d6d"/><path d="M276.64133,142.85649c0.15893,-0.55336 0.73636,-0.87305 1.28971,-0.71412c0.55336,0.15892 0.87305,0.73635 0.71411,1.28972c-0.15893,0.55336 -0.73635,0.87305 -1.28971,0.71411c-0.55336,-0.15892 -0.87305,-0.73636 -0.71411,-1.28971z" fill="#272727"/><path d="M276.52761,142.96618c0.1458,-0.5075 0.67536,-0.80074 1.1829,-0.65495c0.50751,0.1458 0.80074,0.67536 0.65495,1.1829c-0.1458,0.5075 -0.67536,0.80075 -1.18289,0.65497c-0.50751,-0.1458 -0.80075,-0.67536 -0.65497,-1.18289z" fill="#131313"/></g></g></g></g></g><path d="M160.77476,224.04691c0.43752,-1.52307 8.11341,-43.66796 9.052,-45.14123c1.2673,-1.98923 9.04588,1.65054 12.31109,1.01973c10.0003,-1.93191 20.69833,-3.63141 20.69833,-3.63141c0,0 13.36124,4.44214 17.43307,5.61183c3.04498,0.87472 64.32445,9.6443 62.18731,19.76939c-2.89877,13.73342 -41.49921,-9.54734 -44.84846,2.11181c-0.84787,2.95155 1.41419,3.80479 0.00153,6.67346c-0.33906,0.68848 -4.02923,5.01679 -4.7076,6.56575c-1.07687,2.45881 0.98514,7.21552 -3.05207,9.28039c-3.21821,1.646 -2.74649,7.00123 -3.69605,7.99325c-6.54356,6.83599 -13.49834,0.8799 -22.16086,-1.6085c-10.27066,-2.95036 -26.24433,-3.66508 -34.92154,-7.44509c-3.7456,-1.63171 -9.57041,3.23409 -8.29682,-1.19934z" fill="#86c8f5" stroke-width="0"/><g stroke-width="0"><g><path d="M151.99367,239.68992l1.54114,-5.36496c0,0 2.10508,0.78996 3.1925,0.09968c1.53632,-0.97519 5.33295,-5.23227 5.33295,-5.23227l-1.62557,7.95412c0,0 -3.84354,2.22373 -5.56991,2.66155c-1.24646,0.31606 -2.87105,-0.11814 -2.87105,-0.11814z" fill="#4d484c"/><g><g><path d="M115.97496,217.53412l5.4747,-4.21433c0,0 17.75505,-4.21033 25.18283,-6.12554c5.71366,-1.47325 14.88179,-3.99054 14.88179,-3.99054l-4.74194,26.04992z" fill="#eb59c1"/><path d="M120.45311,207.24649l7.51972,-28.29776c0,0 15.96563,13.70171 21.76294,18.4434c4.20689,3.4408 8.42886,14.29135 8.42886,14.29135l-7.32454,4.29209z" fill="#dd54b6"/><path d="M123.73409,190.52344l8.68706,-29.18074c0,0 8.28134,16.68061 12.52066,18.69506c6.28179,2.98502 19.3746,3.86873 19.3746,3.86873l-7.19337,25.04115z" fill="#ff77d8"/><path d="M129.54127,178.79011l3.87957,-13.50536l32.88345,6.40037l-2.43691,16.96556z" fill="#ee51c1"/></g><g><g><path d="M116.34065,206.70855l6.42168,-40.61212l8.07479,2.31958l-6.42168,40.61212z" fill="#a59da1"/><path d="M122.6758,166.26983c0,0 0.49538,-4.53156 2.5772,-5.26712c2.0819,-0.73561 7.03644,0.42417 7.03644,0.42417l-1.52567,7.16632z" fill="#b9b0b5"/><path d="M115.11247,217.43129l1.29223,-10.73325l8.03622,2.3085l-1.29223,10.73324z" fill="#8b8488"/></g><g><path d="M155.90791,214.5406l6.42167,-40.61212l4.36277,1.25325l-6.42166,40.61214z" fill="#a59da1"/><path d="M162.20748,174.93106l0.99531,-6.41576c0,0 3.00851,0.1563 3.70557,1.55274c0.69708,1.39644 -0.2894,5.2909 -0.2894,5.2909z" fill="#b9b0b5"/><path d="M154.66767,225.25997l1.29223,-10.73325l4.33619,1.24562l-1.29222,10.73326z" fill="#8b8488"/></g><path d="M113.66663,225.93879c0,0 -2.38577,-3.53904 -2.35811,-5.07574c0.0308,-1.71059 2.53463,-4.72224 2.53463,-4.72224l47.0279,8.93676c0,0 1.29148,2.79923 1.28621,4.34421c-0.00738,2.16547 -5.41025,5.72677 -5.41025,5.72677z" fill="#494547"/><path d="M131.51661,165.29502c0,0 -2.06974,-1.18481 -2.32512,-1.85569c-0.28046,-0.7367 1.52696,-2.38432 1.52696,-2.38432c0,0 11.85525,2.35268 17.01627,3.50007c6.01651,1.33758 16.09488,4.04143 16.09488,4.04143c0,0 0.17254,1.32299 -0.07445,1.87359c-0.23918,0.53324 -0.99702,1.491 -0.99702,1.491z" fill="#c2b8bd"/><path d="M114.34501,224.86359c0,0 -0.404,-3.06598 -0.17402,-4.74334c0.19079,-1.39201 1.12695,-3.47175 1.12695,-3.47175l44.22279,8.48266c0,0 1.07906,3.59044 0.61997,5.18847c-0.49314,1.71676 -3.15261,3.62801 -3.15261,3.62801z" fill="#6f696b"/><path d="M123.53572,233.15301l1.54114,-5.36495l29.07847,6.68343l-1.54113,5.36495z" fill="#333032"/><path d="M112.41757,230.08556c-0.88868,-0.9294 -2.09871,-2.80201 -2.09871,-2.80201l1.04682,-6.79441c0,0 1.75017,2.86703 2.53471,4.5089c0.55532,1.16217 11.2528,2.69597 11.2528,2.69597l-1.54113,5.36495c0,0 -10.30586,-2.04395 -11.19446,-2.97339z" data-paper-data="{&quot;index&quot;:null}" fill="#444043"/><g><path d="M126.7165,179.48966c0,0 -1.175,-5.27144 -0.71925,-6.95321c0.31553,-1.16433 3.19117,-2.16863 3.19117,-2.16863l34.53415,6.77364c0,0 0.66931,3.44244 0.26188,4.94582c-0.41638,1.53651 -2.73382,4.176 -2.73382,4.176z" fill="#979797"/><path d="M127.06219,178.47978c0,0 -1.34555,-4.75352 -0.95376,-6.24097c0.27125,-1.02989 3.07873,-1.82724 3.07873,-1.82724l34.37356,7.26119c0,0 0.78179,3.10074 0.43157,4.43053c-0.35791,1.35902 -2.55652,3.63772 -2.55652,3.63772z" fill="#a2a2a2"/></g><g><path d="M124.43819,196.04376c0,0 -1.175,-5.27144 -0.71925,-6.95321c0.31553,-1.16433 3.19116,-2.16864 3.19116,-2.16864l34.53415,6.77364c0,0 0.6693,3.44242 0.26189,4.94581c-0.41638,1.53651 -2.73381,4.176 -2.73381,4.176z" fill="#979797"/><path d="M124.78389,195.03388c0,0 -1.34554,-4.75351 -0.95375,-6.24096c0.27123,-1.02988 3.07873,-1.82724 3.07873,-1.82724l34.37356,7.26121c0,0 0.78179,3.10074 0.43157,4.43053c-0.35792,1.35902 -2.55654,3.63771 -2.55654,3.63771z" fill="#a2a2a2"/></g><g><path d="M122.12601,213.10335c0,0 -1.175,-5.27144 -0.71925,-6.9532c0.31553,-1.16433 3.19116,-2.16864 3.19116,-2.16864l34.53415,6.77364c0,0 0.66929,3.44246 0.26188,4.94582c-0.41638,1.53651 -2.73381,4.176 -2.73381,4.176z" fill="#7a7a7a"/><path d="M122.47168,212.09351c0,0 -1.34555,-4.75351 -0.95376,-6.24097c0.27123,-1.02988 3.07873,-1.82722 3.07873,-1.82722l34.37358,7.2612c0,0 0.78177,3.10075 0.43157,4.43053c-0.35792,1.35902 -2.55653,3.63773 -2.55653,3.63773z" fill="#929292"/></g></g></g></g><path d="M115.84089,210.67875c0,0 0.10338,-1.75617 0.44834,-4.06113c1.01292,-6.76715 6.22545,-40.52621 6.22545,-40.52621l1.85681,5.01041l-4.86026,29.21856z" fill="#777275"/></g></g><g fill="#86c8f5" stroke-width="0"><path d="M321.70176,248.50287c4.93822,0.88458 5.16439,7.71289 3.26001,15.52922c-1.90437,7.81631 -6.4515,13.5364 -10.15633,12.77619c-3.70481,-0.76023 -5.16439,-7.71289 -3.26001,-15.52922c1.90437,-7.81631 4.46715,-13.79531 10.15633,-12.77619z" data-paper-data="{&quot;index&quot;:null}"/><path d="M299.44838,259.03134c1.90437,-7.81631 3.93592,-12.0072 9.62508,-10.9881c4.93822,0.88458 5.69564,5.92483 3.79126,13.74111c-1.90438,7.81633 -6.45149,13.5364 -10.15633,12.77619c-3.70481,-0.76023 -5.16439,-7.71289 -3.26001,-15.52922z" data-paper-data="{&quot;index&quot;:null}"/><path d="M286.48041,263.86745c1.90437,-7.81631 4.71684,-14.98161 10.40603,-13.96252c4.93822,0.88458 4.9147,8.89923 3.01036,16.71556c-1.90437,7.81631 -6.04795,9.4099 -9.75276,8.64969c-3.70482,-0.76022 -5.56794,-3.5864 -3.66361,-11.40268z" data-paper-data="{&quot;index&quot;:null}"/><path d="M284.43362,252.66062c4.93822,0.88458 5.69564,5.92483 3.79126,13.74111c-1.90437,7.81631 -6.04795,9.4099 -9.75276,8.64969c-3.70482,-0.76022 -5.56794,-3.5864 -3.66361,-11.40268c1.90437,-7.81631 3.93592,-12.0072 9.62508,-10.9881z" data-paper-data="{&quot;index&quot;:null}"/></g></g></g></svg>