<svg version="1.1" xmlns="http://www.w3.org/2000/svg" xmlns:xlink="http://www.w3.org/1999/xlink" width="460.92809" height="171.36925" viewBox="0,0,460.92809,171.36925"><defs><linearGradient x1="545.58694" y1="225.94034" x2="544.15934" y2="230.53526" gradientUnits="userSpaceOnUse" id="color-1"><stop offset="0" stop-color="#1f1d20"/><stop offset="1" stop-color="#202022"/></linearGradient><linearGradient x1="547.44724" y1="221.43431" x2="545.80462" y2="226.72122" gradientUnits="userSpaceOnUse" id="color-2"><stop offset="0" stop-color="#302d31"/><stop offset="1" stop-color="#1f1e20"/></linearGradient><linearGradient x1="213.47566" y1="168.00799" x2="212.46982" y2="171.24536" gradientUnits="userSpaceOnUse" id="color-3"><stop offset="0" stop-color="#585758"/><stop offset="1" stop-color="#575758"/></linearGradient><linearGradient x1="197.96262" y1="173.74192" x2="197.17299" y2="176.28346" gradientUnits="userSpaceOnUse" id="color-4"><stop offset="0" stop-color="#363536"/><stop offset="1" stop-color="#353536"/></linearGradient><linearGradient x1="362.40781" y1="127.65658" x2="360.76455" y2="132.94564" gradientUnits="userSpaceOnUse" id="color-5"><stop offset="0" stop-color="#5e555b"/><stop offset="1" stop-color="#2b2629"/></linearGradient><linearGradient x1="359.2216" y1="105.02515" x2="358.03591" y2="108.84138" gradientUnits="userSpaceOnUse" id="color-6"><stop offset="0" stop-color="#72676e"/><stop offset="1" stop-color="#5e555b"/></linearGradient><linearGradient x1="247.22754" y1="84.78341" x2="245.46865" y2="90.4445" gradientUnits="userSpaceOnUse" id="color-7"><stop offset="0" stop-color="#5e555b"/><stop offset="1" stop-color="#4d454a"/></linearGradient><linearGradient x1="251.45625" y1="71.17293" x2="250.22128" y2="75.14774" gradientUnits="userSpaceOnUse" id="color-8"><stop offset="0" stop-color="#74686f"/><stop offset="1" stop-color="#5e555b"/></linearGradient></defs><g transform="translate(-89.96893,-64.29016)"><g data-paper-data="{&quot;isPaintingLayer&quot;:true}" fill-rule="nonzero" stroke="none" stroke-linecap="butt" stroke-linejoin="miter" stroke-miterlimit="10" stroke-dasharray="" stroke-dashoffset="0" style="mix-blend-mode: normal"><path d="M206.18784,216.50526c-2.33294,8.35389 -7.97571,12.16097 -24.77116,7.47058c-6.2298,-1.73975 -16.5349,-6.25096 -21.60992,-6.93638c-3.77178,-0.50942 -7.4563,0.7604 -9.2428,-1.69616c-2.29025,-3.14926 3.15077,-22.24044 3.97524,-25.19274c2.33294,-8.35389 25.83021,-9.0828 42.62562,-4.39241c16.79543,4.69038 11.35594,22.39323 9.023,30.74712z" fill="#86c8f5" stroke-width="0"/><g><g><g stroke-width="0"><path d="M276.54708,171.90551l-5.21652,-17.68961l24.59889,7.02472c0,0 -2.77842,5.24043 -3.77,7.75812c-0.95916,2.43546 -2.08536,7.10955 -2.08536,7.10955z" fill="#7f7d7e"/><path d="M276.58268,172.12262l-1.8121,-6.43432c0,0 1.19756,4.09478 4.10557,5.64198c2.09406,1.11413 3.98725,1.37778 6.45276,2.47973c2.46551,1.10195 4.5929,2.45706 4.5929,2.45706z" fill="#6c6a6b"/></g><g><g><g><path d="M541.30291,229.64779l-0.53865,-5.20582c0,0 5.22978,3.36088 7.44531,4.9842c2.21551,1.62331 0.40921,2.2518 0.40921,2.2518z" fill="url(#color-1)" stroke-width="0"/><path d="M550.81115,222.68849c0,0 0.72232,2.66197 -2.02296,2.744c-2.74534,0.08203 -5.88053,0.38865 -5.88053,0.38865l0.71567,-5.57493z" data-paper-data="{&quot;index&quot;:null}" fill="url(#color-2)" stroke-width="0"/><path d="M532.1195,226.78974l0.62262,-2.00386l14.10734,4.38307c0,0 0.96527,1.13167 1.32246,1.62618c0.32108,0.44455 -0.98035,0.67745 -0.98035,0.67745z" fill="#444444" stroke-width="NaN"/><path d="M532.73171,224.93286l-0.61667,-2.02819l12.04757,3.74311l2.75396,2.57516c0,0 -4.09854,-1.02418 -6.30473,-1.69142c-2.48812,-0.75253 -7.88016,-2.59869 -7.88016,-2.59869z" fill="#535353" stroke-width="0"/><path d="M531.96741,223.00195l-0.12024,-0.70752l10.9571,3.4043l1.4536,1.00213z" fill="#363636" stroke-width="0"/><path d="M532.1195,226.78974l0.33775,-1.08709c0,0 6.02841,2.348 8.77852,3.20243c2.33047,0.72405 6.67262,1.59817 6.67262,1.59817c0,0 0.68807,0.69783 0.86405,0.96494c0.14848,0.22536 -0.37789,0.37817 -0.37789,0.37817c0,0 -4.63964,-1.01798 -6.84919,-1.70444c-2.98099,-0.92618 -9.42585,-3.35214 -9.42585,-3.35214z" fill="#3a3a3a" stroke-width="NaN"/><path d="M532.14822,222.40708l-0.26638,-1.00815l13.02735,4.04752l-2.01185,0.33585z" fill="#242424" stroke-width="0"/><path d="M531.05403,221.33988l0.49084,-1.57982c0,0 7.79008,2.2044 10.65092,3.09327c1.94911,0.60561 4.85445,1.72417 4.85445,1.72417l-2.17389,0.88416z" fill="#3a3a3a" stroke-width="0"/><path d="M531.40849,219.76228l0.60604,-1.95056c0,0 7.40653,1.95572 10.57156,2.93907c2.73883,0.85095 7.32562,2.6215 7.32562,2.6215l-2.91533,1.23309c0,0 -3.46587,-1.16316 -5.6092,-1.82912c-2.84903,-0.88516 -9.97865,-3.01398 -9.97865,-3.01398z" fill="#444444" stroke-width="0"/><path d="M531.94809,217.88013l0.25253,-0.81274c0,0 7.55597,2.21804 10.9912,3.28538c2.39201,0.74319 7.64823,2.50578 7.64823,2.50578l-1.0786,0.55608c0,0 -4.74076,-1.77521 -7.57246,-2.65499c-3.11978,-0.96933 -10.24091,-2.87952 -10.24091,-2.87952z" fill="#535353" stroke-width="0"/><path d="M532.05162,217.11024l0.10103,-0.32511c0,0 7.48108,1.7934 10.78563,2.82009c2.85704,0.88769 7.89505,2.98391 7.89505,2.98391l-0.06512,0.33626c0,0 -5.68935,-1.94037 -8.78826,-2.9032c-3.1394,-0.97542 -9.92828,-2.91193 -9.92828,-2.91193z" fill="#4e4e4e" stroke-width="0"/></g><g stroke-width="0"><g><g><g><path d="M526.67413,224.58688l-0.46977,-13.93032l1.03884,-1.47976c0,0 2.36021,4.11479 2.50214,6.7667c0.07705,1.4397 -1.68215,9.07493 -1.68215,9.07493z" fill="#383638"/><path d="M527.88308,224.23849c0,0 0.23664,-0.5649 0.3647,-3.09579c0.13966,-2.75999 -0.11099,-6.64643 -0.16776,-7.78868c-0.12749,-2.56399 -0.80967,-2.91259 -0.80967,-2.91259l4.75646,0.86858l0.71794,14.43897z" fill="#555355"/><path d="M527.30614,210.54197l-0.18878,-1.35332c0,0 2.16658,-0.16459 3.08491,0.12073c0.86052,0.26736 1.72887,1.29873 1.72887,1.29873l0.16719,1.42277z" fill="#686668"/></g><path d="M521.25686,222.90376l-0.46977,-13.9303l0.71694,-1.55867c0,0 2.68214,4.19369 2.82404,6.84557c0.07705,1.43969 -1.68214,9.07493 -1.68214,9.07493z" fill="#383638"/><path d="M522.46582,222.55535c0,0 0.23665,-0.56491 0.36471,-3.09579c0.13966,-2.75999 -0.11098,-6.64642 -0.16775,-7.78868c-0.12749,-2.56399 -0.80968,-2.91259 -0.80968,-2.91259l4.1886,0.16855c0,0 0.60777,1.50223 0.64663,2.28372c0.11073,2.22657 0.63921,12.85525 0.63921,12.85525z" fill="#555355"/><path d="M521.88889,208.85881l-0.39715,-1.41807c0,0 2.37495,-0.09985 3.29327,0.18549c0.86052,0.26736 1.45106,1.21239 1.45106,1.21239l0.28659,1.45987z" fill="#686668"/><path d="M528.95944,223.53229c0.24314,-0.78261 1.0747,-1.21991 1.85734,-0.97678c0.78263,0.24314 1.21991,1.0747 0.97677,1.85733c-0.24314,0.78261 -1.0747,1.21992 -1.85732,0.97678c-0.78263,-0.24314 -1.2199,-1.0747 -0.97678,-1.85733z" fill="#312f31"/><path d="M530.45467,220.92942l-0.26367,-5.88999l1.56223,0.33527l0.24453,5.95161z" fill="#444144"/></g><path d="M485.16907,206.49083l-0.38378,-11.45315l28.18765,9.98972l-3.31171,9.07303z" fill="#444444"/><path d="M498.40247,206.50226c0,0 0.76221,-0.30973 1.77979,-1.15058c0.93042,-0.76876 2.09822,-2.05824 2.60314,-2.38699c1.43768,-1.34029 3.5706,-0.18875 3.5706,-0.18875l-1.12923,0.33301l-5.73291,3.7324z" fill="#292929"/><path d="M497.95163,217.38812l-2.96568,-12.4102c0,0 3.18354,1.54546 5.12173,1.04908c1.50613,-0.38576 2.19713,-2.92712 3.7868,-2.72736c4.56087,0.57312 16.98439,3.97869 16.98439,3.97869c0,0 0.97432,7.78459 1.00319,10.81676c0.01994,2.09329 -0.90207,6.44781 -0.90207,6.44781z" fill="#4a464a"/><path d="M505.79182,206.09736c-4.16672,-1.96063 -2.38608,-2.83565 -2.38608,-2.83565c0,0 1.1434,-1.0084 2.96999,-0.59393c4.48246,1.0171 12.56514,4.13245 14.21742,4.61895c0.77922,0.22943 0.12452,0.7673 0.12452,0.7673c0,0 -2.13023,1.83661 -3.68642,1.61914c-1.55619,-0.21747 -7.07274,-1.61517 -11.23945,-3.57583z" fill="#5e595e"/></g><g><path d="M484.72832,220.16506l0.39264,-18.65921l17.97139,5.88342l3.29911,5.55748l5.85381,1.71556l-1.14745,13.69563z" fill="#4d4846"/><path d="M489.09277,221.92644l22.51256,-2.83985l21.38843,6.39143c0,0 0.01186,4.3838 -0.25355,5.71977c-0.13533,0.68115 -1.0215,2.76552 -1.0215,2.76552z" fill="#423d3b"/><path d="M487.91665,212.85812l-0.11491,-10.34614l0.78356,0.24345l0.11492,10.34614z" fill="#363332"/><path d="M489.88982,221.33469l0.36121,-1.16257c0,0 5.78266,-0.86884 14.43934,1.82073c1.15018,0.35737 4.45194,4.04867 5.61123,4.40887c7.35531,2.28524 14.55467,4.52205 17.29363,5.37302c2.2306,0.69304 4.8941,0.15927 4.8941,0.15927l-0.74694,2.40402z" fill="#312e2c"/><path d="M495.93305,209.87132l-0.29569,-4.92488l7.93359,2.46492l2.65608,5.45504l5.96496,2.05649l-7.82615,-0.39092z" fill="#585350"/><path d="M484.78852,213.76572l0.33476,-1.07739c0,0 8.79428,-1.1878 11.54193,-0.33411c4.14109,1.28663 15.57335,4.83856 15.57335,4.83856l-0.33475,1.07739c0,0 -11.62825,-3.61282 -15.76925,-4.89942c-2.69121,-0.83615 -11.34605,0.39498 -11.34605,0.39498z" fill="#2b2827"/></g></g></g><g><g><g><path d="M152.56928,155.21221c-0.1464,2.29384 -1.2102,4.67498 -2.33043,4.60346c-1.12023,-0.07149 -1.87273,-2.5685 -1.72634,-4.86237c0.1464,-2.29384 0.65114,-11.11155 1.77141,-11.04006c1.12023,0.07149 2.4318,9.0051 2.28538,11.299z" fill="#615e5f" stroke-width="0"/><g><path d="M201.16886,138.97165c-0.3585,-0.66389 -2.20437,-2.61165 -2.20437,-2.61165l10.32781,0.19299l-7.86606,5.09558c0,0 0.10114,-2.01303 -0.25734,-2.6769z" fill="#756a6a" stroke-width="0"/><path d="M193.0523,134.67267l4.07474,-13.11491l19.43944,-0.10357l-5.81538,18.7174z" fill="#8a7c7c" stroke-width="0"/><path d="M153.20317,127.99565l11.74669,-15.33876l33.39984,10.23755l0.57094,13.44133c0,0 -22.42228,-5.31612 -30.04867,-6.70739c-3.16577,-0.57753 -15.66881,-1.63271 -15.66881,-1.63271z" fill="#7c787a" stroke-width="0"/><path d="M164.34935,114.98855l0.29809,-1.45874c0,0 24.75683,7.69179 32.53969,10.10987c4.35451,1.35293 17.3111,-1.29228 17.3111,-1.29228l-0.4835,1.55626c0,0 -12.66993,2.71409 -16.87697,1.39163c-7.71413,-2.42489 -32.78841,-10.30674 -32.78841,-10.30674z" fill="#535353" stroke-width="0"/><path d="M122.3582,119.15352l5.97977,-19.24644c0,0 6.42008,-5.39206 14.0193,-5.43529c9.43851,-0.05365 25.03713,6.66205 27.01454,7.27641c1.51746,0.47146 -15.41703,6.11788 -15.41703,6.11788l-5.97977,19.24646z" fill="#8d898b" stroke-width="0"/><path d="M301.20844,126.40265l2.46337,-2.52716l102.67908,32.0514l-4.37526,14.08221c0,0 -36.62695,-9.44723 -48.17397,-13.47057c-5.7346,-1.99811 -52.59318,-30.13589 -52.59318,-30.13589z" fill="#c98cac" stroke-width="0"/><path d="M250.55279,216.4269l-0.50077,-13.70201c0,0 3.1741,7.10101 5.57401,8.97428c1.52904,1.19352 5.45162,2.81201 12.01042,2.29744c5.28008,-0.41424 11.85108,-4.14332 11.85108,-4.14332l-15.56161,10.72857z" fill="#a08e97" stroke-width="0"/><path d="M350.8879,198.47216l4.7759,-23.25141l18.1284,4.16349l-6.28923,20.24252c0,0 -6.61938,-0.25641 -9.46715,-0.41c-1.31124,-0.07072 -7.14787,-0.74457 -7.14787,-0.74457z" fill="#96858d" stroke-width="0"/><path d="M247.68649,219.45883l1.64379,-5.29069c0,0 10.90627,5.5546 16.24389,3.94447c2.59767,-0.7836 24.90132,-15.77352 37.2181,-24.12726c4.80659,-3.26003 8.09224,-5.50942 8.09224,-5.50942c0,0 4.32759,-2.60656 5.18661,-5.35778c0.43211,-1.384 2.12072,-5.2351 2.01242,-7.6891c-0.10928,-2.47592 -2.01744,-3.54873 -2.01744,-3.54873l-0.62582,-14.40672l18.88107,6.01669l-10.66279,24.5135l2.82885,3.56158c0,0 -10.90502,2.8949 -16.79583,6.25405c-9.21701,5.25577 -40.56838,27.33274 -40.56838,27.33274z" fill="#918189" stroke-width="0"/><path d="M328.64686,191.93136l9.6458,-26.95575l13.0735,4.35064l6.33591,14.53664l-6.9843,14.92583z" fill="#96858d" stroke-width="0"/><path d="M323.77739,192.35482l-1.16623,-4.7036l11.15025,-23.96053l4.87623,1.42631l-9.12699,27.09896z" fill="#8f8187" stroke-width="0"/><path d="M349.50831,198.52138c0,0 4.60597,-5.5504 4.91959,-11.11892c0.18055,-3.20634 -3.92477,-6.54444 -3.81408,-8.51003c0.21149,-3.75477 0.53862,-9.56348 0.53862,-9.56348l6.2066,6.49809c0,0 1.11242,7.89954 0.41883,12.14649c-0.46596,2.85333 -3.77462,8.50199 -5.43062,10.7089c-0.1396,0.18604 -1.2381,-0.24245 -1.33645,-0.09989c-0.24026,0.34825 0.61189,0.85523 0.61189,0.85523z" fill="#86787e" stroke-width="0"/><path d="M356.70905,177.19575c0,0 -1.7782,-4.69389 -5.96157,-7.0111c-4.73603,-2.62332 -21.003,-7.92461 -21.003,-7.92461l154.84218,33.25809l0.50183,9.89634l4.25524,12.99018c0,0 -95.49023,-32.36099 -115.15148,-38.46962c-6.41576,-1.99334 -17.48319,-2.73926 -17.48319,-2.73926z" fill="#df8db7" stroke-width="0"/><path d="M195.4076,176.59007l6.17941,-36.06019c0,0 2.72026,-3.08235 3.26286,-3.13961c5.98228,-0.63131 39.73671,-1.2981 44.84608,0.58914c5.59704,2.06736 -12.3797,8.97312 -12.3797,8.97312c0,0 -14.36203,-2.34073 -18.04644,0.96481c-5.00229,4.48799 -5.52206,22.49833 -5.52206,22.49833z" fill="#c77da3" stroke-width="0"/><path d="M273.44681,169.49626l-1.08427,-2.54142c0,0 8.81724,-6.27291 11.8215,-7.74035c3.1016,-1.515 6.50536,-1.2115 6.50536,-1.2115l4.98512,3.95958c0,0 -4.12539,-1.80802 -6.89193,-0.87035c-2.37496,0.80495 -6.87156,2.63172 -10.46318,4.75396c-2.61265,1.54379 -4.8726,3.65005 -4.8726,3.65005z" fill="#414041" stroke-width="0"/><path d="M164.3548,113.89459l8.05217,-9.73895l46.43867,14.42824c0,0 -4.09002,3.39488 -7.65249,4.34685c-3.49646,0.93435 -13.528,1.3132 -13.528,1.3132z" fill="#979395" stroke-width="0"/><path d="M165.45786,113.04051l7.28822,-9.97633l46.43867,14.42825c0,0 -4.09003,3.39487 -7.6525,4.34684c-3.49646,0.93435 -13.52801,1.3132 -13.52801,1.3132z" fill="#bdb7ba" stroke-width="0"/><path d="M351.7129,199.54216l-1.63621,-1.04606l17.32885,1.01232c0,0 -4.01049,0.90839 -6.61903,0.93239c-2.60856,0.02405 -9.07359,-0.89866 -9.07359,-0.89866z" fill="#887980" stroke-width="0"/><path d="M197.64355,177.77114c0,0 0.87032,-10.68857 2.25669,-19.19889c1.39317,-8.55187 2.72395,-16.56455 3.76646,-19.99437c0.17663,-0.58106 4.69696,-9.57556 5.32894,-9.92519c3.41122,-1.8873 8.50688,7.80463 14.14787,8.40165c8.35242,0.88401 26.75297,6.06262 26.75297,6.06262l-9.64872,2.56329c0,0 -19.42387,-3.03467 -23.23207,1.16162c-5.15094,5.67591 -4.1141,27.85505 -4.1141,27.85505z" fill="#d486ae" stroke-width="0"/><path d="M199.7682,174.74647c0,0 5.7656,-41.0075 10.02262,-50.23702c1.99182,-4.31838 1.49041,-14.01151 1.49041,-14.01151l46.31805,21.68802l-3.40823,15.76884c0,0 -29.68164,-12.46099 -37.60761,-8.35373c-5.29086,2.74172 -7.16821,31.73328 -7.16821,31.73328z" fill="#e490bb" stroke-width="0"/><g stroke-width="0"><path d="M350.64934,155.66026l2.4552,-7.90226l8.9385,2.77715l-2.4552,7.90227z" fill="#454545"/><path d="M351.67112,155.17687l1.82468,-7.0753l10.81616,3.36051l-2.16538,6.96945z" fill="#b0b0b0"/><path d="M352.78286,150.82155l0.62149,-2.77067l11.02305,3.42479l-0.56593,1.8215c0,0 -7.53761,-2.00424 -9.20159,-2.37608c-0.55601,-0.12423 -1.87705,-0.09957 -1.87705,-0.09957z" fill="#bebebe"/><path d="M362.55168,157.98194c0,0 -4.53301,-4.08423 -2.87577,-7.49374c2.46264,-5.06648 6.2564,-3.38714 6.2564,-3.38714l38.03467,13.21336l-2.98503,9.60757z" fill="#9c989a"/><path d="M364.64101,157.28105c0,0 -1.33069,-4.09832 -1.28887,-5.05585c0.06201,-1.41937 2.84443,-3.65165 2.84443,-3.65165l39.71278,12.37347l-2.60389,7.03278z" fill="#898587"/><path d="M364.4959,157.44359l-0.39825,-2.15459l36.51014,11.34351l-0.57542,1.85206z" fill="#c1bcbf"/><path d="M365.38719,154.16652c0,0 -0.86741,-1.702 -0.58931,-2.59713c0.26017,-0.83731 2.20769,-2.61181 2.20769,-2.61181l36.92549,11.47254l-1.61838,5.20891z" fill="#0d0d0d"/><path d="M365.15654,154.90881c0,0 -0.68827,-2.27856 -0.41015,-3.17371c0.26017,-0.83731 2.02853,-2.03522 2.02853,-2.03522l36.92549,11.47254l-1.61837,5.20892z" fill="#2e2e2e"/><path d="M359.98315,155.29451c-1.61002,-3.7118 0.19591,-5.59742 0.19591,-5.59742c0,0 0.52961,4.47079 1.44314,5.69454c1.0816,1.44887 4.12358,3.82438 4.12358,3.82438l-3.37159,-0.97405c0,0 -2.10771,-2.29421 -2.39105,-2.94742z" fill="#7d7a7c"/><path d="M367.54761,155.97599c0,0 -0.19258,-2.37614 0.14673,-3.4682c0.29825,-0.95996 1.78183,-2.7391 1.78183,-2.7391l4.60614,1.43111c0,0 -1.09428,1.96793 -1.35189,2.79704c-0.35407,1.13955 -0.57668,3.41024 -0.57668,3.41024z" fill="#555555"/><path d="M375.77627,158.5326c0,0 1.38524,-2.21169 1.72455,-3.30374c0.29825,-0.95996 0.20403,-2.90356 0.20403,-2.90356l5.14092,1.59725c0,0 -0.90678,1.51422 -1.16439,2.34335c-0.35407,1.13955 -0.76417,3.86393 -0.76417,3.86393z" fill="#555555"/><path d="M384.68294,161.29987c0,0 1.38526,-2.2117 1.72458,-3.30374c0.29825,-0.95996 0.20402,-2.90355 0.20402,-2.90355l5.06452,1.5735c0,0 -0.90678,1.51422 -1.16439,2.34335c-0.35407,1.13955 -0.76417,3.86392 -0.76417,3.86392z" fill="#555555"/><path d="M393.9111,164.16701c0,0 1.44954,-1.81936 1.78883,-2.91146c0.29825,-0.95996 0.13973,-3.29583 0.13973,-3.29583l4.91174,1.52604c0,0 0.20249,2.13809 -0.05511,2.96726c-0.35407,1.13955 -1.87346,3.24005 -1.87346,3.24005z" fill="#555555"/><path d="M369.01312,150.362l-0.3978,-0.96132l33.9612,10.55156l-1.70252,0.30876c0,0 -2.70263,-0.8397 -5.05397,-1.57024c-0.51251,-0.15925 -1.38485,-0.77451 -2.15252,-1.01306c-0.74228,-0.23064 -1.37261,-0.0822 -2.29529,-0.36888c-1.43883,-0.44705 -3.06224,-0.95143 -4.76176,-1.47945c-0.7046,-0.21892 -1.20391,-0.77571 -1.92696,-1.00033c-0.64296,-0.19974 -1.50856,-0.06708 -2.15455,-0.26777c-1.60326,-0.49813 -3.19076,-0.99136 -4.68329,-1.45507c-0.68538,-0.21295 -1.22067,-0.8383 -1.85835,-1.03643c-0.77846,-0.24189 -1.64576,-0.0523 -2.3278,-0.26421c-2.78226,-0.86442 -4.64637,-1.4436 -4.64637,-1.4436z" fill="#474747"/></g><g><path d="M208.52543,170.73525l4.40048,-1.63545c0,0 1.86253,3.52629 4.30335,5.22184c2.15886,1.49962 9.59993,4.4359 9.59993,4.4359l-3.82746,3.37047z" fill="#6d6a6b" stroke-width="0"/><path d="M198.90072,174.55163l11.00699,-4.31361c0,0 2.41956,3.11468 4.29426,4.39028c2.83618,1.92973 11.06696,6.06162 11.06696,6.06162l-5.36313,2.84415z" fill="#615e5f" stroke-width="0"/><path d="M194.29171,196.12285l5.28102,-21.99671c0,0 3.92318,2.04819 8.51859,3.50698c3.58691,1.13863 7.70374,1.53064 9.89515,2.84854c3.84718,2.31364 32.19757,24.06029 32.19757,24.06029l-0.65203,10.45202z" fill="#575455" stroke-width="0"/><path d="M222.93432,176.70493c8.27233,-3.25748 19.96968,-13.70956 21.9343,-15.7918c1.41536,-1.50009 3.6373,-6.33456 3.6373,-6.33456l5.33482,8.79365c0,0 -0.49504,21.30943 -3.11997,33.73699c-0.73447,3.47734 0.49907,7.99184 -1.06885,9.04029c-1.40483,0.93939 -18.28179,-1.90632 -23.20619,-4.23714c-10.36327,-4.90509 -16.72216,-3.9597 -18.73304,-10.10859c-2.01091,-6.14887 6.63055,-10.02995 6.63055,-10.02995c0,0 6.43751,-4.22086 8.59112,-5.06893z" fill="#504e4f" stroke-width="0"/><path d="M237.26294,146.78368c0,0 0.82092,-1.30812 1.8362,-1.6875c1.30572,-0.48789 5.34835,-0.99704 5.34835,-0.99704c0,0 8.33177,4.75347 10.46768,8.02451c1.97069,3.01795 -7.07766,10.97269 -7.07766,10.97269l-0.32542,-5.71529z" fill="#464445" stroke-width="0"/><path d="M245.43861,198.77823c0,0 -10.72229,3.21942 -18.87548,0.86575c-7.86543,-2.27057 -13.18206,-10.09205 -12.65788,-11.41851c0.28399,-0.71866 8.83566,-1.52287 13.40815,-4.52272c5.08278,-3.33461 6.30801,-8.92432 8.19455,-10.44342c5.26669,-4.24103 16.3514,-11.45554 17.13131,-17.54183c0.81792,-6.38284 -8.80168,-11.54326 -8.80168,-11.54326c0,0 4.34588,-1.00763 9.14557,0.34764c2.04448,0.57729 5.97613,3.25 6.74361,3.89159c2.51683,2.10384 3.93242,4.25709 3.93242,4.25709c0,0 4.94153,-3.5741 8.47325,-2.80087c3.53173,0.77323 20.6352,9.1738 20.6352,9.1738l-19.21725,7.21716z" fill="#555354" stroke-width="0"/><path d="M234.95293,173.70993c0,0 7.63872,-9.01219 13.76864,-12.79882c6.12995,-3.78663 10.96836,-5.61382 14.34163,-4.56575c2.44276,0.75894 3.02669,9.962 3.02669,9.962l-19.11407,24.18719c0,0 -14.9357,-1.2067 -15.61038,-4.01398c-0.53289,-2.21718 3.58751,-12.77062 3.58751,-12.77062z" fill="#585758" stroke-width="0"/><path d="M248.39274,206.47261c0,0 -0.91164,-6.76623 0.29663,-9.55556c1.68793,-3.89665 6.82129,-15.55239 6.82129,-15.55239l-1.22774,10.54634c0,0 -3.50375,9.11854 -4.27598,12.05134c-0.74511,2.82968 -0.02983,5.32464 -0.02983,5.32464z" fill="#3f3e3f" stroke-width="0"/><path d="M252.8066,189.13631c0.31026,-1.65737 2.85301,-8.94189 2.85301,-8.94189c0,0 13.45014,-11.07603 16.24026,-12.98734c0.81797,-0.56031 4.53608,-1.21768 4.53608,-1.21768l-3.01231,4.14688c0,0 -1.68217,0.10983 -1.99566,0.51281c-0.33399,0.42933 0.04929,1.98909 0.04929,1.98909l-7.41398,6.57649c0,0 -1.87613,0.47534 -2.19718,0.90479c-0.32116,0.42954 0.07204,1.48174 0.07204,1.48174c0,0 -6.33368,7.39502 -7.85469,9.45108c-0.70324,0.95064 -0.90383,2.3885 -0.90383,2.3885c0,0 -0.68325,-2.64709 -0.37297,-4.30449z" fill="#474647" stroke-width="0"/><path d="M246.493,165.21761l17.66707,14.1127c0,0 -1.43575,0.61395 -1.82219,1.05834c-0.28517,0.32791 -0.28633,1.36643 -0.28633,1.36643z" fill="#3f3e3e" stroke-width="NaN"/><path d="M255.29457,157.11107l18.35319,13.09392c0,0 -1.31502,0.4745 -1.68158,0.94316c-0.38213,0.48858 -0.34948,1.62884 -0.34948,1.62884z" fill="#3f3e3e" stroke-width="NaN"/><path d="M234.90524,180.80861c0,0 7.92842,10.51908 11.76826,17.97156c3.83986,7.45251 1.62849,8.02916 1.62849,8.02916z" fill="#636162" stroke-width="NaN"/><path d="M254.43475,162.73249c0,0 -6.59207,0.99289 -10.1362,3.13365c-3.54413,2.14077 -16.30437,15.12226 -15.4304,12.30935c0.87395,-2.81289 19.55283,-18.70767 21.26696,-18.17511c0.64886,0.2016 3.88731,0.01164 4.59842,0.48125c1.16741,0.77097 -0.29876,2.25083 -0.29876,2.25083z" fill="#918f91" stroke-width="0"/><path d="M193.89445,195.86392l13.87523,2.33362c0,0 12.1273,3.41992 15.07674,4.49868c7.18275,2.62706 28.17625,11.32088 28.17625,11.32088l-2.30236,5.9038c0,0 -24.32186,-3.82307 -30.51547,-7.12507c-1.7918,-0.95526 -7.16315,-3.27131 -10.82606,-5.82534c-7.16816,-4.99807 -13.4843,-11.10659 -13.4843,-11.10659z" fill="#626061" stroke-width="0"/><path d="M247.86496,219.28672c0,0 1.31229,-4.08734 1.57777,-6.45504c0.29843,-2.66118 0.12565,-8.73482 0.12565,-8.73482l1.70207,0.52882c0,0 0.31939,4.76621 0.04922,7.17538c-0.29538,2.63405 -1.75265,8.01448 -1.75265,8.01448z" fill="#4a494a" stroke-width="0"/><path d="M247.43037,220.02745l1.09222,-3.21801c0,0 0.46269,0.42095 0.722,0.50151c0.30808,0.09573 0.96593,0.02293 0.96593,0.02293l-0.77658,3.08507c0,0 -0.86252,0.15886 -1.22759,0.08751c-0.27974,-0.05464 -0.77591,-0.47902 -0.77591,-0.47902z" fill="#363536" stroke-width="0"/><path d="M249.52684,205.15761l0.11237,-1.66213c0,0 0.50373,-0.21462 0.87319,-0.16184c0.35185,0.05026 0.81433,0.32248 0.81433,0.32248l-0.03617,1.80703c0,0 -0.61068,0.34166 -0.91288,0.28927c-0.28468,-0.0493 -0.85085,-0.59479 -0.85085,-0.59479z" fill="#585758" stroke-width="0"/><path d="M208.02936,206.45849c0,0 -6.66352,-5.16238 -6.2591,-6.46401c0.40645,-1.30813 6.71015,-0.57563 6.71015,-0.57563c0,0 10.52252,3.01718 15.20509,4.65276c2.6215,0.91568 10.49861,4.32535 10.49861,4.32535c0,0 6.65067,3.17025 7.08734,4.51195c0.47631,1.46352 -4.05692,3.03068 -4.05692,3.03068c0,0 -12.53842,-2.52797 -16.26289,-3.9032c-1.32306,-0.48855 -12.92221,-5.57782 -12.92221,-5.57782z" fill="#6b696a" stroke-width="0"/><path d="M200.16161,196.78711l-1.94182,-0.36161c0,0 1.61728,-3.09416 3.84624,-1.10086c2.22898,1.99333 20.64864,6.6571 20.64864,6.6571z" fill="#4b4949" stroke-width="0"/><path d="M194.00681,195.74798c0,0 -1.96466,-0.40978 -1.39483,-4.04725c0.28845,-1.84125 2.83766,-15.9106 2.83766,-15.9106l4.42789,-1.66009c0,0 -1.12727,5.92611 -1.79149,8.75887c-0.88342,3.76749 -3.19766,13.13296 -3.19766,13.13296z" fill="#3f3d3e" stroke-width="0"/><path d="M200.41969,197.04103c0,0 3.68925,-1.11365 19.12261,3.32837c1.27451,0.36686 -1.70485,-0.56321 7.12111,2.71019c8.82594,3.27339 12.10937,5.87753 12.10937,5.87753c0,0 -14.07048,-5.49142 -19.99397,-7.33181c-6.75209,-2.09783 -18.35913,-4.58427 -18.35913,-4.58427z" fill="#838082" stroke-width="0"/><path d="M214.03489,170.24176c0,0 -4.82281,0.79215 -7.37927,1.68962c-2.87339,1.00872 -9.02157,4.06805 -9.02157,4.06805l-0.27393,-1.76227c0,0 4.73656,-2.56378 7.33779,-3.47698c2.84403,-0.99841 9.06304,-2.28071 9.06304,-2.28071z" fill="#4a494a" stroke-width="0"/><path d="M215.00333,170.2727l-3.89932,0.54832c0,0 0.28385,-0.58872 0.24212,-0.85717c-0.04959,-0.31898 -0.43982,-0.86749 -0.43982,-0.86749l3.53759,-0.78757c0,0 0.57675,0.68883 0.67867,1.04666c0.07811,0.27422 -0.11922,0.91722 -0.11922,0.91722z" fill="url(#color-3)" stroke-width="0"/><path d="M198.74218,175.52875l-3.62803,1.73132l0.51025,-2.12703l2.58517,-1.31438c0,0 0.64342,0.37806 0.73467,0.67102c0.08598,0.27602 -0.20207,1.03907 -0.20207,1.03907z" fill="url(#color-4)" stroke-width="0"/></g><path d="M330.06906,191.22503c0,0 2.19668,-3.94453 3.08948,-5.12174c0.60606,-0.79914 3.29735,-1.46213 3.29735,-1.46213l16.31778,4.84134c0,0 -2.93985,5.15771 -3.70913,6.34942c-0.33701,0.52204 -1.56046,0.8672 -1.56046,0.8672z" fill="#665b60" stroke-width="0"/><path d="M289.0608,159.3666c0,0 -3.15977,-2.61785 -7.52444,-5.1805c-2.77459,-1.6291 -6.68417,-3.43726 -8.49279,-3.8884c-5.25815,-1.31169 -9.17839,2.81596 -9.17839,2.81596c0,0 -2.43878,-3.18266 -4.19789,-4.62419c-1.64208,-1.34562 -5.50219,-3.59308 -5.50219,-3.59308c0,0 24.96412,2.42487 28.81399,3.01355c7.38051,1.1285 32.74412,9.41871 32.74412,9.41871l1.70504,15.48909z" fill="#8b7c84" stroke-width="0"/><g stroke-width="0"><path d="M331.73794,190.75633c0,0 1.22061,-2.33947 1.87798,-3.07218c0.68163,-0.75975 3.07928,-1.11687 3.07928,-1.11687l13.87573,4.31109c0,0 0.07727,1.05331 -0.36641,1.68804c-0.60327,0.86302 -4.06995,2.66284 -4.06995,2.66284z" fill="#585852"/><path d="M331.95908,190.04456c0,0 0.99945,-1.62764 1.65683,-2.36036c0.68163,-0.75975 3.30044,-1.82866 3.30044,-1.82866l13.87573,4.3111c0,0 -0.14387,1.76513 -0.58759,2.39985c-0.60327,0.86302 -3.84879,1.95101 -3.84879,1.95101z" fill="#797971"/><path d="M348.96032,190.11644c-0.94883,-0.48113 -11.96752,-4.18875 -11.96752,-4.18875l13.85676,4.30522l-0.73045,2.35097c0,0 -0.20995,-1.98631 -1.15879,-2.46745z" fill="#85857b"/></g><path d="M338.49528,173.831l1.53983,-4.95606l6.81457,2.11725l-0.30079,5.34103z" fill="#7c6e75" stroke-width="0"/><path d="M336.38062,145.50442l-1.57606,-9.00436l1.31719,0.40927l3.29041,10.0099z" fill="#d495b6" stroke-width="0"/><path d="M301.39691,126.64642l13.54048,0.97161l20.04949,8.96496l1.42168,8.91558z" fill="#df9cbe" stroke-width="0"/><path d="M337.15849,178.68026l0.48121,-1.54874l10.37675,3.22399l0.44805,1.83749z" fill="#7c6e75" stroke-width="0"/><path d="M302.01969,155.03559c0,0 -17.67264,-4.23587 -23.20017,-5.4295c-8.36986,-1.80742 -25.36138,-4.65168 -25.36138,-4.65168c0,0 15.66473,0.2169 29.01374,2.77679c14.47369,2.77554 56.97214,14.45346 56.97214,14.45346l-1.60488,5.1655z" fill="#75686e" stroke-width="0"/><path d="M292.81058,161.35841l-2.92783,-1.50739c0,0 10.03795,0.6219 14.91074,2.93462c4.87277,2.3127 12.21614,9.9403 12.21614,9.9403z" fill="#7c6e76" stroke-width="0"/><path d="M249.64221,143.72599c0,0 -26.33198,-24.30368 -25.81256,-28.98025c0.47187,-4.24811 27.78221,11.09047 28.09868,11.07546c5.53751,-0.26269 76.32423,14.17525 76.32423,14.17525l23.39612,14.37854l50.55556,15.10894l2.95129,15.13253c0,0 -59.13389,-17.14857 -81.87832,-24.04442c-7.8952,-2.39374 -23.77737,-8.00645 -38.73045,-11.45824c-11.53433,-2.6626 -29.70498,-3.78795 -29.70498,-3.78795z" fill="#ee96c3" stroke-width="0"/><path d="M122.60385,117.39066l9.15687,-18.25933c0,0 1.99601,-6.76659 9.59525,-6.80982c9.43851,-0.05365 25.03713,6.66206 27.01455,7.27642c1.51746,0.47147 -15.41704,6.11787 -15.41704,6.11787l-5.97976,19.24645z" fill="#c4b4b3" stroke-width="0"/><g stroke-width="0"><path d="M396.51793,183.38001l1.76445,-15.3087l86.57282,33.98115l-2.44561,5.32092l-46.73397,-9.43383z" fill="#ad6d8e"/><path d="M425.93061,177.50609l9.39979,-5.74235l26.20075,5.911l-7.19741,8.65608z" fill="#8d788b"/><path d="M401.25389,171.08387l4.81708,-15.5042l29.32527,16.2089l-6.41059,5.20118z" fill="#857183"/><path d="M442.74783,180.49833l18.72311,-2.84101l25.46855,11.8635l-2.31864,6.49868z" fill="#947e92"/><path d="M397.45313,169.26574l6.55104,-11.33253l2.29069,-2.4966l-4.4695,14.38551z" fill="#756474"/><path d="M398.69336,180.68994l2.8932,-11.74311l41.8526,11.27679l-5.93502,14.97024z" fill="#746373"/><path d="M437.50132,195.17673c0,0 2.23431,-5.9107 3.26799,-8.56781c0.88498,-2.27496 2.55747,-6.40717 2.55747,-6.40717l41.93993,13.98248l-0.58238,8.61516z" fill="#867284"/><path d="M397.51266,169.21049l4.30046,-0.26697l-3.09337,11.76259z" fill="#6f5e6d"/><path d="M480.08099,187.27722l-17.92779,-9.09232l24.4448,11.40269l-1.39921,3.27791c0,0 0.16616,-1.59169 -0.77863,-2.62332c-0.63199,-0.69012 -4.33923,-2.96501 -4.33923,-2.96501z" fill="#978195"/><path d="M441.34192,179.38112c0,0 8.6437,-0.94312 11.69858,-1.41195c2.22536,-0.3415 4.94376,-1.14203 4.94376,-1.14203l2.38631,0.85936l-16.49926,2.48048z" fill="#9c859a"/><path d="M427.36882,175.88619c0,0 2.07372,-2.23778 3.76385,-3.12661c1.69007,-0.88885 4.13628,-0.98251 4.13628,-0.98251l-5.5494,4.83948z" fill="#806b7d"/><path d="M463.49497,176.45807l3.73836,-4.8422l13.40785,8.07511l3.44893,7.77335z" fill="#55494f"/><path d="M460.24489,178.38046c0,0 1.26813,-0.43345 1.9768,-0.82562c0.5338,-0.29539 1.60162,-1.41352 1.60162,-1.41352l20.12211,10.44044c0,0 0.68136,0.7321 1.14454,1.21701c0.48407,0.50677 1.69995,1.76102 1.69995,1.76102z" fill="#685960"/><path d="M464.29558,175.77258l2.94435,-3.88681l12.52223,7.3743c0,0 -7.1914,-3.83932 -11.54626,-4.92564c-2.52605,-0.63015 -3.92032,1.43816 -3.92032,1.43816z" fill="#41383c"/></g><path d="M135.82395,80.36574l1.5453,-4.97382c0,0 21.71494,5.39059 42.6674,11.96005c12.48576,3.91481 24.97052,9.46678 31.684,11.18598c15.13743,3.87643 26.47362,2.67353 26.47362,2.67353l-9.21293,8.28258z" fill="#ffa1d1" stroke-width="0"/><path d="M129.22082,92.9299l6.83483,-14.71739c0,0 51.71745,18.22602 68.89168,23.10051c10.17332,2.88745 24.65843,3.45145 24.65843,3.45145l-4.34446,13.98301c0,0 -64.46141,-20.02782 -80.00105,-24.85591c-6.3893,-1.98513 -24.0161,24.71203 -24.0161,24.71203z" fill="#ee96c3" stroke-width="0"/><path d="M277.66482,219.14964l12.8961,-10.23024c0,0 14.17691,-12.2003 25.19013,-15.96491c2.79866,-0.95665 8.09044,-0.56545 8.09044,-0.56545c0,0 -8.4541,2.59355 -11.76033,4.48939c-7.80781,4.47714 -34.41629,22.2712 -34.41629,22.2712z" fill="#70646b" stroke-width="0"/><path d="M388.58843,185.71486l-0.67568,-19.06059l1.28933,0.40059c0,0 0.20464,5.77254 0.31275,8.82279c0.01543,0.43462 0.95661,2.0057 0.9757,2.544c0.03309,0.93315 -0.85314,0.91281 -0.81619,1.95582c0.10294,2.90421 0.20342,5.73799 0.20342,5.73799z" fill="#795467" stroke-width="0"/><path d="M225.73712,119.34744c0,0 -8.06593,-9.36733 -6.2971,-12.77069c1.05908,-2.03777 19.50264,-4.63455 19.50264,-4.63455l64.92114,21.9216l-2.4816,2.47112l26.75777,13.80939l-76.44794,4.07637c0,0 0.9099,-5.59582 5.198,-7.25646c4.16759,-1.61396 20.17928,-2.57134 20.17928,-2.57134c0,0 -32.66203,-10.19921 -39.59891,-12.44524c-2.31433,-0.74933 -11.73328,-2.6002 -11.73328,-2.6002z" fill="#f399c8" stroke-width="0"/><g><path d="M236.65573,103.24658l0.96084,-3.09252l168.60338,52.38416l-0.96084,3.09251z" fill="#584f54" stroke-width="0"/><path d="M400.61096,151.05547l0.81187,-2.61311l2.91768,0.9065l1.76253,3.41296z" fill="#685d63" stroke-width="0"/><g fill="#685d63" stroke-width="0"><g><g><g><path d="M394.17687,149.31735l0.8833,-2.84293l3.70636,1.15154l-0.88331,2.84294z"/><path d="M388.16293,147.44886l0.8833,-2.84293l3.70636,1.15154l-0.88331,2.84293z"/></g><g><path d="M382.37592,145.65084l0.8833,-2.84295l3.70636,1.15155l-0.88331,2.84294z"/><path d="M376.36194,143.78232l0.88331,-2.84294l3.70635,1.15155l-0.88331,2.84294z"/></g></g><g><g><path d="M370.46144,141.94909l0.88331,-2.84294l3.70635,1.15154l-0.88331,2.84294z"/><path d="M364.44749,140.0806l0.8833,-2.84294l3.70636,1.15154l-0.88331,2.84295z"/></g><g><path d="M358.6605,138.28258l0.8833,-2.84295l3.70635,1.15155l-0.88331,2.84294z"/><path d="M352.64659,136.4141l0.8833,-2.84293l3.70635,1.15154l-0.88331,2.84295z"/></g></g></g><g><g><g><path d="M352.41963,136.34361l0.8833,-2.84293l3.70635,1.15154l-0.88331,2.84293z"/><path d="M346.40573,134.47511l0.88331,-2.84294l3.70635,1.15155l-0.8833,2.84294z"/></g><g><path d="M340.61866,132.67711l0.88331,-2.84295l3.70635,1.15154l-0.8833,2.84294z"/><path d="M334.60474,130.80861l0.88331,-2.84293l3.70635,1.15153l-0.8833,2.84294z"/></g></g><g><g><path d="M328.70428,128.97539l0.8833,-2.84295l3.70636,1.15154l-0.88331,2.84294z"/><path d="M322.6903,127.10686l0.8833,-2.84294l3.70636,1.15155l-0.88331,2.84295z"/></g><g><path d="M316.90329,125.30887l0.8833,-2.84294l3.70637,1.15153l-0.88331,2.84295z"/><path d="M310.88935,123.44034l0.88331,-2.84293l3.70635,1.15154l-0.8833,2.84294z"/></g></g></g></g><g><g fill="#685d63" stroke-width="0"><g><g><path d="M304.95027,121.59514l0.88331,-2.84296l3.70635,1.15155l-0.8833,2.84294z"/><path d="M298.93633,119.72662l0.8833,-2.84294l3.70636,1.15155l-0.8833,2.84295z"/></g><g><path d="M293.1493,117.92865l0.88331,-2.84294l3.70636,1.15155l-0.88331,2.84295z"/><path d="M287.1354,116.06014l0.88331,-2.84293l3.70635,1.15154l-0.8833,2.84294z"/></g></g><g><g><path d="M281.23492,114.2269l0.8833,-2.84295l3.70636,1.15154l-0.88331,2.84294z"/><path d="M275.22095,112.3584l0.88331,-2.84293l3.70635,1.15154l-0.8833,2.84294z"/></g><g><path d="M269.4339,110.56041l0.88331,-2.84293l3.70634,1.15154l-0.8833,2.84295z"/><path d="M263.41996,108.6919l0.88331,-2.84294l3.70635,1.15154l-0.8833,2.84295z"/></g></g></g><g><g fill="#685d63" stroke-width="0"><g><path d="M263.19305,108.62139l0.8833,-2.84294l3.70636,1.15154l-0.88331,2.84294z"/><path d="M257.17907,106.75286l0.88331,-2.84295l3.70635,1.15154l-0.8833,2.84294z"/></g><g><path d="M251.39207,104.95492l0.8833,-2.84294l3.70636,1.15154l-0.8833,2.84295z"/><path d="M245.37816,103.08639l0.8833,-2.84294l3.70635,1.15154l-0.8833,2.84293z"/></g></g><g fill="none" stroke-width="1" font-family="sans-serif" font-weight="normal" font-size="12" text-anchor="start"><g/><g/></g></g></g><path d="M237.61122,100.41231l3.3863,-1.81326l2.91767,0.90652l-0.81188,2.61312z" data-paper-data="{&quot;index&quot;:null}" fill="#685d63" stroke-width="0"/></g><path d="M282.20199,148.7036l-2.51708,-0.49929c0,0 2.36512,-1.95378 11.86278,-0.18381c7.20064,1.34194 27.22707,6.19074 39.20434,9.13107c5.56194,1.36539 62.19036,9.53317 62.19036,9.53317l4.96895,1.52885c0,0 -62.09494,-8.14588 -67.64595,-9.53223c-12.27478,-3.06559 -32.92459,-8.18584 -38.968,-9.45772c-3.28977,-0.69237 -9.09535,-0.52002 -9.09535,-0.52002z" fill="#70475c" stroke-width="0"/><path d="M372.92277,196.81493l-5.24975,0.30179l5.61768,-18.0787c0,0 7.42622,2.35797 14.68898,4.66404c20.84912,6.61999 121.05142,38.4361 121.05142,38.4361l-1.99602,6.42435z" fill="#5a5959" stroke-width="0"/><path d="M371.56576,198.09849l1.93369,-2.54701l133.57973,32.91006l-14.62008,7.19787z" fill="#4b4a4a" stroke-width="0"/><path d="M489.37744,234.50392c0,0 -4.68349,-4.83192 -7.15568,-7.09546c-1.32492,-1.21308 -6.5245,-5.43 -6.5245,-5.43c0,0 6.77957,5.14705 9.6923,7.04468c1.03952,0.67723 1.89213,1.71996 2.98074,2.61123c0.35101,0.28736 2.91098,-1.80654 5.23306,-2.88025c0.69406,-0.32096 1.69389,0.37143 2.29376,0.21144c1.37518,-0.36682 2.04187,-1.3026 2.04187,-1.3026c0,0 0.04645,0.98783 -1.47771,1.78525c-0.41585,0.21759 -2.24214,0.01911 -2.65985,0.26668c-1.67407,0.99228 -3.10517,2.22211 -3.57202,2.69616c-1.30268,1.32287 0.54546,2.52707 0.54546,2.52707z" fill="#414040" stroke-width="0"/><path d="M225.6021,119.61694l6.93647,-9.46702l6.87585,1.48255c0,0 -1.69356,2.2469 -2.69167,3.57112c-0.25136,0.33353 11.59202,1.96481 11.72907,2.71004c0.25432,1.38268 -6.18242,3.32002 -6.81017,4.15285c-0.71765,0.95211 -9.14756,-1.25256 -9.14756,-1.25256z" fill="#303030" stroke-width="0"/><path d="M225.57478,119.22096l6.5889,-8.70053c0,0 2.478,2.13602 2.18574,3.07663c-0.53173,1.71148 -3.75674,6.76954 -3.75674,6.76954z" fill="#252525" stroke-width="0"/><path d="M366.8678,199.64746l0.87599,-2.81944l6.15103,-1.18052l-2.05832,2.45208c0,0 -1.43747,0.95161 -2.31131,1.22383c-0.76893,0.23954 -2.65737,0.324 -2.65737,0.324z" fill="#383838" stroke-width="0"/><g><g fill="#4b4b4b" stroke-width="0"><g data-paper-data="{&quot;origPos&quot;:null}"><g data-paper-data="{&quot;origPos&quot;:null}"><path d="M430.57886,220.87772l0.67434,-2.17041l3.58113,1.11262l-0.67434,2.17041z" data-paper-data="{&quot;origPos&quot;:null}"/><path d="M424.64402,218.91481l0.67434,-2.17041l3.58112,1.11262l-0.67434,2.17039z" data-paper-data="{&quot;origPos&quot;:null}"/></g><g data-paper-data="{&quot;origPos&quot;:null}"><path d="M442.48229,224.69509l0.67434,-2.17041l3.58113,1.11262l-0.67434,2.1704z" data-paper-data="{&quot;origPos&quot;:null}"/><path d="M436.54742,222.73216l0.67434,-2.1704l3.58114,1.11262l-0.67435,2.17041z" data-paper-data="{&quot;origPos&quot;:null}"/></g></g><g data-paper-data="{&quot;origPos&quot;:null,&quot;index&quot;:null}"><g data-paper-data="{&quot;origPos&quot;:null}"><path d="M460.88945,230.17611l0.67434,-2.17041l3.58114,1.11262l-0.67435,2.1704z" data-paper-data="{&quot;origPos&quot;:null}"/><path d="M466.89174,231.92196l0.67433,-2.1704l3.58113,1.11262l-0.67433,2.17039z" data-paper-data="{&quot;origPos&quot;:null}"/></g><g data-paper-data="{&quot;origPos&quot;:null}"><path d="M448.91864,226.57579l0.67435,-2.17041l3.58112,1.11263l-0.67434,2.17039z" data-paper-data="{&quot;origPos&quot;:null}"/><path d="M454.92091,228.32172l0.67434,-2.17039l3.58113,1.11261l-0.67434,2.1704z" data-paper-data="{&quot;origPos&quot;:null}"/></g></g></g><path d="M392.22728,200.3282l4.03847,-12.99821l80.67011,25.06376l-4.03846,12.9982z" data-paper-data="{&quot;origPos&quot;:null}" fill="#444444" stroke-width="0"/><path d="M390.92025,204.86701l1.41897,-4.5671l80.43302,24.99009l-1.41898,4.56711z" data-paper-data="{&quot;origPos&quot;:null}" fill="#414141" stroke-width="0"/><path d="M390.5309,206.23746l0.47996,-1.54478l80.42279,24.98691l-0.47995,1.54478z" data-paper-data="{&quot;origPos&quot;:null}" fill="#3f3f3f" stroke-width="0"/><g stroke-width="0"><g data-paper-data="{&quot;origPos&quot;:null}" fill="#5a5a5a"><g data-paper-data="{&quot;origPos&quot;:null}"><path d="M433.52684,213.24288l4.07966,-13.13084l3.41061,1.05966l-4.07967,13.13083z" data-paper-data="{&quot;origPos&quot;:null}"/></g><g data-paper-data="{&quot;origPos&quot;:null}"><path d="M439.32486,215.04428l4.07966,-13.13083l3.41062,1.05966l-4.07967,13.13083z" data-paper-data="{&quot;origPos&quot;:null}"/><path d="M445.29344,216.89869l4.07968,-13.13083l3.41061,1.05966l-4.07968,13.13083z" data-paper-data="{&quot;origPos&quot;:null}"/></g></g><g data-paper-data="{&quot;origPos&quot;:null}" fill="#5a5a5a"><g data-paper-data="{&quot;origPos&quot;:null}"><path d="M451.60305,218.85906l4.07966,-13.13083l3.41061,1.05966l-4.07968,13.13084z" data-paper-data="{&quot;origPos&quot;:null}"/><path d="M457.5716,220.71346l4.07968,-13.13082l3.41061,1.05966l-4.07967,13.13082z" data-paper-data="{&quot;origPos&quot;:null}"/></g><g data-paper-data="{&quot;origPos&quot;:null}"><path d="M463.36964,222.51488l4.07968,-13.13083l3.4106,1.05964l-4.07968,13.13083z" data-paper-data="{&quot;origPos&quot;:null}"/><path d="M469.3382,224.36927l4.07968,-13.13083l3.4106,1.05965l-4.07966,13.13083z" data-paper-data="{&quot;origPos&quot;:null}"/></g></g><path d="M436.99602,214.32074l-1.41219,1.58333l-5.01812,-1.51399l2.77357,-9.39666l4.21102,-4.89886l-4.01384,13.15131z" fill="#3a3a3a"/><path d="M442.7917,216.12142l-1.4122,1.58335l-5.01812,-1.51399l2.77357,-9.39666l4.21101,-4.89885l-4.01383,13.1513z" fill="#3a3a3a"/><path d="M448.71907,217.96302l-1.4122,1.58333l-5.01812,-1.51399l2.77357,-9.39665l4.21101,-4.89885l-4.01384,13.15131z" fill="#3a3a3a"/><path d="M455.10753,219.94788l-1.41219,1.58333l-5.01812,-1.514l2.77357,-9.39666l4.21101,-4.89885l-4.01382,13.15131z" fill="#3a3a3a"/><path d="M461.10076,221.80995l-1.41219,1.58333l-5.01812,-1.51399l2.77357,-9.39666l4.21101,-4.89885l-4.01382,13.15131z" fill="#3a3a3a"/><path d="M466.83058,223.59016l-1.4122,1.58333l-5.01811,-1.51399l2.77357,-9.39666l4.21101,-4.89885l-4.01382,13.15132z" fill="#3a3a3a"/><path d="M472.83139,225.45459l-1.41219,1.58333l-5.01812,-1.51399l2.77358,-9.39665l4.21101,-4.89886l-4.01384,13.15131z" fill="#3a3a3a"/></g><g stroke-width="0"><g data-paper-data="{&quot;origPos&quot;:null}" fill="#5a5a5a"><g data-paper-data="{&quot;origPos&quot;:null}"><path d="M392.2444,200.41666l4.07968,-13.13083l3.41062,1.05966l-4.07967,13.13083z" data-paper-data="{&quot;origPos&quot;:null}"/></g><g data-paper-data="{&quot;origPos&quot;:null}"><path d="M398.04241,202.21809l4.07966,-13.13082l3.41061,1.05966l-4.07968,13.13083z" data-paper-data="{&quot;origPos&quot;:null}"/><path d="M404.01097,204.07247l4.07968,-13.13083l3.41062,1.05965l-4.07968,13.13083z" data-paper-data="{&quot;origPos&quot;:null}"/></g></g><g data-paper-data="{&quot;origPos&quot;:null}" fill="#5a5a5a"><g data-paper-data="{&quot;origPos&quot;:null}"><path d="M410.32061,206.03282l4.07968,-13.13083l3.41062,1.05966l-4.07967,13.13083z" data-paper-data="{&quot;origPos&quot;:null}"/><path d="M416.28922,207.88724l4.07968,-13.13084l3.41062,1.05967l-4.07968,13.13082z" data-paper-data="{&quot;origPos&quot;:null}"/></g><g data-paper-data="{&quot;origPos&quot;:null}"><path d="M422.08723,209.68866l4.07968,-13.13083l3.41062,1.05966l-4.07968,13.13083z" data-paper-data="{&quot;origPos&quot;:null}"/><path d="M428.05579,211.54308l4.07968,-13.13083l3.41062,1.05966l-4.07968,13.13085z" data-paper-data="{&quot;origPos&quot;:null}"/></g></g><path d="M395.71353,201.4945l-1.4122,1.58333l-2.61963,-0.76876l0.57226,-1.88942z" fill="#3a3a3a"/><path d="M401.50927,203.29522l-1.41219,1.58335l-5.01812,-1.514l2.77358,-9.39665l4.21101,-4.89885l-4.01383,13.15131z" fill="#3a3a3a"/><path d="M407.43663,205.1368l-1.41219,1.58333l-5.01812,-1.51399l2.77357,-9.39665l4.21102,-4.89886l-4.01383,13.15132z" fill="#3a3a3a"/><path d="M413.82504,207.12162l-1.41219,1.58333l-5.01813,-1.51399l2.77358,-9.39666l4.21102,-4.89886l-4.01383,13.15131z" fill="#3a3a3a"/><path d="M419.81836,208.98376l-1.4122,1.58334l-5.01812,-1.51399l2.77357,-9.39666l4.21102,-4.89886l-4.01384,13.15132z" fill="#3a3a3a"/><path d="M425.54815,210.76396l-1.41219,1.58334l-5.01812,-1.51399l2.77357,-9.39665l4.21102,-4.89886l-4.01383,13.15131z" fill="#3a3a3a"/><path d="M431.54901,212.62843l-1.41219,1.58335l-5.01812,-1.51399l2.77357,-9.39666l4.21102,-4.89885l-4.01383,13.15131z" fill="#3a3a3a"/></g><g><g data-paper-data="{&quot;origPos&quot;:null}"><g data-paper-data="{&quot;origPos&quot;:null}" fill="none" stroke-width="1" font-family="sans-serif" font-weight="normal" font-size="12" text-anchor="start"/><g data-paper-data="{&quot;origPos&quot;:null}" fill="#4b4b4b" stroke-width="0"><path d="M395.91826,210.30842l0.67435,-2.1704l3.58112,1.11262l-0.67433,2.1704z" data-paper-data="{&quot;origPos&quot;:null}"/><path d="M389.98341,208.34553l0.67434,-2.17041l3.58113,1.11262l-0.67434,2.17041z" data-paper-data="{&quot;origPos&quot;:null}"/></g></g><g data-paper-data="{&quot;origPos&quot;:null,&quot;index&quot;:null}" fill="#4b4b4b" stroke-width="0"><g data-paper-data="{&quot;origPos&quot;:null}"><path d="M414.3255,215.78947l0.67434,-2.1704l3.58113,1.11262l-0.67434,2.1704z" data-paper-data="{&quot;origPos&quot;:null}"/><path d="M420.32778,217.53531l0.67433,-2.17039l3.58113,1.11262l-0.67434,2.1704z" data-paper-data="{&quot;origPos&quot;:null}"/></g><g data-paper-data="{&quot;origPos&quot;:null}"><path d="M402.35458,212.18918l0.67434,-2.1704l3.58113,1.11262l-0.67434,2.1704z" data-paper-data="{&quot;origPos&quot;:null}"/><path d="M408.35686,213.935l0.67435,-2.1704l3.58114,1.11262l-0.67434,2.1704z" data-paper-data="{&quot;origPos&quot;:null}"/></g></g></g></g><path d="M238.18406,121.85695l2.24346,-3.71687c0,0 5.33731,-1.63762 8.75393,-0.73317c3.9059,1.03394 32.51787,9.9497 32.51787,9.9497c0,0 0.07567,1.98768 -0.33603,3.13438c-0.53041,1.47735 -3.46046,3.77614 -3.46046,3.77614z" fill="#242424" stroke-width="0"/><path d="M263.07973,125.60221l0.9347,-3.00846l17.19117,5.3412l-0.93471,3.00847z" fill="#313131" stroke-width="0"/><path d="M259.36145,126.46862l0.19352,-0.62287c0,0 1.33167,-0.68699 2.30867,-0.38344c0.92775,0.28827 2.8763,1.39099 5.16931,2.27448c4.36817,1.68306 9.71297,3.45011 9.71297,3.45011l-0.19353,0.62287c0,0 -5.18322,-1.61253 -9.48936,-3.27571c-2.34961,-0.9075 -4.34686,-2.12384 -5.30925,-2.42288c-1.01159,-0.31429 -2.39231,0.35745 -2.39231,0.35745z" fill="#616161" stroke-width="0"/><path d="M289.93425,119.51565l11.22369,6.65647l27.88631,14.22251c0,0 0.63359,0.43161 -6.88423,-2.66671c-2.55744,-1.05401 -12.23932,-5.747 -20.48225,-10.30058c-2.23042,-1.23214 -13.94318,-8.47428 -13.94318,-8.47428z" fill="#df8cb7" stroke-width="0"/><path d="M115.12135,71.83733l1.76038,-5.66595c0,0 6.03037,0.03798 9.66288,1.16661c2.97383,0.92397 10.03412,6.78878 10.03412,6.78878l-3.76955,11.67818z" fill="#626061" stroke-width="0"/><path d="M222.99191,115.80873l2.88181,3.51953l12.08824,2.37019l48.4599,15.05623l-0.32369,1.04191c0,0 -36.30897,-11.43309 -47.75421,-14.71447c-3.14227,-0.9009 -12.61877,-3.09034 -12.61877,-3.09034z" fill="#ffa6d4" stroke-width="0"/><path d="M93.40038,132.03364l2.12724,-6.84675l27.307,-8.93026l-5.59052,12.5765l-16.25281,5.55899z" fill="#3f3d3e" stroke-width="0"/><path d="M93.34506,126.71767c0,0 6.00992,-18.71127 9.62274,-27.62399c4.07762,-10.05939 13.61773,-29.70983 13.61773,-29.70983c0,0 8.28282,2.37512 11.21526,5.00967c2.50977,2.25478 5.30951,9.83626 5.30951,9.83626l-9.95487,32.04071c0,0 -15.38717,9.56335 -18.96523,10.81732c-5.50368,1.92882 -10.8451,-0.37014 -10.8451,-0.37014z" fill="#555354" stroke-width="0"/><path d="M113.29688,79.46032c0,0 0.30731,-6.18002 3.08069,-8.14275c2.77338,-1.96274 7.22881,-1.64335 9.67378,-0.88368c1.95042,0.606 5.96343,1.93526 7.38456,7.04552c1.42116,5.11026 -2.39105,10.91044 -2.39105,10.91044c0,0 -2.92933,-11.80438 -5.24433,-12.96913c-3.26672,-1.6436 -12.50369,4.03963 -12.50369,4.03963z" fill="#6f6b6c" stroke-width="0"/><path d="M90.51195,130.93899c0,0 9.37019,-24.38021 12.76561,-35.30869c3.53606,-11.38116 9.47863,-31.2302 9.47863,-31.2302c0,0 1.29489,-0.27095 2.28886,0.03786c0.90887,0.28237 2.21439,1.36129 2.21439,1.36129c0,0 -5.88813,18.22911 -9.06131,28.44236c-3.68671,11.86596 -14.41091,37.71501 -14.41091,37.71501z" fill="#333232" stroke-width="0"/><path d="M89.96893,131.23483l5.40889,-13.72128c0,0 0.74394,1.16196 1.32785,1.30288c0.73728,0.17793 2.76529,-0.69727 2.76529,-0.69727l-5.71168,14.2933z" fill="#2e2d2d" stroke-width="0"/><path d="M125.32945,104.25157c-2.42249,7.79698 -8.93277,14.85093 -13.97002,16.3513c-4.1836,1.24614 -13.34967,5.47486 -10.9272,-2.32212c0.51392,-1.65411 5.99059,-12.39202 8.19903,-19.06719c2.9206,-8.82778 2.82685,-14.0727 4.58168,-16.49263c3.17305,-4.37558 8.88658,-4.14969 11.00136,-3.49264c4.16868,1.29519 3.53765,17.22627 1.11516,25.02326z" fill="#585758" stroke-width="0"/><path d="M154.06089,127.92534l-0.04941,-1.8382c0,0 7.98291,1.06603 13.87355,2.38923c8.29267,1.86278 31.18931,7.73321 31.18931,7.73321l1.3349,1.75638c0,0 -24.46068,-5.903 -33.00984,-7.75503c-2.51078,-0.54392 -13.33852,-2.28557 -13.33852,-2.28557z" fill="#585657" stroke-width="0"/><path d="M144.51913,138.78372l9.01837,-11.53503l7.19822,1.24097c0,0 -2.93966,3.60354 -3.08131,4.35029c-0.67685,3.56818 -4.92598,27.34518 -4.92598,27.34518c0,0 -1.5416,-0.01778 -2.12096,-2.16176c-1.03953,-3.84696 -0.75637,-10.94456 -1.80571,-13.47241c-0.90662,-2.18401 -4.28264,-5.76723 -4.28264,-5.76723z" fill="#5a5759" stroke-width="0"/><path d="M165.62401,113.08431l6.12144,-9.96584l2.26123,0.5862l-7.24845,9.84836z" fill="#a5a0a2" stroke-width="0"/><path d="M172.42946,114.06414l0.41619,-1.33959l25.30308,7.86153l-0.41618,1.33959z" fill="#494748" stroke-width="0"/><path d="M173.23409,111.20272l0.41619,-1.33959l25.30308,7.86153l-0.41619,1.33959z" fill="#494748" stroke-width="0"/><path d="M148.0273,126.83547l5.97511,-19.23149l14.54906,-5.54936l4.7189,1.13968l-28.24578,36.05656l-4.76412,-3.57802z" fill="#dbd5d8" stroke-width="0"/><path d="M119.18694,130.35114l3.34761,-11.30673l25.68846,7.15454c0,0 -0.43754,2.52145 -0.79881,3.24537c-0.90047,1.80457 -4.87583,7.83439 -4.87583,7.83439z" fill="#ccc6c9" stroke-width="0"/><path d="M126.18571,120.59813l0.0937,-0.30159l22.04721,5.94055l-2.83949,0.35791c0,0 -4.18227,-1.10443 -6.75958,-1.93842c-3.52904,-1.14197 -12.54187,-4.05844 -12.54187,-4.05844z" fill="#d8d1d5" stroke-width="0"/><path d="M130.65158,118.07264l5.04396,-16.23448l15.39889,4.78437l-5.04397,16.23448z" fill="#a39999" stroke-width="0"/><path d="M118.8725,130.4312l3.37035,-10.84779c0,0 6.54399,8.72101 9.94316,12.22808c3.39919,3.50706 9.69071,5.16862 9.69071,5.16862z" fill="#b4afb1" stroke-width="0"/><path d="M149.20783,146.18379c0,0 2.58434,1.8925 3.67373,2.08047c0.66925,0.11542 2.24104,-1.06003 2.24104,-1.06003l-1.1082,9.15672l-1.24471,4.00622c0,0 -1.94792,-0.2791 -2.40314,-3.1249c-0.37559,-2.348 -1.15876,-11.0584 -1.15876,-11.0584z" fill="#504e4f" stroke-width="0"/><path d="M144.64483,139.40535l26.19582,-35.57305l1.60421,0.71324l-26.21957,35.99526z" fill="#858183" stroke-width="0"/><path d="M140.65925,95.48922l1.93624,-1.12671c0,0 26.37212,7.5194 38.22357,11.2016c10.28626,3.19587 30.40172,9.81529 30.40172,9.81529l-0.07036,2.01107c0,0 -20.12881,-6.99317 -30.97115,-10.36182c-12.38057,-3.84657 -39.51999,-11.53938 -39.51999,-11.53938z" fill="#918b8e" stroke-width="0"/><path d="M141.99677,94.61602l2.50875,-1.25348c0,0 24.8273,7.34409 36.67874,11.02627c10.28625,3.19586 30.40173,9.8153 30.40173,9.8153l-0.07038,2.01105c0,0 -20.12881,-6.99316 -30.97115,-10.36182c-12.38057,-3.84658 -38.54767,-11.23729 -38.54767,-11.23729z" fill="#a59fa2" stroke-width="0"/><path d="M197.52881,133.63572l-0.15278,-5.99805c0,0 0.55962,-1.08798 0.9111,-1.09691c0.30966,-0.00788 1.08824,1.04599 1.08824,1.04599l0.15276,5.99804c0,0 -0.52411,0.75619 -0.83447,0.7641c-0.35108,0.00893 -1.16489,-0.71314 -1.16489,-0.71314z" fill="#494242" stroke-width="0"/><path d="M158.28193,124.21546l6.19776,-8.00738l3.71074,1.15292l-6.19776,8.00737z" fill="#9c989a" stroke-width="0"/><path d="M172.69262,110.07841l2.05457,-0.37523l23.333,7.26836l1.64532,1.5059z" fill="#757274" stroke-width="0"/><path d="M171.94856,112.79109l2.05458,-0.37524l23.33299,7.26835l1.64535,1.50589z" fill="#757274" stroke-width="0"/><path d="M116.85247,128.77428l18.8857,-55.03239l1.66154,1.12434l-18.48378,55.57732z" fill="#686666" stroke-width="0"/><path d="M116.61625,128.98395l5.44827,-15.32953l1.05497,4.32629l-4.36585,12.58123z" fill="#535252" stroke-width="0"/><path d="M152.76463,116.26171c0,0 2.7243,-1.60966 3.00521,-2.51379c0.27568,-0.88726 -1.33517,-2.86146 -1.33517,-2.86146c0,0 2.66816,1.53028 2.06769,3.11165c-0.45737,1.2045 -2.11011,2.98323 -2.52063,4.01004c-1.16728,2.9196 -4.00487,9.73177 -4.00487,9.73177z" fill="#c4bec1" stroke-width="0"/><path d="M160.66214,116.71365l4.85057,-9.16913l3.72602,-3.40198l-5.37144,8.34002z" fill="#aca7a9" stroke-width="0"/></g></g><g stroke-width="0"><path d="M281.66211,125.16487l3.42769,-2.42123c0,0 2.15223,-0.83537 2.85843,-0.32801c0.80519,0.57848 1.71486,3.61362 1.71486,3.61362l-1.72866,3.73732c0,0 -4.08621,-1.27746 -5.25593,-1.78046c-0.52732,-0.22677 -1.01638,-2.82124 -1.01638,-2.82124z" fill="#c0c0c0"/><path d="M237.81238,121.64721c0,0 0.68598,-2.80266 2.03533,-3.57601c1.69102,-0.96915 8.15352,-1.27779 8.15352,-1.27779l-2.0841,4.31297l-0.86672,2.7897z" fill="#838383"/><path d="M237.67001,121.5251l9.95949,-4.73969l35.87089,11.14488l-2.21974,7.14438z" fill="#999999"/><path d="M238.8188,121.19465l7.61542,-3.75046l32.25151,10.02036l-1.73306,5.57809c0,0 -3.90353,-1.2128 -8.92494,-2.77291c-3.26472,-1.01436 -6.68688,-3.18968 -10.13115,-4.25978c-3.69483,-1.14798 -7.3676,-1.17698 -9.44289,-1.82175c-4.06164,-1.26195 -9.63488,-2.99352 -9.63488,-2.99352z" fill="#2e2e2e"/><path d="M242.1544,122.22871l9.74355,-3.15439l11.90284,3.69814c0,0 -7.60985,-0.36704 -10.14459,-0.19689c-2.6909,0.18062 -6.38464,1.24301 -6.38464,1.24301z" fill="#a5899d"/><path d="M249.81725,124.49146c0,0 5.14459,0.58042 7.49107,1.30948c2.9982,0.93153 9.02692,3.82257 9.02692,3.82257l-9.11987,-3.18451z" fill="#adadad"/><path d="M237.77526,121.53879l8.99328,-4.27584l33.39211,10.37478l-0.20429,0.65758c0,0 -28.91342,-8.98323 -32.68231,-10.15422c-0.78833,-0.24493 -9.4988,3.39777 -9.4988,3.39777z" fill="#8a8a8a"/><path d="M280.9684,141.48852l2.89444,-9.31605l2.75829,-6.6845c0,0 0.99428,0.80097 1.35606,1.50344c0.36178,0.70248 0.39335,1.89326 0.39335,1.89326l-5.47976,13.20112z" fill="#9e9e9e"/><path d="M277.01759,135.83073c0,0 -0.24023,-2.29975 0.10071,-3.85788c0.45914,-2.09821 2.91342,-7.11409 2.91342,-7.11409l1.95054,0.26532c0,0 0.48979,0.98128 0.99038,0.98065c0.69021,-0.00086 2.76789,-0.9855 2.76789,-0.9855l-4.28295,12.09101z" fill="#9c9c9c"/><path d="M277.0225,137.74929c-0.41946,-1.28684 0.21754,-2.5268 0.21754,-2.5268l6.7944,-5.42892c0,0 0.17855,4.12238 -0.09339,4.99758c-0.77307,2.48822 -1.22115,7.32265 -1.22115,7.32265c0,0 -2.87074,-0.80424 -3.7327,-1.53135c-1.03378,-0.87205 -1.54524,-1.54634 -1.96473,-2.83318z" fill="#888888"/><path d="M278.95277,137.53825c-0.35042,-2.20293 0.00877,-6.76482 2.9763,-10.10138c2.96754,-3.33654 4.64083,-0.58499 4.64083,-0.58499c0,0 -0.35116,4.52246 -1.03737,6.73116c-0.62509,2.01198 -2.91378,5.98601 -2.91378,5.98601c0,0 -3.31556,0.17213 -3.66597,-2.03081z" fill="#b4b4b4"/><path d="M285.21039,131.42428c-0.41868,1.34752 -5.3215,-0.09469 -4.90282,-1.44219c0.41868,-1.34752 4.94254,-5.59891 5.71837,-5.35786c0.30048,0.09336 0.88512,0.38166 0.75807,1.45289c-0.20104,1.69472 -1.31707,4.52155 -1.57362,5.34719z" fill="#bbbbbb"/></g><g stroke-width="0"><path d="M222.9044,115.76569c0,0 -4.13387,-6.43358 -3.57802,-8.22262c0.45385,-1.46076 6.25479,0.21263 6.25479,0.21263l7.18419,2.30732l-7.04109,9.0996z" fill="#f399c8"/><path d="M193.26581,108.2762c0,0 -0.30397,-2.29119 0.25998,-3.23929c0.62237,-1.04628 3.65947,-3.87757 3.65947,-3.87757l22.05583,6.65822l6.15668,10.9426z" fill="#ee96c3"/></g></g><g stroke-width="0"><g><path d="M290.30681,117.77094l1.83417,-5.90345l45.6649,14.18783l-1.83416,5.90345z" fill="#61585b"/><path d="M291.11325,114.62502l0.9822,-3.16129l45.83852,14.24179l-0.98221,3.16129c0,0 -8.25176,-2.56381 -16.72844,-5.19744c-2.6503,-0.82343 -6.82647,-0.53216 -9.27539,-1.29305c-2.91208,-0.90477 -5.58505,-3.32404 -7.45301,-3.90441c-5.6012,-1.74026 -12.38168,-3.84691 -12.38168,-3.84691z" fill="#494344"/><path d="M352.1163,126.66164l-3.29557,-20.84962l19.97722,6.20685l9.75681,20.59665c0,0 -5.85696,-0.39416 -9.02005,-1.10646c-4.88098,-1.09918 -17.41842,-4.84739 -17.41842,-4.84739z" fill="#5e555b"/><path d="M351.09911,129.94265l1.64328,-5.28909c0,0 12.17583,2.26132 17.07899,2.96834c3.89128,0.56109 6.74331,0.83769 6.74331,0.83769l3.61316,8.38857c0,0 -5.56587,-0.05788 -9.65866,-0.8646c-5.54557,-1.09313 -19.42006,-6.0408 -19.42006,-6.0408z" fill="url(#color-5)"/><path d="M347.1551,105.46078l1.18569,-3.81622l18.2891,5.68232l2.28696,4.89513z" fill="url(#color-6)"/><path d="M350.53423,129.79328l0.37364,-1.20254c0,0 14.92948,4.5585 20.12313,5.99672c3.88356,1.07543 8.57286,0.88115 8.57286,0.88115l0.50921,1.35692l-8.46333,-0.47183z" fill="#312c30"/><g><path d="M257.2088,89.69711l2.41205,-8.52664l89.69585,27.868l3.9491,13.04076z" fill="#8a6672"/><path d="M270.54491,102.51692c0,0 -2.29122,-4.48767 -4.53594,-6.71561c-2.24473,-2.22796 -9.05845,-4.09628 -9.05845,-4.09628l0.72638,-1.95983c0,0 11.68637,3.92032 18.37089,6.09689c15.96845,5.19946 77.0257,24.96507 77.0257,24.96507l1.51156,7.34634z" fill="#755761"/><path d="M272.52605,105.74083l-2.12017,-3.37276l83.7875,25.51989l0.23701,3.30005z" fill="#694e57"/><path d="M259.34598,81.49986l1.34377,-4.32507l86.9187,26.29379l1.99657,6.54851c0,0 1.64067,4.00517 -3.40001,2.41257c-1.58684,-0.50134 -9.29757,-6.42434 -10.88836,-6.92695c-15.32044,-4.84047 -75.97064,-24.00281 -75.97064,-24.00281z" fill="#916b77"/><path d="M260.92076,77.24668l0.63554,-2.44611l85.90134,26.54379l0.28832,2.59467z" fill="#9e7582"/><path d="M331.50572,99.89319c-7.51227,-3.0125 -68.95798,-23.18434 -68.95798,-23.18434l83.89796,26.06664l2.37677,8.53049c0,0 -9.80447,-8.40029 -17.31676,-11.41278z" fill="#b38f9a"/></g><path d="M302.00858,114.89792l2.72192,-8.76069l19.30205,5.99703l-2.72192,8.76069z" fill="#3a3336"/><path d="M304.64538,106.11513l1.13592,-1.24138l17.70362,5.50042l0.48907,1.74621z" fill="#4b4246"/><path d="M302.29058,114.46262l2.42632,-7.80934c0,0 -0.55096,5.34296 1.65906,7.18806c2.21002,1.84509 14.67729,6.45076 14.67729,6.45076z" fill="#332c30"/><path d="M347.6945,107.95705l-1.96326,-6.89291c0,0 1.17468,-0.33317 1.74828,-0.15495c0.64124,0.19923 1.91878,1.29427 1.91878,1.29427l1.96326,6.89291z" fill="#757575"/><path d="M349.17409,113.37463l-2.82528,-9.89616l3.66709,1.13933l2.82528,9.89614z" fill="#5a5a5a"/><path d="M351.31441,120.79266l-2.82528,-9.89614l3.66707,1.13932l2.82529,9.89616z" fill="#505050"/><path d="M353.52391,128.47384c-0.48255,-1.69025 -2.3654,-8.28528 -2.3654,-8.28528l3.66707,1.13934l3.25213,11.82388c0,0 -2.12211,-0.09858 -3.02446,-0.39445c-0.70387,-0.23079 -1.31657,-3.5382 -1.52935,-4.28351z" fill="#3b3b3b"/><path d="M254.96527,91.7207l5.54085,-17.8338l3.03773,0.94378l-5.54087,17.83381z" fill="#443e42"/><path d="M236.46471,87.64702l1.10403,-5.86453l19.31768,6.00188l-1.75885,5.66106z" fill="url(#color-7)"/><path d="M237.38162,82.38474l3.21834,-10.35853l19.31768,6.00188l-3.21836,10.35854z" fill="#5e555b"/><path d="M240.56248,72.14681l1.9989,-3.73741l18.55369,5.76452l-1.23494,3.97479z" fill="url(#color-8)"/><path d="M308.87381,89.21881l1.81978,-5.85712l14.02931,5.47578l3.01629,5.87042z" fill="#5e555b"/><path d="M327.63372,95.04742l-2.93716,-6.12507c0,0 2.67548,1.55445 4.50718,3.16887c1.83172,1.61444 4.62666,4.88145 4.62666,4.88145z" fill="#776b73"/><path d="M305.64483,89.42561l3.42515,-0.23897l24.52635,7.34096l3.03198,2.52437z" fill="#6d6269"/></g><g><path d="M304.56792,111.53576c0.37052,-1.19263 1.20109,-2.14581 1.87769,-3.01371c0.94277,-1.20939 1.87058,-2.16496 3.35714,-2.58915c0.90804,-0.2591 2.10963,-0.29355 3.12536,-0.22966c0.67183,0.04228 1.74467,-0.04335 2.41606,0.16525c1.52192,0.47286 1.82458,0.65247 2.77539,1.46729c0.57275,0.49083 2.00511,1.40614 2.31657,2.20675c0.26363,0.6776 0.43656,1.72461 0.56122,2.47502c0.21301,1.28242 0.42614,3.30106 0.01414,4.62717c-0.17413,0.56041 -1.04101,1.69261 -1.24141,2.17015c-0.63612,1.51597 -0.78804,2.0024 -2.27427,2.69617c-0.90332,0.42167 -2.50524,0.49761 -3.56636,0.59723c-1.09893,0.10318 -2.57427,0.55169 -3.69417,0.20374c-0.75587,-0.23485 -1.96092,-1.16947 -2.65275,-1.52703c-1.50098,-0.77575 -2.30114,-1.20704 -2.94598,-2.6013c-0.55299,-1.19566 -0.32767,-2.79935 -0.27268,-4.20388c0.02891,-0.73787 -0.02541,-1.70521 0.20411,-2.44401z" fill="#3a3a3a"/><path d="M305.30125,111.63939c0.33906,-1.09135 1.09911,-1.9636 1.71824,-2.75783c0.86274,-1.10671 1.71172,-1.98112 3.07213,-2.36935c0.83093,-0.23711 1.93052,-0.26863 2.85999,-0.21015c0.61477,0.03866 1.59656,-0.03965 2.21088,0.15122c1.39273,0.43271 1.66969,0.59707 2.53975,1.34269c0.52411,0.44917 1.83487,1.28674 2.11991,2.01937c0.24124,0.62011 0.39949,1.57822 0.51356,2.26488c0.19493,1.17351 0.38995,3.02079 0.01296,4.23427c-0.15933,0.51281 -0.95265,1.5489 -1.13602,1.9859c-0.5821,1.38726 -0.7211,1.8324 -2.08117,2.46725c-0.82664,0.38583 -2.29255,0.45534 -3.26356,0.5465c-1.00561,0.09442 -2.35572,0.50485 -3.38051,0.18646c-0.69169,-0.21489 -1.7944,-1.07016 -2.42752,-1.39735c-1.37356,-0.70989 -2.10579,-1.10454 -2.69588,-2.38045c-0.50601,-1.09415 -0.29984,-2.56167 -0.24951,-3.84693c0.02644,-0.67525 -0.02325,-1.56044 0.18677,-2.23648z" fill="#5a5a5a"/><path d="M318.2881,110.93139c-1.24497,-2.88507 -6.04959,-4.58793 -6.04959,-4.58793c0,0 2.01503,0.0606 3.91352,0.65769c1.53784,0.48366 2.93124,1.29823 3.65256,2.88469c0.72189,1.58774 0.65754,3.12248 0.51736,4.54019c-0.27477,2.77962 -1.40285,4.93478 -1.40285,4.93478c0,0 0.61397,-5.54435 -0.63104,-8.42942z" fill="#6d6d6d"/><path d="M311.7119,114.14374c0.17081,-0.54977 0.75496,-0.857 1.30478,-0.68621c0.54977,0.1708 0.85699,0.75496 0.6862,1.30479c-0.17081,0.54977 -0.75496,0.85699 -1.30478,0.6862c-0.54977,-0.1708 -0.857,-0.75495 -0.68619,-1.30478z" fill="#272727"/><path d="M311.59586,114.25094c0.15668,-0.50424 0.69245,-0.78604 1.19671,-0.62936c0.50424,0.15668 0.78604,0.69245 0.62936,1.19671c-0.15668,0.50424 -0.69245,0.78605 -1.19671,0.62938c-0.50424,-0.15668 -0.78605,-0.69245 -0.62937,-1.19671z" fill="#131313"/></g></g></g></g></g><path d="M194.12596,192.82333c0.4702,-1.51331 9.05073,-43.48335 10.0208,-44.9361c1.30977,-1.9615 9.00829,1.84471 12.28632,1.28428c10.03954,-1.7164 20.77166,-3.18537 20.77166,-3.18537c0,0 13.26261,4.72845 17.30834,5.98548c3.02547,0.94 64.10216,11.02555 61.74772,21.10233c-3.19347,13.66791 -41.28427,-10.43768 -44.88349,1.1467c-0.91117,2.93263 1.33205,3.83429 -0.14198,6.67195c-0.35379,0.68104 -4.1362,4.92895 -4.84773,6.463c-1.12949,2.43508 0.82973,7.23504 -3.25095,9.21262c-3.25287,1.5764 -2.89642,6.94056 -3.86708,7.91192c-6.6891,6.69368 -13.51414,0.58936 -22.12113,-2.08476c-10.20483,-3.17056 -26.15942,-4.22869 -34.75334,-8.19446c-3.70966,-1.71191 -9.63774,3.02751 -8.26912,-1.37752z" fill="#86c8f5" stroke-width="0"/><g stroke-width="0"><g><path d="M185.01042,208.27387l1.65617,-5.33058c0,0 2.0876,0.83505 3.18962,0.16831c1.55694,-0.94192 5.44424,-5.11638 5.44424,-5.11638l-1.79626,7.91733c0,0 -3.89046,2.14057 -5.62588,2.54114c-1.25296,0.28917 -2.86786,-0.17981 -2.86786,-0.17981z" fill="#4d484c"/><g><g><path d="M149.47656,185.34848l5.56409,-4.09562c0,0 17.84152,-3.8275 25.30875,-5.58252c5.74403,-1.35001 14.96416,-3.66954 14.96416,-3.66954l-5.30113,25.94192z" fill="#eb59c1"/><path d="M154.17494,175.15956l8.12658,-28.12947c0,0 25.09629,12.19919 30.79028,17.06444c4.13192,3.53052 -1.30951,16.31206 -1.30951,16.31206l-7.41517,4.13355z" fill="#dd54b6"/><path d="M157.5719,153.76172l6.20958,-23.1598c0,0 11.02379,11.02751 15.21878,13.13267c6.21615,3.11946 19.2869,4.28453 19.2869,4.28453l-7.73028,24.88066c0,0 -16.41398,1.72416 -17.40564,1.14879c-4.06808,-2.36032 -15.57934,-20.28685 -15.57934,-20.28685z" fill="#ff77d8"/><path d="M159.08907,146.46972l4.16915,-13.4188l36.5828,6.90946l-6.64585,17.10585c0,0 -13.26105,1.42045 -16.88444,0.29469c-6.2458,-1.94052 -17.22166,-10.8912 -17.22166,-10.8912z" fill="#ee51c1"/></g><g><g><path d="M150.07499,174.5333l7.29366,-40.46462l8.02304,2.49273l-7.29366,40.46462z" fill="#a59da1"/><path d="M157.27843,134.2402c0,0 0.59272,-4.51987 2.68991,-5.21049c2.0972,-0.69067 7.02568,0.57544 7.02568,0.57544l-1.67946,7.13186z" fill="#b9b0b5"/><path d="M148.61647,185.22716l1.52277,-10.70298l7.98469,2.48082l-1.52277,10.70297z" fill="#8b8488"/></g><g><path d="M189.46465,183.21453l7.29366,-40.46461l4.33478,1.34678l-7.29365,40.46462z" fill="#a59da1"/><path d="M196.61468,143.74965l1.13309,-6.39288c0,0 3.00445,0.22098 3.67133,1.63209c0.66688,1.41111 -0.40313,5.28343 -0.40313,5.28343z" fill="#b9b0b5"/><path d="M187.99415,193.90474l1.52277,-10.70299l4.30841,1.3386l-1.52276,10.70299z" fill="#8b8488"/></g><path d="M146.98797,193.70159c0,0 -2.3091,-3.58953 -2.24839,-5.12529c0.06759,-1.70954 2.63561,-4.66663 2.63561,-4.66663l46.82482,9.94613c0,0 1.23094,2.82637 1.19247,4.37086c-0.05395,2.16482 -5.5322,5.60908 -5.5322,5.60908z" fill="#494547"/><path d="M166.13818,133.45574c0,0 -2.04376,-1.22907 -2.28468,-1.90527c-0.26457,-0.74256 1.57789,-2.35092 1.57789,-2.35092c0,0 11.80193,2.60714 16.93703,3.86524c5.98636,1.46666 16.00423,4.38667 16.00423,4.38667c0,0 0.14405,1.32638 -0.11472,1.87156c-0.25058,0.52799 -1.02885,1.46923 -1.02885,1.46923z" fill="#c2b8bd"/><path d="M147.68935,192.64121c0,0 -0.33795,-3.07397 -0.07198,-4.74597c0.22069,-1.38759 1.20137,-3.4467 1.20137,-3.4467l44.03011,9.43181c0,0 1.00158,3.61281 0.50824,5.20061c-0.52996,1.70577 -3.22991,3.55934 -3.22991,3.55934z" fill="#6f696b"/><path d="M156.69963,201.12639l1.65617,-5.33057l28.928,7.30732l-1.65616,5.33057z" fill="#333032"/><path d="M145.65006,197.82049c-0.86846,-0.94832 -2.03795,-2.84651 -2.03795,-2.84651l1.1927,-6.77035c0,0 1.68811,2.90401 2.43713,4.56242c0.53016,1.17385 11.19222,2.93735 11.19222,2.93735l-1.65616,5.33058c0,0 -10.25947,-2.26516 -11.12794,-3.21347z" data-paper-data="{&quot;index&quot;:null}" fill="#444043"/><g><path d="M161.03387,147.54388c0,0 -1.06135,-5.29549 -0.56955,-6.96704c0.3405,-1.15726 3.23706,-2.09948 3.23706,-2.09948l34.38048,7.5148c0,0 0.59508,3.45607 0.15544,4.95031c-0.44934,1.52721 -2.823,4.11622 -2.823,4.11622z" fill="#979797"/><path d="M161.40121,146.54166c0,0 -1.24298,-4.78134 -0.81931,-6.26003c0.29334,-1.0238 3.11731,-1.7606 3.11731,-1.7606l34.20944,7.9988c0,0 0.71492,3.11687 0.33618,4.43876c-0.38707,1.35101 -2.63418,3.5819 -2.63418,3.5819z" fill="#a2a2a2"/></g><g><path d="M158.40005,164.04512c0,0 -1.06135,-5.29549 -0.56955,-6.96704c0.3405,-1.15726 3.23705,-2.0995 3.23705,-2.0995l34.38047,7.5148c0,0 0.5951,3.45606 0.15546,4.9503c-0.44934,1.52721 -2.82298,4.11621 -2.82298,4.11621z" fill="#979797"/><path d="M158.76738,163.04292c0,0 -1.24297,-4.78133 -0.81929,-6.26003c0.29332,-1.02378 3.11731,-1.7606 3.11731,-1.7606l34.20944,7.99883c0,0 0.71491,3.11687 0.33618,4.43876c-0.38708,1.35101 -2.63418,3.58189 -2.63418,3.58189z" fill="#a2a2a2"/></g><g><path d="M155.72151,181.05106c0,0 -1.06135,-5.29549 -0.56955,-6.96704c0.3405,-1.15726 3.23705,-2.09949 3.23705,-2.09949l34.38047,7.5148c0,0 0.59508,3.45607 0.15545,4.95031c-0.44934,1.52721 -2.82298,4.11621 -2.82298,4.11621z" fill="#7a7a7a"/><path d="M156.0888,180.04889c0,0 -1.24299,-4.78133 -0.81931,-6.26003c0.29332,-1.02378 3.11731,-1.76058 3.11731,-1.76058l34.20947,7.99881c0,0 0.71489,3.11687 0.33618,4.43877c-0.38708,1.35101 -2.63418,3.58191 -2.63418,3.58191z" fill="#929292"/></g></g></g></g><path d="M149.48996,178.49185c0,0 0.14112,-1.75354 0.53556,-4.05056c1.15822,-6.7438 7.09562,-40.38296 7.09562,-40.38296l1.7486,5.04917l-5.48756,29.10727z" fill="#777275"/></g></g><g fill="#86c8f5" stroke-width="0"><path d="M198.45183,198.54535c4.65182,1.8786 3.4727,8.60813 0.0057,15.86772c-3.467,7.25958 -9.09064,11.92547 -12.5608,10.42155c-3.47014,-1.50391 -3.4727,-8.60813 -0.0057,-15.86772c3.467,-7.25958 7.20157,-12.58584 12.5608,-10.42155z" data-paper-data="{&quot;index&quot;:null}"/><path d="M174.51214,204.2859c3.467,-7.25958 6.3149,-10.94471 11.67409,-8.78044c4.65182,1.8786 4.3594,6.96703 0.89241,14.2266c-3.467,7.25959 -9.09063,11.92546 -12.56079,10.42155c-3.47014,-1.50391 -3.4727,-8.60813 -0.0057,-15.86772z" data-paper-data="{&quot;index&quot;:null}"/><path d="M160.82796,206.35946c3.467,-7.25958 7.68926,-13.69572 13.04849,-11.53146c4.65182,1.8786 2.98503,9.71804 -0.48197,16.97762c-3.467,7.25958 -7.84931,7.96944 -11.31947,6.46553c-3.47015,-1.50391 -4.71402,-4.65212 -1.24704,-11.91167z" data-paper-data="{&quot;index&quot;:null}"/><path d="M161.12319,194.9711c4.65182,1.8786 4.3594,6.96703 0.89241,14.2266c-3.467,7.25958 -7.84931,7.96944 -11.31947,6.46553c-3.47015,-1.50391 -4.71401,-4.65212 -1.24703,-11.91167c3.467,-7.25958 6.31489,-10.9447 11.67408,-8.78044z" data-paper-data="{&quot;index&quot;:null}"/></g></g></g></svg>