<svg version="1.1" xmlns="http://www.w3.org/2000/svg" xmlns:xlink="http://www.w3.org/1999/xlink" width="465.56563" height="159.54678" viewBox="0,0,465.56563,159.54678"><defs><linearGradient x1="500.37951" y1="192.04915" x2="501.09322" y2="196.80754" gradientUnits="userSpaceOnUse" id="color-1"><stop offset="0" stop-color="#1f1d20"/><stop offset="1" stop-color="#202022"/></linearGradient><linearGradient x1="500.09411" y1="187.18258" x2="500.91527" y2="192.65759" gradientUnits="userSpaceOnUse" id="color-2"><stop offset="0" stop-color="#302d31"/><stop offset="1" stop-color="#1f1e20"/></linearGradient><linearGradient x1="176.14282" y1="284.37791" x2="176.64563" y2="287.73049" gradientUnits="userSpaceOnUse" id="color-3"><stop offset="0" stop-color="#585758"/><stop offset="1" stop-color="#575758"/></linearGradient><linearGradient x1="164.66953" y1="296.28992" x2="165.06428" y2="298.92187" gradientUnits="userSpaceOnUse" id="color-4"><stop offset="0" stop-color="#363536"/><stop offset="1" stop-color="#353536"/></linearGradient><linearGradient x1="292.68537" y1="183.25001" x2="293.50689" y2="188.72723" gradientUnits="userSpaceOnUse" id="color-5"><stop offset="0" stop-color="#5e555b"/><stop offset="1" stop-color="#2b2629"/></linearGradient><linearGradient x1="279.97031" y1="164.25898" x2="280.56304" y2="168.21094" gradientUnits="userSpaceOnUse" id="color-6"><stop offset="0" stop-color="#72676e"/><stop offset="1" stop-color="#5e555b"/></linearGradient><linearGradient x1="170.32456" y1="194.75833" x2="171.20386" y2="200.62079" gradientUnits="userSpaceOnUse" id="color-7"><stop offset="0" stop-color="#5e555b"/><stop offset="1" stop-color="#4d454a"/></linearGradient><linearGradient x1="168.21062" y1="180.66371" x2="168.82801" y2="184.77994" gradientUnits="userSpaceOnUse" id="color-8"><stop offset="0" stop-color="#74686f"/><stop offset="1" stop-color="#5e555b"/></linearGradient></defs><g transform="translate(-40.3788,-163.10835)"><g data-paper-data="{&quot;isPaintingLayer&quot;:true}" fill-rule="nonzero" stroke="none" stroke-linecap="butt" stroke-linejoin="miter" stroke-miterlimit="10" stroke-dasharray="" stroke-dashoffset="0" style="mix-blend-mode: normal"><g><g stroke-width="0"><path d="M234.62788,260.44684l-12.39312,-13.65813l25.20499,-4.3771c0,0 -0.22174,5.92729 -0.0192,8.62558c0.19596,2.61018 1.21546,7.30865 1.21546,7.30865z" fill="#7f7d7e"/><path d="M234.75434,260.62692l-4.43101,-5.00505c0,0 2.85976,3.16592 6.1513,3.29383c2.37021,0.09209 4.18953,-0.49419 6.88893,-0.57465c2.69937,-0.08046 5.20439,0.21409 5.20439,0.21409z" fill="#6c6a6b"/></g><g><g><g><path d="M498.1352,197.25124l-2.7499,-4.45298c0,0 6.17111,0.75083 8.87215,1.24854c2.70108,0.49775 1.34816,1.84948 1.34816,1.84948z" fill="url(#color-1)" stroke-width="0"/><path d="M503.66865,186.84835c0,0 1.80853,2.08261 -0.62766,3.35085c-2.43617,1.26826 -5.12573,2.90836 -5.12573,2.90836l-1.78112,-5.331z" data-paper-data="{&quot;index&quot;:null}" fill="url(#color-2)" stroke-width="0"/><path d="M488.62306,198.67321l-0.31125,-2.07518l14.60917,-2.19114c0,0 1.36152,0.59898 1.89826,0.88886c0.48248,0.26059 -0.58797,1.0365 -0.58797,1.0365z" fill="#444444" stroke-width="NaN"/><path d="M488.36643,196.73497l-1.43763,-1.5579l12.47611,-1.87122l3.60004,1.1205c0,0 -4.13592,0.861 -6.41266,1.22003c-2.56769,0.40491 -8.22587,1.08854 -8.22587,1.08854z" fill="#535353" stroke-width="0"/><path d="M486.83813,195.32886l-0.4161,-0.58475l11.34689,-1.70189l1.74481,0.2699z" fill="#363636" stroke-width="0"/><path d="M488.62306,198.67321l-0.16884,-1.12577c0,0 6.4495,-0.50864 9.2974,-0.9358c2.41337,-0.36193 6.70328,-1.46408 6.70328,-1.46408c0,0 0.92311,0.32894 1.19782,0.49291c0.23174,0.13831 -0.17573,0.50491 -0.17573,0.50491c0,0 -4.62042,1.10201 -6.90856,1.44516c-3.08702,0.463 -9.94547,1.08263 -9.94547,1.08263z" fill="#3a3a3a" stroke-width="NaN"/><path d="M486.74213,194.71461l-0.67844,-0.79184l13.49074,-2.02338l-1.66534,1.17765z" fill="#242424" stroke-width="0"/><path d="M485.29263,194.22977l-0.24534,-1.63601c0,0 7.97325,-1.40437 10.93585,-1.84871c2.01844,-0.30273 5.12107,-0.55958 5.12107,-0.55958l-1.57267,1.74189z" fill="#3a3a3a" stroke-width="0"/><path d="M484.92541,192.65501l-0.30296,-2.01994c0,0 7.51972,-1.4614 10.79732,-1.95303c2.83625,-0.4254 7.73646,-0.82677 7.73646,-0.82677l-2.08846,2.37864c0,0 -3.6267,0.46055 -5.84633,0.7935c-2.95037,0.44252 -10.29605,1.62762 -10.29605,1.62762z" fill="#444444" stroke-width="0"/><path d="M484.5924,190.7256l-0.1262,-0.84165c0,0 7.7684,-1.29022 11.32585,-1.82378c2.47709,-0.37153 7.97666,-1.0713 7.97666,-1.0713l-0.72923,0.96998c0,0 -5.04089,0.46413 -7.97332,0.90395c-3.23078,0.48456 -10.4737,1.8628 -10.4737,1.8628z" fill="#535353" stroke-width="0"/><path d="M484.3507,189.98735l-0.0505,-0.33668c0,0 7.51617,-1.64004 10.93828,-2.15326c2.95869,-0.44376 8.40686,-0.74819 8.40686,-0.74819l0.08766,0.33111c0,0 -5.96688,0.72814 -9.176,1.20943c-3.25108,0.48762 -10.20625,1.6976 -10.20625,1.6976z" fill="#4e4e4e" stroke-width="0"/></g><g stroke-width="0"><g><g><g><path d="M482.76164,199.05887l-6.48362,-12.33841l0.29158,-1.78432c0,0 3.91532,2.67809 5.19691,5.0041c0.69576,1.26278 2.4336,8.90292 2.4336,8.90292z" fill="#383638"/><path d="M483.69865,198.21923c0,0 -0.03269,-0.61159 -1.01847,-2.94608c-1.07501,-2.54583 -2.99158,-5.93615 -3.53965,-6.9399c-1.23033,-2.25315 -1.99622,-2.27024 -1.99622,-2.27024l4.66062,-1.28736l6.92833,12.68848z" fill="#555355"/><path d="M477.22023,186.13792l-0.75879,-1.1364c0,0 1.87918,-1.09084 2.83017,-1.23343c0.89111,-0.13366 2.12169,0.4172 2.12169,0.4172l0.76953,1.20829z" fill="#686668"/></g><path d="M477.15168,199.90027l-6.48362,-12.3384l-0.03261,-1.71536c0,0 4.23953,2.60911 5.52105,4.93509c0.69577,1.26277 2.43361,8.90292 2.43361,8.90292z" fill="#383638"/><path d="M478.08864,199.0606c0,0 -0.03269,-0.6116 -1.01847,-2.94608c-1.07501,-2.54583 -2.99158,-5.93615 -3.53965,-6.9399c-1.23033,-2.25315 -1.99622,-2.27024 -1.99622,-2.27024l3.84476,-1.67058c0,0 1.2008,1.08815 1.57581,1.7749c1.06842,1.95666 6.16844,11.29673 6.16844,11.29673z" fill="#555355"/><path d="M471.61023,186.97925l-0.97454,-1.10404c0,0 2.09496,-1.12314 3.04596,-1.26579c0.89111,-0.13366 1.83401,0.46035 1.83401,0.46035l0.8932,1.18979z" fill="#686668"/><path d="M484.36055,197.11507c-0.12156,-0.81046 0.43694,-1.56599 1.24736,-1.68753c0.81047,-0.12157 1.56599,0.43694 1.68753,1.24736c0.12156,0.81046 -0.43694,1.56599 -1.24735,1.68753c-0.81047,0.12157 -1.56599,-0.43694 -1.68753,-1.24736z" fill="#312f31"/><path d="M484.57443,194.12096l-2.79996,-5.1886l1.55252,-0.37778l2.80956,5.25244z" fill="#444144"/></g><path d="M437.51758,200.82276l-5.32844,-10.14539l29.72629,-3.26883l0.9655,9.61015z" fill="#444444"/><path d="M449.43786,195.07564c0,0 0.55152,-0.61049 1.10195,-1.81033c0.50327,-1.09699 0.99376,-2.76613 1.30536,-3.28178c0.71135,-1.83226 3.13286,-1.7234 3.13286,-1.7234l-0.87188,0.79113l-3.53804,5.85489z" fill="#292929"/><path d="M453.76797,205.07338l-8.06959,-9.88381c0,0 3.53884,0.00645 5.06803,-1.28368c1.18829,-1.00259 0.70476,-3.59147 2.22306,-4.10326c4.35595,-1.46823 17.02374,-3.80692 17.02374,-3.80692c0,0 4.26409,6.58535 5.60928,9.30292c0.92866,1.87615 1.99301,6.19808 1.99301,6.19808z" fill="#4a464a"/><path d="M455.91504,191.49617c-4.60469,0.04747 -3.38212,-1.51509 -3.38212,-1.51509c0,0 0.59079,-1.4054 2.41579,-1.82691c4.47848,-1.03437 13.11152,-1.74586 14.81089,-2.02664c0.80142,-0.13245 0.44591,0.6367 0.44591,0.6367c0,0 -1.119,2.58048 -2.61477,3.0617c-1.49585,0.48124 -7.07101,1.6228 -11.67574,1.67027z" fill="#5e595e"/></g><g><path d="M443.0699,213.32679l-7.7645,-16.97156l18.74111,-2.52133l5.38839,3.56858l6.01712,-1.00212l4.92536,12.83072z" fill="#4d4846"/><path d="M447.76602,213.01387l19.03475,-12.35147l22.0388,-3.55059c0,0 1.91791,3.94204 2.2602,5.26039c0.17451,0.67218 0.28342,2.93455 0.28342,2.93455z" fill="#423d3b"/><path d="M442.76169,205.3605l-4.60471,-9.26563l0.81143,-0.12168l4.60471,9.26563z" fill="#363332"/><path d="M448.22622,212.13427l-0.18055,-1.20392c0,0 4.82867,-3.29814 13.79329,-4.64269c1.19108,-0.17864 5.76995,1.7085 6.97049,1.52848c7.61689,-1.14241 15.0724,-2.26061 17.90873,-2.68602c2.30995,-0.34643 4.47595,-1.98585 4.47595,-1.98585l0.3734,2.48955z" fill="#312e2c"/><path d="M448.68017,199.18352l-2.40891,-4.30568l8.21579,-1.23225l4.76486,3.75612l6.26556,-0.74347l-7.21675,3.05291z" fill="#585350"/><path d="M440.34,207.53856l-0.16734,-1.11571c0,0 7.40161,-4.89558 10.24696,-5.32236c4.28842,-0.64319 16.1273,-2.41883 16.1273,-2.41883l0.16734,1.11571c0,0 -12.04185,1.80606 -16.33018,2.44931c-2.78696,0.41795 -10.04411,5.29193 -10.04411,5.29193z" fill="#2b2827"/></g></g></g><g><g><g><path d="M115.7358,299.35506c0.86618,2.12902 0.94425,4.73584 -0.09548,5.15884c-1.03974,0.42301 -2.80365,-1.49791 -3.66984,-3.62702c-0.86618,-2.12902 -4.248,-10.2881 -3.2082,-10.71111c1.03974,-0.42301 6.10742,7.05017 6.97357,9.17927z" fill="#615e5f" stroke-width="0"/><g><path d="M152.42899,263.58796c-0.61161,-0.44177 -3.12104,-1.39245 -3.12104,-1.39245l9.38308,-4.31954l-4.86569,8.01029c0,0 -0.78471,-1.8565 -1.39638,-2.29832z" fill="#756a6a" stroke-width="0"/><path d="M143.25054,263.24835l-2.037,-13.58142l17.45812,-8.55071l2.9072,19.38323z" fill="#8a7c7c" stroke-width="0"/><path d="M104.46549,274.57348l3.90329,-18.92157l34.52716,-5.31333l6.36196,11.85415c0,0 -22.50186,4.96859 -29.97393,7.03391c-3.10176,0.85733 -14.81853,5.34689 -14.81853,5.34689z" fill="#7c787a" stroke-width="0"/><path d="M108.84253,258.01255l-0.36623,-1.44313c0,0 25.63744,-3.84525 33.69712,-5.05406c4.50942,-0.67637 15.02465,-8.69505 15.02465,-8.69505l0.24173,1.61163c0,0 -10.22714,7.95599 -14.59052,8.59566c-8.00081,1.17283 -34.00674,4.98502 -34.00674,4.98502z" fill="#535353" stroke-width="0"/><path d="M72.84582,280.0317l-2.98933,-19.93108c0,0 3.43471,-7.64818 10.25821,-10.99325c8.47505,-4.1547 25.4418,-4.89436 27.4896,-5.2015c1.57141,-0.23569 -11.21977,12.21597 -11.21977,12.21597l2.98933,19.93108z" fill="#8d898b" stroke-width="0"/><path d="M237.03606,208.74688l1.11853,-3.34719l106.39651,-15.81336l2.18725,14.58314c0,0 -37.089,7.42892 -49.23636,8.83006c-6.03271,0.69586 -60.46599,-4.2527 -60.46599,-4.2527z" fill="#c98cac" stroke-width="0"/><path d="M230.59247,311.84314l-6.41219,-12.11939c0,0 5.94739,5.01279 8.92324,5.65534c1.89603,0.40939 6.13201,0.16013 11.8137,-3.15678c4.57392,-2.67014 8.86805,-8.88668 8.86805,-8.88668l-9.34401,16.43036z" fill="#a08e97" stroke-width="0"/><path d="M313.12241,252.02417l-5.81571,-23.01335l18.13415,-4.13827l3.14406,20.96256c0,0 -6.07165,2.64901 -8.70258,3.74972c-1.21142,0.5068 -6.75986,2.43939 -6.75986,2.43939z" fill="#96858d" stroke-width="0"/><path d="M229.33073,315.82004l-0.82176,-5.47886c0,0 12.23663,0.25639 16.34207,-3.51561c1.99801,-1.8357 15.55854,-25.03622 23.01404,-37.91649c2.90949,-5.02654 4.8893,-8.48132 4.8893,-8.48132c0,0 2.76249,-4.22975 2.33898,-7.08067c-0.21307,-1.43414 -0.36813,-5.63635 -1.53327,-7.79878c-1.17558,-2.1818 -3.36048,-2.3175 -3.36048,-2.3175l-6.83136,-12.69951l19.61814,-2.79712l1.06428,26.71093l4.0966,1.9761c0,0 -8.55938,7.351 -12.40201,12.93847c-6.01237,8.7423 -24.63612,42.26031 -24.63612,42.26031z" fill="#918189" stroke-width="0"/><path d="M290.251,255.81122l-3.0425,-28.4675l13.66416,-1.77056l12.02924,10.33224l0.20511,16.4778z" fill="#96858d" stroke-width="0"/><path d="M286.05074,258.311l-3.0964,-3.72774l-0.38483,-26.4251l5.01112,-0.83724l3.57199,28.3707z" fill="#8f8187" stroke-width="0"/><path d="M311.90171,252.66867c0,0 1.73242,-7.00145 -0.40789,-12.15178c-1.23241,-2.96553 -6.38112,-4.18506 -7.13661,-6.00304c-1.44314,-3.47282 -3.6758,-8.84526 -3.6758,-8.84526l8.41549,3.15059c0,0 4.43848,6.62871 5.66162,10.75446c0.82185,2.77185 0.30028,9.29741 -0.23059,12.00498c-0.04476,0.22825 -1.22027,0.32033 -1.2468,0.4915c-0.06484,0.41809 0.92304,0.50387 0.92304,0.50387z" fill="#86787e" stroke-width="0"/><path d="M309.10712,230.33434c0,0 -3.64324,-3.45273 -8.41807,-3.71907c-5.40565,-0.30152 -22.35881,2.00243 -22.35881,2.00243l153.88907,-37.42132l4.75739,8.69231l9.48301,9.84499c0,0 -100.05841,12.40695 -120.41899,15.46073c-6.64397,0.99648 -16.9336,5.13998 -16.9336,5.13998z" fill="#df8db7" stroke-width="0"/><path d="M163.60812,299.96599l-10.12466,-35.15698c0,0 1.1083,-3.95886 1.57193,-4.24645c5.11179,-3.17112 35.21409,-18.45698 40.63565,-18.98062c5.93904,-0.57369 -7.24274,13.46539 -7.24274,13.46539c0,0 -13.94993,4.14085 -15.8292,8.72014c-2.55148,6.21733 4.81625,22.65991 4.81625,22.65991z" fill="#c77da3" stroke-width="0"/><path d="M230.7882,259.62641l-2.08195,-1.81654c0,0 5.20985,-9.48425 7.27647,-12.11256c2.13352,-2.71348 5.33033,-3.92111 5.33033,-3.92111l6.21132,1.39633c0,0 -4.5011,0.16692 -6.58416,2.21478c-1.78822,1.75806 -5.04218,5.3592 -7.35271,8.83266c-1.68078,2.52668 -2.79925,5.40639 -2.79925,5.40639z" fill="#414041" stroke-width="0"/><path d="M108.37151,257.02519l3.01307,-12.2722l48.09056,-7.21284c0,0 -2.20565,4.83614 -4.99912,7.24324c-2.74168,2.36253 -11.60927,7.068 -11.60927,7.068z" fill="#979395" stroke-width="0"/><path d="M108.99311,255.77633l2.22186,-12.15352l48.09056,-7.21284c0,0 -2.20565,4.83614 -4.99912,7.24324c-2.74168,2.36253 -11.60927,7.068 -11.60927,7.068z" fill="#bdb7ba" stroke-width="0"/><path d="M314.3308,252.62869l-1.92836,-0.23001l16.0433,-6.62771c0,0 -3.21581,2.56274 -5.55409,3.71926c-2.33826,1.15656 -8.56082,3.13847 -8.56082,3.13847z" fill="#887980" stroke-width="0"/><path d="M166.13524,300.05664c0,0 -3.86659,-10.00261 -6.32092,-18.26844c-2.46626,-8.30615 -4.75404,-16.09976 -5.30761,-19.64156c-0.09375,-0.60004 0.06313,-10.66533 0.48003,-11.25506c2.25034,-3.18344 11.05513,3.32621 16.394,1.40956c7.90509,-2.83792 26.726,-6.18057 26.726,-6.18057l-7.57248,6.50585c0,0 -18.80949,5.71828 -20.41272,11.15342c-2.16849,7.35161 8.41446,26.87054 8.41446,26.87054z" fill="#d486ae" stroke-width="0"/><path d="M166.73234,296.40894c0,0 -12.64973,-39.43146 -12.83218,-49.59384c-0.08539,-4.75486 -4.75398,-13.26432 -4.75398,-13.26432l51.14041,-0.62364l3.79176,15.68103c0,0 -32.14665,1.69368 -37.49626,8.8402c-3.57105,4.77051 7.3519,31.69122 7.3519,31.69122z" fill="#e490bb" stroke-width="0"/><g stroke-width="0"><path d="M294.28157,213.58026l-1.2274,-8.18334l9.25643,-1.38831l1.2274,8.18334z" fill="#454545"/><path d="M294.9913,212.70038l-1.43528,-7.16446l11.20092,-1.67996l1.08248,7.21738z" fill="#b0b0b0"/><path d="M294.09747,208.2952l-0.64586,-2.76509l11.41515,-1.71209l0.28294,1.88629c0,0 -7.65887,1.47477 -9.31887,1.86392c-0.55469,0.13001 -1.73335,0.72699 -1.73335,0.72699z" fill="#bebebe"/><path d="M306.0085,210.49231c0,0 -5.85841,-1.70528 -5.84964,-5.49618c0.01306,-5.63325 4.15958,-5.77176 4.15958,-5.77176l39.99503,-4.65037l1.49225,9.94931z" fill="#9c989a"/><path d="M307.58478,208.95222c0,0 -2.98121,-3.11117 -3.36013,-3.99153c-0.5617,-1.30498 0.9724,-4.52547 0.9724,-4.52547l41.14058,-6.13674l0.71518,7.46514z" fill="#898587"/><path d="M307.52482,209.16167l-1.29597,-1.76668l37.80887,-5.67072l0.28767,1.91792z" fill="#c1bcbf"/><path d="M306.90159,205.82327c0,0 -1.52149,-1.15508 -1.66052,-2.08206c-0.13009,-0.86712 0.85149,-3.31216 0.85149,-3.31216l38.23897,-5.73522l0.80899,5.39421z" fill="#0d0d0d"/><path d="M307.01688,206.592c0,0 -1.61102,-1.75216 -1.75006,-2.67915c-0.13009,-0.86712 0.94102,-2.71508 0.94102,-2.71508l38.23898,-5.73522l0.80899,5.39421z" fill="#2e2e2e"/><path d="M302.52655,209.19004c-3.06457,-2.64165 -2.25884,-5.12515 -2.25884,-5.12515c0,0 2.42195,3.79508 3.77691,4.49952c1.60423,0.83396 5.37672,1.64941 5.37672,1.64941l-3.45957,0.58983c0,0 -2.8959,-1.1487 -3.43517,-1.61358z" fill="#7d7a7c"/><path d="M309.63408,206.51257c0,0 -1.20715,-2.05572 -1.37678,-3.18662c-0.14911,-0.99413 0.41262,-3.2415 0.41262,-3.2415l4.76996,-0.71539c0,0 -0.12911,2.248 -0.00031,3.10662c0.17699,1.18009 0.96444,3.32146 0.96444,3.32146z" fill="#555555"/><path d="M318.15548,205.23459c0,0 0.28504,-2.59409 0.11539,-3.725c-0.14911,-0.99413 -1.07951,-2.70311 -1.07951,-2.70311l5.32378,-0.79848c0,0 -0.15768,1.75788 -0.02892,2.61654c0.17699,1.18009 0.99302,3.81157 0.99302,3.81157z" fill="#555555"/><path d="M327.37898,203.85115c0,0 0.28505,-2.59409 0.11541,-3.72499c-0.14911,-0.99413 -1.07951,-2.7031 -1.07951,-2.7031l5.24468,-0.78664c0,0 -0.15768,1.75788 -0.02892,2.61654c0.17699,1.18009 0.99302,3.81157 0.99302,3.81157z" fill="#555555"/><path d="M336.93537,202.41783c0,0 0.51361,-2.2688 0.34396,-3.39975c-0.14911,-0.99413 -1.30808,-3.02833 -1.30808,-3.02833l5.08646,-0.76288c0,0 1.11254,1.83705 1.24135,2.69572c0.17699,1.18009 -0.27718,3.73242 -0.27718,3.73242z" fill="#555555"/><path d="M308.51117,200.8202l-0.77643,-0.69249l35.16923,-5.27484l-1.39862,1.01871c0,0 -2.79877,0.41976 -5.23372,0.78498c-0.53076,0.07957 -1.58387,-0.09485 -2.37889,0.02432c-0.76867,0.1153 -1.27164,0.52316 -2.22716,0.66648c-1.49002,0.22345 -3.17118,0.47564 -4.93115,0.73959c-0.72966,0.10945 -1.42144,-0.17465 -2.17025,-0.06234c-0.66581,0.09989 -1.3875,0.59591 -2.05646,0.69628c-1.66028,0.24902 -3.30424,0.49556 -4.84987,0.72741c-0.70975,0.10646 -1.46381,-0.2237 -2.12416,-0.12466c-0.80618,0.12089 -1.50455,0.66894 -2.21091,0.77487c-2.88126,0.43213 -4.81162,0.72168 -4.81162,0.72168z" fill="#474747"/></g><g><path d="M172.87217,288.98728l3.25065,-3.38707c0,0 3.21119,2.36475 6.14664,2.82944c2.59625,0.41103 10.57366,-0.1825 10.57366,-0.1825l-1.97985,4.69995z" fill="#6d6a6b" stroke-width="0"/><path d="M165.8665,296.61085l8.03397,-8.67275c0,0 3.53366,1.75177 5.77662,2.08467c3.39329,0.50359 12.60189,0.64298 12.60189,0.64298l-3.59153,4.89417z" fill="#615e5f" stroke-width="0"/><path d="M171.10147,318.03878l-4.81509,-22.10336c0,0 4.42354,0.13733 9.1959,-0.54849c3.72499,-0.53534 7.60233,-1.97346 10.14888,-1.74023c4.47059,0.40939 39.45848,7.65569 39.45848,7.65569l3.96025,9.69465z" fill="#575455" stroke-width="0"/><path d="M188.44313,288.09346c6.03114,-6.53203 12.01609,-21.03221 12.87911,-23.76182c0.62173,-1.96645 0.51906,-7.2861 0.51906,-7.2861l8.6293,5.59679c0,0 8.82529,19.40235 11.86865,31.73411c0.85154,3.45056 3.92638,6.97871 2.97075,8.60493c-0.85621,1.45702 -17.29028,6.23738 -22.73826,6.28115c-11.46513,0.09219 -16.77933,3.70997 -21.26512,-0.95161c-4.48578,-4.66153 1.6064,-11.91567 1.6064,-11.91567c0,0 3.95995,-6.60121 5.5301,-8.30174z" fill="#504e4f" stroke-width="0"/><path d="M188.3268,254.91852c0,0 0.17001,-1.53498 0.91914,-2.31826c0.96342,-1.0074 4.38188,-3.22462 4.38188,-3.22462c0,0 9.57,0.65514 12.9163,2.67112c3.08742,1.85996 -1.59886,12.95903 -1.59886,12.95903l-2.77956,-5.00444z" fill="#464445" stroke-width="0"/><path d="M218.30931,298.17736c0,0 -8.25369,7.56365 -16.61879,8.99165c-8.06985,1.37761 -16.25984,-3.35182 -16.36498,-4.77415c-0.05697,-0.77063 7.29307,-5.21531 10.10498,-9.9057c3.12574,-5.21383 1.79703,-10.77985 2.83474,-12.96841c2.89699,-6.10999 9.73882,-17.42849 7.79309,-23.24789c-2.04051,-6.10292 -12.94713,-6.56417 -12.94713,-6.56417c0,0 3.47462,-2.79801 8.38588,-3.66593c2.09204,-0.36971 6.79486,0.32629 7.76503,0.57006c3.18147,0.79931 5.39284,2.12217 5.39284,2.12217c0,0 2.89435,-5.36801 6.41074,-6.20833c3.51637,-0.84029 22.57112,-0.71763 22.57112,-0.71763l-14.1632,14.85912z" fill="#555354" stroke-width="0"/><path d="M197.96162,280.16788c0,0 2.95699,-11.43789 6.82892,-17.51434c3.8719,-6.07639 7.43345,-9.82667 10.92674,-10.3506c2.52966,-0.37941 7.05939,7.65299 7.05939,7.65299l-6.68721,30.094c0,0 -13.97303,5.41152 -15.80188,3.17742c-1.44442,-1.7645 -2.32587,-13.05946 -2.32587,-13.05946z" fill="#585758" stroke-width="0"/><path d="M224.31676,303.82012c0,0 -3.76463,-5.69568 -3.89023,-8.73288c-0.17548,-4.2429 -0.62449,-16.97104 -0.62449,-16.97104l3.48289,10.03006c0,0 0.81239,9.73469 1.39305,12.71136c0.56022,2.87199 2.28974,4.80728 2.28974,4.80728z" fill="#3f3e3f" stroke-width="0"/><path d="M220.74854,286.29026c-0.44167,-1.62726 -1.32146,-9.2925 -1.32146,-9.2925c0,0 7.29165,-15.82455 8.97236,-18.75937c0.49269,-0.86035 3.55453,-3.0699 3.55453,-3.0699l-0.90807,5.04442c0,0 -1.46683,0.83072 -1.5738,1.32996c-0.11393,0.53189 0.90976,1.7695 0.90976,1.7695l-3.8143,9.14705c0,0 -1.4825,1.24423 -1.5847,1.7706c-0.10226,0.52647 0.7095,1.30285 0.7095,1.30285c0,0 -2.48552,9.41405 -2.96049,11.92711c-0.21961,1.16196 0.22533,2.54382 0.22533,2.54382c0,0 -1.76689,-2.08618 -2.20855,-3.71347z" fill="#474647" stroke-width="0"/><path d="M204.65753,267.50069l22.04741,5.02067c0,0 -1.02563,1.17745 -1.18026,1.7457c-0.1141,0.41933 0.33667,1.35489 0.33667,1.35489z" fill="#3f3e3e" stroke-width="NaN"/><path d="M209.05556,256.37231l22.2219,3.80485c0,0 -0.97761,0.99934 -1.10377,1.58087c-0.13149,0.60618 0.39399,1.61862 0.39399,1.61862z" fill="#3f3e3e" stroke-width="NaN"/><path d="M201.00706,286.58026c0,0 11.71522,6.02197 18.41497,11.06153c6.69971,5.03961 4.95951,6.52095 4.95951,6.52095z" fill="#636162" stroke-width="NaN"/><path d="M210.72707,261.80794c0,0 -5.50352,3.76199 -7.76325,7.23144c-2.25973,3.46947 -8.1012,20.70952 -8.53808,17.79658c-0.43689,-2.91296 9.46624,-25.35114 11.24129,-25.61736c0.67197,-0.10078 3.50521,-1.68077 4.34978,-1.56729c1.38654,0.18624 0.71028,2.15661 0.71028,2.15661z" fill="#918f91" stroke-width="0"/><path d="M170.63109,317.97843l13.5085,-3.93549c0,0 12.40728,-2.1969 15.53228,-2.50879c7.61026,-0.75959 30.29518,-2.0653 30.29518,-2.0653l0.49555,6.31745c0,0 -23.56264,7.13937 -30.57594,6.8609c-2.02894,-0.08056 -7.87296,0.17096 -12.28217,-0.53503c-8.62866,-1.38158 -16.97338,-4.13376 -16.97338,-4.13376z" fill="#626061" stroke-width="0"/><path d="M229.4166,315.58748c0,0 -0.59669,-4.25116 -1.38773,-6.49852c-0.88908,-2.52599 -3.68713,-7.91949 -3.68713,-7.91949l1.76261,-0.26436c0,0 2.36125,4.15252 3.16612,6.43926c0.88001,2.50021 1.90875,7.97875 1.90875,7.97875z" fill="#4a494a" stroke-width="0"/><path d="M229.34753,316.44353l-0.41663,-3.37269c0,0 0.59972,0.17773 0.86825,0.13745c0.31904,-0.04784 0.87968,-0.39959 0.87968,-0.39959l0.64299,3.11566c0,0 -0.70751,0.51831 -1.06724,0.61287c-0.27563,0.07252 -0.90704,-0.09372 -0.90704,-0.09372z" fill="#363536" stroke-width="0"/><path d="M224.76582,302.14269l-0.62195,-1.54549c0,0 0.3602,-0.41237 0.71581,-0.52564c0.33867,-0.10783 0.8735,-0.06395 0.8735,-0.06395l0.75361,1.64281c0,0 -0.40125,0.57328 -0.69608,0.65762c-0.2778,0.07945 -1.02491,-0.16537 -1.02491,-0.16537z" fill="#585758" stroke-width="0"/><path d="M187.96754,321.36816c0,0 -8.24579,-1.7491 -8.44796,-3.09707c-0.20317,-1.35466 5.79138,-3.43764 5.79138,-3.43764c0,0 10.78711,-1.86134 15.71491,-2.42591c2.75876,-0.31603 11.33475,-0.67307 11.33475,-0.67307c0,0 7.36753,-0.03901 8.34446,0.97909c1.06557,1.11052 -2.33432,4.49387 -2.33432,4.49387c0,0 -12.38939,3.17886 -16.34123,3.56104c-1.40382,0.13576 -14.06186,0.59978 -14.06186,0.59978z" fill="#6b696a" stroke-width="0"/><path d="M176.67567,316.08305l-1.90572,0.51923c0,0 0.11005,-3.48959 2.9842,-2.6646c2.8742,0.82505 21.48827,-2.98951 21.48827,-2.98951z" fill="#4b4949" stroke-width="0"/><path d="M170.6819,317.8252c0,0 -1.94726,0.48579 -3.01674,-3.03729c-0.54135,-1.78337 -4.36712,-15.56044 -4.36712,-15.56044l3.26462,-3.42116c0,0 1.56327,5.82634 2.19765,8.66589c0.84368,3.77659 2.83459,13.21611 2.83459,13.21611z" fill="#3f3d3e" stroke-width="0"/><path d="M177.01858,316.19946c0,0 2.83726,-2.60781 18.66603,-5.32276c1.30719,-0.22418 -1.78005,0.23457 7.59094,-0.65788c9.37102,-0.89252 13.46037,0.02373 13.46037,0.02373c0,0 -15.05815,1.17714 -21.19236,2.0972c-6.99227,1.0487 -18.525,3.8598 -18.525,3.8598z" fill="#838082" stroke-width="0"/><path d="M177.61818,286.14589c0,0 -3.99777,2.81149 -5.90917,4.73179c-2.14834,2.15837 -6.35307,7.58787 -6.35307,7.58787l-1.01333,-1.46755c0,0 3.14937,-4.36915 5.09421,-6.32311c2.12638,-2.1363 7.16805,-5.99661 7.16805,-5.99661z" fill="#4a494a" stroke-width="0"/><path d="M178.50358,285.75247l-3.2724,2.19017c0,0 -0.00056,-0.65357 -0.15495,-0.87712c-0.18343,-0.26563 -0.77346,-0.58972 -0.77346,-0.58972l2.84258,-2.24822c0,0 0.81897,0.36927 1.06644,0.64711c0.18965,0.21292 0.2917,0.87771 0.2917,0.87771z" fill="url(#color-3)" stroke-width="0"/><path d="M166.14884,297.55967l-2.51344,3.13731l-0.46601,-2.13714l1.75585,-2.30817c0,0 0.74381,0.06045 0.95343,0.28452c0.19749,0.21115 0.2701,1.02348 0.2701,1.02348z" fill="url(#color-4)" stroke-width="0"/></g><path d="M291.22423,254.55647c0,0 0.26175,-4.50731 0.55348,-5.95573c0.19799,-0.98323 2.3328,-2.75105 2.3328,-2.75105l16.79882,-2.74019c0,0 -0.40308,5.92303 -0.57729,7.33077c-0.07633,0.61666 -1.02779,1.45973 -1.02779,1.45973z" fill="#665b60" stroke-width="0"/><path d="M240.43987,243.7126c0,0 -3.98397,-0.98237 -9.02886,-1.39084c-3.20702,-0.25969 -7.51389,-0.18683 -9.33863,0.19383c-5.30509,1.10663 -7.03904,6.52869 -7.03904,6.52869c0,0 -3.58056,-1.80464 -5.79164,-2.33728c-2.06397,-0.49718 -6.51737,-0.84137 -6.51737,-0.84137c0,0 23.53262,-8.67774 27.25516,-9.82267c7.13635,-2.19493 33.58048,-5.76534 33.58048,-5.76534l8.27401,13.20455z" fill="#8b7c84" stroke-width="0"/><g stroke-width="0"><path d="M292.52296,253.40837c0,0 0.08118,-2.63747 0.35433,-3.58326c0.28316,-0.98062 2.28665,-2.34532 2.28665,-2.34532l14.3693,-2.15517c0,0 0.52784,0.9148 0.40447,1.67935c-0.16772,1.03948 -2.50604,4.16828 -2.50604,4.16828z" fill="#585852"/><path d="M292.41239,252.67131c0,0 0.19176,-1.90037 0.4649,-2.84613c0.28316,-0.98062 2.1761,-3.08241 2.1761,-3.08241l14.36929,-2.15516c0,0 0.6384,1.6519 0.51507,2.41646c-0.16772,1.03948 -2.61664,3.43116 -2.61664,3.43116z" fill="#797971"/><path d="M307.75154,245.33933c-1.06366,-0.02039 -12.59792,1.43516 -12.59792,1.43516l14.34963,-2.15221l0.36515,2.43462c0,0 -1.0532,-1.69713 -2.11686,-1.71757z" fill="#85857b"/></g><path d="M291.24362,235.22894l-0.76978,-5.13237l7.05697,-1.05846l2.05287,4.93993z" fill="#7c6e75" stroke-width="0"/><path d="M277.01557,210.64378l-5.33659,-7.42182l1.36411,-0.20458l7.31765,7.58135z" fill="#d495b6" stroke-width="0"/><path d="M237.31183,208.88434l12.61455,-5.01622l21.95285,-0.65087l5.15894,7.409z" fill="#df9cbe" stroke-width="0"/><path d="M292.14971,240.17683l-0.24054,-1.60385l10.74584,-1.61171l1.20286,1.45955z" fill="#7c6e75" stroke-width="0"/><path d="M250.22379,234.17495c0,0 -17.75529,3.87478 -23.25155,5.20498c-8.32259,2.01408 -24.85914,6.84558 -24.85914,6.84558c0,0 14.19888,-6.61993 27.332,-10.12273c14.23967,-3.79797 57.58581,-11.77286 57.58581,-11.77286l0.80233,5.34921z" fill="#75686e" stroke-width="0"/><path d="M244.68276,243.87462l-3.29205,-0.08345c0,0 9.30875,-3.80724 14.70234,-3.84488c5.39361,-0.03766 15.32407,3.63536 15.32407,3.63536z" fill="#7c6e76" stroke-width="0"/><path d="M198.14274,246.77957c0,0 -34.283,-10.42673 -35.84997,-14.86352c-1.42335,-4.0303 29.84014,-2.10132 30.11858,-2.25253c4.87166,-2.64573 74.88935,-20.44287 74.88935,-20.44287l27.32144,2.7675l52.09353,-8.39101l9.24098,12.34127c0,0 -60.70479,10.28671 -84.184,13.97308c-8.15026,1.27963 -24.89242,3.13576 -39.8579,6.53341c-11.54388,2.62085 -28.3943,9.513 -28.3943,9.513z" fill="#ee96c3" stroke-width="0"/><path d="M72.30004,278.33759l0.30081,-20.42452c0,0 -1.14672,-6.96105 5.67682,-10.30612c8.47505,-4.1547 25.4418,-4.89435 27.4896,-5.20149c1.57141,-0.23569 -11.21978,12.21597 -11.21978,12.21597l2.98934,19.93106z" fill="#c4b4b3" stroke-width="0"/><g stroke-width="0"><path d="M347.64151,218.58307l-5.07162,-14.55161l92.7341,-7.06846l0.11295,5.85498l-46.18352,11.83822z" fill="#ad6d8e"/><path d="M371.56904,200.49772l5.96525,-9.25993l26.16277,-6.07685l-2.71454,10.92526z" fill="#8d788b"/><path d="M346.55613,205.45118l-2.40811,-16.05571l33.45637,1.83597l-3.5092,7.47219z" fill="#857183"/><path d="M388.01308,195.87526l15.62218,-10.70383l28.09325,-0.39865l0.73965,6.86017z" fill="#947e92"/><path d="M342.34295,205.4678l0.9681,-13.05397l0.97638,-3.24452l2.23435,14.89723z" fill="#756474"/><path d="M348.4299,215.21449l-2.50401,-11.83217l42.59013,-8.05513l1.16915,16.06132z" fill="#746373"/><path d="M389.6753,211.37433c0,0 -0.55978,-6.29406 -0.78509,-9.13624c-0.19292,-2.43341 -0.4848,-6.88165 -0.4848,-6.88165l43.84596,-5.65694l3.22381,8.01043z" fill="#867284"/><path d="M342.37248,205.3921l3.75597,-2.11137l2.33229,11.93683z" fill="#6f5e6d"/><path d="M424.57705,185.73656l-20.09789,-0.38693l26.97098,-0.36818l0.16626,3.56018c0,0 -0.54288,-1.50538 -1.84239,-2.02329c-0.86929,-0.34642 -5.19697,-0.78183 -5.19697,-0.78183z" fill="#978195"/><path d="M386.26119,195.48103c0,0 7.37242,-4.6098 9.91906,-6.36099c1.85515,-1.27568 3.95445,-3.17917 3.95445,-3.17917l2.5225,-0.26447l-13.77673,9.41168z" fill="#9c859a"/><path d="M372.15927,198.41347c0,0 0.89359,-2.91712 2.02866,-4.45274c1.13504,-1.53564 3.29683,-2.6842 3.29683,-2.6842l-2.89118,6.77178z" fill="#806b7d"/><path d="M404.93597,183.21107l1.25931,-5.98634l15.58564,1.43754l6.48735,5.49858z" fill="#55494f"/><path d="M402.84597,186.35594c0,0 0.95324,-0.942 1.42068,-1.60341c0.35211,-0.49822 0.82712,-1.96954 0.82712,-1.96954l22.6602,0.64608c0,0 0.93198,0.36277 1.56001,0.59787c0.65633,0.2457 2.29682,0.84602 2.29682,0.84602z" fill="#685960"/><path d="M405.35861,182.2455l0.96007,-4.78065l14.48336,1.19178c0,0 -8.14551,-0.32816 -12.53924,0.58834c-2.54863,0.53165 -2.90413,3.00051 -2.90413,3.00051z" fill="#41383c"/></g><path d="M68.09504,239.24878l-0.77255,-5.15075c0,0 21.89737,-4.59379 43.62106,-7.79442c12.94536,-1.90727 26.60209,-2.34004 33.39483,-3.71285c15.31623,-3.09548 24.99998,-9.11055 24.99998,-9.11055l-4.69179,11.46587z" fill="#ffa1d1" stroke-width="0"/><path d="M67.61589,253.43433l-0.249,-16.22514c0,0 54.49577,-6.08996 72.08019,-9.17291c10.41626,-1.82622 23.70405,-7.62039 23.70405,-7.62039l2.1718,14.4804c0,0 -66.75438,10.01209 -82.84677,12.42569c-6.6166,0.99237 -10.87263,32.69927 -10.87263,32.69927z" fill="#ee96c3" stroke-width="0"/><path d="M256.18869,302.49912l7.16078,-14.82195c0,0 7.45691,-17.15302 15.73534,-25.33421c2.10369,-2.07896 7.03856,-4.02903 7.03856,-4.02903c0,0 -6.48368,6.01332 -8.63574,9.15875c-5.08224,7.42814 -21.29885,35.02637 -21.29885,35.02637z" fill="#70646b" stroke-width="0"/><path d="M341.51766,224.13527l-8.90107,-16.86813l1.33516,-0.20026c0,0 2.6957,5.10853 4.12011,7.80793c0.20293,0.38458 1.73395,1.38974 1.98533,1.86614c0.4358,0.82584 -0.371,1.19306 0.11604,2.11607c1.35621,2.57014 2.67957,5.078 2.67957,5.078z" fill="#795467" stroke-width="0"/><path d="M166.01231,235.22949c0,0 -11.33795,-4.92508 -11.22603,-8.75902c0.06699,-2.29555 15.54379,-12.65792 15.54379,-12.65792l67.99222,-8.50694l-1.15934,3.30461l30.10066,0.7925l-67.06006,36.93039c0,0 -1.61529,-5.43433 1.52323,-8.79519c3.05033,-3.26639 17.05069,-11.09458 17.05069,-11.09458c0,0 -33.84616,5.02685 -41.06931,6.02255c-2.40979,0.33217 -11.69591,2.76357 -11.69591,2.76357z" fill="#f399c8" stroke-width="0"/><g><path d="M168.83847,215.982l-0.48031,-3.20252l174.60074,-26.1873l0.48031,3.20252z" fill="#584f54" stroke-width="0"/><path d="M337.26351,187.69733l-0.40588,-2.70607l3.02149,-0.45316l3.07186,2.30625z" fill="#685d63" stroke-width="0"/><g fill="#685d63" stroke-width="0"><g><g><g><path d="M330.71406,188.93162l-0.44153,-2.94411l3.83816,-0.57568l0.44153,2.94411z"/><path d="M324.48618,189.8657l-0.44153,-2.94411l3.83817,-0.57567l0.44153,2.94411z"/></g><g><path d="M318.49333,190.76457l-0.44153,-2.94412l3.83817,-0.57567l0.44153,2.94411z"/><path d="M312.26546,191.69864l-0.44153,-2.94411l3.83816,-0.57567l0.44153,2.94412z"/></g></g><g><g><path d="M306.15505,192.61506l-0.44153,-2.94412l3.83816,-0.57567l0.44153,2.94411z"/><path d="M299.92715,193.54918l-0.44153,-2.94411l3.83816,-0.57568l0.44153,2.94412z"/></g><g><path d="M293.93436,194.44798l-0.44153,-2.94411l3.83816,-0.57567l0.44153,2.94411z"/><path d="M287.70646,195.38205l-0.44153,-2.94411l3.83815,-0.57569l0.44153,2.94412z"/></g></g></g><g><g><g><path d="M287.4715,195.41735l-0.44153,-2.94411l3.83816,-0.57567l0.44153,2.94411z"/><path d="M281.24364,196.3514l-0.44153,-2.94411l3.83817,-0.57567l0.44153,2.94411z"/></g><g><path d="M275.25077,197.25025l-0.44153,-2.94412l3.83816,-0.57567l0.44153,2.94411z"/><path d="M269.02287,198.18431l-0.44153,-2.94411l3.83815,-0.57569l0.44153,2.94412z"/></g></g><g><g><path d="M262.91258,199.10077l-0.44153,-2.94412l3.83817,-0.57567l0.44153,2.94411z"/><path d="M256.68466,200.03488l-0.44153,-2.94411l3.83817,-0.57567l0.44153,2.94412z"/></g><g><path d="M250.6918,200.93372l-0.44153,-2.94411l3.83816,-0.57568l0.44153,2.94412z"/><path d="M244.46395,201.86775l-0.44153,-2.94411l3.83817,-0.57567l0.44153,2.94411z"/></g></g></g></g><g><g fill="#685d63" stroke-width="0"><g><g><path d="M238.31358,202.79024l-0.44153,-2.94412l3.83817,-0.57567l0.44153,2.94411z"/><path d="M232.08573,203.72428l-0.44153,-2.94411l3.83817,-0.57567l0.44153,2.94412z"/></g><g><path d="M226.09288,204.62317l-0.44153,-2.94411l3.83817,-0.57567l0.44153,2.94412z"/><path d="M219.86502,205.55719l-0.44153,-2.94411l3.83816,-0.57568l0.44153,2.94412z"/></g></g><g><g><path d="M213.75469,206.47369l-0.44153,-2.94412l3.83817,-0.57567l0.44153,2.94411z"/><path d="M207.52677,207.40769l-0.44153,-2.94411l3.83817,-0.57567l0.44153,2.94412z"/></g><g><path d="M201.53385,208.30658l-0.44153,-2.94411l3.83817,-0.57567l0.44153,2.94412z"/><path d="M195.30601,209.2407l-0.44153,-2.94411l3.83816,-0.57568l0.44153,2.94411z"/></g></g></g><g><g fill="#685d63" stroke-width="0"><g><path d="M195.07105,209.27591l-0.44153,-2.94412l3.83817,-0.57567l0.44153,2.94411z"/><path d="M188.84315,210.20999l-0.44153,-2.94411l3.83816,-0.57568l0.44153,2.94412z"/></g><g><path d="M182.85032,211.10883l-0.44153,-2.94411l3.83816,-0.57568l0.44153,2.94412z"/><path d="M176.62243,212.04285l-0.44153,-2.94411l3.83816,-0.57568l0.44153,2.94411z"/></g></g><g fill="none" stroke-width="1" font-family="sans-serif" font-weight="normal" font-size="12" text-anchor="start"><g/><g/></g></g></g><path d="M168.46571,213.01433l2.26013,-3.1059l3.02149,-0.45316l0.40588,2.70607z" data-paper-data="{&quot;index&quot;:null}" fill="#685d63" stroke-width="0"/></g><path d="M229.62512,237.09562l-2.48359,0.64555c0,0 1.27954,-2.78815 10.60126,-5.3266c7.06728,-1.92449 27.20855,-6.27151 39.27216,-8.83494c5.60202,-1.19041 60.14363,-18.4734 60.14363,-18.4734l5.13918,-0.78527c0,0 -59.45416,19.68094 -65.0554,20.84776c-12.38593,2.5801 -33.20661,6.9539 -39.20143,8.438c-3.26334,0.80789 -8.41569,3.48887 -8.41569,3.48887z" fill="#70475c" stroke-width="0"/><path d="M332.24158,240.9453l-4.59557,2.5557l-2.8073,-18.72205c0,0 7.71246,-1.10779 15.25509,-2.19119c21.65264,-3.11017 125.71674,-18.0578 125.71674,-18.0578l0.9978,6.65282z" fill="#5a5959" stroke-width="0"/><path d="M331.57817,242.69143l0.63295,-3.1346l134.59307,-28.48408l-10.03228,12.84168z" fill="#4b4a4a" stroke-width="0"/><path d="M453.49434,224.21477c0,0 -6.31925,-2.31303 -9.52997,-3.27554c-1.72067,-0.51579 -8.23706,-2.05056 -8.23706,-2.05056c0,0 8.34363,1.6848 11.79185,2.1262c1.23061,0.15755 2.45197,0.72544 3.8199,1.05433c0.44111,0.10604 1.83512,-2.89308 3.45875,-4.87013c0.48532,-0.59094 1.68679,-0.40251 2.15729,-0.80759c1.07862,-0.92859 1.27178,-2.06121 1.27178,-2.06121c0,0 0.47159,0.86921 -0.55384,2.25039c-0.27976,0.37686 -2.0105,0.99271 -2.2789,1.39733c-1.07564,1.62181 -1.82917,3.35176 -2.04324,3.98167c-0.59737,1.75785 1.59059,2.03805 1.59059,2.03805z" fill="#414040" stroke-width="0"/><path d="M166.00802,235.53088l2.1268,-11.54189l6.83603,-1.65655c0,0 -0.54734,2.75991 -0.86991,4.38648c-0.08123,0.40967 11.29222,-3.27421 11.73988,-2.66281c0.83058,1.13431 -4.12219,5.67911 -4.3251,6.70205c-0.23195,1.1695 -8.78142,2.852 -8.78142,2.852z" fill="#303030" stroke-width="0"/><path d="M165.81116,235.18621l2.14732,-10.70053c0,0 3.16049,0.84518 3.30658,1.81922c0.26581,1.7724 -0.43732,7.72972 -0.43732,7.72972z" fill="#252525" stroke-width="0"/><path d="M328.02203,246.13003l-0.43791,-2.91974l5.02476,-3.73907l-0.78651,3.10336c0,0 -0.88029,1.48223 -1.54863,2.10754c-0.58811,0.55022 -2.25171,1.44786 -2.25171,1.44786z" fill="#383838" stroke-width="0"/><g><g fill="#4b4b4b" stroke-width="0"><g data-paper-data="{&quot;origPos&quot;:null}"><g data-paper-data="{&quot;origPos&quot;:null}"><path d="M394.62392,237.52715l-0.33711,-2.24761l3.70853,-0.55623l0.33711,2.24761z" data-paper-data="{&quot;origPos&quot;:null}"/><path d="M388.4262,238.34182l-0.33711,-2.24761l3.70852,-0.55623l0.33711,2.2476z" data-paper-data="{&quot;origPos&quot;:null}"/></g><g data-paper-data="{&quot;origPos&quot;:null}"><path d="M407.00256,235.78544l-0.33711,-2.24761l3.70853,-0.55623l0.33711,2.2476z" data-paper-data="{&quot;origPos&quot;:null}"/><path d="M400.80482,236.60009l-0.33711,-2.2476l3.70852,-0.55623l0.33711,2.24761z" data-paper-data="{&quot;origPos&quot;:null}"/></g></g><g data-paper-data="{&quot;origPos&quot;:null,&quot;index&quot;:null}"><g data-paper-data="{&quot;origPos&quot;:null}"><path d="M425.96099,232.7122l-0.33711,-2.24761l3.70853,-0.55623l0.33711,2.2476z" data-paper-data="{&quot;origPos&quot;:null}"/><path d="M432.12496,231.67276l-0.33712,-2.2476l3.70853,-0.55623l0.3371,2.24759z" data-paper-data="{&quot;origPos&quot;:null}"/></g><g data-paper-data="{&quot;origPos&quot;:null}"><path d="M413.61608,234.67861l-0.33711,-2.24761l3.70852,-0.55623l0.33712,2.2476z" data-paper-data="{&quot;origPos&quot;:null}"/><path d="M419.78009,233.63924l-0.33711,-2.2476l3.70853,-0.55623l0.33711,2.2476z" data-paper-data="{&quot;origPos&quot;:null}"/></g></g></g><path d="M351.1518,235.70988l-2.01886,-13.46056l83.53963,-12.52959l2.01886,13.46056z" data-paper-data="{&quot;origPos&quot;:null}" fill="#444444" stroke-width="0"/><path d="M351.94966,240.36531l-0.70933,-4.72954l83.29409,-12.49278l0.70933,4.72955z" data-paper-data="{&quot;origPos&quot;:null}" fill="#414141" stroke-width="0"/><path d="M352.19536,241.76864l-0.23991,-1.59973l83.28345,-12.49118l0.23993,1.59972z" data-paper-data="{&quot;origPos&quot;:null}" fill="#3f3f3f" stroke-width="0"/><g stroke-width="0"><g data-paper-data="{&quot;origPos&quot;:null}" fill="#5a5a5a"><g data-paper-data="{&quot;origPos&quot;:null}"><path d="M393.9566,229.37016l-2.03947,-13.5979l3.53193,-0.52972l2.03947,13.5979z" data-paper-data="{&quot;origPos&quot;:null}"/></g><g data-paper-data="{&quot;origPos&quot;:null}"><path d="M399.96086,228.46962l-2.03947,-13.5979l3.53194,-0.52972l2.03947,13.5979z" data-paper-data="{&quot;origPos&quot;:null}"/><path d="M406.14176,227.54254l-2.03945,-13.59791l3.53193,-0.52972l2.03947,13.5979z" data-paper-data="{&quot;origPos&quot;:null}"/></g></g><g data-paper-data="{&quot;origPos&quot;:null}" fill="#5a5a5a"><g data-paper-data="{&quot;origPos&quot;:null}"><path d="M412.67581,226.56255l-2.03947,-13.5979l3.53193,-0.52972l2.03946,13.59791z" data-paper-data="{&quot;origPos&quot;:null}"/><path d="M418.85664,225.63551l-2.03947,-13.5979l3.53194,-0.52972l2.03945,13.59791z" data-paper-data="{&quot;origPos&quot;:null}"/></g><g data-paper-data="{&quot;origPos&quot;:null}"><path d="M424.86095,224.73497l-2.03945,-13.59791l3.53193,-0.52972l2.03945,13.59791z" data-paper-data="{&quot;origPos&quot;:null}"/><path d="M431.04183,223.80793l-2.03945,-13.59791l3.53193,-0.52972l2.03947,13.5979z" data-paper-data="{&quot;origPos&quot;:null}"/></g></g><path d="M397.54918,228.83134l-0.58267,2.03998l-5.17701,0.82001l-1.59089,-9.66744l1.66025,-6.243l2.10766,13.58768z" fill="#3a3a3a"/><path d="M403.55104,227.9311l-0.58267,2.03999l-5.17702,0.82003l-1.59088,-9.66744l1.66025,-6.24299l2.10766,13.58767z" fill="#3a3a3a"/><path d="M409.68928,227.0105l-0.58267,2.03999l-5.17701,0.82003l-1.59089,-9.66744l1.66025,-6.24299l2.10766,13.58768z" fill="#3a3a3a"/><path d="M416.30493,226.01827l-0.58267,2.03999l-5.17701,0.82003l-1.59089,-9.66744l1.66025,-6.24299l2.10766,13.58768z" fill="#3a3a3a"/><path d="M422.51141,225.08742l-0.58267,2.03999l-5.17701,0.82003l-1.59089,-9.66744l1.66025,-6.24299l2.10766,13.58767z" fill="#3a3a3a"/><path d="M428.44501,224.19743l-0.58267,2.03998l-5.17701,0.82001l-1.59089,-9.66744l1.66025,-6.24299l2.10766,13.58768z" fill="#3a3a3a"/><path d="M434.65927,223.26541l-0.58267,2.03998l-5.17701,0.82003l-1.59088,-9.66744l1.66025,-6.243l2.10766,13.58768z" fill="#3a3a3a"/></g><g stroke-width="0"><g data-paper-data="{&quot;origPos&quot;:null}" fill="#5a5a5a"><g data-paper-data="{&quot;origPos&quot;:null}"><path d="M351.20576,235.7821l-2.03945,-13.59791l3.53194,-0.52972l2.03947,13.5979z" data-paper-data="{&quot;origPos&quot;:null}"/></g><g data-paper-data="{&quot;origPos&quot;:null}"><path d="M357.20999,234.88161l-2.03947,-13.5979l3.53193,-0.52972l2.03947,13.5979z" data-paper-data="{&quot;origPos&quot;:null}"/><path d="M363.39082,233.95455l-2.03947,-13.5979l3.53194,-0.52972l2.03945,13.59791z" data-paper-data="{&quot;origPos&quot;:null}"/></g></g><g data-paper-data="{&quot;origPos&quot;:null}" fill="#5a5a5a"><g data-paper-data="{&quot;origPos&quot;:null}"><path d="M369.92494,232.97457l-2.03945,-13.59791l3.53195,-0.52972l2.03947,13.5979z" data-paper-data="{&quot;origPos&quot;:null}"/><path d="M376.10586,232.04749l-2.03947,-13.5979l3.53194,-0.52972l2.03945,13.59791z" data-paper-data="{&quot;origPos&quot;:null}"/></g><g data-paper-data="{&quot;origPos&quot;:null}"><path d="M382.1101,231.14695l-2.03947,-13.5979l3.53194,-0.52972l2.03945,13.59791z" data-paper-data="{&quot;origPos&quot;:null}"/><path d="M388.29103,230.21994l-2.03945,-13.59791l3.53194,-0.52972l2.03946,13.59791z" data-paper-data="{&quot;origPos&quot;:null}"/></g></g><path d="M354.79828,235.24329l-0.58267,2.03999l-2.69318,0.44751l-0.30675,-1.95022z" fill="#3a3a3a"/><path d="M360.80016,234.34314l-0.58267,2.03999l-5.17701,0.82003l-1.59088,-9.66744l1.66025,-6.24299l2.10766,13.58768z" fill="#3a3a3a"/><path d="M366.93832,233.42246l-0.58267,2.03998l-5.17701,0.82003l-1.5909,-9.66743l1.66025,-6.243l2.10766,13.58768z" fill="#3a3a3a"/><path d="M373.55401,232.43021l-0.58267,2.03998l-5.17701,0.82003l-1.59088,-9.66744l1.66025,-6.24299l2.10766,13.58768z" fill="#3a3a3a"/><path d="M379.76056,231.49938l-0.58267,2.03998l-5.17701,0.82001l-1.59089,-9.66744l1.66025,-6.24299l2.10766,13.58768z" fill="#3a3a3a"/><path d="M385.69413,230.60936l-0.58267,2.03998l-5.17701,0.82001l-1.59089,-9.66744l1.66025,-6.243l2.10766,13.58768z" fill="#3a3a3a"/><path d="M391.90845,229.67735l-0.58267,2.03999l-5.17701,0.82001l-1.59089,-9.66744l1.66025,-6.24299l2.10766,13.58768z" fill="#3a3a3a"/></g><g><g data-paper-data="{&quot;origPos&quot;:null}"><g data-paper-data="{&quot;origPos&quot;:null}" fill="none" stroke-width="1" font-family="sans-serif" font-weight="normal" font-size="12" text-anchor="start"/><g data-paper-data="{&quot;origPos&quot;:null}" fill="#4b4b4b" stroke-width="0"><path d="M358.81727,243.09026l-0.33711,-2.24761l3.70852,-0.55623l0.33712,2.2476z" data-paper-data="{&quot;origPos&quot;:null}"/><path d="M352.61951,243.90493l-0.33711,-2.24761l3.70852,-0.55623l0.33711,2.24761z" data-paper-data="{&quot;origPos&quot;:null}"/></g></g><g data-paper-data="{&quot;origPos&quot;:null,&quot;index&quot;:null}" fill="#4b4b4b" stroke-width="0"><g data-paper-data="{&quot;origPos&quot;:null}"><path d="M377.77569,240.01693l-0.33711,-2.2476l3.70853,-0.55623l0.33711,2.2476z" data-paper-data="{&quot;origPos&quot;:null}"/><path d="M383.9397,238.97754l-0.3371,-2.24759l3.70853,-0.55623l0.33711,2.2476z" data-paper-data="{&quot;origPos&quot;:null}"/></g><g data-paper-data="{&quot;origPos&quot;:null}"><path d="M365.43073,241.98345l-0.33711,-2.24761l3.70853,-0.55623l0.33711,2.2476z" data-paper-data="{&quot;origPos&quot;:null}"/><path d="M371.59477,240.94397l-0.33711,-2.24761l3.70853,-0.55623l0.33711,2.24761z" data-paper-data="{&quot;origPos&quot;:null}"/></g></g></g></g><path d="M178.31138,232.0738l0.40293,-4.32267c0,0 4.09322,-3.7966 7.56304,-4.4687c3.96668,-0.76835 33.60781,-5.18881 33.60781,-5.18881c0,0 0.93292,1.75681 1.06111,2.96839c0.16519,1.56097 -1.47295,4.90557 -1.47295,4.90557z" fill="#242424" stroke-width="0"/><path d="M202.35678,224.61467l-0.46727,-3.11544l17.80266,-2.67016l0.46727,3.11544z" fill="#313131" stroke-width="0"/><path d="M199.38582,227.01253l-0.09673,-0.64504c0,0 0.90016,-1.19793 1.9119,-1.34968c0.96074,-0.14406 3.19496,0.00102 5.64397,-0.20106c4.66534,-0.38507 10.24654,-1.1193 10.24654,-1.1193l0.09673,0.64504c0,0 -5.36854,0.80313 -9.96935,1.17906c-2.5104,0.20514 -4.83792,-0.02113 -5.83454,0.12834c-1.04758,0.15711 -1.99849,1.36264 -1.99849,1.36264z" fill="#616161" stroke-width="0"/><path d="M223.88849,207.45086l13.00182,1.1104l31.29658,0.67347c0,0 0.75827,0.11296 -7.35877,0.59403c-2.76128,0.16364 -13.52059,0.15036 -22.92364,-0.36349c-2.54434,-0.13902 -16.24132,-1.56398 -16.24132,-1.56398z" fill="#df8cb7" stroke-width="0"/><path d="M45.74405,240.57686l-0.88006,-5.86746c0,0 5.44623,-2.58942 9.20799,-3.1536c3.07961,-0.46189 11.98829,1.74708 11.98829,1.74708l1.68671,12.155z" fill="#626061" stroke-width="0"/><path d="M162.001,233.23759l4.12598,1.91519l11.91542,-3.12507l50.18366,-7.52672l0.16187,1.07898c0,0 -37.66673,5.50256 -49.39955,7.52741c-3.22122,0.55595 -12.70644,2.7075 -12.70644,2.7075z" fill="#ffa6d4" stroke-width="0"/><path d="M52.37599,304.22755l-1.06344,-7.0903l20.7019,-19.92119l0.43795,13.75611l-12.21547,12.07636z" fill="#3f3d3e" stroke-width="0"/><path d="M50.01338,299.46516c0,0 -2.72935,-19.46229 -3.35399,-29.05909c-0.70504,-10.8315 -0.66445,-32.67528 -0.66445,-32.67528c0,0 8.49121,-1.46499 12.27775,-0.36869c3.24077,0.93826 9.0601,6.54655 9.0601,6.54655l4.97652,33.18043c0,0 -9.69388,15.30527 -12.36998,17.99101c-4.11636,4.13118 -9.92595,4.38511 -9.92595,4.38511z" fill="#555354" stroke-width="0"/><path d="M47.41784,248.23438c0,0 -2.41201,-5.69817 -0.76878,-8.67201c1.64322,-2.97386 5.79384,-4.62468 8.32577,-5.00442c2.0198,-0.30294 6.21141,-0.85202 9.71434,3.13099c3.50295,3.98298 2.59389,10.864 2.59389,10.864c0,0 -7.77327,-9.3542 -10.36446,-9.39574c-3.65642,-0.05862 -9.50082,9.07724 -9.50082,9.07724z" fill="#6f6b6c" stroke-width="0"/><path d="M49.29903,304.49863c0,0 -2.17017,-26.02857 -3.86751,-37.34576c-1.7677,-11.78598 -5.05273,-32.24342 -5.05273,-32.24342c0,0 1.04806,-0.80735 2.07738,-0.96176c0.94117,-0.14119 2.58607,0.26232 2.58607,0.26232c0,0 2.62925,18.97519 4.21554,29.55166c1.84299,12.28801 3.43303,40.22821 3.43303,40.22821z" fill="#333232" stroke-width="0"/><path d="M48.93883,305.00127l-1.09952,-14.70787c0,0 1.17537,0.72253 1.76241,0.59539c0.74128,-0.16055 2.18654,-1.8309 2.18654,-1.8309l1.07582,15.35461z" fill="#2e2d2d" stroke-width="0"/><path d="M69.03774,265.32131c1.211,8.07432 -1.58189,17.2581 -5.46465,20.80058c-3.22475,2.94217 -9.63811,10.73756 -10.84909,2.66326c-0.2569,-1.71295 0.00256,-13.76407 -0.91312,-20.73519c-1.21096,-9.21919 -3.57729,-13.90088 -3.05009,-16.84326c0.95337,-5.32028 6.19608,-7.6026 8.38609,-7.93107c4.31697,-0.64746 10.6799,13.97139 11.89091,22.0457z" fill="#585758" stroke-width="0"/><path d="M105.2072,274.13701l-0.84421,-1.63359c0,0 7.65156,-2.51327 13.53119,-3.88466c8.27714,-1.93065 31.44727,-6.60649 31.44727,-6.60649l1.96611,1.00065c0,0 -24.59254,5.32701 -33.09596,7.3789c-2.49733,0.60262 -13.00435,3.74526 -13.00435,3.74526z" fill="#585657" stroke-width="0"/><path d="M101.33994,288.06519l3.1016,-14.3097l7.02119,-2.01436c0,0 -1.07907,4.52357 -0.88167,5.25759c0.94297,3.50725 7.46164,26.76466 7.46164,26.76466c0,0 -1.39579,0.65468 -2.85022,-1.02369c-2.60966,-3.01156 -5.44268,-9.5254 -7.48728,-11.3449c-1.76654,-1.57206 -6.36522,-3.32957 -6.36522,-3.32957z" fill="#5a5759" stroke-width="0"/><path d="M109.16176,255.74345l1.17592,-11.63642l2.29105,-0.45598l-2.24182,12.02097z" fill="#a5a0a2" stroke-width="0"/><path d="M115.71567,253.66486l-0.20807,-1.38726l26.20317,-3.93006l0.20807,1.38725z" fill="#494748" stroke-width="0"/><path d="M115.19521,250.73837l-0.20807,-1.38726l26.20317,-3.93006l0.20807,1.38726z" fill="#494748" stroke-width="0"/><path d="M99.30039,275.78071l-2.987,-19.91561l10.68559,-11.32645l4.74474,-1.02689l-9.7454,44.75403l-5.84632,-1.14888z" fill="#dbd5d8" stroke-width="0"/><path d="M74.86218,291.49374l-1.90503,-11.63696l26.24256,-4.73426c0,0 0.70304,2.4607 0.69271,3.26962c-0.02563,2.01659 -0.98167,9.17541 -0.98167,9.17541z" fill="#ccc6c9" stroke-width="0"/><path d="M76.92058,279.66719l-0.04686,-0.3123l22.4358,-4.24316l-2.40092,1.55764c0,0 -4.24622,0.82517 -6.92968,1.19551c-3.67437,0.50716 -13.05837,1.80232 -13.05837,1.80232z" fill="#d8d1d5" stroke-width="0"/><path d="M79.84291,275.45031l-2.52153,-16.81191l15.94666,-2.39174l2.52153,16.81191z" fill="#a39999" stroke-width="0"/><path d="M74.61382,291.7026l-1.68492,-11.23364c0,0 9.68643,5.00529 14.27284,6.68418c4.58645,1.67888 10.9742,0.4377 10.9742,0.4377z" fill="#b4afb1" stroke-width="0"/><path d="M108.78118,292.68831c0,0 3.15029,0.57964 4.21298,0.27492c0.6528,-0.18724 1.55664,-1.92948 1.55664,-1.92948l2.98598,8.72684l0.62224,4.1487c0,0 -1.87536,0.5962 -3.52332,-1.76811c-1.35969,-1.95073 -5.85449,-9.45284 -5.85449,-9.45284z" fill="#504e4f" stroke-width="0"/><path d="M101.72359,288.57026l8.10996,-43.42685l1.75473,-0.05576l-7.94768,43.81734z" fill="#858183" stroke-width="0"/><path d="M79.02851,250.76226l1.25323,-1.85691c0,0 27.01682,-4.7032 39.28987,-6.54394c10.65213,-1.59763 31.64395,-4.38916 31.64395,-4.38916l0.81158,1.84137c0,0 -21.16643,2.46077 -32.39444,4.14478c-12.82097,1.92297 -40.60415,6.80384 -40.60415,6.80384z" fill="#918b8e" stroke-width="0"/><path d="M79.85289,249.39411l1.71353,-2.22015c0,0 25.5496,-4.18892 37.82258,-6.02972c10.65212,-1.59763 31.64395,-4.38916 31.64395,-4.38916l0.81157,1.84137c0,0 -21.16642,2.46077 -32.39444,4.14477c-12.82097,1.92297 -39.59719,6.65278 -39.59719,6.65278z" fill="#a59fa2" stroke-width="0"/><path d="M146.83003,260.36714l-2.74711,-5.33418c0,0 0.03055,-1.22312 0.34311,-1.38402c0.27539,-0.14183 1.43488,0.46832 1.43488,0.46832l2.74711,5.33419c0,0 -0.14291,0.90891 -0.41893,1.05103c-0.31223,0.16081 -1.35911,-0.13533 -1.35911,-0.13533z" fill="#494242" stroke-width="0"/><path d="M107.39374,268.96022l2.09671,-9.90628l3.84273,-0.57636l-2.09671,9.90628z" fill="#9c989a" stroke-width="0"/><path d="M114.21856,249.96158l1.6867,-1.23174l24.1712,-3.60701l2.13663,0.64011z" fill="#757274" stroke-width="0"/><path d="M114.72879,252.7278l1.6867,-1.23175l24.17119,-3.607l2.13664,0.64008z" fill="#757274" stroke-width="0"/><path d="M72.07415,291.08957l-6.93815,-57.76764l1.98518,0.28947l7.53715,58.08339z" fill="#686666" stroke-width="0"/><path d="M71.95267,291.38112l-1.76379,-16.17301l2.83213,3.43641l1.54266,13.22757z" fill="#535252" stroke-width="0"/><path d="M98.96557,264.19908c0,0 1.75266,-2.63458 1.61221,-3.57087c-0.13779,-0.91884 -2.4471,-1.99555 -2.4471,-1.99555c0,0 3.06816,0.21702 3.21556,1.90211c0.11226,1.28354 -0.60204,3.60415 -0.52493,4.7073c0.21919,3.13663 0.62799,10.50485 0.62799,10.50485z" fill="#c4bec1" stroke-width="0"/><path d="M106.27311,261.17004l0.37822,-10.36621l1.87483,-4.68416l-1.20793,9.84626z" fill="#aca7a9" stroke-width="0"/></g></g><g stroke-width="0"><path d="M218.89805,216.13635l2.03292,-3.67133c0,0 1.57439,-1.68851 2.43104,-1.53895c0.9767,0.17054 3.11624,2.50761 3.11624,2.50761l0.06951,4.11717c0,0 -4.23501,0.62755 -5.50704,0.68354c-0.57346,0.02525 -2.14258,-2.09805 -2.14258,-2.09805z" fill="#c0c0c0"/><path d="M177.88546,232.04661c0,0 -0.60169,-2.82198 0.27681,-4.10532c1.10093,-1.60832 6.7855,-4.69788 6.7855,-4.69788l-0.0001,4.79009l0.43329,2.8889z" fill="#838383"/><path d="M177.70418,231.99867l6.90544,-8.60067l37.14682,-5.57143l1.10968,7.39851z" fill="#999999"/><path d="M178.59472,231.20127l5.22518,-6.69017l33.39877,-5.00928l0.86639,5.77649c0,0 -4.04238,0.60626 -9.24241,1.38625c-3.38086,0.50713 -7.40856,0.0373 -10.97533,0.57222c-3.82627,0.57385 -7.14583,2.14565 -9.29492,2.46798c-4.2061,0.63085 -9.97763,1.49645 -9.97763,1.49645z" fill="#2e2e2e"/><path d="M182.04801,230.68114l7.4007,-7.07933l12.32623,-1.84873c0,0 -7.01159,2.9803 -9.2198,4.2363c-2.34432,1.33333 -5.20792,3.89698 -5.20792,3.89698z" fill="#a5899d"/><path d="M189.93206,229.38465c0,0 4.88468,-1.71563 7.31461,-2.08006c3.10484,-0.46569 9.7909,-0.48551 9.7909,-0.48551l-9.59698,1.10045z" fill="#adadad"/><path d="M177.80484,231.96518l6.23729,-7.76265l34.5799,-5.18639l0.10212,0.68096c0,0 -29.94189,4.49081 -33.84486,5.07619c-0.81633,0.12244 -7.07439,7.19194 -7.07439,7.19194z" fill="#8a8a8a"/><path d="M225.37533,231.13592l-1.44695,-9.64744l-0.42467,-7.21876c0,0 1.24374,0.2886 1.87512,0.76374c0.63135,0.47511 1.17784,1.5336 1.17784,1.5336l0.80942,14.27032z" fill="#9e9e9e"/><path d="M219.35654,227.76057c0,0 -1.21687,-1.96616 -1.58773,-3.51746c-0.49945,-2.08896 -0.47188,-7.673 -0.47188,-7.673l1.87169,-0.6097c0,0 0.86791,0.67047 1.3184,0.45208c0.62108,-0.30108 2.06343,-2.09155 2.06343,-2.09155l1.40407,12.75008z" fill="#9c9c9c"/><path d="M220.19567,229.48581c-0.93755,-0.97619 -0.90344,-2.36979 -0.90344,-2.36979l3.75578,-7.84423c0,0 1.95428,3.6341 2.09022,4.54043c0.38645,2.57671 2.08632,7.12461 2.08632,7.12461c0,0 -2.93472,0.52483 -4.02714,0.24514c-1.31023,-0.33542 -2.06408,-0.72004 -3.00167,-1.69623z" fill="#888888"/><path d="M221.84184,228.45599c-1.27395,-1.83103 -2.93528,-6.09485 -1.71494,-10.39013c1.22035,-4.2953 3.92411,-2.54581 3.92411,-2.54581c0,0 1.65141,4.22478 1.99447,6.51204c0.31252,2.08352 -0.01922,6.65744 -0.01922,6.65744c0,0 -2.91044,1.59749 -4.18438,-0.23359z" fill="#b4b4b4"/><path d="M224.81616,220.22856c0.20931,1.39547 -4.83267,2.22994 -5.04196,0.83453c-0.20931,-1.39547 2.01435,-7.19159 2.81779,-7.31205c0.31117,-0.04663 0.96301,-0.04147 1.31467,0.97838c0.5563,1.6134 0.78127,4.64423 0.90952,5.49921z" fill="#bbbbbb"/></g><g stroke-width="0"><path d="M161.90347,233.23689c0,0 -6.52114,-3.99425 -6.79901,-5.84693c-0.22692,-1.51272 5.7243,-2.5298 5.7243,-2.5298l7.4725,-1.04809l-2.38083,11.2566z" fill="#f399c8"/><path d="M131.95848,239.38821c0,0 -1.27051,-1.93075 -1.17521,-3.02973c0.10517,-1.21285 1.60798,-5.08347 1.60798,-5.08347l22.75577,-3.60074l10.30426,7.17416z" fill="#ee96c3"/></g></g><g stroke-width="0"><g><path d="M223.46487,205.71782l-0.91694,-6.11341l47.28921,-7.09263l0.91694,6.11341z" fill="#61585b"/><path d="M222.8223,202.53436l-0.49098,-3.27372l47.46904,-7.11958l0.49098,3.27371c0,0 -8.54529,1.28164 -17.32345,2.59824c-2.74458,0.41164 -6.37808,2.49083 -8.91413,2.87115c-3.01565,0.4523 -6.47492,-0.56308 -8.40932,-0.27297c-5.80045,0.86998 -12.82213,1.92307 -12.82213,1.92307z" fill="#494344"/><path d="M282.98605,186.83169l-12.03831,-17.33915l20.68785,-3.10282l17.74593,14.30032c0,0 -5.44502,2.19328 -8.60303,2.92808c-4.87304,1.13387 -17.7924,3.21359 -17.7924,3.21359z" fill="#5e555b"/><path d="M283.49766,190.22842l-0.82149,-5.47722c0,0 11.94691,-3.26122 16.66932,-4.75785c3.74776,-1.18774 6.43615,-2.17951 6.43615,-2.17951l6.90288,5.98106c0,0 -5.03666,2.3694 -9.07282,3.42368c-5.46876,1.42847 -20.11395,3.00991 -20.11395,3.00991z" fill="url(#color-5)"/><path d="M269.29519,169.90098l-0.59272,-3.952l18.9397,-2.84063l4.1889,3.4126z" fill="url(#color-6)"/><path d="M282.92399,190.33967l-0.18676,-1.24532c0,0 15.42572,-2.39086 20.72779,-3.35552c3.96463,-0.72128 8.10235,-2.93637 8.10235,-2.93637l1.04882,1.00025l-7.82568,3.25729z" fill="#312c30"/><g><path d="M181.44945,194.84007l-1.53786,-8.72677l92.88636,-13.93146l9.22939,10.02377z" fill="#8a6672"/><path d="M199.03475,200.58091c0,0 -4.01542,-3.04386 -7.00587,-4.07327c-2.99047,-1.02944 -9.93835,0.25274 -9.93835,0.25274l-0.19863,-2.08061c0,0 12.22795,-1.55455 19.19365,-2.50293c16.64007,-2.26579 80.21527,-11.03288 80.21527,-11.03288l4.55715,5.95695z" fill="#755761"/><path d="M202.22123,202.62182l-3.37641,-2.11441l86.545,-13.47517l1.64915,2.86823z" fill="#694e57"/><path d="M179.80747,186.52949l-0.67175,-4.4789l89.70097,-14.14067l4.64679,5.0276c0,0 3.21979,2.89247 -2.01173,3.65151c-1.6469,0.23896 -11.16653,-1.73941 -12.81757,-1.49985c-15.90045,2.30706 -78.84663,11.44029 -78.84663,11.44029z" fill="#916b77"/><path d="M179.37493,182.01481l-0.49201,-2.47897l88.89371,-13.47289l1.38846,2.21081z" fill="#9e7582"/><path d="M252.78223,171.69646c-8.07466,0.5559 -72.17634,9.12627 -72.17634,9.12627l86.88226,-13.03092l5.85141,6.64676c0,0 -12.48258,-3.29799 -20.55731,-2.74208z" fill="#b38f9a"/></g><path d="M232.75117,198.03989l-1.36067,-9.07231l19.98865,-2.998l1.36067,9.07232z" fill="#3a3336"/><path d="M231.30425,188.98474l0.48271,-1.61193l18.33336,-2.74972l1.20004,1.35952z" fill="#4b4246"/><path d="M232.8157,197.52526l-1.21294,-8.08713c0,0 1.82847,5.05051 4.62111,5.7503c2.79264,0.69983 16.02191,-0.57739 16.02191,-0.57739z" fill="#332c30"/><path d="M270.86691,171.91394l-4.76658,-5.3522c0,0 0.91275,-0.81102 1.50673,-0.90007c0.66405,-0.0996 2.29077,0.33057 2.29077,0.33057l4.76658,5.3522z" fill="#757575"/><path d="M274.55616,176.14814l-6.8494,-7.68129l3.79753,-0.56956l6.8494,7.68128z" fill="#5a5a5a"/><path d="M279.71064,181.89614l-6.8494,-7.68128l3.79752,-0.56956l6.8494,7.68129z" fill="#505050"/><path d="M285.04189,187.85095c-1.16985,-1.31193 -5.73443,-6.43094 -5.73443,-6.43094l3.79752,-0.56955l8.07239,9.23127c0,0 -1.9536,0.8345 -2.89483,0.96069c-0.73415,0.09845 -2.72481,-2.61299 -3.24064,-3.1915z" fill="#3b3b3b"/><path d="M180.3098,197.63823l-2.76994,-18.46818l3.14578,-0.47182l2.76994,18.46818z" fill="#443e42"/><path d="M161.87961,202.01932l-1.55743,-5.76075l20.0048,-3.00044l0.87929,5.86246z" fill="url(#color-7)"/><path d="M160.41574,196.8822l-1.60888,-10.727l20.0048,-3.00044l1.60888,10.72701z" fill="#5e555b"/><path d="M158.8256,186.28012l0.17376,-4.23486l19.21364,-2.88175l0.61735,4.1162z" fill="url(#color-8)"/><path d="M227.7605,171.93166l-0.90976,-6.06549l15.01427,-1.17332l5.26986,3.97341z" fill="#5e555b"/><path d="M247.18769,169.0179l-5.30944,-4.23713c0,0 3.08526,0.23559 5.43695,0.89231c2.35167,0.6567 6.2896,2.38232 6.2896,2.38232z" fill="#776b73"/><path d="M224.94305,173.52272l2.98004,-1.70531l25.27733,-4.06082l3.82828,0.95386z" fill="#6d6269"/></g><g><path d="M233.59284,193.89913c-0.18523,-1.235 0.1479,-2.45462 0.37948,-3.53042c0.3227,-1.49913 0.74236,-2.76316 1.89628,-3.79187c0.70485,-0.6284 1.77178,-1.18215 2.71413,-1.56653c0.62325,-0.25422 1.55205,-0.79805 2.24729,-0.90235c1.57608,-0.23641 1.92672,-0.20632 3.13731,0.11367c0.72923,0.19278 2.41717,0.39371 3.04593,0.97907c0.53218,0.4954 1.14338,1.36292 1.58212,1.98433c0.74973,1.062 1.81988,2.78686 2.02585,4.16011c0.08706,0.58034 -0.20092,1.97696 -0.17361,2.49408c0.08677,1.64174 0.16164,2.14582 -0.87469,3.41708c-0.62993,0.77266 -2.03922,1.53802 -2.95137,2.08935c-0.94459,0.57101 -2.07781,1.61673 -3.23761,1.79069c-0.78274,0.11741 -2.27437,-0.19983 -3.0529,-0.22082c-1.689,-0.04548 -2.5971,-0.08564 -3.78428,-1.06054c-1.0181,-0.83595 -1.51288,-2.37797 -2.07452,-3.66652c-0.29501,-0.67694 -0.76477,-1.52428 -0.87955,-2.28939z" fill="#3a3a3a"/><path d="M234.2982,193.67341c-0.16951,-1.1302 0.1354,-2.24623 0.34724,-3.23072c0.29531,-1.37182 0.67932,-2.52852 1.73531,-3.46996c0.645,-0.57501 1.62138,-1.08176 2.48367,-1.43353c0.57038,-0.23263 1.42034,-0.73033 2.05645,-0.82574c1.44228,-0.21632 1.76314,-0.18881 2.87096,0.10399c0.66732,0.1764 2.21191,0.36033 2.78732,0.89589c0.48703,0.45335 1.04637,1.24723 1.4478,1.81587c0.6861,0.97185 1.66538,2.55026 1.85382,3.80689c0.07966,0.53105 -0.18387,1.80908 -0.15886,2.28235c0.07944,1.50234 0.14793,1.96362 -0.80048,3.12694c-0.57644,0.70708 -1.86613,1.40737 -2.70074,1.91195c-0.8644,0.52254 -1.90143,1.4795 -2.96269,1.6387c-0.71627,0.10745 -2.08127,-0.18287 -2.79368,-0.20202c-1.54558,-0.04156 -2.37657,-0.07836 -3.46302,-0.97046c-0.93166,-0.76501 -1.38444,-2.17609 -1.89833,-3.35525c-0.26992,-0.61947 -0.6998,-1.39489 -0.80485,-2.09499z" fill="#5a5a5a"/><path d="M245.68346,187.38577c-2.3762,-2.05608 -7.44309,-1.49896 -7.44309,-1.49896c0,0 1.8407,-0.82213 3.8099,-1.11045c1.59509,-0.23358 3.20412,-0.10637 4.5438,1.00825c1.34078,1.11551 1.95053,2.52537 2.44113,3.86291c0.96191,2.62231 0.88385,5.05359 0.88385,5.05359c0,0 -1.85939,-5.25922 -4.2356,-7.31526z" fill="#6d6d6d"/><path d="M241.1599,193.13918c-0.08543,-0.56934 0.30689,-1.1001 0.8763,-1.18553c0.56934,-0.08543 1.1001,0.30689 1.18553,0.87631c0.08543,0.56934 -0.30689,1.1001 -0.87631,1.18552c-0.56934,0.08543 -1.1001,-0.30689 -1.18552,-0.87631z" fill="#272727"/><path d="M241.10206,193.28624c-0.0783,-0.52223 0.28151,-1.00898 0.80368,-1.08735c0.52223,-0.0783 1.00898,0.28151 1.08735,0.80368c0.0783,0.52223 -0.28151,1.00898 -0.80367,1.08735c-0.52223,0.0783 -1.00898,-0.28151 -1.08735,-0.80367z" fill="#131313"/></g></g></g></g></g><path d="M169.51673,315.14008c-0.23506,-1.56715 -10.76895,-43.09001 -10.52757,-44.8201c0.32593,-2.33596 8.91359,-2.25824 11.62135,-4.18902c8.29281,-5.91334 17.31688,-11.90522 17.31688,-11.90522c0,0 13.99886,-1.51265 18.1885,-2.14096c3.13309,-0.46992 62.51432,-17.96138 64.77848,-7.86398c3.07104,13.69593 -41.71338,8.56342 -39.91411,20.55988c0.45547,3.03695 2.86756,2.87284 2.77489,6.0692c-0.02226,0.76713 -1.5798,6.23754 -1.55304,7.92838c0.04243,2.68394 3.89482,6.15345 1.08099,9.70941c-2.24301,2.83462 0.4117,7.50941 -0.03972,8.80634c-3.11062,8.93721 -11.91167,6.41024 -20.82484,7.74707c-10.56782,1.58503 -25.39365,7.57365 -34.85698,7.7418c-4.08495,0.07255 -7.36063,6.91907 -8.0448,2.35734z" fill="#86c8f5" stroke-width="0"/></g></g></svg>