<svg version="1.1" xmlns="http://www.w3.org/2000/svg" xmlns:xlink="http://www.w3.org/1999/xlink" width="467.26148" height="205.68353" viewBox="0,0,467.26148,205.68353"><defs><linearGradient x1="512.22255" y1="176.99757" x2="512.53671" y2="181.79888" gradientUnits="userSpaceOnUse" id="color-1"><stop offset="0" stop-color="#1f1d20"/><stop offset="1" stop-color="#202022"/></linearGradient><linearGradient x1="512.34419" y1="172.12415" x2="512.70566" y2="177.64856" gradientUnits="userSpaceOnUse" id="color-2"><stop offset="0" stop-color="#302d31"/><stop offset="1" stop-color="#1f1e20"/></linearGradient><linearGradient x1="181.41256" y1="241.94978" x2="181.63386" y2="245.33261" gradientUnits="userSpaceOnUse" id="color-3"><stop offset="0" stop-color="#585758"/><stop offset="1" stop-color="#575758"/></linearGradient><linearGradient x1="168.98532" y1="252.86292" x2="169.1591" y2="255.5186" gradientUnits="userSpaceOnUse" id="color-4"><stop offset="0" stop-color="#363536"/><stop offset="1" stop-color="#353536"/></linearGradient><linearGradient x1="305.98688" y1="150.89893" x2="306.34851" y2="156.42558" gradientUnits="userSpaceOnUse" id="color-5"><stop offset="0" stop-color="#5e555b"/><stop offset="1" stop-color="#2b2629"/></linearGradient><linearGradient x1="294.90077" y1="130.91316" x2="295.16169" y2="134.90081" gradientUnits="userSpaceOnUse" id="color-6"><stop offset="0" stop-color="#72676e"/><stop offset="1" stop-color="#5e555b"/></linearGradient><linearGradient x1="183.09252" y1="152.15725" x2="183.47956" y2="158.07264" gradientUnits="userSpaceOnUse" id="color-7"><stop offset="0" stop-color="#5e555b"/><stop offset="1" stop-color="#4d454a"/></linearGradient><linearGradient x1="182.162" y1="137.93537" x2="182.43378" y2="142.08876" gradientUnits="userSpaceOnUse" id="color-8"><stop offset="0" stop-color="#74686f"/><stop offset="1" stop-color="#5e555b"/></linearGradient></defs><g transform="translate(-50.24964,-128.08245)"><g data-paper-data="{&quot;isPaintingLayer&quot;:true}" fill-rule="nonzero" stroke="none" stroke-linecap="butt" stroke-linejoin="miter" stroke-miterlimit="10" stroke-dasharray="" stroke-dashoffset="0" style="mix-blend-mode: normal"><path d="M91.31901,286.44879c0.14795,-4.19776 15.97043,-12.32211 17.15792,-12.12713c1.04854,0.17219 4.04548,3.0592 5.02626,2.90886c10.96558,-1.68108 28.54851,-12.24343 35.05597,-12.30758c8.48797,-0.08367 8.46586,11.22279 11.8197,17.05484c1.82215,3.16854 3.14612,6.17406 5.60515,8.74901c0.51986,0.54436 -0.26152,5.96907 -3.77821,8.72616c-4.81485,3.77482 -12.91099,5.06948 -12.91099,5.06948c0,0 5.81173,-1.69064 10.78814,-2.14904c3.4337,-0.3163 6.51469,-0.22912 6.83122,2.1507c-0.3285,9.32043 -13.18825,10.63142 -25.63307,14.28591c-8.47791,2.48957 -15.70059,8.76874 -22.79472,8.83868c-4.72021,0.04652 -4.05346,8.17976 -8.76293,5.61846c-9.66975,-5.25903 -23.71375,-24.6268 -25.45525,-34.64378c-0.55625,-3.19958 6.95314,-9.40385 7.05078,-12.17458z" fill="#86c8f5" stroke-width="0"/><g><g stroke-width="0"><path d="M119.86311,233.81578l-1.34462,-8.46558l39.18724,-6.38692l1.34462,8.46558z" fill="#696366"/><path d="M119.30021,226.79295c0,0 -0.14635,-1.20627 -0.71486,-2.66075c-0.68208,-1.74498 -1.48004,-3.89802 -1.6903,-4.92672c-0.23348,-1.14246 0.65161,-2.69975 0.65161,-2.69975c0,0 9.03913,-0.2739 15.47779,-0.63805c0.42318,-0.02393 14.72824,-1.91005 15.27854,-2.07129c3.08012,-0.90267 7.28512,-1.75364 7.28512,-1.75364c0,0 0.88912,1.28598 1.31811,2.78391c0.45875,1.60206 0.46486,3.43893 0.64646,3.96123c0.17971,0.5168 -0.10511,1.22456 -0.10511,1.22456z" fill="#454143"/><path d="M119.15828,232.22453l-0.38733,-2.158l39.75254,-7.13479l0.38733,2.158z" fill="#514c4e"/></g><g><g><path d="M173.10939,295.36805l-0.5737,-5.55235c0,0 2.24778,-0.05328 2.99878,-1.09965c1.061,-1.47834 2.99334,-6.84522 2.99334,-6.84522l1.46223,7.98577c0,0 -2.73511,3.49815 -4.17315,4.54892c-1.03825,0.75865 -2.70749,0.96255 -2.70749,0.96255z" fill="#4d484c" stroke-width="0"/><g><g fill="none" stroke-width="1" font-family="sans-serif" font-weight="normal" font-size="12" text-anchor="start"/><g stroke-width="0"><g><path d="M127.71956,278.08591l-9.20821,-40.07233l8.35685,-0.86348l9.20821,40.07233z" fill="#a59da1"/><path d="M118.49588,238.20678c0,0 -1.23264,-4.38874 0.42393,-5.8485c1.65658,-1.45978 6.68581,-2.23401 6.68581,-2.23401l1.26073,7.21765z" fill="#b9b0b5"/><path d="M130.58428,288.49168l-2.80927,-10.43939l8.3169,-0.85939l2.80927,10.43939z" fill="#8b8488"/></g><g><path d="M167.34925,270.57625l-9.2082,-40.07233l4.51517,-0.46653l9.20821,40.07232z" fill="#a59da1"/><path d="M158.4022,231.47963l-1.47248,-6.32336c0,0 2.84924,-0.97843 4.01738,0.0567c1.16814,1.03513 1.70726,5.01621 1.70726,5.01621z" fill="#b9b0b5"/><path d="M170.20154,280.98336l-2.80927,-10.43939l4.48766,-0.46368l2.80928,10.43939z" fill="#8b8488"/></g><path d="M132.41993,296.92365c0,0 -3.53473,-2.39215 -4.08288,-3.82802c-0.61019,-1.59839 0.58792,-5.3271 0.58792,-5.3271l46.96321,-9.27081c0,0 2.24333,2.11448 2.81534,3.54964c0.80178,2.01157 -2.88042,7.33278 -2.88042,7.33278z" fill="#494547"/><path d="M126.33317,234.00115c0,0 -2.36243,-0.32626 -2.84986,-0.85321c-0.53528,-0.57868 0.52617,-2.78205 0.52617,-2.78205c0,0 11.87623,-2.24448 17.09234,-3.10731c6.08078,-1.00586 16.43979,-2.26101 16.43979,-2.26101c0,0 0.65407,1.16283 0.63058,1.76583c-0.02272,0.584 -0.36812,1.75548 -0.36812,1.75548z" fill="#c2b8bd"/><path d="M132.64774,295.6729c0,0 -1.51966,-2.69336 -1.93269,-4.33521c-0.34277,-1.36256 -0.25096,-3.64143 -0.25096,-3.64143l44.19143,-8.64457c0,0 2.34173,2.92777 2.51259,4.58165c0.18359,1.77671 -1.56981,4.54281 -1.56981,4.54281z" fill="#6f696b"/><path d="M144.269,299.93074l-0.5737,-5.55234l29.47077,-4.65846l0.5737,5.55234z" fill="#333032"/><path d="M132.80968,301.23686c-1.17143,-0.53033 -2.99319,-1.81564 -2.99319,-1.81564l-1.56608,-6.69385c0,0 2.69414,2.0061 4.03504,3.2363c0.94909,0.87072 11.44555,-1.70109 11.44555,-1.70109l0.5737,5.55234c0,0 -10.32356,1.95227 -11.49502,1.42191z" data-paper-data="{&quot;index&quot;:null}" fill="#444043"/><g><path d="M127.18082,248.96145c0,0 -3.05844,-4.45136 -3.26365,-6.18164c-0.14211,-1.19793 2.15051,-3.2034 2.15051,-3.2034l34.56543,-6.61206c0,0 1.90633,2.94348 2.0898,4.49026c0.18749,1.58086 -0.97665,4.89478 -0.97665,4.89478z" fill="#979797"/><path d="M127.12439,247.89554c0,0 -3.02326,-3.9072 -3.21528,-5.43336c-0.13295,-1.05665 2.17372,-2.84474 2.17372,-2.84474l34.59855,-6.0998c0,0 1.88314,2.58455 2.05478,3.94884c0.17544,1.39439 -1.01324,4.32925 -1.01324,4.32925z" fill="#a2a2a2"/></g><g><path d="M131.24892,265.16882c0,0 -3.05844,-4.45136 -3.26365,-6.18164c-0.14211,-1.19793 2.15051,-3.2034 2.15051,-3.2034l34.56543,-6.61206c0,0 1.90633,2.94348 2.0898,4.49026c0.18749,1.58086 -0.97665,4.89477 -0.97665,4.89477z" fill="#979797"/><path d="M131.19249,264.10293c0,0 -3.02325,-3.9072 -3.21528,-5.43337c-0.13296,-1.05665 2.17371,-2.84473 2.17371,-2.84473l34.59854,-6.09979c0,0 1.88314,2.58455 2.05478,3.94884c0.17543,1.39439 -1.01324,4.32925 -1.01324,4.32925z" fill="#a2a2a2"/></g><g><path d="M135.47437,281.85781c0,0 -3.05844,-4.45136 -3.26365,-6.18164c-0.14211,-1.19793 2.15051,-3.2034 2.15051,-3.2034l34.56543,-6.61206c0,0 1.90633,2.94348 2.0898,4.49026c0.18749,1.58086 -0.97665,4.89477 -0.97665,4.89477z" fill="#7a7a7a"/><path d="M135.41792,280.79193c0,0 -3.02326,-3.9072 -3.21529,-5.43337c-0.13296,-1.05665 2.17371,-2.84472 2.17371,-2.84472l34.59856,-6.0998c0,0 1.88313,2.58455 2.05478,3.94884c0.17543,1.39439 -1.01324,4.32926 -1.01324,4.32926z" fill="#929292"/></g></g></g></g><path d="M128.7385,281.95557c0,0 -0.55992,-1.66772 -1.10059,-3.93476c-1.58734,-6.65586 -9.35814,-39.91937 -9.35814,-39.91937l3.59345,3.95458l6.40208,28.91988z" fill="#777275" stroke-width="0"/></g></g><path d="M151.34874,264.96057c1.08654,2.51937 -16.70812,7.52807 -26.55161,15.94967c-4.11431,3.52 -4.81223,8.18686 -7.94489,12.30597c-2.95056,3.87965 -13.78834,12.52465 -15.09239,13.08704c-6.00104,2.58814 -7.85152,-11.89236 -9.81998,-16.45657c-1.96842,-4.56419 8.73652,-12.48016 14.73757,-15.06831c2.8476,-1.2281 20.76075,-15.27154 28.77964,-17.54265c1.17452,-0.33264 9.20235,-2.02555 10.05722,-1.98481c5.60875,0.26747 4.93685,7.62844 5.83443,9.70962z" fill="#86c8f5" stroke-width="0"/><g><g stroke-width="0"><path d="M241.69045,222.98221l-11.21026,-14.64459l25.48233,-2.25873c0,0 -0.71553,5.88812 -0.73888,8.59393c-0.02252,2.61744 0.60138,7.38461 0.60138,7.38461z" fill="#7f7d7e"/><path d="M241.80149,223.17218l-3.99792,-5.35733c0,0 2.58563,3.39349 5.855,3.79562c2.35426,0.28954 4.21615,-0.14289 6.91284,0.00216c2.69668,0.14505 5.16839,0.6476 5.16839,0.6476z" fill="#6c6a6b"/></g><g><g><g><path d="M509.55196,181.99422l-2.36876,-4.6669c0,0 6.08692,1.26313 8.73703,1.9845c2.65015,0.72139 1.18912,1.95552 1.18912,1.95552z" fill="url(#color-1)" stroke-width="0"/><path d="M515.93416,172.08935c0,0 1.62844,2.22624 -0.90506,3.28678c-2.53351,1.06055 -5.35052,2.47054 -5.35052,2.47054l-1.33005,-5.46105z" data-paper-data="{&quot;index&quot;:null}" fill="url(#color-2)" stroke-width="0"/><path d="M499.95434,182.61756l-0.13699,-2.09389l14.74104,-0.9645c0,0 1.30677,0.71049 1.81747,1.04415c0.45907,0.29994 -0.67242,0.98379 -0.67242,0.98379z" fill="#444444" stroke-width="NaN"/><path d="M499.86033,180.66461l-1.30262,-1.67243l12.58876,-0.82367l3.49398,1.41697c0,0 -4.19334,0.51288 -6.49208,0.68069c-2.59253,0.18927 -8.28803,0.39837 -8.28803,0.39837z" fill="#535353" stroke-width="0"/><path d="M498.45471,179.13591l-0.36586,-0.61743l11.44931,-0.74917l1.71622,0.41453z" fill="#363636" stroke-width="0"/><path d="M499.95434,182.61756l-0.07432,-1.13594c0,0 6.46945,0.0313 9.34308,-0.15674c2.43517,-0.15932 6.8021,-0.89962 6.8021,-0.89962c0,0 0.89244,0.40483 1.15252,0.59113c0.21938,0.15716 -0.21725,0.48847 -0.21725,0.48847c0,0 -4.69626,0.71261 -7.00506,0.86368c-3.11488,0.20382 -10.00109,0.249 -10.00109,0.249z" fill="#3a3a3a" stroke-width="NaN"/><path d="M498.41032,178.51579l-0.61003,-0.8457l13.61254,-0.89065l-1.75781,1.0346z" fill="#242424" stroke-width="0"/><path d="M497.0063,177.91166l-0.10801,-1.65077c0,0 8.06263,-0.73418 11.05198,-0.92977c2.03666,-0.13326 5.1499,-0.13031 5.1499,-0.13031l-1.71254,1.60459z" fill="#3a3a3a" stroke-width="0"/><path d="M496.77177,176.31178l-0.13337,-2.0382c0,0 7.61543,-0.82886 10.92262,-1.04528c2.86187,-0.18725 7.77849,-0.17833 7.77849,-0.17833l-2.27966,2.1961c0,0 -3.6525,0.15633 -5.89215,0.30289c-2.97701,0.19479 -10.39595,0.76284 -10.39595,0.76284z" fill="#444444" stroke-width="0"/><path d="M496.60091,174.36133l-0.05553,-0.84924c0,0 7.84894,-0.63753 11.43851,-0.87239c2.49944,-0.16355 8.03825,-0.402 8.03825,-0.402l-0.80762,0.90573c0,0 -5.06204,0.04189 -8.02093,0.2355c-3.25996,0.21328 -10.5926,0.98238 -10.5926,0.98238z" fill="#535353" stroke-width="0"/><path d="M496.42165,173.6055l-0.02223,-0.33971c0,0 7.62681,-1.00717 11.07982,-1.23307c2.98541,-0.19533 8.43998,-0.0441 8.43998,-0.0441l0.05972,0.33726c0,0 -6.00682,0.22772 -9.24493,0.43956c-3.28043,0.21464 -10.31231,0.84005 -10.31231,0.84005z" fill="#4e4e4e" stroke-width="0"/></g><g stroke-width="0"><g><g><g><path d="M494.08119,182.51279l-5.43148,-12.83638l0.43946,-1.75378c0,0 3.6782,2.99544 4.76125,5.42029c0.58797,1.31644 1.68225,9.07491 1.68225,9.07491z" fill="#383638"/><path d="M495.08499,181.75425c0,0 0.01844,-0.6122 -0.7691,-3.02081c-0.85885,-2.62668 -2.48583,-6.16506 -2.94824,-7.21105c-1.03802,-2.34795 -1.7998,-2.42887 -1.7998,-2.42887l4.75178,-0.89397l5.84545,13.22233z" fill="#555355"/><path d="M489.63724,169.17451l-0.66129,-1.19575c0,0 1.96365,-0.93021 2.92321,-0.99297c0.89916,-0.05886 2.0795,0.59277 2.0795,0.59277l0.66604,1.26829z" fill="#686668"/></g><path d="M488.4206,182.88318l-5.43148,-12.83637l0.11065,-1.7121c0,0 4.00703,2.95375 5.09001,5.37855c0.58797,1.31643 1.68226,9.07491 1.68226,9.07491z" fill="#383638"/><path d="M489.42435,182.12455c0,0 0.01844,-0.61221 -0.7691,-3.02081c-0.85885,-2.62668 -2.48583,-6.16506 -2.94824,-7.21105c-1.03802,-2.34795 -1.7998,-2.42887 -1.7998,-2.42887l3.97074,-1.34396c0,0 1.1058,1.18457 1.42221,1.90021c0.90141,2.03898 5.20431,11.77206 5.20431,11.77206z" fill="#555355"/><path d="M483.97662,169.54482l-0.87903,-1.18152c0,0 2.18139,-0.94444 3.14097,-1.00722c0.89916,-0.05886 1.78919,0.61176 1.78919,0.61176l0.7908,1.26016z" fill="#686668"/><path d="M495.83671,180.70916c-0.05351,-0.81777 0.56605,-1.5241 1.38382,-1.57759c0.81778,-0.05352 1.5241,0.56605 1.57759,1.38382c0.05351,0.81777 -0.56605,1.5241 -1.38381,1.57759c-0.81778,0.05352 -1.5241,-0.56605 -1.57759,-1.38382z" fill="#312f31"/><path d="M496.29967,177.74333l-2.35724,-5.40415l1.57861,-0.24692l2.36148,5.46855z" fill="#444144"/></g><path d="M448.84772,180.4953l-4.46332,-10.55463l29.89538,-0.77706l0.16028,9.6572z" fill="#444444"/><path d="M461.20599,175.76287c0,0 0.60054,-0.56233 1.24917,-1.71205c0.59306,-1.05116 1.22109,-2.67354 1.57465,-3.16141c0.86175,-1.76651 3.26572,-1.45597 3.26572,-1.45597l-0.93487,0.71562l-4.01424,5.53925z" fill="#292929"/><path d="M464.68681,186.08707l-7.21673,-10.52267c0,0 3.52595,0.30173 5.15746,-0.85634c1.26779,-0.89994 1.002,-3.52015 2.55767,-3.90344c4.46327,-1.09966 17.28203,-2.37317 17.28203,-2.37317c0,0 3.69972,6.91817 4.81349,9.73855c0.7689,1.94708 1.4689,6.34276 1.4689,6.34276z" fill="#4a464a"/><path d="M467.95927,172.73635c-4.5926,-0.33693 -3.24391,-1.79201 -3.24391,-1.79201c0,0 0.70599,-1.35122 2.55981,-1.61897c4.54918,-0.65709 13.21147,-0.64573 14.92836,-0.78374c0.80967,-0.06511 0.39127,0.67169 0.39127,0.67169c0,0 -1.3304,2.4781 -2.86112,2.83284c-1.53077,0.35474 -7.18176,1.02715 -11.77439,0.69019z" fill="#5e595e"/></g><g><path d="M453.33737,193.41904l-6.3213,-17.56024l18.88613,-0.94878l5.07182,4.00576l6.07978,-0.49654l3.83757,13.19696z" fill="#4d4846"/><path d="M458.04318,193.49906l19.99898,-10.72012l22.2582,-1.69926c0,0 1.58231,4.0883 1.81341,5.43063c0.11779,0.68439 0.03758,2.94794 0.03758,2.94794z" fill="#423d3b"/><path d="M453.69493,185.45479l-3.81555,-9.61756l0.81876,-0.05355l3.81555,9.61756z" fill="#363332"/><path d="M458.57518,192.66093l-0.07949,-1.21479c0,0 5.08705,-2.88372 14.13258,-3.47557c1.20184,-0.07864 5.60728,2.184 6.81863,2.10476c7.68564,-0.50287 15.20848,-0.99509 18.07041,-1.18235c2.33079,-0.15247 4.62603,-1.60545 4.62603,-1.60545l0.16435,2.51204z" fill="#312e2c"/><path d="M460.10819,179.7932l-2.04121,-4.49166l8.28998,-0.54242l4.43482,4.1406l6.30574,-0.21809l-7.4463,2.44011z" fill="#585350"/><path d="M451.09994,187.42321l-0.07365,-1.12581c0,0 7.78428,-4.26093 10.65534,-4.44878c4.32711,-0.28312 16.27289,-1.06472 16.27289,-1.06472l0.07365,1.12581c0,0 -12.15055,0.795 -16.47761,1.07815c-2.81211,0.18395 -10.45066,4.43537 -10.45066,4.43537z" fill="#2b2827"/></g></g></g><g><g><g><path d="M119.9665,251.83427c0.6855,2.19389 0.5458,4.79811 -0.52563,5.13289c-1.07141,0.33478 -2.6689,-1.72662 -3.35442,-3.9206c-0.6855,-2.19389 -3.37475,-10.60668 -2.30328,-10.94147c1.07141,-0.33478 5.49784,7.53519 6.18333,9.72914z" fill="#615e5f" stroke-width="0"/><g><path d="M159.51616,219.25362c-0.57261,-0.49128 -2.99399,-1.64802 -2.99399,-1.64802l9.71079,-3.52153l-5.51711,7.57638c0,0 -0.62707,-1.91552 -1.19972,-2.40682z" fill="#756a6a" stroke-width="0"/><path d="M150.39803,218.14935l-0.89665,-13.70404l18.11075,-7.06417l1.2797,19.55821z" fill="#8a7c7c" stroke-width="0"/><path d="M110.80326,226.19871l5.46853,-18.52991l34.85009,-2.41383l5.35067,12.34366c0,0 -22.83796,3.07368 -30.45632,4.50833c-3.16246,0.59552 -15.21298,4.09178 -15.21298,4.09178z" fill="#7c787a" stroke-width="0"/><path d="M116.54691,210.06077l-0.24455,-1.46865c0,0 25.86888,-1.69261 34.00134,-2.2247c4.55012,-0.29772 15.69778,-7.41108 15.69778,-7.41108l0.10641,1.62616c0,0 -10.85533,7.07492 -15.25686,7.34821c-8.07074,0.50116 -34.3041,2.13008 -34.3041,2.13008z" fill="#535353" stroke-width="0"/><path d="M78.83843,228.99955l-1.31585,-20.11101c0,0 4.06091,-7.33492 11.13974,-10.09897c8.79217,-3.43304 25.76146,-2.75442 27.82772,-2.88961c1.58561,-0.10374 -12.19994,11.23717 -12.19994,11.23717l1.31585,20.11101z" fill="#8d898b" stroke-width="0"/><path d="M248.40414,171.66345l1.39392,-3.24218l107.34496,-6.8804l0.96279,14.71477c0,0 -37.57952,4.30827 -49.80144,4.69093c-6.06973,0.19005 -59.90026,-9.2832 -59.90026,-9.2832z" fill="#c98cac" stroke-width="0"/><path d="M233.38059,273.86254l-5.37858,-12.61217c0,0 5.50838,5.49154 8.42024,6.38018c1.85525,0.56618 6.09726,0.6712 12.03591,-2.16002c4.78078,-2.27921 9.57865,-8.11571 9.57865,-8.11571l-10.68238,15.59338z" fill="#a08e97" stroke-width="0"/><path d="M320.61408,221.13855l-3.87519,-23.41835l18.41621,-2.61071l1.38396,21.1518c0,0 -6.2715,2.13314 -8.98511,3.01048c-1.24948,0.40395 -6.93983,1.86683 -6.93983,1.86683z" fill="#96858d" stroke-width="0"/><path d="M231.79144,277.72031l-0.36173,-5.52833c0,0 12.17256,1.27653 16.57843,-2.13976c2.14422,-1.66261 17.59332,-23.65068 26.09759,-35.86396c3.31878,-4.76623 5.57992,-8.04378 5.57992,-8.04378c0,0 3.10582,-3.98449 2.92164,-6.86079c-0.09266,-1.44693 0.10348,-5.6474 -0.87721,-7.89952c-0.98943,-2.27226 -3.15536,-2.58982 -3.15536,-2.58982l-5.74788,-13.22524l19.78312,-1.15041l-1.16819,26.70657l3.91744,2.31101c0,0 -9.14289,6.61114 -13.43837,11.85851c-6.72087,8.21013 -28.07642,40.05726 -28.07642,40.05726z" fill="#918189" stroke-width="0"/><path d="M297.50642,223.00396l-0.65654,-28.62209l13.76426,-0.62422l11.12519,11.29992l-1.17055,16.43745z" fill="#96858d" stroke-width="0"/><path d="M293.11222,225.14456l-2.77459,-3.97311l1.82145,-26.36508l5.06349,-0.41619l1.19226,28.5698z" fill="#8f8187" stroke-width="0"/><path d="M319.34383,221.67896c0,0 2.31059,-6.83248 0.60746,-12.14346c-0.98062,-3.05801 -6.00968,-4.7029 -6.61084,-6.57756c-1.14834,-3.58112 -2.92492,-9.12115 -2.92492,-9.12115l8.12326,3.84179c0,0 3.86988,6.97596 4.74454,11.18936c0.58769,2.83076 -0.47655,9.29003 -1.2315,11.94386c-0.06364,0.22372 -1.24275,0.21741 -1.28347,0.38576c-0.09949,0.41124 0.87777,0.57912 0.87777,0.57912z" fill="#86787e" stroke-width="0"/><path d="M318.4226,199.18932c0,0 -3.34245,-3.74468 -8.07841,-4.40854c-5.36162,-0.75151 -22.44791,0.12982 -22.44791,0.12982l156.47488,-24.4502l4.01552,9.05895l8.62847,10.60196c0,0 -100.74472,4.01474 -121.28913,5.35897c-6.70395,0.43861 -17.30341,3.70908 -17.30341,3.70908z" fill="#df8db7" stroke-width="0"/><path d="M167.62087,256.4376l-7.15585,-35.87919c0,0 1.43476,-3.85256 1.92079,-4.10049c5.35854,-2.73353 36.63136,-15.4543 42.0777,-15.52375c5.96616,-0.07612 -8.34104,12.8141 -8.34104,12.8141c0,0 -14.24682,2.96243 -16.5016,7.36892c-3.06134,5.98274 2.9087,22.98275 2.9087,22.98275z" fill="#c77da3" stroke-width="0"/><path d="M237.93265,221.84423l-1.92311,-1.98395c0,0 5.98308,-9.01646 8.26175,-11.46318c2.35251,-2.52601 5.63892,-3.4627 5.63892,-3.4627l6.07311,1.90974c0,0 -4.49933,-0.20927 -6.746,1.65768c-1.92866,1.6027 -5.47175,4.91977 -8.06409,8.18835c-1.88575,2.37764 -3.24062,5.15396 -3.24062,5.15396z" fill="#414041" stroke-width="0"/><path d="M116.1599,209.03755l4.02656,-11.97799l48.52469,-3.17496c0,0 -2.6015,4.63524 -5.58609,6.80082c-2.92927,2.12551 -12.15855,6.07466 -12.15855,6.07466z" fill="#979395" stroke-width="0"/><path d="M116.88355,207.84491l3.22823,-11.92574l48.52469,-3.17496c0,0 -2.6015,4.63524 -5.58609,6.80082c-2.92927,2.12551 -12.15855,6.07466 -12.15855,6.07466z" fill="#bdb7ba" stroke-width="0"/><path d="M321.7678,221.84176l-1.90244,-0.39013l16.54038,-5.26592c0,0 -3.41844,2.28545 -5.84505,3.24284c-2.42659,0.95741 -8.79285,2.41321 -8.79285,2.41321z" fill="#887980" stroke-width="0"/><path d="M170.13161,256.73878c0,0 -3.01849,-10.29036 -4.77454,-18.73218c-1.76458,-8.48299 -3.39409,-16.44031 -3.65017,-20.01594c-0.04337,-0.60577 0.95284,-10.62286 1.41751,-11.17576c2.50814,-2.98456 10.73903,4.23706 16.21921,2.77256c8.11433,-2.16841 27.14851,-3.92901 27.14851,-3.92901l-8.08894,5.85131c0,0 -19.22103,4.12886 -21.27219,9.4113c-2.77434,7.14504 6.14303,27.47894 6.14303,27.47894z" fill="#d486ae" stroke-width="0"/><path d="M171.031,253.15363c0,0 -9.3154,-40.34945 -8.64928,-50.4916c0.31168,-4.74539 -3.63061,-13.61475 -3.63061,-13.61475l51.01412,3.64574l2.4701,15.94274c0,0 -32.17589,-0.99456 -38.10313,5.68064c-3.95664,4.4559 4.68191,32.19414 4.68191,32.19414z" fill="#e490bb" stroke-width="0"/><g stroke-width="0"><path d="M305.04673,181.25657l-0.54028,-8.25722l9.34001,-0.61109l0.54028,8.25722z" fill="#454545"/><path d="M305.82739,180.439l-0.83247,-7.25925l11.30204,-0.73949l0.47649,7.28253z" fill="#b0b0b0"/><path d="M305.30424,175.97461l-0.41288,-2.80932l11.5182,-0.75363l0.12455,1.90329c0,0 -7.75519,0.83056 -9.4419,1.07985c-0.5636,0.08328 -1.78799,0.57982 -1.78799,0.57982z" fill="#bebebe"/><path d="M316.9904,179.15791c0,0 -5.69569,-2.18816 -5.37063,-5.9651c0.48306,-5.61253 4.6267,-5.40455 4.6267,-5.40455l40.24359,-1.29694l0.65686,10.03913z" fill="#9c989a"/><path d="M318.68969,177.75472c0,0 -2.71122,-3.34906 -3.01534,-4.25799c-0.45084,-1.3473 1.34663,-4.42855 1.34663,-4.42855l41.50917,-2.68253l0.08978,7.49879z" fill="#898587"/><path d="M318.6125,177.95847l-1.14403,-1.86867l38.15018,-2.49614l0.12665,1.93525z" fill="#c1bcbf"/><path d="M318.26999,174.57968c0,0 -1.41981,-1.27801 -1.48101,-2.21337c-0.05728,-0.87495 1.12488,-3.22956 1.12488,-3.22956l38.58418,-2.52453l0.35612,5.4429z" fill="#0d0d0d"/><path d="M318.32073,175.35535c0,0 -1.45922,-1.88047 -1.52041,-2.81584c-0.05728,-0.87495 1.16428,-2.62707 1.16428,-2.62707l38.58419,-2.52453l0.35612,5.4429z" fill="#2e2e2e"/><path d="M313.62929,177.56968c-2.83347,-2.88813 -1.82333,-5.29575 -1.82333,-5.29575c0,0 2.09684,3.98394 3.38831,4.79895c1.52905,0.96491 5.22032,2.09232 5.22032,2.09232l-3.4967,0.29911c0,0 -2.78996,-1.38633 -3.28856,-1.89458z" fill="#7d7a7c"/><path d="M320.93542,175.49459c0,0 -1.03142,-2.14925 -1.10608,-3.29038c-0.06564,-1.00309 0.68166,-3.19576 0.68166,-3.19576l4.81303,-0.31491c0,0 -0.31622,2.22938 -0.25953,3.09576c0.07791,1.19076 0.68394,3.39034 0.68394,3.39034z" fill="#555555"/><path d="M329.53373,174.93207c0,0 0.50049,-2.56125 0.42582,-3.70237c-0.06564,-1.00309 -0.8502,-2.78377 -0.8502,-2.78377l5.37186,-0.35146c0,0 -0.30381,1.7386 -0.2471,2.60501c0.07791,1.19076 0.6715,3.88111 0.6715,3.88111z" fill="#555555"/><path d="M338.84051,174.3231c0,0 0.5005,-2.56125 0.42584,-3.70238c-0.06564,-1.00309 -0.8502,-2.78376 -0.8502,-2.78376l5.292,-0.34628c0,0 -0.30381,1.7386 -0.2471,2.60501c0.07791,1.19076 0.6715,3.88111 0.6715,3.88111z" fill="#555555"/><path d="M348.48319,173.69217c0,0 0.70112,-2.21802 0.62645,-3.35919c-0.06564,-1.00309 -1.05083,-3.12691 -1.05083,-3.12691l5.13237,-0.33582c0,0 0.95538,1.92347 1.01209,2.78991c0.07791,1.19076 -0.58765,3.69626 -0.58765,3.69626z" fill="#555555"/><path d="M320.29142,169.72837l-0.71594,-0.75485l35.48672,-2.32188l-1.47874,0.89847c0,0 -2.82404,0.18475 -5.28098,0.34555c-0.53555,0.03501 -1.57042,-0.22667 -2.37262,-0.17426c-0.7756,0.05076 -1.31087,0.41524 -2.275,0.47832c-1.50346,0.09835 -3.1998,0.20938 -4.97566,0.32556c-0.73625,0.04818 -1.40194,-0.29265 -2.15746,-0.2432c-0.67186,0.04398 -1.4324,0.47808 -2.10741,0.52228c-1.6753,0.10961 -3.33407,0.21814 -4.89365,0.32021c-0.71617,0.04688 -1.44003,-0.34508 -2.10634,-0.30148c-0.81344,0.05321 -1.55515,0.54104 -2.26786,0.58768c-2.90725,0.19021 -4.85507,0.31768 -4.85507,0.31768z" fill="#474747"/></g><g><path d="M177.76871,246.27014l3.52194,-3.10402c0,0 3.00268,2.62444 5.88909,3.33248c2.55293,0.62622 10.55201,0.70041 10.55201,0.70041l-2.36512,4.51836z" fill="#6d6a6b" stroke-width="0"/><path d="M170.15131,253.2826l8.7296,-7.97214c0,0 3.37514,2.04054 5.58252,2.55941c3.33943,0.78497 12.50429,1.69225 12.50429,1.69225l-3.98739,4.57745z" fill="#615e5f" stroke-width="0"/><path d="M173.58008,275.07262l-2.95395,-22.42806c0,0 4.39664,0.50597 9.2096,0.22072c3.75667,-0.22265 7.74052,-1.33222 10.25868,-0.88734c4.42082,0.78101 38.68207,10.92143 38.68207,10.92143l3.13751,9.99128z" fill="#575455" stroke-width="0"/><path d="M193.35992,246.67871c6.55516,-6.00601 13.72913,-19.95623 14.81687,-22.6043c0.78364,-1.90772 1.12521,-7.21739 1.12521,-7.21739l8.13221,6.29729c0,0 7.17556,20.07109 9.17934,32.61376c0.56066,3.50955 3.33036,7.28199 2.24238,8.82277c-0.9748,1.3805 -17.75043,4.77291 -23.18307,4.36194c-11.43282,-0.86478 -17.03039,2.29695 -21.11156,-2.72268c-4.08117,-5.01959 2.59507,-11.74009 2.59507,-11.74009c0,0 4.49696,-6.24775 6.20352,-7.81136z" fill="#504e4f" stroke-width="0"/><path d="M196.01214,213.60973c0,0 0.29752,-1.51544 1.10936,-2.23349c1.04414,-0.92348 4.63565,-2.84775 4.63565,-2.84775c0,0 9.48195,1.45138 12.64836,3.73954c2.92146,2.11109 -2.6746,12.78044 -2.6746,12.78044l-2.35228,-5.21894z" fill="#464445" stroke-width="0"/><path d="M222.28054,259.21949c0,0 -8.85601,6.84859 -17.31112,7.5736c-8.15668,0.69942 -15.92346,-4.69684 -15.90955,-6.12303c0.00753,-0.7727 7.70281,-4.58857 10.89628,-9.02797c3.54988,-4.93483 2.69025,-10.5923 3.90696,-12.68668c3.3967,-5.84695 11.1591,-16.55511 9.70574,-22.51658c-1.52416,-6.25192 -12.35425,-7.62161 -12.35425,-7.62161c0,0 3.69597,-2.49833 8.66252,-2.95344c2.11557,-0.19386 6.74394,0.89212 7.69039,1.21598c3.10368,1.06199 5.19696,2.56475 5.19696,2.56475c0,0 3.33217,-5.10779 6.90642,-5.65178c3.57422,-0.54397 22.55229,1.16823 22.55229,1.16823l-15.35367,13.6255z" fill="#555354" stroke-width="0"/><path d="M203.50655,239.57501c0,0 3.90107,-11.1513 8.2665,-16.88345c4.36543,-5.73214 8.22748,-9.17215 11.75232,-9.40276c2.55249,-0.16701 6.39619,8.21534 6.39619,8.21534l-9.17495,29.43107c0,0 -14.37586,4.22673 -16.01192,1.84782c-1.29216,-1.87888 -1.2281,-13.208 -1.2281,-13.208z" fill="#585758" stroke-width="0"/><path d="M227.79623,265.34384c0,0 -3.27625,-5.98994 -3.14799,-9.027c0.17915,-4.24276 0.79381,-16.96396 0.79381,-16.96396l2.63386,10.28568c0,0 -0.00271,9.76852 0.32754,12.78325c0.31864,2.90872 1.88063,4.98157 1.88063,4.98157z" fill="#3f3e3f" stroke-width="0"/><path d="M225.70315,247.57735c-0.30436,-1.65846 -0.54151,-9.37036 -0.54151,-9.37036c0,0 8.58664,-15.16092 10.50636,-17.9453c0.56278,-0.81624 3.79829,-2.7626 3.79829,-2.7626l-1.32584,4.95105c0,0 -1.53105,0.70544 -1.67926,1.19402c-0.15791,0.52053 0.75895,1.83926 0.75895,1.83926l-4.56425,8.79689c0,0 -1.58112,1.11619 -1.72692,1.63218c-0.14584,0.51613 0.5983,1.35749 0.5983,1.35749c0,0 -3.26235,9.17383 -3.94537,11.63846c-0.3158,1.13959 0.01228,2.55375 0.01228,2.55375c0,0 -1.58666,-2.22634 -1.891,-3.88482z" fill="#474647" stroke-width="0"/><path d="M211.23607,227.51069l21.55157,6.84282c0,0 -1.1203,1.08776 -1.32179,1.64113c-0.1487,0.40833 0.22245,1.37826 0.22245,1.37826z" fill="#3f3e3e" stroke-width="NaN"/><path d="M216.5473,216.78808l21.82693,5.64579c0,0 -1.0576,0.91429 -1.23183,1.48323c-0.18161,0.59309 0.25755,1.64587 0.25755,1.64587z" fill="#3f3e3e" stroke-width="NaN"/><path d="M206.00635,246.2191c0,0 11.17189,6.97848 17.42776,12.55951c6.25584,5.58107 4.39811,6.91202 4.39811,6.91202z" fill="#636162" stroke-width="NaN"/><path d="M217.75943,222.34423c0,0 -5.79824,3.28965 -8.3396,6.55847c-2.54136,3.26881 -9.80096,19.96133 -9.99327,17.0221c-0.19232,-2.93926 11.54852,-24.47287 13.33962,-24.59007c0.67803,-0.04436 3.63323,-1.38245 4.46539,-1.19889c1.36616,0.30132 0.52785,2.20838 0.52785,2.20838z" fill="#918f91" stroke-width="0"/><path d="M173.11639,274.97325l13.78977,-2.7946c0,0 12.54732,-1.15396 15.68744,-1.20401c7.64709,-0.12193 30.36187,0.46977 30.36187,0.46977l-0.03333,6.33677c0,0 -24.0762,5.14837 -31.04181,4.28569c-2.01514,-0.24957 -7.85975,-0.48656 -12.1947,-1.55799c-8.4833,-2.09678 -16.56925,-5.53562 -16.56925,-5.53562z" fill="#626061" stroke-width="0"/><path d="M231.89639,277.49572c0,0 -0.2399,-4.28612 -0.84066,-6.59165c-0.67521,-2.59136 -3.01345,-8.19952 -3.01345,-8.19952l1.77854,-0.11637c0,0 2.00651,4.33506 2.61778,6.68099c0.66833,2.56493 1.23636,8.11019 1.23636,8.11019z" fill="#4a494a" stroke-width="0"/><path d="M231.75615,278.343l-0.13374,-3.39569c0,0 0.58281,0.22716 0.85375,0.2094c0.32191,-0.02105 0.90997,-0.3248 0.90997,-0.3248l0.38076,3.15846c0,0 -0.74829,0.45748 -1.11466,0.52169c-0.28074,0.04926 -0.89606,-0.16907 -0.89606,-0.16907z" fill="#363536" stroke-width="0"/><path d="M228.38368,263.70972l-0.49084,-1.59198c0,0 0.39335,-0.38089 0.75718,-0.46407c0.34649,-0.0792 0.87579,0.00917 0.87579,0.00917l0.61391,1.69995c0,0 -0.44769,0.5378 -0.74852,0.59724c-0.28345,0.05599 -1.00755,-0.25031 -1.00755,-0.25031z" fill="#585758" stroke-width="0"/><path d="M190.10954,279.7977c0,0 -8.0711,-2.43105 -8.16009,-3.79116c-0.08943,-1.3669 6.05799,-2.94244 6.05799,-2.94244c0,0 10.90481,-0.95478 15.8625,-1.10616c2.77551,-0.08474 11.35136,0.27508 11.35136,0.27508c0,0 7.3451,0.57588 8.23365,1.67193c0.9692,1.19556 -2.70114,4.28342 -2.70114,4.28342c0,0 -12.61145,2.13399 -16.58137,2.18509c-1.41026,0.01814 -14.06287,-0.57565 -14.06287,-0.57565z" fill="#6b696a" stroke-width="0"/><path d="M179.29805,273.58882l-1.94241,0.35839c0,0 0.40081,-3.46823 3.19612,-2.40631c2.79531,1.06199 21.66278,-1.1861 21.66278,-1.1861z" fill="#4b4949" stroke-width="0"/><path d="M173.17978,274.82478c0,0 -1.98101,0.32162 -2.7528,-3.27843c-0.39068,-1.82232 -3.05353,-15.87058 -3.05353,-15.87058l3.53871,-3.13682c0,0 1.07164,5.93645 1.46689,8.81902c0.52561,3.83382 1.72192,13.40653 1.72192,13.40653z" fill="#3f3d3e" stroke-width="0"/><path d="M179.63004,273.7334c0,0 3.04496,-2.36199 19.04507,-3.74668c1.32134,-0.11434 -1.79344,0.08523 7.61935,-0.0222c9.41281,-0.10748 13.41144,1.14679 13.41144,1.14679c0,0 -15.10385,-0.08342 -21.29345,0.32157c-7.05538,0.46163 -18.78244,2.30059 -18.78244,2.30059z" fill="#838082" stroke-width="0"/><path d="M182.73523,243.8347c0,0 -4.21844,2.46811 -6.28339,4.22224c-2.32094,1.97158 -6.96408,7.0313 -6.96408,7.0313l-0.88736,-1.54698c0,0 3.50296,-4.0911 5.60406,-5.876c2.29721,-1.95142 7.64343,-5.37758 7.64343,-5.37758z" fill="#4a494a" stroke-width="0"/><path d="M183.6504,243.5165l-3.44374,1.90948c0,0 0.05397,-0.65134 -0.08122,-0.88697c-0.16062,-0.28 -0.72154,-0.6522 -0.72154,-0.6522l3.02025,-2.00318c0,0 0.7853,0.43633 1.00874,0.73384c0.17123,0.228 0.21744,0.89901 0.21744,0.89901z" fill="url(#color-3)" stroke-width="0"/><path d="M170.35353,254.25168l-2.76646,2.91665l-0.28605,-2.1686l1.9423,-2.15363c0,0 0.73618,0.12231 0.92636,0.36311c0.1792,0.22688 0.18377,1.04244 0.18377,1.04244z" fill="url(#color-4)" stroke-width="0"/></g><path d="M298.58096,221.83481c0,0 0.63693,-4.46978 1.04849,-5.88878c0.27936,-0.96328 2.55421,-2.54683 2.55421,-2.54683l16.96887,-1.32895c0,0 -0.89591,5.86874 -1.18694,7.25701c-0.12752,0.60815 -1.14598,1.36887 -1.14598,1.36887z" fill="#665b60" stroke-width="0"/><path d="M248.87853,206.79125c0,0 -3.88812,-1.31136 -8.88133,-2.13939c-3.17417,-0.52639 -7.47207,-0.81314 -9.32222,-0.58609c-5.37893,0.66011 -7.55926,5.91858 -7.55926,5.91858c0,0 -3.41748,-2.09711 -5.57643,-2.81238c-2.01529,-0.66766 -6.42445,-1.38226 -6.42445,-1.38226c0,0 24.17464,-6.68391 27.97972,-7.51421c7.29462,-1.59182 33.94445,-2.94324 33.94445,-2.94324l7.14339,13.84889z" fill="#8b7c84" stroke-width="0"/><g stroke-width="0"><path d="M299.97097,220.7991c0,0 0.30099,-2.6215 0.6521,-3.54118c0.364,-0.95357 2.47439,-2.14635 2.47439,-2.14635l14.49903,-0.94869c0,0 0.44965,0.95565 0.26296,1.70724c-0.25389,1.02187 -2.84509,3.94467 -2.84509,3.94467z" fill="#585852"/><path d="M299.9223,220.05534c0,0 0.34966,-1.87774 0.70077,-2.79741c0.364,-0.95357 2.42571,-2.8901 2.42571,-2.8901l14.49903,-0.94868c0,0 0.49836,1.69943 0.31163,2.45101c-0.25389,1.02187 -2.89381,3.20086 -2.89381,3.20086z" fill="#797971"/><path d="M315.81971,214.02886c-1.05823,-0.10908 -12.67374,0.37897 -12.67374,0.37897l14.47917,-0.94736l0.16074,2.45659c0,0 -0.90794,-1.77907 -1.96617,-1.88821z" fill="#85857b"/></g><path d="M300.21298,202.5763l-0.33885,-5.17871l7.12068,-0.46592l1.63353,5.09397z" fill="#7c6e75" stroke-width="0"/><path d="M288.08597,176.88967l-4.69869,-7.84123l1.37641,-0.09004l6.65953,8.1655z" fill="#d495b6" stroke-width="0"/><path d="M248.66748,171.82345l12.98912,-3.94613l21.93062,1.18318l4.52276,7.81363z" fill="#df9cbe" stroke-width="0"/><path d="M300.70307,207.58252l-0.10588,-1.61834l10.84284,-0.70943l1.07688,1.55483z" fill="#7c6e75" stroke-width="0"/><path d="M259.42414,198.10325c0,0 -18.01669,2.37977 -23.6048,3.24668c-8.46161,1.3126 -25.34364,4.74743 -25.34364,4.74743c0,0 14.70172,-5.41207 28.08134,-7.80683c14.50691,-2.59653 58.36733,-6.92682 58.36733,-6.92682l0.35317,5.3975z" fill="#75686e" stroke-width="0"/><path d="M253.0931,207.30674l-3.27359,-0.35784c0,0 9.59394,-3.01723 14.97189,-2.6047c5.37795,0.41253 14.96729,4.90134 14.96729,4.90134z" fill="#7c6e76" stroke-width="0"/><path d="M206.473,206.31825c0,0 -33.29344,-13.25098 -34.48471,-17.80306c-1.08207,-4.135 29.91142,0.39589 30.20148,0.26844c5.07545,-2.23 76.33395,-14.12274 76.33395,-14.12274l26.99524,5.03757l52.61203,-4.01503l8.179,13.06931c0,0 -61.35144,5.18557 -85.05635,6.89997c-8.2286,0.59511 -25.06728,1.04778 -40.26408,3.18484c-11.72231,1.64846 -29.08904,7.11058 -29.08904,7.11058z" fill="#ee96c3" stroke-width="0"/><path d="M78.4359,227.26578l2.00399,-20.32821c0,0 -0.56188,-7.03245 6.51696,-9.79651c8.79217,-3.43304 25.76146,-2.75441 27.82773,-2.8896c1.58561,-0.10374 -12.19995,11.23717 -12.19995,11.23717l1.31586,20.111z" fill="#c4b4b3" stroke-width="0"/><g stroke-width="0"><path d="M357.80315,190.69437l-3.83973,-14.92404l93.00051,0.69399l-0.376,5.84398l-47.01024,7.94336z" fill="#ad6d8e"/><path d="M383.15631,174.66861l6.7171,-8.72989l26.57858,-3.87263l-3.61669,10.66065z" fill="#8d788b"/><path d="M357.81728,177.5177l-1.06,-16.20063l33.1865,4.62119l-4.12045,7.15332z" fill="#857183"/><path d="M399.9287,171.43437l16.46085,-9.363l28.02855,1.94687l0.16466,6.89796z" fill="#947e92"/><path d="M353.61741,177.1827l2.05396,-12.92766l1.24369,-3.15173l0.98351,15.03171z" fill="#756474"/><path d="M358.86987,187.40329l-1.50799,-11.99985l43.11373,-4.47328l-0.1751,16.10285z" fill="#746373"/><path d="M400.29184,187.01808c0,0 -0.03264,-6.31884 -0.02002,-9.16989c0.01081,-2.44101 0.09111,-6.8981 0.09111,-6.8981l44.16507,-1.97867l2.54417,8.25151z" fill="#867284"/><path d="M353.65314,177.10971l3.91905,-1.7906l1.32814,12.08982z" fill="#6f5e6d"/><path d="M437.21115,164.38194l-19.99552,-2.06256l26.90765,1.88358l-0.13137,3.56164c0,0 -0.41537,-1.54544 -1.66716,-2.16995c-0.83735,-0.41773 -5.11365,-1.21275 -5.11365,-1.21275z" fill="#978195"/><path d="M398.21575,170.89536c0,0 7.73137,-3.97856 10.41525,-5.51113c1.9551,-1.11641 4.20596,-2.83811 4.20596,-2.83811l2.53579,-0.05307l-14.51401,8.22933z" fill="#9c859a"/><path d="M383.91838,172.64088c0,0 1.13388,-2.83236 2.39313,-4.26793c1.25921,-1.43556 3.50931,-2.39976 3.50931,-2.39976l-3.44614,6.50695z" fill="#806b7d"/><path d="M417.84928,160.22642l1.75444,-5.8604l15.41133,2.73298l6.00592,6.02071z" fill="#55494f"/><path d="M415.50414,163.18592c0,0 1.02854,-0.85918 1.54954,-1.47927c0.39245,-0.46708 0.98857,-1.89365 0.98857,-1.89365l22.52727,2.53459c0,0 0.89845,0.43925 1.50467,0.72597c0.63355,0.29961 2.21821,1.03474 2.21821,1.03474z" fill="#685960"/><path d="M418.35101,159.29948l1.3556,-4.68387l14.33338,2.39611c0,0 -8.08969,-1.00669 -12.5446,-0.45999c-2.58409,0.31713 -3.14437,2.74772 -3.14437,2.74772z" fill="#41383c"/></g><path d="M77.50717,187.96242l-0.34008,-5.19722c0,0 22.20431,-2.75065 44.11932,-4.12745c13.05935,-0.82044 26.70457,-0.11218 33.5882,-0.9134c15.52109,-1.80669 25.67297,-6.99277 25.67297,-6.99277l-5.63215,11.0344z" fill="#ffa1d1" stroke-width="0"/><path d="M75.84604,202.05853l1.1057,-16.18935c0,0 54.8139,-1.52154 72.59424,-3.12649c10.53233,-0.95071 24.25722,-5.61595 24.25722,-5.61595l0.95597,14.61112c0,0 -67.357,4.40714 -83.59467,5.46956c-6.67631,0.43682 -13.56318,31.67804 -13.56318,31.67804z" fill="#ee96c3" stroke-width="0"/><path d="M259.6672,266.68688l8.37257,-14.17276c0,0 8.86216,-16.47101 17.79436,-23.93288c2.26982,-1.89617 7.35022,-3.42767 7.35022,-3.42767c0,0 -6.96283,5.45137 -9.36984,8.40624c-5.68433,6.97818 -24.14721,33.12703 -24.14721,33.12703z" fill="#70646b" stroke-width="0"/><path d="M351.23735,195.7162l-7.46253,-17.55203l1.34723,-0.08815c0,0 2.26004,5.31565 3.45424,8.12448c0.17015,0.40019 1.61196,1.52956 1.82268,2.02528c0.36535,0.85931 -0.46927,1.15796 -0.06095,2.11838c1.13705,2.67434 2.24653,5.28387 2.24653,5.28387z" fill="#795467" stroke-width="0"/><path d="M175.41835,192.12744c0,0 -10.88747,-5.85396 -10.45601,-9.6652c0.25832,-2.28197 16.54577,-11.31678 16.54577,-11.31678l68.46492,-2.80394l-1.43103,3.19637l29.92955,3.30136l-69.9077,31.20605c0,0 -1.15619,-5.55017 2.25179,-8.63742c3.31223,-3.00048 17.91699,-9.63315 17.91699,-9.63315c0,0 -34.14756,2.18518 -41.42862,2.57469c-2.42912,0.12994 -11.88571,1.77801 -11.88571,1.77801z" fill="#f399c8" stroke-width="0"/><g><path d="M179.84069,173.18287l-0.21142,-3.23143l176.17693,-11.52717l0.21142,3.23143z" fill="#584f54" stroke-width="0"/><path d="M350.03845,159.05038l-0.17867,-2.7305l3.04875,-0.19949l2.86869,2.55451z" fill="#685d63" stroke-width="0"/><g fill="#685d63" stroke-width="0"><g><g><g><path d="M343.40887,159.73387l-0.19435,-2.97067l3.87282,-0.25343l0.19435,2.97067z"/><path d="M337.12478,160.14504l-0.19435,-2.97067l3.87283,-0.25342l0.19435,2.97067z"/></g><g><path d="M331.07783,160.54071l-0.19435,-2.97068l3.87283,-0.25342l0.19435,2.97067z"/><path d="M324.79369,160.95188l-0.19435,-2.97067l3.87282,-0.25342l0.19435,2.97068z"/></g></g><g><g><path d="M318.62814,161.35524l-0.19435,-2.97068l3.87282,-0.25342l0.19435,2.97067z"/><path d="M312.34402,161.76644l-0.19435,-2.97067l3.87282,-0.25343l0.19435,2.97068z"/></g><g><path d="M306.29712,162.16207l-0.19435,-2.97067l3.87282,-0.25342l0.19435,2.97067z"/><path d="M300.01304,162.57323l-0.19435,-2.97067l3.87281,-0.25343l0.19435,2.97068z"/></g></g></g><g><g><g><path d="M299.77592,162.58878l-0.19435,-2.97067l3.87282,-0.25342l0.19435,2.97067z"/><path d="M293.49187,162.99994l-0.19435,-2.97067l3.87283,-0.25342l0.19435,2.97067z"/></g><g><path d="M287.44488,163.3956l-0.19435,-2.97068l3.87282,-0.25342l0.19435,2.97067z"/><path d="M281.16078,163.80674l-0.19435,-2.97067l3.87281,-0.25343l0.19435,2.97068z"/></g></g><g><g><path d="M274.9953,164.21015l-0.19435,-2.97068l3.87283,-0.25342l0.19435,2.97067z"/><path d="M268.71118,164.62132l-0.19435,-2.97067l3.87283,-0.25342l0.19435,2.97068z"/></g><g><path d="M262.66421,165.017l-0.19435,-2.97067l3.87282,-0.25343l0.19435,2.97068z"/><path d="M256.38012,165.42811l-0.19435,-2.97067l3.87283,-0.25342l0.19435,2.97067z"/></g></g></g></g><g><g fill="#685d63" stroke-width="0"><g><g><path d="M250.17425,165.83417l-0.19435,-2.97068l3.87283,-0.25342l0.19435,2.97067z"/><path d="M243.89017,166.2453l-0.19435,-2.97067l3.87283,-0.25342l0.19435,2.97068z"/></g><g><path d="M237.84321,166.64103l-0.19435,-2.97067l3.87283,-0.25342l0.19435,2.97068z"/><path d="M231.55914,167.05214l-0.19435,-2.97067l3.87282,-0.25343l0.19435,2.97068z"/></g></g><g><g><path d="M225.39362,167.45558l-0.19435,-2.97068l3.87283,-0.25342l0.19435,2.97067z"/><path d="M219.10951,167.86667l-0.19435,-2.97067l3.87283,-0.25342l0.19435,2.97068z"/></g><g><path d="M213.06251,168.26236l-0.19435,-2.97067l3.87283,-0.25342l0.19435,2.97068z"/><path d="M206.77844,168.67357l-0.19435,-2.97067l3.87282,-0.25343l0.19435,2.97067z"/></g></g></g><g><g fill="#685d63" stroke-width="0"><g><path d="M206.54133,168.68906l-0.19435,-2.97068l3.87283,-0.25342l0.19435,2.97067z"/><path d="M200.25721,169.10021l-0.19435,-2.97067l3.87282,-0.25343l0.19435,2.97068z"/></g><g><path d="M194.21026,169.49588l-0.19435,-2.97067l3.87282,-0.25343l0.19435,2.97068z"/><path d="M187.92617,169.90697l-0.19435,-2.97067l3.87282,-0.25343l0.19435,2.97067z"/></g></g><g fill="none" stroke-width="1" font-family="sans-serif" font-weight="normal" font-size="12" text-anchor="start"><g/><g/></g></g></g><path d="M179.71685,170.19447l2.51139,-2.90649l3.04875,-0.19949l0.17867,2.7305z" data-paper-data="{&quot;index&quot;:null}" fill="#685d63" stroke-width="0"/></g><path d="M238.6536,199.29499l-2.52879,0.43607c0,0 1.50771,-2.67168 11.00875,-4.42343c7.20321,-1.32808 27.637,-3.97934 39.87239,-5.52725c5.68179,-0.71883 61.47531,-13.39055 61.47531,-13.39055l5.18679,-0.35373c0,0 -60.88901,14.65141 -66.5681,15.34677c-12.55801,1.53761 -33.67106,4.15888 -39.76881,5.1376c-3.31937,0.53276 -8.67746,2.77448 -8.67746,2.77448z" fill="#70475c" stroke-width="0"/><path d="M340.591,211.69363l-4.7928,2.16334l-1.23535,-18.89101c0,0 7.778,-0.4604 15.38472,-0.91066c21.83666,-1.2926 126.78507,-7.5049 126.78507,-7.5049l0.43922,6.71291z" fill="#5a5959" stroke-width="0"/><path d="M339.78419,213.37829l0.89232,-3.07085l136.50041,-17.15421l-11.06883,11.95979z" fill="#4b4a4a" stroke-width="0"/><path d="M462.81695,205.13886c0,0 -6.10421,-2.83224 -9.22342,-4.0593c-1.67166,-0.65759 -8.03722,-2.73072 -8.03722,-2.73072c0,0 8.17396,2.37513 11.57331,3.10271c1.21318,0.25968 2.38289,0.9275 3.71861,1.36939c0.43071,0.14246 2.07011,-2.72986 3.85305,-4.56453c0.53293,-0.54839 1.71449,-0.26035 2.21713,-0.62475c1.15234,-0.83537 1.43933,-1.94789 1.43933,-1.94789c0,0 0.39742,0.90553 -0.73967,2.19632c-0.31022,0.35219 -2.08632,0.82148 -2.38755,1.2023c-1.2072,1.52638 -2.10247,3.18742 -2.36834,3.79732c-0.74197,1.70188 1.41498,2.16366 1.41498,2.16366z" fill="#414040" stroke-width="0"/><path d="M175.38891,192.42742l3.08244,-11.32418l6.95041,-1.0804c0,0 -0.77572,2.70461 -1.23286,4.29862c-0.11514,0.40146 11.52605,-2.32055 11.92114,-1.67392c0.73301,1.19968 -4.58171,5.31534 -4.86921,6.31781c-0.32871,1.14604 -8.98875,2.10933 -8.98875,2.10933z" fill="#303030" stroke-width="0"/><path d="M175.22149,192.06753l3.03267,-10.48405c0,0 3.07895,1.10593 3.14325,2.0888c0.11702,1.78837 -1.08079,7.66627 -1.08079,7.66627z" fill="#252525" stroke-width="0"/><path d="M335.95355,216.5082l-0.19276,-2.94609l5.31923,-3.30676l-1.0427,3.02691c0,0 -1.00089,1.4036 -1.7191,1.97095c-0.63197,0.49924 -2.36466,1.25493 -2.36466,1.25493z" fill="#383838" stroke-width="0"/><g><g fill="#4b4b4b" stroke-width="0"><g data-paper-data="{&quot;origPos&quot;:null}"><g data-paper-data="{&quot;origPos&quot;:null}"><path d="M403.04104,213.49262l-0.14838,-2.2679l3.742,-0.24486l0.14838,2.2679z" data-paper-data="{&quot;origPos&quot;:null}"/><path d="M396.79694,213.7873l-0.14838,-2.2679l3.74199,-0.24486l0.14838,2.26789z" data-paper-data="{&quot;origPos&quot;:null}"/></g><g data-paper-data="{&quot;origPos&quot;:null}"><path d="M415.52182,212.7899l-0.14838,-2.2679l3.742,-0.24486l0.14838,2.26789z" data-paper-data="{&quot;origPos&quot;:null}"/><path d="M409.27771,213.08456l-0.14838,-2.26789l3.74199,-0.24486l0.14838,2.2679z" data-paper-data="{&quot;origPos&quot;:null}"/></g></g><g data-paper-data="{&quot;origPos&quot;:null,&quot;index&quot;:null}"><g data-paper-data="{&quot;origPos&quot;:null}"><path d="M434.67056,211.30928l-0.14838,-2.2679l3.742,-0.24486l0.14838,2.26789z" data-paper-data="{&quot;origPos&quot;:null}"/><path d="M440.89977,210.78775l-0.14839,-2.26789l3.742,-0.24486l0.14838,2.26788z" data-paper-data="{&quot;origPos&quot;:null}"/></g><g data-paper-data="{&quot;origPos&quot;:null}"><path d="M422.20463,212.23875l-0.14838,-2.2679l3.74199,-0.24486l0.14839,2.26789z" data-paper-data="{&quot;origPos&quot;:null}"/><path d="M428.43387,211.7173l-0.14838,-2.26789l3.742,-0.24486l0.14838,2.26789z" data-paper-data="{&quot;origPos&quot;:null}"/></g></g></g><path d="M359.87215,208.05436l-0.88867,-13.58209l84.29377,-5.51529l0.88867,13.58209z" data-paper-data="{&quot;origPos&quot;:null}" fill="#444444" stroke-width="0"/><path d="M360.27875,212.76011l-0.31224,-4.77224l84.04603,-5.49909l0.31224,4.77225z" data-paper-data="{&quot;origPos&quot;:null}" fill="#414141" stroke-width="0"/><path d="M360.40649,214.17904l-0.10561,-1.61418l84.03532,-5.49838l0.10562,1.61417z" data-paper-data="{&quot;origPos&quot;:null}" fill="#3f3f3f" stroke-width="0"/><g stroke-width="0"><g data-paper-data="{&quot;origPos&quot;:null}" fill="#5a5a5a"><g data-paper-data="{&quot;origPos&quot;:null}"><path d="M403.05664,205.3084l-0.89775,-13.72065l3.56378,-0.23318l0.89775,13.72065z" data-paper-data="{&quot;origPos&quot;:null}"/></g><g data-paper-data="{&quot;origPos&quot;:null}"><path d="M409.11513,204.912l-0.89775,-13.72065l3.56379,-0.23318l0.89775,13.72065z" data-paper-data="{&quot;origPos&quot;:null}"/><path d="M415.35181,204.50391l-0.89774,-13.72066l3.56378,-0.23318l0.89775,13.72065z" data-paper-data="{&quot;origPos&quot;:null}"/></g></g><g data-paper-data="{&quot;origPos&quot;:null}" fill="#5a5a5a"><g data-paper-data="{&quot;origPos&quot;:null}"><path d="M421.94485,204.07254l-0.89775,-13.72065l3.56378,-0.23318l0.89775,13.72066z" data-paper-data="{&quot;origPos&quot;:null}"/><path d="M428.18148,203.66446l-0.89775,-13.72065l3.56379,-0.23318l0.89774,13.72066z" data-paper-data="{&quot;origPos&quot;:null}"/></g><g data-paper-data="{&quot;origPos&quot;:null}"><path d="M434.23999,203.26806l-0.89774,-13.72066l3.56378,-0.23318l0.89774,13.72066z" data-paper-data="{&quot;origPos&quot;:null}"/><path d="M440.47665,202.85999l-0.89774,-13.72066l3.56378,-0.23318l0.89775,13.72065z" data-paper-data="{&quot;origPos&quot;:null}"/></g></g><path d="M406.68167,205.0712l-0.75085,1.98426l-5.22737,0.38521l-0.77866,-9.76648l2.17538,-6.08269l0.96656,13.71618z" fill="#3a3a3a"/><path d="M412.73772,204.67496l-0.75085,1.98427l-5.22738,0.3852l-0.77865,-9.76648l2.17538,-6.08268l0.96656,13.71617z" fill="#3a3a3a"/><path d="M418.93136,204.26972l-0.75085,1.98427l-5.22738,0.38521l-0.77866,-9.76648l2.17538,-6.08268l0.96656,13.71618z" fill="#3a3a3a"/><path d="M425.60673,203.83293l-0.75085,1.98427l-5.22738,0.38521l-0.77866,-9.76648l2.17538,-6.08268l0.96656,13.71618z" fill="#3a3a3a"/><path d="M431.86923,203.42325l-0.75085,1.98427l-5.22738,0.38521l-0.77866,-9.76648l2.17538,-6.08268l0.96656,13.71617z" fill="#3a3a3a"/><path d="M437.85639,203.03144l-0.75085,1.98426l-5.22737,0.38521l-0.77866,-9.76648l2.17538,-6.08268l0.96656,13.71618z" fill="#3a3a3a"/><path d="M444.12675,202.62116l-0.75085,1.98426l-5.22738,0.38521l-0.77865,-9.76648l2.17538,-6.08269l0.96656,13.71618z" fill="#3a3a3a"/></g><g stroke-width="0"><g data-paper-data="{&quot;origPos&quot;:null}" fill="#5a5a5a"><g data-paper-data="{&quot;origPos&quot;:null}"><path d="M359.91986,208.13083l-0.89774,-13.72066l3.56379,-0.23318l0.89775,13.72065z" data-paper-data="{&quot;origPos&quot;:null}"/></g><g data-paper-data="{&quot;origPos&quot;:null}"><path d="M365.97831,207.73442l-0.89775,-13.72065l3.56378,-0.23318l0.89775,13.72065z" data-paper-data="{&quot;origPos&quot;:null}"/><path d="M372.21495,207.32637l-0.89775,-13.72065l3.56379,-0.23318l0.89774,13.72066z" data-paper-data="{&quot;origPos&quot;:null}"/></g></g><g data-paper-data="{&quot;origPos&quot;:null}" fill="#5a5a5a"><g data-paper-data="{&quot;origPos&quot;:null}"><path d="M378.80801,206.89499l-0.89774,-13.72066l3.5638,-0.23317l0.89775,13.72065z" data-paper-data="{&quot;origPos&quot;:null}"/><path d="M385.04474,206.4869l-0.89775,-13.72065l3.56379,-0.23318l0.89774,13.72066z" data-paper-data="{&quot;origPos&quot;:null}"/></g><g data-paper-data="{&quot;origPos&quot;:null}"><path d="M391.10322,206.09051l-0.89775,-13.72065l3.56379,-0.23318l0.89774,13.72066z" data-paper-data="{&quot;origPos&quot;:null}"/><path d="M397.33989,205.68248l-0.89774,-13.72066l3.56379,-0.23318l0.89775,13.72066z" data-paper-data="{&quot;origPos&quot;:null}"/></g></g><path d="M363.54482,207.89366l-0.75085,1.98427l-2.72112,0.22124l-0.14295,-1.96901z" fill="#3a3a3a"/><path d="M369.60088,207.49743l-0.75085,1.98427l-5.22738,0.38521l-0.77865,-9.76648l2.17538,-6.08268l0.96656,13.71618z" fill="#3a3a3a"/><path d="M375.79448,207.09216l-0.75085,1.98426l-5.22738,0.38521l-0.77866,-9.76647l2.17538,-6.08269l0.96656,13.71618z" fill="#3a3a3a"/><path d="M382.46988,206.65536l-0.75085,1.98426l-5.22738,0.38521l-0.77865,-9.76648l2.17538,-6.08268l0.96656,13.71618z" fill="#3a3a3a"/><path d="M388.73242,206.24567l-0.75085,1.98426l-5.22737,0.38521l-0.77866,-9.76648l2.17538,-6.08268l0.96656,13.71618z" fill="#3a3a3a"/><path d="M394.71959,205.85386l-0.75085,1.98426l-5.22737,0.38521l-0.77866,-9.76648l2.17538,-6.08269l0.96656,13.71618z" fill="#3a3a3a"/><path d="M400.98999,205.44362l-0.75085,1.98427l-5.22737,0.38521l-0.77866,-9.76648l2.17538,-6.08268l0.96656,13.71618z" fill="#3a3a3a"/></g><g><g data-paper-data="{&quot;origPos&quot;:null}"><g data-paper-data="{&quot;origPos&quot;:null}" fill="none" stroke-width="1" font-family="sans-serif" font-weight="normal" font-size="12" text-anchor="start"/><g data-paper-data="{&quot;origPos&quot;:null}" fill="#4b4b4b" stroke-width="0"><path d="M366.89502,216.0486l-0.14838,-2.2679l3.74199,-0.24486l0.14839,2.26789z" data-paper-data="{&quot;origPos&quot;:null}"/><path d="M360.65092,216.34327l-0.14838,-2.2679l3.74199,-0.24486l0.14838,2.2679z" data-paper-data="{&quot;origPos&quot;:null}"/></g></g><g data-paper-data="{&quot;origPos&quot;:null,&quot;index&quot;:null}" fill="#4b4b4b" stroke-width="0"><g data-paper-data="{&quot;origPos&quot;:null}"><path d="M386.0438,214.5679l-0.14838,-2.26789l3.742,-0.24486l0.14838,2.26789z" data-paper-data="{&quot;origPos&quot;:null}"/><path d="M392.27302,214.04645l-0.14838,-2.26788l3.742,-0.24486l0.14838,2.26789z" data-paper-data="{&quot;origPos&quot;:null}"/></g><g data-paper-data="{&quot;origPos&quot;:null}"><path d="M373.57779,215.49749l-0.14838,-2.2679l3.742,-0.24486l0.14838,2.26789z" data-paper-data="{&quot;origPos&quot;:null}"/><path d="M379.80705,214.97594l-0.14838,-2.2679l3.742,-0.24486l0.14838,2.2679z" data-paper-data="{&quot;origPos&quot;:null}"/></g></g></g></g><path d="M187.93783,190.009l0.76222,-4.274c0,0 4.39574,-3.44181 7.90953,-3.82206c4.01696,-0.43468 33.92356,-2.36645 33.92356,-2.36645c0,0 0.78306,1.82852 0.80973,3.04658c0.03435,1.56931 -1.87713,4.76556 -1.87713,4.76556z" fill="#242424" stroke-width="0"/><path d="M212.5218,184.58226l-0.20569,-3.1436l17.96338,-1.17534l0.20569,3.1436z" fill="#313131" stroke-width="0"/><path d="M209.36109,186.72385l-0.04258,-0.65086c0,0 0.99693,-1.11864 2.01783,-1.18544c0.96942,-0.06341 3.18374,0.26764 5.64108,0.27058c4.68119,0.00557 10.30422,-0.26043 10.30422,-0.26043l0.04258,0.65086c0,0 -5.41681,0.35237 -10.03298,0.34309c-2.51878,-0.00505 -4.81928,-0.42475 -5.82491,-0.35896c-1.05702,0.06916 -2.10523,1.19118 -2.10523,1.19118z" fill="#616161" stroke-width="0"/><path d="M235.41057,169.27491l12.8638,2.1914l31.13121,3.28254c0,0 0.74621,0.17584 -7.38266,-0.02208c-2.7653,-0.06731 -13.48599,-0.97835 -22.81334,-2.27497c-2.52386,-0.35084 -16.05415,-2.91373 -16.05415,-2.91373z" fill="#df8cb7" stroke-width="0"/><path d="M55.1233,187.42091l-0.38738,-5.92046c0,0 5.64331,-2.12594 9.43901,-2.37428c3.1074,-0.20332 11.80071,2.74131 11.80071,2.74131l0.6666,12.25334z" fill="#626061" stroke-width="0"/><path d="M171.58724,189.80779l3.95178,2.25279l12.13462,-2.11996l50.63667,-3.31311l0.07127,1.08872c0,0 -37.99448,2.34042 -49.85538,3.37923c-3.2564,0.28522 -12.88803,1.63782 -12.88803,1.63782z" fill="#ffa6d4" stroke-width="0"/><path d="M56.42107,251.40299l-0.4681,-7.1543l22.29193,-18.12433l-0.71142,13.74469l-13.18053,11.01499z" fill="#3f3d3e" stroke-width="0"/><path d="M54.46406,246.46007c0,0 -1.09588,-19.62217 -0.91759,-29.23763c0.20122,-10.85257 2.06433,-32.61679 2.06433,-32.61679c0,0 8.58381,-0.75138 12.2657,0.65705c3.15117,1.20539 8.48226,7.27969 8.48226,7.27969l2.19057,33.47998c0,0 -10.93715,14.44304 -13.82804,16.89613c-4.44668,3.77329 -10.25721,3.5416 -10.25721,3.5416z" fill="#555354" stroke-width="0"/><path d="M56.1523,195.19136c0,0 -1.92815,-5.87956 -0.04252,-8.70592c1.88564,-2.82638 6.15953,-4.12511 8.71433,-4.29227c2.03804,-0.13335 6.26086,-0.33075 9.4192,3.93065c3.15839,4.26138 1.67834,11.04254 1.67834,11.04254c0,0 -6.96565,-9.97018 -9.54431,-10.22778c-3.6388,-0.3635 -10.22508,8.25284 -10.22508,8.25284z" fill="#6f6b6c" stroke-width="0"/><path d="M53.33221,251.41637c0,0 0.00925,-26.11886 -0.73789,-37.53824c-0.77809,-11.89238 -2.34468,-32.55259 -2.34468,-32.55259c0,0 1.11175,-0.71708 2.15038,-0.78505c0.94968,-0.06214 2.55517,0.47717 2.55517,0.47717c0,0 1.03676,19.12841 1.73503,29.80037c0.81125,12.39896 0.06438,40.37437 0.06438,40.37437z" fill="#333232" stroke-width="0"/><path d="M52.93132,251.88721l0.13154,-14.74831c0,0 1.11099,0.8181 1.7066,0.74038c0.75208,-0.09816 2.33167,-1.64207 2.33167,-1.64207l-0.20915,15.39083z" fill="#2e2d2d" stroke-width="0"/><path d="M76.27108,214.02269c0.53305,8.14722 -3.01641,17.06593 -7.18122,20.27207c-3.45898,2.66282 -10.50043,9.89589 -11.03348,1.74873c-0.11308,-1.72841 1.15103,-13.71586 0.82024,-20.73908c-0.4375,-9.28809 -2.40492,-14.1509 -1.63404,-17.03902c1.39398,-5.22217 6.80885,-7.0591 9.01861,-7.20367c4.35594,-0.28501 9.47686,14.8138 10.00994,22.96101z" fill="#585758" stroke-width="0"/><path d="M111.5788,225.82564l-0.70496,-1.69835c0,0 7.83459,-1.86604 13.80814,-2.74207c8.40937,-1.23326 31.88887,-3.95948 31.88887,-3.95948l1.87573,1.16122c0,0 -24.95128,3.25639 -33.59624,4.59163c-2.53891,0.39214 -13.27151,2.6471 -13.27151,2.6471z" fill="#585657" stroke-width="0"/><path d="M106.56286,239.38257l4.2848,-14.00101l7.16479,-1.42147c0,0 -1.45277,4.41778 -1.31731,5.16567c0.64705,3.5737 5.20236,27.29395 5.20236,27.29395c0,0 -1.44555,0.53594 -2.75485,-1.25794c-2.34927,-3.2188 -4.62889,-9.94633 -6.51454,-11.93009c-1.6292,-1.71398 -6.06521,-3.84909 -6.06521,-3.84909z" fill="#5a5759" stroke-width="0"/><path d="M117.05437,207.82621l2.14279,-11.49773l2.3211,-0.26322l-3.23703,11.79204z" fill="#a5a0a2" stroke-width="0"/><path d="M123.75883,206.30171l-0.0916,-1.39978l26.43969,-1.72993l0.09161,1.39977z" fill="#494748" stroke-width="0"/><path d="M123.48439,203.34203l-0.0916,-1.39978l26.43969,-1.72993l0.0916,1.39978z" fill="#494748" stroke-width="0"/><path d="M105.55543,226.97077l-1.31482,-20.09539l11.5934,-10.39534l4.81387,-0.6274l-13.44573,43.78481l-5.73006,-1.63273z" fill="#dbd5d8" stroke-width="0"/><path d="M79.89133,240.58986l-0.92739,-11.75534l26.54608,-2.52807c0,0 0.49526,2.51076 0.41745,3.31606c-0.19383,2.00741 -1.74385,9.06149 -1.74385,9.06149z" fill="#ccc6c9" stroke-width="0"/><path d="M82.92943,228.9763l-0.02064,-0.31512l22.71162,-2.35633l-2.52253,1.35188c0,0 -4.30025,0.46798 -7.00527,0.61314c-3.70389,0.19879 -13.16321,0.70645 -13.16321,0.70645z" fill="#d8d1d5" stroke-width="0"/><path d="M86.19339,225.01795l-1.10993,-16.9637l16.0906,-1.05278l1.10993,16.9637z" fill="#a39999" stroke-width="0"/><path d="M79.62645,240.77728l-0.74166,-11.33507c0,0 9.23501,5.79608 13.66534,7.85181c4.43034,2.05574 10.89941,1.35186 10.89941,1.35186z" fill="#b4afb1" stroke-width="0"/><path d="M113.5924,244.61048c0,0 3.09095,0.84049 4.17536,0.62549c0.66615,-0.13209 1.71221,-1.79286 1.71221,-1.79286l2.24738,8.94557l0.27391,4.18615c0,0 -1.91856,0.43762 -3.3635,-2.05594c-1.1922,-2.05739 -5.04532,-9.90838 -5.04532,-9.90838z" fill="#504e4f" stroke-width="0"/><path d="M106.90303,239.91789l11.70525,-42.59871l1.75329,0.09086l-11.57612,43.00139z" fill="#858183" stroke-width="0"/><path d="M87.44182,200.34806l1.40376,-1.74587c0,0 27.31506,-2.43249 39.69888,-3.24274c10.74831,-0.70324 31.89983,-1.73344 31.89983,-1.73344l0.65511,1.90267c0,0 -21.29795,0.68604 -32.62732,1.42731c-12.93671,0.84646 -41.03027,3.39208 -41.03027,3.39208z" fill="#918b8e" stroke-width="0"/><path d="M88.37749,199.05344l1.89281,-2.06941c0,0 25.81004,-2.04245 38.19383,-2.85274c10.7483,-0.70324 31.89983,-1.73344 31.89983,-1.73344l0.6551,1.90267c0,0 -21.29794,0.68604 -32.62732,1.4273c-12.93671,0.84646 -40.01424,3.32558 -40.01424,3.32558z" fill="#a59fa2" stroke-width="0"/><path d="M154.20545,215.57686l-2.29243,-5.54478c0,0 0.13249,-1.21629 0.45739,-1.35058c0.28626,-0.11835 1.3908,0.58642 1.3908,0.58642l2.29243,5.54479c0,0 -0.21827,0.89379 -0.50518,1.01239c-0.32455,0.13419 -1.3431,-0.24826 -1.3431,-0.24826z" fill="#494242" stroke-width="0"/><path d="M114.18968,220.84937l2.91597,-9.69678l3.87743,-0.25371l-2.91597,9.69678z" fill="#9c989a" stroke-width="0"/><path d="M122.57595,202.48646l1.78357,-1.08671l24.38787,-1.57757l2.07576,0.81615z" fill="#757274" stroke-width="0"/><path d="M122.85358,205.28559l1.78357,-1.08672l24.38786,-1.57756l2.07577,0.81613z" fill="#757274" stroke-width="0"/><path d="M77.14677,239.95446l-2.0938,-58.14509l1.95411,0.45411l2.66435,58.50974z" fill="#686666" stroke-width="0"/><path d="M77.00139,240.23486l-0.40814,-16.2638l2.53551,3.66072l0.43357,13.31015z" fill="#535252" stroke-width="0"/><path d="M106.18817,215.40158c0,0 1.96637,-2.47914 1.90456,-3.42392c-0.06065,-0.92714 -2.27207,-2.19277 -2.27207,-2.19277c0,0 3.03934,0.47226 3.04562,2.16378c0.00475,1.28842 -0.90068,3.54135 -0.91588,4.64707c-0.04329,3.14398 -0.25073,10.52062 -0.25073,10.52062z" fill="#c4bec1" stroke-width="0"/><path d="M113.72296,212.99283l1.24187,-10.29852l2.25911,-4.5114l-2.0253,9.71115z" fill="#aca7a9" stroke-width="0"/></g></g><g stroke-width="0"><path d="M229.71281,177.51372l2.33215,-3.4889c0,0 1.70981,-1.55124 2.55097,-1.33072c0.95904,0.25146 2.89613,2.75889 2.89613,2.75889l-0.27428,4.10863c0,0 -4.27259,0.27199 -5.54487,0.22165c-0.57356,-0.02269 -1.96006,-2.26952 -1.96006,-2.26952z" fill="#c0c0c0"/><path d="M187.51565,189.94639c0,0 -0.36413,-2.86234 0.61839,-4.06791c1.23129,-1.51085 7.15382,-4.1153 7.15382,-4.1153l-0.39981,4.77339l0.19074,2.91498z" fill="#838383"/><path d="M187.339,189.88345l7.599,-7.9945l37.48218,-2.45244l0.48846,7.46532z" fill="#999999"/><path d="M188.293,189.16318l5.76519,-6.23083l33.70025,-2.205l0.38137,5.82865c0,0 -4.07885,0.26687 -9.32585,0.61021c-3.41139,0.22323 -7.38585,-0.58104 -10.98481,-0.34555c-3.86081,0.25259 -7.29994,1.54191 -9.46846,1.6838c-4.24409,0.27768 -10.06769,0.6587 -10.06769,0.6587z" fill="#2e2e2e"/><path d="M191.77765,188.93299l7.9656,-6.43711l12.43751,-0.81378c0,0 -7.2358,2.38487 -9.54114,3.45221c-2.44739,1.13307 -5.51492,3.44882 -5.51492,3.44882z" fill="#a5899d"/><path d="M199.74238,188.29887c0,0 5.0108,-1.30206 7.46268,-1.46245c3.13286,-0.205 9.79726,0.33316 9.79726,0.33316l-9.65532,0.29585z" fill="#adadad"/><path d="M187.44213,189.85848l6.86326,-7.21515l34.89206,-2.28293l0.04496,0.68711c0,0 -30.2122,1.97679 -34.15038,2.23442c-0.82371,0.0539 -7.64983,6.57657 -7.64983,6.57657z" fill="#8a8a8a"/><path d="M234.91594,193.00142l-0.63692,-9.73453l0.17914,-7.22902c0,0 1.21532,0.39138 1.80485,0.91753c0.5895,0.52613 1.04578,1.62651 1.04578,1.62651l-0.38414,14.28809z" fill="#9e9e9e"/><path d="M229.19976,189.13566c0,0 -1.04858,-2.06086 -1.28871,-3.63768c-0.32342,-2.12335 0.17002,-7.68565 0.17002,-7.68565l1.91604,-0.45141c0,0 0.80894,0.74053 1.27607,0.56052c0.64403,-0.24822 2.23076,-1.9121 2.23076,-1.9121l0.33529,12.82277z" fill="#9c9c9c"/><path d="M229.89198,190.9249c-0.85282,-1.051 -0.70256,-2.4369 -0.70256,-2.4369l4.39718,-7.50348c0,0 1.64423,3.7845 1.70406,4.69901c0.17011,2.59998 1.48458,7.27384 1.48458,7.27384c0,0 -2.96828,0.27812 -4.03354,-0.09174c-1.27768,-0.4436 -1.99679,-0.88975 -2.84966,-1.94078z" fill="#888888"/><path d="M231.61836,190.03602c-1.11671,-1.93095 -2.41647,-6.31853 -0.842,-10.497c1.57451,-4.17851 4.12284,-2.20949 4.12284,-2.20949c0,0 1.29314,4.3478 1.44414,6.65575c0.13757,2.10233 -0.57465,6.63261 -0.57465,6.63261c0,0 -3.03358,1.34906 -4.15027,-0.58191z" fill="#b4b4b4"/><path d="M235.26885,182.08547c0.09214,1.40807 -5.00188,1.81894 -5.09402,0.4109c-0.09214,-1.40807 2.60739,-6.99844 3.41808,-7.05144c0.31398,-0.02053 0.9631,0.03904 1.22843,1.08465c0.41973,1.65419 0.39105,4.6932 0.44748,5.55593z" fill="#bbbbbb"/></g><g stroke-width="0"><path d="M171.4901,189.79896c0,0 -6.16512,-4.52446 -6.28744,-6.39387c-0.0999,-1.52639 5.91544,-2.04334 5.91544,-2.04334l7.53387,-0.42095l-3.31179,11.01871z" fill="#f399c8"/><path d="M141.13627,193.43017c0,0 -1.10497,-2.03002 -0.91833,-3.11725c0.20601,-1.19984 2.02656,-4.93158 2.02656,-4.93158l22.97687,-1.68941l9.6697,8.00891z" fill="#ee96c3"/></g></g><g stroke-width="0"><g><path d="M235.13303,167.51257l-0.40363,-6.1686l47.71614,-3.12203l0.40363,6.1686z" fill="#61585b"/><path d="M234.75832,164.2866l-0.21615,-3.30328l47.89759,-3.13389l0.21615,3.30327c0,0 -8.62243,0.56413 -17.47984,1.1437c-2.76933,0.18119 -6.56367,1.94995 -9.12261,2.11733c-3.04288,0.19909 -6.40537,-1.10138 -8.35724,-0.97368c-5.85281,0.38295 -12.93787,0.84648 -12.93787,0.84648z" fill="#494344"/><path d="M296.02251,153.65881l-10.54955,-18.28318l20.8746,-1.3658l16.49082,15.73118c0,0 -5.60908,1.73129 -8.81736,2.20001c-4.95066,0.72331 -17.99852,1.7178 -17.99852,1.7178z" fill="#5e555b"/><path d="M296.24891,157.08637l-0.36161,-5.52667c0,0 12.17736,-2.25298 17.00818,-3.35034c3.83382,-0.87089 6.59555,-1.63487 6.59555,-1.63487l6.37973,6.53617c0,0 -5.21683,1.94087 -9.32686,2.65467c-5.5689,0.96715 -20.29494,1.32109 -20.29494,1.32109z" fill="url(#color-5)"/><path d="M283.7921,135.64474l-0.26089,-3.98766l19.11067,-1.25038l3.88954,3.75023z" fill="url(#color-6)"/><path d="M295.66799,157.1494l-0.0822,-1.25657c0,0 15.57142,-1.09538 20.93549,-1.61424c4.01099,-0.38796 8.3191,-2.25007 8.3191,-2.25007l0.96172,1.08427l-8.07016,2.59295z" fill="#312c30"/><g><path d="M194.17181,153.16696l-0.80432,-8.82466l93.72491,-6.13238l8.36082,10.75892z" fill="#8a6672"/><path d="M211.21674,160.35511c0,0 -3.74745,-3.3683 -6.64159,-4.64364c-2.89413,-1.2754 -9.9248,-0.57742 -9.9248,-0.57742l-0.02432,-2.08994c0,0 12.31502,-0.52878 19.33558,-0.89268c16.77111,-0.86943 80.85613,-4.30118 80.85613,-4.30118l4.04422,6.31643z" fill="#755761"/><path d="M214.2218,162.6548l-3.18819,-2.38875l87.36753,-6.20681l1.40408,2.99584z" fill="#694e57"/><path d="M193.22896,144.74836l-0.29567,-4.51933l90.56808,-6.60665l4.21105,5.39781c0,0 2.96721,3.15105 -2.30942,3.47092c-1.6611,0.10069 -10.98244,-2.66509 -12.64772,-2.56413c-16.03749,0.97228 -79.5263,4.82136 -79.5263,4.82136z" fill="#916b77"/><path d="M193.17465,140.21333l-0.28344,-2.51139l89.7079,-6.00857l1.19916,2.31894z" fill="#9e7582"/><path d="M267.18693,136.05613c-8.09291,-0.1198 -72.68616,3.07196 -72.68616,3.07196l87.66659,-5.73599l5.27637,7.11184c0,0 -12.16386,-4.32805 -20.25682,-4.44784z" fill="#b38f9a"/></g><path d="M245.02759,160.63626l-0.59893,-9.15421l20.16909,-1.31968l0.59893,9.15422z" fill="#3a3336"/><path d="M244.34128,151.49197l0.61552,-1.56603l18.49887,-1.21036l1.08243,1.4549z" fill="#4b4246"/><path d="M245.13485,160.12883l-0.53393,-8.16015c0,0 1.40068,5.18545 4.12518,6.11584c2.72451,0.93041 16.01422,0.7615 16.01422,0.7615z" fill="#332c30"/><path d="M285.19039,137.78184l-4.30338,-5.73126c0,0 0.97724,-0.73204 1.57657,-0.77123c0.67002,-0.04384 2.25519,0.52055 2.25519,0.52055l4.30338,5.73126z" fill="#757575"/><path d="M288.51347,142.30912l-6.18456,-8.22602l3.83179,-0.25071l6.18456,8.22601z" fill="#5a5a5a"/><path d="M293.17035,148.46715l-6.18456,-8.22601l3.83178,-0.25071l6.18456,8.22602z" fill="#505050"/><path d="M297.98614,154.84605c-1.0563,-1.40498 -5.17784,-6.88702 -5.17784,-6.88702l3.83178,-0.2507l7.27399,9.87267c0,0 -2.01644,0.66859 -2.96489,0.71578c-0.73982,0.03684 -2.49728,-2.83123 -2.96304,-3.45076z" fill="#3b3b3b"/><path d="M192.80263,155.86027l-1.21928,-18.63491l3.17418,-0.20769l1.21928,18.63491z" fill="#443e42"/><path d="M174.07115,158.68826l-1.07131,-5.8706l20.18541,-1.32075l0.38703,5.91535z" fill="url(#color-7)"/><path d="M173.04101,153.44691l-0.7082,-10.82385l20.18541,-1.32075l0.7082,10.82386z" fill="#5e555b"/><path d="M172.34108,142.7491l0.52654,-4.20558l19.38709,-1.26851l0.27174,4.15336z" fill="url(#color-8)"/><path d="M242.23282,134.20268l-0.40045,-6.12023l15.05982,0.08357l4.91998,4.39926z" fill="#5e555b"/><path d="M261.83537,132.9201l-4.93737,-4.66538c0,0 3.05485,0.49221 5.34351,1.34289c2.28866,0.85064 6.06887,2.89884 6.06887,2.89884z" fill="#776b73"/><path d="M239.29242,135.55308l3.11193,-1.45072l25.52801,-1.93751l3.73534,1.26996z" fill="#6d6269"/></g><g><path d="M246.21185,156.58019c-0.08155,-1.24618 0.35218,-2.43371 0.67273,-3.48648c0.44667,-1.46697 0.97032,-2.69159 2.2061,-3.62044c0.75484,-0.56739 1.86424,-1.03018 2.83538,-1.3346c0.64231,-0.20133 1.61322,-0.66579 2.31475,-0.71168c1.59028,-0.10406 1.93721,-0.04483 3.11688,0.37507c0.71062,0.25296 2.37588,0.59404 2.95363,1.22983c0.48899,0.53808 1.02567,1.45357 1.41104,2.10943c0.65852,1.12084 1.58099,2.929 1.67167,4.31467c0.03833,0.58559 -0.3652,1.95329 -0.38111,2.47092c-0.05049,1.64325 -0.01797,2.15182 -1.15678,3.33218c-0.69219,0.7174 -2.16046,1.36249 -3.1154,1.83579c-0.98894,0.4902 -2.2055,1.43769 -3.37571,1.51431c-0.78984,0.05168 -2.24978,-0.38891 -3.02382,-0.47479c-1.67932,-0.18625 -2.5809,-0.30205 -3.68262,-1.37261c-0.94478,-0.918 -1.30921,-2.49591 -1.76134,-3.82685c-0.23749,-0.6992 -0.63492,-1.58281 -0.68545,-2.35478z" fill="#3a3a3a"/><path d="M246.93357,156.41412c-0.0746,-1.14039 0.32233,-2.2271 0.61561,-3.19047c0.40876,-1.34241 0.88791,-2.46302 2.01877,-3.31305c0.69073,-0.51919 1.70598,-0.94272 2.59465,-1.22129c0.5878,-0.18423 1.4763,-0.60927 2.11817,-0.65126c1.4553,-0.09523 1.77272,-0.04105 2.85229,0.3432c0.65027,0.23146 2.17416,0.54363 2.70286,1.12536c0.44748,0.49242 0.93862,1.33019 1.29123,1.93033c0.60262,1.02571 1.44677,2.68032 1.52973,3.94832c0.03507,0.53586 -0.33419,1.78744 -0.34875,2.26113c-0.04621,1.50372 -0.01643,1.96911 -1.05859,3.04924c-0.63343,0.6565 -1.97704,1.24679 -2.85085,1.67993c-0.90498,0.44859 -2.01825,1.31567 -3.08907,1.38575c-0.72275,0.0473 -2.05876,-0.35591 -2.76709,-0.43444c-1.53673,-0.17041 -2.36173,-0.27641 -3.36998,-1.25604c-0.86458,-0.84008 -1.19804,-2.28401 -1.61176,-3.50194c-0.21734,-0.63984 -0.581,-1.44842 -0.62724,-2.15484z" fill="#5a5a5a"/><path d="M258.8038,151.09839c-2.19636,-2.24719 -7.29204,-2.11478 -7.29204,-2.11478c0,0 1.90286,-0.66567 3.88927,-0.78867c1.60902,-0.09967 3.20182,0.16138 4.44384,1.38387c1.24303,1.2235 1.73299,2.67933 2.11028,4.05313c0.73976,2.69345 0.45907,5.10972 0.45907,5.10972c0,0 -1.41405,-5.39603 -3.6104,-7.64319z" fill="#6d6d6d"/><path d="M253.81593,156.45431c-0.03761,-0.57447 0.39761,-1.07066 0.97213,-1.10826c0.57447,-0.03761 1.07066,0.39761 1.10827,0.97214c0.03761,0.57447 -0.39761,1.07066 -0.97214,1.10826c-0.57447,0.03761 -1.07066,-0.39761 -1.10826,-0.97214z" fill="#272727"/><path d="M253.74602,156.59599c-0.03447,-0.52692 0.36472,-0.98201 0.89162,-1.01648c0.52692,-0.03447 0.98201,0.36472 1.01648,0.89162c0.03447,0.52692 -0.36472,0.98201 -0.89161,1.01648c-0.52692,0.03447 -0.98201,-0.36472 -1.01648,-0.89161z" fill="#131313"/></g></g></g></g></g><path d="M172.24274,272.05176c-0.10348,-1.58127 -7.13593,-43.83831 -6.75101,-45.54223c0.51972,-2.30063 9.07093,-1.50661 11.93035,-3.20471c8.75729,-5.20075 18.24989,-10.41875 18.24989,-10.41875c0,0 14.07624,-0.33929 18.3037,-0.61585c3.16137,-0.20684 63.79501,-12.6825 65.20874,-2.43138c1.91754,13.90442 -42.28244,5.05294 -41.49045,17.15771c0.20048,3.06437 2.61784,3.10212 2.25882,6.27958c-0.08616,0.76263 -2.09475,6.08398 -2.20917,7.77113c-0.18167,2.67813 3.3678,6.45697 0.26704,9.76572c-2.47173,2.63757 -0.21633,7.51757 -0.77438,8.77231c-3.84551,8.64648 -12.405,5.39397 -21.39863,5.98244c-10.66323,0.69771 -25.93705,5.42835 -35.3814,4.8063c-4.07677,-0.26855 -7.9123,6.28075 -8.21346,1.67786z" fill="#86c8f5" stroke-width="0"/></g></g></svg>