<svg xmlns="http://www.w3.org/2000/svg" xmlns:xlink="http://www.w3.org/1999/xlink" version="1.1" width="44.39085505345395" height="52.91475413182309" viewBox="-1.6419776575710903 -1.6433776514675746 44.39085505345395 52.91475413182309">
  <!-- Exported by Scratch - http://scratch.mit.edu/ -->
  <path id="ID0.5000193635933101" fill="none" stroke="#000000" stroke-width="2.345175633874431" stroke-linecap="round" d="M 7.0048 1.5961 L 39.5094 1.9911 L 35.9248 47.8626 L 1.5975 48.0319 L 7.0048 1.5961 Z "/>
  <path id="ID0.7492092661559582" fill="none" stroke="#FFFFFF" stroke-width="6.4789554868035575" d="M 21.417 22.336 C 24.8694 22.7582 27.85 24.3474 29.8765 26.573 C 31.9029 28.7993 32.9763 31.6623 32.613 34.633 C 32.2497 37.6038 30.518 40.1236 28.0148 41.796 C 25.5117 43.4677 22.2359 44.2918 18.7835 43.8696 C 15.3311 43.4474 12.3505 41.8582 10.324 39.6325 C 8.2976 37.4062 7.2242 34.5433 7.5875 31.5725 C 7.9508 28.6018 9.6825 26.0819 12.1857 24.4096 C 14.6888 22.7378 17.9646 21.9138 21.417 22.336 Z "/>
  <path id="ID0.5357722351327538" fill="#FFFFFF" stroke="none" stroke-linecap="round" d="M 23.3683 3.1664 L 30.7022 3.5178 L 11.8437 28.2717 L 5.4003 27.619 L 23.3683 3.1664 Z " stroke-width="1.0261844514005203"/>
</svg>