<svg version="1.1" xmlns="http://www.w3.org/2000/svg" xmlns:xlink="http://www.w3.org/1999/xlink" width="470.10948" height="148.57837" viewBox="0,0,470.10948,148.57837"><defs><linearGradient x1="533.96061" y1="188.6221" x2="533.45442" y2="193.40704" gradientUnits="userSpaceOnUse" id="color-1"><stop offset="0" stop-color="#1f1d20"/><stop offset="1" stop-color="#202022"/></linearGradient><linearGradient x1="534.9086" y1="183.84023" x2="534.3261" y2="189.34577" gradientUnits="userSpaceOnUse" id="color-2"><stop offset="0" stop-color="#302d31"/><stop offset="1" stop-color="#1f1e20"/></linearGradient><linearGradient x1="196.92468" y1="196.41985" x2="196.56798" y2="199.79113" gradientUnits="userSpaceOnUse" id="color-3"><stop offset="0" stop-color="#585758"/><stop offset="1" stop-color="#575758"/></linearGradient><linearGradient x1="182.82386" y1="205.06271" x2="182.54384" y2="207.70931" gradientUnits="userSpaceOnUse" id="color-4"><stop offset="0" stop-color="#363536"/><stop offset="1" stop-color="#353536"/></linearGradient><linearGradient x1="335.15852" y1="127.86023" x2="334.57583" y2="133.368" gradientUnits="userSpaceOnUse" id="color-5"><stop offset="0" stop-color="#5e555b"/><stop offset="1" stop-color="#2b2629"/></linearGradient><linearGradient x1="327.62956" y1="106.28142" x2="327.2091" y2="110.25539" gradientUnits="userSpaceOnUse" id="color-6"><stop offset="0" stop-color="#72676e"/><stop offset="1" stop-color="#5e555b"/></linearGradient><linearGradient x1="213.83742" y1="108.21849" x2="213.21374" y2="114.11362" gradientUnits="userSpaceOnUse" id="color-7"><stop offset="0" stop-color="#5e555b"/><stop offset="1" stop-color="#4d454a"/></linearGradient><linearGradient x1="215.33697" y1="94.04533" x2="214.89905" y2="98.18452" gradientUnits="userSpaceOnUse" id="color-8"><stop offset="0" stop-color="#74686f"/><stop offset="1" stop-color="#5e555b"/></linearGradient></defs><g transform="translate(-68.62322,-93.06539)"><g data-paper-data="{&quot;isPaintingLayer&quot;:true}" fill-rule="nonzero" stroke="none" stroke-linecap="butt" stroke-linejoin="miter" stroke-miterlimit="10" stroke-dasharray="" stroke-dashoffset="0" style="mix-blend-mode: normal"><g><g stroke-width="0"><path d="M259.54898,187.97031l-8.55891,-16.33645l25.49555,2.10399c0,0 -1.70565,5.68091 -2.18837,8.34338c-0.46694,2.57555 -0.66215,7.37939 -0.66215,7.37939z" fill="#7f7d7e"/><path d="M259.62609,188.1764l-3.02948,-5.95874c0,0 1.97142,3.78348 5.12493,4.73526c2.27085,0.68537 4.17913,0.57557 6.81197,1.17675c2.6328,0.60116 4.98319,1.51638 4.98319,1.51638z" fill="#6c6a6b"/></g><g><g><g><path d="M530.4799,193.09235l-1.54131,-5.00155c0,0 5.7838,2.27903 8.2728,3.44019c2.48901,1.1612 0.83958,2.12915 0.83958,2.12915z" fill="url(#color-1)" stroke-width="0"/><path d="M538.45225,184.41593c0,0 1.2265,2.47058 -1.45036,3.08521c-2.67687,0.61466 -5.69252,1.52545 -5.69252,1.52545l-0.38285,-5.60759z" data-paper-data="{&quot;index&quot;:null}" fill="url(#color-2)" stroke-width="0"/><path d="M520.91594,192.07581l0.22078,-2.08676l14.69056,1.55429c0,0 1.16707,0.92221 1.61363,1.3378c0.40139,0.37358 -0.82979,0.85526 -0.82979,0.85526z" fill="#444444" stroke-width="NaN"/><path d="M521.15512,190.13536l-0.99951,-1.86945l12.54563,1.32733l3.20241,1.99005c0,0 -4.2195,-0.20707 -6.51335,-0.43232c-2.58698,-0.25402 -8.23518,-1.01569 -8.23518,-1.01569z" fill="#535353" stroke-width="0"/><path d="M520.02967,188.39001l-0.25564,-0.67063l11.41012,1.20715l1.62081,0.70013z" fill="#363636" stroke-width="0"/><path d="M520.91594,192.07581l0.11979,-1.13204c0,0 6.37007,1.13008 9.23383,1.43307c2.42682,0.2568 6.85602,0.26919 6.85602,0.26919c0,0 0.8107,0.55058 1.03531,0.77838c0.18949,0.19216 -0.2971,0.44446 -0.2971,0.44446c0,0 -4.74905,-0.0957 -7.04994,-0.33916c-3.10424,-0.32845 -9.89799,-1.45397 -9.89799,-1.45397z" fill="#3a3a3a" stroke-width="NaN"/><path d="M520.09128,187.77137l-0.45742,-0.93703l13.56592,1.43528l-1.90803,0.72087z" fill="#242424" stroke-width="0"/><path d="M518.81035,186.93747l0.17409,-1.64514c0,0 8.07013,0.64646 11.04923,0.96167c2.02967,0.21474 5.09717,0.74661 5.09717,0.74661l-1.96027,1.29028z" fill="#3a3a3a" stroke-width="0"/><path d="M518.85105,185.321l0.21489,-2.03121c0,0 7.64554,0.47718 10.94141,0.82585c2.85206,0.30173 7.69565,1.14593 7.69565,1.14593l-2.61963,1.77681c0,0 -3.62591,-0.46655 -5.85796,-0.70266c-2.9668,-0.31387 -10.3744,-1.01469 -10.3744,-1.01469z" fill="#444444" stroke-width="0"/><path d="M519.01411,183.36986l0.08956,-0.84633c0,0 7.84315,0.70541 11.42042,1.08388c2.49091,0.26352 7.98964,0.96971 7.98964,0.96971l-0.94979,0.75535c0,0 -4.99555,-0.81885 -7.94433,-1.13083c-3.24879,-0.34373 -10.60552,-0.83178 -10.60552,-0.83178z" fill="#535353" stroke-width="0"/><path d="M518.96587,182.59452l0.03584,-0.33854c0,0 7.68701,0.3034 11.1282,0.66753c2.97516,0.31478 8.32474,1.39063 8.32474,1.39063l0.00154,0.34251c0,0 -5.95817,-0.79623 -9.18516,-1.13768c-3.2692,-0.34588 -10.30509,-0.92439 -10.30509,-0.92439z" fill="#4e4e4e" stroke-width="0"/></g><g stroke-width="0"><g><g><g><path d="M515.14599,190.97462l-3.17139,-13.57262l0.73106,-1.65359c0,0 3.11574,3.57687 3.77102,6.15047c0.35573,1.3972 0.11582,9.2288 0.11582,9.2288z" fill="#383638"/><path d="M516.26407,190.39768c0,0 0.1222,-0.60015 -0.24463,-3.10754c-0.40003,-2.73437 -1.40215,-6.49782 -1.6801,-7.60715c-0.62397,-2.49019 -1.36096,-2.69938 -1.36096,-2.69938l4.8346,-0.07358l3.51373,14.0233z" fill="#555355"/><path d="M513.03303,177.07523l-0.44853,-1.29072c0,0 2.09315,-0.58306 3.04942,-0.48185c0.89609,0.09481 1.94852,0.93749 1.94852,0.93749l0.44083,1.36299z" fill="#686668"/></g><path d="M509.50477,190.37777l-3.17139,-13.57261l0.39995,-1.66841c0,0 3.44688,3.59166 4.10209,6.16523c0.35574,1.39719 0.11583,9.2288 0.11583,9.2288z" fill="#383638"/><path d="M510.6228,189.80082c0,0 0.12221,-0.60016 -0.24463,-3.10754c-0.40003,-2.73437 -1.40215,-6.49782 -1.6801,-7.60715c-0.62397,-2.49019 -1.36096,-2.69938 -1.36096,-2.69938l4.14138,-0.6497c0,0 0.88846,1.35522 1.07864,2.11422c0.54186,2.16249 3.1284,12.48514 3.1284,12.48514z" fill="#555355"/><path d="M507.39178,176.47829l-0.66547,-1.31369c0,0 2.31013,-0.56003 3.26643,-0.45888c0.89609,0.09481 1.65924,0.9069 1.65924,0.9069l0.56519,1.37621z" fill="#686668"/><path d="M517.18242,189.49554c0.08623,-0.81497 0.81682,-1.40571 1.63174,-1.31949c0.81499,0.08622 1.40571,0.81682 1.31949,1.63174c-0.08623,0.81497 -0.81682,1.40571 -1.63173,1.31949c-0.81499,-0.08622 -1.40571,-0.81682 -1.31949,-1.63174z" fill="#312f31"/><path d="M518.1426,186.6515l-1.40471,-5.7261l1.59763,0.02491l1.39796,5.79029z" fill="#444144"/></g><path d="M470.91306,181.3006l-2.60503,-11.15953l29.5927,4.31396l-1.48298,9.54399z" fill="#444444"/><path d="M483.89575,178.73686c0,0 0.68737,-0.45215 1.52189,-1.47492c0.76305,-0.93512 1.65763,-2.4272 2.08892,-2.84789c1.14937,-1.5944 3.46564,-0.87992 3.46564,-0.87992l-1.04286,0.54636l-4.89708,4.77662z" fill="#292929"/><path d="M485.57167,189.50235l-5.3238,-11.59588c0,0 3.42342,0.89643 5.22797,0.03247c1.40229,-0.67143 1.58554,-3.29869 3.18374,-3.41212c4.5852,-0.32525 17.43396,0.59782 17.43396,0.59782c0,0 2.47042,7.44623 3.08874,10.41479c0.42685,2.04943 0.36979,6.50012 0.36979,6.50012z" fill="#4a464a"/><path d="M491.06506,176.90182c-4.46857,-1.11239 -2.89224,-2.31716 -2.89224,-2.31716c0,0 0.92532,-1.21159 2.79767,-1.16048c4.59464,0.12546 13.12907,1.60849 14.84446,1.76422c0.80897,0.0734 0.27141,0.7284 0.27141,0.7284c0,0 -1.73213,2.21601 -3.30087,2.30549c-1.56879,0.08948 -7.25185,-0.2081 -11.72045,-1.32049z" fill="#5e595e"/></g><g><path d="M473.14145,194.79926l-3.24561,-18.37899l18.77271,2.27409l4.31745,4.80928l6.07573,0.54373l1.53939,13.65714z" fill="#4d4846"/><path d="M477.7653,195.67769l21.52972,-7.16608l22.22329,2.10748c0,0 0.86461,4.29773 0.86427,5.65981c-0.00018,0.69447 -0.46389,2.91148 -0.46389,2.91148z" fill="#423d3b"/><path d="M474.84708,187.01158l-2.12583,-10.126l0.81595,0.08635l2.12583,10.126z" fill="#363332"/><path d="M478.43195,194.94215l0.12811,-1.21062c0,0 5.50306,-1.97744 14.51761,-1.02368c1.19771,0.12672 5.15463,3.10501 6.36184,3.23276c7.65935,0.81035 15.1564,1.60356 18.00852,1.90532c2.32283,0.24578 4.83156,-0.79607 4.83156,-0.79607l-0.26486,2.50342z" fill="#312e2c"/><path d="M482.12906,182.52202l-1.24834,-4.7732l8.26158,0.87406l3.66678,4.83395l6.2511,0.85653l-7.75264,1.13935z" fill="#585350"/><path d="M471.95538,188.51044l0.1187,-1.12193c0,0 8.39509,-2.87626 11.25628,-2.57358c4.31234,0.45627 16.21718,1.71578 16.21718,1.71578l-0.1187,1.12193c0,0 -12.10897,-1.28114 -16.4212,-1.73732c-2.80248,-0.29655 -11.05234,2.59516 -11.05234,2.59516z" fill="#2b2827"/></g></g></g><g><g><g><path d="M134.69261,195.71996c0.30278,2.27843 -0.27742,4.82108 -1.39013,4.96892c-1.11272,0.14785 -2.3367,-2.155 -2.63946,-4.43352c-0.30278,-2.27843 -1.52341,-11.02585 -0.41066,-11.17371c1.11272,-0.14785 4.13755,8.35978 4.44027,10.63831z" fill="#615e5f" stroke-width="0"/><g><path d="M179.20311,170.3332c-0.4808,-0.58141 -2.6704,-2.13277 -2.6704,-2.13277l10.16795,-1.82032l-6.72422,6.52872c0,0 -0.29246,-1.99419 -0.77335,-2.57567z" fill="#756a6a" stroke-width="0"/><path d="M170.40524,167.69567l1.44493,-13.65709l19.04768,-3.88415l-2.06214,19.49126z" fill="#8a7c7c" stroke-width="0"/><path d="M130.01852,168.9002l8.53753,-17.33125l34.75347,3.54287l3.17544,13.07333c0,0 -23.02814,-0.85155 -30.77947,-0.73224c-3.21768,0.04951 -15.68705,1.44734 -15.68705,1.44734z" fill="#7c787a" stroke-width="0"/><path d="M138.42072,153.97284l0.00856,-1.48885c0,0 25.78033,2.72752 33.88491,3.58501c4.53456,0.47974 16.72876,-4.63598 16.72876,-4.63598l-0.17143,1.62062c0,0 -11.8996,5.12752 -16.28359,4.64899c-8.03856,-0.8775 -34.1672,-3.72971 -34.1672,-3.72971z" fill="#535353" stroke-width="0"/><path d="M98.04257,166.22898l2.12049,-20.04216c0,0 5.24816,-6.53824 12.69371,-8.05928c9.24764,-1.8892 25.85485,1.66295 27.91409,1.88079c1.58016,0.16717 -13.93193,9.00082 -13.93193,9.00082l-2.12049,20.04216z" fill="#8d898b" stroke-width="0"/><path d="M274.88489,138.53858l1.92455,-2.9582l106.9531,11.4593l-1.55147,14.66441c0,0 -37.76512,-2.13975 -49.87432,-3.83934c-6.01376,-0.84406 -57.45189,-19.32623 -57.45189,-19.32623z" fill="#c98cac" stroke-width="0"/><path d="M242.71456,236.69878l-3.15736,-13.34268c0,0 4.49517,6.34766 7.2137,7.71815c1.73209,0.87318 5.89455,1.69748 12.22792,-0.08353c5.09852,-1.43374 10.81835,-6.37017 10.81835,-6.37017l-13.17663,13.55152z" fill="#a08e97" stroke-width="0"/><path d="M337.63819,199.56386l0.16033,-23.73628l18.59199,0.55646l-2.2302,21.07938c0,0 -6.54278,1.0365 -9.366,1.44c-1.29994,0.18577 -7.15613,0.66051 -7.15613,0.66051z" fill="#96858d" stroke-width="0"/><path d="M240.49299,240.23041l0.58287,-5.50941c0,0 11.77865,3.32628 16.70091,0.70831c2.39552,-1.27407 21.35614,-20.31738 31.81194,-30.90804c4.08037,-4.13304 6.86559,-6.9787 6.86559,-6.9787c0,0 3.73765,-3.39883 4.04493,-6.26461c0.15453,-1.44161 1.06155,-5.5477 0.47782,-7.9337c-0.58894,-2.40736 -2.66944,-3.08832 -2.66944,-3.08832l-3.41711,-14.0096l19.69091,2.22779l-5.6891,26.11972l3.46778,2.94305c0,0 -10.13331,4.96148 -15.2579,9.4027c-8.01816,6.94876 -34.47455,34.70415 -34.47455,34.70415z" fill="#918189" stroke-width="0"/><path d="M314.54959,197.47579l4.21636,-28.31743l13.67017,1.72361l9.04333,13.02597l-3.94649,15.99954z" fill="#96858d" stroke-width="0"/><path d="M309.85556,198.83861l-2.05911,-4.38677l6.27479,-25.67216l5.06061,0.45025l-3.67955,28.35695z" fill="#8f8187" stroke-width="0"/><path d="M336.2946,199.88056c0,0 3.43794,-6.34052 2.662,-11.86363c-0.4468,-3.18019 -5.12319,-5.65567 -5.39706,-7.60524c-0.52313,-3.72417 -1.33257,-9.48547 -1.33257,-9.48547l7.35235,5.16624c0,0 2.62831,7.53207 2.77427,11.83281c0.09817,2.88944 -2.04814,9.07396 -3.24303,11.56095c-0.1007,0.20966 -1.26162,0.00306 -1.33035,0.16208c-0.16793,0.38833 0.76661,0.71985 0.76661,0.71985z" fill="#86787e" stroke-width="0"/><path d="M339.20812,177.56145c0,0 -2.65753,-4.25817 -7.21184,-5.71706c-5.15597,-1.65162 -22.14355,-3.68634 -22.14355,-3.68634l158.354,2.49295l2.41785,9.60954l6.70155,11.91388c0,0 -99.96191,-13.16181 -120.43595,-15.32794c-6.68099,-0.70686 -17.68205,0.71503 -17.68205,0.71503z" fill="#df8db7" stroke-width="0"/><path d="M180.87184,208.35356l-0.95531,-36.57335c0,0 2.06852,-3.55277 2.5896,-3.7145c5.74511,-1.78328 38.72463,-9.00533 44.10359,-8.14834c5.89239,0.93874 -10.39706,11.21048 -10.39706,11.21048c0,0 -14.543,0.49857 -17.51378,4.45789c-4.03342,5.37559 -1.03874,23.14278 -1.03874,23.14278z" fill="#c77da3" stroke-width="0"/><path d="M256.03916,186.21038l-1.55806,-2.28184c0,0 7.42809,-7.86874 10.08943,-9.89267c2.74748,-2.08953 6.14528,-2.45417 6.14528,-2.45417l5.66034,2.91391c0,0 -4.39837,-0.97069 -6.92957,0.4873c-2.17296,1.25168 -6.22816,3.91852 -9.33813,6.69905c-2.26232,2.02261 -4.0692,4.5284 -4.0692,4.5284z" fill="#414041" stroke-width="0"/><path d="M138.21323,152.89874l6.00328,-11.11964l48.35855,5.11633c0,0 -3.35126,4.12579 -6.66043,5.7528c-3.24783,1.59688 -13.01393,3.92041 -13.01393,3.92041z" fill="#979395" stroke-width="0"/><path d="M139.12898,151.84641l5.20763,-11.20378l48.35855,5.11633c0,0 -3.35126,4.12579 -6.66043,5.7528c-3.24783,1.59688 -13.01393,3.92041 -13.01393,3.92041z" fill="#bdb7ba" stroke-width="0"/><path d="M338.65564,200.4529l-1.80848,-0.7077l17.19461,-2.37888c0,0 -3.75706,1.6714 -6.31108,2.20253c-2.55399,0.53119 -9.07504,0.88407 -9.07504,0.88407z" fill="#887980" stroke-width="0"/><path d="M183.29491,209.07703c0,0 -1.22608,-10.65359 -1.52222,-19.27105c-0.29755,-8.65945 -0.55125,-16.77794 -0.19609,-20.34512c0.06021,-0.60432 2.74398,-10.3065 3.2958,-10.7724c2.97878,-2.51498 9.86294,6.0002 15.51225,5.48815c8.3648,-0.7581 27.42135,0.74112 27.42135,0.74112l-8.96554,4.3918c0,0 -19.64308,0.80284 -22.56197,5.65994c-3.94807,6.56973 1.38458,28.12314 1.38458,28.12314z" fill="#d486ae" stroke-width="0"/><path d="M184.79038,205.69681c0,0 -2.32395,-41.34554 0.05582,-51.22706c1.11344,-4.62344 -1.26446,-14.03367 -1.26446,-14.03367l49.65283,12.26084l-0.27477,16.13061c0,0 -31.53898,-6.44731 -38.5143,-0.87627c-4.65625,3.71882 -0.85647,32.52153 -0.85647,32.52153z" fill="#e490bb" stroke-width="0"/><g stroke-width="0"><path d="M329.0738,157.61671l0.8706,-8.22894l9.30801,0.98481l-0.8706,8.22894z" fill="#454545"/><path d="M329.98202,156.94365l0.41311,-7.29513l11.26334,1.19166l-0.76785,7.25759z" fill="#b0b0b0"/><path d="M330.22506,152.4553l0.07047,-2.83866l11.47877,1.21448l-0.20067,1.89681c0,0 -7.78359,-0.49925 -9.48807,-0.54018c-0.56955,-0.01371 -1.86047,0.26759 -1.86047,0.26759z" fill="#bebebe"/><path d="M341.2004,157.57799c0,0 -5.24108,-3.12415 -4.27897,-6.79092c1.42969,-5.44883 5.4777,-4.53982 5.4777,-4.53982l39.87874,5.55996l-1.0585,10.00477z" fill="#9c989a"/><path d="M343.11342,156.48391c0,0 -2.10274,-3.76106 -2.248,-4.70842c-0.21537,-1.40432 2.07951,-4.13534 2.07951,-4.13534l41.36137,4.40957l-1.18568,7.40498z" fill="#898587"/><path d="M343.00269,156.67155l-0.80988,-2.03587l38.01955,4.02249l-0.20404,1.92862z" fill="#c1bcbf"/><path d="M343.23928,153.28374c0,0 -1.18201,-1.50067 -1.08338,-2.43283c0.09221,-0.87196 1.65728,-2.99144 1.65728,-2.99144l38.45207,4.06826l-0.57396,5.42426z" fill="#0d0d0d"/><path d="M343.15749,154.05674c0,0 -1.11846,-2.10107 -1.01985,-3.03322c0.09221,-0.87196 1.59373,-2.39105 1.59373,-2.39105l38.45208,4.06826l-0.57396,5.42426z" fill="#2e2e2e"/><path d="M338.15801,155.44169c-2.30152,-3.32761 -0.89696,-5.52855 -0.89696,-5.52855c0,0 1.38941,4.2823 2.52359,5.30492c1.34286,1.21068 4.78889,2.9489 4.78889,2.9489l-3.49669,-0.2994c0,0 -2.51382,-1.84023 -2.91883,-2.42582z" fill="#7d7a7c"/><path d="M345.71051,154.63822c0,0 -0.65119,-2.2933 -0.53091,-3.43047c0.10574,-0.99968 1.21475,-3.03346 1.21475,-3.03346l4.79653,0.50751c0,0 -0.69045,2.14323 -0.78177,3.00663c-0.12556,1.18666 0.09792,3.45725 0.09792,3.45725z" fill="#555555"/><path d="M354.27939,155.54491c0,0 0.92842,-2.43898 1.0487,-3.57621c0.10574,-0.99968 -0.36483,-2.88773 -0.36483,-2.88773l5.35345,0.56639c0,0 -0.5948,1.66169 -0.68617,2.52511c-0.12556,1.18666 0.00228,3.93882 0.00228,3.93882z" fill="#555555"/><path d="M363.5543,156.52614c0,0 0.92842,-2.43897 1.04872,-3.5762c0.10574,-0.99968 -0.36483,-2.88772 -0.36483,-2.88772l5.27391,0.55797c0,0 -0.5948,1.66169 -0.68617,2.52511c-0.12556,1.18666 0.00228,3.93882 0.00228,3.93882z" fill="#555555"/><path d="M373.16394,157.54283c0,0 1.06781,-2.06665 1.1881,-3.20392c0.10574,-0.99968 -0.50425,-3.25999 -0.50425,-3.25999l5.11479,0.54115c0,0 0.61467,2.05783 0.52331,2.92131c-0.12556,1.18666 -1.20716,3.54266 -1.20716,3.54266z" fill="#555555"/><path d="M346.05564,148.84643l-0.57726,-0.86555l35.36521,3.74164l-1.60991,0.63413c0,0 -2.81437,-0.29777 -5.26289,-0.55681c-0.53371,-0.05649 -1.50908,-0.49023 -2.30851,-0.57489c-0.77295,-0.08175 -1.36235,0.18646 -2.32319,0.08481c-1.49832,-0.15854 -3.18886,-0.33736 -4.95863,-0.52463c-0.73372,-0.07764 -1.3318,-0.52659 -2.08477,-0.60628c-0.66954,-0.0708 -1.49281,0.22771 -2.16551,0.15659c-1.66955,-0.17662 -3.32264,-0.35155 -4.8769,-0.51597c-0.71372,-0.07551 -1.36045,-0.58472 -2.02451,-0.65499c-0.81067,-0.0858 -1.62444,0.26895 -2.33475,0.19378c-2.89732,-0.30655 -4.83845,-0.5119 -4.83845,-0.5119z" fill="#474747"/></g><g><path d="M192.59972,200.05829l3.99815,-2.46047c0,0 2.51306,3.0965 5.23725,4.28465c2.40938,1.05089 10.27955,2.48318 10.27955,2.48318l-3.09844,4.05079z" fill="#6d6a6b" stroke-width="0"/><path d="M183.90161,205.67442l9.95727,-6.37293c0,0 2.97937,2.58433 5.06646,3.47075c3.1575,1.34099 12.03492,3.79231 12.03492,3.79231l-4.70717,3.83333z" fill="#615e5f" stroke-width="0"/><path d="M183.57803,227.73018l0.89985,-22.60387c0,0 4.24674,1.24566 9.03816,1.78238c3.73988,0.41889 7.85429,0.00238 10.26028,0.8687c4.22386,1.52082 36.26386,17.33534 36.26386,17.33534l1.3942,10.37912z" fill="#575455" stroke-width="0"/><path d="M207.89482,203.11009c7.48035,-4.80486 16.92036,-17.33325 18.44229,-19.75798c1.0964,-1.74683 2.33519,-6.92124 2.33519,-6.92124l6.94394,7.58753c0,0 3.6608,20.99846 3.50425,33.69925c-0.04383,3.55381 2.04464,7.74199 0.71064,9.07554c-1.19518,1.1948 -18.30332,1.68742 -23.58712,0.35933c-11.11965,-2.79484 -17.17302,-0.63019 -20.34194,-6.27027c-3.16893,-5.64005 4.55214,-11.12841 4.55214,-11.12841c0,0 5.49315,-5.39278 7.44058,-6.64369z" fill="#504e4f" stroke-width="0"/><path d="M216.12742,170.97269c0,0 0.55066,-1.44285 1.47275,-2.01249c1.18585,-0.73265 5.05214,-2.01865 5.05214,-2.01865c0,0 9.09746,3.0414 11.82904,5.83432c2.52027,2.57681 -4.8073,12.14014 -4.8073,12.14014l-1.4313,-5.54273z" fill="#464445" stroke-width="0"/><path d="M234.26399,220.38262c0,0 -9.89094,5.2442 -18.34627,4.52204c-8.15689,-0.69667 -14.89384,-7.33421 -14.6378,-8.73724c0.13873,-0.76021 8.37045,-3.21304 12.27184,-7.04524c4.33677,-4.25989 4.45094,-9.98118 6.00581,-11.83832c4.34081,-5.18477 13.80981,-14.41827 13.39054,-20.53997c-0.43969,-6.41998 -10.87958,-9.60995 -10.87958,-9.60995c0,0 4.06673,-1.834 9.0384,-1.43857c2.11779,0.16846 6.4943,2.02505 7.37194,2.50504c2.8781,1.57393 4.68559,3.41052 4.68559,3.41052c0,0 4.15162,-4.46732 7.76631,-4.39606c3.61467,0.07128 22.02584,4.98325 22.02584,4.98325l-17.44562,10.81855z" fill="#555354" stroke-width="0"/><path d="M219.10094,197.83376c0,0 5.73914,-10.32624 11.01509,-15.23333c5.27591,-4.90703 9.66634,-7.64079 13.17907,-7.26913c2.54375,0.26911 4.90726,9.1827 4.90726,9.1827l-14.04236,27.44411c0,0 -14.88499,1.72259 -16.09304,-0.89974c-0.95411,-2.07109 1.03403,-13.2246 1.03403,-13.2246z" fill="#585758" stroke-width="0"/><path d="M238.65883,227.35511c0,0 -2.21082,-6.45952 -1.56837,-9.43066c0.89746,-4.15061 3.66466,-16.58241 3.66466,-16.58241l0.84783,10.58364c0,0 -1.66251,9.62603 -1.8493,12.65302c-0.18026,2.92057 1.00684,5.2287 1.00684,5.2287z" fill="#3f3e3f" stroke-width="0"/><path d="M239.61503,209.49135c-0.01814,-1.68604 1.05858,-9.32611 1.05858,-9.32611c0,0 11.03786,-13.48147 13.4028,-15.89914c0.69327,-0.70875 4.21246,-2.07704 4.21246,-2.07704l-2.14779,4.65378c0,0 -1.62863,0.43503 -1.85774,0.8913c-0.24406,0.48612 0.43537,1.94146 0.43537,1.94146l-5.99262,7.89343c0,0 -1.74782,0.8313 -1.97913,1.31501c-0.23139,0.48382 0.35895,1.43944 0.35895,1.43944c0,0 -4.77371,8.4861 -5.86557,10.79887c-0.50484,1.06933 -0.42183,2.5187 -0.42183,2.5187c0,0 -1.18528,-2.46355 -1.20339,-4.14963z" fill="#474647" stroke-width="0"/><path d="M228.76796,187.25826l20.0755,10.40528c0,0 -1.28883,0.88159 -1.58144,1.39266c-0.21591,0.37716 -0.01496,1.396 -0.01496,1.396z" fill="#3f3e3e" stroke-width="NaN"/><path d="M235.82393,177.59405l20.55021,9.27245c0,0 -1.19756,0.72128 -1.46593,1.25236c-0.27975,0.55361 -0.02585,1.66568 -0.02585,1.66568z" fill="#3f3e3e" stroke-width="NaN"/><path d="M220.43538,204.80603c0,0 9.82369,8.77531 15.04027,15.33814c5.21655,6.56288 3.15967,7.55886 3.15967,7.55886z" fill="#636162" stroke-width="NaN"/><path d="M236.07435,183.27537c0,0 -6.2729,2.2566 -9.3327,5.04606c-3.05983,2.78948 -13.05022,18.00573 -12.74026,15.07653c0.30992,-2.92919 15.53894,-22.15471 17.3239,-21.96587c0.67571,0.07148 3.8153,-0.74498 4.60416,-0.4227c1.2951,0.52906 0.14493,2.26593 0.14493,2.26593z" fill="#918f91" stroke-width="0"/><path d="M183.13794,227.55345l14.0641,-0.41088c0,0 12.56098,0.99482 15.66394,1.47905c7.55664,1.1792 29.84052,5.62189 29.84052,5.62189l-1.10956,6.23896c0,0 -24.60087,0.98258 -31.31861,-1.05113c-1.94343,-0.58836 -7.6628,-1.81497 -11.75263,-3.60741c-8.00366,-3.50772 -15.38775,-8.2705 -15.38775,-8.2705z" fill="#626061" stroke-width="0"/><path d="M240.63461,240.02694c0,0 0.49187,-4.26457 0.29162,-6.63864c-0.22508,-2.66838 -1.57642,-8.59234 -1.57642,-8.59234l1.77243,0.18755c0,0 1.24075,4.61297 1.4445,7.02865c0.22279,2.6412 -0.15967,8.20231 -0.15967,8.20231z" fill="#4a494a" stroke-width="0"/><path d="M240.3524,240.83808l0.44519,-3.36905c0,0 0.53575,0.3229 0.80576,0.35143c0.3208,0.03395 0.95192,-0.16546 0.95192,-0.16546l-0.16144,3.17723c0,0 -0.81514,0.32367 -1.18709,0.3247c-0.28501,0.00083 -0.85431,-0.31888 -0.85431,-0.31888z" fill="#363536" stroke-width="0"/><path d="M239.51542,225.84457l-0.2132,-1.65225c0,0 0.45235,-0.3085 0.82503,-0.32868c0.35492,-0.01916 0.86149,0.15783 0.86149,0.15783l0.31613,1.77955c0,0 -0.53258,0.45393 -0.83913,0.46138c-0.28885,0.00702 -0.95036,-0.41787 -0.95036,-0.41787z" fill="#585758" stroke-width="0"/><path d="M199.06423,235.19519c0,0 -7.54065,-3.76709 -7.39724,-5.12257c0.14415,-1.36222 6.46991,-1.87027 6.46991,-1.87027c0,0 10.90846,0.91204 15.81982,1.60519c2.74954,0.38811 11.13957,2.19985 11.13957,2.19985c0,0 7.14043,1.81555 7.82986,3.04667c0.75196,1.34286 -3.38969,3.76217 -3.38969,3.76217c0,0 -12.79064,-0.0399 -16.71155,-0.66413c-1.39281,-0.22176 -13.76055,-2.95678 -13.76055,-2.95678z" fill="#6b696a" stroke-width="0"/><path d="M189.46494,227.23954l-1.97503,0.02312c0,0 0.98432,-3.34969 3.55851,-1.82823c2.57424,1.52151 21.54929,2.51203 21.54929,2.51203z" fill="#4b4949" stroke-width="0"/><path d="M183.22568,227.41793c0,0 -2.00686,-0.01967 -2.15569,-3.69849c-0.07533,-1.86221 -0.31244,-16.15864 -0.31244,-16.15864l4.02022,-2.48992c0,0 0.04738,6.03225 -0.05292,8.94004c-0.13346,3.86737 -0.5811,13.50417 -0.5811,13.50417z" fill="#3f3d3e" stroke-width="0"/><path d="M189.76753,227.43846c0,0 3.40203,-1.81025 19.40475,-0.45613c1.32154,0.11185 -1.78182,-0.22076 7.51235,1.2728c9.29422,1.49348 13.02157,3.40893 13.02157,3.40893c0,0 -14.87003,-2.64861 -21.03845,-3.30119c-7.03123,-0.74392 -18.90026,-0.9243 -18.90026,-0.9243z" fill="#838082" stroke-width="0"/><path d="M197.90786,198.50213c0,0 -4.57645,1.71545 -6.90945,3.09318c-2.6222,1.54854 -8.05751,5.74575 -8.05751,5.74575l-0.61157,-1.67528c0,0 4.14717,-3.43643 6.521,-4.83834c2.5954,-1.5327 8.44602,-4.00065 8.44602,-4.00065z" fill="#4a494a" stroke-width="0"/><path d="M198.86375,198.34408l-3.71811,1.29657c0,0 0.16388,-0.63269 0.07067,-0.88788c-0.11072,-0.30322 -0.60025,-0.76531 -0.60025,-0.76531l3.31671,-1.46087c0,0 0.69973,0.56341 0.86937,0.89458c0.12999,0.25378 0.06152,0.92287 0.06152,0.92287z" fill="url(#color-3)" stroke-width="0"/><path d="M183.93618,206.66377l-3.22181,2.40418l0.08657,-2.18566l2.28002,-1.79227c0,0 0.70469,0.2456 0.85119,0.51521c0.13802,0.25405 0.00398,1.0585 0.00398,1.0585z" fill="url(#color-4)" stroke-width="0"/></g><path d="M315.80715,196.50622c0,0 1.38714,-4.29654 2.03384,-5.625c0.43896,-0.90181 2.94983,-2.07577 2.94983,-2.07577l16.94793,1.5737c0,0 -1.88006,5.63118 -2.40279,6.94981c-0.22899,0.57761 -1.36192,1.15425 -1.36192,1.15425z" fill="#665b60" stroke-width="0"/><path d="M269.3836,173.23618c0,0 -3.60875,-1.95297 -8.38868,-3.61734c-3.03856,-1.05805 -7.22528,-2.07093 -9.08708,-2.16154c-5.41289,-0.26347 -8.45501,4.54807 -8.45501,4.54807c0,0 -3.01148,-2.64731 -5.01744,-3.71902c-1.87255,-1.0004 -6.09615,-2.45375 -6.09615,-2.45375c0,0 24.95879,-2.47903 28.84965,-2.65074c7.45902,-0.32919 33.95094,2.86725 33.95094,2.86725l4.68633,14.86128z" fill="#8b7c84" stroke-width="0"/><g stroke-width="0"><path d="M317.35293,195.72172c0,0 0.74202,-2.53225 1.2443,-3.37891c0.52073,-0.87785 2.80306,-1.6947 2.80306,-1.6947l14.44937,1.52874c0,0 0.28076,1.01815 -0.03097,1.72709c-0.42382,0.96385 -3.474,3.40384 -3.474,3.40384z" fill="#585852"/><path d="M317.43134,194.98056c0,0 0.66362,-1.79102 1.1659,-2.63768c0.52073,-0.87785 2.8815,-2.43589 2.8815,-2.43589l14.44936,1.52874c0,0 0.20233,1.75939 -0.10935,2.46831c-0.42382,0.96385 -3.3956,2.6626 -3.3956,2.6626z" fill="#797971"/><path d="M334.12159,191.74294c-1.02434,-0.28729 -12.55383,-1.78001 -12.55383,-1.78001l14.42959,1.52666l-0.25904,2.44818c0,0 -0.59243,-1.90749 -1.61675,-2.19483z" fill="#85857b"/></g><path d="M320.68777,177.80506l0.54603,-5.16096l7.09628,0.75076l0.7442,5.29748z" fill="#7c6e75" stroke-width="0"/><path d="M313.10165,150.43139l-3.29803,-8.5256l1.3717,0.14514l5.17526,9.17832z" fill="#d495b6" stroke-width="0"/><path d="M275.11725,138.74101l13.47074,-1.68169l21.41067,4.89232l3.1293,8.46849z" fill="#df9cbe" stroke-width="0"/><path d="M320.32008,182.82178l0.17067,-1.61277l10.80571,1.14324l0.79703,1.71521z" fill="#7c6e75" stroke-width="0"/><path d="M281.25212,166.46638c0,0 -18.15906,-0.71618 -23.81319,-0.81135c-8.5616,-0.14423 -25.78177,0.37212 -25.78177,0.37212c0,0 15.40754,-2.83531 28.9995,-2.92182c14.73715,-0.09384 58.69557,3.09148 58.69557,3.09148l-0.56908,5.37903z" fill="#75686e" stroke-width="0"/><path d="M273.4493,174.46029l-3.16521,-0.9089c0,0 9.96713,-1.34318 15.19675,-0.02286c5.22965,1.32034 13.91685,7.37322 13.91685,7.37322z" fill="#7c6e76" stroke-width="0"/><path d="M227.67506,165.56465c0,0 -30.55775,-18.71536 -30.95825,-23.40366c-0.36375,-4.25876 29.40919,5.47255 29.71671,5.39626c5.38055,-1.33517 77.62364,-0.94701 77.62364,-0.94701l25.74671,9.55124l52.52917,4.98301l5.83936,14.269c0,0 -61.34039,-5.31442 -84.99193,-7.6528c-8.21008,-0.81172 -24.8808,-3.22679 -40.21974,-3.70296c-11.83194,-0.3673 -29.87425,2.06449 -29.87425,2.06449z" fill="#ee96c3" stroke-width="0"/><path d="M97.94052,164.45199l5.42894,-19.69211c0,0 0.64121,-7.02565 8.08678,-8.54668c9.24764,-1.8892 25.85485,1.66296 27.91408,1.8808c1.58016,0.16717 -13.93194,9.00082 -13.93194,9.00082l-2.12048,20.04214z" fill="#c4b4b3" stroke-width="0"/><g stroke-width="0"><path d="M379.45944,175.88139l-1.24808,-15.35947l91.53022,16.48618l-1.36348,5.6951l-47.67637,-0.15997z" fill="#ad6d8e"/><path d="M407.16691,164.3966l8.10278,-7.46162l26.85011,0.69984l-5.3755,9.89111z" fill="#8d788b"/><path d="M381.7123,162.89875l1.70815,-16.14517l31.91871,10.19293l-5.276,6.34916z" fill="#857183"/><path d="M424.24499,164.0593l17.81238,-6.42987l27.29017,6.68105l-1.00981,6.82564z" fill="#947e92"/><path d="M377.63039,161.855l4.22071,-12.39066l1.76113,-2.89459l-1.58491,14.98025z" fill="#756474"/><path d="M381.06984,172.81947l0.55292,-12.08156l43.24689,2.91747l-2.90868,15.83897z" fill="#746373"/><path d="M421.95495,179.47811c0,0 1.04151,-6.2325 1.53838,-9.03995c0.42541,-2.40368 1.26187,-6.7823 1.26187,-6.7823l43.85905,5.55446l1.10512,8.56379z" fill="#867284"/><path d="M377.67802,161.78917l4.1663,-1.09867l-0.74544,12.13969z" fill="#6f5e6d"/><path d="M462.18359,163.44432l-19.3543,-5.43013l26.19631,6.42825l-0.73462,3.4875c0,0 -0.14676,-1.59354 -1.27417,-2.42168c-0.75419,-0.55395 -4.8332,-2.06398 -4.8332,-2.06398z" fill="#978195"/><path d="M422.64859,163.23706c0,0 8.29496,-2.60703 11.20022,-3.66129c2.11638,-0.76797 4.62702,-2.08219 4.62702,-2.08219l2.50792,0.37857l-15.70123,5.64348z" fill="#9c859a"/><path d="M408.26248,162.52783c0,0 1.59867,-2.59855 3.0835,-3.79922c1.48483,-1.20074 3.86603,-1.76857 3.86603,-1.76857l-4.50167,5.82673z" fill="#806b7d"/><path d="M443.8094,156.0593l2.72471,-5.47706l14.72285,5.31191l4.89558,6.95368z" fill="#55494f"/><path d="M440.99551,158.57731c0,0 1.15954,-0.6719 1.77834,-1.19447c0.46611,-0.39363 1.29597,-1.69814 1.29597,-1.69814l21.76901,6.32549c0,0 0.81076,0.58555 1.35947,0.97108c0.57342,0.4029 2.01014,1.39659 2.01014,1.39659z" fill="#685960"/><path d="M444.46135,155.23108l2.13178,-4.38543l13.71784,4.79677c0,0 -7.80103,-2.36663 -12.28402,-2.58484c-2.60041,-0.12657 -3.56553,2.17347 -3.56553,2.17347z" fill="#41383c"/></g><path d="M103.70358,125.56237l0.54797,-5.17946c0,0 22.3488,1.06224 44.17909,3.42913c13.00888,1.41048 26.33531,4.42697 33.25495,4.80702c15.6024,0.85688 26.48785,-2.52881 26.48785,-2.52881l-7.42518,9.91695z" fill="#ffa1d1" stroke-width="0"/><path d="M99.67145,139.17123l3.84044,-15.76602c0,0 54.27534,7.81433 72.06984,9.25389c10.54071,0.85275 24.85874,-1.41258 24.85874,-1.41258l-1.54058,14.56109c0,0 -67.12639,-7.10199 -83.30843,-8.81407c-6.65347,-0.70396 -18.74857,28.91278 -18.74857,28.91278z" fill="#ee96c3" stroke-width="0"/><path d="M269.8382,234.09398l10.65899,-12.54403c0,0 11.53199,-14.72565 21.60222,-20.56133c2.559,-1.48292 7.82574,-2.1289 7.82574,-2.1289c0,0 -7.78783,4.18899 -10.66194,6.69192c-6.78738,5.91085 -29.4249,28.54232 -29.4249,28.54232z" fill="#70646b" stroke-width="0"/><path d="M372.13582,179.7146l-4.37164,-18.56479l1.34259,0.14205c0,0 1.32396,5.62236 2.02354,8.59327c0.09967,0.42326 1.32861,1.78122 1.45206,2.30555c0.21405,0.90892 -0.65921,1.06138 -0.41999,2.07719c0.66607,2.82866 1.31602,5.58877 1.31602,5.58877z" fill="#795467" stroke-width="0"/><path d="M199.48327,146.30351c0,0 -9.73446,-7.61877 -8.66169,-11.30129c0.64229,-2.20488 18.22807,-8.34084 18.22807,-8.34084l67.94577,8.87012l-1.95335,2.90671l28.93341,8.33886l-74.19356,18.87381c0,0 -0.19634,-5.66591 3.6867,-8.12922c3.77391,-2.39403 19.29327,-6.44871 19.29327,-6.44871c0,0 -34.0223,-3.64882 -41.26367,-4.50214c-2.41586,-0.28471 -12.01499,-0.2674 -12.01499,-0.2674z" fill="#f399c8" stroke-width="0"/><g><path d="M207.06028,128.38587l0.34074,-3.22036l175.57373,18.57579l-0.34074,3.22036z" fill="#584f54" stroke-width="0"/><path d="M377.18446,143.37821l0.28789,-2.72115l3.03832,0.32147l2.39293,3.00482z" fill="#685d63" stroke-width="0"/><g fill="#685d63" stroke-width="0"><g><g><g><path d="M370.53515,142.92531l0.31326,-2.9605l3.85956,0.40833l-0.31326,2.9605z"/><path d="M364.27256,142.26272l0.31326,-2.9605l3.85957,0.40834l-0.31326,2.9605z"/></g><g><path d="M358.24633,141.62518l0.31326,-2.96051l3.85957,0.40834l-0.31326,2.9605z"/><path d="M351.98373,140.96259l0.31326,-2.9605l3.85956,0.40834l-0.31326,2.96051z"/></g></g><g><g><path d="M345.8393,140.31246l0.31326,-2.96051l3.85956,0.40834l-0.31326,2.9605z"/><path d="M339.57668,139.6499l0.31326,-2.9605l3.85956,0.40833l-0.31326,2.96051z"/></g><g><path d="M333.55049,139.01229l0.31326,-2.9605l3.85956,0.40834l-0.31326,2.9605z"/><path d="M327.2879,138.3497l0.31326,-2.9605l3.85955,0.40831l-0.31326,2.96051z"/></g></g></g><g><g><g><path d="M327.05159,138.32477l0.31326,-2.9605l3.85956,0.40834l-0.31326,2.9605z"/><path d="M320.78904,137.66214l0.31326,-2.9605l3.85957,0.40834l-0.31326,2.9605z"/></g><g><path d="M314.76278,137.02458l0.31326,-2.96051l3.85956,0.40834l-0.31326,2.9605z"/><path d="M308.50018,136.36198l0.31326,-2.9605l3.85955,0.40831l-0.31326,2.96051z"/></g></g><g><g><path d="M302.35584,135.71193l0.31326,-2.96051l3.85957,0.40834l-0.31326,2.9605z"/><path d="M296.0932,135.04934l0.31326,-2.9605l3.85957,0.40834l-0.31326,2.96051z"/></g><g><path d="M290.06695,134.41178l0.31326,-2.9605l3.85956,0.40833l-0.31326,2.96051z"/><path d="M283.80438,133.74915l0.31326,-2.9605l3.85957,0.40834l-0.31326,2.9605z"/></g></g></g></g><g><g fill="#685d63" stroke-width="0"><g><g><path d="M277.61973,133.09487l0.31326,-2.96051l3.85957,0.40834l-0.31326,2.9605z"/><path d="M271.35719,132.43223l0.31326,-2.9605l3.85957,0.40834l-0.31326,2.96051z"/></g><g><path d="M265.33093,131.7947l0.31326,-2.9605l3.85957,0.40834l-0.31326,2.96051z"/><path d="M259.0684,131.13207l0.31326,-2.9605l3.85956,0.40833l-0.31326,2.96051z"/></g></g><g><g><path d="M252.92399,130.48203l0.31326,-2.96051l3.85957,0.40834l-0.31326,2.9605z"/><path d="M246.66139,129.81937l0.31326,-2.9605l3.85957,0.40834l-0.31326,2.96051z"/></g><g><path d="M240.63507,129.18181l0.31326,-2.9605l3.85957,0.40834l-0.31326,2.96051z"/><path d="M234.37253,128.5193l0.31326,-2.9605l3.85956,0.40833l-0.31326,2.9605z"/></g></g></g><g><g fill="#685d63" stroke-width="0"><g><path d="M234.13625,128.49426l0.31326,-2.96051l3.85957,0.40834l-0.31326,2.9605z"/><path d="M227.87364,127.83168l0.31326,-2.9605l3.85956,0.40833l-0.31326,2.96051z"/></g><g><path d="M221.8474,127.1941l0.31326,-2.9605l3.85956,0.40833l-0.31326,2.96051z"/><path d="M215.58485,126.53146l0.31326,-2.9605l3.85956,0.40833l-0.31326,2.9605z"/></g></g><g fill="none" stroke-width="1" font-family="sans-serif" font-weight="normal" font-size="12" text-anchor="start"><g/><g/></g></g></g><path d="M207.44602,125.41987l2.96875,-2.43749l3.03832,0.32147l-0.28789,2.72115z" data-paper-data="{&quot;index&quot;:null}" fill="#685d63" stroke-width="0"/></g><path d="M260.58115,164.1115l-2.56613,0.00005c0,0 1.93975,-2.37662 11.60029,-2.48857c7.3241,-0.08483 27.91123,0.77449 40.23177,1.32811c5.72133,0.25706 62.85665,-2.75017 62.85665,-2.75017l5.17145,0.53275c0,0 -62.4931,4.09234 -68.20775,3.81262c-12.63668,-0.61856 -33.88809,-1.62286 -40.06345,-1.69449c-3.36163,-0.03897 -9.0227,1.25971 -9.0227,1.25971z" fill="#70475c" stroke-width="0"/><path d="M358.92946,193.6507l-5.0907,1.31751l1.99252,-18.82622c0,0 7.74312,0.86792 15.31575,1.71669c21.73875,2.43659 126.21666,14.14705 126.21666,14.14705l-0.7078,6.68989z" fill="#5a5959" stroke-width="0"/><path d="M357.84813,195.17378l1.4011,-2.87459l137.43032,6.28888l-12.94003,9.9051z" fill="#4b4a4a" stroke-width="0"/><path d="M480.49178,207.95939c0,0 -5.53419,-3.82827 -8.39955,-5.56748c-1.53556,-0.93204 -7.45637,-4.05666 -7.45637,-4.05666c0,0 7.65153,3.72946 10.87781,5.0241c1.15141,0.46205 2.19064,1.31892 3.43184,1.98134c0.40026,0.21358 2.50385,-2.33844 4.57261,-3.84348c0.61836,-0.44986 1.7338,0.03474 2.29108,-0.23896c1.27752,-0.62742 1.74937,-1.67501 1.74937,-1.67501c0,0 0.23778,0.95989 -1.10211,2.03871c-0.36554,0.29438 -2.19557,0.45505 -2.55712,0.77915c-1.44901,1.29907 -2.61349,2.78385 -2.97913,3.33965c-1.02035,1.55106 1.02678,2.37263 1.02678,2.37263z" fill="#414040" stroke-width="0"/><path d="M199.40331,146.59415l4.96179,-10.63574l7.03292,0.11633c0,0 -1.22399,2.53347 -1.94535,4.02662c-0.18168,0.37605 11.75273,-0.32835 12.0322,0.37602c0.51855,1.30678 -5.41822,4.45957 -5.87193,5.39856c-0.51868,1.07356 -9.21647,0.55132 -9.21647,0.55132z" fill="#303030" stroke-width="0"/><path d="M199.29947,146.21103l4.76999,-9.81628c0,0 2.84627,1.61303 2.74262,2.59251c-0.18858,1.78227 -2.36766,7.37114 -2.36766,7.37114z" fill="#252525" stroke-width="0"/><path d="M353.54139,197.60726l0.31062,-2.93603l5.80375,-2.35485l-1.54189,2.80572c0,0 -1.22485,1.21314 -2.029,1.65021c-0.7076,0.38458 -2.54353,0.83487 -2.54353,0.83487z" fill="#383838" stroke-width="0"/><g><g fill="#4b4b4b" stroke-width="0"><g data-paper-data="{&quot;origPos&quot;:null}"><g data-paper-data="{&quot;origPos&quot;:null}"><path d="M420.16567,206.0348l0.23913,-2.26014l3.7292,0.39454l-0.23913,2.26014z" data-paper-data="{&quot;origPos&quot;:null}"/><path d="M413.96231,205.26423l0.23913,-2.26014l3.72919,0.39454l-0.23913,2.26013z" data-paper-data="{&quot;origPos&quot;:null}"/></g><g data-paper-data="{&quot;origPos&quot;:null}"><path d="M432.58441,207.46295l0.23913,-2.26014l3.7292,0.39454l-0.23913,2.26013z" data-paper-data="{&quot;origPos&quot;:null}"/><path d="M426.38103,206.69234l0.23913,-2.26013l3.72919,0.39454l-0.23913,2.26014z" data-paper-data="{&quot;origPos&quot;:null}"/></g></g><g data-paper-data="{&quot;origPos&quot;:null,&quot;index&quot;:null}"><g data-paper-data="{&quot;origPos&quot;:null}"><path d="M451.70627,209.25753l0.23913,-2.26014l3.7292,0.39454l-0.23913,2.26013z" data-paper-data="{&quot;origPos&quot;:null}"/><path d="M457.93351,209.80208l0.23912,-2.26013l3.7292,0.39454l-0.23914,2.26012z" data-paper-data="{&quot;origPos&quot;:null}"/></g><g data-paper-data="{&quot;origPos&quot;:null}"><path d="M439.26366,208.05533l0.23913,-2.26014l3.72919,0.39454l-0.23912,2.26013z" data-paper-data="{&quot;origPos&quot;:null}"/><path d="M445.49092,208.59995l0.23913,-2.26013l3.7292,0.39454l-0.23913,2.26013z" data-paper-data="{&quot;origPos&quot;:null}"/></g></g></g><path d="M378.54857,193.34049l1.43207,-13.53556l84.00517,8.8878l-1.43207,13.53556z" data-paper-data="{&quot;origPos&quot;:null}" fill="#444444" stroke-width="0"/><path d="M378.14971,198.04692l0.50322,-4.75588l83.75826,8.86166l-0.50322,4.75589z" data-paper-data="{&quot;origPos&quot;:null}" fill="#414141" stroke-width="0"/><path d="M378.0345,199.46693l0.17022,-1.60864l83.74758,8.86053l-0.17019,1.60864z" data-paper-data="{&quot;origPos&quot;:null}" fill="#3f3f3f" stroke-width="0"/><g stroke-width="0"><g data-paper-data="{&quot;origPos&quot;:null}" fill="#5a5a5a"><g data-paper-data="{&quot;origPos&quot;:null}"><path d="M421.5717,197.97224l1.44668,-13.67368l3.5516,0.37578l-1.44668,13.67368z" data-paper-data="{&quot;origPos&quot;:null}"/></g><g data-paper-data="{&quot;origPos&quot;:null}"><path d="M427.60946,198.61104l1.44668,-13.67368l3.55161,0.37578l-1.44668,13.67368z" data-paper-data="{&quot;origPos&quot;:null}"/><path d="M433.82478,199.26856l1.4467,-13.67368l3.5516,0.37578l-1.44668,13.67368z" data-paper-data="{&quot;origPos&quot;:null}"/></g></g><g data-paper-data="{&quot;origPos&quot;:null}" fill="#5a5a5a"><g data-paper-data="{&quot;origPos&quot;:null}"><path d="M440.39525,199.96373l1.44668,-13.67368l3.5516,0.37578l-1.44669,13.67368z" data-paper-data="{&quot;origPos&quot;:null}"/><path d="M446.61052,200.62132l1.44668,-13.67368l3.55161,0.37578l-1.4467,13.67368z" data-paper-data="{&quot;origPos&quot;:null}"/></g><g data-paper-data="{&quot;origPos&quot;:null}"><path d="M452.64828,201.2601l1.4467,-13.67368l3.5516,0.37578l-1.4467,13.67368z" data-paper-data="{&quot;origPos&quot;:null}"/><path d="M458.86362,201.91767l1.4467,-13.67368l3.5516,0.37578l-1.44668,13.67368z" data-paper-data="{&quot;origPos&quot;:null}"/></g></g><path d="M425.18431,198.35445l-1.07708,1.82781l-5.21682,-0.50863l0.89212,-9.75677l3.1773,-5.62462l-1.37811,13.68093z" fill="#3a3a3a"/><path d="M431.21961,198.99293l-1.07708,1.82781l-5.21684,-0.50861l0.89213,-9.75677l3.1773,-5.62461l-1.37811,13.68092z" fill="#3a3a3a"/><path d="M437.39206,199.64602l-1.07708,1.82781l-5.21683,-0.50861l0.89212,-9.75677l3.1773,-5.62461l-1.37811,13.68093z" fill="#3a3a3a"/><path d="M444.04458,200.34986l-1.07708,1.82781l-5.21683,-0.50861l0.89212,-9.75677l3.1773,-5.62461l-1.37811,13.68093z" fill="#3a3a3a"/><path d="M450.28563,201.0102l-1.07708,1.82781l-5.21683,-0.50861l0.89212,-9.75677l3.1773,-5.62461l-1.37811,13.68092z" fill="#3a3a3a"/><path d="M456.25231,201.64144l-1.07708,1.82781l-5.21682,-0.50863l0.89212,-9.75677l3.1773,-5.62461l-1.37811,13.68093z" fill="#3a3a3a"/><path d="M462.5012,202.30259l-1.07708,1.82781l-5.21683,-0.50861l0.89213,-9.75677l3.1773,-5.62462l-1.37811,13.68093z" fill="#3a3a3a"/></g><g stroke-width="0"><g data-paper-data="{&quot;origPos&quot;:null}" fill="#5a5a5a"><g data-paper-data="{&quot;origPos&quot;:null}"><path d="M378.58264,193.42397l1.4467,-13.67368l3.55161,0.37578l-1.44668,13.67368z" data-paper-data="{&quot;origPos&quot;:null}"/></g><g data-paper-data="{&quot;origPos&quot;:null}"><path d="M384.6203,194.06282l1.44668,-13.67368l3.5516,0.37578l-1.44668,13.67368z" data-paper-data="{&quot;origPos&quot;:null}"/><path d="M390.8356,194.72034l1.44668,-13.67368l3.55161,0.37578l-1.4467,13.67368z" data-paper-data="{&quot;origPos&quot;:null}"/></g></g><g data-paper-data="{&quot;origPos&quot;:null}" fill="#5a5a5a"><g data-paper-data="{&quot;origPos&quot;:null}"><path d="M397.40613,195.41554l1.4467,-13.67368l3.55162,0.37578l-1.44668,13.67368z" data-paper-data="{&quot;origPos&quot;:null}"/><path d="M403.6215,196.07309l1.44668,-13.67368l3.55161,0.37578l-1.4467,13.67368z" data-paper-data="{&quot;origPos&quot;:null}"/></g><g data-paper-data="{&quot;origPos&quot;:null}"><path d="M409.6592,196.71187l1.44668,-13.67368l3.55161,0.37578l-1.4467,13.67368z" data-paper-data="{&quot;origPos&quot;:null}"/><path d="M415.87457,197.36949l1.4467,-13.67368l3.55161,0.37578l-1.44669,13.67368z" data-paper-data="{&quot;origPos&quot;:null}"/></g></g><path d="M382.1952,193.8062l-1.07708,1.82781l-2.71914,-0.24435l0.19369,-1.96467z" fill="#3a3a3a"/><path d="M388.23048,194.44475l-1.07708,1.82781l-5.21683,-0.50861l0.89213,-9.75677l3.1773,-5.62461l-1.37811,13.68093z" fill="#3a3a3a"/><path d="M394.40288,195.09774l-1.07708,1.82781l-5.21683,-0.50861l0.8921,-9.75676l3.1773,-5.62462l-1.37811,13.68093z" fill="#3a3a3a"/><path d="M401.05543,195.80157l-1.07708,1.82781l-5.21683,-0.50861l0.89213,-9.75677l3.1773,-5.62461l-1.37811,13.68093z" fill="#3a3a3a"/><path d="M407.29654,196.46194l-1.07708,1.82781l-5.21682,-0.50863l0.89212,-9.75677l3.1773,-5.62461l-1.37811,13.68093z" fill="#3a3a3a"/><path d="M413.26322,197.09314l-1.07708,1.82781l-5.21682,-0.50863l0.89212,-9.75677l3.1773,-5.62462l-1.37811,13.68093z" fill="#3a3a3a"/><path d="M419.51216,197.75432l-1.07708,1.82781l-5.21682,-0.50863l0.89212,-9.75677l3.1773,-5.62461l-1.37811,13.68093z" fill="#3a3a3a"/></g><g><g data-paper-data="{&quot;origPos&quot;:null}"><g data-paper-data="{&quot;origPos&quot;:null}" fill="none" stroke-width="1" font-family="sans-serif" font-weight="normal" font-size="12" text-anchor="start"/><g data-paper-data="{&quot;origPos&quot;:null}" fill="#4b4b4b" stroke-width="0"><path d="M384.11101,202.41181l0.23913,-2.26014l3.72919,0.39454l-0.23912,2.26013z" data-paper-data="{&quot;origPos&quot;:null}"/><path d="M377.90761,201.64124l0.23913,-2.26014l3.72919,0.39454l-0.23913,2.26014z" data-paper-data="{&quot;origPos&quot;:null}"/></g></g><g data-paper-data="{&quot;origPos&quot;:null,&quot;index&quot;:null}" fill="#4b4b4b" stroke-width="0"><g data-paper-data="{&quot;origPos&quot;:null}"><path d="M403.2329,204.20632l0.23913,-2.26013l3.7292,0.39454l-0.23913,2.26013z" data-paper-data="{&quot;origPos&quot;:null}"/><path d="M409.46017,204.75092l0.23914,-2.26012l3.7292,0.39454l-0.23913,2.26013z" data-paper-data="{&quot;origPos&quot;:null}"/></g><g data-paper-data="{&quot;origPos&quot;:null}"><path d="M390.79024,203.00422l0.23913,-2.26014l3.7292,0.39454l-0.23913,2.26013z" data-paper-data="{&quot;origPos&quot;:null}"/><path d="M397.01754,203.54874l0.23913,-2.26014l3.7292,0.39454l-0.23913,2.26014z" data-paper-data="{&quot;origPos&quot;:null}"/></g></g></g></g><path d="M212.18066,146.34315l1.47736,-4.08231c0,0 4.91664,-2.64487 8.44396,-2.42251c4.0324,0.25418 33.83236,3.43212 33.83236,3.43212c0,0 0.46098,1.935 0.28029,3.13986c-0.23277,1.55232 -2.65958,4.37731 -2.65958,4.37731z" fill="#242424" stroke-width="0"/><path d="M237.32922,145.17253l0.33144,-3.1328l17.90188,1.89396l-0.33144,3.1328z" fill="#313131" stroke-width="0"/><path d="M233.85059,146.74593l0.06863,-0.64863c0,0 1.17255,-0.93298 2.18993,-0.82534c0.9661,0.10226 3.09197,0.8047 5.51305,1.22514c4.61219,0.80086 10.19861,1.49422 10.19861,1.49422l-0.06863,0.64863c0,0 -5.39795,-0.57315 -9.94535,-1.36664c-2.48129,-0.43294 -4.67705,-1.23745 -5.67922,-1.34348c-1.05341,-0.11146 -2.27699,0.81611 -2.27699,0.81611z" fill="#616161" stroke-width="0"/><path d="M262.48612,133.97695l12.30442,4.3453l30.1208,8.5245c0,0 0.70548,0.30007 -7.27157,-1.27618c-2.71364,-0.53625 -13.12364,-3.25559 -22.09508,-6.11827c-2.42755,-0.77459 -15.32566,-5.59921 -15.32566,-5.59921z" fill="#df8cb7" stroke-width="0"/><path d="M81.73722,121.22534l0.62419,-5.90015c0,0 5.92248,-1.13614 9.70519,-0.73592c3.09678,0.32766 11.16332,4.70655 11.16332,4.70655l-1.42513,12.18842z" fill="#626061" stroke-width="0"/><path d="M196.10199,143.36662l3.51153,2.89148l12.31839,-0.02724l50.46332,5.33907l-0.11474,1.08502c0,0 -37.8397,-4.14948 -49.70458,-5.14116c-3.25748,-0.27224 -12.97891,-0.57588 -12.97891,-0.57588z" fill="#ffa6d4" stroke-width="0"/><path d="M72.14449,184.49755l0.75435,-7.12982l25.04741,-14.07301l-3.03649,13.42394l-14.86051,8.61522z" fill="#3f3d3e" stroke-width="0"/><path d="M71.05584,179.29398c0,0 2.25416,-19.52305 4.06372,-28.96838c2.04231,-10.66056 7.57643,-31.79171 7.57643,-31.79171c0,0 8.58668,0.7181 11.97571,2.73165c2.90055,1.72329 7.12198,8.61511 7.12198,8.61511l-3.5301,33.36535c0,0 -13.23222,12.3746 -16.49787,14.3008c-5.02319,2.96285 -10.70984,1.74722 -10.70984,1.74722z" fill="#555354" stroke-width="0"/><path d="M81.43095,129.05767c0,0 -0.90108,-6.12168 1.43739,-8.58653c2.33846,-2.46487 6.77086,-3.01851 9.31692,-2.74914c2.03106,0.21487 6.22601,0.73786 8.61435,5.47397c2.38838,4.73608 -0.22237,11.16713 -0.22237,11.16713c0,0 -5.17025,-11.00879 -7.66767,-11.70081c-3.52409,-0.97651 -11.4787,6.39541 -11.4787,6.39541z" fill="#6f6b6c" stroke-width="0"/><path d="M69.0983,183.9859c0,0 4.44712,-25.73748 5.65122,-37.11773c1.25391,-11.85163 3.22062,-32.47764 3.22062,-32.47764c0,0 1.21745,-0.51775 2.25252,-0.40828c0.94642,0.10011 2.43691,0.90441 2.43691,0.90441c0,0 -2.22853,19.02642 -3.35377,29.66182c-1.30734,12.35648 -6.79681,39.79822 -6.79681,39.79822z" fill="#333232" stroke-width="0"/><path d="M68.62322,184.38178l2.63562,-14.51151c0,0 0.95583,0.99498 1.55598,1.01956c0.75783,0.0311 2.57679,-1.22197 2.57679,-1.22197l-2.82125,15.13148z" fill="#2e2d2d" stroke-width="0"/><path d="M98.05737,151.03365c-0.85904,8.11931 -5.87231,16.30523 -10.52133,18.75709c-3.86115,2.03637 -12.02924,7.9678 -11.17017,-0.15148c0.18226,-1.72249 3.46483,-13.32083 4.3322,-20.29815c1.14708,-9.22737 0.03453,-14.35376 1.28493,-17.06891c2.26103,-4.9094 7.90927,-5.79951 10.11149,-5.56652c4.34101,0.45931 6.82197,16.20867 5.96293,24.32797z" fill="#585758" stroke-width="0"/><path d="M130.84616,168.66434l-0.40613,-1.79343c0,0 8.03772,-0.50771 14.07329,-0.35596c8.49664,0.21356 32.09792,1.51654 32.09792,1.51654l1.65119,1.46305c0,0 -25.14175,-1.03056 -33.88789,-1.18371c-2.5686,-0.04496 -13.52833,0.35356 -13.52833,0.35356z" fill="#585657" stroke-width="0"/><path d="M123.59964,181.17183l6.60149,-13.06934l7.30213,-0.18341c0,0 -2.18228,4.10668 -2.17587,4.86675c0.03039,3.63167 0.48901,27.78099 0.48901,27.78099c0,0 -1.51558,0.28254 -2.50105,-1.70774c-1.7682,-3.57118 -2.87154,-10.58821 -4.39269,-12.86354c-1.31426,-1.96587 -5.323,-4.82368 -5.323,-4.82368z" fill="#5a5759" stroke-width="0"/><path d="M139.30049,151.85701l4.06526,-10.96645l2.33208,0.13501l-5.19363,11.07049z" fill="#a5a0a2" stroke-width="0"/><path d="M146.16654,151.49392l0.14758,-1.395l26.3492,2.78774l-0.14758,1.39499z" fill="#494748" stroke-width="0"/><path d="M146.39895,148.53061l0.14758,-1.395l26.3492,2.78774l-0.14758,1.395z" fill="#494748" stroke-width="0"/><path d="M124.71582,168.76933l2.11885,-20.02659l13.19118,-8.27426l4.85048,0.19969l-20.68996,40.86345l-5.36931,-2.5826z" fill="#dbd5d8" stroke-width="0"/><path d="M97.11082,177.82961l1.08352,-11.74196l26.58962,2.01933c0,0 0.06145,2.55844 -0.15203,3.33873c-0.5321,1.94528 -3.2582,8.63344 -3.2582,8.63344z" fill="#ccc6c9" stroke-width="0"/><path d="M102.07801,166.90117l0.03319,-0.31405l22.78171,1.53703l-2.71554,0.90361c0,0 -4.31726,-0.26952 -7.00758,-0.58612c-3.6838,-0.43345 -13.09184,-1.54049 -13.09184,-1.54049z" fill="#d8d1d5" stroke-width="0"/><path d="M105.96713,163.555l1.7886,-16.90561l16.03552,1.69658l-1.7886,16.90561z" fill="#a39999" stroke-width="0"/><path d="M96.81791,177.96931l1.19509,-11.29627c0,0 8.11586,7.28097 12.13247,10.05959c4.01664,2.77863 10.51122,3.18418 10.51122,3.18418z" fill="#b4afb1" stroke-width="0"/><path d="M129.63865,187.51815c0,0 2.90318,1.35345 4.00834,1.32588c0.67889,-0.01701 1.99193,-1.47587 1.99193,-1.47587l0.69471,9.19735l-0.44138,4.1718c0,0 -1.96501,0.10527 -2.96525,-2.59754c-0.82527,-2.23003 -3.28835,-10.62158 -3.28835,-10.62158z" fill="#504e4f" stroke-width="0"/><path d="M123.84389,181.75717l18.77325,-39.99037l1.71232,0.38745l-18.71442,40.40909z" fill="#858183" stroke-width="0"/><path d="M111.38924,139.45594l1.68005,-1.48196c0,0 27.33117,2.24413 39.6726,3.54991c10.71148,1.13328 31.7305,3.71203 31.7305,3.71203l0.3223,1.98631c0,0 -21.10481,-2.9428 -32.39539,-4.13735c-12.89244,-1.36399 -41.01001,-3.62896 -41.01001,-3.62896z" fill="#918b8e" stroke-width="0"/><path d="M112.53126,138.33917l2.2169,-1.71773c0,0 25.78176,2.3728 38.12315,3.67848c10.71147,1.13328 31.7305,3.71203 31.7305,3.71203l0.32229,1.98631c0,0 -21.1048,-2.9428 -32.39539,-4.13736c-12.89244,-1.36399 -39.99741,-3.52186 -39.99741,-3.52186z" fill="#a59fa2" stroke-width="0"/><path d="M174.59441,165.80753l-1.31694,-5.8537c0,0 0.33724,-1.1761 0.68022,-1.25321c0.30223,-0.06801 1.27093,0.81421 1.27093,0.81421l1.31694,5.85371c0,0 -0.36694,0.84372 -0.66983,0.91183c-0.34266,0.07709 -1.28135,-0.47287 -1.28135,-0.47287z" fill="#494242" stroke-width="0"/><path d="M134.26465,164.20405l4.52123,-9.06032l3.86417,0.40881l-4.52123,9.06032z" fill="#9c989a" stroke-width="0"/><path d="M145.64912,147.53311l1.9423,-0.76783l24.30129,2.58927l1.9069,1.15699z" fill="#757274" stroke-width="0"/><path d="M145.44709,150.33873l1.94232,-0.76784l24.30128,2.58928l1.90693,1.15696z" fill="#757274" stroke-width="0"/><path d="M94.51411,176.73713l7.81647,-57.65537l1.84854,0.77954l-7.31613,58.11164z" fill="#686666" stroke-width="0"/><path d="M94.3232,176.98873l2.36126,-16.09663l1.87663,4.03833l-1.83435,13.1903z" fill="#535252" stroke-width="0"/><path d="M127.30514,157.47587c0,0 2.35905,-2.10897 2.45861,-3.05049c0.09777,-0.92396 -1.86643,-2.54694 -1.86643,-2.54694c0,0 2.91491,0.98185 2.63369,2.64985c-0.21422,1.27052 -1.48929,3.33681 -1.69217,4.4239c-0.57689,3.09091 -2.03471,10.32503 -2.03471,10.32503z" fill="#c4bec1" stroke-width="0"/><path d="M135.13966,156.38248l2.97369,-9.93774l2.99284,-4.06191l-3.64594,9.22579z" fill="#aca7a9" stroke-width="0"/></g></g><g stroke-width="0"><path d="M255.4713,141.12781l2.89107,-3.04189c0,0 1.94851,-1.2382 2.73999,-0.87794c0.90239,0.41074 2.38524,3.21087 2.38524,3.21087l-0.96841,4.00227c0,0 -4.25672,-0.45793 -5.50189,-0.72374c-0.56139,-0.11982 -1.54591,-2.56955 -1.54591,-2.56955z" fill="#c0c0c0"/><path d="M211.7753,146.20967c0,0 0.12752,-2.88259 1.30059,-3.90369c1.4701,-1.27966 7.74906,-2.83992 7.74906,-2.83992l-1.20505,4.63603l-0.30734,2.90499z" fill="#838383"/><path d="M211.61191,146.11771l8.84691,-6.58704l37.35385,3.95204l-0.78711,7.43974z" fill="#999999"/><path d="M212.67437,145.56995l6.74007,-5.16065l33.58487,3.5533l-0.61456,5.80868c0,0 -4.06491,-0.43009 -9.29393,-0.98327c-3.39971,-0.35965 -7.17971,-1.82751 -10.76636,-2.20703c-3.84759,-0.4071 -7.45579,0.27911 -9.61685,0.05049c-4.22954,-0.44749 -10.03322,-1.06155 -10.03322,-1.06155z" fill="#2e2e2e"/><path d="M216.14748,145.93524l8.94355,-4.99005l12.39491,1.3114c0,0 -7.53583,1.12069 -9.98898,1.78084c-2.60433,0.70073 -6.02075,2.46161 -6.02075,2.46161z" fill="#a5899d"/><path d="M224.10413,146.66367c0,0 5.15918,-0.43171 7.60265,-0.17317c3.12214,0.33032 9.59818,1.99301 9.59818,1.99301l-9.56522,-1.34906z" fill="#adadad"/><path d="M211.71773,146.11061l7.98943,-5.94404l34.77258,3.67901l-0.07245,0.68476c0,0 -30.10875,-3.18551 -34.03345,-3.60075c-0.82088,-0.08683 -8.65603,5.18112 -8.65603,5.18112z" fill="#8a8a8a"/><path d="M257.96714,157.2744l1.0264,-9.70118l1.40487,-7.09345c0,0 1.13113,0.5922 1.62273,1.21086c0.49153,0.61864 0.75419,1.78057 0.75419,1.78057l-2.80632,14.01506z" fill="#9e9e9e"/><path d="M252.99096,152.49357c0,0 -0.68315,-2.20904 -0.65187,-3.80374c0.0421,-2.14742 1.47343,-7.54497 1.47343,-7.54497l1.96487,-0.11926c0,0 0.67135,0.86726 1.16229,0.76919c0.67686,-0.13515 2.52322,-1.50523 2.52322,-1.50523l-1.84837,12.69328z" fill="#9c9c9c"/><path d="M253.36914,154.37441c-0.66183,-1.18064 -0.27828,-2.52084 -0.27828,-2.52084l5.60824,-6.64721c0,0 0.97727,4.00884 0.88085,4.92022c-0.27416,2.59106 0.22703,7.42033 0.22703,7.42033c0,0 -2.97238,-0.23027 -3.95931,-0.77578c-1.18373,-0.65421 -1.81657,-1.21611 -2.47845,-2.39675z" fill="#888888"/><path d="M255.22142,153.79181c-0.77238,-2.09262 -1.30774,-6.63724 0.95385,-10.48743c2.2616,-3.85021 4.43831,-1.47685 4.43831,-1.47685c0,0 0.53558,4.50435 0.29221,6.80435c-0.22165,2.09515 -1.69328,6.43854 -1.69328,6.43854c0,0 -3.21868,0.81402 -3.99109,-1.27866z" fill="#b4b4b4"/><path d="M260.16972,146.57715c-0.14847,1.40326 -5.23821,0.94258 -5.08977,-0.46062c0.14847,-1.40326 3.75862,-6.45362 4.56652,-6.36811c0.31289,0.03314 0.94248,0.20212 1.02629,1.27762c0.13255,1.70146 -0.41213,4.69142 -0.50306,5.55115z" fill="#bbbbbb"/></g><g stroke-width="0"><path d="M196.00777,143.34141c0,0 -5.30668,-5.50622 -5.10958,-7.36922c0.16091,-1.52116 6.1766,-1.00849 6.1766,-1.00849l7.49587,0.86531l-5.13589,10.29574z" fill="#f399c8"/><path d="M165.47833,141.76224c0,0 -0.74397,-2.18827 -0.37527,-3.22792c0.40688,-1.1474 2.83502,-4.51551 2.83502,-4.51551l22.92979,2.23928l8.16824,9.53552z" fill="#ee96c3"/></g></g><g stroke-width="0"><g><path d="M262.51208,132.19309l0.6504,-6.14749l47.55275,5.0311l-0.6504,6.14749z" fill="#61585b"/><path d="M262.69098,128.95035l0.34833,-3.29196l47.73356,5.05024l-0.34833,3.29195c0,0 -8.59291,-0.90916 -17.41997,-1.84304c-2.75988,-0.29201 -6.79956,0.80633 -9.34974,0.53647c-3.03247,-0.32084 -6.12507,-2.17375 -8.07024,-2.37958c-5.83277,-0.61711 -12.89359,-1.36419 -12.89359,-1.36419z" fill="#494344"/><path d="M324.8701,128.88686l-7.28953,-19.80985l20.80313,2.201l13.57801,18.30448c0,0 -5.82166,0.75306 -9.06296,0.66982c-5.00156,-0.1284 -18.02864,-1.36544 -18.02864,-1.36544z" fill="#5e555b"/><path d="M324.51083,132.30307l0.58274,-5.50774c0,0 12.3831,-0.1511 17.33015,-0.41168c3.92601,-0.2068 6.77745,-0.4904 6.77745,-0.4904l5.17637,7.52516c0,0 -5.47074,1.02623 -9.6423,1.0313c-5.65221,0.00687 -20.22431,-2.14659 -20.22431,-2.14659z" fill="url(#color-5)"/><path d="M315.87846,109.05664l0.42048,-3.97403l19.04525,2.01502l3.19575,4.35658z" fill="url(#color-6)"/><path d="M323.92763,132.26643l0.13251,-1.25227c0,0 15.53111,1.56637 20.90535,1.96647c4.01857,0.2992 8.58047,-0.8038 8.58047,-0.8038l0.76348,1.23191l-8.39342,1.18399z" fill="#312c30"/><g><path d="M224.58402,111.0961l0.70684,-8.83299l93.404,9.88218l6.41113,12.02311z" fill="#8a6672"/><path d="M240.15973,121.07592c0,0 -3.1206,-3.95607 -5.75597,-5.70461c-2.63535,-1.74859 -9.68236,-2.25539 -9.68236,-2.25539l0.33114,-2.06367c0,0 12.22582,1.5714 19.20609,2.40572c16.67496,1.99291 80.4112,9.50015 80.4112,9.50015l2.91213,6.91177z" fill="#755761"/><path d="M242.73037,123.85278l-2.73595,-2.89576l87.15174,8.72861l0.87462,3.19085z" fill="#694e57"/><path d="M225.08537,102.63972l0.47654,-4.50385l90.37365,8.87841l3.23266,6.03485c0,0 2.38866,3.60939 -2.86559,3.02804c-1.65406,-0.183 -10.36989,-4.49244 -12.02812,-4.6759c-15.9695,-1.7669 -79.18906,-8.76156 -79.18906,-8.76156z" fill="#916b77"/><path d="M225.80241,98.16139l0.14739,-2.52301l89.42436,9.32165l0.78767,2.489z" fill="#9e7582"/><path d="M299.44482,106.64052c-7.95486,-1.49314 -72.15118,-9.32323 -72.15118,-9.32323l87.36643,9.24342l3.99125,7.90493c0,0 -11.25157,-6.33194 -19.20648,-7.82511z" fill="#b38f9a"/></g><path d="M273.43115,127.09802l0.96525,-9.12287l20.10005,2.12656l-0.96525,9.12288z" fill="#3a3336"/><path d="M274.30857,117.97008l0.87268,-1.43867l18.43552,1.95048l0.81945,1.61767z" fill="#4b4246"/><path d="M273.62306,126.61617l0.86039,-8.13221c0,0 0.49923,5.34804 3.02601,6.72785c2.5268,1.37982 15.65195,3.47151 15.65195,3.47151z" fill="#332c30"/><path d="M316.89326,111.40021l-3.26695,-6.37914c0,0 1.08742,-0.55532 1.6847,-0.4921c0.66774,0.07063 2.13397,0.89617 2.13397,0.89617l3.26695,6.37914z" fill="#757575"/><path d="M319.39878,116.4263l-4.69691,-9.15727l3.81869,0.40401l4.69691,9.15726z" fill="#5a5a5a"/><path d="M322.94157,123.2861l-4.69691,-9.15726l3.81868,0.40401l4.69691,9.15727z" fill="#505050"/><path d="M326.60344,130.3905c-0.80222,-1.56402 -3.93233,-7.66664 -3.93233,-7.66664l3.81867,0.40401l5.49068,10.96505c0,0 -2.10069,0.31623 -3.04341,0.2016c-0.73532,-0.0894 -1.97989,-3.21439 -2.3336,-3.90404z" fill="#3b3b3b"/><path d="M222.77712,113.51759l1.96481,-18.57108l3.1633,0.33467l-1.96481,18.57108z" fill="#443e42"/><path d="M203.83753,113.12167l-0.05823,-5.96727l20.11628,2.12827l-0.6237,5.89512z" fill="url(#color-7)"/><path d="M203.71296,107.78151l1.14124,-10.78677l20.11628,2.12827l-1.14124,10.78678z" fill="#5e555b"/><path d="M204.8409,97.12035l1.23344,-4.05496l19.32072,2.04411l-0.43794,4.13914z" fill="url(#color-8)"/><path d="M275.16853,100.57391l0.64528,-6.0993l14.82663,2.64126l4.1009,5.17127z" fill="#5e555b"/><path d="M294.70396,102.64075l-4.07284,-5.43647c0,0 2.92678,1.0041 5.03765,2.23127c2.11085,1.22714 5.48808,3.88787 5.48808,3.88787z" fill="#776b73"/><path d="M272.04143,101.4051l3.31319,-0.90085l25.48601,2.4283l3.46524,1.88619z" fill="#6d6269"/></g><g><path d="M275.28735,123.30215c0.13138,-1.24188 0.76062,-2.33849 1.25535,-3.32143c0.68943,-1.36974 1.41357,-2.48756 2.78915,-3.19294c0.84028,-0.43089 2.01217,-0.69843 3.02092,-0.83343c0.66715,-0.08927 1.7029,-0.38197 2.40201,-0.30802c1.58486,0.16765 1.91667,0.28497 3.00783,0.89923c0.65729,0.37002 2.24041,0.9891 2.70169,1.71379c0.39045,0.61335 0.76376,1.6067 1.03209,2.31848c0.45847,1.21644 1.06034,3.15505 0.91423,4.53596c-0.06172,0.58358 -0.69176,1.86286 -0.7954,2.3702c-0.32899,1.61077 -0.38333,2.11749 -1.70613,3.08718c-0.80403,0.58936 -2.36054,0.97559 -3.38205,1.27973c-1.05785,0.31504 -2.41767,1.04206 -3.58393,0.91867c-0.78708,-0.08326 -2.15096,-0.76554 -2.89919,-0.98169c-1.62326,-0.4689 -2.49201,-0.73621 -3.39581,-1.97837c-0.77509,-1.06518 -0.86606,-2.68206 -1.08551,-4.07045c-0.11525,-0.72938 -0.35673,-1.66762 -0.27537,-2.43702z" fill="#3a3a3a"/><path d="M276.02683,123.26109c0.12025,-1.13651 0.69608,-2.13994 1.14877,-3.03947c0.63089,-1.25342 1.29352,-2.27633 2.55239,-2.92185c0.76888,-0.39427 1.84137,-0.63912 2.76441,-0.76265c0.61056,-0.08167 1.55841,-0.34956 2.19803,-0.28188c1.45031,0.15343 1.75394,0.26078 2.75248,0.82284c0.60146,0.33859 2.05014,0.90517 2.47231,1.56825c0.35733,0.56128 0.69896,1.47035 0.94445,2.12169c0.41955,1.1132 0.97031,2.88718 0.83657,4.15082c-0.05649,0.53401 -0.63301,1.70466 -0.72789,2.169c-0.30104,1.47402 -0.35079,1.93768 -1.56131,2.82503c-0.73577,0.53933 -2.16015,0.89268 -3.09486,1.17108c-0.96806,0.28829 -2.21243,0.95361 -3.27965,0.84073c-0.72027,-0.07619 -1.96836,-0.70054 -2.65303,-0.89827c-1.48542,-0.42901 -2.28042,-0.67369 -3.10755,-1.8104c-0.70925,-0.97478 -0.79252,-2.45437 -0.99327,-3.72489c-0.1054,-0.66745 -0.32643,-1.52607 -0.25198,-2.23007z" fill="#5a5a5a"/><path d="M288.62766,120.03963c-1.78257,-2.58771 -6.82668,-3.32307 -6.82668,-3.32307c0,0 1.9883,-0.33268 3.96673,-0.11635c1.60256,0.17521 3.12785,0.70306 4.14406,2.11883c1.01707,1.41692 1.25253,2.93482 1.3909,4.35276c0.27135,2.77996 -0.41581,5.11343 -0.41581,5.11343c0,0 -0.47665,-5.55784 -2.25923,-8.1455z" fill="#6d6d6d"/><path d="M282.80226,124.47012c0.06055,-0.57252 0.57375,-0.98751 1.14635,-0.92698c0.57252,0.06055 0.98751,0.57375 0.92698,1.14636c-0.06055,0.57252 -0.57375,0.98751 -1.14635,0.92697c-0.57252,-0.06055 -0.98751,-0.57375 -0.92697,-1.14635z" fill="#272727"/><path d="M282.70931,124.59791c0.05559,-0.52514 0.52626,-0.90573 1.05136,-0.85021c0.52514,0.05559 0.90573,0.52626 0.85021,1.05136c-0.05559,0.52514 -0.52626,0.90573 -1.05135,0.85021c-0.52514,-0.05559 -0.90573,-0.52626 -0.85021,-1.05135z" fill="#131313"/></g></g></g></g></g><path d="M182.7734,224.52606c0.16674,-1.57591 0.41669,-44.41334 1.08551,-46.02708c0.90307,-2.17885 9.19501,0.0566 12.30141,-1.13094c9.51367,-3.63712 19.7548,-7.1663 19.7548,-7.1663c0,0 13.92924,2.05742 18.1422,2.50323c3.15053,0.33332 65.02232,-1.65824 64.67365,8.68399c-0.47294,14.02804 -42.52618,-2.20498 -43.80249,9.85832c-0.32311,3.05385 2.05268,3.50179 1.15896,6.5721c-0.21452,0.73687 -3.09806,5.63957 -3.49748,7.28278c-0.63407,2.60831 2.22167,6.93532 -1.39618,9.66912c-2.88392,2.17923 -1.49053,7.37152 -2.25369,8.51318c-5.25876,7.86735 -13.14113,3.2077 -22.10399,2.25945c-10.62672,-1.12429 -26.48228,0.94232 -35.68357,-1.27546c-3.97184,-0.95737 -8.86443,4.84501 -8.3791,0.25785z" fill="#86c8f5" stroke-width="0"/></g></g></svg>