<svg version="1.1" xmlns="http://www.w3.org/2000/svg" xmlns:xlink="http://www.w3.org/1999/xlink" width="470.09217" height="148.93307" viewBox="0,0,470.09217,148.93307"><defs><linearGradient x1="542.27741" y1="197.55419" x2="541.74095" y2="202.33572" gradientUnits="userSpaceOnUse" id="color-1"><stop offset="0" stop-color="#1f1d20"/><stop offset="1" stop-color="#202022"/></linearGradient><linearGradient x1="543.25555" y1="192.77832" x2="542.63829" y2="198.28003" gradientUnits="userSpaceOnUse" id="color-2"><stop offset="0" stop-color="#302d31"/><stop offset="1" stop-color="#1f1e20"/></linearGradient><linearGradient x1="205.19887" y1="203.22084" x2="204.82086" y2="206.58969" gradientUnits="userSpaceOnUse" id="color-3"><stop offset="0" stop-color="#585758"/><stop offset="1" stop-color="#575758"/></linearGradient><linearGradient x1="191.04369" y1="211.77436" x2="190.74695" y2="214.41914" gradientUnits="userSpaceOnUse" id="color-4"><stop offset="0" stop-color="#363536"/><stop offset="1" stop-color="#353536"/></linearGradient><linearGradient x1="343.86344" y1="135.53655" x2="343.24594" y2="141.04051" gradientUnits="userSpaceOnUse" id="color-5"><stop offset="0" stop-color="#5e555b"/><stop offset="1" stop-color="#2b2629"/></linearGradient><linearGradient x1="336.47101" y1="113.91052" x2="336.02546" y2="117.88172" gradientUnits="userSpaceOnUse" id="color-6"><stop offset="0" stop-color="#72676e"/><stop offset="1" stop-color="#5e555b"/></linearGradient><linearGradient x1="222.66894" y1="115.12818" x2="222.00796" y2="121.01924" gradientUnits="userSpaceOnUse" id="color-7"><stop offset="0" stop-color="#5e555b"/><stop offset="1" stop-color="#4d454a"/></linearGradient><linearGradient x1="224.25805" y1="100.96474" x2="223.79399" y2="105.10104" gradientUnits="userSpaceOnUse" id="color-8"><stop offset="0" stop-color="#74686f"/><stop offset="1" stop-color="#5e555b"/></linearGradient></defs><g transform="translate(-76.97609,-99.92626)"><g data-paper-data="{&quot;isPaintingLayer&quot;:true}" fill-rule="nonzero" stroke="none" stroke-linecap="butt" stroke-linejoin="miter" stroke-miterlimit="10" stroke-dasharray="" stroke-dashoffset="0" style="mix-blend-mode: normal"><g><g stroke-width="0"><path d="M267.87528,195.16743l-8.45543,-16.39023l25.4818,2.2651c0,0 -1.74152,5.66999 -2.24106,8.32941c-0.48319,2.57254 -0.70877,7.37505 -0.70877,7.37505z" fill="#7f7d7e"/><path d="M267.95117,195.37387l-2.99175,-5.97777c0,0 1.94749,3.79588 5.09489,4.76761c2.26643,0.6997 4.17539,0.60199 6.80438,1.21977c2.62895,0.6178 4.97351,1.54787 4.97351,1.54787z" fill="#6c6a6b"/></g><g><g><g><path d="M538.76846,202.00222l-1.50969,-5.01117c0,0 5.7693,2.31558 8.25091,3.49243c2.48165,1.17691 0.82608,2.13444 0.82608,2.13444z" fill="url(#color-1)" stroke-width="0"/><path d="M546.7955,193.37643c0,0 1.21084,2.47824 -1.46985,3.07598c-2.68069,0.59771 -5.70201,1.48941 -5.70201,1.48941l-0.3473,-5.60993z" data-paper-data="{&quot;index&quot;:null}" fill="url(#color-2)" stroke-width="0"/><path d="M529.21108,200.9253l0.23394,-2.08526l14.68043,1.64713c0,0 1.1612,0.92957 1.60509,1.34792c0.39905,0.37609 -0.83518,0.84996 -0.83518,0.84996z" fill="#444444" stroke-width="NaN"/><path d="M529.46253,198.98628l-0.98766,-1.8757l12.53703,1.40662l3.18977,2.01027c0,0 -4.2181,-0.23378 -6.51049,-0.47347c-2.58535,-0.27035 -8.22862,-1.06774 -8.22862,-1.06774z" fill="#535353" stroke-width="0"/><path d="M528.34814,197.23396l-0.25138,-0.67221l11.40222,1.27927l1.61634,0.71037z" fill="#363636" stroke-width="0"/><path d="M529.21108,200.9253l0.12693,-1.13128c0,0 6.3628,1.17033 9.22461,1.49144c2.42516,0.2721 6.85422,0.31259 6.85422,0.31259c0,0 0.80722,0.55569 1.03036,0.78489c0.18829,0.19334 -0.29984,0.4426 -0.29984,0.4426c0,0 -4.74838,-0.12573 -7.04765,-0.38372c-3.10209,-0.34803 -9.88855,-1.51651 -9.88855,-1.51651z" fill="#3a3a3a" stroke-width="NaN"/><path d="M528.41373,196.61564l-0.45154,-0.93995l13.55658,1.52106l-1.91257,0.70879z" fill="#242424" stroke-width="0"/><path d="M527.13805,195.77369l0.18447,-1.64401c0,0 8.06589,0.69751 11.04292,1.03149c2.0283,0.22759 5.09236,0.77887 5.09236,0.77887l-1.96842,1.27782z" fill="#3a3a3a" stroke-width="0"/><path d="M527.18901,194.15751l0.22774,-2.02983c0,0 7.64234,0.52552 10.93598,0.89504c2.85013,0.31978 7.68829,1.1946 7.68829,1.1946l-2.63084,1.76019c0,0 -3.62295,-0.48948 -5.85337,-0.73974c-2.96477,-0.33262 -10.36777,-1.08025 -10.36777,-1.08025z" fill="#444444" stroke-width="0"/><path d="M527.36438,192.20746l0.0949,-0.84577c0,0 7.83848,0.75498 11.4133,1.15608c2.48917,0.27928 7.98338,1.02022 7.98338,1.02022l-0.95457,0.74928c0,0 -4.99029,-0.85036 -7.93703,-1.18099c-3.24653,-0.36426 -10.59999,-0.89883 -10.59999,-0.89883z" fill="#535353" stroke-width="0"/><path d="M527.32105,191.43183l0.03801,-0.33828c0,0 7.68498,0.35203 11.12378,0.73783c2.97309,0.33358 8.31581,1.44322 8.31581,1.44322l-0.00059,0.34252c0,0 -5.95303,-0.8339 -9.17783,-1.19574c-3.26695,-0.36655 -10.29907,-0.98955 -10.29907,-0.98955z" fill="#4e4e4e" stroke-width="0"/></g><g stroke-width="0"><g><g><g><path d="M523.44821,199.78762l-3.08547,-13.59245l0.74148,-1.64897c0,0 3.0931,3.59648 3.73209,6.17418c0.34689,1.39944 0.05752,9.22933 0.05752,9.22933z" fill="#383638"/><path d="M524.56993,199.2177c0,0 0.12601,-0.59938 -0.22499,-3.10904c-0.38274,-2.73687 -1.36105,-6.50652 -1.63193,-7.61763c-0.60821,-2.49409 -1.34385,-2.7079 -1.34385,-2.7079l4.83498,-0.04299l3.42506,14.04522z" fill="#555355"/><path d="M521.4232,185.87512l-0.44035,-1.29354c0,0 2.09678,-0.5698 3.05236,-0.46254c0.89548,0.10044 1.94261,0.94979 1.94261,0.94979l0.43223,1.36579z" fill="#686668"/></g><path d="M517.81089,199.15516l-3.08547,-13.59244l0.41048,-1.66581c0,0 3.42411,3.61339 4.06302,6.19103c0.34689,1.39943 0.05753,9.22932 0.05753,9.22932z" fill="#383638"/><path d="M518.93259,198.58525c0,0 0.12601,-0.59939 -0.22498,-3.10903c-0.38274,-2.73687 -1.36105,-6.50652 -1.63193,-7.61763c-0.60821,-2.49409 -1.34385,-2.7079 -1.34385,-2.7079l4.14539,-0.62351c0,0 0.87988,1.36083 1.06527,2.12101c0.52819,2.1659 3.04935,12.50476 3.04935,12.50476z" fill="#555355"/><path d="M515.78583,185.24255l-0.65716,-1.31791c0,0 2.31363,-0.54543 3.26928,-0.43822c0.89548,0.10044 1.6535,0.91739 1.6535,0.91739l0.55649,1.37974z" fill="#686668"/><path d="M525.49399,198.32141c0.09131,-0.81439 0.82568,-1.40051 1.64006,-1.3092c0.8144,0.09132 1.40051,0.82568 1.3092,1.64006c-0.09131,0.81439 -0.82568,1.40051 -1.64005,1.3092c-0.8144,-0.09132 -1.40051,-0.82568 -1.3092,-1.64006z" fill="#312f31"/><path d="M526.47209,195.48349l-1.36851,-5.73486l1.59743,0.03499l1.36132,5.79897z" fill="#444144"/></g><path d="M479.27734,189.83414l-2.53441,-11.1758l29.56483,4.50099l-1.54327,9.53446z" fill="#444444"/><path d="M492.27599,187.35248c0,0 0.69022,-0.44776 1.53116,-1.46525c0.76897,-0.93025 1.67296,-2.41666 2.10692,-2.83461c1.15942,-1.58711 3.47114,-0.85794 3.47114,-0.85794l-1.04626,0.53977l-4.92716,4.74554z" fill="#292929"/><path d="M493.88384,198.12838l-5.25035,-11.62931c0,0 3.41769,0.91804 5.22765,0.06551c1.40649,-0.66255 1.60638,-3.28859 3.20522,-3.39194c4.58722,-0.29628 17.4298,0.70802 17.4298,0.70802c0,0 2.42326,7.46171 3.02283,10.43415c0.41389,2.05207 0.32867,6.50233 0.32867,6.50233z" fill="#4a464a"/><path d="M499.45677,185.56289c-4.46143,-1.14057 -2.87754,-2.33539 -2.87754,-2.33539c0,0 0.93299,-1.20568 2.80493,-1.14277c4.59379,0.1545 13.11859,1.69146 14.83299,1.85802c0.80851,0.07852 0.26683,0.73011 0.26683,0.73011c0,0 -1.74615,2.20503 -3.3154,2.28457c-1.56932,0.07954 -7.25039,-0.25393 -11.71185,-1.39453z" fill="#5e595e"/></g><g><path d="M481.42036,203.34655l-3.12933,-18.39913l18.75793,2.39274l4.28692,4.83651l6.07216,0.58213l1.45302,13.66659z" fill="#4d4846"/><path d="M486.03854,204.25431l21.57457,-7.0298l22.20954,2.24794c0,0 0.83743,4.30306 0.8285,5.66517c-0.00461,0.69446 -0.48229,2.90844 -0.48229,2.90844z" fill="#423d3b"/><path d="M483.17521,195.56986l-2.06184,-10.13925l0.8154,0.0915l2.06185,10.13926z" fill="#363332"/><path d="M486.70983,203.52291l0.13573,-1.20978c0,0 5.51548,-1.94256 14.52381,-0.93187c1.19692,0.13431 5.13493,3.13754 6.3413,3.2729c7.65409,0.85877 15.14592,1.69935 17.99618,2.01912c2.32121,0.26044 4.83647,-0.76553 4.83647,-0.76553l-0.28072,2.50172z" fill="#312e2c"/><path d="M490.48545,191.12641l-1.21811,-4.78101l8.25588,0.92632l3.63615,4.85701l6.24556,0.89605l-7.75968,1.09037z" fill="#585350"/><path d="M480.27404,197.05045l0.12579,-1.12118c0,0 8.41309,-2.82313 11.27236,-2.50236c4.30933,0.48347 16.20597,1.81827 16.20597,1.81827l-0.12579,1.12118c0,0 -12.10065,-1.35766 -16.40987,-1.84115c-2.80057,-0.31423 -11.06854,2.52521 -11.06854,2.52521z" fill="#2b2827"/></g></g></g><g><g><g><path d="M142.97244,202.12744c0.28834,2.28037 -0.30789,4.8193 -1.42154,4.96005c-1.11362,0.14083 -2.32305,-2.16974 -2.61139,-4.45014c-0.28834,-2.28037 -1.45368,-11.03526 -0.34,-11.17613c1.11362,-0.14083 4.08461,8.3858 4.37297,10.66616z" fill="#615e5f" stroke-width="0"/><g><path d="M187.64261,177.02263c-0.47714,-0.58443 -2.65686,-2.14964 -2.65686,-2.14964l10.17928,-1.75596l-6.76538,6.48612c0,0 -0.27988,-1.99603 -0.75703,-2.58049z" fill="#756a6a" stroke-width="0"/><path d="M178.86159,174.32953l1.53123,-13.64772l19.07189,-3.76364l-2.18535,19.47781z" fill="#8a7c7c" stroke-width="0"/><path d="M138.46805,175.2787l8.64692,-17.27695l34.73035,3.76257l3.09275,13.09312c0,0 -23.02228,-0.99715 -30.77424,-0.92678c-3.21793,0.02916 -15.69587,1.34816 -15.69587,1.34816z" fill="#7c787a" stroke-width="0"/><path d="M146.96443,160.40481l0.018,-1.48874c0,0 25.76257,2.8905 33.86161,3.79917c4.53141,0.50837 16.75776,-4.53013 16.75776,-4.53013l-0.18171,1.61951c0,0 -11.93177,5.05221 -16.31268,4.54592c-8.03283,-0.9283 -34.14297,-3.94569 -34.14297,-3.94569z" fill="#535353" stroke-width="0"/><path d="M106.50967,172.40536l2.24713,-20.02831c0,0 5.28941,-6.50499 12.7444,-7.97887c9.25941,-1.83065 25.84386,1.82635 27.9016,2.05722c1.57906,0.1772 -13.98852,8.91256 -13.98852,8.91256l-2.24713,20.02831z" fill="#8d898b" stroke-width="0"/><path d="M283.5235,145.83358l1.94323,-2.94594l106.8785,12.13526l-1.64417,14.65431c0,0 -37.75083,-2.37847 -49.84903,-4.15459c-6.00831,-0.88206 -57.32852,-19.68905 -57.32852,-19.68905z" fill="#c98cac" stroke-width="0"/><path d="M250.73316,243.78843l-3.07294,-13.36237c0,0 4.45496,6.37594 7.16476,7.76359c1.72648,0.88413 5.88374,1.73467 12.22813,-0.00621c5.10752,-1.40144 10.85843,-6.30157 10.85843,-6.30157l-13.26201,13.46794z" fill="#a08e97" stroke-width="0"/><path d="M345.88969,207.25435l0.31037,-23.73481l18.58812,0.67402l-2.36341,21.06484c0,0 -6.5492,0.99508 -9.37491,1.38076c-1.30108,0.17757 -7.1602,0.61522 -7.1602,0.61522z" fill="#96858d" stroke-width="0"/><path d="M248.48935,247.30602l0.61772,-5.5056c0,0 11.75739,3.40066 16.69611,0.81387c2.40355,-1.25892 21.48418,-20.18193 32.00674,-30.70631c4.10643,-4.10712 6.90954,-6.93516 6.90954,-6.93516c0,0 3.75909,-3.3751 4.08443,-6.23888c0.16364,-1.44062 1.09659,-5.54085 0.52796,-7.93053c-0.57374,-2.41102 -2.64983,-3.10513 -2.64983,-3.10513l-3.32846,-14.03089l19.67642,2.3522l-5.85416,26.0833l3.44909,2.9649c0,0 -10.16445,4.89733 -15.31705,9.30605c-8.062,6.89795 -34.69324,34.48549 -34.69324,34.48549z" fill="#918189" stroke-width="0"/><path d="M322.81469,205.02033l4.3953,-28.29017l13.65899,1.81001l8.96084,13.08289l-4.0476,15.97428z" fill="#96858d" stroke-width="0"/><path d="M318.11218,206.35351l-2.03137,-4.39973l6.43699,-25.632l5.05762,0.48221l-3.85877,28.33314z" fill="#8f8187" stroke-width="0"/><path d="M344.5441,207.5626c0,0 3.47792,-6.31867 2.73697,-11.8466c-0.42664,-3.18292 -5.08732,-5.68793 -5.34889,-7.63919c-0.49962,-3.72738 -1.27259,-9.49374 -1.27259,-9.49374l7.31959,5.21261c0,0 2.58063,7.54855 2.69947,11.85016c0.07991,2.89004 -2.10544,9.06084 -3.31607,11.54023c-0.10207,0.20901 -1.2616,-0.00487 -1.33134,0.15362c-0.17036,0.38732 0.76206,0.72466 0.76206,0.72466z" fill="#86787e" stroke-width="0"/><path d="M347.59869,185.26231c0,0 -2.63058,-4.2749 -7.17561,-5.76255c-5.1454,-1.68417 -22.1198,-3.82625 -22.1198,-3.82625l158.33507,3.49409l2.35707,9.62461l6.6261,11.95604c0,0 -99.87676,-13.79354 -120.33667,-16.08908c-6.67639,-0.74911 -17.68621,0.60319 -17.68621,0.60319z" fill="#df8db7" stroke-width="0"/><path d="M189.07089,215.05283l-0.72405,-36.57866c0,0 2.09094,-3.53962 2.613,-3.69806c5.75621,-1.74696 38.78075,-8.7603 44.15415,-7.8693c5.88626,0.97599 -10.46777,11.14452 -10.46777,11.14452c0,0 -14.54587,0.4066 -17.54153,4.34704c-4.06728,5.34993 -1.18503,23.13575 -1.18503,23.13575z" fill="#c77da3" stroke-width="0"/><path d="M264.3767,193.38525l-1.54358,-2.29168c0,0 7.47768,-7.82162 10.15176,-9.82867c2.76068,-2.07216 6.16069,-2.41529 6.16069,-2.41529l5.64173,2.94959c0,0 -4.39212,-0.99855 -6.9325,0.44352c-2.18078,1.2379 -6.25277,3.87904 -9.38031,6.63988c-2.27504,2.00828 -4.09779,4.50259 -4.09779,4.50259z" fill="#414041" stroke-width="0"/><path d="M146.76376,159.32943l6.07345,-11.08144l48.32524,5.42198c0,0 -3.37728,4.10454 -6.69665,5.71057c-3.25782,1.57628 -13.03844,3.83805 -13.03844,3.83805z" fill="#979395" stroke-width="0"/><path d="M147.68616,158.28283l5.27843,-11.17067l48.32524,5.42198c0,0 -3.37728,4.10454 -6.69665,5.71057c-3.25782,1.57628 -13.03844,3.83805 -13.03844,3.83805z" fill="#bdb7ba" stroke-width="0"/><path d="M346.90147,208.1498l-1.80398,-0.71918l17.20932,-2.27013c0,0 -3.76752,1.64761 -6.32485,2.16256c-2.55732,0.51501 -9.08046,0.82665 -9.08046,0.82665z" fill="#887980" stroke-width="0"/><path d="M191.48934,215.79162c0,0 -1.1587,-10.66119 -1.40031,-19.28028c-0.24275,-8.66116 -0.44519,-16.78112 -0.06742,-20.34598c0.064,-0.60396 2.80908,-10.28893 3.36386,-10.75135c2.99466,-2.4961 9.82478,6.06237 15.47724,5.58609c8.36944,-0.70518 27.41609,0.91445 27.41609,0.91445l-8.99312,4.33501c0,0 -19.6478,0.67865 -22.5973,5.51716c-3.9895,6.54461 1.20676,28.13133 1.20676,28.13133z" fill="#d486ae" stroke-width="0"/><path d="M193.00618,212.4208c0,0 -2.06245,-41.35943 0.3797,-51.22562c1.14265,-4.61629 -1.17568,-14.04144 -1.17568,-14.04144l49.57432,12.57455l-0.37673,16.12854c0,0 -31.49759,-6.6466 -38.50797,-1.11976c-4.67966,3.68932 -1.06207,32.51546 -1.06207,32.51546z" fill="#e490bb" stroke-width="0"/><g stroke-width="0"><path d="M337.59073,165.25391l0.92265,-8.22327l9.3016,1.04364l-0.92265,8.22327z" fill="#454545"/><path d="M338.50312,164.58665l0.4592,-7.29236l11.25556,1.26284l-0.81375,7.25261z" fill="#b0b0b0"/><path d="M338.77451,160.09992l0.08844,-2.83812l11.47084,1.28702l-0.21266,1.89549c0,0 -7.78024,-0.54841 -9.48447,-0.60015c-0.56948,-0.01725 -1.86215,0.25584 -1.86215,0.25584z" fill="#bebebe"/><path d="M349.71727,165.2919c0,0 -5.22119,-3.15721 -4.23595,-6.81784c1.46412,-5.43969 5.50638,-4.50505 5.50638,-4.50505l39.84281,5.81202l-1.12177,9.99788z" fill="#9c989a"/><path d="M351.63718,164.20997c0,0 -2.07888,-3.77422 -2.21816,-4.72252c-0.20646,-1.40565 2.10562,-4.12213 2.10562,-4.12213l41.33267,4.67098l-1.23251,7.39733z" fill="#898587"/><path d="M351.52527,164.39691l-0.79699,-2.04095l37.99338,4.26276l-0.2162,1.92728z" fill="#c1bcbf"/><path d="M351.78326,161.01064c0,0 -1.17253,-1.5081 -1.06801,-2.43964c0.09776,-0.87134 1.67617,-2.98092 1.67617,-2.98092l38.42556,4.31125l-0.60814,5.42054z" fill="#0d0d0d"/><path d="M351.69661,161.78311c0,0 -1.10517,-2.10809 -1.00067,-3.03962c0.09776,-0.87134 1.60882,-2.38087 1.60882,-2.38087l38.42558,4.31126l-0.60814,5.42054z" fill="#2e2e2e"/><path d="M346.68849,163.13643c-2.28042,-3.34207 -0.86198,-5.53411 -0.86198,-5.53411c0,0 1.36231,4.29094 2.49006,5.32074c1.33518,1.21915 4.77017,2.9791 4.77017,2.9791l-3.4947,-0.32147c0,0 -2.50214,-1.85609 -2.90344,-2.44424z" fill="#7d7a7c"/><path d="M354.24588,162.38075c0,0 -0.63674,-2.2973 -0.50922,-3.43373c0.11209,-0.99898 1.23397,-3.02575 1.23397,-3.02575l4.79323,0.53777c0,0 -0.70398,2.13882 -0.80073,3.00162c-0.13304,1.18588 0.07607,3.45778 0.07607,3.45778z" fill="#555555"/><path d="M362.80884,163.34155c0,0 0.94383,-2.43309 1.0713,-3.56942c0.11209,-0.99898 -0.3466,-2.89003 -0.3466,-2.89003l5.34979,0.60024c0,0 -0.60528,1.6579 -0.70209,2.52075c-0.13304,1.18588 -0.02262,3.9387 -0.02262,3.9387z" fill="#555555"/><path d="M372.07736,164.38141c0,0 0.94384,-2.43306 1.07133,-3.56946c0.11209,-0.99898 -0.34661,-2.89002 -0.34661,-2.89002l5.27026,0.59131c0,0 -0.60528,1.6579 -0.70209,2.52075c-0.13304,1.18588 -0.02262,3.9387 -0.02262,3.9387z" fill="#555555"/><path d="M381.68037,165.45888c0,0 1.08089,-2.05987 1.20834,-3.19633c0.11209,-0.99898 -0.48363,-3.26313 -0.48363,-3.26313l5.11126,0.57347c0,0 0.60167,2.06167 0.50481,2.92455c-0.13304,1.18588 -1.22957,3.535 -1.22957,3.535z" fill="#555555"/><path d="M354.62766,156.59121l-0.57181,-0.86916l35.34087,3.96517l-1.61389,0.62392c0,0 -2.81242,-0.31556 -5.25931,-0.59005c-0.53335,-0.05989 -1.50594,-0.49978 -2.30481,-0.58943c-0.77241,-0.08668 -1.36353,0.17781 -2.32368,0.07012c-1.49733,-0.16801 -3.18664,-0.35754 -4.95524,-0.55595c-0.73325,-0.08226 -1.32844,-0.535 -2.08092,-0.61943c-0.66913,-0.07505 -1.49421,0.21832 -2.16642,0.1429c-1.6684,-0.18719 -3.32033,-0.37256 -4.87355,-0.54682c-0.71325,-0.08002 -1.35671,-0.59334 -2.02032,-0.6678c-0.81008,-0.09091 -1.62614,0.25867 -2.3359,0.17901c-2.8953,-0.3248 -4.83514,-0.54248 -4.83514,-0.54248z" fill="#474747"/></g><g><path d="M200.85102,206.83175l4.01368,-2.43513c0,0 2.49345,3.11231 5.21004,4.31772c2.40271,1.0661 10.26365,2.5481 10.26365,2.5481l-3.12402,4.0311z" fill="#6d6a6b" stroke-width="0"/><path d="M192.11753,212.39285l9.99734,-6.30985c0,0 2.96298,2.60315 5.04443,3.5027c3.14891,1.36091 12.01068,3.86832 12.01068,3.86832l-4.73137,3.80352z" fill="#615e5f" stroke-width="0"/><path d="M191.6545,234.4461l1.04278,-22.5977c0,0 4.23875,1.2725 9.02666,1.83949c3.73716,0.44256 7.85419,0.05205 10.25459,0.93354c4.21409,1.54747 36.15351,17.56425 36.15351,17.56425l1.32856,10.38772z" fill="#575455" stroke-width="0"/><path d="M216.12647,209.98026c7.51062,-4.75745 17.02958,-17.22591 18.56684,-19.64101c1.10745,-1.73987 2.37893,-6.90633 2.37893,-6.90633l6.89582,7.63125c0,0 3.52799,21.02116 3.29112,33.7207c-0.06627,3.55344 1.99561,7.75474 0.65329,9.07984c-1.20274,1.18719 -18.31358,1.5717 -23.58886,0.21019c-11.10176,-2.86509 -17.16869,-0.73875 -20.30186,-6.39876c-3.13317,-5.65998 4.62243,-11.09942 4.62243,-11.09942c0,0 5.52716,-5.35794 7.48245,-6.5965z" fill="#504e4f" stroke-width="0"/><path d="M224.56209,177.8955c0,0 0.55978,-1.43932 1.48545,-2.00318c1.19048,-0.72512 5.06477,-1.98668 5.06477,-1.98668c0,0 9.07801,3.09888 11.79187,5.90899c2.50394,2.59268 -4.88396,12.10948 -4.88396,12.10948l-1.39624,-5.55164z" fill="#464445" stroke-width="0"/><path d="M242.38592,227.41915c0,0 -9.92386,5.1816 -18.37447,4.40592c-8.15235,-0.74827 -14.84718,-7.42822 -14.58223,-8.82967c0.14351,-0.75937 8.39059,-3.16007 12.31611,-6.96751c4.36363,-4.23234 4.51396,-9.95281 6.08057,-11.80017c4.3735,-5.15719 13.90071,-14.33066 13.52014,-20.45492c-0.39912,-6.42265 -10.81861,-9.67862 -10.81861,-9.67862c0,0 4.07828,-1.8082 9.04731,-1.38141c2.11665,0.18183 6.48139,2.06606 7.35594,2.5516c2.86806,1.59204 4.66394,3.4401 4.66394,3.4401c0,0 4.17975,-4.44099 7.79397,-4.34688c3.61413,0.09409 21.99391,5.12238 21.99391,5.12238l-17.51367,10.70803z" fill="#555354" stroke-width="0"/><path d="M227.36573,204.7749c0,0 5.80428,-10.2898 11.11113,-15.16339c5.30685,-4.8736 9.71447,-7.57952 13.22479,-7.18564c2.54198,0.28521 4.84909,9.21351 4.84909,9.21351l-14.2156,27.35485c0,0 -14.89556,1.62844 -16.08707,-1.00147c-0.94105,-2.0771 1.11763,-13.21779 1.11763,-13.21779z" fill="#585758" stroke-width="0"/><path d="M246.73663,234.41921c0,0 -2.16992,-6.4734 -1.50873,-9.44035c0.92367,-4.14485 3.76946,-16.55891 3.76946,-16.55891l0.78088,10.58881c0,0 -1.72327,9.61532 -1.92931,12.64107c-0.19871,2.91938 0.97372,5.23496 0.97372,5.23496z" fill="#3f3e3f" stroke-width="0"/><path d="M247.80571,216.56189c-0.00749,-1.68616 1.1175,-9.31921 1.1175,-9.31921c0,0 11.12287,-13.41138 13.50301,-15.81408c0.69777,-0.70437 4.22552,-2.05035 4.22552,-2.05035l-2.17721,4.64008c0,0 -1.63139,0.42474 -1.86332,0.87957c-0.24714,0.48457 0.42311,1.94418 0.42311,1.94418l-6.04235,7.85539c0,0 -1.75301,0.82025 -1.98741,1.30246c-0.23447,0.48236 0.34986,1.44167 0.34986,1.44167c0,0 -4.82725,8.45576 -5.93371,10.76153c-0.5116,1.06613 -0.43771,2.51602 -0.43771,2.51602c0,0 -1.16969,-2.47103 -1.17713,-4.15714z" fill="#474647" stroke-width="0"/><path d="M237.09944,194.26068l20.00928,10.53202c0,0 -1.29441,0.87342 -1.59018,1.38269c-0.21827,0.37579 -0.02377,1.39591 -0.02377,1.39591z" fill="#3f3e3e" stroke-width="NaN"/><path d="M244.21635,184.64127l20.49119,9.40217c0,0 -1.20208,0.71375 -1.47382,1.24308c-0.28327,0.5518 -0.0364,1.66551 -0.0364,1.66551z" fill="#3f3e3e" stroke-width="NaN"/><path d="M228.65611,211.75541c0,0 9.76799,8.83721 14.94301,15.43294c5.17495,6.59574 3.11182,7.57864 3.11182,7.57864z" fill="#636162" stroke-width="NaN"/><path d="M244.43083,190.32406c0,0 -6.28703,2.21688 -9.36441,4.98696c-3.07742,2.77006 -13.16379,17.92285 -12.83537,14.99573c0.32842,-2.92716 15.67869,-22.05604 17.46245,-21.85592c0.67522,0.07576 3.81988,-0.72087 4.60676,-0.3936c1.29175,0.53725 0.1306,2.26681 0.1306,2.26681z" fill="#918f91" stroke-width="0"/><path d="M191.21555,234.26669l14.06642,-0.32195c0,0 12.55443,1.07421 15.65424,1.57806c7.54901,1.22696 29.80442,5.81047 29.80442,5.81047l-1.14898,6.23183c0,0 -24.6066,0.82704 -31.31135,-1.24915c-1.93965,-0.60063 -7.65114,-1.86337 -11.7296,-3.68162c-7.98135,-3.55828 -15.33514,-8.36759 -15.33514,-8.36759z" fill="#626061" stroke-width="0"/><path d="M248.63217,247.10337c0,0 0.51882,-4.26134 0.33357,-6.63669c-0.20819,-2.66979 -1.52205,-8.60216 -1.52205,-8.60216l1.77123,0.19872c0,0 1.21149,4.62069 1.40006,7.03762c0.20607,2.64257 -0.21154,8.20119 -0.21154,8.20119z" fill="#4a494a" stroke-width="0"/><path d="M248.34492,247.91269l0.4665,-3.36614c0,0 0.53372,0.32626 0.8035,0.35655c0.32057,0.03599 0.95294,-0.15942 0.95294,-0.15942l-0.18153,3.17614c0,0 -0.81717,0.31846 -1.18911,0.31722c-0.28504,-0.00095 -0.85228,-0.32429 -0.85228,-0.32429z" fill="#363536" stroke-width="0"/><path d="M247.60274,232.91417l-0.20274,-1.65352c0,0 0.45432,-0.30564 0.82705,-0.32345c0.35503,-0.0169 0.86049,0.16333 0.86049,0.16333l0.30491,1.7815c0,0 -0.53541,0.45054 -0.84199,0.45603c-0.28885,0.0052 -0.94769,-0.42384 -0.94769,-0.42384z" fill="#585758" stroke-width="0"/><path d="M207.09321,242.00893c0,0 -7.5167,-3.81472 -7.36472,-5.16928c0.15274,-1.36123 6.48156,-1.82933 6.48156,-1.82933c0,0 10.90248,0.98095 15.80935,1.70521c2.74703,0.40547 11.12545,2.27026 11.12545,2.27026c0,0 7.12879,1.86067 7.81039,3.09609c0.74348,1.34757 -3.41342,3.74062 -3.41342,3.74062c0,0 -12.79013,-0.12081 -16.70703,-0.76975c-1.39142,-0.23057 -13.74161,-3.04375 -13.74161,-3.04375z" fill="#6b696a" stroke-width="0"/><path d="M197.54445,233.99277l-1.97519,0.01066c0,0 1.00548,-3.3434 3.57001,-1.8057c2.56451,1.53773 21.533,2.64821 21.533,2.64821z" fill="#4b4949" stroke-width="0"/><path d="M191.30412,234.13168c0,0 -2.00671,-0.03237 -2.13229,-3.71206c-0.06359,-1.86262 -0.2103,-16.16029 -0.2103,-16.16029l4.0359,-2.46444c0,0 0.00925,6.03237 -0.10948,8.93949c-0.15793,3.86645 -0.66647,13.50018 -0.66647,13.50018z" fill="#3f3d3e" stroke-width="0"/><path d="M197.84577,234.19349c0,0 3.41341,-1.7887 19.4072,-0.33347c1.32077,0.1202 -1.78041,-0.23199 7.50415,1.32023c9.28458,1.55218 12.99975,3.49118 12.99975,3.49118c0,0 -14.85299,-2.74257 -21.01714,-3.43417c-7.02638,-0.78833 -18.89401,-1.04379 -18.89401,-1.04379z" fill="#838082" stroke-width="0"/><path d="M206.16887,205.30925c0,0 -4.58724,1.68649 -6.92887,3.04946c-2.63193,1.53194 -8.09372,5.6947 -8.09372,5.6947l-0.60104,-1.67909c0,0 4.1688,-3.41011 6.55145,-4.79699c2.60503,-1.51627 8.47114,-3.94716 8.47114,-3.94716z" fill="#4a494a" stroke-width="0"/><path d="M207.12576,205.15721l-3.72621,1.27304c0,0 0.16787,-0.63167 0.07632,-0.88737c-0.1088,-0.30391 -0.59541,-0.76903 -0.59541,-0.76903l3.32588,-1.43986c0,0 0.69618,0.56783 0.86369,0.9001c0.12841,0.2546 0.0557,0.92327 0.0557,0.92327z" fill="url(#color-3)" stroke-width="0"/><path d="M192.14588,213.38239l-3.23697,2.38373l0.10041,-2.18507l2.29127,-1.77781c0,0 0.70317,0.25008 0.84792,0.52068c0.13645,0.25492 -0.0027,1.05851 -0.0027,1.05851z" fill="url(#color-4)" stroke-width="0"/></g><path d="M324.0784,204.05876c0,0 1.41428,-4.28773 2.06936,-5.61208c0.44472,-0.899 2.96289,-2.05712 2.96289,-2.05712l16.93761,1.68079c0,0 -1.91564,5.61919 -2.44666,6.93449c-0.23266,0.57618 -1.3692,1.14561 -1.3692,1.14561z" fill="#665b60" stroke-width="0"/><path d="M277.80295,180.49567c0,0 -3.59635,-1.97577 -8.36563,-3.67037c-3.03181,-1.07726 -7.21202,-2.1166 -9.07321,-2.21896c-5.41111,-0.29767 -8.48359,4.49454 -8.48359,4.49454c0,0 -2.99467,-2.66628 -4.99386,-3.75068c-1.86619,-1.0122 -6.08051,-2.49227 -6.08051,-2.49227c0,0 24.97399,-2.32118 28.86581,-2.46832c7.46094,-0.28203 33.93216,3.08185 33.93216,3.08185l4.5923,14.89057z" fill="#8b7c84" stroke-width="0"/><g stroke-width="0"><path d="M325.62912,203.2841c0,0 0.75806,-2.52745 1.26564,-3.3709c0.52624,-0.87451 2.81377,-1.67691 2.81377,-1.67691l14.43942,1.62002c0,0 0.27427,1.01989 -0.04186,1.72685c-0.42988,0.96118 -3.49546,3.38187 -3.49546,3.38187z" fill="#585852"/><path d="M325.71219,202.5434c0,0 0.67493,-1.78681 1.18257,-2.63022c0.52624,-0.87451 2.89689,-2.41763 2.89689,-2.41763l14.43942,1.62003c0,0 0.19123,1.76064 -0.12497,2.46757c-0.42988,0.96118 -3.41236,2.64107 -3.41236,2.64107z" fill="#797971"/><path d="M342.42262,199.41141c-1.0225,-0.29379 -12.54236,-1.85936 -12.54236,-1.85936l14.41967,1.61785l-0.2745,2.4465c0,0 -0.58036,-1.91116 -1.60289,-2.20501z" fill="#85857b"/></g><path d="M329.0772,185.38884l0.57865,-5.15736l7.09149,0.79562l0.71071,5.30207z" fill="#7c6e75" stroke-width="0"/><path d="M321.66432,157.96778l-3.24403,-8.54626l1.37073,0.15383l5.11709,9.21086z" fill="#d495b6" stroke-width="0"/><path d="M283.75453,146.03747l13.48111,-1.5965l21.3793,5.0276l3.07575,8.48815z" fill="#df9cbe" stroke-width="0"/><path d="M328.67779,190.40313l0.18084,-1.6117l10.79826,1.21158l0.7862,1.7202z" fill="#7c6e75" stroke-width="0"/><path d="M289.71397,173.80105c0,0 -18.15418,-0.83094 -23.80756,-0.9619c-8.56049,-0.1984 -25.7836,0.20908 -25.7836,0.20908c0,0 15.42513,-2.73785 29.0174,-2.73843c14.73743,-0.00063 58.6748,3.46248 58.6748,3.46248l-0.60313,5.37537z" fill="#75686e" stroke-width="0"/><path d="M281.86084,181.74543l-3.15934,-0.92888c0,0 9.97538,-1.28015 15.19662,0.07327c5.22121,1.35336 13.86993,7.46109 13.86993,7.46109z" fill="#7c6e76" stroke-width="0"/><path d="M236.14376,172.5606c0,0 -30.43882,-18.9082 -30.80964,-23.59895c-0.3368,-4.26092 29.37405,5.65839 29.68202,5.58404c5.38891,-1.30113 77.62809,-0.45622 77.62809,-0.45622l25.68579,9.71385l52.4966,5.31498l5.74908,14.30566c0,0 -61.30559,-5.70216 -84.94185,-8.19002c-8.2048,-0.8636 -24.8599,-3.38406 -40.19555,-3.95722c-11.82941,-0.4421 -29.88672,1.87557 -29.88672,1.87557z" fill="#ee96c3" stroke-width="0"/><path d="M106.41881,170.62778l5.55333,-19.65737c0,0 0.68562,-7.02147 8.1407,-8.49543c9.25941,-1.83065 25.84387,1.82637 27.90162,2.05721c1.57906,0.1772 -13.98853,8.91256 -13.98853,8.91256l-2.24712,20.02831z" fill="#c4b4b3" stroke-width="0"/><g stroke-width="0"><path d="M387.85984,183.83683l-1.15094,-15.36702l91.42415,17.06455l-1.39948,5.68634l-47.6744,-0.46134z" fill="#ad6d8e"/><path d="M415.63939,172.52737l8.14977,-7.41022l26.84515,0.86959l-5.43797,9.85693z" fill="#8d788b"/><path d="M390.19471,170.86871l1.81024,-16.13407l31.85361,10.39452l-5.31602,6.31571z" fill="#857183"/><path d="M432.71922,172.2981l17.85272,-6.31711l27.24736,6.85346l-1.05295,6.8191z" fill="#947e92"/><path d="M386.11948,169.79909l4.29898,-12.36369l1.7794,-2.88336l-1.67957,14.96992z" fill="#756474"/><path d="M389.48955,180.78507l0.6293,-12.07787l43.22759,3.19086l-3.00875,15.82021z" fill="#746373"/><path d="M430.33175,187.7021c0,0 1.08086,-6.22577 1.59552,-9.03003c0.4406,-2.40097 1.30474,-6.77422 1.30474,-6.77422l43.82308,5.83166l1.05098,8.57067z" fill="#867284"/><path d="M386.16757,169.73365l4.17315,-1.07232l-0.82218,12.13472z" fill="#6f5e6d"/><path d="M470.661,171.92296l-19.31958,-5.55235l26.15515,6.59376l-0.75669,3.4828c0,0 -0.13665,-1.59445 -1.25884,-2.42967c-0.75068,-0.5587 -4.82007,-2.09456 -4.82007,-2.09456z" fill="#978195"/><path d="M431.12801,171.4658c0,0 8.3113,-2.55448 11.22314,-3.59039c2.12116,-0.75455 4.64007,-2.05285 4.64007,-2.05285l2.50548,0.39441l-15.73662,5.54413z" fill="#9c859a"/><path d="M416.74674,170.66561c0,0 1.61505,-2.58833 3.1075,-3.77972c1.4924,-1.19131 3.87717,-1.74408 3.87717,-1.74408l-4.53845,5.7982z" fill="#806b7d"/><path d="M452.33381,164.42195l2.75929,-5.45978l14.68897,5.40486l4.85151,6.98448z" fill="#55494f"/><path d="M449.50404,166.92212c0,0 1.16381,-0.66457 1.7859,-1.18321c0.46859,-0.39063 1.30665,-1.68988 1.30665,-1.68988l21.7286,6.46299c0,0 0.80702,0.59064 1.35328,0.97961c0.57093,0.40652 2.00129,1.40928 2.00129,1.40928z" fill="#685960"/><path d="M452.99099,163.59787l2.15945,-4.37183l13.68723,4.88341c0,0 -7.78588,-2.41588 -12.26742,-2.66244c-2.59956,-0.14303 -3.57919,2.15087 -3.57919,2.15087z" fill="#41383c"/></g><path d="M112.42762,131.77533l0.58074,-5.17582c0,0 22.34164,1.20349 44.15651,3.70839c12.99969,1.49269 26.30679,4.59341 33.22393,5.01722c15.59665,0.95549 26.50331,-2.36128 26.50331,-2.36128l-7.48777,9.8698z" fill="#ffa1d1" stroke-width="0"/><path d="M108.3095,145.35843l3.94007,-15.74142c0,0 54.22487,8.15738 72.0099,9.70932c10.53509,0.91933 24.86713,-1.2554 24.86713,-1.2554l-1.63265,14.55107c0,0 -67.08013,-7.52626 -83.25105,-9.3406c-6.64887,-0.746 -18.93098,28.79363 -18.93098,28.79363z" fill="#ee96c3" stroke-width="0"/><path d="M277.87267,241.35518l10.73812,-12.4764c0,0 11.62484,-14.65247 21.73174,-20.4243c2.56834,-1.46673 7.83906,-2.07938 7.83906,-2.07938c0,0 -7.81414,4.13966 -10.70405,6.62436c-6.82461,5.86781 -29.60476,28.35572 -29.60476,28.35572z" fill="#70646b" stroke-width="0"/><path d="M380.5121,187.62366l-4.25421,-18.59206l1.34171,0.1505c0,0 1.28839,5.63065 1.96915,8.60587c0.097,0.42389 1.3173,1.78959 1.43748,2.31465c0.20828,0.91021 -0.66592,1.0572 -0.43317,2.07451c0.64821,2.83281 1.28068,5.59694 1.28068,5.59694z" fill="#795467" stroke-width="0"/><path d="M208.07424,153.12169c0,0 -9.68609,-7.6802 -8.59008,-11.35584c0.65625,-2.20083 18.28042,-8.22541 18.28042,-8.22541l67.88835,9.29952l-1.97165,2.89432l28.88008,8.52161l-74.31141,18.40435c0,0 -0.1605,-5.66699 3.73803,-8.10572c3.78889,-2.37013 19.33366,-6.32659 19.33366,-6.32659c0,0 -33.99855,-3.86383 -41.23439,-4.7629c-2.41404,-0.29994 -12.01308,-0.34337 -12.01308,-0.34337z" fill="#f399c8" stroke-width="0"/><g><path d="M215.76442,135.25225l0.36109,-3.21815l175.45275,19.68549l-0.36109,3.21815z" fill="#584f54" stroke-width="0"/><path d="M385.79037,151.31994l0.30508,-2.71924l3.03622,0.34064l2.37389,3.01985z" fill="#685d63" stroke-width="0"/><g fill="#685d63" stroke-width="0"><g><g><g><path d="M379.14409,150.82494l0.33195,-2.95843l3.85693,0.43271l-0.33195,2.95843z"/><path d="M372.88582,150.12285l0.33195,-2.95843l3.85694,0.43272l-0.33195,2.95843z"/></g><g><path d="M366.8637,149.44714l0.33194,-2.95844l3.85694,0.43272l-0.33195,2.95843z"/><path d="M360.60542,148.74498l0.33195,-2.95843l3.85693,0.43272l-0.33194,2.95844z"/></g></g><g><g><path d="M354.46525,148.0561l0.33194,-2.95844l3.85693,0.43272l-0.33195,2.95843z"/><path d="M348.20695,147.35394l0.33195,-2.95843l3.85693,0.43271l-0.33194,2.95844z"/></g><g><path d="M342.18483,146.67823l0.33195,-2.95843l3.85693,0.43272l-0.33195,2.95843z"/><path d="M335.92665,145.97608l0.33195,-2.95843l3.85691,0.43273l-0.33194,2.95844z"/></g></g></g><g><g><g><path d="M335.69049,145.94958l0.33195,-2.95843l3.85693,0.43272l-0.33195,2.95843z"/><path d="M329.43225,145.24742l0.33195,-2.95843l3.85694,0.43272l-0.33195,2.95843z"/></g><g><path d="M323.41016,144.57175l0.33194,-2.95844l3.85693,0.43272l-0.33195,2.95843z"/><path d="M317.15183,143.86957l0.33195,-2.95843l3.85691,0.43273l-0.33194,2.95844z"/></g></g><g><g><path d="M311.0117,143.18069l0.33194,-2.95844l3.85694,0.43272l-0.33195,2.95843z"/><path d="M304.75343,142.47849l0.33195,-2.95843l3.85694,0.43272l-0.33194,2.95844z"/></g><g><path d="M298.73135,141.80286l0.33195,-2.95843l3.85693,0.43271l-0.33194,2.95844z"/><path d="M292.47305,141.10067l0.33195,-2.95843l3.85694,0.43272l-0.33195,2.95843z"/></g></g></g></g><g><g fill="#685d63" stroke-width="0"><g><g><path d="M286.29273,140.40725l0.33194,-2.95844l3.85694,0.43272l-0.33195,2.95843z"/><path d="M280.03449,139.70507l0.33195,-2.95843l3.85694,0.43272l-0.33194,2.95844z"/></g><g><path d="M274.01235,139.02946l0.33195,-2.95843l3.85694,0.43272l-0.33194,2.95844z"/><path d="M267.75416,138.32726l0.33195,-2.95843l3.85693,0.43271l-0.33194,2.95844z"/></g></g><g><g><path d="M261.61395,137.63831l0.33194,-2.95844l3.85694,0.43272l-0.33195,2.95843z"/><path d="M255.35564,136.93613l0.33195,-2.95843l3.85694,0.43272l-0.33194,2.95844z"/></g><g><path d="M249.33351,136.26054l0.33195,-2.95843l3.85694,0.43272l-0.33194,2.95844z"/><path d="M243.07525,135.55837l0.33195,-2.95843l3.85693,0.43271l-0.33195,2.95843z"/></g></g></g><g><g fill="#685d63" stroke-width="0"><g><path d="M242.83914,135.53186l0.33194,-2.95844l3.85694,0.43272l-0.33195,2.95843z"/><path d="M236.58086,134.82966l0.33195,-2.95843l3.85693,0.43271l-0.33194,2.95844z"/></g><g><path d="M230.55876,134.15399l0.33195,-2.95843l3.85693,0.43271l-0.33194,2.95844z"/><path d="M224.30049,133.45183l0.33195,-2.95843l3.85693,0.43271l-0.33195,2.95843z"/></g></g><g fill="none" stroke-width="1" font-family="sans-serif" font-weight="normal" font-size="12" text-anchor="start"><g/><g/></g></g></g><path d="M216.16889,132.28876l2.98409,-2.41868l3.03622,0.34064l-0.30508,2.71924z" data-paper-data="{&quot;index&quot;:null}" fill="#685d63" stroke-width="0"/></g><path d="M269.05826,171.31561l-2.56604,-0.01618c0,0 1.95472,-2.36433 11.61579,-2.41515c7.32453,-0.03852 27.90583,0.95097 40.22252,1.58244c5.71956,0.29324 62.87274,-2.35272 62.87274,-2.35272l5.16797,0.56546c0,0 -62.51773,3.69716 -68.23052,3.3813c-12.63252,-0.69843 -33.87715,-1.83709 -40.05194,-1.94775c-3.36127,-0.06022 -9.03052,1.20266 -9.03052,1.20266z" fill="#70475c" stroke-width="0"/><path d="M367.21794,201.47597l-5.0989,1.28529l2.11153,-18.81327c0,0 7.73749,0.91685 15.30459,1.81345c21.72291,2.574 126.12467,14.94481 126.12467,14.94481l-0.75006,6.68532z" fill="#5a5959" stroke-width="0"/><path d="M366.12696,202.99222l1.41928,-2.86567l137.38773,7.15758l-13.00242,9.8231z" fill="#4b4a4a" stroke-width="0"/><path d="M488.68736,216.55296c0,0 -5.50988,-3.86319 -8.3642,-5.6205c-1.52969,-0.94176 -7.43054,-4.10371 -7.43054,-4.10371c0,0 7.62781,3.77778 10.84586,5.09274c1.14848,0.46935 2.1823,1.33273 3.41929,2.00297c0.39888,0.21607 2.51855,-2.32256 4.59684,-3.81449c0.62118,-0.44596 1.73353,0.04567 2.29252,-0.22446c1.28146,-0.61932 1.75994,-1.66395 1.75994,-1.66395c0,0 0.23172,0.96142 -1.11498,2.03169c-0.36741,0.29205 -2.19838,0.44113 -2.562,0.76296c-1.45721,1.28985 -2.63106,2.76728 -3.00015,3.32074c-1.03013,1.5446 1.01174,2.37909 1.01174,2.37909z" fill="#414040" stroke-width="0"/><path d="M207.99243,153.41176l5.0289,-10.60421l7.03203,0.16075c0,0 -1.24,2.52571 -1.97078,4.01424c-0.18408,0.3749 11.75462,-0.25402 12.02962,0.45206c0.51021,1.31004 -5.44631,4.42517 -5.90593,5.36135c-0.52546,1.07025 -9.21977,0.49307 -9.21977,0.49307z" fill="#303030" stroke-width="0"/><path d="M207.89105,153.028l4.83194,-9.78593c0,0 2.83604,1.63099 2.7262,2.60979c-0.1998,1.78101 -2.41427,7.35598 -2.41427,7.35598z" fill="#252525" stroke-width="0"/><path d="M361.8049,205.39838l0.32919,-2.93396l5.81857,-2.3181l-1.55959,2.79591c0,0 -1.23247,1.20536 -2.03941,1.63732c-0.71006,0.38013 -2.54874,0.81877 -2.54874,0.81877z" fill="#383838" stroke-width="0"/><g><g fill="#4b4b4b" stroke-width="0"><g data-paper-data="{&quot;origPos&quot;:null}"><g data-paper-data="{&quot;origPos&quot;:null}"><path d="M428.37466,214.24697l0.2534,-2.25857l3.72662,0.41811l-0.2534,2.25857z" data-paper-data="{&quot;origPos&quot;:null}"/><path d="M422.17628,213.43717l0.2534,-2.25857l3.72661,0.41811l-0.25341,2.25857z" data-paper-data="{&quot;origPos&quot;:null}"/></g><g data-paper-data="{&quot;origPos&quot;:null}"><path d="M440.78403,215.75366l0.2534,-2.25857l3.72662,0.41811l-0.25341,2.25857z" data-paper-data="{&quot;origPos&quot;:null}"/><path d="M434.58564,214.94384l0.25341,-2.25857l3.72661,0.41811l-0.2534,2.25857z" data-paper-data="{&quot;origPos&quot;:null}"/></g></g><g data-paper-data="{&quot;origPos&quot;:null,&quot;index&quot;:null}"><g data-paper-data="{&quot;origPos&quot;:null}"><path d="M459.89418,217.66909l0.2534,-2.25857l3.72662,0.41811l-0.25341,2.25857z" data-paper-data="{&quot;origPos&quot;:null}"/><path d="M466.11785,218.25297l0.25339,-2.25856l3.72662,0.41811l-0.25339,2.25855z" data-paper-data="{&quot;origPos&quot;:null}"/></g><g data-paper-data="{&quot;origPos&quot;:null}"><path d="M447.45949,216.38825l0.2534,-2.25857l3.72661,0.41811l-0.25339,2.25856z" data-paper-data="{&quot;origPos&quot;:null}"/><path d="M453.68316,216.97222l0.25341,-2.25857l3.72662,0.41811l-0.25341,2.25857z" data-paper-data="{&quot;origPos&quot;:null}"/></g></g></g><path d="M386.83857,201.28981l1.51761,-13.52628l83.94731,9.4187l-1.51761,13.52628z" data-paper-data="{&quot;origPos&quot;:null}" fill="#444444" stroke-width="0"/><path d="M386.40997,205.99358l0.53325,-4.75262l83.70055,9.39101l-0.53327,4.75263z" data-paper-data="{&quot;origPos&quot;:null}" fill="#414141" stroke-width="0"/><path d="M386.28578,207.41283l0.18037,-1.60757l83.68992,9.38982l-0.18036,1.60756z" data-paper-data="{&quot;origPos&quot;:null}" fill="#3f3f3f" stroke-width="0"/><g stroke-width="0"><g data-paper-data="{&quot;origPos&quot;:null}" fill="#5a5a5a"><g data-paper-data="{&quot;origPos&quot;:null}"><path d="M429.8316,206.19345l1.53309,-13.66426l3.54911,0.39821l-1.53309,13.66426z" data-paper-data="{&quot;origPos&quot;:null}"/></g><g data-paper-data="{&quot;origPos&quot;:null}"><path d="M435.86518,206.87041l1.53309,-13.66426l3.54913,0.39822l-1.53309,13.66426z" data-paper-data="{&quot;origPos&quot;:null}"/><path d="M442.0762,207.56728l1.5331,-13.66428l3.54911,0.39821l-1.53309,13.66426z" data-paper-data="{&quot;origPos&quot;:null}"/></g></g><g data-paper-data="{&quot;origPos&quot;:null}" fill="#5a5a5a"><g data-paper-data="{&quot;origPos&quot;:null}"><path d="M448.64215,208.30397l1.53309,-13.66426l3.54911,0.39821l-1.53309,13.66427z" data-paper-data="{&quot;origPos&quot;:null}"/><path d="M454.85318,209.00084l1.53309,-13.66426l3.54913,0.39822l-1.5331,13.66428z" data-paper-data="{&quot;origPos&quot;:null}"/></g><g data-paper-data="{&quot;origPos&quot;:null}"><path d="M460.88673,209.67777l1.5331,-13.66428l3.54911,0.39821l-1.5331,13.66428z" data-paper-data="{&quot;origPos&quot;:null}"/><path d="M467.09778,210.37464l1.5331,-13.66428l3.54911,0.39821l-1.53309,13.66426z" data-paper-data="{&quot;origPos&quot;:null}"/></g></g><path d="M433.44171,206.59851l-1.08864,1.82095l-5.21348,-0.54158l0.95381,-9.75093l3.21277,-5.60442l-1.4646,13.67198z" fill="#3a3a3a"/><path d="M439.47285,207.27519l-1.08864,1.82096l-5.21349,-0.54158l0.95382,-9.75095l3.21277,-5.6044l-1.46459,13.67197z" fill="#3a3a3a"/><path d="M445.64105,207.96727l-1.08864,1.82096l-5.21349,-0.54157l0.95381,-9.75093l3.21277,-5.6044l-1.4646,13.67198z" fill="#3a3a3a"/><path d="M452.289,208.71314l-1.08864,1.82096l-5.21349,-0.54157l0.95381,-9.75093l3.21277,-5.6044l-1.4646,13.67198z" fill="#3a3a3a"/><path d="M458.52576,209.41291l-1.08864,1.82096l-5.21349,-0.54157l0.95381,-9.75093l3.21277,-5.6044l-1.46459,13.67197z" fill="#3a3a3a"/><path d="M464.48832,210.08185l-1.08864,1.82095l-5.21348,-0.54158l0.95381,-9.75093l3.21277,-5.6044l-1.4646,13.67198z" fill="#3a3a3a"/><path d="M470.73291,210.78247l-1.08864,1.82095l-5.21349,-0.54157l0.95382,-9.75095l3.21277,-5.60442l-1.4646,13.67198z" fill="#3a3a3a"/></g><g stroke-width="0"><g data-paper-data="{&quot;origPos&quot;:null}" fill="#5a5a5a"><g data-paper-data="{&quot;origPos&quot;:null}"><path d="M386.87208,201.37348l1.5331,-13.66428l3.54913,0.39822l-1.53309,13.66426z" data-paper-data="{&quot;origPos&quot;:null}"/></g><g data-paper-data="{&quot;origPos&quot;:null}"><path d="M392.90561,202.05049l1.53309,-13.66426l3.54911,0.39821l-1.53309,13.66426z" data-paper-data="{&quot;origPos&quot;:null}"/><path d="M399.11668,202.74732l1.53309,-13.66426l3.54913,0.39822l-1.5331,13.66428z" data-paper-data="{&quot;origPos&quot;:null}"/></g></g><g data-paper-data="{&quot;origPos&quot;:null}" fill="#5a5a5a"><g data-paper-data="{&quot;origPos&quot;:null}"><path d="M405.68261,203.48396l1.5331,-13.66428l3.54912,0.39822l-1.53309,13.66426z" data-paper-data="{&quot;origPos&quot;:null}"/><path d="M411.8937,204.18085l1.53309,-13.66426l3.54913,0.39822l-1.5331,13.66428z" data-paper-data="{&quot;origPos&quot;:null}"/></g><g data-paper-data="{&quot;origPos&quot;:null}"><path d="M417.9273,204.8578l1.53309,-13.66426l3.54913,0.39822l-1.5331,13.66428z" data-paper-data="{&quot;origPos&quot;:null}"/><path d="M424.13833,205.55471l1.5331,-13.66428l3.54913,0.39822l-1.53309,13.66427z" data-paper-data="{&quot;origPos&quot;:null}"/></g></g><path d="M390.48214,201.77854l-1.08864,1.82096l-2.71756,-0.26157l0.20608,-1.9634z" fill="#3a3a3a"/><path d="M396.51336,202.45524l-1.08864,1.82096l-5.21349,-0.54157l0.95382,-9.75095l3.21277,-5.6044l-1.4646,13.67198z" fill="#3a3a3a"/><path d="M402.68147,203.14725l-1.08864,1.82095l-5.21349,-0.54157l0.95381,-9.75093l3.21277,-5.60442l-1.4646,13.67198z" fill="#3a3a3a"/><path d="M409.32941,203.89311l-1.08864,1.82095l-5.21349,-0.54157l0.95382,-9.75095l3.21277,-5.6044l-1.4646,13.67198z" fill="#3a3a3a"/><path d="M415.56624,204.59292l-1.08864,1.82095l-5.21348,-0.54158l0.95381,-9.75093l3.21277,-5.6044l-1.4646,13.67198z" fill="#3a3a3a"/><path d="M421.52878,205.2619l-1.08864,1.82095l-5.21348,-0.54158l0.95381,-9.75093l3.21277,-5.60442l-1.4646,13.67198z" fill="#3a3a3a"/><path d="M427.77342,205.96258l-1.08864,1.82096l-5.21348,-0.54158l0.95381,-9.75093l3.21277,-5.6044l-1.4646,13.67198z" fill="#3a3a3a"/></g><g><g data-paper-data="{&quot;origPos&quot;:null}"><g data-paper-data="{&quot;origPos&quot;:null}" fill="none" stroke-width="1" font-family="sans-serif" font-weight="normal" font-size="12" text-anchor="start"/><g data-paper-data="{&quot;origPos&quot;:null}" fill="#4b4b4b" stroke-width="0"><path d="M392.34357,210.39613l0.2534,-2.25857l3.72661,0.41811l-0.25339,2.25856z" data-paper-data="{&quot;origPos&quot;:null}"/><path d="M386.14517,209.58637l0.2534,-2.25857l3.72661,0.41811l-0.2534,2.25857z" data-paper-data="{&quot;origPos&quot;:null}"/></g></g><g data-paper-data="{&quot;origPos&quot;:null,&quot;index&quot;:null}" fill="#4b4b4b" stroke-width="0"><g data-paper-data="{&quot;origPos&quot;:null}"><path d="M411.45375,212.3115l0.25341,-2.25857l3.72662,0.41811l-0.25341,2.25857z" data-paper-data="{&quot;origPos&quot;:null}"/><path d="M417.67742,212.89545l0.25339,-2.25855l3.72662,0.41811l-0.25341,2.25857z" data-paper-data="{&quot;origPos&quot;:null}"/></g><g data-paper-data="{&quot;origPos&quot;:null}"><path d="M399.01888,211.03073l0.2534,-2.25857l3.72662,0.41811l-0.25341,2.25857z" data-paper-data="{&quot;origPos&quot;:null}"/><path d="M405.24264,211.61462l0.2534,-2.25857l3.72662,0.41811l-0.2534,2.25857z" data-paper-data="{&quot;origPos&quot;:null}"/></g></g></g></g><path d="M220.77115,153.24155l1.50313,-4.07292c0,0 4.93322,-2.61376 8.45909,-2.36908c4.03075,0.27967 33.80999,3.64597 33.80999,3.64597c0,0 0.44874,1.93785 0.26047,3.14156c-0.24262,1.55085 -2.68719,4.3604 -2.68719,4.3604z" fill="#242424" stroke-width="0"/><path d="M245.92661,152.22999l0.35125,-3.13067l17.88954,2.00713l-0.35125,3.13067z" fill="#313131" stroke-width="0"/><path d="M242.43811,153.78136l0.07271,-0.6482c0,0 1.17838,-0.92554 2.19512,-0.81146c0.96544,0.10835 3.08681,0.82424 5.50523,1.25997c4.60699,0.83004 10.18901,1.55865 10.18901,1.55865l-0.07271,0.6482c0,0 -5.39419,-0.60723 -9.93657,-1.42955c-2.47846,-0.4487 -4.66911,-1.267 -5.6706,-1.37934c-1.0527,-0.11809 -2.28212,0.80169 -2.28212,0.80169z" fill="#616161" stroke-width="0"/><path d="M271.1538,141.19371l12.27664,4.42302l30.06629,8.71479c0,0 0.70359,0.30458 -7.26331,-1.32216c-2.7102,-0.55336 -13.1028,-3.33853 -22.05596,-6.25779c-2.42258,-0.78993 -15.2899,-5.69603 -15.2899,-5.69603z" fill="#df8cb7" stroke-width="0"/><path d="M90.48912,127.29952l0.66153,-5.8961c0,0 5.9296,-1.09865 9.70968,-0.67453c3.09462,0.34719 11.13329,4.7771 11.13329,4.7771l-1.50216,12.17921z" fill="#626061" stroke-width="0"/><path d="M204.71164,150.16347l3.49321,2.91368l12.3183,0.05059l50.42853,5.65801l-0.1216,1.08422c0,0 -37.81262,-4.38865 -49.67112,-5.45529c-3.25572,-0.29284 -12.97501,-0.65797 -12.97501,-0.65797z" fill="#ffa6d4" stroke-width="0"/><path d="M80.49656,190.50984l0.7994,-7.12487l25.13582,-13.91441l-3.12131,13.40447l-14.91467,8.52113z" fill="#3f3d3e" stroke-width="0"/><path d="M79.44083,185.29943c0,0 2.37757,-19.50839 4.24674,-28.94215c2.10965,-10.64743 7.77727,-31.74316 7.77727,-31.74316c0,0 8.58197,0.77235 11.95815,2.80728c2.88959,1.74163 7.06742,8.65997 7.06742,8.65997l-3.74093,33.34234c0,0 -13.31017,12.29069 -16.58797,14.19625c-5.0418,2.93104 -10.72065,1.67949 -10.72065,1.67949z" fill="#555354" stroke-width="0"/><path d="M90.13332,135.12969c0,0 -0.86234,-6.12724 1.49163,-8.57729c2.35399,-2.45005 6.78982,-2.97564 9.33416,-2.69018c2.0297,0.22774 6.22124,0.77721 8.57953,5.52833c2.35837,4.75107 -0.29297,11.16552 -0.29297,11.16552c0,0 -5.10051,-11.04123 -7.59351,-11.74906c-3.51788,-0.99877 -11.51883,6.32271 -11.51883,6.32271z" fill="#6f6b6c" stroke-width="0"/><path d="M77.45364,189.97892c0,0 4.60981,-25.70884 5.88574,-37.08133c1.32882,-11.84348 3.42592,-32.45661 3.42592,-32.45661c0,0 1.22067,-0.51004 2.25502,-0.39396c0.94575,0.1061 2.4312,0.91975 2.4312,0.91975c0,0 -2.34881,19.0119 -3.54118,29.64002c-1.38546,12.34799 -7.04829,39.75445 -7.04829,39.75445z" fill="#333232" stroke-width="0"/><path d="M76.97609,190.37176l2.72731,-14.49454c0,0 0.9495,1.00099 1.54948,1.02943c0.7576,0.03591 2.58447,-1.20572 2.58447,-1.20572l-2.91689,15.11337z" fill="#2e2d2d" stroke-width="0"/><path d="M106.62052,157.21044c-0.91038,8.11369 -5.97529,16.26778 -10.63976,18.69023c-3.87395,2.01197 -12.07935,7.89156 -11.16898,-0.22211c0.19312,-1.72127 3.54899,-13.29865 4.46046,-20.27034c1.20536,-9.2199 0.12527,-14.35325 1.39281,-17.06044c2.29203,-4.89498 7.94579,-5.74942 10.14652,-5.5025c4.33805,0.48673 6.71933,16.25148 5.80896,24.36521z" fill="#585758" stroke-width="0"/><path d="M139.29712,175.04806l-0.39478,-1.79596c0,0 8.0408,-0.45688 14.07522,-0.26701c8.49512,0.26728 32.08768,1.71946 32.08768,1.71946l1.64191,1.47347c0,0 -25.13473,-1.18951 -33.87974,-1.39796c-2.56828,-0.06121 -13.53026,0.26801 -13.53026,0.26801z" fill="#585657" stroke-width="0"/><path d="M131.97171,187.50952l6.68397,-13.02735l7.30312,-0.13724c0,0 -2.20818,4.0928 -2.20665,4.85289c0.00743,3.6318 0.31334,27.78353 0.31334,27.78353c0,0 -1.51735,0.27292 -2.49022,-1.72355c-1.74559,-3.58226 -2.80452,-10.60612 -4.31123,-12.89103c-1.3018,-1.97414 -5.29239,-4.85722 -5.29239,-4.85722z" fill="#5a5759" stroke-width="0"/><path d="M147.8576,158.29455l4.13455,-10.9405l2.33115,0.14971l-5.2635,11.03754z" fill="#a5a0a2" stroke-width="0"/><path d="M154.72576,157.97486l0.15642,-1.39397l26.33103,2.95426l-0.15641,1.39397z" fill="#494748" stroke-width="0"/><path d="M154.97697,155.0131l0.15642,-1.39397l26.33103,2.95426l-0.15642,1.39397z" fill="#494748" stroke-width="0"/><path d="M133.16629,175.11428l2.24538,-20.01276l13.2432,-8.19077l4.84914,0.23038l-20.94792,40.73184l-5.35288,-2.61653z" fill="#dbd5d8" stroke-width="0"/><path d="M105.5045,183.99989l1.15774,-11.73493l26.57635,2.18737c0,0 0.04525,2.55874 -0.17314,3.33777c-0.54437,1.94189 -3.31273,8.61262 -3.31273,8.61262z" fill="#ccc6c9" stroke-width="0"/><path d="M110.54074,173.10308l0.03521,-0.31384l22.77154,1.68103l-2.72124,0.88642c0,0 -4.31544,-0.29683 -7.00372,-0.63039c-3.68098,-0.45676 -13.08186,-1.62318 -13.08186,-1.62318z" fill="#d8d1d5" stroke-width="0"/><path d="M114.45094,169.78152l1.89548,-16.89396l16.02447,1.79791l-1.89548,16.89396z" fill="#a39999" stroke-width="0"/><path d="M105.21076,184.13778l1.26655,-11.2885c0,0 8.06969,7.33215 12.06865,10.13607c3.99896,2.804 10.49087,3.2506 10.49087,3.2506z" fill="#b4afb1" stroke-width="0"/><path d="M137.97045,193.89391c0,0 2.89454,1.37179 3.99986,1.35118c0.679,-0.01269 2.00126,-1.46322 2.00126,-1.46322l0.63651,9.20155l-0.46773,4.16898c0,0 -1.96564,0.09285 -2.94881,-2.61628c-0.81117,-2.23519 -3.22117,-10.64215 -3.22117,-10.64215z" fill="#504e4f" stroke-width="0"/><path d="M132.21226,188.09632l19.02571,-39.87083l1.70987,0.39828l-18.96955,40.29001z" fill="#858183" stroke-width="0"/><path d="M120.0252,145.71722l1.68931,-1.47135c0,0 27.31647,2.41689 39.64939,3.80065c10.70414,1.20101 31.70641,3.9126 31.70641,3.9126l0.30974,1.98832c0,0 -21.08582,-3.07623 -32.36858,-4.34207c-12.88357,-1.44547 -40.98622,-3.88815 -40.98622,-3.88815z" fill="#918b8e" stroke-width="0"/><path d="M121.17437,144.6077l2.22771,-1.70363c0,0 25.76627,2.53572 38.09917,3.91942c10.70415,1.20103 31.70641,3.9126 31.70641,3.9126l0.30974,1.98833c0,0 -21.08581,-3.07622 -32.36858,-4.34208c-12.88357,-1.44547 -39.97441,-3.7747 -39.97441,-3.7747z" fill="#a59fa2" stroke-width="0"/><path d="M183.06254,172.46789l-1.27992,-5.86189c0,0 0.3447,-1.1739 0.6881,-1.2489c0.30259,-0.06611 1.26577,0.82225 1.26577,0.82225l1.27991,5.8619c0,0 -0.37228,0.84133 -0.67559,0.90759c-0.34312,0.0749 -1.27837,-0.48095 -1.27837,-0.48095z" fill="#494242" stroke-width="0"/><path d="M142.74378,170.60946l4.57838,-9.03153l3.86147,0.43327l-4.57838,9.03153z" fill="#9c989a" stroke-width="0"/><path d="M154.23338,154.01091l1.94709,-0.75557l24.28443,2.74282l1.89955,1.16898z" fill="#757274" stroke-width="0"/><path d="M154.01366,156.81515l1.94707,-0.75559l24.28443,2.74284l1.89956,1.16897z" fill="#757274" stroke-width="0"/><path d="M102.91479,182.891l8.18078,-57.60476l1.84358,0.79119l-7.68344,58.06424z" fill="#686666" stroke-width="0"/><path d="M102.7223,183.1414l2.463,-16.0814l1.85106,4.05009l-1.91767,13.17842z" fill="#535252" stroke-width="0"/><path d="M135.82697,163.83749c0,0 2.37232,-2.09398 2.47789,-3.0349c0.10359,-0.92331 -1.85032,-2.55873 -1.85032,-2.55873c0,0 2.90868,1.00023 2.61685,2.66642c-0.22229,1.26912 -1.51034,3.32734 -1.7201,4.41309c-0.59644,3.08718 -2.09994,10.31199 -2.09994,10.31199z" fill="#c4bec1" stroke-width="0"/><path d="M143.66823,162.79361l3.03645,-9.91872l3.01844,-4.0429l-3.70423,9.20257z" fill="#aca7a9" stroke-width="0"/></g></g><g stroke-width="0"><path d="M264.09395,148.30002l2.91021,-3.02359c0,0 1.9563,-1.22582 2.74547,-0.86058c0.89977,0.41646 2.36489,3.22587 2.36489,3.22587l-0.99372,3.99608c0,0 -4.2537,-0.48488 -5.49721,-0.7585c-0.5606,-0.12339 -1.52964,-2.57931 -1.52964,-2.57931z" fill="#c0c0c0"/><path d="M220.3666,153.10561c0,0 0.14577,-2.88169 1.32526,-3.89537c1.47819,-1.27035 7.76682,-2.79085 7.76682,-2.79085l-1.23432,4.62829l-0.32572,2.90302z" fill="#838383"/><path d="M220.20376,153.01249l8.88835,-6.531l37.32813,4.18812l-0.83418,7.43464z" fill="#999999"/><path d="M221.26972,152.47151l6.77258,-5.11792l33.56169,3.76557l-0.65122,5.80469c0,0 -4.06211,-0.45572 -9.28753,-1.04198c-3.39736,-0.38121 -7.16807,-1.87291 -10.75221,-2.27505c-3.84494,-0.43139 -7.45739,0.23196 -9.61704,-0.01034c-4.22661,-0.47422 -10.02631,-1.12495 -10.02631,-1.12495z" fill="#d952b3"/><path d="M224.74043,152.85872l8.97488,-4.93332l12.38639,1.38971c0,0 -7.54278,1.07304 -9.99999,1.71765c-2.60871,0.68427 -6.03618,2.42345 -6.03618,2.42345z" fill="#a5899d"/><path d="M232.69233,153.63745c0,0 5.16183,-0.39906 7.6036,-0.1251c3.12,0.35005 9.5854,2.05371 9.5854,2.05371l-9.55648,-1.40949z" fill="#adadad"/><path d="M220.30973,153.00606l8.02685,-5.89342l34.74866,3.89873l-0.07675,0.68432c0,0 -30.08804,-3.37582 -34.01,-3.81589c-0.82033,-0.09202 -8.68862,5.12627 -8.68862,5.12627z" fill="#8a8a8a"/><path d="M266.48764,164.46209l1.08776,-9.69446l1.4497,-7.08444c0,0 1.1274,0.59934 1.61499,1.22109c0.48763,0.62173 0.7429,1.78531 0.7429,1.78531l-2.89489,13.99703z" fill="#9e9e9e"/><path d="M261.54175,159.64986c0,0 -0.66916,-2.21332 -0.62783,-3.80778c0.05565,-2.14712 1.52113,-7.53548 1.52113,-7.53548l1.9656,-0.10687c0,0 0.66584,0.87146 1.15738,0.77652c0.67765,-0.13089 2.53268,-1.48924 2.53268,-1.48924l-1.92862,12.68133z" fill="#9c9c9c"/><path d="M261.908,161.5331c-0.65434,-1.18477 -0.26233,-2.52254 -0.26233,-2.52254l5.6501,-6.61163c0,0 0.95193,4.01492 0.84975,4.92566c-0.29053,2.5893 0.18014,7.42158 0.18014,7.42158c0,0 -2.97083,-0.24907 -3.95431,-0.80077c-1.17955,-0.66174 -1.80884,-1.22756 -2.46326,-2.41238z" fill="#888888"/><path d="M263.76394,160.96226c-0.75913,-2.09744 -1.26571,-6.64535 1.02017,-10.4812c2.2859,-3.83587 4.44754,-1.44875 4.44754,-1.44875c0,0 0.50707,4.50765 0.24919,6.80609c-0.23489,2.09372 -1.73398,6.42774 -1.73398,6.42774c0,0 -3.22377,0.79358 -3.98287,-1.30387z" fill="#b4b4b4"/><path d="M268.75778,153.77897c-0.15733,1.40227 -5.24402,0.9094 -5.08675,-0.49281c0.15733,-1.40227 3.79934,-6.42974 4.60667,-6.33913c0.31268,0.03508 0.94116,0.20806 1.01816,1.2841c0.12178,1.70223 -0.44176,4.68869 -0.53815,5.54786z" fill="#bbbbbb"/></g><g stroke-width="0"><path d="M204.61759,150.13764c0,0 -5.27174,-5.53966 -5.06289,-7.40141c0.17057,-1.52011 6.18284,-0.96945 6.18284,-0.96945l7.49017,0.91268l-5.20087,10.26307z" fill="#f399c8"/><path d="M174.09875,148.36548c0,0 -0.73013,-2.1929 -0.35486,-3.23028c0.41412,-1.14478 2.86353,-4.4975 2.86353,-4.4975l22.91521,2.38426l8.10781,9.58695z" fill="#ee96c3"/></g></g><g stroke-width="0"><g><path d="M271.19102,139.40996l0.68922,-6.14321l47.52003,5.33164l-0.68922,6.14321z" fill="#61585b"/><path d="M271.39044,136.16847l0.36913,-3.28972l47.70069,5.35191l-0.36911,3.28973c0,0 -8.58702,-0.96347 -17.408,-1.95315c-2.75794,-0.30941 -6.80454,0.76328 -9.35293,0.47732c-3.03038,-0.34003 -6.11124,-2.21241 -8.05505,-2.43054c-5.82873,-0.65399 -12.88467,-1.44569 -12.88467,-1.44569z" fill="#494344"/><path d="M333.56869,136.4981l-7.16416,-19.85557l20.7888,2.33246l13.46203,18.38999c0,0 -5.82634,0.71622 -9.06703,0.61252c-5.00067,-0.16006 -18.01966,-1.47939 -18.01966,-1.47939z" fill="#5e555b"/><path d="M333.18783,139.91201l0.61755,-5.50396c0,0 12.38379,-0.07282 17.3324,-0.30211c3.92729,-0.18198 6.78038,-0.44754 6.78038,-0.44754l5.12869,7.55771c0,0 -5.47709,0.99162 -9.64862,0.9703c-5.65218,-0.02891 -20.2103,-2.27441 -20.2103,-2.27441z" fill="url(#color-5)"/><path d="M324.70255,116.61139l0.44554,-3.97124l19.03209,2.13539l3.16816,4.3767z" fill="url(#color-6)"/><path d="M332.60486,139.8717l0.14045,-1.25141c0,0 15.5209,1.66451 20.89249,2.09862c4.0166,0.32459 8.58536,-0.74957 8.58536,-0.74957l0.75573,1.23673l-8.4007,1.13091z" fill="#312c30"/><g><path d="M233.39716,118.07364l0.76267,-8.82837l93.33965,10.47252l6.335,12.06338z" fill="#8a6672"/><path d="M248.90947,128.15176c0,0 -3.09552,-3.97577 -5.71978,-5.7409c-2.62424,-1.76521 -9.66792,-2.31656 -9.66792,-2.31656l0.34418,-2.06156c0,0 12.21564,1.64869 19.19049,2.52711c16.66205,2.09831 80.34953,10.00833 80.34953,10.00833l2.86839,6.93z" fill="#755761"/><path d="M251.46242,130.94471l-2.71759,-2.91294l87.09478,9.27941l0.85442,3.19631z" fill="#694e57"/><path d="M233.9519,109.62055l0.50497,-4.50075l90.31571,9.44963l3.19445,6.05515c0,0 2.36582,3.62444 -2.88469,3.00988c-1.65289,-0.19347 -10.34128,-4.5579 -11.99832,-4.75184c-15.958,-1.86778 -79.13215,-9.2621 -79.13215,-9.2621z" fill="#916b77"/><path d="M234.69725,105.14688l0.16337,-2.52199l89.36365,9.88683l0.77192,2.4939z" fill="#9e7582"/><path d="M308.28459,114.09145c-7.94528,-1.54342 -72.0908,-9.77923 -72.0908,-9.77923l87.30622,9.79554l3.94117,7.93007c0,0 -11.21133,-6.40296 -19.15663,-7.94642z" fill="#b38f9a"/></g><path d="M282.14208,134.38406l1.02288,-9.11659l20.08619,2.25363l-1.02289,9.1166z" fill="#3a3336"/><path d="M283.07721,125.26182l0.88175,-1.43316l18.42284,2.06697l0.80926,1.6228z" fill="#4b4246"/><path d="M282.33704,133.90346l0.9118,-8.12664c0,0 0.46538,5.35111 2.98338,6.74682c2.51803,1.39574 15.62969,3.5704 15.62969,3.5704z" fill="#332c30"/><path d="M325.70258,118.96135l-3.22653,-6.39966c0,0 1.09089,-0.54848 1.68774,-0.48149c0.66726,0.07489 2.12826,0.90961 2.12826,0.90961l3.22653,6.39966z" fill="#757575"/><path d="M328.17625,124.00317l-4.63889,-9.18678l3.81606,0.42815l4.63888,9.18678z" fill="#5a5a5a"/><path d="M331.67565,130.88526l-4.63888,-9.18678l3.81606,0.42816l4.63889,9.18678z" fill="#505050"/><path d="M335.29254,138.0127c-0.79231,-1.56908 -3.88378,-7.69142 -3.88378,-7.69142l3.81606,0.42817l5.42125,10.99956c0,0 -2.10268,0.30293 -3.04458,0.18236c-0.73475,-0.09407 -1.95952,-3.22686 -2.30887,-3.9187z" fill="#3b3b3b"/><path d="M231.57495,120.48362l2.08225,-18.5583l3.16118,0.3547l-2.08225,18.5583z" fill="#443e42"/><path d="M212.63824,119.96799l-0.02052,-5.96751l20.10244,2.25544l-0.66096,5.89105z" fill="url(#color-7)"/><path d="M212.54744,114.62716l1.20942,-10.77936l20.10244,2.25544l-1.20943,10.77937z" fill="#5e555b"/><path d="M213.74279,103.97332l1.25907,-4.04706l19.30739,2.16622l-0.46409,4.13623z" fill="url(#color-8)"/><path d="M284.04712,107.87146l0.68384,-6.09504l14.80965,2.73493l4.06812,5.19711z" fill="#5e555b"/><path d="M303.56905,110.0618l-4.03842,-5.46211c0,0 2.92035,1.02258 5.02344,2.2631c2.10304,1.24051 5.4634,3.92249 5.4634,3.92249z" fill="#776b73"/><path d="M280.91483,108.6828l3.31883,-0.87988l25.47015,2.58935l3.45321,1.90806z" fill="#6d6269"/></g><g><path d="M284.02227,130.60002c0.13923,-1.24106 0.77533,-2.33365 1.27634,-3.31346c0.69808,-1.36538 1.42931,-2.47859 2.8093,-3.17519c0.84293,-0.42556 2.01656,-0.68566 3.02612,-0.8143c0.66775,-0.08505 1.70527,-0.37128 2.40393,-0.29283c1.58376,0.17767 1.91481,0.29711 3.00207,0.91823c0.65497,0.37418 2.23412,1.00324 2.69079,1.73086c0.38655,0.6158 0.75356,1.61151 1.01741,2.32493c0.45079,1.21933 1.04034,3.1617 0.88551,4.54167c-0.06542,0.58317 -0.70356,1.85842 -0.81041,2.36515c-0.33912,1.60871 -0.3967,2.11501 -1.72567,3.0763c-0.80775,0.58426 -2.36666,0.96066 -3.39002,1.25835c-1.05983,0.30837 -2.42426,1.02676 -3.58961,0.89601c-0.78661,-0.08828 -2.14613,-0.77911 -2.89289,-0.99999c-1.62029,-0.47913 -2.4873,-0.75192 -3.38326,-1.9998c-0.7683,-1.07007 -0.84913,-2.68748 -1.05969,-4.07725c-0.1106,-0.7301 -0.34617,-1.66992 -0.25996,-2.43873z" fill="#3a3a3a"/><path d="M284.76195,130.56361c0.12746,-1.13571 0.70956,-2.1355 1.16799,-3.03208c0.6388,-1.24941 1.30787,-2.2681 2.57076,-2.90563c0.77137,-0.38942 1.84543,-0.6275 2.76922,-0.74514c0.61107,-0.07783 1.56051,-0.33969 2.19977,-0.26797c1.44934,0.1626 1.75228,0.27186 2.74721,0.84021c0.59932,0.34239 2.04439,0.91809 2.46236,1.58385c0.3537,0.56354 0.68967,1.4747 0.93099,2.12757c0.41253,1.11581 0.95199,2.89326 0.81034,4.15602c-0.05992,0.53368 -0.64383,1.70065 -0.74157,2.1643c-0.31036,1.47207 -0.363,1.93544 -1.57911,2.81509c-0.73911,0.53468 -2.16572,0.879 -3.10218,1.15149c-0.96983,0.28219 -2.21843,0.93957 -3.28485,0.81995c-0.71979,-0.08074 -1.96386,-0.71296 -2.64732,-0.91503c-1.48271,-0.43847 -2.27613,-0.68808 -3.09604,-1.82999c-0.70308,-0.97921 -0.77699,-2.45933 -0.96971,-3.73107c-0.10121,-0.66814 -0.31678,-1.52811 -0.23784,-2.23163z" fill="#5a5a5a"/><path d="M297.3829,127.42189c-1.76619,-2.59888 -6.80556,-3.36615 -6.80556,-3.36615c0,0 1.99036,-0.32008 3.96737,-0.09131c1.60143,0.18533 3.12337,0.72283 4.13062,2.14499c1.00806,1.42336 1.23394,2.94271 1.36341,4.36144c0.25379,2.78163 -0.44814,5.11071 -0.44814,5.11071c0,0 -0.44151,-5.56076 -2.2077,-8.15964z" fill="#6d6d6d"/><path d="M291.52965,131.81551c0.06416,-0.57217 0.57996,-0.98389 1.15211,-0.91967c0.57217,0.06416 0.98389,0.57996 0.91967,1.15212c-0.06416,0.57217 -0.57996,0.98389 -1.15212,0.91967c-0.57217,-0.06416 -0.98389,-0.57996 -0.91967,-1.15212z" fill="#272727"/><path d="M291.43583,131.94266c0.05889,-0.52476 0.53199,-0.9024 1.05671,-0.84355c0.52476,0.05889 0.9024,0.53199 0.84355,1.05671c-0.05889,0.52476 -0.53199,0.9024 -1.0567,0.84357c-0.52476,-0.05889 -0.9024,-0.53199 -0.84357,-1.0567z" fill="#131313"/></g></g></g></g></g><path d="M190.87019,231.23692c0.17665,-1.57479 0.69747,-44.40977 1.37654,-46.01928c0.91683,-2.17311 9.1945,0.11475 12.30827,-1.05315c9.53649,-3.57688 19.79975,-7.04129 19.79975,-7.04129c0,0 13.9159,2.14542 18.12597,2.61782c3.14841,0.35328 65.03151,-1.24716 64.61746,9.09267c-0.56163,14.02475 -42.51135,-2.47382 -43.86396,9.58116c-0.34244,3.05178 2.03048,3.51471 1.11741,6.57926c-0.21918,0.73548 -3.13366,5.61989 -3.54347,7.26044c-0.65059,2.60425 2.17777,6.94925 -1.45729,9.66006c-2.89765,2.16094 -1.53717,7.36193 -2.30743,8.49876c-5.30841,7.83392 -13.16116,3.12456 -22.11781,2.11964c-10.61948,-1.19148 -26.48769,0.77485 -35.67483,-1.50102c-3.9657,-0.98242 -8.89488,4.78884 -8.38055,0.20485z" fill="#86c8f5" stroke-width="0"/></g></g></svg>