<svg version="1.1" xmlns="http://www.w3.org/2000/svg" xmlns:xlink="http://www.w3.org/1999/xlink" width="457.3149" height="172.79096" viewBox="0,0,457.3149,172.79096"><defs><linearGradient x1="488.43528" y1="189.34461" x2="489.72074" y2="193.98126" gradientUnits="userSpaceOnUse" id="color-1"><stop offset="0" stop-color="#1f1d20"/><stop offset="1" stop-color="#202022"/></linearGradient><linearGradient x1="487.56177" y1="184.54852" x2="489.04082" y2="189.88352" gradientUnits="userSpaceOnUse" id="color-2"><stop offset="0" stop-color="#302d31"/><stop offset="1" stop-color="#1f1e20"/></linearGradient><linearGradient x1="177.78738" y1="320.31001" x2="178.69299" y2="323.57681" gradientUnits="userSpaceOnUse" id="color-3"><stop offset="0" stop-color="#585758"/><stop offset="1" stop-color="#575758"/></linearGradient><linearGradient x1="167.84327" y1="333.5254" x2="168.55426" y2="336.09004" gradientUnits="userSpaceOnUse" id="color-4"><stop offset="0" stop-color="#363536"/><stop offset="1" stop-color="#353536"/></linearGradient><linearGradient x1="281.20682" y1="205.79605" x2="282.68643" y2="211.13322" gradientUnits="userSpaceOnUse" id="color-5"><stop offset="0" stop-color="#5e555b"/><stop offset="1" stop-color="#2b2629"/></linearGradient><linearGradient x1="266.28263" y1="188.48699" x2="267.3502" y2="192.3379" gradientUnits="userSpaceOnUse" id="color-6"><stop offset="0" stop-color="#72676e"/><stop offset="1" stop-color="#5e555b"/></linearGradient><linearGradient x1="161.14449" y1="232.05731" x2="162.72819" y2="237.76991" gradientUnits="userSpaceOnUse" id="color-7"><stop offset="0" stop-color="#5e555b"/><stop offset="1" stop-color="#4d454a"/></linearGradient><linearGradient x1="157.337" y1="218.32301" x2="158.44895" y2="222.334" gradientUnits="userSpaceOnUse" id="color-8"><stop offset="0" stop-color="#74686f"/><stop offset="1" stop-color="#5e555b"/></linearGradient></defs><g transform="translate(-37.02652,-183.60431)"><g data-paper-data="{&quot;isPaintingLayer&quot;:true}" fill-rule="nonzero" stroke="none" stroke-linecap="butt" stroke-linejoin="miter" stroke-miterlimit="10" stroke-dasharray="" stroke-dashoffset="0" style="mix-blend-mode: normal"><g><g stroke-width="0"><path d="M232.93884,289.46349l-13.95792,-12.05452l24.48823,-7.40129c0,0 0.49867,5.91041 1.02693,8.56428c0.51104,2.56715 2.09275,7.10733 2.09275,7.10733z" fill="#7f7d7e"/><path d="M233.08623,289.62677l-5.00525,-4.4308c0,0 3.22262,2.79577 6.50533,2.52362c2.36386,-0.19602 4.09868,-0.99858 6.76838,-1.4058c2.66968,-0.40721 5.19197,-0.41859 5.19197,-0.41859z" fill="#6c6a6b"/></g><g><g><g><path d="M486.83829,194.78038l-3.26957,-4.08663c0,0 6.21665,-0.00304 8.95811,0.16346c2.74154,0.16651 1.56248,1.67235 1.56248,1.67235z" fill="url(#color-1)" stroke-width="0"/><path d="M491.06941,183.7833c0,0 2.04772,1.84791 -0.21669,3.40222c-2.26438,1.55432 -4.7352,3.50842 -4.7352,3.50842l-2.41439,-5.07571z" data-paper-data="{&quot;index&quot;:null}" fill="url(#color-2)" stroke-width="0"/><path d="M477.5688,197.34537l-0.56058,-2.0221l14.23563,-3.94651c0,0 1.42411,0.42947 1.99199,0.6521c0.51053,0.20014 -0.45794,1.1001 -0.45794,1.1001z" fill="#444444" stroke-width="NaN"/><path d="M477.07899,195.45249l-1.61592,-1.37205l12.15717,-3.3703l3.70935,0.67568c0,0 -4.00099,1.35613 -6.2174,1.98866c-2.49966,0.7133 -8.03319,2.078 -8.03319,2.078z" fill="#535353" stroke-width="0"/><path d="M475.39147,194.24214l-0.48394,-0.52996l11.05674,-3.06529l1.76467,0.05634z" fill="#363636" stroke-width="0"/><path d="M477.5688,197.34537l-0.30411,-1.097c0,0 6.34023,-1.287 9.11535,-2.05633c2.35168,-0.65195 6.47632,-2.26611 6.47632,-2.26611c0,0 0.95623,0.21455 1.24876,0.344c0.2468,0.1092 -0.11317,0.52248 -0.11317,0.52248c0,0 -4.45273,1.65414 -6.68232,2.27226c-3.00811,0.83394 -9.74075,2.28065 -9.74075,2.28065z" fill="#3a3a3a" stroke-width="NaN"/><path d="M475.22175,193.64403l-0.7695,-0.70374l13.14582,-3.64437l-1.51024,1.37092z" fill="#242424" stroke-width="0"/><path d="M473.7241,193.33852l-0.44196,-1.5942c0,0 7.74411,-2.36086 10.63097,-3.16118c1.96688,-0.54524 5.01545,-1.17643 5.01545,-1.17643l-1.34987,1.91973z" fill="#3a3a3a" stroke-width="0"/><path d="M473.16865,191.81993l-0.5457,-1.96833c0,0 7.28701,-2.36249 10.48082,-3.2479c2.7638,-0.76618 7.57914,-1.75879 7.57914,-1.75879l-1.78461,2.61435c0,0 -3.54413,0.89693 -5.70697,1.49654c-2.87494,0.79703 -10.02267,2.86414 -10.02267,2.86414z" fill="#444444" stroke-width="0"/><path d="M472.60413,189.94516l-0.22737,-0.82015c0,0 7.55457,-2.22271 11.02108,-3.18372c2.41373,-0.66917 7.7879,-2.03066 7.7879,-2.03066l-0.60626,1.05121c0,0 -4.94742,1.072 -7.80485,1.86418c-3.14818,0.87277 -10.17047,3.11912 -10.17047,3.11912z" fill="#535353" stroke-width="0"/><path d="M472.27467,189.24166l-0.09089,-0.32804c0,0 7.26186,-2.53935 10.59644,-3.46381c2.88301,-0.79925 8.25411,-1.76214 8.25411,-1.76214l0.12719,0.31803c0,0 -5.83455,1.44635 -8.96164,2.31324c-3.16796,0.87824 -9.92511,2.9227 -9.92511,2.9227z" fill="#4e4e4e" stroke-width="0"/></g><g stroke-width="0"><g><g><g><path d="M471.79739,198.43894l-7.93195,-11.46118l0.07305,-1.80653c0,0 4.2112,2.18352 5.7654,4.33695c0.84376,1.1691 3.49527,8.54205 3.49527,8.54205z" fill="#383638"/><path d="M472.62566,197.49182c0,0 -0.10661,-0.60312 -1.36822,-2.80086c-1.37578,-2.39668 -3.68936,-5.52956 -4.35506,-6.45947c-1.49447,-2.08734 -2.25678,-2.01139 -2.25678,-2.01139l4.47012,-1.84297l8.41589,11.75464z" fill="#555355"/><path d="M464.73002,186.28528l-0.89098,-1.03601c0,0 1.73303,-1.31065 2.65969,-1.56752c0.86834,-0.24076 2.15667,0.15681 2.15667,0.15681l0.9104,1.10608z" fill="#686668"/></g><path d="M466.33086,199.95443l-7.93195,-11.46117l-0.24036,-1.69871c0,0 4.52463,2.07575 6.07874,4.22915c0.84376,1.16909 3.49528,8.54205 3.49528,8.54205z" fill="#383638"/><path d="M467.15911,199.00733c0,0 -0.10661,-0.60313 -1.36821,-2.80086c-1.37578,-2.39668 -3.68936,-5.52956 -4.35506,-6.45947c-1.49447,-2.08734 -2.25678,-2.01139 -2.25678,-2.01139l3.61379,-2.12447c0,0 1.32391,0.9345 1.77942,1.57071c1.2978,1.81267 7.4928,10.46541 7.4928,10.46541z" fill="#555355"/><path d="M459.26346,187.80073l-1.10125,-0.97774c0,0 1.9433,-1.36892 2.87001,-1.62582c0.86834,-0.24076 1.87632,0.23454 1.87632,0.23454l1.03088,1.07272z" fill="#686668"/><path d="M473.14877,196.31557c-0.21897,-0.78969 0.24381,-1.60741 1.03351,-1.82637c0.7897,-0.21897 1.60741,0.24381 1.82637,1.03351c0.21897,0.78969 -0.24381,1.60741 -1.0335,1.82637c-0.7897,0.21897 -1.60741,-0.24381 -1.82637,-1.03351z" fill="#312f31"/><path d="M472.99797,193.31761l-3.40851,-4.81078l1.49525,-0.56327l3.42575,4.87297z" fill="#444144"/></g><path d="M427.10107,205.67627l-6.51938,-9.42442l29.11054,-6.84941l2.12378,9.42216z" fill="#444444"/><path d="M438.23648,198.52603c0,0 0.47342,-0.67288 0.87427,-1.93056c0.36656,-1.14993 0.65102,-2.86622 0.89779,-3.41586c0.4839,-1.90498 2.90077,-2.09056 2.90077,-2.09056l-0.7695,0.891l-2.80196,6.24069z" fill="#292929"/><path d="M443.74706,207.92491l-9.20855,-8.83234c0,0 3.51349,-0.42274 4.87495,-1.8888c1.05794,-1.13927 0.26408,-3.65044 1.70904,-4.34256c4.14577,-1.98562 16.43644,-5.84317 16.43644,-5.84317c0,0 5.03115,6.01968 6.696,8.55409c1.14932,1.74968 2.72989,5.91067 2.72989,5.91067z" fill="#4a464a"/><path d="M444.23186,194.18759c-4.56494,0.60552 -3.54089,-1.09378 -3.54089,-1.09378c0,0 0.41604,-1.46667 2.17643,-2.10637c4.32001,-1.5698 12.80302,-3.3229 14.45585,-3.80772c0.77946,-0.22867 0.51986,0.57792 0.51986,0.57792c0,0 -0.79786,2.69714 -2.22424,3.35618c-1.42644,0.65906 -6.82203,2.46828 -11.387,3.0738z" fill="#5e595e"/></g><g><path d="M434.12874,217.41467l-9.7652,-15.90475l18.29701,-4.77533l5.78137,2.88885l5.8512,-1.72438l6.44492,12.13879z" fill="#4d4846"/><path d="M438.75224,216.53469l17.39649,-14.56852l21.44562,-6.19691c0,0 2.38176,3.68032 2.88144,4.94748c0.25471,0.64608 0.63716,2.87848 0.63716,2.87848z" fill="#423d3b"/><path d="M432.85678,209.54456l-5.69434,-8.63888l0.7907,-0.21918l5.69435,8.63888z" fill="#363332"/><path d="M439.10237,215.60575l-0.32523,-1.17313c0,0 4.39316,-3.85931 13.12852,-6.28106c1.16066,-0.32178 5.93456,0.99621 7.10441,0.67192c7.42216,-2.05765 14.68701,-4.07167 17.45091,-4.83788c2.25089,-0.624 4.20208,-2.51399 4.20208,-2.51399l0.67253,2.42593z" fill="#312e2c"/><path d="M437.98256,202.69544l-2.91321,-3.98183l8.00573,-2.21943l5.18515,3.15061l6.12917,-1.49779l-6.79323,3.90553z" fill="#585350"/><path d="M430.71708,212.00029l-0.30141,-1.0872c0,0 6.75332,-5.75697 9.52595,-6.52568c4.17875,-1.15849 15.71495,-4.35662 15.71495,-4.35662l0.30141,1.0872c0,0 -11.73398,3.25299 -15.91266,4.41145c-2.71571,0.75285 -9.3283,6.47086 -9.3283,6.47086z" fill="#2b2827"/></g></g></g><g><g><g><path d="M119.64228,342.50175c1.11794,2.00833 1.51159,4.58641 0.53076,5.13236c-0.98075,0.54597 -2.96464,-1.14687 -4.0826,-3.15525c-1.11794,-2.00833 -5.46422,-9.69703 -4.48342,-10.24307c0.98075,-0.54597 6.91728,6.25756 8.03526,8.26588z" fill="#615e5f" stroke-width="0"/><g><path d="M151.72752,302.54906c-0.66068,-0.36436 -3.26688,-1.00372 -3.26688,-1.00372l8.79009,-5.42546l-3.85845,8.54125c0,0 -1.00408,-1.74766 -1.66475,-2.11202z" fill="#756a6a" stroke-width="0"/><path d="M142.5756,303.325l-3.66891,-13.23421l16.29242,-10.60465l5.23619,18.88762z" fill="#8a7c7c" stroke-width="0"/><path d="M105.4501,319.26974l1.57997,-19.25527l33.62804,-9.46097l7.75249,10.99517c0,0 -21.73329,7.66055 -28.89977,10.61678c-2.97488,1.22712 -14.06077,7.10438 -14.06077,7.10438z" fill="#7c787a" stroke-width="0"/><path d="M107.78657,302.3003l-0.53854,-1.38805c0,0 24.98197,-6.92572 32.83561,-9.103c4.3941,-1.21823 13.8594,-10.45286 13.8594,-10.45286l0.43535,1.57043c0,0 -9.18689,9.13748 -13.44052,10.3015c-7.79952,2.13436 -33.15131,9.07199 -33.15131,9.07199z" fill="#535353" stroke-width="0"/><path d="M74.72565,328.52202l-5.38418,-19.42146c0,0 2.4819,-8.00829 8.84941,-12.15606c7.90871,-5.15172 24.66056,-7.94342 26.65594,-8.4966c1.53124,-0.42449 -9.65557,13.48637 -9.65557,13.48637l5.38418,19.42146z" fill="#8d898b" stroke-width="0"/><path d="M229.05998,237.85296l0.70438,-3.4581l103.69378,-28.59866l3.9395,14.21027c0,0 -35.91445,11.87163 -47.80223,14.73545c-5.90382,1.42227 -60.53545,3.11101 -60.53545,3.11101z" fill="#c98cac" stroke-width="0"/><path d="M235.16574,340.96977l-7.83451,-11.25241c0,0 6.51135,4.25458 9.54317,4.53153c1.93168,0.17647 6.1062,-0.58471 11.34368,-4.56602c4.21641,-3.20511 7.72501,-9.89644 7.72501,-9.89644l-7.28265,17.44219z" fill="#a08e97" stroke-width="0"/><path d="M309.83279,271.58437l-8.56348,-22.1383l17.49854,-6.30671l5.66284,20.42658c0,0 -5.70563,3.36571 -8.18366,4.77736c-1.14099,0.64996 -6.41419,3.24112 -6.41419,3.24112z" fill="#96858d" stroke-width="0"/><path d="M234.3956,345.0704l-1.48009,-5.33879c0,0 12.17742,-1.22938 15.79515,-5.47139c1.76068,-2.06447 12.4078,-26.73815 18.24634,-40.42747c2.2785,-5.34226 3.82475,-9.01164 3.82475,-9.01164c0,0 2.22922,-4.53352 1.46309,-7.31203c-0.38542,-1.39773 -1.04888,-5.55008 -2.46769,-7.55532c-1.43151,-2.02312 -3.61667,-1.89292 -3.61667,-1.89292l-8.32092,-11.77739l19.13414,-5.15545l4.29548,26.38478l4.306,1.46474c0,0 -7.60479,8.33468 -10.74152,14.34692c-4.90791,9.40688 -19.32964,44.93591 -19.32964,44.93591z" fill="#918189" stroke-width="0"/><path d="M287.58933,278.11694l-6.47211,-27.88844l13.34861,-3.41445l13.19342,8.79726l2.20174,16.33136z" fill="#96858d" stroke-width="0"/><path d="M283.72324,281.10765l-3.52563,-3.32475l-3.58639,-26.18343l4.87259,-1.43871l6.98596,27.7282z" fill="#8f8187" stroke-width="0"/><path d="M308.69923,272.37219c0,0 0.8706,-7.15988 -1.87847,-12.01267c-1.58289,-2.7942 -6.84152,-3.38039 -7.81192,-5.09332c-1.85364,-3.27216 -4.7213,-8.33426 -4.7213,-8.33426l8.73548,2.10685c0,0 5.20957,6.04159 6.92401,9.98855c1.15191,2.65176 1.42552,9.19238 1.2269,11.94437c-0.01677,0.232 -1.17239,0.46598 -1.17802,0.63904c-0.01364,0.42291 0.97734,0.38817 0.97734,0.38817z" fill="#86787e" stroke-width="0"/><path d="M303.21697,250.54149c0,0 -4.03506,-2.98546 -8.80697,-2.67082c-5.4023,0.35622 -21.95098,4.69896 -21.95098,4.69896l148.21559,-55.80625l5.77636,8.05124l10.60688,8.62243c0,0 -97.81554,24.44882 -117.65554,29.94904c-6.47409,1.79479 -16.18534,7.15543 -16.18534,7.15543z" fill="#df8db7" stroke-width="0"/><path d="M167.23544,337.30306l-14.31319,-33.66978c0,0 0.62004,-4.06404 1.04536,-4.40573c4.68945,-3.7676 32.71606,-22.59092 38.03407,-23.76811c5.82562,-1.2896 -5.55645,14.2443 -5.55645,14.2443c0,0 -13.34487,5.80189 -14.65491,10.57527c-1.7787,6.48081 7.52853,21.90865 7.52853,21.90865z" fill="#c77da3" stroke-width="0"/><path d="M229.028,289.11465l-2.28685,-1.55072c0,0 4.02131,-10.04602 5.75397,-12.90555c1.78874,-2.95218 4.81551,-4.53856 4.81551,-4.53856l6.33473,0.63283c0,0 -4.44763,0.71146 -6.26696,2.99685c-1.5618,1.9619 -4.35506,5.93105 -6.22738,9.65909c-1.36193,2.71184 -2.12302,5.70595 -2.12302,5.70595z" fill="#414041" stroke-width="0"/><path d="M107.19932,301.37733l1.50265,-12.54699l46.86101,-12.99122c0,0 -1.60293,5.06793 -4.08389,7.796c-2.43497,2.67752 -10.66649,8.42363 -10.66649,8.42363z" fill="#979395" stroke-width="0"/><path d="M107.66489,300.06226l0.73171,-12.33328l46.86101,-12.99122c0,0 -1.60293,5.06793 -4.08389,7.796c-2.43497,2.67752 -10.66649,8.42363 -10.66649,8.42363z" fill="#bdb7ba" stroke-width="0"/><path d="M311.1055,272.03789l-1.94204,0.00548l15.12121,-8.52426c0,0 -2.8813,2.93374 -5.06208,4.36529c-2.18076,1.43158 -8.11709,4.15342 -8.11709,4.15342z" fill="#887980" stroke-width="0"/><path d="M169.75491,337.08661c0,0 -5.05103,-9.45994 -8.48952,-17.36714c-3.45528,-7.94581 -6.67128,-15.40448 -7.65023,-18.85304c-0.16585,-0.58424 -1.23065,-10.59428 -0.88835,-11.23022c1.84774,-3.43284 11.37686,1.96105 16.44393,-0.58885c7.50264,-3.77556 25.77927,-9.37587 25.77927,-9.37587l-6.72768,7.37609c0,0 -17.97727,7.95696 -18.90957,13.54643c-1.26099,7.56031 11.6108,25.65187 11.6108,25.65187z" fill="#d486ae" stroke-width="0"/><path d="M169.90525,333.39332c0,0 -17.33795,-37.60654 -18.75141,-47.67171c-0.66135,-4.70939 -6.32736,-12.58999 -6.32736,-12.58999l50.68739,-6.82048l5.66531,15.10549c0,0 -31.70406,5.57939 -36.14756,13.3219c-2.96618,5.16837 11.14063,30.56584 11.14063,30.56584z" fill="#e490bb" stroke-width="0"/><g stroke-width="0"><path d="M286.46918,235.70886l-2.21065,-7.97414l9.01978,-2.50054l2.21065,7.97414z" fill="#454545"/><path d="M287.06693,234.74948l-2.29348,-6.93754l10.91452,-3.02583l1.94971,7.03285z" fill="#b0b0b0"/><path d="M285.64549,230.48519l-0.97639,-2.66637l11.1233,-3.08372l0.50956,1.83804c0,0 -7.4235,2.39265 -9.02406,2.98023c-0.53483,0.19636 -1.6324,0.93183 -1.6324,0.93183z" fill="#bebebe"/><path d="M297.73507,231.2217c0,0 -6.02197,-0.98227 -6.47293,-4.74626c-0.67012,-5.59328 3.42904,-6.23356 3.42904,-6.23356l39.13597,-9.46597l2.6877,9.69496z" fill="#9c989a"/><path d="M299.113,229.50185c0,0 -3.33645,-2.72666 -3.81933,-3.5546c-0.71577,-1.22725 0.41645,-4.61 0.41645,-4.61l40.09282,-11.08029l1.61513,7.32333z" fill="#898587"/><path d="M299.07886,229.71703l-1.50066,-1.5965l36.8422,-10.21373l0.51814,1.86886z" fill="#c1bcbf"/><path d="M298.0554,226.47882c0,0 -1.65036,-0.96203 -1.90078,-1.86534c-0.23423,-0.84496 0.44356,-3.39097 0.44356,-3.39097l37.26129,-10.32989l1.45721,5.2563z" fill="#0d0d0d"/><path d="M298.26306,227.22786c0,0 -1.81162,-1.54386 -2.06204,-2.44717c-0.23423,-0.84496 0.60485,-2.80913 0.60485,-2.80913l37.2613,-10.3299l1.45721,5.2563z" fill="#2e2e2e"/><path d="M294.12094,230.35126c-3.36228,-2.25052 -2.86368,-4.81342 -2.86368,-4.81342c0,0 2.86425,3.47338 4.29467,4.0083c1.69353,0.63327 5.53705,0.9852 5.53705,0.9852l-3.36248,1.00501c0,0 -3.01382,-0.78902 -3.60551,-1.18512z" fill="#7d7a7c"/><path d="M300.85132,226.83172c0,0 -1.44754,-1.89409 -1.75303,-2.99612c-0.26854,-0.96869 0.01654,-3.26765 0.01654,-3.26765l4.648,-1.28857c0,0 0.14445,2.24705 0.37642,3.0837c0.31882,1.14997 1.36007,3.17997 1.36007,3.17997z" fill="#555555"/><path d="M309.15482,224.52978c0,0 -0.03164,-2.60951 -0.33712,-3.71147c-0.26854,-0.96869 -1.39935,-2.55228 -1.39935,-2.55228l5.1877,-1.43817c0,0 0.05668,1.76403 0.28864,2.60074c0.31882,1.14997 1.44788,3.66298 1.44788,3.66298z" fill="#555555"/><path d="M318.14254,222.03812c0,0 -0.03163,-2.60952 -0.33712,-3.7115c-0.26854,-0.96869 -1.39936,-2.55227 -1.39936,-2.55227l5.11057,-1.41681c0,0 0.05668,1.76403 0.28864,2.60074c0.31882,1.14997 1.44788,3.66298 1.44788,3.66298z" fill="#555555"/><path d="M327.45459,219.45656c0,0 0.23472,-2.31437 -0.07083,-3.41639c-0.26854,-0.96869 -1.66566,-2.84736 -1.66566,-2.84736l4.95638,-1.37404c0,0 1.32711,1.68855 1.55906,2.52528c0.31882,1.14997 0.17745,3.7385 0.17745,3.7385z" fill="#555555"/><path d="M299.04644,221.31745l-0.85467,-0.5932l34.27006,-9.50066l-1.26477,1.18079c0,0 -2.72722,0.75605 -5.09995,1.41386c-0.51719,0.14334 -1.5837,0.09788 -2.35836,0.31262c-0.74903,0.20762 -1.19885,0.67351 -2.12991,0.93164c-1.45193,0.40251 -3.09011,0.85666 -4.80508,1.33212c-0.71103,0.19712 -1.43215,-0.00098 -2.1618,0.20131c-0.64884,0.17989 -1.30499,0.75981 -1.95685,0.94053c-1.61784,0.4485 -3.21975,0.8926 -4.7259,1.31014c-0.69164,0.19174 -1.48013,-0.04456 -2.12359,0.1338c-0.78555,0.21778 -1.41237,0.84645 -2.10064,1.03723c-2.80756,0.77837 -4.68864,1.29985 -4.68864,1.29985z" fill="#474747"/></g><g><path d="M175.09981,325.2819l2.81597,-3.75627c0,0 3.47426,1.95791 6.44438,2.06323c2.62693,0.09314 10.4735,-1.46336 10.4735,-1.46336l-1.39531,4.90531z" fill="#6d6a6b" stroke-width="0"/><path d="M169.07027,333.69881l6.92296,-9.58299c0,0 3.72003,1.31036 5.98677,1.3688c3.42926,0.08838 12.58683,-0.88992 12.58683,-0.88992l-2.97155,5.29361z" fill="#615e5f" stroke-width="0"/><path d="M176.86505,354.33376l-7.45987,-21.35635c0,0 4.40753,-0.40008 9.06148,-1.65956c3.63259,-0.98306 7.30698,-2.8808 9.86295,-2.95809c4.48722,-0.13574 40.09564,2.81432 40.09564,2.81432l5.10663,9.14287z" fill="#575455" stroke-width="0"/><path d="M190.44749,322.50656c5.19458,-7.21518 9.37696,-22.33411 9.90264,-25.14824c0.37869,-2.02735 -0.3683,-7.29529 -0.3683,-7.29529l9.24429,4.50904c0,0 11.11295,18.18897 15.62923,30.06066c1.2637,3.3218 4.74365,6.45108 3.99231,8.18118c-0.67323,1.55008 -16.40627,8.28803 -21.80875,8.99209c-11.36934,1.48179 -16.20564,5.7173 -21.22357,1.63407c-5.01796,-4.08319 0.14962,-12.02253 0.14962,-12.02253c0,0 3.13027,-7.03267 4.4826,-8.91107z" fill="#504e4f" stroke-width="0"/><path d="M186.30906,289.59051c0,0 -0.01737,-1.54427 0.63123,-2.41262c0.83416,-1.11677 3.95849,-3.73216 3.95849,-3.73216c0,0 9.57878,-0.51018 13.14484,1.08514c3.2902,1.47186 -0.01561,13.05728 -0.01561,13.05728l-3.36589,-4.63043z" fill="#464445" stroke-width="0"/><path d="M221.31602,328.89434c0,0 -7.27556,8.50873 -15.40578,10.94052c-7.84323,2.34599 -16.54631,-1.35534 -16.82312,-2.75449c-0.15002,-0.75808 6.6068,-6.06122 8.82922,-11.05796c2.47043,-5.55436 0.47658,-10.91819 1.24126,-13.21652c2.13468,-6.41617 7.55352,-18.48082 4.91647,-24.02137c-2.76551,-5.81048 -13.64759,-4.94577 -13.64759,-4.94577c0,0 3.10971,-3.19869 7.87946,-4.65576c2.03175,-0.62067 6.7843,-0.5001 7.77685,-0.37573c3.25488,0.40759 5.6104,1.4526 5.6104,1.4526c0,0 2.22206,-5.6794 5.61062,-6.93989c3.38851,-1.26052 22.31754,-3.4494 22.31754,-3.4494l-12.25681,16.46695z" fill="#555354" stroke-width="0"/><path d="M198.93464,313.48521c0,0 1.54815,-11.71206 4.65464,-18.21317c3.10648,-6.5011 6.187,-10.65555 9.59097,-11.5992c2.46495,-0.68335 7.93527,6.74045 7.93527,6.74045l-2.98855,30.68285c0,0 -13.21369,7.06602 -15.30001,5.07017c-1.64777,-1.57635 -3.89234,-12.68102 -3.89234,-12.68102z" fill="#585758" stroke-width="0"/><path d="M227.96344,333.76693c0,0 -4.42752,-5.19715 -4.92049,-8.19664c-0.68873,-4.19031 -2.67781,-16.77009 -2.67781,-16.77009l4.67347,9.53368c0,0 1.98691,9.56433 2.92415,12.44862c0.90436,2.78286 2.85577,4.49416 2.85577,4.49416z" fill="#3f3e3f" stroke-width="0"/><path d="M222.29581,316.79913c-0.63576,-1.56173 -2.43857,-9.06367 -2.43857,-9.06367c0,0 5.3189,-16.59195 6.63133,-19.70894c0.38476,-0.91381 3.15604,-3.47826 3.15604,-3.47826l-0.28969,5.1173c0,0 -1.3553,1.0025 -1.40089,1.51101c-0.0486,0.54178 1.11762,1.64614 1.11762,1.64614l-2.67694,9.54209c0,0 -1.32064,1.41484 -1.35831,1.94966c-0.03767,0.53501 0.86226,1.20718 0.86226,1.20718c0,0 -1.32558,9.64599 -1.49232,12.19805c-0.07709,1.18002 0.53218,2.49773 0.53218,2.49773c0,0 -2.00684,-1.85654 -2.64257,-3.41826z" fill="#474647" stroke-width="0"/><path d="M204.04507,300.0995l22.49352,2.31012c0,0 -0.8753,1.29315 -0.95983,1.87596c-0.0624,0.43006 0.49851,1.30406 0.49851,1.30406z" fill="#3f3e3e" stroke-width="NaN"/><path d="M207.06117,288.51993l22.51931,1.08206c0,0 -0.84918,1.11055 -0.90392,1.70301c-0.05704,0.61763 0.58734,1.55892 0.58734,1.55892z" fill="#3f3e3e" stroke-width="NaN"/><path d="M202.73521,319.48092c0,0 12.35902,4.5569 19.62046,8.74684c7.2614,4.19001 5.71365,5.8714 5.71365,5.8714z" fill="#636162" stroke-width="NaN"/><path d="M209.37948,293.71273c0,0 -5.00672,4.40158 -6.82905,8.11948c-1.82235,3.7179 -5.53011,21.53907 -6.31704,18.70061c-0.7869,-2.83847 6.3222,-26.31202 8.05188,-26.79151c0.65478,-0.18153 3.27548,-2.09342 4.12763,-2.08323c1.3989,0.01677 0.96654,2.0546 0.96654,2.0546z" fill="#918f91" stroke-width="0"/><path d="M176.39084,354.331l12.93157,-5.54454c0,0 12.04933,-3.68523 15.11343,-4.37376c7.46197,-1.67681 29.82118,-5.72375 29.82118,-5.72375l1.25795,6.21075c0,0 -22.52302,9.944 -29.51835,10.51799c-2.02374,0.16609 -7.79409,1.12441 -12.25639,0.95833c-8.73256,-0.32507 -17.34939,-2.04499 -17.34939,-2.04499z" fill="#626061" stroke-width="0"/><path d="M234.45256,344.82911c0,0 -1.1078,-4.14741 -2.16556,-6.28229c-1.18883,-2.39952 -4.62024,-7.41396 -4.62024,-7.41396l1.71757,-0.47618c0,0 2.84733,3.83553 3.92362,6.00779c1.17671,2.37507 2.86221,7.68843 2.86221,7.68843z" fill="#4a494a" stroke-width="0"/><path d="M234.48785,345.68716l-0.82248,-3.29726c0,0 0.6169,0.1037 0.87851,0.03116c0.31089,-0.08617 0.82474,-0.5033 0.82474,-0.5033l1.01605,3.01471c0,0 -0.63945,0.60021 -0.98503,0.73778c-0.26485,0.10542 -0.91173,0.01693 -0.91173,0.01693z" fill="#363536" stroke-width="0"/><path d="M228.20577,332.04744l-0.80479,-1.45863c0,0 0.30756,-0.45302 0.64676,-0.60855c0.32312,-0.1481 0.85932,-0.16937 0.85932,-0.16937l0.9473,1.53926c0,0 -0.32879,0.6177 -0.61118,0.73717c-0.26611,0.11256 -1.03741,-0.03984 -1.03741,-0.03984z" fill="#585758" stroke-width="0"/><path d="M194.01039,355.59339c0,0 -8.39705,-0.73629 -8.76119,-2.0498c-0.36593,-1.31998 5.33176,-4.11454 5.33176,-4.11454c0,0 10.48179,-3.1557 15.30478,-4.31364c2.70006,-0.64822 11.16949,-2.04258 11.16949,-2.04258c0,0 7.30842,-0.93212 8.40155,-0.04002c1.19241,0.9731 -1.77216,4.74377 -1.77216,4.74377c0,0 -11.91248,4.65776 -15.78882,5.51634c-1.37701,0.30498 -13.88536,2.30055 -13.88536,2.30055z" fill="#6b696a" stroke-width="0"/><path d="M182.16101,351.71656l-1.82871,0.7465c0,0 -0.31393,-3.47716 2.63906,-3.00682c2.95299,0.47041 20.96719,-5.57319 20.96719,-5.57319z" fill="#4b4949" stroke-width="0"/><path d="M176.42267,354.17269c0,0 -1.87401,0.71836 -3.36282,-2.64908c-0.75364,-1.70455 -6.22184,-14.91605 -6.22184,-14.91605l2.82568,-3.79178c0,0 2.25826,5.59376 3.23225,8.33543c1.29541,3.64641 4.41627,12.77481 4.41627,12.77481z" fill="#3f3d3e" stroke-width="0"/><path d="M182.51545,351.79049c0,0 2.50011,-2.93264 17.8828,-7.54698c1.27033,-0.38106 -1.73848,0.4487 7.45515,-1.57354c9.19362,-2.02234 13.36391,-1.60871 13.36391,-1.60871c0,0 -14.80429,2.99445 -20.78164,4.65155c-6.81347,1.8889 -17.92024,6.0777 -17.92024,6.0777z" fill="#838082" stroke-width="0"/><path d="M179.46623,321.88602c0,0 -3.62736,3.27556 -5.29177,5.41345c-1.87075,2.40297 -5.38606,8.30228 -5.38606,8.30228l-1.18384,-1.33382c0,0 2.59632,-4.7188 4.28988,-6.89418c1.85161,-2.37837 6.38801,-6.82157 6.38801,-6.82157z" fill="#4a494a" stroke-width="0"/><path d="M180.29741,321.38809l-2.98265,2.5708c0,0 -0.07981,-0.64871 -0.26013,-0.85183c-0.21426,-0.24143 -0.83926,-0.49153 -0.83926,-0.49153l2.54896,-2.57632c0,0 0.85771,0.26724 1.13709,0.51305c0.21409,0.18835 0.39598,0.83589 0.39598,0.83589z" fill="url(#color-3)" stroke-width="0"/><path d="M169.46565,334.60636l-2.11446,3.41894l-0.72171,-2.0649l1.46297,-2.50403c0,0 0.74569,-0.0302 0.98091,0.16689c0.22167,0.1856 0.39224,0.98314 0.39224,0.98314z" fill="url(#color-4)" stroke-width="0"/></g><path d="M288.40325,276.75346c0,0 -0.28679,-4.50583 -0.17283,-5.97893c0.07736,-0.99999 1.98198,-3.01367 1.98198,-3.01367l16.34254,-4.75706c0,0 0.31814,5.92822 0.31594,7.34666c-0.001,0.62139 -0.84317,1.57358 -0.84317,1.57358z" fill="#665b60" stroke-width="0"/><path d="M236.67874,272.14785c0,0 -4.07372,-0.49204 -9.13091,-0.28573c-3.21484,0.13113 -7.4811,0.7257 -9.2462,1.32481c-5.13176,1.74179 -6.1954,7.33411 -6.1954,7.33411c0,0 -3.77297,-1.35711 -6.03232,-1.61771c-2.10903,-0.24322 -6.57131,-0.04486 -6.57131,-0.04486c0,0 22.30667,-11.46734 25.86287,-13.05523c6.81753,-3.04411 32.63357,-9.79489 32.63357,-9.79489l9.8142,12.10375z" fill="#8b7c84" stroke-width="0"/><g stroke-width="0"><path d="M289.5532,275.45635c0,0 -0.23921,-2.62783 -0.08279,-3.59972c0.16214,-1.00767 1.9854,-2.6053 1.9854,-2.6053l14.00191,-3.88176c0,0 0.63485,0.84404 0.60515,1.61788c-0.04041,1.05215 -1.98209,4.44145 -1.98209,4.44145z" fill="#585852"/><path d="M289.35405,274.7381c0,0 -0.04011,-1.9096 0.11635,-2.88149c0.16214,-1.00767 1.78628,-3.32356 1.78628,-3.32356l14.00191,-3.88175c0,0 0.83401,1.5623 0.80427,2.33618c-0.04041,1.05215 -2.18125,3.72314 -2.18125,3.72314z" fill="#797971"/><path d="M303.69094,265.6002c-1.05829,0.10873 -12.33093,2.95224 -12.33093,2.95224l13.98274,-3.87642l0.65768,2.37236c0,0 -1.25121,-1.55686 -2.30958,-1.4482z" fill="#85857b"/></g><path d="M286.07881,257.5662l-1.38645,-5.00113l6.87658,-1.9064l2.63676,4.65449z" fill="#7c6e75" stroke-width="0"/><path d="M268.97448,234.88783l-6.19719,-6.7199l1.32922,-0.36847l8.18295,6.63804z" fill="#d495b6" stroke-width="0"/><path d="M229.35037,237.95598l11.91317,-6.50886l21.71193,-3.30814l6.01938,6.72874z" fill="#df9cbe" stroke-width="0"/><path d="M287.57822,262.36768l-0.43327,-1.56286l10.47111,-2.90285l1.37098,1.3029z" fill="#7c6e75" stroke-width="0"/><path d="M245.23386,261.49419c0,0 -17.15437,5.99929 -22.44877,7.98609c-8.01691,3.00842 -23.84556,9.80954 -23.84556,9.80954c0,0 13.29132,-8.29285 25.9028,-13.36241c13.67401,-5.49666 55.73319,-18.66903 55.73319,-18.66903l1.44504,5.21251z" fill="#75686e" stroke-width="0"/><path d="M240.90997,271.79414l-3.27782,0.31634c0,0 8.77835,-4.90795 14.12762,-5.59937c5.34926,-0.69143 15.65181,1.75028 15.65181,1.75028z" fill="#7c6e76" stroke-width="0"/><path d="M195.06567,280.3213c0,0 -35.29441,-6.19253 -37.38778,-10.40655c-1.90154,-3.82794 29.36514,-5.70435 29.62318,-5.8882c4.51491,-3.21698 71.85773,-29.37333 71.85773,-29.37333l27.45539,-0.566l50.69156,-14.64615l10.66937,11.12959c0,0 -59.00943,17.57205 -81.86834,24.07839c-7.93496,2.25852 -24.3285,6.13115 -38.77155,11.31848c-11.14088,4.00137 -27.03117,12.88599 -27.03117,12.88599z" fill="#ee96c3" stroke-width="0"/><path d="M73.97845,326.90653l-2.17817,-20.31029c0,0 -1.98239,-6.7706 4.38518,-10.91846c7.90871,-5.15172 24.66057,-7.94342 26.65596,-8.4966c1.53124,-0.42449 -9.65558,13.48637 -9.65558,13.48637l5.38419,19.42146z" fill="#c4b4b3" stroke-width="0"/><g stroke-width="0"><path d="M340.04199,234.20419l-6.79876,-13.82919l91.19262,-18.26155l0.8221,5.79806l-44.40716,17.35126z" fill="#ad6d8e"/><path d="M361.59985,213.35071l4.79833,-9.91494l25.23281,-9.20459l-1.36968,11.17384z" fill="#8d788b"/><path d="M337.37217,221.30085l-4.3373,-15.64523l33.43208,-2.23461l-2.5772,7.84257z" fill="#857183"/><path d="M377.36198,206.76835l14.20895,-12.51924l27.83757,-3.80238l1.56609,6.71983z" fill="#947e92"/><path d="M333.19207,221.82817l-0.62198,-13.07501l0.57573,-3.33896l4.02436,14.51633z" fill="#756474"/><path d="M340.41604,230.76483l-3.92035,-11.44124l41.29908,-13.1603l3.10814,15.80098z" fill="#746373"/><path d="M380.89138,221.95144c0,0 -1.31891,-6.17973 -1.88718,-8.97362c-0.48659,-2.39206 -1.31573,-6.7721 -1.31573,-6.7721l42.83641,-10.93211l4.1714,7.56041z" fill="#867284"/><path d="M333.21225,221.7495l3.47221,-2.55125l3.76256,11.56594z" fill="#6f5e6d"/><path d="M412.42669,192.27058l-19.9965,2.05308l26.72731,-3.63603l0.59677,3.51375c0,0 -0.7214,-1.42847 -2.07414,-1.78492c-0.90486,-0.23845 -5.25347,-0.14589 -5.25347,-0.14589z" fill="#978195"/><path d="M375.57518,206.58949c0,0 6.75908,-5.46973 9.07451,-7.51685c1.68673,-1.49118 3.53977,-3.6352 3.53977,-3.6352l2.47184,-0.56841l-12.53376,11.01288z" fill="#9c859a"/><path d="M361.93295,211.21027c0,0 0.53326,-3.00391 1.47374,-4.66591c0.94045,-1.66195 2.94704,-3.06421 2.94704,-3.06421l-2.04869,7.07245z" fill="#806b7d"/><path d="M392.62427,192.14547l0.52412,-6.0949l15.64491,-0.46306l7.10626,4.67132z" fill="#55494f"/><path d="M390.93104,195.52059c0,0 0.83201,-1.05064 1.21582,-1.76386c0.28909,-0.53721 0.58218,-2.05527 0.58218,-2.05527l22.5713,-2.10657c0,0 0.96909,0.24706 1.62098,0.40426c0.68133,0.1643 2.38247,0.56124 2.38247,0.56124z" fill="#685960"/><path d="M392.92673,191.13577l0.37326,-4.86178l14.52099,-0.57332c0,0 -8.12516,0.662 -12.37533,2.10458c-2.46536,0.83674 -2.51886,3.33051 -2.51886,3.33051z" fill="#41383c"/></g><path d="M65.06445,288.6161l-1.3914,-5.01902c0,0 21.17868,-7.21525 42.35395,-13.02654c12.61855,-3.46298 26.12199,-5.54862 32.69818,-7.73502c14.82782,-4.92993 23.71071,-12.0749 23.71071,-12.0749l-3.26681,11.9502z" fill="#ffa1d1" stroke-width="0"/><path d="M66.30899,302.75509l-2.21468,-16.07519c0,0 53.35517,-12.65332 70.43594,-17.84593c10.11794,-3.07588 22.60502,-10.43859 22.60502,-10.43859l3.91171,14.1102c0,0 -65.04764,18.03307 -80.72861,22.38026c-6.4474,1.7874 -6.8272,33.77639 -6.8272,33.77639z" fill="#ee96c3" stroke-width="0"/><path d="M259.43994,328.59085l5.31059,-15.58092c0,0 5.32182,-17.93069 12.54709,-27.05533c1.83607,-2.31873 6.49807,-4.85281 6.49807,-4.85281c0,0 -5.70661,6.75519 -7.46141,10.13835c-4.14397,7.98961 -16.89427,37.35067 -16.89427,37.35067z" fill="#70646b" stroke-width="0"/><path d="M334.63655,240.45801l-10.88085,-15.66428l1.30103,-0.36068c0,0 3.29528,4.74397 5.0365,7.25067c0.24812,0.35712 1.88967,1.16921 2.19697,1.61162c0.53269,0.76687 -0.22361,1.22927 0.37176,2.0864c1.65791,2.38669 3.27558,4.71558 3.27558,4.71558z" fill="#795467" stroke-width="0"/><path d="M161.77172,272.75277c0,0 -11.85154,-3.51387 -12.20534,-7.33308c-0.21185,-2.28678 13.89413,-14.44937 13.89413,-14.44937l66.45886,-16.68913l-0.75005,3.42084l29.97461,-2.86347l-62.0869,44.78976c0,0 -2.26235,-5.19835 0.44546,-8.91498c2.63167,-3.61215 15.57952,-13.08032 15.57952,-13.08032c0,0 -32.9868,9.09405 -40.03592,10.95833c-2.35175,0.62196 -11.27449,4.16146 -11.27449,4.16146z" fill="#f399c8" stroke-width="0"/><g><path d="M162.24303,253.30454l-0.8651,-3.12067l170.13669,-47.16672l0.8651,3.12067z" fill="#584f54" stroke-width="0"/><path d="M325.99521,204.80488l-0.73103,-2.63683l2.94421,-0.81623l3.32883,1.91671z" fill="#685d63" stroke-width="0"/><g fill="#685d63" stroke-width="0"><g><g><g><path d="M319.64382,206.82422l-0.79528,-2.8688l3.74006,-1.03689l0.79528,2.8688z"/><path d="M313.57517,208.50668l-0.79528,-2.8688l3.74006,-1.03688l0.79528,2.8688z"/></g><g><path d="M307.73553,210.12555l-0.79529,-2.86881l3.74006,-1.03688l0.79528,2.8688z"/><path d="M301.66685,211.80799l-0.79528,-2.8688l3.74005,-1.03688l0.79529,2.86881z"/></g></g><g><g><path d="M295.71273,213.45865l-0.79529,-2.86881l3.74005,-1.03688l0.79528,2.8688z"/><path d="M289.64404,215.14107l-0.79528,-2.8688l3.74006,-1.03689l0.79529,2.86881z"/></g><g><path d="M283.80443,216.75995l-0.79528,-2.8688l3.74005,-1.03688l0.79528,2.8688z"/><path d="M277.73582,218.44234l-0.79528,-2.8688l3.74003,-1.03686l0.79529,2.86881z"/></g></g></g><g><g><g><path d="M277.50684,218.50583l-0.79528,-2.8688l3.74005,-1.03688l0.79528,2.8688z"/><path d="M271.43822,220.18822l-0.79528,-2.8688l3.74006,-1.03688l0.79528,2.8688z"/></g><g><path d="M265.59854,221.80713l-0.79529,-2.86881l3.74005,-1.03688l0.79528,2.8688z"/><path d="M259.52987,223.48953l-0.79528,-2.8688l3.74003,-1.03686l0.79529,2.86881z"/></g></g><g><g><path d="M253.5758,225.14018l-0.79529,-2.86881l3.74006,-1.03688l0.79528,2.8688z"/><path d="M247.50714,226.82258l-0.79528,-2.8688l3.74006,-1.03688l0.79529,2.86881z"/></g><g><path d="M241.66751,228.44151l-0.79528,-2.8688l3.74006,-1.03689l0.79529,2.86881z"/><path d="M235.59886,230.12391l-0.79528,-2.8688l3.74006,-1.03688l0.79528,2.8688z"/></g></g></g></g><g><g fill="#685d63" stroke-width="0"><g><g><path d="M229.60577,231.78534l-0.79529,-2.86881l3.74006,-1.03688l0.79528,2.8688z"/><path d="M223.53713,233.46774l-0.79528,-2.8688l3.74006,-1.03688l0.79529,2.86881z"/></g><g><path d="M217.69752,235.08671l-0.79528,-2.8688l3.74006,-1.03688l0.79529,2.86881z"/><path d="M211.62893,236.76905l-0.79528,-2.8688l3.74006,-1.03689l0.79529,2.86881z"/></g></g><g><g><path d="M205.67471,238.41971l-0.79529,-2.86881l3.74006,-1.03688l0.79528,2.8688z"/><path d="M199.60606,240.10209l-0.79528,-2.8688l3.74006,-1.03688l0.79529,2.86881z"/></g><g><path d="M193.76642,241.72106l-0.79528,-2.8688l3.74006,-1.03688l0.79529,2.86881z"/><path d="M187.69776,243.40348l-0.79528,-2.8688l3.74006,-1.03689l0.79528,2.8688z"/></g></g></g><g><g fill="#685d63" stroke-width="0"><g><path d="M187.46883,243.46694l-0.79529,-2.86881l3.74006,-1.03688l0.79528,2.8688z"/><path d="M181.40014,245.14931l-0.79528,-2.8688l3.74006,-1.03689l0.79529,2.86881z"/></g><g><path d="M175.56051,246.76823l-0.79528,-2.8688l3.74006,-1.03689l0.79529,2.86881z"/><path d="M169.49185,248.45061l-0.79528,-2.8688l3.74006,-1.03689l0.79528,2.8688z"/></g></g><g fill="none" stroke-width="1" font-family="sans-serif" font-weight="normal" font-size="12" text-anchor="start"><g/><g/></g></g></g><path d="M161.51312,250.40399l1.86683,-3.35705l2.94421,-0.81623l0.73103,2.63683z" data-paper-data="{&quot;index&quot;:null}" fill="#685d63" stroke-width="0"/></g><path d="M225.14139,266.89123l-2.38697,0.94195c0,0 0.93199,-2.92276 9.87713,-6.57284c6.78176,-2.76728 26.24729,-9.52464 37.91095,-13.53203c5.41631,-1.86095 57.45959,-25.63029 57.45959,-25.63029l5.00603,-1.40266c0,0 -56.62881,26.74532 -62.04726,28.58274c-11.98163,4.06304 -32.11832,10.92936 -37.88892,13.12946c-3.14127,1.19763 -7.93054,4.48363 -7.93054,4.48363z" fill="#70475c" stroke-width="0"/><path d="M327.46744,258.26884l-4.25173,3.0941l-5.05689,-18.24353c0,0 7.52123,-2.03486 14.87678,-4.02495c21.11572,-5.71288 122.59924,-33.16935 122.59924,-33.16935l1.79723,6.48275z" fill="#5a5959" stroke-width="0"/><path d="M327.0206,260.08255l0.24819,-3.18822l130.14567,-44.5951l-8.40105,13.96348z" fill="#4b4a4a" stroke-width="0"/><path d="M445.79658,226.95826c0,0 -6.5531,-1.52968 -9.85686,-2.09573c-1.77056,-0.30334 -8.42492,-1.03656 -8.42492,-1.03656c0,0 8.48638,0.66059 11.96268,0.68058c1.24065,0.00718 2.52187,0.42274 3.91957,0.58331c0.45069,0.05174 1.4707,-3.09427 2.84267,-5.25361c0.41006,-0.64544 1.62552,-0.60412 2.04343,-1.06322c0.95804,-1.05253 1.01245,-2.20023 1.01245,-2.20023c0,0 0.57355,0.80564 -0.27686,2.30093c-0.232,0.40798 -1.87529,1.22917 -2.09264,1.66339c-0.87105,1.74024 -1.40923,3.54884 -1.5453,4.20004c-0.37981,1.81733 1.82598,1.83016 1.82598,1.83016z" fill="#414040" stroke-width="0"/><path d="M161.80399,273.0524l0.71146,-11.71464l6.58468,-2.47333c0,0 -0.20863,2.80592 -0.33157,4.4596c-0.03098,0.41651 10.81188,-4.61937 11.33035,-4.06677c0.96197,1.02524 -3.40314,6.13707 -3.48045,7.17709c-0.08842,1.18899 -8.37077,3.89585 -8.37077,3.89585z" fill="#303030" stroke-width="0"/><path d="M161.56681,272.73417l0.83386,-10.88196c0,0 3.23967,0.45568 3.50281,1.40484c0.47882,1.72704 0.50321,7.72569 0.50321,7.72569z" fill="#252525" stroke-width="0"/><path d="M323.90771,263.92698l-0.78873,-2.84509l4.5343,-4.3208l-0.40439,3.17582c0,0 -0.69405,1.57804 -1.28167,2.27974c-0.51706,0.61751 -2.05954,1.71021 -2.05954,1.71021z" fill="#383838" stroke-width="0"/><g><g fill="#4b4b4b" stroke-width="0"><g data-paper-data="{&quot;origPos&quot;:null}"><g data-paper-data="{&quot;origPos&quot;:null}"><path d="M388.97493,247.31117l-0.60718,-2.19014l3.6137,-1.00184l0.60718,2.19014z" data-paper-data="{&quot;origPos&quot;:null}"/><path d="M382.92172,248.8714l-0.60718,-2.19014l3.61369,-1.00184l0.60717,2.19013z" data-paper-data="{&quot;origPos&quot;:null}"/></g><g data-paper-data="{&quot;origPos&quot;:null}"><path d="M401.05097,244.08134l-0.60718,-2.19014l3.6137,-1.00184l0.60717,2.19013z" data-paper-data="{&quot;origPos&quot;:null}"/><path d="M394.99775,245.6415l-0.60717,-2.19013l3.61369,-1.00184l0.60718,2.19014z" data-paper-data="{&quot;origPos&quot;:null}"/></g></g><g data-paper-data="{&quot;origPos&quot;:null,&quot;index&quot;:null}"><g data-paper-data="{&quot;origPos&quot;:null}"><path d="M419.49681,238.73179l-0.60718,-2.19014l3.6137,-1.00184l0.60717,2.19013z" data-paper-data="{&quot;origPos&quot;:null}"/><path d="M425.48926,236.95252l-0.60718,-2.19013l3.6137,-1.00184l0.60717,2.19012z" data-paper-data="{&quot;origPos&quot;:null}"/></g><g data-paper-data="{&quot;origPos&quot;:null}"><path d="M407.48148,242.18063l-0.60718,-2.19014l3.61369,-1.00184l0.60718,2.19013z" data-paper-data="{&quot;origPos&quot;:null}"/><path d="M413.47396,240.40147l-0.60717,-2.19013l3.6137,-1.00184l0.60717,2.19013z" data-paper-data="{&quot;origPos&quot;:null}"/></g></g></g><path d="M345.60321,250.77894l-3.63625,-13.11643l81.40374,-22.56745l3.63625,13.11643z" data-paper-data="{&quot;origPos&quot;:null}" fill="#444444" stroke-width="0"/><path d="M346.9597,255.30322l-1.27763,-4.60863l81.16446,-22.50112l1.27763,4.60864z" data-paper-data="{&quot;origPos&quot;:null}" fill="#414141" stroke-width="0"/><path d="M347.37374,256.66639l-0.43214,-1.55885l81.15417,-22.49824l0.43215,1.55884z" data-paper-data="{&quot;origPos&quot;:null}" fill="#3f3f3f" stroke-width="0"/><g stroke-width="0"><g data-paper-data="{&quot;origPos&quot;:null}" fill="#5a5a5a"><g data-paper-data="{&quot;origPos&quot;:null}"><path d="M387.32334,239.29531l-3.67334,-13.25024l3.44159,-0.9541l3.67334,13.25024z" data-paper-data="{&quot;origPos&quot;:null}"/></g><g data-paper-data="{&quot;origPos&quot;:null}"><path d="M393.17413,237.67334l-3.67334,-13.25024l3.4416,-0.9541l3.67334,13.25024z" data-paper-data="{&quot;origPos&quot;:null}"/><path d="M399.19694,236.00364l-3.67333,-13.25027l3.44159,-0.9541l3.67334,13.25024z" data-paper-data="{&quot;origPos&quot;:null}"/></g></g><g data-paper-data="{&quot;origPos&quot;:null}" fill="#5a5a5a"><g data-paper-data="{&quot;origPos&quot;:null}"><path d="M405.56395,234.23851l-3.67334,-13.25024l3.44159,-0.9541l3.67334,13.25025z" data-paper-data="{&quot;origPos&quot;:null}"/><path d="M411.58678,232.56882l-3.67334,-13.25024l3.4416,-0.9541l3.67333,13.25027z" data-paper-data="{&quot;origPos&quot;:null}"/></g><g data-paper-data="{&quot;origPos&quot;:null}"><path d="M417.43753,230.9468l-3.67333,-13.25027l3.44159,-0.9541l3.67333,13.25027z" data-paper-data="{&quot;origPos&quot;:null}"/><path d="M423.46039,229.2771l-3.67333,-13.25027l3.44159,-0.9541l3.67334,13.25024z" data-paper-data="{&quot;origPos&quot;:null}"/></g></g><path d="M390.82408,238.32482l-0.331,2.0956l-5.03934,1.44179l-2.75143,-9.4032l0.8909,-6.39824l3.73979,13.23184z" fill="#3a3a3a"/><path d="M396.67251,236.70347l-0.331,2.09561l-5.03935,1.44178l-2.75142,-9.40322l0.89091,-6.39823l3.73979,13.23183z" fill="#3a3a3a"/><path d="M402.65378,235.04531l-0.331,2.09561l-5.03935,1.44179l-2.75143,-9.4032l0.89091,-6.39823l3.73979,13.23184z" fill="#3a3a3a"/><path d="M409.10029,233.25815l-0.331,2.09561l-5.03935,1.44179l-2.75143,-9.4032l0.89091,-6.39823l3.73979,13.23184z" fill="#3a3a3a"/><path d="M415.14809,231.58152l-0.331,2.09561l-5.03935,1.44179l-2.75143,-9.4032l0.89091,-6.39823l3.73979,13.23183z" fill="#3a3a3a"/><path d="M420.92998,229.97861l-0.331,2.0956l-5.03934,1.44179l-2.75143,-9.4032l0.89091,-6.39823l3.73979,13.23184z" fill="#3a3a3a"/><path d="M426.98538,228.29986l-0.331,2.0956l-5.03935,1.44179l-2.75142,-9.40322l0.8909,-6.39824l3.73979,13.23184z" fill="#3a3a3a"/></g><g stroke-width="0"><g data-paper-data="{&quot;origPos&quot;:null}" fill="#5a5a5a"><g data-paper-data="{&quot;origPos&quot;:null}"><path d="M345.6655,250.84408l-3.67333,-13.25027l3.4416,-0.9541l3.67334,13.25024z" data-paper-data="{&quot;origPos&quot;:null}"/></g><g data-paper-data="{&quot;origPos&quot;:null}"><path d="M351.51625,249.22211l-3.67334,-13.25024l3.44159,-0.9541l3.67334,13.25024z" data-paper-data="{&quot;origPos&quot;:null}"/><path d="M357.53909,247.55242l-3.67334,-13.25024l3.4416,-0.9541l3.67333,13.25027z" data-paper-data="{&quot;origPos&quot;:null}"/></g></g><g data-paper-data="{&quot;origPos&quot;:null}" fill="#5a5a5a"><g data-paper-data="{&quot;origPos&quot;:null}"><path d="M363.90605,245.78725l-3.67333,-13.25027l3.44159,-0.95409l3.67334,13.25024z" data-paper-data="{&quot;origPos&quot;:null}"/><path d="M369.929,244.11754l-3.67334,-13.25024l3.4416,-0.9541l3.67333,13.25027z" data-paper-data="{&quot;origPos&quot;:null}"/></g><g data-paper-data="{&quot;origPos&quot;:null}"><path d="M375.77974,242.49553l-3.67334,-13.25024l3.4416,-0.9541l3.67333,13.25027z" data-paper-data="{&quot;origPos&quot;:null}"/><path d="M381.80259,240.82586l-3.67333,-13.25027l3.4416,-0.9541l3.67334,13.25025z" data-paper-data="{&quot;origPos&quot;:null}"/></g></g><path d="M349.16618,249.8736l-0.331,2.09561l-2.61906,0.77077l-0.541,-1.89862z" fill="#3a3a3a"/><path d="M355.01461,248.25225l-0.331,2.09561l-5.03935,1.44179l-2.75142,-9.40322l0.89091,-6.39823l3.73979,13.23184z" fill="#3a3a3a"/><path d="M360.99587,246.59403l-0.331,2.0956l-5.03935,1.44179l-2.75143,-9.4032l0.8909,-6.39824l3.73979,13.23184z" fill="#3a3a3a"/><path d="M367.44236,244.80686l-0.331,2.0956l-5.03935,1.44179l-2.75142,-9.40322l0.89091,-6.39823l3.73979,13.23184z" fill="#3a3a3a"/><path d="M373.49022,243.13027l-0.331,2.0956l-5.03934,1.44179l-2.75143,-9.4032l0.89091,-6.39823l3.73979,13.23184z" fill="#3a3a3a"/><path d="M379.27214,241.52736l-0.331,2.0956l-5.03934,1.44179l-2.75143,-9.4032l0.8909,-6.39824l3.73979,13.23184z" fill="#3a3a3a"/><path d="M385.32758,239.84867l-0.331,2.09561l-5.03934,1.44179l-2.75143,-9.4032l0.89091,-6.39823l3.73979,13.23184z" fill="#3a3a3a"/></g><g><g data-paper-data="{&quot;origPos&quot;:null}"><g data-paper-data="{&quot;origPos&quot;:null}" fill="none" stroke-width="1" font-family="sans-serif" font-weight="normal" font-size="12" text-anchor="start"/><g data-paper-data="{&quot;origPos&quot;:null}" fill="#4b4b4b" stroke-width="0"><path d="M354.10707,257.17533l-0.60718,-2.19014l3.61369,-1.00184l0.60718,2.19013z" data-paper-data="{&quot;origPos&quot;:null}"/><path d="M348.05386,258.73553l-0.60718,-2.19014l3.61369,-1.00184l0.60718,2.19014z" data-paper-data="{&quot;origPos&quot;:null}"/></g></g><g data-paper-data="{&quot;origPos&quot;:null,&quot;index&quot;:null}" fill="#4b4b4b" stroke-width="0"><g data-paper-data="{&quot;origPos&quot;:null}"><path d="M372.55293,251.82572l-0.60717,-2.19013l3.6137,-1.00184l0.60717,2.19013z" data-paper-data="{&quot;origPos&quot;:null}"/><path d="M378.54538,250.04652l-0.60717,-2.19012l3.6137,-1.00184l0.60717,2.19013z" data-paper-data="{&quot;origPos&quot;:null}"/></g><g data-paper-data="{&quot;origPos&quot;:null}"><path d="M360.53749,255.27469l-0.60718,-2.19014l3.6137,-1.00184l0.60717,2.19013z" data-paper-data="{&quot;origPos&quot;:null}"/><path d="M366.53001,253.49542l-0.60718,-2.19014l3.6137,-1.00184l0.60718,2.19014z" data-paper-data="{&quot;origPos&quot;:null}"/></g></g></g></g><path d="M173.59735,268.12889l-0.12421,-4.33967c0,0 3.60258,-4.26494 6.96533,-5.35285c3.84426,-1.24368 32.7306,-9.22589 32.7306,-9.22589c0,0 1.13906,1.63068 1.41324,2.81779c0.35324,1.52943 -0.86722,5.04799 -0.86722,5.04799z" fill="#242424" stroke-width="0"/><path d="M196.56081,257.80903l-0.84163,-3.0358l17.34749,-4.80927l0.84163,3.0358z" fill="#313131" stroke-width="0"/><path d="M193.90253,260.54945l-0.17424,-0.62855c0,0 0.74822,-1.29824 1.73414,-1.57155c0.93619,-0.25953 3.17152,-0.3864 5.57794,-0.88403c4.58421,-0.94793 10.03522,-2.35359 10.03522,-2.35359l0.17424,0.62855c0,0 -5.23151,1.44823 -9.75283,2.37926c-2.46701,0.508 -4.80477,0.56569 -5.77593,0.83493c-1.02079,0.28301 -1.81852,1.59496 -1.81852,1.59496z" fill="#616161" stroke-width="0"/><path d="M215.85231,238.16086l13.04048,-0.47442l31.14728,-3.12661c0,0 0.7664,0.0202 -7.23242,1.48195c-2.72106,0.49729 -13.40259,1.78878 -22.79854,2.41904c-2.54242,0.17052 -16.31109,0.41699 -16.31109,0.41699z" fill="#df8cb7" stroke-width="0"/><path d="M43.03943,292.64474l-1.58503,-5.71747c0,0 5.09209,-3.23075 8.75762,-4.24692c3.00084,-0.83194 12.11165,0.28049 12.11165,0.28049l3.14824,11.86078z" fill="#626061" stroke-width="0"/><path d="M157.54846,271.26197l4.32778,1.40076l11.44853,-4.54694l48.9006,-13.55661l0.2915,1.05136c0,0 -36.72145,10.02953 -48.12223,13.46222c-3.13005,0.94247 -12.28435,4.22831 -12.28435,4.22831z" fill="#ffa6d4" stroke-width="0"/><path d="M57.34094,355.02155l-1.91534,-6.90902l18.13336,-22.28455l2.10285,13.60148l-10.66089,13.46856z" fill="#3f3d3e" stroke-width="0"/><path d="M54.41824,350.58074c0,0 -5.06926,-18.98769 -6.85309,-28.43796c-2.01333,-10.66609 -4.62184,-32.35357 -4.62184,-32.35357c0,0 8.25086,-2.48388 12.14241,-1.85484c3.33064,0.53836 9.78713,5.39955 9.78713,5.39955l8.96338,32.33207c0,0 -7.76637,16.36781 -10.09705,19.35828c-3.58501,4.59984 -9.32093,5.55639 -9.32093,5.55639z" fill="#555354" stroke-width="0"/><path d="M45.62943,300.04275c0,0 -3.08519,-5.36362 -1.81473,-8.51479c1.27047,-3.15114 5.1903,-5.29311 7.65751,-5.97712c1.9682,-0.54565 6.06227,-1.59897 10.0223,1.92991c3.96007,3.52879 3.89214,10.46928 3.89214,10.46928c0,0 -8.85017,-8.34255 -11.42732,-8.06959c-3.63658,0.3852 -8.32993,10.16234 -8.32993,10.16234z" fill="#6f6b6c" stroke-width="0"/><path d="M54.31955,355.66373c0,0 -5.31043,-25.5733 -8.36768,-36.60121c-3.18384,-11.48465 -8.92535,-31.39277 -8.92535,-31.39277c0,0 0.94241,-0.92848 1.94541,-1.20652c0.9171,-0.25427 2.59881,-0.05325 2.59881,-0.05325c0,0 4.9108,18.51634 7.768,28.82238c3.31946,11.97386 8.28589,39.51503 8.28589,39.51503z" fill="#333232" stroke-width="0"/><path d="M54.02296,356.20632l-2.87493,-14.46598c0,0 1.25431,0.57469 1.82161,0.37731c0.71635,-0.24923 1.94837,-2.08256 1.94837,-2.08256l2.92981,15.11087z" fill="#2e2d2d" stroke-width="0"/><path d="M69.16185,314.38195c2.18117,7.86787 0.52257,17.32257 -2.90196,21.30979c-2.84417,3.31153 -8.26489,11.82703 -10.44608,3.95918c-0.46274,-1.66911 -1.66654,-13.66279 -3.42079,-20.47146c-2.32,-9.0043 -5.23654,-13.3645 -5.07005,-16.3491c0.30118,-5.39664 5.22845,-8.29788 7.36248,-8.88951c4.2066,-1.16619 12.29527,12.57321 14.47648,20.44107z" fill="#585758" stroke-width="0"/><path d="M106.13338,318.74654l-1.03608,-1.51916c0,0 7.29035,-3.42258 12.96026,-5.49685c7.98193,-2.92011 30.41406,-10.37113 30.41406,-10.37113l2.07295,0.75485c0,0 -23.76507,8.26986 -31.95694,11.33776c-2.40584,0.90102 -12.45421,5.29454 -12.45421,5.29454z" fill="#585657" stroke-width="0"/><path d="M103.98367,333.04093l1.34347,-14.58022l6.72509,-2.85092c0,0 -0.52254,4.62106 -0.23767,5.32572c1.3613,3.36702 10.65213,25.6623 10.65213,25.6623c0,0 -1.3061,0.81912 -2.95331,-0.67052c-2.95561,-2.67283 -6.55756,-8.7951 -8.8077,-10.35325c-1.9441,-1.34623 -6.722,-2.53313 -6.722,-2.53313z" fill="#5a5759" stroke-width="0"/><path d="M107.82833,300.00921l-0.2438,-11.69315l2.21884,-0.73044l-0.76754,12.20419z" fill="#a5a0a2" stroke-width="0"/><path d="M114.08181,297.15118l-0.37474,-1.35173l25.53321,-7.07854l0.37475,1.35173z" fill="#494748" stroke-width="0"/><path d="M113.21033,294.30944l-0.37474,-1.35173l25.53321,-7.07854l0.37474,1.35173z" fill="#494748" stroke-width="0"/><path d="M100.46952,321.0944l-5.38,-19.40638l9.23321,-12.53868l4.58524,-1.59465l-4.24648,45.60555l-5.94249,-0.4315z" fill="#dbd5d8" stroke-width="0"/><path d="M78.11702,339.65496l-3.30212,-11.32012l25.47481,-7.88162c0,0 0.99624,2.35729 1.0841,3.16154c0.21907,2.00482 0.13817,9.22671 0.13817,9.22671z" fill="#ccc6c9" stroke-width="0"/><path d="M78.72615,327.66609l-0.08435,-0.30431l21.7557,-6.93251l-2.19434,1.83732c0,0 -4.11482,1.33397 -6.73357,2.02701c-3.58575,0.94896 -12.74347,3.37256 -12.74347,3.37256z" fill="#d8d1d5" stroke-width="0"/><path d="M81.11556,323.12592l-4.54157,-16.38211l15.53892,-4.30784l4.54157,16.38211z" fill="#a39999" stroke-width="0"/><path d="M77.89588,339.89242l-3.03466,-10.94645c0,0 10.22191,3.79375 14.97806,4.90406c4.75618,1.11034 10.94628,-0.89632 10.94628,-0.89632z" fill="#b4afb1" stroke-width="0"/><path d="M111.93061,336.7276c0,0 3.19731,0.19335 4.21522,-0.23798c0.62529,-0.265 1.31118,-2.10401 1.31118,-2.10401l4.02214,8.30037l1.12074,4.04265c0,0 -1.78923,0.81919 -3.71176,-1.32782c-1.58623,-1.77146 -6.95759,-8.67313 -6.95759,-8.67313z" fill="#504e4f" stroke-width="0"/><path d="M104.42571,333.49566l2.78403,-44.08979l1.73505,-0.26811l-2.57562,44.45775z" fill="#858183" stroke-width="0"/><path d="M77.31334,298.71881l1.01873,-1.99521c0,0 26.24714,-7.94465 38.20638,-11.26008c10.37982,-2.87756 30.87818,-8.194 30.87818,-8.194l1.02889,1.72939c0,0 -20.71186,5.00929 -31.65278,8.04248c-12.49316,3.46351 -39.47943,11.67745 -39.47943,11.67745z" fill="#918b8e" stroke-width="0"/><path d="M77.96579,297.2608l1.43168,-2.41155c0,0 24.8531,-7.2563 36.81232,-10.57175c10.37982,-2.87755 30.87818,-8.194 30.87818,-8.194l1.02889,1.7294c0,0 -20.71185,5.00929 -31.65279,8.04247c-12.49316,3.46351 -38.49829,11.40537 -38.49829,11.40537z" fill="#a59fa2" stroke-width="0"/><path d="M145.77924,300.03098l-3.37367,-4.96167c0,0 -0.11796,-1.21774 0.17273,-1.41544c0.25612,-0.17418 1.48109,0.29088 1.48109,0.29088l3.37367,4.96168c0,0 -0.03165,0.9195 -0.28838,1.09405c-0.29043,0.19748 -1.3655,0.03048 -1.3655,0.03048z" fill="#494242" stroke-width="0"/><path d="M107.67605,313.34279l0.87996,-10.08739l3.74448,-1.03808l-0.87996,10.08739z" fill="#9c989a" stroke-width="0"/><path d="M112.14664,293.65685l1.52486,-1.42719l23.55541,-6.51152l2.19848,0.37625z" fill="#757274" stroke-width="0"/><path d="M112.98858,296.34071l1.52484,-1.4272l23.55541,-6.5115l2.19849,0.37624z" fill="#757274" stroke-width="0"/><path d="M75.30058,339.59185l-13.89206,-56.49994l2.00564,0.0466l14.52491,56.74079z" fill="#686666" stroke-width="0"/><path d="M75.21536,339.89597l-3.71194,-15.8398l3.22792,3.0676l3.13531,12.94289z" fill="#535252" stroke-width="0"/><path d="M98.73274,309.63883c0,0 1.42026,-2.82762 1.16729,-3.74006c-0.2482,-0.89533 -2.67103,-1.68409 -2.67103,-1.68409c0,0 3.07187,-0.15667 3.42245,1.49815c0.26706,1.26043 -0.16052,3.65056 0.04975,4.73623c0.59791,3.0869 1.89723,10.35119 1.89723,10.35119z" fill="#c4bec1" stroke-width="0"/><path d="M105.61901,305.74602l-0.8816,-10.33557l1.29296,-4.87695l-0.00505,9.92011z" fill="#aca7a9" stroke-width="0"/></g></g><g stroke-width="0"><path d="M211.95191,247.38738l1.57267,-3.89075c0,0 1.35802,-1.86693 2.22649,-1.82237c0.99016,0.05085 3.39731,2.11122 3.39731,2.11122l0.56822,4.07839c0,0 -4.12767,1.13645 -5.3835,1.34632c-0.56617,0.09459 -2.3812,-1.82278 -2.3812,-1.82278z" fill="#c0c0c0"/><path d="M173.17126,268.15361c0,0 -0.93944,-2.72816 -0.22305,-4.10856c0.89782,-1.72995 6.16572,-5.48601 6.16572,-5.48601l0.58078,4.75475l0.78041,2.81507z" fill="#838383"/><path d="M172.98548,268.12792l5.81151,-9.3746l36.19712,-10.03487l1.99862,7.20938z" fill="#999999"/><path d="M173.7728,267.22849l4.37536,-7.2744l32.54482,-9.02233l1.56049,5.6288c0,0 -3.939,1.09202 -9.00609,2.49677c-3.29446,0.91328 -7.34941,0.93542 -10.82498,1.89892c-3.72843,1.03364 -6.8329,2.99632 -8.92709,3.57693c-4.09859,1.13624 -9.72252,2.69536 -9.72252,2.69536z" fill="#d952b3"/><path d="M177.13752,266.2934l6.48765,-7.92446l12.01108,-3.32984c0,0 -6.59846,3.80859 -8.63803,5.32305c-2.16533,1.60779 -4.69693,4.4997 -4.69693,4.4997z" fill="#a5899d"/><path d="M184.80619,264.05045c0,0 4.64061,-2.29529 7.00841,-2.95169c3.02545,-0.83874 9.65977,-1.66916 9.65977,-1.66916l-9.39272,2.2561z" fill="#adadad"/><path d="M173.08139,268.08247l5.24992,-8.46172l33.69579,-9.34144l0.18397,0.66358c0,0 -29.17639,8.08851 -32.97952,9.14283c-0.79548,0.22053 -6.15005,7.99671 -6.15005,7.99671z" fill="#8a8a8a"/><path d="M220.20029,261.49081l-2.60612,-9.40075l-1.29689,-7.11399c0,0 1.26957,0.13564 1.95387,0.53073c0.6843,0.39502 1.35513,1.37944 1.35513,1.37944l2.53391,14.06689z" fill="#9e9e9e"/><path d="M213.81658,258.87024c0,0 -1.4463,-1.80409 -2.00258,-3.29895c-0.74909,-2.01298 -1.39883,-7.55917 -1.39883,-7.55917l1.78392,-0.8322c0,0 0.94282,0.56026 1.36348,0.28888c0.57997,-0.37418 1.79458,-2.32633 1.79458,-2.32633l2.93977,12.48573z" fill="#9c9c9c"/><path d="M214.85871,260.481c-1.04899,-0.85528 -1.18417,-2.24272 -1.18417,-2.24272l2.77682,-8.24176c0,0 2.38054,3.37028 2.62537,4.25345c0.69609,2.51085 2.93488,6.81902 2.93488,6.81902c0,0 -2.84943,0.87682 -3.96768,0.73169c-1.34123,-0.1741 -2.13614,-0.46443 -3.1852,-1.31972z" fill="#888888"/><path d="M216.36789,259.25923c-1.48657,-1.66301 -3.65266,-5.69392 -2.96221,-10.10551c0.69048,-4.41161 3.58639,-3.00288 3.58639,-3.00288c0,0 2.15154,3.99336 2.76944,6.22215c0.56288,2.03025 0.78823,6.61069 0.78823,6.61069c0,0 -2.69526,1.93859 -4.18178,0.27555z" fill="#b4b4b4"/><path d="M218.32258,250.73177c0.37698,1.3598 -4.52657,2.79948 -4.90357,1.43976c-0.37698,-1.3598 1.12739,-7.38278 1.9103,-7.5998c0.30319,-0.08404 0.95086,-0.15792 1.42359,0.81175c0.74783,1.53403 1.33868,4.5152 1.56965,5.34832z" fill="#bbbbbb"/></g><g stroke-width="0"><path d="M157.45158,271.27312c0,0 -6.95734,-3.17402 -7.45787,-4.97933c-0.40864,-1.47406 5.37527,-3.20528 5.37527,-3.20528l7.2902,-1.94651l-0.99824,11.46224z" fill="#f399c8"/><path d="M128.47352,281.01023c0,0 -1.49526,-1.76244 -1.53395,-2.8649c-0.04268,-1.21663 0.97968,-5.24095 0.97968,-5.24095l22.15122,-6.33358l11.09818,5.87168z" fill="#ee96c3"/></g></g><g stroke-width="0"><g><path d="M215.22161,236.49196l-1.65151,-5.95708l46.08019,-12.77476l1.65151,5.95708z" fill="#61585b"/><path d="M214.19779,233.40992l-0.88436,-3.19006l46.2554,-12.82328l0.88437,3.19004c0,0 -8.32684,2.30842 -16.88056,4.67976c-2.6744,0.74144 -6.02897,3.24585 -8.50019,3.93089c-2.93856,0.81462 -6.49545,0.22626 -8.38038,0.7488c-5.65213,1.56691 -12.49427,3.46372 -12.49427,3.46372z" fill="#494344"/><path d="M272.01334,210.52746l-14.05209,-15.7514l20.1589,-5.58861l19.3491,12.04286c0,0 -5.1389,2.83739 -8.18449,3.94972c-4.6996,1.71642 -17.27144,5.34746 -17.27144,5.34746z" fill="#5e555b"/><path d="M272.9331,213.83712l-1.4796,-5.33718c0,0 11.46327,-4.68587 15.96933,-6.74413c3.57612,-1.63346 6.12431,-2.94389 6.12431,-2.94389l7.57723,5.09985c0,0 -4.71218,2.96268 -8.59069,4.4986c-5.25521,2.08107 -19.60051,5.42675 -19.60051,5.42675z" fill="url(#color-5)"/><path d="M256.37044,195.38191l-1.06758,-3.85091l18.45544,-5.11635l4.57181,2.87946z" fill="url(#color-6)"/><path d="M272.37716,214.01713l-0.33638,-1.2135c0,0 15.02195,-4.24381 20.16793,-5.84425c3.84788,-1.19674 7.68645,-3.89723 7.68645,-3.89723l1.16241,0.86569l-7.37292,4.1822z" fill="#312c30"/><g><path d="M172.19725,230.78939l-2.58474,-8.4759l90.51152,-25.09236l10.37681,8.83059z" fill="#8a6672"/><path d="M190.34892,234.35543c0,0 -4.35488,-2.53451 -7.4481,-3.19366c-3.09323,-0.65919 -9.83439,1.45604 -9.83439,1.45604l-0.44948,-2.04116c0,0 11.94923,-3.02586 18.74851,-4.81194c16.24254,-4.26689 78.28541,-20.67862 78.28541,-20.67862l5.24588,5.36036z" fill="#755761"/><path d="M193.75931,235.99481l-3.60787,-1.68933l84.27221,-23.87049l1.98479,2.6471z" fill="#694e57"/><path d="M169.55953,222.73926l-1.20994,-4.36439l87.32428,-24.91375l5.22215,4.42701c0,0 3.54678,2.48067 -1.55412,3.86852c-1.60578,0.4369 -11.29503,-0.3725 -12.90486,0.06552c-15.50333,4.21821 -76.87756,20.91705 -76.87756,20.91705z" fill="#916b77"/><path d="M168.58274,218.31037l-0.78897,-2.40099l86.60394,-24.15303l1.6463,2.02609z" fill="#9e7582"/><path d="M240.19711,199.16651c-7.94767,1.53099 -70.53704,17.81125 -70.53704,17.81125l84.6609,-23.47044l6.61423,5.88819c0,0 -12.79039,-1.75997 -20.73812,-0.22901z" fill="#b38f9a"/></g><path d="M223.50833,227.74459l-2.45077,-8.84038l19.47756,-5.39975l2.45077,8.84039z" fill="#3a3336"/><path d="M220.97402,218.93171l0.28369,-1.65859l17.86462,-4.9526l1.35609,1.20394z" fill="#4b4246"/><path d="M223.50998,227.22599l-2.18466,-7.8804c0,0 2.42744,4.7915 5.28428,5.14751c2.85688,0.35601 15.83365,-2.51599 15.83365,-2.51599z" fill="#332c30"/><path d="M258.17469,197.18938l-5.3804,-4.73468c0,0 0.80765,-0.91574 1.38644,-1.07615c0.64704,-0.17935 2.31396,0.05031 2.31396,0.05031l5.3804,4.73468z" fill="#757575"/><path d="M262.35014,200.94496l-7.73027,-6.79404l3.70042,-1.02586l7.73026,6.79404z" fill="#5a5a5a"/><path d="M268.16363,206.02554l-7.73026,-6.79404l3.70041,-1.02584l7.73027,6.79404z" fill="#505050"/><path d="M274.17767,211.28994c-1.32032,-1.1604 -6.47197,-5.68815 -6.47197,-5.68815l3.70041,-1.02583l9.13224,8.18426c0,0 -1.83802,1.06525 -2.75694,1.30464c-0.71684,0.18674 -3.02156,-2.26329 -3.60372,-2.77496z" fill="#3b3b3b"/><path d="M171.40525,233.70508l-4.98898,-17.99599l3.06539,-0.84978l4.98898,17.99599z" fill="#443e42"/><path d="M153.64238,240.28876l-2.24452,-5.52934l19.49333,-5.40414l1.58367,5.71256z" fill="url(#color-7)"/><path d="M151.56636,235.36709l-2.89779,-10.45276l19.49333,-5.40414l2.89778,10.45277z" fill="#5e555b"/><path d="M148.70228,225.03606l-0.34102,-4.22467l18.72239,-5.19041l1.11195,4.01092z" fill="url(#color-8)"/><path d="M215.38852,202.43422l-1.63853,-5.91039l14.76119,-2.98536l5.71281,3.30504z" fill="#5e555b"/><path d="M234.31898,197.18619l-5.78406,-3.56199c0,0 3.09105,-0.14029 5.50502,0.22644c2.41396,0.36672 6.53207,1.60204 6.53207,1.60204z" fill="#776b73"/><path d="M212.78477,204.35513l2.75126,-2.05412l24.59834,-7.09609l3.91569,0.48261z" fill="#6d6269"/></g><g><path d="M223.84165,223.53235c-0.33363,-1.20345 -0.15089,-2.45445 -0.05143,-3.5504c0.13853,-1.5272 0.40185,-2.8328 1.4225,-3.99382c0.62344,-0.70922 1.61538,-1.38825 2.50413,-1.8841c0.58786,-0.32792 1.44381,-0.98043 2.12128,-1.16821c1.53576,-0.42579 1.88748,-0.43841 3.12795,-0.26757c0.74725,0.10292 2.44708,0.09768 3.14217,0.60251c0.58832,0.42722 1.3002,1.21421 1.81106,1.7778c0.87298,0.96324 2.1444,2.54561 2.51538,3.88376c0.15678,0.56549 0.04027,1.98673 0.13009,2.49675c0.28529,1.6191 0.42068,2.11038 -0.45388,3.49794c-0.53158,0.84333 -1.83767,1.77395 -2.6762,2.4318c-0.86837,0.68135 -1.86647,1.85678 -2.99653,2.17004c-0.76276,0.21144 -2.28184,0.07745 -3.05712,0.15103c-1.68207,0.15969 -2.58829,0.22991 -3.88499,-0.59382c-1.11194,-0.70638 -1.79011,-2.17695 -2.50378,-3.38794c-0.37492,-0.63616 -0.94398,-1.42034 -1.15068,-2.16584z" fill="#3a3a3a"/><path d="M224.51441,223.22274c-0.30528,-1.10131 -0.13802,-2.24605 -0.04705,-3.24894c0.12678,-1.39751 0.36768,-2.59225 1.3017,-3.65473c0.5705,-0.649 1.47825,-1.27044 2.29154,-1.72412c0.53796,-0.30011 1.32125,-0.89716 1.94114,-1.06899c1.40543,-0.38963 1.72725,-0.40123 2.86235,-0.24492c0.68377,0.09421 2.2393,0.08941 2.87538,0.55131c0.53837,0.39098 1.18988,1.11111 1.65728,1.62689c0.79888,0.88146 1.96231,2.32952 2.3018,3.55401c0.14344,0.51751 0.03684,1.81806 0.11907,2.28474c0.26103,1.48162 0.38495,1.93119 -0.41534,3.20091c-0.48643,0.77172 -1.68167,1.62327 -2.44896,2.22534c-0.79465,0.6235 -1.708,1.69914 -2.74208,1.98582c-0.69797,0.1935 -2.08809,0.07086 -2.79759,0.13824c-1.53927,0.14613 -2.36854,0.21039 -3.55515,-0.54335c-1.01755,-0.64637 -1.63809,-1.99216 -2.29117,-3.10028c-0.34308,-0.58218 -0.86382,-1.29973 -1.05294,-1.98192z" fill="#5a5a5a"/><path d="M235.05323,215.60088c-2.60799,-1.75272 -7.56994,-0.58532 -7.56994,-0.58532c0,0 1.7274,-1.03926 3.64712,-1.56426c1.55501,-0.42525 3.16762,-0.49411 4.63254,0.44981c1.46616,0.94472 2.24236,2.27023 2.89158,3.53835c1.27283,2.4863 1.49012,4.90915 1.49012,4.90915c0,0 -2.48342,-4.99495 -5.09142,-6.74768z" fill="#6d6d6d"/><path d="M231.26076,221.86042c-0.15387,-0.55479 0.17124,-1.1292 0.72604,-1.283c0.55479,-0.15387 1.1292,0.17124 1.28302,0.72604c0.15387,0.55479 -0.17124,1.1292 -0.72605,1.28301c-0.55479,0.15387 -1.1292,-0.17124 -1.28301,-0.72605z" fill="#272727"/><path d="M231.22112,222.01338c-0.14107,-0.50886 0.15704,-1.03569 0.66591,-1.17678c0.50886,-0.14107 1.03569,0.15704 1.17678,0.66591c0.14107,0.50886 -0.15704,1.03569 -0.6659,1.17678c-0.50886,0.14107 -1.03569,-0.15704 -1.17678,-0.6659z" fill="#131313"/></g></g></g></g></g><path d="M174.94047,351.64859c-0.42337,-1.52706 -15.91471,-41.46611 -15.88486,-43.21275c0.04026,-2.35825 8.57399,-3.32248 11.02761,-5.56735c7.51457,-6.87531 15.74546,-13.91729 15.74546,-13.91729c0,0 13.71208,-3.19903 17.79461,-4.33079c3.05302,-0.84634 59.87493,-25.40957 63.34682,-15.66122c4.70919,13.22243 -40.3671,13.5585 -37.12641,25.24825c0.8204,2.95933 3.19474,2.50393 3.4904,5.68789c0.07092,0.76415 -0.81175,6.3831 -0.58017,8.05816c0.36757,2.65899 4.61226,5.63574 2.2504,9.50663c-1.88274,3.0857 1.31922,7.40409 1.02848,8.74615c-2.00393,9.24843 -11.04644,7.80739 -19.73171,10.21519c-10.29769,2.85481 -24.28784,10.59706 -33.66095,11.91155c-4.046,0.5674 -6.4673,7.76056 -7.69958,3.31546z" fill="#86c8f5" stroke-width="0"/></g></g></svg>