<svg version="1.1" xmlns="http://www.w3.org/2000/svg" xmlns:xlink="http://www.w3.org/1999/xlink" width="454.07772" height="196.49152" viewBox="0,0,454.07772,196.49152"><defs><linearGradient x1="530.03572" y1="252.14112" x2="528.31654" y2="256.63511" gradientUnits="userSpaceOnUse" id="color-1"><stop offset="0" stop-color="#1f1d20"/><stop offset="1" stop-color="#202022"/></linearGradient><linearGradient x1="532.18102" y1="247.76361" x2="530.2029" y2="252.93435" gradientUnits="userSpaceOnUse" id="color-2"><stop offset="0" stop-color="#302d31"/><stop offset="1" stop-color="#1f1e20"/></linearGradient><linearGradient x1="202.32067" y1="173.04049" x2="201.1094" y2="176.20674" gradientUnits="userSpaceOnUse" id="color-3"><stop offset="0" stop-color="#585758"/><stop offset="1" stop-color="#575758"/></linearGradient><linearGradient x1="186.47202" y1="177.76831" x2="185.52111" y2="180.25398" gradientUnits="userSpaceOnUse" id="color-4"><stop offset="0" stop-color="#363536"/><stop offset="1" stop-color="#353536"/></linearGradient><linearGradient x1="353.53299" y1="142.3182" x2="351.55408" y2="147.49108" gradientUnits="userSpaceOnUse" id="color-5"><stop offset="0" stop-color="#5e555b"/><stop offset="1" stop-color="#2b2629"/></linearGradient><linearGradient x1="351.80395" y1="119.52908" x2="350.37609" y2="123.26147" gradientUnits="userSpaceOnUse" id="color-6"><stop offset="0" stop-color="#72676e"/><stop offset="1" stop-color="#5e555b"/></linearGradient><linearGradient x1="241.33762" y1="92.15048" x2="239.21947" y2="97.6872" gradientUnits="userSpaceOnUse" id="color-7"><stop offset="0" stop-color="#5e555b"/><stop offset="1" stop-color="#4d454a"/></linearGradient><linearGradient x1="246.43001" y1="78.83902" x2="244.9428" y2="82.72651" gradientUnits="userSpaceOnUse" id="color-8"><stop offset="0" stop-color="#74686f"/><stop offset="1" stop-color="#5e555b"/></linearGradient></defs><g transform="translate(-81.42498,-63.14262)"><g data-paper-data="{&quot;isPaintingLayer&quot;:true}" fill-rule="nonzero" stroke="none" stroke-linecap="butt" stroke-linejoin="miter" stroke-miterlimit="10" stroke-dasharray="" stroke-dashoffset="0" style="mix-blend-mode: normal"><path d="M210.80353,238.57413c-2.86362,8.18716 -8.7388,11.62476 -25.19907,5.86748c-6.10548,-2.13549 -16.10021,-7.29794 -21.12088,-8.30724c-3.73136,-0.75012 -7.48973,0.28091 -9.11509,-2.28512c-2.08368,-3.28957 4.56986,-21.99274 5.58187,-24.88615c2.86362,-8.18716 26.35928,-7.40848 42.81954,-1.65121c16.46023,5.75727 9.89725,23.07508 7.03364,31.26224z" fill="#86c8f5" stroke-width="0"/><g><g><g stroke-width="0"><path d="M265.01262,180.97271l-4.07195,-17.98761l24.09805,8.58701c0,0 -3.10861,5.05157 -4.25949,7.50053c-1.1133,2.36895 -2.53678,6.96125 -2.53678,6.96125z" fill="#7f7d7e"/><path d="M265.03418,181.19165l-1.39594,-6.53722c0,0 0.93263,4.16311 3.73549,5.89355c2.01832,1.24606 3.89072,1.6305 6.28054,2.88821c2.38979,1.2577 4.42596,2.74637 4.42596,2.74637z" fill="#6c6a6b"/></g><g><g><g><path d="M525.52289,255.56636l-0.20388,-5.22968c0,0 5.0036,3.68918 7.11051,5.45116c2.10688,1.76199 0.26405,2.27341 0.26405,2.27341z" fill="url(#color-1)" stroke-width="0"/><path d="M535.45764,249.23081c0,0 0.55023,2.70282 -2.19471,2.6087c-2.74493,-0.09412 -5.89336,0.01093 -5.89336,0.01093l1.07155,-5.5176z" data-paper-data="{&quot;index&quot;:null}" fill="url(#color-2)" stroke-width="0"/><path d="M516.54152,252.12555l0.74976,-1.95983l13.79739,5.2783c0,0 0.89076,1.19121 1.2155,1.70761c0.29193,0.4642 -1.02175,0.61322 -1.02175,0.61322z" fill="#444444" stroke-width="NaN"/><path d="M517.27153,250.31174l-0.48538,-2.06357l11.78286,4.50763l2.58325,2.74639c0,0 -4.02448,-1.28477 -6.18337,-2.09206c-2.43474,-0.91044 -7.69738,-3.09846 -7.69738,-3.09846z" fill="#535353" stroke-width="0"/><path d="M516.63255,248.33583l-0.07463,-0.71379l10.71636,4.09961l1.38639,1.09322z" fill="#363636" stroke-width="0"/><path d="M516.54152,252.12555l0.40673,-1.0632c0,0 5.86551,2.72956 8.55519,3.75852c2.27929,0.87195 6.55648,2.02259 6.55648,2.02259c0,0 0.6419,0.74047 0.80044,1.01834c0.13371,0.23442 -0.40135,0.35315 -0.40135,0.35315c0,0 -4.56483,-1.31327 -6.72585,-2.13996c-2.91549,-1.11535 -9.19163,-3.94941 -9.19163,-3.94941z" fill="#3a3a3a" stroke-width="NaN"/><path d="M516.85111,247.75376l-0.20121,-1.02313l12.7411,4.87422l-2.02926,0.20621z" fill="#242424" stroke-width="0"/><path d="M515.82759,246.6186l0.5911,-1.54511c0,0 7.63276,2.69919 10.43075,3.76961c1.90629,0.72929 4.73396,2.03179 4.73396,2.03179l-2.22609,0.74302z" fill="#3a3a3a" stroke-width="0"/><path d="M516.28244,245.06694l0.72983,-1.90773c0,0 7.26593,2.42644 10.36142,3.61065c2.67867,1.02472 7.14252,3.08565 7.14252,3.08565l-2.98839,1.04368c0,0 -3.38419,-1.38293 -5.48044,-2.18487c-2.78643,-1.06597 -9.76492,-3.64736 -9.76492,-3.64736z" fill="#444444" stroke-width="0"/><path d="M516.94155,243.22326l0.3041,-0.79487c0,0 7.39826,2.69783 10.75801,3.98313c2.33946,0.89497 7.4719,2.99086 7.4719,2.99086l-1.11201,0.4858c0,0 -4.61722,-2.07544 -7.38671,-3.13491c-3.05123,-1.16729 -10.03531,-3.53003 -10.03531,-3.53003z" fill="#535353" stroke-width="0"/><path d="M517.09422,242.4616l0.12166,-0.31798c0,0 7.35075,2.26922 10.5827,3.50563c2.79427,1.06898 7.68757,3.48381 7.68757,3.48381l-0.08653,0.33139c0,0 -5.55329,-2.30107 -8.58409,-3.46052c-3.07041,-1.17463 -9.72121,-3.54232 -9.72121,-3.54232z" fill="#4e4e4e" stroke-width="0"/></g><g stroke-width="0"><g><g><g><path d="M511.24856,249.57818l0.42409,-13.93178l1.13154,-1.41012c0,0 2.09162,4.25762 2.06326,6.91318c-0.0154,1.44168 -2.26038,8.94845 -2.26038,8.94845z" fill="#383638"/><path d="M512.47736,249.30799c0,0 0.27238,-0.54858 0.56239,-3.06603c0.31626,-2.74538 0.31527,-6.63988 0.3318,-7.7834c0.03712,-2.5669 -0.62134,-2.95851 -0.62134,-2.95851l4.69102,1.17167l-0.20902,14.45531z" fill="#555355"/><path d="M512.7795,235.60269l-0.10163,-1.36263c0,0 2.1727,-0.0254 3.07082,0.31821c0.8416,0.32196 1.64209,1.40687 1.64209,1.40687l0.07565,1.43055z" fill="#686668"/></g><path d="M505.95031,247.5513l0.42408,-13.93176l0.81539,-1.50952c0,0 2.4078,4.35699 2.37946,7.01252c-0.0154,1.44167 -2.26037,8.94846 -2.26037,8.94846z" fill="#383638"/><path d="M507.17912,247.2811c0,0 0.27238,-0.54859 0.5624,-3.06603c0.31626,-2.74538 0.31528,-6.63988 0.33181,-7.7834c0.03712,-2.5669 -0.62134,-2.95851 -0.62134,-2.95851l4.16921,0.43668c0,0 0.51021,1.53809 0.49892,2.32047c-0.0322,2.22911 -0.1861,12.86979 -0.1861,12.86979z" fill="#555355"/><path d="M507.48129,233.57575l-0.30544,-1.44061c0,0 2.37647,0.0526 3.27461,0.39621c0.8416,0.32196 1.37036,1.3029 1.37036,1.3029l0.19242,1.47523z" fill="#686668"/><path d="M513.59676,248.67223c0.29282,-0.7654 1.1507,-1.14851 1.91613,-0.85572c0.76541,0.29282 1.1485,1.15069 0.85571,1.91612c-0.29282,0.7654 -1.15069,1.14851 -1.91611,0.85572c-0.76541,-0.29282 -1.1485,-1.15069 -0.85572,-1.91612z" fill="#312f31"/><path d="M515.25574,246.17057l0.11441,-5.89479l1.53752,0.43471l-0.13745,5.95503z" fill="#444144"/></g><path d="M470.98875,228.85898l0.3511,-11.45417l27.4894,11.77592l-3.88646,8.8421z" fill="#444444"/><path d="M484.19419,229.71864c0,0 0.78048,-0.26022 1.84988,-1.03413c0.97778,-0.70754 2.22582,-1.91953 2.75076,-2.21522c1.52061,-1.24537 3.57537,0.04049 3.57537,0.04049l-1.14825,0.25995l-5.96034,3.35726z" fill="#292929"/><path d="M483.04655,240.55321l-2.16413,-12.57477c0,0 3.07794,1.74631 5.04395,1.37521c1.52776,-0.28841 2.38024,-2.78026 3.95381,-2.47905c4.51476,0.86428 16.69444,5.05919 16.69444,5.05919c0,0 0.47334,7.83103 0.30779,10.85882c-0.11427,2.09027 -1.31351,6.37673 -1.31351,6.37673z" fill="#4a464a"/><path d="M491.59431,229.78819c-4.03249,-2.22366 -2.19943,-2.98277 -2.19943,-2.98277c0,0 1.20567,-0.93301 3.00193,-0.4023c4.40803,1.30233 12.27441,4.92933 13.89213,5.52079c0.76293,0.27891 0.07507,0.77368 0.07507,0.77368c0,0 -2.24356,1.69629 -3.78259,1.37951c-1.53906,-0.31678 -6.95466,-2.06518 -10.98715,-4.28886z" fill="#5e595e"/></g><g><path d="M469.67242,242.47687l1.58783,-18.59569l17.55731,7.02325l2.93612,5.75751l5.73179,2.08724l-2.02297,13.59392z" fill="#4d4846"/><path d="M473.915,244.51437l22.64828,-1.39103l20.93477,7.74921c0,0 -0.26915,4.37552 -0.61965,5.69175c-0.17872,0.67106 -1.19667,2.69439 -1.19667,2.69439z" fill="#423d3b"/><path d="M473.32255,235.38931l0.54845,-10.33222l0.76636,0.29317l-0.54844,10.33222z" fill="#363332"/><path d="M474.74833,243.97489l0.43499,-1.13701c0,0 5.82645,-0.4964 14.29293,2.74252c1.12492,0.43036 4.18327,4.3257 5.31708,4.75945c7.19367,2.75201 14.23491,5.44566 16.91365,6.47047c2.18157,0.83459 4.87383,0.47262 4.87383,0.47262l-0.89949,2.35119z" fill="#312e2c"/><path d="M481.5139,232.92248l0.02062,-4.93369l7.75929,2.96839l2.30097,5.61408l5.82088,2.43459l-7.78499,-0.89177z" fill="#585350"/><path d="M470.14268,236.09455l0.40313,-1.05371c0,0 8.85233,-0.62166 11.53962,0.40638c4.0501,1.54941 15.23117,5.82683 15.23117,5.82683l-0.40313,1.05371c0,0 -11.37274,-4.35074 -15.4228,-5.90011c-2.63208,-1.00695 -11.34804,-0.33308 -11.34804,-0.33308z" fill="#2b2827"/></g></g></g><g><g><g><path d="M142.35972,156.36712c-0.2931,2.27974 -1.50736,4.58779 -2.62071,4.44463c-1.11337,-0.14315 -1.70425,-2.68325 -1.41112,-4.96302c0.2931,-2.27974 1.36201,-11.04697 2.47539,-10.9038c1.11337,0.14315 1.84958,9.14244 1.55647,11.42223z" fill="#615e5f" stroke-width="0"/><g><path d="M191.90033,143.27504c-0.31521,-0.68552 -2.03244,-2.74757 -2.03244,-2.74757l10.29418,0.85459l-8.17651,4.58091c0,0 0.22996,-2.00242 -0.08524,-2.68788z" fill="#756a6a" stroke-width="0"/><path d="M184.07603,138.46464l4.90698,-12.82677l19.40609,1.14266l-7.00317,18.30617z" fill="#8a7c7c" stroke-width="0"/><path d="M144.73679,129.24715l12.7057,-14.55429l32.67493,12.35733l-0.2918,13.4503c0,0 -22.03544,-6.74241 -29.55696,-8.61961c-3.12223,-0.77925 -15.53195,-2.63369 -15.53195,-2.63369z" fill="#7c787a" stroke-width="0"/><path d="M156.69378,116.98121l0.39096,-1.43664c0,0 24.21291,9.26283 31.82477,12.17479c4.25884,1.62925 17.35836,-0.18004 17.35836,-0.18004l-0.58228,1.52205c0,0 -12.81784,1.89641 -16.93146,0.30701c-7.54284,-2.91434 -32.06034,-12.38718 -32.06034,-12.38718z" fill="#535353" stroke-width="0"/><path d="M114.52202,118.44614l7.20112,-18.82357c0,0 6.75251,-4.96947 14.33885,-4.52551c9.42252,0.55146 24.55863,8.25315 26.49258,8.99302c1.48411,0.56777 -15.77746,5.11711 -15.77746,5.11711l-7.20112,18.82358z" fill="#8d898b" stroke-width="0"/><path d="M292.53982,137.14417l2.6203,-2.36407l100.41352,38.56694l-5.26889,13.7728c0,0 -35.94606,-11.77548 -47.21148,-16.53069c-5.59474,-2.36156 -50.5534,-33.44497 -50.5534,-33.44497z" fill="#c98cac" stroke-width="0"/><path d="M236.21806,223.73637l0.37852,-13.70591c0,0 2.71241,7.28984 4.98732,9.3131c1.44942,1.28905 5.26016,3.15564 11.83847,3.06253c5.29577,-0.07496 12.09229,-3.37516 12.09229,-3.37516l-16.21728,9.70908z" fill="#a08e97" stroke-width="0"/><path d="M337.49768,212.24976l6.25641,-22.8975l17.82424,5.3169l-7.57378,19.79776c0,0 -6.58934,-0.68016 -9.42139,-1.01598c-1.30403,-0.15461 -7.08544,-1.2012 -7.08544,-1.2012z" fill="#96858d" stroke-width="0"/><path d="M233.16331,226.57836l1.97953,-5.17446c0,0 10.52781,6.24223 15.95767,4.97755c2.64255,-0.61551 25.86119,-14.14499 38.68801,-21.69209c5.00566,-2.94522 8.42877,-4.97938 8.42877,-4.97938c0,0 4.48576,-2.32383 5.51935,-5.01432c0.51993,-1.35344 2.45192,-5.0884 2.50113,-7.5443c0.04964,-2.47785 -1.78583,-3.67071 -1.78583,-3.67071l0.29888,-14.4172l18.45657,7.21456l-12.21208,23.77964l2.59473,3.73558c0,0 -11.06814,2.18996 -17.16218,5.16461c-9.53492,4.65419 -42.23689,24.67619 -42.23689,24.67619z" fill="#918189" stroke-width="0"/><path d="M315.72163,204.29682l11.35376,-26.28205l12.76774,5.17965l5.39113,14.91287l-7.92664,14.44746z" fill="#96858d" stroke-width="0"/><path d="M310.83501,204.4073l-0.86233,-4.7687l12.66312,-23.19657l4.77477,1.73593l-10.84518,26.45825z" fill="#8f8187" stroke-width="0"/><path d="M336.11778,212.21046c0,0 4.95224,-5.24375 5.62217,-10.78071c0.3857,-3.18817 -3.49722,-6.78255 -3.26077,-8.73699c0.4517,-3.73348 1.15049,-9.50929 1.15049,-9.50929l5.77729,6.88257c0,0 0.60382,7.95459 -0.36059,12.14837c-0.64788,2.81759 -4.31182,8.24258 -6.10586,10.33882c-0.15124,0.17671 -1.22001,-0.32133 -1.3273,-0.18535c-0.26209,0.33214 0.5558,0.89273 0.5558,0.89273z" fill="#86787e" stroke-width="0"/><path d="M344.67063,191.39023c0,0 -1.4737,-4.7982 -5.49992,-7.37881c-4.55816,-2.92147 -20.45186,-9.25452 -20.45186,-9.25452l152.39203,43.11467l-0.13354,9.90812l3.41389,13.23623c0,0 -93.21963,-38.4151 -112.44891,-45.77139c-6.27478,-2.40045 -17.27165,-3.85425 -17.27165,-3.85425z" fill="#df8db7" stroke-width="0"/><path d="M183.73969,180.44684l8.47806,-35.58996c0,0 2.91226,-2.90167 3.45738,-2.92403c6.01042,-0.24657 39.7382,1.2516 44.7161,3.46244c5.45301,2.42185 -12.92941,8.16116 -12.92941,8.16116c0,0 -14.18247,-3.25648 -18.07117,-0.19393c-5.27968,4.15813 -6.95277,22.09811 -6.95277,22.09811z" fill="#c77da3" stroke-width="0"/><path d="M262.07313,178.36969l-0.91914,-2.6057c0,0 9.20118,-5.69483 12.2933,-6.96672c3.19234,-1.31307 6.56963,-0.79206 6.56963,-0.79206l4.72108,4.27098c0,0 -4.00103,-2.06874 -6.82195,-1.31032c-2.42168,0.65107 -7.02611,2.18588 -10.7464,4.07353c-2.7062,1.37316 -5.09653,3.33022 -5.09653,3.33022z" fill="#414041" stroke-width="0"/><path d="M156.76936,115.88988l8.65985,-9.20284l45.4184,17.37516c0,0 -4.29919,3.12572 -7.91537,3.84739c-3.54918,0.70831 -13.58436,0.44338 -13.58436,0.44338z" fill="#979395" stroke-width="0"/><path d="M157.92489,115.10827l7.91269,-9.48868l45.4184,17.37516c0,0 -4.2992,3.12573 -7.91538,3.84738c-3.54918,0.70831 -13.58437,0.44338 -13.58437,0.44338z" fill="#bdb7ba" stroke-width="0"/><path d="M338.25239,213.37044l-1.56579,-1.14878l17.22832,2.12098c0,0 -4.06047,0.64941 -6.66516,0.5062c-2.60473,-0.1432 -8.99733,-1.47841 -8.99733,-1.47841z" fill="#887980" stroke-width="0"/><path d="M185.89534,181.76877c0,0 1.55365,-10.61081 3.48264,-19.01475c1.93847,-8.44496 3.78009,-16.35588 5.04031,-19.71183c0.21351,-0.56853 5.30105,-9.25482 5.95417,-9.5632c3.52519,-1.66477 7.98913,8.33384 13.58026,9.29121c8.27858,1.41756 26.30935,7.76493 26.30935,7.76493l-9.79318,1.93957c0,0 -19.1894,-4.27345 -23.25874,-0.32985c-5.50415,5.33408 -5.89108,27.53406 -5.89108,27.53406z" fill="#d486ae" stroke-width="0"/><path d="M188.20949,178.88652c0,0 8.38219,-40.55361 13.22205,-49.4913c2.26451,-4.18182 2.38547,-13.88717 2.38547,-13.88717l44.83267,24.6123l-4.41195,15.51796c0,0 -28.8219,-14.33788 -36.99483,-10.74707c-5.45572,2.39695 -9.18747,31.20857 -9.18747,31.20857z" fill="#e490bb" stroke-width="0"/><g stroke-width="0"><path d="M340.00373,169.51063l2.95667,-7.72863l8.74213,3.34438l-2.95667,7.72864z" fill="#454545"/><path d="M341.0544,169.09368l2.27444,-6.9438l10.57852,4.0469l-2.60766,6.81632z" fill="#b0b0b0"/><path d="M342.44305,164.8186l0.79781,-2.72513l10.78087,4.12432l-0.68151,1.7815c0,0 -7.39364,-2.48325 -9.03038,-2.96102c-0.54692,-0.15961 -1.8668,-0.21968 -1.8668,-0.21968z" fill="#bebebe"/><path d="M351.73278,172.59044c0,0 -4.26191,-4.36638 -2.38952,-7.66264c2.78232,-4.89821 6.46065,-2.97917 6.46065,-2.97917l37.10951,15.62412l-3.59471,9.3965z" fill="#9c989a"/><path d="M353.86272,172.02489c0,0 -1.06525,-4.17517 -0.96215,-5.12807c0.15288,-1.41247 3.07265,-3.46181 3.07265,-3.46181l38.83802,14.89348l-3.0493,6.8514z" fill="#898587"/><path d="M353.70754,172.1778l-0.25934,-2.17566l35.708,13.66036l-0.69295,1.81138z" fill="#c1bcbf"/><path d="M354.80701,168.9646c0,0 -0.75653,-1.7541 -0.42163,-2.62958c0.31329,-0.81893 2.37058,-2.46494 2.37058,-2.46494l36.11421,13.81575l-1.94893,5.09446z" fill="#0d0d0d"/><path d="M354.52928,169.69058c0,0 -0.5408,-2.318 -0.20587,-3.19348c0.31329,-0.81893 2.15483,-1.90099 2.15483,-1.90099l36.1142,13.81574l-1.94893,5.09447z" fill="#2e2e2e"/><path d="M349.34178,169.7439c-1.36881,-3.80736 0.55429,-5.57336 0.55429,-5.57336c0,0 0.24194,4.49555 1.07517,5.77533c0.9865,1.51519 3.86997,4.08082 3.86997,4.08082l-3.30224,-1.18816c0,0 -1.95631,-2.42458 -2.19722,-3.09462z" fill="#7d7a7c"/><path d="M356.84701,170.90885c0,0 -0.03988,-2.38357 0.36874,-3.45163c0.35916,-0.93887 1.95375,-2.61926 1.95375,-2.61926l4.50494,1.7234c0,0 -1.21817,1.89374 -1.52839,2.70465c-0.4264,1.11451 -0.79408,3.36627 -0.79408,3.36627z" fill="#555555"/><path d="M364.89489,173.98761c0,0 1.52419,-2.11836 1.93276,-3.18641c0.35916,-0.93887 0.38971,-2.8845 0.38971,-2.8845l5.02798,1.9235c0,0 -1.00195,1.45298 -1.31219,2.26392c-0.4264,1.11451 -1.0103,3.80699 -1.0103,3.80699z" fill="#555555"/><path d="M373.60588,177.3201c0,0 1.5242,-2.11835 1.93278,-3.18641c0.35916,-0.93887 0.3897,-2.88448 0.3897,-2.88448l4.95325,1.89486c0,0 -1.00195,1.45298 -1.31219,2.26392c-0.4264,1.11451 -1.0103,3.80699 -1.0103,3.80699z" fill="#555555"/><path d="M382.63128,180.77283c0,0 1.56317,-1.7227 1.97178,-2.79081c0.35916,-0.93887 0.3507,-3.28012 0.3507,-3.28012l4.80383,1.83773c0,0 0.06503,2.14667 -0.2452,2.95764c-0.4264,1.11451 -2.07728,3.1133 -2.07728,3.1133z" fill="#555555"/><path d="M358.66935,165.40033l-0.33536,-0.98485l33.21504,12.70669l-1.71883,0.19901c0,0 -2.64326,-1.01124 -4.94293,-1.89098c-0.50125,-0.19179 -1.33235,-0.86168 -2.08314,-1.14895c-0.72599,-0.27774 -1.36451,-0.17 -2.26694,-0.51521c-1.40722,-0.53836 -2.99496,-1.14574 -4.65713,-1.78164c-0.68913,-0.26363 -1.15172,-0.85125 -1.8589,-1.12177c-0.62884,-0.24055 -1.50116,-0.16365 -2.13295,-0.40533c-1.56803,-0.59988 -3.12064,-1.19386 -4.58041,-1.75226c-0.67034,-0.25645 -1.16445,-0.91482 -1.78811,-1.1534c-0.76137,-0.29127 -1.63903,-0.15767 -2.30609,-0.41288c-2.72113,-1.04097 -4.54429,-1.73844 -4.54429,-1.73844z" fill="#474747"/></g><g><path d="M197.20582,175.44485l4.49626,-1.35004c0,0 1.63266,3.63841 3.9598,5.48693c2.0583,1.6349 9.29587,5.04213 9.29587,5.04213l-4.03563,3.11821z" fill="#6d6a6b" stroke-width="0"/><path d="M187.35627,178.63646l11.26085,-3.59921c0,0 2.21494,3.26336 4.00403,4.65648c2.70664,2.10756 10.65566,6.75855 10.65566,6.75855l-5.5344,2.49453z" fill="#615e5f" stroke-width="0"/><path d="M181.37409,199.86791l6.68008,-21.61299c0,0 3.78381,2.29543 8.27629,4.04576c3.50656,1.36621 7.58978,2.02131 9.69223,3.47694c3.69096,2.55547 30.58919,26.07456 30.58919,26.07456l-1.32065,10.38874z" fill="#575455" stroke-width="0"/><path d="M211.20246,182.32585c8.4641,-2.72056 20.80735,-12.40136 22.90143,-14.35338c1.5086,-1.4063 4.03587,-6.0884 4.03587,-6.0884l4.76019,9.1175c0,0 -1.85992,21.23389 -5.27599,33.46764c-0.95587,3.4231 -0.01419,8.0074 -1.64611,8.95321c-1.46214,0.8474 -18.122,-3.07421 -22.8869,-5.71586c-10.02754,-5.55926 -16.43395,-5.0234 -18.04658,-11.28854c-1.61263,-6.26511 7.25981,-9.58435 7.25981,-9.58435c0,0 6.69483,-3.79953 8.89837,-4.50782z" fill="#504e4f" stroke-width="0"/><path d="M227.41945,153.3845c0,0 0.90307,-1.25283 1.94059,-1.56631c1.33431,-0.40319 5.40127,-0.65219 5.40127,-0.65219c0,0 8.00994,5.27771 9.93179,8.67895c1.77321,3.13807 -7.76642,10.49645 -7.76642,10.49645l0.04159,-5.7244z" fill="#464445" stroke-width="0"/><path d="M232.24559,205.79621c0,0 -10.9066,2.52552 -18.89217,-0.3459c-7.70373,-2.77004 -12.50809,-10.91625 -11.89994,-12.20635c0.32947,-0.69898 8.9151,-0.95341 13.67046,-3.65399c5.28605,-3.00194 6.86706,-8.5016 8.84708,-9.89671c5.52768,-3.89473 17.05203,-10.3839 18.22047,-16.40768c1.22536,-6.31729 -8.0437,-12.08369 -8.0437,-12.08369c0,0 4.40155,-0.72699 9.10449,0.93312c2.00329,0.70714 5.7555,3.62639 6.48032,4.31582c2.37679,2.26086 3.65146,4.50036 3.65146,4.50036c0,0 5.16049,-3.25002 8.63536,-2.25201c3.4749,0.99802 20.00476,10.4776 20.00476,10.4776l-19.64031,5.97056z" fill="#555354" stroke-width="0"/><path d="M223.38831,180.10737c0,0 8.20064,-8.50403 14.56069,-11.88997c6.36003,-3.38595 11.30563,-4.89923 14.60479,-3.63711c2.38909,0.91396 2.38191,10.13554 2.38191,10.13554l-20.62508,22.91226c0,0 -14.82762,-2.16153 -15.32101,-5.00631c-0.38967,-2.24678 4.39871,-12.51442 4.39871,-12.51442z" fill="#585758" stroke-width="0"/><path d="M234.70048,213.66412c0,0 -0.47606,-6.81075 0.90849,-9.51688c1.93424,-3.78047 7.80411,-15.08318 7.80411,-15.08318l-1.90121,10.44595c0,0 -4.08103,8.87519 -5.03966,11.7525c-0.92495,2.77613 -0.37107,5.31178 -0.37107,5.31178z" fill="#3f3e3f" stroke-width="0"/><path d="M240.21647,196.64637c0.41587,-1.63405 3.42028,-8.74063 3.42028,-8.74063c0,0 14.13244,-10.19114 17.03934,-11.91966c0.85219,-0.50673 4.6048,-0.92441 4.6048,-0.92441l-3.27194,3.94529c0,0 -1.68574,0.00176 -2.02442,0.38382c-0.36083,0.40704 -0.0783,1.98814 -0.0783,1.98814l-7.82027,6.08775c0,0 -1.90274,0.3541 -2.25067,0.76207c-0.34802,0.40808 -0.0231,1.4833 -0.0231,1.4833c0,0 -6.79466,6.97383 -8.44433,8.92819c-0.76274,0.9036 -1.05506,2.32565 -1.05506,2.32565c0,0 -0.5122,-2.68544 -0.0963,-4.31953z" fill="#474647" stroke-width="0"/><path d="M235.44898,172.37219l16.72616,15.21608c0,0 -1.47213,0.52064 -1.88629,0.93937c-0.30559,0.30896 -0.3733,1.34525 -0.3733,1.34525z" fill="#3f3e3e" stroke-width="NaN"/><path d="M244.75205,164.84645l17.47617,14.24339c0,0 -1.34274,0.38923 -1.73857,0.83344c-0.41266,0.46308 -0.45316,1.6031 -0.45316,1.6031z" fill="#3f3e3e" stroke-width="NaN"/><path d="M222.88571,187.18837c0,0 7.23788,11.00565 10.59213,18.68891c3.35427,7.68331 1.11049,8.11704 1.11049,8.11704z" fill="#636162" stroke-width="NaN"/><path d="M243.53369,170.40121c0,0 -6.64214,0.56831 -10.31621,2.47751c-3.67409,1.90918 -17.24014,14.0461 -16.18768,11.29501c1.05244,-2.75108 20.71176,-17.4159 22.38821,-16.7746c0.63463,0.24278 3.87858,0.2608 4.55813,0.77498c1.11558,0.84419 -0.44243,2.22708 -0.44243,2.22708z" fill="#918f91" stroke-width="0"/><path d="M180.99423,199.58404l13.69712,3.21819c0,0 11.88315,4.19023 14.75739,5.45581c6.9996,3.08205 27.39267,13.10362 27.39267,13.10362l-2.67604,5.7441c0,0 -24.0268,-5.37419 -29.99604,-9.0664c-1.72688,-1.06813 -6.93874,-3.72373 -10.43041,-6.50729c-6.83306,-5.44724 -12.74466,-11.94806 -12.74466,-11.94806z" fill="#626061" stroke-width="0"/><path d="M233.35245,226.41804c0,0 1.57156,-3.99482 1.98827,-6.34063c0.4684,-2.63658 0.68526,-8.70881 0.68526,-8.70881l1.6647,0.63684c0,0 0.01325,4.77689 -0.41079,7.16378c-0.46364,2.60971 -2.26273,7.88566 -2.26273,7.88566z" fill="#4a494a" stroke-width="0"/><path d="M232.87127,227.12941l1.29625,-3.14137c0,0 0.43475,0.44974 0.68835,0.54678c0.30132,0.11528 0.96249,0.08478 0.96249,0.08478l-0.97273,3.02895c0,0 -0.87094,0.10325 -1.23067,0.00867c-0.27567,-0.07247 -0.74358,-0.52776 -0.74358,-0.52776z" fill="#363536" stroke-width="0"/><path d="M235.91655,212.42452l0.21866,-1.65151c0,0 0.51644,-0.18188 0.88178,-0.10555c0.34792,0.07271 0.792,0.37401 0.792,0.37401l-0.15191,1.80098c0,0 -0.63134,0.3018 -0.92952,0.23017c-0.28095,-0.06747 -0.811,-0.64811 -0.811,-0.64811z" fill="#585758" stroke-width="0"/><path d="M194.42103,211.06287c0,0 -6.31892,-5.57888 -5.8319,-6.85193c0.48945,-1.27938 6.73323,-0.14435 6.73323,-0.14435c0,0 10.30749,3.68543 14.8756,5.6178c2.55741,1.0818 10.19977,4.98937 10.19977,4.98937c0,0 6.43381,3.59002 6.78356,4.95695c0.38151,1.49104 -4.24284,2.76443 -4.24284,2.76443c0,0 -12.3506,-3.32645 -15.97928,-4.9376c-1.28903,-0.57236 -12.53812,-6.39461 -12.53812,-6.39461z" fill="#6b696a" stroke-width="0"/><path d="M187.18933,200.90704l-1.91467,-0.48535c0,0 1.81227,-2.98414 3.90891,-0.85205c2.09661,2.13209 20.17946,7.96694 20.17946,7.96694z" fill="#4b4949" stroke-width="0"/><path d="M181.11381,199.47558c0,0 -1.93435,-0.53488 -1.13256,-4.12833c0.40585,-1.81898 3.85166,-15.69599 3.85166,-15.69599l4.52523,-1.37285c0,0 -1.50482,5.84169 -2.34922,8.626c-1.1231,3.70314 -4.03287,12.90101 -4.03287,12.90101z" fill="#3f3d3e" stroke-width="0"/><path d="M187.43063,201.17699c0,0 3.75305,-0.87491 18.86996,4.54725c1.24837,0.44779 -1.66524,-0.67131 6.93275,3.16109c8.59798,3.83238 11.70774,6.64164 11.70774,6.64164c0,0 -13.68953,-6.38198 -19.48292,-8.59828c-6.60375,-2.52629 -18.02753,-5.75161 -18.02753,-5.75161z" fill="#838082" stroke-width="0"/><path d="M202.73557,175.30553c0,0 -4.86365,0.48138 -7.4724,1.21316c-2.93213,0.82246 -9.26376,3.48143 -9.26376,3.48143l-0.16041,-1.77619c0,0 4.89117,-2.25488 7.54554,-2.99947c2.90218,-0.81405 9.19061,-1.69511 9.19061,-1.69511z" fill="#4a494a" stroke-width="0"/><path d="M203.70003,175.39847l-3.92645,0.29726c0,0 0.321,-0.56927 0.29658,-0.83987c-0.02906,-0.32148 -0.38333,-0.89391 -0.38333,-0.89391l3.58077,-0.5592c0,0 0.5314,0.72439 0.6102,1.08799c0.06038,0.27866 -0.17777,0.90768 -0.17777,0.90768z" fill="url(#color-3)" stroke-width="0"/><path d="M187.13545,179.60147l-3.73154,1.49521l0.64552,-2.08995l2.6641,-1.14598c0,0 0.61787,0.41853 0.69017,0.71673c0.06809,0.28097 -0.26828,1.02397 -0.26828,1.02397z" fill="url(#color-4)" stroke-width="0"/></g><path d="M317.18615,203.68312c0,0 2.44498,-3.79562 3.41143,-4.9132c0.65602,-0.75863 3.38428,-1.24779 3.38428,-1.24779l15.97392,5.8773c0,0 -3.26441,4.95869 -4.10849,6.09862c-0.36978,0.49938 -1.61283,0.76539 -1.61283,0.76539z" fill="#665b60" stroke-width="0"/><path d="M278.3043,169.26167c0,0 -2.98549,-2.81499 -7.17692,-5.65214c-2.66447,-1.80361 -6.45012,-3.85861 -8.22608,-4.42477c-5.16326,-1.64603 -9.34,2.22184 -9.34,2.22184c0,0 -2.22976,-3.33242 -3.89287,-4.88378c-1.55245,-1.44812 -5.26057,-3.93837 -5.26057,-3.93837c0,0 24.75736,4.02001 28.56158,4.85424c7.29302,1.59925 32.07306,11.49813 32.07306,11.49813l0.70873,15.5665z" fill="#8b7c84" stroke-width="0"/><g stroke-width="0"><path d="M318.88168,203.32237c0,0 1.36806,-2.2564 2.07103,-2.94549c0.72893,-0.71451 3.14454,-0.91719 3.14454,-0.91719l13.57088,5.19161c0,0 0.00959,1.05609 -0.47388,1.66109c-0.65735,0.82256 -4.23227,2.39648 -4.23227,2.39648z" fill="#585852"/><path d="M319.14799,202.62619c0,0 1.10173,-1.56022 1.80472,-2.2493c0.72893,-0.71451 3.41085,-1.61335 3.41085,-1.61335l13.57088,5.19162c0,0 -0.2567,1.75229 -0.74019,2.35726c-0.65735,0.82256 -3.96591,1.7003 -3.96591,1.7003z" fill="#797971"/><path d="M336.10966,203.78768c-0.91604,-0.54095 -11.67441,-4.94722 -11.67441,-4.94722l13.55231,5.18454l-0.87964,2.2993c0,0 -0.08221,-1.99568 -0.99825,-2.53667z" fill="#85857b"/></g><path d="M326.70998,186.86496l1.85432,-4.84717l6.66487,2.54968l-0.64254,5.31077z" fill="#7c6e75" stroke-width="0"/><path d="M326.41531,158.4611l-0.99566,-9.08686l1.28826,0.49286l2.64204,10.20022z" fill="#d495b6" stroke-width="0"/><path d="M292.7123,137.39951l13.45037,1.83751l19.43364,10.23164l0.84731,8.98836z" fill="#df9cbe" stroke-width="0"/><path d="M325.06511,191.61856l0.57947,-1.5147l10.14875,3.88248l0.32937,1.86242z" fill="#7c6e75" stroke-width="0"/><path d="M291.51413,165.77021c0,0 -17.3648,-5.35991 -22.80444,-6.9054c-8.23682,-2.34019 -25.01109,-6.2677 -25.01109,-6.2677c0,0 15.61863,1.22052 28.7761,4.63076c14.26603,3.69756 55.92858,18.07547 55.92858,18.07547l-1.93267,5.05201z" fill="#75686e" stroke-width="0"/><path d="M281.91868,171.48975l-2.82518,-1.69196c0,0 9.97744,1.26403 14.69197,3.88429c4.71454,2.62028 11.55386,10.70288 11.55386,10.70288z" fill="#7c6e76" stroke-width="0"/><path d="M239.96924,151.12663c0,0 -24.72004,-25.94148 -23.90192,-30.57516c0.74321,-4.20912 27.01421,12.84843 27.33099,12.85374c5.54296,0.09277 75.25868,19.03828 75.25868,19.03828l22.4264,15.84861l49.48315,18.31833l1.97527,15.2906c0,0 -57.91312,-20.90363 -80.16877,-29.24313c-7.72553,-2.89488 -23.21526,-9.51404 -37.91636,-13.91719c-11.33994,-3.39644 -29.4011,-5.68416 -29.4011,-5.68416z" fill="#ee96c3" stroke-width="0"/><path d="M114.88015,116.70266l10.30842,-17.63487c0,0 2.42563,-6.62477 10.01199,-6.18079c9.42252,0.55146 24.55862,8.25316 26.49258,8.99303c1.48411,0.56778 -15.77747,5.11711 -15.77747,5.11711l-7.20111,18.82357z" fill="#c4b4b3" stroke-width="0"/><g stroke-width="0"><path d="M384.00125,200.11341l2.74209,-15.16414l84.21668,39.46035l-2.78163,5.15322l-46.0332,-12.40994z" fill="#ad6d8e"/><path d="M413.72991,196.13683l9.74852,-5.12803l25.76797,7.57824l-7.73744,8.17693z" fill="#8d788b"/><path d="M389.51562,188.14612l5.80095,-15.16356l28.22601,18.05522l-6.73079,4.77957z" fill="#857183"/><path d="M430.3208,200.20087l18.8667,-1.63505l24.65577,13.47156l-2.73044,6.33671z" fill="#947e92"/><path d="M385.83922,186.0881l7.26395,-10.88933l2.44602,-2.34463l-5.38238,14.06944z" fill="#756474"/><path d="M386.34463,197.56831l3.63997,-11.5335l41.04373,13.93621l-6.88237,14.55902z" fill="#746373"/><path d="M424.14421,214.51281c0,0 2.60857,-5.75532 3.81044,-8.34073c1.02898,-2.21355 2.9629,-6.23007 2.9629,-6.23007l40.95744,16.64195l-1.13338,8.56009z" fill="#867284"/><path d="M385.90216,186.03679l4.30872,0.00922l-3.84095,11.54011z" fill="#6f5e6d"/><path d="M467.14267,209.35876l-17.30814,-10.22274l23.66367,12.94608l-1.60643,3.18148c0,0 0.26785,-1.57778 -0.60888,-2.66782c-0.58646,-0.72919 -4.14026,-3.23705 -4.14026,-3.23705z" fill="#978195"/><path d="M428.98938,198.99585c0,0 8.68639,-0.38715 11.76504,-0.65919c2.24266,-0.19817 5.00679,-0.82281 5.00679,-0.82281l2.32632,1.01055l-16.62432,1.41781z" fill="#9c859a"/><path d="M415.26902,194.61245c0,0 2.2129,-2.10028 3.95651,-2.87891c1.74359,-0.77871 4.19074,-0.71537 4.19074,-0.71537l-5.84819,4.47382z" fill="#806b7d"/><path d="M451.28421,197.49875l4.04105,-4.59261l12.8627,8.91792l2.94359,7.97845z" fill="#55494f"/><path d="M447.91761,199.20886c0,0 1.2933,-0.35129 2.02566,-0.69721c0.55161,-0.26053 1.68892,-1.30793 1.68892,-1.30793l19.41155,11.70874c0,0 0.63303,0.77427 1.06415,1.28788c0.45058,0.53676 1.58356,1.86636 1.58356,1.86636z" fill="#685960"/><path d="M452.12713,196.86596l3.18744,-3.69008l12.02381,8.16177c0,0 -6.93053,-4.2924 -11.2068,-5.65561c-2.48049,-0.79078 -4.00444,1.18392 -4.00444,1.18392z" fill="#41383c"/></g><path d="M130.44626,80.60118l1.86095,-4.86453c0,0 21.32479,6.77137 41.81308,14.67031c12.20916,4.70706 24.31239,11.04783 30.90186,13.19381c14.85783,4.83871 26.24781,4.36493 26.24781,4.36493l-9.72487,7.67501z" fill="#ffa1d1" stroke-width="0"/><path d="M123.05136,92.71631l7.76411,-14.24903c0,0 50.44285,21.50349 67.26934,27.46877c9.96733,3.53359 24.38651,5.02487 24.38651,5.02487l-5.23177,13.67578c0,0 -63.04514,-24.11845 -78.24336,-29.93264c-6.24892,-2.39057 -25.55071,23.12185 -25.55071,23.12185z" fill="#ee96c3" stroke-width="0"/><path d="M263.0998,228.19133l13.5253,-9.38261c0,0 14.92976,-11.26651 26.16164,-14.31744c2.85422,-0.7753 8.11002,-0.04574 8.11002,-0.04574c0,0 -8.60298,2.04634 -12.02388,3.72635c-8.07872,3.9675 -35.77305,20.01941 -35.77305,20.01941z" fill="#70646b" stroke-width="0"/><path d="M375.93839,201.93523l0.54745,-19.0647l1.26099,0.48239c0,0 -0.16579,5.77382 -0.25342,8.8247c-0.01247,0.43469 0.82607,2.06289 0.81062,2.60133c-0.02679,0.93336 -0.90991,0.85625 -0.93986,1.89947c-0.0834,2.90486 -0.16478,5.73923 -0.16478,5.73923z" fill="#795467" stroke-width="0"/><path d="M217.67591,125.26595c0,0 -7.44892,-9.86507 -5.4656,-13.14805c1.1875,-1.96572 19.7596,-3.37496 19.7596,-3.37496l63.38255,26.03775l-2.6349,2.30695l25.81761,15.49609l-76.55203,-0.83212c0,0 1.26671,-5.526 5.65244,-6.90835c4.26245,-1.34352 20.3026,-1.27261 20.3026,-1.27261c0,0 -31.94113,-12.27177 -38.71979,-14.95783c-2.26153,-0.89613 -11.54251,-3.34689 -11.54251,-3.34689z" fill="#f399c8" stroke-width="0"/><g><path d="M229.60409,109.89805l1.15707,-3.02459l164.89898,63.08344l-1.15707,3.02458z" fill="#584f54" stroke-width="0"/><path d="M390.15777,168.11768l0.97769,-2.55572l2.85357,1.09165l1.54016,3.5189z" fill="#685d63" stroke-width="0"/><g fill="#685d63" stroke-width="0"><g><g><g><path d="M383.84833,165.97074l1.06369,-2.78047l3.62493,1.38674l-1.06369,2.78047z"/><path d="M377.96653,163.72064l1.06369,-2.78047l3.62493,1.38674l-1.06369,2.78047z"/></g><g><path d="M372.30666,161.55535l1.06369,-2.78048l3.62493,1.38675l-1.06369,2.78047z"/><path d="M366.42481,159.30521l1.06369,-2.78047l3.62492,1.38675l-1.0637,2.78048z"/></g></g><g><g><path d="M360.65394,157.09756l1.0637,-2.78048l3.62492,1.38674l-1.06369,2.78047z"/><path d="M354.77212,154.84742l1.06369,-2.78047l3.62493,1.38674l-1.06369,2.78048z"/></g><g><path d="M349.11225,152.68217l1.06369,-2.78048l3.62492,1.38675l-1.06369,2.78047z"/><path d="M343.23051,150.43203l1.06369,-2.78047l3.62492,1.38674l-1.06369,2.78048z"/></g></g></g><g><g><g><path d="M343.00852,150.34717l1.06369,-2.78047l3.62492,1.38674l-1.06369,2.78047z"/><path d="M337.12674,148.09702l1.06369,-2.78047l3.62493,1.38675l-1.06369,2.78047z"/></g><g><path d="M331.46685,145.9318l1.06369,-2.78048l3.62492,1.38674l-1.06369,2.78047z"/><path d="M325.58504,143.68166l1.06369,-2.78047l3.62493,1.38673l-1.06369,2.78048z"/></g></g><g><g><path d="M319.81421,141.474l1.06369,-2.78048l3.62493,1.38674l-1.06369,2.78047z"/><path d="M313.93239,139.22384l1.06369,-2.78048l3.62493,1.38675l-1.06369,2.78048z"/></g><g><path d="M308.27255,137.05861l1.06369,-2.78047l3.62493,1.38672l-1.06369,2.78048z"/><path d="M302.39074,134.80847l1.06369,-2.78047l3.62493,1.38674l-1.06369,2.78047z"/></g></g></g></g><g><g fill="#685d63" stroke-width="0"><g><g><path d="M296.58214,132.58636l1.06369,-2.78049l3.62493,1.38675l-1.06369,2.78047z"/><path d="M290.70032,130.33618l1.06369,-2.78047l3.62493,1.38675l-1.06369,2.78048z"/></g><g><path d="M285.04041,128.171l1.06369,-2.78047l3.62493,1.38675l-1.06369,2.78048z"/><path d="M279.15866,125.92088l1.06369,-2.78047l3.62493,1.38674l-1.06369,2.78048z"/></g></g><g><g><path d="M273.38782,123.71321l1.06369,-2.78048l3.62493,1.38674l-1.06369,2.78047z"/><path d="M267.50599,121.46306l1.06369,-2.78047l3.62493,1.38674l-1.06369,2.78048z"/></g><g><path d="M261.84611,119.29781l1.06369,-2.78047l3.62492,1.38674l-1.06369,2.78048z"/><path d="M255.96428,117.04766l1.06369,-2.78047l3.62493,1.38674l-1.06369,2.78048z"/></g></g></g><g><g fill="#685d63" stroke-width="0"><g><path d="M255.74235,116.96277l1.06369,-2.78048l3.62493,1.38674l-1.06369,2.78047z"/><path d="M249.86053,114.71261l1.06369,-2.78048l3.62493,1.38674l-1.06369,2.78048z"/></g><g><path d="M244.20067,112.5474l1.06369,-2.78047l3.62493,1.38674l-1.06369,2.78048z"/><path d="M238.31887,110.29726l1.06369,-2.78048l3.62493,1.38674l-1.06369,2.78047z"/></g></g><g fill="none" stroke-width="1" font-family="sans-serif" font-weight="normal" font-size="12" text-anchor="start"><g/><g/></g></g></g><path d="M230.7393,107.13085l3.49555,-1.59246l2.85357,1.09166l-0.9777,2.55572z" data-paper-data="{&quot;index&quot;:null}" fill="#685d63" stroke-width="0"/></g><path d="M272.14306,158.18096l-2.4799,-0.6596c0,0 2.48549,-1.79814 11.85015,0.57697c7.09983,1.80072 26.77429,7.92316 38.53845,11.6252c5.46299,1.7191 61.45143,13.49979 61.45143,13.49979l4.86072,1.8442c0,0 -61.44512,-12.10925 -66.89586,-13.84855c-12.05305,-3.84607 -32.33219,-10.27939 -38.28164,-11.936c-3.23866,-0.90182 -9.04331,-1.10195 -9.04331,-1.10195z" fill="#70475c" stroke-width="0"/><path d="M359.59346,212.0083l-5.25828,-0.03532l6.76493,-17.68145c0,0 7.25983,2.82913 14.35982,5.59598c20.38192,7.94275 118.33885,46.11612 118.33885,46.11612l-2.40368,6.28319z" fill="#5a5959" stroke-width="0"/><path d="M358.15698,213.20228l2.09297,-2.41784l131.19562,41.40445l-15.05137,6.24596z" fill="#4b4a4a" stroke-width="0"/><path d="M473.39288,257.08421c0,0 -4.36416,-5.1222 -6.68618,-7.53953c-1.24445,-1.29551 -6.16303,-5.83703 -6.16303,-5.83703c0,0 6.43573,5.57101 9.22084,7.65144c0.99397,0.74246 1.77801,1.8377 2.80722,2.7969c0.33189,0.30928 3.0208,-1.61622 5.40688,-2.53891c0.71319,-0.27581 1.6666,0.47925 2.27549,0.35802c1.39587,-0.27793 2.12116,-1.16906 2.12116,-1.16906c0,0 -0.01695,0.98879 -1.58909,1.68687c-0.42895,0.19048 -2.23875,-0.12466 -2.67147,0.09565c-1.73424,0.88292 -3.24124,2.01849 -3.73749,2.46164c-1.38479,1.23666 0.38236,2.55683 0.38236,2.55683z" fill="#414040" stroke-width="0"/><path d="M217.5239,125.52623l7.52903,-9.00295l6.76667,1.92019c0,0 -1.83409,2.13372 -2.91504,3.39127c-0.27224,0.31673 11.44225,2.70379 11.53122,3.45626c0.16518,1.39611 -6.38254,2.91693 -7.06234,3.7078c-0.77718,0.90414 -9.04848,-1.83631 -9.04848,-1.83631z" fill="#303030" stroke-width="0"/><path d="M217.52202,125.12931l7.13302,-8.26032c0,0 2.33597,2.29047 1.98405,3.21041c-0.64036,1.67386 -4.18291,6.51484 -4.18291,6.51484z" fill="#252525" stroke-width="0"/><path d="M353.36939,214.4469l1.05492,-2.75749l6.21406,-0.78382l-2.21128,2.31511c0,0 -1.49551,0.85752 -2.38499,1.07317c-0.78269,0.18976 -2.67266,0.15302 -2.67266,0.15302z" fill="#383838" stroke-width="0"/><g><g fill="#4b4b4b" stroke-width="0"><g data-paper-data="{&quot;origPos&quot;:null}"><g data-paper-data="{&quot;origPos&quot;:null}"><path d="M415.58867,239.71723l0.81205,-2.12272l3.50248,1.33989l-0.81205,2.12272z" data-paper-data="{&quot;origPos&quot;:null}"/><path d="M409.79182,237.37797l0.81205,-2.12272l3.50247,1.3399l-0.81205,2.12271z" data-paper-data="{&quot;origPos&quot;:null}"/></g><g data-paper-data="{&quot;origPos&quot;:null}"><path d="M427.22288,244.28968l0.81205,-2.12272l3.50248,1.33989l-0.81205,2.12271z" data-paper-data="{&quot;origPos&quot;:null}"/><path d="M421.42606,241.95042l0.81205,-2.12271l3.50248,1.33989l-0.81206,2.12272z" data-paper-data="{&quot;origPos&quot;:null}"/></g></g><g data-paper-data="{&quot;origPos&quot;:null,&quot;index&quot;:null}"><g data-paper-data="{&quot;origPos&quot;:null}"><path d="M445.24091,250.93932l0.81206,-2.12273l3.50248,1.33989l-0.81205,2.12271z" data-paper-data="{&quot;origPos&quot;:null}"/><path d="M451.11892,253.0663l0.81204,-2.12271l3.50248,1.33989l-0.81205,2.1227z" data-paper-data="{&quot;origPos&quot;:null}"/></g><g data-paper-data="{&quot;origPos&quot;:null}"><path d="M433.52547,246.5791l0.81206,-2.12272l3.50247,1.3399l-0.81204,2.12271z" data-paper-data="{&quot;origPos&quot;:null}"/><path d="M439.40348,248.70617l0.81205,-2.12271l3.50248,1.33988l-0.81205,2.12271z" data-paper-data="{&quot;origPos&quot;:null}"/></g></g></g><path d="M378.63309,216.75175l4.86332,-12.71263l78.89771,30.18294l-4.86332,12.71263z" data-paper-data="{&quot;origPos&quot;:null}" fill="#444444" stroke-width="0"/><path d="M377.03781,221.19744l1.7088,-4.46675l78.66581,30.09422l-1.70881,4.46676z" data-paper-data="{&quot;origPos&quot;:null}" fill="#414141" stroke-width="0"/><path d="M376.56143,222.54008l0.578,-1.51084l78.65582,30.09042l-0.57799,1.51084z" data-paper-data="{&quot;origPos&quot;:null}" fill="#3f3f3f" stroke-width="0"/><g stroke-width="0"><g data-paper-data="{&quot;origPos&quot;:null}" fill="#5a5a5a"><g data-paper-data="{&quot;origPos&quot;:null}"><path d="M419.01993,232.28703l4.91291,-12.84234l3.33568,1.27609l-4.91292,12.84234z" data-paper-data="{&quot;origPos&quot;:null}"/></g><g data-paper-data="{&quot;origPos&quot;:null}"><path d="M424.69057,234.45639l4.91291,-12.84234l3.33568,1.2761l-4.91292,12.84233z" data-paper-data="{&quot;origPos&quot;:null}"/><path d="M430.52799,236.68954l4.91293,-12.84233l3.33568,1.27609l-4.91292,12.84233z" data-paper-data="{&quot;origPos&quot;:null}"/></g></g><g data-paper-data="{&quot;origPos&quot;:null}" fill="#5a5a5a"><g data-paper-data="{&quot;origPos&quot;:null}"><path d="M436.69897,239.0503l4.91291,-12.84234l3.33568,1.27609l-4.91293,12.84235z" data-paper-data="{&quot;origPos&quot;:null}"/><path d="M442.53639,241.28345l4.91292,-12.84233l3.33568,1.27609l-4.91292,12.84233z" data-paper-data="{&quot;origPos&quot;:null}"/></g><g data-paper-data="{&quot;origPos&quot;:null}"><path d="M448.20703,243.45283l4.91293,-12.84233l3.33566,1.27608l-4.91293,12.84234z" data-paper-data="{&quot;origPos&quot;:null}"/><path d="M454.0445,245.68595l4.91293,-12.84234l3.33567,1.27609l-4.91291,12.84234z" data-paper-data="{&quot;origPos&quot;:null}"/></g></g><path d="M422.41288,233.58505l-1.51076,1.48954l-4.91077,-1.83254l3.37016,-9.19956l4.51635,-4.61888l-4.84851,12.86698z" fill="#3a3a3a"/><path d="M428.08124,235.75351l-1.51077,1.48955l-4.91077,-1.83255l3.37017,-9.19956l4.51634,-4.61888l-4.84851,12.86697z" fill="#3a3a3a"/><path d="M433.87836,237.97125l-1.51077,1.48954l-4.91077,-1.83255l3.37016,-9.19955l4.51634,-4.61888l-4.84851,12.86698z" fill="#3a3a3a"/><path d="M440.12643,240.36152l-1.51076,1.48954l-4.91077,-1.83255l3.37016,-9.19956l4.51634,-4.61888l-4.8485,12.86699z" fill="#3a3a3a"/><path d="M445.98804,242.60392l-1.51076,1.48954l-4.91077,-1.83255l3.37016,-9.19956l4.51634,-4.61888l-4.8485,12.86699z" fill="#3a3a3a"/><path d="M451.59197,244.74771l-1.51077,1.48954l-4.91076,-1.83255l3.37016,-9.19956l4.51634,-4.61888l-4.84851,12.867z" fill="#3a3a3a"/><path d="M457.46094,246.99297l-1.51076,1.48954l-4.91077,-1.83255l3.37017,-9.19955l4.51634,-4.61889l-4.84851,12.86698z" fill="#3a3a3a"/></g><g stroke-width="0"><g data-paper-data="{&quot;origPos&quot;:null}" fill="#5a5a5a"><g data-paper-data="{&quot;origPos&quot;:null}"><path d="M378.64451,216.84111l4.91293,-12.84233l3.33569,1.27609l-4.91291,12.84234z" data-paper-data="{&quot;origPos&quot;:null}"/></g><g data-paper-data="{&quot;origPos&quot;:null}"><path d="M384.31513,219.01046l4.91291,-12.84233l3.33568,1.27609l-4.91292,12.84234z" data-paper-data="{&quot;origPos&quot;:null}"/><path d="M390.15254,221.24361l4.91292,-12.84234l3.33569,1.27609l-4.91293,12.84234z" data-paper-data="{&quot;origPos&quot;:null}"/></g></g><g data-paper-data="{&quot;origPos&quot;:null}" fill="#5a5a5a"><g data-paper-data="{&quot;origPos&quot;:null}"><path d="M396.32355,223.60436l4.91293,-12.84234l3.33568,1.2761l-4.91292,12.84233z" data-paper-data="{&quot;origPos&quot;:null}"/><path d="M402.16103,225.83753l4.91292,-12.84234l3.33568,1.2761l-4.91293,12.84233z" data-paper-data="{&quot;origPos&quot;:null}"/></g><g data-paper-data="{&quot;origPos&quot;:null}"><path d="M407.83167,228.00688l4.91292,-12.84233l3.33569,1.27609l-4.91293,12.84233z" data-paper-data="{&quot;origPos&quot;:null}"/><path d="M413.66909,230.24004l4.91293,-12.84234l3.33568,1.2761l-4.91294,12.84235z" data-paper-data="{&quot;origPos&quot;:null}"/></g></g><path d="M382.03742,218.13907l-1.51077,1.48954l-2.565,-0.93508l0.6922,-1.84886z" fill="#3a3a3a"/><path d="M387.70583,220.3076l-1.51076,1.48955l-4.91077,-1.83255l3.37017,-9.19955l4.51635,-4.61887l-4.84851,12.86698z" fill="#3a3a3a"/><path d="M393.50293,222.52531l-1.51076,1.48954l-4.91077,-1.83255l3.37016,-9.19955l4.51635,-4.61888l-4.84852,12.86699z" fill="#3a3a3a"/><path d="M399.751,224.91553l-1.51076,1.48953l-4.91077,-1.83253l3.37017,-9.19956l4.51635,-4.61887l-4.84851,12.86698z" fill="#3a3a3a"/><path d="M405.61262,227.15799l-1.51077,1.48954l-4.91077,-1.83255l3.37016,-9.19956l4.51635,-4.61887l-4.84852,12.86699z" fill="#3a3a3a"/><path d="M411.21654,229.30178l-1.51076,1.48954l-4.91077,-1.83255l3.37016,-9.19955l4.51635,-4.61888l-4.84851,12.86698z" fill="#3a3a3a"/><path d="M417.08557,231.54706l-1.51076,1.48955l-4.91077,-1.83255l3.37016,-9.19956l4.51635,-4.61887l-4.84851,12.86698z" fill="#3a3a3a"/></g><g><g data-paper-data="{&quot;origPos&quot;:null}"><g data-paper-data="{&quot;origPos&quot;:null}" fill="none" stroke-width="1" font-family="sans-serif" font-weight="normal" font-size="12" text-anchor="start"/><g data-paper-data="{&quot;origPos&quot;:null}" fill="#4b4b4b" stroke-width="0"><path d="M381.67677,226.94802l0.81206,-2.12272l3.50247,1.3399l-0.81204,2.12271z" data-paper-data="{&quot;origPos&quot;:null}"/><path d="M375.87996,224.60875l0.81205,-2.12272l3.50248,1.33989l-0.81205,2.12272z" data-paper-data="{&quot;origPos&quot;:null}"/></g></g><g data-paper-data="{&quot;origPos&quot;:null,&quot;index&quot;:null}" fill="#4b4b4b" stroke-width="0"><g data-paper-data="{&quot;origPos&quot;:null}"><path d="M399.69486,233.59763l0.81205,-2.12271l3.50248,1.33989l-0.81205,2.12271z" data-paper-data="{&quot;origPos&quot;:null}"/><path d="M405.57287,235.72462l0.81204,-2.12269l3.50248,1.33989l-0.81205,2.12271z" data-paper-data="{&quot;origPos&quot;:null}"/></g><g data-paper-data="{&quot;origPos&quot;:null}"><path d="M387.97929,229.23744l0.81205,-2.12272l3.50248,1.33989l-0.81205,2.12271z" data-paper-data="{&quot;origPos&quot;:null}"/><path d="M393.85734,231.36439l0.81206,-2.12272l3.50248,1.33989l-0.81205,2.12272z" data-paper-data="{&quot;origPos&quot;:null}"/></g></g></g></g><path d="M229.93644,128.56811l2.47708,-3.56541c0,0 5.43128,-1.29214 8.78292,-0.17053c3.8316,1.28217 31.81328,12.01353 31.81328,12.01353c0,0 -0.05189,1.98844 -0.53623,3.1064c-0.62402,1.44032 -3.69537,3.54657 -3.69537,3.54657z" fill="#242424" stroke-width="0"/><path d="M254.54083,133.90142l1.12564,-2.94236l16.81346,6.43212l-1.12565,2.94236z" fill="#313131" stroke-width="0"/><path d="M250.77467,134.52769l0.23304,-0.60919c0,0 1.37296,-0.60024 2.32851,-0.23467c0.90736,0.34711 2.78123,1.57248 5.01289,2.60115c4.25131,1.9596 9.47186,4.06558 9.47186,4.06558l-0.23306,0.60918c0,0 -5.06918,-1.94148 -9.25989,-3.87724c-2.28664,-1.05624 -4.20178,-2.3981 -5.14305,-2.75821c-0.98938,-0.37852 -2.41029,0.20339 -2.41029,0.20339z" fill="#616161" stroke-width="0"/><path d="M281.73027,129.54866l10.77397,7.3622l26.91736,15.98071c0,0 0.60465,0.47133 -6.69913,-3.1025c-2.48463,-1.21577 -11.8458,-6.5197 -19.77988,-11.59226c-2.14686,-1.37258 -13.37132,-9.35057 -13.37132,-9.35057z" fill="#df8cb7" stroke-width="0"/><path d="M110.33288,70.76336l2.11993,-5.54145c0,0 6.01552,0.42445 9.56823,1.78358c2.90849,1.11266 9.57836,7.41797 9.57836,7.41797l-4.51033,11.41256z" fill="#626061" stroke-width="0"/><path d="M215.16319,121.55853l2.65029,3.69703l11.91147,3.14014l47.39519,18.13144l-0.3898,1.01901c0,0 -35.5015,-13.73687 -46.71286,-17.74514c-3.07806,-1.10045 -12.39474,-3.89283 -12.39474,-3.89283z" fill="#ffa6d4" stroke-width="0"/><path d="M84.79816,129.44366l2.56172,-6.69632l27.82325,-7.16159l-6.38513,12.19229l-16.57569,4.50579z" fill="#3f3d3e" stroke-width="0"/><path d="M85.08368,124.13506c0,0 7.19689,-18.28757 11.37358,-26.95039c4.71404,-9.77734 15.49402,-28.77589 15.49402,-28.77589c0,0 8.11356,2.90116 10.87112,5.71826c2.36008,2.41101 4.66814,10.15635 4.66814,10.15635l-11.98813,31.33676c0,0 -15.96852,8.5574 -19.61959,9.57946c-5.61601,1.57207 -10.79908,-1.06452 -10.79908,-1.06452z" fill="#555354" stroke-width="0"/><path d="M108.02354,78.25375c0,0 0.7028,-6.1476 3.59627,-7.92855c2.89347,-1.78095 7.31929,-1.17661 9.71054,-0.26181c1.90759,0.72977 5.8271,2.3135 6.91778,7.50436c1.09072,5.19083 -3.08547,10.73473 -3.08547,10.73473c0,0 -2.16666,-11.96789 -4.40228,-13.2786c-3.15465,-1.8496 -12.7369,3.22985 -12.7369,3.22985z" fill="#6f6b6c" stroke-width="0"/><path d="M81.98584,128.16611c0,0 10.91362,-23.72947 15.00254,-34.41786c4.25829,-11.13109 11.46091,-30.55842 11.46091,-30.55842c0,0 1.30959,-0.1874 2.28174,0.18448c0.88892,0.34005 2.1226,1.50045 2.1226,1.50045c0,0 -7.04444,17.81422 -10.86575,27.80306c-4.43969,11.60525 -16.79869,36.71374 -16.79869,36.71374z" fill="#333232" stroke-width="0"/><path d="M81.42498,128.42656l6.27725,-13.34638c0,0 0.66795,1.20725 1.24161,1.3853c0.72435,0.22482 2.80428,-0.51858 2.80428,-0.51858l-6.61609,13.89781z" fill="#2e2d2d" stroke-width="0"/><path d="M118.44231,103.76528c-2.91728,7.62566 -9.86632,14.24782 -14.98938,15.42225c-4.25485,0.97544 -13.67314,4.60794 -10.7559,-3.01774c0.61887,-1.61776 6.77256,-11.98256 9.40432,-18.50244c3.48046,-8.62242 3.72305,-13.86257 5.62937,-16.16504c3.44701,-4.16319 9.1343,-3.57155 11.20262,-2.7803c4.07708,1.55973 2.42622,17.4176 -0.49106,25.04328z" fill="#585758" stroke-width="0"/><path d="M145.59727,129.23196l0.06851,-1.83756c0,0 7.89814,1.57551 13.69185,3.27355c8.15624,2.39048 30.6295,9.71648 30.6295,9.71648l1.2196,1.83831c0,0 -24.03201,-7.45872 -32.4449,-9.85492c-2.47077,-0.70372 -13.16458,-3.13583 -13.16458,-3.13583z" fill="#585657" stroke-width="0"/><path d="M135.37914,139.45641l9.73917,-10.93326l7.10387,1.69979c0,0 -3.16459,3.4077 -3.35379,4.14384c-0.90415,3.51744 -6.6686,26.97321 -6.6686,26.97321c0,0 -1.5373,-0.11655 -1.97802,-2.29325c-0.79079,-3.90568 -0.0533,-10.97054 -0.93844,-13.56045c-0.76474,-2.23764 -3.90417,-6.02985 -3.90417,-6.02985z" fill="#5a5759" stroke-width="0"/><path d="M158.0879,115.16265l6.74764,-9.55297l2.21902,0.72993l-7.86482,9.3635z" fill="#a5a0a2" stroke-width="0"/><path d="M164.81652,116.57663l0.50119,-1.31016l24.74717,9.46725l-0.50118,1.31016z" fill="#494748" stroke-width="0"/><path d="M165.80291,113.77269l0.50119,-1.31016l24.74717,9.46725l-0.50119,1.31016z" fill="#494748" stroke-width="0"/><path d="M139.64594,127.75759l7.19551,-18.80895l14.87483,-4.60542l4.63615,1.43983l-30.49882,34.17194l-4.52498,-3.87604z" fill="#dbd5d8" stroke-width="0"/><path d="M110.63954,129.41744l4.06544,-11.0689l25.17706,8.78639c0,0 -0.59827,2.48821 -1.00519,3.18748c-1.01429,1.74315 -5.36798,7.50575 -5.36798,7.50575z" fill="#ccc6c9" stroke-width="0"/><path d="M118.24906,120.1331l0.11284,-0.29497l21.6211,7.3415l-2.85657,0.17518c0,0 -4.10288,-1.37022 -6.62146,-2.36773c-3.44859,-1.36581 -12.25592,-4.85397 -12.25592,-4.85397z" fill="#d8d1d5" stroke-width="0"/><path d="M122.86762,117.89907l6.07419,-15.87779l15.06055,5.76157l-6.0742,15.87779z" fill="#a39999" stroke-width="0"/><path d="M110.3206,129.47721l4.05872,-10.60944c0,0 5.97151,9.12252 9.13895,12.84027c3.1674,3.71774 9.33948,5.77913 9.33948,5.77913z" fill="#b4afb1" stroke-width="0"/><path d="M139.58387,147.14181c0,0 2.45771,2.05425 3.53281,2.31169c0.66049,0.15809 2.30438,-0.91422 2.30438,-0.91422l-1.69286,9.06685l-1.49895,3.91819c0,0 -1.92605,-0.40339 -2.19791,-3.27249c-0.22431,-2.36725 -0.44757,-11.10993 -0.44757,-11.10993z" fill="#504e4f" stroke-width="0"/><path d="M135.46474,140.08481l28.42207,-33.82082l1.55522,0.81461l-28.47288,34.24066z" fill="#858183" stroke-width="0"/><path d="M134.30225,96.00354l2.00449,-1.00028c0,0 25.83592,9.19431 37.42697,13.62859c10.06027,3.8486 29.71006,11.74378 29.71006,11.74378l-0.19913,2.00242c0,0 -19.63915,-8.26899 -30.2433,-12.32567c-12.10857,-4.63222 -38.69907,-14.04876 -38.69907,-14.04876z" fill="#918b8e" stroke-width="0"/><path d="M135.69299,95.21786l2.58394,-1.0901c0,0 24.3055,8.92034 35.89657,13.35458c10.06026,3.8486 29.71006,11.74379 29.71006,11.74379l-0.19913,2.0024c0,0 -19.63915,-8.26899 -30.2433,-12.32568c-12.10857,-4.63223 -37.7481,-13.68499 -37.7481,-13.68499z" fill="#a59fa2" stroke-width="0"/><path d="M188.60978,137.71675l0.23202,-5.99551c0,0 0.6282,-1.04988 0.97952,-1.03626c0.30953,0.01199 1.01896,1.11359 1.01896,1.11359l-0.23202,5.9955c0,0 -0.57151,0.72104 -0.88174,0.70903c-0.35092,-0.01358 -1.11678,-0.78635 -1.11678,-0.78635z" fill="#494242" stroke-width="0"/><path d="M150.04741,125.80028l6.69826,-7.59368l3.62921,1.3884l-6.69827,7.59366z" fill="#9c989a" stroke-width="0"/><path d="M165.33462,112.61596l2.07439,-0.24278l22.81912,8.74898l1.54545,1.60826z" fill="#757274" stroke-width="0"/><path d="M164.41822,115.27538l2.07439,-0.24279l22.81911,8.74897l1.54547,1.60826z" fill="#757274" stroke-width="0"/><path d="M108.41095,127.69419l22.37428,-53.70868l1.58603,1.22852l-22.00812,54.27828z" fill="#686666" stroke-width="0"/><path d="M108.16176,127.88831l6.41964,-14.94877l0.77548,4.38503l-5.1633,12.27551z" fill="#535252" stroke-width="0"/><path d="M145.05127,117.50923c0,0 2.82187,-1.43173 3.16016,-2.316c0.33199,-0.86775 -1.14899,-2.94113 -1.14899,-2.94113c0,0 2.5646,1.69814 1.86399,3.23779c-0.5336,1.17271 -2.297,2.84185 -2.77248,3.84025c-1.352,2.83878 -4.62042,9.45506 -4.62042,9.45506z" fill="#c4bec1" stroke-width="0"/><path d="M152.90361,118.46643l5.4283,-8.83938l3.93642,-3.15615l-5.89498,7.97859z" fill="#aca7a9" stroke-width="0"/></g></g><g stroke-width="0"><path d="M273.11305,134.65603l3.57582,-2.19656c0,0 2.20135,-0.69571 2.87361,-0.14412c0.76645,0.62891 1.47972,3.71608 1.47972,3.71608l-1.96466,3.61884c0,0 -3.99594,-1.53674 -5.13101,-2.1137c-0.51169,-0.26009 -0.83348,-2.8806 -0.83348,-2.8806z" fill="#c0c0c0"/><path d="M229.57894,128.33496c0,0 0.86423,-2.75294 2.26033,-3.4382c1.74965,-0.85878 8.21868,-0.75253 8.21868,-0.75253l-2.35625,4.17051l-1.04373,2.72837z" fill="#838383"/><path d="M229.44468,128.20401l10.24282,-4.09156l35.08275,13.42119l-2.6731,6.98745z" fill="#999999"/><path d="M230.61231,127.94786l7.84016,-3.25462l31.54291,12.06698l-2.08704,5.45554c0,0 -3.81776,-1.46051 -8.72885,-3.33927c-3.19301,-1.22152 -6.46868,-3.61175 -9.83725,-4.90039c-3.61365,-1.38244 -7.27701,-1.64682 -9.3067,-2.42328c-3.97241,-1.5197 -9.4232,-3.60493 -9.4232,-3.60493z" fill="#d952b3"/><path d="M233.87478,129.19358l9.92571,-2.52337l11.6413,4.45347c0,0 -7.57066,-0.85408 -10.11109,-0.84674c-2.69696,0.00777 -6.45118,0.83123 -6.45118,0.83123z" fill="#a5899d"/><path d="M241.37686,131.94284c0,0 5.09681,0.909 7.39171,1.78694c2.93234,1.12179 8.76334,4.39333 8.76334,4.39333l-8.897,-3.76251z" fill="#adadad"/><path d="M229.54885,128.2244l9.24886,-3.69058l32.65844,12.49378l-0.24602,0.64314c0,0 -28.27816,-10.81802 -31.96425,-12.22821c-0.771,-0.29494 -9.69706,2.78193 -9.69706,2.78193z" fill="#8a8a8a"/><path d="M271.37447,150.90166l3.48561,-9.11136l3.18106,-6.49398c0,0 0.9409,0.86306 1.25693,1.58728c0.31602,0.72423 0.27119,1.91459 0.27119,1.91459l-6.31465,12.82274z" fill="#9e9e9e"/><path d="M267.7944,145.0023c0,0 -0.09231,-2.31042 0.34778,-3.84348c0.59268,-2.06447 3.36341,-6.91271 3.36341,-6.91271l1.92953,0.38979c0,0 0.42588,1.01066 0.92549,1.04209c0.68884,0.04337 2.82536,-0.80603 2.82536,-0.80603l-5.04914,11.7916z" fill="#9c9c9c"/><path d="M267.67634,146.91719c-0.33612,-1.31109 0.37905,-2.50765 0.37905,-2.50765l7.12843,-4.98225c0,0 -0.08605,4.12535 -0.41352,4.98131c-0.93099,2.43354 -1.688,7.22931 -1.688,7.22931c0,0 -2.81331,-0.98659 -3.62686,-1.76747c-0.97576,-0.93652 -1.44296,-1.6422 -1.77908,-2.95332z" fill="#888888"/><path d="M269.61618,146.83033c-0.20851,-2.22085 0.44233,-6.75033 3.61764,-9.88985c3.17529,-3.13948 4.66877,-0.28631 4.66877,-0.28631c0,0 -0.6403,4.49064 -1.4667,6.65083c-0.75278,1.96775 -3.29148,5.78694 -3.29148,5.78694c0,0 -3.31977,-0.04074 -3.52825,-2.26162z" fill="#b4b4b4"/><path d="M276.25281,141.13002c-0.50417,1.31793 -5.30446,-0.4356 -4.80029,-1.7535c0.50417,-1.31793 5.29123,-5.27059 6.05004,-4.98033c0.29388,0.11241 0.85884,0.43759 0.66337,1.49849c-0.30926,1.67834 -1.60417,4.4278 -1.91309,5.23534z" fill="#bbbbbb"/></g><g stroke-width="0"><path d="M215.07858,121.51c0,0 -3.71297,-6.68533 -3.04359,-8.43504c0.54653,-1.42868 6.2283,0.6131 6.2283,0.6131l7.02154,2.76305l-7.60986,8.62956z" fill="#f399c8"/><path d="M185.98102,112.13615c0,0 -0.15647,-2.30596 0.46707,-3.21596c0.68814,-1.00421 3.90049,-3.63502 3.90049,-3.63502l21.5837,8.05824l5.44263,11.31474z" fill="#ee96c3"/></g></g><g stroke-width="0"><g><path d="M282.2139,127.83142l2.2088,-5.77375l44.66159,17.08565l-2.20879,5.77375z" fill="#61585b"/><path d="M283.22033,124.74365l1.18283,-3.09182l44.83141,17.15061l-1.18283,3.09182c0,0 -8.07047,-3.08744 -16.36089,-6.259c-2.59207,-0.99162 -6.77831,-0.96862 -9.17344,-1.88491c-2.84808,-1.08955 -5.36049,-3.67519 -7.18746,-4.37408c-5.47813,-2.09571 -12.10964,-4.63263 -12.10964,-4.63263z" fill="#494344"/><path d="M343.32643,140.66566l-1.95238,-21.01797l19.5383,7.47456l8.41657,21.17968c0,0 -5.81964,-0.76875 -8.93058,-1.68234c-4.80047,-1.40977 -17.07189,-5.95389 -17.07189,-5.95389z" fill="#5e555b"/><path d="M342.101,143.87472l1.97892,-5.17287c0,0 12.00586,3.03711 16.85361,4.05693c3.84733,0.80937 6.67574,1.26822 6.67574,1.26822l3.06806,8.60291c0,0 -5.55071,-0.41454 -9.58338,-1.48193c-5.46412,-1.44633 -18.99293,-7.27316 -18.99293,-7.27316z" fill="url(#color-5)"/><path d="M339.73431,119.19039l1.42787,-3.73237l17.88728,6.8429l1.96845,5.03167z" fill="url(#color-6)"/><path d="M341.54687,143.68946l0.44996,-1.17611c0,0 14.60658,5.50605 19.69737,7.27421c3.80667,1.32215 8.49873,1.42884 8.49873,1.42884l0.42118,1.38677l-8.41568,-1.01331z" fill="#312c30"/><g><path d="M250.9834,97.6938l2.95363,-8.3545l87.72515,33.55994l3.1051,13.26709z" fill="#8a6672"/><path d="M263.47038,111.34208c0,0 -1.99884,-4.62531 -4.09617,-6.99252c-2.09729,-2.36725 -8.77725,-4.66848 -8.77725,-4.66848l0.85053,-1.90922c0,0 11.41104,4.66132 17.94233,7.26189c15.60235,6.21231 75.26712,29.85088 75.26712,29.85088l1.03759,7.42811z" fill="#755761"/><path d="M265.2408,114.68634l-1.89963,-3.50171l81.97946,30.83796l0.02498,3.30844z" fill="#694e57"/><path d="M253.64158,89.65043l1.61824,-4.23l85.05462,31.81095l1.57272,6.66302c0,0 1.38058,4.10209 -3.54767,2.18968c-1.55144,-0.60202 -8.86665,-7.00708 -10.42197,-7.61064c-14.97867,-5.81252 -74.27592,-28.82296 -74.27592,-28.82296z" fill="#916b77"/><path d="M255.48576,85.50693l0.79102,-2.40033l84.02331,31.99526l0.12144,2.6078z" fill="#9e7582"/><path d="M324.47399,112.63115c-7.30375,-3.48783 -67.3301,-27.55669 -67.3301,-27.55669l82.05462,31.39066l1.82511,8.66529c0,0 -9.24587,-9.01144 -16.54963,-12.49927z" fill="#b38f9a"/></g><path d="M294.07574,125.71435l3.27785,-8.56821l18.87797,7.22191l-3.27785,8.56821z" fill="#3a3336"/><path d="M297.27007,117.11862l1.21317,-1.166l17.31466,6.62384l0.37614,1.77398z" fill="#4b4246"/><path d="M294.38508,125.29803l2.92188,-7.63777c0,0 -0.8923,5.29665 1.19492,7.27963c2.08722,1.98298 14.23363,7.37824 14.23363,7.37824z" fill="#332c30"/><path d="M340.11259,121.71609l-1.51741,-7.00457c0,0 1.19362,-0.25719 1.75461,-0.04255c0.62716,0.23992 1.83189,1.41458 1.83189,1.41458l1.51741,7.00457z" fill="#757575"/><path d="M341.24191,127.21738l-2.18517,-10.05691l3.5865,1.37206l2.18517,10.05689z" fill="#5a5a5a"/><path d="M342.90234,134.75735l-2.18517,-10.05689l3.58649,1.37205l2.18517,10.05691z" fill="#505050"/><path d="M344.61496,142.56434c-0.3732,-1.71768 -1.82946,-8.41984 -1.82946,-8.41984l3.58648,1.37207l2.48756,12.00802c0,0 -2.11144,-0.2344 -2.99296,-0.58751c-0.68761,-0.27542 -1.08707,-3.61532 -1.25165,-4.37271z" fill="#3b3b3b"/><path d="M248.61477,99.56948l6.67257,-17.44199l2.97099,1.13656l-6.67258,17.44199z" fill="#443e42"/><path d="M230.41334,94.31831l1.47765,-5.78171l18.89323,7.22777l-2.1181,5.53667z" fill="url(#color-7)"/><path d="M231.66568,89.12563l3.87568,-10.13095l18.89323,7.22777l-3.8757,10.13096z" fill="#5e555b"/><path d="M235.49623,79.11263l2.23435,-3.60158l18.14604,6.94191l-1.48718,3.88747z" fill="url(#color-8)"/><path d="M302.57283,100.52809l2.19148,-5.72843l13.64947,6.36375l2.63382,6.05167z" fill="#5e555b"/><path d="M320.92054,107.54715l-2.5385,-6.30074c0,0 2.57033,1.72274 4.29479,3.45125c1.72447,1.72851 4.30428,5.16796 4.30428,5.16796z" fill="#776b73"/><path d="M299.33723,100.52752l3.43342,-0.01892l24.00539,8.89795l2.86393,2.71353z" fill="#6d6269"/></g><g><path d="M296.84534,122.52316c0.44619,-1.16641 1.33615,-2.0644 2.06698,-2.88716c1.01837,-1.14647 2.00549,-2.04059 3.5162,-2.36866c0.92279,-0.20038 2.1241,-0.15773 3.13364,-0.02887c0.66773,0.08527 1.74385,0.06855 2.4005,0.31976c1.48849,0.56942 1.77903,0.76807 2.67562,1.64218c0.54012,0.52655 1.91086,1.53177 2.17037,2.35068c0.21966,0.69311 0.32513,1.74905 0.40143,2.50591c0.13038,1.29342 0.21369,3.32158 -0.28247,4.61857c-0.2097,0.54808 -1.14738,1.6224 -1.37796,2.08611c-0.73197,1.47208 -0.91475,1.94776 -2.44243,2.54487c-0.9285,0.3629 -2.53199,0.33601 -3.5973,0.36741c-1.10331,0.03253 -2.60435,0.38555 -3.69964,-0.03346c-0.73927,-0.28282 -1.88193,-1.29275 -2.54941,-1.69393c-1.44817,-0.87036 -2.21905,-1.35205 -2.77322,-2.78479c-0.47522,-1.22865 -0.14757,-2.81458 -0.00267,-4.21271c0.07612,-0.73449 0.08394,-1.70335 0.36034,-2.42589z" fill="#3a3a3a"/><path d="M297.57052,122.67359c0.40833,-1.06735 1.22274,-1.88912 1.89148,-2.64202c0.93191,-1.04916 1.83519,-1.86735 3.21767,-2.16758c0.84442,-0.18338 1.94377,-0.14433 2.86757,-0.02643c0.61105,0.07799 1.59583,0.06277 2.19659,0.29264c1.36212,0.5211 1.62797,0.70285 2.44848,1.50272c0.49423,0.48185 1.74861,1.40172 1.98611,2.15111c0.20101,0.6343 0.2975,1.60054 0.36734,2.29314c0.11931,1.18361 0.19554,3.03958 -0.25847,4.22636c-0.19189,0.50155 -1.04997,1.48466 -1.26098,1.909c-0.66981,1.3471 -0.83708,1.78239 -2.23504,2.32879c-0.8497,0.33205 -2.31701,0.30746 -3.29189,0.3362c-1.00964,0.02976 -2.38322,0.35283 -3.38552,-0.0306c-0.6765,-0.2588 -1.72213,-1.18298 -2.33296,-1.55009c-1.32524,-0.79647 -2.03067,-1.23725 -2.53775,-2.54837c-0.43486,-1.12433 -0.13502,-2.57559 -0.00242,-3.855c0.06967,-0.67213 0.07681,-1.55873 0.32974,-2.2199z" fill="#5a5a5a"/><path d="M310.57603,122.79946c-1.05747,-2.95895 -5.74308,-4.96624 -5.74308,-4.96624c0,0 2.007,0.18964 3.86333,0.9072c1.50366,0.58125 2.84202,1.48345 3.46015,3.11289c0.61863,1.63076 0.45605,3.15819 0.22531,4.56404c-0.45237,2.75631 -1.71628,4.83472 -1.71628,4.83472c0,0 0.96808,-5.49359 -0.08944,-8.45256z" fill="#6d6d6d"/><path d="M303.80747,125.58367c0.20569,-0.53773 0.80835,-0.80686 1.34607,-0.60117c0.53773,0.20568 0.80686,0.80834 0.60116,1.34608c-0.20569,0.53773 -0.80834,0.80686 -1.34607,0.60116c-0.53773,-0.20568 -0.80686,-0.80835 -0.60116,-1.34607z" fill="#272727"/><path d="M303.68479,125.68323c0.18868,-0.49317 0.74139,-0.74003 1.23459,-0.55136c0.49318,0.18868 0.74003,0.74139 0.55136,1.23459c-0.18868,0.49317 -0.74139,0.74004 -1.23458,0.55138c-0.49318,-0.18868 -0.74004,-0.74139 -0.55138,-1.23458z" fill="#131313"/></g></g></g></g></g><path d="M181.42013,196.56456c0.56621,-1.48006 11.81929,-42.81381 12.88046,-44.20139c1.43282,-1.87352 8.87153,2.41832 12.17872,2.06916c10.12891,-1.06935 20.93311,-1.84743 20.93311,-1.84743c0,0 12.93225,5.56885 16.88909,7.08259c2.95899,1.132 63.26362,15.11164 60.26815,25.01679c-4.06298,13.4351 -40.53036,-13.06242 -44.86471,-1.73254c-1.09726,2.86819 1.08353,3.91182 -0.56935,6.64914c-0.39671,0.65695 -4.44363,4.65371 -5.25202,6.13897c-1.28326,2.35768 0.36427,7.27335 -3.83478,8.98528c-3.34721,1.36465 -3.33535,6.74061 -4.36629,7.64777c-7.10437,6.25116 -13.52412,-0.27805 -21.94202,-3.49838c-9.98062,-3.81816 -25.83459,-5.89674 -34.15663,-10.4052c-3.59229,-1.94616 -9.81198,2.40353 -8.16381,-1.90471z" fill="#86c8f5" stroke-width="0"/><g stroke-width="0"><g><path d="M171.33304,211.39904l1.99444,-5.21346c0,0 2.02979,0.96714 3.17227,0.37242c1.61412,-0.84019 5.761,-4.75688 5.761,-4.75688l-2.30006,7.78591c0,0 -4.01967,1.88679 -5.77718,2.17531c-1.26893,0.20827 -2.85042,-0.36331 -2.85042,-0.36331z" fill="#4d484c"/><g><g><path d="M137.3417,186.24319l5.81515,-3.73055c0,0 18.05015,-2.67602 25.61453,-3.9488c5.81874,-0.97907 15.16862,-2.70283 15.16862,-2.70283l-6.95303,25.54877z" fill="#eb59c1"/><path d="M142.6835,176.37637l9.91291,-27.55074c0,0 14.73499,15.01728 20.10541,20.23752c3.89711,3.78808 7.17539,14.96001 7.17539,14.96001l-7.66485,3.64976z" fill="#dd54b6"/><path d="M147.38304,159.9953l11.15152,-28.33063c0,0 6.82403,17.3279 10.87547,19.69762c6.00341,3.51146 18.97262,5.51197 18.97262,5.51197l-9.30916,24.334z" fill="#ff77d8"/><path d="M154.17267,148.80176l5.02068,-13.12396l32.21538,9.18995l-3.87932,16.69489z" fill="#ee51c1"/></g><g><g><path d="M138.63214,175.4886l9.87235,-39.9139l7.84676,3.00184l-9.87235,39.9139z" fill="#a59da1"/><path d="M148.40343,135.74005c0,0 0.88122,-4.47256 3.01833,-5.02735c2.13719,-0.55482 6.97436,1.02456 6.97436,1.02456l-2.13313,7.00953z" fill="#b9b0b5"/><path d="M136.49117,186.06697l2.20568,-10.58336l7.80928,2.9875l-2.20568,10.58335z" fill="#8b8488"/></g><g><path d="M177.38435,186.67675l9.87234,-39.9139l4.23957,1.62187l-9.87233,39.91392z" fill="#a59da1"/><path d="M187.04926,147.75131l1.54051,-6.3071c0,0 2.98411,0.41309 3.55915,1.86405c0.57507,1.45095 -0.74096,5.24675 -0.74096,5.24675z" fill="#b9b0b5"/><path d="M175.23165,197.25073l2.20568,-10.58336l4.21374,1.612l-2.20567,10.58337z" fill="#8b8488"/></g><path d="M134.32284,194.4196c0,0 -2.07428,-3.73016 -1.91526,-5.25886c0.17702,-1.70168 2.92932,-4.48809 2.92932,-4.48809l46.091,12.92704c0,0 1.04728,2.89945 0.90987,4.43831c-0.1926,2.1569 -5.88032,5.24295 -5.88032,5.24295z" fill="#494547"/><path d="M157.29522,135.52512c0,0 -1.96079,-1.35752 -2.15785,-2.0478c-0.21642,-0.75799 1.72533,-2.24496 1.72533,-2.24496c0,0 11.61054,3.35822 16.65447,4.94291c5.88004,1.84737 15.69015,5.40347 15.69015,5.40347c0,0 0.05874,1.33289 -0.23445,1.86035c-0.28392,0.51082 -1.12091,1.40025 -1.12091,1.40025z" fill="#c2b8bd"/><path d="M135.09072,193.40637c0,0 -0.14023,-3.08931 0.23238,-4.74083c0.30918,-1.37059 1.41981,-3.36262 1.41981,-3.36262l43.33502,12.23464c0,0 0.76795,3.66958 0.17385,5.22249c-0.6382,1.66828 -3.45142,3.34501 -3.45142,3.34501z" fill="#6f696b"/><path d="M143.53862,202.45163l1.99444,-5.21345l28.40014,9.14647l-1.99443,5.21345z" fill="#333032"/><path d="M132.72363,198.44431c-0.80592,-1.00201 -1.85131,-2.97127 -1.85131,-2.97127l1.62421,-6.67995c0,0 1.49849,3.00625 2.13969,4.70921c0.45385,1.20541 10.98093,3.64872 10.98093,3.64872l-1.99443,5.21345c0,0 -10.09322,-2.91809 -10.89907,-3.92013z" data-paper-data="{&quot;index&quot;:null}" fill="#444043"/><g><path d="M151.29842,149.2571c0,0 -0.71974,-5.35264 -0.12179,-6.98925c0.41398,-1.13307 3.36499,-1.88768 3.36499,-1.88768l33.82809,9.70305c0,0 0.37237,3.48709 -0.16217,4.95009c-0.5463,1.49526 -3.08104,3.92682 -3.08104,3.92682z" fill="#979797"/><path d="M151.72923,148.28049c0,0 -0.93397,-4.85119 -0.41637,-6.29969c0.35836,-1.00291 3.22376,-1.55717 3.22376,-1.55717l33.62639,10.17509c0,0 0.51366,3.15626 0.05097,4.45121c-0.47287,1.32343 -2.85834,3.40569 -2.85834,3.40569z" fill="#a2a2a2"/></g><g><path d="M147.61231,165.55562c0,0 -0.71974,-5.35264 -0.12179,-6.98925c0.41398,-1.13307 3.36498,-1.88769 3.36498,-1.88769l33.82809,9.70305c0,0 0.37236,3.48707 -0.16216,4.95008c-0.5463,1.49526 -3.08103,3.92682 -3.08103,3.92682z" fill="#979797"/><path d="M148.04314,164.57901c0,0 -0.93396,-4.85118 -0.41636,-6.29968c0.35834,-1.0029 3.22376,-1.55717 3.22376,-1.55717l33.62639,10.17511c0,0 0.51366,3.15626 0.05097,4.45121c-0.47288,1.32343 -2.85836,3.40568 -2.85836,3.40568z" fill="#a2a2a2"/></g><g><path d="M143.84924,182.35487c0,0 -0.71974,-5.35264 -0.12179,-6.98924c0.41398,-1.13307 3.36498,-1.88769 3.36498,-1.88769l33.82809,9.70305c0,0 0.37235,3.4871 -0.16217,4.95009c-0.5463,1.49526 -3.08103,3.92682 -3.08103,3.92682z" fill="#7a7a7a"/><path d="M144.28002,181.3783c0,0 -0.93397,-4.85118 -0.41637,-6.29969c0.35834,-1.0029 3.22376,-1.55715 3.22376,-1.55715l33.62641,10.17511c0,0 0.51364,3.15627 0.05097,4.45121c-0.47288,1.32343 -2.85835,3.4057 -2.85835,3.4057z" fill="#929292"/></g></g></g></g><path d="M137.79457,179.40149c0,0 0.25324,-1.74089 0.79411,-4.00789c1.5881,-6.65569 9.66947,-39.84509 9.66947,-39.84509l1.42138,5.15089l-7.34197,28.69568z" fill="#777275"/></g></g><g fill="#86c8f5" stroke-width="0"><path d="M211.86535,228.52584c4.52184,2.1729 2.91381,8.81302 -1.01139,15.83544c-3.92518,7.02242 -9.83633,11.31825 -13.20296,9.59501c-3.36661,-1.72324 -2.91381,-8.81302 1.01139,-15.83544c3.92518,-7.02242 7.99347,-12.09836 13.20296,-9.59501z" data-paper-data="{&quot;index&quot;:null}"/><path d="M187.60696,232.72011c3.92518,-7.02242 7.00343,-10.51742 12.21289,-8.0141c4.52184,2.1729 3.90386,7.23214 -0.02131,14.25453c-3.92519,7.02243 -9.83632,11.31825 -13.20296,9.59501c-3.36661,-1.72324 -2.91381,-8.81302 1.01139,-15.83544z" data-paper-data="{&quot;index&quot;:null}"/><path d="M173.81803,233.91233c3.92518,-7.02242 8.55131,-13.1747 13.76079,-10.67136c4.52184,2.1729 2.35597,9.88939 -1.56919,16.91183c-3.92518,7.02242 -8.34401,7.44993 -11.71061,5.72669c-3.36662,-1.72324 -4.40613,-4.94471 -0.481,-11.9671z" data-paper-data="{&quot;index&quot;:null}"/><path d="M174.84259,222.56629c4.52184,2.1729 3.90386,7.23214 -0.02131,14.25453c-3.92518,7.02242 -8.34401,7.44993 -11.71061,5.72669c-3.36662,-1.72324 -4.40613,-4.94471 -0.481,-11.9671c3.92518,-7.02242 7.00343,-10.51742 12.21289,-8.0141z" data-paper-data="{&quot;index&quot;:null}"/></g></g></g></svg>