<svg version="1.1" xmlns="http://www.w3.org/2000/svg" xmlns:xlink="http://www.w3.org/1999/xlink" width="462.25291" height="164.9948" viewBox="0,0,462.25291,164.9948"><defs><linearGradient x1="494.89474" y1="207.86644" x2="495.89889" y2="212.57208" gradientUnits="userSpaceOnUse" id="color-1"><stop offset="0" stop-color="#1f1d20"/><stop offset="1" stop-color="#202022"/></linearGradient><linearGradient x1="494.31141" y1="203.02653" x2="495.46679" y2="208.44086" gradientUnits="userSpaceOnUse" id="color-2"><stop offset="0" stop-color="#302d31"/><stop offset="1" stop-color="#1f1e20"/></linearGradient><linearGradient x1="176.93039" y1="319.90534" x2="177.63784" y2="323.22078" gradientUnits="userSpaceOnUse" id="color-3"><stop offset="0" stop-color="#585758"/><stop offset="1" stop-color="#575758"/></linearGradient><linearGradient x1="166.2092" y1="332.49854" x2="166.76462" y2="335.10131" gradientUnits="userSpaceOnUse" id="color-4"><stop offset="0" stop-color="#363536"/><stop offset="1" stop-color="#353536"/></linearGradient><linearGradient x1="287.05188" y1="211.82076" x2="288.20775" y2="217.23728" gradientUnits="userSpaceOnUse" id="color-5"><stop offset="0" stop-color="#5e555b"/><stop offset="1" stop-color="#2b2629"/></linearGradient><linearGradient x1="273.19612" y1="193.64523" x2="274.03009" y2="197.5534" gradientUnits="userSpaceOnUse" id="color-6"><stop offset="0" stop-color="#72676e"/><stop offset="1" stop-color="#5e555b"/></linearGradient><linearGradient x1="165.62714" y1="230.81124" x2="166.86429" y2="236.60877" gradientUnits="userSpaceOnUse" id="color-7"><stop offset="0" stop-color="#5e555b"/><stop offset="1" stop-color="#4d454a"/></linearGradient><linearGradient x1="162.65279" y1="216.87279" x2="163.52146" y2="220.94341" gradientUnits="userSpaceOnUse" id="color-8"><stop offset="0" stop-color="#74686f"/><stop offset="1" stop-color="#5e555b"/></linearGradient></defs><g transform="translate(-38.38821,-192.02628)"><g data-paper-data="{&quot;isPaintingLayer&quot;:true}" fill-rule="nonzero" stroke="none" stroke-linecap="butt" stroke-linejoin="miter" stroke-miterlimit="10" stroke-dasharray="" stroke-dashoffset="0" style="mix-blend-mode: normal"><g><g stroke-width="0"><path d="M233.83778,292.43272l-13.2074,-12.87241l24.88913,-5.91458c0,0 0.14217,5.92974 0.5098,8.61054c0.35567,2.59325 1.66138,7.22037 1.66138,7.22037z" fill="#7f7d7e"/><path d="M233.97506,292.60467l-4.72961,-4.7239c0,0 3.04854,2.98458 6.34172,2.91041c2.37139,-0.05343 4.15134,-0.75019 6.84072,-0.99604c2.68936,-0.24584 5.20774,-0.10547 5.20774,-0.10547z" fill="#6c6a6b"/></g><g><g><g><path d="M492.97366,213.19636l-3.01781,-4.27596c0,0 6.20553,0.37097 8.93202,0.7021c2.72653,0.33117 1.45903,1.76332 1.45903,1.76332z" fill="url(#color-1)" stroke-width="0"/><path d="M497.85872,202.47372c0,0 1.93284,1.96777 -0.42099,3.38303c-2.35381,1.41527 -4.93772,3.21722 -4.93772,3.21722l-2.10468,-5.21175z" data-paper-data="{&quot;index&quot;:null}" fill="url(#color-2)" stroke-width="0"/><path d="M483.56661,215.199l-0.43791,-2.05218l14.4473,-3.08292c0,0 1.39568,0.51435 1.9492,0.77079c0.49757,0.23051 -0.5233,1.07059 -0.5233,1.07059z" fill="#444444" stroke-width="NaN"/><path d="M483.1916,213.28012l-1.53046,-1.46682l12.33789,-2.63279l3.66198,0.8976c0,0 -4.07533,1.11301 -6.32575,1.61099c-2.53803,0.56164 -8.14364,1.59094 -8.14364,1.59094z" fill="#535353" stroke-width="0"/><path d="M481.57996,211.97039l-0.45117,-0.55812l11.22115,-2.39454l1.75808,0.16239z" fill="#363636" stroke-width="0"/><path d="M483.56661,215.199l-0.23757,-1.1133c0,0 6.40616,-0.9032 9.22254,-1.50418c2.38664,-0.50927 6.60089,-1.8724 6.60089,-1.8724c0,0 0.94155,0.27172 1.22579,0.41852c0.23979,0.12384 -0.14443,0.51472 -0.14443,0.51472c0,0 -4.54415,1.38327 -6.80693,1.86612c-3.05282,0.65144 -9.86034,1.69049 -9.86034,1.69049z" fill="#3a3a3a" stroke-width="NaN"/><path d="M481.44647,211.36319l-0.72573,-0.74875l13.34127,-2.84689l-1.58999,1.27757z" fill="#242424" stroke-width="0"/><path d="M479.96996,210.96813l-0.34522,-1.61789c0,0 7.87211,-1.8907 10.80189,-2.51588c1.99608,-0.42594 5.07711,-0.87258 5.07711,-0.87258l-1.46288,1.83505z" fill="#3a3a3a" stroke-width="0"/><path d="M479.50687,209.41887l-0.42626,-1.99757c0,0 7.41594,-1.91982 10.65723,-2.61151c2.80483,-0.59852 7.6712,-1.29965 7.6712,-1.29965l-1.93867,2.50224c0,0 -3.59164,0.6821 -5.78666,1.15053c-2.91769,0.62263 -10.17685,2.25597 -10.17685,2.25597z" fill="#444444" stroke-width="0"/><path d="M479.05616,207.51352l-0.17758,-0.83233c0,0 7.67464,-1.76419 11.19268,-2.51491c2.44963,-0.52275 7.89596,-1.55847 7.89596,-1.55847l-0.66838,1.01286c0,0 -5.00295,0.77239 -7.90287,1.39122c-3.19499,0.68177 -10.33975,2.50161 -10.33975,2.50161z" fill="#535353" stroke-width="0"/><path d="M478.76965,206.7915l-0.07105,-0.33294c0,0 7.40145,-2.09789 10.78565,-2.82001c2.92592,-0.62436 8.34516,-1.26233 8.34516,-1.26233l0.1078,0.3251c0,0 -5.911,1.0927 -9.08457,1.76989c-3.21506,0.68607 -10.08294,2.3203 -10.08294,2.3203z" fill="#4e4e4e" stroke-width="0"/></g><g stroke-width="0"><g><g><g><path d="M477.73989,215.94339l-7.22807,-11.91759l0.18162,-1.79885c0,0 4.07219,2.43295 5.49401,4.67599c0.77188,1.21774 2.975,8.73691 2.975,8.73691z" fill="#383638"/><path d="M478.62363,215.04787c0,0 -0.07014,-0.60844 -1.19724,-2.87808c-1.22912,-2.47512 -3.34997,-5.74151 -3.95858,-6.70976c-1.36617,-2.17345 -2.13168,-2.14355 -2.13168,-2.14355l4.5729,-1.57074l7.69342,12.2397z" fill="#555355"/><path d="M471.41653,203.38658l-0.82705,-1.08774c0,0 1.80875,-1.204 2.74921,-1.40467c0.88124,-0.18806 2.1433,0.28629 2.1433,0.28629l0.84218,1.15882z" fill="#686668"/></g><path d="M472.1921,217.12724l-7.22807,-11.91758l-0.13773,-1.71013c0,0 4.39154,2.34419 5.8133,4.58721c0.77188,1.21773 2.97501,8.73691 2.97501,8.73691z" fill="#383638"/><path d="M473.07579,216.23166c0,0 -0.07014,-0.60845 -1.19724,-2.87808c-1.22912,-2.47512 -3.34997,-5.74151 -3.95858,-6.70976c-1.36617,-2.17345 -2.13168,-2.14355 -2.13168,-2.14355l3.73507,-1.90323c0,0 1.26526,1.01248 1.68168,1.67492c1.18639,1.88745 6.8496,10.8972 6.8496,10.8972z" fill="#555355"/><path d="M465.86868,204.57037l-1.04041,-1.0422c0,0 2.02215,-1.24952 2.9626,-1.4502c0.88124,-0.18806 1.85879,0.34701 1.85879,0.34701l0.96447,1.13278z" fill="#686668"/><path d="M479.21657,213.90517c-0.17104,-0.80148 0.34007,-1.58985 1.14153,-1.76086c0.80149,-0.17105 1.58985,0.34007 1.76086,1.14153c0.17104,0.80148 -0.34007,1.58985 -1.14152,1.76086c-0.80149,0.17105 -1.58985,-0.34007 -1.76086,-1.14153z" fill="#312f31"/><path d="M479.24643,210.90359l-3.11288,-5.00714l1.52642,-0.47227l3.12636,5.07025z" fill="#444144"/></g><path d="M432.68915,220.47853l-5.94058,-9.79953l29.46987,-5.08565l1.55304,9.53284z" fill="#444444"/><path d="M444.23454,214.01123c0,0 0.51304,-0.64316 0.98887,-1.87449c0.43506,-1.12579 0.82225,-2.82185 1.10165,-3.35566c0.59763,-1.87242 3.02127,-1.91227 3.02127,-1.91227l-0.82173,0.84311l-3.17233,6.06085z" fill="#292929"/><path d="M449.16965,223.72462l-8.66054,-9.37034c0,0 3.53258,-0.21057 4.97977,-1.59207c1.12456,-1.07357 0.4832,-3.62794 1.96722,-4.23187c4.25772,-1.73261 16.75824,-4.84375 16.75824,-4.84375c0,0 4.65991,6.31145 6.16923,8.94142c1.04197,1.81567 2.36937,6.06419 2.36937,6.06419z" fill="#4a464a"/><path d="M450.48005,210.04129c-4.59312,0.32976 -3.46867,-1.30484 -3.46867,-1.30484c0,0 0.50349,-1.439 2.29922,-1.97163c4.40662,-1.30708 12.97978,-2.54665 14.65873,-2.93111c0.79179,-0.18135 0.48413,0.60816 0.48413,0.60816c0,0 -0.95865,2.64424 -2.42209,3.21629c-1.46352,0.57207 -6.95817,2.0534 -11.55134,2.38313z" fill="#5e595e"/></g><g><path d="M438.99785,232.61856l-8.79067,-16.46344l18.55122,-3.6659l5.59708,3.23142l5.94436,-1.36923l5.70294,12.50452z" fill="#4d4846"/><path d="M443.66592,232.01823l18.24146,-13.49553l21.77958,-4.89544c0,0 2.15605,3.817 2.57856,5.11188c0.2154,0.66021 0.46285,2.91163 0.46285,2.91163z" fill="#423d3b"/><path d="M438.20167,224.68615l-5.16427,-8.96581l0.80244,-0.17121l5.16427,8.96581z" fill="#363332"/><path d="M444.07131,231.11208l-0.25405,-1.19059c0,0 4.61733,-3.58806 13.48262,-5.47983c1.17789,-0.25135 5.86388,1.35143 7.0511,1.09813c7.53249,-1.60738 14.9054,-3.18068 17.71031,-3.77923c2.28434,-0.48744 4.34573,-2.2566 4.34573,-2.2566l0.52535,2.46198z" fill="#312e2c"/><path d="M443.73021,218.15784l-2.66841,-4.14984l8.12477,-1.73377l4.98623,3.45685l6.20817,-1.12631l-7.01594,3.48973z" fill="#585350"/><path d="M435.91812,227.00864l-0.23545,-1.10337c0,0 7.08745,-5.34028 9.90129,-5.94074c4.24089,-0.90498 15.94862,-3.4033 15.94862,-3.4033l0.23545,1.10337c0,0 -11.90843,2.54114 -16.14923,3.44614c-2.75609,0.58809 -9.70068,5.89792 -9.70068,5.89792z" fill="#2b2827"/></g></g></g><g><g><g><path d="M117.55557,338.55877c0.99512,2.07191 1.2329,4.66901 0.22106,5.15498c-1.01183,0.48597 -2.89024,-1.32315 -3.88537,-3.39514c-0.99512,-2.07191 -4.87092,-10.00822 -3.85902,-10.49422c1.01183,-0.48597 6.52827,6.66236 7.52337,8.73433z" fill="#615e5f" stroke-width="0"/><g><path d="M151.98625,300.60878c-0.63756,-0.40344 -3.20057,-1.19842 -3.20057,-1.19842l9.10053,-4.88683l-4.36529,8.29361c0,0 -0.89709,-1.80489 -1.53469,-2.20836z" fill="#756a6a" stroke-width="0"/><path d="M142.80425,300.83269l-2.86606,-13.43094l16.90091,-9.60523l4.09042,19.16846z" fill="#8a7c7c" stroke-width="0"/><path d="M104.78672,314.51499l2.73557,-19.12535l34.13632,-7.42071l7.07694,11.44169c0,0 -22.1548,6.33917 -29.48615,8.85884c-3.04334,1.04593 -14.46273,6.24558 -14.46273,6.24558z" fill="#7c787a" stroke-width="0"/><path d="M108.13991,297.71682l-0.45402,-1.41795c0,0 25.35337,-5.41023 33.32376,-7.11101c4.45946,-0.95162 14.46314,-9.60009 14.46314,-9.60009l0.3401,1.59377c0,0 -9.71998,8.56821 -14.03592,9.47424c-7.91381,1.66127 -33.63703,7.0611 -33.63703,7.0611z" fill="#535353" stroke-width="0"/><path d="M73.56128,321.90204l-4.20599,-19.71025c0,0 2.95922,-7.84442 9.56474,-11.60166c8.20431,-4.66661 25.09377,-6.44539 27.11885,-6.87753c1.55401,-0.33161 -10.44949,12.88103 -10.44949,12.88103l4.20599,19.71025z" fill="#8d898b" stroke-width="0"/><path d="M233.07091,240.68235l0.91117,-3.40947l105.2265,-22.30839l3.07745,14.42154c0,0 -36.56359,9.68944 -48.60218,11.83287c-5.97869,1.0645 -60.61297,-0.53659 -60.61297,-0.53659z" fill="#c98cac" stroke-width="0"/><path d="M232.96187,343.97974l-7.14335,-11.70336c0,0 6.24361,4.63862 9.25326,5.09747c1.91756,0.29235 6.13029,-0.21624 11.59787,-3.87531c4.40158,-2.94562 8.3064,-9.41378 8.3064,-9.41378l-8.31881,16.97246z" fill="#a08e97" stroke-width="0"/><path d="M311.66806,279.21217l-7.21607,-22.61338l17.84623,-5.24256l4.42368,20.73031c0,0 -5.89777,3.01636 -8.45626,4.27635c-1.17805,0.58014 -6.59754,2.84935 -6.59754,2.84935z" fill="#96858d" stroke-width="0"/><path d="M231.9464,348.02653l-1.1562,-5.41816c0,0 12.22932,-0.49451 16.09572,-4.51119c1.88168,-1.9548 13.9939,-25.94322 20.6455,-39.25648c2.59576,-5.19549 4.35998,-8.7652 4.35998,-8.7652c0,0 2.49792,-4.3912 1.90035,-7.21076c-0.30061,-1.41838 -0.71308,-5.60317 -2.00867,-7.69007c-1.30716,-2.1056 -3.49628,-2.10705 -3.49628,-2.10705l-7.59731,-12.25667l19.40969,-3.99494l2.70034,26.59539l4.21008,1.72114c0,0 -8.09247,7.86207 -11.58523,13.67468c-5.46493,9.09455 -21.99812,43.69157 -21.99812,43.69157z" fill="#918189" stroke-width="0"/><path d="M289.07194,284.39469l-4.78255,-28.22733l13.52987,-2.60518l12.64024,9.57508l1.21522,16.43422z" fill="#96858d" stroke-width="0"/><path d="M285.03287,287.14735l-3.31918,-3.53083l-2.00462,-26.35178l4.95034,-1.14297l5.30513,28.09825z" fill="#8f8187" stroke-width="0"/><path d="M310.48917,279.93033c0,0 1.2998,-7.09451 -1.15235,-12.1039c-1.41192,-2.88438 -6.62577,-3.78585 -7.49132,-5.55407c-1.65341,-3.37778 -4.21131,-8.6032 -4.21131,-8.6032l8.59287,2.62857c0,0 4.83661,6.34406 6.31049,10.38702c0.99029,2.71622 0.86988,9.2615 0.50604,11.99653c-0.03067,0.23057 -1.19833,0.39456 -1.21431,0.56704c-0.03907,0.4213 0.9522,0.44632 0.9522,0.44632z" fill="#86787e" stroke-width="0"/><path d="M306.33019,257.80941c0,0 -3.84813,-3.22281 -8.63031,-3.19584c-5.41396,0.03055 -22.19392,3.36982 -22.19392,3.36982l151.30455,-46.78819l5.2815,8.38421l10.06892,9.24492c0,0 -99.10922,18.51972 -119.24421,22.81638c-6.57036,1.40203 -16.5865,6.16875 -16.5865,6.16875z" fill="#df8db7" stroke-width="0"/><path d="M165.37521,336.23278l-12.26163,-34.4699c0,0 0.86343,-4.01938 1.30856,-4.33487c4.90768,-3.47864 34.01593,-20.58175 39.39519,-21.43687c5.89267,-0.93682 -6.40334,13.88421 -6.40334,13.88421c0,0 -13.66975,4.98855 -15.26464,9.67444c-2.1654,6.36208 6.19681,22.32189 6.19681,22.32189z" fill="#c77da3" stroke-width="0"/><path d="M229.95502,291.84928l-2.18942,-1.68546c0,0 4.61843,-9.7859 6.51996,-12.53599c1.96311,-2.83922 5.07983,-4.24063 5.07983,-4.24063l6.28524,1.01279c0,0 -4.48239,0.44263 -6.43594,2.61438c-1.67703,1.86441 -4.70402,5.65831 -6.79722,9.26694c-1.52267,2.62501 -2.46244,5.56788 -2.46244,5.56788z" fill="#414041" stroke-width="0"/><path d="M107.60922,296.76021l2.2548,-12.43387l47.5577,-10.14843c0,0 -1.90492,4.96231 -4.54552,7.53616c-2.59164,2.52622 -11.15396,7.76665 -11.15396,7.76665z" fill="#979395" stroke-width="0"/><path d="M108.15306,295.47557l1.47238,-12.2669l47.5577,-10.14843c0,0 -1.90492,4.96231 -4.54552,7.53616c-2.59164,2.52622 -11.15396,7.76665 -11.15396,7.76665z" fill="#bdb7ba" stroke-width="0"/><path d="M312.91123,279.74144l-1.93883,-0.11133l15.60666,-7.5991c0,0 -3.05261,2.75511 -5.31556,4.05286c-2.26293,1.29778 -8.35224,3.65756 -8.35224,3.65756z" fill="#887980" stroke-width="0"/><path d="M167.90315,336.16827c0,0 -4.47273,-9.74667 -7.42934,-17.84644c-2.97099,-8.13929 -5.73242,-15.77793 -6.50214,-19.27911c-0.13038,-0.59317 -0.59105,-10.64912 -0.21109,-11.26331c2.05087,-3.31546 11.2383,2.64199 16.44958,0.40152c7.71618,-3.31735 26.29667,-7.80793 26.29667,-7.80793l-7.15926,6.958c0,0 -18.42341,6.86102 -19.69032,12.38425c-1.71357,7.47075 10.04648,26.30395 10.04648,26.30395z" fill="#d486ae" stroke-width="0"/><path d="M168.27543,332.49083c0,0 -15.04406,-38.58149 -15.84939,-48.71355c-0.37681,-4.74067 -5.55847,-12.94782 -5.55847,-12.94782l51.00593,-3.75866l4.74626,15.41899c0,0 -31.98229,3.66191 -36.88355,11.12303c-3.27177,4.98053 9.28153,31.18073 9.28153,31.18073z" fill="#e490bb" stroke-width="0"/><g stroke-width="0"><path d="M290.5051,241.99603l-1.72693,-8.09268l9.15388,-1.95334l1.72693,8.09268z" fill="#454545"/><path d="M291.15953,241.07428l-1.87194,-7.06297l11.07681,-2.36369l1.52306,7.13741z" fill="#b0b0b0"/><path d="M289.99723,236.73223l-0.81421,-2.72028l11.28867,-2.40891l0.39807,1.86537c0,0 -7.554,1.94169 -9.18702,2.4319c-0.54567,0.16378 -1.68551,0.83192 -1.68551,0.83192z" fill="#bebebe"/><path d="M302.02056,238.19474c0,0 -5.95196,-1.3428 -6.17568,-5.12712c-0.33244,-5.62346 3.7978,-6.01598 3.7978,-6.01598l39.63457,-7.09433l2.0996,9.83907z" fill="#9c989a"/><path d="M303.49945,236.56089c0,0 -3.1664,-2.92247 -3.59858,-3.77795c-0.64067,-1.26809 0.69305,-4.57659 0.69305,-4.57659l40.68681,-8.64814l1.17164,7.40723z" fill="#898587"/><path d="M303.45246,236.77364l-1.40187,-1.68389l37.38995,-7.97868l0.40475,1.89667z" fill="#c1bcbf"/><path d="M302.62567,233.47973c0,0 -1.58946,-1.0596 -1.7851,-1.97631c-0.18302,-0.85751 0.64677,-3.35815 0.64677,-3.35815l37.81529,-8.06944l1.13829,5.33445z" fill="#0d0d0d"/><path d="M302.78787,234.23994c0,0 -1.71545,-1.65006 -1.91108,-2.56678c-0.18302,-0.85751 0.77273,-2.76767 0.77273,-2.76767l37.8153,-8.06944l1.13829,5.33445z" fill="#2e2e2e"/><path d="M298.46532,237.10846c-3.2208,-2.44872 -2.5689,-4.97698 -2.5689,-4.97698c0,0 2.65013,3.6394 4.04574,4.25942c1.65235,0.73399 5.46775,1.31658 5.46775,1.31658l-3.41688,0.80088c0,0 -2.96089,-0.96895 -3.52766,-1.39987z" fill="#7d7a7c"/><path d="M305.39528,234.00016c0,0 -1.33095,-1.97781 -1.5696,-3.09619c-0.20979,-0.98311 0.21306,-3.26069 0.21306,-3.26069l4.71711,-1.00658c0,0 0.009,2.25169 0.19019,3.10079c0.24904,1.16702 1.16633,3.25606 1.16633,3.25606z" fill="#555555"/><path d="M313.82225,232.202c0,0 0.12542,-2.60668 -0.11325,-3.72505c-0.20979,-0.98311 -1.24325,-2.63181 -1.24325,-2.63181l5.26479,-1.12345c0,0 -0.04957,1.76425 0.13162,2.61339c0.24904,1.16702 1.22489,3.74349 1.22489,3.74349z" fill="#555555"/><path d="M322.94356,230.25553c0,0 0.12543,-2.60668 -0.11323,-3.72505c-0.20979,-0.98311 -1.24325,-2.6318 -1.24325,-2.6318l5.18655,-1.10679c0,0 -0.04957,1.76425 0.13162,2.61339c0.24904,1.16702 1.22489,3.74349 1.22489,3.74349z" fill="#555555"/><path d="M332.39407,228.23887c0,0 0.37351,-2.29602 0.13482,-3.41444c-0.20979,-0.98311 -1.49134,-2.94241 -1.49134,-2.94241l5.0301,-1.07337c0,0 1.2231,1.76536 1.40433,2.61452c0.24904,1.16702 -0.04776,3.7424 -0.04776,3.7424z" fill="#555555"/><path d="M303.9254,228.38736l-0.81744,-0.64357l34.77956,-7.42167l-1.33351,1.10256c0,0 -2.76777,0.59061 -5.17573,1.10447c-0.52487,0.11196 -1.5867,0.00247 -2.37292,0.17016c-0.76014,0.16221 -1.23716,0.60017 -2.1821,0.8018c-1.47351,0.31441 -3.13603,0.66923 -4.87651,1.04061c-0.72158,0.15398 -1.42949,-0.08715 -2.16997,0.07087c-0.65846,0.14053 -1.34835,0.67989 -2.00991,0.8211c-1.6419,0.35036 -3.26763,0.69727 -4.79612,1.02346c-0.7019,0.14979 -1.47477,-0.13353 -2.1278,0.00583c-0.79722,0.17011 -1.46071,0.75994 -2.15924,0.90901c-2.84933,0.60801 -4.75832,1.01539 -4.75832,1.01539z" fill="#474747"/></g><g><path d="M173.94858,324.70659l3.03682,-3.58004c0,0 3.35017,2.16336 6.30858,2.44719c2.61659,0.25103 10.54256,-0.83059 10.54256,-0.83059l-1.68791,4.81252z" fill="#6d6a6b" stroke-width="0"/><path d="M167.42358,332.74545l7.48699,-9.14911c0,0 3.63443,1.53179 5.89358,1.7265c3.41778,0.29454 12.6176,-0.13104 12.6176,-0.13104l-3.28464,5.10521z" fill="#615e5f" stroke-width="0"/><path d="M173.9628,353.81203l-6.16152,-21.76646c0,0 4.42363,-0.1342 9.14495,-1.11142c3.68516,-0.76276 7.46702,-2.43596 10.02304,-2.35934c4.48727,0.13447 39.8537,5.22148 39.8537,5.22148l4.54732,9.43354z" fill="#575455" stroke-width="0"/><path d="M189.43541,322.85958c5.61922,-6.88961 10.70366,-21.72951 11.39766,-24.5069c0.49996,-2.00087 0.07126,-7.30422 0.07126,-7.30422l8.95629,5.05705c0,0 9.99853,18.82462 13.79241,30.94652c1.06155,3.39182 4.34696,6.72479 3.49286,8.40654c-0.76526,1.50679 -16.87523,7.28598 -22.31027,7.66375c-11.43789,0.79512 -16.52024,4.73198 -21.28345,0.35427c-4.76322,-4.37767 0.87265,-11.99177 0.87265,-11.99177c0,0 3.54768,-6.83162 5.01058,-8.62525z" fill="#504e4f" stroke-width="0"/><path d="M187.28483,289.7542c0,0 0.07557,-1.54252 0.77523,-2.37027c0.89983,-1.06459 4.17587,-3.48727 4.17587,-3.48727c0,0 9.59215,0.06703 13.05577,1.87399c3.19567,1.66711 -0.80114,13.03271 -0.80114,13.03271l-3.08122,-4.82457z" fill="#464445" stroke-width="0"/><path d="M219.86376,331.09293c0,0 -7.77431,8.05559 -16.03609,9.99388c-7.97019,1.8699 -16.43478,-2.34836 -16.62696,-3.76159c-0.10413,-0.76568 6.95951,-5.65273 9.47848,-10.50674c2.80011,-5.39571 1.13257,-10.86977 2.0341,-13.11786c2.51683,-6.27614 8.65169,-17.99293 6.35273,-23.68206c-2.41095,-5.96631 -13.3253,-5.75783 -13.3253,-5.75783c0,0 3.29649,-3.00584 8.14527,-4.17331c2.06542,-0.49731 6.80209,-0.09102 7.78537,0.09278c3.22449,0.6027 5.51283,1.78746 5.51283,1.78746c0,0 2.55971,-5.53541 6.01794,-6.58979c3.45822,-1.05435 22.48463,-2.10045 22.48463,-2.10045l-13.22531,15.69971z" fill="#555354" stroke-width="0"/><path d="M198.44993,314.36519c0,0 2.24999,-11.59771 5.74198,-17.90016c3.49199,-6.3024 6.81684,-10.26402 10.27143,-11.00121c2.50164,-0.53382 7.51542,7.20566 7.51542,7.20566l-4.82909,30.44745c0,0 -13.61487,6.25824 -15.57728,4.1405c-1.54992,-1.67261 -3.12237,-12.89226 -3.12237,-12.89226z" fill="#585758" stroke-width="0"/><path d="M226.20597,336.35666c0,0 -4.10683,-5.4541 -4.41845,-8.47786c-0.43535,-4.22416 -1.66405,-16.90082 -1.66405,-16.90082l4.09145,9.79758c0,0 1.40784,9.66653 2.16995,12.60199c0.7353,2.83223 2.58024,4.65781 2.58024,4.65781z" fill="#3f3e3f" stroke-width="0"/><path d="M221.56944,319.07862c-0.54064,-1.59713 -1.88886,-9.19397 -1.88886,-9.19397c0,0 6.30748,-16.24192 7.80505,-19.27429c0.43902,-0.88895 3.35958,-3.28209 3.35958,-3.28209l-0.59703,5.09061c0,0 -1.41313,0.91912 -1.48926,1.42398c-0.08111,0.53788 1.01657,1.71038 1.01657,1.71038l-3.24618,9.36375c0,0 -1.4034,1.3328 -1.47314,1.86444c-0.06979,0.53176 0.78806,1.25687 0.78806,1.25687c0,0 -1.90352,9.54876 -2.22347,12.08621c-0.14794,1.17323 0.38089,2.52521 0.38089,2.52521c0,0 -1.89149,-1.9739 -2.43213,-3.57104z" fill="#474647" stroke-width="0"/><path d="M204.35643,301.31121l22.3138,3.65916c0,0 -0.95148,1.23813 -1.07097,1.8148c-0.08817,0.42554 0.41913,1.3317 0.41913,1.3317z" fill="#3f3e3e" stroke-width="NaN"/><path d="M208.06372,289.93406l22.41341,2.43492c0,0 -0.91449,1.05742 -1.00475,1.64558c-0.09406,0.61311 0.49251,1.59141 0.49251,1.59141z" fill="#3f3e3e" stroke-width="NaN"/><path d="M201.8829,320.57873c0,0 12.06248,5.29219 19.05866,9.91141c6.99616,4.61926 5.35008,6.20454 5.35008,6.20454z" fill="#636162" stroke-width="NaN"/><path d="M210.06542,295.25697c0,0 -5.26247,4.09241 -7.30518,7.69393c-2.04272,3.60152 -6.81592,21.16736 -7.43063,18.28669c-0.61471,-2.88068 7.89374,-25.88394 9.64914,-26.25853c0.66452,-0.1418 3.39554,-1.89256 4.24548,-1.83109c1.39535,0.10088 0.8412,2.109 0.8412,2.109z" fill="#918f91" stroke-width="0"/><path d="M173.4896,353.78065l13.24173,-4.75649c0,0 12.24921,-2.95365 15.3492,-3.45658c7.54936,-1.22486 30.1115,-3.91927 30.1115,-3.91927l0.88203,6.27516c0,0 -23.08047,8.57091 -30.09766,8.72306c-2.03006,0.04402 -7.84765,0.65346 -12.29187,0.21919c-8.69716,-0.84983 -17.19493,-3.08508 -17.19493,-3.08508z" fill="#626061" stroke-width="0"/><path d="M232.01784,347.78915c0,0 -0.85628,-4.20656 -1.78365,-6.40119c-1.04232,-2.46671 -4.16584,-7.67847 -4.16584,-7.67847l1.7431,-0.37195c0,0 2.61144,3.99991 3.55505,6.23298c1.03169,2.44155 2.39447,7.84668 2.39447,7.84668z" fill="#4a494a" stroke-width="0"/><path d="M232.00141,348.64781l-0.62266,-3.34079c0,0 0.60951,0.14063 0.87504,0.08393c0.3155,-0.06732 0.85353,-0.45279 0.85353,-0.45279l0.83285,3.07038c0,0 -0.67439,0.56072 -1.02765,0.67717c-0.27067,0.08928 -0.91108,-0.03792 -0.91108,-0.03792z" fill="#363536" stroke-width="0"/><path d="M226.5513,334.65484l-0.71556,-1.50443c0,0 0.33423,-0.43369 0.68224,-0.56855c0.33143,-0.1284 0.86793,-0.11739 0.86793,-0.11739l0.85294,1.59349c0,0 -0.36534,0.59681 -0.65445,0.69906c-0.2724,0.09633 -1.03314,-0.10221 -1.03314,-0.10221z" fill="#585758" stroke-width="0"/><path d="M191.0013,356.10082c0,0 -8.33754,-1.24014 -8.622,-2.57316c-0.28587,-1.33965 5.56965,-3.78634 5.56965,-3.78634c0,0 10.65267,-2.51937 15.53656,-3.38506c2.73419,-0.48462 11.27212,-1.36691 11.27212,-1.36691c0,0 7.35127,-0.49075 8.38878,0.46553c1.13166,1.04307 -2.05433,4.62857 -2.05433,4.62857c0,0 -12.17113,3.93266 -16.09207,4.55646c-1.39286,0.22158 -13.99861,1.46099 -13.99861,1.46099z" fill="#6b696a" stroke-width="0"/><path d="M179.40657,351.51813l-1.87031,0.63512c0,0 -0.10417,-3.48977 2.81518,-2.8426c2.91937,0.64723 21.26449,-4.30167 21.26449,-4.30167z" fill="#4b4949" stroke-width="0"/><path d="M173.53089,353.62458c0,0 -1.91381,0.60429 -3.19734,-2.84657c-0.6497,-1.74682 -5.31315,-15.26334 -5.31315,-15.26334l3.04868,-3.61493c0,0 1.91762,5.71949 2.72494,8.5148c1.0737,3.71775 3.63973,13.01739 3.63973,13.01739z" fill="#3f3d3e" stroke-width="0"/><path d="M179.75597,351.61328c0,0 2.672,-2.7769 18.30447,-6.45744c1.29098,-0.30393 -1.76233,0.34329 7.5363,-1.12216c9.29864,-1.46553 13.43649,-0.80177 13.43649,-0.80177c0,0 -14.95761,2.09836 -21.02386,3.39289c-6.91479,1.47554 -18.25342,4.98858 -18.25342,4.98858z" fill="#838082" stroke-width="0"/><path d="M178.51139,321.57952c0,0 -3.81784,3.05136 -5.60788,5.08527c-2.01192,2.28606 -5.8758,7.96319 -5.8758,7.96319l-1.10143,-1.40264c0,0 2.87552,-4.55404 4.69684,-6.62361c1.99136,-2.26268 6.78682,-6.42489 6.78682,-6.42489z" fill="#4a494a" stroke-width="0"/><path d="M179.37101,321.13253l-3.13193,2.38674c0,0 -0.04064,-0.65231 -0.20845,-0.86596c-0.19937,-0.25387 -0.80817,-0.54117 -0.80817,-0.54117l2.69935,-2.4183c0,0 0.84007,0.31835 1.10413,0.58049c0.20235,0.20089 0.34498,0.85819 0.34498,0.85819z" fill="url(#color-3)" stroke-width="0"/><path d="M167.76361,333.67518l-2.3163,3.28554l-0.5962,-2.10455l1.61098,-2.41151c0,0 0.74613,0.01473 0.9691,0.22553c0.21007,0.19863 0.33236,1.00498 0.33236,1.00498z" fill="url(#color-4)" stroke-width="0"/></g><path d="M289.96639,283.08263c0,0 -0.01517,-4.5149 0.1872,-5.97847c0.13732,-0.99352 2.15969,-2.88894 2.15969,-2.88894l16.59915,-3.76523c0,0 -0.03909,5.9366 -0.12663,7.35236c-0.03837,0.62019 -0.93632,1.52001 -0.93632,1.52001z" fill="#665b60" stroke-width="0"/><path d="M238.61262,275.37351c0,0 -4.03672,-0.7362 -9.09716,-0.83453c-3.21691,-0.06254 -7.51118,0.27431 -9.30916,0.76616c-5.22724,1.42988 -6.62542,6.94808 -6.62542,6.94808c0,0 -3.68449,-1.58166 -5.92407,-1.9777c-2.09059,-0.36967 -6.55671,-0.44012 -6.55671,-0.44012c0,0 22.95617,-10.10455 26.60149,-11.4756c6.98832,-2.62845 33.16373,-7.81381 33.16373,-7.81381l9.06822,12.67228z" fill="#8b7c84" stroke-width="0"/><g stroke-width="0"><path d="M291.19227,281.85705c0,0 -0.0807,-2.63749 0.13393,-3.59823c0.22249,-0.99613 2.13853,-2.48113 2.13853,-2.48113l14.21009,-3.03233c0,0 0.58294,0.88071 0.50671,1.65138c-0.10367,1.0478 -2.2457,4.31413 -2.2457,4.31413z" fill="#585852"/><path d="M291.03671,281.12813c0,0 0.07486,-1.90854 0.28949,-2.86929c0.22249,-0.99613 1.98297,-3.21006 1.98297,-3.21006l14.21009,-3.03232c0,0 0.73851,1.60965 0.66228,2.38033c-0.10367,1.0478 -2.4013,3.58516 -2.4013,3.58516z" fill="#797971"/><path d="M305.89734,272.86928c-1.06291,0.04487 -12.4862,2.20502 -12.4862,2.20502l14.19064,-3.02816l0.51376,2.40764c0,0 -1.15531,-1.62934 -2.21822,-1.58451z" fill="#85857b"/></g><path d="M288.80046,263.79027l-1.08307,-5.07551l6.97877,-1.48923l2.35195,4.80472z" fill="#7c6e75" stroke-width="0"/><path d="M273.09152,240.12393l-5.78168,-7.08058l1.34898,-0.28784l7.7688,7.11833z" fill="#d495b6" stroke-width="0"/><path d="M233.3546,240.80266l12.28319,-5.78036l21.87162,-1.99591l5.60359,7.07868z" fill="#df9cbe" stroke-width="0"/><path d="M290.00829,268.67328l-0.33844,-1.58609l10.62678,-2.26766l1.2901,1.38304z" fill="#7c6e75" stroke-width="0"/><path d="M247.79322,265.25383c0,0 -17.48424,4.95635 -22.88859,6.62109c-8.1834,2.52067 -24.39254,8.35719 -24.39254,8.35719c0,0 13.76618,-7.47822 26.65978,-11.77984c13.97996,-4.66407 56.75544,-15.28218 56.75544,-15.28218l1.12885,5.28994z" fill="#75686e" stroke-width="0"/><path d="M242.85746,275.27504l-3.29096,0.1186c0,0 9.05774,-4.37094 14.43887,-4.73928c5.38115,-0.36835 15.51817,2.68877 15.51817,2.68877z" fill="#7c6e76" stroke-width="0"/><path d="M196.58319,281.02862c0,0 -34.85792,-8.3047 -36.69399,-12.63704c-1.66782,-3.93542 29.65511,-3.92732 29.92374,-4.0953c4.70025,-2.93951 73.49472,-24.99701 73.49472,-24.99701l27.43974,1.08679l51.48091,-11.56989l9.98042,11.75133c0,0 -59.95971,13.99008 -83.16864,19.10939c-8.05644,1.77706 -24.65328,4.6564 -39.38223,8.96541c-11.36144,3.32384 -27.75747,11.23637 -27.75747,11.23637z" fill="#ee96c3" stroke-width="0"/><path d="M72.91264,320.24458l-0.95229,-20.40452c0,0 -1.57144,-6.87762 5.03409,-10.63486c8.20431,-4.66661 25.09377,-6.44538 27.11886,-6.87752c1.55401,-0.33161 -10.4495,12.88103 -10.4495,12.88103l4.206,19.71023z" fill="#c4b4b3" stroke-width="0"/><g stroke-width="0"><path d="M344.07141,243.71713l-5.95446,-14.21319l92.12609,-12.74211l0.47179,5.83704l-45.37061,14.64816z" fill="#ad6d8e"/><path d="M366.84483,224.19845l5.38615,-9.60831l25.74086,-7.66985l-2.03945,11.07116z" fill="#8d788b"/><path d="M342.18275,230.67652l-3.38819,-15.8778l33.50601,-0.21922l-3.04436,7.67334z" fill="#857183"/><path d="M382.97443,218.57624l14.93636,-11.64174l28.01593,-2.12073l1.15896,6.80189z" fill="#947e92"/><path d="M337.97852,230.95146l0.16574,-13.08877l0.77558,-3.29828l3.14372,14.73217z" fill="#756474"/><path d="M344.65172,240.30652l-3.22491,-11.65634l42.01598,-10.65183l2.15192,15.95939z" fill="#746373"/><path d="M385.58399,233.94421c0,0 -0.94472,-6.2479 -1.3439,-9.0709c-0.34177,-2.41699 -0.90591,-6.83897 -0.90591,-6.83897l43.4165,-8.33516l3.70898,7.79766z" fill="#867284"/><path d="M338.00333,230.87409l3.61942,-2.33773l3.05992,11.77133z" fill="#6f5e6d"/><path d="M418.84782,206.21434l-20.08379,0.8463l26.89764,-2.02149l0.38429,3.54329c0,0 -0.63416,-1.46926 -1.96301,-1.90649c-0.8889,-0.29244 -5.23515,-0.46166 -5.23515,-0.46166z" fill="#978195"/><path d="M381.20163,218.29022c0,0 7.07585,-5.05324 9.51031,-6.95729c1.77341,-1.38703 3.75206,-3.41569 3.75206,-3.41569l2.50155,-0.41866l-13.17363,10.23884z" fill="#9c859a"/><path d="M367.30611,222.08191c0,0 0.71301,-2.96641 1.75179,-4.56876c1.03872,-1.60234 3.12603,-2.88135 3.12603,-2.88135l-2.47046,6.93634z" fill="#806b7d"/><path d="M399.08883,204.89811l0.88984,-6.0523l15.64445,0.47903l6.81233,5.09039z" fill="#55494f"/><path d="M397.19561,208.16522c0,0 0.89368,-0.99869 1.31969,-1.68752c0.32089,-0.51887 0.70479,-2.01654 0.70479,-2.01654l22.65717,-0.74479c0,0 0.95247,0.30492 1.59374,0.50109c0.67017,0.20499 2.34438,0.70358 2.34438,0.70358z" fill="#685960"/><path d="M399.45145,203.90843l0.66508,-4.83053l14.52917,0.30134c0,0 -8.15029,0.17198 -12.47956,1.35621c-2.51123,0.68694 -2.71466,3.17296 -2.71466,3.17296z" fill="#41383c"/></g><path d="M66.31842,281.48722l-1.08695,-5.09367c0,0 21.57444,-5.92802 43.06097,-10.45482c12.80403,-2.69755 26.40851,-3.96701 33.10429,-5.75381c15.09755,-4.02892 24.39421,-10.62655 24.39421,-10.62655l-3.97981,11.73202z" fill="#ffa1d1" stroke-width="0"/><path d="M66.71012,295.67545l-1.24354,-16.17933c0,0 54.01974,-9.42046 71.38199,-13.57598c10.28467,-2.46155 23.1921,-9.05972 23.1921,-9.05972l3.05574,14.31996c0,0 -66.01473,14.08699 -81.92884,17.48291c-6.54327,1.39627 -8.84687,33.3045 -8.84687,33.3045z" fill="#ee96c3" stroke-width="0"/><path d="M257.93688,333.0836l6.23835,-15.23319c0,0 6.39095,-17.57804 14.15209,-26.25149c1.97224,-2.20405 6.77824,-4.45308 6.77824,-4.45308c0,0 -6.10271,6.39963 -8.05783,9.6711c-4.61714,7.72584 -19.11075,36.2666 -19.11075,36.2666z" fill="#70646b" stroke-width="0"/><path d="M338.29955,249.63442l-9.91876,-16.29053l1.32038,-0.28176c0,0 3.00391,4.9336 4.59118,7.54056c0.22614,0.37143 1.81592,1.28079 2.09603,1.74088c0.48562,0.79755 -0.29714,1.21357 0.24558,2.10498c1.51128,2.48213 2.98595,4.9041 2.98595,4.9041z" fill="#795467" stroke-width="0"/><path d="M163.8049,271.47068c0,0 -11.61865,-4.22052 -11.74204,-8.0541c-0.0739,-2.29536 14.73828,-13.58732 14.73828,-13.58732l67.34256,-12.66056l-0.95449,3.36951l30.09261,-1.05492l-64.66906,40.97337c0,0 -1.9455,-5.32506 0.98099,-8.87204c2.84426,-3.44732 16.33822,-12.11933 16.33822,-12.11933c0,0 -33.47418,7.09302 -40.62267,8.5298c-2.38489,0.47933 -11.50442,3.47564 -11.50442,3.47564z" fill="#f399c8" stroke-width="0"/><g><path d="M165.44539,252.08609l-0.67581,-3.16704l172.66615,-36.84547l0.67581,3.16704z" fill="#584f54" stroke-width="0"/><path d="M331.81885,213.52595l-0.57107,-2.67609l2.988,-0.63761l3.2075,2.11352z" fill="#685d63" stroke-width="0"/><g fill="#685d63" stroke-width="0"><g><g><g><path d="M325.35742,215.15956l-0.62126,-2.91148l3.79564,-0.80999l0.62126,2.91148z"/><path d="M319.19856,216.47381l-0.62126,-2.91148l3.79565,-0.80998l0.62126,2.91148z"/></g><g><path d="M313.27212,217.73848l-0.62126,-2.91149l3.79565,-0.80998l0.62126,2.91148z"/><path d="M307.11323,219.05274l-0.62126,-2.91148l3.79564,-0.80998l0.62126,2.91149z"/></g></g><g><g><path d="M301.07053,220.34217l-0.62126,-2.91149l3.79564,-0.80998l0.62126,2.91148z"/><path d="M294.91163,221.65644l-0.62126,-2.91148l3.79564,-0.80999l0.62126,2.91149z"/></g><g><path d="M288.98524,222.92106l-0.62126,-2.91148l3.79564,-0.80998l0.62126,2.91148z"/><path d="M282.82636,224.23531l-0.62126,-2.91148l3.79563,-0.80999l0.62126,2.91149z"/></g></g></g><g><g><g><path d="M282.59398,224.28495l-0.62126,-2.91148l3.79564,-0.80998l0.62126,2.91148z"/><path d="M276.43515,225.59916l-0.62126,-2.91148l3.79565,-0.80998l0.62126,2.91148z"/></g><g><path d="M270.50867,226.86383l-0.62126,-2.91149l3.79564,-0.80998l0.62126,2.91148z"/><path d="M264.34978,228.17806l-0.62126,-2.91148l3.79563,-0.80999l0.62126,2.91149z"/></g></g><g><g><path d="M258.30717,229.46751l-0.62126,-2.91149l3.79565,-0.80998l0.62126,2.91148z"/><path d="M252.14828,230.78179l-0.62126,-2.91148l3.79565,-0.80998l0.62126,2.91149z"/></g><g><path d="M246.22181,232.04647l-0.62126,-2.91148l3.79564,-0.80999l0.62126,2.91149z"/><path d="M240.06296,233.36067l-0.62126,-2.91148l3.79565,-0.80998l0.62126,2.91148z"/></g></g></g></g><g><g fill="#685d63" stroke-width="0"><g><g><path d="M233.98075,234.65859l-0.62126,-2.91149l3.79565,-0.80998l0.62126,2.91148z"/><path d="M227.82188,235.97278l-0.62126,-2.91148l3.79565,-0.80998l0.62126,2.91149z"/></g><g><path d="M221.89545,237.23751l-0.62126,-2.91148l3.79565,-0.80998l0.62126,2.91149z"/><path d="M215.73659,238.55169l-0.62126,-2.91148l3.79564,-0.80999l0.62126,2.91149z"/></g></g><g><g><path d="M209.69397,239.84118l-0.62126,-2.91149l3.79565,-0.80998l0.62126,2.91148z"/><path d="M203.53505,241.15537l-0.62126,-2.91148l3.79565,-0.80998l0.62126,2.91149z"/></g><g><path d="M197.60854,242.42007l-0.62126,-2.91148l3.79565,-0.80998l0.62126,2.91149z"/><path d="M191.4497,243.73436l-0.62126,-2.91148l3.79564,-0.80999l0.62126,2.91148z"/></g></g></g><g><g fill="#685d63" stroke-width="0"><g><path d="M191.21734,243.78392l-0.62126,-2.91149l3.79565,-0.80998l0.62126,2.91148z"/><path d="M185.05844,245.09816l-0.62126,-2.91148l3.79564,-0.80999l0.62126,2.91149z"/></g><g><path d="M179.13201,246.36283l-0.62126,-2.91148l3.79564,-0.80999l0.62126,2.91149z"/><path d="M172.97314,247.67702l-0.62126,-2.91148l3.79564,-0.80999l0.62126,2.91148z"/></g></g><g fill="none" stroke-width="1" font-family="sans-serif" font-weight="normal" font-size="12" text-anchor="start"><g/><g/></g></g></g><path d="M164.89133,249.14686l2.06539,-3.23865l2.988,-0.63761l0.57107,2.67609z" data-paper-data="{&quot;index&quot;:null}" fill="#685d63" stroke-width="0"/></g><path d="M227.41243,269.43223l-2.43932,0.79665c0,0 1.10614,-2.86139 10.25466,-5.96669c6.93596,-2.35426 26.77275,-7.92828 38.65642,-11.2267c5.51846,-1.53173 58.89753,-22.12696 58.89753,-22.12696l5.08135,-1.09895c0,0 -58.13531,23.28994 -63.65446,24.79806c-12.20438,3.33482 -32.71766,8.97722 -38.61019,10.82617c-3.20766,1.00648 -8.1859,3.9984 -8.1859,3.9984z" fill="#70475c" stroke-width="0"/><path d="M330.07182,266.98168l-4.43019,2.83271l-3.95016,-18.51466c0,0 7.62999,-1.57867 15.092,-3.12259c21.42118,-4.43216 124.37271,-25.73342 124.37271,-25.73342l1.40393,6.57913z" fill="#5a5959" stroke-width="0"/><path d="M329.51674,268.76518l0.43955,-3.16752l132.59293,-36.68445l-9.22589,13.43274z" fill="#4b4a4a" stroke-width="0"/><path d="M450.07036,242.84675c0,0 -6.4492,-1.92114 -9.71291,-2.68494c-1.74906,-0.40931 -8.3473,-1.54156 -8.3473,-1.54156c0,0 8.43124,1.16996 11.90004,1.39906c1.23797,0.0818 2.49185,0.57371 3.87737,0.81807c0.44678,0.07878 1.65424,-3.00018 3.15358,-5.07306c0.44816,-0.61959 1.65892,-0.50519 2.10369,-0.93836c1.01965,-0.99299 1.14298,-2.13531 1.14298,-2.13531c0,0 0.52399,0.83866 -0.41479,2.28011c-0.25612,0.39331 -1.94584,1.11413 -2.18891,1.53445c-0.97415,1.68471 -1.62018,3.45762 -1.79521,4.09948c-0.48846,1.79118 1.71258,1.93667 1.71258,1.93667z" fill="#414040" stroke-width="0"/><path d="M163.81909,271.77177l1.41498,-11.6506l6.72157,-2.07266c0,0 -0.37706,2.78829 -0.59926,4.43159c-0.05595,0.41388 11.07018,-3.96055 11.5545,-3.37774c0.89857,1.08124 -3.76618,5.92122 -3.90594,6.95467c-0.15978,1.1815 -8.58997,3.38516 -8.58997,3.38516z" fill="#303030" stroke-width="0"/><path d="M163.60147,271.43982l1.48705,-10.81207c0,0 3.20637,0.64976 3.41192,1.61303c0.37402,1.75276 0.03752,7.74199 0.03752,7.74199z" fill="#252525" stroke-width="0"/><path d="M326.17817,272.41541l-0.61614,-2.88738l4.786,-4.04019l-0.5947,3.14574c0,0 -0.78774,1.53343 -1.41648,2.19854c-0.55326,0.58525 -2.15867,1.58323 -2.15867,1.58323z" fill="#383838" stroke-width="0"/><g><g fill="#4b4b4b" stroke-width="0"><g data-paper-data="{&quot;origPos&quot;:null}"><g data-paper-data="{&quot;origPos&quot;:null}"><path d="M392.12715,259.74432l-0.4743,-2.22272l3.66744,-0.7826l0.4743,2.22272z" data-paper-data="{&quot;origPos&quot;:null}"/><path d="M385.99105,260.93754l-0.4743,-2.22272l3.66743,-0.7826l0.4743,2.22271z" data-paper-data="{&quot;origPos&quot;:null}"/></g><g data-paper-data="{&quot;origPos&quot;:null}"><path d="M404.37567,257.24678l-0.4743,-2.22272l3.66744,-0.7826l0.4743,2.22271z" data-paper-data="{&quot;origPos&quot;:null}"/><path d="M398.23956,258.43998l-0.4743,-2.22271l3.66743,-0.7826l0.4743,2.22272z" data-paper-data="{&quot;origPos&quot;:null}"/></g></g><g data-paper-data="{&quot;origPos&quot;:null,&quot;index&quot;:null}"><g data-paper-data="{&quot;origPos&quot;:null}"><path d="M423.10995,253.0167l-0.4743,-2.22272l3.66744,-0.7826l0.4743,2.22271z" data-paper-data="{&quot;origPos&quot;:null}"/><path d="M429.19857,251.60119l-0.47431,-2.22271l3.66744,-0.7826l0.4743,2.2227z" data-paper-data="{&quot;origPos&quot;:null}"/></g><g data-paper-data="{&quot;origPos&quot;:null}"><path d="M410.90887,255.73646l-0.4743,-2.22272l3.66743,-0.7826l0.47431,2.22271z" data-paper-data="{&quot;origPos&quot;:null}"/><path d="M416.99754,254.32102l-0.4743,-2.22271l3.66744,-0.7826l0.4743,2.22271z" data-paper-data="{&quot;origPos&quot;:null}"/></g></g></g><path d="M348.62541,260.59644l-2.84055,-13.31142l82.61401,-17.62909l2.84055,13.31142z" data-paper-data="{&quot;origPos&quot;:null}" fill="#444444" stroke-width="0"/><path d="M349.70725,265.19416l-0.99805,-4.67715l82.37119,-17.57731l0.99805,4.67716z" data-paper-data="{&quot;origPos&quot;:null}" fill="#414141" stroke-width="0"/><path d="M350.03855,266.57976l-0.33757,-1.58201l82.36068,-17.57506l0.33758,1.582z" data-paper-data="{&quot;origPos&quot;:null}" fill="#3f3f3f" stroke-width="0"/><g stroke-width="0"><g data-paper-data="{&quot;origPos&quot;:null}" fill="#5a5a5a"><g data-paper-data="{&quot;origPos&quot;:null}"><path d="M390.96084,251.64361l-2.86953,-13.44723l3.49278,-0.74534l2.86953,13.44723z" data-paper-data="{&quot;origPos&quot;:null}"/></g><g data-paper-data="{&quot;origPos&quot;:null}"><path d="M396.89859,250.37656l-2.86953,-13.44723l3.49279,-0.74534l2.86953,13.44723z" data-paper-data="{&quot;origPos&quot;:null}"/><path d="M403.01099,249.0722l-2.86952,-13.44724l3.49278,-0.74534l2.86953,13.44723z" data-paper-data="{&quot;origPos&quot;:null}"/></g></g><g data-paper-data="{&quot;origPos&quot;:null}" fill="#5a5a5a"><g data-paper-data="{&quot;origPos&quot;:null}"><path d="M409.47264,247.69334l-2.86953,-13.44723l3.49278,-0.74534l2.86953,13.44724z" data-paper-data="{&quot;origPos&quot;:null}"/><path d="M415.58499,246.389l-2.86953,-13.44723l3.49279,-0.74534l2.86952,13.44724z" data-paper-data="{&quot;origPos&quot;:null}"/></g><g data-paper-data="{&quot;origPos&quot;:null}"><path d="M421.52278,245.12193l-2.86952,-13.44724l3.49278,-0.74534l2.86952,13.44724z" data-paper-data="{&quot;origPos&quot;:null}"/><path d="M427.63517,243.81759l-2.86952,-13.44724l3.49278,-0.74534l2.86953,13.44723z" data-paper-data="{&quot;origPos&quot;:null}"/></g></g><path d="M394.51362,250.88549l-0.45646,2.07189l-5.11697,1.13596l-2.18075,-9.55168l1.27426,-6.33306l2.93698,13.43286z" fill="#3a3a3a"/><path d="M400.44899,249.61889l-0.45646,2.0719l-5.11698,1.13597l-2.18074,-9.55168l1.27426,-6.33305l2.93698,13.43285z" fill="#3a3a3a"/><path d="M406.51921,248.32358l-0.45646,2.0719l-5.11698,1.13598l-2.18075,-9.55168l1.27426,-6.33305l2.93698,13.43286z" fill="#3a3a3a"/><path d="M413.06154,246.9275l-0.45646,2.0719l-5.11698,1.13598l-2.18075,-9.55168l1.27426,-6.33305l2.93698,13.43286z" fill="#3a3a3a"/><path d="M419.19926,245.61781l-0.45646,2.0719l-5.11698,1.13598l-2.18075,-9.55168l1.27426,-6.33305l2.93698,13.43285z" fill="#3a3a3a"/><path d="M425.0671,244.36561l-0.45646,2.07189l-5.11697,1.13596l-2.18075,-9.55168l1.27426,-6.33305l2.93698,13.43286z" fill="#3a3a3a"/><path d="M431.21252,243.05422l-0.45646,2.07189l-5.11698,1.13598l-2.18074,-9.55168l1.27426,-6.33306l2.93698,13.43286z" fill="#3a3a3a"/></g><g stroke-width="0"><g data-paper-data="{&quot;origPos&quot;:null}" fill="#5a5a5a"><g data-paper-data="{&quot;origPos&quot;:null}"><path d="M348.68367,260.66521l-2.86952,-13.44724l3.49279,-0.74534l2.86953,13.44723z" data-paper-data="{&quot;origPos&quot;:null}"/></g><g data-paper-data="{&quot;origPos&quot;:null}"><path d="M354.62139,259.39817l-2.86953,-13.44723l3.49278,-0.74534l2.86953,13.44723z" data-paper-data="{&quot;origPos&quot;:null}"/><path d="M360.73374,258.09383l-2.86953,-13.44723l3.49279,-0.74534l2.86952,13.44724z" data-paper-data="{&quot;origPos&quot;:null}"/></g></g><g data-paper-data="{&quot;origPos&quot;:null}" fill="#5a5a5a"><g data-paper-data="{&quot;origPos&quot;:null}"><path d="M367.19544,256.71497l-2.86952,-13.44724l3.4928,-0.74533l2.86953,13.44723z" data-paper-data="{&quot;origPos&quot;:null}"/><path d="M373.30788,255.4106l-2.86953,-13.44723l3.49279,-0.74534l2.86952,13.44724z" data-paper-data="{&quot;origPos&quot;:null}"/></g><g data-paper-data="{&quot;origPos&quot;:null}"><path d="M379.24563,254.14356l-2.86953,-13.44723l3.49279,-0.74534l2.86952,13.44724z" data-paper-data="{&quot;origPos&quot;:null}"/><path d="M385.35803,252.83924l-2.86952,-13.44724l3.49279,-0.74534l2.86953,13.44724z" data-paper-data="{&quot;origPos&quot;:null}"/></g></g><path d="M352.23639,259.9071l-0.45646,2.0719l-2.66066,0.61183l-0.42577,-1.92774z" fill="#3a3a3a"/><path d="M358.17178,258.64057l-0.45646,2.0719l-5.11698,1.13598l-2.18074,-9.55168l1.27426,-6.33305l2.93698,13.43286z" fill="#3a3a3a"/><path d="M364.24194,257.34521l-0.45646,2.07189l-5.11698,1.13598l-2.18075,-9.55167l1.27426,-6.33306l2.93698,13.43286z" fill="#3a3a3a"/><path d="M370.78431,255.94909l-0.45646,2.07189l-5.11698,1.13598l-2.18074,-9.55168l1.27426,-6.33305l2.93698,13.43286z" fill="#3a3a3a"/><path d="M376.92208,254.63941l-0.45646,2.07189l-5.11697,1.13596l-2.18075,-9.55168l1.27426,-6.33305l2.93698,13.43286z" fill="#3a3a3a"/><path d="M382.78992,253.38718l-0.45646,2.07189l-5.11697,1.13596l-2.18075,-9.55168l1.27426,-6.33306l2.93698,13.43286z" fill="#3a3a3a"/><path d="M388.93538,252.07585l-0.45646,2.0719l-5.11697,1.13596l-2.18075,-9.55168l1.27426,-6.33305l2.93698,13.43286z" fill="#3a3a3a"/></g><g><g data-paper-data="{&quot;origPos&quot;:null}"><g data-paper-data="{&quot;origPos&quot;:null}" fill="none" stroke-width="1" font-family="sans-serif" font-weight="normal" font-size="12" text-anchor="start"/><g data-paper-data="{&quot;origPos&quot;:null}" fill="#4b4b4b" stroke-width="0"><path d="M356.72903,267.49283l-0.4743,-2.22272l3.66743,-0.7826l0.47431,2.22271z" data-paper-data="{&quot;origPos&quot;:null}"/><path d="M350.59291,268.68603l-0.4743,-2.22272l3.66743,-0.7826l0.4743,2.22272z" data-paper-data="{&quot;origPos&quot;:null}"/></g></g><g data-paper-data="{&quot;origPos&quot;:null,&quot;index&quot;:null}" fill="#4b4b4b" stroke-width="0"><g data-paper-data="{&quot;origPos&quot;:null}"><path d="M375.46331,263.26265l-0.4743,-2.22271l3.66744,-0.7826l0.4743,2.22271z" data-paper-data="{&quot;origPos&quot;:null}"/><path d="M381.55196,261.8472l-0.4743,-2.2227l3.66744,-0.7826l0.4743,2.22271z" data-paper-data="{&quot;origPos&quot;:null}"/></g><g data-paper-data="{&quot;origPos&quot;:null}"><path d="M363.26218,265.98253l-0.4743,-2.22272l3.66744,-0.7826l0.4743,2.22271z" data-paper-data="{&quot;origPos&quot;:null}"/><path d="M369.35086,264.56699l-0.4743,-2.22272l3.66744,-0.7826l0.4743,2.22272z" data-paper-data="{&quot;origPos&quot;:null}"/></g></g></g></g><path d="M175.8873,267.56668l0.13708,-4.33925c0,0 3.85269,-4.04047 7.27476,-4.9241c3.91209,-1.01017 33.22634,-7.24005 33.22634,-7.24005c0,0 1.03889,1.69628 1.24115,2.89772c0.26059,1.54791 -1.16934,4.98668 -1.16934,4.98668z" fill="#242424" stroke-width="0"/><path d="M199.43002,258.647l-0.65745,-3.08095l17.60541,-3.75686l0.65745,3.08095z" fill="#313131" stroke-width="0"/><path d="M196.61168,261.22254l-0.13611,-0.6379c0,0 0.82498,-1.25088 1.82552,-1.46438c0.95011,-0.20272 3.18901,-0.1949 5.62102,-0.5468c4.63293,-0.67043 10.15862,-1.74557 10.15862,-1.74557l0.13611,0.6379c0,0 -5.30919,1.13084 -9.87828,1.78821c-2.4931,0.3587 -4.8301,0.27558 -5.81569,0.4859c-1.03596,0.22107 -1.91117,1.48266 -1.91117,1.48266z" fill="#616161" stroke-width="0"/><path d="M219.86861,240.19505l13.04544,0.31097l31.27896,-1.24705c0,0 0.76376,0.06625 -7.30848,1.04418c-2.74604,0.33268 -13.48593,0.97923 -22.90277,1.04299c-2.54808,0.01727 -16.30665,-0.56504 -16.30665,-0.56504z" fill="#df8cb7" stroke-width="0"/><path d="M44.09094,284.18349l-1.23822,-5.80247c0,0 5.27718,-2.91853 8.99726,-3.71235c3.04549,-0.64989 12.07288,1.00861 12.07288,1.00861l2.42894,12.02867z" fill="#626061" stroke-width="0"/><path d="M159.679,269.72853l4.23566,1.65856l11.70133,-3.84991l49.62761,-10.59009l0.22773,1.06702c0,0 -37.25837,7.80213 -48.84496,10.54269c-3.18108,0.75243 -12.51648,3.48162 -12.51648,3.48162z" fill="#ffa6d4" stroke-width="0"/><path d="M54.61381,347.30768l-1.49626,-7.01174l19.44125,-21.15325l1.28072,13.70336l-11.45189,12.80275z" fill="#3f3d3e" stroke-width="0"/><path d="M51.96358,342.69913c0,0 -3.91775,-19.25828 -5.12974,-28.79872c-1.36794,-10.76788 -2.66702,-32.57305 -2.66702,-32.57305c0,0 8.38537,-1.98296 12.23204,-1.12094c3.29221,0.73775 9.44452,5.97862 9.44452,5.97862l7.00195,32.8128c0,0 -8.73701,15.87094 -11.2434,18.71574c-3.85526,4.37583 -9.63834,4.98558 -9.63834,4.98558z" fill="#555354" stroke-width="0"/><path d="M46.23118,291.72395c0,0 -2.75692,-5.53953 -1.29917,-8.60854c1.45776,-3.06902 5.49933,-4.97128 8.00321,-5.50558c1.99743,-0.42623 6.14747,-1.23133 9.88805,2.52937c3.74062,3.76067 3.25524,10.68448 3.25524,10.68448c0,0 -8.33229,-8.85988 -10.92114,-8.74244c-3.65313,0.16573 -8.92626,9.6428 -8.92626,9.6428z" fill="#6f6b6c" stroke-width="0"/><path d="M51.55925,347.76692c0,0 -3.76229,-25.84648 -6.15048,-37.0383c-2.48714,-11.6554 -7.02056,-31.87289 -7.02056,-31.87289c0,0 0.99657,-0.87009 2.01448,-1.08733c0.93075,-0.19863 2.59728,0.10322 2.59728,0.10322c0,0 3.78796,18.77824 6.01987,29.23753c2.59308,12.15188 5.89357,39.94196 5.89357,39.94196z" fill="#333232" stroke-width="0"/><path d="M51.23056,348.29072l-1.99942,-14.61276c0,0 1.21748,0.6491 1.79562,0.4862c0.73003,-0.20571 2.07013,-1.96154 2.07013,-1.96154l2.01541,15.25974z" fill="#2e2d2d" stroke-width="0"/><path d="M68.85825,307.45285c1.70387,7.98487 -0.52055,17.32263 -4.17876,21.09655c-3.03825,3.1344 -8.96147,11.30841 -10.66534,3.32357c-0.36147,-1.69396 -0.84155,-13.73832 -2.18298,-20.64016c-1.77406,-9.12758 -4.42304,-13.65533 -4.07727,-16.62451c0.62529,-5.36873 5.71819,-7.96829 7.88392,-8.43042c4.26914,-0.91098 11.5166,13.29015 13.2205,21.27499z" fill="#585758" stroke-width="0"/><path d="M105.50025,314.03386l-0.94279,-1.57876c0,0 7.48305,-2.97777 13.26749,-4.70715c8.14315,-2.43461 30.98294,-8.52259 30.98294,-8.52259l2.02375,0.8782c0,0 -24.21958,6.82512 -32.58115,9.39463c-2.45568,0.75463 -12.7502,4.53569 -12.7502,4.53569z" fill="#585657" stroke-width="0"/><path d="M102.49443,328.17298l2.21821,-14.47298l6.88444,-2.44114c0,0 -0.79962,4.58124 -0.5576,5.30176c1.15629,3.44283 9.08895,26.2567 9.08895,26.2567c0,0 -1.35301,0.73905 -2.90762,-0.84697c-2.78943,-2.84586 -6.01658,-9.1737 -8.16892,-10.8644c-1.85963,-1.46076 -6.55742,-2.93296 -6.55742,-2.93296z" fill="#5a5759" stroke-width="0"/><path d="M108.31939,295.43241l0.46011,-11.68665l2.25877,-0.59562l-1.50041,12.13584z" fill="#a5a0a2" stroke-width="0"/><path d="M114.73349,292.95581l-0.29276,-1.3719l25.91283,-5.52958l0.29276,1.37189z" fill="#494748" stroke-width="0"/><path d="M114.03454,290.06675l-0.29276,-1.3719l25.91283,-5.52958l0.29276,1.3719z" fill="#494748" stroke-width="0"/><path d="M99.70537,316.03672l-4.2027,-19.69493l9.97086,-11.96043l4.67283,-1.31594l-6.98251,45.26745l-5.90577,-0.78822z" fill="#dbd5d8" stroke-width="0"/><path d="M76.27676,333.21884l-2.6151,-11.49823l25.90284,-6.33469c0,0 0.85261,2.41295 0.89191,3.22101c0.09808,2.01437 -0.41715,9.21833 -0.41715,9.21833z" fill="#ccc6c9" stroke-width="0"/><path d="M77.60605,321.28833l-0.06594,-0.30884l22.13336,-5.61106l-2.30088,1.70195c0,0 -4.18761,1.08401 -6.84333,1.61823c-3.63637,0.73154 -12.92326,2.59974 -12.92326,2.59974z" fill="#d8d1d5" stroke-width="0"/><path d="M80.26425,316.90016l-3.54778,-16.62564l15.76995,-3.36517l3.54778,16.62564z" fill="#a39999" stroke-width="0"/><path d="M76.04169,333.44256l-2.37064,-11.10917c0,0 9.97515,4.40186 14.65589,5.79632c4.68076,1.39446 10.98038,-0.23612 10.98038,-0.23612z" fill="#b4afb1" stroke-width="0"/><path d="M110.20518,332.33107c0,0 3.17991,0.38535 4.22192,0.01605c0.64008,-0.22691 1.43539,-2.02131 1.43539,-2.02131l3.51553,8.52731l0.87549,4.10273c0,0 -1.83527,0.71007 -3.62512,-1.54872c-1.47677,-1.86368 -6.42317,-9.07602 -6.42317,-9.07602z" fill="#504e4f" stroke-width="0"/><path d="M102.90833,328.65358l5.43153,-43.84246l1.74802,-0.16326l-5.24562,44.22227z" fill="#858183" stroke-width="0"/><path d="M77.93737,292.30853l1.13698,-1.93027c0,0 26.67756,-6.35118 38.81462,-8.94109c10.53411,-2.24787 31.31523,-6.32146 31.31523,-6.32146l0.92297,1.78813c0,0 -20.97569,3.75417 -32.0793,6.12358c-12.67891,2.7056 -40.11048,9.2811 -40.11048,9.2811z" fill="#918b8e" stroke-width="0"/><path d="M78.6763,290.8924l1.57415,-2.32105c0,0 25.24464,-5.74789 37.38163,-8.33785c10.5341,-2.24787 31.31523,-6.32146 31.31523,-6.32146l0.92296,1.78813c0,0 -20.97568,3.75417 -32.0793,6.12357c-12.67891,2.7056 -39.11468,9.06858 -39.11468,9.06858z" fill="#a59fa2" stroke-width="0"/><path d="M146.20031,297.73738l-3.06906,-5.15565c0,0 -0.04452,-1.22268 0.25759,-1.40247c0.26616,-0.15845 1.46089,0.37945 1.46089,0.37945l3.06906,5.15566c0,0 -0.0869,0.91595 -0.35369,1.07473c-0.30178,0.17964 -1.36486,-0.05172 -1.36486,-0.05172z" fill="#494242" stroke-width="0"/><path d="M107.36521,308.73274l1.48525,-10.01621l3.80016,-0.81093l-1.48525,10.01621z" fill="#9c989a" stroke-width="0"/><path d="M113.01207,289.35131l1.60798,-1.33286l23.9045,-5.08253l2.17186,0.50788z" fill="#757274" stroke-width="0"/><path d="M113.691,292.08103l1.60798,-1.33287l23.90449,-5.08252l2.17187,0.50785z" fill="#757274" stroke-width="0"/><path d="M73.4692,332.98643l-10.46773,-57.23341l1.9992,0.16719l11.08496,57.51184z" fill="#686666" stroke-width="0"/><path d="M73.36583,333.28488l-2.75228,-16.03441l3.03753,3.25624l2.35095,13.10807z" fill="#535252" stroke-width="0"/><path d="M98.66093,304.49741c0,0 1.5878,-2.73711 1.39019,-3.66304c-0.19388,-0.90866 -2.56488,-1.84172 -2.56488,-1.84172c0,0 3.07568,0.02845 3.32614,1.70133c0.19075,1.27425 -0.37987,3.63429 -0.23528,4.73062c0.41114,3.11729 1.27103,10.44658 1.27103,10.44658z" fill="#c4bec1" stroke-width="0"/><path d="M105.76895,301.02592l-0.25819,-10.36991l1.58402,-4.79032l-0.60182,9.9018z" fill="#aca7a9" stroke-width="0"/></g></g><g stroke-width="0"><path d="M215.42021,249.17025l1.80392,-3.78909c0,0 1.46789,-1.78188 2.33208,-1.68514c0.98531,0.11034 3.26416,2.31179 3.26416,2.31179l0.32187,4.10516c0,0 -4.18855,0.88608 -5.45476,1.01998c-0.57083,0.06037 -2.26721,-1.96271 -2.26721,-1.96271z" fill="#c0c0c0"/><path d="M175.46051,267.56568c0,0 -0.77362,-2.77977 0.02453,-4.11456c1.00024,-1.67281 6.48463,-5.10516 6.48463,-5.10516l0.29364,4.78109l0.60964,2.85689z" fill="#838383"/><path d="M175.27662,267.52893l6.365,-9.00797l36.73523,-7.839l1.56131,7.31654z" fill="#999999"/><path d="M176.11661,266.67843l4.80506,-6.998l33.02871,-7.04805l1.21901,5.71248c0,0 -3.99758,0.85303 -9.14001,1.95043c-3.34339,0.71349 -7.39234,0.49155 -10.91958,1.24422c-3.78388,0.80741 -7.0008,2.57982 -9.12608,3.03336c-4.1595,0.8876 -9.86708,2.10553 -9.86708,2.10553z" fill="#2e2e2e"/><path d="M179.53149,265.94749l6.95263,-7.51985l12.18966,-2.60117c0,0 -6.81562,3.40469 -8.94265,4.79373c-2.25813,1.47459 -4.95912,4.209 -4.95912,4.209z" fill="#a5899d"/><path d="M187.32119,264.16995c0,0 4.77028,-2.01195 7.17328,-2.52472c3.07044,-0.65522 9.7427,-1.08502 9.7427,-1.08502l-9.51143,1.68693z" fill="#adadad"/><path d="M175.37507,267.48932l5.74949,-8.13055l34.19676,-7.29725l0.1437,0.67341c0,0 -29.61014,6.31857 -33.46985,7.14216c-0.80729,0.17226 -6.62004,7.61224 -6.62004,7.61224z" fill="#8a8a8a"/><path d="M222.80516,263.74435l-2.03584,-9.54055l-0.86656,-7.17912c0,0 1.25909,0.21178 1.91843,0.64731c0.65931,0.43551 1.26967,1.45847 1.26967,1.45847l1.68303,14.19383z" fill="#9e9e9e"/><path d="M216.59069,260.74448c0,0 -1.33516,-1.88785 -1.80047,-3.41348c-0.62663,-2.0544 -0.94155,-7.62964 -0.94155,-7.62964l1.83078,-0.72334c0,0 0.9074,0.61597 1.34365,0.37038c0.60145,-0.33861 1.93129,-2.21417 1.93129,-2.21417l2.18331,12.63998z" fill="#9c9c9c"/><path d="M217.53404,262.415c-0.99567,-0.91686 -1.04708,-2.30992 -1.04708,-2.30992l3.26764,-8.05978c0,0 2.17347,3.50741 2.36473,4.40371c0.54374,2.54816 2.51932,6.98323 2.51932,6.98323c0,0 -2.89702,0.70382 -4.00452,0.49165c-1.32834,-0.25446 -2.10434,-0.5921 -3.10004,-1.50895z" fill="#888888"/><path d="M219.11396,261.28617c-1.38383,-1.74946 -3.30353,-5.90338 -2.3489,-10.26541c0.95465,-4.36206 3.7606,-2.78165 3.7606,-2.78165c0,0 1.90738,4.11554 2.39007,6.37749c0.43969,2.06044 0.38908,6.64609 0.38908,6.64609c0,0 -2.80699,1.77296 -4.19081,0.02346z" fill="#b4b4b4"/><path d="M221.57815,252.89182c0.2945,1.38 -4.68682,2.52213 -4.9813,1.14216c-0.2945,-1.38 1.56952,-7.30157 2.36406,-7.4711c0.30773,-0.06563 0.95865,-0.10043 1.37217,0.89592c0.65418,1.57625 1.06462,4.58757 1.24504,5.43308z" fill="#bbbbbb"/></g><g stroke-width="0"><path d="M159.5816,269.7338c0,0 -6.75381,-3.58682 -7.14478,-5.41898c-0.31927,-1.49596 5.55839,-2.87609 5.55839,-2.87609l7.39414,-1.50439l-1.68603,11.38143z" fill="#f399c8"/><path d="M130.07021,277.70993c0,0 -1.38652,-1.84921 -1.3588,-2.95196c0.0306,-1.21701 1.29321,-5.17252 1.29321,-5.17252l22.49212,-4.98946l10.72481,6.52874z" fill="#ee96c3"/></g></g><g stroke-width="0"><g><path d="M219.33952,238.49126l-1.29012,-6.04566l46.76526,-9.9793l1.29012,6.04566z" fill="#61585b"/><path d="M218.50292,235.35321l-0.69084,-3.23745l46.9431,-10.01723l0.69084,3.23744c0,0 -8.45061,1.80327 -17.13152,3.65572c-2.71416,0.57917 -6.21333,2.87727 -8.72128,3.41242c-2.98224,0.63639 -6.49727,-0.16494 -8.41024,0.24327c-5.73617,1.22405 -12.68007,2.70577 -12.68007,2.70577z" fill="#494344"/><path d="M277.59047,215.99053l-13.07898,-16.56825l20.45863,-4.36567l18.5895,13.18513c0,0 -5.30029,2.52307 -8.40728,3.45015c-4.79434,1.43057 -17.56184,4.29869 -17.56184,4.29869z" fill="#5e555b"/><path d="M278.30942,219.34947l-1.15584,-5.41653c0,0 11.72442,-3.98773 16.34617,-5.77114c3.66787,-1.41534 6.29037,-2.5701 6.29037,-2.5701l7.25668,5.54647c0,0 -4.8819,2.67381 -8.84578,3.97362c-5.37088,1.76115 -19.89151,4.23773 -19.89151,4.23773z" fill="url(#color-5)"/><path d="M262.88708,199.93126l-0.83396,-3.9082l18.72985,-3.99677l4.39028,3.14929z" fill="url(#color-6)"/><path d="M277.74366,219.49572l-0.26279,-1.23153c0,0 15.25007,-3.33234 20.48301,-4.62034c3.91294,-0.96307 7.90703,-3.42772 7.90703,-3.42772l1.1082,0.93405l-7.61118,3.73106z" fill="#312c30"/><g><path d="M176.73612,230.21059l-2.07014,-8.61604l91.8572,-19.60154l9.82674,9.43891z" fill="#8a6672"/><path d="M194.64037,234.86221c0,0 -4.19453,-2.79189 -7.24249,-3.63595c-3.04797,-0.84412 -9.90415,0.86172 -9.90415,0.86172l-0.32584,-2.06452c0,0 12.1096,-2.3015 19.00403,-3.67529c16.4698,-3.282 79.38769,-15.93135 79.38769,-15.93135l4.91389,5.66627z" fill="#755761"/><path d="M197.946,236.70387l-3.49971,-1.90336l85.55572,-18.75721l1.82196,2.7617z" fill="#694e57"/><path d="M174.58754,222.01636l-0.94516,-4.42928l88.66496,-19.61501l4.94634,4.73317c0,0 3.39112,2.68956 -1.78402,3.76801c-1.62915,0.3395 -11.25219,-1.05135 -12.88542,-0.71098c-15.72904,3.27783 -77.99666,16.25405 -77.99666,16.25405z" fill="#916b77"/><path d="M173.87897,217.53669l-0.6431,-2.44414l87.90016,-18.89897l1.52144,2.12149z" fill="#9e7582"/><path d="M246.51532,202.73604c-8.02539,1.05003 -71.48084,13.53531 -71.48084,13.53531l85.91961,-18.33449l6.24801,6.27542c0,0 -12.66133,-2.52629 -20.68678,-1.47623z" fill="#b38f9a"/></g><path d="M228.13747,230.25828l-1.91448,-8.9718l19.76718,-4.21817l1.91448,8.97181z" fill="#3a3336"/><path d="M226.13796,221.30892l0.38294,-1.6385l18.13024,-3.86883l1.28116,1.28336z" fill="#4b4246"/><path d="M228.17034,229.74067l-1.7066,-7.99753c0,0 2.13475,4.92887 4.96505,5.45609c2.8303,0.52725 15.95635,-1.55885 15.95635,-1.55885z" fill="#332c30"/><path d="M264.5793,201.84405l-5.08583,-5.04981c0,0 0.86129,-0.86547 1.44869,-0.99078c0.65667,-0.14013 2.30672,0.18946 2.30672,0.18946l5.08583,5.04981z" fill="#757575"/><path d="M268.52126,205.84404l-7.30755,-7.24679l3.75545,-0.80137l7.30755,7.24678z" fill="#5a5a5a"/><path d="M274.01855,211.26512l-7.30755,-7.24678l3.75544,-0.80137l7.30755,7.24679z" fill="#505050"/><path d="M279.70495,216.88179c-1.24811,-1.23772 -6.11803,-6.06718 -6.11803,-6.06718l3.75544,-0.80136l8.62331,8.71886c0,0 -1.89876,0.95274 -2.83047,1.1364c-0.72674,0.14328 -2.87993,-2.44098 -3.43027,-2.98675z" fill="#3b3b3b"/><path d="M175.77019,233.07338l-3.89729,-18.26354l3.11093,-0.66385l3.89729,18.26354z" fill="#443e42"/><path d="M157.64336,238.57647l-1.90777,-5.65439l19.78315,-4.2216l1.23713,5.79748z" fill="url(#color-7)"/><path d="M155.8672,233.53877l-2.26369,-10.60815l19.78315,-4.2216l2.26369,10.60816z" fill="#5e555b"/><path d="M153.62987,223.05418l-0.08626,-4.23754l19.00074,-4.05461l0.86861,4.07059z" fill="url(#color-8)"/><path d="M221.55512,204.50528l-1.28,-5.99826l14.91406,-2.09187l5.50363,3.64275z" fill="#5e555b"/><path d="M240.76705,200.40562l-5.5593,-3.90355c0,0 3.09392,0.04595 5.48143,0.55722c2.38752,0.51124 6.42385,1.99213 6.42385,1.99213z" fill="#776b73"/><path d="M218.84054,206.26611l2.86985,-1.88486l24.98072,-5.60332l3.87958,0.71728z" fill="#6d6269"/></g><g><path d="M228.72365,226.07372c-0.26062,-1.22133 -0.00292,-2.45906 0.16226,-3.54707c0.23016,-1.51609 0.57151,-2.8035 1.66018,-3.90103c0.66499,-0.67044 1.69594,-1.28858 2.61296,-1.73003c0.60651,-0.29197 1.50018,-0.89174 2.18771,-1.03847c1.55861,-0.33261 1.91044,-0.32409 3.13837,-0.07893c0.73969,0.14771 2.43675,0.24475 3.10025,0.79045c0.56155,0.46183 1.22481,1.29022 1.70085,1.88358c0.81345,1.01402 1.98735,2.67001 2.27716,4.02806c0.12248,0.57392 -0.07931,1.98556 -0.02033,2.50004c0.1873,1.63333 0.29294,2.13187 -0.6635,3.46429c-0.58136,0.80983 -1.94107,1.66017 -2.81767,2.2664c-0.90781,0.62786 -1.97477,1.74111 -3.12169,1.98588c-0.77409,0.16518 -2.28236,-0.05998 -3.06069,-0.03317c-1.68862,0.05819 -2.59745,0.07379 -3.84221,-0.82646c-1.06745,-0.77194 -1.65588,-2.28072 -2.29546,-3.5324c-0.33597,-0.65758 -0.85681,-1.47453 -1.01828,-2.23113z" fill="#3a3a3a"/><path d="M229.41383,225.80517c-0.23849,-1.11768 -0.00262,-2.25031 0.14847,-3.24593c0.21063,-1.38736 0.52297,-2.56542 1.51925,-3.56985c0.60852,-0.61349 1.55198,-1.17917 2.39109,-1.58314c0.55504,-0.26718 1.37287,-0.81605 2.00194,-0.95029c1.4263,-0.30436 1.74824,-0.29659 2.87195,-0.07227c0.67689,0.13515 2.22985,0.224 2.83702,0.72328c0.51389,0.42264 1.12088,1.18072 1.55643,1.72365c0.74441,0.92794 1.81862,2.44332 2.0838,3.68604c0.11207,0.52517 -0.07259,1.81696 -0.0186,2.2878c0.17141,1.49464 0.26809,1.95085 -0.60722,3.17014c-0.53199,0.74109 -1.7763,1.51918 -2.5784,2.07398c-0.83072,0.57457 -1.80712,1.59331 -2.85661,1.81728c-0.70834,0.15116 -2.08857,-0.0549 -2.80082,-0.03033c-1.54522,0.05328 -2.37689,0.06752 -3.51603,-0.75626c-0.97683,-0.70644 -1.51528,-2.08709 -2.10052,-3.23252c-0.30743,-0.60176 -0.78404,-1.34935 -0.93181,-2.04169z" fill="#5a5a5a"/><path d="M240.39208,218.83115c-2.49782,-1.9065 -7.52099,-1.03968 -7.52099,-1.03968c0,0 1.78681,-0.93346 3.73463,-1.342c1.57776,-0.33097 3.19156,-0.30265 4.59709,0.72771c1.40667,1.03118 2.10172,2.40101 2.67341,3.70593c1.12092,2.55839 1.19208,4.98988 1.19208,4.98988c0,0 -2.17841,-5.13529 -4.67622,-7.04175z" fill="#6d6d6d"/><path d="M236.22986,224.85115c-0.12018,-0.56302 0.23885,-1.11685 0.80193,-1.23703c0.56302,-0.12018 1.11685,0.23885 1.23703,0.80194c0.12018,0.56302 -0.23885,1.11685 -0.80194,1.23702c-0.56302,0.12018 -1.11685,-0.23885 -1.23702,-0.80194z" fill="#272727"/><path d="M236.18114,225.00146c-0.1102,-0.51643 0.2191,-1.02437 0.73549,-1.13458c0.51643,-0.1102 1.02437,0.2191 1.13458,0.73549c0.1102,0.51643 -0.2191,1.02437 -0.73548,1.13458c-0.51643,0.1102 -1.02437,-0.2191 -1.13458,-0.73548z" fill="#131313"/></g></g></g></g></g><path d="M172.20326,351.01595c-0.33073,-1.54977 -13.39119,-42.3485 -13.25635,-44.09012c0.18207,-2.35156 8.75832,-2.80062 11.34258,-4.89383c7.91456,-6.41076 16.5542,-12.94477 16.5542,-12.94477c0,0 13.87973,-2.36828 18.02296,-3.25235c3.09839,-0.66116 61.29515,-21.76129 64.17428,-11.82174c3.90517,13.48181 -41.1097,11.10539 -38.57814,22.96893c0.64085,3.0033 3.03835,2.69159 3.14187,5.8876c0.02484,0.76706 -1.1943,6.32269 -1.0639,8.00869c0.20695,2.6763 4.26486,5.90302 1.67438,9.62483c-2.06496,2.96682 0.87144,7.47003 0.50041,8.7922c-2.5567,9.11115 -11.49613,7.12868 -20.31054,9.0096c-10.45074,2.23012 -24.8814,9.11666 -34.3166,9.86485c-4.07283,0.32292 -6.92248,7.35744 -7.8851,2.84626z" fill="#86c8f5" stroke-width="0"/></g></g></svg>