<svg version="1.1" xmlns="http://www.w3.org/2000/svg" xmlns:xlink="http://www.w3.org/1999/xlink" width="468.17852" height="152.98475" viewBox="0,0,468.17852,152.98475"><defs><linearGradient x1="532.22708" y1="236.88647" x2="531.30107" y2="241.60806" gradientUnits="userSpaceOnUse" id="color-1"><stop offset="0" stop-color="#1f1d20"/><stop offset="1" stop-color="#202022"/></linearGradient><linearGradient x1="533.59275" y1="232.2067" x2="532.52732" y2="237.63942" gradientUnits="userSpaceOnUse" id="color-2"><stop offset="0" stop-color="#302d31"/><stop offset="1" stop-color="#1f1e20"/></linearGradient><linearGradient x1="195.81553" y1="214.94756" x2="195.16306" y2="218.27413" gradientUnits="userSpaceOnUse" id="color-3"><stop offset="0" stop-color="#585758"/><stop offset="1" stop-color="#575758"/></linearGradient><linearGradient x1="181.00779" y1="222.3139" x2="180.49558" y2="224.92555" gradientUnits="userSpaceOnUse" id="color-4"><stop offset="0" stop-color="#363536"/><stop offset="1" stop-color="#353536"/></linearGradient><linearGradient x1="339.55421" y1="158.83864" x2="338.48835" y2="164.27363" gradientUnits="userSpaceOnUse" id="color-5"><stop offset="0" stop-color="#5e555b"/><stop offset="1" stop-color="#2b2629"/></linearGradient><linearGradient x1="333.95644" y1="136.68014" x2="333.18741" y2="140.60158" gradientUnits="userSpaceOnUse" id="color-6"><stop offset="0" stop-color="#72676e"/><stop offset="1" stop-color="#5e555b"/></linearGradient><linearGradient x1="220.4365" y1="128.58013" x2="219.29558" y2="134.39737" gradientUnits="userSpaceOnUse" id="color-7"><stop offset="0" stop-color="#5e555b"/><stop offset="1" stop-color="#4d454a"/></linearGradient><linearGradient x1="223.1794" y1="114.59428" x2="222.37837" y2="118.67872" gradientUnits="userSpaceOnUse" id="color-8"><stop offset="0" stop-color="#74686f"/><stop offset="1" stop-color="#5e555b"/></linearGradient></defs><g transform="translate(-69.0744,-112.80177)"><g data-paper-data="{&quot;isPaintingLayer&quot;:true}" fill-rule="nonzero" stroke="none" stroke-linecap="butt" stroke-linejoin="miter" stroke-miterlimit="10" stroke-dasharray="" stroke-dashoffset="0" style="mix-blend-mode: normal"><g><g stroke-width="0"><path d="M258.94076,212.0506l-7.08567,-17.02726l25.21094,4.34294c0,0 -2.1997,5.50845 -2.91523,8.11804c-0.69211,2.52438 -1.30999,7.29229 -1.30999,7.29229z" fill="#7f7d7e"/><path d="M258.99949,212.26255l-2.49249,-6.20257c0,0 1.63029,3.94252 4.68761,5.16858c2.20154,0.88283 4.11211,0.94169 6.68172,1.77253c2.56958,0.83089 4.83016,1.94969 4.83016,1.94969z" fill="#6c6a6b"/></g><g><g><g><path d="M528.36584,241.03244l-1.09452,-5.11792c0,0 5.56047,2.77998 7.93743,4.15596c2.37702,1.37607 0.64861,2.19489 0.64861,2.19489z" fill="url(#color-1)" stroke-width="0"/><path d="M537.07188,233.09248c0,0 1.00399,2.56901 -1.71665,2.94537c-2.72062,0.37632 -5.80476,1.01776 -5.80476,1.01776l0.11299,-5.61954z" data-paper-data="{&quot;index&quot;:null}" fill="url(#color-2)" stroke-width="0"/><path d="M518.92866,239.17694l0.40383,-2.05912l14.49639,2.84305c0,0 1.08123,1.02148 1.4894,1.47477c0.36696,0.40748 -0.90193,0.77876 -0.90193,0.77876z" fill="#444444" stroke-width="NaN"/><path d="M519.33798,237.265l-0.83084,-1.95023l12.37984,2.42794l3.01457,2.26458c0,0 -4.18481,-0.57821 -6.44992,-1.00468c-2.55456,-0.48104 -8.11365,-1.73759 -8.11365,-1.73759z" fill="#535353" stroke-width="0"/><path d="M518.37073,235.42734l-0.19553,-0.69051l11.25927,2.20814l1.5528,0.84026z" fill="#363636" stroke-width="0"/><path d="M518.92866,239.17694l0.21908,-1.1171c0,0 6.24568,1.68715 9.07162,2.24138c2.39473,0.46965 6.80566,0.8725 6.80566,0.8725c0,0 0.75905,0.61989 0.96265,0.86658c0.17184,0.20808 -0.33507,0.41659 -0.33507,0.41659c0,0 -4.72217,-0.51394 -6.99261,-0.95922c-3.06319,-0.60073 -9.73128,-2.32069 -9.73128,-2.32069z" fill="#3a3a3a" stroke-width="NaN"/><path d="M518.48668,234.81648l-0.37308,-0.97372l13.38662,2.62543l-1.96413,0.54987z" fill="#242424" stroke-width="0"/><path d="M517.28418,233.87296l0.3184,-1.6234c0,0 7.98176,1.35529 10.92144,1.9318c2.00289,0.39284 5.01155,1.19302 5.01155,1.19302l-2.0664,1.11246z" fill="#3a3a3a" stroke-width="0"/><path d="M517.46724,232.26636l0.39312,-2.00441c0,0 7.57371,1.1492 10.82606,1.78703c2.81441,0.55196 7.56475,1.8198 7.56475,1.8198l-2.76606,1.53899c0,0 -3.57073,-0.78435 -5.77319,-1.21629c-2.92761,-0.57414 -10.24458,-1.92515 -10.24458,-1.92515z" fill="#444444" stroke-width="0"/><path d="M517.80162,230.33721l0.16379,-0.83517c0,0 7.75041,1.39397 11.28038,2.08625c2.45797,0.48208 7.87311,1.67016 7.87311,1.67016l-1.01267,0.66863c0,0 -4.90395,-1.25589 -7.81376,-1.82659c-3.20583,-0.62872 -10.49086,-1.76333 -10.49086,-1.76333z" fill="#535353" stroke-width="0"/><path d="M517.82189,229.56064l0.06556,-0.33405c0,0 7.63042,0.97977 11.02607,1.64573c2.93581,0.57578 8.16978,2.11895 8.16978,2.11895l-0.02863,0.34133c0,0 -5.86483,-1.3183 -9.04919,-1.94284c-3.22599,-0.6327 -10.18354,-1.82911 -10.18354,-1.82911z" fill="#4e4e4e" stroke-width="0"/></g><g stroke-width="0"><g><g><g><path d="M513.27824,237.57143l-1.96271,-13.79937l0.87395,-1.58277c0,0 2.7884,3.83756 3.21427,6.4589c0.23122,1.42312 -0.69801,9.20307 -0.69801,9.20307z" fill="#383638"/><path d="M514.44281,237.09523c0,0 0.17465,-0.58708 0.03018,-3.11701c-0.15746,-2.75901 -0.82399,-6.59606 -1.00303,-7.7256c-0.40205,-2.53552 -1.11772,-2.80878 -1.11772,-2.80878l4.8223,0.35285l2.26409,14.27842z" fill="#555355"/><path d="M512.39861,223.53988l-0.333,-1.32525c0,0 2.13639,-0.39629 3.07998,-0.21117c0.88425,0.17338 1.85836,1.1056 1.85836,1.1056l0.31902,1.39658z" fill="#686668"/></g><path d="M507.71161,236.47975l-1.96271,-13.79936l0.54544,-1.62659c0,0 3.11688,3.8815 3.54273,6.50278c0.23121,1.42311 -0.698,9.20306 -0.698,9.20306z" fill="#383638"/><path d="M508.87619,236.00356c0,0 0.17465,-0.58709 0.03019,-3.117c-0.15746,-2.75901 -0.82399,-6.59606 -1.00303,-7.7256c-0.40205,-2.53552 -1.11772,-2.80878 -1.11772,-2.80878l4.1825,-0.28216c0,0 0.76555,1.42827 0.8881,2.20106c0.34918,2.20187 2.01573,12.71236 2.01573,12.71236z" fill="#555355"/><path d="M506.83194,222.44809l-0.54709,-1.36728c0,0 2.35051,-0.35425 3.29418,-0.16917c0.88425,0.17338 1.57287,1.04966 1.57287,1.04966l0.4417,1.42066z" fill="#686668"/><path d="M515.43714,236.27758c0.15766,-0.8042 0.93754,-1.32823 1.74171,-1.17058c0.80421,0.15767 1.32823,0.93754 1.17058,1.74171c-0.15766,0.8042 -0.93754,1.32823 -1.7417,1.17058c-0.80421,-0.15767 -1.32823,-0.93754 -1.17058,-1.74171z" fill="#312f31"/><path d="M516.64422,233.52922l-0.89457,-5.82761l1.5892,0.16561l0.88218,5.89094z" fill="#444144"/></g><path d="M470.07015,224.03641l-1.61127,-11.34573l29.09732,6.90547l-2.31837,9.37617z" fill="#444444"/><path d="M483.22826,222.62686c0,0 0.72456,-0.38978 1.64593,-1.33503c0.84256,-0.86416 1.8651,-2.27163 2.33181,-2.65266c1.28544,-1.4869 3.5297,-0.57098 3.5297,-0.57098l-1.0869,0.45232l-5.29897,4.32637z" fill="#292929"/><path d="M483.94885,233.4982l-4.28102,-12.01996c0,0 3.3311,1.19469 5.20477,0.49312c1.45599,-0.54523 1.87013,-3.14608 3.47207,-3.11823c4.59609,0.08013 17.31337,2.1321 17.31337,2.1321c0,0 1.80444,7.63498 2.15874,10.64655c0.24457,2.07905 -0.2046,6.50742 -0.2046,6.50742z" fill="#4a464a"/><path d="M490.5314,221.43096c-4.3531,-1.50186 -2.67677,-2.56306 -2.67677,-2.56306c0,0 1.02851,-1.12529 2.88906,-0.90937c4.56574,0.52994 12.93612,2.75942 14.63119,3.06572c0.7994,0.14441 0.20616,0.74951 0.20616,0.74951c0,0 -1.92077,2.05473 -3.49122,2.00557c-1.57059,-0.04916 -7.20527,-0.84644 -11.55844,-2.34835z" fill="#5e595e"/></g><g><path d="M471.10009,237.67886l-1.61304,-18.59349l18.49919,3.91985l3.87673,5.17114l6.00415,1.0771l0.32966,13.73967z" fill="#4d4846"/><path d="M475.62851,238.96152l22.07753,-5.24056l21.95107,4.05803c0,0 0.48245,4.35716 0.36208,5.71396c-0.06144,0.69175 -0.71869,2.85923 -0.71869,2.85923z" fill="#423d3b"/><path d="M473.48549,230.07187l-1.22513,-10.27399l0.80517,0.15793l1.22514,10.27401z" fill="#363332"/><path d="M476.35739,238.2875l0.23427,-1.19459c0,0 5.65594,-1.48467 14.55136,0.25989c1.18191,0.23181 4.86092,3.54727 6.05217,3.78089c7.55813,1.48231 14.95603,2.93322 17.77055,3.48517c2.2921,0.44952 4.8829,-0.36715 4.8829,-0.36715l-0.48452,2.47036z" fill="#312e2c"/><path d="M481.13485,226.24161l-0.82276,-4.86466l8.1524,1.59888l3.22646,5.13829l6.15125,1.40419l-7.82289,0.45164z" fill="#585350"/><path d="M470.47289,231.31008l0.21713,-1.10709c0,0 8.61588,-2.12514 11.43935,-1.57142c4.25528,0.83454 16.00279,3.13844 16.00279,3.13844l-0.21713,1.10709c0,0 -11.94895,-2.34342 -16.20413,-3.17799c-2.76545,-0.54238 -11.23807,1.61088 -11.23807,1.61088z" fill="#2b2827"/></g></g></g><g><g><g><path d="M133.88728,208.76519c0.10077,2.29633 -0.70126,4.77793 -1.82268,4.82709c-1.12142,0.0492 -2.13768,-2.35259 -2.23843,-4.64892c-0.10077,-2.29633 -0.5457,-11.1172 0.57582,-11.16647c1.12142,-0.0492 3.38461,8.69196 3.48536,10.98826z" fill="#615e5f" stroke-width="0"/><g><path d="M180.4622,187.40042c-0.42771,-0.62154 -2.47201,-2.35987 -2.47201,-2.35987l10.28883,-0.91703l-7.2735,5.91068c0,0 -0.11559,-2.01224 -0.5433,-2.63378z" fill="#756a6a" stroke-width="0"/><path d="M171.93103,183.99771l2.64302,-13.47663l19.31592,-2.19016l-3.77208,19.23361z" fill="#8a7c7c" stroke-width="0"/><path d="M131.59531,181.63787l10.03184,-16.51132l34.30594,6.5923l2.01086,13.30231c0,0 -22.86345,-2.87794 -30.59515,-3.44225c-3.20952,-0.23429 -15.75355,0.05909 -15.75355,0.05909z" fill="#7c787a" stroke-width="0"/><path d="M141.28047,167.5092l0.13977,-1.48229c0,0 25.4396,4.98921 33.43708,6.55768c4.47461,0.8775 17.07228,-3.14349 17.07228,-3.14349l-0.31367,1.59923c0,0 -12.30521,4.05876 -16.63,3.19564c-7.92992,-1.58261 -33.70551,-6.72672 -33.70551,-6.72672z" fill="#535353" stroke-width="0"/><path d="M99.97927,176.15869l3.87873,-19.77721c0,0 5.80403,-6.0503 13.35463,-6.90911c9.37817,-1.06667 25.6077,3.93528 27.63963,4.33379c1.55925,0.30585 -14.67099,7.73784 -14.67099,7.73784l-3.87873,19.77721z" fill="#8d898b" stroke-width="0"/><path d="M278.57396,164.16291l2.17779,-2.77703l105.52683,20.84152l-2.83798,14.47059c0,0 -37.42954,-5.46001 -49.34181,-8.22029c-5.91598,-1.37084 -55.52485,-24.31479 -55.52485,-24.31479z" fill="#c98cac" stroke-width="0"/><path d="M237.87696,259.10559l-1.96904,-13.56904c0,0 3.91821,6.71916 6.50534,8.32393c1.64835,1.02247 5.72204,2.21037 12.18763,0.99456c5.20508,-0.97875 11.33773,-5.39176 11.33773,-5.39176l-14.31976,12.3374z" fill="#a08e97" stroke-width="0"/><path d="M335.70428,230.48171l2.25179,-23.62979l18.47061,2.19301l-4.07944,20.80074c0,0 -6.60866,0.45576 -9.45647,0.60887c-1.31122,0.07048 -7.18655,0.02716 -7.18655,0.02716z" fill="#96858d" stroke-width="0"/><path d="M235.3528,262.42774l1.06622,-5.43659c0,0 11.43962,4.35147 16.57349,2.17757c2.49852,-1.05798 23.06379,-18.35595 34.41238,-27.98385c4.42877,-3.75725 7.45395,-6.34642 7.45395,-6.34642c0,0 4.02269,-3.0561 4.58131,-5.88371c0.28097,-1.42238 1.54637,-5.43252 1.17522,-7.86071c-0.37448,-2.4499 -2.3868,-3.31159 -2.3868,-3.31159l-2.169,-14.25622l19.41793,3.95462l-7.96918,25.51669l3.19485,3.23723c0,0 -10.53114,4.04904 -16.02729,8.02127c-8.59947,6.215 -37.39916,31.53049 -37.39916,31.53049z" fill="#918189" stroke-width="0"/><path d="M312.88951,226.36671l6.69581,-27.83556l13.46502,2.9218l7.86007,13.77234l-5.34137,15.58945z" fill="#96858d" stroke-width="0"/><path d="M308.09363,227.31056l-1.66447,-4.55121l8.51312,-25.01923l5.00118,0.89453l-6.1646,27.9223z" fill="#8f8187" stroke-width="0"/><path d="M334.33794,230.67879c0,0 3.98337,-6.01284 3.69731,-11.58287c-0.16471,-3.20716 -4.60475,-6.0852 -4.70573,-8.05131c-0.19289,-3.75577 -0.49133,-9.56605 -0.49133,-9.56605l6.86843,5.79417c0,0 1.95419,7.73443 1.72061,12.03133c-0.15687,2.88687 -2.8399,8.85814 -4.24938,11.23014c-0.11884,0.19994 -1.25697,-0.10809 -1.33944,0.04415c-0.20148,0.37206 0.70019,0.78459 0.70019,0.78459z" fill="#86787e" stroke-width="0"/><path d="M339.20737,208.70328c0,0 -2.27191,-4.47582 -6.67993,-6.33046c-4.99032,-2.09962 -21.73244,-5.62367 -21.73244,-5.62367l157.51797,16.44054l1.56149,9.78522l5.62539,12.45821c0,0 -98.41287,-21.92124 -118.61626,-25.88348c-6.59267,-1.29299 -17.67625,-0.84626 -17.67625,-0.84626z" fill="#df8db7" stroke-width="0"/><path d="M178.77328,225.41992l2.27198,-36.51522c0,0 2.37361,-3.35664 2.9069,-3.4718c5.87986,-1.27002 39.36759,-5.5571 44.65007,-4.22931c5.78664,1.45445 -11.3447,10.25043 -11.3447,10.25043c0,0 -14.53035,-0.78521 -17.83847,2.89685c-4.49149,4.99911 -3.07447,22.96118 -3.07447,22.96118z" fill="#c77da3" stroke-width="0"/><path d="M255.59976,209.98807l-1.35084,-2.41031c0,0 8.0927,-7.18341 10.92208,-8.96488c2.92101,-1.83928 6.33771,-1.903 6.33771,-1.903l5.38143,3.40141c0,0 -4.29567,-1.35466 -6.94556,-0.1253c-2.27478,1.05525 -6.54927,3.35432 -9.89225,5.84997c-2.43176,1.81535 -4.45255,4.15214 -4.45255,4.15214z" fill="#414041" stroke-width="0"/><path d="M141.16849,166.42102l6.95998,-10.54723l47.71939,9.35875c0,0 -3.70188,3.81437 -7.14153,5.14339c-3.37589,1.30437 -13.3088,2.75807 -13.3088,2.75807z" fill="#979395" stroke-width="0"/><path d="M142.17344,165.45344l6.17492,-10.70122l47.71939,9.35875c0,0 -3.70188,3.81437 -7.14153,5.14339c-3.37589,1.30437 -13.3088,2.75807 -13.3088,2.75807z" fill="#bdb7ba" stroke-width="0"/><path d="M336.63937,231.45696l-1.73908,-0.86443l17.33737,-0.85411c0,0 -3.88973,1.33373 -6.48061,1.63768c-2.59087,0.30399 -9.11766,0.08073 -9.11766,0.08073z" fill="#887980" stroke-width="0"/><path d="M181.12316,226.35415c0,0 -0.2823,-10.72028 0.18227,-19.33021c0.46691,-8.65199 0.92969,-16.76126 1.59793,-20.28323c0.11322,-0.59668 3.64172,-10.02452 4.23247,-10.43999c3.18889,-2.24269 9.29566,6.8461 14.96817,6.83404c8.39909,-0.01788 27.24928,3.15514 27.24928,3.15514l-9.31773,3.5845c0,0 -19.63743,-0.93158 -22.97303,3.64931c-4.51171,6.19613 -1.09956,28.13573 -1.09956,28.13573z" fill="#d486ae" stroke-width="0"/><path d="M182.91075,223.1188c0,0 1.32932,-41.38947 4.57074,-51.02271c1.51663,-4.50731 -0.02257,-14.09054 -0.02257,-14.09054l48.3789,16.58954l-1.69543,16.0436c0,0 -30.84797,-9.20208 -38.28715,-4.26751c-4.9659,3.29393 -3.71957,32.31947 -3.71957,32.31947z" fill="#e490bb" stroke-width="0"/><g stroke-width="0"><path d="M330.87047,187.94295l1.59256,-8.12018l9.18499,1.80138l-1.59256,8.12018z" fill="#454545"/><path d="M331.83438,187.35261l1.05446,-7.23035l11.11444,2.17979l-1.40458,7.16169z" fill="#b0b0b0"/><path d="M332.47209,182.90315l0.32043,-2.82135l11.32706,2.22147l-0.36707,1.87173c0,0 -7.70924,-1.1833 -9.40353,-1.37433c-0.56615,-0.06379 -1.87684,0.10259 -1.87684,0.10259z" fill="#bebebe"/><path d="M342.95322,188.97326c0,0 -4.9453,-3.57394 -3.66376,-7.14166c1.90438,-5.30161 5.85661,-4.03933 5.85661,-4.03933l39.23349,9.05326l-1.93623,9.87254z" fill="#9c989a"/><path d="M344.95522,188.05209c0,0 -1.76303,-3.93169 -1.82422,-4.88824c-0.09073,-1.41782 2.43591,-3.93595 2.43591,-3.93595l40.81175,8.03798l-1.83379,7.27165z" fill="#898587"/><path d="M344.82839,188.22923l-0.62728,-2.09933l37.51707,7.35783l-0.3732,1.90311z" fill="#c1bcbf"/><path d="M345.36266,184.87544c0,0 -1.04515,-1.59901 -0.86477,-2.51883c0.16871,-0.86043 1.91453,-2.83375 1.91453,-2.83375l37.94382,7.44152l-1.04971,5.3526z" fill="#0d0d0d"/><path d="M345.21309,185.63824c0,0 -0.92893,-2.19147 -0.74858,-3.11132c0.16871,-0.86043 1.79827,-2.2412 1.79827,-2.2412l37.94384,7.44154l-1.04971,5.3526z" fill="#2e2e2e"/><path d="M340.11099,186.57714c-1.99925,-3.51748 -0.40618,-5.58607 -0.40618,-5.58607c0,0 1.00657,4.38804 2.04625,5.50667c1.23093,1.32432 4.51035,3.3595 4.51035,3.3595l-3.45668,-0.60642c0,0 -2.34185,-2.05463 -2.69367,-2.67366z" fill="#7d7a7c"/><path d="M347.70489,186.4425c0,0 -0.4466,-2.3417 -0.22648,-3.46387c0.19344,-0.98645 1.47744,-2.91458 1.47744,-2.91458l4.73314,0.92826c0,0 -0.87667,2.07405 -1.0437,2.92602c-0.22966,1.17102 -0.20718,3.45242 -0.20718,3.45242z" fill="#555555"/><path d="M356.16047,188.10085c0,0 1.1398,-2.34769 1.35981,-3.46977c0.19344,-0.98645 -0.10894,-2.90871 -0.10894,-2.90871l5.28274,1.03603c0,0 -0.73894,1.60281 -0.90603,2.45483c-0.22966,1.17102 -0.34489,3.92362 -0.34489,3.92362z" fill="#555555"/><path d="M365.3128,189.89578c0,0 1.1398,-2.34766 1.35985,-3.46981c0.19344,-0.98645 -0.10895,-2.9087 -0.10895,-2.9087l5.20418,1.02064c0,0 -0.73894,1.60281 -0.90603,2.45483c-0.22966,1.17102 -0.34489,3.92362 -0.34489,3.92362z" fill="#555555"/><path d="M374.79541,191.75556c0,0 1.24581,-1.96451 1.46589,-3.08672c0.19344,-0.98645 -0.21497,-3.29176 -0.21497,-3.29176l5.04717,0.98984c0,0 0.43093,2.10401 0.26379,2.95607c-0.22966,1.17102 -1.51474,3.42251 -1.51474,3.42251z" fill="#555555"/><path d="M348.55918,180.70363l-0.49875,-0.91304l34.89779,6.84418l-1.65955,0.48975c0,0 -2.77717,-0.54468 -5.19338,-1.0185c-0.52664,-0.10334 -1.46001,-0.62136 -2.24885,-0.77607c-0.76274,-0.14962 -1.37352,0.0656 -2.32162,-0.12029c-1.47856,-0.28999 -3.14669,-0.61713 -4.89311,-0.95961c-0.72405,-0.142 -1.28017,-0.64193 -2.02324,-0.78765c-0.66073,-0.12955 -1.50708,0.09529 -2.17083,-0.03491c-1.64749,-0.32311 -3.27869,-0.64305 -4.81243,-0.94385c-0.70431,-0.13812 -1.30359,-0.70238 -1.9589,-0.83094c-0.79991,-0.15691 -1.64184,0.12468 -2.3427,-0.01275c-2.85901,-0.56067 -4.77452,-0.93637 -4.77452,-0.93637z" fill="#474747"/></g><g><path d="M191.18672,218.19051l4.19949,-2.09846c0,0 2.23039,3.30594 4.83919,4.72965c2.30741,1.25916 10.02069,3.3795 10.02069,3.3795l-3.44342,3.76191z" fill="#6d6a6b" stroke-width="0"/><path d="M182.02741,223.01821l10.4802,-5.47051c0,0 2.74,2.83691 4.74086,3.90379c3.02696,1.61408 11.65381,4.8383 11.65381,4.8383l-5.02677,3.40354z" fill="#615e5f" stroke-width="0"/><path d="M179.76107,244.95958l2.88869,-22.43654c0,0 4.12038,1.61515 8.84583,2.57206c3.68841,0.74693 7.8236,0.69467 10.14379,1.76966c4.07332,1.88716 34.59476,20.46413 34.59476,20.46413l0.47399,10.46161z" fill="#575455" stroke-width="0"/><path d="M206.15326,222.5786c7.87475,-4.12681 18.38224,-15.77441 20.11197,-18.0556c1.24612,-1.6434 2.93617,-6.68846 2.93617,-6.68846l6.24814,8.17c0,0 1.79577,21.2394 0.52039,33.87695c-0.35685,3.5361 1.35427,7.89205 -0.09199,9.10285c-1.29588,1.08478 -18.3808,0.06763 -23.52694,-1.72103c-10.83004,-3.76406 -17.05065,-2.14136 -19.71008,-8.03882c-2.65944,-5.89739 5.5153,-10.68391 5.5153,-10.68391c0,0 5.9471,-4.8876 7.99722,-5.962z" fill="#504e4f" stroke-width="0"/><path d="M217.18639,191.29186c0,0 0.67571,-1.38865 1.6444,-1.87488c1.24583,-0.62523 5.21035,-1.56552 5.21035,-1.56552c0,0 8.79394,3.83143 11.26871,6.85422c2.28334,2.7889 -5.8586,11.66914 -5.8586,11.66914l-0.9372,-5.64729z" fill="#464445" stroke-width="0"/><path d="M230.8974,242.10807c0,0 -10.31462,4.35205 -18.67341,2.88737c-8.06379,-1.41295 -14.18946,-8.6184 -13.81069,-9.99348c0.20517,-0.74506 8.62104,-2.46277 12.84504,-5.9362c4.69537,-3.86103 5.31335,-9.55002 7.02591,-11.26295c4.78089,-4.78197 15.0269,-13.14494 15.14883,-19.27981c0.12784,-6.4338 -9.99022,-10.53156 -9.99022,-10.53156c0,0 4.21256,-1.46837 9.13002,-0.63634c2.09464,0.35445 6.29053,2.58957 7.12246,3.14506c2.72816,1.82143 4.36674,3.81025 4.36674,3.81025c0,0 4.52918,-4.08402 8.12356,-3.69446c3.59432,0.38956 21.50091,6.9052 21.50091,6.9052l-18.33125,9.23879z" fill="#555354" stroke-width="0"/><path d="M217.78081,218.31051c0,0 6.62693,-9.78027 12.31485,-14.20318c5.6879,-4.42292 10.30218,-6.75905 13.76847,-6.07921c2.51008,0.49226 4.07878,9.57947 4.07878,9.57947l-16.40664,26.09968c0,0 -14.97887,0.40393 -15.95116,-2.31468c-0.76787,-2.14714 2.19563,-13.082 2.19563,-13.082z" fill="#585758" stroke-width="0"/><path d="M234.66064,249.44072c0,0 -1.63286,-6.62925 -0.73107,-9.53217c1.25978,-4.05537 5.112,-16.1949 5.112,-16.1949l-0.08832,10.61719c0,0 -2.50442,9.44203 -2.95739,12.4408c-0.43695,2.89332 0.54202,5.29709 0.54202,5.29709z" fill="#3f3e3f" stroke-width="0"/><path d="M237.18758,231.73079c0.13052,-1.68112 1.87644,-9.1965 1.87644,-9.1965c0,0 12.18315,-12.45612 14.75191,-14.65594c0.75307,-0.64489 4.37914,-1.69765 4.37914,-1.69765l-2.54964,4.44635c0,0 -1.66068,0.28979 -1.92905,0.72411c-0.28598,0.46272 0.26255,1.9723 0.26255,1.9723l-6.66497,7.33451c0,0 -1.81426,0.67402 -2.08736,1.13543c-0.27317,0.46156 0.23071,1.46548 0.23071,1.46548c0,0 -5.50309,8.03235 -6.79453,10.23981c-0.59714,1.02067 -0.64217,2.47175 -0.64217,2.47175c0,0 -0.96355,-2.55847 -0.83297,-4.2395z" fill="#474647" stroke-width="0"/><path d="M228.34235,208.62818l19.08021,12.13425c0,0 -1.36158,0.76457 -1.69801,1.24793c-0.24831,0.35666 -0.13794,1.3893 -0.13794,1.3893z" fill="#3f3e3e" stroke-width="NaN"/><path d="M236.22263,199.62349l19.65298,11.04763c0,0 -1.25643,0.613 -1.57062,1.11828c-0.32748,0.52678 -0.17259,1.65694 -0.17259,1.65694z" fill="#3f3e3e" stroke-width="NaN"/><path d="M218.49558,225.37324c0,0 9.01198,9.60699 13.62982,16.60412c4.61781,6.99715 2.48112,7.80788 2.48112,7.80788z" fill="#636162" stroke-width="NaN"/><path d="M235.97131,205.30478c0,0 -6.44736,1.69492 -9.74112,4.20385c-3.29382,2.5089 -14.58647,16.78539 -14.01956,13.89498c0.5669,-2.89047 17.43115,-20.69891 19.19255,-20.35346c0.66677,0.13078 3.86604,-0.40581 4.62351,-0.01526c1.24346,0.64117 -0.05538,2.26992 -0.05538,2.26992z" fill="#918f91" stroke-width="0"/><path d="M179.33829,244.74485l14.04558,0.83034c0,0 12.4244,2.09809 15.47258,2.8539c7.42329,1.84066 29.22891,8.23017 29.22891,8.23017l-1.65515,6.11687c0,0 -24.59174,-1.18955 -31.10408,-3.80746c-1.88399,-0.75735 -7.47296,-2.48329 -11.38898,-4.62924c-7.66336,-4.19955 -14.59887,-9.59455 -14.59887,-9.59455z" fill="#626061" stroke-width="0"/><path d="M235.51173,262.23746c0,0 0.86584,-4.20458 0.87559,-6.58713c0.011,-2.67786 -0.81294,-8.69787 -0.81294,-8.69787l1.74902,0.34302c0,0 0.82927,4.70434 0.81942,7.12858c-0.01089,2.6506 -0.88202,8.15637 -0.88202,8.15637z" fill="#4a494a" stroke-width="0"/><path d="M235.15923,263.02054l0.74043,-3.31666c0,0 0.50521,0.36885 0.77164,0.42113c0.31655,0.06212 0.9628,-0.08091 0.9628,-0.08091l-0.44087,3.15062c0,0 -0.84049,0.25051 -1.21107,0.21885c-0.284,-0.02429 -0.82289,-0.39298 -0.82289,-0.39298z" fill="#363536" stroke-width="0"/><path d="M235.64699,248.01163l-0.06672,-1.66458c0,0 0.47781,-0.26745 0.85075,-0.25469c0.35523,0.01223 0.84422,0.23322 0.84422,0.23322l0.1581,1.80048c0,0 -0.57048,0.40517 -0.87646,0.38558c-0.28831,-0.01846 -0.90983,-0.5 -0.90983,-0.5z" fill="#585758" stroke-width="0"/><path d="M194.52907,253.76054c0,0 -7.1793,-4.41708 -6.91697,-5.75466c0.26365,-1.34416 6.60954,-1.29273 6.60954,-1.29273c0,0 10.78561,1.86991 15.61677,2.99333c2.70465,0.62892 10.90233,3.17315 10.90233,3.17315c0,0 6.95261,2.43786 7.53081,3.72491c0.63072,1.4039 -3.70812,3.44872 -3.70812,3.44872c0,0 -12.73734,-1.16715 -16.58799,-2.13447c-1.36787,-0.34368 -13.44643,-4.15814 -13.44643,-4.15814z" fill="#6b696a" stroke-width="0"/><path d="M185.66837,244.98981l-1.96944,-0.15103c0,0 1.27572,-3.24991 3.7058,-1.50745c2.43006,1.74246 21.24404,4.40163 21.24404,4.40163z" fill="#4b4949" stroke-width="0"/><path d="M179.43762,244.61755c0,0 -1.99735,-0.19647 -1.82133,-3.87412c0.08908,-1.86158 1.11298,-16.12331 1.11298,-16.12331l4.22407,-2.12589c0,0 -0.48447,6.01288 -0.84073,8.90056c-0.47383,3.84058 -1.76909,13.40035 -1.76909,13.40035z" fill="#3f3d3e" stroke-width="0"/><path d="M185.95225,245.21449c0,0 3.54831,-1.50335 19.36939,1.25594c1.30651,0.2279 -1.75543,-0.37692 7.37091,1.92995c9.12643,2.30682 12.67042,4.54338 12.67042,4.54338c0,0 -14.57869,-3.94893 -20.66558,-5.14269c-6.93828,-1.36074 -18.74519,-2.58656 -18.74519,-2.58656z" fill="#838082" stroke-width="0"/><path d="M196.61134,217.10835c0,0 -4.70988,1.30541 -7.1552,2.47218c-2.74849,1.3114 -8.53262,5.01319 -8.53262,5.01319l-0.46158,-1.72264c0,0 4.43389,-3.05748 6.92204,-4.2447c2.72038,-1.29799 8.76577,-3.24065 8.76577,-3.24065z" fill="#4a494a" stroke-width="0"/><path d="M197.57746,217.03512l-3.81789,0.96384c0,0 0.21901,-0.61579 0.14869,-0.87815c-0.08357,-0.31182 -0.53049,-0.81519 -0.53049,-0.81519l3.43258,-1.16286c0,0 0.64738,0.6229 0.78712,0.96778c0.10716,0.26422 -0.02003,0.92474 -0.02003,0.92474z" fill="url(#color-3)" stroke-width="0"/><path d="M181.97469,224.00672l-3.42119,2.11081l0.2789,-2.16953l2.42907,-1.58431c0,0 0.68036,0.3068 0.80246,0.58832c0.11514,0.26522 -0.08932,1.05473 -0.08932,1.05473z" fill="url(#color-4)" stroke-width="0"/></g><path d="M314.22766,225.51178c0,0 1.76045,-4.15762 2.5217,-5.42392c0.51682,-0.85959 3.1213,-1.80774 3.1213,-1.80774l16.74324,3.06134c0,0 -2.36909,5.44356 -3.00596,6.71099c-0.27905,0.5552 -1.45839,1.02972 -1.45839,1.02972z" fill="#665b60" stroke-width="0"/><path d="M270.03586,198.24051c0,0 -3.42259,-2.26345 -8.03717,-4.34272c-2.9335,-1.32177 -7.0146,-2.69973 -8.86117,-2.95407c-5.36861,-0.73951 -8.82298,3.78515 -8.82298,3.78515c0,0 -2.76644,-2.90241 -4.67014,-4.14678c-1.77711,-1.16153 -5.85616,-2.98153 -5.85616,-2.98153c0,0 25.08018,-0.2695 28.97099,-0.09768c7.45899,0.32953 33.56614,5.84851 33.56614,5.84851l3.35824,15.21646z" fill="#8b7c84" stroke-width="0"/><g stroke-width="0"><path d="M315.83656,224.86661c0,0 0.96235,-2.45693 1.5373,-3.25602c0.59604,-0.82852 2.94155,-1.44102 2.94155,-1.44102l14.25843,2.7963c0,0 0.1899,1.0389 -0.18304,1.71763c-0.5071,0.92278 -3.76052,3.08447 -3.76052,3.08447z" fill="#585852"/><path d="M315.98001,224.13522c0,0 0.81889,-1.72558 1.39386,-2.52462c0.59604,-0.82852 3.08502,-2.17242 3.08502,-2.17242l14.25842,2.79631c0,0 0.04651,1.77037 -0.32651,2.44906c-0.5071,0.92278 -3.61706,2.35292 -3.61706,2.35292z" fill="#797971"/><path d="M332.89069,222.3813c-0.99503,-0.37649 -12.34811,-2.87959 -12.34811,-2.87959l14.23889,2.79253l-0.4738,2.41583c0,0 -0.422,-1.95226 -1.41706,-2.32879z" fill="#85857b"/></g><path d="M320.73765,207.3136l0.99881,-5.0927l7.00258,1.37334l0.2744,5.34245z" fill="#7c6e75" stroke-width="0"/><path d="M315.59377,179.37785l-2.53372,-8.78307l1.35353,0.26548l4.34611,9.59874z" fill="#d495b6" stroke-width="0"/><path d="M278.78756,164.38502l13.56655,-0.48784l20.89611,6.76041l2.37077,8.71139z" fill="#df9cbe" stroke-width="0"/><path d="M319.92921,212.27837l0.31214,-1.59148l10.66291,2.09123l0.6428,1.77876z" fill="#7c6e75" stroke-width="0"/><path d="M282.45481,192.54318c0,0 -18.02527,-2.31391 -23.64897,-2.90709c-8.51554,-0.89832 -25.71421,-1.90177 -25.71421,-1.90177c0,0 15.59746,-1.46625 29.14416,-0.35447c14.68804,1.2055 58.19461,8.25282 58.19461,8.25282l-1.04102,5.30798z" fill="#75686e" stroke-width="0"/><path d="M273.97784,199.8182l-3.07276,-1.18431c0,0 10.04668,-0.45948 15.13965,1.31671c5.09293,1.77614 13.21279,8.57118 13.21279,8.57118z" fill="#7c6e76" stroke-width="0"/><path d="M229.16581,186.9227c0,0 -28.78923,-21.33588 -28.77495,-26.04126c0.01306,-4.27416 28.81244,8.04337 29.12546,7.99447c5.47728,-0.85572 77.40502,5.89841 77.40502,5.89841l24.80466,11.78341l51.88555,9.59347l4.55901,14.72818c0,0 -60.63325,-10.70031 -83.98665,-15.11421c-8.1066,-1.53222 -24.49953,-5.40724 -39.73685,-7.23357c-11.75356,-1.40875 -29.93997,-0.57666 -29.93997,-0.57666z" fill="#ee96c3" stroke-width="0"/><path d="M100.03422,174.37967l7.14344,-19.13693c0,0 1.25795,-6.94179 8.80868,-7.80068c9.37817,-1.06667 25.60771,3.93531 27.63965,4.33378c1.55925,0.30585 -14.671,7.73783 -14.671,7.73783l-3.87872,19.77722z" fill="#c4b4b3" stroke-width="0"/><g stroke-width="0"><path d="M379.45012,210.57757l0.11056,-15.40966l89.72089,24.48947l-1.86017,5.55273l-47.47672,-4.36148z" fill="#ad6d8e"/><path d="M408.06205,201.57951l8.7289,-6.71837l26.68393,3.06369l-6.22642,9.37882z" fill="#8d788b"/><path d="M382.83847,197.84405l3.12455,-15.9318l30.89607,12.96653l-5.81506,5.85946z" fill="#857183"/><path d="M425.10335,202.74884l18.30982,-4.83486l26.59506,9.06038l-1.6075,6.71003z" fill="#947e92"/><path d="M378.86444,196.4445l5.29638,-11.97038l2.00941,-2.72806l-2.89907,14.78224z" fill="#756474"/><path d="M381.32412,207.66943l1.61564,-11.98584l42.82148,6.71792l-4.29337,15.5209z" fill="#746373"/><path d="M421.46322,217.9058c0,0 1.58675,-6.11641 2.32919,-8.86915c0.63564,-2.35687 1.85476,-6.64472 1.85476,-6.64472l43.19882,9.3986l0.34601,8.62792z" fill="#867284"/><path d="M378.91772,196.38319l4.2469,-0.72719l-1.8125,12.0267z" fill="#6f5e6d"/><path d="M462.94855,205.48012l-18.80038,-7.11484l25.52779,8.71218l-1.0392,3.40918c0,0 -0.00568,-1.60027 -1.05577,-2.52451c-0.70244,-0.61824 -4.63249,-2.48202 -4.63249,-2.48202z" fill="#978195"/><path d="M423.58559,201.78913c0,0 8.49247,-1.86571 11.47932,-2.65983c2.17576,-0.57843 4.79252,-1.66621 4.79252,-1.66621l2.4648,0.59812l-16.13755,4.23764z" fill="#9c859a"/><path d="M409.31805,199.81463c0,0 1.82146,-2.44746 3.40639,-3.51271c1.5849,-1.06516 4.00691,-1.42094 4.00691,-1.42094l-4.99774,5.4073z" fill="#806b7d"/><path d="M445.29671,196.50439l3.19686,-5.21567l14.19735,6.58886l4.26364,7.35811z" fill="#55494f"/><path d="M442.27181,198.76457c0,0 1.21428,-0.56708 1.87675,-1.03306c0.49898,-0.35096 1.44058,-1.5773 1.44058,-1.5773l21.12677,8.21958c0,0 0.75598,0.65469 1.26856,1.08708c0.53574,0.45187 1.87924,1.56832 1.87924,1.56832z" fill="#685960"/><path d="M446.01913,195.73687l2.50999,-4.18044l13.24167,5.98719c0,0 -7.56207,-3.04498 -12.00835,-3.65746c-2.57913,-0.35532 -3.7432,1.85074 -3.7432,1.85074z" fill="#41383c"/></g><path d="M109.20256,136.14927l1.00239,-5.11096c0,0 22.16821,3.02789 43.70488,7.30973c12.83389,2.55157 25.84262,6.73096 32.70183,7.71945c15.46613,2.22872 26.60764,-0.18433 26.60764,-0.18433l-8.27042,9.22388z" fill="#ffa1d1" stroke-width="0"/><path d="M103.98661,149.34979l5.21514,-15.36619c0,0 53.37537,12.56778 70.97372,15.57007c10.42452,1.77844 24.88647,0.78395 24.88647,0.78395l-2.81803,14.36863c0,0 -66.23916,-12.99085 -82.20736,-16.12254c-6.56552,-1.28764 -21.22395,27.14773 -21.22395,27.14773z" fill="#ee96c3" stroke-width="0"/><path d="M265.1246,258.9016l11.72318,-11.55573c0,0 12.78499,-13.65194 23.33036,-18.57725c2.67978,-1.25162 7.98293,-1.43084 7.98293,-1.43084c0,0 -8.12672,3.48626 -11.21027,5.72611c-7.28196,5.28958 -31.8261,25.83775 -31.8261,25.83775z" fill="#70646b" stroke-width="0"/><path d="M371.81711,213.75035l-2.71835,-18.87786l1.32489,0.25982c0,0 0.82327,5.71723 1.25825,8.73816c0.06201,0.43042 1.16642,1.8914 1.24324,2.42453c0.13308,0.92418 -0.75024,0.99914 -0.60151,2.03211c0.41421,2.87637 0.81834,5.68297 0.81834,5.68297z" fill="#795467" stroke-width="0"/><path d="M202.78135,165.25178c0,0 -9.02506,-8.44717 -7.6319,-12.02079c0.83416,-2.13971 18.89226,-6.70172 18.89226,-6.70172l66.89953,14.82434l-2.20193,2.72327l28.0858,10.85657l-75.56835,12.26094c0,0 0.30382,-5.66111 4.38886,-7.77262c3.97013,-2.05209 19.78657,-4.72309 19.78657,-4.72309c0,0 -33.5683,-6.63333 -40.70628,-8.12156c-2.38141,-0.4965 -11.9447,-1.32535 -11.9447,-1.32535z" fill="#f399c8" stroke-width="0"/><g><path d="M211.90815,148.07165l0.62325,-3.17783l173.25313,33.97855l-0.62325,3.17783z" fill="#584f54" stroke-width="0"/><path d="M380.04877,178.00039l0.52659,-2.68514l2.99816,0.58801l2.11878,3.20398z" fill="#685d63" stroke-width="0"/><g fill="#685d63" stroke-width="0"><g><g><g><path d="M373.46532,176.96311l0.57294,-2.92134l3.80857,0.7469l-0.57294,2.92134z"/><path d="M367.28547,175.75121l0.57294,-2.92134l3.80858,0.74691l-0.57294,2.92134z"/></g><g><path d="M361.33887,174.58491l0.57293,-2.92135l3.80858,0.74691l-0.57294,2.92134z"/><path d="M355.15902,173.37295l0.57294,-2.92134l3.80857,0.74691l-0.57293,2.92135z"/></g></g><g><g><path d="M349.09586,172.18386l0.57293,-2.92135l3.80857,0.74691l-0.57294,2.92134z"/><path d="M342.91602,170.97186l0.57294,-2.92134l3.80857,0.7469l-0.57293,2.92135z"/></g><g><path d="M336.96939,169.80555l0.57294,-2.92134l3.80857,0.74691l-0.57294,2.92134z"/><path d="M330.78967,168.59361l0.57294,-2.92134l3.80855,0.74692l-0.57293,2.92135z"/></g></g></g><g><g><g><path d="M330.55647,168.54787l0.57294,-2.92134l3.80857,0.74691l-0.57294,2.92134z"/><path d="M324.37667,167.33588l0.57294,-2.92134l3.80858,0.74691l-0.57294,2.92134z"/></g><g><path d="M318.43009,166.16964l0.57293,-2.92135l3.80857,0.74691l-0.57294,2.92134z"/><path d="M312.25021,164.95761l0.57294,-2.92134l3.80855,0.74692l-0.57293,2.92135z"/></g></g><g><g><path d="M306.18708,163.76854l0.57293,-2.92135l3.80858,0.74691l-0.57294,2.92134z"/><path d="M300.00728,162.55653l0.57294,-2.92134l3.80858,0.74691l-0.57293,2.92135z"/></g><g><path d="M294.06068,161.39031l0.57294,-2.92134l3.80857,0.7469l-0.57293,2.92135z"/><path d="M287.88085,160.17829l0.57294,-2.92134l3.80858,0.74691l-0.57294,2.92134z"/></g></g></g></g><g><g fill="#685d63" stroke-width="0"><g><g><path d="M281.778,158.98139l0.57293,-2.92135l3.80858,0.74691l-0.57294,2.92134z"/><path d="M275.59822,157.7694l0.57294,-2.92134l3.80858,0.74691l-0.57293,2.92135z"/></g><g><path d="M269.65157,156.60322l0.57294,-2.92134l3.80858,0.74691l-0.57293,2.92135z"/><path d="M263.47183,155.39119l0.57294,-2.92134l3.80857,0.7469l-0.57293,2.92135z"/></g></g><g><g><path d="M257.40863,154.20203l0.57293,-2.92135l3.80858,0.74691l-0.57294,2.92134z"/><path d="M251.22879,152.99002l0.57294,-2.92134l3.80858,0.74691l-0.57293,2.92135z"/></g><g><path d="M245.28212,151.82386l0.57294,-2.92134l3.80858,0.74691l-0.57293,2.92135z"/><path d="M239.10233,150.61186l0.57294,-2.92134l3.80857,0.7469l-0.57294,2.92134z"/></g></g></g><g><g fill="#685d63" stroke-width="0"><g><path d="M238.86919,150.5661l0.57293,-2.92135l3.80858,0.74691l-0.57294,2.92134z"/><path d="M232.68936,149.35408l0.57294,-2.92134l3.80857,0.7469l-0.57293,2.92135z"/></g><g><path d="M226.74278,148.18785l0.57294,-2.92134l3.80857,0.7469l-0.57293,2.92135z"/><path d="M220.56295,146.97585l0.57294,-2.92134l3.80857,0.7469l-0.57294,2.92134z"/></g></g><g fill="none" stroke-width="1" font-family="sans-serif" font-weight="normal" font-size="12" text-anchor="start"><g/><g/></g></g></g><path d="M212.55382,145.1512l3.17204,-2.16634l2.99816,0.58801l-0.52659,2.68514z" data-paper-data="{&quot;index&quot;:null}" fill="#685d63" stroke-width="0"/></g><path d="M262.07182,188.3756l-2.55612,-0.2261c0,0 2.14167,-2.19641 11.77448,-1.45641c7.30311,0.56103 27.73438,3.23159 39.95808,4.86895c5.67639,0.76035 62.85438,2.80071 62.85438,2.80071l5.10438,0.98651c0,0 -62.61061,-1.43171 -68.27836,-2.21405c-12.53297,-1.72992 -33.61315,-4.60343 -39.7582,-5.21905c-3.34505,-0.33514 -9.09866,0.45955 -9.09866,0.45955z" fill="#70475c" stroke-width="0"/><path d="M357.43386,226.46821l-5.18699,0.86368l3.64414,-18.57736c0,0 7.63651,1.54701 15.10481,3.05991c21.43939,4.34317 124.47849,25.21674 124.47849,25.21674l-1.29467,6.60151z" fill="#5a5959" stroke-width="0"/><path d="M356.22244,227.89008l1.64906,-2.73992l136.34109,18.37741l-13.76274,8.72601z" fill="#4b4a4a" stroke-width="0"/><path d="M477.26193,251.43569c0,0 -5.17523,-4.30117 -7.87616,-6.28619c-1.44747,-1.06378 -7.06976,-4.69808 -7.06976,-4.69808c0,0 7.29303,4.38934 10.39268,5.96328c1.10621,0.56179 2.06589,1.50687 3.24388,2.27607c0.37987,0.24798 2.7002,-2.10863 4.89361,-3.4255c0.65559,-0.39362 1.72396,0.18741 2.30321,-0.0361c1.32784,-0.51238 1.89022,-1.51433 1.89022,-1.51433c0,0 0.15228,0.97717 -1.27752,1.93361c-0.39006,0.261 -2.22711,0.25976 -2.61586,0.55073c-1.5579,1.16625 -2.8487,2.54268 -3.26184,3.06406c-1.15307,1.45514 0.81363,2.45391 0.81363,2.45391z" fill="#414040" stroke-width="0"/><path d="M202.67607,165.53419l5.87986,-10.15707l6.9953,0.73571c0,0 -1.44255,2.41575 -2.29269,3.83949c-0.21416,0.35858 11.73599,0.70886 11.95225,1.43505c0.4013,1.3474 -5.79019,3.9646 -6.32489,4.86003c-0.6113,1.02366 -9.22921,-0.26312 -9.22921,-0.26312z" fill="#303030" stroke-width="0"/><path d="M202.60643,165.1434l5.61664,-9.35764c0,0 2.69306,1.85764 2.50348,2.82413c-0.34488,1.75869 -3.00817,7.13371 -3.00817,7.13371z" fill="#252525" stroke-width="0"/><path d="M351.71798,229.93447l0.5682,-2.89717l5.98875,-1.83416l-1.78317,2.65889c0,0 -1.32696,1.10045 -2.16656,1.46493c-0.73879,0.32076 -2.60718,0.60742 -2.60718,0.60742z" fill="#383838" stroke-width="0"/><g><g fill="#4b4b4b" stroke-width="0"><g data-paper-data="{&quot;origPos&quot;:null}"><g data-paper-data="{&quot;origPos&quot;:null}"><path d="M417.34026,244.20143l0.43739,-2.23026l3.67991,0.72171l-0.43739,2.23026z" data-paper-data="{&quot;origPos&quot;:null}"/><path d="M411.22895,242.88707l0.43739,-2.23026l3.6799,0.72171l-0.4374,2.23026z" data-paper-data="{&quot;origPos&quot;:null}"/></g><g data-paper-data="{&quot;origPos&quot;:null}"><path d="M429.58469,246.71865l0.43739,-2.23026l3.67991,0.72171l-0.4374,2.23026z" data-paper-data="{&quot;origPos&quot;:null}"/><path d="M423.47335,245.40427l0.4374,-2.23026l3.6799,0.72171l-0.43739,2.23026z" data-paper-data="{&quot;origPos&quot;:null}"/></g></g><g data-paper-data="{&quot;origPos&quot;:null,&quot;index&quot;:null}"><g data-paper-data="{&quot;origPos&quot;:null}"><path d="M448.47396,250.19166l0.43739,-2.23026l3.67991,0.72171l-0.4374,2.23026z" data-paper-data="{&quot;origPos&quot;:null}"/><path d="M454.62897,251.28292l0.43738,-2.23025l3.67991,0.72171l-0.43737,2.23024z" data-paper-data="{&quot;origPos&quot;:null}"/></g><g data-paper-data="{&quot;origPos&quot;:null}"><path d="M436.1858,247.89747l0.43739,-2.23026l3.6799,0.72171l-0.43738,2.23025z" data-paper-data="{&quot;origPos&quot;:null}"/><path d="M442.34083,248.98883l0.4374,-2.23026l3.67991,0.72171l-0.4374,2.23026z" data-paper-data="{&quot;origPos&quot;:null}"/></g></g></g><path d="M377.00391,227.88841l2.61952,-13.35672l82.89485,16.25736l-2.61952,13.35672z" data-paper-data="{&quot;origPos&quot;:null}" fill="#444444" stroke-width="0"/><path d="M376.1918,232.54136l0.92043,-4.69303l82.65122,16.20957l-0.92045,4.69304z" data-paper-data="{&quot;origPos&quot;:null}" fill="#414141" stroke-width="0"/><path d="M375.95186,233.94567l0.31133,-1.58742l82.64072,16.20751l-0.31133,1.58741z" data-paper-data="{&quot;origPos&quot;:null}" fill="#3f3f3f" stroke-width="0"/><g stroke-width="0"><g data-paper-data="{&quot;origPos&quot;:null}" fill="#5a5a5a"><g data-paper-data="{&quot;origPos&quot;:null}"><path d="M419.45141,236.2942l2.64625,-13.49293l3.50462,0.68734l-2.64625,13.49293z" data-paper-data="{&quot;origPos&quot;:null}"/></g><g data-paper-data="{&quot;origPos&quot;:null}"><path d="M425.40936,237.46266l2.64625,-13.49293l3.50464,0.68735l-2.64625,13.49293z" data-paper-data="{&quot;origPos&quot;:null}"/><path d="M431.54251,238.66548l2.64626,-13.49295l3.50462,0.68734l-2.64625,13.49293z" data-paper-data="{&quot;origPos&quot;:null}"/></g></g><g data-paper-data="{&quot;origPos&quot;:null}" fill="#5a5a5a"><g data-paper-data="{&quot;origPos&quot;:null}"><path d="M438.02614,239.9371l2.64625,-13.49293l3.50462,0.68734l-2.64625,13.49294z" data-paper-data="{&quot;origPos&quot;:null}"/><path d="M444.15929,241.13994l2.64625,-13.49293l3.50464,0.68735l-2.64626,13.49295z" data-paper-data="{&quot;origPos&quot;:null}"/></g><g data-paper-data="{&quot;origPos&quot;:null}"><path d="M450.11719,242.30836l2.64626,-13.49295l3.50462,0.68734l-2.64626,13.49295z" data-paper-data="{&quot;origPos&quot;:null}"/><path d="M456.25038,243.5112l2.64626,-13.49295l3.50462,0.68734l-2.64625,13.49293z" data-paper-data="{&quot;origPos&quot;:null}"/></g></g><path d="M423.01625,236.99334l-1.234,1.72576l-5.15168,-0.96644l1.74863,-9.64019l3.66067,-5.32267l-2.57857,13.50622z" fill="#3a3a3a"/><path d="M428.97179,238.16133l-1.234,1.72577l-5.15169,-0.96644l1.74864,-9.6402l3.66068,-5.32265l-2.57856,13.50622z" fill="#3a3a3a"/><path d="M435.06263,239.35589l-1.234,1.72577l-5.15169,-0.96643l1.74863,-9.64019l3.66068,-5.32265l-2.57857,13.50622z" fill="#3a3a3a"/><path d="M441.62727,240.64334l-1.234,1.72577l-5.15169,-0.96643l1.74863,-9.64019l3.66068,-5.32265l-2.57857,13.50622z" fill="#3a3a3a"/><path d="M447.78583,241.85119l-1.234,1.72577l-5.15169,-0.96643l1.74863,-9.64019l3.66068,-5.32265l-2.57856,13.50622z" fill="#3a3a3a"/><path d="M453.67365,243.00585l-1.234,1.72576l-5.15168,-0.96644l1.74863,-9.64019l3.66068,-5.32265l-2.57857,13.50622z" fill="#3a3a3a"/><path d="M459.83994,244.21517l-1.234,1.72576l-5.15169,-0.96643l1.74864,-9.6402l3.66067,-5.32267l-2.57857,13.50622z" fill="#3a3a3a"/></g><g stroke-width="0"><g data-paper-data="{&quot;origPos&quot;:null}" fill="#5a5a5a"><g data-paper-data="{&quot;origPos&quot;:null}"><path d="M377.03048,227.97454l2.64626,-13.49295l3.50464,0.68735l-2.64625,13.49293z" data-paper-data="{&quot;origPos&quot;:null}"/></g><g data-paper-data="{&quot;origPos&quot;:null}"><path d="M382.98836,229.14309l2.64625,-13.49293l3.50462,0.68734l-2.64625,13.49293z" data-paper-data="{&quot;origPos&quot;:null}"/><path d="M389.12156,230.3459l2.64625,-13.49293l3.50464,0.68735l-2.64626,13.49295z" data-paper-data="{&quot;origPos&quot;:null}"/></g></g><g data-paper-data="{&quot;origPos&quot;:null}" fill="#5a5a5a"><g data-paper-data="{&quot;origPos&quot;:null}"><path d="M395.60517,231.61742l2.64626,-13.49295l3.50463,0.68735l-2.64625,13.49293z" data-paper-data="{&quot;origPos&quot;:null}"/><path d="M401.73838,232.82027l2.64625,-13.49293l3.50464,0.68735l-2.64626,13.49295z" data-paper-data="{&quot;origPos&quot;:null}"/></g><g data-paper-data="{&quot;origPos&quot;:null}"><path d="M407.69635,233.98876l2.64625,-13.49293l3.50464,0.68735l-2.64626,13.49295z" data-paper-data="{&quot;origPos&quot;:null}"/><path d="M413.82952,235.19165l2.64626,-13.49295l3.50464,0.68735l-2.64625,13.49294z" data-paper-data="{&quot;origPos&quot;:null}"/></g></g><path d="M380.59526,228.67371l-1.234,1.72577l-2.68703,-0.48309l0.36606,-1.93995z" fill="#3a3a3a"/><path d="M386.55087,229.84172l-1.234,1.72577l-5.15169,-0.96643l1.74864,-9.6402l3.66068,-5.32265l-2.57857,13.50622z" fill="#3a3a3a"/><path d="M392.64169,231.03625l-1.234,1.72576l-5.15169,-0.96643l1.74863,-9.64019l3.66067,-5.32267l-2.57857,13.50622z" fill="#3a3a3a"/><path d="M399.20628,232.32363l-1.234,1.72576l-5.15169,-0.96643l1.74864,-9.6402l3.66068,-5.32265l-2.57857,13.50622z" fill="#3a3a3a"/><path d="M405.36489,233.5315l-1.234,1.72576l-5.15168,-0.96644l1.74863,-9.64019l3.66068,-5.32265l-2.57857,13.50622z" fill="#3a3a3a"/><path d="M411.25268,234.68625l-1.234,1.72576l-5.15168,-0.96644l1.74863,-9.64019l3.66067,-5.32267l-2.57857,13.50622z" fill="#3a3a3a"/><path d="M417.41903,235.89565l-1.234,1.72577l-5.15168,-0.96644l1.74863,-9.64019l3.66068,-5.32265l-2.57857,13.50622z" fill="#3a3a3a"/></g><g><g data-paper-data="{&quot;origPos&quot;:null}"><g data-paper-data="{&quot;origPos&quot;:null}" fill="none" stroke-width="1" font-family="sans-serif" font-weight="normal" font-size="12" text-anchor="start"/><g data-paper-data="{&quot;origPos&quot;:null}" fill="#4b4b4b" stroke-width="0"><path d="M381.74518,237.41473l0.43739,-2.23026l3.6799,0.72171l-0.43738,2.23025z" data-paper-data="{&quot;origPos&quot;:null}"/><path d="M375.63385,236.10042l0.43739,-2.23026l3.6799,0.72171l-0.43739,2.23026z" data-paper-data="{&quot;origPos&quot;:null}"/></g></g><g data-paper-data="{&quot;origPos&quot;:null,&quot;index&quot;:null}" fill="#4b4b4b" stroke-width="0"><g data-paper-data="{&quot;origPos&quot;:null}"><path d="M400.63452,240.88767l0.4374,-2.23026l3.67991,0.72171l-0.4374,2.23026z" data-paper-data="{&quot;origPos&quot;:null}"/><path d="M406.78948,241.979l0.43737,-2.23024l3.67991,0.72171l-0.4374,2.23026z" data-paper-data="{&quot;origPos&quot;:null}"/></g><g data-paper-data="{&quot;origPos&quot;:null}"><path d="M388.34617,238.59352l0.43739,-2.23026l3.67991,0.72171l-0.4374,2.23026z" data-paper-data="{&quot;origPos&quot;:null}"/><path d="M394.50125,239.68481l0.43739,-2.23026l3.67991,0.72171l-0.43739,2.23026z" data-paper-data="{&quot;origPos&quot;:null}"/></g></g></g></g><path d="M215.42585,166.41036l1.83146,-3.93623c0,0 5.13058,-2.20128 8.62458,-1.66882c3.99434,0.60861 33.3982,6.40074 33.3982,6.40074c0,0 0.28862,1.96807 0.00251,3.15233c-0.36873,1.5258 -3.03504,4.12585 -3.03504,4.12585z" fill="#242424" stroke-width="0"/><path d="M240.57974,167.46093l0.60628,-3.09143l17.66529,3.4645l-0.60628,3.09143z" fill="#313131" stroke-width="0"/><path d="M236.97594,168.72157l0.12551,-0.64009c0,0 1.25014,-0.82599 2.25418,-0.62909c0.95334,0.18699 3.00901,1.07411 5.38363,1.7063c4.5236,1.20431 10.02727,2.38727 10.02727,2.38727l-0.12551,0.64009c0,0 -5.32642,-1.04665 -9.78622,-2.23798c-2.43344,-0.65002 -4.54977,-1.64487 -5.53869,-1.8388c-1.0395,-0.20387 -2.34005,0.61222 -2.34005,0.61222z" fill="#616161" stroke-width="0"/><path d="M266.62549,158.52625l11.87347,5.4129l29.25218,11.14619c0,0 0.67631,0.36111 -7.13072,-1.91216c-2.65581,-0.7733 -12.78561,-4.39968 -21.46982,-8.04187c-2.34981,-0.98554 -14.77246,-6.92826 -14.77246,-6.92826z" fill="#df8cb7" stroke-width="0"/><path d="M87.70397,129.89304l1.14185,-5.82219c0,0 5.99961,-0.60969 9.73232,0.12239c3.05583,0.59928 10.70498,5.67224 10.70498,5.67224l-2.49384,12.01542z" fill="#626061" stroke-width="0"/><path d="M199.67212,162.02829l3.24307,3.18979l12.27288,1.05857l49.79633,9.76612l-0.20992,1.07061c0,0 -37.32661,-7.46854 -49.05803,-9.50208c-3.22085,-0.55829 -12.87763,-1.71765 -12.87763,-1.71765z" fill="#ffa6d4" stroke-width="0"/><path d="M72.57175,192.07351l1.37982,-7.03553l26.19027,-11.8106l-4.20787,13.10405l-15.56198,7.27194z" fill="#3f3d3e" stroke-width="0"/><path d="M71.94599,186.79419c0,0 3.96616,-19.24835 6.60112,-28.49751c2.97396,-10.43904 10.34907,-31.00017 10.34907,-31.00017c0,0 8.48997,1.47212 11.68829,3.77653c2.73737,1.97225 6.33497,9.2093 6.33497,9.2093l-6.45714,32.92433c0,0 -14.27139,11.16018 -17.69418,12.79105c-5.26476,2.50857 -10.82212,0.79646 -10.82212,0.79646z" fill="#555354" stroke-width="0"/><path d="M86.70854,137.66782c0,0 -0.35799,-6.17727 2.18861,-8.42643c2.5466,-2.24918 7.01057,-2.40998 9.52299,-1.91723c2.00428,0.3931 6.13677,1.28376 8.09832,6.21194c1.96162,4.92813 -1.20576,11.10407 -1.20576,11.10407c0,0 -4.17979,-11.42159 -6.6065,-12.33109c-3.42435,-1.28331 -11.99763,5.35879 -11.99763,5.35879z" fill="#6f6b6c" stroke-width="0"/><path d="M69.58252,191.29534c0,0 6.69837,-25.24535 8.90076,-36.47526c2.2936,-11.69499 6.07071,-32.06739 6.07071,-32.06739c0,0 1.25829,-0.40844 2.27969,-0.20808c0.93392,0.18316 2.34776,1.11565 2.34776,1.11565c0,0 -3.89688,18.75589 -5.95505,29.25081c-2.39135,12.19317 -10.27815,39.04425 -10.27815,39.04425z" fill="#333232" stroke-width="0"/><path d="M69.0744,191.6478l3.90439,-14.22267c0,0 0.86438,1.07532 1.46002,1.15277c0.75214,0.09781 2.67446,-0.99015 2.67446,-0.99015l-4.144,14.82396z" fill="#2e2d2d" stroke-width="0"/><path d="M101.33331,161.02379c-1.57134,8.01198 -7.2866,15.7242 -12.13369,17.75677c-4.02561,1.68817 -12.68468,6.87652 -11.11332,-1.13543c0.33332,-1.69969 4.62545,-12.96357 6.10442,-19.83731c1.95587,-9.09031 1.29954,-14.29486 2.78437,-16.88923c2.68493,-4.69099 8.38968,-5.07986 10.56282,-4.65365c4.2837,0.84013 5.36677,16.74689 3.79542,24.75889z" fill="#585758" stroke-width="0"/><path d="M132.44047,181.47584l-0.24649,-1.82227c0,0 8.05121,0.20273 14.04986,0.88578c8.44474,0.96163 31.83931,4.33975 31.83931,4.33975l1.51582,1.6029c0,0 -24.95308,-3.24256 -33.65169,-4.16599c-2.55467,-0.27121 -13.5068,-0.84021 -13.5068,-0.84021z" fill="#585657" stroke-width="0"/><path d="M124.11981,193.296l7.72768,-12.43663l7.28987,0.46091c0,0 -2.53574,3.89835 -2.59641,4.656c-0.28984,3.62023 -1.96152,27.71598 -1.96152,27.71598c0,0 -1.53457,0.14781 -2.34082,-1.92157c-1.44655,-3.71311 -1.92713,-10.80008 -3.24179,-13.2006c-1.13587,-2.07409 -4.87712,-5.27406 -4.87712,-5.27406z" fill="#5a5759" stroke-width="0"/><path d="M142.34336,165.47914l5.01607,-10.56542l2.31107,0.34001l-6.14916,10.56975z" fill="#a5a0a2" stroke-width="0"/><path d="M149.21464,165.72261l0.26997,-1.37648l26.00091,5.09929l-0.26996,1.37648z" fill="#494748" stroke-width="0"/><path d="M149.70741,162.79135l0.26997,-1.37648l26.00091,5.09929l-0.26997,1.37648z" fill="#494748" stroke-width="0"/><path d="M126.32479,181.04011l3.8757,-19.76186l13.8691,-7.07945l4.81402,0.62649l-24.21116,38.88081l-5.12077,-3.04584z" fill="#dbd5d8" stroke-width="0"/><path d="M98.0286,187.63205l2.11426,-11.60083l26.30818,4.35505c0,0 -0.16432,2.55387 -0.4457,3.31242c-0.70148,1.89082 -4.00649,8.31261 -4.00649,8.31261z" fill="#ccc6c9" stroke-width="0"/><path d="M103.93973,177.18397l0.06079,-0.30992l22.5576,3.53902l-2.78465,0.66074c0,0 -4.27666,-0.64901 -6.92863,-1.20145c-3.63126,-0.75647 -12.90515,-2.68835 -12.90515,-2.68835z" fill="#d8d1d5" stroke-width="0"/><path d="M108.10866,174.19357l3.27175,-16.68215l15.82358,3.10332l-3.27175,16.68215z" fill="#a39999" stroke-width="0"/><path d="M97.72457,187.74544l2.18617,-11.147c0,0 7.44256,7.96799 11.19861,11.08978c3.75608,3.12187 10.18965,4.09827 10.18965,4.09827z" fill="#b4afb1" stroke-width="0"/><path d="M129.57593,200.14994c0,0 2.77257,1.60409 3.87583,1.67401c0.67775,0.0429 2.11429,-1.29454 2.11429,-1.29454l-0.11868,9.22278l-0.80734,4.11672c0,0 -1.96663,-0.06832 -2.7248,-2.84884c-0.62552,-2.2941 -2.3394,-10.87009 -2.3394,-10.87009z" fill="#504e4f" stroke-width="0"/><path d="M124.31153,193.90051l22.22493,-38.18001l1.67155,0.53686l-22.20327,38.6024z" fill="#858183" stroke-width="0"/><path d="M115.63366,150.66616l1.80404,-1.32817c0,0 27.02704,4.64438 39.20532,7.0328c10.56994,2.073 31.27986,6.49434 31.27986,6.49434l0.14599,2.00701c0,0 -20.76332,-4.79157 -31.90466,-6.97656c-12.72203,-2.49502 -40.53052,-7.22944 -40.53052,-7.22944z" fill="#918b8e" stroke-width="0"/><path d="M116.86976,149.65444l2.35966,-1.51559c0,0 25.4723,4.63593 37.65059,7.02433c10.56995,2.07302 31.27986,6.49434 31.27986,6.49434l0.14599,2.00702c0,0 -20.76331,-4.79156 -31.90465,-6.97658c-12.72203,-2.49502 -39.53141,-7.03357 -39.53141,-7.03357z" fill="#a59fa2" stroke-width="0"/><path d="M176.27027,182.4861l-0.79588,-5.947c0,0 0.43962,-1.14174 0.78801,-1.1884c0.30699,-0.04112 1.19424,0.92307 1.19424,0.92307l0.79587,5.94701c0,0 -0.43989,0.80801 -0.74759,0.84926c-0.3481,0.04658 -1.23471,-0.58394 -1.23471,-0.58394z" fill="#494242" stroke-width="0"/><path d="M136.23882,177.33423l5.30216,-8.62654l3.81305,0.74785l-5.30216,8.62654z" fill="#9c989a" stroke-width="0"/><path d="M149.04832,161.73166l2.00239,-0.59365l23.97849,4.72104l1.7975,1.32053z" fill="#757274" stroke-width="0"/><path d="M148.59985,164.50851l2.00237,-0.59367l23.97849,4.72106l1.79751,1.32052z" fill="#757274" stroke-width="0"/><path d="M95.53831,186.31496l12.86771,-56.74201l1.77265,0.9394l-12.40963,57.24065z" fill="#686666" stroke-width="0"/><path d="M95.32599,186.54875l3.77087,-15.82589l1.51335,4.188l-2.98974,12.97726z" fill="#535252" stroke-width="0"/><path d="M129.89945,170.0189c0,0 2.53572,-1.8928 2.71796,-2.8219c0.17882,-0.91174 -1.6347,-2.70157 -1.6347,-2.70157c0,0 2.81705,1.23492 2.38984,2.87162c-0.32542,1.24665 -1.77761,3.19257 -2.0755,4.25749c-0.84707,3.02802 -2.93683,10.10553 -2.93683,10.10553z" fill="#c4bec1" stroke-width="0"/><path d="M137.79983,169.62025l3.83801,-9.63694l3.3392,-3.78232l-4.44494,8.86853z" fill="#aca7a9" stroke-width="0"/></g></g><g stroke-width="0"><path d="M259.00774,165.03093l3.14791,-2.77527c0,0 2.05006,-1.06161 2.80669,-0.633c0.86266,0.4887 2.09297,3.40858 2.09297,3.40858l-1.31744,3.90133c0,0 -4.19973,-0.83138 -5.41668,-1.20585c-0.54862,-0.16884 -1.31342,-2.69587 -1.31342,-2.69587z" fill="#c0c0c0"/><path d="M215.03377,166.24175c0,0 0.38111,-2.8601 1.63961,-3.77385c1.57721,-1.14513 7.96917,-2.14588 7.96917,-2.14588l-1.60894,4.51176l-0.56221,2.86663z" fill="#838383"/><path d="M214.8791,166.13563l9.39302,-5.78165l36.86015,7.22903l-1.43983,7.34141z" fill="#999999"/><path d="M215.98577,165.6837l7.16872,-4.54645l33.14093,6.49961l-1.12408,5.73194c0,0 -4.01118,-0.78661 -9.1711,-1.79857c-3.35477,-0.65796 -6.99074,-2.45326 -10.52997,-3.14742c-3.79674,-0.74463 -7.45136,-0.37916 -9.58391,-0.79736c-4.17363,-0.81854 -9.90059,-1.94174 -9.90059,-1.94174z" fill="#d952b3"/><path d="M219.41316,166.35366l9.34852,-4.18225l12.23112,2.39873c0,0 -7.60529,0.45213 -10.107,0.89351c-2.65594,0.46847 -6.21427,1.92131 -6.21427,1.92131z" fill="#a5899d"/><path d="M227.27464,167.78058c0,0 5.17718,0.02474 7.58832,0.49757c3.08088,0.6042 9.38517,2.83129 9.38517,2.83129l-9.40907,-2.18687z" fill="#adadad"/><path d="M214.98527,166.13786l8.48225,-5.21675l34.31302,6.7295l-0.13249,0.67573c0,0 -29.71083,-5.82689 -33.58362,-6.58647c-0.81004,-0.15885 -9.07902,4.39798 -9.07902,4.39798z" fill="#8a8a8a"/><path d="M260.07069,181.33471l1.87751,-9.57293l2.02463,-6.94204c0,0 1.0746,0.68961 1.50965,1.34916c0.43511,0.65955 0.5943,1.84012 0.5943,1.84012l-4.0307,13.71316z" fill="#9e9e9e"/><path d="M255.53522,176.13383c0,0 -0.48576,-2.26064 -0.31409,-3.84639c0.23118,-2.13536 2.13274,-7.38573 2.13274,-7.38573l1.96775,0.05435c0,0 0.5923,0.92301 1.08995,0.86864c0.68607,-0.07499 2.64605,-1.27697 2.64605,-1.27697l-2.95999,12.48097z" fill="#9c9c9c"/><path d="M255.74613,178.04072c-0.5552,-1.23433 -0.055,-2.53555 -0.055,-2.53555l6.17224,-6.12704c0,0 0.62017,4.07937 0.44376,4.97868c-0.50145,2.55684 -0.42788,7.41142 -0.42788,7.41142c0,0 -2.9405,-0.49137 -3.87552,-1.12171c-1.12144,-0.75606 -1.70232,-1.37147 -2.25754,-2.60587z" fill="#888888"/><path d="M257.64256,177.62371c-0.58494,-2.15253 -0.7176,-6.72664 1.87453,-10.36254c2.59217,-3.63594 4.55119,-1.0799 4.55119,-1.0799c0,0 0.13647,4.53404 -0.30867,6.80368c-0.40546,2.06747 -2.25421,6.26425 -2.25421,6.26425c0,0 -3.2779,0.52709 -3.86281,-1.62544z" fill="#b4b4b4"/><path d="M263.20753,170.87322c-0.27155,1.3847 -5.30085,0.47722 -5.02935,-0.90745c0.27155,-1.3847 4.31282,-6.09722 5.10999,-5.94086c0.30878,0.06056 0.92097,0.2844 0.90967,1.3631c-0.01794,1.70647 -0.82403,4.63682 -0.99037,5.48523z" fill="#bbbbbb"/></g><g stroke-width="0"><path d="M199.58048,161.99485c0,0 -4.80069,-5.95249 -4.44017,-7.79094c0.29439,-1.50107 6.24144,-0.46018 6.24144,-0.46018l7.39035,1.52262l-6.02336,9.80301z" fill="#f399c8"/><path d="M169.30906,157.73097c0,0 -0.5482,-2.2453 -0.08931,-3.2485c0.50642,-1.10705 3.222,-4.24807 3.222,-4.24807l22.64321,4.25166l7.29601,10.21833z" fill="#ee96c3"/></g></g><g stroke-width="0"><g><path d="M266.80854,156.75152l1.18967,-6.06618l46.92429,9.2028l-1.18967,6.06618z" fill="#61585b"/><path d="M267.2726,153.53722l0.63713,-3.24847l47.10266,9.2378l-0.6371,3.24848c0,0 -8.47938,-1.663 -17.18977,-3.37129c-2.72336,-0.53409 -6.84418,0.20384 -9.36065,-0.28972c-2.99241,-0.58689 -5.90967,-2.70512 -7.82913,-3.08162c-5.75565,-1.12882 -12.72313,-2.49532 -12.72313,-2.49532z" fill="#494344"/><path d="M329.2153,158.95446l-5.51514,-20.37529l20.52819,4.026l11.91182,19.43003c0,0 -5.86541,0.23697 -9.08671,-0.13155c-4.97077,-0.56877 -17.83816,-2.94915 -17.83816,-2.94915z" fill="#5e555b"/><path d="M328.55634,162.32573l1.06593,-5.43496c0,0 12.34821,0.94092 17.29898,1.11739c3.92899,0.14005 6.79425,0.10888 6.79425,0.10888l4.49295,7.95208c0,0 -5.53989,0.54004 -9.69567,0.17739c-5.63085,-0.49141 -19.95636,-3.92078 -19.95636,-3.92078z" fill="url(#color-5)"/><path d="M322.00642,138.40882l0.76906,-3.92146l18.79348,3.68581l2.79936,4.6213z" fill="url(#color-6)"/><path d="M327.97862,162.23784l0.24238,-1.23571c0,0 15.3326,2.92917 20.65064,3.80142c3.97656,0.65222 8.61793,-0.04443 8.61793,-0.04443l0.65198,1.29443l-8.46509,0.43961z" fill="#312c30"/><g><path d="M230.88764,132.39374l1.48262,-8.73635l92.16946,18.07633l5.32648,12.54139z" fill="#8a6672"/><path d="M245.52312,143.70757c0,0 -2.75977,-4.21575 -5.23075,-6.18975c-2.47097,-1.97406 -9.44588,-3.10004 -9.44588,-3.10004l0.51174,-2.02649c0,0 12.03973,2.64288 18.91929,4.0892c16.43442,3.45489 79.2609,16.55059 79.2609,16.55059l2.2916,7.14152z" fill="#755761"/><path d="M247.83895,146.70007l-2.47008,-3.12558l86.04319,16.37614l0.58997,3.25549z" fill="#694e57"/><path d="M232.13237,124.01441l0.87163,-4.44432l89.23938,16.80939l2.68819,6.29625c0,0 2.06125,3.80589 -3.12133,2.76371c-1.63149,-0.32808 -9.93357,-5.38895 -11.56918,-5.71787c-15.7516,-3.16751 -78.10869,-15.7072 -78.10869,-15.7072z" fill="#916b77"/><path d="M233.2413,119.61674l0.36922,-2.50015l88.25471,17.16722l0.56523,2.54871z" fill="#9e7582"/><path d="M305.84976,134.55372c-7.79234,-2.1885 -71.04862,-15.64636 -71.04862,-15.64636l86.21168,16.90786l3.27896,8.22601c0,0 -10.64969,-7.29902 -18.44204,-9.48754z" fill="#b38f9a"/></g><path d="M278.1342,152.63874l1.76557,-9.00228l19.83436,3.88993l-1.76558,9.0023z" fill="#3a3336"/><path d="M279.81279,143.62361l0.99609,-1.35618l18.19187,3.56778l0.67371,1.6836z" fill="#4b4246"/><path d="M278.36786,152.17568l1.57383,-8.02473c0,0 0.02589,5.37124 2.4212,6.96835c2.39536,1.59712 15.28504,4.83756 15.28504,4.83756z" fill="#332c30"/><path d="M322.81076,140.83276l-2.69195,-6.64224c0,0 1.13211,-0.45733 1.72147,-0.34174c0.65888,0.12925 2.04668,1.08074 2.04668,1.08074l2.69195,6.64224z" fill="#757575"/><path d="M324.86354,146.06011l-3.87148,-9.53562l3.76823,0.73904l3.87147,9.53561z" fill="#5a5a5a"/><path d="M327.78796,153.20549l-3.87147,-9.53561l3.76823,0.73905l3.87148,9.53562z" fill="#505050"/><path d="M330.80939,160.60502c-0.66121,-1.62869 -3.24127,-7.98347 -3.24127,-7.98347l3.76823,0.73906l4.50287,11.40635c0,0 -2.12042,0.12983 -3.04928,-0.06743c-0.72458,-0.15386 -1.68888,-3.37637 -1.98041,-4.09453z" fill="#3b3b3b"/><path d="M228.87431,134.64649l3.59406,-18.32563l3.12154,0.61224l-3.59406,18.32563z" fill="#443e42"/><path d="M210.04335,132.58281l0.46793,-5.94918l19.85042,3.89307l-1.14087,5.81718z" fill="url(#color-7)"/><path d="M210.38996,127.25245l2.08754,-10.64423l19.85042,3.89307l-2.08755,10.64424z" fill="#5e555b"/><path d="M212.45317,116.7322l1.58605,-3.93043l19.06534,3.73907l-0.80106,4.08436z" fill="url(#color-8)"/><path d="M282.20269,126.37099l1.18037,-6.01865l14.53613,3.93779l3.62915,5.5126z" fill="#5e555b"/><path d="M301.47984,130.15165l-3.57784,-5.7743c0,0 2.82688,1.25818 4.82136,2.66663c1.99446,1.40847 5.12403,4.35646 5.12403,4.35646z" fill="#776b73"/><path d="M279.01448,126.92328l3.37972,-0.6053l25.17276,4.66516l3.28547,2.18427z" fill="#6d6269"/></g><g><path d="M280.31777,149.02127c0.24033,-1.2255 0.96371,-2.26237 1.54325,-3.19788c0.80749,-1.30369 1.62735,-2.35332 3.05975,-2.9346c0.87492,-0.35513 2.06592,-0.51833 3.08261,-0.56391c0.67246,-0.03015 1.72995,-0.23046 2.41981,-0.09511c1.56392,0.30669 1.88404,0.45281 2.91685,1.16083c0.62216,0.42652 2.14452,1.18273 2.54011,1.94525c0.33484,0.64537 0.61915,1.66776 0.82371,2.40041c0.34947,1.25215 0.77806,3.23624 0.51084,4.59892c-0.11293,0.57584 -0.85329,1.79462 -1.00126,2.2909c-0.46964,1.57557 -0.56843,2.07545 -1.97164,2.92476c-0.85285,0.5162 -2.43733,0.76376 -3.48164,0.97668c-1.0815,0.22061 -2.50016,0.82494 -3.65087,0.59924c-0.77671,-0.15237 -2.07514,-0.95216 -2.80134,-1.23336c-1.57564,-0.61013 -2.41743,-0.95297 -3.20824,-2.26998c-0.67814,-1.12938 -0.62633,-2.74795 -0.72245,-4.1503c-0.05048,-0.73671 -0.20836,-1.69266 -0.05951,-2.45183z" fill="#3a3a3a"/><path d="M281.05798,149.04549c0.22,-1.12149 0.88195,-2.07025 1.41222,-2.92634c0.73892,-1.19295 1.4891,-2.15343 2.79992,-2.6855c0.80066,-0.32498 1.8906,-0.47435 2.82092,-0.516c0.61539,-0.02756 1.5831,-0.21082 2.21432,-0.08705c1.4312,0.28066 1.72416,0.41436 2.66923,1.06219c0.56928,0.39028 1.96239,1.08235 2.3245,1.78007c0.30639,0.5906 0.56666,1.5262 0.75376,2.1966c0.31981,1.14584 0.71201,2.96145 0.46749,4.20838c-0.10339,0.52698 -0.78087,1.64226 -0.91622,2.09635c-0.4298,1.44173 -0.52018,1.89926 -1.8042,2.6764c-0.78039,0.47239 -2.23037,0.69882 -3.18603,0.89377c-0.98966,0.20187 -2.28789,0.75486 -3.34093,0.54838c-0.71079,-0.13937 -1.89895,-0.87129 -2.56353,-1.12861c-1.44187,-0.55833 -2.21217,-0.87207 -2.9359,-2.07724c-0.62059,-1.03348 -0.57311,-2.51465 -0.66113,-3.79791c-0.04618,-0.67418 -0.19066,-1.5489 -0.0544,-2.24361z" fill="#5a5a5a"/><path d="M293.89368,146.94722c-1.54757,-2.7347 -6.50723,-3.91182 -6.50723,-3.91182c0,0 2.00988,-0.15613 3.96154,0.23368c1.58089,0.31578 3.05373,0.97603 3.94122,2.47584c0.88819,1.50107 0.98894,3.03383 1.00191,4.45841c0.02528,2.79307 -0.8649,5.0569 -0.8649,5.0569c0,0 0.01506,-5.57823 -1.53251,-8.31293z" fill="#6d6d6d"/><path d="M287.70051,150.84708c0.1108,-0.56501 0.65852,-0.93312 1.22352,-0.82229c0.56501,0.1108 0.93312,0.65852 0.82229,1.22353c-0.1108,0.56501 -0.65852,0.93312 -1.22353,0.82229c-0.56501,-0.1108 -0.93312,-0.65852 -0.82229,-1.22353z" fill="#272727"/><path d="M287.59658,150.96614c0.10161,-0.51817 0.60404,-0.85585 1.12221,-0.75423c0.51817,0.10161 0.85585,0.60404 0.75423,1.12221c-0.10161,0.51817 -0.60404,0.85585 -1.1222,0.75425c-0.51817,-0.10161 -0.85585,-0.60404 -0.75425,-1.1222z" fill="#131313"/></g></g></g></g></g><path d="M179.24201,241.69697c0.30496,-1.55505 4.32965,-44.20369 5.13812,-45.75226c1.09161,-2.0908 9.15427,0.86684 12.35316,-0.04228c9.79724,-2.78444 20.30959,-5.39727 20.30959,-5.39727c0,0 13.69361,3.27709 17.85092,4.09249c3.10893,0.60978 64.91544,4.0792 63.65656,14.35047c-1.70753,13.93174 -42.16627,-5.94466 -44.50095,5.95918c-0.59103,3.01351 1.73606,3.66908 0.57522,6.64866c-0.27862,0.71508 -3.58307,5.34457 -4.12576,6.94609c-0.86155,2.54229 1.60174,7.10417 -2.24296,9.50838c-3.06476,1.91654 -2.13452,7.21143 -2.99522,8.28142c-5.93174,7.37317 -13.37272,2.03698 -22.21709,0.30241c-10.48634,-2.05657 -26.46223,-1.39551 -35.43232,-4.41561c-3.87199,-1.30364 -9.25695,4.04481 -8.36921,-0.4817z" fill="#86c8f5" stroke-width="0"/></g></g></svg>