<svg version="1.1" xmlns="http://www.w3.org/2000/svg" xmlns:xlink="http://www.w3.org/1999/xlink" width="469.56265" height="183.45672" viewBox="0,0,469.56265,183.45672"><defs><linearGradient x1="560.54631" y1="211.55634" x2="559.82181" y2="216.31307" gradientUnits="userSpaceOnUse" id="color-1"><stop offset="0" stop-color="#1f1d20"/><stop offset="1" stop-color="#202022"/></linearGradient><linearGradient x1="561.71195" y1="206.8228" x2="560.87832" y2="212.29588" gradientUnits="userSpaceOnUse" id="color-2"><stop offset="0" stop-color="#302d31"/><stop offset="1" stop-color="#1f1e20"/></linearGradient><linearGradient x1="223.50638" y1="203.93234" x2="222.99587" y2="207.2837" gradientUnits="userSpaceOnUse" id="color-3"><stop offset="0" stop-color="#585758"/><stop offset="1" stop-color="#575758"/></linearGradient><linearGradient x1="209.02505" y1="211.9213" x2="208.62429" y2="214.5523" gradientUnits="userSpaceOnUse" id="color-4"><stop offset="0" stop-color="#363536"/><stop offset="1" stop-color="#353536"/></linearGradient><linearGradient x1="364.73102" y1="141.76627" x2="363.89703" y2="147.24157" gradientUnits="userSpaceOnUse" id="color-5"><stop offset="0" stop-color="#5e555b"/><stop offset="1" stop-color="#2b2629"/></linearGradient><linearGradient x1="358.19676" y1="119.86564" x2="357.595" y2="123.81623" gradientUnits="userSpaceOnUse" id="color-6"><stop offset="0" stop-color="#72676e"/><stop offset="1" stop-color="#5e555b"/></linearGradient><linearGradient x1="244.43511" y1="116.59673" x2="243.54246" y2="122.45718" gradientUnits="userSpaceOnUse" id="color-7"><stop offset="0" stop-color="#5e555b"/><stop offset="1" stop-color="#4d454a"/></linearGradient><linearGradient x1="246.58126" y1="102.50694" x2="245.95451" y2="106.62176" gradientUnits="userSpaceOnUse" id="color-8"><stop offset="0" stop-color="#74686f"/><stop offset="1" stop-color="#5e555b"/></linearGradient></defs><g transform="translate(-95.8897,-101.10443)"><g data-paper-data="{&quot;isPaintingLayer&quot;:true}" fill-rule="nonzero" stroke="none" stroke-linecap="butt" stroke-linejoin="miter" stroke-miterlimit="10" stroke-dasharray="" stroke-dashoffset="0" style="mix-blend-mode: normal"><path d="M126.26124,232.08038c1.55652,-3.9192 5.21751,-15.83455 7.97189,-24.24382c2.75437,-8.40924 17.34578,-17.53077 21.0967,-14.92752c3.75092,2.60324 2.14856,1.15422 3.55359,9.03658c0.58636,3.28958 -6.89481,7.43446 -9.28502,10.75523c-3.0703,4.2656 -5.33642,11.21303 -4.34298,11.77602c0.87718,0.49712 3.00296,5.79826 3.92911,5.969c10.35514,1.90905 20.61448,-0.37065 26.4429,1.64427c7.60227,2.62819 3.74568,13.30436 4.75925,19.88466c0.55066,3.57505 0.71214,6.8372 2.03253,10.05453c1.26222,3.07554 -2.64792,8.67942 -4.11088,12.36305c-5.81036,14.62998 -26.10583,10.70299 -41.78666,5.28198c-4.22765,-1.46153 -6.39273,6.43604 -9.72583,2.51386c-6.84372,-8.05332 -12.80283,-30.83286 -10.9575,-40.85318c0.58941,-3.20065 9.39554,-6.66781 10.42291,-9.25466z" fill="#86c8f5" stroke-width="0"/><g stroke-width="0"><g><path d="M165.02277,179.06656l0.66542,-8.54584l39.59664,2.92207l-0.66542,8.54584z" fill="#696366"/><path d="M166.11214,172.10595c0,0 0.13882,-1.20716 -0.07505,-2.7541c-0.2566,-1.85589 -0.53081,-4.13562 -0.4955,-5.18501c0.03921,-1.16542 1.26287,-2.47354 1.26287,-2.47354c0,0 8.85405,1.84034 15.20026,2.98684c0.4171,0.07536 14.76781,1.57518 15.34055,1.54661c3.20567,-0.15996 7.49321,-0.00747 7.49321,-0.00747c0,0 0.56494,1.4578 0.63298,3.01445c0.07275,1.66486 -0.34943,3.45256 -0.29456,4.0028c0.05431,0.54444 -0.38763,1.16634 -0.38763,1.16634z" fill="#454143"/><path d="M164.70821,177.35487l0.12629,-2.18883l40.32066,2.32656l-0.12629,2.18883z" fill="#514c4e"/></g><g><g><path d="M202.45717,251.33354l0.73614,-5.53316c0,0 2.19829,0.47206 3.17248,-0.37046c1.37634,-1.19036 4.50628,-5.95907 4.50628,-5.95907l-0.43924,8.10665c0,0 -3.47506,2.76436 -5.11841,3.45104c-1.18648,0.49578 -2.85726,0.30503 -2.85726,0.30503z" fill="#4d484c"/><g><g><path d="M163.57401,234.71043l4.7961,-4.97299c0,0 16.94373,-6.77342 24.00949,-9.75919c5.43518,-2.29675 14.13393,-6.13382 14.13393,-6.13382l-0.86294,26.46394z" fill="#eb59c1"/><path d="M166.49198,223.8765l3.28028,-29.09553c0,0 17.80557,11.20719 24.23664,15.04558c4.66677,2.78537 10.43725,12.89775 10.43725,12.89775l-6.6144,5.32172z" fill="#dd54b6"/><path d="M167.28024,206.85285l4.30526,-30.14046c0,0 10.64238,15.28278 15.13165,16.65249c6.65221,2.02965 19.73274,0.97999 19.73274,0.97999l-3.43599,25.82632z" fill="#ff77d8"/><path d="M171.3004,194.39366l1.8531,-13.9288l33.46694,1.49931l0.08228,17.13948z" fill="#ee51c1"/></g><g><g><path d="M162.34513,223.94862l0.38478,-41.1149l8.32796,1.10798l-0.38478,41.1149z" fill="#a59da1"/><path d="M162.66982,183.018c0,0 -0.17582,-4.55516 1.77534,-5.58865c1.95117,-1.03349 7.02236,-0.61427 7.02236,-0.61427l-0.45616,7.3127z" fill="#b9b0b5"/><path d="M162.70577,234.73549l-0.29887,-10.80663l8.28816,1.10266l0.29887,10.80663z" fill="#8b8488"/></g><g><path d="M202.63371,225.882l0.38479,-41.11489l4.49955,0.59863l-0.38478,41.11489z" fill="#a59da1"/><path d="M203.04504,185.7768l0.04181,-6.4924c0,0 2.99882,-0.28743 3.89352,0.99144c0.89471,1.27887 0.49114,5.27598 0.49114,5.27598z" fill="#b9b0b5"/><path d="M202.98193,236.66727l-0.29887,-10.80663l4.47215,0.59499l0.29888,10.80663z" fill="#8b8488"/></g><path d="M162.52566,243.36307c0,0 -2.87988,-3.15009 -3.07828,-4.67417c-0.22086,-1.69659 1.8133,-5.04338 1.8133,-5.04338l47.8306,1.92989c0,0 1.68873,2.5791 1.91052,4.10805c0.31088,2.14303 -4.51011,6.45952 -4.51011,6.45952z" fill="#494547"/><path d="M171.27147,180.75477c0,0 -2.22133,-0.86787 -2.57253,-1.49391c-0.38567,-0.68749 1.16006,-2.58279 1.16006,-2.58279c0,0 12.0723,0.58524 17.34584,0.96186c6.14775,0.43905 16.51401,1.63276 16.51401,1.63276c0,0 0.36504,1.28325 0.20166,1.86417c-0.15822,0.56262 -0.76712,1.62135 -0.76712,1.62135z" fill="#c2b8bd"/><path d="M163.03872,242.19987c0,0 -0.85009,-2.97337 -0.8691,-4.66628c-0.01577,-1.40494 0.60463,-3.59963 0.60463,-3.59963l44.9892,1.89289c0,0 1.59488,3.39291 1.37559,5.04107c-0.23556,1.77057 -2.58534,4.05183 -2.58534,4.05183z" fill="#6f696b"/><path d="M173.3476,249.04893l0.73614,-5.53315l29.74489,2.33838l-0.73614,5.53315z" fill="#333032"/><path d="M161.89943,247.64836c-1.01558,-0.78874 -2.48759,-2.46324 -2.48759,-2.46324l0.03713,-6.8745c0,0 2.15241,2.57877 3.16967,4.08758c0.72001,1.06793 11.52681,1.01332 11.52681,1.01332l-0.73614,5.53315c0,0 -10.49427,-0.50755 -11.50986,-1.29632z" data-paper-data="{&quot;index&quot;:null}" fill="#444043"/><g><path d="M168.60909,195.50063c0,0 -1.93677,-5.04159 -1.73308,-6.77204c0.14102,-1.19807 2.83789,-2.61398 2.83789,-2.61398l35.15457,1.62597c0,0 1.16782,3.30673 0.98573,4.85366c-0.18611,1.58102 -2.09055,4.53236 -2.09055,4.53236z" fill="#979797"/><path d="M168.80263,194.45093c0,0 -2.02938,-4.50421 -1.86042,-6.03311c0.11698,-1.05854 2.77687,-2.25978 2.77687,-2.25978l35.06739,2.13185c0,0 1.22891,2.95226 1.07787,4.31899c-0.15438,1.39688 -1.99432,3.97387 -1.99432,3.97387z" fill="#a2a2a2"/></g><g><path d="M168.7878,212.2098c0,0 -1.93677,-5.04159 -1.73308,-6.77204c0.14102,-1.19807 2.83789,-2.61398 2.83789,-2.61398l35.15457,1.62597c0,0 1.16782,3.30673 0.98573,4.85366c-0.18611,1.58102 -2.09055,4.53235 -2.09055,4.53235z" fill="#979797"/><path d="M168.98135,211.16011c0,0 -2.02937,-4.50421 -1.86041,-6.03311c0.11697,-1.05854 2.77686,-2.25978 2.77686,-2.25978l35.06738,2.13186c0,0 1.22891,2.95226 1.07787,4.31899c-0.15439,1.39688 -1.99432,3.97387 -1.99432,3.97387z" fill="#a2a2a2"/></g><g><path d="M169.0073,229.424c0,0 -1.93677,-5.04159 -1.73308,-6.77204c0.14102,-1.19807 2.83789,-2.61398 2.83789,-2.61398l35.15457,1.62597c0,0 1.16782,3.30673 0.98573,4.85366c-0.18611,1.58102 -2.09055,4.53235 -2.09055,4.53235z" fill="#7a7a7a"/><path d="M169.20082,228.37432c0,0 -2.02938,-4.50421 -1.86042,-6.03312c0.11697,-1.05854 2.77686,-2.25977 2.77686,-2.25977l35.0674,2.13185c0,0 1.2289,2.95226 1.07787,4.31899c-0.15439,1.39688 -1.99432,3.97388 -1.99432,3.97388z" fill="#929292"/></g></g></g></g><path d="M162.43415,227.94919c0,0 -0.15581,-1.7523 -0.15322,-4.08292c0.0076,-6.84251 0.2033,-41.00109 0.2033,-41.00109l2.57283,4.68318l-0.51439,29.61557z" fill="#777275"/></g></g><g><g stroke-width="0"><path d="M286.45155,198.35562l-7.80284,-16.71078l25.37268,3.26774c0,0 -1.96364,5.59696 -2.56764,8.23461c-0.58422,2.5515 -0.99892,7.3414 -0.99892,7.3414z" fill="#7f7d7e"/><path d="M286.51917,198.56494l-2.7538,-6.09106c0,0 1.79634,3.86969 4.90301,4.96471c2.23709,0.78849 4.14842,0.7661 6.751,1.48703c2.60255,0.72092 4.90866,1.74269 4.90866,1.74269z" fill="#6c6a6b"/></g><g><g><g><path d="M556.86479,215.86267l-1.31097,-5.06678c0,0 5.67352,2.54116 8.10682,3.81495c2.43332,1.2738 0.7413,2.16531 0.7413,2.16531z" fill="url(#color-1)" stroke-width="0"/><path d="M565.2256,207.55994c0,0 1.11223,2.52407 -1.58995,3.01563c-2.70218,0.49159 -5.7563,1.26353 -5.7563,1.26353l-0.12593,-5.61927z" data-paper-data="{&quot;index&quot;:null}" fill="url(#color-2)" stroke-width="0"/><path d="M547.35727,214.40985l0.31598,-2.07445l14.6041,2.22449c0,0 1.12365,0.97462 1.55074,1.41016c0.38392,0.39153 -0.86803,0.81638 -0.86803,0.81638z" fill="#444444" stroke-width="NaN"/><path d="M547.68497,212.48227l-0.91297,-1.91319l12.47182,1.89969l3.10805,2.13443c0,0 -4.2056,-0.39985 -6.48677,-0.72973c-2.57267,-0.37204 -8.18013,-1.39125 -8.18013,-1.39125z" fill="#535353" stroke-width="0"/><path d="M546.64054,210.68735l-0.22469,-0.6816l11.34295,1.72772l1.5871,0.77351z" fill="#363636" stroke-width="0"/><path d="M547.35727,214.40985l0.17142,-1.12539c0,0 6.3117,1.42022 9.15867,1.85388c2.41255,0.36747 6.83657,0.58251 6.83657,0.58251c0,0 0.78467,0.58709 0.99864,0.82491c0.1805,0.20061 -0.31709,0.43042 -0.31709,0.43042c0,0 -4.73971,-0.3128 -7.02706,-0.6612c-3.08595,-0.47005 -9.82111,-1.90511 -9.82111,-1.90511z" fill="#3a3a3a" stroke-width="NaN"/><path d="M546.73039,210.07215l-0.41413,-0.957l13.48609,2.05419l-1.939,0.63286z" fill="#242424" stroke-width="0"/><path d="M545.48891,209.18053l0.24912,-1.63544c0,0 8.03212,1.01485 10.9937,1.46598c2.01776,0.30735 5.05768,0.97897 5.05768,0.97897l-2.01724,1.19926z" fill="#3a3a3a" stroke-width="0"/><path d="M545.60352,207.56765l0.30756,-2.01926c0,0 7.61571,0.82632 10.89217,1.32538c2.8353,0.43187 7.63523,1.4967 7.63523,1.4967l-2.69818,1.65514c0,0 -3.60083,-0.6319 -5.81965,-0.96986c-2.94936,-0.44923 -10.31712,-1.48808 -10.31712,-1.48808z" fill="#444444" stroke-width="0"/><path d="M545.85562,205.62601l0.12817,-0.84136c0,0 7.80267,1.06335 11.35887,1.60504c2.47624,0.37719 7.93694,1.33406 7.93694,1.33406l-0.98333,0.7111c0,0 -4.95288,-1.04643 -7.8843,-1.49291c-3.22967,-0.49195 -10.55633,-1.3159 -10.55633,-1.3159z" fill="#535353" stroke-width="0"/><path d="M545.8429,204.84929l0.05128,-0.33654c0,0 7.66513,0.65463 11.08604,1.17572c2.95766,0.45051 8.25246,1.76988 8.25246,1.76988l-0.01411,0.34221c0,0 -5.91554,-1.06789 -9.12355,-1.55654c-3.24994,-0.49503 -10.25205,-1.39472 -10.25205,-1.39472z" fill="#4e4e4e" stroke-width="0"/></g><g stroke-width="0"><g><g><g><path d="M541.64373,213.04592l-2.54733,-13.70347l0.80591,-1.61845c0,0 2.94891,3.71561 3.4858,6.31651c0.29146,1.41201 -0.30636,9.22443 -0.30636,9.22443z" fill="#383638"/><path d="M542.78704,212.52068c0,0 0.14953,-0.59394 -0.10227,-3.11551c-0.27458,-2.74985 -1.10352,-6.55513 -1.33044,-7.67604c-0.50943,-2.51611 -1.23607,-2.75878 -1.23607,-2.75878l4.83288,0.14763l2.86878,14.16931z" fill="#555355"/><path d="M540.16866,199.0644l-0.389,-1.30989c0,0 2.11762,-0.48669 3.06825,-0.34187c0.89081,0.13567 1.90364,1.02562 1.90364,1.02562l0.37806,1.38175z" fill="#686668"/></g><path d="M536.03571,212.19172l-2.54733,-13.70346l0.47583,-1.64836c0,0 3.27901,3.74553 3.81584,6.34637c0.29146,1.412 -0.30635,9.22443 -0.30635,9.22443z" fill="#383638"/><path d="M537.179,211.66645c0,0 0.14953,-0.59395 -0.10226,-3.11551c-0.27458,-2.74985 -1.10352,-6.55513 -1.33044,-7.67604c-0.50943,-2.51611 -1.23607,-2.75878 -1.23607,-2.75878l4.16673,-0.45962c0,0 0.82553,1.39445 0.98082,2.16135c0.4424,2.18501 2.55411,12.61518 2.55411,12.61518z" fill="#555355"/><path d="M534.56064,198.21013l-0.60471,-1.34275c0,0 2.33331,-0.45382 3.284,-0.30901c0.89081,0.13567 1.61604,0.98182 1.61604,0.98182l0.50166,1.40062z" fill="#686668"/><path d="M543.7457,211.66149c0.12338,-0.81017 0.88022,-1.36691 1.6904,-1.24352c0.81018,0.12338 1.36691,0.88022 1.24352,1.6904c-0.12338,0.81017 -0.88022,1.36691 -1.69039,1.24352c-0.81018,-0.12338 -1.36691,-0.88022 -1.24352,-1.6904z" fill="#312f31"/><path d="M544.83492,208.86433l-1.14138,-5.78434l1.5948,0.09792l1.13168,5.84815z" fill="#444144"/></g><path d="M497.89952,201.3591l-2.09193,-11.267l29.36445,5.66281l-1.91788,9.4662z" fill="#444444"/><path d="M510.98587,199.39175c0,0 0.70731,-0.42022 1.58775,-1.40375c0.80502,-0.89924 1.76689,-2.34884 2.21699,-2.74937c1.22109,-1.54017 3.50226,-0.72049 3.50226,-0.72049l-1.06675,0.4981l-5.1104,4.54766z" fill="#292929"/><path d="M512.16775,210.22266l-4.78793,-11.82724c0,0 3.37884,1.05207 5.22101,0.2715c1.4315,-0.60661 1.73476,-3.22273 3.33644,-3.26293c4.5953,-0.11526 17.38837,1.3945 17.38837,1.3945c0,0 2.12729,7.55141 2.60923,10.54518c0.33269,2.06679 0.07214,6.51022 0.07214,6.51022z" fill="#4a464a"/><path d="M518.23164,197.88657c-4.41303,-1.31557 -2.78326,-2.44702 -2.78326,-2.44702c0,0 0.97977,-1.16802 2.84782,-1.03131c4.58412,0.33544 13.04178,2.20726 14.74823,2.44126c0.80479,0.11033 0.23785,0.74005 0.23785,0.74005c0,0 -1.83168,2.13448 -3.40288,2.15214c-1.57122,0.01764 -7.23473,-0.5395 -11.64777,-1.85512z" fill="#5e595e"/></g><g><path d="M499.50827,214.94553l-2.40168,-18.50818l18.64905,3.13022l4.09296,5.00171l6.0445,0.82104l0.9132,13.71323z" fill="#4d4846"/><path d="M504.08705,216.03455l21.83488,-6.17397l22.10366,3.12159c0,0 0.66718,4.33274 0.60456,5.6934c-0.03196,0.69371 -0.59653,2.88718 -0.59653,2.88718z" fill="#423d3b"/><path d="M501.56827,207.24403l-1.66056,-10.21265l0.81116,0.12356l1.66057,10.21265z" fill="#363332"/><path d="M504.78667,215.33026l0.18332,-1.20351c0,0 5.58775,-1.72368 14.54926,-0.35868c1.19069,0.18137 5.00725,3.33751 6.20736,3.52031c7.61427,1.15979 15.0672,2.29502 17.90259,2.7269c2.30914,0.35174 4.86289,-0.57429 4.86289,-0.57429l-0.37909,2.4887z" fill="#312e2c"/><path d="M509.04797,203.09218l-1.02872,-4.82529l8.21297,1.25099l3.44186,4.99657l6.20541,1.14151l-7.79662,0.78364z" fill="#585350"/><path d="M498.61099,208.60912l0.1699,-1.11534c0,0 8.51784,-2.48936 11.36224,-2.0561c4.28693,0.65298 16.12172,2.45565 16.12172,2.45565l-0.1699,1.11534c0,0 -12.0377,-1.83358 -16.32455,-2.48652c-2.78598,-0.42437 -11.15946,2.08697 -11.15946,2.08697z" fill="#2b2827"/></g></g></g><g><g><g><path d="M161.37142,200.38711c0.19823,2.28995 -0.49759,4.80337 -1.61593,4.90016c-1.11832,0.09681 -2.23572,-2.25962 -2.43395,-4.54962c-0.19823,-2.28995 -1.01758,-11.084 0.10078,-11.18082c1.11832,-0.09681 3.75089,8.54027 3.94913,10.83025z" fill="#615e5f" stroke-width="0"/><g><path d="M206.9964,177.06249c-0.45373,-0.60283 -2.5701,-2.25269 -2.5701,-2.25269l10.24057,-1.35338l-7.01576,6.21443c0,0 -0.20098,-2.00553 -0.65472,-2.60833z" fill="#756a6a" stroke-width="0"/><path d="M198.32832,174.02541l2.06799,-13.57674l19.20541,-3.00898l-2.9514,19.37652z" fill="#8a7c7c" stroke-width="0"/><path d="M157.92876,173.38168l9.3212,-16.9227l34.55509,5.12853l2.57427,13.20487c0,0 -22.9651,-1.9038 -30.71377,-2.13909c-3.21655,-0.09768 -15.73679,0.72843 -15.73679,0.72843z" fill="#7c787a" stroke-width="0"/><path d="M167.00485,158.85422l0.07663,-1.48689c0,0 25.62862,3.90369 33.68553,5.13092c4.50787,0.68662 16.92329,-3.86609 16.92329,-3.86609l-0.24539,1.61106c0,0 -12.12167,4.57797 -16.47915,3.89942c-7.98999,-1.2442 -33.96088,-5.28838 -33.96088,-5.28838z" fill="#535353" stroke-width="0"/><path d="M126.10848,169.25088l3.03482,-19.92419c0,0 5.54171,-6.29141 13.04902,-7.47035c9.32438,-1.46428 25.75179,2.84359 27.79883,3.15541c1.57087,0.23929 -14.32896,8.35425 -14.32896,8.35425l-3.03482,19.92419z" fill="#8d898b" stroke-width="0"/><path d="M304.03211,149.67694l2.05783,-2.86707l106.31713,16.33858l-2.22051,14.57808c0,0 -37.62775,-3.8646 -49.64654,-6.1162c-5.96888,-1.11821 -56.50789,-21.93342 -56.50789,-21.93342z" fill="#c98cac" stroke-width="0"/><path d="M267.40627,246.26318l-2.54384,-13.47312c0,0 4.20016,6.54658 6.85318,8.03996c1.69031,0.95149 5.81078,1.96525 12.2189,0.4758c5.15878,-1.19906 11.09837,-5.86871 11.09837,-5.86871l-13.78257,12.93473z" fill="#a08e97" stroke-width="0"/><path d="M363.92889,213.50823l1.24567,-23.70412l18.54713,1.40616l-3.19189,20.95532c0,0 -6.58331,0.73618 -9.42205,1.01014c-1.30708,0.12614 -7.17885,0.33255 -7.17885,0.33255z" fill="#96858d" stroke-width="0"/><path d="M265.02553,249.6896l0.83423,-5.47698c0,0 11.61421,3.86146 16.65106,1.47134c2.45131,-1.1632 22.26297,-19.31945 33.19219,-29.42087c4.26512,-3.94207 7.17751,-6.65741 7.17751,-6.65741c0,0 3.88921,-3.22434 4.32718,-6.07306c0.22032,-1.43304 1.31415,-5.49335 0.84013,-7.90355c-0.47825,-2.43176 -2.52537,-3.20717 -2.52537,-3.20717l-2.77286,-14.1512l19.56843,3.12597l-6.87768,25.83224l3.32958,3.09856c0,0 -10.34956,4.49288 -15.67195,8.69506c-8.32758,6.5748 -36.02557,33.09123 -36.02557,33.09123z" fill="#918189" stroke-width="0"/><path d="M340.9599,210.36643l5.50698,-28.09498l13.57704,2.34699l8.4382,13.42591l-4.67409,15.80234z" fill="#96858d" stroke-width="0"/><path d="M336.20847,211.51319l-1.85638,-4.47636l7.44232,-25.35837l5.03468,0.6812l-4.97255,28.159z" fill="#8f8187" stroke-width="0"/><path d="M362.57218,213.76317c0,0 3.7243,-6.17667 3.20178,-11.7295c-0.30086,-3.19727 -4.85918,-5.88404 -5.04362,-7.84408c-0.3523,-3.74419 -0.89738,-9.53652 -0.89738,-9.53652l7.10841,5.49705c0,0 2.28106,7.6444 2.23026,11.94733c-0.03409,2.89094 -2.46096,8.97082 -3.76838,11.40053c-0.11022,0.20484 -1.26043,-0.0546 -1.33637,0.10106c-0.1855,0.38028 0.73288,0.75413 0.73288,0.75413z" fill="#86787e" stroke-width="0"/><path d="M366.50339,191.60061c0,0 -2.46003,-4.37526 -6.94286,-6.04091c-5.07505,-1.88567 -21.95179,-4.69517 -21.95179,-4.69517l158.07429,9.73231l1.97586,9.71004l6.14969,12.20792c0,0 -99.25542,-17.71956 -119.609,-20.81977c-6.64167,-1.01165 -17.69623,-0.09439 -17.69623,-0.09439z" fill="#df8db7" stroke-width="0"/><path d="M206.92458,215.11946l0.71826,-36.57878c0,0 2.22882,-3.45443 2.75675,-3.59218c5.82061,-1.51869 39.09595,-7.22489 44.43005,-6.12283c5.84325,1.20724 -10.89887,10.72327 -10.89887,10.72327c0,0 -14.55058,-0.16703 -17.69929,3.65226c-4.27501,5.18548 -2.09604,23.07108 -2.09604,23.07108z" fill="#c77da3" stroke-width="0"/><path d="M283.02589,196.43698l-1.45206,-2.35073c0,0 7.78019,-7.52077 10.53127,-9.42089c2.8402,-1.96172 6.2511,-2.17057 6.2511,-2.17057l5.52112,3.16971c0,0 -4.34936,-1.17086 -6.94459,0.16991c-2.2279,1.15101 -6.40081,3.62956 -9.63475,6.26499c-2.35244,1.91706 -4.27207,4.33756 -4.27207,4.33756z" fill="#414041" stroke-width="0"/><path d="M166.84668,157.77177l6.5055,-10.83345l48.07397,7.32255c0,0 -3.53645,3.96823 -6.91655,5.44217c-3.31745,1.44666 -13.17958,3.32115 -13.17958,3.32115z" fill="#979395" stroke-width="0"/><path d="M167.80964,156.76235l5.71461,-10.95391l48.07397,7.32255c0,0 -3.53645,3.96823 -6.91655,5.44217c-3.31745,1.44666 -13.17958,3.32115 -13.17958,3.32115z" fill="#bdb7ba" stroke-width="0"/><path d="M364.9046,214.44286l-1.77422,-0.78968l17.28542,-1.59003c0,0 -3.82956,1.4978 -6.40519,1.91159c-2.57562,0.41382 -9.10597,0.46811 -9.10597,0.46811z" fill="#887980" stroke-width="0"/><path d="M209.31201,215.95292c0,0 -0.7376,-10.69854 -0.63928,-19.32049c0.09882,-8.66402 0.21662,-16.78562 0.73459,-20.33278c0.08776,-0.60096 3.21245,-10.17022 3.78502,-10.61041c3.09071,-2.37613 9.57819,6.44494 15.24505,6.19182c8.3907,-0.37478 27.35873,1.99437 27.35873,1.99437l-9.15701,3.97716c0,0 -19.65926,-0.09631 -22.79722,4.62221c-4.24437,6.3823 0.09701,28.15705 0.09701,28.15705z" fill="#d486ae" stroke-width="0"/><path d="M210.96053,212.64459c0,0 -0.43065,-41.40859 2.39852,-51.17086c1.32373,-4.56767 -0.62132,-14.07684 -0.62132,-14.07684l49.04015,14.51879l-1.01216,16.10117c0,0 -31.21116,-7.88292 -38.43391,-2.63673c-4.82143,3.50199 -2.34288,32.44833 -2.34288,32.44833z" fill="#e490bb" stroke-width="0"/><g stroke-width="0"><path d="M357.29183,171.21329l1.24604,-8.18053l9.25326,1.40946l-1.24604,8.18053z" fill="#454545"/><path d="M358.22983,170.58251l0.74629,-7.26861l11.19705,1.70552l-1.09896,7.21488z" fill="#b0b0b0"/><path d="M358.6779,166.10994l0.20022,-2.83245l11.41122,1.73814l-0.28722,1.88563c0,0 -7.75256,-0.85468 -9.45344,-0.97353c-0.56834,-0.03971 -1.87081,0.18222 -1.87081,0.18222z" fill="#bebebe"/><path d="M369.40749,171.72921c0,0 -5.09272,-3.36055 -3.96391,-6.9795c1.67741,-5.37775 5.67963,-4.28454 5.67963,-4.28454l39.58275,7.37792l-1.51494,9.9459z" fill="#9c989a"/><path d="M371.36854,170.7238c0,0 -1.92851,-3.85327 -2.03031,-4.80629c-0.15091,-1.4127 2.26648,-4.03591 2.26648,-4.03591l41.11644,6.29652l-1.52308,7.34304z" fill="#898587"/><path d="M371.24936,170.9062l-0.71593,-2.07081l37.79582,5.757l-0.29202,1.91728z" fill="#c1bcbf"/><path d="M371.64063,167.53272c0,0 -1.11216,-1.55316 -0.971,-2.47983c0.13203,-0.86681 1.79236,-2.91254 1.79236,-2.91254l38.22577,5.82251l-0.82136,5.39234z" fill="#0d0d0d"/><path d="M371.52357,168.30114c0,0 -1.02121,-2.15003 -0.88007,-3.07671c0.13203,-0.86681 1.70142,-2.31564 1.70142,-2.31564l38.22578,5.82251l-0.82136,5.39234z" fill="#2e2e2e"/><path d="M366.46599,169.45605c-2.14694,-3.42935 -0.6432,-5.56379 -0.6432,-5.56379c0,0 1.19211,4.34134 2.27836,5.41476c1.28608,1.27084 4.64904,3.16483 4.64904,3.16483l-3.47933,-0.45898c0,0 -2.42702,-1.95326 -2.80484,-2.55677z" fill="#7d7a7c"/><path d="M374.04732,168.99883c0,0 -0.54568,-2.32062 -0.37347,-3.45115c0.15137,-0.99377 1.35224,-2.97474 1.35224,-2.97474l4.76832,0.72631c0,0 -0.78775,2.10942 -0.91845,2.96773c-0.1797,1.17971 -0.0603,3.4581 -0.0603,3.4581z" fill="#555555"/><path d="M382.56574,170.29638c0,0 1.039,-2.39396 1.21119,-3.52447c0.15137,-0.99377 -0.23239,-2.90144 -0.23239,-2.90144l5.32195,0.81063c0,0 -0.67016,1.63277 -0.8009,2.49112c-0.1797,1.17971 -0.17786,3.93475 -0.17786,3.93475z" fill="#555555"/><path d="M391.78607,171.70079c0,0 1.03901,-2.39396 1.21121,-3.52447c0.15137,-0.99377 -0.2324,-2.90143 -0.2324,-2.90143l5.24286,0.79856c0,0 -0.67016,1.63277 -0.8009,2.49112c-0.1797,1.17971 -0.17786,3.93475 -0.17786,3.93475z" fill="#555555"/><path d="M401.33918,173.15591c0,0 1.16122,-2.01565 1.3334,-3.14621c0.15137,-0.99377 -0.35462,-3.27967 -0.35462,-3.27967l5.08469,0.77449c0,0 0.51991,2.08377 0.38917,2.94217c-0.1797,1.17971 -1.36793,3.48374 -1.36793,3.48374z" fill="#555555"/><path d="M374.65698,163.22882l-0.53708,-0.89103l35.1571,5.35507l-1.63722,0.55985c0,0 -2.79781,-0.42617 -5.23195,-0.79691c-0.53056,-0.08083 -1.48507,-0.55874 -2.27979,-0.67983c-0.76841,-0.11705 -1.36948,0.12396 -2.32465,-0.02151c-1.4895,-0.2269 -3.17008,-0.48287 -4.92943,-0.75084c-0.72943,-0.1111 -1.30635,-0.58697 -2.05487,-0.70096c-0.66561,-0.10137 -1.50164,0.15924 -2.17038,0.0574c-1.65972,-0.25281 -3.30309,-0.50313 -4.84821,-0.73846c-0.70952,-0.10808 -1.33228,-0.64635 -1.99243,-0.74689c-0.80588,-0.12277 -1.63507,0.19436 -2.34115,0.08681c-2.88023,-0.4387 -4.80999,-0.73264 -4.80999,-0.73264z" fill="#474747"/></g><g><path d="M219.01956,207.36909l4.10651,-2.27502c0,0 2.36884,3.20818 5.03579,4.51971c2.3588,1.15998 10.15525,2.95068 10.15525,2.95068l-3.28048,3.90484z" fill="#6d6a6b" stroke-width="0"/><path d="M210.07366,212.58164l10.23829,-5.91088c0,0 2.85805,2.7179 4.90243,3.69883c3.09284,1.48397 11.84887,4.33874 11.84887,4.33874l-4.87758,3.61408z" fill="#615e5f" stroke-width="0"/><path d="M208.74177,234.5995l1.93269,-22.53904c0,0 4.18532,1.43859 8.94719,2.19385c3.71682,0.58951 7.84601,0.3616 10.20983,1.33701c4.14984,1.71242 35.4331,18.97563 35.4331,18.97563l0.91807,10.43202z" fill="#575455" stroke-width="0"/><path d="M234.15906,211.11724c7.69229,-4.45773 17.69535,-16.54129 19.32655,-18.89388c1.17515,-1.69486 2.64929,-6.80722 2.64929,-6.80722l6.58968,7.89713c0,0 2.69668,21.14391 1.95945,33.82422c-0.20629,3.54806 1.6884,7.82738 0.29486,9.09851c-1.24859,1.13887 -18.36133,0.8486 -23.57886,-0.71975c-10.98018,-3.30043 -17.12625,-1.4149 -20.03389,-7.19399c-2.90767,-5.77908 5.05635,-10.9086 5.05635,-10.9086c0,0 5.73405,-5.13594 7.73663,-6.29646z" fill="#504e4f" stroke-width="0"/><path d="M243.85277,179.38992c0,0 0.61611,-1.41616 1.56325,-1.94306c1.21811,-0.67764 5.13914,-1.7855 5.13914,-1.7855c0,0 8.94885,3.45427 11.54981,6.36919c2.3998,2.68937 -5.35747,11.90759 -5.35747,11.90759l-1.1763,-5.60239z" fill="#464445" stroke-width="0"/><path d="M259.71074,229.5776c0,0 -10.1204,4.78641 -18.53386,3.67828c-8.1165,-1.06902 -14.54284,-8.00765 -14.22288,-9.39755c0.17333,-0.75306 8.50865,-2.82687 12.58119,-6.47665c4.52704,-4.05709 4.90275,-9.76715 6.54094,-11.55127c4.57337,-4.98082 14.45476,-13.77163 14.31588,-19.90611c-0.14563,-6.43338 -10.42869,-10.09748 -10.42869,-10.09748c0,0 4.14636,-1.64609 9.09474,-1.02372c2.10783,0.26509 6.39489,2.31994 7.24968,2.83955c2.8031,1.70387 4.52472,3.62124 4.52472,3.62124c0,0 4.35159,-4.27278 7.95924,-4.03628c3.60764,0.23649 21.77491,5.98532 21.77491,5.98532l-17.92212,10.00938z" fill="#555354" stroke-width="0"/><path d="M245.59474,206.35889c0,0 6.20535,-10.053 11.70019,-14.71364c5.49484,-4.66062 10.00566,-7.19071 13.49774,-6.65878c2.52877,0.38517 4.48218,9.39749 4.48218,9.39749l-15.28275,26.77323c0,0 -14.94821,1.04005 -16.03508,-1.63478c-0.85842,-2.11258 1.63774,-13.16347 1.63774,-13.16347z" fill="#585758" stroke-width="0"/><path d="M263.78212,236.74377c0,0 -1.91308,-6.55387 -1.13546,-9.49249c1.08632,-4.10523 4.41924,-16.39746 4.41924,-16.39746l0.36294,10.61135c0,0 -2.10097,9.53991 -2.42603,12.55522c-0.31361,2.90927 0.76665,5.26924 0.76665,5.26924z" fill="#3f3e3f" stroke-width="0"/><path d="M265.55427,218.94241c0.05899,-1.68513 1.48394,-9.26796 1.48394,-9.26796c0,0 11.64286,-12.96256 14.11588,-15.26956c0.725,-0.67632 4.30305,-1.88221 4.30305,-1.88221l-2.35841,4.55067c0,0 -1.64686,0.36011 -1.89655,0.80543c-0.26604,0.47445 0.34615,1.95934 0.34615,1.95934l-6.34732,7.61111c0,0 -1.78398,0.75051 -2.03721,1.22312c-0.2533,0.47275 0.29275,1.45431 0.29275,1.45431c0,0 -5.15679,8.25891 -6.35328,10.51928c-0.55322,1.04512 -0.53656,2.49678 -0.53656,2.49678c0,0 -1.07138,-2.51519 -1.01238,-4.20033z" fill="#474647" stroke-width="0"/><path d="M255.73532,196.23658l19.5786,11.3125c0,0 -1.32781,0.82173 -1.64346,1.31891c-0.23293,0.36686 -0.0788,1.39388 -0.0788,1.39388z" fill="#3f3e3e" stroke-width="NaN"/><path d="M263.22588,186.90517l20.10469,10.20256c0,0 -1.22929,0.66579 -1.52167,1.18401c-0.30477,0.54022 -0.10199,1.66278 -0.10199,1.66278z" fill="#3f3e3e" stroke-width="NaN"/><path d="M246.60901,213.38491c0,0 9.41208,9.21537 14.32308,16.00994c4.91097,6.79459 2.8107,7.69541 2.8107,7.69541z" fill="#636162" stroke-width="NaN"/><path d="M263.21621,192.59195c0,0 -6.36953,1.96735 -9.55372,4.61398c-3.1842,2.64662 -13.85999,17.39006 -13.41647,14.47812c0.44355,-2.91193 16.53587,-21.4209 18.31035,-21.15062c0.67173,0.10233 3.84536,-0.56972 4.6187,-0.21171c1.26955,0.58774 0.04116,2.27021 0.04116,2.27021z" fill="#918f91" stroke-width="0"/><path d="M208.31024,234.40288l14.06817,0.23276c0,0 12.50231,1.56822 15.57987,2.19386c7.49479,1.52357 29.55222,6.98072 29.55222,6.98072l-1.39374,6.18169c0,0 -24.62008,-0.14351 -31.23778,-2.48232c-1.91449,-0.67661 -7.57177,-2.16351 -11.57537,-4.14112c-7.83487,-3.87008 -14.99338,-8.96557 -14.99338,-8.96557z" fill="#626061" stroke-width="0"/><path d="M265.17626,249.49275c0,0 0.68638,-4.2376 0.59488,-6.61837c-0.10282,-2.67592 -1.1818,-8.65543 -1.1818,-8.65543l1.76202,0.2684c0,0 1.02846,4.66485 1.12156,7.08736c0.10176,2.64862 -0.53462,8.18645 -0.53462,8.18645z" fill="#4a494a" stroke-width="0"/><path d="M264.8573,250.29013l0.59881,-3.34514c0,0 0.52043,0.34705 0.78884,0.38791c0.31892,0.0486 0.9585,-0.12176 0.9585,-0.12176l-0.30658,3.16652c0,0 -0.82909,0.28604 -1.2007,0.27009c-0.28477,-0.0122 -0.83881,-0.35762 -0.83881,-0.35762z" fill="#363536" stroke-width="0"/><path d="M264.70688,235.274l-0.13742,-1.66025c0,0 0.46598,-0.28751 0.83919,-0.29059c0.35541,-0.00292 0.85339,0.1971 0.85339,0.1971l0.23443,1.79213c0,0 -0.55275,0.42909 -0.85933,0.4225c-0.28886,-0.0062 -0.93026,-0.46088 -0.93026,-0.46088z" fill="#585758" stroke-width="0"/><path d="M223.8704,242.76495c0,0 -7.36048,-4.10802 -7.15524,-5.4555c0.20627,-1.3542 6.54863,-1.57245 6.54863,-1.57245c0,0 10.85535,1.40992 15.72984,2.327c2.72892,0.51344 11.02732,2.707 11.02732,2.707c0,0 7.04994,2.14022 7.6823,3.40154c0.68977,1.37584 -3.55819,3.60321 -3.55819,3.60321c0,0 -12.77544,-0.62483 -16.66368,-1.4277c-1.38123,-0.28523 -13.61095,-3.583 -13.61095,-3.583z" fill="#6b696a" stroke-width="0"/><path d="M214.645,234.37864l-1.97408,-0.06722c0,0 1.13646,-3.30118 3.63843,-1.66359c2.50194,1.63764 21.41188,3.49489 21.41188,3.49489z" fill="#4b4949" stroke-width="0"/><path d="M208.40405,234.27148c0,0 -2.00385,-0.11144 -1.98431,-3.79323c0.00989,-1.8637 0.42683,-16.15602 0.42683,-16.15602l4.12991,-2.30347c0,0 -0.22855,6.02805 -0.46174,8.92825c-0.31019,3.85723 -1.19807,13.46345 -1.19807,13.46345z" fill="#3f3d3e" stroke-width="0"/><path d="M214.93817,234.59112c0,0 3.48125,-1.65276 19.4053,0.43176c1.31505,0.17216 -1.76989,-0.30198 7.44627,1.61499c9.21616,1.91694 12.85203,4.00086 12.85203,4.00086c0,0 -14.73336,-3.32587 -20.86545,-4.25991c-6.98985,-1.06467 -18.83819,-1.78769 -18.83819,-1.78769z" fill="#838082" stroke-width="0"/><path d="M224.39329,206.05737c0,0 -4.65015,1.50436 -7.04369,2.77397c-2.69027,1.42701 -8.31189,5.37122 -8.31189,5.37122l-0.53435,-1.70148c0,0 4.29999,-3.24316 6.73544,-4.53502c2.66276,-1.41241 8.62016,-3.61018 8.62016,-3.61018z" fill="#4a494a" stroke-width="0"/><path d="M225.35546,205.94318l-3.77351,1.12516c0,0 0.19263,-0.62454 0.11122,-0.88372c-0.09672,-0.30797 -0.56461,-0.79197 -0.56461,-0.79197l3.38005,-1.30766c0,0 0.67326,0.59483 0.82755,0.93342c0.11824,0.25946 0.01925,0.92474 0.01925,0.92474z" fill="url(#color-3)" stroke-width="0"/><path d="M210.06301,213.57149l-3.32838,2.2543l0.18647,-2.17941l2.35957,-1.68612c0,0 0.69274,0.27759 0.82674,0.55364c0.12628,0.26007 -0.04443,1.05757 -0.04443,1.05757z" fill="url(#color-4)" stroke-width="0"/></g><path d="M342.26051,209.45538c0,0 1.58219,-4.22862 2.28895,-5.52611c0.47977,-0.88078 3.04166,-1.93873 3.04166,-1.93873l16.85822,2.34708c0,0 -2.13562,5.5393 -2.7181,6.83265c-0.25517,0.56657 -1.41326,1.09077 -1.41326,1.09077z" fill="#665b60" stroke-width="0"/><path d="M296.94976,184.08661c0,0 -3.51566,-2.11597 -8.21444,-3.99721c-2.98701,-1.19592 -7.12299,-2.39921 -8.9787,-2.57486c-5.39518,-0.51073 -8.65415,4.15665 -8.65415,4.15665c0,0 -2.88724,-2.78223 -4.84214,-3.94456c-1.82482,-1.08497 -5.97756,-2.73001 -5.97756,-2.73001c0,0 25.04606,-1.33501 28.94067,-1.3286c7.46628,0.01227 33.78432,4.41694 33.78432,4.41694l4.00179,15.06003z" fill="#8b7c84" stroke-width="0"/><g stroke-width="0"><path d="M343.84056,208.74244c0,0 0.85709,-2.49566 1.39753,-3.31843c0.56034,-0.85313 2.87767,-1.56471 2.87767,-1.56471l14.36435,2.18793c0,0 0.23386,1.02993 -0.10991,1.72387c-0.46745,0.94349 -3.62604,3.24145 -3.62604,3.24145z" fill="#585852"/><path d="M343.95279,208.00559c0,0 0.74485,-1.75878 1.2853,-2.58156c0.56034,-0.85313 2.98991,-2.30156 2.98991,-2.30156l14.36435,2.18794c0,0 0.12168,1.7668 -0.22215,2.46073c-0.46745,0.94349 -3.51381,2.50454 -3.51381,2.50454z" fill="#797971"/><path d="M360.77363,205.53467c-1.01012,-0.33385 -12.4593,-2.35228 -12.4593,-2.35228l14.34468,2.18496l-0.37071,2.43377c0,0 -0.50458,-1.93257 -1.51469,-2.26647z" fill="#85857b"/></g><path d="M347.99129,190.99702l0.78148,-5.13057l7.05456,1.07453l0.50117,5.32595z" fill="#7c6e75" stroke-width="0"/><path d="M341.66499,163.30505l-2.90466,-8.6675l1.3636,0.20773l4.75007,9.40539z" fill="#d495b6" stroke-width="0"/><path d="M304.25491,149.88978l13.53356,-1.06389l21.16452,5.86639l2.73877,8.60275z" fill="#df9cbe" stroke-width="0"/><path d="M347.39457,195.99164l0.24423,-1.6033l10.74213,1.63626l0.71777,1.74983z" fill="#7c6e75" stroke-width="0"/><path d="M309.11543,177.86668c0,0 -18.1073,-1.54586 -23.75118,-1.89957c-8.54604,-0.53564 -25.77181,-0.80737 -25.77181,-0.80737c0,0 15.52107,-2.12771 29.10278,-1.59253c14.72602,0.58024 58.49277,5.77253 58.49277,5.77253l-0.8145,5.34739z" fill="#75686e" stroke-width="0"/><path d="M300.95522,185.49537l-3.12029,-1.05267c0,0 10.01811,-0.88598 15.18192,0.67216c5.16381,1.55812 13.56507,8.00199 13.56507,8.00199z" fill="#7c6e76" stroke-width="0"/><path d="M255.63571,174.51569c0,0 -29.66988,-20.0933 -29.8555,-24.79499c-0.16859,-4.27091 29.12816,6.8118 29.43883,6.74963c5.436,-1.0877 77.58571,2.60394 77.58571,2.60394l25.28297,10.71871l52.24633,7.38006l5.18072,14.52113c0,0 -61.0332,-8.11412 -84.55303,-11.53172c-8.16436,-1.18633 -24.7072,-4.36129 -40.00832,-5.53848c-11.80279,-0.90803 -29.93741,0.6961 -29.93741,0.6961z" fill="#ee96c3" stroke-width="0"/><path d="M126.08776,167.4711l6.32384,-19.42321c0,0 0.96184,-6.98899 8.46918,-8.16794c9.32438,-1.46428 25.75179,2.8436 27.79883,3.15542c1.57087,0.23929 -14.32897,8.35425 -14.32897,8.35425l-3.03481,19.92419z" fill="#c4b4b3" stroke-width="0"/><g stroke-width="0"><path d="M406.78942,191.76314l-0.54432,-15.40045l90.68049,20.65486l-1.62255,5.62678l-47.61916,-2.34014z" fill="#ad6d8e"/><path d="M434.99318,181.55749l8.43553,-7.08323l26.79002,1.92703l-5.82225,9.63492z" fill="#8d788b"/><path d="M409.63364,178.89711l2.44474,-16.05015l31.41916,11.64197l-5.56083,6.10123z" fill="#857183"/><path d="M452.06877,182.00158l18.08785,-5.60852l26.95607,7.92212l-1.32092,6.77231z" fill="#947e92"/><path d="M405.60377,177.66774l4.78296,-12.18466l1.89167,-2.81101l-2.26835,14.89208z" fill="#756474"/><path d="M408.53817,188.77805l1.10485,-12.04368l43.06823,4.89225l-3.63001,15.68934z" fill="#746373"/><path d="M449.07597,197.29948c0,0 1.32544,-6.17834 1.9502,-8.96013c0.5349,-2.38171 1.57073,-6.71752 1.57073,-6.71752l43.55913,7.55443l0.7123,8.6054z" fill="#867284"/><path d="M405.65437,177.6042l4.21219,-0.90696l-1.29985,12.09289z" fill="#6f5e6d"/><path d="M489.99585,183.12228l-19.08571,-6.30955l25.87494,7.61955l-0.89337,3.45029c0,0 -0.0737,-1.5986 -1.16211,-2.4774c-0.72808,-0.58785 -4.73377,-2.28289 -4.73377,-2.28289z" fill="#978195"/><path d="M450.51161,181.10719c0,0 8.40552,-2.22492 11.35595,-3.14523c2.14928,-0.67038 4.71741,-1.8684 4.71741,-1.8684l2.48799,0.49288l-15.94291,4.91954z" fill="#9c859a"/><path d="M436.17303,179.74079c0,0 1.71583,-2.52269 3.25405,-3.65426c1.53819,-1.13157 3.94288,-1.58991 3.94288,-1.58991l-4.76344,5.61481z" fill="#806b7d"/><path d="M471.97859,174.90467l2.97234,-5.34673l14.46452,5.97963l4.57244,7.17026z" fill="#55494f"/><path d="M469.05248,177.29138c0,0 1.18909,-0.61819 1.83113,-1.1119c0.48363,-0.37189 1.37226,-1.63708 1.37226,-1.63708l21.45696,7.31442c0,0 0.78313,0.62198 1.31361,1.03222c0.55441,0.42872 1.94416,1.48707 1.94416,1.48707z" fill="#685960"/><path d="M472.66771,174.10715l2.33008,-4.28334l13.48408,5.41908c0,0 -7.6846,-2.72091 -12.15296,-3.14389c-2.59189,-0.24536 -3.6612,2.00816 -3.6612,2.00816z" fill="#41383c"/></g><path d="M133.62331,128.88572l0.78427,-5.14893c0,0 22.27683,2.08319 43.97602,5.44599c12.93073,2.00393 26.10528,5.62675 33.00036,6.32286c15.54686,1.5695 26.57578,-1.31482 26.57578,-1.31482l-7.87096,9.567z" fill="#ffa1d1" stroke-width="0"/><path d="M128.97301,142.29596l4.55744,-15.57391c0,0 53.8612,10.28835 71.57124,12.54016c10.49069,1.33389 24.89732,-0.27426 24.89732,-0.27426l-2.20491,14.4754c0,0 -66.73135,-10.16444 -82.81818,-12.61476c-6.6143,-1.00749 -20.05122,28.0251 -20.05122,28.0251z" fill="#ee96c3" stroke-width="0"/><path d="M294.62062,244.90156l11.2215,-12.04345c0,0 12.19336,-14.18288 22.5199,-19.55185c2.62415,-1.36433 7.91492,-1.76879 7.91492,-1.76879c0,0 -7.97127,3.82845 -10.95684,6.19731c-7.05059,5.59425 -30.69943,27.16677 -30.69943,27.16677z" fill="#70646b" stroke-width="0"/><path d="M399.29816,195.25739l-3.51805,-18.7453l1.33472,0.2033c0,0 1.06545,5.67705 1.62841,8.67681c0.08023,0.42739 1.24577,1.84012 1.3451,2.36952c0.17224,0.91772 -0.70707,1.03012 -0.51457,2.05585c0.53605,2.85616 1.05907,5.64309 1.05907,5.64309z" fill="#795467" stroke-width="0"/><path d="M228.35425,153.98546c0,0 -9.37585,-8.056 -8.13581,-11.6856c0.74248,-2.17322 18.59043,-7.49847 18.59043,-7.49847l67.46903,11.96819l-2.08424,2.81437l28.52175,9.65335l-74.97907,15.46099c0,0 0.06301,-5.66898 4.05459,-7.9521c3.87941,-2.21895 19.568,-5.55962 19.568,-5.55962c0,0 -33.81984,-5.20094 -41.0146,-6.38453c-2.40035,-0.39488 -11.99018,-0.81662 -11.99018,-0.81662z" fill="#f399c8" stroke-width="0"/><g><path d="M236.74277,136.43304l0.48765,-3.20142l174.54051,26.58579l-0.48765,3.20142z" fill="#584f54" stroke-width="0"/><path d="M406.00329,159.18998l0.41203,-2.70513l3.02043,0.46006l2.25302,3.11106z" fill="#685d63" stroke-width="0"/><g fill="#685d63" stroke-width="0"><g><g><g><path d="M399.38165,158.43342l0.44829,-2.94306l3.83687,0.58441l-0.44829,2.94306z"/><path d="M393.15593,157.48516l0.44829,-2.94306l3.83687,0.58442l-0.44829,2.94306z"/></g><g><path d="M387.16514,156.57264l0.44829,-2.94307l3.83687,0.58442l-0.44829,2.94306z"/><path d="M380.93937,155.62433l0.44829,-2.94306l3.83686,0.58442l-0.44829,2.94307z"/></g></g><g><g><path d="M374.83112,154.69392l0.44829,-2.94307l3.83686,0.58442l-0.44829,2.94306z"/><path d="M368.60536,153.74565l0.44829,-2.94306l3.83687,0.58441l-0.44829,2.94307z"/></g><g><path d="M362.61461,152.83312l0.44829,-2.94306l3.83686,0.58442l-0.44829,2.94306z"/><path d="M356.38892,151.88484l0.44829,-2.94306l3.83686,0.58441l-0.44829,2.94307z"/></g></g></g><g><g><g><path d="M356.15399,151.84908l0.44829,-2.94306l3.83686,0.58442l-0.44829,2.94306z"/><path d="M349.9283,150.90076l0.44829,-2.94306l3.83687,0.58442l-0.44829,2.94306z"/></g><g><path d="M343.93747,149.98825l0.44829,-2.94307l3.83686,0.58442l-0.44829,2.94306z"/><path d="M337.71176,149.03995l0.44829,-2.94306l3.83686,0.58441l-0.44829,2.94307z"/></g></g><g><g><path d="M331.60355,148.10957l0.44829,-2.94307l3.83687,0.58442l-0.44829,2.94306z"/><path d="M325.3778,147.16127l0.44829,-2.94306l3.83687,0.58442l-0.44829,2.94307z"/></g><g><path d="M319.387,146.24876l0.44829,-2.94306l3.83687,0.58441l-0.44829,2.94307z"/><path d="M313.16128,145.30045l0.44829,-2.94306l3.83687,0.58442l-0.44829,2.94306z"/></g></g></g></g><g><g fill="#685d63" stroke-width="0"><g><g><path d="M307.01306,144.36396l0.44829,-2.94307l3.83687,0.58442l-0.44829,2.94306z"/><path d="M300.78734,143.41566l0.44829,-2.94306l3.83687,0.58442l-0.44829,2.94307z"/></g><g><path d="M294.79654,142.50319l0.44829,-2.94306l3.83687,0.58442l-0.44829,2.94307z"/><path d="M288.57089,141.55488l0.44829,-2.94306l3.83687,0.58441l-0.44829,2.94307z"/></g></g><g><g><path d="M282.4626,140.62447l0.44829,-2.94307l3.83687,0.58442l-0.44829,2.94306z"/><path d="M276.23687,139.67616l0.44829,-2.94306l3.83687,0.58442l-0.44829,2.94307z"/></g><g><path d="M270.24604,138.76367l0.44829,-2.94306l3.83687,0.58442l-0.44829,2.94307z"/><path d="M264.02031,137.81539l0.44829,-2.94306l3.83687,0.58441l-0.44829,2.94306z"/></g></g></g><g><g fill="#685d63" stroke-width="0"><g><path d="M263.78542,137.7796l0.44829,-2.94307l3.83687,0.58442l-0.44829,2.94306z"/><path d="M257.55967,136.83128l0.44829,-2.94306l3.83687,0.58441l-0.44829,2.94307z"/></g><g><path d="M251.56889,135.91878l0.44829,-2.94306l3.83687,0.58441l-0.44829,2.94307z"/><path d="M245.34318,134.97046l0.44829,-2.94306l3.83687,0.58441l-0.44829,2.94306z"/></g></g><g fill="none" stroke-width="1" font-family="sans-serif" font-weight="normal" font-size="12" text-anchor="start"><g/><g/></g></g></g><path d="M237.26373,133.48778l3.0771,-2.29918l3.02043,0.46006l-0.41203,2.70513z" data-paper-data="{&quot;index&quot;:null}" fill="#685d63" stroke-width="0"/></g><path d="M288.57374,174.569l-2.56342,-0.11731c0,0 2.0464,-2.28545 11.70195,-1.95543c7.32034,0.25022 27.84664,2.05014 40.12891,3.16662c5.70358,0.51843 62.91664,0.1273 62.91664,0.1273l5.14169,0.7687c0,0 -62.61487,1.23008 -68.31077,0.6893c-12.59517,-1.19582 -33.77842,-3.17095 -39.94406,-3.52491c-3.35632,-0.1927 -9.07088,0.84575 -9.07088,0.84575z" fill="#70475c" stroke-width="0"/><path d="M385.46829,208.57498l-5.14561,1.08332l2.85142,-18.71541c0,0 7.69534,1.22111 15.22121,2.41531c21.60458,3.42822 125.43759,19.90449 125.43759,19.90449l-1.013,6.65056z" fill="#5a5959" stroke-width="0"/><path d="M384.31843,210.04702l1.53112,-2.80749l136.99886,12.56733l-13.37949,9.30294z" fill="#4b4a4a" stroke-width="0"/><path d="M506.24909,228.42807c0,0 -5.35333,-4.07735 -8.13616,-5.94579c-1.49138,-1.00133 -7.26303,-4.39342 -7.26303,-4.39342c0,0 7.47295,4.0755 10.63668,5.5163c1.12909,0.5142 2.12804,1.41772 3.33766,2.13619c0.39003,0.23166 2.60817,-2.22146 4.7436,-3.63033c0.63827,-0.42112 1.73039,0.11399 2.29961,-0.13391c1.30487,-0.56832 1.82416,-1.59324 1.82416,-1.59324c0,0 0.19363,0.96978 -1.19419,1.98615c-0.37863,0.27732 -2.21407,0.35414 -2.59009,0.66138c-1.50689,1.23142 -2.73806,2.6614 -3.12873,3.19992c-1.09023,1.50279 0.91718,2.41711 0.91718,2.41711z" fill="#414040" stroke-width="0"/><path d="M228.26106,154.2721l5.44299,-10.39772l7.02023,0.43781c0,0 -1.33857,2.47485 -2.12745,3.93343c-0.19869,0.36737 11.75548,0.20949 12.00242,0.92587c0.45818,1.32913 -5.61654,4.20709 -6.11266,5.1244c-0.56721,1.04868 -9.23203,0.12927 -9.23203,0.12927z" fill="#303030" stroke-width="0"/><path d="M228.17487,153.88466l5.21393,-9.58789c0,0 2.76952,1.74149 2.62119,2.71523c-0.26986,1.77176 -2.70233,7.25515 -2.70233,7.25515z" fill="#252525" stroke-width="0"/><path d="M379.9049,212.281l0.44458,-2.91873l5.90537,-2.08695l-1.66856,2.73228c0,0 -1.27903,1.15585 -2.10234,1.55566c-0.72446,0.35183 -2.57903,0.71768 -2.57903,0.71768z" fill="#383838" stroke-width="0"/><g><g fill="#4b4b4b" stroke-width="0"><g data-paper-data="{&quot;origPos&quot;:null}"><g data-paper-data="{&quot;origPos&quot;:null}"><path d="M446.07411,223.74658l0.34223,-2.24686l3.70725,0.56467l-0.34223,2.24686z" data-paper-data="{&quot;origPos&quot;:null}"/><path d="M439.91248,222.69312l0.34223,-2.24686l3.70724,0.56467l-0.34223,2.24685z" data-paper-data="{&quot;origPos&quot;:null}"/></g><g data-paper-data="{&quot;origPos&quot;:null}"><path d="M458.41448,225.74125l0.34223,-2.24686l3.70725,0.56467l-0.34223,2.24685z" data-paper-data="{&quot;origPos&quot;:null}"/><path d="M452.25283,224.68776l0.34223,-2.24685l3.70724,0.56467l-0.34223,2.24686z" data-paper-data="{&quot;origPos&quot;:null}"/></g></g><g data-paper-data="{&quot;origPos&quot;:null,&quot;index&quot;:null}"><g data-paper-data="{&quot;origPos&quot;:null}"><path d="M477.43426,228.40842l0.34223,-2.24686l3.70725,0.56467l-0.34223,2.24685z" data-paper-data="{&quot;origPos&quot;:null}"/><path d="M483.63011,229.23719l0.34222,-2.24685l3.70725,0.56467l-0.34223,2.24684z" data-paper-data="{&quot;origPos&quot;:null}"/></g><g data-paper-data="{&quot;origPos&quot;:null}"><path d="M465.05969,226.63844l0.34223,-2.24686l3.70724,0.56467l-0.34222,2.24685z" data-paper-data="{&quot;origPos&quot;:null}"/><path d="M471.25554,227.46728l0.34223,-2.24685l3.70725,0.56467l-0.34223,2.24685z" data-paper-data="{&quot;origPos&quot;:null}"/></g></g></g><path d="M405.08108,209.16237l2.04958,-13.45591l83.5108,12.72026l-2.04958,13.45591z" data-paper-data="{&quot;origPos&quot;:null}" fill="#444444" stroke-width="0"/><path d="M404.46737,213.84557l0.72015,-4.72792l83.26535,12.68286l-0.72015,4.72793z" data-paper-data="{&quot;origPos&quot;:null}" fill="#414141" stroke-width="0"/><path d="M404.28733,215.25882l0.2436,-1.59919l83.25476,12.68126l-0.24359,1.59919z" data-paper-data="{&quot;origPos&quot;:null}" fill="#3f3f3f" stroke-width="0"/><g stroke-width="0"><g data-paper-data="{&quot;origPos&quot;:null}" fill="#5a5a5a"><g data-paper-data="{&quot;origPos&quot;:null}"><path d="M447.84737,215.75679l2.07049,-13.59322l3.5307,0.53779l-2.07049,13.59322z" data-paper-data="{&quot;origPos&quot;:null}"/></g><g data-paper-data="{&quot;origPos&quot;:null}"><path d="M453.84958,216.67103l2.07049,-13.59322l3.53071,0.53779l-2.07049,13.59322z" data-paper-data="{&quot;origPos&quot;:null}"/><path d="M460.02832,217.61215l2.0705,-13.59323l3.5307,0.53779l-2.07049,13.59322z" data-paper-data="{&quot;origPos&quot;:null}"/></g></g><g data-paper-data="{&quot;origPos&quot;:null}" fill="#5a5a5a"><g data-paper-data="{&quot;origPos&quot;:null}"><path d="M466.56012,218.60707l2.07049,-13.59322l3.5307,0.53779l-2.07049,13.59323z" data-paper-data="{&quot;origPos&quot;:null}"/><path d="M472.73884,219.54822l2.07049,-13.59322l3.53071,0.53779l-2.0705,13.59323z" data-paper-data="{&quot;origPos&quot;:null}"/></g><g data-paper-data="{&quot;origPos&quot;:null}"><path d="M478.74107,220.46247l2.0705,-13.59323l3.5307,0.53779l-2.0705,13.59323z" data-paper-data="{&quot;origPos&quot;:null}"/><path d="M484.9198,221.40359l2.0705,-13.59323l3.5307,0.53779l-2.07049,13.59322z" data-paper-data="{&quot;origPos&quot;:null}"/></g></g><path d="M451.43874,216.3038l-1.15957,1.77666l-5.18809,-0.74665l1.33741,-9.70576l3.43118,-5.47341l-2.00233,13.60361z" fill="#3a3a3a"/><path d="M457.43852,217.21767l-1.15957,1.77667l-5.1881,-0.74666l1.33742,-9.70576l3.43118,-5.4734l-2.00233,13.6036z" fill="#3a3a3a"/><path d="M463.57461,218.15234l-1.15957,1.77667l-5.1881,-0.74665l1.33741,-9.70576l3.43118,-5.4734l-2.00233,13.60361z" fill="#3a3a3a"/><path d="M470.18799,219.15969l-1.15957,1.77667l-5.1881,-0.74665l1.33741,-9.70576l3.43118,-5.4734l-2.00233,13.60361z" fill="#3a3a3a"/><path d="M476.39231,220.10471l-1.15957,1.77667l-5.1881,-0.74665l1.33741,-9.70576l3.43118,-5.4734l-2.00233,13.6036z" fill="#3a3a3a"/><path d="M482.32387,221.00819l-1.15957,1.77666l-5.18809,-0.74665l1.33741,-9.70576l3.43118,-5.4734l-2.00233,13.60361z" fill="#3a3a3a"/><path d="M488.53601,221.95441l-1.15957,1.77666l-5.1881,-0.74665l1.33742,-9.70576l3.43118,-5.47341l-2.00233,13.60361z" fill="#3a3a3a"/></g><g stroke-width="0"><g data-paper-data="{&quot;origPos&quot;:null}" fill="#5a5a5a"><g data-paper-data="{&quot;origPos&quot;:null}"><path d="M405.11125,209.24727l2.0705,-13.59323l3.53071,0.53779l-2.07049,13.59322z" data-paper-data="{&quot;origPos&quot;:null}"/></g><g data-paper-data="{&quot;origPos&quot;:null}"><path d="M411.11342,210.16153l2.07049,-13.59322l3.5307,0.53779l-2.07049,13.59322z" data-paper-data="{&quot;origPos&quot;:null}"/><path d="M417.29215,211.10266l2.07049,-13.59322l3.53071,0.53779l-2.0705,13.59323z" data-paper-data="{&quot;origPos&quot;:null}"/></g></g><g data-paper-data="{&quot;origPos&quot;:null}" fill="#5a5a5a"><g data-paper-data="{&quot;origPos&quot;:null}"><path d="M423.82394,212.09756l2.0705,-13.59323l3.5307,0.5378l-2.07049,13.59322z" data-paper-data="{&quot;origPos&quot;:null}"/><path d="M430.00278,213.03872l2.07049,-13.59322l3.53071,0.53779l-2.0705,13.59323z" data-paper-data="{&quot;origPos&quot;:null}"/></g><g data-paper-data="{&quot;origPos&quot;:null}"><path d="M436.00497,213.95295l2.07049,-13.59322l3.53071,0.53779l-2.0705,13.59323z" data-paper-data="{&quot;origPos&quot;:null}"/><path d="M442.1837,214.89411l2.0705,-13.59323l3.53071,0.53779l-2.07049,13.59323z" data-paper-data="{&quot;origPos&quot;:null}"/></g></g><path d="M408.70256,209.79428l-1.15957,1.77667l-2.70513,-0.36846l0.28334,-1.95376z" fill="#3a3a3a"/><path d="M414.70236,210.70818l-1.15957,1.77667l-5.1881,-0.74665l1.33742,-9.70576l3.43118,-5.4734l-2.00233,13.60361z" fill="#3a3a3a"/><path d="M420.83843,211.64281l-1.15957,1.77666l-5.1881,-0.74665l1.33741,-9.70575l3.43118,-5.47341l-2.00233,13.60361z" fill="#3a3a3a"/><path d="M427.45181,212.65013l-1.15957,1.77666l-5.1881,-0.74665l1.33742,-9.70576l3.43118,-5.4734l-2.00233,13.60361z" fill="#3a3a3a"/><path d="M433.65619,213.59521l-1.15957,1.77666l-5.18809,-0.74665l1.33741,-9.70576l3.43118,-5.4734l-2.00233,13.60361z" fill="#3a3a3a"/><path d="M439.58776,214.49868l-1.15957,1.77666l-5.18809,-0.74665l1.33741,-9.70576l3.43118,-5.47341l-2.00233,13.60361z" fill="#3a3a3a"/><path d="M445.79991,215.44495l-1.15957,1.77667l-5.18809,-0.74665l1.33741,-9.70576l3.43118,-5.4734l-2.00233,13.60361z" fill="#3a3a3a"/></g><g><g data-paper-data="{&quot;origPos&quot;:null}"><g data-paper-data="{&quot;origPos&quot;:null}" fill="none" stroke-width="1" font-family="sans-serif" font-weight="normal" font-size="12" text-anchor="start"/><g data-paper-data="{&quot;origPos&quot;:null}" fill="#4b4b4b" stroke-width="0"><path d="M410.22282,218.47854l0.34223,-2.24686l3.70724,0.56467l-0.34222,2.24685z" data-paper-data="{&quot;origPos&quot;:null}"/><path d="M404.06117,217.42507l0.34223,-2.24686l3.70724,0.56467l-0.34223,2.24686z" data-paper-data="{&quot;origPos&quot;:null}"/></g></g><g data-paper-data="{&quot;origPos&quot;:null,&quot;index&quot;:null}" fill="#4b4b4b" stroke-width="0"><g data-paper-data="{&quot;origPos&quot;:null}"><path d="M429.24267,221.1457l0.34223,-2.24685l3.70725,0.56467l-0.34223,2.24685z" data-paper-data="{&quot;origPos&quot;:null}"/><path d="M435.43848,221.97447l0.34223,-2.24684l3.70725,0.56467l-0.34223,2.24685z" data-paper-data="{&quot;origPos&quot;:null}"/></g><g data-paper-data="{&quot;origPos&quot;:null}"><path d="M416.86798,219.37578l0.34223,-2.24686l3.70725,0.56467l-0.34223,2.24685z" data-paper-data="{&quot;origPos&quot;:null}"/><path d="M423.06384,220.20452l0.34223,-2.24686l3.70725,0.56467l-0.34223,2.24686z" data-paper-data="{&quot;origPos&quot;:null}"/></g></g></g></g><path d="M241.03653,154.60569l1.6625,-4.0105c0,0 5.03243,-2.41725 8.54591,-2.03383c4.01658,0.43834 33.64001,4.97579 33.64001,4.97579c0,0 0.37201,1.95404 0.1364,3.1494c-0.30356,1.54006 -2.85698,4.2511 -2.85698,4.2511z" fill="#242424" stroke-width="0"/><path d="M266.21232,154.58646l0.47439,-3.1144l17.79653,2.71073l-0.47439,3.1144z" fill="#313131" stroke-width="0"/><path d="M262.66538,155.9991l0.09822,-0.6448c0,0 1.21396,-0.87837 2.22538,-0.72431c0.96041,0.1463 3.05194,0.94528 5.45127,1.476c4.57071,1.011 10.11965,1.95905 10.11965,1.95905l-0.09822,0.6448c0,0 -5.36606,-0.81941 -9.87246,-1.82007c-2.4589,-0.54599 -4.61554,-1.45003 -5.61184,-1.60179c-1.0472,-0.15951 -2.31196,0.71113 -2.31196,0.71113z" fill="#616161" stroke-width="0"/><path d="M291.85493,144.55307l12.09279,4.90347l29.69939,9.89309c0,0 0.69101,0.33202 -7.20555,-1.60741c-2.68629,-0.65976 -12.96103,-3.85239 -21.79214,-7.12229c-2.38959,-0.88479 -15.0535,-6.29424 -15.0535,-6.29424z" fill="#df8cb7" stroke-width="0"/><path d="M111.87828,123.54863l0.89341,-5.86545c0,0 5.96827,-0.86409 9.72869,-0.2913c3.07853,0.46891 10.93638,5.21219 10.93638,5.21219l-1.98104,12.11052z" fill="#626061" stroke-width="0"/><path d="M225.11082,150.89698l3.37564,3.04908l12.30674,0.53611l50.16633,7.6413l-0.16426,1.07861c0,0 -37.61029,-5.87567 -49.41749,-7.40888c-3.24165,-0.42094 -12.939,-1.16885 -12.939,-1.16885z" fill="#ffa6d4" stroke-width="0"/><path d="M99.402,186.31595l1.07962,-7.08784l25.66478,-12.9128l-3.64722,13.27101l-15.23893,7.92663z" fill="#3f3d3e" stroke-width="0"/><path d="M98.55245,181.06803c0,0 3.14467,-19.39952 5.38424,-28.75224c2.52771,-10.556 9.02242,-31.41196 9.02242,-31.41196c0,0 8.54486,1.11 11.83824,3.27646c2.81869,1.85416 6.72056,8.9318 6.72056,8.9318l-5.05226,33.16898c0,0 -13.78429,11.75653 -17.13464,13.53137c-5.15342,2.73003 -10.77853,1.2556 -10.77853,1.2556z" fill="#555354" stroke-width="0"/><path d="M111.2141,131.35873c0,0 -0.62017,-6.15648 1.82855,-8.51184c2.44873,-2.35535 6.90184,-2.7057 9.43292,-2.32018c2.01911,0.30755 6.18574,1.02184 8.355,5.8622c2.16929,4.84033 -0.73285,11.14528 -0.73285,11.14528c0,0 -4.66137,-11.23369 -7.12452,-12.03923c-3.47576,-1.13666 -11.75914,5.86377 -11.75914,5.86377z" fill="#6f6b6c" stroke-width="0"/><path d="M96.38238,185.6655c0,0 5.61953,-25.50717 7.34278,-36.82048c1.79463,-11.78192 4.70255,-32.29635 4.70255,-32.29635c0,0 1.23984,-0.46152 2.2688,-0.30479c0.94086,0.14329 2.39303,1.0149 2.39303,1.0149c0,0 -3.09634,18.90457 -4.70676,29.47742c-1.87107,12.28379 -8.6098,39.44573 -8.6098,39.44573z" fill="#333232" stroke-width="0"/><path d="M95.8897,186.03922l3.29649,-14.37579c0,0 0.90931,1.03766 1.50773,1.0897c0.75562,0.06569 2.62996,-1.1029 2.62996,-1.1029l-3.51032,14.98662z" fill="#2e2d2d" stroke-width="0"/><path d="M126.81818,154.07217c-1.22947,8.07152 -6.61185,16.0196 -11.36817,18.2563c-3.95025,1.85767 -12.381,7.40933 -11.15156,-0.66217c0.26082,-1.71235 4.07039,-13.14844 5.25595,-20.07878c1.56785,-9.16524 0.69093,-14.33716 2.0642,-16.99227c2.48319,-4.80082 8.16623,-5.43175 10.35548,-5.09828c4.31547,0.65734 6.07354,16.50369 4.8441,24.57521z" fill="#585758" stroke-width="0"/><path d="M158.76633,173.18392l-0.32369,-1.81013c0,0 8.05254,-0.13956 14.07481,0.28802c8.47797,0.60192 31.99499,2.98288 31.99499,2.98288l1.58251,1.53703c0,0 -25.06832,-2.1793 -33.79831,-2.73225c-2.56388,-0.16239 -13.53033,-0.26551 -13.53033,-0.26551z" fill="#585657" stroke-width="0"/><path d="M150.95539,185.34693l7.19227,-12.75379l7.30287,0.15074c0,0 -2.36781,4.00258 -2.39619,4.76212c-0.13573,3.62928 -0.78199,27.7743 -0.78199,27.7743c0,0 -1.52694,0.21292 -2.42032,-1.82034c-1.60302,-3.64827 -2.3843,-10.70845 -3.79979,-13.05095c-1.22299,-2.02392 -5.09681,-5.06207 -5.09681,-5.06207z" fill="#5a5759" stroke-width="0"/><path d="M167.98049,156.78081l4.56255,-10.76906l2.32347,0.2415l-5.69447,10.82144z" fill="#a5a0a2" stroke-width="0"/><path d="M174.85592,156.73209l0.21122,-1.38676l26.1941,3.98985l-0.21121,1.38676z" fill="#494748" stroke-width="0"/><path d="M175.22364,153.78253l0.21122,-1.38676l26.1941,3.98985l-0.21122,1.38676z" fill="#494748" stroke-width="0"/><path d="M152.63762,173.00844l3.03248,-19.9087l13.55577,-7.66237l4.83628,0.4213l-22.53712,39.87451l-5.24557,-2.82548z" fill="#dbd5d8" stroke-width="0"/><path d="M124.64712,180.79679l1.61938,-11.68016l26.46946,3.23321c0,0 -0.05563,2.55855 -0.30459,3.32833c-0.62053,1.91891 -3.64963,8.47536 -3.64963,8.47536z" fill="#ccc6c9" stroke-width="0"/><path d="M130.10895,170.10698l0.04755,-0.31219l22.68761,2.57728l-2.75404,0.77846c0,0 -4.30038,-0.46668 -6.97344,-0.90595c-3.66011,-0.60147 -13.00771,-2.13758 -13.00771,-2.13758z" fill="#d8d1d5" stroke-width="0"/><path d="M134.147,166.94213l2.55991,-16.80614l15.94114,2.42813l-2.55991,16.80614z" fill="#a39999" stroke-width="0"/><path d="M124.34817,180.92297l1.71049,-11.22978c0,0 7.77439,7.64451 11.65973,10.60392c3.88536,2.95941 10.3546,3.66156 10.3546,3.66156z" fill="#b4afb1" stroke-width="0"/><path d="M156.69785,191.96277c0,0 2.83825,1.48482 3.94352,1.50779c0.67897,0.01408 2.05736,-1.38321 2.05736,-1.38321l0.27335,9.2195l-0.63171,4.14728c0,0 -1.96777,0.0153 -2.84338,-2.73044c-0.72244,-2.26546 -2.79918,-10.76085 -2.79918,-10.76085z" fill="#504e4f" stroke-width="0"/><path d="M151.17262,185.94276l20.58246,-39.08995l1.69282,0.46536l-20.54286,39.51097z" fill="#858183" stroke-width="0"/><path d="M140.6655,143.11622l1.74602,-1.40357c0,0 27.19995,3.49173 39.46874,5.36051c10.64847,1.62198 31.52754,5.15931 31.52754,5.15931l0.23111,1.99898c0,0 -20.94815,-3.90492 -32.1723,-5.61454c-12.81654,-1.95219 -40.80111,-5.50066 -40.80111,-5.50066z" fill="#918b8e" stroke-width="0"/><path d="M141.85746,142.05286l2.29314,-1.61451c0,0 25.64629,3.54936 37.91506,5.41811c10.64846,1.62198 31.52754,5.15931 31.52754,5.15931l0.2311,1.99898c0,0 -20.94814,-3.90492 -32.1723,-5.61455c-12.81654,-1.95219 -39.79453,-5.34737 -39.79453,-5.34737z" fill="#a59fa2" stroke-width="0"/><path d="M202.59944,172.3308l-1.04785,-5.90778c0,0 0.39068,-1.15942 0.73683,-1.22082c0.30499,-0.0541 1.23238,0.8715 1.23238,0.8715l1.04784,5.90778c0,0 -0.40516,0.82605 -0.71084,0.88025c-0.3458,0.06134 -1.25842,-0.53097 -1.25842,-0.53097z" fill="#494242" stroke-width="0"/><path d="M162.38523,168.88462l4.93084,-8.84404l3.84141,0.58511l-4.93084,8.84404z" fill="#9c989a" stroke-width="0"/><path d="M174.52015,152.75182l1.97537,-0.67822l24.15746,3.6979l1.852,1.24297z" fill="#757274" stroke-width="0"/><path d="M174.19007,155.54523l1.97537,-0.67823l24.15745,3.69792l1.85201,1.24296z" fill="#757274" stroke-width="0"/><path d="M122.10312,179.58669l10.44499,-57.23755l1.81096,0.86325l-9.9661,57.71625z" fill="#686666" stroke-width="0"/><path d="M121.9009,179.82932l3.09495,-15.97182l1.68997,4.1199l-2.43565,13.09258z" fill="#535252" stroke-width="0"/><path d="M155.74072,161.84522c0,0 2.453,-1.99887 2.59557,-2.93489c0.13992,-0.91853 -1.748,-2.62964 -1.748,-2.62964c0,0 2.86698,1.11412 2.50973,2.76749c-0.27212,1.25935 -1.64034,3.26521 -1.89272,4.34185c-0.71763,3.0613 -2.50477,10.22119 -2.50477,10.22119z" fill="#c4bec1" stroke-width="0"/><path d="M163.61702,161.11123l3.42508,-9.79134l3.17546,-3.92082l-4.06406,9.04941z" fill="#aca7a9" stroke-width="0"/></g></g><g stroke-width="0"><path d="M284.52041,151.37562l3.02714,-2.9065c0,0 2.00311,-1.14777 2.77728,-0.7517c0.88266,0.45159 2.2359,3.31658 2.2359,3.31658l-1.15043,3.95379c0,0 -4.2313,-0.65215 -5.46305,-0.97458c-0.5553,-0.14537 -1.4268,-2.63758 -1.4268,-2.63758z" fill="#c0c0c0"/><path d="M240.63766,154.45389c0,0 0.25923,-2.87373 1.47776,-3.84012c1.5271,-1.21108 7.87082,-2.48253 7.87082,-2.48253l-1.4158,4.57608l-0.43987,2.88792z" fill="#838383"/><path d="M240.47865,154.35444l9.13887,-6.17556l37.13403,5.65621l-1.12654,7.39598z" fill="#999999"/><path d="M241.5651,153.85594l6.96903,-4.84698l33.38722,5.08549l-0.87953,5.77451c0,0 -4.04097,-0.61552 -9.23922,-1.40727c-3.3797,-0.5148 -7.08864,-2.15399 -10.65417,-2.6971c-3.82493,-0.58262 -7.46075,-0.06214 -9.60914,-0.38938c-4.20467,-0.64045 -9.97416,-1.51927 -9.97416,-1.51927z" fill="#d952b3"/><path d="M245.01784,154.37963l9.16238,-4.57577l12.32198,1.87686c0,0 -7.57919,0.7749 -10.05996,1.32213c-2.63365,0.58093 -6.12701,2.18366 -6.12701,2.18366z" fill="#a5899d"/><path d="M252.93285,155.4712c0,0 5.17353,-0.19531 7.60262,0.17471c3.10376,0.47276 9.497,2.4299 9.497,2.4299l-9.49349,-1.7851z" fill="#adadad"/><path d="M240.58475,154.35222l8.25288,-5.57246l34.56796,5.26538l-0.10369,0.68073c0,0 -29.93158,-4.55913 -33.83316,-5.15344c-0.81606,-0.12429 -8.88395,4.77982 -8.88395,4.77982z" fill="#8a8a8a"/><path d="M286.27523,167.61949l1.46899,-9.64409l1.72782,-7.02178c0,0 1.10288,0.64331 1.56562,1.28379c0.46275,0.64047 0.67199,1.81318 0.67199,1.81318l-3.44435,13.87206z" fill="#9e9e9e"/><path d="M281.52287,162.61605c0,0 -0.5814,-2.23798 -0.47724,-3.82958c0.14023,-2.14326 1.81698,-7.4697 1.81698,-7.4697l1.96829,-0.02931c0,0 0.63099,0.89702 1.1259,0.82155c0.68232,-0.10408 2.58942,-1.38827 2.58942,-1.38827l-2.42696,12.59546z" fill="#9c9c9c"/><path d="M281.8146,164.51226c-0.60716,-1.20965 -0.16271,-2.53093 -0.16271,-2.53093l5.90631,-6.38377c0,0 0.79292,4.04936 0.6549,4.95536c-0.39235,2.57583 -0.11253,7.42292 -0.11253,7.42292c0,0 -2.95873,-0.36597 -3.91968,-0.95602c-1.15257,-0.70769 -1.75906,-1.29792 -2.36625,-2.50759z" fill="#888888"/><path d="M283.69161,164.01499c-0.67585,-2.12574 -1.00279,-6.69009 1.43248,-10.43283c2.43531,-3.74275 4.5012,-1.27231 4.5012,-1.27231c0,0 0.32901,4.5241 -0.01926,6.8106c-0.31724,2.08281 -1.98597,6.35436 -1.98597,6.35436c0,0 -3.25254,0.66591 -3.92839,-1.45984z" fill="#b4b4b4"/><path d="M288.96472,157.03413c-0.21248,1.39499 -5.27583,0.70203 -5.06337,-0.69292c0.21248,-1.39499 4.04983,-6.275 4.85297,-6.15263c0.31105,0.04738 0.93223,0.24502 0.96676,1.32321c0.0546,1.70572 -0.6262,4.66765 -0.7564,5.52235z" fill="#bbbbbb"/></g><g stroke-width="0"><path d="M225.01786,150.86752c0,0 -5.04931,-5.74315 -4.76722,-7.5952c0.23032,-1.5122 6.21626,-0.72497 6.21626,-0.72497l7.44843,1.20719l-5.60137,10.0501z" fill="#f399c8"/><path d="M194.59259,147.89377c0,0 -0.64313,-2.21999 -0.22727,-3.24174c0.45893,-1.12757 3.03857,-4.38113 3.03857,-4.38113l22.80342,3.28559l7.72362,9.89907z" fill="#ee96c3"/></g></g><g stroke-width="0"><g><path d="M291.96241,142.77225l0.93084,-6.11132l47.27293,7.20055l-0.93084,6.11132z" fill="#61585b"/><path d="M292.28943,139.5411l0.49847,-3.27261l47.45267,7.22796l-0.49847,3.2726c0,0 -8.54234,-1.30117 -17.3175,-2.63779c-2.74363,-0.41789 -6.8293,0.49451 -9.36448,0.10832c-3.0146,-0.45919 -6.01927,-2.45159 -7.953,-2.74612c-5.79843,-0.88322 -12.81767,-1.95241 -12.81767,-1.95241z" fill="#494344"/><path d="M354.40642,142.32129l-6.37596,-20.12249l20.68071,3.15008l12.72673,18.9063c0,0 -5.85003,0.48601 -9.08411,0.25466c-4.99046,-0.35701 -17.94739,-2.18849 -17.94739,-2.18849z" fill="#5e555b"/><path d="M353.89124,145.71751l0.834,-5.47534c0,0 12.37705,0.41538 17.33082,0.3813c3.93141,-0.02703 6.79276,-0.17997 6.79276,-0.17997l4.8268,7.75402c0,0 -5.51197,0.77497 -9.67938,0.58926c-5.64667,-0.25167 -20.10497,-3.06923 -20.10497,-3.06923z" fill="url(#color-5)"/><path d="M346.33102,122.10056l0.60174,-3.95061l18.93314,2.88388l2.99316,4.49818z" fill="url(#color-6)"/><path d="M353.31035,145.65427l0.18964,-1.24489c0,0 15.44323,2.27501 20.79354,2.9205c4.00069,0.48267 8.60823,-0.41056 8.60823,-0.41056l0.70637,1.26554l-8.43876,0.79889z" fill="#312c30"/><g><path d="M255.03889,119.96278l1.11005,-8.79144l92.85433,14.14346l5.85458,12.30371z" fill="#8a6672"/><path d="M270.14189,130.6445c0,0 -2.93643,-4.09465 -5.48907,-5.9619c-2.55262,-1.86728 -9.56909,-2.69584 -9.56909,-2.69584l0.42518,-2.04639c0,0 12.14114,2.12891 19.07598,3.28156c16.56637,2.75341 79.89259,13.16762 79.89259,13.16762l2.59299,7.03773z" fill="#755761"/><path d="M272.58281,133.53593l-2.60065,-3.01782l86.66134,12.70514l0.72777,3.22751z" fill="#694e57"/><path d="M255.92641,111.53814l0.68199,-4.47735l89.87305,13.00216l2.95328,6.17636c0,0 2.22109,3.71484 -3.00108,2.89382c-1.64396,-0.25846 -10.1536,-4.96198 -11.80169,-5.22108c-15.87196,-2.49536 -78.70554,-12.37392 -78.70554,-12.37392z" fill="#916b77"/><path d="M256.84753,107.09732l0.26266,-2.51364l88.90451,13.40149l0.67305,2.52239z" fill="#9e7582"/><path d="M330.02512,118.93542c-7.87826,-1.85541 -71.6493,-12.61318 -71.6493,-12.61318l86.85229,13.22922l3.62554,8.07923c0,0 -10.95024,-6.83989 -18.82854,-8.6953z" fill="#b38f9a"/></g><path d="M303.10307,138.18186l1.38143,-9.06916l19.98175,3.04358l-1.38143,9.06917z" fill="#3a3336"/><path d="M304.39703,129.10357l0.93755,-1.39726l18.32704,2.79155l0.74466,1.65345z" fill="#4b4246"/><path d="M303.31682,137.70933l1.2314,-8.08435c0,0 0.25412,5.36528 2.71516,6.8592c2.46105,1.49392 15.47683,4.18368 15.47683,4.18368z" fill="#332c30"/><path d="M347.23762,124.48811l-2.9718,-6.52187c0,0 1.11168,-0.50506 1.70544,-0.41459c0.6638,0.10112 2.09073,0.99281 2.09073,0.99281l2.9718,6.52187z" fill="#757575"/><path d="M349.51062,129.62355l-4.27319,-9.36249l3.7962,0.57823l4.27319,9.36248z" fill="#5a5a5a"/><path d="M352.73604,136.63818l-4.27319,-9.36248l3.79619,0.57823l4.27319,9.36249z" fill="#505050"/><path d="M356.06918,143.90266c-0.72986,-1.59908 -3.5776,-7.83848 -3.5776,-7.83848l3.79619,0.57824l4.98349,11.20469c0,0 -2.113,0.21982 -3.04943,0.0622c-0.73047,-0.12296 -1.83081,-3.30158 -2.15262,-4.00668z" fill="#3b3b3b"/><path d="M253.12313,122.29909l2.81208,-18.46181l3.1447,0.479l-2.81208,18.46181z" fill="#443e42"/><path d="M234.22144,121.03742l0.21475,-5.96368l19.99792,3.04602l-0.89266,5.86041z" fill="url(#color-7)"/><path d="M234.34124,115.69718l1.63336,-10.7233l19.99792,3.04602l-1.63337,10.72331z" fill="#5e555b"/><path d="M235.95558,105.09872l1.41764,-3.99429l19.20701,2.92557l-0.62675,4.11477z" fill="url(#color-8)"/><path d="M306.05163,111.76495l0.92357,-6.06338l14.69033,3.31656l3.86012,5.3534z" fill="#5e555b"/><path d="M325.4721,114.72307l-3.81998,-5.61705c0,0 2.87781,1.13692 4.93031,2.45934c2.05252,1.32242 5.30454,4.13478 5.30454,4.13478z" fill="#776b73"/><path d="M302.88984,112.45223l3.35091,-0.74839l25.34828,3.59128l3.37533,2.04268z" fill="#6d6269"/></g><g><path d="M305.13095,134.47486c0.18805,-1.23461 0.86674,-2.30126 1.40596,-3.26058c0.75135,-1.33678 1.52585,-2.42031 2.93228,-3.06202c0.85909,-0.39199 2.04202,-0.60569 3.05588,-0.69439c0.67058,-0.05864 1.71858,-0.30373 2.41359,-0.19785c1.57552,0.23997 1.90163,0.37234 2.96355,1.03583c0.6397,0.3997 2.19282,1.09053 2.6205,1.83559c0.362,0.63056 0.68949,1.63994 0.92497,2.36327c0.40238,1.23614 0.91493,3.20024 0.70582,4.57304c-0.08837,0.58015 -0.77625,1.82924 -0.90298,2.33138c-0.40228,1.59405 -0.47975,2.09773 -1.84556,3.00591c-0.83014,0.55197 -2.40269,0.8666 -3.43699,1.12375c-1.07116,0.26633 -2.46283,0.93039 -3.62217,0.75382c-0.7825,-0.11918 -2.11372,-0.86311 -2.85126,-1.11323c-1.60011,-0.54262 -2.45575,-0.84939 -3.30182,-2.1316c-0.72553,-1.09952 -0.74253,-2.71887 -0.89818,-4.11586c-0.08174,-0.7339 -0.2801,-1.68224 -0.16362,-2.44706z" fill="#3a3a3a"/><path d="M305.87149,134.46767c0.1721,-1.12979 0.79318,-2.10587 1.28658,-2.98373c0.68756,-1.22328 1.39626,-2.21481 2.6833,-2.80205c0.78612,-0.35872 1.86867,-0.55425 2.79642,-0.63543c0.61366,-0.05368 1.57269,-0.27791 2.20863,-0.18106c1.44177,0.21962 1.74018,0.34071 2.71196,0.94787c0.58537,0.36573 2.00663,0.99795 2.39803,1.67969c0.33124,0.57706 0.63098,1.50074 0.84643,2.16262c0.36822,1.1312 0.83723,2.92854 0.6459,4.18474c-0.08087,0.53087 -0.71034,1.67392 -0.8263,2.13342c-0.36814,1.45871 -0.43903,1.91962 -1.68886,2.75068c-0.75966,0.50511 -2.1987,0.79298 -3.14516,1.02833c-0.98022,0.24371 -2.25374,0.85142 -3.31463,0.68984c-0.71604,-0.10905 -1.93424,-0.78982 -2.60917,-1.01868c-1.46425,-0.49654 -2.24724,-0.77727 -3.0215,-1.95061c-0.66393,-1.00619 -0.67945,-2.48804 -0.8219,-3.7664c-0.07481,-0.67159 -0.25631,-1.53941 -0.14973,-2.23926z" fill="#5a5a5a"/><path d="M318.60649,131.82583c-1.66238,-2.66651 -6.66758,-3.63181 -6.66758,-3.63181c0,0 2.00142,-0.24138 3.96789,0.06516c1.59287,0.24829 3.09242,0.84537 4.04284,2.30614c0.95118,1.46195 1.11701,2.98903 1.19041,4.4118c0.14393,2.78946 -0.64925,5.08906 -0.64925,5.08906c0,0 -0.22195,-5.57384 -1.88433,-8.24032z" fill="#6d6d6d"/><path d="M312.58458,135.98533c0.08666,-0.56916 0.61834,-0.96025 1.1875,-0.87358c0.56916,0.08666 0.96025,0.61834 0.87358,1.18751c-0.08666,0.56916 -0.61834,0.96025 -1.18751,0.87357c-0.56916,-0.08666 -0.96025,-0.61834 -0.87357,-1.18751z" fill="#272727"/><path d="M312.48584,136.10869c0.07952,-0.52203 0.56715,-0.88074 1.08916,-0.80123c0.52203,0.07952 0.88074,0.56715 0.80123,1.08916c-0.07952,0.52203 -0.56715,0.88074 -1.08915,0.80123c-0.52203,-0.07952 -0.88074,-0.56715 -0.80123,-1.08915z" fill="#131313"/></g></g></g></g></g><path d="M208.08453,231.36188c0.23861,-1.5666 2.44738,-44.34781 3.18935,-45.92928c1.00177,-2.13527 9.18284,0.47706 12.34023,-0.56719c9.67003,-3.19822 20.06189,-6.25535 20.06189,-6.25535c0,0 13.82052,2.6923 18.00872,3.33026c3.13201,0.47709 65.03012,1.31709 64.20883,11.63261c-1.11397,13.99175 -42.38082,-4.14753 -44.2075,7.84478c-0.46244,3.0359 1.89037,3.59203 0.85722,6.61817c-0.24798,0.72629 -3.35273,5.492 -3.82688,7.11516c-0.75271,2.57657 1.90218,7.02966 -1.83693,9.59513c-2.9806,2.04505 -1.82613,7.29561 -2.64063,8.40119c-5.61307,7.61859 -13.27407,2.60339 -22.18417,1.24622c-10.56419,-1.60912 -26.49762,-0.2698 -35.5879,-2.90602c-3.92392,-1.13799 -9.07674,4.43452 -8.38214,-0.12562z" fill="#86c8f5" stroke-width="0"/></g></g></svg>