<svg version="1.1" xmlns="http://www.w3.org/2000/svg" xmlns:xlink="http://www.w3.org/1999/xlink" width="467.66096" height="160.1216" viewBox="0,0,467.66096,160.1216"><defs><linearGradient x1="460.4744" y1="179.38362" x2="460.53881" y2="184.1948" gradientUnits="userSpaceOnUse" id="color-1"><stop offset="0" stop-color="#1f1d20"/><stop offset="1" stop-color="#202022"/></linearGradient><linearGradient x1="460.84895" y1="174.52312" x2="460.92305" y2="180.05884" gradientUnits="userSpaceOnUse" id="color-2"><stop offset="0" stop-color="#302d31"/><stop offset="1" stop-color="#1f1e20"/></linearGradient><linearGradient x1="126.73787" y1="227.06987" x2="126.78324" y2="230.4596" gradientUnits="userSpaceOnUse" id="color-3"><stop offset="0" stop-color="#585758"/><stop offset="1" stop-color="#575758"/></linearGradient><linearGradient x1="113.76073" y1="237.32299" x2="113.79634" y2="239.98411" gradientUnits="userSpaceOnUse" id="color-4"><stop offset="0" stop-color="#363536"/><stop offset="1" stop-color="#353536"/></linearGradient><linearGradient x1="255.87224" y1="142.61078" x2="255.94636" y2="148.14879" gradientUnits="userSpaceOnUse" id="color-5"><stop offset="0" stop-color="#5e555b"/><stop offset="1" stop-color="#2b2629"/></linearGradient><linearGradient x1="245.83892" y1="122.07629" x2="245.8924" y2="126.07211" gradientUnits="userSpaceOnUse" id="color-6"><stop offset="0" stop-color="#72676e"/><stop offset="1" stop-color="#5e555b"/></linearGradient><linearGradient x1="133.07835" y1="137.48576" x2="133.15769" y2="143.41324" gradientUnits="userSpaceOnUse" id="color-7"><stop offset="0" stop-color="#5e555b"/><stop offset="1" stop-color="#4d454a"/></linearGradient><linearGradient x1="132.8876" y1="123.23475" x2="132.9433" y2="127.39659" gradientUnits="userSpaceOnUse" id="color-8"><stop offset="0" stop-color="#74686f"/><stop offset="1" stop-color="#5e555b"/></linearGradient></defs><g transform="translate(2.08605,-116.49363)"><g data-paper-data="{&quot;isPaintingLayer&quot;:true}" fill-rule="nonzero" stroke="none" stroke-linecap="butt" stroke-linejoin="miter" stroke-miterlimit="10" stroke-dasharray="" stroke-dashoffset="0" style="mix-blend-mode: normal"><path d="M391.34718,185.26002c0.46528,8.66101 -4.34864,14.11168 -24.48001,15.19318c-7.46716,0.40114 -20.41064,-0.47891 -26.2286,0.53955c-4.32393,0.75692 -7.90771,3.16671 -10.75808,1.43159c-3.65412,-2.22437 -4.59721,-22.05343 -4.76168,-25.11429c-0.46528,-8.66101 8.80343,-4.69249 28.93481,-5.77399c20.13139,-1.08151 36.82828,5.06291 37.29356,13.72395z" fill="#86c8f5" stroke-width="0"/><path d="M392.52395,170.71954c4.94963,0.81836 5.26725,7.64303 3.46775,15.48414c-1.79951,7.84113 -6.26962,13.62162 -9.98429,12.9111c-3.71467,-0.71052 -5.26724,-7.64303 -3.46774,-15.48414c1.79951,-7.84113 4.28196,-13.85388 9.98428,-12.9111z" data-paper-data="{&quot;index&quot;:null}" fill="#86c8f5" stroke-width="0"/><path d="M367.37557,182.94037c1.91128,-7.81465 3.9465,-12.00372 9.63476,-10.9796c4.93745,0.88894 5.69041,5.92986 3.77916,13.7445c-1.91128,7.81466 -6.46348,13.53071 -10.16762,12.76722c-3.70414,-0.76349 -5.15757,-7.71744 -3.24631,-15.53207z" data-paper-data="{&quot;index&quot;:null}" fill="#86c8f5" stroke-width="0"/><path d="M354.40328,187.76505c1.91128,-7.81465 4.73006,-14.97747 10.41831,-13.95333c4.93745,0.88894 4.90687,8.90355 2.9956,16.71817c-1.91128,7.81465 -6.05624,9.40456 -9.76041,8.64107c-3.70415,-0.7635 -5.56478,-3.59128 -3.65351,-11.40592z" data-paper-data="{&quot;index&quot;:null}" fill="#86c8f5" stroke-width="0"/><path d="M352.36646,176.55636c4.93745,0.88894 5.69041,5.92986 3.77916,13.7445c-1.91128,7.81465 -6.05624,9.40457 -9.76041,8.64107c-3.70415,-0.7635 -5.56478,-3.59129 -3.65351,-11.40593c1.91128,-7.81465 3.9465,-12.00373 9.63476,-10.9796z" data-paper-data="{&quot;index&quot;:null}" fill="#86c8f5" stroke-width="0"/><g><path d="M375.40011,206.97987c0.11609,8.67275 -4.91346,13.92508 -25.07205,14.19493c-7.47726,0.1001 -20.37481,-1.30054 -26.22906,-0.51723c-4.35091,0.58217 -8.02886,2.84564 -10.80701,0.99717c-3.56158,-2.36973 -3.7053,-22.22069 -3.74633,-25.28569c-0.11609,-8.67275 8.9853,-4.33414 29.1439,-4.60397c20.1586,-0.26984 36.59448,6.54207 36.71055,15.21481z" fill="#86c8f5" stroke-width="0"/><g><g stroke-width="0"><path d="M187.9194,211.25806l-10.43464,-15.20696l25.56526,-0.93246c0,0 -1.02037,5.843 -1.18411,8.54395c-0.1584,2.61272 0.2171,7.40588 0.2171,7.40588z" fill="#7f7d7e"/><path d="M188.02041,211.45345l-3.7143,-5.5577c0,0 2.40595,3.5232 5.65001,4.09451c2.33605,0.4114 4.21787,0.07626 6.90339,0.36114c2.68551,0.28488 5.1278,0.91512 5.1278,0.91512z" fill="#6c6a6b"/></g><g><g><g><path d="M457.54798,184.23483l-2.12321,-4.7836c0,0 6.01315,1.57752 8.62224,2.43553c2.6091,0.85803 1.08596,2.01463 1.08596,2.01463z" fill="url(#color-1)" stroke-width="0"/><path d="M464.43586,174.67474c0,0 1.51067,2.30779 -1.07453,3.23533c-2.5852,0.92756 -5.4716,2.18937 -5.4716,2.18937l-1.04466,-5.52275z" data-paper-data="{&quot;index&quot;:null}" fill="url(#color-2)" stroke-width="0"/><path d="M447.9309,184.35898l-0.02808,-2.09817l14.77123,-0.19772c0,0 1.26809,0.7774 1.76078,1.1371c0.44288,0.32334 -0.72257,0.94754 -0.72257,0.94754z" fill="#444444" stroke-width="NaN"/><path d="M447.93843,182.40376l-1.21404,-1.73779l12.61454,-0.16886l3.41569,1.5965c0,0 -4.21431,0.29445 -6.51866,0.34267c-2.59886,0.0544 -8.29751,-0.03253 -8.29751,-0.03253z" fill="#535353" stroke-width="0"/><path d="M446.6141,180.80418l-0.33327,-0.6356l11.47277,-0.15358l1.69238,0.5031z" fill="#363636" stroke-width="0"/><path d="M447.9309,184.35898l-0.01524,-1.13825c0,0 6.45911,0.36719 9.33862,0.32866c2.44017,-0.03266 6.83964,-0.54521 6.83964,-0.54521c0,0 0.87024,0.45062 1.12026,0.65018c0.21088,0.16833 -0.24232,0.47652 -0.24232,0.47652c0,0 -4.7269,0.4678 -7.04044,0.49877c-3.12128,0.04178 -10.00051,-0.27066 -10.00051,-0.27066z" fill="#3a3a3a" stroke-width="NaN"/><path d="M446.60195,180.18256l-0.5653,-0.87625l13.6404,-0.18258l-1.80915,0.94192z" fill="#242424" stroke-width="0"/><path d="M445.23121,179.50634l-0.02214,-1.65416c0,0 8.08985,-0.31449 11.08533,-0.3546c2.04085,-0.02732 5.14972,0.13728 5.14972,0.13728l-1.79355,1.51351z" fill="#3a3a3a" stroke-width="0"/><path d="M445.08011,177.89646l-0.02733,-2.04237c0,0 7.64817,-0.43231 10.96215,-0.47666c2.86772,-0.03839 7.77724,0.22583 7.77724,0.22583l-2.39065,2.07473c0,0 -3.6557,-0.03355 -5.89991,-0.0035c-2.98311,0.03993 -10.4215,0.22198 -10.4215,0.22198z" fill="#444444" stroke-width="0"/><path d="M445.01074,175.93976l-0.01139,-0.85099c0,0 7.87147,-0.22909 11.46835,-0.27722c2.5046,-0.03353 8.04823,0.01599 8.04823,0.01599l-0.85358,0.86258c0,0 -5.05741,-0.22099 -8.02235,-0.18131c-3.26662,0.04372 -10.62929,0.43098 -10.62929,0.43098z" fill="#535353" stroke-width="0"/><path d="M444.87096,175.17562l-0.00455,-0.34041c0,0 7.66887,-0.60974 11.12889,-0.65605c2.99151,-0.04005 8.4309,0.39424 8.4309,0.39424l0.04215,0.3399c0,0 -6.01056,-0.08452 -9.2553,-0.04107c-3.28715,0.04399 -10.34206,0.30339 -10.34206,0.30339z" fill="#4e4e4e" stroke-width="0"/></g><g stroke-width="0"><g><g><g><path d="M442.07114,183.94937l-4.7576,-13.10114l0.52992,-1.7286c0,0 3.51772,3.18242 4.47334,5.66022c0.5188,1.3452 1.20875,9.15003 1.20875,9.15003z" fill="#383638"/><path d="M443.11295,183.24393c0,0 0.05019,-0.61044 -0.61124,-3.05667c-0.72131,-2.66775 -2.16232,-6.28583 -2.56979,-7.35445c-0.91468,-2.39868 -1.67126,-2.51904 -1.67126,-2.51904l4.79178,-0.64602l5.15096,13.50802z" fill="#555355"/><path d="M438.3258,170.39827l-0.59832,-1.22846c0,0 2.0093,-0.82697 2.97085,-0.83984c0.90101,-0.01206 2.04592,0.69994 2.04592,0.69994l0.59929,1.30118z" fill="#686668"/></g><path d="M436.39892,184.02528l-4.7576,-13.10113l0.19941,-1.704c0,0 3.84824,3.15783 4.80386,5.63564c0.51879,1.34519 1.20875,9.15003 1.20875,9.15003z" fill="#383638"/><path d="M437.44072,183.31986c0,0 0.05019,-0.61045 -0.61123,-3.05667c-0.72131,-2.66775 -2.16232,-6.28583 -2.56979,-7.35445c-0.91468,-2.39868 -1.67126,-2.51904 -1.67126,-2.51904l4.03514,-1.13593c0,0 1.04281,1.24041 1.3216,1.97152c0.79431,2.083 4.58599,12.02642 4.58599,12.02642z" fill="#555355"/><path d="M432.65359,170.47419l-0.81648,-1.22554c0,0 2.22745,-0.82988 3.18901,-0.84276c0.90101,-0.01206 1.75502,0.70383 1.75502,0.70383l0.72427,1.29952z" fill="#686668"/><path d="M443.9179,182.23931c-0.01097,-0.81945 0.64443,-1.49263 1.46388,-1.50359c0.81945,-0.01097 1.49263,0.64443 1.50359,1.46388c0.01097,0.81945 -0.64443,1.49263 -1.46388,1.50359c-0.81945,0.01097 -1.49263,-0.64443 -1.50359,-1.46388z" fill="#312f31"/><path d="M444.53425,179.30154l-2.07344,-5.51926l1.58928,-0.16462l2.07429,5.58376z" fill="#444144"/></g><path d="M397.00344,179.5857l-3.90923,-10.77217l29.89543,0.77641l-0.34143,9.6525z" fill="#444444"/><path d="M409.5908,175.50137c0,0 0.62892,-0.53043 1.33638,-1.64486c0.64684,-1.01897 1.35826,-2.60652 1.7367,-3.07538c0.95233,-1.71937 3.33693,-1.28445 3.33693,-1.28445l-0.97076,0.66612l-4.29648,5.32327z" fill="#292929"/><path d="M412.53081,185.99242l-6.66055,-10.88325c0,0 3.50554,0.48444 5.19498,-0.58736c1.31283,-0.83288 1.18345,-3.46338 2.75692,-3.76536c4.51437,-0.86642 17.38193,-1.47259 17.38193,-1.47259c0,0 3.3355,7.10096 4.3013,9.97535c0.66676,1.98438 1.13755,6.41047 1.13755,6.41047z" fill="#4a464a"/><path d="M416.49214,172.82965c-4.56892,-0.57496 -3.1465,-1.95807 -3.1465,-1.95807c0,0 0.77523,-1.31273 2.64044,-1.48385c4.57716,-0.41995 13.22717,0.04122 14.94891,-0.00749c0.81198,-0.02297 0.35585,0.69108 0.35585,0.69108c0,0 -1.45728,2.40568 -3.0044,2.68045c-1.54711,0.27477 -7.22539,0.65283 -11.79431,0.07787z" fill="#5e595e"/></g><g><path d="M400.81592,192.72509l-5.4009,-17.8648l18.90992,0.03321l4.85694,4.26371l6.09736,-0.18016l3.1471,13.37841z" fill="#4d4846"/><path d="M405.51123,193.0494l20.52867,-9.66716l22.31642,-0.54117c0,0 1.36788,4.16491 1.52895,5.51749c0.0821,0.68958 -0.11554,2.9459 -0.11554,2.9459z" fill="#423d3b"/><path d="M401.58655,184.79018l-3.31099,-9.80273l0.82044,-0.01099l3.31099,9.80273z" fill="#363332"/><path d="M406.08602,192.24004l-0.01629,-1.21728c0,0 5.22993,-2.61568 14.29401,-2.73701c1.2043,-0.01612 5.4863,2.47224 6.70015,2.45599c7.7014,-0.10308 15.23963,-0.204 18.10747,-0.24238c2.33553,-0.03126 4.70315,-1.36307 4.70315,-1.36307l0.0337,2.51717z" fill="#312e2c"/><path d="M408.28516,179.46925l-1.80522,-4.59162l8.30694,-0.1112l4.2138,4.36532l6.30857,0.10964l-7.56298,2.05013z" fill="#585350"/><path d="M398.89287,186.62127l-0.0151,-1.1281c0,0 7.99501,-3.85094 10.872,-3.88945c4.33598,-0.05803 16.30623,-0.21827 16.30623,-0.21827l0.0151,1.1281c0,0 -12.17545,0.16298 -16.51134,0.221c-2.81787,0.03771 -10.66689,3.8867 -10.66689,3.8867z" fill="#2b2827"/></g></g></g><g><g><g><path d="M64.86143,233.75023c0.57065,2.22656 0.29593,4.81999 -0.79146,5.09868c-1.08739,0.27868 -2.57565,-1.86291 -3.1463,-4.08946c-0.57065,-2.22656 -2.8194,-10.76761 -1.73202,-11.0463c1.08739,-0.27868 5.09914,7.81055 5.66978,10.03709z" fill="#615e5f" stroke-width="0"/><g><path d="M106.0496,203.26728c-0.54635,-0.52035 -2.90436,-1.80129 -2.90436,-1.80129l9.88057,-3.01251l-5.9031,7.27967c0,0 -0.52677,-1.94552 -1.0731,-2.46587z" fill="#756a6a" stroke-width="0"/><path d="M97.00111,201.69107l-0.18383,-13.7321l18.45315,-6.1142l0.26233,19.59824z" fill="#8a7c7c" stroke-width="0"/><path d="M57.0418,207.67347l6.42336,-18.22093l34.92841,-0.60088l4.70246,12.60486c0,0 -22.96674,1.8836 -30.64931,2.9207c-3.1891,0.43051 -15.40494,3.29628 -15.40494,3.29628z" fill="#7c787a" stroke-width="0"/><path d="M63.61569,191.85559l-0.16796,-1.47935c0,0 25.92191,-0.34698 34.07102,-0.45606c4.55946,-0.06104 16.06144,-6.58593 16.06144,-6.58593l0.02182,1.62949c0,0 -11.20806,6.50166 -15.61787,6.54603c-8.08588,0.08137 -34.36845,0.34583 -34.36845,0.34583z" fill="#535353" stroke-width="0"/><path d="M24.97463,208.81063l-0.26974,-20.15219c0,0 4.43632,-7.11416 11.64914,-9.50689c8.95857,-2.97185 25.86975,-1.41295 27.94021,-1.44065c1.58885,-0.02127 -12.76703,10.58849 -12.76703,10.58849l0.26974,20.15219z" fill="#8d898b" stroke-width="0"/><path d="M197.28892,160.35716l1.5604,-3.16544l107.55743,-1.29686l0.19737,14.74491c0,0 -37.75251,2.35103 -49.97783,2.09853c-6.07141,-0.1254 -59.33737,-12.38116 -59.33737,-12.38116z" fill="#c98cac" stroke-width="0"/><path d="M176.97864,261.63819l-4.71638,-12.87443c0,0 5.21575,5.77019 8.07757,6.80882c1.82331,0.66174 6.05424,0.98692 12.13182,-1.53206c4.89268,-2.02788 9.98718,-7.60736 9.98718,-7.60736l-11.4777,15.01762z" fill="#a08e97" stroke-width="0"/><path d="M266.83229,213.51517l-2.65391,-23.58801l18.52695,-1.65088l0.28371,21.19511c0,0 -6.37381,1.80459 -9.12932,2.5398c-1.26878,0.33852 -7.02742,1.50395 -7.02742,1.50395z" fill="#96858d" stroke-width="0"/><path d="M175.19131,265.40828l-0.07415,-5.53968c0,0 12.08985,1.90688 16.66719,-1.27598c3.097,-2.15351 33.91485,-42.20357 33.91485,-42.20357c0,0 3.30854,-3.81783 3.27398,-6.69982c-0.01738,-1.44977 0.39659,-5.63439 -0.4658,-7.93442c-0.87011,-2.32058 -3.0166,-2.75021 -3.0166,-2.75021l-5.05338,-13.50585l19.81618,-0.12154l-2.55344,26.60988l3.79217,2.51134c0,0 -9.47385,6.12749 -14.03603,11.14466c-7.13813,7.85005 -30.11863,38.54531 -30.11863,38.54531z" fill="#918189" stroke-width="0"/><path d="M243.65893,214.17812l0.83064,-28.61758l13.77811,0.09135l10.5234,11.86237l-2.02254,16.35452z" fill="#96858d" stroke-width="0"/><path d="M239.1595,216.0877l-2.56453,-4.11181l3.1881,-26.23489l5.07827,-0.15271l-0.29293,28.59317z" fill="#8f8187" stroke-width="0"/><path d="M265.53569,213.98891c0,0 2.66225,-6.70332 1.23724,-12.09552c-0.82051,-3.10479 -5.75736,-5.00862 -6.26036,-6.91199c-0.96086,-3.63592 -2.44732,-9.26072 -2.44732,-9.26072l7.91282,4.25843c0,0 3.50238,7.16753 4.15713,11.42066c0.43989,2.85747 -0.95831,9.25275 -1.85008,11.86381c-0.07519,0.22011 -1.25235,0.1526 -1.30175,0.31859c-0.12072,0.40551 0.84652,0.62393 0.84652,0.62393z" fill="#86787e" stroke-width="0"/><path d="M265.78354,191.48175c0,0 -3.14348,-3.91322 -7.83857,-4.82207c-5.31537,-1.0289 -22.42437,-1.03602 -22.42437,-1.03602l157.53343,-16.29178l3.53968,9.25522l8.06628,11.0357c0,0 -100.81729,-1.22215 -121.40381,-0.94659c-6.71765,0.08993 -17.47266,2.80554 -17.47266,2.80554z" fill="#df8db7" stroke-width="0"/><path d="M112.21249,240.82198l-5.28307,-36.20237c0,0 1.63287,-3.77285 2.13115,-3.99522c5.49324,-2.45159 37.38446,-13.53124 42.82706,-13.3178c5.96206,0.23382 -8.99521,12.36368 -8.99521,12.36368c0,0 -14.38141,2.21861 -16.86201,6.5021c-3.36792,5.8157 1.71131,23.1028 1.71131,23.1028z" fill="#c77da3" stroke-width="0"/><path d="M184.22575,209.92646l-1.81749,-2.08113c0,0 6.44321,-8.69358 8.84588,-11.01867c2.48051,-2.40045 5.8111,-3.16517 5.8111,-3.16517l5.96577,2.22254c0,0 -4.48238,-0.44262 -6.82296,1.30514c-2.00928,1.50039 -5.71983,4.62901 -8.47841,7.75855c-2.00666,2.27651 -3.50389,4.97875 -3.50389,4.97875z" fill="#414041" stroke-width="0"/><path d="M63.28235,190.81365l4.64311,-11.75273l48.62407,-0.65086c0,0 -2.8387,4.4939 -5.93169,6.50162c-3.0357,1.97051 -12.45757,5.43511 -12.45757,5.43511z" fill="#979395" stroke-width="0"/><path d="M64.06694,189.66017l3.84318,-11.74202l48.62407,-0.65086c0,0 -2.8387,4.4939 -5.93169,6.50162c-3.0357,1.97051 -12.45757,5.43511 -12.45757,5.43511z" fill="#bdb7ba" stroke-width="0"/><path d="M267.94795,214.27736l-1.87963,-0.48837l16.79149,-4.39994c0,0 -3.53251,2.10485 -6.00556,2.93497c-2.47307,0.83011 -8.90631,1.95335 -8.90631,1.95335z" fill="#887980" stroke-width="0"/><path d="M114.70419,241.25315c0,0 -2.48007,-10.4332 -3.79537,-18.95482c-1.3217,-8.56321 -2.53581,-16.5944 -2.60586,-20.17846c-0.01187,-0.60721 1.50316,-10.55904 1.99592,-11.08711c2.65974,-2.85028 10.50448,4.789 16.05334,3.61107c8.21599,-1.74412 27.3159,-2.51394 27.3159,-2.51394l-8.38189,5.42335c0,0 -19.40953,3.12521 -21.73219,8.29398c-3.14162,6.9913 4.70785,27.76088 4.70785,27.76088z" fill="#d486ae" stroke-width="0"/><path d="M115.78852,237.71948c0,0 -7.20758,-40.77876 -6.01568,-50.87262c0.55769,-4.72279 -2.91873,-13.78494 -2.91873,-13.78494l50.75597,6.28986l1.63888,16.04948c0,0 -32.08081,-2.66404 -38.34668,3.69433c-4.18269,4.24443 3.00381,32.39383 3.00381,32.39383z" fill="#e490bb" stroke-width="0"/><g stroke-width="0"><path d="M253.35695,172.87861l-0.11075,-8.27413l9.35917,-0.12529l0.11075,8.27413z" fill="#454545"/><path d="M254.17899,172.10276l-0.45438,-7.29267l11.32518,-0.15159l0.09768,7.29745z" fill="#b0b0b0"/><path d="M253.88838,167.6172l-0.26644,-2.827l11.54183,-0.15451l0.02553,1.90723c0,0 -7.78784,0.42671 -9.48522,0.58808c-0.56717,0.05392 -1.81571,0.4862 -1.81571,0.4862z" fill="#bebebe"/><path d="M265.39351,171.40303c0,0 -5.57441,-2.48095 -5.0536,-6.23596c0.77386,-5.57987 4.90111,-5.15696 4.90111,-5.15696l40.25665,0.79458l0.13465,10.0597z" fill="#9c989a"/><path d="M267.16335,170.09001c0,0 -2.53364,-3.48534 -2.79017,-4.40881c-0.38024,-1.36887 1.57477,-4.35262 1.57477,-4.35262l41.59248,-0.52341l-0.29973,7.49336z" fill="#898587"/><path d="M267.07569,170.28949l-1.04548,-1.92556l38.22831,-0.51171l0.02595,1.9392z" fill="#c1bcbf"/><path d="M266.9091,166.89745c0,0 -1.35152,-1.35002 -1.36407,-2.28726c-0.01173,-0.87672 1.29106,-3.16679 1.29106,-3.16679l38.66321,-0.51754l0.07301,5.45406z" fill="#0d0d0d"/><path d="M266.91949,167.67469c0,0 -1.3596,-1.95374 -1.37215,-2.89097c-0.01173,-0.87672 1.29914,-2.56307 1.29914,-2.56307l38.66321,-0.51754l0.07301,5.45406z" fill="#2e2e2e"/><path d="M262.11939,169.64239c-2.67966,-3.03135 -1.54586,-5.38329 -1.54586,-5.38329c0,0 1.88712,4.08745 3.13453,4.96844c1.47686,1.04302 5.10465,2.36055 5.10465,2.36055l-3.50752,0.11715c0,0 -2.71419,-1.52931 -3.18578,-2.06281z" fill="#7d7a7c"/><path d="M269.52344,167.94954c0,0 -0.91842,-2.1999 -0.93372,-3.34336c-0.01346,-1.00515 0.84672,-3.15605 0.84672,-3.15605l4.82289,-0.06456c0,0 -0.43159,2.20994 -0.41996,3.07811c0.01597,1.19319 0.50696,3.42131 0.50696,3.42131z" fill="#555555"/><path d="M278.13934,167.83423c0,0 0.63282,-2.53182 0.61752,-3.67526c-0.01346,-1.00514 -0.70452,-2.82415 -0.70452,-2.82415l5.38284,-0.07205c0,0 -0.39369,1.72051 -0.38207,2.58868c0.01597,1.19319 0.46906,3.91074 0.46906,3.91074z" fill="#555555"/><path d="M287.46516,167.70939c0,0 0.63283,-2.53182 0.61753,-3.67526c-0.01346,-1.00515 -0.70453,-2.82415 -0.70453,-2.82415l5.30285,-0.07099c0,0 -0.39369,1.72051 -0.38207,2.58868c0.01597,1.19319 0.46906,3.91074 0.46906,3.91074z" fill="#555555"/><path d="M297.12763,167.58005c0,0 0.81536,-2.17866 0.80006,-3.32212c-0.01346,-1.00514 -0.88705,-3.1773 -0.88705,-3.1773l5.14288,-0.06884c0,0 0.85422,1.97049 0.86586,2.83866c0.01597,1.19319 -0.77884,3.66075 -0.77884,3.66075z" fill="#555555"/><path d="M269.17967,162.1576l-0.67577,-0.79102l35.55941,-0.47598l-1.52341,0.82046c0,0 -2.82983,0.03787 -5.29181,0.07084c-0.53664,0.00718 -1.55655,-0.30795 -2.36035,-0.2972c-0.77721,0.0104 -1.33068,0.34662 -2.29677,0.35953c-1.50653,0.02017 -3.20632,0.04292 -4.98585,0.06674c-0.73778,0.00987 -1.38482,-0.36506 -2.14193,-0.35492c-0.6732,0.00902 -1.45528,0.40308 -2.13166,0.41214c-1.67873,0.02247 -3.34089,0.04472 -4.90368,0.06564c-0.71764,0.0096 -1.42017,-0.41939 -2.08787,-0.41045c-0.8151,0.01091 -1.58114,0.45957 -2.29531,0.46912c-2.9132,0.03899 -4.86501,0.06513 -4.86501,0.06513z" fill="#474747"/></g><g><path d="M122.87458,231.19515l3.67837,-2.91696c0,0 2.86234,2.77684 5.7081,3.63379c2.51694,0.75793 10.50144,1.24741 10.50144,1.24741l-2.59655,4.38944z" fill="#6d6a6b" stroke-width="0"/><path d="M114.90333,237.80262l9.13181,-7.50808c0,0 3.26465,2.21306 5.44208,2.84587c3.29412,0.95735 12.39952,2.33929 12.39952,2.33929l-4.21972,4.36418z" fill="#615e5f" stroke-width="0"/><path d="M117.19596,259.74131l-1.78528,-22.55117c0,0 4.36444,0.73359 9.18569,0.69866c3.76319,-0.02725 7.79925,-0.92847 10.29095,-0.35342c4.3743,1.00953 38.06275,12.91539 38.06275,12.91539l2.61444,10.14072z" fill="#575455" stroke-width="0"/><path d="M138.42358,232.41282c6.8582,-5.65752 14.74689,-19.21637 15.97069,-21.80437c0.88165,-1.86446 1.49848,-7.14922 1.49848,-7.14922l7.79422,6.71108c0,0 6.12366,20.41663 7.47341,33.04642c0.37767,3.53395 2.94776,7.44507 1.78121,8.92727c-1.04518,1.328 -17.97429,3.84472 -23.37832,3.15223c-11.37248,-1.45731 -17.12671,1.40947 -20.94168,-3.81525c-3.815,-5.22473 3.20121,-11.5895 3.20121,-11.5895c0,0 4.81535,-6.00582 6.60079,-7.47869z" fill="#504e4f" stroke-width="0"/><path d="M142.78943,199.52619c0,0 0.37582,-1.49794 1.22388,-2.17286c1.09066,-0.86801 4.77727,-2.60322 4.77727,-2.60322c0,0 9.39378,1.9418 12.43712,4.39127c2.80789,2.25998 -3.33465,12.62431 -3.33465,12.62431l-2.0781,-5.33403z" fill="#464445" stroke-width="0"/><path d="M166.65395,246.43846c0,0 -9.19969,6.37949 -17.68104,6.66445c-8.182,0.27491 -15.65807,-5.51735 -15.57009,-6.9409c0.04766,-0.77127 7.93069,-4.1824 11.35039,-8.44998c3.80135,-4.74383 3.23666,-10.43833 4.56048,-12.46668c3.69576,-5.66267 12.00374,-15.9533 10.86191,-21.98222c-1.19746,-6.32265 -11.9418,-8.25286 -11.9418,-8.25286c0,0 3.82071,-2.30304 8.80422,-2.49966c2.12278,-0.08375 6.6885,1.2411 7.61687,1.61368c3.04431,1.22173 5.05677,2.83119 5.05677,2.83119c0,0 3.59293,-4.92785 7.19058,-5.28548c3.59766,-0.35764 22.46122,2.33774 22.46122,2.33774l-16.04053,12.80983z" fill="#555354" stroke-width="0"/><path d="M148.92539,225.84558c0,0 4.47486,-10.93367 9.13206,-16.43139c4.6572,-5.49772 8.6927,-8.73252 12.22472,-8.77978c2.55769,-0.03423 5.96094,8.53635 5.96094,8.53635l-10.69086,28.9149c0,0 -14.57595,3.47452 -16.0863,1.01385c-1.19286,-1.94345 -0.54056,-13.25395 -0.54056,-13.25395z" fill="#585758" stroke-width="0"/><path d="M171.84415,252.84095c0,0 -2.96076,-6.15197 -2.67497,-9.17828c0.39922,-4.22772 1.67361,-16.89986 1.67361,-16.89986l2.09619,10.40857c0,0 -0.50995,9.7552 -0.33671,12.78304c0.16715,2.92135 1.6194,5.07251 1.6194,5.07251z" fill="#3f3e3f" stroke-width="0"/><path d="M170.67649,234.98973c-0.21784,-1.67205 -0.0542,-9.38583 -0.0542,-9.38583c0,0 9.36234,-14.69459 11.42404,-17.37553c0.60442,-0.78594 3.93657,-2.56162 3.93657,-2.56162l-1.58116,4.87549c0,0 -1.56561,0.62499 -1.73902,1.1052c-0.18475,0.51161 0.66242,1.8762 0.66242,1.8762l-5.01491,8.54799c0,0 -1.63693,1.03257 -1.80933,1.5403c-0.17245,0.50785 0.52703,1.38671 0.52703,1.38671c0,0 -3.73432,8.99205 -4.5444,11.41786c-0.37455,1.12162 -0.12033,2.55096 -0.12033,2.55096c0,0 -1.4689,-2.30573 -1.68671,-3.97779z" fill="#474647" stroke-width="0"/><path d="M157.27094,214.19896l21.16717,7.95269c0,0 -1.17529,1.02812 -1.40522,1.57028c-0.16968,0.40007 0.15059,1.38797 0.15059,1.38797z" fill="#3f3e3e" stroke-width="NaN"/><path d="M163.13183,203.76663l21.50433,6.7716c0,0 -1.10363,0.85817 -1.30719,1.41727c-0.21219,0.58285 0.17175,1.65702 0.17175,1.65702z" fill="#3f3e3e" stroke-width="NaN"/><path d="M151.07681,232.61056c0,0 10.79446,7.54919 16.75207,13.44759c5.95761,5.89839 4.03325,7.13108 4.03325,7.13108z" fill="#636162" stroke-width="NaN"/><path d="M164.05382,209.37816c0,0 -5.96122,2.98412 -8.6689,6.11657c-2.70768,3.13246 -10.82431,19.42546 -10.86372,16.48021c-0.03943,-2.94525 12.8038,-23.84016 14.59856,-23.86418c0.6794,-0.00909 3.7001,-1.19189 4.52161,-0.96541c1.34867,0.37184 0.41246,2.23279 0.41246,2.23279z" fill="#918f91" stroke-width="0"/><path d="M116.73806,259.61803l13.91629,-2.07475c0,0 12.59031,-0.50084 15.7288,-0.38776c7.64313,0.27535 30.29652,2.04577 30.29652,2.04577l-0.36236,6.3265c0,0 -24.31105,3.89119 -31.22245,2.66796c-1.99947,-0.35388 -7.82389,-0.89403 -12.09735,-2.18915c-8.36297,-2.53447 -16.25942,-6.38858 -16.25942,-6.38858z" fill="#626061" stroke-width="0"/><path d="M175.30773,265.18939c0,0 -0.01702,-4.2928 -0.49725,-6.62645c-0.53976,-2.62294 -2.58359,-8.34495 -2.58359,-8.34495l1.78216,-0.02385c0,0 1.77867,4.4334 2.26731,6.80792c0.53423,2.59615 0.81354,8.16345 0.81354,8.16345z" fill="#4a494a" stroke-width="0"/><path d="M175.12372,266.02825l0.04276,-3.39804c0,0 0.57025,0.2571 0.84172,0.25346c0.32257,-0.00431 0.92562,-0.27712 0.92562,-0.27712l0.21625,3.17395c0,0 -0.77102,0.418 -1.14027,0.46313c-0.28294,0.03459 -0.88607,-0.21539 -0.88607,-0.21539z" fill="#363536" stroke-width="0"/><path d="M172.51565,251.23955l-0.40752,-1.61531c0,0 0.4126,-0.35996 0.78027,-0.42411c0.35014,-0.06108 0.87415,0.05465 0.87415,0.05465l0.52483,1.72951c0,0 -0.47499,0.51383 -0.77852,0.55756c-0.28598,0.0412 -0.99317,-0.3023 -0.99317,-0.3023z" fill="#585758" stroke-width="0"/><path d="M133.45776,265.31838c0,0 -7.93396,-2.84688 -7.95221,-4.20979c-0.01833,-1.3697 6.20261,-2.62388 6.20261,-2.62388c0,0 10.9397,-0.38723 15.89856,-0.281c2.77618,0.05948 11.32176,0.86413 11.32176,0.86413c0,0 7.30527,0.95653 8.1357,2.09721c0.90584,1.24427 -2.91993,4.13737 -2.91993,4.13737c0,0 -12.70523,1.47625 -16.67247,1.32108c-1.4093,-0.05512 -14.014,-1.30512 -14.014,-1.30512z" fill="#6b696a" stroke-width="0"/><path d="M122.98332,258.55647l-1.95843,0.25702c0,0 0.58036,-3.44276 3.31676,-2.23707c2.73641,1.20569 21.69513,-0.05961 21.69513,-0.05961z" fill="#4b4949" stroke-width="0"/><path d="M116.80906,259.47301c0,0 -1.99502,0.21831 -2.57883,-3.41694c-0.29552,-1.84014 -2.22529,-16.00772 -2.22529,-16.00772l3.69681,-2.94886c0,0 0.76195,5.98406 1.00695,8.8833c0.32583,3.85593 1.02342,13.47785 1.02342,13.47785z" fill="#3f3d3e" stroke-width="0"/><path d="M123.3073,258.71807c0,0 3.16352,-2.20066 19.21393,-2.75266c1.32547,-0.04558 -1.79545,-0.00797 7.61024,0.37346c9.40568,0.38143 13.33382,1.84166 13.33382,1.84166c0,0 -15.07916,-0.86764 -21.28141,-0.78462c-7.06983,0.09464 -18.87659,1.32216 -18.87659,1.32216z" fill="#838082" stroke-width="0"/><path d="M127.9609,229.02094c0,0 -4.34094,2.24573 -6.49417,3.89026c-2.42017,1.8484 -7.31982,6.66019 -7.31982,6.66019l-0.80585,-1.59097c0,0 3.71068,-3.9037 5.90162,-5.57704c2.39545,-1.82951 7.91237,-4.9734 7.91237,-4.9734z" fill="#4a494a" stroke-width="0"/><path d="M128.89135,228.75067l-3.53823,1.72808c0,0 0.08774,-0.64765 -0.03503,-0.89001c-0.14587,-0.28798 -0.68671,-0.68877 -0.68671,-0.68877l3.12021,-1.84364c0,0 0.76159,0.47651 0.96927,0.78525c0.15914,0.23658 0.17046,0.9091 0.17046,0.9091z" fill="url(#color-3)" stroke-width="0"/><path d="M115.05496,238.78087l-2.91415,2.76902l-0.17305,-2.18051l2.05154,-2.04985c0,0 0.72882,0.16037 0.90626,0.41074c0.16717,0.23589 0.1294,1.0506 0.1294,1.0506z" fill="url(#color-4)" stroke-width="0"/></g><path d="M244.79272,213.06638c0,0 0.86818,-4.43069 1.35284,-5.82642c0.32901,-0.94746 2.68303,-2.41075 2.68303,-2.41075l17.01498,-0.44597c0,0 -1.19943,5.81432 -1.56219,7.18557c-0.15891,0.60073 -1.21551,1.30752 -1.21551,1.30752z" fill="#665b60" stroke-width="0"/><path d="M195.93858,195.46216c0,0 -3.81477,-1.51153 -8.75823,-2.59771c-3.14257,-0.69051 -7.41976,-1.20003 -9.27918,-1.06936c-5.40596,0.37989 -7.85641,5.51805 -7.85641,5.51805c0,0 -3.30395,-2.27175 -5.42283,-3.09814c-1.9779,-0.77141 -6.344,-1.714 -6.344,-1.714c0,0 24.4891,-5.41953 28.33217,-6.05115c7.36745,-1.21087 34.05151,-1.17663 34.05151,-1.17663l6.41456,14.20113z" fill="#8b7c84" stroke-width="0"/><g stroke-width="0"><path d="M246.23465,212.10423c0,0 0.43675,-2.60235 0.83511,-3.50254c0.41306,-0.93339 2.58251,-2.01494 2.58251,-2.01494l14.52872,-0.19447c0,0 0.39944,0.9777 0.17394,1.71856c-0.3066,1.00733 -3.04612,3.7916 -3.04612,3.7916z" fill="#585852"/><path d="M246.22466,211.35895c0,0 0.44671,-1.85704 0.84508,-2.75721c0.41306,-0.93339 2.57253,-2.76025 2.57253,-2.76025l14.52872,-0.19447c0,0 0.40942,1.72301 0.18391,2.46388c-0.3066,1.00733 -3.05609,3.04628 -3.05609,3.04628z" fill="#797971"/><path d="M262.41362,206.16613c-1.05115,-0.16391 -12.67632,-0.27964 -12.67632,-0.27964l14.50887,-0.19422l0.03295,2.46161c0,0 -0.81432,-1.82384 -1.86549,-1.98773z" fill="#85857b"/></g><path d="M247.42259,193.91858l-0.06946,-5.18929l7.13527,-0.09552l1.36678,5.17193z" fill="#7c6e75" stroke-width="0"/><path d="M236.64579,167.63688l-4.28517,-8.07464l1.37919,-0.01846l6.22652,8.5003z" fill="#d495b6" stroke-width="0"/><path d="M197.54359,160.53061l13.17652,-3.26633l21.83956,2.3204l4.11093,8.03796z" fill="#df9cbe" stroke-width="0"/><path d="M247.65207,198.94351l-0.02172,-1.62166l10.86507,-0.14543l0.9947,1.60863z" fill="#7c6e75" stroke-width="0"/><path d="M206.92107,187.33348c0,0 -18.11597,1.44102 -23.74156,2.01653c-8.51834,0.87142 -25.55597,3.42496 -25.55597,3.42496c0,0 14.96292,-4.64132 28.44882,-6.33807c14.62218,-1.83972 58.64827,-3.88657 58.64827,-3.88657l0.07239,5.40858z" fill="#75686e" stroke-width="0"/><path d="M200.12067,196.19577l-3.25059,-0.52734c0,0 9.73767,-2.51498 15.08696,-1.82372c5.3493,0.69126 14.69261,5.67197 14.69261,5.67197z" fill="#7c6e76" stroke-width="0"/><path d="M153.6148,192.78773c0,0 -32.56043,-14.96197 -33.51368,-19.56977c-0.8659,-4.18561 29.85054,1.94861 30.1468,1.83639c5.18442,-1.96345 76.96432,-10.1398 76.96432,-10.1398l26.69724,6.43257l52.74952,-1.27758l7.48932,13.47641c0,0 -61.53797,1.99273 -85.29991,2.47386c-8.24841,0.16701 -25.08788,-0.25533 -40.37513,1.08969c-11.7921,1.0375 -29.41904,5.59048 -29.41904,5.59048z" fill="#ee96c3" stroke-width="0"/><path d="M24.66269,207.05828l3.05688,-20.19671c0,0 -0.19596,-7.05216 7.01686,-9.44488c8.95857,-2.97185 25.86975,-1.41295 27.94021,-1.44065c1.58885,-0.02127 -12.76703,10.58849 -12.76703,10.58849l0.26974,20.15219z" fill="#c4b4b3" stroke-width="0"/><g stroke-width="0"><path d="M305.55208,185.04319l-3.05957,-15.10326l92.83899,5.52237l-0.67896,5.81655l-47.3593,5.49151z" fill="#ad6d8e"/><path d="M331.70324,170.35564l7.16136,-8.36933l26.74382,-2.48722l-4.16542,10.45846z" fill="#8d788b"/><path d="M306.25042,171.8851l-0.2173,-16.23384l32.90177,6.33827l-4.48635,6.92965z" fill="#857183"/><path d="M348.62092,167.99673l16.92484,-8.49555l27.88963,3.39969l-0.19377,6.89721z" fill="#947e92"/><path d="M302.07361,171.33242l2.72249,-12.80355l1.40567,-3.08292l0.20163,15.06248z" fill="#756474"/><path d="M306.78827,181.81198l-0.88283,-12.06201l43.28786,-2.22843l-1.01105,16.07203z" fill="#746373"/><path d="M348.17434,183.57822c0,0 0.29554,-6.31198 0.45618,-9.15855c0.13754,-2.43715 0.44916,-6.88411 0.44916,-6.88411l44.2082,0.31741l2.11225,8.37248z" fill="#867284"/><path d="M302.11311,171.26142l4.00675,-1.58467l0.69853,12.14246z" fill="#6f5e6d"/><path d="M386.21932,162.88982l-19.86143,-3.09808l26.77354,3.27831l-0.31614,3.55001c0,0 -0.33456,-1.56496 -1.55221,-2.25358c-0.81455,-0.46066 -5.04377,-1.47667 -5.04377,-1.47667z" fill="#978195"/><path d="M346.9383,167.36943c0,0 7.92754,-3.57169 10.68738,-4.96286c2.01044,-1.0134 4.34767,-2.61585 4.34767,-2.61585l2.53512,0.07869l-14.92175,7.46456z" fill="#9c859a"/><path d="M332.56955,168.37018c0,0 1.27944,-2.76966 2.61152,-4.13789c1.33209,-1.36823 3.62918,-2.21428 3.62918,-2.21428l-3.77939,6.31922z" fill="#806b7d"/><path d="M367.09934,157.73445l2.05641,-5.76138l15.24861,3.52955l5.68516,6.32447z" fill="#55494f"/><path d="M364.60371,160.56821c0,0 1.07177,-0.80462 1.62428,-1.39683c0.41619,-0.44609 1.08558,-1.83974 1.08558,-1.83974l22.36526,3.70098c0,0 0.87445,0.48531 1.46497,0.8031c0.61712,0.33212 2.16148,1.14854 2.16148,1.14854z" fill="#685960"/><path d="M367.64854,156.83483l1.59702,-4.60715l14.1896,3.13719c0,0 -8.0265,-1.4254 -12.50378,-1.1108c-2.59708,0.18248 -3.28281,2.58075 -3.28281,2.58075z" fill="#41383c"/></g><path d="M25.77615,167.75974l-0.06972,-5.20786c0,0 22.31719,-1.59392 44.27412,-1.83085c13.08431,-0.14119 26.67436,1.27469 33.59032,0.83198c15.59396,-0.99826 26.00143,-5.65021 26.00143,-5.65021l-6.19756,10.72702z" fill="#ffa1d1" stroke-width="0"/><path d="M23.38524,181.75058l1.9449,-16.11006c0,0 54.81897,1.32691 72.65863,0.64741c10.56748,-0.4025 24.5161,-4.34877 24.5161,-4.34877l0.19598,14.64104c0,0 -67.49497,0.90346 -83.76589,1.12127c-6.68999,0.08956 -15.18985,30.93101 -15.18985,30.93101z" fill="#ee96c3" stroke-width="0"/><path d="M203.60239,255.8372l9.09719,-13.71889c0,0 9.70551,-15.9886 19.01314,-22.97655c2.36524,-1.77575 7.51828,-3.04135 7.51828,-3.04135c0,0 -7.23651,5.08241 -9.79375,7.90834c-6.03904,6.67357 -25.83485,31.82841 -25.83485,31.82841z" fill="#70646b" stroke-width="0"/><path d="M298.73439,189.71733l-6.54101,-17.91586l1.35,-0.01808c0,0 1.98096,5.42585 3.02771,8.2929c0.14915,0.40851 1.53035,1.61122 1.71507,2.11719c0.32024,0.87711 -0.52879,1.13204 -0.17087,2.11237c0.99663,2.7298 1.9691,5.39338 1.9691,5.39338z" fill="#795467" stroke-width="0"/><path d="M123.33898,177.00351c0,0 -10.56879,-6.41146 -9.94003,-10.1951c0.37646,-2.2655 17.11112,-10.44233 17.11112,-10.44233l68.51817,0.75509l-1.59509,3.11777l29.71771,4.85108l-71.43385,27.5338c0,0 -0.86642,-5.60274 2.69728,-8.50884c3.46355,-2.82445 18.39305,-8.68978 18.39305,-8.68978c0,0 -34.215,0.40899 -41.50641,0.4199c-2.43261,0.00364 -11.96197,1.15844 -11.96197,1.15844z" fill="#f399c8" stroke-width="0"/><g><path d="M128.73909,158.31411l-0.04334,-3.23804l176.53785,-2.36307l0.04334,3.23804z" fill="#584f54" stroke-width="0"/><path d="M299.44106,153.03877l-0.03663,-2.73608l3.05498,-0.04088l2.73218,2.69999z" fill="#685d63" stroke-width="0"/><g fill="#685d63" stroke-width="0"><g><g><g><path d="M292.78496,153.37707l-0.03985,-2.97674l3.88079,-0.05195l0.03985,2.97674z"/><path d="M286.488,153.46136l-0.03985,-2.97674l3.88079,-0.05195l0.03985,2.97674z"/></g><g><path d="M280.42863,153.54248l-0.03985,-2.97674l3.88079,-0.05195l0.03985,2.97674z"/><path d="M274.13166,153.62678l-0.03985,-2.97674l3.88079,-0.05195l0.03985,2.97674z"/></g></g><g><g><path d="M267.9535,153.70947l-0.03985,-2.97674l3.88079,-0.05195l0.03985,2.97674z"/><path d="M261.65652,153.79376l-0.03985,-2.97674l3.88079,-0.05195l0.03985,2.97674z"/></g><g><path d="M255.59717,153.87486l-0.03985,-2.97674l3.88079,-0.05195l0.03985,2.97674z"/><path d="M249.30026,153.95915l-0.03985,-2.97674l3.88079,-0.05195l0.03985,2.97674z"/></g></g></g><g><g><g><path d="M249.06264,153.96234l-0.03985,-2.97674l3.88079,-0.05195l0.03985,2.97674z"/><path d="M242.76566,154.04662l-0.03985,-2.97674l3.88079,-0.05195l0.03985,2.97674z"/></g><g><path d="M236.70631,154.12774l-0.03985,-2.97674l3.88079,-0.05195l0.03985,2.97674z"/><path d="M230.40935,154.21202l-0.03985,-2.97674l3.88079,-0.05195l0.03985,2.97674z"/></g></g><g><g><path d="M224.23122,154.29473l-0.03985,-2.97674l3.88079,-0.05195l0.03985,2.97674z"/><path d="M217.93424,154.37901l-0.03985,-2.97674l3.88079,-0.05195l0.03985,2.97674z"/></g><g><path d="M211.87489,154.46012l-0.03985,-2.97674l3.88079,-0.05195l0.03985,2.97674z"/><path d="M205.57791,154.54441l-0.03985,-2.97674l3.88079,-0.05195l0.03985,2.97674z"/></g></g></g></g><g><g fill="#685d63" stroke-width="0"><g><g><path d="M199.35936,154.62765l-0.03985,-2.97674l3.88079,-0.05195l0.03985,2.97674z"/><path d="M193.06239,154.71194l-0.03985,-2.97674l3.88079,-0.05195l0.03985,2.97674z"/></g><g><path d="M187.00305,154.79304l-0.03985,-2.97674l3.88079,-0.05195l0.03985,2.97674z"/><path d="M180.70612,154.87733l-0.03985,-2.97674l3.88079,-0.05195l0.03985,2.97674z"/></g></g><g><g><path d="M174.52795,154.96004l-0.03985,-2.97674l3.88079,-0.05195l0.03985,2.97674z"/><path d="M168.23097,155.04432l-0.03985,-2.97674l3.88079,-0.05195l0.03985,2.97674z"/></g><g><path d="M162.17161,155.12543l-0.03985,-2.97674l3.88079,-0.05195l0.03985,2.97674z"/><path d="M155.87464,155.20972l-0.03985,-2.97674l3.88079,-0.05195l0.03985,2.97674z"/></g></g></g><g><g fill="#685d63" stroke-width="0"><g><path d="M155.63703,155.21291l-0.03985,-2.97674l3.88079,-0.05195l0.03985,2.97674z"/><path d="M149.34004,155.2972l-0.03985,-2.97674l3.88079,-0.05195l0.03985,2.97674z"/></g><g><path d="M143.28069,155.37831l-0.03985,-2.97674l3.88079,-0.05195l0.03985,2.97674z"/><path d="M136.98377,155.46259l-0.03985,-2.97674l3.88079,-0.05195l0.03985,2.97674z"/></g></g><g fill="none" stroke-width="1" font-family="sans-serif" font-weight="normal" font-size="12" text-anchor="start"><g/><g/></g></g></g><path d="M128.77058,155.32331l2.65894,-2.77216l3.05498,-0.04088l0.03663,2.73608z" data-paper-data="{&quot;index&quot;:null}" fill="#685d63" stroke-width="0"/></g><path d="M186.1167,187.44507l-2.54802,0.30416c0,0 1.64441,-2.58978 11.22358,-3.84581c7.26244,-0.95225 27.80634,-2.53881 40.1056,-3.44928c5.71147,-0.42282 62.0877,-10.18017 62.0877,-10.18017l5.19812,-0.08389c0,0 -61.56768,11.46981 -67.27522,11.86934c-12.62092,0.88345 -33.84158,2.40481 -39.98197,3.06554c-3.34257,0.35968 -8.80982,2.32014 -8.80982,2.32014z" fill="#70475c" stroke-width="0"/><path d="M287.27273,205.12039l-4.89866,1.91153l-0.25267,-18.92969c0,0 7.79142,-0.05589 15.41124,-0.11054c21.87431,-0.15693 127.00374,-0.91108 127.00374,-0.91108l0.09005,6.72666z" fill="#5a5959" stroke-width="0"/><path d="M286.37952,206.76093l1.05058,-3.0204l137.20699,-10.04287l-11.67496,11.36887z" fill="#4b4a4a" stroke-width="0"/><path d="M409.67413,204.92138c0,0 -5.94889,-3.14539 -9.00019,-4.53276c-1.63527,-0.74352 -7.88457,-3.14438 -7.88457,-3.14438c0,0 8.0396,2.7964 11.3966,3.69949c1.19806,0.32231 2.33151,1.05001 3.64249,1.56063c0.42272,0.16464 2.20906,-2.6187 4.08488,-4.35831c0.56065,-0.51997 1.72569,-0.17099 2.24662,-0.50878c1.19417,-0.7744 1.53853,-1.87053 1.53853,-1.87053c0,0 0.34986,0.92498 -0.85269,2.15493c-0.32812,0.33559 -2.12616,0.71201 -2.44674,1.0767c-1.28484,1.46161 -2.26514,3.07396 -2.56234,3.66919c-0.82937,1.66106 1.30073,2.23424 1.30073,2.23424z" fill="#414040" stroke-width="0"/><path d="M123.29399,177.30157l3.66631,-11.14884l6.99711,-0.71802c0,0 -0.91512,2.66069 -1.45444,4.22879c-0.13584,0.39495 11.63103,-1.71888 11.99198,-1.05264c0.66971,1.23611 -4.85157,5.07027 -5.19075,6.05647c-0.38777,1.12745 -9.08616,1.63973 -9.08616,1.63973z" fill="#303030" stroke-width="0"/><path d="M123.14549,176.93348l3.57301,-10.31244c0,0 3.01735,1.26431 3.03053,2.24922c0.02399,1.79201 -1.47745,7.5998 -1.47745,7.5998z" fill="#252525" stroke-width="0"/><path d="M282.39153,209.68766l-0.03953,-2.95211l5.48379,-3.02605l-1.19847,2.96869c0,0 -1.07241,1.34975 -1.81915,1.87905c-0.65703,0.46572 -2.42666,1.13043 -2.42666,1.13043z" fill="#383838" stroke-width="0"/><g><g fill="#4b4b4b" stroke-width="0"><g data-paper-data="{&quot;origPos&quot;:null}"><g data-paper-data="{&quot;origPos&quot;:null}"><path d="M349.54508,210.15984l-0.03042,-2.27252l3.74967,-0.05019l0.03042,2.27252z" data-paper-data="{&quot;origPos&quot;:null}"/><path d="M343.29412,210.12987l-0.03042,-2.27252l3.74967,-0.05019l0.03042,2.27252z" data-paper-data="{&quot;origPos&quot;:null}"/></g><g data-paper-data="{&quot;origPos&quot;:null}"><path d="M362.0455,210.10617l-0.03042,-2.27252l3.74967,-0.05019l0.03042,2.27252z" data-paper-data="{&quot;origPos&quot;:null}"/><path d="M355.79453,210.0762l-0.03042,-2.27252l3.74967,-0.05019l0.03042,2.27252z" data-paper-data="{&quot;origPos&quot;:null}"/></g></g><g data-paper-data="{&quot;origPos&quot;:null,&quot;index&quot;:null}"><g data-paper-data="{&quot;origPos&quot;:null}"><path d="M381.24526,209.62187l-0.03042,-2.27252l3.74967,-0.05019l0.03042,2.27252z" data-paper-data="{&quot;origPos&quot;:null}"/><path d="M387.49318,209.42459l-0.03042,-2.27251l3.74967,-0.05019l0.03042,2.27251z" data-paper-data="{&quot;origPos&quot;:null}"/></g><g data-paper-data="{&quot;origPos&quot;:null}"><path d="M368.74791,209.9028l-0.03042,-2.27252l3.74967,-0.05019l0.03042,2.27252z" data-paper-data="{&quot;origPos&quot;:null}"/><path d="M374.99582,209.70551l-0.03042,-2.27252l3.74967,-0.05019l0.03042,2.27252z" data-paper-data="{&quot;origPos&quot;:null}"/></g></g></g><path d="M306.71681,202.48728l-0.18217,-13.60989l84.46646,-1.13064l0.18217,13.60989z" data-paper-data="{&quot;origPos&quot;:null}" fill="#444444" stroke-width="0"/><path d="M306.87854,207.20774l-0.06401,-4.78203l84.21818,-1.12733l0.06401,4.78203z" data-paper-data="{&quot;origPos&quot;:null}" fill="#414141" stroke-width="0"/><path d="M306.9324,208.6314l-0.02165,-1.6175l84.20748,-1.12717l0.02165,1.6175z" data-paper-data="{&quot;origPos&quot;:null}" fill="#3f3f3f" stroke-width="0"/><g stroke-width="0"><g data-paper-data="{&quot;origPos&quot;:null}" fill="#5a5a5a"><g data-paper-data="{&quot;origPos&quot;:null}"><path d="M349.98567,201.98748l-0.18403,-13.74877l3.57111,-0.0478l0.18403,13.74877z" data-paper-data="{&quot;origPos&quot;:null}"/></g><g data-paper-data="{&quot;origPos&quot;:null}"><path d="M356.05655,201.90621l-0.18403,-13.74877l3.57111,-0.0478l0.18403,13.74877z" data-paper-data="{&quot;origPos&quot;:null}"/><path d="M362.30599,201.82255l-0.18403,-13.74877l3.57111,-0.0478l0.18403,13.74877z" data-paper-data="{&quot;origPos&quot;:null}"/></g></g><g data-paper-data="{&quot;origPos&quot;:null}" fill="#5a5a5a"><g data-paper-data="{&quot;origPos&quot;:null}"><path d="M368.91255,201.73413l-0.18403,-13.74877l3.57111,-0.0478l0.18403,13.74877z" data-paper-data="{&quot;origPos&quot;:null}"/><path d="M375.16198,201.65047l-0.18403,-13.74877l3.57111,-0.0478l0.18403,13.74877z" data-paper-data="{&quot;origPos&quot;:null}"/></g><g data-paper-data="{&quot;origPos&quot;:null}"><path d="M381.23287,201.56921l-0.18403,-13.74877l3.57111,-0.0478l0.18403,13.74877z" data-paper-data="{&quot;origPos&quot;:null}"/><path d="M387.48231,201.48557l-0.18403,-13.74877l3.57111,-0.0478l0.18403,13.74877z" data-paper-data="{&quot;origPos&quot;:null}"/></g></g><path d="M353.6181,201.93886l-0.8529,1.94263l-5.24034,0.11324l-0.27043,-9.7937l2.48832,-5.96153l0.25301,13.74785z" fill="#3a3a3a"/><path d="M359.68653,201.85764l-0.8529,1.94263l-5.24034,0.11324l-0.27043,-9.7937l2.48832,-5.96153l0.25301,13.74785z" fill="#3a3a3a"/><path d="M365.89286,201.77455l-0.8529,1.94263l-5.24034,0.11324l-0.27043,-9.7937l2.48832,-5.96153l0.25301,13.74785z" fill="#3a3a3a"/><path d="M372.58193,201.68502l-0.8529,1.94263l-5.24034,0.11324l-0.27043,-9.7937l2.48832,-5.96153l0.25301,13.74785z" fill="#3a3a3a"/><path d="M378.85723,201.60102l-0.8529,1.94263l-5.24034,0.11324l-0.27043,-9.7937l2.48832,-5.96153l0.25301,13.74785z" fill="#3a3a3a"/><path d="M384.85666,201.52071l-0.8529,1.94263l-5.24034,0.11324l-0.27043,-9.7937l2.48832,-5.96153l0.25301,13.74785z" fill="#3a3a3a"/><path d="M391.13992,201.4366l-0.8529,1.94263l-5.24034,0.11324l-0.27043,-9.7937l2.48832,-5.96153l0.25301,13.74785z" fill="#3a3a3a"/></g><g stroke-width="0"><g data-paper-data="{&quot;origPos&quot;:null}" fill="#5a5a5a"><g data-paper-data="{&quot;origPos&quot;:null}"><path d="M306.7605,202.56607l-0.18403,-13.74877l3.57111,-0.0478l0.18403,13.74877z" data-paper-data="{&quot;origPos&quot;:null}"/></g><g data-paper-data="{&quot;origPos&quot;:null}"><path d="M312.83134,202.48481l-0.18403,-13.74877l3.57111,-0.0478l0.18403,13.74877z" data-paper-data="{&quot;origPos&quot;:null}"/><path d="M319.08078,202.40116l-0.18403,-13.74877l3.57111,-0.0478l0.18403,13.74877z" data-paper-data="{&quot;origPos&quot;:null}"/></g></g><g data-paper-data="{&quot;origPos&quot;:null}" fill="#5a5a5a"><g data-paper-data="{&quot;origPos&quot;:null}"><path d="M325.68738,202.31271l-0.18403,-13.74877l3.57111,-0.0478l0.18403,13.74877z" data-paper-data="{&quot;origPos&quot;:null}"/><path d="M331.93683,202.22907l-0.18403,-13.74877l3.57111,-0.0478l0.18403,13.74877z" data-paper-data="{&quot;origPos&quot;:null}"/></g><g data-paper-data="{&quot;origPos&quot;:null}"><path d="M338.00772,202.14781l-0.18403,-13.74877l3.57111,-0.0478l0.18403,13.74877z" data-paper-data="{&quot;origPos&quot;:null}"/><path d="M344.25717,202.06415l-0.18403,-13.74877l3.57111,-0.0478l0.18403,13.74877z" data-paper-data="{&quot;origPos&quot;:null}"/></g></g><path d="M310.3929,202.51746l-0.8529,1.94263l-2.72893,0.07963l-0.04052,-1.97377z" fill="#3a3a3a"/><path d="M316.46137,202.43623l-0.8529,1.94263l-5.24034,0.11324l-0.27043,-9.7937l2.48832,-5.96153l0.25301,13.74785z" fill="#3a3a3a"/><path d="M322.66767,202.35315l-0.8529,1.94263l-5.24034,0.11324l-0.27043,-9.7937l2.48832,-5.96153l0.25301,13.74785z" fill="#3a3a3a"/><path d="M329.3567,202.26362l-0.8529,1.94263l-5.24034,0.11324l-0.27043,-9.7937l2.48832,-5.96153l0.25301,13.74785z" fill="#3a3a3a"/><path d="M335.63208,202.17963l-0.8529,1.94263l-5.24034,0.11324l-0.27043,-9.7937l2.48832,-5.96153l0.25301,13.74785z" fill="#3a3a3a"/><path d="M341.63152,202.09931l-0.8529,1.94263l-5.24034,0.11324l-0.27043,-9.7937l2.48832,-5.96153l0.25301,13.74785z" fill="#3a3a3a"/><path d="M347.91479,202.01522l-0.8529,1.94263l-5.24034,0.11324l-0.27043,-9.7937l2.48832,-5.96153l0.25301,13.74785z" fill="#3a3a3a"/></g><g><g data-paper-data="{&quot;origPos&quot;:null}"><g data-paper-data="{&quot;origPos&quot;:null}" fill="none" stroke-width="1" font-family="sans-serif" font-weight="normal" font-size="12" text-anchor="start"/><g data-paper-data="{&quot;origPos&quot;:null}" fill="#4b4b4b" stroke-width="0"><path d="M313.3151,210.83539l-0.03042,-2.27252l3.74967,-0.05019l0.03042,2.27252z" data-paper-data="{&quot;origPos&quot;:null}"/><path d="M307.06414,210.8054l-0.03042,-2.27252l3.74967,-0.05019l0.03042,2.27252z" data-paper-data="{&quot;origPos&quot;:null}"/></g></g><g data-paper-data="{&quot;origPos&quot;:null,&quot;index&quot;:null}" fill="#4b4b4b" stroke-width="0"><g data-paper-data="{&quot;origPos&quot;:null}"><path d="M332.51492,210.35109l-0.03042,-2.27252l3.74967,-0.05019l0.03042,2.27252z" data-paper-data="{&quot;origPos&quot;:null}"/><path d="M338.76283,210.15377l-0.03042,-2.27251l3.74967,-0.05019l0.03042,2.27251z" data-paper-data="{&quot;origPos&quot;:null}"/></g><g data-paper-data="{&quot;origPos&quot;:null}"><path d="M320.0175,210.63202l-0.03042,-2.27252l3.74967,-0.05019l0.03042,2.27252z" data-paper-data="{&quot;origPos&quot;:null}"/><path d="M326.26542,210.43472l-0.03042,-2.27252l3.74967,-0.05019l0.03042,2.27252z" data-paper-data="{&quot;origPos&quot;:null}"/></g></g></g></g><path d="M135.95155,175.538l0.98311,-4.22865c0,0 4.56854,-3.20891 8.09734,-3.40617c4.03414,-0.22551 34.00069,-0.60167 34.00069,-0.60167c0,0 0.68704,1.86672 0.65042,3.08452c-0.04718,1.56897 -2.12204,4.66165 -2.12204,4.66165z" fill="#242424" stroke-width="0"/><path d="M160.78415,171.39526l-0.04216,-3.15002l18.00018,-0.24095l0.04216,3.15002z" fill="#313131" stroke-width="0"/><path d="M157.5165,173.36977l-0.00872,-0.65217c0,0 1.05369,-1.06535 2.07668,-1.07905c0.9714,-0.01301 3.16558,0.43261 5.61943,0.56315c4.67457,0.24867 10.30385,0.27497 10.30385,0.27497l0.00872,0.65217c0,0 -5.4278,0.07064 -10.03725,-0.17835c-2.51511,-0.13584 -4.79072,-0.67443 -5.79845,-0.66093c-1.05919,0.01419 -2.16425,1.08023 -2.16425,1.08023z" fill="#616161" stroke-width="0"/><path d="M184.43692,157.2971l12.73266,2.85646l30.91876,4.8947c0,0 0.7361,0.21436 -7.37152,-0.40543c-2.75811,-0.21086 -13.41701,-1.67735 -22.66443,-3.45655c-2.50224,-0.48143 -15.88117,-3.74345 -15.88117,-3.74345z" fill="#df8cb7" stroke-width="0"/><path d="M3.45059,166.05661l-0.07941,-5.93259c0,0 5.74609,-1.83004 9.54959,-1.88094c3.11379,-0.04168 11.64243,3.3504 11.64243,3.3504l0.02941,12.27146z" fill="#626061" stroke-width="0"/><path d="M119.63342,174.48803l3.8295,2.45498l12.22837,-1.48697l50.7404,-0.6792l0.0146,1.09094c0,0 -38.06473,0.36425 -49.96361,0.78579c-3.26681,0.11572 -12.95567,0.96635 -12.95567,0.96635z" fill="#ffa6d4" stroke-width="0"/><path d="M1.42415,230.01975l-0.09597,-7.16893l23.20303,-16.9423l-1.42415,13.68916l-13.73474,10.31569z" fill="#3f3d3e" stroke-width="0"/><path d="M-0.27354,224.98189c0,0 -0.07546,-19.65258 0.60188,-29.24584c0.76449,-10.82747 3.75529,-32.46558 3.75529,-32.46558c0,0 8.61128,-0.30464 12.21505,1.29309c3.08432,1.36742 8.09277,7.71033 8.09277,7.71033l0.44907,33.54856c0,0 -11.67238,13.85561 -14.68675,16.15528c-4.63665,3.53729 -10.42729,3.00417 -10.42729,3.00417z" fill="#555354" stroke-width="0"/><path d="M4.0747,173.86998c0,0 -1.62024,-5.97175 0.40961,-8.69639c2.02986,-2.72463 6.36542,-3.79971 8.92549,-3.83397c2.04222,-0.02734 6.26956,-0.00517 9.20239,4.41446c2.93282,4.41963 1.10267,11.11481 1.10267,11.11481c0,0 -6.43852,-10.31844 -9.00032,-10.70961c-3.61501,-0.55197 -10.63984,7.71072 -10.63984,7.71072z" fill="#6f6b6c" stroke-width="0"/><path d="M-1.66124,229.87273c0,0 1.36554,-26.08315 1.21238,-37.52591c-0.15951,-11.91674 -0.65113,-32.63043 -0.65113,-32.63043c0,0 1.1475,-0.65837 2.18822,-0.6723c0.95162,-0.01274 2.52696,0.60919 2.52696,0.60919c0,0 0.04207,19.15643 0.18522,29.85029c0.16631,12.42437 -2.03226,40.32327 -2.03226,40.32327z" fill="#333232" stroke-width="0"/><path d="M-2.08605,230.32208l0.8972,-14.72157c0,0 1.06698,0.8747 1.66589,0.828c0.75616,-0.05895 2.41378,-1.51878 2.41378,-1.51878l-1.0081,15.35921z" fill="#2e2d2d" stroke-width="0"/><path d="M23.18848,193.72074c0.10928,8.16389 -3.89855,16.88625 -8.22423,19.87181c-3.5926,2.47961 -11.00013,9.33729 -11.10942,1.17338c-0.02319,-1.73191 1.86169,-13.6376 1.89603,-20.66849c0.0454,-9.29827 -1.66685,-14.25673 -0.747,-17.10088c1.66326,-5.14273 7.16622,-6.69601 9.38052,-6.72566c4.36486,-0.05842 8.69483,15.28595 8.80412,23.44984z" fill="#585758" stroke-width="0"/><path d="M57.83566,207.34118l-0.61584,-1.73265c0,0 7.92095,-1.45668 13.9319,-2.02134c8.46207,-0.79491 32.05144,-2.29821 32.05144,-2.29821l1.81292,1.25702c0,0 -25.08668,1.95633 -33.78934,2.84083c-2.55585,0.25977 -13.39107,1.95435 -13.39107,1.95435z" fill="#585657" stroke-width="0"/><path d="M52.12249,220.61937l5.00603,-13.75965l7.22892,-1.0475c0,0 -1.68021,4.33637 -1.58382,5.0903c0.46056,3.60248 3.77801,27.52726 3.77801,27.52726c0,0 -1.47143,0.46016 -2.68581,-1.3993c-2.17895,-3.33642 -4.10615,-10.17326 -5.88621,-12.25226c-1.53797,-1.79627 -5.85712,-4.15883 -5.85712,-4.15883z" fill="#5a5759" stroke-width="0"/><path d="M64.23852,189.65036l2.73695,-11.37099l2.33164,-0.14233l-3.84498,11.60806z" fill="#a5a0a2" stroke-width="0"/><path d="M71.01309,188.47608l-0.01878,-1.40262l26.49388,-0.35464l0.01878,1.40262z" fill="#494748" stroke-width="0"/><path d="M70.89272,185.50611l-0.01878,-1.40262l26.49388,-0.35464l0.01878,1.40262z" fill="#494748" stroke-width="0"/><path d="M51.76093,208.17197l-0.26953,-20.13653l12.11757,-9.7793l4.83995,-0.37658l-15.70125,43.02755l-5.63753,-1.92809z" fill="#dbd5d8" stroke-width="0"/><path d="M25.42425,220.44l-0.3157,-11.78763l26.64153,-1.1462c0,0 0.36422,2.53308 0.24472,3.33325c-0.29784,1.99464 -2.21207,8.95869 -2.21207,8.95869z" fill="#ccc6c9" stroke-width="0"/><path d="M29.06132,208.99987l-0.00423,-0.31578l22.80333,-1.17378l-2.58932,1.21903c0,0 -4.31877,0.24404 -7.02764,0.24855c-3.70919,0.00618 -13.18214,0.02197 -13.18214,0.02197z" fill="#d8d1d5" stroke-width="0"/><path d="M32.52643,205.21638l-0.22754,-16.99848l16.12355,-0.21582l0.22754,16.99848z" fill="#a39999" stroke-width="0"/><path d="M25.15001,220.61343l-0.15205,-11.35828c0,0 8.92153,6.26783 13.23916,8.55083c4.31764,2.283 10.81449,1.91604 10.81449,1.91604z" fill="#b4afb1" stroke-width="0"/><path d="M58.87108,226.20523c0,0 3.04312,0.99987 4.13724,0.84146c0.67212,-0.09731 1.803,-1.70153 1.803,-1.70153l1.77983,9.05018l0.05614,4.19474c0,0 -1.93869,0.33742 -3.2522,-2.22783c-1.08376,-2.11654 -4.524,-10.15701 -4.524,-10.15701z" fill="#504e4f" stroke-width="0"/><path d="M52.43438,221.17158l13.90154,-41.93341l1.74618,0.18178l-13.79348,42.34225z" fill="#858183" stroke-width="0"/><path d="M35.05422,180.64457l1.49252,-1.67061c0,0 27.40453,-1.01078 39.8137,-1.17689c10.77033,-0.14417 31.9468,-0.07461 31.9468,-0.07461l0.55541,1.93413c0,0 -21.30482,-0.42084 -32.65742,-0.26887c-12.9632,0.17353 -41.15103,1.25685 -41.15103,1.25685z" fill="#918b8e" stroke-width="0"/><path d="M36.05586,179.40029l1.99771,-1.96831c0,0 25.88129,-0.69946 38.29047,-0.86557c10.77033,-0.14417 31.9468,-0.07461 31.9468,-0.07461l0.55541,1.93413c0,0 -21.30482,-0.42084 -32.65742,-0.26887c-12.9632,0.17353 -40.13294,1.24323 -40.13294,1.24323z" fill="#a59fa2" stroke-width="0"/><path d="M100.93697,199.31974l-2.00142,-5.65636c0,0 0.19549,-1.20775 0.52693,-1.32503c0.29203,-0.10333 1.35851,0.65788 1.35851,0.65788l2.00141,5.65636c0,0 -0.26436,0.88122 -0.55707,0.9848c-0.33105,0.11714 -1.32838,-0.31766 -1.32838,-0.31766z" fill="#494242" stroke-width="0"/><path d="M60.70145,202.50719l3.41558,-9.53228l3.88538,-0.05202l-3.41558,9.53228z" fill="#9c989a" stroke-width="0"/><path d="M70.0299,184.60458l1.83757,-0.99265l24.43688,-0.30905l2.03059,0.92282z" fill="#757274" stroke-width="0"/><path d="M70.16184,187.41436l1.83757,-0.99265l24.43688,-0.30905l2.03059,0.92282z" fill="#757274" stroke-width="0"/><path d="M22.71639,219.66294l0.92838,-58.17535l1.9279,0.55497l-0.37756,58.56918z" fill="#686666" stroke-width="0"/><path d="M22.55666,219.93543l0.43697,-16.26303l2.34197,3.78746l-0.25821,13.31472z" fill="#535252" stroke-width="0"/><path d="M52.99359,196.65123c0,0 2.09246,-2.37368 2.0798,-3.32041c-0.01244,-0.92901 -2.15513,-2.30781 -2.15513,-2.30781c0,0 3.01077,0.62946 2.92913,2.319c-0.06217,1.28691 -1.08333,3.48978 -1.15595,4.59323c-0.2065,3.1375 -0.7967,10.49343 -0.7967,10.49343z" fill="#c4bec1" stroke-width="0"/><path d="M60.6433,194.63703l1.77501,-10.22009l2.49034,-4.38802l-2.52689,9.59288z" fill="#aca7a9" stroke-width="0"/></g></g><g stroke-width="0"><path d="M178.319,165.2289l2.51019,-3.36309c0,0 1.78806,-1.46038 2.6166,-1.19648c0.94469,0.30092 2.74895,2.90557 2.74895,2.90557l-0.48728,4.08883c0,0 -4.28095,0.04976 -5.54891,-0.06657c-0.57159,-0.05244 -1.83956,-2.36823 -1.83956,-2.36823z" fill="#c0c0c0"/><path d="M135.5332,175.4536c0,0 -0.21503,-2.87738 0.82878,-4.03032c1.30808,-1.44486 7.35789,-3.73825 7.35789,-3.73825l-0.6471,4.74618l0.0391,2.92095z" fill="#838383"/><path d="M135.36003,175.38154l8.00388,-7.5891l37.55898,-0.50275l0.10013,7.48062z" fill="#999999"/><path d="M136.35016,174.71182l6.081,-5.92304l33.76929,-0.45202l0.07817,5.84059c0,0 -4.08723,0.05472 -9.34496,0.1251c-3.41836,0.04576 -7.34573,-0.96378 -10.95206,-0.91551c-3.86872,0.0518 -7.37015,1.16077 -9.54313,1.18986c-4.25278,0.05692 -10.0883,0.13504 -10.0883,0.13504z" fill="#d952b3"/><path d="M139.84204,174.66288l8.28911,-6.01479l12.46299,-0.16682c0,0 -7.3499,2.00591 -9.70754,2.9521c-2.50292,1.00449 -5.68656,3.15779 -5.68656,3.15779z" fill="#a5899d"/><path d="M147.829,174.4432c0,0 5.07168,-1.0401 7.52856,-1.07296c3.1393,-0.04203 9.76676,0.84147 9.76676,0.84147l-9.65769,-0.20596z" fill="#adadad"/><path d="M135.46437,175.36201l7.22865,-6.84902l34.96355,-0.468l0.00921,0.68851c0,0 -30.27408,0.40523 -34.22035,0.45806c-0.82541,0.01104 -7.98104,6.17045 -7.98104,6.17045z" fill="#8a8a8a"/><path d="M182.71085,180.9659l-0.13058,-9.75447l0.55431,-7.20995c0,0 1.19333,0.45399 1.75475,1.01001c0.56142,0.55603 0.95991,1.67862 0.95991,1.67862l-1.12559,14.24887z" fill="#9e9e9e"/><path d="M177.20313,176.80847c0,0 -0.94011,-2.11254 -1.09808,-3.69969c-0.21271,-2.1373 0.56891,-7.66646 0.56891,-7.66646l1.93689,-0.35131c0,0 0.7694,0.78156 1.24523,0.62602c0.65604,-0.21443 2.32704,-1.79366 2.32704,-1.79366l-0.33104,12.82287z" fill="#9c9c9c"/><path d="M177.80154,178.63131c-0.7971,-1.09386 -0.57507,-2.47007 -0.57507,-2.47007l4.78086,-7.26501c0,0 1.44548,3.86481 1.45775,4.78116c0.03487,2.6053 1.10485,7.34109 1.10485,7.34109c0,0 -2.9787,0.12362 -4.02336,-0.30107c-1.25289,-0.50934 -1.94793,-0.99224 -2.74502,-2.0861z" fill="#888888"/><path d="M179.57174,177.83331c-1.01494,-1.98636 -2.08512,-6.43547 -0.29576,-10.52656c1.78934,-4.09109 4.23199,-1.99241 4.23199,-1.99241c0,0 1.06562,4.40912 1.09656,6.72175c0.0282,2.10665 -0.91834,6.59386 -0.91834,6.59386c0,0 -3.09953,1.1897 -4.11447,-0.79666z" fill="#b4b4b4"/><path d="M183.63017,170.08298c0.01889,1.41094 -5.08957,1.55674 -5.10845,0.14581c-0.01889,-1.41094 2.96726,-6.85357 3.77962,-6.86445c0.31462,-0.00421 0.95977,0.08902 1.17044,1.14697c0.33328,1.67375 0.14681,4.70719 0.15837,5.57168z" fill="#bbbbbb"/></g><g stroke-width="0"><path d="M119.53687,174.4742c0,0 -5.92186,-4.83851 -5.94694,-6.71175c-0.02047,-1.5295 6.01355,-1.73341 6.01355,-1.73341l7.54554,-0.02916l-3.87951,10.83186z" fill="#f399c8"/><path d="M89.03548,176.52429c0,0 -0.99806,-2.08467 -0.75519,-3.16074c0.26803,-1.18751 2.27991,-4.81967 2.27991,-4.81967l23.0336,-0.49401l9.24077,8.50026z" fill="#ee96c3"/></g></g><g stroke-width="0"><g><path d="M184.25126,155.52273l-0.08274,-6.18127l47.81389,-0.64002l0.08274,6.18127z" fill="#61585b"/><path d="M184.0446,152.28164l-0.04429,-3.31005l47.99571,-0.64245l0.04429,3.31005c0,0 -8.64008,0.11566 -17.51568,0.23447c-2.77499,0.03716 -6.65606,1.60647 -9.22025,1.6408c-3.04912,0.04081 -6.33954,-1.43251 -8.29544,-1.40633c-5.86479,0.07851 -12.96435,0.17353 -12.96435,0.17353z" fill="#494344"/><path d="M245.77803,144.84951l-9.58591,-18.80633l20.91738,-0.28001l15.6517,16.5663c0,0 -5.69144,1.43769 -8.9197,1.73919c-4.98153,0.46523 -18.06347,0.78084 -18.06347,0.78084z" fill="#5e555b"/><path d="M245.82607,148.28426l-0.07413,-5.538c0,0 12.27794,-1.6176 17.15919,-2.46266c3.87391,-0.67065 6.6715,-1.29019 6.6715,-1.29019l6.03173,6.85866c0,0 -5.3106,1.66736 -9.45212,2.16677c-5.61164,0.67665 -20.33617,0.26542 -20.33617,0.26542z" fill="url(#color-5)"/><path d="M234.49952,126.22461l-0.05349,-3.99582l19.1498,-0.25634l3.68953,3.94715z" fill="url(#color-6)"/><path d="M245.24272,148.31701l-0.01687,-1.25911c0,0 15.60728,-0.28534 20.99107,-0.52494c4.02574,-0.17917 8.4247,-1.81503 8.4247,-1.81503l0.90414,1.13273l-8.19391,2.17039z" fill="#312c30"/><g><path d="M144.09024,139.06944l-0.34499,-8.85454l93.91691,-1.25713l7.79085,11.17854z" fill="#8a6672"/><path d="M160.73891,147.13299c0,0 -3.56749,-3.55834 -6.39148,-4.98227c-2.82398,-1.42394 -9.88138,-1.09201 -9.88138,-1.09201l0.08427,-2.0884c0,0 12.3259,0.11146 19.35586,0.11256c16.79363,0.00266 80.97038,-0.09669 80.97038,-0.09669l3.71076,6.51795z" fill="#755761"/><path d="M163.6205,149.58553l-3.05983,-2.55105l87.57197,-1.66161l1.24661,3.06474z" fill="#694e57"/><path d="M143.5858,130.61318l-0.06062,-4.52859l90.78893,-1.89469l3.92506,5.60919c0,0 2.79957,3.30086 -2.48654,3.34631c-1.66408,0.01431 -10.82924,-3.2318 -12.49751,-3.21744c-16.06633,0.13817 -79.66934,0.68521 -79.66934,0.68521z" fill="#916b77"/><path d="M143.76711,126.08148l-0.15259,-2.5227l89.89889,-1.34211l1.07715,2.37808z" fill="#9e7582"/><path d="M217.89539,125.77313c-8.07578,-0.53989 -72.74761,-0.70664 -72.74761,-0.70664l87.84618,-1.17587l4.89994,7.37626c0,0 -11.92274,-4.95386 -19.99851,-5.49375z" fill="#b38f9a"/></g><path d="M194.48954,149.16951l-0.12278,-9.17295l20.21041,-0.27053l0.12278,9.17295z" fill="#3a3336"/><path d="M194.27899,140.00188l0.69602,-1.53193l18.53676,-0.24812l1.00542,1.50916z" fill="#4b4246"/><path d="M194.62302,148.66832l-0.10946,-8.17684c0,0 1.12952,5.2512 3.80205,6.3218c2.67252,1.0706 15.95307,1.59206 15.95307,1.59206z" fill="#332c30"/><path d="M235.78495,128.43146l-3.99996,-5.94699c0,0 1.01392,-0.6803 1.61451,-0.68834c0.67139,-0.00899 2.22516,0.63694 2.22516,0.63694l3.99996,5.94699z" fill="#757575"/><path d="M238.86844,133.12521l-5.74906,-8.53605l3.83964,-0.0514l5.74906,8.53605z" fill="#5a5a5a"/><path d="M243.19929,139.51677l-5.74906,-8.53605l3.83964,-0.0514l5.74906,8.53605z" fill="#505050"/><path d="M247.67732,146.13715c-0.98192,-1.45793 -4.81323,-7.14657 -4.81323,-7.14657l3.83964,-0.0514l6.7515,10.23708c0,0 -2.04845,0.56296 -2.99811,0.56085c-0.74073,-0.00166 -2.34686,-2.95711 -2.77984,-3.59997z" fill="#3b3b3b"/><path d="M142.58306,141.688l-0.24996,-18.67308l3.18067,-0.04256l0.24996,18.67308z" fill="#443e42"/><path d="M123.72998,143.53944l-0.76498,-5.9183l20.22675,-0.27074l0.07934,5.92747z" fill="url(#color-7)"/><path d="M122.97344,138.25172l-0.14519,-10.84602l20.22675,-0.27074l0.14519,10.84602z" fill="#5e555b"/><path d="M122.82994,127.53195l0.74422,-4.17255l19.42683,-0.26005l0.05571,4.16184z" fill="url(#color-8)"/><path d="M193.07117,122.62641l-0.08209,-6.13278l15.03516,0.86551l4.68486,4.64882z" fill="#5e555b"/><path d="M212.71388,122.36347l-4.68843,-4.91547c0,0 3.02517,0.65019 5.26658,1.61854c2.24141,0.96834 5.91016,3.21007 5.91016,3.21007z" fill="#776b73"/><path d="M190.06468,123.8223l3.18305,-1.28717l25.59414,-0.60928l3.66434,1.46221z" fill="#6d6269"/></g><g><path d="M195.88284,145.18037c-0.01672,-1.24872 0.47811,-2.41215 0.8529,-3.44684c0.52224,-1.44179 1.10878,-2.63755 2.39114,-3.50098c0.78327,-0.52739 1.91522,-0.93198 2.90086,-1.18555c0.65193,-0.1677 1.64562,-0.58113 2.34857,-0.59052c1.59356,-0.02133 1.93693,0.0558 3.09321,0.53642c0.6965,0.28949 2.34183,0.71662 2.88578,1.38153c0.46038,0.56279 0.94884,1.50486 1.29958,2.17987c0.59942,1.15355 1.42676,3.00715 1.44534,4.39565c0.00785,0.58678 -0.46613,1.93168 -0.50889,2.44777c-0.13576,1.63841 -0.12967,2.14799 -1.32829,3.26761c-0.7285,0.68051 -2.2283,1.24844 -3.20651,1.67155c-1.01307,0.43819 -2.27719,1.32126 -3.44976,1.33695c-0.79144,0.01059 -2.22655,-0.50522 -2.99508,-0.63114c-1.66737,-0.2732 -2.56171,-0.43566 -3.60638,-1.56198c-0.89582,-0.96584 -1.17785,-2.56055 -1.56021,-3.91315c-0.20087,-0.71059 -0.55188,-1.61364 -0.56223,-2.38719z" fill="#3a3a3a"/><path d="M196.61218,145.052c-0.01529,-1.14268 0.43752,-2.20734 0.78048,-3.15418c0.47791,-1.31937 1.01463,-2.41359 2.1881,-3.20372c0.71676,-0.48261 1.75262,-0.85286 2.65457,-1.0849c0.59658,-0.15348 1.50589,-0.53178 2.14916,-0.54038c1.45827,-0.01952 1.77248,0.05107 2.83058,0.49085c0.63735,0.2649 2.143,0.65576 2.64075,1.26422c0.42129,0.515 0.86827,1.37712 1.18924,1.99478c0.54854,1.05561 1.30564,2.75183 1.32264,4.02244c0.00719,0.53695 -0.42657,1.76769 -0.46569,2.23993c-0.12423,1.4993 -0.11865,1.96561 -1.2155,2.99018c-0.66665,0.62271 -2.03909,1.14244 -2.93424,1.52963c-0.92706,0.40098 -2.08384,1.20908 -3.15687,1.22344c-0.72422,0.00969 -2.03752,-0.46233 -2.74079,-0.57756c-1.52579,-0.24999 -2.34421,-0.39867 -3.30017,-1.42934c-0.81978,-0.88383 -1.07785,-2.34312 -1.42773,-3.5809c-0.18381,-0.65028 -0.50502,-1.47664 -0.5145,-2.1845z" fill="#5a5a5a"/><path d="M208.74248,140.35983c-2.07668,-2.35818 -7.17239,-2.49062 -7.17239,-2.49062c0,0 1.93487,-0.56595 3.92495,-0.58566c1.61201,-0.01596 3.18911,0.32741 4.36597,1.61279c1.17781,1.28641 1.59152,2.76571 1.89699,4.15719c0.59889,2.72821 0.19312,5.12665 0.19312,5.12665c0,0 -1.13193,-5.46219 -3.20863,-7.82037z" fill="#6d6d6d"/><path d="M203.48319,145.44956c-0.00771,-0.57566 0.45272,-1.04857 1.02838,-1.05628c0.57566,-0.00771 1.04857,0.45272 1.05628,1.02838c0.00771,0.57566 -0.45272,1.04857 -1.02838,1.05628c-0.57566,0.00771 -1.04857,-0.45272 -1.05628,-1.02838z" fill="#272727"/><path d="M203.406,145.58742c-0.00707,-0.52798 0.41522,-0.96173 0.9432,-0.96881c0.52798,-0.00707 0.96173,0.41522 0.96881,0.9432c0.00707,0.52798 -0.41522,0.96173 -0.9432,0.96881c-0.52798,0.00707 -0.96173,-0.41522 -0.96881,-0.9432z" fill="#131313"/></g></g></g></g></g><path d="M116.01729,256.65502c-0.02121,-1.58454 -4.84986,-44.14972 -4.37699,-45.83137c0.63849,-2.27055 9.13694,-1.03353 12.08067,-2.58086c9.01554,-4.73897 18.76631,-9.45698 18.76631,-9.45698c0,0 14.07483,0.39213 18.31099,0.33541c3.16782,-0.04241 55.83368,-7.75382 56.71319,2.55688c1.19293,13.98523 -33.95393,1.25166 -33.79159,13.3812c0.04109,3.07065 2.45322,3.23388 1.92969,6.38838c-0.12566,0.75712 -2.40786,5.967 -2.60975,7.64591c-0.32046,2.66507 3.02794,6.62312 -0.24044,9.76643c-2.60536,2.50566 -0.60641,7.49621 -1.22886,8.72026c-4.28932,8.43511 -12.66836,4.74251 -21.68042,4.86315c-10.68504,0.14302 -26.18393,4.07416 -35.58324,2.96253c-4.05732,-0.47984 -8.22776,5.86139 -8.28951,1.24906z" fill="#86c8f5" stroke-width="0"/><path d="M374.20921,194.09296c4.89763,1.08708 4.84256,7.91891 2.61811,15.65022c-2.22446,7.73131 -7.00316,13.25942 -10.67356,12.34735c-3.67039,-0.91208 -4.84256,-7.91891 -2.61811,-15.65022c2.22446,-7.73131 5.03114,-13.59975 10.67356,-12.34735z" data-paper-data="{&quot;index&quot;:null}" fill="#86c8f5" stroke-width="0"/><path d="M351.54139,203.69663c2.22446,-7.73131 4.42676,-11.83504 10.06916,-10.58266c4.89764,1.08708 5.44697,6.15421 3.22251,13.88553c-2.22446,7.73132 -7.00316,13.25941 -10.67356,12.34735c-3.67039,-0.91208 -4.84256,-7.91891 -2.61811,-15.65022z" data-paper-data="{&quot;index&quot;:null}" fill="#86c8f5" stroke-width="0"/><path d="M338.38532,207.99491c2.22446,-7.73131 5.32943,-14.7748 10.97184,-13.52241c4.89764,1.08708 4.54429,9.09397 2.31984,16.82528c-2.22446,7.73131 -6.4301,9.15301 -10.10051,8.24095c-3.6704,-0.91208 -5.41562,-3.81251 -3.19117,-11.54381z" data-paper-data="{&quot;index&quot;:null}" fill="#86c8f5" stroke-width="0"/><path d="M336.80157,196.71333c4.89764,1.08708 5.44697,6.15421 3.22251,13.88553c-2.22446,7.73131 -6.4301,9.15301 -10.10051,8.24095c-3.6704,-0.91208 -5.41562,-3.81251 -3.19117,-11.54381c2.22446,-7.73131 4.42676,-11.83504 10.06916,-10.58266z" data-paper-data="{&quot;index&quot;:null}" fill="#86c8f5" stroke-width="0"/><g stroke-width="0"><g><path d="M112.13054,274.16802l-0.0747,-5.58143c0,0 2.24351,0.14802 3.08511,-0.82698c1.189,-1.37751 3.5937,-6.55 3.5937,-6.55l0.74198,8.08456c0,0 -3.03707,3.23943 -4.56334,4.15737c-1.10196,0.66273 -2.78273,0.71648 -2.78273,0.71648z" fill="#4d484c"/><g><g><path d="M71.24646,263.36425l4.02354,-5.61642c0,0 15.78126,-9.16083 22.33885,-13.14049c5.0443,-3.06127 13.09405,-8.12021 13.09405,-8.12021l2.98706,26.30897z" fill="#eb59c1"/><path d="M72.56114,252.22156l-0.97724,-29.26354c0,0 19.2436,8.5043 26.16366,11.36866c5.02163,2.07856 12.19865,11.24637 12.19865,11.24637l-5.77201,6.22535z" fill="#dd54b6"/><path d="M70.87031,235.26374l-0.11478,-30.44616c0,0 12.74778,13.57636 17.3883,14.28003c6.87635,1.04267 19.66604,-1.89431 19.66604,-1.89431l0.34871,26.05153z" fill="#ff77d8"/><path d="M73.03963,222.35299l-0.18808,-14.05026l33.3302,-3.37381l2.56897,16.94607z" fill="#ee51c1"/></g><g><g><path d="M68.46868,252.89476l-5.58654,-40.73541l8.40059,-0.11244l5.58654,40.73541z" fill="#a59da1"/><path d="M62.84944,212.35038c0,0 -0.83508,-4.48141 0.94544,-5.78713c1.78051,-1.30574 6.85886,-1.62696 6.85886,-1.62696l0.61001,7.30149z" fill="#b9b0b5"/><path d="M70.39104,263.51506l-1.86413,-10.64884l8.36045,-0.11192l1.86413,10.64884z" fill="#8b8488"/></g><g><path d="M108.61126,248.96037l-5.58653,-40.7354l4.53879,-0.06076l5.58654,40.7354z" fill="#a59da1"/><path d="M103.19755,209.2201l-0.90091,-6.42972c0,0 2.92536,-0.71963 3.99618,0.41585c1.07083,1.13548 1.25166,5.14885 1.25166,5.14885z" fill="#b9b0b5"/><path d="M110.52113,259.58089l-1.86413,-10.64884l4.51116,-0.06039l1.86414,10.64884z" fill="#8b8488"/></g><path d="M71.46499,272.07744c0,0 -3.30658,-2.69877 -3.72407,-4.17791c-0.46475,-1.64657 1.0621,-5.25316 1.0621,-5.25316l47.60425,-5.03246c0,0 2.04517,2.3067 2.48652,3.78727c0.61863,2.07522 -3.52485,7.04572 -3.52485,7.04572z" fill="#494547"/><path d="M71.03152,208.86273c0,0 -2.32377,-0.53627 -2.76212,-1.10472c-0.48137,-0.62423 0.77292,-2.7238 0.77292,-2.7238c0,0 12.02942,-1.17307 17.30179,-1.56582c6.14636,-0.45787 16.57614,-0.78129 16.57614,-0.78129c0,0 0.54742,1.2167 0.47009,1.81518c-0.0749,0.57961 -0.52367,1.71551 -0.52367,1.71551z" fill="#c2b8bd"/><path d="M71.8038,270.85208c0,0 -1.27263,-2.81851 -1.53714,-4.49074c-0.21951,-1.38777 0.0758,-3.64928 0.0758,-3.64928l44.78756,-4.65667c0,0 2.07041,3.12551 2.09267,4.78805c0.02391,1.78601 -1.96989,4.38416 -1.96989,4.38416z" fill="#6f696b"/><path d="M82.99759,276.13244l-0.0747,-5.58142l29.76932,-2.00343l0.0747,5.58142z" fill="#333032"/><path d="M71.46737,276.40824c-1.11929,-0.63298 -2.81876,-2.07612 -2.81876,-2.07612l-0.96099,-6.80709c0,0 2.5039,2.23906 3.72936,3.58426c0.86738,0.95215 11.55184,-0.67035 11.55184,-0.67035l0.0747,5.58142c0,0 -10.45684,1.0209 -11.57613,0.38791z" data-paper-data="{&quot;index&quot;:null}" fill="#444043"/><g><path d="M70.53748,223.83886c0,0 -2.64799,-4.70712 -2.6976,-6.44881c-0.03435,-1.20585 2.42846,-2.99818 2.42846,-2.99818l35.01834,-3.49343c0,0 1.63537,3.10223 1.67974,4.6592c0.04534,1.59129 -1.41061,4.78778 -1.41061,4.78778z" fill="#979797"/><path d="M70.57664,222.77218c0,0 -2.66161,-4.16198 -2.71634,-5.69921c-0.0379,-1.06431 2.41948,-2.63888 2.41948,-2.63888l35.0055,-2.98024c0,0 1.64437,2.74264 1.6933,4.11683c0.05,1.40449 -1.39644,4.22123 -1.39644,4.22123z" fill="#a2a2a2"/></g><g><path d="M73.13941,240.34517c0,0 -2.64799,-4.70712 -2.6976,-6.44881c-0.03435,-1.20585 2.42846,-2.99818 2.42846,-2.99818l35.01834,-3.49343c0,0 1.63537,3.10223 1.67974,4.6592c0.04534,1.59129 -1.41061,4.78777 -1.41061,4.78777z" fill="#979797"/><path d="M73.17854,239.27851c0,0 -2.6616,-4.16198 -2.71633,-5.69921c-0.03791,-1.0643 2.41947,-2.63888 2.41947,-2.63888l35.0055,-2.98023c0,0 1.64437,2.74264 1.6933,4.11683c0.04999,1.40449 -1.39644,4.22123 -1.39644,4.22123z" fill="#a2a2a2"/></g><g><path d="M75.85496,257.34525c0,0 -2.64799,-4.70712 -2.6976,-6.44881c-0.03435,-1.20585 2.42846,-2.99818 2.42846,-2.99818l35.01834,-3.49343c0,0 1.63537,3.10223 1.67974,4.6592c0.04534,1.59129 -1.41061,4.78777 -1.41061,4.78777z" fill="#7a7a7a"/><path d="M75.8941,256.27861c0,0 -2.66161,-4.16198 -2.71634,-5.69922c-0.03791,-1.0643 2.41947,-2.63887 2.41947,-2.63887l35.00551,-2.98024c0,0 1.64436,2.74264 1.6933,4.11683c0.04999,1.40449 -1.39644,4.22124 -1.39644,4.22124z" fill="#929292"/></g></g></g></g><path d="M69.13737,256.84004c0,0 -0.40848,-1.71113 -0.74419,-4.01747c-0.98558,-6.77117 -5.74955,-40.59648 -5.74955,-40.59648l3.22529,4.26019l3.78932,29.37665z" fill="#777275"/></g></g></g></g></svg>