<svg version="1.1" xmlns="http://www.w3.org/2000/svg" xmlns:xlink="http://www.w3.org/1999/xlink" width="455.62128" height="191.1765" viewBox="0,0,455.62128,191.1765"><defs><linearGradient x1="534.36054" y1="256.16226" x2="532.70008" y2="260.67826" gradientUnits="userSpaceOnUse" id="color-1"><stop offset="0" stop-color="#1f1d20"/><stop offset="1" stop-color="#202022"/></linearGradient><linearGradient x1="536.44858" y1="251.75715" x2="534.53803" y2="256.95323" gradientUnits="userSpaceOnUse" id="color-2"><stop offset="0" stop-color="#302d31"/><stop offset="1" stop-color="#1f1e20"/></linearGradient><linearGradient x1="205.64211" y1="181.34076" x2="204.4722" y2="184.52253" gradientUnits="userSpaceOnUse" id="color-3"><stop offset="0" stop-color="#585758"/><stop offset="1" stop-color="#575758"/></linearGradient><linearGradient x1="189.85643" y1="186.27478" x2="188.938" y2="188.77265" gradientUnits="userSpaceOnUse" id="color-4"><stop offset="0" stop-color="#363536"/><stop offset="1" stop-color="#353536"/></linearGradient><linearGradient x1="356.44104" y1="148.64973" x2="354.52974" y2="153.84795" gradientUnits="userSpaceOnUse" id="color-5"><stop offset="0" stop-color="#5e555b"/><stop offset="1" stop-color="#2b2629"/></linearGradient><linearGradient x1="354.41504" y1="125.88509" x2="353.03596" y2="129.63575" gradientUnits="userSpaceOnUse" id="color-6"><stop offset="0" stop-color="#72676e"/><stop offset="1" stop-color="#5e555b"/></linearGradient><linearGradient x1="243.60116" y1="99.94894" x2="241.55539" y2="105.5128" gradientUnits="userSpaceOnUse" id="color-7"><stop offset="0" stop-color="#5e555b"/><stop offset="1" stop-color="#4d454a"/></linearGradient><linearGradient x1="248.5196" y1="86.57223" x2="247.08321" y2="90.47877" gradientUnits="userSpaceOnUse" id="color-8"><stop offset="0" stop-color="#74686f"/><stop offset="1" stop-color="#5e555b"/></linearGradient></defs><g transform="translate(-84.17506,-72.66528)"><g data-paper-data="{&quot;isPaintingLayer&quot;:true}" fill-rule="nonzero" stroke="none" stroke-linecap="butt" stroke-linejoin="miter" stroke-miterlimit="10" stroke-dasharray="" stroke-dashoffset="0" style="mix-blend-mode: normal"><path d="M188.17293,220.61834c-2.75663,8.2238 -8.5865,11.73769 -25.12043,6.19549c-6.1328,-2.05572 -16.194,-7.08743 -21.22739,-8.0312c-3.74082,-0.70142 -7.48543,0.37853 -9.1441,-2.16609c-2.1264,-3.26213 4.28275,-22.05045 5.25695,-24.9568c2.75663,-8.2238 26.26045,-7.7515 42.79435,-2.2093c16.53391,5.54219 10.19724,22.94408 7.4406,31.16788z" fill="#86c8f5" stroke-width="0"/><g><g><g stroke-width="0"><path d="M268.4321,188.45499l-4.3061,-17.93298l24.20794,8.2721c0,0 -3.04249,5.09167 -4.16136,7.55543c-1.08231,2.38328 -2.4458,6.99373 -2.4458,6.99373z" fill="#7f7d7e"/><path d="M268.45654,188.67361l-1.48106,-6.51848c0,0 0.98682,4.15061 3.81201,5.84433c2.03441,1.21964 3.91165,1.57964 6.31767,2.8061c2.406,1.22645 4.46139,2.68845 4.46139,2.68845z" fill="#6c6a6b"/></g><g><g><g><path d="M529.89271,259.64604l-0.27202,-5.22656c0,0 5.05127,3.62364 7.18098,5.35801c2.12969,1.73437 0.29365,2.26976 0.29365,2.26976z" fill="url(#color-1)" stroke-width="0"/><path d="M539.74403,253.18152c0,0 0.58541,2.69541 -2.1605,2.63708c-2.74593,-0.05831 -5.89271,0.08775 -5.89271,0.08775l0.99952,-5.53109z" data-paper-data="{&quot;index&quot;:null}" fill="url(#color-2)" stroke-width="0"/><path d="M520.86728,256.32262l0.72415,-1.96945l13.86502,5.09798c0,0 0.90622,1.1795 1.23767,1.69162c0.29796,0.46036 -1.01367,0.62648 -1.01367,0.62648z" fill="#444444" stroke-width="NaN"/><path d="M521.57355,254.49943l-0.51225,-2.05705l11.84064,4.35363l2.61883,2.71247c0,0 -4.04088,-1.23219 -6.2101,-2.01127c-2.44643,-0.87863 -7.73712,-2.99783 -7.73712,-2.99783z" fill="#535353" stroke-width="0"/><path d="M520.90888,252.53201l-0.08394,-0.71275l10.7689,3.95956l1.40052,1.07507z" fill="#363636" stroke-width="0"/><path d="M520.86728,256.32262l0.39284,-1.06842c0,0 5.9006,2.65287 8.60348,3.64667c2.29045,0.84216 6.58229,1.93694 6.58229,1.93694c0,0 0.65152,0.73205 0.81364,1.00781c0.13676,0.23265 -0.39672,0.35836 -0.39672,0.35836c0,0 -4.58158,-1.25365 -6.75319,-2.05209c-2.92978,-1.07723 -9.24232,-3.82925 -9.24232,-3.82925z" fill="#3a3a3a" stroke-width="NaN"/><path d="M521.11984,251.94715l-0.21454,-1.02044l12.80358,4.7077l-2.02639,0.23263z" fill="#242424" stroke-width="0"/><path d="M520.08159,250.82544l0.5709,-1.55268c0,0 7.6673,2.59946 10.47901,3.6333c1.91564,0.70437 4.76004,1.9699 4.76004,1.9699l-2.2162,0.77197z" fill="#3a3a3a" stroke-width="0"/><path d="M520.51618,249.26799l0.70489,-1.91707c0,0 7.29696,2.33151 10.40762,3.47525c2.6918,0.98973 7.18214,2.99228 7.18214,2.99228l-2.97452,1.08256c0,0 -3.40193,-1.3387 -5.50845,-2.11325c-2.80009,-1.02954 -9.81166,-3.51976 -9.81166,-3.51976z" fill="#444444" stroke-width="0"/><path d="M521.15121,247.41588l0.29371,-0.79878c0,0 7.4328,2.60113 10.80903,3.84254c2.35093,0.8644 7.51025,2.89321 7.51025,2.89321l-1.1056,0.50025c0,0 -4.64388,-2.01507 -7.42695,-3.03834c-3.06621,-1.12741 -10.08046,-3.39888 -10.08046,-3.39888z" fill="#535353" stroke-width="0"/><path d="M521.29395,246.65228l0.1175,-0.31953c0,0 7.37971,2.17319 10.6275,3.36736c2.80797,1.03247 7.73232,3.3833 7.73232,3.3833l-0.08221,0.33248c0,0 -5.58282,-2.22846 -8.62848,-3.34832c-3.08548,-1.13451 -9.76657,-3.41529 -9.76657,-3.41529z" fill="#4e4e4e" stroke-width="0"/></g><g stroke-width="0"><g><g><g><path d="M515.54154,253.84447l0.24242,-13.93613l1.11306,-1.42476c0,0 2.14694,4.22998 2.15323,6.88568c0.0034,1.44176 -2.14352,8.97716 -2.14352,8.97716z" fill="#383638"/><path d="M516.76672,253.55829c0,0 0.26519,-0.55208 0.52236,-3.07311c0.28046,-2.74926 0.22867,-6.64342 0.23032,-7.78707c0.00365,-2.56716 -0.65984,-2.95015 -0.65984,-2.95015l4.70588,1.11041l-0.02056,14.4568z" fill="#555355"/><path d="M516.89018,239.85019l-0.1194,-1.3612c0,0 2.17217,-0.05371 3.07471,0.27815c0.84574,0.31096 1.66028,1.38535 1.66028,1.38535l0.0943,1.42945z" fill="#686668"/></g><path d="M510.21734,251.88683l0.24242,-13.93611l0.79563,-1.52001c0,0 2.46441,4.32522 2.47068,6.9809c0.0034,1.44175 -2.14351,8.97716 -2.14351,8.97716z" fill="#383638"/><path d="M511.44251,251.60063c0,0 0.26519,-0.55209 0.52237,-3.07311c0.28046,-2.74926 0.22868,-6.64342 0.23033,-7.78707c0.00365,-2.56716 -0.65984,-2.95015 -0.65984,-2.95015l4.17452,0.38229c0,0 0.53022,1.53131 0.52913,2.31377c-0.00317,2.22933 -0.0183,12.87113 -0.0183,12.87113z" fill="#555355"/><path d="M511.56597,237.8925l-0.32419,-1.43651c0,0 2.37695,0.0216 3.2795,0.35348c0.84574,0.31096 1.38724,1.28494 1.38724,1.28494l0.21165,1.4726z" fill="#686668"/><path d="M517.87774,252.90798c0.28281,-0.76917 1.13563,-1.16342 1.90481,-0.88063c0.76918,0.28281 1.16342,1.13562 0.88062,1.9048c-0.28281,0.76917 -1.13562,1.16343 -1.90479,0.88063c-0.76918,-0.28281 -1.16342,-1.13562 -0.88063,-1.9048z" fill="#312f31"/><path d="M519.50398,250.38491l0.03755,-5.89576l1.54306,0.41464l-0.05981,5.95632z" fill="#444144"/></g><path d="M475.01505,233.65189l0.20176,-11.45779l27.64056,11.41654l-3.77086,8.89201z" fill="#444444"/><path d="M488.23058,234.3393c0,0 0.77703,-0.27039 1.83625,-1.05816c0.96848,-0.72024 2.20062,-1.94837 2.72167,-2.2509c1.50425,-1.26509 3.57559,-0.00611 3.57559,-0.00611l-1.14477,0.27489l-5.91608,3.43468z" fill="#292929"/><path d="M487.22427,245.18792l-2.32789,-12.54548c0,0 3.10044,1.70606 5.06146,1.30933c1.52387,-0.30831 2.34378,-2.81107 3.92118,-2.53037c4.52565,0.80535 16.75899,4.8411 16.75899,4.8411c0,0 0.57539,7.8242 0.44935,10.85389c-0.08702,2.09158 -1.23027,6.39332 -1.23027,6.39332z" fill="#4a464a"/><path d="M495.63098,234.31239c-4.06113,-2.17091 -2.23812,-2.95384 -2.23812,-2.95384c0,0 1.19341,-0.94867 2.99645,-0.44143c4.42464,1.24474 12.33764,4.76891 13.96293,5.33918c0.76649,0.26893 0.08516,0.77265 0.08516,0.77265c0,0 -2.22125,1.72541 -3.7643,1.42871c-1.54305,-0.29669 -6.98101,-1.97435 -11.04212,-4.14528z" fill="#5e595e"/></g><g><path d="M473.87637,247.28576l1.34528,-18.61481l17.64739,6.79376l3.01091,5.71873l5.75853,2.01235l-1.84556,13.61913z" fill="#4d4846"/><path d="M478.14515,249.26779l22.62823,-1.68617l21.03402,7.47564c0,0 -0.21209,4.37867 -0.54539,5.69937c-0.16995,0.67334 -1.16143,2.70974 -1.16143,2.70974z" fill="#423d3b"/><path d="M477.43379,240.15123l0.41373,-10.3385l0.7701,0.28315l-0.41372,10.3385z" fill="#363332"/><path d="M478.97139,248.71752l0.42013,-1.1426c0,0 5.81948,-0.57231 14.32748,2.55595c1.13043,0.41565 4.23932,4.27079 5.37869,4.68973c7.22896,2.65798 14.30469,5.25963 16.99658,6.2494c2.19227,0.80608 4.87958,0.40906 4.87958,0.40906l-0.86877,2.36273z" fill="#312e2c"/><path d="M485.59229,237.57783l-0.04372,-4.93354l7.79733,2.86697l2.37396,5.5836l5.85212,2.35851l-7.79597,-0.79019z" fill="#585350"/><path d="M474.26338,240.89786l0.38935,-1.0589c0,0 8.84348,-0.73703 11.54394,0.25592c4.06996,1.49647 15.30585,5.62776 15.30585,5.62776l-0.38935,1.0589c0,0 -11.42851,-4.2021 -15.4984,-5.69854c-2.64499,-0.97253 -11.35141,-0.18512 -11.35141,-0.18512z" fill="#2b2827"/></g></g></g><g><g><g><path d="M145.46887,165.4505c-0.26338,2.28337 -1.44742,4.60706 -2.56254,4.47841c-1.11512,-0.12862 -1.73909,-2.66081 -1.47571,-4.94421c0.26338,-2.28337 1.21788,-11.06378 2.33304,-10.93516c1.11512,0.12862 1.96862,9.11756 1.70525,11.40098z" fill="#615e5f" stroke-width="0"/><g><path d="M194.8346,151.71367c-0.32411,-0.68134 -2.06809,-2.72084 -2.06809,-2.72084l10.30446,0.7203l-8.11609,4.68712c0,0 0.20385,-2.00524 -0.12027,-2.68656z" fill="#756a6a" stroke-width="0"/><path d="M186.94824,147.00571l4.73935,-12.88965l19.41935,0.88957l-6.76391,18.39592z" fill="#8a7c7c" stroke-width="0"/><path d="M147.49219,138.30184l12.51488,-14.7187l32.83327,11.9303l-0.11641,13.45295c0,0 -22.12146,-6.45455 -29.66682,-8.23355c-3.13214,-0.73849 -15.56495,-2.43098 -15.56495,-2.43098z" fill="#7c787a" stroke-width="0"/><path d="M159.28824,125.88108l0.37221,-1.4416c0,0 24.33161,8.94638 31.98078,11.75887c4.27972,1.57359 17.35452,-0.40632 17.35452,-0.40632l-0.56237,1.52952c0,0 -12.79202,2.06335 -16.92602,0.52772c-7.58019,-2.81577 -32.21911,-11.96818 -32.21911,-11.96818z" fill="#535353" stroke-width="0"/><path d="M117.13917,127.89564l6.9551,-18.91586c0,0 6.68713,-5.05709 14.27863,-4.71206c9.42893,0.42856 24.66413,7.93228 26.60758,8.64686c1.49138,0.54837 -15.70941,5.32237 -15.70941,5.32237l-6.9551,18.91587z" fill="#8d898b" stroke-width="0"/><path d="M295.38562,144.27129l2.58925,-2.39803l100.90778,37.25457l-5.08889,13.84032c0,0 -36.09653,-11.30585 -47.42298,-15.91378c-5.62504,-2.28842 -50.98514,-32.78309 -50.98514,-32.78309z" fill="#c98cac" stroke-width="0"/><path d="M240.19752,231.59041l0.19981,-13.70969c0,0 2.80722,7.25386 5.10832,9.24729c1.46608,1.27006 5.30086,3.0868 11.87737,2.90794c5.29434,-0.14399 12.04726,-3.53253 12.04726,-3.53253l-16.08933,9.91965z" fill="#a08e97" stroke-width="0"/><path d="M341.31879,218.7844l5.95737,-22.9771l17.89205,5.08408l-7.31504,19.89482c0,0 -6.59764,-0.59421 -9.43385,-0.89307c-1.30592,-0.1376 -7.10051,-1.10871 -7.10051,-1.10871z" fill="#96858d" stroke-width="0"/><path d="M237.18009,234.47198l1.91189,-5.19981c0,0 10.6083,6.10444 16.0212,4.76907c2.6343,-0.64989 25.67455,-14.48094 38.40195,-22.19461c4.96684,-3.01024 8.36312,-5.08885 8.36312,-5.08885c0,0 4.45509,-2.38211 5.45351,-5.08586c0.50225,-1.36011 2.38538,-5.11994 2.40256,-7.57626c0.01734,-2.47828 -1.83354,-3.64713 -1.83354,-3.64713l0.11092,-14.41988l18.54908,6.97332l-11.90105,23.93683l2.64322,3.70143c0,0 -11.03864,2.33409 -17.09339,5.38793c-9.47345,4.77809 -41.91161,25.22475 -41.91161,25.22475z" fill="#918189" stroke-width="0"/><path d="M319.44091,211.11603l11.01016,-26.42784l12.83419,5.01277l5.58509,14.84132l-7.73762,14.54958z" fill="#96858d" stroke-width="0"/><path d="M314.55616,211.2902l-0.92443,-4.75704l12.35963,-23.35968l4.797,1.67354l-10.49932,26.59737z" fill="#8f8187" stroke-width="0"/><path d="M339.9385,218.76308c0,0 4.88348,-5.30787 5.48113,-10.8531c0.34411,-3.19292 -3.58534,-6.73637 -3.3744,-8.69374c0.403,-3.73907 1.02643,-9.52349 1.02643,-9.52349l5.86655,6.80666c0,0 0.70745,7.94604 -0.20217,12.15203c-0.6111,2.8258 -4.20399,8.29809 -5.97056,10.41752c-0.14893,0.17867 -1.2241,-0.30538 -1.3296,-0.16802c-0.25774,0.33553 0.5674,0.88538 0.5674,0.88538z" fill="#86787e" stroke-width="0"/><path d="M348.21918,197.83312c0,0 -1.53611,-4.7786 -5.59565,-7.30648c-4.59586,-2.8618 -20.57078,-8.98712 -20.57078,-8.98712l152.94116,41.12426l-0.00435,9.90904l3.58614,13.19059c0,0 -93.71252,-37.19653 -113.03607,-44.30153c-6.30555,-2.31846 -17.32044,-3.62874 -17.32044,-3.62874z" fill="#df8db7" stroke-width="0"/><path d="M187.15925,188.98869l8.01336,-35.69746c0,0 2.87417,-2.93938 3.41899,-2.96884c6.0067,-0.3249 39.75114,0.73344 44.75744,2.87919c5.48412,2.35056 -12.82191,8.32903 -12.82191,8.32903c0,0 -14.22371,-3.07132 -18.07216,0.04171c-5.22502,4.22661 -6.66409,22.18688 -6.66409,22.18688z" fill="#c77da3" stroke-width="0"/><path d="M265.45894,185.89051l-0.95302,-2.59349c0,0 9.12616,-5.81432 12.20145,-7.12639c3.17494,-1.35458 6.55875,-0.87763 6.55875,-0.87763l4.77636,4.20907c0,0 -4.02765,-2.01639 -6.83847,-1.22127c-2.41298,0.68258 -6.99702,2.27729 -10.69236,4.21329c-2.68808,1.40831 -5.05269,3.39638 -5.05269,3.39638z" fill="#414041" stroke-width="0"/><path d="M159.34958,124.78884l8.53914,-9.31493l45.64104,16.78156c0,0 -4.2581,3.18151 -7.86455,3.95027c-3.53962,0.75453 -13.57742,0.62045 -13.57742,0.62045z" fill="#979395" stroke-width="0"/><path d="M160.49482,123.99223l7.78831,-9.59101l45.64104,16.78156c0,0 -4.25811,3.18151 -7.86456,3.95027c-3.53962,0.75453 -13.57743,0.62045 -13.57743,0.62045z" fill="#bdb7ba" stroke-width="0"/><path d="M342.08806,219.89515l-1.58064,-1.12829l17.25451,1.89619c0,0 -4.05165,0.70232 -6.65801,0.59307c-2.60637,-0.10924 -9.01584,-1.36098 -9.01584,-1.36098z" fill="#887980" stroke-width="0"/><path d="M189.33195,190.28243c0,0 1.41518,-10.63015 3.23445,-19.05855c1.82819,-8.46954 3.56654,-16.40377 4.78289,-19.77587c0.20608,-0.57129 5.17997,-9.32314 5.82899,-9.64002c3.50317,-1.71058 8.09709,8.22898 13.70023,9.11337c8.29636,1.30951 26.40835,7.42128 26.40835,7.42128l-9.76706,2.06707c0,0 -19.24349,-4.02292 -23.26108,-0.02662c-5.43415,5.40539 -5.53161,27.60852 -5.53161,27.60852z" fill="#d486ae" stroke-width="0"/><path d="M191.60833,187.37024c0,0 7.85279,-40.65945 12.57571,-49.65946c2.20981,-4.211 2.20421,-13.91708 2.20421,-13.91708l45.14972,24.02571l-4.20927,15.57416c0,0 -29.00637,-13.96089 -37.1318,-10.26387c-5.424,2.46788 -8.77982,31.32568 -8.77982,31.32568z" fill="#e490bb" stroke-width="0"/><g stroke-width="0"><path d="M343.26745,176.01621l2.85564,-7.76653l8.78498,3.23012l-2.85564,7.76654z" fill="#454545"/><path d="M344.31259,175.58563l2.18372,-6.97286l10.63038,3.90864l-2.51857,6.84975z" fill="#b0b0b0"/><path d="M345.64537,171.2928l0.76221,-2.73531l10.83373,3.98341l-0.65824,1.79022c0,0 -7.42539,-2.38666 -9.06821,-2.84301c-0.54895,-0.15248 -1.8695,-0.19531 -1.8695,-0.19531z" fill="#bebebe"/><path d="M355.03565,178.94284c0,0 -4.31847,-4.31045 -2.48922,-7.63085c2.71822,-4.93407 6.42126,-3.06314 6.42126,-3.06314l37.31005,15.13899l-3.47189,9.44256z" fill="#9c989a"/><path d="M357.15805,178.3496c0,0 -1.11961,-4.16093 -1.02892,-5.11509c0.13445,-1.41435 3.02725,-3.50158 3.02725,-3.50158l39.02889,14.3859l-2.95973,6.89058z" fill="#898587"/><path d="M357.00484,178.50451l-0.28768,-2.17211l35.88303,13.19369l-0.66927,1.82025z" fill="#c1bcbf"/><path d="M358.06235,175.27725c0,0 -0.77934,-1.74408 -0.45587,-2.62385c0.30259,-0.82293 2.33823,-2.49563 2.33823,-2.49563l36.29124,13.34378l-1.88235,5.11945z" fill="#0d0d0d"/><path d="M357.7941,176.00679c0,0 -0.57098,-2.31075 -0.24749,-3.19053c0.30259,-0.82293 2.12985,-1.92894 2.12985,-1.92894l36.29125,13.34377l-1.88235,5.11946z" fill="#2e2e2e"/><path d="M352.60774,176.12772c-1.41833,-3.78919 0.48159,-5.5801 0.48159,-5.5801c0,0 0.30053,4.49201 1.15037,5.76083c1.00617,1.50221 3.92284,4.03002 3.92284,4.03002l-3.31745,-1.14501c0,0 -1.98776,-2.39888 -2.23736,-3.0657z" fill="#7d7a7c"/><path d="M360.12753,177.19472c0,0 -0.07095,-2.38286 0.3237,-3.45616c0.3469,-0.94348 1.91942,-2.64451 1.91942,-2.64451l4.52702,1.66453c0,0 -1.19338,1.90946 -1.493,2.72433c-0.41182,1.11998 -0.75013,3.37632 -0.75013,3.37632z" fill="#555555"/><path d="M368.21484,180.16833c0,0 1.49642,-2.13804 1.89106,-3.21133c0.3469,-0.94348 0.35208,-2.88934 0.35208,-2.88934l5.05263,1.85777c0,0 -0.98293,1.46592 -1.28255,2.28083c-0.41182,1.11998 -0.96056,3.81984 -0.96056,3.81984z" fill="#555555"/><path d="M376.96854,183.38694c0,0 1.49643,-2.13804 1.89108,-3.21133c0.3469,-0.94348 0.35207,-2.88933 0.35207,-2.88933l4.97754,1.83015c0,0 -0.98293,1.46592 -1.28255,2.28083c-0.41182,1.11998 -0.96056,3.81984 -0.96056,3.81984z" fill="#555555"/><path d="M386.03819,186.72173c0,0 1.5406,-1.74295 1.93523,-2.81629c0.3469,-0.94348 0.3079,-3.2844 0.3079,-3.2844l4.82737,1.77495c0,0 0.09302,2.14564 -0.20661,2.96057c-0.41182,1.11998 -2.03652,3.14012 -2.03652,3.14012z" fill="#555555"/><path d="M361.87789,171.66293l-0.34818,-0.98039l33.37786,12.27257l-1.71607,0.2214c0,0 -2.65622,-0.97667 -4.96716,-1.82636c-0.5037,-0.18522 -1.34348,-0.84424 -2.09794,-1.1217c-0.72954,-0.26825 -1.36663,-0.15219 -2.27345,-0.48563c-1.41412,-0.51996 -3.00964,-1.10661 -4.67996,-1.72077c-0.69251,-0.25463 -1.16271,-0.83617 -1.87335,-1.09745c-0.63193,-0.23233 -1.50318,-0.14406 -2.13806,-0.37749c-1.57572,-0.57938 -3.13593,-1.15305 -4.60285,-1.6924c-0.6736,-0.24768 -1.17627,-0.89955 -1.80299,-1.12999c-0.76509,-0.28133 -1.64094,-0.1363 -2.31127,-0.38277c-2.73447,-1.00542 -4.56656,-1.67905 -4.56656,-1.67905z" fill="#474747"/></g><g><path d="M200.55903,183.8116l4.47829,-1.40854c0,0 1.67997,3.61683 4.03101,5.43485c2.07943,1.60794 9.36081,4.9205 9.36081,4.9205l-3.99462,3.17056z" fill="#6d6a6b" stroke-width="0"/><path d="M190.75194,187.13134l11.21297,-3.74571c0,0 2.25729,3.23421 4.06439,4.60389c2.73391,2.07209 10.74287,6.61902 10.74287,6.61902l-5.50141,2.56648z" fill="#615e5f" stroke-width="0"/><path d="M185.04704,208.43896l6.39774,-21.69823c0,0 3.81343,2.24592 8.32833,3.93753c3.52406,1.32037 7.6155,1.92218 9.73672,3.35029c3.72396,2.50714 30.9265,25.67357 30.9265,25.67357l-1.18509,10.40507z" fill="#575455" stroke-width="0"/><path d="M214.64417,190.50952c8.42792,-2.83067 20.64391,-12.67157 22.71235,-14.65073c1.49014,-1.42584 3.95614,-6.1405 3.95614,-6.1405l4.87867,9.05467c0,0 -1.58292,21.25633 -4.83923,33.53357c-0.91115,3.43528 0.09019,8.0069 -1.52925,8.97389c-1.45099,0.8664 -18.16055,-2.83768 -22.95947,-5.41701c-10.09918,-5.42805 -16.49806,-4.80874 -18.19222,-11.0523c-1.69418,-6.24356 7.13423,-9.67816 7.13423,-9.67816c0,0 6.64472,-3.8865 8.83883,-4.62346z" fill="#504e4f" stroke-width="0"/><path d="M230.4825,161.35924c0,0 0.88667,-1.26448 1.91999,-1.59148c1.32894,-0.42055 5.39229,-0.72254 5.39229,-0.72254c0,0 8.07807,5.17285 10.0441,8.54874c1.81396,3.11468 -7.62892,10.59682 -7.62892,10.59682l-0.03305,-5.72444z" fill="#464445" stroke-width="0"/><path d="M235.99152,213.70355c0,0 -10.87275,2.66749 -18.89507,-0.09957c-7.73918,-2.66938 -12.64934,-10.75225 -12.05807,-12.05019c0.32033,-0.70321 8.90192,-1.06954 13.62167,-3.83191c5.24648,-3.07062 6.75564,-8.59043 8.71731,-10.01121c5.47645,-3.96646 16.91521,-10.60533 18.00502,-16.64383c1.1429,-6.33272 -8.20054,-11.97779 -8.20054,-11.97779c0,0 4.39168,-0.78431 9.11588,0.81434c2.01233,0.68096 5.8023,3.55104 6.53602,4.23098c2.40607,2.22965 3.70983,4.45239 3.70983,4.45239c0,0 5.11766,-3.31701 8.60527,-2.36438c3.48762,0.95264 20.13965,10.21591 20.13965,10.21591l-19.56081,6.22609z" fill="#555354" stroke-width="0"/><path d="M226.80008,188.13235c0,0 8.08909,-8.61022 14.40445,-12.07878c6.31536,-3.46857 11.2408,-5.04621 14.55614,-3.8272c2.4008,0.88273 2.51386,10.10361 2.51386,10.10361l-20.32464,23.17922c0,0 -14.85454,-1.96805 -15.38497,-4.80613c-0.41893,-2.24151 4.23518,-12.5707 4.23518,-12.5707z" fill="#585758" stroke-width="0"/><path d="M238.54876,221.53879c0,0 -0.56482,-6.80396 0.78434,-9.52792c1.88478,-3.80535 7.60682,-15.18364 7.60682,-15.18364l-1.76486,10.46985c0,0 -3.96497,8.92765 -4.88602,11.81719c-0.88867,2.78793 -0.3018,5.31616 -0.3018,5.31616z" fill="#3f3e3f" stroke-width="0"/><path d="M243.84243,204.45059c0.39453,-1.63935 3.30604,-8.78448 3.30604,-8.78448c0,0 13.99837,-10.3745 16.88249,-12.14079c0.84552,-0.51779 4.59236,-0.98437 4.59236,-0.98437l-3.22022,3.98761c0,0 -1.68559,0.02375 -2.01925,0.41019c-0.3555,0.41171 -0.05238,1.98901 -0.05238,1.98901l-7.74025,6.18918c0,0 -1.89797,0.37887 -2.24054,0.79136c-0.34268,0.41258 -0.00376,1.48348 -0.00376,1.48348c0,0 -6.70317,7.06183 -8.32722,9.03751c-0.7509,0.91348 -1.02466,2.33921 -1.02466,2.33921c0,0 -0.54715,-2.67854 -0.1526,-4.31793z" fill="#474647" stroke-width="0"/><path d="M238.75888,180.2406l16.92311,14.99673c0,0 -1.46523,0.5398 -1.87387,0.96388c-0.30154,0.31292 -0.35575,1.35001 -0.35575,1.35001z" fill="#3f3e3e" stroke-width="NaN"/><path d="M247.96305,172.59425l17.66038,14.01434c0,0 -1.33755,0.40671 -1.72757,0.85604c-0.40658,0.46842 -0.43222,1.60886 -0.43222,1.60886z" fill="#3f3e3e" stroke-width="NaN"/><path d="M226.38984,195.21933c0,0 7.38073,10.91034 10.83489,18.54923c3.45415,7.63893 1.21622,8.10187 1.21622,8.10187z" fill="#636162" stroke-width="NaN"/><path d="M246.8172,178.16441c0,0 -6.63418,0.65485 -10.28304,2.61178c-3.64887,1.95693 -17.05555,14.26966 -16.03905,11.50508c1.01649,-2.76457 20.48293,-17.68445 22.16761,-17.06504c0.63773,0.23449 3.88165,0.21019 4.56785,0.7155c1.12649,0.82959 -0.41335,2.23264 -0.41335,2.23264z" fill="#918f91" stroke-width="0"/><path d="M184.66352,208.16008l13.73791,3.03934c0,0 11.93677,4.03495 14.82724,5.26295c7.03917,2.99053 27.56118,12.74539 27.56118,12.74539l-2.60093,5.7785c0,0 -24.09482,-5.0605 -30.11167,-8.67456c-1.74067,-1.04554 -6.9867,-3.63295 -10.51437,-6.37073c-6.90349,-5.3577 -12.89934,-11.78088 -12.89934,-11.78088z" fill="#626061" stroke-width="0"/><path d="M237.36712,234.30921c0,0 1.51935,-4.01497 1.90545,-6.36601c0.43398,-2.64247 0.57167,-8.717 0.57167,-8.717l1.67284,0.61507c0,0 0.07551,4.7763 -0.31736,7.16853c-0.42956,2.61552 -2.15975,7.9145 -2.15975,7.9145z" fill="#4a494a" stroke-width="0"/><path d="M236.89525,235.02677l1.25518,-3.15801c0,0 0.44058,0.44403 0.69542,0.53774c0.30279,0.11134 0.96351,0.07224 0.96351,0.07224l-0.93316,3.04139c0,0 -0.86951,0.11459 -1.23046,0.02469c-0.27659,-0.06886 -0.75042,-0.51803 -0.75042,-0.51803z" fill="#363536" stroke-width="0"/><path d="M239.74857,220.28344l0.19713,-1.65422c0,0 0.51404,-0.1886 0.88032,-0.11703c0.34883,0.06817 0.7968,0.36366 0.7968,0.36366l-0.12842,1.80282c0,0 -0.62734,0.31 -0.92645,0.24226c-0.2818,-0.06379 -0.81937,-0.63749 -0.81937,-0.63749z" fill="#585758" stroke-width="0"/><path d="M198.23881,219.46288c0,0 -6.39111,-5.49603 -5.92074,-6.77531c0.47274,-1.28566 6.73078,-0.23211 6.73078,-0.23211c0,0 10.35467,3.55075 14.94756,5.42339c2.57129,1.04839 10.26396,4.85598 10.26396,4.85598c0,0 6.48005,3.50584 6.84761,4.86809c0.40092,1.48594 -4.20644,2.8195 -4.20644,2.8195c0,0 -12.39291,-3.16515 -16.04228,-4.72884c-1.29638,-0.5555 -12.62042,-6.23062 -12.62042,-6.23062z" fill="#6b696a" stroke-width="0"/><path d="M190.87535,209.40221l-1.92082,-0.46034c0,0 1.77322,-3.00751 3.89745,-0.90295c2.12424,2.10459 20.28162,7.70318 20.28162,7.70318z" fill="#4b4949" stroke-width="0"/><path d="M184.78168,208.05005c0,0 -1.94116,-0.5096 -1.18627,-4.11322c0.38211,-1.82412 3.6467,-15.74487 3.6467,-15.74487l4.50692,-1.43173c0,0 -1.42852,5.8608 -2.23656,8.65591c-1.07471,3.71745 -3.86434,12.95248 -3.86434,12.95248z" fill="#3f3d3e" stroke-width="0"/><path d="M191.12013,209.66899c0,0 3.74132,-0.92375 18.92763,4.30085c1.25411,0.43148 -1.67385,-0.64957 6.97336,3.07042c8.64721,3.71996 11.79334,6.48842 11.79334,6.48842c0,0 -13.77159,-6.20299 -19.59335,-8.34357c-6.6361,-2.43999 -18.10099,-5.5161 -18.10099,-5.5161z" fill="#838082" stroke-width="0"/><path d="M206.08649,183.60019c0,0 -4.85697,0.54476 -7.45594,1.31047c-2.92116,0.86062 -9.21759,3.60191 -9.21759,3.60191l-0.18356,-1.77395c0,0 4.86134,-2.31847 7.50582,-3.0976c2.89132,-0.85182 9.16771,-1.81479 9.16771,-1.81479z" fill="#4a494a" stroke-width="0"/><path d="M207.05209,183.68055l-3.92224,0.34841c0,0 0.31356,-0.57344 0.28558,-0.84367c-0.03323,-0.32109 -0.39495,-0.88882 -0.39495,-0.88882l3.57319,-0.60584c0,0 0.54081,0.71739 0.62433,1.07996c0.064,0.27784 -0.16591,0.90993 -0.16591,0.90993z" fill="url(#color-3)" stroke-width="0"/><path d="M190.5437,188.09911l-3.71173,1.54373l0.61822,-2.09819l2.64893,-1.18061c0,0 0.62328,0.41042 0.69944,0.70768c0.07177,0.28006 -0.25489,1.02738 -0.25489,1.02738z" fill="url(#color-4)" stroke-width="0"/></g><path d="M320.89732,210.48328c0,0 2.3953,-3.82718 3.34707,-4.95724c0.64609,-0.76713 3.36773,-1.29179 3.36773,-1.29179l16.04916,5.66856c0,0 -3.19947,5.00082 -4.02864,6.15167c-0.36324,0.50415 -1.60273,0.78635 -1.60273,0.78635z" fill="#665b60" stroke-width="0"/><path d="M281.56998,176.57166c0,0 -3.02192,-2.77584 -7.24999,-5.55809c-2.68777,-1.7687 -6.49988,-3.7742 -8.28306,-4.31716c-5.18429,-1.57857 -9.31024,2.34343 -9.31024,2.34343c0,0 -2.27301,-3.30308 -3.95621,-4.83259c-1.57119,-1.42775 -5.31146,-3.86946 -5.31146,-3.86946c0,0 24.80767,3.69691 28.62244,4.48146c7.31324,1.50403 32.22024,11.07902 32.22024,11.07902l0.91161,15.55595z" fill="#8b7c84" stroke-width="0"/><g stroke-width="0"><path d="M322.58797,210.10044c0,0 1.33853,-2.27406 2.03247,-2.97223c0.71954,-0.72395 3.13231,-0.9581 3.13231,-0.9581l13.6374,5.01426c0,0 0.02336,1.05587 -0.45217,1.66712c-0.64658,0.83106 -4.20066,2.45147 -4.20066,2.45147z" fill="#585852"/><path d="M322.84519,209.40088c0,0 1.08129,-1.57446 1.77525,-2.27265c0.71954,-0.72395 3.38952,-1.65767 3.38952,-1.65767l13.6374,5.01427c0,0 -0.23384,1.75548 -0.70941,2.36671c-0.64658,0.83106 -3.94342,1.75187 -3.94342,1.75187z" fill="#797971"/><path d="M339.82056,210.34113c-0.92302,-0.52897 -11.73793,-4.79459 -11.73793,-4.79459l13.61875,5.00742l-0.84958,2.31059c0,0 -0.10822,-1.99444 -1.03123,-2.52343z" fill="#85857b"/></g><path d="M330.20106,193.54238l1.79097,-4.87093l6.69753,2.46258l-0.57324,5.31869z" fill="#7c6e75" stroke-width="0"/><path d="M329.53612,165.14476l-1.11405,-9.07311l1.29457,0.47602l2.77478,10.16491z" fill="#d495b6" stroke-width="0"/><path d="M295.56138,144.52436l13.47319,1.66201l19.56536,9.97741l0.96441,8.97654z" fill="#df9cbe" stroke-width="0"/><path d="M328.6183,198.31702l0.55968,-1.52214l10.1985,3.74985l0.35361,1.85797z" fill="#7c6e75" stroke-width="0"/><path d="M294.7332,172.90827c0,0 -17.43319,-5.13308 -22.89254,-6.60752c-8.26662,-2.23262 -25.09066,-5.94111 -25.09066,-5.94111c0,0 15.6332,1.0168 28.83402,4.25524c14.31303,3.51126 56.15947,17.34482 56.15947,17.34482l-1.86665,5.07678z" fill="#75686e" stroke-width="0"/><path d="M285.21313,178.75242l-2.84701,-1.65498c0,0 9.99308,1.13384 14.74137,3.69243c4.74828,2.55859 11.69243,10.55134 11.69243,10.55134z" fill="#7c6e76" stroke-width="0"/><path d="M243.00179,158.93791c0,0 -25.05614,-25.61701 -24.2985,-30.26096c0.68827,-4.21845 27.17942,12.49515 27.49626,12.49632c5.54371,0.0205 75.50049,18.05552 75.50049,18.05552l22.6311,15.55487l49.71777,17.67168l2.17444,15.26353c0,0 -58.18072,-20.14684 -80.5432,-28.1955c-7.76262,-2.79391 -23.33733,-9.21059 -38.09459,-13.4217c-11.38327,-3.24831 -29.4727,-5.30038 -29.4727,-5.30038z" fill="#ee96c3" stroke-width="0"/><path d="M117.47454,126.14764l10.07765,-17.76775c0,0 2.33905,-6.65581 9.93057,-6.31078c9.42893,0.42856 24.66413,7.93229 26.60758,8.64687c1.49138,0.54838 -15.70942,5.32236 -15.70942,5.32236l-6.95509,18.91587z" fill="#c4b4b3" stroke-width="0"/><g stroke-width="0"><path d="M387.66018,206.0428l2.54415,-15.1986l84.72398,38.35907l-2.71422,5.18905l-46.19106,-11.80875z" fill="#ad6d8e"/><path d="M417.3345,201.679l9.68085,-5.25469l25.86459,7.24165l-7.63018,8.27712z" fill="#8d788b"/><path d="M393.01807,194.00464l5.60277,-15.2379l28.45901,17.6857l-6.6679,4.86692z" fill="#857183"/><path d="M433.97692,205.52639l18.84378,-1.88087l24.8293,13.14899l-2.64759,6.37176z" fill="#947e92"/><path d="M389.31514,191.99475l7.12137,-10.98311l2.41523,-2.37632l-5.1985,14.13842z" fill="#756474"/><path d="M389.97018,203.46737l3.48928,-11.57998l41.22192,13.39996l-6.69199,14.64751z" fill="#746373"/><path d="M427.98747,219.91765c0,0 2.53332,-5.78884 3.70138,-8.38969c1.00003,-2.22678 2.88142,-6.26816 2.88142,-6.26816l41.17093,16.10657l-1.0217,8.57416z" fill="#867284"/><path d="M389.37742,191.94261l4.30848,-0.04694l-3.69017,11.58922z" fill="#6f5e6d"/><path d="M470.91508,214.20347l-17.43992,-9.99623l23.83042,12.63649l-1.56483,3.20216c0,0 0.24725,-1.58111 -0.64361,-2.65966c-0.59592,-0.72148 -4.1821,-3.18279 -4.1821,-3.18279z" fill="#978195"/><path d="M432.62992,204.33882c0,0 8.6806,-0.50036 11.75543,-0.81252c2.23989,-0.22738 4.99564,-0.888 4.99564,-0.888l2.33931,0.98013l-16.60442,1.63443z" fill="#9c859a"/><path d="M418.85358,200.13469c0,0 2.18533,-2.12893 3.91865,-2.93026c1.73328,-0.80136 4.18107,-0.76993 4.18107,-0.76993l-5.78937,4.54969z" fill="#806b7d"/><path d="M454.90336,202.55121l3.98083,-4.64491l12.97786,8.74947l3.04736,7.93938z" fill="#55494f"/><path d="M451.55933,204.30506c0,0 1.28862,-0.3681 2.01639,-0.72356c0.54818,-0.26773 1.67173,-1.32984 1.67173,-1.32984l19.56253,11.45468c0,0 0.64306,0.76594 1.08087,1.2739c0.45754,0.53085 1.60777,1.84557 1.60777,1.84557z" fill="#685960"/><path d="M455.73795,201.90749l3.13904,-3.73133l12.1292,8.00433c0,0 -6.98589,-4.20166 -11.27958,-5.50903c-2.49058,-0.75836 -3.98867,1.23603 -3.98867,1.23603z" fill="#41383c"/></g><path d="M132.56868,89.84635l1.79736,-4.88837c0,0 21.41124,6.49279 42.00076,14.12395c12.26948,4.54749 24.45434,10.72993 31.07124,12.78985c14.91965,4.64461 26.30248,4.02237 26.30248,4.02237l-9.62398,7.80115z" fill="#ffa1d1" stroke-width="0"/><path d="M125.33236,102.05682l7.57769,-14.34904c0,0 50.71891,20.84403 67.62173,26.58945c10.01254,3.40336 24.44994,4.70653 24.44994,4.70653l-5.05305,13.74282c0,0 -63.35421,-23.29446 -78.62692,-28.91003c-6.27955,-2.30891 -25.24708,23.45298 -25.24708,23.45298z" fill="#ee96c3" stroke-width="0"/><path d="M267.13507,235.69453l13.40183,-9.55813c0,0 14.78161,-11.46019 25.97276,-14.65731c2.84387,-0.81244 8.10875,-0.15145 8.10875,-0.15145c0,0 -8.57555,2.15832 -11.97429,3.88279c-8.0263,4.07247 -35.509,20.48409 -35.509,20.48409z" fill="#70646b" stroke-width="0"/><path d="M379.62177,207.96957l0.29883,-19.07022l1.26718,0.46592c0,0 -0.0905,5.77547 -0.13834,8.82724c-0.0068,0.43483 0.85291,2.05195 0.84447,2.59053c-0.01463,0.93363 -0.89866,0.86805 -0.91503,1.91156c-0.04553,2.90568 -0.08995,5.74089 -0.08995,5.74089z" fill="#795467" stroke-width="0"/><path d="M220.3732,133.37007c0,0 -7.57689,-9.76712 -5.63654,-13.07568c1.16178,-1.98102 19.71393,-3.63227 19.71393,-3.63227l63.71659,25.20925l-2.6046,2.34112l26.01742,15.15819l-76.55636,0.16596c0,0 1.19456,-5.54204 5.56189,-6.98146c4.24459,-1.39898 20.28429,-1.53718 20.28429,-1.53718c0,0 -32.09839,-11.85432 -38.9115,-14.45177c-2.27301,-0.86657 -11.58515,-3.19616 -11.58515,-3.19616z" fill="#f399c8" stroke-width="0"/><g><path d="M232.10003,117.84797l1.11755,-3.03941l165.70739,60.9283l-1.11755,3.0394z" fill="#584f54" stroke-width="0"/><path d="M393.39905,173.96954l0.94429,-2.56823l2.86756,1.05436l1.58589,3.49854z" fill="#685d63" stroke-width="0"/><g fill="#685d63" stroke-width="0"><g><g><g><path d="M387.06216,171.90503l1.02737,-2.79411l3.64269,1.33936l-1.02737,2.79411z"/><path d="M381.15151,169.73179l1.02737,-2.79411l3.64269,1.33936l-1.02737,2.79411z"/></g><g><path d="M375.46389,167.6405l1.02737,-2.79412l3.64269,1.33937l-1.02737,2.79411z"/><path d="M369.55322,165.46722l1.02737,-2.79411l3.64268,1.33937l-1.02738,2.79412z"/></g></g><g><g><path d="M363.75408,163.33497l1.02738,-2.79412l3.64268,1.33936l-1.02737,2.79411z"/><path d="M357.8434,161.16172l1.02737,-2.79411l3.64269,1.33936l-1.02737,2.79412z"/></g><g><path d="M352.15581,159.07044l1.02737,-2.79412l3.64268,1.33937l-1.02737,2.79411z"/><path d="M346.24521,156.89719l1.02737,-2.79411l3.64268,1.33936l-1.02737,2.79412z"/></g></g></g><g><g><g><path d="M346.02215,156.81522l1.02737,-2.79411l3.64268,1.33936l-1.02737,2.79411z"/><path d="M340.11154,154.64194l1.02737,-2.79411l3.64269,1.33937l-1.02737,2.79411z"/></g><g><path d="M334.42389,152.55068l1.02737,-2.79412l3.64268,1.33936l-1.02737,2.79411z"/><path d="M328.51325,150.37741l1.02737,-2.79411l3.64269,1.33935l-1.02737,2.79412z"/></g></g><g><g><path d="M322.71414,148.24518l1.02737,-2.79412l3.64269,1.33936l-1.02737,2.79411z"/><path d="M316.80346,146.0719l1.02737,-2.79412l3.64269,1.33937l-1.02737,2.79412z"/></g><g><path d="M311.11585,143.98064l1.02737,-2.79411l3.6427,1.33935l-1.02737,2.79412z"/><path d="M305.2052,141.80736l1.02737,-2.79411l3.64269,1.33936l-1.02737,2.79411z"/></g></g></g></g><g><g fill="#685d63" stroke-width="0"><g><g><path d="M299.36815,139.66117l1.02737,-2.79413l3.64269,1.33937l-1.02737,2.79411z"/><path d="M293.4575,137.48789l1.02737,-2.79411l3.64269,1.33937l-1.02737,2.79412z"/></g><g><path d="M287.76987,135.39667l1.02737,-2.79411l3.64269,1.33937l-1.02737,2.79412z"/><path d="M281.85927,133.2234l1.02737,-2.79411l3.64269,1.33936l-1.02737,2.79412z"/></g></g><g><g><path d="M276.06012,131.09115l1.02737,-2.79412l3.64269,1.33936l-1.02737,2.79411z"/><path d="M270.14946,128.91787l1.02737,-2.79411l3.64269,1.33936l-1.02737,2.79412z"/></g><g><path d="M264.46182,126.82661l1.02737,-2.79411l3.64268,1.33936l-1.02737,2.79412z"/><path d="M258.55118,124.65335l1.02737,-2.79411l3.64269,1.33936l-1.02737,2.79412z"/></g></g></g><g><g fill="#685d63" stroke-width="0"><g><path d="M258.32816,124.57134l1.02737,-2.79412l3.64269,1.33936l-1.02737,2.79411z"/><path d="M252.41748,122.39805l1.02737,-2.79412l3.64269,1.33936l-1.02737,2.79412z"/></g><g><path d="M246.72988,120.30683l1.02737,-2.79411l3.64269,1.33936l-1.02737,2.79412z"/><path d="M240.81925,118.13355l1.02737,-2.79412l3.64269,1.33936l-1.02737,2.79411z"/></g></g><g fill="none" stroke-width="1" font-family="sans-serif" font-weight="normal" font-size="12" text-anchor="start"><g/><g/></g></g></g><path d="M233.19905,115.06622l3.4745,-1.6379l2.86756,1.05437l-0.9443,2.56824z" data-paper-data="{&quot;index&quot;:null}" fill="#685d63" stroke-width="0"/></g><path d="M275.26482,165.57223l-2.48829,-0.62721c0,0 2.46184,-1.83041 11.85667,0.42241c7.12269,1.70801 26.8753,7.57346 38.68673,11.12177c5.48493,1.64773 61.6222,12.6975 61.6222,12.6975l4.88436,1.78068c0,0 -61.59777,-11.30716 -67.07071,-12.97525c-12.10216,-3.68861 -32.46346,-9.85699 -38.43401,-11.43591c-3.25012,-0.85951 -9.05692,-0.98395 -9.05692,-0.98395z" fill="#70475c" stroke-width="0"/><path d="M363.40955,218.2549l-5.2583,0.03323l6.53384,-17.76812c0,0 7.29609,2.73424 14.43155,5.40828c20.48375,7.67635 118.93,44.56943 118.93,44.56943l-2.32157,6.31399z" fill="#5a5959" stroke-width="0"/><path d="M361.98874,219.46748l2.06126,-2.44491l131.72426,39.69055l-14.96866,6.44166z" fill="#4b4a4a" stroke-width="0"/><path d="M477.78696,261.84338c0,0 -4.43057,-5.06486 -6.7839,-7.45172c-1.26122,-1.27917 -6.2386,-5.75619 -6.2386,-5.75619c0,0 6.50781,5.48663 9.3198,7.53058c1.00357,0.72945 1.80181,1.81437 2.84346,2.76008c0.33588,0.30492 2.99947,-1.65547 5.37335,-2.60918c0.70954,-0.28508 1.6727,0.45748 2.27996,0.32834c1.39213,-0.29611 2.10575,-1.19659 2.10575,-1.19659c0,0 -0.00406,0.98892 -1.56698,1.70745c-0.42643,0.19606 -2.2402,-0.09545 -2.67,0.13047c-1.72258,0.90546 -3.21465,2.06059 -3.70508,2.51017c-1.36854,1.2546 0.41566,2.55163 0.41566,2.55163z" fill="#414040" stroke-width="0"/><path d="M220.2246,133.63233l7.411,-9.10033l6.79114,1.83183c0,0 -1.80613,2.15746 -2.87057,3.42897c-0.26808,0.32026 11.47652,2.55439 11.57532,3.30565c0.18336,1.39386 -6.34395,2.99988 -7.0134,3.79955c-0.76533,0.91419 -9.07164,-1.71819 -9.07164,-1.71819z" fill="#303030" stroke-width="0"/><path d="M220.21756,133.23546l7.02473,-8.3526c0,0 2.36565,2.25982 2.02573,3.18427c-0.61847,1.68209 -4.09763,6.5688 -4.09763,6.5688z" fill="#252525" stroke-width="0"/><path d="M357.21779,220.77444l1.01888,-2.77101l6.20331,-0.86477l-2.1809,2.34374c0,0 -1.48419,0.87695 -2.37081,1.10418c-0.78015,0.19995 -2.67044,0.18783 -2.67044,0.18783z" fill="#383838" stroke-width="0"/><g><g fill="#4b4b4b" stroke-width="0"><g data-paper-data="{&quot;origPos&quot;:null}"><g data-paper-data="{&quot;origPos&quot;:null}"><path d="M419.7612,245.23146l0.78432,-2.13313l3.51963,1.29411l-0.78432,2.13313z" data-paper-data="{&quot;origPos&quot;:null}"/><path d="M413.93438,242.96795l0.78432,-2.13313l3.51962,1.29411l-0.78432,2.13312z" data-paper-data="{&quot;origPos&quot;:null}"/></g><g data-paper-data="{&quot;origPos&quot;:null}"><path d="M431.45408,249.65188l0.78432,-2.13313l3.51963,1.29411l-0.78432,2.13312z" data-paper-data="{&quot;origPos&quot;:null}"/><path d="M425.62724,247.38834l0.78432,-2.13312l3.51963,1.29411l-0.78433,2.13313z" data-paper-data="{&quot;origPos&quot;:null}"/></g></g><g data-paper-data="{&quot;origPos&quot;:null,&quot;index&quot;:null}"><g data-paper-data="{&quot;origPos&quot;:null}"><path d="M449.55725,256.06601l0.78432,-2.13314l3.51963,1.29411l-0.78432,2.13312z" data-paper-data="{&quot;origPos&quot;:null}"/><path d="M455.46251,258.1162l0.78431,-2.13312l3.51963,1.29411l-0.78431,2.13311z" data-paper-data="{&quot;origPos&quot;:null}"/></g><g data-paper-data="{&quot;origPos&quot;:null}"><path d="M437.78598,251.85891l0.78433,-2.13313l3.51962,1.29411l-0.78431,2.13312z" data-paper-data="{&quot;origPos&quot;:null}"/><path d="M443.69122,253.90917l0.78432,-2.13312l3.51963,1.2941l-0.78432,2.13312z" data-paper-data="{&quot;origPos&quot;:null}"/></g></g></g><path d="M382.50939,222.74971l4.69717,-12.77495l79.2845,29.15179l-4.69717,12.77495z" data-paper-data="{&quot;origPos&quot;:null}" fill="#444444" stroke-width="0"/><path d="M380.97221,227.21582l1.65042,-4.48865l79.05147,29.06611l-1.65043,4.48866z" data-paper-data="{&quot;origPos&quot;:null}" fill="#414141" stroke-width="0"/><path d="M380.51338,228.56458l0.55825,-1.51825l79.04142,29.06242l-0.55824,1.51825z" data-paper-data="{&quot;origPos&quot;:null}" fill="#3f3f3f" stroke-width="0"/><g stroke-width="0"><g data-paper-data="{&quot;origPos&quot;:null}" fill="#5a5a5a"><g data-paper-data="{&quot;origPos&quot;:null}"><path d="M423.09534,237.75717l4.74508,-12.90529l3.35203,1.23249l-4.74509,12.90529z" data-paper-data="{&quot;origPos&quot;:null}"/></g><g data-paper-data="{&quot;origPos&quot;:null}"><path d="M428.79376,239.8524l4.74508,-12.90529l3.35204,1.2325l-4.74509,12.90528z" data-paper-data="{&quot;origPos&quot;:null}"/><path d="M434.65982,242.00927l4.7451,-12.90528l3.35203,1.23249l-4.74509,12.90528z" data-paper-data="{&quot;origPos&quot;:null}"/></g></g><g data-paper-data="{&quot;origPos&quot;:null}" fill="#5a5a5a"><g data-paper-data="{&quot;origPos&quot;:null}"><path d="M440.86105,244.28938l4.74508,-12.90529l3.35203,1.23249l-4.74509,12.9053z" data-paper-data="{&quot;origPos&quot;:null}"/><path d="M446.72709,246.44623l4.74509,-12.90528l3.35203,1.23249l-4.74509,12.90528z" data-paper-data="{&quot;origPos&quot;:null}"/></g><g data-paper-data="{&quot;origPos&quot;:null}"><path d="M452.42554,248.54148l4.7451,-12.90528l3.35202,1.23248l-4.7451,12.90529z" data-paper-data="{&quot;origPos&quot;:null}"/><path d="M458.29159,250.69833l4.7451,-12.90529l3.35202,1.23249l-4.74508,12.90529z" data-paper-data="{&quot;origPos&quot;:null}"/></g></g><path d="M426.50492,239.01082l-1.49122,1.50913l-4.93424,-1.76834l3.24995,-9.24272l4.45576,-4.67737l-4.68037,12.9291z" fill="#3a3a3a"/><path d="M432.20106,241.10521l-1.49123,1.50914l-4.93424,-1.76835l3.24996,-9.24272l4.45575,-4.67736l-4.68037,12.92909z" fill="#3a3a3a"/><path d="M438.02662,243.24719l-1.49123,1.50913l-4.93424,-1.76835l3.24995,-9.24271l4.45575,-4.67736l-4.68037,12.9291z" fill="#3a3a3a"/><path d="M444.30533,245.5558l-1.49122,1.50913l-4.93424,-1.76835l3.24995,-9.24272l4.45575,-4.67736l-4.68036,12.9291z" fill="#3a3a3a"/><path d="M450.19564,247.72158l-1.49122,1.50913l-4.93424,-1.76835l3.24995,-9.24272l4.45575,-4.67736l-4.68036,12.9291z" fill="#3a3a3a"/><path d="M455.82703,249.79215l-1.49123,1.50913l-4.93423,-1.76835l3.24995,-9.24272l4.45575,-4.67736l-4.68036,12.92911z" fill="#3a3a3a"/><path d="M461.72478,251.96069l-1.49122,1.50913l-4.93424,-1.76835l3.24996,-9.24271l4.45575,-4.67737l-4.68037,12.9291z" fill="#3a3a3a"/></g><g stroke-width="0"><g data-paper-data="{&quot;origPos&quot;:null}" fill="#5a5a5a"><g data-paper-data="{&quot;origPos&quot;:null}"><path d="M382.52197,222.83891l4.7451,-12.90528l3.35204,1.23249l-4.74508,12.90529z" data-paper-data="{&quot;origPos&quot;:null}"/></g><g data-paper-data="{&quot;origPos&quot;:null}"><path d="M388.22039,224.93416l4.74508,-12.90528l3.35203,1.23249l-4.74509,12.90529z" data-paper-data="{&quot;origPos&quot;:null}"/><path d="M394.08643,227.09101l4.74509,-12.90529l3.35204,1.23249l-4.7451,12.90529z" data-paper-data="{&quot;origPos&quot;:null}"/></g></g><g data-paper-data="{&quot;origPos&quot;:null}" fill="#5a5a5a"><g data-paper-data="{&quot;origPos&quot;:null}"><path d="M400.28769,229.37111l4.7451,-12.90529l3.35204,1.2325l-4.74509,12.90528z" data-paper-data="{&quot;origPos&quot;:null}"/><path d="M406.15379,231.52799l4.74509,-12.90529l3.35204,1.2325l-4.7451,12.90528z" data-paper-data="{&quot;origPos&quot;:null}"/></g><g data-paper-data="{&quot;origPos&quot;:null}"><path d="M411.85222,233.62323l4.74509,-12.90528l3.35204,1.23249l-4.7451,12.90528z" data-paper-data="{&quot;origPos&quot;:null}"/><path d="M417.71827,235.78012l4.7451,-12.90529l3.35204,1.2325l-4.7451,12.9053z" data-paper-data="{&quot;origPos&quot;:null}"/></g></g><path d="M385.93152,224.09256l-1.49123,1.50913l-2.57694,-0.90157l0.66803,-1.85773z" fill="#3a3a3a"/><path d="M391.62771,226.18699l-1.49122,1.50914l-4.93424,-1.76835l3.24996,-9.24271l4.45576,-4.67736l-4.68037,12.9291z" fill="#3a3a3a"/><path d="M397.45325,228.32894l-1.49122,1.50913l-4.93424,-1.76835l3.24995,-9.24271l4.45576,-4.67737l-4.68037,12.92911z" fill="#3a3a3a"/><path d="M403.73194,230.63751l-1.49122,1.50912l-4.93425,-1.76834l3.24996,-9.24272l4.45576,-4.67736l-4.68037,12.9291z" fill="#3a3a3a"/><path d="M409.62232,232.80335l-1.49123,1.50913l-4.93424,-1.76835l3.24995,-9.24272l4.45576,-4.67736l-4.68037,12.92911z" fill="#3a3a3a"/><path d="M415.2537,234.8739l-1.49122,1.50913l-4.93424,-1.76835l3.24995,-9.24271l4.45576,-4.67737l-4.68037,12.9291z" fill="#3a3a3a"/><path d="M421.15148,237.04248l-1.49122,1.50914l-4.93424,-1.76835l3.24995,-9.24272l4.45576,-4.67736l-4.68037,12.9291z" fill="#3a3a3a"/></g><g><g data-paper-data="{&quot;origPos&quot;:null}"><g data-paper-data="{&quot;origPos&quot;:null}" fill="none" stroke-width="1" font-family="sans-serif" font-weight="normal" font-size="12" text-anchor="start"/><g data-paper-data="{&quot;origPos&quot;:null}" fill="#4b4b4b" stroke-width="0"><path d="M385.68575,232.90543l0.78433,-2.13313l3.51962,1.29411l-0.78431,2.13312z" data-paper-data="{&quot;origPos&quot;:null}"/><path d="M379.85892,230.64194l0.78432,-2.13313l3.51963,1.29411l-0.78432,2.13313z" data-paper-data="{&quot;origPos&quot;:null}"/></g></g><g data-paper-data="{&quot;origPos&quot;:null,&quot;index&quot;:null}" fill="#4b4b4b" stroke-width="0"><g data-paper-data="{&quot;origPos&quot;:null}"><path d="M403.78897,239.3196l0.78432,-2.13312l3.51963,1.29411l-0.78432,2.13312z" data-paper-data="{&quot;origPos&quot;:null}"/><path d="M409.69423,241.36976l0.7843,-2.13311l3.51963,1.29411l-0.78432,2.13312z" data-paper-data="{&quot;origPos&quot;:null}"/></g><g data-paper-data="{&quot;origPos&quot;:null}"><path d="M392.01759,235.1125l0.78432,-2.13313l3.51963,1.29411l-0.78432,2.13312z" data-paper-data="{&quot;origPos&quot;:null}"/><path d="M397.92286,237.16266l0.78433,-2.13313l3.51963,1.29411l-0.78432,2.13313z" data-paper-data="{&quot;origPos&quot;:null}"/></g></g></g></g><path d="M232.67572,136.51212l2.43039,-3.59741c0,0 5.41398,-1.36285 8.77996,-0.28505c3.84798,1.23212 31.96718,11.59777 31.96718,11.59777c0,0 -0.02596,1.98896 -0.4957,3.11313c-0.60519,1.44833 -3.64884,3.59444 -3.64884,3.59444z" fill="#242424" stroke-width="0"/><path d="M257.34757,141.5242l1.08716,-2.95678l16.8959,6.21237l-1.08717,2.95678z" fill="#313131" stroke-width="0"/><path d="M253.58989,142.19954l0.22508,-0.61217c0,0 1.36501,-0.61808 2.32525,-0.26501c0.91181,0.33527 2.8015,1.53609 5.04637,2.53558c4.2765,1.90399 9.52405,3.94175 9.52405,3.94175l-0.22509,0.61217c0,0 -5.09408,-1.8752 -9.30964,-3.75617c-2.30019,-1.02634 -4.2327,-2.34312 -5.17857,-2.69091c-0.99422,-0.36557 -2.40743,0.23478 -2.40743,0.23478z" fill="#616161" stroke-width="0"/><path d="M284.47794,136.81737l10.86902,7.2211l27.1234,15.62843c0,0 0.61073,0.46341 -6.73902,-3.01489c-2.50027,-1.18327 -11.92978,-6.36471 -19.92934,-11.33341c-2.16458,-1.34447 -13.49209,-9.17546 -13.49209,-9.17546z" fill="#df8cb7" stroke-width="0"/><path d="M112.32875,80.27156l2.0475,-5.56863c0,0 6.02055,0.34598 9.59067,1.65869c2.92275,1.07466 9.67425,7.29247 9.67425,7.29247l-4.36116,11.47038z" fill="#626061" stroke-width="0"/><path d="M217.81235,129.69574l2.69826,3.66215l11.95139,2.98458l47.62753,17.512l-0.37649,1.02401c0,0 -35.67755,-13.27289 -46.94023,-17.13463c-3.09214,-1.06023 -12.44444,-3.73089 -12.44444,-3.73089z" fill="#ffa6d4" stroke-width="0"/><path d="M87.56122,139.27974l2.47421,-6.72915l27.72752,-7.52371l-6.22564,12.27451l-16.51555,4.7215z" fill="#3f3d3e" stroke-width="0"/><path d="M87.77751,133.96789c0,0 6.95787,-18.37984 11.02125,-27.09638c4.58616,-9.83797 15.11757,-28.97543 15.11757,-28.97543c0,0 8.15069,2.79514 10.94473,5.57603c2.39131,2.38003 4.80013,10.09462 4.80013,10.09462l-11.57857,31.49038c0,0 -15.85559,8.76486 -19.49303,9.83442c-5.59503,1.64516 -10.81204,-0.92363 -10.81204,-0.92363z" fill="#555354" stroke-width="0"/><path d="M110.11725,87.79141c0,0 0.62259,-6.15625 3.49261,-7.97475c2.87001,-1.81851 7.30333,-1.27193 9.70629,-0.38839c1.91693,0.70484 5.85678,2.23734 7.01502,7.41354c1.15828,5.17619 -2.94525,10.77405 -2.94525,10.77405c0,0 -2.32251,-11.93861 -4.575,-13.22009c-3.17851,-1.80831 -12.69372,3.39564 -12.69372,3.39564z" fill="#6f6b6c" stroke-width="0"/><path d="M84.73247,138.03898c0,0 10.60334,-23.86974 14.55257,-34.61051c4.11281,-11.18566 11.06154,-30.70524 11.06154,-30.70524c0,0 1.30705,-0.20445 2.28394,0.15473c0.89327,0.32843 2.14197,1.47263 2.14197,1.47263c0,0 -6.8116,17.90453 -10.50236,27.94235c-4.28802,11.66214 -16.31863,36.92963 -16.31863,36.92963z" fill="#333232" stroke-width="0"/><path d="M84.17506,138.3067l6.10272,-13.42707c0,0 0.68361,1.19843 1.25957,1.369c0.72724,0.21536 2.7973,-0.5551 2.7973,-0.5551l-6.43434,13.98289z" fill="#2e2d2d" stroke-width="0"/><path d="M120.86774,113.16493c-2.81761,7.66305 -9.67972,14.37524 -14.78704,15.61634c-4.24179,1.03081 -13.61191,4.78579 -10.79432,-2.87725c0.59773,-1.6257 6.61577,-12.06983 9.1623,-18.62348c3.36774,-8.66707 3.54201,-13.90994 5.41817,-16.23705c3.39244,-4.20778 9.08696,-3.69033 11.16541,-2.9261c4.09707,1.50645 2.65309,17.38449 -0.16452,25.04755z" fill="#585758" stroke-width="0"/><path d="M148.35239,138.27543l0.04455,-1.83831c0,0 7.91802,1.47241 13.73338,3.09479c8.1867,2.28394 30.75358,9.31632 30.75358,9.31632l1.24345,1.82226c0,0 -24.12719,-7.14478 -32.5706,-9.4311c-2.47972,-0.67146 -13.20436,-2.96394 -13.20436,-2.96394z" fill="#585657" stroke-width="0"/><path d="M138.26842,148.63224l9.59582,-11.0593l7.12544,1.60704c0,0 -3.1199,3.44867 -3.29949,4.18722c-0.85823,3.52895 -6.3164,27.05784 -6.3164,27.05784c0,0 -1.53868,-0.0965 -2.00775,-2.26728c-0.84165,-3.89503 -0.19632,-10.96892 -1.11516,-13.54706c-0.79387,-2.22748 -3.98245,-5.97846 -3.98245,-5.97846z" fill="#5a5759" stroke-width="0"/><path d="M160.65853,124.04446l6.62252,-9.64014l2.22834,0.70095l-7.74207,9.46524z" fill="#a5a0a2" stroke-width="0"/><path d="M167.40505,125.37064l0.48407,-1.31658l24.86848,9.14381l-0.48406,1.31658z" fill="#494748" stroke-width="0"/><path d="M168.35477,122.55406l0.48407,-1.31658l24.86848,9.14381l-0.48407,1.31658z" fill="#494748" stroke-width="0"/><path d="M142.38234,136.87878l6.94969,-18.90116l14.81353,-4.79893l4.65452,1.37925l-30.05073,34.56664l-4.57514,-3.81671z" fill="#dbd5d8" stroke-width="0"/><path d="M113.40005,138.91665l3.9208,-11.12097l25.28947,8.45742c0,0 -0.56577,2.49581 -0.96355,3.20033c-0.99148,1.75621 -5.26966,7.57509 -5.26966,7.57509z" fill="#ccc6c9" stroke-width="0"/><path d="M120.88788,129.53389l0.10899,-0.29641l21.71497,7.05899l-2.85406,0.2124c0,0 -4.12041,-1.31662 -6.65175,-2.28119c-3.4661,-1.32074 -12.31817,-4.6938 -12.31817,-4.6938z" fill="#d8d1d5" stroke-width="0"/><path d="M125.47693,127.23983l5.86666,-15.95563l15.13439,5.56472l-5.86667,15.95563z" fill="#a39999" stroke-width="0"/><path d="M113.08193,138.98056l3.92008,-10.66146c0,0 6.08995,9.0439 9.30556,12.72003c3.2156,3.67613 9.41403,5.65689 9.41403,5.65689z" fill="#b4afb1" stroke-width="0"/><path d="M142.57301,156.26216c0,0 2.48429,2.02204 3.56266,2.26542c0.66248,0.14947 2.29227,-0.94418 2.29227,-0.94418l-1.5745,9.08815l-1.44773,3.9374c0,0 -1.93114,-0.37824 -2.24039,-3.24357c-0.25516,-2.36413 -0.59236,-11.10316 -0.59236,-11.10316z" fill="#504e4f" stroke-width="0"/><path d="M138.36221,149.25947l27.97875,-34.18849l1.56569,0.79425l-28.02405,34.60893z" fill="#858183" stroke-width="0"/><path d="M136.62513,105.19709l1.99128,-1.02633c0,0 25.95359,8.85672 37.60148,13.13949c10.1096,3.71714 29.86064,11.35545 29.86064,11.35545l-0.17301,2.00486c0,0 -19.7453,-8.01225 -30.40142,-11.93034c-12.16792,-4.47396 -38.87894,-13.54306 -38.87894,-13.54306z" fill="#918b8e" stroke-width="0"/><path d="M138.00551,104.39336l2.56951,-1.1237c0,0 24.41973,8.60271 36.06762,12.88547c10.10959,3.71714 29.86064,11.35546 29.86064,11.35546l-0.17302,2.00484c0,0 -19.7453,-8.01225 -30.40142,-11.93035c-12.16792,-4.47397 -37.92332,-13.19171 -37.92332,-13.19171z" fill="#a59fa2" stroke-width="0"/><path d="M191.47186,146.19877l0.15382,-5.99801c0,0 0.61447,-1.05798 0.96594,-1.04894c0.30966,0.00794 1.03338,1.10022 1.03338,1.10022l-0.15383,5.998c0,0 -0.56206,0.72842 -0.87241,0.72046c-0.35107,-0.00901 -1.12693,-0.77172 -1.12693,-0.77172z" fill="#494242" stroke-width="0"/><path d="M152.75742,134.78602l6.5987,-7.68033l3.647,1.34096l-6.5987,7.68032z" fill="#9c989a" stroke-width="0"/><path d="M167.87144,121.40355l2.07106,-0.2698l22.93125,8.45074l1.56626,1.58798z" fill="#757274" stroke-width="0"/><path d="M166.9898,124.07468l2.07106,-0.26981l22.93124,8.45074l1.56628,1.58797z" fill="#757274" stroke-width="0"/><path d="M111.14917,137.22261l21.67219,-53.99582l1.60193,1.20774l-21.29863,54.56059z" fill="#686666" stroke-width="0"/><path d="M110.90255,137.41994l6.22421,-15.0312l0.83259,4.37453l-5.00283,12.34178z" fill="#535252" stroke-width="0"/><path d="M147.65362,126.56082c0,0 2.80297,-1.46838 3.1297,-2.35701c0.32064,-0.87202 -1.18725,-2.92591 -1.18725,-2.92591c0,0 2.58651,1.66457 1.90605,3.2132c-0.51829,1.17956 -2.25975,2.87156 -2.72218,3.87605c-1.3149,2.85615 -4.49676,9.51449 -4.49676,9.51449z" fill="#c4bec1" stroke-width="0"/><path d="M155.51774,127.41559l5.31261,-8.90939l3.89493,-3.2072l-5.79045,8.05476z" fill="#aca7a9" stroke-width="0"/></g></g><g stroke-width="0"><path d="M275.92803,142.03665l3.5469,-2.24297c0,0 2.19209,-0.72434 2.87147,-0.18157c0.77459,0.61885 1.52804,3.6965 1.52804,3.6965l-1.91732,3.64415c0,0 -4.01563,-1.48452 -5.15812,-2.04661c-0.51505,-0.2534 -0.87094,-2.86948 -0.87094,-2.86948z" fill="#c0c0c0"/><path d="M232.31524,136.28367c0,0 0.82825,-2.76397 2.21533,-3.46737c1.7383,-0.8815 8.20816,-0.85962 8.20816,-0.85962l-2.30169,4.20088l-1.00809,2.74177z" fill="#838383"/><path d="M232.17929,136.15446l10.18861,-4.22477l35.25476,12.96267l-2.58178,7.02168z" fill="#999999"/><path d="M233.34346,135.88311l7.79706,-3.35656l31.69756,11.65474l-2.01574,5.48228c0,0 -3.83647,-1.41062 -8.77165,-3.22519c-3.20865,-1.1798 -6.51522,-3.52709 -9.90032,-4.77173c-3.63136,-1.33521 -7.29786,-1.55179 -9.33751,-2.30174c-3.99187,-1.46777 -9.46939,-3.48177 -9.46939,-3.48177z" fill="#d952b3"/><path d="M236.62189,137.08621l9.89197,-2.65255l11.69838,4.30134c0,0 -7.58116,-0.7553 -10.12128,-0.71484c-2.69662,0.04293 -6.43979,0.91526 -6.43979,0.91526z" fill="#a5899d"/><path d="M244.15916,139.73743c0,0 5.10822,0.84247 7.41439,1.69042c2.94671,1.08346 8.81988,4.2787 8.81988,4.2787l-8.9453,-3.64621z" fill="#adadad"/><path d="M232.2837,136.1735l9.19997,-3.81087l32.81854,12.06695l-0.23762,0.64629c0,0 -28.4168,-10.44845 -32.12095,-11.81043c-0.77478,-0.28487 -9.65995,2.90812 -9.65995,2.90812z" fill="#8a8a8a"/><path d="M274.40139,158.30354l3.36655,-9.15604l3.09614,-6.53487c0,0 0.95207,0.85071 1.2775,1.57075c0.32543,0.72004 0.29612,1.91089 0.29612,1.91089l-6.14695,12.90397z" fill="#9e9e9e"/><path d="M270.74474,152.45135c0,0 -0.12244,-2.30902 0.29765,-3.8477c0.56571,-2.07202 3.27301,-6.95598 3.27301,-6.95598l1.93445,0.36461c0,0 0.43901,1.00502 0.93899,1.02996c0.68935,0.03438 2.81462,-0.84281 2.81462,-0.84281l-4.89498,11.85643z" fill="#9c9c9c"/><path d="M270.65165,154.36763c-0.35318,-1.30659 0.34633,-2.51238 0.34633,-2.51238l7.06285,-5.07476c0,0 -0.03227,4.12612 -0.34855,4.98628c-0.89917,2.44548 -1.59361,7.25071 -1.59361,7.25071c0,0 -2.82591,-0.94983 -3.64959,-1.72003c-0.98789,-0.92373 -1.46424,-1.62326 -1.81743,-2.92985z" fill="#888888"/><path d="M272.59018,154.25548c-0.23744,-2.21794 0.35431,-6.75554 3.48841,-9.93616c3.1341,-3.1806 4.66465,-0.34716 4.66465,-0.34716c0,0 -0.58171,4.4986 -1.37985,6.66938c-0.72705,1.97741 -3.21574,5.82935 -3.21574,5.82935c0,0 -3.32002,0.00253 -3.55744,-2.21542z" fill="#b4b4b4"/><path d="M279.15193,148.46914c-0.48695,1.32438 -5.3097,-0.3664 -4.82275,-1.69077c0.48695,-1.32438 5.22208,-5.33913 5.98459,-5.05876c0.29532,0.10857 0.86447,0.42637 0.68285,1.4897c-0.28735,1.68223 -1.54632,4.44836 -1.8447,5.25983z" fill="#bbbbbb"/></g><g stroke-width="0"><path d="M217.72714,129.6483c0,0 -3.79981,-6.63635 -3.15331,-8.39465c0.52786,-1.43568 6.23575,0.53185 6.23575,0.53185l7.05695,2.67128l-7.49671,8.72806z" fill="#f399c8"/><path d="M188.50982,120.65461c0,0 -0.18653,-2.30373 0.42511,-3.22178c0.67501,-1.01311 3.85277,-3.68557 3.85277,-3.68557l21.68692,7.77616l5.58968,11.24282z" fill="#ee96c3"/></g></g><g stroke-width="0"><g><path d="M284.93913,135.09396l2.13333,-5.80204l44.88054,16.50195l-2.13332,5.80204z" fill="#61585b"/><path d="M285.90522,131.99333l1.14241,-3.10699l45.05119,16.5647l-1.14241,3.10699c0,0 -8.11002,-2.98196 -16.44111,-6.04516c-2.60477,-0.95774 -6.79038,-0.88017 -9.19724,-1.76516c-2.86206,-1.05234 -5.40796,-3.60499 -7.24385,-4.28002c-5.50499,-2.02411 -12.169,-4.47437 -12.169,-4.47437z" fill="#494344"/><path d="M346.21379,147.13038l-2.22623,-20.99075l19.63409,7.21921l8.69196,21.06816c0,0 -5.82918,-0.69283 -8.95176,-1.56578c-4.81845,-1.34707 -17.14805,-5.73081 -17.14805,-5.73081z" fill="#5e555b"/><path d="M345.03033,150.35516l1.91131,-5.19824c0,0 12.04442,2.88032 16.90507,3.83687c3.85753,0.75913 6.69171,1.18107 6.69171,1.18107l3.17995,8.56218c0,0 -5.55565,-0.34213 -9.60189,-1.35687c-5.4825,-1.37498 -19.08613,-7.02493 -19.08613,-7.02493z" fill="url(#color-5)"/><path d="M342.34203,125.70378l1.37908,-3.75068l17.97497,6.60914l2.0339,5.00557z" fill="url(#color-6)"/><path d="M344.47382,150.17713l0.43457,-1.18188c0,0 14.67712,5.31517 19.79054,7.0168c3.82357,1.2724 8.51665,1.31792 8.51665,1.31792l0.43923,1.38116l-8.42818,-0.90353z" fill="#312c30"/><g><path d="M253.3184,105.36607l2.84447,-8.3923l88.1552,32.41343l3.2778,13.22547z" fill="#8a6672"/><path d="M265.98224,118.85038c0,0 -2.05899,-4.59885 -4.18697,-6.93854c-2.128,-2.33971 -8.83736,-4.55365 -8.83736,-4.55365l0.82555,-1.92016c0,0 11.47085,4.51216 18.03547,7.02736c15.68202,6.00837 75.64988,28.86708 75.64988,28.86708l1.13433,7.41395z" fill="#755761"/><path d="M267.79612,122.17128l-1.94512,-3.47666l82.37452,29.76657l0.06813,3.30785z" fill="#694e57"/><path d="M255.87152,97.28871l1.56295,-4.25076l85.4621,30.6994l1.65945,6.64195c0,0 1.43394,4.08375 -3.51882,2.23575c-1.55916,-0.58176 -8.95726,-6.8909 -10.52031,-7.47411c-15.05317,-5.61675 -74.64536,-27.85219 -74.64536,-27.85219z" fill="#916b77"/><path d="M257.6615,93.12152l0.75967,-2.41044l84.43329,30.89713l0.15542,2.606z" fill="#9e7582"/><path d="M326.99749,119.34405c-7.3486,-3.39232 -67.68364,-26.67657 -67.68364,-26.67657l82.4569,30.31826l1.93791,8.64077c0,0 -9.36257,-8.89014 -16.71118,-12.28246z" fill="#b38f9a"/></g><path d="M296.77239,132.82243l3.16587,-8.6102l18.97051,6.97519l-3.16587,8.6102z" fill="#3a3336"/><path d="M299.85438,124.1858l1.19786,-1.18172l17.39955,6.39756l0.39922,1.76892z" fill="#4b4246"/><path d="M297.07627,132.40211l2.82206,-7.67521c0,0 -0.82317,5.30785 1.28972,7.26343c2.11289,1.95558 14.32861,7.19206 14.32861,7.19206z" fill="#332c30"/><path d="M342.75322,128.22434l-1.6086,-6.98419c0,0 1.19017,-0.27272 1.7539,-0.06543c0.63022,0.23173 1.85017,1.39058 1.85017,1.39058l1.6086,6.98419z" fill="#757575"/><path d="M343.95414,133.71043l-2.31609,-10.02756l3.60409,1.32518l2.31609,10.02754z" fill="#5a5a5a"/><path d="M345.71274,141.22811l-2.31609,-10.02754l3.60408,1.32517l2.31609,10.02756z" fill="#505050"/><path d="M347.52698,149.01212c-0.39558,-1.71268 -1.93908,-8.39529 -1.93908,-8.39529l3.60407,1.32519l2.6439,11.97457c0,0 -2.11431,-0.20685 -3.00036,-0.54844c-0.69115,-0.26644 -1.13411,-3.60084 -1.30855,-4.35604z" fill="#3b3b3b"/><path d="M250.97442,107.27243l6.4446,-17.52749l2.98556,1.09774l-6.44461,17.52749z" fill="#443e42"/><path d="M232.7061,102.25903l1.40215,-5.80048l18.98587,6.98082l-2.04574,5.56383z" fill="url(#color-7)"/><path d="M233.89062,97.05045l3.74327,-10.18062l18.98587,6.98082l-3.74329,10.18063z" fill="#5e555b"/><path d="M237.59031,86.98836l2.18722,-3.63043l18.235,6.70474l-1.43637,3.90652z" fill="url(#color-8)"/><path d="M304.94039,107.52754l2.11659,-5.75652l13.73128,6.18527l2.71249,6.01682z" fill="#5e555b"/><path d="M323.37807,114.30681l-2.62044,-6.26711c0,0 2.59257,1.68908 4.33941,3.39497c1.74686,1.70589 4.37128,5.11142 4.37128,5.11142z" fill="#776b73"/><path d="M301.70506,107.56913l3.43288,-0.06368l24.11935,8.58422l2.89906,2.67596z" fill="#6d6269"/></g><g><path d="M299.50014,129.59539c0.43096,-1.17214 1.30913,-2.08164 2.02917,-2.91386c1.00331,-1.15966 1.97872,-2.06657 3.48502,-2.4143c0.92008,-0.21239 2.12186,-0.18541 3.13301,-0.06971c0.66878,0.07654 1.74461,0.04582 2.40446,0.28844c1.49578,0.54997 1.78888,0.74483 2.69681,1.60715c0.54692,0.51944 1.93067,1.50673 2.20082,2.3222c0.22867,0.69019 0.3479,1.74466 0.43406,2.50046c0.14723,1.29163 0.25696,3.31853 -0.22225,4.62185c-0.20252,0.55078 -1.12613,1.63723 -1.35064,2.1039c-0.71272,1.4815 -0.88928,1.95954 -2.40902,2.57648c-0.92368,0.37497 -2.52739,0.36899 -3.59222,0.41428c-1.10277,0.04691 -2.5991,0.41948 -3.69975,0.01478c-0.74289,-0.27316 -1.89861,-1.2681 -2.57129,-1.66055c-1.4594,-0.85142 -2.23648,-1.32301 -2.80926,-2.7484c-0.49119,-1.22234 -0.18425,-2.81243 -0.05758,-4.21231c0.06656,-0.73543 0.06172,-1.70428 0.32868,-2.43039z" fill="#3a3a3a"/><path d="M300.22721,129.73635c0.39438,-1.07259 1.19799,-1.90489 1.85688,-2.66644c0.91814,-1.0612 1.81069,-1.89111 3.18914,-2.20933c0.84195,-0.19436 1.94172,-0.16966 2.86699,-0.06379c0.61199,0.07002 1.5965,0.04195 2.20026,0.26396c1.36879,0.5033 1.637,0.68158 2.46785,1.47068c0.50048,0.47535 1.76674,1.3788 2.01399,2.12503c0.20925,0.63162 0.31835,1.59655 0.39721,2.28815c0.13474,1.18196 0.23514,3.03678 -0.20335,4.22941c-0.18532,0.504 -1.03052,1.49822 -1.23597,1.92527c-0.6522,1.35572 -0.81378,1.79317 -2.20449,2.35771c-0.84528,0.34311 -2.31281,0.33763 -3.28722,0.37909c-1.00913,0.04292 -2.37842,0.38387 -3.38563,0.01354c-0.67981,-0.24995 -1.7374,-1.16043 -2.35298,-1.51953c-1.33549,-0.77914 -2.04661,-1.21066 -2.57075,-2.51506c-0.44947,-1.11857 -0.16859,-2.57363 -0.05267,-3.85466c0.0609,-0.673 0.05648,-1.55959 0.30077,-2.22401z" fill="#5a5a5a"/><path d="M313.23326,129.69267c-1.09597,-2.94491 -5.80733,-4.89096 -5.80733,-4.89096c0,0 2.0093,0.16345 3.87482,0.85676c1.51112,0.56159 2.86111,1.44627 3.50044,3.06751c0.63985,1.62254 0.49718,3.15198 0.28478,4.5607c-0.4164,2.76196 -1.6531,4.85668 -1.6531,4.85668c0,0 0.89637,-5.50575 -0.19963,-8.45066z" fill="#6d6d6d"/><path d="M306.50158,132.5649c0.19867,-0.54034 0.79776,-0.81732 1.33812,-0.61865c0.54034,0.19866 0.81731,0.79776 0.61864,1.33813c-0.19867,0.54034 -0.79776,0.81731 -1.33812,0.61864c-0.54034,-0.19866 -0.81732,-0.79776 -0.61864,-1.33812z" fill="#272727"/><path d="M306.38021,132.66603c0.18223,-0.49559 0.73169,-0.74964 1.2273,-0.56741c0.4956,0.18223 0.74964,0.73169 0.56741,1.2273c-0.18223,0.49559 -0.73169,0.74965 -1.22729,0.56742c-0.4956,-0.18223 -0.74965,-0.73169 -0.56742,-1.22729z" fill="#131313"/></g></g></g></g></g><path d="M185.05005,205.1353c0.54688,-1.48732 11.26012,-42.96427 12.30312,-44.36556c1.40827,-1.89203 8.90229,2.30246 12.20468,1.91022c10.1141,-1.20133 20.90725,-2.12017 20.90725,-2.12017c0,0 13.00377,5.39976 16.98,6.86179c2.9735,1.09332 63.45527,14.2856 60.58917,24.22895c-3.88748,13.48693 -40.6972,-12.53292 -44.88348,-1.14751c-1.05978,2.88226 1.13444,3.89734 -0.48261,6.65599c-0.38812,0.66208 -4.38257,4.71124 -5.17154,6.20691c-1.2524,2.37421 0.45906,7.26799 -3.7173,9.03452c-3.32915,1.40818 -3.24718,6.78354 -4.2662,7.70405c-7.02228,6.34325 -13.52659,-0.10172 -21.98576,-3.21203c-10.02955,-3.68771 -25.90926,-5.55943 -34.28939,-9.95901c-3.61737,-1.89916 -9.77982,2.53125 -8.18795,-1.79812z" fill="#86c8f5" stroke-width="0"/><g stroke-width="0"><g><path d="M175.15718,220.10002l1.92631,-5.23901c0,0 2.04222,0.94059 3.17685,0.33102c1.60302,-0.86116 5.69849,-4.83159 5.69849,-4.83159l-2.19836,7.81524c0,0 -3.99473,1.93904 -5.74834,2.25044c-1.2661,0.2248 -2.85492,-0.32609 -2.85492,-0.32609z" fill="#4d484c"/><g><g><path d="M140.84077,195.38944l5.76604,-3.80604c0,0 18.01374,-2.91113 25.56086,-4.28241c5.80549,-1.05483 15.13208,-2.90036 15.13208,-2.90036l-6.61936,25.63725z" fill="#eb59c1"/><path d="M146.05349,185.45382l9.55288,-27.67763c0,0 24.44037,13.46523 29.8784,18.61498c3.94617,3.73697 -2.14104,16.22389 -2.14104,16.22389l-7.61663,3.74939z" fill="#dd54b6"/><path d="M150.53906,164.25743l7.38451,-22.81237c0,0 10.4461,11.57623 14.52808,13.89292c6.04868,3.4329 19.04286,5.26414 19.04286,5.26414l-8.99114,24.4533z" fill="#ff77d8"/><path d="M152.42674,157.05245l4.84915,-13.1883l36.18208,8.76916l-7.51098,16.74404z" fill="#ee51c1"/></g><g><g><path d="M141.9909,184.61895l9.35113,-40.03922l7.88522,2.8993l-9.35113,40.03922z" fill="#a59da1"/><path d="M151.24315,144.74641c0,0 0.82283,-4.48368 2.95256,-5.06628c2.12975,-0.58263 6.98712,0.93356 6.98712,0.93356l-2.04157,7.03675z" fill="#b9b0b5"/><path d="M139.98801,195.22433l2.06752,-10.61123l7.84754,2.88544l-2.06752,10.61122z" fill="#8b8488"/></g><g><path d="M180.88567,195.30093l9.35113,-40.03921l4.26033,1.56646l-9.35112,40.03922z" fill="#a59da1"/><path d="M190.04229,156.25281l1.45816,-6.32666c0,0 2.98924,0.37416 3.58317,1.8175c0.59393,1.44333 -0.67249,5.25594 -0.67249,5.25594z" fill="#b9b0b5"/><path d="M178.87101,205.90208l2.06752,-10.61123l4.23441,1.55693l-2.06751,10.61123z" fill="#8b8488"/></g><path d="M137.92876,203.60452c0,0 -2.12273,-3.7028 -1.98365,-5.23345c0.15482,-1.70386 2.87056,-4.5259 2.87056,-4.5259l46.25562,12.32503c0,0 1.08496,2.88555 0.96764,4.42607c-0.16446,2.15924 -5.81148,5.31915 -5.81148,5.31915z" fill="#494547"/><path d="M160.13141,144.41555c0,0 -1.97831,-1.33185 -2.18437,-2.01949c-0.22629,-0.75511 1.69591,-2.26725 1.69591,-2.26725c0,0 11.65334,3.20659 16.71748,4.72536c5.90363,1.77054 15.75925,5.19847 15.75925,5.19847c0,0 0.0761,1.332 -0.21016,1.86325c-0.27722,0.51449 -1.10255,1.41476 -1.10255,1.41476z" fill="#c2b8bd"/><path d="M138.68338,202.58135c0,0 -0.18048,-3.08723 0.17055,-4.74345c0.29129,-1.37449 1.37586,-3.38083 1.37586,-3.38083l43.49084,11.66863c0,0 0.81572,3.65925 0.24192,5.21978c-0.6164,1.67646 -3.40751,3.3897 -3.40751,3.3897z" fill="#6f696b"/><path d="M147.24846,211.51573l1.92631,-5.239l28.51696,8.77546l-1.9263,5.239z" fill="#333032"/><path d="M136.38217,207.64972c-0.8189,-0.99143 -1.88988,-2.94689 -1.88988,-2.94689l1.53698,-6.70058c0,0 1.53755,2.98646 2.20089,4.68094c0.46951,1.19939 11.02756,3.50525 11.02756,3.50525l-1.9263,5.239c0,0 -10.13037,-2.78627 -10.94926,-3.7777z" data-paper-data="{&quot;index&quot;:null}" fill="#444043"/><g><path d="M154.31412,158.22455c0,0 -0.78946,-5.3428 -0.21291,-6.98705c0.39917,-1.13836 3.34009,-1.93138 3.34009,-1.93138l33.95171,9.2612c0,0 0.41777,3.48195 -0.09763,4.95178c-0.52676,1.50227 -3.02958,3.96665 -3.02958,3.96665z" fill="#979797"/><path d="M154.73218,157.24241c0,0 -0.99713,-4.8386 -0.49847,-6.29372c0.34526,-1.00748 3.20319,-1.59906 3.20319,-1.59906l33.75619,9.73583c0,0 0.55477,3.14931 0.109,4.45015c-0.45557,1.32948 -2.81371,3.44266 -2.81371,3.44266z" fill="#a2a2a2"/></g><g><path d="M150.84083,174.56973c0,0 -0.78946,-5.3428 -0.21291,-6.98705c0.39917,-1.13836 3.34008,-1.93139 3.34008,-1.93139l33.95171,9.2612c0,0 0.41778,3.48194 -0.09761,4.95177c-0.52676,1.50227 -3.02957,3.96664 -3.02957,3.96664z" fill="#979797"/><path d="M151.25887,173.5876c0,0 -0.99712,-4.83859 -0.49846,-6.29371c0.34524,-1.00747 3.20319,-1.59906 3.20319,-1.59906l33.75619,9.73585c0,0 0.55477,3.14931 0.109,4.45015c-0.45558,1.32948 -2.81372,3.44265 -2.81372,3.44265z" fill="#a2a2a2"/></g><g><path d="M147.29708,191.41664c0,0 -0.78946,-5.3428 -0.21291,-6.98704c0.39917,-1.13836 3.34008,-1.93139 3.34008,-1.93139l33.95171,9.2612c0,0 0.41776,3.48195 -0.09763,4.95178c-0.52676,1.50227 -3.02957,3.96664 -3.02957,3.96664z" fill="#7a7a7a"/><path d="M147.71509,190.43453c0,0 -0.99713,-4.83859 -0.49847,-6.29372c0.34524,-1.00747 3.20318,-1.59905 3.20318,-1.59905l33.75621,9.73584c0,0 0.55475,3.1493 0.109,4.45015c-0.45558,1.32948 -2.81372,3.44267 -2.81372,3.44267z" fill="#929292"/></g></g></g></g><path d="M141.20441,188.54244c0,0 0.2305,-1.74404 0.74178,-4.01791c1.50118,-6.67583 9.14919,-39.96778 9.14919,-39.96778l1.4884,5.1319l-6.96725,28.78896z" fill="#777275"/></g></g><g fill="#86c8f5" stroke-width="0"><path d="M181.26032,204.3221c4.54979,2.11377 3.02845,8.77427 -0.80486,15.84728c-3.83329,7.073 -9.68795,11.44554 -13.07674,9.76631c-3.38879,-1.67922 -3.02845,-8.77427 0.80486,-15.84728c3.83329,-7.073 7.83507,-12.20153 13.07674,-9.76631z" data-paper-data="{&quot;index&quot;:null}"/><path d="M157.05866,208.83227c3.83329,-7.073 6.86572,-10.60784 12.10737,-8.17264c4.54979,2.11377 3.99782,7.18062 0.16452,14.25361c-3.83329,7.07301 -9.68794,11.44553 -13.07674,9.76631c-3.38879,-1.67922 -3.02845,-8.77427 0.80486,-15.84728z" data-paper-data="{&quot;index&quot;:null}"/><path d="M143.28643,210.20413c3.83329,-7.073 8.37881,-13.28506 13.62049,-10.84987c4.54979,2.11377 2.48471,9.85784 -1.34859,16.93084c-3.83329,7.073 -8.24617,7.55807 -11.63496,5.87887c-3.3888,-1.67922 -4.47023,-4.88685 -0.63694,-11.95983z" data-paper-data="{&quot;index&quot;:null}"/><path d="M144.163,198.8457c4.54979,2.11377 3.99782,7.18062 0.16452,14.25361c-3.83329,7.073 -8.24617,7.55807 -11.63496,5.87887c-3.3888,-1.67922 -4.47023,-4.88685 -0.63694,-11.95983c3.83329,-7.073 6.86572,-10.60784 12.10737,-8.17264z" data-paper-data="{&quot;index&quot;:null}"/></g></g></g></svg>