<svg version="1.1" xmlns="http://www.w3.org/2000/svg" xmlns:xlink="http://www.w3.org/1999/xlink" width="462.00219" height="176.06762" viewBox="0,0,462.00219,176.06762"><defs><linearGradient x1="539.45987" y1="224.84376" x2="538.08756" y2="229.45549" gradientUnits="userSpaceOnUse" id="color-1"><stop offset="0" stop-color="#1f1d20"/><stop offset="1" stop-color="#202022"/></linearGradient><linearGradient x1="541.26592" y1="220.31571" x2="539.68692" y2="225.62197" gradientUnits="userSpaceOnUse" id="color-2"><stop offset="0" stop-color="#302d31"/><stop offset="1" stop-color="#1f1e20"/></linearGradient><linearGradient x1="206.67681" y1="170.90408" x2="205.70992" y2="174.15329" gradientUnits="userSpaceOnUse" id="color-3"><stop offset="0" stop-color="#585758"/><stop offset="1" stop-color="#575758"/></linearGradient><linearGradient x1="191.23375" y1="176.8239" x2="190.4747" y2="179.37474" gradientUnits="userSpaceOnUse" id="color-4"><stop offset="0" stop-color="#363536"/><stop offset="1" stop-color="#353536"/></linearGradient><linearGradient x1="355.11361" y1="128.76697" x2="353.53399" y2="134.07539" gradientUnits="userSpaceOnUse" id="color-5"><stop offset="0" stop-color="#5e555b"/><stop offset="1" stop-color="#2b2629"/></linearGradient><linearGradient x1="351.65584" y1="106.17544" x2="350.51607" y2="110.00564" gradientUnits="userSpaceOnUse" id="color-6"><stop offset="0" stop-color="#72676e"/><stop offset="1" stop-color="#5e555b"/></linearGradient><linearGradient x1="239.42677" y1="87.28015" x2="237.73599" y2="92.96196" gradientUnits="userSpaceOnUse" id="color-7"><stop offset="0" stop-color="#5e555b"/><stop offset="1" stop-color="#4d454a"/></linearGradient><linearGradient x1="243.49172" y1="73.61987" x2="242.30457" y2="77.60923" gradientUnits="userSpaceOnUse" id="color-8"><stop offset="0" stop-color="#74686f"/><stop offset="1" stop-color="#5e555b"/></linearGradient></defs><g transform="translate(-82.73736,-68.38894)"><g data-paper-data="{&quot;isPaintingLayer&quot;:true}" fill-rule="nonzero" stroke="none" stroke-linecap="butt" stroke-linejoin="miter" stroke-miterlimit="10" stroke-dasharray="" stroke-dashoffset="0" style="mix-blend-mode: normal"><path d="M231.8428,234.79994c-2.23245,8.3813 -7.82909,12.25588 -24.67966,7.76753c-6.25024,-1.66481 -16.60878,-6.05193 -21.69166,-6.67636c-3.77763,-0.46409 -7.44663,0.84989 -9.2625,-1.58504c-2.32791,-3.12153 2.88345,-22.27668 3.6724,-25.23866c2.23245,-8.3813 25.71927,-9.39235 42.5698,-4.90401c16.85055,4.48834 11.62405,22.25524 9.39161,30.63654z" fill="#86c8f5" stroke-width="0"/><g><g><g stroke-width="0"><path d="M269.79048,174.04386l-5.42859,-17.62569l24.68148,6.72879c0,0 -2.71528,5.27342 -3.67656,7.80284c-0.92984,2.4468 -1.99983,7.13408 -1.99983,7.13408z" fill="#7f7d7e"/><path d="M269.82869,174.26053l-1.88924,-6.41209c0,0 1.24665,4.0801 4.17303,5.59227c2.10729,1.0889 4.00351,1.3298 6.48207,2.40206c2.47857,1.07226 4.62208,2.40172 4.62208,2.40172z" fill="#6c6a6b"/></g><g><g><g><path d="M535.22068,228.60239l-0.60113,-5.19898c0,0 5.26977,3.29783 7.50463,4.89443c2.23485,1.59659 0.43622,2.24672 0.43622,2.24672z" fill="url(#color-1)" stroke-width="0"/><path d="M544.64465,221.5294c0,0 0.75424,2.6531 -1.98986,2.7681c-2.74416,0.11499 -5.87544,0.45924 -5.87544,0.45924l0.64867,-5.58312z" data-paper-data="{&quot;index&quot;:null}" fill="url(#color-2)" stroke-width="0"/><path d="M526.00361,225.85483l0.59851,-2.01119l14.15896,4.21333c0,0 0.97879,1.12 1.34189,1.61018c0.3264,0.44066 -0.97214,0.68917 -0.97214,0.68917z" fill="#444444" stroke-width="NaN"/><path d="M526.59347,223.99073l-0.64098,-2.02064l12.09165,3.59815l2.78469,2.5419c0,0 -4.11054,-0.97488 -6.32459,-1.61558c-2.49698,-0.72259 -7.9108,-2.50387 -7.9108,-2.50387z" fill="#535353" stroke-width="0"/><path d="M525.80604,222.06914l-0.12873,-0.70602l10.99719,3.27247l1.46553,0.9846z" fill="#363636" stroke-width="0"/><path d="M526.00361,225.85483l0.32467,-1.09107c0,0 6.05617,2.27543 8.81635,3.09677c2.339,0.69601 6.69133,1.51792 6.69133,1.51792c0,0 0.6964,0.68952 0.87558,0.95449c0.15118,0.22356 -0.37332,0.38268 -0.37332,0.38268c0,0 -4.65153,-0.96219 -6.86917,-1.62206c-2.9919,-0.89031 -9.46543,-3.2387 -9.46543,-3.2387z" fill="#3a3a3a" stroke-width="NaN"/><path d="M525.97969,221.47214l-0.27847,-1.00488l13.07502,3.89078l-2.00767,0.35999z" fill="#242424" stroke-width="0"/><path d="M524.87276,220.41816l0.47183,-1.5856c0,0 7.81599,2.11069 10.6873,2.96513c1.95624,0.58216 4.87481,1.66575 4.87481,1.66575l-2.16311,0.9102z" fill="#3a3a3a" stroke-width="0"/><path d="M525.20825,218.83642l0.58257,-1.9577c0,0 7.42948,1.86663 10.60609,2.8119c2.74885,0.818 7.35657,2.53333 7.35657,2.53333l-2.90031,1.26801c0,0 -3.47959,-1.12145 -5.63076,-1.76162c-2.85945,-0.85088 -10.01413,-2.89392 -10.01413,-2.89392z" fill="#444444" stroke-width="0"/><path d="M525.72521,216.94792l0.24275,-0.81571c0,0 7.58206,2.12714 11.02986,3.15314c2.40076,0.71441 7.67777,2.41375 7.67777,2.41375l-1.07184,0.56899c0,0 -4.76174,-1.71815 -7.6038,-2.56386c-3.1312,-0.93179 -10.27475,-2.75632 -10.27475,-2.75632z" fill="#535353" stroke-width="0"/><path d="M525.81948,216.17685l0.09712,-0.3263c0,0 7.50208,1.70343 10.81872,2.69036c2.86749,0.85331 7.93032,2.88888 7.93032,2.88888l-0.06108,0.33702c0,0 -5.71224,-1.8719 -8.82249,-2.79745c-3.15089,-0.93765 -9.96253,-2.79249 -9.96253,-2.79249z" fill="#4e4e4e" stroke-width="0"/></g><g stroke-width="0"><g><g><g><path d="M520.53217,223.71753l-0.63703,-13.92367l1.02099,-1.49213c0,0 2.40946,4.08615 2.58322,6.73616c0.09433,1.43867 -1.57304,9.09448 -1.57304,9.09448z" fill="#383638"/><path d="M521.73685,223.35464c0,0 0.22984,-0.5677 0.32749,-3.09995c0.1065,-2.76147 -0.1908,-6.64462 -0.26129,-7.7861c-0.15827,-2.56227 -0.84459,-2.90266 -0.84459,-2.90266l4.76655,0.81139l0.89129,14.42931z" fill="#555355"/><path d="M520.99547,209.66604l-0.20502,-1.35096c0,0 2.16445,-0.1906 3.08614,0.08367c0.86367,0.25701 1.74434,1.27787 1.74434,1.27787l0.18426,1.42066z" fill="#686668"/></g><path d="M515.09508,222.09959l-0.63703,-13.92365l0.69817,-1.56717c0,0 2.73231,4.16118 2.90605,6.81116c0.09433,1.43866 -1.57303,9.09448 -1.57303,9.09448z" fill="#383638"/><path d="M516.29977,221.73668c0,0 0.22985,-0.56771 0.3275,-3.09995c0.1065,-2.76147 -0.19079,-6.64461 -0.26128,-7.7861c-0.15827,-2.56227 -0.8446,-2.90266 -0.8446,-2.90266l4.19032,0.11823c0,0 0.62577,1.49482 0.67401,2.27579c0.13746,2.22508 0.79355,12.84665 0.79355,12.84665z" fill="#555355"/><path d="M515.55839,208.04806l-0.41415,-1.4132c0,0 2.37358,-0.12836 3.29526,0.14593c0.86367,0.25701 1.46552,1.19488 1.46552,1.19488l0.3041,1.45632z" fill="#686668"/><path d="M522.80465,222.63557c0.23372,-0.78547 1.05997,-1.23273 1.84548,-0.99902c0.78549,0.23372 1.23273,1.05997 0.99901,1.84547c-0.23372,0.78547 -1.05997,1.23274 -1.84546,0.99902c-0.78549,-0.23372 -1.23272,-1.05997 -0.99902,-1.84547z" fill="#312f31"/><path d="M524.26852,220.01493l-0.33439,-5.8864l1.56614,0.31648l0.31599,5.94824z" fill="#444144"/></g><path d="M478.81278,206.12124l-0.5213,-11.44772l28.30559,9.65048l-3.20251,9.11215z" fill="#444444"/><path d="M492.04536,205.97374c0,0 0.75844,-0.31886 1.76584,-1.17187c0.92112,-0.77988 2.07335,-2.08329 2.57429,-2.41808c1.42148,-1.35746 3.56808,-0.23162 3.56808,-0.23162l-1.12515,0.34655l-5.68767,3.80098z" fill="#292929"/><path d="M491.72529,216.86423l-3.11451,-12.37369c0,0 3.20187,1.50712 5.13396,0.98749c1.50139,-0.40382 2.16182,-2.9533 3.75377,-2.77264c4.56742,0.5183 17.03095,3.77443 17.03095,3.77443c0,0 1.06774,7.77233 1.13302,10.80393c0.04508,2.0929 -0.82457,6.45818 -0.82457,6.45818z" fill="#4a464a"/><path d="M499.42932,205.48013c-4.18997,-1.91045 -2.41996,-2.80679 -2.41996,-2.80679c0,0 1.13121,-1.02206 2.96264,-0.62956c4.49435,0.96319 12.61386,3.98125 14.27187,4.44787c0.78192,0.22006 0.13373,0.76575 0.13373,0.76575c0,0 -2.10802,1.86206 -3.66671,1.6633c-1.55869,-0.19877 -7.09163,-1.53011 -11.28158,-3.44059z" fill="#5e595e"/></g><g><path d="M478.53628,219.79977l0.16852,-18.66258l18.04075,5.66717l3.36561,5.51746l5.87399,1.64513l-0.98289,13.70842z" fill="#4d4846"/><path d="M482.92157,221.50861l22.47683,-3.11001l21.46365,6.1341c0,0 0.06451,4.38334 -0.18484,5.7224c-0.12714,0.68273 -0.98821,2.77759 -0.98821,2.77759z" fill="#423d3b"/><path d="M481.63663,212.45507l-0.23915,-10.34401l0.78643,0.23402l0.23916,10.34401z" fill="#363332"/><path d="M483.71146,220.90733l0.34722,-1.16682c0,0 5.77181,-0.93822 14.46016,1.64719c1.15439,0.34353 4.50024,3.99491 5.66377,4.34116c7.38222,2.19674 14.60793,4.34693 17.35691,5.16494c2.23876,0.6662 4.89566,0.10048 4.89566,0.10048l-0.71802,2.41282z" fill="#312e2c"/><path d="M489.61658,209.37221l-0.35481,-4.92097l7.96262,2.36946l2.7214,5.42275l5.98923,1.98471l-7.83028,-0.2969z" fill="#585350"/><path d="M478.51963,213.40017l0.3218,-1.08133c0,0 8.77938,-1.29333 11.53709,-0.4727c4.15624,1.2368 15.63034,4.65118 15.63034,4.65118l-0.32179,1.08133c0,0 -11.6708,-3.47291 -15.82695,-4.70969c-2.70106,-0.80377 -11.34049,0.53121 -11.34049,0.53121z" fill="#2b2827"/></g></g></g><g><g><g><path d="M145.62115,158.84067c-0.11884,2.29543 -1.15397,4.68918 -2.27498,4.63112c-1.12101,-0.05803 -1.90344,-2.54582 -1.78461,-4.84129c0.11884,-2.29543 0.51765,-11.11857 1.6387,-11.06054c1.12101,0.05803 2.53977,8.97525 2.42091,11.27074z" fill="#615e5f" stroke-width="0"/><g><path d="M194.02218,142.01763c-0.36645,-0.65954 -2.23558,-2.58499 -2.23558,-2.58499l10.32938,0.06894l-7.8043,5.18968c0,0 0.07696,-2.0141 -0.28947,-2.67362z" fill="#756a6a" stroke-width="0"/><path d="M185.85458,137.81643l3.91694,-13.1629l19.43679,-0.33702l-5.59017,18.78589z" fill="#8a7c7c" stroke-width="0"/><path d="M145.92813,131.61846l11.56163,-15.47873l33.52038,9.8357l0.73232,13.4335c0,0 -22.48451,-5.04646 -30.12706,-6.34604c-3.17248,-0.53947 -15.68729,-1.44442 -15.68729,-1.44442z" fill="#7c787a" stroke-width="0"/><path d="M156.9173,118.47844l0.28055,-1.46221c0,0 24.84742,7.39392 32.65876,9.71836c4.37044,1.30054 17.29433,-1.50008 17.29433,-1.50008l-0.46478,1.56195c0,0 -12.63642,2.86605 -16.85904,1.59421c-7.7427,-2.33207 -32.90982,-9.91222 -32.90982,-9.91222z" fill="#535353" stroke-width="0"/><path d="M114.9792,123.1474l5.7482,-19.31687c0,0 6.35486,-5.46877 13.95301,-5.60326c9.43719,-0.167 25.11533,6.36089 27.09998,6.95145c1.52301,0.4532 -15.34245,6.30259 -15.34245,6.30259l-5.7482,19.31689z" fill="#8d898b" stroke-width="0"/><path d="M293.9036,128.24811l2.43284,-2.55656l103.0566,30.81596l-4.20582,14.13374c0,0 -36.73777,-9.00668 -48.33227,-12.89105c-5.75818,-1.9291 -52.9513,-29.5021 -52.9513,-29.5021z" fill="#c98cac" stroke-width="0"/><path d="M244.33275,218.87422l-0.66529,-13.69501c0,0 3.25915,7.06238 5.68138,8.90669c1.54326,1.17507 5.485,2.74634 12.03714,2.15304c5.27472,-0.47762 11.80047,-4.28535 11.80047,-4.28535l-15.43164,10.91468z" fill="#a08e97" stroke-width="0"/><path d="M344.445,199.7158l4.49632,-23.30709l18.17709,3.94548l-6.04567,20.31659c0,0 -6.62198,-0.1769 -9.47139,-0.29627c-1.31199,-0.05497 -7.1563,-0.65867 -7.1563,-0.65867z" fill="#96858d" stroke-width="0"/><path d="M241.50307,221.94035l1.58013,-5.31005c0,0 10.97219,5.42322 16.29009,3.7491c2.58807,-0.81474 24.71009,-16.07143 36.92566,-24.57249c4.76709,-3.31752 8.02549,-5.60621 8.02549,-5.60621c0,0 4.29597,-2.65834 5.12189,-5.41968c0.41546,-1.38909 2.0577,-5.26019 1.91993,-7.71271c-0.13901,-2.47443 -2.05991,-3.52425 -2.05991,-3.52425l-0.79879,-14.39817l18.95197,5.7895l-10.36763,24.63979l2.87142,3.52735c0,0 -10.86947,3.02566 -16.71951,6.45531c-9.15323,5.36608 -40.2372,27.81797 -40.2372,27.81797z" fill="#918189" stroke-width="0"/><path d="M322.12701,193.44257l9.32138,-27.06965l13.12481,4.19332l6.51003,14.4595l-6.80454,15.00863z" fill="#96858d" stroke-width="0"/><path d="M317.26297,193.92448l-1.22263,-4.68925l10.86169,-24.09271l4.89301,1.36765l-8.80089,27.20662z" fill="#8f8187" stroke-width="0"/><path d="M343.0661,199.78158c0,0 4.53898,-5.60532 4.7857,-11.1772c0.14203,-3.20828 -4.00308,-6.49683 -3.91601,-8.46361c0.16638,-3.75704 0.42373,-9.56926 0.42373,-9.56926l6.28419,6.42308c0,0 1.20721,7.88561 0.56467,12.14058c-0.43166,2.85872 -3.67224,8.54671 -5.30162,10.77335c-0.13736,0.1877 -1.24092,-0.22756 -1.33755,-0.08383c-0.23606,0.35111 0.62212,0.84782 0.62212,0.84782z" fill="#86787e" stroke-width="0"/><path d="M350.01021,178.37101c0,0 -1.83444,-4.6722 -6.04534,-6.939c-4.76719,-2.56625 -21.09666,-7.6718 -21.09666,-7.6718l155.23043,31.39611l0.62064,9.8896l4.41094,12.93814c0,0 -95.87198,-31.21187 -115.60518,-37.08393c-6.43924,-1.91615 -17.51483,-2.5291 -17.51483,-2.5291z" fill="#df8db7" stroke-width="0"/><path d="M188.71312,179.70253l5.7459,-36.1318c0,0 2.68305,-3.1148 3.22492,-3.17857c5.97427,-0.70311 39.71825,-1.77522 44.84992,0.05052c5.62146,1.99999 -12.27104,9.12115 -12.27104,9.12115c0,0 -14.38911,-2.16808 -18.03355,1.18147c-4.94803,4.54774 -5.25147,22.56302 -5.25147,22.56302z" fill="#c77da3" stroke-width="0"/><path d="M266.6615,171.67201l-1.11471,-2.52822c0,0 8.74127,-6.37835 11.72769,-7.88176c3.08318,-1.55214 6.49034,-1.28954 6.49034,-1.28954l5.03231,3.89943c0,0 -4.14681,-1.75835 -6.90189,-0.78752c-2.36512,0.83341 -6.83946,2.71405 -10.40533,4.87927c-2.59392,1.57506 -4.82841,3.7083 -4.82841,3.7083z" fill="#414041" stroke-width="0"/><path d="M156.90961,117.3845l7.93463,-9.83495l46.6086,13.86949c0,0 -4.04895,3.44375 -7.59973,4.43844c-3.48499,0.97627 -13.51125,1.47557 -13.51125,1.47557z" fill="#979395" stroke-width="0"/><path d="M158.00234,116.51723l7.16788,-10.06314l46.6086,13.8695c0,0 -4.04896,3.44374 -7.59974,4.43843c-3.48499,0.97627 -13.51126,1.47557 -13.51126,1.47557z" fill="#bdb7ba" stroke-width="0"/><path d="M345.28279,200.77581l-1.64865,-1.02633l17.33976,0.80414c0,0 -3.99929,0.95649 -6.60736,1.01181c-2.60808,0.05538 -9.08373,-0.78963 -9.08373,-0.78963z" fill="#887980" stroke-width="0"/><path d="M190.96309,180.85666c0,0 0.74189,-10.69825 2.02596,-19.22461c1.29037,-8.56798 2.52482,-16.59607 3.52607,-20.03816c0.16964,-0.58314 4.58162,-9.63128 5.20936,-9.98847c3.38831,-1.92813 8.6,7.7019 14.24775,8.23114c8.36243,0.78364 26.82385,5.74089 26.82385,5.74089l-9.61724,2.67898c0,0 -19.45891,-2.80118 -23.21644,1.44054c-5.0824,5.73736 -3.77928,27.90245 -3.77928,27.90245z" fill="#d486ae" stroke-width="0"/><path d="M193.05126,177.80669c0,0 5.2727,-41.07378 9.41858,-50.35376c1.93981,-4.34199 1.32203,-14.0284 1.32203,-14.0284l46.57517,21.1302l-3.21861,15.80863c0,0 -29.82915,-12.10363 -37.70522,-7.90148c-5.25755,2.80506 -6.78659,31.81708 -6.78659,31.81708z" fill="#e490bb" stroke-width="0"/><g stroke-width="0"><path d="M343.6923,156.90985l2.36012,-7.93118l8.97121,2.6696l-2.36012,7.93119z" fill="#454545"/><path d="M344.7082,156.41422l1.73958,-7.0967l10.85574,3.23037l-2.08152,6.99495z" fill="#b0b0b0"/><path d="M345.76756,152.04586l0.58817,-2.77793l11.06339,3.29216l-0.54401,1.82817c0,0 -7.56114,-1.91357 -9.22946,-2.2654c-0.55746,-0.11754 -1.87811,-0.07702 -1.87811,-0.07702z" fill="#bebebe"/><path d="M355.62167,159.08842c0,0 -4.58173,-4.0295 -2.96556,-7.45866c2.40162,-5.09569 6.21527,-3.46203 6.21527,-3.46203l38.19061,12.75563l-2.86943,9.64273z" fill="#9c989a"/><path d="M357.70243,158.36249c0,0 -1.37981,-4.08204 -1.3495,-5.04001c0.04496,-1.42001 2.80037,-3.68555 2.80037,-3.68555l39.85852,11.89565l-2.51924,7.06354z" fill="#898587"/><path d="M357.55928,158.52676l-0.4241,-2.14965l36.64374,10.90422l-0.55314,1.85884z" fill="#c1bcbf"/><path d="M358.41115,155.23922c0,0 -0.88779,-1.69146 -0.62046,-2.58987c0.2501,-0.84037 2.17616,-2.63813 2.17616,-2.63813l37.06061,11.02826l-1.55571,5.22797z" fill="#0d0d0d"/><path d="M358.18943,155.98423c0,0 -0.71558,-2.27013 -0.44824,-3.16856c0.2501,-0.84037 2.00394,-2.05943 2.00394,-2.05943l37.06061,11.02826l-1.5557,5.22798z" fill="#2e2e2e"/><path d="M353.02105,156.43203c-1.65448,-3.6922 0.12867,-5.59937 0.12867,-5.59937c0,0 0.58326,4.46411 1.51142,5.6768c1.09892,1.43578 4.16921,3.77458 4.16921,3.77458l-3.38304,-0.93349c0,0 -2.13511,-2.26873 -2.42627,-2.91849z" fill="#7d7a7c"/><path d="M360.59315,157.02262c0,0 -0.2211,-2.37366 0.10507,-3.46971c0.2867,-0.96347 1.74881,-2.7603 1.74881,-2.7603l4.62299,1.37569c0,0 -1.07057,1.98093 -1.3182,2.81307c-0.34036,1.14372 -0.53568,3.41692 -0.53568,3.41692z" fill="#555555"/><path d="M368.85192,159.48022c0,0 1.35858,-2.22817 1.68475,-3.32421c0.2867,-0.96347 0.16914,-2.9058 0.16914,-2.9058l5.15973,1.53539c0,0 -0.88853,1.525 -1.13616,2.35716c-0.34036,1.14372 -0.71771,3.87283 -0.71771,3.87283z" fill="#555555"/><path d="M377.79118,162.14033c0,0 1.3586,-2.22818 1.68478,-3.32421c0.2867,-0.96347 0.16914,-2.90579 0.16914,-2.90579l5.08305,1.51256c0,0 -0.88853,1.525 -1.13616,2.35716c-0.34036,1.14372 -0.71771,3.87282 -0.71771,3.87282z" fill="#555555"/><path d="M387.05311,164.89643c0,0 1.42759,-1.83664 1.75374,-2.93273c0.2867,-0.96347 0.10014,-3.29727 0.10014,-3.29727l4.92971,1.46694c0,0 0.22815,2.1355 -0.01947,2.96771c-0.34036,1.14372 -1.83441,3.26232 -1.83441,3.26232z" fill="#555555"/><path d="M361.99113,151.39143l-0.40932,-0.95647l34.08547,10.14294l-1.69869,0.32918c0,0 -2.71252,-0.80718 -5.07246,-1.50943c-0.51439,-0.15308 -1.39405,-0.75782 -2.16453,-0.98714c-0.745,-0.22171 -1.3735,-0.06571 -2.29955,-0.34129c-1.4441,-0.42974 -3.07345,-0.91459 -4.77918,-1.42216c-0.70718,-0.21044 -1.21314,-0.7612 -1.93883,-0.97712c-0.64531,-0.192 -1.50926,-0.04896 -2.15761,-0.24188c-1.60913,-0.47884 -3.20244,-0.95297 -4.70043,-1.39872c-0.68789,-0.2047 -1.23065,-0.82358 -1.87066,-1.01404c-0.78131,-0.23252 -1.64627,-0.03253 -2.33081,-0.23624c-2.79244,-0.83094 -4.66337,-1.3877 -4.66337,-1.3877z" fill="#474747"/></g><g><path d="M201.75969,173.69059l4.38052,-1.68818c0,0 1.90474,3.50367 4.36575,5.16978c2.17671,1.47359 9.65251,4.32029 9.65251,4.32029l-3.78671,3.41619z" fill="#6d6a6b" stroke-width="0"/><path d="M192.1815,177.62228l10.95439,-4.44549c0,0 2.45679,3.0854 4.34668,4.33839c2.85915,1.89553 11.13896,5.92827 11.13896,5.92827l-5.32859,2.90835z" fill="#615e5f" stroke-width="0"/><path d="M187.83188,199.2473l5.01647,-22.05855c0,0 3.94749,2.00093 8.56009,3.40442c3.60033,1.09547 7.72157,1.43801 9.92865,2.7295c3.87469,2.26727 32.4842,23.67188 32.4842,23.67188l-0.52646,10.4591z" fill="#575455" stroke-width="0"/><path d="M216.23923,179.48679c8.23261,-3.35659 19.80359,-13.9484 21.74307,-16.05408c1.39724,-1.51698 3.56096,-6.37779 3.56096,-6.37779l5.44004,8.72895c0,0 -0.23909,21.31384 -2.71458,33.77203c-0.69266,3.48591 0.59501,7.98527 -0.9602,9.05247c-1.39345,0.95619 -18.30337,-1.68663 -23.2554,-3.95814c-10.42143,-4.78028 -16.76851,-3.75859 -18.85309,-9.88289c-2.08461,-6.12428 6.50962,-10.10886 6.50962,-10.10886c0,0 6.38636,-4.29787 8.52963,-5.17174z" fill="#504e4f" stroke-width="0"/><path d="M230.20748,149.39562c0,0 0.80515,-1.31788 1.8158,-1.70943c1.29977,-0.50354 5.33599,-1.0612 5.33599,-1.0612c0,0 8.38826,4.65307 10.5633,7.89822c2.00679,2.99407 -6.94537,11.0569 -6.94537,11.0569l-0.39403,-5.71097z" fill="#464445" stroke-width="0"/><path d="M239.00699,201.28824c0,0 -10.68285,3.34796 -18.86372,1.09237c-7.89213,-2.17595 -13.30231,-9.93301 -12.7941,-11.26567c0.27534,-0.72202 8.81673,-1.62887 13.35287,-4.68342c5.04237,-3.39541 6.20038,-8.99943 8.06854,-10.54108c5.21538,-4.30397 16.21265,-11.65109 16.91941,-17.7463c0.74121,-6.3922 -8.93967,-11.43672 -8.93967,-11.43672c0,0 4.33347,-1.05975 9.14909,0.23778c2.05127,0.5527 6.01473,3.178 6.78986,3.81032c2.54191,2.07346 3.98326,4.20956 3.98326,4.20956c0,0 4.89825,-3.63319 8.439,-2.90243c3.54076,0.73076 20.74388,8.92532 20.74388,8.92532l-19.12919,7.44743z" fill="#555354" stroke-width="0"/><path d="M228.221,176.34767c0,0 7.52994,-9.10328 13.61394,-12.96325c6.08403,-3.85997 10.90015,-5.74514 14.28576,-4.73766c2.4517,0.72955 3.14611,9.92493 3.14611,9.92493l-18.82222,24.415c0,0 -14.94911,-1.02724 -15.65746,-3.82622c-0.55948,-2.21062 3.43388,-12.81278 3.43388,-12.81278z" fill="#585758" stroke-width="0"/><path d="M242.05331,208.94658c0,0 -0.99283,-6.75479 0.18185,-9.55843c1.64101,-3.91664 6.63402,-15.63319 6.63402,-15.63319l-1.101,10.56032c0,0 -3.39399,9.15996 -4.13094,12.10182c-0.71107,2.83842 0.03412,5.32461 0.03412,5.32461z" fill="#3f3e3f" stroke-width="0"/><path d="M246.25865,191.55853c0.29033,-1.66098 2.74542,-8.97551 2.74542,-8.97551c0,0 13.31615,-11.23676 16.08312,-13.18144c0.81118,-0.57009 4.52113,-1.27207 4.52113,-1.27207l-2.96229,4.18276c0,0 -1.68073,0.13002 -1.98936,0.53674c-0.32881,0.43331 0.07317,1.98835 0.07317,1.98835l-7.33446,6.66505c0,0 -1.87029,0.49784 -2.18616,0.93111c-0.31598,0.43337 0.08983,1.48077 0.08983,1.48077c0,0 -6.24441,7.47055 -7.74062,9.54473c-0.69177,0.95902 -0.87508,2.39918 -0.87508,2.39918c0,0 -0.71499,-2.63869 -0.42464,-4.2997z" fill="#474647" stroke-width="0"/><path d="M239.65825,167.71738l17.83528,13.89951c0,0 -1.42827,0.63115 -1.80935,1.08015c-0.28121,0.33131 -0.2699,1.36977 -0.2699,1.36977z" fill="#3f3e3e" stroke-width="NaN"/><path d="M248.36183,159.50572l18.50912,12.87256c0,0 -1.30923,0.49026 -1.67013,0.96329c-0.37623,0.49313 -0.32989,1.63292 -0.32989,1.63292z" fill="#3f3e3e" stroke-width="NaN"/><path d="M228.25857,183.44641c0,0 8.05418,10.42311 11.98324,17.82893c3.92908,7.40586 1.7248,8.00902 1.7248,8.00902z" fill="#636162" stroke-width="NaN"/><path d="M247.56959,165.13706c0,0 -6.57967,1.07199 -10.09784,3.25515c-3.51816,2.18318 -16.12158,15.31698 -15.28146,12.49377c0.84011,-2.82318 19.32675,-18.94114 21.04715,-18.4292c0.65123,0.19379 3.88717,-0.03505 4.60387,0.42599c1.17658,0.75689 -0.27171,2.25426 -0.27171,2.25426z" fill="#918f91" stroke-width="0"/><path d="M187.43154,198.99316l13.90225,2.16682c0,0 12.1675,3.27403 15.12968,4.31729c7.21378,2.54061 28.31018,10.98168 28.31018,10.98168l-2.23129,5.93102c0,0 -24.36602,-3.5307 -30.59884,-6.75808c-1.80314,-0.93367 -7.20192,-3.18505 -10.89524,-5.6949c-7.22767,-4.91162 -13.61671,-10.94385 -13.61671,-10.94385z" fill="#626061" stroke-width="0"/><path d="M241.67946,221.76611c0,0 1.26311,-4.10281 1.50013,-6.47352c0.26645,-2.66457 0.02074,-8.7357 0.02074,-8.7357l1.7083,0.50834c0,0 0.37661,4.76203 0.13539,7.17427c-0.26373,2.63741 -1.65627,8.03495 -1.65627,8.03495z" fill="#4a494a" stroke-width="0"/><path d="M241.25379,222.51201l1.05349,-3.23089c0,0 0.46771,0.41536 0.72797,0.4928c0.30921,0.09202 0.96614,0.01133 0.96614,0.01133l-0.73947,3.09417c0,0 -0.86055,0.16921 -1.22645,0.10225c-0.28038,-0.05128 -0.78161,-0.46967 -0.78161,-0.46967z" fill="#363536" stroke-width="0"/><path d="M243.17153,207.61806l0.0924,-1.66336c0,0 0.50112,-0.22065 0.87118,-0.17231c0.35243,0.04603 0.81814,0.31268 0.81814,0.31268l-0.01447,1.80733c0,0 -0.60653,0.34897 -0.90934,0.30021c-0.28525,-0.04588 -0.85793,-0.58453 -0.85793,-0.58453z" fill="#585758" stroke-width="0"/><path d="M201.69267,209.41721c0,0 -6.72504,-5.08198 -6.33628,-6.38838c0.39071,-1.31292 6.70275,-0.65617 6.70275,-0.65617c0,0 10.558,2.89059 15.25987,4.46982c2.63231,0.88413 10.5498,4.19895 10.5498,4.19895c0,0 6.68826,3.09015 7.14102,4.42651c0.49385,1.45769 -4.02023,3.07918 -4.02023,3.07918c0,0 -12.56788,-2.37721 -16.30859,-3.70761c-1.32883,-0.47263 -12.98826,-5.42223 -12.98826,-5.42223z" fill="#6b696a" stroke-width="0"/><path d="M193.70934,199.84102l-1.94602,-0.33826c0,0 1.58,-3.11336 3.83274,-1.14697c2.25276,1.96642 20.7271,6.40864 20.7271,6.40864z" fill="#4b4949" stroke-width="0"/><path d="M187.5425,198.87588c0,0 -1.96944,-0.38616 -1.44333,-4.03021c0.26632,-1.84458 2.64638,-15.94353 2.64638,-15.94353l4.40763,-1.71315c0,0 -1.05602,5.93922 -1.68617,8.77975c-0.83811,3.77783 -3.03971,13.17042 -3.03971,13.17042z" fill="#3f3d3e" stroke-width="0"/><path d="M193.97045,200.09182c0,0 3.67561,-1.15788 19.1612,3.09848c1.27882,0.35153 -1.71149,-0.54269 7.15314,2.62447c8.86462,3.16716 12.17908,5.73168 12.17908,5.73168c0,0 -14.13541,-5.32204 -20.08058,-7.09116c-6.7768,-2.01659 -18.41286,-4.36346 -18.41286,-4.36346z" fill="#838082" stroke-width="0"/><path d="M207.26282,173.13097c0,0 -4.81295,0.85001 -7.35845,1.77812c-2.86107,1.04316 -8.97206,4.1761 -8.97206,4.1761l-0.29507,-1.75885c0,0 4.70543,-2.62048 7.2955,-3.56485c2.83183,-1.03249 9.035,-2.38939 9.035,-2.38939z" fill="#4a494a" stroke-width="0"/><path d="M208.23156,173.15028l-3.89245,0.59511c0,0 0.27676,-0.59209 0.23181,-0.86002c-0.05342,-0.31836 -0.45021,-0.86215 -0.45021,-0.86215l3.52788,-0.83c0,0 0.58498,0.68185 0.69119,1.03843c0.0814,0.27326 -0.1082,0.91859 -0.1082,0.91859z" fill="url(#color-3)" stroke-width="0"/><path d="M192.03471,178.60124l-3.60698,1.77477l0.48467,-2.133l2.5692,-1.34533c0,0 0.64791,0.37031 0.74268,0.66215c0.08929,0.27497 -0.18958,1.04142 -0.18958,1.04142z" fill="url(#color-4)" stroke-width="0"/></g><path d="M323.54062,192.71921c0,0 2.14915,-3.97063 3.02775,-5.15847c0.59642,-0.80636 3.27955,-1.50162 3.27955,-1.50162l16.37475,4.64502c0,0 -2.8777,5.19264 -3.63261,6.39351c-0.33072,0.52605 -1.54993,0.88588 -1.54993,0.88588z" fill="#665b60" stroke-width="0"/><path d="M282.15272,161.35557c0,0 -3.19098,-2.57971 -7.58611,-5.08976c-2.79395,-1.59566 -6.72497,-3.35674 -8.53888,-3.78613c-5.27352,-1.24845 -9.14391,2.92598 -9.14391,2.92598c0,0 -2.47683,-3.15314 -4.25312,-4.57344c-1.65812,-1.3258 -5.54494,-3.52674 -5.54494,-3.52674c0,0 24.99144,2.12489 28.8481,2.66729c7.39353,1.03978 32.85487,9.02479 32.85487,9.02479l1.89093,15.4675z" fill="#8b7c84" stroke-width="0"/><g stroke-width="0"><path d="M325.20375,192.2305c0,0 1.19243,-2.35396 1.84095,-3.09451c0.67246,-0.76788 3.06564,-1.15377 3.06564,-1.15377l13.9265,4.14414c0,0 0.08991,1.05231 -0.34611,1.69232c-0.59286,0.8702 -4.03768,2.71153 -4.03768,2.71153z" fill="#585852"/><path d="M325.41633,191.51613c0,0 0.97983,-1.63953 1.62836,-2.38009c0.67246,-0.76788 3.27824,-1.86816 3.27824,-1.86816l13.9265,4.14415c0,0 -0.12266,1.76673 -0.55873,2.40673c-0.59286,0.8702 -3.82508,1.99709 -3.82508,1.99709z" fill="#797971"/><path d="M342.41721,191.38383c-0.95454,-0.4697 -12.01696,-4.04472 -12.01696,-4.04472l13.90746,4.1385l-0.70216,2.35957c0,0 -0.23379,-1.98365 -1.18834,-2.45336z" fill="#85857b"/></g><path d="M331.75734,175.22524l1.4802,-4.9742l6.83951,2.03526l-0.23663,5.34426z" fill="#7c6e75" stroke-width="0"/><path d="M329.30265,146.9261l-1.68408,-8.98478l1.32201,0.39342l3.41039,9.96966z" fill="#d495b6" stroke-width="0"/><path d="M294.09498,128.4896l13.55117,0.80893l20.15571,8.72353l1.52865,8.89786z" fill="#df9cbe" stroke-width="0"/><path d="M330.47888,180.09021l0.46258,-1.55441l10.41472,3.09914l0.47009,1.83198z" fill="#7c6e75" stroke-width="0"/><path d="M295.05866,156.86924c0,0 -17.72224,-4.02332 -23.2637,-5.15049c-8.39096,-1.70677 -25.41542,-4.34677 -25.41542,-4.34677c0,0 15.66621,0.02876 29.045,2.42815c14.50598,2.60152 57.14161,13.76821 57.14161,13.76821l-1.54273,5.1844z" fill="#75686e" stroke-width="0"/><path d="M285.92615,163.3022l-2.94572,-1.47212c0,0 10.04469,0.5013 14.94491,2.75534c4.90019,2.25401 12.33464,9.79287 12.33464,9.79287z" fill="#7c6e76" stroke-width="0"/><path d="M242.54913,146.18948c0,0 -26.62196,-23.98569 -26.15874,-28.66816c0.42082,-4.25347 27.9134,10.75602 28.22966,10.73721c5.53396,-0.32917 76.48896,13.25761 76.48896,13.25761l23.56711,14.09653l50.73336,14.5007l3.13281,15.096c0,0 -59.33557,-16.43716 -82.16118,-23.05937c-7.92338,-2.29875 -23.87181,-7.72032 -38.86526,-10.99228c-11.56547,-2.52389 -29.74833,-3.43093 -29.74833,-3.43093z" fill="#ee96c3" stroke-width="0"/><path d="M115.20366,121.38172l8.93692,-18.36798c0,0 1.9146,-6.79007 9.51278,-6.92456c9.43719,-0.167 25.11533,6.3609 27.09999,6.95146c1.52301,0.45321 -15.34246,6.30258 -15.34246,6.30258l-5.74819,19.31688z" fill="#c4b4b3" stroke-width="0"/><g stroke-width="0"><path d="M389.89049,184.07674l1.58047,-15.32879l86.97467,32.939l-2.38153,5.34991l-46.8439,-8.8719z" fill="#ad6d8e"/><path d="M419.2305,177.85001l9.33015,-5.85482l26.26985,5.59592l-7.09294,8.74189z" fill="#8d788b"/><path d="M394.47843,171.72461l4.63053,-15.56093l29.51782,15.85555l-6.34766,5.27779z" fill="#857183"/><path d="M436.08244,180.64007l18.68764,-3.06566l25.60919,11.55678l-2.24043,6.52606z" fill="#947e92"/><path d="M390.65611,169.95226l6.41447,-11.41039l2.26054,-2.52393l-4.29641,14.43815z" fill="#756474"/><path d="M392.03345,181.36074l2.75196,-11.77701l41.98501,10.77335l-5.75481,15.04044z" fill="#746373"/><path d="M431.01259,195.38042c0,0 2.16316,-5.93711 3.16486,-8.60644c0.8576,-2.28542 2.48034,-6.43742 2.48034,-6.43742l42.10483,13.47779l-0.47887,8.62153z" fill="#867284"/><path d="M390.71498,169.8963l4.29694,-0.3186l-2.95188,11.79889z" fill="#6f5e6d"/><path d="M473.49432,186.97012l-18.03569,-8.87636l24.57998,11.1083l-1.35974,3.29448c0,0 0.14703,-1.59357 -0.81008,-2.61378c-0.64023,-0.68248 -4.37453,-2.91268 -4.37453,-2.91268z" fill="#978195"/><path d="M434.66322,179.53983c0,0 8.63175,-1.04686 11.68078,-1.55234c2.2211,-0.3682 4.92969,-1.20132 4.92969,-1.20132l2.39646,0.83064l-16.46828,2.67845z" fill="#9c859a"/><path d="M420.64915,176.21296c0,0 2.0467,-2.26252 3.72603,-3.17159c1.67927,-0.90908 4.12418,-1.03211 4.12418,-1.03211l-5.49088,4.90578z" fill="#806b7d"/><path d="M456.77957,176.35094l3.67994,-4.88675l13.50386,7.91351l3.54204,7.73137z" fill="#55494f"/><path d="M453.55281,178.31222c0,0 1.26283,-0.44865 1.96674,-0.8493c0.53021,-0.30178 1.58453,-1.43265 1.58453,-1.43265l20.24604,10.19803c0,0 0.6901,0.72386 1.15907,1.20318c0.49012,0.50092 1.72098,1.74048 1.72098,1.74048z" fill="#685960"/><path d="M457.57189,175.65588l2.89746,-3.92189l12.60989,7.22338c0,0 -7.23699,-3.75268 -11.60458,-4.78662c-2.53344,-0.59977 -3.90277,1.48514 -3.90277,1.48514z" fill="#41383c"/></g><path d="M127.97816,84.2007l1.48546,-4.99202c0,0 21.77811,5.12942 42.80796,11.44677c12.53187,3.76458 25.08241,9.16621 31.81605,10.80466c15.18289,3.69436 26.50382,2.3554 26.50382,2.3554l-9.1128,8.39263z" fill="#ffa1d1" stroke-width="0"/><path d="M121.52639,96.84326l6.65759,-14.79841c0,0 51.93261,17.6036 69.16414,22.27149c10.20726,2.76507 24.6981,3.15507 24.6981,3.15507l-4.17622,14.03418c0,0 -64.69729,-19.25223 -80.29379,-23.89334c-6.41268,-1.90825 -23.71759,24.99867 -23.71759,24.99867z" fill="#ee96c3" stroke-width="0"/><path d="M271.47552,221.27116l12.77231,-10.38438c0,0 14.02937,-12.36968 24.99658,-16.26628c2.78697,-0.99019 8.08307,-0.66257 8.08307,-0.66257c0,0 -8.42234,2.69489 -11.70557,4.6303c-7.75348,4.57059 -34.14634,22.68292 -34.14634,22.68292z" fill="#70646b" stroke-width="0"/><path d="M381.9896,186.50665l-0.90454,-19.0511l1.29405,0.38508c0,0 0.27395,5.76967 0.41868,8.8184c0.02065,0.4344 0.98063,1.99407 1.00618,2.5321c0.04429,0.93269 -0.84212,0.92299 -0.79264,1.96548c0.13781,2.90276 0.27232,5.73513 0.27232,5.73513z" fill="#795467" stroke-width="0"/><path d="M218.35299,122.09978c0,0 -8.17785,-9.26979 -6.45002,-12.69414c1.03453,-2.05034 19.44557,-4.86843 19.44557,-4.86843l65.17973,21.14035l-2.45174,2.50074l26.92168,13.48705l-76.39347,4.99418c0,0 0.84263,-5.60634 5.11048,-7.31836c4.14791,-1.66389 20.14694,-2.8135 20.14694,-2.8135c0,0 -32.78216,-9.80622 -39.74552,-11.96878c-2.32316,-0.72148 -11.76366,-2.4591 -11.76366,-2.4591z" fill="#f399c8" stroke-width="0"/><g><path d="M229.07745,105.86895l0.92363,-3.10384l169.22033,50.35554l-0.92363,3.10383z" fill="#584f54" stroke-width="0"/><path d="M393.59502,151.70538l0.78043,-2.62267l2.92836,0.87139l1.80339,3.39155z" fill="#685d63" stroke-width="0"/><g fill="#685d63" stroke-width="0"><g><g><g><path d="M387.14052,150.04465l0.84909,-2.85333l3.71992,1.10695l-0.8491,2.85334z"/><path d="M381.10457,148.24852l0.84909,-2.85333l3.71992,1.10695l-0.8491,2.85333z"/></g><g><path d="M375.29639,146.52013l0.84909,-2.85335l3.71992,1.10696l-0.8491,2.85334z"/><path d="M369.2604,144.72397l0.8491,-2.85334l3.71991,1.10696l-0.8491,2.85334z"/></g></g><g><g><path d="M363.33831,142.96173l0.8491,-2.85334l3.71991,1.10695l-0.8491,2.85334z"/><path d="M357.30235,141.1656l0.84909,-2.85334l3.71992,1.10695l-0.8491,2.85335z"/></g><g><path d="M351.49419,139.43721l0.84909,-2.85335l3.71991,1.10696l-0.8491,2.85334z"/><path d="M345.45827,137.64109l0.84909,-2.85333l3.71991,1.10695l-0.8491,2.85335z"/></g></g></g><g><g><g><path d="M345.23048,137.57333l0.84909,-2.85333l3.71991,1.10695l-0.8491,2.85333z"/><path d="M339.19458,135.77719l0.8491,-2.85334l3.71991,1.10696l-0.84909,2.85334z"/></g><g><path d="M333.38633,134.04882l0.8491,-2.85335l3.71991,1.10695l-0.84909,2.85334z"/><path d="M327.3504,132.25268l0.8491,-2.85333l3.71991,1.10694l-0.84909,2.85334z"/></g></g><g><g><path d="M321.42835,130.49045l0.84909,-2.85335l3.71992,1.10695l-0.8491,2.85334z"/><path d="M315.39237,128.69428l0.84909,-2.85334l3.71992,1.10696l-0.8491,2.85335z"/></g><g><path d="M309.58418,126.96592l0.84909,-2.85334l3.71993,1.10694l-0.8491,2.85335z"/><path d="M303.54824,125.16975l0.8491,-2.85333l3.71991,1.10695l-0.84909,2.85334z"/></g></g></g></g><g><g fill="#685d63" stroke-width="0"><g><g><path d="M297.58742,123.39601l0.8491,-2.85336l3.71991,1.10696l-0.84909,2.85334z"/><path d="M291.55148,121.59985l0.84909,-2.85334l3.71992,1.10696l-0.84909,2.85335z"/></g><g><path d="M285.74327,119.87151l0.8491,-2.85334l3.71992,1.10696l-0.8491,2.85335z"/><path d="M279.70737,118.07536l0.8491,-2.85333l3.71991,1.10695l-0.84909,2.85334z"/></g></g><g><g><path d="M273.7853,116.31311l0.84909,-2.85335l3.71992,1.10695l-0.8491,2.85334z"/><path d="M267.74932,114.51697l0.8491,-2.85333l3.71991,1.10695l-0.84909,2.85334z"/></g><g><path d="M261.94109,112.78861l0.8491,-2.85333l3.7199,1.10695l-0.84909,2.85335z"/><path d="M255.90515,110.99246l0.8491,-2.85334l3.71991,1.10695l-0.84909,2.85335z"/></g></g></g><g><g fill="#685d63" stroke-width="0"><g><path d="M255.67741,110.92468l0.84909,-2.85334l3.71992,1.10695l-0.8491,2.85334z"/><path d="M249.64142,109.12851l0.8491,-2.85335l3.71991,1.10695l-0.84909,2.85334z"/></g><g><path d="M243.83325,107.4002l0.84909,-2.85334l3.71992,1.10695l-0.84909,2.85335z"/><path d="M237.79733,105.60402l0.84909,-2.85334l3.71991,1.10695l-0.84909,2.85333z"/></g></g><g fill="none" stroke-width="1" font-family="sans-serif" font-weight="normal" font-size="12" text-anchor="start"><g/><g/></g></g></g><path d="M229.99883,103.02341l3.36428,-1.8538l2.92835,0.87141l-0.78044,2.62268z" data-paper-data="{&quot;index&quot;:null}" fill="#685d63" stroke-width="0"/></g><path d="M275.16634,150.77571l-2.52289,-0.46903c0,0 2.34149,-1.98204 11.85972,-0.32626c7.21624,1.25537 27.29945,5.86331 39.31117,8.65959c5.57794,1.2985 62.30036,8.78561 62.30036,8.78561l4.98695,1.46907c0,0 -62.18829,-7.39956 -67.75555,-8.71915c-12.31071,-2.91795 -33.02052,-7.78984 -39.07877,-8.98905c-3.29785,-0.65281 -9.10094,-0.41075 -9.10094,-0.41075z" fill="#70475c" stroke-width="0"/><path d="M366.45837,197.79406l-5.24575,0.36482l5.40016,-18.14486c0,0 7.454,2.26861 14.74393,4.4873c20.92712,6.36913 121.50429,36.97956 121.50429,36.97956l-1.91872,6.44786z" fill="#5a5959" stroke-width="0"/><path d="M365.11688,199.09382l1.90296,-2.57005l133.96533,31.30346l-14.53258,7.37293z" fill="#4b4a4a" stroke-width="0"/><path d="M483.35727,234.08177c0,0 -4.74118,-4.77533 -7.24038,-7.00901c-1.33939,-1.19708 -6.58924,-5.35125 -6.58924,-5.35125c0,0 6.84089,5.06526 9.7762,6.92777c1.04758,0.6647 1.91265,1.69711 3.01188,2.57524c0.35444,0.28312 2.88907,-1.84137 5.19809,-2.94289c0.69016,-0.32927 1.69823,0.35106 2.29613,0.18388c1.37068,-0.38331 2.02608,-1.32703 2.02608,-1.32703c0,0 0.05831,0.9872 -1.45616,1.80287c-0.41321,0.22257 -2.24175,0.04604 -2.65646,0.2986c-1.66203,1.01231 -3.07826,2.25924 -3.53938,2.73886c-1.2867,1.33842 0.57577,2.52034 0.57577,2.52034z" fill="#414040" stroke-width="0"/><path d="M218.22122,122.37088l6.82228,-9.54964l6.89316,1.39987c0,0 -1.66645,2.26708 -2.64859,3.60319c-0.24734,0.33652 11.61478,1.82545 11.76077,2.56898c0.27091,1.37953 -6.1421,3.39403 -6.75981,4.23434c-0.70616,0.96066 -9.16194,-1.14261 -9.16194,-1.14261z" fill="#303030" stroke-width="0"/><path d="M218.18915,121.97526l6.48394,-8.77903c0,0 2.50347,2.10611 2.22253,3.05016c-0.51114,1.71774 -3.67517,6.81417 -3.67517,6.81417z" fill="#252525" stroke-width="0"/><path d="M360.43786,200.6991l0.84207,-2.82976l6.13641,-1.25431l-2.02872,2.47662c0,0 -1.42594,0.9688 -2.29645,1.2515c-0.766,0.24876 -2.65329,0.35589 -2.65329,0.35589z" fill="#383838" stroke-width="0"/><g><g fill="#4b4b4b" stroke-width="0"><g data-paper-data="{&quot;origPos&quot;:null}"><g data-paper-data="{&quot;origPos&quot;:null}"><path d="M424.39929,221.16269l0.64823,-2.17835l3.59423,1.06953l-0.64823,2.17835z" data-paper-data="{&quot;origPos&quot;:null}"/><path d="M418.4413,219.2712l0.64823,-2.17835l3.59422,1.06953l-0.64823,2.17833z" data-paper-data="{&quot;origPos&quot;:null}"/></g><g data-paper-data="{&quot;origPos&quot;:null}"><path d="M436.3477,224.83683l0.64823,-2.17835l3.59423,1.06953l-0.64823,2.17834z" data-paper-data="{&quot;origPos&quot;:null}"/><path d="M430.38969,222.94532l0.64823,-2.17834l3.59424,1.06953l-0.64824,2.17835z" data-paper-data="{&quot;origPos&quot;:null}"/></g></g><g data-paper-data="{&quot;origPos&quot;:null,&quot;index&quot;:null}"><g data-paper-data="{&quot;origPos&quot;:null}"><path d="M454.81936,230.0964l0.64823,-2.17835l3.59424,1.06953l-0.64824,2.17834z" data-paper-data="{&quot;origPos&quot;:null}"/><path d="M460.84219,231.77004l0.64822,-2.17834l3.59423,1.06953l-0.64822,2.17833z" data-paper-data="{&quot;origPos&quot;:null}"/></g><g data-paper-data="{&quot;origPos&quot;:null}"><path d="M442.80618,226.6401l0.64824,-2.17835l3.59422,1.06954l-0.64823,2.17833z" data-paper-data="{&quot;origPos&quot;:null}"/><path d="M448.82898,228.31382l0.64823,-2.17833l3.59423,1.06952l-0.64823,2.17834z" data-paper-data="{&quot;origPos&quot;:null}"/></g></g></g><path d="M385.80368,201.07524l3.88208,-13.04577l80.9653,24.09314l-3.88207,13.04576z" data-paper-data="{&quot;origPos&quot;:null}" fill="#444444" stroke-width="0"/><path d="M384.55126,205.62942l1.36402,-4.58381l80.72734,24.02233l-1.36403,4.58382z" data-paper-data="{&quot;origPos&quot;:null}" fill="#414141" stroke-width="0"/><path d="M384.17839,207.00444l0.46137,-1.55043l80.71707,24.01927l-0.46136,1.55043z" data-paper-data="{&quot;origPos&quot;:null}" fill="#3f3f3f" stroke-width="0"/><g stroke-width="0"><g data-paper-data="{&quot;origPos&quot;:null}" fill="#5a5a5a"><g data-paper-data="{&quot;origPos&quot;:null}"><path d="M427.25536,213.493l3.92167,-13.17889l3.42309,1.01862l-3.92168,13.17888z" data-paper-data="{&quot;origPos&quot;:null}"/></g><g data-paper-data="{&quot;origPos&quot;:null}"><path d="M433.0746,215.22464l3.92167,-13.17888l3.4231,1.01862l-3.92168,13.17888z" data-paper-data="{&quot;origPos&quot;:null}"/><path d="M439.06502,217.00723l3.92169,-13.17888l3.42309,1.01862l-3.92169,13.17888z" data-paper-data="{&quot;origPos&quot;:null}"/></g></g><g data-paper-data="{&quot;origPos&quot;:null}" fill="#5a5a5a"><g data-paper-data="{&quot;origPos&quot;:null}"><path d="M445.39772,218.89169l3.92167,-13.17888l3.42309,1.01862l-3.92169,13.17889z" data-paper-data="{&quot;origPos&quot;:null}"/><path d="M451.38811,220.67427l3.92169,-13.17887l3.42309,1.01862l-3.92168,13.17887z" data-paper-data="{&quot;origPos&quot;:null}"/></g><g data-paper-data="{&quot;origPos&quot;:null}"><path d="M457.20736,222.40593l3.92169,-13.17888l3.42308,1.0186l-3.92169,13.17888z" data-paper-data="{&quot;origPos&quot;:null}"/><path d="M463.19776,224.18851l3.92169,-13.17888l3.42308,1.01861l-3.92167,13.17888z" data-paper-data="{&quot;origPos&quot;:null}"/></g></g><path d="M430.73724,214.52912l-1.39307,1.60018l-5.03594,-1.45362l2.66052,-9.42929l4.15188,-4.94908l-3.85561,13.19857z" fill="#3a3a3a"/><path d="M436.55413,216.26006l-1.39308,1.6002l-5.03594,-1.45362l2.66052,-9.42929l4.15187,-4.94907l-3.8556,13.19856z" fill="#3a3a3a"/><path d="M442.50319,218.03035l-1.39308,1.60018l-5.03594,-1.45362l2.66052,-9.42928l4.15187,-4.94907l-3.85561,13.19857z" fill="#3a3a3a"/><path d="M448.91502,219.93834l-1.39307,1.60018l-5.03594,-1.45363l2.66052,-9.42929l4.15187,-4.94907l-3.85559,13.19857z" fill="#3a3a3a"/><path d="M454.93018,221.7283l-1.39307,1.60018l-5.03594,-1.45362l2.66052,-9.42929l4.15187,-4.94907l-3.85559,13.19857z" fill="#3a3a3a"/><path d="M460.68097,223.43957l-1.39308,1.60018l-5.03593,-1.45362l2.66052,-9.42929l4.15187,-4.94907l-3.85559,13.19858z" fill="#3a3a3a"/><path d="M466.70374,225.2318l-1.39307,1.60018l-5.03594,-1.45362l2.66053,-9.42928l4.15187,-4.94908l-3.85561,13.19857z" fill="#3a3a3a"/></g><g stroke-width="0"><g data-paper-data="{&quot;origPos&quot;:null}" fill="#5a5a5a"><g data-paper-data="{&quot;origPos&quot;:null}"><path d="M385.82187,201.16348l3.92169,-13.17888l3.4231,1.01862l-3.92168,13.17888z" data-paper-data="{&quot;origPos&quot;:null}"/></g><g data-paper-data="{&quot;origPos&quot;:null}"><path d="M391.64109,202.89515l3.92167,-13.17887l3.42309,1.01862l-3.92169,13.17888z" data-paper-data="{&quot;origPos&quot;:null}"/><path d="M397.63149,204.67772l3.92169,-13.17888l3.4231,1.01861l-3.92169,13.17888z" data-paper-data="{&quot;origPos&quot;:null}"/></g></g><g data-paper-data="{&quot;origPos&quot;:null}" fill="#5a5a5a"><g data-paper-data="{&quot;origPos&quot;:null}"><path d="M403.96422,206.56215l3.92169,-13.17888l3.4231,1.01862l-3.92168,13.17888z" data-paper-data="{&quot;origPos&quot;:null}"/><path d="M409.95467,208.34476l3.92169,-13.17889l3.4231,1.01863l-3.92169,13.17887z" data-paper-data="{&quot;origPos&quot;:null}"/></g><g data-paper-data="{&quot;origPos&quot;:null}"><path d="M415.7739,210.07642l3.92169,-13.17888l3.4231,1.01862l-3.92169,13.17888z" data-paper-data="{&quot;origPos&quot;:null}"/><path d="M421.7643,211.85903l3.92169,-13.17888l3.4231,1.01862l-3.92169,13.1789z" data-paper-data="{&quot;origPos&quot;:null}"/></g></g><path d="M389.30369,202.19958l-1.39308,1.60018l-2.62867,-0.73724l0.54953,-1.89616z" fill="#3a3a3a"/><path d="M395.12064,203.93057l-1.39307,1.6002l-5.03594,-1.45363l2.66053,-9.42928l4.15187,-4.94907l-3.8556,13.19857z" fill="#3a3a3a"/><path d="M401.06969,205.70083l-1.39307,1.60018l-5.03594,-1.45362l2.66052,-9.42928l4.15188,-4.94908l-3.8556,13.19858z" fill="#3a3a3a"/><path d="M407.48147,207.60879l-1.39307,1.60018l-5.03595,-1.45362l2.66053,-9.42929l4.15188,-4.94908l-3.8556,13.19857z" fill="#3a3a3a"/><path d="M413.49672,209.39882l-1.39308,1.60019l-5.03594,-1.45362l2.66052,-9.42929l4.15188,-4.94908l-3.85561,13.19858z" fill="#3a3a3a"/><path d="M419.24748,211.11008l-1.39307,1.60019l-5.03594,-1.45362l2.66052,-9.42928l4.15188,-4.94908l-3.8556,13.19857z" fill="#3a3a3a"/><path d="M425.2703,212.90235l-1.39307,1.6002l-5.03594,-1.45362l2.66052,-9.42929l4.15188,-4.94907l-3.8556,13.19857z" fill="#3a3a3a"/></g><g><g data-paper-data="{&quot;origPos&quot;:null}"><g data-paper-data="{&quot;origPos&quot;:null}" fill="none" stroke-width="1" font-family="sans-serif" font-weight="normal" font-size="12" text-anchor="start"/><g data-paper-data="{&quot;origPos&quot;:null}" fill="#4b4b4b" stroke-width="0"><path d="M389.61426,211.01041l0.64824,-2.17834l3.59422,1.06953l-0.64822,2.17834z" data-paper-data="{&quot;origPos&quot;:null}"/><path d="M383.65626,209.11894l0.64823,-2.17835l3.59423,1.06953l-0.64823,2.17835z" data-paper-data="{&quot;origPos&quot;:null}"/></g></g><g data-paper-data="{&quot;origPos&quot;:null,&quot;index&quot;:null}" fill="#4b4b4b" stroke-width="0"><g data-paper-data="{&quot;origPos&quot;:null}"><path d="M408.08599,216.27l0.64823,-2.17834l3.59423,1.06953l-0.64823,2.17834z" data-paper-data="{&quot;origPos&quot;:null}"/><path d="M414.10881,217.94363l0.64822,-2.17833l3.59423,1.06953l-0.64823,2.17834z" data-paper-data="{&quot;origPos&quot;:null}"/></g><g data-paper-data="{&quot;origPos&quot;:null}"><path d="M396.0727,212.81374l0.64823,-2.17834l3.59423,1.06953l-0.64823,2.17834z" data-paper-data="{&quot;origPos&quot;:null}"/><path d="M402.09551,214.48735l0.64824,-2.17834l3.59424,1.06953l-0.64823,2.17834z" data-paper-data="{&quot;origPos&quot;:null}"/></g></g></g></g><path d="M230.82917,124.45963l2.19866,-3.74354c0,0 5.31726,-1.7016 8.74449,-0.83825c3.91804,0.98696 32.63502,9.55846 32.63502,9.55846c0,0 0.09954,1.98663 -0.29836,3.13819c-0.51263,1.48361 -3.41486,3.81743 -3.41486,3.81743z" fill="#242424" stroke-width="0"/><path d="M255.76803,127.90563l0.8985,-3.01947l17.25408,5.13436l-0.89851,3.01948z" fill="#313131" stroke-width="0"/><path d="M252.06042,128.81664l0.18603,-0.62515c0,0 1.32332,-0.70293 2.3039,-0.41114c0.93115,0.27711 2.8928,1.35635 5.19625,2.21224c4.38807,1.63048 9.7537,3.33321 9.7537,3.33321l-0.18604,0.62515c0,0 -5.20221,-1.55017 -9.52802,-3.16151c-2.36034,-0.87922 -4.37205,-2.07148 -5.33796,-2.35894c-1.01529,-0.30212 -2.38784,0.38615 -2.38784,0.38615z" fill="#616161" stroke-width="0"/><path d="M282.54751,121.497l11.30282,6.5212l28.0551,13.88658c0,0 0.63873,0.42397 -6.91576,-2.58384c-2.56991,-1.02322 -12.30746,-5.5996 -20.60448,-10.05386c-2.24506,-1.20526 -14.04395,-8.30622 -14.04395,-8.30622z" fill="#df8cb7" stroke-width="0"/><path d="M107.17463,75.92154l1.69221,-5.68668c0,0 6.03039,-0.03444 9.67619,1.05048c2.98471,0.88819 10.11493,6.66779 10.11493,6.66779l-3.62903,11.72261z" fill="#626061" stroke-width="0"/><path d="M215.56548,118.59429l2.92387,3.48467l12.11583,2.22485l48.63722,14.47316l-0.31115,1.04572c0,0 -36.44366,-10.99621 -47.92748,-14.1399c-3.15286,-0.8631 -12.65497,-2.93857 -12.65497,-2.93857z" fill="#ffa6d4" stroke-width="0"/><path d="M86.17815,136.37436l2.04486,-6.8718l27.19778,-9.25756l-5.43908,12.64273l-16.18488,5.75378z" fill="#3f3d3e" stroke-width="0"/><path d="M86.05899,131.05944c0,0 5.78477,-18.7821 9.2903,-27.73756c3.95652,-10.10763 13.25995,-29.87123 13.25995,-29.87123c0,0 8.31075,2.27548 11.27461,4.87462c2.53667,2.22448 5.42726,9.77179 5.42726,9.77179l-9.56936,32.15795c0,0 -15.27121,9.74745 -18.83395,11.0443c-5.48012,1.99478 -10.84876,-0.23987 -10.84876,-0.23987z" fill="#555354" stroke-width="0"/><path d="M105.44184,83.56589c0,0 0.23307,-6.18326 2.98268,-8.17916c2.74961,-1.99591 7.20855,-1.73005 9.66247,-0.99979c1.95756,0.58253 5.98624,1.8635 7.46864,6.95633c1.48243,5.09282 -2.25985,10.93837 -2.25985,10.93837c0,0 -3.07088,-11.76835 -5.3997,-12.90521c-3.28622,-1.60425 -12.45427,4.1895 -12.45427,4.1895z" fill="#6f6b6c" stroke-width="0"/><path d="M83.27678,135.31448c0,0 9.07672,-24.49098 12.34065,-35.45945c3.39912,-11.42281 9.10289,-31.34178 9.10289,-31.34178c0,0 1.29154,-0.28648 2.28915,0.01037c0.9122,0.27143 2.23058,1.3346 2.23058,1.3346c0,0 -5.66878,18.29851 -8.71908,28.54913c-3.54394,11.90938 -13.95693,37.88536 -13.95693,37.88536z" fill="#333232" stroke-width="0"/><path d="M82.73736,135.61682l5.24371,-13.78525c0,0 0.75784,1.15294 1.3434,1.28684c0.73936,0.16906 2.75672,-0.73043 2.75672,-0.73043l-5.53961,14.36086z" fill="#2e2d2d" stroke-width="0"/><path d="M117.77127,108.21085c-2.32868,7.82551 -8.75377,14.95714 -13.77264,16.51789c-4.16833,1.29629 -13.28296,5.63479 -10.9543,-2.19072c0.49402,-1.66016 5.84134,-12.46307 7.96945,-19.16428c2.81437,-8.86222 2.65764,-14.10563 4.38328,-16.54646c3.12027,-4.41337 8.8361,-4.25611 10.95862,-3.62451c4.18393,1.24503 3.74427,17.18254 1.4156,25.00806z" fill="#585758" stroke-width="0"/><path d="M146.78495,131.53786l-0.07148,-1.83747c0,0 7.99514,0.97008 13.90124,2.22244c8.31444,1.76305 31.27993,7.35808 31.27993,7.35808l1.3559,1.74022c0,0 -24.52981,-5.60881 -33.10059,-7.35804c-2.51713,-0.51373 -13.36501,-2.12522 -13.36501,-2.12522z" fill="#585657" stroke-width="0"/><path d="M137.37428,142.51005l8.87919,-11.6425l7.2126,1.15443c0,0 -2.89617,3.63858 -3.02884,4.38698c-0.63395,3.57605 -4.59722,27.40237 -4.59722,27.40237c0,0 -1.5417,0.00074 -2.14677,-2.13613c-1.08566,-3.8342 -0.88775,-10.93469 -1.96738,-13.44975c-0.93278,-2.17296 -4.35159,-5.71538 -4.35159,-5.71538z" fill="#5a5759" stroke-width="0"/><path d="M158.169,116.55903l6.00131,-10.03864l2.26811,0.559l-7.12965,9.9347z" fill="#a5a0a2" stroke-width="0"/><path d="M164.98573,117.45706l0.40007,-1.34449l25.39567,7.55709l-0.40006,1.34449z" fill="#494748" stroke-width="0"/><path d="M165.75593,114.58618l0.40007,-1.34449l25.39567,7.55709l-0.40007,1.34449z" fill="#494748" stroke-width="0"/><path d="M140.7387,130.52053l5.74372,-19.30186l14.48137,-5.72369l4.73225,1.08293l-27.81072,36.39318l-4.80675,-3.52055z" fill="#dbd5d8" stroke-width="0"/><path d="M111.94265,134.3823l3.21158,-11.34612l25.77253,6.84552c0,0 -0.40723,2.52652 -0.75978,3.25473c-0.87873,1.81525 -4.78139,7.89238 -4.78139,7.89238z" fill="#ccc6c9" stroke-width="0"/><path d="M118.82378,124.54594l0.09007,-0.30269l22.11696,5.67535l-2.83499,0.39199c0,0 -4.19523,-1.05412 -6.78237,-1.8571c-3.5425,-1.09951 -12.58971,-3.90753 -12.58971,-3.90753z" fill="#d8d1d5" stroke-width="0"/><path d="M123.259,121.967l4.84863,-16.29388l15.45524,4.59909l-4.84864,16.29388z" fill="#a39999" stroke-width="0"/><path d="M111.62919,134.46613l3.23983,-10.88748c0,0 6.64825,8.64179 10.0893,12.10779c3.44106,3.46598 9.75208,5.05187 9.75208,5.05187z" fill="#b4afb1" stroke-width="0"/><path d="M142.15151,149.85327c0,0 2.60688,1.86133 3.69845,2.0362c0.67059,0.10737 2.22815,-1.08687 2.22815,-1.08687l-0.99815,9.16937l-1.19651,4.02088c0,0 -1.95113,-0.25569 -2.4405,-3.09581c-0.40376,-2.34332 -1.29148,-11.04369 -1.29148,-11.04369z" fill="#504e4f" stroke-width="0"/><path d="M137.50744,143.13012l25.76672,-35.88508l1.61266,0.69392l-25.78539,36.30755z" fill="#858183" stroke-width="0"/><path d="M132.99473,99.26502l1.92257,-1.14988c0,0 26.46052,7.20214 38.35534,10.74175c10.3239,3.07211 30.5174,9.44947 30.5174,9.44947l-0.0462,2.01177c0,0 -20.21134,-6.75093 -31.09336,-9.98912c-12.42587,-3.69761 -39.65572,-11.06393 -39.65572,-11.06393z" fill="#918b8e" stroke-width="0"/><path d="M134.32167,98.37582l2.49352,-1.28352c0,0 24.91371,7.0454 36.80851,10.58498c10.32389,3.0721 30.51741,9.44948 30.51741,9.44948l-0.04622,2.01175c0,0 -20.21134,-6.75092 -31.09336,-9.98912c-12.42587,-3.69762 -38.67984,-10.77354 -38.67984,-10.77354z" fill="#a59fa2" stroke-width="0"/><path d="M190.31831,136.7258l-0.2248,-5.99578c0,0 0.54651,-1.09462 0.89786,-1.10777c0.30954,-0.0116 1.10072,1.03285 1.10072,1.03285l0.22478,5.99577c0,0 -0.51499,0.76243 -0.82523,0.77407c-0.35095,0.01315 -1.17337,-0.6991 -1.17337,-0.6991z" fill="#494242" stroke-width="0"/><path d="M150.96113,127.77755l6.10115,-8.08123l3.72432,1.10827l-6.10115,8.08122z" fill="#9c989a" stroke-width="0"/><path d="M165.201,113.46846l2.04992,-0.39988l23.41861,6.98762l1.66329,1.48603z" fill="#757274" stroke-width="0"/><path d="M164.48957,116.18988l2.04993,-0.39989l23.4186,6.98761l1.66332,1.48602z" fill="#757274" stroke-width="0"/><path d="M109.58941,132.83359l18.22343,-55.25523l1.67492,1.1043l-17.81499,55.79529z" fill="#686666" stroke-width="0"/><path d="M109.35572,133.04608l5.26378,-15.39386l1.10685,4.31331l-4.21444,12.63275z" fill="#535252" stroke-width="0"/><path d="M145.34871,119.89064c0,0 2.70477,-1.64226 2.9748,-2.5497c0.265,-0.89051 -1.36944,-2.84522 -1.36944,-2.84522c0,0 2.68635,1.49813 2.10491,3.08659c-0.44287,1.20991 -2.07413,3.00836 -2.47229,4.04002c-1.13213,2.93341 -3.88771,9.77916 -3.88771,9.77916z" fill="#c4bec1" stroke-width="0"/><path d="M153.25107,120.2477l4.7401,-9.22672l3.6849,-3.44648l-5.27089,8.40393z" fill="#aca7a9" stroke-width="0"/></g></g><g stroke-width="0"><path d="M274.34381,127.24516l3.39837,-2.46222c0,0 2.14204,-0.86116 2.85428,-0.36231c0.81208,0.56877 1.75813,3.59276 1.75813,3.59276l-1.68365,3.75781c0,0 -4.10126,-1.22829 -5.27693,-1.71721c-0.53001,-0.22042 -1.05019,-2.80883 -1.05019,-2.80883z" fill="#c0c0c0"/><path d="M230.455,124.25437c0,0 0.65227,-2.8107 1.99224,-3.6002c1.67926,-0.98939 8.13759,-1.37562 8.13759,-1.37562l-2.03215,4.33769l-0.83315,2.79991z" fill="#838383"/><path d="M230.31117,124.13398l9.90185,-4.85896l36.00215,10.71328l-2.13378,7.17052z" fill="#999999"/><path d="M231.45591,123.78975l7.56983,-3.84165l32.36952,9.63231l-1.66594,5.5985c0,0 -3.91781,-1.16583 -8.9576,-2.66553c-3.27667,-0.97508 -6.7247,-3.10914 -10.18158,-4.1378c-3.70835,-1.10352 -7.3812,-1.08841 -9.46409,-1.70821c-4.0765,-1.21308 -9.67014,-2.87759 -9.67014,-2.87759z" fill="#2e2e2e"/><path d="M234.80369,124.78368l9.70496,-3.27118l11.94639,3.55493c0,0 -7.61371,-0.27562 -10.14622,-0.07504c-2.68854,0.21292 -6.36925,1.3196 -6.36925,1.3196z" fill="#a5899d"/><path d="M242.49316,126.95424c0,0 5.15119,0.51859 7.50626,1.21942c3.00917,0.89546 9.07218,3.71389 9.07218,3.71389l-9.15746,-3.07476z" fill="#adadad"/><path d="M230.41658,124.1464l8.94128,-4.38354l33.5143,9.97301l-0.19638,0.65999c0,0 -29.01922,-8.63535 -32.8019,-9.76099c-0.79121,-0.23544 -9.45731,3.5116 -9.45731,3.5116z" fill="#8a8a8a"/><path d="M273.84619,143.57596l2.78235,-9.35014l2.67781,-6.71714c0,0 1.00383,0.78897 1.37402,1.48705c0.37019,0.69808 0.41606,1.8884 0.41606,1.8884l-5.32083,13.26598z" fill="#9e9e9e"/><path d="M269.82772,137.96603c0,0 -0.26783,-2.2967 0.05437,-3.85881c0.43391,-2.10357 2.82777,-7.14857 2.82777,-7.14857l1.95359,0.24188c0,0 0.50154,0.97533 1.00209,0.96869c0.69015,-0.00915 2.75586,-1.01867 2.75586,-1.01867l-4.13743,12.14157z" fill="#9c9c9c"/><path d="M269.85567,139.88439c-0.43488,-1.28171 0.18718,-2.52923 0.18718,-2.52923l6.72871,-5.51013c0,0 0.22804,4.11994 -0.03336,4.99834c-0.74313,2.49732 -1.13312,7.33679 -1.13312,7.33679c0,0 -2.88019,-0.76971 -3.75082,-1.48641c-1.04418,-0.85957 -1.5637,-1.52767 -1.99861,-2.80938z" fill="#888888"/><path d="M271.78327,139.65019c-0.37685,-2.19856 -0.07247,-6.76444 2.85477,-10.1364c2.92726,-3.37194 4.63347,-0.64068 4.63347,-0.64068c0,0 -0.29682,4.52635 -0.95646,6.74313c-0.60088,2.01934 -2.84168,6.02057 -2.84168,6.02057c0,0 -3.31325,0.21194 -3.69009,-1.98664z" fill="#b4b4b4"/><path d="M277.96701,133.46151c-0.40247,1.35245 -5.32225,-0.03077 -4.91979,-1.38321c0.40247,-1.35245 4.87494,-5.65786 5.65361,-5.42615c0.30158,0.08974 0.88964,0.371 0.77546,1.44368c-0.18067,1.69701 -1.26267,4.53704 -1.50929,5.3657z" fill="#bbbbbb"/></g><g stroke-width="0"><path d="M215.47746,118.55231c0,0 -4.21084,-6.38347 -3.67651,-8.17906c0.43627,-1.46611 6.25689,0.1375 6.25689,0.1375l7.21138,2.22088l-6.9313,9.1835z" fill="#f399c8"/><path d="M185.75106,111.4193c0,0 -0.33146,-2.28737 0.22106,-3.24218c0.60976,-1.05368 3.61264,-3.92124 3.61264,-3.92124l22.1342,6.39286l6.28765,10.86787z" fill="#ee96c3"/></g></g><g stroke-width="0"><g><path d="M282.89909,119.74794l1.76314,-5.92505l45.832,13.63839l-1.76313,5.92505z" fill="#61585b"/><path d="M283.66769,116.59257l0.94416,-3.17286l46.00625,13.69027l-0.94417,3.17286c0,0 -8.28195,-2.46453 -16.78965,-4.99616c-2.66,-0.79154 -6.83237,-0.45014 -9.29025,-1.18156c-2.92274,-0.86973 -5.62457,-3.25673 -7.49936,-3.81462c-5.6217,-1.67287 -12.42699,-3.69793 -12.42699,-3.69793z" fill="#494344"/><path d="M344.8109,127.8957l-3.54573,-20.80854l20.05032,5.96649l10.00346,20.47799c0,0 -5.86127,-0.32379 -9.03269,-0.99805c-4.89383,-1.04048 -17.47538,-4.63785 -17.47538,-4.63785z" fill="#5e555b"/><path d="M343.83319,131.18869l1.57964,-5.30844c0,0 12.20211,2.11493 17.11341,2.76302c3.89774,0.51432 6.75288,0.75665 6.75288,0.75665l3.71364,8.34457c0,0 -5.56616,0.00897 -9.66835,-0.74854c-5.5583,-1.02645 -19.49121,-5.80714 -19.49121,-5.80714z" fill="url(#color-5)"/><path d="M339.59544,106.75595l1.13977,-3.83018l18.35602,5.46227l2.34558,4.86731z" fill="url(#color-6)"/><path d="M343.26655,131.04612l0.35917,-1.20694c0,0 14.98315,4.37888 20.1937,5.75462c3.8962,1.02871 8.58282,0.77813 8.58282,0.77813l0.52547,1.35071l-8.46839,-0.37016z" fill="#312c30"/><g><path d="M249.46632,92.07363l2.30948,-8.55499l90.02406,26.78879l4.10543,12.99239z" fill="#8a6672"/><path d="M262.95542,104.73236c0,0 -2.34495,-4.45983 -4.61626,-6.66065c-2.27132,-2.20084 -9.10699,-3.9872 -9.10699,-3.9872l0.70279,-1.96841c0,0 11.73261,3.77969 18.44279,5.87583c16.02974,5.00731 77.31996,24.03823 77.31996,24.03823l1.59968,7.32766z" fill="#755761"/><path d="M264.97514,107.93224l-2.16052,-3.34705l84.08794,24.5118l0.27662,3.29697z" fill="#694e57"/><path d="M251.5049,83.8513l1.29173,-4.3409l87.22821,25.24804l2.07507,6.52406c0,0 1.68865,3.98518 -3.37079,2.45323c-1.59275,-0.48225 -9.37405,-6.31222 -10.97076,-6.79569c-15.37747,-4.65613 -76.25342,-23.08871 -76.25342,-23.08871z" fill="#916b77"/><path d="M253.02849,79.57952l0.60612,-2.45357l86.21392,25.51024l0.31946,2.59102z" fill="#9e7582"/><path d="M323.88033,101.37671c-7.54791,-2.92206 -69.23144,-22.35452 -69.23144,-22.35452l84.20496,25.05719l2.47905,8.50133c0,0 -9.90465,-8.28194 -17.45257,-11.20399z" fill="#b38f9a"/></g><path d="M294.56552,116.7346l2.61651,-8.79275l19.37268,5.76479l-2.61651,8.79275z" fill="#3a3336"/><path d="M297.09665,107.92078l1.12093,-1.25493l17.7684,5.28741l0.51001,1.74021z" fill="#4b4246"/><path d="M294.84227,116.29594l2.33236,-7.83792c0,0 -0.48675,5.34919 1.74527,7.16762c2.23202,1.81842 14.7537,6.27403 14.7537,6.27403z" fill="#332c30"/><path d="M340.16478,109.24556l-2.0459,-6.86884c0,0 1.17059,-0.34725 1.74629,-0.17593c0.64359,0.19151 1.93419,1.27113 1.93419,1.27113l2.0459,6.86884z" fill="#757575"/><path d="M341.70933,114.64499l-2.94392,-9.86152l3.68051,1.09521l2.94392,9.8615z" fill="#5a5a5a"/><path d="M343.93858,122.03678l-2.94392,-9.8615l3.68049,1.0952l2.94393,9.86152z" fill="#505050"/><path d="M346.24017,129.69087c-0.50281,-1.68433 -2.46473,-8.25628 -2.46473,-8.25628l3.68049,1.09522l3.39389,11.78397c0,0 -2.12314,-0.07309 -3.02898,-0.3581c-0.70659,-0.22232 -1.35897,-3.52213 -1.58068,-4.26483z" fill="#3b3b3b"/><path d="M247.24725,94.12402l5.32628,-17.89906l3.04885,0.90723l-5.3263,17.89907z" fill="#443e42"/><path d="M228.6991,90.27281l1.03352,-5.87737l19.38837,5.76945l-1.69074,5.68177z" fill="url(#color-7)"/><path d="M229.55275,84.9999l3.09371,-10.39643l19.38837,5.76945l-3.09373,10.39644z" fill="#5e555b"/><path d="M232.61043,74.72451l1.95387,-3.76115l18.62158,5.54128l-1.18712,3.98933z" fill="url(#color-8)"/><path d="M301.12186,90.97489l1.74931,-5.87855l14.09406,5.3069l3.08657,5.83377z" fill="#5e555b"/><path d="M319.95041,96.57779l-3.01051,-6.08935c0,0 2.69396,1.52221 4.54491,3.11451c1.85098,1.59233 4.68495,4.82553 4.68495,4.82553z" fill="#776b73"/><path d="M297.89559,91.22046l3.42203,-0.28009l24.61274,7.04588l3.06208,2.48778z" fill="#6d6269"/></g><g><path d="M297.08429,113.34195c0.35617,-1.19699 1.17523,-2.16008 1.84136,-3.03604c0.92818,-1.22062 1.84445,-2.18727 3.3258,-2.62928c0.90486,-0.26999 2.10595,-0.31886 3.12238,-0.26718c0.67229,0.03421 1.74402,-0.0643 2.41787,0.13622c1.52749,0.45455 1.83228,0.63051 2.79281,1.43385c0.5786,0.48392 2.02185,1.38196 2.3429,2.17877c0.27175,0.67439 0.45724,1.71924 0.5909,2.4681c0.2284,1.27977 0.46575,3.2957 0.06971,4.62667c-0.16739,0.56246 -1.02061,1.70499 -1.21526,2.1849c-0.61787,1.5235 -0.76394,2.01172 -2.24173,2.72329c-0.89819,0.43249 -2.49908,0.52766 -3.55893,0.64002c-1.09761,0.11637 -2.56746,0.58257 -3.69146,0.24809c-0.75864,-0.22576 -1.97482,-1.14584 -2.6709,-1.49506c-1.51019,-0.75767 -2.31547,-1.17932 -2.97701,-2.56573c-0.56731,-1.18893 -0.36127,-2.79521 -0.32315,-4.2003c0.02005,-0.73816 -0.04589,-1.70478 0.17474,-2.44629z" fill="#3a3a3a"/><path d="M297.81881,113.43676c0.32593,-1.09534 1.07545,-1.97666 1.685,-2.77827c0.84939,-1.11699 1.6878,-2.00153 3.04345,-2.40607c0.82802,-0.24707 1.92715,-0.2918 2.85726,-0.24448c0.61519,0.03127 1.59597,-0.05882 2.21254,0.12466c1.39783,0.41595 1.67674,0.57697 2.55569,1.31209c0.52947,0.44284 1.85019,1.26461 2.14401,1.99377c0.24867,0.61717 0.41841,1.57331 0.54072,2.25855c0.20901,1.17108 0.4262,3.01589 0.06381,4.23381c-0.15316,0.51469 -0.93398,1.56023 -1.11209,1.9994c-0.5654,1.39415 -0.69904,1.84093 -2.05139,2.49207c-0.82195,0.39573 -2.28692,0.48284 -3.25676,0.58565c-1.0044,0.10649 -2.34949,0.5331 -3.37803,0.22704c-0.69422,-0.20657 -1.80712,-1.04853 -2.44413,-1.3681c-1.38199,-0.69334 -2.1189,-1.07917 -2.72427,-2.3479c-0.51911,-1.08799 -0.33058,-2.55788 -0.29569,-3.84366c0.01833,-0.67552 -0.04199,-1.56005 0.1599,-2.23856z" fill="#5a5a5a"/><path d="M310.79623,112.57285c-1.27953,-2.86991 -6.10425,-4.51495 -6.10425,-4.51495c0,0 2.01561,0.0364 3.92114,0.61064c1.54354,0.46516 2.94662,1.26293 3.68694,2.84062c0.74091,1.57896 0.69499,3.11436 0.57185,4.53365c-0.24137,2.78272 -1.34348,4.95127 -1.34348,4.95127c0,0 0.54734,-5.55132 -0.73223,-8.42123z" fill="#6d6d6d"/><path d="M304.25908,115.86394c0.1642,-0.55178 0.74461,-0.866 1.29644,-0.70183c0.55178,0.16419 0.86599,0.74461 0.70182,1.29645c-0.1642,0.55178 -0.74461,0.86599 -1.29644,0.70182c-0.55178,-0.16419 -0.866,-0.7446 -0.70181,-1.29645z" fill="#272727"/><path d="M304.14433,115.97253c0.15061,-0.50609 0.68296,-0.7943 1.18907,-0.64369c0.50609,0.15061 0.7943,0.68296 0.64369,1.18907c-0.15061,0.50609 -0.68296,0.79431 -1.18907,0.64371c-0.50609,-0.15061 -0.79431,-0.68296 -0.6437,-1.18907z" fill="#131313"/></g></g></g></g></g><path d="M187.62652,195.95001c0.45199,-1.51885 8.52786,-43.58891 9.48042,-45.0532c1.28612,-1.97709 9.02979,1.73639 12.30086,1.13663c10.0182,-1.83685 20.73191,-3.4346 20.73191,-3.4346c0,0 13.31844,4.56883 17.37897,5.77718c3.03654,0.9036 64.22995,10.25492 61.9967,20.35925c-3.02909,13.70528 -41.40664,-9.94112 -44.86648,1.68565c-0.87588,2.94336 1.378,3.81802 -0.06184,6.67317c-0.34559,0.68524 -4.07671,4.97827 -4.76976,6.52075c-1.10016,2.44847 0.91656,7.22455 -3.14008,9.251c-3.2337,1.61535 -2.81286,6.97484 -3.77178,7.95779c-6.60823,6.77353 -13.50609,0.75162 -22.14457,-1.81895c-10.24217,-3.04778 -26.20832,-3.91422 -34.84925,-7.7765c-3.72995,-1.66724 -9.60069,3.14304 -8.28507,-1.27811z" fill="#86c8f5" stroke-width="0"/><g stroke-width="0"><g><path d="M178.69719,211.50891l1.59203,-5.35009c0,0 2.09748,0.80992 3.19141,0.12999c1.54552,-0.96055 5.3824,-5.18139 5.3824,-5.18139l-1.70105,7.93833c0,0 -3.86447,2.18714 -5.59496,2.60852c-1.2494,0.3042 -2.86981,-0.14536 -2.86981,-0.14536z" fill="#4d484c"/><g><g><path d="M142.89057,189.01191l5.5145,-4.16215c0,0 17.79427,-4.04149 25.23988,-5.88606c5.7274,-1.4189 14.91901,-3.84899 14.91901,-3.84899l-4.9892,26.00371z" fill="#eb59c1"/><path d="M147.46625,178.7673l7.78817,-28.22504c0,0 25.24099,11.89692 30.99299,16.69343c4.17402,3.48064 -1.11352,16.32661 -1.11352,16.32661l-7.36499,4.2223z" fill="#dd54b6"/><path d="M150.60599,157.33021l5.93099,-23.2327c0,0 11.15543,10.89432 15.3754,12.94895c6.25316,3.04458 19.33696,4.05259 19.33696,4.05259l-7.43092,24.9717c0,0 -10.93609,-1.43984 -11.79195,-1.92277c-3.84262,-2.16825 -21.42048,-16.81777 -21.42048,-16.81777z" fill="#ff77d8"/><path d="M152.03547,150.02051l4.0077,-13.4679l36.66314,6.46962l-6.43994,17.18443c0,0 -8.85329,-1.4493 -13.93326,-2.96096c-6.13137,-1.82452 -20.29764,-7.22519 -20.29764,-7.22519z" fill="#ee51c1"/></g><g><g><path d="M143.35907,178.19033l6.80717,-40.5493l8.0524,2.3962l-6.80717,40.5493z" fill="#a59da1"/><path d="M150.07809,137.81362c0,0 0.5384,-4.52666 2.62714,-5.24242c2.08875,-0.71581 7.03208,0.49102 7.03208,0.49102l-1.59369,7.15152z" fill="#b9b0b5"/><path d="M142.02909,188.90093l1.39412,-10.7205l8.01391,2.38475l-1.39412,10.72049z" fill="#8b8488"/></g><g><path d="M182.85015,186.39788l6.80717,-40.54929l4.35064,1.29462l-6.80716,40.54929z" fill="#a59da1"/><path d="M189.52571,146.84998l1.05623,-6.40603c0,0 3.00689,0.18488 3.69067,1.58788c0.68378,1.403 -0.33965,5.28789 -0.33965,5.28789z" fill="#b9b0b5"/><path d="M181.50814,197.10498l1.39412,-10.72051l4.32418,1.28676l-1.39411,10.72051z" fill="#8b8488"/></g><path d="M140.50248,197.39431c0,0 -2.35204,-3.56154 -2.30978,-5.09792c0.04705,-1.71023 2.57938,-4.69795 2.57938,-4.69795l46.94089,9.38307c0,0 1.26479,2.81138 1.24488,4.35622c-0.02795,2.16531 -5.46444,5.67511 -5.46444,5.67511z" fill="#494547"/><path d="M158.92778,136.92282c0,0 -2.05837,-1.20444 -2.3074,-1.87769c-0.27347,-0.73933 1.54954,-2.3697 1.54954,-2.3697c0,0 11.83239,2.46522 16.98223,3.66156c6.00354,1.39466 16.05576,4.19415 16.05576,4.19415c0,0 0.15997,1.32455 -0.09224,1.8728c-0.24422,0.53096 -1.01113,1.48148 -1.01113,1.48148z" fill="#c2b8bd"/><path d="M141.19107,196.32558c0,0 -0.37484,-3.06969 -0.12897,-4.74476c0.20401,-1.39014 1.15989,-3.46088 1.15989,-3.46088l44.14021,8.90235c0,0 1.0449,3.60052 0.57066,5.19413c-0.50944,1.71201 -3.18693,3.59787 -3.18693,3.59787z" fill="#6f696b"/><path d="M150.30261,204.70194l1.59203,-5.35008l29.01367,6.95938l-1.59202,5.35008z" fill="#333032"/><path d="M139.21413,201.52898c-0.87979,-0.93782 -2.07199,-2.82183 -2.07199,-2.82183l1.11131,-6.78419c0,0 1.72286,2.88353 2.49175,4.53282c0.54422,1.1674 11.22669,2.80273 11.22669,2.80273l-1.59202,5.35009c0,0 -10.28593,-2.14179 -11.16573,-3.0796z" data-paper-data="{&quot;index&quot;:null}" fill="#444043"/><g><path d="M153.99303,151.07124c0,0 -1.12487,-5.28236 -0.65318,-6.9597c0.32658,-1.16127 3.21161,-2.1382 3.21161,-2.1382l34.46825,7.10137c0,0 0.63654,3.44867 0.21488,4.94809c-0.43097,1.5325 -2.77336,4.14983 -2.77336,4.14983z" fill="#979797"/><path d="M154.34831,150.06468c0,0 -1.30031,-4.76607 -0.89443,-6.24974c0.28102,-1.02725 3.09594,-1.79791 3.09594,-1.79791l34.30303,7.58738c0,0 0.7523,3.10806 0.38946,4.4344c-0.37082,1.35556 -2.59097,3.61328 -2.59097,3.61328z" fill="#a2a2a2"/></g><g><path d="M151.55758,167.60292c0,0 -1.12487,-5.28236 -0.65318,-6.9597c0.32658,-1.16127 3.2116,-2.13822 3.2116,-2.13822l34.46824,7.10137c0,0 0.63656,3.44866 0.2149,4.94808c-0.43097,1.5325 -2.77334,4.14982 -2.77334,4.14982z" fill="#979797"/><path d="M151.91284,166.59638c0,0 -1.3003,-4.76606 -0.89441,-6.24974c0.281,-1.02723 3.09594,-1.79791 3.09594,-1.79791l34.30303,7.58741c0,0 0.75229,3.10806 0.38946,4.4344c-0.37083,1.35556 -2.59097,3.61327 -2.59097,3.61327z" fill="#a2a2a2"/></g><g><path d="M149.08346,184.6398c0,0 -1.12487,-5.28236 -0.65318,-6.9597c0.32658,-1.16127 3.2116,-2.13821 3.2116,-2.13821l34.46824,7.10137c0,0 0.63654,3.44867 0.21489,4.94809c-0.43097,1.5325 -2.77334,4.14982 -2.77334,4.14982z" fill="#7a7a7a"/><path d="M149.43869,183.63329c0,0 -1.30032,-4.76606 -0.89443,-6.24974c0.281,-1.02723 3.09594,-1.79789 3.09594,-1.79789l34.30306,7.58739c0,0 0.75227,3.10806 0.38946,4.43441c-0.37083,1.35556 -2.59097,3.61329 -2.59097,3.61329z" fill="#929292"/></g></g></g></g><path d="M142.82163,182.15562c0,0 0.12005,-1.75511 0.48688,-4.0567c1.07715,-6.75722 6.61013,-40.46526 6.61013,-40.46526l1.80911,5.02781l-5.1376,29.17107z" fill="#777275"/></g></g><g fill="#86c8f5" stroke-width="0"><path d="M223.89166,216.93424c4.67405,1.8226 3.57583,8.5658 0.19626,15.86651c-3.37957,7.30069 -8.94677,12.03378 -12.43474,10.57165c-3.48795,-1.46213 -3.57583,-8.5658 -0.19626,-15.86651c3.37957,-7.30069 7.0499,-12.67142 12.43474,-10.57165z" data-paper-data="{&quot;index&quot;:null}"/><path d="M200.02263,222.96188c3.37957,-7.30069 6.183,-11.01976 11.5678,-8.92001c4.67405,1.8226 4.44276,6.91417 1.0632,14.21486c-3.37957,7.3007 -8.94676,12.03377 -12.43473,10.57165c-3.48795,-1.46213 -3.57583,-8.5658 -0.19626,-15.86651z" data-paper-data="{&quot;index&quot;:null}"/><path d="M186.36434,225.19963c3.37957,-7.30069 7.52423,-13.78708 12.90906,-11.68733c4.67405,1.8226 3.10152,9.68149 -0.27804,16.98218c-3.37957,7.30069 -7.75303,8.06313 -11.24101,6.601c-3.48796,-1.46213 -4.76955,-4.59517 -1.39,-11.89583z" data-paper-data="{&quot;index&quot;:null}"/><path d="M186.52278,213.80854c4.67405,1.8226 4.44276,6.91417 1.0632,14.21486c-3.37957,7.30069 -7.75303,8.06313 -11.24101,6.601c-3.48796,-1.46213 -4.76954,-4.59517 -1.38999,-11.89583c3.37957,-7.30069 6.18299,-11.01975 11.56779,-8.92001z" data-paper-data="{&quot;index&quot;:null}"/></g></g></g></svg>