<svg version="1.1" xmlns="http://www.w3.org/2000/svg" xmlns:xlink="http://www.w3.org/1999/xlink" width="468.46717" height="152.67524" viewBox="0,0,468.46717,152.67524"><defs><linearGradient x1="530.81333" y1="236.13649" x2="529.92073" y2="240.86451" gradientUnits="userSpaceOnUse" id="color-1"><stop offset="0" stop-color="#1f1d20"/><stop offset="1" stop-color="#202022"/></linearGradient><linearGradient x1="532.14588" y1="231.44717" x2="531.11889" y2="236.88728" gradientUnits="userSpaceOnUse" id="color-2"><stop offset="0" stop-color="#302d31"/><stop offset="1" stop-color="#1f1e20"/></linearGradient><linearGradient x1="194.25506" y1="216.57684" x2="193.62613" y2="219.90794" gradientUnits="userSpaceOnUse" id="color-3"><stop offset="0" stop-color="#585758"/><stop offset="1" stop-color="#575758"/></linearGradient><linearGradient x1="179.49978" y1="224.0477" x2="179.00606" y2="226.6629" gradientUnits="userSpaceOnUse" id="color-4"><stop offset="0" stop-color="#363536"/><stop offset="1" stop-color="#353536"/></linearGradient><linearGradient x1="337.59342" y1="159.45297" x2="336.56601" y2="164.89535" gradientUnits="userSpaceOnUse" id="color-5"><stop offset="0" stop-color="#5e555b"/><stop offset="1" stop-color="#2b2629"/></linearGradient><linearGradient x1="331.8391" y1="137.3346" x2="331.09781" y2="141.26138" gradientUnits="userSpaceOnUse" id="color-6"><stop offset="0" stop-color="#72676e"/><stop offset="1" stop-color="#5e555b"/></linearGradient><linearGradient x1="218.26472" y1="130.03748" x2="217.16498" y2="135.86263" gradientUnits="userSpaceOnUse" id="color-7"><stop offset="0" stop-color="#5e555b"/><stop offset="1" stop-color="#4d454a"/></linearGradient><linearGradient x1="220.90867" y1="116.03258" x2="220.13654" y2="120.12258" gradientUnits="userSpaceOnUse" id="color-8"><stop offset="0" stop-color="#74686f"/><stop offset="1" stop-color="#5e555b"/></linearGradient></defs><g transform="translate(-67.35237,-114.30473)"><g data-paper-data="{&quot;isPaintingLayer&quot;:true}" fill-rule="nonzero" stroke="none" stroke-linecap="butt" stroke-linejoin="miter" stroke-miterlimit="10" stroke-dasharray="" stroke-dashoffset="0" style="mix-blend-mode: normal"><g><g stroke-width="0"><path d="M257.35823,213.23359l-7.20589,-16.97673l25.24101,4.16457c0,0 -2.1607,5.52386 -2.85776,8.13845c-0.67425,2.5292 -1.25839,7.30137 -1.25839,7.30137z" fill="#7f7d7e"/><path d="M257.41846,213.44514l-2.53629,-6.18479c0,0 1.65813,3.93089 4.72404,5.13531c2.20773,0.86724 4.11867,0.91259 6.69409,1.72524c2.5754,0.8127 4.84382,1.91549 4.84382,1.91549z" fill="#6c6a6b"/></g><g><g><g><path d="M526.98151,240.30965l-1.13067,-5.11006c0,0 5.57999,2.7406 7.96661,4.09974c2.38669,1.35923 0.66412,2.19024 0.66412,2.19024z" fill="url(#color-1)" stroke-width="0"/><path d="M535.63119,232.30834c0,0 1.02212,2.56185 -1.69578,2.95743c-2.71789,0.39555 -5.79742,1.05878 -5.79742,1.05878l0.07325,-5.62019z" data-paper-data="{&quot;index&quot;:null}" fill="url(#color-2)" stroke-width="0"/><path d="M517.53143,238.52093l0.38925,-2.06192l14.51613,2.74048c0,0 1.08842,1.01381 1.49979,1.4642c0.36983,0.40488 -0.8964,0.78511 -0.8964,0.78511z" fill="#444444" stroke-width="NaN"/><path d="M517.92723,236.60614l-0.84461,-1.94431l12.3967,2.34034l3.03051,2.24321c0,0 -4.18879,-0.54861 -6.45686,-0.95905c-2.5579,-0.46296 -8.12572,-1.68018 -8.12572,-1.68018z" fill="#535353" stroke-width="0"/><path d="M516.94701,234.77537l-0.20041,-0.68911l11.27461,2.12847l1.5587,0.82927z" fill="#363636" stroke-width="0"/><path d="M517.53143,238.52093l0.21118,-1.11862c0,0 6.25746,1.64294 9.08724,2.17718c2.398,0.4527 6.81166,0.82436 6.81166,0.82436c0,0 0.76341,0.61451 0.96876,0.85975c0.1733,0.20686 -0.33212,0.41895 -0.33212,0.41895c0,0 -4.72569,-0.48052 -6.99922,-0.90975c-3.06736,-0.57906 -9.74745,-2.25183 -9.74745,-2.25183z" fill="#3a3a3a" stroke-width="NaN"/><path d="M517.05864,234.1637l-0.37996,-0.97107l13.40485,2.53071l-1.9602,0.56374z" fill="#242424" stroke-width="0"/><path d="M515.8495,233.22871l0.30692,-1.62561c0,0 7.99114,1.29882 10.93484,1.85453c2.00561,0.37867 5.01986,1.15756 5.01986,1.15756l-2.05848,1.12705z" fill="#3a3a3a" stroke-width="0"/><path d="M516.02119,231.62085l0.37893,-2.00713c0,0 7.58164,1.09562 10.83841,1.71044c2.81824,0.53205 7.57743,1.76626 7.57743,1.76626l-2.75511,1.5585c0,0 -3.57618,-0.75908 -5.78165,-1.17544c-2.9316,-0.55343 -10.25794,-1.85266 -10.25794,-1.85266z" fill="#444444" stroke-width="0"/><path d="M516.34192,229.68938l0.15788,-0.8363c0,0 7.76007,1.33913 11.29485,2.00644c2.46132,0.46468 7.88472,1.61445 7.88472,1.61445l-1.00792,0.67578c0,0 -4.91271,-1.22119 -7.82648,-1.77129c-3.2102,-0.60603 -10.50307,-1.6891 -10.50307,-1.6891z" fill="#535353" stroke-width="0"/><path d="M516.35671,228.91269l0.0632,-0.33449c0,0 7.63715,0.9258 11.03744,1.56773c2.93981,0.555 8.18456,2.06113 8.18456,2.06113l-0.02621,0.34152c0,0 -5.87401,-1.2768 -9.0627,-1.87881c-3.23039,-0.60987 -10.19622,-1.75705 -10.19622,-1.75705z" fill="#4e4e4e" stroke-width="0"/></g><g stroke-width="0"><g><g><g><path d="M511.86981,236.95541l-2.06023,-13.78515l0.86274,-1.5889c0,0 2.81546,3.81775 3.25986,6.43602c0.24127,1.42145 -0.63292,9.20777 -0.63292,9.20777z" fill="#383638"/><path d="M513.03099,236.47099c0,0 0.17049,-0.58829 0.00815,-3.11715c-0.17697,-2.75783 -0.87061,-6.59007 -1.05764,-7.71833c-0.41997,-2.53261 -1.13755,-2.80081 -1.13755,-2.80081l4.82467,0.31874l2.365,14.26206z" fill="#555355"/><path d="M510.89098,222.93043l-0.34236,-1.32286c0,0 2.13353,-0.41139 3.07841,-0.23295c0.88546,0.16713 1.86614,1.09243 1.86614,1.09243l0.32888,1.39428z" fill="#686668"/></g><path d="M506.29559,235.90312l-2.06023,-13.78514l0.53392,-1.63041c0,0 3.14425,3.85936 3.58862,6.47757c0.24126,1.42144 -0.63291,9.20776 -0.63291,9.20776z" fill="#383638"/><path d="M507.45678,235.41871c0,0 0.17049,-0.5883 0.00816,-3.11714c-0.17697,-2.75783 -0.87061,-6.59007 -1.05764,-7.71833c-0.41997,-2.53261 -1.13755,-2.80081 -1.13755,-2.80081l4.1804,-0.31172c0,0 0.77563,1.42283 0.90364,2.19473c0.36474,2.19935 2.10556,12.69779 2.10556,12.69779z" fill="#555355"/><path d="M505.31673,221.87802l-0.55675,-1.36338c0,0 2.34795,-0.37086 3.2929,-0.19246c0.88546,0.16713 1.58026,1.03851 1.58026,1.03851l0.45173,1.4175z" fill="#686668"/><path d="M514.01951,235.64632c0.15198,-0.80528 0.92813,-1.33483 1.73338,-1.18287c0.80529,0.15199 1.33483,0.92813 1.18287,1.73338c-0.15198,0.80528 -0.92813,1.33483 -1.73337,1.18287c-0.80529,-0.15199 -1.33483,-0.92813 -1.18287,-1.73338z" fill="#312f31"/><path d="M515.20713,232.88951l-0.93575,-5.82114l1.59033,0.15437l0.92381,5.88455z" fill="#444144"/></g><path d="M468.56709,223.72625l-1.69146,-11.33405l29.14542,6.69955l-2.25202,9.39232z" fill="#444444"/><path d="M481.71491,222.2237c0,0 0.72179,-0.39489 1.63645,-1.34664c0.83642,-0.87011 1.84899,-2.28476 2.313,-2.66909c1.2749,-1.49595 3.52558,-0.59592 3.52558,-0.59592l-1.08368,0.45999l-5.26825,4.36373z" fill="#292929"/><path d="M482.51235,233.08967l-4.3659,-11.9894c0,0 3.33946,1.1711 5.20813,0.4563c1.4521,-0.55551 1.84783,-3.15923 3.44993,-3.14271c4.59654,0.04764 17.32802,2.00963 17.32802,2.00963c0,0 1.85838,7.62203 2.23396,10.63102c0.25926,2.07727 -0.15858,6.5087 -0.15858,6.5087z" fill="#4a464a"/><path d="M489.00941,220.97618c-4.36362,-1.47105 -2.69482,-2.54407 -2.69482,-2.54407c0,0 1.02053,-1.13253 2.88255,-0.92977c4.56937,0.49764 12.9553,2.66788 14.6525,2.96219c0.8004,0.13875 0.21146,0.74803 0.21146,0.74803c0,0 -1.90619,2.06825 -3.47695,2.03021c-1.57089,-0.03806 -7.21108,-0.79547 -11.57476,-2.26656z" fill="#5e595e"/></g><g><path d="M469.69347,237.36108l-1.74447,-18.58163l18.52645,3.78895l3.91319,5.14359l6.01161,1.03463l0.42681,13.73699z" fill="#4d4846"/><path d="M474.23084,238.61168l22.03993,-5.39654l21.97921,3.90272c0,0 0.51326,4.35364 0.40248,5.71125c-0.05654,0.69216 -0.69846,2.86424 -0.69846,2.86424z" fill="#423d3b"/><path d="M472.02503,229.73741l-1.29775,-10.26507l0.80626,0.15223l1.29776,10.26509z" fill="#363332"/><path d="M474.95495,237.93253l0.22581,-1.19622c0,0 5.6453,-1.52462 14.55283,0.15699c1.18352,0.22345 4.88589,3.51281 6.07875,3.738c7.56842,1.42883 14.9764,2.82739 17.79475,3.35943c2.29522,0.43331 4.88018,-0.40166 4.88018,-0.40166l-0.46704,2.47372z" fill="#312e2c"/><path d="M479.64711,225.85316l-0.85713,-4.85872l8.1635,1.54119l3.26272,5.11536l6.16103,1.36066l-7.81951,0.50695z" fill="#585350"/><path d="M469.02126,230.99689l0.2093,-1.10861c0,0 8.60065,-2.186 11.42796,-1.65227c4.26108,0.80443 16.02459,3.02521 16.02459,3.02521l-0.2093,1.10861c0,0 -11.96523,-2.25887 -16.22619,-3.06333c-2.76922,-0.52281 -11.2264,1.69031 -11.2264,1.69031z" fill="#2b2827"/></g></g></g><g><g><g><path d="M132.28465,210.8325c0.117,2.29556 -0.66747,4.78277 -1.78851,4.83985c-1.12104,0.05714 -2.15425,-2.33741 -2.27125,-4.63297c-0.117,-2.29556 -0.62429,-11.11306 0.49684,-11.17027c1.12104,-0.05714 3.44599,8.66781 3.56297,10.96334z" fill="#615e5f" stroke-width="0"/><g><path d="M178.70733,189.13894c-0.43209,-0.6185 -2.48864,-2.34233 -2.48864,-2.34233l10.28209,-0.98975l-7.23152,5.96196c0,0 -0.12981,-2.01137 -0.56192,-2.62988z" fill="#756a6a" stroke-width="0"/><path d="M170.15232,185.79664l2.54767,-13.49497l19.29996,-2.32668l-3.63599,19.25981z" fill="#8a7c7c" stroke-width="0"/><path d="M129.80092,183.72207l9.91484,-16.58184l34.35169,6.34956l2.10486,13.28776c0,0 -22.88323,-2.71621 -30.61873,-3.22582c-3.2111,-0.21159 -15.75274,0.17048 -15.75274,0.17048z" fill="#7c787a" stroke-width="0"/><path d="M139.38593,169.52528l0.12929,-1.48324c0,0 25.47424,4.80921 33.48261,6.32108c4.4807,0.84585 17.04963,-3.26412 17.04963,-3.26412l-0.30235,1.60141c0,0 -12.2762,4.14567 -16.607,3.31315c-7.94092,-1.52649 -33.75223,-6.48823 -33.75223,-6.48823z" fill="#535353" stroke-width="0"/><path d="M98.14694,178.46658l3.73879,-19.80414c0,0 5.7611,-6.09118 13.30545,-7.00337c9.37039,-1.13296 25.63488,3.75411 27.66958,4.13825c1.56137,0.29482 -14.61592,7.84138 -14.61592,7.84138l-3.73879,19.80414z" fill="#8d898b" stroke-width="0"/><path d="M276.65234,165.20828l2.15811,-2.79236l105.67157,20.09484l-2.73559,14.49029c0,0 -37.46721,-5.19522 -49.3987,-7.8712c-5.92552,-1.32897 -55.69539,-23.92157 -55.69539,-23.92157z" fill="#c98cac" stroke-width="0"/><path d="M236.62768,260.43635l-2.06494,-13.55478c0,0 3.96562,6.69128 6.56404,8.27772c1.65554,1.01079 5.73753,2.16986 12.19436,0.90835c5.19803,-1.01553 11.29932,-5.4718 11.29932,-5.4718l-14.23217,12.43834z" fill="#a08e97" stroke-width="0"/><path d="M334.25016,231.12146l2.08465,-23.64512l18.48565,2.06236l-3.93227,20.82906c0,0 -6.60527,0.50248 -9.45192,0.67572c-1.31069,0.07975 -7.18617,0.07798 -7.18617,0.07798z" fill="#96858d" stroke-width="0"/><path d="M234.12707,263.77627l1.02775,-5.44398c0,0 11.4701,4.27047 16.58847,2.06032c2.49098,-1.07562 22.93343,-18.51857 34.21365,-28.22648c4.40209,-3.78848 7.40889,-6.39896 7.40889,-6.39896c0,0 4.00098,-3.08448 4.53959,-5.91595c0.27091,-1.42433 1.50791,-5.44332 1.11961,-7.86882c-0.3918,-2.4472 -2.41016,-3.29463 -2.41016,-3.29463l-2.26975,-14.24052l19.4454,3.81721l-7.78856,25.5724l3.21767,3.21456c0,0 -10.50225,4.1234 -15.97017,8.1344c-8.55532,6.27565 -37.17528,31.79415 -37.17528,31.79415z" fill="#918189" stroke-width="0"/><path d="M311.40685,227.16788l6.49883,-27.88221l13.48535,2.82652l7.95725,13.71643l-5.231,15.62683z" fill="#96858d" stroke-width="0"/><path d="M306.61778,228.14562l-1.69661,-4.53933l8.336,-25.0788l5.00738,0.85915l-5.96702,27.96519z" fill="#8f8187" stroke-width="0"/><path d="M332.88525,231.3282c0,0 3.94075,-6.04086 3.61531,-11.60873c-0.18739,-3.20591 -4.64767,-6.05249 -4.76255,-8.01783c-0.21945,-3.75431 -0.55896,-9.56233 -0.55896,-9.56233l6.90923,5.74546c0,0 2.00883,7.72042 1.80563,12.01886c-0.13646,2.88791 -2.7772,8.878 -4.16987,11.2599c-0.11742,0.20078 -1.25771,-0.0992 -1.33909,0.05362c-0.19884,0.37348 0.70572,0.77962 0.70572,0.77962z" fill="#86787e" stroke-width="0"/><path d="M337.59917,209.31882c0,0 -2.3035,-4.45965 -6.72452,-6.28307c-5.00504,-2.06428 -21.77167,-5.46987 -21.77167,-5.46987l157.63029,15.32635l1.63064,9.77393l5.71334,12.41812c0,0 -98.56541,-21.22482 -118.79631,-25.04411c-6.60166,-1.24634 -17.68178,-0.72126 -17.68178,-0.72126z" fill="#df8db7" stroke-width="0"/><path d="M177.28728,227.16944l2.01373,-36.53037c0,0 2.34981,-3.37335 2.88228,-3.49227c5.87073,-1.31156 39.32731,-5.83532 44.61905,-4.54492c5.79677,1.41349 -11.27195,10.3304 -11.27195,10.3304c0,0 -14.53554,-0.68244 -17.81755,3.02291c-4.45603,5.03073 -2.91204,22.98234 -2.91204,22.98234z" fill="#c77da3" stroke-width="0"/><path d="M254.00274,211.19474l-1.36785,-2.4007c0,0 8.04171,-7.24045 10.85842,-9.04188c2.90793,-1.85989 6.32409,-1.94776 6.32409,-1.94776l5.40534,3.36328c0,0 -4.30514,-1.32425 -6.94627,-0.07618c-2.26725,1.07131 -6.52538,3.40054 -9.85063,5.91976c-2.41887,1.8325 -4.42307,4.18352 -4.42307,4.18352z" fill="#414041" stroke-width="0"/><path d="M139.26627,168.43792l6.88522,-10.59618l47.78437,9.02109c0,0 -3.67481,3.84045 -7.10499,5.19375c-3.36659,1.32821 -13.28896,2.8521 -13.28896,2.8521z" fill="#979395" stroke-width="0"/><path d="M140.26435,167.46325l6.0991,-10.74462l47.78437,9.02109c0,0 -3.67481,3.84045 -7.10499,5.19375c-3.36659,1.32821 -13.28896,2.8521 -13.28896,2.8521z" fill="#bdb7ba" stroke-width="0"/><path d="M335.19212,232.09008l-1.74515,-0.85211l17.3309,-0.97668c0,0 -3.88021,1.36121 -6.46888,1.68345c-2.58866,0.32231 -9.11687,0.1452 -9.11687,0.1452z" fill="#887980" stroke-width="0"/><path d="M179.64372,228.08703c0,0 -0.3581,-10.71801 0.04559,-19.33101c0.40571,-8.65507 0.81115,-16.76741 1.45447,-20.29403c0.109,-0.59747 3.57074,-10.05002 4.15854,-10.46966c3.17295,-2.26517 9.34384,6.78019 15.01612,6.72803c8.39875,-0.07726 27.2709,2.96238 27.2709,2.96238l-9.29215,3.65029c0,0 -19.64353,-0.79271 -22.94665,3.81165c-4.4678,6.22789 -0.9006,28.1428 -0.9006,28.1428z" fill="#d486ae" stroke-width="0"/><path d="M181.40839,224.83911c0,0 1.03662,-41.39784 4.20986,-51.05375c1.48472,-4.51792 -0.12221,-14.09003 -0.12221,-14.09003l48.495,16.24705l-1.58194,16.05519c0,0 -30.91227,-8.98373 -38.31637,-3.99669c-4.94249,3.32897 -3.49096,32.34496 -3.49096,32.34496z" fill="#e490bb" stroke-width="0"/><g stroke-width="0"><path d="M329.11568,188.61795l1.5351,-8.13123l9.19749,1.73639l-1.5351,8.13123z" fill="#454545"/><path d="M330.0754,188.02081l1.0033,-7.23763l11.12957,2.10115l-1.3539,7.17144z" fill="#b0b0b0"/><path d="M330.68162,183.56695l0.30046,-2.82355l11.34247,2.14132l-0.35382,1.87428c0,0 -7.71742,-1.12876 -9.41302,-1.30781c-0.56658,-0.05978 -1.87607,0.11586 -1.87607,0.11586z" fill="#bebebe"/><path d="M341.20542,189.5628c0,0 -4.97044,-3.53888 -3.71417,-7.11557c1.86684,-5.31494 5.8279,-4.08063 5.8279,-4.08063l39.29652,8.77563l-1.86637,9.88599z" fill="#9c989a"/><path d="M343.20086,188.6275c0,0 -1.79078,-3.91913 -1.85873,-4.87522c-0.10075,-1.41714 2.40801,-3.95308 2.40801,-3.95308l40.86757,7.7492l-1.78232,7.28443z" fill="#898587"/><path d="M343.07529,188.80554l-0.6421,-2.09484l37.56816,7.09237l-0.35974,1.9057z" fill="#c1bcbf"/><path d="M343.58582,185.44804c0,0 -1.05644,-1.59158 -0.88256,-2.51266c0.16262,-0.86159 1.89444,-2.84722 1.89444,-2.84722l37.99549,7.17304l-1.01183,5.35989z" fill="#0d0d0d"/><path d="M343.44164,186.21187c0,0 -0.94439,-2.18484 -0.77056,-3.10595c0.16262,-0.86159 1.78237,-2.25386 1.78237,-2.25386l37.99551,7.17306l-1.01183,5.35989z" fill="#2e2e2e"/><path d="M338.34632,187.18684c-2.02407,-3.50326 -0.44566,-5.58306 -0.44566,-5.58306c0,0 1.03758,4.38081 2.08514,5.49207c1.24026,1.31559 4.53399,3.32753 4.53399,3.32753l-3.46088,-0.58195c0,0 -2.35632,-2.03802 -2.71251,-2.65454z" fill="#7d7a7c"/><path d="M345.93907,186.99851c0,0 -0.46315,-2.33849 -0.25097,-3.46219c0.18647,-0.9878 1.45679,-2.92496 1.45679,-2.92496l4.73958,0.89476c0,0 -0.86198,2.08019 -1.02299,2.93333c-0.22138,1.17262 -0.18275,3.45379 -0.18275,3.45379z" fill="#555555"/><path d="M354.40617,188.59702c0,0 1.12318,-2.35569 1.33524,-3.4793c0.18647,-0.9878 -0.1295,-2.90787 -0.1295,-2.90787l5.28993,0.99866c0,0 -0.72759,1.60799 -0.88865,2.46118c-0.22138,1.17262 -0.31714,3.92597 -0.31714,3.92597z" fill="#555555"/><path d="M363.57097,190.32719c0,0 1.12318,-2.35566 1.33528,-3.47934c0.18647,-0.9878 -0.12951,-2.90786 -0.12951,-2.90786l5.21127,0.98382c0,0 -0.72759,1.60799 -0.88865,2.46118c-0.22138,1.17262 -0.31714,3.92597 -0.31714,3.92597z" fill="#555555"/><path d="M373.06649,192.11987c0,0 1.2319,-1.97326 1.44403,-3.097c0.18647,-0.9878 -0.23824,-3.29016 -0.23824,-3.29016l5.05405,0.95414c0,0 0.4458,2.1009 0.28468,2.95412c-0.22138,1.17262 -1.4905,3.43313 -1.4905,3.43313z" fill="#555555"/><path d="M346.75277,181.25373l-0.50519,-0.90949l34.94532,6.59725l-1.65605,0.50147c0,0 -2.78096,-0.52502 -5.20046,-0.98175c-0.52736,-0.09962 -1.46436,-0.61102 -2.25428,-0.76015c-0.76377,-0.14423 -1.37302,0.07532 -2.32242,-0.10387c-1.48057,-0.27952 -3.15097,-0.59487 -4.89978,-0.92499c-0.72504,-0.13688 -1.28469,-0.63285 -2.02876,-0.77333c-0.66163,-0.12488 -1.50637,0.10594 -2.17102,-0.01956c-1.64973,-0.31146 -3.28316,-0.61984 -4.81899,-0.9098c-0.70527,-0.13314 -1.30852,-0.69314 -1.96473,-0.81706c-0.801,-0.15124 -1.64092,0.1363 -2.34273,0.00382c-2.8629,-0.54044 -4.78103,-0.90259 -4.78103,-0.90259z" fill="#474747"/></g><g><path d="M189.6493,219.85243l4.18455,-2.1281c0,0 2.25371,3.29009 4.87252,4.69531c2.31625,1.24281 10.04434,3.30856 10.04434,3.30856l-3.41674,3.78616z" fill="#6d6a6b" stroke-width="0"/><path d="M180.52435,224.74478l10.44125,-5.54448c0,0 2.75999,2.81746 4.76834,3.87017c3.03829,1.59263 11.68773,4.75578 11.68773,4.75578l-5.00257,3.439z" fill="#615e5f" stroke-width="0"/><path d="M178.41322,246.70163l2.72997,-22.45641c0,0 4.13169,1.58597 8.86379,2.50945c3.6936,0.72084 7.82832,0.63933 10.15605,1.69789c4.08656,1.85831 34.7386,20.21901 34.7386,20.21901l0.54794,10.45801z" fill="#575455" stroke-width="0"/><path d="M204.64649,224.13459c7.84538,-4.18239 18.27024,-15.90399 19.9838,-18.19736c1.23448,-1.65217 2.88881,-6.70906 2.88881,-6.70906l6.30575,8.12562c0,0 1.9459,21.22617 0.75992,33.87242c-0.33184,3.53853 1.41004,7.88228 -0.02763,9.10327c-1.28817,1.09391 -18.37985,0.19759 -23.53852,-1.55463c-10.85639,-3.68739 -17.06535,-2.02075 -19.76644,-7.89925c-2.70107,-5.87845 5.43961,-10.72264 5.43961,-10.72264c0,0 5.91239,-4.92954 7.95487,-6.01839z" fill="#504e4f" stroke-width="0"/><path d="M215.45813,192.77062c0,0 0.66587,-1.3934 1.6311,-1.88647c1.24138,-0.63402 5.19916,-1.60232 5.19916,-1.60232c0,0 8.82081,3.76915 11.3169,6.77437c2.30301,2.77268 -5.77594,11.71028 -5.77594,11.71028l-0.97711,-5.64052z" fill="#464445" stroke-width="0"/><path d="M229.52811,243.48861c0,0 -10.2836,4.42487 -18.65253,3.01934c-8.07358,-1.3559 -14.25005,-8.51785 -13.88102,-9.89557c0.1999,-0.7465 8.60342,-2.52367 12.80275,-6.02687c4.66795,-3.89413 5.24569,-9.58735 6.94609,-11.31235c4.74696,-4.81565 14.93358,-13.25088 15.01212,-19.38645c0.08234,-6.43454 -10.06443,-10.46066 -10.06443,-10.46066c0,0 4.20207,-1.49812 9.1253,-0.70088c2.0971,0.33962 6.30868,2.54503 7.14452,3.09461c2.74097,1.80209 4.39357,3.77928 4.39357,3.77928c0,0 4.50018,-4.11594 8.09724,-3.75181c3.59698,0.36413 21.5492,6.753 21.5492,6.753l-18.26547,9.36817z" fill="#555354" stroke-width="0"/><path d="M216.24358,219.78439c0,0 6.5576,-9.82689 12.21411,-14.28991c5.65649,-4.46302 10.25413,-6.83172 13.72515,-6.17642c2.51351,0.47451 4.14641,9.55038 4.14641,9.55038l-16.22169,26.21504c0,0 -14.97564,0.50984 -15.96712,-2.20183c-0.78304,-2.14166 2.10308,-13.09719 2.10308,-13.09719z" fill="#585758" stroke-width="0"/><path d="M233.3431,250.79447c0,0 -1.67969,-6.61754 -0.79845,-9.52676c1.23107,-4.06417 4.99736,-16.23064 4.99736,-16.23064l-0.01324,10.61755c0,0 -2.4376,9.45951 -2.86934,12.46139c-0.41649,2.89634 0.57947,5.29313 0.57947,5.29313z" fill="#3f3e3f" stroke-width="0"/><path d="M235.74475,233.06711c0.11863,-1.682 1.81136,-9.20954 1.81136,-9.20954c0,0 12.09477,-12.54195 14.64791,-14.75988c0.74849,-0.65019 4.36703,-1.72857 4.36703,-1.72857l-2.51814,4.46426c0,0 -1.65859,0.30153 -1.92388,0.73774c-0.28269,0.46473 0.27649,1.97039 0.27649,1.97039l-6.61294,7.38146c0,0 -1.80945,0.68684 -2.07927,1.15016c-0.26989,0.46348 0.24107,1.4638 0.24107,1.4638c0,0 -5.44615,8.07107 -6.72195,10.2876c-0.58991,1.02486 -0.62467,2.47623 -0.62467,2.47623c0,0 -0.98161,-2.55159 -0.86293,-4.23351z" fill="#474647" stroke-width="0"/><path d="M226.73639,210.02762l19.16553,11.99904c0,0 -1.35613,0.77418 -1.68915,1.25991c-0.24578,0.3584 -0.12811,1.39024 -0.12811,1.39024z" fill="#3f3e3e" stroke-width="NaN"/><path d="M234.55281,200.96744l19.73061,10.90838c0,0 -1.25207,0.62186 -1.56267,1.12937c-0.32375,0.52908 -0.16087,1.65812 -0.16087,1.65812z" fill="#3f3e3e" stroke-width="NaN"/><path d="M217.00827,226.84189c0,0 9.07969,9.54303 13.74689,16.50733c4.66717,6.96433 2.53627,7.79015 2.53627,7.79015z" fill="#636162" stroke-width="NaN"/><path d="M234.34167,206.65036c0,0 -6.43522,1.74046 -9.71116,4.27262c-3.27599,2.53213 -14.46742,16.88811 -13.92096,13.99377c0.54644,-2.8944 17.28435,-20.82165 19.04816,-20.48867c0.66767,0.12606 3.86308,-0.43314 4.62329,-0.04795c1.24796,0.63236 -0.03933,2.27025 -0.03933,2.27025z" fill="#918f91" stroke-width="0"/><path d="M177.98892,246.48988l14.0511,0.731c0,0 12.43892,2.01018 15.49237,2.74443c7.43611,1.78812 29.28637,8.0233 29.28637,8.0233l-1.61186,6.12843c0,0 -24.59953,-1.01564 -31.13022,-3.58744c-1.8893,-0.74401 -7.49033,-2.43039 -11.42142,-4.54859c-7.69286,-4.14526 -14.66635,-9.49108 -14.66635,-9.49108z" fill="#626061" stroke-width="0"/><path d="M234.28466,263.58487c0,0 0.83608,-4.2106 0.829,-6.59316c-0.00794,-2.67787 -0.87442,-8.69191 -0.87442,-8.69191l1.75141,0.33064c0,0 0.86251,4.69835 0.8698,7.12261c0.00786,2.6506 -0.82432,8.1624 -0.82432,8.1624z" fill="#4a494a" stroke-width="0"/><path d="M233.93769,264.37043l0.71696,-3.32181c0,0 0.50781,0.36527 0.77459,0.41566c0.31699,0.05988 0.96221,-0.08772 0.96221,-0.08772l-0.41858,3.15365c0,0 -0.8387,0.25645 -1.20949,0.2274c-0.28416,-0.02227 -0.82564,-0.38714 -0.82564,-0.38714z" fill="#363536" stroke-width="0"/><path d="M234.31932,249.35843l-0.07849,-1.66406c0,0 0.47591,-0.27082 0.84893,-0.26069c0.35531,0.00971 0.84585,0.22725 0.84585,0.22725l0.17082,1.79932c0,0 -0.5676,0.40921 -0.87372,0.39177c-0.28843,-0.01643 -0.91334,-0.49355 -0.91334,-0.49355z" fill="#585758" stroke-width="0"/><path d="M193.24307,255.39795c0,0 -7.21035,-4.36621 -6.95749,-5.70561c0.25413,-1.34599 6.60023,-1.33943 6.60023,-1.33943c0,0 10.79857,1.79361 15.63755,2.88283c2.70903,0.60978 10.92449,3.09598 10.92449,3.09598c0,0 6.96968,2.38864 7.55695,3.67157c0.64063,1.39941 -3.68364,3.47485 -3.68364,3.47485c0,0 -12.74527,-1.07706 -16.60267,-2.01712c-1.37027,-0.33399 -13.47549,-4.06296 -13.47549,-4.06296z" fill="#6b696a" stroke-width="0"/><path d="M184.32058,246.69008l-1.97045,-0.1371c0,0 1.25271,-3.25885 3.69504,-1.53362c2.44232,1.72523 21.27463,4.2513 21.27463,4.2513z" fill="#4b4949" stroke-width="0"/><path d="M178.08736,246.36189c0,0 -1.99869,-0.18234 -1.84868,-3.86114c0.07592,-1.86216 0.99895,-16.13078 0.99895,-16.13078l4.20893,-2.1557c0,0 -0.44194,6.01616 -0.77777,8.90627c-0.44665,3.84384 -1.67429,13.41253 -1.67429,13.41253z" fill="#3f3d3e" stroke-width="0"/><path d="M184.60605,246.91275c0,0 3.5376,-1.5284 19.37779,1.11895c1.30809,0.21865 -1.75806,-0.3645 7.38438,1.87778c9.1425,2.24222 12.70222,4.45367 12.70222,4.45367c0,0 -14.60625,-3.84575 -20.70143,-4.99644c-6.94774,-1.31164 -18.76301,-2.45396 -18.76301,-2.45396z" fill="#838082" stroke-width="0"/><path d="M195.06613,218.73194c0,0 -4.70053,1.33868 -7.13753,2.52271c-2.73915,1.3308 -8.49696,5.0734 -8.49696,5.0734l-0.47375,-1.71934c0,0 4.41217,-3.08876 6.89186,-4.29354c2.71113,-1.3172 8.74263,-3.30255 8.74263,-3.30255z" fill="#4a494a" stroke-width="0"/><path d="M196.03171,218.65188l-3.81098,0.99081c0,0 0.21465,-0.61733 0.14248,-0.87918c-0.08577,-0.31121 -0.53623,-0.81141 -0.53623,-0.81141l3.42426,-1.1871c0,0 0.65177,0.61831 0.79395,0.96218c0.10903,0.26346 -0.0135,0.92485 -0.0135,0.92485z" fill="url(#color-3)" stroke-width="0"/><path d="M180.47863,225.73364l-3.40618,2.13495l0.26355,-2.17144l2.41781,-1.60145c0,0 0.6825,0.30198 0.80661,0.58264c0.11701,0.26439 -0.08186,1.05533 -0.08186,1.05533z" fill="url(#color-4)" stroke-width="0"/></g><path d="M312.73894,226.30352c0,0 1.731,-4.16996 2.48328,-5.44161c0.51073,-0.86322 3.10844,-1.82976 3.10844,-1.82976l16.76446,2.94288c0,0 -2.33054,5.46018 -2.95844,6.73208c-0.27511,0.55716 -1.45107,1.04 -1.45107,1.04z" fill="#665b60" stroke-width="0"/><path d="M268.35541,199.3454c0,0 -3.43852,-2.23919 -8.06768,-4.28578c-2.94277,-1.30099 -7.03351,-2.65007 -8.88184,-2.89133c-5.3737,-0.70154 -8.796,3.84744 -8.796,3.84744c0,0 -2.78688,-2.88278 -4.69934,-4.11366c-1.78528,-1.14893 -5.8771,-2.94004 -5.8771,-2.94004c0,0 25.07765,-0.44684 28.96959,-0.30252c7.46113,0.27678 33.60666,5.61102 33.60666,5.61102l3.46575,15.19233z" fill="#8b7c84" stroke-width="0"/><g stroke-width="0"><path d="M314.34324,225.64699c0,0 0.94496,-2.46368 1.51423,-3.26681c0.59016,-0.83271 2.93129,-1.46178 2.93129,-1.46178l14.27784,2.69541c0,0 0.19723,1.03754 -0.17089,1.71889c-0.50056,0.92634 -3.73861,3.11098 -3.73861,3.11098z" fill="#585852"/><path d="M314.48151,224.9146c0,0 0.80667,-1.73133 1.37598,-2.53441c0.59016,-0.83271 3.06958,-2.19418 3.06958,-2.19418l14.27784,2.69542c0,0 0.05903,1.77 -0.30918,2.45131c-0.50056,0.92634 -3.60034,2.37844 -3.60034,2.37844z" fill="#797971"/><path d="M331.37936,223.04116c-0.99768,-0.36944 -12.36816,-2.79221 -12.36816,-2.79221l14.25828,2.69178l-0.45671,2.41911c0,0 -0.4358,-1.94922 -1.43349,-2.31872z" fill="#85857b"/></g><path d="M319.12008,208.05976l0.96277,-5.09964l7.01212,1.32379l0.31217,5.34037z" fill="#7c6e75" stroke-width="0"/><path d="M313.77881,180.16108l-2.59576,-8.76494l1.35538,0.25591l4.41387,9.56777z" fill="#d495b6" stroke-width="0"/><path d="M276.8675,165.42888l13.56277,-0.58376l20.94339,6.6125l2.43231,8.69441z" fill="#df9cbe" stroke-width="0"/><path d="M318.34677,213.03013l0.30087,-1.59365l10.67743,2.01578l0.65535,1.77418z" fill="#7c6e75" stroke-width="0"/><path d="M280.73376,193.5604c0,0 -18.04118,-2.1864 -23.66893,-2.7398c-8.52168,-0.83809 -25.72702,-1.7199 -25.72702,-1.7199c0,0 15.58671,-1.57651 29.14093,-0.56053c14.69619,1.10161 58.2515,7.84113 58.2515,7.84113l-1.00346,5.3152z" fill="#75686e" stroke-width="0"/><path d="M272.30844,200.89518l-3.08104,-1.16256c0,0 10.04318,-0.53051 15.14859,1.20963c5.10536,1.74009 13.27306,8.47754 13.27306,8.47754z" fill="#7c6e76" stroke-width="0"/><path d="M227.40635,188.31686c0,0 -28.93938,-21.13178 -28.95837,-25.83714c-0.01717,-4.27415 28.86859,7.83944 29.18126,7.78834c5.4711,-0.89443 77.44479,5.35095 77.44479,5.35095l24.88737,11.60773l51.95208,9.22636l4.66304,14.69558c0,0 -60.70739,-10.27131 -84.09142,-14.51997c-8.11723,-1.47485 -24.53716,-5.23387 -39.78701,-6.95242c-11.76322,-1.32561 -29.94329,-0.36495 -29.94329,-0.36495z" fill="#ee96c3" stroke-width="0"/><path d="M98.1893,176.68721l7.00795,-19.18697c0,0 1.20883,-6.95052 8.75331,-7.86278c9.37039,-1.13296 25.63489,3.75414 27.6696,4.13824c1.56137,0.29482 -14.61593,7.84138 -14.61593,7.84138l-3.73878,19.80415z" fill="#c4b4b3" stroke-width="0"/><g stroke-width="0"><path d="M377.85416,210.90851l0.0016,-15.41005l89.89181,23.85445l-1.82086,5.56575l-47.50638,-4.02566z" fill="#ad6d8e"/><path d="M406.40175,201.70837l8.68118,-6.77992l26.70493,2.87493l-6.15995,9.42262z" fill="#8d788b"/><path d="M381.1524,198.15134l3.01183,-15.9535l30.98698,12.74775l-5.77349,5.90043z" fill="#857183"/><path d="M423.45091,202.75717l18.27518,-4.9642l26.65846,8.8721l-1.56001,6.72123z" fill="#947e92"/><path d="M377.16857,196.77993l5.21161,-12.00754l1.99006,-2.74219l-2.79448,14.80237z" fill="#756474"/><path d="M379.70755,207.98719l1.53085,-11.99696l42.8679,6.41498l-4.18353,15.55087z" fill="#746373"/><path d="M419.91803,217.93948c0,0 1.54347,-6.12747 2.26642,-8.8854c0.61895,-2.3613 1.80773,-6.65767 1.80773,-6.65767l43.26419,9.09291l0.407,8.62526z" fill="#867284"/><path d="M377.22141,196.71825l4.24165,-0.7572l-1.72742,12.03922z" fill="#6f5e6d"/><path d="M461.31447,205.22078l-18.85021,-6.98174l25.58875,8.53145l-1.01507,3.41644c0,0 -0.017,-1.6002 -1.0736,-2.51699c-0.7068,-0.61326 -4.64993,-2.44921 -4.64993,-2.44921z" fill="#978195"/><path d="M421.92639,201.80821c0,0 8.47907,-1.92571 11.46023,-2.74094c2.17162,-0.5938 4.78061,-1.70006 4.78061,-1.70006l2.46897,0.58069l-16.10719,4.35164z" fill="#9c859a"/><path d="M407.64524,199.93464c0,0 1.80411,-2.46028 3.38147,-3.53671c1.57733,-1.07635 3.99676,-1.44923 3.99676,-1.44923l-4.95938,5.44251z" fill="#806b7d"/><path d="M443.59959,196.37008l3.15989,-5.23814l14.24359,6.48831l4.31556,7.32777z" fill="#55494f"/><path d="M440.59076,198.6516c0,0 1.21024,-0.57566 1.86939,-1.04631c0.49649,-0.35448 1.42938,-1.58744 1.42938,-1.58744l21.18437,8.06999c0,0 0.76059,0.64933 1.27622,1.07808c0.53892,0.44807 1.89029,1.555 1.89029,1.555z" fill="#685960"/><path d="M444.31658,195.59747l2.48037,-4.19808l13.28366,5.89341c0,0 -7.5834,-2.99143 -12.03391,-3.57247c-2.58158,-0.33708 -3.73002,1.87716 -3.73002,1.87716z" fill="#41383c"/></g><path d="M107.08709,138.39294l0.96623,-5.11792c0,0 22.18906,2.87106 43.75547,7.00052c12.85161,2.46076 25.88956,6.54806 32.7556,7.48802c15.4815,2.1193 26.60567,-0.37246 26.60567,-0.37246l-8.20498,9.28213z" fill="#ffa1d1" stroke-width="0"/><path d="M101.9646,151.63001l5.10635,-15.40267c0,0 53.4629,12.19006 71.08204,15.06783c10.43683,1.7047 24.89139,0.60796 24.89139,0.60796l-2.71636,14.3882c0,0 -66.32936,-12.52216 -82.3193,-15.54087c-6.57446,-1.24118 -21.03147,27.29712 -21.03147,27.29712z" fill="#ee96c3" stroke-width="0"/><path d="M263.8732,260.03971l11.64118,-11.63833c0,0 12.68814,-13.74199 23.19842,-18.74175c2.67087,-1.27054 7.97262,-1.48726 7.97262,-1.48726c0,0 -8.10187,3.54363 -11.16951,5.80523c-7.24437,5.34095 -31.64261,26.06214 -31.64261,26.06214z" fill="#70646b" stroke-width="0"/><path d="M370.24378,214.13518l-2.85177,-18.85818l1.32669,0.25044c0,0 0.86367,5.71126 1.32,8.72904c0.06505,0.42998 1.17976,1.8831 1.26035,2.41568c0.13961,0.92322 -0.74314,1.00442 -0.58712,2.03631c0.43453,2.87336 0.8585,5.67703 0.8585,5.67703z" fill="#795467" stroke-width="0"/><path d="M200.86932,166.83305c0,0 -9.08456,-8.38314 -7.71671,-11.96653c0.819,-2.14556 18.8444,-6.83514 18.8444,-6.83514l67.00268,14.35093l-2.18262,2.73877l28.16186,10.65771l-75.47977,12.79496c0,0 0.26379,-5.66311 4.33379,-7.80346c3.95552,-2.0801 19.75267,-4.86288 19.75267,-4.86288c0,0 -33.61436,-6.39581 -40.76269,-7.83353c-2.38485,-0.47965 -11.95377,-1.24085 -11.95377,-1.24085z" fill="#f399c8" stroke-width="0"/><g><path d="M209.87442,149.58881l0.60077,-3.18215l173.48906,32.75265l-0.60077,3.18215z" fill="#584f54" stroke-width="0"/><path d="M378.22245,178.32791l0.50759,-2.6888l3.00223,0.56678l2.14138,3.18892z" fill="#685d63" stroke-width="0"/><g fill="#685d63" stroke-width="0"><g><g><g><path d="M371.63182,177.33721l0.55227,-2.92532l3.81375,0.71995l-0.55227,2.92532z"/><path d="M365.44358,176.16904l0.55227,-2.92532l3.81376,0.71996l-0.55227,2.92532z"/></g><g><path d="M359.48887,175.04481l0.55226,-2.92533l3.81376,0.71996l-0.55227,2.92532z"/><path d="M353.3006,173.87657l0.55227,-2.92532l3.81375,0.71996l-0.55226,2.92533z"/></g></g><g><g><path d="M347.22919,172.73039l0.55226,-2.92533l3.81375,0.71996l-0.55227,2.92532z"/><path d="M341.04093,171.56212l0.55227,-2.92532l3.81375,0.71995l-0.55226,2.92533z"/></g><g><path d="M335.0862,170.43789l0.55227,-2.92532l3.81375,0.71996l-0.55227,2.92532z"/><path d="M328.89807,169.26967l0.55227,-2.92532l3.81373,0.71997l-0.55226,2.92533z"/></g></g></g><g><g><g><path d="M328.66455,169.22558l0.55227,-2.92532l3.81375,0.71996l-0.55227,2.92532z"/><path d="M322.47634,168.05732l0.55227,-2.92532l3.81376,0.71996l-0.55227,2.92532z"/></g><g><path d="M316.52165,166.93315l0.55226,-2.92533l3.81375,0.71996l-0.55227,2.92532z"/><path d="M310.33337,165.76485l0.55227,-2.92532l3.81373,0.71997l-0.55226,2.92533z"/></g></g><g><g><path d="M304.26197,164.61868l0.55226,-2.92533l3.81376,0.71996l-0.55227,2.92532z"/><path d="M298.07376,163.45039l0.55227,-2.92532l3.81376,0.71996l-0.55226,2.92533z"/></g><g><path d="M292.11907,162.32625l0.55227,-2.92532l3.81375,0.71995l-0.55226,2.92533z"/><path d="M285.93082,161.15796l0.55227,-2.92532l3.81376,0.71996l-0.55227,2.92532z"/></g></g></g></g><g><g fill="#685d63" stroke-width="0"><g><g><path d="M279.81965,160.00424l0.55226,-2.92533l3.81376,0.71996l-0.55227,2.92532z"/><path d="M273.63146,158.83597l0.55227,-2.92532l3.81376,0.71996l-0.55226,2.92533z"/></g><g><path d="M267.67672,157.71187l0.55227,-2.92532l3.81376,0.71996l-0.55226,2.92533z"/><path d="M261.48856,156.54357l0.55227,-2.92532l3.81375,0.71995l-0.55226,2.92533z"/></g></g><g><g><path d="M255.4171,155.39731l0.55226,-2.92533l3.81376,0.71996l-0.55227,2.92532z"/><path d="M249.22884,154.22903l0.55227,-2.92532l3.81376,0.71996l-0.55226,2.92533z"/></g><g><path d="M243.27408,153.10494l0.55227,-2.92532l3.81376,0.71996l-0.55226,2.92533z"/><path d="M237.08587,151.93667l0.55227,-2.92532l3.81375,0.71995l-0.55227,2.92532z"/></g></g></g><g><g fill="#685d63" stroke-width="0"><g><path d="M236.85241,151.89256l0.55226,-2.92533l3.81376,0.71996l-0.55227,2.92532z"/><path d="M230.66417,150.72427l0.55227,-2.92532l3.81375,0.71995l-0.55226,2.92533z"/></g><g><path d="M224.70949,149.60012l0.55227,-2.92532l3.81375,0.71995l-0.55226,2.92533z"/><path d="M218.52125,148.43184l0.55227,-2.92532l3.81375,0.71995l-0.55227,2.92532z"/></g></g><g fill="none" stroke-width="1" font-family="sans-serif" font-weight="normal" font-size="12" text-anchor="start"><g/><g/></g></g></g><path d="M210.49942,146.66386l3.15664,-2.18871l3.00223,0.56678l-0.50759,2.6888z" data-paper-data="{&quot;index&quot;:null}" fill="#685d63" stroke-width="0"/></g><path d="M260.32181,189.53705l-2.55766,-0.20803c0,0 2.12608,-2.2115 11.76389,-1.53963c7.3069,0.50938 27.75654,3.0354 39.99151,4.58629c5.68163,0.72019 62.87261,2.3562 62.87261,2.3562l5.11122,0.9504c0,0 -62.61916,-0.98896 -68.29231,-1.73121c-12.54489,-1.64127 -33.64486,-4.36564 -39.7941,-4.9378c-3.34734,-0.31147 -9.09518,0.52387 -9.09518,0.52387z" fill="#70475c" stroke-width="0"/><path d="M355.95081,226.95441l-5.18074,0.90033l3.51268,-18.60266c0,0 7.64725,1.49297 15.12607,2.95302c21.46957,4.19146 124.65369,24.33595 124.65369,24.33595l-1.24796,6.6105z" fill="#5a5959" stroke-width="0"/><path d="M354.74949,228.38482l1.62964,-2.7515l136.46762,17.41291l-13.70069,8.82311z" fill="#4b4a4a" stroke-width="0"/><path d="M475.95244,251.07399c0,0 -5.20551,-4.26447 -7.9204,-6.23034c-1.45496,-1.05353 -7.10281,-4.64797 -7.10281,-4.64797c0,0 7.32388,4.33766 10.43459,5.88965c1.11016,0.55395 2.07649,1.49222 3.25989,2.25308c0.38161,0.24529 2.68522,-2.12767 4.86926,-3.46002c0.65278,-0.39824 1.72524,0.17522 2.30289,-0.05238c1.32418,-0.52175 1.87946,-1.52766 1.87946,-1.52766c0,0 0.15919,0.97606 -1.26382,1.9426c-0.38821,0.26375 -2.22522,0.2755 -2.6119,0.56921c-1.54961,1.17724 -2.83065,2.56276 -3.2401,3.08705c-1.14276,1.46325 0.83096,2.4481 0.83096,2.4481z" fill="#414040" stroke-width="0"/><path d="M200.76605,167.11619l5.8079,-10.1984l7.00032,0.68624c0,0 -1.42544,2.42588 -2.26549,3.85561c-0.21161,0.36008 11.74071,0.62586 11.9621,1.3505c0.41081,1.34454 -5.76202,4.00544 -6.29037,4.90463c-0.60405,1.02795 -9.23084,-0.19787 -9.23084,-0.19787z" fill="#303030" stroke-width="0"/><path d="M200.69364,166.7259l5.55033,-9.39712c0,0 2.70612,1.83855 2.52339,2.80636c-0.33244,1.76108 -2.95766,7.1548 -2.95766,7.1548z" fill="#252525" stroke-width="0"/><path d="M350.25959,230.461l0.5477,-2.90112l5.97563,-1.87645l-1.76433,2.67144c0,0 -1.31915,1.10981 -2.15615,1.48021c-0.73651,0.32597 -2.60282,0.62584 -2.60282,0.62584z" fill="#383838" stroke-width="0"/><g><g fill="#4b4b4b" stroke-width="0"><g data-paper-data="{&quot;origPos&quot;:null}"><g data-paper-data="{&quot;origPos&quot;:null}"><path d="M415.98111,244.26361l0.42161,-2.2333l3.68492,0.69567l-0.42161,2.2333z" data-paper-data="{&quot;origPos&quot;:null}"/><path d="M409.86065,242.99249l0.42161,-2.2333l3.68491,0.69567l-0.42162,2.2333z" data-paper-data="{&quot;origPos&quot;:null}"/></g><g data-paper-data="{&quot;origPos&quot;:null}"><path d="M428.24304,246.69419l0.42161,-2.2333l3.68492,0.69567l-0.42162,2.2333z" data-paper-data="{&quot;origPos&quot;:null}"/><path d="M422.12256,245.42305l0.42162,-2.2333l3.68491,0.69567l-0.42161,2.2333z" data-paper-data="{&quot;origPos&quot;:null}"/></g></g><g data-paper-data="{&quot;origPos&quot;:null,&quot;index&quot;:null}"><g data-paper-data="{&quot;origPos&quot;:null}"><path d="M447.15639,250.03354l0.42161,-2.2333l3.68492,0.69567l-0.42162,2.2333z" data-paper-data="{&quot;origPos&quot;:null}"/><path d="M453.31896,251.08126l0.4216,-2.23329l3.68492,0.69567l-0.42159,2.23328z" data-paper-data="{&quot;origPos&quot;:null}"/></g><g data-paper-data="{&quot;origPos&quot;:null}"><path d="M434.85232,247.8263l0.42161,-2.2333l3.68491,0.69567l-0.4216,2.23329z" data-paper-data="{&quot;origPos&quot;:null}"/><path d="M441.01491,248.8741l0.42162,-2.2333l3.68492,0.69567l-0.42162,2.2333z" data-paper-data="{&quot;origPos&quot;:null}"/></g></g></g><path d="M375.53042,228.23621l2.52502,-13.37491l83.00774,15.67082l-2.52502,13.37491z" data-paper-data="{&quot;origPos&quot;:null}" fill="#444444" stroke-width="0"/><path d="M374.75123,232.89478l0.88722,-4.69942l82.76376,15.62475l-0.88724,4.69943z" data-paper-data="{&quot;origPos&quot;:null}" fill="#414141" stroke-width="0"/><path d="M374.52123,234.30075l0.3001,-1.58958l82.75325,15.62277l-0.30009,1.58957z" data-paper-data="{&quot;origPos&quot;:null}" fill="#3f3f3f" stroke-width="0"/><g stroke-width="0"><g data-paper-data="{&quot;origPos&quot;:null}" fill="#5a5a5a"><g data-paper-data="{&quot;origPos&quot;:null}"><path d="M418.03629,236.34164l2.55078,-13.51131l3.50939,0.66254l-2.55078,13.51131z" data-paper-data="{&quot;origPos&quot;:null}"/></g><g data-paper-data="{&quot;origPos&quot;:null}"><path d="M424.00235,237.46795l2.55078,-13.51131l3.50941,0.66255l-2.55078,13.51131z" data-paper-data="{&quot;origPos&quot;:null}"/><path d="M430.14385,238.62738l2.55079,-13.51133l3.50939,0.66254l-2.55078,13.51131z" data-paper-data="{&quot;origPos&quot;:null}"/></g></g><g data-paper-data="{&quot;origPos&quot;:null}" fill="#5a5a5a"><g data-paper-data="{&quot;origPos&quot;:null}"><path d="M436.63631,239.85311l2.55078,-13.51131l3.50939,0.66254l-2.55078,13.51132z" data-paper-data="{&quot;origPos&quot;:null}"/><path d="M442.77782,241.01256l2.55078,-13.51131l3.50941,0.66255l-2.55079,13.51133z" data-paper-data="{&quot;origPos&quot;:null}"/></g><g data-paper-data="{&quot;origPos&quot;:null}"><path d="M448.74384,242.13882l2.55079,-13.51133l3.50939,0.66254l-2.55079,13.51133z" data-paper-data="{&quot;origPos&quot;:null}"/><path d="M454.88539,243.29827l2.55079,-13.51133l3.50939,0.66254l-2.55078,13.51131z" data-paper-data="{&quot;origPos&quot;:null}"/></g></g><path d="M421.606,237.01557l-1.22177,1.73444l-5.15838,-0.92998l1.68043,-9.65231l3.62294,-5.34842l-2.48301,13.52411z" fill="#3a3a3a"/><path d="M427.56964,238.1414l-1.22177,1.73445l-5.15839,-0.92998l1.68044,-9.65232l3.62295,-5.3484l-2.483,13.52411z" fill="#3a3a3a"/><path d="M433.66877,239.29288l-1.22177,1.73445l-5.15839,-0.92997l1.68043,-9.65231l3.62295,-5.3484l-2.48301,13.52411z" fill="#3a3a3a"/><path d="M440.24235,240.53387l-1.22177,1.73445l-5.15839,-0.92997l1.68043,-9.65231l3.62295,-5.3484l-2.48301,13.52411z" fill="#3a3a3a"/><path d="M446.4093,241.69815l-1.22177,1.73445l-5.15839,-0.92997l1.68043,-9.65231l3.62295,-5.3484l-2.483,13.52411z" fill="#3a3a3a"/><path d="M452.30514,242.81115l-1.22177,1.73444l-5.15838,-0.92998l1.68043,-9.65231l3.62295,-5.3484l-2.48301,13.52411z" fill="#3a3a3a"/><path d="M458.47983,243.97684l-1.22177,1.73444l-5.15839,-0.92997l1.68044,-9.65232l3.62294,-5.34842l-2.48301,13.52411z" fill="#3a3a3a"/></g><g stroke-width="0"><g data-paper-data="{&quot;origPos&quot;:null}" fill="#5a5a5a"><g data-paper-data="{&quot;origPos&quot;:null}"><path d="M375.5576,228.32215l2.55079,-13.51133l3.50941,0.66255l-2.55078,13.51131z" data-paper-data="{&quot;origPos&quot;:null}"/></g><g data-paper-data="{&quot;origPos&quot;:null}"><path d="M381.52359,229.44854l2.55078,-13.51131l3.50939,0.66254l-2.55078,13.51131z" data-paper-data="{&quot;origPos&quot;:null}"/><path d="M387.66514,230.60795l2.55078,-13.51131l3.50941,0.66255l-2.55079,13.51133z" data-paper-data="{&quot;origPos&quot;:null}"/></g></g><g data-paper-data="{&quot;origPos&quot;:null}" fill="#5a5a5a"><g data-paper-data="{&quot;origPos&quot;:null}"><path d="M394.15758,231.8336l2.55079,-13.51133l3.5094,0.66255l-2.55078,13.51131z" data-paper-data="{&quot;origPos&quot;:null}"/><path d="M400.29915,232.99305l2.55078,-13.51131l3.50941,0.66255l-2.55079,13.51133z" data-paper-data="{&quot;origPos&quot;:null}"/></g><g data-paper-data="{&quot;origPos&quot;:null}"><path d="M406.26523,234.11938l2.55078,-13.51131l3.50941,0.66255l-2.55079,13.51133z" data-paper-data="{&quot;origPos&quot;:null}"/><path d="M412.40675,235.27888l2.55079,-13.51133l3.50941,0.66255l-2.55078,13.51132z" data-paper-data="{&quot;origPos&quot;:null}"/></g></g><path d="M379.12724,228.99609l-1.22177,1.73445l-2.69038,-0.46409l0.35233,-1.94249z" fill="#3a3a3a"/><path d="M385.09095,230.12197l-1.22177,1.73445l-5.15839,-0.92997l1.68044,-9.65232l3.62295,-5.3484l-2.48301,13.52411z" fill="#3a3a3a"/><path d="M391.19006,231.27339l-1.22177,1.73444l-5.15839,-0.92997l1.68043,-9.65231l3.62294,-5.34842l-2.48301,13.52411z" fill="#3a3a3a"/><path d="M397.76359,232.51433l-1.22177,1.73444l-5.15839,-0.92997l1.68044,-9.65232l3.62295,-5.3484l-2.48301,13.52411z" fill="#3a3a3a"/><path d="M403.9306,233.67863l-1.22177,1.73444l-5.15838,-0.92998l1.68043,-9.65231l3.62295,-5.3484l-2.48301,13.52411z" fill="#3a3a3a"/><path d="M409.8264,234.79171l-1.22177,1.73444l-5.15838,-0.92998l1.68043,-9.65231l3.62294,-5.34842l-2.48301,13.52411z" fill="#3a3a3a"/><path d="M416.00115,235.95748l-1.22177,1.73445l-5.15838,-0.92998l1.68043,-9.65231l3.62295,-5.3484l-2.48301,13.52411z" fill="#3a3a3a"/></g><g><g data-paper-data="{&quot;origPos&quot;:null}"><g data-paper-data="{&quot;origPos&quot;:null}" fill="none" stroke-width="1" font-family="sans-serif" font-weight="normal" font-size="12" text-anchor="start"/><g data-paper-data="{&quot;origPos&quot;:null}" fill="#4b4b4b" stroke-width="0"><path d="M380.33894,237.72877l0.42161,-2.2333l3.68491,0.69567l-0.4216,2.23329z" data-paper-data="{&quot;origPos&quot;:null}"/><path d="M374.21847,236.45771l0.42161,-2.2333l3.68491,0.69567l-0.42161,2.2333z" data-paper-data="{&quot;origPos&quot;:null}"/></g></g><g data-paper-data="{&quot;origPos&quot;:null,&quot;index&quot;:null}" fill="#4b4b4b" stroke-width="0"><g data-paper-data="{&quot;origPos&quot;:null}"><path d="M399.25235,241.06805l0.42162,-2.2333l3.68492,0.69567l-0.42162,2.2333z" data-paper-data="{&quot;origPos&quot;:null}"/><path d="M405.41488,242.11585l0.42159,-2.23328l3.68492,0.69567l-0.42162,2.2333z" data-paper-data="{&quot;origPos&quot;:null}"/></g><g data-paper-data="{&quot;origPos&quot;:null}"><path d="M386.94809,238.86084l0.42161,-2.2333l3.68492,0.69567l-0.42162,2.2333z" data-paper-data="{&quot;origPos&quot;:null}"/><path d="M393.11074,239.90859l0.42161,-2.2333l3.68492,0.69567l-0.42161,2.2333z" data-paper-data="{&quot;origPos&quot;:null}"/></g></g></g></g><path d="M213.5217,167.90219l1.80357,-3.94908c0,0 5.11488,-2.2375 8.61256,-1.72977c3.99855,0.58036 33.44263,6.16443 33.44263,6.16443c0,0 0.30254,1.96598 0.0248,3.15224c-0.35794,1.52838 -3.00579,4.14721 -3.00579,4.14721z" fill="#242424" stroke-width="0"/><path d="M238.68239,168.77487l0.58441,-3.09563l17.68934,3.3395l-0.58441,3.09563z" fill="#313131" stroke-width="0"/><path d="M235.08759,170.06097l0.12098,-0.64097c0,0 1.24428,-0.83481 2.24968,-0.64502c0.95464,0.18025 3.01653,1.0528 5.39556,1.66819c4.532,1.1723 10.04389,2.31631 10.04389,2.31631l-0.12098,0.64097c0,0 -5.33369,-1.00896 -9.8018,-2.16872c-2.43797,-0.6328 -4.56128,-1.61265 -5.55156,-1.79959c-1.04091,-0.19651 -2.33567,0.62875 -2.33567,0.62875z" fill="#616161" stroke-width="0"/><path d="M264.66431,159.65626l11.91145,5.32882l29.33027,10.93907c0,0 0.67885,0.35632 -7.14407,-1.86169c-2.66122,-0.7545 -12.8164,-4.30916 -21.52615,-7.88986c-2.35672,-0.9689 -14.82107,-6.82363 -14.82107,-6.82363z" fill="#df8cb7" stroke-width="0"/><path d="M85.5448,132.28889l1.10065,-5.83012c0,0 5.99516,-0.6521 9.73294,0.05357c3.05999,0.57765 10.74482,5.5964 10.74482,5.5964l-2.40882,12.03275z" fill="#626061" stroke-width="0"/><path d="M197.73738,163.63162l3.26554,3.16678l12.28005,0.97176l49.86414,9.41377l-0.20234,1.07206c0,0 -37.37848,-7.20442 -49.124,-9.15496c-3.22472,-0.5355 -12.88945,-1.62655 -12.88945,-1.62655z" fill="#ffa6d4" stroke-width="0"/><path d="M70.85263,194.57479l1.33003,-7.04511l26.1061,-11.9955l-4.1151,13.13348l-15.51018,7.3818z" fill="#3f3d3e" stroke-width="0"/><path d="M70.18956,189.30002c0,0 3.82996,-19.27593 6.39946,-28.54348c2.90007,-10.45981 10.12961,-31.07256 10.12961,-31.07256c0,0 8.50017,1.41205 11.71471,3.6938c2.75124,1.95285 6.39993,9.16428 6.39993,9.16428l-6.22418,32.96916c0,0 -14.19212,11.26081 -17.6033,12.91584c-5.24689,2.54573 -10.81622,0.87296 -10.81622,0.87296z" fill="#555354" stroke-width="0"/><path d="M84.60437,140.0705c0,0 -0.40166,-6.17459 2.12897,-8.4417c2.53063,-2.26713 6.99335,-2.45949 9.50919,-1.98452c2.007,0.37891 6.14569,1.24033 8.14204,6.15453c1.99642,4.91414 -1.12722,11.11232 -1.12722,11.11232c0,0 -4.26044,-11.39175 -6.69353,-12.28407c-3.43334,-1.25907 -11.95945,5.4435 -11.95945,5.4435z" fill="#6f6b6c" stroke-width="0"/><path d="M67.85797,193.81778c0,0 6.5197,-25.29208 8.64262,-36.53728c2.21086,-11.71092 5.8438,-32.1095 5.8438,-32.1095c0,0 1.25537,-0.41733 2.27816,-0.2242c0.93519,0.17655 2.35559,1.09902 2.35559,1.09902c0,0 -3.76417,18.78298 -5.74807,29.29218c-2.30507,12.20978 -10.00182,39.11596 -10.00182,39.11596z" fill="#333232" stroke-width="0"/><path d="M67.35237,194.17383l3.80373,-14.24993c0,0 0.87197,1.06918 1.46814,1.14242c0.75281,0.09249 2.66739,-1.00904 2.66739,-1.00904l-4.03908,14.85288z" fill="#2e2d2d" stroke-width="0"/><path d="M99.39392,163.32249c-1.51465,8.02288 -7.17524,15.77532 -12.00783,17.84212c-4.01357,1.71659 -12.63574,6.96604 -11.12107,-1.05683c0.32129,-1.70201 4.53367,-12.99596 5.96401,-19.87998c1.89155,-9.10392 1.19842,-14.30369 2.66489,-16.9085c2.6517,-4.70986 8.35356,-5.13906 10.52965,-4.72821c4.28953,0.80982 5.48505,16.70852 3.97039,24.73143z" fill="#585758" stroke-width="0"/><path d="M130.64492,183.55407l-0.25937,-1.82048c0,0 8.05244,0.14579 14.05578,0.78642c8.45134,0.90189 31.86921,4.11451 31.86921,4.11451l1.52712,1.59214c0,0 -24.97538,-3.06603 -33.68031,-3.92794c-2.55652,-0.25314 -13.5124,-0.74468 -13.5124,-0.74468z" fill="#585657" stroke-width="0"/><path d="M122.40805,195.43277l7.63954,-12.49096l7.29295,0.40935c0,0 -2.50811,3.91619 -2.56343,4.67425c-0.26423,3.62219 -1.7655,27.72915 -1.7655,27.72915c0,0 -1.53349,0.15866 -2.35435,-1.90497c-1.47277,-3.70279 -2.00344,-10.78618 -3.33505,-13.17735c-1.1505,-2.06601 -4.91429,-5.23945 -4.91429,-5.23945z" fill="#5a5759" stroke-width="0"/><path d="M140.43445,167.48775l4.94124,-10.60062l2.31341,0.32365l-6.07428,10.61296z" fill="#a5a0a2" stroke-width="0"/><path d="M147.30728,167.68263l0.26023,-1.37836l26.03632,4.91531l-0.26022,1.37836z" fill="#494748" stroke-width="0"/><path d="M147.77931,164.74795l0.26023,-1.37836l26.03632,4.91531l-0.26023,1.37836z" fill="#494748" stroke-width="0"/><path d="M124.5263,183.16158l3.73587,-19.78877l13.81869,-7.17733l4.81833,0.59242l-23.93564,39.05103l-5.14218,-3.00955z" fill="#dbd5d8" stroke-width="0"/><path d="M96.27743,189.95345l2.03218,-11.61548l26.33832,4.16892c0,0 -0.14626,2.55496 -0.42227,3.31548c-0.6881,1.89573 -3.94761,8.34073 -3.94761,8.34073z" fill="#ccc6c9" stroke-width="0"/><path d="M102.11454,179.46383l0.0586,-0.31034l22.58205,3.37943l-2.7799,0.68042c0,0 -4.28114,-0.61876 -6.93696,-1.15243c-3.63652,-0.73078 -12.92383,-2.59703 -12.92383,-2.59703z" fill="#d8d1d5" stroke-width="0"/><path d="M106.26223,176.44402l3.15371,-16.70487l15.84512,2.99136l-3.15371,16.70487z" fill="#a39999" stroke-width="0"/><path d="M95.97422,190.06898l2.10729,-11.16219c0,0 7.49872,7.91516 11.27674,11.01031c3.77805,3.09523 10.21838,4.02611 10.21838,4.02611z" fill="#b4afb1" stroke-width="0"/><path d="M127.91249,202.24795c0,0 2.78384,1.58444 3.88757,1.64656c0.67803,0.03812 2.10509,-1.30946 2.10509,-1.30946l-0.05347,9.22338l-0.77822,4.12232c0,0 -1.96707,-0.05441 -2.74487,-2.8295c-0.64172,-2.28961 -2.4162,-10.85328 -2.4162,-10.85328z" fill="#504e4f" stroke-width="0"/><path d="M122.60403,196.03592l21.95441,-38.33619l1.6753,0.52503l-21.92976,38.75843z" fill="#858183" stroke-width="0"/><path d="M113.62067,152.864l1.7946,-1.34089c0,0 27.0592,4.45316 39.25407,6.75541c10.58434,1.99821 31.32499,6.273 31.32499,6.273l0.16017,2.00592c0,0 -20.79667,-4.64463 -31.95319,-6.7508c-12.73936,-2.405 -40.58062,-6.94268 -40.58062,-6.94268z" fill="#918b8e" stroke-width="0"/><path d="M114.8496,151.84357l2.34888,-1.53224c0,0 25.50445,4.45571 37.69932,6.75792c10.58435,1.99823 31.32499,6.273 31.32499,6.273l0.16017,2.00593c0,0 -20.79666,-4.64462 -31.95318,-6.75081c-12.73936,-2.405 -39.58016,-6.75387 -39.58016,-6.75387z" fill="#a59fa2" stroke-width="0"/><path d="M174.48077,184.25439l-0.83791,-5.94122c0,0 0.43154,-1.14482 0.77959,-1.19393c0.30669,-0.0433 1.20073,0.9146 1.20073,0.9146l0.8379,5.94123c0,0 -0.43416,0.81111 -0.74157,0.85452c-0.34776,0.04904 -1.23881,-0.5752 -1.23881,-0.5752z" fill="#494242" stroke-width="0"/><path d="M134.41389,179.38571l5.24103,-8.66381l3.81824,0.72086l-5.24103,8.66381z" fill="#9c989a" stroke-width="0"/><path d="M147.11274,163.69296l1.99815,-0.6078l24.01128,4.55138l1.80679,1.30779z" fill="#757274" stroke-width="0"/><path d="M146.68392,166.4729l1.99813,-0.60782l24.01128,4.5514l1.8068,1.30778z" fill="#757274" stroke-width="0"/><path d="M93.7779,188.654l12.46618,-56.83158l1.77925,0.92684l-12.00458,57.32698z" fill="#686666" stroke-width="0"/><path d="M93.56723,188.88928l3.65886,-15.85215l1.54293,4.17719l-2.89791,12.99808z" fill="#535252" stroke-width="0"/><path d="M128.02295,172.11538c0,0 2.52227,-1.91068 2.69794,-2.84105c0.17237,-0.91298 -1.65375,-2.68994 -1.65375,-2.68994c0,0 2.82571,1.21497 2.41009,2.85465c-0.31659,1.24892 -1.75499,3.20506 -2.04534,4.27206c-0.82564,3.03393 -2.8653,10.12605 -2.8653,10.12605z" fill="#c4bec1" stroke-width="0"/><path d="M135.92031,171.66088l3.76977,-9.66385l3.31237,-3.80583l-4.38212,8.89974z" fill="#aca7a9" stroke-width="0"/></g></g><g stroke-width="0"><path d="M257.09275,166.21463l3.1282,-2.79746c0,0 2.0425,-1.07608 2.80214,-0.65282c0.8661,0.48259 2.11702,3.39369 2.11702,3.39369l-1.28982,3.91055c0,0 -4.20551,-0.80167 -5.42508,-1.16752c-0.54979,-0.16496 -1.33245,-2.68651 -1.33245,-2.68651z" fill="#c0c0c0"/><path d="M213.12844,167.73635c0,0 0.36088,-2.86272 1.61288,-3.78535c1.56907,-1.15625 7.9538,-2.20217 7.9538,-2.20217l-1.577,4.52302l-0.54193,2.87054z" fill="#838383"/><path d="M212.97302,167.63133l9.3519,-5.84792l36.91034,6.96821l-1.38788,7.35141z" fill="#999999"/><path d="M214.07647,167.17158l7.13639,-4.59702l33.18606,6.26511l-1.08352,5.73974c0,0 -4.01665,-0.75823 -9.18359,-1.73369c-3.35933,-0.63422 -7.00791,-2.40377 -10.55196,-3.07288c-3.80191,-0.71776 -7.45385,-0.32646 -9.58932,-0.72958c-4.17931,-0.78901 -9.91408,-1.87169 -9.91408,-1.87169z" fill="#d952b3"/><path d="M217.50851,167.8173l9.31871,-4.24825l12.24777,2.31219c0,0 -7.6019,0.5059 -10.10042,0.96494c-2.65257,0.48724 -6.20054,1.96521 -6.20054,1.96521z" fill="#a5899d"/><path d="M225.37987,169.1886c0,0 5.17723,-0.01187 7.59165,0.44391c3.08507,0.5824 9.40496,2.76486 9.40496,2.76486l-9.4243,-2.12029z" fill="#adadad"/><path d="M213.07921,167.63282l8.44515,-5.27659l34.35974,6.4867l-0.12771,0.67665c0,0 -29.7513,-5.61667 -33.62935,-6.34885c-0.81115,-0.15312 -9.0477,4.46206 -9.0477,4.46206z" fill="#8a8a8a"/><path d="M258.27095,182.51049l1.80977,-9.58596l1.9755,-6.95618c0,0 1.07944,0.682 1.51915,1.33846c0.43976,0.65646 0.60729,1.83588 0.60729,1.83588l-3.93363,13.74132z" fill="#9e9e9e"/><path d="M253.69882,177.3418c0,0 -0.50174,-2.25716 -0.34128,-3.84408c0.21608,-2.13694 2.08046,-7.40062 2.08046,-7.40062l1.96808,0.04043c0,0 0.5988,0.9188 1.09606,0.86091c0.68553,-0.07984 2.63696,-1.29564 2.63696,-1.29564l-2.87167,12.50158z" fill="#9c9c9c"/><path d="M253.9232,179.24715c-0.56391,-1.23037 -0.07293,-2.53509 -0.07293,-2.53509l6.12877,-6.17054c0,0 0.64899,4.07488 0.47895,4.97542c-0.48336,2.56032 -0.37546,7.41426 -0.37546,7.41426c0,0 -2.94389,-0.47057 -3.88336,-1.09428c-1.12676,-0.74812 -1.71198,-1.3594 -2.27592,-2.58985z" fill="#888888"/><path d="M255.81664,178.81675c-0.60015,-2.14834 -0.76514,-6.7214 1.80121,-10.37554c2.56639,-3.65418 4.54344,-1.11205 4.54344,-1.11205c0,0 0.16853,4.53295 -0.26055,6.80569c-0.39082,2.07028 -2.20986,6.28004 -2.20986,6.28004c0,0 -3.27408,0.55025 -3.8742,-1.59809z" fill="#b4b4b4"/><path d="M261.33374,172.02708c-0.26175,1.38658 -5.29735,0.51468 -5.03565,-0.87187c0.26175,-1.38658 4.2696,-6.12757 5.06786,-5.97684c0.3092,0.05838 0.92296,0.27788 0.91929,1.35664c-0.00588,1.70656 -0.79121,4.64253 -0.95157,5.49209z" fill="#bbbbbb"/></g><g stroke-width="0"><path d="M197.64551,163.59883c0,0 -4.84266,-5.9184 -4.49516,-7.75935c0.28377,-1.50311 6.23803,-0.5043 6.23803,-0.5043l7.40093,1.47032l-5.9539,9.84535z" fill="#f399c8"/><path d="M167.34469,159.5491c0,0 -0.56406,-2.24136 -0.11227,-3.24779c0.49858,-1.1106 3.19189,-4.27074 3.19189,-4.27074l22.6727,4.09144l7.36808,10.16649z" fill="#ee96c3"/></g></g><g stroke-width="0"><g><path d="M264.83481,157.88027l1.14675,-6.07444l46.98819,8.87078l-1.14675,6.07444z" fill="#61585b"/><path d="M265.27613,154.66278l0.61414,-3.2529l47.1668,8.90452l-0.61411,3.25291c0,0 -8.49093,-1.603 -17.21318,-3.24966c-2.72707,-0.51482 -6.84256,0.25223 -9.36246,-0.22354c-2.99648,-0.56571 -5.92865,-2.66328 -7.85072,-3.02619c-5.76349,-1.08809 -12.74046,-2.40528 -12.74046,-2.40528z" fill="#494344"/><path d="M327.25558,159.64188l-5.65907,-20.33578l20.55615,3.88075l12.04891,19.34532c0,0 -5.86359,0.27844 -9.08742,-0.06731c-4.97468,-0.53361 -17.85856,-2.82294 -17.85856,-2.82294z" fill="#5e555b"/><path d="M326.62048,163.01774l1.02747,-5.44236c0,0 12.35455,0.85358 17.30645,0.99505c3.92989,0.11226 6.79486,0.06084 6.79486,0.06084l4.54907,7.92012c0,0 -5.53594,0.5792 -9.69417,0.24594c-5.63418,-0.45158 -19.98358,-3.77957 -19.98358,-3.77957z" fill="url(#color-5)"/><path d="M319.90161,139.14774l0.74131,-3.9268l18.81908,3.55283l2.83196,4.60139z" fill="url(#color-6)"/><path d="M326.04214,162.93394l0.23364,-1.2374c0,0 15.35293,2.82069 20.67701,3.6553c3.98107,0.62409 8.6174,-0.10537 8.6174,-0.10537l0.66112,1.28979l-8.46177,0.49945z" fill="#312c30"/><g><path d="M228.74258,133.77708l1.42081,-8.74661l92.29496,17.42416l5.41502,12.50341z" fill="#8a6672"/><path d="M243.45769,144.98715c0,0 -2.78952,-4.19614 -5.27438,-6.15261c-2.48486,-1.95653 -9.46757,-3.03317 -9.46757,-3.03317l0.4974,-2.03005c0,0 12.05813,2.55769 18.94773,3.95531c16.45844,3.3386 79.37595,15.98973 79.37595,15.98973l2.34205,7.12514z" fill="#755761"/><path d="M245.79462,147.96321l-2.49212,-3.10804l86.15684,15.76733l0.61298,3.25123z" fill="#694e57"/><path d="M229.92802,125.38916l0.84018,-4.45038l89.356,16.17798l2.73264,6.27709c0,0 2.08811,3.79123 -3.10171,2.78571c-1.63377,-0.31653 -9.97143,-5.31857 -11.60932,-5.63592c-15.7736,-3.05605 -78.2178,-15.15451 -78.2178,-15.15451z" fill="#916b77"/><path d="M231.00582,120.98376l0.35153,-2.5027l88.37389,16.54276l0.58324,2.54465z" fill="#9e7582"/><path d="M303.71809,135.40697c-7.80762,-2.13334 -71.15748,-15.1436 -71.15748,-15.1436l86.32907,16.29784l3.33704,8.20262c0,0 -10.70104,-7.22354 -18.50867,-9.3569z" fill="#b38f9a"/></g><path d="M276.13111,153.68751l1.70187,-9.01454l19.86137,3.74958l-1.70188,9.01456z" fill="#3a3336"/><path d="M277.7459,144.66074l0.98647,-1.36319l18.21664,3.43905l0.6856,1.67879z" fill="#4b4246"/><path d="M276.36148,153.22282l1.51705,-8.03567c0,0 0.06386,5.37093 2.47041,6.95106c2.4066,1.58014 15.31886,4.72937 15.31886,4.72937z" fill="#332c30"/><path d="M320.72307,141.56592l-2.73885,-6.62304c0,0 1.12884,-0.46533 1.71901,-0.35391c0.65978,0.12459 2.05427,1.06625 2.05427,1.06625l2.73885,6.62304z" fill="#757575"/><path d="M322.81275,146.77863l-3.93881,-9.50801l3.77335,0.71237l3.9388,9.508z" fill="#5a5a5a"/><path d="M325.78762,153.90315l-3.9388,-9.508l3.77335,0.71238l3.93881,9.50801z" fill="#505050"/><path d="M328.86131,161.28114c-0.67271,-1.62396 -3.29764,-7.96035 -3.29764,-7.96035l3.77335,0.71239l4.58341,11.37423c0,0 -2.11945,0.14482 -3.04968,-0.04587c-0.72565,-0.14873 -1.71271,-3.36436 -2.00931,-4.08042z" fill="#3b3b3b"/><path d="M226.74523,136.04402l3.4644,-18.35058l3.12579,0.59016l-3.4644,18.35058z" fill="#443e42"/><path d="M207.90014,134.11354l0.42584,-5.95234l19.87746,3.75262l-1.09971,5.8251z" fill="url(#color-7)"/><path d="M208.20905,128.78087l2.01223,-10.65873l19.87746,3.75262l-2.01224,10.65874z" fill="#5e555b"/><path d="M210.19783,118.24628l1.55822,-3.94155l19.09131,3.60417l-0.77216,4.08992z" fill="url(#color-8)"/><path d="M280.01375,127.39165l1.13779,-6.02684l14.5636,3.83491l3.66804,5.48681z" fill="#5e555b"/><path d="M299.31715,131.03592l-3.61858,-5.74885c0,0 2.83571,1.23816 4.84009,2.63247c2.00437,1.39433 5.15471,4.32013 5.15471,4.32013z" fill="#776b73"/><path d="M276.82952,127.96647l3.37536,-0.62918l25.20513,4.48705l3.30083,2.16098z" fill="#6d6269"/></g><g><path d="M278.28903,150.0547c0.23166,-1.22718 0.94769,-2.26913 1.5206,-3.20872c0.79825,-1.30937 1.61067,-2.36477 3.03892,-2.95617c0.8724,-0.36131 2.0622,-0.53293 3.07855,-0.58569c0.67224,-0.03489 1.72827,-0.24269 2.41908,-0.11221c1.56604,0.29562 1.8872,0.43948 2.92498,1.14019c0.62516,0.42211 2.15283,1.16754 2.5538,1.92724c0.33939,0.64298 0.63093,1.66335 0.84067,2.39453c0.35832,1.24965 0.80092,3.23066 0.54335,4.59519c-0.10885,0.57663 -0.84059,1.80061 -0.98504,2.29792c-0.45848,1.57885 -0.55375,2.07942 -1.95091,2.93862c-0.84918,0.52221 -2.43186,0.78097 -3.47465,1.00127c-1.07992,0.22825 -2.49427,0.84259 -3.64654,0.62504c-0.77777,-0.14687 -2.08182,-0.93746 -2.80999,-1.21353c-1.57991,-0.59897 -2.42411,-0.93585 -3.22421,-2.24725c-0.68611,-1.12455 -0.64575,-2.74346 -0.75178,-4.14509c-0.05569,-0.73633 -0.22031,-1.69114 -0.07684,-2.45134z" fill="#3a3a3a"/><path d="M279.0294,150.07368c0.21206,-1.12301 0.86729,-2.07644 1.3915,-2.93625c0.73047,-1.19814 1.47384,-2.16391 2.78086,-2.70522c0.79833,-0.33063 1.8872,-0.4877 2.8172,-0.53594c0.61518,-0.03191 1.58156,-0.22201 2.21364,-0.10271c1.43315,0.27053 1.72704,0.40216 2.67668,1.04329c0.57202,0.38625 1.96999,1.06844 2.33703,1.76359c0.31056,0.58842 0.57743,1.52216 0.76927,2.19122c0.32791,1.14355 0.73294,2.95634 0.49724,4.20497c-0.09966,0.5277 -0.76924,1.64775 -0.90137,2.10278c-0.4196,1.44474 -0.50674,1.90289 -1.78523,2.68909c-0.77703,0.47789 -2.22538,0.71457 -3.17962,0.91627c-0.98821,0.20887 -2.28249,0.77102 -3.33698,0.57198c-0.71175,-0.13435 -1.90506,-0.85784 -2.57145,-1.11045c-1.44577,-0.54813 -2.21828,-0.85641 -2.95052,-2.05642c-0.62787,-1.02906 -0.59088,-2.51054 -0.68796,-3.79314c-0.05095,-0.67384 -0.2016,-1.54751 -0.07027,-2.24317z" fill="#5a5a5a"/><path d="M291.84994,147.8847c-1.56686,-2.72369 -6.53473,-3.86571 -6.53473,-3.86571c0,0 2.00872,-0.17033 3.96309,0.20566c1.58308,0.30459 3.06055,0.95442 3.95862,2.44791c0.89878,1.49476 1.01038,3.02676 1.0334,4.45122c0.04503,2.79281 -0.82912,5.06288 -0.82912,5.06288c0,0 -0.02438,-5.5782 -1.59125,-8.30189z" fill="#6d6d6d"/><path d="M285.6845,151.82826c0.1068,-0.56578 0.65191,-0.93776 1.21768,-0.83092c0.56578,0.1068 0.93776,0.65191 0.83092,1.21769c-0.1068,0.56578 -0.65191,0.93776 -1.21769,0.83092c-0.56578,-0.1068 -0.93776,-0.65191 -0.83092,-1.21769z" fill="#272727"/><path d="M285.58142,151.94805c0.09795,-0.51887 0.59797,-0.86009 1.11684,-0.76215c0.51887,0.09795 0.86009,0.59797 0.76215,1.11684c-0.09795,0.51887 -0.59797,0.86009 -1.11683,0.76217c-0.51887,-0.09795 -0.86009,-0.59797 -0.76217,-1.11683z" fill="#131313"/></g></g></g></g></g><path d="M177.87111,243.44277c0.29396,-1.55716 4.01699,-44.2332 4.81449,-45.78744c1.0768,-2.09846 9.16018,0.80209 12.35255,-0.12963c9.7773,-2.85364 20.27093,-5.54073 20.27093,-5.54073c0,0 13.71645,3.18019 17.87941,3.96616c3.11316,0.58778 64.94266,3.6201 63.75644,13.90001c-1.60898,13.94346 -42.20725,-5.64636 -44.4577,6.2737c-0.56971,3.01762 1.76195,3.65671 0.62222,6.64443c-0.27356,0.71704 -3.54519,5.36978 -4.07655,6.97508c-0.84355,2.54832 1.65193,7.09266 -2.17568,9.524c-3.05114,1.93817 -2.08348,7.22635 -2.9366,8.30239c-5.87945,7.41493 -13.35798,2.13148 -22.2144,0.45949c-10.50061,-1.98238 -26.47145,-1.20836 -35.46267,-4.16497c-3.88112,-1.27624 -9.22812,4.11017 -8.3724,-0.42251z" fill="#86c8f5" stroke-width="0"/></g></g></svg>