<svg version="1.1" xmlns="http://www.w3.org/2000/svg" xmlns:xlink="http://www.w3.org/1999/xlink" width="468.88887" height="152.1528" viewBox="0,0,468.88887,152.1528"><defs><linearGradient x1="528.42134" y1="238.40366" x2="527.58346" y2="243.14169" gradientUnits="userSpaceOnUse" id="color-1"><stop offset="0" stop-color="#1f1d20"/><stop offset="1" stop-color="#202022"/></linearGradient><linearGradient x1="529.6996" y1="233.69925" x2="528.73557" y2="239.15088" gradientUnits="userSpaceOnUse" id="color-2"><stop offset="0" stop-color="#302d31"/><stop offset="1" stop-color="#1f1e20"/></linearGradient><linearGradient x1="191.65947" y1="222.73543" x2="191.06909" y2="226.07358" gradientUnits="userSpaceOnUse" id="color-3"><stop offset="0" stop-color="#585758"/><stop offset="1" stop-color="#575758"/></linearGradient><linearGradient x1="176.99153" y1="230.37634" x2="176.52808" y2="232.99708" gradientUnits="userSpaceOnUse" id="color-4"><stop offset="0" stop-color="#363536"/><stop offset="1" stop-color="#353536"/></linearGradient><linearGradient x1="334.328" y1="163.9586" x2="333.36356" y2="169.41249" gradientUnits="userSpaceOnUse" id="color-5"><stop offset="0" stop-color="#5e555b"/><stop offset="1" stop-color="#2b2629"/></linearGradient><linearGradient x1="328.31841" y1="141.90823" x2="327.62255" y2="145.84331" gradientUnits="userSpaceOnUse" id="color-6"><stop offset="0" stop-color="#72676e"/><stop offset="1" stop-color="#5e555b"/></linearGradient><linearGradient x1="214.66727" y1="135.92434" x2="213.63494" y2="141.7618" gradientUnits="userSpaceOnUse" id="color-7"><stop offset="0" stop-color="#5e555b"/><stop offset="1" stop-color="#4d454a"/></linearGradient><linearGradient x1="217.14917" y1="121.88981" x2="216.42436" y2="125.98847" gradientUnits="userSpaceOnUse" id="color-8"><stop offset="0" stop-color="#74686f"/><stop offset="1" stop-color="#5e555b"/></linearGradient></defs><g transform="translate(-64.50632,-120.26787)"><g data-paper-data="{&quot;isPaintingLayer&quot;:true}" fill-rule="nonzero" stroke="none" stroke-linecap="butt" stroke-linejoin="miter" stroke-miterlimit="10" stroke-dasharray="" stroke-dashoffset="0" style="mix-blend-mode: normal"><g><g stroke-width="0"><path d="M254.71979,218.66303l-7.40164,-16.89231l25.28746,3.87254c0,0 -2.09671,5.54847 -2.7635,8.17095c-0.64497,2.53682 -1.17391,7.31543 -1.17391,7.31543z" fill="#7f7d7e"/><path d="M254.78246,218.87387l-2.60761,-6.15506c0,0 1.70345,3.91146 4.78308,5.08036c2.21761,0.84166 4.12895,0.86493 6.71359,1.64775c2.58462,0.78288 4.86563,1.85937 4.86563,1.85937z" fill="#6c6a6b"/></g><g><g><g><path d="M524.63802,242.62082l-1.18966,-5.09665c0,0 5.61129,2.67591 8.01346,4.00738c2.40224,1.33155 0.68939,2.18242 0.68939,2.18242z" fill="url(#color-1)" stroke-width="0"/><path d="M533.19464,234.52008c0,0 1.05166,2.54987 -1.66149,2.97683c-2.71314,0.42694 -5.78479,1.12572 -5.78479,1.12572l0.00829,-5.62066z" data-paper-data="{&quot;index&quot;:null}" fill="url(#color-2)" stroke-width="0"/><path d="M515.16789,240.94146l0.36539,-2.06629l14.54684,2.57252c0,0 1.10007,1.00116 1.51661,1.44677c0.37448,0.40058 -0.88727,0.79542 -0.88727,0.79542z" fill="#444444" stroke-width="NaN"/><path d="M515.54153,239.02222l-0.86702,-1.93442l12.42292,2.19689l3.05623,2.20803c0,0 -4.19486,-0.50016 -6.46751,-0.88436c-2.56308,-0.43337 -8.1446,-1.58615 -8.1446,-1.58615z" fill="#535353" stroke-width="0"/><path d="M514.54022,237.20291l-0.20836,-0.68675l11.29846,1.998l1.56819,0.8112z" fill="#363636" stroke-width="0"/><path d="M515.16789,240.94146l0.19823,-1.12098c0,0 6.27602,1.5705 9.1118,2.072c2.40308,0.42496 6.82072,0.74558 6.82072,0.74558c0,0 0.77046,0.60565 0.97863,0.84849c0.17568,0.20485 -0.32725,0.42276 -0.32725,0.42276c0,0 -4.73093,-0.42586 -7.00927,-0.82879c-3.07385,-0.54356 -9.77283,-2.13902 -9.77283,-2.13902z" fill="#3a3a3a" stroke-width="NaN"/><path d="M514.64477,236.58998l-0.39116,-0.96662l13.43321,2.37559l-1.95355,0.58636z" fill="#242424" stroke-width="0"/><path d="M513.42491,235.66903l0.28811,-1.62905c0,0 8.00562,1.20636 10.95555,1.72802c2.00984,0.35546 5.0329,1.09945 5.0329,1.09945l-2.04532,1.15076z" fill="#3a3a3a" stroke-width="0"/><path d="M513.578,234.0593l0.35571,-2.01137c0,0 7.5938,1.00791 10.85746,1.58505c2.8242,0.49944 7.59734,1.67856 7.59734,1.67856l-2.73692,1.59024c0,0 -3.58472,-0.7177 -5.79485,-1.10854c-2.9378,-0.51951 -10.27867,-1.73397 -10.27867,-1.73397z" fill="#444444" stroke-width="0"/><path d="M513.87639,232.12425l0.1482,-0.83807c0,0 7.77503,1.24934 11.31729,1.87576c2.46652,0.4362 7.90285,1.52321 7.90285,1.52321l-1.00004,0.68739c0,0 -4.9265,-1.16433 -7.84643,-1.68071c-3.21698,-0.56889 -10.52189,-1.56759 -10.52189,-1.56759z" fill="#535353" stroke-width="0"/><path d="M513.8822,231.34745l0.05933,-0.3352c0,0 7.64734,0.83747 11.05482,1.44005c2.94603,0.52099 8.20784,1.96638 8.20784,1.96638l-0.02226,0.3418c0,0 -5.88837,-1.20882 -9.08381,-1.77394c-3.23722,-0.57249 -10.21584,-1.63908 -10.21584,-1.63908z" fill="#4e4e4e" stroke-width="0"/></g><g stroke-width="0"><g><g><g><path d="M509.48856,239.44149l-2.21943,-13.76041l0.84432,-1.59876c0,0 2.8594,3.78495 3.33403,6.39791c0.25769,1.41857 -0.52644,9.21447 -0.52644,9.21447z" fill="#383638"/><path d="M510.64406,238.94368c0,0 0.16368,-0.59022 -0.02788,-3.11704c-0.20883,-2.7556 -0.94672,-6.57958 -1.14678,-7.7056c-0.44921,-2.52759 -1.16985,-2.78747 -1.16985,-2.78747l4.82802,0.26295l2.52969,14.23377z" fill="#555355"/><path d="M508.34768,225.42876l-0.35762,-1.31881c0,0 2.12863,-0.43602 3.07552,-0.26851c0.88734,0.15689 1.87864,1.07079 1.87864,1.07079l0.34497,1.39039z" fill="#686668"/></g><path d="M503.90254,238.45369l-2.21943,-13.7604l0.51504,-1.63648c0,0 3.18865,3.82276 3.66325,6.43566c0.25768,1.41856 -0.52643,9.21446 -0.52643,9.21446z" fill="#383638"/><path d="M505.05806,237.9559c0,0 0.16368,-0.59023 -0.02787,-3.11703c-0.20883,-2.7556 -0.94672,-6.57958 -1.14678,-7.7056c-0.44921,-2.52759 -1.16985,-2.78747 -1.16985,-2.78747l4.17652,-0.36002c0,0 0.79202,1.41377 0.92895,2.18414c0.39013,2.19499 2.25218,12.6726 2.25218,12.6726z" fill="#555355"/><path d="M502.76164,224.44084l-0.57248,-1.35685c0,0 2.3435,-0.39798 3.29045,-0.23051c0.88734,0.15689 1.59216,1.02017 1.59216,1.02017l0.46809,1.41218z" fill="#686668"/><path d="M511.62299,238.10763c0.14266,-0.80698 0.91264,-1.34547 1.7196,-1.20283c0.80699,0.14267 1.34547,0.91264 1.20283,1.7196c-0.14266,0.80698 -0.91264,1.34547 -1.71959,1.20283c-0.80699,-0.14267 -1.34547,-0.91264 -1.20283,-1.7196z" fill="#312f31"/><path d="M512.77867,235.33729l-1.00297,-5.80994l1.59202,0.13597l0.99176,5.87348z" fill="#444144"/></g><path d="M466.03582,226.71373l-1.82236,-11.31374l29.2209,6.36223l-2.14331,9.41772z" fill="#444444"/><path d="M479.1654,225.0593c0,0 0.71717,-0.4032 1.62077,-1.36547c0.82631,-0.87972 1.82246,-2.30598 2.28199,-2.69565c1.25752,-1.51059 3.51846,-0.63663 3.51846,-0.63663l-1.07829,0.47249l-5.21747,4.42433z" fill="#292929"/><path d="M480.08837,235.91534l-4.50418,-11.93814c0,0 3.35277,1.13242 5.21305,0.39607c1.44558,-0.57225 1.81119,-3.18037 3.41337,-3.18238c4.59678,-0.00549 17.3501,1.80921 17.3501,1.80921c0,0 1.94636,7.60004 2.35669,10.60448c0.28325,2.07414 -0.08333,6.51009 -0.08333,6.51009z" fill="#4a464a"/><path d="M486.445,223.72756c-4.38033,-1.42051 -2.72404,-2.51275 -2.72404,-2.51275c0,0 1.00738,-1.14425 2.87161,-0.96303c4.57481,0.44479 12.98528,2.51796 14.68575,2.79263c0.80195,0.1295 0.2201,0.74553 0.2201,0.74553c0,0 -1.88215,2.09014 -3.45326,2.07026c-1.57122,-0.0199 -7.21979,-0.71208 -11.60018,-2.13262z" fill="#5e595e"/></g><g><path d="M467.31972,240.33463l-1.95913,-18.56023l18.569,3.57456l3.97238,5.09801l6.02317,0.96508l0.58556,13.73114z" fill="#4d4846"/><path d="M471.87125,241.5327l21.97609,-5.65092l22.02286,3.64842c0,0 0.56354,4.34742 0.46847,5.70622c-0.04854,0.69277 -0.6653,2.87212 -0.6653,2.87212z" fill="#423d3b"/><path d="M469.56301,232.68452l-1.41631,-10.24939l0.80797,0.1429l1.41632,10.24941z" fill="#363332"/><path d="M472.58746,240.84523l0.21197,-1.19875c0,0 5.6273,-1.58977 14.55367,-0.01123c1.18602,0.20975 4.92617,3.4561 6.12155,3.66749c7.58442,1.34125 15.00808,2.65409 17.8324,3.15352c2.30008,0.40675 4.87521,-0.45804 4.87521,-0.45804l-0.43842,2.47896z" fill="#312e2c"/><path d="M477.13969,228.71242l-0.91324,-4.84849l8.18076,1.44673l3.32163,5.07731l6.17635,1.28935l-7.81313,0.5973z" fill="#585350"/><path d="M466.574,233.97863l0.19647,-1.11095c0,0 8.57481,-2.28527 11.40809,-1.78426c4.27009,0.75512 16.05848,2.83979 16.05848,2.83979l-0.19647,1.11095c0,0 -11.99053,-2.12042 -16.26052,-2.87557c-2.77507,-0.49077 -11.20612,1.81996 -11.20612,1.81996z" fill="#2b2827"/></g></g></g><g><g><g><path d="M129.62682,217.70777c0.14352,2.29405 -0.61214,4.79017 -1.73245,4.8602c-1.12031,0.0701 -2.18113,-2.31235 -2.32464,-4.60641c-0.14352,-2.29405 -0.75269,-11.10511 0.36769,-11.17527c1.12031,-0.0701 3.54595,8.6274 3.68945,10.92143z" fill="#615e5f" stroke-width="0"/><g><path d="M175.79565,195.47907c-0.43921,-0.61346 -2.51556,-2.31341 -2.51556,-2.31341l10.26997,-1.10852l-7.16213,6.04515c0,0 -0.15305,-2.00973 -0.59228,-2.6232z" fill="#756a6a" stroke-width="0"/><path d="M167.20258,192.23587l2.39151,-13.52352l19.27178,-2.54961l-3.41313,19.30055z" fill="#8a7c7c" stroke-width="0"/><path d="M126.82989,190.62785l9.72252,-16.69533l34.42279,5.95208l2.25831,13.26254c0,0 -22.91309,-2.45154 -30.65396,-2.87169c-3.21333,-0.17446 -15.74972,0.35254 -15.74972,0.35254z" fill="#7c787a" stroke-width="0"/><path d="M136.25018,176.32122l0.11214,-1.48463c0,0 25.52812,4.51444 33.55343,5.93365c4.49017,0.794 17.01076,-3.46097 17.01076,-3.46097l-0.28382,1.6048c0,0 -12.22746,4.28728 -16.56759,3.50488c-7.95804,-1.4346 -33.82497,-6.09767 -33.82497,-6.09767z" fill="#535353" stroke-width="0"/><path d="M95.11728,185.73858l3.50963,-19.84603c0,0 5.69032,-6.15735 13.22362,-7.15669c9.35667,-1.24119 25.67656,3.45756 27.71557,3.81815c1.56468,0.27675 -14.5243,8.00979 -14.5243,8.00979l-3.50963,19.84603z" fill="#8d898b" stroke-width="0"/><path d="M273.45751,170.41792l2.12569,-2.81712l105.89677,18.87209l-2.56792,14.52094c0,0 -37.52475,-4.76181 -49.48638,-7.2997c-5.94048,-1.26039 -55.96817,-23.27622 -55.96817,-23.27622z" fill="#c98cac" stroke-width="0"/><path d="M234.53623,266.10224l-2.22147,-13.53c0,0 4.0427,6.64499 6.65928,8.20129c1.66711,0.99158 5.76222,2.1034 12.20404,0.76734c5.18594,-1.07554 11.23532,-5.60203 11.23532,-5.60203l-14.08745,12.60202z" fill="#a08e97" stroke-width="0"/><path d="M331.81333,235.66094l1.81121,-23.66763l18.50826,1.84856l-3.69125,20.87312c0,0 -6.59902,0.57879 -9.44348,0.78493c-1.30968,0.0949 -7.18478,0.16104 -7.18478,0.16104z" fill="#96858d" stroke-width="0"/><path d="M232.07439,269.47085l0.96475,-5.4555c0,0 11.51869,4.13761 16.61118,1.86845c2.47838,-1.10434 22.71785,-18.78241 33.88511,-28.62006c4.358,-3.83911 7.33443,-6.48417 7.33443,-6.48417c0,0 3.96507,-3.13052 4.47091,-5.96802c0.25443,-1.42737 1.44489,-5.46039 1.02858,-7.88124c-0.42006,-2.44251 -2.44809,-3.26655 -2.44809,-3.26655l-2.4342,-14.21333l19.48822,3.5922l-7.49246,25.66072l3.25462,3.17715c0,0 -10.45389,4.24451 -15.87508,8.31845c-8.48222,6.37412 -36.80531,32.22172 -36.80531,32.22172z" fill="#918189" stroke-width="0"/><path d="M308.92585,231.97167l6.17612,-27.95546l13.51712,2.67046l8.11526,13.62354l-5.05003,15.68624z" fill="#96858d" stroke-width="0"/><path d="M304.14842,233.00469l-1.74897,-4.51942l8.04557,-25.17347l5.01698,0.80122l-5.64339,28.03229z" fill="#8f8187" stroke-width="0"/><path d="M330.45092,235.88345c0,0 3.87066,-6.086 3.48089,-11.64974c-0.22443,-3.20353 -4.71732,-5.99836 -4.85491,-7.96225c-0.26284,-3.75153 -0.66945,-9.55523 -0.66945,-9.55523l6.97517,5.66521c0,0 2.09793,7.69668 1.94443,11.99719c-0.10307,2.8893 -2.6744,8.9095 -4.03945,11.30735c-0.11509,0.20212 -1.25878,-0.08466 -1.33839,0.0691c-0.19451,0.37576 0.71469,0.77141 0.71469,0.77141z" fill="#86787e" stroke-width="0"/><path d="M334.91013,213.82105c0,0 -2.35489,-4.43273 -6.79669,-6.20493c-5.02856,-2.00629 -21.83344,-5.21786 -21.83344,-5.21786l157.79691,13.50335l1.7435,9.75443l5.8565,12.35125c0,0 -98.80414,-20.08413 -119.07785,-23.66933c-6.61563,-1.16995 -17.68893,-0.51684 -17.68893,-0.51684z" fill="#df8db7" stroke-width="0"/><path d="M174.81527,233.52345l1.59136,-36.55121c0,0 2.31067,-3.40028 2.84172,-3.52535c5.85519,-1.37933 39.25724,-6.28949 44.56353,-5.06035c5.81273,1.3464 -11.1518,10.46 -11.1518,10.46c0,0 -14.54245,-0.51438 -17.78142,3.22865c-4.39758,5.0819 -2.6462,23.01445 -2.6462,23.01445z" fill="#c77da3" stroke-width="0"/><path d="M251.34095,216.6631l-1.39551,-2.38472c0,0 7.95749,-7.33292 10.75318,-9.16678c2.88624,-1.89338 6.30115,-2.02073 6.30115,-2.02073l5.44386,3.30057c0,0 -4.32016,-1.2744 -6.94668,0.00411c-2.25472,1.09745 -6.48563,3.47573 -9.78155,6.03322c-2.39753,1.86033 -4.37442,4.23436 -4.37442,4.23436z" fill="#414041" stroke-width="0"/><path d="M136.11795,175.23531l6.76229,-10.67506l47.88545,8.46817c0,0 -3.63017,3.88267 -7.04448,5.27552c-3.35101,1.36703 -13.25511,3.00552 -13.25511,3.00552z" fill="#979395" stroke-width="0"/><path d="M137.1047,174.24917l5.9745,-10.8144l47.88545,8.46817c0,0 -3.63017,3.88267 -7.04448,5.27552c-3.35101,1.36703 -13.25511,3.00552 -13.25511,3.00552z" fill="#bdb7ba" stroke-width="0"/><path d="M332.76643,236.61861l-1.75488,-0.83188l17.31845,-1.17694c0,0 -3.86421,1.40597 -6.44899,1.75811c-2.58476,0.3522 -9.11458,0.25057 -9.11458,0.25057z" fill="#887980" stroke-width="0"/><path d="M177.18216,234.41374c0,0 -0.48196,-10.71315 -0.17785,-19.33025c0.30564,-8.65918 0.61728,-16.77566 1.2198,-20.30949c0.10208,-0.5987 3.45434,-10.09062 4.03725,-10.51702c3.14656,-2.30168 9.42158,6.67173 15.09288,6.55401c8.3973,-0.17433 27.30332,2.64697 27.30332,2.64697l-9.24934,3.75745c0,0 -19.65138,-0.56561 -22.90105,4.07663c-4.39552,6.27912 -0.57526,28.15133 -0.57526,28.15133z" fill="#d486ae" stroke-width="0"/><path d="M178.90916,231.14563c0,0 0.55806,-41.40705 3.61947,-51.099c1.4324,-4.53478 -0.28507,-14.08768 -0.28507,-14.08768l48.67956,15.68544l-1.39626,16.0724c0,0 -31.01404,-8.62583 -38.36001,-3.55355c-4.90368,3.38588 -3.11687,32.38314 -3.11687,32.38314z" fill="#e490bb" stroke-width="0"/><g stroke-width="0"><path d="M326.18792,193.21962l1.44102,-8.14843l9.21694,1.62996l-1.44102,8.14843z" fill="#454545"/><path d="M327.14068,192.61142l0.91958,-7.24874l11.15311,1.97237l-1.27092,7.18661z" fill="#b0b0b0"/><path d="M327.69538,188.15086l0.2678,-2.82684l11.36646,2.01008l-0.33214,1.87825c0,0 -7.72995,-1.03948 -9.42751,-1.19892c-0.56723,-0.05323 -1.8746,0.13753 -1.8746,0.13753z" fill="#bebebe"/><path d="M338.28777,194.02467c0,0 -5.01102,-3.48119 -3.79617,-7.07216c1.80528,-5.33617 5.78034,-4.14771 5.78034,-4.14771l39.39533,8.32083l-1.75198,9.9069z" fill="#9c989a"/><path d="M340.27228,193.06636c0,0 -1.83597,-3.89817 -1.91496,-4.8534c-0.11712,-1.41588 2.36216,-3.98065 2.36216,-3.98065l40.95441,7.27632l-1.69801,7.30454z" fill="#898587"/><path d="M340.14877,193.24584l-0.66627,-2.08728l37.64763,6.65766l-0.33768,1.90973z" fill="#c1bcbf"/><path d="M340.62046,189.88267c0,0 -1.07476,-1.57927 -0.91155,-2.50229c0.15265,-0.86341 1.8614,-2.86893 1.8614,-2.86893l38.07586,6.73339l-0.94981,5.37123z" fill="#0d0d0d"/><path d="M340.48512,190.64812c0,0 -0.96959,-2.17378 -0.8064,-3.09683c0.15265,-0.86341 1.75621,-2.27431 1.75621,-2.27431l38.07588,6.73341l-0.94981,5.37123z" fill="#2e2e2e"/><path d="M335.40141,191.68191c-2.06442,-3.47963 -0.51016,-5.57754 -0.51016,-5.57754c0,0 1.08814,4.36853 2.14848,5.4676c1.25538,1.30117 4.57215,3.2749 4.57215,3.2749l-3.46738,-0.54191c0,0 -2.37972,-2.01065 -2.74301,-2.62301z" fill="#7d7a7c"/><path d="M342.99147,191.40583c0,0 -0.49015,-2.33299 -0.29097,-3.45906c0.17505,-0.98989 1.42289,-2.94161 1.42289,-2.94161l4.74961,0.83992c0,0 -0.83788,2.09002 -0.98901,2.94496c-0.20781,1.1751 -0.14282,3.45567 -0.14282,3.45567z" fill="#555555"/><path d="M351.47649,192.90637c0,0 1.09587,-2.36852 1.29493,-3.49451c0.17505,-0.98989 -0.1631,-2.90618 -0.1631,-2.90618l5.30112,0.93745c0,0 -0.70896,1.61629 -0.86014,2.47128c-0.20781,1.1751 -0.27174,3.92938 -0.27174,3.92938z" fill="#555555"/><path d="M360.66067,194.5305c0,0 1.09587,-2.36849 1.29497,-3.49455c0.17505,-0.98989 -0.16311,-2.90617 -0.16311,-2.90617l5.22229,0.92352c0,0 -0.70896,1.61629 -0.86014,2.47128c-0.20781,1.1751 -0.27174,3.92938 -0.27174,3.92938z" fill="#555555"/><path d="M370.17628,196.2133c0,0 1.20901,-1.98737 1.40814,-3.11349c0.17505,-0.98989 -0.27625,-3.28719 -0.27625,-3.28719l5.06474,0.89567c0,0 0.47005,2.09561 0.3188,2.95064c-0.20781,1.1751 -1.45072,3.45013 -1.45072,3.45013z" fill="#555555"/><path d="M343.73872,185.65203l-0.51567,-0.90358l35.01924,6.19289l-1.65014,0.52058c0,0 -2.78684,-0.49283 -5.21146,-0.92157c-0.52848,-0.09351 -1.47132,-0.59406 -2.26291,-0.73404c-0.76539,-0.13539 -1.37206,0.09119 -2.32346,-0.07701c-1.4837,-0.26239 -3.15764,-0.55841 -4.91014,-0.8683c-0.72658,-0.12849 -1.29192,-0.61796 -2.03756,-0.74983c-0.66303,-0.11722 -1.50504,0.12335 -2.1711,0.00554c-1.65322,-0.29237 -3.29011,-0.58185 -4.82919,-0.85403c-0.70676,-0.12498 -1.31645,-0.67797 -1.97404,-0.79429c-0.8027,-0.14197 -1.63923,0.15526 -2.34254,0.03089c-2.86895,-0.50731 -4.79114,-0.84726 -4.79114,-0.84726z" fill="#474747"/></g><g><path d="M187.09188,226.06404l4.15967,-2.17633c0,0 2.29158,3.26382 4.92646,4.63868c2.33046,1.21595 10.08191,3.19225 10.08191,3.19225l-3.37275,3.82541z" fill="#6d6a6b" stroke-width="0"/><path d="M178.0241,231.06154l10.37647,-5.66479c0,0 2.79237,2.78537 4.81275,3.8148c3.05649,1.55741 11.74191,4.62037 11.74191,4.62037l-4.96249,3.49659z" fill="#615e5f" stroke-width="0"/><path d="M176.16689,253.04132l2.47022,-22.48646c0,0 4.14975,1.5381 8.8922,2.40683c3.70169,0.6781 7.83519,0.54881 10.175,1.58039c4.10776,1.81095 34.96998,19.81613 34.96998,19.81613l0.66878,10.45097z" fill="#575455" stroke-width="0"/><path d="M202.13757,230.17257c7.79652,-4.27278 18.0852,-16.11411 19.77213,-18.42713c1.2153,-1.66633 2.81106,-6.74201 2.81106,-6.74201l6.39925,8.05219c0,0 2.19111,21.20225 1.15138,33.86137c-0.29092,3.54213 1.50105,7.86545 0.07759,9.10299c-1.27545,1.10873 -18.37633,0.41002 -23.55492,-1.28246c-10.89828,-3.56166 -17.08756,-1.82336 -19.85642,-7.67025c-2.76884,-5.84684 5.31531,-10.78479 5.31531,-10.78479c0,0 5.85502,-4.99755 7.88478,-6.10994z" fill="#504e4f" stroke-width="0"/><path d="M212.58597,198.68572c0,0 0.64972,-1.40101 1.60919,-1.9052c1.23397,-0.64833 5.18029,-1.66231 5.18029,-1.66231c0,0 8.86379,3.66694 11.39445,6.64312c2.33491,2.74587 -5.6402,11.77626 -5.6402,11.77626l-1.04224,-5.62885z" fill="#464445" stroke-width="0"/><path d="M227.24123,249.23771c0,0 -10.23177,4.54343 -18.61639,3.23473c-8.08871,-1.26249 -14.34755,-8.35257 -13.99446,-9.73447c0.19125,-0.74876 8.57368,-2.62294 12.73224,-6.17445c4.62263,-3.94783 5.13453,-9.64733 6.81487,-11.39188c4.69097,-4.87019 14.77943,-13.42261 14.78704,-19.55868c0.00796,-6.43506 -10.18467,-10.34363 -10.18467,-10.34363c0,0 4.18447,-1.54659 9.11658,-0.80632c2.10089,0.31536 6.33768,2.47194 7.1798,3.01183c2.76161,1.77029 4.43696,3.72824 4.43696,3.72824c0,0 4.45231,-4.16768 8.05333,-3.84515c3.60095,0.32253 21.62581,6.50347 21.62581,6.50347l-18.15597,9.57867z" fill="#555354" stroke-width="0"/><path d="M213.68361,225.68862c0,0 6.44358,-9.90203 12.04812,-14.43013c5.60452,-4.5281 10.17448,-6.94979 13.65285,-6.33465c2.51882,0.44542 4.25652,9.50181 4.25652,9.50181l-15.9176,26.40078c0,0 -14.96874,0.6829 -15.9915,-2.01713c-0.80775,-2.13247 1.95155,-13.12062 1.95155,-13.12062z" fill="#585758" stroke-width="0"/><path d="M231.14041,256.49897c0,0 -1.75606,-6.59769 -0.90851,-9.51689c1.18401,-4.07813 4.80943,-16.28731 4.80943,-16.28731l0.10947,10.617c0,0 -2.3281,9.48705 -2.72512,12.49372c-0.38299,2.90096 0.64061,5.28608 0.64061,5.28608z" fill="#3f3e3f" stroke-width="0"/><path d="M233.33699,238.74504c0.09918,-1.68325 1.70479,-9.22986 1.70479,-9.22986c0,0 11.94899,-12.6809 14.47634,-14.9282c0.74093,-0.6588 4.34677,-1.77894 4.34677,-1.77894l-2.46637,4.49307c0,0 -1.65499,0.32068 -1.91523,0.75993c-0.2773,0.46797 0.29925,1.96706 0.29925,1.96706l-6.52717,7.4574c0,0 -1.80139,0.70771 -2.06583,1.17412c-0.26451,0.46656 0.25797,1.46092 0.25797,1.46092c0,0 -5.35249,8.13347 -6.6026,10.36461c-0.57803,1.03162 -0.596,2.48329 -0.596,2.48329c0,0 -1.01104,-2.54007 -0.9118,-4.22326z" fill="#474647" stroke-width="0"/><path d="M224.06294,215.81121l19.30293,11.77671c0,0 -1.34709,0.7898 -1.67447,1.27934c-0.24162,0.36122 -0.11203,1.39163 -0.11203,1.39163z" fill="#3f3e3e" stroke-width="NaN"/><path d="M231.77412,206.66129l19.85537,10.67959c0,0 -1.24481,0.63629 -1.54951,1.14736c-0.31761,0.53278 -0.14169,1.65987 -0.14169,1.65987z" fill="#3f3e3e" stroke-width="NaN"/><path d="M214.52981,232.7368c0,0 9.18938,9.43744 13.93678,16.34734c4.74736,6.90992 2.62615,7.76032 2.62615,7.76032z" fill="#636162" stroke-width="NaN"/><path d="M231.62867,212.34628c0,0 -6.41467,1.81473 -9.66112,4.38457c-3.2465,2.56982 -14.27124,17.0542 -13.75828,14.15374c0.51294,-2.90052 17.04253,-21.02004 18.81007,-20.70747c0.66908,0.11833 3.85782,-0.47777 4.62243,-0.10138c1.25518,0.61789 -0.01309,2.27055 -0.01309,2.27055z" fill="#918f91" stroke-width="0"/><path d="M175.74017,252.83449l14.05861,0.56854c0,0 12.46132,1.86626 15.52305,2.56518c7.45628,1.70205 29.37715,7.68426 29.37715,7.68426l-1.54092,6.14665c0,0 -24.60963,-0.73123 -31.16961,-3.22739c-1.89778,-0.72213 -7.51793,-2.34365 -11.47323,-4.41627c-7.74026,-4.05606 -14.77508,-9.32093 -14.77508,-9.32093z" fill="#626061" stroke-width="0"/><path d="M232.22975,269.27764c0,0 0.78735,-4.21998 0.75274,-6.6023c-0.03889,-2.6776 -0.97482,-8.68122 -0.97482,-8.68122l1.75512,0.31038c0,0 0.91676,4.68807 0.95206,7.11208c0.03849,2.65033 -0.72992,8.17138 -0.72992,8.17138z" fill="#4a494a" stroke-width="0"/><path d="M231.89188,270.06716l0.67852,-3.32987c0,0 0.512,0.35938 0.77934,0.40668c0.31766,0.05621 0.96113,-0.09883 0.96113,-0.09883l-0.3821,3.15828c0,0 -0.83568,0.26613 -1.20677,0.24137c-0.28439,-0.01898 -0.83007,-0.37757 -0.83007,-0.37757z" fill="#363536" stroke-width="0"/><path d="M232.09996,255.05175l-0.09772,-1.66304c0,0 0.47275,-0.2763 0.84586,-0.27049c0.35539,0.0056 0.84842,0.21746 0.84842,0.21746l0.1916,1.79723c0,0 -0.56283,0.41574 -0.86913,0.40185c-0.28859,-0.01309 -0.91898,-0.48296 -0.91898,-0.48296z" fill="#585758" stroke-width="0"/><path d="M191.09627,261.56565c0,0 -7.26034,-4.28258 -7.02297,-5.62481c0.23855,-1.34884 6.58431,-1.41563 6.58431,-1.41563c0,0 10.81858,1.66867 15.66982,2.70189c2.71589,0.57842 10.95955,2.9695 10.95955,2.9695c0,0 6.99682,2.30792 7.59888,3.58398c0.65675,1.39191 -3.64323,3.5172 -3.64323,3.5172c0,0 -12.75687,-0.92967 -16.62488,-1.82509c-1.37403,-0.31813 -13.52155,-3.90693 -13.52155,-3.90693z" fill="#6b696a" stroke-width="0"/><path d="M182.07372,252.96149l-1.97191,-0.11432c0,0 1.21496,-3.27311 3.67706,-1.57623c2.4621,1.69688 21.32235,4.00511 21.32235,4.00511z" fill="#4b4949" stroke-width="0"/><path d="M175.83712,252.70537c0,0 -2.00067,-0.15923 -1.89318,-3.83951c0.05439,-1.86292 0.81243,-16.14124 0.81243,-16.14124l4.18373,-2.2042c0,0 -0.37237,6.02086 -0.67477,8.91466c-0.40219,3.84874 -1.51915,13.43099 -1.51915,13.43099z" fill="#3f3d3e" stroke-width="0"/><path d="M182.36175,253.18085c0,0 3.5197,-1.56919 19.38943,0.89489c1.31052,0.20351 -1.76216,-0.34415 7.40559,1.7923c9.1678,2.13639 12.75285,4.30655 12.75285,4.30655c0,0 -14.64972,-3.67667 -20.7578,-4.75683c-6.96244,-1.23125 -18.79012,-2.23692 -18.79012,-2.23692z" fill="#838082" stroke-width="0"/><path d="M192.4954,224.88101c0,0 -4.68475,1.39292 -7.10789,2.60503c-2.72358,1.36237 -8.43775,5.17127 -8.43775,5.17127l-0.4936,-1.71375c0,0 4.37617,-3.13956 6.84177,-4.37292c2.69573,-1.34845 8.70388,-3.40338 8.70388,-3.40338z" fill="#4a494a" stroke-width="0"/><path d="M193.45999,224.7898l-3.79928,1.03479c0,0 0.2075,-0.61977 0.1323,-0.88076c-0.08936,-0.31019 -0.54557,-0.80516 -0.54557,-0.80516l3.41031,-1.2266c0,0 0.65887,0.61073 0.80501,0.95294c0.11206,0.26219 -0.00281,0.92494 -0.00281,0.92494z" fill="url(#color-3)" stroke-width="0"/><path d="M177.9898,232.05086l-3.38128,2.17418l0.23843,-2.17434l2.39914,-1.62929c0,0 0.68595,0.29407 0.81329,0.57328c0.12006,0.26303 -0.06965,1.05621 -0.06965,1.05621z" fill="url(#color-4)" stroke-width="0"/></g><path d="M310.24788,231.09196c0,0 1.68268,-4.18969 2.42022,-5.46995c0.50072,-0.86907 3.08709,-1.86557 3.08709,-1.86557l16.79736,2.7489c0,0 -2.26727,5.48675 -2.88043,6.76583c-0.26865,0.5603 -1.43895,1.0567 -1.43895,1.0567z" fill="#665b60" stroke-width="0"/><path d="M265.55571,204.64865c0,0 -3.46417,-2.19929 -8.11668,-4.19224c-2.95761,-1.26689 -7.06368,-2.56859 -8.91467,-2.78848c-5.38145,-0.63938 -8.75093,3.94886 -8.75093,3.94886c0,0 -2.82002,-2.85038 -4.74658,-4.05907c-1.79844,-1.12822 -5.91068,-2.87192 -5.91068,-2.87192c0,0 25.07081,-0.73667 28.96415,-0.63735c7.46383,0.19052 33.66926,5.22221 33.66926,5.22221l3.64112,15.15125z" fill="#8b7c84" stroke-width="0"/><g stroke-width="0"><path d="M311.84447,230.41694c0,0 0.91642,-2.47443 1.47637,-3.2841c0.5805,-0.83948 2.9142,-1.49557 2.9142,-1.49557l14.30803,2.5302c0,0 0.2092,1.0352 -0.15102,1.72074c-0.48982,0.93206 -3.7024,3.15399 -3.7024,3.15399z" fill="#585852"/><path d="M311.97427,229.68299c0,0 0.78661,-1.74054 1.3466,-2.55015c0.5805,-0.83948 3.04401,-2.22952 3.04401,-2.22952l14.30803,2.53021c0,0 0.07948,1.7692 -0.28083,2.45471c-0.48982,0.93206 -3.5726,2.4199 -3.5726,2.4199z" fill="#797971"/><path d="M328.84934,227.61437c-1.00188,-0.35789 -12.3996,-2.64907 -12.3996,-2.64907l14.28844,2.52679l-0.42872,2.42424c0,0 -0.4583,-1.94405 -1.46019,-2.30199z" fill="#85857b"/></g><path d="M316.41771,212.77566l0.90376,-5.11043l7.02695,1.24265l0.37388,5.33641z" fill="#7c6e75" stroke-width="0"/><path d="M310.75433,184.94059l-2.6969,-8.73435l1.35825,0.24023l4.52417,9.51612z" fill="#d495b6" stroke-width="0"/><path d="M273.6752,170.63601l13.55511,-0.74049l21.01843,6.36999l2.53264,8.66571z" fill="#df9cbe" stroke-width="0"/><path d="M315.7019,217.75465l0.28243,-1.59702l10.70001,1.89224l0.67581,1.76648z" fill="#7c6e75" stroke-width="0"/><path d="M277.86636,198.72097c0,0 -18.06524,-1.97772 -23.69901,-2.46604c-8.5308,-0.73954 -25.74519,-1.42241 -25.74519,-1.42241c0,0 15.56745,-1.75657 29.1325,-0.89731c14.70794,0.93167 58.33824,7.16731 58.33824,7.16731l-0.94196,5.32644z" fill="#75686e" stroke-width="0"/><path d="M269.52639,206.15264l-3.09427,-1.12687c0,0 10.03637,-0.64656 15.16155,1.03445c5.12513,1.68096 13.37016,8.32356 13.37016,8.32356z" fill="#7c6e76" stroke-width="0"/><path d="M224.48191,194.09416c0,0 -29.1817,-20.79587 -29.25507,-25.5007c-0.06657,-4.27367 28.95728,7.50523 29.26933,7.45053c5.4604,-0.95761 77.50147,4.45545 77.50147,4.45545l25.01988,11.31929l52.05524,8.62525l4.83259,14.64069c0,0 -60.82205,-9.56894 -84.25363,-13.54702c-8.13374,-1.38092 -24.59602,-4.94991 -39.86472,-6.49208c-11.77775,-1.18955 -29.94551,-0.01883 -29.94551,-0.01883z" fill="#ee96c3" stroke-width="0"/><path d="M95.13907,183.95884l6.78571,-19.26669c0,0 1.12841,-6.96403 8.66184,-7.96343c9.35667,-1.24119 25.67657,3.45759 27.71559,3.81814c1.56468,0.27675 -14.52431,8.00979 -14.52431,8.00979l-3.50962,19.84604z" fill="#c4b4b3" stroke-width="0"/><g stroke-width="0"><path d="M375.18079,214.94535l-0.17652,-15.40904l90.16153,22.81385l-1.75641,5.58642l-47.54974,-3.47629z" fill="#ad6d8e"/><path d="M403.62014,205.41586l8.60224,-6.87981l26.73637,2.56607l-6.05063,9.49319z" fill="#8d788b"/><path d="M378.33136,202.15091l2.82724,-15.98725l31.13226,12.38874l-5.70491,5.96677z" fill="#857183"/><path d="M420.68028,206.26753l18.21658,-5.1751l26.75923,8.56338l-1.48222,6.73882z" fill="#947e92"/><path d="M374.33195,200.82564l5.07247,-12.06698l1.95823,-2.76501l-2.6232,14.83368z" fill="#756474"/><path d="M377.0003,212.0028l1.39208,-12.01385l42.93918,5.91906l-4.0035,15.59818z" fill="#746373"/><path d="M417.32313,221.48965c0,0 1.47254,-6.1449 2.16357,-8.911c0.59161,-2.36829 1.73065,-6.67812 1.73065,-6.67812l43.3664,8.59223l0.50667,8.61999z" fill="#867284"/><path d="M374.38407,200.76335l4.23261,-0.80618l-1.58816,12.05839z" fill="#6f5e6d"/><path d="M458.56979,208.29332l-18.92965,-6.76339l25.68565,8.23512l-0.97551,3.42795c0,0 -0.0355,-1.5999 -1.10262,-2.50442c-0.71384,-0.60505 -4.67793,-2.3953 -4.67793,-2.3953z" fill="#978195"/><path d="M419.1449,205.33624c0,0 8.45625,-2.02359 11.42778,-2.87322c2.16462,-0.61886 4.76064,-1.7552 4.76064,-1.7552l2.47552,0.55211l-16.05582,4.53752z" fill="#9c859a"/><path d="M404.84304,203.62787c0,0 1.77555,-2.48097 3.34037,-3.57556c1.56478,-1.09451 3.97975,-1.49533 3.97975,-1.49533l-4.89614,5.49947z" fill="#806b7d"/><path d="M440.7538,199.64797l3.09914,-5.27431l14.31763,6.32324l4.39997,7.2774z" fill="#55494f"/><path d="M437.77154,201.96412c0,0 1.20351,-0.58961 1.85716,-1.06785c0.49236,-0.3602 1.41094,-1.60385 1.41094,-1.60385l21.27623,7.82459c0,0 0.76805,0.6405 1.2886,1.06325c0.54406,0.44182 1.90813,1.53305 1.90813,1.53305z" fill="#685960"/><path d="M441.46181,198.86713l2.43168,-4.22647l13.35089,5.73948c0,0 -7.61747,-2.90358 -12.0744,-3.43314c-2.5853,-0.30722 -3.70808,1.92015 -3.70808,1.92015z" fill="#41383c"/></g><path d="M103.59365,145.56429l0.90701,-5.12874c0,0 22.22076,2.6144 43.83346,6.4943c12.8792,2.31205 25.96352,6.24838 32.83997,7.10891c15.50497,1.94022 26.59959,-0.67995 26.59959,-0.67995l-8.09715,9.37635z" fill="#ffa1d1" stroke-width="0"/><path d="M98.6245,158.85968l4.92797,-15.46066c0,0 53.60022,11.57129 71.25146,14.24522c10.45584,1.58395 24.89676,0.32021 24.89676,0.32021l-2.54987,14.41864c0,0 -66.46967,-11.75466 -82.49344,-14.58834c-6.58837,-1.1651 -20.71455,27.53839 -20.71455,27.53839z" fill="#ee96c3" stroke-width="0"/><path d="M261.77533,265.39072l11.50588,-11.77211c0,0 12.52846,-13.88773 22.98025,-19.00864c2.656,-1.30132 7.9549,-1.57931 7.9549,-1.57931c0,0 -8.06036,3.63704 -11.10167,5.93395c-7.18215,5.42432 -31.33925,26.42614 -31.33925,26.42614z" fill="#70646b" stroke-width="0"/><path d="M367.60822,218.25977l-3.06955,-18.82395l1.3295,0.23509c0,0 0.92962,5.70089 1.4208,8.7132c0.07001,0.42919 1.20145,1.86934 1.28819,2.40095c0.15028,0.92155 -0.73148,1.01295 -0.56354,2.04296c0.46772,2.86815 0.92406,5.66673 0.92406,5.66673z" fill="#795467" stroke-width="0"/><path d="M197.69834,172.91851c0,0 -9.18085,-8.27757 -7.85451,-11.87653c0.79415,-2.15489 18.76414,-7.0525 18.76414,-7.0525l67.16408,13.57551l-2.15081,2.76382l28.28317,10.33149l-75.32683,13.66655c0,0 0.19832,-5.66578 4.24331,-7.85303c3.93122,-2.12568 19.69515,-5.09087 19.69515,-5.09087c0,0 -33.68604,-6.00685 -40.85051,-7.36185c-2.39024,-0.45205 -11.96731,-1.1026 -11.96731,-1.1026z" fill="#f399c8" stroke-width="0"/><g><path d="M206.50351,155.57134l0.56395,-3.18888l173.85605,30.74519l-0.56395,3.18888z" fill="#584f54" stroke-width="0"/><path d="M375.17248,182.36267l0.47647,-2.69449l3.00858,0.53203l2.1781,3.16396z" fill="#685d63" stroke-width="0"/><g fill="#685d63" stroke-width="0"><g><g><g><path d="M368.57083,181.44821l0.51842,-2.93152l3.82182,0.67582l-0.51842,2.93152z"/><path d="M362.36951,180.35165l0.51842,-2.93152l3.82183,0.67583l-0.51842,2.93152z"/></g><g><path d="M356.4022,179.29633l0.51841,-2.93153l3.82183,0.67583l-0.51842,2.93152z"/><path d="M350.20085,178.19968l0.51842,-2.93152l3.82182,0.67583l-0.51841,2.93153z"/></g></g><g><g><path d="M344.11659,177.12376l0.51841,-2.93153l3.82182,0.67583l-0.51842,2.93152z"/><path d="M337.91523,176.0271l0.51842,-2.93152l3.82182,0.67582l-0.51841,2.93153z"/></g><g><path d="M331.94791,174.97177l0.51842,-2.93152l3.82182,0.67583l-0.51842,2.93152z"/><path d="M325.7467,173.87515l0.51842,-2.93152l3.8218,0.67584l-0.51841,2.93153z"/></g></g></g><g><g><g><path d="M325.51268,173.83375l0.51842,-2.93152l3.82182,0.67583l-0.51842,2.93152z"/><path d="M319.31139,172.73711l0.51842,-2.93152l3.82183,0.67583l-0.51842,2.93152z"/></g><g><path d="M313.34409,171.68184l0.51841,-2.93153l3.82182,0.67583l-0.51842,2.93152z"/><path d="M307.14272,170.58514l0.51842,-2.93152l3.8218,0.67584l-0.51841,2.93153z"/></g></g><g><g><path d="M301.05848,169.50922l0.51841,-2.93153l3.82183,0.67583l-0.51842,2.93152z"/><path d="M294.85718,168.41254l0.51842,-2.93152l3.82183,0.67583l-0.51841,2.93153z"/></g><g><path d="M288.88989,167.35731l0.51842,-2.93152l3.82182,0.67582l-0.51841,2.93153z"/><path d="M282.68856,166.26062l0.51842,-2.93152l3.82183,0.67583l-0.51842,2.93152z"/></g></g></g></g><g><g fill="#685d63" stroke-width="0"><g><g><path d="M276.56445,165.1776l0.51841,-2.93153l3.82183,0.67583l-0.51842,2.93152z"/><path d="M270.36318,164.08094l0.51842,-2.93152l3.82183,0.67583l-0.51841,2.93153z"/></g><g><path d="M264.39584,163.02575l0.51842,-2.93152l3.82183,0.67583l-0.51841,2.93153z"/><path d="M258.19459,161.92905l0.51842,-2.93152l3.82182,0.67582l-0.51841,2.93153z"/></g></g><g><g><path d="M252.11028,160.85305l0.51841,-2.93153l3.82183,0.67583l-0.51842,2.93152z"/><path d="M245.90893,159.75637l0.51842,-2.93152l3.82183,0.67583l-0.51841,2.93153z"/></g><g><path d="M239.94159,158.70119l0.51842,-2.93152l3.82183,0.67583l-0.51841,2.93153z"/><path d="M233.74029,157.60452l0.51842,-2.93152l3.82182,0.67582l-0.51842,2.93152z"/></g></g></g><g><g fill="#685d63" stroke-width="0"><g><path d="M233.50633,157.56312l0.51841,-2.93153l3.82183,0.67583l-0.51842,2.93152z"/><path d="M227.305,156.46643l0.51842,-2.93152l3.82182,0.67582l-0.51841,2.93153z"/></g><g><path d="M221.33772,155.41117l0.51842,-2.93152l3.82182,0.67582l-0.51841,2.93153z"/><path d="M215.1364,154.31451l0.51842,-2.93152l3.82182,0.67582l-0.51842,2.93152z"/></g></g><g fill="none" stroke-width="1" font-family="sans-serif" font-weight="normal" font-size="12" text-anchor="start"><g/><g/></g></g></g><path d="M207.09466,152.63937l3.13113,-2.22506l3.00858,0.53203l-0.47647,2.69449z" data-paper-data="{&quot;index&quot;:null}" fill="#685d63" stroke-width="0"/></g><path d="M257.40927,194.93381l-2.55989,-0.17846c0,0 2.10038,-2.23593 11.74531,-1.67549c7.3123,0.42489 27.78977,2.71438 40.04185,4.12374c5.68957,0.65447 62.89565,1.62933 62.89565,1.62933l5.12186,0.89127c0,0 -62.62641,-0.2651 -68.30776,-0.94173c-12.56303,-1.49616 -33.69307,-3.97647 -39.84851,-4.47752c-3.35072,-0.27276 -9.08852,0.62897 -9.08852,0.62897z" fill="#70475c" stroke-width="0"/><path d="M353.46438,231.24335l-5.16998,0.96016l3.29742,-18.64201c0,0 7.664,1.40448 15.1592,2.77799c21.51658,3.94303 124.92665,22.89351 124.92665,22.89351l-1.17146,6.62448z" fill="#5a5959" stroke-width="0"/><path d="M352.27967,232.68754l1.59772,-2.77015l136.65977,15.83438l-13.59779,8.98088z" fill="#4b4a4a" stroke-width="0"/><path d="M473.73677,253.97428c0,0 -5.25445,-4.20402 -7.99188,-6.13838c-1.46704,-1.03664 -7.15606,-4.56555 -7.15606,-4.56555c0,0 7.37354,4.25272 10.50196,5.76865c1.11648,0.54108 2.09361,1.46811 3.28572,2.21525c0.38442,0.24087 2.66045,-2.15857 4.82895,-3.51607c0.64813,-0.40576 1.72715,0.15526 2.30214,-0.07899c1.31806,-0.53702 1.86168,-1.54928 1.86168,-1.54928c0,0 0.17045,0.97416 -1.24127,1.95708c-0.38513,0.26822 -2.22189,0.3012 -2.60514,0.59936c-1.5359,1.19507 -2.80085,2.5953 -3.2042,3.1243c-1.12577,1.47636 0.8592,2.43833 0.8592,2.43833z" fill="#414040" stroke-width="0"/><path d="M197.59834,173.20282l5.68964,-10.26485l7.00778,0.60528c0,0 -1.3973,2.4422 -2.22077,3.88154c-0.20744,0.36251 11.74716,0.49011 11.97691,1.21215c0.42632,1.3397 -5.71534,4.07177 -6.23326,4.97701c-0.59213,1.03487 -9.23251,-0.09116 -9.23251,-0.09116z" fill="#303030" stroke-width="0"/><path d="M197.52142,172.81341l5.44134,-9.46065c0,0 2.72719,1.80715 2.55566,2.77701c-0.31207,1.76481 -2.87476,7.18852 -2.87476,7.18852z" fill="#252525" stroke-width="0"/><path d="M347.81407,234.81548l0.51413,-2.90725l5.95354,-1.9454l-1.73333,2.69166c0,0 -1.30624,1.12498 -2.1389,1.50504c-0.73269,0.33446 -2.59542,0.65589 -2.59542,0.65589z" fill="#383838" stroke-width="0"/><g><g fill="#4b4b4b" stroke-width="0"><g data-paper-data="{&quot;origPos&quot;:null}"><g data-paper-data="{&quot;origPos&quot;:null}"><path d="M413.69074,247.85753l0.39576,-2.23802l3.69272,0.65303l-0.39576,2.23802z" data-paper-data="{&quot;origPos&quot;:null}"/><path d="M407.55599,246.65724l0.39576,-2.23802l3.69271,0.65303l-0.39577,2.23802z" data-paper-data="{&quot;origPos&quot;:null}"/></g><g data-paper-data="{&quot;origPos&quot;:null}"><path d="M425.97993,250.14622l0.39576,-2.23802l3.69272,0.65303l-0.39577,2.23802z" data-paper-data="{&quot;origPos&quot;:null}"/><path d="M419.84518,248.94591l0.39577,-2.23802l3.69271,0.65303l-0.39576,2.23802z" data-paper-data="{&quot;origPos&quot;:null}"/></g></g><g data-paper-data="{&quot;origPos&quot;:null,&quot;index&quot;:null}"><g data-paper-data="{&quot;origPos&quot;:null}"><path d="M444.93062,253.26672l0.39576,-2.23802l3.69272,0.65303l-0.39577,2.23802z" data-paper-data="{&quot;origPos&quot;:null}"/><path d="M451.10489,254.24315l0.39575,-2.23801l3.69272,0.65303l-0.39575,2.238z" data-paper-data="{&quot;origPos&quot;:null}"/></g><g data-paper-data="{&quot;origPos&quot;:null}"><path d="M432.60186,251.20185l0.39576,-2.23802l3.69271,0.65303l-0.39575,2.23801z" data-paper-data="{&quot;origPos&quot;:null}"/><path d="M438.77615,252.17836l0.39577,-2.23802l3.69272,0.65303l-0.39577,2.23802z" data-paper-data="{&quot;origPos&quot;:null}"/></g></g></g><path d="M373.05749,232.29875l2.37026,-13.40319l83.18333,14.71033l-2.37026,13.40319z" data-paper-data="{&quot;origPos&quot;:null}" fill="#444444" stroke-width="0"/><path d="M372.3322,236.96602l0.83285,-4.70936l82.93883,14.66708l-0.83287,4.70937z" data-paper-data="{&quot;origPos&quot;:null}" fill="#414141" stroke-width="0"/><path d="M372.11847,238.37455l0.28171,-1.59295l82.9283,14.66523l-0.2817,1.59294z" data-paper-data="{&quot;origPos&quot;:null}" fill="#3f3f3f" stroke-width="0"/><g stroke-width="0"><g data-paper-data="{&quot;origPos&quot;:null}" fill="#5a5a5a"><g data-paper-data="{&quot;origPos&quot;:null}"><path d="M415.65422,239.91233l2.39443,-13.53989l3.51681,0.62193l-2.39443,13.53989z" data-paper-data="{&quot;origPos&quot;:null}"/></g><g data-paper-data="{&quot;origPos&quot;:null}"><path d="M421.63288,240.96961l2.39443,-13.53989l3.51683,0.62194l-2.39443,13.53989z" data-paper-data="{&quot;origPos&quot;:null}"/><path d="M427.78738,242.05797l2.39444,-13.53991l3.51681,0.62193l-2.39443,13.53989z" data-paper-data="{&quot;origPos&quot;:null}"/></g></g><g data-paper-data="{&quot;origPos&quot;:null}" fill="#5a5a5a"><g data-paper-data="{&quot;origPos&quot;:null}"><path d="M434.29358,243.20858l2.39443,-13.53989l3.51681,0.62193l-2.39443,13.5399z" data-paper-data="{&quot;origPos&quot;:null}"/><path d="M440.44808,244.29696l2.39443,-13.53989l3.51683,0.62194l-2.39444,13.53991z" data-paper-data="{&quot;origPos&quot;:null}"/></g><g data-paper-data="{&quot;origPos&quot;:null}"><path d="M446.42672,245.35419l2.39444,-13.53991l3.51681,0.62193l-2.39444,13.53991z" data-paper-data="{&quot;origPos&quot;:null}"/><path d="M452.58125,246.44258l2.39444,-13.53991l3.51681,0.62193l-2.39443,13.53989z" data-paper-data="{&quot;origPos&quot;:null}"/></g></g><path d="M419.23148,240.54496l-1.20164,1.74844l-5.16879,-0.8703l1.56875,-9.67109l3.56088,-5.38994l-2.32653,13.55191z" fill="#3a3a3a"/><path d="M425.20772,241.60178l-1.20164,1.74845l-5.1688,-0.8703l1.56876,-9.6711l3.56089,-5.38992l-2.32652,13.55191z" fill="#3a3a3a"/><path d="M431.31977,242.68269l-1.20164,1.74845l-5.1688,-0.87029l1.56875,-9.67109l3.56089,-5.38992l-2.32653,13.55191z" fill="#3a3a3a"/><path d="M437.90724,243.84761l-1.20164,1.74845l-5.1688,-0.87029l1.56875,-9.67109l3.56089,-5.38992l-2.32653,13.55191z" fill="#3a3a3a"/><path d="M444.08724,244.94053l-1.20164,1.74845l-5.1688,-0.87029l1.56875,-9.67109l3.56089,-5.38992l-2.32652,13.55191z" fill="#3a3a3a"/><path d="M449.99555,245.98531l-1.20164,1.74844l-5.16879,-0.8703l1.56875,-9.67109l3.56089,-5.38992l-2.32653,13.55191z" fill="#3a3a3a"/><path d="M456.1833,247.07956l-1.20164,1.74844l-5.1688,-0.87029l1.56876,-9.6711l3.56088,-5.38994l-2.32653,13.55191z" fill="#3a3a3a"/></g><g stroke-width="0"><g data-paper-data="{&quot;origPos&quot;:null}" fill="#5a5a5a"><g data-paper-data="{&quot;origPos&quot;:null}"><path d="M373.08566,232.38437l2.39444,-13.53991l3.51683,0.62194l-2.39443,13.53989z" data-paper-data="{&quot;origPos&quot;:null}"/></g><g data-paper-data="{&quot;origPos&quot;:null}"><path d="M379.06427,233.44173l2.39443,-13.53989l3.51681,0.62193l-2.39443,13.53989z" data-paper-data="{&quot;origPos&quot;:null}"/><path d="M385.21881,234.53008l2.39443,-13.53989l3.51683,0.62194l-2.39444,13.53991z" data-paper-data="{&quot;origPos&quot;:null}"/></g></g><g data-paper-data="{&quot;origPos&quot;:null}" fill="#5a5a5a"><g data-paper-data="{&quot;origPos&quot;:null}"><path d="M391.72499,235.68059l2.39444,-13.53991l3.51682,0.62194l-2.39443,13.53989z" data-paper-data="{&quot;origPos&quot;:null}"/><path d="M397.87956,236.76899l2.39443,-13.53989l3.51683,0.62194l-2.39444,13.53991z" data-paper-data="{&quot;origPos&quot;:null}"/></g><g data-paper-data="{&quot;origPos&quot;:null}"><path d="M403.85825,237.82628l2.39443,-13.53989l3.51683,0.62194l-2.39444,13.53991z" data-paper-data="{&quot;origPos&quot;:null}"/><path d="M410.01276,238.91471l2.39444,-13.53991l3.51683,0.62194l-2.39443,13.5399z" data-paper-data="{&quot;origPos&quot;:null}"/></g></g><path d="M376.66286,233.01701l-1.20164,1.74845l-2.69556,-0.43296l0.32986,-1.94643z" fill="#3a3a3a"/><path d="M382.63917,234.07388l-1.20164,1.74845l-5.1688,-0.87029l1.56876,-9.6711l3.56089,-5.38992l-2.32653,13.55191z" fill="#3a3a3a"/><path d="M388.75119,235.15472l-1.20164,1.74844l-5.1688,-0.87029l1.56875,-9.67109l3.56088,-5.38994l-2.32653,13.55191z" fill="#3a3a3a"/><path d="M395.33862,236.3196l-1.20164,1.74844l-5.1688,-0.87029l1.56876,-9.6711l3.56089,-5.38992l-2.32653,13.55191z" fill="#3a3a3a"/><path d="M401.51868,237.41255l-1.20164,1.74844l-5.16879,-0.8703l1.56875,-9.67109l3.56089,-5.38992l-2.32653,13.55191z" fill="#3a3a3a"/><path d="M407.42695,238.4574l-1.20164,1.74844l-5.16879,-0.8703l1.56875,-9.67109l3.56088,-5.38994l-2.32653,13.55191z" fill="#3a3a3a"/><path d="M413.61476,239.55172l-1.20164,1.74845l-5.16879,-0.8703l1.56875,-9.67109l3.56089,-5.38992l-2.32653,13.55191z" fill="#3a3a3a"/></g><g><g data-paper-data="{&quot;origPos&quot;:null}"><g data-paper-data="{&quot;origPos&quot;:null}" fill="none" stroke-width="1" font-family="sans-serif" font-weight="normal" font-size="12" text-anchor="start"/><g data-paper-data="{&quot;origPos&quot;:null}" fill="#4b4b4b" stroke-width="0"><path d="M377.97541,241.7351l0.39576,-2.23802l3.69271,0.65303l-0.39575,2.23801z" data-paper-data="{&quot;origPos&quot;:null}"/><path d="M371.84066,240.53486l0.39576,-2.23802l3.69271,0.65303l-0.39576,2.23802z" data-paper-data="{&quot;origPos&quot;:null}"/></g></g><g data-paper-data="{&quot;origPos&quot;:null,&quot;index&quot;:null}" fill="#4b4b4b" stroke-width="0"><g data-paper-data="{&quot;origPos&quot;:null}"><path d="M396.92616,244.85555l0.39577,-2.23802l3.69272,0.65303l-0.39577,2.23802z" data-paper-data="{&quot;origPos&quot;:null}"/><path d="M403.10039,245.83204l0.39575,-2.238l3.69272,0.65303l-0.39577,2.23802z" data-paper-data="{&quot;origPos&quot;:null}"/></g><g data-paper-data="{&quot;origPos&quot;:null}"><path d="M384.59721,242.79071l0.39576,-2.23802l3.69272,0.65303l-0.39577,2.23802z" data-paper-data="{&quot;origPos&quot;:null}"/><path d="M390.77156,243.76715l0.39576,-2.23802l3.69272,0.65303l-0.39576,2.23802z" data-paper-data="{&quot;origPos&quot;:null}"/></g></g></g></g><path d="M210.36222,173.84134l1.7578,-3.96967c0,0 5.08867,-2.29647 8.592,-1.82921c4.00499,0.53411 33.51164,5.77748 33.51164,5.77748c0,0 0.32525,1.96235 0.06122,3.15175c-0.34025,1.53242 -2.95765,4.18167 -2.95765,4.18167z" fill="#242424" stroke-width="0"/><path d="M235.53131,174.42314l0.54859,-3.10219l17.72675,3.13481l-0.54859,3.10219z" fill="#313131" stroke-width="0"/><path d="M231.95163,175.75071l0.11356,-0.64232c0,0 1.23455,-0.84913 2.24207,-0.67098c0.95665,0.1692 3.02849,1.01786 5.41448,1.60571c4.54525,1.11984 10.06999,2.20007 10.06999,2.20007l-0.11356,0.64232c0,0 -5.34499,-0.94724 -9.82622,-2.05528c-2.44512,-0.60459 -4.57961,-1.55982 -5.57199,-1.7353c-1.04311,-0.18447 -2.32825,0.6557 -2.32825,0.6557z" fill="#616161" stroke-width="0"/><path d="M261.40611,165.00482l11.97225,5.19078l29.45476,10.59933c0,0 0.68292,0.34846 -7.16512,-1.77899c-2.66977,-0.72369 -12.86535,-4.16074 -21.61591,-7.64052c-2.36776,-0.94159 -14.89896,-6.65187 -14.89896,-6.65187z" fill="#df8cb7" stroke-width="0"/><path d="M81.98224,139.70964l1.03319,-5.84244c0,0 5.98722,-0.72135 9.73291,-0.05894c3.06646,0.54224 10.80879,5.47184 10.80879,5.47184l-2.26958,12.05979z" fill="#626061" stroke-width="0"/><path d="M194.5296,169.7535l3.30192,3.12883l12.29046,0.82975l49.96961,8.83678l-0.18994,1.07433c0,0 -37.45926,-6.7719 -49.22653,-8.58655c-3.23069,-0.4982 -12.90739,-1.47745 -12.90739,-1.47745z" fill="#ffa6d4" stroke-width="0"/><path d="M68.01099,202.16121l1.24851,-7.06001l25.9657,-12.29645l-3.96302,13.18017l-15.42383,7.56058z" fill="#3f3d3e" stroke-width="0"/><path d="M67.28699,196.89445c0,0 3.60691,-19.31891 6.06911,-28.61554c2.77897,-10.49263 9.76978,-31.18757 9.76978,-31.18757c0,0 8.51592,1.31371 11.75662,3.55814c2.77363,1.92093 6.50543,9.0897 6.50543,9.0897l-5.84269,33.0389c0,0 -14.06101,11.4241 -17.45283,13.11844c-5.21711,2.60621 -10.80541,0.99793 -10.80541,0.99793z" fill="#555354" stroke-width="0"/><path d="M81.13181,147.5016c0,0 -0.47301,-6.16954 2.03126,-8.46575c2.50426,-2.29623 6.96445,-2.54015 9.48562,-2.0943c2.01124,0.35569 6.15962,1.16921 8.21263,6.06001c2.05309,4.89074 -0.99871,11.12461 -0.99871,11.12461c0,0 -4.39183,-11.34175 -6.83506,-12.20588c-3.44766,-1.21931 -11.89573,5.58137 -11.89573,5.58137z" fill="#6f6b6c" stroke-width="0"/><path d="M65.00777,201.43885c0,0 6.22693,-25.36574 8.21972,-36.63473c2.07536,-11.73569 5.47226,-32.17489 5.47226,-32.17489c0,0 1.25047,-0.43181 2.27541,-0.25051c0.93716,0.16572 2.36814,1.07172 2.36814,1.07172c0,0 -3.54682,18.82523 -5.40912,29.35666c-2.1638,12.23561 -9.54903,39.22895 -9.54903,39.22895z" fill="#333232" stroke-width="0"/><path d="M64.50632,201.80072l3.63877,-14.29294c0,0 0.88428,1.05903 1.48125,1.12537c0.75382,0.08378 2.65555,-1.0398 2.65555,-1.0398l-3.86713,14.89858z" fill="#2e2d2d" stroke-width="0"/><path d="M96.18914,170.5811c-1.42181,8.03985 -6.99242,15.8572 -11.80079,17.97972c-3.99347,1.76286 -12.55438,7.11162 -11.13255,-0.92822c0.3016,-1.70561 4.38315,-13.0475 5.73383,-19.94758c1.7862,-9.12518 1.03301,-14.31658 2.46927,-16.93817c2.59709,-4.7402 8.2936,-5.23527 10.4743,-4.8496c4.29859,0.76018 5.67782,16.644 4.25598,24.68388z" fill="#585758" stroke-width="0"/><path d="M127.67189,190.45011l-0.2804,-1.81735c0,0 8.0536,0.05271 14.06393,0.62391c8.4612,0.80415 31.91464,3.74587 31.91464,3.74587l1.54542,1.57439c0,0 -25.00915,-2.77715 -33.72345,-3.53838c-2.55927,-0.22357 -13.5201,-0.58845 -13.5201,-0.58845z" fill="#585657" stroke-width="0"/><path d="M119.57287,202.42322l7.49465,-12.57843l7.29719,0.32503c0,0 -2.46267,3.94492 -2.50923,4.70357c-0.22234,3.62501 -1.44487,27.7477 -1.44487,27.7477c0,0 -1.53156,0.17638 -2.37621,-1.87763c-1.51547,-3.68552 -2.12798,-10.7623 -3.48714,-13.13793c-1.1743,-2.05257 -4.97452,-5.18229 -4.97452,-5.18229z" fill="#5a5759" stroke-width="0"/><path d="M137.27507,174.27171l4.81838,-10.65702l2.317,0.29689l-5.9512,10.68247z" fill="#a5a0a2" stroke-width="0"/><path d="M144.14969,174.38713l0.24428,-1.38127l26.0914,4.61404l-0.24427,1.38127z" fill="#494748" stroke-width="0"/><path d="M144.58776,171.44719l0.24428,-1.38127l26.0914,4.61404l-0.24428,1.38127z" fill="#494748" stroke-width="0"/><path d="M121.54915,190.12837l3.50689,-19.83063l13.73481,-7.33658l4.82485,0.53668l-23.48266,39.32508l-5.17663,-2.94992z" fill="#dbd5d8" stroke-width="0"/><path d="M93.38066,197.2463l1.89779,-11.63819l26.38475,3.86421c0,0 -0.11671,2.55648 -0.38393,3.32013c-0.66614,1.90356 -3.85093,8.3858 -3.85093,8.3858z" fill="#ccc6c9" stroke-width="0"/><path d="M99.09614,186.68991l0.055,-0.31099l22.6196,3.11819l-2.77185,0.7125c0,0 -4.28801,-0.56924 -6.94982,-1.07218c-3.64472,-0.6887 -12.95298,-2.44748 -12.95298,-2.44748z" fill="#d8d1d5" stroke-width="0"/><path d="M103.20865,183.62236l2.96041,-16.74021l15.87863,2.80802l-2.96041,16.74021z" fill="#a39999" stroke-width="0"/><path d="M93.07881,197.36532l1.97814,-11.1858c0,0 7.5897,7.82795 11.40325,10.87923c3.81357,3.05135 10.26423,3.90773 10.26423,3.90773z" fill="#b4afb1" stroke-width="0"/><path d="M125.15572,209.17432c0,0 2.80197,1.55215 3.90635,1.60152c0.67843,0.03029 2.08981,-1.3337 2.08981,-1.3337l0.05314,9.22338l-0.73052,4.13104c0,0 -1.96757,-0.03167 -2.7774,-2.79759c-0.66814,-2.28204 -2.54149,-10.82463 -2.54149,-10.82463z" fill="#504e4f" stroke-width="0"/><path d="M119.77581,203.02407l21.50983,-38.58739l1.68126,0.50563l-21.4803,39.00931z" fill="#858183" stroke-width="0"/><path d="M110.29405,159.95887l1.77898,-1.36155c0,0 27.10887,4.1401 39.32954,6.30124c10.60672,1.87574 31.3954,5.91051 31.3954,5.91051l0.18334,2.00393c0,0 -20.84897,-4.40394 -32.02909,-6.38101c-12.76631,-2.25759 -40.65816,-6.47316 -40.65816,-6.47316z" fill="#918b8e" stroke-width="0"/><path d="M111.5111,158.9243l2.33102,-1.55929c0,0 25.55425,4.16061 37.77491,6.32172c10.60673,1.87576 31.3954,5.91051 31.3954,5.91051l0.18334,2.00394c0,0 -20.84896,-4.40393 -32.02908,-6.38102c-12.76631,-2.25759 -39.65558,-6.29593 -39.65558,-6.29593z" fill="#a59fa2" stroke-width="0"/><path d="M171.5129,190.64371l-0.90653,-5.93113c0,0 0.41827,-1.14973 0.76573,-1.20287c0.30618,-0.04685 1.21122,0.90067 1.21122,0.90067l0.90652,5.93114c0,0 -0.42475,0.81608 -0.73165,0.86304c-0.34717,0.05305 -1.24537,-0.56084 -1.24537,-0.56084z" fill="#494242" stroke-width="0"/><path d="M131.39243,186.23846l5.14054,-8.72381l3.82632,0.67668l-5.14054,8.72381z" fill="#9c989a" stroke-width="0"/><path d="M143.90905,170.39999l1.991,-0.63086l24.06229,4.27355l1.82179,1.28682z" fill="#757274" stroke-width="0"/><path d="M143.51239,173.18469l1.99098,-0.63088l24.06229,4.27357l1.8218,1.28681z" fill="#757274" stroke-width="0"/><path d="M90.86628,195.97582l11.80846,-56.97187l1.78985,0.90622l-11.34117,57.4619z" fill="#686666" stroke-width="0"/><path d="M90.65835,196.21353l3.47538,-15.89339l1.59112,4.15908l-2.74748,13.03071z" fill="#535252" stroke-width="0"/><path d="M124.91788,179.04249c0,0 2.50002,-1.93971 2.66492,-2.87205c0.1618,-0.91491 -1.68474,-2.67065 -1.68474,-2.67065c0,0 2.83957,1.18222 2.44292,2.82661c-0.30212,1.2525 -1.71782,3.22513 -1.99583,4.29542c-0.79052,3.04327 -2.74807,10.15849 -2.74807,10.15849z" fill="#c4bec1" stroke-width="0"/><path d="M132.80946,178.49673l3.65782,-9.70677l3.26816,-3.84386l-4.27896,8.9498z" fill="#aca7a9" stroke-width="0"/></g></g><g stroke-width="0"><path d="M253.91086,171.65027l3.09566,-2.83343c0,0 2.02992,-1.09961 2.79441,-0.68516c0.87163,0.47254 2.1561,3.369 2.1561,3.369l-1.24454,3.9252c0,0 -4.2145,-0.75301 -5.43822,-1.10474c-0.55166,-0.1586 -1.36341,-2.67093 -1.36341,-2.67093z" fill="#c0c0c0"/><path d="M209.96707,173.68006c0,0 0.32777,-2.8667 1.56902,-3.80374c1.5556,-1.1743 7.92781,-2.29396 7.92781,-2.29396l-1.52462,4.54095l-0.50872,2.87661z" fill="#838383"/><path d="M209.81045,173.57684l9.28368,-5.95563l36.98841,6.54111l-1.30282,7.36696z" fill="#999999"/><path d="M210.90851,173.10437l7.08278,-4.67921l33.25626,5.88111l-1.01711,5.75188c0,0 -4.02514,-0.71175 -9.20302,-1.62742c-3.36643,-0.59536 -7.03523,-2.32261 -10.58677,-2.95071c-3.80995,-0.67377 -7.45713,-0.24028 -9.59712,-0.61869c-4.18814,-0.74065 -9.93506,-1.75698 -9.93506,-1.75698z" fill="#d952b3"/><path d="M214.34778,173.71037l9.26898,-4.35568l12.27368,2.17047c0,0 -7.59554,0.59373 -10.0886,1.08161c-2.64677,0.51786 -6.17741,2.03675 -6.17741,2.03675z" fill="#a5899d"/><path d="M222.23447,174.99059c0,0 5.17675,-0.07171 7.59628,0.35613c3.0916,0.5467 9.43629,2.65598 9.43629,2.65598l-9.44818,-2.01122z" fill="#adadad"/><path d="M209.91664,173.57711l8.3836,-5.37384l34.43243,6.08912l-0.11988,0.67808c0,0 -29.81423,-5.27241 -33.70048,-5.95972c-0.81287,-0.14373 -8.99552,4.56635 -8.99552,4.56635z" fill="#8a8a8a"/><path d="M255.27734,187.93142l1.69886,-9.60624l1.89496,-6.97855c0,0 1.08725,0.66948 1.53452,1.32081c0.44732,0.65133 0.62847,1.82874 0.62847,1.82874l-3.77454,13.78587z" fill="#9e9e9e"/><path d="M250.64577,182.81593c0,0 -0.5278,-2.25121 -0.38569,-3.83988c0.19137,-2.13929 1.99478,-7.42417 1.99478,-7.42417l1.96842,0.01767c0,0 0.60938,0.91182 1.10593,0.84818c0.68456,-0.08776 2.62181,-1.32603 2.62181,-1.32603l-2.72698,12.53394z" fill="#9c9c9c"/><path d="M250.89216,184.71857c-0.57809,-1.22377 -0.10223,-2.53409 -0.10223,-2.53409l6.05703,-6.24096c0,0 0.69604,4.0671 0.53643,4.96955c-0.45374,2.56573 -0.28974,7.41811 -0.28974,7.41811c0,0 -2.94913,-0.43651 -3.89575,-1.04932c-1.13534,-0.73504 -1.72757,-1.33952 -2.3057,-2.56337z" fill="#888888"/><path d="M252.78049,184.2663c-0.62493,-2.14125 -0.84278,-6.71211 1.68116,-10.39566c2.52398,-3.68359 4.53028,-1.1645 4.53028,-1.1645c0,0 0.22091,4.5307 -0.18186,6.80825c-0.36687,2.07466 -2.13713,6.30516 -2.13713,6.30516c0,0 -3.26751,0.58805 -3.89241,-1.5532z" fill="#b4b4b4"/><path d="M258.21874,177.41332c-0.24571,1.38951 -5.29105,0.57587 -5.04539,-0.81361c0.24571,-1.38951 4.19849,-6.17651 4.99843,-6.03502c0.30985,0.0548 0.92611,0.26719 0.93491,1.34592c0.01385,1.70652 -0.73749,4.65137 -0.88803,5.50272z" fill="#bbbbbb"/></g><g stroke-width="0"><path d="M194.43736,169.72177c0,0 -4.91074,-5.86204 -4.58455,-7.70687c0.26638,-1.50629 6.23179,-0.57637 6.23179,-0.57637l7.41744,1.38468l-5.83971,9.91351z" fill="#f399c8"/><path d="M164.09176,166.02255c0,0 -0.58994,-2.23469 -0.1498,-3.24627c0.4857,-1.11629 3.14231,-4.30735 3.14231,-4.30735l22.71848,3.82911l7.4851,10.08065z" fill="#ee96c3"/></g></g><g stroke-width="0"><g><path d="M261.55606,163.22699l1.07646,-6.08729l47.08758,8.32708l-1.07646,6.08729z" fill="#61585b"/><path d="M261.96017,160.00461l0.5765,-3.25978l47.26657,8.35874l-0.57647,3.25979c0,0 -8.50889,-1.50475 -17.24959,-3.05048c-2.73285,-0.48326 -6.8392,0.33131 -9.36442,-0.11531c-3.00282,-0.53104 -5.95904,-2.59457 -7.88517,-2.93524c-5.77568,-1.0214 -12.76741,-2.25786 -12.76741,-2.25786z" fill="#494344"/><path d="M323.99303,164.26698l-5.89375,-20.26901l20.59963,3.64289l12.2717,19.20476c0,0 -5.85998,0.3462 -9.0876,0.03773c-4.98052,-0.47607 -17.89,-2.61634 -17.89,-2.61634z" fill="#5e555b"/><path d="M323.39699,167.64996l0.96449,-5.45388c0,0 12.36359,0.71072 17.31679,0.79495c3.93093,0.06682 6.79511,-0.01771 6.79511,-0.01771l4.64031,7.86701c0,0 -5.52887,0.64315 -9.69068,0.35797c-5.63902,-0.38642 -20.02593,-3.54834 -20.02593,-3.54834z" fill="url(#color-5)"/><path d="M316.40267,143.85922l0.69587,-3.93511l18.85889,3.33507l2.88496,4.56835z" fill="url(#color-6)"/><path d="M322.81772,167.57285l0.21932,-1.24002c0,0 15.3845,2.64304 20.71788,3.41606c3.98801,0.57803 8.6156,-0.20497 8.6156,-0.20497l0.67598,1.28206l-8.45542,0.59722z" fill="#312c30"/><g><path d="M225.18766,139.54258l1.31962,-8.76245l92.49019,16.3562l5.55918,12.43998z" fill="#8a6672"/><path d="M240.03135,150.58182c0,0 -2.83783,-4.16362 -5.34514,-6.09124c-2.50731,-1.92768 -9.502,-2.92354 -9.502,-2.92354l0.4739,-2.03566c0,0 12.08689,2.41814 18.99218,3.73603c16.49594,3.14814 79.55547,15.07119 79.55547,15.07119l2.42424,7.09759z" fill="#755761"/><path d="M242.40252,153.53066l-2.52787,-3.07902l86.33333,14.77044l0.65052,3.24393z" fill="#694e57"/><path d="M226.27606,131.14152l0.78869,-4.45979l89.53703,15.14407l2.80501,6.24509c0,0 2.13179,3.76684 -3.06931,2.82137c-1.63732,-0.29763 -10.03224,-5.20296 -11.67369,-5.50136c-15.80787,-2.87353 -78.38774,-14.24942 -78.38774,-14.24942z" fill="#916b77"/><path d="M227.30287,126.72396l0.32258,-2.5066l88.5592,15.52018l0.61261,2.53774z" fill="#9e7582"/><path d="M300.17699,140.30575c-7.83176,-2.04296 -71.32777,-14.32012 -71.32777,-14.32012l86.51168,15.29892l3.43162,8.1635c0,0 -10.78383,-7.09937 -18.61558,-9.14235z" fill="#b38f9a"/></g><path d="M272.80316,158.90394l1.59756,-9.0336l19.90338,3.51977l-1.59757,9.03362z" fill="#3a3336"/><path d="M274.31351,149.85911l0.97065,-1.37451l18.25517,3.22827l0.70496,1.67075z" fill="#4b4246"/><path d="M273.02813,158.43662l1.42407,-8.05267c0,0 0.12594,5.36983 2.55059,6.92204c2.4247,1.55222 15.37251,4.55198 15.37251,4.55198z" fill="#332c30"/><path d="M317.25203,146.26774l-2.81522,-6.59094c0,0 1.12339,-0.47835 1.71481,-0.37375c0.66118,0.11695 2.06645,1.04243 2.06645,1.04243l2.81522,6.59094z" fill="#757575"/><path d="M319.40181,151.45595l-4.04845,-9.46185l3.78133,0.66871l4.04844,9.46184z" fill="#5a5a5a"/><path d="M322.45884,158.54561l-4.04844,-9.46184l3.78133,0.66872l4.04845,9.46185z" fill="#505050"/><path d="M325.6176,165.88758c-0.69144,-1.61607 -3.38943,-7.9217 -3.38943,-7.9217l3.78133,0.66873l4.71457,11.32049c0,0 -2.11764,0.16931 -3.05001,-0.01061c-0.72732,-0.14033 -1.75148,-3.34433 -2.05634,-4.05692z" fill="#3b3b3b"/><path d="M223.21664,141.83245l3.25206,-18.3894l3.1324,0.55399l-3.25206,18.3894z" fill="#443e42"/><path d="M204.35049,140.11992l0.35701,-5.95687l19.9195,3.52262l-1.03231,5.83743z" fill="url(#color-7)"/><path d="M204.59774,134.78404l1.88889,-10.68127l19.9195,3.52262l-1.8889,10.68128z" fill="#5e555b"/><path d="M206.46463,124.22717l1.51256,-3.9593l19.13169,3.38326l-0.72483,4.09857z" fill="url(#color-8)"/><path d="M276.38159,132.56496l1.06805,-6.03958l14.60696,3.66632l3.73122,5.44405z" fill="#5e555b"/><path d="M295.72583,135.98586l-3.68478,-5.70665c0,0 2.84983,1.2053 4.8702,2.57635c2.02035,1.37107 5.2043,4.26025 5.2043,4.26025z" fill="#776b73"/><path d="M273.20422,133.17653l3.36785,-0.66816l25.25532,4.19542l3.32558,2.12268z" fill="#6d6269"/></g><g><path d="M274.91894,155.24642c0.21747,-1.22977 0.9214,-2.27993 1.48341,-3.22608c0.78306,-1.3185 1.58322,-2.38323 3.00455,-2.9911c0.86816,-0.37138 2.0559,-0.55673 3.07158,-0.62124c0.67179,-0.04265 1.72535,-0.26265 2.41762,-0.14017c1.56935,0.2775 1.89216,0.41764 2.93797,1.1063c0.62999,0.41486 2.16618,1.14257 2.5759,1.8976c0.3468,0.63902 0.65012,1.65595 0.86828,2.38465c0.37274,1.24542 0.83822,3.22119 0.59643,4.5886c-0.10217,0.57786 -0.81972,1.8102 -0.95841,2.30915c-0.4402,1.58405 -0.52969,2.08568 -1.91682,2.96097c-0.84309,0.53198 -2.42267,0.80903 -3.46285,1.04137c-1.07721,0.24072 -2.48436,0.87137 -3.63908,0.66714c-0.77941,-0.13787 -2.09252,-0.91333 -2.82383,-1.18097c-1.58673,-0.58067 -2.43476,-0.90776 -3.24997,-2.20983c-0.69906,-1.11654 -0.67742,-2.73582 -0.79965,-4.13612c-0.0642,-0.73564 -0.23984,-1.68848 -0.10517,-2.45029z" fill="#3a3a3a"/><path d="M275.65947,155.25686c0.19907,-1.12538 0.84323,-2.08632 1.35747,-2.95213c0.71657,-1.2065 1.44873,-2.18081 2.74941,-2.73718c0.79445,-0.33984 1.88143,-0.50949 2.81081,-0.56847c0.61477,-0.03901 1.57889,-0.24028 2.21231,-0.12829c1.43617,0.25395 1.73158,0.38217 2.68856,1.01229c0.57645,0.37961 1.98221,1.04559 2.35725,1.73646c0.31735,0.58479 0.59498,1.51538 0.79454,2.18218c0.3411,1.13968 0.76706,2.94768 0.54581,4.19895c-0.09355,0.52882 -0.75014,1.65653 -0.877,2.11306c-0.40287,1.4495 -0.48472,1.90862 -1.75403,2.70955c-0.77145,0.48685 -2.21698,0.74024 -3.16881,0.95296c-0.98573,0.22028 -2.27343,0.79735 -3.33015,0.61051c-0.71325,-0.12611 -1.91484,-0.83577 -2.58412,-1.08065c-1.45201,-0.53138 -2.22804,-0.83071 -2.97409,-2.02218c-0.63972,-1.02173 -0.61986,-2.50354 -0.73175,-3.78493c-0.05874,-0.67321 -0.21948,-1.54508 -0.09619,-2.24221z" fill="#5a5a5a"/><path d="M288.45386,152.91984c-1.59824,-2.7054 -6.57897,-3.78992 -6.57897,-3.78992c0,0 2.00662,-0.19354 3.96521,0.15984c1.58649,0.28627 3.07138,0.91898 3.98665,2.40199c0.916,1.48427 1.0453,3.01489 1.08478,4.43897c0.07731,2.79211 -0.77055,5.07212 -0.77055,5.07212c0,0 -0.08885,-5.57755 -1.68711,-8.28294z" fill="#6d6d6d"/><path d="M282.33441,156.93439c0.10025,-0.56698 0.64103,-0.94523 1.20799,-0.84494c0.56698,0.10025 0.94523,0.64103 0.84494,1.208c-0.10025,0.56698 -0.64103,0.94523 -1.208,0.84494c-0.56698,-0.10025 -0.94523,-0.64103 -0.84494,-1.208z" fill="#272727"/><path d="M282.23273,157.05536c0.09195,-0.51997 0.58799,-0.86694 1.10796,-0.77501c0.51997,0.09195 0.86694,0.58799 0.77501,1.10796c-0.09195,0.51997 -0.58799,0.86694 -1.10795,0.77503c-0.51997,-0.09195 -0.86694,-0.58799 -0.77503,-1.10795z" fill="#131313"/></g></g></g></g></g><path d="M175.58716,249.78894c0.27594,-1.56045 3.50546,-44.27668 4.28494,-45.84003c1.05247,-2.11076 9.16884,0.69617 12.35023,-0.2724c9.74367,-2.96646 20.20553,-5.77466 20.20553,-5.77466c0,0 13.7523,3.02143 17.92406,3.75923c3.11975,0.55176 64.98016,2.86922 63.91284,13.16215c-1.4477,13.96112 -42.2697,-5.15813 -44.38221,6.78714c-0.5348,3.024 1.80409,3.6361 0.69898,6.63679c-0.26525,0.72015 -3.48289,5.4104 -3.99565,7.02174c-0.81404,2.5579 1.73379,7.07309 -2.06546,9.5485c-3.02853,1.97331 -1.99982,7.24994 -2.84044,8.33577c-5.79335,7.4824 -13.33246,2.28573 -22.2076,0.71622c-10.52282,-1.86087 -26.48366,-0.90231 -35.50844,-3.75479c-3.89561,-1.2313 -9.18,4.21656 -8.37672,-0.32571z" fill="#86c8f5" stroke-width="0"/></g></g></svg>