<svg version="1.1" xmlns="http://www.w3.org/2000/svg" xmlns:xlink="http://www.w3.org/1999/xlink" width="467.60454" height="153.51912" viewBox="0,0,467.60454,153.51912"><defs><linearGradient x1="533.87131" y1="232.85518" x2="532.8857" y2="237.56471" gradientUnits="userSpaceOnUse" id="color-1"><stop offset="0" stop-color="#1f1d20"/><stop offset="1" stop-color="#202022"/></linearGradient><linearGradient x1="535.29603" y1="228.19303" x2="534.16202" y2="233.61186" gradientUnits="userSpaceOnUse" id="color-2"><stop offset="0" stop-color="#302d31"/><stop offset="1" stop-color="#1f1e20"/></linearGradient><linearGradient x1="197.7639" y1="206.66606" x2="197.06946" y2="209.98415" gradientUnits="userSpaceOnUse" id="color-3"><stop offset="0" stop-color="#585758"/><stop offset="1" stop-color="#575758"/></linearGradient><linearGradient x1="182.86425" y1="213.84467" x2="182.3191" y2="216.44964" gradientUnits="userSpaceOnUse" id="color-4"><stop offset="0" stop-color="#363536"/><stop offset="1" stop-color="#353536"/></linearGradient><linearGradient x1="342.20029" y1="152.37837" x2="341.06582" y2="157.79943" gradientUnits="userSpaceOnUse" id="color-5"><stop offset="0" stop-color="#5e555b"/><stop offset="1" stop-color="#2b2629"/></linearGradient><linearGradient x1="336.88303" y1="130.1509" x2="336.06448" y2="134.06229" gradientUnits="userSpaceOnUse" id="color-6"><stop offset="0" stop-color="#72676e"/><stop offset="1" stop-color="#5e555b"/></linearGradient><linearGradient x1="223.47452" y1="120.61673" x2="222.26021" y2="126.41906" gradientUnits="userSpaceOnUse" id="color-7"><stop offset="0" stop-color="#5e555b"/><stop offset="1" stop-color="#4d454a"/></linearGradient><linearGradient x1="226.39399" y1="106.66666" x2="225.54141" y2="110.74066" gradientUnits="userSpaceOnUse" id="color-8"><stop offset="0" stop-color="#74686f"/><stop offset="1" stop-color="#5e555b"/></linearGradient></defs><g transform="translate(-71.32743,-104.75875)"><g data-paper-data="{&quot;isPaintingLayer&quot;:true}" fill-rule="nonzero" stroke="none" stroke-linecap="butt" stroke-linejoin="miter" stroke-miterlimit="10" stroke-dasharray="" stroke-dashoffset="0" style="mix-blend-mode: normal"><g><g stroke-width="0"><path d="M260.92072,204.56719l-6.8699,-17.11545l25.15402,4.66124c0,0 -2.26916,5.4802 -3.0176,8.08056c-0.72397,2.51541 -1.40204,7.27515 -1.40204,7.27515z" fill="#7f7d7e"/><path d="M260.97677,204.77989l-2.41389,-6.23357c0,0 1.58034,3.96281 4.62191,5.22743c2.19023,0.91058 4.09989,0.99359 6.65879,1.85685c2.55888,0.8633 4.80513,2.01059 4.80513,2.01059z" fill="#6c6a6b"/></g><g><g><g><path d="M529.958,236.952l-1.02974,-5.13135c0,0 5.52487,2.85003 7.88426,4.25595c2.35943,1.406 0.62082,2.20291 0.62082,2.20291z" fill="url(#color-1)" stroke-width="0"/><path d="M538.76369,229.12273c0,0 0.97143,2.58151 -1.75375,2.92344c-2.72516,0.3419 -5.81716,0.94431 -5.81716,0.94431l0.18401,-5.61766z" data-paper-data="{&quot;index&quot;:null}" fill="url(#color-2)" stroke-width="0"/><path d="M520.545,234.97738l0.42981,-2.05386l14.4593,3.02606c0,0 1.06823,1.03507 1.47064,1.49347c0.36176,0.41209 -0.91171,0.76729 -0.91171,0.76729z" fill="#444444" stroke-width="NaN"/><path d="M520.97845,233.07077l-0.80613,-1.96059l12.34816,2.58422l2.98569,2.3025c0,0 -4.17718,-0.63106 -6.43669,-1.08613c-2.54828,-0.51329 -8.09104,-1.84 -8.09104,-1.84z" fill="#535353" stroke-width="0"/><path d="M520.03451,231.22104l-0.18679,-0.69292l11.23047,2.35026l1.54206,0.85983z" fill="#363636" stroke-width="0"/><path d="M520.545,234.97738l0.23318,-1.11424c0,0 6.22385,1.76595 9.04256,2.35586c2.38862,0.49989 6.79408,0.95846 6.79408,0.95846c0,0 0.75114,0.62944 0.95163,0.87867c0.16918,0.21025 -0.34031,0.41232 -0.34031,0.41232c0,0 -4.7153,-0.57357 -6.97993,-1.04752c-3.05536,-0.6394 -9.70117,-2.44352 -9.70117,-2.44352z" fill="#3a3a3a" stroke-width="NaN"/><path d="M520.15818,230.61168l-0.36076,-0.97838l13.35237,2.79441l-1.97094,0.525z" fill="#242424" stroke-width="0"/><path d="M518.96771,229.65304l0.33889,-1.61925c0,0 7.96398,1.45606 10.89617,2.06968c1.99775,0.41811 4.99608,1.25627 4.99608,1.25627l-2.08029,1.08626z" fill="#3a3a3a" stroke-width="0"/><path d="M519.17105,228.04888l0.41841,-1.99927c0,0 7.55857,1.24484 10.8026,1.92372c2.8072,0.58749 7.54114,1.91527 7.54114,1.91527l-2.78531,1.5039c0,0 -3.56053,-0.82941 -5.75736,-1.28917c-2.92012,-0.61111 -10.21943,-2.05447 -10.21943,-2.05447z" fill="#444444" stroke-width="0"/><path d="M519.52979,226.12411l0.17432,-0.83302c0,0 7.73217,1.49181 11.25312,2.22867c2.45167,0.51309 7.85137,1.76953 7.85137,1.76953l-1.02105,0.65579c0,0 -4.88769,-1.31778 -7.79004,-1.9252c-3.19762,-0.6692 -10.46774,-1.89578 -10.46774,-1.89578z" fill="#535353" stroke-width="0"/><path d="M519.55989,225.34787l0.06978,-0.33318c0,0 7.61741,1.07615 11.0044,1.78497c2.9283,0.61285 8.14236,2.22203 8.14236,2.22203l-0.03294,0.34094c0,0 -5.8477,-1.39232 -9.0239,-2.05706c-3.21774,-0.67342 -10.1596,-1.95767 -10.1596,-1.95767z" fill="#4e4e4e" stroke-width="0"/></g><g stroke-width="0"><g><g><g><path d="M514.91533,233.30059l-1.78813,-13.82308l0.89389,-1.57159c0,0 2.73966,3.8725 3.13238,6.49901c0.2132,1.42594 -0.81426,9.19351 -0.81426,9.19351z" fill="#383638"/><path d="M516.08584,232.83915c0,0 0.18205,-0.58481 0.0696,-3.11639c-0.12258,-2.76078 -0.74055,-6.60595 -0.90531,-7.73769c-0.36996,-2.54039 -1.08214,-2.82269 -1.08214,-2.82269l4.81744,0.41377l2.08345,14.3059z" fill="#555355"/><path d="M514.21311,219.25904l-0.31622,-1.32934c0,0 2.14122,-0.36924 3.08241,-0.17224c0.882,0.18455 1.84425,1.12899 1.84425,1.12899l0.30133,1.40049z" fill="#686668"/></g><path d="M509.36293,232.13863l-1.78813,-13.82307l0.56595,-1.61959c0,0 3.06758,3.92058 3.46024,6.54704c0.2132,1.42593 -0.81425,9.1935 -0.81425,9.1935z" fill="#383638"/><path d="M510.53344,231.6772c0,0 0.18205,-0.58482 0.06961,-3.11637c-0.12258,-2.76078 -0.74055,-6.60595 -0.90531,-7.73769c-0.36996,-2.54039 -1.08214,-2.82269 -1.08214,-2.82269l4.18575,-0.22927c0,0 0.74744,1.43784 0.86021,2.21212c0.32132,2.20611 1.85488,12.73682 1.85488,12.73682z" fill="#555355"/><path d="M508.66068,218.09697l-0.52977,-1.37408c0,0 2.35479,-0.32451 3.29605,-0.12753c0.882,0.18455 1.55948,1.06945 1.55948,1.06945l0.42371,1.42612z" fill="#686668"/><path d="M517.09042,232.03412c0.16782,-0.80212 0.95425,-1.31628 1.75637,-1.14848c0.80213,0.16783 1.31628,0.95425 1.14848,1.75637c-0.16782,0.80212 -0.95425,1.31628 -1.75636,1.14848c-0.80213,-0.16783 -1.31628,-0.95425 -1.14848,-1.75637z" fill="#312f31"/><path d="M518.33215,229.30125l-0.82084,-5.83846l1.587,0.18568l0.80765,5.90161z" fill="#444144"/></g><path d="M471.88176,219.22053l-1.46775,-11.36519l29.0077,7.27269l-2.4367,9.34611z" fill="#444444"/><path d="M485.05665,217.97742c0,0 0.72942,-0.38059 1.66267,-1.31413c0.8534,-0.85346 1.89367,-2.24788 2.36516,-2.62299c1.30413,-1.47054 3.53664,-0.52631 3.53664,-0.52631l-1.09254,0.43855l-5.35325,4.25906z" fill="#292929"/><path d="M485.63975,228.85699l-4.12874,-12.07313c0,0 3.31573,1.23669 5.19811,0.55887c1.46276,-0.52677 1.90973,-3.1222 3.5112,-3.07411c4.59471,0.13822 17.28505,2.35076 17.28505,2.35076c0,0 1.70781,7.65718 2.02401,10.67298c0.21827,2.08198 -0.28681,6.50431 -0.28681,6.50431z" fill="#4a464a"/><path d="M492.37433,216.87391c-4.33377,-1.55676 -2.64416,-2.59668 -2.64416,-2.59668c0,0 1.04267,-1.1122 2.90032,-0.87278c4.55867,0.5876 12.90022,2.9227 14.59126,3.25041c0.7975,0.15451 0.19669,0.75205 0.19669,0.75205c0,0 -1.94657,2.03028 -3.51631,1.96129c-1.56983,-0.06901 -7.194,-0.93745 -11.52783,-2.49424z" fill="#5e595e"/></g><g><path d="M472.73919,232.87492l-1.37791,-18.61241l18.44816,4.15336l3.81105,5.21971l5.99006,1.15292l0.15598,13.74274z" fill="#4d4846"/><path d="M477.25103,234.21471l22.14201,-4.9611l21.89802,4.33515c0,0 0.42735,4.36292 0.28983,5.71808c-0.07018,0.69091 -0.75478,2.84992 -0.75478,2.84992z" fill="#423d3b"/><path d="M475.22056,225.29869l-1.09518,-10.28865l0.80311,0.1681l1.09518,10.28867z" fill="#363332"/><path d="M477.98839,233.54997l0.24935,-1.19155c0,0 5.67425,-1.41306 14.54691,0.44378c1.17888,0.24673 4.81571,3.60842 6.0039,3.85708c7.53878,1.57772 14.91777,3.12201 17.72508,3.7095c2.28624,0.47847 4.88714,-0.3054 4.88714,-0.3054l-0.51571,2.46404z" fill="#312e2c"/><path d="M482.91773,221.56541l-0.76121,-4.87467l8.13153,1.70179l3.16127,5.17867l6.13302,1.48181l-7.82798,0.35274z" fill="#585350"/><path d="M472.19255,226.49871l0.23112,-1.10428c0,0 8.64207,-2.01606 11.45829,-1.42673c4.2444,0.88825 15.96185,3.34047 15.96185,3.34047l-0.23112,1.10428c0,0 -11.91837,-2.49426 -16.16267,-3.38253c-2.75838,-0.57729 -11.25754,1.46872 -11.25754,1.46872z" fill="#2b2827"/></g></g></g><g><g><g><path d="M135.91877,199.70147c0.07172,2.2974 -0.7616,4.76868 -1.88356,4.80366c-1.12195,0.03504 -2.10777,-2.37942 -2.17949,-4.67685c-0.07172,-2.2974 -0.40513,-11.12321 0.71689,-11.1583c1.12195,-0.03504 3.27449,8.73404 3.34621,11.03144z" fill="#615e5f" stroke-width="0"/><g><path d="M182.75999,178.92707c-0.41982,-0.62688 -2.442,-2.39092 -2.442,-2.39092l10.29961,-0.78689l-7.34763,5.81828c0,0 -0.09014,-2.01354 -0.50998,-2.64044z" fill="#756a6a" stroke-width="0"/><path d="M174.27252,175.4168l2.81314,-13.44214l19.34207,-1.94586l-4.01487,19.1844z" fill="#8a7c7c" stroke-width="0"/><path d="M133.96984,172.54735l10.23974,-16.38322l34.21987,7.02536l1.84255,13.32667c0,0 -22.82524,-3.16669 -30.5492,-3.82865c-3.20631,-0.27483 -15.75303,-0.14003 -15.75303,-0.14003z" fill="#7c787a" stroke-width="0"/><path d="M143.8328,158.54224l0.1585,-1.4804c0,0 25.3745,5.31034 33.35153,6.97977c4.46315,0.934 17.11065,-2.92745 17.11065,-2.92745l-0.33384,1.59513c0,0 -12.35552,3.90291 -16.66907,2.98519c-7.90929,-1.6827 -33.6178,-7.15219 -33.6178,-7.15219z" fill="#535353" stroke-width="0"/><path d="M102.42559,166.66901l4.12837,-19.7266c0,0 5.88003,-5.97645 13.44089,-6.73977c9.3909,-0.94807 25.55591,4.25863 27.58265,4.68278c1.55526,0.32552 -14.76762,7.55179 -14.76762,7.55179l-4.12837,19.7266z" fill="#8d898b" stroke-width="0"/><path d="M281.15763,156.93147l2.21273,-2.74928l105.25499,22.17363l-3.02064,14.43355c0,0 -37.35754,-5.93267 -49.23397,-8.84328c-5.89817,-1.44549 -55.2131,-25.01462 -55.2131,-25.01462z" fill="#c98cac" stroke-width="0"/><path d="M239.26389,251.35218l-1.79739,-13.59283c0,0 3.83297,6.76813 6.39962,8.40547c1.6353,1.04322 5.69365,2.28252 12.17409,1.14852c5.21703,-0.91287 11.40497,-5.24802 11.40497,-5.24802l-14.47455,12.15542z" fill="#a08e97" stroke-width="0"/><path d="M337.44516,223.96705l2.55027,-23.59944l18.44141,2.4263l-4.34201,20.74753c0,0 -6.61389,0.37219 -9.4634,0.48931c-1.31202,0.05391 -7.18631,-0.06367 -7.18631,-0.06367z" fill="#96858d" stroke-width="0"/><path d="M236.69794,254.64218l1.13484,-5.42267c0,0 11.38371,4.49571 16.54465,2.38687c2.51169,-1.02632 23.29396,-18.06298 34.76332,-27.54669c4.47591,-3.70098 7.53355,-6.25169 7.53355,-6.25169c0,0 4.061,-3.00504 4.65531,-5.82531c0.29894,-1.41871 1.61491,-5.41255 1.27448,-7.84523c-0.34349,-2.45444 -2.34476,-3.34149 -2.34476,-3.34149l-1.98864,-14.28249l19.36638,4.19974l-8.29105,25.41393l3.1537,3.27735c0,0 -10.58149,3.91561 -16.12739,7.81807c-8.67736,6.10582 -37.7947,31.05529 -37.7947,31.05529z" fill="#918189" stroke-width="0"/><path d="M314.68422,219.56402l7.0471,-27.7487l13.42703,3.09175l7.68537,13.8706l-5.53798,15.52068z" fill="#96858d" stroke-width="0"/><path d="M309.87682,220.44717l-1.60682,-4.57188l8.82866,-24.90962l4.98948,0.95767l-6.51703,27.84215z" fill="#8f8187" stroke-width="0"/><path d="M336.07645,224.14684c0,0 4.05905,-5.96201 3.84342,-11.53522c-0.12417,-3.20898 -4.52748,-6.14291 -4.60361,-8.11014c-0.14542,-3.75791 -0.37039,-9.5715 -0.37039,-9.5715l6.79465,5.88051c0,0 1.85627,7.75851 1.56839,12.05212c-0.19335,2.88467 -2.95164,8.82153 -4.391,11.17553c-0.12135,0.19843 -1.25551,-0.12397 -1.3399,0.02722c-0.20616,0.3695 0.69023,0.79338 0.69023,0.79338z" fill="#86787e" stroke-width="0"/><path d="M341.22324,202.23465c0,0 -2.21515,-4.5042 -6.59938,-6.41439c-4.96337,-2.16252 -21.65964,-5.89792 -21.65964,-5.89792l157.2976,18.43012l1.43768,9.80418l5.46748,12.52832c0,0 -98.12793,-23.16332 -118.27965,-27.38062c-6.57582,-1.37621 -17.66412,-1.06962 -17.66412,-1.06962z" fill="#df8db7" stroke-width="0"/><path d="M180.59068,216.9222l2.73333,-36.48358c0,0 2.41584,-3.32638 2.95054,-3.43478c5.89545,-1.1956 39.4347,-5.05907 44.69995,-3.66465c5.76779,1.52748 -11.47338,10.10623 -11.47338,10.10623c0,0 -14.51926,-0.96879 -17.87366,2.67116c-4.55431,4.94194 -3.36444,22.92047 -3.36444,22.92047z" fill="#c77da3" stroke-width="0"/><path d="M257.60607,202.46259l-1.32027,-2.42719c0,0 8.18286,-7.08054 11.03452,-8.82611c2.94402,-1.80221 6.36124,-1.82275 6.36124,-1.82275l5.338,3.46915c0,0 -4.2782,-1.40885 -6.94341,-0.21308c-2.28792,1.02644 -6.59112,3.27126 -9.96539,5.72444c-2.45451,1.78447 -4.50466,4.09552 -4.50466,4.09552z" fill="#414041" stroke-width="0"/><path d="M143.73459,157.45273l7.09273,-10.45841l47.5973,9.96112c0,0 -3.74978,3.76728 -7.20598,5.05269c-3.39211,1.2616 -13.34261,2.58965 -13.34261,2.58965z" fill="#979395" stroke-width="0"/><path d="M144.75169,156.49791l6.30968,-10.62232l47.5973,9.96112c0,0 -3.74978,3.76728 -7.20598,5.05269c-3.39211,1.2616 -13.34261,2.58965 -13.34261,2.58965z" fill="#bdb7ba" stroke-width="0"/><path d="M338.36785,224.95403l-1.72801,-0.88633l17.34678,-0.63491c0,0 -3.90628,1.28448 -6.50081,1.55564c-2.59452,0.27122 -9.11795,-0.03451 -9.11795,-0.03451z" fill="#887980" stroke-width="0"/><path d="M182.92857,217.88606c0,0 -0.14678,-10.72297 0.42658,-19.32636c0.57622,-8.64539 1.14145,-16.74817 1.85416,-20.26143c0.12075,-0.59522 3.76812,-9.97769 4.36409,-10.38566c3.21698,-2.20217 9.2084,6.96303 14.88059,7.02266c8.39863,0.0883 27.20722,3.49928 27.20722,3.49928l-9.3623,3.46643c0,0 -19.62409,-1.17972 -23.01731,3.35865c-4.58969,6.13863 -1.4551,28.11958 -1.4551,28.11958z" fill="#d486ae" stroke-width="0"/><path d="M184.75691,214.67353c0,0 1.85235,-41.36937 5.21525,-50.96086c1.57347,-4.48778 0.15551,-14.08971 0.15551,-14.08971l48.16536,17.19969l-1.89807,16.02089c0,0 -30.72919,-9.59123 -38.23016,-4.7511c-5.00714,3.23092 -4.12777,32.26986 -4.12777,32.26986z" fill="#e490bb" stroke-width="0"/><g stroke-width="0"><path d="M333.14939,181.3706l1.69507,-8.0994l9.16148,1.91733l-1.69507,8.0994z" fill="#454545"/><path d="M334.12069,180.79248l1.14576,-7.21643l11.086,2.32009l-1.49498,7.14336z" fill="#b0b0b0"/><path d="M334.81458,176.35144l0.35604,-2.81708l11.29805,2.36445l-0.39069,1.86694c0,0 -7.69368,-1.28064 -9.38542,-1.49308c-0.5653,-0.07094 -1.87798,0.07885 -1.87798,0.07885z" fill="#bebebe"/><path d="M345.21815,182.55353c0,0 -4.89973,-3.63615 -3.57321,-7.18738c1.97123,-5.27712 5.90718,-3.96496 5.90718,-3.96496l39.11593,9.54843l-2.06086,9.84729z" fill="#9c989a"/><path d="M347.23165,181.65775c0,0 -1.71319,-3.95366 -1.76229,-4.91088c-0.07279,-1.41885 2.48545,-3.90486 2.48545,-3.90486l40.7069,8.55317l-1.92554,7.24788z" fill="#898587"/><path d="M347.10258,181.83328l-0.60069,-2.1071l37.42108,7.83143l-0.39722,1.89824z" fill="#c1bcbf"/><path d="M347.67919,178.4865c0,0 -1.02486,-1.6121 -0.83287,-2.52957c0.17958,-0.85821 1.95018,-2.80933 1.95018,-2.80933l37.84674,7.92051l-1.11728,5.3389z" fill="#0d0d0d"/><path d="M347.52,179.24734c0,0 -0.90116,-2.20303 -0.70918,-3.12053c0.17958,-0.85821 1.82645,-2.2183 1.82645,-2.2183l37.84676,7.92053l-1.11728,5.3389z" fill="#2e2e2e"/><path d="M342.40645,180.12169c-1.95463,-3.54247 -0.33554,-5.59077 -0.33554,-5.59077c0,0 0.95103,4.40041 1.97649,5.5321c1.21408,1.33978 4.46753,3.41625 4.46753,3.41625l-3.44874,-0.65005c0,0 -2.31569,-2.08407 -2.65966,-2.70749z" fill="#7d7a7c"/><path d="M350.00143,180.08303c0,0 -0.41696,-2.34718 -0.18269,-3.46646c0.20592,-0.98393 1.51417,-2.8957 1.51417,-2.8957l4.72103,0.988c0,0 -0.90281,2.0628 -1.08059,2.9126c-0.24444,1.16802 -0.25079,3.44951 -0.25079,3.44951z" fill="#555555"/><path d="M358.43539,181.84813c0,0 1.16938,-2.3331 1.40356,-3.45232c0.20592,-0.98393 -0.07215,-2.90987 -0.07215,-2.90987l5.26922,1.10274c0,0 -0.75914,1.59332 -0.93698,2.44318c-0.24444,1.16802 -0.39445,3.91896 -0.39445,3.91896z" fill="#555555"/><path d="M367.5643,183.75859c0,0 1.16938,-2.33307 1.4036,-3.45236c0.20592,-0.98393 -0.07216,-2.90986 -0.07216,-2.90986l5.19086,1.08633c0,0 -0.75914,1.59332 -0.93698,2.44318c-0.24444,1.16802 -0.39445,3.91896 -0.39445,3.91896z" fill="#555555"/><path d="M377.02265,185.73807c0,0 1.27056,-1.94859 1.50478,-3.06794c0.20592,-0.98393 -0.17335,-3.29422 -0.17335,-3.29422l5.03426,1.05357c0,0 0.40431,2.10928 0.22639,2.95916c-0.24444,1.16802 -1.55788,3.4031 -1.55788,3.4031z" fill="#555555"/><path d="M350.9282,174.35541l-0.48717,-0.91927l34.80851,7.2847l-1.66561,0.46873c0,0 -2.77006,-0.57972 -5.1801,-1.08405c-0.52531,-0.10998 -1.45203,-0.63976 -2.23885,-0.80444c-0.76078,-0.15925 -1.37424,0.04825 -2.31991,-0.14961c-1.47478,-0.30865 -3.13863,-0.65685 -4.8806,-1.02139c-0.7222,-0.15114 -1.27197,-0.65805 -2.01312,-0.81316c-0.65904,-0.1379 -1.50817,0.07624 -2.17022,-0.06233c-1.64327,-0.34391 -3.27031,-0.68444 -4.80013,-1.00459c-0.70251,-0.14701 -1.29461,-0.7188 -1.94824,-0.85561c-0.79787,-0.167 -1.64329,0.10394 -2.34236,-0.04236c-2.85169,-0.59676 -4.76231,-0.99663 -4.76231,-0.99663z" fill="#474747"/></g><g><path d="M193.09449,209.85025l4.22569,-2.04523c0,0 2.18841,3.33386 4.77903,4.79042c2.29131,1.28821 9.97717,3.5059 9.97717,3.5059l-3.4907,3.7181z" fill="#6d6a6b" stroke-width="0"/><path d="M183.87489,214.56181l10.5485,-5.3376c0,0 2.70392,2.87131 4.69112,3.9634c3.00631,1.65219 11.59171,4.98522 11.59171,4.98522l-5.06939,3.33973z" fill="#615e5f" stroke-width="0"/><path d="M181.33143,236.47279l3.17203,-22.39825c0,0 4.09963,1.66708 8.81261,2.68366c3.67867,0.7935 7.81419,0.7935 10.12062,1.89772c4.04913,1.93849 34.33335,20.89975 34.33335,20.89975l0.34171,10.46677z" fill="#575455" stroke-width="0"/><path d="M208.00437,214.42717c7.9263,-4.02694 18.58015,-15.54082 20.33858,-17.79995c1.2668,-1.62752 3.02047,-6.65083 3.02047,-6.65083l6.14438,8.24832c0,0 1.52719,21.2604 0.09216,33.88081c-0.40152,3.53131 1.25441,7.90854 -0.20704,9.10097c-1.30948,1.06831 -18.38017,-0.1647 -23.50331,-2.01825c-10.7816,-3.90064 -17.0222,-2.35669 -19.60691,-8.28729c-2.58469,-5.93055 5.64989,-10.61333 5.64989,-10.61333c0,0 6.00841,-4.81205 8.07194,-5.86045z" fill="#504e4f" stroke-width="0"/><path d="M219.43208,183.28236c0,0 0.6932,-1.38002 1.66798,-1.85395c1.25363,-0.60945 5.22974,-1.49954 5.22974,-1.49954c0,0 8.74481,3.94227 11.1812,6.99611c2.24792,2.81753 -6.00562,11.59417 -6.00562,11.59417l-0.86575,-5.65868z" fill="#464445" stroke-width="0"/><path d="M232.49971,234.26783c0,0 -10.36881,4.22132 -18.70842,2.65113c-8.04528,-1.51476 -14.0794,-8.79704 -13.68329,-10.16723c0.21457,-0.74242 8.6515,-2.35362 12.91905,-5.77337c4.74379,-3.80137 5.43364,-9.48209 7.16769,-11.17325c4.84095,-4.72114 15.19185,-12.95398 15.3913,-19.08681c0.20915,-6.43165 -9.85631,-10.65699 -9.85631,-10.65699c0,0 4.23078,-1.41501 9.13733,-0.5209c2.09001,0.38089 6.2573,2.66887 7.08212,3.23482c2.70491,1.85576 4.31824,3.86514 4.31824,3.86514c0,0 4.58043,-4.02644 8.16961,-3.59149c3.5891,0.43496 21.41192,7.1764 21.41192,7.1764l-18.44657,9.00636z" fill="#555354" stroke-width="0"/><path d="M219.68495,210.30638c0,0 6.75001,-9.69573 12.49336,-14.0464c5.74335,-4.35068 10.38679,-6.6283 13.84423,-5.9047c2.50367,0.52396 3.95738,9.63023 3.95738,9.63023l-16.73521,25.89023c0,0 -14.98277,0.21458 -15.92061,-2.51611c-0.74069,-2.15669 2.3608,-13.05319 2.3608,-13.05319z" fill="#585758" stroke-width="0"/><path d="M236.16997,241.64744c0,0 -1.54893,-6.64937 -0.61054,-9.54064c1.31094,-4.03911 5.31628,-16.12897 5.31628,-16.12897l-0.22251,10.61523c0,0 -2.62356,9.40963 -3.11439,12.40241c-0.4735,2.88757 0.47503,5.30352 0.47503,5.30352z" fill="#3f3e3f" stroke-width="0"/><path d="M238.92054,223.97086c0.15176,-1.67933 1.99253,-9.17205 1.99253,-9.17205c0,0 12.3396,-12.30112 14.93598,-14.46832c0.76117,-0.63532 4.40026,-1.64217 4.40026,-1.64217l-2.60564,4.41376c0,0 -1.66421,0.26879 -1.93805,0.69968c-0.29179,0.45907 0.23762,1.97545 0.23762,1.97545l-6.75712,7.24969c0,0 -1.82263,0.65104 -2.10152,1.10896c-0.27896,0.45806 0.21217,1.46827 0.21217,1.46827c0,0 -5.60416,7.96215 -6.92341,10.15312c-0.60999,1.01304 -0.67334,2.46345 -0.67334,2.46345c0,0 -0.93113,-2.57044 -0.77931,-4.2497z" fill="#474647" stroke-width="0"/><path d="M230.36802,200.75831l18.92531,12.37445c0,0 -1.37112,0.7473 -1.71364,1.22636c-0.25278,0.3535 -0.15548,1.38744 -0.15548,1.38744z" fill="#3f3e3e" stroke-width="NaN"/><path d="M238.36149,191.85394l19.51178,11.29513c0,0 -1.26411,0.59705 -1.58463,1.09835c-0.33411,0.52259 -0.19352,1.65463 -0.19352,1.65463z" fill="#3f3e3e" stroke-width="NaN"/><path d="M220.31039,217.37757c0,0 8.88983,9.72012 13.41889,16.77506c4.52899,7.05496 2.38225,7.83863 2.38225,7.83863z" fill="#636162" stroke-width="NaN"/><path d="M238.03838,197.5316c0,0 -6.46827,1.6133 -9.79348,4.08039c-3.32526,2.46707 -14.79745,16.59969 -14.19407,13.71668c0.60337,-2.88306 17.69138,-20.47695 19.44828,-20.10927c0.66505,0.13919 3.87087,-0.35693 4.62334,0.04318c1.23525,0.65683 -0.08406,2.26902 -0.08406,2.26902z" fill="#918f91" stroke-width="0"/><path d="M180.91138,236.25272l14.03396,1.00779c0,0 12.39689,2.25493 15.43527,3.04924c7.39941,1.93432 29.12255,8.59896 29.12255,8.59896l-1.73233,6.09547c0,0 -24.57474,-1.50027 -31.05348,-4.2003c-1.87427,-0.78111 -7.44098,-2.57754 -11.32955,-4.7728c-7.60967,-4.29606 -14.47644,-9.7783 -14.47644,-9.7783z" fill="#626061" stroke-width="0"/><path d="M236.85926,254.45392c0,0 0.9189,-4.19329 0.95878,-6.57553c0.04484,-2.67751 -0.70294,-8.70745 -0.70294,-8.70745l1.74455,0.3651c0,0 0.76973,4.71444 0.72924,7.13837c-0.04439,2.65023 -0.98503,8.14457 -0.98503,8.14457z" fill="#4a494a" stroke-width="0"/><path d="M236.49688,255.2325l0.78229,-3.30703c0,0 0.50052,0.37521 0.76625,0.43084c0.31575,0.06612 0.96375,-0.06873 0.96375,-0.06873l-0.48065,3.14479c0,0 -0.8436,0.23986 -1.21374,0.20352c-0.28366,-0.02786 -0.81785,-0.40333 -0.81785,-0.40333z" fill="#363536" stroke-width="0"/><path d="M237.17431,240.23092l-0.04568,-1.66529c0,0 0.48115,-0.26138 0.85389,-0.24391c0.35504,0.0167 0.84121,0.24388 0.84121,0.24388l0.13532,1.80234c0,0 -0.57555,0.39795 -0.88127,0.37448c-0.28805,-0.0221 -0.90343,-0.51146 -0.90343,-0.51146z" fill="#585758" stroke-width="0"/><path d="M195.98701,245.4597c0,0 -7.1229,-4.50747 -6.84368,-5.84164c0.2806,-1.34072 6.62535,-1.2091 6.62535,-1.2091c0,0 10.76113,2.00609 15.57769,3.19047c2.69647,0.66305 10.86136,3.31069 10.86136,3.31069c0,0 6.92125,2.52553 7.48313,3.8198c0.61291,1.41175 -3.7514,3.40157 -3.7514,3.40157c0,0 -12.72157,-1.32805 -16.5597,-2.34396c-1.36342,-0.36094 -13.39279,-4.32777 -13.39279,-4.32777z" fill="#6b696a" stroke-width="0"/><path d="M187.23787,236.57767l-1.96738,-0.17591c0,0 1.31669,-3.23352 3.72455,-1.46051c2.40785,1.77302 21.1867,4.66976 21.1867,4.66976z" fill="#4b4949" stroke-width="0"/><path d="M181.01232,236.12669c0,0 -1.99471,-0.22172 -1.77222,-3.89682c0.1126,-1.86031 1.31666,-16.10795 1.31666,-16.10795l4.25059,-2.07232c0,0 -0.56043,6.00628 -0.95315,8.8892c-0.52233,3.83428 -1.93832,13.37692 -1.93832,13.37692z" fill="#3f3d3e" stroke-width="0"/><path d="M187.51889,236.80593c0,0 3.56705,-1.45838 19.35197,1.50064c1.30352,0.24438 -1.75054,-0.39908 7.34594,2.02295c9.09652,2.42198 12.61198,4.70316 12.61198,4.70316c0,0 -14.52762,-4.13289 -20.59894,-5.40348c-6.92054,-1.44831 -18.711,-2.82329 -18.711,-2.82329z" fill="#838082" stroke-width="0"/><path d="M198.53235,208.83674c0,0 -4.726,1.24578 -7.18586,2.38153c-2.76484,1.27656 -8.5953,4.90495 -8.5953,4.90495l-0.43979,-1.72835c0,0 4.47219,-3.0012 6.97515,-4.15689c2.73657,-1.26351 8.80603,-3.1296 8.80603,-3.1296z" fill="#4a494a" stroke-width="0"/><path d="M199.49933,208.77572l-3.82977,0.9155c0,0 0.22677,-0.61298 0.15977,-0.8762c-0.07961,-0.31283 -0.52014,-0.82182 -0.52014,-0.82182l3.44699,-1.11937c0,0 0.63945,0.63103 0.77483,0.97763c0.1038,0.26557 -0.03173,0.9244 -0.03173,0.9244z" fill="url(#color-3)" stroke-width="0"/><path d="M183.80968,215.54959l-3.44761,2.06741l0.3063,-2.16583l2.4489,-1.55349c0,0 0.67642,0.31537 0.79496,0.59843c0.11178,0.26666 -0.10263,1.05352 -0.10263,1.05352z" fill="url(#color-4)" stroke-width="0"/></g><path d="M316.03309,218.72608c0,0 1.81285,-4.13503 2.59006,-5.3916c0.52765,-0.85299 3.1439,-1.76813 3.1439,-1.76813l16.70321,3.27271c0,0 -2.4377,5.41318 -3.09054,6.67246c-0.28603,0.55163 -1.47128,1.01119 -1.47128,1.01119z" fill="#665b60" stroke-width="0"/><path d="M272.18949,190.89844c0,0 -3.39371,-2.30653 -7.98165,-4.44395c-2.91656,-1.35874 -6.97992,-2.78817 -8.82313,-3.06582c-5.35883,-0.80731 -8.8701,3.67334 -8.8701,3.67334c0,0 -2.72952,-2.93715 -4.61736,-4.20549c-1.76228,-1.1839 -5.818,-3.05532 -5.818,-3.05532c0,0 25.08159,0.0475 28.96991,0.26851c7.45421,0.42378 33.48953,6.27229 33.48953,6.27229l3.16565,15.25768z" fill="#8b7c84" stroke-width="0"/><g stroke-width="0"><path d="M317.65001,218.1013c0,0 0.99333,-2.44457 1.57831,-3.23634c0.60646,-0.82092 2.95954,-1.40372 2.95954,-1.40372l14.22193,2.9763c0,0 0.17673,1.04123 -0.20474,1.71517c-0.51872,0.91629 -3.7992,3.03669 -3.7992,3.03669z" fill="#585852"/><path d="M317.80269,217.37176c0,0 0.84064,-1.71509 1.42566,-2.50681c0.60646,-0.82092 3.11223,-2.13328 3.11223,-2.13328l14.22193,2.97631c0,0 0.02413,1.77083 -0.35743,2.44474c-0.51872,0.91629 -3.64651,2.30703 -3.64651,2.30703z" fill="#797971"/><path d="M334.73418,215.83174c-0.9902,-0.38904 -12.31072,-3.03544 -12.31072,-3.03544l14.20246,2.97227l-0.5043,2.40965c0,0 -0.39729,-1.95742 -1.38751,-2.34652z" fill="#85857b"/></g><path d="M322.77255,200.61162l1.06308,-5.07967l6.98467,1.46173l0.20686,5.34549z" fill="#7c6e75" stroke-width="0"/><path d="M317.98218,172.61309l-2.4225,-8.81439l1.35007,0.28257l4.22444,9.65291z" fill="#d495b6" stroke-width="0"/><path d="M281.36839,157.15626l13.57163,-0.31634l20.809,7.02399l2.26048,8.74065z" fill="#df9cbe" stroke-width="0"/><path d="M321.90143,205.56579l0.33222,-1.58741l10.63561,2.22584l0.62025,1.78675z" fill="#7c6e75" stroke-width="0"/><path d="M284.67945,185.35852c0,0 -17.99458,-2.54155 -23.61033,-3.20576c-8.5035,-1.00588 -25.68812,-2.22662 -25.68812,-2.22662c0,0 15.61475,-1.26901 29.14632,0.01394c14.67162,1.39104 58.08564,8.9877 58.08564,8.9877l-1.10802,5.29439z" fill="#75686e" stroke-width="0"/><path d="M276.11122,192.52583l-3.05752,-1.22306c0,0 10.05168,-0.33247 15.1218,1.50795c5.07008,1.84036 13.1034,8.7375 13.1034,8.7375z" fill="#7c6e76" stroke-width="0"/><path d="M231.46575,179.06496c0,0 -28.51728,-21.69805 -28.4435,-26.40286c0.06708,-4.27367 28.70848,8.40689 29.02209,8.36197c5.48769,-0.78643 77.32429,6.87628 77.32429,6.87628l24.65375,12.09598l51.76013,10.24849l4.3725,14.78462c0,0 -60.49317,-11.4658 -83.78891,-16.17451c-8.08659,-1.63454 -24.42924,-5.71646 -39.64226,-7.73524c-11.73481,-1.55719 -29.93029,-0.95504 -29.93029,-0.95504z" fill="#ee96c3" stroke-width="0"/><path d="M102.50301,164.89081l7.38476,-19.04512c0,0 1.34559,-6.92535 8.90657,-7.68874c9.3909,-0.94807 25.55592,4.25866 27.58267,4.68277c1.55526,0.32552 -14.76763,7.55179 -14.76763,7.55179l-4.12836,19.72661z" fill="#c4b4b3" stroke-width="0"/><g stroke-width="0"><path d="M381.43907,204.61742l0.30531,-15.40703l89.4042,25.62152l-1.9302,5.52878l-47.41781,-4.96119z" fill="#ad6d8e"/><path d="M410.16245,195.98171l8.81312,-6.60751l26.64308,3.40071l-6.34447,9.29938z" fill="#8d788b"/><path d="M384.98811,191.92773l3.32568,-15.89105l30.72972,13.356l-5.88867,5.78549z" fill="#857183"/><path d="M427.18761,197.36634l18.36947,-4.60305l26.47842,9.3958l-1.69217,6.68919z" fill="#947e92"/><path d="M381.03209,190.47806l5.44726,-11.90249l2.04372,-2.70244l-3.08568,14.74442z" fill="#756474"/><path d="M383.34969,201.73319l1.76701,-11.96445l42.73313,7.2586l-4.48921,15.46539z" fill="#746373"/><path d="M423.35621,212.47605c0,0 1.66394,-6.09587 2.44111,-8.83901c0.66535,-2.34864 1.93859,-6.62075 1.93859,-6.62075l43.07657,9.94384l0.23693,8.63162z" fill="#867284"/><path d="M381.08612,190.41745l4.25576,-0.67346l-1.96438,12.00285z" fill="#6f5e6d"/><path d="M464.99527,200.57573l-18.70894,-7.35191l25.41563,9.03414l-1.08221,3.39578c0,0 0.01453,-1.60023 -1.02379,-2.53767c-0.69457,-0.62708 -4.60076,-2.54037 -4.60076,-2.54037z" fill="#978195"/><path d="M425.68211,196.3875c0,0 8.51538,-1.75823 11.51203,-2.51454c2.18292,-0.55088 4.81318,-1.60551 4.81318,-1.60551l2.45705,0.62923l-16.18983,4.03333z" fill="#9c859a"/><path d="M411.44065,194.23283c0,0 1.85226,-2.42425 3.45053,-3.46938c1.59823,-1.04505 4.02455,-1.37017 4.02455,-1.37017l-5.0657,5.34371z" fill="#806b7d"/><path d="M447.45828,191.3776l3.26251,-5.17483l14.11294,6.76778l4.1703,7.41141z" fill="#55494f"/><path d="M444.40508,193.59937c0,0 1.22136,-0.5517 1.88964,-1.00927c0.50338,-0.34463 1.46039,-1.55895 1.46039,-1.55895l21.02121,8.48594c0,0 0.74765,0.66421 1.25473,1.10302c0.52998,0.45862 1.85927,1.59196 1.85927,1.59196z" fill="#685960"/><path d="M448.19036,190.61926l2.56263,-4.14838l13.16493,6.15409c0,0 -7.52296,-3.14032 -11.96118,-3.80896c-2.57444,-0.38789 -3.7663,1.80328 -3.7663,1.80328z" fill="#41383c"/></g><path d="M112.15382,126.77936l1.06692,-5.09787c0,0 22.12817,3.30784 43.609,7.86153c12.80063,2.71358 25.75548,7.05705 32.60167,8.13215c15.43673,2.42402 26.60785,0.15199 26.60785,0.15199l-8.38634,9.11862z" fill="#ffa1d1" stroke-width="0"/><path d="M106.77144,139.9129l5.40893,-15.29904c0,0 53.21225,13.24139 70.77127,16.46587c10.40121,1.91006 24.87457,1.09843 24.87457,1.09843l-2.99941,14.33188c0,0 -66.06968,-13.82702 -81.99701,-17.16029c-6.54872,-1.37051 -21.56539,26.8773 -21.56539,26.8773z" fill="#ee96c3" stroke-width="0"/><path d="M266.51191,251.4926l11.8683,-11.40664c0,0 12.95652,-13.48926 23.5633,-18.2809c2.69538,-1.21765 8.0004,-1.32985 8.0004,-1.32985c0,0 -8.17013,3.38326 -11.28176,5.58397c-7.34822,5.19713 -32.15013,25.43343 -32.15013,25.43343z" fill="#70646b" stroke-width="0"/><path d="M373.76658,207.69346l-2.47954,-18.91072l1.3215,0.27655c0,0 0.75093,5.72716 1.14768,8.75336c0.05655,0.43116 1.14243,1.90599 1.21249,2.44005c0.12139,0.92581 -0.76279,0.98959 -0.62713,2.02434c0.37781,2.88137 0.74644,5.69285 0.74644,5.69285z" fill="#795467" stroke-width="0"/><path d="M205.35731,157.0623c0,0 -8.91757,-8.56056 -7.47936,-12.11628c0.86114,-2.12901 18.97546,-6.46241 18.97546,-6.46241l66.70682,15.66869l-2.23616,2.69522l27.94634,11.21069l-75.71728,11.30485c0,0 0.37536,-5.65681 4.48676,-7.71653c3.99575,-2.00174 19.84469,-4.47263 19.84469,-4.47263c0,0 -33.48177,-7.05708 -40.60037,-8.6354c-2.37494,-0.52655 -11.92698,-1.47621 -11.92698,-1.47621z" fill="#f399c8" stroke-width="0"/><g><path d="M214.70052,139.99889l0.66337,-3.16968l172.80983,36.1656l-0.66337,3.16968z" fill="#584f54" stroke-width="0"/><path d="M382.44943,172.05041l0.56049,-2.67828l2.99048,0.62582l2.07811,3.23052z" fill="#685d63" stroke-width="0"/><g fill="#685d63" stroke-width="0"><g><g><g><path d="M375.8796,170.93001l0.60982,-2.91387l3.79882,0.79498l-0.60982,2.91387z"/><path d="M369.7156,169.64008l0.60982,-2.91387l3.79883,0.79499l-0.60982,2.91387z"/></g><g><path d="M363.78419,168.39873l0.60981,-2.91388l3.79883,0.79499l-0.60982,2.91387z"/><path d="M357.62017,167.10874l0.60982,-2.91387l3.79882,0.79499l-0.60981,2.91388z"/></g></g><g><g><path d="M351.57251,165.84312l0.60981,-2.91388l3.79882,0.79499l-0.60982,2.91387z"/><path d="M345.40847,164.55311l0.60982,-2.91387l3.79882,0.79498l-0.60981,2.91388z"/></g><g><path d="M339.47706,163.31174l0.60982,-2.91387l3.79882,0.79499l-0.60982,2.91387z"/><path d="M333.31316,162.02178l0.60982,-2.91387l3.7988,0.795l-0.60981,2.91388z"/></g></g></g><g><g><g><path d="M333.08056,161.97308l0.60982,-2.91387l3.79882,0.79499l-0.60982,2.91387z"/><path d="M326.91659,160.68311l0.60982,-2.91387l3.79883,0.79499l-0.60982,2.91387z"/></g><g><path d="M320.9852,159.44178l0.60981,-2.91388l3.79882,0.79499l-0.60982,2.91387z"/><path d="M314.82114,158.15176l0.60982,-2.91387l3.7988,0.795l-0.60981,2.91388z"/></g></g><g><g><path d="M308.77351,156.88614l0.60981,-2.91388l3.79883,0.79499l-0.60982,2.91387z"/><path d="M302.60953,155.59611l0.60982,-2.91387l3.79883,0.79499l-0.60981,2.91388z"/></g><g><path d="M296.67814,154.35484l0.60982,-2.91387l3.79882,0.79498l-0.60981,2.91388z"/><path d="M290.51413,153.06481l0.60982,-2.91387l3.79883,0.79499l-0.60982,2.91387z"/></g></g></g></g><g><g fill="#685d63" stroke-width="0"><g><g><path d="M284.42689,151.79085l0.60981,-2.91388l3.79883,0.79499l-0.60982,2.91387z"/><path d="M278.26293,150.50085l0.60982,-2.91387l3.79883,0.79499l-0.60981,2.91388z"/></g><g><path d="M272.3315,149.25961l0.60982,-2.91387l3.79883,0.79499l-0.60981,2.91388z"/><path d="M266.16757,147.96958l0.60982,-2.91387l3.79882,0.79498l-0.60981,2.91388z"/></g></g><g><g><path d="M260.11986,146.70388l0.60981,-2.91388l3.79883,0.79499l-0.60982,2.91387z"/><path d="M253.95583,145.41386l0.60982,-2.91387l3.79883,0.79499l-0.60981,2.91388z"/></g><g><path d="M248.02441,144.17263l0.60982,-2.91387l3.79883,0.79499l-0.60981,2.91388z"/><path d="M241.86041,142.88262l0.60982,-2.91387l3.79882,0.79498l-0.60982,2.91387z"/></g></g></g><g><g fill="#685d63" stroke-width="0"><g><path d="M241.62787,142.83392l0.60981,-2.91388l3.79883,0.79499l-0.60982,2.91387z"/><path d="M235.46386,141.5439l0.60982,-2.91387l3.79882,0.79498l-0.60981,2.91388z"/></g><g><path d="M229.53249,140.30258l0.60982,-2.91387l3.79882,0.79498l-0.60981,2.91388z"/><path d="M223.36848,139.01259l0.60982,-2.91387l3.79882,0.79498l-0.60982,2.91387z"/></g></g><g fill="none" stroke-width="1" font-family="sans-serif" font-weight="normal" font-size="12" text-anchor="start"><g/><g/></g></g></g><path d="M215.38305,137.08684l3.19916,-2.12608l2.99048,0.62582l-0.56049,2.67828z" data-paper-data="{&quot;index&quot;:null}" fill="#685d63" stroke-width="0"/></g><path d="M264.35076,180.93366l-2.55306,-0.25841c0,0 2.16925,-2.16918 11.79195,-1.30747c7.29544,0.6533 27.69132,3.58187 39.89335,5.3736c5.66633,0.83204 62.81396,3.59491 62.81396,3.59491l5.09149,1.05095c0,0 -62.5875,-2.22293 -68.24492,-3.07684c-12.51011,-1.88821 -33.55229,-5.02791 -39.68905,-5.72115c-3.34056,-0.37737 -9.10374,0.34453 -9.10374,0.34453z" fill="#70475c" stroke-width="0"/><path d="M359.22373,220.22851l-5.19748,0.79805l3.87863,-18.52982c0,0 7.61634,1.64341 15.06494,3.25058c21.38279,4.6138 124.14983,26.78803 124.14983,26.78803l-1.378,6.58461z" fill="#5a5959" stroke-width="0"/><path d="M357.99447,221.63497l1.68354,-2.71884l136.09791,20.09918l-13.87193,8.55137z" fill="#4b4a4a" stroke-width="0"/><path d="M478.72666,246.70854c0,0 -5.12045,-4.36623 -7.79607,-6.38523c-1.43391,-1.082 -7.00982,-4.78705 -7.00982,-4.78705c0,0 7.23698,4.48118 10.31648,6.09416c1.09902,0.57572 2.04669,1.53286 3.21485,2.3169c0.3767,0.25278 2.72663,-2.07434 4.93651,-3.36338c0.66051,-0.3853 1.72146,0.20917 2.30348,-0.00697c1.33421,-0.49555 1.9092,-1.49032 1.9092,-1.49032c0,0 0.13991,0.97901 -1.30185,1.91732c-0.39334,0.25605 -2.23022,0.23158 -2.62261,0.51762c-1.57251,1.14647 -2.88062,2.50646 -3.30032,3.02259c-1.17138,1.44044 0.78255,2.464 0.78255,2.464z" fill="#414040" stroke-width="0"/><path d="M205.24847,157.34335l6.00779,-10.08195l6.98543,0.82408c0,0 -1.47297,2.39733 -2.34103,3.81021c-0.21867,0.35584 11.72609,0.85712 11.93317,1.586c0.38423,1.35238 -5.83984,3.89111 -6.38582,4.77969c-0.62419,1.01584 -9.22515,-0.37976 -9.22515,-0.37976z" fill="#303030" stroke-width="0"/><path d="M205.18377,156.95174l5.73445,-9.28591c0,0 2.66936,1.89153 2.46758,2.85556c-0.3671,1.75419 -3.09811,7.09513 -3.09811,7.09513z" fill="#252525" stroke-width="0"/><path d="M353.4645,223.62224l0.60477,-2.88976l6.01146,-1.75831l-1.81664,2.63616c0,0 -1.34077,1.08358 -2.18491,1.43743c-0.74278,0.31138 -2.61467,0.57443 -2.61467,0.57443z" fill="#383838" stroke-width="0"/><g><g fill="#4b4b4b" stroke-width="0"><g data-paper-data="{&quot;origPos&quot;:null}"><g data-paper-data="{&quot;origPos&quot;:null}"><path d="M418.90121,238.71748l0.46553,-2.22455l3.67049,0.76816l-0.46553,2.22455z" data-paper-data="{&quot;origPos&quot;:null}"/><path d="M412.80701,237.326l0.46553,-2.22455l3.67048,0.76816l-0.46554,2.22455z" data-paper-data="{&quot;origPos&quot;:null}"/></g><g data-paper-data="{&quot;origPos&quot;:null}"><path d="M431.11285,241.38927l0.46553,-2.22455l3.67049,0.76816l-0.46554,2.22455z" data-paper-data="{&quot;origPos&quot;:null}"/><path d="M425.01863,239.99776l0.46554,-2.22455l3.67048,0.76816l-0.46553,2.22455z" data-paper-data="{&quot;origPos&quot;:null}"/></g></g><g data-paper-data="{&quot;origPos&quot;:null,&quot;index&quot;:null}"><g data-paper-data="{&quot;origPos&quot;:null}"><path d="M449.95673,245.10072l0.46553,-2.22455l3.67049,0.76816l-0.46554,2.22455z" data-paper-data="{&quot;origPos&quot;:null}"/><path d="M456.09746,246.26971l0.46552,-2.22454l3.67049,0.76816l-0.46552,2.22453z" data-paper-data="{&quot;origPos&quot;:null}"/></g><g data-paper-data="{&quot;origPos&quot;:null}"><path d="M437.69855,242.65141l0.46553,-2.22455l3.67048,0.76816l-0.46552,2.22454z" data-paper-data="{&quot;origPos&quot;:null}"/><path d="M443.83929,243.82047l0.46554,-2.22455l3.67049,0.76816l-0.46554,2.22455z" data-paper-data="{&quot;origPos&quot;:null}"/></g></g></g><path d="M378.77428,221.89596l2.78814,-13.32254l82.68277,17.30379l-2.78814,13.32254z" data-paper-data="{&quot;origPos&quot;:null}" fill="#444444" stroke-width="0"/><path d="M377.90341,226.53825l0.97968,-4.68102l82.43973,17.25292l-0.9797,4.68103z" data-paper-data="{&quot;origPos&quot;:null}" fill="#414141" stroke-width="0"/><path d="M377.64575,227.93942l0.33138,-1.58336l82.42926,17.25073l-0.33137,1.58335z" data-paper-data="{&quot;origPos&quot;:null}" fill="#3f3f3f" stroke-width="0"/><g stroke-width="0"><g data-paper-data="{&quot;origPos&quot;:null}" fill="#5a5a5a"><g data-paper-data="{&quot;origPos&quot;:null}"><path d="M421.11214,230.83755l2.81657,-13.45841l3.49565,0.73158l-2.81657,13.45841z" data-paper-data="{&quot;origPos&quot;:null}"/></g><g data-paper-data="{&quot;origPos&quot;:null}"><path d="M427.05483,232.08124l2.81657,-13.45841l3.49567,0.73159l-2.81657,13.45841z" data-paper-data="{&quot;origPos&quot;:null}"/><path d="M433.17229,233.36149l2.81658,-13.45843l3.49565,0.73158l-2.81657,13.45841z" data-paper-data="{&quot;origPos&quot;:null}"/></g></g><g data-paper-data="{&quot;origPos&quot;:null}" fill="#5a5a5a"><g data-paper-data="{&quot;origPos&quot;:null}"><path d="M439.63934,234.71493l2.81657,-13.45841l3.49565,0.73158l-2.81657,13.45842z" data-paper-data="{&quot;origPos&quot;:null}"/><path d="M445.75681,235.99519l2.81657,-13.45841l3.49567,0.73159l-2.81658,13.45843z" data-paper-data="{&quot;origPos&quot;:null}"/></g><g data-paper-data="{&quot;origPos&quot;:null}"><path d="M451.69947,237.23883l2.81658,-13.45843l3.49565,0.73158l-2.81658,13.45843z" data-paper-data="{&quot;origPos&quot;:null}"/><path d="M457.81696,238.51911l2.81658,-13.45843l3.49565,0.73158l-2.81657,13.45841z" data-paper-data="{&quot;origPos&quot;:null}"/></g></g><path d="M424.66788,231.58171l-1.25572,1.71002l-5.13905,-1.03148l1.87034,-9.61731l3.72766,-5.27599l-2.74909,13.47256z" fill="#3a3a3a"/><path d="M430.60815,232.82487l-1.25572,1.71003l-5.13906,-1.03148l1.87035,-9.61732l3.72766,-5.27597l-2.74908,13.47256z" fill="#3a3a3a"/><path d="M436.68342,234.09633l-1.25572,1.71003l-5.13906,-1.03147l1.87034,-9.61731l3.72766,-5.27597l-2.74909,13.47256z" fill="#3a3a3a"/><path d="M443.23125,235.46664l-1.25572,1.71003l-5.13906,-1.03147l1.87034,-9.61731l3.72766,-5.27597l-2.74909,13.47256z" fill="#3a3a3a"/><path d="M449.37407,236.75222l-1.25572,1.71003l-5.13906,-1.03147l1.87034,-9.61731l3.72766,-5.27597l-2.74908,13.47256z" fill="#3a3a3a"/><path d="M455.24681,237.98122l-1.25572,1.71002l-5.13905,-1.03148l1.87034,-9.61731l3.72766,-5.27597l-2.74909,13.47256z" fill="#3a3a3a"/><path d="M461.39734,239.26839l-1.25572,1.71002l-5.13906,-1.03147l1.87035,-9.61732l3.72766,-5.27599l-2.74909,13.47256z" fill="#3a3a3a"/></g><g stroke-width="0"><g data-paper-data="{&quot;origPos&quot;:null}" fill="#5a5a5a"><g data-paper-data="{&quot;origPos&quot;:null}"><path d="M378.79974,221.98242l2.81658,-13.45843l3.49567,0.73159l-2.81657,13.45841z" data-paper-data="{&quot;origPos&quot;:null}"/></g><g data-paper-data="{&quot;origPos&quot;:null}"><path d="M384.74238,223.22617l2.81657,-13.45841l3.49565,0.73158l-2.81657,13.45841z" data-paper-data="{&quot;origPos&quot;:null}"/><path d="M390.85988,224.5064l2.81657,-13.45841l3.49567,0.73159l-2.81658,13.45843z" data-paper-data="{&quot;origPos&quot;:null}"/></g></g><g data-paper-data="{&quot;origPos&quot;:null}" fill="#5a5a5a"><g data-paper-data="{&quot;origPos&quot;:null}"><path d="M397.32691,225.85976l2.81658,-13.45843l3.49566,0.73159l-2.81657,13.45841z" data-paper-data="{&quot;origPos&quot;:null}"/><path d="M403.44445,227.14005l2.81657,-13.45841l3.49567,0.73159l-2.81658,13.45843z" data-paper-data="{&quot;origPos&quot;:null}"/></g><g data-paper-data="{&quot;origPos&quot;:null}"><path d="M409.38716,228.38374l2.81657,-13.45841l3.49567,0.73159l-2.81658,13.45843z" data-paper-data="{&quot;origPos&quot;:null}"/><path d="M415.50463,229.66405l2.81658,-13.45843l3.49567,0.73159l-2.81657,13.45842z" data-paper-data="{&quot;origPos&quot;:null}"/></g></g><path d="M382.35541,222.72659l-1.25572,1.71003l-2.68072,-0.51702l0.39056,-1.93517z" fill="#3a3a3a"/><path d="M388.29577,223.96978l-1.25572,1.71003l-5.13906,-1.03147l1.87035,-9.61732l3.72766,-5.27597l-2.74909,13.47256z" fill="#3a3a3a"/><path d="M394.371,225.24116l-1.25572,1.71002l-5.13906,-1.03147l1.87034,-9.61731l3.72766,-5.27599l-2.74909,13.47256z" fill="#3a3a3a"/><path d="M400.91879,226.61144l-1.25572,1.71002l-5.13906,-1.03147l1.87035,-9.61732l3.72766,-5.27597l-2.74909,13.47256z" fill="#3a3a3a"/><path d="M407.06167,227.89707l-1.25572,1.71002l-5.13905,-1.03148l1.87034,-9.61731l3.72766,-5.27597l-2.74909,13.47256z" fill="#3a3a3a"/><path d="M412.93439,229.12612l-1.25572,1.71002l-5.13905,-1.03148l1.87034,-9.61731l3.72766,-5.27599l-2.74909,13.47256z" fill="#3a3a3a"/><path d="M419.08496,230.41336l-1.25572,1.71003l-5.13905,-1.03148l1.87034,-9.61731l3.72766,-5.27597l-2.74909,13.47256z" fill="#3a3a3a"/></g><g><g data-paper-data="{&quot;origPos&quot;:null}"><g data-paper-data="{&quot;origPos&quot;:null}" fill="none" stroke-width="1" font-family="sans-serif" font-weight="normal" font-size="12" text-anchor="start"/><g data-paper-data="{&quot;origPos&quot;:null}" fill="#4b4b4b" stroke-width="0"><path d="M383.39477,231.48144l0.46553,-2.22455l3.67048,0.76816l-0.46552,2.22454z" data-paper-data="{&quot;origPos&quot;:null}"/><path d="M377.30054,230.09l0.46553,-2.22455l3.67048,0.76816l-0.46553,2.22455z" data-paper-data="{&quot;origPos&quot;:null}"/></g></g><g data-paper-data="{&quot;origPos&quot;:null,&quot;index&quot;:null}" fill="#4b4b4b" stroke-width="0"><g data-paper-data="{&quot;origPos&quot;:null}"><path d="M402.23869,235.19284l0.46554,-2.22455l3.67049,0.76816l-0.46554,2.22455z" data-paper-data="{&quot;origPos&quot;:null}"/><path d="M408.37939,236.36188l0.46552,-2.22453l3.67049,0.76816l-0.46554,2.22455z" data-paper-data="{&quot;origPos&quot;:null}"/></g><g data-paper-data="{&quot;origPos&quot;:null}"><path d="M389.98033,232.74355l0.46553,-2.22455l3.67049,0.76816l-0.46554,2.22455z" data-paper-data="{&quot;origPos&quot;:null}"/><path d="M396.12113,233.91255l0.46553,-2.22455l3.67049,0.76816l-0.46553,2.22455z" data-paper-data="{&quot;origPos&quot;:null}"/></g></g></g></g><path d="M217.98616,158.3806l1.88104,-3.91277c0,0 5.15799,-2.13625 8.645,-1.5597c3.98633,0.65906 33.31463,6.82236 33.31463,6.82236c0,0 0.26374,1.97155 -0.03735,3.15212c-0.38799,1.52103 -3.08695,4.08717 -3.08695,4.08717z" fill="#242424" stroke-width="0"/><path d="M243.12473,159.749l0.64531,-3.08351l17.62008,3.68749l-0.64531,3.08351z" fill="#313131" stroke-width="0"/><path d="M239.50532,160.96401l0.13359,-0.63845c0,0 1.26049,-0.81011 2.26195,-0.60055c0.95089,0.19903 2.99518,1.11204 5.36163,1.7742c4.50801,1.26139 9.99629,2.51382 9.99629,2.51382l-0.13359,0.63845c0,0 -5.31275,-1.11389 -9.75716,-2.36148c-2.42502,-0.68073 -4.5286,-1.70223 -5.51501,-1.90866c-1.03685,-0.21699 -2.34762,0.5826 -2.34762,0.5826z" fill="#616161" stroke-width="0"/><path d="M269.28135,151.14424l11.80411,5.56254l29.10899,11.51502c0,0 0.67169,0.36965 -7.106,-2.00213c-2.64584,-0.80681 -12.72899,-4.56093 -21.36647,-8.31259c-2.33716,-1.01516 -14.68371,-7.11442 -14.68371,-7.11442z" fill="#df8cb7" stroke-width="0"/><path d="M90.73601,120.25191l1.21534,-5.80729c0,0 6.00684,-0.5338 9.72999,0.24538c3.04801,0.63786 10.63243,5.80709 10.63243,5.80709l-2.64552,11.98294z" fill="#626061" stroke-width="0"/><path d="M202.28907,153.79977l3.20248,3.23053l12.2585,1.21359l49.6689,10.39472l-0.22343,1.06788c0,0 -37.22923,-7.93971 -48.93402,-10.12137c-3.21353,-0.59897 -12.85489,-1.88027 -12.85489,-1.88027z" fill="#ffa6d4" stroke-width="0"/><path d="M74.81912,182.23616l1.46863,-7.01754l26.33745,-11.47865l-4.37315,13.04984l-15.65267,7.07466z" fill="#3f3d3e" stroke-width="0"/><path d="M74.26013,176.94933c0,0 4.20914,-19.19671 6.96078,-28.4118c3.10565,-10.40063 10.74005,-30.86689 10.74005,-30.86689c0,0 8.47069,1.57931 11.63963,3.92396c2.71222,2.00672 6.21807,9.28864 6.21807,9.28864l-6.87276,32.84009c0,0 -14.41131,10.9789 -17.85442,12.56639c-5.29604,2.44183 -10.83133,0.65962 -10.83133,0.65962z" fill="#555354" stroke-width="0"/><path d="M89.6424,128.01348c0,0 -0.27989,-6.18132 2.29493,-8.39811c2.57482,-2.21682 7.04047,-2.32118 9.54647,-1.79672c1.99914,0.41839 6.12006,1.36121 8.01915,6.3138c1.89919,4.95254 -1.34603,11.08796 -1.34603,11.08796c0,0 -4.03509,-11.47352 -6.45011,-12.41361c-3.40785,-1.3265 -12.06441,5.20673 -12.06441,5.20673z" fill="#6f6b6c" stroke-width="0"/><path d="M71.83994,181.42026c0,0 7.01692,-25.15867 9.36105,-36.35984c2.44125,-11.66508 6.4755,-31.98808 6.4755,-31.98808c0,0 1.26337,-0.39251 2.28214,-0.17925c0.93151,0.19494 2.33348,1.14524 2.33348,1.14524c0,0 -4.13363,18.70514 -6.32428,29.17319c-2.54528,12.16198 -10.77082,38.91124 -10.77082,38.91124z" fill="#333232" stroke-width="0"/><path d="M71.32743,181.76627l4.08385,-14.1722c0,0 0.85074,1.08616 1.44534,1.17113c0.75083,0.10731 2.68677,-0.95626 2.68677,-0.95626l-4.33102,14.7704z" fill="#2e2d2d" stroke-width="0"/><path d="M103.97082,151.55245c-1.67248,7.99147 -7.48476,15.63084 -12.35715,17.602c-4.04664,1.63715 -12.77057,6.71565 -11.09809,-1.27582c0.35479,-1.69534 4.78893,-12.90409 6.35466,-19.75856c2.07061,-9.06488 1.4801,-14.27728 2.99762,-16.85268c2.74402,-4.65668 8.45321,-4.97342 10.62079,-4.51976c4.27271,0.8942 5.15468,16.81338 3.48219,24.80487z" fill="#585758" stroke-width="0"/><path d="M134.81699,172.39603l-0.22343,-1.82523c0,0 8.04801,0.30448 14.03755,1.06331c8.43193,1.06828 31.78192,4.74182 31.78192,4.74182l1.49544,1.62193c0,0 -24.9101,-3.55769 -33.59635,-4.59098c-2.55102,-0.30347 -13.4951,-1.01086 -13.4951,-1.01086z" fill="#585657" stroke-width="0"/><path d="M126.34759,184.11007l7.88425,-12.33796l7.28345,0.553c0,0 -2.58479,3.86599 -2.65505,4.62283c-0.33556,3.61628 -2.31166,27.68896 -2.31166,27.68896c0,0 -1.53634,0.12842 -2.31635,-1.951c-1.3995,-3.7311 -1.79046,-10.82357 -3.07469,-13.24053c-1.10955,-2.08826 -4.81008,-5.33528 -4.81008,-5.33528z" fill="#5a5759" stroke-width="0"/><path d="M144.92127,156.52577l5.1492,-10.50117l2.3066,0.36918l-6.28226,10.49119z" fill="#a5a0a2" stroke-width="0"/><path d="M151.78893,156.85606l0.28735,-1.37296l25.93439,5.42751l-0.28734,1.37296z" fill="#494748" stroke-width="0"/><path d="M152.31869,153.93125l0.28735,-1.37296l25.93439,5.42751l-0.28735,1.37296z" fill="#494748" stroke-width="0"/><path d="M128.7073,171.88302l4.12516,-19.71129l13.95747,-6.9036l4.80571,0.68726l-24.70064,38.5717l-5.08187,-3.11032z" fill="#dbd5d8" stroke-width="0"/><path d="M100.33004,178.11681l2.26071,-11.57317l26.25103,4.68721c0,0 -0.19657,2.55158 -0.48755,3.3065c-0.72531,1.88181 -4.11122,8.26131 -4.11122,8.26131z" fill="#ccc6c9" stroke-width="0"/><path d="M106.37276,167.74426l0.06469,-0.30911l22.51105,3.82384l-2.79277,0.62548c0,0 -4.26812,-0.70302 -6.9129,-1.28894c-3.6214,-0.80231 -12.87013,-2.85125 -12.87013,-2.85125z" fill="#d8d1d5" stroke-width="0"/><path d="M110.57916,164.80679l3.48232,-16.63947l15.78308,3.30308l-3.48232,16.63947z" fill="#a39999" stroke-width="0"/><path d="M100.02461,178.22633l2.32688,-11.11848c0,0 7.34126,8.06142 11.05755,11.23041c3.71632,3.16909 10.13704,4.22672 10.13704,4.22672z" fill="#b4afb1" stroke-width="0"/><path d="M131.71664,191.03241c0,0 2.75207,1.63898 3.85438,1.72286c0.67716,0.05149 2.13048,-1.26772 2.13048,-1.26772l-0.23524,9.22053l-0.85932,4.10618c0,0 -1.96562,-0.09318 -2.68858,-2.88305c-0.59646,-2.30181 -2.20183,-10.89879 -2.20183,-10.89879z" fill="#504e4f" stroke-width="0"/><path d="M126.53164,184.71697l22.70571,-37.89604l1.66462,0.55795l-22.68938,38.31868z" fill="#858183" stroke-width="0"/><path d="M118.40092,141.37639l1.82069,-1.30526c0,0 26.96618,4.9856 39.11331,7.52777c10.54289,2.20644 31.19526,6.88916 31.19526,6.88916l0.1206,2.00868c0,0 -20.70109,-5.05362 -31.81394,-7.37924c-12.68949,-2.65561 -40.43591,-7.74113 -40.43591,-7.74113z" fill="#918b8e" stroke-width="0"/><path d="M119.64973,140.38037l2.37863,-1.48565c0,0 25.41169,4.95751 37.55881,7.49963c10.5429,2.20646 31.19526,6.88916 31.19526,6.88916l0.1206,2.00869c0,0 -20.70108,-5.05361 -31.81393,-7.37925c-12.68949,-2.65561 -39.43935,-7.53264 -39.43935,-7.53264z" fill="#a59fa2" stroke-width="0"/><path d="M178.6305,173.96018l-0.72065,-5.95656c0,0 0.45401,-1.1361 0.80296,-1.17835c0.3075,-0.03725 1.18247,0.93809 1.18247,0.93809l0.72064,5.95657c0,0 -0.45006,0.8024 -0.75828,0.83975c-0.34866,0.04217 -1.22724,-0.5995 -1.22724,-0.5995z" fill="#494242" stroke-width="0"/><path d="M138.66738,168.30275l5.41077,-8.55883l3.80329,0.79597l-5.41077,8.55883z" fill="#9c989a" stroke-width="0"/><path d="M151.67305,152.86334l2.00975,-0.56832l23.91691,5.02375l1.78067,1.34314z" fill="#757274" stroke-width="0"/><path d="M151.18953,155.63428l2.00973,-0.56834l23.91691,5.02377l1.78068,1.34313z" fill="#757274" stroke-width="0"/><path d="M97.8566,176.76833l13.58385,-56.57484l1.76063,0.96174l-13.13213,57.07924z" fill="#686666" stroke-width="0"/><path d="M97.64134,176.99943l3.97057,-15.77696l1.46032,4.20679l-3.15353,12.93845z" fill="#535252" stroke-width="0"/><path d="M132.42096,160.90787c0,0 2.55944,-1.86059 2.75341,-2.78733c0.19032,-0.9094 -1.60042,-2.72202 -1.60042,-2.72202c0,0 2.80122,1.27043 2.35336,2.9016c-0.34113,1.24245 -1.8178,3.16985 -2.12913,4.23093c-0.88528,3.01707 -3.06432,10.0676 -3.06432,10.0676z" fill="#c4bec1" stroke-width="0"/><path d="M140.32575,160.60911l3.9595,-9.58767l3.38673,-3.73981l-4.55667,8.81165z" fill="#aca7a9" stroke-width="0"/></g></g><g stroke-width="0"><path d="M261.582,157.55212l3.18273,-2.73526c0,0 2.06331,-1.03561 2.81447,-0.59747c0.85643,0.49957 2.04971,3.43476 2.04971,3.43476l-1.36664,3.88438c0,0 -4.1889,-0.8844 -5.40102,-1.27422c-0.54643,-0.17577 -1.27924,-2.71224 -1.27924,-2.71224z" fill="#c0c0c0"/><path d="M217.59624,158.20705c0,0 0.41724,-2.85505 1.68717,-3.75282c1.59155,-1.1251 7.99566,-2.04497 7.99566,-2.04497l-1.66585,4.49106l-0.5984,2.8593z" fill="#838383"/><path d="M217.44292,158.09899l9.46535,-5.66247l36.76583,7.69432l-1.5325,7.32263z" fill="#999999"/><path d="M218.55522,157.66108l7.2256,-4.45549l33.05613,6.91797l-1.19644,5.71726c0,0 -4.00092,-0.83725 -9.14764,-1.91435c-3.34617,-0.70032 -6.95918,-2.54143 -10.48934,-3.28024c-3.78702,-0.79254 -7.44597,-0.47329 -9.57308,-0.91843c-4.16295,-0.87122 -9.87527,-2.06673 -9.87527,-2.06673z" fill="#d952b3"/><path d="M221.97385,158.3743l9.40062,-4.06377l12.19982,2.55315c0,0 -7.61038,0.35598 -10.11749,0.76567c-2.66167,0.43486 -6.23806,1.84263 -6.23806,1.84263z" fill="#a5899d"/><path d="M229.81667,159.90047c0,0 5.17646,0.09016 7.58143,0.59346c3.073,0.64309 9.34864,2.9497 9.34864,2.9497l-9.38068,-2.30563z" fill="#adadad"/><path d="M217.54905,158.10257l8.5475,-5.1091l34.22523,7.16264l-0.14103,0.674c0,0 -29.63482,-6.20195 -33.49768,-7.01042c-0.80797,-0.16907 -9.13388,4.28288 -9.13388,4.28288z" fill="#8a8a8a"/><path d="M262.4388,173.86802l1.99836,-9.54843l2.11221,-6.91589c0,0 1.06577,0.70314 1.49247,1.36814c0.42674,0.665 0.57099,1.8475 0.57099,1.8475l-4.2037,13.66112z" fill="#9e9e9e"/><path d="M257.96943,168.61024c0,0 -0.45716,-2.26662 -0.26545,-3.85006c0.25816,-2.13227 2.22591,-7.35817 2.22591,-7.35817l1.96691,0.07921c0,0 0.58058,0.93043 1.07888,0.88235c0.68697,-0.06632 2.66198,-1.24341 2.66198,-1.24341l-3.11751,12.44255z" fill="#9c9c9c"/><path d="M258.15621,170.51966c-0.53954,-1.24125 -0.02296,-2.53604 -0.02296,-2.53604l6.24919,-6.04854c0,0 0.56855,4.08688 0.38081,4.98389c-0.53373,2.5503 -0.52151,7.40542 -0.52151,7.40542c0,0 -2.93404,-0.52849 -3.86104,-1.1706c-1.1118,-0.77017 -1.68484,-1.39289 -2.22444,-2.63421z" fill="#888888"/><path d="M260.05776,170.12664c-0.55768,-2.15974 -0.63252,-6.73518 2.00535,-10.33803c2.63791,-3.60288 4.56448,-1.0223 4.56448,-1.0223c0,0 0.07915,4.53539 -0.39463,6.79922c-0.43156,2.06219 -2.33321,6.23527 -2.33321,6.23527c0,0 -3.2843,0.48561 -3.84195,-1.67413z" fill="#b4b4b4"/><path d="M265.7076,163.44702c-0.28903,1.38115 -5.30647,0.41016 -5.01749,-0.97095c0.28903,-1.38115 4.38954,-6.04223 5.18467,-5.8758c0.30798,0.06446 0.91731,0.29601 0.89237,1.3745c-0.03951,1.70612 -0.88255,4.62604 -1.05964,5.47226z" fill="#bbbbbb"/></g><g stroke-width="0"><path d="M202.19787,153.76517c0,0 -4.72506,-6.01271 -4.34136,-7.84644c0.31335,-1.49722 6.24676,-0.38126 6.24676,-0.38126l7.37052,1.6159l-6.14678,9.72609z" fill="#f399c8"/><path d="M171.98275,149.11903c0,0 -0.51978,-2.25205 -0.04824,-3.24936c0.52036,-1.10056 3.27544,-4.20699 3.27544,-4.20699l22.58766,4.53751l7.16628,10.30973z" fill="#ee96c3"/></g></g><g stroke-width="0"><g><path d="M269.48683,149.37197l1.26624,-6.05067l46.80422,9.79515l-1.26624,6.05067z" fill="#61585b"/><path d="M269.99147,146.1638l0.67813,-3.24017l46.98214,9.83239l-0.67811,3.24018c0,0 -8.45767,-1.77003 -17.14579,-3.58827c-2.7164,-0.56847 -6.84622,0.11732 -9.35623,-0.40802c-2.98474,-0.62466 -5.875,-2.77961 -7.78954,-3.18032c-5.74092,-1.20147 -12.69058,-2.65592 -12.69058,-2.65592z" fill="#494344"/><path d="M331.86074,152.36348l-5.25717,-20.44336l20.47566,4.28514l11.66529,19.57903c0,0 -5.86794,0.16282 -9.08434,-0.24641c-4.9632,-0.63156 -17.79946,-3.17438 -17.79946,-3.17438z" fill="#5e555b"/><path d="M331.15922,155.72618l1.13453,-5.42106c0,0 12.33532,1.09691 17.28348,1.33595c3.92692,0.18969 6.79235,0.19474 6.79235,0.19474l4.39209,8.00824c0,0 -5.54626,0.46998 -9.69714,0.05483c-5.62419,-0.56252 -19.90521,-4.1727 -19.90521,-4.1727z" fill="url(#color-5)"/><path d="M324.91213,131.7284l0.81856,-3.91142l18.7454,3.92304l2.74072,4.65632z" fill="url(#color-6)"/><path d="M330.58265,155.63099l0.25799,-1.23255c0,0 15.29435,3.12273 20.60096,4.06211c3.96799,0.70243 8.61779,0.06449 8.61779,0.06449l0.63557,1.30257l-8.46997,0.33258z" fill="#312c30"/><g><path d="M233.87666,124.56212l1.59292,-8.71691l91.93362,19.23982l5.16754,12.6077z" fill="#8a6672"/><path d="M248.36796,136.06003c0,0 -2.70626,-4.25031 -5.1521,-6.25538c-2.44582,-2.00512 -9.40595,-3.21917 -9.40595,-3.21917l0.53731,-2.01984c0,0 12.00537,2.79485 18.86609,4.32796c16.38945,3.66233 79.0454,17.55106 79.0454,17.55106l2.20115,7.1699z" fill="#755761"/><path d="M250.64578,139.08158l-2.43037,-3.15656l85.82934,17.46235l0.54878,3.26269z" fill="#694e57"/><path d="M235.22717,116.19919l0.92772,-4.43296l89.0198,17.93595l2.60839,6.32974c0,0 2.01298,3.83165 -3.15601,2.72403c-1.62722,-0.34868 -9.86466,-5.51407 -11.49598,-5.86363c-15.71031,-3.36635 -77.90392,-16.69318 -77.90392,-16.69318z" fill="#916b77"/><path d="M236.3916,111.81589l0.40079,-2.4953l88.0307,18.28131l0.53298,2.55564z" fill="#9e7582"/><path d="M308.80548,127.66938c-7.76405,-2.2868 -70.84519,-16.54311 -70.84519,-16.54311l85.99109,17.99614l3.17472,8.2668c0,0 -10.5566,-7.43304 -18.32065,-9.71988z" fill="#b38f9a"/></g><path d="M280.86357,145.40266l1.8792,-8.97925l19.78362,4.14031l-1.87921,8.97926z" fill="#3a3336"/><path d="M282.65595,136.40948l1.01315,-1.34349l18.14533,3.79742l0.65239,1.69197z" fill="#4b4246"/><path d="M281.10305,144.94261l1.67513,-8.00421c0,0 -0.042,5.37114 2.33293,6.9984c2.37499,1.62727 15.22269,5.03036 15.22269,5.03036z" fill="#332c30"/><path d="M325.68577,134.1623l-2.60779,-6.67574c0,0 1.1378,-0.443 1.72566,-0.31996c0.6572,0.13756 2.03285,1.10652 2.03285,1.10652l2.60779,6.67574z" fill="#757575"/><path d="M327.67229,139.41518l-3.75066,-9.58379l3.75857,0.7866l3.75065,9.58379z" fill="#5a5a5a"/><path d="M330.50617,146.59696l-3.75065,-9.58379l3.75857,0.78661l3.75066,9.58379z" fill="#505050"/><path d="M333.43386,154.03408c-0.64059,-1.63689 -3.14012,-8.0238 -3.14012,-8.0238l3.75857,0.78662l4.35834,11.46234c0,0 -2.12188,0.10302 -3.04819,-0.10596c-0.72257,-0.16302 -1.64606,-3.39746 -1.9285,-4.11923z" fill="#3b3b3b"/><path d="M231.83501,126.78925l3.82541,-18.27874l3.11355,0.65165l-3.82541,18.27874z" fill="#443e42"/><path d="M213.03163,124.48772l0.54308,-5.94279l19.79963,4.14366l-1.2143,5.8023z" fill="url(#color-7)"/><path d="M213.44557,119.16218l2.22191,-10.61699l19.79963,4.14366l-2.22192,10.617z" fill="#5e555b"/><path d="M215.6416,108.66883l1.63561,-3.91008l19.01657,3.97974l-0.85261,4.07391z" fill="url(#color-8)"/><path d="M285.26371,119.18844l1.25635,-6.00323l14.48521,4.12119l3.55919,5.55804z" fill="#5e555b"/><path d="M304.49154,123.21244l-3.50458,-5.81906c0,0 2.81074,1.2938 4.78727,2.72736c1.97649,1.43356 5.06858,4.42087 5.06858,4.42087z" fill="#776b73"/><path d="M282.06878,119.70037l3.38709,-0.56255l25.11182,4.98295l3.25759,2.22561z" fill="#6d6269"/></g><g><path d="M283.09267,141.81308c0.25581,-1.22238 0.99223,-2.25001 1.58354,-3.17813c0.8239,-1.29337 1.65696,-2.33256 3.09659,-2.89571c0.87935,-0.34405 2.07231,-0.49218 3.0895,-0.52492c0.6728,-0.02162 1.73271,-0.20858 2.42083,-0.06452c1.55991,0.32643 1.87818,0.47659 2.90194,1.19762c0.61671,0.43436 2.1294,1.20973 2.51532,1.97722c0.32666,0.64955 0.59803,1.67546 0.79331,2.41062c0.33362,1.25645 0.73712,3.24581 0.45268,4.605c-0.12019,0.57438 -0.87591,1.78368 -1.03013,2.27806c-0.48951,1.56951 -0.59464,2.0681 -2.00846,2.89958c-0.85931,0.50537 -2.44679,0.73289 -3.49371,0.9326c-1.08421,0.20692 -2.51039,0.79326 -3.65817,0.55304c-0.77474,-0.16216 -2.06296,-0.9783 -2.78554,-1.26868c-1.5678,-0.63 -2.40519,-0.98343 -3.1793,-2.31036c-0.66382,-1.13785 -0.59155,-2.75566 -0.66995,-4.1591c-0.04117,-0.73729 -0.18693,-1.69516 -0.02852,-2.45238z" fill="#3a3a3a"/><path d="M283.8325,141.84667c0.23415,-1.11861 0.90804,-2.05895 1.4491,-2.90825c0.75394,-1.18351 1.51621,-2.13445 2.83365,-2.64989c0.80468,-0.31484 1.89644,-0.45043 2.82721,-0.48031c0.61568,-0.01977 1.58563,-0.1908 2.21524,-0.05906c1.42753,0.29873 1.71879,0.43612 2.65559,1.09587c0.5643,0.39745 1.94856,1.10705 2.30181,1.8093c0.29891,0.59442 0.54731,1.53324 0.72593,2.20596c0.30531,1.14978 0.67453,2.97023 0.41427,4.21397c-0.11005,0.52564 -0.80156,1.63226 -0.94263,2.08461c-0.448,1.43619 -0.54415,1.89252 -1.83788,2.65339c-0.78629,0.46249 -2.23904,0.67056 -3.19705,0.85342c-0.99213,0.18936 -2.29725,0.72588 -3.3476,0.5061c-0.70895,-0.14835 -1.88777,-0.89523 -2.54908,-1.16092c-1.43468,-0.57652 -2.20098,-0.89996 -2.90941,-2.11417c-0.60746,-1.04123 -0.54128,-2.52171 -0.61306,-3.80595c-0.03767,-0.67472 -0.17106,-1.55119 -0.02604,-2.24412z" fill="#5a5a5a"/><path d="M296.69371,139.9108c-1.51288,-2.75404 -6.45728,-3.99375 -6.45728,-3.99375c0,0 2.01169,-0.13072 3.95827,0.28374c1.57677,0.33573 3.04115,1.01454 3.9096,2.52545c0.86915,1.51218 0.95053,3.04609 0.94546,4.47071c-0.01002,2.79316 -0.92875,5.04555 -0.92875,5.04555c0,0 0.08557,-5.5776 -1.42733,-8.33165z" fill="#6d6d6d"/><path d="M290.45174,143.73206c0.11793,-0.56357 0.67027,-0.92472 1.23381,-0.80676c0.56357,0.11793 0.92472,0.67027 0.80676,1.23382c-0.11793,0.56357 -0.67027,0.92472 -1.23382,0.80676c-0.56357,-0.11793 -0.92472,-0.67027 -0.80676,-1.23382z" fill="#272727"/><path d="M290.34632,143.84978c0.10817,-0.51685 0.61482,-0.84813 1.13166,-0.73999c0.51685,0.10817 0.84813,0.61482 0.73999,1.13166c-0.10817,0.51685 -0.61482,0.84813 -1.13165,0.74001c-0.51685,-0.10817 -0.84813,-0.61482 -0.74001,-1.13165z" fill="#131313"/></g></g></g></g></g><path d="M180.85366,233.20387c0.32458,-1.55107 4.888,-44.14545 5.716,-45.68366c1.11795,-2.07683 9.14259,0.98248 12.35271,0.11384c9.83165,-2.66037 20.37619,-5.14013 20.37619,-5.14013c0,0 13.65112,3.4499 17.79777,4.31777c3.10098,0.64902 64.85868,4.89937 63.47009,15.15389c-1.88347,13.90904 -42.08778,-6.47713 -44.57271,5.39625c-0.62909,3.00581 1.68953,3.69073 0.49114,6.65539c-0.28764,0.71151 -3.65035,5.29886 -4.21323,6.89338c-0.89362,2.53119 1.51182,7.12384 -2.36298,9.47926c-3.08875,1.87768 -2.2255,7.18388 -3.09966,8.24289c-6.02446,7.29762 -13.39741,1.86779 -22.21914,0.02157c-10.4595,-2.18896 -26.44251,-1.72986 -35.3737,-4.86308c-3.8552,-1.3525 -9.30735,3.92748 -8.36245,-0.58745z" fill="#86c8f5" stroke-width="0"/></g></g></svg>