<svg version="1.1" xmlns="http://www.w3.org/2000/svg" xmlns:xlink="http://www.w3.org/1999/xlink" width="468.25086" height="158.5117" viewBox="0,0,468.25086,158.5117"><defs><linearGradient x1="464.88743" y1="181.95128" x2="464.88743" y2="186.76288" gradientUnits="userSpaceOnUse" id="color-1"><stop offset="0" stop-color="#1f1d20"/><stop offset="1" stop-color="#202022"/></linearGradient><linearGradient x1="465.327" y1="177.09622" x2="465.327" y2="182.63243" gradientUnits="userSpaceOnUse" id="color-2"><stop offset="0" stop-color="#302d31"/><stop offset="1" stop-color="#1f1e20"/></linearGradient><linearGradient x1="130.54253" y1="225.16636" x2="130.54253" y2="228.5564" gradientUnits="userSpaceOnUse" id="color-3"><stop offset="0" stop-color="#585758"/><stop offset="1" stop-color="#575758"/></linearGradient><linearGradient x1="117.42931" y1="235.24486" x2="117.42931" y2="237.90623" gradientUnits="userSpaceOnUse" id="color-4"><stop offset="0" stop-color="#363536"/><stop offset="1" stop-color="#353536"/></linearGradient><linearGradient x1="260.79578" y1="142.44324" x2="260.79578" y2="147.98174" gradientUnits="userSpaceOnUse" id="color-5"><stop offset="0" stop-color="#5e555b"/><stop offset="1" stop-color="#2b2629"/></linearGradient><linearGradient x1="251.0382" y1="121.77629" x2="251.0382" y2="125.77247" gradientUnits="userSpaceOnUse" id="color-6"><stop offset="0" stop-color="#72676e"/><stop offset="1" stop-color="#5e555b"/></linearGradient><linearGradient x1="138.08148" y1="135.67514" x2="138.08148" y2="141.60316" gradientUnits="userSpaceOnUse" id="color-7"><stop offset="0" stop-color="#5e555b"/><stop offset="1" stop-color="#4d454a"/></linearGradient><linearGradient x1="138.08148" y1="121.42284" x2="138.08148" y2="125.58506" gradientUnits="userSpaceOnUse" id="color-8"><stop offset="0" stop-color="#74686f"/><stop offset="1" stop-color="#5e555b"/></linearGradient></defs><g transform="translate(-1.68663,-115.48675)"><g data-paper-data="{&quot;isPaintingLayer&quot;:true}" fill-rule="nonzero" stroke="none" stroke-linecap="butt" stroke-linejoin="miter" stroke-miterlimit="10" stroke-dasharray="" stroke-dashoffset="0" style="mix-blend-mode: normal"><path d="M379.4514,208.40638c0,8.67352 -5.0994,13.85808 -25.2598,13.85808c-7.47794,0 -20.35557,-1.57313 -26.21979,-0.86825c-4.35831,0.52387 -8.06622,2.73793 -10.81939,0.85242c-3.52953,-2.41719 -3.40756,-22.26829 -3.40756,-25.33357c0,-8.67352 9.04251,-4.21348 29.2029,-4.21348c20.1604,0 36.50363,7.03128 36.50363,15.7048z" fill="#86c8f5" stroke-width="0"/><g><g stroke-width="0"><path d="M191.93022,210.17485l-10.23018,-15.34527l25.57545,-0.5902c0,0 -1.09847,5.82882 -1.29836,8.52734c-0.19336,2.61038 0.11796,7.40813 0.11796,7.40813z" fill="#7f7d7e"/><path d="M192.02861,210.37158l-3.63958,-5.60692c0,0 2.35858,3.55508 5.59469,4.16976c2.33033,0.44263 4.21647,0.1327 6.89793,0.4535c2.68145,0.3208 5.11509,0.98367 5.11509,0.98367z" fill="#6c6a6b"/></g><g><g><g><path d="M461.89633,186.76288l-2.05898,-4.81159c0,0 5.99149,1.65786 8.58887,2.55072c2.59738,0.89287 1.0589,2.02899 1.0589,2.02899z" fill="url(#color-1)" stroke-width="0"/><path d="M468.91156,177.29584c0,0 1.47965,2.3278 -1.11773,3.22066c-2.59738,0.89287 -5.50041,2.11594 -5.50041,2.11594l-0.97066,-5.53623z" data-paper-data="{&quot;index&quot;:null}" fill="url(#color-2)" stroke-width="0"/><path d="M452.27845,186.75831v-2.09836h14.77256c0,0 1.25757,0.79431 1.7454,1.16057c0.43851,0.32924 -0.7352,0.93779 -0.7352,0.93779z" fill="#444444" stroke-width="NaN"/><path d="M452.31215,184.80336l-1.19067,-1.75388h12.61567l3.39402,1.64207c0,0 -4.21787,0.23801 -6.52267,0.2554c-2.59935,0.01961 -8.29634,-0.14359 -8.29634,-0.14359z" fill="#535353" stroke-width="0"/><path d="M451.00935,183.18619l-0.32473,-0.64h11.4738l1.6855,0.52571z" fill="#363636" stroke-width="0"/><path d="M452.27845,186.75831v-1.13836c0,0 6.45361,0.45361 9.33339,0.45361c2.44038,0 6.84633,-0.45361 6.84633,-0.45361c0,0 0.86413,0.46223 1.11145,0.66512c0.20862,0.17114 -0.24868,0.47324 -0.24868,0.47324c0,0 -4.73274,0.40449 -7.04649,0.40449c-3.12155,0 -9.99599,-0.40449 -9.99599,-0.40449z" fill="#3a3a3a" stroke-width="NaN"/><path d="M451.00553,182.56446l-0.55351,-0.88372h13.64162l-1.8216,0.91762z" fill="#242424" stroke-width="0"/><path d="M449.64396,181.86996v-1.65431c0,0 8.09334,-0.20619 11.08908,-0.20619c2.04103,0 5.14742,0.20619 5.14742,0.20619l-1.81365,1.48936z" fill="#3a3a3a" stroke-width="0"/><path d="M449.51442,180.2582v-2.04255c0,0 7.65327,-0.3299 10.96755,-0.3299c2.86798,0 7.77353,0.3299 7.77353,0.3299l-2.41821,2.04255c0,0 -3.65492,-0.08247 -5.89933,-0.08247c-2.98338,0 -10.42354,0.08247 -10.42354,0.08247z" fill="#444444" stroke-width="0"/><path d="M449.47123,178.30075v-0.85107c0,0 7.87383,-0.12371 11.47104,-0.12371c2.50482,0 8.0473,0.12371 8.0473,0.12371l-0.86503,0.85107c0,0 -5.05399,-0.28866 -8.0192,-0.28866c-3.26691,0 -10.63411,0.28866 -10.63411,0.28866z" fill="#535353" stroke-width="0"/><path d="M449.34169,177.53481v-0.34043c0,0 7.67634,-0.50704 11.13667,-0.50704c2.99178,0 8.42487,0.50704 8.42487,0.50704l0.03758,0.34043c0,0 -6.00888,-0.16495 -9.25393,-0.16495c-3.28744,0 -10.34519,0.16495 -10.34519,0.16495z" fill="#4e4e4e" stroke-width="0"/></g><g stroke-width="0"><g><g><g><path d="M446.4247,186.27029l-4.58182,-13.16364l0.55301,-1.72135c0,0 3.47481,3.22922 4.39718,5.71959c0.50075,1.35202 1.08617,9.16539 1.08617,9.16539z" fill="#383638"/><path d="M447.47585,185.57887c0,0 0.05836,-0.6097 -0.57027,-3.06458c-0.68554,-2.67716 -2.07798,-6.31421 -2.47113,-7.38818c-0.88249,-2.41071 -1.6374,-2.54118 -1.6374,-2.54118l4.8,-0.58182l4.9697,13.57576z" fill="#555355"/><path d="M442.86107,172.67028l-0.58182,-1.23636c0,0 2.02019,-0.8 2.98182,-0.8c0.90109,0 2.03636,0.72727 2.03636,0.72727l0.58182,1.30909z" fill="#686668"/></g><path d="M440.75197,186.27028l-4.58182,-13.16363l0.2222,-1.70119c0,0 3.80563,3.20905 4.728,5.69943c0.50074,1.35201 1.08617,9.16539 1.08617,9.16539z" fill="#383638"/><path d="M441.80312,185.57887c0,0 0.05836,-0.60971 -0.57026,-3.06458c-0.68554,-2.67716 -2.07798,-6.31421 -2.47113,-7.38818c-0.88249,-2.41071 -1.6374,-2.54118 -1.6374,-2.54118l4.05,-1.08182c0,0 1.02611,1.25425 1.29509,1.98903c0.76635,2.09345 4.42461,12.08673 4.42461,12.08673z" fill="#555355"/><path d="M437.18835,172.67028l-0.8,-1.23636c0,0 2.23836,-0.8 3.2,-0.8c0.90109,0 1.74545,0.72727 1.74545,0.72727l0.70682,1.30909z" fill="#686668"/><path d="M448.29418,184.58511c0,-0.81952 0.66435,-1.48387 1.48387,-1.48387c0.81952,0 1.48387,0.66435 1.48387,1.48387c0,0.81952 -0.66435,1.48387 -1.48387,1.48387c-0.81952,0 -1.48387,-0.66435 -1.48387,-1.48387z" fill="#312f31"/><path d="M448.94981,181.65585l-1.99937,-5.54651l1.59134,-0.14335l1.99937,5.61103z" fill="#444144"/></g><path d="M401.41946,181.30381l-3.7647,-10.82353l29.88236,1.17647l-0.47059,9.64706z" fill="#444444"/><path d="M414.06034,177.38833c0,0 0.63596,-0.52195 1.35827,-1.62683c0.66042,-1.01023 1.39303,-2.58811 1.7777,-3.05187c0.97526,-1.70648 3.35383,-1.23966 3.35383,-1.23966l-0.97959,0.65306l-4.36734,5.2653z" fill="#292929"/><path d="M416.85967,187.91778l-6.51429,-10.97143c0,0 3.49874,0.53131 5.20237,-0.51779c1.32386,-0.81524 1.2297,-3.44722 2.80707,-3.72812c4.52556,-0.80592 17.40008,-1.23981 17.40008,-1.23981c0,0 3.24017,7.14497 4.1674,10.03202c0.64013,1.99313 1.05165,6.42512 1.05165,6.42512z" fill="#4a464a"/><path d="M420.99682,174.80921c-4.56081,-0.63607 -3.12,-2 -3.12,-2c0,0 0.79273,-1.30224 2.66005,-1.44838c4.58238,-0.35865 13.22544,0.21826 14.94767,0.19261c0.81222,-0.0121 0.34656,0.69577 0.34656,0.69577c0,0 -1.48935,2.38596 -3.04,2.64c-1.55065,0.25404 -7.23348,0.55607 -11.79429,-0.08z" fill="#5e595e"/></g><g><path d="M405.05573,194.49306l-5.16129,-17.93548l18.90779,0.28631l4.79944,4.32834l6.09922,-0.09853l2.96774,13.41935z" fill="#4d4846"/><path d="M409.74627,194.88018l20.65621,-9.39153l22.32168,-0.24242c0,0 1.31202,4.18284 1.45496,5.53746c0.07287,0.69062 -0.15496,2.94408 -0.15496,2.94408z" fill="#423d3b"/><path d="M405.93249,186.56916l-3.17949,-9.84615h0.82051l3.17949,9.84615z" fill="#363332"/><path d="M410.33184,194.07858v-1.21739c0,0 5.26447,-2.54545 14.32936,-2.54545c1.20441,0 5.45272,2.54545 6.66667,2.54545c7.7021,0 15.241,0 18.10909,0c2.33575,0 4.72097,-1.3 4.72097,-1.3v2.51739z" fill="#312e2c"/><path d="M412.70171,181.33837l-1.74359,-4.61538h8.30769l4.155,4.42132l6.30654,0.19406l-7.58974,1.94872z" fill="#585350"/><path d="M403.21454,188.36403v-1.12821c0,0 8.04584,-3.74359 10.92308,-3.74359c4.33636,0 16.30769,0 16.30769,0v1.12821c0,0 -12.17655,0 -16.51282,0c-2.81811,0 -10.71795,3.74359 -10.71795,3.74359z" fill="#2b2827"/></g></g></g><g><g><g><path d="M68.58222,231.01795c0.5408,2.23399 0.23139,4.82352 -0.85963,5.08763c-1.09102,0.26411 -2.55049,-1.89721 -3.09129,-4.1312c-0.5408,-2.23399 -2.67503,-10.80439 -1.58401,-11.0685c1.09102,-0.26411 4.99414,7.87809 5.53493,10.11208z" fill="#615e5f" stroke-width="0"/><g><path d="M110.1747,201.089c-0.53933,-0.52761 -2.88,-1.84 -2.88,-1.84l9.92,-2.88l-6,7.2c0,0 -0.50067,-1.95239 -1.04,-2.48z" fill="#756a6a" stroke-width="0"/><path d="M101.14813,199.39182v-13.73333l18.53334,-5.86667v19.6z" fill="#8a7c7c" stroke-width="0"/><path d="M61.11231,204.83886l6.66667,-18.13333l34.93333,-0.13333l4.53333,12.66667c0,0 -22.9899,1.57604 -30.68566,2.51021c-3.19458,0.38778 -15.44767,3.08979 -15.44767,3.08979z" fill="#7c787a" stroke-width="0"/><path d="M67.89732,189.11037l-0.14814,-1.48148c0,0 25.92423,0 34.07407,0c4.55986,0 16.14815,-6.37037 16.14815,-6.37037v1.62963c0,0 -11.29409,6.35106 -15.70408,6.33641c-8.08625,-0.02686 -34.36999,-0.11419 -34.36999,-0.11419z" fill="#535353" stroke-width="0"/><path d="M29.0328,205.54672v-20.15399c0,0 4.53114,-7.05414 11.77534,-9.35011c8.99756,-2.85167 25.88635,-1.06656 27.95699,-1.06656c1.58899,0 -12.90761,10.41666 -12.90761,10.41666v20.15399z" fill="#8d898b" stroke-width="0"/><path d="M201.98019,159.40391l1.60262,-3.14426l107.56516,0.14285v14.74623c0,0 -37.7806,1.84552 -50.00144,1.42942c-6.06919,-0.20665 -59.16634,-13.17425 -59.16634,-13.17425z" fill="#c98cac" stroke-width="0"/><path d="M180.31613,260.40403l-4.54365,-12.93641c0,0 5.13806,5.83947 7.98571,6.91632c1.8143,0.68608 6.04048,1.06786 12.15124,-1.36955c4.91939,-1.96221 10.0881,-7.473 10.0881,-7.473l-11.67767,14.86264z" fill="#a08e97" stroke-width="0"/><path d="M270.80584,213.48796l-2.33795,-23.62141l18.54738,-1.40275v21.19701c0,0 -6.39739,1.71912 -9.16249,2.41738c-1.27319,0.32152 -7.04693,1.40976 -7.04693,1.40976z" fill="#96858d" stroke-width="0"/><path d="M178.47848,264.14986v-5.54017c0,0 12.06324,2.06852 16.68278,-1.05279c3.12555,-2.11186 34.47668,-41.74586 34.47668,-41.74586c0,0 3.35934,-3.77321 3.36337,-6.65541c0.00203,-1.44987 0.47197,-5.62858 -0.35957,-7.93994c-0.83897,-2.33202 -2.97951,-2.79033 -2.97951,-2.79033l-4.87216,-13.57228l19.81603,0.14369l-2.90937,26.57332l3.75821,2.56187c0,0 -9.55502,6.00014 -14.18394,10.9558c-7.24256,7.7538 -30.63184,38.13872 -30.63184,38.13872z" fill="#918189" stroke-width="0"/><path d="M247.62567,213.84069l1.21359,-28.60389l13.77565,0.27576l10.36368,12.00215l-2.24125,16.32599z" fill="#96858d" stroke-width="0"/><path d="M243.10109,215.68989l-2.50927,-4.14576l3.53895,-26.18988l5.07986,-0.08472l-0.67561,28.58669z" fill="#8f8187" stroke-width="0"/><path d="M269.503,213.9443c0,0 2.75174,-6.66707 1.39903,-12.07788c-0.77888,-3.11551 -5.68981,-5.08524 -6.16729,-6.99516c-0.91211,-3.64846 -2.32316,-9.29265 -2.32316,-9.29265l7.85512,4.36395c0,0 3.40614,7.21377 4.0039,11.47528c0.40161,2.86309 -1.08208,9.23909 -2.00871,11.83797c-0.07812,0.21909 -1.25427,0.13583 -1.3059,0.30114c-0.12613,0.40385 0.83809,0.6352 0.83809,0.6352z" fill="#86787e" stroke-width="0"/><path d="M270.05208,191.44248c0,0 -3.09082,-3.95495 -7.77332,-4.92656c-5.30113,-1.09996 -22.4085,-1.33607 -22.4085,-1.33607l157.73738,-14.18181l3.41549,9.30177l7.91785,11.14267c0,0 -100.7919,-2.57143 -121.38025,-2.57143c-6.71826,0 -17.50865,2.57143 -17.50865,2.57143z" fill="#df8db7" stroke-width="0"/><path d="M115.83439,238.72283l-4.79805,-36.26984c0,0 1.68323,-3.75066 2.18442,-3.96634c5.52556,-2.37784 37.56222,-13.02965 43.00147,-12.74338c5.95839,0.3136 -9.15989,12.24218 -9.15989,12.24218c0,0 -14.40981,2.02592 -16.94753,6.27583c-3.44545,5.7701 1.40193,23.12364 1.40193,23.12364z" fill="#c77da3" stroke-width="0"/><path d="M188.25472,208.79393l-1.78947,-2.10527c0,0 6.559,-8.60656 8.99256,-10.89929c2.51242,-2.36703 5.85294,-3.08712 5.85294,-3.08712l5.93548,2.3022c0,0 -4.47606,-0.50258 -6.83981,1.21371c-2.02918,1.47336 -5.78128,4.55204 -8.58149,7.64437c-2.03695,2.24945 -3.57021,4.9314 -3.57021,4.9314z" fill="#414041" stroke-width="0"/><path d="M67.57796,188.06405l4.8,-11.68953h48.62843c0,0 -2.89859,4.45551 -6.01818,6.42164c-3.06179,1.9297 -12.5292,5.26788 -12.5292,5.26788z" fill="#979395" stroke-width="0"/><path d="M68.37793,186.92118l4,-11.68953h48.62843c0,0 -2.89859,4.45551 -6.01818,6.42164c-3.06179,1.9297 -12.5292,5.26788 -12.5292,5.26788z" fill="#bdb7ba" stroke-width="0"/><path d="M271.91119,214.26502l-1.87292,-0.51349l16.84887,-4.1748c0,0 -3.56036,2.05738 -6.04431,2.85431c-2.48395,0.79693 -8.93164,1.83398 -8.93164,1.83398z" fill="#887980" stroke-width="0"/><path d="M118.3201,239.1873c0,0 -2.34021,-10.46546 -3.54133,-19.00392c-1.20697,-8.58013 -2.31348,-16.62685 -2.33555,-20.21153c-0.00374,-0.60732 1.64436,-10.53798 2.14414,-11.05939c2.69765,-2.81442 10.43945,4.92916 16.00356,3.82561c8.2386,-1.63399 27.34709,-2.1481 27.34709,-2.1481l-8.45371,5.31068c0,0 -19.44962,2.86514 -21.84125,8.00237c-3.23492,6.94863 4.33586,27.82139 4.33586,27.82139z" fill="#d486ae" stroke-width="0"/><path d="M119.45163,235.66846c0,0 -6.66113,-40.87157 -5.33423,-50.94857c0.62084,-4.71491 -2.73396,-13.82277 -2.73396,-13.82277l50.66723,6.96864l1.42392,16.06998c0,0 -32.04228,-3.09319 -38.3927,3.18075c-4.23913,4.18807 2.56997,32.43114 2.56997,32.43114z" fill="#e490bb" stroke-width="0"/><g stroke-width="0"><path d="M257.87559,172.67469v-8.27487h9.36v8.27487z" fill="#454545"/><path d="M258.70795,171.9099l-0.35673,-7.2981h11.32619v7.2981z" fill="#b0b0b0"/><path d="M258.4774,167.42086l-0.22857,-2.83032h11.54286v1.90739c0,0 -7.79285,0.32244 -9.49224,0.46107c-0.56783,0.04632 -1.82205,0.46186 -1.82205,0.46186z" fill="#bebebe"/><path d="M269.93082,171.36035c0,0 -5.54069,-2.55534 -4.9697,-6.30304c0.84848,-5.56901 4.9697,-5.09091 4.9697,-5.09091l40.24242,1.33333v10.06061z" fill="#9c989a"/><path d="M271.71808,170.07113c0,0 -2.48677,-3.51894 -2.73092,-4.44576c-0.3619,-1.37384 1.63288,-4.33115 1.63288,-4.33115l41.59575,0.03333l-0.4,7.48868z" fill="#898587"/><path d="M271.62775,170.26941l-1.01961,-1.93939h38.23173v1.93939z" fill="#c1bcbf"/><path d="M271.50658,166.87545c0,0 -1.33333,-1.36798 -1.33333,-2.30532c0,-0.8768 1.33333,-3.14922 1.33333,-3.14922h38.66667v5.45455z" fill="#0d0d0d"/><path d="M271.50658,167.65276c0,0 -1.33333,-1.97175 -1.33333,-2.90909c0,-0.8768 1.33333,-2.54545 1.33333,-2.54545h38.66667v5.45455z" fill="#2e2e2e"/><path d="M266.68057,169.55604c-2.63884,-3.06695 -1.47368,-5.4035 -1.47368,-5.4035c0,0 1.83224,4.11234 3.06775,5.00994c1.46277,1.0627 5.0726,2.42866 5.0726,2.42866l-3.50877,0.07018c0,0 -2.69348,-1.56551 -3.15789,-2.10527z" fill="#7d7a7c"/><path d="M274.10661,167.96245c0,0 -0.88889,-2.21201 -0.88889,-3.35556c0,-1.00524 0.88889,-3.14444 0.88889,-3.14444h4.82333c0,0 -0.46112,2.20397 -0.46112,3.07222c0,1.1933 0.46112,3.42778 0.46112,3.42778z" fill="#555555"/><path d="M282.72328,167.96245c0,0 0.66666,-2.52312 0.66666,-3.66667c0,-1.00523 -0.66666,-2.83333 -0.66666,-2.83333h5.38333c0,0 -0.41667,1.71508 -0.41667,2.58333c0,1.1933 0.41667,3.91667 0.41667,3.91667z" fill="#555555"/><path d="M292.04994,167.96245c0,0 0.66667,-2.52312 0.66667,-3.66667c0,-1.00524 -0.66667,-2.83333 -0.66667,-2.83333h5.30333c0,0 -0.41667,1.71508 -0.41667,2.58333c0,1.1933 0.41667,3.91667 0.41667,3.91667z" fill="#555555"/><path d="M301.71326,167.96245c0,0 0.84445,-2.16756 0.84445,-3.31111c0,-1.00523 -0.84445,-3.18889 -0.84445,-3.18889h5.14334c0,0 0.82777,1.98174 0.82777,2.85c0,1.1933 -0.82777,3.65 -0.82777,3.65z" fill="#555555"/><path d="M273.8404,162.16642l-0.66512,-0.8h35.56259l-1.53425,0.8c0,0 -2.83008,0 -5.29229,0c-0.53669,0 -1.55229,-0.32877 -2.35616,-0.32877c-0.77728,0 -1.3352,0.32877 -2.30137,0.32877c-1.50667,0 -3.20661,0 -4.9863,0c-0.73785,0 -1.37982,-0.38356 -2.13699,-0.38356c-0.67326,0 -1.46054,0.38356 -2.13699,0.38356c-1.67887,0 -3.34118,0 -4.90411,0c-0.7177,0 -1.41443,-0.43836 -2.08219,-0.43836c-0.81517,0 -1.58716,0.43836 -2.30137,0.43836c-2.91345,0 -4.86545,0 -4.86545,0z" fill="#474747"/></g><g><path d="M126.62437,229.23956l3.71708,-2.86746c0,0 2.82492,2.8149 5.65895,3.70986c2.50658,0.79155 10.48379,1.38785 10.48379,1.38785l-2.65506,4.3543z" fill="#6d6a6b" stroke-width="0"/><path d="M118.5654,235.73975l9.23148,-7.38518c0,0 3.23473,2.25655 5.4035,2.91845c3.28102,1.00135 12.3671,2.50504 12.3671,2.50504l-4.27775,4.30733z" fill="#615e5f" stroke-width="0"/><path d="M120.56419,257.70716l-1.48328,-22.57305c0,0 4.35423,0.79193 9.17552,0.82155c3.76322,0.02312 7.81098,-0.824 10.29476,-0.21565c4.3604,1.06798 37.88648,13.42368 37.88648,13.42368l2.47848,10.1748z" fill="#575455" stroke-width="0"/><path d="M142.15568,230.66524c6.93331,-5.56521 15.00276,-19.01728 16.26111,-21.58867c0.90654,-1.85249 1.59403,-7.12853 1.59403,-7.12853l7.7037,6.81481c0,0 5.84984,20.49675 7.03043,33.14349c0.33034,3.53869 2.84784,7.48387 1.66156,8.95032c-1.06286,1.31389 -18.02415,3.6038 -23.41841,2.83904c-11.35196,-1.60939 -17.14403,1.18012 -20.88875,-4.09521c-3.74472,-5.27533 3.35605,-11.54561 3.35605,-11.54561c0,0 4.89531,-5.94084 6.70029,-7.38966z" fill="#504e4f" stroke-width="0"/><path d="M146.96132,197.83999c0,0 0.39583,-1.49277 1.25284,-2.15629c1.10217,-0.85333 4.81168,-2.53905 4.81168,-2.53905c0,0 9.36694,2.06736 12.37722,4.55735c2.77739,2.29735 -3.50332,12.57853 -3.50332,12.57853l-2.00652,-5.36136z" fill="#464445" stroke-width="0"/><path d="M170.1958,245.06747c0,0 -9.28425,6.25578 -17.76865,6.4272c-8.18494,0.16537 -15.58282,-5.72644 -15.4758,-7.14868c0.05798,-0.77056 7.98595,-4.07589 11.46247,-8.2973c3.8645,-4.69253 3.37608,-10.39407 4.72692,-12.40452c3.77122,-5.6127 12.21619,-15.79121 11.15516,-21.83486c-1.11273,-6.3381 -11.83027,-8.41196 -11.83027,-8.41196c0,0 3.85119,-2.25169 8.83688,-2.38158c2.12371,-0.05533 6.6713,1.33052 7.59459,1.71548c3.02769,1.26237 5.01842,2.89862 5.01842,2.89862c0,0 3.65857,-4.87931 7.26069,-5.18877c3.60212,-0.30946 22.42792,2.63816 22.42792,2.63816l-16.21053,12.59399z" fill="#555354" stroke-width="0"/><path d="M152.74445,224.23915c0,0 4.6208,-10.8728 9.35117,-16.30769c4.73037,-5.4349 8.8088,-8.61538 12.34114,-8.61538c2.55793,0 5.84615,8.61538 5.84615,8.61538l-11.07692,28.76923c0,0 -14.62116,3.27912 -16.09842,0.79845c-1.16674,-1.95924 -0.36312,-13.25999 -0.36312,-13.25999z" fill="#585758" stroke-width="0"/><path d="M175.29984,251.53887c0,0 -2.87815,-6.19106 -2.55189,-9.21327c0.45578,-4.222 1.89966,-16.87595 1.89966,-16.87595l1.95669,10.43569c0,0 -0.64048,9.7475 -0.50778,12.77739c0.12803,2.92333 1.55135,5.09373 1.55135,5.09373z" fill="#3f3e3f" stroke-width="0"/><path d="M174.37121,233.67361c-0.19543,-1.67481 0.07143,-9.38572 0.07143,-9.38572c0,0 9.55817,-14.56797 11.65559,-17.22106c0.61489,-0.77778 3.97051,-2.50871 3.97051,-2.50871l-1.64628,4.8539c0,0 -1.57384,0.60399 -1.75365,1.08183c-0.19157,0.50909 0.63726,1.88491 0.63726,1.88491l-5.12886,8.48011c0,0 -1.6506,1.01057 -1.82978,1.51595c-0.17923,0.50551 0.50841,1.39364 0.50841,1.39364c0,0 -3.85435,8.94126 -4.69682,11.35602c-0.38953,1.1165 -0.15446,2.54912 -0.15446,2.54912c0,0 -1.43791,-2.32519 -1.63333,-4z" fill="#474647" stroke-width="0"/><path d="M161.24513,212.70526l21.05882,8.23529c0,0 -1.18894,1.01229 -1.42612,1.55133c-0.17502,0.39776 0.132,1.38985 0.132,1.38985z" fill="#3f3e3e" stroke-width="NaN"/><path d="M167.24513,202.35231l21.41177,7.05882c0,0 -1.11501,0.84333 -1.32603,1.39965c-0.21998,0.57996 0.14956,1.65917 0.14956,1.65917z" fill="#3f3e3e" stroke-width="NaN"/><path d="M154.80513,231.03231c0,0 10.69245,7.693 16.57058,13.6706c5.87813,5.9776 3.93744,7.18443 3.93744,7.18443z" fill="#636162" stroke-width="NaN"/><path d="M168.09193,207.97569c0,0 -6.00063,2.90407 -8.75,6c-2.74937,3.09593 -11.08334,19.27885 -11.08334,16.33333c0,-2.94552 13.12174,-23.66666 14.91666,-23.66666c0.67946,0 3.71572,-1.14227 4.53413,-0.9048c1.34357,0.38986 0.38254,2.23813 0.38254,2.23813z" fill="#918f91" stroke-width="0"/><path d="M120.10798,257.57775l13.94282,-1.88829c0,0 12.59589,-0.33227 15.73259,-0.17721c7.63875,0.37761 30.26641,2.45109 30.26641,2.45109l-0.44702,6.32108c0,0 -24.36096,3.56546 -31.25537,2.24983c-1.99455,-0.38061 -7.81121,-0.99867 -12.06697,-2.35087c-8.3283,-2.64618 -16.17245,-6.60563 -16.17245,-6.60563z" fill="#626061" stroke-width="0"/><path d="M178.59784,263.93255c0,0 0.04044,-4.29264 -0.40851,-6.6325c-0.5046,-2.62992 -2.47167,-8.37877 -2.47167,-8.37877h1.78232c0,0 1.71917,4.45681 2.17598,6.83765c0.49944,2.60306 0.7042,8.17362 0.7042,8.17362z" fill="#4a494a" stroke-width="0"/><path d="M178.40261,264.76887l0.08824,-3.39716c0,0 0.56675,0.26471 0.83826,0.26471c0.3226,0 0.92924,-0.26471 0.92924,-0.26471l0.17374,3.17656c0,0 -0.77655,0.40763 -1.14637,0.44782c-0.28337,0.0308 -0.8831,-0.22723 -0.8831,-0.22723z" fill="#363536" stroke-width="0"/><path d="M175.99272,249.94659l-0.38586,-1.62062c0,0 0.41737,-0.35441 0.78587,-0.41363c0.35093,-0.0564 0.87334,0.06635 0.87334,0.06635l0.50162,1.73638c0,0 -0.48183,0.50743 -0.78592,0.54709c-0.28651,0.03737 -0.98904,-0.31557 -0.98904,-0.31557z" fill="#585758" stroke-width="0"/><path d="M136.74988,263.50138c0,0 -7.89515,-2.95282 -7.89515,-4.31586c0,-1.36982 6.23717,-2.54063 6.23717,-2.54063c0,0 10.9439,-0.24078 15.9009,-0.06818c2.77513,0.09663 11.30918,1.0156 11.30918,1.0156c0,0 7.29181,1.05423 8.10689,2.20592c0.8891,1.25629 -2.97504,4.09792 -2.97504,4.09792c0,0 -12.72385,1.30607 -16.68866,1.09781c-1.40843,-0.07398 -13.99528,-1.49257 -13.99528,-1.49257z" fill="#6b696a" stroke-width="0"/><path d="M126.36688,256.59988l-1.96169,0.23079c0,0 0.62638,-3.43469 3.34641,-2.19247c2.72003,1.24221 21.69398,0.23078 21.69398,0.23078z" fill="#4b4949" stroke-width="0"/><path d="M120.18091,257.4337c0,0 -1.99777,0.19159 -2.53286,-3.45116c-0.27086,-1.84393 -2.01084,-16.03607 -2.01084,-16.03607l3.73595,-2.89912c0,0 0.68179,5.99373 0.88796,8.89599c0.2742,3.85994 0.84294,13.49034 0.84294,13.49034z" fill="#3f3d3e" stroke-width="0"/><path d="M126.68867,256.76581c0,0 3.19269,-2.15812 19.24905,-2.49525c1.32597,-0.02784 -1.79518,-0.032 7.60456,0.47529c9.39974,0.50729 13.30798,2.01996 13.30798,2.01996c0,0 -15.06619,-1.06939 -21.26901,-1.06939c-7.07046,0 -18.89259,1.06939 -18.89259,1.06939z" fill="#838082" stroke-width="0"/><path d="M131.73934,227.13363c0,0 -4.37061,2.18742 -6.54566,3.803c-2.44469,1.81584 -7.40831,6.56162 -7.40831,6.56162l-0.78448,-1.60162c0,0 3.76259,-3.85368 5.97574,-5.49755c2.41972,-1.79729 7.97823,-4.86706 7.97823,-4.86706z" fill="#4a494a" stroke-width="0"/><path d="M132.67333,226.87583l-3.56104,1.68057c0,0 0.09639,-0.64642 -0.02311,-0.8904c-0.14199,-0.2899 -0.67742,-0.6979 -0.67742,-0.6979l3.14461,-1.80171c0,0 0.75514,0.48665 0.95867,0.79815c0.15596,0.23869 0.15828,0.91129 0.15828,0.91129z" fill="url(#color-3)" stroke-width="0"/><path d="M118.70392,236.71994l-2.95095,2.72977l-0.14385,-2.18264l2.07879,-2.02221c0,0 0.72662,0.17011 0.90068,0.42283c0.164,0.2381 0.11533,1.05224 0.11533,1.05224z" fill="url(#color-4)" stroke-width="0"/></g><path d="M248.77424,212.74423c0,0 0.9274,-4.41867 1.4307,-5.80778c0.34166,-0.94297 2.71505,-2.37463 2.71505,-2.37463l17.01942,-0.2182c0,0 -1.27715,5.79775 -1.65822,7.16403c-0.16694,0.59854 -1.2329,1.29113 -1.2329,1.29113z" fill="#665b60" stroke-width="0"/><path d="M200.1601,194.48771c0,0 -3.7942,-1.56244 -8.72268,-2.7147c-3.13304,-0.7325 -7.40303,-1.29924 -9.26405,-1.19347c-5.41057,0.30751 -7.92956,5.4124 -7.92956,5.4124c0,0 -3.27326,-2.31576 -5.38089,-3.17044c-1.9674,-0.79781 -6.3205,-1.79876 -6.3205,-1.79876c0,0 24.55945,-5.09127 28.41062,-5.6714c7.383,-1.11215 34.06421,-0.72076 34.06421,-0.72076l6.22393,14.28571z" fill="#8b7c84" stroke-width="0"/><g stroke-width="0"><path d="M250.22891,211.80147c0,0 0.47154,-2.59627 0.88191,-3.49104c0.42551,-0.92778 2.60925,-1.98019 2.60925,-1.98019h14.53002c0,0 0.38631,0.98295 0.15092,1.72074c-0.32005,1.00314 -3.09659,3.75049 -3.09659,3.75049z" fill="#585852"/><path d="M250.22891,211.05611c0,0 0.47154,-1.85089 0.88191,-2.74566c0.42551,-0.92778 2.60925,-2.72557 2.60925,-2.72557h14.53002c0,0 0.38631,1.72833 0.15092,2.46612c-0.32005,1.00314 -3.09659,3.00511 -3.09659,3.00511z" fill="#797971"/><path d="M266.48591,206.08044c-1.04887,-0.17795 -12.67144,-0.44929 -12.67144,-0.44929h14.51015v2.46182c0,0 -0.78984,-1.83457 -1.83871,-2.01252z" fill="#85857b"/></g><path d="M251.66016,193.63335v-5.18975h7.13591l1.29744,5.18975z" fill="#7c6e75" stroke-width="0"/><path d="M241.23609,167.20976l-4.17672,-8.13126h1.37931l6.1122,8.58287z" fill="#d495b6" stroke-width="0"/><path d="M202.23251,159.58076l13.21905,-3.08968l21.80655,2.6125l4.00297,8.09226z" fill="#df9cbe" stroke-width="0"/><path d="M251.82235,198.66089v-1.6218h10.86604l0.97308,1.6218z" fill="#7c6e75" stroke-width="0"/><path d="M211.25041,186.50675c0,0 -18.13363,1.19842 -23.76642,1.69857c-8.52925,0.75733 -25.59953,3.08259 -25.59953,3.08259c0,0 15.0237,-4.44063 28.53111,-5.95673c14.64549,-1.64384 58.69504,-3.10124 58.69504,-3.10124v5.40906z" fill="#75686e" stroke-width="0"/><path d="M204.33199,195.27722l-3.24324,-0.57081c0,0 9.77046,-2.38442 15.11002,-1.62162c5.33956,0.76279 14.61538,5.86811 14.61538,5.86811z" fill="#7c6e76" stroke-width="0"/><path d="M157.8759,191.24703c0,0 -32.35726,-15.39645 -33.24874,-20.01657c-0.8098,-4.19682 29.82178,2.34796 30.11952,2.23973c5.21023,-1.89389 77.09315,-9.10876 77.09315,-9.10876l26.60875,6.78933l52.7619,-0.57143l7.30827,13.57544c0,0 -61.55913,1.16889 -85.32538,1.33194c-8.24991,0.0566 -25.08221,-0.5911 -40.3861,0.54919c-11.80493,0.87958 -29.49124,5.19621 -29.49124,5.19621z" fill="#ee96c3" stroke-width="0"/><path d="M28.74434,203.79034l3.32692,-20.15399c0,0 -0.10156,-7.05414 7.14265,-9.35011c8.99756,-2.85167 25.88635,-1.06656 27.95699,-1.06656c1.58899,0 -12.90761,10.41666 -12.90761,10.41666v20.15399z" fill="#c4b4b3" stroke-width="0"/><g stroke-width="0"><path d="M309.90324,185.53679l-2.85715,-15.14286l92.75676,6.76448l-0.75676,5.80695l-47.42857,4.85714z" fill="#ad6d8e"/><path d="M336.24863,171.20056l7.27273,-8.27273l26.77472,-2.12904l-4.30503,10.40177z" fill="#8d788b"/><path d="M310.77763,172.38921v-16.23529l32.81399,6.77808l-4.5787,6.86899z" fill="#857183"/><path d="M353.19638,169.06831l17.03704,-8.26827l27.84163,3.77267l-0.28608,6.894z" fill="#947e92"/><path d="M306.60857,171.78069l2.89362,-12.76596l1.44681,-3.06383v15.06383z" fill="#756474"/><path d="M311.18255,182.32241l-0.72131,-12.07273l43.31381,-1.64884l-1.22607,16.05705z" fill="#746373"/><path d="M352.54128,184.64242c0,0 0.38,-6.30746 0.57873,-9.15162c0.17015,-2.43509 0.54127,-6.87747 0.54127,-6.87747l44.2,0.90909l2,8.4z" fill="#867284"/><path d="M306.64903,171.71022l4.02759,-1.5309l0.53594,12.15073z" fill="#6f5e6d"/><path d="M390.85976,164.46508l-19.81818,-3.36364l26.72727,3.63637l-0.36363,3.54546c0,0 -0.31358,-1.56929 -1.52191,-2.27415c-0.80831,-0.47152 -5.02355,-1.54404 -5.02355,-1.54404z" fill="#978195"/><path d="M351.52229,168.41854c0,0 7.97464,-3.46527 10.75285,-4.81936c2.02382,-0.9864 4.38229,-2.55743 4.38229,-2.55743l2.53383,0.11262l-15.02032,7.26417z" fill="#9c859a"/><path d="M337.14144,169.22688c0,0 1.31639,-2.75229 2.66667,-4.10256c1.35028,-1.35028 3.6585,-2.1655 3.6585,-2.1655l-3.86363,6.26807z" fill="#806b7d"/><path d="M371.81049,159.05426l2.13333,-5.73333l15.2,3.73333l5.6,6.4z" fill="#55494f"/><path d="M369.27716,161.85437c0,0 1.08244,-0.7902 1.64283,-1.37496c0.42212,-0.44047 1.11011,-1.82504 1.11011,-1.82504l22.31372,4c0,0 0.86787,0.49697 1.45409,0.82264c0.61262,0.34035 2.14592,1.17736 2.14592,1.17736z" fill="#685960"/><path d="M372.37169,158.16208l1.65853,-4.58536l14.14634,3.32683c0,0 -8.0067,-1.5327 -12.4878,-1.27805c-2.59929,0.14771 -3.31707,2.53658 -3.31707,2.53658z" fill="#41383c"/></g><path d="M30.38369,164.51022v-5.20833c0,0 22.33653,-1.29507 44.29466,-1.2381c13.08504,0.03395 26.6549,1.63161 33.57618,1.28149c15.60593,-0.78946 26.07472,-5.30168 26.07472,-5.30168l-6.34058,10.64311z" fill="#ffa1d1" stroke-width="0"/><path d="M27.80574,178.46781l2.16034,-16.08258c0,0 54.7963,2.06052 72.64345,1.61985c10.57193,-0.26103 24.57211,-4.02024 24.57211,-4.02024v14.64235c0,0 -67.50102,0 -83.7734,0c-6.69059,0 -15.60249,30.72492 -15.60249,30.72492z" fill="#ee96c3" stroke-width="0"/><path d="M207.01513,254.95991l9.28,-13.5959c0,0 9.91864,-15.85726 19.31897,-22.72c2.38878,-1.74393 7.55831,-2.94044 7.55831,-2.94044c0,0 -7.30389,4.98511 -9.89872,7.77655c-6.12783,6.59214 -26.25856,31.47978 -26.25856,31.47978z" fill="#70646b" stroke-width="0"/><path d="M303.02358,190.11926l-6.30063,-18.0018h1.35013c0,0 1.90816,5.45188 2.91644,8.33268c0.14366,0.41046 1.50865,1.63156 1.68658,2.13996c0.30846,0.88132 -0.54389,1.12486 -0.19913,2.1099c0.96001,2.74288 1.89673,5.41925 1.89673,5.41925z" fill="#795467" stroke-width="0"/><path d="M127.81406,175.05899c0,0 -10.48203,-6.55233 -9.80268,-10.32724c0.40676,-2.26025 17.24934,-10.21238 17.24934,-10.21238l68.50194,1.6721l-1.63668,3.09614l29.65012,5.24841l-71.79597,26.57522c0,0 -0.79136,-5.61382 2.81092,-8.47197c3.50105,-2.77783 18.50771,-8.44282 18.50771,-8.44282c0,0 -34.21741,-0.049 -41.50831,-0.13567c-2.43244,-0.02892 -11.97641,0.99822 -11.97641,0.99822z" fill="#f399c8" stroke-width="0"/><g><path d="M133.46383,156.44355v-3.23833h176.55367v3.23833z" fill="#584f54" stroke-width="0"/><path d="M304.22112,153.45344v-2.73632h3.05525l2.69581,2.73632z" fill="#685d63" stroke-width="0"/><g fill="#685d63" stroke-width="0"><g><g><g><path d="M297.56109,153.70263v-2.97701h3.88113v2.97701z"/><path d="M291.26356,153.70263v-2.97701h3.88113v2.97701z"/></g><g><path d="M285.20365,153.70263v-2.97701h3.88113v2.97701z"/><path d="M278.90612,153.70263v-2.97701h3.88113v2.97701z"/></g></g><g><g><path d="M272.7274,153.70263v-2.97701h3.88113v2.97701z"/><path d="M266.42985,153.70263v-2.97701h3.88113v2.97701z"/></g><g><path d="M260.36996,153.70263v-2.97701h3.88113v2.97701z"/><path d="M254.07249,153.70263v-2.97701h3.88113v2.97701z"/></g></g></g><g><g><g><path d="M253.83485,153.70263v-2.97701h3.88113v2.97701z"/><path d="M247.53731,153.70263v-2.97701h3.88113v2.97701z"/></g><g><path d="M241.47741,153.70263v-2.97701h3.88113v2.97701z"/><path d="M235.17989,153.70263v-2.97701h3.88113v2.97701z"/></g></g><g><g><path d="M229.00121,153.70263v-2.97701h3.88113v2.97701z"/><path d="M222.70367,153.70263v-2.97701h3.88113v2.97701z"/></g><g><path d="M216.64377,153.70263v-2.97701h3.88113v2.97701z"/><path d="M210.34623,153.70263v-2.97701h3.88113v2.97701z"/></g></g></g></g><g><g fill="#685d63" stroke-width="0"><g><g><path d="M204.12712,153.70263v-2.97701h3.88113v2.97701z"/><path d="M197.82958,153.70263v-2.97701h3.88113v2.97701z"/></g><g><path d="M191.7697,153.70263v-2.97701h3.88113v2.97701z"/><path d="M185.4722,153.70263v-2.97701h3.88113v2.97701z"/></g></g><g><g><path d="M179.29349,153.70263v-2.97701h3.88113v2.97701z"/><path d="M172.99594,153.70263v-2.97701h3.88113v2.97701z"/></g><g><path d="M166.93604,153.70263v-2.97701h3.88113v2.97701z"/><path d="M160.63851,153.70263v-2.97701h3.88113v2.97701z"/></g></g></g><g><g fill="#685d63" stroke-width="0"><g><path d="M160.40088,153.70263v-2.97701h3.88113v2.97701z"/><path d="M154.10333,153.70263v-2.97701h3.88113v2.97701z"/></g><g><path d="M148.04343,153.70263v-2.97701h3.88113v2.97701z"/><path d="M141.74594,153.70263v-2.97701h3.88113v2.97701z"/></g></g><g fill="none" stroke-width="1" font-family="sans-serif" font-weight="normal" font-size="12" text-anchor="start"><g/><g/></g></g></g><path d="M133.53535,153.45344l2.69581,-2.73632h3.05525v2.73632z" data-paper-data="{&quot;index&quot;:null}" fill="#685d63" stroke-width="0"/></g><path d="M190.4464,186.33986l-2.55186,0.27003c0,0 1.67891,-2.56754 11.27406,-3.69524c7.27454,-0.85496 27.83785,-2.16641 40.14818,-2.91219c5.71662,-0.34633 62.2184,-9.34825 62.2184,-9.34825l5.19878,-0.01432c0,0 -61.71569,10.64473 -67.42805,10.96783c-12.63161,0.71444 -33.87073,1.95164 -40.01941,2.53013c-3.34708,0.31491 -8.84009,2.20202 -8.84009,2.20202z" fill="#70475c" stroke-width="0"/><path d="M291.35679,205.36752l-4.9238,1.8458l0.00072,-18.93138c0,0 7.79146,0.0484 15.41134,0.09573c21.87446,0.13587 127.00456,0.78889 127.00456,0.78889v6.72727z" fill="#5a5959" stroke-width="0"/><path d="M290.44172,206.99595l1.09091,-3.00606l137.32912,-8.20553l-11.82609,11.21159z" fill="#4b4a4a" stroke-width="0"/><path d="M413.74989,206.80683c0,0 -5.90625,-3.22473 -8.93871,-4.65281c-1.62517,-0.76534 -7.84178,-3.24963 -7.84178,-3.24963c0,0 8.00145,2.90376 11.34606,3.8517c1.19364,0.33831 2.31724,1.08112 3.62128,1.60924c0.42047,0.17028 2.24391,-2.58889 4.14284,-4.30325c0.56757,-0.51241 1.72782,-0.14786 2.25322,-0.47866c1.20443,-0.75834 1.56343,-1.84976 1.56343,-1.84976c0,0 0.33746,0.92957 -0.88147,2.14332c-0.33258,0.33117 -2.1355,0.68349 -2.46094,1.04386c-1.30429,1.44428 -2.30608,3.04337 -2.61121,3.63456c-0.85152,1.64981 1.2707,2.25144 1.2707,2.25144z" fill="#414040" stroke-width="0"/><path d="M127.76508,175.35643l3.81521,-11.09878l7.0061,-0.6243c0,0 -0.95064,2.6482 -1.51091,4.20895c-0.14111,0.3931 11.65299,-1.56305 12.00499,-0.89204c0.65311,1.24497 -4.91899,5.00486 -5.27135,5.98644c-0.40282,1.12215 -9.1073,1.51797 -9.1073,1.51797z" fill="#303030" stroke-width="0"/><path d="M127.62153,174.98638l3.71072,-10.26369c0,0 3.00016,1.30459 3.00016,2.28959c0,1.79217 -1.57903,7.57935 -1.57903,7.57935z" fill="#252525" stroke-width="0"/><path d="M286.4149,209.86905v-2.95238l5.52381,-2.95238l-1.2381,2.95238c0,0 -1.09039,1.33528 -1.84413,1.85453c-0.66321,0.45688 -2.44158,1.09785 -2.44158,1.09785z" fill="#383838" stroke-width="0"/><g><g fill="#4b4b4b" stroke-width="0"><g data-paper-data="{&quot;origPos&quot;:null}"><g data-paper-data="{&quot;origPos&quot;:null}"><path d="M353.55612,211.24001v-2.27273h3.75v2.27273z" data-paper-data="{&quot;origPos&quot;:null}"/><path d="M347.30612,211.12637v-2.27273h3.75v2.27273z" data-paper-data="{&quot;origPos&quot;:null}"/></g><g data-paper-data="{&quot;origPos&quot;:null}"><path d="M366.05613,211.35365v-2.27273h3.75v2.27273z" data-paper-data="{&quot;origPos&quot;:null}"/><path d="M359.80612,211.24001v-2.27273h3.75v2.27273z" data-paper-data="{&quot;origPos&quot;:null}"/></g></g><g data-paper-data="{&quot;origPos&quot;:null,&quot;index&quot;:null}"><g data-paper-data="{&quot;origPos&quot;:null}"><path d="M385.26066,211.12638v-2.27273h3.75v2.27273z" data-paper-data="{&quot;origPos&quot;:null}"/><path d="M391.51066,211.01274v-2.27272h3.75v2.27272z" data-paper-data="{&quot;origPos&quot;:null}"/></g><g data-paper-data="{&quot;origPos&quot;:null}"><path d="M372.76066,211.24001v-2.27273h3.75v2.27273z" data-paper-data="{&quot;origPos&quot;:null}"/><path d="M379.01066,211.12637v-2.27273h3.75v2.27273z" data-paper-data="{&quot;origPos&quot;:null}"/></g></g></g><path d="M310.83439,202.99489v-13.61111h84.47402v13.61111z" data-paper-data="{&quot;origPos&quot;:null}" fill="#444444" stroke-width="0"/><path d="M310.93291,207.71711v-4.78246h84.22573v4.78246z" data-paper-data="{&quot;origPos&quot;:null}" fill="#414141" stroke-width="0"/><path d="M310.9677,209.14135v-1.61764h84.21503v1.61764z" data-paper-data="{&quot;origPos&quot;:null}" fill="#3f3f3f" stroke-width="0"/><g stroke-width="0"><g data-paper-data="{&quot;origPos&quot;:null}" fill="#5a5a5a"><g data-paper-data="{&quot;origPos&quot;:null}"><path d="M354.10605,203.07427v-13.75h3.57143v13.75z" data-paper-data="{&quot;origPos&quot;:null}"/></g><g data-paper-data="{&quot;origPos&quot;:null}"><path d="M360.17748,203.07427v-13.75h3.57143v13.75z" data-paper-data="{&quot;origPos&quot;:null}"/><path d="M366.42748,203.07427v-13.75h3.57143v13.75z" data-paper-data="{&quot;origPos&quot;:null}"/></g></g><g data-paper-data="{&quot;origPos&quot;:null}" fill="#5a5a5a"><g data-paper-data="{&quot;origPos&quot;:null}"><path d="M373.03462,203.07427v-13.75h3.57143v13.75z" data-paper-data="{&quot;origPos&quot;:null}"/><path d="M379.28462,203.07427v-13.75h3.57143v13.75z" data-paper-data="{&quot;origPos&quot;:null}"/></g><g data-paper-data="{&quot;origPos&quot;:null}"><path d="M385.35605,203.07427v-13.75h3.57143v13.75z" data-paper-data="{&quot;origPos&quot;:null}"/><path d="M391.60605,203.07427v-13.75h3.57143v13.75z" data-paper-data="{&quot;origPos&quot;:null}"/></g></g><path d="M357.73881,203.07428l-0.87882,1.93103l-5.24138,0.0431l-0.13932,-9.79645l2.56789,-5.92769l0.06897,13.75z" fill="#3a3a3a"/><path d="M363.80778,203.07428l-0.87882,1.93103l-5.24138,0.0431l-0.13932,-9.79645l2.56789,-5.92769l0.06897,13.75z" fill="#3a3a3a"/><path d="M370.01466,203.07428l-0.87882,1.93103l-5.24138,0.0431l-0.13932,-9.79645l2.56789,-5.92769l0.06897,13.75z" fill="#3a3a3a"/><path d="M376.70433,203.07428l-0.87882,1.93103l-5.24138,0.0431l-0.13932,-9.79645l2.56789,-5.92769l0.06897,13.75z" fill="#3a3a3a"/><path d="M382.98019,203.07428l-0.87882,1.93103l-5.24138,0.0431l-0.13932,-9.79645l2.56789,-5.92769l0.06897,13.75z" fill="#3a3a3a"/><path d="M388.98018,203.07428l-0.87882,1.93103l-5.24138,0.0431l-0.13932,-9.79645l2.56789,-5.92769l0.06897,13.75z" fill="#3a3a3a"/><path d="M395.26399,203.07428l-0.87882,1.93103l-5.24138,0.0431l-0.13932,-9.79645l2.56789,-5.92769l0.06897,13.75z" fill="#3a3a3a"/></g><g stroke-width="0"><g data-paper-data="{&quot;origPos&quot;:null}" fill="#5a5a5a"><g data-paper-data="{&quot;origPos&quot;:null}"><path d="M310.87701,203.07427v-13.75h3.57143v13.75z" data-paper-data="{&quot;origPos&quot;:null}"/></g><g data-paper-data="{&quot;origPos&quot;:null}"><path d="M316.9484,203.07427v-13.75h3.57143v13.75z" data-paper-data="{&quot;origPos&quot;:null}"/><path d="M323.1984,203.07427v-13.75h3.57143v13.75z" data-paper-data="{&quot;origPos&quot;:null}"/></g></g><g data-paper-data="{&quot;origPos&quot;:null}" fill="#5a5a5a"><g data-paper-data="{&quot;origPos&quot;:null}"><path d="M329.80557,203.07427v-13.75h3.57143v13.75z" data-paper-data="{&quot;origPos&quot;:null}"/><path d="M336.0556,203.07427v-13.75h3.57143v13.75z" data-paper-data="{&quot;origPos&quot;:null}"/></g><g data-paper-data="{&quot;origPos&quot;:null}"><path d="M342.12703,203.07427v-13.75h3.57143v13.75z" data-paper-data="{&quot;origPos&quot;:null}"/><path d="M348.37703,203.07427v-13.75h3.57143v13.75z" data-paper-data="{&quot;origPos&quot;:null}"/></g></g><path d="M314.50973,203.07428l-0.87882,1.93103l-2.72975,0.0431l-0.01409,-1.97414z" fill="#3a3a3a"/><path d="M320.57874,203.07428l-0.87882,1.93103l-5.24138,0.0431l-0.13932,-9.79645l2.56789,-5.92769l0.06897,13.75z" fill="#3a3a3a"/><path d="M326.7856,203.07428l-0.87882,1.93103l-5.24138,0.0431l-0.13932,-9.79645l2.56789,-5.92769l0.06897,13.75z" fill="#3a3a3a"/><path d="M333.47524,203.07428l-0.87882,1.93103l-5.24138,0.0431l-0.13932,-9.79645l2.56789,-5.92769l0.06897,13.75z" fill="#3a3a3a"/><path d="M339.75117,203.07428l-0.87882,1.93103l-5.24138,0.0431l-0.13932,-9.79645l2.56789,-5.92769l0.06897,13.75z" fill="#3a3a3a"/><path d="M345.75116,203.07428l-0.87882,1.93103l-5.24138,0.0431l-0.13932,-9.79645l2.56789,-5.92769l0.06897,13.75z" fill="#3a3a3a"/><path d="M352.03498,203.07428l-0.87882,1.93103l-5.24138,0.0431l-0.13932,-9.79645l2.56789,-5.92769l0.06897,13.75z" fill="#3a3a3a"/></g><g><g data-paper-data="{&quot;origPos&quot;:null}"><g data-paper-data="{&quot;origPos&quot;:null}" fill="none" stroke-width="1" font-family="sans-serif" font-weight="normal" font-size="12" text-anchor="start"/><g data-paper-data="{&quot;origPos&quot;:null}" fill="#4b4b4b" stroke-width="0"><path d="M317.32034,211.43057v-2.27273h3.75v2.27273z" data-paper-data="{&quot;origPos&quot;:null}"/><path d="M311.07034,211.31693v-2.27273h3.75v2.27273z" data-paper-data="{&quot;origPos&quot;:null}"/></g></g><g data-paper-data="{&quot;origPos&quot;:null,&quot;index&quot;:null}" fill="#4b4b4b" stroke-width="0"><g data-paper-data="{&quot;origPos&quot;:null}"><path d="M336.52492,211.2033v-2.27273h3.75v2.27273z" data-paper-data="{&quot;origPos&quot;:null}"/><path d="M342.77492,211.08963v-2.27272h3.75v2.27272z" data-paper-data="{&quot;origPos&quot;:null}"/></g><g data-paper-data="{&quot;origPos&quot;:null}"><path d="M324.02486,211.31693v-2.27273h3.75v2.27273z" data-paper-data="{&quot;origPos&quot;:null}"/><path d="M330.27486,211.20326v-2.27273h3.75v2.27273z" data-paper-data="{&quot;origPos&quot;:null}"/></g></g></g></g><path d="M140.44511,173.76243l1.03963,-4.21513c0,0 4.61108,-3.14748 8.14221,-3.29749c4.03679,-0.17149 34.0057,-0.14654 34.0057,-0.14654c0,0 0.662,1.87574 0.60908,3.09295c-0.06818,1.5682 -2.18424,4.63282 -2.18424,4.63282z" fill="#242424" stroke-width="0"/><path d="M165.33094,169.95243v-3.15031h18.0018v3.15031z" fill="#313131" stroke-width="0"/><path d="M162.03716,171.88302v-0.65223c0,0 1.06785,-1.05115 2.09093,-1.05115c0.97149,0 3.1595,0.47494 5.61139,0.63831c4.67083,0.31121 10.29925,0.41285 10.29925,0.41285v0.65223c0,0 -5.42826,-0.00202 -10.03397,-0.31267c-2.51308,-0.1695 -4.78126,-0.73848 -5.78907,-0.73848c-1.05929,0 -2.17852,1.05115 -2.17852,1.05115z" fill="#616161" stroke-width="0"/><path d="M189.17028,156.1721l12.69329,3.02662l30.85047,5.3081c0,0 0.73316,0.22419 -7.36543,-0.50407c-2.75503,-0.24775 -13.39336,-1.85677 -22.61614,-3.75959c-2.49557,-0.51488 -15.82965,-3.95568 -15.82965,-3.95568z" fill="#df8cb7" stroke-width="0"/><path d="M8.08293,162.50842v-5.93312c0,0 5.77007,-1.75296 9.5739,-1.75296c3.11406,0 11.59655,3.50593 11.59655,3.50593l-0.13484,12.27076z" fill="#626061" stroke-width="0"/><path d="M124.1425,172.49415l3.7963,2.50602l12.24716,-1.32317h50.74495v1.09103c0,0 -38.0662,-0.14525 -49.96965,0.11699c-3.26806,0.07199 -12.96745,0.79286 -12.96745,0.79286z" fill="#ffa6d4" stroke-width="0"/><path d="M5.20055,226.43872v-7.16958l23.42772,-16.63022l-1.60726,13.66888l-13.87157,10.13092z" fill="#3f3d3e" stroke-width="0"/><path d="M3.57044,221.37858c0,0 0.18759,-19.65183 0.99327,-29.23517c0.90934,-10.81627 4.18949,-32.41241 4.18949,-32.41241c0,0 8.61459,-0.18935 12.19665,1.45646c3.06575,1.40858 7.98885,7.81796 7.98885,7.81796v33.55156c0,0 -11.85678,13.69814 -14.90167,15.95726c-4.68358,3.47491 -10.46657,2.86434 -10.46657,2.86434z" fill="#555354" stroke-width="0"/><path d="M8.6024,170.32945c0,0 -1.54017,-5.9929 0.52597,-8.69013c2.06614,-2.69723 6.4157,-3.71417 8.97601,-3.71417c2.0424,0 6.26907,0.07874 9.14247,4.53723c2.8734,4.45848 0.9538,11.12857 0.9538,11.12857c0,0 -6.29982,-10.4037 -8.85617,-10.82912c-3.60729,-0.60031 -10.74208,7.56763 -10.74208,7.56763z" fill="#6f6b6c" stroke-width="0"/><path d="M2.11741,226.25041c0,0 1.71454,-26.06253 1.71454,-37.50632c0,-11.91781 -0.21432,-32.63621 -0.21432,-32.63621c0,0 1.15621,-0.64295 2.19703,-0.64295c0.95171,0 2.51858,0.64295 2.51858,0.64295c0,0 -0.21432,19.15527 -0.21432,29.8501c0,12.42547 -2.57179,40.29244 -2.57179,40.29244z" fill="#333232" stroke-width="0"/><path d="M1.68663,226.69403l1.09416,-14.70823c0,0 1.05518,0.8889 1.65465,0.85022c0.75688,-0.04883 2.43389,-1.48634 2.43389,-1.48634l-1.21359,15.34435z" fill="#2e2d2d" stroke-width="0"/><path d="M27.44879,190.43426c0,8.16463 -4.12421,16.83255 -8.48946,19.75995c-3.62548,2.43131 -11.12412,9.18922 -11.12412,1.02459c0,-1.73208 2.04405,-13.61145 2.17249,-20.64127c0.16985,-9.29684 -1.47588,-14.27777 -0.51805,-17.10935c1.73194,-5.12001 7.2552,-6.5995 9.46969,-6.5995c4.36525,0 8.48946,15.40095 8.48946,23.56558z" fill="#585758" stroke-width="0"/><path d="M61.91055,204.51722l-0.59259,-1.74074c0,0 7.93973,-1.35054 13.9577,-1.83469c8.47195,-0.68158 32.07933,-1.86902 32.07933,-1.86902l1.79592,1.28118c0,0 -25.11062,1.62039 -33.82433,2.38833c-2.5591,0.22553 -13.41603,1.77494 -13.41603,1.77494z" fill="#585657" stroke-width="0"/><path d="M56.02017,217.71774l5.18975,-13.69141l7.2423,-0.95064c0,0 -1.73809,4.31348 -1.6518,5.06864c0.41231,3.60831 3.40923,27.57536 3.40923,27.57536c0,0 -1.47746,0.44042 -2.66684,-1.43513c-2.1341,-3.36529 -3.96963,-10.22731 -5.7217,-12.32996c-1.51378,-1.81669 -5.80094,-4.23685 -5.80094,-4.23685z" fill="#5a5759" stroke-width="0"/><path d="M68.54963,186.91368l2.88889,-11.33334l2.33334,-0.11111l-4,11.55556z" fill="#a5a0a2" stroke-width="0"/><path d="M75.33931,185.83018v-1.40275h26.49626v1.40275z" fill="#494748" stroke-width="0"/><path d="M75.25871,182.85888v-1.40275h26.49626v1.40275z" fill="#494748" stroke-width="0"/><path d="M55.82526,205.26661v-20.13833l12.24738,-9.61623l4.84456,-0.31176l-16.27575,42.81354l-5.61122,-2.00337z" fill="#dbd5d8" stroke-width="0"/><path d="M29.32672,217.18104l-0.1579,-11.7908l26.65449,-0.78951c0,0 0.33028,2.53773 0.20009,3.33623c-0.32451,1.99047 -2.33178,8.92828 -2.33178,8.92828z" fill="#ccc6c9" stroke-width="0"/><path d="M33.11659,205.79064v-0.31581l22.81699,-0.86846l-2.6054,1.18427c0,0 -4.32165,0.18621 -7.03034,0.15447c-3.70894,-0.04346 -13.18125,-0.15447 -13.18125,-0.15447z" fill="#d8d1d5" stroke-width="0"/><path d="M36.63202,202.05385v-17h16.125v17z" fill="#a39999" stroke-width="0"/><path d="M29.0502,217.3508v-11.35931c0,0 8.83684,6.38668 13.12354,8.72727c4.2867,2.34059 10.78788,2.06061 10.78788,2.06061z" fill="#b4afb1" stroke-width="0"/><path d="M62.69339,223.39344c0,0 3.02947,1.04051 4.1256,0.89676c0.67336,-0.08831 1.82561,-1.67725 1.82561,-1.67725l1.65854,9.07318v4.19512c0,0 -1.94303,0.31144 -3.2221,-2.27116c-1.05534,-2.13085 -4.38765,-10.21665 -4.38765,-10.21665z" fill="#504e4f" stroke-width="0"/><path d="M56.32465,218.27407l14.46154,-41.74359l1.74359,0.20513l-14.35898,42.15384z" fill="#858183" stroke-width="0"/><path d="M39.48848,177.51808l1.51476,-1.65049c0,0 27.4156,-0.6439 39.82589,-0.6439c10.77129,0 31.94494,0.35299 31.94494,0.35299l0.52947,1.9414c0,0 -21.29728,-0.70596 -32.6509,-0.70596c-12.96436,0 -41.16417,0.70596 -41.16417,0.70596z" fill="#918b8e" stroke-width="0"/><path d="M40.50668,176.28733l2.02386,-1.9414c0,0 25.88833,-0.35299 38.29862,-0.35299c10.77129,0 31.94494,0.35299 31.94494,0.35299l0.52947,1.9414c0,0 -21.29728,-0.70596 -32.6509,-0.70596c-12.96436,0 -40.14599,0.70596 -40.14599,0.70596z" fill="#a59fa2" stroke-width="0"/><path d="M105.11537,197.07338l-1.92553,-5.68264c0,0 0.21164,-1.20502 0.54462,-1.31785c0.29339,-0.09941 1.34959,0.67601 1.34959,0.67601l1.92552,5.68264c0,0 -0.27614,0.87762 -0.5702,0.97726c-0.33259,0.1127 -1.32401,-0.33542 -1.32401,-0.33542z" fill="#494242" stroke-width="0"/><path d="M64.84078,199.72202l3.54286,-9.48571h3.88572l-3.54286,9.48571z" fill="#9c989a" stroke-width="0"/><path d="M74.40802,181.94586l1.8507,-0.96796l24.43883,0.01805l2.01805,0.94992z" fill="#757274" stroke-width="0"/><path d="M74.50235,184.75716l1.8507,-0.96796l24.43883,0.01805l2.01805,0.94992z" fill="#757274" stroke-width="0"/><path d="M26.62951,216.36782l1.70694,-58.1577l1.9203,0.58072l-1.16144,58.55888z" fill="#686666" stroke-width="0"/><path d="M26.46615,216.63815l0.6546,-16.25573l2.29107,3.81846l-0.43639,13.31006z" fill="#535252" stroke-width="0"/><path d="M57.21199,193.76342c0,0 2.12405,-2.34547 2.12405,-3.29227c0,-0.9291 -2.12405,-2.33645 -2.12405,-2.33645c0,0 3.00207,0.66971 2.89783,2.358c-0.07939,1.28596 -1.12995,3.47497 -1.21733,4.57734c-0.24847,3.13446 -0.93708,10.48183 -0.93708,10.48183z" fill="#c4bec1" stroke-width="0"/><path d="M64.88798,191.85179l1.91164,-10.19541l2.54885,-4.35429l-2.65505,9.5582z" fill="#aca7a9" stroke-width="0"/></g></g><g stroke-width="0"><path d="M182.94676,164.02132l2.55497,-3.3292c0,0 1.80745,-1.43633 2.63239,-1.16135c0.94058,0.31353 2.70982,2.94209 2.70982,2.94209l-0.54196,4.08194c0,0 -4.28124,-0.00754 -5.54752,-0.14083c-0.57083,-0.06009 -1.80769,-2.39264 -1.80769,-2.39264z" fill="#c0c0c0"/><path d="M140.02793,173.67244c0,0 -0.17649,-2.88 0.88265,-4.01887c1.32731,-1.42722 7.40726,-3.63943 7.40726,-3.63943l-0.71057,4.73709v2.92121z" fill="#838383"/><path d="M139.85575,173.59807l8.10474,-7.4813h37.56234v7.4813z" fill="#999999"/><path d="M140.85475,172.94165l6.15973,-5.84112h33.7723v5.84112c0,0 -4.08759,0 -9.3458,0c-3.41867,0 -7.33217,-1.06202 -10.93883,-1.06202c-3.86906,0 -7.38502,1.06202 -9.5582,1.06202c-4.25316,0 -10.08921,0 -10.08921,0z" fill="#d952b3"/><path d="M144.34696,172.93946l8.36887,-5.90331h12.4641c0,0 -7.37609,1.90736 -9.74619,2.82191c-2.51615,0.9709 -5.72831,3.0814 -5.72831,3.0814z" fill="#a5899d"/><path d="M152.33614,172.8267c0,0 5.08514,-0.97211 7.54224,-0.97211c3.13957,0 9.75463,0.97211 9.75463,0.97211l-9.65406,-0.33521z" fill="#adadad"/><path d="M139.96033,173.57993l7.31967,-6.75165h34.96667v0.68857c0,0 -30.27679,0 -34.22342,0c-0.82548,0 -8.06292,6.06308 -8.06292,6.06308z" fill="#8a8a8a"/><path d="M187.12759,179.8157v-9.75534l0.65076,-7.20189c0,0 1.18716,0.46992 1.74108,1.0334c0.55392,0.56349 0.93736,1.69131 0.93736,1.69131l-1.3162,14.23253z" fill="#9e9e9e"/><path d="M181.67601,175.58492c0,0 -0.91175,-2.12492 -1.04845,-3.71406c-0.18408,-2.13996 0.67147,-7.65815 0.67147,-7.65815l1.94142,-0.32536c0,0 0.75887,0.79178 1.23675,0.64263c0.65886,-0.20564 2.35085,-1.76235 2.35085,-1.76235l-0.50264,12.81729z" fill="#9c9c9c"/><path d="M182.24995,177.41561c-0.78239,-1.10443 -0.54196,-2.47755 -0.54196,-2.47755l4.87767,-7.20037c0,0 1.39362,3.88381 1.39362,4.80025c0,2.60554 1.0065,7.35522 1.0065,7.35522c0,0 -2.9801,0.08374 -4.01897,-0.35489c-1.24597,-0.52608 -1.93447,-1.01822 -2.71686,-2.12265z" fill="#888888"/><path d="M184.03067,176.64137c-0.98826,-1.99976 -1.99879,-6.4628 -0.15485,-10.52958c1.84394,-4.06678 4.25828,-1.93558 4.25828,-1.93558c0,0 1.0065,4.42298 1.0065,6.73583c0,2.10684 -1.0065,6.58098 -1.0065,6.58098c0,0 -3.11518,1.14811 -4.10344,-0.85166z" fill="#b4b4b4"/><path d="M188.19248,168.94605c0,1.41107 -5.10994,1.48849 -5.10994,0.07742c0,-1.41107 3.05873,-6.81325 3.87117,-6.81325c0.31465,0 0.9585,0.10186 1.15498,1.16253c0.31085,1.67806 0.08379,4.70872 0.08379,5.5733z" fill="#bbbbbb"/></g><g stroke-width="0"><path d="M124.04614,172.47902c0,0 -5.85657,-4.91733 -5.85657,-6.79074c0,-1.52964 6.03622,-1.65277 6.03622,-1.65277l7.54527,0.07185l-4.02415,10.77896z" fill="#f399c8"/><path d="M93.52005,174.12068c0,0 -0.97008,-2.09785 -0.71282,-3.17056c0.28391,-1.18383 2.34421,-4.78873 2.34421,-4.78873l23.03815,-0.18567l9.12618,8.62317z" fill="#ee96c3"/></g></g><g stroke-width="0"><g><path d="M189.00839,154.39542v-6.18182h47.81819v6.18182z" fill="#61585b"/><path d="M188.84514,151.15186v-3.31035h48v3.31035c0,0 -8.64086,0 -17.51724,0c-2.77525,0 -6.67697,1.51724 -9.24138,1.51724c-3.04939,0 -6.31981,-1.51724 -8.27587,-1.51724c-5.86531,0 -12.96551,0 -12.96551,0z" fill="#494344"/><path d="M250.67251,144.54665l-9.33334,-18.93295h20.91925l15.42857,16.77431c0,0 -5.71017,1.36139 -8.94219,1.61965c-4.9873,0.39852 -18.0723,0.539 -18.0723,0.539z" fill="#5e555b"/><path d="M250.67458,147.98174v-5.53849c0,0 12.29849,-1.45312 17.19061,-2.23276c3.88254,-0.61874 6.68818,-1.20079 6.68818,-1.20079l5.93939,6.93878c0,0 -5.33243,1.59614 -9.48028,2.04006c-5.6202,0.60149 -20.3379,-0.00679 -20.3379,-0.00679z" fill="url(#color-5)"/><path d="M239.64429,125.77247v-3.99618h19.15151l3.63637,3.99618z" fill="url(#color-6)"/><path d="M250.09084,148.00668v-1.25922c0,0 15.6097,-0.07641 20.99621,-0.24394c4.02778,-0.12527 8.44824,-1.7021 8.44824,-1.7021l0.88889,1.14473l-8.22222,2.06053z" fill="#312c30"/><g><path d="M149.07119,137.40607l-0.22645,-8.85837h93.92533l7.64052,11.28181z" fill="#8a6672"/><path d="M165.61046,145.69171c0,0 -3.51955,-3.60577 -6.32423,-5.06737c-2.80468,-1.4616 -9.86588,-1.22417 -9.86588,-1.22417l0.11221,-2.08709c0,0 12.3233,0.27642 19.35261,0.37162c16.79209,0.22743 80.96442,0.98707 80.96442,0.98707l3.62319,6.56703z" fill="#755761"/><path d="M168.45895,148.18262l-3.02541,-2.59179l87.58636,-0.48936l1.20548,3.08114z" fill="#694e57"/><path d="M148.67998,128.94382v-4.52899l90.80616,-0.67935l3.84964,5.66123c0,0 2.75513,3.33803 -2.5311,3.31273c-1.66412,-0.00796 -10.78502,-3.37645 -12.45332,-3.38443c-16.06674,-0.07688 -79.67138,-0.38119 -79.67138,-0.38119z" fill="#916b77"/><path d="M148.92192,124.41493l-0.11882,-2.52452l89.9088,-0.13873l1.04522,2.39227z" fill="#9e7582"/><path d="M223.0477,125.0988c-8.06783,-0.64793 -72.73164,-1.68027 -72.73164,-1.68027h87.85406l4.80077,7.44119c0,0 -11.85536,-5.11299 -19.92319,-5.76092z" fill="#b38f9a"/></g><path d="M199.3308,148.1798v-9.17377h20.21223v9.17377z" fill="#3a3336"/><path d="M199.24296,139.01017l0.71646,-1.52248h18.53842l0.98513,1.52248z" fill="#4b4246"/><path d="M199.47096,147.68043v-8.17757c0,0 1.05913,5.26585 3.71708,6.37213c2.65795,1.10628 15.93033,1.80544 15.93033,1.80544z" fill="#332c30"/><path d="M240.90007,127.99632l-3.92,-6c0,0 1.02294,-0.66667 1.62358,-0.66667c0.67145,0 2.21642,0.66667 2.21642,0.66667l3.92,6z" fill="#757575"/><path d="M243.92046,132.73093l-5.63429,-8.61224h3.84l5.63429,8.61224z" fill="#5a5a5a"/><path d="M248.16536,139.17989l-5.63429,-8.61224h3.84l5.63429,8.61224z" fill="#505050"/><path d="M252.55439,145.8596c-0.96232,-1.47095 -4.71715,-7.21036 -4.71715,-7.21036h3.84l6.61388,10.32653c0,0 -2.05581,0.5355 -3.00533,0.52068c-0.74064,-0.01157 -2.30707,-2.98825 -2.7314,-3.63685z" fill="#3b3b3b"/><path d="M147.5291,140.00421v-18.67475h3.18096v18.67475z" fill="#443e42"/><path d="M128.65293,141.60316l-0.68571,-5.92801h20.22857v5.92801z" fill="url(#color-7)"/><path d="M127.96722,136.30579v-10.84699h20.22857v10.84699z" fill="#5e555b"/><path d="M127.96722,125.58506l0.8,-4.16222h19.42857v4.16222z" fill="url(#color-8)"/><path d="M198.26781,121.62009v-6.13333l15.02222,1.06667l4.62222,4.71111z" fill="#5e555b"/><path d="M217.91229,121.62009l-4.62222,-4.97778c0,0 3.01619,0.69063 5.24444,1.68889c2.22825,0.99826 5.86667,3.28889 5.86667,3.28889z" fill="#776b73"/><path d="M195.24558,122.77564l3.2,-1.24444l25.6,-0.26667l3.64444,1.51111z" fill="#6d6269"/></g><g><path d="M200.77736,144.20967c0,-1.24882 0.51035,-2.40553 0.89895,-3.43512c0.54149,-1.43466 1.14398,-2.62247 2.43777,-3.46866c0.79026,-0.51686 1.92752,-0.90627 2.91647,-1.14663c0.65411,-0.15897 1.65325,-0.55904 2.35626,-0.55904c1.5937,0 1.93602,0.08173 3.08575,0.57776c0.69256,0.29879 2.33203,0.7479 2.86702,1.42002c0.45281,0.56889 0.92861,1.51743 1.27029,2.19706c0.58392,1.16147 1.38639,3.02598 1.38639,4.41461c0,0.58683 -0.49194,1.92528 -0.54161,2.44075c-0.15767,1.63645 -0.15841,2.14606 -1.3719,3.24954c-0.73755,0.67069 -2.2448,1.21851 -3.22858,1.62849c-1.01884,0.42459 -2.29467,1.29066 -3.46735,1.29066c-0.7915,0 -2.2196,-0.53498 -2.98637,-0.67118c-1.66356,-0.29548 -2.55565,-0.46991 -3.58515,-1.61009c-0.88282,-0.97774 -1.14348,-2.57607 -1.5077,-3.93368c-0.19134,-0.71322 -0.53023,-1.62089 -0.53023,-2.3945z" fill="#3a3a3a"/><path d="M201.50836,144.09107c0,-1.14279 0.46702,-2.20129 0.82263,-3.14345c0.49552,-1.31285 1.04684,-2.3998 2.23078,-3.17415c0.72316,-0.47298 1.76387,-0.82933 2.66885,-1.04927c0.59857,-0.14548 1.51288,-0.51157 2.1562,-0.51157c1.45839,0 1.77164,0.07479 2.82375,0.5287c0.63376,0.27342 2.13403,0.68439 2.62359,1.29945c0.41437,0.52059 0.84976,1.3886 1.16243,2.01052c0.53435,1.06286 1.26868,2.76905 1.26868,4.03978c0,0.537 -0.45018,1.76181 -0.49562,2.23351c-0.14428,1.4975 -0.14496,1.96385 -1.25541,2.97364c-0.67493,0.61374 -2.0542,1.11504 -2.95445,1.49022c-0.93234,0.38854 -2.09984,1.18108 -3.17296,1.18108c-0.7243,0 -2.03115,-0.48956 -2.73282,-0.61419c-1.52231,-0.27039 -2.33866,-0.43001 -3.28074,-1.47339c-0.80787,-0.89473 -1.04639,-2.35734 -1.37968,-3.59969c-0.17509,-0.65267 -0.48521,-1.48327 -0.48521,-2.19119z" fill="#5a5a5a"/><path d="M213.70036,139.56169c-2.04494,-2.38577 -7.13842,-2.58639 -7.13842,-2.58639c0,0 1.94227,-0.54001 3.93244,-0.53308c1.61208,0.00561 3.18444,0.37007 4.34399,1.67109c1.16048,1.30206 1.55436,2.78677 1.84117,4.18221c0.56232,2.73599 0.12449,5.12878 0.12449,5.12878c0,0 -1.05872,-5.47685 -3.10366,-7.86261z" fill="#6d6d6d"/><path d="M208.37342,144.58055c0,-0.57571 0.46671,-1.04242 1.04242,-1.04242c0.57571,0 1.04242,0.46671 1.04242,1.04242c0,0.57571 -0.46671,1.04242 -1.04242,1.04242c-0.57571,0 -1.04242,-0.46671 -1.04242,-1.04242z" fill="#272727"/><path d="M208.29439,144.71737c0,-0.52803 0.42805,-0.95609 0.95609,-0.95609c0.52803,0 0.95609,0.42805 0.95609,0.95609c0,0.52803 -0.42805,0.95609 -0.95609,0.95609c-0.52803,0 -0.95609,-0.42805 -0.95609,-0.95609z" fill="#131313"/></g></g></g></g></g><path d="M119.42693,254.60537c0,-1.58468 -4.25851,-44.21068 -3.76316,-45.88584c0.66882,-2.26179 9.14996,-0.91114 12.11412,-2.41895c9.07817,-4.61788 18.8912,-9.20496 18.8912,-9.20496c0,0 14.06833,0.58048 18.30485,0.58048c3.16812,0 50.59159,-5.87259 51.33301,4.44896c1.00564,13.99995 -28.62679,-0.33614 -28.62679,11.79449c0,3.07093 2.40972,3.26643 1.84401,6.41363c-0.13578,0.75537 -2.48751,5.93423 -2.71184,7.6103c-0.35611,2.66054 2.93902,6.66306 -0.37114,9.76234c-2.63866,2.47056 -0.70669,7.48742 -1.34546,8.70303c-4.40184,8.37695 -12.7307,4.57253 -21.74358,4.57253c-10.68601,0 -26.23612,3.72333 -35.61971,2.486c-4.05054,-0.53411 -8.30549,5.75073 -8.30549,1.13799z" fill="#86c8f5" stroke-width="0"/><path d="M378.43309,195.50469c4.88264,1.15253 4.73614,7.98301 2.40841,15.68386c-2.32773,7.70085 -7.18,13.1645 -10.83786,12.20339c-3.65785,-0.96111 -4.73614,-7.98301 -2.40841,-15.68386c2.32773,-7.70085 5.21272,-13.53118 10.83786,-12.20339z" data-paper-data="{&quot;index&quot;:null}" fill="#86c8f5" stroke-width="0"/><path d="M355.63874,204.8041c2.32773,-7.70085 4.58476,-11.77473 10.2099,-10.44694c4.88265,1.15253 5.36411,6.22657 3.03638,13.92742c-2.32773,7.70086 -7.18,13.16449 -10.83786,12.20339c-3.65785,-0.96111 -4.73614,-7.98301 -2.40841,-15.68386z" data-paper-data="{&quot;index&quot;:null}" fill="#86c8f5" stroke-width="0"/><path d="M342.42633,208.9259c2.32773,-7.70085 5.52671,-14.70215 11.15185,-13.37435c4.88265,1.15253 4.42216,9.15397 2.09443,16.85482c-2.32773,7.70085 -6.55204,9.06613 -10.2099,8.10502c-3.65786,-0.96111 -5.36411,-3.88465 -3.03638,-11.5855z" data-paper-data="{&quot;index&quot;:null}" fill="#86c8f5" stroke-width="0"/><path d="M340.99372,197.62413c4.88265,1.15253 5.36411,6.22657 3.03638,13.92742c-2.32773,7.70085 -6.55204,9.06613 -10.2099,8.10502c-3.65786,-0.96111 -5.36411,-3.88465 -3.03638,-11.5855c2.32773,-7.70085 4.58476,-11.77473 10.2099,-10.44694z" data-paper-data="{&quot;index&quot;:null}" fill="#86c8f5" stroke-width="0"/><g stroke-width="0"><g><path d="M115.30612,272.06478v-5.58192c0,0 2.24134,0.17803 3.09591,-0.78562c1.20734,-1.36147 3.68104,-6.50131 3.68104,-6.50131l0.63371,8.09377c0,0 -3.08015,3.19849 -4.61858,4.09591c-1.11073,0.64792 -2.79208,0.67917 -2.79208,0.67917z" fill="#4d484c"/><g><g><path d="M74.57031,260.71477l4.09836,-5.56206c0,0 15.90246,-8.94879 22.51273,-12.84032c5.08481,-2.99348 13.20155,-7.94422 13.20155,-7.94422l2.63466,26.3466z" fill="#eb59c1"/><path d="M76.03402,249.59067l-0.58548,-29.274c0,0 19.12805,8.76111 26.00916,11.71784c4.99335,2.14559 12.04704,11.40863 12.04704,11.40863l-5.8548,6.14754z" fill="#dd54b6"/><path d="M74.57031,232.61174l0.29274,-30.44497c0,0 12.56493,13.74578 17.19561,14.51148c6.86178,1.13462 19.68964,-1.63092 19.68964,-1.63092v26.05387z" fill="#ff77d8"/><path d="M76.91224,219.73118v-14.05152l33.37237,-2.9274l2.34192,16.97893z" fill="#ee51c1"/></g><g><g><path d="M71.9329,250.20903l-5.04081,-40.80653h8.40134l5.04081,40.80653z" fill="#a59da1"/><path d="M66.85683,209.59308c0,0 -0.77502,-4.49219 1.02281,-5.77397c1.79783,-1.28179 6.88002,-1.53502 6.88002,-1.53502l0.51222,7.309z" fill="#b9b0b5"/><path d="M73.71295,260.85411l-1.72142,-10.67283h8.3612l1.72142,10.67283z" fill="#8b8488"/></g><g><path d="M112.12455,246.81228l-5.0408,-40.80652h4.53919l5.04081,40.80652z" fill="#a59da1"/><path d="M107.24323,207.00311l-0.81476,-6.4412c0,0 2.93473,-0.68041 3.99026,0.4693c1.05554,1.14971 1.18264,5.16513 1.18264,5.16513z" fill="#b9b0b5"/><path d="M113.8921,257.45741l-1.72142,-10.67283h4.51156l1.72143,10.67283z" fill="#8b8488"/></g><path d="M74.67221,269.4301c0,0 -3.27017,-2.74278 -3.66783,-4.22738c-0.44267,-1.65263 1.13233,-5.23847 1.13233,-5.23847l47.66734,-4.39486c0,0 2.01411,2.33386 2.43561,3.82022c0.59079,2.08332 -3.61884,6.9979 -3.61884,6.9979z" fill="#494547"/><path d="M75.08486,206.21524c0,0 -2.31638,-0.56733 -2.74708,-1.14159c-0.47297,-0.63062 0.80931,-2.71322 0.80931,-2.71322c0,0 12.04404,-1.01196 17.32119,-1.3341c6.15195,-0.37555 16.58511,-0.55937 16.58511,-0.55937c0,0 0.53109,1.22391 0.44575,1.8213c-0.08265,0.57856 -0.54659,1.70835 -0.54659,1.70835z" fill="#c2b8bd"/><path d="M75.02738,268.20939c0,0 -1.23479,-2.83529 -1.47689,-4.5109c-0.20092,-1.39059 0.12463,-3.64793 0.12463,-3.64793l44.84588,-4.0568c0,0 2.0284,3.15294 2.0284,4.81563c0,1.78617 -2.0284,4.3574 -2.0284,4.3574z" fill="#6f696b"/><path d="M86.14949,273.6391v-5.58191l29.79347,-1.6048v5.58191z" fill="#333032"/><path d="M74.61661,273.76054c-1.11073,-0.64792 -2.79073,-2.11366 -2.79073,-2.11366l-0.8698,-6.81935c0,0 2.47371,2.27238 3.68105,3.63385c0.85456,0.96366 11.55977,-0.51568 11.55977,-0.51568v5.58191c0,0 -10.46956,0.88086 -11.58029,0.23293z" data-paper-data="{&quot;index&quot;:null}" fill="#444043"/><g><path d="M74.39042,221.18343c0,0 -2.58474,-4.74214 -2.61104,-6.48433c-0.01821,-1.2062 2.46837,-2.96541 2.46837,-2.96541l35.06195,-3.02441c0,0 1.59371,3.12385 1.61722,4.68127c0.02403,1.59175 -1.47456,4.76847 -1.47456,4.76847z" fill="#979797"/><path d="M74.44384,220.11737c0,0 -2.60567,-4.19723 -2.63981,-5.73506c-0.02364,-1.06472 2.45459,-2.60626 2.45459,-2.60626l35.04225,-2.51145c0,0 1.60752,2.7644 1.63804,4.13914c0.0312,1.40504 -1.45282,4.20217 -1.45282,4.20217z" fill="#a2a2a2"/></g><g><path d="M76.77119,237.72308c0,0 -2.58474,-4.74214 -2.61104,-6.48433c-0.01821,-1.2062 2.46837,-2.96541 2.46837,-2.96541l35.06195,-3.02441c0,0 1.59371,3.12385 1.61722,4.68127c0.02403,1.59175 -1.47456,4.76846 -1.47456,4.76846z" fill="#979797"/><path d="M76.8246,236.65704c0,0 -2.60566,-4.19723 -2.6398,-5.73506c-0.02365,-1.06471 2.45458,-2.60626 2.45458,-2.60626l35.04225,-2.51144c0,0 1.60752,2.7644 1.63804,4.13914c0.03119,1.40504 -1.45282,4.20217 -1.45282,4.20217z" fill="#a2a2a2"/></g><g><path d="M79.25896,254.75798c0,0 -2.58474,-4.74214 -2.61104,-6.48433c-0.01821,-1.2062 2.46837,-2.96541 2.46837,-2.96541l35.06195,-3.02441c0,0 1.59371,3.12385 1.61722,4.68127c0.02403,1.59175 -1.47456,4.76846 -1.47456,4.76846z" fill="#7a7a7a"/><path d="M79.31237,253.69196c0,0 -2.60567,-4.19723 -2.63981,-5.73507c-0.02365,-1.06471 2.45458,-2.60625 2.45458,-2.60625l35.04226,-2.51145c0,0 1.60751,2.7644 1.63804,4.13914c0.03119,1.40504 -1.45282,4.20218 -1.45282,4.20218z" fill="#929292"/></g></g></g></g><path d="M72.54873,254.16292c0,0 -0.38554,-1.71644 -0.69034,-4.02706c-0.89486,-6.78376 -5.20568,-40.66979 -5.20568,-40.66979l3.16798,4.30298l3.39579,29.42473z" fill="#777275"/></g></g></g></svg>