<svg version="1.1" xmlns="http://www.w3.org/2000/svg" xmlns:xlink="http://www.w3.org/1999/xlink" width="467.31578" height="339.49042" viewBox="0,0,467.31578,339.49042"><defs><linearGradient x1="531.45467" y1="239.94757" x2="530.44171" y2="244.65128" gradientUnits="userSpaceOnUse" id="color-1"><stop offset="0" stop-color="#1f1d20"/><stop offset="1" stop-color="#202022"/></linearGradient><linearGradient x1="532.90644" y1="235.29379" x2="531.74097" y2="240.70593" gradientUnits="userSpaceOnUse" id="color-2"><stop offset="0" stop-color="#302d31"/><stop offset="1" stop-color="#1f1e20"/></linearGradient><linearGradient x1="195.50512" y1="211.80601" x2="194.79139" y2="215.11998" gradientUnits="userSpaceOnUse" id="color-3"><stop offset="0" stop-color="#585758"/><stop offset="1" stop-color="#575758"/></linearGradient><linearGradient x1="180.564" y1="218.89791" x2="180.0037" y2="221.49967" gradientUnits="userSpaceOnUse" id="color-4"><stop offset="0" stop-color="#363536"/><stop offset="1" stop-color="#353536"/></linearGradient><linearGradient x1="340.25448" y1="158.35845" x2="339.08853" y2="163.77285" gradientUnits="userSpaceOnUse" id="color-5"><stop offset="0" stop-color="#5e555b"/><stop offset="1" stop-color="#2b2629"/></linearGradient><linearGradient x1="335.06646" y1="136.10045" x2="334.22521" y2="140.00703" gradientUnits="userSpaceOnUse" id="color-6"><stop offset="0" stop-color="#72676e"/><stop offset="1" stop-color="#5e555b"/></linearGradient><linearGradient x1="221.71528" y1="125.90751" x2="220.46723" y2="131.70271" gradientUnits="userSpaceOnUse" id="color-7"><stop offset="0" stop-color="#5e555b"/><stop offset="1" stop-color="#4d454a"/></linearGradient><linearGradient x1="224.71573" y1="111.97464" x2="223.83948" y2="116.04361" gradientUnits="userSpaceOnUse" id="color-8"><stop offset="0" stop-color="#74686f"/><stop offset="1" stop-color="#5e555b"/></linearGradient></defs><g transform="translate(-69.21541,-110.01381)"><g data-paper-data="{&quot;isPaintingLayer&quot;:true}" fill-rule="nonzero" stroke="none" stroke-linecap="butt" stroke-linejoin="miter" stroke-miterlimit="10" stroke-dasharray="" stroke-dashoffset="0" style="mix-blend-mode: normal"><g><g stroke-width="0"><path d="M258.67305,210.07413l-6.77033,-17.15508l25.12653,4.80731c0,0 -2.30095,5.46693 -3.0645,8.06288c-0.73856,2.51118 -1.4443,7.26688 -1.4443,7.26688z" fill="#7f7d7e"/><path d="M258.72786,210.28713l-2.37764,-6.2475c0,0 1.55728,3.97193 4.59146,5.25418c2.18488,0.9233 4.09404,1.01739 6.64788,1.8955c2.55381,0.87815 4.79337,2.03847 4.79337,2.03847z" fill="#6c6a6b"/></g><g><g><g><path d="M527.5176,244.0216l-0.99991,-5.13724c0,0 5.50824,2.88209 7.85941,4.30169c2.35123,1.41969 0.60801,2.20648 0.60801,2.20648z" fill="url(#color-1)" stroke-width="0"/><path d="M536.36864,236.24361c0,0 0.95642,2.5871 -1.7707,2.9132c-2.7271,0.32606 -5.82255,0.9105 -5.82255,0.9105l0.21664,-5.6165z" data-paper-data="{&quot;index&quot;:null}" fill="url(#color-2)" stroke-width="0"/><path d="M518.11626,241.99231l0.44175,-2.05132l14.44147,3.11001c0,0 1.0622,1.04125 1.46194,1.502c0.35938,0.41418 -0.91614,0.76199 -0.91614,0.76199z" fill="#444444" stroke-width="NaN"/><path d="M518.56078,240.08825l-0.79472,-1.96523l12.33294,2.65592l2.97228,2.31981c0,0 -4.17343,-0.65532 -6.43029,-1.1235c-2.54525,-0.52809 -8.08021,-1.88698 -8.08021,-1.88698z" fill="#535353" stroke-width="0"/><path d="M517.6276,238.23306l-0.18276,-0.694l11.21662,2.41548l1.53703,0.86876z" fill="#363636" stroke-width="0"/><path d="M518.11626,241.99231l0.23965,-1.11287c0,0 6.21349,1.80209 9.02873,2.40836c2.38566,0.51375 6.78841,0.99791 6.78841,0.99791c0,0 0.74748,0.63379 0.9465,0.88419c0.16797,0.21121 -0.3427,0.41034 -0.3427,0.41034c0,0 -4.71188,-0.60097 -6.97372,-1.08806c-3.05159,-0.65714 -9.68681,-2.49983 -9.68681,-2.49983z" fill="#3a3a3a" stroke-width="NaN"/><path d="M517.7548,237.62444l-0.35505,-0.98044l13.33591,2.87195l-1.97394,0.51354z" fill="#242424" stroke-width="0"/><path d="M516.56991,236.6589l0.3483,-1.61725c0,0 7.9554,1.50231 10.88394,2.13296c1.9953,0.42972 4.98869,1.28527 4.98869,1.28527l-2.08657,1.07415z" fill="#3a3a3a" stroke-width="0"/><path d="M516.78258,235.05595l0.43003,-1.99682c0,0 7.55122,1.28873 10.79125,1.98645c2.80375,0.60379 7.52989,1.95905 7.52989,1.95905l-2.79398,1.4877c0,0 -3.55565,-0.85009 -5.74977,-1.32259c-2.91652,-0.62805 -10.20732,-2.11382 -10.20732,-2.11382z" fill="#444444" stroke-width="0"/><path d="M517.15249,233.1333l0.17917,-0.83201c0,0 7.72337,1.53672 11.23997,2.294c2.44866,0.52734 7.84096,1.81513 7.84096,1.81513l-1.02483,0.64983c0,0 -4.87995,-1.34615 -7.77873,-1.97043c-3.19369,-0.68776 -10.45654,-1.95657 -10.45654,-1.95657z" fill="#535353" stroke-width="0"/><path d="M517.18708,232.35723l0.07171,-0.33278c0,0 7.61105,1.12038 10.99383,1.84887c2.92469,0.62984 8.1293,2.26931 8.1293,2.26931l-0.03492,0.34074c0,0 -5.83951,-1.42627 -9.01181,-2.10946c-3.21377,-0.69211 -10.14806,-2.01667 -10.14806,-2.01667z" fill="#4e4e4e" stroke-width="0"/></g><g stroke-width="0"><g><g><g><path d="M512.49642,240.28283l-1.70779,-13.83323l0.903,-1.56638c0,0 2.71713,3.88835 3.09456,6.5171c0.20493,1.42714 -0.86768,9.18863 -0.86768,9.18863z" fill="#383638"/><path d="M513.66958,239.8282c0,0 0.18545,-0.58376 0.08768,-3.11592c-0.10653,-2.76145 -0.70216,-6.61014 -0.86033,-7.74279c-0.3552,-2.54251 -1.06571,-2.82892 -1.06571,-2.82892l4.81497,0.44176l2.00029,14.31776z" fill="#555355"/><path d="M511.8758,226.23744l-0.30849,-1.33117c0,0 2.14334,-0.35681 3.08335,-0.15431c0.8809,0.18966 1.83765,1.1397 1.83765,1.1397l0.2932,1.40223z" fill="#686668"/></g><path d="M506.95088,239.08864l-1.70779,-13.83322l0.57536,-1.61625c0,0 3.04474,3.93834 3.42216,6.56703c0.20492,1.42713 -0.86767,9.18862 -0.86767,9.18862z" fill="#383638"/><path d="M508.12404,238.63402c0,0 0.18545,-0.58377 0.08769,-3.11591c-0.10653,-2.76145 -0.70216,-6.61014 -0.86033,-7.74279c-0.3552,-2.54251 -1.06571,-2.82892 -1.06571,-2.82892l4.18699,-0.20495c0,0 0.73907,1.44215 0.84734,2.21707c0.3085,2.20794 1.78086,12.74738 1.78086,12.74738z" fill="#555355"/><path d="M506.33022,225.04314l-0.52177,-1.37714c0,0 2.35665,-0.31083 3.29674,-0.10837c0.8809,0.18966 1.55324,1.0785 1.55324,1.0785l0.41542,1.42857z" fill="#686668"/><path d="M514.67882,239.02903c0.17247,-0.80115 0.96188,-1.31071 1.76301,-1.13825c0.80116,0.17248 1.31071,0.96188 1.13825,1.76301c-0.17247,0.80115 -0.96188,1.31071 -1.763,1.13825c-0.80116,-0.17248 -1.31071,-0.96188 -1.13825,-1.76301z" fill="#312f31"/><path d="M515.9364,236.30341l-0.78691,-5.84312l1.58587,0.1949l0.77335,5.90621z" fill="#444144"/></g><path d="M469.54539,225.95298l-1.40168,-11.37353l28.96497,7.4411l-2.49095,9.3318z" fill="#444444"/><path d="M482.72726,224.78642c0,0 0.73163,-0.37635 1.67028,-1.30444c0.85836,-0.84847 1.90669,-2.23683 2.38035,-2.60919c1.31265,-1.46293 3.53963,-0.50576 3.53963,-0.50576l-1.09506,0.43219l-5.37788,4.22787z" fill="#292929"/><path d="M483.24717,235.6692l-4.05854,-12.09689c0,0 3.30849,1.25594 5.19479,0.58906c1.4658,-0.51828 1.92785,-3.11104 3.52901,-3.05364c4.59383,0.16491 17.27109,2.45115 17.27109,2.45115c0,0 1.66328,7.66697 1.96196,10.68456c0.20617,2.08321 -0.32462,6.50254 -0.32462,6.50254z" fill="#4a464a"/><path d="M490.05122,223.72546c-4.32465,-1.58191 -2.62903,-2.61201 -2.62903,-2.61201c0,0 1.0491,-1.10612 2.90535,-0.85592c4.55519,0.61408 12.88301,2.99761 14.57214,3.33513c0.7966,0.15913 0.1923,0.75319 0.1923,0.75319c0,0 -1.95835,2.01894 -3.52763,1.94082c-1.56942,-0.07813 -7.18843,-0.97922 -11.51315,-2.56119z" fill="#5e595e"/></g><g><path d="M470.32347,239.61211l-1.26974,-18.62008l18.42373,4.26047l3.78067,5.24178l5.98326,1.18769l0.07612,13.74341z" fill="#4d4846"/><path d="M474.82745,240.97809l22.17045,-4.83236l21.87247,4.46231c0,0 0.40198,4.36532 0.2566,5.71967c-0.07419,0.6905 -0.77132,2.84548 -0.77132,2.84548z" fill="#423d3b"/><path d="M472.8488,232.05042l-1.03538,-10.29484l0.80212,0.17276l1.03539,10.29486z" fill="#363332"/><path d="M475.56864,240.31764l0.25627,-1.19006c0,0 5.68237,-1.38007 14.54409,0.5283c1.17743,0.25358 4.79465,3.63634 5.98139,3.8919c7.5295,1.6215 14.89937,3.20864 17.70323,3.81242c2.28342,0.49173 4.88884,-0.277 4.88884,-0.277l-0.53001,2.461z" fill="#312e2c"/><path d="M480.56752,228.36193l-0.73287,-4.87901l8.12152,1.74901l3.13112,5.19694l6.1243,1.51743l-7.82989,0.30724z" fill="#585350"/><path d="M469.81387,233.23284l0.23752,-1.1029c0,0 8.65362,-1.96583 11.46639,-1.36011c4.23916,0.9129 15.94217,3.43314 15.94217,3.43314l-0.23752,1.1029c0,0 -11.90368,-2.56346 -16.14274,-3.4764c-2.75497,-0.59331 -11.26588,1.40328 -11.26588,1.40328z" fill="#2b2827"/></g></g></g><g><g><g><path d="M133.70147,204.48219c0.05839,2.2978 -0.78929,4.76418 -1.91142,4.79264c-1.12214,0.0285 -2.09391,-2.39163 -2.15228,-4.68943c-0.05839,-2.2978 -0.34051,-11.12538 0.78173,-11.15395c1.12214,-0.0285 3.22368,8.75292 3.28205,11.05069z" fill="#615e5f" stroke-width="0"/><g><path d="M180.66262,183.98031c-0.41617,-0.62932 -2.42805,-2.40507 -2.42805,-2.40507l10.304,-0.72706l-7.38131,5.77549c0,0 -0.07845,-2.01403 -0.49462,-2.64335z" fill="#756a6a" stroke-width="0"/><path d="M172.19567,180.42079l2.8912,-13.42558l19.35304,-1.83343l-4.12627,19.16075z" fill="#8a7c7c" stroke-width="0"/><path d="M131.91035,177.31721l10.33475,-16.32343l34.17848,7.22408l1.76511,13.33714c0,0 -22.80646,-3.29925 -30.52644,-4.00611c-3.20465,-0.29346 -15.75196,-0.23155 -15.75196,-0.23155z" fill="#7c787a" stroke-width="0"/><path d="M141.85452,163.36962l0.16709,-1.47946c0,0 25.34323,5.45769 33.31041,7.17344c4.45766,0.9599 17.12737,-2.82799 17.12737,-2.82799l-0.34312,1.59317c0,0 -12.37799,3.83105 -16.68613,2.88829c-7.89937,-1.72864 -33.57567,-7.3474 -33.57567,-7.3474z" fill="#535353" stroke-width="0"/><path d="M100.40078,171.25568l4.24294,-19.70229c0,0 5.91466,-5.94219 13.47982,-6.66156c9.39625,-0.89347 25.53074,4.40704 27.55497,4.84297c1.55334,0.33456 -14.81125,7.46586 -14.81125,7.46586l-4.24294,19.70229z" fill="#8d898b" stroke-width="0"/><path d="M279.18638,162.5568l2.22865,-2.73638l105.12437,22.78481l-3.10446,14.41577c0,0 -37.32244,-6.14961 -49.18176,-9.12919c-5.88968,-1.47975 -55.06682,-25.33502 -55.06682,-25.33502z" fill="#c98cac" stroke-width="0"/><path d="M236.74473,256.73251l-1.71837,-13.60306c0,0 3.79358,6.7903 6.35067,8.44253c1.62921,1.05271 5.68029,2.31556 12.16721,1.21924c5.22225,-0.88256 11.43527,-5.18168 11.43527,-5.18168l-14.54493,12.07112z" fill="#a08e97" stroke-width="0"/><path d="M335.08348,229.9183l2.68735,-23.58423l18.42701,2.5334l-4.46249,20.72194c0,0 -6.61594,0.33376 -9.46609,0.43431c-1.3123,0.04628 -7.18583,-0.10543 -7.18583,-0.10543z" fill="#96858d" stroke-width="0"/><path d="M234.15971,260.00753l1.16634,-5.41599c0,0 11.35739,4.56178 16.5305,2.48296c2.51761,-1.01171 23.39851,-17.92733 34.92279,-27.34422c4.49733,-3.67491 7.56977,-6.20782 7.56977,-6.20782c0,0 4.07839,-2.98137 4.68908,-5.79819c0.30716,-1.41695 1.64633,-5.40307 1.32004,-7.83769c-0.32922,-2.45639 -2.3253,-3.35506 -2.3253,-3.35506l-1.90562,-14.29381l19.34167,4.31218l-8.43858,25.36533l3.13458,3.29562c0,0 -10.60405,3.85406 -16.17254,7.72422c-8.71267,6.05529 -37.97449,30.83515 -37.97449,30.83515z" fill="#918189" stroke-width="0"/><path d="M312.34851,225.38309l7.2082,-27.70729l13.40882,3.16972l7.60465,13.915l-5.62807,15.48826z" fill="#96858d" stroke-width="0"/><path d="M307.53603,226.2383l-1.58022,-4.58114l8.97325,-24.85792l4.98383,0.98664l-6.67868,27.80382z" fill="#8f8187" stroke-width="0"/><path d="M333.71373,230.09014c0,0 4.09362,-5.93833 3.91037,-11.51269c-0.10551,-3.20965 -4.4917,-6.16912 -4.55639,-8.13675c-0.12357,-3.75869 -0.31476,-9.57349 -0.31476,-9.57349l6.76037,5.9199c0,0 1.81117,7.76917 1.49835,12.06103c-0.2101,2.88348 -3.00284,8.80424 -4.45584,11.14983c-0.12251,0.19771 -1.25476,-0.13126 -1.34003,0.01943c-0.20831,0.36828 0.6856,0.79737 0.6856,0.79737z" fill="#86787e" stroke-width="0"/><path d="M338.98776,208.2082c0,0 -2.18895,-4.51697 -6.562,-6.45262c-4.95074,-2.19133 -21.62499,-6.02365 -21.62499,-6.02365l157.18785,19.34376l1.3807,9.81236l5.39459,12.55987c0,0 -97.9917,-23.73311 -118.11855,-28.0674c-6.56769,-1.4144 -17.65763,-1.17222 -17.65763,-1.17222z" fill="#df8db7" stroke-width="0"/><path d="M178.27257,221.96218l2.94525,-36.46709c0,0 2.43513,-3.31228 2.97046,-3.41758c5.90229,-1.16133 39.46341,-4.82987 44.7205,-3.40485c5.75882,1.56096 -11.53188,10.03939 -11.53188,10.03939c0,0 -14.51339,-1.05314 -17.88888,2.56726c-4.58295,4.9154 -3.49755,22.90055 -3.49755,22.90055z" fill="#c77da3" stroke-width="0"/><path d="M255.37067,207.95031l-1.30614,-2.43482c0,0 8.22385,-7.03289 11.08561,-8.76186c2.95445,-1.78508 6.37174,-1.78575 6.37174,-1.78575l5.31776,3.50011c0,0 -4.26995,-1.43368 -6.94207,-0.25342c-2.29386,1.0131 -6.61004,3.23292 -9.99849,5.66647c-2.46484,1.77018 -4.52839,4.06929 -4.52839,4.06929z" fill="#414041" stroke-width="0"/><path d="M141.76264,162.27956l7.15338,-10.41703l47.53861,10.23752c0,0 -3.77162,3.74543 -7.2352,5.01076c-3.39938,1.24187 -13.35742,2.51207 -13.35742,2.51207z" fill="#979395" stroke-width="0"/><path d="M142.78527,161.33069l6.37129,-10.58548l47.53861,10.23752c0,0 -3.77162,3.74543 -7.2352,5.01076c-3.39938,1.24187 -13.35742,2.51207 -13.35742,2.51207z" fill="#bdb7ba" stroke-width="0"/><path d="M336.00042,230.91063l-1.72284,-0.89637l17.35018,-0.53411c0,0 -3.91367,1.26174 -6.50972,1.51784c-2.59604,0.25614 -9.1176,-0.08749 -9.1176,-0.08749z" fill="#887980" stroke-width="0"/><path d="M180.60481,222.93961c0,0 -0.08448,-10.72366 0.53886,-19.32356c0.62645,-8.6419 1.23876,-16.74126 1.97186,-20.2503c0.12421,-0.59449 3.82604,-9.95563 4.42435,-10.36013c3.22972,-2.18348 9.16778,7.01643 14.83954,7.10902c8.39799,0.13708 27.18643,3.65732 27.18643,3.65732l-9.38227,3.41199c0,0 -19.6169,-1.29371 -23.03645,3.22486c-4.62525,6.11184 -1.61844,28.11066 -1.61844,28.11066z" fill="#d486ae" stroke-width="0"/><path d="M182.45179,219.73779c0,0 2.09268,-41.3579 5.51127,-50.9297c1.59953,-4.47856 0.23739,-14.08856 0.23739,-14.08856l48.06461,17.47925l-1.99113,16.00959c0,0 -30.67295,-9.76962 -38.2019,-4.97313c-5.02582,3.20175 -4.31519,32.24535 -4.31519,32.24535z" fill="#e490bb" stroke-width="0"/><g stroke-width="0"><path d="M331.03528,187.2976l1.7421,-8.08942l9.15019,1.97053l-1.7421,8.08942z" fill="#454545"/><path d="M332.00992,186.72514l1.18767,-7.20967l11.07233,2.38447l-1.53647,7.13456z" fill="#b0b0b0"/><path d="M332.7296,182.2882l0.37243,-2.81496l11.28415,2.43006l-0.40154,1.86464c0,0 -7.6861,-1.32532 -9.37657,-1.54758c-0.56488,-0.07422 -1.87841,0.06795 -1.87841,0.06795z" fill="#bebebe"/><path d="M343.09696,188.55064c0,0 -4.87852,-3.66457 -3.53138,-7.20804c2.00186,-5.26557 5.93013,-3.9306 5.93013,-3.9306l39.05979,9.77553l-2.11804,9.83514z" fill="#9c989a"/><path d="M345.11562,187.66657c0,0 -1.6902,-3.96355 -1.73373,-4.92106c-0.06456,-1.41925 2.50811,-3.89034 2.50811,-3.89034l40.65651,8.78954l-1.96763,7.23658z" fill="#898587"/><path d="M344.98554,187.84134l-0.58844,-2.11055l37.37494,8.04872l-0.40825,1.8959z" fill="#c1bcbf"/><path d="M345.58159,184.49797c0,0 -1.01547,-1.61802 -0.81815,-2.53436c0.18456,-0.85717 1.96648,-2.79795 1.96648,-2.79795l37.80008,8.14027l-1.14828,5.33232z" fill="#0d0d0d"/><path d="M345.41798,185.25788c0,0 -0.88834,-2.20823 -0.69105,-3.1246c0.18456,-0.85717 1.83931,-2.20764 1.83931,-2.20764l37.80009,8.14029l-1.14828,5.33232z" fill="#2e2e2e"/><path d="M340.29942,186.1025c-1.93402,-3.55377 -0.30305,-5.59261 -0.30305,-5.59261c0,0 0.92544,4.40586 1.94431,5.54348c1.20629,1.3468 4.4476,3.44214 4.4476,3.44214l-3.4449,-0.67009c0,0 -2.30355,-2.09748 -2.64389,-2.7229z" fill="#7d7a7c"/><path d="M347.89451,186.10798c0,0 -0.40332,-2.34954 -0.16254,-3.46746c0.21161,-0.98271 1.53096,-2.88683 1.53096,-2.88683l4.71521,1.01542c0,0 -0.91478,2.05752 -1.0975,2.90627c-0.25122,1.16658 -0.27084,3.44801 -0.27084,3.44801z" fill="#555555"/><path d="M356.31806,187.92204c0,0 1.18292,-2.32626 1.42359,-3.44409c0.21161,-0.98271 -0.05526,-2.91022 -0.05526,-2.91022l5.26273,1.13331c0,0 -0.76838,1.5889 -0.95116,2.4377c-0.25122,1.16658 -0.41722,3.91659 -0.41722,3.91659z" fill="#555555"/><path d="M365.43572,189.88551c0,0 1.18292,-2.32623 1.42363,-3.44413c0.21161,-0.98271 -0.05527,-2.91021 -0.05527,-2.91021l5.18446,1.11648c0,0 -0.76838,1.5889 -0.95116,2.4377c-0.25122,1.16658 -0.41722,3.91659 -0.41722,3.91659z" fill="#555555"/><path d="M374.8824,191.91992c0,0 1.28184,-1.94119 1.52259,-3.05915c0.21161,-0.98271 -0.1542,-3.29517 -0.1542,-3.29517l5.02805,1.08279c0,0 0.39204,2.1116 0.20921,2.96043c-0.25122,1.16658 -1.57762,3.39398 -1.57762,3.39398z" fill="#555555"/><path d="M348.85453,180.38585l-0.48182,-0.92209l34.76558,7.48684l-1.6683,0.45905c0,0 -2.76665,-0.59582 -5.17371,-1.11414c-0.52464,-0.11304 -1.4483,-0.64819 -2.23415,-0.81743c-0.75985,-0.16367 -1.3745,0.04025 -2.31901,-0.1631c-1.47296,-0.31722 -3.13477,-0.67508 -4.87457,-1.04972c-0.72131,-0.15533 -1.26811,-0.66544 -2.00836,-0.82484c-0.65823,-0.14172 -1.50858,0.06747 -2.16982,-0.07495c-1.64125,-0.35345 -3.26627,-0.70343 -4.7942,-1.03247c-0.70164,-0.15109 -1.29041,-0.72631 -1.94324,-0.86694c-0.79688,-0.17164 -1.64386,0.09437 -2.34207,-0.05597c-2.84818,-0.61332 -4.75643,-1.02429 -4.75643,-1.02429z" fill="#474747"/></g><g><path d="M190.81727,214.96302l4.23749,-2.02063c0,0 2.16902,3.34653 4.75111,4.81812c2.28379,1.30151 9.95664,3.56379 9.95664,3.56379l-3.51224,3.69774z" fill="#6d6a6b" stroke-width="0"/><path d="M181.57045,219.62092l10.57934,-5.27623c0,0 2.6872,2.88698 4.66803,3.99059c2.99667,1.66965 11.56257,5.05248 11.56257,5.05248l-5.08871,3.31022z" fill="#615e5f" stroke-width="0"/><path d="M178.89971,241.51674l3.30213,-22.37943c0,0 4.08988,1.69089 8.79687,2.73482c3.674,0.81485 7.80945,0.83889 10.10942,1.9565c4.03781,1.96199 34.21133,21.09888 34.21133,21.09888l0.28091,10.46857z" fill="#575455" stroke-width="0"/><path d="M205.70031,219.62647c7.94954,-3.98083 18.67013,-15.4326 20.44165,-17.68149c1.27623,-1.62013 3.05906,-6.63315 3.05906,-6.63315l6.09635,8.28388c0,0 1.40362,21.26891 -0.10469,33.88078c-0.42203,3.52891 1.20844,7.91569 -0.25991,9.0996c-1.31567,1.06069 -18.37892,-0.27148 -23.49118,-2.15478c-10.75875,-3.96322 -17.00824,-2.45556 -19.55842,-8.40108c-2.55019,-5.94545 5.71147,-10.58034 5.71147,-10.58034c0,0 6.03626,-4.77705 8.10585,-5.81345z" fill="#504e4f" stroke-width="0"/><path d="M217.30876,188.54861c0,0 0.70121,-1.37595 1.67871,-1.84422c1.25715,-0.60214 5.23835,-1.46913 5.23835,-1.46913c0,0 8.72176,3.99302 11.14034,7.06095c2.2315,2.83055 -6.07288,11.55907 -6.07288,11.55907l-0.83285,-5.66362z" fill="#464445" stroke-width="0"/><path d="M230.07994,239.60912c0,0 -10.39315,4.16102 -18.7235,2.54238c-8.03635,-1.56148 -14.02805,-8.87871 -13.62397,-10.24657c0.21888,-0.74115 8.66501,-2.3033 12.95237,-5.69821c4.7658,-3.77375 5.48863,-9.45037 7.2325,-11.13141c4.8683,-4.69295 15.26685,-12.86547 15.50194,-18.99705c0.24651,-6.43035 -9.79423,-10.71407 -9.79423,-10.71407c0,0 4.23893,-1.3904 9.14021,-0.46779c2.08774,0.39303 6.24168,2.70518 7.06323,3.27593c2.69409,1.87145 4.2957,3.89016 4.2957,3.89016c0,0 4.60375,-3.99977 8.19034,-3.54396c3.58652,0.4558 21.36986,7.30069 21.36986,7.30069l-18.49857,8.89903z" fill="#555354" stroke-width="0"/><path d="M217.40462,215.57362c0,0 6.80624,-9.65635 12.57479,-13.97357c5.76853,-4.31723 10.42512,-6.56784 13.87828,-5.82416c2.50057,0.53848 3.90136,9.65309 3.90136,9.65309l-16.88535,25.79256c0,0 -14.98377,0.12752 -15.90574,-2.60857c-0.72813,-2.16094 2.4366,-13.03927 2.4366,-13.03927z" fill="#585758" stroke-width="0"/><path d="M233.70726,247.00995c0,0 -1.51028,-6.65825 -0.55509,-9.54404c1.33438,-4.03144 5.40991,-16.09783 5.40991,-16.09783l-0.28418,10.61375c0,0 -2.67819,9.39422 -3.1864,12.38412c-0.49025,2.88477 0.4442,5.30619 0.4442,5.30619z" fill="#3f3e3f" stroke-width="0"/><path d="M236.5605,229.34965c0.16151,-1.67843 2.04578,-9.16032 2.04578,-9.16032c0,0 12.41088,-12.22924 15.01978,-14.38129c0.76484,-0.63089 4.40971,-1.61657 4.40971,-1.61657l-2.63124,4.39856c0,0 -1.66574,0.2591 -1.94208,0.6884c-0.29447,0.45737 0.22612,1.97681 0.22612,1.97681l-6.79915,7.2103c0,0 -1.82639,0.64043 -2.10795,1.09673c-0.28164,0.45644 0.20363,1.46949 0.20363,1.46949c0,0 -5.65034,7.92946 -6.98229,10.11272c-0.61587,1.00948 -0.68766,2.45948 -0.68766,2.45948c0,0 -0.91619,-2.57581 -0.75461,-4.25415z" fill="#474647" stroke-width="0"/><path d="M228.14299,206.08779l18.8531,12.48419c0,0 -1.37545,0.73932 -1.72074,1.21639c-0.25485,0.35202 -0.16355,1.38652 -0.16355,1.38652z" fill="#3f3e3e" stroke-width="NaN"/><path d="M236.18806,197.23001l19.44582,11.40832c0,0 -1.26753,0.58972 -1.59098,1.08911c-0.33714,0.52065 -0.20313,1.65347 -0.20313,1.65347z" fill="#3f3e3e" stroke-width="NaN"/><path d="M217.98897,222.64834c0,0 8.83321,9.77162 13.32117,16.85275c4.48794,7.08115 2.33665,7.85232 2.33665,7.85232z" fill="#636162" stroke-width="NaN"/><path d="M235.83197,202.9057c0,0 -6.47753,1.57569 -9.81702,4.02342c-3.33955,2.44771 -14.89366,16.51343 -14.27352,13.63397c0.62013,-2.87952 17.81005,-20.3738 19.56478,-19.99592c0.66424,0.14306 3.87287,-0.33442 4.623,0.07004c1.23142,0.664 -0.09725,2.26851 -0.09725,2.26851z" fill="#918f91" stroke-width="0"/><path d="M178.48096,241.29425l14.02787,1.08932c0,0 12.38358,2.32695 15.4173,3.13886c7.38807,1.9773 29.0721,8.76801 29.0721,8.76801l-1.76772,6.08529c0,0 -24.56561,-1.64304 -31.02854,-4.38064c-1.8697,-0.79198 -7.42587,-2.62073 -11.30164,-4.83856c-7.58458,-4.34021 -14.41938,-9.86225 -14.41938,-9.86225z" fill="#626061" stroke-width="0"/><path d="M234.32212,259.82021c0,0 0.94326,-4.18789 0.99697,-6.56986c0.0604,-2.6772 -0.65234,-8.71139 -0.65234,-8.71139l1.74239,0.37523c0,0 0.74234,4.71884 0.68777,7.14248c-0.05979,2.64995 -1.03234,8.13871 -1.03234,8.13871z" fill="#4a494a" stroke-width="0"/><path d="M233.95524,260.59665l0.80149,-3.30244c0,0 0.49832,0.37811 0.76374,0.43529c0.31535,0.06795 0.96413,-0.06313 0.96413,-0.06313l-0.49892,3.14195c0,0 -0.84497,0.23496 -1.2149,0.19647c-0.2835,-0.02953 -0.8155,-0.40809 -0.8155,-0.40809z" fill="#363536" stroke-width="0"/><path d="M234.71981,245.5993l-0.036,-1.66553c0,0 0.48266,-0.25859 0.8553,-0.23895c0.35494,0.01878 0.83977,0.24876 0.83977,0.24876l0.12486,1.80309c0,0 -0.57786,0.39458 -0.88342,0.36934c-0.28792,-0.02378 -0.90045,-0.5167 -0.90045,-0.5167z" fill="#585758" stroke-width="0"/><path d="M193.50283,250.58865c0,0 -7.09659,-4.54878 -6.80963,-5.88129c0.2884,-1.33907 6.63226,-1.17057 6.63226,-1.17057c0,0 10.74928,2.06857 15.55889,3.28093c2.69259,0.67871 10.84193,3.37374 10.84193,3.37374c0,0 6.90645,2.56571 7.46081,3.86321c0.60471,1.4153 -3.77111,3.37972 -3.77111,3.37972c0,0 -12.71364,-1.40194 -16.54579,-2.44013c-1.3613,-0.36886 -13.36743,-4.4055 -13.36743,-4.4055z" fill="#6b696a" stroke-width="0"/><path d="M184.80545,241.65595l-1.96632,-0.18734c0,0 1.33546,-3.22582 3.73298,-1.43883c2.3975,1.787 21.15922,4.79281 21.15922,4.79281z" fill="#4b4949" stroke-width="0"/><path d="M178.58262,241.1688c0,0 -1.99339,-0.23329 -1.74955,-3.90706c0.12341,-1.85962 1.41025,-16.10003 1.41025,-16.10003l4.26257,-2.0476c0,0 -0.59532,6.00292 -1.00479,8.88353c-0.5446,3.83118 -2.01601,13.36543 -2.01601,13.36543z" fill="#3f3d3e" stroke-width="0"/><path d="M185.08513,241.88583c0,0 3.57544,-1.43763 19.34292,1.61307c1.30208,0.25196 -1.74818,-0.40924 7.33405,2.06561c9.08232,2.4748 12.58444,4.77636 12.58444,4.77636c0,0 -14.50336,-4.21722 -20.56719,-5.52307c-6.912,-1.48851 -18.69428,-2.93195 -18.69428,-2.93195z" fill="#838082" stroke-width="0"/><path d="M196.26093,213.98112c0,0 -4.73316,1.2183 -7.19959,2.33975c-2.77222,1.26047 -8.62366,4.85492 -8.62366,4.85492l-0.42972,-1.73086c0,0 4.48954,-2.97516 6.99917,-4.11627c2.74386,-1.24758 8.82406,-3.07838 8.82406,-3.07838z" fill="#4a494a" stroke-width="0"/><path d="M197.22824,213.92572l-3.83502,0.89324c0,0 0.23033,-0.61164 0.16487,-0.87526c-0.0778,-0.31331 -0.51536,-0.82484 -0.51536,-0.82484l3.45345,-1.09934c0,0 0.63578,0.63474 0.76913,0.98214c0.10227,0.26615 -0.03709,0.92421 -0.03709,0.92421z" fill="url(#color-3)" stroke-width="0"/><path d="M181.49951,220.60828l-3.45955,2.04733l0.31888,-2.16402l2.45789,-1.53923c0,0 0.67458,0.3193 0.79147,0.60302c0.11023,0.2673 -0.10876,1.0529 -0.10876,1.0529z" fill="url(#color-4)" stroke-width="0"/></g><path d="M313.7022,224.55299c0,0 1.83685,-4.12443 2.62134,-5.37647c0.53259,-0.84991 3.15412,-1.74985 3.15412,-1.74985l16.68391,3.36971c0,0 -2.46911,5.39893 -3.12926,6.65439c-0.28925,0.54996 -1.47714,1.00264 -1.47714,1.00264z" fill="#665b60" stroke-width="0"/><path d="M270.02104,196.47108c0,0 -3.38025,-2.32621 -7.95568,-4.49026c-2.90862,-1.37566 -6.9636,-2.82868 -8.80516,-3.11705c-5.35405,-0.83843 -8.89131,3.62173 -8.89131,3.62173c0,0 -2.71242,-2.95295 -4.59284,-4.23223c-1.75538,-1.19412 -5.80016,-3.08906 -5.80016,-3.08906c0,0 25.08088,0.19324 28.96786,0.43682c7.45164,0.46708 33.45253,6.46677 33.45253,6.46677l3.07694,15.27583z" fill="#8b7c84" stroke-width="0"/><g stroke-width="0"><path d="M315.32273,223.93762c0,0 1.00751,-2.43876 1.59711,-3.2271c0.61122,-0.81738 2.96763,-1.38651 2.96763,-1.38651l14.20441,3.05887c0,0 0.1707,1.04223 -0.2147,1.71396c-0.52404,0.91327 -3.81678,3.01457 -3.81678,3.01457z" fill="#585852"/><path d="M315.47965,223.209c0,0 0.85059,-1.71018 1.4402,-2.49848c0.61122,-0.81738 3.12457,-2.11514 3.12457,-2.11514l14.2044,3.05888c0,0 0.01384,1.77093 -0.37164,2.44262c-0.52404,0.91327 -3.65985,2.28579 -3.65985,2.28579z" fill="#797971"/><path d="M332.41981,221.76736c-0.98791,-0.39478 -12.29288,-3.10691 -12.29288,-3.10691l14.18495,3.05474l-0.51829,2.40668c0,0 -0.38591,-1.95971 -1.37386,-2.35454z" fill="#85857b"/></g><path d="M320.54682,206.47801l1.09259,-5.07341l6.97605,1.5023l0.17579,5.3466z" fill="#7c6e75" stroke-width="0"/><path d="M315.91919,178.45212l-2.37125,-8.82832l1.3484,0.29041l4.16829,9.67729z" fill="#d495b6" stroke-width="0"/><path d="M279.39585,162.78281l13.57324,-0.23747l20.76783,7.14477l2.20965,8.75365z" fill="#df9cbe" stroke-width="0"/><path d="M319.64692,211.42702l0.34145,-1.58545l10.62251,2.28759l0.60987,1.79032z" fill="#7c6e75" stroke-width="0"/><path d="M282.54299,191.00384c0,0 -17.97951,-2.64606 -23.59131,-3.34289c-8.49752,-1.05527 -25.67475,-2.37584 -25.67475,-2.37584c0,0 15.62186,-1.17825 29.14574,0.18326c14.6633,1.47627 58.03245,9.32504 58.03245,9.32504l-1.13877,5.28787z" fill="#75686e" stroke-width="0"/><path d="M273.93325,198.12123l-3.05039,-1.2408c0,0 10.05345,-0.27405 15.11278,1.59579c5.0593,1.8698 13.05241,8.81348 13.05241,8.81348z" fill="#7c6e76" stroke-width="0"/><path d="M229.36675,184.40119c0,0 -28.39071,-21.86337 -28.28962,-26.56769c0.09191,-4.27319 28.65915,8.57356 28.97301,8.53044c5.49213,-0.75453 77.28303,7.32543 77.28303,7.32543l24.58305,12.23902l51.69973,10.54906l4.28652,14.80978c0,0 -60.42552,-11.8171 -83.69352,-16.66109c-8.07695,-1.68152 -24.3956,-5.85831 -39.59664,-7.96544c-11.72557,-1.62535 -29.92424,-1.12892 -29.92424,-1.12892z" fill="#ee96c3" stroke-width="0"/><path d="M100.48854,169.47798l7.49528,-19.00189c0,0 1.3858,-6.9174 8.95109,-7.63684c9.39625,-0.89347 25.53075,4.40707 27.55499,4.84296c1.55334,0.33456 -14.81126,7.46585 -14.81126,7.46585l-4.24293,19.7023z" fill="#c4b4b3" stroke-width="0"/><g stroke-width="0"><path d="M379.18908,210.8246l0.39483,-15.405l89.25382,26.14054l-1.96229,5.51747l-47.38818,-5.23663z" fill="#ad6d8e"/><path d="M407.96214,202.35593l8.85136,-6.55619l26.62287,3.55545l-6.39839,9.26235z" fill="#8d788b"/><path d="M382.81177,198.15576l3.41794,-15.87144l30.6516,13.53432l-5.92217,5.75118z" fill="#857183"/><path d="M424.97897,203.83945l18.3959,-4.49624l26.42338,9.54948l-1.73102,6.67923z" fill="#947e92"/><path d="M378.86424,196.68313l5.51632,-11.87063l2.0594,-2.69052l-3.17129,14.72624z" fill="#756474"/><path d="M381.11641,207.95153l1.83649,-11.95399l42.69025,7.50678l-4.57898,15.43905z" fill="#746373"/><path d="M421.05983,218.92667c0,0 1.69932,-6.0861 2.49242,-8.82467c0.67901,-2.34474 1.97703,-6.60937 1.97703,-6.60937l43.01808,10.19397l0.18678,8.63284z" fill="#867284"/><path d="M378.91864,196.62282l4.25959,-0.64872l-2.03407,11.99121z" fill="#6f5e6d"/><path d="M462.76734,207.26846l-18.66592,-7.46047l25.36272,9.18165l-1.10192,3.38943c0,0 0.02384,-1.6001 -1.00902,-2.54356c-0.69091,-0.63109 -4.58591,-2.56706 -4.58591,-2.56706z" fill="#978195"/><path d="M423.47917,202.8519c0,0 8.52544,-1.70872 11.52644,-2.4476c2.18606,-0.53819 4.82244,-1.57751 4.82244,-1.57751l2.45335,0.64349l-16.21298,3.9392z" fill="#9c859a"/><path d="M409.25049,200.61452c0,0 1.8663,-2.41344 3.47062,-3.44927c1.60428,-1.03574 4.03244,-1.34678 4.03244,-1.34678l-5.09665,5.31418z" fill="#806b7d"/><path d="M445.2841,197.96861l3.29254,-5.1558l14.07338,6.84966l4.12717,7.43552z" fill="#55494f"/><path d="M442.21801,200.1726c0,0 1.22454,-0.54458 1.89549,-0.99826c0.50537,-0.34169 1.46943,-1.55045 1.46943,-1.55045l20.97153,8.60794c0,0 0.74377,0.66853 1.24829,1.1103c0.52731,0.46168 1.84999,1.60272 1.84999,1.60272z" fill="#685960"/><path d="M446.02055,197.21454l2.58669,-4.13342l13.12896,6.23046c0,0 -7.50461,-3.18397 -11.93883,-3.87838c-2.57214,-0.40284 -3.77671,1.78137 -3.77671,1.78137z" fill="#41383c"/></g><path d="M110.36063,131.42323l1.09651,-5.0916c0,0 22.10858,3.43635 43.56259,8.11479c12.78463,2.78791 25.71404,7.20658 32.55385,8.32145c15.42238,2.51367 26.60651,0.30658 26.60651,0.30658l-8.43918,9.06973z" fill="#ffa1d1" stroke-width="0"/><path d="M104.90203,144.52528l5.49774,-15.26736c0,0 53.13443,13.55035 70.67439,16.8768c10.38994,1.97046 24.86777,1.24294 24.86777,1.24294l-3.08263,14.3142c0,0 -65.98822,-14.21067 -81.89593,-17.63642c-6.54065,-1.40855 -21.72118,26.75155 -21.72118,26.75155z" fill="#ee96c3" stroke-width="0"/><path d="M263.9915,257.03124l11.93437,-11.33748c0,0 13.03468,-13.41375 23.66912,-18.14367c2.70241,-1.20197 8.00797,-1.28332 8.00797,-1.28332c0,0 -8.18965,3.33574 -11.314,5.51832c-7.37831,5.15434 -32.29736,25.2462 -32.29736,25.2462z" fill="#70646b" stroke-width="0"/><path d="M371.49883,213.85602l-2.36961,-18.9248l1.31987,0.28422c0,0 0.71765,5.73145 1.09683,8.75989c0.05406,0.43149 1.13133,1.9126 1.1983,2.44705c0.11601,0.92648 -0.76855,0.98513 -0.6389,2.02067c0.36107,2.88352 0.71336,5.6971 0.71336,5.6971z" fill="#795467" stroke-width="0"/><path d="M203.38658,162.2472c0,0 -8.86768,-8.61223 -7.40883,-12.15954c0.87349,-2.12396 19.01268,-6.35204 19.01268,-6.35204l66.61465,16.05603l-2.2518,2.68218l27.88073,11.37287l-75.78169,10.86471c0,0 0.40821,-5.65454 4.53151,-7.69033c4.00731,-1.9785 19.87034,-4.35725 19.87034,-4.35725c0,0 -33.44021,-7.2515 -40.54952,-8.87116c-2.37184,-0.54035 -11.91822,-1.54549 -11.91822,-1.54549z" fill="#f399c8" stroke-width="0"/><g><path d="M212.82878,145.23837l0.68177,-3.16579l172.59678,37.16908l-0.68177,3.16579z" fill="#584f54" stroke-width="0"/><path d="M380.38864,178.26401l0.57604,-2.67497l2.9868,0.64322l2.05931,3.24252z" fill="#685d63" stroke-width="0"/><g fill="#685d63" stroke-width="0"><g><g><g><path d="M373.82544,177.10545l0.62674,-2.91027l3.79414,0.81704l-0.62674,2.91027z"/><path d="M367.669,175.77975l0.62674,-2.91027l3.79415,0.81705l-0.62674,2.91027z"/></g><g><path d="M361.74493,174.50394l0.62673,-2.91028l3.79415,0.81705l-0.62674,2.91027z"/><path d="M355.58849,173.17817l0.62674,-2.91027l3.79414,0.81705l-0.62673,2.91028z"/></g></g><g><g><path d="M349.5483,171.87743l0.62673,-2.91028l3.79414,0.81705l-0.62674,2.91027z"/><path d="M343.39187,170.55162l0.62674,-2.91027l3.79414,0.81704l-0.62673,2.91028z"/></g><g><path d="M337.46777,169.2758l0.62674,-2.91027l3.79414,0.81705l-0.62674,2.91027z"/><path d="M331.31146,167.95006l0.62674,-2.91027l3.79412,0.81706l-0.62673,2.91028z"/></g></g></g><g><g><g><path d="M331.07915,167.90003l0.62674,-2.91027l3.79414,0.81705l-0.62674,2.91027z"/><path d="M324.92276,166.57423l0.62674,-2.91027l3.79415,0.81705l-0.62674,2.91027z"/></g><g><path d="M318.99871,165.29848l0.62673,-2.91028l3.79414,0.81705l-0.62674,2.91027z"/><path d="M312.84224,163.97265l0.62674,-2.91027l3.79412,0.81706l-0.62673,2.91028z"/></g></g><g><g><path d="M306.80208,162.67192l0.62673,-2.91028l3.79415,0.81705l-0.62674,2.91027z"/><path d="M300.64569,161.34611l0.62674,-2.91027l3.79415,0.81705l-0.62673,2.91028z"/></g><g><path d="M294.72162,160.07038l0.62674,-2.91027l3.79414,0.81704l-0.62673,2.91028z"/><path d="M288.5652,158.74456l0.62674,-2.91027l3.79415,0.81705l-0.62674,2.91027z"/></g></g></g></g><g><g fill="#685d63" stroke-width="0"><g><g><path d="M282.48547,157.43527l0.62673,-2.91028l3.79415,0.81705l-0.62674,2.91027z"/><path d="M276.3291,156.10948l0.62674,-2.91027l3.79415,0.81705l-0.62673,2.91028z"/></g><g><path d="M270.40498,154.83379l0.62674,-2.91027l3.79415,0.81705l-0.62673,2.91028z"/><path d="M264.24865,153.50796l0.62674,-2.91027l3.79414,0.81704l-0.62673,2.91028z"/></g></g><g><g><path d="M258.20842,152.20714l0.62673,-2.91028l3.79415,0.81705l-0.62674,2.91027z"/><path d="M252.05199,150.88133l0.62674,-2.91027l3.79415,0.81705l-0.62673,2.91028z"/></g><g><path d="M246.12785,149.60565l0.62674,-2.91027l3.79415,0.81705l-0.62673,2.91028z"/><path d="M239.97147,148.27985l0.62674,-2.91027l3.79414,0.81704l-0.62674,2.91027z"/></g></g></g><g><g fill="#685d63" stroke-width="0"><g><path d="M239.73921,148.2298l0.62673,-2.91028l3.79415,0.81705l-0.62674,2.91027z"/><path d="M233.5828,146.90397l0.62674,-2.91027l3.79414,0.81704l-0.62673,2.91028z"/></g><g><path d="M227.65874,145.62824l0.62674,-2.91027l3.79414,0.81704l-0.62673,2.91028z"/><path d="M221.50233,144.30243l0.62674,-2.91027l3.79414,0.81704l-0.62674,2.91027z"/></g></g><g fill="none" stroke-width="1" font-family="sans-serif" font-weight="normal" font-size="12" text-anchor="start"><g/><g/></g></g></g><path d="M213.52822,142.33033l3.21147,-2.10745l2.9868,0.64322l-0.57604,2.67497z" data-paper-data="{&quot;index&quot;:null}" fill="#685d63" stroke-width="0"/></g><path d="M262.24036,186.46092l-2.55151,-0.27322c0,0 2.18183,-2.15652 11.79935,-1.23894c7.29152,0.69567 27.67004,3.74271 39.86145,5.6053c5.6614,0.86494 62.79201,3.95982 62.79201,3.95982l5.08531,1.08051c0,0 -62.57354,-2.58656 -68.22589,-3.47333c-12.49892,-1.96084 -33.5225,-5.22277 -39.65515,-5.95165c-3.3383,-0.3968 -9.10559,0.29161 -9.10559,0.29161z" fill="#70475c" stroke-width="0"/><path d="M356.8834,226.30636l-5.20204,0.76784l3.98625,-18.50697c0,0 7.60667,1.68763 15.04579,3.33805c21.35561,4.73796 123.99209,27.50892 123.99209,27.50892l-1.41624,6.5765z" fill="#5a5959" stroke-width="0"/><path d="M355.64596,227.70564l1.69933,-2.70903l135.97884,20.88961l-13.92138,8.47062z" fill="#4b4a4a" stroke-width="0"/><path d="M476.23046,253.48028c0,0 -5.095,-4.39591 -7.75885,-6.43043c-1.4276,-1.0903 -6.98188,-4.82771 -6.98188,-4.82771c0,0 7.21081,4.52314 10.2809,6.154c1.09566,0.5821 2.03774,1.54473 3.20134,2.33553c0.37523,0.25495 2.73864,-2.05846 4.95597,-3.33464c0.66274,-0.38146 1.72021,0.21918 2.30348,0.0064c1.33707,-0.4878 1.91784,-1.4792 1.91784,-1.4792c0,0 0.13423,0.97981 -1.31298,1.90971c-0.39481,0.25376 -2.23152,0.21863 -2.62558,0.50238c-1.57915,1.13731 -2.89512,2.48969 -3.31781,3.00336c-1.17972,1.43362 0.76822,2.4685 0.76822,2.4685z" fill="#414040" stroke-width="0"/><path d="M203.27611,162.52762l6.06624,-10.04687l6.98054,0.86464c0,0 -1.48687,2.38873 -2.36313,3.79654c-0.22074,0.35457 11.72092,0.92525 11.92374,1.65531c0.37637,1.35457 -5.86235,3.8571 -6.41348,4.74252c-0.63008,1.01221 -9.22279,-0.43334 -9.22279,-0.43334z" fill="#303030" stroke-width="0"/><path d="M203.21369,162.13561l5.78832,-9.25243c0,0 2.65833,1.90701 2.45095,2.86984c-0.37727,1.75203 -3.13927,7.077 -3.13927,7.077z" fill="#252525" stroke-width="0"/><path d="M351.10455,229.66658l0.62155,-2.88619l6.02157,-1.72336l-1.83192,2.62554c0,0 -1.34704,1.07578 -2.19322,1.42471c-0.74458,0.30708 -2.61794,0.55922 -2.61794,0.55922z" fill="#383838" stroke-width="0"/><g><g fill="#4b4b4b" stroke-width="0"><g data-paper-data="{&quot;origPos&quot;:null}"><g data-paper-data="{&quot;origPos&quot;:null}"><path d="M416.45245,245.14177l0.47846,-2.22181l3.66597,0.78948l-0.47846,2.22181z" data-paper-data="{&quot;origPos&quot;:null}"/><path d="M410.36643,243.71488l0.47846,-2.22181l3.66596,0.78948l-0.47847,2.22181z" data-paper-data="{&quot;origPos&quot;:null}"/></g><g data-paper-data="{&quot;origPos&quot;:null}"><path d="M428.64836,247.88445l0.47846,-2.22181l3.66597,0.78948l-0.47847,2.22181z" data-paper-data="{&quot;origPos&quot;:null}"/><path d="M422.56231,246.45755l0.47847,-2.22181l3.66596,0.78948l-0.47846,2.22181z" data-paper-data="{&quot;origPos&quot;:null}"/></g></g><g data-paper-data="{&quot;origPos&quot;:null,&quot;index&quot;:null}"><g data-paper-data="{&quot;origPos&quot;:null}"><path d="M447.47034,251.70536l0.47846,-2.22181l3.66597,0.78948l-0.47847,2.22181z" data-paper-data="{&quot;origPos&quot;:null}"/><path d="M453.60417,252.90998l0.47845,-2.2218l3.66597,0.78948l-0.47844,2.22179z" data-paper-data="{&quot;origPos&quot;:null}"/></g><g data-paper-data="{&quot;origPos&quot;:null}"><path d="M435.2266,249.18485l0.47846,-2.22181l3.66596,0.78948l-0.47845,2.2218z" data-paper-data="{&quot;origPos&quot;:null}"/><path d="M441.36044,250.38958l0.47847,-2.22181l3.66597,0.78948l-0.47847,2.22181z" data-paper-data="{&quot;origPos&quot;:null}"/></g></g></g><path d="M376.42392,228.08737l2.86549,-13.30612l82.58081,17.7839l-2.86549,13.30612z" data-paper-data="{&quot;origPos&quot;:null}" fill="#444444" stroke-width="0"/><path d="M375.52611,232.72454l1.00685,-4.67525l82.33811,17.73163l-1.00687,4.67526z" data-paper-data="{&quot;origPos&quot;:null}" fill="#414141" stroke-width="0"/><path d="M375.2603,234.12419l0.34056,-1.58141l82.32765,17.72937l-0.34056,1.5814z" data-paper-data="{&quot;origPos&quot;:null}" fill="#3f3f3f" stroke-width="0"/><g stroke-width="0"><g data-paper-data="{&quot;origPos&quot;:null}" fill="#5a5a5a"><g data-paper-data="{&quot;origPos&quot;:null}"><path d="M418.70912,237.27483l2.89473,-13.44181l3.49134,0.75188l-2.89473,13.44181z" data-paper-data="{&quot;origPos&quot;:null}"/></g><g data-paper-data="{&quot;origPos&quot;:null}"><path d="M424.6445,238.55301l2.89473,-13.44181l3.49136,0.75189l-2.89473,13.44181z" data-paper-data="{&quot;origPos&quot;:null}"/><path d="M430.75442,239.86877l2.89474,-13.44183l3.49134,0.75188l-2.89473,13.44181z" data-paper-data="{&quot;origPos&quot;:null}"/></g></g><g data-paper-data="{&quot;origPos&quot;:null}" fill="#5a5a5a"><g data-paper-data="{&quot;origPos&quot;:null}"><path d="M437.21348,241.25979l2.89473,-13.44181l3.49134,0.75188l-2.89473,13.44182z" data-paper-data="{&quot;origPos&quot;:null}"/><path d="M443.3234,242.57558l2.89473,-13.44181l3.49136,0.75189l-2.89474,13.44183z" data-paper-data="{&quot;origPos&quot;:null}"/></g><g data-paper-data="{&quot;origPos&quot;:null}"><path d="M449.25873,243.85371l2.89474,-13.44183l3.49134,0.75188l-2.89474,13.44183z" data-paper-data="{&quot;origPos&quot;:null}"/><path d="M455.36868,245.1695l2.89474,-13.44183l3.49134,0.75188l-2.89473,13.44181z" data-paper-data="{&quot;origPos&quot;:null}"/></g></g><path d="M422.26046,238.03962l-1.26563,1.7027l-5.13297,-1.06132l1.92618,-9.60629l3.75824,-5.25423l-2.8273,13.45635z" fill="#3a3a3a"/><path d="M428.19343,239.31728l-1.26563,1.70271l-5.13298,-1.06132l1.92619,-9.6063l3.75825,-5.25421l-2.82729,13.45635z" fill="#3a3a3a"/><path d="M434.2612,240.62401l-1.26563,1.70271l-5.13298,-1.06131l1.92618,-9.60629l3.75825,-5.25421l-2.8273,13.45635z" fill="#3a3a3a"/><path d="M440.80097,242.03235l-1.26563,1.70271l-5.13298,-1.06131l1.92618,-9.60629l3.75825,-5.25421l-2.8273,13.45635z" fill="#3a3a3a"/><path d="M446.9362,243.35361l-1.26563,1.70271l-5.13298,-1.06131l1.92618,-9.60629l3.75825,-5.25421l-2.82729,13.45635z" fill="#3a3a3a"/><path d="M452.80171,244.6167l-1.26563,1.7027l-5.13297,-1.06132l1.92618,-9.60629l3.75825,-5.25421l-2.8273,13.45635z" fill="#3a3a3a"/><path d="M458.94464,245.93957l-1.26563,1.7027l-5.13298,-1.06131l1.92619,-9.6063l3.75824,-5.25423l-2.8273,13.45635z" fill="#3a3a3a"/></g><g stroke-width="0"><g data-paper-data="{&quot;origPos&quot;:null}" fill="#5a5a5a"><g data-paper-data="{&quot;origPos&quot;:null}"><path d="M376.4489,228.17397l2.89474,-13.44183l3.49136,0.75189l-2.89473,13.44181z" data-paper-data="{&quot;origPos&quot;:null}"/></g><g data-paper-data="{&quot;origPos&quot;:null}"><path d="M382.38421,229.45224l2.89473,-13.44181l3.49134,0.75188l-2.89473,13.44181z" data-paper-data="{&quot;origPos&quot;:null}"/><path d="M388.49417,230.76799l2.89473,-13.44181l3.49136,0.75189l-2.89474,13.44183z" data-paper-data="{&quot;origPos&quot;:null}"/></g></g><g data-paper-data="{&quot;origPos&quot;:null}" fill="#5a5a5a"><g data-paper-data="{&quot;origPos&quot;:null}"><path d="M394.95322,232.15891l2.89474,-13.44183l3.49135,0.75189l-2.89473,13.44181z" data-paper-data="{&quot;origPos&quot;:null}"/><path d="M401.0632,233.47471l2.89473,-13.44181l3.49136,0.75189l-2.89474,13.44183z" data-paper-data="{&quot;origPos&quot;:null}"/></g><g data-paper-data="{&quot;origPos&quot;:null}"><path d="M406.99859,234.75292l2.89473,-13.44181l3.49136,0.75189l-2.89474,13.44183z" data-paper-data="{&quot;origPos&quot;:null}"/><path d="M413.10853,236.06875l2.89474,-13.44183l3.49136,0.75189l-2.89473,13.44182z" data-paper-data="{&quot;origPos&quot;:null}"/></g></g><path d="M380.00017,228.93879l-1.26563,1.70271l-2.67766,-0.53258l0.40179,-1.93287z" fill="#3a3a3a"/><path d="M385.93322,230.21647l-1.26563,1.70271l-5.13298,-1.06131l1.92619,-9.6063l3.75825,-5.25421l-2.8273,13.45635z" fill="#3a3a3a"/><path d="M392.00097,231.52317l-1.26563,1.7027l-5.13298,-1.06131l1.92618,-9.60629l3.75824,-5.25423l-2.8273,13.45635z" fill="#3a3a3a"/><path d="M398.54069,232.93144l-1.26563,1.7027l-5.13298,-1.06131l1.92619,-9.6063l3.75825,-5.25421l-2.8273,13.45635z" fill="#3a3a3a"/><path d="M404.67597,234.25272l-1.26563,1.7027l-5.13297,-1.06132l1.92618,-9.60629l3.75825,-5.25421l-2.8273,13.45635z" fill="#3a3a3a"/><path d="M410.54145,235.5159l-1.26563,1.7027l-5.13297,-1.06132l1.92618,-9.60629l3.75824,-5.25423l-2.8273,13.45635z" fill="#3a3a3a"/><path d="M416.68444,236.83885l-1.26563,1.70271l-5.13297,-1.06132l1.92618,-9.60629l3.75825,-5.25421l-2.8273,13.45635z" fill="#3a3a3a"/></g><g><g data-paper-data="{&quot;origPos&quot;:null}"><g data-paper-data="{&quot;origPos&quot;:null}" fill="none" stroke-width="1" font-family="sans-serif" font-weight="normal" font-size="12" text-anchor="start"/><g data-paper-data="{&quot;origPos&quot;:null}" fill="#4b4b4b" stroke-width="0"><path d="M380.98864,237.69953l0.47846,-2.22181l3.66596,0.78948l-0.47845,2.2218z" data-paper-data="{&quot;origPos&quot;:null}"/><path d="M374.90259,236.2727l0.47846,-2.22181l3.66596,0.78948l-0.47846,2.22181z" data-paper-data="{&quot;origPos&quot;:null}"/></g></g><g data-paper-data="{&quot;origPos&quot;:null,&quot;index&quot;:null}" fill="#4b4b4b" stroke-width="0"><g data-paper-data="{&quot;origPos&quot;:null}"><path d="M399.81069,241.52037l0.47847,-2.22181l3.66597,0.78948l-0.47847,2.22181z" data-paper-data="{&quot;origPos&quot;:null}"/><path d="M405.94447,242.72506l0.47844,-2.22179l3.66597,0.78948l-0.47847,2.22181z" data-paper-data="{&quot;origPos&quot;:null}"/></g><g data-paper-data="{&quot;origPos&quot;:null}"><path d="M387.56676,238.9999l0.47846,-2.22181l3.66597,0.78948l-0.47847,2.22181z" data-paper-data="{&quot;origPos&quot;:null}"/><path d="M393.70065,240.20456l0.47846,-2.22181l3.66597,0.78948l-0.47846,2.22181z" data-paper-data="{&quot;origPos&quot;:null}"/></g></g></g></g><path d="M216.00756,163.63886l1.90377,-3.90177c0,0 5.17032,-2.10625 8.6539,-1.50942c3.98243,0.6822 33.27443,7.01581 33.27443,7.01581c0,0 0.25226,1.97306 -0.05565,3.15184c-0.39682,1.51874 -3.11064,4.06916 -3.11064,4.06916z" fill="#242424" stroke-width="0"/><path d="M241.13778,165.15331l0.66321,-3.07972l17.59837,3.78981l-0.66321,3.07972z" fill="#313131" stroke-width="0"/><path d="M237.51134,166.34725l0.1373,-0.63767c0,0 1.26517,-0.80279 2.2654,-0.5874c0.94973,0.20455 2.98868,1.12944 5.35123,1.80533c4.50061,1.28756 9.98152,2.57185 9.98152,2.57185l-0.1373,0.63767c0,0 -5.3062,-1.14474 -9.74327,-2.41814c-2.42103,-0.6948 -4.51865,-1.72853 -5.50382,-1.94067c-1.03556,-0.22301 -2.35095,0.56894 -2.35095,0.56894z" fill="#616161" stroke-width="0"/><path d="M267.34393,156.70066l11.77159,5.63103l29.04157,11.68396c0,0 0.66953,0.37353 -7.09423,-2.04339c-2.64109,-0.82216 -12.70227,-4.63481 -21.3178,-8.43659c-2.33123,-1.02872 -14.64213,-7.19961 -14.64213,-7.19961z" fill="#df8cb7" stroke-width="0"/><path d="M88.98111,124.77144l1.24907,-5.80013c0,0 6.00984,-0.4989 9.72841,0.30192c3.04425,0.65555 10.59851,5.86877 10.59851,5.86877l-2.71509,11.96737z" fill="#626061" stroke-width="0"/><path d="M200.33735,158.9669l3.18367,3.24908l12.25126,1.28481l49.60768,10.68314l-0.22964,1.06656c0,0 -37.18247,-8.1559 -48.87438,-10.40552c-3.21,-0.61762 -12.84375,-1.95493 -12.84375,-1.95493z" fill="#ffa6d4" stroke-width="0"/><path d="M72.70432,186.66216l1.50938,-7.00888l26.4037,-11.32541l-4.44891,13.02419l-15.69349,6.9836z" fill="#3f3d3e" stroke-width="0"/><path d="M72.17606,181.37219c0,0 4.32059,-19.1719 7.12574,-28.37088c3.16604,-10.3824 10.91922,-30.80397 10.91922,-30.80397c0,0 8.46137,1.6285 11.61663,3.99152c2.70052,2.02242 6.16399,9.32461 6.16399,9.32461l-7.06345,32.7996c0,0 -14.47485,10.89499 -17.92715,12.46244c-5.31014,2.41101 -10.83497,0.59667 -10.83497,0.59667z" fill="#555354" stroke-width="0"/><path d="M87.84242,132.52653c0,0 -0.24397,-6.18282 2.34369,-8.38462c2.58766,-2.20182 7.05384,-2.28023 9.55674,-1.74122c1.99669,0.43001 6.11204,1.39676 7.98234,6.36029c1.87037,4.96348 -1.41041,11.07994 -1.41041,11.07994c0,0 -3.96836,-11.49676 -6.37788,-12.45087c-3.40009,-1.34627 -12.09445,5.13654 -12.09445,5.13654z" fill="#6f6b6c" stroke-width="0"/><path d="M69.72995,185.82897c0,0 7.16298,-25.11748 9.57217,-36.30484c2.50897,-11.65069 6.66128,-31.94994 6.66128,-31.94994c0,0 1.26561,-0.38516 2.28314,-0.16599c0.93038,0.20036 2.32678,1.15877 2.32678,1.15877c0,0 -4.24224,18.68081 -6.49368,29.13597c-2.61589,12.14698 -10.99672,38.84799 -10.99672,38.84799z" fill="#333232" stroke-width="0"/><path d="M69.21541,186.172l4.16612,-14.14822c0,0 0.84439,1.09108 1.4385,1.17951c0.75021,0.11167 2.69227,-0.94064 2.69227,-0.94064l-4.41678,14.74499z" fill="#2e2d2d" stroke-width="0"/><path d="M102.03381,156.14834c-1.71888,7.98163 -7.57545,15.58709 -12.45922,17.5299c-4.05607,1.61362 -12.80938,6.64133 -11.09048,-1.34026c0.36462,-1.69325 4.86382,-12.87603 6.46936,-19.72131c2.12324,-9.05268 1.56304,-14.26845 3.09548,-16.83499c2.77102,-4.64066 8.48197,-4.92422 10.64688,-4.45799c4.26747,0.91902 5.0569,16.84305 3.338,24.8247z" fill="#585758" stroke-width="0"/><path d="M132.75836,177.1708l-0.21283,-1.82651c0,0 8.0461,0.35123 14.03113,1.14483c8.42556,1.11726 31.75383,4.92641 31.75383,4.92641l1.48599,1.63059c0,0 -24.88901,-3.70236 -33.56911,-4.78611c-2.54923,-0.31829 -13.489,-1.08925 -13.489,-1.08925z" fill="#585657" stroke-width="0"/><path d="M124.22105,188.83544l7.95581,-12.29195l7.28013,0.59532c0,0 -2.60723,3.85091 -2.68187,4.60731c-0.35658,3.61427 -2.47251,27.67508 -2.47251,27.67508c0,0 -1.53704,0.11947 -2.30497,-1.96443c-1.3778,-3.73917 -1.72755,-10.8338 -2.9977,-13.25816c-1.09741,-2.09469 -4.77899,-5.36314 -4.77899,-5.36314z" fill="#5a5759" stroke-width="0"/><path d="M142.95468,161.35952l5.21014,-10.47108l2.3044,0.38259l-6.34311,10.45451z" fill="#a5a0a2" stroke-width="0"/><path d="M149.8203,161.72971l0.29532,-1.37127l25.90241,5.57811l-0.29531,1.37127z" fill="#494748" stroke-width="0"/><path d="M150.36707,158.80804l0.29532,-1.37127l25.90241,5.57811l-0.29532,1.37127z" fill="#494748" stroke-width="0"/><path d="M126.65176,176.62231l4.23962,-19.68699l13.99735,-6.82238l4.80164,0.7152l-24.92434,38.42753l-5.06371,-3.13979z" fill="#dbd5d8" stroke-width="0"/><path d="M98.23877,182.6911l2.32792,-11.55985l26.22336,4.83966c0,0 -0.21141,2.5504 -0.50673,3.30363c-0.73624,1.87756 -4.15917,8.23728 -4.15917,8.23728z" fill="#ccc6c9" stroke-width="0"/><path d="M104.34165,172.35385l0.0665,-0.30875l22.48847,3.95458l-2.79637,0.60925c0,0 -4.26396,-0.7278 -6.90529,-1.32907c-3.61669,-0.82333 -12.85336,-2.92598 -12.85336,-2.92598z" fill="#d8d1d5" stroke-width="0"/><path d="M108.56504,169.44087l3.57896,-16.61895l15.76363,3.39472l-3.57896,16.61895z" fill="#a39999" stroke-width="0"/><path d="M97.9327,182.79886l2.39145,-11.10477c0,0 7.29429,8.10394 10.99211,11.29449c3.69785,3.19063 10.11231,4.28556 10.11231,4.28556z" fill="#b4afb1" stroke-width="0"/><path d="M129.54979,195.78887c0,0 2.7425,1.65497 3.84429,1.74523c0.67684,0.0554 2.13781,-1.25531 2.13781,-1.25531l-0.28881,9.21902l-0.88315,4.10112c0,0 -1.96503,-0.10459 -2.67178,-2.89862c-0.58309,-2.30525 -2.13846,-10.9114 -2.13846,-10.9114z" fill="#504e4f" stroke-width="0"/><path d="M124.40158,189.44338l22.92552,-37.76349l1.66136,0.56761l-22.91166,38.18621z" fill="#858183" stroke-width="0"/><path d="M116.52281,146.0563l1.82824,-1.29466c0,0 26.93676,5.14221 39.0689,7.75489c10.5299,2.26765 31.15472,7.07031 31.15472,7.07031l0.10894,2.00936c0,0 -20.67139,-5.17381 -31.77052,-7.56397c-12.67383,-2.7293 -40.39025,-7.97595 -40.39025,-7.97595z" fill="#918b8e" stroke-width="0"/><path d="M117.77737,145.06755l2.38722,-1.4718c0,0 25.38244,5.10507 37.51459,7.71774c10.52991,2.26767 31.15472,7.07031 31.15472,7.07031l0.10894,2.00937c0,0 -20.67138,-5.1738 -31.77051,-7.56399c-12.67383,-2.7293 -39.39492,-7.76168 -39.39492,-7.76168z" fill="#a59fa2" stroke-width="0"/><path d="M176.56206,178.98949l-0.68603,-5.96067c0,0 0.46061,-1.13344 0.8098,-1.17366c0.3077,-0.03545 1.17701,0.94495 1.17701,0.94495l0.68602,5.96068c0,0 -0.45472,0.79976 -0.76313,0.83532c-0.3489,0.04015 -1.22373,-0.60662 -1.22373,-0.60662z" fill="#494242" stroke-width="0"/><path d="M136.63247,173.09997l5.46041,-8.52725l3.7986,0.81807l-5.46041,8.52725z" fill="#9c989a" stroke-width="0"/><path d="M149.72764,157.73637l2.013,-0.55661l23.88731,5.16261l1.77283,1.35347z" fill="#757274" stroke-width="0"/><path d="M149.22802,160.50448l2.01298,-0.55663l23.88731,5.16263l1.77284,1.35346z" fill="#757274" stroke-width="0"/><path d="M95.7732,181.32829l13.91234,-56.49496l1.75502,0.97194l-13.46354,57.00197z" fill="#686666" stroke-width="0"/><path d="M95.55661,181.55813l4.0622,-15.75363l1.43583,4.21521l-3.22865,12.91989z" fill="#535252" stroke-width="0"/><path d="M130.42914,165.66893c0,0 2.57021,-1.8457 2.76956,-2.77128c0.19561,-0.90829 -1.58458,-2.73127 -1.58458,-2.73127c0,0 2.79379,1.28668 2.33646,2.91522c-0.34836,1.24043 -1.83621,3.15923 -2.15369,4.21847c-0.90279,3.01188 -3.12276,10.04963 -3.12276,10.04963z" fill="#c4bec1" stroke-width="0"/><path d="M138.33553,165.4161l4.01515,-9.56449l3.40841,-3.72007l-4.6078,8.78502z" fill="#aca7a9" stroke-width="0"/></g></g><g stroke-width="0"><path d="M259.60748,163.0637l3.19857,-2.71672c0,0 2.0693,-1.02361 2.81789,-0.58111c0.8535,0.50453 2.02973,3.44661 2.02973,3.44661l-1.38919,3.87636c0,0 -4.18368,-0.90872 -5.39351,-1.30558c-0.54541,-0.17893 -1.26346,-2.71964 -1.26346,-2.71964z" fill="#c0c0c0"/><path d="M215.61865,163.46305c0,0 0.43381,-2.85258 1.70895,-3.74296c1.59807,-1.11584 8.0074,-1.99849 8.0074,-1.99849l-1.6919,4.48131l-0.615,2.85577z" fill="#838383"/><path d="M215.46597,163.35409l9.49809,-5.60738l36.72051,7.90782l-1.57503,7.3136z" fill="#999999"/><path d="M216.58079,162.92265l7.25138,-4.41342l33.01538,7.10991l-1.22964,5.71023c0,0 -3.99599,-0.86048 -9.13636,-1.96746c-3.34206,-0.71974 -6.94429,-2.58181 -10.47011,-3.34115c-3.78236,-0.81455 -7.4431,-0.51656 -9.56757,-0.97404c-4.15782,-0.8954 -9.86308,-2.12406 -9.86308,-2.12406z" fill="#d952b3"/><path d="M219.99523,163.65573l9.42409,-4.00907l12.18478,2.62397c0,0 -7.61234,0.31174 -10.12176,0.7069c-2.66413,0.41939 -6.24866,1.80634 -6.24866,1.80634z" fill="#a5899d"/><path d="M227.82905,165.22744c0,0 5.17584,0.12025 7.57785,0.63748c3.06921,0.66094 9.33134,3.00395 9.33134,3.00395l-9.36712,-2.36008z" fill="#adadad"/><path d="M215.57208,163.35828l8.57705,-5.05937l34.18303,7.36139l-0.14493,0.67317c0,0 -29.59827,-6.37403 -33.45639,-7.20493c-0.80697,-0.17377 -9.15861,4.22973 -9.15861,4.22973z" fill="#8a8a8a"/><path d="M260.36946,179.38431l2.0538,-9.53666l2.15236,-6.90351c0,0 1.06169,0.70932 1.4845,1.37678c0.42287,0.66746 0.56025,1.85077 0.56025,1.85077l-4.28301,13.63646z" fill="#9e9e9e"/><path d="M255.93071,174.10064c0,0 -0.44397,-2.26922 -0.24308,-3.85153c0.27054,-2.13073 2.26863,-7.34513 2.26863,-7.34513l1.96641,0.09064c0,0 0.57517,0.93378 1.07374,0.8886c0.68734,-0.06232 2.66916,-1.22794 2.66916,-1.22794l-3.18974,12.42424z" fill="#9c9c9c"/><path d="M256.10641,176.0111c-0.53233,-1.24436 -0.00821,-2.53613 -0.00821,-2.53613l6.28423,-6.01213c0,0 0.54481,4.09012 0.35183,4.98602c-0.54854,2.54715 -0.56454,7.40226 -0.56454,7.40226c0,0 -2.93093,-0.54554 -3.85417,-1.19302c-1.1073,-0.77662 -1.67673,-1.40264 -2.20908,-2.64708z" fill="#888888"/><path d="M258.01021,175.62915c-0.54513,-2.16296 -0.59338,-6.73873 2.06539,-10.32619c2.65881,-3.5875 4.57034,-0.99575 4.57034,-0.99575c0,0 0.0528,4.53579 -0.43414,6.79683c-0.44353,2.05964 -2.36939,6.2216 -2.36939,6.2216c0,0 -3.28707,0.46653 -3.83217,-1.69643z" fill="#b4b4b4"/><path d="M263.69877,168.98247c-0.29705,1.37945 -5.30875,0.37934 -5.01175,-1.00008c0.29705,-1.37945 4.42457,-6.01662 5.21872,-5.84558c0.30761,0.06625 0.91557,0.30134 0.88437,1.37965c-0.04942,1.70585 -0.90943,4.62083 -1.0914,5.46603z" fill="#bbbbbb"/></g><g stroke-width="0"><path d="M200.24634,158.93177c0,0 -4.69006,-6.04004 -4.29568,-7.87153c0.32203,-1.49538 6.24887,-0.34495 6.24887,-0.34495l7.361,1.6587l-6.20319,9.69022z" fill="#f399c8"/><path d="M170.05874,154.11015c0,0 -0.50668,-2.25503 -0.02936,-3.24959c0.52676,-1.09752 3.29982,-4.18791 3.29982,-4.18791l22.56092,4.66868l7.10625,10.35119z" fill="#ee96c3"/></g></g><g stroke-width="0"><g><path d="M267.5597,154.92961l1.30138,-6.0432l46.74652,10.06693l-1.30138,6.0432z" fill="#61585b"/><path d="M268.08298,151.72442l0.69695,-3.23616l46.92422,10.10521l-0.69692,3.23617c0,0 -8.44726,-1.81915 -17.12465,-3.68785c-2.71304,-0.58424 -6.84678,0.07754 -9.35371,-0.46236c-2.98107,-0.642 -5.85876,-2.81369 -7.77095,-3.22553c-5.73385,-1.23481 -12.67493,-2.72962 -12.67493,-2.72962z" fill="#494344"/><path d="M329.91519,158.28351l-5.1383,-20.47357l20.45042,4.40403l11.55133,19.64648c0,0 -5.86878,0.12872 -9.08274,-0.29917c-4.95943,-0.66038 -17.78072,-3.27774 -17.78072,-3.27774z" fill="#5e555b"/><path d="M329.19415,161.64205l1.16602,-5.41437c0,0 12.32875,1.16857 17.27542,1.43634c3.92574,0.21251 6.79108,0.23421 6.79108,0.23421l4.34548,8.03362c0,0 -5.54891,0.43774 -9.69729,-0.00151c-5.62083,-0.59521 -19.88063,-4.28828 -19.88063,-4.28828z" fill="url(#color-5)"/><path d="M323.08658,137.60837l0.84128,-3.9066l18.72228,4.0319l2.71363,4.67216z" fill="url(#color-6)"/><path d="M328.61815,161.54351l0.26514,-1.23103c0,0 15.27595,3.21154 20.57699,4.18175c3.96385,0.72547 8.61728,0.11457 8.61728,0.11457l0.62799,1.30624l-8.47176,0.28336z" fill="#312c30"/><g><path d="M232.09428,129.91328l1.64354,-8.70751l91.82029,19.77367l5.0942,12.63752z" fill="#8a6672"/><path d="M246.51854,141.49519c0,0 -2.68152,-4.26595 -5.11567,-6.2852c-2.43413,-2.01931 -9.38708,-3.27378 -9.38708,-3.27378l0.54904,-2.0167c0,0 11.98892,2.86455 18.84063,4.43754c16.36788,3.7575 78.94207,18.01004 78.94207,18.01004l2.15946,7.18258z" fill="#755761"/><path d="M248.77877,144.52991l-2.412,-3.17062l85.72643,17.96074l0.52981,3.26582z" fill="#694e57"/><path d="M233.49339,121.55834l0.95347,-4.42748l88.91408,18.45289l2.57157,6.34477c0,0 1.99069,3.84327 -3.17179,2.70565c-1.62516,-0.35812 -9.83246,-5.5713 -11.46172,-5.93033c-15.69048,-3.45757 -77.80562,-17.14554 -77.80562,-17.14554z" fill="#916b77"/><path d="M234.68326,117.18188l0.41528,-2.49291l87.92298,18.79249l0.51811,2.5587z" fill="#9e7582"/><path d="M307.00379,133.45585c-7.75064,-2.33189 -70.74787,-16.95446 -70.74787,-16.95446l85.88508,18.49548l3.12664,8.2851c0,0 -10.51322,-7.49425 -18.26387,-9.82616z" fill="#b38f9a"/></g><path d="M278.9593,151.02648l1.93135,-8.96818l19.75922,4.25519l-1.93136,8.9682z" fill="#3a3336"/><path d="M280.80393,142.04385l1.02094,-1.33757l18.12295,3.90279l0.64253,1.69574z" fill="#4b4246"/><path d="M279.20147,150.56781l1.72161,-7.99433c0,0 -0.07321,5.3708 2.29223,7.01183c2.36549,1.64104 15.19319,5.11873 15.19319,5.11873z" fill="#332c30"/><path d="M323.84607,140.04673l-2.56895,-6.69077c0,0 1.14035,-0.43637 1.72748,-0.30992c0.65638,0.14138 2.02639,1.11831 2.02639,1.11831l2.56895,6.69077z" fill="#757575"/><path d="M325.80206,145.31107l-3.6949,-9.60542l3.75395,0.80843l3.69489,9.60541z" fill="#5a5a5a"/><path d="M328.59416,152.50918l-3.69489,-9.60541l3.75395,0.80844l3.6949,9.60542z" fill="#505050"/><path d="M331.47856,159.96319c-0.63105,-1.64061 -3.09343,-8.04191 -3.09343,-8.04191l3.75395,0.80845l4.29167,11.48748c0,0 -2.12245,0.09069 -3.04752,-0.12367c-0.72162,-0.1672 -1.6263,-3.40695 -1.90453,-4.13037z" fill="#3b3b3b"/><path d="M230.03973,132.1285l3.93153,-18.25621l3.10971,0.66972l-3.93153,18.25621z" fill="#443e42"/><path d="M211.25005,129.71777l0.57761,-5.93953l19.77522,4.25862l-1.248,5.79514z" fill="url(#color-7)"/><path d="M211.69494,124.39471l2.28356,-10.60391l19.77522,4.25862l-2.28357,10.60392z" fill="#5e555b"/><path d="M213.95188,113.91431l1.65829,-3.9005l18.99311,4.09017l-0.87628,4.06889z" fill="url(#color-8)"/><path d="M283.51171,124.83826l1.29121,-5.99585l14.46101,4.20529l3.52683,5.57862z" fill="#5e555b"/><path d="M302.71583,128.97391l-3.4707,-5.83932c0,0 2.80319,1.31012 4.77134,2.75512c1.96814,1.44503 5.04279,4.45025 5.04279,4.45025z" fill="#776b73"/><path d="M280.31385,125.33163l3.39031,-0.54285l25.08241,5.12877l3.24461,2.24451z" fill="#6d6269"/></g><g><path d="M281.20924,147.44991c0.2629,-1.22086 1.00528,-2.24421 1.60198,-3.16886c0.8314,-1.28857 1.67049,-2.3229 3.11337,-2.87765c0.88132,-0.33893 2.07513,-0.48013 3.09249,-0.50694c0.6729,-0.01774 1.73391,-0.19851 2.42115,-0.05045c1.558,0.33549 1.87537,0.48749 2.89494,1.21444c0.61419,0.43793 2.12234,1.22209 2.50379,1.99178c0.32288,0.65144 0.58828,1.6789 0.77929,2.4152c0.32631,1.25838 0.71822,3.25004 0.42591,4.60756c-0.12353,0.57366 -0.88625,1.77857 -1.04335,2.27204c-0.49863,1.56664 -0.60662,2.06461 -2.02526,2.88789c-0.86223,0.50038 -2.45101,0.71866 -3.49907,0.91228c-1.08539,0.20062 -2.51495,0.77867 -3.6613,0.53178c-0.77377,-0.16667 -2.05722,-0.99028 -2.77811,-1.28483c-1.56412,-0.63909 -2.39944,-0.99741 -3.16582,-2.32878c-0.65719,-1.1417 -0.57553,-2.75904 -0.64576,-4.16292c-0.03688,-0.73752 -0.1771,-1.69622 -0.01427,-2.45251z" fill="#3a3a3a"/><path d="M281.94888,147.48778c0.24065,-1.11724 0.91999,-2.05363 1.46597,-2.89979c0.7608,-1.17911 1.52857,-2.12559 2.84899,-2.63339c0.80652,-0.31015 1.89903,-0.43939 2.82996,-0.46387c0.61579,-0.0162 1.58672,-0.18158 2.21555,-0.04618c1.42578,0.30702 1.71622,0.4461 2.64918,1.11125c0.56198,0.40072 1.94209,1.11837 2.29126,1.82265c0.29544,0.59615 0.53841,1.53639 0.71311,2.21013c0.29862,1.15155 0.65725,2.97408 0.38977,4.21629c-0.11309,0.52498 -0.81103,1.62757 -0.95474,2.07909c-0.45633,1.43356 -0.55513,1.88934 -1.85327,2.64266c-0.78897,0.45791 -2.24288,0.65755 -3.20198,0.83484c-0.99322,0.18358 -2.30143,0.71252 -3.35048,0.48665c-0.7081,-0.15246 -1.88255,-0.90618 -2.54227,-1.17571c-1.43132,-0.58484 -2.1957,-0.91273 -2.89708,-2.13105c-0.60142,-1.04475 -0.52662,-2.5248 -0.59095,-3.80946c-0.03373,-0.67492 -0.16205,-1.55215 -0.013,-2.24423z" fill="#5a5a5a"/><path d="M294.8211,145.62667c-1.49685,-2.76279 -6.43395,-4.0312 -6.43395,-4.0312c0,0 2.01242,-0.11902 3.95655,0.30673c1.5748,0.34489 3.0352,1.0322 3.89487,2.54813c0.86035,1.5172 0.9328,3.05156 0.91949,4.47614c-0.02625,2.79306 -0.95805,5.04008 -0.95805,5.04008c0,0 0.11797,-5.577 -1.37889,-8.33979z" fill="#6d6d6d"/><path d="M288.55704,149.41161c0.1212,-0.56287 0.67562,-0.92081 1.23848,-0.79958c0.56287,0.1212 0.92081,0.67562 0.79958,1.23849c-0.1212,0.56287 -0.67562,0.92081 -1.23849,0.79958c-0.56287,-0.1212 -0.92081,-0.67562 -0.79958,-1.23849z" fill="#272727"/><path d="M288.45093,149.52873c0.11115,-0.51621 0.61973,-0.84456 1.13593,-0.7334c0.51621,0.11115 0.84456,0.61973 0.7334,1.13593c-0.11115,0.51621 -0.61973,0.84456 -1.13592,0.73342c-0.51621,-0.11115 -0.84456,-0.61973 -0.73342,-1.13592z" fill="#131313"/></g></g></g></g></g><path d="M178.44093,238.24511c0.3336,-1.54916 5.14442,-44.11629 5.98132,-45.64968c1.13,-2.07031 9.13672,1.03558 12.35184,0.18563c9.84694,-2.60322 20.40571,-5.02166 20.40571,-5.02166c0,0 13.63082,3.52916 17.77238,4.42112c3.09715,0.66703 64.82914,5.27612 63.38098,15.52241c-1.96426,13.89787 -42.04942,-6.72156 -44.60332,5.13718c-0.64652,3.00209 1.66807,3.70048 0.45246,6.65814c-0.29176,0.70982 -3.68106,5.27756 -4.2532,6.86879c-0.90831,2.52596 1.4704,7.13251 -2.418,9.46538c-3.0996,1.85967 -2.2672,7.17082 -3.14749,8.22475c-6.06676,7.26248 -13.40802,1.78992 -22.21889,-0.10752c-10.44661,-2.24968 -26.43198,-1.88347 -35.34483,-5.06854c-3.84728,-1.37485 -9.33,3.87334 -8.3589,-0.63602z" fill="#86c8f5" stroke-width="0"/><path d="M147.39515,437.88281c-1.89563,8.46384 -7.33291,12.55906 -24.34942,8.74791c-6.3118,-1.41364 -16.83743,-5.38315 -21.94121,-5.80389c-3.79315,-0.3127 -7.40672,1.14689 -9.31847,-1.2135c-2.45084,-3.02598 1.99064,-22.37412 2.66057,-25.3653c1.89563,-8.46384 25.32324,-10.41298 42.33973,-6.60183c17.0165,3.81115 12.50442,21.77277 10.60879,30.23661z" fill="#86c8f5" stroke-width="0"/><g stroke-width="0"><g><g><path d="M104.90201,361.25996l1.93433,-8.3506l38.71607,8.80324l-1.93433,8.3506z" fill="#696366"/><path d="M107.01876,354.54012c0,0 0.31757,-1.17289 0.33713,-2.73442c0.02346,-1.8734 0.09283,-4.16852 0.28446,-5.20085c0.21283,-1.1465 1.61813,-2.25717 1.61813,-2.25717c0,0 8.47988,3.14209 14.58367,5.22356c0.40117,0.1368 14.3669,3.76315 14.93748,3.82044c3.19361,0.32062 7.41028,1.11177 7.41028,1.11177c0,0 0.34089,1.52583 0.17565,3.07518c-0.17672,1.65705 -0.86117,3.36165 -0.88909,3.9139c-0.02763,0.54645 -0.55748,1.09536 -0.55748,1.09536z" fill="#454143"/><path d="M104.84663,359.5205l0.45179,-2.14542l39.52093,8.32255l-0.45179,2.14542z" fill="#514c4e"/></g><g><g><path d="M131.12313,438.30737l1.5543,-5.36116c0,0 2.10312,0.7951 3.19223,0.10751c1.53869,-0.97144 5.34575,-5.2192 5.34575,-5.2192l-1.64507,7.95012c0,0 -3.84896,2.21432 -5.57642,2.64788c-1.24721,0.31301 -2.87077,-0.12515 -2.87077,-0.12515z" fill="#4d484c"/><g><g><path d="M95.15884,416.06333l5.48503,-4.20089c0,0 17.76532,-4.16682 25.19776,-6.0638c5.71724,-1.45922 14.89151,-3.95405 14.89151,-3.95405l-4.80578,26.03823z" fill="#eb59c1"/><path d="M99.66217,405.78674l7.58905,-28.27926c0,0 15.93201,13.74083 21.71767,18.49668c4.19842,3.45113 8.39384,14.31194 8.39384,14.31194l-7.33503,4.27413z" fill="#dd54b6"/><path d="M102.98415,389.07175l8.75859,-29.15937c0,0 8.24047,16.70086 12.4748,18.72569c6.27446,3.00041 19.36506,3.91618 19.36506,3.91618l-7.25472,25.02345z" fill="#ff77d8"/><path d="M108.82006,377.35274l3.91266,-13.49579l32.86764,6.48094l-2.4785,16.95953z" fill="#ee51c1"/></g><g><g><path d="M95.55107,405.23869l6.52117,-40.59627l8.06907,2.33936l-6.52117,40.59627z" fill="#a59da1"/><path d="M101.9853,364.81564c0,0 0.50648,-4.53033 2.59013,-5.26081c2.08364,-0.73049 7.03534,0.44144 7.03534,0.44144l-1.54323,7.16256z" fill="#b9b0b5"/><path d="M94.29659,415.95844l1.31852,-10.73005l8.03052,2.32818l-1.31852,10.73005z" fill="#8b8488"/></g><g><path d="M135.09899,413.16768l6.52118,-40.59626l4.35967,1.26394l-6.52117,40.59626z" fill="#a59da1"/><path d="M141.49562,373.57373l1.01102,-6.41332c0,0 3.00812,0.16367 3.70177,1.56183c0.69366,1.39815 -0.30236,5.29016 -0.30236,5.29016z" fill="#b9b0b5"/><path d="M133.83248,423.88398l1.31852,-10.73005l4.33313,1.25625l-1.31851,10.73006z" fill="#8b8488"/></g><path d="M92.82992,424.46234c0,0 -2.37711,-3.54488 -2.34566,-5.0815c0.03501,-1.71053 2.5462,-4.716 2.5462,-4.716l47.00587,9.05196c0,0 1.28458,2.80239 1.27554,4.34733c-0.01268,2.16543 -5.42429,5.71346 -5.42429,5.71346z" fill="#494547"/><path d="M110.82848,363.86251c0,0 -2.06679,-1.18989 -2.32056,-1.86137c-0.27867,-0.73738 1.53281,-2.38056 1.53281,-2.38056c0,0 11.84948,2.38174 17.00763,3.54176c6.01321,1.35232 16.08493,4.0809 16.08493,4.0809c0,0 0.16929,1.32339 -0.07903,1.87339c-0.24048,0.53267 -1.00067,1.48859 -1.00067,1.48859z" fill="#c2b8bd"/><path d="M93.51095,423.38882c0,0 -0.39646,-3.06698 -0.16242,-4.74374c0.19424,-1.39154 1.13547,-3.46895 1.13547,-3.46895l44.20187,8.59102c0,0 1.07024,3.59306 0.60726,5.18999c-0.49736,1.71552 -3.1615,3.62025 -3.1615,3.62025z" fill="#6f696b"/><path d="M102.68126,431.70075l1.55428,-5.36115l29.06201,6.75469l-1.55428,5.36115z" fill="#333032"/><path d="M91.57069,428.60605c-0.88639,-0.93157 -2.09181,-2.80715 -2.09181,-2.80715l1.06345,-6.79184c0,0 1.74313,2.87131 2.52362,4.51513c0.55243,1.1635 11.24618,2.72354 11.24618,2.72354l-1.55428,5.36115c0,0 -10.30077,-2.06924 -11.18716,-3.00083z" data-paper-data="{&quot;index&quot;:null}" fill="#444043"/><g><path d="M105.9936,378.04534c0,0 -1.16206,-5.27431 -0.7022,-6.95492c0.31838,-1.16357 3.19647,-2.16081 3.19647,-2.16081l34.51742,6.85823c0,0 0.66084,3.44407 0.24975,4.94645c-0.42014,1.53549 -2.74403,4.16929 -2.74403,4.16929z" fill="#979797"/><path d="M106.34174,377.03631c0,0 -1.33389,-4.75678 -0.93847,-6.2433c0.27376,-1.0292 3.08323,-1.8197 3.08323,-1.8197l34.35566,7.34542c0,0 0.77419,3.10268 0.42071,4.43155c-0.36126,1.35816 -2.56546,3.63144 -2.56546,3.63144z" fill="#a2a2a2"/></g><g><path d="M103.67473,394.59378c0,0 -1.16206,-5.27431 -0.7022,-6.95492c0.31838,-1.16357 3.19647,-2.16081 3.19647,-2.16081l34.51742,6.85823c0,0 0.66084,3.44407 0.24975,4.94645c-0.42014,1.53549 -2.74403,4.16928 -2.74403,4.16928z" fill="#979797"/><path d="M104.02286,393.58477c0,0 -1.33389,-4.75678 -0.93846,-6.2433c0.27375,-1.02919 3.08322,-1.8197 3.08322,-1.8197l34.35566,7.34543c0,0 0.77419,3.10268 0.42071,4.43155c-0.36127,1.35816 -2.56546,3.63144 -2.56546,3.63144z" fill="#a2a2a2"/></g><g><path d="M101.32073,411.64768c0,0 -1.16206,-5.27431 -0.7022,-6.95492c0.31838,-1.16357 3.19647,-2.16081 3.19647,-2.16081l34.51742,6.85823c0,0 0.66084,3.44407 0.24975,4.94645c-0.42014,1.53549 -2.74403,4.16928 -2.74403,4.16928z" fill="#7a7a7a"/><path d="M101.66886,410.63869c0,0 -1.33389,-4.75678 -0.93847,-6.24331c0.27375,-1.02919 3.08322,-1.81969 3.08322,-1.81969l34.35567,7.34542c0,0 0.77418,3.10268 0.42071,4.43155c-0.36127,1.35816 -2.56547,3.63145 -2.56547,3.63145z" fill="#929292"/></g></g></g></g><path d="M95.04158,409.20768c0,0 0.10765,-1.75591 0.4583,-4.06002c1.02947,-6.76464 6.32474,-40.51085 6.32474,-40.51085l1.84452,5.01492l-4.93186,29.20656z" fill="#777275"/></g></g><g fill="#86c8f5"><path d="M138.84209,422.38454c4.74317,1.6343 3.91539,8.41601 0.83037,15.84596c-3.08501,7.42995 -8.45857,12.38181 -12.00219,11.06027c-3.54361,-1.32154 -3.91539,-8.41601 -0.83037,-15.84596c3.08501,-7.42995 6.53773,-12.94309 12.00219,-11.06027z" data-paper-data="{&quot;index&quot;:null}"/><path d="M115.23312,429.36151c3.08501,-7.42995 5.73753,-11.25811 11.20198,-9.37529c4.74317,1.6343 4.7156,6.73104 1.63058,14.16099c-3.08501,7.42996 -8.45856,12.3818 -12.00219,11.06027c-3.54361,-1.32154 -3.91539,-8.41601 -0.83037,-15.84596z" data-paper-data="{&quot;index&quot;:null}"/><path d="M101.67521,432.14349c3.08501,-7.42995 6.96707,-14.07685 12.43152,-12.19403c4.74317,1.6343 3.48606,9.54977 0.40105,16.97972c-3.08501,7.42995 -7.42453,8.36661 -10.96814,7.04508c-3.54362,-1.32154 -4.94943,-4.40084 -1.86442,-11.83078z" data-paper-data="{&quot;index&quot;:null}"/><path d="M101.37815,420.75516c4.74317,1.6343 4.7156,6.73104 1.63058,14.16099c-3.08501,7.42995 -7.42453,8.36661 -10.96814,7.04508c-3.54362,-1.32154 -4.94943,-4.40084 -1.86442,-11.83078c3.08501,-7.42995 5.73753,-11.25811 11.20198,-9.37529z" data-paper-data="{&quot;index&quot;:null}"/></g></g></g></g></svg>