<svg version="1.1" xmlns="http://www.w3.org/2000/svg" xmlns:xlink="http://www.w3.org/1999/xlink" width="469.57464" height="150.98281" viewBox="0,0,469.57464,150.98281"><defs><linearGradient x1="544.63304" y1="202.30661" x2="543.91105" y2="207.06368" gradientUnits="userSpaceOnUse" id="color-1"><stop offset="0" stop-color="#1f1d20"/><stop offset="1" stop-color="#202022"/></linearGradient><linearGradient x1="545.79611" y1="197.57239" x2="544.9654" y2="203.04593" gradientUnits="userSpaceOnUse" id="color-2"><stop offset="0" stop-color="#302d31"/><stop offset="1" stop-color="#1f1e20"/></linearGradient><linearGradient x1="207.58905" y1="194.8626" x2="207.08034" y2="198.2142" gradientUnits="userSpaceOnUse" id="color-3"><stop offset="0" stop-color="#585758"/><stop offset="1" stop-color="#575758"/></linearGradient><linearGradient x1="193.11199" y1="202.85927" x2="192.71264" y2="205.49052" gradientUnits="userSpaceOnUse" id="color-4"><stop offset="0" stop-color="#363536"/><stop offset="1" stop-color="#353536"/></linearGradient><linearGradient x1="348.78048" y1="132.62109" x2="347.94943" y2="138.09688" gradientUnits="userSpaceOnUse" id="color-5"><stop offset="0" stop-color="#5e555b"/><stop offset="1" stop-color="#2b2629"/></linearGradient><linearGradient x1="342.2345" y1="110.72398" x2="341.63488" y2="114.67485" gradientUnits="userSpaceOnUse" id="color-6"><stop offset="0" stop-color="#72676e"/><stop offset="1" stop-color="#5e555b"/></linearGradient><linearGradient x1="228.47114" y1="107.51582" x2="227.58161" y2="113.37674" gradientUnits="userSpaceOnUse" id="color-7"><stop offset="0" stop-color="#5e555b"/><stop offset="1" stop-color="#4d454a"/></linearGradient><linearGradient x1="230.60977" y1="93.42488" x2="229.98523" y2="97.54001" gradientUnits="userSpaceOnUse" id="color-8"><stop offset="0" stop-color="#74686f"/><stop offset="1" stop-color="#5e555b"/></linearGradient></defs><g transform="translate(-79.96283,-92.02731)"><g data-paper-data="{&quot;isPaintingLayer&quot;:true}" fill-rule="nonzero" stroke="none" stroke-linecap="butt" stroke-linejoin="miter" stroke-miterlimit="10" stroke-dasharray="" stroke-dashoffset="0" style="mix-blend-mode: normal"><g><g stroke-width="0"><path d="M270.5312,189.25228l-7.81175,-16.7066l25.37444,3.25419c0,0 -1.96066,5.59799 -2.56323,8.23598c-0.58286,2.5518 -0.995,7.34191 -0.995,7.34191z" fill="#7f7d7e"/><path d="M270.599,189.46152l-2.75705,-6.08958c0,0 1.79843,3.86872 4.90566,4.96211c2.23751,0.78728 4.14883,0.76389 6.75181,1.48341c2.60295,0.71955 4.90957,1.74008 4.90957,1.74008z" fill="#6c6a6b"/></g><g><g><g><path d="M540.95378,206.61485l-1.31371,-5.06609c0,0 5.67491,2.53815 8.10888,3.8106c2.43402,1.27251 0.74246,2.16494 0.74246,2.16494z" fill="url(#color-1)" stroke-width="0"/><path d="M549.31013,198.30768c0,0 1.11358,2.52345 -1.58834,3.01651c-2.70191,0.49303 -5.7556,1.26657 -5.7556,1.26657l-0.12891,-5.61919z" data-paper-data="{&quot;index&quot;:null}" fill="url(#color-2)" stroke-width="0"/><path d="M531.44549,205.16713l0.31484,-2.07458l14.60529,2.2167c0,0 1.12418,0.97402 1.55147,1.40931c0.38413,0.39133 -0.8676,0.81684 -0.8676,0.81684z" fill="#444444" stroke-width="NaN"/><path d="M531.77216,203.23935l-0.91398,-1.91269l12.47285,1.89302l3.1092,2.13278c0,0 -4.20582,-0.39762 -6.48716,-0.72625c-2.57289,-0.37067 -8.18089,-1.38687 -8.18089,-1.38687z" fill="#535353" stroke-width="0"/><path d="M530.72674,201.44502l-0.22506,-0.68147l11.34386,1.72164l1.58751,0.77268z" fill="#363636" stroke-width="0"/><path d="M531.44549,205.16713l0.17082,-1.12549c0,0 6.31248,1.41684 9.15965,1.84898c2.41274,0.36619 6.83689,0.57887 6.83689,0.57887c0,0 0.785,0.58667 0.99906,0.82435c0.18062,0.20051 -0.31683,0.43062 -0.31683,0.43062c0,0 -4.73991,-0.31026 -7.02741,-0.65746c-3.08621,-0.46838 -9.82211,-1.89985 -9.82211,-1.89985z" fill="#3a3a3a" stroke-width="NaN"/><path d="M530.81632,200.82973l-0.41465,-0.95679l13.4872,2.04702l-1.93868,0.63388z" fill="#242424" stroke-width="0"/><path d="M529.57434,199.93881l0.24826,-1.6356c0,0 8.03267,1.01061 10.99446,1.46009c2.01792,0.30628 5.05824,0.97629 5.05824,0.97629l-2.01662,1.20033z" fill="#3a3a3a" stroke-width="0"/><path d="M529.6881,198.32583l0.3065,-2.01945c0,0 7.61613,0.82228 10.89291,1.31957c2.83554,0.43035 7.63604,1.49264 7.63604,1.49264l-2.6973,1.65657c0,0 -3.60118,-0.62998 -5.82018,-0.96677c-2.9496,-0.44765 -10.31792,-1.48256 -10.31792,-1.48256z" fill="#444444" stroke-width="0"/><path d="M529.93916,196.38407l0.1277,-0.84143c0,0 7.80321,1.0592 11.35971,1.59897c2.47643,0.37585 7.93767,1.32986 7.93767,1.32986l-0.98298,0.71159c0,0 -4.95345,-1.04374 -7.88512,-1.4887c-3.2299,-0.49021 -10.55702,-1.3103 -10.55702,-1.3103z" fill="#535353" stroke-width="0"/><path d="M529.92601,195.60735l0.05113,-0.33655c0,0 7.66549,0.65057 11.08668,1.1698c2.95787,0.44894 8.2534,1.76546 8.2534,1.76546l-0.01391,0.34224c0,0 -5.91611,-1.06474 -9.1244,-1.55169c-3.25023,-0.4933 -10.2528,-1.38925 -10.2528,-1.38925z" fill="#4e4e4e" stroke-width="0"/></g><g stroke-width="0"><g><g><g><path d="M525.73122,203.80623l-2.55462,-13.70215l0.80504,-1.6189c0,0 2.95092,3.71403 3.4892,6.31462c0.29221,1.41186 -0.30138,9.22458 -0.30138,9.22458z" fill="#383638"/><path d="M526.87424,203.28036c0,0 0.14922,-0.59403 -0.10394,-3.11543c-0.27603,-2.74969 -1.10703,-6.55451 -1.33451,-7.67532c-0.51077,-2.51585 -1.23754,-2.75809 -1.23754,-2.75809l4.833,0.14504l2.87636,14.16778z" fill="#555355"/><path d="M524.24868,189.82552l-0.38972,-1.30969c0,0 2.11736,-0.48783 3.06804,-0.3435c0.8909,0.13518 1.90422,1.02461 1.90422,1.02461l0.3788,1.38156z" fill="#686668"/></g><path d="M520.12275,202.95506l-2.55462,-13.70214l0.47494,-1.64859c0,0 3.28101,3.7438 3.81923,6.34433c0.29221,1.41185 -0.30137,9.22457 -0.30137,9.22457z" fill="#383638"/><path d="M521.26577,202.4292c0,0 0.14922,-0.59404 -0.10393,-3.11542c-0.27603,-2.74969 -1.10703,-6.55451 -1.33451,-7.67532c-0.51077,-2.51585 -1.23754,-2.75809 -1.23754,-2.75809l4.16651,-0.46185c0,0 0.8263,1.39401 0.98199,2.16081c0.44358,2.18481 2.56083,12.61387 2.56083,12.61387z" fill="#555355"/><path d="M518.64018,188.97424l-0.60542,-1.34247c0,0 2.33309,-0.45505 3.28385,-0.31077c0.8909,0.13518 1.61658,0.98099 1.61658,0.98099l0.50242,1.40033z" fill="#686668"/><path d="M527.83246,202.42068c0.12292,-0.81023 0.87951,-1.36735 1.68973,-1.24444c0.81024,0.12293 1.36735,0.87951 1.24444,1.68973c-0.12292,0.81023 -0.87951,1.36735 -1.68972,1.24444c-0.81024,-0.12293 -1.36735,-0.87951 -1.24444,-1.68973z" fill="#312f31"/><path d="M528.92018,199.62294l-1.14448,-5.78373l1.59487,0.09707l1.13483,5.84751z" fill="#444144"/></g><path d="M481.98077,192.14282l-2.09796,-11.2659l29.36747,5.64713l-1.91282,9.46724z" fill="#444444"/><path d="M495.06607,190.16845c0,0 0.70711,-0.42059 1.58697,-1.40461c0.80457,-0.89964 1.76565,-2.34978 2.21553,-2.75054c1.22026,-1.54083 3.50187,-0.72232 3.50187,-0.72232l-1.06644,0.49868l-5.10794,4.55038z" fill="#292929"/><path d="M496.25372,200.99873l-4.79421,-11.82466c0,0 3.37941,1.05025 5.22115,0.26872c1.43118,-0.60736 1.73302,-3.22364 3.33468,-3.26475c4.59527,-0.11769 17.38909,1.3852 17.38909,1.3852c0,0 2.1313,7.55028 2.61483,10.5438c0.33379,2.06661 0.0756,6.5102 0.0756,6.5102z" fill="#4a464a"/><path d="M502.31101,188.65942c-4.4137,-1.31317 -2.78457,-2.4455 -2.78457,-2.4455c0,0 0.97916,-1.1685 2.84725,-1.03284c4.58431,0.33299 13.04289,2.20027 14.74954,2.43336c0.80486,0.10989 0.23824,0.73994 0.23824,0.73994c0,0 -1.83057,2.13546 -3.40172,2.15393c-1.57123,0.01846 -7.23503,-0.53565 -11.64877,-1.84885z" fill="#5e595e"/></g><g><path d="M483.59676,205.72834l-2.41156,-18.50689l18.65071,3.12028l4.09562,4.99954l6.04493,0.81778l0.92053,13.71276z" fill="#4d4846"/><path d="M488.17616,206.81497l21.8316,-6.18562l22.10534,3.1098c0,0 0.66948,4.33238 0.6076,5.69308c-0.03162,0.69375 -0.59502,2.8875 -0.59502,2.8875z" fill="#423d3b"/><path d="M485.65266,198.02576l-1.66605,-10.21176l0.81123,0.12314l1.66606,10.21177z" fill="#363332"/><path d="M488.87538,206.11023l0.18266,-1.20358c0,0 5.58683,-1.72664 14.54906,-0.36645c1.19079,0.18075 5.00905,3.33483 6.20924,3.51699c7.61491,1.15574 15.0684,2.28698 17.90405,2.71733c2.30933,0.35049 4.86257,-0.57689 4.86257,-0.57689l-0.37778,2.48892z" fill="#312e2c"/><path d="M493.13015,193.86991l-1.0313,-4.82475l8.21362,1.24663l3.44456,4.99472l6.20599,1.13822l-7.79621,0.78783z" fill="#585350"/><path d="M482.69613,199.39243l0.1693,-1.11544c0,0 8.51649,-2.49388 11.36113,-2.06217c4.28726,0.65067 16.12301,2.44702 16.12301,2.44702l-0.1693,1.11544c0,0 -12.03871,-1.82714 -16.32587,-2.47782c-2.78623,-0.42289 -11.15836,2.09294 -11.15836,2.09294z" fill="#2b2827"/></g></g></g><g><g><g><path d="M145.45218,191.35051c0.19946,2.28984 -0.49504,4.80368 -1.61332,4.90103c-1.11826,0.09742 -2.23692,-2.25843 -2.43638,-4.54831c-0.19946,-2.28984 -1.02351,-11.08343 0.09482,-11.1809c1.11826,-0.09742 3.75547,8.53828 3.95494,10.82813z" fill="#615e5f" stroke-width="0"/><g><path d="M191.06471,168.00157c-0.45405,-0.60254 -2.57127,-2.25132 -2.57127,-2.25132l10.23986,-1.35884l-7.01246,6.21816c0,0 -0.20206,-2.00541 -0.65612,-2.60797z" fill="#756a6a" stroke-width="0"/><path d="M182.39505,164.96907l2.06072,-13.57786l19.20381,-3.01924l-2.94103,19.3781z" fill="#8a7c7c" stroke-width="0"/><path d="M141.99513,164.34694l9.31214,-16.92767l34.5578,5.11012l2.58133,13.20348c0,0 -22.96609,-1.89155 -30.71493,-2.12264c-3.21663,-0.09598 -15.73641,0.73685 -15.73641,0.73685z" fill="#7c787a" stroke-width="0"/><path d="M151.06343,149.81466l0.07587,-1.48692c0,0 25.6307,3.89002 33.68828,5.11291c4.50821,0.68417 16.92122,-3.87513 16.92122,-3.87513l-0.24455,1.61123c0,0 -12.11918,4.58446 -16.47711,3.90821c-7.99067,-1.23993 -33.96373,-5.27026 -33.96373,-5.27026z" fill="#535353" stroke-width="0"/><path d="M110.17264,160.23315l3.02418,-19.92579c0,0 5.53833,-6.2944 13.045,-7.47731c9.32359,-1.46922 25.75331,2.82983 27.80051,3.14055c1.57097,0.23847 -14.32448,8.36191 -14.32448,8.36191l-3.02418,19.92579z" fill="#8d898b" stroke-width="0"/><path d="M288.08579,140.56419l2.05631,-2.86814l106.32584,16.28177l-2.21272,14.57929c0,0 -37.62981,-3.84451 -49.6498,-6.08968c-5.96947,-1.11502 -56.51962,-21.90322 -56.51962,-21.90322z" fill="#c98cac" stroke-width="0"/><path d="M251.51154,237.16998l-2.55105,-13.47174c0,0 4.20368,6.54433 6.85748,8.0363c1.69081,0.95059 5.81184,1.96214 12.21913,0.46925c5.15815,-1.20179 11.09524,-5.87459 11.09524,-5.87459l-13.77565,12.9421z" fill="#a08e97" stroke-width="0"/><path d="M348.01665,204.36344l1.233,-23.7048l18.54785,1.39627l-3.18067,20.95702c0,0 -6.58293,0.73968 -9.4215,1.0152c-1.30699,0.12685 -7.17872,0.33635 -7.17872,0.33635z" fill="#96858d" stroke-width="0"/><path d="M249.13265,240.59767l0.83132,-5.47741c0,0 11.61626,3.85524 16.65184,1.46245c2.45069,-1.16451 22.25265,-19.3313 33.17646,-29.43859c4.26302,-3.94434 7.17396,-6.66125 7.17396,-6.66125c0,0 3.88748,-3.22639 4.32392,-6.07535c0.21953,-1.43316 1.3112,-5.49403 0.83592,-7.904c-0.47956,-2.43151 -2.52709,-3.20582 -2.52709,-3.20582l-2.78038,-14.1497l19.57008,3.11548l-6.86391,25.83595l3.33119,3.09677c0,0 -10.34719,4.49841 -15.66732,8.70346c-8.32412,6.57926 -36.00788,33.11046 -36.00788,33.11046z" fill="#918189" stroke-width="0"/><path d="M325.04596,201.2339l5.49195,-28.09788l13.57828,2.33973l8.44537,13.42141l-4.66567,15.80482z" fill="#96858d" stroke-width="0"/><path d="M320.29516,202.38322l-1.85876,-4.47538l7.42875,-25.36233l5.03504,0.67851l-4.9575,28.16168z" fill="#8f8187" stroke-width="0"/><path d="M346.66009,204.61914c0,0 3.72097,-6.17866 3.19552,-11.73123c-0.30255,-3.1971 -4.86232,-5.88144 -5.04782,-7.84139c-0.35433,-3.74399 -0.90248,-9.53605 -0.90248,-9.53605l7.11138,5.49327c0,0 2.28516,7.64319 2.23667,11.94616c-0.03252,2.89096 -2.45615,8.97212 -3.76227,11.40257c-0.11012,0.20487 -1.26046,-0.05391 -1.33631,0.10174c-0.18528,0.3804 0.73331,0.75375 0.73331,0.75375z" fill="#86787e" stroke-width="0"/><path d="M350.57946,182.45448c0,0 -2.46238,-4.37395 -6.94612,-6.03719c-5.07602,-1.88296 -21.9543,-4.68342 -21.9543,-4.68342l158.07948,9.64788l1.98106,9.70898l6.15621,12.20464c0,0 -99.26491,-17.66655 -119.62009,-20.75588c-6.64221,-1.00813 -17.69628,-0.08495 -17.69628,-0.08495z" fill="#df8db7" stroke-width="0"/><path d="M191.01321,206.05855l0.69876,-36.57915c0,0 2.22698,-3.45566 2.75482,-3.59366c5.81978,-1.52183 39.09204,-7.24579 44.42673,-6.14655c5.84386,1.20413 -10.89318,10.72907 -10.89318,10.72907c0,0 -14.55068,-0.15929 -17.6973,3.66171c-4.27223,5.18773 -2.08369,23.07218 -2.08369,23.07218z" fill="#c77da3" stroke-width="0"/><path d="M267.10456,187.33541l-1.4533,-2.34996c0,0 7.77614,-7.52495 10.52624,-9.42651c2.83916,-1.96324 6.24995,-2.17393 6.24995,-2.17393l5.52279,3.16672c0,0 -4.34997,-1.16857 -6.94451,0.17365c-2.22726,1.15217 -6.39887,3.63298 -9.63138,6.27014c-2.3514,1.9183 -4.26977,4.33985 -4.26977,4.33985z" fill="#414041" stroke-width="0"/><path d="M150.90473,148.73228l6.49973,-10.83692l48.07787,7.29687c0,0 -3.53433,3.97012 -6.91363,5.44588c-3.31664,1.44842 -13.17781,3.32817 -13.17781,3.32817z" fill="#979395" stroke-width="0"/><path d="M151.86712,147.72234l5.70877,-10.95699l48.07787,7.29687c0,0 -3.53433,3.97012 -6.91363,5.44588c-3.31664,1.44842 -13.17781,3.32817 -13.17781,3.32817z" fill="#bdb7ba" stroke-width="0"/><path d="M348.99284,205.29755l-1.77466,-0.78878l17.28457,-1.59928c0,0 -3.82874,1.49987 -6.40416,1.915c-2.57541,0.41519 -9.10574,0.47296 -9.10574,0.47296z" fill="#887980" stroke-width="0"/><path d="M193.40111,206.89081c0,0 -0.74329,-10.69819 -0.6496,-19.32014c0.0942,-8.66406 0.20764,-16.78573 0.72373,-20.33322c0.08743,-0.60102 3.20702,-10.17193 3.77935,-10.61243c3.08945,-2.37778 9.58163,6.43979 15.24833,6.18366c8.39053,-0.37922 27.3598,1.97975 27.3598,1.97975l-9.15487,3.98207c0,0 -19.65933,-0.08581 -22.79474,4.63436c-4.24096,6.38454 0.11203,28.15698 0.11203,28.15698z" fill="#d486ae" stroke-width="0"/><path d="M195.04785,203.58151c0,0 -0.45274,-41.40835 2.37118,-51.17211c1.32128,-4.56838 -0.62882,-14.07653 -0.62882,-14.07653l49.04789,14.49261l-1.00355,16.10169c0,0 -31.21534,-7.86628 -38.43531,-2.6162c-4.81958,3.50457 -2.32554,32.44957 -2.32554,32.44957z" fill="#e490bb" stroke-width="0"/><g stroke-width="0"><path d="M341.35704,162.07208l1.2417,-8.18118l9.25399,1.40451l-1.2417,8.18118z" fill="#454545"/><path d="M342.29467,161.4408l0.74239,-7.269l11.19794,1.69954l-1.09513,7.21549z" fill="#b0b0b0"/><path d="M342.74032,156.96801l0.19873,-2.83253l11.41212,1.73205l-0.28619,1.88579c0,0 -7.75303,-0.8505 -9.45397,-0.96847c-0.56837,-0.03937 -1.87068,0.18323 -1.87068,0.18323z" fill="#bebebe"/><path d="M353.47292,162.58154c0,0 -5.09448,-3.35784 -3.96765,-6.97739c1.67452,-5.37865 5.67738,-4.28755 5.67738,-4.28755l39.58669,7.35681l-1.50966,9.94671z" fill="#9c989a"/><path d="M355.43345,161.57509c0,0 -1.93056,-3.8522 -2.03286,-4.80519c-0.15164,-1.41261 2.2643,-4.03713 2.2643,-4.03713l41.1198,6.27455l-1.5192,7.34381z" fill="#898587"/><path d="M355.31436,161.75753l-0.71702,-2.07039l37.79891,5.7368l-0.29098,1.91741z" fill="#c1bcbf"/><path d="M355.70382,158.38385c0,0 -1.11299,-1.55256 -0.97236,-2.47931c0.13156,-0.86688 1.79082,-2.91349 1.79082,-2.91349l38.22887,5.80205l-0.81844,5.3928z" fill="#0d0d0d"/><path d="M355.58721,159.15237c0,0 -1.02236,-2.14947 -0.88173,-3.07623c0.13156,-0.86688 1.70017,-2.31651 1.70017,-2.31651l38.22889,5.80207l-0.81844,5.3928z" fill="#2e2e2e"/><path d="M350.53024,160.30993c-2.14875,-3.42821 -0.64615,-5.56344 -0.64615,-5.56344c0,0 1.19444,4.34067 2.28129,5.41353c1.28676,1.27014 4.65073,3.16232 4.65073,3.16232l-3.47957,-0.45711c0,0 -2.42808,-1.95197 -2.80621,-2.55529z" fill="#7d7a7c"/><path d="M358.11131,159.84868c0,0 -0.54693,-2.32033 -0.37531,-3.45093c0.15085,-0.99386 1.35068,-2.97548 1.35068,-2.97548l4.7687,0.72374c0,0 -0.78661,2.10983 -0.91683,2.96822c-0.17905,1.1798 -0.05844,3.45813 -0.05844,3.45813z" fill="#555555"/><path d="M366.63042,161.14169c0,0 1.03773,-2.39456 1.20927,-3.52507c0.15085,-0.99386 -0.23397,-2.90134 -0.23397,-2.90134l5.32241,0.8078c0,0 -0.66929,1.63311 -0.79957,2.49154c-0.17905,1.1798 -0.17574,3.93484 -0.17574,3.93484z" fill="#555555"/><path d="M375.85151,162.54116c0,0 1.03773,-2.39453 1.20931,-3.52511c0.15085,-0.99386 -0.23398,-2.90133 -0.23398,-2.90133l5.24328,0.79578c0,0 -0.66929,1.63311 -0.79957,2.49154c-0.17905,1.1798 -0.17574,3.93484 -0.17574,3.93484z" fill="#555555"/><path d="M385.40536,163.99121c0,0 1.16016,-2.01628 1.33171,-3.14693c0.15085,-0.99386 -0.3564,-3.27947 -0.3564,-3.27947l5.08509,0.77178c0,0 0.52106,2.08351 0.39072,2.94197c-0.17905,1.1798 -1.36608,3.48451 -1.36608,3.48451z" fill="#555555"/><path d="M358.7179,154.07835l-0.53757,-0.89074l35.15997,5.3363l-1.63693,0.56069c0,0 -2.79802,-0.42466 -5.2324,-0.79409c-0.53061,-0.08057 -1.48538,-0.55796 -2.28015,-0.6786c-0.76846,-0.11665 -1.36942,0.12465 -2.32465,-0.02028c-1.48967,-0.2261 -3.17032,-0.48117 -4.92987,-0.7482c-0.72949,-0.11071 -1.30662,-0.58624 -2.05526,-0.69987c-0.6657,-0.10101 -1.50158,0.16005 -2.17033,0.05855c-1.65986,-0.25193 -3.30333,-0.50137 -4.8486,-0.7359c-0.7096,-0.10769 -1.33261,-0.64564 -1.99283,-0.74585c-0.80593,-0.12234 -1.63496,0.19524 -2.34109,0.08805c-2.88048,-0.43713 -4.81039,-0.73007 -4.81039,-0.73007z" fill="#474747"/></g><g><path d="M203.10408,198.30172l4.10533,-2.27723c0,0 2.37055,3.20692 5.03821,4.51703c2.35944,1.15871 10.15681,2.94524 10.15681,2.94524l-3.27838,3.90659z" fill="#6d6a6b" stroke-width="0"/><path d="M194.16097,203.51905l10.23512,-5.91635c0,0 2.85952,2.71639 4.90442,3.6962c3.09361,1.48233 11.85118,4.3324 11.85118,4.3324l-4.87568,3.61667z" fill="#615e5f" stroke-width="0"/><path d="M192.84081,225.53761l1.92064,-22.54007c0,0 4.18606,1.43635 8.9483,2.18908c3.71713,0.58755 7.84623,0.3574 10.21054,1.33156c4.15074,1.71015 35.44322,18.9567 35.44322,18.9567l0.92366,10.43153z" fill="#575455" stroke-width="0"/><path d="M218.24556,202.0418c7.68992,-4.46181 17.68649,-16.55073 19.31649,-18.90423c1.17426,-1.6955 2.64567,-6.80862 2.64567,-6.80862l6.59388,7.8936c0,0 2.70798,21.14245 1.97749,33.82317c-0.20438,3.54818 1.69258,7.82648 0.29975,9.09838c-1.248,1.13953 -18.36085,0.85843 -23.5792,-0.70715c-10.98196,-3.29459 -17.12698,-1.40575 -20.03771,-7.18331c-2.91073,-5.77752 5.0505,-10.9113 5.0505,-10.9113c0,0 5.7313,-5.13897 7.73329,-6.30058z" fill="#504e4f" stroke-width="0"/><path d="M227.92234,170.3093c0,0 0.61532,-1.41646 1.56222,-1.94391c1.21776,-0.67827 5.13819,-1.78825 5.13819,-1.78825c0,0 8.95065,3.44951 11.5532,6.36302c2.40124,2.68807 -5.3511,11.91042 -5.3511,11.91042l-1.17932,-5.60173z" fill="#464445" stroke-width="0"/><path d="M243.80709,220.48853c0,0 -10.11782,4.79182 -18.5319,3.68815c-8.1171,-1.06469 -14.54713,-7.99988 -14.22789,-9.38999c0.17293,-0.75321 8.50711,-2.83143 12.57773,-6.48336c4.52489,-4.05947 4.89754,-9.76977 6.53479,-11.55482c4.57071,-4.98324 14.44741,-13.77933 14.30525,-19.91376c-0.14909,-6.43332 -10.4341,-10.09196 -10.4341,-10.09196c0,0 4.14549,-1.64826 9.09418,-1.02859c2.10797,0.26399 6.39614,2.31651 7.25117,2.83568c2.804,1.70235 4.52665,3.61884 4.52665,3.61884c0,0 4.34926,-4.27511 7.95709,-4.04056c3.60774,0.23454 21.77811,5.97369 21.77811,5.97369l-17.91677,10.01896z" fill="#555354" stroke-width="0"/><path d="M229.67872,197.27737c0,0 6.19998,-10.05634 11.69232,-14.7199c5.49233,-4.66356 10.00182,-7.19606 13.49418,-6.666c2.52896,0.38383 4.48718,9.39508 4.48718,9.39508l-15.26848,26.78143c0,0 -14.94761,1.04804 -16.03597,-1.62622c-0.85957,-2.11213 1.63073,-13.16434 1.63073,-13.16434z" fill="#585758" stroke-width="0"/><path d="M247.88233,227.65245c0,0 -1.91658,-6.55287 -1.14053,-9.49187c1.08413,-4.10581 4.41045,-16.39982 4.41045,-16.39982l0.36857,10.61116c0,0 -2.09584,9.54105 -2.41936,12.5565c-0.31207,2.90944 0.76943,5.26886 0.76943,5.26886z" fill="#3f3e3f" stroke-width="0"/><path d="M249.64493,209.85021c0.05807,-1.68518 1.47901,-9.26871 1.47901,-9.26871c0,0 11.63593,-12.96876 14.10767,-15.27709c0.72463,-0.67671 4.30206,-1.8845 4.30206,-1.8845l-2.35599,4.55192c0,0 -1.64667,0.36098 -1.89611,0.80645c-0.2658,0.47461 0.3472,1.95917 0.3472,1.95917l-6.34321,7.6145c0,0 -1.78358,0.75147 -2.03655,1.22419c-0.25305,0.47288 0.29355,1.45419 0.29355,1.45419c0,0 -5.15238,8.26168 -6.34766,10.52267c-0.55267,1.04542 -0.5352,2.4971 -0.5352,2.4971c0,0 -1.07273,-2.51464 -1.01459,-4.19976z" fill="#474647" stroke-width="0"/><path d="M239.81389,187.14957l19.58463,11.30207c0,0 -1.3274,0.82244 -1.64273,1.31981c-0.23271,0.36703 -0.07802,1.39394 -0.07802,1.39394z" fill="#3f3e3e" stroke-width="NaN"/><path d="M247.29943,177.81416l20.11012,10.19179c0,0 -1.22892,0.66648 -1.52105,1.18483c-0.30451,0.54037 -0.10113,1.66283 -0.10113,1.66283z" fill="#3f3e3e" stroke-width="NaN"/><path d="M230.69671,204.30279c0,0 9.41699,9.21033 14.33164,16.00229c4.91458,6.79197 2.81479,7.6939 2.81479,7.6939z" fill="#636162" stroke-width="NaN"/><path d="M247.29279,183.50099c0,0 -6.36846,1.97076 -9.55123,4.61908c-3.18281,2.6483 -13.85073,17.39746 -13.40873,14.48533c0.44198,-2.91217 16.52442,-21.42974 18.29905,-21.16041c0.67176,0.10197 3.84501,-0.57179 4.61858,-0.21419c1.26989,0.58707 0.04235,2.27018 0.04235,2.27018z" fill="#918f91" stroke-width="0"/><path d="M192.40917,225.34127l14.0683,0.22522c0,0 12.50317,1.56154 15.58104,2.18553c7.49559,1.51955 29.55596,6.96495 29.55596,6.96495l-1.39042,6.18243c0,0 -24.62015,-0.13035 -31.23911,-2.46565c-1.91483,-0.67559 -7.5729,-2.15945 -11.57759,-4.13491c-7.83695,-3.86592 -14.99818,-8.95753 -14.99818,-8.95753z" fill="#626061" stroke-width="0"/><path d="M249.28325,240.40073c0,0 0.68412,-4.23794 0.59137,-6.6187c-0.10423,-2.67586 -1.18642,-8.65483 -1.18642,-8.65483l1.76216,0.26744c0,0 1.0309,4.6643 1.12536,7.08673c0.10317,2.64859 -0.53025,8.18676 -0.53025,8.18676z" fill="#4a494a" stroke-width="0"/><path d="M248.96475,241.19827l0.59704,-3.34545c0,0 0.52063,0.34677 0.78903,0.38753c0.31894,0.04844 0.95842,-0.12225 0.95842,-0.12225l-0.30489,3.16667c0,0 -0.82894,0.28644 -1.20054,0.27074c-0.28478,-0.01204 -0.83903,-0.35719 -0.83903,-0.35719z" fill="#363536" stroke-width="0"/><path d="M248.8063,226.18223l-0.13828,-1.66016c0,0 0.46585,-0.28775 0.839,-0.29105c0.35542,-0.00308 0.85349,0.19668 0.85349,0.19668l0.23541,1.79201c0,0 -0.55252,0.42938 -0.85908,0.42295c-0.28883,-0.00604 -0.9305,-0.46038 -0.9305,-0.46038z" fill="#585758" stroke-width="0"/><path d="M207.97379,233.69502c0,0 -7.3627,-4.10409 -7.15816,-5.45173c0.20555,-1.35426 6.54779,-1.57593 6.54779,-1.57593c0,0 10.85609,1.40412 15.7311,2.31863c2.72919,0.51197 11.02876,2.70112 11.02876,2.70112c0,0 7.05106,2.13644 7.68411,3.39743c0.69052,1.37546 -3.55628,3.60507 -3.55628,3.60507c0,0 -12.77576,-0.61803 -16.66447,-1.41878c-1.38139,-0.2845 -13.61287,-3.57575 -13.61287,-3.57575z" fill="#6b696a" stroke-width="0"/><path d="M198.74394,225.31363l-1.97411,-0.06615c0,0 1.13471,-3.30177 3.63751,-1.66551c2.50278,1.63628 21.41375,3.48346 21.41375,3.48346z" fill="#4b4949" stroke-width="0"/><path d="M192.50293,225.2098c0,0 -2.00395,-0.11037 -1.98635,-3.79216c0.00889,-1.86369 0.41821,-16.15625 0.41821,-16.15625l4.12867,-2.30565c0,0 -0.22531,6.02817 -0.45698,8.92847c-0.30814,3.85739 -1.19089,13.46406 -1.19089,13.46406z" fill="#3f3d3e" stroke-width="0"/><path d="M199.03722,225.52591c0,0 3.48037,-1.65463 19.40549,0.42138c1.3151,0.17146 -1.77004,-0.30104 7.44714,1.61101c9.21721,1.912 12.85417,3.994 12.85417,3.994c0,0 -14.73511,-3.31802 -20.86772,-4.24876c-6.99042,-1.06094 -18.83913,-1.77765 -18.83913,-1.77765z" fill="#838082" stroke-width="0"/><path d="M208.47711,196.98715c0,0 -4.64935,1.50685 -7.04219,2.77774c-2.68951,1.42845 -8.30902,5.37568 -8.30902,5.37568l-0.53529,-1.7012c0,0 4.29824,-3.24543 6.73302,-4.53862c2.66202,-1.41384 8.61821,-3.6148 8.61821,-3.6148z" fill="#4a494a" stroke-width="0"/><path d="M209.4392,196.87242l-3.77289,1.1272c0,0 0.19231,-0.62466 0.11077,-0.88373c-0.0969,-0.30791 -0.56507,-0.7916 -0.56507,-0.7916l3.37935,-1.30946c0,0 0.67358,0.59447 0.82804,0.933c0.11842,0.25939 0.01976,0.92473 0.01976,0.92473z" fill="url(#color-3)" stroke-width="0"/><path d="M194.15083,204.50893l-3.32721,2.25607l0.18529,-2.17952l2.35866,-1.68738c0,0 0.69292,0.27724 0.82704,0.55326c0.12644,0.26003 -0.04385,1.0576 -0.04385,1.0576z" fill="url(#color-4)" stroke-width="0"/></g><path d="M326.3461,200.3222c0,0 1.57993,-4.2295 2.286,-5.52738c0.47935,-0.88104 3.04063,-1.94035 3.04063,-1.94035l16.85946,2.3381c0,0 -2.13268,5.54045 -2.71444,6.83411c-0.25489,0.56668 -1.41272,1.0915 -1.41272,1.0915z" fill="#665b60" stroke-width="0"/><path d="M281.02183,174.97761c0,0 -3.51681,-2.1141 -8.21659,-3.99288c-2.98765,-1.19433 -7.12427,-2.39542 -8.98007,-2.57007c-5.39544,-0.50783 -8.65193,4.16127 -8.65193,4.16127c0,0 -2.88874,-2.7807 -4.84424,-3.94201c-1.82543,-1.084 -5.97901,-2.72681 -5.97901,-2.72681c0,0 25.04537,-1.34838 28.93996,-1.34409c7.46625,0.00829 33.78668,4.39887 33.78668,4.39887l4.00985,15.05787z" fill="#8b7c84" stroke-width="0"/><g stroke-width="0"><path d="M327.92576,199.60841c0,0 0.85576,-2.49607 1.39575,-3.31915c0.55985,-0.85339 2.87684,-1.56624 2.87684,-1.56624l14.36552,2.18023c0,0 0.23441,1.02979 -0.10897,1.72392c-0.46693,0.94374 -3.62431,3.24341 -3.62431,3.24341z" fill="#585852"/><path d="M328.03759,198.8715c0,0 0.74389,-1.75921 1.28395,-2.58226c0.55985,-0.85339 2.9887,-2.30317 2.9887,-2.30317l14.36552,2.18024c0,0 0.12264,1.76674 -0.22082,2.46084c-0.46693,0.94374 -3.51247,2.50639 -3.51247,2.50639z" fill="#797971"/><path d="M344.85714,196.39162c-1.01031,-0.33333 -12.46057,-2.34563 -12.46057,-2.34563l14.34586,2.17729l-0.36942,2.43398c0,0 -0.50561,-1.93227 -1.51594,-2.26566z" fill="#85857b"/></g><path d="M332.06705,181.86075l0.77875,-5.13095l7.05519,1.07076l0.50401,5.32569z" fill="#7c6e75" stroke-width="0"/><path d="M325.72597,154.1722l-2.90927,-8.66593l1.36371,0.20701l4.75508,9.40286z" fill="#d495b6" stroke-width="0"/><path d="M288.30873,140.77689l13.533,-1.07112l21.16764,5.85507l2.7434,8.60132z" fill="#df9cbe" stroke-width="0"/><path d="M331.47297,186.85573l0.24337,-1.60344l10.74298,1.63052l0.71872,1.74947z" fill="#7c6e75" stroke-width="0"/><path d="M293.18414,168.75119c0,0 -18.10814,-1.53619 -23.75215,-1.88687c-8.5463,-0.5311 -25.77223,-0.79361 -25.77223,-0.79361c0,0 15.51993,-2.13602 29.10194,-1.6081c14.7263,0.5724 58.4958,5.74127 58.4958,5.74127l-0.81168,5.34785z" fill="#75686e" stroke-width="0"/><path d="M285.02806,176.38422l-3.12084,-1.05102c0,0 10.01761,-0.89133 15.18228,0.66409c5.16464,1.55534 13.56933,7.99474 13.56933,7.99474z" fill="#7c6e76" stroke-width="0"/><path d="M239.70267,165.42875c0,0 -29.6806,-20.07743 -29.86876,-24.77905c-0.17087,-4.27078 29.13183,6.79623 29.44246,6.73392c5.43542,-1.09061 77.58713,2.56248 77.58713,2.56248l25.28868,10.70523l52.25025,7.35214l5.18849,14.51837c0,0 -61.03752,-8.08156 -84.55917,-11.48655c-8.16503,-1.18198 -24.70951,-4.34811 -40.01129,-5.51713c-11.80328,-0.90172 -29.93705,0.71209 -29.93705,0.71209z" fill="#ee96c3" stroke-width="0"/><path d="M110.15098,158.45339l6.31344,-19.42657c0,0 0.95811,-6.98951 8.46488,-8.17248c9.32359,-1.46922 25.75332,2.82985 27.80053,3.14054c1.57097,0.23847 -14.32449,8.36191 -14.32449,8.36191l-3.02417,19.92579z" fill="#c4b4b3" stroke-width="0"/><g stroke-width="0"><path d="M390.86558,182.59552l-0.55257,-15.40015l90.6915,20.60642l-1.61953,5.62763l-47.62042,-2.31468z" fill="#ad6d8e"/><path d="M419.06386,172.37474l8.43174,-7.08773l26.79104,1.91274l-5.81712,9.63803z" fill="#8d788b"/><path d="M393.70293,169.72799l2.43619,-16.05149l31.42537,11.62519l-5.55757,6.10424z" fill="#857183"/><path d="M436.13969,172.80975l18.08484,-5.61818l26.96028,7.90771l-1.31729,6.77299z" fill="#947e92"/><path d="M389.67236,168.50072l4.77645,-12.18718l1.89016,-2.81198l-2.26037,14.89329z" fill="#756474"/><path d="M392.61272,179.60943l1.09844,-12.04426l43.07084,4.86922l-3.6216,15.69126z" fill="#746373"/><path d="M433.15509,188.10927c0,0 1.32212,-6.17903 1.94542,-8.96117c0.53362,-2.38203 1.56714,-6.71837 1.56714,-6.71837l43.56319,7.5312l0.71693,8.60506z" fill="#867284"/><path d="M389.72294,168.4372l4.21169,-0.90925l-1.29338,12.09358z" fill="#6f5e6d"/><path d="M474.06737,173.91016l-19.08908,-6.29935l25.879,7.60575l-0.89154,3.45075c0,0 -0.07455,-1.59855 -1.16341,-2.47677c-0.72839,-0.58746 -4.73499,-2.2804 -4.73499,-2.2804z" fill="#978195"/><path d="M434.58205,171.91621c0,0 8.40434,-2.22939 11.35426,-3.15129c2.14889,-0.67151 4.71638,-1.87089 4.71638,-1.87089l2.48826,0.49153l-15.94029,4.92806z" fill="#9c859a"/><path d="M420.24277,170.55744c0,0 1.71447,-2.52357 3.25211,-3.65603c1.5376,-1.13238 3.94205,-1.59201 3.94205,-1.59201l-4.76047,5.61734z" fill="#806b7d"/><path d="M456.04569,165.70221l2.96948,-5.34837l14.4677,5.9719l4.57628,7.16783z" fill="#55494f"/><path d="M453.12085,168.09047c0,0 1.18877,-0.61882 1.83055,-1.11287c0.48342,-0.37211 1.37137,-1.6378 1.37137,-1.6378l21.46088,7.30296c0,0 0.78345,0.62157 1.31416,1.03148c0.55469,0.42841 1.94499,1.48602 1.94499,1.48602z" fill="#685960"/><path d="M456.73442,164.90432l2.3278,-4.28457l13.487,5.41191c0,0 -7.68606,-2.71679 -12.15462,-3.13741c-2.59203,-0.24401 -3.66011,2.01008 -3.66011,2.01008z" fill="#41383c"/></g><path d="M117.66591,119.86395l0.78156,-5.14933c0,0 22.27796,2.07128 43.97892,5.42249c12.93182,1.99701 26.10828,5.61281 33.00371,6.30525c15.5477,1.5612 26.57508,-1.32899 26.57508,-1.32899l-7.86587,9.57119z" fill="#ffa1d1" stroke-width="0"/><path d="M113.02277,133.27666l4.54915,-15.57633c0,0 53.86668,10.25959 71.57793,12.50189c10.49138,1.32826 24.89714,-0.28756 24.89714,-0.28756l-2.19719,14.47659c0,0 -66.73677,-10.12879 -82.82491,-12.57053c-6.61484,-1.00396 -20.03623,28.03577 -20.03623,28.03577z" fill="#ee96c3" stroke-width="0"/><path d="M278.72514,235.79382l11.21512,-12.04944c0,0 12.18576,-14.18939 22.50945,-19.56387c2.62343,-1.36576 7.91399,-1.77302 7.91399,-1.77302c0,0 -7.96919,3.83269 -10.95352,6.20315c-7.04761,5.59802 -30.68491,27.18318 -30.68491,27.18318z" fill="#70646b" stroke-width="0"/><path d="M383.37615,186.09378l-3.52809,-18.74341l1.33485,0.20256c0,0 1.06848,5.67649 1.63305,8.67593c0.08045,0.42734 1.24673,1.83946 1.3464,2.36879c0.17272,0.91762 -0.70653,1.03051 -0.5135,2.05609c0.53757,2.85588 1.06209,5.6425 1.06209,5.6425z" fill="#795467" stroke-width="0"/><path d="M212.41022,144.91314c0,0 -9.38014,-8.05102 -8.14204,-11.68126c0.74132,-2.17364 18.58642,-7.5084 18.58642,-7.5084l67.47542,11.93214l-2.0827,2.81548l28.52691,9.63809l-74.97082,15.50104c0,0 0.05997,-5.66894 4.05037,-7.95426c3.87817,-2.22101 19.56503,-5.57007 19.56503,-5.57007c0,0 -33.8226,-5.18286 -41.01801,-6.36259c-2.40056,-0.39357 -11.99064,-0.81019 -11.99064,-0.81019z" fill="#f399c8" stroke-width="0"/><g><path d="M220.78938,127.35621l0.48595,-3.20168l174.55466,26.49261l-0.48595,3.20168z" fill="#584f54" stroke-width="0"/><path d="M390.06201,150.02276l0.41058,-2.70532l3.02068,0.45843l2.25467,3.10986z" fill="#685d63" stroke-width="0"/><g fill="#685d63" stroke-width="0"><g><g><g><path d="M383.44,149.26971l0.44672,-2.94329l3.83718,0.58235l-0.44672,2.94329z"/><path d="M377.21376,148.32481l0.44672,-2.94329l3.83719,0.58236l-0.44672,2.94329z"/></g><g><path d="M371.22248,147.41546l0.44671,-2.9433l3.83719,0.58236l-0.44672,2.94329z"/><path d="M364.99622,146.47051l0.44672,-2.94329l3.83718,0.58236l-0.44671,2.9433z"/></g></g><g><g><path d="M358.88749,145.5434l0.44671,-2.9433l3.83718,0.58236l-0.44672,2.94329z"/><path d="M352.66122,144.59842l0.44672,-2.94329l3.83718,0.58235l-0.44671,2.9433z"/></g><g><path d="M346.66992,143.68907l0.44672,-2.94329l3.83718,0.58236l-0.44672,2.94329z"/><path d="M340.44377,142.74412l0.44672,-2.94329l3.83716,0.58237l-0.44671,2.9433z"/></g></g></g><g><g><g><path d="M340.20882,142.70845l0.44672,-2.94329l3.83718,0.58236l-0.44672,2.94329z"/><path d="M333.98262,141.7635l0.44672,-2.94329l3.83719,0.58236l-0.44672,2.94329z"/></g><g><path d="M327.99135,140.85418l0.44671,-2.9433l3.83718,0.58236l-0.44672,2.94329z"/><path d="M321.76506,139.90919l0.44672,-2.94329l3.83716,0.58237l-0.44671,2.9433z"/></g></g><g><g><path d="M315.65636,138.98209l0.44671,-2.9433l3.83719,0.58236l-0.44672,2.94329z"/><path d="M309.43013,138.03709l0.44672,-2.94329l3.83719,0.58236l-0.44671,2.9433z"/></g><g><path d="M303.43886,137.12782l0.44672,-2.94329l3.83718,0.58235l-0.44671,2.9433z"/><path d="M297.21261,136.18282l0.44672,-2.94329l3.83719,0.58236l-0.44672,2.94329z"/></g></g></g></g><g><g fill="#685d63" stroke-width="0"><g><g><path d="M291.06391,135.24961l0.44671,-2.9433l3.83719,0.58236l-0.44672,2.94329z"/><path d="M284.83772,134.30463l0.44672,-2.94329l3.83719,0.58236l-0.44671,2.9433z"/></g><g><path d="M278.8464,133.39539l0.44672,-2.94329l3.83719,0.58236l-0.44671,2.9433z"/><path d="M272.62024,132.45039l0.44672,-2.94329l3.83718,0.58235l-0.44671,2.9433z"/></g></g><g><g><path d="M266.51146,131.52321l0.44671,-2.9433l3.83719,0.58236l-0.44672,2.94329z"/><path d="M260.28519,130.57821l0.44672,-2.94329l3.83719,0.58236l-0.44671,2.9433z"/></g><g><path d="M254.29388,129.66899l0.44672,-2.94329l3.83719,0.58236l-0.44671,2.9433z"/><path d="M248.06766,128.72401l0.44672,-2.94329l3.83718,0.58235l-0.44672,2.94329z"/></g></g></g><g><g fill="#685d63" stroke-width="0"><g><path d="M247.83276,128.68833l0.44671,-2.9433l3.83719,0.58236l-0.44672,2.94329z"/><path d="M241.60651,127.74334l0.44672,-2.94329l3.83718,0.58235l-0.44671,2.9433z"/></g><g><path d="M235.61525,126.83402l0.44672,-2.94329l3.83718,0.58235l-0.44671,2.9433z"/><path d="M229.389,125.88906l0.44672,-2.94329l3.83718,0.58235l-0.44672,2.94329z"/></g></g><g fill="none" stroke-width="1" font-family="sans-serif" font-weight="normal" font-size="12" text-anchor="start"><g/><g/></g></g></g><path d="M221.30878,124.41069l3.07589,-2.30081l3.02068,0.45843l-0.41058,2.70532z" data-paper-data="{&quot;index&quot;:null}" fill="#685d63" stroke-width="0"/></g><path d="M272.64069,165.46449l-2.56348,-0.11594c0,0 2.04517,-2.28654 11.70091,-1.96167c7.32049,0.2463 27.84774,2.03529 40.13058,3.14519c5.70384,0.51541 62.91668,0.0937 62.91668,0.0937l5.14208,0.76598c0,0 -62.61421,1.26353 -68.31039,0.72579c-12.59581,-1.18909 -33.7801,-3.15292 -39.94592,-3.50358c-3.35638,-0.19087 -9.07045,0.85062 -9.07045,0.85062z" fill="#70475c" stroke-width="0"/><path d="M369.55343,199.41872l-5.14501,1.08606l2.84143,-18.71695c0,0 7.696,1.21701 15.2225,2.40716c21.60641,3.41669 125.4482,19.83753 125.4482,19.83753l-1.00943,6.65109z" fill="#5a5959" stroke-width="0"/><path d="M368.40434,200.89141l1.52963,-2.80832l137.00553,12.49412l-13.37454,9.31011z" fill="#4b4a4a" stroke-width="0"/><path d="M490.34478,219.20732c0,0 -5.3555,-4.0745 -8.13933,-5.94147c-1.4919,-1.00053 -7.26537,-4.38953 -7.26537,-4.38953c0,0 7.47515,4.0715 10.63964,5.5106c1.12936,0.51365 2.12882,1.41658 3.33881,2.1344c0.39018,0.23142 2.60696,-2.22287 4.74169,-3.63288c0.63805,-0.42146 1.73044,0.11305 2.29952,-0.13515c1.30457,-0.56903 1.82331,-1.59426 1.82331,-1.59426c0,0 0.19417,0.9697 -1.19313,1.9868c-0.37849,0.27754 -2.21387,0.35533 -2.58973,0.66277c-1.50627,1.23221 -2.73667,2.66289 -3.127,3.20157c-1.08941,1.50339 0.91846,2.41663 0.91846,2.41663z" fill="#414040" stroke-width="0"/><path d="M212.31718,145.1998l5.43741,-10.40066l7.02047,0.43406c0,0 -1.33728,2.47559 -2.12537,3.93458c-0.19852,0.36745 11.75561,0.20322 12.00294,0.91945c0.45889,1.3289 -5.61425,4.21007 -6.10993,5.12766c-0.56669,1.04901 -9.23198,0.13421 -9.23198,0.13421z" fill="#303030" stroke-width="0"/><path d="M212.2308,144.8124l5.20879,-9.59065c0,0 2.77049,1.74004 2.62267,2.71382c-0.2689,1.7719 -2.69846,7.25655 -2.69846,7.25655z" fill="#252525" stroke-width="0"/><path d="M363.99199,203.12769l0.44302,-2.91894l5.9043,-2.09012l-1.66712,2.73317c0,0 -1.2784,1.15652 -2.10152,1.55679c-0.7243,0.35223 -2.57865,0.71905 -2.57865,0.71905z" fill="#383838" stroke-width="0"/><g><g fill="#4b4b4b" stroke-width="0"><g data-paper-data="{&quot;origPos&quot;:null}"><g data-paper-data="{&quot;origPos&quot;:null}"><path d="M430.16736,214.55796l0.34102,-2.247l3.70755,0.5627l-0.34102,2.247z" data-paper-data="{&quot;origPos&quot;:null}"/><path d="M424.00515,213.50778l0.34102,-2.247l3.70754,0.5627l-0.34103,2.247z" data-paper-data="{&quot;origPos&quot;:null}"/></g><g data-paper-data="{&quot;origPos&quot;:null}"><path d="M442.50875,216.54603l0.34102,-2.247l3.70755,0.5627l-0.34103,2.247z" data-paper-data="{&quot;origPos&quot;:null}"/><path d="M436.34654,215.49581l0.34103,-2.247l3.70754,0.5627l-0.34102,2.247z" data-paper-data="{&quot;origPos&quot;:null}"/></g></g><g data-paper-data="{&quot;origPos&quot;:null,&quot;index&quot;:null}"><g data-paper-data="{&quot;origPos&quot;:null}"><path d="M461.52998,219.20305l0.34102,-2.247l3.70755,0.5627l-0.34103,2.247z" data-paper-data="{&quot;origPos&quot;:null}"/><path d="M467.72624,220.0285l0.34101,-2.24699l3.70755,0.5627l-0.34101,2.24698z" data-paper-data="{&quot;origPos&quot;:null}"/></g><g data-paper-data="{&quot;origPos&quot;:null}"><path d="M449.15448,217.4397l0.34102,-2.247l3.70754,0.5627l-0.34101,2.24699z" data-paper-data="{&quot;origPos&quot;:null}"/><path d="M455.35076,218.26523l0.34103,-2.247l3.70755,0.5627l-0.34103,2.247z" data-paper-data="{&quot;origPos&quot;:null}"/></g></g></g><path d="M389.16647,199.99559l2.0424,-13.45704l83.51761,12.67564l-2.0424,13.45704z" data-paper-data="{&quot;origPos&quot;:null}" fill="#444444" stroke-width="0"/><path d="M388.5553,204.67914l0.71765,-4.72829l83.27211,12.63838l-0.71767,4.7283z" data-paper-data="{&quot;origPos&quot;:null}" fill="#414141" stroke-width="0"/><path d="M388.37602,206.09249l0.24274,-1.59934l83.26154,12.63677l-0.24273,1.59933z" data-paper-data="{&quot;origPos&quot;:null}" fill="#3f3f3f" stroke-width="0"/><g stroke-width="0"><g data-paper-data="{&quot;origPos&quot;:null}" fill="#5a5a5a"><g data-paper-data="{&quot;origPos&quot;:null}"><path d="M431.93633,206.56719l2.06324,-13.59431l3.53095,0.5359l-2.06324,13.59431z" data-paper-data="{&quot;origPos&quot;:null}"/></g><g data-paper-data="{&quot;origPos&quot;:null}"><path d="M437.93902,207.47825l2.06324,-13.59431l3.53097,0.53591l-2.06324,13.59431z" data-paper-data="{&quot;origPos&quot;:null}"/><path d="M444.11825,208.41608l2.06325,-13.59433l3.53095,0.5359l-2.06324,13.59431z" data-paper-data="{&quot;origPos&quot;:null}"/></g></g><g data-paper-data="{&quot;origPos&quot;:null}" fill="#5a5a5a"><g data-paper-data="{&quot;origPos&quot;:null}"><path d="M450.65059,209.40752l2.06324,-13.59431l3.53095,0.5359l-2.06324,13.59432z" data-paper-data="{&quot;origPos&quot;:null}"/><path d="M456.82982,210.34535l2.06324,-13.59431l3.53097,0.53591l-2.06325,13.59433z" data-paper-data="{&quot;origPos&quot;:null}"/></g><g data-paper-data="{&quot;origPos&quot;:null}"><path d="M462.83249,211.25637l2.06325,-13.59433l3.53095,0.5359l-2.06325,13.59433z" data-paper-data="{&quot;origPos&quot;:null}"/><path d="M469.01175,212.19422l2.06325,-13.59433l3.53095,0.5359l-2.06324,13.59431z" data-paper-data="{&quot;origPos&quot;:null}"/></g></g><path d="M435.52797,207.11232l-1.15861,1.77725l-5.18849,-0.74389l1.33223,-9.70648l3.42826,-5.47526l-1.99508,13.60469z" fill="#3a3a3a"/><path d="M441.52822,208.02298l-1.15861,1.77726l-5.1885,-0.74389l1.33224,-9.7065l3.42826,-5.47524l-1.99507,13.60468z" fill="#3a3a3a"/><path d="M447.66484,208.95438l-1.15861,1.77726l-5.1885,-0.74388l1.33223,-9.70648l3.42826,-5.47524l-1.99508,13.60469z" fill="#3a3a3a"/><path d="M454.27877,209.95817l-1.15861,1.77726l-5.1885,-0.74388l1.33223,-9.70648l3.42826,-5.47524l-1.99508,13.60469z" fill="#3a3a3a"/><path d="M460.48361,210.89991l-1.15861,1.77726l-5.1885,-0.74388l1.33223,-9.70648l3.42826,-5.47524l-1.99507,13.60468z" fill="#3a3a3a"/><path d="M466.41565,211.80018l-1.15861,1.77725l-5.18849,-0.74389l1.33223,-9.70648l3.42826,-5.47524l-1.99508,13.60469z" fill="#3a3a3a"/><path d="M472.62828,212.74308l-1.15861,1.77725l-5.1885,-0.74388l1.33224,-9.7065l3.42826,-5.47526l-1.99508,13.60469z" fill="#3a3a3a"/></g><g stroke-width="0"><g data-paper-data="{&quot;origPos&quot;:null}" fill="#5a5a5a"><g data-paper-data="{&quot;origPos&quot;:null}"><path d="M389.19671,200.0805l2.06325,-13.59433l3.53097,0.53591l-2.06324,13.59431z" data-paper-data="{&quot;origPos&quot;:null}"/></g><g data-paper-data="{&quot;origPos&quot;:null}"><path d="M395.19935,200.9916l2.06324,-13.59431l3.53095,0.5359l-2.06324,13.59431z" data-paper-data="{&quot;origPos&quot;:null}"/><path d="M401.37862,201.92941l2.06324,-13.59431l3.53097,0.53591l-2.06325,13.59433z" data-paper-data="{&quot;origPos&quot;:null}"/></g></g><g data-paper-data="{&quot;origPos&quot;:null}" fill="#5a5a5a"><g data-paper-data="{&quot;origPos&quot;:null}"><path d="M407.91095,202.92078l2.06325,-13.59433l3.53096,0.53591l-2.06324,13.59431z" data-paper-data="{&quot;origPos&quot;:null}"/><path d="M414.09025,203.85865l2.06324,-13.59431l3.53097,0.53591l-2.06325,13.59433z" data-paper-data="{&quot;origPos&quot;:null}"/></g><g data-paper-data="{&quot;origPos&quot;:null}"><path d="M420.09296,204.76969l2.06324,-13.59431l3.53097,0.53591l-2.06325,13.59433z" data-paper-data="{&quot;origPos&quot;:null}"/><path d="M426.2722,205.70758l2.06325,-13.59433l3.53097,0.53591l-2.06324,13.59432z" data-paper-data="{&quot;origPos&quot;:null}"/></g></g><path d="M392.78828,200.62563l-1.15861,1.77726l-2.70533,-0.36703l0.28227,-1.9539z" fill="#3a3a3a"/><path d="M398.78863,201.53632l-1.15861,1.77726l-5.1885,-0.74388l1.33224,-9.7065l3.42826,-5.47524l-1.99508,13.60469z" fill="#3a3a3a"/><path d="M404.92518,202.46764l-1.15861,1.77725l-5.1885,-0.74388l1.33223,-9.70648l3.42826,-5.47526l-1.99508,13.60469z" fill="#3a3a3a"/><path d="M411.53909,203.47141l-1.15861,1.77725l-5.1885,-0.74388l1.33224,-9.7065l3.42826,-5.47524l-1.99508,13.60469z" fill="#3a3a3a"/><path d="M417.74399,204.4132l-1.15861,1.77725l-5.18849,-0.74389l1.33223,-9.70648l3.42826,-5.47524l-1.99508,13.60469z" fill="#3a3a3a"/><path d="M423.67601,205.31352l-1.15861,1.77725l-5.18849,-0.74389l1.33223,-9.70648l3.42826,-5.47526l-1.99508,13.60469z" fill="#3a3a3a"/><path d="M429.88869,206.25648l-1.15861,1.77726l-5.18849,-0.74389l1.33223,-9.70648l3.42826,-5.47524l-1.99508,13.60469z" fill="#3a3a3a"/></g><g><g data-paper-data="{&quot;origPos&quot;:null}"><g data-paper-data="{&quot;origPos&quot;:null}" fill="none" stroke-width="1" font-family="sans-serif" font-weight="normal" font-size="12" text-anchor="start"/><g data-paper-data="{&quot;origPos&quot;:null}" fill="#4b4b4b" stroke-width="0"><path d="M394.31324,209.30908l0.34102,-2.247l3.70754,0.5627l-0.34101,2.24699z" data-paper-data="{&quot;origPos&quot;:null}"/><path d="M388.15102,208.25893l0.34102,-2.247l3.70754,0.5627l-0.34102,2.247z" data-paper-data="{&quot;origPos&quot;:null}"/></g></g><g data-paper-data="{&quot;origPos&quot;:null,&quot;index&quot;:null}" fill="#4b4b4b" stroke-width="0"><g data-paper-data="{&quot;origPos&quot;:null}"><path d="M413.3345,211.96605l0.34103,-2.247l3.70755,0.5627l-0.34103,2.247z" data-paper-data="{&quot;origPos&quot;:null}"/><path d="M419.53075,212.79155l0.34101,-2.24698l3.70755,0.5627l-0.34103,2.247z" data-paper-data="{&quot;origPos&quot;:null}"/></g><g data-paper-data="{&quot;origPos&quot;:null}"><path d="M400.95882,210.20275l0.34102,-2.247l3.70755,0.5627l-0.34103,2.247z" data-paper-data="{&quot;origPos&quot;:null}"/><path d="M407.15517,211.02819l0.34102,-2.247l3.70755,0.5627l-0.34102,2.247z" data-paper-data="{&quot;origPos&quot;:null}"/></g></g></g></g><path d="M225.09286,145.52659l1.66037,-4.01139c0,0 5.03111,-2.41998 8.54481,-2.03838c4.01683,0.43619 33.64267,4.95782 33.64267,4.95782c0,0 0.37305,1.95382 0.13812,3.14931c-0.30275,1.54025 -2.8547,4.25262 -2.8547,4.25262z" fill="#242424" stroke-width="0"/><path d="M250.26863,145.49389l0.47271,-3.11465l17.79797,2.70121l-0.47271,3.11465z" fill="#313131" stroke-width="0"/><path d="M246.72245,146.90845l0.09785,-0.64489c0,0 1.21347,-0.87901 2.22502,-0.7255c0.96049,0.1458 3.05243,0.94363 5.45206,1.47308c4.57122,1.00855 10.1207,1.95364 10.1207,1.95364l-0.09785,0.64489c0,0 -5.3665,-0.8165 -9.87346,-1.81483c-2.45914,-0.54472 -4.61632,-1.44758 -5.61269,-1.59878c-1.04731,-0.15894 -2.31157,0.71234 -2.31157,0.71234z" fill="#616161" stroke-width="0"/><path d="M275.90585,135.44684l12.09538,4.89701l29.7047,9.87724c0,0 0.69123,0.33171 -7.20641,-1.60357c-2.68663,-0.65832 -12.96309,-3.84548 -21.79596,-7.11065c-2.39004,-0.88352 -15.05687,-6.28624 -15.05687,-6.28624z" fill="#df8cb7" stroke-width="0"/><path d="M95.91804,114.53851l0.89029,-5.86592c0,0 5.96783,-0.86726 9.72857,-0.29649c3.07878,0.46725 10.93911,5.20639 10.93911,5.20639l-1.97457,12.1116z" fill="#626061" stroke-width="0"/><path d="M209.16518,141.82641l3.37729,3.0473l12.30703,0.52951l50.17041,7.61452l-0.16366,1.07867c0,0 -37.61338,-5.85558 -49.42144,-7.38248c-3.24188,-0.41921 -12.93961,-1.16198 -12.93961,-1.16198z" fill="#ffa6d4" stroke-width="0"/><path d="M83.47527,177.3125l1.07582,-7.0884l25.65784,-12.92655l-3.64015,13.27298l-15.23471,7.93478z" fill="#3f3d3e" stroke-width="0"/><path d="M82.62293,172.06498c0,0 3.13431,-19.4012 5.36887,-28.75514c2.52205,-10.55735 9.00564,-31.41675 9.00564,-31.41675c0,0 8.54546,1.10546 11.83995,3.27012c2.81969,1.85267 6.72536,8.92821 6.72536,8.92821l-5.03453,33.17167c0,0 -13.77799,11.76387 -17.12742,13.54052c-5.15195,2.73278 -10.77784,1.26137 -10.77784,1.26137z" fill="#555354" stroke-width="0"/><path d="M95.25806,122.34893c0,0 -0.62344,-6.15615 1.82402,-8.5128c2.44747,-2.35668 6.90038,-2.7094 9.4317,-2.32521c2.01932,0.30649 6.18633,1.01852 8.35809,5.85775c2.17186,4.83918 -0.72689,11.14568 -0.72689,11.14568c0,0 -4.66734,-11.2312 -7.13094,-12.03542c-3.47638,-1.13479 -11.75596,5.87005 -11.75596,5.87005z" fill="#6f6b6c" stroke-width="0"/><path d="M80.4553,176.66367c0,0 5.60595,-25.51017 7.32309,-36.82444c1.7883,-11.78285 4.68532,-32.29887 4.68532,-32.29887c0,0 1.23957,-0.4622 2.26863,-0.30597c0.94091,0.14279 2.39359,1.01359 2.39359,1.01359c0,0 -3.08627,18.90619 -4.69097,29.47992c-1.86452,12.28478 -8.5887,39.45034 -8.5887,39.45034z" fill="#333232" stroke-width="0"/><path d="M79.96283,177.03765l3.28883,-14.37752c0,0 0.90987,1.03714 1.50827,1.08889c0.75564,0.06535 2.62939,-1.10431 2.62939,-1.10431l-3.50232,14.98853z" fill="#2e2d2d" stroke-width="0"/><path d="M110.87423,145.05403c-1.22516,8.07217 -6.6033,16.02315 -11.35844,18.2624c-3.94925,1.85981 -12.37705,7.41593 -11.15189,-0.65622c0.2599,-1.71245 4.06339,-13.15061 5.24524,-20.08158c1.56294,-9.16606 0.68327,-14.33753 2.05511,-16.99338c2.48062,-4.80217 8.16333,-5.43613 10.3528,-5.10382c4.31586,0.65503 6.08236,16.50046 4.8572,24.57265z" fill="#585758" stroke-width="0"/><path d="M142.83255,164.14871l-0.32466,-1.80996c0,0 8.05249,-0.14388 14.07497,0.28046c8.47831,0.59739 31.99656,2.96579 31.99656,2.96579l1.58338,1.53619c0,0 -25.06948,-2.16591 -33.79977,-2.71422c-2.56395,-0.16103 -13.53045,-0.25829 -13.53045,-0.25829z" fill="#585657" stroke-width="0"/><path d="M135.02816,176.31592l7.18543,-12.75761l7.30294,0.14682c0,0 -2.36565,4.00384 -2.39368,4.76343c-0.1338,3.62935 -0.76719,27.7747 -0.76719,27.7747c0,0 -1.52682,0.21372 -2.42133,-1.81908c-1.60497,-3.64742 -2.39002,-10.70715 -3.80675,-13.04891c-1.22405,-2.02327 -5.09953,-5.05932 -5.09953,-5.05932z" fill="#5a5759" stroke-width="0"/><path d="M152.03798,147.74073l4.55682,-10.77146l2.32356,0.24024l-5.68869,10.82454z" fill="#a5a0a2" stroke-width="0"/><path d="M158.91338,147.68832l0.2105,-1.38683l26.19625,3.97584l-0.21049,1.38683z" fill="#494748" stroke-width="0"/><path d="M159.27955,144.73857l0.2105,-1.38683l26.19625,3.97584l-0.2105,1.38683z" fill="#494748" stroke-width="0"/><path d="M136.70378,163.97651l3.02182,-19.91032l13.55165,-7.66965l4.83652,0.41875l-22.51583,39.88653l-5.2471,-2.82268z" fill="#dbd5d8" stroke-width="0"/><path d="M108.71741,171.77983l1.61316,-11.68104l26.4712,3.21906c0,0 -0.05426,2.55857 -0.30279,3.32851c-0.61946,1.91926 -3.64511,8.4773 -3.64511,8.4773z" fill="#ccc6c9" stroke-width="0"/><path d="M114.17353,161.08708l0.04739,-0.31224l22.68896,2.56517l-2.75364,0.77994c0,0 -4.30063,-0.4644 -6.97392,-0.90224c-3.66044,-0.59953 -13.00886,-2.13061 -13.00886,-2.13061z" fill="#d8d1d5" stroke-width="0"/><path d="M118.20994,157.92007l2.55094,-16.80748l15.94244,2.41962l-2.55094,16.80748z" fill="#a39999" stroke-width="0"/><path d="M108.41854,171.90619l1.70452,-11.23073c0,0 7.77851,7.64038 11.6654,10.59766c3.88692,2.95737 10.35655,3.65605 10.35655,3.65605z" fill="#b4afb1" stroke-width="0"/><path d="M140.77412,182.92874c0,0 2.83901,1.48329 3.94429,1.50569c0.67899,0.01372 2.05663,-1.38431 2.05663,-1.38431l0.27825,9.21934l-0.62948,4.14764c0,0 -1.96777,0.01635 -2.84485,-2.72895c-0.72364,-2.26504 -2.80494,-10.75936 -2.80494,-10.75936z" fill="#504e4f" stroke-width="0"/><path d="M135.2457,176.91163l20.56159,-39.10091l1.6931,0.46446l-20.52177,39.52197z" fill="#858183" stroke-width="0"/><path d="M124.71566,134.09071l1.74524,-1.40455c0,0 27.20184,3.47719 39.47163,5.33943c10.64934,1.61631 31.5303,5.14245 31.5303,5.14245l0.2322,1.99886c0,0 -20.95026,-3.89376 -32.17528,-5.59736c-12.81762,-1.94532 -40.80404,-5.47885 -40.80404,-5.47885z" fill="#918b8e" stroke-width="0"/><path d="M125.9071,133.02672l2.29227,-1.61571c0,0 25.6482,3.53566 37.91796,5.39784c10.64935,1.61633 31.5303,5.14245 31.5303,5.14245l0.2322,1.99887c0,0 -20.95025,-3.89375 -32.17528,-5.59737c-12.81762,-1.94532 -39.79742,-5.32614 -39.79742,-5.32614z" fill="#a59fa2" stroke-width="0"/><path d="M186.6652,163.27219l-1.05102,-5.90722c0,0 0.39008,-1.1596 0.73613,-1.2212c0.30495,-0.0543 1.23283,0.87085 1.23283,0.87085l1.05101,5.90723c0,0 -0.40471,0.82622 -0.71037,0.88064c-0.34578,0.06151 -1.25871,-0.53028 -1.25871,-0.53028z" fill="#494242" stroke-width="0"/><path d="M146.44918,159.84749l4.92608,-8.84667l3.8417,0.58308l-4.92608,8.84667z" fill="#9c989a" stroke-width="0"/><path d="M158.57549,143.70823l1.975,-0.67929l24.15942,3.68498l1.85267,1.24196z" fill="#757274" stroke-width="0"/><path d="M158.24691,146.50179l1.97498,-0.67931l24.15942,3.685l1.85268,1.24195z" fill="#757274" stroke-width="0"/><path d="M106.17277,170.57109l10.41438,-57.24311l1.81143,0.86227l-9.9353,57.72159z" fill="#686666" stroke-width="0"/><path d="M105.9707,170.81382l3.08642,-15.97347l1.69217,4.11901l-2.42862,13.09389z" fill="#535252" stroke-width="0"/><path d="M139.80092,152.81169c0,0 2.45193,-2.00015 2.59402,-2.93624c0.13941,-0.91859 -1.74943,-2.62874 -1.74943,-2.62874c0,0 2.86758,1.11257 2.51119,2.76614c-0.27146,1.25951 -1.63858,3.2661 -1.89039,4.34287c-0.71602,3.06166 -2.49931,10.22254 -2.49931,10.22254z" fill="#c4bec1" stroke-width="0"/><path d="M147.67683,152.07348l3.41981,-9.79316l3.17335,-3.92248l-4.05924,9.05158z" fill="#aca7a9" stroke-width="0"/></g></g><g stroke-width="0"><path d="M268.57504,142.27328l3.02557,-2.90815c0,0 2.00248,-1.14883 2.77686,-0.75318c0.8829,0.45113 2.23768,3.31538 2.23768,3.31538l-1.14835,3.95442c0,0 -4.23163,-0.64991 -5.46356,-0.97167c-0.55537,-0.14509 -1.42819,-2.63684 -1.42819,-2.63684z" fill="#c0c0c0"/><path d="M224.69389,145.37501c0,0 0.25771,-2.87384 1.47571,-3.8409c1.52646,-1.21193 7.86947,-2.48675 7.86947,-2.48675l-1.41334,4.5768l-0.43836,2.88816z" fill="#838383"/><path d="M224.5348,145.27565l9.13556,-6.18045l37.13705,5.63636l-1.12262,7.39658z" fill="#999999"/><path d="M225.62099,144.77652l6.96646,-4.8507l33.38989,5.06767l-0.87642,5.77498c0,0 -4.04132,-0.6133 -9.24,-1.40231c-3.37996,-0.51302 -7.08983,-2.15021 -10.65563,-2.69141c-3.82526,-0.58056 -7.46077,-0.05819 -9.60936,-0.38427c-4.20498,-0.63821 -9.97499,-1.51396 -9.97499,-1.51396z" fill="#d952b3"/><path d="M229.07403,145.29838l9.1599,-4.58062l12.32299,1.87027c0,0 -7.57878,0.77895 -10.05921,1.32752c-2.63335,0.58232 -6.12585,2.18692 -6.12585,2.18692z" fill="#a5899d"/><path d="M236.98963,146.38572c0,0 5.17345,-0.19806 7.60272,0.17064c3.10402,0.47109 9.49831,2.42486 9.49831,2.42486l-9.49445,-1.78001z" fill="#adadad"/><path d="M224.64095,145.27333l8.24994,-5.57686l34.57079,5.24689l-0.1033,0.68081c0,0 -29.93403,-4.54315 -33.83591,-5.13539c-0.81613,-0.12385 -8.88137,4.78456 -8.88137,4.78456z" fill="#8a8a8a"/><path d="M270.3385,158.5162l1.46389,-9.64483l1.72406,-7.02271c0,0 1.10324,0.64273 1.56629,1.28296c0.46309,0.64022 0.67292,1.81286 0.67292,1.81286l-3.43694,13.87389z" fill="#9e9e9e"/><path d="M265.58346,153.51529c0,0 -0.58259,-2.23766 -0.4793,-3.82932c0.1391,-2.14333 1.81297,-7.47064 1.81297,-7.47064l1.96827,-0.03037c0,0 0.63145,0.89668 1.12631,0.82095c0.68221,-0.10444 2.58867,-1.38963 2.58867,-1.38963l-2.42024,12.59676z" fill="#9c9c9c"/><path d="M265.87621,155.41135c-0.60778,-1.20931 -0.16406,-2.53083 -0.16406,-2.53083l5.9029,-6.38694c0,0 0.7951,4.0489 0.65758,4.95497c-0.39099,2.57605 -0.10857,7.42297 -0.10857,7.42297c0,0 -2.95891,-0.3644 -3.92019,-0.95391c-1.15293,-0.70711 -1.75974,-1.29697 -2.36759,-2.50634z" fill="#888888"/><path d="M267.75294,154.91312c-0.677,-2.12537 -1.00635,-6.68955 1.42692,-10.4336c2.43332,-3.7441 4.50052,-1.27473 4.50052,-1.27473c0,0 0.33143,4.52396 -0.01563,6.81064c-0.31612,2.08301 -1.98259,6.35545 -1.98259,6.35545c0,0 -3.25218,0.66764 -3.92917,-1.45774z" fill="#b4b4b4"/><path d="M273.0223,147.92944c-0.21172,1.39509 -5.27542,0.70483 -5.06375,-0.69022c0.21172,-1.39509 4.04647,-6.27715 4.84966,-6.15522c0.31108,0.04722 0.93236,0.2445 0.96747,1.32271c0.0555,1.70568 -0.62374,4.66798 -0.75346,5.52274z" fill="#bbbbbb"/></g><g stroke-width="0"><path d="M209.0722,141.79694c0,0 -5.05235,-5.74045 -4.77128,-7.59268c0.22955,-1.51233 6.21586,-0.72831 6.21586,-0.72831l7.44902,1.20323l-5.59599,10.0531z" fill="#f399c8"/><path d="M178.64534,138.83948c0,0 -0.64431,-2.21963 -0.229,-3.24164c0.45831,-1.12782 3.03624,-4.38276 3.03624,-4.38276l22.80517,3.27346l7.72892,9.89495z" fill="#ee96c3"/></g></g><g stroke-width="0"><g><path d="M276.01239,133.66589l0.92756,-6.11176l47.2768,7.17529l-0.92756,6.11176z" fill="#61585b"/><path d="M276.33772,130.4346l0.49676,-3.27288l47.45652,7.20258l-0.49674,3.27289c0,0 -8.54306,-1.29662 -17.3189,-2.62854c-2.74382,-0.41641 -6.82907,0.49813 -9.36442,0.1133c-3.01487,-0.45759 -6.02058,-2.44836 -7.95446,-2.7419c-5.7989,-0.88013 -12.81872,-1.94558 -12.81872,-1.94558z" fill="#494344"/><path d="M338.45613,133.18163l-6.38671,-20.11911l20.68239,3.13902l12.7368,18.89952c0,0 -5.84978,0.48913 -9.08398,0.25952c-4.99066,-0.35438 -17.94853,-2.17891 -17.94853,-2.17891z" fill="#5e555b"/><path d="M337.94282,136.57815l0.83109,-5.47579c0,0 12.37725,0.40874 17.33104,0.37204c3.93139,-0.02914 6.79266,-0.18356 6.79266,-0.18356l4.83095,7.75141c0,0 -5.51151,0.77791 -9.67906,0.5944c-5.64678,-0.24865 -20.10658,-3.0585 -20.10658,-3.0585z" fill="url(#color-5)"/><path d="M330.36994,112.96522l0.59962,-3.95092l18.93468,2.87378l2.99559,4.49658z" fill="url(#color-6)"/><path d="M337.36185,136.5152l0.189,-1.245c0,0 15.44443,2.26674 20.7951,2.90937c4.00094,0.48052 8.60802,-0.4152 8.60802,-0.4152l0.70707,1.26518l-8.43832,0.80342z" fill="#312c30"/><g><path d="M239.07673,110.8762l1.10535,-8.79204l92.86187,14.09386l5.86116,12.30058z" fill="#8a6672"/><path d="M254.18544,121.54985c0,0 -2.9386,-4.09312 -5.49223,-5.95895c-2.55362,-1.86591 -9.57053,-2.69072 -9.57053,-2.69072l0.42408,-2.04661c0,0 12.1423,2.12241 19.07771,3.27136c16.56786,2.74458 79.89963,13.12494 79.89963,13.12494l2.59676,7.03629z" fill="#755761"/><path d="M256.62787,124.43996l-2.60227,-3.01642l86.66812,12.65884l0.72949,3.2271z" fill="#694e57"/><path d="M239.95974,102.45108l0.67959,-4.47771l89.87999,12.95416l2.9566,6.17477c0,0 2.2231,3.71369 -2.99953,2.89545c-1.64411,-0.25759 -10.15624,-4.95655 -11.80448,-5.21478c-15.87331,-2.48685 -78.71218,-12.33193 -78.71218,-12.33193z" fill="#916b77"/><path d="M240.87845,98.00977l0.26131,-2.51374l88.91164,13.35402l0.67437,2.52203z" fill="#9e7582"/><path d="M314.06236,109.80882c-7.87927,-1.85118 -71.65604,-12.5749 -71.65604,-12.5749l86.85933,13.1828l3.62985,8.07732c0,0 -10.95389,-6.83404 -18.83317,-8.68527z" fill="#b38f9a"/></g><path d="M287.1506,129.0696l1.37659,-9.06993l19.98338,3.03293l-1.3766,9.06994z" fill="#3a3336"/><path d="M288.43972,119.99061l0.93681,-1.39779l18.32854,2.78174l0.74554,1.65304z" fill="#4b4246"/><path d="M287.3641,128.59694l1.22709,-8.08504c0,0 0.25698,5.36515 2.71878,6.85773c2.46186,1.49258 15.47904,4.17542 15.47904,4.17542z" fill="#332c30"/><path d="M331.27782,115.35228l-2.97526,-6.52028c0,0 1.11139,-0.50564 1.70517,-0.41549c0.66383,0.10077 2.09128,0.99167 2.09128,0.99167l2.97526,6.52028z" fill="#757575"/><path d="M333.55358,120.48647l-4.27818,-9.36021l3.79652,0.57621l4.27817,9.36021z" fill="#5a5a5a"/><path d="M336.78275,127.49942l-4.27817,-9.36021l3.79652,0.57622l4.27818,9.36021z" fill="#505050"/><path d="M340.11978,134.76209c-0.7307,-1.59871 -3.58178,-7.83661 -3.58178,-7.83661l3.79652,0.57623l4.98947,11.20203c0,0 -2.11286,0.22095 -3.04936,0.06384c-0.73052,-0.12257 -1.83258,-3.3006 -2.15475,-4.00551z" fill="#3b3b3b"/><path d="M237.16218,113.21351l2.80227,-18.4633l3.145,0.47736l-2.80227,18.4633z" fill="#443e42"/><path d="M218.25986,111.96196l0.21152,-5.9638l19.99955,3.03538l-0.88952,5.86089z" fill="url(#color-7)"/><path d="M218.37679,106.62163l1.62763,-10.72418l19.99955,3.03538l-1.62764,10.72419z" fill="#5e555b"/><path d="M219.98547,96.02234l1.41547,-3.99504l19.20857,2.9153l-0.62457,4.11505z" fill="url(#color-8)"/><path d="M290.08508,102.65113l0.92031,-6.06384l14.69211,3.30869l3.86298,5.35136z" fill="#5e555b"/><path d="M309.50707,105.59887l-3.82298,-5.61501c0,0 2.87838,1.13536 4.93164,2.45672c2.0532,1.32135 5.30675,4.13196 5.30675,4.13196z" fill="#776b73"/><path d="M286.9236,103.34007l3.35053,-0.75017l25.35021,3.57773l3.3764,2.04088z" fill="#6d6269"/></g><g><path d="M289.1765,125.36153c0.18739,-1.23471 0.86548,-2.30174 1.40421,-3.26133c0.75065,-1.33721 1.52459,-2.42115 2.93064,-3.06355c0.85884,-0.39246 2.0417,-0.60674 3.0555,-0.69603c0.67056,-0.05903 1.71841,-0.30469 2.41349,-0.19914c1.57566,0.23912 1.9018,0.37133 2.96409,1.03427c0.63993,0.39936 2.19342,1.08935 2.62146,1.83417c0.36231,0.63037 0.69033,1.63959 0.92624,2.36274c0.40303,1.23593 0.91662,3.19976 0.70825,4.57267c-0.08805,0.58018 -0.77529,1.82966 -0.90176,2.33186c-0.40141,1.59431 -0.47863,2.09799 -1.84398,3.00686c-0.82986,0.55241 -2.40222,0.86792 -3.43639,1.12559c-1.07102,0.26694 -2.46235,0.93173 -3.62173,0.75576c-0.78258,-0.1188 -2.11421,-0.86198 -2.85183,-1.11171c-1.60043,-0.54177 -2.45618,-0.84806 -3.30295,-2.12984c-0.72611,-1.09914 -0.74399,-2.71847 -0.90036,-4.11537c-0.08213,-0.73385 -0.28098,-1.68211 -0.16495,-2.44699z" fill="#3a3a3a"/><path d="M289.91705,125.3539c0.17153,-1.1299 0.79205,-2.10629 1.28501,-2.98438c0.68689,-1.22363 1.39507,-2.21553 2.6818,-2.80348c0.78592,-0.35913 1.86844,-0.55527 2.7961,-0.63691c0.61364,-0.054 1.57255,-0.27875 2.20852,-0.18225c1.44193,0.21883 1.74039,0.33979 2.71246,0.94638c0.58554,0.36543 2.00715,0.99689 2.39893,1.6784c0.33152,0.57687 0.6318,1.50041 0.84756,2.16215c0.36883,1.13101 0.83878,2.92809 0.64814,4.18439c-0.08063,0.53094 -0.70947,1.67433 -0.82516,2.13384c-0.36737,1.45889 -0.43798,1.91986 -1.68736,2.75156c-0.75934,0.50553 -2.19826,0.79413 -3.1446,1.03001c-0.98007,0.24428 -2.25329,0.8526 -3.31425,0.69161c-0.71611,-0.10867 -1.93466,-0.78879 -2.60973,-1.01727c-1.46454,-0.49579 -2.24766,-0.77607 -3.02255,-1.94899c-0.66447,-1.00581 -0.68078,-2.48768 -0.8239,-3.76595c-0.07516,-0.67158 -0.25712,-1.53927 -0.15089,-2.23919z" fill="#5a5a5a"/><path d="M302.65059,122.7053c-1.66381,-2.66558 -6.66953,-3.62821 -6.66953,-3.62821c0,0 2.0013,-0.24246 3.96792,0.06302c1.59302,0.24746 3.0929,0.84373 4.04408,2.30397c0.95195,1.46147 1.11858,2.98846 1.19279,4.41117c0.14544,2.78939 -0.64652,5.08941 -0.64652,5.08941c0,0 -0.22496,-5.57372 -1.88877,-8.23931z" fill="#6d6d6d"/><path d="M296.63095,126.868c0.08637,-0.56925 0.61777,-0.96059 1.187,-0.87418c0.56925,0.08637 0.96059,0.61777 0.87418,1.18701c-0.08637,0.56925 -0.61777,0.96059 -1.18701,0.87418c-0.56925,-0.08637 -0.96059,-0.61777 -0.87418,-1.18701z" fill="#272727"/><path d="M296.53225,126.99141c0.07925,-0.52207 0.56667,-0.88103 1.08872,-0.80182c0.52207,0.07925 0.88103,0.56667 0.80182,1.08872c-0.07925,0.52207 -0.56667,0.88103 -1.08871,0.80184c-0.52207,-0.07925 -0.88103,-0.56667 -0.80184,-1.08871z" fill="#131313"/></g></g></g></g></g><path d="M192.18187,222.30036c0.23775,-1.56673 2.4237,-44.34907 3.16483,-45.93095c1.00064,-2.13583 9.18309,0.47217 12.33991,-0.57377c9.66836,-3.20338 20.05857,-6.26611 20.05857,-6.26611c0,0 13.82195,2.68487 18.01048,3.32062c3.13229,0.47544 65.03082,1.28236 64.21505,11.59827c-1.10651,13.99231 -42.38302,-4.12489 -44.20332,7.86839c-0.46084,3.03616 1.8923,3.59099 0.86075,6.61774c-0.2476,0.72641 -3.34981,5.4938 -3.82309,7.11717c-0.75137,2.57699 1.90591,7.02867 -1.83179,9.59608c-2.97948,2.04665 -1.82227,7.2966 -2.63614,8.40261c-5.60901,7.62158 -13.2727,2.61047 -22.18351,1.25804c-10.56511,-1.60349 -26.4978,-0.25564 -35.5895,-2.887c-3.9245,-1.13587 -9.07436,4.43936 -8.38218,-0.12116z" fill="#86c8f5" stroke-width="0"/></g></g></svg>