<svg version="1.1" xmlns="http://www.w3.org/2000/svg" xmlns:xlink="http://www.w3.org/1999/xlink" width="461.86084" height="187.94392" viewBox="0,0,461.86084,187.94392"><defs><linearGradient x1="426.7313" y1="154.34354" x2="427.76203" y2="159.04347" gradientUnits="userSpaceOnUse" id="color-1"><stop offset="0" stop-color="#1f1d20"/><stop offset="1" stop-color="#202022"/></linearGradient><linearGradient x1="426.12068" y1="149.50702" x2="427.30658" y2="154.91473" gradientUnits="userSpaceOnUse" id="color-2"><stop offset="0" stop-color="#302d31"/><stop offset="1" stop-color="#1f1e20"/></linearGradient><linearGradient x1="109.40435" y1="268.1752" x2="110.13049" y2="271.48652" gradientUnits="userSpaceOnUse" id="color-3"><stop offset="0" stop-color="#585758"/><stop offset="1" stop-color="#575758"/></linearGradient><linearGradient x1="98.75441" y1="280.82874" x2="99.32453" y2="283.42831" gradientUnits="userSpaceOnUse" id="color-4"><stop offset="0" stop-color="#363536"/><stop offset="1" stop-color="#353536"/></linearGradient><linearGradient x1="218.91409" y1="159.47085" x2="220.10049" y2="164.8807" gradientUnits="userSpaceOnUse" id="color-5"><stop offset="0" stop-color="#5e555b"/><stop offset="1" stop-color="#2b2629"/></linearGradient><linearGradient x1="204.95598" y1="141.37376" x2="205.81196" y2="145.27718" gradientUnits="userSpaceOnUse" id="color-6"><stop offset="0" stop-color="#72676e"/><stop offset="1" stop-color="#5e555b"/></linearGradient><linearGradient x1="97.5985" y1="179.14632" x2="98.86829" y2="184.93673" gradientUnits="userSpaceOnUse" id="color-7"><stop offset="0" stop-color="#5e555b"/><stop offset="1" stop-color="#4d454a"/></linearGradient><linearGradient x1="94.54551" y1="165.22486" x2="95.43708" y2="169.29051" gradientUnits="userSpaceOnUse" id="color-8"><stop offset="0" stop-color="#74686f"/><stop offset="1" stop-color="#5e555b"/></linearGradient></defs><g transform="translate(29.36732,-139.71201)"><g data-paper-data="{&quot;isPaintingLayer&quot;:true}" fill-rule="nonzero" stroke="none" stroke-linecap="butt" stroke-linejoin="miter" stroke-miterlimit="10" stroke-dasharray="" stroke-dashoffset="0" style="mix-blend-mode: normal"><g><path d="M351.13783,198.76935c1.91683,8.45907 -1.91068,14.64238 -21.57258,19.09782c-7.29303,1.6526 -20.19993,2.96433 -25.76337,4.94776c-4.13476,1.4741 -7.2617,4.45286 -10.36349,3.22243c-3.97644,-1.5774 -8.24456,-20.96464 -8.92198,-23.95409c-1.91683,-8.45907 7.88774,-6.10767 27.54965,-10.56313c19.66192,-4.45544 37.15495,-1.20984 39.0718,7.24922z" fill="#86c8f5" stroke-width="0"/><g stroke-width="0"><path d="M166.15578,240.38186l-13.27983,-12.7977l24.85537,-6.055c0,0 0.17563,5.92881 0.55841,8.60755c0.37028,2.5912 1.70211,7.21093 1.70211,7.21093z" fill="#7f7d7e"/><path d="M166.29405,240.55298l-4.75614,-4.69714c0,0 3.06534,2.96732 6.35802,2.87455c2.37105,-0.06681 4.14703,-0.77357 6.83497,-1.0346c2.68792,-0.26104 5.20707,-0.13484 5.20707,-0.13484z" fill="#6c6a6b"/></g><g><g><path d="M424.84037,159.68419l-3.04188,-4.25884c0,0 6.20753,0.33594 8.93587,0.6517c2.72836,0.31576 1.46894,1.75505 1.46894,1.75505z" fill="url(#color-1)" stroke-width="0"/><path d="M429.66477,148.93413c0,0 1.9439,1.95678 -0.40188,3.38533c-2.34582,1.42855 -4.91951,3.24503 -4.91951,3.24503l-2.13401,-5.1998z" data-paper-data="{&quot;index&quot;:null}" fill="url(#color-2)" stroke-width="0"/><path d="M415.44474,161.73991l-0.44946,-2.04966l14.42968,-3.16443c0,0 1.39852,0.50648 1.95349,0.75974c0.49887,0.22768 -0.51725,1.07354 -0.51725,1.07354z" fill="#444444" stroke-width="NaN"/><path d="M415.05889,159.82316l-1.53873,-1.45814l12.32283,-2.70238l3.66696,0.87694c0,0 -4.06897,1.13597 -6.31656,1.64668c-2.5348,0.57594 -8.13454,1.6369 -8.13454,1.6369z" fill="#535353" stroke-width="0"/><path d="M413.43996,158.52259l-0.45429,-0.55557l11.20743,-2.45778l1.75896,0.15248z" fill="#363636" stroke-width="0"/><path d="M415.44474,161.73991l-0.24386,-1.11194c0,0 6.40099,-0.93932 9.21391,-1.55625c2.38369,-0.52276 6.59024,-1.90963 6.59024,-1.90963c0,0 0.94308,0.26642 1.22812,0.4116c0.24047,0.12247 -0.14153,0.51556 -0.14153,0.51556c0,0 -4.53625,1.40884 -6.79629,1.90452c-3.04909,0.66864 -9.85062,1.74612 -9.85062,1.74612z" fill="#3a3a3a" stroke-width="NaN"/><path d="M413.303,157.91611l-0.72998,-0.74461l13.32496,-2.92218l-1.58277,1.28656z" fill="#242424" stroke-width="0"/><path d="M411.82429,157.52941l-0.35435,-1.6159c0,0 7.8613,-1.9351 10.78752,-2.57682c1.99363,-0.43716 5.07212,-0.9012 5.07212,-0.9012l-1.45253,1.84324z" fill="#3a3a3a" stroke-width="0"/><path d="M411.35244,155.98285l-0.43752,-1.99515c0,0 7.40496,-1.96165 10.6423,-2.67157c2.8014,-0.61435 7.66378,-1.34289 7.66378,-1.34289l-1.92454,2.51316c0,0 -3.58776,0.7024 -5.78003,1.18314c-2.91412,0.63908 -10.16399,2.31338 -10.16399,2.31338z" fill="#444444" stroke-width="0"/><path d="M410.891,154.08001l-0.1823,-0.83129c0,0 7.66453,-1.8075 11.17828,-2.57804c2.44666,-0.53654 7.88701,-1.603 7.88701,-1.603l-0.66266,1.01658c0,0 -4.99854,0.80065 -7.89489,1.43584c-3.19106,0.69979 -10.32543,2.55989 -10.32543,2.55989z" fill="#535353" stroke-width="0"/><path d="M410.60039,153.35963l-0.07292,-0.33255c0,0 7.38952,-2.13958 10.76955,-2.88083c2.92232,-0.64085 8.33793,-1.30938 8.33793,-1.30938l0.10966,0.32447c0,0 -5.90474,1.12606 -9.07446,1.82113c-3.21115,0.70419 -10.06972,2.37717 -10.06972,2.37717z" fill="#4e4e4e" stroke-width="0"/></g><g stroke-width="0"><g><g><g><path d="M409.62231,162.51717l-7.29523,-11.87662l0.17146,-1.79985c0,0 4.08589,2.40994 5.52028,4.64491c0.77875,1.21338 3.02424,8.71996 3.02424,8.71996z" fill="#383638"/><path d="M410.50096,161.61665c0,0 -0.07358,-0.60802 -1.21349,-2.87128c-1.2431,-2.46815 -3.38235,-5.72251 -3.99641,-6.68733c-1.37842,-2.16572 -2.14373,-2.13147 -2.14373,-2.13147l4.56391,-1.59649l7.76239,12.19609z" fill="#555355"/><path d="M403.22821,149.99622l-0.83315,-1.08301c0,0 1.80192,-1.21421 2.74124,-1.42019c0.88017,-0.19302 2.14488,0.27422 2.14488,0.27422l0.84869,1.15408z" fill="#686668"/></g><path d="M404.08128,163.73233l-7.29522,-11.8766l-0.14738,-1.7093c0,0 4.40472,2.31933 5.83909,4.55436c0.77874,1.21337 3.02425,8.71996 3.02425,8.71996z" fill="#383638"/><path d="M404.95991,162.83178c0,0 -0.07359,-0.60803 -1.21348,-2.87129c-1.2431,-2.46815 -3.38234,-5.72251 -3.9964,-6.68733c-1.37842,-2.16572 -2.14374,-2.13147 -2.14374,-2.13147l3.72425,-1.92424c0,0 1.27098,1.00534 1.69112,1.66543c1.19703,1.8807 6.91102,10.85834 6.91102,10.85834z" fill="#555355"/><path d="M397.68713,151.21133l-1.0463,-1.03628c0,0 2.01505,-1.26092 2.95436,-1.46687c0.88017,-0.19302 1.86069,0.33647 1.86069,0.33647l0.97084,1.12728z" fill="#686668"/><path d="M411.08744,160.47066c-0.17556,-0.80051 0.33107,-1.59172 1.13158,-1.76733c0.80053,-0.17556 1.59172,0.33107 1.76732,1.13159c0.17556,0.80051 -0.33106,1.59173 -1.13156,1.76733c-0.80053,0.17556 -1.59171,-0.33108 -1.76733,-1.13157z" fill="#312f31"/><path d="M411.10039,157.46892l-3.14109,-4.9895l1.52371,-0.4809l3.1549,5.0525z" fill="#444144"/></g><path d="M364.59789,167.30653l-5.9958,-9.76588l29.44073,-5.25189l1.60683,9.52398z" fill="#444444"/><path d="M376.10659,160.77414c0,0 0.50944,-0.64607 0.97827,-1.88c0.42869,-1.12822 0.80631,-2.82645 1.08268,-3.36181c0.58708,-1.87581 3.01041,-1.92931 3.01041,-1.92931l-0.81695,0.84775l-3.13809,6.07859z" fill="#292929"/><path d="M381.09648,170.45951l-8.71327,-9.32135c0,0 3.53132,-0.2305 4.97068,-1.62018c1.11849,-1.07995 0.46273,-3.63058 1.94332,-4.24289c4.24784,-1.75662 16.7306,-4.93829 16.7306,-4.93829c0,0 4.69547,6.28503 6.21962,8.90649c1.0522,1.80973 2.40357,6.0507 2.40357,6.0507z" fill="#4a464a"/><path d="M382.32963,156.76902c-4.59119,0.3557 -3.47597,-1.28527 -3.47597,-1.28527c0,0 0.49535,-1.44183 2.28803,-1.98456c4.39916,-1.33194 12.96518,-2.61983 14.64198,-3.01383c0.79077,-0.18583 0.48759,0.6054 0.48759,0.6054c0,0 -0.94373,2.64961 -2.40393,3.22994c-1.46025,0.58035 -6.94647,2.09262 -11.53767,2.44829z" fill="#5e595e"/></g><g><path d="M370.97502,179.41069l-8.88342,-16.41355l18.53021,-3.77055l5.61524,3.19979l5.93652,-1.40275l5.77344,12.47215z" fill="#4d4846"/><path d="M375.63959,178.78405l18.16496,-13.59829l21.75163,-5.01829c0,0 2.17756,3.80474 2.60736,5.09725c0.21911,0.65901 0.47928,2.90893 0.47928,2.90893z" fill="#423d3b"/><path d="M370.13407,171.48292l-5.2148,-8.93653l0.80146,-0.17575l5.21481,8.93653z" fill="#363332"/><path d="M376.03988,177.87563l-0.26077,-1.18914c0,0 4.59703,-3.61405 13.45147,-5.55588c1.17649,-0.25796 5.87139,1.31834 7.0572,1.05832c7.52334,-1.64991 14.88721,-3.26477 17.68872,-3.87913c2.28156,-0.50034 4.33294,-2.28111 4.33294,-2.28111l0.5392,2.45896z" fill="#312e2c"/><path d="M375.62566,164.9235l-2.69179,-4.13476l8.11486,-1.77959l5.00567,3.42868l6.20171,-1.16134l-6.99612,3.5293z" fill="#585350"/><path d="M367.86364,173.81831l-0.24165,-1.10203c0,0 7.05717,-5.38019 9.86763,-5.99651c4.23572,-0.92889 15.92918,-3.49324 15.92918,-3.49324l0.24166,1.10203c0,0 -11.89394,2.60833 -16.12952,3.53722c-2.7527,0.60364 -9.66722,5.95258 -9.66722,5.95258z" fill="#2b2827"/></g></g></g><g><path d="M50.13572,287.16337c1.00678,2.06631 1.25927,4.66199 0.25015,5.15365c-1.00909,0.49167 -2.89768,-1.30681 -3.90447,-3.37313c-1.00678,-2.06631 -4.92732,-9.98056 -3.91821,-10.4723c1.00909,-0.49167 6.56579,6.62543 7.5725,8.69176z" fill="#615e5f" stroke-width="0"/><g><path d="M84.35171,249.0197c-0.63983,-0.39988 -3.20728,-1.18037 -3.20728,-1.18037l9.07282,-4.9381l-4.3184,8.31813c0,0 -0.90727,-1.79981 -1.5471,-2.19967z" fill="#756a6a" stroke-width="0"/><path d="M75.17112,249.29548l-2.9418,-13.41452l16.84641,-9.7005l4.19851,19.14505z" fill="#8a7c7c" stroke-width="0"/><path d="M37.2314,263.19216l2.62757,-19.14049l34.09392,-7.61325l7.14141,11.40156c0,0 -22.11868,6.4641 -29.43568,9.02509c-3.03737,1.06308 -14.42724,6.32713 -14.42724,6.32713z" fill="#7c787a" stroke-width="0"/><path d="M40.48976,246.37533l-0.46204,-1.41536c0,0 25.32244,-5.55322 33.28313,-7.29901c4.45401,-0.97675 14.4087,-9.68155 14.4087,-9.68155l0.34908,1.59181c0,0 -9.67151,8.62296 -13.98226,9.55331c-7.90431,1.70589 -33.59665,7.25084 -33.59665,7.25084z" fill="#535353" stroke-width="0"/><path d="M6.04815,270.75527l-4.31715,-19.68616c0,0 2.91488,-7.86098 9.49913,-11.65546c8.17786,-4.71286 25.05699,-6.5869 27.07959,-7.03044c1.55212,-0.34038 -10.37663,12.93983 -10.37663,12.93983l4.31717,19.68618z" fill="#8d898b" stroke-width="0"/><path d="M165.09687,188.6366l0.89188,-3.41456l105.09896,-22.90191l3.15879,14.40395c0,0 -36.50836,9.89564 -48.53459,12.107c-5.97261,1.09821 -60.61498,-0.19449 -60.61498,-0.19449z" fill="#c98cac" stroke-width="0"/><path d="M165.57083,291.93293l-7.20931,-11.66284c0,0 6.26967,4.60333 9.28188,5.04518c1.91914,0.28153 6.12901,-0.25085 11.57581,-3.94066c4.38489,-2.97044 8.25314,-9.4605 8.25314,-9.4605l-8.22288,17.0191z" fill="#a08e97" stroke-width="0"/><path d="M243.91024,226.72222l-7.34359,-22.5723l17.81639,-5.34319l4.54058,20.70498c0,0 -5.88062,3.04962 -8.43196,4.32394c-1.17476,0.58678 -6.58137,2.88656 -6.58137,2.88656z" fill="#96858d" stroke-width="0"/><path d="M164.57823,295.98548l-1.18676,-5.41159c0,0 12.22633,-0.56351 16.07,-4.60196c1.87063,-1.96537 13.84725,-26.02176 20.42365,-39.3724c2.56641,-5.21006 4.3104,-8.78968 4.3104,-8.78968c0,0 2.4731,-4.40522 1.85966,-7.22137c-0.30862,-1.41667 -0.74469,-5.59903 -2.05206,-7.6786c-1.31904,-2.09816 -3.50805,-2.08734 -3.50805,-2.08734l-7.66641,-12.21361l19.38682,-4.10444l2.85037,26.57972l4.21974,1.69739c0,0 -8.04796,7.90759 -11.5078,13.73982c-5.41351,9.12525 -21.75114,43.81505 -21.75114,43.81505z" fill="#918189" stroke-width="0"/><path d="M221.34368,232.03221l-4.9418,-28.19986l13.51495,-2.6815l12.69406,9.50359l1.30797,16.42715z" fill="#96858d" stroke-width="0"/><path d="M217.32024,234.80765l-3.3391,-3.51202l-2.15331,-26.34008l4.94379,-1.17089l5.46359,28.06787z" fill="#8f8187" stroke-width="0"/><path d="M242.7354,227.44703c0,0 1.25971,-7.10175 -1.22062,-12.09722c-1.42819,-2.87635 -6.647,-3.74841 -7.52258,-5.5117c-1.67246,-3.36837 -4.25978,-8.57931 -4.25978,-8.57931l8.6076,2.58002c0,0 4.87236,6.31667 6.36906,10.35121c1.00559,2.71061 0.92213,9.25644 0.5737,11.99345c-0.02939,0.23072 -1.19609,0.40133 -1.21108,0.57387c-0.0367,0.42149 0.95468,0.44092 0.95468,0.44092z" fill="#86787e" stroke-width="0"/><path d="M238.45161,205.34993c0,0 -3.86626,-3.20104 -8.6482,-3.14709c-5.41368,0.06106 -22.17456,3.49504 -22.17456,3.49504l151.03808,-47.64139l5.32876,8.35426l10.12092,9.18793c0,0 -99.00312,19.07877 -119.11355,23.48901c-6.56235,1.43914 -16.55142,6.26227 -16.55142,6.26227z" fill="#df8db7" stroke-width="0"/><path d="M97.94155,284.56763l-12.456,-34.40015c0,0 0.84075,-4.02416 1.28407,-4.34218c4.88798,-3.5063 33.89923,-20.77341 39.27354,-21.65891c5.88728,-0.97005 -6.32486,13.92012 -6.32486,13.92012c0,0 -13.64135,5.0656 -15.2098,9.76045c-2.12945,6.37419 6.32271,22.28659 6.32271,22.28659z" fill="#c77da3" stroke-width="0"/><path d="M162.26979,239.82034l-2.19892,-1.67308c0,0 4.56314,-9.81177 6.44912,-12.57261c1.94707,-2.85026 5.05583,-4.26923 5.05583,-4.26923l6.29084,0.9773c0,0 -4.47981,0.4679 -6.42108,2.65067c-1.66648,1.87382 -4.67201,5.68478 -6.74483,9.30513c-1.5078,2.63355 -2.43096,5.58171 -2.43096,5.58171z" fill="#414041" stroke-width="0"/><path d="M39.95365,245.4217l2.18457,-12.44637l47.49965,-10.41665c0,0 -1.87684,4.97301 -4.50289,7.5617c-2.57736,2.54074 -11.10994,7.82946 -11.10994,7.82946z" fill="#979395" stroke-width="0"/><path d="M40.49024,244.13393l1.40315,-12.27505l47.49966,-10.41665c0,0 -1.87685,4.973 -4.5029,7.56171c-2.57736,2.54074 -11.10995,7.82946 -11.10995,7.82946z" fill="#bdb7ba" stroke-width="0"/><path d="M245.15636,227.24443l-1.93942,-0.10036l15.5635,-7.68707c0,0 -3.037,2.7723 -5.29261,4.08279c-2.25557,1.31055 -8.33145,3.70464 -8.33145,3.70464z" fill="#887980" stroke-width="0"/><path d="M100.46904,284.48885c0,0 -4.5277,-9.72128 -7.52992,-17.80423c-3.01687,-8.12244 -5.82141,-15.74533 -6.61083,-19.24208c-0.13373,-0.59241 -0.65114,-10.6456 -0.27466,-11.26195c2.03214,-3.32697 11.25303,2.57852 16.4516,0.30869c7.69732,-3.36085 26.25215,-7.95621 26.25215,-7.95621l-7.11987,6.99826c0,0 -18.3844,6.96488 -19.62009,12.4952c-1.67136,7.48029 10.19482,26.24681 10.19482,26.24681z" fill="#d486ae" stroke-width="0"/><path d="M100.82054,280.80928c0,0 -15.26157,-38.49601 -16.12404,-48.62329c-0.40355,-4.73845 -5.63147,-12.91628 -5.63147,-12.91628l50.98391,-4.04647l4.8332,15.39198c0,0 -31.96112,3.84233 -36.82016,11.33097c-3.24359,4.99893 9.45734,31.12785 9.45734,31.12785z" fill="#e490bb" stroke-width="0"/><g stroke-width="0"><path d="M222.53753,189.62606l-1.77254,-8.08284l9.14274,-2.00498l1.77255,8.08284z" fill="#454545"/><path d="M223.18674,188.70076l-1.91177,-7.05224l11.06327,-2.42618l1.5633,7.12869z" fill="#b0b0b0"/><path d="M221.99991,184.36528l-0.82951,-2.71563l11.2749,-2.47257l0.40859,1.86312c0,0 -7.54291,1.98425 -9.17312,2.48371c-0.54474,0.16689 -1.68084,0.84141 -1.68084,0.84141z" fill="#bebebe"/><path d="M234.03141,185.75991c0,0 -5.95946,-1.30917 -6.2045,-5.09217c-0.36413,-5.6215 3.76383,-6.03729 3.76383,-6.03729l39.5939,-7.31789l2.15508,9.82707z" fill="#9c989a"/><path d="M235.50105,184.11773c0,0 -3.18282,-2.90458 -3.61985,-3.75757c-0.64779,-1.26444 0.66721,-4.58039 0.66721,-4.58039l40.63736,-8.87762l1.21344,7.40051z" fill="#898587"/><path d="M235.45526,184.33077l-1.41137,-1.67597l37.34428,-8.18957l0.41546,1.89438z" fill="#c1bcbf"/><path d="M234.60987,181.04157c0,0 -1.59541,-1.05062 -1.79624,-1.96619c-0.18779,-0.85648 0.62778,-3.36174 0.62778,-3.36174l37.76913,-8.28276l1.1684,5.32793z" fill="#0d0d0d"/><path d="M234.77638,181.80083c0,0 -1.72476,-1.64036 -1.92554,-2.55596c-0.18779,-0.85648 0.7571,-2.77198 0.7571,-2.77198l37.76913,-8.28276l1.16842,5.32794z" fill="#2e2e2e"/><path d="M230.47007,184.69371c-3.23453,-2.43052 -2.59694,-4.9624 -2.59694,-4.9624c0,0 2.6706,3.6244 4.06972,4.23649c1.65647,0.72471 5.47509,1.28572 5.47509,1.28572l-3.4123,0.82016c0,0 -2.96631,-0.95223 -3.53557,-1.37994z" fill="#7d7a7c"/><path d="M237.3824,181.54636c0,0 -1.34212,-1.97024 -1.58707,-3.08725c-0.21534,-0.98188 0.19472,-3.26184 0.19472,-3.26184l4.71137,-1.03319c0,0 0.02167,2.2516 0.20766,3.09964c0.25561,1.1656 1.1847,3.24943 1.1847,3.24943z" fill="#555555"/><path d="M245.79904,179.70062c0,0 0.11069,-2.60735 -0.13424,-3.72435c-0.21534,-0.98188 -1.25813,-2.62477 -1.25813,-2.62477l5.25835,-1.15316c0,0 -0.03962,1.76452 0.14635,2.61259c0.25561,1.1656 1.246,3.73648 1.246,3.73648z" fill="#555555"/><path d="M254.90923,177.70278c0,0 0.11072,-2.60737 -0.13422,-3.72436c-0.21534,-0.98188 -1.25811,-2.62477 -1.25811,-2.62477l5.18019,-1.13605c0,0 -0.03962,1.76452 0.14635,2.61259c0.25561,1.1656 1.246,3.73647 1.246,3.73647z" fill="#555555"/><path d="M264.34823,175.63279c0,0 0.36053,-2.29812 0.11557,-3.41511c-0.21534,-0.98188 -1.50792,-2.93397 -1.50792,-2.93397l5.02393,-1.10176c0,0 1.23302,1.75843 1.41903,2.60651c0.25561,1.1656 -0.02668,3.7426 -0.02668,3.7426z" fill="#555555"/><path d="M235.88084,175.9419l-0.82105,-0.63895l34.73713,-7.61784l-1.32726,1.11009c0,0 -2.7644,0.6062 -5.16943,1.13364c-0.52422,0.11495 -1.58667,0.0114 -2.37191,0.18357c-0.75928,0.16647 -1.23375,0.60713 -2.17754,0.8141c-1.47172,0.32274 -3.13221,0.68689 -4.87055,1.06814c-0.7207,0.15808 -1.42999,-0.07909 -2.16954,0.0831c-0.65763,0.14422 -1.34448,0.6875 -2.00521,0.8324c-1.6399,0.35962 -3.26367,0.7157 -4.79028,1.05052c-0.70103,0.1537 -1.47552,-0.12522 -2.12775,0.01782c-0.79625,0.17458 -1.45639,0.76816 -2.15406,0.92117c-2.84581,0.62411 -4.75255,1.04223 -4.75255,1.04223z" fill="#474747"/></g><g><path d="M106.44967,272.99313l3.01656,-3.59712c0,0 3.36233,2.14441 6.32224,2.41158c2.61796,0.23624 10.53773,-0.89012 10.53773,-0.89012l-1.66073,4.82199z" fill="#6d6a6b" stroke-width="0"/><path d="M99.97018,281.06878l7.43524,-9.19123c0,0 3.64305,1.51127 5.90325,1.69325c3.41935,0.27525 12.61664,-0.20224 12.61664,-0.20224l-3.25581,5.12369z" fill="#615e5f" stroke-width="0"/><path d="M106.62817,302.09807l-6.28421,-21.73138c0,0 4.42278,-0.15914 9.13855,-1.16298c3.68081,-0.78354 7.45317,-2.47807 10.00958,-2.41587c4.48795,0.10915 39.88252,4.99648 39.88252,4.99648l4.6005,9.40772z" fill="#575455" stroke-width="0"/><path d="M121.92582,271.05878c5.58027,-6.92123 10.58081,-21.78961 11.25915,-24.57081c0.48868,-2.00367 0.03004,-7.3045 0.03004,-7.3045l8.98467,5.00642c0,0 10.10466,18.76787 13.96686,30.86821c1.0807,3.38579 4.38484,6.70014 3.54023,8.38663c-0.75675,1.51107 -16.83382,7.38107 -22.26663,7.78956c-11.43321,0.85966 -16.49327,4.82514 -21.28111,0.47438c-4.78784,-4.35071 0.80496,-11.99651 0.80496,-11.99651c0,0 3.50908,-6.85153 4.96182,-8.65343z" fill="#504e4f" stroke-width="0"/><path d="M119.58843,237.9661c0,0 0.06686,-1.54292 0.76186,-2.37462c0.8938,-1.0696 4.15611,-3.51079 4.15611,-3.51079c0,0 9.59237,0.01288 13.06615,1.80026c3.20501,1.64906 -0.72756,13.03703 -0.72756,13.03703l-3.1084,-4.80711z" fill="#464445" stroke-width="0"/><path d="M152.40019,279.12029c0,0 -7.72867,8.09935 -15.97943,10.08422c-7.9595,1.9148 -16.44776,-2.25551 -16.64788,-3.6677c-0.10843,-0.76509 6.92749,-5.69191 9.41906,-10.56008c2.76961,-5.41143 1.07119,-10.87598 1.96006,-13.12911c2.48136,-6.29023 8.54999,-18.04152 6.219,-23.71755c-2.44455,-5.95261 -13.35757,-5.68256 -13.35757,-5.68256c0,0 3.2795,-3.02439 8.12162,-4.21921c2.06257,-0.50893 6.80148,-0.12943 7.7858,0.04886c3.22783,0.58446 5.52285,1.75633 5.52285,1.75633c0,0 2.52845,-5.54976 5.98062,-6.62365c3.45221,-1.0739 22.47239,-2.22732 22.47239,-2.22732l-13.13652,15.7741z" fill="#555354" stroke-width="0"/><path d="M130.89231,262.51365c0,0 2.18449,-11.61024 5.64088,-17.93226c3.45641,-6.32203 6.75886,-10.30234 10.20916,-11.05898c2.49856,-0.54795 7.55593,7.16309 7.55593,7.16309l-4.6572,30.47426c0,0 -13.57937,6.33497 -15.5537,4.22834c-1.55936,-1.66383 -3.19511,-12.87441 -3.19511,-12.87441z" fill="#585758" stroke-width="0"/><path d="M158.77198,284.34812c0,0 -4.13754,-5.43082 -4.46624,-8.45278c-0.45922,-4.22164 -1.7594,-16.89115 -1.7594,-16.89115l4.14668,9.7743c0,0 1.4624,9.65844 2.24104,12.58952c0.75125,2.82804 2.60647,4.64317 2.60647,4.64317z" fill="#3f3e3f" stroke-width="0"/><path d="M154.03801,267.09651c-0.54966,-1.59404 -1.94072,-9.18319 -1.94072,-9.18319c0,0 6.21572,-16.27725 7.69611,-19.31805c0.43401,-0.89143 3.341,-3.30101 3.341,-3.30101l-0.5683,5.09388c0,0 -1.40791,0.92709 -1.48119,1.43236c-0.07807,0.53831 1.0262,1.70464 1.0262,1.70464l-3.19328,9.38191c0,0 -1.39583,1.34072 -1.46258,1.87272c-0.06684,0.53215 0.79515,1.25238 0.79515,1.25238c0,0 -1.84955,9.55935 -2.15523,12.09851c-0.14131,1.17402 0.39517,2.52304 0.39517,2.52304c0,0 -1.90258,-1.96318 -2.45225,-3.55728z" fill="#474647" stroke-width="0"/><path d="M136.72502,249.42655l22.33406,3.53318c0,0 -0.94449,1.24349 -1.0607,1.82082c-0.08579,0.42601 0.42663,1.32934 0.42663,1.32934z" fill="#3f3e3e" stroke-width="NaN"/><path d="M140.36807,238.02867l22.42679,2.3084c0,0 -0.9085,1.0626 -0.99545,1.6512c-0.09062,0.61359 0.5015,1.58864 0.5015,1.58864z" fill="#3f3e3e" stroke-width="NaN"/><path d="M134.36028,268.70774c0,0 12.09218,5.22401 19.11428,9.80375c7.02214,4.57972 5.38501,6.17422 5.38501,6.17422z" fill="#636162" stroke-width="NaN"/><path d="M142.39976,243.34016c0,0 -5.23926,4.12208 -7.26164,7.73502c-2.02236,3.61299 -6.69639,21.20551 -7.32733,18.32834c-0.63097,-2.87715 7.7475,-25.92807 9.50083,-26.3126c0.66368,-0.14555 3.38479,-1.91168 4.23508,-1.85501c1.3959,0.09301 0.85307,2.10425 0.85307,2.10425z" fill="#918f91" stroke-width="0"/><path d="M106.15482,302.06946l13.21468,-4.83113c0,0 12.23235,-3.02275 15.32943,-3.54319c7.54235,-1.26744 30.08887,-4.08913 30.08887,-4.08913l0.91738,6.27009c0,0 -23.03172,8.70105 -30.04794,8.89279c-2.02977,0.0555 -7.84378,0.69775 -12.29043,0.28851c-8.70184,-0.80075 -17.21204,-2.98798 -17.21204,-2.98798z" fill="#626061" stroke-width="0"/><path d="M164.64827,295.74764c0,0 -0.88,-4.20167 -1.81977,-6.39106c-1.05624,-2.46076 -4.20911,-7.65484 -4.20911,-7.65484l1.74097,-0.3818c0,0 2.63396,3.9851 3.59013,6.21283c1.04547,2.43569 2.43872,7.83301 2.43872,7.83301z" fill="#4a494a" stroke-width="0"/><path d="M164.6367,296.60638l-0.64153,-3.33721c0,0 0.61031,0.13717 0.87554,0.07897c0.31513,-0.06908 0.85099,-0.45761 0.85099,-0.45761l0.85018,3.0656c0,0 -0.67121,0.56448 -1.02382,0.68298c-0.27016,0.09081 -0.91128,-0.03281 -0.91128,-0.03281z" fill="#363536" stroke-width="0"/><path d="M159.10771,282.64436l-0.72404,-1.50035c0,0 0.3318,-0.43557 0.679,-0.57234c0.3307,-0.13025 0.86725,-0.12227 0.86725,-0.12227l0.8619,1.58863c0,0 -0.3619,0.5989 -0.65052,0.70276c-0.27182,0.09789 -1.03365,-0.09638 -1.03365,-0.09638z" fill="#585758" stroke-width="0"/><path d="M123.67931,304.29067c0,0 -8.34443,-1.19304 -8.63637,-2.52446c-0.29341,-1.33803 5.54818,-3.81773 5.54818,-3.81773c0,0 10.63829,-2.57948 15.51719,-3.47268c2.73144,-0.50007 11.26421,-1.43053 11.26421,-1.43053c0,0 7.3484,-0.53224 8.39126,0.41816c1.13755,1.03667 -2.02817,4.64006 -2.02817,4.64006c0,0 -12.14876,4.0013 -16.06611,4.6472c-1.39161,0.22941 -13.99015,1.53999 -13.99015,1.53999z" fill="#6b696a" stroke-width="0"/><path d="M112.059,299.77353l-1.86668,0.64567c0,0 -0.12386,-3.48914 2.7991,-2.85845c2.923,0.63074 21.23988,-4.42161 21.23988,-4.42161z" fill="#4b4949" stroke-width="0"/><path d="M106.19525,301.91309c0,0 -1.91036,0.61508 -3.21333,-2.8285c-0.65957,-1.7431 -5.39924,-15.2331 -5.39924,-15.2331l3.02821,-3.63209c0,0 1.94989,5.70856 2.77299,8.49929c1.09467,3.71162 3.71313,12.99666 3.71313,12.99666z" fill="#3f3d3e" stroke-width="0"/><path d="M112.40883,299.86664c0,0 2.65631,-2.79196 18.26774,-6.56065c1.28921,-0.3112 -1.76038,0.35329 7.52988,-1.16471c9.29021,-1.51798 13.43174,-0.87762 13.43174,-0.87762c0,0 -14.94555,2.18276 -21.00438,3.51149c-6.90635,1.51458 -18.22497,5.09151 -18.22497,5.09151z" fill="#838082" stroke-width="0"/><path d="M110.99478,269.84043c0,0 -3.8006,3.07289 -5.5791,5.11687c-1.99898,2.2974 -5.83079,7.9962 -5.83079,7.9962l-1.10933,-1.39643c0,0 2.84974,-4.57024 4.6594,-6.64999c1.97856,-2.2739 6.75049,-6.46309 6.75049,-6.46309z" fill="#4a494a" stroke-width="0"/><path d="M111.85189,269.38854l-3.1184,2.40436c0,0 -0.04431,-0.65206 -0.21332,-0.86481c-0.2008,-0.25276 -0.81119,-0.53661 -0.81119,-0.53661l2.68568,-2.43351c0,0 0.84188,0.31363 1.10739,0.57428c0.20346,0.19976 0.34984,0.85623 0.34984,0.85623z" fill="url(#color-3)" stroke-width="0"/><path d="M100.31542,281.99649l-2.29774,3.29858l-0.60802,-2.10117l1.59736,-2.42059c0,0 0.74619,0.01053 0.97033,0.2201c0.21118,0.1974 0.33805,1.00312 0.33805,1.00312z" fill="url(#color-4)" stroke-width="0"/></g><path d="M222.23074,230.7151c0,0 -0.04065,-4.51476 0.15344,-5.97943c0.13174,-0.99425 2.14336,-2.9011 2.14336,-2.9011l16.57763,-3.85887c0,0 -0.00561,5.9367 -0.08514,7.35293c-0.03489,0.62038 -0.92771,1.52525 -0.92771,1.52525z" fill="#665b60" stroke-width="0"/><path d="M170.83429,223.29592c0,0 -4.04085,-0.71343 -9.10174,-0.78321c-3.21718,-0.04438 -7.50951,0.31669 -9.30468,0.81872c-5.2191,1.45933 -6.58612,6.98537 -6.58612,6.98537c0,0 -3.69334,-1.56082 -5.9351,-1.94421c-2.09264,-0.35785 -6.55907,-0.40309 -6.55907,-0.40309c0,0 22.89875,-10.23393 26.53627,-11.62554c6.97338,-2.66784 33.11912,-8.00086 33.11912,-8.00086l9.1396,12.6209z" fill="#8b7c84" stroke-width="0"/><g stroke-width="0"><path d="M223.44967,229.48262c0,0 -0.09557,-2.63703 0.11362,-3.59891c0.2169,-0.9974 2.12447,-2.49317 2.12447,-2.49317l14.19274,-3.1125c0,0 0.58791,0.87738 0.51604,1.64845c-0.09772,1.04842 -2.22134,4.32676 -2.22134,4.32676z" fill="#585852"/><path d="M223.29003,228.75459c0,0 0.06409,-1.9089 0.27325,-2.87084c0.2169,-0.9974 1.96484,-3.2212 1.96484,-3.2212l14.19274,-3.11249c0,0 0.74758,1.60543 0.67568,2.37654c-0.09772,1.04842 -2.38102,3.59868 -2.38102,3.59868z" fill="#797971"/><path d="M238.1038,220.412c-1.06263,0.05085 -12.47355,2.27544 -12.47355,2.27544l14.17334,-3.10818l0.52732,2.40468c0,0 -1.16451,-1.62279 -2.22713,-1.57196z" fill="#85857b"/></g><path d="M220.95592,211.42963l-1.11168,-5.06931l6.97028,-1.52858l2.37902,4.79137z" fill="#7c6e75" stroke-width="0"/><path d="M205.11366,187.85234l-5.82157,-7.04782l1.34729,-0.29544l7.80885,7.07436z" fill="#d495b6" stroke-width="0"/><path d="M165.38121,188.75533l12.25036,-5.84958l21.86005,-2.11931l5.64346,7.04696z" fill="#df9cbe" stroke-width="0"/><path d="M222.19129,216.30572l-0.34736,-1.58414l10.61382,-2.32762l1.29789,1.37572z" fill="#7c6e75" stroke-width="0"/><path d="M179.9576,213.12459c0,0 -17.45599,5.05501 -22.85089,6.7501c-8.169,2.56681 -24.34494,8.49468 -24.34494,8.49468c0,0 13.72375,-7.55579 26.59284,-11.93008c13.95338,-4.74287 56.66829,-15.60225 56.66829,-15.60225l1.15869,5.2835z" fill="#75686e" stroke-width="0"/><path d="M175.07849,223.17349l-3.29022,0.13716c0,0 9.03289,-4.42196 14.41194,-4.82067c5.37898,-0.39868 15.53312,2.60116 15.53312,2.60116z" fill="#7c6e76" stroke-width="0"/><path d="M128.83744,229.18817c0,0 -34.90424,-8.10788 -36.76472,-12.42973c-1.69,-3.92593 29.63249,-4.09464 29.90015,-4.26408c4.68357,-2.96595 73.35248,-25.41138 73.35248,-25.41138l27.44545,0.93194l51.41477,-11.86026l10.04664,11.69483c0,0 -59.8798,14.32826 -83.05949,19.57848c-8.04627,1.8225 -24.62661,4.79548 -39.33099,9.18751c-11.34252,3.38791 -27.69362,11.39289 -27.69362,11.39289z" fill="#ee96c3" stroke-width="0"/><path d="M5.3902,269.10147l-1.06747,-20.39882c0,0 -1.61023,-6.86859 4.974,-10.66311c8.17786,-4.71286 25.05699,-6.58689 27.0796,-7.03044c1.55212,-0.34037 -10.37663,12.93982 -10.37663,12.93982l4.31717,19.68617z" fill="#c4b4b3" stroke-width="0"/><g stroke-width="0"><path d="M276.11275,191.04487l-6.03456,-14.17933l92.05267,-13.26184l0.50472,5.83425l-45.2872,14.904z" fill="#ad6d8e"/><path d="M298.77562,171.39793l5.33182,-9.63858l25.69717,-7.81499l-1.97693,11.0825z" fill="#8d788b"/><path d="M274.15046,178.01513l-3.47773,-15.85842l33.50423,-0.4083l-3.00104,7.69035z" fill="#857183"/><path d="M314.87321,165.68484l14.87045,-11.72586l28.00351,-2.27884l1.19734,6.79525z" fill="#947e92"/><path d="M269.94783,178.31377l0.0919,-13.08946l0.75688,-3.30263l3.22681,14.71418z" fill="#756474"/><path d="M276.6738,187.63104l-3.29066,-11.63799l41.95517,-10.88877l2.242,15.94696z" fill="#746373"/><path d="M317.56942,181.03777c0,0 -0.97997,-6.24245 -1.39506,-9.06317c-0.35543,-2.415 -0.94451,-6.83377 -0.94451,-6.83377l43.36877,-8.58003l3.75293,7.77663z" fill="#867284"/><path d="M269.97225,178.23631l3.60617,-2.35814l3.12629,11.75386z" fill="#6f5e6d"/><path d="M350.67629,153.1206l-20.07872,0.95967l26.88582,-2.17328l0.40426,3.54104c0,0 -0.64247,-1.4657 -1.97375,-1.89537c-0.89055,-0.28745 -5.23771,-0.43207 -5.23771,-0.43207z" fill="#978195"/><path d="M313.09881,165.40876c0,0 7.04724,-5.09307 9.47091,-7.01085c1.76559,-1.39702 3.73278,-3.43681 3.73278,-3.43681l2.49914,-0.43273l-13.11564,10.31304z" fill="#9c859a"/><path d="M299.22494,169.27884c0,0 0.69626,-2.97038 1.726,-4.57857c1.02964,-1.60814 3.10971,-2.89891 3.10971,-2.89891l-2.43124,6.95021z" fill="#806b7d"/><path d="M330.91016,151.91591l0.85569,-6.05722l15.64688,0.39068l6.84096,5.05186z" fill="#55494f"/><path d="M329.03546,155.19367c0,0 0.88801,-1.00373 1.31015,-1.69498c0.31795,-0.52068 0.6934,-2.0205 0.6934,-2.0205l22.6526,-0.87265c0,0 0.95421,0.2995 1.59654,0.49205c0.67132,0.20121 2.34829,0.69032 2.34829,0.69032z" fill="#685960"/><path d="M331.26722,150.92421l0.63782,-4.83421l14.53058,0.21933c0,0 -8.14919,0.21795 -12.47165,1.42666c-2.5073,0.70108 -2.69671,3.18823 -2.69671,3.18823z" fill="#41383c"/></g><path d="M-1.42267,230.38195l-1.1157,-5.08741c0,0 21.54066,-6.04968 43.00125,-10.69768c12.78862,-2.76977 26.38569,-4.11597 33.07133,-5.94057c15.07458,-4.11404 24.33382,-10.76407 24.33382,-10.76407l-3.91355,11.7543z" fill="#ffa1d1" stroke-width="0"/><path d="M-0.95096,244.56774l-1.33483,-16.17203c0,0 53.96576,-9.72518 71.30423,-13.97861c10.27062,-2.51959 23.14057,-9.19049 23.14057,-9.19049l3.13652,14.3025c0,0 -65.93417,14.45932 -81.82887,17.945c-6.53527,1.43319 -8.65875,33.35393 -8.65875,33.35393z" fill="#ee96c3" stroke-width="0"/><path d="M190.48391,280.89607l6.15228,-15.26815c0,0 6.29166,-17.61383 14.00366,-26.33093c1.95976,-2.21515 6.75303,-4.49128 6.75303,-4.49128c0,0 -6.06649,6.43395 -8.00317,9.71646c-4.5735,7.75175 -18.90579,36.37386 -18.90579,36.37386z" fill="#70646b" stroke-width="0"/><path d="M270.37435,196.99461l-10.0105,-16.23429l1.31881,-0.28921c0,0 3.03171,4.9166 4.63365,7.51455c0.22829,0.37016 1.82309,1.27052 2.10582,1.729c0.4901,0.79475 -0.29034,1.21524 0.25744,2.10362c1.52524,2.47358 3.01355,4.88718 3.01355,4.88718z" fill="#795467" stroke-width="0"/><path d="M96.00578,219.81538c0,0 -11.64229,-4.15486 -11.78728,-7.9877c-0.08683,-2.29491 14.66137,-13.6703 14.66137,-13.6703l67.27003,-13.04043l-0.93546,3.37487l30.08618,-1.22471l-64.43677,41.33768c0,0 -1.97555,-5.31397 0.9309,-8.87743c2.82473,-3.46329 16.26954,-12.21134 16.26954,-12.21134c0,0 -33.43362,7.28183 -40.57386,8.75893c-2.38216,0.49279 -11.48461,3.54047 -11.48461,3.54047z" fill="#f399c8" stroke-width="0"/><g><path d="M97.53677,200.42184l-0.69368,-3.16318l172.45551,-37.81939l0.69367,3.16317z" fill="#584f54" stroke-width="0"/><path d="M263.68997,160.92338l-0.58616,-2.67282l2.98433,-0.65446l3.21938,2.09538z" fill="#685d63" stroke-width="0"/><g fill="#685d63" stroke-width="0"><g><g><g><path d="M257.23784,162.5934l-0.63769,-2.9079l3.79102,-0.83133l0.63768,2.90792z"/><path d="M251.08652,163.94239l-0.63769,-2.9079l3.79102,-0.83133l0.63768,2.90791z"/></g><g><path d="M245.16728,165.24045l-0.6377,-2.90792l3.79104,-0.83132l0.63768,2.90792z"/><path d="M239.01589,166.58943l-0.63768,-2.90792l3.79103,-0.83132l0.63768,2.90792z"/></g></g><g><g><path d="M232.98059,167.91301l-0.63768,-2.90792l3.79101,-0.83133l0.63768,2.90792z"/><path d="M226.82927,169.26198l-0.63769,-2.90791l3.79102,-0.83133l0.63769,2.90792z"/></g><g><path d="M220.91001,170.56003l-0.6377,-2.90792l3.79103,-0.83132l0.63768,2.90792z"/><path d="M214.75871,171.90905l-0.63769,-2.9079l3.79101,-0.83133l0.63769,2.90792z"/></g></g></g><g><g><g><path d="M214.52659,171.95999l-0.63769,-2.9079l3.79101,-0.83133l0.63768,2.90791z"/><path d="M208.37528,173.30893l-0.63768,-2.90792l3.79103,-0.83132l0.63769,2.90791z"/></g><g><path d="M202.45602,174.60702l-0.63769,-2.90792l3.79101,-0.83133l0.63769,2.90791z"/><path d="M196.30469,175.95603l-0.63768,-2.90791l3.791,-0.83134l0.63769,2.90791z"/></g></g><g><g><path d="M190.26943,177.27958l-0.6377,-2.90792l3.79102,-0.83133l0.63768,2.90792z"/><path d="M184.11805,178.62854l-0.63769,-2.90791l3.79104,-0.83132l0.63769,2.90792z"/></g><g><path d="M178.1988,179.92662l-0.63769,-2.90791l3.79102,-0.83134l0.63769,2.90792z"/><path d="M172.04745,181.27558l-0.63768,-2.90791l3.79101,-0.83133l0.63769,2.90791z"/></g></g></g></g><g><g fill="#685d63" stroke-width="0"><g><g><path d="M165.97272,182.60782l-0.6377,-2.90793l3.79103,-0.83132l0.63769,2.90791z"/><path d="M159.82135,183.95678l-0.63769,-2.90791l3.79104,-0.83132l0.6377,2.90792z"/></g><g><path d="M153.90211,185.25488l-0.63768,-2.90792l3.79104,-0.83132l0.63769,2.90792z"/><path d="M147.75082,186.60382l-0.63768,-2.90791l3.79101,-0.83133l0.63769,2.90791z"/></g></g><g><g><path d="M141.71553,187.92739l-0.6377,-2.90792l3.79102,-0.83133l0.63768,2.90792z"/><path d="M135.56414,189.27639l-0.63768,-2.90791l3.79101,-0.83133l0.63769,2.90791z"/></g><g><path d="M129.64489,190.57451l-0.63768,-2.90791l3.791,-0.83133l0.6377,2.90792z"/><path d="M123.49355,191.92347l-0.63768,-2.90792l3.79101,-0.83133l0.6377,2.90792z"/></g></g></g><g><g fill="#685d63" stroke-width="0"><g><path d="M123.26145,191.97437l-0.63769,-2.90791l3.79102,-0.83133l0.63768,2.90792z"/><path d="M117.11006,193.32333l-0.63769,-2.90792l3.79101,-0.83133l0.63769,2.90791z"/></g><g><path d="M111.19086,194.62144l-0.63769,-2.90791l3.79102,-0.83133l0.6377,2.90792z"/><path d="M105.03954,195.97039l-0.63769,-2.90791l3.79101,-0.83133l0.63769,2.9079z"/></g></g><g fill="none" stroke-width="1" font-family="sans-serif" font-weight="normal" font-size="12" text-anchor="start"><g/><g/></g></g></g><path d="M96.96611,197.48577l2.04708,-3.25031l2.98435,-0.65444l0.58615,2.67283z" data-paper-data="{&quot;index&quot;:null}" fill="#685d63" stroke-width="0"/></g><path d="M159.60073,217.41802l-2.43482,0.81036c0,0 1.08998,-2.86757 10.22081,-6.02451c6.92254,-2.39336 26.72758,-8.07926 38.59245,-11.44467c5.50971,-1.56284 58.77173,-22.45899 58.77173,-22.45899l5.0751,-1.12761c0,0 -58.00294,23.61771 -63.51353,25.15696c-12.18539,3.40365 -32.66648,9.16175 -38.54847,11.0439c-3.20189,1.02454 -8.16316,4.04452 -8.16316,4.04452z" fill="#70475c" stroke-width="0"/><path d="M262.24464,214.38808l-4.41413,2.85772l-4.05459,-18.49209c0,0 7.62094,-1.62174 15.07415,-3.20775c21.39581,-4.55297 124.22551,-26.43496 124.22551,-26.43496l1.44106,6.57113z" fill="#5a5959" stroke-width="0"/><path d="M261.69966,216.17467l0.42166,-3.16994l132.38371,-37.4322l-9.14997,13.48457z" fill="#4b4a4a" stroke-width="0"/><path d="M382.10509,189.57625c0,0 -6.45991,-1.8847 -9.7279,-2.63007c-1.7514,-0.39943 -8.35591,-1.49445 -8.35591,-1.49445c0,0 8.43772,1.12236 11.90774,1.33188c1.2384,0.07477 2.49504,0.55963 3.88193,0.79619c0.44717,0.07627 1.63726,-3.00947 3.12487,-5.09076c0.44465,-0.62212 1.65608,-0.51459 2.09836,-0.9502c1.01403,-0.99871 1.13094,-2.14173 1.13094,-2.14173c0,0 0.52875,0.83569 -0.40189,2.28235c-0.25389,0.39473 -1.93951,1.1251 -2.18024,1.54676c-0.96462,1.69017 -1.60059,3.46671 -1.77202,4.10954c-0.47833,1.79393 1.72346,1.92701 1.72346,1.92701z" fill="#414040" stroke-width="0"/><path d="M96.02163,220.1164l1.34919,-11.65841l6.70978,-2.11059c0,0 -0.36129,2.79038 -0.57424,4.4349c-0.05364,0.41419 11.04767,-4.02297 11.53526,-3.44294c0.90462,1.07618 -3.73268,5.94237 -3.86662,6.97665c-0.1531,1.18239 -8.5707,3.43359 -8.5707,3.43359z" fill="#303030" stroke-width="0"/><path d="M95.80212,219.78572l1.42603,-10.82032c0,0 3.21,0.63166 3.42098,1.59377c0.38391,1.75057 0.0812,7.74163 0.0812,7.74163z" fill="#252525" stroke-width="0"/><path d="M258.38175,219.84371l-0.63242,-2.88389l4.76312,-4.06712l-0.57692,3.14904c0,0 -0.77906,1.53784 -1.4041,2.20647c-0.54997,0.58835 -2.14971,1.59537 -2.14971,1.59537z" fill="#383838" stroke-width="0"/><g><g fill="#4b4b4b" stroke-width="0"><g data-paper-data="{&quot;origPos&quot;:null}"><g data-paper-data="{&quot;origPos&quot;:null}"><path d="M324.25814,206.80055l-0.48682,-2.22001l3.66294,-0.80329l0.48682,2.22001z" data-paper-data="{&quot;origPos&quot;:null}"/><path d="M318.12888,208.02838l-0.48682,-2.22001l3.66293,-0.80328l0.48681,2.22z" data-paper-data="{&quot;origPos&quot;:null}"/></g><g data-paper-data="{&quot;origPos&quot;:null}"><path d="M336.49238,204.234l-0.48682,-2.22001l3.66294,-0.80329l0.48681,2.22z" data-paper-data="{&quot;origPos&quot;:null}"/><path d="M330.36312,205.46179l-0.48681,-2.22l3.66295,-0.8033l0.48682,2.22002z" data-paper-data="{&quot;origPos&quot;:null}"/></g></g><g data-paper-data="{&quot;origPos&quot;:null,&quot;index&quot;:null}"><g data-paper-data="{&quot;origPos&quot;:null}"><path d="M355.20243,199.89822l-0.48682,-2.22001l3.66295,-0.8033l0.48681,2.22001z" data-paper-data="{&quot;origPos&quot;:null}"/><path d="M361.28303,198.44837l-0.48682,-2.22l3.66294,-0.80329l0.48681,2.21999z" data-paper-data="{&quot;origPos&quot;:null}"/></g><g data-paper-data="{&quot;origPos&quot;:null}"><path d="M343.01697,202.68679l-0.48682,-2.22002l3.66293,-0.80327l0.48681,2.22z" data-paper-data="{&quot;origPos&quot;:null}"/><path d="M349.09754,201.23702l-0.48681,-2.22l3.66294,-0.8033l0.48681,2.22z" data-paper-data="{&quot;origPos&quot;:null}"/></g></g></g><path d="M280.76192,207.89823l-2.91562,-13.29518l82.51318,-18.09512l2.91562,13.29517z" data-paper-data="{&quot;origPos&quot;:null}" fill="#444444" stroke-width="0"/><path d="M281.8697,212.48973l-1.02445,-4.67145l82.27069,-18.04191l1.02444,4.67147z" data-paper-data="{&quot;origPos&quot;:null}" fill="#414141" stroke-width="0"/><path d="M282.20876,213.87347l-0.3465,-1.58005l82.2602,-18.03963l0.34651,1.58005z" data-paper-data="{&quot;origPos&quot;:null}" fill="#3f3f3f" stroke-width="0"/><g stroke-width="0"><g data-paper-data="{&quot;origPos&quot;:null}" fill="#5a5a5a"><g data-paper-data="{&quot;origPos&quot;:null}"><path d="M323.04615,198.70661l-2.94541,-13.43082l3.48856,-0.76502l2.94538,13.43081z" data-paper-data="{&quot;origPos&quot;:null}"/></g><g data-paper-data="{&quot;origPos&quot;:null}"><path d="M328.97664,197.40603l-2.94539,-13.43081l3.48857,-0.76502l2.94538,13.43081z" data-paper-data="{&quot;origPos&quot;:null}"/><path d="M335.08159,196.06722l-2.94539,-13.43082l3.48856,-0.76502l2.94539,13.43082z" data-paper-data="{&quot;origPos&quot;:null}"/></g></g><g data-paper-data="{&quot;origPos&quot;:null}" fill="#5a5a5a"><g data-paper-data="{&quot;origPos&quot;:null}"><path d="M341.53537,194.65192l-2.94539,-13.43081l3.48856,-0.76502l2.94539,13.43083z" data-paper-data="{&quot;origPos&quot;:null}"/><path d="M347.64031,193.31312l-2.94537,-13.43081l3.48856,-0.76502l2.94537,13.4308z" data-paper-data="{&quot;origPos&quot;:null}"/></g><g data-paper-data="{&quot;origPos&quot;:null}"><path d="M353.57077,192.01257l-2.94539,-13.43082l3.48853,-0.76503l2.94539,13.43082z" data-paper-data="{&quot;origPos&quot;:null}"/><path d="M359.67572,190.67375l-2.94539,-13.43082l3.48854,-0.76503l2.94539,13.43081z" data-paper-data="{&quot;origPos&quot;:null}"/></g></g><path d="M326.59462,197.9284l-0.44479,2.07447l-5.11045,1.16483l-2.23459,-9.5392l1.23851,-6.34016l3.01271,13.41608z" fill="#3a3a3a"/><path d="M332.5227,196.62839l-0.44477,2.07449l-5.11045,1.16483l-2.23459,-9.5392l1.2385,-6.34015l3.01272,13.41607z" fill="#3a3a3a"/><path d="M338.58548,195.29883l-0.44479,2.07448l-5.11045,1.16483l-2.23459,-9.53919l1.2385,-6.34015l3.01271,13.41608z" fill="#3a3a3a"/><path d="M345.11991,193.86585l-0.44479,2.07447l-5.11045,1.16483l-2.23459,-9.5392l1.2385,-6.34015l3.01273,13.41607z" fill="#3a3a3a"/><path d="M351.25006,192.52147l-0.44479,2.07447l-5.11045,1.16483l-2.23459,-9.5392l1.2385,-6.34015l3.01273,13.41607z" fill="#3a3a3a"/><path d="M357.1108,191.23623l-0.44479,2.07448l-5.11044,1.16482l-2.23459,-9.5392l1.2385,-6.34015l3.01273,13.41608z" fill="#3a3a3a"/><path d="M363.24872,189.8902l-0.44479,2.07447l-5.11045,1.16483l-2.23458,-9.53919l1.2385,-6.34016l3.01271,13.41608z" fill="#3a3a3a"/></g><g stroke-width="0"><g data-paper-data="{&quot;origPos&quot;:null}" fill="#5a5a5a"><g data-paper-data="{&quot;origPos&quot;:null}"><path d="M280.82053,207.96664l-2.94539,-13.43082l3.48857,-0.76502l2.94538,13.43081z" data-paper-data="{&quot;origPos&quot;:null}"/></g><g data-paper-data="{&quot;origPos&quot;:null}"><path d="M286.75102,206.6661l-2.94538,-13.4308l3.48856,-0.76502l2.94539,13.43082z" data-paper-data="{&quot;origPos&quot;:null}"/><path d="M292.85595,205.32729l-2.94539,-13.43082l3.48856,-0.76503l2.94539,13.43082z" data-paper-data="{&quot;origPos&quot;:null}"/></g></g><g data-paper-data="{&quot;origPos&quot;:null}" fill="#5a5a5a"><g data-paper-data="{&quot;origPos&quot;:null}"><path d="M299.30974,203.91199l-2.94539,-13.43082l3.48857,-0.76502l2.94538,13.43081z" data-paper-data="{&quot;origPos&quot;:null}"/><path d="M305.41469,202.57317l-2.94539,-13.43083l3.48857,-0.76501l2.94537,13.43081z" data-paper-data="{&quot;origPos&quot;:null}"/></g><g data-paper-data="{&quot;origPos&quot;:null}"><path d="M311.34524,201.27261l-2.94539,-13.43082l3.48857,-0.76502l2.94539,13.43082z" data-paper-data="{&quot;origPos&quot;:null}"/><path d="M317.45013,199.9338l-2.94539,-13.43082l3.48857,-0.76502l2.94539,13.43084z" data-paper-data="{&quot;origPos&quot;:null}"/></g></g><path d="M284.36893,207.18849l-0.44479,2.07448l-2.65715,0.62683l-0.43666,-1.92529z" fill="#3a3a3a"/><path d="M290.2971,205.88847l-0.44476,2.0745l-5.11045,1.16483l-2.23458,-9.53919l1.2385,-6.34015l3.01272,13.41608z" fill="#3a3a3a"/><path d="M296.35987,204.55885l-0.44479,2.07447l-5.11045,1.16483l-2.23459,-9.53919l1.23851,-6.34016l3.01274,13.41609z" fill="#3a3a3a"/><path d="M302.89424,203.12587l-0.44479,2.07447l-5.11045,1.16485l-2.23458,-9.5392l1.23851,-6.34016l3.01272,13.41608z" fill="#3a3a3a"/><path d="M309.02448,201.78159l-0.44478,2.07447l-5.11045,1.16483l-2.23459,-9.5392l1.23851,-6.34016l3.01273,13.41609z" fill="#3a3a3a"/><path d="M314.88519,200.4963l-0.44477,2.07448l-5.11045,1.16483l-2.23459,-9.53919l1.23851,-6.34016l3.01272,13.41608z" fill="#3a3a3a"/><path d="M321.02318,199.1503l-0.44476,2.0745l-5.11045,1.16483l-2.23459,-9.5392l1.23851,-6.34015l3.01272,13.41608z" fill="#3a3a3a"/></g><g><g data-paper-data="{&quot;origPos&quot;:null}"><g data-paper-data="{&quot;origPos&quot;:null}" fill="none" stroke-width="1" font-family="sans-serif" font-weight="normal" font-size="12" text-anchor="start"/><g data-paper-data="{&quot;origPos&quot;:null}" fill="#4b4b4b" stroke-width="0"><path d="M288.90432,214.74871l-0.48681,-2.22001l3.66293,-0.80328l0.48682,2.22z" data-paper-data="{&quot;origPos&quot;:null}"/><path d="M282.77504,215.97658l-0.48682,-2.22001l3.66294,-0.80329l0.48682,2.22001z" data-paper-data="{&quot;origPos&quot;:null}"/></g></g><g data-paper-data="{&quot;origPos&quot;:null,&quot;index&quot;:null}" fill="#4b4b4b" stroke-width="0"><g data-paper-data="{&quot;origPos&quot;:null}"><path d="M307.61443,210.41294l-0.48681,-2.22l3.66294,-0.80329l0.48681,2.22z" data-paper-data="{&quot;origPos&quot;:null}"/><path d="M313.69503,208.9631l-0.48681,-2.21999l3.66294,-0.80329l0.48681,2.22z" data-paper-data="{&quot;origPos&quot;:null}"/></g><g data-paper-data="{&quot;origPos&quot;:null}"><path d="M295.42888,213.20163l-0.48681,-2.22l3.66294,-0.80329l0.48681,2.22z" data-paper-data="{&quot;origPos&quot;:null}"/><path d="M301.50944,211.75176l-0.48681,-2.22001l3.66295,-0.8033l0.48681,2.22z" data-paper-data="{&quot;origPos&quot;:null}"/></g></g></g></g><path d="M108.06586,215.84326l0.11259,-4.34c0,0 3.82985,-4.06217 7.24684,-4.9651c3.90637,-1.03224 33.18494,-7.42745 33.18494,-7.42745c0,0 1.04845,1.69037 1.25748,2.89068c0.2693,1.54639 -1.14113,4.99317 -1.14113,4.99317z" fill="#242424" stroke-width="0"/><path d="M131.5579,206.79088l-0.67482,-3.07718l17.58394,-3.85614l0.67483,3.0772z" fill="#313131" stroke-width="0"/><path d="M128.75415,209.38227l-0.13972,-0.6371c0,0 0.81791,-1.25552 1.81722,-1.47467c0.94896,-0.20808 3.18791,-0.21286 5.61786,-0.57851c4.62908,-0.69654 10.14861,-1.80291 10.14861,-1.80291l0.13971,0.6371c0,0 -5.30268,1.16078 -9.86805,1.84394c-2.49102,0.37275 -4.82848,0.30284 -5.81287,0.51869c-1.03468,0.22691 -1.90279,1.49342 -1.90279,1.49342z" fill="#616161" stroke-width="0"/><path d="M151.89204,188.22384l13.04698,0.23733l31.27137,-1.42358c0,0 0.76413,0.06193 -7.30246,1.08543c-2.74411,0.34815 -13.48019,1.05532 -22.89652,1.17226c-2.54795,0.03164 -16.30957,-0.47298 -16.30957,-0.47298z" fill="#df8cb7" stroke-width="0"/><path d="M-23.63457,233.20361l-1.27092,-5.7954c0,0 5.26068,-2.94829 8.97618,-3.76305c3.0418,-0.66705 12.07835,0.94046 12.07835,0.94046l2.49677,12.01481z" fill="#626061" stroke-width="0"/><path d="M91.87003,218.09655l4.24497,1.63465l11.67943,-3.9159l49.56707,-10.87003l0.23375,1.06571c0,0 -37.21375,8.01225 -48.7847,10.81823c-3.1768,0.77036 -12.4966,3.55219 -12.4966,3.55219z" fill="#ffa6d4" stroke-width="0"/><path d="M-12.75562,296.26741l-1.5358,-7.00319l19.32158,-21.26261l1.35803,13.69592l-11.37944,12.8672z" fill="#3f3d3e" stroke-width="0"/><path d="M-15.43181,291.67387c0,0 -4.02637,-19.23589 -5.2922,-28.76934c-1.4287,-10.75996 -2.85078,-32.55748 -2.85078,-32.55748c0,0 8.37406,-2.03027 12.22548,-1.18997c3.29632,0.71921 9.47813,5.92524 9.47813,5.92524l7.18707,32.77274c0,0 -8.64731,15.92002 -11.13757,18.77894c-3.83046,4.39755 -9.61006,5.03986 -9.61006,5.03986z" fill="#555354" stroke-width="0"/><path d="M-21.45184,240.73183c0,0 -2.78813,-5.52389 -1.34773,-8.6011c1.44042,-3.07721 5.47114,-5.00225 7.97203,-5.55066c1.99501,-0.4375 6.14044,-1.26597 9.90216,2.47351c3.76174,3.73948 3.3155,10.66593 3.3155,10.66593c0,0 -8.38211,-8.81274 -10.9703,-8.68068c-3.65215,0.18633 -8.87166,9.69301 -8.87166,9.69301z" fill="#6f6b6c" stroke-width="0"/><path d="M-15.80754,296.74386c0,0 -3.90809,-25.82486 -6.35947,-37.003c-2.55293,-11.64118 -7.20031,-31.83277 -7.20031,-31.83277c0,0 0.99161,-0.87565 2.00829,-1.09865c0.92964,-0.2039 2.59784,0.08857 2.59784,0.08857c0,0 3.89385,18.75655 6.18485,29.20316c2.66163,12.13707 6.11892,39.90808 6.11892,39.90808z" fill="#333232" stroke-width="0"/><path d="M-16.13329,297.2695l-2.08187,-14.60122c0,0 1.22113,0.64222 1.79835,0.47606c0.72886,-0.20983 2.059,-1.97322 2.059,-1.97322l2.10147,15.24814z" fill="#2e2d2d" stroke-width="0"/><path d="M1.2637,256.33289c1.74894,7.97514 -0.42278,17.32528 -4.05963,21.1198c-3.02056,3.15149 -8.89752,11.35879 -10.64642,3.3837c-0.37104,-1.6919 -0.91907,-13.73332 -2.29946,-20.6275c-1.82556,-9.11739 -4.50003,-13.63018 -4.171,-16.60123c0.59495,-5.37215 5.6731,-8.00044 7.83622,-8.47484c4.26392,-0.93506 11.59141,13.22494 13.34033,21.20002z" fill="#585758" stroke-width="0"/><path d="M37.94224,262.70696l-0.95174,-1.5734c0,0 7.46611,-3.01995 13.24072,-4.78199c8.12929,-2.48051 30.93432,-8.6973 30.93432,-8.6973l2.02866,0.86677c0,0 -24.18068,6.96176 -32.52761,9.57836c-2.4514,0.76848 -12.72438,4.60756 -12.72438,4.60756z" fill="#585657" stroke-width="0"/><path d="M35.01625,276.86283l2.13649,-14.48528l6.87053,-2.47993c0,0 -0.77376,4.58567 -0.5277,5.3048c1.17568,3.43623 9.23702,26.20498 9.23702,26.20498c0,0 -1.34881,0.74668 -2.91238,-0.83054c-2.80548,-2.83003 -6.06824,-9.13958 -8.23011,-10.81813c-1.86777,-1.45023 -6.57386,-2.8959 -6.57386,-2.8959z" fill="#5a5759" stroke-width="0"/><path d="M40.65633,244.0899l0.3941,-11.68909l2.25536,-0.60837l-1.43184,12.14411z" fill="#a5a0a2" stroke-width="0"/><path d="M47.05635,241.57714l-0.30048,-1.3702l25.8812,-5.67573l0.30049,1.3702z" fill="#494748" stroke-width="0"/><path d="M46.34115,238.69205l-0.30048,-1.3702l25.8812,-5.67573l0.30048,1.3702z" fill="#494748" stroke-width="0"/><path d="M32.15876,264.74252l-4.31383,-19.67087l9.90322,-12.01653l4.66532,-1.34226l-6.7269,45.30618l-5.91012,-0.75491z" fill="#dbd5d8" stroke-width="0"/><path d="M8.82747,282.05655l-2.67994,-11.48332l25.86664,-6.48079c0,0 0.86622,2.40808 0.91006,3.21596c0.10941,2.01379 -0.36513,9.22052 -0.36513,9.22052z" fill="#ccc6c9" stroke-width="0"/><path d="M10.08943,270.11875l-0.06765,-0.30846l22.10135,-5.73591l-2.29129,1.71492c0,0 -4.18143,1.10762 -6.83405,1.65683c-3.63217,0.75203 -12.9084,2.67263 -12.9084,2.67263z" fill="#d8d1d5" stroke-width="0"/><path d="M12.72279,265.71564l-3.64155,-16.60539l15.75073,-3.45412l3.64155,16.6054z" fill="#a39999" stroke-width="0"/><path d="M8.59371,282.2816l-2.43324,-11.09564c0,0 9.99983,4.34548 14.68837,5.71354c4.68854,1.36799 10.97888,-0.2981 10.97888,-0.2981z" fill="#b4afb1" stroke-width="0"/><path d="M42.75037,280.97729c0,0 3.18204,0.36742 4.22191,-0.00781c0.63882,-0.23052 1.42394,-2.02934 1.42394,-2.02934l3.56361,8.50732l0.89863,4.09775c0,0 -1.83121,0.7204 -3.63383,-1.52825c-1.48726,-1.85532 -6.4743,-9.03963 -6.4743,-9.03963z" fill="#504e4f" stroke-width="0"/><path d="M35.43285,277.34102l5.184,-43.87241l1.74707,-0.17311l-4.99593,44.25116z" fill="#858183" stroke-width="0"/><path d="M10.25715,241.13752l1.12604,-1.93662c0,0 26.64131,-6.50164 38.76355,-9.16003c10.52126,-2.30729 31.27905,-6.49811 31.27905,-6.49811l0.93306,1.78291c0,0 -20.95415,3.87251 -32.04423,6.30453c-12.66341,2.77708 -40.05743,9.50733 -40.05743,9.50733z" fill="#918b8e" stroke-width="0"/><path d="M10.98809,239.7172l1.56104,-2.32986c0,0 25.21179,-5.89031 37.334,-8.54868c10.52124,-2.30729 31.27907,-6.49812 31.27907,-6.49812l0.93304,1.7829c0,0 -20.95414,3.87251 -32.04423,6.30453c-12.66342,2.77708 -39.06287,9.28922 -39.06287,9.28922z" fill="#a59fa2" stroke-width="0"/><path d="M78.54964,246.18104l-3.09809,-5.13825c0,0 -0.05142,-1.22237 0.24969,-1.4039c0.26527,-0.15992 1.46308,0.37123 1.46308,0.37123l3.09807,5.13825c0,0 -0.08175,0.91643 -0.3476,1.07672c-0.30075,0.18132 -1.36515,-0.044 -1.36515,-0.044z" fill="#494242" stroke-width="0"/><path d="M39.77726,257.3954l1.42868,-10.02443l3.79554,-0.83234l-1.42869,10.02442z" fill="#9c989a" stroke-width="0"/><path d="M45.31461,237.98244l1.60042,-1.34189l23.87543,-5.21737l2.17467,0.49558z" fill="#757274" stroke-width="0"/><path d="M46.00894,240.7083l1.60043,-1.3419l23.87541,-5.21738l2.1747,0.49557z" fill="#757274" stroke-width="0"/><path d="M6.01867,281.84l-10.79057,-57.1734l2.00012,0.15591l11.40934,57.44838z" fill="#686666" stroke-width="0"/><path d="M5.91697,282.13904l-2.84271,-16.01866l3.05583,3.23905l2.42493,13.09457z" fill="#535252" stroke-width="0"/><path d="M31.04919,253.20924c0,0 1.5723,-2.74604 1.36949,-3.67084c-0.19901,-0.90755 -2.57524,-1.82722 -2.57524,-1.82722c0,0 3.07584,0.0111 3.33568,1.68257c0.19793,1.27313 -0.35936,3.63635 -0.20855,4.73186c0.42875,3.11492 1.32996,10.43924 1.32996,10.43924z" fill="#c4bec1" stroke-width="0"/><path d="M38.1375,249.69774l-0.31669,-10.36824l1.55694,-4.79924l-0.54596,9.90507z" fill="#aca7a9" stroke-width="0"/></g></g><g stroke-width="0"><g><path d="M151.3533,186.52307l-1.32419,-6.03835l46.7082,-10.24309l1.3242,6.03835z" fill="#61585b"/><path d="M150.49904,183.38982l-0.70908,-3.23351l46.88581,-10.282l0.70908,3.23353c0,0 -8.44031,1.8509 -17.11063,3.75234c-2.71087,0.59452 -6.19696,2.91228 -8.70189,3.46158c-2.9786,0.65321 -6.49812,-0.12828 -8.40876,0.29072c-5.72916,1.2564 -12.66455,2.77734 -12.66455,2.77734z" fill="#494344"/><path d="M209.47637,163.69392l-13.1723,-16.49419l20.43364,-4.48105l18.66363,13.08c0,0 -5.28599,2.55291 -8.38767,3.49756c-4.78618,1.4576 -17.53733,4.39773 -17.53733,4.39773z" fill="#5e555b"/><path d="M210.21425,167.04882l-1.18641,-5.40991c0,0 11.70171,-4.05383 16.31332,-5.8633c3.65987,-1.43606 6.27574,-2.6056 6.27574,-2.6056l7.28784,5.50546c0,0 -4.86674,2.70132 -8.82323,4.02352c-5.36089,1.79143 -19.86726,4.34994 -19.86726,4.34994z" fill="url(#color-5)"/><path d="M194.68257,147.71786l-0.85599,-3.90341l18.70695,-4.10243l4.40798,3.12447z" fill="url(#color-6)"/><path d="M209.64939,167.19822l-0.26973,-1.23004c0,0 15.23102,-3.41838 20.45664,-4.73583c3.90744,-0.98513 7.88754,-3.4723 7.88754,-3.4723l1.11347,0.92775l-7.58998,3.77397z" fill="#312c30"/><g><path d="M108.70387,178.48298l-2.11872,-8.60422l91.74515,-20.11966l9.87983,9.38327z" fill="#8a6672"/><path d="M126.63409,183.03346c0,0 -4.21023,-2.76816 -7.26291,-3.59504c-3.05268,-0.82688 -9.89914,0.91766 -9.89914,0.91766l-0.33753,-2.06266c0,0 12.09646,-2.3698 18.98303,-3.78248c16.45102,-3.37485 79.29651,-16.37918 79.29651,-16.37918l4.94582,5.63851z" fill="#755761"/><path d="M129.95004,184.85639l-3.51036,-1.88357l85.44846,-19.23976l1.83749,2.75141z" fill="#694e57"/><path d="M106.50904,170.30097l-0.97016,-4.42389l88.55282,-20.11508l4.97297,4.70522c0,0 3.40621,2.67037 -1.76271,3.77802c-1.62722,0.3487 -11.25794,-0.98782 -12.88918,-0.63824c-15.71028,3.36657 -77.90369,16.69397 -77.90369,16.69397z" fill="#916b77"/><path d="M105.77525,165.8254l-0.65688,-2.44046l87.79211,-19.39479l1.53339,2.11287z" fill="#9e7582"/><path d="M178.32692,150.61501c-8.01932,1.09532 -71.40332,13.93852 -71.40332,13.93852l85.81478,-18.81915l6.28333,6.24006c0,0 -12.67542,-2.45479 -20.69477,-1.35945z" fill="#b38f9a"/></g><path d="M160.10468,178.2406l-1.9651,-8.96085l19.74304,-4.32966l1.9651,8.96085z" fill="#3a3336"/><path d="M158.05468,169.3026l0.37368,-1.64065l18.10808,-3.97108l1.28843,1.27609z" fill="#4b4246"/><path d="M160.13461,177.72278l-1.7517,-7.98778c0,0 2.16255,4.91672 4.99578,5.42796c2.83323,0.51127 15.9473,-1.64886 15.9473,-1.64886z" fill="#332c30"/><path d="M196.38556,149.62109l-5.11428,-5.02103c0,0 0.85636,-0.87035 1.44308,-0.99902c0.6559,-0.14383 2.30774,0.17643 2.30774,0.17643l5.11428,5.02103z" fill="#757575"/><path d="M200.35001,153.59877l-7.34832,-7.20543l3.75087,-0.82258l7.34832,7.20541z" fill="#5a5a5a"/><path d="M205.8778,158.98876l-7.34832,-7.20541l3.75085,-0.82257l7.34833,7.20543z" fill="#505050"/><path d="M211.59582,164.57324c-1.2551,-1.23068 -6.15216,-6.03255 -6.15216,-6.03255l3.75085,-0.82255l8.67237,8.67008c0,0 -1.89336,0.96341 -2.82403,1.15237c-0.72593,0.14739 -2.89361,-2.42468 -3.44704,-2.96736z" fill="#3b3b3b"/><path d="M107.75413,181.35114l-4.0003,-18.24125l3.10713,-0.68142l4.00028,18.24127z" fill="#443e42"/><path d="M89.65864,186.95644l-1.93962,-5.64354l19.75906,-4.33317l1.26984,5.79039z" fill="url(#color-7)"/><path d="M87.85411,181.92889l-2.32354,-10.5952l19.75906,-4.33317l2.32352,10.59521z" fill="#5e555b"/><path d="M85.5576,171.45709l-0.11018,-4.23696l18.97758,-4.16179l0.89161,4.0656z" fill="url(#color-8)"/><path d="M153.37703,152.52508l-1.31379,-5.99094l14.90205,-2.17602l5.52411,3.61167z" fill="#5e555b"/><path d="M172.56555,148.31711l-5.58123,-3.87211c0,0 3.09415,0.02849 5.48449,0.52626c2.39035,0.49778 6.43498,1.95584 6.43498,1.95584z" fill="#776b73"/><path d="M150.67246,154.30122l2.85916,-1.90107l24.94867,-5.74422l3.88354,0.69534z" fill="#6d6269"/></g><g><path d="M160.6672,174.05277c-0.26753,-1.21986 -0.01681,-2.45901 0.14225,-3.54793c0.22157,-1.51733 0.55568,-2.80664 1.63815,-3.91031c0.66121,-0.67413 1.68864,-1.29812 2.60317,-1.74474c0.60487,-0.29538 1.49512,-0.9002 2.18184,-1.05081c1.5567,-0.34138 1.90861,-0.33487 3.1379,-0.09669c0.7405,0.14349 2.43811,0.231 3.10464,0.77297c0.56413,0.4587 1.23207,1.28329 1.71143,1.87394c0.81918,1.00944 2.00241,2.65875 2.29988,4.01516c0.12568,0.57322 -0.06812,1.98595 -0.00621,2.50013c0.19653,1.63225 0.30494,2.13016 -0.64397,3.46803c-0.57674,0.81313 -1.93166,1.67109 -2.80477,2.28228c-0.90424,0.63299 -1.96492,1.75222 -3.11041,2.00341c-0.77315,0.16952 -2.28268,-0.04713 -3.06086,-0.0159c-1.68824,0.06774 -2.59699,0.08842 -3.84679,-0.80474c-1.07181,-0.76593 -1.66875,-2.27132 -2.31533,-3.5194c-0.33966,-0.65571 -0.86513,-1.46967 -1.03086,-2.22535z" fill="#3a3a3a"/><path d="M161.35588,173.78028c-0.24483,-1.11627 -0.01536,-2.25023 0.13016,-3.24671c0.20283,-1.38853 0.50846,-2.56831 1.49907,-3.57833c0.60507,-0.61691 1.54528,-1.18793 2.38215,-1.5966c0.55352,-0.27033 1.36819,-0.82378 1.99656,-0.96157c1.42455,-0.31243 1.74653,-0.30644 2.87144,-0.08846c0.67768,0.13135 2.23107,0.21137 2.84107,0.70731c0.51628,0.41977 1.12748,1.17438 1.56612,1.71486c0.7496,0.92369 1.83237,2.43301 2.1046,3.67422c0.11502,0.52451 -0.06234,1.81736 -0.00569,2.28786c0.17985,1.49369 0.27911,1.9493 -0.58929,3.17356c-0.52782,0.74408 -1.76768,1.5292 -2.56665,2.0885c-0.82741,0.57924 -1.7981,1.60346 -2.84634,1.83335c-0.70749,0.15516 -2.08883,-0.0431 -2.80094,-0.01453c-1.54493,0.062 -2.37653,0.08094 -3.5202,-0.7364c-0.98075,-0.70093 -1.52706,-2.07849 -2.11874,-3.22058c-0.31085,-0.60001 -0.79168,-1.34492 -0.94332,-2.03638z" fill="#5a5a5a"/><path d="M172.29462,166.74446c-2.50851,-1.89236 -7.52676,-0.99727 -7.52676,-0.99727c0,0 1.78151,-0.94351 3.72697,-1.36305c1.5759,-0.33988 3.18978,-0.32069 4.60111,0.70176c1.41246,1.02326 2.11527,2.38912 2.6943,3.69078c1.13534,2.55202 1.22022,4.98306 1.22022,4.98306c0,0 -2.20734,-5.12293 -4.71588,-7.01528z" fill="#6d6d6d"/><path d="M168.1664,172.78789c-0.12329,-0.56234 0.23254,-1.11814 0.79491,-1.24153c0.56234,-0.1233 1.11814,0.23255 1.24152,0.79492c0.12329,0.56234 -0.23255,1.11814 -0.79491,1.24152c-0.56234,0.1233 -1.11814,-0.23253 -1.24151,-0.79493z" fill="#272727"/><path d="M168.1185,172.93844c-0.11309,-0.51577 0.2133,-1.02561 0.7291,-1.13871c0.51577,-0.11309 1.02561,0.2133 1.13871,0.7291c0.11309,0.51577 -0.2133,1.02562 -0.72909,1.13873c-0.51577,0.11309 -1.02562,-0.2133 -1.13872,-0.7291z" fill="#131313"/></g></g><path d="M348.60378,182.83577c5.01213,0.2165 6.14906,6.95331 5.30661,14.95405c-0.84242,8.00075 -4.58412,14.27734 -8.35734,14.01916c-3.77321,-0.25815 -6.14906,-6.95331 -5.30661,-14.95405c0.84242,-8.00075 2.58299,-14.26862 8.35734,-14.01916z" data-paper-data="{&quot;index&quot;:null}" fill="#86c8f5" stroke-width="0"/><path d="M327.11788,200.51869c0.56829,-8.02488 1.86921,-12.49682 7.6487,-12.44503c5.01662,0.04498 6.60755,4.88714 6.03925,12.912c-0.56828,8.02489 -4.09311,14.42576 -7.87296,14.29682c-3.77979,-0.12896 -6.38328,-6.73895 -5.81495,-14.76381z" data-paper-data="{&quot;index&quot;:null}" fill="#86c8f5" stroke-width="0"/><path d="M315.14306,207.45852c0.56829,-8.02488 2.14089,-15.56001 7.92039,-15.50821c5.01662,0.04498 6.33582,7.95031 5.76753,15.97521c-0.56829,8.02488 -4.38644,10.28994 -8.16627,10.16099c-3.7798,-0.12896 -6.08998,-2.60314 -5.52168,-10.62799z" data-paper-data="{&quot;index&quot;:null}" fill="#86c8f5" stroke-width="0"/><path d="M311.2482,196.75279c5.01662,0.04498 6.60755,4.88714 6.03925,12.912c-0.56829,8.02488 -4.38644,10.28994 -8.16627,10.16099c-3.7798,-0.12896 -6.08998,-2.60314 -5.52168,-10.62799c0.56829,-8.02488 1.86921,-12.49682 7.6487,-12.44503z" data-paper-data="{&quot;index&quot;:null}" fill="#86c8f5" stroke-width="0"/><g stroke-width="0"><g><path d="M104.56767,317.2488l-1.19573,-5.45235c0,0 2.22746,-0.30617 2.85578,-1.43059c0.8877,-1.58848 2.20293,-7.13892 2.20293,-7.13892l2.35276,7.77014c0,0 -2.3235,3.78404 -3.63398,4.99018c-0.94618,0.87079 -2.5818,1.26152 -2.5818,1.26152z" fill="#4d484c"/><g><g><path d="M62.34616,314.8882l2.81177,-6.31089c0,0 13.61645,-12.14751 19.23964,-17.3647c4.32557,-4.01323 11.1934,-10.58772 11.1934,-10.58772l8.21718,25.17068z" fill="#eb59c1"/><path d="M61.39303,303.70873l-6.84267,-28.46906c0,0 27.84588,-1.803 35.20063,-0.3889c5.33708,1.02614 6.92608,14.82658 6.92608,14.82658l-4.40204,7.25896z" fill="#dd54b6"/><path d="M53.76713,283.42939l-6.05208,-23.20144c0,0 15.03416,4.13565 19.72138,3.89168c6.94554,-0.36156 18.88323,-5.81074 18.88323,-5.81074l5.58099,25.4491z" fill="#ff77d8"/><path d="M51.48091,276.34077l-3.00997,-13.72538l35.21534,-12.07977l2.67991,18.15478z" fill="#ee51c1"/></g><g><g><path d="M57.51951,305.1913l-13.66491,-38.77954l8.20635,-1.79965l13.66491,38.77954z" fill="#a59da1"/><path d="M43.861,266.60547c0,0 -1.71929,-4.2219 -0.23777,-5.85902c1.48154,-1.63715 6.39153,-2.97317 6.39153,-2.97317l2.06599,7.02961z" fill="#b9b0b5"/><path d="M61.53856,315.20796l-3.96768,-10.05636l8.16713,-1.79103l3.96768,10.05635z" fill="#8b8488"/></g><g><path d="M96.05068,293.26399l-13.6649,-38.77953l4.43384,-0.97235l13.66491,38.77952z" fill="#a59da1"/><path d="M82.75517,255.42449l-2.17559,-6.11716c0,0 2.72088,-1.29326 3.99814,-0.39634c1.27733,0.8969 2.26159,4.79191 2.26159,4.79191z" fill="#b9b0b5"/><path d="M100.05746,303.2834l-3.96768,-10.05637l4.40682,-0.96642l3.96769,10.05635z" fill="#8b8488"/></g><path d="M64.31256,323.37944c0,0 -3.78178,-1.9786 -4.48823,-3.34359c-0.78639,-1.51941 -0.01609,-5.35948 -0.01609,-5.35948l45.61943,-14.50362c0,0 2.46727,1.84828 3.19742,3.20983c1.02335,1.90845 -2.03582,7.61064 -2.03582,7.61064z" fill="#494547"/><path d="M51.17449,261.54352c0,0 -2.38417,-0.05797 -2.92787,-0.52664c-0.59706,-0.51469 0.20932,-2.8236 0.20932,-2.8236c0,0 11.54769,-3.56839 16.63333,-5.01349c5.92869,-1.68467 16.08031,-4.09908 16.08031,-4.09908c0,0 0.78097,1.08173 0.82554,1.68355c0.0432,0.58284 -0.16798,1.78576 -0.16798,1.78576z" fill="#c2b8bd"/><path d="M64.39803,322.11097c0,0 -1.81348,-2.50497 -2.40885,-4.08983c-0.49415,-1.31529 -0.65971,-3.58998 -0.65971,-3.58998l42.9359,-13.56903c0,0 2.65673,2.64527 3.01286,4.26934c0.38263,1.74472 -1.04791,4.69076 -1.04791,4.69076z" fill="#6f696b"/><path d="M76.42506,325.03216l-1.19571,-5.45234l28.75815,-7.94956l1.19572,5.45234z" fill="#333032"/><path d="M65.18593,327.62119c-1.22371,-0.39497 -3.17872,-1.46679 -3.17872,-1.46679l-2.31037,-6.47475c0,0 2.90306,1.68973 4.37403,2.76097c1.04115,0.75825 11.18095,-2.97992 11.18095,-2.97992l1.19574,5.45235c0,0 -10.03784,3.10308 -11.2616,2.70814z" data-paper-data="{&quot;index&quot;:null}" fill="#444043"/><g><path d="M53.70247,276.31302c0,0 -3.54059,-4.07835 -3.93948,-5.77451c-0.27615,-1.1743 1.77585,-3.42531 1.77585,-3.42531l33.60024,-10.46481c0,0 2.22586,2.70998 2.58245,4.22616c0.36445,1.54968 -0.4189,4.97362 -0.4189,4.97362z" fill="#979797"/><path d="M53.52632,275.26022c0,0 -3.44426,-3.54166 -3.80701,-5.0365c-0.25115,-1.03498 1.83934,-3.07153 1.83934,-3.07153l33.69088,-9.95953c0,0 2.16238,2.3559 2.48665,3.6922c0.33144,1.36572 -0.51893,4.41581 -0.51893,4.41581z" fill="#a2a2a2"/></g><g><path d="M59.57094,291.95873c0,0 -3.54059,-4.07835 -3.93948,-5.77451c-0.27615,-1.1743 1.77584,-3.42532 1.77584,-3.42532l33.60024,-10.4648c0,0 2.22588,2.70997 2.58247,4.22615c0.36445,1.54968 -0.41891,4.97361 -0.41891,4.97361z" fill="#979797"/><path d="M59.39473,290.90599c0,0 -3.44425,-3.54165 -3.80699,-5.0365c-0.25118,-1.03492 1.83934,-3.07153 1.83934,-3.07153l33.69089,-9.9595c0,0 2.16237,2.3559 2.48665,3.6922c0.33143,1.36572 -0.51894,4.4158 -0.51894,4.4158z" fill="#a2a2a2"/></g><g><path d="M65.65,308.06529c0,0 -3.54059,-4.07835 -3.93948,-5.77451c-0.27615,-1.1743 1.77585,-3.42531 1.77585,-3.42531l33.60024,-10.4648c0,0 2.22586,2.70998 2.58246,4.22616c0.36445,1.54968 -0.41891,4.97361 -0.41891,4.97361z" fill="#7a7a7a"/><path d="M65.47382,307.01259c0,0 -3.44427,-3.54165 -3.80701,-5.0365c-0.25118,-1.03492 1.83934,-3.07151 1.83934,-3.07151l33.69092,-9.95954c0,0 2.16235,2.35592 2.48666,3.69221c0.33143,1.36572 -0.51893,4.41582 -0.51893,4.41582z" fill="#929292"/></g></g></g></g><path d="M58.96802,308.92148c0,0 -0.74424,-1.59403 -1.537,-3.78572c-2.32724,-6.43464 -13.79669,-38.61066 -13.79669,-38.61066l4.01618,3.5245l9.61996,28.01431z" fill="#777275"/></g></g><g stroke-width="0"><path d="M103.54784,207.18379l1.78249,-3.79923c0,0 1.45782,-1.79017 2.32251,-1.69826c0.98592,0.10478 3.27714,2.29333 3.27714,2.29333l0.34503,4.10326c0,0 -4.18345,0.90971 -5.44894,1.05078c-0.57049,0.06359 -2.27825,-1.94987 -2.27825,-1.94987z" fill="#c0c0c0"/><path d="M63.69261,225.80448c0,0 -0.78928,-2.77537 0.00128,-4.11468c0.99077,-1.67843 6.45572,-5.14165 6.45572,-5.14165l0.32067,4.77938l0.62578,2.85338z" fill="#838383"/><path d="M63.50843,225.76878l6.31404,-9.04372l36.69041,-8.04618l1.60255,7.30761z" fill="#999999"/><path d="M64.34369,224.91356l4.7655,-7.02497l32.98836,-7.23434l1.25124,5.70554c0,0 -3.99269,0.87562 -9.12884,2.00199c-3.33934,0.73229 -7.38945,0.53325 -10.91241,1.30582c-3.77926,0.82877 -6.98613,2.61931 -9.1088,3.08486c-4.15443,0.91105 -9.85501,2.1612 -9.85501,2.1612z" fill="#2e2e2e"/><path d="M67.75434,224.16338l6.91008,-7.55895l12.17478,-2.66993c0,0 -6.79629,3.44311 -8.91547,4.84413c-2.24976,1.48733 -4.9353,4.23693 -4.9353,4.23693z" fill="#a5899d"/><path d="M75.53391,222.3419c0,0 4.75885,-2.03886 7.15897,-2.56518c3.0667,-0.67253 9.73643,-1.13994 9.73643,-1.13994l-9.50181,1.74055z" fill="#adadad"/><path d="M63.60668,225.72861l5.70349,-8.16286l34.15505,-7.49015l0.14753,0.6726c0,0 -29.57399,6.48554 -33.429,7.33095c-0.80633,0.17687 -6.577,7.64949 -6.577,7.64949z" fill="#8a8a8a"/><path d="M111.0149,221.71603l-2.08967,-9.52888l-0.90706,-7.1741c0,0 1.26025,0.20466 1.92203,0.63645c0.66175,0.43177 1.27792,1.45124 1.27792,1.45124l1.7631,14.1841z" fill="#9e9e9e"/><path d="M104.78361,218.75121c0,0 -1.34577,-1.88029 -1.81971,-3.40323c-0.6382,-2.05084 -0.9846,-7.62423 -0.9846,-7.62423l1.82668,-0.7337c0,0 0.91087,0.61084 1.34572,0.36279c0.59955,-0.34194 1.91878,-2.22504 1.91878,-2.22504l2.25462,12.62746z" fill="#9c9c9c"/><path d="M105.73635,220.41651c-1.0008,-0.91121 -1.06012,-2.30395 -1.06012,-2.30395l3.22205,-8.0781c0,0 2.19321,3.49509 2.38951,4.39029c0.55812,2.54504 2.55869,6.96891 2.55869,6.96891c0,0 -2.89297,0.72017 -4.0017,0.51424c-1.32973,-0.24694 -2.10765,-0.58022 -3.10851,-1.49141z" fill="#888888"/><path d="M107.30991,219.27877c-1.39368,-1.74166 -3.33677,-5.88464 -2.40679,-10.25202c0.92999,-4.36736 3.74481,-2.80281 3.74481,-2.80281c0,0 1.93055,4.10473 2.42604,6.36388c0.45131,2.05792 0.42655,6.64381 0.42655,6.64381c0,0 -2.79693,1.78879 -4.19062,0.04711z" fill="#b4b4b4"/><path d="M109.72668,210.87055c0.30223,1.3783 -4.67249,2.54852 -4.97478,1.17021c-0.30223,-1.3783 1.52829,-7.31031 2.32184,-7.48435c0.30734,-0.06738 0.95805,-0.10584 1.3772,0.88813c0.66308,1.57253 1.0905,4.58147 1.27568,5.42599z" fill="#bbbbbb"/></g><g stroke-width="0"><path d="M91.77269,218.10241c0,0 -6.77398,-3.54866 -7.1753,-5.37858c-0.32766,-1.49412 5.54208,-2.9074 5.54208,-2.9074l7.38553,-1.54609l-1.62178,11.39077z" fill="#f399c8"/><path d="M62.3068,226.2449c0,0 -1.39693,-1.84135 -1.37544,-2.94428c0.02374,-1.21716 1.264,-5.17973 1.264,-5.17973l22.46364,-5.11631l10.76146,6.46806z" fill="#ee96c3"/></g><path d="M42.14384,231.73974c-6.18129,-6.70674 -2.82066,-2.75322 9.05023,-9.12369c2.40906,-1.29282 10.54475,-9.12458 21.51719,-14.78997c12.39025,-6.39743 18.55435,-8.58398 30.69548,-11.46539c8.26196,-1.96077 8.95956,2.76868 14.44987,5.64102c5.4903,2.87235 1.94757,8.16021 -4.31825,7.1533c-1.28619,-0.20668 -9.91281,-4.05256 -11.81312,-2.87631c-8.76227,5.42372 -17.24126,8.55486 -17.08784,15.48726c0.01527,0.68951 -0.58431,9.24877 4.12147,13.49044c2.41057,2.1728 9.74142,1.31928 11.93581,1.62522c6.4782,0.90323 14.46856,-4.94049 15.14365,-6.87768c2.0286,-5.82109 -3.45127,-12.00601 -3.58289,-14.61516c-0.13158,-2.60913 1.11541,-4.52971 2.53569,-6.14795c1.38609,-1.57927 4.1919,-1.12324 6.49498,1.18842c2.30307,2.31169 2.51194,7.62634 2.60472,7.94523c1.53755,5.28366 5.288,15.70322 -0.58794,26.83731c-8.13912,15.42255 -19.13924,14.22692 -28.87454,13.84821c-2.94091,-0.1144 -4.03344,1.71313 -6.66696,2.22957c-1.23138,0.24147 -4.33988,-1.25744 -5.32661,-0.72792c-17.37994,9.32688 -18.41926,16.32231 -27.74614,-1.05766c-0.07057,-0.13151 -9.74461,-24.72613 -12.5448,-27.76429z" data-paper-data="{&quot;index&quot;:null}" fill="#86c8f5" stroke-width="0"/></g></g></svg>