<svg version="1.1" xmlns="http://www.w3.org/2000/svg" xmlns:xlink="http://www.w3.org/1999/xlink" width="469.97501" height="189.58176" viewBox="0,0,469.97501,189.58176"><defs><linearGradient x1="545.8178" y1="199.81524" x2="545.2091" y2="204.58817" gradientUnits="userSpaceOnUse" id="color-1"><stop offset="0" stop-color="#1f1d20"/><stop offset="1" stop-color="#202022"/></linearGradient><linearGradient x1="546.86806" y1="195.05478" x2="546.16768" y2="200.5465" gradientUnits="userSpaceOnUse" id="color-2"><stop offset="0" stop-color="#302d31"/><stop offset="1" stop-color="#1f1e20"/></linearGradient><linearGradient x1="208.69212" y1="200.38418" x2="208.26321" y2="203.74696" gradientUnits="userSpaceOnUse" id="color-3"><stop offset="0" stop-color="#585758"/><stop offset="1" stop-color="#575758"/></linearGradient><linearGradient x1="194.40921" y1="208.7227" x2="194.07251" y2="211.36267" gradientUnits="userSpaceOnUse" id="color-4"><stop offset="0" stop-color="#363536"/><stop offset="1" stop-color="#353536"/></linearGradient><linearGradient x1="348.36431" y1="134.80444" x2="347.66362" y2="140.29841" gradientUnits="userSpaceOnUse" id="color-5"><stop offset="0" stop-color="#5e555b"/><stop offset="1" stop-color="#2b2629"/></linearGradient><linearGradient x1="341.29976" y1="113.06908" x2="340.79418" y2="117.03313" gradientUnits="userSpaceOnUse" id="color-6"><stop offset="0" stop-color="#72676e"/><stop offset="1" stop-color="#5e555b"/></linearGradient><linearGradient x1="227.49226" y1="112.56577" x2="226.74228" y2="118.44616" gradientUnits="userSpaceOnUse" id="color-7"><stop offset="0" stop-color="#5e555b"/><stop offset="1" stop-color="#4d454a"/></linearGradient><linearGradient x1="229.29537" y1="98.42798" x2="228.7688" y2="102.5568" gradientUnits="userSpaceOnUse" id="color-8"><stop offset="0" stop-color="#74686f"/><stop offset="1" stop-color="#5e555b"/></linearGradient></defs><g transform="translate(-80.6783,-97.24964)"><g data-paper-data="{&quot;isPaintingLayer&quot;:true}" fill-rule="nonzero" stroke="none" stroke-linecap="butt" stroke-linejoin="miter" stroke-miterlimit="10" stroke-dasharray="" stroke-dashoffset="0" style="mix-blend-mode: normal"><path d="M113.09434,234.16283c1.47539,-3.91054 4.96155,-15.80545 7.58109,-24.19935c2.61953,-8.39388 16.2869,-17.43463 19.77099,-14.81071c3.48408,2.62392 1.9977,1.16607 3.26189,9.05605c0.52759,3.29278 -6.47668,7.39625 -8.72634,10.70375c-2.88976,4.24856 -5.04512,11.18334 -4.1216,11.75181c0.81545,0.50195 2.76733,5.81474 3.6304,5.9906c9.64974,1.96622 19.2349,-0.25675 24.6607,1.79034c7.07714,2.67014 3.41582,13.32484 4.32248,19.91061c0.49259,3.57804 0.62392,6.84101 1.83675,10.06558c1.15939,3.08246 -2.52182,8.66463 -3.90855,12.34012c-5.50753,14.59763 -24.41935,10.55857 -39.01698,5.05103c-3.93563,-1.48488 -6.00234,6.40062 -9.0888,2.46007c-6.33731,-8.09099 -11.76208,-30.90305 -9.9811,-40.913c0.56886,-3.19733 8.80524,-6.61578 9.77908,-9.19692z" fill="#86c8f5" stroke-width="0"/><g><g><g stroke-width="0"><path d="M271.48319,193.27942l-8.20663,-16.51623l25.44461,2.65017c0,0 -1.82705,5.64303 -2.36677,8.29457c-0.52205,2.56494 -0.82021,7.36351 -0.82021,7.36351z" fill="#7f7d7e"/><path d="M271.55587,193.48705l-2.90101,-6.02233c0,0 1.88985,3.82489 5.02222,4.84408c2.25559,0.73389 4.1658,0.66505 6.78514,1.32253c2.61931,0.65746 4.94955,1.62288 4.94955,1.62288z" fill="#6c6a6b"/></g><g><g><g><path d="M542.24202,204.20976l-1.43372,-5.03342c0,0 5.73359,2.40253 8.19715,3.61681c2.46356,1.21429 0.79369,2.14665 0.79369,2.14665z" fill="url(#color-1)" stroke-width="0"/><path d="M550.39859,195.7063c0,0 1.17324,2.49629 -1.51619,3.05338c-2.68945,0.55711 -5.7239,1.40304 -5.7239,1.40304l-0.26245,-5.61455z" data-paper-data="{&quot;index&quot;:null}" fill="url(#color-2)" stroke-width="0"/><path d="M532.70199,202.98842l0.26547,-2.0815l14.65385,1.86893c0,0 1.147,0.94702 1.58456,1.37206c0.39333,0.38208 -0.84794,0.83725 -0.84794,0.83725z" fill="#444444" stroke-width="NaN"/><path d="M532.98276,201.05345l-0.9592,-1.89044l12.5143,1.59604l3.159,2.05826c0,0 -4.21409,-0.29753 -6.50258,-0.57187c-2.58095,-0.30941 -8.21153,-1.19205 -8.21153,-1.19205z" fill="#535353" stroke-width="0"/><path d="M531.89502,199.28445l-0.24119,-0.67594l11.38158,1.45156l1.60544,0.73471z" fill="#363636" stroke-width="0"/><path d="M532.70199,202.98842l0.14402,-1.12922c0,0 6.34435,1.26641 9.20101,1.63076c2.42076,0.30874 6.84871,0.4162 6.84871,0.4162c0,0 0.79871,0.56784 1.01839,0.8004c0.18532,0.19617 -0.30654,0.43799 -0.30654,0.43799c0,0 -4.74591,-0.19753 -7.04105,-0.49024c-3.09646,-0.39491 -9.86451,-1.66587 -9.86451,-1.66587z" fill="#3a3a3a" stroke-width="NaN"/><path d="M531.96989,198.66725l-0.43727,-0.94665l13.53203,1.72585l-1.92306,0.6798z" fill="#242424" stroke-width="0"/><path d="M530.70711,197.80606l0.20929,-1.64101c0,0 8.0544,0.81935 11.02608,1.19839c2.02462,0.25822 5.07997,0.85577 5.07997,0.85577l-1.9875,1.24793z" fill="#3a3a3a" stroke-width="0"/><path d="M530.78249,196.19087l0.25841,-2.02614c0,0 7.63354,0.64099 10.92116,1.06028c2.84495,0.36284 7.66934,1.31071 7.66934,1.31071l-2.65716,1.72022c0,0 -3.61512,-0.5442 -5.8415,-0.82815c-2.95941,-0.37743 -10.35023,-1.23691 -10.35023,-1.23691z" fill="#444444" stroke-width="0"/><path d="M530.98733,194.24367l0.10768,-0.84422c0,0 7.82621,0.87342 11.39453,1.32852c2.48467,0.31689 7.96701,1.14078 7.96701,1.14078l-0.96576,0.73479c0,0 -4.97685,-0.92575 -7.91825,-1.30087c-3.24066,-0.41332 -10.5852,-1.05898 -10.5852,-1.05898z" fill="#535353" stroke-width="0"/><path d="M530.95574,193.46749l0.04308,-0.33769c0,0 7.67878,0.46817 11.11134,0.90597c2.96774,0.3785 8.29303,1.56881 8.29303,1.56881l-0.00579,0.34245c0,0 -5.93974,-0.92382 -9.15868,-1.33437c-3.26102,-0.41591 -10.28291,-1.14517 -10.28291,-1.14517z" fill="#4e4e4e" stroke-width="0"/></g><g stroke-width="0"><g><g><g><path d="M526.957,201.76375l-2.87961,-13.63752l0.76634,-1.63756c0,0 3.03834,3.64286 3.63826,6.22994c0.32568,1.40451 -0.0821,9.22915 -0.0821,9.22915z" fill="#383638"/><path d="M528.0872,201.21089c0,0 0.13505,-0.5974 -0.17795,-3.1121c-0.34133,-2.74236 -1.26249,-6.52637 -1.51658,-7.64144c-0.57042,-2.50299 -1.30274,-2.72793 -1.30274,-2.72793l4.83504,0.03014l3.21227,14.09542z" fill="#555355"/><path d="M525.14259,187.82221l-0.42072,-1.30005c0,0 2.10517,-0.53801 3.05905,-0.41633c0.89384,0.11399 1.92799,0.97907 1.92799,0.97907l0.41152,1.37217z" fill="#686668"/></g><path d="M521.32988,201.04609l-2.87961,-13.63751l0.43563,-1.65944c0,0 3.36907,3.66474 3.96894,6.25177c0.32568,1.4045 -0.08209,9.22915 -0.08209,9.22915z" fill="#383638"/><path d="M522.46005,200.4932c0,0 0.13505,-0.59741 -0.17794,-3.1121c-0.34133,-2.74236 -1.26249,-6.52637 -1.51658,-7.64144c-0.57042,-2.50299 -1.30274,-2.72793 -1.30274,-2.72793l4.15432,-0.56075c0,0 0.85917,1.37399 1.03305,2.13688c0.49536,2.17361 2.85993,12.54939 2.85993,12.54939z" fill="#555355"/><path d="M519.51546,187.10448l-0.63716,-1.32766c0,0 2.3216,-0.5104 3.27552,-0.38871c0.89384,0.11399 1.63941,0.94225 1.63941,0.94225l0.53554,1.38801z" fill="#686668"/><path d="M529.02469,200.32864c0.10366,-0.81293 0.84674,-1.38789 1.65968,-1.28422c0.81294,0.10366 1.38789,0.84674 1.28422,1.65968c-0.10366,0.81293 -0.84674,1.38789 -1.65967,1.28422c-0.81294,-0.10366 -1.38789,-0.84674 -1.28422,-1.65968z" fill="#312f31"/><path d="M530.04563,197.50584l-1.28161,-5.75489l1.59671,0.05914l1.27346,5.81892z" fill="#444144"/></g><path d="M482.9417,191.14344l-2.36512,-11.21285l29.4934,4.94753l-1.68727,9.51001z" fill="#444444"/><path d="M495.97637,188.85866c0,0 0.69689,-0.43728 1.55317,-1.44193c0.78292,-0.91854 1.70928,-2.39108 2.14952,-2.80244c1.18331,-1.5694 3.48371,-0.80539 3.48371,-0.80539l-1.05433,0.52387l-4.99836,4.6705z" fill="#292929"/><path d="M497.42111,199.65765l-5.07394,-11.7074c0,0 3.40341,0.96965 5.22607,0.14453c1.41635,-0.64121 1.65593,-3.26394 3.25616,-3.34304c4.59115,-0.2269 17.41712,0.97151 17.41712,0.97151c0,0 2.31018,7.49748 2.86472,10.47866c0.38282,2.05809 0.23033,6.50655 0.23033,6.50655z" fill="#4a464a"/><path d="M503.18342,187.17784c-4.4437,-1.20794 -2.84191,-2.37865 -2.84191,-2.37865c0,0 0.9511,-1.19148 2.82191,-1.10022c4.59092,0.22394 13.09156,1.88967 14.8032,2.08213c0.80723,0.09074 0.25576,0.73405 0.25576,0.73405c0,0 -1.77926,2.17836 -3.34957,2.23419c-1.57033,0.05582 -7.24571,-0.36352 -11.68941,-1.57151z" fill="#5e595e"/></g><g><path d="M484.88016,204.68677l-2.85076,-18.44435l18.71962,2.67609l4.2133,4.90077l6.06267,0.67389l1.2462,13.68699z" fill="#4d4846"/><path d="M489.48404,205.66419l21.6784,-6.70278l22.173,2.58351c0,0 0.77228,4.31525 0.74273,5.67703c-0.0151,0.69428 -0.52619,2.90083 -0.52619,2.90083z" fill="#423d3b"/><path d="M486.75237,196.93747l-1.90826,-10.16928l0.81392,0.1038l1.90827,10.16928z" fill="#363332"/><path d="M490.16633,204.94311l0.15401,-1.20761c0,0 5.54421,-1.85896 14.53625,-0.71215c1.19475,0.15238 5.08688,3.21483 6.29106,3.36841c7.64022,0.9744 15.11853,1.92818 17.96357,2.29103c2.317,0.29551 4.84751,-0.69229 4.84751,-0.69229l-0.3185,2.49717z" fill="#312e2c"/><path d="M494.12896,192.60509l-1.14568,-4.79887l8.24095,1.05103l3.56227,4.91145l6.2313,0.99038l-7.77528,0.97287z" fill="#585350"/><path d="M483.82915,198.37404l0.14275,-1.11914c0,0 8.45483,-2.69562 11.30892,-2.33161c4.30153,0.5486 16.17664,2.06314 16.17664,2.06314l-0.14275,1.11914c0,0 -12.07871,-1.54049 -16.38015,-2.08908c-2.79548,-0.35655 -11.10544,2.35755 -11.10544,2.35755z" fill="#2b2827"/></g></g></g><g><g><g><path d="M146.48937,198.34998c0.25383,2.28445 -0.38072,4.81405 -1.49637,4.93799c-1.11565,0.12396 -2.28997,-2.20463 -2.5438,-4.48912c-0.25383,-2.28445 -1.28664,-11.056 -0.17096,-11.17997c1.11565,-0.12396 3.95732,8.44659 4.21115,10.73107z" fill="#615e5f" stroke-width="0"/><g><path d="M191.53404,173.92349c-0.46824,-0.59162 -2.62409,-2.18957 -2.62409,-2.18957l10.20465,-1.60185l-6.86266,6.38309c0,0 -0.24966,-2.00006 -0.71791,-2.59164z" fill="#756a6a" stroke-width="0"/><path d="M182.7947,171.09797l1.73744,-13.62298l19.12662,-3.47482l-2.47964,19.44253z" fill="#8a7c7c" stroke-width="0"/><path d="M142.39144,171.43619l8.9072,-17.14422l34.66951,4.28727l2.89441,13.13841c0,0 -23.00458,-1.34513 -30.75669,-1.39207c-3.21797,-0.01949 -15.71444,1.11064 -15.71444,1.11064z" fill="#7c787a" stroke-width="0"/><path d="M151.1118,156.69246l0.04047,-1.48832c0,0 25.71592,3.27972 33.80027,4.31079c4.52322,0.57687 16.82433,-4.27622 16.82433,-4.27622l-0.20616,1.61655c0,0 -12.00684,4.8712 -16.37953,4.29874c-8.01786,-1.04966 -34.07938,-4.4615 -34.07938,-4.4615z" fill="#535353" stroke-width="0"/><path d="M110.48015,168.0799l2.54973,-19.99206c0,0 5.38717,-6.42422 12.86362,-7.78525c9.28605,-1.69045 25.81328,2.21695 27.8673,2.47892c1.57622,0.20104 -14.12171,8.7 -14.12171,8.7l-2.54973,19.99206z" fill="#8d898b" stroke-width="0"/><path d="M287.87557,144.18789l1.98754,-2.91623l106.68279,13.75005l-1.86558,14.62774c0,0 -37.71055,-2.94903 -49.78052,-4.90789c-5.99429,-0.97283 -57.02422,-20.55369 -57.02422,-20.55369z" fill="#c98cac" stroke-width="0"/><path d="M253.60776,241.63567l-2.87051,-13.40731c0,0 4.35801,6.44257 7.04654,7.87104c1.71293,0.91012 5.85683,1.82346 12.22686,0.17872c5.12811,-1.32408 10.95246,-6.13669 10.95246,-6.13669l-13.46416,13.26586z" fill="#a08e97" stroke-width="0"/><path d="M349.30588,206.54472l0.66924,-23.72739l18.57582,0.95501l-2.68169,21.02669c0,0 -6.56348,0.89596 -9.39472,1.23881c-1.30363,0.15787 -7.16865,0.50691 -7.16865,0.50691z" fill="#96858d" stroke-width="0"/><path d="M251.311,245.11894l0.70089,-5.49564c0,0 11.70462,3.57806 16.6819,1.06626c2.42231,-1.22242 21.78688,-19.85477 32.46741,-30.21882c4.16805,-4.04456 7.01361,-6.82987 7.01361,-6.82987c0,0 3.80971,-3.3179 4.17833,-6.17643c0.18542,-1.43798 1.18026,-5.52367 0.64781,-7.92163c-0.5372,-2.41942 -2.60257,-3.14485 -2.60257,-3.14485l-3.11594,-14.07963l19.63862,2.6495l-6.24788,25.99174l3.40389,3.01673c0,0 -10.23732,4.74307 -15.456,9.07334c-8.16533,6.77524 -35.21075,33.95694 -35.21075,33.95694z" fill="#918189" stroke-width="0"/><path d="M326.26733,203.96204l4.82259,-28.22052l13.63007,2.01635l8.76199,13.21687l-4.28868,15.91126z" fill="#96858d" stroke-width="0"/><path d="M321.54517,205.22393l-1.96462,-4.42993l6.82387,-25.53174l5.04975,0.55865l-4.28677,28.27153z" fill="#8f8187" stroke-width="0"/><path d="M347.95577,206.83256c0,0 3.5731,-6.26535 2.91579,-11.80385c-0.37846,-3.18902 -5.00074,-5.76421 -5.23276,-7.71919c-0.44319,-3.73454 -1.12886,-9.51189 -1.12886,-9.51189l7.2399,5.32267c0,0 2.46616,7.58671 2.51994,11.8896c0.03618,2.89091 -2.24224,9.02797 -3.49021,11.48873c-0.10521,0.20745 -1.26139,-0.02396 -1.33352,0.13351c-0.1762,0.38466 0.751,0.7361 0.751,0.7361z" fill="#86787e" stroke-width="0"/><path d="M351.34721,184.581c0,0 -2.56563,-4.31418 -7.08762,-5.87041c-5.11938,-1.76178 -22.0594,-4.16031 -22.0594,-4.16031l158.26413,5.88794l2.21125,9.65916l6.44454,12.05486c0,0 -99.65672,-15.30224 -120.07964,-17.90691c-6.66429,-0.84995 -17.6933,0.33569 -17.6933,0.33569z" fill="#df8db7" stroke-width="0"/><path d="M192.38709,211.97096l-0.17089,-36.58543c0,0 2.14421,-3.50757 2.66864,-3.65811c5.78199,-1.65969 38.90882,-8.17286 44.26814,-7.20075c5.87085,1.06488 -10.63506,10.98496 -10.63506,10.98496c0,0 -14.55034,0.18663 -17.60531,4.0813c-4.14773,5.28784 -1.53475,23.1152 -1.53475,23.1152z" fill="#c77da3" stroke-width="0"/><path d="M268.01191,191.44461l-1.50876,-2.31476c0,0 7.59513,-7.70762 10.29921,-9.67404c2.7917,-2.03015 6.1965,-2.32184 6.1965,-2.32184l5.59652,3.0346c0,0 -4.37652,-1.06481 -6.9384,0.33863c-2.19928,1.20481 -6.31073,3.78404 -9.47966,6.49728c-2.30516,1.97367 -4.1654,4.4401 -4.1654,4.4401z" fill="#414041" stroke-width="0"/><path d="M150.92737,155.61417l6.2403,-10.98835l48.23772,6.15211c0,0 -3.43897,4.053 -6.78224,5.60865c-3.28132,1.52685 -13.09498,3.64044 -13.09498,3.64044z" fill="#979395" stroke-width="0"/><path d="M151.86552,154.58166l5.44672,-11.08955l48.23772,6.15211c0,0 -3.43897,4.053 -6.78224,5.60865c-3.28132,1.52685 -13.09498,3.64044 -13.09498,3.64044z" fill="#bdb7ba" stroke-width="0"/><path d="M350.30402,207.45536l-1.79289,-0.74633l17.24167,-2.00964c0,0 -3.79204,1.59042 -6.35685,2.06668c-2.56481,0.47628 -9.0919,0.68926 -9.0919,0.68926z" fill="#887980" stroke-width="0"/><path d="M194.79406,212.74616c0,0 -0.99739,-10.67745 -1.10863,-19.29925c-0.11176,-8.66387 -0.19137,-16.78593 0.24024,-20.34463c0.07313,-0.60291 2.96434,-10.24528 3.52606,-10.69926c3.03204,-2.45053 9.73199,6.21027 15.39102,5.81951c8.37912,-0.57857 27.39911,1.32892 27.39911,1.32892l-9.05766,4.19851c0,0 -19.65579,0.38148 -22.67817,5.17486c-4.08801,6.48355 0.78125,28.14638 0.78125,28.14638z" fill="#d486ae" stroke-width="0"/><path d="M196.3617,209.39875c0,0 -1.43683,-41.38589 1.15426,-51.21404c1.21234,-4.59848 -0.96323,-14.05759 -0.96323,-14.05759l49.3785,13.32272l-0.62057,16.12102c0,0 -31.39351,-7.1221 -38.48663,-1.70194c-4.73491,3.61812 -1.55363,32.49569 -1.55363,32.49569z" fill="#e490bb" stroke-width="0"/><g stroke-width="0"><path d="M341.64292,164.42356l1.04687,-8.20839l9.28478,1.18417l-1.04687,8.20839z" fill="#454545"/><path d="M342.56534,163.77017l0.56943,-7.28459l11.23519,1.43291l-0.9233,7.23945z" fill="#b0b0b0"/><path d="M342.90456,159.28804l0.13133,-2.83648l11.45009,1.46032l-0.24131,1.89205c0,0 -7.77104,-0.66603 -9.47431,-0.74352c-0.56913,-0.02589 -1.86584,0.22763 -1.86584,0.22763z" fill="#bebebe"/><path d="M353.76754,164.6449c0,0 -5.17289,-3.23579 -4.13235,-6.88111c1.54622,-5.41692 5.57383,-4.4213 5.57383,-4.4213l39.75037,6.41381l-1.27279,9.97977z" fill="#9c989a"/><path d="M355.70358,163.59214c0,0 -2.02159,-3.80527 -2.14652,-4.75553c-0.18519,-1.40861 2.16773,-4.08979 2.16773,-4.08979l41.25731,5.29546l-1.34419,7.37789z" fill="#898587"/><path d="M355.58888,163.77738l-0.76605,-2.05281l37.92456,4.8368l-0.24535,1.92382z" fill="#c1bcbf"/><path d="M355.89805,160.39538c0,0 -1.14957,-1.52567 -1.03097,-2.4555c0.11092,-0.86976 1.72105,-2.95523 1.72105,-2.95523l38.35597,4.89183l-0.69007,5.41071z" fill="#0d0d0d"/><path d="M355.79971,161.16643c0,0 -1.07317,-2.12458 -0.95458,-3.05441c0.11092,-0.86976 1.64465,-2.35631 1.64465,-2.35631l38.35598,4.89183l-0.69007,5.41071z" fill="#2e2e2e"/><path d="M350.77168,162.4439c-2.22964,-3.37616 -0.77822,-5.54651 -0.77822,-5.54651c0,0 1.29726,4.31109 2.40927,5.35779c1.31658,1.2392 4.72457,3.05092 4.72457,3.05092l-3.48946,-0.37429c0,0 -2.47379,-1.89371 -2.86615,-2.48784z" fill="#7d7a7c"/><path d="M358.33966,161.80256c0,0 -0.60191,-2.30667 -0.45723,-3.44106c0.12717,-0.99716 1.27955,-3.00673 1.27955,-3.00673l4.78457,0.61022c0,0 -0.73625,2.12794 -0.84607,2.98919c-0.15097,1.18372 0.02375,3.45856 0.02375,3.45856z" fill="#555555"/><path d="M366.8871,162.89272c0,0 0.98051,-2.4185 1.12518,-3.55286c0.12717,-0.99716 -0.30284,-2.89493 -0.30284,-2.89493l5.34008,0.68106c0,0 -0.63029,1.64857 -0.74013,2.50985c-0.15097,1.18372 -0.08219,3.9379 -0.08219,3.9379z" fill="#555555"/><path d="M376.13883,164.07265c0,0 0.98052,-2.4185 1.1252,-3.55286c0.12717,-0.99716 -0.30285,-2.89492 -0.30285,-2.89492l5.26072,0.67091c0,0 -0.63029,1.64857 -0.74013,2.50985c-0.15097,1.18372 -0.08219,3.9379 -0.08219,3.9379z" fill="#555555"/><path d="M385.72449,165.29517c0,0 1.11189,-2.04328 1.25655,-3.17768c0.12717,-0.99716 -0.43422,-3.27008 -0.43422,-3.27008l5.10202,0.65069c0,0 0.5704,2.07053 0.46055,2.93184c-0.15097,1.18372 -1.28287,3.51596 -1.28287,3.51596z" fill="#555555"/><path d="M358.80891,156.01946l-0.55857,-0.87772l35.27685,4.49911l-1.62313,0.59947c0,0 -2.80734,-0.35806 -5.24977,-0.66953c-0.53237,-0.06791 -1.49821,-0.52248 -2.29564,-0.62423c-0.77103,-0.09835 -1.36606,0.15721 -2.32448,0.03498c-1.49457,-0.19063 -3.18087,-0.40568 -4.94622,-0.63083c-0.73191,-0.09335 -1.32023,-0.55505 -2.0713,-0.65082c-0.66787,-0.08516 -1.49733,0.19568 -2.16835,0.11012c-1.66537,-0.21241 -3.31434,-0.42271 -4.86472,-0.62042c-0.71193,-0.09079 -1.34761,-0.61378 -2.00999,-0.69826c-0.80863,-0.10315 -1.62987,0.23404 -2.33835,0.14368c-2.89004,-0.36859 -4.82637,-0.61553 -4.82637,-0.61553z" fill="#474747"/></g><g><path d="M204.29015,203.92895l4.05,-2.37415c0,0 2.4461,3.14966 5.14413,4.39599c2.3863,1.10231 10.22396,2.70302 10.22396,2.70302l-3.18461,3.98341z" fill="#6d6a6b" stroke-width="0"/><path d="M195.47356,209.35737l10.09162,-6.15793c0,0 2.92326,2.64764 4.99086,3.5786c3.12799,1.40838 11.95082,4.04952 11.95082,4.04952l-4.78832,3.73154z" fill="#615e5f" stroke-width="0"/><path d="M194.67714,231.40109l1.38438,-22.57936c0,0 4.21904,1.33645 8.99787,1.97577c3.73005,0.49901 7.85248,0.17082 10.2393,1.08849c4.19024,1.61105 35.88378,18.10894 35.88378,18.10894l1.17132,10.40663z" fill="#575455" stroke-width="0"/><path d="M219.51627,207.30808c7.58168,-4.64336 17.28815,-16.96643 18.86169,-19.35796c1.13361,-1.72292 2.48308,-6.86959 2.48308,-6.86959l6.77965,7.73466c0,0 3.20972,21.07213 2.78086,33.76662c-0.12001,3.55202 1.87813,7.78404 0.51588,9.08865c-1.22055,1.16889 -18.33527,1.29457 -23.5894,-0.14652c-11.05714,-3.03261 -17.15557,-0.99828 -20.20279,-6.70501c-3.04725,-5.70671 4.78975,-11.02825 4.78975,-11.02825c0,0 5.60754,-5.27377 7.58134,-6.48262z" fill="#504e4f" stroke-width="0"/><path d="M228.43609,175.35456c0,0 0.58151,-1.43071 1.51557,-1.98047c1.20129,-0.70704 5.09423,-1.90987 5.09423,-1.90987c0,0 9.03015,3.23577 11.70119,6.08662c2.46444,2.63025 -5.06652,12.03427 -5.06652,12.03427l-1.3121,-5.57215z" fill="#464445" stroke-width="0"/><path d="M245.50902,225.14203c0,0 -10.00109,5.03094 -18.439,4.1276c-8.14009,-0.87145 -14.73315,-7.65187 -14.44706,-9.04914c0.15497,-0.75705 8.43744,-3.0328 12.42008,-6.78049c4.42711,-4.16591 4.66394,-9.88341 6.25829,-11.70682c4.45097,-5.09049 14.11581,-14.11884 13.8279,-20.24813c-0.30194,-6.42794 -10.671,-9.84107 -10.671,-9.84107c0,0 4.10513,-1.74637 9.06718,-1.24444c2.11364,0.21379 6.44937,2.16385 7.31655,2.66253c2.84368,1.63525 4.61139,3.51021 4.61139,3.51021c0,0 4.24647,-4.37727 7.8588,-4.22852c3.61233,0.14875 21.91393,5.45438 21.91393,5.45438l-17.67358,10.44195z" fill="#555354" stroke-width="0"/><path d="M230.83294,202.27323c0,0 5.95921,-10.20085 11.33917,-14.99363c5.37995,-4.79278 9.82796,-7.43174 13.33193,-6.98484c2.53739,0.3236 4.70922,9.28579 4.70922,9.28579l-14.6276,27.13671c0,0 -14.91852,1.40301 -16.07007,-1.24462c-0.9095,-2.0911 1.31735,-13.19939 1.31735,-13.19939z" fill="#585758" stroke-width="0"/><path d="M249.75335,232.20715c0,0 -2.07179,-6.50544 -1.36581,-9.46209c0.98624,-4.13042 4.01944,-16.50001 4.01944,-16.50001l0.62071,10.5994c0,0 -1.86851,9.58815 -2.12019,12.61047c-0.24282,2.91603 0.89447,5.24906 0.89447,5.24906z" fill="#3f3e3f" stroke-width="0"/><path d="M251.09236,214.36797c0.01802,-1.68606 1.25827,-9.30127 1.25827,-9.30127c0,0 11.32442,-13.24167 13.74063,-15.6081c0.70835,-0.69373 4.25603,-1.98623 4.25603,-1.98623l-2.24712,4.60664c0,0 -1.63761,0.40003 -1.87642,0.85129c-0.25444,0.48077 0.39366,1.95035 0.39366,1.95035l-6.16048,7.76311c0,0 -1.76521,0.79363 -2.00688,1.27227c-0.24174,0.47876 0.32801,1.44677 0.32801,1.44677c0,0 -4.95456,8.38179 -6.09577,10.67057c-0.52766,1.05826 -0.47572,2.50909 -0.47572,2.50909c0,0 -1.13219,-2.48841 -1.11415,-4.17449z" fill="#474647" stroke-width="0"/><path d="M240.72453,191.90746l19.84773,10.83335c0,0 -1.30745,0.85375 -1.61093,1.35845c-0.22395,0.37242 -0.04491,1.39538 -0.04491,1.39538z" fill="#3f3e3e" stroke-width="NaN"/><path d="M247.9861,182.39678l20.34669,9.71097c0,0 -1.21275,0.69547 -1.49245,1.22064c-0.29156,0.54747 -0.06155,1.66476 -0.06155,1.66476z" fill="#3f3e3e" stroke-width="NaN"/><path d="M232.01764,209.27252c0,0 9.63325,8.98392 14.70792,15.65714c5.07464,6.67324 2.99688,7.62484 2.99688,7.62484z" fill="#636162" stroke-width="NaN"/><path d="M248.11464,188.08212c0,0 -6.31984,2.12157 -9.43877,4.84479c-3.11895,2.72322 -13.43329,17.72175 -13.06066,14.79989c0.37265,-2.92186 16.01043,-21.81642 17.79094,-21.58935c0.67401,0.08597 3.83038,-0.663 4.61218,-0.3239c1.28346,0.55671 0.09631,2.26853 0.09631,2.26853z" fill="#918f91" stroke-width="0"/><path d="M194.24098,231.21502l14.06968,-0.10919c0,0 12.53672,1.26393 15.62859,1.81459c7.5296,1.34097 29.71313,6.26049 29.71313,6.26049l-1.2431,6.21374c0,0 -24.6163,0.45484 -31.28888,-1.72245c-1.93037,-0.62989 -7.62211,-1.97887 -11.67259,-3.85859c-7.92661,-3.67855 -15.20682,-8.59856 -15.20682,-8.59856z" fill="#626061" stroke-width="0"/><path d="M251.4569,244.91848c0,0 0.5832,-4.25303 0.43387,-6.63087c-0.16781,-2.67262 -1.39179,-8.62415 -1.39179,-8.62415l1.76802,0.22548c0,0 1.14152,4.63849 1.29345,7.05801c0.1661,2.64537 -0.33552,8.19703 -0.33552,8.19703z" fill="#4a494a" stroke-width="0"/><path d="M251.15741,245.72338l0.51733,-3.35871c0,0 0.5287,0.3343 0.79804,0.36863c0.32001,0.04083 0.95526,-0.14502 0.95526,-0.14502l-0.22954,3.17303c0,0 -0.82189,0.3061 -1.19378,0.29918c-0.28498,-0.00528 -0.84726,-0.33713 -0.84726,-0.33713z" fill="#363536" stroke-width="0"/><path d="M250.64212,230.71533l-0.17772,-1.65642c0,0 0.45886,-0.29875 0.83187,-0.3109c0.35524,-0.01156 0.85793,0.1763 0.85793,0.1763l0.27791,1.7859c0,0 -0.54216,0.4424 -0.84881,0.44327c-0.28893,0.00082 -0.94118,-0.43814 -0.94118,-0.43814z" fill="#585758" stroke-width="0"/><path d="M209.99974,239.19647c0,0 -7.45815,-3.92794 -7.2857,-5.28001c0.17331,-1.35882 6.50849,-1.73114 6.50849,-1.73114c0,0 10.88642,1.14571 15.78174,1.94406c2.74059,0.44696 11.08984,2.43821 11.08984,2.43821c0,0 7.09986,1.96826 7.7627,3.21383c0.723,1.35867 -3.46957,3.68862 -3.46957,3.68862c0,0 -12.78685,-0.31418 -16.69345,-1.02232c-1.38776,-0.25158 -13.694,-3.25116 -13.694,-3.25116z" fill="#6b696a" stroke-width="0"/><path d="M200.57327,231.03684l-1.97512,-0.01923c0,0 1.05589,-3.32783 3.59692,-1.75151c2.541,1.57636 21.49049,2.97351 21.49049,2.97351z" fill="#4b4949" stroke-width="0"/><path d="M194.33155,231.08138c0,0 -2.00596,-0.0627 -2.0759,-3.74388c-0.0354,-1.86339 0.03409,-16.16163 0.03409,-16.16163l4.07272,-2.40316c0,0 -0.08199,6.03182 -0.24462,8.93683c-0.21636,3.86363 -0.87054,13.48858 -0.87054,13.48858z" fill="#3f3d3e" stroke-width="0"/><path d="M200.87151,231.24214c0,0 3.44006,-1.73687 19.41006,-0.03995c1.31884,0.14015 -1.7767,-0.25888 7.48333,1.43355c9.26002,1.6924 12.94547,3.68736 12.94547,3.68736c0,0 -14.80984,-2.96684 -20.96282,-3.75158c-7.01366,-0.89449 -18.87607,-1.32937 -18.87607,-1.32937z" fill="#838082" stroke-width="0"/><path d="M209.63041,202.48704c0,0 -4.61222,1.61693 -6.97419,2.94432c-2.65479,1.49197 -8.17891,5.57163 -8.17891,5.57163l-0.57555,-1.688c0,0 4.2199,-3.3467 6.62324,-4.69736c2.62765,-1.4767 8.52987,-3.81861 8.52987,-3.81861z" fill="#4a494a" stroke-width="0"/><path d="M210.58952,202.34948l-3.74505,1.21653c0,0 0.1774,-0.62904 0.08971,-0.88617c-0.10418,-0.30552 -0.58369,-0.77801 -0.58369,-0.77801l3.34727,-1.38941c0,0 0.68751,0.5783 0.84998,0.91303c0.12452,0.25651 0.04172,0.924 0.04172,0.924z" fill="url(#color-3)" stroke-width="0"/><path d="M195.48697,210.34719l-3.27261,2.33452l0.13345,-2.1833l2.31789,-1.74297c0,0 0.69928,0.26067 0.83996,0.53338c0.13256,0.25692 -0.01872,1.05834 -0.01872,1.05834z" fill="url(#color-4)" stroke-width="0"/></g><path d="M327.54541,203.01965c0,0 1.47896,-4.26583 2.15398,-5.5801c0.45822,-0.89218 2.99365,-2.01208 2.99365,-2.01208l16.91028,1.93671c0,0 -2.00038,5.58957 -2.55126,6.89669c-0.24133,0.5726 -1.38634,1.12479 -1.38634,1.12479z" fill="#665b60" stroke-width="0"/><path d="M281.63153,178.75951c0,0 -3.56605,-2.02991 -8.30916,-3.7964c-3.01519,-1.12299 -7.17919,-2.22539 -9.03863,-2.3559c-5.40599,-0.37946 -8.55058,4.36574 -8.55058,4.36574c0,0 -2.95399,-2.71125 -4.93656,-3.82572c-1.85065,-1.04031 -6.04214,-2.58395 -6.04214,-2.58395c0,0 25.00622,-1.94329 28.89983,-2.03152c7.46438,-0.16918 33.88168,3.59461 33.88168,3.59461l4.3666,14.95833z" fill="#8b7c84" stroke-width="0"/><g stroke-width="0"><path d="M329.10766,202.26852c0,0 0.79619,-2.51576 1.31647,-3.35142c0.53945,-0.8665 2.8388,-1.63419 2.8388,-1.63419l14.41328,1.83821c0,0 0.25883,1.02394 -0.06798,1.72603c-0.44438,0.95457 -3.5462,3.32861 -3.5462,3.32861z" fill="#585852"/><path d="M329.20195,201.52916c0,0 0.70189,-1.77636 1.22218,-2.61204c0.53945,-0.8665 2.9331,-2.37355 2.9331,-2.37355l14.41328,1.83822c0,0 0.16458,1.76332 -0.16229,2.4654c-0.44438,0.95457 -3.45191,2.5892 -3.45191,2.5892z" fill="#797971"/><path d="M345.95778,198.65019c-1.01793,-0.3092 -12.51278,-2.04879 -12.51278,-2.04879l14.39355,1.83571l-0.31146,2.44205c0,0 -0.5514,-1.91975 -1.56932,-2.22899z" fill="#85857b"/></g><path d="M332.82591,184.42746l0.65657,-5.14805l7.07858,0.90277l0.63045,5.3122z" fill="#7c6e75" stroke-width="0"/><path d="M325.82852,156.89741l-3.11445,-8.59435l1.36824,0.17452l4.97724,9.28718z" fill="#d495b6" stroke-width="0"/><path d="M288.10348,144.39524l13.50371,-1.39246l21.30084,5.35032l2.94702,8.53366z" fill="#df9cbe" stroke-width="0"/><path d="M332.35075,189.43511l0.20519,-1.60876l10.77872,1.37471l0.76009,1.73187z" fill="#7c6e75" stroke-width="0"/><path d="M293.64244,172.24576c0,0 -18.13952,-1.10536 -23.79034,-1.32182c-8.55653,-0.3278 -25.78382,-0.18083 -25.78382,-0.18083c0,0 15.46478,-2.50427 29.05548,-2.29932c14.73578,0.22221 58.61578,4.34935 58.61578,4.34935l-0.68431,5.3656z" fill="#75686e" stroke-width="0"/><path d="M285.67004,180.07051l-3.14496,-0.97653c0,0 9.99362,-1.12917 15.19377,0.30302c5.20015,1.43217 13.75553,7.66997 13.75553,7.66997z" fill="#7c6e76" stroke-width="0"/><path d="M240.09709,170.19541c0,0 -30.14941,-19.36633 -30.44925,-24.06212c-0.27233,-4.26555 29.2851,6.10193 29.59417,6.03222c5.40796,-1.21949 77.62608,0.7177 77.62608,0.7177l25.536,10.10112l52.41025,6.1082l5.53208,14.39094c0,0 -61.21236,-6.62851 -84.80829,-9.47352c-8.19078,-0.98758 -24.80588,-3.75957 -40.1311,-4.56457c-11.82136,-0.62094 -29.91166,1.42343 -29.91166,1.42343z" fill="#ee96c3" stroke-width="0"/><path d="M110.41621,166.30117l5.84995,-19.57116c0,0 0.79171,-7.0103 8.26818,-8.37135c9.28605,-1.69045 25.81328,2.21696 27.8673,2.47893c1.57622,0.20104 -14.12172,8.7 -14.12172,8.7l-2.54972,19.99206z" fill="#c4b4b3" stroke-width="0"/><g stroke-width="0"><path d="M391.6253,183.76447l-0.91842,-15.38267l91.15566,18.44506l-1.48532,5.66455l-47.66196,-1.18222z" fill="#ad6d8e"/><path d="M419.57272,172.87643l8.26091,-7.28615l26.82894,1.27541l-5.58638,9.77357z" fill="#8d788b"/><path d="M394.15602,170.83311l2.05398,-16.10483l31.6928,10.87499l-5.41092,6.23456z" fill="#857183"/><path d="M436.65406,172.90543l17.94621,-6.04644l27.14063,7.26469l-1.15595,6.80242z" fill="#947e92"/><path d="M390.09745,169.70204l4.48544,-12.29731l1.8228,-2.85617l-1.90578,14.9428z" fill="#756474"/><path d="M393.301,180.73775l0.81183,-12.06697l43.17439,3.84416l-3.24765,15.77293z" fill="#746373"/><path d="M434.0339,188.27153c0,0 1.1749,-6.20872 1.73187,-9.00488c0.47686,-2.39401 1.40702,-6.75372 1.40702,-6.75372l43.72985,6.49364l0.92121,8.58554z" fill="#867284"/><path d="M390.1465,169.63729l4.18891,-1.00906l-1.00558,12.1209z" fill="#6f5e6d"/><path d="M474.59716,173.10408l-19.23342,-5.84387l26.05246,6.98849l-0.80926,3.47097c0,0 -0.11252,-1.59635 -1.22197,-2.44843c-0.74215,-0.56998 -4.78785,-2.16717 -4.78785,-2.16717z" fill="#978195"/><path d="M435.07562,172.04912c0,0 8.34896,-2.42855 11.27616,-3.42027c2.13235,-0.72242 4.67062,-1.98248 4.67062,-1.98248l2.49923,0.43227l-15.81865,5.30554z" fill="#9c859a"/><path d="M420.70806,171.03159c0,0 1.65401,-2.56364 3.16428,-3.73225c1.51024,-1.16862 3.90307,-1.68526 3.90307,-1.68526l-4.62558,5.72892z" fill="#806b7d"/><path d="M456.38553,165.32676l2.84152,-5.41738l14.60556,5.62635l4.74534,7.05703z" fill="#55494f"/><path d="M453.51828,167.78388c0,0 1.17371,-0.6469 1.80356,-1.15608c0.47445,-0.38352 1.33207,-1.66995 1.33207,-1.66995l21.62838,6.79081c0,0 0.79802,0.60277 1.33831,0.99999c0.56465,0.41512 1.97973,1.43939 1.97973,1.43939z" fill="#685960"/><path d="M457.05506,164.51273l2.2253,-4.3387l13.61179,5.08979c0,0 -7.74846,-2.53335 -12.22577,-2.84763c-2.59709,-0.18231 -3.61132,2.09654 -3.61132,2.09654z" fill="#41383c"/></g><path d="M117.01183,127.54405l0.65891,-5.16647c0,0 22.32088,1.54121 44.09539,4.37568c12.97561,1.68909 26.23431,4.99068 33.14427,5.51902c15.58041,1.19124 26.53597,-1.96027 26.53597,-1.96027l-7.63613,9.75545z" fill="#ffa1d1" stroke-width="0"/><path d="M112.6888,141.06333l4.17762,-15.68006c0,0 54.09533,8.97639 71.85484,10.79715c10.52001,1.07856 24.8833,-0.87923 24.8833,-0.87923l-1.85247,14.5247c0,0 -66.95865,-8.53974 -83.10028,-10.59841c-6.63682,-0.84645 -19.36423,28.50411 -19.36423,28.50411z" fill="#ee96c3" stroke-width="0"/><path d="M280.78101,239.6131l10.92552,-12.3126c0,0 11.84509,-14.47502 22.03811,-20.09335c2.59021,-1.42771 7.86959,-1.96061 7.86959,-1.96061c0,0 -7.87589,4.02103 -10.803,6.46175c-6.91256,5.76393 -30.03015,27.9048 -30.03015,27.9048z" fill="#70646b" stroke-width="0"/><path d="M384.22117,187.43973l-3.97256,-18.65426l1.33927,0.17081c0,0 1.2031,5.64948 1.83879,8.63468c0.0906,0.42533 1.29011,1.8093 1.40229,2.33614c0.1945,0.91327 -0.68182,1.047 -0.46446,2.06775c0.60529,2.84229 1.1959,5.61568 1.1959,5.61568z" fill="#795467" stroke-width="0"/><path d="M212.32478,150.33424c0,0 -9.56886,-7.82579 -8.41738,-11.48442c0.68945,-2.19063 18.40273,-7.94804 18.40273,-7.94804l67.73995,10.32504l-2.01523,2.8642l28.74791,8.95736l-74.58119,17.27856c0,0 -0.07478,-5.66884 3.86014,-8.04828c3.82435,-2.31257 19.4271,-6.03352 19.4271,-6.03352c0,0 -33.93624,-4.37752 -41.15764,-5.38592c-2.40923,-0.33643 -12.00648,-0.52499 -12.00648,-0.52499z" fill="#f399c8" stroke-width="0"/><g><path d="M220.28424,132.58315l0.4097,-3.21232l175.13505,22.33629l-0.4097,3.21232z" fill="#584f54" stroke-width="0"/><path d="M390.04782,151.22003l0.34618,-2.71434l3.03072,0.38653l2.32796,3.0554z" fill="#685d63" stroke-width="0"/><g fill="#685d63" stroke-width="0"><g><g><g><path d="M383.40974,150.62461l0.37663,-2.95308l3.84994,0.49099l-0.37663,2.95308z"/><path d="M377.16283,149.82793l0.37663,-2.95308l3.84994,0.491l-0.37663,2.95308z"/></g><g><path d="M371.15162,149.06125l0.37663,-2.95309l3.84994,0.491l-0.37663,2.95308z"/><path d="M364.90465,148.26453l0.37663,-2.95308l3.84993,0.491l-0.37663,2.95309z"/></g></g><g><g><path d="M358.77559,147.48284l0.37663,-2.95309l3.84993,0.491l-0.37663,2.95308z"/><path d="M352.52864,146.68614l0.37663,-2.95308l3.84994,0.49099l-0.37663,2.95309z"/></g><g><path d="M346.51747,145.91946l0.37663,-2.95308l3.84993,0.491l-0.37663,2.95308z"/><path d="M340.27057,145.12275l0.37663,-2.95308l3.84993,0.49099l-0.37663,2.95309z"/></g></g></g><g><g><g><path d="M340.03485,145.09272l0.37663,-2.95308l3.84993,0.491l-0.37663,2.95308z"/><path d="M333.78795,144.29598l0.37663,-2.95308l3.84994,0.491l-0.37663,2.95308z"/></g><g><path d="M327.77671,143.52933l0.37663,-2.95309l3.84993,0.491l-0.37663,2.95308z"/><path d="M321.52979,142.7326l0.37663,-2.95308l3.84993,0.49099l-0.37663,2.95309z"/></g></g><g><g><path d="M315.40077,141.95095l0.37663,-2.95309l3.84994,0.491l-0.37663,2.95308z"/><path d="M309.15382,141.1542l0.37663,-2.95308l3.84994,0.491l-0.37663,2.95309z"/></g><g><path d="M303.1426,140.38756l0.37663,-2.95308l3.84994,0.49099l-0.37663,2.95309z"/><path d="M296.89568,139.59083l0.37663,-2.95308l3.84994,0.491l-0.37663,2.95308z"/></g></g></g></g><g><g fill="#685d63" stroke-width="0"><g><g><path d="M290.72653,138.80404l0.37663,-2.95309l3.84994,0.491l-0.37663,2.95308z"/><path d="M284.4796,138.00731l0.37663,-2.95308l3.84994,0.491l-0.37663,2.95309z"/></g><g><path d="M278.46839,137.24068l0.37663,-2.95308l3.84994,0.491l-0.37663,2.95309z"/><path d="M272.22153,136.44396l0.37663,-2.95308l3.84994,0.49099l-0.37663,2.95309z"/></g></g><g><g><path d="M266.09244,135.66227l0.37663,-2.95309l3.84994,0.491l-0.37663,2.95308z"/><path d="M259.8455,134.86553l0.37663,-2.95308l3.84994,0.491l-0.37663,2.95309z"/></g><g><path d="M253.83426,134.0989l0.37663,-2.95308l3.84994,0.491l-0.37663,2.95309z"/><path d="M247.58734,133.30218l0.37663,-2.95308l3.84994,0.49099l-0.37663,2.95308z"/></g></g></g><g><g fill="#685d63" stroke-width="0"><g><path d="M247.35163,133.27212l0.37663,-2.95309l3.84994,0.491l-0.37663,2.95308z"/><path d="M241.10468,132.47538l0.37663,-2.95308l3.84994,0.49099l-0.37663,2.95309z"/></g><g><path d="M235.09349,131.70874l0.37663,-2.95308l3.84994,0.49099l-0.37663,2.95309z"/><path d="M228.84658,130.912l0.37663,-2.95308l3.84994,0.49099l-0.37663,2.95308z"/></g></g><g fill="none" stroke-width="1" font-family="sans-serif" font-weight="normal" font-size="12" text-anchor="start"><g/><g/></g></g></g><path d="M220.73349,129.6261l3.02033,-2.37328l3.03072,0.38653l-0.34618,2.71434z" data-paper-data="{&quot;index&quot;:null}" fill="#685d63" stroke-width="0"/></g><path d="M273.02669,169.44826l-2.56552,-0.05498c0,0 1.99026,-2.33451 11.65097,-2.23924c7.32426,0.07225 27.88824,1.37282 40.19402,2.19047c5.71449,0.37967 62.90115,-1.40173 62.90115,-1.40173l5.15885,0.64352c0,0 -62.5665,2.75137 -68.27385,2.34918c-12.62051,-0.88938 -33.8455,-2.34914 -40.01792,-2.55316c-3.36001,-0.11107 -9.04764,1.06594 -9.04764,1.06594z" fill="#70475c" stroke-width="0"/><path d="M370.71903,201.08948l-5.11776,1.20806l2.39575,-18.77918c0,0 7.72274,1.03374 15.27541,2.04469c21.68151,2.90217 125.88427,16.85025 125.88427,16.85025l-0.85109,6.67322z" fill="#5a5959" stroke-width="0"/><path d="M369.60529,202.58903l1.46244,-2.84388l137.2638,9.23429l-13.14946,9.62535z" fill="#4b4a4a" stroke-width="0"/><path d="M491.94663,218.00151c0,0 -5.45084,-3.94605 -8.27825,-5.7463c-1.51528,-0.96478 -7.36765,-4.21562 -7.36765,-4.21562c0,0 7.56979,3.89269 10.76759,5.25618c1.14125,0.48661 2.16186,1.36559 3.38859,2.05445c0.39555,0.22211 2.55341,-2.28418 4.65396,-3.74453c0.62785,-0.4365 1.73265,0.07191 2.29566,-0.18975c1.29068,-0.59988 1.7849,-1.63711 1.7849,-1.63711c0,0 0.21714,0.96478 -1.14557,2.01459c-0.37179,0.28645 -2.20481,0.40784 -2.57325,0.72413c-1.47652,1.26768 -2.67258,2.72715 -3.05004,3.27501c-1.05339,1.52883 0.97565,2.39411 0.97565,2.39411z" fill="#414040" stroke-width="0"/><path d="M212.23857,150.62307l5.1887,-10.52692l7.0288,0.26707c0,0 -1.27803,2.50665 -2.03123,3.98397c-0.1897,0.37209 11.7571,-0.07625 12.02138,0.63391c0.49034,1.3176 -5.51264,4.34234 -5.98633,5.27144c-0.54156,1.06216 -9.22616,0.35359 -9.22616,0.35359z" fill="#303030" stroke-width="0"/><path d="M212.14299,150.23783l4.97939,-9.71176c0,0 2.81102,1.67367 2.6864,2.65073c-0.22673,1.77779 -2.52522,7.31868 -2.52522,7.31868z" fill="#252525" stroke-width="0"/><path d="M365.24734,204.92961l0.37352,-2.92867l5.85291,-2.22984l-1.60167,2.77202c0,0 -1.25055,1.18659 -2.06391,1.6063c-0.71569,0.36933 -2.56083,0.78015 -2.56083,0.78015z" fill="#383838" stroke-width="0"/><g><g fill="#4b4b4b" stroke-width="0"><g data-paper-data="{&quot;origPos&quot;:null}"><g data-paper-data="{&quot;origPos&quot;:null}"><path d="M431.67566,214.78377l0.28753,-2.2545l3.71988,0.47441l-0.28753,2.2545z" data-paper-data="{&quot;origPos&quot;:null}"/><path d="M425.49024,213.88035l0.28753,-2.2545l3.71987,0.47441l-0.28753,2.25449z" data-paper-data="{&quot;origPos&quot;:null}"/></g><g data-paper-data="{&quot;origPos&quot;:null}"><path d="M444.06085,216.47796l0.28753,-2.2545l3.71988,0.47441l-0.28753,2.25449z" data-paper-data="{&quot;origPos&quot;:null}"/><path d="M437.87542,215.57451l0.28753,-2.25449l3.71987,0.47441l-0.28753,2.2545z" data-paper-data="{&quot;origPos&quot;:null}"/></g></g><g data-paper-data="{&quot;origPos&quot;:null,&quot;index&quot;:null}"><g data-paper-data="{&quot;origPos&quot;:null}"><path d="M463.13983,218.68212l0.28753,-2.2545l3.71988,0.47441l-0.28753,2.25449z" data-paper-data="{&quot;origPos&quot;:null}"/><path d="M469.35399,219.36008l0.28752,-2.25449l3.71988,0.47441l-0.28753,2.25448z" data-paper-data="{&quot;origPos&quot;:null}"/></g><g data-paper-data="{&quot;origPos&quot;:null}"><path d="M450.7259,217.21338l0.28753,-2.2545l3.71987,0.47441l-0.28752,2.25449z" data-paper-data="{&quot;origPos&quot;:null}"/><path d="M456.94006,217.89141l0.28753,-2.25449l3.71988,0.47441l-0.28753,2.25449z" data-paper-data="{&quot;origPos&quot;:null}"/></g></g></g><path d="M390.3403,201.20007l1.72197,-13.50175l83.79526,10.68704l-1.72197,13.50175z" data-paper-data="{&quot;origPos&quot;:null}" fill="#444444" stroke-width="0"/><path d="M389.84059,205.89681l0.60505,-4.74402l83.54898,10.65562l-0.60505,4.74403z" data-paper-data="{&quot;origPos&quot;:null}" fill="#414141" stroke-width="0"/><path d="M389.69494,207.31401l0.20466,-1.60463l83.53835,10.65427l-0.20465,1.60463z" data-paper-data="{&quot;origPos&quot;:null}" fill="#3f3f3f" stroke-width="0"/><g stroke-width="0"><g data-paper-data="{&quot;origPos&quot;:null}" fill="#5a5a5a"><g data-paper-data="{&quot;origPos&quot;:null}"><path d="M433.25422,206.75324l1.73954,-13.63951l3.54273,0.45183l-1.73954,13.63951z" data-paper-data="{&quot;origPos&quot;:null}"/></g><g data-paper-data="{&quot;origPos&quot;:null}"><path d="M439.27687,207.52134l1.73954,-13.63951l3.54274,0.45183l-1.73954,13.63951z" data-paper-data="{&quot;origPos&quot;:null}"/><path d="M445.47665,208.31204l1.73955,-13.63952l3.54273,0.45183l-1.73954,13.63951z" data-paper-data="{&quot;origPos&quot;:null}"/></g></g><g data-paper-data="{&quot;origPos&quot;:null}" fill="#5a5a5a"><g data-paper-data="{&quot;origPos&quot;:null}"><path d="M452.03071,209.14793l1.73954,-13.63951l3.54273,0.45183l-1.73954,13.63952z" data-paper-data="{&quot;origPos&quot;:null}"/><path d="M458.23048,209.93864l1.73954,-13.63951l3.54274,0.45183l-1.73955,13.63952z" data-paper-data="{&quot;origPos&quot;:null}"/></g><g data-paper-data="{&quot;origPos&quot;:null}"><path d="M464.25315,210.70676l1.73955,-13.63952l3.54273,0.45183l-1.73955,13.63952z" data-paper-data="{&quot;origPos&quot;:null}"/><path d="M470.45292,211.49745l1.73955,-13.63952l3.54273,0.45183l-1.73954,13.63951z" data-paper-data="{&quot;origPos&quot;:null}"/></g></g><path d="M436.85781,207.21281l-1.11604,1.80432l-5.2047,-0.62035l1.10115,-9.73539l3.29716,-5.55518l-1.67114,13.64826z" fill="#3a3a3a"/><path d="M442.87803,207.98061l-1.11604,1.80433l-5.20471,-0.62036l1.10116,-9.73539l3.29716,-5.55517l-1.67114,13.64825z" fill="#3a3a3a"/><path d="M449.03503,208.76588l-1.11604,1.80433l-5.20471,-0.62035l1.10115,-9.73539l3.29716,-5.55517l-1.67114,13.64826z" fill="#3a3a3a"/><path d="M455.67094,209.61221l-1.11604,1.80433l-5.20471,-0.62035l1.10115,-9.73539l3.29716,-5.55517l-1.67114,13.64826z" fill="#3a3a3a"/><path d="M461.89639,210.40619l-1.11604,1.80433l-5.20471,-0.62035l1.10115,-9.73539l3.29716,-5.55517l-1.67114,13.64825z" fill="#3a3a3a"/><path d="M467.84815,211.16526l-1.11604,1.80432l-5.2047,-0.62035l1.10115,-9.73539l3.29716,-5.55517l-1.67114,13.64826z" fill="#3a3a3a"/><path d="M474.08145,211.96023l-1.11604,1.80432l-5.20471,-0.62035l1.10116,-9.73539l3.29716,-5.55518l-1.67114,13.64826z" fill="#3a3a3a"/></g><g stroke-width="0"><g data-paper-data="{&quot;origPos&quot;:null}" fill="#5a5a5a"><g data-paper-data="{&quot;origPos&quot;:null}"><path d="M390.37252,201.2842l1.73955,-13.63952l3.54274,0.45183l-1.73954,13.63951z" data-paper-data="{&quot;origPos&quot;:null}"/></g><g data-paper-data="{&quot;origPos&quot;:null}"><path d="M396.39515,202.05233l1.73954,-13.63951l3.54273,0.45183l-1.73954,13.63951z" data-paper-data="{&quot;origPos&quot;:null}"/><path d="M402.59492,202.84303l1.73954,-13.63951l3.54274,0.45183l-1.73955,13.63952z" data-paper-data="{&quot;origPos&quot;:null}"/></g></g><g data-paper-data="{&quot;origPos&quot;:null}" fill="#5a5a5a"><g data-paper-data="{&quot;origPos&quot;:null}"><path d="M409.14897,203.67891l1.73955,-13.63952l3.54274,0.45184l-1.73954,13.63951z" data-paper-data="{&quot;origPos&quot;:null}"/><path d="M415.34884,204.46962l1.73954,-13.63951l3.54274,0.45183l-1.73955,13.63952z" data-paper-data="{&quot;origPos&quot;:null}"/></g><g data-paper-data="{&quot;origPos&quot;:null}"><path d="M421.37147,205.23772l1.73954,-13.63951l3.54274,0.45183l-1.73955,13.63952z" data-paper-data="{&quot;origPos&quot;:null}"/><path d="M427.57126,206.02846l1.73955,-13.63952l3.54274,0.45183l-1.73954,13.63952z" data-paper-data="{&quot;origPos&quot;:null}"/></g></g><path d="M393.97606,201.74379l-1.11604,1.80433l-2.71329,-0.3026l0.23577,-1.96006z" fill="#3a3a3a"/><path d="M399.99631,202.51162l-1.11604,1.80433l-5.20471,-0.62035l1.10116,-9.73539l3.29716,-5.55517l-1.67114,13.64826z" fill="#3a3a3a"/><path d="M406.15328,203.29684l-1.11604,1.80432l-5.20471,-0.62035l1.10115,-9.73538l3.29716,-5.55518l-1.67114,13.64826z" fill="#3a3a3a"/><path d="M412.78919,204.14316l-1.11604,1.80432l-5.20471,-0.62035l1.10116,-9.73539l3.29716,-5.55517l-1.67114,13.64826z" fill="#3a3a3a"/><path d="M419.0147,204.93717l-1.11604,1.80432l-5.2047,-0.62035l1.10115,-9.73539l3.29716,-5.55517l-1.67114,13.64826z" fill="#3a3a3a"/><path d="M424.96646,205.69623l-1.11604,1.80432l-5.2047,-0.62035l1.10115,-9.73539l3.29716,-5.55518l-1.67114,13.64826z" fill="#3a3a3a"/><path d="M431.19978,206.49125l-1.11604,1.80433l-5.2047,-0.62035l1.10115,-9.73539l3.29716,-5.55517l-1.67114,13.64826z" fill="#3a3a3a"/></g><g><g data-paper-data="{&quot;origPos&quot;:null}"><g data-paper-data="{&quot;origPos&quot;:null}" fill="none" stroke-width="1" font-family="sans-serif" font-weight="normal" font-size="12" text-anchor="start"/><g data-paper-data="{&quot;origPos&quot;:null}" fill="#4b4b4b" stroke-width="0"><path d="M395.70692,210.38853l0.28753,-2.2545l3.71987,0.47441l-0.28752,2.25449z" data-paper-data="{&quot;origPos&quot;:null}"/><path d="M389.52151,209.48511l0.28753,-2.2545l3.71987,0.47441l-0.28753,2.2545z" data-paper-data="{&quot;origPos&quot;:null}"/></g></g><g data-paper-data="{&quot;origPos&quot;:null,&quot;index&quot;:null}" fill="#4b4b4b" stroke-width="0"><g data-paper-data="{&quot;origPos&quot;:null}"><path d="M414.78597,212.59269l0.28753,-2.25449l3.71988,0.47441l-0.28753,2.25449z" data-paper-data="{&quot;origPos&quot;:null}"/><path d="M421.0001,213.27065l0.28753,-2.25448l3.71988,0.47441l-0.28753,2.25449z" data-paper-data="{&quot;origPos&quot;:null}"/></g><g data-paper-data="{&quot;origPos&quot;:null}"><path d="M402.37193,211.12402l0.28753,-2.2545l3.71988,0.47441l-0.28753,2.25449z" data-paper-data="{&quot;origPos&quot;:null}"/><path d="M408.5861,211.80195l0.28753,-2.2545l3.71988,0.47441l-0.28753,2.2545z" data-paper-data="{&quot;origPos&quot;:null}"/></g></g></g></g><path d="M225.01836,150.64609l1.56455,-4.04972c0,0 4.97221,-2.53883 8.49396,-2.24091c4.02604,0.34059 33.75099,4.1568 33.75099,4.1568c0,0 0.41939,1.94442 0.21289,3.14515c-0.26605,1.54698 -2.75282,4.31927 -2.75282,4.31927z" fill="#242424" stroke-width="0"/><path d="M250.18627,150.01505l0.39856,-3.125l17.85715,2.27746l-0.39856,3.125z" fill="#313131" stroke-width="0"/><path d="M246.6747,151.51345l0.08251,-0.647c0,0 1.19226,-0.90762 2.20712,-0.77817c0.96369,0.12292 3.07402,0.87083 5.48554,1.3431c4.59393,0.89963 10.16426,1.71254 10.16426,1.71254l-0.08251,0.647c0,0 -5.38439,-0.68877 -9.91378,-1.5796c-2.47143,-0.48608 -4.64942,-1.33744 -5.64911,-1.46494c-1.05077,-0.13402 -2.29399,0.7671 -2.29399,0.7671z" fill="#616161" stroke-width="0"/><path d="M275.57747,139.36144l12.20838,4.60815l29.93104,9.16842c0,0 0.69888,0.31513 -7.24249,-1.43183c-2.70153,-0.59429 -13.05081,-3.53627 -21.95879,-6.5906c-2.41038,-0.82646 -15.20201,-5.92655 -15.20201,-5.92655z" fill="#df8cb7" stroke-width="0"/><path d="M95.14352,122.73699l0.75061,-5.88544c0,0 5.9455,-1.00888 9.71873,-0.52764c3.08903,0.39397 11.05982,4.94486 11.05982,4.94486l-1.68615,12.15509z" fill="#626061" stroke-width="0"/><path d="M209.00724,147.32549l3.44875,2.96614l12.31613,0.23688l50.33722,6.41991l-0.138,1.08228c0,0 -37.74197,-4.95994 -49.58295,-6.20576c-3.25092,-0.34204 -12.96359,-0.85406 -12.96359,-0.85406z" fill="#ffa6d4" stroke-width="0"/><path d="M84.19629,185.78896l0.90705,-7.11199l25.3434,-13.53269l-3.32364,13.35573l-15.0418,8.29461z" fill="#3f3d3e" stroke-width="0"/><path d="M83.21946,180.56323c0,0 2.6723,-19.47021 4.68391,-28.87459c2.27044,-10.61432 8.25639,-31.62195 8.25639,-31.62195c0,0 8.56932,0.90202 11.91437,2.98779c2.86291,1.78511 6.93563,8.76584 6.93563,8.76584l-4.2447,33.28198c0,0 -13.49451,12.08804 -16.80074,13.94378c-5.08555,2.85447 -10.74484,1.51717 -10.74484,1.51717z" fill="#555354" stroke-width="0"/><path d="M94.66933,130.56092c0,0 -0.7696,-6.1396 1.62116,-8.55376c2.39077,-2.41416 6.83406,-2.87263 9.37375,-2.54873c2.02599,0.25839 6.20875,0.87121 8.49499,5.65743c2.28627,4.78618 -0.46178,11.15981 -0.46178,11.15981c0,0 -4.933,-11.1171 -7.415,-11.86253c-3.50236,-1.05186 -11.61316,6.1478 -11.61316,6.1478z" fill="#6f6b6c" stroke-width="0"/><path d="M81.16175,185.21208c0,0 4.998,-25.63621 6.4458,-36.98805c1.50777,-11.82206 3.9163,-32.4011 3.9163,-32.4011c0,0 1.22826,-0.49151 2.26072,-0.35983c0.94407,0.12039 2.41699,0.95644 2.41699,0.95644c0,0 -2.636,18.97424 -3.98902,29.58311c-1.57201,12.32563 -7.64865,39.64332 -7.64865,39.64332z" fill="#333232" stroke-width="0"/><path d="M80.6783,185.59766l2.94616,-14.45164c0,0 0.93425,1.01525 1.53378,1.05274c0.75699,0.0473 2.60238,-1.16649 2.60238,-1.16649l-3.14508,15.06751z" fill="#2e2d2d" stroke-width="0"/><path d="M110.82078,152.88844c-1.03295,8.09902 -6.22059,16.17555 -10.92114,18.52716c-3.90393,1.95311 -12.19729,7.70804 -11.16436,-0.39097c0.21913,-1.71818 3.74966,-13.24347 4.76644,-20.20057c1.34466,-9.20064 0.3423,-14.34973 1.65065,-17.03742c2.36578,-4.85976 8.03182,-5.6286 10.22852,-5.34843c4.33018,0.55226 6.47282,16.35122 5.4399,24.45024z" fill="#585758" stroke-width="0"/><path d="M143.22397,171.21813l-0.36759,-1.80173c0,0 8.04677,-0.33521 14.07766,-0.05412c8.4901,0.39571 32.05803,2.20446 32.05803,2.20446l1.6194,1.49811c0,0 -25.11387,-1.56945 -33.85472,-1.91007c-2.56707,-0.10003 -13.53278,0.06338 -13.53278,0.06338z" fill="#585657" stroke-width="0"/><path d="M135.7109,183.56737l6.88021,-12.92481l7.30438,-0.02678c0,0 -2.26984,4.05894 -2.27975,4.81895c-0.04749,3.6315 -0.10679,27.78511 -0.10679,27.78511c0,0 -1.52131,0.24996 -2.46384,-1.76098c-1.6912,-3.60825 -2.64383,-10.64735 -4.11584,-12.95477c-1.27181,-1.99361 -5.21832,-4.93671 -5.21832,-4.93671z" fill="#5a5759" stroke-width="0"/><path d="M152.03677,154.59595l4.29949,-10.87677l2.32865,0.18497l-5.42981,10.95663z" fill="#a5a0a2" stroke-width="0"/><path d="M158.90898,154.38017l0.17746,-1.39148l26.28332,3.35212l-0.17745,1.39148z" fill="#494748" stroke-width="0"/><path d="M159.20492,151.42255l0.17746,-1.39148l26.28332,3.35212l-0.17746,1.39148z" fill="#494748" stroke-width="0"/><path d="M137.09279,171.19165l2.54776,-19.97652l13.36555,-7.98954l4.84508,0.30364l-21.56143,40.41044l-5.31269,-2.69717z" fill="#dbd5d8" stroke-width="0"/><path d="M109.29983,179.65792l1.33506,-11.71606l26.54021,2.58899c0,0 0.00656,2.55914 -0.22362,3.33475c-0.57372,1.93343 -3.44259,8.56155 -3.44259,8.56155z" fill="#ccc6c9" stroke-width="0"/><path d="M114.50026,168.83853l0.03995,-0.31326l22.74354,2.02518l-2.73431,0.84516c0,0 -4.31046,-0.36203 -6.99339,-0.73621c-3.67364,-0.51233 -13.0558,-1.82083 -13.0558,-1.82083z" fill="#d8d1d5" stroke-width="0"/><path d="M118.46022,165.5765l2.15073,-16.8634l15.99544,2.04003l-2.15073,16.8634z" fill="#a39999" stroke-width="0"/><path d="M109.00404,179.79132l1.43708,-11.26804c0,0 7.95787,7.45333 11.91398,10.31744c3.95613,2.86411 10.44052,3.40885 10.44052,3.40885z" fill="#b4afb1" stroke-width="0"/><path d="M141.61244,190.04171c0,0 2.8735,1.4154 3.979,1.41151c0.67911,-0.00243 2.02314,-1.4328 2.02314,-1.4328l0.49732,9.21013l-0.53074,4.16141c0,0 -1.96682,0.06312 -2.90889,-2.66053c-0.77728,-2.24723 -3.05986,-10.68965 -3.05986,-10.68965z" fill="#504e4f" stroke-width="0"/><path d="M135.94255,184.15776l19.62643,-39.57859l1.70363,0.42408l-19.5766,39.99853z" fill="#858183" stroke-width="0"/><path d="M124.39778,141.59921l1.71139,-1.44559c0,0 27.27678,2.82969 39.58735,4.39976c10.68475,1.36271 31.64361,4.39161 31.64361,4.39161l0.27962,1.99278c0,0 -21.03685,-3.39469 -32.29923,-4.83105c-12.8602,-1.64015 -40.92274,-4.50749 -40.92274,-4.50749z" fill="#918b8e" stroke-width="0"/><path d="M125.56353,140.50719l2.25323,-1.66976c0,0 25.72497,2.92507 38.03552,4.49512c10.68474,1.36271 31.64361,4.39161 31.64361,4.39161l0.27961,1.99278c0,0 -21.03684,-3.39469 -32.29923,-4.83106c-12.8602,-1.64015 -39.91273,-4.3787 -39.91273,-4.3787z" fill="#a59fa2" stroke-width="0"/><path d="M187.02339,169.30005l-1.19111,-5.88057c0,0 0.36238,-1.16858 0.70695,-1.23835c0.30358,-0.0615 1.25319,0.8413 1.25319,0.8413l1.1911,5.88057c0,0 -0.38497,0.83565 -0.68925,0.89727c-0.3442,0.06972 -1.27094,-0.50023 -1.27094,-0.50023z" fill="#494242" stroke-width="0"/><path d="M146.7373,166.83216l4.71446,-8.96127l3.8545,0.49159l-4.71446,8.96127z" fill="#9c989a" stroke-width="0"/><path d="M158.47659,150.40923l1.95831,-0.72602l24.24019,3.10974l1.88166,1.19759z" fill="#757274" stroke-width="0"/><path d="M158.21449,153.20985l1.95831,-0.72603l24.24018,3.10975l1.88167,1.19758z" fill="#757274" stroke-width="0"/><path d="M106.72716,178.51001l9.05093,-57.47448l1.8314,0.81899l-8.56055,57.9414z" fill="#686666" stroke-width="0"/><path d="M106.53091,178.75749l2.70589,-16.04231l1.78959,4.07762l-2.11676,13.1479z" fill="#535252" stroke-width="0"/><path d="M139.92368,159.95632c0,0 2.40371,-2.0579 2.52348,-2.99709c0.11756,-0.92164 -1.81138,-2.58639 -1.81138,-2.58639c0,0 2.8932,1.04412 2.57624,2.70568c-0.24144,1.26559 -1.56051,3.30411 -1.78665,4.38657c-0.64302,3.07783 -2.25564,10.27904 -2.25564,10.27904z" fill="#c4bec1" stroke-width="0"/><path d="M147.77982,159.03115l3.18612,-9.87168l3.07924,-3.99684l-3.84295,9.14551z" fill="#aca7a9" stroke-width="0"/></g></g><g stroke-width="0"><path d="M268.41091,146.36023l2.95562,-2.97921c0,0 1.97463,-1.19611 2.75819,-0.81897c0.89336,0.43 2.31584,3.26127 2.31584,3.26127l-1.05401,3.98059c0,0 -4.24589,-0.54913 -5.48513,-0.84153c-0.55867,-0.13183 -1.49047,-2.60212 -1.49047,-2.60212z" fill="#c0c0c0"/><path d="M224.61593,150.50402c0,0 0.18931,-2.87919 1.384,-3.8749c1.49721,-1.24784 7.80817,-2.67307 7.80817,-2.67307l-1.30418,4.60913l-0.36956,2.89776z" fill="#838383"/><path d="M224.45456,150.40847l8.9861,-6.39583l37.26052,4.75211l-0.94648,7.42118z" fill="#999999"/><path d="M225.52857,149.88371l6.84918,-5.01491l33.50095,4.27262l-0.73895,5.79419c0,0 -4.05473,-0.51714 -9.2707,-1.18233c-3.39121,-0.43252 -7.1389,-1.98109 -10.71657,-2.43738c-3.83796,-0.48949 -7.46005,0.11919 -9.61577,-0.15575c-4.21899,-0.53808 -10.00813,-1.27642 -10.00813,-1.27642z" fill="#d952b3"/><path d="M228.99301,150.32333l9.04848,-4.79708l12.36395,1.57687c0,0 -7.55812,0.95886 -10.02487,1.56621c-2.61875,0.64476 -6.07213,2.33192 -6.07213,2.33192z" fill="#a5899d"/><path d="M236.93222,151.22224c0,0 5.16726,-0.32099 7.60463,-0.0101c3.11433,0.39719 9.55325,2.19839 9.55325,2.19839l-9.53407,-1.55386z" fill="#adadad"/><path d="M224.56056,150.40367l8.11502,-5.77137l34.68571,4.42376l-0.08711,0.68305c0,0 -30.03353,-3.83039 -33.94841,-4.3297c-0.81885,-0.10442 -8.76518,4.9943 -8.76518,4.9943z" fill="#8a8a8a"/><path d="M270.55997,162.55665l1.23418,-9.67695l1.55666,-7.06169c0,0 1.11818,0.61632 1.59636,1.24536c0.47817,0.62905 0.71587,1.79631 0.71587,1.79631l-3.10621,13.95166z" fill="#9e9e9e"/><path d="M265.68742,157.67019c0,0 -0.63561,-2.22319 -0.57017,-3.81686c0.08811,-2.14604 1.63492,-7.51165 1.63492,-7.51165l1.96699,-0.07712c0,0 0.65259,0.88142 1.14552,0.79394c0.67958,-0.12063 2.55492,-1.4508 2.55492,-1.4508l-2.12015,12.65072z" fill="#9c9c9c"/><path d="M266.02514,159.55875c-0.63638,-1.19454 -0.22416,-2.52622 -0.22416,-2.52622l5.74943,-6.52542c0,0 0.89108,4.02889 0.77513,4.93799c-0.32963,2.5846 0.06788,7.42346 0.06788,7.42346c0,0 -2.96675,-0.29396 -3.94176,-0.86049c-1.16942,-0.67947 -1.79009,-1.25478 -2.42649,-2.44934z" fill="#888888"/><path d="M267.88952,159.01601c-0.72732,-2.1087 -1.16509,-6.66374 1.17853,-10.46456c2.34363,-3.80083 4.46894,-1.38132 4.46894,-1.38132c0,0 0.43885,4.51477 0.14625,6.80905c-0.26653,2.0899 -1.83097,6.40075 -1.83097,6.40075c0,0 -3.2354,0.74477 -3.96271,-1.36394z" fill="#b4b4b4"/><path d="M272.99143,151.90906c-0.17851,1.39974 -5.25721,0.83004 -5.07871,-0.56967c0.17851,-1.39974 3.89614,-6.37156 4.70203,-6.26875c0.31211,0.0398 0.93791,0.2223 0.99863,1.29932c0.09603,1.7039 -0.51259,4.68148 -0.62198,5.53911z" fill="#bbbbbb"/></g><g stroke-width="0"><path d="M208.91358,147.2983c0,0 -5.18739,-5.61875 -4.9504,-7.4771c0.19349,-1.51735 6.19682,-0.87582 6.19682,-0.87582l7.47557,1.02583l-5.35548,10.18325z" fill="#f399c8"/><path d="M178.42504,145.06482c0,0 -0.69689,-2.20371 -0.30599,-3.23527c0.4314,-1.13839 2.9312,-4.45369 2.9312,-4.45369l22.87653,2.73045l7.96191,9.70844z" fill="#ee96c3"/></g></g><g stroke-width="0"><g><path d="M275.64164,137.57855l0.78206,-6.13213l47.43396,6.04961l-0.78206,6.13213z" fill="#61585b"/><path d="M275.89004,134.34041l0.4188,-3.28376l47.61432,6.07264l-0.4188,3.28375c0,0 -8.57144,-1.09319 -17.37649,-2.21615c-2.75297,-0.3511 -6.81527,0.66033 -9.35909,0.33587c-3.02488,-0.38579 -6.07707,-2.30459 -8.01739,-2.55205c-5.81819,-0.74204 -12.86134,-1.64032 -12.86134,-1.64032z" fill="#494344"/><path d="M338.05625,135.61021l-6.86309,-19.96161l20.75115,2.64657l13.18242,18.59143c0,0 -5.83651,0.62803 -9.07523,0.47534c-4.99766,-0.23563 -17.99527,-1.75169 -17.99527,-1.75169z" fill="#5e555b"/><path d="M337.62375,139.01795l0.70069,-5.49398c0,0 12.38349,0.11447 17.33496,-0.03998c3.9296,-0.12256 6.78638,-0.34499 6.78638,-0.34499l5.01381,7.63444c0,0 -5.4915,0.90869 -9.66221,0.82431c-5.65112,-0.11437 -20.17362,-2.57974 -20.17362,-2.57974z" fill="url(#color-5)"/><path d="M329.49184,115.5917l0.50557,-3.96407l18.99764,2.42292l3.10158,4.42411z" fill="url(#color-6)"/><path d="M337.04151,138.96886l0.15933,-1.24912c0,0 15.49395,1.89904 20.85837,2.41431c4.01125,0.3853 8.5957,-0.61963 8.5957,-0.61963l0.73692,1.248l-8.41684,1.00374z" fill="#312c30"/><g><path d="M238.1747,115.67312l0.89608,-8.81582l93.17063,11.88275l6.15184,12.1578z" fill="#8a6672"/><path d="M253.53283,125.98465c0,0 -3.03508,-4.02208 -5.63233,-5.82674c-2.59724,-1.8047 -9.63177,-2.4625 -9.63177,-2.4625l0.37533,-2.05612c0,0 12.18929,1.83323 19.15009,2.817c16.62839,2.35 80.18899,11.22219 80.18899,11.22219l2.76326,6.97263z" fill="#755761"/><path d="M256.0433,128.81592l-2.67321,-2.95373l86.9445,10.59537l0.806,3.20887z" fill="#694e57"/><path d="M238.85722,107.2294l0.57298,-4.4926l90.16249,10.81424l3.10249,6.10277c0,0 2.3107,3.65977 -2.92987,2.9659c-1.64976,-0.21843 -10.27119,-4.71376 -11.92508,-4.93274c-15.92791,-2.1089 -78.983,-10.45757 -78.983,-10.45757z" fill="#916b77"/><path d="M239.67016,102.76752l0.2015,-2.51928l89.20393,11.237l0.73415,2.50529z" fill="#9e7582"/><path d="M313.11383,112.82377c-7.92103,-1.66342 -71.93466,-10.86825 -71.93466,-10.86825l87.14815,11.11466l3.8208,7.98873c0,0 -11.11324,-6.57176 -19.03429,-8.23516z" fill="#b38f9a"/></g><path d="M286.66745,132.71878l1.16062,-9.10005l20.04982,2.55709l-1.16062,9.10006z" fill="#3a3336"/><path d="M287.74041,123.61172l0.90331,-1.41964l18.38946,2.34534l0.78462,1.63486z" fill="#4b4246"/><path d="M286.86966,132.24118l1.03456,-8.11189c0,0 0.38442,5.35753 2.88105,6.79119c2.49664,1.43367 15.57392,3.80634 15.57392,3.80634z" fill="#332c30"/><path d="M330.45618,117.95652l-3.12941,-6.44773c0,0 1.09907,-0.53191 1.69487,-0.45591c0.66607,0.08496 2.11425,0.94171 2.11425,0.94171l3.12941,6.44773z" fill="#757575"/><path d="M332.85332,123.0352l-4.49946,-9.25587l3.80913,0.48581l4.49946,9.25586z" fill="#5a5a5a"/><path d="M336.24824,129.96938l-4.49946,-9.25586l3.80912,0.48581l4.49946,9.25587z" fill="#505050"/><path d="M339.75693,137.15071c-0.7685,-1.58087 -3.76704,-7.74922 -3.76704,-7.74922l3.80912,0.48582l5.25431,11.08027c0,0 -2.10703,0.27111 -3.04702,0.13628c-0.73323,-0.10517 -1.9105,-3.25612 -2.24936,-3.95319z" fill="#3b3b3b"/><path d="M236.31629,118.0553l2.36259,-18.5247l3.15541,0.40243l-2.36259,18.5247z" fill="#443e42"/><path d="M217.38952,117.25334l0.06976,-5.96714l20.06604,2.55915l-0.74997,5.88037z" fill="url(#color-7)"/><path d="M217.3795,111.91176l1.37228,-10.75983l20.06604,2.55915l-1.37229,10.75984z" fill="#5e555b"/><path d="M218.73581,101.27721l1.32015,-4.02757l19.27245,2.45795l-0.52657,4.12879z" fill="url(#color-8)"/><path d="M288.97316,106.23801l0.77594,-6.08403l14.76658,2.95858l3.98908,5.25802z" fill="#5e555b"/><path d="M308.45978,108.7233l-3.95535,-5.52256c0,0 2.90459,1.06666 4.98862,2.3388c2.08405,1.27214 5.40345,4.00466 5.40345,4.00466z" fill="#776b73"/><path d="M285.82901,107.00193l3.33174,-0.8296l25.42806,2.97421l3.42398,1.96005z" fill="#6d6269"/></g><g><path d="M288.60465,128.96358c0.15799,-1.23881 0.81056,-2.32164 1.32631,-3.29378c0.71864,-1.35464 1.46658,-2.45667 2.857,-3.13238c0.84931,-0.41274 2.02669,-0.65513 3.03811,-0.76845c0.66896,-0.07492 1.71069,-0.3454 2.40807,-0.25644c1.58089,0.20161 1.91012,0.32602 2.98786,0.9635c0.64923,0.38403 2.21867,1.03692 2.66433,1.77135c0.3772,0.62158 0.72915,1.6227 0.98214,2.3401c0.43229,1.226 0.99243,3.17706 0.81675,4.55454c-0.07425,0.58212 -0.73156,1.84757 -0.84606,2.35263c-0.36343,1.60335 -0.42864,2.10877 -1.77197,3.04987c-0.81648,0.57198 -2.38092,0.92474 -3.40866,1.20695c-1.06437,0.29229 -2.43951,0.98996 -3.60278,0.84163c-0.78517,-0.10013 -2.13407,-0.81149 -2.87747,-1.04361c-1.61282,-0.50358 -2.47567,-0.78946 -3.35264,-2.05073c-0.75205,-1.08156 -0.80838,-2.70003 -0.99794,-4.09281c-0.09956,-0.7317 -0.32089,-1.67494 -0.22304,-2.44235z" fill="#3a3a3a"/><path d="M289.3448,128.9384c0.14459,-1.13363 0.74176,-2.12452 1.21369,-3.01412c0.65763,-1.23962 1.34202,-2.24808 2.61442,-2.86644c0.77718,-0.37771 1.85464,-0.5995 2.78015,-0.7032c0.61217,-0.06858 1.56547,-0.31605 2.20358,-0.23467c1.44668,0.18451 1.74795,0.29832 2.7342,0.88169c0.59409,0.3514 2.03029,0.94889 2.43814,1.62093c0.34517,0.56885 0.66726,1.48498 0.89874,2.14142c0.3956,1.12192 0.90815,2.90732 0.74741,4.16782c-0.06794,0.53268 -0.66946,1.69069 -0.77422,2.15287c-0.33258,1.46722 -0.39225,1.92973 -1.62153,2.79091c-0.74717,0.52342 -2.17878,0.84618 -3.11924,1.10446c-0.974,0.26746 -2.23238,0.90594 -3.29689,0.77018c-0.71848,-0.09162 -1.95286,-0.74259 -2.63316,-0.95497c-1.47589,-0.46081 -2.26546,-0.72243 -3.06801,-1.87661c-0.68818,-0.98975 -0.73973,-2.47079 -0.91319,-3.74532c-0.09111,-0.66957 -0.29364,-1.53273 -0.2041,-2.23496z" fill="#5a5a5a"/><path d="M302.01183,125.98786c-1.72669,-2.62533 -6.75387,-3.46869 -6.75387,-3.46869c0,0 1.99497,-0.28995 3.9683,-0.03128c1.59843,0.2095 3.11204,0.76997 4.09768,2.20721c0.98643,1.43841 1.18932,2.96101 1.29727,4.38157c0.21168,2.78514 -0.52539,5.10333 -0.52539,5.10333c0,0 -0.35733,-5.56679 -2.08403,-8.19209z" fill="#6d6d6d"/><path d="M296.09277,130.29247c0.07281,-0.57109 0.59482,-0.975 1.16592,-0.90218c0.57109,0.07281 0.975,0.59482 0.90218,1.16593c-0.07281,0.57109 -0.59482,0.975 -1.16593,0.90217c-0.57109,-0.07281 -0.975,-0.59482 -0.90217,-1.16593z" fill="#272727"/><path d="M295.99708,130.4182c0.06681,-0.52381 0.54557,-0.89426 1.06936,-0.82746c0.52381,0.06681 0.89426,0.54557 0.82746,1.06936c-0.06681,0.52381 -0.54557,0.89426 -1.06935,0.82746c-0.52381,-0.06681 -0.89426,-0.54557 -0.82746,-1.06935z" fill="#131313"/></g></g></g></g></g><path d="M193.94143,228.1804c0.20047,-1.57194 1.36893,-44.39419 2.07223,-45.99322c0.94958,-2.15899 9.19171,0.25376 12.32281,-0.86691c9.58946,-3.43228 19.90395,-6.74104 19.90395,-6.74104c0,0 13.88187,2.35564 18.08433,2.89164c3.14267,0.40083 65.04291,-0.26364 64.47255,10.06879c-0.77361,14.01468 -42.46909,-3.11637 -44.00381,8.91678c-0.38853,3.04624 1.97711,3.54504 1.01779,6.59539c-0.23026,0.7321 -3.21827,5.57186 -3.65285,7.20606c-0.68987,2.59412 2.07245,6.98136 -1.60321,9.63693c-2.93002,2.11688 -1.64829,7.33784 -2.43569,8.46288c-5.42626,7.75275 -13.20689,2.9252 -22.14734,1.78496c-10.60017,-1.3519 -26.49636,0.37422 -35.64802,-2.04031c-3.95042,-1.0423 -8.9663,4.65379 -8.38271,0.07812z" fill="#86c8f5" stroke-width="0"/><g stroke-width="0"><g><path d="M187.64488,244.97816l0.70618,-5.53708c0,0 2.20081,0.46016 3.17044,-0.38766c1.3699,-1.19778 4.47396,-5.98337 4.47396,-5.98337l-0.39534,8.1089c0,0 -3.46005,2.78312 -5.09967,3.4787c-1.18379,0.5022 -2.85555,0.32049 -2.85555,0.32049z" fill="#4d484c"/><g><g><path d="M148.6723,228.56575l4.76912,-4.99889c0,0 16.90683,-6.86501 23.95629,-9.889c5.42268,-2.32614 14.10053,-6.21021 14.10053,-6.21021l-0.71969,26.4682z" fill="#eb59c1"/><path d="M151.53161,217.71617l3.12278,-29.11284c0,0 17.86594,11.11066 24.31772,14.91418c4.68179,2.76007 10.50689,12.84109 10.50689,12.84109l-6.58551,5.35744z" fill="#dd54b6"/><path d="M152.2277,200.68852l4.14206,-30.16332c0,0 10.72492,15.22498 15.22156,16.57036c6.66309,1.9936 19.73775,0.87318 19.73775,0.87318l-3.29615,25.84452z" fill="#ff77d8"/><path d="M156.18036,188.20775l1.77769,-13.93863l33.47459,1.31815l0.17507,17.13876z" fill="#ee51c1"/></g><g><g><path d="M147.3852,217.81078l0.16224,-41.11638l8.33383,1.06289l-0.16224,41.11638z" fill="#a59da1"/><path d="M147.48837,176.87896c0,0 -0.20047,-4.55413 1.74507,-5.59816c1.94557,-1.04407 7.01897,-0.65227 7.01897,-0.65227l-0.41658,7.31508z" fill="#b9b0b5"/><path d="M147.80422,228.5955l-0.35733,-10.80487l8.29401,1.05781l0.35733,10.80487z" fill="#8b8488"/></g><g><path d="M187.68366,219.52606l0.16224,-41.11637l4.50272,0.57426l-0.16223,41.11637z" fill="#a59da1"/><path d="M187.87792,179.4192l0.0067,-6.49252c0,0 2.99722,-0.30366 3.89883,0.97035c0.9016,1.27401 0.51967,5.27324 0.51967,5.27324z" fill="#b9b0b5"/><path d="M188.09025,230.30932l-0.35733,-10.80487l4.47533,0.57075l0.35734,10.80487z" fill="#8b8488"/></g><path d="M147.67077,237.22395c0,0 -2.89689,-3.13443 -3.10355,-4.65745c-0.23005,-1.69534 1.78598,-5.05312 1.78598,-5.05312l47.84032,1.67096c0,0 1.70267,2.56993 1.93275,4.09768c0.32247,2.14134 -4.47509,6.48384 -4.47509,6.48384z" fill="#494547"/><path d="M156.07764,174.56922c0,0 -2.226,-0.85582 -2.58059,-1.47997c-0.3894,-0.68541 1.14605,-2.58906 1.14605,-2.58906c0,0 12.07529,0.51989 17.35077,0.86797c6.15004,0.40576 16.52258,1.54334 16.52258,1.54334c0,0 0.37199,1.28127 0.21175,1.86307c-0.15518,0.56344 -0.75832,1.62549 -0.75832,1.62549z" fill="#c2b8bd"/><path d="M148.17753,236.05797c0,0 -0.86617,-2.96872 -0.89434,-4.6615c-0.02339,-1.40483 0.58513,-3.60285 0.58513,-3.60285l44.99876,1.64937c0,0 1.6132,3.38423 1.40284,5.03356c-0.22596,1.77183 -2.56337,4.06575 -2.56337,4.06575z" fill="#6f696b"/><path d="M158.52336,242.85114l0.70619,-5.53707l29.7571,2.17737l-0.70618,5.53707z" fill="#333032"/><path d="M147.06779,241.51254c-1.01984,-0.78323 -2.50093,-2.44974 -2.50093,-2.44974l-0.0001,-6.8746c0,0 2.16634,2.56708 3.19175,4.07036c0.7258,1.06405 11.53212,0.95092 11.53212,0.95092l-0.70618,5.53707c0,0 -10.49689,-0.45073 -11.5167,-1.23399z" data-paper-data="{&quot;index&quot;:null}" fill="#444043"/><g><path d="M153.49508,189.32927c0,0 -1.96402,-5.03104 -1.76971,-6.76256c0.13455,-1.19879 2.82371,-2.62928 2.82371,-2.62928l35.16287,1.43566c0,0 1.18571,3.30038 1.01199,4.84827c-0.17753,1.58202 -2.066,4.5436 -2.066,4.5436z" fill="#979797"/><path d="M153.68296,188.27853c0,0 -2.05374,-4.49317 -1.89302,-6.02292c0.11127,-1.05916 2.76457,-2.27477 2.76457,-2.27477l35.07842,1.94201c0,0 1.24485,2.94554 1.10121,4.31313c-0.14679,1.39768 -1.97277,3.98462 -1.97277,3.98462z" fill="#a2a2a2"/></g><g><path d="M153.76425,206.03725c0,0 -1.96402,-5.03104 -1.76971,-6.76256c0.13455,-1.19879 2.8237,-2.62929 2.8237,-2.62929l35.16287,1.43567c0,0 1.18571,3.30037 1.012,4.84826c-0.17753,1.58202 -2.066,4.54359 -2.066,4.54359z" fill="#979797"/><path d="M153.9521,204.9865c0,0 -2.05372,-4.49316 -1.89301,-6.02292c0.11126,-1.05915 2.76457,-2.27476 2.76457,-2.27476l35.07842,1.94202c0,0 1.24485,2.94554 1.10121,4.31313c-0.1468,1.39768 -1.97277,3.98461 -1.97277,3.98461z" fill="#a2a2a2"/></g><g><path d="M154.07691,223.25001c0,0 -1.96402,-5.03104 -1.76971,-6.76256c0.13455,-1.19879 2.8237,-2.62928 2.8237,-2.62928l35.16287,1.43566c0,0 1.18571,3.30038 1.01199,4.84827c-0.17753,1.58202 -2.066,4.54359 -2.066,4.54359z" fill="#7a7a7a"/><path d="M154.26476,222.1993c0,0 -2.05374,-4.49317 -1.89302,-6.02293c0.11126,-1.05915 2.76457,-2.27475 2.76457,-2.27475l35.07843,1.94201c0,0 1.24483,2.94554 1.10121,4.31313c-0.1468,1.39768 -1.97278,3.98463 -1.97278,3.98463z" fill="#929292"/></g></g></g></g><path d="M147.49586,221.81079c0,0 -0.16527,-1.75142 -0.17533,-4.08205c-0.02945,-6.84246 -0.0186,-41.00159 -0.0186,-41.00159l2.59813,4.6692l-0.3541,29.61792z" fill="#777275"/></g></g></g></g></svg>