<svg xmlns="http://www.w3.org/2000/svg" xmlns:xlink="http://www.w3.org/1999/xlink" version="1.1" width="44.5245361313416" height="53.04843520971074" viewBox="-1.7088181965149158 -1.7102181904114002 44.5245361313416 53.04843520971074">
  <!-- Exported by Scratch - http://scratch.mit.edu/ -->
  <path id="ID0.5000193635933101" fill="none" stroke="#000000" stroke-width="2.345175633874431" stroke-linecap="round" d="M 7.0048 1.5961 L 39.5094 1.9911 L 35.9248 47.8626 L 1.5975 48.0319 L 7.0048 1.5961 Z "/>
  <path id="ID0.7492092661559582" fill="none" stroke="#FFFFFF" stroke-width="6.612636564691209" d="M 23.1974 6.2031 C 26.5485 6.6129 29.3302 9.0671 31.1171 12.6997 C 32.904 16.3333 33.6973 21.1455 33.0701 26.2734 C 32.443 31.4014 30.5135 35.8806 27.9036 38.9765 C 25.2939 42.0714 22.0028 43.7829 18.6517 43.3731 C 15.3006 42.9633 12.519 40.5091 10.732 36.8765 C 8.9451 33.2429 8.1519 28.4307 8.779 23.3028 C 9.4061 18.1748 11.3356 13.6956 13.9455 10.5997 C 16.5552 7.5048 19.8463 5.7933 23.1974 6.2031 Z "/>
</svg>