<svg version="1.1" xmlns="http://www.w3.org/2000/svg" xmlns:xlink="http://www.w3.org/1999/xlink" width="464.58677" height="161.50057" viewBox="0,0,464.58677,161.50057"><defs><linearGradient x1="499.19599" y1="190.40533" x2="500.01344" y2="195.14699" gradientUnits="userSpaceOnUse" id="color-1"><stop offset="0" stop-color="#1f1d20"/><stop offset="1" stop-color="#202022"/></linearGradient><linearGradient x1="498.8044" y1="185.54615" x2="499.74491" y2="191.00192" gradientUnits="userSpaceOnUse" id="color-2"><stop offset="0" stop-color="#302d31"/><stop offset="1" stop-color="#1f1e20"/></linearGradient><linearGradient x1="177.05268" y1="289.79204" x2="177.62858" y2="293.13284" gradientUnits="userSpaceOnUse" id="color-3"><stop offset="0" stop-color="#585758"/><stop offset="1" stop-color="#575758"/></linearGradient><linearGradient x1="165.84224" y1="301.95174" x2="166.29437" y2="304.57444" gradientUnits="userSpaceOnUse" id="color-4"><stop offset="0" stop-color="#363536"/><stop offset="1" stop-color="#353536"/></linearGradient><linearGradient x1="291.35924" y1="186.14345" x2="292.30016" y2="191.60143" gradientUnits="userSpaceOnUse" id="color-5"><stop offset="0" stop-color="#5e555b"/><stop offset="1" stop-color="#2b2629"/></linearGradient><linearGradient x1="278.23253" y1="167.43459" x2="278.91141" y2="171.37266" gradientUnits="userSpaceOnUse" id="color-6"><stop offset="0" stop-color="#72676e"/><stop offset="1" stop-color="#5e555b"/></linearGradient><linearGradient x1="169.27889" y1="200.32087" x2="170.286" y2="206.16274" gradientUnits="userSpaceOnUse" id="color-7"><stop offset="0" stop-color="#5e555b"/><stop offset="1" stop-color="#4d454a"/></linearGradient><linearGradient x1="166.8577" y1="186.27578" x2="167.56482" y2="190.37754" gradientUnits="userSpaceOnUse" id="color-8"><stop offset="0" stop-color="#74686f"/><stop offset="1" stop-color="#5e555b"/></linearGradient></defs><g transform="translate(-40.24085,-166.11672)"><g data-paper-data="{&quot;isPaintingLayer&quot;:true}" fill-rule="nonzero" stroke="none" stroke-linecap="butt" stroke-linejoin="miter" stroke-miterlimit="10" stroke-dasharray="" stroke-dashoffset="0" style="mix-blend-mode: normal"><g><g stroke-width="0"><path d="M235.00124,264.58961l-12.6884,-13.38426l25.1034,-4.92642c0,0 -0.09226,5.93072 0.16915,8.62395c0.25291,2.60528 1.37476,7.28037 1.37476,7.28037z" fill="#7f7d7e"/><path d="M235.13161,264.76689l-4.53924,-4.9071c0,0 2.92821,3.10272 6.22176,3.15873c2.37165,0.04032 4.17774,-0.58555 6.87474,-0.72494c2.69697,-0.13938 5.20782,0.10039 5.20782,0.10039z" fill="#6c6a6b"/></g><g><g><g><path d="M497.06581,195.65518l-2.84648,-4.39187c0,0 6.18603,0.6159 8.89729,1.05451c2.7113,0.43865 1.38822,1.8196 1.38822,1.8196z" fill="url(#color-1)" stroke-width="0"/><path d="M502.37078,185.13395c0,0 1.85358,2.04262 -0.55434,3.36376c-2.4079,1.32116 -5.061,3.01959 -5.061,3.01959l-1.8971,-5.29083z" data-paper-data="{&quot;index&quot;:null}" fill="url(#color-2)" stroke-width="0"/><path d="M487.58699,197.28452l-0.35649,-2.06789l14.55784,-2.50962c0,0 1.37428,0.56911 1.91722,0.8472c0.48806,0.25 -0.56519,1.0491 -0.56519,1.0491z" fill="#444444" stroke-width="NaN"/><path d="M487.28809,195.35234l-1.4713,-1.52614l12.43228,-2.1432l3.62365,1.04162c0,0 -4.11613,0.95111 -6.38449,1.35977c-2.55824,0.46088 -8.20014,1.26789 -8.20014,1.26789z" fill="#535353" stroke-width="0"/><path d="M485.72946,193.97994l-0.42877,-0.57552l11.30702,-1.94925l1.75029,0.23173z" fill="#363636" stroke-width="0"/><path d="M487.58699,197.28452l-0.19339,-1.12182c0,0 6.43686,-0.64935 9.27475,-1.13859c2.40489,-0.41454 6.66971,-1.6101 6.66971,-1.6101c0,0 0.93007,0.30871 1.2083,0.46664c0.2347,0.13321 -0.16467,0.50862 -0.16467,0.50862c0,0 -4.59525,1.20263 -6.87536,1.59567c-3.07618,0.5303 -9.91946,1.29954 -9.91946,1.29954z" fill="#3a3a3a" stroke-width="NaN"/><path d="M485.62006,193.36794l-0.69557,-0.77684l13.44334,-2.31748l-1.63923,1.21373z" fill="#242424" stroke-width="0"/><path d="M484.16033,192.91486l-0.281,-1.63026c0,0 7.94068,-1.57814 10.89287,-2.08706c2.01135,-0.34674 5.10763,-0.67127 5.10763,-0.67127l-1.53426,1.77581z" fill="#3a3a3a" stroke-width="0"/><path d="M483.75881,191.3485l-0.34699,-2.01285c0,0 7.48602,-1.62525 10.7521,-2.18833c2.82629,-0.48723 7.71656,-0.99551 7.71656,-0.99551l-2.03603,2.42367c0,0 -3.61578,0.53963 -5.82761,0.92097c-2.94,0.50684 -10.25805,1.85206 -10.25805,1.85206z" fill="#444444" stroke-width="0"/><path d="M483.38375,189.42681l-0.14455,-0.83869c0,0 7.73837,-1.45954 11.28333,-2.07066c2.46838,-0.42553 7.95137,-1.24523 7.95137,-1.24523l-0.70787,0.98568c0,0 -5.02955,0.5741 -7.95168,1.07783c-3.21943,0.55499 -10.43053,2.09106 -10.43053,2.09106z" fill="#535353" stroke-width="0"/><path d="M483.12599,188.69402l-0.05784,-0.3355c0,0 7.47857,-1.80377 10.88865,-2.3916c2.94829,-0.50825 8.38852,-0.93158 8.38852,-0.93158l0.09486,0.32911c0,0 -5.94956,0.85826 -9.1474,1.40951c-3.23966,0.55849 -10.16675,1.92005 -10.16675,1.92005z" fill="#4e4e4e" stroke-width="0"/></g><g stroke-width="0"><g><g><g><path d="M481.73539,197.79807l-6.75149,-12.19389l0.25255,-1.79026c0,0 3.97286,2.59196 5.30494,4.88943c0.72317,1.24729 2.62743,8.84765 2.62743,8.84765z" fill="#383638"/><path d="M482.65384,196.93818c0,0 -0.04604,-0.61073 -1.08256,-2.92314c-1.13035,-2.52175 -3.12049,-5.86941 -3.69034,-6.86095c-1.27923,-2.22575 -2.04532,-2.22611 -2.04532,-2.22611l4.6314,-1.38883l7.20374,12.53417z" fill="#555355"/><path d="M475.91316,185.00121l-0.78342,-1.11956c0,0 1.85491,-1.13161 2.80256,-1.29494c0.88798,-0.15308 2.1303,0.37078 2.1303,0.37078l0.79573,1.1912z" fill="#686668"/></g><path d="M476.14514,198.76177l-6.75149,-12.19388l-0.07006,-1.71424c0,0 4.29549,2.51592 5.62749,4.81336c0.72318,1.24728 2.62744,8.84765 2.62744,8.84765z" fill="#383638"/><path d="M477.06354,197.90185c0,0 -0.04604,-0.61074 -1.08256,-2.92314c-1.13035,-2.52175 -3.12049,-5.86941 -3.69034,-6.86095c-1.27923,-2.22575 -2.04532,-2.22611 -2.04532,-2.22611l3.80736,-1.75413c0,0 1.22427,1.06167 1.61419,1.74007c1.11089,1.93286 6.41364,11.15935 6.41364,11.15935z" fill="#555355"/><path d="M470.32287,185.96484l-0.99842,-1.0825c0,0 2.06994,-1.16862 3.0176,-1.332c0.88798,-0.15308 1.84362,0.42019 1.84362,0.42019l0.91897,1.17z" fill="#686668"/><path d="M483.29147,195.81982c-0.13923,-0.80761 0.40264,-1.57515 1.21021,-1.71436c0.80762,-0.13924 1.57515,0.40264 1.71436,1.21021c0.13923,0.80761 -0.40264,1.57515 -1.2102,1.71436c-0.80762,0.13924 -1.57515,-0.40264 -1.71436,-1.21021z" fill="#312f31"/><path d="M483.43992,192.82176l-2.91259,-5.12623l1.5439,-0.41159l2.92358,5.18984z" fill="#444144"/></g><path d="M436.54063,200.54948l-5.5487,-10.02662l29.64782,-3.91715l1.17512,9.58677z" fill="#444444"/><path d="M448.33257,194.54345c0,0 0.53806,-0.62239 1.06216,-1.83396c0.47919,-1.10772 0.93312,-2.78717 1.23339,-3.3095c0.67117,-1.84735 3.09448,-1.79139 3.09448,-1.79139l-0.8544,0.80998l-3.40935,5.93075z" fill="#292929"/><path d="M452.87997,204.44425l-8.28349,-9.70524c0,0 3.53814,-0.07083 5.03879,-1.39403c1.16611,-1.0283 0.62617,-3.606 2.13293,-4.15082c4.32285,-1.56299 16.93656,-4.17774 16.93656,-4.17774c0,0 4.40687,6.49067 5.81108,9.17822c0.9694,1.85543 2.12787,6.15308 2.12787,6.15308z" fill="#4a464a"/><path d="M454.73005,190.82339c-4.60255,0.14801 -3.4144,-1.44088 -3.4144,-1.44088c0,0 0.55996,-1.41797 2.37532,-1.87923c4.45482,-1.13191 13.07028,-2.03175 14.76311,-2.34957c0.79834,-0.14992 0.4597,0.62682 0.4597,0.62682c0,0 -1.06239,2.6043 -2.5473,3.11807c-1.48499,0.51379 -7.03389,1.77682 -11.63648,1.92483z" fill="#5e595e"/></g><g><path d="M442.36466,212.92929l-8.13324,-16.79797l18.68158,-2.92996l5.46503,3.45007l5.9938,-1.13327l5.20435,12.72011z" fill="#4d4846"/><path d="M447.05282,212.51391l18.76051,-12.76416l21.95601,-4.03098c0,0 2.00353,3.89922 2.37453,5.20978c0.18914,0.66821 0.34743,2.92766 0.34743,2.92766z" fill="#423d3b"/><path d="M441.88258,204.97163l-4.80593,-9.16288l0.80858,-0.13937l4.80593,9.16288z" fill="#363332"/><path d="M447.49371,211.62447l-0.2068,-1.19969c0,0 4.7555,-3.40279 13.68863,-4.94277c1.1869,-0.2046 5.80588,1.5821 7.0022,1.37591c7.59013,-1.30846 15.01944,-2.58919 17.84581,-3.07643c2.30183,-0.39679 4.43152,-2.08311 4.43152,-2.08311l0.42767,2.48081z" fill="#312e2c"/><path d="M447.66476,198.66689l-2.50235,-4.25205l8.18693,-1.41136l4.84574,3.65118l6.24783,-0.88011l-7.14837,3.20977z" fill="#585350"/><path d="M439.50902,207.20206l-0.19166,-1.11179c0,0 7.29294,-5.05603 10.1283,-5.54484c4.27335,-0.73668 16.07064,-2.7704 16.07064,-2.7704l0.19166,1.11179c0,0 -11.99954,2.06857 -16.2728,2.80531c-2.77717,0.47871 -9.92616,5.50999 -9.92616,5.50999z" fill="#2b2827"/></g></g></g><g><g><g><path d="M116.9871,306.08465c0.91246,2.1096 1.04744,4.71409 0.01719,5.15969c-1.03025,0.44561 -2.83569,-1.43633 -3.74817,-3.54602c-0.91246,-2.1096 -4.47164,-10.19289 -3.44132,-10.63851c1.03025,-0.44561 6.25991,6.91512 7.17234,9.02481z" fill="#615e5f" stroke-width="0"/><g><path d="M152.89055,269.52486c-0.62111,-0.42831 -3.1507,-1.32397 -3.1507,-1.32397l9.28653,-4.52339l-4.68962,8.11463c0,0 -0.82506,-1.83892 -1.44624,-2.26729z" fill="#756a6a" stroke-width="0"/><path d="M143.70686,269.38575l-2.33308,-13.5337l17.26724,-8.92988l3.32976,19.31512z" fill="#8a7c7c" stroke-width="0"/><path d="M105.17836,281.55508l3.48919,-19.00229l34.40291,-6.06599l6.61929,11.7124c0,0 -22.388,5.45875 -29.8132,7.68674c-3.0823,0.92485 -14.69824,5.66919 -14.69824,5.66919z" fill="#7c787a" stroke-width="0"/><path d="M109.19273,264.90252l-0.39765,-1.43479c0,0 25.54736,-4.40415 33.57872,-5.78866c4.49357,-0.77467 14.83121,-9.02105 14.83121,-9.02105l0.27686,1.60596c0,0 -10.05098,8.17741 -14.39934,8.9122c-7.97329,1.34725 -33.88978,5.72639 -33.88978,5.72639z" fill="#535353" stroke-width="0"/><path d="M73.68541,287.70244l-3.42383,-19.86105c0,0 3.26688,-7.72135 10.01571,-11.21463c8.38231,-4.33877 25.32887,-5.44873 27.36946,-5.80052c1.56589,-0.26995 -10.95035,12.45805 -10.95035,12.45805l3.42383,19.86105z" fill="#8d898b" stroke-width="0"/><path d="M236.27994,212.84939l1.04517,-3.37082l106.02585,-18.13285l2.50517,14.5319c0,0 -36.91794,8.23702 -49.03181,9.90307c-6.01607,0.82742 -60.54444,-2.93137 -60.54444,-2.93137z" fill="#c98cac" stroke-width="0"/><path d="M232.08907,316.06177l-6.67529,-11.97649c0,0 6.05543,4.88173 9.04461,5.45914c1.90451,0.36789 6.13405,0.02619 11.74195,-3.41399c4.51452,-2.76938 8.67189,-9.0782 8.67189,-9.0782l-8.98301,16.63048z" fill="#a08e97" stroke-width="0"/><path d="M313.29314,254.45495l-6.31684,-22.88087l18.03947,-4.53326l3.60104,20.88891c0,0 -6.01236,2.78096 -8.61863,3.93886c-1.20007,0.53313 -6.70498,2.58641 -6.70498,2.58641z" fill="#96858d" stroke-width="0"/><path d="M230.91447,320.06528l-0.9412,-5.45961c0,0 12.23931,-0.01087 16.26141,-3.87162c1.95745,-1.87889 15.00814,-25.36998 22.18062,-38.40998c2.79903,-5.08887 4.70294,-8.58606 4.70294,-8.58606c0,0 2.66948,-4.28906 2.18382,-7.13005c-0.24433,-1.42914 -0.49111,-5.62697 -1.7032,-7.76344c-1.22294,-2.15561 -3.41028,-2.24357 -3.41028,-2.24357l-7.10704,-12.54732l19.55239,-3.22483l1.64728,26.68133l4.13877,1.88617c0,0 -8.39682,7.53614 -12.11653,13.2062c-5.82004,8.8715 -23.70746,42.78818 -23.70746,42.78818z" fill="#918189" stroke-width="0"/><path d="M290.50988,258.74052l-3.66338,-28.39428l13.62224,-2.06851l12.25199,10.0671l0.56486,16.4694z" fill="#96858d" stroke-width="0"/><path d="M286.36521,261.33142l-3.17706,-3.65924l-0.96175,-26.4104l4.99164,-0.94646l4.19063,28.28594z" fill="#8f8187" stroke-width="0"/><path d="M312.0868,255.12596c0,0 1.57913,-7.03761 -0.67314,-12.13998c-1.29687,-2.93791 -6.47098,-4.04472 -7.26599,-5.84577c-1.51863,-3.44048 -3.86806,-8.76288 -3.86806,-8.76288l8.48228,2.96608c0,0 4.58216,6.53021 5.8951,10.62827c0.88218,2.75324 0.50322,9.28864 0.0316,12.00716c-0.03977,0.22918 -1.21298,0.3469 -1.23577,0.51861c-0.0557,0.41941 0.93382,0.48359 0.93382,0.48359z" fill="#86787e" stroke-width="0"/><path d="M308.8052,232.85797c0,0 -3.71777,-3.37236 -8.49727,-3.53437c-5.41094,-0.18341 -22.30975,2.49017 -22.30975,2.49017l153.03525,-40.77269l4.94606,8.58635l9.69573,9.63558c0,0 -99.76364,14.58885 -120.05268,18.08649c-6.62062,1.14132 -16.81733,5.50851 -16.81733,5.50851z" fill="#df8db7" stroke-width="0"/><path d="M164.86135,305.65011l-10.88993,-34.92752c0,0 1.02159,-3.98212 1.47884,-4.27976c5.04133,-3.28198 34.80267,-19.22151 40.21151,-19.86341c5.92509,-0.70323 -6.94698,13.62033 -6.94698,13.62033c0,0 -13.85619,4.44447 -15.63502,9.0637c-2.41511,6.27156 5.3099,22.54934 5.3099,22.54934z" fill="#c77da3" stroke-width="0"/><path d="M231.14456,263.85321l-2.12112,-1.77065c0,0 5.00151,-9.59575 7.01025,-12.26856c2.07376,-2.75942 5.24344,-4.03656 5.24344,-4.03656l6.24033,1.26037c0,0 -4.49638,0.26517 -6.53423,2.35802c-1.7494,1.79669 -4.92395,5.46802 -7.15809,8.99111c-1.62521,2.56278 -2.68053,5.46622 -2.68053,5.46622z" fill="#414041" stroke-width="0"/><path d="M108.70026,263.92569l2.74438,-12.33507l47.9216,-8.26121c0,0 -2.09953,4.88315 -4.83977,7.35067c-2.68944,2.42183 -11.45217,7.31981 -11.45217,7.31981z" fill="#979395" stroke-width="0"/><path d="M109.29444,262.66355l1.95595,-12.19914l47.9216,-8.26121c0,0 -2.09953,4.88315 -4.83977,7.35067c-2.68944,2.42183 -11.45217,7.31981 -11.45217,7.31981z" fill="#bdb7ba" stroke-width="0"/><path d="M314.51445,255.03295l-1.93292,-0.18785l15.89476,-6.97645c0,0 -3.15909,2.63235 -5.47156,3.83965c-2.31245,1.20734 -8.49025,3.32466 -8.49025,3.32466z" fill="#887980" stroke-width="0"/><path d="M167.38984,305.68555c0,0 -4.08409,-9.91579 -6.71832,-18.12606c-2.64704,-8.25032 -5.10446,-15.99211 -5.73523,-19.52098c-0.10683,-0.59785 -0.16977,-10.66416 0.23416,-11.26285c2.18029,-3.23182 11.12513,3.08402 16.42087,1.05125c7.84123,-3.00986 26.58467,-6.76268 26.58467,-6.76268l-7.42861,6.66965c0,0 -18.68014,6.12764 -20.16431,11.59649c-2.00744,7.39721 8.9992,26.6804 8.9992,26.6804z" fill="#d486ae" stroke-width="0"/><path d="M167.90716,302.02569c0,0 -13.50773,-39.14584 -13.91204,-49.30182c-0.1892,-4.75186 -5.04248,-13.15735 -5.04248,-13.15735l51.1146,-1.74018l4.13327,15.5945c0,0 -32.10201,2.39523 -37.29429,9.65686c-3.46603,4.84735 8.04215,31.52313 8.04215,31.52313z" fill="#e490bb" stroke-width="0"/><g stroke-width="0"><path d="M293.61734,216.43161l-1.40579,-8.15459l9.22391,-1.5901l1.40579,8.15459z" fill="#454545"/><path d="M294.30769,215.53644l-1.59138,-7.13141l11.16156,-1.92414l1.23982,7.19203z" fill="#b0b0b0"/><path d="M293.31788,211.15183l-0.70608,-2.75033l11.37504,-1.96094l0.32406,1.87966c0,0 -7.62484,1.64166 -9.27595,2.06696c-0.55172,0.14209 -1.71706,0.76467 -1.71706,0.76467z" fill="#bebebe"/><path d="M305.27405,213.08833c0,0 -5.89425,-1.57695 -5.96826,-5.36714c-0.10995,-5.63219 4.03256,-5.86121 4.03256,-5.86121l39.88395,-5.52258l1.70915,9.91435z" fill="#9c989a"/><path d="M306.81632,211.5142c0,0 -3.04844,-3.04533 -3.44649,-3.91721c-0.59006,-1.29241 0.87336,-4.54562 0.87336,-4.54562l40.99677,-7.03361l0.87802,7.44775z" fill="#898587"/><path d="M306.76095,211.7249l-1.33424,-1.73796l37.67603,-6.49495l0.32948,1.91118z" fill="#c1bcbf"/><path d="M306.06498,208.40091c0,0 -1.54635,-1.12158 -1.70559,-2.04531c-0.149,-0.86407 0.77896,-3.32996 0.77896,-3.32996l38.10462,-6.56883l0.92659,5.37526z" fill="#0d0d0d"/><path d="M306.19702,209.16694c0,0 -1.6489,-1.71657 -1.80815,-2.6403c-0.149,-0.86407 0.88151,-2.73498 0.88151,-2.73498l38.10463,-6.56883l0.92659,5.37526z" fill="#2e2e2e"/><path d="M301.76449,211.86241c-3.12152,-2.5741 -2.37021,-5.0746 -2.37021,-5.0746c0,0 2.50425,3.74129 3.87426,4.41597c1.62205,0.79873 5.41146,1.53161 5.41146,1.53161l-3.44587,0.66523c0,0 -2.92029,-1.08519 -3.46959,-1.53818z" fill="#7d7a7c"/><path d="M308.81186,209.03038c0,0 -1.25175,-2.02887 -1.44603,-3.1558c-0.17079,-0.99064 0.34174,-3.24974 0.34174,-3.24974l4.7532,-0.81938c0,0 -0.07999,2.25029 0.06753,3.10588c0.20271,1.17595 1.03674,3.2996 1.03674,3.2996z" fill="#555555"/><path d="M317.30332,207.56663c0,0 0.22833,-2.59969 0.03402,-3.72663c-0.17079,-0.99064 -1.13828,-2.67889 -1.13828,-2.67889l5.30507,-0.91454c0,0 -0.11926,1.7609 0.02822,2.61655c0.20271,1.17595 1.07601,3.78898 1.07601,3.78898z" fill="#555555"/><path d="M326.49442,205.98212c0,0 0.22834,-2.59969 0.03404,-3.72663c-0.17079,-0.99064 -1.13828,-2.67888 -1.13828,-2.67888l5.22625,-0.90098c0,0 -0.11926,1.7609 0.02822,2.61655c0.20271,1.17595 1.07601,3.78898 1.07601,3.78898z" fill="#555555"/><path d="M336.01723,204.34047c0,0 0.46395,-2.27947 0.26964,-3.40645c-0.17079,-0.99064 -1.3739,-2.99904 -1.3739,-2.99904l5.06859,-0.87376c0,0 1.15238,1.81232 1.29991,2.66798c0.20271,1.17595 -0.19562,3.73758 -0.19562,3.73758z" fill="#555555"/><path d="M307.56492,203.36388l-0.79137,-0.67537l35.04566,-6.04153l-1.37604,1.04901c0,0 -2.78893,0.48077 -5.21533,0.89908c-0.52889,0.09114 -1.58556,-0.06024 -2.3778,0.07626c-0.76596,0.13205 -1.25991,0.5508 -2.21207,0.71496c-1.48478,0.25593 -3.16004,0.54477 -4.91383,0.84709c-0.72709,0.12535 -1.42492,-0.14357 -2.1711,-0.01493c-0.66347,0.1144 -1.37416,0.62606 -2.04077,0.74102c-1.65445,0.28522 -3.29264,0.5676 -4.83283,0.83314c-0.70726,0.12193 -1.46834,-0.19169 -2.12638,-0.07825c-0.80335,0.13847 -1.48959,0.70163 -2.19347,0.82296c-2.87113,0.49494 -4.79472,0.82657 -4.79472,0.82657z" fill="#474747"/></g><g><path d="M173.88347,294.47173l3.17591,-3.45724c0,0 3.26206,2.29407 6.20696,2.69455c2.60461,0.35424 10.56716,-0.41334 10.56716,-0.41334l-1.87675,4.74206z" fill="#6d6a6b" stroke-width="0"/><path d="M167.04593,302.24646l7.84268,-8.84611c0,0 3.57107,1.6742 5.82076,1.95803c3.40348,0.42937 12.61293,0.36766 12.61293,0.36766l-3.48381,4.97142z" fill="#615e5f" stroke-width="0"/><path d="M172.74755,323.55497l-5.29658,-21.99294c0,0 4.42548,0.04071 9.18173,-0.74916c3.71241,-0.61655 7.55743,-2.13899 10.10846,-1.96143c4.47846,0.31168 39.61624,6.79226 39.61624,6.79226l4.171,9.60586z" fill="#575455" stroke-width="0"/><path d="M189.43119,293.23812c5.88707,-6.66217 11.55397,-21.28958 12.35718,-24.03738c0.57864,-1.97955 0.35984,-7.2957 0.35984,-7.2957l8.74945,5.40703c0,0 9.24685,19.20501 12.55876,31.46738c0.92668,3.43114 4.07783,6.89131 3.15793,8.53801c-0.82419,1.47536 -17.14996,6.61344 -22.59569,6.77616c-11.46038,0.34252 -16.69432,4.07547 -21.28083,-0.48704c-4.5865,-4.56247 1.34583,-11.94791 1.34583,-11.94791c0,0 3.81486,-6.6861 5.34751,-8.42052z" fill="#504e4f" stroke-width="0"/><path d="M188.59049,260.07362c0,0 0.13645,-1.53833 0.86829,-2.33778c0.94119,-1.0282 4.31042,-3.31954 4.31042,-3.31954c0,0 9.58202,0.44601 12.97154,2.38844c3.12729,1.7921 -1.31551,12.99086 -1.31551,12.99086l-2.88817,-4.94255z" fill="#464445" stroke-width="0"/><path d="M219.51044,302.66746c0,0 -8.08656,7.74208 -16.41849,9.35239c-8.03785,1.55349 -16.32915,-2.99597 -16.46533,-4.41567c-0.07379,-0.7692 7.17745,-5.37332 9.88627,-10.12399c3.01115,-5.28084 1.56122,-10.81652 2.55089,-13.02722c2.76288,-6.17179 9.35594,-17.63699 7.28359,-23.41251c-2.17329,-6.05691 -13.08738,-6.2799 -13.08738,-6.2799c0,0 3.4127,-2.87322 8.30383,-3.84817c2.08347,-0.4153 6.80036,0.17784 7.77562,0.40037c3.19816,0.72965 5.43789,2.00391 5.43789,2.00391c0,0 2.77645,-5.42993 6.27364,-6.34684c3.49719,-0.91687 22.55007,-1.21031 22.55007,-1.21031l-13.83537,15.16484z" fill="#555354" stroke-width="0"/><path d="M198.77435,285.10659c0,0 2.70653,-11.49973 6.44485,-17.65928c3.7383,-6.15949 7.21711,-9.98664 10.69812,-10.58673c2.52078,-0.43456 7.22482,7.49702 7.22482,7.49702l-6.02849,30.23285c0,0 -13.85154,5.71534 -15.72873,3.52171c-1.48261,-1.73254 -2.61048,-13.00556 -2.61048,-13.00556z" fill="#585758" stroke-width="0"/><path d="M225.63968,308.17769c0,0 -3.8881,-5.61211 -4.07999,-8.64585c-0.26809,-4.23806 -0.99492,-16.95336 -0.99492,-16.95336l3.70107,9.95161c0,0 1.02476,9.71463 1.67028,12.67791c0.6228,2.85907 2.39417,4.75613 2.39417,4.75613z" fill="#3f3e3f" stroke-width="0"/><path d="M221.68953,290.72993c-0.4771,-1.61723 -1.52405,-9.26143 -1.52405,-9.26143c0,0 6.94437,-15.97999 8.5606,-18.95082c0.47379,-0.8709 3.48665,-3.14679 3.48665,-3.14679l-0.79771,5.06304c0,0 -1.44835,0.86255 -1.54438,1.364c-0.10229,0.53425 0.94818,1.74921 0.94818,1.74921l-3.61365,9.22816c0,0 -1.45498,1.27631 -1.54566,1.80478c-0.09074,0.52858 0.73778,1.28704 0.73778,1.28704c0,0 -2.27936,9.46608 -2.69934,11.98891c-0.19418,1.16648 0.28082,2.53829 0.28082,2.53829c0,0 -1.81202,-2.0471 -2.28911,-3.66436z" fill="#474647" stroke-width="0"/><path d="M205.19206,272.2962l22.15179,4.53805c0,0 -0.99967,1.19957 -1.14186,1.77106c-0.10492,0.42172 0.36617,1.34722 0.36617,1.34722z" fill="#3f3e3e" stroke-width="NaN"/><path d="M209.34605,261.07444l22.29968,3.31871c0,0 -0.95555,1.02045 -1.06898,1.6046c-0.11822,0.60891 0.42924,1.60963 0.42924,1.60963z" fill="#3f3e3e" stroke-width="NaN"/><path d="M201.95909,291.45093c0,0 11.84392,5.76472 18.65211,10.65679c6.80816,4.89211 5.10072,6.4111 5.10072,6.4111z" fill="#636162" stroke-width="NaN"/><path d="M211.13585,266.47228c0,0 -5.42006,3.88126 -7.6035,7.39923c-2.18344,3.51799 -7.64706,20.88148 -8.14745,17.97877c-0.50039,-2.90273 8.91042,-25.5518 10.67923,-25.85671c0.66961,-0.11543 3.46768,-1.75691 4.31452,-1.6619c1.39027,0.15592 0.7572,2.14059 0.7572,2.14059z" fill="#918f91" stroke-width="0"/><path d="M172.27596,323.5049l13.41934,-4.22952c0,0 12.35635,-2.4673 15.4738,-2.84735c7.59186,-0.92558 30.24286,-2.72633 30.24286,-2.72633l0.63338,6.30512c0,0 -23.40113,7.65217 -30.41884,7.52691c-2.03022,-0.03623 -7.86735,0.34284 -12.29093,-0.26672c-8.65677,-1.19283 -17.0596,-3.76215 -17.0596,-3.76215z" fill="#626061" stroke-width="0"/><path d="M230.99525,319.83089c0,0 -0.68938,-4.23712 -1.5293,-6.46667c-0.94403,-2.50598 -3.85918,-7.83709 -3.85918,-7.83709l1.75642,-0.30279c0,0 2.45136,4.09997 3.30598,6.36859c0.93439,2.4804 2.08252,7.93517 2.08252,7.93517z" fill="#4a494a" stroke-width="0"/><path d="M230.94488,320.68825l-0.49017,-3.36279c0,0 0.60346,0.1646 0.87104,0.11845c0.31792,-0.05479 0.87075,-0.4187 0.87075,-0.4187l0.71087,3.10088c0,0 -0.69602,0.53364 -1.0536,0.63603c-0.27398,0.07852 -0.90887,-0.07389 -0.90887,-0.07389z" fill="#363536" stroke-width="0"/><path d="M226.052,306.49086l-0.65555,-1.53154c0,0 0.35111,-0.42013 0.70416,-0.54114c0.33623,-0.1152 0.87189,-0.08301 0.87189,-0.08301l0.7893,1.62596c0,0 -0.38863,0.5819 -0.68156,0.67267c-0.276,0.0855 -1.02828,-0.14295 -1.02828,-0.14295z" fill="#585758" stroke-width="0"/><path d="M189.68229,326.51527c0,0 -8.28202,-1.56863 -8.51357,-2.91186c-0.2327,-1.34991 5.71494,-3.56328 5.71494,-3.56328c0,0 10.7439,-2.09645 15.65819,-2.76848c2.75121,-0.37619 11.31735,-0.92042 11.31735,-0.92042c0,0 7.36492,-0.19988 8.36385,0.79665c1.08956,1.08699 -2.23564,4.54377 -2.23564,4.54377c0,0 -12.31702,3.44864 -16.25957,3.91701c-1.40052,0.16638 -14.04541,0.90669 -14.04541,0.90669z" fill="#6b696a" stroke-width="0"/><path d="M178.27772,321.47798l-1.89393,0.56072c0,0 0.03382,-3.49116 2.92531,-2.72912c2.89153,0.76209 21.41787,-3.45801 21.41787,-3.45801z" fill="#4b4949" stroke-width="0"/><path d="M172.32341,323.3506c0,0 -1.93619,0.5282 -3.08234,-2.9707c-0.58017,-1.77113 -4.70585,-15.46137 -4.70585,-15.46137l3.18914,-3.49163c0,0 1.69012,5.79081 2.38635,8.61584c0.92594,3.75727 3.1225,13.15106 3.1225,13.15106z" fill="#3f3d3e" stroke-width="0"/><path d="M178.62308,321.58688c0,0 2.77964,-2.66914 18.54535,-5.72908c1.30199,-0.25267 -1.7745,0.27338 7.57477,-0.82348c9.3493,-1.09693 13.45768,-0.27019 13.45768,-0.27019c0,0 -15.02886,1.50566 -21.14151,2.55946c-6.9677,1.20113 -18.4363,4.26339 -18.4363,4.26339z" fill="#838082" stroke-width="0"/><path d="M178.5663,291.52738c0,0 -3.93543,2.89812 -5.80444,4.85969c-2.10069,2.20477 -6.18587,7.72478 -6.18587,7.72478l-1.04513,-1.44507c0,0 3.05322,-4.43688 4.95492,-6.43283c2.07922,-2.18222 7.0354,-6.1517 7.0354,-6.1517z" fill="#4a494a" stroke-width="0"/><path d="M179.4429,291.11472l-3.2238,2.26111c0,0 -0.01484,-0.6534 -0.17407,-0.87353c-0.18919,-0.26156 -0.78616,-0.57269 -0.78616,-0.57269l2.79281,-2.30976c0,0 0.82684,0.3513 1.08031,0.62367c0.19425,0.20872 0.3108,0.87114 0.3108,0.87114z" fill="url(#color-3)" stroke-width="0"/><path d="M167.34892,303.18889l-2.44433,3.19145l-0.51257,-2.12646l1.70503,-2.34596c0,0 0.74495,0.04419 0.95941,0.26364c0.20206,0.20679 0.29239,1.01734 0.29239,1.01734z" fill="url(#color-4)" stroke-width="0"/></g><path d="M291.45548,257.46482c0,0 0.16327,-4.51195 0.4233,-5.9664c0.17647,-0.98732 2.27217,-2.80133 2.27217,-2.80133l16.73498,-3.10635c0,0 -0.27365,5.93042 -0.41708,7.34162c-0.06285,0.61818 -0.99567,1.48182 -0.99567,1.48182z" fill="#665b60" stroke-width="0"/><path d="M240.44644,247.73245c0,0 -4.00447,-0.89515 -9.05708,-1.19336c-3.21193,-0.1896 -7.51617,-0.02271 -9.33217,0.3977c-5.27966,1.22221 -6.8948,6.68083 -6.8948,6.68083c0,0 -3.61911,-1.72602 -5.8413,-2.21026c-2.07434,-0.45199 -6.53419,-0.69886 -6.53419,-0.69886c0,0 23.33753,-9.18953 27.03418,-10.41546c7.08672,-2.35024 33.44658,-6.49722 33.44658,-6.49722l8.56037,13.02073z" fill="#8b7c84" stroke-width="0"/><g stroke-width="0"><path d="M292.72883,256.28863c0,0 0.02357,-2.63861 0.276,-3.59014c0.26168,-0.98657 2.2349,-2.39469 2.2349,-2.39469l14.31881,-2.46843c0,0 0.54769,0.90306 0.44104,1.67012c-0.14499,1.04289 -2.41443,4.222 -2.41443,4.222z" fill="#585852"/><path d="M292.60219,255.55416c0,0 0.15022,-1.9041 0.40264,-2.85561c0.26168,-0.98657 2.10827,-3.12919 2.10827,-3.12919l14.31881,-2.46842c0,0 0.67432,1.63757 0.56771,2.40464c-0.14499,1.04289 -2.54109,3.48748 -2.54109,3.48748z" fill="#797971"/><path d="M307.77758,247.88899c-1.06385,0.00284 -12.56358,1.70991 -12.56358,1.70991l14.29921,-2.46503l0.41823,2.42607c0,0 -1.09001,-1.67372 -2.15386,-1.67093z" fill="#85857b"/></g><path d="M291.05283,238.14147l-0.88166,-5.11434l7.03218,-1.21231l2.16025,4.89393z" fill="#7c6e75" stroke-width="0"/><path d="M276.29134,213.87285l-5.49738,-7.30352l1.35932,-0.23432l7.48145,7.41975z" fill="#d495b6" stroke-width="0"/><path d="M236.55864,212.9808l12.50201,-5.29047l21.9334,-1.13007l5.31949,7.29458z" fill="#df9cbe" stroke-width="0"/><path d="M292.06675,243.0684l-0.2755,-1.59822l10.70808,-1.84596l1.23444,1.43293z" fill="#7c6e75" stroke-width="0"/><path d="M250.01977,237.98343c0,0 -17.66644,4.26156 -23.13235,5.71146c-8.27663,2.19533 -24.70373,7.38676 -24.70373,7.38676c0,0 14.05094,-6.9284 27.10445,-10.71714c14.15335,-4.108 57.31501,-13.02749 57.31501,-13.02749l0.91894,5.33041z" fill="#75686e" stroke-width="0"/><path d="M244.69186,247.80178l-3.29308,-0.01155c0,0 9.22339,-4.0096 14.61488,-4.165c5.39151,-0.15542 15.39979,3.29988 15.39979,3.29988z" fill="#7c6e76" stroke-width="0"/><path d="M198.22637,251.72228c0,0 -34.5025,-9.67565 -36.16598,-14.07716c-1.51101,-3.99826 29.78715,-2.75241 30.06221,-2.90965c4.81273,-2.75148 74.42511,-22.07327 74.42511,-22.07327l27.37536,2.17025l51.89789,-9.52651l9.50826,12.13654c0,0 -60.4657,11.6098 -83.85881,15.80797c-8.12037,1.45729 -24.81802,3.67856 -39.70574,7.40218c-11.4839,2.87229 -28.17981,10.13074 -28.17981,10.13074z" fill="#ee96c3" stroke-width="0"/><path d="M73.10276,286.02065l-0.14524,-20.42622c0,0 -1.29844,-6.93435 5.45042,-10.42762c8.38231,-4.33877 25.32887,-5.44872 27.36947,-5.80051c1.56589,-0.26995 -10.95036,12.45805 -10.95036,12.45805l3.42384,19.86103z" fill="#c4b4b3" stroke-width="0"/><g stroke-width="0"><path d="M347.0738,220.26808l-5.38816,-14.4374l92.55764,-9.0917l0.24077,5.85111l-45.91401,12.84385z" fill="#ad6d8e"/><path d="M370.60072,201.66456l5.76163,-9.38797l26.02384,-6.64669l-2.47533,10.98193z" fill="#8d788b"/><path d="M345.70194,207.16302l-2.75813,-15.9993l33.48849,1.10499l-3.34521,7.54704z" fill="#857183"/><path d="M386.9399,196.68414l15.38473,-11.0424l28.07784,-1.01199l0.88927,6.84238z" fill="#947e92"/><path d="M341.49012,207.27163l0.68282,-13.07199l0.9053,-3.26507l2.55911,14.84489z" fill="#756474"/><path d="M347.78844,216.88309l-2.76177,-11.77467l42.40408,-8.9832l1.51958,16.03197z" fill="#746373"/><path d="M388.94016,212.14322c0,0 -0.69708,-6.28033 -0.9844,-9.11692c-0.24601,-2.42862 -0.63495,-6.86942 -0.63495,-6.86942l43.71198,-6.61301l3.39796,7.93812z" fill="#867284"/><path d="M341.51799,207.1953l3.70897,-2.19288l2.59238,11.88306z" fill="#6f5e6d"/><path d="M423.27376,185.74945l-20.10155,0.05202l26.95651,-0.95703l0.24396,3.5557c0,0 -0.57562,-1.49316 -1.88613,-1.98258c-0.87664,-0.32735 -5.2128,-0.66817 -5.2128,-0.66817z" fill="#978195"/><path d="M385.17982,196.32826c0,0 7.27001,-4.76968 9.7778,-6.57606c1.82686,-1.31588 3.88409,-3.26476 3.88409,-3.26476l2.51612,-0.31948l-13.56793,9.71026z" fill="#9c859a"/><path d="M371.1453,199.56793c0,0 0.82968,-2.93593 1.93094,-4.49597c1.10124,-1.56006 3.23743,-2.75555 3.23743,-2.75555l-2.74262,6.8333z" fill="#806b7d"/><path d="M403.58222,183.65344l1.12829,-6.01241l15.61332,1.09687l6.60586,5.35561z" fill="#55494f"/><path d="M401.56139,186.84319c0,0 0.93245,-0.96259 1.38533,-1.63405c0.34115,-0.50579 0.78391,-1.98713 0.78391,-1.98713l22.66891,0.15113c0,0 0.93968,0.34233 1.57269,0.56366c0.66154,0.23131 2.31475,0.79567 2.31475,0.79567z" fill="#685960"/><path d="M403.98367,182.67887l0.85545,-4.80047l14.50593,0.87524c0,0 -8.15073,-0.15022 -12.52341,0.862c-2.53641,0.58718 -2.83792,3.06321 -2.83792,3.06321z" fill="#41383c"/></g><path d="M68.04524,247.03298l-0.88483,-5.13265c0,0 21.79184,-5.07084 43.44047,-8.74506c12.90063,-2.18949 26.54465,-2.92036 33.30579,-4.44117c15.24499,-3.42919 24.79508,-9.65427 24.79508,-9.65427l-4.44031,11.56558z" fill="#ffa1d1" stroke-width="0"/><path d="M67.87595,261.22561l-0.60322,-16.21583c0,0 54.3498,-7.27847 71.8627,-10.74465c10.3739,-2.05323 23.532,-8.13617 23.532,-8.13617l2.48747,14.42953c0,0 -66.51984,11.46734 -82.55569,14.23175c-6.59336,1.13661 -10.15603,32.92889 -10.15603,32.92889z" fill="#ee96c3" stroke-width="0"/><path d="M257.47516,306.16106l6.83543,-14.97478c0,0 7.08058,-17.31176 15.17839,-25.67177c2.05779,-2.1244 6.9489,-4.18176 6.9489,-4.18176c0,0 -6.35083,6.15347 -8.43369,9.34513c-4.91883,7.53734 -20.52895,35.48309 -20.52895,35.48309z" fill="#70646b" stroke-width="0"/><path d="M341.07265,225.95267l-9.26727,-16.66975l1.33047,-0.22937c0,0 2.8066,5.04845 4.28962,7.7161c0.21128,0.38006 1.76389,1.35154 2.02561,1.82234c0.45373,0.81612 -0.34486,1.20087 0.16222,2.11303c1.41201,2.53991 2.78982,5.01828 2.78982,5.01828z" fill="#795467" stroke-width="0"/><path d="M165.85139,240.87654c0,0 -11.44279,-4.67633 -11.41461,-8.51181c0.01685,-2.29647 15.26369,-12.99431 15.26369,-12.99431l67.79026,-9.98958l-1.08691,3.32914l30.11079,0.13504l-66.23766,38.3859c0,0 -1.73356,-5.39777 1.33082,-8.82635c2.97827,-3.33221 16.80437,-11.46425 16.80437,-11.46425c0,0 -33.72832,5.76471 -40.92801,6.91789c-2.40196,0.38471 -11.63277,3.0183 -11.63277,3.0183z" fill="#f399c8" stroke-width="0"/><g><path d="M168.2566,221.57193l-0.55013,-3.19127l173.98729,-29.99361l0.55013,3.19127z" fill="#584f54" stroke-width="0"/><path d="M336.02386,189.61631l-0.46487,-2.69656l3.01088,-0.51903l3.12149,2.23863z" fill="#685d63" stroke-width="0"/><g fill="#685d63" stroke-width="0"><g><g><g><path d="M329.50292,190.99332l-0.50571,-2.93377l3.82468,-0.65936l0.50571,2.93377z"/><path d="M323.29693,192.06317l-0.50571,-2.93377l3.82469,-0.65935l0.50571,2.93377z"/></g><g><path d="M317.32513,193.09268l-0.50571,-2.93378l3.82469,-0.65935l0.50571,2.93377z"/><path d="M311.11914,194.16252l-0.50571,-2.93377l3.82468,-0.65935l0.50571,2.93378z"/></g></g><g><g><path d="M305.0302,195.21215l-0.50571,-2.93378l3.82468,-0.65935l0.50571,2.93377z"/><path d="M298.82418,196.28203l-0.50571,-2.93377l3.82468,-0.65936l0.50571,2.93378z"/></g><g><path d="M292.85245,197.31148l-0.50571,-2.93377l3.82468,-0.65935l0.50571,2.93377z"/><path d="M286.64643,198.38132l-0.50571,-2.93377l3.82467,-0.65937l0.50571,2.93378z"/></g></g></g><g><g><g><path d="M286.4123,198.42174l-0.50571,-2.93377l3.82468,-0.65935l0.50571,2.93377z"/><path d="M280.20631,199.49156l-0.50571,-2.93377l3.82469,-0.65935l0.50571,2.93377z"/></g><g><path d="M274.2345,200.52105l-0.50571,-2.93378l3.82468,-0.65935l0.50571,2.93377z"/><path d="M268.02848,201.59088l-0.50571,-2.93377l3.82467,-0.65937l0.50571,2.93378z"/></g></g><g><g><path d="M261.93966,202.64055l-0.50571,-2.93378l3.82469,-0.65935l0.50571,2.93377z"/><path d="M255.73362,203.71042l-0.50571,-2.93377l3.82469,-0.65935l0.50571,2.93378z"/></g><g><path d="M249.76182,204.73991l-0.50571,-2.93377l3.82468,-0.65936l0.50571,2.93378z"/><path d="M243.55585,205.80971l-0.50571,-2.93377l3.82469,-0.65935l0.50571,2.93377z"/></g></g></g></g><g><g fill="#685d63" stroke-width="0"><g><g><path d="M237.42709,206.86627l-0.50571,-2.93378l3.82469,-0.65935l0.50571,2.93377z"/><path d="M231.22111,207.93608l-0.50571,-2.93377l3.82469,-0.65935l0.50571,2.93378z"/></g><g><path d="M225.24932,208.96562l-0.50571,-2.93377l3.82469,-0.65935l0.50571,2.93378z"/><path d="M219.04335,210.03541l-0.50571,-2.93377l3.82468,-0.65936l0.50571,2.93378z"/></g></g><g><g><path d="M212.95448,211.08511l-0.50571,-2.93378l3.82469,-0.65935l0.50571,2.93377z"/><path d="M206.74845,212.15488l-0.50571,-2.93377l3.82469,-0.65935l0.50571,2.93378z"/></g><g><path d="M200.77658,213.18441l-0.50571,-2.93377l3.82469,-0.65935l0.50571,2.93378z"/><path d="M194.57062,214.2543l-0.50571,-2.93377l3.82468,-0.65936l0.50571,2.93377z"/></g></g></g><g><g fill="#685d63" stroke-width="0"><g><path d="M194.33648,214.29463l-0.50571,-2.93378l3.82469,-0.65935l0.50571,2.93377z"/><path d="M188.13047,215.36448l-0.50571,-2.93377l3.82468,-0.65936l0.50571,2.93378z"/></g><g><path d="M182.1587,216.39396l-0.50571,-2.93377l3.82468,-0.65936l0.50571,2.93378z"/><path d="M175.95268,217.46376l-0.50571,-2.93377l3.82468,-0.65936l0.50571,2.93377z"/></g></g><g fill="none" stroke-width="1" font-family="sans-serif" font-weight="normal" font-size="12" text-anchor="start"><g/><g/></g></g></g><path d="M167.81913,218.61311l2.19177,-3.15451l3.01088,-0.51903l0.46487,2.69656z" data-paper-data="{&quot;index&quot;:null}" fill="#685d63" stroke-width="0"/></g><path d="M229.48979,241.35319l-2.4689,0.69963c0,0 1.21835,-2.81543 10.48242,-5.55681c7.02357,-2.07835 27.06512,-6.86414 39.06988,-9.69038c5.57469,-1.31245 59.7259,-19.78228 59.7259,-19.78228l5.12081,-0.8973c0,0 -59.01023,20.97447 -64.58467,22.26332c-12.32663,2.84994 -33.04685,7.67734 -39.00784,9.29198c-3.24492,0.87896 -8.3375,3.6718 -8.3375,3.6718z" fill="#70475c" stroke-width="0"/><path d="M332.16584,242.96124l-4.53867,2.65544l-3.21544,-18.65628c0,0 7.68643,-1.27594 15.2036,-2.52377c21.57956,-3.58223 125.29246,-20.79862 125.29246,-20.79862l1.14284,6.62945z" fill="#5a5959" stroke-width="0"/><path d="M331.54072,244.72145l0.56436,-3.14767l133.939,-31.41624l-9.74948,13.05768z" fill="#4b4a4a" stroke-width="0"/><path d="M453.02436,223.58705c0,0 -6.36825,-2.17449 -9.59923,-3.06666c-1.73152,-0.4781 -8.27987,-1.8702 -8.27987,-1.8702c0,0 8.37843,1.50221 11.83547,1.86821c1.23376,0.13064 2.46723,0.67172 3.84201,0.97066c0.44332,0.09638 1.77151,-2.93246 3.35158,-4.94449c0.4723,-0.60139 1.6776,-0.43924 2.13914,-0.8545c1.05809,-0.95192 1.22647,-2.08849 1.22647,-2.08849c0,0 0.49046,0.8587 -0.50457,2.26195c-0.27146,0.38288 -1.98834,1.03637 -2.24784,1.44676c-1.03997,1.64491 -1.75554,3.39091 -1.95581,4.02534c-0.55885,1.77048 1.63471,2.00283 1.63471,2.00283z" fill="#414040" stroke-width="0"/><path d="M165.85368,241.17796l1.87427,-11.58558l6.79822,-1.80543c0,0 -0.48695,2.77121 -0.77392,4.40443c-0.07226,0.41134 11.21804,-3.52 11.67894,-2.91852c0.85515,1.1159 -3.9972,5.76777 -4.17772,6.7949c-0.20636,1.17428 -8.71705,3.04307 -8.71705,3.04307z" fill="#303030" stroke-width="0"/><path d="M165.64935,240.83766l1.91315,-10.74486c0,0 3.17819,0.77596 3.34552,1.74658c0.30445,1.76617 -0.26843,7.73743 -0.26843,7.73743z" fill="#252525" stroke-width="0"/><path d="M328.06051,248.23687l-0.50156,-2.90948l4.94192,-3.8479l-0.71856,3.11979c0,0 -0.84772,1.5011 -1.50224,2.14085c-0.57596,0.56293 -2.21956,1.49669 -2.21956,1.49669z" fill="#383838" stroke-width="0"/><g><g fill="#4b4b4b" stroke-width="0"><g data-paper-data="{&quot;origPos&quot;:null}"><g data-paper-data="{&quot;origPos&quot;:null}"><path d="M394.45867,238.18174l-0.3861,-2.23972l3.6955,-0.63708l0.3861,2.23972z" data-paper-data="{&quot;origPos&quot;:null}"/><path d="M388.28021,239.13155l-0.3861,-2.23972l3.69549,-0.63708l0.3861,2.23971z" data-paper-data="{&quot;origPos&quot;:null}"/></g><g data-paper-data="{&quot;origPos&quot;:null}"><path d="M406.79633,236.17015l-0.3861,-2.23972l3.6955,-0.63708l0.3861,2.23971z" data-paper-data="{&quot;origPos&quot;:null}"/><path d="M400.61785,237.11994l-0.3861,-2.23971l3.69549,-0.63708l0.3861,2.23972z" data-paper-data="{&quot;origPos&quot;:null}"/></g></g><g data-paper-data="{&quot;origPos&quot;:null,&quot;index&quot;:null}"><g data-paper-data="{&quot;origPos&quot;:null}"><path d="M425.68313,232.68367l-0.3861,-2.23972l3.6955,-0.63708l0.3861,2.23971z" data-paper-data="{&quot;origPos&quot;:null}"/><path d="M431.82293,231.50989l-0.38611,-2.23971l3.6955,-0.63708l0.38609,2.2397z" data-paper-data="{&quot;origPos&quot;:null}"/></g><g data-paper-data="{&quot;origPos&quot;:null}"><path d="M413.3841,234.91917l-0.3861,-2.23972l3.69549,-0.63708l0.38611,2.23971z" data-paper-data="{&quot;origPos&quot;:null}"/><path d="M419.52394,233.74545l-0.3861,-2.23971l3.6955,-0.63708l0.3861,2.23971z" data-paper-data="{&quot;origPos&quot;:null}"/></g></g></g><path d="M350.95724,237.31415l-2.31231,-13.41327l83.24612,-14.35075l2.31231,13.41327z" data-paper-data="{&quot;origPos&quot;:null}" fill="#444444" stroke-width="0"/><path d="M351.85655,241.95105l-0.81243,-4.71293l83.00144,-14.30859l0.81243,4.71294z" data-paper-data="{&quot;origPos&quot;:null}" fill="#414141" stroke-width="0"/><path d="M352.13284,243.34868l-0.27478,-1.59411l82.99084,-14.30677l0.2748,1.5941z" data-paper-data="{&quot;origPos&quot;:null}" fill="#3f3f3f" stroke-width="0"/><g stroke-width="0"><g data-paper-data="{&quot;origPos&quot;:null}" fill="#5a5a5a"><g data-paper-data="{&quot;origPos&quot;:null}"><path d="M393.61339,230.04126l-2.3359,-13.55013l3.51953,-0.60672l2.3359,13.55013z" data-paper-data="{&quot;origPos&quot;:null}"/></g><g data-paper-data="{&quot;origPos&quot;:null}"><path d="M399.59656,229.00983l-2.3359,-13.55013l3.51954,-0.60672l2.3359,13.55013z" data-paper-data="{&quot;origPos&quot;:null}"/><path d="M405.75574,227.94801l-2.33589,-13.55014l3.51953,-0.60672l2.3359,13.55013z" data-paper-data="{&quot;origPos&quot;:null}"/></g></g><g data-paper-data="{&quot;origPos&quot;:null}" fill="#5a5a5a"><g data-paper-data="{&quot;origPos&quot;:null}"><path d="M412.26684,226.82558l-2.3359,-13.55013l3.51953,-0.60672l2.3359,13.55014z" data-paper-data="{&quot;origPos&quot;:null}"/><path d="M418.42595,225.7638l-2.3359,-13.55013l3.51954,-0.60672l2.33589,13.55014z" data-paper-data="{&quot;origPos&quot;:null}"/></g><g data-paper-data="{&quot;origPos&quot;:null}"><path d="M424.40916,224.73236l-2.33589,-13.55014l3.51953,-0.60672l2.33589,13.55014z" data-paper-data="{&quot;origPos&quot;:null}"/><path d="M430.56832,223.67058l-2.33589,-13.55014l3.51953,-0.60672l2.3359,13.55013z" data-paper-data="{&quot;origPos&quot;:null}"/></g></g><path d="M397.19335,229.42413l-0.53798,2.05222l-5.15787,0.93286l-1.80161,-9.6304l1.52353,-6.27777l2.40386,13.53842z" fill="#3a3a3a"/><path d="M403.17412,228.39305l-0.53798,2.05223l-5.15788,0.93288l-1.8016,-9.6304l1.52353,-6.27776l2.40386,13.53841z" fill="#3a3a3a"/><path d="M409.29079,227.33864l-0.53798,2.05223l-5.15787,0.93288l-1.80161,-9.6304l1.52353,-6.27776l2.40386,13.53842z" fill="#3a3a3a"/><path d="M415.8832,226.20218l-0.53798,2.05223l-5.15787,0.93288l-1.80161,-9.6304l1.52353,-6.27776l2.40386,13.53842z" fill="#3a3a3a"/><path d="M422.06788,225.13603l-0.53798,2.05223l-5.15787,0.93288l-1.80161,-9.6304l1.52353,-6.27776l2.40386,13.53841z" fill="#3a3a3a"/><path d="M427.98063,224.11669l-0.53798,2.05222l-5.15787,0.93286l-1.80161,-9.6304l1.52353,-6.27776l2.40386,13.53842z" fill="#3a3a3a"/><path d="M434.17305,223.04919l-0.53798,2.05222l-5.15787,0.93288l-1.8016,-9.6304l1.52353,-6.27777l2.40386,13.53842z" fill="#3a3a3a"/></g><g stroke-width="0"><g data-paper-data="{&quot;origPos&quot;:null}" fill="#5a5a5a"><g data-paper-data="{&quot;origPos&quot;:null}"><path d="M351.01275,237.38518l-2.33589,-13.55014l3.51954,-0.60672l2.3359,13.55013z" data-paper-data="{&quot;origPos&quot;:null}"/></g><g data-paper-data="{&quot;origPos&quot;:null}"><path d="M356.99589,236.3538l-2.3359,-13.55013l3.51953,-0.60672l2.3359,13.55013z" data-paper-data="{&quot;origPos&quot;:null}"/><path d="M363.155,235.29199l-2.3359,-13.55013l3.51954,-0.60672l2.33589,13.55014z" data-paper-data="{&quot;origPos&quot;:null}"/></g></g><g data-paper-data="{&quot;origPos&quot;:null}" fill="#5a5a5a"><g data-paper-data="{&quot;origPos&quot;:null}"><path d="M369.66617,234.16956l-2.33589,-13.55014l3.51955,-0.60672l2.3359,13.55013z" data-paper-data="{&quot;origPos&quot;:null}"/><path d="M375.82537,233.10775l-2.3359,-13.55013l3.51954,-0.60672l2.33589,13.55014z" data-paper-data="{&quot;origPos&quot;:null}"/></g><g data-paper-data="{&quot;origPos&quot;:null}"><path d="M381.80852,232.07631l-2.3359,-13.55013l3.51954,-0.60672l2.33589,13.55014z" data-paper-data="{&quot;origPos&quot;:null}"/><path d="M387.96773,231.01455l-2.33589,-13.55014l3.51954,-0.60672l2.3359,13.55014z" data-paper-data="{&quot;origPos&quot;:null}"/></g></g><path d="M354.59265,236.76805l-0.53798,2.05223l-2.68277,0.50621l-0.34926,-1.94306z" fill="#3a3a3a"/><path d="M360.57344,235.73706l-0.53798,2.05223l-5.15787,0.93288l-1.8016,-9.6304l1.52353,-6.27776l2.40386,13.53842z" fill="#3a3a3a"/><path d="M366.69004,234.68256l-0.53798,2.05222l-5.15787,0.93288l-1.80162,-9.63039l1.52353,-6.27777l2.40386,13.53842z" fill="#3a3a3a"/><path d="M373.28248,233.5461l-0.53798,2.05222l-5.15787,0.93288l-1.8016,-9.6304l1.52353,-6.27776l2.40386,13.53842z" fill="#3a3a3a"/><path d="M379.46723,232.47996l-0.53798,2.05222l-5.15787,0.93286l-1.80161,-9.6304l1.52353,-6.27776l2.40386,13.53842z" fill="#3a3a3a"/><path d="M385.37995,231.46059l-0.53798,2.05222l-5.15787,0.93286l-1.80161,-9.6304l1.52353,-6.27777l2.40386,13.53842z" fill="#3a3a3a"/><path d="M391.57244,230.39311l-0.53798,2.05223l-5.15787,0.93286l-1.80161,-9.6304l1.52353,-6.27776l2.40386,13.53842z" fill="#3a3a3a"/></g><g><g data-paper-data="{&quot;origPos&quot;:null}"><g data-paper-data="{&quot;origPos&quot;:null}" fill="none" stroke-width="1" font-family="sans-serif" font-weight="normal" font-size="12" text-anchor="start"/><g data-paper-data="{&quot;origPos&quot;:null}" fill="#4b4b4b" stroke-width="0"><path d="M358.78203,244.52539l-0.3861,-2.23972l3.69549,-0.63708l0.38611,2.23971z" data-paper-data="{&quot;origPos&quot;:null}"/><path d="M352.60354,245.4752l-0.3861,-2.23972l3.69549,-0.63708l0.3861,2.23972z" data-paper-data="{&quot;origPos&quot;:null}"/></g></g><g data-paper-data="{&quot;origPos&quot;:null,&quot;index&quot;:null}" fill="#4b4b4b" stroke-width="0"><g data-paper-data="{&quot;origPos&quot;:null}"><path d="M377.66882,241.03882l-0.3861,-2.23971l3.6955,-0.63708l0.3861,2.23971z" data-paper-data="{&quot;origPos&quot;:null}"/><path d="M383.80866,239.86509l-0.38609,-2.2397l3.6955,-0.63708l0.3861,2.23971z" data-paper-data="{&quot;origPos&quot;:null}"/></g><g data-paper-data="{&quot;origPos&quot;:null}"><path d="M365.36975,243.27444l-0.3861,-2.23972l3.6955,-0.63708l0.3861,2.23971z" data-paper-data="{&quot;origPos&quot;:null}"/><path d="M371.50961,242.10061l-0.3861,-2.23972l3.6955,-0.63708l0.3861,2.23972z" data-paper-data="{&quot;origPos&quot;:null}"/></g></g></g></g><path d="M178.07862,237.45304l0.30845,-4.33043c0,0 4.00934,-3.88507 7.46365,-4.63277c3.94895,-0.85479 33.4865,-5.92142 33.4865,-5.92142c0,0 0.97106,1.73602 1.12567,2.94451c0.19924,1.557 -1.36548,4.93657 -1.36548,4.93657z" fill="#242424" stroke-width="0"/><path d="M201.95542,229.47065l-0.53518,-3.1045l17.74011,-3.05826l0.53518,3.1045z" fill="#313131" stroke-width="0"/><path d="M199.03752,231.93281l-0.11079,-0.64278c0,0 0.87378,-1.2173 1.88198,-1.3911c0.95736,-0.165 3.19422,-0.06875 5.63823,-0.32425c4.65582,-0.48684 10.21966,-1.34277 10.21966,-1.34277l0.11079,0.64278c0,0 -5.34972,0.92016 -9.94123,1.39646c-2.50533,0.25991 -4.83722,0.08451 -5.83035,0.25571c-1.0439,0.17995 -1.96826,1.40596 -1.96826,1.40596z" fill="#616161" stroke-width="0"/><path d="M223.10721,211.84077l13.02297,0.82623l31.30382,-0.01008c0,0 0.76055,0.09637 -7.34404,0.75457c-2.75705,0.2239 -13.51408,0.44555 -22.92611,0.13715c-2.54677,-0.08342 -16.2716,-1.20897 -16.2716,-1.20897z" fill="#df8cb7" stroke-width="0"/><path d="M45.72858,248.84879l-1.00797,-5.84685c0,0 5.38839,-2.70772 9.13693,-3.35391c3.06879,-0.52903 12.02358,1.48489 12.02358,1.48489l1.95172,12.11527z" fill="#626061" stroke-width="0"/><path d="M161.79755,238.97272l4.16682,1.82464l11.84434,-3.38451l50.00734,-8.62073l0.18539,1.07519c0,0 -37.5376,6.32373 -49.2234,8.60429c-3.20832,0.62615 -12.64429,2.98431 -12.64429,2.98431z" fill="#ffa6d4" stroke-width="0"/><path d="M53.7488,312.33949l-1.21801,-7.06539l20.26197,-20.36849l0.73822,13.74326l-11.94886,12.34022z" fill="#3f3d3e" stroke-width="0"/><path d="M51.28276,307.62983c0,0 -3.15367,-19.39805 -3.98772,-28.97892c-0.94138,-10.81352 -1.37778,-32.65298 -1.37778,-32.65298c0,0 8.4572,-1.65005 12.26677,-0.6367c3.26048,0.86727 9.20089,6.34715 9.20089,6.34715l5.69986,33.06385c0,0 -9.35736,15.51329 -11.97418,18.25683c-4.02517,4.22008 -9.82783,4.6008 -9.82783,4.6008z" fill="#555354" stroke-width="0"/><path d="M47.56917,256.46794c0,0 -2.53586,-5.64415 -0.95796,-8.65315c1.57789,-3.00903 5.69148,-4.75009 8.21451,-5.18503c2.01271,-0.34697 6.19132,-0.98745 9.78039,2.91812c3.58908,3.90554 2.83049,10.80477 2.83049,10.80477c0,0 -7.97568,-9.18223 -10.56716,-9.16719c-3.65683,0.02124 -9.30035,9.28253 -9.30035,9.28253z" fill="#6f6b6c" stroke-width="0"/><path d="M50.67849,312.67769c0,0 -2.73801,-25.97497 -4.68206,-37.25241c-2.02463,-11.74457 -5.75558,-32.12541 -5.75558,-32.12541c0,0 1.03018,-0.83005 2.05588,-1.00689c0.93787,-0.1617 2.59118,0.20579 2.59118,0.20579c0,0 3.04296,18.91326 4.85982,29.45257c2.11087,12.24484 4.31063,40.14366 4.31063,40.14366z" fill="#333232" stroke-width="0"/><path d="M50.32935,313.18808l-1.42041,-14.68035c0,0 1.19087,0.69669 1.77499,0.55677c0.7376,-0.1767 2.14604,-1.87821 2.14604,-1.87821l1.41084,15.32746z" fill="#2e2d2d" stroke-width="0"/><path d="M69.55703,273.07871c1.38702,8.04595 -1.20467,17.28853 -5.00915,20.91494c-3.15974,3.01188 -9.40135,10.94545 -10.78835,2.89952c-0.29424,-1.70693 -0.29799,-13.76085 -1.36567,-20.71031c-1.41198,-9.19055 -3.87997,-13.81945 -3.41715,-16.77264c0.83697,-5.33983 6.0286,-7.73609 8.21091,-8.1123c4.30181,-0.74157 10.98243,13.73486 12.36946,21.7808z" fill="#585758" stroke-width="0"/><path d="M105.91035,281.10251l-0.87968,-1.61477c0,0 7.59486,-2.67974 13.44314,-4.1792c8.23301,-2.11093 31.29552,-7.29159 31.29552,-7.29159l1.98749,0.95748c0,0 -24.47036,5.86274 -32.92694,8.09981c-2.48357,0.657 -12.91947,4.02833 -12.91947,4.02833z" fill="#585657" stroke-width="0"/><path d="M102.34815,295.11182l2.78839,-14.37401l6.97553,-2.16719c0,0 -0.98003,4.54605 -0.76666,5.27559c1.01933,3.48582 8.04429,26.59535 8.04429,26.59535c0,0 -1.38116,0.68501 -2.87189,-0.96121c-2.6748,-2.95386 -5.64937,-9.40428 -7.73322,-11.17871c-1.80045,-1.53311 -6.43641,-3.18979 -6.43641,-3.18979z" fill="#5a5759" stroke-width="0"/><path d="M109.46234,262.62699l0.92155,-11.65932l2.28055,-0.5059l-1.9788,12.06706z" fill="#a5a0a2" stroke-width="0"/><path d="M115.9693,260.40579l-0.23832,-1.38238l26.11111,-4.50129l0.23832,1.38237z" fill="#494748" stroke-width="0"/><path d="M115.38506,257.49136l-0.23832,-1.38238l26.11111,-4.50129l0.23832,1.38238z" fill="#494748" stroke-width="0"/><path d="M100.04084,282.87481l-3.42116,-19.84564l10.43572,-11.55708l4.72118,-1.13025l-8.76584,44.95616l-5.87002,-1.02095z" fill="#dbd5d8" stroke-width="0"/><path d="M75.95157,299.11772l-2.15867,-11.59259l26.13292,-5.30615c0,0 0.7566,2.44476 0.76394,3.25372c0.01841,2.01667 -0.78108,9.19466 -0.78108,9.19466z" fill="#ccc6c9" stroke-width="0"/><path d="M77.75124,287.24904l-0.05366,-0.31121l22.3378,-4.73205l-2.36633,1.6097c0,0 -4.22719,0.9177 -6.90192,1.34654c-3.66242,0.58727 -13.0159,2.08703 -13.0159,2.08703z" fill="#d8d1d5" stroke-width="0"/><path d="M80.58079,282.96936l-2.88803,-16.75284l15.89063,-2.73938l2.88803,16.75284z" fill="#a39999" stroke-width="0"/><path d="M75.70783,299.33196l-1.92981,-11.19417c0,0 9.79342,4.79259 14.41539,6.37092c4.62201,1.57833 10.98114,0.19797 10.98114,0.19797z" fill="#b4afb1" stroke-width="0"/><path d="M109.88857,299.57136c0,0 3.1622,0.51071 4.21798,0.18287c0.64856,-0.20145 1.51414,-1.96301 1.51414,-1.96301l3.17582,8.65956l0.71268,4.13412c0,0 -1.8619,0.63701 -3.56109,-1.69075c-1.40196,-1.92058 -6.05951,-9.32275 -6.05951,-9.32275z" fill="#504e4f" stroke-width="0"/><path d="M102.74274,295.60839l7.15977,-43.59358l1.75309,-0.09406l-6.989,43.98043z" fill="#858183" stroke-width="0"/><path d="M79.2275,258.30497l1.21238,-1.88383c0,0 26.90768,-5.29202 39.13761,-7.4003c10.6147,-1.82984 31.54057,-5.07908 31.54057,-5.07908l0.85159,1.82321c0,0 -21.10765,2.92237 -32.29621,4.85115c-12.77592,2.20247 -40.4459,7.68884 -40.4459,7.68884z" fill="#918b8e" stroke-width="0"/><path d="M80.02181,256.91915l1.66464,-2.25703c0,0 25.45204,-4.74582 37.6819,-6.85417c10.61469,-1.82984 31.54057,-5.07908 31.54057,-5.07908l0.85158,1.82321c0,0 -21.10764,2.92237 -32.29621,4.85114c-12.77592,2.20247 -39.44248,7.51583 -39.44248,7.51583z" fill="#a59fa2" stroke-width="0"/><path d="M147.22259,266.42707l-2.86293,-5.27292c0,0 0.00384,-1.2235 0.31281,-1.39118c0.27223,-0.14781 1.44476,0.43687 1.44476,0.43687l2.86293,5.27293c0,0 -0.12302,0.91181 -0.39588,1.05993c-0.30864,0.16758 -1.36174,-0.10562 -1.36174,-0.10562z" fill="#494242" stroke-width="0"/><path d="M107.98334,275.87922l1.8799,-9.9497l3.82923,-0.66014l-1.8799,9.9497z" fill="#9c989a" stroke-width="0"/><path d="M114.39168,256.73608l1.65941,-1.26828l24.08668,-4.13395l2.1501,0.5933z" fill="#757274" stroke-width="0"/><path d="M114.96219,259.4905l1.65941,-1.26829l24.08667,-4.13394l2.15011,0.59327z" fill="#757274" stroke-width="0"/><path d="M73.15538,298.77452l-8.1979,-57.60237l1.99103,0.24605l8.80365,57.90496z" fill="#686666" stroke-width="0"/><path d="M73.04029,299.06865l-2.11652,-16.13064l2.90649,3.37375l1.83113,13.19073z" fill="#535252" stroke-width="0"/><path d="M99.45322,271.30325c0,0 1.69472,-2.67222 1.53385,-3.60522c-0.15782,-0.91561 -2.49009,-1.94164 -2.49009,-1.94164c0,0 3.07217,0.14997 3.25633,1.83144c0.14026,1.28078 -0.52319,3.61644 -0.42202,4.71764c0.28763,3.1311 0.85723,10.48864 0.85723,10.48864z" fill="#c4bec1" stroke-width="0"/><path d="M106.69287,268.11536l0.15178,-10.372l1.7721,-4.72398l-0.99264,9.87029z" fill="#aca7a9" stroke-width="0"/></g></g><g stroke-width="0"><path d="M218.30761,220.63316l1.95226,-3.71485c0,0 1.53715,-1.72248 2.39685,-1.59167c0.98019,0.14917 3.17025,2.43896 3.17025,2.43896l0.15939,4.11467c0,0 -4.2203,0.71987 -5.4908,0.80363c-0.57277,0.03777 -2.18788,-2.05077 -2.18788,-2.05077z" fill="#c0c0c0"/><path d="M177.65221,237.43517c0,0 -0.66317,-2.80817 0.1871,-4.11039c1.06555,-1.63197 6.6813,-4.84492 6.6813,-4.84492l0.1045,4.78895l0.49627,2.87875z" fill="#838383"/><path d="M177.46992,237.39119l6.71599,-8.7494l37.0163,-6.38124l1.27097,7.37252z" fill="#999999"/><path d="M178.34285,236.57454l5.07785,-6.80267l33.28143,-5.73738l0.99232,5.75619c0,0 -4.02818,0.69439 -9.20994,1.58774c-3.36898,0.58083 -7.40598,0.19907 -10.96022,0.81174c-3.81282,0.65726 -7.09728,2.30117 -9.23882,2.67035c-4.19132,0.72255 -9.94258,1.71396 -9.94258,1.71396z" fill="#2e2e2e"/><path d="M181.78395,235.97913l7.24435,-7.23924l12.28292,-2.11744c0,0 -6.94484,3.13269 -9.1251,4.43661c-2.31465,1.3842 -5.12158,4.00977 -5.12158,4.00977z" fill="#a5899d"/><path d="M189.63781,234.51079c0,0 4.84605,-1.82188 7.26744,-2.23928c3.09393,-0.53338 9.77797,-0.69919 9.77797,-0.69919l-9.57066,1.30975z" fill="#adadad"/><path d="M177.56984,237.35552l6.0663,-7.897l34.4584,-5.94024l0.11697,0.67857c0,0 -29.83669,5.14355 -33.72594,5.81401c-0.81346,0.14023 -6.91566,7.3447 -6.91566,7.3447z" fill="#8a8a8a"/><path d="M225.11087,235.48771l-1.65727,-9.61355l-0.5822,-7.20777c0,0 1.24975,0.26137 1.89135,0.72261c0.64157,0.46121 1.21105,1.50752 1.21105,1.50752l1.12084,14.24924z" fill="#9e9e9e"/><path d="M219.01981,232.2446c0,0 -1.25952,-1.93912 -1.66416,-3.48196c-0.54495,-2.07755 -0.63932,-7.66087 -0.63932,-7.66087l1.85793,-0.65042c0,0 0.88234,0.65136 1.32796,0.42318c0.61436,-0.31457 2.01727,-2.13611 2.01727,-2.13611l1.68214,12.71639z" fill="#9c9c9c"/><path d="M219.89642,233.9511c-0.95864,-0.95549 -0.95497,-2.3495 -0.95497,-2.3495l3.5836,-7.92437c0,0 2.03317,3.59056 2.18887,4.49371c0.44262,2.56766 2.2414,7.07735 2.2414,7.07735c0,0 -2.92256,0.58879 -4.02083,0.33302c-1.31724,-0.30673 -2.07931,-0.67479 -3.03799,-1.63028z" fill="#888888"/><path d="M221.51971,232.88557c-1.31362,-1.80278 -3.06767,-6.0293 -1.94141,-10.35021c1.12627,-4.32093 3.86758,-2.63088 3.86758,-2.63088c0,0 1.74327,4.18771 2.13619,6.46694c0.35794,2.0762 0.12616,6.65627 0.12616,6.65627c0,0 -2.87486,1.66066 -4.18848,-0.14217z" fill="#b4b4b4"/><path d="M224.31366,224.59517c0.23973,1.39056 -4.78283,2.33493 -5.02254,0.94443c-0.23973,-1.39056 1.85683,-7.23386 2.65745,-7.37184c0.31008,-0.05341 0.96187,-0.06249 1.33572,0.94944c0.5914,1.60086 0.8825,4.62606 1.02938,5.47804z" fill="#bbbbbb"/></g><g stroke-width="0"><path d="M161.70002,238.97414c0,0 -6.6068,-3.8509 -6.92507,-5.69707c-0.2599,-1.50741 5.66769,-2.65419 5.66769,-2.65419l7.44783,-1.21101l-2.13446,11.30591z" fill="#f399c8"/><path d="M131.8965,245.77786c0,0 -1.31236,-1.90254 -1.24108,-3.00335c0.07867,-1.21486 1.4966,-5.11737 1.4966,-5.11737l22.67172,-4.09677l10.45845,6.94744z" fill="#ee96c3"/></g></g><g stroke-width="0"><g><path d="M222.64584,210.11739l-1.05021,-6.09193l47.12307,-8.12353l1.05021,6.09193z" fill="#61585b"/><path d="M221.93391,206.94872l-0.56235,-3.26222l47.30226,-8.15441l0.56235,3.26221c0,0 -8.51527,1.46793 -17.26259,2.97589c-2.73493,0.47147 -6.32217,2.6295 -8.84931,3.06511c-3.00505,0.51805 -6.48567,-0.42156 -8.41328,-0.08928c-5.78007,0.99643 -12.77708,2.20259 -12.77708,2.20259z" fill="#494344"/><path d="M281.74044,189.93607l-12.41405,-17.07215l20.61517,-3.55382l18.05396,13.90941c0,0 -5.39583,2.31165 -8.53705,3.11524c-4.84712,1.24001 -17.71799,3.60134 -17.71799,3.60134z" fill="#5e555b"/><path d="M282.32609,193.32082l-0.94089,-5.45798c0,0 11.87285,-3.52131 16.56146,-5.12071c3.72093,-1.26929 6.38702,-2.31953 6.38702,-2.31953l7.03184,5.8289c0,0 -4.98372,2.47881 -8.9959,3.62097c-5.43627,1.54754 -20.04343,3.4484 -20.04343,3.4484z" fill="url(#color-5)"/><path d="M267.68314,173.30835l-0.67888,-3.93811l18.87316,-3.25352l4.26241,3.32032z" fill="url(#color-6)"/><path d="M281.75499,193.44457l-0.21391,-1.24095c0,0 15.36984,-2.72712 20.64958,-3.80733c3.94793,-0.80768 8.0363,-3.11259 8.0363,-3.11259l1.07042,0.97711l-7.75269,3.42739z" fill="#312c30"/><g><path d="M180.40292,200.15968l-1.72805,-8.69111l92.56001,-15.95639l9.44607,9.81985z" fill="#8a6672"/><path d="M198.10938,205.51516c0,0 -4.08093,-2.95546 -7.09315,-3.91931c-3.01224,-0.9639 -9.93046,0.46969 -9.93046,0.46969l-0.24402,-2.07577c0,0 12.19109,-1.82118 19.13442,-2.92145c16.58662,-2.6286 79.95524,-12.78182 79.95524,-12.78182l4.68614,5.85602z" fill="#755761"/><path d="M201.33967,207.486l-3.42177,-2.04018l86.23012,-15.36174l1.71139,2.83154z" fill="#694e57"/><path d="M178.57986,191.88693l-0.76939,-4.46317l89.37081,-16.09599l4.75546,4.92494c0,0 3.28218,2.82147 -1.93151,3.69457c-1.64129,0.27486 -11.20185,-1.49517 -12.84726,-1.21961c-15.84629,2.65371 -78.57803,13.15924 -78.57803,13.15924z" fill="#916b77"/><path d="M178.04884,187.38277l-0.54602,-2.46763l88.57832,-15.41074l1.4364,2.17997z" fill="#9e7582"/><path d="M251.21333,175.46398c-8.0606,0.73208 -71.95985,10.70012 -71.95985,10.70012l86.57701,-14.92496l5.99515,6.51741c0,0 -12.55162,-3.02463 -20.61228,-2.29254z" fill="#b38f9a"/></g><path d="M231.76228,202.23851l-1.55845,-9.04044l19.91842,-3.43375l1.55845,9.04045z" fill="#3a3336"/><path d="M230.11798,193.21712l0.4474,-1.62208l18.26895,-3.14939l1.22944,1.33299z" fill="#4b4246"/><path d="M231.81555,201.7226l-1.38924,-8.05871c0,0 1.93832,5.00938 4.74557,5.64802c2.80726,0.63868 16.00548,-0.9271 16.00548,-0.9271z" fill="#332c30"/><path d="M269.29845,175.28651l-4.88232,-5.24684c0,0 0.89482,-0.83076 1.48672,-0.93275c0.66171,-0.11407 2.29744,0.28047 2.29744,0.28047l4.88232,5.24684z" fill="#757575"/><path d="M273.07927,179.43914l-7.01549,-7.52989l3.78419,-0.65235l7.01549,7.52988z" fill="#5a5a5a"/><path d="M278.35804,185.07322l-7.01549,-7.52988l3.78418,-0.65235l7.01549,7.52989z" fill="#505050"/><path d="M283.81804,190.9102c-1.19822,-1.28607 -5.87349,-6.30419 -5.87349,-6.30419l3.78418,-0.65234l8.27204,9.0528c0,0 -1.93492,0.87696 -2.87316,1.02367c-0.73182,0.11445 -2.78122,-2.55287 -3.30956,-3.11998z" fill="#3b3b3b"/><path d="M179.32464,202.98206l-3.17255,-18.40329l3.13472,-0.5404l3.17255,18.40329z" fill="#443e42"/><path d="M160.99451,207.76454l-1.68285,-5.72536l19.93451,-3.43654l1.00709,5.84186z" fill="url(#color-7)"/><path d="M159.41882,202.66061l-1.84273,-10.68931l19.93451,-3.43654l1.84273,10.68932z" fill="#5e555b"/><path d="M157.59755,192.09578l0.08125,-4.23764l19.14613,-3.30061l0.70708,4.10174z" fill="url(#color-8)"/><path d="M226.2027,176.24549l-1.04199,-6.04418l14.98507,-1.50089l5.35537,3.85739z" fill="#5e555b"/><path d="M245.56163,172.90821l-5.4007,-4.12018c0,0 3.08967,0.16817 5.45514,0.77338c2.36545,0.60519 6.34012,2.24441 6.34012,2.24441z" fill="#776b73"/><path d="M223.42067,177.89769l2.94209,-1.76998l25.18263,-4.6118l3.8482,0.87003z" fill="#6d6269"/></g><g><path d="M232.51332,198.08037c-0.21216,-1.23067 0.09427,-2.45726 0.3023,-3.53787c0.28989,-1.50581 0.68185,-2.77871 1.81303,-3.83237c0.69096,-0.64364 1.74555,-1.22056 2.67928,-1.62542c0.61755,-0.26777 1.53425,-0.83175 2.22705,-0.9512c1.57054,-0.27077 1.92175,-0.24834 3.13904,0.04514c0.73327,0.17681 2.42519,0.34083 3.06658,0.91233c0.54287,0.48366 1.17287,1.33762 1.62507,1.94931c0.77274,1.04538 1.8803,2.74645 2.1162,4.11489c0.09971,0.57831 -0.1577,1.98088 -0.11911,2.49728c0.1226,1.63945 0.20846,2.14178 -0.79987,3.43537c-0.6129,0.78623 -2.00515,1.58218 -2.90504,2.1533c-0.9319,0.5915 -2.04201,1.66171 -3.19773,1.86096c-0.77999,0.13448 -2.2782,-0.15012 -3.05699,-0.1541c-1.68959,-0.00859 -2.59835,-0.02891 -3.80653,-0.97765c-1.03611,-0.81352 -1.56445,-2.34436 -2.15409,-3.62034c-0.30972,-0.67034 -0.79787,-1.50722 -0.92933,-2.26964z" fill="#3a3a3a"/><path d="M233.21359,197.83929c-0.19415,-1.12623 0.08632,-2.24865 0.27662,-3.23753c0.26529,-1.37794 0.62395,-2.54275 1.65913,-3.50702c0.6323,-0.58896 1.59737,-1.1169 2.45178,-1.48742c0.56516,-0.24503 1.40405,-0.76117 2.03793,-0.87045c1.43721,-0.24776 1.75859,-0.22727 2.87255,0.04128c0.67101,0.16179 2.21925,0.31194 2.80621,0.83482c0.49681,0.44261 1.07336,1.22408 1.4871,1.78382c0.70716,0.95664 1.72067,2.51329 1.93651,3.76551c0.09124,0.52918 -0.14433,1.81267 -0.10899,2.28527c0.11223,1.50025 0.19078,1.95992 -0.73201,3.14367c-0.56086,0.71949 -1.83495,1.44779 -2.65834,1.97047c-0.85279,0.54129 -1.86867,1.52067 -2.9262,1.703c-0.71375,0.12306 -2.08477,-0.13739 -2.79743,-0.14097c-1.54612,-0.0078 -2.37771,-0.02645 -3.48338,-0.89461c-0.94815,-0.74448 -1.43163,-2.14534 -1.97114,-3.313c-0.28338,-0.61342 -0.73009,-1.37928 -0.8504,-2.07691z" fill="#5a5a5a"/><path d="M244.45884,191.30455c-2.42053,-2.0037 -7.47404,-1.33608 -7.47404,-1.33608c0,0 1.82231,-0.86213 3.78475,-1.19338c1.58961,-0.26835 3.20103,-0.17631 4.56473,0.90879c1.36482,1.08596 2.00521,2.48218 2.52489,3.80869c1.01894,2.60068 0.99399,5.03309 0.99399,5.03309c0,0 -1.97379,-5.21736 -4.39432,-7.22103z" fill="#6d6d6d"/><path d="M240.06199,197.15536c-0.09785,-0.56734 0.2828,-1.10654 0.8502,-1.20439c0.56734,-0.09785 1.10654,0.2828 1.20439,0.85021c0.09785,0.56734 -0.2828,1.10654 -0.85021,1.20438c-0.56734,0.09785 -1.10654,-0.2828 -1.20438,-0.85021z" fill="#272727"/><path d="M240.00738,197.30366c-0.08969,-0.5204 0.25941,-1.01489 0.77975,-1.10464c0.5204,-0.08969 1.01489,0.25941 1.10464,0.77975c0.08969,0.5204 -0.25941,1.01489 -0.77974,1.10464c-0.5204,0.08969 -1.01489,-0.25941 -1.10464,-0.77974z" fill="#131313"/></g></g></g></g></g><path d="M171.09988,320.69156c-0.26923,-1.56165 -11.70729,-42.84459 -11.50374,-44.57953c0.27485,-2.34252 8.86216,-2.45234 11.52711,-4.44179c8.16171,-6.09301 17.0528,-12.2805 17.0528,-12.2805c0,0 13.96249,-1.81797 18.13741,-2.53761c3.12208,-0.53822 62.10721,-19.32214 64.59131,-9.27659c3.36937,13.6256 -41.51645,9.47222 -39.45566,21.42653c0.52168,3.02628 2.92961,2.80954 2.90676,6.00716c-0.0055,0.76743 -1.44322,6.27054 -1.37955,7.9604c0.10103,2.68237 4.02826,6.06694 1.29274,9.6835c-2.18058,2.88292 0.57558,7.49863 0.15258,8.80511c-2.91473,9.003 -11.76886,6.66882 -20.65071,8.19995c-10.53069,1.81541 -25.22222,8.12633 -34.67962,8.50109c-4.0824,0.16173 -7.20779,7.07815 -7.9914,2.53244z" fill="#86c8f5" stroke-width="0"/></g></g></svg>