<svg version="1.1" xmlns="http://www.w3.org/2000/svg" xmlns:xlink="http://www.w3.org/1999/xlink" width="469.41137" height="188.71444" viewBox="0,0,469.41137,188.71444"><defs><linearGradient x1="532.12364" y1="203.13156" x2="531.3693" y2="207.88366" gradientUnits="userSpaceOnUse" id="color-1"><stop offset="0" stop-color="#1f1d20"/><stop offset="1" stop-color="#202022"/></linearGradient><linearGradient x1="533.31897" y1="198.40547" x2="532.451" y2="203.87321" gradientUnits="userSpaceOnUse" id="color-2"><stop offset="0" stop-color="#302d31"/><stop offset="1" stop-color="#1f1e20"/></linearGradient><linearGradient x1="195.13815" y1="193.39311" x2="194.60664" y2="196.74124" gradientUnits="userSpaceOnUse" id="color-3"><stop offset="0" stop-color="#585758"/><stop offset="1" stop-color="#575758"/></linearGradient><linearGradient x1="180.607" y1="201.29107" x2="180.18973" y2="203.91954" gradientUnits="userSpaceOnUse" id="color-4"><stop offset="0" stop-color="#363536"/><stop offset="1" stop-color="#353536"/></linearGradient><linearGradient x1="336.75007" y1="132.11429" x2="335.88176" y2="137.58431" gradientUnits="userSpaceOnUse" id="color-5"><stop offset="0" stop-color="#5e555b"/><stop offset="1" stop-color="#2b2629"/></linearGradient><linearGradient x1="330.35336" y1="110.17315" x2="329.72681" y2="114.11989" gradientUnits="userSpaceOnUse" id="color-6"><stop offset="0" stop-color="#72676e"/><stop offset="1" stop-color="#5e555b"/></linearGradient><linearGradient x1="216.61443" y1="106.19055" x2="215.68505" y2="112.04528" gradientUnits="userSpaceOnUse" id="color-7"><stop offset="0" stop-color="#5e555b"/><stop offset="1" stop-color="#4d454a"/></linearGradient><linearGradient x1="218.84895" y1="92.11454" x2="218.19638" y2="96.22528" gradientUnits="userSpaceOnUse" id="color-8"><stop offset="0" stop-color="#74686f"/><stop offset="1" stop-color="#5e555b"/></linearGradient></defs><g transform="translate(-67.63628,-90.65423)"><g data-paper-data="{&quot;isPaintingLayer&quot;:true}" fill-rule="nonzero" stroke="none" stroke-linecap="butt" stroke-linejoin="miter" stroke-miterlimit="10" stroke-dasharray="" stroke-dashoffset="0" style="mix-blend-mode: normal"><path d="M98.64673,226.83297c1.45899,-3.91669 4.89525,-15.82611 7.47959,-24.23092c2.58432,-8.40479 13.09421,-17.24963 16.58927,-14.64034c3.49505,2.60929 2.00257,1.15769 3.29982,9.0423c0.54139,3.29054 -3.32615,7.17022 -5.56193,10.48712c-2.87193,4.26064 -4.9982,11.20439 -4.0723,11.76898c0.81755,0.49853 2.79168,5.80309 3.65548,5.97533c9.6579,1.92575 19.23365,-0.33738 24.66799,1.68695c7.08827,2.64045 3.47164,13.3104 4.4059,19.89232c0.50758,3.57594 0.65259,6.83833 1.87893,10.05779c1.1723,3.07757 -2.48548,8.67512 -3.85679,12.3564c-5.44629,14.62059 -24.37488,10.66084 -38.99546,5.21453c-3.94182,-1.46837 -5.97546,6.42572 -9.07841,2.49815c-6.37117,-8.06435 -11.89151,-30.85347 -10.15251,-40.8708c0.55545,-3.19969 8.77743,-6.65263 9.74044,-9.23783z" fill="#86c8f5" stroke-width="0"/><g><g stroke-width="0"><path d="M258.11708,188.21147l-7.69782,-16.7594l25.3517,3.42687c0,0 -1.99874,5.58452 -2.61925,8.21833c-0.60023,2.54779 -1.04496,7.33502 -1.04496,7.33502z" fill="#7f7d7e"/><path d="M258.18342,188.42119l-2.71553,-6.10822c0,0 1.77205,3.8809 4.87176,4.99534c2.23211,0.80251 4.14352,0.7921 6.74152,1.52937c2.59799,0.73723 4.89763,1.77346 4.89763,1.77346z" fill="#6c6a6b"/></g><g><g><g><path d="M528.41517,207.41471l-1.27914,-5.07489c0,0 5.65743,2.57674 8.08275,3.86575c2.42526,1.28906 0.72766,2.16991 0.72766,2.16991z" fill="url(#color-1)" stroke-width="0"/><path d="M536.82791,199.16461c0,0 1.09639,2.53098 -1.60884,3.00563c-2.70523,0.47464 -5.76412,1.22742 -5.76412,1.22742l-0.09067,-5.61997z" data-paper-data="{&quot;index&quot;:null}" fill="url(#color-2)" stroke-width="0"/><path d="M518.91698,205.90228l0.32898,-2.07241l14.58987,2.31607c0,0 1.11747,0.98166 1.54187,1.41987c0.38147,0.39392 -0.87313,0.81093 -0.87313,0.81093z" fill="#444444" stroke-width="NaN"/><path d="M519.25674,203.9768l-0.90098,-1.91888l12.45966,1.97789l3.0946,2.15388c0,0 -4.20303,-0.42624 -6.48205,-0.7704c-2.57027,-0.38816 -8.17121,-1.44255 -8.17121,-1.44255z" fill="#535353" stroke-width="0"/><path d="M518.2236,202.17536l-0.2204,-0.68301l11.33189,1.79887l1.58223,0.78348z" fill="#363636" stroke-width="0"/><path d="M518.91698,205.90228l0.17847,-1.12426c0,0 6.30269,1.4598 9.14683,1.91132c2.41023,0.38261 6.83277,0.62537 6.83277,0.62537c0,0 0.781,0.59199 0.99342,0.83116c0.17921,0.20174 -0.31978,0.42841 -0.31978,0.42841c0,0 -4.73764,-0.34252 -7.02278,-0.70527c-3.08296,-0.48942 -9.80894,-1.96667 -9.80894,-1.96667z" fill="#3a3a3a" stroke-width="NaN"/><path d="M518.31728,201.56071l-0.40812,-0.95956l13.47293,2.13874l-1.94295,0.62067z" fill="#242424" stroke-width="0"/><path d="M517.08142,200.66137l0.25937,-1.63383c0,0 8.02556,1.06524 10.98424,1.53493c2.01579,0.31997 5.05142,1.01065 5.05142,1.01065l-2.0247,1.18659z" fill="#3a3a3a" stroke-width="0"/><path d="M517.20618,199.04921l0.32022,-2.01729c0,0 7.61036,0.87407 10.88365,1.3937c2.83253,0.44966 7.62566,1.54457 7.62566,1.54457l-2.70853,1.63819c0,0 -3.59679,-0.65448 -5.81343,-1.00639c-2.94649,-0.46777 -10.30757,-1.55275 -10.30757,-1.55275z" fill="#444444" stroke-width="0"/><path d="M517.47044,197.10919l0.13342,-0.84055c0,0 7.79586,1.11229 11.34858,1.67629c2.47385,0.39272 7.92837,1.38385 7.92837,1.38385l-0.98776,0.70495c0,0 -4.94621,-1.07745 -7.87475,-1.54237c-3.22653,-0.51218 -10.54785,-1.38215 -10.54785,-1.38215z" fill="#535353" stroke-width="0"/><path d="M517.46258,196.33242l0.05337,-0.33621c0,0 7.66091,0.70274 11.07843,1.24527c2.95479,0.46906 8.2412,1.82164 8.2412,1.82164l-0.01626,0.34212c0,0 -5.90872,-1.10502 -9.11364,-1.61376c-3.24681,-0.51543 -10.24314,-1.45902 -10.24314,-1.45902z" fill="#4e4e4e" stroke-width="0"/></g><g stroke-width="0"><g><g><g><path d="M513.21211,204.50255l-2.46136,-13.7192l0.81603,-1.61336c0,0 2.92559,3.73407 3.44607,6.33825c0.28259,1.41381 -0.36422,9.22236 -0.36422,9.22236z" fill="#383638"/><path d="M514.35866,203.98449c0,0 0.15324,-0.593 -0.08274,-3.11608c-0.25735,-2.75154 -1.06233,-6.5619 -1.28224,-7.68423c-0.49363,-2.51924 -1.21873,-2.76645 -1.21873,-2.76645l4.83184,0.17794l2.77979,14.18703z" fill="#555355"/><path d="M511.82474,190.51201l-0.38079,-1.31228c0,0 2.12066,-0.47337 3.07039,-0.32262c0.88995,0.14128 1.89715,1.03754 1.89715,1.03754l0.36938,1.38414z" fill="#686668"/></g><path d="M507.60952,203.61316l-2.46136,-13.71919l0.48616,-1.64534c0,0 3.25546,3.766 3.77596,6.37022c0.28259,1.4138 -0.36422,9.22236 -0.36422,9.22236z" fill="#383638"/><path d="M508.75609,203.0951c0,0 0.15324,-0.59301 -0.08273,-3.11608c-0.25735,-2.75154 -1.06233,-6.5619 -1.28224,-7.68423c-0.49363,-2.51924 -1.21873,-2.76645 -1.21873,-2.76645l4.16953,-0.43346c0,0 0.81677,1.3996 0.96723,2.16749c0.42866,2.18769 2.47491,12.63096 2.47491,12.63096z" fill="#555355"/><path d="M506.22223,189.62261l-0.59627,-1.34652c0,0 2.33608,-0.43919 3.28586,-0.28839c0.88995,0.14128 1.60984,0.99194 1.60984,0.99194l0.49284,1.40372z" fill="#686668"/><path d="M515.32267,203.1313c0.1285,-0.80938 0.88878,-1.36134 1.69818,-1.23286c0.80938,0.1285 1.36134,0.88878 1.23286,1.69818c-0.1285,0.80938 -0.88878,1.36134 -1.69818,1.23286c-0.80938,-0.1285 -1.36134,-0.88878 -1.23286,-1.69818z" fill="#312f31"/><path d="M516.42946,200.34105l-1.10505,-5.79139l1.59412,0.10791l1.09495,5.8551z" fill="#444144"/></g><path d="M469.54208,192.54149l-2.02119,-11.27991l29.32838,5.84691l-1.97724,9.45398z" fill="#444444"/><path d="M482.6405,190.65629c0,0 0.70993,-0.4158 1.59653,-1.39377c0.81066,-0.89419 1.78155,-2.33771 2.23418,-2.73542c1.23075,-1.53246 3.50668,-0.69852 3.50668,-0.69852l-1.06985,0.4914l-5.13883,4.51545z" fill="#292929"/><path d="M483.75443,201.49439l-4.71362,-11.85706c0,0 3.37216,1.07328 5.21923,0.30425c1.4353,-0.59763 1.75494,-3.21181 3.35687,-3.24192c4.59596,-0.08642 17.37929,1.50356 17.37929,1.50356c0,0 2.07992,7.56462 2.54302,10.56132c0.31972,2.06883 0.03129,6.51053 0.03129,6.51053z" fill="#4a464a"/><path d="M489.89558,189.19658c-4.40468,-1.34327 -2.76784,-2.46443 -2.76784,-2.46443c0,0 0.98709,-1.16187 2.85424,-1.01339c4.58195,0.36421 13.02766,2.28905 14.73263,2.53374c0.8041,0.11541 0.23319,0.74151 0.23319,0.74151c0,0 -1.84502,2.12296 -3.41633,2.13073c-1.57131,0.00777 -7.23119,-0.58487 -11.6359,-1.92813z" fill="#5e595e"/></g><g><path d="M471.06552,206.13774l-2.28551,-18.5229l18.62908,3.24716l4.06148,5.02728l6.03926,0.85895l0.82715,13.71869z" fill="#4d4846"/><path d="M475.6374,207.25546l21.8732,-6.03691l22.08363,3.26021c0,0 0.64002,4.3368 0.5688,5.6971c-0.03631,0.6935 -0.61464,2.88337 -0.61464,2.88337z" fill="#423d3b"/><path d="M473.1738,198.44928l-1.59648,-10.22288l0.81036,0.12866l1.59648,10.22288z" fill="#363332"/><path d="M476.34141,206.55561l0.19087,-1.20232c0,0 5.59845,-1.68859 14.55124,-0.26739c1.1895,0.18881 4.98621,3.36886 6.18513,3.55918c7.60685,1.20753 15.0525,2.38948 17.88515,2.83916c2.30686,0.36621 4.8664,-0.54378 4.8664,-0.54378l-0.39468,2.48625z" fill="#312e2c"/><path d="M480.67939,194.34447l-0.99841,-4.83166l8.20497,1.30252l3.41045,5.01806l6.19812,1.1804l-7.8014,0.73469z" fill="#585350"/><path d="M470.20804,199.79585l0.17687,-1.11426c0,0 8.53326,-2.43586 11.37492,-1.98476c4.28271,0.67984 16.10604,2.55675 16.10604,2.55675l-0.17687,1.11426c0,0 -12.02595,-1.90907 -16.30862,-2.58892c-2.78329,-0.44183 -11.17234,2.01691 -11.17234,2.01691z" fill="#2b2827"/></g></g></g><g><g><g><path d="M133.02669,189.45814c0.18386,2.29116 -0.5277,4.80014 -1.64665,4.88993c-1.11894,0.08979 -2.22151,-2.27361 -2.40538,-4.56477c-0.18386,-2.29116 -0.94803,-11.09016 0.17091,-11.17997c1.11894,-0.08979 3.69724,8.56365 3.88109,10.85482z" fill="#615e5f" stroke-width="0"/><g><path d="M178.7971,166.42021c-0.44994,-0.60564 -2.55592,-2.26877 -2.55592,-2.26877l10.24885,-1.28912l-7.05464,6.17028c0,0 -0.18836,-2.00675 -0.63832,-2.61238z" fill="#756a6a" stroke-width="0"/><path d="M170.14822,163.32883l2.15315,-13.56349l19.22394,-2.88844l-3.0729,19.35762z" fill="#8a7c7c" stroke-width="0"/><path d="M129.75355,162.43164l9.42722,-16.86387l34.52224,5.3452l2.49136,13.22076c0,0 -22.95269,-2.04783 -30.69975,-2.33177c-3.21587,-0.11788 -15.74105,0.62971 -15.74105,0.62971z" fill="#7c787a" stroke-width="0"/><path d="M138.92058,147.96142l0.08594,-1.48637c0,0 25.60363,4.06446 33.6527,5.34215c4.50348,0.71487 16.94719,-3.75988 16.94719,-3.75988l-0.25548,1.60949c0,0 -12.15017,4.50178 -16.50331,3.79596c-7.98202,-1.29429 -33.92702,-5.50134 -33.92702,-5.50134z" fill="#535353" stroke-width="0"/><path d="M97.95978,158.10127l3.15977,-19.90476c0,0 5.58107,-6.25651 13.09563,-7.38831c9.33341,-1.40575 25.73344,3.00513 27.77848,3.32976c1.56933,0.24914 -14.38113,8.26415 -14.38113,8.26415l-3.15977,19.90476z" fill="#8d898b" stroke-width="0"/><path d="M276.00272,139.64402l2.07578,-2.85413l106.21255,17.0053l-2.31194,14.56387c0,0 -37.60269,-4.1006 -49.60718,-6.42758c-5.96173,-1.15564 -56.36918,-22.28751 -56.36918,-22.28751z" fill="#c98cac" stroke-width="0"/><path d="M238.77162,235.99856l-2.45929,-13.48881c0,0 4.15899,6.57281 6.8026,8.08279c1.68431,0.96206 5.79837,2.0017 12.21569,0.55249c5.16621,-1.16667 11.13498,-5.79897 11.13498,-5.79897l-13.86343,12.848z" fill="#a08e97" stroke-width="0"/><path d="M335.49783,203.84981l1.39436,-23.69584l18.53795,1.52248l-3.3233,20.93489c0,0 -6.58781,0.69487 -9.42817,0.95096c-1.30784,0.11795 -7.18081,0.28752 -7.18081,0.28752z" fill="#96858d" stroke-width="0"/><path d="M236.36939,239.40999l0.8686,-5.47164c0,0 11.58975,3.93425 16.64154,1.57578c3.418,-1.59571 40.5953,-35.82429 40.5953,-35.82429c0,0 3.90937,-3.19988 4.36522,-6.04578c0.22932,-1.43162 1.34859,-5.48497 0.88971,-7.89813c-0.46298,-2.43469 -2.50519,-3.22296 -2.50519,-3.22296l-2.68404,-14.16832l19.54843,3.2487l-7.03961,25.78856l3.31005,3.1194c0,0 -10.37757,4.42788 -15.7262,8.59653c-8.36863,6.52243 -36.23248,32.86457 -36.23248,32.86457z" fill="#918189" stroke-width="0"/><path d="M312.54901,200.56399l5.68313,-28.05987l13.56205,2.4321l8.35382,13.47858l-4.77316,15.77272z" fill="#96858d" stroke-width="0"/><path d="M307.79048,201.68096l-1.82827,-4.48791l7.60128,-25.31116l5.0303,0.71278l-5.14913,28.12723z" fill="#8f8187" stroke-width="0"/><path d="M334.13958,204.09628c0,0 3.76298,-6.1532 3.27531,-11.70919c-0.2808,-3.19909 -4.82218,-5.9144 -4.99432,-7.87556c-0.32882,-3.74632 -0.83749,-9.54194 -0.83749,-9.54194l7.07378,5.54152c0,0 2.23304,7.65857 2.15528,11.9611c-0.05225,2.89066 -2.51723,8.95518 -3.83983,11.37663c-0.11149,0.20413 -1.26005,-0.06249 -1.33698,0.09268c-0.18787,0.37909 0.72814,0.75874 0.72814,0.75874z" fill="#86787e" stroke-width="0"/><path d="M338.20969,181.95882c0,0 -2.43256,-4.39063 -6.90481,-6.08436c-5.06311,-1.91745 -21.92192,-4.83278 -21.92192,-4.83278l158.01015,10.72385l1.91492,9.72222l6.07297,12.24623c0,0 -99.14227,-18.34193 -119.47603,-21.56981c-6.63516,-1.05329 -17.69529,-0.20541 -17.69529,-0.20541z" fill="#df8db7" stroke-width="0"/><path d="M178.48654,204.47598l0.94773,-36.57356c0,0 2.25044,-3.4404 2.77924,-3.5748c5.83005,-1.48215 39.14054,-6.97945 44.46761,-5.84395c5.83554,1.24385 -10.96598,10.65466 -10.96598,10.65466c0,0 -14.54923,-0.25834 -17.72188,3.54115c-4.30749,5.15856 -2.24077,23.05747 -2.24077,23.05747z" fill="#c77da3" stroke-width="0"/><path d="M254.70355,186.27136l-1.43729,-2.35979c0,0 7.82724,-7.4718 10.59017,-9.35463c2.85246,-1.94387 6.26459,-2.13131 6.26459,-2.13131l5.50113,3.20432c0,0 -4.3419,-1.19812 -6.94551,0.12635c-2.23508,1.13699 -6.42343,3.58936 -9.67386,6.20442c-2.36439,1.90229 -4.29921,4.31069 -4.29921,4.31069z" fill="#414041" stroke-width="0"/><path d="M138.76922,146.87796l6.57333,-10.79238l48.02706,7.62403c0,0 -3.56127,3.94595 -6.95054,5.39868c-3.32645,1.4258 -13.20017,3.23839 -13.20017,3.23839z" fill="#979395" stroke-width="0"/><path d="M139.73848,145.87464l5.78321,-10.91785l48.02706,7.62403c0,0 -3.56127,3.94595 -6.95054,5.39868c-3.32645,1.4258 -13.20017,3.23839 -13.20017,3.23839z" fill="#bdb7ba" stroke-width="0"/><path d="M336.46769,204.79058l-1.76925,-0.80077l17.29506,-1.48158c0,0 -3.8389,1.47375 -6.41707,1.87137c-2.57819,0.39764 -9.10871,0.41099 -9.10871,0.41099z" fill="#887980" stroke-width="0"/><path d="M180.86868,205.32444c0,0 -0.67047,-10.70296 -0.51807,-19.32413c0.15315,-8.66325 0.3219,-16.78392 0.8621,-20.32776c0.09154,-0.60039 3.2762,-10.14983 3.85155,-10.58646c3.10558,-2.35665 9.53755,6.50491 15.20586,6.28739c8.3929,-0.32212 27.34567,2.166 27.34567,2.166l-9.18179,3.91962c0,0 -19.6583,-0.21962 -22.82579,4.47913c-4.28434,6.35552 -0.07963,28.15711 -0.07963,28.15711z" fill="#d486ae" stroke-width="0"/><path d="M182.53788,202.02652c0,0 -0.17086,-41.41045 2.71954,-51.15481c1.3524,-4.55927 -0.53302,-14.08048 -0.53302,-14.08048l48.94809,14.82615l-1.11318,16.09449c0,0 -31.16107,-8.07858 -38.41659,-2.87786c-4.84332,3.47165 -2.54641,32.43299 -2.54641,32.43299z" fill="#e490bb" stroke-width="0"/><g stroke-width="0"><path d="M329.12625,161.51405l1.29733,-8.17253l9.24425,1.46747l-1.29733,8.17253z" fill="#454545"/><path d="M330.06822,160.88924l0.7919,-7.26376l11.18613,1.77574l-1.14422,7.20787z" fill="#b0b0b0"/><path d="M330.54431,156.41954l0.21801,-2.83115l11.40012,1.80972l-0.29906,1.88382c0,0 -7.74702,-0.90332 -9.44712,-1.03282c-0.56807,-0.04328 -1.87194,0.17047 -1.87194,0.17047z" fill="#bebebe"/><path d="M341.23846,162.10602c0,0 -5.07155,-3.39242 -3.92002,-7.00424c1.7111,-5.36711 5.7064,-4.24879 5.7064,-4.24879l39.53571,7.62613l-1.57732,9.93619z" fill="#9c989a"/><path d="M343.20574,161.11294c0,0 -1.90431,-3.86529 -2.00013,-4.81896c-0.14202,-1.41358 2.29173,-4.0216 2.29173,-4.0216l41.07611,6.55437l-1.56913,7.33334z" fill="#898587"/><path d="M343.08544,161.29461l-0.70296,-2.07525l37.75893,5.99401l-0.30408,1.91541z" fill="#c1bcbf"/><path d="M343.49791,157.92361c0,0 -1.10237,-1.56012 -0.95542,-2.48585c0.13746,-0.86596 1.81058,-2.90123 1.81058,-2.90123l38.18851,6.06225l-0.85518,5.38707z" fill="#0d0d0d"/><path d="M343.37601,158.69133c0,0 -1.00772,-2.15642 -0.86074,-3.08216c0.13746,-0.86596 1.71594,-2.30491 1.71594,-2.30491l38.18851,6.06225l-0.85518,5.38707z" fill="#2e2e2e"/><path d="M338.31132,159.81446c-2.12537,-3.44273 -0.60829,-5.56771 -0.60829,-5.56771c0,0 1.16486,4.34874 2.24434,5.42897c1.27806,1.27889 4.62911,3.19392 4.62911,3.19392l-3.47636,-0.4808c0,0 -2.41473,-1.96842 -2.78878,-2.57433z" fill="#7d7a7c"/><path d="M345.89534,159.40483c0,0 -0.53109,-2.32403 -0.3518,-3.45343c0.15759,-0.99281 1.3709,-2.96619 1.3709,-2.96619l4.76369,0.75621c0,0 -0.80095,2.10441 -0.93709,2.96193c-0.18709,1.17852 -0.082,3.45769 -0.082,3.45769z" fill="#555555"/><path d="M354.40545,160.75573c0,0 1.05399,-2.38738 1.23328,-3.5168c0.15759,-0.9928 -0.21419,-2.90282 -0.21419,-2.90282l5.31676,0.84399c0,0 -0.6804,1.62855 -0.81652,2.48604c-0.18709,1.17852 -0.20255,3.93355 -0.20255,3.93355z" fill="#555555"/><path d="M363.61676,162.21801c0,0 1.054,-2.38738 1.23329,-3.5168c0.15759,-0.99281 -0.2142,-2.90282 -0.2142,-2.90282l5.23776,0.83148c0,0 -0.6804,1.62855 -0.81652,2.48604c-0.18709,1.17852 -0.20255,3.93355 -0.20255,3.93355z" fill="#555555"/><path d="M373.16059,163.73304c0,0 1.17385,-2.00836 1.35312,-3.13777c0.15759,-0.9928 -0.33404,-3.28184 -0.33404,-3.28184l5.07973,0.80637c0,0 0.50682,2.087 0.37073,2.94453c-0.18709,1.17852 -1.3898,3.47508 -1.3898,3.47508z" fill="#555555"/><path d="M346.54116,153.63872l-0.53144,-0.8944l35.1228,5.57557l-1.6407,0.54959c0,0 -2.7951,-0.4437 -5.22685,-0.82975c-0.53006,-0.08413 -1.48157,-0.56804 -2.27548,-0.69412c-0.76766,-0.12186 -1.37024,0.1154 -2.32445,-0.0361c-1.48804,-0.23621 -3.16696,-0.50275 -4.92462,-0.78178c-0.72873,-0.11568 -1.30263,-0.59514 -2.05042,-0.71385c-0.66493,-0.10555 -1.50262,0.14986 -2.1707,0.04379c-1.65809,-0.26322 -3.29987,-0.52383 -4.84344,-0.76887c-0.70883,-0.11253 -1.32821,-0.65469 -1.98772,-0.7594c-0.80508,-0.12779 -1.63624,0.18409 -2.34164,0.0721c-2.87743,-0.45676 -4.80529,-0.76281 -4.80529,-0.76281z" fill="#474747"/></g><g><path d="M190.62984,196.80165l4.12067,-2.24924c0,0 2.34866,3.22297 5.00733,4.55121c2.35148,1.17475 10.13656,3.01435 10.13656,3.01435l-3.30488,3.88419z" fill="#6d6a6b" stroke-width="0"/><path d="M181.65144,201.95797l10.27518,-5.84653c0,0 2.84092,2.73579 4.87912,3.72949c3.08344,1.50336 11.8214,4.41299 11.8214,4.41299l-4.90015,3.58339z" fill="#615e5f" stroke-width="0"/><path d="M180.18143,223.96707l2.0741,-22.52646c0,0 4.17624,1.4648 8.93324,2.24995c3.71307,0.61285 7.84358,0.41081 10.20124,1.40105c4.13903,1.73839 35.31337,19.19758 35.31337,19.19758l0.85261,10.43757z" fill="#575455" stroke-width="0"/><path d="M205.74557,200.64474c7.7201,-4.40937 17.79876,-16.42995 19.44472,-18.77225c1.18577,-1.68745 2.69193,-6.79047 2.69193,-6.79047l6.54,7.93834c0,0 2.56399,21.16042 1.74721,33.83586c-0.22855,3.54672 1.63928,7.83782 0.23775,9.10015c-1.2557,1.131 -18.36626,0.73338 -23.5739,-0.86763c-10.95925,-3.36928 -17.11705,-1.52233 -19.98838,-7.31951c-2.87137,-5.79719 5.12467,-10.87664 5.12467,-10.87664c0,0 5.76621,-5.09986 7.77596,-6.2478z" fill="#504e4f" stroke-width="0"/><path d="M215.63818,168.97884c0,0 0.62497,-1.41227 1.5754,-1.93321c1.22235,-0.66997 5.15023,-1.75327 5.15023,-1.75327c0,0 8.92698,3.51033 11.50962,6.44152c2.38287,2.7044 -5.43208,11.87372 -5.43208,11.87372l-1.14116,-5.60962z" fill="#464445" stroke-width="0"/><path d="M231.18096,219.265c0,0 -10.15021,4.7228 -18.55658,3.56193c-8.10964,-1.11992 -14.4923,-8.09872 -14.16364,-9.4866c0.17808,-0.75194 8.52622,-2.77345 12.62157,-6.39758c4.55239,-4.02862 4.96391,-9.73622 6.61325,-11.51c4.60455,-4.95202 14.5409,-13.68064 14.4405,-19.8159c-0.10527,-6.43417 -10.36512,-10.16269 -10.36512,-10.16269c0,0 4.1566,-1.62005 9.10097,-0.96667c2.10613,0.27832 6.3802,2.35999 7.23171,2.88495c2.79233,1.72144 4.5019,3.64955 4.5019,3.64955c0,0 4.37832,-4.24537 7.98439,-3.98628c3.60608,0.25911 21.73693,6.12181 21.73693,6.12181l-17.98456,9.89673z" fill="#555354" stroke-width="0"/><path d="M217.21088,195.95824c0,0 6.26831,-10.0139 11.79228,-14.63993c5.52397,-4.62608 10.05057,-7.12779 13.53925,-6.57397c2.52632,0.40103 4.42312,9.42543 4.42312,9.42543l-15.45043,26.67679c0,0 -14.95445,0.94624 -16.02453,-1.73535c-0.84514,-2.11792 1.7203,-13.15294 1.7203,-13.15294z" fill="#585758" stroke-width="0"/><path d="M235.20725,226.4566c0,0 -1.87193,-6.56576 -1.07586,-9.49942c1.11207,-4.09833 4.522,-16.36942 4.522,-16.36942l0.29636,10.61342c0,0 -2.1608,9.52653 -2.50475,12.53976c-0.33189,2.90727 0.73357,5.27397 0.73357,5.27397z" fill="#3f3e3f" stroke-width="0"/><path d="M237.09103,208.66671c0.06955,-1.68474 1.54205,-9.25844 1.54205,-9.25844c0,0 11.72396,-12.88927 14.21139,-15.1807c0.72923,-0.67175 4.31473,-1.85516 4.31473,-1.85516l-2.38691,4.53577c0,0 -1.64906,0.34978 -1.90158,0.79351c-0.26902,0.47276 0.33387,1.96152 0.33387,1.96152l-6.39496,7.57114c0,0 -1.78861,0.73929 -2.04482,1.21032c-0.25628,0.47116 0.28361,1.45612 0.28361,1.45612c0,0 -5.2085,8.22641 -6.41914,10.4792c-0.55979,1.04164 -0.55221,2.49338 -0.55221,2.49338c0,0 -1.05558,-2.52187 -0.98603,-4.2066z" fill="#474647" stroke-width="0"/><path d="M227.41475,185.89972l19.50727,11.43508c0,0 -1.33292,0.81335 -1.65171,1.30856c-0.23522,0.36541 -0.08755,1.39336 -0.08755,1.39336z" fill="#3f3e3e" stroke-width="NaN"/><path d="M234.96368,176.61548l20.04027,10.32849c0,0 -1.23345,0.65809 -1.52906,1.17446c-0.30817,0.53829 -0.11242,1.66209 -0.11242,1.66209z" fill="#3f3e3e" stroke-width="NaN"/><path d="M218.18104,202.99045c0,0 9.3541,9.27423 14.22236,16.09951c4.86827,6.82526 2.76236,7.7129 2.76236,7.7129z" fill="#636162" stroke-width="NaN"/><path d="M234.91838,182.30208c0,0 -6.38172,1.92735 -9.58246,4.55398c-3.20076,2.62661 -13.96885,17.30278 -13.50703,14.3937c0.4618,-2.9091 16.66998,-21.31673 18.44268,-21.03533c0.67105,0.10652 3.84884,-0.54559 4.61992,-0.18276c1.26584,0.59568 0.02691,2.27045 0.02691,2.27045z" fill="#918f91" stroke-width="0"/><path d="M179.75114,223.76772l14.06644,0.32106c0,0 12.49223,1.64666 15.56582,2.29158c7.48506,1.57053 29.50784,7.166 29.50784,7.166l-1.43252,6.1728c0,0 -24.6187,-0.29798 -31.22158,-2.67827c-1.91021,-0.6886 -7.55805,-2.21097 -11.54916,-4.21367c-7.81045,-3.91919 -14.93683,-9.05946 -14.93683,-9.05946z" fill="#626061" stroke-width="0"/><path d="M236.52138,239.21408c0,0 0.71294,-4.23324 0.63638,-6.61456c-0.08603,-2.67652 -1.12746,-8.66269 -1.12746,-8.66269l1.76029,0.27944c0,0 0.99917,4.6712 1.07708,7.09426c0.08515,2.64918 -0.58597,8.18295 -0.58597,8.18295z" fill="#4a494a" stroke-width="0"/><path d="M236.19742,240.00945l0.61976,-3.34132c0,0 0.51824,0.35028 0.78638,0.39287c0.3186,0.05059 0.95924,-0.11574 0.95924,-0.11574l-0.32642,3.1645c0,0 -0.83086,0.28083 -1.2024,0.26254c-0.28468,-0.01402 -0.83654,-0.36285 -0.83654,-0.36285z" fill="#363536" stroke-width="0"/><path d="M236.14122,224.99266l-0.127,-1.66107c0,0 0.46777,-0.28458 0.84099,-0.28531c0.35544,-0.00069 0.85215,0.20244 0.85215,0.20244l0.22318,1.79354c0,0 -0.55543,0.42562 -0.86197,0.41711c-0.28883,-0.00802 -0.92733,-0.46674 -0.92733,-0.46674z" fill="#585758" stroke-width="0"/><path d="M195.25855,232.22723c0,0 -7.3346,-4.15412 -7.12087,-5.50027c0.21476,-1.3529 6.55834,-1.53132 6.55834,-1.53132c0,0 10.84632,1.478 15.71492,2.42563c2.72568,0.53052 11.01009,2.7761 11.01009,2.7761c0,0 7.03635,2.18441 7.66077,3.44966c0.68114,1.38015 -3.58072,3.58082 -3.58072,3.58082c0,0 -12.77125,-0.70494 -16.65441,-1.53224c-1.37941,-0.29387 -13.58821,-3.6683 -13.58821,-3.6683z" fill="#6b696a" stroke-width="0"/><path d="M186.08597,223.78324l-1.97364,-0.07963c0,0 1.15713,-3.29402 3.64876,-1.64071c2.49164,1.65332 21.38953,3.62915 21.38953,3.62915z" fill="#4b4949" stroke-width="0"/><path d="M179.84577,223.6369c0,0 -2.00311,-0.12398 -1.96046,-3.8056c0.0216,-1.86359 0.52819,-16.15304 0.52819,-16.15304l4.14427,-2.27753c0,0 -0.26635,6.0265 -0.51773,8.92517c-0.3344,3.85517 -1.28251,13.45567 -1.28251,13.45567z" fill="#3f3d3e" stroke-width="0"/><path d="M186.37777,223.99758c0,0 3.49155,-1.63088 19.40223,0.55351c1.31393,0.18042 -1.76796,-0.31307 7.43599,1.66169c9.20397,1.97473 12.82672,4.08143 12.82672,4.08143c0,0 -14.71221,-3.41825 -20.83832,-4.39076c-6.983,-1.10852 -18.8266,-1.90583 -18.8266,-1.90583z" fill="#838082" stroke-width="0"/><path d="M196.01172,195.52371c0,0 -4.6595,1.47516 -7.06095,2.72973c-2.69915,1.41012 -8.34544,5.31901 -8.34544,5.31901l-0.52369,-1.70482c0,0 4.32025,-3.21611 6.76374,-4.4927c2.67158,-1.39568 8.64264,-3.55605 8.64264,-3.55605z" fill="#4a494a" stroke-width="0"/><path d="M196.97462,195.41552l-3.78048,1.10147c0,0 0.19655,-0.62331 0.11679,-0.88303c-0.09479,-0.30858 -0.55963,-0.79545 -0.55963,-0.79545l3.38818,-1.28643c0,0 0.6695,0.59903 0.82169,0.93858c0.1166,0.26019 0.01345,0.92484 0.01345,0.92484z" fill="url(#color-3)" stroke-width="0"/><path d="M181.63459,202.94777l-3.34243,2.23335l0.20014,-2.17821l2.37013,-1.67132c0,0 0.69095,0.28192 0.82324,0.5588c0.12463,0.26085 -0.05107,1.05729 -0.05107,1.05729z" fill="url(#color-4)" stroke-width="0"/></g><path d="M313.8553,199.66117c0,0 1.60871,-4.21863 2.32355,-5.51166c0.48529,-0.87776 3.05377,-1.91958 3.05377,-1.91958l16.84315,2.45284c0,0 -2.17035,5.52582 -2.76089,6.81544c-0.25871,0.56494 -1.42009,1.08187 -1.42009,1.08187z" fill="#665b60" stroke-width="0"/><path d="M268.70463,174.00861c0,0 -3.5023,-2.13799 -8.18915,-4.04869c-2.97948,-1.21464 -7.10779,-2.44386 -8.96237,-2.63116c-5.39186,-0.54459 -8.68007,4.10226 -8.68007,4.10226c0,0 -2.8697,-2.80031 -4.81729,-3.97483c-1.81801,-1.09638 -5.96034,-2.76745 -5.96034,-2.76745c0,0 25.05394,-1.17785 28.94843,-1.147c7.46606,0.05914 33.75594,4.6288 33.75594,4.6288l3.90724,15.08483z" fill="#8b7c84" stroke-width="0"/><g stroke-width="0"><path d="M315.43979,198.95812c0,0 0.87278,-2.4902 1.41834,-3.30961c0.56571,-0.84962 2.88745,-1.5466 2.88745,-1.5466l14.35033,2.27804c0,0 0.22745,1.03135 -0.12073,1.72312c-0.47336,0.94056 -3.64632,3.21864 -3.64632,3.21864z" fill="#585852"/><path d="M315.55666,198.22197c0,0 0.75589,-1.75407 1.30146,-2.57344c0.56571,-0.84962 3.00429,-2.28278 3.00429,-2.28278l14.35033,2.27804c0,0 0.11056,1.76754 -0.23757,2.45928c-0.47336,0.94056 -3.52944,2.48246 -3.52944,2.48246z" fill="#797971"/><path d="M332.39269,195.85664c-1.00801,-0.34019 -12.44428,-2.43039 -12.44428,-2.43039l14.33072,2.27491l-0.38598,2.43139c0,0 -0.49245,-1.93574 -1.50044,-2.2759z" fill="#85857b"/></g><path d="M319.70175,181.23907l0.81365,-5.12558l7.04765,1.11878l0.46772,5.32899z" fill="#7c6e75" stroke-width="0"/><path d="M313.54934,153.50795l-2.85024,-8.68554l1.36228,0.21625l4.69099,9.43502z" fill="#d495b6" stroke-width="0"/><path d="M276.22418,139.85823l13.53996,-0.97898l21.12729,5.99907l2.68474,8.61975z" fill="#df9cbe" stroke-width="0"/><path d="M319.07371,186.22988l0.25427,-1.60176l10.73167,1.7036l0.70675,1.7543z" fill="#7c6e75" stroke-width="0"/><path d="M280.90908,167.86512c0,0 -18.09726,-1.6594 -23.7388,-2.0486c-8.54252,-0.58925 -25.76624,-0.96906 -25.76624,-0.96906c0,0 15.53412,-2.03029 29.11218,-1.40991c14.72211,0.67263 58.45538,6.13941 58.45538,6.13941l-0.84802,5.34216z" fill="#75686e" stroke-width="0"/><path d="M272.70116,175.44245l-3.11363,-1.07224c0,0 10.02347,-0.82311 15.17739,0.76743c5.15393,1.59049 13.51462,8.08696 13.51462,8.08696z" fill="#7c6e76" stroke-width="0"/><path d="M227.45141,164.17865c0,0 -29.54321,-20.27907 -29.69936,-24.98183c-0.1418,-4.27189 29.08488,6.99442 29.3959,6.93421c5.44271,-1.05361 77.56784,3.09067 77.56784,3.09067l25.21523,10.87713l52.19901,7.70773l5.08951,14.55335c0,0 -60.98107,-8.49688 -84.47902,-12.06196c-8.15675,-1.23753 -24.67935,-4.51622 -39.97275,-5.78937c-11.79685,-0.98211 -29.94122,0.50826 -29.94122,0.50826z" fill="#ee96c3" stroke-width="0"/><path d="M97.95024,156.32142l6.44555,-19.38316c0,0 1.00566,-6.98282 8.52024,-8.11466c9.33341,-1.40575 25.73344,3.00513 27.77848,3.32976c1.56933,0.24914 -14.38113,8.26415 -14.38113,8.26415l-3.15977,19.90476z" fill="#c4b4b3" stroke-width="0"/><g stroke-width="0"><path d="M378.49397,182.37408l-0.44769,-15.40355l90.54912,21.22336l-1.65784,5.61648l-47.60354,-2.63886z" fill="#ad6d8e"/><path d="M406.76117,172.34559l8.47979,-7.03019l26.77741,2.09507l-5.8826,9.59821z" fill="#8d788b"/><path d="M381.41884,169.52614l2.54539,-16.0345l31.34553,11.83888l-5.59899,6.0662z" fill="#857183"/><path d="M423.83364,172.8968l18.12266,-5.49493l26.90586,8.09106l-1.36339,6.76389z" fill="#947e92"/><path d="M377.39673,168.27151l4.85931,-12.15443l1.90929,-2.79911l-2.36172,14.87752z" fill="#756474"/><path d="M380.26137,179.40004l1.1804,-12.03653l43.03667,5.16235l-3.72834,15.66625z" fill="#746373"/><path d="M420.74492,188.17562c0,0 1.36419,-6.1699 2.00638,-8.94772c0.54982,-2.3783 1.61283,-6.70755 1.61283,-6.70755l43.51087,7.8276l0.65832,8.60968z" fill="#867284"/><path d="M377.44774,168.20829l4.21781,-0.88051l-1.3757,12.08446z" fill="#6f5e6d"/><path d="M461.75296,174.25541l-19.04573,-6.42918l25.82664,7.78174l-0.91502,3.44461c0,0 -0.06364,-1.59907 -1.14653,-2.48464c-0.72436,-0.59242 -4.71937,-2.31253 -4.71937,-2.31253z" fill="#978195"/><path d="M422.28213,171.99259c0,0 8.41933,-2.17212 11.37547,-3.0739c2.15345,-0.65692 4.72903,-1.83875 4.72903,-1.83875l2.48483,0.5085l-15.97346,4.81943z" fill="#9c859a"/><path d="M407.9524,170.53632c0,0 1.73162,-2.51187 3.27689,-3.63374c1.54527,-1.1219 3.95275,-1.56513 3.95275,-1.56513l-4.79857,5.58482z" fill="#806b7d"/><path d="M443.78758,165.92491l3.00584,-5.32795l14.42672,6.07023l4.52735,7.19883z" fill="#55494f"/><path d="M440.84661,168.29324c0,0 1.19295,-0.61073 1.83807,-1.10039c0.48596,-0.36887 1.3825,-1.62845 1.3825,-1.62845l21.41069,7.44891c0,0 0.77922,0.62689 1.30714,1.04046c0.55168,0.43218 1.93479,1.49922 1.93479,1.49922z" fill="#685960"/><path d="M444.48172,165.13179l2.35691,-4.26862l13.44982,5.50358c0,0 -7.66739,-2.76905 -12.13301,-3.22009c-2.59032,-0.26165 -3.67374,1.98515 -3.67374,1.98515z" fill="#41383c"/></g><path d="M105.72774,117.78403l0.81656,-5.14392c0,0 22.26335,2.22291 43.94099,5.7218c12.91789,2.08504 26.06946,5.79043 32.96006,6.52975c15.53671,1.66703 26.58347,-1.14807 26.58347,-1.14807l-7.93081,9.51741z" fill="#ffa1d1" stroke-width="0"/><path d="M100.99334,131.16486l4.65508,-15.54497c0,0 53.7956,10.62607 71.49114,12.98898c10.4821,1.39966 24.89853,-0.11807 24.89853,-0.11807l-2.29563,14.46126c0,0 -66.66623,-10.58289 -82.73738,-13.13412c-6.60786,-1.04898 -20.22664,27.89878 -20.22664,27.89878z" fill="#ee96c3" stroke-width="0"/><path d="M265.99398,234.80771l11.29684,-11.97284c0,0 12.28211,-14.10608 22.64213,-19.41017c2.63265,-1.34786 7.92583,-1.71908 7.92583,-1.71908c0,0 -7.99513,3.77834 -10.99553,6.12846c-7.08558,5.54989 -30.86927,26.97362 -30.86927,26.97362z" fill="#70646b" stroke-width="0"/><path d="M370.98093,185.82126l-3.40035,-18.767l1.33345,0.21169c0,0 1.02982,5.68362 1.57395,8.68689c0.07753,0.42791 1.23419,1.84791 1.33024,2.37793c0.16645,0.91877 -0.7135,1.02566 -0.52747,2.0526c0.51808,2.85946 1.02363,5.64962 1.02363,5.64962z" fill="#795467" stroke-width="0"/><path d="M200.29934,143.47766c0,0 -9.32511,-8.11469 -8.06235,-11.73641c0.7561,-2.1685 18.63715,-7.38172 18.63715,-7.38172l67.39264,12.39126l-2.10186,2.80123l28.46059,9.8321l-75.07458,14.99027c0,0 0.09856,-5.66845 4.10439,-7.9265c3.89327,-2.19458 19.60251,-5.43676 19.60251,-5.43676c0,0 -33.78658,-5.41306 -40.97373,-6.64176c-2.39785,-0.40993 -11.98481,-0.8918 -11.98481,-0.8918z" fill="#f399c8" stroke-width="0"/><g><path d="M208.79779,125.9782l0.50771,-3.19829l174.37028,27.68036l-0.50771,3.19829z" fill="#584f54" stroke-width="0"/><path d="M377.91219,149.79665l0.42901,-2.70248l3.01748,0.479l2.23348,3.12514z" fill="#685d63" stroke-width="0"/><g fill="#685d63" stroke-width="0"><g><g><g><path d="M371.29545,148.99856l0.46674,-2.9402l3.83313,0.60848l-0.46674,2.9402z"/><path d="M365.07578,148.01126l0.46674,-2.9402l3.83313,0.60848l-0.46674,2.9402z"/></g><g><path d="M359.09085,147.06113l0.46674,-2.9402l3.83313,0.60848l-0.46674,2.9402z"/><path d="M352.87118,146.07381l0.46674,-2.9402l3.83313,0.60848l-0.46674,2.9402z"/></g></g><g><g><path d="M346.76885,145.10508l0.46674,-2.9402l3.83313,0.60848l-0.46674,2.9402z"/><path d="M340.5492,144.11778l0.46674,-2.9402l3.83313,0.60848l-0.46674,2.9402z"/></g><g><path d="M334.56424,143.16768l0.46674,-2.9402l3.83313,0.60848l-0.46674,2.9402z"/><path d="M328.34467,142.18036l0.46674,-2.9402l3.83313,0.60848l-0.46674,2.9402z"/></g></g></g><g><g><g><path d="M328.10994,142.1431l0.46674,-2.9402l3.83313,0.60848l-0.46674,2.9402z"/><path d="M321.8903,141.15577l0.46674,-2.9402l3.83313,0.60848l-0.46674,2.9402z"/></g><g><path d="M315.90534,140.20566l0.46674,-2.9402l3.83313,0.60848l-0.46674,2.9402z"/><path d="M309.68569,139.21833l0.46674,-2.9402l3.83313,0.60848l-0.46674,2.9402z"/></g></g><g><g><path d="M303.58343,138.24963l0.46674,-2.9402l3.83313,0.60848l-0.46674,2.9402z"/><path d="M297.36375,137.26232l0.46674,-2.9402l3.83313,0.60848l-0.46674,2.9402z"/></g><g><path d="M291.37879,136.31224l0.46674,-2.9402l3.83313,0.60848l-0.46674,2.9402z"/><path d="M285.15917,135.32489l0.46674,-2.9402l3.83313,0.60848l-0.46674,2.9402z"/></g></g></g></g><g><g fill="#685d63" stroke-width="0"><g><g><path d="M279.01693,134.34985l0.46674,-2.9402l3.83313,0.60848l-0.46674,2.9402z"/><path d="M272.7973,133.36252l0.46674,-2.9402l3.83313,0.60848l-0.46674,2.9402z"/></g><g><path d="M266.81236,132.41245l0.46674,-2.9402l3.83313,0.60848l-0.46674,2.9402z"/><path d="M260.59273,131.4251l0.46674,-2.9402l3.83313,0.60848l-0.46674,2.9402z"/></g></g><g><g><path d="M254.49043,130.45641l0.46674,-2.9402l3.83313,0.60848l-0.46674,2.9402z"/><path d="M248.27076,129.46906l0.46674,-2.9402l3.83313,0.60848l-0.46674,2.9402z"/></g><g><path d="M242.28579,128.51897l0.46674,-2.9402l3.83313,0.60848l-0.46674,2.9402z"/><path d="M236.06613,127.53165l0.46674,-2.9402l3.83313,0.60848l-0.46674,2.9402z"/></g></g></g><g><g fill="#685d63" stroke-width="0"><g><path d="M235.83145,127.49439l0.46674,-2.9402l3.83313,0.60848l-0.46674,2.9402z"/><path d="M229.61179,126.50704l0.46674,-2.9402l3.83313,0.60848l-0.46674,2.9402z"/></g><g><path d="M223.62683,125.55697l0.46674,-2.9402l3.83313,0.60848l-0.46674,2.9402z"/><path d="M217.4072,124.56965l0.46674,-2.9402l3.83313,0.60848l-0.46674,2.9402z"/></g></g><g fill="none" stroke-width="1" font-family="sans-serif" font-weight="normal" font-size="12" text-anchor="start"><g/><g/></g></g></g><path d="M209.33721,123.03628l3.09148,-2.27981l3.01748,0.479l-0.42901,2.70248z" data-paper-data="{&quot;index&quot;:null}" fill="#685d63" stroke-width="0"/></g><path d="M260.3885,164.43859l-2.56265,-0.13338c0,0 2.0607,-2.27256 11.71399,-1.88196c7.31863,0.29613 27.83326,2.22486 40.10825,3.41831c5.70021,0.5542 62.91459,0.52207 62.91459,0.52207l5.13675,0.80094c0,0 -62.62138,0.83721 -68.31375,0.26071c-12.58743,-1.27479 -33.75784,-3.3828 -39.92117,-3.77546c-3.35506,-0.21375 -9.076,0.78881 -9.076,0.78881z" fill="#70475c" stroke-width="0"/><path d="M357.06777,199.05182l-5.1523,1.05103l2.9688,-18.69715c0,0 7.68753,1.26936 15.20575,2.51075c21.58264,3.56367 125.31025,20.69108 125.31025,20.69108l-1.05471,6.64407z" fill="#5a5959" stroke-width="0"/><path d="M355.9087,200.51663l1.54873,-2.79786l136.91728,13.42662l-13.43763,9.21881z" fill="#4b4a4a" stroke-width="0"/><path d="M477.72164,219.66228c0,0 -5.32763,-4.11083 -8.09867,-5.9967c-1.48507,-1.01067 -7.2353,-4.43889 -7.2353,-4.43889c0,0 7.44726,4.1223 10.60188,5.58291c1.12584,0.52125 2.11908,1.43104 3.32419,2.15709c0.38858,0.2341 2.62205,-2.20507 4.76626,-3.60051c0.64088,-0.4171 1.72963,0.12488 2.30038,-0.11949c1.30842,-0.56015 1.83409,-1.58177 1.83409,-1.58177c0,0 0.18757,0.97098 -1.2066,1.9786c-0.38038,0.27494 -2.21626,0.34023 -2.59416,0.64513c-1.51459,1.22194 -2.75473,2.64419 -3.14874,3.18021c-1.09965,1.49593 0.902,2.42284 0.902,2.42284z" fill="#414040" stroke-width="0"/><path d="M200.20437,143.76371l5.50809,-10.36337l7.01733,0.48184c0,0 -1.35408,2.46641 -2.15212,3.92001c-0.20101,0.36611 11.75394,0.28326 11.99638,1.00116c0.44987,1.33198 -5.64284,4.17174 -6.14473,5.08597c-0.57379,1.04512 -9.23266,0.07134 -9.23266,0.07134z" fill="#303030" stroke-width="0"/><path d="M200.12059,143.37574l5.27399,-9.555c0,0 2.75852,1.75884 2.60412,2.73166c-0.28099,1.77003 -2.74779,7.23803 -2.74779,7.23803z" fill="#252525" stroke-width="0"/><path d="M351.48125,202.72289l0.46289,-2.91588l5.91837,-2.04985l-1.68567,2.72177c0,0 -1.28626,1.14782 -2.11209,1.54247c-0.72664,0.34726 -2.58348,0.70148 -2.58348,0.70148z" fill="#383838" stroke-width="0"/><g><g fill="#4b4b4b" stroke-width="0"><g data-paper-data="{&quot;origPos&quot;:null}"><g data-paper-data="{&quot;origPos&quot;:null}"><path d="M417.57721,214.60341l0.35632,-2.24462l3.70362,0.58793l-0.35632,2.24462z" data-paper-data="{&quot;origPos&quot;:null}"/><path d="M411.42232,213.51128l0.35632,-2.24462l3.70362,0.58793l-0.35632,2.24462z" data-paper-data="{&quot;origPos&quot;:null}"/></g><g data-paper-data="{&quot;origPos&quot;:null}"><path d="M429.90482,216.67539l0.35632,-2.24462l3.70362,0.58793l-0.35632,2.24462z" data-paper-data="{&quot;origPos&quot;:null}"/><path d="M423.74991,215.58328l0.35632,-2.24462l3.70362,0.58793l-0.35632,2.24462z" data-paper-data="{&quot;origPos&quot;:null}"/></g></g><g data-paper-data="{&quot;origPos&quot;:null,&quot;index&quot;:null}"><g data-paper-data="{&quot;origPos&quot;:null}"><path d="M448.90751,219.46186l0.35632,-2.24462l3.70362,0.58793l-0.35632,2.24462z" data-paper-data="{&quot;origPos&quot;:null}"/><path d="M455.09802,220.32952l0.35631,-2.24461l3.70362,0.58793l-0.35631,2.24461z" data-paper-data="{&quot;origPos&quot;:null}"/></g><g data-paper-data="{&quot;origPos&quot;:null}"><path d="M436.54429,217.6143l0.35632,-2.24462l3.70362,0.58793l-0.35632,2.24462z" data-paper-data="{&quot;origPos&quot;:null}"/><path d="M442.73481,218.48195l0.35632,-2.24462l3.70362,0.58793l-0.35632,2.24462z" data-paper-data="{&quot;origPos&quot;:null}"/></g></g></g><path d="M376.67648,199.76223l2.13395,-13.44277l83.42935,13.24397l-2.13395,13.44277z" data-paper-data="{&quot;origPos&quot;:null}" fill="#444444" stroke-width="0"/><path d="M376.03341,204.44156l0.74979,-4.7233l83.18412,13.20505l-0.74979,4.7233z" data-paper-data="{&quot;origPos&quot;:null}" fill="#414141" stroke-width="0"/><path d="M375.84449,205.85362l0.25362,-1.59763l83.17358,13.20333l-0.25362,1.59763z" data-paper-data="{&quot;origPos&quot;:null}" fill="#3f3f3f" stroke-width="0"/><g stroke-width="0"><g data-paper-data="{&quot;origPos&quot;:null}" fill="#5a5a5a"><g data-paper-data="{&quot;origPos&quot;:null}"><path d="M419.40058,206.62484l2.15574,-13.57996l3.52725,0.55993l-2.15574,13.57996z" data-paper-data="{&quot;origPos&quot;:null}"/></g><g data-paper-data="{&quot;origPos&quot;:null}"><path d="M425.39693,207.57673l2.15574,-13.57996l3.52725,0.55993l-2.15574,13.57996z" data-paper-data="{&quot;origPos&quot;:null}"/><path d="M431.56962,208.55663l2.15574,-13.57996l3.52725,0.55993l-2.15574,13.57996z" data-paper-data="{&quot;origPos&quot;:null}"/></g></g><g data-paper-data="{&quot;origPos&quot;:null}" fill="#5a5a5a"><g data-paper-data="{&quot;origPos&quot;:null}"><path d="M438.09507,209.5925l2.15574,-13.57996l3.52725,0.55993l-2.15574,13.57996z" data-paper-data="{&quot;origPos&quot;:null}"/><path d="M444.26777,210.57239l2.15574,-13.57996l3.52725,0.55993l-2.15574,13.57996z" data-paper-data="{&quot;origPos&quot;:null}"/></g><g data-paper-data="{&quot;origPos&quot;:null}"><path d="M450.26413,211.52429l2.15574,-13.57996l3.52725,0.55993l-2.15574,13.57996z" data-paper-data="{&quot;origPos&quot;:null}"/><path d="M456.43682,212.50416l2.15574,-13.57996l3.52725,0.55993l-2.15574,13.57996z" data-paper-data="{&quot;origPos&quot;:null}"/></g></g><path d="M422.9884,207.19438l-1.17069,1.76936l-5.18331,-0.77919l1.39831,-9.69715l3.46546,-5.45177l-2.08762,13.59078z" fill="#3a3a3a"/><path d="M428.98234,208.14592l-1.17069,1.76936l-5.18331,-0.77919l1.39831,-9.69715l3.46546,-5.45177l-2.08762,13.59078z" fill="#3a3a3a"/><path d="M435.11245,209.11906l-1.17069,1.76936l-5.18331,-0.77919l1.39831,-9.69715l3.46546,-5.45177l-2.08762,13.59078z" fill="#3a3a3a"/><path d="M441.7194,210.16784l-1.17069,1.76936l-5.18331,-0.77919l1.39831,-9.69715l3.46546,-5.45177l-2.08762,13.59078z" fill="#3a3a3a"/><path d="M447.91763,211.15177l-1.17069,1.76936l-5.18331,-0.77919l1.39831,-9.69715l3.46546,-5.45177l-2.08762,13.59078z" fill="#3a3a3a"/><path d="M453.84344,212.09248l-1.17069,1.76936l-5.18331,-0.77919l1.39831,-9.69715l3.46546,-5.45177l-2.08762,13.59078z" fill="#3a3a3a"/><path d="M460.04951,213.07765l-1.17069,1.76936l-5.18331,-0.77919l1.39831,-9.69715l3.46546,-5.45177l-2.08762,13.59078z" fill="#3a3a3a"/></g><g stroke-width="0"><g data-paper-data="{&quot;origPos&quot;:null}" fill="#5a5a5a"><g data-paper-data="{&quot;origPos&quot;:null}"><path d="M376.70613,199.84736l2.15574,-13.57996l3.52725,0.55993l-2.15574,13.57996z" data-paper-data="{&quot;origPos&quot;:null}"/></g><g data-paper-data="{&quot;origPos&quot;:null}"><path d="M382.70245,200.79923l2.15574,-13.57996l3.52725,0.55993l-2.15574,13.57996z" data-paper-data="{&quot;origPos&quot;:null}"/><path d="M388.87514,201.77915l2.15574,-13.57996l3.52725,0.55993l-2.15574,13.57996z" data-paper-data="{&quot;origPos&quot;:null}"/></g></g><g data-paper-data="{&quot;origPos&quot;:null}" fill="#5a5a5a"><g data-paper-data="{&quot;origPos&quot;:null}"><path d="M395.40059,202.815l2.15574,-13.57996l3.52725,0.55993l-2.15574,13.57996z" data-paper-data="{&quot;origPos&quot;:null}"/><path d="M401.57336,203.79488l2.15574,-13.57996l3.52725,0.55993l-2.15574,13.57996z" data-paper-data="{&quot;origPos&quot;:null}"/></g><g data-paper-data="{&quot;origPos&quot;:null}"><path d="M407.56968,204.74676l2.15574,-13.57996l3.52725,0.55993l-2.15574,13.57996z" data-paper-data="{&quot;origPos&quot;:null}"/><path d="M413.7424,205.72664l2.15574,-13.57996l3.52725,0.55993l-2.15574,13.57996z" data-paper-data="{&quot;origPos&quot;:null}"/></g></g><path d="M380.29393,200.4169l-1.17069,1.76936l-2.70276,-0.38542l0.2956,-1.95195z" fill="#3a3a3a"/><path d="M386.2879,201.3684l-1.17069,1.76936l-5.18331,-0.77919l1.39831,-9.69715l3.46546,-5.45177l-2.08762,13.59078z" fill="#3a3a3a"/><path d="M392.41798,202.3415l-1.17069,1.76936l-5.18331,-0.77919l1.39831,-9.69715l3.46546,-5.45177l-2.08762,13.59078z" fill="#3a3a3a"/><path d="M399.02491,203.39032l-1.17069,1.76936l-5.18331,-0.77919l1.39831,-9.69715l3.46546,-5.45177l-2.08762,13.59078z" fill="#3a3a3a"/><path d="M405.22319,204.37427l-1.17069,1.76936l-5.18331,-0.77919l1.39831,-9.69715l3.46546,-5.45177l-2.08762,13.59078z" fill="#3a3a3a"/><path d="M411.149,205.31496l-1.17069,1.76936l-5.18331,-0.77919l1.39831,-9.69715l3.46546,-5.45177l-2.08762,13.59078z" fill="#3a3a3a"/><path d="M417.35508,206.30014l-1.17069,1.76936l-5.18331,-0.77919l1.39831,-9.69715l3.46546,-5.45177l-2.08762,13.59078z" fill="#3a3a3a"/></g><g><g data-paper-data="{&quot;origPos&quot;:null}"><g data-paper-data="{&quot;origPos&quot;:null}" fill="none" stroke-width="1" font-family="sans-serif" font-weight="normal" font-size="12" text-anchor="start"/><g data-paper-data="{&quot;origPos&quot;:null}" fill="#4b4b4b" stroke-width="0"><path d="M381.75969,209.1105l0.35632,-2.24462l3.70362,0.58793l-0.35632,2.24462z" data-paper-data="{&quot;origPos&quot;:null}"/><path d="M375.60479,208.01841l0.35632,-2.24462l3.70362,0.58793l-0.35632,2.24462z" data-paper-data="{&quot;origPos&quot;:null}"/></g></g><g data-paper-data="{&quot;origPos&quot;:null,&quot;index&quot;:null}" fill="#4b4b4b" stroke-width="0"><g data-paper-data="{&quot;origPos&quot;:null}"><path d="M400.7624,211.89696l0.35632,-2.24462l3.70362,0.58793l-0.35632,2.24462z" data-paper-data="{&quot;origPos&quot;:null}"/><path d="M406.9529,212.76456l0.35631,-2.24461l3.70362,0.58793l-0.35631,2.24461z" data-paper-data="{&quot;origPos&quot;:null}"/></g><g data-paper-data="{&quot;origPos&quot;:null}"><path d="M388.39911,210.04944l0.35632,-2.24462l3.70362,0.58793l-0.35632,2.24462z" data-paper-data="{&quot;origPos&quot;:null}"/><path d="M394.58961,210.91703l0.35632,-2.24462l3.70362,0.58793l-0.35632,2.24462z" data-paper-data="{&quot;origPos&quot;:null}"/></g></g></g></g><path d="M212.97744,144.17743l1.68761,-4.00003c0,0 5.04751,-2.38563 8.55849,-1.98018c4.01375,0.46352 33.60815,5.18672 33.60815,5.18672c0,0 0.35975,1.95633 0.11665,3.15018c-0.31321,1.53809 -2.88355,4.23308 -2.88355,4.23308z" fill="#242424" stroke-width="0"/><path d="M238.15288,144.31618l0.49393,-3.11138l17.77919,2.82237l-0.49393,3.11138z" fill="#313131" stroke-width="0"/><path d="M234.59713,145.70652l0.10226,-0.64417c0,0 1.21947,-0.87073 2.22989,-0.71033c0.95947,0.15231 3.04597,0.96442 5.44193,1.51019c4.56427,1.03967 10.10718,2.02248 10.10718,2.02248l-0.10226,0.64417c0,0 -5.36082,-0.85307 -9.86087,-1.88195c-2.45541,-0.56142 -4.60637,-1.47896 -5.6017,-1.63695c-1.04619,-0.16605 -2.31635,0.69659 -2.31635,0.69659z" fill="#616161" stroke-width="0"/><path d="M263.85792,134.4438l12.0618,4.97924l29.63675,10.07924c0,0 0.68894,0.33636 -7.19533,-1.65261c-2.68211,-0.6766 -12.9366,-3.93364 -21.74702,-7.2589c-2.38397,-0.89979 -15.01368,-6.38857 -15.01368,-6.38857z" fill="#df8cb7" stroke-width="0"/><path d="M84.01658,112.31065l0.93021,-5.85974c0,0 5.97356,-0.82664 9.73033,-0.23029c3.07557,0.48821 10.90347,5.2807 10.90347,5.2807l-2.057,12.09788z" fill="#626061" stroke-width="0"/><path d="M197.07531,140.3689l3.35647,3.0702l12.30314,0.61333l50.1174,7.95587l-0.17106,1.07755c0,0 -37.57268,-6.11153 -49.37003,-7.71877c-3.23893,-0.44127 -12.93139,-1.25001 -12.93139,-1.25001z" fill="#ffa6d4" stroke-width="0"/><path d="M71.14676,174.99847l1.12405,-7.08091l25.74532,-12.75154l-3.73039,13.24786l-15.2884,7.83084z" fill="#3f3d3e" stroke-width="0"/><path d="M70.33014,169.74533c0,0 3.26633,-19.37941 5.5645,-28.71788c2.59388,-10.53994 9.21935,-31.35474 9.21935,-31.35474c0,0 8.53776,1.1636 11.81747,3.35065c2.807,1.87182 6.66435,8.97378 6.66435,8.97378l-5.26025,33.13665c0,0 -13.85777,11.66979 -17.21919,13.42363c-5.17045,2.69763 -10.78621,1.18796 -10.78621,1.18796z" fill="#555354" stroke-width="0"/><path d="M83.30345,120.11641c0,0 -0.58155,-6.16028 1.8819,-8.50018c2.46346,-2.33994 6.91869,-2.66237 9.44733,-2.26095c2.01714,0.3202 6.17919,1.06064 8.31804,5.91451c2.13887,4.85384 -0.80273,11.14051 -0.80273,11.14051c0,0 -4.59078,-11.26273 -7.04886,-12.08367c-3.46858,-1.15843 -11.79569,5.78988 -11.79569,5.78988z" fill="#6f6b6c" stroke-width="0"/><path d="M68.13124,174.32908c0,0 5.77946,-25.47142 7.57364,-36.77367c1.86848,-11.77042 4.90509,-32.26622 4.90509,-32.26622c0,0 1.24271,-0.45372 2.27067,-0.29054c0.93996,0.14919 2.38664,1.02989 2.38664,1.02989c0,0 -3.21487,18.88478 -4.89161,29.44737c-1.9481,12.27177 -8.85708,39.39093 -8.85708,39.39093z" fill="#333232" stroke-width="0"/><path d="M67.63628,174.69966l3.38661,-14.35479c0,0 0.90279,1.04334 1.50088,1.09911c0.75518,0.07043 2.63684,-1.08638 2.63684,-1.08638l-3.60429,14.96434z" fill="#2e2d2d" stroke-width="0"/><path d="M98.76472,142.92737c-1.28005,8.06368 -6.71225,15.97778 -11.48248,18.18461c-3.96184,1.83283 -12.42727,7.33153 -11.1472,-0.73213c0.27154,-1.71068 4.15277,-13.12266 5.38178,-20.04539c1.62533,-9.15523 0.78088,-14.33261 2.17079,-16.97899c2.51324,-4.78516 8.20014,-5.38042 10.38727,-5.03324c4.31125,0.68438 5.96988,16.54148 4.68981,24.60511z" fill="#585758" stroke-width="0"/><path d="M130.59234,162.23912l-0.31235,-1.81211c0,0 8.05328,-0.08903 14.07271,0.37631c8.47404,0.65507 31.97564,3.1835 31.97564,3.1835l1.57286,1.54691c0,0 -25.05413,-2.33652 -33.78048,-2.94424c-2.5628,-0.17845 -13.5284,-0.35037 -13.5284,-0.35037z" fill="#585657" stroke-width="0"/><path d="M122.7052,174.35287l7.27212,-12.70843l7.30179,0.19657c0,0 -2.39286,3.98765 -2.42604,4.74699c-0.15851,3.62832 -0.95623,27.76884 -0.95623,27.76884c0,0 -1.52823,0.20332 -2.40885,-1.83547c-1.58006,-3.65824 -2.31708,-10.72319 -3.71786,-13.07454c-1.21024,-2.03154 -5.06495,-5.09392 -5.06495,-5.09392z" fill="#5a5759" stroke-width="0"/><path d="M139.90921,145.89415l4.63004,-10.74026l2.32191,0.25608l-5.76225,10.78552z" fill="#a5a0a2" stroke-width="0"/><path d="M146.78482,145.88858l0.21993,-1.3854l26.1686,4.15414l-0.21993,1.3854z" fill="#494748" stroke-width="0"/><path d="M147.17105,142.94138l0.21993,-1.3854l26.1686,4.15414l-0.21993,1.3854z" fill="#494748" stroke-width="0"/><path d="M124.46482,162.02518l3.15731,-19.8893l13.60357,-7.57716l4.83354,0.45163l-22.78683,39.73235l-5.22773,-2.85835z" fill="#dbd5d8" stroke-width="0"/><path d="M96.426,169.6378l1.69263,-11.66973l26.44867,3.39916c0,0 -0.07165,2.55814 -0.32547,3.32635c-0.63256,1.91498 -3.70273,8.45227 -3.70273,8.45227z" fill="#ccc6c9" stroke-width="0"/><path d="M101.9548,158.98243l0.0495,-0.31191l22.67098,2.71955l-2.75884,0.76115c0,0 -4.29738,-0.49365 -6.96762,-0.94966c-3.65624,-0.62442 -12.99401,-2.21914 -12.99401,-2.21914z" fill="#d8d1d5" stroke-width="0"/><path d="M106.01264,155.84303l2.66527,-16.78976l15.92559,2.52809l-2.66527,16.78976z" fill="#a39999" stroke-width="0"/><path d="M96.1263,169.76211l1.78092,-11.21885c0,0 7.72624,7.69315 11.59296,10.67688c3.86673,2.98374 10.33138,3.72647 10.33138,3.72647z" fill="#b4afb1" stroke-width="0"/><path d="M128.40603,181.00464c0,0 2.82888,1.50261 3.93399,1.53247c0.67887,0.01836 2.06597,-1.3703 2.06597,-1.3703l0.21551,9.22099l-0.65771,4.14325c0,0 -1.96783,0.00299 -2.82618,-2.74822c-0.70821,-2.26995 -2.7316,-10.77822 -2.7316,-10.77822z" fill="#504e4f" stroke-width="0"/><path d="M122.9187,174.95008l20.82735,-38.96007l1.68987,0.47595l-20.79036,39.38132z" fill="#858183" stroke-width="0"/><path d="M112.68049,132.05849l1.7548,-1.39259c0,0 27.17751,3.66232 39.43433,5.60804c10.63809,1.68872 31.49453,5.357 31.49453,5.357l0.21853,2.0004c0,0 -20.9232,-4.03624 -32.13641,-5.8163c-12.80405,-2.03258 -40.76577,-5.75655 -40.76577,-5.75655z" fill="#918b8e" stroke-width="0"/><path d="M113.87908,131.00261l2.30321,-1.60008c0,0 25.62351,3.71019 37.88034,5.6559c10.63809,1.68872 31.49453,5.357 31.49453,5.357l0.21853,2.0004c0,0 -20.9232,-4.03624 -32.13641,-5.8163c-12.80405,-2.03258 -39.76021,-5.59691 -39.76021,-5.59691z" fill="#a59fa2" stroke-width="0"/><path d="M174.42992,161.66105l-1.01077,-5.91424c0,0 0.39793,-1.15693 0.7445,-1.21616c0.30534,-0.05218 1.2269,0.87923 1.2269,0.87923l1.01076,5.91424c0,0 -0.41031,0.82348 -0.71637,0.87578c-0.34615,0.05917 -1.25503,-0.53885 -1.25503,-0.53885z" fill="#494242" stroke-width="0"/><path d="M134.23812,157.96263l4.98624,-8.81297l3.83764,0.60921l-4.98624,8.81297z" fill="#9c989a" stroke-width="0"/><path d="M146.47401,141.90626l1.97958,-0.66583l24.13379,3.84941l1.84417,1.25457z" fill="#757274" stroke-width="0"/><path d="M146.12643,144.69762l1.97958,-0.66583l24.13379,3.84941l1.84417,1.25457z" fill="#757274" stroke-width="0"/><path d="M93.88965,168.41177l10.80389,-57.17088l1.80551,0.87463l-10.32801,57.65263z" fill="#686666" stroke-width="0"/><path d="M93.68593,168.65315l3.19508,-15.95205l1.66408,4.13042l-2.51776,13.07705z" fill="#535252" stroke-width="0"/><path d="M127.63789,150.88169c0,0 2.4655,-1.98345 2.61394,-2.91855c0.14566,-0.91761 -1.73146,-2.64057 -1.73146,-2.64057c0,0 2.85994,1.13211 2.4923,2.78319c-0.28003,1.25761 -1.66078,3.25484 -1.91991,4.32988c-0.73682,3.05675 -2.56885,10.20528 -2.56885,10.20528z" fill="#c4bec1" stroke-width="0"/><path d="M135.51863,150.19714l3.48646,-9.7696l3.2,-3.90083l-4.12077,9.02371z" fill="#aca7a9" stroke-width="0"/></g></g><g stroke-width="0"><path d="M256.48074,141.22025l3.04531,-2.88747c0,0 2.0103,-1.13519 2.78192,-0.73428c0.8798,0.45713 2.21503,3.33055 2.21503,3.33055l-1.17524,3.94648c0,0 -4.2271,-0.67867 -5.45682,-1.00885c-0.55436,-0.14885 -1.41021,-2.64646 -1.41021,-2.64646z" fill="#c0c0c0"/><path d="M212.57954,144.02315c0,0 0.27724,-2.87206 1.50183,-3.8308c1.53466,-1.20148 7.88624,-2.43311 7.88624,-2.43311l-1.44448,4.56712l-0.458,2.88506z" fill="#838383"/><path d="M212.42116,143.92273l9.17747,-6.11813l37.09782,5.88908l-1.17294,7.38876z" fill="#999999"/><path d="M213.51071,143.43103l6.99932,-4.80315l33.35465,5.2949l-0.91577,5.76888c0,0 -4.03707,-0.64087 -9.23023,-1.46525c-3.37637,-0.53599 -7.07499,-2.19842 -10.63704,-2.76389c-3.8212,-0.6066 -7.46021,-0.10896 -9.60651,-0.44967c-4.20056,-0.66682 -9.96445,-1.58179 -9.96445,-1.58179z" fill="#2e2e2e"/><path d="M216.96011,143.97636l9.19089,-4.51821l12.30997,1.95414c0,0 -7.5839,0.72735 -10.06811,1.259c-2.63723,0.5644 -6.14057,2.1452 -6.14057,2.1452z" fill="#a5899d"/><path d="M224.86813,145.11757c0,0 5.17467,-0.16283 7.60138,0.2224c3.10077,0.49223 9.48159,2.48944 9.48159,2.48944l-9.48213,-1.84463z" fill="#adadad"/><path d="M212.52727,143.92117l8.28771,-5.52057l34.53425,5.48216l-0.10794,0.68004c0,0 -29.90236,-4.74685 -33.8002,-5.36559c-0.81529,-0.12943 -8.91381,4.72399 -8.91381,4.72399z" fill="#8a8a8a"/><path d="M258.1336,157.47479l1.52947,-9.63472l1.77182,-7.01081c0,0 1.09883,0.65024 1.55755,1.29359c0.45873,0.64337 0.66062,1.81736 0.66062,1.81736l-3.53135,13.85017z" fill="#9e9e9e"/><path d="M253.41277,152.44162c0,0 -0.56732,-2.24155 -0.45318,-3.8325c0.15371,-2.14235 1.86383,-7.45817 1.86383,-7.45817l1.96843,-0.01695c0,0 0.62532,0.901 1.1207,0.82858c0.68296,-0.09981 2.59809,-1.37199 2.59809,-1.37199l-2.50595,12.57998z" fill="#9c9c9c"/><path d="M253.69258,154.33966c-0.59956,-1.21343 -0.14681,-2.53188 -0.14681,-2.53188l5.94625,-6.34658c0,0 0.76747,4.05429 0.62378,4.95937c-0.40848,2.57332 -0.1591,7.42205 -0.1591,7.42205c0,0 -2.95636,-0.38452 -3.91364,-0.98063c-1.14809,-0.7149 -1.75092,-1.30892 -2.35047,-2.52238z" fill="#888888"/><path d="M255.57267,153.85418c-0.66253,-2.12999 -0.96083,-6.69624 1.49793,-10.42363c2.45874,-3.72739 4.50907,-1.24406 4.50907,-1.24406c0,0 0.30059,4.52607 -0.06201,6.81032c-0.33033,2.08077 -2.02583,6.34181 -2.02583,6.34181c0,0 -3.25665,0.64551 -3.91916,-1.48445z" fill="#b4b4b4"/><path d="M260.88949,146.90653c-0.22126,1.39362 -5.28012,0.66893 -5.05891,-0.72469c0.22126,-1.39362 4.08912,-6.24944 4.89148,-6.12206c0.31076,0.04936 0.93069,0.25087 0.95844,1.32923c0.04392,1.70603 -0.6555,4.66363 -0.79101,5.5175z" fill="#bbbbbb"/></g><g stroke-width="0"><path d="M196.98254,140.33883c0,0 -5.0132,-5.77472 -4.71948,-7.62497c0.23982,-1.51074 6.2207,-0.68598 6.2207,-0.68598l7.44071,1.25394l-5.66434,10.01476z" fill="#f399c8"/><path d="M166.57656,137.17429c0,0 -0.62919,-2.224 -0.20692,-3.24312c0.46602,-1.12469 3.06601,-4.36198 3.06601,-4.36198l22.78235,3.42857l7.66138,9.94736z" fill="#ee96c3"/></g></g><g stroke-width="0"><g><path d="M263.97659,132.66373l0.96919,-6.10537l47.22683,7.49701l-0.96919,6.10537z" fill="#61585b"/><path d="M264.32386,129.4347l0.51899,-3.26943l47.40642,7.52551l-0.51899,3.26943c0,0 -8.53401,-1.35474 -17.30059,-2.74637c-2.74094,-0.4351 -6.83226,0.45166 -9.36496,0.0496c-3.01169,-0.47808 -6.00378,-2.48929 -7.93564,-2.79597c-5.79276,-0.91959 -12.80517,-2.03276 -12.80517,-2.03276z" fill="#494344"/><path d="M326.4222,132.60456l-6.24959,-20.16209l20.66054,3.27976l12.60786,18.98578c0,0 -5.85302,0.4493 -9.08554,0.19768c-4.98811,-0.38832 -17.9333,-2.30105 -17.9333,-2.30105z" fill="#5e555b"/><path d="M325.88569,135.9975l0.86835,-5.47c0,0 12.37424,0.49303 17.3281,0.49002c3.93152,-0.00239 6.79374,-0.13736 6.79374,-0.13736l4.77808,7.78413c0,0 -5.51672,0.74038 -9.68287,0.5285c-5.64499,-0.28709 -20.08533,-3.1953 -20.08533,-3.1953z" fill="url(#color-5)"/><path d="M318.47382,112.33354l0.62652,-3.94673l18.91467,3.00263l2.96487,4.51689z" fill="url(#color-6)"/><path d="M325.30526,135.9306l0.19741,-1.24367c0,0 15.4286,2.37187 20.77481,3.0509c3.99761,0.50778 8.61062,-0.35651 8.61062,-0.35651l0.69843,1.26996l-8.44359,0.74595z" fill="#312c30"/><g><path d="M227.19686,109.62306l1.16519,-8.78432l92.76379,14.72577l5.77726,12.34019z" fill="#8a6672"/><path d="M242.23255,120.39931c0,0 -2.9107,-4.11298 -5.45152,-5.99625c-2.54084,-1.88324 -9.55193,-2.75581 -9.55193,-2.75581l0.43805,-2.04369c0,0 12.12756,2.20508 19.05506,3.40114c16.54879,2.8573 79.80842,13.66855 79.80842,13.66855l2.5488,7.05387z" fill="#755761"/><path d="M244.65533,123.30601l-2.58165,-3.03406l86.57992,13.24859l0.70748,3.23202z" fill="#694e57"/><path d="M228.13724,101.20418l0.71006,-4.47298l89.78967,13.56579l2.91445,6.19476c0,0 2.19774,3.72872 -3.01918,2.87493c-1.6423,-0.26878 -10.12228,-5.02558 -11.76869,-5.29501c-15.85599,-2.5949 -78.62635,-12.86747 -78.62635,-12.86747z" fill="#916b77"/><path d="M229.0862,96.7692l0.27843,-2.51193l88.81869,13.95903l0.65722,2.52653z" fill="#9e7582"/><path d="M302.1881,109.06618c-7.86648,-1.90483 -71.56877,-13.06248 -71.56877,-13.06248l86.76758,13.77389l3.57476,8.10182c0,0 -10.90713,-6.90845 -18.77356,-8.81325z" fill="#b38f9a"/></g><path d="M275.14581,128.14338l1.43826,-9.06034l19.96227,3.16889l-1.43826,9.06034z" fill="#3a3336"/><path d="M276.49668,119.07336l0.94633,-1.39135l18.30915,2.90647l0.73426,1.65811z" fill="#4b4246"/><path d="M275.36257,127.67211l1.2821,-8.07645c0,0 0.22046,5.36681 2.67207,6.8761c2.45164,1.50932 15.45028,4.2807 15.45028,4.2807z" fill="#332c30"/><path d="M319.36541,114.72677l-2.93083,-6.5404c0,0 1.11481,-0.49808 1.70802,-0.40387c0.66314,0.10528 2.08451,1.00589 2.08451,1.00589l2.93083,6.5404z" fill="#757575"/><path d="M321.60616,119.87638l-4.21436,-9.3891l3.79248,0.60203l4.21436,9.3891z" fill="#5a5a5a"/><path d="M324.78749,126.91109l-4.21436,-9.3891l3.79248,0.60203l4.21436,9.3891z" fill="#505050"/><path d="M328.07497,134.19632c-0.71979,-1.60362 -3.52839,-7.86075 -3.52839,-7.86075l3.79248,0.60203l4.91309,11.23573c0,0 -2.11436,0.20655 -3.0498,0.04307c-0.72967,-0.12755 -1.81005,-3.31299 -2.12742,-4.02011z" fill="#3b3b3b"/><path d="M225.26649,111.94731l2.92785,-18.4438l3.14162,0.49872l-2.92785,18.4438z" fill="#443e42"/><path d="M206.37308,110.56707l0.25216,-5.9622l19.9784,3.17147l-0.9294,5.85468z" fill="url(#color-7)"/><path d="M206.52642,105.22772l1.70059,-10.71283l19.9784,3.17147l-1.70059,10.71283z" fill="#5e555b"/><path d="M208.20721,94.63956l1.44268,-3.98533l19.18829,3.04604l-0.65255,4.11075z" fill="url(#color-8)"/><path d="M278.26004,101.74544l0.96158,-6.05746l14.66919,3.40868l3.82643,5.37751z" fill="#5e555b"/><path d="M297.66159,104.82534l-3.78465,-5.6409c0,0 2.87061,1.15497 4.91477,2.49022c2.04421,1.33524 5.27849,4.16799 5.27849,4.16799z" fill="#776b73"/><path d="M275.094,102.41287l3.35554,-0.72735l25.32521,3.75024l3.36244,2.06381z" fill="#6d6269"/></g><g><path d="M277.19693,124.44912c0.19581,-1.23335 0.88117,-2.29579 1.42639,-3.2517c0.7597,-1.33201 1.54099,-2.41067 2.95142,-3.04356c0.8615,-0.38657 2.04577,-0.59285 3.06015,-0.67522c0.67092,-0.05445 1.72047,-0.29292 2.41478,-0.18272c1.57401,0.24986 1.89926,0.38427 2.95699,1.05441c0.63716,0.40371 2.1859,1.10428 2.60893,1.85193c0.35801,0.63281 0.67923,1.64425 0.91011,2.36906c0.39461,1.23865 0.89484,3.20591 0.6771,4.57737c-0.09203,0.5796 -0.78772,1.82436 -0.9176,2.32566c-0.41229,1.59149 -0.4929,2.09468 -1.8644,2.99425c-0.83359,0.54675 -2.4081,0.85149 -3.44396,1.10217c-1.07281,0.25959 -2.46864,0.91493 -3.62682,0.73106c-0.7817,-0.12409 -2.10827,-0.87636 -2.84421,-1.1311c-1.59668,-0.55262 -2.4504,-0.8648 -3.28838,-2.15226c-0.71861,-1.10407 -0.72545,-2.72351 -0.87231,-4.12141c-0.07714,-0.7344 -0.26953,-1.68397 -0.14825,-2.44802z" fill="#3a3a3a"/><path d="M277.93751,124.44659c0.17917,-1.12865 0.80638,-2.10085 1.30529,-2.97562c0.69523,-1.21894 1.41015,-2.20599 2.70084,-2.78514c0.78837,-0.35377 1.87206,-0.54254 2.80037,-0.61787c0.61396,-0.04985 1.57437,-0.26804 2.20975,-0.16719c1.44036,0.22865 1.73799,0.35162 2.70594,0.96486c0.58303,0.36941 2.00035,1.0105 2.38742,1.6947c0.3276,0.5791 0.62155,1.50466 0.83285,2.16788c0.36109,1.13349 0.81886,2.93373 0.61961,4.18873c-0.08418,0.53037 -0.72082,1.66945 -0.83967,2.12817c-0.37728,1.45637 -0.45106,1.91683 -1.70607,2.74006c-0.76282,0.50035 -2.2036,0.77919 -3.15155,1.00861c-0.98173,0.23757 -2.25905,0.83727 -3.31888,0.66898c-0.71534,-0.11355 -1.92928,-0.80195 -2.60272,-1.03504c-1.4611,-0.50573 -2.24232,-0.79135 -3.00917,-1.96954c-0.65761,-1.01031 -0.66385,-2.49225 -0.79827,-3.77149c-0.07059,-0.67207 -0.24666,-1.54099 -0.13568,-2.24019z" fill="#5a5a5a"/><path d="M290.68884,121.8847c-1.64558,-2.67688 -6.64463,-3.67357 -6.64463,-3.67357c0,0 2.00292,-0.22881 3.96737,0.09005c1.59128,0.25828 3.08703,0.86475 4.02827,2.33148c0.94198,1.46791 1.09823,2.99599 1.16269,4.41914c0.1264,2.79032 -0.68115,5.08487 -0.68115,5.08487c0,0 -0.18697,-5.5751 -1.83256,-8.25194z" fill="#6d6d6d"/><path d="M284.6409,126.00634c0.09027,-0.56861 0.62436,-0.95635 1.19297,-0.86609c0.56861,0.09027 0.95635,0.62436 0.86609,1.19297c-0.09027,0.56861 -0.62436,0.95635 -1.19297,0.86609c-0.56861,-0.09027 -0.95635,-0.62436 -0.86609,-1.19297z" fill="#272727"/><path d="M284.54143,126.12908c0.08279,-0.52151 0.57265,-0.87715 1.09416,-0.79438c0.52151,0.08279 0.87715,0.57265 0.79438,1.09416c-0.08279,0.52151 -0.57265,0.87715 -1.09416,0.79438c-0.52151,-0.08279 -0.87715,-0.57265 -0.79438,-1.09416z" fill="#131313"/></g></g></g></g></g><path d="M179.54454,220.72538c0.24847,-1.56508 2.72558,-44.3316 3.47742,-45.90835c1.01514,-2.12895 9.17966,0.53469 12.34356,-0.48976c9.6899,-3.1375 20.10074,-6.12934 20.10074,-6.12934c0,0 13.80336,2.77897 17.98745,3.44314c3.12894,0.49671 66.59231,1.18908 65.70633,11.49922c-1.20173,13.98448 -43.92574,-3.87736 -45.8276,8.10327c-0.48146,3.03297 1.86782,3.60384 0.81568,6.62344c-0.25249,0.72471 -3.38713,5.47086 -3.87144,7.09101c-0.76882,2.57182 1.858,7.04145 -1.8971,9.58341c-2.99335,2.02631 -1.87184,7.28402 -2.6933,8.38446c-5.66076,7.58323 -13.29016,2.52005 -22.19157,1.10701c-10.55385,-1.67538 -26.49546,-0.43605 -35.56896,-3.12925c-3.91669,-1.16255 -9.10439,4.37746 -8.38121,-0.17823z" fill="#86c8f5" stroke-width="0"/><g><g><path d="M172.73737,237.32277l0.87514,-5.5129c0,0 2.18571,0.52722 3.18079,-0.29053c1.40587,-1.15536 4.65479,-5.84379 4.65479,-5.84379l-0.64309,8.09301c0,0 -3.54352,2.67601 -5.20362,3.32115c-1.1986,0.46576 -2.86404,0.23301 -2.86404,0.23301z" fill="#4d484c" stroke-width="0"/><g><g fill="none" stroke-width="1" font-family="sans-serif" font-weight="normal" font-size="12" text-anchor="start"/><g stroke-width="0"><g><path d="M133.32714,208.9372l1.41926,-41.09218l8.29745,1.31716l-1.41926,41.09218z" fill="#a59da1"/><path d="M134.68165,168.02769c0,0 -0.06114,-4.55816 1.91542,-5.54218c1.97656,-0.98409 7.03561,-0.43739 7.03561,-0.43739l-0.64002,7.29891z" fill="#b9b0b5"/><path d="M133.41618,219.72971l-0.02685,-10.81073l8.2578,1.31089l0.02685,10.81073z" fill="#8b8488"/></g><g><path d="M173.55428,211.88374l1.41927,-41.09217l4.48304,0.71167l-1.41926,41.09217z" fill="#a59da1"/><path d="M174.97464,171.80161l0.20519,-6.48929c0,0 3.00511,-0.2119 3.86734,1.08908c0.86224,1.30098 0.35822,5.28667 0.35822,5.28667z" fill="#b9b0b5"/><path d="M173.631,222.67436l-0.02685,-10.81073l4.45577,0.70731l0.02686,10.81073z" fill="#8b8488"/></g><path d="M133.01906,228.35003c0,0 -2.79975,-3.22157 -2.95973,-4.75013c-0.17809,-1.70157 1.93961,-4.99615 1.93961,-4.99615l47.76688,3.13282c0,0 1.62327,2.62079 1.80655,4.15483c0.25686,2.1502 -4.67124,6.34401 -4.67124,6.34401z" fill="#494547"/><path d="M143.33753,165.98162c0,0 -2.19877,-0.92346 -2.53415,-1.55817c-0.36825,-0.69697 1.22467,-2.55277 1.22467,-2.55277c0,0 12.05375,0.88884 17.31614,1.39806c6.13474,0.5936 16.46772,2.04778 16.46772,2.04778c0,0 0.33263,1.29205 0.15471,1.86867c-0.17235,0.55845 -0.80767,1.6015 -0.80767,1.6015z" fill="#c2b8bd"/><path d="M133.5612,227.20009c0,0 -0.77499,-2.99384 -0.75137,-4.68665c0.0196,-1.40489 0.69501,-3.58328 0.69501,-3.58328l44.9273,3.02437c0,0 1.50899,3.43195 1.24831,5.07409c-0.28006,1.76409 -2.68648,3.9855 -2.68648,3.9855z" fill="#6f696b"/><path d="M143.69451,234.30638l0.87513,-5.51289l29.67664,3.08612l-0.87513,5.51289z" fill="#333032"/><path d="M132.28522,232.61818c-0.99539,-0.81406 -2.42485,-2.52508 -2.42485,-2.52508l0.21009,-6.87141c0,0 2.08683,2.63211 3.06581,4.16604c0.6929,1.08573 11.49765,1.30305 11.49765,1.30305l-0.87513,5.51289c0,0 -10.47818,-0.77148 -11.47358,-1.58551z" data-paper-data="{&quot;index&quot;:null}" fill="#444043"/><g><path d="M140.30491,180.65586c0,0 -1.80932,-5.08874 -1.56212,-6.81351c0.17113,-1.19413 2.90277,-2.54174 2.90277,-2.54174l35.10251,2.51004c0,0 1.08421,3.33508 0.86331,4.87691c-0.22582,1.57583 -2.20395,4.47831 -2.20395,4.47831z" fill="#979797"/><path d="M140.52483,179.61131c0,0 -1.91541,-4.55386 -1.70801,-6.078c0.14358,-1.05525 2.83286,-2.18919 2.83286,-2.18919l35.00266,3.01358c0,0 1.15426,2.98225 0.96883,4.34477c-0.18948,1.39255 -2.09367,3.92244 -2.09367,3.92244z" fill="#a2a2a2"/></g><g><path d="M140.06314,197.36422c0,0 -1.80932,-5.08874 -1.56212,-6.81351c0.17113,-1.19413 2.90277,-2.54174 2.90277,-2.54174l35.10251,2.51004c0,0 1.08421,3.33508 0.86331,4.87691c-0.22582,1.57583 -2.20395,4.4783 -2.20395,4.4783z" fill="#979797"/><path d="M140.28304,196.31973c0,0 -1.9154,-4.55386 -1.708,-6.078c0.14357,-1.05524 2.83285,-2.18919 2.83285,-2.18919l35.00266,3.01359c0,0 1.15426,2.98225 0.96883,4.34477c-0.18949,1.39255 -2.09367,3.92244 -2.09367,3.92244z" fill="#a2a2a2"/></g><g><path d="M139.84939,214.5785c0,0 -1.80932,-5.08874 -1.56212,-6.81351c0.17113,-1.19413 2.90277,-2.54174 2.90277,-2.54174l35.10251,2.51004c0,0 1.08421,3.33508 0.86331,4.87691c-0.22582,1.57583 -2.20395,4.4783 -2.20395,4.4783z" fill="#7a7a7a"/><path d="M140.0693,213.53402c0,0 -1.91541,-4.55386 -1.70801,-6.07801c0.14357,-1.05524 2.83284,-2.18919 2.83284,-2.18919l35.00267,3.01358c0,0 1.15425,2.98225 0.96883,4.34477c-0.18949,1.39255 -2.09367,3.92245 -2.09367,3.92245z" fill="#929292"/></g></g></g></g><path d="M133.31542,212.93876c0,0 -0.11166,-1.75567 -0.05043,-4.08548c0.17976,-6.84017 1.23496,-40.98299 1.23496,-40.98299l2.45417,4.74645l-1.25946,29.59325z" fill="#777275" stroke-width="0"/></g></g></g></svg>