<svg version="1.1" xmlns="http://www.w3.org/2000/svg" xmlns:xlink="http://www.w3.org/1999/xlink" width="468.22079" height="160.37825" viewBox="0,0,468.22079,160.37825"><defs><linearGradient x1="518.83141" y1="212.55914" x2="517.91014" y2="217.2817" gradientUnits="userSpaceOnUse" id="color-1"><stop offset="0" stop-color="#1f1d20"/><stop offset="1" stop-color="#202022"/></linearGradient><linearGradient x1="520.19246" y1="207.87805" x2="519.13243" y2="213.31184" gradientUnits="userSpaceOnUse" id="color-2"><stop offset="0" stop-color="#302d31"/><stop offset="1" stop-color="#1f1e20"/></linearGradient><linearGradient x1="182.39806" y1="190.95688" x2="181.74896" y2="194.28418" gradientUnits="userSpaceOnUse" id="color-3"><stop offset="0" stop-color="#585758"/><stop offset="1" stop-color="#575758"/></linearGradient><linearGradient x1="167.59772" y1="198.3381" x2="167.08815" y2="200.95024" gradientUnits="userSpaceOnUse" id="color-4"><stop offset="0" stop-color="#363536"/><stop offset="1" stop-color="#353536"/></linearGradient><linearGradient x1="326.08054" y1="134.70418" x2="325.0201" y2="140.14018" gradientUnits="userSpaceOnUse" id="color-5"><stop offset="0" stop-color="#5e555b"/><stop offset="1" stop-color="#2b2629"/></linearGradient><linearGradient x1="320.46066" y1="112.55129" x2="319.69549" y2="116.47355" gradientUnits="userSpaceOnUse" id="color-6"><stop offset="0" stop-color="#72676e"/><stop offset="1" stop-color="#5e555b"/></linearGradient><linearGradient x1="206.93263" y1="104.56489" x2="205.79755" y2="110.38324" gradientUnits="userSpaceOnUse" id="color-7"><stop offset="0" stop-color="#5e555b"/><stop offset="1" stop-color="#4d454a"/></linearGradient><linearGradient x1="209.66155" y1="90.57632" x2="208.86458" y2="94.66155" gradientUnits="userSpaceOnUse" id="color-8"><stop offset="0" stop-color="#74686f"/><stop offset="1" stop-color="#5e555b"/></linearGradient></defs><g transform="translate(-55.63374,-88.79295)"><g data-paper-data="{&quot;isPaintingLayer&quot;:true}" fill-rule="nonzero" stroke="none" stroke-linecap="butt" stroke-linejoin="miter" stroke-miterlimit="10" stroke-dasharray="" stroke-dashoffset="0" style="mix-blend-mode: normal"><path d="M390.82907,235.91029c-0.24821,8.66997 -4.80559,13.72617 -22.23654,13.22711c-6.46551,-0.1851 -17.55466,-2.07637 -22.64511,-1.51695c-3.78326,0.41576 -7.0525,2.53713 -9.37896,0.58424c-2.98249,-2.50357 -2.30895,-22.34354 -2.22124,-25.40752c0.24821,-8.66997 22.87527,-15.04724 40.30617,-14.54819c17.43092,0.49905 16.42386,18.99134 16.17566,27.66131z" fill="#86c8f5" stroke-width="0"/><g><g><g stroke-width="0"><path d="M245.52041,187.99678l-7.10272,-17.02016l25.21526,4.31771c0,0 -2.19418,5.51065 -2.9071,8.12098c-0.68959,2.52505 -1.30266,7.29366 -1.30266,7.29366z" fill="#7f7d7e"/><path d="M245.57934,188.20875l-2.49867,-6.20006c0,0 1.63424,3.94089 4.69278,5.16386c2.20246,0.88065 4.11308,0.9376 6.68347,1.76588c2.57041,0.82829 4.83211,1.94488 4.83211,1.94488z" fill="#6c6a6b"/></g><g><g><g><path d="M514.97437,216.709l-1.09961,-5.1168c0,0 5.56319,2.77437 7.94157,4.14805c2.37838,1.37367 0.65081,2.19419 0.65081,2.19419z" fill="url(#color-1)" stroke-width="0"/><path d="M523.67247,208.76032c0,0 1.00654,2.56802 -1.7137,2.94706c-2.72028,0.37904 -5.80379,1.02359 -5.80379,1.02359l0.10734,-5.61965z" data-paper-data="{&quot;index&quot;:null}" fill="url(#color-2)" stroke-width="0"/><path d="M505.53532,214.86293l0.40181,-2.05952l14.49924,2.82853c0,0 1.08222,1.0204 1.49089,1.4733c0.36736,0.40714 -0.90116,0.77969 -0.90116,0.77969z" fill="#444444" stroke-width="NaN"/><path d="M505.9427,212.95063l-0.83282,-1.94942l12.38224,2.41554l3.0168,2.26156c0,0 -4.18538,-0.57401 -6.45089,-0.99825c-2.55502,-0.47847 -8.11536,-1.72946 -8.11536,-1.72946z" fill="#535353" stroke-width="0"/><path d="M504.97367,211.11392l-0.1962,-0.69032l11.26148,2.1969l1.55363,0.83871z" fill="#363636" stroke-width="0"/><path d="M505.53532,214.86293l0.21796,-1.11729c0,0 6.24734,1.68091 9.07386,2.23229c2.39521,0.46725 6.80651,0.86568 6.80651,0.86568c0,0 0.75963,0.61916 0.96353,0.86562c0.17203,0.20794 -0.33468,0.41689 -0.33468,0.41689c0,0 -4.72263,-0.50922 -6.99357,-0.9522c-3.0638,-0.5977 -9.73359,-2.31098 -9.73359,-2.31098z" fill="#3a3a3a" stroke-width="NaN"/><path d="M505.08894,210.50296l-0.37406,-0.97335l13.38924,2.61199l-1.96361,0.55189z" fill="#242424" stroke-width="0"/><path d="M503.88555,209.56062l0.31675,-1.62371c0,0 7.98308,1.34726 10.9234,1.92087c2.00326,0.39084 5.01271,1.18798 5.01271,1.18798l-2.06528,1.11452z" fill="#3a3a3a" stroke-width="0"/><path d="M504.06697,207.95389l0.3911,-2.00475c0,0 7.57484,1.1416 10.82779,1.77618c2.81491,0.54915 7.56655,1.81222 7.56655,1.81222l-2.76454,1.54174c0,0 -3.57151,-0.78074 -5.77438,-1.21051c-2.92816,-0.57122 -10.2465,-1.9149 -10.2465,-1.9149z" fill="#444444" stroke-width="0"/><path d="M504.39944,206.02435l0.16297,-0.83531c0,0 7.75183,1.38618 11.28249,2.07498c2.45845,0.4796 7.87472,1.66224 7.87472,1.66224l-1.01199,0.66968c0,0 -4.90522,-1.25103 -7.81558,-1.81878c-3.20645,-0.62555 -10.49264,-1.75282 -10.49264,-1.75282z" fill="#535353" stroke-width="0"/><path d="M504.41892,205.24779l0.0652,-0.33415c0,0 7.63137,0.97216 11.02771,1.63471c2.9364,0.57286 8.17191,2.1108 8.17191,2.1108l-0.0283,0.34133c0,0 -5.86611,-1.31242 -9.05111,-1.93378c-3.22662,-0.62948 -10.18536,-1.81892 -10.18536,-1.81892z" fill="#4e4e4e" stroke-width="0"/></g><g stroke-width="0"><g><g><g><path d="M499.8833,213.26313l-1.97655,-13.79738l0.87236,-1.58362c0,0 2.79221,3.8348 3.22067,6.45571c0.2326,1.42287 -0.68885,9.20378 -0.68885,9.20378z" fill="#383638"/><path d="M501.04738,212.78577c0,0 0.17404,-0.58722 0.02707,-3.11708c-0.16025,-2.75888 -0.83057,-6.59526 -1.01079,-7.72463c-0.40458,-2.53508 -1.12052,-2.8077 -1.12052,-2.8077l4.82257,0.34803l2.27837,14.27615z" fill="#555355"/><path d="M498.98964,199.23243l-0.33432,-1.3249c0,0 2.13599,-0.3984 3.07983,-0.21428c0.88443,0.17254 1.85942,1.10373 1.85942,1.10373l0.32037,1.39627z" fill="#686668"/></g><path d="M494.31555,212.17695l-1.97654,-13.79736l0.54382,-1.62718c0,0 3.12079,3.87835 3.54922,6.49924c0.2326,1.42286 -0.68884,9.20378 -0.68884,9.20378z" fill="#383638"/><path d="M495.47963,211.69958c0,0 0.17404,-0.58723 0.02708,-3.11708c-0.16025,-2.75888 -0.83056,-6.59526 -1.01078,-7.72463c-0.40458,-2.53508 -1.12053,-2.8077 -1.12053,-2.8077l4.1822,-0.28634c0,0 0.76698,1.42752 0.8903,2.2002c0.35136,2.20146 2.02849,12.71028 2.02849,12.71028z" fill="#555355"/><path d="M493.42188,198.14622l-0.54848,-1.36668c0,0 2.35014,-0.35661 3.29398,-0.17247c0.88443,0.17254 1.5739,1.04801 1.5739,1.04801l0.4431,1.42021z" fill="#686668"/><path d="M502.04088,211.9671c0.1569,-0.80434 0.93617,-1.32919 1.74056,-1.17231c0.80436,0.1569 1.32919,0.93617 1.1723,1.74055c-0.1569,0.80434 -0.93617,1.3292 -1.74054,1.17231c-0.80436,-0.1569 -1.32918,-0.93617 -1.17231,-1.74055z" fill="#312f31"/><path d="M503.24525,209.21753l-0.90039,-5.82673l1.58936,0.164l0.88803,5.89006z" fill="#444144"/></g><path d="M456.66169,199.7713l-1.62263,-11.34412l29.10419,6.87636l-2.30902,9.37848z" fill="#444444"/><path d="M469.8184,198.34863c0,0 0.72416,-0.3905 1.64463,-1.33666c0.84163,-0.86506 1.86283,-2.2735 2.32915,-2.65502c1.28398,-1.48819 3.52912,-0.57456 3.52912,-0.57456l-1.0865,0.45342l-5.29469,4.33166z" fill="#292929"/><path d="M470.54985,209.21924l-4.29304,-12.01574c0,0 3.33227,1.19138 5.20526,0.48789c1.45546,-0.5467 1.867,-3.14797 3.46895,-3.12165c4.59611,0.07551 17.31553,2.11476 17.31553,2.11476c0,0 1.81215,7.63317 2.16943,10.64435c0.24666,2.0788 -0.19804,6.50759 -0.19804,6.50759z" fill="#4a464a"/><path d="M477.12037,197.14537c-4.35465,-1.49756 -2.67931,-2.56039 -2.67931,-2.56039c0,0 1.02739,-1.12636 2.88814,-0.91228c4.56628,0.52537 12.93895,2.7465 14.63423,3.05109c0.7995,0.14364 0.20693,0.74929 0.20693,0.74929c0,0 -1.91867,2.05663 -3.48925,2.00909c-1.57059,-0.04755 -7.20612,-0.83923 -11.56075,-2.33682z" fill="#5e595e"/></g><g><path d="M457.70533,213.41275l-1.63166,-18.59188l18.50312,3.90132l3.88191,5.16725l6.00524,1.07111l0.34342,13.73932z" fill="#4d4846"/><path d="M462.23495,214.69082l22.07225,-5.26268l21.95509,4.03605c0,0 0.48684,4.3567 0.36776,5.71357c-0.06072,0.6918 -0.7158,2.85993 -0.7158,2.85993z" fill="#423d3b"/><path d="M460.08308,205.80335l-1.23538,-10.27276l0.80533,0.15711l1.23539,10.27276z" fill="#363332"/><path d="M462.96319,214.01617l0.2331,-1.19487c0,0 5.65446,-1.49036 14.55161,0.2453c1.18214,0.23063 4.86445,3.5424 6.05594,3.77485c7.55963,1.47473 14.959,2.91822 17.77403,3.46736c2.29256,0.44724 4.88254,-0.37202 4.88254,-0.37202l-0.48203,2.47081z" fill="#312e2c"/><path d="M467.72861,201.96544l-0.82762,-4.86384l8.15398,1.59068l3.23157,5.1351l6.15268,1.398l-7.82243,0.45946z" fill="#585350"/><path d="M457.07173,207.04458l0.21605,-1.10732c0,0 8.61377,-2.13379 11.43777,-1.58287c4.25612,0.8303 16.00597,3.12247 16.00597,3.12247l-0.21604,1.10732c0,0 -11.95128,-2.33146 -16.20731,-3.16175c-2.76597,-0.5396 -11.23644,1.62215 -11.23644,1.62215z" fill="#2b2827"/></g></g></g><g><g><g><path d="M120.46373,184.8365c0.10303,2.2962 -0.69647,4.77859 -1.81786,4.82889c-1.12139,0.05032 -2.14004,-2.35044 -2.24308,-4.64667c-0.10303,-2.2962 -0.55679,-11.11668 0.56464,-11.16701c1.12139,-0.05032 3.39331,8.68855 3.49632,10.98481z" fill="#615e5f" stroke-width="0"/><g><path d="M167.01723,163.42514c-0.42833,-0.62113 -2.4744,-2.35739 -2.4744,-2.35739l10.2879,-0.92732l-7.26757,5.91797c0,0 -0.11759,-2.01213 -0.5459,-2.63325z" fill="#756a6a" stroke-width="0"/><path d="M158.48261,160.03101l2.62956,-13.47923l19.31374,-2.2095l-3.75283,19.23735z" fill="#8a7c7c" stroke-width="0"/><path d="M118.14459,157.71153l10.01534,-16.52136l34.31254,6.55792l2.02413,13.30031c0,0 -22.86633,-2.85505 -30.59856,-3.4117c-3.20972,-0.23107 -15.75347,0.07484 -15.75347,0.07484z" fill="#7c787a" stroke-width="0"/><path d="M127.81564,143.57318l0.13826,-1.48244c0,0 25.44456,4.96374 33.44363,6.52421c4.47548,0.87309 17.06912,-3.16057 17.06912,-3.16057l-0.31202,1.59949c0,0 -12.30121,4.07106 -16.62679,3.21228c-7.93148,-1.57467 -33.7122,-6.69295 -33.7122,-6.69295z" fill="#535353" stroke-width="0"/><path d="M86.52309,152.26395l3.85893,-19.7811c0,0 5.79796,-6.05601 13.34775,-6.92247c9.37712,-1.07613 25.61161,3.9097 27.64396,4.30616c1.55961,0.30424 -14.66329,7.75251 -14.66329,7.75251l-3.85893,19.78112z" fill="#8d898b" stroke-width="0"/><path d="M265.10568,140.08946l2.175,-2.77922l105.54765,20.73593l-2.82348,14.47341c0,0 -37.43501,-5.42256 -49.35001,-8.17091c-5.91735,-1.36493 -55.54912,-24.25922 -55.54912,-24.25922z" fill="#c98cac" stroke-width="0"/><path d="M224.50372,235.07284l-1.98263,-13.56706c0,0 3.9249,6.71524 6.51367,8.31741c1.64936,1.02079 5.72424,2.20469 12.18865,0.98242c5.20409,-0.98397 11.33231,-5.40316 11.33231,-5.40316l-14.30738,12.35171z" fill="#a08e97" stroke-width="0"/><path d="M322.30234,206.3511l2.22816,-23.63203l18.47282,2.17451l-4.05863,20.80484c0,0 -6.60818,0.4624 -9.45583,0.61831c-1.31118,0.07178 -7.18647,0.03439 -7.18647,0.03439z" fill="#96858d" stroke-width="0"/><path d="M221.98286,238.39751l1.06079,-5.43766c0,0 11.44396,4.34004 16.57567,2.16098c2.49746,-1.06048 23.0454,-18.37903 34.3844,-28.01828c4.42501,-3.7617 7.44757,-6.35389 7.44757,-6.35389c0,0 4.01965,-3.06016 4.57547,-5.88827c0.27959,-1.42268 1.54094,-5.43408 1.16734,-7.86189c-0.37694,-2.4495 -2.39011,-3.30922 -2.39011,-3.30922l-2.18331,-14.25407l19.42188,3.93522l-7.94362,25.52461l3.19814,3.23406c0,0 -10.5271,4.05957 -16.0192,8.03729c-8.5932,6.22361 -37.36759,31.56793 -37.36759,31.56793z" fill="#918189" stroke-width="0"/><path d="M299.48348,202.25895l6.66796,-27.84228l13.46797,2.90832l7.87384,13.76445l-5.32574,15.59478z" fill="#96858d" stroke-width="0"/><path d="M294.68856,203.20759l-1.66906,-4.54952l8.48813,-25.02772l5.00208,0.88951l-6.13669,27.92842z" fill="#8f8187" stroke-width="0"/><path d="M320.93621,206.54952c0,0 3.97738,-6.01684 3.68572,-11.58655c-0.16797,-3.20703 -4.61083,-6.0806 -4.71381,-8.04661c-0.19664,-3.75558 -0.50089,-9.56553 -0.50089,-9.56553l6.87421,5.78725c0,0 1.9619,7.73247 1.73261,12.02957c-0.15402,2.88702 -2.83108,8.86096 -4.23818,11.23432c-0.11862,0.20007 -1.25708,-0.10686 -1.3394,0.04552c-0.20111,0.37223 0.70097,0.78389 0.70097,0.78389z" fill="#86787e" stroke-width="0"/><path d="M325.78361,184.56917c0,0 -2.27638,-4.47356 -6.68621,-6.32379c-4.99241,-2.09466 -21.73807,-5.60197 -21.73807,-5.60197l157.53435,16.28291l1.57128,9.78368l5.63785,12.45257c0,0 -98.43468,-21.82272 -118.64211,-25.7648c-6.59399,-1.28636 -17.67708,-0.82858 -17.67708,-0.82858z" fill="#df8db7" stroke-width="0"/><path d="M165.36639,201.44636l2.23539,-36.51747c0,0 2.37023,-3.35898 2.90343,-3.4747c5.87865,-1.27586 39.36204,-5.59648 44.64584,-4.27404c5.78811,1.44866 -11.33443,10.2618 -11.33443,10.2618c0,0 -14.53112,-0.77062 -17.83562,2.91471c-4.4865,5.00362 -3.05154,22.96423 -3.05154,22.96423z" fill="#c77da3" stroke-width="0"/><path d="M242.17733,185.93766l-1.35328,-2.40896c0,0 8.08556,-7.19145 10.91311,-8.9758c2.91916,-1.84218 6.33577,-1.90932 6.33577,-1.90932l5.38484,3.39606c0,0 -4.29702,-1.35033 -6.94566,-0.11839c-2.27374,1.05756 -6.54592,3.36085 -9.88641,5.85979c-2.42997,1.81782 -4.44837,4.15657 -4.44837,4.15657z" fill="#414041" stroke-width="0"/><path d="M127.7025,142.48508l6.9494,-10.55417l47.72871,9.31098c0,0 -3.69805,3.81809 -7.13638,5.1505c-3.37462,1.30773 -13.30603,2.77142 -13.30603,2.77142z" fill="#979395" stroke-width="0"/><path d="M128.70652,141.51649l6.16422,-10.70737l47.72872,9.31099c0,0 -3.69806,3.81808 -7.13639,5.1505c-3.37462,1.30773 -13.30604,2.77142 -13.30604,2.77142z" fill="#bdb7ba" stroke-width="0"/><path d="M323.23843,207.32539l-1.73993,-0.86259l17.33651,-0.87146c0,0 -3.88843,1.33763 -6.47902,1.64416c-2.59059,0.30659 -9.11754,0.08988 -9.11754,0.08988z" fill="#887980" stroke-width="0"/><path d="M167.71716,202.37817c0,0 -0.29307,-10.71994 0.16293,-19.33038c0.45826,-8.65248 0.9129,-16.76218 1.57761,-20.28478c0.11263,-0.59678 3.63165,-10.02815 4.22203,-10.44421c3.18662,-2.24584 9.30253,6.83683 14.97499,6.81906c8.39902,-0.0263 27.2524,3.12786 27.2524,3.12786l-9.31413,3.59377c0,0 -19.63833,-0.91195 -22.96938,3.6723c-4.50554,6.20066 -1.07139,28.13684 -1.07139,28.13684z" fill="#d486ae" stroke-width="0"/><path d="M169.50152,199.14107c0,0 1.28791,-41.3908 4.51972,-51.02728c1.51213,-4.50879 -0.03672,-14.09051 -0.03672,-14.09051l48.3955,16.54109l-1.67939,16.04531c0,0 -30.85718,-9.17119 -38.29139,-4.22923c-4.96259,3.29891 -3.68725,32.32319 -3.68725,32.32319z" fill="#e490bb" stroke-width="0"/><g stroke-width="0"><path d="M317.4259,163.81716l1.58442,-8.12179l9.18681,1.79218l-1.58442,8.1218z" fill="#454545"/><path d="M318.38929,163.22589l1.04723,-7.23136l11.11662,2.16864l-1.39739,7.16306z" fill="#b0b0b0"/><path d="M319.02252,158.77574l0.31759,-2.8217l11.32927,2.21011l-0.36521,1.8721c0,0 -7.71041,-1.17563 -9.40488,-1.36496c-0.5662,-0.06324 -1.87678,0.10442 -1.87678,0.10442z" fill="#bebebe"/><path d="M329.50975,164.83538c0,0 -4.9489,-3.56896 -3.67088,-7.13797c1.89912,-5.30351 5.85251,-4.04516 5.85251,-4.04516l39.24254,9.01396l-1.92633,9.87447z" fill="#9c989a"/><path d="M331.51082,163.91221c0,0 -1.76697,-3.92998 -1.82916,-4.88641c-0.09216,-1.41773 2.43197,-3.93838 2.43197,-3.93838l40.81976,7.99716l-1.82645,7.27353z" fill="#898587"/><path d="M331.38417,164.08952l-0.62939,-2.09874l37.52437,7.32032l-0.37134,1.90352z" fill="#c1bcbf"/><path d="M331.9151,160.73516c0,0 -1.04674,-1.59798 -0.86728,-2.51798c0.16791,-0.86057 1.91165,-2.83565 1.91165,-2.83565l37.95126,7.40359l-1.0444,5.35361z" fill="#0d0d0d"/><path d="M331.76625,161.49808c0,0 -0.93113,-2.19056 -0.75165,-3.11058c0.16791,-0.86057 1.79604,-2.24305 1.79604,-2.24305l37.95126,7.40359l-1.04439,5.35362z" fill="#2e2e2e"/><path d="M326.66512,162.44211c-2.00276,-3.51548 -0.4118,-5.58568 -0.4118,-5.58568c0,0 1.01096,4.38707 2.05172,5.50463c1.23224,1.32313 4.51372,3.35501 4.51372,3.35501l-3.45728,-0.60295c0,0 -2.34391,-2.0523 -2.69636,-2.67096z" fill="#7d7a7c"/><path d="M334.25888,162.29986c0,0 -0.44893,-2.34129 -0.22996,-3.46368c0.19247,-0.98662 1.47452,-2.91605 1.47452,-2.91605l4.73409,0.92355c0,0 -0.87458,2.07492 -1.04083,2.92706c-0.2285,1.17121 -0.20373,3.45265 -0.20373,3.45265z" fill="#555555"/><path d="M342.71613,163.94972c0,0 1.13742,-2.34878 1.35639,-3.47117c0.19247,-0.98662 -0.11182,-2.90857 -0.11182,-2.90857l5.28373,1.03075c0,0 -0.73735,1.60357 -0.90359,2.45573c-0.2285,1.17121 -0.34096,3.92398 -0.34096,3.92398z" fill="#555555"/><path d="M351.87023,165.73554c0,0 1.13744,-2.3488 1.35642,-3.47117c0.19247,-0.98662 -0.11181,-2.90856 -0.11181,-2.90856l5.2052,1.01541c0,0 -0.73735,1.60357 -0.90359,2.45573c-0.2285,1.17121 -0.34096,3.92397 -0.34096,3.92397z" fill="#555555"/><path d="M361.35474,167.58578c0,0 1.24386,-1.96573 1.4628,-3.08816c0.19247,-0.98662 -0.21824,-3.29157 -0.21824,-3.29157l5.04818,0.98479c0,0 0.43299,2.10355 0.26676,2.95576c-0.2285,1.17121 -1.51132,3.42399 -1.51132,3.42399z" fill="#555555"/><path d="M335.10741,156.56012l-0.49963,-0.91255l34.90463,6.80925l-1.65904,0.49143c0,0 -2.77771,-0.54189 -5.19436,-1.01333c-0.52675,-0.10277 -1.46062,-0.61988 -2.24963,-0.77384c-0.76291,-0.14885 -1.37344,0.06702 -2.32175,-0.11799c-1.4788,-0.2885 -3.14731,-0.61399 -4.89403,-0.95473c-0.72418,-0.14127 -1.28088,-0.64068 -2.024,-0.78563c-0.66081,-0.12889 -1.50695,0.09679 -2.17087,-0.03272c-1.6478,-0.32146 -3.2794,-0.63976 -4.81339,-0.939c-0.70442,-0.13742 -1.30433,-0.70109 -1.95971,-0.82895c-0.80008,-0.1561 -1.64173,0.12635 -2.34273,-0.01041c-2.85954,-0.55783 -4.77544,-0.93161 -4.77544,-0.93161z" fill="#474747"/></g><g><path d="M177.77252,194.2045l4.19734,-2.10267c0,0 2.23368,3.3037 4.84387,4.72476c2.30865,1.25685 10.02409,3.3695 10.02409,3.3695l-3.43969,3.76538z" fill="#6d6a6b" stroke-width="0"/><path d="M168.61804,199.04138l10.47473,-5.48097c0,0 2.74283,2.83415 4.74472,3.89908c3.02859,1.61102 11.65865,4.82666 11.65865,4.82666l-5.02335,3.40857z" fill="#615e5f" stroke-width="0"/><path d="M166.37371,220.98503l2.86627,-22.43945c0,0 4.12202,1.61101 8.84845,2.56322c3.68918,0.74323 7.82424,0.68681 10.14557,1.75949c4.07524,1.88312 34.61524,20.42955 34.61524,20.42955l0.48443,10.46113z" fill="#575455" stroke-width="0"/><path d="M192.74345,198.57762c7.87062,-4.13472 18.36645,-15.79283 20.09387,-18.07569c1.24447,-1.64463 2.92944,-6.69142 2.92944,-6.69142l6.25632,8.16377c0,0 1.81706,21.23759 0.55428,33.87642c-0.35333,3.53645 1.36216,7.8907 -0.08291,9.10287c-1.29477,1.08609 -18.38071,0.08599 -23.52868,-1.69747c-10.83378,-3.7532 -17.05278,-2.1243 -19.71813,-8.01908c-2.66538,-5.89475 5.50462,-10.6894 5.50462,-10.6894c0,0 5.94221,-4.8936 7.99125,-5.97005z" fill="#504e4f" stroke-width="0"/><path d="M203.7453,167.27986c0,0 0.67433,-1.38937 1.64252,-1.87654c1.24516,-0.62651 5.20881,-1.57074 5.20881,-1.57074c0,0 8.79781,3.82262 11.27562,6.84293c2.28612,2.78663 -5.84694,11.67505 -5.84694,11.67505l-0.94283,-5.64637z" fill="#464445" stroke-width="0"/><path d="M217.50718,218.08229c0,0 -10.31027,4.36238 -18.67051,2.90607c-8.06516,-1.40488 -14.19805,-8.60415 -13.8207,-9.9796c0.20444,-0.74521 8.6186,-2.47137 12.8391,-5.94905c4.6915,-3.86576 5.30379,-9.55532 7.01461,-11.26992c4.7761,-4.78677 15.01374,-13.16 15.12953,-19.29494c0.12144,-6.43388 -10.00072,-10.5215 -10.00072,-10.5215c0,0 4.2111,-1.47263 9.12939,-0.64546c2.095,0.35235 6.29312,2.58327 7.12561,3.13791c2.72998,1.81871 4.37058,3.80589 4.37058,3.80589c0,0 4.52513,-4.08854 8.11983,-3.70258c3.59472,0.38596 21.50779,6.88366 21.50779,6.88366l-18.32201,9.25713z" fill="#555354" stroke-width="0"/><path d="M204.36673,194.29787c0,0 6.61714,-9.78688 12.30063,-14.21547c5.68352,-4.42859 10.29544,-6.76934 13.76241,-6.09299c2.51062,0.48976 4.08839,9.57535 4.08839,9.57535l-16.38049,26.11605c0,0 -14.97851,0.4189 -15.95343,-2.29874c-0.77001,-2.14638 2.18251,-13.08417 2.18251,-13.08417z" fill="#585758" stroke-width="0"/><path d="M221.2777,225.41123c0,0 -1.63948,-6.62759 -0.7406,-9.53143c1.25573,-4.05661 5.0958,-16.19999 5.0958,-16.19999l-0.07767,10.61727c0,0 -2.49499,9.44453 -2.94487,12.44373c-0.43408,2.89375 0.54734,5.29651 0.54734,5.29651z" fill="#3f3e3f" stroke-width="0"/><path d="M223.78694,207.69872c0.12883,-1.68123 1.86723,-9.1984 1.86723,-9.1984c0,0 12.17069,-12.46831 14.73727,-14.67072c0.75243,-0.64565 4.37742,-1.70206 4.37742,-1.70206l-2.5452,4.44889c0,0 -1.66036,0.29147 -1.92834,0.72605c-0.2855,0.46299 0.26454,1.97204 0.26454,1.97204l-6.65766,7.34117c0,0 -1.81358,0.67585 -2.0862,1.13755c-0.27272,0.46182 0.23219,1.46521 0.23219,1.46521c0,0 -5.49502,8.03782 -6.78428,10.24659c-0.59608,1.02125 -0.63969,2.47237 -0.63969,2.47237c0,0 -0.96608,-2.55746 -0.83723,-4.23873z" fill="#474647" stroke-width="0"/><path d="M214.91859,184.60504l19.09234,12.11512c0,0 -1.36076,0.76592 -1.69677,1.24957c-0.24796,0.35688 -0.13658,1.38942 -0.13658,1.38942z" fill="#3f3e3e" stroke-width="NaN"/><path d="M222.78987,175.59246l19.66402,11.02799c0,0 -1.25586,0.61421 -1.56947,1.11984c-0.32693,0.5271 -0.17091,1.65712 -0.17091,1.65712z" fill="#3f3e3e" stroke-width="NaN"/><path d="M205.08857,201.35992c0,0 9.02163,9.59799 13.64643,16.59048c4.62483,6.99253 2.48897,7.8054 2.48897,7.8054z" fill="#636162" stroke-width="NaN"/><path d="M222.54427,181.27395c0,0 -6.44566,1.70139 -9.73694,4.2136c-3.29128,2.51222 -14.56965,16.80002 -14.00565,13.90896c0.56399,-2.89103 17.41045,-20.71633 19.1722,-20.37265c0.66688,0.13009 3.86568,-0.40968 4.62349,-0.01989c1.24408,0.63992 -0.0531,2.26995 -0.0531,2.26995z" fill="#918f91" stroke-width="0"/><path d="M165.95073,220.77068l14.0464,0.81631c0,0 12.42649,2.08562 15.47545,2.83841c7.42513,1.83324 29.23711,8.20092 29.23711,8.20092l-1.64904,6.11852c0,0 -24.59292,-1.16494 -31.10788,-3.77633c-1.88476,-0.75547 -7.47546,-2.47582 -11.39356,-4.61788c-7.66756,-4.19186 -14.60845,-9.57997 -14.60845,-9.57997z" fill="#626061" stroke-width="0"/><path d="M222.14162,238.20707c0,0 0.86164,-4.20548 0.86898,-6.588c0.0083,-2.67785 -0.82163,-8.697 -0.82163,-8.697l1.74936,0.34126c0,0 0.834,4.70354 0.82648,7.12779c-0.00821,2.65055 -0.87384,8.1572 -0.87384,8.1572z" fill="#4a494a" stroke-width="0"/><path d="M221.78986,238.99054l0.73706,-3.31742c0,0 0.50558,0.36832 0.7721,0.42032c0.31664,0.06178 0.96274,-0.08187 0.96274,-0.08187l-0.43769,3.15105c0,0 -0.84023,0.25139 -1.21088,0.22003c-0.28401,-0.024 -0.82325,-0.39213 -0.82325,-0.39213z" fill="#363536" stroke-width="0"/><path d="M222.26262,223.98108l-0.06841,-1.66452c0,0 0.47751,-0.26793 0.85051,-0.2555c0.35522,0.01183 0.84447,0.23234 0.84447,0.23234l0.15985,1.8003c0,0 -0.57006,0.40583 -0.87616,0.38649c-0.28835,-0.01816 -0.91029,-0.49909 -0.91029,-0.49909z" fill="#585758" stroke-width="0"/><path d="M181.15048,229.77114c0,0 -7.1837,-4.40989 -6.92271,-5.74769c0.2623,-1.34447 6.60825,-1.29938 6.60825,-1.29938c0,0 10.78752,1.85914 15.61974,2.97768c2.70529,0.62621 10.9055,3.1622 10.9055,3.1622c0,0 6.95505,2.43089 7.53454,3.71737c0.6321,1.40328 -3.70461,3.45246 -3.70461,3.45246c0,0 -12.73853,-1.15437 -16.59008,-2.1179c-1.36821,-0.3423 -13.45055,-4.14467 -13.45055,-4.14467z" fill="#6b696a" stroke-width="0"/><path d="M172.28104,221.0093l-1.96957,-0.14906c0,0 1.27246,-3.25119 3.7043,-1.51117c2.43187,1.74006 21.24843,4.38033 21.24843,4.38033z" fill="#4b4949" stroke-width="0"/><path d="M166.04987,220.64324c0,0 -1.9975,-0.19447 -1.82518,-3.87227c0.08723,-1.86167 1.09682,-16.12441 1.09682,-16.12441l4.22191,-2.13014c0,0 -0.47846,6.01337 -0.83179,8.90142c-0.46996,3.84104 -1.75569,13.40214 -1.75569,13.40214z" fill="#3f3d3e" stroke-width="0"/><path d="M172.56511,221.23375c0,0 3.54685,-1.50688 19.37068,1.23657c1.30676,0.22659 -1.75585,-0.37514 7.37286,1.92256c9.12869,2.2977 12.67497,4.5307 12.67497,4.5307c0,0 -14.58269,-3.93434 -20.67074,-5.122c-6.93966,-1.35379 -18.74779,-2.56781 -18.74779,-2.56781z" fill="#838082" stroke-width="0"/><path d="M183.19605,193.11689c0,0 -4.70857,1.3101 -7.15272,2.47932c-2.74716,1.31416 -8.52761,5.02171 -8.52761,5.02171l-0.46327,-1.7222c0,0 4.43085,-3.06196 6.91779,-4.25165c2.71908,-1.30072 8.76253,-3.24939 8.76253,-3.24939z" fill="#4a494a" stroke-width="0"/><path d="M184.16214,193.04271l-3.81693,0.96764c0,0 0.21838,-0.61602 0.14781,-0.87836c-0.08387,-0.31173 -0.53124,-0.81472 -0.53124,-0.81472l3.43141,-1.16629c0,0 0.648,0.62227 0.7881,0.96694c0.10737,0.26414 -0.01913,0.92474 -0.01913,0.92474z" fill="url(#color-3)" stroke-width="0"/><path d="M168.56632,200.02993l-3.41906,2.11428l0.27675,-2.1698l2.42751,-1.58678c0,0 0.68059,0.30612 0.80306,0.58746c0.11539,0.26508 -0.08828,1.05485 -0.08828,1.05485z" fill="url(#color-4)" stroke-width="0"/></g><path d="M300.82076,201.40265c0,0 1.7563,-4.15934 2.51628,-5.42637c0.51589,-0.86011 3.11949,-1.81083 3.11949,-1.81083l16.74632,3.04457c0,0 -2.36363,5.44591 -2.99924,6.71397c-0.27846,0.55549 -1.4573,1.03119 -1.4573,1.03119z" fill="#665b60" stroke-width="0"/><path d="M256.60168,174.17566c0,0 -3.42484,-2.26003 -8.04151,-4.33462c-2.93478,-1.31884 -7.01729,-2.6927 -8.86415,-2.94519c-5.36932,-0.73417 -8.81919,3.79398 -8.81919,3.79398c0,0 -2.76931,-2.89964 -4.67426,-4.14206c-1.77823,-1.15976 -5.85914,-2.97568 -5.85914,-2.97568c0,0 25.07988,-0.29462 28.97087,-0.1266c7.45934,0.32207 33.57195,5.81496 33.57195,5.81496l3.37345,15.21312z" fill="#8b7c84" stroke-width="0"/><g stroke-width="0"><path d="M302.42902,200.75587c0,0 0.95991,-2.45797 1.53401,-3.2576c0.59529,-0.82914 2.94011,-1.44398 2.94011,-1.44398l14.26119,2.78208c0,0 0.19096,1.03874 -0.18133,1.7178c-0.5062,0.92331 -3.75743,3.0882 -3.75743,3.0882z" fill="#585852"/><path d="M302.57174,200.02433c0,0 0.81719,-1.72636 1.39129,-2.526c0.59529,-0.82914 3.08284,-2.17553 3.08284,-2.17553l14.26119,2.78209c0,0 0.04825,1.77032 -0.32407,2.44939c-0.5062,0.92331 -3.61471,2.35659 -3.61471,2.35659z" fill="#797971"/><path d="M319.48065,198.25347c-0.99538,-0.37548 -12.35096,-2.86723 -12.35096,-2.86723l14.24168,2.7783l-0.47138,2.41628c0,0 -0.42396,-1.95187 -1.41935,-2.32736z" fill="#85857b"/></g><path d="M307.31248,183.19795l0.9937,-5.09374l7.00388,1.36633l0.27975,5.34218z" fill="#7c6e75" stroke-width="0"/><path d="M302.14069,155.26734l-2.54253,-8.78054l1.35378,0.26412l4.35575,9.59439z" fill="#d495b6" stroke-width="0"/><path d="M265.31945,140.31136l13.56603,-0.50141l20.9029,6.73953l2.37944,8.70901z" fill="#df9cbe" stroke-width="0"/><path d="M306.50904,188.16352l0.31056,-1.59177l10.66501,2.08054l0.64453,1.77812z" fill="#7c6e75" stroke-width="0"/><path d="M269.01494,168.46587c0,0 -18.02759,-2.29584 -23.65192,-2.88347c-8.51643,-0.88978 -25.71611,-1.87603 -25.71611,-1.87603c0,0 15.596,-1.48187 29.14379,-0.38361c14.68923,1.19077 58.20288,8.19461 58.20288,8.19461l-1.03568,5.30899z" fill="#75686e" stroke-width="0"/><path d="M260.54522,175.74939l-3.07393,-1.18124c0,0 10.04622,-0.46952 15.14095,1.30156c5.09468,1.77104 13.22138,8.55797 13.22138,8.55797z" fill="#7c6e76" stroke-width="0"/><path d="M215.72033,162.89871c0,0 -28.81057,-21.30711 -28.80098,-26.01243c0.00875,-4.27423 28.82042,8.01456 29.13339,7.96536c5.47644,-0.86121 77.41086,5.82097 77.41086,5.82097l24.81647,11.75857l51.89512,9.54156l4.57373,14.72361c0,0 -60.64395,-10.63959 -84.00171,-15.03016c-8.1081,-1.52409 -24.50496,-5.38269 -39.74403,-7.19378c-11.75494,-1.39701 -29.94054,-0.54669 -29.94054,-0.54669z" fill="#ee96c3" stroke-width="0"/><path d="M86.57626,150.48486l7.12428,-19.14408c0,0 1.251,-6.94303 8.80081,-7.8095c9.37712,-1.07613 25.61161,3.90971 27.64397,4.30616c1.55961,0.30425 -14.6633,7.7525 -14.6633,7.7525l-3.85892,19.78111z" fill="#c4b4b3" stroke-width="0"/><g stroke-width="0"><path d="M366.02822,186.40317l0.09515,-15.40975l89.74535,24.39966l-1.85461,5.5546l-47.48106,-4.314z" fill="#ad6d8e"/><path d="M394.63117,177.37655l8.72217,-6.72713l26.687,3.03698l-6.21702,9.38504z" fill="#8d788b"/><path d="M369.40382,173.66623l3.10861,-15.9349l30.90905,12.93564l-5.80921,5.86523z" fill="#857183"/><path d="M411.6736,178.52879l18.30499,-4.85319l26.60415,9.03376l-1.60076,6.71167z" fill="#947e92"/><path d="M365.42842,172.27067l5.28443,-11.97569l2.00665,-2.73012l-2.88431,14.78513z" fill="#756474"/><path d="M367.89933,183.4932l1.60363,-11.98748l42.82814,6.67506l-4.27783,15.52523z" fill="#746373"/><path d="M408.0486,193.68929c0,0 1.58064,-6.11802 2.3203,-8.87149c0.63325,-2.35746 1.8481,-6.64658 1.8481,-6.64658l43.20816,9.35535l0.35462,8.62754z" fill="#867284"/><path d="M365.48162,172.2093l4.2462,-0.73142l-1.80051,12.02853z" fill="#6f5e6d"/><path d="M449.52151,181.22219l-18.8075,-7.09605l25.5365,8.68661l-1.03576,3.41024c0,0 -0.0073,-1.60032 -1.05832,-2.52349c-0.70305,-0.61758 -4.63498,-2.47733 -4.63498,-2.47733z" fill="#978195"/><path d="M410.15491,177.57052c0,0 8.4906,-1.87424 11.47668,-2.67134c2.17526,-0.58064 4.7909,-1.67103 4.7909,-1.67103l2.46538,0.59571l-16.13331,4.2538z" fill="#9c859a"/><path d="M395.88537,175.61035c0,0 1.81902,-2.44931 3.40287,-3.51607c1.58379,-1.06676 4.00545,-1.42494 4.00545,-1.42494l-4.99229,5.41234z" fill="#806b7d"/><path d="M431.86075,172.26408l3.19163,-5.21879l14.20395,6.57463l4.27098,7.35384z" fill="#55494f"/><path d="M428.83813,174.52734c0,0 1.21369,-0.56832 1.87569,-1.03497c0.49865,-0.3515 1.43901,-1.57875 1.43901,-1.57875l21.13499,8.19845c0,0 0.75668,0.65395 1.26967,1.08582c0.53613,0.45133 1.88077,1.56643 1.88077,1.56643z" fill="#685960"/><path d="M432.58237,171.49586l2.50582,-4.18298l13.2476,5.97391c0,0 -7.5651,-3.03743 -12.01203,-3.64543c-2.57946,-0.3527 -3.74139,1.85452 -3.74139,1.85452z" fill="#41383c"/></g><path d="M95.70634,112.24538l0.99722,-5.11198c0,0 22.17121,3.00573 43.71218,7.266c12.83645,2.53875 25.84933,6.70513 32.70958,7.6867c15.46835,2.21325 26.60744,-0.211 26.60744,-0.211l-8.26114,9.23216z" fill="#ffa1d1" stroke-width="0"/><path d="M90.5036,125.4511l5.19974,-15.37137c0,0 53.38795,12.51437 70.98926,15.4991c10.42631,1.76803 24.88723,0.75905 24.88723,0.75905l-2.80362,14.37146c0,0 -66.25212,-12.92459 -82.22344,-16.04029c-6.56679,-1.28106 -21.19678,27.169 -21.19678,27.169z" fill="#ee96c3" stroke-width="0"/><path d="M251.75114,234.84157l11.71157,-11.56747c0,0 12.77135,-13.66472 23.31177,-18.60061c2.67851,-1.25429 7.98152,-1.43883 7.98152,-1.43883c0,0 -8.12327,3.49439 -11.20459,5.73735c-7.27667,5.29686 -31.80022,25.86955 -31.80022,25.86955z" fill="#70646b" stroke-width="0"/><path d="M358.39842,189.58354l-2.73719,-18.87513l1.32515,0.25852c0,0 0.82897,5.71638 1.26698,8.73694c0.06244,0.43039 1.16833,1.89023 1.24563,2.42329c0.13401,0.92407 -0.74921,0.99989 -0.59944,2.03275c0.41704,2.87594 0.82402,5.68215 0.82402,5.68215z" fill="#795467" stroke-width="0"/><path d="M189.31425,141.25417c0,0 -9.03352,-8.43811 -7.6439,-12.0131c0.83202,-2.14054 18.88557,-6.72064 18.88557,-6.72064l66.91436,14.75739l-2.1992,2.72548l28.09664,10.8285l-75.55602,12.33658c0,0 0.29816,-5.66147 4.38105,-7.777c3.96815,-2.05606 19.7818,-4.7429 19.7818,-4.7429c0,0 -33.57492,-6.59976 -40.71434,-8.08085c-2.3819,-0.49412 -11.94596,-1.31342 -11.94596,-1.31342z" fill="#f399c8" stroke-width="0"/><g><path d="M198.42381,124.06494l0.62006,-3.17843l173.28709,33.80513l-0.62006,3.17842z" fill="#584f54" stroke-width="0"/><path d="M366.59432,153.82544l0.52392,-2.6857l2.99873,0.58499l2.12199,3.20187z" fill="#685d63" stroke-width="0"/><g fill="#685d63" stroke-width="0"><g><g><g><path d="M360.00977,152.79478l0.57003,-2.92191l3.80932,0.74313l-0.57004,2.92192z"/><path d="M353.82877,151.58898l0.57003,-2.92191l3.80932,0.74313l-0.57004,2.92191z"/></g><g><path d="M347.881,150.42865l0.57002,-2.92193l3.80932,0.74314l-0.57004,2.92192z"/><path d="M341.69995,149.22284l0.57004,-2.92192l3.80931,0.74314l-0.57004,2.92192z"/></g></g><g><g><path d="M335.63554,148.03981l0.57004,-2.92192l3.80931,0.74313l-0.57004,2.92192z"/><path d="M329.45453,146.83401l0.57003,-2.92192l3.80932,0.74313l-0.57003,2.92193z"/></g><g><path d="M323.50678,145.67368l0.57002,-2.92193l3.80931,0.74314l-0.57004,2.92192z"/><path d="M317.3258,144.4679l0.57003,-2.92191l3.80931,0.74313l-0.57003,2.92193z"/></g></g></g><g><g><g><path d="M317.09254,144.42242l0.57003,-2.92191l3.80931,0.74313l-0.57004,2.92191z"/><path d="M310.91158,143.21661l0.57004,-2.92192l3.80931,0.74314l-0.57003,2.92192z"/></g><g><path d="M304.96375,142.05631l0.57003,-2.92193l3.80931,0.74313l-0.57003,2.92192z"/><path d="M298.78275,140.85052l0.57004,-2.92191l3.8093,0.74312l-0.57003,2.92192z"/></g></g><g><g><path d="M292.71839,139.66748l0.57002,-2.92193l3.80932,0.74313l-0.57004,2.92192z"/><path d="M286.53735,138.46166l0.57003,-2.92192l3.80932,0.74314l-0.57003,2.92193z"/></g><g><path d="M280.58957,137.30136l0.57003,-2.92192l3.80932,0.74312l-0.57003,2.92193z"/><path d="M274.40857,136.09552l0.57004,-2.92191l3.80931,0.74313l-0.57003,2.92192z"/></g></g></g></g><g><g fill="#685d63" stroke-width="0"><g><g><path d="M268.30451,134.90478l0.57003,-2.92194l3.80931,0.74314l-0.57003,2.92192z"/><path d="M262.1235,133.69896l0.57003,-2.92192l3.80932,0.74314l-0.57002,2.92193z"/></g><g><path d="M256.17571,132.53868l0.57004,-2.92192l3.80932,0.74314l-0.57003,2.92193z"/><path d="M249.99476,131.33286l0.57004,-2.92191l3.80931,0.74313l-0.57003,2.92192z"/></g></g><g><g><path d="M243.93037,130.14982l0.57002,-2.92193l3.80932,0.74313l-0.57004,2.92192z"/><path d="M237.74932,128.94402l0.57004,-2.92191l3.80931,0.74313l-0.57003,2.92192z"/></g><g><path d="M231.80151,127.78373l0.57004,-2.92191l3.8093,0.74313l-0.57002,2.92193z"/><path d="M225.62052,126.57791l0.57004,-2.92192l3.80931,0.74313l-0.57002,2.92193z"/></g></g></g><g><g fill="#685d63" stroke-width="0"><g><path d="M225.3873,126.53242l0.57003,-2.92192l3.80932,0.74313l-0.57004,2.92192z"/><path d="M219.20626,125.32658l0.57003,-2.92193l3.80931,0.74313l-0.57003,2.92192z"/></g><g><path d="M213.2585,124.16633l0.57003,-2.92192l3.80932,0.74313l-0.57002,2.92193z"/><path d="M207.07752,122.96049l0.57003,-2.92192l3.80931,0.74313l-0.57003,2.92191z"/></g></g><g fill="none" stroke-width="1" font-family="sans-serif" font-weight="normal" font-size="12" text-anchor="start"><g/><g/></g></g></g><path d="M199.06654,121.14381l3.16987,-2.16954l2.99872,0.58501l-0.52393,2.68571z" data-paper-data="{&quot;index&quot;:null}" fill="#685d63" stroke-width="0"/></g><path d="M248.62777,164.3187l-2.55636,-0.2236c0,0 2.13948,-2.19856 11.77301,-1.46822c7.30366,0.55375 27.73759,3.20384 39.96295,4.82896c5.67715,0.75464 62.85719,2.73783 62.85719,2.73783l5.10536,0.98139c0,0 -62.612,-1.36904 -68.28056,-2.1457c-12.53469,-1.71739 -33.61775,-4.5698 -39.7634,-5.17929c-3.34542,-0.3318 -9.09814,0.46866 -9.09814,0.46866z" fill="#70475c" stroke-width="0"/><path d="M344.02786,202.31584l-5.18614,0.86891l3.62552,-18.58099c0,0 7.63801,1.53934 15.1079,3.04482c21.44371,4.32172 124.50368,25.09213 124.50368,25.09213l-1.28809,6.60282z" fill="#5a5959" stroke-width="0"/><path d="M342.81794,203.73888l1.6463,-2.74155l136.35938,18.24101l-13.75399,8.73977z" fill="#4b4a4a" stroke-width="0"/><path d="M463.88089,227.16338c0,0 -5.17951,-4.29595 -7.88244,-6.27825c-1.44857,-1.06236 -7.0745,-4.691 -7.0745,-4.691c0,0 7.2974,4.38208 10.39861,5.95289c1.10678,0.5606 2.06737,1.50479 3.24615,2.27285c0.38008,0.24763 2.69807,-2.11135 4.89013,-3.43037c0.6552,-0.39428 1.72417,0.18568 2.30316,-0.03837c1.32733,-0.51368 1.88869,-1.51619 1.88869,-1.51619c0,0 0.15322,0.97698 -1.27555,1.93487c-0.38982,0.26137 -2.22686,0.26197 -2.61529,0.55333c-1.55668,1.16784 -2.84609,2.54551 -3.25881,3.06736c-1.15166,1.45624 0.81609,2.45308 0.81609,2.45308z" fill="#414040" stroke-width="0"/><path d="M189.20923,141.53671l5.86975,-10.16294l6.99602,0.72873c0,0 -1.4401,2.4172 -2.28884,3.84177c-0.21374,0.3588 11.73667,0.69708 11.95367,1.42307c0.40266,1.34699 -5.78624,3.97042 -6.32005,4.86637c-0.61024,1.02427 -9.22942,-0.25391 -9.22942,-0.25391z" fill="#303030" stroke-width="0"/><path d="M189.13917,141.14603l5.60728,-9.3633c0,0 2.69487,1.85492 2.50626,2.82166c-0.34314,1.75902 -3.00104,7.13677 -3.00104,7.13677z" fill="#252525" stroke-width="0"/><path d="M338.31549,205.78783l0.5653,-2.89777l5.98689,-1.84013l-1.78048,2.66069c0,0 -1.32589,1.10177 -2.16509,1.46708c-0.73845,0.32146 -2.60661,0.61005 -2.60661,0.61005z" fill="#383838" stroke-width="0"/><g><g fill="#4b4b4b" stroke-width="0"><g data-paper-data="{&quot;origPos&quot;:null}"><g data-paper-data="{&quot;origPos&quot;:null}"><path d="M403.95198,219.98907l0.43518,-2.2307l3.6806,0.718l-0.43518,2.2307z" data-paper-data="{&quot;origPos&quot;:null}"/><path d="M397.83937,218.68086l0.43518,-2.2307l3.68059,0.718l-0.43518,2.23068z" data-paper-data="{&quot;origPos&quot;:null}"/></g><g data-paper-data="{&quot;origPos&quot;:null}"><path d="M416.19897,222.49406l0.43518,-2.2307l3.6806,0.718l-0.43518,2.23069z" data-paper-data="{&quot;origPos&quot;:null}"/><path d="M410.08635,221.18583l0.43518,-2.23069l3.68061,0.718l-0.43519,2.2307z" data-paper-data="{&quot;origPos&quot;:null}"/></g></g><g data-paper-data="{&quot;origPos&quot;:null,&quot;index&quot;:null}"><g data-paper-data="{&quot;origPos&quot;:null}"><path d="M435.09168,225.94814l0.43518,-2.2307l3.68061,0.718l-0.43519,2.23069z" data-paper-data="{&quot;origPos&quot;:null}"/><path d="M441.24783,227.03327l0.43517,-2.23069l3.6806,0.718l-0.43517,2.23068z" data-paper-data="{&quot;origPos&quot;:null}"/></g><g data-paper-data="{&quot;origPos&quot;:null}"><path d="M422.80123,223.66623l0.43519,-2.2307l3.68059,0.71801l-0.43518,2.23068z" data-paper-data="{&quot;origPos&quot;:null}"/><path d="M428.95734,224.75144l0.43518,-2.23068l3.6806,0.71799l-0.43518,2.23069z" data-paper-data="{&quot;origPos&quot;:null}"/></g></g></g><path d="M363.5994,203.71651l2.60615,-13.35929l82.91108,16.17441l-2.60615,13.35928z" data-paper-data="{&quot;origPos&quot;:null}" fill="#444444" stroke-width="0"/><path d="M362.79192,208.37022l0.91571,-4.69396l82.6674,16.12689l-0.91572,4.69398z" data-paper-data="{&quot;origPos&quot;:null}" fill="#414141" stroke-width="0"/><path d="M362.55336,209.77479l0.30973,-1.58769l82.65688,16.12483l-0.30972,1.58769z" data-paper-data="{&quot;origPos&quot;:null}" fill="#3f3f3f" stroke-width="0"/><g stroke-width="0"><g data-paper-data="{&quot;origPos&quot;:null}" fill="#5a5a5a"><g data-paper-data="{&quot;origPos&quot;:null}"><path d="M406.05525,212.07975l2.63272,-13.4956l3.50536,0.68383l-2.63273,13.49559z" data-paper-data="{&quot;origPos&quot;:null}"/></g><g data-paper-data="{&quot;origPos&quot;:null}"><path d="M412.01434,213.24224l2.63272,-13.49559l3.50537,0.68383l-2.63273,13.49559z" data-paper-data="{&quot;origPos&quot;:null}"/><path d="M418.14872,214.43894l2.63274,-13.4956l3.50536,0.68383l-2.63274,13.4956z" data-paper-data="{&quot;origPos&quot;:null}"/></g></g><g data-paper-data="{&quot;origPos&quot;:null}" fill="#5a5a5a"><g data-paper-data="{&quot;origPos&quot;:null}"><path d="M424.63361,215.70404l2.63272,-13.49559l3.50536,0.68383l-2.63274,13.49561z" data-paper-data="{&quot;origPos&quot;:null}"/><path d="M430.76797,216.90074l2.63274,-13.49559l3.50536,0.68383l-2.63274,13.49558z" data-paper-data="{&quot;origPos&quot;:null}"/></g><g data-paper-data="{&quot;origPos&quot;:null}"><path d="M436.72706,218.06326l2.63274,-13.4956l3.50535,0.68381l-2.63274,13.4956z" data-paper-data="{&quot;origPos&quot;:null}"/><path d="M442.86142,219.25995l2.63274,-13.4956l3.50535,0.68382l-2.63272,13.49559z" data-paper-data="{&quot;origPos&quot;:null}"/></g></g><path d="M409.62081,212.77532l-1.2323,1.72704l-5.15263,-0.96129l1.73898,-9.64188l3.65536,-5.32633l-2.56508,13.50882z" fill="#3a3a3a"/><path d="M415.57749,213.93735l-1.2323,1.72706l-5.15263,-0.96129l1.73898,-9.64188l3.65535,-5.32632l-2.56507,13.50881z" fill="#3a3a3a"/><path d="M421.66952,215.1258l-1.23231,1.72704l-5.15263,-0.96129l1.73898,-9.64187l3.65535,-5.32632l-2.56508,13.50882z" fill="#3a3a3a"/><path d="M428.23543,216.40669l-1.2323,1.72704l-5.15263,-0.9613l1.73898,-9.64188l3.65535,-5.32632l-2.56506,13.50882z" fill="#3a3a3a"/><path d="M434.39516,217.60835l-1.2323,1.72704l-5.15263,-0.96129l1.73898,-9.64188l3.65535,-5.32632l-2.56506,13.50882z" fill="#3a3a3a"/><path d="M440.28415,218.75716l-1.23231,1.72704l-5.15262,-0.96129l1.73898,-9.64188l3.65535,-5.32632l-2.56506,13.50883z" fill="#3a3a3a"/><path d="M446.45166,219.96034l-1.2323,1.72704l-5.15263,-0.96129l1.73899,-9.64187l3.65535,-5.32633l-2.56508,13.50882z" fill="#3a3a3a"/></g><g stroke-width="0"><g data-paper-data="{&quot;origPos&quot;:null}" fill="#5a5a5a"><g data-paper-data="{&quot;origPos&quot;:null}"><path d="M363.62602,203.80258l2.63274,-13.4956l3.50537,0.68383l-2.63273,13.49559z" data-paper-data="{&quot;origPos&quot;:null}"/></g><g data-paper-data="{&quot;origPos&quot;:null}"><path d="M369.58508,204.96511l2.63273,-13.49558l3.50536,0.68383l-2.63274,13.4956z" data-paper-data="{&quot;origPos&quot;:null}"/><path d="M375.71945,206.1618l2.63274,-13.4956l3.50537,0.68382l-2.63274,13.4956z" data-paper-data="{&quot;origPos&quot;:null}"/></g></g><g data-paper-data="{&quot;origPos&quot;:null}" fill="#5a5a5a"><g data-paper-data="{&quot;origPos&quot;:null}"><path d="M382.20436,207.42686l2.63274,-13.4956l3.50537,0.68383l-2.63273,13.49559z" data-paper-data="{&quot;origPos&quot;:null}"/><path d="M388.33878,208.62358l2.63274,-13.49561l3.50537,0.68384l-2.63274,13.49559z" data-paper-data="{&quot;origPos&quot;:null}"/></g><g data-paper-data="{&quot;origPos&quot;:null}"><path d="M394.29786,209.7861l2.63274,-13.4956l3.50537,0.68383l-2.63274,13.4956z" data-paper-data="{&quot;origPos&quot;:null}"/><path d="M400.43223,210.98282l2.63274,-13.4956l3.50537,0.68383l-2.63274,13.49562z" data-paper-data="{&quot;origPos&quot;:null}"/></g></g><path d="M367.19152,204.49815l-1.23231,1.72704l-2.68751,-0.48035l0.36415,-1.94031z" fill="#3a3a3a"/><path d="M373.14826,205.66022l-1.23229,1.72706l-5.15263,-0.9613l1.73899,-9.64187l3.65535,-5.32632l-2.56507,13.50882z" fill="#3a3a3a"/><path d="M379.24027,206.84864l-1.2323,1.72704l-5.15263,-0.96129l1.73898,-9.64187l3.65536,-5.32633l-2.56507,13.50883z" fill="#3a3a3a"/><path d="M385.80614,208.1295l-1.2323,1.72704l-5.15264,-0.96129l1.73899,-9.64188l3.65536,-5.32633l-2.56507,13.50882z" fill="#3a3a3a"/><path d="M391.96596,209.33122l-1.2323,1.72705l-5.15263,-0.96129l1.73898,-9.64188l3.65536,-5.32633l-2.56508,13.50883z" fill="#3a3a3a"/><path d="M397.85492,210.48003l-1.23229,1.72705l-5.15263,-0.96129l1.73898,-9.64187l3.65536,-5.32633l-2.56507,13.50882z" fill="#3a3a3a"/><path d="M404.02249,211.68325l-1.23229,1.72706l-5.15263,-0.96129l1.73898,-9.64188l3.65536,-5.32632l-2.56507,13.50882z" fill="#3a3a3a"/></g><g><g data-paper-data="{&quot;origPos&quot;:null}"><g data-paper-data="{&quot;origPos&quot;:null}" fill="none" stroke-width="1" font-family="sans-serif" font-weight="normal" font-size="12" text-anchor="start"/><g data-paper-data="{&quot;origPos&quot;:null}" fill="#4b4b4b" stroke-width="0"><path d="M368.35016,213.23799l0.43519,-2.23069l3.68059,0.718l-0.43517,2.23069z" data-paper-data="{&quot;origPos&quot;:null}"/><path d="M362.23754,211.92978l0.43518,-2.2307l3.6806,0.718l-0.43518,2.2307z" data-paper-data="{&quot;origPos&quot;:null}"/></g></g><g data-paper-data="{&quot;origPos&quot;:null,&quot;index&quot;:null}" fill="#4b4b4b" stroke-width="0"><g data-paper-data="{&quot;origPos&quot;:null}"><path d="M387.24294,216.69207l0.43518,-2.23069l3.6806,0.718l-0.43518,2.23069z" data-paper-data="{&quot;origPos&quot;:null}"/><path d="M393.39907,217.7772l0.43517,-2.23068l3.6806,0.718l-0.43518,2.23069z" data-paper-data="{&quot;origPos&quot;:null}"/></g><g data-paper-data="{&quot;origPos&quot;:null}"><path d="M374.95237,214.4102l0.43518,-2.23069l3.6806,0.718l-0.43518,2.23069z" data-paper-data="{&quot;origPos&quot;:null}"/><path d="M381.10849,215.49532l0.43519,-2.23069l3.68061,0.718l-0.43518,2.23069z" data-paper-data="{&quot;origPos&quot;:null}"/></g></g></g></g><path d="M201.95984,142.4001l1.82747,-3.93809c0,0 5.12842,-2.20635 8.62293,-1.67747c3.99494,0.6046 33.40458,6.36734 33.40458,6.36734c0,0 0.29062,1.96778 0.0056,3.15234c-0.3672,1.52612 -3.03088,4.1289 -3.03088,4.1289z" fill="#242424" stroke-width="0"/><path d="M227.11476,143.4255l0.60318,-3.09203l17.66873,3.44684l-0.60319,3.09204z" fill="#313131" stroke-width="0"/><path d="M223.51226,144.68975l0.12489,-0.64017c0,0 1.24938,-0.82725 2.25353,-0.63137c0.95354,0.18604 3.01009,1.07112 5.38534,1.70092c4.52483,1.1998 10.02963,2.37725 10.02963,2.37725l-0.1249,0.64017c0,0 -5.32743,-1.04137 -9.78845,-2.22812c-2.43412,-0.64755 -4.55141,-1.64029 -5.54053,-1.83327c-1.03969,-0.20282 -2.33949,0.61458 -2.33949,0.61458z" fill="#616161" stroke-width="0"/><path d="M253.15157,134.46473l11.87892,5.40103l29.2633,11.11687c0,0 0.67664,0.36041 -7.13267,-1.905c-2.65659,-0.77067 -12.79002,-4.38686 -21.47785,-8.02039c-2.35081,-0.98318 -14.77939,-6.91343 -14.77939,-6.91343z" fill="#df8cb7" stroke-width="0"/><path d="M74.20148,106.01061l1.13603,-5.82334c0,0 5.99897,-0.61571 9.7324,0.11263c3.05644,0.59627 10.71069,5.66147 10.71069,5.66147l-2.48186,12.01789z" fill="#626061" stroke-width="0"/><path d="M186.20174,138.03378l3.24623,3.18653l12.2739,1.04631l49.80608,9.71625l-0.20887,1.07085c0,0 -37.3341,-7.43118 -49.06752,-9.45297c-3.22139,-0.55509 -12.87934,-1.70472 -12.87934,-1.70472z" fill="#ffa6d4" stroke-width="0"/><path d="M59.13153,168.20621l1.37277,-7.03694l26.17848,-11.83677l-4.19475,13.10825l-15.55471,7.28748z" fill="#3f3d3e" stroke-width="0"/><path d="M58.50048,162.92754c0,0 3.9469,-19.25235 6.57263,-28.50408c2.96353,-10.44201 10.31806,-31.01055 10.31806,-31.01055c0,0 8.49143,1.46358 11.69208,3.76484c2.73933,1.96954 6.34414,9.20298 6.34414,9.20298l-6.42418,32.93078c0,0 -14.26023,11.17444 -17.68134,12.80877c-5.26225,2.51386 -10.82135,0.80726 -10.82135,0.80726z" fill="#555354" stroke-width="0"/><path d="M73.21381,113.78642c0,0 -0.36419,-6.17692 2.18017,-8.42863c2.54436,-2.25172 7.00816,-2.41702 9.52106,-1.92676c2.00461,0.39107 6.13803,1.27764 8.10456,6.20381c1.96656,4.92616 -1.19467,11.1053 -1.19467,11.1053c0,0 -4.19125,-11.41744 -6.61883,-12.32446c-3.42559,-1.27993 -11.9923,5.37079 -11.9923,5.37079z" fill="#6f6b6c" stroke-width="0"/><path d="M56.14149,167.43101c0,0 6.67308,-25.25204 8.86425,-36.4841c2.28192,-11.69732 6.03858,-32.07343 6.03858,-32.07343c0,0 1.2579,-0.40967 2.27949,-0.2104c0.93412,0.18221 2.34887,1.11332 2.34887,1.11332c0,0 -3.87807,18.75982 -5.92582,29.2568c-2.37915,12.19559 -10.23909,39.05454 -10.23909,39.05454z" fill="#333232" stroke-width="0"/><path d="M55.63374,167.78396l3.89014,-14.22661c0,0 0.86548,1.0745 1.46122,1.15131c0.75222,0.09699 2.67345,-0.99283 2.67345,-0.99283l-4.12916,14.82807z" fill="#2e2d2d" stroke-width="0"/><path d="M87.86201,137.12779c-1.56332,8.01358 -7.27085,15.73147 -12.11586,17.76886c-4.02393,1.69215 -12.67778,6.88924 -11.11449,-1.12433c0.33165,-1.70006 4.61247,-12.96821 6.08455,-19.84338c1.94679,-9.09229 1.28523,-14.29616 2.76749,-16.892c2.6802,-4.69366 8.38456,-5.08824 10.5581,-4.66423c4.28448,0.83582 5.38352,16.74147 3.82022,24.75506z" fill="#585758" stroke-width="0"/><path d="M118.98965,157.54869l-0.24831,-1.82202c0,0 8.05142,0.19469 14.05076,0.87176c8.44569,0.95318 31.84364,4.30787 31.84364,4.30787l1.51738,1.60138c0,0 -24.95632,-3.21757 -33.65582,-4.13228c-2.55493,-0.26864 -13.50765,-0.82669 -13.50765,-0.82669z" fill="#585657" stroke-width="0"/><path d="M110.68073,169.37711l7.71528,-12.44437l7.2903,0.45364c0,0 -2.53185,3.90087 -2.59175,4.65857c-0.2862,3.62051 -1.93373,27.71796 -1.93373,27.71796c0,0 -1.53445,0.14938 -2.34273,-1.91919c-1.45029,-3.71166 -1.93791,-10.79815 -3.25501,-13.1974c-1.13794,-2.0729 -4.88237,-5.26918 -4.88237,-5.26918z" fill="#5a5759" stroke-width="0"/><path d="M128.87644,141.54203l5.00545,-10.5705l2.31144,0.33771l-6.13856,10.57584z" fill="#a5a0a2" stroke-width="0"/><path d="M135.74799,141.77862l0.26857,-1.3768l26.00599,5.07329l-0.26856,1.3768z" fill="#494748" stroke-width="0"/><path d="M136.2378,138.84685l0.26857,-1.3768l26.00599,5.07329l-0.26857,1.3768z" fill="#494748" stroke-width="0"/><path d="M112.87348,157.11906l3.85593,-19.76573l13.86203,-7.09329l4.81462,0.62161l-24.17221,38.90506l-5.1238,-3.0407z" fill="#dbd5d8" stroke-width="0"/><path d="M84.58393,163.73929l2.10265,-11.60291l26.31248,4.3287c0,0 -0.16173,2.55401 -0.44243,3.31282c-0.69961,1.89152 -3.99815,8.31662 -3.99815,8.31662z" fill="#ccc6c9" stroke-width="0"/><path d="M90.4846,153.28529l0.06046,-0.30996l22.56112,3.51645l-2.78399,0.66351c0,0 -4.27732,-0.64472 -6.92983,-1.19451c-3.63201,-0.75283 -12.9078,-2.67546 -12.9078,-2.67546z" fill="#d8d1d5" stroke-width="0"/><path d="M94.6505,150.29073l3.25502,-16.68546l15.82667,3.08751l-3.25503,16.68546z" fill="#a39999" stroke-width="0"/><path d="M84.28001,163.85295l2.17499,-11.14913c0,0 7.45049,7.96052 11.2097,11.0786c3.75921,3.11805 10.19373,4.08806 10.19373,4.08806z" fill="#b4afb1" stroke-width="0"/><path d="M116.14372,176.22552c0,0 2.7742,1.60131 3.87754,1.67011c0.67782,0.04222 2.11297,-1.29663 2.11297,-1.29663l-0.10941,9.22289l-0.80325,4.11751c0,0 -1.96669,-0.06638 -2.72762,-2.84608c-0.62781,-2.29347 -2.35027,-10.86771 -2.35027,-10.86771z" fill="#504e4f" stroke-width="0"/><path d="M110.87305,169.98146l22.18672,-38.20225l1.67205,0.5352l-22.16458,38.62455z" fill="#858183" stroke-width="0"/><path d="M102.152,126.75583l1.80274,-1.32989c0,0 27.03165,4.61733 39.21234,6.99357c10.572,2.06239 31.28631,6.46303 31.28631,6.46303l0.14798,2.00686c0,0 -20.76808,-4.77075 -31.91162,-6.94464c-12.72449,-2.48231 -40.53772,-7.18888 -40.53772,-7.18888z" fill="#918b8e" stroke-width="0"/><path d="M103.38703,125.74283l2.35815,-1.51796c0,0 25.47694,4.61046 37.6576,6.98668c10.57199,2.06238 31.28632,6.46304 31.28632,6.46304l0.14796,2.00684c0,0 -20.76808,-4.77074 -31.91162,-6.94464c-12.72449,-2.48232 -39.53839,-6.99394 -39.53839,-6.99394z" fill="#a59fa2" stroke-width="0"/><path d="M162.82039,158.51508l-0.80185,-5.94617c0,0 0.43842,-1.14221 0.78687,-1.18918c0.30698,-0.04139 1.19518,0.92191 1.19518,0.92191l0.80183,5.94616c0,0 -0.43908,0.80853 -0.74676,0.85003c-0.34805,0.04692 -1.23531,-0.58271 -1.23531,-0.58271z" fill="#494242" stroke-width="0"/><path d="M122.78381,153.40325l5.29355,-8.63184l3.81383,0.74402l-5.29355,8.63183z" fill="#9c989a" stroke-width="0"/><path d="M135.57769,137.78784l2.00182,-0.59566l23.98323,4.6971l1.79882,1.31874z" fill="#757274" stroke-width="0"/><path d="M135.13196,140.56518l2.00183,-0.59567l23.98322,4.69709l1.79885,1.31873z" fill="#757274" stroke-width="0"/><path d="M82.09233,162.42469l12.81096,-56.75486l1.77359,0.93766l-12.35235,57.25302z" fill="#686666" stroke-width="0"/><path d="M81.88021,162.65872l3.75502,-15.82966l1.51757,4.18649l-2.97678,12.98024z" fill="#535252" stroke-width="0"/><path d="M116.4371,146.09421c0,0 2.53383,-1.8954 2.7151,-2.82465c0.17791,-0.91192 -1.63739,-2.69992 -1.63739,-2.69992c0,0 2.81828,1.23214 2.3927,2.86926c-0.32415,1.24698 -1.77441,3.19433 -2.07124,4.25956c-0.84403,3.0289 -2.92671,10.10844 -2.92671,10.10844z" fill="#c4bec1" stroke-width="0"/><path d="M124.33707,145.68769l3.8284,-9.64076l3.33543,-3.78572l-4.43605,8.87298z" fill="#aca7a9" stroke-width="0"/></g></g><g stroke-width="0"><path d="M245.54031,140.97709l3.14514,-2.77841c0,0 2.04903,-1.06367 2.80605,-0.63582c0.86313,0.48782 2.09635,3.40651 2.09635,3.40651l-1.31349,3.90264c0,0 -4.20058,-0.82714 -5.41792,-1.20042c-0.5488,-0.16829 -1.31612,-2.69448 -1.31612,-2.69448z" fill="#c0c0c0"/><path d="M201.56762,142.23188c0,0 0.37823,-2.8605 1.63583,-3.77551c1.57604,-1.14669 7.96704,-2.15381 7.96704,-2.15381l-1.60445,4.51342l-0.55931,2.86719z" fill="#838383"/><path d="M201.41285,142.12592l9.38723,-5.79103l36.86736,7.19213l-1.43248,7.34284z" fill="#999999"/><path d="M202.51907,141.67292l7.16416,-4.55361l33.14743,6.46644l-1.11839,5.73305c0,0 -4.01196,-0.78265 -9.17287,-1.78944c-3.35542,-0.65461 -6.99314,-2.44627 -10.5331,-3.13684c-3.79747,-0.74083 -7.45175,-0.37166 -9.58469,-0.78774c-4.17447,-0.81438 -9.90254,-1.93181 -9.90254,-1.93181z" fill="#2e2e2e"/><path d="M205.94708,142.33943l9.34435,-4.19167l12.23349,2.38653c0,0 -7.60481,0.45976 -10.10618,0.90358c-2.65548,0.47115 -6.21235,1.92756 -6.21235,1.92756z" fill="#a5899d"/><path d="M213.81,143.75848c0,0 5.17719,0.01951 7.58886,0.49c3.08148,0.60115 9.388,2.82187 9.388,2.82187l-9.41126,-2.17749z" fill="#adadad"/><path d="M201.51896,142.12811l8.47697,-5.22521l34.31973,6.69518l-0.13183,0.67585c0,0 -29.71662,-5.79715 -33.5902,-6.55284c-0.81023,-0.15805 -9.07467,4.40709 -9.07467,4.40709z" fill="#8a8a8a"/><path d="M246.61958,157.27978l1.86787,-9.57484l2.01768,-6.94403c0,0 1.07522,0.6885 1.51099,1.34764c0.43577,0.65913 0.5962,1.83949 0.5962,1.83949l-4.01696,13.71719z" fill="#9e9e9e"/><path d="M242.07895,152.08344c0,0 -0.48802,-2.26018 -0.31794,-3.84607c0.22907,-2.1356 2.12534,-7.38792 2.12534,-7.38792l1.96781,0.05239c0,0 0.59324,0.92243 1.09082,0.86756c0.68605,-0.07565 2.6448,-1.27964 2.6448,-1.27964l-2.94749,12.48392z" fill="#9c9c9c"/><path d="M242.29173,153.99016c-0.55644,-1.23381 -0.05755,-2.5355 -0.05755,-2.5355l6.16609,-6.13323c0,0 0.62421,4.07876 0.44872,4.97827c-0.49888,2.55733 -0.42045,7.41186 -0.42045,7.41186c0,0 -2.94099,-0.48842 -3.87666,-1.11784c-1.12219,-0.75489 -1.70371,-1.36978 -2.26018,-2.60359z" fill="#888888"/><path d="M244.18776,153.57121c-0.58708,-2.15198 -0.72434,-6.72594 1.86414,-10.36442c2.5885,-3.63847 4.55011,-1.08444 4.55011,-1.08444c0,0 0.14099,4.53388 -0.30184,6.80394c-0.40338,2.06787 -2.24795,6.2665 -2.24795,6.2665c0,0 -3.27738,0.53041 -3.86444,-1.6216z" fill="#b4b4b4"/><path d="M249.746,146.81513c-0.2702,1.38495 -5.30042,0.48253 -5.03023,-0.90241c0.2702,-1.38495 4.30671,-6.10153 5.10409,-5.94598c0.30883,0.06024 0.92127,0.28349 0.91104,1.36219c-0.01621,1.70653 -0.81934,4.63764 -0.98491,5.48623z" fill="#bbbbbb"/></g><g stroke-width="0"><path d="M186.11008,138.00049c0,0 -4.8067,-5.94773 -4.44799,-7.78647c0.29288,-1.50134 6.24099,-0.46642 6.24099,-0.46642l7.39192,1.51523l-6.01356,9.80901z" fill="#f399c8"/><path d="M155.83443,133.76685c0,0 -0.55046,-2.24476 -0.09257,-3.24839c0.50533,-1.10756 3.21773,-4.25129 3.21773,-4.25129l22.64746,4.22896l7.30621,10.211z" fill="#ee96c3"/></g></g><g stroke-width="0"><g><path d="M253.33287,132.68991l1.18365,-6.06745l46.93345,9.15584l-1.18364,6.06745z" fill="#61585b"/><path d="M253.79365,129.47514l0.63384,-3.24911l47.11188,9.19068l-0.63385,3.24911c0,0 -8.48099,-1.65453 -17.19315,-3.35407c-2.72393,-0.53138 -6.84393,0.21072 -9.36089,-0.28031c-2.99298,-0.58387 -5.91237,-2.69925 -7.83221,-3.07378c-5.7568,-1.12304 -12.72564,-2.48252 -12.72564,-2.48252z" fill="#494344"/><path d="M315.74182,134.83034l-5.53552,-20.36972l20.53218,4.00549l11.93129,19.41808c0,0 -5.86519,0.24284 -9.08683,-0.1225c-4.97135,-0.56378 -17.84113,-2.93131 -17.84113,-2.93131z" fill="#5e555b"/><path d="M315.08617,138.20225l1.06045,-5.43602c0,0 12.34917,0.92858 17.30008,1.10012c3.92917,0.13611 6.79438,0.10203 6.79438,0.10203l4.5009,7.94763c0,0 -5.53937,0.5456 -9.69548,0.18714c-5.63138,-0.48576 -19.96031,-3.90079 -19.96031,-3.90079z" fill="url(#color-5)"/><path d="M308.51242,114.29194l0.76516,-3.92223l18.79716,3.66697l2.80394,4.61848z" fill="url(#color-6)"/><path d="M314.50843,138.11498l0.24113,-1.23595c0,0 15.33555,2.91384 20.65447,3.78079c3.97724,0.64826 8.61786,-0.05303 8.61786,-0.05303l0.65325,1.29376l-8.46462,0.44807z" fill="#312c30"/><g><path d="M217.38758,108.36804l1.47387,-8.7378l92.18754,17.98409l5.339,12.53602z" fill="#8a6672"/><path d="M232.03436,119.66721c0,0 -2.76403,-4.21295 -5.23696,-6.18453c-2.47294,-1.97159 -9.449,-3.09055 -9.449,-3.09055l0.50972,-2.027c0,0 12.04238,2.63085 18.9234,4.07025c16.43785,3.43843 79.27743,16.47124 79.27743,16.47124l2.29875,7.13929z" fill="#755761"/><path d="M234.35319,122.65745l-2.47317,-3.12315l86.05954,16.29005l0.59322,3.25494z" fill="#694e57"/><path d="M218.62388,99.98747l0.86717,-4.44522l89.25616,16.72008l2.69444,6.2936c0,0 2.06502,3.80379 -3.11855,2.76681c-1.63183,-0.32643 -9.93898,-5.37899 -11.57487,-5.70626c-15.75476,-3.15178 -78.12431,-15.62898 -78.12431,-15.62898z" fill="#916b77"/><path d="M219.7285,95.58869l0.36673,-2.50057l88.27188,17.07886l0.56779,2.54815z" fill="#9e7582"/><path d="M292.35187,110.45297c-7.79448,-2.18069 -71.06426,-15.57525 -71.06426,-15.57525l86.2286,16.82162l3.28718,8.22269c0,0 -10.65703,-7.28837 -18.45152,-9.46906z" fill="#b38f9a"/></g><path d="M264.65441,128.56577l1.75655,-9.00406l19.83825,3.87006l-1.75655,9.00406z" fill="#3a3336"/><path d="M266.32394,119.54897l0.99471,-1.35716l18.19541,3.54959l0.67543,1.68293z" fill="#4b4246"/><path d="M264.88758,128.10247l1.56578,-8.02629c0,0 0.03127,5.3712 2.42822,6.96595c2.39695,1.59474 15.28988,4.82229 15.28988,4.82229z" fill="#332c30"/><path d="M309.31915,116.71505l-2.69864,-6.63958c0,0 1.13166,-0.4585 1.72119,-0.34349c0.65906,0.12857 2.04774,1.07872 2.04774,1.07872l2.69864,6.63958z" fill="#757575"/><path d="M311.3771,121.9404l-3.88103,-9.53173l3.76896,0.73524l3.88103,9.53171z" fill="#5a5a5a"/><path d="M314.30866,129.08281l-3.88103,-9.53171l3.76894,0.73523l3.88104,9.53173z" fill="#505050"/><path d="M317.33752,136.47933c-0.66287,-1.628 -3.24929,-7.98017 -3.24929,-7.98017l3.76894,0.73525l4.51425,11.40184c0,0 -2.1203,0.13196 -3.0494,-0.06438c-0.72473,-0.15315 -1.69223,-3.37469 -1.98452,-4.09256z" fill="#3b3b3b"/><path d="M215.37654,110.62284l3.57568,-18.32921l3.12212,0.60904l-3.5757,18.32922z" fill="#443e42"/><path d="M196.54349,108.57794l0.46203,-5.94964l19.85432,3.87319l-1.13504,5.81831z" fill="url(#color-7)"/><path d="M196.88476,103.24729l2.0769,-10.64628l19.85432,3.87319l-2.07692,10.64629z" fill="#5e555b"/><path d="M198.93746,92.72496l1.58213,-3.93201l19.06909,3.72002l-0.79695,4.08521z" fill="url(#color-8)"/><path d="M268.69652,102.29392l1.17436,-6.01982l14.54008,3.92326l3.63467,5.509z" fill="#5e555b"/><path d="M287.97756,106.05532l-3.58361,-5.77072c0,0 2.82818,1.25537 4.82403,2.66179c1.99588,1.40644 5.12838,4.35134 5.12838,4.35134z" fill="#776b73"/><path d="M265.50895,102.84942l3.37908,-0.60873l25.17742,4.63996l3.28768,2.18095z" fill="#6d6269"/></g><g><path d="M266.83434,124.94607c0.2391,-1.22575 0.96148,-2.26333 1.54005,-3.19943c0.80616,-1.30443 1.62497,-2.35491 3.0568,-2.93769c0.87461,-0.35597 2.06539,-0.52043 3.08207,-0.56699c0.67245,-0.03077 1.7297,-0.23215 2.41974,-0.09754c1.5642,0.30516 1.88454,0.45091 2.91805,1.1579c0.62256,0.42588 2.14567,1.18058 2.54205,1.94273c0.3355,0.64505 0.62087,1.66715 0.82611,2.39963c0.35073,1.25178 0.78134,3.23544 0.51548,4.59839c-0.11238,0.57598 -0.85147,1.79545 -0.99893,2.29189c-0.4681,1.57597 -0.56641,2.076 -1.96872,2.92675c-0.8523,0.51708 -2.43657,0.76615 -3.48064,0.98018c-1.08127,0.22165 -2.49933,0.8274 -3.65034,0.60285c-0.77688,-0.15156 -2.0761,-0.9501 -2.80261,-1.23057c-1.5762,-0.60853 -2.41839,-0.95057 -3.21052,-2.26674c-0.6793,-1.12869 -0.62909,-2.74736 -0.72663,-4.14957c-0.05121,-0.73665 -0.21005,-1.69241 -0.06194,-2.45174z" fill="#3a3a3a"/><path d="M267.57457,124.96962c0.2188,-1.12166 0.87985,-2.07114 1.40928,-2.92779c0.73774,-1.19368 1.48695,-2.15494 2.79728,-2.6883c0.80034,-0.32576 1.89004,-0.47625 2.82038,-0.51883c0.61534,-0.02819 1.58286,-0.21243 2.21425,-0.08925c1.43142,0.27924 1.72456,0.41262 2.67029,1.05956c0.5697,0.38973 1.9635,1.08033 2.32625,1.77776c0.30702,0.59032 0.56816,1.52564 0.75597,2.19589c0.32095,1.14547 0.715,2.96075 0.47173,4.20793c-0.10282,0.52706 -0.7792,1.64302 -0.91413,2.09731c-0.42834,1.44217 -0.51828,1.89975 -1.80155,2.67825c-0.77997,0.47314 -2.22971,0.70109 -3.18512,0.89693c-0.98945,0.20284 -2.28715,0.75715 -3.3404,0.55168c-0.7109,-0.13867 -1.89979,-0.8694 -2.56465,-1.12607c-1.44241,-0.55686 -2.21308,-0.86984 -2.93795,-2.07429c-0.62159,-1.03287 -0.57566,-2.51409 -0.66491,-3.79724c-0.04689,-0.67414 -0.19221,-1.54874 -0.05668,-2.24355z" fill="#5a5a5a"/><path d="M280.40823,122.85849c-1.55027,-2.73317 -6.51113,-3.90535 -6.51113,-3.90535c0,0 2.00973,-0.15811 3.96175,0.22973c1.5812,0.31417 3.05466,0.97294 3.94365,2.4719c0.8897,1.50017 0.99204,3.03284 1.00631,4.45739c0.02806,2.79302 -0.85983,5.05773 -0.85983,5.05773c0,0 0.00954,-5.57823 -1.54077,-8.3114z" fill="#6d6d6d"/><path d="M274.21886,126.76454c0.11024,-0.56504 0.65764,-0.93376 1.22273,-0.82356c0.56504,0.11023 0.93375,0.65764 0.82355,1.22274c-0.11024,0.56504 -0.65764,0.93375 -1.22273,0.82355c-0.56504,-0.11023 -0.93376,-0.65763 -0.82354,-1.22274z" fill="#272727"/><path d="M274.11511,126.88368c0.10111,-0.51825 0.60319,-0.85645 1.12146,-0.75534c0.51825,0.10111 0.85645,0.60319 0.75534,1.12146c-0.10111,0.51825 -0.60319,0.85646 -1.12146,0.75536c-0.51825,-0.10111 -0.85646,-0.60319 -0.75535,-1.12146z" fill="#131313"/></g></g></g></g></g><path d="M165.85139,217.7229c0.30344,-1.55535 4.28539,-44.20806 5.09234,-45.75738c1.0895,-2.09188 9.15514,0.85767 12.35314,-0.05468c9.79442,-2.79423 20.30417,-5.41752 20.30417,-5.41752c0,0 13.69691,3.26341 17.85503,4.07463c3.10952,0.60662 64.91945,4.01425 63.67085,14.28683c-1.69354,13.93349 -42.17222,-5.90248 -44.49492,6.00371c-0.58801,3.0141 1.73971,3.66737 0.58185,6.64805c-0.27791,0.71537 -3.57773,5.34814 -4.11883,6.95026c-0.85896,2.54314 1.60886,7.10251 -2.23349,9.51066c-3.06289,1.9196 -2.12726,7.21355 -2.98694,8.28438c-5.92435,7.37912 -13.3707,2.05034 -22.21677,0.32465c-10.48831,-2.04606 -26.46362,-1.36905 -35.43668,-4.38019c-3.87332,-1.29984 -9.25292,4.05407 -8.3697,-0.47333z" fill="#86c8f5" stroke-width="0"/><g stroke-width="0"><g><path d="M158.46381,234.07026l1.06877,-5.47866c0,0 2.1658,0.60392 3.18908,-0.17833c1.44571,-1.10509 4.85774,-5.67621 4.85774,-5.67621l-0.92773,8.06535c0,0 -3.63559,2.54955 -5.31738,3.13582c-1.21425,0.42324 -2.87046,0.13202 -2.87046,0.13202z" fill="#4d484c"/><g><g><path d="M120.65491,215.13045l5.0875,-4.67446c0,0 17.3217,-5.73834 24.55477,-8.2922c5.56391,-1.96451 14.47839,-5.26951 14.47839,-5.26951l-2.45874,26.36361z" fill="#eb59c1"/><path d="M124.22152,204.4924l5.03049,-28.84446c0,0 26.27046,9.40782 32.45813,13.62739c4.49017,3.06197 0.46584,16.35791 0.46584,16.35791l-6.92357,4.91275z" fill="#dd54b6"/><path d="M125.27972,182.85246l3.66332,-23.69631c0,0 12.15386,9.76798 16.55227,11.40616c6.51758,2.42748 19.63761,2.16928 19.63761,2.16928l-4.98859,25.57183c0,0 -16.44072,-1.32999 -17.8573,-1.95777c-4.84453,-2.14695 -17.00731,-13.49319 -17.00731,-13.49319z" fill="#ff77d8"/><path d="M125.99775,175.43899l2.69049,-13.79157l37.11611,2.90451l-4.75306,17.72529c0,0 -11.54971,0.19277 -14.03036,-0.29116c-5.88435,-1.14792 -21.02318,-6.54707 -21.02318,-6.54707z" fill="#ee51c1"/></g><g><g><path d="M120.07785,204.31413l2.8658,-41.01671l8.24592,1.60864l-2.8658,41.01671z" fill="#a59da1"/><path d="M122.87254,163.4777c0,0 0.09944,-4.55748 2.10944,-5.4713c2.01001,-0.91386 7.04666,-0.18928 7.04666,-0.18928l-0.89673,7.27186z" fill="#b9b0b5"/><path d="M119.78674,215.10306l0.35398,-10.80497l8.2065,1.60096l-0.35398,10.80496z" fill="#8b8488"/></g><g><path d="M160.17628,208.6758l2.8658,-41.0167l4.4552,0.86911l-2.86579,41.0167z" fill="#a59da1"/><path d="M163.00763,168.66852l0.43365,-6.47802c0,0 3.0107,-0.1059 3.82657,1.22464c0.81587,1.33054 0.17178,5.296 0.17178,5.296z" fill="#b9b0b5"/><path d="M159.87287,219.46241l0.35398,-10.80498l4.42809,0.86383l-0.35397,10.80498z" fill="#8b8488"/></g><path d="M119.08616,223.70405c0,0 -2.68448,-3.31817 -2.79055,-4.85146c-0.11807,-1.7068 2.1144,-4.92476 2.1144,-4.92476l47.62688,4.81343c0,0 1.52996,2.67634 1.6591,4.2159c0.18095,2.15792 -4.8918,6.17553 -4.8918,6.17553z" fill="#494547"/><path d="M131.59511,161.73779c0,0 -2.16491,-1.00037 -2.47769,-1.64647c-0.34348,-0.70952 1.31384,-2.50806 1.31384,-2.50806c0,0 12.01496,1.31288 17.25614,2.00711c6.11003,0.80931 16.38534,2.62655 16.38534,2.62655c0,0 0.28694,1.30296 0.08876,1.87296c-0.19189,0.55204 -0.86358,1.57207 -0.86358,1.57207z" fill="#c2b8bd"/><path d="M119.66849,222.57392c0,0 -0.66907,-3.01925 -0.58585,-4.71022c0.06903,-1.40333 0.8208,-3.55659 0.8208,-3.55659l44.79291,4.60499c0,0 1.38719,3.483 1.06881,5.11491c-0.342,1.75315 -2.82518,3.88838 -2.82518,3.88838z" fill="#6f696b"/><path d="M129.54521,230.03274l1.06877,-5.47865l29.5495,4.12953l-1.06876,5.47865z" fill="#333032"/><path d="M118.20247,227.94368c-0.96611,-0.84862 -2.33441,-2.60891 -2.33441,-2.60891l0.45202,-6.85973c0,0 1.99286,2.70398 2.91718,4.27145c0.65424,1.10949 11.44462,1.70723 11.44462,1.70723l-1.06876,5.47866c0,0 -10.44451,-1.14007 -11.41064,-1.98868z" data-paper-data="{&quot;index&quot;:null}" fill="#444043"/><g><path d="M128.04751,176.29608c0,0 -1.62894,-5.14929 -1.32118,-6.8643c0.21309,-1.18735 2.99049,-2.43789 2.99049,-2.43789l34.99235,3.74494c0,0 0.96608,3.37123 0.69096,4.90431c-0.2812,1.56692 -2.36032,4.39789 -2.36032,4.39789z" fill="#979797"/><path d="M128.30408,175.25996c0,0 -1.75378,-4.61849 -1.49284,-6.13438c0.18066,-1.04956 2.90817,-2.08804 2.90817,-2.08804l34.87477,4.24462c0,0 1.04847,3.02104 0.8152,4.37619c-0.23839,1.385 -2.23051,3.84626 -2.23051,3.84626z" fill="#a2a2a2"/></g><g><path d="M127.21734,192.98556c0,0 -1.62894,-5.14929 -1.32118,-6.8643c0.21309,-1.18735 2.99048,-2.43791 2.99048,-2.43791l34.99234,3.74494c0,0 0.9661,3.37122 0.69098,4.9043c-0.2812,1.56692 -2.36031,4.39788 -2.36031,4.39788z" fill="#979797"/><path d="M127.4739,191.94946c0,0 -1.75377,-4.61848 -1.49282,-6.13438c0.18065,-1.04954 2.90817,-2.08804 2.90817,-2.08804l34.87477,4.24465c0,0 1.04846,3.02104 0.8152,4.37619c-0.2384,1.385 -2.23051,3.84625 -2.23051,3.84625z" fill="#a2a2a2"/></g><g><path d="M126.3974,210.18161c0,0 -1.62894,-5.14929 -1.32118,-6.8643c0.21309,-1.18735 2.99048,-2.4379 2.99048,-2.4379l34.99234,3.74494c0,0 0.96608,3.37123 0.69097,4.90431c-0.2812,1.56692 -2.36031,4.39788 -2.36031,4.39788z" fill="#7a7a7a"/><path d="M126.65393,209.14554c0,0 -1.75379,-4.61848 -1.49284,-6.13438c0.18065,-1.04954 2.90817,-2.08802 2.90817,-2.08802l34.8748,4.24463c0,0 1.04844,3.02104 0.8152,4.3762c-0.2384,1.385 -2.23051,3.84627 -2.23051,3.84627z" fill="#929292"/></g></g></g></g><path d="M119.92523,208.31275c0,0 -0.04973,-1.75851 0.09347,-4.08475c0.42061,-6.8296 2.67777,-40.91406 2.67777,-40.91406l2.28545,4.82996l-2.30106,29.53051z" fill="#777275"/></g></g><g fill="#86c8f5" stroke-width="0"><path d="M378.98793,220.3478c4.96767,0.70061 5.44723,7.51579 3.83441,15.39747c-1.61283,7.88165 -5.9444,13.76664 -9.67492,13.14453c-3.73049,-0.62212 -5.44723,-7.51579 -3.83441,-15.39747c1.61283,-7.88165 3.9518,-13.95168 9.67492,-13.14453z" data-paper-data="{&quot;index&quot;:null}"/><path d="M357.14083,231.69536c1.61283,-7.88165 3.48733,-12.14508 9.21041,-11.33794c4.96767,0.70061 5.91173,5.70922 4.29892,13.59087c-1.61283,7.88166 -5.9444,13.76663 -9.67491,13.14453c-3.73049,-0.62212 -5.44723,-7.51579 -3.83441,-15.39747z" data-paper-data="{&quot;index&quot;:null}"/><path d="M344.36137,237.00964c1.61283,-7.88165 4.15727,-15.14644 9.88037,-14.33931c4.96767,0.70061 5.24179,8.7106 3.62897,16.59224c-1.61283,7.88165 -5.69433,9.62798 -9.42485,9.00586c-3.7305,-0.62212 -5.69728,-3.37716 -4.08447,-11.25878z" data-paper-data="{&quot;index&quot;:null}"/><path d="M341.89986,225.88656c4.96767,0.70061 5.91173,5.70922 4.29892,13.59087c-1.61283,7.88165 -5.69433,9.62798 -9.42485,9.00586c-3.7305,-0.62212 -5.69727,-3.37716 -4.08446,-11.25878c1.61283,-7.88165 3.48732,-12.14507 9.2104,-11.33794z" data-paper-data="{&quot;index&quot;:null}"/></g></g></g></svg>