<svg version="1.1" xmlns="http://www.w3.org/2000/svg" xmlns:xlink="http://www.w3.org/1999/xlink" width="468.52872" height="152.60477" viewBox="0,0,468.52872,152.60477"><defs><linearGradient x1="528.56886" y1="239.82244" x2="527.68377" y2="244.55187" gradientUnits="userSpaceOnUse" id="color-1"><stop offset="0" stop-color="#1f1d20"/><stop offset="1" stop-color="#202022"/></linearGradient><linearGradient x1="529.89397" y1="235.13101" x2="528.87562" y2="240.57275" gradientUnits="userSpaceOnUse" id="color-2"><stop offset="0" stop-color="#302d31"/><stop offset="1" stop-color="#1f1e20"/></linearGradient><linearGradient x1="191.97999" y1="220.79659" x2="191.35635" y2="224.12868" gradientUnits="userSpaceOnUse" id="color-3"><stop offset="0" stop-color="#585758"/><stop offset="1" stop-color="#575758"/></linearGradient><linearGradient x1="177.23658" y1="228.29084" x2="176.74701" y2="230.90683" gradientUnits="userSpaceOnUse" id="color-4"><stop offset="0" stop-color="#363536"/><stop offset="1" stop-color="#353536"/></linearGradient><linearGradient x1="335.22758" y1="163.44546" x2="334.2088" y2="168.88946" gradientUnits="userSpaceOnUse" id="color-5"><stop offset="0" stop-color="#5e555b"/><stop offset="1" stop-color="#2b2629"/></linearGradient><linearGradient x1="329.43819" y1="141.33625" x2="328.70312" y2="145.2642" gradientUnits="userSpaceOnUse" id="color-6"><stop offset="0" stop-color="#72676e"/><stop offset="1" stop-color="#5e555b"/></linearGradient><linearGradient x1="215.85238" y1="134.21926" x2="214.76188" y2="140.04614" gradientUnits="userSpaceOnUse" id="color-7"><stop offset="0" stop-color="#5e555b"/><stop offset="1" stop-color="#4d454a"/></linearGradient><linearGradient x1="218.47411" y1="120.21018" x2="217.70847" y2="124.30141" gradientUnits="userSpaceOnUse" id="color-8"><stop offset="0" stop-color="#74686f"/><stop offset="1" stop-color="#5e555b"/></linearGradient></defs><g transform="translate(-65.04193,-118.49685)"><g data-paper-data="{&quot;isPaintingLayer&quot;:true}" fill-rule="nonzero" stroke="none" stroke-linecap="butt" stroke-linejoin="miter" stroke-miterlimit="10" stroke-dasharray="" stroke-dashoffset="0" style="mix-blend-mode: normal"><g><g stroke-width="0"><path d="M255.07778,217.35327l-7.23281,-16.96528l25.24758,4.12453c0,0 -2.15194,5.52728 -2.84485,8.14298c-0.67024,2.53026 -1.24681,7.30336 -1.24681,7.30336z" fill="#7f7d7e"/><path d="M255.13835,217.56472l-2.5461,-6.18076c0,0 1.66436,3.92825 4.73218,5.12781c2.20911,0.86373 4.12012,0.90606 6.69682,1.71462c2.57668,0.80862 4.84685,1.9078 4.84685,1.9078z" fill="#6c6a6b"/></g><g><g><g><path d="M524.74367,244.00166l-1.13877,-5.10826c0,0 5.58433,2.73174 7.9731,4.0871c2.38884,1.35544 0.66759,2.18919 0.66759,2.18919z" fill="url(#color-1)" stroke-width="0"/><path d="M533.38065,235.98665c0,0 1.02618,2.56023 -1.69109,2.96011c-2.71726,0.39986 -5.79573,1.06797 -5.79573,1.06797l0.06434,-5.6203z" data-paper-data="{&quot;index&quot;:null}" fill="url(#color-2)" stroke-width="0"/><path d="M515.29076,242.22794l0.38598,-2.06254l14.52046,2.71746c0,0 1.09003,1.01208 1.50211,1.46182c0.37047,0.40429 -0.89516,0.78653 -0.89516,0.78653z" fill="#444444" stroke-width="NaN"/><path d="M515.68352,240.31252l-0.84769,-1.94297l12.40039,2.32067l3.03406,2.2384c0,0 -4.18966,-0.54197 -6.45837,-0.94881c-2.55863,-0.45891 -8.12838,-1.66729 -8.12838,-1.66729z" fill="#535353" stroke-width="0"/><path d="M514.7004,238.48331l-0.2015,-0.68879l11.27797,2.11058l1.56002,0.8268z" fill="#363636" stroke-width="0"/><path d="M515.29076,242.22794l0.2094,-1.11895c0,0 6.26005,1.63301 9.09068,2.16277c2.39872,0.4489 6.81295,0.81356 6.81295,0.81356c0,0 0.76438,0.6133 0.97012,0.85821c0.17363,0.20659 -0.33145,0.41948 -0.33145,0.41948c0,0 -4.72645,-0.47302 -7.00066,-0.89865c-3.06828,-0.57419 -9.75101,-2.23637 -9.75101,-2.23637z" fill="#3a3a3a" stroke-width="NaN"/><path d="M514.81106,237.87146l-0.3815,-0.97047l13.40885,2.50944l-1.9593,0.56685z" fill="#242424" stroke-width="0"/><path d="M513.60044,236.93839l0.30434,-1.6261c0,0 7.99319,1.28614 10.93777,1.83719c2.0062,0.37549 5.02169,1.14959 5.02169,1.14959l-2.05669,1.13031z" fill="#3a3a3a" stroke-width="0"/><path d="M513.76958,235.33026l0.37575,-2.00772c0,0 7.58337,1.08359 10.84111,1.69325c2.81908,0.52758 7.58022,1.75424 7.58022,1.75424l-2.75264,1.56287c0,0 -3.57738,-0.75341 -5.78351,-1.16627c-2.93247,-0.54878 -10.26087,-1.83639 -10.26087,-1.83639z" fill="#444444" stroke-width="0"/><path d="M514.08725,233.39829l0.15655,-0.83655c0,0 7.76218,1.32682 11.29802,1.98853c2.46205,0.46078 7.88727,1.60195 7.88727,1.60195l-1.00685,0.67738c0,0 -4.91464,-1.2134 -7.82928,-1.75888c-3.21115,-0.60094 -10.50573,-1.67244 -10.50573,-1.67244z" fill="#535353" stroke-width="0"/><path d="M514.10081,232.62158l0.06267,-0.33459c0,0 7.63861,0.91369 11.03991,1.55022c2.94069,0.55034 8.18782,2.04814 8.18782,2.04814l-0.02567,0.34156c0,0 -5.87602,-1.26748 -9.06567,-1.86444c-3.23135,-0.60475 -10.19899,-1.74088 -10.19899,-1.74088z" fill="#4e4e4e" stroke-width="0"/></g><g stroke-width="0"><g><g><g><path d="M509.62667,240.6714l-2.08209,-13.78186l0.86022,-1.59026c0,0 2.82151,3.81328 3.27006,6.43084c0.24353,1.42107 -0.61831,9.20876 -0.61831,9.20876z" fill="#383638"/><path d="M510.78708,240.18514c0,0 0.16956,-0.58856 0.00321,-3.11716c-0.18134,-2.75755 -0.88106,-6.58869 -1.06988,-7.71665c-0.42398,-2.53194 -1.14199,-2.799 -1.14199,-2.799l4.82516,0.31108l2.38762,14.25829z" fill="#555355"/><path d="M508.62559,226.64799l-0.34445,-1.32231c0,0 2.13287,-0.41477 3.07804,-0.23783c0.88573,0.16573 1.86787,1.08947 1.86787,1.08947l0.33109,1.39376z" fill="#686668"/></g><path d="M504.05078,239.62795l-2.08209,-13.78185l0.53133,-1.63126c0,0 3.15037,3.85437 3.59889,6.47187c0.24352,1.42106 -0.6183,9.20875 -0.6183,9.20875z" fill="#383638"/><path d="M505.2112,239.1417c0,0 0.16956,-0.58857 0.00322,-3.11715c-0.18134,-2.75755 -0.88106,-6.58869 -1.06988,-7.71665c-0.42398,-2.53194 -1.14199,-2.799 -1.14199,-2.799l4.1799,-0.31835c0,0 0.77788,1.4216 0.90712,2.1933c0.36822,2.19877 2.12569,12.69443 2.12569,12.69443z" fill="#555355"/><path d="M503.04968,225.60442l-0.55892,-1.36249c0,0 2.34735,-0.37459 3.29259,-0.19768c0.88573,0.16573 1.58191,1.036 1.58191,1.036l0.45398,1.41678z" fill="#686668"/><path d="M511.77429,239.3589c0.1507,-0.80552 0.92601,-1.3363 1.73151,-1.18562c0.80553,0.15071 1.3363,0.92601 1.18562,1.73151c-0.1507,0.80552 -0.92601,1.3363 -1.7315,1.18562c-0.80553,-0.15071 -1.3363,-0.92601 -1.18562,-1.73151z" fill="#312f31"/><path d="M512.95754,236.60022l-0.94498,-5.81965l1.59058,0.15184l0.93314,5.88308z" fill="#444144"/></g><path d="M466.30302,227.51094l-1.70944,-11.33135l29.156,6.65332l-2.23712,9.39588z" fill="#444444"/><path d="M479.44844,225.98753c0,0 0.72116,-0.39603 1.63431,-1.34924c0.83504,-0.87144 1.84537,-2.28769 2.30876,-2.67276c1.27252,-1.49797 3.52463,-0.60151 3.52463,-0.60151l-1.08295,0.46171l-5.26133,4.37208z" fill="#292929"/><path d="M480.26311,236.85223l-4.3849,-11.98246c0,0 3.34131,1.1658 5.20884,0.44804c1.45121,-0.55781 1.84282,-3.16215 3.44494,-3.14818c4.59661,0.04035 17.33119,1.98215 17.33119,1.98215c0,0 1.87047,7.61907 2.25082,10.62746c0.26255,2.07686 -0.14825,6.50894 -0.14825,6.50894z" fill="#4a464a"/><path d="M486.74096,224.72845c-4.36595,-1.46412 -2.69885,-2.53979 -2.69885,-2.53979c0,0 1.01874,-1.13415 2.88107,-0.93434c4.57015,0.49039 12.95952,2.64733 14.65717,2.93895c0.80062,0.13749 0.21265,0.74769 0.21265,0.74769c0,0 -1.9029,2.07127 -3.47373,2.03572c-1.57094,-0.03557 -7.21233,-0.78404 -11.57834,-2.2482z" fill="#5e595e"/></g><g><path d="M467.45102,241.14397l-1.77394,-18.57884l18.53243,3.75956l3.92134,5.13737l6.01325,1.0251l0.4486,13.7363z" fill="#4d4846"/><path d="M471.99037,242.38737l22.03135,-5.43148l21.98538,3.86786c0,0 0.52016,4.35282 0.41154,5.71061c-0.05545,0.69225 -0.69391,2.86534 -0.69391,2.86534z" fill="#423d3b"/><path d="M469.77049,233.51661l-1.31403,-10.263l0.8065,0.15095l1.31404,10.26302z" fill="#363332"/><path d="M472.7134,241.70707l0.22391,-1.19658c0,0 5.64287,-1.53357 14.55306,0.13391c1.18387,0.22157 4.89146,3.50505 6.08467,3.72836c7.57067,1.41682 14.98087,2.80363 17.80006,3.3312c2.29591,0.42967 4.87954,-0.4094 4.87954,-0.4094l-0.46312,2.47446z" fill="#312e2c"/><path d="M477.3864,229.62027l-0.86484,-4.85736l8.16593,1.52824l3.27083,5.11018l6.16318,1.35088l-7.8187,0.51935z" fill="#585350"/><path d="M466.76872,234.78085l0.20754,-1.10894c0,0 8.59717,-2.19964 11.42532,-1.6704c4.26235,0.79767 16.02936,2.99979 16.02936,2.99979l-0.20754,1.10894c0,0 -11.96879,-2.23989 -16.23103,-3.03759c-2.77004,-0.51842 -11.22371,1.70812 -11.22371,1.70812z" fill="#2b2827"/></g></g></g><g><g><g><path d="M130.00056,215.15055c0.12064,2.29537 -0.65988,4.78383 -1.78083,4.84268c-1.12095,0.05892 -2.15796,-2.33399 -2.27859,-4.62936c-0.12064,-2.29537 -0.64191,-11.11206 0.47912,-11.17105c1.12095,-0.05892 3.45974,8.66233 3.58035,10.95768z" fill="#615e5f" stroke-width="0"/><g><path d="M176.38877,193.38338c-0.43307,-0.61781 -2.49236,-2.33838 -2.49236,-2.33838l10.28051,-1.00605l-7.22206,5.97342c0,0 -0.133,-2.01116 -0.56609,-2.62898z" fill="#756a6a" stroke-width="0"/><path d="M167.82847,190.05465l2.52626,-13.499l19.29625,-2.35729l-3.60544,19.26555z" fill="#8a7c7c" stroke-width="0"/><path d="M127.47383,188.04408l9.88853,-16.59754l34.36172,6.29507l2.12594,13.2844c0,0 -22.8875,-2.67992 -30.6238,-3.17725c-3.21143,-0.2065 -15.75245,0.19546 -15.75245,0.19546z" fill="#7c787a" stroke-width="0"/><path d="M137.03632,173.83211l0.12694,-1.48344c0,0 25.48183,4.7688 33.49259,6.26797c4.48203,0.83874 17.04443,-3.29116 17.04443,-3.29116l-0.29981,1.60189c0,0 -12.26961,4.16513 -16.60172,3.33948c-7.94334,-1.51389 -33.76248,-6.43469 -33.76248,-6.43469z" fill="#535353" stroke-width="0"/><path d="M95.81155,182.8388l3.70737,-19.81004c0,0 5.75144,-6.1003 13.29433,-7.02446c9.36858,-1.14782 25.6408,3.71345 27.67611,4.09436c1.56184,0.29234 -14.60346,7.86455 -14.60346,7.86455l-3.70737,19.81004z" fill="#8d898b" stroke-width="0"/><path d="M274.2957,169.29742l2.15368,-2.79578l105.7033,19.92722l-2.7126,14.49461c0,0 -37.4754,-5.13579 -49.41112,-7.79285c-5.92762,-1.31957 -55.73326,-23.83321 -55.73326,-23.83321z" fill="#c98cac" stroke-width="0"/><path d="M234.42213,264.58884l-2.08643,-13.55148c0,0 3.97623,6.68498 6.57716,8.26729c1.65714,1.00816 5.74096,2.16076 12.19578,0.88901c5.19641,-1.02377 11.29063,-5.48971 11.29063,-5.48971l-14.21242,12.4609z" fill="#a08e97" stroke-width="0"/><path d="M331.99798,235.11916l2.04715,-23.64839l18.4889,2.03304l-3.89923,20.83527c0,0 -6.60446,0.51295 -9.45084,0.69071c-1.31056,0.08183 -7.18603,0.08938 -7.18603,0.08938z" fill="#96858d" stroke-width="0"/><path d="M231.92682,267.93273l1.01911,-5.44561c0,0 11.47685,4.25228 16.59172,2.03401c2.48927,-1.07957 22.90403,-18.55492 34.16884,-28.28071c4.39607,-3.79546 7.39873,-6.4107 7.39873,-6.4107c0,0 3.99609,-3.09082 4.5302,-5.92314c0.26865,-1.42476 1.49927,-5.44571 1.10713,-7.87059c-0.39568,-2.44658 -2.41539,-3.2908 -2.41539,-3.2908l-2.29233,-14.2369l19.45143,3.78637l-7.74799,25.58472l3.22277,3.20945c0,0 -10.4957,4.14005 -15.95725,8.15972c-8.54536,6.28921 -37.12481,31.85307 -37.12481,31.85307z" fill="#918189" stroke-width="0"/><path d="M309.14843,231.20182l6.4546,-27.89248l13.48982,2.80513l7.97899,13.70379l-5.20621,15.6351z" fill="#96858d" stroke-width="0"/><path d="M304.36093,232.18715l-1.70381,-4.53664l8.29622,-25.09198l5.00874,0.85121l-5.92266,27.97462z" fill="#8f8187" stroke-width="0"/><path d="M330.63341,235.32807c0,0 3.93116,-6.0471 3.5969,-11.61445c-0.19247,-3.20561 -4.65727,-6.04511 -4.77526,-8.01027c-0.22541,-3.75396 -0.57413,-9.56143 -0.57413,-9.56143l6.91833,5.73449c0,0 2.02107,7.71722 1.82469,12.01598c-0.13188,2.88813 -2.76312,8.88239 -4.15201,11.2665c-0.1171,0.20096 -1.25787,-0.09721 -1.33901,0.05575c-0.19825,0.3738 0.70696,0.7785 0.70696,0.7785z" fill="#86787e" stroke-width="0"/><path d="M335.31242,213.31124c0,0 -2.31057,-4.45599 -6.73447,-6.2724c-5.0083,-2.05634 -21.78032,-5.43534 -21.78032,-5.43534l157.6544,15.07633l1.64614,9.77133l5.73303,12.40904c0,0 -98.59894,-21.06847 -118.83588,-24.85567c-6.60363,-1.23587 -17.6829,-0.69322 -17.6829,-0.69322z" fill="#df8db7" stroke-width="0"/><path d="M175.02904,231.41609l1.95579,-36.53352c0,0 2.34446,-3.37707 2.87674,-3.49684c5.86865,-1.32087 39.31801,-5.89768 44.61178,-4.61568c5.79901,1.4043 -11.25556,10.34827 -11.25556,10.34827c0,0 -14.5366,-0.65938 -17.81273,3.05116c-4.44804,5.03779 -2.87558,22.98692 -2.87558,22.98692z" fill="#c77da3" stroke-width="0"/><path d="M251.71906,215.31974l-1.37166,-2.39852c0,0 8.03022,-7.2532 10.84406,-9.05909c2.90498,-1.8645 6.32099,-1.95779 6.32099,-1.95779l5.41067,3.3547c0,0 -4.30724,-1.31742 -6.94638,-0.06517c-2.26555,1.07491 -6.51997,3.41088 -9.84123,5.93537c-2.41596,1.83633 -4.41643,4.19053 -4.41643,4.19053z" fill="#414041" stroke-width="0"/><path d="M136.91493,172.74494l6.86841,-10.60709l47.79862,8.94529c0,0 -3.66871,3.84627 -7.09674,5.20501c-3.36448,1.33354 -13.28442,2.87318 -13.28442,2.87318z" fill="#979395" stroke-width="0"/><path d="M137.91146,171.76869l6.08205,-10.75428l47.79862,8.94529c0,0 -3.66871,3.84627 -7.09674,5.20501c-3.36448,1.33354 -13.28442,2.87318 -13.28442,2.87318z" fill="#bdb7ba" stroke-width="0"/><path d="M332.94148,236.08628l-1.7465,-0.84934l17.32933,-1.00417c0,0 -3.87804,1.36736 -6.4662,1.69371c-2.58814,0.32641 -9.11663,0.15966 -9.11663,0.15966z" fill="#887980" stroke-width="0"/><path d="M177.38693,232.32994c0,0 -0.3751,-10.71742 0.01493,-19.33106c0.39198,-8.6557 0.78455,-16.76867 1.42228,-20.29632c0.10805,-0.59765 3.5548,-10.05567 4.14193,-10.47624c3.16936,-2.27019 9.35458,6.76536 15.02677,6.7042c8.39862,-0.09058 27.27557,2.91912 27.27557,2.91912l-9.28635,3.66502c0,0 -19.64476,-0.76156 -22.94057,3.84804c-4.45792,6.23497 -0.85597,28.14419 -0.85597,28.14419z" fill="#d486ae" stroke-width="0"/><path d="M179.14644,229.07922c0,0 0.97097,-41.39943 4.12888,-51.06036c1.47755,-4.52027 -0.14456,-14.08982 -0.14456,-14.08982l48.52071,16.17012l-1.55647,16.05768c0,0 -30.92648,-8.93469 -38.32266,-3.93592c-4.9372,3.33681 -3.43966,32.35045 -3.43966,32.35045z" fill="#e490bb" stroke-width="0"/><g stroke-width="0"><path d="M326.7961,192.62385l1.52221,-8.13365l9.20023,1.7218l-1.52221,8.13365z" fill="#454545"/><path d="M327.75487,192.02518l0.99182,-7.23921l11.13289,2.0835l-1.34253,7.17358z" fill="#b0b0b0"/><path d="M328.35403,187.57037l0.29598,-2.82403l11.34585,2.12333l-0.35085,1.87484c0,0 -7.7192,-1.11652 -9.41508,-1.29288c-0.56667,-0.05888 -1.87588,0.11883 -1.87588,0.11883z" fill="#bebebe"/><path d="M338.88732,193.54952c0,0 -4.97605,-3.53099 -3.72545,-7.10967c1.85841,-5.3179 5.82142,-4.08986 5.82142,-4.08986l39.31039,8.71329l-1.85069,9.88894z" fill="#9c989a"/><path d="M340.88128,192.61105c0,0 -1.797,-3.91629 -1.86646,-4.87226c-0.10299,-1.41698 2.40174,-3.9569 2.40174,-3.9569l40.87981,7.68438l-1.77077,7.28724z" fill="#898587"/><path d="M340.75599,192.78929l-0.64542,-2.09382l37.57936,7.03277l-0.35671,1.90627z" fill="#c1bcbf"/><path d="M341.2612,189.43099c0,0 -1.05896,-1.58991 -0.88655,-2.51126c0.16125,-0.86184 1.88992,-2.85022 1.88992,-2.85022l38.00682,7.11277l-1.00333,5.36149z" fill="#0d0d0d"/><path d="M341.11823,190.19505c0,0 -0.94786,-2.18334 -0.77548,-3.10472c0.16125,-0.86184 1.7788,-2.25668 1.7788,-2.25668l38.00684,7.11279l-1.00333,5.36149z" fill="#2e2e2e"/><path d="M336.02446,191.1781c-2.02962,-3.50004 -0.45451,-5.58235 -0.45451,-5.58235c0,0 1.04452,4.37916 2.09385,5.48875c1.24234,1.31362 4.53926,3.32033 4.53926,3.32033l-3.4618,-0.57646c0,0 -2.35955,-2.03428 -2.71672,-2.65023z" fill="#7d7a7c"/><path d="M343.6169,190.97772c0,0 -0.46686,-2.33776 -0.25646,-3.46179c0.18491,-0.9881 1.45215,-2.92727 1.45215,-2.92727l4.741,0.88724c0,0 -0.85868,2.08156 -1.01833,2.93495c-0.21952,1.17297 -0.17727,3.45407 -0.17727,3.45407z" fill="#555555"/><path d="M352.08653,192.56281c0,0 1.11944,-2.35747 1.32972,-3.48142c0.18491,-0.9881 -0.13411,-2.90766 -0.13411,-2.90766l5.29151,0.99027c0,0 -0.72504,1.60914 -0.88474,2.46258c-0.21952,1.17297 -0.31091,3.92647 -0.31091,3.92647z" fill="#555555"/><path d="M361.25406,194.27844c0,0 1.11944,-2.35744 1.32976,-3.48146c0.18491,-0.9881 -0.13412,-2.90765 -0.13412,-2.90765l5.21282,0.97555c0,0 -0.72504,1.60914 -0.88474,2.46258c-0.21952,1.17297 -0.31091,3.92647 -0.31091,3.92647z" fill="#555555"/><path d="M370.75241,196.05606c0,0 1.22877,-1.97521 1.43912,-3.09929c0.18491,-0.9881 -0.24345,-3.28978 -0.24345,-3.28978l5.05556,0.94613c0,0 0.44913,2.10019 0.28936,2.95367c-0.21952,1.17297 -1.48505,3.43549 -1.48505,3.43549z" fill="#555555"/><path d="M344.42149,185.23166l-0.50663,-0.90868l34.95574,6.54182l-1.65525,0.5041c0,0 -2.78179,-0.5206 -5.20201,-0.9735c-0.52752,-0.09878 -1.46532,-0.6087 -2.25548,-0.75657c-0.764,-0.14302 -1.3729,0.0775 -2.32258,-0.10018c-1.48101,-0.27717 -3.15191,-0.58987 -4.90124,-0.91722c-0.72526,-0.13573 -1.28569,-0.63081 -2.02998,-0.77011c-0.66183,-0.12383 -1.5062,0.10833 -2.17105,-0.01611c-1.65022,-0.30884 -3.28414,-0.61463 -4.82043,-0.90215c-0.70548,-0.13202 -1.30962,-0.69106 -1.96602,-0.81394c-0.80124,-0.14997 -1.6407,0.1389 -2.34273,0.00753c-2.86375,-0.5359 -4.78245,-0.895 -4.78245,-0.895z" fill="#474747"/></g><g><path d="M187.37943,224.07948l4.18117,-2.13474c0,0 2.25892,3.28651 4.87996,4.68758c2.31822,1.23913 10.04957,3.29263 10.04957,3.29263l-3.41073,3.79158z" fill="#6d6a6b" stroke-width="0"/><path d="M178.26226,228.9863l10.43245,-5.56103c0,0 2.76445,2.81308 4.77447,3.86261c3.04081,1.58781 11.69525,4.73724 11.69525,4.73724l-4.99711,3.44693z" fill="#615e5f" stroke-width="0"/><path d="M176.18595,250.94647l2.69435,-22.46071c0,0 4.1342,1.57941 8.86776,2.49539c3.69474,0.71498 7.82933,0.62692 10.15873,1.68178c4.0895,1.85183 34.77062,20.16389 34.77062,20.16389l0.56452,10.45712z" fill="#575455" stroke-width="0"/><path d="M202.3834,228.33785c7.83874,-4.19482 18.245,-15.93295 19.95491,-18.22903c1.23186,-1.65413 2.87816,-6.71364 2.87816,-6.71364l6.31863,8.11561c0,0 1.97956,21.22305 0.81364,33.87117c-0.32623,3.53905 1.42254,7.88003 -0.01319,9.10331c-1.28644,1.09596 -18.37951,0.22674 -23.54096,-1.5173c-10.86222,-3.67017 -17.06853,-1.99368 -19.77894,-7.86789c-2.71039,-5.87416 5.4226,-10.73125 5.4226,-10.73125c0,0 5.90457,-4.93891 7.94532,-6.031z" fill="#504e4f" stroke-width="0"/><path d="M213.14528,196.95677c0,0 0.66366,-1.39446 1.62811,-1.88906c1.24037,-0.63599 5.19661,-1.61057 5.19661,-1.61057c0,0 8.82678,3.75515 11.32763,6.75642c2.30741,2.76902 -5.75736,11.71943 -5.75736,11.71943l-0.98605,-5.63896z" fill="#464445" stroke-width="0"/><path d="M227.29568,247.65239c0,0 -10.27657,4.44117 -18.64772,3.04892c-8.07572,-1.34309 -14.26354,-8.49524 -13.89669,-9.87355c0.19871,-0.74682 8.59941,-2.53731 12.79318,-6.04717c4.66177,-3.90153 5.23048,-9.59565 6.92814,-11.32335c4.73931,-4.82317 14.91255,-13.27455 14.98136,-19.41024c0.07213,-6.43466 -10.08101,-10.44468 -10.08101,-10.44468c0,0 4.19969,-1.50478 9.12417,-0.71536c2.09764,0.3363 6.31271,2.53502 7.14941,3.08328c2.74382,1.79774 4.39956,3.7723 4.39956,3.7723c0,0 4.49365,-4.12307 8.09128,-3.76465c3.59755,0.35842 21.55988,6.71881 21.55988,6.71881l-18.25059,9.39713z" fill="#555354" stroke-width="0"/><path d="M213.97358,223.96927c0,0 6.54201,-9.83728 12.19143,-14.30926c5.6494,-4.47198 10.24328,-6.84798 13.71534,-6.19818c2.51425,0.47052 4.16155,9.54379 4.16155,9.54379l-16.18009,26.24073c0,0 -14.97481,0.53359 -15.97059,-2.17651c-0.78644,-2.14042 2.0823,-13.10051 2.0823,-13.10051z" fill="#585758" stroke-width="0"/><path d="M231.12225,254.95218c0,0 -1.69018,-6.61487 -0.81356,-9.52548c1.22462,-4.06612 4.97162,-16.23854 4.97162,-16.23854l0.00359,10.61756c0,0 -2.42259,9.46336 -2.84958,12.46592c-0.4119,2.897 0.58786,5.29221 0.58786,5.29221z" fill="#3f3e3f" stroke-width="0"/><path d="M233.49578,237.22104c0.11596,-1.68218 1.79675,-9.2124 1.79675,-9.2124c0,0 12.07486,-12.56111 14.62449,-14.78309c0.74746,-0.65138 4.36429,-1.7355 4.36429,-1.7355l-2.51106,4.46825c0,0 -1.65811,0.30416 -1.92271,0.74079c-0.28195,0.46518 0.27962,1.96995 0.27962,1.96995l-6.60122,7.39194c0,0 -1.80836,0.68971 -2.07744,1.15346c-0.26915,0.4639 0.24339,1.46342 0.24339,1.46342c0,0 -5.43334,8.07969 -6.70563,10.29825c-0.58829,1.0258 -0.62074,2.47722 -0.62074,2.47722c0,0 -0.98566,-2.55003 -0.86964,-4.23214z" fill="#474647" stroke-width="0"/><path d="M224.4509,214.19586l19.18453,11.96863c0,0 -1.3549,0.77633 -1.68715,1.26258c-0.24521,0.35879 -0.1259,1.39044 -0.1259,1.39044z" fill="#3f3e3e" stroke-width="NaN"/><path d="M232.25294,205.1233l19.74788,10.87707c0,0 -1.25109,0.62384 -1.56088,1.13185c-0.32291,0.52959 -0.15824,1.65837 -0.15824,1.65837z" fill="#3f3e3e" stroke-width="NaN"/><path d="M214.74945,231.02554c0,0 9.09481,9.52861 13.77306,16.48551c4.67821,6.95692 2.54863,7.78612 2.54863,7.78612z" fill="#636162" stroke-width="NaN"/><path d="M232.05081,210.80655c0,0 -6.43245,1.75067 -9.70437,4.28801c-3.27197,2.53732 -14.44061,16.91103 -13.89875,14.01583c0.54184,-2.89526 17.25131,-20.84904 19.01564,-20.51885c0.66787,0.125 3.86239,-0.43927 4.62321,-0.05528c1.24896,0.63038 -0.03573,2.27031 -0.03573,2.27031z" fill="#918f91" stroke-width="0"/><path d="M175.76131,250.73539l14.05224,0.70871c0,0 12.44209,1.99044 15.4967,2.71986c7.43894,1.77632 29.29906,7.97684 29.29906,7.97684l-1.60214,6.13098c0,0 -24.60111,-0.97662 -31.13587,-3.53807c-1.89048,-0.74102 -7.49418,-2.41851 -11.42862,-4.53047c-7.69943,-4.13305 -14.68139,-9.46781 -14.68139,-9.46781z" fill="#626061" stroke-width="0"/><path d="M232.0841,267.74108c0,0 0.8294,-4.21192 0.81854,-6.59446c-0.01219,-2.67785 -0.8882,-8.69051 -0.8882,-8.69051l1.75194,0.32787c0,0 0.86996,4.69698 0.88109,7.12122c0.01206,2.65058 -0.81137,8.16369 -0.81137,8.16369z" fill="#4a494a" stroke-width="0"/><path d="M231.73838,268.52719l0.71169,-3.32294c0,0 0.50839,0.36447 0.77525,0.41443c0.31708,0.05938 0.96207,-0.08924 0.96207,-0.08924l-0.41358,3.15431c0,0 -0.83829,0.25778 -1.20912,0.22932c-0.28419,-0.02182 -0.82626,-0.38583 -0.82626,-0.38583z" fill="#363536" stroke-width="0"/><path d="M232.09619,253.5146l-0.08113,-1.66393c0,0 0.47548,-0.27157 0.84852,-0.26204c0.35532,0.00914 0.84621,0.22591 0.84621,0.22591l0.17367,1.79905c0,0 -0.56695,0.41011 -0.87309,0.39316c-0.28845,-0.01597 -0.91412,-0.4921 -0.91412,-0.4921z" fill="#585758" stroke-width="0"/><path d="M191.02958,259.61926c0,0 -7.21727,-4.35477 -6.96653,-5.69457c0.25199,-1.34639 6.5981,-1.3499 6.5981,-1.3499c0,0 10.8014,1.77648 15.6421,2.85802c2.70999,0.60548 10.92939,3.07865 10.92939,3.07865c0,0 6.97346,2.37758 7.56276,3.65958c0.64284,1.39839 -3.67812,3.48069 -3.67812,3.48069c0,0 -12.74696,-1.05684 -16.60585,-1.99079c-1.37079,-0.33182 -13.48192,-4.04158 -13.48192,-4.04158z" fill="#6b696a" stroke-width="0"/><path d="M182.09328,250.92555l-1.97067,-0.13398c0,0 1.24754,-3.26083 3.6926,-1.53948c2.44506,1.72135 21.28135,4.21755 21.28135,4.21755z" fill="#4b4949" stroke-width="0"/><path d="M175.85955,250.60725c0,0 -1.99898,-0.17917 -1.8548,-3.8582c0.07297,-1.86228 0.97336,-16.13234 0.97336,-16.13234l4.2055,-2.16237c0,0 -0.4324,6.01685 -0.76364,8.90749c-0.44055,3.84454 -1.65302,13.41517 -1.65302,13.41517z" fill="#3f3d3e" stroke-width="0"/><path d="M182.37911,251.14777c0,0 3.53517,-1.53401 19.37954,1.08821c1.30843,0.21657 -1.75864,-0.36171 7.38735,1.86606c9.14604,2.22771 12.70927,4.43352 12.70927,4.43352c0,0 -14.61233,-3.82258 -20.70933,-4.9636c-6.94981,-1.30062 -18.76688,-2.4242 -18.76688,-2.4242z" fill="#838082" stroke-width="0"/><path d="M192.79448,222.9504c0,0 -4.69841,1.34613 -7.13352,2.53402c-2.73703,1.33514 -8.4889,5.08687 -8.4889,5.08687l-0.47648,-1.71859c0,0 4.40726,-3.09576 6.88504,-4.30447c2.70904,-1.3215 8.73739,-3.31641 8.73739,-3.31641z" fill="#4a494a" stroke-width="0"/><path d="M193.75993,222.86881l-3.80941,0.99685c0,0 0.21367,-0.61767 0.14108,-0.8794c-0.08626,-0.31107 -0.53751,-0.81056 -0.53751,-0.81056l3.42237,-1.19253c0,0 0.65275,0.61727 0.79547,0.96092c0.10944,0.26329 -0.01203,0.92487 -0.01203,0.92487z" fill="url(#color-3)" stroke-width="0"/><path d="M178.2181,229.97523l-3.40279,2.14035l0.2601,-2.17185l2.41527,-1.60528c0,0 0.68298,0.3009 0.80753,0.58136c0.11743,0.26421 -0.08018,1.05546 -0.08018,1.05546z" fill="url(#color-4)" stroke-width="0"/></g><path d="M310.47916,230.33534c0,0 1.72438,-4.1727 2.47465,-5.44554c0.50936,-0.86403 3.10554,-1.83469 3.10554,-1.83469l16.76911,2.91628c0,0 -2.32187,5.46387 -2.94776,6.73677c-0.27422,0.55759 -1.44942,1.0423 -1.44942,1.0423z" fill="#665b60" stroke-width="0"/><path d="M266.05292,203.44765c0,0 -3.44207,-2.23373 -8.07447,-4.27298c-2.94483,-1.29632 -7.03771,-2.63891 -8.88642,-2.87724c-5.37481,-0.69302 -8.78988,3.86139 -8.78988,3.86139c0,0 -2.79145,-2.87836 -4.70586,-4.1062c-1.7871,-1.1461 -5.88175,-2.93072 -5.88175,-2.93072c0,0 25.07691,-0.48661 28.96907,-0.34847c7.46156,0.26494 33.61551,5.55772 33.61551,5.55772l3.48984,15.18681z" fill="#8b7c84" stroke-width="0"/><g stroke-width="0"><path d="M312.08241,229.67627c0,0 0.94105,-2.46517 1.50905,-3.26921c0.58884,-0.83365 2.92897,-1.46643 2.92897,-1.46643l14.28209,2.67276c0,0 0.19887,1.03723 -0.16817,1.71915c-0.49909,0.92713 -3.73367,3.11691 -3.73367,3.11691z" fill="#585852"/><path d="M312.21952,228.94366c0,0 0.80393,-1.73261 1.37196,-2.53659c0.58884,-0.83365 3.06609,-2.19905 3.06609,-2.19905l14.28209,2.67277c0,0 0.06183,1.7699 -0.3053,2.45179c-0.49909,0.92713 -3.59656,2.38415 -3.59656,2.38415z" fill="#797971"/><path d="M329.11438,227.04343c-0.99826,-0.36786 -12.37257,-2.77259 -12.37257,-2.77259l14.26253,2.66916l-0.45287,2.41984c0,0 -0.43889,-1.94852 -1.43716,-2.31644z" fill="#85857b"/></g><path d="M316.83135,212.08148l0.95468,-5.10116l7.01421,1.31267l0.32064,5.33987z" fill="#7c6e75" stroke-width="0"/><path d="M311.44584,184.19131l-2.60966,-8.76081l1.35579,0.25376l4.42904,9.56076z" fill="#d495b6" stroke-width="0"/><path d="M274.51121,169.51767l13.56182,-0.60527l20.95386,6.57928l2.44609,8.69054z" fill="#df9cbe" stroke-width="0"/><path d="M316.06592,217.05308l0.29834,-1.59412l10.68061,1.99885l0.65816,1.77313z" fill="#7c6e75" stroke-width="0"/><path d="M278.42208,197.64303c0,0 -18.04462,-2.15778 -23.67324,-2.70226c-8.523,-0.82458 -25.72972,-1.67909 -25.72972,-1.67909c0,0 15.58419,-1.60123 29.14,-0.60674c14.69792,1.0783 58.26386,7.74874 58.26386,7.74874l-0.99503,5.31678z" fill="#75686e" stroke-width="0"/><path d="M270.00841,204.99116l-3.08288,-1.15767c0,0 10.04232,-0.54644 15.15048,1.1856c5.10811,1.73199 13.28649,8.45648 13.28649,8.45648z" fill="#7c6e76" stroke-width="0"/><path d="M225.08642,192.48407c0,0 -28.97286,-21.08585 -28.99931,-25.79118c-0.02395,-4.27412 28.88099,7.79364 29.19357,7.74205c5.46968,-0.90311 77.45318,5.22812 77.45318,5.22812l24.90575,11.56824l51.96664,9.14395l4.68634,14.68816c0,0 -60.7236,-10.17502 -84.11434,-14.38658c-8.11956,-1.46197 -24.54543,-5.19495 -39.79799,-6.88931c-11.7653,-1.30695 -29.94383,-0.31746 -29.94383,-0.31746z" fill="#ee96c3" stroke-width="0"/><path d="M95.85109,181.05937l6.97751,-19.19806c0,0 1.1978,-6.95243 8.74083,-7.87665c9.36858,-1.14782 25.64081,3.71348 27.67613,4.09435c1.56184,0.29234 -14.60347,7.86455 -14.60347,7.86455l-3.70736,19.81005z" fill="#c4b4b3" stroke-width="0"/><g stroke-width="0"><path d="M375.56987,214.83708l-0.02284,-15.41003l89.92953,23.71186l-1.81203,5.56863l-47.51271,-3.95031z" fill="#ad6d8e"/><path d="M404.10284,205.59168l8.67042,-6.79368l26.70945,2.83257l-6.145,9.43238z" fill="#8d788b"/><path d="M378.84788,202.0747l2.98653,-15.95826l31.00716,12.69859l-5.76413,5.90958z" fill="#857183"/><path d="M421.15364,206.61344l18.26728,-4.99318l26.6725,8.82981l-1.54935,6.7237z" fill="#947e92"/><path d="M374.86188,200.70961l5.19256,-12.01579l1.98571,-2.74534l-2.771,14.80678z" fill="#756474"/><path d="M377.41863,211.91282l1.51182,-11.99937l42.87802,6.34698l-4.15886,15.55748z" fill="#746373"/><path d="M417.64485,221.80133c0,0 1.53375,-6.12991 2.25233,-8.88898c0.6152,-2.36227 1.79716,-6.66053 1.79716,-6.66053l43.27856,9.02428l0.42068,8.62461z" fill="#867284"/><path d="M374.91462,200.64784l4.24044,-0.76393l-1.70833,12.04195z" fill="#6f5e6d"/><path d="M459.02106,209.01699l-18.86126,-6.95183l25.60225,8.49086l-1.00965,3.41805c0,0 -0.01954,-1.60017 -1.07759,-2.51529c-0.70777,-0.61214 -4.65381,-2.44183 -4.65381,-2.44183z" fill="#978195"/><path d="M419.62762,205.66689c0,0 8.47601,-1.93916 11.45587,-2.75911c2.17068,-0.59724 4.77791,-1.70764 4.77791,-1.70764l2.46989,0.57677l-16.10027,4.37718z" fill="#9c859a"/><path d="M405.34351,203.81598c0,0 1.8002,-2.46314 3.37586,-3.54207c1.57562,-1.07885 3.99446,-1.45557 3.99446,-1.45557l-4.95074,5.45037z" fill="#806b7d"/><path d="M441.29217,200.1944l3.15158,-5.24314l14.25386,6.46571l4.32718,7.32092z" fill="#55494f"/><path d="M438.28696,202.48069c0,0 1.20933,-0.57758 1.86772,-1.04928c0.49593,-0.35527 1.42686,-1.5897 1.42686,-1.5897l21.19714,8.03638c0,0 0.76162,0.64813 1.27793,1.07605c0.53963,0.44722 1.89275,1.552 1.89275,1.552z" fill="#685960"/><path d="M442.00793,199.42066l2.47371,-4.20201l13.29299,5.87234c0,0 -7.58813,-2.9794 -12.03956,-3.55338c-2.58211,-0.33299 -3.72704,1.88308 -3.72704,1.88308z" fill="#41383c"/></g><path d="M104.68814,142.75104l0.95811,-5.11944c0,0 22.19358,2.83587 43.76652,6.93111c12.8555,2.44037 25.89992,6.50699 32.76744,7.43606c15.48485,2.09475 26.60505,-0.41465 26.60505,-0.41465l-8.19025,9.29513z" fill="#ffa1d1" stroke-width="0"/><path d="M99.58665,155.99621l5.08191,-15.41075c0,0 53.48216,12.10525 71.10585,14.95508c10.43952,1.68814 24.89233,0.56848 24.89233,0.56848l-2.69353,14.39249c0,0 -66.34914,-12.41695 -82.34385,-15.41029c-6.57642,-1.23075 -20.98815,27.33044 -20.98815,27.33044z" fill="#ee96c3" stroke-width="0"/><path d="M261.66698,264.149l11.62271,-11.65678c0,0 12.66633,-13.7621 23.16867,-18.77852c2.66885,-1.27477 7.97025,-1.4999 7.97025,-1.4999c0,0 -8.09623,3.55648 -11.16029,5.82294c-7.23589,5.35243 -31.60123,26.11229 -31.60123,26.11229z" fill="#70646b" stroke-width="0"/><path d="M367.96462,218.07582l-2.88167,-18.85363l1.32709,0.24834c0,0 0.87272,5.70988 1.33384,8.72694c0.06573,0.42987 1.18275,1.88123 1.26418,2.41368c0.14108,0.923 -0.74155,1.0056 -0.58389,2.03724c0.43909,2.87267 0.8675,5.67566 0.8675,5.67566z" fill="#795467" stroke-width="0"/><path d="M198.51536,171.04237c0,0 -9.09784,-8.36872 -7.73568,-11.95427c0.8156,-2.14686 18.83354,-6.86502 18.83354,-6.86502l67.02536,14.24464l-2.17827,2.74223l28.17873,10.61303l-75.45938,12.91466c0,0 0.25481,-5.66352 4.32141,-7.81032c3.95222,-2.08637 19.74494,-4.8942 19.74494,-4.8942c0,0 -33.62446,-6.34249 -40.77506,-7.76887c-2.38561,-0.47586 -11.95572,-1.22189 -11.95572,-1.22189z" fill="#f399c8" stroke-width="0"/><g><path d="M207.49309,153.78387l0.59572,-3.1831l173.54079,32.47746l-0.59572,3.1831z" fill="#584f54" stroke-width="0"/><path d="M375.88649,182.25594l0.50332,-2.6896l3.00312,0.56201l2.14644,3.18552z" fill="#685d63" stroke-width="0"/><g fill="#685d63" stroke-width="0"><g><g><g><path d="M369.29429,181.27569l0.54763,-2.9262l3.81489,0.7139l-0.54763,2.9262z"/><path d="M363.10421,180.11734l0.54763,-2.9262l3.8149,0.71391l-0.54763,2.9262z"/></g><g><path d="M357.14773,179.00256l0.54762,-2.92621l3.8149,0.71391l-0.54763,2.9262z"/><path d="M350.95762,177.84413l0.54763,-2.9262l3.81489,0.71391l-0.54762,2.92621z"/></g></g><g><g><path d="M344.88439,176.70758l0.54762,-2.92621l3.81489,0.71391l-0.54763,2.9262z"/><path d="M338.69428,175.54913l0.54763,-2.9262l3.81489,0.7139l-0.54762,2.92621z"/></g><g><path d="M332.73778,174.43435l0.54763,-2.9262l3.81489,0.71391l-0.54763,2.9262z"/><path d="M326.54781,173.27594l0.54763,-2.9262l3.81487,0.71392l-0.54762,2.92621z"/></g></g></g><g><g><g><path d="M326.31422,173.23221l0.54763,-2.9262l3.81489,0.71391l-0.54763,2.9262z"/><path d="M320.12417,172.07378l0.54763,-2.9262l3.8149,0.71391l-0.54763,2.9262z"/></g><g><path d="M314.16769,170.95905l0.54762,-2.92621l3.81489,0.71391l-0.54763,2.9262z"/><path d="M307.97757,169.80056l0.54763,-2.9262l3.81487,0.71392l-0.54762,2.92621z"/></g></g><g><g><path d="M301.90436,168.66402l0.54762,-2.92621l3.8149,0.71391l-0.54763,2.9262z"/><path d="M295.71431,167.50555l0.54763,-2.9262l3.8149,0.71391l-0.54762,2.92621z"/></g><g><path d="M289.75784,166.39086l0.54763,-2.9262l3.81489,0.7139l-0.54762,2.92621z"/><path d="M283.56775,165.23238l0.54763,-2.9262l3.8149,0.71391l-0.54763,2.9262z"/></g></g></g></g><g><g fill="#685d63" stroke-width="0"><g><g><path d="M277.45475,164.08835l0.54762,-2.92621l3.8149,0.71391l-0.54763,2.9262z"/><path d="M271.26472,162.9299l0.54763,-2.9262l3.8149,0.71391l-0.54762,2.92621z"/></g><g><path d="M265.3082,161.81525l0.54763,-2.9262l3.8149,0.71391l-0.54762,2.92621z"/><path d="M259.1182,160.65676l0.54763,-2.9262l3.81489,0.7139l-0.54762,2.92621z"/></g></g><g><g><path d="M253.04492,159.52014l0.54762,-2.92621l3.8149,0.71391l-0.54763,2.9262z"/><path d="M246.85482,158.36167l0.54763,-2.9262l3.8149,0.71391l-0.54762,2.92621z"/></g><g><path d="M240.89829,157.24703l0.54763,-2.9262l3.8149,0.71391l-0.54762,2.92621z"/><path d="M234.70824,156.08857l0.54763,-2.9262l3.81489,0.7139l-0.54763,2.9262z"/></g></g></g><g><g fill="#685d63" stroke-width="0"><g><path d="M234.4747,156.04484l0.54762,-2.92621l3.8149,0.71391l-0.54763,2.9262z"/><path d="M228.28462,154.88636l0.54763,-2.9262l3.81489,0.7139l-0.54762,2.92621z"/></g><g><path d="M222.32816,153.77165l0.54763,-2.9262l3.81489,0.7139l-0.54762,2.92621z"/><path d="M216.13808,152.6132l0.54763,-2.9262l3.81489,0.7139l-0.54763,2.9262z"/></g></g><g fill="none" stroke-width="1" font-family="sans-serif" font-weight="normal" font-size="12" text-anchor="start"><g/><g/></g></g></g><path d="M208.11345,150.85794l3.15316,-2.19372l3.00312,0.56201l-0.50332,2.6896z" data-paper-data="{&quot;index&quot;:null}" fill="#685d63" stroke-width="0"/></g><path d="M258.00377,193.65205l-2.55798,-0.20398c0,0 2.12257,-2.21487 11.76143,-1.55828c7.3077,0.49779 27.76132,2.99138 39.99873,4.52286c5.68276,0.71118 62.87627,2.25648 62.87627,2.25648l5.11272,0.9423c0,0 -62.62065,-0.88964 -68.29497,-1.62289c-12.54748,-1.62137 -33.65174,-4.31228 -39.80188,-4.87469c-3.34783,-0.30616 -9.09434,0.5383 -9.09434,0.5383z" fill="#70475c" stroke-width="0"/><path d="M353.692,230.9177l-5.1793,0.90855l3.48317,-18.6082c0,0 7.64961,1.48084 15.13074,2.92903c21.47619,4.15741 124.69213,24.13822 124.69213,24.13822l-1.23747,6.61247z" fill="#5a5959" stroke-width="0"/><path d="M352.49295,232.35001l1.62527,-2.75408l136.49506,17.19645l-13.68668,8.84483z" fill="#4b4a4a" stroke-width="0"/><path d="M473.73173,254.84693c0,0 -5.21226,-4.25621 -7.93027,-6.21777c-1.45663,-1.05122 -7.11017,-4.63669 -7.11017,-4.63669c0,0 7.33076,4.32604 10.44391,5.8731c1.11103,0.55219 2.07886,1.48892 3.26346,2.24791c0.382,0.24469 2.68184,-2.13193 4.86377,-3.46774c0.65214,-0.39928 1.72552,0.17248 2.30281,-0.05603c1.32335,-0.52385 1.87704,-1.53064 1.87704,-1.53064c0,0 0.16073,0.97581 -1.26073,1.9446c-0.38779,0.26437 -2.22478,0.27903 -2.61099,0.57335c-1.54774,1.17969 -2.82659,2.56724 -3.2352,3.09219c-1.14044,1.46506 0.83484,2.44678 0.83484,2.44678z" fill="#414040" stroke-width="0"/><path d="M198.41253,171.32567l5.79172,-10.2076l7.0014,0.67514c0,0 -1.42159,2.42814 -2.25937,3.8592c-0.21104,0.36042 11.74169,0.60724 11.96423,1.33153c0.41294,1.34388 -5.75566,4.01457 -6.28258,4.9146c-0.60242,1.02891 -9.23114,-0.18323 -9.23114,-0.18323z" fill="#303030" stroke-width="0"/><path d="M198.3395,170.93551l5.53542,-9.40592c0,0 2.70903,1.83426 2.52784,2.80236c-0.32965,1.76161 -2.94631,7.15949 -2.94631,7.15949z" fill="#252525" stroke-width="0"/><path d="M348.00635,234.43331l0.5431,-2.90198l5.97264,-1.88593l-1.76009,2.67424c0,0 -1.31739,1.1119 -2.1538,1.48363c-0.73599,0.32714 -2.60183,0.62997 -2.60183,0.62997z" fill="#383838" stroke-width="0"/><g><g fill="#4b4b4b" stroke-width="0"><g data-paper-data="{&quot;origPos&quot;:null}"><g data-paper-data="{&quot;origPos&quot;:null}"><path d="M413.74968,248.13167l0.41806,-2.23396l3.68602,0.68982l-0.41806,2.23396z" data-paper-data="{&quot;origPos&quot;:null}"/><path d="M407.62721,246.87026l0.41806,-2.23396l3.68601,0.68982l-0.41807,2.23396z" data-paper-data="{&quot;origPos&quot;:null}"/></g><g data-paper-data="{&quot;origPos&quot;:null}"><path d="M426.01544,250.5428l0.41806,-2.23396l3.68602,0.68982l-0.41807,2.23396z" data-paper-data="{&quot;origPos&quot;:null}"/><path d="M419.89296,249.28137l0.41807,-2.23396l3.68601,0.68982l-0.41806,2.23396z" data-paper-data="{&quot;origPos&quot;:null}"/></g></g><g data-paper-data="{&quot;origPos&quot;:null,&quot;index&quot;:null}"><g data-paper-data="{&quot;origPos&quot;:null}"><path d="M444.93407,253.85214l0.41806,-2.23396l3.68602,0.68982l-0.41807,2.23396z" data-paper-data="{&quot;origPos&quot;:null}"/><path d="M451.09829,254.89009l0.41805,-2.23395l3.68602,0.68982l-0.41805,2.23394z" data-paper-data="{&quot;origPos&quot;:null}"/></g><g data-paper-data="{&quot;origPos&quot;:null}"><path d="M432.62651,251.66442l0.41806,-2.23396l3.68601,0.68982l-0.41805,2.23395z" data-paper-data="{&quot;origPos&quot;:null}"/><path d="M438.79076,252.70245l0.41807,-2.23396l3.68602,0.68982l-0.41807,2.23396z" data-paper-data="{&quot;origPos&quot;:null}"/></g></g></g><path d="M373.27362,232.16845l2.50381,-13.37889l83.03249,15.53915l-2.50381,13.37889z" data-paper-data="{&quot;origPos&quot;:null}" fill="#444444" stroke-width="0"/><path d="M372.50182,236.82825l0.87977,-4.70082l82.78844,15.49347l-0.87979,4.70083z" data-paper-data="{&quot;origPos&quot;:null}" fill="#414141" stroke-width="0"/><path d="M372.27405,238.23458l0.29758,-1.59006l82.77793,15.49151l-0.29757,1.59005z" data-paper-data="{&quot;origPos&quot;:null}" fill="#3f3f3f" stroke-width="0"/><g stroke-width="0"><g data-paper-data="{&quot;origPos&quot;:null}" fill="#5a5a5a"><g data-paper-data="{&quot;origPos&quot;:null}"><path d="M415.7923,240.20645l2.52934,-13.51534l3.51043,0.65697l-2.52934,13.51534z" data-paper-data="{&quot;origPos&quot;:null}"/></g><g data-paper-data="{&quot;origPos&quot;:null}"><path d="M421.76012,241.3233l2.52934,-13.51534l3.51045,0.65698l-2.52934,13.51534z" data-paper-data="{&quot;origPos&quot;:null}"/><path d="M427.90346,242.47298l2.52935,-13.51536l3.51043,0.65697l-2.52934,13.51534z" data-paper-data="{&quot;origPos&quot;:null}"/></g></g><g data-paper-data="{&quot;origPos&quot;:null}" fill="#5a5a5a"><g data-paper-data="{&quot;origPos&quot;:null}"><path d="M434.39786,243.68842l2.52934,-13.51534l3.51043,0.65697l-2.52934,13.51535z" data-paper-data="{&quot;origPos&quot;:null}"/><path d="M440.5412,244.83812l2.52934,-13.51534l3.51045,0.65698l-2.52935,13.51536z" data-paper-data="{&quot;origPos&quot;:null}"/></g><g data-paper-data="{&quot;origPos&quot;:null}"><path d="M446.509,245.95492l2.52935,-13.51536l3.51043,0.65697l-2.52935,13.51536z" data-paper-data="{&quot;origPos&quot;:null}"/><path d="M452.65237,247.10463l2.52935,-13.51536l3.51043,0.65697l-2.52934,13.51534z" data-paper-data="{&quot;origPos&quot;:null}"/></g></g><path d="M419.36307,240.87472l-1.21902,1.73637l-5.15985,-0.9218l1.66512,-9.65496l3.61445,-5.35416l-2.46156,13.52803z" fill="#3a3a3a"/><path d="M425.32848,241.99109l-1.21902,1.73638l-5.15986,-0.9218l1.66513,-9.65497l3.61446,-5.35414l-2.46155,13.52803z" fill="#3a3a3a"/><path d="M431.42944,243.1329l-1.21902,1.73638l-5.15986,-0.92179l1.66512,-9.65496l3.61446,-5.35414l-2.46156,13.52803z" fill="#3a3a3a"/><path d="M438.00497,244.36345l-1.21902,1.73638l-5.15986,-0.92179l1.66512,-9.65496l3.61446,-5.35414l-2.46156,13.52803z" fill="#3a3a3a"/><path d="M444.17376,245.51795l-1.21902,1.73638l-5.15986,-0.92179l1.66512,-9.65496l3.61446,-5.35414l-2.46155,13.52803z" fill="#3a3a3a"/><path d="M450.07136,246.6216l-1.21902,1.73637l-5.15985,-0.9218l1.66512,-9.65496l3.61446,-5.35414l-2.46156,13.52803z" fill="#3a3a3a"/><path d="M456.24789,247.7775l-1.21902,1.73637l-5.15986,-0.92179l1.66513,-9.65497l3.61445,-5.35416l-2.46156,13.52803z" fill="#3a3a3a"/></g><g stroke-width="0"><g data-paper-data="{&quot;origPos&quot;:null}" fill="#5a5a5a"><g data-paper-data="{&quot;origPos&quot;:null}"><path d="M373.30093,232.25434l2.52935,-13.51536l3.51045,0.65698l-2.52934,13.51534z" data-paper-data="{&quot;origPos&quot;:null}"/></g><g data-paper-data="{&quot;origPos&quot;:null}"><path d="M379.2687,233.37127l2.52934,-13.51534l3.51043,0.65697l-2.52934,13.51534z" data-paper-data="{&quot;origPos&quot;:null}"/><path d="M385.41208,234.52094l2.52934,-13.51534l3.51045,0.65698l-2.52935,13.51536z" data-paper-data="{&quot;origPos&quot;:null}"/></g></g><g data-paper-data="{&quot;origPos&quot;:null}" fill="#5a5a5a"><g data-paper-data="{&quot;origPos&quot;:null}"><path d="M391.90646,235.73628l2.52935,-13.51536l3.51044,0.65698l-2.52934,13.51534z" data-paper-data="{&quot;origPos&quot;:null}"/><path d="M398.04987,236.886l2.52934,-13.51534l3.51045,0.65698l-2.52935,13.51536z" data-paper-data="{&quot;origPos&quot;:null}"/></g><g data-paper-data="{&quot;origPos&quot;:null}"><path d="M404.01772,238.00286l2.52934,-13.51534l3.51045,0.65698l-2.52935,13.51536z" data-paper-data="{&quot;origPos&quot;:null}"/><path d="M410.16107,239.15262l2.52935,-13.51536l3.51045,0.65698l-2.52934,13.51535z" data-paper-data="{&quot;origPos&quot;:null}"/></g></g><path d="M376.87164,232.92262l-1.21902,1.73638l-2.69111,-0.45982l0.34925,-1.94304z" fill="#3a3a3a"/><path d="M382.83712,234.03904l-1.21902,1.73638l-5.15986,-0.92179l1.66513,-9.65497l3.61446,-5.35414l-2.46156,13.52803z" fill="#3a3a3a"/><path d="M388.93805,235.18078l-1.21902,1.73637l-5.15986,-0.92179l1.66512,-9.65496l3.61445,-5.35416l-2.46156,13.52803z" fill="#3a3a3a"/><path d="M395.51354,236.4113l-1.21902,1.73637l-5.15986,-0.92179l1.66513,-9.65497l3.61446,-5.35414l-2.46156,13.52803z" fill="#3a3a3a"/><path d="M401.68239,237.56582l-1.21902,1.73637l-5.15985,-0.9218l1.66512,-9.65496l3.61446,-5.35414l-2.46156,13.52803z" fill="#3a3a3a"/><path d="M407.57995,238.66954l-1.21902,1.73637l-5.15985,-0.9218l1.66512,-9.65496l3.61445,-5.35416l-2.46156,13.52803z" fill="#3a3a3a"/><path d="M413.75654,239.82552l-1.21902,1.73638l-5.15985,-0.9218l1.66512,-9.65496l3.61446,-5.35414l-2.46156,13.52803z" fill="#3a3a3a"/></g><g><g data-paper-data="{&quot;origPos&quot;:null}"><g data-paper-data="{&quot;origPos&quot;:null}" fill="none" stroke-width="1" font-family="sans-serif" font-weight="normal" font-size="12" text-anchor="start"/><g data-paper-data="{&quot;origPos&quot;:null}" fill="#4b4b4b" stroke-width="0"><path d="M378.09719,241.65337l0.41806,-2.23396l3.68601,0.68982l-0.41805,2.23395z" data-paper-data="{&quot;origPos&quot;:null}"/><path d="M371.97471,240.39201l0.41806,-2.23396l3.68601,0.68982l-0.41806,2.23396z" data-paper-data="{&quot;origPos&quot;:null}"/></g></g><g data-paper-data="{&quot;origPos&quot;:null,&quot;index&quot;:null}" fill="#4b4b4b" stroke-width="0"><g data-paper-data="{&quot;origPos&quot;:null}"><path d="M397.01587,244.96265l0.41807,-2.23396l3.68602,0.68982l-0.41807,2.23396z" data-paper-data="{&quot;origPos&quot;:null}"/><path d="M403.18006,246.00067l0.41805,-2.23394l3.68602,0.68982l-0.41807,2.23396z" data-paper-data="{&quot;origPos&quot;:null}"/></g><g data-paper-data="{&quot;origPos&quot;:null}"><path d="M384.70813,242.77496l0.41806,-2.23396l3.68602,0.68982l-0.41807,2.23396z" data-paper-data="{&quot;origPos&quot;:null}"/><path d="M390.87243,243.81293l0.41806,-2.23396l3.68602,0.68982l-0.41806,2.23396z" data-paper-data="{&quot;origPos&quot;:null}"/></g></g></g></g><path d="M211.16941,172.09144l1.7973,-3.95194c0,0 5.11132,-2.24561 8.60981,-1.74343c3.99946,0.57402 33.45236,6.11139 33.45236,6.11139c0,0 0.30566,1.9655 0.02979,3.1522c-0.35552,1.52895 -2.99921,4.15197 -2.99921,4.15197z" fill="#242424" stroke-width="0"/><path d="M236.33145,172.92422l0.5795,-3.09656l17.69461,3.31144l-0.5795,3.09656z" fill="#313131" stroke-width="0"/><path d="M232.7387,174.21602l0.11996,-0.64116c0,0 1.24296,-0.83678 2.24865,-0.64859c0.95492,0.17873 3.01819,1.04801 5.3982,1.65963c4.53386,1.16511 10.04755,2.30038 10.04755,2.30038l-0.11996,0.64116c0,0 -5.33528,-1.0005 -9.80523,-2.15317c-2.43897,-0.62894 -4.56383,-1.60541 -5.55441,-1.79078c-1.04122,-0.19486 -2.33467,0.63245 -2.33467,0.63245z" fill="#616161" stroke-width="0"/><path d="M262.29888,163.76441l11.91989,5.30992l29.34759,10.89254c0,0 0.67941,0.35525 -7.14702,-1.85036c-2.66242,-0.75028 -12.82322,-4.28883 -21.53864,-7.85571c-2.35825,-0.96516 -14.83188,-6.80012 -14.83188,-6.80012z" fill="#df8cb7" stroke-width="0"/><path d="M83.1362,136.68116l1.0914,-5.83185c0,0 5.99412,-0.66161 9.73301,0.03813c3.0609,0.57279 10.75368,5.57936 10.75368,5.57936l-2.38973,12.03656z" fill="#626061" stroke-width="0"/><path d="M195.37834,167.84592l3.27055,3.1616l12.28157,0.95228l49.879,9.33467l-0.20064,1.07238c0,0 -37.38986,-7.14513 -49.13845,-9.07704c-3.22556,-0.53039 -12.89201,-1.6061 -12.89201,-1.6061z" fill="#ffa6d4" stroke-width="0"/><path d="M68.54283,198.99029l1.31885,-7.04721l26.08704,-12.03689l-4.09426,13.13999l-15.49846,7.40639z" fill="#3f3d3e" stroke-width="0"/><path d="M67.87139,193.71657c0,0 3.79939,-19.28198 6.35418,-28.55359c2.88347,-10.46439 10.08032,-31.08859 10.08032,-31.08859c0,0 8.5024,1.39857 11.72055,3.67521c2.75434,1.94849 6.41446,9.15412 6.41446,9.15412l-6.17188,32.97899c0,0 -14.17424,11.28331 -17.58279,12.94374c-5.24284,2.55405 -10.81482,0.89012 -10.81482,0.89012z" fill="#555354" stroke-width="0"/><path d="M82.2081,144.46425c0,0 -0.41146,-6.17395 2.11558,-8.44507c2.52703,-2.27114 6.98944,-2.47057 9.50603,-1.9996c2.00759,0.37573 6.14765,1.23058 8.15179,6.14161c2.00421,4.91097 -1.1096,11.1141 -1.1096,11.1141c0,0 -4.2785,-11.38498 -6.713,-12.27344c-3.43533,-1.25363 -11.9508,5.46246 -11.9508,5.46246z" fill="#6f6b6c" stroke-width="0"/><path d="M65.54697,198.23802c0,0 6.47958,-25.30238 8.58466,-36.55094c2.19229,-11.71441 5.79286,-32.11872 5.79286,-32.11872c0,0 1.25471,-0.41932 2.2778,-0.22781c0.93546,0.17506 2.35733,1.09528 2.35733,1.09528c0,0 -3.73438,18.78892 -5.70161,29.30126c-2.28571,12.21342 -9.93977,39.13177 -9.93977,39.13177z" fill="#333232" stroke-width="0"/><path d="M65.04193,198.59487l3.78113,-14.25594c0,0 0.87367,1.0678 1.46995,1.14009c0.75295,0.09129 2.66579,-1.01327 2.66579,-1.01327l-4.01552,14.85927z" fill="#2e2d2d" stroke-width="0"/><path d="M97.03452,167.69276c-1.50192,8.02527 -7.15021,15.78668 -11.97951,17.86114c-4.01085,1.72295 -12.62468,6.98607 -11.12274,-1.03919c0.31859,-1.70252 4.51305,-13.00314 5.93247,-19.88941c1.87711,-9.10691 1.17573,-14.30557 2.63807,-16.9127c2.64423,-4.71406 8.3454,-5.1523 10.52214,-4.7449c4.2908,0.80301 5.51155,16.6998 4.00961,24.7251z" fill="#585758" stroke-width="0"/><path d="M128.31756,187.87475l-0.26226,-1.82006c0,0 8.05267,0.13302 14.05701,0.76413c8.45276,0.88849 31.8757,4.06396 31.8757,4.06396l1.52964,1.58972c0,0 -24.98021,-3.02642 -33.68649,-3.87452c-2.55691,-0.24908 -13.51356,-0.72325 -13.51356,-0.72325z" fill="#585657" stroke-width="0"/><path d="M120.09954,199.7665l7.61972,-12.50306l7.29359,0.39779c0,0 -2.50189,3.92016 -2.55601,4.67831c-0.25848,3.62261 -1.72152,27.73191 -1.72152,27.73191c0,0 -1.53324,0.1611 -2.35737,-1.90123c-1.47864,-3.70045 -2.02055,-10.78299 -3.35595,-13.17205c-1.15377,-2.06418 -4.92259,-5.23164 -4.92259,-5.23164z" fill="#5a5759" stroke-width="0"/><path d="M138.0816,171.79292l4.92442,-10.60844l2.31392,0.31998l-6.05744,10.62259z" fill="#a5a0a2" stroke-width="0"/><path d="M144.95473,171.9769l0.25804,-1.37877l26.04409,4.87401l-0.25803,1.37877z" fill="#494748" stroke-width="0"/><path d="M145.4221,169.04147l0.25804,-1.37877l26.04409,4.87401l-0.25804,1.37877z" fill="#494748" stroke-width="0"/><path d="M122.19833,187.49197l3.70448,-19.79467l13.80729,-7.19924l4.81926,0.58477l-23.87367,39.08894l-5.14695,-3.0014z" fill="#dbd5d8" stroke-width="0"/><path d="M93.96026,194.32863l2.01376,-11.61869l26.3449,4.12714c0,0 -0.1422,2.55519 -0.41702,3.31614c-0.68509,1.89682 -3.93437,8.34698 -3.93437,8.34698z" fill="#ccc6c9" stroke-width="0"/><path d="M99.78073,183.82976l0.0581,-0.31043l22.58738,3.34361l-2.77882,0.68482c0,0 -4.28212,-0.61197 -6.93878,-1.14143c-3.63767,-0.72501 -12.92793,-2.57653 -12.92793,-2.57653z" fill="#d8d1d5" stroke-width="0"/><path d="M103.92362,180.80338l3.12721,-16.70985l15.84984,2.96623l-3.12721,16.70985z" fill="#a39999" stroke-width="0"/><path d="M93.65724,194.44463l2.08959,-11.16552c0,0 7.51126,7.90325 11.29419,10.99241c3.78295,3.08923 10.22475,4.0099 10.22475,4.0099z" fill="#b4afb1" stroke-width="0"/><path d="M125.61478,206.57294c0,0 2.78635,1.58002 3.89018,1.6404c0.67809,0.03705 2.10301,-1.31279 2.10301,-1.31279l-0.03884,9.22345l-0.77168,4.12355c0,0 -1.96716,-0.05129 -2.74936,-2.82515c-0.64535,-2.28859 -2.43341,-10.84944 -2.43341,-10.84944z" fill="#504e4f" stroke-width="0"/><path d="M120.29648,200.36934l21.89358,-38.37096l1.67613,0.52237l-21.86826,38.79316z" fill="#858183" stroke-width="0"/><path d="M111.24466,157.21172l1.79247,-1.34374c0,0 27.06623,4.41024 39.26474,6.69315c10.58749,1.98142 31.3349,6.22331 31.3349,6.22331l0.16335,2.00566c0,0 -20.80401,-4.61164 -31.96386,-6.70011c-12.74316,-2.38479 -40.59158,-6.87831 -40.59158,-6.87831z" fill="#918b8e" stroke-width="0"/><path d="M112.47197,156.18934l2.34645,-1.53597c0,0 25.51149,4.41525 37.70999,6.69812c10.5875,1.98144 31.3349,6.22331 31.3349,6.22331l0.16335,2.00567c0,0 -20.804,-4.61163 -31.96385,-6.70012c-12.74316,-2.38479 -39.59082,-6.69109 -39.59082,-6.69109z" fill="#a59fa2" stroke-width="0"/><path d="M172.15446,188.50555l-0.84734,-5.93988c0,0 0.42972,-1.1455 0.77769,-1.19517c0.30663,-0.04379 1.20218,0.9127 1.20218,0.9127l0.84733,5.93989c0,0 -0.43287,0.8118 -0.74022,0.8557c-0.34768,0.04959 -1.23972,-0.57323 -1.23972,-0.57323z" fill="#494242" stroke-width="0"/><path d="M132.07991,183.70041l5.22728,-8.67211l3.81938,0.7148l-5.22728,8.67211z" fill="#9c989a" stroke-width="0"/><path d="M144.75386,167.98755l1.99719,-0.61097l24.01847,4.5133l1.80887,1.30492z" fill="#757274" stroke-width="0"/><path d="M144.32945,170.76816l1.99717,-0.61099l24.01847,4.51332l1.80888,1.30491z" fill="#757274" stroke-width="0"/><path d="M91.45867,193.03314l12.37603,-56.85128l1.78072,0.92402l-11.91365,57.34594z" fill="#686666" stroke-width="0"/><path d="M91.24838,193.26876l3.63371,-15.85794l1.54956,4.17474l-2.87729,13.00266z" fill="#535252" stroke-width="0"/><path d="M125.67745,176.44023c0,0 2.51924,-1.91468 2.69343,-2.84533c0.17092,-0.91325 -1.65802,-2.68732 -1.65802,-2.68732c0,0 2.82764,1.21048 2.41461,2.85083c-0.3146,1.24942 -1.7499,3.20784 -2.03857,4.2753c-0.82083,3.03524 -2.84924,10.13058 -2.84924,10.13058z" fill="#c4bec1" stroke-width="0"/><path d="M133.57408,175.9732l3.75444,-9.66981l3.30633,-3.81108l-4.368,8.90668z" fill="#aca7a9" stroke-width="0"/></g></g><g stroke-width="0"><path d="M254.73773,170.33478l3.12376,-2.80242c0,0 2.04079,-1.07931 2.8011,-0.65726c0.86687,0.48121 2.1224,3.39033 2.1224,3.39033l-1.28362,3.91259c0,0 -4.20678,-0.795 -5.42693,-1.15892c-0.55005,-0.16409 -1.33671,-2.68439 -1.33671,-2.68439z" fill="#c0c0c0"/><path d="M210.77589,171.92623c0,0 0.35634,-2.86329 1.60688,-3.7879c1.56723,-1.15873 7.95029,-2.21478 7.95029,-2.21478l-1.56983,4.52552l-0.53738,2.87139z" fill="#838383"/><path d="M210.6203,171.82146l9.34261,-5.86275l36.92134,6.90966l-1.37622,7.3536z" fill="#999999"/><path d="M211.72302,171.35996l7.12909,-4.60834l33.19596,6.21247l-1.07442,5.74145c0,0 -4.01784,-0.75186 -9.18633,-1.71912c-3.36033,-0.6289 -7.01172,-2.39265 -10.55682,-3.05614c-3.80304,-0.71173 -7.45436,-0.31464 -9.59047,-0.71437c-4.18055,-0.78238 -9.91704,-1.85597 -9.91704,-1.85597z" fill="#d952b3"/><path d="M215.15608,172.00023l9.31196,-4.26303l12.25142,2.29276c0,0 -7.60108,0.51795 -10.09888,0.98095c-2.6518,0.49144 -6.19741,1.97504 -6.19741,1.97504z" fill="#a5899d"/><path d="M223.02961,173.35904c0,0 5.17721,-0.02008 7.59235,0.43187c3.08599,0.5775 9.40933,2.74995 9.40933,2.74995l-9.42765,-2.10534z" fill="#adadad"/><path d="M210.72649,171.82278l8.43677,-5.28997l34.36999,6.4322l-0.12664,0.67685c0,0 -29.76017,-5.56947 -33.63937,-6.29551c-0.8114,-0.15183 -9.04061,4.47641 -9.04061,4.47641z" fill="#8a8a8a"/><path d="M255.94178,186.62875l1.79457,-9.58882l1.96446,-6.95931c0,0 1.08052,0.68029 1.52127,1.33605c0.4408,0.65576 0.6102,1.83492 0.6102,1.83492l-3.91183,13.74754z" fill="#9e9e9e"/><path d="M251.36146,181.46732c0,0 -0.50532,-2.25636 -0.34738,-3.84354c0.21269,-2.13728 2.06872,-7.40391 2.06872,-7.40391l1.96815,0.0373c0,0 0.60026,0.91785 1.09742,0.85917c0.6854,-0.08093 2.6349,-1.29982 2.6349,-1.29982l-2.85184,12.50612z" fill="#9c9c9c"/><path d="M251.58886,183.37232c-0.56586,-1.22947 -0.07695,-2.53498 -0.07695,-2.53498l6.11897,-6.18025c0,0 0.65545,4.07384 0.48684,4.97465c-0.4793,2.56108 -0.3637,7.41485 -0.3637,7.41485c0,0 -2.94463,-0.4659 -3.88509,-1.08812c-1.12795,-0.74633 -1.71413,-1.35668 -2.28002,-2.58624z" fill="#888888"/><path d="M253.48161,182.93891c-0.60355,-2.14738 -0.7758,-6.72018 1.78475,-10.37838c2.56059,-3.65824 4.54167,-1.11926 4.54167,-1.11926c0,0 0.17572,4.53268 -0.24975,6.8061c-0.38754,2.0709 -2.1999,6.28353 -2.1999,6.28353c0,0 -3.27321,0.55544 -3.87673,-1.59194z" fill="#b4b4b4"/><path d="M258.98793,176.1405c-0.25955,1.38699 -5.29653,0.52308 -5.03703,-0.86389c0.25955,-1.38699 4.25988,-6.13433 5.05837,-5.98487c0.30929,0.05789 0.9234,0.27641 0.92144,1.35518c-0.00317,1.70657 -0.78384,4.64378 -0.94286,5.49359z" fill="#bbbbbb"/></g><g stroke-width="0"><path d="M195.28642,167.81327c0,0 -4.85204,-5.91072 -4.50746,-7.75221c0.28139,-1.50356 6.23723,-0.51419 6.23723,-0.51419l7.40326,1.45858l-5.93828,9.85478z" fill="#f399c8"/><path d="M164.97922,163.81161c0,0 -0.56762,-2.24046 -0.11742,-3.2476c0.49681,-1.11139 3.18511,-4.2758 3.18511,-4.2758l22.67916,4.05548l7.3842,10.15479z" fill="#ee96c3"/></g></g><g stroke-width="0"><g><path d="M262.46656,161.98816l1.13711,-6.07625l47.0022,8.79625l-1.13711,6.07625z" fill="#61585b"/><path d="M262.90278,158.76997l0.60898,-3.25387l47.18086,8.8297l-0.60895,3.25388c0,0 -8.49346,-1.58953 -17.21831,-3.22235c-2.72789,-0.51049 -6.84216,0.26309 -9.3628,-0.20869c-2.99737,-0.56096 -5.93287,-2.65387 -7.85551,-3.01373c-5.76521,-1.07895 -12.74426,-2.38507 -12.74426,-2.38507z" fill="#494344"/><path d="M324.89005,163.65076l-5.69132,-20.32678l20.56228,3.84814l12.07957,19.32619c0,0 -5.86314,0.28774 -9.08752,-0.0529c-4.97552,-0.52572 -17.86302,-2.79462 -17.86302,-2.79462z" fill="#5e555b"/><path d="M324.2603,167.02763l1.01883,-5.44399c0,0 12.35589,0.83398 17.308,0.9676c3.93007,0.10602 6.79495,0.05006 6.79495,0.05006l4.56162,7.91289c0,0 -5.53501,0.58798 -9.69377,0.26131c-5.63489,-0.44264 -19.98955,-3.74787 -19.98955,-3.74787z" fill="url(#color-5)"/><path d="M317.50359,143.16832l0.73508,-3.92797l18.82469,3.52298l2.83926,4.59689z" fill="url(#color-6)"/><path d="M323.68183,166.94474l0.23168,-1.23777c0,0 15.35738,2.79633 20.68278,3.6225c3.98205,0.61777 8.61722,-0.11904 8.61722,-0.11904l0.66316,1.28874l-8.46096,0.51287z" fill="#312c30"/><g><path d="M226.33616,137.94224l1.40694,-8.74885l92.32248,17.27776l5.43484,12.4948z" fill="#8a6672"/><path d="M241.06902,149.12896c0,0 -2.79617,-4.19171 -5.28413,-6.14424c-2.48796,-1.95259 -9.47237,-3.01815 -9.47237,-3.01815l0.49418,-2.03083c0,0 12.06217,2.53856 18.95398,3.92525c16.46372,3.31249 79.40121,15.86382 79.40121,15.86382l2.35334,7.12141z" fill="#755761"/><path d="M243.41067,152.1013l-2.49704,-3.10408l86.18174,15.63067l0.61814,3.25026z" fill="#694e57"/><path d="M227.50829,129.55245l0.83313,-4.4517l89.38155,16.03624l2.74259,6.27275c0,0 2.09412,3.78791 -3.09729,2.79062c-1.63427,-0.31394 -9.97985,-5.30275 -11.61825,-5.6175c-15.77843,-3.03103 -78.24174,-15.03044 -78.24174,-15.03044z" fill="#916b77"/><path d="M228.5791,125.14535l0.34756,-2.50326l88.40002,16.40258l0.58727,2.54372z" fill="#9e7582"/><path d="M301.31415,139.45321c-7.811,-2.12096 -71.18141,-15.03073 -71.18141,-15.03073l86.35481,16.16091l3.35004,8.19732c0,0 -10.71249,-7.20656 -18.52348,-9.32754z" fill="#b38f9a"/></g><path d="M273.75621,157.77749l1.68757,-9.01722l19.86729,3.71808l-1.68758,9.01724z" fill="#3a3336"/><path d="M275.35668,148.74817l0.98431,-1.36476l18.22207,3.41016l0.68826,1.6777z" fill="#4b4246"/><path d="M273.98583,157.31243l1.50431,-8.03807c0,0 0.07238,5.37082 2.48143,6.94713c2.4091,1.57632 15.32635,4.70506 15.32635,4.70506z" fill="#332c30"/><path d="M318.32888,145.58519l-2.74935,-6.61869c0,0 1.1281,-0.46712 1.71845,-0.35663c0.65998,0.12354 2.05595,1.06299 2.05595,1.06299l2.74935,6.61869z" fill="#757575"/><path d="M320.42682,150.79458l-3.95389,-9.50175l3.77447,0.70639l3.95388,9.50174z" fill="#5a5a5a"/><path d="M323.41299,157.91437l-3.95388,-9.50174l3.77447,0.7064l3.95389,9.50175z" fill="#505050"/><path d="M326.49838,165.28748c-0.67529,-1.62289 -3.31026,-7.95511 -3.31026,-7.95511l3.77447,0.70641l4.60144,11.36694c0,0 -2.11922,0.14818 -3.04975,-0.04103c-0.72588,-0.14758 -1.71804,-3.36163 -2.01578,-4.07723z" fill="#3b3b3b"/><path d="M224.3424,140.21234l3.43529,-18.35605l3.12672,0.5852l-3.43529,18.35605z" fill="#443e42"/><path d="M205.49427,138.31175l0.4164,-5.95301l19.88338,3.72109l-1.09047,5.82684z" fill="url(#color-7)"/><path d="M205.79472,132.9786l1.99532,-10.6619l19.88338,3.72109l-1.99533,10.66191z" fill="#5e555b"/><path d="M207.7668,122.44087l1.55197,-3.94402l19.097,3.57388l-0.76567,4.09114z" fill="url(#color-8)"/><path d="M277.59713,131.4755l1.12823,-6.02863l14.56967,3.81181l3.67674,5.48099z" fill="#5e555b"/><path d="M296.90629,135.08915l-3.62769,-5.74311c0,0 2.83767,1.23366 4.84426,2.62479c2.00658,1.39115 5.16156,4.31194 5.16156,4.31194z" fill="#776b73"/><path d="M274.41382,132.05536l3.37435,-0.63454l25.21222,4.44707l3.30425,2.15574z" fill="#6d6269"/></g><g><path d="M275.90836,154.14125c0.22972,-1.22754 0.94409,-2.27063 1.51551,-3.21113c0.79617,-1.31063 1.60691,-2.36732 3.03423,-2.96099c0.87182,-0.3627 2.06135,-0.5362 3.07762,-0.59058c0.67218,-0.03595 1.72788,-0.24543 2.4189,-0.11605c1.5665,0.29314 1.8879,0.43649 2.92679,1.13554c0.62582,0.42112 2.15468,1.16412 2.55685,1.92319c0.34041,0.64245 0.63357,1.66235 0.84446,2.39319c0.3603,1.24908 0.80605,3.22939 0.55064,4.59432c-0.10793,0.57681 -0.83773,1.80194 -0.98139,2.29948c-0.45598,1.57958 -0.55046,2.08029 -1.94625,2.94171c-0.84835,0.52355 -2.43062,0.78483 -3.47306,1.00678c-1.07956,0.22997 -2.49293,0.84655 -3.64555,0.63082c-0.778,-0.14564 -2.08331,-0.93415 -2.81191,-1.20907c-1.58086,-0.59646 -2.42559,-0.932 -3.22777,-2.24213c-0.68789,-1.12346 -0.6501,-2.74244 -0.75836,-4.14389c-0.05686,-0.73624 -0.22299,-1.69079 -0.08073,-2.45122z" fill="#3a3a3a"/><path d="M276.64875,154.15907c0.21028,-1.12334 0.86399,-2.07781 1.38684,-2.93845c0.72857,-1.19929 1.47041,-2.16625 2.77657,-2.70963c0.7978,-0.3319 1.88642,-0.4907 2.81634,-0.54041c0.61513,-0.03288 1.58121,-0.22452 2.21348,-0.10622c1.43357,0.26826 1.72768,0.39942 2.67833,1.03905c0.57264,0.38534 1.97168,1.06531 2.33982,1.75988c0.3115,0.58793 0.57984,1.52124 0.77274,2.19c0.32972,1.14302 0.73763,2.95518 0.50391,4.20418c-0.09882,0.52786 -0.76662,1.64897 -0.89803,2.10421c-0.41731,1.44541 -0.50373,1.90369 -1.78096,2.69192c-0.77627,0.47913 -2.22425,0.71809 -3.17816,0.92131c-0.98788,0.21044 -2.28127,0.77464 -3.33607,0.57727c-0.71196,-0.13322 -1.90641,-0.85482 -2.57321,-1.10637c-1.44664,-0.54583 -2.21964,-0.85289 -2.95378,-2.05174c-0.6295,-1.02806 -0.59486,-2.5096 -0.69397,-3.79204c-0.05202,-0.67376 -0.20406,-1.54719 -0.07382,-2.24306z" fill="#5a5a5a"/><path d="M289.46581,151.94976c-1.57118,-2.7212 -6.54085,-3.85534 -6.54085,-3.85534c0,0 2.00845,-0.17352 3.96342,0.19938c1.58356,0.30208 3.06206,0.94956 3.9625,2.44163c0.90115,1.49333 1.01518,3.02516 1.04046,4.44957c0.04946,2.79274 -0.82109,5.06418 -0.82109,5.06418c0,0 -0.03322,-5.57816 -1.60442,-8.29935z" fill="#6d6d6d"/><path d="M283.30663,155.90309c0.1059,-0.56595 0.65042,-0.93879 1.21636,-0.83285c0.56595,0.1059 0.93879,0.65042 0.83285,1.21637c-0.1059,0.56595 -0.65042,0.93879 -1.21637,0.83285c-0.56595,-0.1059 -0.93879,-0.65042 -0.83285,-1.21637z" fill="#272727"/><path d="M283.20374,156.02304c0.09713,-0.51903 0.59661,-0.86103 1.11563,-0.76392c0.51903,0.09713 0.86103,0.59661 0.76392,1.11563c-0.09713,0.51903 -0.59661,0.86103 -1.11562,0.76394c-0.51903,-0.09713 -0.86103,-0.59661 -0.76394,-1.11562z" fill="#131313"/></g></g></g></g></g><path d="M175.63868,247.68847c0.29149,-1.55762 3.94684,-44.23952 4.74187,-45.79502c1.07347,-2.10016 9.16144,0.78757 12.35233,-0.14922c9.77277,-2.86914 20.26211,-5.57287 20.26211,-5.57287c0,0 13.72148,3.15843 17.88568,3.93779c3.11409,0.58284 64.94832,3.5171 63.7784,13.79887c-1.58686,13.94599 -42.21616,-5.57941 -44.44769,6.3442c-0.56493,3.01852 1.76774,3.65391 0.63276,6.64343c-0.27242,0.71747 -3.53667,5.3754 -4.06548,6.98154c-0.83951,2.54965 1.66317,7.09003 -2.16058,9.52743c-3.04806,1.94301 -2.07202,7.22964 -2.92343,8.30703c-5.86768,7.42425 -13.35459,2.15266 -22.21364,0.49472c-10.50374,-1.96572 -26.47334,-1.16638 -35.46923,-4.10872c-3.88314,-1.27009 -9.22159,4.1248 -8.37306,-0.40923z" fill="#86c8f5" stroke-width="0"/></g></g></svg>