<svg version="1.1" xmlns="http://www.w3.org/2000/svg" xmlns:xlink="http://www.w3.org/1999/xlink" width="463.31707" height="184.63801" viewBox="0,0,463.31707,184.63801"><defs><linearGradient x1="453.29942" y1="153.05781" x2="454.22567" y2="157.77944" gradientUnits="userSpaceOnUse" id="color-1"><stop offset="0" stop-color="#1f1d20"/><stop offset="1" stop-color="#202022"/></linearGradient><linearGradient x1="452.79619" y1="148.20894" x2="453.86188" y2="153.64161" gradientUnits="userSpaceOnUse" id="color-2"><stop offset="0" stop-color="#302d31"/><stop offset="1" stop-color="#1f1e20"/></linearGradient><linearGradient x1="133.52643" y1="259.82522" x2="134.17896" y2="263.15183" gradientUnits="userSpaceOnUse" id="color-3"><stop offset="0" stop-color="#585758"/><stop offset="1" stop-color="#575758"/></linearGradient><linearGradient x1="122.59853" y1="272.23949" x2="123.11085" y2="274.85108" gradientUnits="userSpaceOnUse" id="color-4"><stop offset="0" stop-color="#363536"/><stop offset="1" stop-color="#353536"/></linearGradient><linearGradient x1="245.4196" y1="153.57581" x2="246.48576" y2="159.01065" gradientUnits="userSpaceOnUse" id="color-5"><stop offset="0" stop-color="#5e555b"/><stop offset="1" stop-color="#2b2629"/></linearGradient><linearGradient x1="231.86619" y1="135.17368" x2="232.63542" y2="139.09513" gradientUnits="userSpaceOnUse" id="color-6"><stop offset="0" stop-color="#72676e"/><stop offset="1" stop-color="#5e555b"/></linearGradient><linearGradient x1="123.69756" y1="170.55645" x2="124.83865" y2="176.3736" gradientUnits="userSpaceOnUse" id="color-7"><stop offset="0" stop-color="#5e555b"/><stop offset="1" stop-color="#4d454a"/></linearGradient><linearGradient x1="120.95402" y1="156.57071" x2="121.75522" y2="160.65513" gradientUnits="userSpaceOnUse" id="color-8"><stop offset="0" stop-color="#74686f"/><stop offset="1" stop-color="#5e555b"/></linearGradient></defs><g transform="translate(4.31826,-133.68035)"><g data-paper-data="{&quot;isPaintingLayer&quot;:true}" fill-rule="nonzero" stroke="none" stroke-linecap="butt" stroke-linejoin="miter" stroke-miterlimit="10" stroke-dasharray="" stroke-dashoffset="0" style="mix-blend-mode: normal"><g><g><path d="M376.73945,195.79652c1.7288,8.49949 -2.23488,14.59642 -21.99075,18.61478c-7.32788,1.4905 -20.26069,2.5157 -25.86674,4.37527c-4.16643,1.38205 -7.35865,4.29075 -10.43239,2.99184c-3.94049,-1.66518 -7.77768,-21.14229 -8.38864,-24.14603c-1.7288,-8.49949 8.02124,-5.93128 27.7771,-9.94965c19.75587,-4.01837 37.17263,-0.38569 38.90144,8.1138z" fill="#86c8f5" stroke-width="0"/><g><g stroke-width="0"><path d="M190.88017,233.2971l-12.99279,-13.089l24.98352,-5.50238c0,0 0.04412,5.93124 0.36741,8.61782c0.31274,2.59878 1.54181,7.24689 1.54181,7.24689z" fill="#7f7d7e"/><path d="M191.01462,233.47124l-4.65082,-4.80145c0,0 2.99879,3.03456 6.29273,3.01482c2.37194,-0.01423 4.16318,-0.68143 6.85623,-0.88279c2.69305,-0.20137 5.20878,-0.01935 5.20878,-0.01935z" fill="#6c6a6b"/></g><g><g><g><path d="M451.29051,158.35522l-2.94671,-4.32525c0,0 6.19855,0.4735 8.91924,0.84967c2.72069,0.37618 1.42967,1.7872 1.42967,1.7872z" fill="url(#color-1)" stroke-width="0"/><path d="M456.35212,147.71478c0,0 1.90004,1.9994 -0.47685,3.37559c-2.37692,1.37619 -4.99024,3.13517 -4.99024,3.13517l-2.0182,-5.24584z" data-paper-data="{&quot;index&quot;:null}" fill="url(#color-2)" stroke-width="0"/><path d="M441.85162,160.20211l-0.40389,-2.05911l14.4963,-2.84368c0,0 1.38696,0.53737 1.93616,0.80288c0.49371,0.23868 -0.54093,1.0618 -0.54093,1.0618z" fill="#444444" stroke-width="NaN"/><path d="M441.50836,158.27727l-1.50602,-1.4919l12.37972,-2.42848l3.64661,0.95804c0,0 -4.09314,1.04547 -6.35152,1.5062c-2.54697,0.51959 -8.16882,1.45612 -8.16882,1.45612z" fill="#535353" stroke-width="0"/><path d="M439.91866,156.94113l-0.44187,-0.56551l11.25918,-2.20867l1.75513,0.19145z" fill="#363636" stroke-width="0"/><path d="M441.85162,160.20211l-0.21913,-1.11707c0,0 6.42024,-0.79716 9.24615,-1.35155c2.39469,-0.46977 6.63096,-1.76303 6.63096,-1.76303c0,0 0.93693,0.28726 1.21869,0.43873c0.2377,0.12778 -0.15293,0.51229 -0.15293,0.51229c0,0 -4.56637,1.30792 -6.83685,1.75335c-3.06317,0.60088 -9.88692,1.52726 -9.88692,1.52726z" fill="#3a3a3a" stroke-width="NaN"/><path d="M439.79518,156.33177l-0.71328,-0.76061l13.38648,-2.626l-1.6109,1.25115z" fill="#242424" stroke-width="0"/><path d="M438.32542,155.91236l-0.31846,-1.62337c0,0 7.90228,-1.76032 10.842,-2.33698c2.00285,-0.39285 5.09085,-0.78852 5.09085,-0.78852l-1.49304,1.8106z" fill="#3a3a3a" stroke-width="0"/><path d="M437.88798,154.3557l-0.39317,-2.00435c0,0 7.44664,-1.79696 10.69893,-2.43493c2.81433,-0.55207 7.69167,-1.17264 7.69167,-1.17264l-1.97979,2.46986c0,0 -3.60245,0.62267 -5.80485,1.05468c-2.92757,0.5743 -10.21277,2.08744 -10.21277,2.08744z" fill="#444444" stroke-width="0"/><path d="M437.46885,152.44311l-0.16382,-0.83513c0,0 7.70273,-1.63712 11.2327,-2.32954c2.45796,-0.48216 7.9206,-1.42772 7.9206,-1.42772l-0.68503,1.00165c0,0 -5.01505,0.68962 -7.9248,1.26042c-3.20581,0.62886 -10.37966,2.33031 -10.37966,2.33031z" fill="#535353" stroke-width="0"/><path d="M437.19427,151.71648l-0.06552,-0.33408c0,0 7.43515,-1.97521 10.83078,-2.64132c2.93581,-0.57589 8.36492,-1.12419 8.36492,-1.12419l0.10243,0.32683c0,0 -5.92825,0.99484 -9.11261,1.61948c-3.22599,0.63281 -10.11995,2.1533 -10.11995,2.1533z" fill="#4e4e4e" stroke-width="0"/></g><g stroke-width="0"><g><g><g><path d="M436.01338,160.85007l-7.03008,-12.03547l0.21132,-1.79561c0,0 4.03144,2.49995 5.41592,4.76618c0.75165,1.23034 2.83015,8.78487 2.83015,8.78487z" fill="#383638"/><path d="M436.91178,159.96925c0,0 -0.06007,-0.60951 -1.14952,-2.89749c-1.18806,-2.49512 -3.25463,-5.79611 -3.84714,-6.7743c-1.33005,-2.19575 -2.09594,-2.17849 -2.09594,-2.17849l4.59819,-1.4949l7.49006,12.3652z" fill="#555355"/><path d="M429.89848,148.19042l-0.80893,-1.10123c0,0 1.82841,-1.17394 2.77206,-1.35905c0.88424,-0.17346 2.13827,0.3217 2.13827,0.3217l0.82289,1.17261z" fill="#686668"/></g><path d="M430.44676,161.94206l-7.03007,-12.03545l-0.10944,-1.71215c0,0 4.35221,2.41645 5.73667,4.68271c0.75164,1.23033 2.83016,8.78487 2.83016,8.78487z" fill="#383638"/><path d="M431.34515,161.06122c0,0 -0.06008,-0.60952 -1.14951,-2.8975c-1.18806,-2.49512 -3.25462,-5.79611 -3.84713,-6.7743c-1.33005,-2.19575 -2.09595,-2.17849 -2.09595,-2.17849l3.76601,-1.84119c0,0 1.24838,1.03328 1.65376,1.70252c1.15503,1.90677 6.66855,11.00891 6.66855,11.00891z" fill="#555355"/><path d="M424.33182,149.28236l-1.02306,-1.05924c0,0 2.04252,-1.21593 2.98616,-1.401c0.88424,-0.17346 1.85278,0.37765 1.85278,0.37765l0.94561,1.14853z" fill="#686668"/><path d="M437.52354,158.83655c-0.15776,-0.80419 0.36628,-1.58398 1.17049,-1.7418c0.80421,-0.15776 1.58398,0.36628 1.74179,1.17049c0.15776,0.80419 -0.36627,1.58399 -1.17047,1.7418c-0.80421,0.15776 -1.58397,-0.36629 -1.7418,-1.17048z" fill="#312f31"/><path d="M437.60302,155.83583l-3.02969,-5.05792l1.534,-0.447l3.0421,5.12122z" fill="#444144"/></g><path d="M390.89384,164.63989l-5.77778,-9.89643l29.54995,-4.59779l1.39527,9.55726z" fill="#444444"/><path d="M402.54456,158.3643c0,0 0.52363,-0.63462 1.01971,-1.85786c0.45361,-1.11845 0.86879,-2.80787 1.15697,-3.33699c0.62853,-1.86234 3.05245,-1.86209 3.05245,-1.86209l-0.83555,0.82942l-3.2721,6.00753z" fill="#292929"/><path d="M407.31845,168.15794l-8.50443,-9.51225c0,0 3.53557,-0.15214 5.00539,-1.50956c1.14215,-1.05488 0.54314,-3.61943 2.03692,-4.19875c4.28575,-1.662 16.83599,-4.5661 16.83599,-4.5661c0,0 4.55495,6.38761 6.02059,9.04221c1.01181,1.83262 2.2688,6.1025 2.2688,6.1025z" fill="#4a464a"/><path d="M408.85486,154.49815c-4.59795,0.2538 -3.44661,-1.36203 -3.44661,-1.36203c0,0 0.5272,-1.43049 2.33147,-1.93335c4.42762,-1.23407 13.02008,-2.33171 14.70519,-2.68841c0.7947,-0.16825 0.47405,0.61607 0.47405,0.61607c0,0 -1.00224,2.62804 -2.47495,3.17584c-1.47275,0.54782 -6.99116,1.93808 -11.58912,2.19184z" fill="#5e595e"/></g><g><path d="M397.00101,176.88248l-8.5173,-16.60651l18.60925,-3.35875l5.54291,3.32352l5.96618,-1.27077l5.49547,12.59711z" fill="#4d4846"/><path d="M401.67833,176.35943l18.46202,-13.19216l21.85754,-4.53474c0,0 2.09266,3.85209 2.49369,5.15381c0.20443,0.66369 0.41467,2.91884 0.41467,2.91884z" fill="#423d3b"/><path d="M396.33604,168.93802l-5.01536,-9.04997l0.80516,-0.15794l5.01537,9.04997z" fill="#363332"/><path d="M402.09865,175.46011l-0.23434,-1.19462c0,0 4.67603,-3.51125 13.57136,-5.25623c1.18191,-0.23182 5.84072,1.4482 7.032,1.21454c7.55809,-1.48268 14.95593,-2.93387 17.77038,-3.48597c2.2921,-0.44963 4.38245,-2.18447 4.38245,-2.18447l0.48455,2.47031z" fill="#312e2c"/><path d="M401.97174,162.50197l-2.59944,-4.19343l8.15231,-1.59922l4.92841,3.53882l6.22593,-1.02355l-7.07265,3.37331z" fill="#585350"/><path d="M394.0144,171.2225l-0.21716,-1.10711c0,0 7.17473,-5.22239 9.99817,-5.77625c4.25527,-0.83474 16.00273,-3.13917 16.00273,-3.13917l0.21717,1.10711c0,0 -11.94885,2.34396 -16.20399,3.17869c-2.7654,0.54245 -9.79683,5.73676 -9.79683,5.73676z" fill="#2b2827"/></g></g></g><g><g><g><path d="M73.85132,277.49452c0.96072,2.08812 1.15559,4.68877 0.13581,5.15794c-1.01975,0.46918 -2.86799,-1.37074 -3.82872,-3.45889c-0.96072,-2.08812 -4.70481,-10.08737 -3.68503,-10.55661c1.01975,-0.46918 6.41727,6.76937 7.37792,8.85753z" fill="#615e5f" stroke-width="0"/><g><path d="M108.90468,240.11893c-0.6308,-0.41396 -3.18033,-1.2512 -3.18033,-1.2512l9.18008,-4.73572l-4.50178,8.22034c0,0 -0.86715,-1.81949 -1.49794,-2.23343z" fill="#756a6a" stroke-width="0"/><path d="M99.72024,240.19106l-2.64362,-13.47646l17.05738,-9.32457l3.77297,19.23343z" fill="#8a7c7c" stroke-width="0"/><path d="M61.48172,253.24306l3.05133,-19.07752l34.25434,-6.8554l6.88684,11.55711c0,0 -22.25657,5.97206 -29.62857,8.37016c-3.06019,0.99547 -14.56398,6.00566 -14.56398,6.00566z" fill="#7c787a" stroke-width="0"/><path d="M65.11214,236.50262l-0.43054,-1.42524c0,0 25.43935,-4.99037 33.43678,-6.55921c4.47457,-0.87774 14.61984,-9.35969 14.61984,-9.35969l0.3137,1.59917c0,0 -9.86032,8.40639 -14.19065,9.24092c-7.94019,1.53021 -33.74915,6.5041 -33.74915,6.5041z" fill="#535353" stroke-width="0"/><path d="M30.13844,260.11288l-3.87958,-19.77706c0,0 3.08849,-7.79441 9.75524,-11.44196c8.28035,-4.53037 25.19689,-6.02968 27.22882,-6.42826c1.55928,-0.30588 -10.661,12.70656 -10.661,12.70656l3.8796,19.77708z" fill="#8d898b" stroke-width="0"/><path d="M190.9689,181.54107l0.96738,-3.39395l105.58093,-20.56587l2.83863,14.47045c0,0 -36.71881,9.08369 -48.79112,11.02784c-5.99549,0.96551 -60.59576,-1.53851 -60.59576,-1.53851z" fill="#c98cac" stroke-width="0"/><path d="M189.15228,284.82252l-6.94892,-11.81983c0,0 6.16606,4.74122 9.16773,5.24975c1.91244,0.32403 6.13308,-0.11488 11.66035,-3.68301c4.44968,-2.87248 8.46088,-9.27517 8.46088,-9.27517l-8.59824,16.83258z" fill="#a08e97" stroke-width="0"/><path d="M268.9184,221.3649l-6.84128,-22.72959l17.93048,-4.94684l4.08037,20.80057c0,0 -5.94681,2.91847 -8.52577,4.13592c-1.18748,0.56058 -6.64375,2.73991 -6.64375,2.73991z" fill="#96858d" stroke-width="0"/><path d="M188.07008,288.85205l-1.06648,-5.43657c0,0 12.23582,-0.29226 16.16808,-4.2445c1.91375,-1.9234 14.42085,-25.70832 21.29166,-38.90986c2.6813,-5.15187 4.50425,-8.69195 4.50425,-8.69195c0,0 2.57019,-4.3493 2.01933,-7.17836c-0.27713,-1.42316 -0.62036,-5.61417 -1.8813,-7.72222c-1.27218,-2.12689 -3.46091,-2.16461 -3.46091,-2.16461l-7.3937,-12.3806l19.47307,-3.67356l2.26031,26.63639l4.18106,1.79052c0,0 -8.22131,7.7272 -11.80964,13.48127c-5.61452,9.00297 -22.71733,43.32199 -22.71733,43.32199z" fill="#918189" stroke-width="0"/><path d="M246.23966,226.1732l-4.31529,-28.3025l13.5711,-2.38117l12.48022,9.78271l0.94339,16.45209z" fill="#96858d" stroke-width="0"/><path d="M242.15566,228.85876l-3.26041,-3.5852l-1.56873,-26.38133l4.96854,-1.06097l4.83987,28.18211z" fill="#8f8187" stroke-width="0"/><path d="M267.72778,222.06349c0,0 1.41687,-7.07209 -0.9521,-12.12132c-1.36407,-2.90731 -6.56225,-3.89487 -7.39851,-5.67714c-1.59736,-3.40462 -4.06849,-8.67165 -4.06849,-8.67165l8.54828,2.77024c0,0 4.73109,6.42316 6.13796,10.4899c0.94524,2.73225 0.71665,9.27461 0.30763,12.00322c-0.0345,0.23001 -1.20469,0.37471 -1.22351,0.54687c-0.04603,0.42057 0.94468,0.46198 0.94468,0.46198z" fill="#86787e" stroke-width="0"/><path d="M263.93502,199.87682c0,0 -3.79434,-3.28599 -8.57629,-3.33808c-5.41371,-0.05899 -22.2466,3.00249 -22.2466,3.00249l152.05732,-44.28063l5.14219,8.47037l9.91471,9.4101c0,0 -99.40183,16.87883 -119.60511,20.84205c-6.59264,1.29328 -16.68621,5.89372 -16.68621,5.89372z" fill="#df8db7" stroke-width="0"/><path d="M121.70297,275.95944l-11.69016,-34.66788c0,0 0.92976,-4.00453 1.38005,-4.31265c4.96452,-3.39705 34.35151,-20.01663 39.74413,-20.78275c5.90734,-0.83926 -6.63196,13.77646 -6.63196,13.77646c0,0 -13.75032,4.76189 -15.42249,9.4208c-2.27027,6.3254 5.82698,22.4213 5.82698,22.4213z" fill="#c77da3" stroke-width="0"/><path d="M187.00759,232.64955l-2.16129,-1.72143c0,0 4.77959,-9.70818 6.72631,-12.42651c2.00979,-2.80639 5.14925,-4.15606 5.14925,-4.15606l6.26762,1.11655c0,0 -4.48908,0.36845 -6.47827,2.50765c-1.70762,1.83641 -4.79691,5.57979 -6.9495,9.15329c-1.56583,2.59949 -2.55414,5.52643 -2.55414,5.52643z" fill="#414041" stroke-width="0"/><path d="M64.59733,235.53734l2.46001,-12.39487l47.71895,-9.36085c0,0 -1.98666,4.93017 -4.66946,7.46c-2.63306,2.48297 -11.28081,7.58119 -11.28081,7.58119z" fill="#979395" stroke-width="0"/><path d="M65.16234,234.2618l1.67499,-12.24092l47.71896,-9.36085c0,0 -1.98667,4.93016 -4.66947,7.46001c-2.63306,2.48297 -11.28082,7.58119 -11.28082,7.58119z" fill="#bdb7ba" stroke-width="0"/><path d="M270.15263,221.91462l-1.93671,-0.14333l15.73013,-7.34008c0,0 -3.09774,2.70428 -5.38183,3.96443c-2.28408,1.26021 -8.41156,3.51899 -8.41156,3.51899z" fill="#887980" stroke-width="0"/><path d="M124.23158,275.93672c0,0 -4.31102,-9.81927 -7.13329,-17.96682c-2.83602,-8.18734 -5.47084,-15.87055 -6.18254,-19.38394c-0.12056,-0.59523 -0.41493,-10.65742 -0.02487,-11.26528c2.10542,-3.28109 11.19309,2.82741 16.44071,0.67341c7.76995,-3.18934 26.42211,-7.37215 26.42211,-7.37215l-7.2733,6.83867c0,0 -18.53431,6.55553 -19.89233,12.05709c-1.83681,7.44138 9.61032,26.46641 9.61032,26.46641z" fill="#d486ae" stroke-width="0"/><path d="M124.66459,272.26586c0,0 -14.40422,-38.82493 -15.04192,-48.96887c-0.29837,-4.74623 -5.34369,-13.03798 -5.34369,-13.03798l51.0611,-2.91498l4.49072,15.49536c0,0 -32.03845,3.13271 -37.06236,10.51175c-3.35364,4.92578 8.7648,31.32991 8.7648,31.32991z" fill="#e490bb" stroke-width="0"/><g stroke-width="0"><path d="M248.3735,183.80397l-1.59289,-8.12015l9.18495,-1.80176l1.5929,8.12015z" fill="#454545"/><path d="M249.04307,182.89329l-1.75492,-7.09291l11.11434,-2.18027l1.40485,7.16161z" fill="#b0b0b0"/><path d="M247.95267,178.53256l-0.7691,-2.73336l11.32695,-2.22197l0.36719,1.87172c0,0 -7.58504,1.81652 -9.22594,2.27969c-0.5483,0.15477 -1.69909,0.80393 -1.69909,0.80393z" fill="#bebebe"/><path d="M259.95027,180.19362c0,0 -5.92896,-1.441 -6.09007,-5.2285c-0.23938,-5.62819 3.89676,-5.95234 3.89676,-5.95234l39.74642,-6.43817l1.93665,9.87245z" fill="#9c989a"/><path d="M261.45597,178.58443c0,0 -3.11763,-2.97444 -3.53564,-3.83692c-0.6196,-1.27848 0.7686,-4.56447 0.7686,-4.56447l40.82422,-7.97436l1.04905,7.4256z" fill="#898587"/><path d="M261.40547,178.7964l-1.37386,-1.70685l37.5167,-7.3595l0.37335,1.90313z" fill="#c1bcbf"/><path d="M260.63322,175.48926c0,0 -1.57172,-1.08573 -1.7522,-2.00554c-0.16875,-0.86042 0.70218,-3.34698 0.70218,-3.34698l37.9435,-7.44325l1.04998,5.35252z" fill="#0d0d0d"/><path d="M260.78286,176.25203c0,0 -1.68796,-1.67819 -1.8684,-2.59803c-0.16875,-0.86042 0.8184,-2.75451 0.8184,-2.75451l37.9435,-7.44325l1.05,5.35253z" fill="#2e2e2e"/><path d="M256.41347,179.04871c-3.17985,-2.50164 -2.48627,-5.01876 -2.48627,-5.01876c0,0 2.58959,3.68272 3.97477,4.32569c1.63999,0.76126 5.44523,1.4068 5.44523,1.4068l-3.42964,0.7443c0,0 -2.94448,-1.01777 -3.50411,-1.458z" fill="#7d7a7c"/><path d="M263.39387,176.05541c0,0 -1.29811,-1.99952 -1.51822,-3.12168c-0.19352,-0.9864 0.26699,-3.25673 0.26699,-3.25673l4.73312,-0.92847c0,0 -0.02825,2.25152 0.13888,3.10349c0.2297,1.17098 1.11235,3.2749 1.11235,3.2749z" fill="#555555"/><path d="M271.84937,174.39674c0,0 0.16848,-2.60424 -0.05162,-3.7264c-0.19352,-0.9864 -1.19962,-2.65203 -1.19962,-2.65203l5.28264,-1.03628c0,0 -0.07872,1.76321 0.08839,2.61519c0.2297,1.17098 1.16284,3.7632 1.16284,3.7632z" fill="#555555"/><path d="M281.00162,172.60139c0,0 0.1685,-2.60426 -0.0516,-3.72642c-0.19352,-0.9864 -1.1996,-2.65202 -1.1996,-2.65202l5.20411,-1.0209c0,0 -0.07872,1.76321 0.08839,2.61519c0.2297,1.17098 1.16284,3.76319 1.16284,3.76319z" fill="#555555"/><path d="M290.4842,170.74122c0,0 0.4114,-2.28955 0.19126,-3.41172c-0.19352,-0.9864 -1.4425,-2.96668 -1.4425,-2.96668l5.04713,-0.99009c0,0 1.19373,1.78533 1.36089,2.63735c0.2297,1.17098 -0.10965,3.74108 -0.10965,3.74108z" fill="#555555"/><path d="M262.01696,170.41903l-0.80668,-0.65699l34.89751,-6.84572l-1.35155,1.08038c0,0 -2.77715,0.54476 -5.19329,1.01873c-0.52664,0.1033 -1.58654,-0.02378 -2.3754,0.13093c-0.76277,0.1496 -1.24692,0.57963 -2.19507,0.76561c-1.4785,0.29002 -3.14666,0.61726 -4.89303,0.95987c-0.72403,0.14205 -1.42788,-0.11077 -2.17086,0.03498c-0.66066,0.12961 -1.35939,0.65752 -2.02318,0.78773c-1.64747,0.32317 -3.27874,0.64316 -4.81241,0.94404c-0.70426,0.13812 -1.47237,-0.1579 -2.12762,-0.02939c-0.79992,0.15689 -1.47308,0.73568 -2.17395,0.87317c-2.85896,0.56085 -4.77449,0.93659 -4.77449,0.93659z" fill="#474747"/></g><g><path d="M130.46564,264.57644l3.09559,-3.52935c0,0 3.31395,2.21844 6.26722,2.55117c2.61208,0.29424 10.55486,-0.65624 10.55486,-0.65624l-1.76723,4.78399z" fill="#6d6a6b" stroke-width="0"/><path d="M123.80868,272.50644l7.63721,-9.0241c0,0 3.60863,1.59167 5.86425,1.82372c3.41239,0.35101 12.61802,0.07757 12.61802,0.07757l-3.36862,5.05024z" fill="#615e5f" stroke-width="0"/><path d="M129.99874,293.67819l-5.80081,-21.86538c0,0 4.42524,-0.06104 9.16208,-0.96007c3.69728,-0.70173 7.50628,-2.31219 10.06069,-2.19333c4.48444,0.20865 39.76192,5.87959 39.76192,5.87959l4.39076,9.50743z" fill="#575455" stroke-width="0"/><path d="M145.98088,262.98575c5.73236,-6.79579 11.06137,-21.54963 11.8012,-24.31512c0.53299,-1.99235 0.192,-7.30204 0.192,-7.30204l8.87145,5.20442c0,0 9.68602,18.9873 13.27897,31.17031c1.00536,3.40891 4.23519,6.79573 3.35341,8.46307c-0.79007,1.49392 -16.99334,7.006 -22.43387,7.29392c-11.44946,0.60593 -16.59621,4.45824 -21.2864,0.00238c-4.69021,-4.45581 1.07077,-11.97571 1.07077,-11.97571c0,0 3.66013,-6.77204 5.15248,-8.54129z" fill="#504e4f" stroke-width="0"/><path d="M144.37785,229.84936c0,0 0.10106,-1.54105 0.81432,-2.35714c0.91729,-1.04953 4.23293,-3.41776 4.23293,-3.41776c0,0 9.58972,0.22559 13.02302,2.08954c3.16765,1.71974 -1.01646,13.01769 -1.01646,13.01769l-3.00105,-4.87486z" fill="#464445" stroke-width="0"/><path d="M176.269,271.72099c0,0 -7.90637,7.926 -16.19911,9.72742c-8,1.73785 -16.3937,-2.61966 -16.56247,-4.03593c-0.09144,-0.76732 7.052,-5.53691 9.65088,-10.34863c2.88892,-5.34868 1.3121,-10.84955 2.2507,-13.08242c2.62024,-6.23366 8.94794,-17.84749 6.74337,-23.57382c-2.31196,-6.00535 -13.22828,-5.97735 -13.22828,-5.97735c0,0 3.34575,-2.95093 8.21318,-4.03808c2.07335,-0.46307 6.80268,0.02142 7.7828,0.22148c3.21408,0.6559 5.48255,1.87837 5.48255,1.87837c0,0 2.65088,-5.49234 6.12602,-6.48941c3.47517,-0.99708 22.51625,-1.72849 22.51625,-1.72849l-13.48305,15.47895z" fill="#555354" stroke-width="0"/><path d="M155.13462,254.64153c0,0 2.44139,-11.55895 6.03711,-17.80277c3.59574,-6.24383 6.98563,-10.14994 10.45188,-10.82989c2.5101,-0.49242 7.39524,7.32888 7.39524,7.32888l-5.33177,30.3635c0,0 -13.71649,6.03231 -15.64364,3.88242c-1.52207,-1.698 -2.90886,-12.94209 -2.90886,-12.94209z" fill="#585758" stroke-width="0"/><path d="M182.52331,277.08881c0,0 -4.01609,-5.52124 -4.27771,-8.54974c-0.36549,-4.23078 -1.38443,-16.92602 -1.38443,-16.92602l3.92893,9.86386c0,0 1.24789,9.6885 1.96134,12.63611c0.68836,2.844 2.50287,4.69982 2.50287,4.69982z" fill="#3f3e3f" stroke-width="0"/><path d="M178.17303,259.73648c-0.51418,-1.60584 -1.73662,-9.22397 -1.73662,-9.22397c0,0 6.57511,-16.13543 8.12257,-19.14266c0.45366,-0.8816 3.41336,-3.22611 3.41336,-3.22611l-0.68111,5.08004c0,0 -1.42813,0.89565 -1.51259,1.39917c-0.08999,0.53645 0.98815,1.72698 0.98815,1.72698l-3.40052,9.3088c0,0 -1.42521,1.30944 -1.50375,1.83984c-0.0786,0.53053 0.76718,1.2697 0.76718,1.2697c0,0 -2.06107,9.51599 -2.42297,12.04775c-0.16731,1.1706 0.33911,2.53116 0.33911,2.53116c0,0 -1.85857,-2.00489 -2.37277,-3.61078z" fill="#474647" stroke-width="0"/><path d="M161.2561,241.68698l22.25022,4.02754c0,0 -0.97184,1.22224 -1.10081,1.79685c-0.09521,0.42401 0.39705,1.33847 0.39705,1.33847z" fill="#3f3e3e" stroke-width="NaN"/><path d="M165.15097,230.37267l22.3701,2.80512c0,0 -0.93183,1.04218 -1.0318,1.62871c-0.1042,0.61144 0.46615,1.59937 0.46615,1.59937z" fill="#3f3e3e" stroke-width="NaN"/><path d="M158.46441,260.91098c0,0 11.97337,5.49086 18.8922,10.22517c6.91887,4.73429 5.24678,6.29211 5.24678,6.29211z" fill="#636162" stroke-width="NaN"/><path d="M167.0644,235.7279c0,0 -5.32937,4.00488 -7.43137,7.57211c-2.10198,3.56726 -7.16493,21.05181 -7.73194,18.16136c-0.56701,-2.89044 8.32053,-25.74991 10.08194,-26.09545c0.66675,-0.1308 3.42634,-1.83616 4.27517,-1.76065c1.3935,0.12394 0.8062,2.12264 0.8062,2.12264z" fill="#918f91" stroke-width="0"/><path d="M129.52613,293.63908l13.31856,-4.53693c0,0 12.29637,-2.75077 15.40423,-3.20241c7.56859,-1.09989 30.17216,-3.42096 30.17216,-3.42096l0.77813,6.28889c0,0 -23.21899,8.18822 -30.23774,8.22434c-2.0305,0.01047 -7.85733,0.52365 -12.29382,0.01592c-8.68194,-0.99351 -17.14156,-3.3689 -17.14156,-3.3689z" fill="#626061" stroke-width="0"/><path d="M188.14537,288.61584c0,0 -0.78661,-4.22015 -1.67761,-6.42983c-1.00141,-2.48358 -4.03834,-7.74628 -4.03834,-7.74628l1.749,-0.34309c0,0 2.54495,4.04253 3.45148,6.29091c0.99119,2.45826 2.26443,7.88516 2.26443,7.88516z" fill="#4a494a" stroke-width="0"/><path d="M188.11478,289.4741l-0.56738,-3.35062c0,0 0.60713,0.15066 0.87357,0.09837c0.31659,-0.06207 0.86093,-0.43862 0.86093,-0.43862l0.78199,3.0837c0,0 -0.68355,0.54946 -1.03871,0.6601c-0.27211,0.0848 -0.91034,-0.053 -0.91034,-0.053z" fill="#363536" stroke-width="0"/><path d="M182.89671,275.39293l-0.6906,-1.51604c0,0 0.34137,-0.42812 0.69153,-0.55715c0.33351,-0.12289 0.86975,-0.10301 0.86975,-0.10301l0.82647,1.60736c0,0 -0.3751,0.59073 -0.66593,0.68816c-0.27393,0.09183 -1.03126,-0.11928 -1.03126,-0.11928z" fill="#585758" stroke-width="0"/><path d="M146.99707,296.24833c0,0 -8.31592,-1.37778 -8.57826,-2.71534c-0.26367,-1.34421 5.63147,-3.69377 5.63147,-3.69377c0,0 10.69286,-2.34295 15.59038,-3.12776c2.74185,-0.43938 11.29317,-1.1804 11.29317,-1.1804c0,0 7.35839,-0.36917 8.37993,0.60411c1.11429,1.06164 -2.13054,4.59395 -2.13054,4.59395c0,0 -12.2345,3.73093 -16.1652,4.28982c-1.39635,0.1985 -14.02085,1.22939 -14.02085,1.22939z" fill="#6b696a" stroke-width="0"/><path d="M135.47976,291.47465l-1.88054,0.60411c0,0 -0.04646,-3.49103 2.86179,-2.79568c2.9083,0.6954 21.3327,-3.94956 21.3327,-3.94956z" fill="#4b4949" stroke-width="0"/><path d="M129.57001,293.48365c0,0 -1.92352,0.57257 -3.14982,-2.89904c-0.62075,-1.75729 -5.06015,-15.34908 -5.06015,-15.34908l3.108,-3.56405c0,0 1.82282,5.75039 2.58384,8.55869c1.0121,3.73499 3.42403,13.07579 3.42403,13.07579z" fill="#3f3d3e" stroke-width="0"/><path d="M135.82745,291.57549c0,0 2.71758,-2.73237 18.40872,-6.15398c1.2958,-0.28254 -1.76778,0.31417 7.55384,-0.99746c9.32159,-1.31162 13.4479,-0.57958 13.4479,-0.57958c0,0 -14.99027,1.85084 -21.07708,3.04487c-6.93823,1.36106 -18.33338,4.68615 -18.33338,4.68615z" fill="#838082" stroke-width="0"/><path d="M135.07954,261.52529c0,0 -3.8678,2.98785 -5.69119,4.99189c-2.04943,2.2525 -6.00667,7.86495 -6.00667,7.86495l-1.07809,-1.42068c0,0 2.95037,-4.50592 4.8057,-6.54504c2.02849,-2.22946 6.89213,-6.31182 6.89213,-6.31182z" fill="#4a494a" stroke-width="0"/><path d="M135.94644,261.09253l-3.17094,2.33462c0,0 -0.02984,-0.65289 -0.19408,-0.86932c-0.19515,-0.25716 -0.79909,-0.55447 -0.79909,-0.55447l2.73899,-2.37336c0,0 0.83471,0.33221 1.09437,0.59869c0.19899,0.20422 0.33075,0.86377 0.33075,0.86377z" fill="url(#color-3)" stroke-width="0"/><path d="M124.13326,273.44158l-2.37032,3.24682l-0.56128,-2.11413l1.65063,-2.38456c0,0 0.74577,0.02708 0.96522,0.24155c0.20675,0.20203 0.31571,1.01035 0.31571,1.01035z" fill="url(#color-4)" stroke-width="0"/></g><path d="M247.15569,224.87609c0,0 0.05947,-4.51455 0.28599,-5.97455c0.15375,-0.99109 2.20716,-2.85286 2.20716,-2.85286l16.65912,-3.49033c0,0 -0.13724,5.93513 -0.24814,7.34923c-0.04863,0.61946 -0.96129,1.50431 -0.96129,1.50431z" fill="#665b60" stroke-width="0"/><path d="M195.93639,216.31909c0,0 -4.02403,-0.80285 -9.08214,-0.98483c-3.2154,-0.11571 -7.51468,0.1501 -9.32055,0.61219c-5.25017,1.34325 -6.73939,6.83763 -6.73939,6.83763c0,0 -3.65782,-1.64234 -5.89053,-2.07533c-2.08419,-0.40416 -6.54853,-0.54843 -6.54853,-0.54843c0,0 23.12005,-9.72367 26.78753,-11.03428c7.03082,-2.51255 33.28838,-7.26452 33.28838,-7.26452l8.8575,12.82046z" fill="#8b7c84" stroke-width="0"/><g stroke-width="0"><path d="M248.40165,223.67094c0,0 -0.03707,-2.6385 0.1934,-3.59551c0.23896,-0.99234 2.17924,-2.44545 2.17924,-2.44545l14.25827,-2.79703c0,0 0.56831,0.8902 0.47936,1.6595c-0.12096,1.04599 -2.31673,4.27645 -2.31673,4.27645z" fill="#585852"/><path d="M248.25818,222.93954c0,0 0.1064,-1.90702 0.33685,-2.86407c0.23896,-0.99234 2.03578,-3.17684 2.03578,-3.17684l14.25827,-2.79702c0,0 0.71181,1.62161 0.62282,2.39094c-0.12096,1.04599 -2.46022,3.54501 -2.46022,3.54501z" fill="#797971"/><path d="M263.25331,214.92749c-1.06351,0.02727 -12.52094,1.9983 -12.52094,1.9983l14.23877,-2.79315l0.47388,2.41578c0,0 -1.12824,-1.64822 -2.19173,-1.62095z" fill="#85857b"/></g><path d="M246.30881,205.5671l-0.99901,-5.09271l7.00246,-1.37365l2.2722,4.84295z" fill="#7c6e75" stroke-width="0"/><path d="M230.99324,181.64432l-5.66385,-7.17518l1.3535,-0.26549l7.65007,7.24577z" fill="#d495b6" stroke-width="0"/><path d="M191.25054,181.66607l12.37706,-5.57651l21.90166,-1.63406l5.48582,7.17037z" fill="#df9cbe" stroke-width="0"/><path d="M247.43577,210.46938l-0.31215,-1.59146l10.66282,-2.09169l1.26705,1.40416z" fill="#7c6e75" stroke-width="0"/><path d="M205.28299,206.35256c0,0 -17.56378,4.6667 -22.99494,6.24176c-8.22392,2.38504 -24.52733,7.95278 -24.52733,7.95278c0,0 13.88792,-7.24962 26.85085,-11.33749c14.05511,-4.43231 57.00032,-14.34187 57.00032,-14.34187l1.04124,5.30788z" fill="#75686e" stroke-width="0"/><path d="M200.18225,216.2908l-3.29247,0.06416c0,0 9.12872,-4.22059 14.51528,-4.49992c5.38649,-0.27931 15.47162,2.94494 15.47162,2.94494z" fill="#7c6e76" stroke-width="0"/><path d="M153.8192,221.27866c0,0 -34.71587,-8.87983 -36.48007,-13.24188c-1.60254,-3.96244 29.716,-3.43658 29.98735,-3.60005c4.74818,-2.86139 73.8979,-23.77864 73.8979,-23.77864l27.41804,1.54027l51.66511,-10.71729l9.78484,11.91474c0,0 -60.18279,12.99699 -83.4732,17.73194c-8.08471,1.64362 -24.72688,4.24824 -39.52504,8.31314c-11.41486,3.13557 -27.93944,10.77602 -27.93944,10.77602z" fill="#ee96c3" stroke-width="0"/><path d="M29.5173,258.44489l-0.6149,-20.41747c0,0 -1.45754,-6.9026 5.20921,-10.5502c8.28035,-4.53037 25.19689,-6.02967 27.22883,-6.42826c1.55928,-0.30587 -10.66101,12.70655 -10.66101,12.70655l3.8796,19.77707z" fill="#c4b4b3" stroke-width="0"/><g stroke-width="0"><path d="M301.90408,186.41037l-5.71866,-14.30966l92.32411,-11.21745l0.37522,5.844l-45.60653,13.89615z" fill="#ad6d8e"/><path d="M324.99702,167.27078l5.54424,-9.51798l25.86414,-7.24328l-2.22218,11.03595z" fill="#8d788b"/><path d="M300.2312,173.34033l-3.12525,-15.93164l33.50505,0.33471l-3.17082,7.62192z" fill="#857183"/><path d="M341.21733,161.91604l15.1268,-11.39325l28.04714,-1.65734l1.04638,6.82013z" fill="#947e92"/><path d="M296.02298,173.54569l0.38211,-13.08421l0.82993,-3.28504l2.89974,14.78211z" fill="#756474"/><path d="M302.54069,183.00982l-3.0318,-11.7081l42.18631,-9.9558l1.88784,15.99276z" fill="#746373"/><path d="M343.57246,177.32497c0,0 -0.84132,-6.26264 -1.19376,-9.09188c-0.30178,-2.42229 -0.79274,-6.85304 -0.79274,-6.85304l43.54836,-7.61628l3.57957,7.85793z" fill="#867284"/><path d="M296.04911,173.46879l3.65756,-2.27759l2.86491,11.82029z" fill="#6f5e6d"/><path d="M377.29021,150.14877l-20.09506,0.51422l26.9274,-1.57658l0.32565,3.54913c0,0 -0.6098,-1.47959 -1.93124,-1.93868c-0.88395,-0.30712 -5.22684,-0.54811 -5.22684,-0.54811z" fill="#978195"/><path d="M339.4495,161.60068c0,0 7.15844,-4.93556 9.62404,-6.79914c1.79612,-1.35752 3.80806,-3.35319 3.80806,-3.35319l2.50812,-0.37722l-13.34108,10.0197z" fill="#9c859a"/><path d="M325.49323,165.16216c0,0 0.76196,-2.9542 1.82708,-4.53917c1.06505,-1.58492 3.17322,-2.82926 3.17322,-2.82926l-2.58475,6.89459z" fill="#806b7d"/><path d="M357.55566,148.50608l0.98978,-6.03676l15.63437,0.73752l6.72727,5.20231z" fill="#55494f"/><path d="M355.60873,151.74147c0,0 0.91006,-0.98379 1.34742,-1.6655c0.32942,-0.5135 0.73803,-2.00463 0.73803,-2.00463l22.66638,-0.37014c0,0 0.94734,0.32059 1.58523,0.52733c0.66669,0.21604 2.3324,0.74222 2.3324,0.74222z" fill="#685960"/><path d="M357.93462,147.52256l0.74485,-4.81888l14.52216,0.54148c0,0 -8.15201,0.0372 -12.50023,1.14977c-2.52222,0.6453 -2.76675,3.12765 -2.76675,3.12765z" fill="#41383c"/></g><path d="M23.56466,219.58383l-1.00262,-5.11091c0,0 21.66949,-5.57056 43.22788,-9.74156c12.84688,-2.48551 26.47048,-3.52989 33.19491,-5.20581c15.1621,-3.77878 24.56652,-10.22185 24.56652,-10.22185l-4.17323,11.66462z" fill="#ffa1d1" stroke-width="0"/><path d="M23.72171,233.7766l-0.97592,-16.19765c0,0 54.16813,-8.52617 71.59667,-12.39411c10.32397,-2.29123 23.33867,-8.67511 23.33867,-8.67511l2.81861,14.36853c0,0 -66.23858,12.99377 -82.20664,16.12615c-6.56544,1.28793 -9.3962,33.15373 -9.3962,33.15373z" fill="#ee96c3" stroke-width="0"/><path d="M214.30397,274.34077l6.48931,-15.12798c0,0 6.68067,-17.47 14.58408,-26.01394c2.00839,-2.17116 6.85096,-4.34044 6.85096,-4.34044c0,0 -6.20768,6.29785 -8.21665,9.53661c-4.74427,7.64844 -19.70768,35.94572 -19.70768,35.94572z" fill="#70646b" stroke-width="0"/><path d="M296.03516,192.23141l-9.64806,-16.45227l1.32489,-0.2599c0,0 2.92195,4.98261 4.46588,7.61544c0.22003,0.37514 1.79448,1.31062 2.06696,1.77528c0.47235,0.80544 -0.31721,1.20851 0.21074,2.10881c1.47001,2.50679 2.90445,4.95279 2.90445,4.95279z" fill="#795467" stroke-width="0"/><path d="M121.20345,211.18019c0,0 -11.5473,-4.41199 -11.60727,-8.24711c-0.03593,-2.29627 14.96088,-13.34184 14.96088,-13.34184l67.54266,-11.54561l-1.01007,3.3533l30.10593,-0.5573l-65.33753,39.89873c0,0 -1.85722,-5.35648 1.12752,-8.8546c2.90083,-3.39981 16.5363,-11.84759 16.5363,-11.84759c0,0 -33.58687,6.5387 -40.7581,7.85711c-2.39251,0.43985 -11.56029,3.28495 -11.56029,3.28495z" fill="#f399c8" stroke-width="0"/><g><path d="M123.16409,191.82537l-0.62337,-3.17778l173.2517,-33.98613l0.62336,3.17777z" fill="#584f54" stroke-width="0"/><path d="M290.15227,156.02083l-0.52674,-2.68516l2.99812,-0.58812l3.17212,2.16624z" fill="#685d63" stroke-width="0"/><g fill="#685d63" stroke-width="0"><g><g><g><path d="M283.6647,157.54736l-0.57304,-2.92133l3.80852,-0.74708l0.57303,2.92135z"/><path d="M277.48497,158.75963l-0.57304,-2.92133l3.80852,-0.74708l0.57303,2.92134z"/></g><g><path d="M271.53841,159.92612l-0.57305,-2.92135l3.80853,-0.74707l0.57303,2.92135z"/><path d="M265.35861,161.13839l-0.57303,-2.92135l3.80852,-0.74707l0.57303,2.92135z"/></g></g><g><g><path d="M259.29546,162.32779l-0.57303,-2.92135l3.80851,-0.74708l0.57303,2.92135z"/><path d="M253.11573,163.54005l-0.57304,-2.92134l3.80852,-0.74708l0.57304,2.92135z"/></g><g><path d="M247.16915,164.70653l-0.57305,-2.92135l3.80852,-0.74707l0.57303,2.92135z"/><path d="M240.98945,165.91881l-0.57304,-2.92133l3.80851,-0.74708l0.57304,2.92135z"/></g></g></g><g><g><g><path d="M240.75625,165.9646l-0.57304,-2.92133l3.80851,-0.74708l0.57303,2.92134z"/><path d="M234.57656,167.17681l-0.57303,-2.92135l3.80852,-0.74707l0.57304,2.92134z"/></g><g><path d="M228.62995,168.34333l-0.57304,-2.92135l3.80851,-0.74708l0.57304,2.92134z"/><path d="M222.45022,169.55561l-0.57303,-2.92134l3.8085,-0.74709l0.57304,2.92134z"/></g></g><g><g><path d="M216.3871,170.745l-0.57305,-2.92135l3.80852,-0.74708l0.57303,2.92135z"/><path d="M210.20732,171.95725l-0.57304,-2.92134l3.80853,-0.74707l0.57304,2.92135z"/></g><g><path d="M204.26074,173.12376l-0.57304,-2.92134l3.80852,-0.74709l0.57304,2.92135z"/><path d="M198.081,174.33599l-0.57303,-2.92134l3.80851,-0.74708l0.57304,2.92134z"/></g></g></g></g><g><g fill="#685d63" stroke-width="0"><g><g><path d="M191.97821,175.53319l-0.57305,-2.92136l3.80852,-0.74707l0.57304,2.92134z"/><path d="M185.79844,176.74543l-0.57304,-2.92134l3.80853,-0.74707l0.57305,2.92135z"/></g><g><path d="M179.85188,177.91196l-0.57303,-2.92135l3.80853,-0.74707l0.57304,2.92135z"/><path d="M173.67219,179.12417l-0.57303,-2.92134l3.80851,-0.74708l0.57304,2.92134z"/></g></g><g><g><path d="M167.60904,180.31359l-0.57305,-2.92135l3.80852,-0.74708l0.57303,2.92135z"/><path d="M161.42925,181.52586l-0.57303,-2.92134l3.80851,-0.74708l0.57304,2.92134z"/></g><g><path d="M155.48267,182.69241l-0.57303,-2.92134l3.8085,-0.74708l0.57305,2.92135z"/><path d="M149.30293,183.90465l-0.57303,-2.92135l3.80851,-0.74708l0.57305,2.92135z"/></g></g></g><g><g fill="#685d63" stroke-width="0"><g><path d="M149.06976,183.95038l-0.57304,-2.92134l3.80852,-0.74708l0.57303,2.92135z"/><path d="M142.88997,185.16261l-0.57304,-2.92135l3.80851,-0.74708l0.57304,2.92134z"/></g><g><path d="M136.94345,186.32916l-0.57304,-2.92134l3.80852,-0.74708l0.57305,2.92135z"/><path d="M130.76373,187.54138l-0.57304,-2.92134l3.80851,-0.74708l0.57304,2.92133z"/></g></g><g fill="none" stroke-width="1" font-family="sans-serif" font-weight="normal" font-size="12" text-anchor="start"><g/><g/></g></g></g><path d="M122.65868,188.87737l2.11865,-3.20412l2.99813,-0.5881l0.52673,2.68517z" data-paper-data="{&quot;index&quot;:null}" fill="#685d63" stroke-width="0"/></g><path d="M184.83592,210.19355l-2.4522,0.75618c0,0 1.15329,-2.8427 10.35188,-5.7964c6.97391,-2.23928 26.90015,-7.48463 38.83672,-10.58613c5.543,-1.44028 59.25528,-21.15029 59.25528,-21.15029l5.09885,-1.01479c0,0 -58.51236,22.32577 -64.05573,23.74245c-12.25786,3.13263 -32.86159,8.43517 -38.78387,10.18643c-3.22383,0.95328 -8.25084,3.86252 -8.25084,3.86252z" fill="#70475c" stroke-width="0"/><path d="M287.52179,209.44034l-4.4764,2.75914l-3.64356,-18.57744c0,0 7.65502,-1.45235 15.14157,-2.87271c21.4915,-4.07743 124.78112,-23.67394 124.78112,-23.67394l1.29499,6.60147z" fill="#5a5959" stroke-width="0"/><path d="M286.93733,211.21442l0.49185,-3.15982l133.18116,-34.48757l-9.44672,13.27838z" fill="#4b4a4a" stroke-width="0"/><path d="M407.90293,187.29234c0,0 -6.41652,-2.02748 -9.66719,-2.84512c-1.74212,-0.43817 -8.32071,-1.67936 -8.32071,-1.67936c0,0 8.41076,1.30918 11.87528,1.59559c1.23644,0.10222 2.48202,0.61483 3.86332,0.88207c0.44538,0.08615 1.70358,-2.97242 3.23698,-5.02022c0.45833,-0.61211 1.66707,-0.47774 2.11891,-0.90344c1.03591,-0.97599 1.17813,-2.11612 1.17813,-2.11612c0,0 0.51009,0.84721 -0.45241,2.27288c-0.26259,0.389 -1.96398,1.08181 -2.21399,1.49805c-1.00186,1.66836 -1.67707,3.43036 -1.86271,4.06924c-0.51801,1.78287 1.68031,1.96474 1.68031,1.96474z" fill="#414040" stroke-width="0"/><path d="M121.21264,211.48149l1.60737,-11.62563l6.75492,-1.96129c0,0 -0.42307,2.78169 -0.67243,4.42107c-0.0628,0.4129 11.13417,-3.77701 11.60877,-3.18632c0.88056,1.09598 -3.86353,5.85814 -4.02036,6.8892c-0.17929,1.17872 -8.64473,3.24271 -8.64473,3.24271z" fill="#303030" stroke-width="0"/><path d="M121.00052,211.14602l1.66559,-10.78604c0,0 3.1952,0.7027 3.38479,1.66923c0.345,1.75866 -0.09049,7.74153 -0.09049,7.74153z" fill="#252525" stroke-width="0"/><path d="M283.53887,214.80897l-0.56832,-2.8972l4.85214,-3.96051l-0.64661,3.13547c0,0 -0.81297,1.52019 -1.45267,2.1748c-0.56288,0.57602 -2.18456,1.54732 -2.18456,1.54732z" fill="#383838" stroke-width="0"/><g><g fill="#4b4b4b" stroke-width="0"><g data-paper-data="{&quot;origPos&quot;:null}"><g data-paper-data="{&quot;origPos&quot;:null}"><path d="M349.68829,203.22973l-0.43748,-2.23025l3.67985,-0.72187l0.43748,2.23025z" data-paper-data="{&quot;origPos&quot;:null}"/><path d="M343.53331,204.32136l-0.43748,-2.23025l3.67984,-0.72186l0.43747,2.23024z" data-paper-data="{&quot;origPos&quot;:null}"/></g><g data-paper-data="{&quot;origPos&quot;:null}"><path d="M361.97643,200.93508l-0.43748,-2.23025l3.67985,-0.72187l0.43747,2.23024z" data-paper-data="{&quot;origPos&quot;:null}"/><path d="M355.82144,202.02667l-0.43747,-2.23024l3.67986,-0.72188l0.43748,2.23026z" data-paper-data="{&quot;origPos&quot;:null}"/></g></g><g data-paper-data="{&quot;origPos&quot;:null,&quot;index&quot;:null}"><g data-paper-data="{&quot;origPos&quot;:null}"><path d="M380.77803,197.01524l-0.43748,-2.23025l3.67986,-0.72188l0.43747,2.23025z" data-paper-data="{&quot;origPos&quot;:null}"/><path d="M386.88927,195.70056l-0.43748,-2.23024l3.67985,-0.72187l0.43747,2.23023z" data-paper-data="{&quot;origPos&quot;:null}"/></g><g data-paper-data="{&quot;origPos&quot;:null}"><path d="M368.53372,199.53293l-0.43748,-2.23026l3.67984,-0.72185l0.43747,2.23024z" data-paper-data="{&quot;origPos&quot;:null}"/><path d="M374.64494,198.21835l-0.43747,-2.23024l3.67985,-0.72188l0.43747,2.23024z" data-paper-data="{&quot;origPos&quot;:null}"/></g></g></g><path d="M306.17842,203.36268l-2.62011,-13.35657l82.89413,-16.26104l2.62011,13.35656z" data-paper-data="{&quot;origPos&quot;:null}" fill="#444444" stroke-width="0"/><path d="M307.18412,207.97761l-0.92061,-4.693l82.65051,-16.21324l0.9206,4.69303z" data-paper-data="{&quot;origPos&quot;:null}" fill="#414141" stroke-width="0"/><path d="M307.49242,209.36854l-0.31138,-1.58735l82.63999,-16.21118l0.31139,1.58735z" data-paper-data="{&quot;origPos&quot;:null}" fill="#3f3f3f" stroke-width="0"/><g stroke-width="0"><g data-paper-data="{&quot;origPos&quot;:null}" fill="#5a5a5a"><g data-paper-data="{&quot;origPos&quot;:null}"><path d="M348.65606,195.1109l-2.64688,-13.49282l3.50466,-0.68749l2.64686,13.49281z" data-paper-data="{&quot;origPos&quot;:null}"/></g><g data-paper-data="{&quot;origPos&quot;:null}"><path d="M354.61393,193.94214l-2.64687,-13.49281l3.50467,-0.68749l2.64686,13.49281z" data-paper-data="{&quot;origPos&quot;:null}"/><path d="M360.74706,192.73902l-2.64686,-13.49282l3.50466,-0.68749l2.64686,13.49282z" data-paper-data="{&quot;origPos&quot;:null}"/></g></g><g data-paper-data="{&quot;origPos&quot;:null}" fill="#5a5a5a"><g data-paper-data="{&quot;origPos&quot;:null}"><path d="M367.23065,191.46718l-2.64687,-13.49281l3.50466,-0.68749l2.64686,13.49283z" data-paper-data="{&quot;origPos&quot;:null}"/><path d="M373.36377,190.26408l-2.64685,-13.49281l3.50466,-0.68749l2.64684,13.4928z" data-paper-data="{&quot;origPos&quot;:null}"/></g><g data-paper-data="{&quot;origPos&quot;:null}"><path d="M379.32161,189.09534l-2.64686,-13.49282l3.50463,-0.6875l2.64686,13.49282z" data-paper-data="{&quot;origPos&quot;:null}"/><path d="M385.45475,187.89223l-2.64686,-13.49282l3.50464,-0.6875l2.64687,13.49281z" data-paper-data="{&quot;origPos&quot;:null}"/></g></g><path d="M352.22091,194.41158l-0.49068,2.06411l-5.13504,1.05122l-2.02254,-9.58641l1.37878,-6.31114l2.7145,13.47958z" fill="#3a3a3a"/><path d="M358.17636,193.24332l-0.49066,2.06412l-5.13504,1.05122l-2.02254,-9.58641l1.37877,-6.31113l2.71451,13.47957z" fill="#3a3a3a"/><path d="M364.26714,192.04852l-0.49068,2.06412l-5.13504,1.05122l-2.02254,-9.5864l1.37877,-6.31113l2.7145,13.47958z" fill="#3a3a3a"/><path d="M370.83173,190.76077l-0.49068,2.06411l-5.13504,1.05122l-2.02254,-9.58641l1.37877,-6.31113l2.71452,13.47957z" fill="#3a3a3a"/><path d="M376.99018,189.55268l-0.49068,2.06411l-5.13504,1.05122l-2.02254,-9.58641l1.37877,-6.31113l2.71452,13.47957z" fill="#3a3a3a"/><path d="M382.87798,188.3977l-0.49068,2.06412l-5.13503,1.05121l-2.02254,-9.58641l1.37877,-6.31113l2.71452,13.47958z" fill="#3a3a3a"/><path d="M389.04424,187.18809l-0.49068,2.06411l-5.13504,1.05122l-2.02253,-9.5864l1.37877,-6.31114l2.7145,13.47958z" fill="#3a3a3a"/></g><g stroke-width="0"><g data-paper-data="{&quot;origPos&quot;:null}" fill="#5a5a5a"><g data-paper-data="{&quot;origPos&quot;:null}"><path d="M306.2355,203.43236l-2.64686,-13.49282l3.50467,-0.68749l2.64686,13.49281z" data-paper-data="{&quot;origPos&quot;:null}"/></g><g data-paper-data="{&quot;origPos&quot;:null}"><path d="M312.19337,202.26366l-2.64685,-13.4928l3.50466,-0.68749l2.64686,13.49282z" data-paper-data="{&quot;origPos&quot;:null}"/><path d="M318.32649,201.06053l-2.64686,-13.49282l3.50466,-0.6875l2.64686,13.49282z" data-paper-data="{&quot;origPos&quot;:null}"/></g></g><g data-paper-data="{&quot;origPos&quot;:null}" fill="#5a5a5a"><g data-paper-data="{&quot;origPos&quot;:null}"><path d="M324.81005,199.78868l-2.64686,-13.49282l3.50467,-0.68749l2.64686,13.49281z" data-paper-data="{&quot;origPos&quot;:null}"/><path d="M330.94321,198.58556l-2.64686,-13.49283l3.50467,-0.68748l2.64685,13.49281z" data-paper-data="{&quot;origPos&quot;:null}"/></g><g data-paper-data="{&quot;origPos&quot;:null}"><path d="M336.90111,197.41682l-2.64686,-13.49282l3.50467,-0.68749l2.64686,13.49282z" data-paper-data="{&quot;origPos&quot;:null}"/><path d="M343.03421,196.21371l-2.64686,-13.49282l3.50467,-0.68749l2.64686,13.49284z" data-paper-data="{&quot;origPos&quot;:null}"/></g></g><path d="M309.80027,202.73308l-0.49068,2.06412l-2.6704,0.56776l-0.39386,-1.9345z" fill="#3a3a3a"/><path d="M315.75582,201.56483l-0.49065,2.06412l-5.13504,1.05122l-2.02253,-9.5864l1.37877,-6.31113l2.71451,13.47958z" fill="#3a3a3a"/><path d="M321.84658,200.36998l-0.49068,2.06411l-5.13504,1.05122l-2.02254,-9.5864l1.37878,-6.31114l2.71452,13.47959z" fill="#3a3a3a"/><path d="M328.4111,199.08226l-0.49068,2.06411l-5.13504,1.05124l-2.02253,-9.58641l1.37878,-6.31114l2.71451,13.47958z" fill="#3a3a3a"/><path d="M334.56966,197.87422l-0.49067,2.06411l-5.13504,1.05122l-2.02254,-9.58641l1.37878,-6.31114l2.71451,13.47959z" fill="#3a3a3a"/><path d="M340.45742,196.71919l-0.49066,2.06411l-5.13504,1.05122l-2.02254,-9.5864l1.37878,-6.31114l2.71451,13.47958z" fill="#3a3a3a"/><path d="M346.62375,195.50963l-0.49065,2.06412l-5.13504,1.05122l-2.02254,-9.58641l1.37878,-6.31113l2.71451,13.47958z" fill="#3a3a3a"/></g><g><g data-paper-data="{&quot;origPos&quot;:null}"><g data-paper-data="{&quot;origPos&quot;:null}" fill="none" stroke-width="1" font-family="sans-serif" font-weight="normal" font-size="12" text-anchor="start"/><g data-paper-data="{&quot;origPos&quot;:null}" fill="#4b4b4b" stroke-width="0"><path d="M314.16692,210.39202l-0.43747,-2.23025l3.67984,-0.72186l0.43748,2.23024z" data-paper-data="{&quot;origPos&quot;:null}"/><path d="M308.01192,211.48367l-0.43748,-2.23025l3.67985,-0.72187l0.43748,2.23025z" data-paper-data="{&quot;origPos&quot;:null}"/></g></g><g data-paper-data="{&quot;origPos&quot;:null,&quot;index&quot;:null}" fill="#4b4b4b" stroke-width="0"><g data-paper-data="{&quot;origPos&quot;:null}"><path d="M332.96857,206.47218l-0.43747,-2.23024l3.67985,-0.72187l0.43747,2.23024z" data-paper-data="{&quot;origPos&quot;:null}"/><path d="M339.07982,205.15753l-0.43747,-2.23023l3.67985,-0.72187l0.43747,2.23024z" data-paper-data="{&quot;origPos&quot;:null}"/></g><g data-paper-data="{&quot;origPos&quot;:null}"><path d="M320.72417,208.98998l-0.43747,-2.23024l3.67985,-0.72187l0.43747,2.23024z" data-paper-data="{&quot;origPos&quot;:null}"/><path d="M326.83539,207.6753l-0.43747,-2.23025l3.67986,-0.72188l0.43747,2.23024z" data-paper-data="{&quot;origPos&quot;:null}"/></g></g></g></g><path d="M133.34865,207.47645l0.20879,-4.33644c0,0 3.91898,-3.97625 7.35516,-4.80318c3.9283,-0.94537 33.34149,-6.68979 33.34149,-6.68979c0,0 1.01072,1.7132 1.19308,2.91786c0.23494,1.55199 -1.25156,4.96664 -1.25156,4.96664z" fill="#242424" stroke-width="0"/><path d="M157.03564,198.94722l-0.60643,-3.09139l17.66512,-3.4653l0.60642,3.09141z" fill="#313131" stroke-width="0"/><path d="M154.17512,201.47579l-0.12556,-0.64003c0,0 0.84555,-1.23708 1.84947,-1.43401c0.95335,-0.18699 3.19184,-0.14213 5.62931,-0.4538c4.64338,-0.59373 10.18609,-1.57743 10.18609,-1.57743l0.12555,0.64003c0,0 -5.32712,1.04292 -9.90651,1.62468c-2.49866,0.31743 -4.83401,0.19571 -5.82293,0.38968c-1.03947,0.20391 -1.93545,1.45086 -1.93545,1.45086z" fill="#616161" stroke-width="0"/><path d="M177.77647,180.83562l13.03851,0.52657l31.29524,-0.72983c0,0 0.76257,0.07886 -7.32473,0.92323c-2.75116,0.28721 -13.50028,0.75615 -22.91688,0.66427c-2.54801,-0.02487 -16.29507,-0.83451 -16.29507,-0.83451z" fill="#df8cb7" stroke-width="0"/><path d="M1.29565,221.91227l-1.14211,-5.82215c0,0 5.32475,-2.83092 9.05741,-3.5631c3.05584,-0.59944 12.05452,1.20804 12.05452,1.20804l2.22974,12.06721z" fill="#626061" stroke-width="0"/><path d="M117.10684,209.37007l4.20769,1.72837l11.76339,-3.65596l49.79591,-9.76828l0.21006,1.07063c0,0 -37.38226,7.18511 -49.01258,9.73384c-3.1931,0.69974 -12.57229,3.27423 -12.57229,3.27423z" fill="#ffa6d4" stroke-width="0"/><path d="M10.77358,285.20181l-1.38014,-7.03552l19.7883,-20.82896l1.054,13.72265l-11.66195,12.61172z" fill="#3f3d3e" stroke-width="0"/><path d="M8.19991,280.55004c0,0 -3.59886,-19.32044 -4.65299,-28.87961c-1.18975,-10.78899 -2.12815,-32.6127 -2.12815,-32.6127c0,0 8.417,-1.8441 12.24887,-0.91859c3.27957,0.79211 9.3444,6.13394 9.3444,6.13394l6.4586,32.92405c0,0 -8.99819,15.72435 -11.55123,18.52735c-3.92703,4.31152 -9.71945,4.82554 -9.71945,4.82554z" fill="#555354" stroke-width="0"/><path d="M3.31091,229.48706c0,0 -2.66498,-5.58435 -1.15668,-8.62886c1.5083,-3.04452 5.58072,-4.87971 8.09314,-5.37252c2.00421,-0.39316 6.167,-1.12951 9.84488,2.69247c3.67789,3.82198 3.07818,10.73683 3.07818,10.73683c0,0 -8.18466,-8.99643 -10.77512,-8.92179c-3.65538,0.10528 -9.08441,9.49391 -9.08441,9.49391z" fill="#6f6b6c" stroke-width="0"/><path d="M7.71185,285.61047c0,0 -3.3345,-25.90516 -5.53741,-37.13491c-2.29417,-11.69493 -6.4927,-31.98459 -6.4927,-31.98459c0,0 1.01079,-0.85345 2.03215,-1.05385c0.93392,-0.18324 2.59524,0.14615 2.59524,0.14615c0,0 3.47699,18.83827 5.53579,29.33312c2.39185,12.19311 5.23252,40.03394 5.23252,40.03394z" fill="#333232" stroke-width="0"/><path d="M7.37452,286.12875l-1.7576,-14.64379c0,0 1.20659,0.66915 1.78735,0.51581c0.73333,-0.19362 2.10225,-1.92708 2.10225,-1.92708l1.76285,15.29098z" fill="#2e2d2d" stroke-width="0"/><path d="M25.67495,245.58794c1.57167,8.01195 -0.80684,17.31165 -4.52693,21.0246c-3.08969,3.08373 -9.1472,11.15871 -10.71883,3.1468c-0.33343,-1.69971 -0.61432,-13.75034 -1.8415,-20.67341c-1.62294,-9.15563 -4.19669,-13.72661 -3.80188,-16.68964c0.71391,-5.35764 5.8491,-7.87268 8.02221,-8.29899c4.2836,-0.84029 11.29533,13.4787 12.86698,21.49062z" fill="#585758" stroke-width="0"/><path d="M62.20314,252.77375l-0.91661,-1.59412c0,0 7.53125,-2.85365 13.34349,-4.48722c8.1823,-2.29965 31.11956,-8.00924 31.11956,-8.00924l2.00895,0.91154c0,0 -24.3291,6.42386 -32.73199,8.85476c-2.46783,0.71394 -12.82343,4.32429 -12.82343,4.32429z" fill="#585657" stroke-width="0"/><path d="M58.96398,266.86126l2.45717,-14.43435l6.92383,-2.32698c0,0 -0.87526,4.56738 -0.6452,5.2918c1.09921,3.46146 8.65369,26.40336 8.65369,26.40336c0,0 -1.36503,0.71659 -2.89325,-0.89492c-2.74203,-2.89154 -5.86408,-9.27189 -7.9882,-10.99797c-1.83515,-1.49128 -6.50804,-3.04094 -6.50804,-3.04094z" fill="#5a5759" stroke-width="0"/><path d="M65.32937,234.22145l0.6532,-11.67747l2.2683,-0.55821l-1.70077,12.10938z" fill="#a5a0a2" stroke-width="0"/><path d="M71.78352,231.85121l-0.27003,-1.37652l26.0007,-5.10046l0.27004,1.37652z" fill="#494748" stroke-width="0"/><path d="M71.13248,228.95098l-0.27003,-1.37652l26.0007,-5.10046l0.27003,1.37652z" fill="#494748" stroke-width="0"/><path d="M56.37594,254.68057l-3.87658,-19.76169l10.16724,-11.794l4.69394,-1.23849l-7.72984,45.14587l-5.89192,-0.88577z" fill="#dbd5d8" stroke-width="0"/><path d="M32.66646,271.47302l-2.42465,-11.53992l26.00399,-5.90564c0,0 0.81261,2.4267 0.83854,3.23534c0.06474,2.01572 -0.56949,9.21016 -0.56949,9.21016z" fill="#ccc6c9" stroke-width="0"/><path d="M34.19282,259.56612l-0.0608,-0.30989l22.2231,-5.24443l-2.32874,1.66369c0,0 -4.20495,1.01463 -6.86911,1.50488c-3.64794,0.6713 -12.96448,2.38575 -12.96448,2.38575z" fill="#d8d1d5" stroke-width="0"/><path d="M36.92316,255.22249l-3.27246,-16.68206l15.82344,-3.10403l3.27246,16.68207z" fill="#a39999" stroke-width="0"/><path d="M32.42779,271.69282l-2.18662,-11.14686c0,0 9.90101,4.56615 14.55808,6.03782c4.65706,1.47162 10.98278,-0.05458 10.98278,-0.05458z" fill="#b4afb1" stroke-width="0"/><path d="M66.60495,271.14621c0,0 3.17311,0.43789 4.22104,0.08581c0.64377,-0.21631 1.46858,-1.99726 1.46858,-1.99726l3.37409,8.58425l0.80755,4.11667c0,0 -1.84674,0.67962 -3.59905,-1.60844c-1.44576,-1.88784 -6.27226,-9.18096 -6.27226,-9.18096z" fill="#504e4f" stroke-width="0"/><path d="M59.36986,267.34858l6.15554,-43.74667l1.75048,-0.13434l-5.97592,44.1295z" fill="#858183" stroke-width="0"/><path d="M35.00312,230.59573l1.16871,-1.91118c0,0 26.77892,-5.9093 38.95713,-8.29825c10.56983,-2.07344 31.41545,-5.80293 31.41545,-5.80293l0.89331,1.80316c0,0 -21.03487,3.40693 -32.17615,5.59245c-12.72187,2.49561 -40.2584,8.61678 -40.2584,8.61678z" fill="#918b8e" stroke-width="0"/><path d="M35.76538,229.19198l1.61231,-2.29467c0,0 25.3362,-5.32982 37.51438,-7.71875c10.56981,-2.07344 31.41547,-5.80294 31.41547,-5.80294l0.89329,1.80315c0,0 -21.03486,3.40693 -32.17615,5.59245c-12.72188,2.49561 -39.25925,8.42076 -39.25925,8.42076z" fill="#a59fa2" stroke-width="0"/><path d="M103.16699,237.1523l-2.9834,-5.20569c0,0 -0.02431,-1.22322 0.28076,-1.39803c0.26876,-0.15401 1.45448,0.40358 1.45448,0.40358l2.98338,5.20568c0,0 -0.10204,0.91439 -0.37139,1.06875c-0.3047,0.17461 -1.36383,-0.07427 -1.36383,-0.07427z" fill="#494242" stroke-width="0"/><path d="M64.15547,247.50418l1.65061,-9.99029l3.81305,-0.74798l-1.65061,9.99028z" fill="#9c989a" stroke-width="0"/><path d="M70.12193,228.21879l1.62977,-1.30607l23.98526,-4.68669l2.16315,0.54368z" fill="#757274" stroke-width="0"/><path d="M70.75563,230.95936l1.62978,-1.30608l23.98523,-4.6867l2.16318,0.54367z" fill="#757274" stroke-width="0"/><path d="M29.86316,271.19422l-9.52018,-57.39861l1.99618,0.20022l10.13271,57.68724z" fill="#686666" stroke-width="0"/><path d="M29.75485,271.49095l-2.48683,-16.07775l2.98326,3.30601l2.13398,13.14511z" fill="#535252" stroke-width="0"/><path d="M55.52238,243.12553c0,0 1.6328,-2.7105 1.45055,-3.63957c-0.17883,-0.91174 -2.53408,-1.88388 -2.53408,-1.88388c0,0 3.07484,0.0793 3.29757,1.75612c0.16966,1.27721 -0.43989,3.6275 -0.31343,4.72607c0.35957,3.12367 1.09816,10.46616 1.09816,10.46616z" fill="#c4bec1" stroke-width="0"/><path d="M62.68681,239.77207l-0.08672,-10.37272l1.66299,-4.76354l-0.76546,9.89053z" fill="#aca7a9" stroke-width="0"/></g></g><g stroke-width="0"><path d="M173.1803,189.73604l1.8663,-3.75876c0,0 1.49715,-1.7574 2.3596,-1.64635c0.98335,0.12662 3.22547,2.36544 3.22547,2.36544l0.25396,4.10991c0,0 -4.2026,0.81672 -5.4709,0.92968c-0.57177,0.05092 -2.23445,-1.9999 -2.23445,-1.9999z" fill="#c0c0c0"/><path d="M132.92198,207.46842c0,0 -0.72755,-2.79218 0.09252,-4.11365c1.02774,-1.65604 6.56813,-4.99723 6.56813,-4.99723l0.21461,4.78532l0.56235,2.86657z" fill="#838383"/><path d="M132.73864,207.42862l6.51303,-8.9015l36.8598,-7.23065l1.44012,7.34135z" fill="#999999"/><path d="M133.59265,206.59214l4.9201,-6.91758l33.14066,-6.50109l1.12442,5.73188c0,0 -4.01113,0.78686 -9.17099,1.79908c-3.35475,0.65807 -7.39946,0.36926 -10.93869,1.06355c-3.7967,0.74478 -7.04248,2.46376 -9.17496,2.88211c-4.17361,0.81871 -9.90051,1.94215 -9.90051,1.94215z" fill="#2e2e2e"/><path d="M137.0191,205.91776l7.07598,-7.40386l12.23098,-2.39931c0,0 -6.87097,3.29158 -9.02069,4.64525c-2.28219,1.43708 -5.02804,4.12645 -5.02804,4.12645z" fill="#a5899d"/><path d="M144.83715,204.26924c0,0 4.80289,-1.93283 7.21408,-2.40581c3.08085,-0.60436 9.75932,-0.92377 9.75932,-0.92377l-9.53806,1.52943z" fill="#adadad"/><path d="M132.83777,207.39064l5.88308,-8.03439l34.31274,-6.73098l0.13258,0.67571c0,0 -29.71053,5.8282 -33.58335,6.58791c-0.81007,0.15894 -6.745,7.50178 -6.745,7.50178z" fill="#8a8a8a"/><path d="M180.32332,204.43026l-1.87788,-9.57288l-0.74775,-7.19246c0,0 1.2554,0.23256 1.90744,0.67892c0.65202,0.44634 1.24542,1.47922 1.24542,1.47922l1.44816,14.2197z" fill="#9e9e9e"/><path d="M174.15928,201.32801c0,0 -1.30374,-1.90967 -1.74381,-3.44274c-0.59257,-2.06449 -0.81531,-7.64418 -0.81531,-7.64418l1.8425,-0.69301c0,0 0.8971,0.63089 1.33735,0.39254c0.60697,-0.32858 1.96765,-2.18195 1.96765,-2.18195l1.97407,12.67435z" fill="#9c9c9c"/><path d="M175.07487,203.01401c-0.98035,-0.93318 -1.00876,-2.3269 -1.00876,-2.3269l3.40038,-8.00467c0,0 2.11517,3.54285 2.29158,4.4422c0.50155,2.55679 2.40354,7.02392 2.40354,7.02392c0,0 -2.90822,0.65584 -4.01211,0.42539c-1.32393,-0.27637 -2.09428,-0.62681 -3.07467,-1.55997z" fill="#888888"/><path d="M176.67327,201.91145c-1.35471,-1.77212 -3.20548,-5.95718 -2.17886,-10.30286c1.0266,-4.34567 3.80604,-2.71909 3.80604,-2.71909c0,0 1.83907,4.14653 2.28433,6.41612c0.40558,2.06743 0.27914,6.65164 0.27914,6.65164c0,0 -2.83591,1.72632 -4.19063,-0.04582z" fill="#b4b4b4"/><path d="M179.27589,193.55889c0.27159,1.38467 -4.72785,2.4443 -4.9995,1.05962c-0.27159,-1.38467 1.69001,-7.27463 2.48723,-7.43102c0.30876,-0.06056 0.96017,-0.08458 1.35717,0.91845c0.62805,1.58685 0.98865,4.60452 1.15506,5.45295z" fill="#bbbbbb"/></g><g stroke-width="0"><path d="M117.00939,209.37377c0,0 -6.69363,-3.69799 -7.05427,-5.53636c-0.29445,-1.50102 5.60519,-2.7838 5.60519,-2.7838l7.41799,-1.38196l-1.87396,11.35201z" fill="#f399c8"/><path d="M87.37021,216.86091c0,0 -1.35576,-1.87187 -1.30983,-2.97406c0.05072,-1.21633 1.37852,-5.15043 1.37852,-5.15043l22.57157,-4.61696l10.61539,6.70509z" fill="#ee96c3"/></g></g><g stroke-width="0"><g><path d="M177.27558,179.12332l-1.18997,-6.06622l46.92385,-9.20488l1.18998,6.06622z" fill="#61585b"/><path d="M176.49099,175.9719l-0.63723,-3.24844l47.10226,-9.23984l0.63723,3.24846c0,0 -8.47928,1.6633 -17.18963,3.37203c-2.72338,0.53427 -6.26002,2.77416 -8.77649,3.26777c-2.99235,0.58701 -6.49368,-0.27233 -8.41315,0.10419c-5.75561,1.12906 -12.72302,2.49584 -12.72302,2.49584z" fill="#494344"/><path d="M235.89056,157.58856l-12.80332,-16.7822l20.52798,-4.02687l18.36901,13.49062c0,0 -5.34129,2.43508 -8.46316,3.31071c-4.81733,1.35112 -17.63054,4.0078 -17.63054,4.0078z" fill="#5e555b"/><path d="M236.55387,160.959l-1.06616,-5.43489c0,0 11.78873,-3.79337 16.43932,-5.50012c3.69081,-1.35455 6.33197,-2.4658 6.33197,-2.4658l7.16398,5.66569c0,0 -4.92544,2.59275 -8.91027,3.82688c-5.3993,1.67211 -19.95882,3.90834 -19.95882,3.90834z" fill="url(#color-5)"/><path d="M221.45465,141.2884l-0.76924,-3.92142l18.79333,-3.68663l4.33762,3.22143z" fill="url(#color-6)"/><path d="M235.98583,161.09585l-0.24239,-1.23572c0,0 15.30308,-3.07981 20.55661,-4.28108c3.92833,-0.89826 7.96259,-3.29655 7.96259,-3.29655l1.09263,0.95222l-7.67179,3.60474z" fill="#312c30"/><g><path d="M134.81492,170.13952l-1.92742,-8.64908l92.16872,-18.0804l9.66935,9.60003z" fill="#8a6672"/><path d="M152.63982,175.08646c0,0 -4.14782,-2.86084 -7.18141,-3.7552c-3.0336,-0.89437 -9.91706,0.69792 -9.91706,0.69792l-0.2917,-2.06964c0,0 12.14603,-2.101 19.06223,-3.36063c16.52181,-3.00925 79.64019,-14.61685 79.64019,-14.61685l4.81958,5.74679z" fill="#755761"/><path d="M155.91452,176.98247l-3.46774,-1.96095l85.85407,-17.34034l1.77604,2.79147z" fill="#694e57"/><path d="M132.80204,161.91085l-0.87184,-4.4443l88.97707,-18.1466l4.86742,4.81433c0,0 3.34616,2.74524 -1.84605,3.738c-1.63455,0.31254 -11.23326,-1.2372 -12.87187,-0.92389c-15.78106,3.01738 -78.2547,14.96248 -78.2547,14.96248z" fill="#916b77"/><path d="M132.16767,157.42011l-0.6026,-2.45442l88.20057,-17.44336l1.48615,2.14635z" fill="#9e7582"/><path d="M205.03877,143.82219c-8.04164,0.91724 -71.69483,12.35183 -71.69483,12.35183l86.21098,-16.9117l6.14341,6.37785c0,0 -12.61788,-2.73525 -20.65953,-1.818z" fill="#b38f9a"/></g><path d="M186.20846,171.03694l-1.76592,-9.00222l19.83418,-3.89083l1.76592,9.00222z" fill="#3a3336"/><path d="M184.35715,162.05569l0.40996,-1.63194l18.19168,-3.56858l1.25982,1.30435z" fill="#4b4246"/><path d="M186.24986,170.51991l-1.57417,-8.02466c0,0 2.053,4.96347 4.8742,5.53741c2.8212,0.57396 15.97994,-1.29483 15.97994,-1.29483z" fill="#332c30"/><path d="M223.11501,143.22893l-5.00167,-5.1332c0,0 0.87546,-0.85115 1.46488,-0.96678c0.65894,-0.12926 2.30327,0.22755 2.30327,0.22755l5.00167,5.1332z" fill="#757575"/><path d="M226.99029,147.29355l-7.18675,-7.36659l3.76819,-0.73922l7.18675,7.36657z" fill="#5a5a5a"/><path d="M232.39722,152.80478l-7.18675,-7.36657l3.76817,-0.73921l7.18676,7.36659z" fill="#505050"/><path d="M237.98999,158.5147c-1.22749,-1.25821 -6.01689,-6.16748 -6.01689,-6.16748l3.76818,-0.73919l8.47799,8.86025c0,0 -1.91427,0.9212 -2.84888,1.08947c-0.72901,0.13126 -2.83914,-2.48825 -3.3804,-3.04306z" fill="#3b3b3b"/><path d="M133.80181,172.98591l-3.59485,-18.32545l3.12148,-0.61236l3.59483,18.32547z" fill="#443e42"/><path d="M115.58648,178.18858l-1.814,-5.68516l19.85027,-3.89397l1.14112,5.81712z" fill="url(#color-7)"/><path d="M113.89386,173.12227l-2.08803,-10.6441l19.85027,-3.89397l2.08801,10.64411z" fill="#5e555b"/><path d="M111.83013,162.60211l-0.0162,-4.23836l19.06518,-3.73995l0.80123,4.08437z" fill="url(#color-8)"/><path d="M180.05266,145.17856l-1.18063,-6.0186l14.94663,-1.84505l5.44268,3.73326z" fill="#5e555b"/><path d="M199.32978,141.39709l-5.494,-3.99491c0,0 3.09275,0.0971 5.47147,0.64774c2.37872,0.55066 6.39003,2.09805 6.39003,2.09805z" fill="#776b73"/><path d="M177.30938,146.8943l2.90061,-1.83719l25.06991,-5.1896l3.86717,0.78128z" fill="#6d6269"/></g><g><path d="M186.8637,166.86261c-0.2404,-1.22549 0.03772,-2.45879 0.22089,-3.54391c0.25518,-1.51204 0.61779,-2.79363 1.72446,-3.87303c0.676,-0.65931 1.71702,-1.26036 2.64121,-1.6866c0.61129,-0.28189 1.51472,-0.86683 2.20462,-1.00217c1.56389,-0.30677 1.91555,-0.29248 3.13928,-0.02708c0.73714,0.15988 2.43237,0.285 3.08673,0.84162c0.55383,0.47109 1.20332,1.31028 1.66946,1.91143c0.79659,1.02735 1.94295,2.7025 2.21029,4.06517c0.11294,0.57586 -0.11214,1.98394 -0.06164,2.49937c0.16029,1.6362 0.25764,2.1364 -0.72071,3.45289c-0.59464,0.80013 -1.96825,1.62785 -2.85469,2.21952c-0.91804,0.61277 -2.00329,1.70822 -3.15407,1.93395c-0.77672,0.15234 -2.28109,-0.09773 -3.05974,-0.08376c-1.68932,0.03028 -2.59831,0.03082 -3.828,-0.88984c-1.05456,-0.78952 -1.61798,-2.30776 -2.23673,-3.56986c-0.32504,-0.66307 -0.83233,-1.48849 -0.98126,-2.24766z" fill="#3a3a3a"/><path d="M187.55824,166.60546c-0.22001,-1.12143 0.03454,-2.25002 0.20212,-3.24302c0.23355,-1.3837 0.56528,-2.55641 1.57805,-3.54422c0.61859,-0.60334 1.57126,-1.15338 2.41697,-1.54338c0.55938,-0.25799 1.38612,-0.79324 2.01739,-0.91706c1.43112,-0.28075 1.7529,-0.26765 2.8727,-0.02477c0.67459,0.14634 2.22585,0.26079 2.82468,0.77013c0.50683,0.4311 1.10117,1.19908 1.52771,1.74916c0.72893,0.94008 1.77797,2.47305 2.02261,3.71998c0.10336,0.52694 -0.10263,1.81554 -0.05642,2.28717c0.14668,1.49729 0.2358,1.95501 -0.65951,3.15971c-0.54418,0.73219 -1.80115,1.48964 -2.61232,2.03106c-0.84006,0.56075 -1.83321,1.56319 -2.88627,1.76978c-0.71076,0.13943 -2.08736,-0.08941 -2.79993,-0.07663c-1.54593,0.02772 -2.37774,0.02822 -3.503,-0.81427c-0.96498,-0.7225 -1.4806,-2.11185 -2.0468,-3.26677c-0.29747,-0.60677 -0.76166,-1.36215 -0.89793,-2.0568z" fill="#5a5a5a"/><path d="M198.65031,159.81391c-2.46594,-1.94751 -7.50279,-1.16391 -7.50279,-1.16391c0,0 1.80199,-0.90378 3.75628,-1.28008c1.58305,-0.30484 3.19611,-0.24988 4.58441,0.80361c1.38942,1.05433 2.06177,2.43543 2.6118,3.74961c1.07848,2.57655 1.10942,5.0089 1.10942,5.0089c0,0 -2.09321,-5.17062 -4.55916,-7.11811z" fill="#6d6d6d"/><path d="M194.3891,165.76433c-0.11079,-0.56493 0.25728,-1.11273 0.82224,-1.2236c0.56493,-0.1108 1.11273,0.25729 1.22359,0.82225c0.11079,0.56493 -0.25729,1.11273 -0.82224,1.22359c-0.56493,0.1108 -1.11273,-0.25727 -1.22358,-0.82226z" fill="#272727"/><path d="M194.33787,165.91377c-0.10164,-0.51816 0.23599,-1.02063 0.75417,-1.12226c0.51816,-0.10164 1.02063,0.23599 1.12226,0.75417c0.10164,0.51816 -0.23599,1.02064 -0.75416,1.12228c-0.51816,0.10164 -1.02064,-0.23599 -1.12227,-0.75417z" fill="#131313"/></g></g></g></g></g><path d="M374.55931,179.81067c5.0061,0.32759 5.99337,7.08795 4.97372,15.06805c-1.01962,7.98009 -4.89957,14.17219 -8.66613,13.83041c-3.76654,-0.34175 -5.99337,-7.08795 -4.97372,-15.06805c1.01962,-7.98009 2.89874,-14.20783 8.66613,-13.83041z" data-paper-data="{&quot;index&quot;:null}" fill="#86c8f5" stroke-width="0"/><path d="M352.6866,197.01283c0.7461,-8.01029 2.14585,-12.4523 7.92278,-12.27237c5.01439,0.1562 6.49755,5.03246 5.75146,13.04274c-0.74609,8.0103 -4.41199,14.33146 -8.18803,14.11872c-3.77601,-0.21274 -6.23229,-6.87883 -5.48616,-14.88912z" data-paper-data="{&quot;index&quot;:null}" fill="#86c8f5" stroke-width="0"/><path d="M340.56086,203.68543c0.7461,-8.01029 2.4854,-15.50872 8.26232,-15.32877c5.01439,0.1562 6.15798,8.08885 5.41189,16.09916c-0.7461,8.01029 -4.61352,10.19016 -8.38956,9.97741c-3.77602,-0.21274 -6.03076,-2.73753 -5.28467,-10.74782z" data-paper-data="{&quot;index&quot;:null}" fill="#86c8f5" stroke-width="0"/><path d="M336.90433,192.89596c5.01439,0.1562 6.49755,5.03246 5.75146,13.04274c-0.7461,8.01029 -4.61352,10.19016 -8.38956,9.97741c-3.77602,-0.21274 -6.03076,-2.73753 -5.28467,-10.74782c0.7461,-8.01029 2.14585,-12.4523 7.92278,-12.27237z" data-paper-data="{&quot;index&quot;:null}" fill="#86c8f5" stroke-width="0"/></g><g stroke-width="0"><g><path d="M127.60279,308.7795l-1.07454,-5.47753c0,0 2.23371,-0.25672 2.88679,-1.36692c0.92269,-1.56841 2.36068,-7.08831 2.36068,-7.08831l2.17989,7.8204c0,0 -2.40684,3.7316 -3.74373,4.90839c-0.96524,0.84959 -2.60912,1.20395 -2.60912,1.20395z" fill="#4d484c"/><g><g><path d="M85.44401,305.48328l2.95101,-6.24699c0,0 13.88245,-11.84261 19.61994,-16.93382c4.41349,-3.91632 11.42541,-10.33691 11.42541,-10.33691l7.65704,25.34669z" fill="#eb59c1"/><path d="M84.739,294.28544l-6.20973,-28.61379c0,0 27.87901,-1.1851 35.20061,0.39172c5.31301,1.14423 6.59561,14.97651 6.59561,14.97651l-4.56193,7.15957z" fill="#dd54b6"/><path d="M77.56465,273.84198l-5.53614,-23.32993c0,0 14.93876,4.468 19.63023,4.32801c6.95185,-0.20747 19.00744,-5.3906 19.00744,-5.3906l5.01532,25.5666z" fill="#ff77d8"/><path d="M75.43617,266.70442l-2.70488,-13.78875l35.47454,-11.29595l2.2767,18.20974z" fill="#ee51c1"/></g><g><g><path d="M80.83357,295.68176l-12.80167,-39.07301l8.24424,-1.61723l12.80167,39.07301z" fill="#a59da1"/><path d="M68.03399,256.80254c0,0 -1.62526,-4.25898 -0.1078,-5.86285c1.51747,-1.60391 6.45588,-2.8307 6.45588,-2.8307l1.90961,7.0737z" fill="#b9b0b5"/><path d="M84.62952,305.78506l-3.74373,-10.14187l8.20483,-1.6095l3.74373,10.14186z" fill="#8b8488"/></g><g><path d="M119.61971,284.61174l-12.80166,-39.073l4.4543,-0.8738l12.80167,39.07299z" fill="#a59da1"/><path d="M107.16652,246.48672l-2.03941,-6.1639c0,0 2.74888,-1.23261 4.00595,-0.3076c1.25712,0.92501 2.15479,4.84086 2.15479,4.84086z" fill="#b9b0b5"/><path d="M123.40336,294.71753l-3.74373,-10.14188l4.42717,-0.86848l3.74374,10.14186z" fill="#8b8488"/></g><path d="M87.22165,314.01604c0,0 -3.73698,-2.06197 -4.41299,-3.44227c-0.75252,-1.53647 0.10275,-5.3585 0.10275,-5.3585l45.92983,-13.48849c0,0 2.42569,1.90254 3.12545,3.27994c0.98077,1.93066 -2.20408,7.56364 -2.20408,7.56364z" fill="#494547"/><path d="M75.45792,251.90399c0,0 -2.38229,-0.11082 -2.91548,-0.59144c-0.58551,-0.5278 0.27188,-2.81827 0.27188,-2.81827c0,0 11.62399,-3.31146 16.74041,-4.64342c5.96458,-1.55278 16.16725,-3.74151 16.16725,-3.74151c0,0 0.75678,1.09877 0.78799,1.70144c0.03026,0.58365 -0.20754,1.78159 -0.20754,1.78159z" fill="#c2b8bd"/><path d="M87.33521,312.74976c0,0 -1.75749,-2.54457 -2.31758,-4.14224c-0.46487,-1.32591 -0.57995,-3.60371 -0.57995,-3.60371l43.22622,-12.61364c0,0 2.59742,2.70352 2.91746,4.3351c0.34385,1.75278 -1.15166,4.66636 -1.15166,4.66636z" fill="#6f696b"/><path d="M99.29453,315.93693l-1.07452,-5.47752l28.92734,-7.30994l1.07453,5.47752z" fill="#333032"/><path d="M88.00075,318.27612c-1.21466,-0.42201 -3.14542,-1.53692 -3.14542,-1.53692l-2.16623,-6.52439c0,0 2.86489,1.75369 4.31173,2.85729c1.02409,0.78116 11.24428,-2.73126 11.24428,-2.73126l1.07455,5.47753c0,0 -10.10419,2.87974 -11.31887,2.45776z" data-paper-data="{&quot;index&quot;:null}" fill="#444043"/><g><path d="M77.65779,266.72592c0,0 -3.44927,-4.15587 -3.81046,-5.86044c-0.25004,-1.18014 1.85137,-3.38508 1.85137,-3.38508l33.82403,-9.7172c0,0 2.16522,2.75867 2.48811,4.28239c0.33,1.55738 -0.52908,4.96311 -0.52908,4.96311z" fill="#979797"/><path d="M77.50501,265.66948c0,0 -3.36488,-3.61715 -3.6944,-5.11966c-0.22815,-1.04028 1.90699,-3.02999 1.90699,-3.02999l33.90343,-9.21003c0,0 2.10961,2.40326 2.40417,3.74642c0.30108,1.37273 -0.61672,4.40322 -0.61672,4.40322z" fill="#a2a2a2"/></g><g><path d="M83.17789,282.49794c0,0 -3.44927,-4.15587 -3.81046,-5.86044c-0.25004,-1.18014 1.85136,-3.38509 1.85136,-3.38509l33.82403,-9.71719c0,0 2.16524,2.75866 2.48813,4.28238c0.33,1.55738 -0.52909,4.9631 -0.52909,4.9631z" fill="#979797"/><path d="M83.02509,281.44152c0,0 -3.36487,-3.61714 -3.69438,-5.11966c-0.22816,-1.04024 1.90699,-3.02999 1.90699,-3.02999l33.90344,-9.21c0,0 2.1096,2.40326 2.40417,3.74642c0.30107,1.37273 -0.61673,4.40321 -0.61673,4.40321z" fill="#a2a2a2"/></g><g><path d="M88.89831,298.73532c0,0 -3.44927,-4.15587 -3.81046,-5.86044c-0.25004,-1.18014 1.85137,-3.38508 1.85137,-3.38508l33.82403,-9.71719c0,0 2.16522,2.75867 2.48812,4.28239c0.33,1.55738 -0.52909,4.9631 -0.52909,4.9631z" fill="#7a7a7a"/><path d="M88.74552,297.67895c0,0 -3.36489,-3.61714 -3.6944,-5.11966c-0.22816,-1.04024 1.90699,-3.02997 1.90699,-3.02997l33.90346,-9.21004c0,0 2.10958,2.40328 2.40418,3.74643c0.30107,1.37273 -0.61672,4.40323 -0.61672,4.40323z" fill="#929292"/></g></g></g></g><path d="M82.19901,299.44313c0,0 -0.70871,-1.61014 -1.45267,-3.81887c-2.18399,-6.48466 -12.93717,-38.90709 -12.93717,-38.90709l3.93703,3.61269l8.99643,28.22073z" fill="#777275"/></g></g><path d="M111.24692,212.9244c-6.03106,-6.84215 -2.75892,-2.81509 9.25031,-8.92077c2.43714,-1.23908 10.74447,-8.88853 21.83985,-14.30923c12.52906,-6.12113 18.74012,-8.17045 30.94216,-10.78193c8.30342,-1.7771 8.89595,2.96667 14.32122,5.96005c5.42526,2.99339 1.76616,8.2014 -4.4758,7.0558c-1.28129,-0.23515 -9.82052,-4.27138 -11.74644,-3.13754c-8.88037,5.2281 -17.42671,8.17047 -17.42705,15.10456c-0.00002,0.68968 -0.78924,9.23354 3.82133,13.5785c2.3618,2.22572 9.70977,1.53495 11.89684,1.88947c6.45658,1.04665 14.57454,-4.61846 15.29243,-6.54021c2.15717,-5.77469 -3.18421,-12.0796 -3.25793,-14.69101c-0.0737,-2.6114 1.21558,-4.50387 2.67139,-6.0902c1.42078,-1.54815 4.21578,-1.03002 6.46703,1.33214c2.25125,2.36217 2.34221,7.68016 2.42791,8.00104c1.42001,5.31646 4.93849,15.81662 -1.18287,26.81768c-8.4791,15.23828 -19.44999,13.79903 -29.17452,13.20456c-2.93765,-0.17958 -4.07044,1.62326 -6.71477,2.08117c-1.23643,0.2141 -4.31093,-1.35335 -5.30914,-0.84585c-17.58249,8.93921 -18.77666,15.90988 -27.71586,-1.67263c-0.06763,-0.13303 -9.19396,-24.93613 -11.92607,-28.03564z" data-paper-data="{&quot;index&quot;:null}" fill="#86c8f5" stroke-width="0"/></g></g></svg>