<svg version="1.1" xmlns="http://www.w3.org/2000/svg" xmlns:xlink="http://www.w3.org/1999/xlink" width="469.70909" height="150.65934" viewBox="0,0,469.70909,150.65934"><defs><linearGradient x1="533.4158" y1="214.82195" x2="532.72446" y2="219.58356" gradientUnits="userSpaceOnUse" id="color-1"><stop offset="0" stop-color="#1f1d20"/><stop offset="1" stop-color="#202022"/></linearGradient><linearGradient x1="534.54842" y1="210.08034" x2="533.75295" y2="215.55912" gradientUnits="userSpaceOnUse" id="color-2"><stop offset="0" stop-color="#302d31"/><stop offset="1" stop-color="#1f1e20"/></linearGradient><linearGradient x1="196.33091" y1="209.54696" x2="195.84377" y2="212.90177" gradientUnits="userSpaceOnUse" id="color-3"><stop offset="0" stop-color="#585758"/><stop offset="1" stop-color="#575758"/></linearGradient><linearGradient x1="181.90561" y1="217.63664" x2="181.5232" y2="220.27039" gradientUnits="userSpaceOnUse" id="color-4"><stop offset="0" stop-color="#363536"/><stop offset="1" stop-color="#353536"/></linearGradient><linearGradient x1="337.1189" y1="146.39818" x2="336.3231" y2="151.8792" gradientUnits="userSpaceOnUse" id="color-5"><stop offset="0" stop-color="#5e555b"/><stop offset="1" stop-color="#2b2629"/></linearGradient><linearGradient x1="330.43215" y1="124.54364" x2="329.85796" y2="128.49829" gradientUnits="userSpaceOnUse" id="color-6"><stop offset="0" stop-color="#72676e"/><stop offset="1" stop-color="#5e555b"/></linearGradient><linearGradient x1="216.6505" y1="122.06763" x2="215.7987" y2="127.93414" gradientUnits="userSpaceOnUse" id="color-7"><stop offset="0" stop-color="#5e555b"/><stop offset="1" stop-color="#4d454a"/></linearGradient><linearGradient x1="218.6984" y1="107.96322" x2="218.10035" y2="112.08229" gradientUnits="userSpaceOnUse" id="color-8"><stop offset="0" stop-color="#74686f"/><stop offset="1" stop-color="#5e555b"/></linearGradient></defs><g transform="translate(-68.59263,-106.62491)"><g data-paper-data="{&quot;isPaintingLayer&quot;:true}" fill-rule="nonzero" stroke="none" stroke-linecap="butt" stroke-linejoin="miter" stroke-miterlimit="10" stroke-dasharray="" stroke-dashoffset="0" style="mix-blend-mode: normal"><g><g stroke-width="0"><path d="M259.23565,203.53173l-7.91911,-16.65599l25.39487,3.09083c0,0 -1.9246,5.61049 -2.51018,8.2523c-0.56641,2.5555 -0.94773,7.34817 -0.94773,7.34817z" fill="#7f7d7e"/><path d="M259.3048,203.74053l-2.79619,-6.07171c0,0 1.82329,3.85709 4.93749,4.93043c2.24253,0.77287 4.15366,0.73717 6.76121,1.43994c2.60752,0.70278 4.92066,1.70845 4.92066,1.70845z" fill="#6c6a6b"/></g><g><g><g><path d="M529.76436,219.15376l-1.34627,-5.05752c0,0 5.69111,2.50157 8.13322,3.75835c2.44215,1.25682 0.75638,2.16011 0.75638,2.16011z" fill="url(#color-1)" stroke-width="0"/><path d="M538.06709,210.793c0,0 1.12979,2.51624 -1.5689,3.02666c-2.69867,0.51041 -5.74734,1.30359 -5.74734,1.30359l-0.16508,-5.61825z" data-paper-data="{&quot;index&quot;:null}" fill="url(#color-2)" stroke-width="0"/><path d="M520.24696,217.76726l0.30149,-2.07658l14.61924,2.12266c0,0 1.13043,0.96676 1.56051,1.3993c0.38664,0.38884 -0.86232,0.8224 -0.86232,0.8224z" fill="#444444" stroke-width="NaN"/><path d="M520.56121,215.83743l-0.92628,-1.90677l12.48478,1.81272l3.12285,2.11273c0,0 -4.20829,-0.37054 -6.49169,-0.6845c-2.57521,-0.35411 -8.18964,-1.33421 -8.18964,-1.33421z" fill="#535353" stroke-width="0"/><path d="M519.50427,214.04986l-0.22944,-0.68001l11.3547,1.64861l1.59244,0.76245z" fill="#363636" stroke-width="0"/><path d="M520.24696,217.76726l0.16358,-1.12657c0,0 6.32148,1.3762 9.17136,1.79001c2.41505,0.35065 6.84047,0.53486 6.84047,0.53486c0,0 0.78876,0.58158 1.00435,0.81791c0.18191,0.19935 -0.31404,0.43263 -0.31404,0.43263c0,0 -4.7418,-0.27976 -7.03148,-0.61222c-3.08916,-0.44851 -9.83413,-1.8366 -9.83413,-1.8366z" fill="#3a3a3a" stroke-width="NaN"/><path d="M519.58988,213.434l-0.42079,-0.9541l13.50008,1.96018l-1.93456,0.64635z" fill="#242424" stroke-width="0"/><path d="M518.3422,212.5511l0.23773,-1.63716c0,0 8.039,0.95889 11.00363,1.38931c2.01985,0.2933 5.0644,0.94371 5.0644,0.94371l-2.00885,1.21327z" fill="#3a3a3a" stroke-width="0"/><path d="M518.44558,210.93741l0.29349,-2.02137c0,0 7.62126,0.77324 10.90118,1.24946c2.83824,0.41211 7.64548,1.44346 7.64548,1.44346l-2.68658,1.67389c0,0 -3.60515,-0.60679 -5.82629,-0.92931c-2.95242,-0.42866 -10.32726,-1.41613 -10.32726,-1.41613z" fill="#444444" stroke-width="0"/><path d="M518.68414,208.99409l0.1223,-0.84225c0,0 7.80986,1.00895 11.36977,1.52585c2.4788,0.3599 7.94606,1.27875 7.94606,1.27875l-0.97838,0.71792c0,0 -4.96006,-1.01186 -7.89452,-1.43793c-3.23301,-0.46942 -10.56524,-1.24233 -10.56524,-1.24233z" fill="#535353" stroke-width="0"/><path d="M518.666,208.21745l0.04897,-0.33687c0,0 7.66952,0.60123 11.09398,1.09842c2.9607,0.42988 8.2646,1.71232 8.2646,1.71232l-0.0117,0.34231c0,0 -5.92283,-1.02664 -9.13419,-1.49294c-3.25334,-0.47238 -10.26152,-1.32325 -10.26152,-1.32325z" fill="#4e4e4e" stroke-width="0"/></g><g stroke-width="0"><g><g><g><path d="M514.52404,216.44317l-2.64275,-13.68543l0.79461,-1.62405c0,0 2.97476,3.69496 3.52976,6.29204c0.30129,1.40996 -0.24201,9.22633 -0.24201,9.22633z" fill="#383638"/><path d="M515.66367,215.90996c0,0 0.1454,-0.59496 -0.12398,-3.11471c-0.29372,-2.74785 -1.14919,-6.54726 -1.38388,-7.66658c-0.52695,-2.51251 -1.25527,-2.75009 -1.25527,-2.75009l4.83382,0.11393l2.96747,14.14897z" fill="#555355"/><path d="M512.95157,202.47227l-0.39814,-1.30715c0,0 2.11417,-0.50145 3.06577,-0.36324c0.89175,0.12945 1.91076,1.01232 1.91076,1.01232l0.38769,1.3791z" fill="#686668"/></g><path d="M508.91023,215.6281l-2.64275,-13.68542l0.46432,-1.65161c0,0 3.30505,3.7226 3.85997,6.31962c0.30129,1.40995 -0.242,9.22632 -0.242,9.22632z" fill="#383638"/><path d="M510.04982,215.09489c0,0 0.1454,-0.59497 -0.12397,-3.1147c-0.29372,-2.74785 -1.14919,-6.54726 -1.38388,-7.66658c-0.52695,-2.51251 -1.25527,-2.75009 -1.25527,-2.75009l4.16343,-0.48866c0,0 0.83525,1.38867 0.99587,2.15446c0.45762,2.1819 2.64196,12.59712 2.64196,12.59712z" fill="#555355"/><path d="M507.33771,201.65711l-0.61405,-1.33854c0,0 2.33011,-0.47007 3.28178,-0.33189c0.89175,0.12945 1.62286,0.97056 1.62286,0.97056l0.51142,1.39708z" fill="#686668"/><path d="M516.61633,215.04413c0.1177,-0.811 0.87069,-1.37298 1.68169,-1.25529c0.81101,0.11771 1.37298,0.87069 1.25529,1.68169c-0.1177,0.811 -0.87069,1.37298 -1.68168,1.25529c-0.81101,-0.11771 -1.37298,-0.87069 -1.25529,-1.68169z" fill="#312f31"/><path d="M517.686,212.23944l-1.18168,-5.77626l1.59546,0.08681l1.17242,5.8401z" fill="#444144"/></g><path d="M470.69944,205.06153l-2.1704,-11.25216l29.4032,5.45804l-1.85185,9.47936z" fill="#444444"/><path d="M483.77177,203.00299c0,0 0.70439,-0.42513 1.57791,-1.4148c0.79875,-0.90481 1.7505,-2.36109 2.19779,-2.76474c1.21031,-1.54865 3.49715,-0.74484 3.49715,-0.74484l-1.06323,0.50553l-5.07856,4.58314z" fill="#292929"/><path d="M485.0291,213.82539l-4.87021,-11.79357c0,0 3.38609,1.02846 5.22277,0.23512c1.42725,-0.61656 1.71225,-3.23473 3.3136,-3.28614c4.59442,-0.14727 17.39764,1.27327 17.39764,1.27327c0,0 2.17985,7.53641 2.68264,10.52675c0.34709,2.06442 0.11749,6.50957 0.11749,6.50957z" fill="#4a464a"/><path d="M491.00685,201.44738c-4.42206,-1.28475 -2.80024,-2.42754 -2.80024,-2.42754c0,0 0.97163,-1.17477 2.84054,-1.05115c4.58635,0.3035 13.05679,2.11629 14.76489,2.3384c0.80554,0.10472 0.243,0.73838 0.243,0.73838c0,0 -1.81678,2.1472 -3.3878,2.17578c-1.57107,0.02858 -7.23833,-0.48909 -11.66042,-1.77386z" fill="#5e595e"/></g><g><path d="M472.40285,218.63637l-2.53061,-18.49099l18.67039,3.00019l4.12771,4.97309l6.05006,0.77887l1.00877,13.70654z" fill="#4d4846"/><path d="M476.98913,219.69351l21.79133,-6.32598l22.12489,2.96747c0,0 0.69734,4.32798 0.64422,5.68907c-0.02715,0.69394 -0.57642,2.89126 -0.57642,2.89126z" fill="#423d3b"/><path d="M474.40912,210.92072l-1.73171,-10.20083l0.812,0.11792l1.73172,10.20084z" fill="#363332"/><path d="M477.6838,218.9843l0.17492,-1.20474c0,0 5.57561,-1.76255 14.54639,-0.46007c1.19193,0.17307 5.03041,3.30253 6.23174,3.47696c7.62219,1.1067 15.08279,2.18995 17.92117,2.60206c2.31153,0.33563 4.85877,-0.60818 4.85877,-0.60818l-0.36175,2.49129z" fill="#312e2c"/><path d="M481.85972,206.71684l-1.06233,-4.81801l8.22147,1.19374l3.47661,4.97246l6.2132,1.09825l-7.79098,0.83799z" fill="#585350"/><path d="M471.46144,212.30639l0.1621,-1.11651c0,0 8.50027,-2.54863 11.34762,-2.13525c4.29137,0.62305 16.13842,2.34323 16.13842,2.34323l-0.1621,1.11651c0,0 -12.05022,-1.74962 -16.34148,-2.37271c-2.78889,-0.40495 -11.14466,2.16469 -11.14466,2.16469z" fill="#2b2827"/></g></g></g><g><g><g><path d="M134.17273,206.43482c0.21418,2.28853 -0.46412,4.80677 -1.58176,4.9113c-1.1176,0.10461 -2.25142,-2.24398 -2.4656,-4.53254c-0.21418,-2.28853 -1.09481,-11.07663 0.02287,-11.18128c1.1176,-0.10461 3.81033,8.51393 4.02453,10.80245z" fill="#615e5f" stroke-width="0"/><g><path d="M179.63407,182.79283c-0.45792,-0.59961 -2.5857,-2.23473 -2.5857,-2.23473l10.2309,-1.4247l-6.9723,6.26316c0,0 -0.21496,-2.00407 -0.67289,-2.6037z" fill="#756a6a" stroke-width="0"/><path d="M170.94506,179.8162l1.97331,-13.59084l19.18398,-3.14274l-2.81628,19.39663z" fill="#8a7c7c" stroke-width="0"/><path d="M130.542,179.45404l9.20303,-16.98725l34.58996,4.88763l2.66624,13.18659c0,0 -22.97779,-1.74372 -30.72795,-1.92497c-3.21718,-0.07527 -15.73135,0.83809 -15.73135,0.83809z" fill="#7c787a" stroke-width="0"/><path d="M139.51657,164.86371l0.06629,-1.48737c0,0 25.6552,3.725 33.72048,4.89602c4.51253,0.65515 16.89595,-3.98393 16.89595,-3.98393l-0.23417,1.61276c0,0 -12.08944,4.66235 -16.4516,4.01416c-7.99848,-1.18849 -33.99694,-5.05159 -33.99694,-5.05159z" fill="#535353" stroke-width="0"/><path d="M98.69369,175.54511l2.8959,-19.94484c0,0 5.49771,-6.32991 12.99661,-7.5611c9.31394,-1.52921 25.77098,2.66405 27.82015,2.96158c1.57248,0.22834 -14.27038,8.45392 -14.27038,8.45392l-2.8959,19.94484z" fill="#8d898b" stroke-width="0"/><path d="M276.47658,154.73167l2.0378,-2.88133l106.42841,15.59722l-2.11886,14.59323c0,0 -37.65376,-3.60228 -49.68795,-5.77007c-5.97653,-1.07657 -56.65939,-21.53907 -56.65939,-21.53907z" fill="#c98cac" stroke-width="0"/><path d="M240.52474,251.57083l-2.6377,-13.45505c0,0 4.24571,6.51715 6.90905,7.99201c1.69689,0.93969 5.82435,1.92469 12.22189,0.39062c5.1503,-1.23496 11.05721,-5.94589 11.05721,-5.94589l-13.69208,13.03047z" fill="#a08e97" stroke-width="0"/><path d="M336.81674,218.14396l1.08043,-23.71224l18.55645,1.27688l-3.04575,20.97705c0,0 -6.57805,0.78203 -9.41478,1.07581c-1.30616,0.13525 -7.17639,0.38254 -7.17639,0.38254z" fill="#96858d" stroke-width="0"/><path d="M238.16796,255.01376l0.79606,-5.48265c0,0 11.64084,3.78042 16.6609,1.35525c2.44314,-1.18026 22.1278,-19.47411 32.98634,-29.65148c4.23755,-3.9717 7.13096,-6.70728 7.13096,-6.70728c0,0 3.86664,-3.25134 4.28475,-6.10305c0.21031,-1.43456 1.27582,-5.50234 0.78504,-7.90922c-0.4952,-2.42837 -2.54767,-3.18949 -2.54767,-3.18949l-2.8714,-14.13151l19.58972,2.98949l-6.69752,25.87958l3.35106,3.07527c0,0 -10.31802,4.56491 -15.61097,8.8041c-8.28159,6.63269 -35.79406,33.34149 -35.79406,33.34149z" fill="#918189" stroke-width="0"/><path d="M313.82639,215.1623l5.31104,-28.13265l13.59306,2.25231l8.53156,13.36678l-4.56385,15.83452z" fill="#96858d" stroke-width="0"/><path d="M309.08309,216.34218l-1.88753,-4.46333l7.26539,-25.40962l5.03931,0.64608l-4.77619,28.193z" fill="#8f8187" stroke-width="0"/><path d="M335.46186,218.40838c0,0 3.68114,-6.20247 3.11996,-11.75154c-0.32313,-3.19509 -4.90006,-5.85003 -5.09817,-7.80874c-0.37841,-3.74163 -0.96383,-9.53003 -0.96383,-9.53003l7.14658,5.4474c0,0 2.33431,7.62832 2.3135,11.93151c-0.01392,2.89111 -2.39837,8.98774 -3.68881,11.42654c-0.1088,0.20558 -1.26078,-0.04581 -1.33563,0.11033c-0.18284,0.38158 0.73814,0.749 0.73814,0.749z" fill="#86787e" stroke-width="0"/><path d="M339.2385,196.21896c0,0 -2.49047,-4.35801 -6.98482,-5.99237c-5.08804,-1.85026 -21.98398,-4.54205 -21.98398,-4.54205l158.13829,8.63044l2.0435,9.69604l6.23462,12.16477c0,0 -99.37654,-17.02741 -119.75118,-19.9857c-6.64855,-0.96537 -17.69647,0.02893 -17.69647,0.02893z" fill="#df8db7" stroke-width="0"/><path d="M179.82746,220.84935l0.46335,-36.58288c0,0 2.2047,-3.4699 2.73164,-3.61131c5.80987,-1.55923 39.04461,-7.4972 44.38626,-6.4323c5.85149,1.16649 -10.82391,10.79895 -10.82391,10.79895c0,0 -14.5514,-0.06565 -17.67336,3.77551c-4.23875,5.21512 -1.93518,23.08511 -1.93518,23.08511z" fill="#c77da3" stroke-width="0"/><path d="M255.79674,201.63697l-1.46839,-2.34056c0,0 7.72757,-7.57483 10.46537,-9.49406c2.82646,-1.98148 6.23582,-2.2141 6.23582,-2.2141l5.54305,3.13112c0,0 -4.35741,-1.14055 -6.94324,0.21831c-2.21981,1.16649 -6.37536,3.67408 -9.59085,6.33198c-2.339,1.93339 -4.24174,4.36724 -4.24174,4.36724z" fill="#414041" stroke-width="0"/><path d="M139.3509,163.78238l6.42986,-10.87852l48.12383,6.98733c0,0 -3.50871,3.99278 -6.87844,5.49025c-3.30726,1.46973 -13.15612,3.41291 -13.15612,3.41291z" fill="#979395" stroke-width="0"/><path d="M140.30678,162.76626l5.63815,-10.99349l48.12383,6.98733c0,0 -3.50871,3.99278 -6.87844,5.49025c-3.30726,1.46973 -13.15612,3.41291 -13.15612,3.41291z" fill="#bdb7ba" stroke-width="0"/><path d="M337.79892,219.07177l-1.77968,-0.77734l17.27393,-1.71047c0,0 -3.81901,1.52448 -6.3917,1.95617c-2.57269,0.43175 -9.1025,0.53154 -9.1025,0.53154z" fill="#887980" stroke-width="0"/><path d="M182.22066,221.66622c0,0 -0.81212,-10.69318 -0.7739,-19.31556c0.03845,-8.66448 0.09961,-16.78673 0.59287,-20.33745c0.08358,-0.60156 3.14149,-10.19235 3.71098,-10.63654c3.07409,-2.3976 9.62288,6.37801 15.28781,6.08541c8.38791,-0.43322 27.37199,1.80365 27.37199,1.80365l-9.12906,4.04089c0,0 -19.65947,0.04069 -22.76444,4.78094c-4.19979,6.4117 0.29322,28.15568 0.29322,28.15568z" fill="#d486ae" stroke-width="0"/><path d="M183.84609,218.34642c0,0 -0.7192,-41.40458 2.04184,-51.18632c1.29186,-4.57677 -0.7194,-14.07219 -0.7194,-14.07219l49.14014,14.17668l-0.89992,16.10781c0,0 -31.26531,-7.66524 -38.45135,-2.3688c-4.79692,3.53552 -2.11668,32.46387 -2.11668,32.46387z" fill="#e490bb" stroke-width="0"/><g stroke-width="0"><path d="M329.88512,175.89633l1.18903,-8.189l9.26283,1.34495l-1.18903,8.189z" fill="#454545"/><path d="M330.81868,175.25902l0.69561,-7.27362l11.20865,1.62743l-1.04868,7.22237z" fill="#b0b0b0"/><path d="M331.23553,170.78347l0.1805,-2.83376l11.42304,1.65857l-0.27406,1.88759c0,0 -7.75834,-0.8006 -9.45999,-0.90761c-0.56861,-0.03573 -1.86947,0.19527 -1.86947,0.19527z" fill="#bebebe"/><path d="M342.00403,176.32781c0,0 -5.11599,-3.32499 -4.01246,-6.95171c1.63988,-5.38931 5.64968,-4.32399 5.64968,-4.32399l39.63322,7.10191l-1.44561,9.95621z" fill="#9c989a"/><path d="M343.95804,175.30877c0,0 -1.95531,-3.8397 -2.06375,-4.79201c-0.16073,-1.4116 2.23827,-4.05163 2.23827,-4.05163l41.15932,6.00982l-1.47191,7.35344z" fill="#898587"/><path d="M343.84013,175.49198l-0.73034,-2.06574l37.83503,5.49345l-0.27863,1.91925z" fill="#c1bcbf"/><path d="M344.20788,172.11585c0,0 -1.12298,-1.54535 -0.98828,-2.47302c0.12599,-0.86771 1.77201,-2.92495 1.77201,-2.92495l38.26541,5.55595l-0.78373,5.39795z" fill="#0d0d0d"/><path d="M344.0962,172.88511c0,0 -1.03617,-2.14285 -0.9015,-3.07049c0.12599,-0.86771 1.68524,-2.32742 1.68524,-2.32742l38.26543,5.55596l-0.78373,5.39795z" fill="#2e2e2e"/><path d="M339.0468,174.07519c-2.17077,-3.41431 -0.68194,-5.55917 -0.68194,-5.55917c0,0 1.22234,4.3329 2.31607,5.39874c1.29491,1.26184 4.67099,3.13233 4.67099,3.13233l-3.48243,-0.43471c0,0 -2.44059,-1.9363 -2.82259,-2.53717z" fill="#7d7a7c"/><path d="M346.62473,173.56516c0,0 -0.56185,-2.31676 -0.39752,-3.44845c0.14445,-0.99481 1.33151,-2.98411 1.33151,-2.98411l4.77326,0.69303c0,0 -0.77301,2.11485 -0.89772,2.97406c-0.17147,1.18094 -0.03619,3.45843 -0.03619,3.45843z" fill="#555555"/><path d="M355.152,174.80333c0,0 1.02229,-2.40118 1.18657,-3.53278c0.14445,-0.99481 -0.25263,-2.89976 -0.25263,-2.89976l5.32749,0.77353c0,0 -0.65876,1.63739 -0.78352,2.49664c-0.17147,1.18094 -0.15043,3.9359 -0.15043,3.9359z" fill="#555555"/><path d="M364.38189,176.14343c0,0 1.0223,-2.40115 1.1866,-3.53282c0.14445,-0.99481 -0.25264,-2.89975 -0.25264,-2.89975l5.2483,0.76203c0,0 -0.65876,1.63739 -0.78352,2.49664c-0.17147,1.18094 -0.15043,3.9359 -0.15043,3.9359z" fill="#555555"/><path d="M373.94489,177.53196c0,0 1.14717,-2.0237 1.31143,-3.15544c0.14445,-0.99481 -0.37748,-3.2771 -0.37748,-3.2771l5.08995,0.73904c0,0 0.53445,2.0801 0.40964,2.93939c-0.17147,1.18094 -1.34363,3.49323 -1.34363,3.49323z" fill="#555555"/><path d="M347.19419,167.79106l-0.5433,-0.88725l35.19358,5.10993l-1.63329,0.57121c0,0 -2.8007,-0.40666 -5.23739,-0.76041c-0.53112,-0.07717 -1.48893,-0.54839 -2.28447,-0.66391c-0.76919,-0.1117 -1.36859,0.13347 -2.32473,-0.00532c-1.49108,-0.21651 -3.17337,-0.46077 -4.93459,-0.71646c-0.7302,-0.10601 -1.31038,-0.57783 -2.05972,-0.68663c-0.66634,-0.09673 -1.50051,0.16971 -2.16991,0.07251c-1.66144,-0.24124 -3.30649,-0.48011 -4.85323,-0.70469c-0.71028,-0.10313 -1.33675,-0.63705 -1.99758,-0.73301c-0.8067,-0.11715 -1.63368,0.20577 -2.34048,0.10311c-2.88323,-0.41859 -4.81499,-0.6991 -4.81499,-0.6991z" fill="#474747"/></g><g><path d="M191.86818,213.01488l4.09059,-2.30359c0,0 2.39114,3.19159 5.06718,4.48452c2.36684,1.1435 10.17557,2.87983 10.17557,2.87983l-3.25318,3.9276z" fill="#6d6a6b" stroke-width="0"/><path d="M182.95881,218.28964l10.19683,-5.98211c0,0 2.87694,2.69794 4.9281,3.66456c3.10309,1.46237 11.87883,4.25604 11.87883,4.25604l-4.8523,3.64798z" fill="#615e5f" stroke-width="0"/><path d="M181.78037,240.31624l1.77555,-22.55196c0,0 4.19522,1.40938 8.96221,2.13145c3.72084,0.56361 7.84837,0.30689 10.21889,1.26583c4.16166,1.68341 35.56449,18.72823 35.56449,18.72823l0.99076,10.42537z" fill="#575455" stroke-width="0"/><path d="M207.0334,216.65745c7.66105,-4.51122 17.57962,-16.6642 19.19444,-19.02814c1.16332,-1.70302 2.60179,-6.82549 2.60179,-6.82549l6.64454,7.85101c0,0 2.84396,21.12458 2.1951,33.80974c-0.18155,3.54941 1.74291,7.81542 0.35829,9.09626c-1.24064,1.14753 -18.35494,0.97657 -23.58327,-0.55542c-11.00294,-3.22386 -17.13567,-1.29551 -20.08352,-7.05422c-2.94785,-5.75866 4.98019,-10.94357 4.98019,-10.94357c0,0 5.69812,-5.17576 7.69257,-6.35021z" fill="#504e4f" stroke-width="0"/><path d="M216.50577,184.86333c0,0 0.60619,-1.4204 1.54967,-1.95392c1.21338,-0.6861 5.12657,-1.82128 5.12657,-1.82128c0,0 8.97267,3.39184 11.5939,6.28854c2.41848,2.67257 -5.27435,11.94461 -5.27435,11.94461l-1.21534,-5.59403z" fill="#464445" stroke-width="0"/><path d="M232.7131,234.9393c0,0 -10.08678,4.85683 -18.50777,3.80733c-8.12377,-1.01243 -14.5983,-7.90612 -14.28801,-9.29823c0.16808,-0.75431 8.48873,-2.88612 12.53573,-6.56417c4.49868,-4.08851 4.83456,-9.80109 6.4603,-11.59662c4.53855,-5.01255 14.35843,-13.87201 14.1768,-20.0054c-0.19049,-6.43221 -10.49882,-10.0246 -10.49882,-10.0246c0,0 4.1348,-1.6749 9.08737,-1.08708c2.10964,0.25042 6.41093,2.2753 7.26926,2.78897c2.81489,1.68427 4.54985,3.58964 4.54985,3.58964c0,0 4.32168,-4.30301 7.93093,-4.09166c3.60917,0.21133 21.8161,5.83342 21.8161,5.83342l-17.85193,10.13404z" fill="#555354" stroke-width="0"/><path d="M218.43567,211.81955c0,0 6.13514,-10.09602 11.59735,-14.79484c5.46221,-4.69882 9.95532,-7.26028 13.45101,-6.75269c2.53138,0.36755 4.54754,9.36601 4.54754,9.36601l-15.09581,26.87912c0,0 -14.94057,1.1442 -16.0461,-1.52299c-0.87314,-2.10655 1.54598,-13.17457 1.54598,-13.17457z" fill="#585758" stroke-width="0"/><path d="M236.83436,242.07687c0,0 -1.95871,-6.5404 -1.20158,-9.48433c1.05769,-4.1127 4.30483,-16.42787 4.30483,-16.42787l0.43686,10.60857c0,0 -2.0344,9.55434 -2.33851,12.57181c-0.29335,2.9114 0.80333,5.26379 0.80333,5.26379z" fill="#3f3e3f" stroke-width="0"/><path d="M238.48237,224.26363c0.04724,-1.68551 1.41933,-9.27804 1.41933,-9.27804c0,0 11.55223,-13.04337 14.00909,-15.36756c0.72027,-0.68135 4.28983,-1.91215 4.28983,-1.91215l-2.32664,4.56698c0,0 -1.64432,0.37157 -1.89088,0.81864c-0.26274,0.47629 0.3598,1.95688 0.3598,1.95688l-6.29408,7.65517c0,0 -1.77871,0.76293 -2.02862,1.23728c-0.25,0.4745 0.3029,1.45226 0.3029,1.45226c0,0 -5.09911,8.29465 -6.27981,10.56332c-0.54592,1.04897 -0.51913,2.50049 -0.51913,2.50049c0,0 -1.08888,-2.50769 -1.04161,-4.19315z" fill="#474647" stroke-width="0"/><path d="M228.50545,201.62675l19.65696,11.17579c0,0 -1.32207,0.83096 -1.63421,1.33036c-0.23035,0.3685 -0.06906,1.3944 -0.06906,1.3944z" fill="#3f3e3e" stroke-width="NaN"/><path d="M235.93077,192.24336l20.17529,10.06219c0,0 -1.22461,0.67437 -1.51339,1.1946c-0.30102,0.54231 -0.09042,1.66344 -0.09042,1.66344z" fill="#3f3e3e" stroke-width="NaN"/><path d="M219.49883,218.83827c0,0 9.47607,9.14954 14.43433,15.90973c4.95818,6.76021 2.86424,7.67563 2.86424,7.67563z" fill="#636162" stroke-width="NaN"/><path d="M235.96073,197.93011c0,0 -6.35565,2.01169 -9.52132,4.68044c-3.16569,2.66874 -13.73847,17.48623 -13.31524,14.5713c0.42324,-2.91496 16.38618,-21.53564 18.1625,-21.27773c0.67241,0.09763 3.84127,-0.59653 4.61711,-0.2439c1.27363,0.57888 0.05696,2.26986 0.05696,2.26986z" fill="#918f91" stroke-width="0"/><path d="M181.34748,240.12269l14.06946,0.1347c0,0 12.51297,1.48105 15.59479,2.08523c7.50522,1.47128 29.60016,6.7746 29.60016,6.7746l-1.35062,6.19126c0,0 -24.62048,0.0281 -31.25432,-2.26459c-1.91914,-0.66326 -7.58665,-2.11068 -11.60395,-4.06032c-7.86167,-3.81541 -15.05552,-8.86084 -15.05552,-8.86084z" fill="#626061" stroke-width="0"/><path d="M238.31728,254.81585c0,0 0.65683,-4.24226 0.54876,-6.62237c-0.12144,-2.67514 -1.24209,-8.64701 -1.24209,-8.64701l1.76384,0.25608c0,0 1.06091,4.65757 1.17095,7.07935c0.12021,2.64787 -0.47756,8.19001 -0.47756,8.19001z" fill="#4a494a" stroke-width="0"/><path d="M238.00391,255.61543l0.57549,-3.34922c0,0 0.52285,0.34341 0.79151,0.38244c0.31924,0.04638 0.95761,-0.12841 0.95761,-0.12841l-0.28451,3.16858c0,0 -0.82707,0.29178 -1.19878,0.27846c-0.28486,-0.0102 -0.84131,-0.35177 -0.84131,-0.35177z" fill="#363536" stroke-width="0"/><path d="M237.74885,240.60072l-0.14897,-1.65922c0,0 0.464,-0.29074 0.83711,-0.29644c0.35539,-0.00537 0.85474,0.19116 0.85474,0.19116l0.24694,1.79046c0,0 -0.54974,0.43292 -0.85635,0.42847c-0.28887,-0.00418 -0.93344,-0.45438 -0.93344,-0.45438z" fill="#585758" stroke-width="0"/><path d="M196.96552,248.37611c0,0 -7.38894,-4.05663 -7.19309,-5.40555c0.19683,-1.35555 6.5375,-1.61803 6.5375,-1.61803c0,0 10.8649,1.33423 15.74568,2.21734c2.73242,0.4944 11.04592,2.6301 11.04592,2.6301c0,0 7.06466,2.09103 7.7058,3.34791c0.69936,1.37099 -3.53301,3.62788 -3.53301,3.62788c0,0 -12.77947,-0.5358 -16.67325,-1.31152c-1.3832,-0.2756 -13.63559,-3.48807 -13.63559,-3.48807z" fill="#6b696a" stroke-width="0"/><path d="M187.68193,240.05429l-1.9745,-0.05345c0,0 1.11344,-3.30901 3.62672,-1.6889c2.51326,1.62014 21.43573,3.3456 21.43573,3.3456z" fill="#4b4949" stroke-width="0"/><path d="M181.44039,239.99062c0,0 -2.0046,-0.09747 -2.01071,-3.7793c-0.00312,-1.86371 0.31423,-16.15861 0.31423,-16.15861l4.11375,-2.33217c0,0 -0.18651,6.0295 -0.39952,8.93122c-0.28332,3.85929 -1.10422,13.47144 -1.10422,13.47144z" fill="#3f3d3e" stroke-width="0"/><path d="M187.97657,240.26469c0,0 3.46965,-1.67698 19.4078,0.29648c1.31617,0.16299 -1.77195,-0.28965 7.45736,1.56305c9.22932,1.85265 12.8796,3.91119 12.8796,3.91119c0,0 -14.75617,-3.22312 -20.89463,-4.11439c-6.99709,-1.01593 -18.85019,-1.65638 -18.85019,-1.65638z" fill="#838082" stroke-width="0"/><path d="M197.23262,211.66576c0,0 -4.63955,1.53674 -7.02419,2.823c-2.68026,1.44573 -8.27426,5.42906 -8.27426,5.42906l-0.54623,-1.69771c0,0 4.27727,-3.27303 6.70367,-4.58186c2.65286,-1.43094 8.59478,-3.67018 8.59478,-3.67018z" fill="#4a494a" stroke-width="0"/><path d="M198.19394,211.54484l-3.76557,1.15144c0,0 0.18828,-0.62589 0.10508,-0.88443c-0.09887,-0.30728 -0.57014,-0.78795 -0.57014,-0.78795l3.37085,-1.33117c0,0 0.67738,0.59012 0.83403,0.92765c0.12008,0.25863 0.02571,0.92459 0.02571,0.92459z" fill="url(#color-3)" stroke-width="0"/><path d="M182.95504,219.27957l-3.31262,2.27743l0.17127,-2.18066l2.34775,-1.70252c0,0 0.69468,0.27277 0.83058,0.54792c0.12811,0.2592 -0.03704,1.05787 -0.03704,1.05787z" fill="url(#color-4)" stroke-width="0"/></g><path d="M315.12063,214.24225c0,0 1.55267,-4.23959 2.25039,-5.54197c0.47366,-0.88409 3.02808,-1.95989 3.02808,-1.95989l16.87415,2.22956c0,0 -2.09698,5.55406 -2.67041,6.85143c-0.25123,0.56833 -1.40565,1.10058 -1.40565,1.10058z" fill="#665b60" stroke-width="0"/><path d="M269.63421,189.18987c0,0 -3.53034,-2.09143 -8.24212,-3.93991c-2.99525,-1.17508 -7.13953,-2.34952 -8.99643,-2.51223c-5.3986,-0.47311 -8.62498,4.21688 -8.62498,4.21688c0,0 -2.90657,-2.76206 -4.86951,-3.91075c-1.83236,-1.07223 -5.99643,-2.68828 -5.99643,-2.68828c0,0 25.03616,-1.50952 28.93071,-1.53029c7.46617,-0.03976 33.81428,4.18137 33.81428,4.18137l4.10666,15.03176z" fill="#8b7c84" stroke-width="0"/><g stroke-width="0"><path d="M316.69568,213.51832c0,0 0.83968,-2.50152 1.37436,-3.32805c0.55434,-0.85697 2.86671,-1.58473 2.86671,-1.58473l14.37924,2.08775c0,0 0.24103,1.02826 -0.09788,1.72458c-0.46084,0.94673 -3.60337,3.26666 -3.60337,3.26666z" fill="#585852"/><path d="M316.80274,212.78071c0,0 0.73256,-1.76396 1.26729,-2.59046c0.55434,-0.85697 2.97381,-2.32235 2.97381,-2.32235l14.37924,2.08776c0,0 0.13399,1.76591 -0.20499,2.46222c-0.46084,0.94673 -3.49627,2.52895 -3.49627,2.52895z" fill="#797971"/><path d="M333.60601,210.19264c-1.01242,-0.32681 -12.47542,-2.26539 -12.47542,-2.26539l14.35956,2.08494l-0.35374,2.4363c0,0 -0.51803,-1.92899 -1.53048,-2.25587z" fill="#85857b"/></g><path d="M320.72266,195.74438l0.74571,-5.13588l7.06192,1.02534l0.53828,5.32234z" fill="#7c6e75" stroke-width="0"/><path d="M314.20353,168.09721l-2.96499,-8.64703l1.36502,0.19823l4.81549,9.37207z" fill="#d495b6" stroke-width="0"/><path d="M276.70088,154.94295l13.52582,-1.15818l21.20488,5.71874l2.79868,8.58349z" fill="#df9cbe" stroke-width="0"/><path d="M320.16075,200.74307l0.23304,-1.60498l10.75325,1.56137l0.72995,1.74481z" fill="#7c6e75" stroke-width="0"/><path d="M281.75621,182.8853c0,0 -18.11765,-1.41963 -23.76381,-1.73399c-8.54954,-0.47609 -25.77681,-0.62774 -25.77681,-0.62774c0,0 15.50585,-2.23584 29.09098,-1.79533c14.72969,0.47761 58.53154,5.36473 58.53154,5.36473l-0.77725,5.35297z" fill="#75686e" stroke-width="0"/><path d="M273.64941,190.57066l-3.12753,-1.03091c0,0 10.01167,-0.95576 15.18624,0.56637c5.17454,1.52209 13.6205,7.90725 13.6205,7.90725z" fill="#7c6e76" stroke-width="0"/><path d="M228.25447,179.90708c0,0 -29.8092,-19.88602 -30.0276,-24.58634c-0.19835,-4.2696 29.17495,6.60863 29.48518,6.54432c5.42829,-1.12557 77.60201,2.06315 77.60201,2.06315l25.35704,10.54227l52.29647,7.01576l5.28181,14.48468c0,0 -61.08826,-7.6886 -84.63133,-10.94218c-8.17245,-1.1294 -24.73699,-4.18901 -40.04597,-5.25954c-11.80884,-0.82575 -29.93184,0.90472 -29.93184,0.90472z" fill="#ee96c3" stroke-width="0"/><path d="M98.66056,173.76553l6.18831,-19.46681c0,0 0.9131,-6.99552 8.41209,-8.22678c9.31394,-1.52921 25.77099,2.66407 27.82017,2.96157c1.57248,0.22834 -14.27039,8.45392 -14.27039,8.45392l-2.89589,19.94484z" fill="#c4b4b3" stroke-width="0"/><g stroke-width="0"><path d="M379.52471,196.10076l-0.65165,-15.39628l90.82223,20.0224l-1.58327,5.63793l-47.63432,-2.00821z" fill="#ad6d8e"/><path d="M407.65665,185.69874l8.38595,-7.14184l26.80279,1.74029l-5.75498,9.67527z" fill="#8d788b"/><path d="M382.27918,183.21524l2.33286,-16.06683l31.49951,11.42274l-5.51818,6.13987z" fill="#857183"/><path d="M424.73491,186.02386l18.04832,-5.73444l27.01061,7.73407l-1.27368,6.78134z" fill="#947e92"/><path d="M378.24082,182.01394l4.69795,-12.21767l1.87204,-2.8241l-2.16448,14.90753z" fill="#756474"/><path d="M381.25259,193.1035l1.02091,-12.05109l43.10129,4.59198l-3.52056,15.71424z" fill="#746373"/><path d="M421.84883,201.34226c0,0 1.28232,-6.18742 1.88771,-8.97351c0.51828,-2.3854 1.52389,-6.72832 1.52389,-6.72832l43.61075,7.25071l0.77229,8.60026z" fill="#867284"/><path d="M378.291,181.95008l4.20575,-0.93634l-1.21553,12.10166z" fill="#6f5e6d"/><path d="M462.66889,186.88018l-19.12922,-6.17637l25.9274,7.43905l-0.86931,3.45642c0,0 -0.08484,-1.59804 -1.17933,-2.46925c-0.73215,-0.58277 -4.74956,-2.24987 -4.74956,-2.24987z" fill="#978195"/><path d="M423.17156,185.14035c0,0 8.38982,-2.28342 11.33375,-3.22429c2.14453,-0.68533 4.70425,-1.9012 4.70425,-1.9012l2.49136,0.47551l-15.90824,5.03053z" fill="#9c859a"/><path d="M408.82383,183.87389c0,0 1.69819,-2.53456 3.22852,-3.67689c1.53027,-1.14226 3.93173,-1.61734 3.93173,-1.61734l-4.72421,5.64787z" fill="#806b7d"/><path d="M444.59476,178.78836l2.93502,-5.36735l14.50583,5.87869l4.6223,7.13825z" fill="#55494f"/><path d="M441.68534,181.1954c0,0 1.18476,-0.62646 1.82335,-1.12463c0.48102,-0.37522 1.36081,-1.64658 1.36081,-1.64658l21.50742,7.1647c0,0 0.78743,0.61651 1.32078,1.02301c0.55743,0.42484 1.95451,1.47348 1.95451,1.47348z" fill="#685960"/><path d="M445.27835,177.98604l2.30019,-4.29945l13.52155,5.32501c0,0 -7.70338,-2.66727 -12.17456,-3.05913c-2.59355,-0.22731 -3.64711,2.03359 -3.64711,2.03359z" fill="#41383c"/></g><path d="M105.92703,135.12853l0.74839,-5.15425c0,0 22.29081,1.92787 44.0129,5.13937c12.9444,1.91376 26.14387,5.44468 33.04361,6.09274c15.55744,1.46112 26.56598,-1.49997 26.56598,-1.49997l-7.8041,9.62162z" fill="#ffa1d1" stroke-width="0"/><path d="M101.37028,148.57085l4.44881,-15.60527c0,0 53.9316,9.91275 71.65689,12.04103c10.49971,1.26073 24.89478,-0.44777 24.89478,-0.44777l-2.10399,14.49042c0,0 -66.80057,-9.69913 -82.90408,-12.03729c-6.62117,-0.96137 -19.85541,28.16413 -19.85541,28.16413z" fill="#ee96c3" stroke-width="0"/><path d="M267.72892,250.0196l11.13734,-12.12136c0,0 12.09421,-14.26751 22.38309,-19.70833c2.61459,-1.3826 7.90241,-1.8239 7.90241,-1.8239c0,0 -7.94437,3.8839 -10.91339,6.27351c-7.01143,5.64325 -30.50936,27.38007 -30.50936,27.38007z" fill="#70646b" stroke-width="0"/><path d="M372.05796,199.64715l-3.64863,-18.72032l1.33612,0.19397c0,0 1.10499,5.6695 1.68884,8.66525c0.0832,0.42681 1.25853,1.8314 1.36161,2.36008c0.17863,0.91649 -0.69988,1.03503 -0.50025,2.05936c0.55594,2.85235 1.09838,5.63555 1.09838,5.63555z" fill="#795467" stroke-width="0"/><path d="M200.83056,159.56751c0,0 -9.43176,-7.99049 -8.21704,-11.62861c0.72733,-2.17837 18.53772,-7.62785 18.53772,-7.62785l67.55081,11.49769l-2.06454,2.82882l28.58833,9.45432l-74.86951,15.98315c0,0 0.02349,-5.66922 3.9991,-7.98015c3.86382,-2.24593 19.52878,-5.69586 19.52878,-5.69586c0,0 -33.85525,-4.9651 -41.05811,-6.09851c-2.40303,-0.37812 -11.99561,-0.73303 -11.99561,-0.73303z" fill="#f399c8" stroke-width="0"/><g><path d="M209.09657,141.95705l0.46534,-3.20474l174.72153,25.3688l-0.46534,3.20474z" fill="#584f54" stroke-width="0"/><path d="M378.51155,163.53384l0.39315,-2.7079l3.02357,0.439l2.27464,3.0953z" fill="#685d63" stroke-width="0"/><g fill="#685d63" stroke-width="0"><g><g><g><path d="M371.88482,162.82342l0.42778,-2.9461l3.84085,0.55764l-0.42778,2.9461z"/><path d="M365.65264,161.91862l0.42778,-2.9461l3.84086,0.55765l-0.42778,2.9461z"/></g><g><path d="M359.65563,161.04783l0.42777,-2.94611l3.84086,0.55765l-0.42778,2.9461z"/><path d="M353.42342,160.14296l0.42778,-2.9461l3.84085,0.55765l-0.42777,2.94611z"/></g></g><g><g><path d="M347.30884,159.25517l0.42777,-2.94611l3.84085,0.55765l-0.42778,2.9461z"/><path d="M341.07662,158.35029l0.42778,-2.9461l3.84085,0.55764l-0.42777,2.94611z"/></g><g><path d="M335.07961,157.47951l0.42778,-2.9461l3.84085,0.55765l-0.42778,2.9461z"/><path d="M328.84751,156.57465l0.42778,-2.9461l3.84083,0.55766l-0.42777,2.94611z"/></g></g></g><g><g><g><path d="M328.61234,156.5405l0.42778,-2.9461l3.84085,0.55765l-0.42778,2.9461z"/><path d="M322.38017,155.63563l0.42778,-2.9461l3.84086,0.55765l-0.42778,2.9461z"/></g><g><path d="M316.38317,154.76488l0.42777,-2.94611l3.84085,0.55765l-0.42778,2.9461z"/><path d="M310.15093,153.85998l0.42778,-2.9461l3.84083,0.55766l-0.42777,2.94611z"/></g></g><g><g><path d="M304.03639,152.97221l0.42777,-2.94611l3.84086,0.55765l-0.42778,2.9461z"/><path d="M297.80421,152.06729l0.42778,-2.9461l3.84086,0.55765l-0.42777,2.94611z"/></g><g><path d="M291.80722,151.19659l0.42778,-2.9461l3.84085,0.55764l-0.42777,2.94611z"/><path d="M285.575,150.29168l0.42778,-2.9461l3.84086,0.55765l-0.42778,2.9461z"/></g></g></g></g><g><g fill="#685d63" stroke-width="0"><g><g><path d="M279.42044,149.39806l0.42777,-2.94611l3.84086,0.55765l-0.42778,2.9461z"/><path d="M273.18828,148.49317l0.42778,-2.9461l3.84086,0.55765l-0.42777,2.94611z"/></g><g><path d="M267.19125,147.62249l0.42778,-2.9461l3.84086,0.55765l-0.42777,2.94611z"/><path d="M260.95914,146.71757l0.42778,-2.9461l3.84085,0.55764l-0.42777,2.94611z"/></g></g><g><g><path d="M254.84451,145.82973l0.42777,-2.94611l3.84086,0.55765l-0.42778,2.9461z"/><path d="M248.61229,144.92483l0.42778,-2.9461l3.84086,0.55765l-0.42777,2.94611z"/></g><g><path d="M242.61526,144.05416l0.42778,-2.9461l3.84086,0.55765l-0.42777,2.94611z"/><path d="M236.38307,143.14928l0.42778,-2.9461l3.84085,0.55764l-0.42778,2.9461z"/></g></g></g><g><g fill="#685d63" stroke-width="0"><g><path d="M236.14795,143.11512l0.42777,-2.94611l3.84086,0.55765l-0.42778,2.9461z"/><path d="M229.91575,142.2102l0.42778,-2.9461l3.84085,0.55764l-0.42777,2.94611z"/></g><g><path d="M223.91875,141.33946l0.42778,-2.9461l3.84085,0.55764l-0.42777,2.94611z"/><path d="M217.68657,140.43457l0.42778,-2.9461l3.84085,0.55764l-0.42778,2.9461z"/></g></g><g fill="none" stroke-width="1" font-family="sans-serif" font-weight="normal" font-size="12" text-anchor="start"><g/><g/></g></g></g><path d="M209.597,139.00823l3.061,-2.32057l3.02357,0.439l-0.39315,2.7079z" data-paper-data="{&quot;index&quot;:null}" fill="#685d63" stroke-width="0"/></g><path d="M261.19203,179.73087l-2.56417,-0.09944c0,0 2.03041,-2.29966 11.68805,-2.03693c7.32192,0.1992 27.86027,1.85604 40.14998,2.88688c5.70703,0.47869 62.91598,-0.31118 62.91598,-0.31118l5.14691,0.73286c0,0 -62.60478,1.66643 -68.30431,1.16535c-12.60319,-1.108 -33.79969,-2.93548 -39.96764,-3.24646c-3.35754,-0.16927 -9.06478,0.90897 -9.06478,0.90897z" fill="#70475c" stroke-width="0"/><path d="M358.32127,213.06074l-5.13792,1.11915l2.72094,-18.73484c0,0 7.70365,1.16745 15.23768,2.30915c21.62794,3.27758 125.57327,19.02985 125.57327,19.02985l-0.96661,6.65746z" fill="#5a5959" stroke-width="0"/><path d="M357.18166,214.54079l1.51153,-2.81811l137.0831,11.61223l-13.31434,9.39598z" fill="#4b4a4a" stroke-width="0"/><path d="M479.23745,232.07165c0,0 -5.38161,-4.03997 -8.1774,-5.88896c-1.49833,-0.99091 -7.29346,-4.34268 -7.29346,-4.34268c0,0 7.5012,4.02332 10.67489,5.44202c1.13264,0.50638 2.1379,1.40285 3.35249,2.11287c0.39166,0.2289 2.59259,-2.23961 4.71821,-3.6633c0.63533,-0.42557 1.73114,0.1019 2.2986,-0.14995c1.30088,-0.57741 1.81302,-1.60595 1.81302,-1.60595c0,0 0.2004,0.96844 -1.18032,1.99444c-0.37671,0.27997 -2.21154,0.36956 -2.58542,0.67942c-1.49829,1.24188 -2.71947,2.68045 -3.10633,3.22163c-1.07972,1.51036 0.934,2.41067 0.934,2.41067z" fill="#414040" stroke-width="0"/><path d="M200.73937,159.85478l5.37037,-10.43544l7.02311,0.38886c0,0 -1.3213,2.48414 -2.10001,3.94816c-0.19615,0.36873 11.75667,0.12757 12.00861,0.8422c0.46743,1.32591 -5.58705,4.24611 -6.0768,5.16687c-0.55991,1.05263 -9.23091,0.19361 -9.23091,0.19361z" fill="#303030" stroke-width="0"/><path d="M200.65049,159.46793l5.14696,-9.62397c0,0 2.78162,1.72217 2.64006,2.69689c-0.25749,1.77359 -2.65171,7.27376 -2.65171,7.27376z" fill="#252525" stroke-width="0"/><path d="M352.7838,216.80544l0.42422,-2.92174l5.89072,-2.12806l-1.64949,2.74383c0,0 -1.27094,1.16473 -2.09147,1.57028c-0.72202,0.35689 -2.57396,0.73563 -2.57396,0.73563z" fill="#383838" stroke-width="0"/><g><g fill="#4b4b4b" stroke-width="0"><g data-paper-data="{&quot;origPos&quot;:null}"><g data-paper-data="{&quot;origPos&quot;:null}"><path d="M419.03134,227.80964l0.32655,-2.24916l3.71109,0.53882l-0.32655,2.24916z" data-paper-data="{&quot;origPos&quot;:null}"/><path d="M412.8625,226.79913l0.32655,-2.24916l3.71108,0.53882l-0.32656,2.24916z" data-paper-data="{&quot;origPos&quot;:null}"/></g><g data-paper-data="{&quot;origPos&quot;:null}"><path d="M431.38529,229.71824l0.32655,-2.24916l3.71109,0.53882l-0.32656,2.24916z" data-paper-data="{&quot;origPos&quot;:null}"/><path d="M425.21644,228.7077l0.32656,-2.24916l3.71108,0.53882l-0.32655,2.24916z" data-paper-data="{&quot;origPos&quot;:null}"/></g></g><g data-paper-data="{&quot;origPos&quot;:null,&quot;index&quot;:null}"><g data-paper-data="{&quot;origPos&quot;:null}"><path d="M450.42321,232.25282l0.32655,-2.24916l3.71109,0.53882l-0.32656,2.24916z" data-paper-data="{&quot;origPos&quot;:null}"/><path d="M456.62466,233.03835l0.32654,-2.24915l3.71109,0.53882l-0.32654,2.24914z" data-paper-data="{&quot;origPos&quot;:null}"/></g><g data-paper-data="{&quot;origPos&quot;:null}"><path d="M438.03663,230.56912l0.32655,-2.24916l3.71108,0.53882l-0.32654,2.24915z" data-paper-data="{&quot;origPos&quot;:null}"/><path d="M444.23807,231.35475l0.32656,-2.24916l3.71109,0.53882l-0.32656,2.24916z" data-paper-data="{&quot;origPos&quot;:null}"/></g></g></g><path d="M377.9376,213.51142l1.95576,-13.4699l83.59744,12.13794l-1.95576,13.4699z" data-paper-data="{&quot;origPos&quot;:null}" fill="#444444" stroke-width="0"/><path d="M377.35659,218.19879l0.68719,-4.73281l83.35171,12.10226l-0.68721,4.73282z" data-paper-data="{&quot;origPos&quot;:null}" fill="#414141" stroke-width="0"/><path d="M377.1864,219.61327l0.23245,-1.60086l83.34113,12.10073l-0.23244,1.60086z" data-paper-data="{&quot;origPos&quot;:null}" fill="#3f3f3f" stroke-width="0"/><g stroke-width="0"><g data-paper-data="{&quot;origPos&quot;:null}" fill="#5a5a5a"><g data-paper-data="{&quot;origPos&quot;:null}"><path d="M420.74887,219.80765l1.97571,-13.60732l3.53433,0.51318l-1.97571,13.60732z" data-paper-data="{&quot;origPos&quot;:null}"/></g><g data-paper-data="{&quot;origPos&quot;:null}"><path d="M426.7573,220.68005l1.97571,-13.60732l3.53434,0.51319l-1.97571,13.60732z" data-paper-data="{&quot;origPos&quot;:null}"/><path d="M432.94242,221.57811l1.97572,-13.60734l3.53433,0.51318l-1.97571,13.60732z" data-paper-data="{&quot;origPos&quot;:null}"/></g></g><g data-paper-data="{&quot;origPos&quot;:null}" fill="#5a5a5a"><g data-paper-data="{&quot;origPos&quot;:null}"><path d="M439.48102,222.52748l1.97571,-13.60732l3.53433,0.51318l-1.97571,13.60733z" data-paper-data="{&quot;origPos&quot;:null}"/><path d="M445.66616,223.42554l1.97571,-13.60732l3.53434,0.51319l-1.97572,13.60734z" data-paper-data="{&quot;origPos&quot;:null}"/></g><g data-paper-data="{&quot;origPos&quot;:null}"><path d="M451.67457,224.29791l1.97572,-13.60734l3.53433,0.51318l-1.97572,13.60734z" data-paper-data="{&quot;origPos&quot;:null}"/><path d="M457.85974,225.19597l1.97572,-13.60734l3.53433,0.51318l-1.97571,13.60732z" data-paper-data="{&quot;origPos&quot;:null}"/></g></g><path d="M424.34393,220.32964l-1.14715,1.78467l-5.19317,-0.71048l1.26973,-9.71484l3.39294,-5.49721l-1.9075,13.61724z" fill="#3a3a3a"/><path d="M430.34994,221.20168l-1.14715,1.78468l-5.19318,-0.71048l1.26974,-9.71486l3.39294,-5.49719l-1.90749,13.61724z" fill="#3a3a3a"/><path d="M436.49243,222.09356l-1.14715,1.78468l-5.19318,-0.71047l1.26973,-9.71484l3.39294,-5.49719l-1.9075,13.61724z" fill="#3a3a3a"/><path d="M443.11267,223.05478l-1.14715,1.78468l-5.19318,-0.71047l1.26973,-9.71484l3.39294,-5.49719l-1.9075,13.61724z" fill="#3a3a3a"/><path d="M449.32343,223.95656l-1.14715,1.78468l-5.19318,-0.71047l1.26973,-9.71484l3.39294,-5.49719l-1.90749,13.61724z" fill="#3a3a3a"/><path d="M455.26115,224.81865l-1.14715,1.78467l-5.19317,-0.71048l1.26973,-9.71484l3.39294,-5.49719l-1.9075,13.61724z" fill="#3a3a3a"/><path d="M461.47971,225.72155l-1.14715,1.78467l-5.19318,-0.71047l1.26974,-9.71486l3.39294,-5.49721l-1.9075,13.61724z" fill="#3a3a3a"/></g><g stroke-width="0"><g data-paper-data="{&quot;origPos&quot;:null}" fill="#5a5a5a"><g data-paper-data="{&quot;origPos&quot;:null}"><path d="M377.96838,213.59612l1.97572,-13.60734l3.53434,0.51319l-1.97571,13.60732z" data-paper-data="{&quot;origPos&quot;:null}"/></g><g data-paper-data="{&quot;origPos&quot;:null}"><path d="M383.97678,214.46857l1.97571,-13.60732l3.53433,0.51318l-1.97571,13.60732z" data-paper-data="{&quot;origPos&quot;:null}"/><path d="M390.16195,215.3666l1.97571,-13.60732l3.53434,0.51319l-1.97572,13.60734z" data-paper-data="{&quot;origPos&quot;:null}"/></g></g><g data-paper-data="{&quot;origPos&quot;:null}" fill="#5a5a5a"><g data-paper-data="{&quot;origPos&quot;:null}"><path d="M396.70052,216.31592l1.97572,-13.60734l3.53433,0.51319l-1.97571,13.60732z" data-paper-data="{&quot;origPos&quot;:null}"/><path d="M402.88573,217.21399l1.97571,-13.60732l3.53434,0.51319l-1.97572,13.60734z" data-paper-data="{&quot;origPos&quot;:null}"/></g><g data-paper-data="{&quot;origPos&quot;:null}"><path d="M408.89418,218.08639l1.97571,-13.60732l3.53434,0.51319l-1.97572,13.60734z" data-paper-data="{&quot;origPos&quot;:null}"/><path d="M415.07932,218.98449l1.97572,-13.60734l3.53434,0.51319l-1.97571,13.60733z" data-paper-data="{&quot;origPos&quot;:null}"/></g></g><path d="M381.5634,214.11811l-1.14715,1.78468l-2.70763,-0.34962l0.26968,-1.95567z" fill="#3a3a3a"/><path d="M387.56947,214.99018l-1.14715,1.78468l-5.19318,-0.71047l1.26974,-9.71486l3.39294,-5.49719l-1.9075,13.61724z" fill="#3a3a3a"/><path d="M393.71189,215.88199l-1.14715,1.78467l-5.19318,-0.71047l1.26973,-9.71484l3.39294,-5.49721l-1.9075,13.61724z" fill="#3a3a3a"/><path d="M400.33212,216.84319l-1.14715,1.78467l-5.19318,-0.71047l1.26974,-9.71486l3.39294,-5.49719l-1.9075,13.61724z" fill="#3a3a3a"/><path d="M406.54295,217.74503l-1.14715,1.78467l-5.19317,-0.71048l1.26973,-9.71484l3.39294,-5.49719l-1.9075,13.61724z" fill="#3a3a3a"/><path d="M412.48065,218.60715l-1.14715,1.78467l-5.19317,-0.71048l1.26973,-9.71484l3.39294,-5.49721l-1.9075,13.61724z" fill="#3a3a3a"/><path d="M418.69927,219.5101l-1.14715,1.78468l-5.19317,-0.71048l1.26973,-9.71484l3.39294,-5.49719l-1.9075,13.61724z" fill="#3a3a3a"/></g><g><g data-paper-data="{&quot;origPos&quot;:null}"><g data-paper-data="{&quot;origPos&quot;:null}" fill="none" stroke-width="1" font-family="sans-serif" font-weight="normal" font-size="12" text-anchor="start"/><g data-paper-data="{&quot;origPos&quot;:null}" fill="#4b4b4b" stroke-width="0"><path d="M383.1442,222.79158l0.32655,-2.24916l3.71108,0.53882l-0.32654,2.24915z" data-paper-data="{&quot;origPos&quot;:null}"/><path d="M376.97534,221.7811l0.32655,-2.24916l3.71108,0.53882l-0.32655,2.24916z" data-paper-data="{&quot;origPos&quot;:null}"/></g></g><g data-paper-data="{&quot;origPos&quot;:null,&quot;index&quot;:null}" fill="#4b4b4b" stroke-width="0"><g data-paper-data="{&quot;origPos&quot;:null}"><path d="M402.18215,225.32609l0.32656,-2.24916l3.71109,0.53882l-0.32656,2.24916z" data-paper-data="{&quot;origPos&quot;:null}"/><path d="M408.38359,226.11169l0.32654,-2.24914l3.71109,0.53882l-0.32656,2.24916z" data-paper-data="{&quot;origPos&quot;:null}"/></g><g data-paper-data="{&quot;origPos&quot;:null}"><path d="M389.7954,223.64246l0.32655,-2.24916l3.71109,0.53882l-0.32656,2.24916z" data-paper-data="{&quot;origPos&quot;:null}"/><path d="M395.99694,224.42802l0.32655,-2.24916l3.71109,0.53882l-0.32655,2.24916z" data-paper-data="{&quot;origPos&quot;:null}"/></g></g></g></g><path d="M213.51689,160.09934l1.63452,-4.022c0,0 5.01545,-2.45229 8.53152,-2.09333c4.01955,0.41033 33.67387,4.74123 33.67387,4.74123c0,0 0.38562,1.9514 0.15838,3.14836c-0.29282,1.54216 -2.82728,4.2709 -2.82728,4.2709z" fill="#242424" stroke-width="0"/><path d="M238.69191,159.90465l0.45266,-3.11762l17.81498,2.58662l-0.45266,3.11762z" fill="#313131" stroke-width="0"/><path d="M235.15491,161.342l0.09371,-0.64549c0,0 1.2078,-0.88681 2.2203,-0.7398c0.96142,0.13963 3.05844,0.92398 5.46144,1.43795c4.57763,0.97911 10.13306,1.88848 10.13306,1.88848l-0.09371,0.64549c0,0 -5.37164,-0.78197 -9.88494,-1.75124c-2.4626,-0.52889 -4.62554,-1.41784 -5.62285,-1.56263c-1.0483,-0.15219 -2.30694,0.72722 -2.30694,0.72722z" fill="#616161" stroke-width="0"/><path d="M264.26397,149.69283l12.12664,4.81909l29.76764,9.68588c0,0 0.69333,0.32725 -7.21658,-1.55717c-2.69082,-0.64101 -12.98756,-3.76198 -21.84127,-6.97025c-2.39568,-0.86813 -15.09699,-6.18921 -15.09699,-6.18921z" fill="#df8cb7" stroke-width="0"/><path d="M84.14532,129.94315l0.85252,-5.87153c0,0 5.96212,-0.90565 9.72645,-0.35909c3.08173,0.44743 10.9724,5.13587 10.9724,5.13587l-1.89659,12.12404z" fill="#626061" stroke-width="0"/><path d="M197.56572,156.50173l3.39681,3.0255l12.31017,0.45031l50.21837,7.2915l-0.15671,1.0797c0,0 -37.65029,-5.61342 -49.46793,-7.06432c-3.2445,-0.39833 -12.94683,-1.07867 -12.94683,-1.07867z" fill="#ffa6d4" stroke-width="0"/><path d="M72.10676,192.79591l1.0302,-7.09518l25.57412,-13.09138l-3.55465,13.29611l-15.18333,8.03264z" fill="#3f3d3e" stroke-width="0"/><path d="M71.22068,187.55398c0,0 3.00939,-19.42096 5.18371,-28.78909c2.45406,-10.57336 8.80328,-31.47406 8.80328,-31.47406c0,0 8.55239,1.05043 11.86076,3.19385c2.83155,1.83448 6.78267,8.88476 6.78267,8.88476l-4.82096,33.20337c0,0 -13.70201,11.85228 -17.03991,13.65046c-5.13426,2.76589 -10.76951,1.33071 -10.76951,1.33071z" fill="#555354" stroke-width="0"/><path d="M83.53561,137.75765c0,0 -0.66306,-6.15201 1.76919,-8.52437c2.43226,-2.37236 6.88282,-2.75374 9.41654,-2.38586c2.02124,0.29349 6.19274,0.97869 8.39562,5.80382c2.20294,4.8251 -0.65516,11.15013 -0.65516,11.15013c0,0 -4.73953,-11.20093 -7.20824,-11.9893c-3.48363,-1.1124 -11.71795,5.94557 -11.71795,5.94557z" fill="#6f6b6c" stroke-width="0"/><path d="M69.08268,192.16652c0,0 5.44167,-25.54571 7.08599,-36.8708c1.71246,-11.79412 4.47737,-32.32834 4.47737,-32.32834c0,0 1.23658,-0.47017 2.26662,-0.32058c0.94181,0.13674 2.40007,0.99817 2.40007,0.99817c0,0 -2.96453,18.92567 -4.50118,29.5095c-1.78543,12.29652 -8.33467,39.50478 -8.33467,39.50478z" fill="#333232" stroke-width="0"/><path d="M68.59263,192.54365l3.19624,-14.3984c0,0 0.91652,1.03129 1.51526,1.07917c0.75604,0.06047 2.62223,-1.12121 2.62223,-1.12121l-3.4058,15.01075z" fill="#2e2d2d" stroke-width="0"/><path d="M99.29757,160.36181c-1.1732,8.07988 -6.50005,16.06529 -11.24068,18.33512c-3.93719,1.88519 -12.32907,7.49542 -11.15589,-0.58444c0.24887,-1.7141 3.97868,-13.17648 5.1159,-20.11491c1.50392,-9.17594 0.59099,-14.34163 1.94571,-17.00625c2.44967,-4.81803 8.12819,-5.48853 10.31974,-5.17033c4.31997,0.62725 6.18841,16.46098 5.01522,24.54088z" fill="#585758" stroke-width="0"/><path d="M131.37812,179.25043l-0.3363,-1.80783c0,0 8.05139,-0.1957 14.07648,0.18989c8.48197,0.54282 32.01498,2.75984 32.01498,2.75984l1.59323,1.52598c0,0 -25.08289,-2.00454 -33.81652,-2.49666c-2.56494,-0.14452 -13.53184,-0.17121 -13.53184,-0.17121z" fill="#585657" stroke-width="0"/><path d="M123.65217,191.46761l7.10321,-12.8036l7.30373,0.09983c0,0 -2.33983,4.01899 -2.36297,4.77872c-0.11043,3.63013 -0.58844,27.77907 -0.58844,27.77907c0,0 -1.5254,0.22354 -2.43297,-1.80345c-1.62842,-3.63703 -2.45886,-10.69154 -3.89063,-13.02414c-1.23705,-2.01534 -5.13198,-5.02641 -5.13198,-5.02641z" fill="#5a5759" stroke-width="0"/><path d="M140.47776,162.78353l4.48741,-10.80056l2.32507,0.22529l-5.61892,10.86092z" fill="#a5a0a2" stroke-width="0"/><path d="M147.35268,162.68689l0.20157,-1.38816l26.22129,3.80719l-0.20156,1.38816z" fill="#494748" stroke-width="0"/><path d="M147.69986,159.73486l0.20157,-1.38816l26.22129,3.80719l-0.20157,1.38816z" fill="#494748" stroke-width="0"/><path d="M125.24837,179.11765l2.89364,-19.92935l13.50203,-7.75669l4.83911,0.38761l-22.2587,40.03061l-5.26515,-2.78886z" fill="#dbd5d8" stroke-width="0"/><path d="M97.3128,187.10093l1.53795,-11.69117l26.49137,3.04865c0,0 -0.03781,2.55886 -0.28136,3.33039c-0.6071,1.9232 -3.59048,8.50058 -3.59048,8.50058z" fill="#ccc6c9" stroke-width="0"/><path d="M102.7,176.37329l0.04538,-0.31253l22.705,2.4191l-2.74857,0.79765c0,0 -4.30354,-0.43672 -6.97958,-0.85733c-3.66422,-0.57597 -13.0223,-2.04685 -13.0223,-2.04685z" fill="#d8d1d5" stroke-width="0"/><path d="M106.71592,173.18037l2.44272,-16.82356l15.95768,2.31698l-2.44272,16.82356z" fill="#a39999" stroke-width="0"/><path d="M97.01473,187.22921l1.63221,-11.24145c0,0 7.82749,7.59016 11.73336,10.52238c3.90587,2.93228 10.37985,3.58933 10.37985,3.58933z" fill="#b4afb1" stroke-width="0"/><path d="M129.44057,198.0433c0,0 2.8485,1.46499 3.9539,1.48028c0.67905,0.00935 2.04769,-1.3975 2.04769,-1.3975l0.33756,9.21735l-0.60278,4.1516c0,0 -1.96762,0.02901 -2.86235,-2.71059c-0.7382,-2.26034 -2.87411,-10.74107 -2.87411,-10.74107z" fill="#504e4f" stroke-width="0"/><path d="M123.87355,192.06191l20.30955,-39.23243l1.69604,0.45356l-20.26703,39.65319z" fill="#858183" stroke-width="0"/><path d="M113.06818,149.30964l1.73617,-1.41575c0,0 27.22365,3.30208 39.50516,5.08532c10.65953,1.54774 31.56274,4.93946 31.56274,4.93946l0.24504,1.99732c0,0 -20.97489,-3.75886 -32.21064,-5.39019c-12.82987,-1.8628 -40.83846,-5.21617 -40.83846,-5.21617z" fill="#918b8e" stroke-width="0"/><path d="M114.25273,148.23799l2.28182,-1.63045c0,0 25.67041,3.37053 37.95191,5.15373c10.65954,1.54776 31.56274,4.93946 31.56274,4.93946l0.24504,1.99733c0,0 -20.97488,-3.75885 -32.21064,-5.3902c-12.82987,-1.8628 -39.83086,-5.06993 -39.83086,-5.06993z" fill="#a59fa2" stroke-width="0"/><path d="M175.20422,178.09187l-1.08902,-5.90034c0,0 0.38262,-1.16209 0.72827,-1.22591c0.30458,-0.05625 1.23842,0.86289 1.23842,0.86289l1.08901,5.90035c0,0 -0.39938,0.8288 -0.70468,0.88519c-0.34537,0.06373 -1.26208,-0.52218 -1.26208,-0.52218z" fill="#494242" stroke-width="0"/><path d="M134.96699,174.92602l4.86905,-8.87819l3.84538,0.55835l-4.86905,8.87819z" fill="#9c989a" stroke-width="0"/><path d="M146.98919,158.70905l1.97058,-0.69198l24.18263,3.52944l1.86062,1.23001z" fill="#757274" stroke-width="0"/><path d="M146.67858,161.50469l1.97056,-0.692l24.18263,3.52946l1.86063,1.23z" fill="#757274" stroke-width="0"/><path d="M94.76042,185.90858l10.04582,-57.30895l1.81694,0.8506l-9.56365,57.78432z" fill="#686666" stroke-width="0"/><path d="M94.55992,186.1526l2.98357,-15.993l1.71865,4.10803l-2.34433,13.10925z" fill="#535252" stroke-width="0"/><path d="M128.27359,167.93314c0,0 2.43902,-2.01589 2.57507,-2.95289c0.13349,-0.91946 -1.7663,-2.61743 -1.7663,-2.61743c0,0 2.87468,1.0941 2.52895,2.74994c-0.26336,1.26124 -1.61752,3.27657 -1.86241,4.35495c-0.69631,3.0662 -2.43346,10.23842 -2.43346,10.23842z" fill="#c4bec1" stroke-width="0"/><path d="M136.14459,167.14428l3.35672,-9.81496l3.14805,-3.94282l-4.00092,9.07752z" fill="#aca7a9" stroke-width="0"/></g></g><g stroke-width="0"><path d="M256.97722,156.5663l3.0068,-2.92755c0,0 1.99505,-1.16169 2.77196,-0.77103c0.88578,0.44544 2.25896,3.30092 2.25896,3.30092l-1.12287,3.96173c0,0 -4.23572,-0.62266 -5.4697,-0.93649c-0.5563,-0.14152 -1.44514,-2.62759 -1.44514,-2.62759z" fill="#c0c0c0"/><path d="M213.11695,159.95034c0,0 0.2392,-2.87543 1.45098,-3.85032c1.51864,-1.22171 7.8533,-2.53734 7.8533,-2.53734l-1.38388,4.5858l-0.41976,2.89092z" fill="#838383"/><path d="M212.95723,159.85198l9.0956,-6.23912l37.17256,5.39727l-1.075,7.40366z" fill="#999999"/><path d="M214.04019,159.34589l6.93509,-4.89545l33.42182,4.85271l-0.83925,5.7805c0,0 -4.04518,-0.5873 -9.24882,-1.34283c-3.38321,-0.49125 -7.10351,-2.10453 -10.67272,-2.62278c-3.82892,-0.55593 -7.46099,-0.01017 -9.61164,-0.32241c-4.209,-0.61113 -9.98452,-1.44972 -9.98452,-1.44972z" fill="#d952b3"/><path d="M217.4965,159.84553l9.13025,-4.63947l12.33476,1.79093c0,0 -7.57362,0.8277 -10.05047,1.39224c-2.62954,0.59926 -6.11164,2.22629 -6.11164,2.22629z" fill="#a5899d"/><path d="M225.41893,160.88189c0,0 5.17206,-0.23134 7.60366,0.12171c3.10699,0.45112 9.5137,2.36368 9.5137,2.36368l-9.5057,-1.71887z" fill="#adadad"/><path d="M213.06334,159.84901l8.21386,-5.62983l34.60384,5.02432l-0.09893,0.68148c0,0 -29.96265,-4.35044 -33.86826,-4.91755c-0.81691,-0.1186 -8.85039,4.84161 -8.85039,4.84161z" fill="#8a8a8a"/><path d="M258.84517,172.79754l1.40178,-9.65405l1.67884,-7.03367c0,0 1.10736,0.6356 1.5745,1.27286c0.46719,0.63722 0.68458,1.80847 0.68458,1.80847l-3.34758,13.89572z" fill="#9e9e9e"/><path d="M254.05805,167.82735c0,0 -0.59698,-2.23387 -0.50393,-3.82616c0.1253,-2.14418 1.76488,-7.48216 1.76488,-7.48216l1.96803,-0.04303c0,0 0.63722,0.89261 1.13157,0.81367c0.68155,-0.10883 2.57968,-1.40627 2.57968,-1.40627l-2.33913,12.61207z" fill="#9c9c9c"/><path d="M254.363,169.72147c-0.61555,-1.20538 -0.18033,-2.52972 -0.18033,-2.52972l5.86168,-6.42479c0,0 0.82113,4.0437 0.68945,4.95065c-0.3744,2.57852 -0.0608,7.42352 -0.0608,7.42352c0,0 -2.96119,-0.34536 -3.92624,-0.92867c-1.15746,-0.69966 -1.76806,-1.28562 -2.38368,-2.49105z" fill="#888888"/><path d="M256.23648,169.21116c-0.69067,-2.12096 -1.04939,-6.68292 1.35976,-10.44258c2.40918,-3.75966 4.49221,-1.30367 4.49221,-1.30367c0,0 0.36053,4.52173 0.0282,6.81059c-0.30271,2.08499 -1.94166,6.36809 -1.94166,6.36809c0,0 -3.24783,0.68855 -3.93846,-1.43243z" fill="#b4b4b4"/><path d="M261.4608,162.19372c-0.20275,1.39643 -5.27077,0.73874 -5.06807,-0.65763c0.20275,-1.39643 4.00599,-6.30306 4.80996,-6.18629c0.31138,0.04522 0.93392,0.2385 0.97596,1.31646c0.06648,1.70529 -0.59368,4.67188 -0.7179,5.52748z" fill="#bbbbbb"/></g><g stroke-width="0"><path d="M197.47256,156.47286c0,0 -5.0892,-5.70783 -4.82004,-7.5618c0.21981,-1.51379 6.21104,-0.76829 6.21104,-0.76829l7.45661,1.15526l-5.53118,10.08889z" fill="#f399c8"/><path d="M167.0273,153.71126c0,0 -0.65858,-2.21544 -0.24985,-3.2401c0.45104,-1.13074 3.00797,-4.40221 3.00797,-4.40221l22.82576,3.12662l7.79242,9.84501z" fill="#ee96c3"/></g></g><g stroke-width="0"><g><path d="M264.35906,147.91124l0.88821,-6.11761l47.32198,6.87092l-0.88821,6.11761z" fill="#61585b"/><path d="M264.66356,144.67793l0.4757,-3.27601l47.50189,6.89705l-0.47568,3.27602c0,0 -8.55123,-1.24162 -17.33544,-2.51703c-2.74645,-0.39875 -6.82571,0.54207 -9.3635,0.17356c-3.01774,-0.43819 -6.03622,-2.40957 -7.97194,-2.69066c-5.80443,-0.8428 -12.83097,-1.86305 -12.83097,-1.86305z" fill="#494344"/><path d="M326.79836,147.02514l-6.51604,-20.07759l20.70216,3.00586l12.85816,18.81716c0,0 -5.84652,0.52676 -9.08213,0.31796c-4.99284,-0.32225 -17.96217,-2.06338 -17.96217,-2.06338z" fill="#5e555b"/><path d="M326.30692,150.42489l0.79583,-5.48102c0,0 12.37963,0.3291 17.33306,0.26051c3.93114,-0.05444 6.79132,-0.22728 6.79132,-0.22728l4.88074,7.72016c0,0 -5.50639,0.81337 -9.67503,0.65668c-5.64827,-0.21231 -20.12584,-2.92907 -20.12584,-2.92907z" fill="url(#color-5)"/><path d="M318.58225,126.86119l0.57419,-3.95468l18.95277,2.75188l3.02446,4.47721z" fill="url(#color-6)"/><path d="M325.72556,150.36568l0.18098,-1.24619c0,0 15.45871,2.16731 20.81339,2.7755c4.00395,0.45477 8.60516,-0.47057 8.60516,-0.47057l0.71519,1.26061l-8.43298,0.8577z" fill="#312c30"/><g><path d="M227.27749,125.35968l1.04876,-8.79898l92.95064,13.49601l5.94019,12.2626z" fill="#8a6672"/><path d="M242.45458,135.9359c0,0 -2.96487,-4.07412 -5.53047,-5.92349c-2.56558,-1.84944 -9.58766,-2.62908 -9.58766,-2.62908l0.4109,-2.0493c0,0 12.1557,2.04423 19.09837,3.14854c16.58518,2.63792 79.98242,12.6105 79.98242,12.6105l2.64198,7.01943z" fill="#755761"/><path d="M244.91555,138.81022l-2.62162,-2.9996l86.74777,12.10086l0.75024,3.22235z" fill="#694e57"/><path d="M228.10625,116.92906l0.65076,-4.482l89.96149,12.37551l2.99627,6.15563c0,0 2.24695,3.6993 -2.98085,2.91467c-1.64574,-0.24701 -10.18793,-4.8911 -11.8378,-5.1387c-15.88898,-2.38466 -78.7899,-11.82516 -78.7899,-11.82516z" fill="#916b77"/><path d="M228.99638,112.48192l0.24512,-2.51536l88.99574,12.78159l0.69058,2.51764z" fill="#9e7582"/><path d="M302.2547,123.80978c-7.89101,-1.80044 -71.73548,-12.11352 -71.73548,-12.11352l86.94236,12.62358l3.68175,8.05379c0,0 -10.99764,-6.76342 -18.88866,-8.56389z" fill="#b38f9a"/></g><path d="M275.46744,143.24335l1.31818,-9.07859l20.00248,2.90427l-1.31819,9.0786z" fill="#3a3336"/><path d="M276.6981,134.15626l0.9278,-1.4038l18.34606,2.66373l0.75617,1.64821z" fill="#4b4246"/><path d="M275.67789,142.76934l1.17504,-8.09277c0,0 0.29149,5.36339 2.76286,6.84009c2.4714,1.47672 15.5056,4.07573 15.5056,4.07573z" fill="#332c30"/><path d="M319.50549,129.24237l-3.01715,-6.50099c0,0 1.10811,-0.5128 1.70248,-0.42646c0.66448,0.0965 2.09762,0.9782 2.09762,0.9782l3.01715,6.50099z" fill="#757575"/><path d="M321.81424,134.3618l-4.33833,-9.33248l3.80015,0.55177l4.33832,9.33248z" fill="#5a5a5a"/><path d="M325.08846,141.35382l-4.33832,-9.33248l3.80015,0.55178l4.33833,9.33248z" fill="#505050"/><path d="M328.47215,148.59489c-0.74097,-1.59397 -3.63214,-7.81341 -3.63214,-7.81341l3.80015,0.55179l5.06145,11.16969c0,0 -2.1114,0.23454 -3.04889,0.08346c-0.7313,-0.11786 -1.85378,-3.28875 -2.18049,-3.99156z" fill="#3b3b3b"/><path d="M225.37804,127.70926l2.6834,-18.48095l3.148,0.4571l-2.6834,18.48095z" fill="#443e42"/><path d="M206.46803,126.57938l0.17315,-5.96503l20.01866,2.9066l-0.85178,5.8665z" fill="url(#color-7)"/><path d="M206.55059,121.23842l1.55858,-10.73443l20.01866,2.9066l-1.55859,10.73444z" fill="#5e555b"/><path d="M208.09103,110.62898l1.38975,-4.00407l19.22692,2.79164l-0.59807,4.119z" fill="url(#color-8)"/><path d="M278.23184,116.80654l0.88127,-6.06964l14.7131,3.21408l3.89733,5.32638z" fill="#5e555b"/><path d="M297.67241,119.62924l-3.85904,-5.59028c0,0 2.88563,1.11682 4.94734,2.42492c2.06168,1.3081 5.33323,4.09771 5.33323,4.09771z" fill="#776b73"/><path d="M275.07488,117.51581l3.34565,-0.77171l25.37271,3.41453l3.38947,2.01912z" fill="#6d6269"/></g><g><path d="M277.46943,139.52231c0.17944,-1.23589 0.85065,-2.30726 1.3832,-3.27029c0.74202,-1.34201 1.50899,-2.4309 2.91086,-3.08235c0.8563,-0.39798 2.03775,-0.61986 3.05096,-0.71568c0.67017,-0.06332 1.71642,-0.31574 2.41217,-0.21466c1.57716,0.22897 1.90415,0.3591 2.9707,1.01517c0.64248,0.39523 2.20039,1.07522 2.6332,1.81727c0.36635,0.62801 0.70087,1.63511 0.94143,2.35672c0.41099,1.23332 0.9372,3.19379 0.73767,4.56801c-0.08431,0.58074 -0.7635,1.83461 -0.88673,2.3376c-0.39114,1.59685 -0.46513,2.10102 -1.82458,3.01869c-0.82628,0.55773 -2.39658,0.88335 -3.42907,1.14767c-1.06928,0.27381 -2.4563,0.94755 -3.61681,0.77905c-0.78334,-0.11375 -2.11971,-0.84835 -2.85891,-1.09333c-1.60389,-0.53146 -2.4616,-0.83225 -3.31658,-2.10855c-0.73317,-1.09444 -0.76147,-2.71363 -0.92681,-4.10949c-0.08685,-0.73331 -0.2918,-1.68027 -0.18068,-2.44587z" fill="#3a3a3a"/><path d="M278.2099,139.50994c0.16425,-1.13098 0.77849,-2.11134 1.26577,-2.99259c0.67902,-1.22803 1.38078,-2.22447 2.6637,-2.82068c0.7836,-0.36419 1.86481,-0.56728 2.79194,-0.65488c0.61327,-0.05795 1.57071,-0.28887 2.2073,-0.19644c1.44331,0.20955 1.74253,0.32858 2.71849,0.92893c0.5879,0.36166 2.01353,0.98395 2.40967,1.66292c0.33523,0.57472 0.64145,1.4963 0.86146,2.15666c0.3761,1.12861 0.8576,2.92263 0.67505,4.18012c-0.0772,0.53145 -0.69867,1.67886 -0.81141,2.1391c-0.35796,1.46123 -0.42562,1.92264 -1.66963,2.76236c-0.75607,0.5104 -2.19311,0.80826 -3.13791,1.05022c-0.97848,0.25058 -2.24776,0.86709 -3.30973,0.71292c-0.71679,-0.10405 -1.93969,-0.77631 -2.61623,-1.00046c-1.46769,-0.48636 -2.25261,-0.76158 -3.03503,-1.9295c-0.67094,-1.00152 -0.69677,-2.48325 -0.84812,-3.76057c-0.07948,-0.67107 -0.26703,-1.53759 -0.1653,-2.23817z" fill="#5a5a5a"/><path d="M290.92617,136.77945c-1.68093,-2.65483 -6.69274,-3.58522 -6.69274,-3.58522c0,0 1.9997,-0.25532 3.96825,0.03749c1.59457,0.23721 3.09827,0.82381 4.05882,2.27791c0.96134,1.45533 1.1378,2.98119 1.22116,4.40339c0.16338,2.78841 -0.61376,5.09348 -0.61376,5.09348c0,0 -0.26082,-5.57216 -1.94175,-8.22699z" fill="#6d6d6d"/><path d="M284.93342,140.9808c0.08269,-0.56979 0.61159,-0.96455 1.18135,-0.8818c0.56979,0.08269 0.96455,0.61159 0.8818,1.18136c-0.08269,0.56979 -0.61159,0.96455 -1.18136,0.8818c-0.56979,-0.08269 -0.96455,-0.61159 -0.8818,-1.18136z" fill="#272727"/><path d="M284.83552,141.10484c0.07589,-0.52257 0.56099,-0.88466 1.08353,-0.80881c0.52257,0.07589 0.88466,0.56099 0.80881,1.08353c-0.07589,0.52257 -0.56099,0.88466 -1.08352,0.80883c-0.52257,-0.07589 -0.88466,-0.56099 -0.80883,-1.08352z" fill="#131313"/></g></g></g></g></g><path d="M181.10061,237.0833c0.22765,-1.56823 2.13826,-44.36376 2.86921,-45.95037c0.98686,-2.14221 9.18594,0.41306 12.33597,-0.65319c9.64754,-3.26552 20.01783,-6.39505 20.01783,-6.39505c0,0 13.83895,2.59588 18.03147,3.20465c3.13529,0.45527 65.03774,0.86385 64.28836,11.18481c-1.01645,13.99913 -42.40868,-3.85207 -44.15178,8.15267c-0.44129,3.03906 1.91535,3.57876 0.90331,6.61205c-0.24294,0.72799 -3.31438,5.51523 -3.77721,7.14164c-0.73476,2.58177 1.95111,7.01625 -1.77,9.60768c-2.96625,2.06577 -1.77526,7.30817 -2.58201,8.4194c-5.55984,7.65753 -13.25562,2.69582 -22.17495,1.40077c-10.57522,-1.53547 -26.49888,-0.08512 -35.60733,-2.65792c-3.93174,-1.11061 -9.04559,4.49767 -8.38278,-0.06722z" fill="#86c8f5" stroke-width="0"/></g></g></svg>