<svg version="1.1" xmlns="http://www.w3.org/2000/svg" xmlns:xlink="http://www.w3.org/1999/xlink" width="469.44477" height="184.5574" viewBox="0,0,469.44477,184.5574"><defs><linearGradient x1="535.32882" y1="205.38706" x2="534.58077" y2="210.14016" gradientUnits="userSpaceOnUse" id="color-1"><stop offset="0" stop-color="#1f1d20"/><stop offset="1" stop-color="#202022"/></linearGradient><linearGradient x1="536.51789" y1="200.65939" x2="535.65715" y2="206.12828" gradientUnits="userSpaceOnUse" id="color-2"><stop offset="0" stop-color="#302d31"/><stop offset="1" stop-color="#1f1e20"/></linearGradient><linearGradient x1="198.33075" y1="196.09422" x2="197.80366" y2="199.44306" gradientUnits="userSpaceOnUse" id="color-3"><stop offset="0" stop-color="#585758"/><stop offset="1" stop-color="#575758"/></linearGradient><linearGradient x1="183.81004" y1="204.0114" x2="183.39626" y2="206.64043" gradientUnits="userSpaceOnUse" id="color-4"><stop offset="0" stop-color="#363536"/><stop offset="1" stop-color="#353536"/></linearGradient><linearGradient x1="339.8615" y1="134.62822" x2="339.00044" y2="140.09936" gradientUnits="userSpaceOnUse" id="color-5"><stop offset="0" stop-color="#5e555b"/><stop offset="1" stop-color="#2b2629"/></linearGradient><linearGradient x1="333.43579" y1="112.69555" x2="332.81447" y2="116.6431" gradientUnits="userSpaceOnUse" id="color-6"><stop offset="0" stop-color="#72676e"/><stop offset="1" stop-color="#5e555b"/></linearGradient><linearGradient x1="219.6917" y1="108.86335" x2="218.77006" y2="114.71931" gradientUnits="userSpaceOnUse" id="color-7"><stop offset="0" stop-color="#5e555b"/><stop offset="1" stop-color="#4d454a"/></linearGradient><linearGradient x1="221.9076" y1="94.78441" x2="221.26047" y2="98.89599" gradientUnits="userSpaceOnUse" id="color-8"><stop offset="0" stop-color="#74686f"/><stop offset="1" stop-color="#5e555b"/></linearGradient></defs><g transform="translate(-70.80428,-93.33624)"><g data-paper-data="{&quot;isPaintingLayer&quot;:true}" fill-rule="nonzero" stroke="none" stroke-linecap="butt" stroke-linejoin="miter" stroke-miterlimit="10" stroke-dasharray="" stroke-dashoffset="0" style="mix-blend-mode: normal"><path d="M102.2272,224.41136c1.5763,-3.87095 5.36973,-15.67148 8.20603,-23.99465c2.83631,-8.32313 17.38568,-16.99841 20.80056,-14.28503c3.41488,2.71337 1.9668,1.21746 3.02598,9.13758c0.44203,3.30536 -7.31847,7.21778 -9.65313,10.46584c-2.99896,4.1722 -5.33341,11.04875 -4.42494,11.64099c0.80215,0.52293 2.61562,5.88454 3.47384,6.08272c9.5955,2.21578 19.23508,0.24209 24.60599,2.42919c7.00551,2.85275 3.06916,13.40893 3.80475,20.01599c0.39965,3.58961 0.44632,6.85489 1.57512,10.10982c1.07908,3.11149 -2.74564,8.59632 -4.2272,12.23462c-5.88419,14.44991 -24.68492,9.92182 -39.13485,4.03762c-3.89581,-1.58642 -6.16629,6.24283 -9.14953,2.22357c-6.12537,-8.2526 -10.9568,-31.19764 -8.91687,-41.15806c0.65158,-3.1815 8.97383,-6.38524 10.01427,-8.94025z" fill="#86c8f5" stroke-width="0"/><g><g stroke-width="0"><path d="M261.30275,190.82931l-7.71998,-16.74921l25.35621,3.39335c0,0 -1.99135,5.58715 -2.60839,8.22178c-0.59685,2.54859 -1.03526,7.33641 -1.03526,7.33641z" fill="#7f7d7e"/><path d="M261.3694,191.03894l-2.7236,-6.10463c0,0 1.77719,3.87856 4.87835,4.98889c2.23316,0.79956 4.14457,0.78663 6.74354,1.52045c2.59897,0.73379 4.89997,1.76699 4.89997,1.76699z" fill="#6c6a6b"/></g><g><g><g><path d="M531.62601,209.67513l-1.28585,-5.07319c0,0 5.66083,2.56926 8.08785,3.85506c2.42696,1.28585 0.73052,2.16894 0.73052,2.16894z" fill="url(#color-1)" stroke-width="0"/><path d="M540.02784,201.4139c0,0 1.09973,2.52952 -1.60486,3.00776c-2.7046,0.47822 -5.76249,1.23505 -5.76249,1.23505l-0.09809,-5.61983z" data-paper-data="{&quot;index&quot;:null}" fill="url(#color-2)" stroke-width="0"/><path d="M522.12582,208.17525l0.32624,-2.07284l14.59292,2.29678c0,0 1.11876,0.98018 1.54373,1.41783c0.38199,0.3934 -0.87207,0.81207 -0.87207,0.81207z" fill="#444444" stroke-width="NaN"/><path d="M522.46304,206.24932l-0.90353,-1.91768l12.46227,1.96141l3.09745,2.14979c0,0 -4.2036,-0.42069 -6.48306,-0.76183c-2.57077,-0.38477 -8.17311,-1.43174 -8.17311,-1.43174z" fill="#535353" stroke-width="0"/><path d="M521.42753,204.44925l-0.22131,-0.68271l11.33426,1.78388l1.58327,0.78138z" fill="#363636" stroke-width="0"/><path d="M522.12582,208.17525l0.17698,-1.12449c0,0 6.30462,1.45146 9.14934,1.89923c2.41073,0.37942 6.83359,0.61632 6.83359,0.61632c0,0 0.7818,0.59096 0.99451,0.82985c0.17947,0.20152 -0.3192,0.42883 -0.3192,0.42883c0,0 -4.7381,-0.33624 -7.0237,-0.69599c-3.0836,-0.48534 -9.81153,-1.9537 -9.81153,-1.9537z" fill="#3a3a3a" stroke-width="NaN"/><path d="M521.52041,203.83448l-0.4094,-0.95901l13.47575,2.12093l-1.94212,0.62324z" fill="#242424" stroke-width="0"/><path d="M520.28335,202.93677l0.25721,-1.63417c0,0 8.02696,1.05463 10.98626,1.52041c2.01621,0.31731 5.05275,1.00396 5.05275,1.00396l-2.02311,1.18927z" fill="#3a3a3a" stroke-width="0"/><path d="M520.40598,201.32445l0.31755,-2.01771c0,0 7.61152,0.86401 10.88548,1.37931c2.83312,0.44591 7.6277,1.53449 7.6277,1.53449l-2.70635,1.64177c0,0 -3.59766,-0.64973 -5.81475,-0.99871c-2.9471,-0.46387 -10.30961,-1.53911 -10.30961,-1.53911z" fill="#444444" stroke-width="0"/><path d="M520.66767,199.38408l0.13231,-0.84072c0,0 7.79731,1.10197 11.35079,1.66129c2.47436,0.38945 7.9302,1.37337 7.9302,1.37337l-0.98683,0.70625c0,0 -4.94764,-1.0709 -7.87679,-1.53196c-3.22722,-0.5079 -10.54966,-1.3682 -10.54966,-1.3682z" fill="#535353" stroke-width="0"/><path d="M520.65879,198.60732l0.05293,-0.33627c0,0 7.66184,0.6926 11.08008,1.23061c2.95541,0.46514 8.2436,1.81074 8.2436,1.81074l-0.0158,0.34214c0,0 -5.91018,-1.0972 -9.11576,-1.60172c-3.24749,-0.51115 -10.24506,-1.44547 -10.24506,-1.44547z" fill="#4e4e4e" stroke-width="0"/></g><g stroke-width="0"><g><g><g><path d="M516.41912,206.78306l-2.4795,-13.71594l0.81391,-1.61444c0,0 2.93051,3.7302 3.45445,6.33368c0.28447,1.41344 -0.35202,9.22284 -0.35202,9.22284z" fill="#383638"/><path d="M517.56498,206.26349c0,0 0.15246,-0.59321 -0.08686,-3.11597c-0.261,-2.7512 -1.07101,-6.56049 -1.29239,-7.68252c-0.49697,-2.51858 -1.22238,-2.76484 -1.22238,-2.76484l4.83207,0.17155l2.79855,14.18334z" fill="#555355"/><path d="M515.01325,192.79438l-0.38253,-1.31177c0,0 2.12003,-0.47617 3.06996,-0.32668c0.89014,0.14011 1.89852,1.03503 1.89852,1.03503l0.37122,1.38366z" fill="#686668"/></g><path d="M510.81536,205.90108l-2.4795,-13.71593l0.48398,-1.64597c0,0 3.26044,3.76169 3.78437,6.36522c0.28446,1.41343 -0.35202,9.22284 -0.35202,9.22284z" fill="#383638"/><path d="M511.96124,205.38151c0,0 0.15247,-0.59322 -0.08685,-3.11597c-0.261,-2.7512 -1.07101,-6.56049 -1.29239,-7.68252c-0.49697,-2.51858 -1.22238,-2.76484 -1.22238,-2.76484l4.16896,-0.43897c0,0 0.81863,1.39853 0.97009,2.16621c0.43154,2.18711 2.49162,12.62767 2.49162,12.62767z" fill="#555355"/><path d="M509.40958,191.91238l-0.59806,-1.34574c0,0 2.3355,-0.44227 3.28547,-0.29273c0.89014,0.14011 1.61115,0.98981 1.61115,0.98981l0.49469,1.40307z" fill="#686668"/><path d="M518.52786,205.40902c0.12742,-0.80955 0.88698,-1.3625 1.69654,-1.2351c0.80955,0.12742 1.3625,0.88698 1.2351,1.69654c-0.12742,0.80955 -0.88698,1.3625 -1.69654,1.2351c-0.80955,-0.12742 -1.3625,-0.88698 -1.2351,-1.69654z" fill="#312f31"/><path d="M519.63096,202.6173l-1.11271,-5.78993l1.59426,0.10581l1.1027,5.85365z" fill="#444144"/></g><path d="M472.73332,194.87975l-2.03611,-11.27722l29.33608,5.80812l-1.96473,9.4566z" fill="#444444"/><path d="M485.82922,192.97724c0,0 0.70937,-0.41674 1.59467,-1.39588c0.80948,-0.89525 1.77847,-2.34006 2.23056,-2.73836c1.22874,-1.53407 3.50575,-0.70315 3.50575,-0.70315l-1.0692,0.49281l-5.13286,4.52225z" fill="#292929"/><path d="M486.95748,203.81385l-4.7293,-11.85082c0,0 3.37358,1.06882 5.21962,0.29735c1.43452,-0.59954 1.75069,-3.21413 3.35258,-3.24635c4.59585,-0.0925 17.38126,1.48058 17.38126,1.48058c0,0 2.08991,7.56186 2.55699,10.55795c0.32245,2.06841 0.03989,6.51049 0.03989,6.51049z" fill="#4a464a"/><path d="M493.08237,191.50794c-4.40645,-1.33744 -2.7711,-2.46077 -2.7711,-2.46077c0,0 0.98555,-1.16317 2.85289,-1.01716c4.58243,0.35816 13.03066,2.27182 14.73597,2.51425c0.80426,0.11435 0.23418,0.7412 0.23418,0.7412c0,0 -1.84222,2.1254 -3.41351,2.13524c-1.57129,0.00984 -7.23194,-0.57531 -11.63843,-1.91273z" fill="#5e595e"/></g><g><path d="M474.27472,208.47398l-2.31001,-18.51985l18.63336,3.22253l4.06813,5.02189l6.0404,0.85097l0.84529,13.71759z" fill="#4d4846"/><path d="M478.8481,209.58566l21.86521,-6.06583l22.08792,3.231c0,0 0.64575,4.33595 0.57633,5.69634c-0.03539,0.69355 -0.61082,2.88418 -0.61082,2.88418z" fill="#423d3b"/><path d="M476.37284,200.78274l-1.61,-10.22076l0.81054,0.12758l1.61,10.22076z" fill="#363332"/><path d="M479.55117,208.88488l0.18928,-1.20257c0,0 5.59621,-1.69599 14.55087,-0.28664c1.18974,0.18724 4.99065,3.36225 6.18982,3.55099c7.60843,1.19747 15.05564,2.36957 17.88889,2.81551c2.30733,0.36316 4.86569,-0.55022 4.86569,-0.55022l-0.39139,2.48677z" fill="#312e2c"/><path d="M483.87298,196.66801l-1.0048,-4.83033l8.20669,1.29166l3.41707,5.01354l6.19968,1.17221l-7.80041,0.745z" fill="#585350"/><path d="M473.40887,202.13323l0.17539,-1.11449c0,0 8.53003,-2.44714 11.37228,-1.9998c4.2836,0.67418 16.10941,2.53544 16.10941,2.53544l-0.17539,1.11449c0,0 -12.02846,-1.89317 -16.31203,-2.56735c-2.78387,-0.43814 -11.16967,2.03169 -11.16967,2.03169z" fill="#2b2827"/></g></g></g><g><g><g><path d="M136.21414,192.2414c0.18689,2.29091 1.28945,4.85443 0.17062,4.9457c-1.11882,0.09126 -2.66382,-2.73676 -2.85072,-5.02768c-0.18689,-2.29091 -2.33421,-10.6764 -1.21538,-10.76768c1.11882,-0.09126 3.70856,8.55875 3.89544,10.84968z" fill="#615e5f" stroke-width="0"/><g><path d="M181.95404,169.14296c-0.45073,-0.60503 -2.55891,-2.26539 -2.55891,-2.26539l10.24713,-1.30267l-7.04647,6.17961c0,0 -0.19102,-2.00651 -0.64177,-2.61153z" fill="#756a6a" stroke-width="0"/><path d="M173.30108,166.06303l2.13522,-13.56633l19.22011,-2.91386l-3.0473,19.36167z" fill="#8a7c7c" stroke-width="0"/><path d="M132.90525,165.21925l9.4049,-16.87632l34.52927,5.29955l2.50883,13.21746c0,0 -22.95539,-2.01747 -30.7028,-2.29119c-3.21603,-0.11363 -15.74021,0.65052 -15.74021,0.65052z" fill="#7c787a" stroke-width="0"/><path d="M142.05314,150.73692l0.08397,-1.48649c0,0 25.60898,4.03059 33.65974,5.29765c4.50442,0.70892 16.94222,-3.78229 16.94222,-3.78229l-0.25336,1.60982c0,0 -12.14421,4.51784 -16.49828,3.81778c-7.98373,-1.28373 -33.93426,-5.45647 -33.93426,-5.45647z" fill="#535353" stroke-width="0"/><path d="M101.10579,160.93093l3.13345,-19.90892c0,0 5.5728,-6.26389 13.08585,-7.40562c9.33154,-1.41809 25.73738,2.9711 27.78286,3.29301c1.56966,0.24706 -14.37019,8.28317 -14.37019,8.28317l-3.13345,19.90892z" fill="#8d898b" stroke-width="0"/><path d="M279.12417,142.23826l2.07201,-2.85687l106.23494,16.86484l-2.29267,14.5669c0,0 -37.60808,-4.05088 -49.61563,-6.36197c-5.96325,-1.14775 -56.39859,-22.21295 -56.39859,-22.21295z" fill="#c98cac" stroke-width="0"/><path d="M242.02052,238.64195l-2.47712,-13.48555c0,0 4.16767,6.56731 6.81329,8.0738c1.68558,0.95983 5.80101,1.99403 12.21642,0.53634c5.16466,-1.17351 11.1273,-5.81368 11.1273,-5.81368l-13.84642,12.86633z" fill="#a08e97" stroke-width="0"/><path d="M338.70413,206.36533l1.36302,-23.69767l18.53994,1.49796l-3.29561,20.93927c0,0 -6.58689,0.70358 -9.4269,0.96342c-1.30768,0.11967 -7.18042,0.29702 -7.18042,0.29702z" fill="#96858d" stroke-width="0"/><path d="M239.62279,242.05655l0.86136,-5.47278c0,0 11.59495,3.91893 16.6436,1.55377c3.4159,-1.60023 40.54788,-35.87796 40.54788,-35.87796c0,0 3.90514,-3.20504 4.35722,-6.05155c0.22742,-1.43193 1.34135,-5.48675 0.87927,-7.8993c-0.46619,-2.43408 -2.50945,-3.21965 -2.50945,-3.21965l-2.70278,-14.16476l19.5527,3.22285l-7.00551,25.79785l3.31417,3.11501c0,0 -10.3717,4.4416 -15.71481,8.61731c-8.36,6.53349 -36.189,32.91245 -36.189,32.91245z" fill="#918189" stroke-width="0"/><path d="M315.75098,203.10985l5.64602,-28.06737l13.56526,2.41418l8.37164,13.46753l-4.75229,15.77901z" fill="#96858d" stroke-width="0"/><path d="M310.99393,204.2331l-1.83421,-4.48549l7.5678,-25.32118l5.03124,0.70613l-5.11193,28.13401z" fill="#8f8187" stroke-width="0"/><path d="M337.34621,206.61357c0,0 3.75483,-6.15817 3.25983,-11.7135c-0.28503,-3.19871 -4.83001,-5.90802 -5.00473,-7.86895c-0.33377,-3.74587 -0.85009,-9.54082 -0.85009,-9.54082l7.0811,5.53217c0,0 2.24317,7.6556 2.17109,11.95824c-0.04842,2.89074 -2.50538,8.9585 -3.82477,11.38169c-0.11122,0.20428 -1.26013,-0.06083 -1.33685,0.09444c-0.18738,0.37933 0.72915,0.75778 0.72915,0.75778z" fill="#86787e" stroke-width="0"/><path d="M341.38703,184.47077c0,0 -2.43837,-4.38742 -6.91285,-6.07522c-5.06564,-1.91073 -21.9283,-4.80378 -21.9283,-4.80378l158.02419,10.5149l1.92778,9.71969l6.08917,12.23819c0,0 -99.16643,-18.21081 -119.50444,-21.41181c-6.63655,-1.04452 -17.69555,-0.18201 -17.69555,-0.18201z" fill="#df8db7" stroke-width="0"/><path d="M181.69382,207.19912l0.89937,-36.57478c0,0 2.24588,-3.44337 2.7745,-3.57847c5.82809,-1.48986 39.13128,-7.0312 44.45984,-5.90274c5.83718,1.23613 -10.95188,10.66915 -10.95188,10.66915c0,0 -14.54955,-0.2391 -17.7172,3.56459c-4.30067,5.16426 -2.21027,23.06041 -2.21027,23.06041z" fill="#c77da3" stroke-width="0"/><path d="M257.88666,188.89372l-1.44042,-2.35789c0,0 7.81734,-7.48214 10.57779,-9.36862c2.84989,-1.94764 6.26177,-2.13958 6.26177,-2.13958l5.50536,3.19705c0,0 -4.34347,-1.19238 -6.94533,0.13553c-2.23356,1.13995 -6.41867,3.59785 -9.66565,6.21721c-2.36188,1.90541 -4.2935,4.31637 -4.2935,4.31637z" fill="#414041" stroke-width="0"/><path d="M141.90036,149.65365l6.55905,-10.80105l48.0371,7.56051c0,0 -3.55605,3.95066 -6.9434,5.40786c-3.32456,1.4302 -13.19588,3.25585 -13.19588,3.25585z" fill="#979395" stroke-width="0"/><path d="M142.86829,148.64905l5.76877,-10.92548l48.0371,7.56051c0,0 -3.55605,3.95066 -6.9434,5.40786c-3.32456,1.4302 -13.19588,3.25585 -13.19588,3.25585z" fill="#bdb7ba" stroke-width="0"/><path d="M339.67524,207.3048l-1.77031,-0.79843l17.29309,-1.50444c0,0 -3.83695,1.47882 -6.4146,1.87985c-2.57766,0.40106 -9.10816,0.42304 -9.10816,0.42304z" fill="#887980" stroke-width="0"/><path d="M184.07707,208.04442c0,0 -0.68463,-10.70206 -0.54363,-19.32342c0.14168,-8.66345 0.2997,-16.78432 0.83523,-20.32888c0.09075,-0.60052 3.26278,-10.15415 3.83755,-10.59153c3.10246,-2.36075 9.54614,6.4923 15.21416,6.26728c8.39246,-0.33321 27.34851,2.12984 27.34851,2.12984l-9.17661,3.93176c0,0 -19.65858,-0.19363 -22.81985,4.5093c-4.27594,6.36118 -0.0424,28.15718 -0.0424,28.15718z" fill="#d486ae" stroke-width="0"/><path d="M185.7419,204.7443c0,0 -0.22561,-41.41018 2.6519,-51.15836c1.34637,-4.56105 -0.55164,-14.07976 -0.55164,-14.07976l48.96765,14.7614l-1.09189,16.09595c0,0 -31.17173,-8.03737 -38.42036,-2.82706c-4.83872,3.47805 -2.50351,32.43633 -2.50351,32.43633z" fill="#e490bb" stroke-width="0"/><g stroke-width="0"><path d="M332.27657,164.03803l1.28652,-8.17425l9.24619,1.45525l-1.28652,8.17425z" fill="#454545"/><path d="M333.21771,163.41195l0.7823,-7.26481l11.18847,1.76095l-1.1347,7.20938z" fill="#b0b0b0"/><path d="M333.68789,158.94165l0.21426,-2.83143l11.40251,1.79464l-0.29656,1.88421c0,0 -7.74821,-0.89308 -9.44848,-1.02032c-0.56812,-0.04252 -1.87172,0.17294 -1.87172,0.17294z" fill="#bebebe"/><path d="M344.38955,164.61398c0,0 -5.07603,-3.38571 -3.92928,-6.99904c1.704,-5.36936 5.70078,-4.25633 5.70078,-4.25633l39.54577,7.57384l-1.56418,9.93827z" fill="#9c989a"/><path d="M346.35551,163.61829c0,0 -1.90942,-3.86277 -2.00651,-4.81632c-0.14389,-1.41339 2.28641,-4.02462 2.28641,-4.02462l41.08474,6.50005l-1.55944,7.3354z" fill="#898587"/><path d="M346.23547,163.80012l-0.70572,-2.07431l37.76683,5.94408l-0.30156,1.91581z" fill="#c1bcbf"/><path d="M346.64348,160.42858c0,0 -1.10445,-1.55866 -0.95872,-2.48459c0.13632,-0.86614 1.80675,-2.90362 1.80675,-2.90362l38.1965,6.01175l-0.84805,5.38818z" fill="#0d0d0d"/><path d="M346.52259,161.19647c0,0 -1.01056,-2.15509 -0.86481,-3.08103c0.13632,-0.86614 1.71289,-2.30719 1.71289,-2.30719l38.1965,6.01175l-0.84805,5.38818z" fill="#2e2e2e"/><path d="M341.4594,162.32629c-2.12991,-3.43991 -0.61565,-5.5669 -0.61565,-5.5669c0,0 1.17061,4.34719 2.25151,5.426c1.27975,1.27721 4.63331,3.18779 4.63331,3.18779l-3.47699,-0.4762c0,0 -2.41732,-1.96521 -2.79218,-2.57064z" fill="#7d7a7c"/><path d="M349.04286,161.90663c0,0 -0.53416,-2.32333 -0.35636,-3.45296c0.15628,-0.99301 1.36697,-2.968 1.36697,-2.968l4.76469,0.74991c0,0 -0.79816,2.10547 -0.93318,2.96318c-0.18552,1.17877 -0.07742,3.45779 -0.07742,3.45779z" fill="#555555"/><path d="M357.55475,163.24627c0,0 1.05083,-2.38878 1.22863,-3.51842c0.15628,-0.993 -0.21802,-2.90254 -0.21802,-2.90254l5.31787,0.83695c0,0 -0.67825,1.62945 -0.81323,2.48711c-0.18552,1.17877 -0.19735,3.93381 -0.19735,3.93381z" fill="#555555"/><path d="M366.76799,164.69637c0,0 1.05084,-2.38877 1.22864,-3.51842c0.15628,-0.99301 -0.21803,-2.90254 -0.21803,-2.90254l5.23886,0.82455c0,0 -0.67825,1.62945 -0.81323,2.48711c-0.18552,1.17877 -0.19735,3.93381 -0.19735,3.93381z" fill="#555555"/><path d="M376.31381,166.19878c0,0 1.1712,-2.0099 1.34897,-3.13956c0.15628,-0.993 -0.33839,-3.2814 -0.33839,-3.2814l5.0808,0.79966c0,0 0.50958,2.08633 0.37462,2.94405c-0.18552,1.17877 -1.3852,3.47692 -1.3852,3.47692z" fill="#555555"/><path d="M349.68105,156.13968l-0.53262,-0.8937l35.13014,5.52912l-1.63997,0.55176c0,0 -2.79569,-0.44 -5.22794,-0.82283c-0.53018,-0.08343 -1.48231,-0.56608 -2.2764,-0.69111c-0.76783,-0.12084 -1.37009,0.11721 -2.3245,-0.03303c-1.48835,-0.23425 -3.16762,-0.49856 -4.92565,-0.77527c-0.72888,-0.1147 -1.30342,-0.59341 -2.05136,-0.71113c-0.66506,-0.10467 -1.50243,0.15185 -2.17064,0.04665c-1.65845,-0.26102 -3.30056,-0.51946 -4.84446,-0.76246c-0.70898,-0.1116 -1.32907,-0.65294 -1.98873,-0.75677c-0.80525,-0.12673 -1.63599,0.18625 -2.34154,0.07519c-2.87803,-0.45296 -4.80629,-0.75645 -4.80629,-0.75645z" fill="#474747"/></g><g><path d="M193.82695,199.50872l4.11769,-2.25469c0,0 2.35292,3.21986 5.01334,4.54459c2.35305,1.17164 10.14054,3.00094 10.14054,3.00094l-3.29974,3.88855z" fill="#6d6a6b" stroke-width="0"/><path d="M184.85537,204.67691l10.26745,-5.86012c0,0 2.84454,2.73202 4.88406,3.72303c3.08543,1.49928 11.82722,4.39734 11.82722,4.39734l-4.89541,3.58987z" fill="#615e5f" stroke-width="0"/><path d="M183.41448,226.68793l2.04431,-22.52918c0,0 4.17818,1.45927 8.93619,2.23813c3.71388,0.60793 7.84411,0.40043 10.20308,1.38755c4.14133,1.73292 35.33873,19.15086 35.33873,19.15086l0.86641,10.43645z" fill="#575455" stroke-width="0"/><path d="M208.94773,203.33182c7.71427,-4.41958 17.77701,-16.45347 19.41987,-18.79795c1.18354,-1.68902 2.68295,-6.79403 2.68295,-6.79403l6.55049,7.92967c0,0 2.59196,21.15701 1.79195,33.83352c-0.22387,3.54702 1.64965,7.83564 0.24978,9.09982c-1.25419,1.13266 -18.36528,0.75766 -23.57503,-0.83647c-10.9637,-3.35479 -17.11905,-1.49971 -19.99804,-7.29306c-2.87903,-5.79338 5.11027,-10.8834 5.11027,-10.8834c0,0 5.75947,-5.10747 7.76769,-6.25807z" fill="#504e4f" stroke-width="0"/><path d="M218.79848,171.65287c0,0 0.6231,-1.41309 1.57283,-1.93529c1.22146,-0.67158 5.14791,-1.76008 5.14791,-1.76008c0,0 8.9316,3.49853 11.51812,6.42631c2.38645,2.70124 -5.41637,11.88089 -5.41637,11.88089l-1.14857,-5.6081z" fill="#464445" stroke-width="0"/><path d="M234.40774,221.91844c0,0 -10.14395,4.7362 -18.55186,3.58648c-8.11112,-1.10919 -14.503,-8.07954 -14.17618,-9.46787c0.1771,-0.75219 8.52254,-2.78472 12.61311,-6.41426c4.54705,-4.03464 4.95105,-9.74277 6.59802,-11.51874c4.598,-4.9581 14.52278,-13.69986 14.41427,-19.83498c-0.11377,-6.43402 -10.37855,-10.14898 -10.37855,-10.14898c0,0 4.15446,-1.62554 9.09968,-0.9787c2.1065,0.27554 6.38332,2.35155 7.23552,2.87539c2.79461,1.71775 4.50672,3.6436 4.50672,3.6436c0,0 4.3727,-4.25116 7.97911,-3.99684c3.60641,0.25434 21.745,6.09307 21.745,6.09307l-17.97146,9.9205z" fill="#555354" stroke-width="0"/><path d="M220.40685,198.63017c0,0 6.25507,-10.02218 11.7729,-14.65551c5.51784,-4.63337 10.04114,-7.14108 13.53055,-6.59188c2.52684,0.39769 4.43559,9.41957 4.43559,9.41957l-15.41514,26.69719c0,0 -14.95319,0.96602 -16.02681,-1.71417c-0.84793,-2.1168 1.70292,-13.1552 1.70292,-13.1552z" fill="#585758" stroke-width="0"/><path d="M238.44354,229.10471c0,0 -1.88062,-6.56328 -1.08842,-9.49799c1.10664,-4.0998 4.50035,-16.37539 4.50035,-16.37539l0.31041,10.61302c0,0 -2.14819,9.52937 -2.48817,12.54307c-0.32803,2.90769 0.74054,5.273 0.74054,5.273z" fill="#3f3e3f" stroke-width="0"/><path d="M240.30377,211.31234c0.06732,-1.68483 1.52981,-9.26048 1.52981,-9.26048c0,0 11.70689,-12.90475 14.19131,-15.19948c0.72835,-0.67271 4.31228,-1.86088 4.31228,-1.86088l-2.38092,4.53892c0,0 -1.6486,0.35196 -1.90053,0.79603c-0.2684,0.47311 0.33646,1.96108 0.33646,1.96108l-6.38495,7.57958c0,0 -1.78764,0.74166 -2.04321,1.21303c-0.25565,0.47149 0.28552,1.45574 0.28552,1.45574c0,0 -5.19762,8.2333 -6.40527,10.48768c-0.55841,1.04238 -0.54891,2.49411 -0.54891,2.49411c0,0 -1.05891,-2.52047 -0.99158,-4.2053z" fill="#474647" stroke-width="0"/><path d="M230.59741,188.55815l19.52238,11.40927c0,0 -1.33185,0.8151 -1.64999,1.31074c-0.23473,0.36571 -0.08572,1.39348 -0.08572,1.39348z" fill="#3f3e3e" stroke-width="NaN"/><path d="M238.13406,179.26396l20.05391,10.30198c0,0 -1.23258,0.65973 -1.52751,1.17647c-0.30745,0.5387 -0.11022,1.66224 -0.11022,1.66224z" fill="#3f3e3e" stroke-width="NaN"/><path d="M221.38631,205.66109c0,0 9.36635,9.26186 14.24364,16.08068c4.8773,6.81882 2.77256,7.70924 2.77256,7.70924z" fill="#636162" stroke-width="NaN"/><path d="M238.09627,184.95061c0,0 -6.37917,1.93579 -9.57643,4.56665c-3.19729,2.63085 -13.94596,17.32124 -13.48798,14.41156c0.45797,-2.90971 16.64178,-21.33875 18.41485,-21.0597c0.67118,0.10563 3.84812,-0.55067 4.61967,-0.18887c1.26663,0.59401 0.02991,2.27041 0.02991,2.27041z" fill="#918f91" stroke-width="0"/><path d="M182.98391,226.48917l14.06685,0.30246c0,0 12.4944,1.63015 15.56885,2.27099c7.48714,1.56063 29.5173,7.12697 29.5173,7.12697l-1.42436,6.17468c0,0 -24.61908,-0.26541 -31.22509,-2.63698c-1.91112,-0.68607 -7.56097,-2.20097 -11.55473,-4.19839c-7.81562,-3.90885 -14.9488,-9.03969 -14.9488,-9.03969z" fill="#626061" stroke-width="0"/><path d="M239.77454,241.86043c0,0 0.70735,-4.23419 0.62765,-6.6154c-0.08956,-2.67641 -1.13892,-8.66119 -1.13892,-8.66119l1.76066,0.27712c0,0 1.00536,4.66988 1.08645,7.09283c0.08865,2.64906 -0.57514,8.18372 -0.57514,8.18372z" fill="#4a494a" stroke-width="0"/><path d="M239.45162,242.65624l0.61534,-3.34214c0,0 0.51871,0.3496 0.7869,0.39183c0.31866,0.05019 0.9591,-0.11701 0.9591,-0.11701l-0.32223,3.16494c0,0 -0.83049,0.28193 -1.20206,0.26413c-0.2847,-0.01365 -0.83702,-0.36174 -0.83702,-0.36174z" fill="#363536" stroke-width="0"/><path d="M239.37555,227.63953l-0.12921,-1.6609c0,0 0.46739,-0.28519 0.8406,-0.28642c0.35545,-0.00117 0.85242,0.20132 0.85242,0.20132l0.22555,1.79324c0,0 -0.55487,0.42636 -0.86142,0.41824c-0.28883,-0.00764 -0.92794,-0.4655 -0.92794,-0.4655z" fill="#585758" stroke-width="0"/><path d="M198.50249,234.92816c0,0 -7.3401,-4.14441 -7.12814,-5.49086c0.21298,-1.35318 6.55631,-1.54 6.55631,-1.54c0,0 10.84827,1.46366 15.71812,2.40485c2.72638,0.52691 11.01375,2.76153 11.01375,2.76153c0,0 7.03923,2.17511 7.66533,3.43952c0.68296,1.37924 -3.57598,3.58554 -3.57598,3.58554c0,0 -12.77218,-0.68806 -16.65642,-1.51022c-1.3798,-0.29204 -13.59303,-3.65033 -13.59303,-3.65033z" fill="#6b696a" stroke-width="0"/><path d="M189.31876,226.49631l-1.97374,-0.07703c0,0 1.15278,-3.29555 3.64659,-1.64553c2.49382,1.65002 21.39432,3.60085 21.39432,3.60085z" fill="#4b4949" stroke-width="0"/><path d="M183.07838,226.35821c0,0 -2.00328,-0.12132 -1.9655,-3.803c0.01913,-1.86362 0.50683,-16.15373 0.50683,-16.15373l4.14125,-2.283c0,0 -0.25838,6.02685 -0.50593,8.92584c-0.32929,3.85561 -1.26471,13.45737 -1.26471,13.45737z" fill="#3f3d3e" stroke-width="0"/><path d="M189.61085,226.71026c0,0 3.48939,-1.63549 19.40295,0.52784c1.31417,0.17868 -1.76837,-0.31074 7.43817,1.65184c9.20658,1.96257 12.83212,4.06446 12.83212,4.06446c0,0 -14.71671,-3.3988 -20.84411,-4.3632c-6.98445,-1.09929 -18.82911,-1.88092 -18.82911,-1.88092z" fill="#838082" stroke-width="0"/><path d="M199.20713,198.22368c0,0 -4.65755,1.48131 -7.05734,2.73908c-2.69728,1.41369 -8.3384,5.33004 -8.3384,5.33004l-0.52595,-1.70413c0,0 4.31598,-3.22183 6.7578,-4.50164c2.66972,-1.39921 8.63793,-3.56749 8.63793,-3.56749z" fill="#4a494a" stroke-width="0"/><path d="M200.16988,198.1142l-3.77901,1.10647c0,0 0.19572,-0.62357 0.11563,-0.88319c-0.09519,-0.30846 -0.56068,-0.79472 -0.56068,-0.79472l3.38647,-1.29091c0,0 0.67029,0.59815 0.82292,0.9375c0.11694,0.26003 0.01468,0.92482 0.01468,0.92482z" fill="url(#color-3)" stroke-width="0"/><path d="M184.83984,205.66675l-3.33948,2.23776l0.19726,-2.17848l2.36792,-1.67445c0,0 0.69131,0.281 0.82397,0.55771c0.12499,0.26068 -0.04968,1.05736 -0.04968,1.05736z" fill="url(#color-4)" stroke-width="0"/></g><path d="M317.05609,202.20531c0,0 1.60313,-4.22075 2.31627,-5.51474c0.48413,-0.8784 3.05122,-1.92361 3.05122,-1.92361l16.84638,2.43056c0,0 -2.16304,5.52869 -2.75186,6.81908c-0.25797,0.56529 -1.41866,1.08375 -1.41866,1.08375z" fill="#665b60" stroke-width="0"/><path d="M271.87154,176.61246c0,0 -3.50512,-2.13337 -8.1945,-4.03784c-2.98109,-1.21069 -7.11101,-2.43446 -8.96584,-2.6193c-5.39257,-0.53746 -8.67464,4.11373 -8.67464,4.11373c0,0 -2.8734,-2.79652 -4.82254,-3.96846c-1.81946,-1.09398 -5.964,-2.75957 -5.964,-2.75957c0,0 25.05237,-1.21098 28.94688,-1.18529c7.46613,0.04926 33.76203,4.58415 33.76203,4.58415l3.92719,15.07965z" fill="#8b7c84" stroke-width="0"/><g stroke-width="0"><path d="M318.63964,201.50015c0,0 0.8695,-2.49136 1.41397,-3.31149c0.56458,-0.85038 2.8854,-1.55042 2.8854,-1.55042l14.35334,2.25905c0,0 0.22881,1.03105 -0.11845,1.72328c-0.47213,0.94117 -3.64206,3.22345 -3.64206,3.22345z" fill="#585852"/><path d="M318.75553,200.76385c0,0 0.75359,-1.75507 1.29806,-2.57515c0.56458,-0.85038 3.00127,-2.28675 3.00127,-2.28675l14.35334,2.25905c0,0 0.1129,1.7674 -0.23433,2.4596c-0.47213,0.94117 -3.52615,2.48712 -3.52615,2.48712z" fill="#797971"/><path d="M335.58843,198.37626c-1.00848,-0.33887 -12.44748,-2.41393 -12.44748,-2.41393l14.33372,2.25597l-0.38275,2.4319c0,0 -0.49501,-1.93509 -1.50345,-2.27391z" fill="#85857b"/></g><path d="M322.87816,183.77547l0.80687,-5.12665l7.04912,1.10946l0.47477,5.32837z" fill="#7c6e75" stroke-width="0"/><path d="M316.68908,156.05252l-2.86173,-8.68175l1.36256,0.21446l4.70346,9.42881z" fill="#d495b6" stroke-width="0"/><path d="M279.34592,142.45219l13.53865,-0.99689l21.1352,5.97113l2.69613,8.61619z" fill="#df9cbe" stroke-width="0"/><path d="M322.25673,188.76712l0.25214,-1.60209l10.73392,1.6894l0.70907,1.75336z" fill="#7c6e75" stroke-width="0"/><path d="M284.06784,170.45285c0,0 -18.09944,-1.63545 -23.74149,-2.01721c-8.54329,-0.57795 -25.76751,-0.93498 -25.76751,-0.93498c0,0 15.53142,-2.05082 29.11028,-1.44839c14.723,0.65317 58.46345,6.0621 58.46345,6.0621l-0.84096,5.34328z" fill="#75686e" stroke-width="0"/><path d="M275.86995,178.04102l-3.11504,-1.06811c0,0 10.02237,-0.83637 15.17839,0.74736c5.15603,1.58367 13.5253,8.06908 13.5253,8.06908z" fill="#7c6e76" stroke-width="0"/><path d="M230.60535,166.83707c0,0 -29.57001,-20.23998 -29.73237,-24.94254c-0.14744,-4.2717 29.0941,6.95596 29.40505,6.89535c5.44131,-1.06081 77.57185,2.98809 77.57185,2.98809l25.22959,10.84378l52.20917,7.6387l5.10875,14.5466c0,0 -60.99225,-8.41623 -84.49489,-11.95024c-8.15838,-1.22674 -24.6853,-4.48358 -39.98038,-5.73651c-11.79814,-0.96651 -29.94052,0.54785 -29.94052,0.54785z" fill="#ee96c3" stroke-width="0"/><path d="M101.09391,159.15109l6.41992,-19.39168c0,0 0.99643,-6.98415 8.5095,-8.12592c9.33154,-1.41809 25.73738,2.9711 27.78286,3.29301c1.56966,0.24706 -14.37019,8.28317 -14.37019,8.28317l-3.13345,19.90892z" fill="#c4b4b3" stroke-width="0"/><g stroke-width="0"><path d="M381.67183,184.83276l-0.46806,-15.40293l90.5771,21.1036l-1.65041,5.61868l-47.60699,-2.57592z" fill="#ad6d8e"/><path d="M409.92574,174.76689l8.47048,-7.0414l26.78016,2.05966l-5.86991,9.60598z" fill="#8d788b"/><path d="M384.57971,171.98095l2.52419,-16.03785l31.36116,11.79742l-5.59096,6.0736z" fill="#857183"/><path d="M426.99893,175.29553l18.11538,-5.51887l26.91654,8.05548l-1.35445,6.76568z" fill="#947e92"/><path d="M380.55595,170.73165l4.84323,-12.16084l1.90559,-2.80162l-2.34204,14.88064z" fill="#756474"/><path d="M383.4353,181.85638l1.16448,-12.03808l43.04345,5.10544l-3.70762,15.67116z" fill="#746373"/><path d="M423.93042,190.57841c0,0 1.35603,-6.1717 1.99454,-8.95036c0.54668,-2.37903 1.60396,-6.70968 1.60396,-6.70968l43.52118,7.77005l0.6697,8.6088z" fill="#867284"/><path d="M380.60688,170.66836l4.21664,-0.88609l-1.35973,12.08626z" fill="#6f5e6d"/><path d="M464.92001,176.60398l-19.05422,-6.40399l25.8369,7.74758l-0.91046,3.44582c0,0 -0.06576,-1.59899 -1.14982,-2.48313c-0.72514,-0.59145 -4.72242,-2.30628 -4.72242,-2.30628z" fill="#978195"/><path d="M425.44622,174.39337c0,0 8.41646,-2.18325 11.37139,-3.08895c2.15258,-0.65977 4.72659,-1.84501 4.72659,-1.84501l2.48549,0.50522l-15.96706,4.84054z" fill="#9c859a"/><path d="M411.11459,172.95606c0,0 1.72829,-2.51415 3.27207,-3.63807c1.54378,-1.12395 3.95068,-1.57036 3.95068,-1.57036l-4.79118,5.59117z" fill="#806b7d"/><path d="M446.94363,168.29726l2.99879,-5.33193l14.43474,6.05115l4.53687,7.19284z" fill="#55494f"/><path d="M444.00579,170.66947c0,0 1.19213,-0.61231 1.83661,-1.10282c0.48547,-0.36951 1.38035,-1.63027 1.38035,-1.63027l21.42052,7.4206c0,0 0.78004,0.62586 1.30852,1.03873c0.55225,0.43144 1.93676,1.49667 1.93676,1.49667z" fill="#685960"/><path d="M447.63672,167.50322l2.35126,-4.27173l13.45709,5.4858c0,0 -7.67105,-2.75891 -12.13725,-3.20405c-2.59067,-0.25823 -3.67111,1.99 -3.67111,1.99z" fill="#41383c"/></g><path d="M108.82043,120.60345l0.80976,-5.145c0,0 22.26627,2.19347 43.94852,5.66369c12.92063,2.06795 26.07708,5.75595 32.96867,6.48616c15.5389,1.64649 26.58192,-1.18323 26.58192,-1.18323l-7.9182,9.5279z" fill="#ffa1d1" stroke-width="0"/><path d="M104.10373,133.99053l4.63451,-15.55112c0,0 53.80961,10.55493 71.50824,12.89443c10.48394,1.38579 24.89834,-0.151 24.89834,-0.151l-2.27651,14.46427c0,0 -66.68016,-10.49472 -82.75468,-13.02471c-6.60924,-1.04024 -20.18974,27.92551 -20.18974,27.92551z" fill="#ee96c3" stroke-width="0"/><path d="M269.24127,237.41509l11.28099,-11.98776c0,0 12.26345,-14.12232 22.61645,-19.44009c2.63087,-1.35135 7.92355,-1.72956 7.92355,-1.72956c0,0 -7.99012,3.78891 -10.98742,6.14299c-7.07824,5.55925 -30.83358,27.01442 -30.83358,27.01442z" fill="#70646b" stroke-width="0"/><path d="M374.16334,188.28986l-3.42516,-18.76249l1.33373,0.20992c0,0 1.03733,5.68226 1.58542,8.68481c0.07809,0.42781 1.23663,1.84627 1.33338,2.37617c0.16767,0.91855 -0.71215,1.02661 -0.52476,2.0533c0.52186,2.85877 1.03109,5.64825 1.03109,5.64825z" fill="#795467" stroke-width="0"/><path d="M203.42594,146.172c0,0 -9.33582,-8.10235 -8.07786,-11.72574c0.75323,-2.16951 18.62737,-7.40634 18.62737,-7.40634l67.40896,12.30214l-2.09815,2.804l28.47357,9.79446l-75.05469,15.08953c0,0 0.09106,-5.66857 4.09391,-7.93192c3.89037,-2.19973 19.5953,-5.46269 19.5953,-5.46269c0,0 -33.79371,-5.36838 -40.98247,-6.58758c-2.3984,-0.40675 -11.98598,-0.87596 -11.98598,-0.87596z" fill="#f399c8" stroke-width="0"/><g><path d="M211.90123,128.66132l0.50348,-3.19896l174.40672,27.44976l-0.50348,3.19896z" fill="#584f54" stroke-width="0"/><path d="M381.04697,152.25612l0.42544,-2.70305l3.01811,0.47501l2.23761,3.12217z" fill="#685d63" stroke-width="0"/><g fill="#685d63" stroke-width="0"><g><g><g><path d="M374.42919,151.46678l0.46285,-2.94082l3.83392,0.60341l-0.46285,2.94082z"/><path d="M368.20822,150.48769l0.46285,-2.94082l3.83392,0.60341l-0.46285,2.94082z"/></g><g><path d="M362.22204,149.54549l0.46285,-2.94082l3.83392,0.60341l-0.46285,2.94082z"/><path d="M356.00106,148.5664l0.46285,-2.94082l3.83392,0.60341l-0.46285,2.94082z"/></g></g><g><g><path d="M349.89746,147.60573l0.46285,-2.94082l3.83392,0.60341l-0.46285,2.94082z"/><path d="M343.67651,146.62666l0.46285,-2.94082l3.83392,0.60341l-0.46285,2.94082z"/></g><g><path d="M337.69031,145.68447l0.46285,-2.94082l3.83392,0.60341l-0.46285,2.94082z"/><path d="M331.46943,144.70538l0.46285,-2.94082l3.83392,0.60341l-0.46285,2.94082z"/></g></g></g><g><g><g><path d="M331.23466,144.66844l0.46285,-2.94082l3.83392,0.60341l-0.46285,2.94082z"/><path d="M325.0137,143.68933l0.46285,-2.94082l3.83392,0.60341l-0.46285,2.94082z"/></g><g><path d="M319.0275,142.74714l0.46285,-2.94082l3.83392,0.60341l-0.46285,2.94082z"/><path d="M312.80654,141.76803l0.46285,-2.94082l3.83392,0.60341l-0.46285,2.94082z"/></g></g><g><g><path d="M306.70302,140.80741l0.46285,-2.94082l3.83392,0.60341l-0.46285,2.94082z"/><path d="M300.48203,139.82832l0.46285,-2.94082l3.83392,0.60341l-0.46285,2.94082z"/></g><g><path d="M294.49582,138.88615l0.46285,-2.94082l3.83392,0.60341l-0.46285,2.94082z"/><path d="M288.2749,137.90703l0.46285,-2.94082l3.83392,0.60341l-0.46285,2.94082z"/></g></g></g></g><g><g fill="#685d63" stroke-width="0"><g><g><path d="M282.13138,136.9401l0.46285,-2.94082l3.83392,0.60341l-0.46285,2.94082z"/><path d="M275.91045,135.96101l0.46285,-2.94082l3.83392,0.60341l-0.46285,2.94082z"/></g><g><path d="M269.92426,135.01885l0.46285,-2.94082l3.83392,0.60341l-0.46285,2.94082z"/><path d="M263.70331,134.03974l0.46285,-2.94082l3.83392,0.60341l-0.46285,2.94082z"/></g></g><g><g><path d="M257.59974,133.07911l0.46285,-2.94082l3.83392,0.60341l-0.46285,2.94082z"/><path d="M251.37879,132.09997l0.46285,-2.94082l3.83392,0.60341l-0.46285,2.94082z"/></g><g><path d="M245.39256,131.15781l0.46285,-2.94082l3.83392,0.60341l-0.46285,2.94082z"/><path d="M239.17161,130.17871l0.46285,-2.94082l3.83392,0.60341l-0.46285,2.94082z"/></g></g></g><g><g fill="#685d63" stroke-width="0"><g><path d="M238.93687,130.14176l0.46285,-2.94082l3.83392,0.60341l-0.46285,2.94082z"/><path d="M232.7159,129.16262l0.46285,-2.94082l3.83392,0.60341l-0.46285,2.94082z"/></g><g><path d="M226.7297,128.22047l0.46285,-2.94082l3.83392,0.60341l-0.46285,2.94082z"/><path d="M220.50877,127.24139l0.46285,-2.94082l3.83392,0.60341l-0.46285,2.94082z"/></g></g><g fill="none" stroke-width="1" font-family="sans-serif" font-weight="normal" font-size="12" text-anchor="start"><g/><g/></g></g></g><path d="M212.43676,125.7187l3.08845,-2.28389l3.01811,0.47501l-0.42544,2.70305z" data-paper-data="{&quot;index&quot;:null}" fill="#685d63" stroke-width="0"/></g><path d="M263.54276,167.05345l-2.56282,-0.12999c0,0 2.05769,-2.27528 11.71149,-1.89746c7.31903,0.28645 27.83616,2.18804 40.11273,3.36527c5.70093,0.54666 62.91522,0.43887 62.91522,0.43887l5.13781,0.79415c0,0 -62.62022,0.92002 -68.31335,0.35104c-12.58911,-1.25815 -33.76228,-3.33816 -39.92613,-3.72267c-3.35535,-0.20932 -9.07494,0.80081 -9.07494,0.80081z" fill="#70475c" stroke-width="0"/><path d="M360.26772,201.53882l-5.15091,1.05784l2.94408,-18.70105c0,0 7.6892,1.25921 15.20905,2.49064c21.58733,3.53513 125.3375,20.52537 125.3375,20.52537l-1.04592,6.64545z" fill="#5a5959" stroke-width="0"/><path d="M359.11057,203.00515l1.54502,-2.7999l136.9349,13.24556l-13.42543,9.23657z" fill="#4b4a4a" stroke-width="0"/><path d="M480.94872,221.98972c0,0 -5.33306,-4.10379 -8.10659,-5.98599c-1.48641,-1.0087 -7.24117,-4.42932 -7.24117,-4.42932c0,0 7.4527,4.11246 10.60925,5.56889c1.12652,0.51976 2.12098,1.42824 3.32703,2.15269c0.38889,0.23358 2.61913,-2.20853 4.7615,-3.60681c0.64033,-0.41795 1.72979,0.12258 2.30022,-0.12253c1.30769,-0.56188 1.83201,-1.5842 1.83201,-1.5842c0,0 0.18885,0.97074 -1.20398,1.98022c-0.38003,0.27543 -2.21581,0.34316 -2.5933,0.64857c-1.51298,1.22393 -2.75124,2.64784 -3.14454,3.18439c-1.09767,1.49738 0.90521,2.42164 0.90521,2.42164z" fill="#414040" stroke-width="0"/><path d="M203.33133,146.45816l5.49437,-10.37065l7.01795,0.47255c0,0 -1.35081,2.46821 -2.14693,3.92286c-0.20053,0.36637 11.75432,0.26772 11.99769,0.9853c0.45163,1.33139 -5.63733,4.1792 -6.13799,5.09409c-0.57241,1.04587 -9.23256,0.08355 -9.23256,0.08355z" fill="#303030" stroke-width="0"/><path d="M203.24703,146.07032l5.26134,-9.56195c0,0 2.76084,1.75519 2.60773,2.72823c-0.27865,1.77041 -2.73822,7.24165 -2.73822,7.24165z" fill="#252525" stroke-width="0"/><path d="M354.68604,205.21728l0.45903,-2.91648l5.91565,-2.05766l-1.68206,2.724c0,0 -1.28474,1.14953 -2.11006,1.54526c-0.7262,0.34822 -2.58255,0.70489 -2.58255,0.70489z" fill="#383838" stroke-width="0"/><g><g fill="#4b4b4b" stroke-width="0"><g data-paper-data="{&quot;origPos&quot;:null}"><g data-paper-data="{&quot;origPos&quot;:null}"><path d="M420.79765,217.01038l0.35335,-2.24508l3.70439,0.58303l-0.35335,2.24508z" data-paper-data="{&quot;origPos&quot;:null}"/><path d="M414.64134,215.92639l0.35335,-2.24508l3.70439,0.58303l-0.35335,2.24508z" data-paper-data="{&quot;origPos&quot;:null}"/></g><g data-paper-data="{&quot;origPos&quot;:null}"><path d="M433.12799,219.06604l0.35335,-2.24508l3.70439,0.58303l-0.35335,2.24508z" data-paper-data="{&quot;origPos&quot;:null}"/><path d="M426.97164,217.98209l0.35335,-2.24508l3.70439,0.58303l-0.35335,2.24508z" data-paper-data="{&quot;origPos&quot;:null}"/></g></g><g data-paper-data="{&quot;origPos&quot;:null,&quot;index&quot;:null}"><g data-paper-data="{&quot;origPos&quot;:null}"><path d="M452.13436,221.82739l0.35335,-2.24508l3.70439,0.58303l-0.35335,2.24508z" data-paper-data="{&quot;origPos&quot;:null}"/><path d="M458.32601,222.68686l0.35334,-2.24507l3.70439,0.58303l-0.35334,2.24507z" data-paper-data="{&quot;origPos&quot;:null}"/></g><g data-paper-data="{&quot;origPos&quot;:null}"><path d="M439.76871,219.99619l0.35335,-2.24508l3.70439,0.58303l-0.35335,2.24508z" data-paper-data="{&quot;origPos&quot;:null}"/><path d="M445.96036,220.85565l0.35335,-2.24508l3.70439,0.58303l-0.35335,2.24508z" data-paper-data="{&quot;origPos&quot;:null}"/></g></g></g><path d="M379.87733,202.2233l2.11617,-13.44558l83.44679,13.13364l-2.11617,13.44558z" data-paper-data="{&quot;origPos&quot;:null}" fill="#444444" stroke-width="0"/><path d="M379.24046,206.90346l0.74353,-4.72427l83.2015,13.09503l-0.74353,4.72427z" data-paper-data="{&quot;origPos&quot;:null}" fill="#414141" stroke-width="0"/><path d="M379.05342,208.31577l0.25151,-1.59796l83.19097,13.09334l-0.25151,1.59796z" data-paper-data="{&quot;origPos&quot;:null}" fill="#3f3f3f" stroke-width="0"/><g stroke-width="0"><g data-paper-data="{&quot;origPos&quot;:null}" fill="#5a5a5a"><g data-paper-data="{&quot;origPos&quot;:null}"><path d="M422.61047,209.02939l2.13778,-13.58281l3.528,0.55526l-2.13778,13.58281z" data-paper-data="{&quot;origPos&quot;:null}"/></g><g data-paper-data="{&quot;origPos&quot;:null}"><path d="M428.60807,209.97336l2.13778,-13.58281l3.528,0.55526l-2.13778,13.58281z" data-paper-data="{&quot;origPos&quot;:null}"/><path d="M434.78206,210.94509l2.13778,-13.58281l3.528,0.55526l-2.13778,13.58281z" data-paper-data="{&quot;origPos&quot;:null}"/></g></g><g data-paper-data="{&quot;origPos&quot;:null}" fill="#5a5a5a"><g data-paper-data="{&quot;origPos&quot;:null}"><path d="M441.30888,211.97234l2.13778,-13.58281l3.528,0.55526l-2.13778,13.58281z" data-paper-data="{&quot;origPos&quot;:null}"/><path d="M447.48287,212.94407l2.13778,-13.58281l3.528,0.55526l-2.13778,13.58281z" data-paper-data="{&quot;origPos&quot;:null}"/></g><g data-paper-data="{&quot;origPos&quot;:null}"><path d="M453.48048,213.88803l2.13778,-13.58281l3.528,0.55526l-2.13778,13.58281z" data-paper-data="{&quot;origPos&quot;:null}"/><path d="M459.65445,214.85973l2.13778,-13.58281l3.528,0.55526l-2.13778,13.58281z" data-paper-data="{&quot;origPos&quot;:null}"/></g></g><path d="M426.19905,209.59419l-1.16835,1.77091l-5.18434,-0.77234l1.38549,-9.69899l3.45824,-5.45635l-2.06964,13.59353z" fill="#3a3a3a"/><path d="M432.19424,210.53781l-1.16835,1.77091l-5.18434,-0.77234l1.38549,-9.69899l3.45824,-5.45635l-2.06964,13.59353z" fill="#3a3a3a"/><path d="M438.32563,211.50283l-1.16835,1.77091l-5.18434,-0.77234l1.38549,-9.69899l3.45824,-5.45635l-2.06964,13.59353z" fill="#3a3a3a"/><path d="M444.93396,212.54287l-1.16835,1.77091l-5.18434,-0.77234l1.38549,-9.69899l3.45824,-5.45635l-2.06964,13.59353z" fill="#3a3a3a"/><path d="M451.13349,213.51863l-1.16835,1.77091l-5.18434,-0.77234l1.38549,-9.69899l3.45824,-5.45635l-2.06964,13.59353z" fill="#3a3a3a"/><path d="M457.06054,214.45149l-1.16835,1.77091l-5.18434,-0.77234l1.38549,-9.69899l3.45824,-5.45635l-2.06964,13.59353z" fill="#3a3a3a"/><path d="M463.26791,215.42846l-1.16835,1.77091l-5.18434,-0.77234l1.38549,-9.69899l3.45824,-5.45635l-2.06964,13.59353z" fill="#3a3a3a"/></g><g stroke-width="0"><g data-paper-data="{&quot;origPos&quot;:null}" fill="#5a5a5a"><g data-paper-data="{&quot;origPos&quot;:null}"><path d="M379.90709,202.30837l2.13778,-13.58281l3.528,0.55526l-2.13778,13.58281z" data-paper-data="{&quot;origPos&quot;:null}"/></g><g data-paper-data="{&quot;origPos&quot;:null}"><path d="M385.90468,203.25233l2.13778,-13.58281l3.528,0.55526l-2.13778,13.58281z" data-paper-data="{&quot;origPos&quot;:null}"/><path d="M392.07865,204.22408l2.13778,-13.58281l3.528,0.55526l-2.13778,13.58281z" data-paper-data="{&quot;origPos&quot;:null}"/></g></g><g data-paper-data="{&quot;origPos&quot;:null}" fill="#5a5a5a"><g data-paper-data="{&quot;origPos&quot;:null}"><path d="M398.60546,205.25131l2.13778,-13.58281l3.528,0.55526l-2.13778,13.58281z" data-paper-data="{&quot;origPos&quot;:null}"/><path d="M404.77954,206.22302l2.13778,-13.58281l3.528,0.55526l-2.13778,13.58281z" data-paper-data="{&quot;origPos&quot;:null}"/></g><g data-paper-data="{&quot;origPos&quot;:null}"><path d="M410.77711,207.16698l2.13778,-13.58281l3.528,0.55526l-2.13778,13.58281z" data-paper-data="{&quot;origPos&quot;:null}"/><path d="M416.95111,208.13868l2.13778,-13.58281l3.528,0.55526l-2.13778,13.58281z" data-paper-data="{&quot;origPos&quot;:null}"/></g></g><path d="M383.49566,202.87318l-1.16835,1.77091l-2.70326,-0.38184l0.293,-1.95234z" fill="#3a3a3a"/><path d="M389.49088,203.81676l-1.16835,1.77091l-5.18434,-0.77234l1.38549,-9.69899l3.45824,-5.45635l-2.06964,13.59353z" fill="#3a3a3a"/><path d="M395.62224,204.78174l-1.16835,1.77091l-5.18434,-0.77234l1.38549,-9.69899l3.45824,-5.45635l-2.06964,13.59353z" fill="#3a3a3a"/><path d="M402.23055,205.82182l-1.16835,1.77091l-5.18434,-0.77234l1.38549,-9.69899l3.45824,-5.45635l-2.06964,13.59353z" fill="#3a3a3a"/><path d="M408.43012,206.79757l-1.16835,1.77091l-5.18434,-0.77234l1.38549,-9.69899l3.45824,-5.45635l-2.06964,13.59353z" fill="#3a3a3a"/><path d="M414.35718,207.73042l-1.16835,1.77091l-5.18434,-0.77234l1.38549,-9.69899l3.45824,-5.45635l-2.06964,13.59353z" fill="#3a3a3a"/><path d="M420.56455,208.70741l-1.16835,1.77091l-5.18434,-0.77234l1.38549,-9.69899l3.45824,-5.45635l-2.06964,13.59353z" fill="#3a3a3a"/></g><g><g data-paper-data="{&quot;origPos&quot;:null}"><g data-paper-data="{&quot;origPos&quot;:null}" fill="none" stroke-width="1" font-family="sans-serif" font-weight="normal" font-size="12" text-anchor="start"/><g data-paper-data="{&quot;origPos&quot;:null}" fill="#4b4b4b" stroke-width="0"><path d="M384.97292,211.56483l0.35335,-2.24508l3.70439,0.58303l-0.35335,2.24508z" data-paper-data="{&quot;origPos&quot;:null}"/><path d="M378.81656,210.48088l0.35335,-2.24508l3.70439,0.58303l-0.35335,2.24508z" data-paper-data="{&quot;origPos&quot;:null}"/></g></g><g data-paper-data="{&quot;origPos&quot;:null,&quot;index&quot;:null}" fill="#4b4b4b" stroke-width="0"><g data-paper-data="{&quot;origPos&quot;:null}"><path d="M403.97928,214.32617l0.35335,-2.24508l3.70439,0.58303l-0.35335,2.24508z" data-paper-data="{&quot;origPos&quot;:null}"/><path d="M410.17093,215.18558l0.35334,-2.24507l3.70439,0.58303l-0.35334,2.24507z" data-paper-data="{&quot;origPos&quot;:null}"/></g><g data-paper-data="{&quot;origPos&quot;:null}"><path d="M391.61356,212.49499l0.35335,-2.24508l3.70439,0.58303l-0.35335,2.24508z" data-paper-data="{&quot;origPos&quot;:null}"/><path d="M397.80521,213.3544l0.35335,-2.24508l3.70439,0.58303l-0.35335,2.24508z" data-paper-data="{&quot;origPos&quot;:null}"/></g></g></g></g><path d="M216.10494,146.85499l1.68232,-4.00226c0,0 5.04434,-2.3923 8.55587,-1.9915c4.01436,0.4582 33.61498,5.14228 33.61498,5.14228c0,0 0.36233,1.95586 0.12083,3.15002c-0.31117,1.5385 -2.87795,4.23688 -2.87795,4.23688z" fill="#242424" stroke-width="0"/><path d="M241.28054,146.96046l0.48981,-3.11205l17.7829,2.79886l-0.48981,3.11205z" fill="#313131" stroke-width="0"/><path d="M237.72663,148.35551l0.10141,-0.64431c0,0 1.21832,-0.87234 2.22894,-0.71329c0.95967,0.15104 3.04723,0.96039 5.44392,1.503c4.56564,1.03363 10.10985,2.00912 10.10985,2.00912l-0.10141,0.64431c0,0 -5.36194,-0.84598 -9.86334,-1.86891c-2.45614,-0.55818 -4.60831,-1.47287 -5.60387,-1.62955c-1.0464,-0.16466 -2.31543,0.69964 -2.31543,0.69964z" fill="#616161" stroke-width="0"/><path d="M266.97251,137.0541l12.06837,4.96328l29.65006,10.04003c0,0 0.68938,0.33545 -7.19752,-1.6431c-2.683,-0.67304 -12.94179,-3.91655 -21.75661,-7.23013c-2.38516,-0.89664 -15.02212,-6.3687 -15.02212,-6.3687z" fill="#df8cb7" stroke-width="0"/><path d="M87.10206,115.15877l0.92246,-5.86097c0,0 5.97246,-0.83455 9.73002,-0.24315c3.07621,0.48414 10.91045,5.26628 10.91045,5.26628l-2.04101,12.10059z" fill="#626061" stroke-width="0"/><path d="M200.19779,143.06751l3.36053,3.06576l12.30394,0.59706l50.12787,7.88959l-0.16964,1.07777c0,0 -37.58073,-6.06185 -49.38019,-7.65347c-3.2395,-0.43698 -12.93304,-1.23291 -12.93304,-1.23291z" fill="#ffa6d4" stroke-width="0"/><path d="M74.31514,177.86355l1.11468,-7.08238l25.72843,-12.78555l-3.71287,13.25277l-15.27803,7.85106z" fill="#3f3d3e" stroke-width="0"/><path d="M73.49156,172.61151c0,0 3.2407,-19.38372 5.52653,-28.72521c2.57994,-10.54337 9.17789,-31.3669 9.17789,-31.3669c0,0 8.53929,1.15231 11.82189,3.33502c2.80947,1.8681 6.67622,8.96496 6.67622,8.96496l-5.21643,33.14357c0,0 -13.84232,11.68811 -17.20143,13.44639c-5.16688,2.70447 -10.78464,1.20222 -10.78464,1.20222z" fill="#555354" stroke-width="0"/><path d="M86.39925,122.96548c0,0 -0.58969,-6.1595 1.87066,-8.50267c2.46037,-2.34318 6.91515,-2.67152 9.44433,-2.27345c2.01757,0.31753 6.18058,1.05247 8.32586,5.9035c2.14527,4.851 -0.788,11.14157 -0.788,11.14157c0,0 -4.60566,-11.25665 -7.06482,-12.07433c-3.47011,-1.15383 -11.78803,5.80547 -11.78803,5.80547z" fill="#6f6b6c" stroke-width="0"/><path d="M71.29873,177.19816c0,0 5.74578,-25.47903 7.525,-36.78366c1.85292,-11.77289 4.86242,-32.27267 4.86242,-32.27267c0,0 1.24212,-0.45536 2.27028,-0.29354c0.94016,0.14795 2.38801,1.02674 2.38801,1.02674c0,0 -3.18989,18.88903 -4.85267,29.45381c-1.93188,12.27434 -8.80499,39.40261 -8.80499,39.40261z" fill="#333232" stroke-width="0"/><path d="M70.80428,177.56939l3.36764,-14.35925c0,0 0.90416,1.04215 1.50233,1.09712c0.75527,0.06944 2.6354,-1.08986 2.6354,-1.08986l-3.58449,14.96909z" fill="#2e2d2d" stroke-width="0"/><path d="M101.89066,145.75597c-1.26939,8.06538 -6.69112,15.98663 -11.45842,18.19978c-3.95942,1.83808 -12.41757,7.34796 -11.14816,-0.71739c0.26928,-1.71104 4.13541,-13.12813 5.35526,-20.0525c1.61322,-9.15737 0.76192,-14.33363 2.14834,-16.98184c2.50692,-4.78848 8.19303,-5.39125 10.38061,-5.04697c4.31215,0.67867 5.99176,16.53356 4.72235,24.59889z" fill="#585758" stroke-width="0"/><path d="M133.7438,165.02562l-0.31474,-1.81169c0,0 8.05316,-0.09968 14.07318,0.35771c8.4749,0.64386 31.97983,3.1412 31.97983,3.1412l1.57491,1.54483c0,0 -25.05721,-2.30338 -33.78433,-2.89958c-2.56304,-0.17506 -13.52885,-0.33248 -13.52885,-0.33248z" fill="#585657" stroke-width="0"/><path d="M125.87269,177.14978l7.25531,-12.71804l7.30205,0.18692c0,0 -2.38758,3.99082 -2.41977,4.75021c-0.15372,3.62852 -0.9195,27.77007 -0.9195,27.77007c0,0 -1.52796,0.20534 -2.41127,-1.83228c-1.5849,-3.65614 -2.33127,-10.72013 -3.73516,-13.0696c-1.21292,-2.02994 -5.07168,-5.08721 -5.07168,-5.08721z" fill="#5a5759" stroke-width="0"/><path d="M143.03905,148.66834l4.61584,-10.74638l2.32226,0.25301l-5.74798,10.79313z" fill="#a5a0a2" stroke-width="0"/><path d="M149.91463,148.65369l0.21811,-1.38569l26.17408,4.11953l-0.21811,1.38569z" fill="#494748" stroke-width="0"/><path d="M150.29698,145.70598l0.21811,-1.38569l26.17408,4.11953l-0.21811,1.38569z" fill="#494748" stroke-width="0"/><path d="M127.616,164.81978l3.131,-19.89346l13.59355,-7.59515l4.83414,0.44525l-22.73427,39.76245l-5.2315,-2.85144z" fill="#dbd5d8" stroke-width="0"/><path d="M99.58727,172.46947l1.67721,-11.67196l26.45314,3.36419c0,0 -0.06827,2.55823 -0.32106,3.32677c-0.63003,1.9158 -3.69156,8.45715 -3.69156,8.45715z" fill="#ccc6c9" stroke-width="0"/><path d="M105.10197,161.8068l0.04908,-0.31198l22.67455,2.68957l-2.75784,0.76478c0,0 -4.29803,-0.48796 -6.96886,-0.94045c-3.65706,-0.61959 -12.99693,-2.20196 -12.99693,-2.20196z" fill="#d8d1d5" stroke-width="0"/><path d="M109.15566,158.66204l2.64307,-16.79326l15.92892,2.50704l-2.64307,16.79326z" fill="#a39999" stroke-width="0"/><path d="M99.28774,172.59418l1.76609,-11.22119c0,0 7.73641,7.68293 11.60707,10.66154c3.87066,2.97863 10.33631,3.7128 10.33631,3.7128z" fill="#b4afb1" stroke-width="0"/><path d="M131.58231,183.79401c0,0 2.83086,1.49887 3.93601,1.52725c0.6789,0.01746 2.06415,-1.37302 2.06415,-1.37302l0.2277,9.2207l-0.65223,4.14412c0,0 -1.96783,0.00559 -2.82982,-2.74448c-0.71122,-2.26902 -2.74585,-10.77459 -2.74585,-10.77459z" fill="#504e4f" stroke-width="0"/><path d="M126.08697,177.74671l20.77581,-38.98758l1.6905,0.47371l-20.73828,39.40878z" fill="#858183" stroke-width="0"/><path d="M115.79206,134.86869l1.75296,-1.39491c0,0 27.18233,3.62638 39.44172,5.5559c10.64032,1.67465 31.50158,5.31535 31.50158,5.31535l0.22117,2.00012c0,0 -20.92851,-4.00857 -32.14408,-5.7738c-12.80673,-2.01566 -40.77336,-5.70264 -40.77336,-5.70264z" fill="#918b8e" stroke-width="0"/><path d="M116.98924,133.81122l2.30109,-1.60314c0,0 25.62841,3.67631 37.88779,5.60581c10.64032,1.67465 31.50158,5.31535 31.50158,5.31535l0.22117,2.00012c0,0 -20.92851,-4.00857 -32.14408,-5.7738c-12.80673,-2.01566 -39.76758,-5.54433 -39.76758,-5.54433z" fill="#a59fa2" stroke-width="0"/><path d="M177.58056,164.38958l-1.01859,-5.91289c0,0 0.39639,-1.15746 0.74288,-1.21714c0.30527,-0.05259 1.22805,0.87761 1.22805,0.87761l1.01858,5.9129c0,0 -0.40922,0.82402 -0.71521,0.87673c-0.34607,0.05962 -1.25574,-0.53718 -1.25574,-0.53718z" fill="#494242" stroke-width="0"/><path d="M137.38392,160.74431l4.9746,-8.81955l3.83845,0.60412l-4.9746,8.81955z" fill="#9c989a" stroke-width="0"/><path d="M149.59857,144.67178l1.9787,-0.66845l24.13885,3.8175l1.84584,1.25213z" fill="#757274" stroke-width="0"/><path d="M149.25468,147.46359l1.9787,-0.66845l24.13885,3.8175l1.84584,1.25213z" fill="#757274" stroke-width="0"/><path d="M97.0493,171.2468l10.72829,-57.18511l1.80667,0.87225l-10.25177,57.66624z" fill="#686666" stroke-width="0"/><path d="M96.84591,171.48845l3.17398,-15.95627l1.66954,4.12822l-2.50047,13.08036z" fill="#535252" stroke-width="0"/><path d="M130.77433,153.67211c0,0 2.46288,-1.98671 2.61008,-2.922c0.14444,-0.9178 -1.73495,-2.63829 -1.73495,-2.63829c0,0 2.86143,1.12833 2.49598,2.7799c-0.27838,1.25797 -1.65648,3.25704 -1.91418,4.33242c-0.73279,3.05772 -2.55535,10.20867 -2.55535,10.20867z" fill="#c4bec1" stroke-width="0"/><path d="M138.65416,152.97714l3.47353,-9.77421l3.19483,-3.90506l-4.10884,9.02916z" fill="#aca7a9" stroke-width="0"/></g></g><g stroke-width="0"><path d="M259.60429,143.8403l3.0415,-2.89149c0,0 2.0088,-1.13785 2.78095,-0.73796c0.8804,0.45597 2.21942,3.32761 2.21942,3.32761l-1.17002,3.94803c0,0 -4.22799,-0.67309 -5.45815,-1.00164c-0.55455,-0.1481 -1.4137,-2.64459 -1.4137,-2.64459z" fill="#c0c0c0"/><path d="M215.70684,146.70125c0,0 0.27345,-2.87242 1.49677,-3.83277c1.53307,-1.2035 7.88301,-2.44353 7.88301,-2.44353l-1.43845,4.56902l-0.45419,2.88565z" fill="#838383"/><path d="M215.54833,146.60105l9.16936,-6.13025l37.10557,5.84002l-1.16316,7.3903z" fill="#999999"/><path d="M216.63722,146.10789l6.99295,-4.81239l33.36164,5.25077l-0.90815,5.77008c0,0 -4.0379,-0.63553 -9.23216,-1.45303c-3.37708,-0.53153 -7.0779,-2.18907 -10.64069,-2.74983c-3.82199,-0.60154 -7.46035,-0.09909 -9.60709,-0.43698c-4.20145,-0.66127 -9.96653,-1.56862 -9.96653,-1.56862z" fill="#2e2e2e"/><path d="M220.08735,146.64867l9.18491,-4.53036l12.31256,1.93785c0,0 -7.58294,0.73737 -10.06644,1.27232c-2.63648,0.56789 -6.13773,2.15332 -6.13773,2.15332z" fill="#a5899d"/><path d="M227.99688,147.77941c0,0 5.17444,-0.16968 7.60166,0.21234c3.10141,0.48812 9.48486,2.47689 9.48486,2.47689l-9.48455,-1.83209z" fill="#adadad"/><path d="M215.65444,146.59934l8.2804,-5.53154l34.54147,5.4365l-0.10704,0.68018c0,0 -29.90861,-4.70731 -33.80726,-5.32089c-0.81545,-0.12834 -8.90755,4.73577 -8.90755,4.73577z" fill="#8a8a8a"/><path d="M261.27865,160.09264l1.51674,-9.63674l1.76256,-7.01315c0,0 1.0997,0.64879 1.55927,1.29154c0.45958,0.64277 0.66302,1.81649 0.66302,1.81649l-3.51302,13.85483z" fill="#9e9e9e"/><path d="M256.55116,155.06572c0,0 -0.57027,-2.24079 -0.45825,-3.83191c0.15087,-2.14254 1.85397,-7.46062 1.85397,-7.46062l1.96841,-0.01956c0,0 0.6265,0.90017 1.12181,0.8271c0.68284,-0.1007 2.59627,-1.37542 2.59627,-1.37542l-2.48931,12.58328z" fill="#9c9c9c"/><path d="M256.83348,156.96339c-0.60117,-1.21263 -0.15016,-2.53169 -0.15016,-2.53169l5.93785,-6.35443c0,0 0.77283,4.05327 0.63034,4.95854c-0.40507,2.57386 -0.14929,7.42226 -0.14929,7.42226c0,0 -2.95686,-0.38061 -3.91493,-0.97546c-1.14904,-0.71337 -1.75264,-1.30662 -2.3538,-2.51927z" fill="#888888"/><path d="M258.71294,156.47541c-0.66534,-2.12911 -0.96968,-6.69496 1.48415,-10.42561c2.45382,-3.73063 4.50741,-1.25001 4.50741,-1.25001c0,0 0.30657,4.52567 -0.053,6.81041c-0.32758,2.08121 -2.01744,6.34449 -2.01744,6.34449c0,0 -3.2558,0.64981 -3.92111,-1.47926z" fill="#b4b4b4"/><path d="M264.02056,149.52076c-0.21941,1.39392 -5.27922,0.67591 -5.05987,-0.718c0.21941,-1.39392 4.08085,-6.25484 4.88336,-6.12852c0.31083,0.04895 0.93102,0.24965 0.96019,1.32796c0.04618,1.70597 -0.64933,4.6645 -0.7837,5.51854z" fill="#bbbbbb"/></g><g stroke-width="0"><path d="M200.10498,143.03755c0,0 -5.02083,-5.76809 -4.72957,-7.61873c0.23783,-1.51105 6.21978,-0.69421 6.21978,-0.69421l7.44235,1.2441l-5.65109,10.02223z" fill="#f399c8"/><path d="M169.69483,139.91323c0,0 -0.63214,-2.22317 -0.2112,-3.24285c0.46453,-1.12531 3.06024,-4.36603 3.06024,-4.36603l22.78685,3.39843l7.67453,9.93723z" fill="#ee96c3"/></g></g><g stroke-width="0"><g><path d="M267.08882,135.27388l0.9611,-6.10665l47.23671,7.43456l-0.9611,6.10665z" fill="#61585b"/><path d="M267.43182,132.04438l0.51468,-3.27011l47.41632,7.46282l-0.51468,3.27011c0,0 -8.53579,-1.34345 -17.30422,-2.72347c-2.74151,-0.43148 -6.83166,0.4607 -9.36489,0.06199c-3.01231,-0.47409 -6.00707,-2.48136 -7.93932,-2.78546c-5.79396,-0.91194 -12.80785,-2.01582 -12.80785,-2.01582z" fill="#494344"/><path d="M329.5343,135.13213l-6.27625,-20.15379l20.66486,3.25244l12.63296,18.96909c0,0 -5.85241,0.45705 -9.08527,0.2097c-4.98862,-0.38172 -17.93633,-2.27733 -17.93633,-2.27733z" fill="#5e555b"/><path d="M329.00227,138.52578l0.86111,-5.47115c0,0 12.37488,0.47667 17.32873,0.46711c3.93152,-0.00758 6.79356,-0.14634 6.79356,-0.14634l4.78838,7.77781c0,0 -5.51574,0.74767 -9.68216,0.54131c-5.64535,-0.27963 -20.08954,-3.16874 -20.08954,-3.16874z" fill="url(#color-5)"/><path d="M321.55911,114.87164l0.62129,-3.94755l18.91863,2.97762l2.97083,4.51295z" fill="url(#color-6)"/><path d="M328.42175,138.45966l0.19576,-1.24393c0,0 15.43172,2.35146 20.77883,3.02342c3.99828,0.50249 8.61014,-0.36791 8.61014,-0.36791l0.70012,1.26902l-8.44261,0.75712z" fill="#312c30"/><g><path d="M230.27865,112.28187l1.15358,-8.78586l92.78318,14.60309l5.79356,12.33254z" fill="#8a6672"/><path d="M245.32858,123.03822c0,0 -2.91614,-4.10912 -5.45946,-5.98903c-2.54332,-1.87988 -9.55556,-2.74318 -9.55556,-2.74318l0.43533,-2.04427c0,0 12.13047,2.18904 19.05954,3.37594c16.55255,2.83541 79.82643,13.563 79.82643,13.563l2.55813,7.0505z" fill="#755761"/><path d="M247.75521,125.9417l-2.58566,-3.03064l86.59737,13.13408l0.71175,3.23109z" fill="#694e57"/><path d="M231.2079,103.86175l0.70414,-4.47391l89.80753,13.44705l2.92264,6.1909c0,0 2.20267,3.72582 -3.01538,2.87892c-1.64264,-0.26661 -10.12891,-5.01219 -11.77568,-5.27944c-15.85941,-2.57393 -78.6433,-12.76348 -78.6433,-12.76348z" fill="#916b77"/><path d="M232.151,99.42551l0.27511,-2.51229l88.83706,13.84157l0.66057,2.52566z" fill="#9e7582"/><path d="M305.26909,111.62581c-7.869,-1.89443 -71.58597,-12.96783 -71.58597,-12.96783l86.78572,13.65915l3.58546,8.09709c0,0 -10.91625,-6.89402 -18.7852,-8.78842z" fill="#b38f9a"/></g><path d="M278.25205,130.73877l1.42628,-9.06224l19.96645,3.14248l-1.42628,9.06224z" fill="#3a3336"/><path d="M279.59093,121.66697l0.94448,-1.3926l18.31298,2.88225l0.73644,1.65713z" fill="#4b4246"/><path d="M278.46819,130.26721l1.27142,-8.07813c0,0 0.22756,5.3665 2.68115,6.87256c2.45365,1.50607 15.45592,4.26026 15.45592,4.26026z" fill="#332c30"/><path d="M322.45388,117.2637l-2.93947,-6.53652c0,0 1.11413,-0.49955 1.70748,-0.40613c0.66328,0.10441 2.08584,1.00313 2.08584,1.00313l2.93947,6.53652z" fill="#757575"/><path d="M324.70143,122.41033l-4.22677,-9.38353l3.79328,0.59702l4.22677,9.38353z" fill="#5a5a5a"/><path d="M327.89206,129.44083l-4.22677,-9.38353l3.79328,0.59702l4.22677,9.38353z" fill="#505050"/><path d="M331.18917,136.7217c-0.72192,-1.60267 -3.53878,-7.85606 -3.53878,-7.85606l3.79328,0.59702l4.92795,11.22923c0,0 -2.11408,0.20935 -3.04974,0.0471c-0.72985,-0.12658 -1.81442,-3.3106 -2.13274,-4.0173z" fill="#3b3b3b"/><path d="M228.35135,114.60865l2.90347,-18.44765l3.14228,0.49457l-2.90347,18.44765z" fill="#443e42"/><path d="M209.45613,113.2534l0.24426,-5.96252l19.98258,3.14504l-0.92165,5.8559z" fill="url(#color-7)"/><path d="M209.60243,107.91386l1.68644,-10.71507l19.98258,3.14504l-1.68644,10.71507z" fill="#5e555b"/><path d="M211.26921,97.32348l1.43742,-3.98724l19.19229,3.02066l-0.64712,4.11162z" fill="url(#color-8)"/><path d="M281.33138,104.33672l0.95357,-6.05873l14.67369,3.38928l3.83353,5.37246z" fill="#5e555b"/><path d="M300.73698,107.39096l-3.79211,-5.6359c0,0 2.87213,1.15117 4.91805,2.48372c2.04598,1.33255 5.284,4.161 5.284,4.161z" fill="#776b73"/><path d="M278.16621,105.00834l3.35457,-0.73179l25.33015,3.71674l3.36517,2.05936z" fill="#6d6269"/></g><g><path d="M280.29829,127.04179c0.19418,-1.23362 0.87813,-2.29696 1.42209,-3.25359c0.75793,-1.33301 1.5378,-2.4127 2.9474,-3.04746c0.86098,-0.3877 2.04498,-0.59555 3.05926,-0.67928c0.67085,-0.05534 1.72009,-0.2952 2.41453,-0.18592c1.57433,0.24778 1.89977,0.38176 2.95839,1.05051c0.6377,0.40287 2.18735,1.10138 2.61139,1.84848c0.35884,0.63233 0.6814,1.64335 0.91325,2.36784c0.39624,1.23813 0.89909,3.20472 0.68314,4.57647c-0.09127,0.57974 -0.78532,1.82541 -0.91454,2.32687c-0.41018,1.59203 -0.49012,2.09533 -1.86045,2.9967c-0.83286,0.54784 -2.40698,0.85468 -3.4425,1.10672c-1.07247,0.261 -2.46742,0.91819 -3.62584,0.73585c-0.78187,-0.12306 -2.10944,-0.87357 -2.84569,-1.12734c-1.5974,-0.5505 -2.45154,-0.86156 -3.29123,-2.14791c-0.72006,-1.10312 -0.72904,-2.72255 -0.87776,-4.12025c-0.07811,-0.73431 -0.27175,-1.68361 -0.15148,-2.44782z" fill="#3a3a3a"/><path d="M281.03887,127.03827c0.17768,-1.12888 0.80359,-2.10192 1.30135,-2.97734c0.69361,-1.21985 1.40722,-2.20786 2.69715,-2.7887c0.78791,-0.35481 1.87134,-0.54502 2.79955,-0.62157c0.6139,-0.05065 1.57401,-0.27012 2.20952,-0.17012c1.44066,0.22674 1.73846,0.34932 2.70721,0.9613c0.58351,0.36865 2.00168,1.00787 2.38967,1.69154c0.32836,0.57866 0.62354,1.50384 0.83572,2.16677c0.36259,1.13301 0.82274,2.93264 0.62515,4.18791c-0.08347,0.53049 -0.71861,1.6704 -0.83686,2.12927c-0.37535,1.45686 -0.44852,1.91743 -1.70244,2.74231c-0.76217,0.50135 -2.20256,0.7821 -3.15021,1.01279c-0.98142,0.23886 -2.25794,0.84024 -3.31801,0.67336c-0.7155,-0.11261 -1.93034,-0.7994 -2.60408,-1.03159c-1.46176,-0.5038 -2.24336,-0.78839 -3.01177,-1.96557c-0.65895,-1.00943 -0.66714,-2.49138 -0.80327,-3.77042c-0.07147,-0.67198 -0.2487,-1.54066 -0.13866,-2.24001z" fill="#5a5a5a"/><path d="M293.7868,124.45953c-1.64912,-2.6747 -6.64948,-3.66478 -6.64948,-3.66478c0,0 2.00261,-0.23146 3.96749,0.0848c1.59162,0.25618 3.08817,0.86066 4.03135,2.32615c0.94391,1.46668 1.10219,2.99454 1.16853,4.41759c0.1301,2.79016 -0.67443,5.08576 -0.67443,5.08576c0,0 -0.19435,-5.57485 -1.84347,-8.2495z" fill="#6d6d6d"/><path d="M287.74431,128.58916c0.08952,-0.56873 0.62309,-0.95717 1.19182,-0.86765c0.56873,0.08952 0.95717,0.62309 0.86765,1.19182c-0.08952,0.56873 -0.62309,0.95717 -1.19182,0.86765c-0.56873,-0.08952 -0.95717,-0.62309 -0.86765,-1.19182z" fill="#272727"/><path d="M287.645,128.71203c0.08211,-0.52161 0.57149,-0.87791 1.09312,-0.79583c0.52161,0.08211 0.87791,0.57149 0.79583,1.09312c-0.08211,0.52161 -0.57149,0.87791 -1.09312,0.79583c-0.52161,-0.08211 -0.87791,-0.57149 -0.79583,-1.09312z" fill="#131313"/></g></g></g></g></g><path d="M182.7733,223.4471c0.2464,-1.5654 2.66695,-44.33516 3.41673,-45.91291c1.01232,-2.13028 9.18036,0.52255 12.34291,-0.50608c9.68575,-3.15031 20.09262,-6.1559 20.09262,-6.1559c0,0 13.80702,2.76072 17.99198,3.41936c3.12959,0.49257 66.59383,1.10103 65.72148,11.41232c-1.18325,13.98606 -43.93085,-3.81928 -45.81685,8.16385c-0.47744,3.0336 1.87258,3.60136 0.82443,6.62235c-0.25153,0.72503 -3.37989,5.47533 -3.86207,7.09611c-0.76542,2.57284 1.86731,7.03899 -1.88443,9.58591c-2.99067,2.03027 -1.86221,7.28649 -2.68221,8.388c-5.65073,7.59072 -13.28681,2.53762 -22.19008,1.13635c-10.55605,-1.66142 -26.49602,-0.40101 -35.57307,-3.08222c-3.91821,-1.15736 -9.09858,4.3895 -8.38143,-0.16715z" fill="#86c8f5" stroke-width="0"/><g><g><path d="M175.96668,240.77612l0.86785,-5.51406c0,0 2.1864,0.52433 3.1804,-0.29472c1.40434,-1.15721 4.64705,-5.84993 4.64705,-5.84993l-0.63238,8.09387c0,0 -3.53998,2.68069 -5.19923,3.32802c-1.19799,0.46734 -2.86373,0.23681 -2.86373,0.23681z" fill="#4d484c" stroke-width="0"/><g><g fill="none" stroke-width="1" font-family="sans-serif" font-weight="normal" font-size="12" text-anchor="start"/><g stroke-width="0"><g><path d="M136.51896,212.44269l1.36491,-41.09401l8.29918,1.30619l-1.36491,41.09401z" fill="#a59da1"/><path d="M137.81937,171.53142c0,0 -0.06717,-4.55807 1.90809,-5.54471c1.97525,-0.98669 7.03502,-0.4467 7.03502,-0.4467l-0.63036,7.29974z" fill="#b9b0b5"/><path d="M136.62228,223.23508l-0.04115,-10.81068l8.25952,1.29997l0.04115,10.81068z" fill="#8b8488"/></g><g><path d="M176.74996,215.33603l1.36492,-41.094l4.48398,0.70574l-1.36491,41.094z" fill="#a59da1"/><path d="M178.11732,175.25205l0.19661,-6.48956c0,0 3.00483,-0.21588 3.86877,1.08397c0.86396,1.29983 0.3652,5.28619 0.3652,5.28619z" fill="#b9b0b5"/><path d="M176.84095,226.12654l-0.04115,-10.81068l4.4567,0.70141l0.04116,10.81068z" fill="#8b8488"/></g><path d="M136.23656,231.8559c0,0 -2.80402,-3.21787 -2.96602,-4.74621c-0.18034,-1.70132 1.93299,-4.99871 1.93299,-4.99871l47.77097,3.06965c0,0 1.62673,2.61864 1.81205,4.15243c0.2597,2.14986 -4.66284,6.35018 -4.66284,6.35018z" fill="#494547"/><path d="M146.47254,169.4739c0,0 -2.19999,-0.92055 -2.5362,-1.55481c-0.36917,-0.69648 1.22129,-2.55438 1.22129,-2.55438c0,0 12.05492,0.8729 17.31796,1.37516c6.13551,0.58549 16.47042,2.02599 16.47042,2.02599c0,0 0.33434,1.29161 0.15718,1.86847c-0.17162,0.55868 -0.80555,1.60257 -0.80555,1.60257z" fill="#c2b8bd"/><path d="M136.77716,230.70525c0,0 -0.77895,-2.99282 -0.75757,-4.68565c0.01774,-1.40491 0.69027,-3.58421 0.69027,-3.58421l44.93127,2.96496c0,0 1.51353,3.42996 1.25502,5.07244c-0.27773,1.76445 -2.6812,3.98906 -2.6812,3.98906z" fill="#6f696b"/><path d="M146.91985,237.79813l0.86784,-5.51405l29.68069,3.04688l-0.86784,5.51405z" fill="#333032"/><path d="M135.50836,236.12502c-0.99646,-0.81275 -2.42819,-2.52187 -2.42819,-2.52187l0.20101,-6.87168c0,0 2.0903,2.62934 3.07132,4.16199c0.69433,1.08482 11.49936,1.28785 11.49936,1.28785l-0.86784,5.51405c0,0 -10.47919,-0.75763 -11.47567,-1.57034z" data-paper-data="{&quot;index&quot;:null}" fill="#444043"/><g><path d="M143.45932,184.15214c0,0 -1.81604,-5.08635 -1.57113,-6.81144c0.16955,-1.19434 2.8994,-2.54558 2.8994,-2.54558l35.1058,2.46362c0,0 1.08861,3.33365 0.86975,4.87575c-0.22374,1.57613 -2.19802,4.48122 -2.19802,4.48122z" fill="#979797"/><path d="M143.67786,183.1073c0,0 -1.92143,-4.55132 -1.71604,-6.07574c0.14218,-1.05544 2.82997,-2.19293 2.82997,-2.19293l35.00662,2.96729c0,0 1.15821,2.98072 0.97458,4.34348c-0.18764,1.39281 -2.0885,3.9252 -2.0885,3.9252z" fill="#a2a2a2"/></g><g><path d="M143.23965,200.86079c0,0 -1.81604,-5.08635 -1.57113,-6.81144c0.16955,-1.19434 2.8994,-2.54558 2.8994,-2.54558l35.1058,2.46362c0,0 1.08861,3.33365 0.86975,4.87575c-0.22374,1.57613 -2.19802,4.48121 -2.19802,4.48121z" fill="#979797"/><path d="M143.45817,199.81603c0,0 -1.92142,-4.55132 -1.71603,-6.07574c0.14217,-1.05543 2.82996,-2.19293 2.82996,-2.19293l35.00662,2.9673c0,0 1.15821,2.98072 0.97458,4.34348c-0.18765,1.39281 -2.0885,3.9252 -2.0885,3.9252z" fill="#a2a2a2"/></g><g><path d="M143.04865,218.07536c0,0 -1.81604,-5.08635 -1.57113,-6.81144c0.16955,-1.19434 2.8994,-2.54558 2.8994,-2.54558l35.1058,2.46362c0,0 1.08861,3.33365 0.86975,4.87575c-0.22374,1.57613 -2.19802,4.48121 -2.19802,4.48121z" fill="#7a7a7a"/><path d="M143.26718,217.03058c0,0 -1.92143,-4.55132 -1.71604,-6.07575c0.14217,-1.05543 2.82995,-2.19293 2.82995,-2.19293l35.00663,2.96729c0,0 1.1582,2.98072 0.97458,4.34348c-0.18765,1.39281 -2.0885,3.92521 -2.0885,3.92521z" fill="#929292"/></g></g></g></g><path d="M136.51253,216.44425c0,0 -0.11399,-1.75552 -0.05583,-4.08541c0.17072,-6.8404 1.18076,-40.98459 1.18076,-40.98459l2.46045,4.74321l-1.22033,29.59488z" fill="#777275" stroke-width="0"/></g></g></g></svg>