<svg version="1.1" xmlns="http://www.w3.org/2000/svg" xmlns:xlink="http://www.w3.org/1999/xlink" width="469.97356" height="170.84928" viewBox="0,0,469.97356,170.84928"><defs><linearGradient x1="546.50903" y1="200.91279" x2="545.89971" y2="205.68563" gradientUnits="userSpaceOnUse" id="color-1"><stop offset="0" stop-color="#1f1d20"/><stop offset="1" stop-color="#202022"/></linearGradient><linearGradient x1="547.5599" y1="196.15247" x2="546.85881" y2="201.64412" gradientUnits="userSpaceOnUse" id="color-2"><stop offset="0" stop-color="#302d31"/><stop offset="1" stop-color="#1f1e20"/></linearGradient><linearGradient x1="209.38328" y1="201.43845" x2="208.95393" y2="204.80121" gradientUnits="userSpaceOnUse" id="color-3"><stop offset="0" stop-color="#585758"/><stop offset="1" stop-color="#575758"/></linearGradient><linearGradient x1="195.09929" y1="209.77514" x2="194.76227" y2="212.41507" gradientUnits="userSpaceOnUse" id="color-4"><stop offset="0" stop-color="#363536"/><stop offset="1" stop-color="#353536"/></linearGradient><linearGradient x1="349.06389" y1="135.87663" x2="348.3625" y2="141.37053" gradientUnits="userSpaceOnUse" id="color-5"><stop offset="0" stop-color="#5e555b"/><stop offset="1" stop-color="#2b2629"/></linearGradient><linearGradient x1="342.00212" y1="114.14039" x2="341.49604" y2="118.10439" gradientUnits="userSpaceOnUse" id="color-6"><stop offset="0" stop-color="#72676e"/><stop offset="1" stop-color="#5e555b"/></linearGradient><linearGradient x1="228.1947" y1="113.62245" x2="227.44397" y2="119.50277" gradientUnits="userSpaceOnUse" id="color-7"><stop offset="0" stop-color="#5e555b"/><stop offset="1" stop-color="#4d454a"/></linearGradient><linearGradient x1="229.99961" y1="99.48491" x2="229.47253" y2="103.61368" gradientUnits="userSpaceOnUse" id="color-8"><stop offset="0" stop-color="#74686f"/><stop offset="1" stop-color="#5e555b"/></linearGradient></defs><g transform="translate(-81.37135,-98.30538)"><g data-paper-data="{&quot;isPaintingLayer&quot;:true}" fill-rule="nonzero" stroke="none" stroke-linecap="butt" stroke-linejoin="miter" stroke-miterlimit="10" stroke-dasharray="" stroke-dashoffset="0" style="mix-blend-mode: normal"><path d="M114.53554,218.77039c0.97306,-4.0861 18.08721,-8.92981 19.21292,-8.50441c0.99398,0.37563 3.36257,3.79708 4.35372,3.84315c11.08174,0.51493 30.40267,-6.37161 36.79493,-5.15089c8.33771,1.59225 6.08581,12.6722 8.22338,19.05123c1.16134,3.4657 1.86646,6.67332 3.76926,9.68274c0.40227,0.63621 -1.43379,5.80021 -5.42524,7.80945c-5.46484,2.75091 -13.65728,2.42317 -13.65728,2.42317c0,0 6.03102,-0.51105 11.00008,0.02117c3.42861,0.36722 6.43189,1.06043 6.27278,3.45592c-2.16052,9.0725 -15.02621,7.82114 -27.94739,8.94905c-8.80241,0.76837 -17.12176,5.49948 -24.09031,4.16871c-4.63665,-0.88547 -5.58729,7.21951 -9.69901,3.77957c-8.4424,-7.06308 -18.39016,-28.82054 -18.12155,-38.98423c0.0858,-3.24644 8.67145,-7.84757 9.31371,-10.5446z" fill="#86c8f5" stroke-width="0"/><g stroke-width="0"><g><path d="M150.29743,177.27376l0.45865,-8.55941l39.6557,1.96403l-0.45865,8.55941z" fill="#696366"/><path d="M151.21823,170.28889c0,0 0.10961,-1.21016 -0.14161,-2.75148c-0.30139,-1.84914 -0.63062,-4.1216 -0.62069,-5.17152c0.01102,-1.16602 1.20271,-2.50333 1.20271,-2.50333c0,0 8.89596,1.62577 15.26803,2.61852c0.41881,0.06526 14.80157,1.21773 15.37345,1.17532c3.20088,-0.23741 7.49084,-0.18859 7.49084,-0.18859c0,0 0.60002,1.44371 0.70566,2.99827c0.11297,1.66261 -0.26586,3.46 -0.19772,4.00876c0.06744,0.54296 -0.35932,1.17537 -0.35932,1.17537z" fill="#454143"/><path d="M149.94159,175.5702l0.07334,-2.19124l40.36512,1.3512l-0.07334,2.19124z" fill="#514c4e"/></g><g><g><path d="M189.46784,248.61476l0.60216,-5.54934c0,0 2.20905,0.41878 3.1626,-0.44704c1.34715,-1.22327 4.36091,-6.06626 4.36091,-6.06626l-0.24313,8.11489c0,0 -3.40723,2.84755 -5.03349,3.57375c-1.17414,0.52431 -2.84905,0.374 -2.84905,0.374z" fill="#4d484c"/><g><g fill="#000000" font-family="&quot;Helvetica Neue&quot;, Helvetica, Arial, sans-serif" font-weight="400" font-size="16" text-anchor="start"/><g><g><path d="M148.70554,222.20748l-0.60922,-41.11218l8.35232,0.90633l0.60922,41.11218z" fill="#a59da1"/><path d="M148.0407,181.28097c0,0 -0.28588,-4.54958 1.63973,-5.62993c1.92562,-1.08035 7.00545,-0.78384 7.00545,-0.78384l-0.27925,7.32159z" fill="#b9b0b5"/><path d="M149.32683,232.98247l-0.55999,-10.79625l8.3124,0.902l0.55999,10.79625z" fill="#8b8488"/></g><g><path d="M189.02908,223.16639l-0.60921,-41.11217l4.5127,0.48968l0.60922,41.11217z" fill="#a59da1"/><path d="M188.47082,183.06295l-0.11513,-6.49151c0,0 2.991,-0.35984 3.91634,0.89703c0.92536,1.25688 0.61853,5.26256 0.61853,5.26256z" fill="#b9b0b5"/><path d="M189.63791,233.9401l-0.55999,-10.79625l4.48523,0.48671l0.56,10.79625z" fill="#8b8488"/></g><path d="M149.35533,241.61191c0,0 -2.95519,-3.07957 -3.19038,-4.59839c-0.26179,-1.69074 1.69085,-5.08574 1.69085,-5.08574l47.86328,0.7731c0,0 1.75058,2.53752 2.00926,4.06069c0.3626,2.13489 -4.35265,6.56666 -4.35265,6.56666z" fill="#494547"/><path d="M156.58512,178.81048c0,0 -2.24168,-0.81391 -2.6079,-1.43128c-0.40217,-0.67795 1.09729,-2.61006 1.09729,-2.61006c0,0 12.08291,0.29323 17.36402,0.54228c6.15655,0.29031 16.54866,1.23307 16.54866,1.23307c0,0 0.39596,1.27406 0.24667,1.85876c-0.14459,0.56626 -0.7277,1.63942 -0.7277,1.63942z" fill="#c2b8bd"/><path d="M149.84011,240.43664c0,0 -0.92171,-2.95195 -0.98166,-4.64389c-0.04972,-1.40415 0.51745,-3.6132 0.51745,-3.6132l45.02182,0.80479c0,0 1.67643,3.35335 1.49705,5.00635c-0.19269,1.77574 -2.48663,4.11315 -2.48663,4.11315z" fill="#6f696b"/><path d="M160.31155,247.03449l0.60216,-5.54933l29.79272,1.61866l-0.60216,5.54933z" fill="#333032"/><path d="M148.83286,245.91109c-1.03435,-0.76395 -2.54643,-2.40238 -2.54643,-2.40238l-0.12906,-6.87339c0,0 2.21414,2.52599 3.26755,4.00976c0.74561,1.05022 11.54794,0.73438 11.54794,0.73438l-0.60216,5.54933c0,0 -10.50348,-0.25373 -11.53783,-1.01771z" data-paper-data="{&quot;index&quot;:null}" fill="#444043"/><g><path d="M154.27999,193.6164c0,0 -2.05807,-4.9933 -1.89627,-6.72815c0.11202,-1.20112 2.77387,-2.68182 2.77387,-2.68182l35.18361,0.77569c0,0 1.2474,3.27755 1.10277,4.82841c-0.14782,1.58506 -1.98037,4.58157 -1.98037,4.58157z" fill="#979797"/><path d="M154.44808,192.56229c0,0 -2.13768,-4.45383 -2.00571,-5.98637c0.09137,-1.06106 2.72143,-2.32624 2.72143,-2.32624l35.10869,1.28353c0,0 1.29992,2.92169 1.18196,4.29168c-0.12057,1.4002 -1.89768,4.02092 -1.89768,4.02092z" fill="#a2a2a2"/></g><g><path d="M154.86255,210.31636c0,0 -2.05807,-4.9933 -1.89627,-6.72815c0.11202,-1.20112 2.77387,-2.68182 2.77387,-2.68182l35.18361,0.77569c0,0 1.2474,3.27755 1.10277,4.82841c-0.14782,1.58506 -1.98037,4.58156 -1.98037,4.58156z" fill="#979797"/><path d="M155.03066,209.26226c0,0 -2.13767,-4.45383 -2.0057,-5.98637c0.09136,-1.06105 2.72142,-2.32624 2.72142,-2.32624l35.10868,1.28354c0,0 1.29992,2.92169 1.18196,4.29168c-0.12058,1.4002 -1.89768,4.02092 -1.89768,4.02092z" fill="#a2a2a2"/></g><g><path d="M155.49811,227.52023c0,0 -2.05807,-4.9933 -1.89627,-6.72815c0.11202,-1.20112 2.77387,-2.68182 2.77387,-2.68182l35.18361,0.77569c0,0 1.2474,3.27755 1.10277,4.82841c-0.14782,1.58506 -1.98037,4.58156 -1.98037,4.58156z" fill="#7a7a7a"/><path d="M155.66621,226.46614c0,0 -2.13768,-4.45383 -2.00571,-5.98638c0.09136,-1.06105 2.72142,-2.32623 2.72142,-2.32623l35.1087,1.28353c0,0 1.29991,2.92169 1.18196,4.29168c-0.12058,1.4002 -1.89768,4.02093 -1.89768,4.02093z" fill="#929292"/></g></g></g></g><path d="M148.89123,226.20472c0,0 -0.19812,-1.74801 -0.25189,-4.07804c-0.15781,-6.84071 -0.78789,-40.99402 -0.78789,-40.99402l2.68528,4.61963l0.20165,29.61935z" fill="#777275"/></g></g><g><g stroke-width="0"><path d="M272.17525,194.34175l-8.20451,-16.51727l25.44426,2.65345c0,0 -1.82777,5.6428 -2.36784,8.29427c-0.52238,2.56487 -0.82115,7.36341 -0.82115,7.36341z" fill="#7f7d7e"/><path d="M272.24793,194.54942l-2.90024,-6.02271c0,0 1.88935,3.82513 5.02159,4.84474c2.25551,0.73418 4.16572,0.66559 6.78498,1.32341c2.61924,0.6578 4.94934,1.62351 4.94934,1.62351z" fill="#6c6a6b"/></g><g><g><g><path d="M542.93266,205.30688l-1.43308,-5.03361c0,0 5.73328,2.40326 8.19666,3.61786c2.46341,1.21462 0.79343,2.14675 0.79343,2.14675z" fill="url(#color-1)" stroke-width="0"/><path d="M551.09034,196.80448c0,0 1.17292,2.49644 -1.51659,3.05319c-2.68952,0.55676 -5.72407,1.40232 -5.72407,1.40232l-0.26174,-5.61459z" data-paper-data="{&quot;index&quot;:null}" fill="url(#color-2)" stroke-width="0"/><path d="M533.39281,204.0843l0.26575,-2.08148l14.65361,1.8708c0,0 1.14689,0.94716 1.58439,1.37227c0.39328,0.38215 -0.84805,0.83714 -0.84805,0.83714z" fill="#444444" stroke-width="NaN"/><path d="M533.67383,202.1494l-0.95895,-1.89057l12.5141,1.59765l3.15874,2.05866c0,0 -4.21406,-0.29807 -6.5025,-0.57271c-2.58091,-0.30974 -8.21138,-1.1931 -8.21138,-1.1931z" fill="#535353" stroke-width="0"/><path d="M532.58631,200.3802l-0.24111,-0.67596l11.38141,1.453l1.60535,0.73491z" fill="#363636" stroke-width="0"/><path d="M533.39281,204.0843l0.14416,-1.1292c0,0 6.34419,1.26724 9.20079,1.63193c2.42073,0.30905 6.84865,0.41708 6.84865,0.41708c0,0 0.79862,0.56794 1.01829,0.80053c0.1853,0.19619 -0.30659,0.43794 -0.30659,0.43794c0,0 -4.74588,-0.19814 -7.04098,-0.49116c-3.09641,-0.3953 -9.86429,-1.66714 -9.86429,-1.66714z" fill="#3a3a3a" stroke-width="NaN"/><path d="M532.66125,199.76303l-0.43714,-0.94671l13.53182,1.72758l-1.92315,0.67955z" fill="#242424" stroke-width="0"/><path d="M531.39859,198.90169l0.2095,-1.64098c0,0 8.05431,0.8204 11.02594,1.19979c2.02459,0.25847 5.07987,0.85641 5.07987,0.85641l-1.98766,1.24768z" fill="#3a3a3a" stroke-width="0"/><path d="M531.47418,197.28648l0.25867,-2.02612c0,0 7.63346,0.64198 10.92103,1.06168c2.8449,0.36321 7.66916,1.31169 7.66916,1.31169l-2.65738,1.71989c0,0 -3.61504,-0.54467 -5.84141,-0.82889c-2.95936,-0.37781 -10.35008,-1.23824 -10.35008,-1.23824z" fill="#444444" stroke-width="0"/><path d="M531.67926,195.33933l0.10781,-0.8442c0,0 7.8261,0.87442 11.39436,1.32999c2.48463,0.31721 7.96687,1.1418 7.96687,1.1418l-0.96584,0.73467c0,0 -4.97673,-0.92641 -7.91808,-1.3019c-3.24061,-0.41374 -10.58508,-1.06034 -10.58508,-1.06034z" fill="#535353" stroke-width="0"/><path d="M531.64778,194.56317l0.04312,-0.33769c0,0 7.6787,0.46915 11.11122,0.90739c2.9677,0.37889 8.29282,1.56988 8.29282,1.56988l-0.00584,0.34245c0,0 -5.93962,-0.92458 -9.15851,-1.33555c-3.26097,-0.41632 -10.28276,-1.14648 -10.28276,-1.14648z" fill="#4e4e4e" stroke-width="0"/></g><g stroke-width="0"><g><g><g><path d="M527.64798,202.8589l-2.87786,-13.63788l0.76657,-1.63745c0,0 3.03786,3.64324 3.63747,6.2304c0.32551,1.40455 -0.08329,9.22913 -0.08329,9.22913z" fill="#383638"/><path d="M528.77824,202.30621c0,0 0.13513,-0.59739 -0.17755,-3.11211c-0.34097,-2.74242 -1.26164,-6.52653 -1.51561,-7.64162c-0.57011,-2.50307 -1.30239,-2.72809 -1.30239,-2.72809l4.83504,0.03075l3.21045,14.09582z" fill="#555355"/><path d="M525.83536,188.91713l-0.42055,-1.3001c0,0 2.10523,-0.53774 3.05911,-0.41594c0.89383,0.11409 1.92787,0.9793 1.92787,0.9793l0.41134,1.37222z" fill="#686668"/></g><path d="M522.02095,202.14052l-2.87786,-13.63787l0.43584,-1.65939c0,0 3.3686,3.66517 3.96814,6.25227c0.32551,1.40454 -0.08328,9.22913 -0.08328,9.22913z" fill="#383638"/><path d="M523.15118,201.58774c0,0 0.13513,-0.5974 -0.17754,-3.11211c-0.34097,-2.74242 -1.26164,-6.52653 -1.51561,-7.64162c-0.57011,-2.50307 -1.30239,-2.72809 -1.30239,-2.72809l4.1544,-0.56023c0,0 0.859,1.3741 1.03279,2.13701c0.49508,2.17368 2.85832,12.54975 2.85832,12.54975z" fill="#555355"/><path d="M520.20831,188.19868l-0.63699,-1.32774c0,0 2.32168,-0.5101 3.27557,-0.3883c0.89383,0.11409 1.63928,0.94246 1.63928,0.94246l0.53537,1.38808z" fill="#686668"/><path d="M529.71586,201.42407c0.10377,-0.81292 0.84692,-1.38779 1.65984,-1.28401c0.81293,0.10377 1.38779,0.84692 1.28401,1.65984c-0.10377,0.81292 -0.84692,1.38779 -1.65983,1.28401c-0.81293,-0.10377 -1.38779,-0.84692 -1.28401,-1.65984z" fill="#312f31"/><path d="M530.73716,198.6014l-1.28087,-5.75506l1.5967,0.05935l1.27272,5.81909z" fill="#444144"/></g><path d="M483.63404,192.23293l-2.36367,-11.21315l29.49275,4.95131l-1.68849,9.50979z" fill="#444444"/><path d="M496.669,189.94984c0,0 0.69694,-0.43718 1.55337,-1.44173c0.78304,-0.91843 1.70959,-2.39087 2.14987,-2.80216c1.1835,-1.56923 3.48381,-0.80494 3.48381,-0.80494l-1.05441,0.52374l-4.99897,4.66987z" fill="#292929"/><path d="M498.11234,200.749l-5.07243,-11.70805c0,0 3.40328,0.97009 5.22605,0.14521c1.41643,-0.64103 1.65634,-3.26373 3.2566,-3.34263c4.59117,-0.2263 17.417,0.97377 17.417,0.97377c0,0 2.30921,7.49777 2.86338,10.47904c0.38256,2.05815 0.2295,6.50657 0.2295,6.50657z" fill="#4a464a"/><path d="M503.87626,188.26991c-4.44353,-1.20851 -2.8416,-2.37901 -2.8416,-2.37901c0,0 0.95125,-1.19136 2.82206,-1.09986c4.59089,0.22453 13.09132,1.89135 14.80294,2.08402c0.8072,0.09085 0.25566,0.73409 0.25566,0.73409c0,0 -1.77954,2.17814 -3.34984,2.23376c-1.57035,0.05563 -7.24566,-0.36446 -11.68923,-1.57302z" fill="#5e595e"/></g><g><path d="M485.57077,205.77655l-2.84839,-18.44472l18.71928,2.6785l4.21268,4.90131l6.06259,0.67467l1.24444,13.68715z" fill="#4d4846"/><path d="M490.17451,206.75453l21.67926,-6.69999l22.17265,2.58636c0,0 0.77172,4.31536 0.742,5.67713c-0.01519,0.69428 -0.52656,2.90077 -0.52656,2.90077z" fill="#423d3b"/><path d="M487.44396,198.02747l-1.90695,-10.16952l0.8139,0.10391l1.90696,10.16952z" fill="#363332"/><path d="M490.85691,206.03354l0.15417,-1.20759c0,0 5.54445,-1.85825 14.53634,-0.71028c1.19472,0.15253 5.08647,3.21548 6.29063,3.36922c7.64008,0.97539 15.11829,1.93012 17.96326,2.29333c2.31696,0.29582 4.84759,-0.69166 4.84759,-0.69166l-0.31882,2.49713z" fill="#312e2c"/><path d="M494.82111,193.69604l-1.14507,-4.79901l8.24082,1.05209l3.56165,4.91191l6.23117,0.99118l-7.77542,0.97188z" fill="#585350"/><path d="M484.52057,199.46362l0.14289,-1.11913c0,0 8.45517,-2.69453 11.30921,-2.33015c4.30146,0.54915 16.17639,2.06521 16.17639,2.06521l-0.14289,1.11913c0,0 -12.07851,-1.54205 -16.37989,-2.09117c-2.79544,-0.35692 -11.10574,2.35613 -11.10574,2.35613z" fill="#2b2827"/></g></g></g><g><g><g><path d="M147.18078,199.39628c0.25353,2.28448 -0.38134,4.81398 -1.497,4.9378c-1.11566,0.12383 -2.2897,-2.20492 -2.54322,-4.48945c-0.25353,-2.28448 -1.28524,-11.05616 -0.16952,-11.17999c1.11566,-0.12383 3.95624,8.4471 4.20977,10.73162z" fill="#615e5f" stroke-width="0"/><g><path d="M192.22859,174.97557c-0.46816,-0.59168 -2.6238,-2.1899 -2.6238,-2.1899l10.20485,-1.60054l-6.86349,6.3822c0,0 -0.2494,-2.00008 -0.71758,-2.59174z" fill="#756a6a" stroke-width="0"/><path d="M183.48962,172.14888l1.73919,-13.62276l19.12706,-3.47236l-2.48214,19.44222z" fill="#8a7c7c" stroke-width="0"/><path d="M143.08631,172.48194l8.90941,-17.14308l34.66896,4.29172l2.89273,13.13879c0,0 -23.0044,-1.34809 -30.75652,-1.39601c-3.21798,-0.01991 -15.71459,1.10863 -15.71459,1.10863z" fill="#7c787a" stroke-width="0"/><path d="M151.80857,157.73932l0.04067,-1.48832c0,0 25.71549,3.28302 33.79971,4.31513c4.52314,0.57745 16.82488,-4.27406 16.82488,-4.27406l-0.20637,1.61654c0,0 -12.00746,4.86966 -16.38008,4.29664c-8.01773,-1.05068 -34.0788,-4.46587 -34.0788,-4.46587z" fill="#535353" stroke-width="0"/><path d="M111.17546,169.12157l2.55231,-19.99175c0,0 5.388,-6.42352 12.86462,-7.78361c9.28626,-1.68926 25.813,2.22026 27.86698,2.48249c1.5762,0.20124 -14.12283,8.69818 -14.12283,8.69818l-2.55231,19.99175z" fill="#8d898b" stroke-width="0"/><path d="M288.57393,145.25232l1.98793,-2.91598l106.68101,13.76374l-1.86745,14.62751c0,0 -37.71016,-2.95389 -49.77989,-4.91429c-5.99416,-0.97359 -57.02159,-20.56102 -57.02159,-20.56102z" fill="#c98cac" stroke-width="0"/><path d="M254.29362,242.69574l-2.86879,-13.40769c0,0 4.35719,6.44314 7.04552,7.87194c1.71282,0.91034 5.85658,1.82421 12.22686,0.18028c5.12828,-1.32342 10.95325,-6.13529 10.95325,-6.13529l-13.46587,13.26414z" fill="#a08e97" stroke-width="0"/><path d="M349.99623,207.61707l0.67229,-23.72729l18.57569,0.95739l-2.68439,21.02636c0,0 -6.56361,0.89511 -9.39488,1.23761c-1.30365,0.15769 -7.1687,0.50599 -7.1687,0.50599z" fill="#96858d" stroke-width="0"/><path d="M251.99641,246.17865l0.70159,-5.49554c0,0 11.70415,3.57958 16.68177,1.06839c2.42247,-1.22212 21.78943,-19.85197 32.47128,-30.21464c4.16857,-4.04402 7.01449,-6.82897 7.01449,-6.82897c0,0 3.81013,-3.3174 4.17911,-6.17589c0.18561,-1.43795 1.18097,-5.52352 0.64883,-7.92155c-0.53688,-2.41949 -2.60217,-3.14518 -2.60217,-3.14518l-3.11412,-14.08003l19.63828,2.65202l-6.25121,25.99093l3.40351,3.01717c0,0 -10.23795,4.74175 -15.45718,9.07137c-8.1662,6.77418 -35.21511,33.95241 -35.21511,33.95241z" fill="#918189" stroke-width="0"/><path d="M326.95803,205.03144l4.82622,-28.2199l13.62981,2.0181l8.76029,13.21801l-4.29072,15.91069z" fill="#96858d" stroke-width="0"/><path d="M322.2357,206.29267l-1.96404,-4.43017l6.82715,-25.53087l5.04969,0.5593l-4.29039,28.27098z" fill="#8f8187" stroke-width="0"/><path d="M348.64609,207.90474c0,0 3.5739,-6.26488 2.9173,-11.80347c-0.37805,-3.18907 -5,-5.76486 -5.23176,-7.71986c-0.4427,-3.73459 -1.12763,-9.51204 -1.12763,-9.51204l7.23922,5.3236c0,0 2.46518,7.58702 2.51841,11.88992c0.0358,2.8909 -2.2434,9.02769 -3.49167,11.48829c-0.10523,0.20743 -1.26138,-0.02413 -1.33353,0.13333c-0.17626,0.38464 0.75091,0.7362 0.75091,0.7362z" fill="#86787e" stroke-width="0"/><path d="M352.04039,185.65362c0,0 -2.56508,-4.31451 -7.08687,-5.87133c-5.11914,-1.76244 -22.05886,-4.16314 -22.05886,-4.16314l158.26337,5.90826l2.21002,9.65944l6.443,12.05569c0,0 -99.65474,-15.31503 -120.07733,-17.92233c-6.66418,-0.85082 -17.69334,0.33341 -17.69334,0.33341z" fill="#df8db7" stroke-width="0"/><path d="M193.07675,213.02312l-0.16618,-36.58546c0,0 2.14466,-3.5073 2.66912,-3.65777c5.78221,-1.65894 38.90987,-8.16787 44.26907,-7.19507c5.87072,1.06563 -10.63647,10.98361 -10.63647,10.98361c0,0 -14.55039,0.18476 -17.60583,4.07904c-4.14842,5.28731 -1.53772,23.115 -1.53772,23.115z" fill="#c77da3" stroke-width="0"/><path d="M268.70422,192.5065l-1.50846,-2.31494c0,0 7.59612,-7.70665 10.30046,-9.67273c2.79195,-2.0298 6.1968,-2.32106 6.1968,-2.32106l5.59613,3.03532c0,0 -4.37638,-1.06537 -6.93845,0.33774c-2.19943,1.20452 -6.31121,3.78323 -9.48049,6.49606c-2.30542,1.97337 -4.16598,4.43956 -4.16598,4.43956z" fill="#414041" stroke-width="0"/><path d="M151.62428,156.661l6.24171,-10.98755l48.23693,6.1583c0,0 -3.4395,4.05255 -6.78297,5.60776c-3.28152,1.52643 -13.09545,3.63876 -13.09545,3.63876z" fill="#979395" stroke-width="0"/><path d="M152.56254,155.62864l5.44813,-11.08885l48.23693,6.1583c0,0 -3.4395,4.05255 -6.78297,5.60776c-3.28152,1.52643 -13.09545,3.63876 -13.09545,3.63876z" fill="#bdb7ba" stroke-width="0"/><path d="M350.99426,208.52783l-1.7928,-0.74656l17.24193,-2.00741c0,0 -3.79224,1.58994 -6.35711,2.06586c-2.56486,0.47595 -9.09199,0.6881 -9.09199,0.6881z" fill="#887980" stroke-width="0"/><path d="M195.48364,213.79865c0,0 -0.99601,-10.67758 -1.10615,-19.2994c-0.11065,-8.66388 -0.18922,-16.78595 0.24286,-20.34459c0.07321,-0.60289 2.96566,-10.2449 3.52743,-10.69879c3.03236,-2.45014 9.73119,6.21153 15.39027,5.82149c8.3792,-0.5775 27.39895,1.33244 27.39895,1.33244l-9.0582,4.19736c0,0 -19.65584,0.37895 -22.67883,5.17195c-4.08885,6.48304 0.77762,28.14647 0.77762,28.14647z" fill="#d486ae" stroke-width="0"/><path d="M197.0517,210.45147c0,0 -1.43152,-41.38606 1.16085,-51.2139c1.21294,-4.59833 -0.96142,-14.05769 -0.96142,-14.05769l49.37679,13.32907l-0.62264,16.12094c0,0 -31.39259,-7.12614 -38.48642,-1.70689c-4.73536,3.61751 -1.55781,32.49548 -1.55781,32.49548z" fill="#e490bb" stroke-width="0"/><g stroke-width="0"><path d="M342.33869,165.4949l1.04791,-8.20826l9.28463,1.18537l-1.04791,8.20826z" fill="#454545"/><path d="M343.2612,164.84162l0.57037,-7.28452l11.23501,1.43435l-0.92423,7.23934z" fill="#b0b0b0"/><path d="M343.601,160.35954l0.13169,-2.83645l11.44991,1.46179l-0.24153,1.89202c0,0 -7.77096,-0.66704 -9.47422,-0.74474c-0.56913,-0.02597 -1.86585,0.22739 -1.86585,0.22739z" fill="#bebebe"/><path d="M354.46328,165.71779c0,0 -5.17246,-3.23647 -4.13148,-6.88164c1.54691,-5.41673 5.57439,-4.42059 5.57439,-4.42059l39.74955,6.4189l-1.27406,9.97961z" fill="#9c989a"/><path d="M356.39945,164.66525c0,0 -2.02112,-3.80552 -2.14591,-4.75582c-0.18501,-1.40863 2.16826,-4.08953 2.16826,-4.08953l41.25663,5.30076l-1.34514,7.37771z" fill="#898587"/><path d="M356.28474,164.8505l-0.76578,-2.05289l37.92394,4.84167l-0.24559,1.92378z" fill="#c1bcbf"/><path d="M356.59434,161.46854c0,0 -1.14937,-1.52582 -1.03065,-2.45563c0.11102,-0.86976 1.72142,-2.95502 1.72142,-2.95502l38.35535,4.89676l-0.69078,5.41062z" fill="#0d0d0d"/><path d="M356.49589,162.23958c0,0 -1.07289,-2.12472 -0.95419,-3.05454c0.11102,-0.86976 1.64495,-2.3561 1.64495,-2.3561l38.35536,4.89676l-0.69078,5.41062z" fill="#2e2e2e"/><path d="M351.4677,163.51641c-2.22921,-3.37645 -0.77751,-5.54662 -0.77751,-5.54662c0,0 1.2967,4.31126 2.40859,5.35809c1.31643,1.23937 4.72418,3.05152 4.72418,3.05152l-3.4894,-0.37474c0,0 -2.47354,-1.89403 -2.86582,-2.48821z" fill="#7d7a7c"/><path d="M359.03576,162.87602c0,0 -0.60161,-2.30676 -0.4568,-3.44113c0.1273,-0.99714 1.27992,-3.00655 1.27992,-3.00655l4.78449,0.61084c0,0 -0.73652,2.12785 -0.84645,2.98907c-0.15113,1.18371 0.02332,3.45857 0.02332,3.45857z" fill="#555555"/><path d="M367.58306,163.96731c0,0 0.98082,-2.41836 1.12563,-3.55272c0.1273,-0.99714 -0.30246,-2.89496 -0.30246,-2.89496l5.33999,0.68175c0,0 -0.63051,1.64848 -0.74045,2.50976c-0.15113,1.18371 -0.08269,3.93791 -0.08269,3.93791z" fill="#555555"/><path d="M376.83465,165.14842c0,0 0.98083,-2.41836 1.12565,-3.55272c0.1273,-0.99714 -0.30247,-2.89495 -0.30247,-2.89495l5.26063,0.67158c0,0 -0.63051,1.64848 -0.74045,2.50976c-0.15113,1.18371 -0.08269,3.93791 -0.08269,3.93791z" fill="#555555"/><path d="M386.42016,166.37215c0,0 1.11215,-2.04313 1.25695,-3.17753c0.1273,-0.99714 -0.4338,-3.27012 -0.4338,-3.27012l5.10193,0.65134c0,0 0.57013,2.0706 0.46019,2.93191c-0.15113,1.18371 -1.28331,3.5158 -1.28331,3.5158z" fill="#555555"/><path d="M359.50575,157.09302l-0.55846,-0.87778l35.27628,4.50364l-1.62321,0.59927c0,0 -2.80729,-0.35842 -5.24966,-0.6702c-0.53237,-0.06799 -1.49814,-0.52266 -2.29556,-0.62453c-0.77102,-0.09843 -1.36607,0.15703 -2.32449,0.03467c-1.49455,-0.19082 -3.18082,-0.40608 -4.94615,-0.63146c-0.73189,-0.09344 -1.32016,-0.55521 -2.07121,-0.65109c-0.66787,-0.08524 -1.49736,0.19549 -2.16837,0.10985c-1.66535,-0.21262 -3.31429,-0.42313 -4.86464,-0.62104c-0.71192,-0.09087 -1.34753,-0.61395 -2.00989,-0.69852c-0.80861,-0.10324 -1.62989,0.23383 -2.33837,0.14339c-2.89001,-0.36897 -4.82629,-0.61614 -4.82629,-0.61614z" fill="#474747"/></g><g><path d="M204.98085,204.98269l4.0503,-2.37363c0,0 2.44569,3.14997 5.14357,4.39665c2.38617,1.10262 10.22361,2.70434 10.22361,2.70434l-3.18512,3.983z" fill="#6d6a6b" stroke-width="0"/><path d="M196.16356,210.40994l10.09241,-6.15664c0,0 2.92291,2.64801 4.99041,3.57923c3.12782,1.40877 11.9503,4.05104 11.9503,4.05104l-4.78879,3.73093z" fill="#615e5f" stroke-width="0"/><path d="M195.36431,232.45358l1.38727,-22.57917c0,0 4.21887,1.33698 8.99762,1.97692c3.72998,0.49949 7.85245,0.17182 10.23915,1.08981c4.19003,1.61159 35.88147,18.11357 35.88147,18.11357l1.16999,10.40677z" fill="#575455" stroke-width="0"/><path d="M220.20653,208.36376c7.58228,-4.64238 17.29033,-16.96421 18.86418,-19.35554c1.13383,-1.72277 2.48396,-6.86927 2.48396,-6.86927l6.77865,7.73553c0,0 3.207,21.07254 2.77651,33.76697c-0.12047,3.55201 1.87712,7.78428 0.51471,9.08871c-1.2207,1.16872 -18.33545,1.29221 -23.58938,-0.14955c-11.05675,-3.03404 -17.15544,-1.00049 -20.20194,-6.70761c-3.04652,-5.70709 4.79116,-11.02764 4.79116,-11.02764c0,0 5.60821,-5.27304 7.58217,-6.48164z" fill="#504e4f" stroke-width="0"/><path d="M229.13046,176.41137c0,0 0.58169,-1.43065 1.51582,-1.98028c1.20139,-0.70689 5.09449,-1.90922 5.09449,-1.90922c0,0 9.02974,3.23694 11.70041,6.08813c2.4641,2.63057 -5.06807,12.03362 -5.06807,12.03362l-1.31139,-5.57232z" fill="#464445" stroke-width="0"/><path d="M246.197,226.20105c0,0 -10.00174,5.02964 -18.43953,4.12523c-8.13999,-0.87249 -14.73217,-7.65377 -14.44592,-9.05099c0.15508,-0.75703 8.43783,-3.03172 12.42094,-6.77888c4.42765,-4.16533 4.66521,-9.88282 6.25979,-11.70603c4.45163,-5.08993 14.11762,-14.11702 13.8305,-20.24636c-0.3011,-6.42798 -10.66973,-9.84242 -10.66973,-9.84242c0,0 4.10535,-1.74584 9.06733,-1.24329c2.11362,0.21406 6.44909,2.16467 7.3162,2.66347c2.84347,1.63562 4.61093,3.51079 4.61093,3.51079c0,0 4.24702,-4.37674 7.85934,-4.22752c3.61231,0.14922 21.91323,5.4572 21.91323,5.4572l-17.67491,10.43968z" fill="#555354" stroke-width="0"/><path d="M231.52385,203.33038c0,0 5.96053,-10.20008 11.34109,-14.99218c5.38057,-4.79209 9.82891,-7.43049 13.33284,-6.98313c2.53735,0.32393 4.70803,9.2864 4.70803,9.2864l-14.63108,27.13484c0,0 -14.91869,1.4011 -16.0699,-1.24668c-0.90922,-2.09122 1.31905,-13.19923 1.31905,-13.19923z" fill="#585758" stroke-width="0"/><path d="M250.44042,233.26673c0,0 -2.07096,-6.50571 -1.36458,-9.46227c0.98678,-4.1303 4.02156,-16.49949 4.02156,-16.49949l0.61935,10.59948c0,0 -1.86975,9.58791 -2.12182,12.61019c-0.24319,2.916 0.8938,5.24917 0.8938,5.24917z" fill="#3f3e3f" stroke-width="0"/><path d="M251.78171,215.42773c0.01823,-1.68607 1.25946,-9.30111 1.25946,-9.30111c0,0 11.32611,-13.24023 13.74263,-15.60633c0.70843,-0.69363 4.25629,-1.98568 4.25629,-1.98568l-2.24771,4.60635c0,0 -1.63766,0.39981 -1.87652,0.85105c-0.2545,0.48074 0.39341,1.95041 0.39341,1.95041l-6.16149,7.76233c0,0 -1.76532,0.7934 -2.00705,1.27201c-0.2418,0.47874 0.32782,1.44682 0.32782,1.44682c0,0 -4.95565,8.38116 -6.09714,10.66979c-0.5278,1.0582 -0.47606,2.50901 -0.47606,2.50901c0,0 -1.13188,-2.48856 -1.11362,-4.17463z" fill="#474647" stroke-width="0"/><path d="M241.41678,192.96586l19.84635,10.8359c0,0 -1.30756,0.85358 -1.6111,1.35824c-0.224,0.37239 -0.04509,1.39537 -0.04509,1.39537z" fill="#3f3e3e" stroke-width="NaN"/><path d="M248.67955,183.45608l20.34543,9.71357c0,0 -1.21284,0.6953 -1.49261,1.22045c-0.29162,0.54743 -0.06177,1.66476 -0.06177,1.66476z" fill="#3f3e3e" stroke-width="NaN"/><path d="M232.70766,210.32979c0,0 9.6321,8.98515 14.7059,15.65901c5.07378,6.67389 2.9959,7.62523 2.9959,7.62523z" fill="#636162" stroke-width="NaN"/><path d="M248.80735,189.14149c0,0 -6.32011,2.12075 -9.4394,4.84357c-3.11929,2.72281 -13.43556,17.72002 -13.06254,14.79821c0.37302,-2.92182 16.01322,-21.81437 17.7937,-21.58706c0.67401,0.08605 3.83047,-0.66252 4.61222,-0.3233c1.28339,0.55687 0.09603,2.26856 0.09603,2.26856z" fill="#918f91" stroke-width="0"/><path d="M194.92817,232.26743l14.06969,-0.10739c0,0 12.53655,1.26554 15.62836,1.81659c7.52943,1.34194 29.71232,6.26431 29.71232,6.26431l-1.24389,6.21358c0,0 -24.61635,0.45168 -31.28867,-1.72647c-1.93029,-0.63014 -7.62185,-1.97985 -11.67211,-3.86009c-7.92614,-3.67957 -15.20573,-8.60051 -15.20573,-8.60051z" fill="#626061" stroke-width="0"/><path d="M252.14234,245.97827c0,0 0.58375,-4.25295 0.43473,-6.63081c-0.16747,-2.67264 -1.39069,-8.62434 -1.39069,-8.62434l1.76799,0.22572c0,0 1.14093,4.63864 1.29255,7.05817c0.16576,2.64539 -0.33657,8.19699 -0.33657,8.19699z" fill="#4a494a" stroke-width="0"/><path d="M251.84275,246.78311l0.51776,-3.35865c0,0 0.52865,0.33436 0.79798,0.36872c0.32,0.04087 0.95527,-0.1449 0.95527,-0.1449l-0.22994,3.17301c0,0 -0.82193,0.30601 -1.19383,0.29902c-0.28498,-0.00531 -0.84721,-0.33723 -0.84721,-0.33723z" fill="#363536" stroke-width="0"/><path d="M251.32938,231.77501l-0.1775,-1.65645c0,0 0.4589,-0.29869 0.83191,-0.3108c0.35524,-0.01152 0.85789,0.17639 0.85789,0.17639l0.27768,1.78595c0,0 -0.54222,0.44232 -0.84886,0.44316c-0.28893,0.00078 -0.94112,-0.43827 -0.94112,-0.43827z" fill="#585758" stroke-width="0"/><path d="M210.68591,240.25089c0,0 -7.45765,-3.92889 -7.28503,-5.28094c0.17347,-1.3588 6.50871,-1.7303 6.50871,-1.7303c0,0 10.88626,1.1471 15.78148,1.94609c2.74054,0.44732 11.08952,2.43963 11.08952,2.43963c0,0 7.09961,1.96917 7.76228,3.21484c0.72283,1.35877 -3.47004,3.68817 -3.47004,3.68817c0,0 -12.78683,-0.31583 -16.69332,-1.02447c-1.38773,-0.25175 -13.69358,-3.25293 -13.69358,-3.25293z" fill="#6b696a" stroke-width="0"/><path d="M201.26047,232.09005l-1.97511,-0.01948c0,0 1.05632,-3.32769 3.59714,-1.75106c2.54078,1.57668 21.49011,2.97626 21.49011,2.97626z" fill="#4b4949" stroke-width="0"/><path d="M195.01876,232.1338c0,0 -2.00595,-0.06295 -2.07543,-3.74415c-0.03516,-1.8634 0.03617,-16.16162 0.03617,-16.16162l4.07303,-2.40263c0,0 -0.08276,6.03182 -0.24578,8.9368c-0.21685,3.8636 -0.87227,13.48848 -0.87227,13.48848z" fill="#3f3d3e" stroke-width="0"/><path d="M201.55871,232.2954c0,0 3.44028,-1.73644 19.41007,-0.03746c1.31883,0.14031 -1.77667,-0.25912 7.48313,1.43452c9.25981,1.6936 12.94499,3.68903 12.94499,3.68903c0,0 -14.80945,-2.96875 -20.96235,-3.75427c-7.01354,-0.8954 -18.87588,-1.33178 -18.87588,-1.33178z" fill="#838082" stroke-width="0"/><path d="M210.3213,203.54143c0,0 -4.61241,1.61632 -6.97458,2.94342c-2.65499,1.49162 -8.17962,5.57059 -8.17962,5.57059l-0.57532,-1.68806c0,0 4.22033,-3.34615 6.62384,-4.69653c2.62784,-1.47637 8.53036,-3.81751 8.53036,-3.81751z" fill="#4a494a" stroke-width="0"/><path d="M211.28043,203.40402l-3.74521,1.21605c0,0 0.17748,-0.62901 0.08982,-0.88615c-0.10414,-0.30553 -0.58358,-0.77809 -0.58358,-0.77809l3.34745,-1.38898c0,0 0.68744,0.57838 0.84987,0.91313c0.12449,0.25653 0.04159,0.92401 0.04159,0.92401z" fill="url(#color-3)" stroke-width="0"/><path d="M196.17684,211.3998l-3.27292,2.3341l0.13373,-2.1833l2.31812,-1.74268c0,0 0.69925,0.26076 0.83988,0.53348c0.13253,0.25695 -0.01885,1.05834 -0.01885,1.05834z" fill="url(#color-4)" stroke-width="0"/></g><path d="M328.23622,204.08922c0,0 1.47952,-4.26564 2.15471,-5.57982c0.45832,-0.89212 2.99391,-2.01168 2.99391,-2.01168l16.91003,1.93888c0,0 -2.0011,5.58931 -2.55213,6.89637c-0.2414,0.57257 -1.38649,1.12461 -1.38649,1.12461z" fill="#665b60" stroke-width="0"/><path d="M282.32545,179.82317c0,0 -3.56578,-2.03035 -8.30867,-3.79747c-3.01504,-1.12337 -7.1789,-2.22631 -9.03833,-2.35707c-5.40593,-0.38016 -8.55114,4.36463 -8.55114,4.36463c0,0 -2.95365,-2.71164 -4.93608,-3.82637c-1.85051,-1.04054 -6.0418,-2.58472 -6.0418,-2.58472c0,0 25.00648,-1.94007 28.9001,-2.0278c7.46439,-0.16822 33.8812,3.59896 33.8812,3.59896l4.36468,14.9589z" fill="#8b7c84" stroke-width="0"/><g stroke-width="0"><path d="M329.79857,203.33827c0,0 0.79651,-2.51564 1.3169,-3.35125c0.53955,-0.86642 2.83901,-1.63383 2.83901,-1.63383l14.41305,1.84006c0,0 0.25871,1.02398 -0.0682,1.72603c-0.44451,0.95451 -3.54661,3.32815 -3.54661,3.32815z" fill="#585852"/><path d="M329.89296,202.59892c0,0 0.70211,-1.77628 1.22253,-2.61189c0.53955,-0.86642 2.93339,-2.37318 2.93339,-2.37318l14.41305,1.84007c0,0 0.16435,1.76335 -0.16259,2.46538c-0.44451,0.95451 -3.45225,2.58874 -3.45225,2.58874z" fill="#797971"/><path d="M346.64914,199.72209c-1.01788,-0.30934 -12.51251,-2.05041 -12.51251,-2.05041l14.39331,1.83757l-0.31176,2.44203c0,0 -0.55116,-1.91981 -1.56903,-2.2292z" fill="#85857b"/></g><path d="M333.51911,185.4977l0.65723,-5.14798l7.07846,0.90368l0.62978,5.31228z" fill="#7c6e75" stroke-width="0"/><path d="M326.52526,157.96672l-3.11334,-8.59474l1.36823,0.1747l4.97604,9.28782z" fill="#d495b6" stroke-width="0"/><path d="M288.80182,145.45969l13.5039,-1.39073l21.30016,5.35306l2.94592,8.53403z" fill="#df9cbe" stroke-width="0"/><path d="M333.04331,190.50529l0.20539,-1.60874l10.77854,1.37609l0.75985,1.73198z" fill="#7c6e75" stroke-width="0"/><path d="M294.33721,173.31097c0,0 -18.13938,-1.1077 -23.79017,-1.32486c-8.55649,-0.3289 -25.78381,-0.18413 -25.78381,-0.18413c0,0 15.46511,-2.50228 29.05578,-2.29559c14.73575,0.2241 58.61521,4.35687 58.61521,4.35687l-0.68498,5.3655z" fill="#75686e" stroke-width="0"/><path d="M286.36379,181.1347l-3.14484,-0.97694c0,0 9.99377,-1.12788 15.19372,0.30497c5.19996,1.43283 13.75454,7.67173 13.75454,7.67173z" fill="#7c6e76" stroke-width="0"/><path d="M240.79211,171.25374c0,0 -30.14692,-19.3702 -30.44617,-24.06604c-0.27179,-4.26558 29.2843,6.10569 29.59339,6.03603c5.40811,-1.2188 77.626,0.72766 77.626,0.72766l25.5347,10.10441l52.40947,6.11494l5.53022,14.39165c0,0 -61.21151,-6.63638 -84.80706,-9.48441c-8.19065,-0.98863 -24.80541,-3.76275 -40.1305,-4.56972c-11.82128,-0.62246 -29.91184,1.41958 -29.91184,1.41958z" fill="#ee96c3" stroke-width="0"/><path d="M111.11174,167.34281l5.85246,-19.5704c0,0 0.79262,-7.0102 8.26926,-8.37029c9.28626,-1.68926 25.813,2.22027 27.86698,2.4825c1.5762,0.20124 -14.12284,8.69818 -14.12284,8.69818l-2.5523,19.99174z" fill="#c4b4b3" stroke-width="0"/><g stroke-width="0"><path d="M392.31859,184.84226l-0.91645,-15.3828l91.15329,18.45676l-1.48605,5.66436l-47.6618,-1.18834z" fill="#ad6d8e"/><path d="M420.26741,173.9578l8.26184,-7.28508l26.82877,1.27884l-5.58763,9.77285z" fill="#8d788b"/><path d="M394.85098,171.91123l2.05604,-16.10455l31.69141,10.87906l-5.41173,6.23388z" fill="#857183"/><path d="M437.34875,173.98897l17.94698,-6.04414l27.1397,7.26818l-1.15682,6.80226z" fill="#947e92"/><path d="M390.79255,170.77965l4.48702,-12.29673l1.82316,-2.85593l-1.90769,14.94256z" fill="#756474"/><path d="M393.99468,181.81574l0.81339,-12.06685l43.17388,3.84969l-3.24967,15.77251z" fill="#746373"/><path d="M434.72662,189.35478c0,0 1.1757,-6.20857 1.73302,-9.00466c0.47717,-2.39394 1.40789,-6.75352 1.40789,-6.75352l43.72903,6.49926l0.92011,8.58564z" fill="#867284"/><path d="M390.84159,170.71485l4.18904,-1.00853l-1.00713,12.12078z" fill="#6f5e6d"/><path d="M475.29182,174.19252l-19.23265,-5.84634l26.05157,6.99183l-0.8097,3.47087c0,0 -0.11232,-1.59635 -1.22166,-2.44859c-0.74208,-0.57008 -4.78758,-2.16779 -4.78758,-2.16779z" fill="#978195"/><path d="M435.77041,173.13249c0,0 8.34927,-2.42747 11.27659,-3.41882c2.13244,-0.72215 4.67087,-1.98189 4.67087,-1.98189l2.49918,0.43258l-15.81933,5.3035z" fill="#9c859a"/><path d="M421.403,172.1131c0,0 1.65435,-2.56343 3.16477,-3.73184c1.51038,-1.16842 3.90329,-1.68477 3.90329,-1.68477l-4.62631,5.72831z" fill="#806b7d"/><path d="M457.08118,166.41289l2.84222,-5.41702l14.60484,5.62822l4.74444,7.05764z" fill="#55494f"/><path d="M454.21362,168.86959c0,0 1.1738,-0.64676 1.8037,-1.15584c0.4745,-0.38347 1.33228,-1.66978 1.33228,-1.66978l21.62752,6.79359c0,0 0.79794,0.60287 1.33817,1.00017c0.56461,0.41519 1.97954,1.43965 1.97954,1.43965z" fill="#685960"/><path d="M457.75081,165.59893l2.22585,-4.33842l13.61115,5.09154c0,0 -7.74813,-2.53433 -12.22541,-2.8492c-2.59706,-0.18264 -3.61159,2.09607 -3.61159,2.09607z" fill="#41383c"/></g><path d="M117.71233,128.58656l0.65957,-5.1664c0,0 22.32069,1.54408 44.09483,4.38135c12.97541,1.69076 26.23368,4.99404 33.14355,5.52328c15.58026,1.19323 26.53623,-1.95687 26.53623,-1.95687l-7.63738,9.75447z" fill="#ffa1d1" stroke-width="0"/><path d="M113.38758,142.10529l4.17964,-15.67953c0,0 54.09415,8.98332 71.85346,10.80638c10.51987,1.07991 24.88342,-0.87603 24.88342,-0.87603l-1.85434,14.52447c0,0 -66.95756,-8.54832 -83.09892,-10.60908c-6.63672,-0.8473 -19.36788,28.50163 -19.36788,28.50163z" fill="#ee96c3" stroke-width="0"/><path d="M281.46712,240.67665l10.9271,-12.31119c0,0 11.84695,-14.4735 22.04069,-20.09053c2.5904,-1.42737 7.86984,-1.9596 7.86984,-1.9596c0,0 -7.8764,4.02002 -10.80382,6.46037c-6.9133,5.76305 -30.03373,27.90094 -30.03373,27.90094z" fill="#70646b" stroke-width="0"/><path d="M384.91399,188.51657l-3.97016,-18.65478l1.33924,0.17097c0,0 1.20237,5.64962 1.83768,8.63491c0.09053,0.42534 1.28988,1.80946 1.40198,2.33632c0.19438,0.9133 -0.68195,1.04691 -0.46473,2.06768c0.60492,2.84236 1.19518,5.61583 1.19518,5.61583z" fill="#795467" stroke-width="0"/><path d="M213.02234,151.38896c0,0 -9.56786,-7.827 -8.4159,-11.4855c0.68972,-2.19053 18.40376,-7.94568 18.40376,-7.94568l67.73863,10.33375l-2.0156,2.86394l28.74676,8.96105l-74.58341,17.26898c0,0 -0.07406,-5.66884 3.86118,-8.04778c3.82465,-2.31209 19.42788,-6.03102 19.42788,-6.03102c0,0 -33.93568,-4.38188 -41.15695,-5.3912c-2.40918,-0.33674 -12.00643,-0.52654 -12.00643,-0.52654z" fill="#f399c8" stroke-width="0"/><g><path d="M220.9841,133.6389l0.41012,-3.21227l175.13217,22.35878l-0.41012,3.21227z" fill="#584f54" stroke-width="0"/><path d="M390.74529,152.29755l0.34652,-2.71431l3.03067,0.38692l2.32756,3.05571z" fill="#685d63" stroke-width="0"/><g fill="#685d63" stroke-width="0"><g><g><g><path d="M384.10729,151.70131l0.37703,-2.95305l3.84987,0.49148l-0.37703,2.95305z"/><path d="M377.86047,150.9038l0.37703,-2.95305l3.84987,0.49149l-0.37703,2.95305z"/></g><g><path d="M371.84937,150.1364l0.37703,-2.95306l3.84987,0.49149l-0.37703,2.95305z"/><path d="M365.6025,149.33886l0.37703,-2.95305l3.84986,0.49149l-0.37703,2.95306z"/></g></g><g><g><path d="M359.47353,148.55636l0.37703,-2.95306l3.84986,0.49149l-0.37703,2.95305z"/><path d="M353.22667,147.75886l0.37703,-2.95305l3.84987,0.49148l-0.37703,2.95306z"/></g><g><path d="M347.21562,146.99143l0.37703,-2.95305l3.84986,0.49149l-0.37703,2.95305z"/><path d="M340.96882,146.19389l0.37703,-2.95305l3.84986,0.49148l-0.37703,2.95306z"/></g></g></g><g><g><g><path d="M340.7331,146.16385l0.37703,-2.95305l3.84986,0.49149l-0.37703,2.95305z"/><path d="M334.48631,145.36632l0.37703,-2.95305l3.84987,0.49149l-0.37703,2.95305z"/></g><g><path d="M328.47517,144.59889l0.37703,-2.95306l3.84986,0.49149l-0.37703,2.95305z"/><path d="M322.22836,143.80135l0.37703,-2.95305l3.84986,0.49148l-0.37703,2.95306z"/></g></g><g><g><path d="M316.09942,143.01889l0.37703,-2.95306l3.84987,0.49149l-0.37703,2.95305z"/><path d="M309.85258,142.22139l0.37703,-2.95305l3.84987,0.49149l-0.37703,2.95306z"/></g><g><path d="M303.84146,141.45397l0.37703,-2.95305l3.84987,0.49148l-0.37703,2.95306z"/><path d="M297.59464,140.65641l0.37703,-2.95305l3.84987,0.49149l-0.37703,2.95305z"/></g></g></g></g><g><g fill="#685d63" stroke-width="0"><g><g><path d="M291.42559,139.86885l0.37703,-2.95306l3.84987,0.49149l-0.37703,2.95305z"/><path d="M285.17875,139.07128l0.37703,-2.95305l3.84987,0.49149l-0.37703,2.95306z"/></g><g><path d="M279.16766,138.30393l0.37703,-2.95305l3.84987,0.49149l-0.37703,2.95306z"/><path d="M272.92088,137.50636l0.37703,-2.95305l3.84987,0.49148l-0.37703,2.95306z"/></g></g><g><g><path d="M266.7919,136.72392l0.37703,-2.95306l3.84987,0.49149l-0.37703,2.95305z"/><path d="M260.54506,135.92633l0.37703,-2.95305l3.84987,0.49149l-0.37703,2.95306z"/></g><g><path d="M254.53393,135.15893l0.37703,-2.95305l3.84987,0.49149l-0.37703,2.95306z"/><path d="M248.2871,134.36146l0.37703,-2.95305l3.84987,0.49148l-0.37703,2.95305z"/></g></g></g><g><g fill="#685d63" stroke-width="0"><g><path d="M248.0514,134.33135l0.37703,-2.95306l3.84987,0.49149l-0.37703,2.95305z"/><path d="M241.80455,133.5338l0.37703,-2.95305l3.84987,0.49148l-0.37703,2.95306z"/></g><g><path d="M235.79347,132.7664l0.37703,-2.95305l3.84987,0.49148l-0.37703,2.95306z"/><path d="M229.54666,131.96881l0.37703,-2.95305l3.84987,0.49148l-0.37703,2.95305z"/></g></g><g fill="none" stroke-width="1" font-family="sans-serif" font-weight="normal" font-size="12" text-anchor="start"><g/><g/></g></g></g><path d="M221.43373,130.68193l3.02062,-2.37288l3.03067,0.38692l-0.34652,2.71431z" data-paper-data="{&quot;index&quot;:null}" fill="#685d63" stroke-width="0"/></g><path d="M273.72181,170.51077l-2.56552,-0.0553c0,0 1.99056,-2.33425 11.65126,-2.23773c7.32425,0.07319 27.88806,1.3764 40.19373,2.19564c5.71444,0.38041 62.90133,-1.39365 62.90133,-1.39365l5.15877,0.64417c0,0 -62.56685,2.74334 -68.27414,2.3404c-12.62039,-0.891 -33.84519,-2.35348 -40.0176,-2.5583c-3.36,-0.11151 -9.04778,1.06478 -9.04778,1.06478z" fill="#70475c" stroke-width="0"/><path d="M371.4101,202.16455l-5.11792,1.20739l2.39816,-18.77886c0,0 7.72259,1.03473 15.27514,2.04666c21.68113,2.90495 125.8821,16.86641 125.8821,16.86641l-0.85195,6.6731z" fill="#5a5959" stroke-width="0"/><path d="M370.29616,203.66394l1.4628,-2.84368l137.26262,9.25192l-13.15068,9.62366z" fill="#4b4a4a" stroke-width="0"/><path d="M492.63551,219.09216c0,0 -5.45033,-3.94675 -8.27751,-5.74737c-1.51515,-0.96498 -7.36711,-4.21656 -7.36711,-4.21656c0,0 7.56929,3.89367 10.76691,5.25756c1.14118,0.48676 2.16168,1.36586 3.38831,2.05489c0.39553,0.22216 2.55371,-2.28386 4.65444,-3.74393c0.62792,-0.43642 1.73264,0.07213 2.29568,-0.18946c1.29076,-0.5997 1.78511,-1.63686 1.78511,-1.63686c0,0 0.21702,0.96481 -1.14582,2.01445c-0.37182,0.28641 -2.20487,0.40757 -2.57334,0.72379c-1.47668,1.2675 -2.67294,2.7268 -3.05048,3.27463c-1.05358,1.5287 0.97534,2.39423 0.97534,2.39423z" fill="#414040" stroke-width="0"/><path d="M212.93611,151.67777l5.19005,-10.52625l7.02876,0.26798c0,0 -1.27835,2.50648 -2.03175,3.98372c-0.18975,0.37206 11.75711,-0.07474 12.02131,0.63547c0.49018,1.31766 -5.51318,4.34163 -5.987,5.27066c-0.5417,1.06208 -9.22621,0.3524 -9.22621,0.3524z" fill="#303030" stroke-width="0"/><path d="M212.84058,151.29252l4.98064,-9.71112c0,0 2.81082,1.67403 2.68606,2.65107c-0.22697,1.77777 -2.52616,7.31836 -2.52616,7.31836z" fill="#252525" stroke-width="0"/><path d="M365.93791,206.00397l0.37389,-2.92862l5.8532,-2.22911l-1.60202,2.77181c0,0 -1.25071,1.18643 -2.06412,1.60603c-0.71575,0.36924 -2.56093,0.77981 -2.56093,0.77981z" fill="#383838" stroke-width="0"/><g><g fill="#4b4b4b" stroke-width="0"><g data-paper-data="{&quot;origPos&quot;:null}"><g data-paper-data="{&quot;origPos&quot;:null}"><path d="M432.36496,215.86671l0.28783,-2.25446l3.71982,0.47488l-0.28783,2.25446z" data-paper-data="{&quot;origPos&quot;:null}"/><path d="M426.17965,214.96249l0.28783,-2.25446l3.71981,0.47488l-0.28783,2.25445z" data-paper-data="{&quot;origPos&quot;:null}"/></g><g data-paper-data="{&quot;origPos&quot;:null}"><path d="M444.74994,217.56243l0.28783,-2.25446l3.71982,0.47488l-0.28783,2.25445z" data-paper-data="{&quot;origPos&quot;:null}"/><path d="M438.56463,216.6582l0.28783,-2.25445l3.71981,0.47488l-0.28783,2.25446z" data-paper-data="{&quot;origPos&quot;:null}"/></g></g><g data-paper-data="{&quot;origPos&quot;:null,&quot;index&quot;:null}"><g data-paper-data="{&quot;origPos&quot;:null}"><path d="M463.82864,219.76909l0.28783,-2.25446l3.71982,0.47488l-0.28783,2.25445z" data-paper-data="{&quot;origPos&quot;:null}"/><path d="M470.0427,220.4478l0.28782,-2.25445l3.71982,0.47488l-0.28783,2.25444z" data-paper-data="{&quot;origPos&quot;:null}"/></g><g data-paper-data="{&quot;origPos&quot;:null}"><path d="M451.41489,218.29877l0.28783,-2.25446l3.71981,0.47488l-0.28782,2.25445z" data-paper-data="{&quot;origPos&quot;:null}"/><path d="M457.62896,218.97756l0.28783,-2.25445l3.71982,0.47488l-0.28783,2.25445z" data-paper-data="{&quot;origPos&quot;:null}"/></g></g></g><path d="M391.03135,202.27766l1.7237,-13.50154l83.79389,10.69781l-1.7237,13.50154z" data-paper-data="{&quot;origPos&quot;:null}" fill="#444444" stroke-width="0"/><path d="M390.53104,206.97436l0.60565,-4.74394l83.54762,10.66635l-0.60565,4.74395z" data-paper-data="{&quot;origPos&quot;:null}" fill="#414141" stroke-width="0"/><path d="M390.3852,208.39154l0.20486,-1.60461l83.53697,10.665l-0.20485,1.6046z" data-paper-data="{&quot;origPos&quot;:null}" fill="#3f3f3f" stroke-width="0"/><g stroke-width="0"><g data-paper-data="{&quot;origPos&quot;:null}" fill="#5a5a5a"><g data-paper-data="{&quot;origPos&quot;:null}"><path d="M433.94456,207.83635l1.7413,-13.63929l3.54266,0.45228l-1.7413,13.63929z" data-paper-data="{&quot;origPos&quot;:null}"/></g><g data-paper-data="{&quot;origPos&quot;:null}"><path d="M439.96711,208.60524l1.7413,-13.63929l3.54267,0.45228l-1.7413,13.63929z" data-paper-data="{&quot;origPos&quot;:null}"/><path d="M446.16679,209.39672l1.74131,-13.6393l3.54266,0.45228l-1.7413,13.63929z" data-paper-data="{&quot;origPos&quot;:null}"/></g></g><g data-paper-data="{&quot;origPos&quot;:null}" fill="#5a5a5a"><g data-paper-data="{&quot;origPos&quot;:null}"><path d="M452.72074,210.23347l1.7413,-13.63929l3.54266,0.45228l-1.7413,13.6393z" data-paper-data="{&quot;origPos&quot;:null}"/><path d="M458.9204,211.02494l1.7413,-13.63929l3.54267,0.45228l-1.74131,13.6393z" data-paper-data="{&quot;origPos&quot;:null}"/></g><g data-paper-data="{&quot;origPos&quot;:null}"><path d="M464.94297,211.79384l1.74131,-13.6393l3.54266,0.45228l-1.74131,13.6393z" data-paper-data="{&quot;origPos&quot;:null}"/><path d="M471.14264,212.58532l1.74131,-13.6393l3.54266,0.45228l-1.7413,13.63929z" data-paper-data="{&quot;origPos&quot;:null}"/></g></g><path d="M437.54808,208.29639l-1.11627,1.80418l-5.20462,-0.62103l1.1024,-9.73526l3.29787,-5.55476l-1.67289,13.64804z" fill="#3a3a3a"/><path d="M443.56822,209.06497l-1.11627,1.80419l-5.20463,-0.62104l1.10241,-9.73526l3.29787,-5.55475l-1.67289,13.64803z" fill="#3a3a3a"/><path d="M449.72511,209.85101l-1.11627,1.80419l-5.20463,-0.62103l1.1024,-9.73526l3.29787,-5.55475l-1.67289,13.64804z" fill="#3a3a3a"/><path d="M456.36091,210.69818l-1.11627,1.80419l-5.20463,-0.62103l1.1024,-9.73526l3.29787,-5.55475l-1.67289,13.64804z" fill="#3a3a3a"/><path d="M462.58625,211.49302l-1.11627,1.80419l-5.20463,-0.62103l1.1024,-9.73526l3.29787,-5.55475l-1.67289,13.64803z" fill="#3a3a3a"/><path d="M468.53792,212.25279l-1.11627,1.80418l-5.20462,-0.62103l1.1024,-9.73526l3.29787,-5.55475l-1.67289,13.64804z" fill="#3a3a3a"/><path d="M474.77111,213.04857l-1.11627,1.80418l-5.20463,-0.62103l1.10241,-9.73526l3.29787,-5.55476l-1.67289,13.64804z" fill="#3a3a3a"/></g><g stroke-width="0"><g data-paper-data="{&quot;origPos&quot;:null}" fill="#5a5a5a"><g data-paper-data="{&quot;origPos&quot;:null}"><path d="M391.06356,202.36184l1.74131,-13.6393l3.54267,0.45228l-1.7413,13.63929z" data-paper-data="{&quot;origPos&quot;:null}"/></g><g data-paper-data="{&quot;origPos&quot;:null}"><path d="M397.08609,203.13072l1.7413,-13.63929l3.54266,0.45228l-1.7413,13.63929z" data-paper-data="{&quot;origPos&quot;:null}"/><path d="M403.28575,203.92221l1.7413,-13.63929l3.54267,0.45228l-1.74131,13.6393z" data-paper-data="{&quot;origPos&quot;:null}"/></g></g><g data-paper-data="{&quot;origPos&quot;:null}" fill="#5a5a5a"><g data-paper-data="{&quot;origPos&quot;:null}"><path d="M409.8397,204.75895l1.74131,-13.6393l3.54267,0.45229l-1.7413,13.63929z" data-paper-data="{&quot;origPos&quot;:null}"/><path d="M416.03946,205.55044l1.7413,-13.63929l3.54267,0.45228l-1.74131,13.6393z" data-paper-data="{&quot;origPos&quot;:null}"/></g><g data-paper-data="{&quot;origPos&quot;:null}"><path d="M422.06201,206.31933l1.7413,-13.63929l3.54267,0.45228l-1.74131,13.6393z" data-paper-data="{&quot;origPos&quot;:null}"/><path d="M428.26169,207.11085l1.74131,-13.6393l3.54267,0.45228l-1.7413,13.6393z" data-paper-data="{&quot;origPos&quot;:null}"/></g></g><path d="M394.66703,202.82188l-1.11627,1.80419l-2.71325,-0.30294l0.23603,-1.96004z" fill="#3a3a3a"/><path d="M400.68718,203.59048l-1.11627,1.80419l-5.20463,-0.62103l1.10241,-9.73526l3.29787,-5.55475l-1.67289,13.64804z" fill="#3a3a3a"/><path d="M406.84405,204.37649l-1.11627,1.80418l-5.20463,-0.62103l1.1024,-9.73525l3.29787,-5.55476l-1.67289,13.64804z" fill="#3a3a3a"/><path d="M413.47987,205.22365l-1.11627,1.80418l-5.20463,-0.62103l1.10241,-9.73526l3.29787,-5.55475l-1.67289,13.64804z" fill="#3a3a3a"/><path d="M419.70527,206.01849l-1.11627,1.80418l-5.20462,-0.62103l1.1024,-9.73526l3.29787,-5.55475l-1.67289,13.64804z" fill="#3a3a3a"/><path d="M425.65694,206.77826l-1.11627,1.80418l-5.20462,-0.62103l1.1024,-9.73526l3.29787,-5.55476l-1.67289,13.64804z" fill="#3a3a3a"/><path d="M431.89015,207.57408l-1.11627,1.80419l-5.20462,-0.62103l1.1024,-9.73526l3.29787,-5.55475l-1.67289,13.64804z" fill="#3a3a3a"/></g><g><g data-paper-data="{&quot;origPos&quot;:null}"><g data-paper-data="{&quot;origPos&quot;:null}" fill="none" stroke-width="1" font-family="sans-serif" font-weight="normal" font-size="12" text-anchor="start"/><g data-paper-data="{&quot;origPos&quot;:null}" fill="#4b4b4b" stroke-width="0"><path d="M396.39678,211.46683l0.28783,-2.25446l3.71981,0.47488l-0.28782,2.25445z" data-paper-data="{&quot;origPos&quot;:null}"/><path d="M390.21148,210.5626l0.28783,-2.25446l3.71981,0.47488l-0.28783,2.25446z" data-paper-data="{&quot;origPos&quot;:null}"/></g></g><g data-paper-data="{&quot;origPos&quot;:null,&quot;index&quot;:null}" fill="#4b4b4b" stroke-width="0"><g data-paper-data="{&quot;origPos&quot;:null}"><path d="M415.47555,213.67341l0.28783,-2.25445l3.71982,0.47488l-0.28783,2.25445z" data-paper-data="{&quot;origPos&quot;:null}"/><path d="M421.68959,214.35219l0.28783,-2.25444l3.71982,0.47488l-0.28783,2.25445z" data-paper-data="{&quot;origPos&quot;:null}"/></g><g data-paper-data="{&quot;origPos&quot;:null}"><path d="M403.0617,212.20318l0.28783,-2.25446l3.71982,0.47488l-0.28783,2.25445z" data-paper-data="{&quot;origPos&quot;:null}"/><path d="M409.27578,212.88187l0.28783,-2.25446l3.71982,0.47488l-0.28783,2.25446z" data-paper-data="{&quot;origPos&quot;:null}"/></g></g></g></g><path d="M225.7159,151.70247l1.56507,-4.04951c0,0 4.97254,-2.53819 8.49424,-2.23982c4.02599,0.34111 33.75046,4.16113 33.75046,4.16113c0,0 0.41914,1.94448 0.21249,3.14518c-0.26624,1.54695 -2.75339,4.31891 -2.75339,4.31891z" fill="#242424" stroke-width="0"/><path d="M250.88389,151.07461l0.39896,-3.12496l17.85685,2.27974l-0.39896,3.12496z" fill="#313131" stroke-width="0"/><path d="M247.37213,152.57259l0.0826,-0.64699c0,0 1.19237,-0.90747 2.20722,-0.7779c0.96367,0.12305 3.0739,0.87123 5.48537,1.34379c4.59382,0.90022 10.16403,1.71385 10.16403,1.71385l-0.0826,0.64699c0,0 -5.3843,-0.68945 -9.91357,-1.58088c-2.47138,-0.48639 -4.64924,-1.33804 -5.64891,-1.46568c-1.05075,-0.13415 -2.29409,0.76682 -2.29409,0.76682z" fill="#616161" stroke-width="0"/><path d="M276.27645,140.42429l12.20779,4.60971l29.92988,9.17226c0,0 0.69885,0.31522 -7.24232,-1.43275c-2.70145,-0.59463 -13.05037,-3.53795 -21.95794,-6.59343c-2.41027,-0.82677 -15.20126,-5.92851 -15.20126,-5.92851z" fill="#df8cb7" stroke-width="0"/><path d="M95.84464,123.77669l0.75136,-5.88535c0,0 5.94562,-1.00812 9.7188,-0.52639c3.08898,0.39435 11.05918,4.94629 11.05918,4.94629l-1.68772,12.15486z" fill="#626061" stroke-width="0"/><path d="M209.70521,148.3798l3.44835,2.96658l12.3161,0.23846l50.33639,6.42637l-0.13814,1.08226c0,0 -37.74134,-4.96478 -49.58214,-6.21213c-3.25088,-0.34246 -12.96348,-0.85573 -12.96348,-0.85573z" fill="#ffa6d4" stroke-width="0"/><path d="M84.88932,186.82724l0.90797,-7.11187l25.34513,-13.52944l-3.32537,13.3553l-15.04287,8.29268z" fill="#3f3d3e" stroke-width="0"/><path d="M83.91316,181.6014c0,0 2.67479,-19.46987 4.68763,-28.87398c2.27181,-10.61403 8.26045,-31.62089 8.26045,-31.62089c0,0 8.56919,0.90312 11.91398,2.98932c2.86268,1.78547 6.9345,8.76673 6.9345,8.76673l-4.24898,33.28143c0,0 -13.49607,12.0863 -16.80252,13.94162c-5.08591,2.85381 -10.74503,1.51579 -10.74503,1.51579z" fill="#555354" stroke-width="0"/><path d="M95.36946,131.60056c0,0 -0.76881,-6.1397 1.62227,-8.55355c2.39109,-2.41385 6.83443,-2.87175 9.37408,-2.54753c2.02596,0.25865 6.20863,0.87201 8.49426,5.65852c2.28567,4.78649 -0.46322,11.15975 -0.46322,11.15975c0,0 -4.93159,-11.11774 -7.41347,-11.86347c-3.50222,-1.05229 -11.61396,6.14632 -11.61396,6.14632z" fill="#6f6b6c" stroke-width="0"/><path d="M81.85485,186.24999c0,0 5.00129,-25.63556 6.45056,-36.98722c1.5093,-11.82186 3.92045,-32.40059 3.92045,-32.40059c0,0 1.22832,-0.49135 2.26078,-0.35955c0.94405,0.1205 2.41686,0.95675 2.41686,0.95675c0,0 -2.63844,18.97391 -3.99282,29.58259c-1.57358,12.32542 -7.65374,39.64234 -7.65374,39.64234z" fill="#333232" stroke-width="0"/><path d="M81.37135,186.63553l2.94802,-14.45127c0,0 0.93414,1.01537 1.53363,1.05293c0.75698,0.0474 2.60253,-1.16615 2.60253,-1.16615l-3.14702,15.06712z" fill="#2e2d2d" stroke-width="0"/><path d="M111.51802,153.93012c-1.03398,8.09889 -6.22268,16.17475 -10.92352,18.52577c-3.90417,1.95261 -12.19828,7.70646 -11.16431,-0.39239c0.21935,-1.71815 3.75138,-13.24299 4.76905,-20.19996c1.34583,-9.20047 0.34414,-14.34968 1.65282,-17.0372c2.36641,-4.85946 8.03255,-5.62756 10.22921,-5.34711c4.33011,0.55282 6.47072,16.35205 5.43675,24.45094z" fill="#585758" stroke-width="0"/><path d="M143.91886,172.26397l-0.36735,-1.80177c0,0 8.04681,-0.33417 14.07767,-0.05231c8.49004,0.39679 32.05776,2.20857 32.05776,2.20857l1.6192,1.49832c0,0 -25.11367,-1.57269 -33.85448,-1.91442c-2.56706,-0.10036 -13.53278,0.06165 -13.53278,0.06165z" fill="#585657" stroke-width="0"/><path d="M136.40421,184.61225l6.88187,-12.92392l7.30439,-0.02583c0,0 -2.27037,4.05865 -2.28037,4.81865c-0.04795,3.6315 -0.11036,27.7851 -0.11036,27.7851c0,0 -1.52133,0.24976 -2.46363,-1.7613c-1.69074,-3.60847 -2.64245,-10.64769 -4.11419,-12.95529c-1.27157,-1.99377 -5.21768,-4.93739 -5.21768,-4.93739z" fill="#5a5759" stroke-width="0"/><path d="M152.73379,155.64295l4.30089,-10.87621l2.32862,0.18527l-5.43121,10.95593z" fill="#a5a0a2" stroke-width="0"/><path d="M159.60603,155.42802l0.17764,-1.39147l26.2829,3.35549l-0.17763,1.39147z" fill="#494748" stroke-width="0"/><path d="M159.90236,152.47042l0.17764,-1.39147l26.2829,3.35549l-0.17764,1.39147z" fill="#494748" stroke-width="0"/><path d="M137.78769,172.23672l2.55033,-19.97621l13.36657,-7.98781l4.84504,0.30426l-21.56662,40.40766l-5.31236,-2.69783z" fill="#dbd5d8" stroke-width="0"/><path d="M109.99365,180.69944l1.33656,-11.71588l26.53987,2.59241c0,0 0.00624,2.55914 -0.22405,3.33471c-0.57395,1.93335 -3.44367,8.56111 -3.44367,8.56111z" fill="#ccc6c9" stroke-width="0"/><path d="M115.19546,169.88067l0.03998,-0.31325l22.74328,2.02809l-2.73442,0.84481c0,0 -4.31041,-0.36258 -6.9933,-0.73711c-3.67358,-0.51282 -13.05556,-1.82252 -13.05556,-1.82252z" fill="#d8d1d5" stroke-width="0"/><path d="M119.15584,166.61915l2.15288,-16.86312l15.99518,2.04208l-2.15288,16.86312z" fill="#a39999" stroke-width="0"/><path d="M109.69783,180.83277l1.43853,-11.26785c0,0 7.95692,7.45435 11.91265,10.31897c3.95575,2.86462 10.44008,3.41019 10.44008,3.41019z" fill="#b4afb1" stroke-width="0"/><path d="M142.30492,191.08736c0,0 2.87332,1.41578 3.97883,1.41202c0.67911,-0.00233 2.02332,-1.43254 2.02332,-1.43254l0.49615,9.21019l-0.53126,4.16133c0,0 -1.96683,0.06285 -2.90854,-2.66091c-0.77698,-2.24733 -3.05848,-10.69005 -3.05848,-10.69005z" fill="#504e4f" stroke-width="0"/><path d="M136.63579,185.20271l19.63151,-39.57608l1.70359,0.4243l-19.58173,39.99602z" fill="#858183" stroke-width="0"/><path d="M125.0965,142.64268l1.71157,-1.44538c0,0 27.27642,2.83319 39.58679,4.40485c10.68457,1.36409 31.64305,4.39566 31.64305,4.39566l0.27937,1.99281c0,0 -21.03642,-3.39738 -32.29861,-4.8352c-12.86,-1.64179 -40.92218,-4.51274 -40.92218,-4.51274z" fill="#918b8e" stroke-width="0"/><path d="M126.26238,141.55077l2.25343,-1.66947c0,0 25.72458,2.92838 38.03494,4.49999c10.68456,1.36409 31.64305,4.39566 31.64305,4.39566l0.27936,1.99281c0,0 -21.03641,-3.39738 -32.29861,-4.83521c-12.86,-1.64179 -39.91217,-4.38382 -39.91217,-4.38382z" fill="#a59fa2" stroke-width="0"/><path d="M187.71854,170.35155l-1.19037,-5.88072c0,0 0.36253,-1.16853 0.7071,-1.23826c0.30359,-0.06145 1.25307,0.84145 1.25307,0.84145l1.19036,5.88072c0,0 -0.38507,0.8356 -0.68937,0.89717c-0.34421,0.06968 -1.27089,-0.50041 -1.27089,-0.50041z" fill="#494242" stroke-width="0"/><path d="M147.43276,167.87847l4.7156,-8.96066l3.85443,0.49208l-4.7156,8.96066z" fill="#9c989a" stroke-width="0"/><path d="M159.17417,151.45702l1.95841,-0.72577l24.23978,3.11286l1.88151,1.19785z" fill="#757274" stroke-width="0"/><path d="M158.9117,154.25761l1.95841,-0.72578l24.23977,3.11287l1.88152,1.19783z" fill="#757274" stroke-width="0"/><path d="M107.42113,179.55117l9.05831,-57.47332l1.83129,0.81923l-8.56798,57.9403z" fill="#686666" stroke-width="0"/><path d="M107.22484,179.79861l2.70795,-16.04196l1.78906,4.07785l-2.11844,13.14764z" fill="#535252" stroke-width="0"/><path d="M140.62002,161.00174c0,0 2.40398,-2.05759 2.52387,-2.99677c0.11768,-0.92163 -1.81106,-2.58662 -1.81106,-2.58662c0,0 2.89306,1.04448 2.57589,2.70601c-0.2416,1.26557 -1.56094,3.30391 -1.78721,4.38634c-0.64341,3.07775 -2.25695,10.27874 -2.25695,10.27874z" fill="#c4bec1" stroke-width="0"/><path d="M148.47629,160.07756l3.18737,-9.87127l3.07975,-3.99643l-3.8441,9.14501z" fill="#aca7a9" stroke-width="0"/></g></g><g stroke-width="0"><path d="M269.109,147.42218l2.956,-2.97882c0,0 1.97478,-1.19585 2.7583,-0.81861c0.89331,0.43012 2.31542,3.26157 2.31542,3.26157l-1.05451,3.98046c0,0 -4.24581,-0.54967 -5.48502,-0.84224c-0.55864,-0.13191 -1.49013,-2.60232 -1.49013,-2.60232z" fill="#c0c0c0"/><path d="M225.31349,151.56032c0,0 0.18968,-2.87916 1.3845,-3.87471c1.49737,-1.24764 7.80851,-2.67208 7.80851,-2.67208l-1.30478,4.60897l-0.36993,2.8977z" fill="#838383"/><path d="M225.15213,151.46477l8.98692,-6.39468l37.2599,4.75689l-0.94743,7.42105z" fill="#999999"/><path d="M226.22621,150.94012l6.84982,-5.01403l33.5004,4.27693l-0.7397,5.79409c0,0 -4.05467,-0.51766 -9.27055,-1.18352c-3.39116,-0.43294 -7.13863,-1.98201 -10.71625,-2.43875c-3.83791,-0.49 -7.46007,0.11823 -9.61574,-0.15697c-4.21892,-0.53862 -10.00798,-1.27771 -10.00798,-1.27771z" fill="#2e2e2e"/><path d="M229.6906,151.38022l9.04909,-4.79593l12.36375,1.57845c0,0 -7.55824,0.9579 -10.02507,1.56493c-2.61884,0.64441 -6.07243,2.33114 -6.07243,2.33114z" fill="#a5899d"/><path d="M237.62968,152.28011c0,0 5.16729,-0.32032 7.60462,-0.00912c3.11429,0.39759 9.55296,2.19961 9.55296,2.19961l-9.53386,-1.55507z" fill="#adadad"/><path d="M225.25813,151.45997l8.11578,-5.77032l34.68514,4.42822l-0.0872,0.68303c0,0 -30.03304,-3.83424 -33.94786,-4.33407c-0.81883,-0.10453 -8.76581,4.99317 -8.76581,4.99317z" fill="#8a8a8a"/><path d="M271.25598,163.61884l1.23544,-9.67679l1.55756,-7.0615c0,0 1.1181,0.61645 1.5962,1.24558c0.47808,0.62911 0.71563,1.79641 0.71563,1.79641l-3.108,13.95126z" fill="#9e9e9e"/><path d="M266.38405,158.73178c0,0 -0.63533,-2.22327 -0.56967,-3.81693c0.08838,-2.14602 1.63587,-7.51144 1.63587,-7.51144l1.96699,-0.07687c0,0 0.65249,0.88149 1.14541,0.79409c0.67959,-0.12054 2.5551,-1.45046 2.5551,-1.45046l-2.12177,12.65046z" fill="#9c9c9c"/><path d="M266.72154,160.62036c-0.63622,-1.19462 -0.22384,-2.52625 -0.22384,-2.52625l5.75028,-6.52469c0,0 0.89057,4.029 0.7745,4.93808c-0.32997,2.58457 0.06693,7.42349 0.06693,7.42349c0,0 -2.96671,-0.29435 -3.94165,-0.861c-1.16934,-0.67963 -1.78992,-1.25501 -2.42618,-2.44966z" fill="#888888"/><path d="M268.58599,160.07783c-0.72706,-2.10879 -1.16424,-6.66391 1.17987,-10.4644c2.34413,-3.80053 4.46913,-1.38074 4.46913,-1.38074c0,0 0.43827,4.51481 0.14537,6.80907c-0.2668,2.08987 -1.83178,6.4005 -1.83178,6.4005c0,0 -3.2355,0.74436 -3.96253,-1.36444z" fill="#b4b4b4"/><path d="M273.6888,152.97158c-0.17869,1.39972 -5.25732,0.82937 -5.07864,-0.57032c0.17869,-1.39972 3.89696,-6.37105 4.70284,-6.26813c0.31212,0.03985 0.93789,0.22241 0.99846,1.29945c0.09582,1.70391 -0.51319,4.68141 -0.62269,5.53904z" fill="#bbbbbb"/></g><g stroke-width="0"><path d="M209.61156,148.35256c0,0 -5.18667,-5.61941 -4.94943,-7.47773c0.19368,-1.51733 6.19693,-0.87503 6.19693,-0.87503l7.47544,1.0268l-5.35679,10.18258z" fill="#f399c8"/><path d="M179.1233,146.11519c0,0 -0.6966,-2.20381 -0.30558,-3.2353c0.43154,-1.13834 2.93177,-4.45331 2.93177,-4.45331l22.87618,2.73339l7.96065,9.70947z" fill="#ee96c3"/></g></g><g stroke-width="0"><g><path d="M276.34085,138.64139l0.78284,-6.13202l47.43317,6.0557l-0.78284,6.13202z" fill="#61585b"/><path d="M276.58966,135.40328l0.41921,-3.28371l47.61353,6.07876l-0.41921,3.2837c0,0 -8.57129,-1.0943 -17.3762,-2.21837c-2.75292,-0.35146 -6.81536,0.65946 -9.35913,0.33466c-3.02483,-0.38618 -6.07677,-2.30537 -8.01706,-2.55308c-5.8181,-0.74279 -12.86113,-1.64199 -12.86113,-1.64199z" fill="#494344"/><path d="M338.75571,136.68109l-6.86053,-19.96249l20.75081,2.64923l13.18004,18.59313c0,0 -5.83658,0.62729 -9.07529,0.47416c-4.99764,-0.23627 -17.99504,-1.754 -17.99504,-1.754z" fill="#5e555b"/><path d="M338.3228,140.08873l0.70139,-5.49389c0,0 12.38348,0.11605 17.33498,-0.03774c3.92961,-0.12205 6.78643,-0.34411 6.78643,-0.34411l5.01282,7.63506c0,0 -5.49163,0.90798 -9.66231,0.82305c-5.6511,-0.11509 -20.17329,-2.58232 -20.17329,-2.58232z" fill="url(#color-5)"/><path d="M330.19387,116.6615l0.50608,-3.964l18.99733,2.42537l3.10103,4.42451z" fill="url(#color-6)"/><path d="M337.74056,140.03958l0.15949,-1.24912c0,0 15.49371,1.90105 20.85806,2.417c4.0112,0.38582 8.59578,-0.61852 8.59578,-0.61852l0.73676,1.24809l-8.41698,1.00266z" fill="#312c30"/><g><path d="M238.87674,116.73118l0.8972,-8.8157l93.1691,11.89471l6.15029,12.1586z" fill="#8a6672"/><path d="M254.23353,127.04467c0,0 -3.03456,-4.02246 -5.63158,-5.82746c-2.597,-1.80505 -9.63146,-2.46374 -9.63146,-2.46374l0.37559,-2.05606c0,0 12.18906,1.83479 19.14973,2.81946c16.62809,2.35213 80.18756,11.23248 80.18756,11.23248l2.76237,6.97298z" fill="#755761"/><path d="M256.74364,129.87632l-2.67284,-2.95408l86.94314,10.60654l0.80559,3.20899z" fill="#694e57"/><path d="M239.56035,108.28756l0.57357,-4.49253l90.1611,10.82582l3.10172,6.10316c0,0 2.31024,3.66008 -2.93024,2.96552c-1.64973,-0.21866 -10.27058,-4.71508 -11.92446,-4.93427c-15.92765,-2.11095 -78.98167,-10.46771 -78.98167,-10.46771z" fill="#916b77"/><path d="M240.37385,103.82577l0.20181,-2.51926l89.20248,11.24845l0.73382,2.50539z" fill="#9e7582"/><path d="M313.81621,113.89147c-7.92081,-1.66443 -71.93327,-10.87748 -71.93327,-10.87748l87.14671,11.12584l3.81978,7.98922c0,0 -11.11237,-6.57318 -19.03323,-8.23761z" fill="#b38f9a"/></g><path d="M287.3673,133.78305l1.16179,-9.0999l20.0495,2.55965l-1.16179,9.09991z" fill="#3a3336"/><path d="M288.44142,124.67616l0.9035,-1.41952l18.38917,2.34771l0.7844,1.63497z" fill="#4b4246"/><path d="M287.56957,133.30547l1.03559,-8.11176c0,0 0.38374,5.35758 2.88018,6.79155c2.49646,1.43399 15.57343,3.80833 15.57343,3.80833z" fill="#332c30"/><path d="M331.15792,119.02644l-3.12859,-6.44812c0,0 1.09914,-0.53177 1.69492,-0.45569c0.66604,0.08504 2.11412,0.942 2.11412,0.942l3.12859,6.44812z" fill="#757575"/><path d="M333.55441,124.10542l-4.49826,-9.25645l3.80906,0.4863l4.49826,9.25644z" fill="#5a5a5a"/><path d="M336.94844,131.04002l-4.49826,-9.25644l3.80905,0.4863l4.49826,9.25645z" fill="#505050"/><path d="M340.45621,138.22179c-0.7683,-1.58098 -3.76604,-7.74971 -3.76604,-7.74971l3.80905,0.48631l5.25288,11.08095c0,0 -2.10706,0.27085 -3.04704,0.13589c-0.73322,-0.10526 -1.91009,-3.25635 -2.24885,-3.95349z" fill="#3b3b3b"/><path d="M237.01802,119.11312l2.36496,-18.5244l3.15536,0.40283l-2.36496,18.5244z" fill="#443e42"/><path d="M218.09134,118.30877l0.07052,-5.96713l20.06571,2.56172l-0.75073,5.88027z" fill="url(#color-7)"/><path d="M218.08201,112.96715l1.37366,-10.75967l20.06571,2.56172l-1.37367,10.75968z" fill="#5e555b"/><path d="M219.43969,102.33278l1.32067,-4.0274l19.27212,2.46041l-0.52711,4.12872z" fill="url(#color-8)"/><path d="M289.67642,107.30262l0.77673,-6.08394l14.7662,2.96047l3.98841,5.25852z" fill="#5e555b"/><path d="M309.16272,109.79041l-3.95464,-5.52307c0,0 2.90446,1.06703 4.98832,2.33945c2.08389,1.2724 5.40293,4.00535 5.40293,4.00535z" fill="#776b73"/><path d="M286.53213,108.06611l3.33184,-0.82917l25.42769,2.97748l3.42374,1.96049z" fill="#6d6269"/></g><g><path d="M289.30498,130.0281c0.15815,-1.23879 0.81085,-2.32153 1.32672,-3.29361c0.71882,-1.35455 1.4669,-2.45649 2.85741,-3.13202c0.84937,-0.41265 2.02678,-0.65487 3.03819,-0.76805c0.66896,-0.07484 1.71072,-0.34517 2.40811,-0.25614c1.58086,0.20181 1.91008,0.32626 2.98773,0.96389c0.64917,0.38412 2.21853,1.0372 2.66411,1.7717c0.37712,0.62162 0.72894,1.6228 0.98185,2.34023c0.43215,1.22605 0.99202,3.17718 0.81618,4.55463c-0.07432,0.58212 -0.73181,1.84747 -0.84636,2.35252c-0.36364,1.60331 -0.42891,2.10871 -1.77235,3.04964c-0.81655,0.57188 -2.38104,0.92443 -3.40883,1.2065c-1.0644,0.29215 -2.43963,0.98965 -3.60291,0.84117c-0.78515,-0.10024 -2.13395,-0.81176 -2.87733,-1.04399c-1.61275,-0.50379 -2.47558,-0.78978 -3.35238,-2.05117c-0.7519,-1.08165 -0.80802,-2.70013 -0.99742,-4.09294c-0.09948,-0.73171 -0.32067,-1.67498 -0.22274,-2.44238z" fill="#3a3a3a"/><path d="M290.04513,130.00303c0.14474,-1.13362 0.74205,-2.12443 1.21409,-3.01397c0.6578,-1.23954 1.34231,-2.24791 2.6148,-2.86611c0.77723,-0.3776 1.85472,-0.59926 2.78024,-0.70284c0.61217,-0.06849 1.56553,-0.31586 2.20362,-0.23439c1.44666,0.1847 1.7479,0.29854 2.73409,0.88204c0.59404,0.35149 2.03017,0.94916 2.43794,1.62123c0.34511,0.56887 0.66707,1.48506 0.89846,2.14153c0.39546,1.12197 0.90779,2.90743 0.74686,4.16791c-0.06801,0.53268 -0.66968,1.6906 -0.7745,2.15278c-0.33276,1.46717 -0.39249,1.92967 -1.62189,2.7907c-0.74723,0.52333 -2.17888,0.84591 -3.11938,1.10406c-0.97403,0.26733 -2.2325,0.90565 -3.29699,0.76977c-0.71847,-0.09171 -1.95277,-0.74284 -2.63304,-0.95531c-1.47582,-0.46099 -2.26537,-0.72273 -3.06777,-1.877c-0.68807,-0.98984 -0.7394,-2.47088 -0.91271,-3.74543c-0.09102,-0.66957 -0.29344,-1.53276 -0.20381,-2.23499z" fill="#5a5a5a"/><path d="M302.71255,127.05411c-1.72635,-2.62556 -6.75341,-3.46956 -6.75341,-3.46956c0,0 1.995,-0.2897 3.96831,-0.03076c1.5984,0.20971 3.11195,0.77038 4.09741,2.20774c0.98625,1.43853 1.18894,2.96116 1.2967,4.38175c0.21131,2.78517 -0.52604,5.10326 -0.52604,5.10326c0,0 -0.35662,-5.56683 -2.08298,-8.19235z" fill="#6d6d6d"/><path d="M296.79292,131.35794c0.07287,-0.57107 0.59493,-0.97492 1.16604,-0.90202c0.57107,0.07287 0.97492,0.59493 0.90202,1.16605c-0.07287,0.57107 -0.59493,0.97492 -1.16605,0.90201c-0.57107,-0.07287 -0.97492,-0.59493 -0.90201,-1.16605z" fill="#272727"/><path d="M296.69722,131.48365c0.06687,-0.5238 0.54568,-0.8942 1.06947,-0.82732c0.5238,0.06687 0.8942,0.54568 0.82732,1.06947c-0.06687,0.5238 -0.54568,0.8942 -1.06946,0.82732c-0.5238,-0.06687 -0.8942,-0.54568 -0.82732,-1.06946z" fill="#131313"/></g></g></g></g></g><path d="M194.629,229.2328c0.20065,-1.57191 1.37462,-44.39402 2.07813,-45.99296c0.94986,-2.15886 9.19167,0.25493 12.32292,-0.86534c9.58988,-3.43105 19.90481,-6.73849 19.90481,-6.73849c0,0 13.88156,2.35742 18.08396,2.89397c3.14263,0.40122 65.04294,-0.25529 64.47127,10.07706c-0.77541,14.01458 -42.4687,-3.12182 -44.00495,8.91114c-0.38892,3.0462 1.97665,3.54529 1.01694,6.59553c-0.23035,0.73209 -3.21899,5.57143 -3.65378,7.20561c-0.69021,2.59403 2.07156,6.98162 -1.60445,9.63672c-2.9303,2.11651 -1.64922,7.33763 -2.43678,8.46258c-5.42725,7.75206 -13.20727,2.92351 -22.14757,1.78212c-10.6,-1.35326 -26.49641,0.37081 -35.64776,-2.0449c-3.95028,-1.0428 -8.9669,4.65264 -8.38273,0.07705z" fill="#86c8f5" stroke-width="0"/><path d="M174.03048,201.88972c0.9623,2.56938 -17.05561,6.70367 -27.29839,14.63482c-4.28121,3.31501 -5.20604,7.94224 -8.53601,11.90356c-3.13638,3.73102 -14.38317,11.83679 -15.71311,12.33487c-6.12022,2.29217 -7.26177,-12.26139 -9.00512,-16.9162c-1.74334,-4.65482 9.3352,-12.03892 15.45541,-14.33109c2.90413,-1.08767 21.48133,-14.24013 29.60151,-16.11719c1.18936,-0.27494 9.29023,-1.57403 10.1421,-1.4916c5.58902,0.54087 4.55866,7.8603 5.35361,9.9828z" fill="#86c8f5" stroke-width="0"/></g></g></svg>