<svg version="1.1" xmlns="http://www.w3.org/2000/svg" xmlns:xlink="http://www.w3.org/1999/xlink" width="467.86439" height="159.59417" viewBox="0,0,467.86439,159.59417"><defs><linearGradient x1="460.44147" y1="180.49624" x2="460.48468" y2="185.30766" gradientUnits="userSpaceOnUse" id="color-1"><stop offset="0" stop-color="#1f1d20"/><stop offset="1" stop-color="#202022"/></linearGradient><linearGradient x1="460.83743" y1="175.63744" x2="460.88714" y2="181.17343" gradientUnits="userSpaceOnUse" id="color-2"><stop offset="0" stop-color="#302d31"/><stop offset="1" stop-color="#1f1e20"/></linearGradient><linearGradient x1="126.49807" y1="226.71158" x2="126.52851" y2="230.10148" gradientUnits="userSpaceOnUse" id="color-3"><stop offset="0" stop-color="#585758"/><stop offset="1" stop-color="#575758"/></linearGradient><linearGradient x1="113.47588" y1="236.90742" x2="113.49977" y2="239.56867" gradientUnits="userSpaceOnUse" id="color-4"><stop offset="0" stop-color="#363536"/><stop offset="1" stop-color="#353536"/></linearGradient><linearGradient x1="256.00332" y1="142.82227" x2="256.05304" y2="148.36056" gradientUnits="userSpaceOnUse" id="color-5"><stop offset="0" stop-color="#5e555b"/><stop offset="1" stop-color="#2b2629"/></linearGradient><linearGradient x1="246.06057" y1="122.24378" x2="246.09645" y2="126.2398" gradientUnits="userSpaceOnUse" id="color-6"><stop offset="0" stop-color="#72676e"/><stop offset="1" stop-color="#5e555b"/></linearGradient><linearGradient x1="133.2332" y1="137.15628" x2="133.28642" y2="143.08405" gradientUnits="userSpaceOnUse" id="color-7"><stop offset="0" stop-color="#5e555b"/><stop offset="1" stop-color="#4d454a"/></linearGradient><linearGradient x1="133.10524" y1="122.90456" x2="133.14261" y2="127.06661" gradientUnits="userSpaceOnUse" id="color-8"><stop offset="0" stop-color="#74686f"/><stop offset="1" stop-color="#5e555b"/></linearGradient></defs><g transform="translate(2.33894,-116.42831)"><g data-paper-data="{&quot;isPaintingLayer&quot;:true}" fill-rule="nonzero" stroke="none" stroke-linecap="butt" stroke-linejoin="miter" stroke-miterlimit="10" stroke-dasharray="" stroke-dashoffset="0" style="mix-blend-mode: normal"><path d="M391.16271,186.19434c0.42711,8.66298 -4.41077,14.09238 -24.54671,15.08517c-7.46885,0.36824 -20.40833,-0.56884 -26.23072,0.42398c-4.32722,0.73786 -7.92159,3.13184 -10.76428,1.38418c-3.64428,-2.24045 -4.5,-22.07347 -4.65098,-25.13503c-0.42711,-8.66298 8.82402,-4.65366 28.95997,-5.64645c20.13596,-0.9928 36.80562,5.22513 37.23273,13.88813z" fill="#86c8f5" stroke-width="0"/><path d="M392.40353,171.65919c4.94598,0.84016 5.23352,7.66616 3.39949,15.49927c-1.83404,7.83313 -6.32958,13.59386 -10.04108,12.86698c-3.7115,-0.72688 -5.23351,-7.66616 -3.39948,-15.49927c1.83404,-7.83313 4.34296,-13.83488 10.04107,-12.86698z" data-paper-data="{&quot;index&quot;:null}" fill="#86c8f5" stroke-width="0"/><path d="M367.20155,183.76909c1.94569,-7.80615 3.99935,-11.98622 9.68304,-10.93704c4.93349,0.91069 5.66423,5.95487 3.71856,13.76102c-1.94569,7.80616 -6.52303,13.5021 -10.22377,12.7223c-3.70074,-0.7798 -5.12352,-7.74009 -3.17784,-15.54622z" data-paper-data="{&quot;index&quot;:null}" fill="#86c8f5" stroke-width="0"/><path d="M354.20813,188.53657c1.94569,-7.80615 4.79601,-14.95648 10.47969,-13.90729c4.93349,0.91069 4.86759,8.92508 2.92191,16.73121c-1.94569,7.80615 -6.09762,9.37778 -9.79839,8.59798c-3.70075,-0.77981 -5.5489,-3.61576 -3.60322,-11.42191z" data-paper-data="{&quot;index&quot;:null}" fill="#86c8f5" stroke-width="0"/><path d="M352.22072,177.31902c4.93349,0.91069 5.66423,5.95487 3.71856,13.76102c-1.94569,7.80615 -6.09762,9.37779 -9.79839,8.59798c-3.70075,-0.77981 -5.5489,-3.61577 -3.60322,-11.42192c1.94569,-7.80615 3.99935,-11.98623 9.68304,-10.93704z" data-paper-data="{&quot;index&quot;:null}" fill="#86c8f5" stroke-width="0"/><g><path d="M375.24642,207.71739c0.07788,8.67318 -4.97477,13.9033 -25.13435,14.08432c-7.47763,0.06715 -20.36888,-1.3903 -26.22653,-0.63279c-4.35343,0.56299 -8.04132,2.81024 -10.8113,0.94954c-3.5511,-2.3854 -3.60736,-22.2368 -3.63488,-25.30195c-0.07788,-8.67318 9.00431,-4.29451 29.1639,-4.47552c20.15959,-0.18102 36.5653,6.70324 36.64316,15.37641z" fill="#86c8f5" stroke-width="0"/><g><g stroke-width="0"><path d="M187.74868,211.16949l-10.36754,-15.25279l25.56912,-0.81981c0,0 -1.0461,5.83845 -1.22174,8.53865c-0.16991,2.612 0.18447,7.40676 0.18447,7.40676z" fill="#7f7d7e"/><path d="M187.84882,211.36532l-3.68978,-5.57401c0,0 2.3904,3.53377 5.63191,4.11936c2.33421,0.42169 4.21749,0.09484 6.90173,0.39155c2.68423,0.29671 5.12372,0.9377 5.12372,0.9377z" fill="#6c6a6b"/></g><g><g><g><path d="M457.4937,185.33451l-2.10211,-4.79291c0,0 6.00614,1.604 8.61143,2.4735c2.60529,0.86952 1.07707,2.0194 1.07707,2.0194z" fill="url(#color-1)" stroke-width="0"/><path d="M464.42364,175.80486c0,0 1.50049,2.31442 -1.08877,3.23056c-2.58926,0.91616 -5.48119,2.16524 -5.48119,2.16524l-1.02032,-5.5273z" data-paper-data="{&quot;index&quot;:null}" fill="url(#color-2)" stroke-width="0"/><path d="M447.87617,185.41629l-0.01884,-2.09827l14.77196,-0.13264c0,0 1.26465,0.78298 1.75575,1.14485c0.44145,0.32529 -0.72674,0.94435 -0.72674,0.94435z" fill="#444444" stroke-width="NaN"/><path d="M447.89232,183.46112l-1.20637,-1.74312l12.61516,-0.11328l3.40862,1.61153c0,0 -4.21557,0.27588 -6.52011,0.31395c-2.59907,0.04295 -8.29729,-0.06909 -8.29729,-0.06909z" fill="#535353" stroke-width="0"/><path d="M446.57505,181.85572l-0.33047,-0.63706l11.47334,-0.10303l1.69015,0.51055z" fill="#363636" stroke-width="0"/><path d="M447.87617,185.41629l-0.01022,-1.13831c0,0 6.45743,0.39565 9.33708,0.3698c2.44029,-0.02191 6.84198,-0.51507 6.84198,-0.51507c0,0 0.86825,0.45445 1.11738,0.65511c0.21014,0.16926 -0.24442,0.47545 -0.24442,0.47545c0,0 -4.72892,0.44697 -7.04257,0.46774c-3.12143,0.02803 -9.99922,-0.31472 -9.99922,-0.31472z" fill="#3a3a3a" stroke-width="NaN"/><path d="M446.56564,181.23405l-0.56143,-0.87873l13.64107,-0.12248l-1.81328,0.93394z" fill="#242424" stroke-width="0"/><path d="M445.19789,180.5518l-0.01485,-1.65424c0,0 8.09116,-0.27884 11.08678,-0.30575c2.04095,-0.01833 5.14907,0.15997 5.14907,0.15997l-1.8002,1.50559z" fill="#3a3a3a" stroke-width="0"/><path d="M445.05388,178.94127l-0.01833,-2.04247c0,0 7.65,-0.39861 10.96414,-0.42836c2.86786,-0.02575 7.77617,0.26009 7.77617,0.26009l-2.39977,2.06418c0,0 -3.65552,-0.04966 -5.89984,-0.0295c-2.98326,0.02679 -10.42238,0.17606 -10.42238,0.17606z" fill="#444444" stroke-width="0"/><path d="M444.99313,176.98428l-0.00764,-0.85103c0,0 7.8724,-0.19441 11.46946,-0.22669c2.50472,-0.02249 8.04808,0.05145 8.04808,0.05145l-0.85737,0.85881c0,0 -5.05639,-0.24327 -8.02147,-0.21665c-3.26678,0.02933 -10.63109,0.38414 -10.63109,0.38414z" fill="#535353" stroke-width="0"/><path d="M444.85672,176.21954l-0.00305,-0.34043c0,0 7.67148,-0.57594 11.13167,-0.60701c2.99166,-0.02687 8.42908,0.43138 8.42908,0.43138l0.04065,0.34008c0,0 -6.01013,-0.111 -9.25503,-0.08185c-3.28731,0.02951 -10.3433,0.25782 -10.3433,0.25782z" fill="#4e4e4e" stroke-width="0"/></g><g stroke-width="0"><g><g><g><path d="M442.01827,184.98086l-4.69983,-13.12197l0.53753,-1.72625c0,0 3.50366,3.19789 4.44836,5.67987c0.51287,1.34747 1.16842,9.15527 1.16842,9.15527z" fill="#383638"/><path d="M443.06318,184.28002c0,0 0.05288,-0.61021 -0.59777,-3.05933c-0.70955,-2.6709 -2.1346,-6.2953 -2.53736,-7.3657c-0.9041,-2.40269 -1.66014,-2.52638 -1.66014,-2.52638l4.79458,-0.6249l5.09139,13.53058z" fill="#555355"/><path d="M438.33268,171.41339l-0.5929,-1.23108c0,0 2.01292,-0.81811 2.97452,-0.82674c0.90105,-0.00809 2.04282,0.70895 2.04282,0.70895l0.59355,1.30381z" fill="#686668"/></g><path d="M436.34577,185.03178l-4.69983,-13.12196l0.20692,-1.7031c0,0 3.83429,3.17475 4.77898,5.65675c0.51286,1.34746 1.16842,9.15527 1.16842,9.15527z" fill="#383638"/><path d="M437.39067,184.33096c0,0 0.05288,-0.61022 -0.59776,-3.05933c-0.70955,-2.6709 -2.1346,-6.2953 -2.53736,-7.3657c-0.9041,-2.40269 -1.66014,-2.52638 -1.66014,-2.52638l4.04011,-1.11814c0,0 1.03733,1.24499 1.3129,1.97732c0.78512,2.08648 4.53296,12.04651 4.53296,12.04651z" fill="#555355"/><path d="M432.66019,171.46432l-0.81107,-1.22913c0,0 2.23108,-0.82006 3.19269,-0.8287c0.90105,-0.00809 1.7519,0.71156 1.7519,0.71156l0.71854,1.3027z" fill="#686668"/><path d="M443.87255,183.27896c-0.00736,-0.81949 0.651,-1.48978 1.47049,-1.49713c0.81949,-0.00736 1.48978,0.651 1.49713,1.47049c0.00736,0.81949 -0.651,1.48978 -1.47049,1.49713c-0.81949,0.00736 -1.48978,-0.651 -1.49713,-1.47049z" fill="#312f31"/><path d="M444.50184,180.34393l-2.0491,-5.52834l1.58999,-0.15762l2.04967,5.59285z" fill="#444144"/></g><path d="M396.97024,180.41867l-3.86173,-10.78929l29.89172,0.90812l-0.38396,9.6509z" fill="#444444"/><path d="M409.57547,176.38984c0,0 0.63125,-0.52765 1.34361,-1.63896c0.65132,-1.01611 1.36973,-2.60051 1.75023,-3.0677c0.9599,-1.71516 3.34256,-1.26973 3.34256,-1.26973l-0.97369,0.66184l-4.31989,5.30429z" fill="#292929"/><path d="M412.46923,186.89374l-6.61253,-10.91249c0,0 3.50337,0.49988 5.19752,-0.56447c1.31649,-0.82709 1.1987,-3.45813 2.77348,-3.75318c4.51814,-0.84652 17.38825,-1.39599 17.38825,-1.39599c0,0 3.30418,7.11559 4.25731,9.9942c0.65801,1.9873 1.10929,6.41542 1.10929,6.41542z" fill="#4a464a"/><path d="M416.48851,173.74855c-4.56634,-0.59509 -3.13784,-1.97191 -3.13784,-1.97191c0,0 0.78101,-1.3093 2.64695,-1.4722c4.57897,-0.39978 13.22686,0.0995 14.9488,0.05838c0.81207,-0.01939 0.3528,0.69264 0.3528,0.69264c0,0 -1.46787,2.39924 -3.01618,2.66719c-1.54831,0.26795 -7.2282,0.62099 -11.79454,0.0259z" fill="#5e595e"/></g><g><path d="M400.72479,193.57473l-5.32213,-17.88842l18.90959,0.11653l4.83811,4.28507l6.09809,-0.15329l3.08812,13.39215z" fill="#4d4846"/><path d="M405.41862,193.91972l20.57106,-9.57662l22.31859,-0.44284c0,0 1.34952,4.1709 1.50462,5.52417c0.07906,0.68994 -0.12852,2.94536 -0.12852,2.94536z" fill="#423d3b"/><path d="M401.53037,185.64329l-3.26777,-9.81722l0.82048,-0.00738l3.26777,9.81722z" fill="#363332"/><path d="M405.99697,193.1129l-0.01093,-1.21734c0,0 5.2414,-2.59261 14.30593,-2.674c1.20436,-0.01081 5.47535,2.49639 6.68926,2.48549c7.70178,-0.06915 15.24038,-0.13685 18.10836,-0.1626c2.33565,-0.02097 4.70911,-1.34233 4.70911,-1.34233l0.02261,2.51729z" fill="#312e2c"/><path d="M408.25236,180.35193l-1.78497,-4.59953l8.30735,-0.0746l4.19453,4.38384l6.30803,0.13743l-7.57194,2.01679z" fill="#585350"/><path d="M398.82865,187.46249l-0.01013,-1.12816c0,0 8.0119,-3.81568 10.88903,-3.84151c4.33619,-0.03893 16.30703,-0.14642 16.30703,-0.14642l0.01013,1.12816c0,0 -12.17605,0.10933 -16.51215,0.14825c-2.81801,0.02529 -10.68391,3.83966 -10.68391,3.83966z" fill="#2b2827"/></g></g></g><g><g><g><path d="M64.59279,233.11925c0.56083,2.22905 0.27469,4.82125 -0.81392,5.09514c-1.08861,0.27389 -2.56742,-1.87424 -3.12825,-4.10328c-0.56083,-2.22905 -2.77193,-10.77993 -1.68333,-11.05382c1.08861,-0.27389 5.06468,7.83294 5.6255,10.06197z" fill="#615e5f" stroke-width="0"/><g><path d="M105.91488,202.81807c-0.54405,-0.52275 -2.8964,-1.81407 -2.8964,-1.81407l9.89375,-2.96895l-5.93512,7.25359c0,0 -0.51819,-1.94782 -1.06222,-2.47057z" fill="#756a6a" stroke-width="0"/><path d="M96.87342,201.202l-0.12332,-13.73278l18.47991,-6.03284l0.17598,19.59921z" fill="#8a7c7c" stroke-width="0"/><path d="M56.88814,207.00829l6.50358,-18.19245l34.93072,-0.44698l4.64688,12.62546c0,0 -22.97482,1.78239 -30.66188,2.78563c-3.19097,0.41645 -15.41931,3.22837 -15.41931,3.22837z" fill="#7c787a" stroke-width="0"/><path d="M63.53166,191.21952l-0.16144,-1.48008c0,0 25.92319,-0.23276 34.0727,-0.30594c4.55968,-0.04095 16.0903,-6.5151 16.0903,-6.5151l0.01464,1.62957c0,0 -11.2366,6.45221 -15.64656,6.47715c-8.08616,0.04574 -34.36964,0.1944 -34.36964,0.1944z" fill="#535353" stroke-width="0"/><path d="M24.81627,208.00415l-0.18095,-20.15318c0,0 4.46762,-7.09454 11.69091,-9.45547c8.97158,-2.93235 25.87572,-1.29895 27.94629,-1.31753c1.58893,-0.01427 -12.81356,10.53214 -12.81356,10.53214l0.18095,20.15318z" fill="#8d898b" stroke-width="0"/><path d="M197.34238,160.31036l1.57433,-3.15853l107.5621,-0.82295l0.1324,14.74564c0,0 -37.7625,2.18467 -49.98659,1.87831c-6.0708,-0.15215 -59.28224,-12.64248 -59.28224,-12.64248z" fill="#c98cac" stroke-width="0"/><path d="M176.58605,261.50093l-4.65961,-12.89509c0,0 5.19028,5.79311 8.04749,6.84434c1.82038,0.66977 6.04983,1.01359 12.13845,-1.47859c4.90157,-2.0063 10.0206,-7.56328 10.0206,-7.56328l-11.54376,14.9669z" fill="#a08e97" stroke-width="0"/><path d="M266.65085,213.77427l-2.54995,-23.59947l18.53404,-1.56923l0.19032,21.19615c0,0 -6.3817,1.77649 -9.14042,2.49955c-1.27026,0.33293 -7.03398,1.47297 -7.03398,1.47297z" fill="#96858d" stroke-width="0"/><path d="M174.78212,265.2631l-0.04974,-5.53995c0,0 12.08133,1.96013 16.67265,-1.20253c3.10646,-2.13984 34.10047,-42.05373 34.10047,-42.05373c0,0 3.32533,-3.80322 3.30347,-6.68533c-0.01099,-1.44983 0.42141,-5.63259 -0.43084,-7.9364c-0.85988,-2.32439 -3.00445,-2.76347 -3.00445,-2.76347l-4.99382,-13.52798l19.81652,-0.03423l-2.67066,26.59837l3.78107,2.52802c0,0 -9.50076,6.08569 -14.085,11.08271c-7.17265,7.81852 -30.28817,38.41223 -30.28817,38.41223z" fill="#918189" stroke-width="0"/><path d="M243.4748,214.33511l0.95672,-28.61364l13.77757,0.15206l10.47103,11.90862l-2.09458,16.34545z" fill="#96858d" stroke-width="0"/><path d="M238.967,216.22485l-2.54639,-4.12307l3.30366,-26.22059l5.07889,-0.13033l-0.41891,28.5916z" fill="#8f8187" stroke-width="0"/><path d="M265.35218,214.24229c0,0 2.69176,-6.69152 1.29052,-12.08995c-0.80682,-3.10838 -5.73524,-5.03394 -6.22984,-6.93951c-0.94483,-3.64012 -2.40649,-9.27141 -2.40649,-9.27141l7.89398,4.29325c0,0 3.47077,7.18289 4.10677,11.43887c0.4273,2.85938 -0.99907,9.24844 -1.90233,11.85554c-0.07616,0.21978 -1.25301,0.14708 -1.30314,0.31285c-0.12251,0.40497 0.84376,0.62765 0.84376,0.62765z" fill="#86787e" stroke-width="0"/><path d="M265.69919,191.73644c0,0 -3.12621,-3.92703 -7.81725,-4.85656c-5.31079,-1.05231 -22.41959,-1.13481 -22.41959,-1.13481l157.60368,-15.59753l3.49887,9.27073l8.01758,11.07113c0,0 -100.81093,-1.66634 -121.39846,-1.48149c-6.71798,0.06033 -17.48485,2.72853 -17.48485,2.72853z" fill="#df8db7" stroke-width="0"/><path d="M111.91224,240.39956l-5.12351,-36.2253c0,0 1.64948,-3.76562 2.14873,-3.98579c5.50399,-2.42736 37.44372,-13.36639 42.88532,-13.12897c5.96097,0.26009 -9.0496,12.32393 -9.0496,12.32393c0,0 -14.39105,2.15522 -16.89049,6.42774c-3.39351,5.8008 1.6095,23.11012 1.6095,23.11012z" fill="#c77da3" stroke-width="0"/><path d="M184.06093,209.82163l-1.8083,-2.08912c0,0 6.48145,-8.66511 8.89434,-10.97959c2.49106,-2.3895 5.82499,-3.13954 5.82499,-3.13954l5.95592,2.2488c0,0 -4.48039,-0.46237 -6.82864,1.27507c-2.01587,1.49152 -5.74017,4.60376 -8.51251,7.72112c-2.01667,2.26765 -3.52579,4.96326 -3.52579,4.96326z" fill="#414041" stroke-width="0"/><path d="M63.20291,190.17612l4.69485,-11.73216l48.62647,-0.43661c0,0 -2.85847,4.48135 -5.96028,6.47542c-3.04435,1.95712 -12.4814,5.38017 -12.4814,5.38017z" fill="#979395" stroke-width="0"/><path d="M63.99258,189.02611l3.89488,-11.72497l48.62647,-0.43661c0,0 -2.85847,4.48135 -5.96028,6.47542c-3.04435,1.95712 -12.4814,5.38017 -12.4814,5.38017z" fill="#bdb7ba" stroke-width="0"/><path d="M267.76315,214.54137l-1.87746,-0.49665l16.81071,-4.32591c0,0 -3.54175,2.08927 -6.01843,2.90848c-2.4767,0.81921 -8.91483,1.91409 -8.91483,1.91409z" fill="#887980" stroke-width="0"/><path d="M114.40202,240.8417c0,0 -2.43408,-10.44403 -3.71182,-18.97136c-1.28396,-8.56895 -2.46267,-16.60541 -2.51693,-20.18975c-0.00919,-0.60726 1.54967,-10.55231 2.04475,-11.07821c2.67227,-2.83853 10.48328,4.83524 16.03727,3.68177c8.22359,-1.7079 27.32671,-2.39356 27.32671,-2.39356l-8.4057,5.38637c0,0 -19.42311,3.03966 -21.76852,8.19815c-3.17239,6.97739 4.58549,27.78135 4.58549,27.78135z" fill="#d486ae" stroke-width="0"/><path d="M115.50191,237.31284c0,0 -7.02784,-40.81012 -5.79148,-50.89863c0.57849,-4.72029 -2.85796,-13.79767 -2.85796,-13.79767l50.72776,6.51343l1.56815,16.05655c0,0 -32.06876,-2.80536 -38.36259,3.52534c-4.20135,4.22596 2.86105,32.40675 2.86105,32.40675z" fill="#e490bb" stroke-width="0"/><g stroke-width="0"><path d="M253.35469,173.07873l-0.07429,-8.27454l9.35963,-0.08405l0.07429,8.27454z" fill="#454545"/><path d="M254.18014,172.30651l-0.42224,-7.2946l11.32574,-0.10169l0.06553,7.29781z" fill="#b0b0b0"/><path d="M253.9093,167.81972l-0.25398,-2.82815l11.5424,-0.10365l0.01713,1.90732c0,0 -7.78964,0.39239 -9.48772,0.54628c-0.5674,0.05142 -1.81783,0.4782 -1.81783,0.4782z" fill="#bebebe"/><path d="M265.39763,171.6562c0,0 -5.56342,-2.50549 -5.02608,-6.25817c0.79844,-5.57641 4.92378,-5.13532 4.92378,-5.13532l40.25276,0.97194l0.09033,10.0602z" fill="#9c989a"/><path d="M267.17323,170.35099c0,0 -2.51826,-3.49647 -2.77072,-4.42106c-0.37421,-1.37053 1.59393,-4.34564 1.59393,-4.34564l41.59438,-0.34015l-0.33274,7.49197z" fill="#898587"/><path d="M267.08471,170.55008l-1.03699,-1.93015l38.23019,-0.34327l0.01741,1.9393z" fill="#c1bcbf"/><path d="M266.93306,167.15733c0,0 -1.34556,-1.35596 -1.35398,-2.29325c-0.00787,-0.87676 1.305,-3.16107 1.305,-3.16107l38.66511,-0.34718l0.04898,5.45433z" fill="#0d0d0d"/><path d="M266.94003,167.93462c0,0 -1.35098,-1.95971 -1.3594,-2.89699c-0.00787,-0.87676 1.31042,-2.55732 1.31042,-2.55732l38.66511,-0.34718l0.04898,5.45433z" fill="#2e2e2e"/><path d="M262.13131,169.88115c-2.66628,-3.04313 -1.52213,-5.39005 -1.52213,-5.39005c0,0 1.86909,4.09573 3.11261,4.9822c1.47225,1.04952 5.0942,2.38302 5.0942,2.38302l-3.508,0.10169c0,0 -2.70743,-1.54125 -3.17666,-2.07683z" fill="#7d7a7c"/><path d="M269.54274,168.22094c0,0 -0.90872,-2.20393 -0.91898,-3.34744c-0.00903,-1.0052 0.86062,-3.15229 0.86062,-3.15229l4.82313,-0.04331c0,0 -0.44132,2.20802 -0.43352,3.07623c0.01071,1.19325 0.49188,3.42351 0.49188,3.42351z" fill="#555555"/><path d="M278.15907,168.14359c0,0 0.64397,-2.52901 0.63371,-3.6725c-0.00903,-1.00519 -0.69207,-2.82723 -0.69207,-2.82723l5.38311,-0.04833c0,0 -0.40127,1.71876 -0.39347,2.58697c0.01071,1.19325 0.45182,3.91277 0.45182,3.91277z" fill="#555555"/><path d="M287.48535,168.05984c0,0 0.64398,-2.52901 0.63372,-3.6725c-0.00903,-1.0052 -0.69208,-2.82723 -0.69208,-2.82723l5.30311,-0.04762c0,0 -0.40127,1.71876 -0.39347,2.58697c0.01071,1.19325 0.45182,3.91277 0.45182,3.91277z" fill="#555555"/><path d="M297.14829,167.97308c0,0 0.82495,-2.17505 0.81469,-3.31856c-0.00903,-1.00519 -0.87304,-3.18118 -0.87304,-3.18118l5.14313,-0.04618c0,0 0.84553,1.97423 0.85334,2.84245c0.01071,1.19325 -0.79496,3.65728 -0.79496,3.65728z" fill="#555555"/><path d="M269.2245,162.42754l-0.67228,-0.79399l35.56116,-0.3193l-1.52701,0.81374c0,0 -2.82997,0.0254 -5.29207,0.04752c-0.53667,0.00482 -1.55518,-0.31481 -2.35902,-0.3076c-0.77725,0.00698 -1.33219,0.34075 -2.29833,0.34941c-1.5066,0.01353 -3.20648,0.02879 -4.9861,0.04477c-0.73782,0.00662 -1.3832,-0.37116 -2.14035,-0.36435c-0.67323,0.00605 -1.45704,0.39666 -2.13346,0.40274c-1.67881,0.01507 -3.34105,0.03 -4.90392,0.04403c-0.71768,0.00644 -1.41831,-0.42564 -2.08604,-0.41965c-0.81514,0.00732 -1.58315,0.4526 -2.29735,0.459c-2.91334,0.02615 -4.86525,0.04369 -4.86525,0.04369z" fill="#474747"/></g><g><path d="M122.61664,230.8198l3.69119,-2.90072c0,0 2.85008,2.78942 5.69203,3.6589c2.51358,0.76901 10.49584,1.29367 10.49584,1.29367l-2.61586,4.37796z" fill="#6d6a6b" stroke-width="0"/><path d="M114.61636,237.39208l9.1648,-7.46777c0,0 3.25487,2.22742 5.42949,2.86982c3.28987,0.97185 12.38909,2.3939 12.38909,2.3939l-4.23891,4.34555z" fill="#615e5f" stroke-width="0"/><path d="M116.8123,259.34066l-1.6859,-22.55882c0,0 4.36117,0.75281 9.18252,0.73913c3.76327,-0.01067 7.80327,-0.8941 10.29241,-0.30807c4.36981,1.02879 38.00548,13.08297 38.00548,13.08297l2.56973,10.15214z" fill="#575455" stroke-width="0"/><path d="M138.16013,232.10597c6.88306,-5.62725 14.83141,-19.15121 16.06661,-21.73379c0.88986,-1.86056 1.52997,-7.14255 1.52997,-7.14255l7.76458,6.74536c0,0 6.03364,20.44341 7.32773,33.07903c0.3621,3.53558 2.91493,7.45799 1.74186,8.93503c-1.05102,1.32338 -17.99106,3.76549 -23.39198,3.04919c-11.36595,-1.5074 -17.13275,1.334 -20.92467,-3.90748c-3.79194,-5.24149 3.25224,-11.57528 3.25224,-11.57528c0,0 4.84177,-5.98455 6.63368,-7.44953z" fill="#504e4f" stroke-width="0"/><path d="M142.67084,199.23889c0,0 0.38242,-1.49627 1.23344,-2.16745c1.09447,-0.8632 4.78869,-2.58215 4.78869,-2.58215c0,0 9.38513,1.98317 12.41765,4.44603c2.79791,2.27233 -3.39024,12.60949 -3.39024,12.60949l-2.05458,-5.34313z" fill="#464445" stroke-width="0"/><path d="M166.32843,246.25585c0,0 -9.22771,6.33889 -17.71023,6.58648c-8.18313,0.23886 -15.63361,-5.58629 -15.53936,-7.00943c0.05106,-0.77105 7.94904,-4.14742 11.38751,-8.39989c3.82221,-4.72704 3.28262,-10.42397 4.61536,-12.44647c3.72067,-5.64633 12.07391,-15.90026 10.95866,-21.93415c-1.16959,-6.32786 -11.90532,-8.3054 -11.90532,-8.3054c0,0 3.83082,-2.28618 8.81515,-2.46084c2.12313,-0.0744 6.68297,1.27056 7.60969,1.64722c3.0389,1.23513 5.04425,2.85344 5.04425,2.85344c0,0 3.61461,-4.91197 7.2138,-5.25375c3.5992,-0.34179 22.4507,2.43668 22.4507,2.43668l-16.09681,12.73903z" fill="#555354" stroke-width="0"/><path d="M148.69077,225.58506c0,0 4.52299,-10.91385 9.20437,-16.39099c4.68138,-5.47715 8.73109,-8.69413 12.26329,-8.72583c2.55782,-0.02296 5.92327,8.56253 5.92327,8.56253l-10.81816,28.86752c0,0 -14.59112,3.41026 -16.09061,0.94296c-1.18429,-1.94869 -0.48216,-13.2562 -0.48216,-13.2562z" fill="#585758" stroke-width="0"/><path d="M171.49037,252.68115c0,0 -2.93363,-6.16496 -2.6345,-9.18998c0.41784,-4.22592 1.74805,-16.89232 1.74805,-16.89232l2.05031,10.4177c0,0 -0.55293,9.75286 -0.39303,12.78143c0.15428,2.92206 1.59703,5.0796 1.59703,5.0796z" fill="#3f3e3f" stroke-width="0"/><path d="M170.40137,234.82496c-0.21047,-1.67299 -0.01285,-9.38598 -0.01285,-9.38598c0,0 9.42699,-14.6532 11.50049,-17.32503c0.60788,-0.78327 3.94782,-2.54425 3.94782,-2.54425l-1.60263,4.86848c0,0 -1.56835,0.61809 -1.74387,1.09753c-0.187,0.51079 0.65415,1.8791 0.65415,1.8791l-5.05252,8.52581c0,0 -1.64146,1.02535 -1.8161,1.53231c-0.17469,0.50709 0.52091,1.38902 0.52091,1.38902c0,0 -3.7739,8.97551 -4.59466,11.39773c-0.37949,1.11996 -0.13157,2.55041 -0.13157,2.55041c0,0 -1.45873,-2.31218 -1.66917,-3.98518z" fill="#474647" stroke-width="0"/><path d="M157.08756,213.97532l21.13192,8.04588c0,0 -1.17981,1.02293 -1.41213,1.56407c-0.17144,0.39932 0.14447,1.38862 0.14447,1.38862z" fill="#3f3e3e" stroke-width="NaN"/><path d="M162.99435,203.56892l21.47429,6.86628c0,0 -1.1074,0.8533 -1.31342,1.4115c-0.21476,0.58191 0.16445,1.65776 0.16445,1.65776z" fill="#3f3e3e" stroke-width="NaN"/><path d="M150.81236,232.35945c0,0 10.76109,7.59668 16.69266,13.52127c5.93156,5.92458 4.00179,7.14878 4.00179,7.14878z" fill="#636162" stroke-width="NaN"/><path d="M163.89161,209.18446c0,0 -5.97431,2.95783 -8.69577,6.07832c-2.72146,3.1205 -10.90979,19.37758 -10.93623,16.43218c-0.02645,-2.9454 12.90872,-23.78351 14.70356,-23.79963c0.67943,-0.0061 3.70532,-1.17558 4.52582,-0.94548c1.34702,0.37778 0.40262,2.23459 0.40262,2.23459z" fill="#918f91" stroke-width="0"/><path d="M116.35495,259.21536l13.9253,-2.01341c0,0 12.59239,-0.44536 15.73036,-0.31845c7.64184,0.30902 30.28721,2.17924 30.28721,2.17924l-0.39023,6.32484c0,0 -24.32796,3.78404 -31.2339,2.53037c-1.99789,-0.36269 -7.81987,-0.92849 -12.08759,-2.24243c-8.35172,-2.57129 -16.23111,-6.46016 -16.23111,-6.46016z" fill="#626061" stroke-width="0"/><path d="M174.89951,265.04473c0,0 0.00189,-4.29283 -0.46805,-6.62858c-0.5282,-2.62529 -2.5468,-8.35625 -2.5468,-8.35625l1.78225,-0.016c0,0 1.75912,4.44119 2.23729,6.81784c0.52279,2.59848 0.77756,8.16696 0.77756,8.16696z" fill="#4a494a" stroke-width="0"/><path d="M174.7118,265.88277l0.05773,-3.39782c0,0 0.56911,0.25961 0.8406,0.25717c0.32259,-0.00289 0.92683,-0.27304 0.92683,-0.27304l0.20226,3.17487c0,0 -0.77285,0.4146 -1.1423,0.4581c-0.28309,0.03334 -0.88511,-0.21929 -0.88511,-0.21929z" fill="#363536" stroke-width="0"/><path d="M172.16892,251.08272l-0.4004,-1.61709c0,0 0.41418,-0.35814 0.78213,-0.42067c0.35041,-0.05954 0.8739,0.0585 0.8739,0.0585l0.5172,1.73181c0,0 -0.47725,0.51173 -0.78097,0.55412c-0.28616,0.03994 -0.99183,-0.30667 -0.99183,-0.30667z" fill="#585758" stroke-width="0"/><path d="M133.04937,264.98933c0,0 -7.92134,-2.88181 -7.93358,-4.24479c-0.01229,-1.36977 6.21411,-2.59653 6.21411,-2.59653c0,0 10.9413,-0.33903 15.89964,-0.21095c2.77589,0.07171 11.31784,0.91401 11.31784,0.91401c0,0 7.30098,0.98871 8.12638,2.13304c0.90035,1.24825 -2.93813,4.12446 -2.93813,4.12446c0,0 -12.71161,1.42026 -16.67813,1.24761c-1.40904,-0.06133 -14.00811,-1.36685 -14.00811,-1.36685z" fill="#6b696a" stroke-width="0"/><path d="M122.60483,258.18133l-1.95954,0.24839c0,0 0.59552,-3.44017 3.32658,-2.22243c2.73107,1.21773 21.69518,0.03598 21.69518,0.03598z" fill="#4b4949" stroke-width="0"/><path d="M116.42659,259.07066c0,0 -1.99596,0.20952 -2.56375,-3.42827c-0.28741,-1.84142 -2.15474,-16.01737 -2.15474,-16.01737l3.70977,-2.93254c0,0 0.73558,5.98736 0.9678,8.88765c0.30884,3.85733 0.96403,13.48223 0.96403,13.48223z" fill="#3f3d3e" stroke-width="0"/><path d="M122.92809,258.34436c0,0 3.17319,-2.1867 19.22587,-2.66798c1.32566,-0.03974 -1.7954,-0.01588 7.60852,0.40699c9.40391,0.42287 13.32558,1.90039 13.32558,1.90039c0,0 -15.07519,-0.93407 -21.27775,-0.87838c-7.07018,0.06349 -18.88223,1.23898 -18.88223,1.23898z" fill="#838082" stroke-width="0"/><path d="M127.71249,228.66802c0,0 -4.35079,2.22658 -6.51125,3.86161c-2.42829,1.83772 -7.34909,6.62787 -7.34909,6.62787l-0.79883,-1.59451c0,0 3.72784,-3.88731 5.92614,-5.55098c2.40349,-1.81894 7.93421,-4.93849 7.93421,-4.93849z" fill="#4a494a" stroke-width="0"/><path d="M128.64413,228.40185l-3.54581,1.71247c0,0 0.09059,-0.64726 -0.03111,-0.89016c-0.1446,-0.28862 -0.68367,-0.69179 -0.68367,-0.69179l3.1283,-1.82987c0,0 0.75948,0.47986 0.9658,0.78951c0.1581,0.23728 0.16645,0.90984 0.16645,0.90984z" fill="url(#color-3)" stroke-width="0"/><path d="M114.76368,238.37099l-2.92632,2.75615l-0.16344,-2.18125l2.06055,-2.04079c0,0 0.72811,0.16358 0.90444,0.41473c0.16613,0.23662 0.12477,1.05116 0.12477,1.05116z" fill="url(#color-4)" stroke-width="0"/></g><path d="M244.61348,213.22838c0,0 0.88769,-4.42682 1.3785,-5.8204c0.33318,-0.946 2.69363,-2.39891 2.69363,-2.39891l17.01678,-0.371c0,0 -1.22504,5.80898 -1.59383,7.17862c-0.16156,0.60002 -1.22126,1.30215 -1.22126,1.30215z" fill="#665b60" stroke-width="0"/><path d="M195.83738,195.40908c0,0 -3.80807,-1.52832 -8.7467,-2.63627c-3.1395,-0.70435 -7.4144,-1.23271 -9.27438,-1.11023c-5.40758,0.35607 -7.88065,5.48338 -7.88065,5.48338c0,0 -3.29391,-2.28629 -5.40913,-3.122c-1.97448,-0.78012 -6.33639,-1.74194 -6.33639,-1.74194c0,0 24.51274,-5.31158 28.35856,-5.92626c7.37271,-1.1784 34.05636,-1.02659 34.05636,-1.02659l6.35193,14.22925z" fill="#8b7c84" stroke-width="0"/><g stroke-width="0"><path d="M246.05963,212.27259c0,0 0.44821,-2.6004 0.85053,-3.49883c0.41717,-0.93156 2.59136,-2.00354 2.59136,-2.00354l14.52944,-0.13045c0,0 0.39513,0.97945 0.16637,1.71931c-0.31104,1.00597 -3.0628,3.77814 -3.0628,3.77814z" fill="#585852"/><path d="M246.05293,211.52727c0,0 0.45489,-1.85505 0.85722,-2.75346c0.41717,-0.93156 2.58467,-2.74889 2.58467,-2.74889l14.52944,-0.13045c0,0 0.40182,1.7248 0.17305,2.46467c-0.31104,1.00597 -3.06948,3.03279 -3.06948,3.03279z" fill="#797971"/><path d="M262.26461,206.40583c-1.05042,-0.16854 -12.67496,-0.33549 -12.67496,-0.33549l14.50958,-0.13029l0.0221,2.46173c0,0 -0.80628,-1.82741 -1.85671,-1.99593z" fill="#85857b"/></g><path d="M247.32769,194.09235l-0.0466,-5.18955l7.13562,-0.06408l1.34398,5.1779z" fill="#7c6e75" stroke-width="0"/><path d="M236.66679,167.76342l-4.24955,-8.09344l1.37926,-0.01238l6.18901,8.52765z" fill="#d495b6" stroke-width="0"/><path d="M197.59628,160.48494l13.19078,-3.20824l21.82912,2.4166l4.07547,8.05599z" fill="#df9cbe" stroke-width="0"/><path d="M247.53502,199.11824l-0.01457,-1.62174l10.86561,-0.09756l0.9876,1.613z" fill="#7c6e75" stroke-width="0"/><path d="M206.85557,187.32886c0,0 -18.12214,1.36119 -23.75021,1.9119c-8.5221,0.83388 -25.57081,3.31233 -25.57081,3.31233c0,0 14.98322,-4.57535 28.47647,-6.21266c14.63014,-1.77528 58.66483,-3.62813 58.66483,-3.62813l0.04856,5.40885z" fill="#75686e" stroke-width="0"/><path d="M200.01619,196.16111l-3.24823,-0.54166c0,0 9.74866,-2.47205 15.09485,-1.75723c5.3462,0.71482 14.66748,5.73665 14.66748,5.73665z" fill="#7c6e76" stroke-width="0"/><path d="M153.52579,192.54819c0,0 -32.49419,-15.10529 -33.42713,-19.71724c-0.84745,-4.18938 29.84166,2.08011 30.13842,1.9692c5.19302,-1.94059 77.00825,-9.80059 77.00825,-9.80059l26.66864,6.55014l52.75464,-1.04515l7.42987,13.50928c0,0 -61.54615,1.72157 -85.30998,2.098c-8.24907,0.13067 -25.08651,-0.36587 -40.37954,0.91179c-11.79656,0.98553 -29.44339,5.4608 -29.44339,5.4608z" fill="#ee96c3" stroke-width="0"/><path d="M24.51206,206.25044l3.14584,-20.18305c0,0 -0.16489,-7.05295 7.05841,-9.41387c8.97158,-2.93235 25.87572,-1.29895 27.94629,-1.31753c1.58893,-0.01427 -12.81356,10.53214 -12.81356,10.53214l0.18095,20.15318z" fill="#c4b4b3" stroke-width="0"/><g stroke-width="0"><path d="M305.49572,185.47317l-2.99299,-15.11659l92.81376,5.93137l-0.70458,5.8135l-47.38304,5.28279z" fill="#ad6d8e"/><path d="M331.71134,170.90098l7.19817,-8.3377l26.75452,-2.36936l-4.21146,10.44001z" fill="#8d788b"/><path d="M306.25203,172.31828l-0.14577,-16.23464l32.87352,6.48317l-4.51684,6.90982z" fill="#857183"/><path d="M348.63925,168.61664l16.96211,-8.4209l27.87438,3.52254l-0.22416,6.89629z" fill="#947e92"/><path d="M302.07768,171.7472l2.77888,-12.79143l1.41924,-3.0767l0.13526,15.06322z" fill="#756474"/><path d="M306.74613,182.24744l-0.82968,-12.06578l43.29726,-2.03768l-1.08185,16.06742z" fill="#746373"/><path d="M348.12402,184.19601c0,0 0.32335,-6.31062 0.49653,-9.15645c0.14828,-2.43652 0.47949,-6.88206 0.47949,-6.88206l44.20637,0.51219l2.07534,8.38171z" fill="#867284"/><path d="M302.1175,171.67638l4.01369,-1.567l0.64502,12.14542z" fill="#6f5e6d"/><path d="M386.25978,163.67542l-19.84759,-3.18556l26.75884,3.39624l-0.33178,3.54858c0,0 -0.32766,-1.56642 -1.54227,-2.2604c-0.81251,-0.46424 -5.03721,-1.49888 -5.03721,-1.49888z" fill="#978195"/><path d="M346.95941,167.98193c0,0 7.9432,-3.53673 10.70914,-4.91572c2.01489,-1.00453 4.35915,-2.59667 4.35915,-2.59667l2.53475,0.08986l-14.95449,7.39874z" fill="#9c859a"/><path d="M332.58639,168.91936c0,0 1.29163,-2.764 2.62973,-4.12634c1.33811,-1.36235 3.6389,-2.19827 3.6389,-2.19827l-3.8072,6.30251z" fill="#806b7d"/><path d="M367.1627,158.43587l2.08177,-5.75226l15.23291,3.5967l5.65724,6.34946z" fill="#55494f"/><path d="M364.65461,161.2586c0,0 1.0753,-0.79989 1.63042,-1.38966c0.41815,-0.44425 1.09368,-1.83494 1.09368,-1.83494l22.34874,3.79949c0,0 0.8723,0.48916 1.46142,0.80955c0.61565,0.33484 2.1564,1.15805 2.1564,1.15805z" fill="#685960"/><path d="M367.71586,157.53868l1.6173,-4.60007l14.17564,3.19968c0,0 -8.02014,-1.46075 -12.49876,-1.16588c-2.59786,0.17104 -3.29415,2.56626 -3.29415,2.56626z" fill="#41383c"/></g><path d="M25.79866,166.95719l-0.04677,-5.20812c0,0 22.324,-1.49557 44.28176,-1.63576c13.08481,-0.08354 26.66848,1.39221 33.58633,0.97997c15.59821,-0.92954 26.02607,-5.53559 26.02607,-5.53559l-6.24476,10.69961z" fill="#ffa1d1" stroke-width="0"/><path d="M23.34612,180.93736l2.01586,-16.10133c0,0 54.81259,1.56843 72.65507,0.96754c10.56915,-0.35594 24.53502,-4.24071 24.53502,-4.24071l0.13147,14.64176c0,0 -67.4983,0.60607 -83.77002,0.75218c-6.69032,0.06008 -15.32599,30.86378 -15.32599,30.86378z" fill="#ee96c3" stroke-width="0"/><path d="M203.2351,255.8173l9.15755,-13.67867c0,0 9.77586,-15.94568 19.11419,-22.89255c2.37304,-1.76531 7.53161,-3.00819 7.53161,-3.00819c0,0 -7.25883,5.05048 -9.8285,7.86511c-6.06839,6.6469 -25.97484,31.71427 -25.97484,31.71427z" fill="#70646b" stroke-width="0"/><path d="M298.6575,190.11722l-6.46201,-17.94451l1.35007,-0.01213c0,0 1.95703,5.43453 2.99114,8.30616c0.14735,0.40916 1.52324,1.61795 1.70572,2.12473c0.31637,0.87851 -0.53377,1.1297 -0.18018,2.1116c0.98459,2.73416 1.94532,5.402 1.94532,5.402z" fill="#795467" stroke-width="0"/><path d="M123.31981,176.63073c0,0 -10.54044,-6.45796 -9.89501,-10.2388c0.38644,-2.26382 17.15696,-10.36684 17.15696,-10.36684l68.51418,1.05698l-1.60881,3.11071l29.69605,4.98197l-71.55447,27.21879c0,0 -0.84173,-5.6065 2.73474,-8.49687c3.47596,-2.80916 18.43116,-8.60866 18.43116,-8.60866c0,0 -34.21647,0.25823 -41.50786,0.23702c-2.4326,-0.00708 -11.96696,1.10572 -11.96696,1.10572z" fill="#f399c8" stroke-width="0"/><g><path d="M128.8022,157.9653l-0.02907,-3.2382l176.54655,-1.58522l0.02907,3.2382z" fill="#584f54" stroke-width="0"/><path d="M299.52576,153.44213l-0.02457,-2.73621l3.05513,-0.02742l2.72026,2.712z" fill="#685d63" stroke-width="0"/><g fill="#685d63" stroke-width="0"><g><g><g><path d="M292.86824,153.7511l-0.02673,-2.97689l3.88098,-0.03485l0.02673,2.97689z"/><path d="M286.57097,153.80765l-0.02673,-2.97689l3.88098,-0.03485l0.02673,2.97689z"/></g><g><path d="M280.5113,153.86207l-0.02673,-2.97689l3.88098,-0.03485l0.02673,2.97689z"/><path d="M274.21402,153.91861l-0.02673,-2.97689l3.88098,-0.03485l0.02673,2.97689z"/></g></g><g><g><path d="M268.03556,153.97409l-0.02673,-2.97689l3.88098,-0.03485l0.02673,2.97689z"/><path d="M261.73827,154.03063l-0.02673,-2.97689l3.88098,-0.03485l0.02673,2.97689z"/></g><g><path d="M255.67862,154.08504l-0.02673,-2.97689l3.88098,-0.03485l0.02673,2.97689z"/><path d="M249.3814,154.14157l-0.02673,-2.97689l3.88098,-0.03485l0.02673,2.97689z"/></g></g></g><g><g><g><path d="M249.14377,154.14372l-0.02673,-2.97689l3.88098,-0.03485l0.02673,2.97689z"/><path d="M242.84648,154.20026l-0.02673,-2.97689l3.88098,-0.03485l0.02673,2.97689z"/></g><g><path d="M236.78683,154.25468l-0.02673,-2.97689l3.88098,-0.03485l0.02673,2.97689z"/><path d="M230.48956,154.31122l-0.02673,-2.97689l3.88098,-0.03485l0.02673,2.97689z"/></g></g><g><g><path d="M224.31113,154.3667l-0.02673,-2.97689l3.88098,-0.03485l0.02673,2.97689z"/><path d="M218.01384,154.42324l-0.02673,-2.97689l3.88098,-0.03485l0.02673,2.97689z"/></g><g><path d="M211.95419,154.47765l-0.02673,-2.97689l3.88098,-0.03485l0.02673,2.97689z"/><path d="M205.6569,154.53419l-0.02673,-2.97689l3.88098,-0.03485l0.02673,2.97689z"/></g></g></g></g><g><g fill="#685d63" stroke-width="0"><g><g><path d="M199.43804,154.59003l-0.02673,-2.97689l3.88098,-0.03485l0.02673,2.97689z"/><path d="M193.14076,154.64658l-0.02673,-2.97689l3.88098,-0.03485l0.02673,2.97689z"/></g><g><path d="M187.08112,154.70098l-0.02673,-2.97689l3.88098,-0.03485l0.02673,2.97689z"/><path d="M180.78388,154.75752l-0.02673,-2.97689l3.88098,-0.03485l0.02673,2.97689z"/></g></g><g><g><path d="M174.60541,154.81301l-0.02673,-2.97689l3.88098,-0.03485l0.02673,2.97689z"/><path d="M168.30812,154.86954l-0.02673,-2.97689l3.88098,-0.03485l0.02673,2.97689z"/></g><g><path d="M162.24846,154.92396l-0.02673,-2.97689l3.88098,-0.03485l0.02673,2.97689z"/><path d="M155.95118,154.98049l-0.02673,-2.97689l3.88098,-0.03485l0.02673,2.97689z"/></g></g></g><g><g fill="#685d63" stroke-width="0"><g><path d="M155.71356,154.98265l-0.02673,-2.97689l3.88098,-0.03485l0.02673,2.97689z"/><path d="M149.41626,155.03919l-0.02673,-2.97689l3.88098,-0.03485l0.02673,2.97689z"/></g><g><path d="M143.35661,155.0936l-0.02673,-2.97689l3.88098,-0.03485l0.02673,2.97689z"/><path d="M137.05937,155.15014l-0.02673,-2.97689l3.88098,-0.03485l0.02673,2.97689z"/></g></g><g fill="none" stroke-width="1" font-family="sans-serif" font-weight="normal" font-size="12" text-anchor="start"><g/><g/></g></g></g><path d="M128.84688,154.97466l2.67113,-2.76042l3.05513,-0.02742l0.02457,2.73621z" data-paper-data="{&quot;index&quot;:null}" fill="#685d63" stroke-width="0"/></g><path d="M186.05091,187.34879l-2.54934,0.29293c0,0 1.6558,-2.58251 11.24042,-3.79632c7.26657,-0.92024 27.81726,-2.41627 40.12041,-3.27254c5.71328,-0.39765 62.13195,-9.90651 62.13195,-9.90651l5.19844,-0.06099c0,0 -61.61762,11.19843 -67.32686,11.57281c-12.62469,0.82783 -33.85185,2.25568 -39.99509,2.88935c-3.34412,0.34495 -8.81996,2.2813 -8.81996,2.2813z" fill="#70475c" stroke-width="0"/><path d="M287.12808,205.46963l-4.90703,1.88993l-0.16926,-18.93062c0,0 7.79159,-0.02156 15.41158,-0.04264c21.87479,-0.06055 127.00652,-0.35149 127.00652,-0.35149l0.06041,6.72699z" fill="#5a5959" stroke-width="0"/><path d="M286.22766,207.10622l1.06388,-3.01574l137.24991,-9.43823l-11.72494,11.31732z" fill="#4b4a4a" stroke-width="0"/><path d="M409.52917,205.80993c0,0 -5.93497,-3.17157 -8.98013,-4.57237c-1.63198,-0.75072 -7.87064,-3.17909 -7.87064,-3.17909c0,0 8.0272,2.8318 11.38019,3.74967c1.19663,0.32759 2.32686,1.06027 3.63558,1.57666c0.42199,0.1665 2.22058,-2.60894 4.10404,-4.34027c0.56294,-0.51749 1.72643,-0.16338 2.24884,-0.49888c1.19757,-0.76913 1.54676,-1.86373 1.54676,-1.86373c0,0 0.34578,0.92651 -0.86218,2.15115c-0.3296,0.33414 -2.12928,0.70264 -2.45146,1.06591c-1.29127,1.45593 -2.27866,3.06395 -2.57848,3.65786c-0.83668,1.65739 1.29087,2.23995 1.29087,2.23995z" fill="#414040" stroke-width="0"/><path d="M123.27351,176.92859l3.7154,-11.13258l7.00021,-0.68718c0,0 -0.92683,2.65663 -1.47306,4.22234c-0.13758,0.39435 11.63849,-1.66762 11.9965,-0.99979c0.66426,1.23905 -4.87386,5.04884 -5.21738,6.03354c-0.39273,1.12573 -9.0933,1.59968 -9.0933,1.59968z" fill="#303030" stroke-width="0"/><path d="M123.12663,176.55985l3.61841,-10.2966c0,0 3.01175,1.27759 3.02059,2.26255c0.01609,1.7921 -1.51092,7.59322 -1.51092,7.59322z" fill="#252525" stroke-width="0"/><path d="M282.22681,210.01535l-0.02652,-2.95226l5.49707,-3.00186l-1.21154,2.96338c0,0 -1.07835,1.34501 -1.82741,1.87102c-0.65908,0.46282 -2.43162,1.11973 -2.43162,1.11973z" fill="#383838" stroke-width="0"/><g><g fill="#4b4b4b" stroke-width="0"><g data-paper-data="{&quot;origPos&quot;:null}"><g data-paper-data="{&quot;origPos&quot;:null}"><path d="M349.37763,210.78341l-0.02041,-2.27263l3.74985,-0.03367l0.02041,2.27263z" data-paper-data="{&quot;origPos&quot;:null}"/><path d="M343.12686,210.7259l-0.02041,-2.27263l3.74985,-0.03367l0.02041,2.27263z" data-paper-data="{&quot;origPos&quot;:null}"/></g><g data-paper-data="{&quot;origPos&quot;:null}"><path d="M361.87816,210.78482l-0.02041,-2.27263l3.74985,-0.03367l0.02041,2.27263z" data-paper-data="{&quot;origPos&quot;:null}"/><path d="M355.62738,210.7273l-0.02041,-2.27263l3.74985,-0.03367l0.02041,2.27263z" data-paper-data="{&quot;origPos&quot;:null}"/></g></g><g data-paper-data="{&quot;origPos&quot;:null,&quot;index&quot;:null}"><g data-paper-data="{&quot;origPos&quot;:null}"><path d="M381.07987,210.38512l-0.02041,-2.27263l3.74985,-0.03367l0.02041,2.27263z" data-paper-data="{&quot;origPos&quot;:null}"/><path d="M387.3286,210.21537l-0.02041,-2.27262l3.74985,-0.03367l0.02041,2.27262z" data-paper-data="{&quot;origPos&quot;:null}"/></g><g data-paper-data="{&quot;origPos&quot;:null}"><path d="M368.5814,210.61098l-0.02041,-2.27263l3.74985,-0.03367l0.02041,2.27263z" data-paper-data="{&quot;origPos&quot;:null}"/><path d="M374.83012,210.44122l-0.02041,-2.27263l3.74985,-0.03367l0.02041,2.27263z" data-paper-data="{&quot;origPos&quot;:null}"/></g></g></g><path d="M306.58358,202.92222l-0.1222,-13.61056l84.47062,-0.75847l0.1222,13.61056z" data-paper-data="{&quot;origPos&quot;:null}" fill="#444444" stroke-width="0"/><path d="M306.72451,207.64335l-0.04294,-4.78227l84.22233,-0.75625l0.04294,4.78227z" data-paper-data="{&quot;origPos&quot;:null}" fill="#414141" stroke-width="0"/><path d="M306.77209,209.06723l-0.01452,-1.61758l84.21163,-0.75614l0.01452,1.61758z" data-paper-data="{&quot;origPos&quot;:null}" fill="#3f3f3f" stroke-width="0"/><g stroke-width="0"><g data-paper-data="{&quot;origPos&quot;:null}" fill="#5a5a5a"><g data-paper-data="{&quot;origPos&quot;:null}"><path d="M349.85422,202.61307l-0.12345,-13.74945l3.57129,-0.03207l0.12345,13.74945z" data-paper-data="{&quot;origPos&quot;:null}"/></g><g data-paper-data="{&quot;origPos&quot;:null}"><path d="M355.9254,202.55855l-0.12345,-13.74945l3.57129,-0.03207l0.12345,13.74945z" data-paper-data="{&quot;origPos&quot;:null}"/><path d="M362.17515,202.50242l-0.12345,-13.74945l3.57129,-0.03207l0.12345,13.74945z" data-paper-data="{&quot;origPos&quot;:null}"/></g></g><g data-paper-data="{&quot;origPos&quot;:null}" fill="#5a5a5a"><g data-paper-data="{&quot;origPos&quot;:null}"><path d="M368.78203,202.44311l-0.12345,-13.74945l3.57129,-0.03207l0.12345,13.74945z" data-paper-data="{&quot;origPos&quot;:null}"/><path d="M375.03177,202.38699l-0.12345,-13.74945l3.57129,-0.03207l0.12345,13.74945z" data-paper-data="{&quot;origPos&quot;:null}"/></g><g data-paper-data="{&quot;origPos&quot;:null}"><path d="M381.10296,202.33248l-0.12345,-13.74945l3.57129,-0.03207l0.12345,13.74945z" data-paper-data="{&quot;origPos&quot;:null}"/><path d="M387.35271,202.27637l-0.12345,-13.74945l3.57129,-0.03207l0.12345,13.74945z" data-paper-data="{&quot;origPos&quot;:null}"/></g></g><path d="M353.48683,202.58045l-0.86145,1.93885l-5.24079,0.09015l-0.22728,-9.7948l2.51456,-5.95051l0.19243,13.74883z" fill="#3a3a3a"/><path d="M359.55556,202.52597l-0.86145,1.93885l-5.24079,0.09015l-0.22728,-9.7948l2.51456,-5.95051l0.19243,13.74883z" fill="#3a3a3a"/><path d="M365.76219,202.47023l-0.86145,1.93885l-5.24079,0.09015l-0.22728,-9.7948l2.51456,-5.95051l0.19243,13.74883z" fill="#3a3a3a"/><path d="M372.45159,202.41017l-0.86145,1.93885l-5.24079,0.09015l-0.22728,-9.7948l2.51456,-5.95051l0.19243,13.74883z" fill="#3a3a3a"/><path d="M378.7272,202.35382l-0.86145,1.93885l-5.24079,0.09015l-0.22728,-9.7948l2.51456,-5.95051l0.19243,13.74883z" fill="#3a3a3a"/><path d="M384.72693,202.29995l-0.86145,1.93885l-5.24079,0.09015l-0.22728,-9.7948l2.51456,-5.95051l0.19243,13.74883z" fill="#3a3a3a"/><path d="M391.0105,202.24352l-0.86145,1.93885l-5.24079,0.09015l-0.22728,-9.7948l2.51456,-5.95051l0.19243,13.74883z" fill="#3a3a3a"/></g><g stroke-width="0"><g data-paper-data="{&quot;origPos&quot;:null}" fill="#5a5a5a"><g data-paper-data="{&quot;origPos&quot;:null}"><path d="M306.62692,203.0012l-0.12345,-13.74945l3.57129,-0.03207l0.12345,13.74945z" data-paper-data="{&quot;origPos&quot;:null}"/></g><g data-paper-data="{&quot;origPos&quot;:null}"><path d="M312.69806,202.94669l-0.12345,-13.74945l3.57129,-0.03207l0.12345,13.74945z" data-paper-data="{&quot;origPos&quot;:null}"/><path d="M318.94781,202.89058l-0.12345,-13.74945l3.57129,-0.03207l0.12345,13.74945z" data-paper-data="{&quot;origPos&quot;:null}"/></g></g><g data-paper-data="{&quot;origPos&quot;:null}" fill="#5a5a5a"><g data-paper-data="{&quot;origPos&quot;:null}"><path d="M325.55473,202.83124l-0.12345,-13.74945l3.57129,-0.03207l0.12345,13.74945z" data-paper-data="{&quot;origPos&quot;:null}"/><path d="M331.80449,202.77513l-0.12345,-13.74945l3.57129,-0.03207l0.12345,13.74945z" data-paper-data="{&quot;origPos&quot;:null}"/></g><g data-paper-data="{&quot;origPos&quot;:null}"><path d="M337.87568,202.72062l-0.12345,-13.74945l3.57129,-0.03207l0.12345,13.74945z" data-paper-data="{&quot;origPos&quot;:null}"/><path d="M344.12544,202.6645l-0.12345,-13.74945l3.57129,-0.03207l0.12345,13.74945z" data-paper-data="{&quot;origPos&quot;:null}"/></g></g><path d="M310.2595,202.9686l-0.86145,1.93885l-2.72925,0.06761l-0.03182,-1.97393z" fill="#3a3a3a"/><path d="M316.32827,202.91411l-0.86145,1.93885l-5.24079,0.09015l-0.22728,-9.7948l2.51456,-5.95051l0.19243,13.74883z" fill="#3a3a3a"/><path d="M322.53487,202.85837l-0.86145,1.93885l-5.24079,0.09015l-0.22728,-9.7948l2.51456,-5.95051l0.19243,13.74883z" fill="#3a3a3a"/><path d="M329.22423,202.79831l-0.86145,1.93885l-5.24079,0.09015l-0.22728,-9.7948l2.51456,-5.95051l0.19243,13.74883z" fill="#3a3a3a"/><path d="M335.49992,202.74197l-0.86145,1.93885l-5.24079,0.09015l-0.22728,-9.7948l2.51456,-5.95051l0.19243,13.74883z" fill="#3a3a3a"/><path d="M341.49966,202.68809l-0.86145,1.93885l-5.24079,0.09015l-0.22728,-9.7948l2.51456,-5.95051l0.19243,13.74883z" fill="#3a3a3a"/><path d="M347.78324,202.63168l-0.86145,1.93885l-5.24079,0.09015l-0.22728,-9.7948l2.51456,-5.95051l0.19243,13.74883z" fill="#3a3a3a"/></g><g><g data-paper-data="{&quot;origPos&quot;:null}"><g data-paper-data="{&quot;origPos&quot;:null}" fill="none" stroke-width="1" font-family="sans-serif" font-weight="normal" font-size="12" text-anchor="start"/><g data-paper-data="{&quot;origPos&quot;:null}" fill="#4b4b4b" stroke-width="0"><path d="M313.14502,211.29932l-0.02041,-2.27263l3.74985,-0.03367l0.02041,2.27263z" data-paper-data="{&quot;origPos&quot;:null}"/><path d="M306.89425,211.24179l-0.02041,-2.27263l3.74985,-0.03367l0.02041,2.27263z" data-paper-data="{&quot;origPos&quot;:null}"/></g></g><g data-paper-data="{&quot;origPos&quot;:null,&quot;index&quot;:null}" fill="#4b4b4b" stroke-width="0"><g data-paper-data="{&quot;origPos&quot;:null}"><path d="M332.34679,210.89962l-0.02041,-2.27263l3.74985,-0.03367l0.02041,2.27263z" data-paper-data="{&quot;origPos&quot;:null}"/><path d="M338.59551,210.72983l-0.02041,-2.27262l3.74985,-0.03367l0.02041,2.27262z" data-paper-data="{&quot;origPos&quot;:null}"/></g><g data-paper-data="{&quot;origPos&quot;:null}"><path d="M319.84825,211.12548l-0.02041,-2.27263l3.74985,-0.03367l0.02041,2.27263z" data-paper-data="{&quot;origPos&quot;:null}"/><path d="M326.09698,210.95571l-0.02041,-2.27263l3.74985,-0.03367l0.02041,2.27263z" data-paper-data="{&quot;origPos&quot;:null}"/></g></g></g></g><path d="M135.93871,175.22081l1.00173,-4.22428c0,0 4.58263,-3.18875 8.11227,-3.37046c4.03509,-0.20773 34.00301,-0.45186 34.00301,-0.45186c0,0 0.67881,1.86973 0.63682,3.08736c-0.05409,1.56875 -2.14256,4.65225 -2.14256,4.65225z" fill="#242424" stroke-width="0"/><path d="M160.78933,171.18752l-0.02828,-3.15018l18.00107,-0.16164l0.02828,3.15018z" fill="#313131" stroke-width="0"/><path d="M157.51301,173.14761l-0.00585,-0.6522c0,0 1.05837,-1.0607 2.08141,-1.06989c0.97145,-0.00873 3.16364,0.44655 5.61689,0.5879c4.67343,0.26926 10.30254,0.32037 10.30254,0.32037l0.00585,0.6522c0,0 -5.42806,0.04672 -10.03637,-0.22257c-2.51449,-0.14692 -4.7877,-0.69553 -5.79548,-0.68647c-1.05924,0.00952 -2.16899,1.07068 -2.16899,1.07068z" fill="#616161" stroke-width="0"/><path d="M184.50398,157.19371l12.71995,2.91253l30.89689,5.03088c0,0 0.73515,0.2176 -7.36966,-0.43791c-2.75715,-0.22301 -13.40949,-1.73645 -22.64898,-3.55638c-2.50009,-0.49245 -15.86452,-3.81339 -15.86452,-3.81339z" fill="#df8cb7" stroke-width="0"/><path d="M3.48082,165.1557l-0.05327,-5.93288c0,0 5.7541,-1.8047 9.55778,-1.83885c3.11394,-0.02796 11.62756,3.40166 11.62756,3.40166l-0.02466,12.27147z" fill="#626061" stroke-width="0"/><path d="M119.62537,174.09895l3.81865,2.47183l12.2348,-1.43308l50.7429,-0.45563l0.00979,1.09099c0,0 -38.06597,0.19653 -49.96659,0.56564c-3.26729,0.10133 -12.9598,0.90926 -12.9598,0.90926z" fill="#ffa6d4" stroke-width="0"/><path d="M1.17257,229.1093l-0.06438,-7.16928l23.27745,-16.8399l-1.48445,13.68275l-13.78006,10.25507z" fill="#3f3d3e" stroke-width="0"/><path d="M-0.50291,224.064c0,0 0.01113,-19.65272 0.73073,-29.2429c0.81219,-10.824 3.8983,-32.44872 3.8983,-32.44872c0,0 8.61254,-0.2667 12.20923,1.3469c3.07827,1.381 8.05872,7.74591 8.05872,7.74591l0.30125,33.55021c0,0 -11.73331,13.80405 -14.75779,16.09041c-4.65219,3.51683 -10.44043,2.9582 -10.44043,2.9582z" fill="#555354" stroke-width="0"/><path d="M4.07048,172.97175c0,0 -1.59391,-5.97883 0.44792,-8.6945c2.04185,-2.71566 6.3821,-3.77163 8.9423,-3.79461c2.04232,-0.01834 6.26952,0.02245 9.18285,4.45496c2.91332,4.43251 1.05369,11.11956 1.05369,11.11956c0,0 -6.39299,-10.34671 -8.95305,-10.74916c-3.61254,-0.56789 -10.67371,7.66377 -10.67371,7.66377z" fill="#6f6b6c" stroke-width="0"/><path d="M-1.91214,228.94868c0,0 1.48045,-26.07688 1.37771,-37.5202c-0.107,-11.91733 -0.50735,-32.63298 -0.50735,-32.63298c0,0 1.15039,-0.65331 2.19116,-0.66265c0.95167,-0.00855 2.52425,0.62032 2.52425,0.62032c0,0 -0.04233,19.15643 0.0537,29.85082c0.11157,12.42498 -2.20991,40.31392 -2.20991,40.31392z" fill="#333232" stroke-width="0"/><path d="M-2.33894,229.39616l0.96205,-14.71747c0,0 1.06312,0.87939 1.66223,0.83533c0.75641,-0.05562 2.42045,-1.50813 2.42045,-1.50813l-1.07576,15.35462z" fill="#2e2d2d" stroke-width="0"/><path d="M23.09663,192.90653c0.07331,8.16429 -3.97291,16.86891 -8.31171,19.83538c-3.60349,2.46376 -11.04116,9.28873 -11.11448,1.12442c-0.01556,-1.732 1.92176,-13.62926 1.98708,-20.65994c0.08637,-9.29798 -1.60402,-14.26394 -0.67165,-17.10401c1.6859,-5.13535 7.19565,-6.66437 9.41006,-6.68426c4.36508,-0.03919 8.6274,15.32411 8.70071,23.4884z" fill="#585758" stroke-width="0"/><path d="M57.68346,206.6795l-0.6082,-1.73535c0,0 7.92729,-1.42177 13.94067,-1.95994c8.46549,-0.75762 32.06125,-2.15697 32.06125,-2.15697l1.80736,1.265c0,0 -25.09506,1.84578 -33.80153,2.69193c-2.55697,0.24851 -13.39955,1.89533 -13.39955,1.89533z" fill="#585657" stroke-width="0"/><path d="M51.91184,219.93238l5.06661,-13.73746l7.23347,-1.01564c0,0 -1.6993,4.32892 -1.60623,5.08327c0.44468,3.60447 3.65669,27.54364 3.65669,27.54364c0,0 -1.47344,0.45367 -2.67962,-1.41112c-2.16423,-3.34599 -4.06129,-10.19125 -5.83217,-12.27808c-1.53004,-1.80303 -5.83874,-4.1846 -5.83874,-4.1846z" fill="#5a5759" stroke-width="0"/><path d="M64.1642,189.01706l2.78702,-11.35882l2.33224,-0.13206l-3.89609,11.59101z" fill="#a5a0a2" stroke-width="0"/><path d="M70.94388,187.87264l-0.0126,-1.40269l26.49519,-0.2379l0.0126,1.40269z" fill="#494748" stroke-width="0"/><path d="M70.8366,184.90217l-0.0126,-1.40269l26.49519,-0.2379l0.0126,1.40269z" fill="#494748" stroke-width="0"/><path d="M51.60513,207.48351l-0.18081,-20.13752l12.16054,-9.72581l4.84156,-0.35525l-15.89068,42.95795l-5.62898,-1.95291z" fill="#dbd5d8" stroke-width="0"/><path d="M25.21465,219.63538l-0.26376,-11.78891l26.64632,-1.02881c0,0 0.35306,2.53466 0.23003,3.3343c-0.30663,1.99331 -2.25152,8.94886 -2.25152,8.94886z" fill="#ccc6c9" stroke-width="0"/><path d="M28.90209,208.21139l-0.00284,-0.3158l22.80828,-1.0733l-2.59467,1.20761c0,0 -4.3198,0.22501 -7.02867,0.21758c-3.70918,-0.01016 -13.18211,-0.03611 -13.18211,-0.03611z" fill="#d8d1d5" stroke-width="0"/><path d="M32.38383,204.4432l-0.15264,-16.99932l16.12434,-0.14478l0.15264,16.99932z" fill="#a39999" stroke-width="0"/><path d="M24.93965,219.8076l-0.102,-11.35884c0,0 8.89383,6.30708 13.20136,8.60908c4.30754,2.302 10.80594,1.96367 10.80594,1.96367z" fill="#b4afb1" stroke-width="0"/><path d="M58.63575,225.54793c0,0 3.03869,1.01327 4.13349,0.85968c0.67254,-0.09435 1.81048,-1.69357 1.81048,-1.69357l1.73994,9.05793l0.03766,4.19495c0,0 -1.94016,0.32887 -3.24235,-2.24214c-1.07442,-2.12129 -4.4792,-10.17684 -4.4792,-10.17684z" fill="#504e4f" stroke-width="0"/><path d="M52.22129,220.48596l14.08616,-41.87175l1.74536,0.18947l-13.97991,42.28106z" fill="#858183" stroke-width="0"/><path d="M35.01986,179.88277l1.49987,-1.66402c0,0 27.40872,-0.89003 39.8185,-1.00146c10.77086,-0.09671 31.94682,0.06615 31.94682,0.06615l0.54688,1.93656c0,0 -21.30276,-0.51471 -32.65592,-0.41276c-12.96384,0.11641 -41.15617,1.07553 -41.15617,1.07553z" fill="#918b8e" stroke-width="0"/><path d="M36.02698,178.64292l2.00636,-1.95949c0,0 25.88412,-0.58542 38.29391,-0.69685c10.77086,-0.09671 31.94682,0.06615 31.94682,0.06615l0.54688,1.93656c0,0 -21.30276,-0.51471 -32.65592,-0.41276c-12.96384,0.11641 -40.13803,1.06639 -40.13803,1.06639z" fill="#a59fa2" stroke-width="0"/><path d="M100.81969,198.84804l-1.97648,-5.66512c0,0 0.20081,-1.20688 0.53276,-1.3227c0.29248,-0.10204 1.3556,0.66386 1.3556,0.66386l1.97647,5.66512c0,0 -0.26824,0.88005 -0.5614,0.98234c-0.33156,0.11568 -1.32697,-0.32351 -1.32697,-0.32351z" fill="#494242" stroke-width="0"/><path d="M60.57052,201.85818l3.45755,-9.51714l3.88557,-0.0349l-3.45755,9.51714z" fill="#9c989a" stroke-width="0"/><path d="M69.97776,183.99684l1.84193,-0.98454l24.438,-0.20138l2.0265,0.93176z" fill="#757274" stroke-width="0"/><path d="M70.09731,186.80718l1.84193,-0.98454l24.438,-0.20138l2.0265,0.93176z" fill="#757274" stroke-width="0"/><path d="M22.51024,218.8464l1.18469,-58.17069l1.92544,0.56346l-0.63561,58.56695z" fill="#686666" stroke-width="0"/><path d="M22.34931,219.11818l0.50862,-16.26095l2.32526,3.79774l-0.31687,13.31345z" fill="#535252" stroke-width="0"/><path d="M52.88853,195.96832c0,0 2.1029,-2.36444 2.09441,-3.31121c-0.00835,-0.92906 -2.14494,-2.31728 -2.14494,-2.31728c0,0 3.00797,0.64272 2.91888,2.33188c-0.06784,1.28662 -1.0987,3.48497 -1.17618,4.58809c-0.22032,3.13656 -0.84293,10.48982 -0.84293,10.48982z" fill="#c4bec1" stroke-width="0"/><path d="M60.54704,193.98784l1.82002,-10.21217l2.50965,-4.377l-2.56913,9.58165z" fill="#aca7a9" stroke-width="0"/></g></g><g stroke-width="0"><path d="M178.35118,165.09848l2.52498,-3.352c0,0 1.79448,-1.45249 2.62185,-1.18494c0.94335,0.30508 2.73612,2.91765 2.73612,2.91765l-0.50529,4.08664c0,0 -4.28113,0.0309 -5.54856,-0.09102c-0.57135,-0.05496 -1.82911,-2.37631 -1.82911,-2.37631z" fill="#c0c0c0"/><path d="M135.52074,175.13456c0,0 -0.20235,-2.8783 0.84653,-4.02663c1.31443,-1.43908 7.37429,-3.70579 7.37429,-3.70579l-0.66801,4.74328l0.02623,2.92109z" fill="#838383"/><path d="M135.34789,175.06174l8.03724,-7.55376l37.56083,-0.33726l0.06717,7.48099z" fill="#999999"/><path d="M136.34096,174.39639l6.10704,-5.89619l33.77095,-0.30323l0.05244,5.84088c0,0 -4.08743,0.03671 -9.34542,0.08392c-3.41853,0.0307 -7.34141,-0.99614 -10.94792,-0.96376c-3.86891,0.03475 -7.37519,1.12829 -9.54828,1.1478c-4.25299,0.03818 -10.0888,0.09059 -10.0888,0.09059z" fill="#d952b3"/><path d="M139.83301,174.36284l8.31553,-5.97821l12.4636,-0.11191c0,0 -7.35867,1.97351 -9.72045,2.9093c-2.50732,0.99345 -5.70042,3.1327 -5.70042,3.1327z" fill="#a5899d"/><path d="M147.82087,174.17835c0,0 5.07621,-1.01774 7.53321,-1.03978c3.13945,-0.0282 9.76296,0.88449 9.76296,0.88449l-9.65669,-0.24851z" fill="#adadad"/><path d="M135.45231,175.04267l7.25876,-6.8171l34.96527,-0.31395l0.00618,0.68854c0,0 -30.27557,0.27184 -34.22204,0.30728c-0.82545,0.0074 -8.00815,6.13523 -8.00815,6.13523z" fill="#8a8a8a"/><path d="M182.67365,180.85468l-0.0876,-9.75495l0.58607,-7.20744c0,0 1.19132,0.45924 1.75028,1.01773c0.55896,0.5585 0.9525,1.68283 0.9525,1.68283l-1.18836,14.24377z" fill="#9e9e9e"/><path d="M177.1843,176.67302c0,0 -0.93079,-2.11666 -1.08177,-3.70449c-0.20329,-2.13822 0.60268,-7.66388 0.60268,-7.66388l1.93842,-0.34277c0,0 0.76595,0.78494 1.24246,0.6315c0.65698,-0.21154 2.33492,-1.78339 2.33492,-1.78339l-0.38753,12.82129z" fill="#9c9c9c"/><path d="M177.77467,178.49848c-0.79227,-1.09736 -0.56418,-2.47258 -0.56418,-2.47258l4.81282,-7.24387c0,0 1.42844,3.87114 1.43667,4.78754c0.02339,2.60543 1.07249,7.34589 1.07249,7.34589c0,0 -2.97922,0.11049 -4.02199,-0.31879c-1.25063,-0.51486 -1.94354,-1.00081 -2.7358,-2.09817z" fill="#888888"/><path d="M179.54837,177.70828c-1.00618,-1.99081 -2.05674,-6.44459 -0.24938,-10.52776c1.80735,-4.08317 4.24073,-1.97374 4.24073,-1.97374c0,0 1.04618,4.41377 1.06693,6.72652c0.01892,2.10675 -0.94738,6.58975 -0.94738,6.58975c0,0 -3.10474,1.17603 -4.11092,-0.81478z" fill="#b4b4b4"/><path d="M183.64091,169.97591c0.01267,1.41101 -5.09638,1.5343 -5.10904,0.1233c-0.01267,-1.41101 2.99743,-6.84043 3.80983,-6.84773c0.31464,-0.00282 0.95937,0.09325 1.16538,1.15212c0.3259,1.6752 0.12607,4.70779 0.13382,5.57232z" fill="#bbbbbb"/></g><g stroke-width="0"><path d="M119.52888,174.08469c0,0 -5.90048,-4.86455 -5.91731,-6.73789c-0.01373,-1.52958 6.02113,-1.7069 6.02113,-1.7069l7.5456,0.00409l-3.9272,10.81466z" fill="#f399c8"/><path d="M89.01875,176.00037c0,0 -0.98887,-2.08905 -0.74126,-3.16404c0.27326,-1.18632 2.30112,-4.80958 2.30112,-4.80958l23.03555,-0.39252l9.20323,8.54089z" fill="#ee96c3"/></g></g><g stroke-width="0"><g><path d="M184.32614,155.41854l-0.0555,-6.18157l47.81625,-0.42934l0.0555,6.18157z" fill="#61585b"/><path d="M184.13377,152.17657l-0.02971,-3.31021l47.99807,-0.43097l0.02971,3.31021c0,0 -8.64051,0.07759 -17.51654,0.15729c-2.77513,0.02493 -6.66307,1.57713 -9.22739,1.60016c-3.04927,0.02738 -6.33317,-1.46043 -8.28916,-1.44287c-5.86508,0.05267 -12.96499,0.11641 -12.96499,0.11641z" fill="#494344"/><path d="M245.89934,145.01651l-9.50296,-18.84838l20.91841,-0.18784l15.57856,16.6351c0,0 -5.69772,1.4126 -8.92728,1.69987c-4.98353,0.44328 -18.06674,0.70124 -18.06674,0.70124z" fill="#5e555b"/><path d="M245.93225,148.45144l-0.04973,-5.53827c0,0 12.28495,-1.56349 17.16987,-2.38703c3.87683,-0.65357 6.67712,-1.26078 6.67712,-1.26078l6.00145,6.88517c0,0 -5.31789,1.64395 -9.46158,2.1251c-5.61457,0.65192 -20.33714,0.17582 -20.33714,0.17582z" fill="url(#color-5)"/><path d="M234.703,126.3421l-0.03588,-3.99602l19.15074,-0.17196l3.6721,3.96337z" fill="url(#color-6)"/><path d="M245.34876,148.48162l-0.01132,-1.25917c0,0 15.60839,-0.21657 20.99318,-0.43245c4.02649,-0.16143 8.43262,-1.77789 8.43262,-1.77789l0.89914,1.1367l-8.20339,2.13427z" fill="#312c30"/><g><path d="M144.238,138.78846l-0.30597,-8.85597l93.92154,-0.84332l7.74152,11.21276z" fill="#8a6672"/><path d="M160.85099,146.92528c0,0 -3.55178,-3.57402 -6.36947,-5.01038c-2.81768,-1.43637 -9.87647,-1.13554 -9.87647,-1.13554l0.09347,-2.08801c0,0 12.32529,0.16577 19.35518,0.19784c16.79346,0.07665 80.97002,0.26007 80.97002,0.26007l3.68201,6.53424z" fill="#755761"/><path d="M163.72174,149.39049l-3.04856,-2.56451l87.57844,-1.27575l1.23309,3.0702z" fill="#694e57"/><path d="M143.77083,130.33005l-0.04067,-4.52881l90.7964,-1.49465l3.90031,5.62643c0,0 2.785,3.31316 -2.50126,3.33532c-1.66413,0.00698 -10.8149,-3.27948 -12.48321,-3.27247c-16.06678,0.06738 -79.67159,0.33418 -79.67159,0.33418z" fill="#916b77"/><path d="M143.97211,125.7992l-0.14147,-2.52335l89.90393,-0.946l1.06666,2.3828z" fill="#9e7582"/><path d="M218.10102,125.81747c-8.07332,-0.57547 -72.74379,-1.02716 -72.74379,-1.02716l87.85051,-0.78881l4.86739,7.39778c0,0 -11.9008,-5.00634 -19.97411,-5.58181z" fill="#b38f9a"/></g><path d="M194.59232,149.11049l-0.08236,-9.1734l20.21141,-0.18148l0.08236,9.1734z" fill="#3a3336"/><path d="M194.42216,139.94202l0.70276,-1.52885l18.53767,-0.16644l0.99876,1.51358z" fill="#4b4246"/><path d="M194.728,148.60989l-0.07343,-8.17724c0,0 1.10637,5.25613 3.77416,6.33849c2.66778,1.08236 15.9459,1.66233 15.9459,1.66233z" fill="#332c30"/><path d="M235.9787,128.55459l-3.97372,-5.96456c0,0 1.01691,-0.67583 1.61753,-0.68122c0.67142,-0.00603 2.22233,0.64674 2.22233,0.64674l3.97372,5.96456z" fill="#757575"/><path d="M239.04148,133.26188l-5.71139,-8.5613l3.83983,-0.03448l5.71139,8.5613z" fill="#5a5a5a"/><path d="M243.34412,139.67246l-5.71139,-8.5613l3.83983,-0.03448l5.71139,8.5613z" fill="#505050"/><path d="M247.79294,146.3125c-0.97549,-1.46224 -4.7817,-7.16771 -4.7817,-7.16771l3.83983,-0.03448l6.70633,10.26673c0,0 -2.05091,0.55393 -3.00055,0.54763c-0.74072,-0.00492 -2.33381,-2.96742 -2.76395,-3.61218z" fill="#3b3b3b"/><path d="M142.71929,141.40034l-0.16768,-18.674l3.18083,-0.02855l0.16768,18.674z" fill="#443e42"/><path d="M123.85825,143.1687l-0.7389,-5.92161l20.22775,-0.18162l0.05322,5.92776z" fill="url(#color-7)"/><path d="M123.12501,137.87771l-0.0974,-10.84655l20.22775,-0.18162l0.0974,10.84655z" fill="#5e555b"/><path d="M123.02875,127.15741l0.7626,-4.16923l19.42779,-0.17445l0.03737,4.16205z" fill="url(#color-8)"/><path d="M193.29091,122.5614l-0.05507,-6.13308l15.0312,0.93175l4.66433,4.66942z" fill="#5e555b"/><path d="M212.93459,122.38501l-4.66673,-4.93608c0,0 3.02228,0.66351 5.2594,1.64173c2.23712,0.97821 5.89596,3.23608 5.89596,3.23608z" fill="#776b73"/><path d="M190.27918,123.74403l3.18869,-1.27313l25.59658,-0.49651l3.65786,1.47834z" fill="#6d6269"/></g><g><path d="M196.00318,145.12753c-0.01122,-1.24878 0.48873,-2.41002 0.86808,-3.44305c0.52859,-1.43947 1.12039,-2.63264 2.40654,-3.49041c0.78559,-0.52393 1.91931,-0.92353 2.90606,-1.17276c0.65266,-0.16483 1.64816,-0.57387 2.35115,-0.58017c1.59364,-0.01431 1.93667,0.06433 3.09082,0.55004c0.69522,0.29256 2.33865,0.72693 2.87966,1.39423c0.4579,0.56481 0.9422,1.50903 1.28996,2.18557c0.59433,1.15618 1.4135,3.01341 1.42596,4.40198c0.00526,0.58681 -0.47464,1.92961 -0.51967,2.4455c-0.14298,1.6378 -0.13913,2.1474 -1.34267,3.26173c-0.73149,0.67729 -2.23378,1.23861 -3.21384,1.65741c-1.01499,0.43372 -2.28299,1.31121 -3.45562,1.32174c-0.79148,0.0071 -2.2243,-0.51503 -2.99227,-0.64433c-1.66615,-0.28054 -2.55977,-0.44694 -3.59946,-1.57785c-0.89156,-0.96978 -1.16656,-2.56571 -1.54295,-3.91999c-0.19774,-0.71147 -0.54476,-1.61606 -0.55171,-2.38964z" fill="#3a3a3a"/><path d="M196.73308,145.00237c-0.01026,-1.14274 0.44724,-2.20539 0.79437,-3.15071c0.48372,-1.31725 1.02525,-2.4091 2.20219,-3.19405c0.71888,-0.47945 1.75636,-0.84513 2.65932,-1.07319c0.59725,-0.15085 1.50822,-0.52514 2.15152,-0.53091c1.45834,-0.01309 1.77224,0.05888 2.82839,0.50332c0.63618,0.26771 2.14009,0.6652 2.63515,1.27584c0.41902,0.51685 0.86219,1.38093 1.18044,2c0.54388,1.05802 1.2935,2.75756 1.3049,4.02823c0.00482,0.53698 -0.43435,1.76579 -0.47555,2.23786c-0.13083,1.49874 -0.12731,1.96507 -1.22866,2.9848c-0.66939,0.61977 -2.0441,1.13344 -2.94095,1.51669c-0.92882,0.39689 -2.08915,1.19989 -3.16223,1.20952c-0.72426,0.0065 -2.03546,-0.4713 -2.73822,-0.58963c-1.52467,-0.25671 -2.34243,-0.40899 -3.29384,-1.44387c-0.81588,-0.88743 -1.06752,-2.34785 -1.41194,-3.58716c-0.18094,-0.65108 -0.49851,-1.47885 -0.50487,-2.18675z" fill="#5a5a5a"/><path d="M208.88393,140.3637c-2.06627,-2.36731 -7.16135,-2.5222 -7.16135,-2.5222c0,0 1.93734,-0.55742 3.92749,-0.56836c1.61206,-0.00886 3.18764,0.34146 4.35882,1.63201c1.17213,1.29159 1.57932,2.7727 1.87865,4.16551c0.58686,2.73082 0.17053,5.12745 0.17053,5.12745c0,0 -1.10785,-5.46712 -3.17414,-7.83443z" fill="#6d6d6d"/><path d="M203.60227,145.4302c-0.00517,-0.57569 0.45734,-1.04657 1.03302,-1.05174c0.57569,-0.00517 1.04657,0.45734 1.05174,1.03302c0.00517,0.57569 -0.45734,1.04657 -1.03302,1.05174c-0.57569,0.00517 -1.04657,-0.45734 -1.05174,-1.03302z" fill="#272727"/><path d="M203.52447,145.56772c-0.00474,-0.52801 0.41945,-0.95989 0.94746,-0.96464c0.52801,-0.00474 0.95989,0.41945 0.96464,0.94746c0.00474,0.52801 -0.41945,0.95989 -0.94746,0.96464c-0.52801,0.00474 -0.95989,-0.41945 -0.96464,-0.94746z" fill="#131313"/></g></g></g></g></g><path d="M115.64724,256.24921c-0.01423,-1.58462 -4.65529,-44.17066 -4.17501,-45.85021c0.64849,-2.26771 9.14141,-0.99326 12.09192,-2.52761c9.03633,-4.6992 18.8078,-9.3742 18.8078,-9.3742c0,0 14.07297,0.45414 18.30933,0.41609c3.16798,-0.02845 60.36794,-7.50774 61.20201,2.80673c1.1313,13.99035 -38.45976,1.10205 -38.35086,13.23218c0.02756,3.0708 2.43895,3.24466 1.90152,6.39682c-0.12899,0.75656 -2.43413,5.95633 -2.64341,7.63434c-0.3322,2.66363 2.99873,6.6364 -0.28347,9.76528c-2.61637,2.49416 -0.63943,7.49347 -1.26727,8.71476c-4.32644,8.41613 -12.68913,4.68665 -21.70164,4.76758c-10.68557,0.09594 -26.20163,3.95875 -35.59595,2.80572c-4.05517,-0.49771 -8.25351,5.82508 -8.29493,1.21252z" fill="#86c8f5" stroke-width="0"/><path d="M374.11231,194.82535c4.89279,1.10865 4.80762,7.94017 2.54913,15.6616c-2.2585,7.72143 -7.06151,13.22844 -10.72786,12.3002c-3.66634,-0.92824 -4.80762,-7.94017 -2.54913,-15.6616c2.2585,-7.72143 5.09101,-13.57745 10.72786,-12.3002z" data-paper-data="{&quot;index&quot;:null}" fill="#86c8f5" stroke-width="0"/><path d="M351.40239,204.32906c2.2585,-7.72143 4.47886,-11.81542 10.11569,-10.53819c4.8928,1.10865 5.4198,6.17815 3.1613,13.89959c-2.2585,7.72144 -7.06151,13.22843 -10.72786,12.3002c-3.66634,-0.92824 -4.80762,-7.94017 -2.54913,-15.6616z" data-paper-data="{&quot;index&quot;:null}" fill="#86c8f5" stroke-width="0"/><path d="M338.22751,208.56933c2.2585,-7.72143 5.39448,-14.75117 11.03131,-13.47394c4.8928,1.10865 4.50418,9.1139 2.24568,16.83534c-2.2585,7.72143 -6.47037,9.12459 -10.13672,8.19637c-3.66635,-0.92824 -5.39877,-3.83633 -3.14028,-11.55776z" data-paper-data="{&quot;index&quot;:null}" fill="#86c8f5" stroke-width="0"/><path d="M336.69349,197.28088c4.8928,1.10865 5.4198,6.17815 3.1613,13.89959c-2.2585,7.72143 -6.47037,9.12459 -10.13672,8.19637c-3.66635,-0.92824 -5.39877,-3.83633 -3.14028,-11.55776c2.2585,-7.72143 4.47886,-11.81542 10.11569,-10.53819z" data-paper-data="{&quot;index&quot;:null}" fill="#86c8f5" stroke-width="0"/><g stroke-width="0"><g><path d="M111.68337,273.74491l-0.05011,-5.5817c0,0 2.24284,0.1579 3.08872,-0.81338c1.19506,-1.37226 3.62252,-6.5341 3.62252,-6.5341l0.70635,8.08775c0,0 -3.05131,3.22602 -4.58161,4.13722c-1.10487,0.65787 -2.78586,0.70421 -2.78586,0.70421z" fill="#4d484c"/><g><g><path d="M70.84729,262.76111l4.04825,-5.59864c0,0 15.82147,-9.09121 22.39653,-13.04194c5.05774,-3.03901 13.1297,-8.06244 13.1297,-8.06244l2.87111,26.32188z" fill="#eb59c1"/><path d="M72.21105,251.62432l-0.84829,-29.26756c0,0 19.20594,8.58901 26.11332,11.48383c5.01242,2.10067 12.14898,11.30001 12.14898,11.30001l-5.79938,6.19986z" fill="#dd54b6"/><path d="M70.59495,234.65922l0.01937,-30.44637c0,0 12.68784,13.6324 17.32521,14.3565c6.87169,1.07296 19.6742,-1.80764 19.6742,-1.80764l0.23392,26.05281z" fill="#ff77d8"/><path d="M72.82114,221.75815l-0.12617,-14.05095l33.34474,-3.22692l2.49428,16.95722z" fill="#ee51c1"/></g><g><g><path d="M68.11566,252.27948l-5.407,-40.75963l8.401,-0.07543l5.407,40.75963z" fill="#a59da1"/><path d="M62.67512,211.71074c0,0 -0.81533,-4.48505 0.97093,-5.78291c1.78625,-1.29788 6.86596,-1.59672 6.86596,-1.59672l0.57783,7.30411z" fill="#b9b0b5"/><path d="M69.9912,262.90815l-1.81719,-10.65695l8.36086,-0.07508l1.81719,10.65695z" fill="#8b8488"/></g><g><path d="M108.27519,248.522l-5.40699,-40.75962l4.53901,-0.04076l5.407,40.75962z" fill="#a59da1"/><path d="M103.03663,208.75826l-0.87257,-6.43363c0,0 2.9285,-0.70673 3.99431,0.43345c1.06582,1.14019 1.22896,5.15431 1.22896,5.15431z" fill="#b9b0b5"/><path d="M110.13825,259.15083l-1.81719,-10.65695l4.51138,-0.04051l1.8172,10.65695z" fill="#8b8488"/></g><path d="M71.02742,271.47517c0,0 -3.29466,-2.71331 -3.70563,-4.19428c-0.45749,-1.6486 1.08524,-5.24843 1.08524,-5.24843l47.62596,-4.82267c0,0 2.03499,2.31569 2.46981,3.79819c0.60948,2.07793 -3.55586,7.03012 -3.55586,7.03012z" fill="#494547"/><path d="M70.87247,208.25917c0,0 -2.32138,-0.5465 -2.75723,-1.11688c-0.47861,-0.62634 0.78491,-2.72037 0.78491,-2.72037c0,0 12.03447,-1.12006 17.30852,-1.48957c6.14832,-0.43078 16.57942,-0.70825 16.57942,-0.70825c0,0 0.54205,1.2191 0.46209,1.81723c-0.07745,0.57927 -0.53122,1.71319 -0.53122,1.71319z" fill="#c2b8bd"/><path d="M71.37162,270.25131c0,0 -1.2602,-2.82409 -1.51734,-4.49747c-0.21339,-1.38872 0.09188,-3.64891 0.09188,-3.64891l44.80764,-4.45929c0,0 2.05662,3.1346 2.07155,4.79722c0.01604,1.7861 -1.98919,4.37544 -1.98919,4.37544z" fill="#6f696b"/><path d="M82.54205,275.58095l-0.05011,-5.58169l29.77786,-1.87225l0.05011,5.58169z" fill="#333032"/><path d="M71.01072,275.80595c-1.11649,-0.63791 -2.80959,-2.08852 -2.80959,-2.08852l-0.93099,-6.81126c0,0 2.49401,2.25007 3.71353,3.60066c0.86318,0.95596 11.55468,-0.61945 11.55468,-0.61945l0.05011,5.58169c0,0 -10.46124,0.97482 -11.57773,0.3369z" data-paper-data="{&quot;index&quot;:null}" fill="#444043"/><g><path d="M70.31246,223.23298c0,0 -2.62722,-4.71874 -2.66916,-6.46063c-0.02904,-1.20599 2.44165,-2.98745 2.44165,-2.98745l35.03339,-3.3391c0,0 1.62169,3.10941 1.6592,4.66656c0.03833,1.59147 -1.43169,4.78152 -1.43169,4.78152z" fill="#979797"/><path d="M70.35631,222.16648c0,0 -2.64325,-4.17367 -2.6912,-5.71112c-0.03321,-1.06447 2.43108,-2.62819 2.43108,-2.62819l35.01829,-2.82598c0,0 1.63227,2.74986 1.67514,4.12425c0.04381,1.4047 -1.41503,4.21504 -1.41503,4.21504z" fill="#a2a2a2"/></g><g><path d="M72.84164,239.75059c0,0 -2.62722,-4.71874 -2.66916,-6.46063c-0.02904,-1.20599 2.44165,-2.98745 2.44165,-2.98745l35.03339,-3.3391c0,0 1.62169,3.10941 1.6592,4.66656c0.03833,1.59147 -1.43169,4.78151 -1.43169,4.78151z" fill="#979797"/><path d="M72.88547,238.68412c0,0 -2.64324,-4.17367 -2.69119,-5.71112c-0.03322,-1.06446 2.43107,-2.62819 2.43107,-2.62819l35.01829,-2.82597c0,0 1.63227,2.74986 1.67514,4.12425c0.0438,1.4047 -1.41503,4.21504 -1.41503,4.21504z" fill="#a2a2a2"/></g><g><path d="M75.48225,256.76247c0,0 -2.62722,-4.71874 -2.66916,-6.46063c-0.02904,-1.20599 2.44165,-2.98745 2.44165,-2.98745l35.03339,-3.3391c0,0 1.62169,3.10941 1.6592,4.66656c0.03833,1.59147 -1.43169,4.78151 -1.43169,4.78151z" fill="#7a7a7a"/><path d="M75.5261,255.69602c0,0 -2.64325,-4.17367 -2.6912,-5.71113c-0.03322,-1.06446 2.43107,-2.62818 2.43107,-2.62818l35.0183,-2.82598c0,0 1.63226,2.74986 1.67514,4.12425c0.0438,1.4047 -1.41503,4.21505 -1.41503,4.21505z" fill="#929292"/></g></g></g></g><path d="M68.76696,256.22767c0,0 -0.40094,-1.71291 -0.72648,-4.02071c-0.95574,-6.77545 -5.57063,-40.62142 -5.57063,-40.62142l3.20649,4.27436l3.65985,29.39306z" fill="#777275"/></g></g></g></g></svg>