<svg version="1.1" xmlns="http://www.w3.org/2000/svg" xmlns:xlink="http://www.w3.org/1999/xlink" width="465.62391" height="159.41752" viewBox="0,0,465.62391,159.41752"><defs><linearGradient x1="499.08308" y1="203.87854" x2="499.78976" y2="208.63789" gradientUnits="userSpaceOnUse" id="color-1"><stop offset="0" stop-color="#1f1d20"/><stop offset="1" stop-color="#202022"/></linearGradient><linearGradient x1="498.80482" y1="199.01147" x2="499.61791" y2="204.48767" gradientUnits="userSpaceOnUse" id="color-2"><stop offset="0" stop-color="#302d31"/><stop offset="1" stop-color="#1f1e20"/></linearGradient><linearGradient x1="174.71019" y1="295.72778" x2="175.20802" y2="299.08102" gradientUnits="userSpaceOnUse" id="color-3"><stop offset="0" stop-color="#585758"/><stop offset="1" stop-color="#575758"/></linearGradient><linearGradient x1="163.21932" y1="307.62282" x2="163.61019" y2="310.25533" gradientUnits="userSpaceOnUse" id="color-4"><stop offset="0" stop-color="#363536"/><stop offset="1" stop-color="#353536"/></linearGradient><linearGradient x1="291.40217" y1="194.77229" x2="292.21557" y2="200.25072" gradientUnits="userSpaceOnUse" id="color-5"><stop offset="0" stop-color="#5e555b"/><stop offset="1" stop-color="#2b2629"/></linearGradient><linearGradient x1="278.71516" y1="175.76245" x2="279.30204" y2="179.71525" gradientUnits="userSpaceOnUse" id="color-6"><stop offset="0" stop-color="#72676e"/><stop offset="1" stop-color="#5e555b"/></linearGradient><linearGradient x1="169.02447" y1="206.0997" x2="169.89507" y2="211.96345" gradientUnits="userSpaceOnUse" id="color-7"><stop offset="0" stop-color="#5e555b"/><stop offset="1" stop-color="#4d454a"/></linearGradient><linearGradient x1="166.93135" y1="192.00192" x2="167.54265" y2="196.11906" gradientUnits="userSpaceOnUse" id="color-8"><stop offset="0" stop-color="#74686f"/><stop offset="1" stop-color="#5e555b"/></linearGradient></defs><g transform="translate(-39.01948,-174.62323)"><g data-paper-data="{&quot;isPaintingLayer&quot;:true}" fill-rule="nonzero" stroke="none" stroke-linecap="butt" stroke-linejoin="miter" stroke-miterlimit="10" stroke-dasharray="" stroke-dashoffset="0" style="mix-blend-mode: normal"><g><g stroke-width="0"><path d="M233.23053,271.88326l-12.37293,-13.67645l25.21146,-4.33988c0,0 -0.23052,5.92693 -0.03193,8.62558c0.19212,2.61045 1.20463,7.31045 1.20463,7.31045z" fill="#7f7d7e"/><path d="M233.35677,272.06337l-4.4236,-5.01162c0,0 2.85514,3.17014 6.14641,3.30294c2.37004,0.09559 4.19024,-0.488 6.88974,-0.56448c2.69949,-0.07647 5.20409,0.22179 5.20409,0.22179z" fill="#6c6a6b"/></g><g><g><g><path d="M496.83104,209.07719l-2.74331,-4.45702c0,0 6.17002,0.75995 8.87031,1.26166c2.70038,0.50171 1.34541,1.85148 1.34541,1.85148z" fill="url(#color-1)" stroke-width="0"/><path d="M502.37984,198.68254c0,0 1.80544,2.08526 -0.6326,3.34991c-2.43803,1.26465 -5.12999,2.90074 -5.12999,2.90074l-1.7732,-5.33365z" data-paper-data="{&quot;index&quot;:null}" fill="url(#color-2)" stroke-width="0"/><path d="M487.31681,210.48516l-0.30819,-2.07561l14.61234,-2.16952c0,0 1.36062,0.60101 1.8969,0.89165c0.4821,0.26129 -0.5895,1.03557 -0.5895,1.03557z" fill="#444444" stroke-width="NaN"/><path d="M487.06302,208.54646l-1.43532,-1.56001l12.4789,-1.85277l3.59838,1.12583c0,0 -4.13718,0.85484 -6.41444,1.21057c-2.5683,0.40112 -8.2275,1.07639 -8.2275,1.07639z" fill="#535353" stroke-width="0"/><path d="M485.53682,207.13816l-0.41525,-0.58537l11.34935,-1.68511l1.74441,0.27251z" fill="#363636" stroke-width="0"/><path d="M487.31681,210.48516l-0.16717,-1.12603c0,0 6.45027,-0.49912 9.29882,-0.92205c2.41391,-0.3584 6.70549,-1.45413 6.70549,-1.45413c0,0 0.92266,0.33028 1.1971,0.49466c0.23153,0.13865 -0.17644,0.50464 -0.17644,0.50464c0,0 -4.62206,1.09515 -6.91069,1.43496c-3.0877,0.45846 -9.94701,1.06793 -9.94701,1.06793z" fill="#3a3a3a" stroke-width="NaN"/><path d="M485.44177,206.52372l-0.67732,-0.79286l13.49372,-2.00342l-1.66709,1.17519z" fill="#242424" stroke-width="0"/><path d="M483.99294,206.03673l-0.24295,-1.63639c0,0 7.97534,-1.39255 10.93856,-1.83255c2.01892,-0.29972 5.12191,-0.55198 5.12191,-0.55198l-1.57528,1.73953z" fill="#3a3a3a" stroke-width="0"/><path d="M483.62808,204.46144l-0.3,-2.02042c0,0 7.52187,-1.45028 10.80022,-1.93703c2.83693,-0.42118 7.7377,-0.81531 7.7377,-0.81531l-2.09199,2.37556c0,0 -3.6274,0.45519 -5.8475,0.78481c-2.95102,0.43816 -10.29843,1.61242 -10.29843,1.61242z" fill="#444444" stroke-width="0"/><path d="M483.29792,202.53158l-0.125,-0.84186c0,0 7.77026,-1.27873 11.32849,-1.80702c2.47761,-0.36787 7.97826,-1.05947 7.97826,-1.05947l-0.7307,0.96886c0,0 -5.04156,0.4567 -7.97464,0.89219c-3.23149,0.47979 -10.47639,1.8473 -10.47639,1.8473z" fill="#535353" stroke-width="0"/><path d="M483.05729,201.79294l-0.04996,-0.33672c0,0 7.51862,-1.6289 10.94145,-2.13712c2.95931,-0.43937 8.40799,-0.73578 8.40799,-0.73578l0.08719,0.33124c0,0 -5.96796,0.71933 -9.1778,1.19588c-3.2518,0.48278 -10.20878,1.68248 -10.20878,1.68248z" fill="#4e4e4e" stroke-width="0"/></g><g stroke-width="0"><g><g><g><path d="M481.4548,210.86212l-6.46534,-12.34804l0.29422,-1.78392c0,0 3.91137,2.68385 5.18954,5.01175c0.6939,1.26382 2.42048,8.90646 2.42048,8.90646z" fill="#383638"/><path d="M482.39306,210.0238c0,0 -0.03178,-0.61164 -1.01413,-2.9476c-1.07123,-2.54742 -2.98283,-5.94056 -3.52937,-6.94515c-1.227,-2.25497 -1.99286,-2.27315 -1.99286,-2.27315l4.66252,-1.28045l6.9096,12.69867z" fill="#555355"/><path d="M475.93251,197.93296l-0.7571,-1.13753c0,0 1.88077,-1.08805 2.83195,-1.22922c0.89134,-0.13236 2.12111,0.42032 2.12111,0.42032l0.76777,1.20945z" fill="#686668"/></g><path d="M475.84362,211.69524l-6.46534,-12.34803l-0.03006,-1.71537c0,0 4.23567,2.61538 5.51374,4.94324c0.6939,1.26381 2.42049,8.90646 2.42049,8.90646z" fill="#383638"/><path d="M476.78186,210.85695c0,0 -0.03178,-0.61165 -1.01412,-2.9476c-1.07123,-2.54742 -2.98283,-5.94056 -3.52937,-6.94515c-1.227,-2.25497 -1.99286,-2.27315 -1.99286,-2.27315l3.84722,-1.66489c0,0 1.1992,1.08994 1.57319,1.77725c1.06552,1.95824 6.15174,11.30589 6.15174,11.30589z" fill="#555355"/><path d="M470.32128,198.76603l-0.97293,-1.1055c0,0 2.09662,-1.12006 3.04785,-1.26129c0.89134,-0.13236 1.83336,0.46306 1.83336,0.46306l0.89144,1.19112z" fill="#686668"/><path d="M483.05659,208.92067c-0.1204,-0.81061 0.43925,-1.56533 1.24985,-1.68572c0.81062,-0.1204 1.56533,0.43925 1.68572,1.24985c0.1204,0.81061 -0.43925,1.56533 -1.24984,1.68572c-0.81062,0.1204 -1.56533,-0.43925 -1.68572,-1.24985z" fill="#312f31"/><path d="M483.27486,205.92686l-2.7923,-5.19274l1.55308,-0.3755l2.80179,5.25657z" fill="#444144"/></g><path d="M436.20818,212.55913l-5.31343,-10.15328l29.7311,-3.22487l0.95133,9.61158z" fill="#444444"/><path d="M448.13696,206.82958c0,0 0.55244,-0.60969 1.10459,-1.80867c0.50493,-1.09624 0.99787,-2.76464 1.31024,-3.27984c0.71404,-1.8312 3.13542,-1.71872 3.13542,-1.71872l-0.87303,0.78983l-3.54669,5.84962z" fill="#292929"/><path d="M452.45232,216.83374l-8.05495,-9.89575c0,0 3.53882,0.01165 5.0699,-1.2762c1.18977,-1.00082 0.71009,-3.59043 2.22908,-4.09997c4.35812,-1.46179 17.02932,-3.78175 17.02932,-3.78175c0,0 4.25433,6.59166 5.59553,9.31121c0.92589,1.87751 1.98384,6.20102 1.98384,6.20102z" fill="#4a464a"/><path d="M454.61946,203.25977c-4.60473,0.04068 -3.37989,-1.52011 -3.37989,-1.52011c0,0 0.5929,-1.40452 2.41849,-1.82335c4.48001,-1.02775 13.11404,-1.72646 14.81389,-2.00477c0.80162,-0.13128 0.44499,0.63736 0.44499,0.63736c0,0 -1.12285,2.57883 -2.61933,3.05784c-1.49654,0.47901 -7.0734,1.61236 -11.67817,1.65303z" fill="#5e595e"/></g><g><path d="M441.74204,225.0713l-7.73939,-16.983l18.74478,-2.49363l5.3831,3.57658l6.0186,-0.99321l4.90639,12.83799z" fill="#4d4846"/><path d="M446.43861,224.7654l19.05299,-12.32331l22.04404,-3.51801c0,0 1.91206,3.94482 2.25246,5.26372c0.17349,0.67245 0.27906,2.93492 0.27906,2.93492z" fill="#423d3b"/><path d="M441.44561,217.10457l-4.59104,-9.27244l0.81163,-0.12048l4.59105,9.27244z" fill="#363332"/><path d="M446.9001,223.88646l-0.17879,-1.20417c0,0 4.83359,-3.29096 13.80015,-4.6223c1.19137,-0.17689 5.76743,1.71704 6.96822,1.53877c7.61858,-1.13116 15.0757,-2.23833 17.91273,-2.65955c2.31045,-0.34303 4.47885,-1.97927 4.47885,-1.97927l0.3697,2.49012z" fill="#312e2c"/><path d="M447.37323,210.93634l-2.40251,-4.30925l8.21761,-1.22008l4.75928,3.76315l6.26666,-0.73421l-7.22122,3.04229z" fill="#585350"/><path d="M439.02069,219.27913l-0.16571,-1.11597c0,0 7.40883,-4.88461 10.25483,-5.30722c4.28934,-0.63687 16.13083,-2.39496 16.13083,-2.39496l0.16571,1.11597c0,0 -12.04453,1.78829 -16.33377,2.42511c-2.78758,0.41386 -10.05196,5.27708 -10.05196,5.27708z" fill="#2b2827"/></g></g></g><g><g><g><path d="M114.28108,310.61555c0.86301,2.13035 0.93726,4.73728 -0.10315,5.15871c-1.04036,0.42147 -2.80148,-1.50205 -3.66449,-3.63244c-0.86301,-2.13035 -4.23279,-10.29435 -3.19237,-10.71587c1.04036,-0.42147 6.09699,7.05921 6.96003,9.18956z" fill="#615e5f" stroke-width="0"/><g><path d="M151.02716,274.90277c-0.61095,-0.44269 -3.11899,-1.39708 -3.11899,-1.39708l9.3895,-4.30564l-4.87754,8.00311c0,0 -0.78199,-1.85768 -1.39297,-2.30038z" fill="#756a6a" stroke-width="0"/><path d="M141.84922,274.54962l-2.01694,-13.58444l17.47078,-8.52488l2.87852,19.38747z" fill="#8a7c7c" stroke-width="0"/><path d="M103.04747,285.81737l3.93124,-18.91579l34.53496,-5.26224l6.34444,11.86352c0,0 -22.50918,4.9353 -29.98428,6.98962c-3.10301,0.85276 -14.82639,5.32499 -14.82639,5.32499z" fill="#7c787a" stroke-width="0"/><path d="M107.44894,269.26299l-0.36409,-1.44365c0,0 25.64311,-3.80732 33.70459,-5.00422c4.51039,-0.66972 15.03749,-8.67284 15.03749,-8.67284l0.2393,1.61198c0,0 -10.23888,7.94089 -14.60322,8.57405c-8.00251,1.161 -34.01409,4.93473 -34.01409,4.93473z" fill="#535353" stroke-width="0"/><path d="M71.41977,291.22886l-2.95987,-19.93545c0,0 3.446,-7.64315 10.27443,-10.97806c8.4812,-4.14213 25.44901,-4.85676 27.49721,-5.16085c1.57176,-0.23333 -11.23777,12.19938 -11.23777,12.19938l2.95987,19.93545z" fill="#8d898b" stroke-width="0"/><path d="M235.71519,220.18682l1.12349,-3.34552l106.41978,-15.65604l2.16569,14.58635c0,0 -37.09995,7.37407 -49.24933,8.75725c-6.03373,0.68694 -60.45961,-4.34207 -60.45961,-4.34207z" fill="#c98cac" stroke-width="0"/><path d="M229.11919,323.27344l-6.39426,-12.12889c0,0 5.93997,5.02155 8.91488,5.66852c1.89541,0.41221 6.13179,0.16913 11.81831,-3.13928c4.5779,-2.66339 8.88121,-8.87352 8.88121,-8.87352l-9.36827,16.41651z" fill="#a08e97" stroke-width="0"/><path d="M311.73747,263.57654l-5.78171,-23.02194l18.14027,-4.11143l3.11306,20.96716c0,0 -6.07558,2.64 -8.70813,3.73686c-1.21214,0.50502 -6.76347,2.42939 -6.76347,2.42939z" fill="#96858d" stroke-width="0"/><path d="M227.85161,327.24854l-0.81365,-5.48008c0,0 12.23624,0.27447 16.34725,-3.49146c2.00075,-1.83278 15.59558,-25.01317 23.0701,-37.88245c2.91693,-5.02223 4.90183,-8.47409 4.90183,-8.47409c0,0 2.76876,-4.22563 2.34943,-7.07718c-0.21095,-1.43447 -0.35978,-5.63685 -1.52176,-7.80105c-1.1724,-2.18352 -3.35701,-2.3225 -3.35701,-2.3225l-6.81257,-12.70959l19.62223,-2.76813l1.02479,26.7125l4.09368,1.98215c0,0 -8.57022,7.33833 -12.42112,12.92013c-6.02533,8.73342 -24.69853,42.22385 -24.69853,42.22385z" fill="#918189" stroke-width="0"/><path d="M288.86041,267.32976l-3.00042,-28.47193l13.66676,-1.75034l12.01398,10.35l0.18073,16.47812z" fill="#96858d" stroke-width="0"/><path d="M284.65652,269.82336l-3.09093,-3.73232l-0.34578,-26.42565l5.01234,-0.82984l3.53003,28.37597z" fill="#8f8187" stroke-width="0"/><path d="M310.5158,264.21926c0,0 1.74275,-6.99889 -0.38995,-12.15239c-1.22797,-2.96734 -6.37492,-4.19448 -7.12774,-6.01357c-1.43805,-3.47493 -3.66274,-8.85071 -3.66274,-8.85071l8.41087,3.16303c0,0 4.42869,6.63529 5.64577,10.76283c0.81775,2.77309 0.28657,9.29782 -0.24833,12.00465c-0.04513,0.22819 -1.22073,0.31855 -1.24754,0.48963c-0.06544,0.41804 0.9223,0.50519 0.9223,0.50519z" fill="#86787e" stroke-width="0"/><path d="M307.75426,241.88079c0,0 -3.63814,-3.45812 -8.4126,-3.73151c-5.40517,-0.3095 -22.36173,1.96938 -22.36173,1.96938l153.94423,-37.19375l4.74456,8.69932l9.46846,9.85904c0,0 -100.07668,12.25902 -120.44174,15.28268c-6.64543,0.98664 -16.94119,5.1149 -16.94119,5.1149z" fill="#df8db7" stroke-width="0"/><path d="M162.15246,311.29732l-10.07266,-35.17191c0,0 1.11416,-3.95723 1.5782,-4.24413c5.1164,-3.16357 35.24132,-18.40487 40.66362,-18.92048c5.93985,-0.56486 -7.26266,13.45468 -7.26266,13.45468c0,0 -13.95606,4.1202 -15.84203,8.6967c-2.56064,6.21351 4.78276,22.667 4.78276,22.667z" fill="#c77da3" stroke-width="0"/><path d="M229.39209,271.05706l-2.07924,-1.81965c0,0 5.22386,-9.47652 7.29437,-12.1018c2.13754,-2.71035 5.33613,-3.91323 5.33613,-3.91323l6.20918,1.4055c0,0 -4.50132,0.16021 -6.58739,2.20506c-1.79078,1.75538 -5.05007,5.3517 -7.36577,8.82178c-1.68448,2.52418 -2.80725,5.40226 -2.80725,5.40226z" fill="#414041" stroke-width="0"/><path d="M106.97941,268.27492l3.0312,-12.26771l48.10116,-7.14172c0,0 -2.21281,4.83291 -5.00982,7.23583c-2.74516,2.35844 -11.61969,7.05083 -11.61969,7.05083z" fill="#979395" stroke-width="0"/><path d="M107.60286,267.02691l2.23987,-12.15025l48.10116,-7.14172c0,0 -2.21281,4.83291 -5.00982,7.23583c-2.74516,2.35844 -11.61969,7.05083 -11.61969,7.05083z" fill="#bdb7ba" stroke-width="0"/><path d="M312.9449,264.18282l-1.92802,-0.23291l16.05307,-6.60399c0,0 -3.21957,2.55796 -5.55956,3.71102c-2.33998,1.15309 -8.56547,3.1258 -8.56547,3.1258z" fill="#887980" stroke-width="0"/><path d="M164.67946,311.39172c0,0 -3.8518,-10.00834 -6.29386,-18.27778c-2.45396,-8.3098 -4.73026,-16.1068 -5.27854,-19.64942c-0.0929,-0.6002 0.07891,-10.66522 0.49666,-11.25436c2.25509,-3.18011 11.05017,3.34252 16.39188,1.43378c7.9093,-2.82621 26.73509,-6.14108 26.73509,-6.14108l-7.58209,6.49464c0,0 -18.81794,5.69045 -20.42917,11.12323c-2.17935,7.34838 8.37475,26.88293 8.37475,26.88293z" fill="#d486ae" stroke-width="0"/><path d="M165.28193,307.74481c0,0 -12.5914,-39.45013 -12.75885,-49.61271c-0.07835,-4.75495 -4.73434,-13.27138 -4.73434,-13.27138l51.14128,-0.54801l3.76858,15.68661c0,0 -32.14912,1.64615 -37.50927,8.78477c-3.57807,4.76525 7.30502,31.70206 7.30502,31.70206z" fill="#e490bb" stroke-width="0"/><g stroke-width="0"><path d="M292.95354,225.10482l-1.21525,-8.18516l9.25849,-1.37462l1.21525,8.18516z" fill="#454545"/><path d="M293.66451,224.22603l-1.4247,-7.16657l11.20337,-1.6634l1.07181,7.21898z" fill="#b0b0b0"/><path d="M292.77716,219.81955l-0.64174,-2.76603l11.41767,-1.69521l0.28012,1.8867c0,0 -7.66101,1.46348 -9.32159,1.85016c-0.5549,0.12923 -1.73444,0.72443 -1.73444,0.72443z" fill="#bebebe"/><path d="M304.68495,222.03425c0,0 -5.85588,-1.71394 -5.8415,-5.50482c0.02141,-5.63324 4.16816,-5.7656 4.16816,-5.7656l40.00187,-4.59121l1.47753,9.95153z" fill="#9c989a"/><path d="M306.26354,220.49651c0,0 -2.97657,-3.11555 -3.3542,-3.99647c-0.55974,-1.30581 0.97908,-4.52405 0.97908,-4.52405l41.14962,-6.0759l0.70412,7.46618z" fill="#898587"/><path d="M306.20327,220.70588l-1.29336,-1.76861l37.81722,-5.61485l0.28486,1.91834z" fill="#c1bcbf"/><path d="M305.58496,217.36654c0,0 -1.51981,-1.15729 -1.65748,-2.08453c-0.12876,-0.86732 0.85639,-3.3109 0.85639,-3.3109l38.24738,-5.67868l0.80109,5.39541z" fill="#0d0d0d"/><path d="M305.69914,218.13542c0,0 -1.60842,-1.75453 -1.74611,-2.68174c-0.12876,-0.86732 0.94505,-2.71365 0.94505,-2.71365l38.2474,-5.6787l0.80109,5.39541z" fill="#2e2e2e"/><path d="M301.20499,220.72682c-3.06065,-2.64617 -2.25126,-5.12848 -2.25126,-5.12848c0,0 2.41631,3.79865 3.77027,4.50509c1.603,0.83632 5.37428,1.65732 5.37428,1.65732l-3.46041,0.58473c0,0 -2.89419,-1.15296 -3.43281,-1.61867z" fill="#7d7a7c"/><path d="M308.31642,218.0599c0,0 -1.20413,-2.05744 -1.37207,-3.18861c-0.14762,-0.99433 0.41745,-3.24092 0.41745,-3.24092l4.77102,-0.70837c0,0 -0.13242,2.24779 -0.00489,3.10659c0.17527,1.18039 0.95952,3.32286 0.95952,3.32286z" fill="#555555"/><path d="M316.83969,216.79447c0,0 0.28887,-2.59368 0.12093,-3.72478c-0.14762,-0.99433 -1.07554,-2.70474 -1.07554,-2.70474l5.32499,-0.79061c0,0 -0.16025,1.75766 -0.03274,2.61651c0.17527,1.18039 0.98738,3.813 0.98738,3.813z" fill="#555555"/><path d="M326.06524,215.42472c0,0 0.28889,-2.59367 0.12094,-3.72481c-0.14762,-0.99433 -1.07555,-2.70473 -1.07555,-2.70473l5.24582,-0.77887c0,0 -0.16025,1.75766 -0.03274,2.61651c0.17527,1.18039 0.98738,3.813 0.98738,3.813z" fill="#555555"/><path d="M335.62375,214.00555c0,0 0.51698,-2.26805 0.34899,-3.39923c-0.14762,-0.99433 -1.30362,-3.03025 -1.30362,-3.03025l5.08755,-0.75536c0,0 1.10985,1.83867 1.23735,2.69754c0.17527,1.18039 -0.28272,3.73202 -0.28272,3.73202z" fill="#555555"/><path d="M307.20199,212.36584l-0.77542,-0.69362l35.177,-5.22284l-1.40013,1.01663c0,0 -2.7994,0.41562 -5.23492,0.77727c-0.53088,0.07878 -1.58374,-0.09723 -2.3789,0.02082c-0.76885,0.11414 -1.27245,0.52128 -2.22814,0.66318c-1.49036,0.22129 -3.17188,0.47092 -4.93227,0.73232c-0.72984,0.10836 -1.42119,-0.17675 -2.17016,-0.06553c-0.66602,0.09892 -1.38838,0.5939 -2.05748,0.69325c-1.66065,0.24656 -3.30496,0.49069 -4.85096,0.72022c-0.70994,0.1054 -1.46347,-0.22587 -2.12398,-0.12782c-0.80634,0.11972 -1.50557,0.6667 -2.21206,0.77157c-2.88185,0.42793 -4.81273,0.71459 -4.81273,0.71459z" fill="#474747"/></g><g><path d="M171.43275,300.33223l3.2557,-3.38226c0,0 3.20769,2.3695 6.14244,2.83856c2.59566,0.41486 10.57391,-0.16689 10.57391,-0.16689l-1.98679,4.697z" fill="#6d6a6b" stroke-width="0"/><path d="M164.41578,307.94549l8.04675,-8.66086c0,0 3.53108,1.75702 5.77352,2.09319c3.39248,0.50859 12.6009,0.6616 12.6009,0.6616l-3.59879,4.88888z" fill="#615e5f" stroke-width="0"/><path d="M169.61909,329.38112l-4.78239,-22.11045c0,0 4.4233,0.14389 9.19666,-0.53489c3.72579,-0.5298 7.60531,-1.96223 10.15143,-1.72523c4.46995,0.41601 39.44712,7.71401 39.44712,7.71401l3.9459,9.70049z" fill="#575455" stroke-width="0"/><path d="M187.005,299.4615c6.04084,-6.52311 12.04715,-21.01443 12.91424,-23.74276c0.62464,-1.96554 0.52984,-7.28534 0.52984,-7.28534l8.621,5.60952c0,0 8.79658,19.41538 11.82172,31.75161c0.84647,3.45178 3.91603,6.98449 2.95805,8.60931c-0.85838,1.45573 -17.29942,6.21183 -22.74748,6.24751c-11.46525,0.07522 -16.7848,3.68516 -21.26367,-0.98307c-4.47887,-4.66819 1.62403,-11.91329 1.62403,-11.91329c0,0 3.96972,-6.59533 5.54237,-8.29355z" fill="#504e4f" stroke-width="0"/><path d="M186.93769,266.28639c0,0 0.17228,-1.53472 0.92258,-2.31691c0.96491,-1.00595 4.38661,-3.21811 4.38661,-3.21811c0,0 9.56898,0.66929 12.91229,2.69021c3.08469,1.86454 -1.61801,12.95664 -1.61801,12.95664l-2.77217,-5.00855z" fill="#464445" stroke-width="0"/><path d="M216.85621,309.58952c0,0 -8.26483,7.55148 -16.63205,8.96705c-8.07188,1.36564 -16.25487,-3.37584 -16.35787,-4.79838c-0.05585,-0.77078 7.30075,-5.20453 10.11962,-9.89075c3.13346,-5.20917 1.81299,-10.77717 2.85393,-12.96425c2.906,-6.10568 9.76458,-17.41406 7.82744,-23.23635c-2.03151,-6.10595 -12.93743,-6.58336 -12.93743,-6.58336c0,0 3.47878,-2.79284 8.39129,-3.65353c2.09256,-0.36661 6.79441,0.33633 7.76417,0.58156c3.18025,0.80398 5.3897,2.13017 5.3897,2.13017c0,0 2.9023,-5.36373 6.41993,-6.19884c3.51759,-0.83511 22.57217,-0.68426 22.57217,-0.68426l-14.18516,14.83816z" fill="#555354" stroke-width="0"/><path d="M196.53519,291.55c0,0 2.97387,-11.43353 6.85476,-17.50422c3.88088,-6.0707 7.448,-9.81568 10.94203,-10.3344c2.53019,-0.37567 7.04804,7.66339 7.04804,7.66339l-6.73167,30.08411c0,0 -13.98101,5.39086 -15.8066,3.15406c-1.44185,-1.76665 -2.30657,-13.06287 -2.30657,-13.06287z" fill="#585758" stroke-width="0"/><path d="M222.85535,315.24111c0,0 -3.75619,-5.70126 -3.87731,-8.73858c-0.16924,-4.24315 -0.59938,-16.97195 -0.59938,-16.97195l3.46808,10.0352c0,0 0.79806,9.73588 1.37421,12.71341c0.55598,2.87282 2.28262,4.81068 2.28262,4.81068z" fill="#3f3e3f" stroke-width="0"/><path d="M219.31304,297.706c-0.43929,-1.62793 -1.30774,-9.29444 -1.30774,-9.29444c0,0 7.31502,-15.81372 9.00008,-18.74609c0.49401,-0.85966 3.55908,-3.06462 3.55908,-3.06462l-0.91558,5.04305c0,0 -1.4681,0.8286 -1.57574,1.32765c-0.11473,0.53172 0.90715,1.77085 0.90715,1.77085l-3.82778,9.14141c0,0 -1.4843,1.24206 -1.58732,1.76822c-0.10305,0.52635 0.70757,1.30389 0.70757,1.30389c0,0 -2.49941,9.41036 -2.97812,11.92269c-0.22132,1.16162 0.2216,2.54416 0.2216,2.54416c0,0 -1.7638,-2.08882 -2.20305,-3.71673z" fill="#474647" stroke-width="0"/><path d="M203.24983,278.89269l22.03992,5.05329c0,0 -1.02741,1.17594 -1.18281,1.74399c-0.1147,0.41915 0.3347,1.35539 0.3347,1.35539z" fill="#3f3e3e" stroke-width="NaN"/><path d="M207.66429,267.7708l22.21626,3.83768c0,0 -0.97906,0.99794 -1.1061,1.57922c-0.13242,0.60595 0.39157,1.61923 0.39157,1.61923z" fill="#3f3e3e" stroke-width="NaN"/><path d="M199.57117,297.96682c0,0 11.70631,6.03927 18.39862,11.08874c6.69225,5.04954 4.94986,6.52826 4.94986,6.52826z" fill="#636162" stroke-width="NaN"/><path d="M209.32776,273.2089c0,0 -5.50908,3.75383 -7.77394,7.21999c-2.26488,3.46613 -8.13181,20.69753 -8.5644,17.78396c-0.43259,-2.91358 9.50369,-25.33715 11.27915,-25.60074c0.67211,-0.09977 3.50764,-1.67559 4.35209,-1.5609c1.38627,0.18833 0.70708,2.15767 0.70708,2.15767z" fill="#918f91" stroke-width="0"/><path d="M169.14881,329.32017l13.5143,-3.91553c0,0 12.41053,-2.17855 15.53597,-2.48582c7.61136,-0.74833 30.29821,-2.02049 30.29821,-2.02049l0.48618,6.31818c0,0 -23.57318,7.10455 -30.58607,6.81566c-2.02881,-0.08356 -7.87316,0.15933 -12.28137,-0.55316c-8.62665,-1.39436 -16.96724,-4.15883 -16.96724,-4.15883z" fill="#626061" stroke-width="0"/><path d="M227.93775,327.01606c0,0 -0.5904,-4.25201 -1.37814,-6.50059c-0.88535,-2.5273 -3.67539,-7.92495 -3.67539,-7.92495l1.76301,-0.26178c0,0 2.35504,4.15599 3.15662,6.44391c0.87632,2.50152 1.89697,7.98158 1.89697,7.98158z" fill="#4a494a" stroke-width="0"/><path d="M227.86746,327.87197l-0.4116,-3.37328c0,0 0.5995,0.17861 0.86805,0.13876c0.3191,-0.04736 0.88026,-0.39826 0.88026,-0.39826l0.63836,3.11662c0,0 -0.70827,0.5172 -1.06814,0.61132c-0.27576,0.07213 -0.90692,-0.09509 -0.90692,-0.09509z" fill="#363536" stroke-width="0"/><path d="M223.30689,313.56436l-0.61968,-1.54637c0,0 0.36083,-0.41184 0.71657,-0.52457c0.33884,-0.10731 0.8736,-0.06261 0.8736,-0.06261l0.75121,1.64388c0,0 -0.40209,0.57268 -0.69704,0.65657c-0.27789,0.07904 -1.02467,-0.16685 -1.02467,-0.16685z" fill="#585758" stroke-width="0"/><path d="M186.48021,332.7355c0,0 -8.24321,-1.76131 -8.44339,-3.10959c-0.20116,-1.35491 5.79641,-3.42906 5.79641,-3.42906c0,0 10.78985,-1.84541 15.71848,-2.40266c2.7592,-0.31196 11.33575,-0.6563 11.33575,-0.6563c0,0 7.36757,-0.02809 8.34296,0.99142c1.06395,1.11209 -2.34098,4.4904 -2.34098,4.4904c0,0 -12.39407,3.16053 -16.34649,3.53687c-1.40403,0.13366 -14.06273,0.57899 -14.06273,0.57899z" fill="#6b696a" stroke-width="0"/><path d="M175.1962,327.4337l-1.90652,0.51642c0,0 0.11521,-3.48943 2.98813,-2.66018c2.87292,0.82927 21.49267,-2.95774 21.49267,-2.95774z" fill="#4b4949" stroke-width="0"/><path d="M169.19983,329.16697c0,0 -1.948,0.48291 -3.01226,-3.04177c-0.53876,-1.78415 -4.34414,-15.5669 -4.34414,-15.5669l3.26968,-3.41632c0,0 1.55464,5.82862 2.18481,8.66909c0.83808,3.77784 2.81501,13.22023 2.81501,13.22023z" fill="#3f3d3e" stroke-width="0"/><path d="M175.53891,327.55055c0,0 2.84112,-2.60361 18.67383,-5.29516c1.30748,-0.22225 -1.78043,0.23196 7.59192,-0.64669c9.37232,-0.8787 13.46029,0.04362 13.46029,0.04362c0,0 -15.05988,1.15486 -21.19541,2.06584c-6.99381,1.0384 -18.53069,3.8324 -18.53069,3.8324z" fill="#838082" stroke-width="0"/><path d="M176.18293,297.49792c0,0 -4.00195,2.8056 -5.91617,4.72307c-2.15152,2.1552 -6.3643,7.57848 -6.3643,7.57848l-1.01121,-1.46902c0,0 3.15584,-4.36446 5.10358,-6.31555c2.12951,-2.13314 7.17692,-5.98599 7.17692,-5.98599z" fill="#4a494a" stroke-width="0"/><path d="M177.06893,297.10577l-3.27563,2.18532c0,0 0.00041,-0.6536 -0.15361,-0.87732c-0.18303,-0.26589 -0.77259,-0.59081 -0.77259,-0.59081l2.84588,-2.244c0,0 0.81844,0.3705 1.0655,0.64874c0.18936,0.2132 0.29041,0.87817 0.29041,0.87817z" fill="url(#color-3)" stroke-width="0"/><path d="M164.69677,308.89472l-2.51808,3.13358l-0.46283,-2.13785l1.75924,-2.30556c0,0 0.74377,0.06156 0.95303,0.28602c0.1972,0.21142 0.26862,1.02386 0.26862,1.02386z" fill="url(#color-4)" stroke-width="0"/></g><path d="M289.83553,266.07648c0,0 0.26839,-4.50697 0.56226,-5.95496c0.1995,-0.98294 2.33686,-2.74765 2.33686,-2.74765l16.80282,-2.71535c0,0 -0.41185,5.92245 -0.58811,7.32991c-0.07725,0.61657 -1.02992,1.45821 -1.02992,1.45821z" fill="#665b60" stroke-width="0"/><path d="M239.06732,255.15751c0,0 -3.98253,-0.9883 -9.02681,-1.40423c-3.20663,-0.26444 -7.5136,-0.19794 -9.3389,0.18002c-5.30673,1.0988 -7.0487,6.51831 -7.0487,6.51831c0,0 -3.57788,-1.80992 -5.78818,-2.34584c-2.06324,-0.50023 -6.51612,-0.85102 -6.51612,-0.85102c0,0 23.54543,-8.64292 27.26962,-9.78238c7.1396,-2.18437 33.589,-5.7157 33.589,-5.7157l8.25449,13.21672z" fill="#8b7c84" stroke-width="0"/><g stroke-width="0"><path d="M291.136,264.9303c0,0 0.08511,-2.63731 0.35964,-3.58267c0.28459,-0.98016 2.29014,-2.34194 2.29014,-2.34194l14.37246,-2.13396c0,0 0.52644,0.91557 0.40202,1.67992c-0.16924,1.03925 -2.5122,4.16461 -2.5122,4.16461z" fill="#585852"/><path d="M291.0265,264.19306c0,0 0.19455,-1.90009 0.46912,-2.84543c0.28459,-0.98016 2.18067,-3.07921 2.18067,-3.07921l14.37246,-2.13395c0,0 0.63597,1.65285 0.51147,2.41723c-0.16924,1.03925 -2.6217,3.42729 -2.6217,3.42729z" fill="#797971"/><path d="M306.37651,256.88382c-1.06363,-0.02197 -12.60006,1.41653 -12.60006,1.41653l14.35279,-2.13098l0.36155,2.43515c0,0 -1.05068,-1.69865 -2.11437,-1.72069z" fill="#85857b"/></g><path d="M289.88353,246.74898l-0.76218,-5.13347l7.05858,-1.04803l2.04557,4.94293z" fill="#7c6e75" stroke-width="0"/><path d="M275.69187,222.14286l-5.3256,-7.42968l1.36439,-0.20255l7.3064,7.59216z" fill="#d495b6" stroke-width="0"/><path d="M235.99075,220.32472l12.62194,-4.99754l21.95379,-0.6184l5.14805,7.41663z" fill="#df9cbe" stroke-width="0"/><path d="M290.78232,251.69822l-0.23819,-1.60423l10.74821,-1.59578l1.20072,1.46133z" fill="#7c6e75" stroke-width="0"/><path d="M248.86528,245.63435c0,0 -17.76098,3.84857 -23.25922,5.17059c-8.32553,2.00175 -24.86921,6.80879 -24.86921,6.80879c0,0 14.20861,-6.59891 27.34695,-10.08232c14.24524,-3.77687 57.60312,-11.68772 57.60312,-11.68772l0.79438,5.35046z" fill="#75686e" stroke-width="0"/><path d="M243.30999,255.32578l-3.29186,-0.08832c0,0 9.31435,-3.79347 14.70804,-3.82313c5.39367,-0.02967 15.31867,3.65801 15.31867,3.65801z" fill="#7c6e76" stroke-width="0"/><path d="M196.76571,258.16196c0,0 -34.26756,-10.47742 -35.82794,-14.91653c-1.41735,-4.03236 29.84324,-2.05723 30.12189,-2.20801c4.87561,-2.63854 74.91951,-20.33212 74.91951,-20.33212l27.3173,2.80791l52.10585,-8.31401l9.22277,12.35492c0,0 -60.71996,10.19693 -84.20456,13.84861c-8.15217,1.26759 -24.89706,3.09893 -39.86756,6.47447c-11.54775,2.6038 -28.40832,9.47101 -28.40832,9.47101z" fill="#ee96c3" stroke-width="0"/><path d="M70.87648,289.53391l0.331,-20.42406c0,0 -1.13642,-6.96273 5.69205,-10.29773c8.4812,-4.14213 25.44902,-4.85676 27.49723,-5.16087c1.57176,-0.23333 -11.23778,12.19938 -11.23778,12.19938l2.95988,19.93545z" fill="#c4b4b3" stroke-width="0"/><g stroke-width="0"><path d="M346.30599,230.18654l-5.0501,-14.55907l92.74444,-6.93136l0.10429,5.8551l-46.20097,11.76998z" fill="#ad6d8e"/><path d="M370.26023,212.13653l5.97893,-9.25108l26.17173,-6.03814l-2.73069,10.92127z" fill="#8d788b"/><path d="M345.24,217.05308l-2.38435,-16.05926l33.4536,1.88543l-3.52024,7.467z" fill="#857183"/><path d="M386.71106,207.53843l15.63804,-10.68073l28.09379,-0.35712l0.72952,6.86126z" fill="#947e92"/><path d="M341.02676,217.06339l0.98744,-13.05249l0.98117,-3.24307l2.21233,14.90051z" fill="#756474"/><path d="M347.09933,226.8191l-2.48651,-11.83589l42.60204,-7.99214l1.1454,16.06301z" fill="#746373"/><path d="M388.35036,223.03992c0,0 -0.5505,-6.29487 -0.77158,-9.13738c-0.18933,-2.43369 -0.47463,-6.88238 -0.47463,-6.88238l43.85428,-5.59212l3.21198,8.01523z" fill="#867284"/><path d="M341.05647,216.98781l3.75907,-2.10582l2.31463,11.94028z" fill="#6f5e6d"/><path d="M423.29002,197.45377l-20.09729,-0.4166l26.9715,-0.32829l0.16101,3.56042c0,0 -0.54063,-1.50621 -1.83938,-2.02599c-0.86878,-0.34771 -5.19586,-0.78955 -5.19586,-0.78955z" fill="#978195"/><path d="M384.95972,207.14163c0,0 7.37927,-4.59884 9.92845,-6.3463c1.85701,-1.2729 3.95916,-3.17327 3.95916,-3.17327l2.5229,-0.26074l-13.79063,9.39133z" fill="#9c859a"/><path d="M370.85354,210.05315c0,0 0.89789,-2.91575 2.03525,-4.44977c1.1373,-1.53396 3.30083,-2.67934 3.30083,-2.67934l-2.90121,6.76754z" fill="#806b7d"/><path d="M403.65265,194.89926l1.26818,-5.98451l15.58347,1.46055l6.47923,5.50816z" fill="#55494f"/><path d="M401.55799,198.04105c0,0 0.95466,-0.94059 1.42311,-1.60131c0.35283,-0.49766 0.83001,-1.96828 0.83001,-1.96828l22.65921,0.67957c0,0 0.93144,0.36413 1.55911,0.60015c0.65602,0.24667 2.29559,0.8494 2.29559,0.8494z" fill="#685960"/><path d="M404.07674,193.93429l0.96714,-4.77921l14.48158,1.2132c0,0 -8.14498,-0.3402 -12.54007,0.56981c-2.54942,0.52785 -2.90856,2.9962 -2.90856,2.9962z" fill="#41383c"/></g><path d="M66.72927,250.43892l-0.76489,-5.15183c0,0 21.90411,-4.56142 43.63252,-7.72991c12.94816,-1.88812 26.6055,-2.30071 33.40032,-3.66348c15.32077,-3.07285 25.01342,-9.07357 25.01342,-9.07357l-4.70877,11.45892z" fill="#ffa1d1" stroke-width="0"/><path d="M66.22913,264.62373l-0.22502,-16.22547c0,0 54.50476,-6.00935 72.09368,-9.06636c10.41896,-1.81084 23.71524,-7.58533 23.71524,-7.58533l2.15039,14.4836c0,0 -66.76909,9.91339 -82.86504,12.30319c-6.61803,0.98259 -10.92098,32.68314 -10.92098,32.68314z" fill="#ee96c3" stroke-width="0"/><path d="M254.72914,313.9673l7.1827,-14.81135c0,0 7.48223,-17.142 15.77276,-25.31089c2.10677,-2.07585 7.04453,-4.01861 7.04453,-4.01861c0,0 -6.49253,6.00373 -8.64927,9.14598c-5.09321,7.42061 -21.35062,34.99486 -21.35062,34.99486z" fill="#70646b" stroke-width="0"/><path d="M340.1739,235.72967l-8.87613,-16.88126l1.33548,-0.19829c0,0 2.68816,5.11254 4.10855,7.814c0.2024,0.38487 1.73188,1.3923 1.98258,1.86905c0.43455,0.82644 -0.3728,1.19255 0.1129,2.11625c1.35244,2.57213 2.67207,5.08194 2.67207,5.08194z" fill="#795467" stroke-width="0"/><path d="M164.65237,246.56445c0,0 -11.33068,-4.94185 -11.21307,-8.77561c0.07041,-2.2955 15.56247,-12.63491 15.56247,-12.63491l68.00471,-8.40642l-1.16422,3.30292l30.09944,0.83698l-67.11461,36.83118c0,0 -1.60725,-5.4367 1.53624,-8.79292c3.05509,-3.26185 17.06709,-11.06937 17.06709,-11.06937c0,0 -33.85354,4.97681 -41.07817,5.96185c-2.41031,0.32863 -11.69999,2.74627 -11.69999,2.74627z" fill="#f399c8" stroke-width="0"/><g><path d="M167.50699,227.32109l-0.47557,-3.20323l174.63928,-25.92912l0.47557,3.20323z" fill="#584f54" stroke-width="0"/><path d="M335.97361,199.28551l-0.40189,-2.70662l3.02213,-0.44872l3.06842,2.31076z" fill="#685d63" stroke-width="0"/><g fill="#685d63" stroke-width="0"><g><g><g><path d="M329.42239,200.5101l-0.4372,-2.94472l3.83903,-0.57002l0.4372,2.94472z"/><path d="M323.19314,201.43503l-0.4372,-2.94472l3.83904,-0.57001l0.4372,2.94472z"/></g><g><path d="M317.19897,202.32494l-0.43721,-2.94473l3.83904,-0.57001l0.4372,2.94472z"/><path d="M310.96968,203.24985l-0.4372,-2.94472l3.83903,-0.57001l0.43721,2.94473z"/></g></g><g><g><path d="M304.85798,204.15727l-0.43721,-2.94473l3.83903,-0.57001l0.4372,2.94472z"/><path d="M298.6287,205.08218l-0.4372,-2.94472l3.83903,-0.57002l0.43721,2.94473z"/></g><g><path d="M292.63452,205.97212l-0.4372,-2.94472l3.83903,-0.57001l0.4372,2.94472z"/><path d="M286.40533,206.89697l-0.4372,-2.94472l3.83901,-0.57l0.43721,2.94473z"/></g></g></g><g><g><g><path d="M286.17029,206.93188l-0.4372,-2.94472l3.83903,-0.57001l0.4372,2.94472z"/><path d="M279.94107,207.85674l-0.4372,-2.94472l3.83904,-0.57001l0.4372,2.94472z"/></g><g><path d="M273.94686,208.7467l-0.43721,-2.94473l3.83903,-0.57001l0.4372,2.94472z"/><path d="M267.71757,209.67159l-0.4372,-2.94472l3.83901,-0.57l0.43721,2.94473z"/></g></g><g><g><path d="M261.60593,210.57902l-0.43721,-2.94473l3.83904,-0.57001l0.4372,2.94472z"/><path d="M255.37666,211.50388l-0.4372,-2.94472l3.83904,-0.57001l0.43721,2.94473z"/></g><g><path d="M249.38249,212.39389l-0.4372,-2.94472l3.83903,-0.57002l0.43721,2.94473z"/><path d="M243.15323,213.31873l-0.4372,-2.94472l3.83904,-0.57001l0.4372,2.94472z"/></g></g></g></g><g><g fill="#685d63" stroke-width="0"><g><g><path d="M237.00153,214.23207l-0.43721,-2.94473l3.83904,-0.57001l0.4372,2.94472z"/><path d="M230.77231,215.15694l-0.4372,-2.94472l3.83904,-0.57001l0.43721,2.94473z"/></g><g><path d="M224.77814,216.04697l-0.4372,-2.94472l3.83904,-0.57001l0.43721,2.94473z"/><path d="M218.54895,216.97178l-0.4372,-2.94472l3.83903,-0.57002l0.43721,2.94473z"/></g></g><g><g><path d="M212.43718,217.8792l-0.43721,-2.94473l3.83904,-0.57001l0.4372,2.94472z"/><path d="M206.20791,218.80407l-0.4372,-2.94472l3.83904,-0.57001l0.43721,2.94473z"/></g><g><path d="M200.21372,219.6941l-0.4372,-2.94472l3.83904,-0.57001l0.43721,2.94473z"/><path d="M193.98445,220.61897l-0.4372,-2.94472l3.83903,-0.57002l0.4372,2.94472z"/></g></g></g><g><g fill="#685d63" stroke-width="0"><g><path d="M193.74946,220.65384l-0.43721,-2.94473l3.83904,-0.57001l0.4372,2.94472z"/><path d="M187.52016,221.57869l-0.4372,-2.94472l3.83903,-0.57002l0.43721,2.94473z"/></g><g><path d="M181.52601,222.46867l-0.4372,-2.94472l3.83903,-0.57002l0.43721,2.94473z"/><path d="M175.29675,223.39352l-0.4372,-2.94472l3.83903,-0.57002l0.4372,2.94472z"/></g></g><g fill="none" stroke-width="1" font-family="sans-serif" font-weight="normal" font-size="12" text-anchor="start"><g/><g/></g></g></g><path d="M167.13859,224.3529l2.26472,-3.10255l3.02213,-0.44872l0.40189,2.70662z" data-paper-data="{&quot;index&quot;:null}" fill="#685d63" stroke-width="0"/></g><path d="M228.26233,248.52464l-2.48452,0.64188c0,0 1.28365,-2.78628 10.60916,-5.31091c7.07012,-1.91403 27.21784,-6.23128 39.28514,-8.77687c5.60375,-1.18213 60.17082,-18.38447 60.17082,-18.38447l5.14033,-0.77766c0,0 -59.48317,19.59304 -65.08616,20.75155c-12.38971,2.5618 -33.21688,6.90482 -39.21386,8.38005c-3.2645,0.80305 -8.42087,3.47643 -8.42087,3.47643z" fill="#70475c" stroke-width="0"/><path d="M330.87302,252.52597l-4.59933,2.54889l-2.77961,-18.72623c0,0 7.71408,-1.09638 15.25829,-2.16869c21.65723,-3.07814 125.7433,-17.87188 125.7433,-17.87188l0.988,6.65432z" fill="#5a5959" stroke-width="0"/><path d="M330.20698,254.27115l0.63761,-3.13367l134.63497,-28.2851l-10.05128,12.82684z" fill="#4b4a4a" stroke-width="0"/><path d="M452.15038,235.97474c0,0 -6.31583,-2.32238 -9.52513,-3.28962c-1.71993,-0.51836 -8.23401,-2.06273 -8.23401,-2.06273c0,0 8.34116,1.69713 11.78871,2.14362c1.2304,0.15939 2.45093,0.72906 3.81835,1.05994c0.44093,0.10665 1.83935,-2.89036 3.46594,-4.86501c0.48618,-0.59024 1.68737,-0.40004 2.15846,-0.80438c1.07996,-0.927 1.27483,-2.05935 1.27483,-2.05935c0,0 0.47034,0.86994 -0.55716,2.24956c-0.28032,0.37643 -2.01197,0.98972 -2.28096,1.39398c-1.07805,1.62017 -1.83413,3.34907 -2.0491,3.97862c-0.59998,1.75699 1.58756,2.04044 1.58756,2.04044z" fill="#414040" stroke-width="0"/><path d="M164.6476,246.8658l2.14382,-11.53876l6.83847,-1.64648c0,0 -0.55142,2.75912 -0.8764,4.38519c-0.08187,0.40956 11.29709,-3.25749 11.74383,-2.64545c0.82887,1.13556 -4.13062,5.67299 -4.33498,6.69567c-0.23367,1.16915 -8.78562,2.83904 -8.78562,2.83904z" fill="#303030" stroke-width="0"/><path d="M164.45128,246.52084l2.16311,-10.69734c0,0 3.15926,0.84985 3.3039,1.82411c0.26325,1.77275 -0.44879,7.72904 -0.44879,7.72904z" fill="#252525" stroke-width="0"/><path d="M326.64579,257.70446l-0.4336,-2.92038l5.03031,-3.73164l-0.79109,3.10219c0,0 -0.88247,1.48094 -1.55178,2.10522c-0.58894,0.54938 -2.25384,1.44451 -2.25384,1.44451z" fill="#383838" stroke-width="0"/><g><g fill="#4b4b4b" stroke-width="0"><g data-paper-data="{&quot;origPos&quot;:null}"><g data-paper-data="{&quot;origPos&quot;:null}"><path d="M393.26038,249.20002l-0.33378,-2.24811l3.70933,-0.55074l0.33378,2.24811z" data-paper-data="{&quot;origPos&quot;:null}"/><path d="M387.06142,250.00554l-0.33378,-2.24811l3.70933,-0.55074l0.33377,2.2481z" data-paper-data="{&quot;origPos&quot;:null}"/></g><g data-paper-data="{&quot;origPos&quot;:null}"><path d="M405.64152,247.47671l-0.33378,-2.24811l3.70933,-0.55074l0.33377,2.2481z" data-paper-data="{&quot;origPos&quot;:null}"/><path d="M399.44258,248.28215l-0.33377,-2.2481l3.70933,-0.55074l0.33378,2.24811z" data-paper-data="{&quot;origPos&quot;:null}"/></g></g><g data-paper-data="{&quot;origPos&quot;:null,&quot;index&quot;:null}"><g data-paper-data="{&quot;origPos&quot;:null}"><path d="M424.60447,244.43146l-0.33378,-2.24811l3.70933,-0.55074l0.33377,2.2481z" data-paper-data="{&quot;origPos&quot;:null}"/><path d="M430.76998,243.40111l-0.33378,-2.2481l3.70933,-0.55074l0.33378,2.24809z" data-paper-data="{&quot;origPos&quot;:null}"/></g><g data-paper-data="{&quot;origPos&quot;:null}"><path d="M412.2567,246.37959l-0.33378,-2.24811l3.70933,-0.55074l0.33378,2.2481z" data-paper-data="{&quot;origPos&quot;:null}"/><path d="M418.42222,245.34935l-0.33377,-2.2481l3.70933,-0.55074l0.33377,2.2481z" data-paper-data="{&quot;origPos&quot;:null}"/></g></g></g><path d="M349.79093,247.31853l-1.99897,-13.46355l83.55805,-12.40609l1.99897,13.46355z" data-paper-data="{&quot;origPos&quot;:null}" fill="#444444" stroke-width="0"/><path d="M350.58189,251.97507l-0.70234,-4.73058l83.31243,-12.36964l0.70235,4.73059z" data-paper-data="{&quot;origPos&quot;:null}" fill="#414141" stroke-width="0"/><path d="M350.82552,253.37877l-0.23755,-1.60011l83.30188,-12.36805l0.23756,1.6001z" data-paper-data="{&quot;origPos&quot;:null}" fill="#3f3f3f" stroke-width="0"/><g stroke-width="0"><g data-paper-data="{&quot;origPos&quot;:null}" fill="#5a5a5a"><g data-paper-data="{&quot;origPos&quot;:null}"><path d="M392.60506,241.04207l-2.01937,-13.60091l3.53266,-0.5245l2.01937,13.60091z" data-paper-data="{&quot;origPos&quot;:null}"/></g><g data-paper-data="{&quot;origPos&quot;:null}"><path d="M398.61069,240.15041l-2.01937,-13.60091l3.53267,-0.52449l2.01937,13.60091z" data-paper-data="{&quot;origPos&quot;:null}"/><path d="M404.7929,239.23253l-2.01936,-13.60093l3.53266,-0.5245l2.01937,13.60091z" data-paper-data="{&quot;origPos&quot;:null}"/></g></g><g data-paper-data="{&quot;origPos&quot;:null}" fill="#5a5a5a"><g data-paper-data="{&quot;origPos&quot;:null}"><path d="M411.32842,238.26218l-2.01937,-13.60091l3.53266,-0.5245l2.01937,13.60092z" data-paper-data="{&quot;origPos&quot;:null}"/><path d="M417.51063,237.3443l-2.01937,-13.60091l3.53267,-0.52449l2.01936,13.60093z" data-paper-data="{&quot;origPos&quot;:null}"/></g><g data-paper-data="{&quot;origPos&quot;:null}"><path d="M423.51622,236.4526l-2.01936,-13.60093l3.53266,-0.5245l2.01936,13.60093z" data-paper-data="{&quot;origPos&quot;:null}"/><path d="M429.69847,235.53471l-2.01936,-13.60093l3.53266,-0.5245l2.01937,13.60091z" data-paper-data="{&quot;origPos&quot;:null}"/></g></g><path d="M396.19845,240.50855l-0.58569,2.03913l-5.17819,0.81239l-1.57658,-9.66979l1.66943,-6.24053l2.08756,13.5908z" fill="#3a3a3a"/><path d="M402.20164,239.61725l-0.58569,2.03914l-5.17821,0.81238l-1.57657,-9.66981l1.66944,-6.24052l2.08757,13.59079z" fill="#3a3a3a"/><path d="M408.34123,238.70569l-0.58569,2.03914l-5.1782,0.81239l-1.57658,-9.66979l1.66944,-6.24052l2.08756,13.5908z" fill="#3a3a3a"/><path d="M414.95833,237.72324l-0.58569,2.03914l-5.1782,0.81239l-1.57658,-9.66979l1.66944,-6.24052l2.08756,13.5908z" fill="#3a3a3a"/><path d="M421.16617,236.80154l-0.58569,2.03914l-5.1782,0.81239l-1.57658,-9.66979l1.66944,-6.24052l2.08757,13.59079z" fill="#3a3a3a"/><path d="M427.10109,235.92035l-0.58569,2.03913l-5.17819,0.81239l-1.57658,-9.66979l1.66944,-6.24052l2.08756,13.5908z" fill="#3a3a3a"/><path d="M433.31675,234.9975l-0.58569,2.03913l-5.1782,0.81239l-1.57657,-9.66981l1.66943,-6.24053l2.08756,13.5908z" fill="#3a3a3a"/></g><g stroke-width="0"><g data-paper-data="{&quot;origPos&quot;:null}" fill="#5a5a5a"><g data-paper-data="{&quot;origPos&quot;:null}"><path d="M349.84475,247.39081l-2.01936,-13.60093l3.53267,-0.52449l2.01937,13.60091z" data-paper-data="{&quot;origPos&quot;:null}"/></g><g data-paper-data="{&quot;origPos&quot;:null}"><path d="M355.85035,246.49919l-2.01937,-13.60091l3.53266,-0.5245l2.01937,13.60091z" data-paper-data="{&quot;origPos&quot;:null}"/><path d="M362.03258,245.58129l-2.01937,-13.60091l3.53267,-0.52449l2.01936,13.60093z" data-paper-data="{&quot;origPos&quot;:null}"/></g></g><g data-paper-data="{&quot;origPos&quot;:null}" fill="#5a5a5a"><g data-paper-data="{&quot;origPos&quot;:null}"><path d="M368.56805,244.61089l-2.01936,-13.60093l3.53266,-0.52449l2.01937,13.60091z" data-paper-data="{&quot;origPos&quot;:null}"/><path d="M374.75037,243.69299l-2.01937,-13.60091l3.53267,-0.52449l2.01936,13.60093z" data-paper-data="{&quot;origPos&quot;:null}"/></g><g data-paper-data="{&quot;origPos&quot;:null}"><path d="M380.75597,242.80133l-2.01937,-13.60091l3.53267,-0.52449l2.01936,13.60093z" data-paper-data="{&quot;origPos&quot;:null}"/><path d="M386.93821,241.88349l-2.01936,-13.60093l3.53267,-0.52449l2.01937,13.60092z" data-paper-data="{&quot;origPos&quot;:null}"/></g></g><path d="M353.43808,246.8573l-0.58569,2.03914l-2.69385,0.44351l-0.30388,-1.95065z" fill="#3a3a3a"/><path d="M359.4413,245.96601l-0.58569,2.03914l-5.1782,0.81239l-1.57657,-9.66981l1.66944,-6.24052l2.08756,13.5908z" fill="#3a3a3a"/><path d="M365.58085,245.05441l-0.58569,2.03913l-5.1782,0.81239l-1.57658,-9.66979l1.66943,-6.24053l2.08756,13.5908z" fill="#3a3a3a"/><path d="M372.19793,244.07194l-0.58569,2.03913l-5.1782,0.81239l-1.57657,-9.66981l1.66944,-6.24052l2.08756,13.5908z" fill="#3a3a3a"/><path d="M378.40585,243.15028l-0.58569,2.03913l-5.17819,0.81239l-1.57658,-9.66979l1.66944,-6.24052l2.08756,13.5908z" fill="#3a3a3a"/><path d="M384.34078,242.26909l-0.58569,2.03913l-5.17819,0.81239l-1.57658,-9.66979l1.66943,-6.24053l2.08756,13.5908z" fill="#3a3a3a"/><path d="M390.55646,241.34628l-0.58569,2.03914l-5.17819,0.81239l-1.57658,-9.66979l1.66944,-6.24052l2.08756,13.5908z" fill="#3a3a3a"/></g><g><g data-paper-data="{&quot;origPos&quot;:null}"><g data-paper-data="{&quot;origPos&quot;:null}" fill="none" stroke-width="1" font-family="sans-serif" font-weight="normal" font-size="12" text-anchor="start"/><g data-paper-data="{&quot;origPos&quot;:null}" fill="#4b4b4b" stroke-width="0"><path d="M357.44547,254.71025l-0.33378,-2.24811l3.70933,-0.55074l0.33378,2.2481z" data-paper-data="{&quot;origPos&quot;:null}"/><path d="M351.24655,255.51576l-0.33378,-2.24811l3.70933,-0.55074l0.33378,2.24811z" data-paper-data="{&quot;origPos&quot;:null}"/></g></g><g data-paper-data="{&quot;origPos&quot;:null,&quot;index&quot;:null}" fill="#4b4b4b" stroke-width="0"><g data-paper-data="{&quot;origPos&quot;:null}"><path d="M376.40846,251.66495l-0.33377,-2.2481l3.70933,-0.55074l0.33377,2.2481z" data-paper-data="{&quot;origPos&quot;:null}"/><path d="M382.57395,250.63466l-0.33378,-2.24809l3.70933,-0.55074l0.33377,2.2481z" data-paper-data="{&quot;origPos&quot;:null}"/></g><g data-paper-data="{&quot;origPos&quot;:null}"><path d="M364.06056,253.61319l-0.33378,-2.24811l3.70933,-0.55074l0.33377,2.2481z" data-paper-data="{&quot;origPos&quot;:null}"/><path d="M370.22615,252.58282l-0.33378,-2.24811l3.70933,-0.55074l0.33378,2.24811z" data-paper-data="{&quot;origPos&quot;:null}"/></g></g></g></g><path d="M176.95607,243.4269l0.40933,-4.3221c0,0 4.0988,-3.79054 7.56965,-4.4575c3.96784,-0.76249 33.61546,-5.13909 33.61546,-5.13909c0,0 0.9303,1.75817 1.05673,2.96993c0.16287,1.56123 -1.48018,4.90339 -1.48018,4.90339z" fill="#242424" stroke-width="0"/><path d="M201.0125,236.00339l-0.46267,-3.11615l17.80659,-2.64382l0.46267,3.11615z" fill="#313131" stroke-width="0"/><path d="M198.03799,238.39683l-0.09578,-0.64519c0,0 0.9019,-1.1966 1.91391,-1.34683c0.96097,-0.14266 3.19497,0.00577 5.64428,-0.19275c4.66589,-0.37813 10.24823,-1.10418 10.24823,-1.10418l0.09578,0.64519c0,0 -5.36968,0.79521 -9.9711,1.1643c-2.51071,0.20138 -4.83788,-0.02828 -5.83473,0.11972c-1.04781,0.15559 -2.00051,1.35971 -2.00051,1.35971z" fill="#616161" stroke-width="0"/><path d="M222.56958,218.87141l13.00012,1.12963l31.29554,0.71976c0,0 0.75813,0.11411 -7.3596,0.5831c-2.76152,0.15957 -13.52082,0.13035 -22.92308,-0.39732c-2.54412,-0.14279 -16.23896,-1.58804 -16.23896,-1.58804z" fill="#df8cb7" stroke-width="0"/><path d="M44.37632,251.73395l-0.87134,-5.86877c0,0 5.45012,-2.58135 9.21265,-3.13999c3.08026,-0.45737 11.98566,1.76484 11.98566,1.76484l1.66874,12.15749z" fill="#626061" stroke-width="0"/><path d="M160.644,244.56663l4.12316,1.92133l11.92003,-3.10749l50.19473,-7.45251l0.16027,1.07919c0,0 -37.67475,5.44685 -49.41066,7.45437c-3.22206,0.55118 -12.71041,2.68867 -12.71041,2.68867z" fill="#ffa6d4" stroke-width="0"/><path d="M50.91417,315.39442l-1.05294,-7.09185l20.73128,-19.89056l0.41764,13.75674l-12.23329,12.05831z" fill="#3f3d3e" stroke-width="0"/><path d="M48.55858,310.62848c0,0 -2.70057,-19.4663 -3.31106,-29.06405c-0.68904,-10.83254 -0.61613,-32.67623 -0.61613,-32.67623c0,0 8.49334,-1.45247 12.27826,-0.35057c3.23938,0.94306 9.05045,6.55991 9.05045,6.55991l4.92747,33.18772c0,0 -9.71649,15.29089 -12.39656,17.97272c-4.12244,4.12509 -9.9324,4.37044 -9.9324,4.37044z" fill="#555354" stroke-width="0"/><path d="M46.03878,259.3939c0,0 -2.40359,-5.70171 -0.75597,-8.67314c1.64762,-2.97142 5.80067,-4.61608 8.33321,-4.99212c2.02028,-0.29996 6.21268,-0.84285 9.70966,3.14537c3.49704,3.98814 2.57781,10.86781 2.57781,10.86781c0,0 -7.75939,-9.36567 -10.35054,-9.41109c-3.65636,-0.06402 -9.51418,9.06317 -9.51418,9.06317z" fill="#6f6b6c" stroke-width="0"/><path d="M47.83682,315.66093c0,0 -2.13164,-26.03174 -3.81233,-37.35147c-1.75027,-11.78857 -5.00501,-32.25086 -5.00501,-32.25086c0,0 1.04925,-0.80581 2.07878,-0.95864c0.94136,-0.13978 2.58571,0.2661 2.58571,0.2661c0,0 2.60116,18.97906 4.17188,29.55785c1.8248,12.29074 3.37356,40.23324 3.37356,40.23324z" fill="#333232" stroke-width="0"/><path d="M47.47585,316.16301l-1.07777,-14.70947c0,0 1.17429,0.72428 1.76154,0.59802c0.74152,-0.15943 2.18924,-1.82769 2.18924,-1.82769l1.05309,15.35621z" fill="#2e2d2d" stroke-width="0"/><path d="M67.63343,276.51285c1.19905,8.0761 -1.6074,17.25574 -5.49539,20.79254c-3.2291,2.93742 -9.65394,10.72326 -10.85302,2.6472c-0.25438,-1.7133 0.0229,-13.76403 -0.88246,-20.73653c-1.19737,-9.22096 -3.55673,-13.90616 -3.02519,-16.84776c0.96123,-5.31887 6.20732,-7.59347 8.39783,-7.91871c4.31795,-0.64108 10.65921,13.98718 11.85828,22.06326z" fill="#585758" stroke-width="0"/><path d="M103.78977,285.382l-0.84181,-1.63485c0,0 7.65529,-2.50196 13.53691,-3.86468c8.27997,-1.91841 31.45699,-6.55999 31.45699,-6.55999l1.96464,1.00354c0,0 -24.60038,5.29062 -33.10686,7.32995c-2.49822,0.59892 -13.00987,3.72601 -13.00987,3.72601z" fill="#585657" stroke-width="0"/><path d="M99.90198,299.30448l3.12275,-14.3051l7.02415,-2.00398c0,0 -1.08573,4.52198 -0.8895,5.2563c0.93777,3.50864 7.42203,26.77566 7.42203,26.77566c0,0 -1.39675,0.65262 -2.8487,-1.0279c-2.60522,-3.01537 -5.42856,-9.53341 -7.47045,-11.35596c-1.76417,-1.57465 -6.3603,-3.33897 -6.3603,-3.33897z" fill="#5a5759" stroke-width="0"/><path d="M107.77156,266.99431l1.19317,-11.63467l2.29171,-0.4526l-2.25956,12.01774z" fill="#a5a0a2" stroke-width="0"/><path d="M114.32853,264.92542l-0.20602,-1.38753l26.20893,-3.89133l0.20603,1.38753z" fill="#494748" stroke-width="0"/><path d="M113.81242,261.99818l-0.20602,-1.38753l26.20893,-3.89133l0.20602,1.38753z" fill="#494748" stroke-width="0"/><path d="M97.88057,287.01696l-2.95757,-19.91997l10.70229,-11.31069l4.74629,-1.01986l-9.81159,44.7396l-5.84461,-1.15758z" fill="#dbd5d8" stroke-width="0"/><path d="M73.41911,302.69385l-1.88782,-11.63981l26.24954,-4.69549c0,0 0.6994,2.46173 0.68789,3.27069c-0.02864,2.01654 -0.99527,9.17393 -0.99527,9.17393z" fill="#ccc6c9" stroke-width="0"/><path d="M75.49507,290.87039l-0.04637,-0.31237l22.44204,-4.21001l-2.40324,1.55412c0,0 -4.24743,0.81887 -6.93143,1.18527c-3.67513,0.5017 -13.06104,1.78305 -13.06104,1.78305z" fill="#d8d1d5" stroke-width="0"/><path d="M78.42362,286.65779l-2.49665,-16.81564l15.95013,-2.36816l2.49665,16.81564z" fill="#a39999" stroke-width="0"/><path d="M73.17052,302.9024l-1.66825,-11.23614c0,0 9.67902,5.01962 14.26295,6.70524c4.58395,1.68568 10.97354,0.45393 10.97354,0.45393z" fill="#b4afb1" stroke-width="0"/><path d="M107.33637,303.9386c0,0 3.1494,0.5843 4.21255,0.28115c0.65309,-0.18625 1.55951,-1.92717 1.55951,-1.92717l2.97302,8.73125l0.61612,4.14965c0,0 -1.87623,0.5934 -3.52075,-1.77333c-1.35681,-1.95275 -5.84054,-9.46145 -5.84054,-9.46145z" fill="#504e4f" stroke-width="0"/><path d="M100.28486,299.81002l8.17416,-43.41479l1.75484,-0.05316l-8.01248,43.80556z" fill="#858183" stroke-width="0"/><path d="M77.64562,261.96855l1.25591,-1.85509c0,0 27.02378,-4.66326 39.29949,-6.48585c10.65453,-1.58189 31.6504,-4.34234 31.6504,-4.34234l0.80887,1.84257c0,0 -21.17008,2.42944 -32.40053,4.0969c-12.8238,1.90401 -40.61415,6.74382 -40.61415,6.74382z" fill="#918b8e" stroke-width="0"/><path d="M78.47211,260.60162l1.71682,-2.2176c0,0 25.55579,-4.15121 37.83149,-5.97383c10.65453,-1.58188 31.6504,-4.34234 31.6504,-4.34234l0.80887,1.84258c0,0 -21.17007,2.42944 -32.40054,4.09689c-12.8238,1.90401 -39.60704,6.59423 -39.60704,6.59423z" fill="#a59fa2" stroke-width="0"/><path d="M145.43291,271.67368l-2.73923,-5.33822c0,0 0.03239,-1.22302 0.34513,-1.38352c0.27556,-0.14144 1.43419,0.47046 1.43419,0.47046l2.73922,5.33823c0,0 -0.14427,0.90866 -0.42047,1.05039c-0.31247,0.16033 -1.35892,-0.13732 -1.35892,-0.13732z" fill="#494242" stroke-width="0"/><path d="M105.984,280.20843l2.11133,-9.90314l3.84359,-0.57065l-2.11133,9.90314z" fill="#9c989a" stroke-width="0"/><path d="M112.83686,261.21998l1.68848,-1.22926l24.17649,-3.5713l2.13568,0.64323z" fill="#757274" stroke-width="0"/><path d="M113.34304,263.98688l1.68847,-1.22927l24.17648,-3.57128l2.13569,0.64322z" fill="#757274" stroke-width="0"/><path d="M70.63173,302.28558l-6.85276,-57.77778l1.98476,0.2924l7.45125,58.09447z" fill="#686666" stroke-width="0"/><path d="M70.50982,302.57694l-1.73984,-16.17561l2.82703,3.44057l1.52312,13.22983z" fill="#535252" stroke-width="0"/><path d="M97.56289,275.43487c0,0 1.75655,-2.63194 1.61751,-3.56851c-0.13644,-0.91903 -2.44416,-1.99919 -2.44416,-1.99919c0,0 3.06787,0.22153 3.21272,1.90686c0.11034,1.28371 -0.60734,3.60326 -0.53189,4.70651c0.21453,3.13694 0.61248,10.50579 0.61248,10.50579z" fill="#c4bec1" stroke-width="0"/><path d="M104.87488,272.41662l0.39354,-10.36564l1.88173,-4.68139l-1.22253,9.84451z" fill="#aca7a9" stroke-width="0"/></g></g><g stroke-width="0"><path d="M217.5663,227.54948l2.0383,-3.66833c0,0 1.57687,-1.68615 2.43331,-1.53535c0.97643,0.17198 3.11251,2.51222 3.11251,2.51222l0.0634,4.1173c0,0 -4.23593,0.62127 -5.50803,0.67542c-0.57351,0.02438 -2.13949,-2.10124 -2.13949,-2.10124z" fill="#c0c0c0"/><path d="M176.53019,243.39914c0,0 -0.59751,-2.82283 0.28288,-4.1049c1.10334,-1.60669 6.7924,-4.68781 6.7924,-4.68781l-0.00717,4.79006l0.42903,2.88957z" fill="#838383"/><path d="M176.34894,243.35087l6.91812,-8.59047l37.15505,-5.5165l1.09871,7.40017z" fill="#999999"/><path d="M177.2407,242.55483l5.23507,-6.68244l33.4061,-4.95988l0.85788,5.77776c0,0 -4.04326,0.60035 -9.24444,1.37256c-3.38163,0.50205 -7.40866,0.02634 -10.9762,0.55602c-3.82712,0.56823 -7.14898,2.13506 -9.29861,2.45424c-4.20704,0.62462 -9.97982,1.48173 -9.97982,1.48173z" fill="#d952b3"/><path d="M180.69474,242.03978l7.41118,-7.06831l12.32896,-1.83054c0,0 -7.01599,2.96996 -9.22602,4.22266c-2.34628,1.32988 -5.21367,3.88923 -5.21367,3.88923z" fill="#a5899d"/><path d="M188.5807,240.75496c0,0 4.88723,-1.70839 7.31769,-2.06923c3.10552,-0.46109 9.79159,-0.471 9.79159,-0.471l-9.59859,1.08627z" fill="#adadad"/><path d="M176.44971,243.31751l6.24875,-7.75343l34.58755,-5.1353l0.10115,0.68115c0,0 -29.94853,4.44653 -33.85232,5.02611c-0.81653,0.12124 -7.08499,7.18146 -7.08499,7.18146z" fill="#8a8a8a"/><path d="M224.02139,242.55862l-1.43266,-9.64953l-0.41399,-7.2194c0,0 1.24332,0.29044 1.87394,0.76652c0.63066,0.47603 1.17558,1.53533 1.17558,1.53533l0.78831,14.27153z" fill="#9e9e9e"/><path d="M218.00757,239.17439c0,0 -1.21395,-1.96795 -1.58255,-3.51979c-0.49638,-2.08969 -0.4605,-7.6737 -0.4605,-7.6737l1.87257,-0.60696c0,0 0.86693,0.67174 1.31771,0.45404c0.62149,-0.30016 2.06652,-2.0885 2.06652,-2.0885l1.38519,12.75215z" fill="#9c9c9c"/><path d="M218.84414,240.90088c-0.93608,-0.97755 -0.89995,-2.37111 -0.89995,-2.37111l3.76734,-7.83866c0,0 1.94891,3.63697 2.0835,4.5435c0.38267,2.57729 2.07579,7.12766 2.07579,7.12766c0,0 -2.93549,0.52048 -4.02749,0.2392c-1.30974,-0.33739 -2.06301,-0.72308 -2.99916,-1.70066z" fill="#888888"/><path d="M220.49186,239.87354c-1.27124,-1.83288 -2.92623,-6.09916 -1.69957,-10.39267c1.22671,-4.29352 3.92783,-2.54002 3.92783,-2.54002c0,0 1.64517,4.22722 1.98484,6.51501c0.30944,2.08401 -0.02908,6.65747 -0.02908,6.65747c0,0 -2.9128,1.59313 -4.18399,-0.23978z" fill="#b4b4b4"/><path d="M223.47835,231.65047c0.20725,1.39578 -4.83593,2.22277 -5.04321,0.82704c-0.20725,-1.39578 2.02495,-7.18862 2.82857,-7.30789c0.31122,-0.0462 0.96306,-0.04003 1.3132,0.98033c0.5539,1.61421 0.77441,4.64536 0.90139,5.50053z" fill="#bbbbbb"/></g><g stroke-width="0"><path d="M160.54647,244.56577c0,0 -6.5152,-4.00391 -6.79036,-5.857c-0.22464,-1.51307 5.72803,-2.52134 5.72803,-2.52134l7.47398,-1.03705l-2.39746,11.25308z" fill="#f399c8"/><path d="M130.59244,250.67279c0,0 -1.26765,-1.93263 -1.17074,-3.0315c0.10696,-1.21267 1.6155,-5.08109 1.6155,-5.08109l22.76109,-3.56705l10.29366,7.18939z" fill="#ee96c3"/></g></g><g stroke-width="0"><g><path d="M222.14848,217.13771l-0.90792,-6.11473l47.29968,-7.02273l0.90792,6.11473z" fill="#61585b"/><path d="M221.51066,213.95333l-0.48615,-3.27447l47.47952,-7.0494l0.48616,3.27446c0,0 -8.54718,1.269 -17.32728,2.57261c-2.74516,0.4076 -6.38176,2.48138 -8.91839,2.85795c-3.01633,0.4478 -6.4741,-0.57263 -8.40893,-0.28538c-5.80171,0.86138 -12.82492,1.90411 -12.82492,1.90411z" fill="#494344"/><path d="M281.6975,198.33961l-12.0127,-17.35693l20.69241,-3.07224l17.72478,14.32655c0,0 -5.4483,2.18522 -8.60738,2.91539c-4.87473,1.12665 -17.79715,3.1873 -17.79715,3.1873z" fill="#5e555b"/><path d="M282.20411,201.73714l-0.81339,-5.47844c0,0 11.9517,-3.24357 16.67631,-4.73322c3.74956,-1.18221 6.43932,-2.16999 6.43932,-2.16999l6.89404,5.99125c0,0 -5.04015,2.36197 -9.07787,3.41025c-5.47088,1.42037 -20.11835,2.98014 -20.11835,2.98014z" fill="url(#color-5)"/><path d="M268.03168,181.38868l-0.58689,-3.95282l18.94386,-2.81263l4.18384,3.41879z" fill="url(#color-6)"/><path d="M281.63028,201.84755l-0.18491,-1.24561c0,0 15.42923,-2.36808 20.73273,-3.32485c3.96565,-0.71543 8.10666,-2.92441 8.10666,-2.92441l1.04737,1.00179l-7.83047,3.24572z" fill="#312c30"/><g><path d="M180.14926,206.19785l-1.52495,-8.72906l92.90686,-13.79413l9.21458,10.03738z" fill="#8a6672"/><path d="M197.72604,211.9647c0,0 -4.01089,-3.04983 -6.99985,-4.08361c-2.98894,-1.03385 -9.93875,0.23805 -9.93875,0.23805l-0.19556,-2.08092c0,0 12.23026,-1.53643 19.19734,-2.47456c16.64342,-2.24115 80.23147,-10.91428 80.23147,-10.91428l4.54834,5.96367z" fill="#755761"/><path d="M200.90944,214.01026l-3.37326,-2.11936l86.56476,-13.34724l1.6449,2.87067z" fill="#694e57"/><path d="M178.51948,197.88487l-0.66516,-4.4799l89.72177,-14.00804l4.63935,5.03447c0,0 3.21553,2.89722 -2.01715,3.64853c-1.64726,0.23652 -11.16394,-1.75594 -12.81534,-1.51879c-15.90383,2.28358 -78.86352,11.32367 -78.86352,11.32367z" fill="#916b77"/><path d="M178.09363,193.36955l-0.48831,-2.47966l88.91354,-13.34147l1.38517,2.21284z" fill="#9e7582"/><path d="M251.51614,183.15972c-8.07549,0.54399 -72.18977,9.01954 -72.18977,9.01954l86.90143,-12.90252l5.84157,6.65544c0,0 -12.4777,-3.31645 -20.55324,-2.77248z" fill="#b38f9a"/></g><path d="M231.44611,209.47352l-1.34724,-9.07432l19.99304,-2.96843l1.34725,9.07433z" fill="#3a3336"/><path d="M230.01258,200.41624l0.4851,-1.61124l18.33741,-2.72263l1.19806,1.36127z" fill="#4b4246"/><path d="M231.51142,208.95904l-1.20098,-8.08895c0,0 1.82101,5.0532 4.61256,5.75713c2.7916,0.70395 16.02274,-0.55371 16.02274,-0.55371z" fill="#332c30"/><path d="M269.60048,183.40392l-4.75864,-5.35923c0,0 0.91394,-0.80969 1.50802,-0.89786c0.66417,-0.09858 2.29027,0.33392 2.29027,0.33392l4.75864,5.35923z" fill="#757575"/><path d="M273.28344,187.6436l-6.83801,-7.69143l3.79835,-0.56395l6.838,7.69143z" fill="#5a5a5a"/><path d="M278.42942,193.39925l-6.838,-7.69143l3.79834,-0.56393l6.83801,7.69143z" fill="#505050"/><path d="M283.75189,199.36195c-1.16791,-1.31367 -5.72493,-6.43945 -5.72493,-6.43945l3.79834,-0.56392l8.05874,9.24319c0,0 -1.95486,0.8316 -2.89621,0.95641c-0.73432,0.09734 -2.72094,-2.61703 -3.2359,-3.19627z" fill="#3b3b3b"/><path d="M179.0054,208.9943l-2.7426,-18.47226l3.14652,-0.46714l2.7426,18.47226z" fill="#443e42"/><path d="M160.5688,213.34816l-1.54893,-5.76301l20.00922,-2.97086l0.8706,5.86375z" fill="url(#color-7)"/><path d="M159.11251,208.2089l-1.59303,-10.72938l20.00922,-2.97086l1.59302,10.72939z" fill="#5e555b"/><path d="M157.53802,197.60447l0.18005,-4.23456l19.21787,-2.85335l0.61128,4.11706z" fill="url(#color-8)"/><path d="M226.49405,183.35795l-0.90076,-6.06681l15.016,-1.15114l5.26399,3.98119z" fill="#5e555b"/><path d="M245.9255,180.47294l-5.30318,-4.24495c0,0 3.08488,0.24014 5.43559,0.90035c2.35069,0.66021 6.28609,2.39162 6.28609,2.39162z" fill="#776b73"/><path d="M223.67424,184.94479l2.98257,-1.70091l25.28329,-4.02348l3.82685,0.95954z" fill="#6d6269"/></g><g><path d="M232.29391,205.33405c-0.1834,-1.23529 0.15148,-2.45441 0.3847,-3.52988c0.32491,-1.49866 0.74649,-2.76207 1.90191,-3.78904c0.70576,-0.62734 1.77355,-1.1795 2.71644,-1.56251c0.62367,-0.25331 1.55322,-0.79582 2.24863,-0.89902c1.57641,-0.23408 1.92702,-0.20346 3.13713,0.11833c0.72897,0.19385 2.4166,0.39727 3.04448,0.98358c0.53144,0.4962 1.14134,1.36461 1.57918,1.98663c0.74817,1.0631 1.81575,2.78954 2.0197,4.16313c0.0862,0.58046 -0.20389,1.97666 -0.17732,2.49383c0.0844,1.64189 0.1585,2.14606 -0.87976,3.41579c-0.63108,0.77171 -2.0415,1.535 -2.95441,2.08497c-0.94542,0.56963 -2.08023,1.61366 -3.2402,1.78588c-0.78297,0.11624 -2.2741,-0.20319 -3.05255,-0.22533c-1.68896,-0.04794 -2.59693,-0.0895 -3.78273,-1.06615c-1.01685,-0.83749 -1.5094,-2.38018 -2.06906,-3.66962c-0.29401,-0.67737 -0.76252,-1.52545 -0.87615,-2.2907z" fill="#3a3a3a"/><path d="M232.99957,205.10933c-0.16783,-1.13047 0.13869,-2.24601 0.35206,-3.23016c0.29733,-1.37139 0.68306,-2.52752 1.74042,-3.46735c0.64583,-0.57407 1.62299,-1.0794 2.48582,-1.42984c0.57072,-0.23182 1.42137,-0.72821 2.05766,-0.82268c1.44262,-0.2142 1.76342,-0.1862 2.87076,0.10824c0.66704,0.17742 2.21138,0.36357 2.78598,0.90003c0.4863,0.4541 1.04452,1.24874 1.44508,1.81798c0.68466,0.97284 1.66156,2.55273 1.84821,3.80963c0.07884,0.5312 -0.18656,1.80886 -0.16224,2.28207c0.07722,1.50245 0.14503,1.96384 -0.80507,3.12573c-0.57744,0.7062 -1.86818,1.40461 -2.70355,1.90794c-0.86515,0.52127 -1.90362,1.47667 -2.96508,1.63426c-0.71644,0.10639 -2.08099,-0.18594 -2.7934,-0.20615c-1.54556,-0.04391 -2.37646,-0.08189 -3.46159,-0.97556c-0.93052,-0.76638 -1.38121,-2.17814 -1.89335,-3.35803c-0.26904,-0.61988 -0.69777,-1.39592 -0.80173,-2.09617z" fill="#5a5a5a"/><path d="M244.39414,198.83854c-2.37316,-2.05955 -7.44088,-1.50995 -7.44088,-1.50995c0,0 1.8419,-0.8194 3.81153,-1.10483c1.59545,-0.23121 3.2043,-0.10161 4.54232,1.01497c1.33913,1.11753 1.94677,2.52828 2.43544,3.86649c0.95807,2.62374 0.87637,5.05494 0.87637,5.05494c0,0 -1.85162,-5.26197 -4.22478,-7.32153z" fill="#6d6d6d"/><path d="M239.86212,204.58528c-0.0846,-0.56949 0.30852,-1.09964 0.878,-1.1842c0.56949,-0.0846 1.09964,0.30852 1.18421,0.87801c0.0846,0.56949 -0.30852,1.09964 -0.87801,1.1842c-0.56949,0.0846 -1.09964,-0.30852 -1.1842,-0.87801z" fill="#272727"/><path d="M239.804,204.73225c-0.07754,-0.52232 0.28297,-1.00859 0.80529,-1.08615c0.52232,-0.07754 1.00859,0.28297 1.08615,0.80529c0.07754,0.52232 -0.28297,1.00859 -0.80528,1.08615c-0.52232,0.07754 -1.00859,-0.28297 -1.08615,-0.80528z" fill="#131313"/></g></g></g></g></g><path d="M168.03862,326.48004c-0.23277,-1.56748 -10.70522,-43.10584 -10.46124,-44.83563c0.32938,-2.33547 8.91693,-2.24508 11.6275,-4.17183c8.30157,-5.90106 17.33449,-11.87962 17.33449,-11.87962c0,0 14.00103,-1.49196 18.1916,-2.11409c3.1338,-0.46525 62.54081,-17.86897 64.79004,-7.76823c3.05078,13.70045 -41.72595,8.50173 -39.94448,20.50083c0.45099,3.03764 2.86329,2.8771 2.76594,6.07328c-0.0234,0.76709 -1.58901,6.23521 -1.56477,7.92603c0.03844,2.68401 3.88571,6.15921 1.06664,9.71096c-2.2472,2.83128 0.40055,7.51003 -0.05271,8.80626c-3.12386,8.93259 -11.92114,6.39263 -20.83626,7.71626c-10.57022,1.56939 -25.40481,7.53608 -34.86839,7.69028c-4.08506,0.06653 -7.37084,6.90813 -8.04828,2.34543z" fill="#86c8f5" stroke-width="0"/></g></g></svg>