<svg version="1.1" xmlns="http://www.w3.org/2000/svg" xmlns:xlink="http://www.w3.org/1999/xlink" width="470.04864" height="149.33732" viewBox="0,0,470.04864,149.33732"><defs><linearGradient x1="533.0253" y1="192.38074" x2="532.45376" y2="197.15831" gradientUnits="userSpaceOnUse" id="color-1"><stop offset="0" stop-color="#1f1d20"/><stop offset="1" stop-color="#202022"/></linearGradient><linearGradient x1="534.03855" y1="187.61227" x2="533.38086" y2="193.10933" gradientUnits="userSpaceOnUse" id="color-2"><stop offset="0" stop-color="#302d31"/><stop offset="1" stop-color="#1f1e20"/></linearGradient><linearGradient x1="195.91428" y1="195.57191" x2="195.51154" y2="198.938" gradientUnits="userSpaceOnUse" id="color-3"><stop offset="0" stop-color="#585758"/><stop offset="1" stop-color="#575758"/></linearGradient><linearGradient x1="181.69666" y1="204.02126" x2="181.3805" y2="206.66379" gradientUnits="userSpaceOnUse" id="color-4"><stop offset="0" stop-color="#363536"/><stop offset="1" stop-color="#353536"/></linearGradient><linearGradient x1="335.07213" y1="128.90776" x2="334.41422" y2="134.40705" gradientUnits="userSpaceOnUse" id="color-5"><stop offset="0" stop-color="#5e555b"/><stop offset="1" stop-color="#2b2629"/></linearGradient><linearGradient x1="327.83876" y1="107.22807" x2="327.36403" y2="111.19593" gradientUnits="userSpaceOnUse" id="color-6"><stop offset="0" stop-color="#72676e"/><stop offset="1" stop-color="#5e555b"/></linearGradient><linearGradient x1="214.03078" y1="107.60991" x2="213.32659" y2="113.49596" gradientUnits="userSpaceOnUse" id="color-7"><stop offset="0" stop-color="#5e555b"/><stop offset="1" stop-color="#4d454a"/></linearGradient><linearGradient x1="215.72387" y1="93.45856" x2="215.22943" y2="97.59138" gradientUnits="userSpaceOnUse" id="color-8"><stop offset="0" stop-color="#74686f"/><stop offset="1" stop-color="#5e555b"/></linearGradient></defs><g transform="translate(-67.78931,-92.35213)"><g data-paper-data="{&quot;isPaintingLayer&quot;:true}" fill-rule="nonzero" stroke="none" stroke-linecap="butt" stroke-linejoin="miter" stroke-miterlimit="10" stroke-dasharray="" stroke-dashoffset="0" style="mix-blend-mode: normal"><g><g stroke-width="0"><path d="M258.6482,187.97896l-8.33486,-16.45189l25.46442,2.45221c0,0 -1.78312,5.65707 -2.30218,8.3127c-0.50209,2.56893 -0.76293,7.36965 -0.76293,7.36965z" fill="#7f7d7e"/><path d="M258.72248,188.18609l-2.94777,-5.99958c0,0 1.91953,3.81007 5.05974,4.80485c2.26127,0.71634 4.17087,0.63263 6.79525,1.26973c2.62434,0.63708 4.962,1.58434 4.962,1.58434z" fill="#6c6a6b"/></g><g><g><g><path d="M529.48382,196.803l-1.47282,-5.02215c0,0 5.75212,2.35786 8.22501,3.55292c2.47291,1.19511 0.81041,2.14042 0.81041,2.14042z" fill="url(#color-1)" stroke-width="0"/><path d="M537.574,188.23634c0,0 1.19262,2.48711 -1.49239,3.0651c-2.68502,0.57802 -5.71283,1.44751 -5.71283,1.44751l-0.30618,-5.6123z" data-paper-data="{&quot;index&quot;:null}" fill="url(#color-2)" stroke-width="0"/><path d="M519.93465,195.65586l0.24928,-2.08355l14.66795,1.7549c0,0 1.15436,0.93807 1.5952,1.35973c0.39625,0.37903 -0.8414,0.84384 -0.8414,0.84384z" fill="#444444" stroke-width="NaN"/><path d="M520.20032,193.71886l-0.97387,-1.88293l12.52632,1.49865l3.17492,2.03363c0,0 -4.21628,-0.26471 -6.50683,-0.52129c-2.58327,-0.28935 -8.22053,-1.12814 -8.22053,-1.12814z" fill="#535353" stroke-width="0"/><path d="M519.09883,191.95829l-0.24645,-0.67406l11.39256,1.36297l1.61109,0.72221z" fill="#363636" stroke-width="0"/><path d="M519.93465,195.65586l0.13525,-1.1303c0,0 6.35403,1.21703 9.21338,1.55912c2.42308,0.28994 6.8517,0.36286 6.8517,0.36286c0,0 0.8031,0.56161 1.02458,0.79246c0.18685,0.19473 -0.30315,0.44036 -0.30315,0.44036c0,0 -4.7473,-0.16059 -7.04465,-0.43547c-3.09946,-0.37084 -9.8772,-1.5891 -9.8772,-1.5891z" fill="#3a3a3a" stroke-width="NaN"/><path d="M519.16889,191.34055l-0.44457,-0.94319l13.54504,1.62053l-1.9177,0.69473z" fill="#242424" stroke-width="0"/><path d="M517.89947,190.48923l0.19656,-1.64261c0,0 8.06054,0.75668 11.03506,1.11258c2.02655,0.24246 5.08649,0.8162 5.08649,0.8162l-1.97772,1.26337z" fill="#3a3a3a" stroke-width="0"/><path d="M517.96226,188.87346l0.24263,-2.02808c0,0 7.6383,0.58162 10.9291,0.9753c2.84767,0.34068 7.67927,1.25099 7.67927,1.25099l-2.64367,1.74084c0,0 -3.6192,-0.51606 -5.84781,-0.78265c-2.96223,-0.35438 -10.35956,-1.15637 -10.35956,-1.15637z" fill="#444444" stroke-width="0"/><path d="M518.15197,186.92473l0.10112,-0.84503c0,0 7.83278,0.81253 11.40454,1.23985c2.48708,0.29754 7.97564,1.0788 7.97564,1.0788l-0.96002,0.7423c0,0 -4.98389,-0.88704 -7.92813,-1.23929c-3.24379,-0.3881 -10.59316,-0.97663 -10.59316,-0.97663z" fill="#535353" stroke-width="0"/><path d="M518.11433,186.14881l0.04046,-0.33802c0,0 7.68215,0.40842 11.11804,0.81954c2.97058,0.35541 8.30496,1.50426 8.30496,1.50426l-0.00314,0.3425c0,0 -5.94673,-0.87758 -9.16875,-1.2631c-3.26417,-0.39052 -10.2915,-1.06513 -10.2915,-1.06513z" fill="#4e4e4e" stroke-width="0"/></g><g stroke-width="0"><g><g><g><path d="M514.18028,194.47592l-2.98561,-13.61469l0.75359,-1.64345c0,0 3.06657,3.61911 3.68662,6.20143c0.3366,1.40193 -0.01031,9.22952 -0.01031,9.22952z" fill="#383638"/><path d="M515.30614,193.91432c0,0 0.13039,-0.59842 -0.20214,-3.11059c-0.36263,-2.73958 -1.31322,-6.51637 -1.57599,-7.6294c-0.58988,-2.49848 -1.32394,-2.71773 -1.32394,-2.71773l4.83515,-0.0075l3.32176,14.07001z" fill="#555355"/><path d="M512.25747,180.54895l-0.43085,-1.29673c0,0 2.10092,-0.5544 3.05572,-0.44013c0.89471,0.10705 1.93553,0.96403 1.93553,0.96403l0.42216,1.36889z" fill="#686668"/></g><path d="M508.54775,193.80204l-2.98561,-13.61468l0.42271,-1.66279c0,0 3.39748,3.63843 4.01745,6.22071c0.33661,1.40192 -0.0103,9.22952 -0.0103,9.22952z" fill="#383638"/><path d="M509.67356,193.24042c0,0 0.1304,-0.59843 -0.20214,-3.11059c-0.36263,-2.73958 -1.31322,-6.51637 -1.57599,-7.6294c-0.58988,-2.49848 -1.32394,-2.71773 -1.32394,-2.71773l4.14987,-0.59304c0,0 0.86986,1.36723 1.04965,2.12876c0.51226,2.16969 2.95749,12.52673 2.95749,12.52673z" fill="#555355"/><path d="M506.6249,179.87498l-0.64746,-1.32266c0,0 2.31757,-0.52841 3.2724,-0.4142c0.89471,0.10705 1.64669,0.92949 1.64669,0.92949l0.54633,1.38381z" fill="#686668"/><path d="M516.23674,193.02481c0.09736,-0.81372 0.83595,-1.39442 1.64962,-1.29707c0.81374,0.09735 1.39442,0.83595 1.29707,1.64962c-0.09736,0.81372 -0.83595,1.39442 -1.64961,1.29707c-0.81374,-0.09735 -1.39442,-0.83595 -1.29707,-1.64962z" fill="#312f31"/><path d="M517.23569,190.19416l-1.32633,-5.74476l1.59714,0.04674l1.3187,5.80885z" fill="#444144"/></g><path d="M470.08369,184.19833l-2.45228,-11.19409l29.53098,4.71796l-1.61327,9.52283z" fill="#444444"/><path d="M483.1002,181.81225c0,0 0.69348,-0.44271 1.5419,-1.45398c0.77576,-0.9246 1.69064,-2.40432 2.12764,-2.81908c1.17105,-1.57854 3.47734,-0.83248 3.47734,-0.83248l-1.05023,0.53206l-4.9619,4.70925z" fill="#292929"/><path d="M484.62885,192.59963l-5.16484,-11.66755c0,0 3.41085,0.94313 5.22704,0.10391c1.41133,-0.6522 1.63047,-3.27671 3.23007,-3.36829c4.58922,-0.26256 17.42416,0.83601 17.42416,0.83601c0,0 2.36843,7.47929 2.94613,10.45603c0.3988,2.05507 0.28093,6.50457 0.28093,6.50457z" fill="#4a464a"/><path d="M490.29392,180.07535c-4.45295,-1.17335 -2.8603,-2.35647 -2.8603,-2.35647c0,0 0.94179,-1.19883 2.81327,-1.12214c4.5925,0.18824 13.10586,1.78776 14.81896,1.96692c0.80789,0.08445 0.26143,0.73204 0.26143,0.73204c0,0 -1.76225,2.19213 -3.33207,2.26017c-1.56987,0.06803 -7.24833,-0.30718 -11.70131,-1.48054z" fill="#5e595e"/></g><g><path d="M472.1274,197.72618l-2.99414,-18.42163l18.73988,2.53042l4.25132,4.86783l6.06773,0.62671l1.35261,13.6769z" fill="#4d4846"/><path d="M476.73881,198.66772l21.62564,-6.87119l22.19241,2.41098c0,0 0.8058,4.30914 0.78684,5.67109c-0.00967,0.6944 -0.50363,2.90487 -0.50363,2.90487z" fill="#423d3b"/><path d="M473.9393,189.96254l-1.98725,-10.15411l0.81469,0.09749l1.98725,10.15411z" fill="#363332"/><path d="M477.41545,197.94136l0.14464,-1.20876c0,0 5.52957,-1.90205 14.53024,-0.82519c1.19587,0.14308 5.11172,3.17516 6.31707,3.3194c7.64756,0.91495 15.13307,1.81053 17.9808,2.15124c2.31925,0.2775 4.84199,-0.72997 4.84199,-0.72997l-0.29905,2.49957z" fill="#312e2c"/><path d="M481.28195,185.57291l-1.18299,-4.78981l8.24886,0.98688l3.60038,4.88361l6.23881,0.94188l-7.76749,1.0333z" fill="#585350"/><path d="M471.02738,191.42174l0.13402,-1.1202c0,0 8.43361,-2.76127 11.2904,-2.41951c4.3057,0.51516 16.19222,1.93724 16.19222,1.93724l-0.13402,1.1202c0,0 -12.09033,-1.4465 -16.39592,-1.96157c-2.79817,-0.33482 -11.08677,2.44388 -11.08677,2.44388z" fill="#2b2827"/></g></g></g><g><g><g><path d="M133.69758,194.02163c0.27162,2.28236 -0.34328,4.81684 -1.4579,4.94946c-1.11464,0.13263 -2.30703,-2.18673 -2.57863,-4.46918c-0.27162,-2.28236 -1.37259,-11.04564 -0.25792,-11.17828c1.11464,-0.13263 4.02292,8.41554 4.29447,10.698z" fill="#615e5f" stroke-width="0"/><g><path d="M178.55086,169.24551c-0.47281,-0.58793 -2.641,-2.16906 -2.641,-2.16906l10.19188,-1.6812l-6.81281,6.43622c0,0 -0.26518,-1.998 -0.73808,-2.586z" fill="#756a6a" stroke-width="0"/><path d="M169.78985,166.488l1.63143,-13.63607l19.09898,-3.62349l-2.32831,19.46126z" fill="#8a7c7c" stroke-width="0"/><path d="M129.39044,167.1405l8.77358,-17.21296l34.70181,4.01747l2.99649,13.1155c0,0 -23.01435,-1.16617 -30.76659,-1.1528c-3.21806,0.00553 -15.70536,1.23283 -15.70536,1.23283z" fill="#7c787a" stroke-width="0"/><path d="M137.99585,152.32936l0.02891,-1.48859c0,0 25.74065,3.07957 33.83275,4.04774c4.52758,0.54166 16.79055,-4.40694 16.79055,-4.40694l-0.19356,1.61813c0,0 -11.96856,4.96442 -16.3456,4.42603c-8.02582,-0.98727 -34.11304,-4.19628 -34.11304,-4.19628z" fill="#535353" stroke-width="0"/><path d="M97.45398,164.03255l2.39418,-20.01131c0,0 5.33702,-6.46591 12.80266,-7.88506c9.27259,-1.76265 25.82971,2.01612 27.88578,2.26208c1.57773,0.18875 -14.05363,8.80959 -14.05363,8.80959l-2.39418,20.01131z" fill="#8d898b" stroke-width="0"/><path d="M274.6582,138.76143l1.9648,-2.93162l106.78651,12.91983l-1.75173,14.64184c0,0 -37.73235,-2.65564 -49.8172,-4.52055c-6.00166,-0.92616 -57.18242,-20.10955 -57.18242,-20.10955z" fill="#c98cac" stroke-width="0"/><path d="M241.14944,236.47283l-2.97473,-13.38458c0,0 4.408,6.4085 7.10755,7.81601c1.72,0.89677 5.8708,1.77788 12.22792,0.08358c5.11764,-1.36393 10.90439,-6.22173 10.90439,-6.22173l-13.36059,13.37019z" fill="#a08e97" stroke-width="0"/><path d="M336.57168,200.63858l0.48469,-23.73187l18.58265,0.81048l-2.51806,21.04693c0,0 -6.55633,0.94699 -9.3848,1.31187c-1.30236,0.16799 -7.16449,0.56265 -7.16449,0.56265z" fill="#96858d" stroke-width="0"/><path d="M238.87981,239.97377l0.65811,-5.50093c0,0 11.73209,3.48693 16.68967,0.93647c2.41271,-1.24121 21.6318,-20.02363 32.23135,-30.47042c4.13647,-4.07689 6.96032,-6.88422 6.96032,-6.88422c0,0 3.78375,-3.34743 4.13016,-6.20875c0.17422,-1.43936 1.13726,-5.53268 0.5862,-7.92643c-0.55599,-2.41518 -2.62699,-3.12451 -2.62699,-3.12451l-3.22534,-14.05499l19.65863,2.49667l-6.04551,26.03954l3.42724,2.99017c0,0 -10.20017,4.82254 -15.38497,9.19331c-8.11237,6.83854 -34.94559,34.22979 -34.94559,34.22979z" fill="#918189" stroke-width="0"/><path d="M313.51377,198.23518l4.60295,-28.25717l13.64534,1.91026l8.86448,13.14834l-4.16477,15.94411z" fill="#96858d" stroke-width="0"/><path d="M308.80156,199.53373l-1.99897,-4.4145l6.62503,-25.58401l5.05398,0.51937l-4.06673,28.30402z" fill="#8f8187" stroke-width="0"/><path d="M335.22389,200.93689c0,0 3.52427,-6.29295 2.82388,-11.82614c-0.4033,-3.186 -5.04542,-5.72515 -5.29262,-7.67828c-0.47219,-3.73097 -1.20282,-9.50279 -1.20282,-9.50279l7.28106,5.26623c0,0 2.52513,7.56728 2.61231,11.86962c0.05867,2.89051 -2.17195,9.04512 -3.40072,11.51555c-0.10356,0.20826 -1.26154,-0.01418 -1.33244,0.14388c-0.17322,0.386 0.7567,0.73026 0.7567,0.73026z" fill="#86787e" stroke-width="0"/><path d="M338.44214,178.65968c0,0 -2.59909,-4.29409 -7.13304,-5.81508c-5.13292,-1.72193 -22.09111,-3.9886 -22.09111,-3.9886l158.30514,4.65675l2.2863,9.64168l6.53811,12.00435c0,0 -99.77271,-14.52664 -120.21524,-16.97236c-6.67071,-0.79809 -17.69017,0.47332 -17.69017,0.47332z" fill="#df8db7" stroke-width="0"/><path d="M179.69985,207.28513l-0.45542,-36.58299c0,0 2.11688,-3.52417 2.64012,-3.67876c5.76894,-1.7046 38.84408,-8.47529 44.21082,-7.54487c5.87901,1.01918 -10.54929,11.06735 -10.54929,11.06735c0,0 -14.54846,0.29978 -17.57306,4.21813c-4.1065,5.31997 -1.35491,23.12642 -1.35491,23.12642z" fill="#c77da3" stroke-width="0"/><path d="M255.16276,186.17123l-1.52673,-2.30292c0,0 7.53493,-7.76649 10.22368,-9.75387c2.77578,-2.05179 6.17824,-2.36996 6.17824,-2.36996l5.61999,2.99099c0,0 -4.38469,-1.03071 -6.93558,0.39256c-2.18986,1.22187 -6.28113,3.83304 -9.42881,6.57081c-2.28975,1.9915 -4.1307,4.47237 -4.1307,4.47237z" fill="#414041" stroke-width="0"/><path d="M137.80306,151.25252l6.15468,-11.03656l48.28412,5.77671c0,0 -3.40733,4.07961 -6.73842,5.66124c-3.26935,1.55235 -13.06629,3.7422 -13.06629,3.7422z" fill="#979395" stroke-width="0"/><path d="M138.7331,150.21281l5.36025,-11.13157l48.28412,5.77671c0,0 -3.40733,4.07961 -6.73842,5.66124c-3.26935,1.55235 -13.06629,3.7422 -13.06629,3.7422z" fill="#bdb7ba" stroke-width="0"/><path d="M337.57689,201.54144l-1.79864,-0.73235l17.22551,-2.14368c0,0 -3.77955,1.6199 -6.34059,2.11608c-2.56101,0.49624 -9.08627,0.75997 -9.08627,0.75997z" fill="#887980" stroke-width="0"/><path d="M182.11281,208.04164c0,0 -1.08038,-10.66935 -1.25872,-19.29005c-0.17918,-8.66271 -0.32192,-16.78391 0.08196,-20.3459c0.06846,-0.60344 2.88457,-10.26804 3.44271,-10.72635c3.01287,-2.47404 9.78002,6.13442 15.4358,5.69962c8.37438,-0.64372 27.40866,1.11578 27.40866,1.11578l-9.02472,4.26887c0,0 -19.65222,0.53433 -22.63721,5.35108c-4.03748,6.51516 1.00013,28.13944 1.00013,28.13944z" fill="#d486ae" stroke-width="0"/><path d="M183.65433,204.68217c0,0 -1.75871,-41.37344 0.75587,-51.22151c1.17652,-4.60779 -1.07256,-14.04964 -1.07256,-14.04964l49.48064,12.93824l-0.49518,16.12535c0,0 -31.44793,-6.87771 -38.49873,-1.40252c-4.70664,3.65484 -1.30082,32.50679 -1.30082,32.50679z" fill="#e490bb" stroke-width="0"/><g stroke-width="0"><path d="M328.58133,158.57831l0.98297,-8.21627l9.29368,1.11192l-0.98297,8.21627z" fill="#454545"/><path d="M329.49866,157.91772l0.51276,-7.2888l11.246,1.34547l-0.86696,7.24642z" fill="#b0b0b0"/><path d="M329.80302,153.43311l0.10926,-2.83743l11.4611,1.37123l-0.22657,1.89389c0,0 -7.77604,-0.60557 -9.4798,-0.66979c-0.56931,-0.02149 -1.86395,0.24214 -1.86395,0.24214z" fill="#bebebe"/><path d="M340.70733,158.70531c0,0 -5.1979,-3.19548 -4.18577,-6.84876c1.50402,-5.42878 5.53923,-4.46454 5.53923,-4.46454l39.79904,6.10441l-1.19512,9.98937z" fill="#9c989a"/><path d="M342.63512,157.63748c0,0 -2.05115,-3.78944 -2.18345,-4.7387c-0.19616,-1.40713 2.13583,-4.10654 2.13583,-4.10654l41.29725,4.97439l-1.28676,7.38809z" fill="#898587"/><path d="M342.52184,157.82359l-0.78198,-2.04675l37.96103,4.54168l-0.23038,1.92565z" fill="#c1bcbf"/><path d="M342.8047,154.43932c0,0 -1.16139,-1.51668 -1.05003,-2.44741c0.10412,-0.87062 1.69801,-2.96851 1.69801,-2.96851l38.39288,4.59336l-0.64803,5.41591z" fill="#0d0d0d"/><path d="M342.71236,155.21113c0,0 -1.08964,-2.11616 -0.9783,-3.04687c0.10412,-0.87062 1.62626,-2.36905 1.62626,-2.36905l38.39289,4.59336l-0.64803,5.41591z" fill="#2e2e2e"/><path d="M337.69442,156.52763c-2.25583,-3.35875 -0.82132,-5.54029 -0.82132,-5.54029c0,0 1.33076,4.30089 2.45086,5.33891c1.32619,1.22892 4.74814,3.01407 4.74814,3.01407l-3.49227,-0.34716c0,0 -2.48844,-1.87441 -2.88541,-2.46548z" fill="#7d7a7c"/><path d="M345.25719,155.82745c0,0 -0.61979,-2.30198 -0.48398,-3.4374c0.11939,-0.99814 1.25609,-3.01658 1.25609,-3.01658l4.78915,0.57301c0,0 -0.71967,2.13359 -0.82278,2.99567c-0.14176,1.18483 0.05066,3.45827 0.05066,3.45827z" fill="#555555"/><path d="M353.81288,156.85115c0,0 0.96166,-2.42606 1.09747,-3.56154c0.11939,-0.99814 -0.32533,-2.89245 -0.32533,-2.89245l5.34521,0.6395c0,0 -0.61745,1.65341 -0.72061,2.5155c-0.14176,1.18483 -0.05155,3.93848 -0.05155,3.93848z" fill="#555555"/><path d="M363.07351,157.95904c0,0 0.96166,-2.42605 1.09749,-3.56153c0.11939,-0.99814 -0.32533,-2.89244 -0.32533,-2.89244l5.26579,0.62999c0,0 -0.61745,1.65341 -0.72061,2.5155c-0.14176,1.18483 -0.05155,3.93848 -0.05155,3.93848z" fill="#555555"/><path d="M372.66836,159.10696c0,0 1.09595,-2.05186 1.23177,-3.18738c0.11939,-0.99814 -0.45965,-3.26658 -0.45965,-3.26658l5.10692,0.611c0,0 0.58649,2.06604 0.48334,2.92819c-0.14176,1.18483 -1.25546,3.52583 -1.25546,3.52583z" fill="#555555"/><path d="M345.68144,150.04092l-0.56538,-0.87336l35.31078,4.22458l-1.61843,0.61207c0,0 -2.81004,-0.3362 -5.25479,-0.62868c-0.53289,-0.06378 -1.50224,-0.51081 -2.30044,-0.60638c-0.77176,-0.09231 -1.36477,0.16783 -2.32413,0.05305c-1.49601,-0.179 -3.18395,-0.38091 -4.951,-0.59234c-0.73259,-0.08766 -1.32448,-0.54474 -2.07629,-0.63471c-0.66851,-0.07994 -1.49578,0.20729 -2.16745,0.12698c-1.66698,-0.19942 -3.31753,-0.39692 -4.86939,-0.58257c-0.71262,-0.08526 -1.35233,-0.60326 -2.01537,-0.6826c-0.80942,-0.09687 -1.62796,0.24673 -2.33718,0.16186c-2.89286,-0.34612 -4.831,-0.57797 -4.831,-0.57797z" fill="#474747"/></g><g><path d="M191.54,199.1509l4.0314,-2.4056c0,0 2.47051,3.13055 5.17821,4.35582c2.39479,1.08372 10.24466,2.62343 10.24466,2.62343l-3.15351,4.00807z" fill="#6d6a6b" stroke-width="0"/><path d="M182.76595,204.64764l10.04343,-6.23626c0,0 2.94377,2.6248 5.01856,3.53966c3.13888,1.38401 11.98197,3.95642 11.98197,3.95642l-4.75912,3.76864z" fill="#615e5f" stroke-width="0"/><path d="M182.14099,226.69692l1.20867,-22.58946c0,0 4.22932,1.30358 9.01296,1.90573c3.73381,0.46996 7.85352,0.10971 10.24745,1.00883c4.20268,1.5784 36.02357,17.82929 36.02357,17.82929l1.25223,10.3972z" fill="#575455" stroke-width="0"/><path d="M206.79197,202.41144c7.54531,-4.70219 17.15565,-17.1004 18.71058,-19.50411c1.12017,-1.73168 2.42956,-6.88868 2.42956,-6.88868l6.8396,7.68172c0,0 3.3735,21.04653 3.0434,33.74399c-0.09239,3.55288 1.93865,7.76921 0.58655,9.0844c-1.2114,1.17836 -18.32467,1.43713 -23.58983,0.03696c-11.08042,-2.94654 -17.1628,-0.86481 -20.25435,-6.54767c-3.09156,-5.68283 4.70379,-11.06516 4.70379,-11.06516c0,0 5.56633,-5.31721 7.53068,-6.54139z" fill="#504e4f" stroke-width="0"/><path d="M215.46298,170.38954c0,0 0.57033,-1.43519 1.50011,-1.99218c1.19575,-0.71638 5.07925,-1.94942 5.07925,-1.94942c0,0 9.05505,3.16544 11.7482,5.99543c2.48482,2.61101 -4.97276,12.07331 -4.97276,12.07331l-1.35542,-5.56177z" fill="#464445" stroke-width="0"/><path d="M232.92263,220.04271c0,0 -9.96168,5.10854 -18.40635,4.2709c-8.14661,-0.80808 -14.79222,-7.53706 -14.51703,-8.93646c0.14911,-0.75824 8.41358,-3.09835 12.36697,-6.87688c4.39458,-4.20023 4.58692,-9.91942 6.16703,-11.75514c4.41126,-5.12497 14.00556,-14.2282 13.66998,-20.35506c-0.35191,-6.42539 -10.74724,-9.75773 -10.74724,-9.75773c0,0 4.09141,-1.77825 9.05722,-1.31492c2.11529,0.19739 6.46602,2.11361 7.33702,2.60555c2.85632,1.61311 4.63855,3.47423 4.63855,3.47423c0,0 4.21228,-4.41017 7.82566,-4.28952c3.61336,0.12067 21.95568,5.28378 21.95568,5.28378l-17.59183,10.57913z" fill="#555354" stroke-width="0"/><path d="M218.06914,197.28874c0,0 5.87972,-10.24685 11.22224,-15.08138c5.34248,-4.83447 9.76985,-7.50798 13.27718,-7.08835c2.53983,0.30385 4.78131,9.2489 4.78131,9.2489l-14.41609,27.24965c0,0 -14.90714,1.51901 -16.07924,-1.11958c-0.92572,-2.08394 1.21466,-13.20923 1.21466,-13.20923z" fill="#585758" stroke-width="0"/><path d="M237.22178,227.07461c0,0 -2.12234,-6.48913 -1.43935,-9.45121c0.9541,-4.13796 3.89093,-16.53078 3.89093,-16.53078l0.70312,10.59424c0,0 -1.7939,9.60241 -2.02204,12.62657c-0.22015,2.91783 0.93529,5.24197 0.93529,5.24197z" fill="#3f3e3f" stroke-width="0"/><path d="M238.42201,209.22558c0.0049,-1.68613 1.18593,-9.31077 1.18593,-9.31077c0,0 11.22106,-13.32937 13.61882,-15.7145c0.70289,-0.69921 4.24045,-2.01928 4.24045,-2.01928l-2.21119,4.62399c0,0 -1.63442,0.41273 -1.86975,0.86583c-0.25068,0.48274 0.4088,1.94723 0.4088,1.94723l-6.09993,7.8108c0,0 -1.75902,0.80734 -1.99692,1.28784c-0.23798,0.48061 0.33925,1.44421 0.33925,1.44421c0,0 -4.88923,8.42007 -6.0126,10.7177c-0.51941,1.06233 -0.45621,2.5127 -0.45621,2.5127c0,0 -1.1515,-2.47952 -1.14657,-4.16569z" fill="#474647" stroke-width="0"/><path d="M227.87978,186.84633l19.93143,10.67866c0,0 -1.30076,0.86389 -1.60032,1.37092c-0.22104,0.37417 -0.03404,1.39567 -0.03404,1.39567z" fill="#3f3e3e" stroke-width="NaN"/><path d="M235.06716,177.27945l20.42158,9.55242c0,0 -1.20731,0.70485 -1.48291,1.23221c-0.28729,0.54974 -0.04861,1.66517 -0.04861,1.66517z" fill="#3f3e3e" stroke-width="NaN"/><path d="M219.30818,204.27859c0,0 9.70285,8.90874 14.82926,15.54224c5.12638,6.63356 3.05608,7.60133 3.05608,7.60133z" fill="#636162" stroke-width="NaN"/><path d="M235.23992,182.96366c0,0 -6.30315,2.17067 -9.40079,4.91805c-3.09766,2.7474 -13.29506,17.82571 -12.9451,14.90102c0.34992,-2.92468 15.84025,-21.94029 17.62246,-21.72707c0.67467,0.08071 3.82512,-0.69277 4.60951,-0.35974c1.28775,0.54671 0.11395,2.2677 0.11395,2.2677z" fill="#918f91" stroke-width="0"/><path d="M181.70336,226.51419l14.0684,-0.21864c0,0 12.54621,1.16638 15.64226,1.69297c7.53982,1.28236 29.76091,6.02916 29.76091,6.02916l-1.19472,6.22321c0,0 -24.612,0.6463 -31.30132,-1.47902c-1.93521,-0.61486 -7.63728,-1.91952 -11.70223,-3.76768c-7.95498,-3.61677 -15.27329,-8.48001 -15.27329,-8.48001z" fill="#626061" stroke-width="0"/><path d="M239.0242,239.77225c0,0 0.5501,-4.25745 0.38231,-6.63403c-0.18859,-2.67121 -1.45885,-8.61308 -1.45885,-8.61308l1.7697,0.21175c0,0 1.17759,4.62949 1.34831,7.04773c0.18668,2.644 -0.27175,8.19936 -0.27175,8.19936z" fill="#4a494a" stroke-width="0"/><path d="M238.73093,240.57946l0.49119,-3.36265c0,0 0.53129,0.33019 0.80088,0.36241c0.32031,0.03833 0.95409,-0.15244 0.95409,-0.15244l-0.20484,3.17473c0,0 -0.81949,0.3125 -1.19142,0.30845c-0.28499,-0.00306 -0.84987,-0.33052 -0.84987,-0.33052z" fill="#363536" stroke-width="0"/><path d="M238.09893,225.57591l-0.1906,-1.65501c0,0 0.45652,-0.30229 0.82944,-0.31737c0.35515,-0.01431 0.85925,0.16959 0.85925,0.16959l0.29178,1.7837c0,0 -0.53873,0.44661 -0.84536,0.44987c-0.28892,0.00307 -0.94456,-0.43082 -0.94456,-0.43082z" fill="#585758" stroke-width="0"/><path d="M197.52373,234.37286c0,0 -7.48847,-3.86979 -7.32655,-5.22318c0.16275,-1.36012 6.49486,-1.78168 6.49486,-1.78168c0,0 10.89498,1.06103 15.79641,1.82123c2.74398,0.42565 11.10847,2.35188 11.10847,2.35188c0,0 7.11495,1.91296 7.78749,3.15339c0.73354,1.35301 -3.44079,3.7155 -3.44079,3.7155c0,0 -12.7889,-0.21469 -16.70091,-0.89244c-1.38965,-0.24077 -13.71886,-3.14455 -13.71886,-3.14455z" fill="#6b696a" stroke-width="0"/><path d="M188.03406,226.28677l-1.97516,-0.00387c0,0 1.03,-3.33593 3.58316,-1.77943c2.55321,1.55655 21.51295,2.80628 21.51295,2.80628z" fill="#4b4949" stroke-width="0"/><path d="M181.79294,226.37988c0,0 -2.0064,-0.04709 -2.10495,-3.7276c-0.04987,-1.86307 -0.09159,-16.1614 -0.09159,-16.1614l4.05387,-2.43475c0,0 -0.03506,6.03233 -0.17509,8.93848c-0.1863,3.86519 -0.76559,13.49497 -0.76559,13.49497z" fill="#3f3d3e" stroke-width="0"/><path d="M188.3339,226.48981c0,0 3.42645,-1.76359 19.40917,-0.19091c1.31989,0.1299 -1.77864,-0.24509 7.49425,1.37534c9.27294,1.62035 12.97377,3.58656 12.97377,3.58656c0,0 -14.83245,-2.85157 -20.99137,-3.58839c-7.02041,-0.83994 -18.88586,-1.1825 -18.88586,-1.1825z" fill="#838082" stroke-width="0"/><path d="M196.86891,197.66743c0,0 -4.59947,1.65275 -6.95108,2.99847c-2.64312,1.51256 -8.13528,5.6351 -8.13528,5.6351l-0.58862,-1.68348c0,0 4.19374,-3.37943 6.58651,-4.74877c2.6161,-1.49709 8.4999,-3.88486 8.4999,-3.88486z" fill="#4a494a" stroke-width="0"/><path d="M197.82687,197.52245l-3.73548,1.24564c0,0 0.17251,-0.63039 0.0828,-0.88683c-0.10657,-0.3047 -0.58974,-0.77344 -0.58974,-0.77344l3.33636,-1.41541c0,0 0.69197,0.57292 0.85706,0.90638c0.12651,0.25553 0.0489,0.92362 0.0489,0.92362z" fill="url(#color-3)" stroke-width="0"/><path d="M182.787,205.63737l-3.25436,2.35993l0.11643,-2.18427l2.3043,-1.76094c0,0 0.70127,0.25521 0.84407,0.52679c0.13454,0.25591 -0.01049,1.05846 -0.01049,1.05846z" fill="url(#color-4)" stroke-width="0"/></g><path d="M314.78447,197.28289c0,0 1.44573,-4.27718 2.11052,-5.59668c0.45124,-0.89573 2.97792,-2.03526 2.97792,-2.03526l16.92484,1.80516c0,0 -1.95684,5.60496 -2.49754,6.91633c-0.23686,0.57443 -1.37757,1.13553 -1.37757,1.13553z" fill="#665b60" stroke-width="0"/><path d="M268.68325,173.38061c0,0 -3.58172,-2.0021 -8.33846,-3.73164c-3.02382,-1.09948 -7.1963,-2.16948 -9.05669,-2.28552c-5.40878,-0.33742 -8.51637,4.4321 -8.51637,4.4321c0,0 -2.97502,-2.68822 -4.96615,-3.78724c-1.8587,-1.0259 -6.06205,-2.53683 -6.06205,-2.53683c0,0 24.99034,-2.13772 28.88318,-2.25624c7.46282,-0.22723 33.90859,3.33095 33.90859,3.33095l4.4828,14.92393z" fill="#8b7c84" stroke-width="0"/><g stroke-width="0"><path d="M316.34082,196.51958c0,0 0.77656,-2.52187 1.29036,-3.36159c0.53268,-0.87065 2.82596,-1.65624 2.82596,-1.65624l14.42713,1.72606c0,0 0.26682,1.02189 -0.05457,1.72651c-0.43695,0.95797 -3.52019,3.35605 -3.52019,3.35605z" fill="#585852"/><path d="M316.42935,195.77957c0,0 0.68803,-1.78178 1.20184,-2.6215c0.53268,-0.87065 2.91452,-2.39628 2.91452,-2.39628l14.42712,1.72606c0,0 0.17827,1.76199 -0.14307,2.46659c-0.43695,0.95797 -3.43167,2.61595 -3.43167,2.61595z" fill="#797971"/><path d="M333.16229,192.77033c-1.02032,-0.30126 -12.52833,-1.9514 -12.52833,-1.9514l14.40738,1.72371l-0.29247,2.44441c0,0 -0.56631,-1.91541 -1.5866,-2.21672z" fill="#85857b"/></g><path d="M319.9202,178.65017l0.61651,-5.15302l7.08536,0.84767l0.67174,5.30716z" fill="#7c6e75" stroke-width="0"/><path d="M312.70887,151.17539l-3.18121,-8.56987l1.36959,0.16387l5.04935,9.24819z" fill="#d495b6" stroke-width="0"/><path d="M274.88777,138.96701l13.49246,-1.49745l21.34181,5.18446l3.01328,8.51046z" fill="#df9cbe" stroke-width="0"/><path d="M319.48398,183.6614l0.19269,-1.61029l10.78908,1.2908l0.77352,1.72594z" fill="#7c6e75" stroke-width="0"/><path d="M280.64318,166.77363c0,0 -18.14758,-0.96427 -23.79988,-1.1367c-8.55883,-0.26122 -25.78445,0.01976 -25.78445,0.01976c0,0 15.44485,-2.62449 29.03672,-2.52525c14.73706,0.10756 58.64784,3.89331 58.64784,3.89331l-0.64254,5.37075z" fill="#75686e" stroke-width="0"/><path d="M272.73185,174.66016l-3.15249,-0.95207c0,0 9.98455,-1.20685 15.19564,0.18482c5.21112,1.39168 13.81479,7.56272 13.81479,7.56272z" fill="#7c6e76" stroke-width="0"/><path d="M227.08345,165.13981c0,0 -30.29914,-19.13121 -30.63553,-23.82454c-0.30552,-4.26333 29.33166,5.87394 29.64019,5.80186c5.39829,-1.26152 77.62933,0.11386 77.62933,0.11386l25.61378,9.9022l52.45617,5.7004l5.64382,14.34747c0,0 -61.26204,-6.15219 -84.87941,-8.81357c-8.19822,-0.92384 -24.83438,-3.5665 -40.16538,-4.25225c-11.82582,-0.52896 -29.89967,1.65604 -29.89967,1.65604z" fill="#ee96c3" stroke-width="0"/><path d="M97.37623,162.25434l5.69754,-19.61608c0,0 0.73716,-7.01623 8.20282,-8.43537c9.27259,-1.76265 25.82971,2.01613 27.88577,2.26209c1.57773,0.18875 -14.05364,8.80959 -14.05364,8.80959l-2.39417,20.01129z" fill="#c4b4b3" stroke-width="0"/><g stroke-width="0"><path d="M378.71267,177.52984l-1.03806,-15.37509l91.29638,17.73547l-1.44118,5.67594l-47.66973,-0.81149z" fill="#ad6d8e"/><path d="M406.5745,166.42477l8.20399,-7.35019l26.83804,1.0667l-5.51017,9.81673z" fill="#8d788b"/><path d="M381.14273,164.5792l1.92863,-16.12032l31.77644,10.62817l-5.36227,6.27647z" fill="#857183"/><path d="M423.65559,166.32088l17.89859,-6.18585l27.19632,7.05337l-1.10299,6.8112z" fill="#947e92"/><path d="M377.07547,163.47977l4.38964,-12.33182l1.80052,-2.87025l-1.78948,14.95719z" fill="#756474"/><path d="M380.36476,174.49021l0.71797,-12.07288l43.20298,3.5082l-3.12486,15.79774z" fill="#746373"/><path d="M421.15506,181.70696c0,0 1.12658,-6.21769 1.66177,-9.01808c0.45822,-2.39764 1.35444,-6.76442 1.35444,-6.76442l43.77905,6.15331l0.98799,8.57809z" fill="#867284"/><path d="M377.12399,163.41459l4.18093,-1.04163l-0.91127,12.12837z" fill="#6f5e6d"/><path d="M461.59905,166.22442l-19.27829,-5.69411l26.10602,6.78564l-0.78221,3.47714c0,0 -0.12497,-1.5954 -1.24096,-2.43887c-0.74655,-0.5642 -4.80454,-2.12984 -4.80454,-2.12984z" fill="#978195"/><path d="M422.07058,165.4769c0,0 8.32981,-2.49343 11.24921,-3.50789c2.12668,-0.73898 4.65504,-2.01876 4.65504,-2.01876l2.50251,0.41281l-15.77689,5.42838z" fill="#9c859a"/><path d="M407.6955,164.57114c0,0 1.63403,-2.57646 3.13513,-3.75673c1.5011,-1.18034 3.88984,-1.71557 3.88984,-1.71557l-4.58088,5.76467z" fill="#806b7d"/><path d="M443.3275,158.58899l2.7993,-5.43931l14.64888,5.51261l4.8001,7.01993z" fill="#55494f"/><path d="M440.47946,161.06831c0,0 1.16861,-0.65599 1.7945,-1.17006c0.47145,-0.38722 1.31906,-1.68027 1.31906,-1.68027l21.68053,6.62239c0,0 0.80268,0.59657 1.34607,0.98957c0.56786,0.4107 1.99087,1.42393 1.99087,1.42393z" fill="#685960"/><path d="M443.99071,157.76976l2.19151,-4.35589l13.65101,4.98379c0,0 -7.76796,-2.47302 -12.24755,-2.75247c-2.59844,-0.16209 -3.5949,2.12454 -3.5949,2.12454z" fill="#41383c"/></g><path d="M103.6702,123.4471l0.6187,-5.17149c0,0 22.3322,1.36755 44.1281,4.03255c12.98839,1.58812 26.27235,4.78645 33.18615,5.26103c15.58923,1.07002 26.51993,-2.1666 26.51993,-2.1666l-7.56001,9.81455z" fill="#ffa1d1" stroke-width="0"/><path d="M99.45247,136.99959l4.05554,-15.71207c0,0 54.16348,8.55531 71.93665,10.23792c10.52807,0.99672 24.87572,-1.07273 24.87572,-1.07273l-1.73942,14.53868c0,0 -67.02307,-8.01866 -83.1802,-9.95172c-6.64323,-0.79482 -19.14193,28.65387 -19.14193,28.65387z" fill="#ee96c3" stroke-width="0"/><path d="M268.30614,234.23894l10.82942,-12.3972c0,0 11.73215,-14.56668 21.88119,-20.2642c2.57903,-1.44781 7.8541,-2.02176 7.8541,-2.02176c0,0 -7.84435,4.08217 -10.75239,6.54559c-6.86752,5.81754 -29.8122,28.13754 -29.8122,28.13754z" fill="#70646b" stroke-width="0"/><path d="M371.33735,181.26261l-4.11753,-18.6228l1.34052,0.16038c0,0 1.247,5.63993 1.90592,8.62012c0.09388,0.42458 1.30414,1.79921 1.42042,2.32518c0.20161,0.91176 -0.67365,1.05227 -0.44834,2.07126c0.62735,2.8375 1.23952,5.60623 1.23952,5.60623z" fill="#795467" stroke-width="0"/><path d="M199.15751,145.49521c0,0 -9.62943,-7.75109 -8.50644,-11.4186c0.67236,-2.1959 18.34035,-8.09096 18.34035,-8.09096l67.81821,9.79782l-1.99289,2.87974l28.81675,8.73348l-74.44456,17.85814c0,0 -0.11889,-5.66806 3.79745,-8.07808c3.80627,-2.34223 19.37959,-6.18445 19.37959,-6.18445c0,0 -33.96926,-4.11342 -41.19829,-5.06562c-2.41174,-0.3177 -12.01021,-0.43157 -12.01021,-0.43157z" fill="#f399c8" stroke-width="0"/><g><path d="M206.97867,127.68279l0.38472,-3.2154l175.30348,20.9734l-0.38472,3.2154z" fill="#584f54" stroke-width="0"/><path d="M376.88208,144.99861l0.32505,-2.71696l3.03364,0.36296l2.35164,3.03724z" fill="#685d63" stroke-width="0"/><g fill="#685d63" stroke-width="0"><g><g><g><path d="M370.23958,144.45488l0.35369,-2.95594l3.85362,0.46104l-0.35369,2.95594z"/><path d="M363.98663,143.70677l0.35369,-2.95594l3.85363,0.46105l-0.35369,2.95594z"/></g><g><path d="M357.96967,142.98694l0.35369,-2.95595l3.85363,0.46105l-0.35369,2.95594z"/><path d="M351.71671,142.23882l0.35369,-2.95594l3.85362,0.46105l-0.35369,2.95595z"/></g></g><g><g><path d="M345.58174,141.50479l0.35369,-2.95595l3.85362,0.46105l-0.35369,2.95594z"/><path d="M339.32876,140.75671l0.35369,-2.95594l3.85362,0.46104l-0.35369,2.95595z"/></g><g><path d="M333.31185,140.0368l0.35369,-2.95594l3.85362,0.46105l-0.35369,2.95594z"/><path d="M327.0589,139.28869l0.35369,-2.95594l3.85361,0.46102l-0.35369,2.95595z"/></g></g></g><g><g><g><path d="M326.82295,139.26053l0.35369,-2.95594l3.85362,0.46105l-0.35369,2.95594z"/><path d="M320.57004,138.51238l0.35369,-2.95594l3.85363,0.46105l-0.35369,2.95594z"/></g><g><path d="M314.55305,137.79253l0.35369,-2.95595l3.85362,0.46105l-0.35369,2.95594z"/><path d="M308.30009,137.04441l0.35369,-2.95594l3.85361,0.46102l-0.35369,2.95595z"/></g></g><g><g><path d="M302.16521,136.31045l0.35369,-2.95595l3.85363,0.46105l-0.35369,2.95594z"/><path d="M295.91221,135.56234l0.35369,-2.95594l3.85363,0.46105l-0.35369,2.95595z"/></g><g><path d="M289.89524,134.84249l0.35369,-2.95594l3.85362,0.46104l-0.35369,2.95595z"/><path d="M283.64231,134.09434l0.35369,-2.95594l3.85363,0.46105l-0.35369,2.95594z"/></g></g></g></g><g><g fill="#685d63" stroke-width="0"><g><g><path d="M277.46718,133.3556l0.35369,-2.95595l3.85363,0.46105l-0.35369,2.95594z"/><path d="M271.21428,132.60744l0.35369,-2.95594l3.85363,0.46105l-0.35369,2.95595z"/></g><g><path d="M265.19729,131.88761l0.35369,-2.95594l3.85363,0.46105l-0.35369,2.95595z"/><path d="M258.9444,131.13946l0.35369,-2.95594l3.85362,0.46104l-0.35369,2.95595z"/></g></g><g><g><path d="M252.80945,130.40552l0.35369,-2.95595l3.85363,0.46105l-0.35369,2.95594z"/><path d="M246.55649,129.65733l0.35369,-2.95594l3.85363,0.46105l-0.35369,2.95595z"/></g><g><path d="M240.53944,128.93748l0.35369,-2.95594l3.85363,0.46105l-0.35369,2.95595z"/><path d="M234.28654,128.18945l0.35369,-2.95594l3.85362,0.46104l-0.35369,2.95594z"/></g></g></g><g><g fill="#685d63" stroke-width="0"><g><path d="M234.05063,128.16118l0.35369,-2.95595l3.85363,0.46105l-0.35369,2.95594z"/><path d="M227.79766,127.41308l0.35369,-2.95594l3.85362,0.46104l-0.35369,2.95595z"/></g><g><path d="M221.78069,126.69321l0.35369,-2.95594l3.85362,0.46104l-0.35369,2.95595z"/><path d="M215.52778,125.94505l0.35369,-2.95594l3.85362,0.46104l-0.35369,2.95594z"/></g></g><g fill="none" stroke-width="1" font-family="sans-serif" font-weight="normal" font-size="12" text-anchor="start"><g/><g/></g></g></g><path d="M207.4049,124.72234l3.00178,-2.39669l3.03364,0.36296l-0.32505,2.71696z" data-paper-data="{&quot;index&quot;:null}" fill="#685d63" stroke-width="0"/></g><path d="M260.00632,164.13649l-2.56589,-0.03502c0,0 1.97205,-2.34989 11.63321,-2.32981c7.32458,0.01527 27.89804,1.15585 40.20986,1.87778c5.71728,0.33522 62.88836,-1.89093 62.88836,-1.89093l5.16369,0.60337c0,0 -62.54319,3.23794 -68.25348,2.88015c-12.62705,-0.79119 -33.86275,-2.08582 -40.03655,-2.24183c-3.36078,-0.08491 -9.03907,1.13629 -9.03907,1.13629z" fill="#70475c" stroke-width="0"/><path d="M357.94177,195.01693l-5.10823,1.24782l2.24961,-18.79723c0,0 7.73054,0.97365 15.29086,1.92583c21.70342,2.73344 126.01154,15.87058 126.01154,15.87058l-0.79916,6.67959z" fill="#5a5959" stroke-width="0"/><path d="M356.83973,196.52509l1.44025,-2.85517l137.33154,8.16638l-13.07418,9.72734z" fill="#4b4a4a" stroke-width="0"/><path d="M479.2972,210.98553c0,0 -5.48136,-3.90354 -8.32268,-5.68175c-1.52268,-0.95294 -7.40024,-4.15818 -7.40024,-4.15818c0,0 7.59985,3.83368 10.80814,5.17228c1.14499,0.47774 2.17241,1.34873 3.40444,2.02805c0.3973,0.21903 2.53557,-2.304 4.62471,-3.78063c0.62445,-0.44137 1.73316,0.05843 2.29413,-0.20763c1.28597,-0.6099 1.7721,-1.65095 1.7721,-1.65095c0,0 0.22464,0.96305 -1.12987,2.02346c-0.36953,0.28936 -2.20158,0.425 -2.56753,0.74413c-1.46663,1.27915 -2.65129,2.74787 -3.02449,3.29863c-1.04145,1.53697 0.99426,2.38644 0.99426,2.38644z" fill="#414040" stroke-width="0"/><path d="M199.07358,145.78473l5.10667,-10.56694l7.03067,0.21243c0,0 -1.2585,2.51651 -2.0002,3.99966c-0.1868,0.37353 11.75612,-0.16771 12.02594,0.54041c0.50064,1.31374 -5.47866,4.38511 -5.94516,5.31781c-0.5333,1.06637 -9.22314,0.42532 -9.22314,0.42532z" fill="#303030" stroke-width="0"/><path d="M198.97499,145.40023l4.90369,-9.75018c0,0 2.82396,1.65178 2.70694,2.62975c-0.21292,1.77953 -2.46817,7.3381 -2.46817,7.3381z" fill="#252525" stroke-width="0"/><path d="M352.50013,198.89949l0.35071,-2.93151l5.83539,-2.27532l-1.58009,2.78439c0,0 -1.24131,1.19629 -2.05136,1.62233c-0.71279,0.37487 -2.5547,0.80003 -2.5547,0.80003z" fill="#383838" stroke-width="0"/><g><g fill="#4b4b4b" stroke-width="0"><g data-paper-data="{&quot;origPos&quot;:null}"><g data-paper-data="{&quot;origPos&quot;:null}"><path d="M419.00302,208.23672l0.26999,-2.25666l3.72346,0.44547l-0.26999,2.25666z" data-paper-data="{&quot;origPos&quot;:null}"/><path d="M412.81077,207.38144l0.26999,-2.25666l3.72345,0.44547l-0.26999,2.25665z" data-paper-data="{&quot;origPos&quot;:null}"/></g><g data-paper-data="{&quot;origPos&quot;:null}"><path d="M431.40109,209.83444l0.26999,-2.25666l3.72346,0.44547l-0.26999,2.25665z" data-paper-data="{&quot;origPos&quot;:null}"/><path d="M425.20882,208.97913l0.26999,-2.25665l3.72345,0.44547l-0.26999,2.25666z" data-paper-data="{&quot;origPos&quot;:null}"/></g></g><g data-paper-data="{&quot;origPos&quot;:null,&quot;index&quot;:null}"><g data-paper-data="{&quot;origPos&quot;:null}"><path d="M450.49664,211.89017l0.26999,-2.25666l3.72346,0.44547l-0.26999,2.25665z" data-paper-data="{&quot;origPos&quot;:null}"/><path d="M456.71586,212.51977l0.26998,-2.25665l3.72346,0.44547l-0.27,2.25664z" data-paper-data="{&quot;origPos&quot;:null}"/></g><g data-paper-data="{&quot;origPos&quot;:null}"><path d="M438.07162,210.51805l0.26999,-2.25666l3.72345,0.44547l-0.26998,2.25665z" data-paper-data="{&quot;origPos&quot;:null}"/><path d="M444.29085,211.14772l0.26999,-2.25665l3.72346,0.44547l-0.26999,2.25665z" data-paper-data="{&quot;origPos&quot;:null}"/></g></g></g><path d="M377.56329,194.97486l1.61691,-13.51473l83.87587,10.03497l-1.61691,13.51473z" data-paper-data="{&quot;origPos&quot;:null}" fill="#444444" stroke-width="0"/><path d="M377.10015,199.6754l0.56817,-4.74856l83.62934,10.00545l-0.56817,4.74857z" data-paper-data="{&quot;origPos&quot;:null}" fill="#414141" stroke-width="0"/><path d="M376.96554,201.09371l0.19219,-1.60616l83.61867,10.00418l-0.19216,1.60616z" data-paper-data="{&quot;origPos&quot;:null}" fill="#3f3f3f" stroke-width="0"/><g stroke-width="0"><g data-paper-data="{&quot;origPos&quot;:null}" fill="#5a5a5a"><g data-paper-data="{&quot;origPos&quot;:null}"><path d="M420.5191,200.19412l1.63341,-13.65263l3.54613,0.42428l-1.63341,13.65263z" data-paper-data="{&quot;origPos&quot;:null}"/></g><g data-paper-data="{&quot;origPos&quot;:null}"><path d="M426.54757,200.91537l1.63341,-13.65263l3.54614,0.42428l-1.63341,13.65263z" data-paper-data="{&quot;origPos&quot;:null}"/><path d="M432.75333,201.65777l1.63343,-13.65263l3.54613,0.42428l-1.63341,13.65263z" data-paper-data="{&quot;origPos&quot;:null}"/></g></g><g data-paper-data="{&quot;origPos&quot;:null}" fill="#5a5a5a"><g data-paper-data="{&quot;origPos&quot;:null}"><path d="M439.31368,202.44267l1.63341,-13.65263l3.54613,0.42428l-1.63342,13.65263z" data-paper-data="{&quot;origPos&quot;:null}"/><path d="M445.51938,203.18513l1.63341,-13.65263l3.54614,0.42428l-1.63343,13.65263z" data-paper-data="{&quot;origPos&quot;:null}"/></g><g data-paper-data="{&quot;origPos&quot;:null}"><path d="M451.54785,203.90636l1.63343,-13.65263l3.54613,0.42428l-1.63343,13.65263z" data-paper-data="{&quot;origPos&quot;:null}"/><path d="M457.75362,204.64881l1.63343,-13.65263l3.54613,0.42428l-1.63341,13.65263z" data-paper-data="{&quot;origPos&quot;:null}"/></g></g><path d="M424.12615,200.62567l-1.10196,1.81292l-5.20938,-0.57987l1.02537,-9.74367l3.25387,-5.58067l-1.56494,13.66082z" fill="#3a3a3a"/><path d="M430.15217,201.34656l-1.10196,1.81292l-5.2094,-0.57985l1.02538,-9.74367l3.25387,-5.58066l-1.56494,13.66081z" fill="#3a3a3a"/><path d="M436.31511,202.08395l-1.10196,1.81292l-5.20939,-0.57985l1.02537,-9.74367l3.25387,-5.58066l-1.56494,13.66082z" fill="#3a3a3a"/><path d="M442.95739,202.87863l-1.10196,1.81292l-5.20939,-0.57985l1.02537,-9.74367l3.25387,-5.58066l-1.56494,13.66082z" fill="#3a3a3a"/><path d="M449.18884,203.6242l-1.10196,1.81292l-5.20939,-0.57985l1.02537,-9.74367l3.25387,-5.58066l-1.56494,13.66081z" fill="#3a3a3a"/><path d="M455.14633,204.33692l-1.10196,1.81292l-5.20938,-0.57987l1.02537,-9.74367l3.25387,-5.58066l-1.56494,13.66082z" fill="#3a3a3a"/><path d="M461.3856,205.0834l-1.10196,1.81292l-5.20939,-0.57985l1.02538,-9.74367l3.25387,-5.58067l-1.56494,13.66082z" fill="#3a3a3a"/></g><g stroke-width="0"><g data-paper-data="{&quot;origPos&quot;:null}" fill="#5a5a5a"><g data-paper-data="{&quot;origPos&quot;:null}"><path d="M377.59621,195.0588l1.63343,-13.65263l3.54614,0.42428l-1.63341,13.65263z" data-paper-data="{&quot;origPos&quot;:null}"/></g><g data-paper-data="{&quot;origPos&quot;:null}"><path d="M383.62458,195.7801l1.63341,-13.65263l3.54613,0.42428l-1.63341,13.65263z" data-paper-data="{&quot;origPos&quot;:null}"/><path d="M389.83031,196.5225l1.63341,-13.65263l3.54614,0.42428l-1.63343,13.65263z" data-paper-data="{&quot;origPos&quot;:null}"/></g></g><g data-paper-data="{&quot;origPos&quot;:null}" fill="#5a5a5a"><g data-paper-data="{&quot;origPos&quot;:null}"><path d="M396.39073,197.30742l1.63343,-13.65263l3.54615,0.42428l-1.63341,13.65263z" data-paper-data="{&quot;origPos&quot;:null}"/><path d="M402.59653,198.04985l1.63341,-13.65263l3.54614,0.42428l-1.63343,13.65263z" data-paper-data="{&quot;origPos&quot;:null}"/></g><g data-paper-data="{&quot;origPos&quot;:null}"><path d="M408.62494,198.77108l1.63341,-13.65263l3.54614,0.42428l-1.63343,13.65263z" data-paper-data="{&quot;origPos&quot;:null}"/><path d="M414.83074,199.51357l1.63343,-13.65263l3.54614,0.42428l-1.63342,13.65263z" data-paper-data="{&quot;origPos&quot;:null}"/></g></g><path d="M381.20321,195.49036l-1.10196,1.81292l-2.71555,-0.28149l0.22052,-1.96184z" fill="#3a3a3a"/><path d="M387.2292,196.21133l-1.10196,1.81292l-5.20939,-0.57985l1.02538,-9.74367l3.25387,-5.58066l-1.56494,13.66082z" fill="#3a3a3a"/><path d="M393.3921,196.94861l-1.10196,1.81292l-5.20939,-0.57985l1.02535,-9.74366l3.25387,-5.58067l-1.56494,13.66082z" fill="#3a3a3a"/><path d="M400.03441,197.74329l-1.10196,1.81292l-5.20939,-0.57985l1.02538,-9.74367l3.25387,-5.58066l-1.56494,13.66082z" fill="#3a3a3a"/><path d="M406.26592,198.48888l-1.10196,1.81292l-5.20938,-0.57987l1.02537,-9.74367l3.25387,-5.58066l-1.56494,13.66082z" fill="#3a3a3a"/><path d="M412.22341,199.20156l-1.10196,1.81292l-5.20938,-0.57987l1.02537,-9.74367l3.25387,-5.58067l-1.56494,13.66082z" fill="#3a3a3a"/><path d="M418.46273,199.94808l-1.10196,1.81292l-5.20938,-0.57987l1.02537,-9.74367l3.25387,-5.58066l-1.56494,13.66082z" fill="#3a3a3a"/></g><g><g data-paper-data="{&quot;origPos&quot;:null}"><g data-paper-data="{&quot;origPos&quot;:null}" fill="none" stroke-width="1" font-family="sans-serif" font-weight="normal" font-size="12" text-anchor="start"/><g data-paper-data="{&quot;origPos&quot;:null}" fill="#4b4b4b" stroke-width="0"><path d="M383.00124,204.12135l0.26999,-2.25666l3.72345,0.44547l-0.26998,2.25665z" data-paper-data="{&quot;origPos&quot;:null}"/><path d="M376.80895,203.26608l0.26999,-2.25666l3.72345,0.44547l-0.26999,2.25666z" data-paper-data="{&quot;origPos&quot;:null}"/></g></g><g data-paper-data="{&quot;origPos&quot;:null,&quot;index&quot;:null}" fill="#4b4b4b" stroke-width="0"><g data-paper-data="{&quot;origPos&quot;:null}"><path d="M402.09682,206.17701l0.26999,-2.25665l3.72346,0.44547l-0.26999,2.25665z" data-paper-data="{&quot;origPos&quot;:null}"/><path d="M408.31607,206.80666l0.27,-2.25664l3.72346,0.44547l-0.26999,2.25665z" data-paper-data="{&quot;origPos&quot;:null}"/></g><g data-paper-data="{&quot;origPos&quot;:null}"><path d="M389.67175,204.80498l0.26999,-2.25666l3.72346,0.44547l-0.26999,2.25665z" data-paper-data="{&quot;origPos&quot;:null}"/><path d="M395.89103,205.43455l0.26999,-2.25666l3.72346,0.44547l-0.26999,2.25666z" data-paper-data="{&quot;origPos&quot;:null}"/></g></g></g></g><path d="M211.85317,145.70837l1.53301,-4.06174c0,0 4.95233,-2.57743 8.47628,-2.30689c4.02855,0.30926 33.7823,3.89414 33.7823,3.89414c0,0 0.43449,1.94112 0.23736,3.1434c-0.25396,1.54899 -2.71915,4.34056 -2.71915,4.34056z" fill="#242424" stroke-width="0"/><path d="M237.01538,144.88153l0.37422,-3.12798l17.87433,2.13843l-0.37422,3.12798z" fill="#313131" stroke-width="0"/><path d="M233.51557,146.40724l0.07749,-0.64763c0,0 1.18519,-0.91687 2.201,-0.79534c0.96461,0.11545 3.08068,0.84688 5.49579,1.30037c4.60082,0.86381 10.17724,1.63345 10.17724,1.63345l-0.07749,0.64763c0,0 -5.38961,-0.64686 -9.92575,-1.50242c-2.47514,-0.46681 -4.6597,-1.30125 -5.66033,-1.42097c-1.05179,-0.12585 -2.28793,0.78492 -2.28793,0.78492z" fill="#616161" stroke-width="0"/><path d="M262.32292,134.03078l12.24389,4.51304l30.00149,8.93533c0,0 0.70131,0.30968 -7.25345,-1.37543c-2.70606,-0.57328 -13.07792,-3.43463 -22.00941,-6.41964c-2.41674,-0.80769 -15.24771,-5.80812 -15.24771,-5.80812z" fill="#df8cb7" stroke-width="0"/><path d="M81.76516,118.81029l0.70476,-5.89107c0,0 5.93745,-1.0551 9.71434,-0.60322c3.09201,0.36995 11.09796,4.85867 11.09796,4.85867l-1.59156,12.16781z" fill="#626061" stroke-width="0"/><path d="M195.81668,142.51239l3.47169,2.9392l12.31761,0.1411l50.38565,6.02819l-0.12956,1.08335c0,0 -37.77946,-4.6662 -49.62968,-5.81993c-3.25346,-0.31673 -12.96983,-0.75319 -12.96983,-0.75319z" fill="#ffa6d4" stroke-width="0"/><path d="M71.30867,181.9455l0.85171,-7.11885l25.23739,-13.7294l-3.21965,13.38119l-14.97686,8.41134z" fill="#3f3d3e" stroke-width="0"/><path d="M70.29123,176.72754c0,0 2.52075,-19.49042 4.45922,-28.91014c2.1878,-10.63165 8.01018,-31.6852 8.01018,-31.6852c0,0 8.57606,0.83538 11.93726,2.89505c2.87673,1.76277 7.00358,8.71163 7.00358,8.71163l-3.98573,33.31399c0,0 -13.40009,12.19262 -16.69176,14.07401c-5.06321,2.89393 -10.73272,1.6007 -10.73272,1.6007z" fill="#555354" stroke-width="0"/><path d="M81.35189,126.63771c0,0 -0.81734,-6.13342 1.5546,-8.56609c2.37193,-2.43268 6.81148,-2.9257 9.35362,-2.62156c2.02793,0.24261 6.21535,0.82287 8.53874,5.59118c2.32343,4.76828 -0.37496,11.16305 -0.37496,11.16305c0,0 -5.01932,-11.07842 -7.50705,-11.8045c-3.51042,-1.02458 -11.56503,6.23795 -11.56503,6.23795z" fill="#6f6b6c" stroke-width="0"/><path d="M68.26975,181.39227c0,0 4.79843,-25.6743 6.15793,-37.03704c1.41575,-11.83339 3.66415,-32.43059 3.66415,-32.43059c0,0 1.22441,-0.50106 2.25789,-0.37746c0.94496,0.11303 2.42432,0.93763 2.42432,0.93763c0,0 -2.48833,18.99419 -3.75881,29.61322c-1.47608,12.33746 -7.34005,39.70162 -7.34005,39.70162z" fill="#333232" stroke-width="0"/><path d="M67.78931,181.78162l2.83368,-14.47414c0,0 0.94214,1.00795 1.5419,1.04073c0.75733,0.04145 2.59325,-1.18664 2.59325,-1.18664l-3.02777,15.09151z" fill="#2e2d2d" stroke-width="0"/><path d="M97.67644,148.83885c-0.96992,8.10681 -6.09459,16.22346 -10.77668,18.61156c-3.88862,1.98341 -12.137,7.80267 -11.16706,-0.30411c0.20578,-1.71984 3.64655,-13.27224 4.60919,-20.23705c1.27307,-9.21083 0.23068,-14.35195 1.51807,-17.04976c2.32791,-4.87804 7.98779,-5.69088 10.18662,-5.42782c4.33433,0.51859 6.59983,16.30038 5.62991,24.40719z" fill="#585758" stroke-width="0"/><path d="M130.22123,166.91597l-0.38158,-1.79881c0,0 8.04391,-0.39782 14.07684,-0.1636c8.49293,0.32965 32.0742,1.95504 32.0742,1.95504l1.63104,1.48548c0,0 -25.12532,-1.37405 -33.86855,-1.6467c-2.56775,-0.08006 -13.5319,0.16865 -13.5319,0.16865z" fill="#585657" stroke-width="0"/><path d="M122.80446,179.32327l6.77948,-12.97791l7.30395,-0.0836c0,0 -2.2382,4.07647 -2.24217,4.83656c-0.01924,3.63175 0.10932,27.78508 0.10932,27.78508c0,0 -1.5193,0.2618 -2.47748,-1.74176c-1.71923,-3.59501 -2.72658,-10.62646 -4.21649,-12.92237c-1.28727,-1.98365 -5.25658,-4.89597 -5.25658,-4.89597z" fill="#5a5759" stroke-width="0"/><path d="M138.90445,150.22575l4.21475,-10.90987l2.33002,0.16687l-5.34443,10.99848z" fill="#a5a0a2" stroke-width="0"/><path d="M145.77482,149.95652l0.16663,-1.39285l26.30864,3.14756l-0.16663,1.39284z" fill="#494748" stroke-width="0"/><path d="M146.04771,146.99666l0.16663,-1.39285l26.30864,3.14756l-0.16663,1.39285z" fill="#494748" stroke-width="0"/><path d="M124.09003,166.93718l2.39233,-19.99576l13.30302,-8.09322l4.8473,0.26596l-21.24646,40.57689l-5.33352,-2.65573z" fill="#dbd5d8" stroke-width="0"/><path d="M96.36379,175.61937l1.24388,-11.72606l26.55954,2.38251c0,0 0.02648,2.55904 -0.19764,3.33634c-0.55863,1.93783 -3.37588,8.58811 -3.37588,8.58811z" fill="#ccc6c9" stroke-width="0"/><path d="M101.47986,164.75983l0.03748,-0.31357l22.75858,1.84822l-2.72764,0.86642c0,0 -4.31317,-0.32849 -6.99892,-0.68183c-3.67753,-0.48375 -13.06957,-1.71926 -13.06957,-1.71926z" fill="#d8d1d5" stroke-width="0"/><path d="M105.41434,161.46712l2.01946,-16.87959l16.01084,1.91556l-2.01946,16.87959z" fill="#a39999" stroke-width="0"/><path d="M96.069,175.75505l1.34935,-11.27888c0,0 8.0156,7.3912 11.99387,10.22445c3.97829,2.83326 10.46672,3.32753 10.46672,3.32753z" fill="#b4afb1" stroke-width="0"/><path d="M128.75618,185.75152c0,0 2.88441,1.393 3.98985,1.38053c0.67906,-0.00773 2.01191,-1.44851 2.01191,-1.44851l0.56896,9.20598l-0.49835,4.16538c0,0 -1.96627,0.07841 -2.92948,-2.63782c-0.79472,-2.2411 -3.14289,-10.66553 -3.14289,-10.66553z" fill="#504e4f" stroke-width="0"/><path d="M123.04069,179.91189l19.318,-39.73008l1.70687,0.41081l-19.26489,40.14957z" fill="#858183" stroke-width="0"/><path d="M111.16528,137.44441l1.70015,-1.45886c0,0 27.29795,2.61742 39.62038,4.09173c10.69499,1.27955 31.67681,4.1453 31.67681,4.1453l0.29513,1.99053c0,0 -21.06262,-3.23094 -32.33582,-4.57967c-12.8726,-1.54005 -40.95659,-4.18905 -40.95659,-4.18905z" fill="#918b8e" stroke-width="0"/><path d="M112.32245,136.34335l2.24017,-1.68727c0,0 25.74693,2.72491 38.06932,4.19912c10.69498,1.27955 31.67681,4.1453 31.67681,4.1453l0.29512,1.99053c0,0 -21.06261,-3.23094 -32.33582,-4.57968c-12.8726,-1.54005 -39.94555,-4.06813 -39.94555,-4.06813z" fill="#a59fa2" stroke-width="0"/><path d="M174.00443,164.65728l-1.23682,-5.87115c0,0 0.35328,-1.17138 0.69728,-1.2438c0.30313,-0.06387 1.25968,0.8315 1.25968,0.8315l1.23682,5.87116c0,0 -0.37844,0.83863 -0.68223,0.90259c-0.34368,0.0724 -1.27477,-0.49034 -1.27477,-0.49034z" fill="#494242" stroke-width="0"/><path d="M133.70035,162.50282l4.64462,-8.99769l3.85822,0.46158l-4.64462,8.99769z" fill="#9c989a" stroke-width="0"/><path d="M145.31158,145.98901l1.95261,-0.74122l24.26364,2.92112l1.89091,1.18294z" fill="#757274" stroke-width="0"/><path d="M145.07123,148.79161l1.95263,-0.74123l24.26363,2.92113l1.89094,1.18291z" fill="#757274" stroke-width="0"/><path d="M93.78225,174.4915l8.60364,-57.54317l1.83771,0.80473l-8.10959,58.00623z" fill="#686666" stroke-width="0"/><path d="M93.58792,174.74047l2.58101,-16.06286l1.82127,4.0636l-2.01443,13.164z" fill="#535252" stroke-width="0"/><path d="M126.83344,155.68016c0,0 2.38765,-2.07653 2.50007,-3.01661c0.11039,-0.92254 -1.83145,-2.57221 -1.83145,-2.57221c0,0 2.90122,1.02159 2.59723,2.68559c-0.23156,1.26747 -1.53475,3.31615 -1.75247,4.40036c-0.61908,3.08274 -2.17562,10.29626 -2.17562,10.29626z" fill="#c4bec1" stroke-width="0"/><path d="M134.68217,154.69393l3.10922,-9.89617l3.04807,-4.02063l-3.77168,9.1751z" fill="#aca7a9" stroke-width="0"/></g></g><g stroke-width="0"><path d="M255.21104,141.08511l2.93237,-3.0021c0,0 1.96525,-1.21146 2.75173,-0.84041c0.89669,0.42303 2.34114,3.24317 2.34114,3.24317l-1.02301,3.98866c0,0 -4.25006,-0.51606 -5.49149,-0.79886c-0.5597,-0.12748 -1.51065,-2.59044 -1.51065,-2.59044z" fill="#c0c0c0"/><path d="M211.44967,145.56936c0,0 0.1669,-2.88058 1.35382,-3.88555c1.48745,-1.25945 7.78715,-2.73376 7.78715,-2.73376l-1.26829,4.61913l-0.34701,2.90052z" fill="#838383"/><path d="M211.28755,145.47517l8.9361,-6.46553l37.29635,4.46214l-0.88871,7.42829z" fill="#999999"/><path d="M212.3574,144.94199l6.80996,-5.06806l33.53318,4.01193l-0.69388,5.79974c0,0 -4.05865,-0.4856 -9.27962,-1.11019c-3.39448,-0.40608 -7.15407,-1.92546 -10.73519,-2.35395c-3.84167,-0.45964 -7.45891,0.17719 -9.61664,-0.08094c-4.22303,-0.50525 -10.01778,-1.19856 -10.01778,-1.19856z" fill="#2e2e2e"/><path d="M215.82519,145.3547l9.01091,-4.86736l12.37583,1.48066c0,0 -7.55044,1.0176 -10.01238,1.64417c-2.61366,0.66507 -6.05383,2.3791 -6.05383,2.3791z" fill="#a5899d"/><path d="M223.77115,146.1918c0,0 5.1646,-0.36117 7.60431,-0.06926c3.11733,0.37296 9.57005,2.12399 9.57005,2.12399l-9.54589,-1.47965z" fill="#adadad"/><path d="M211.39346,145.46952l8.06991,-5.8343l34.71906,4.15386l-0.0818,0.68371c0,0 -30.06241,-3.59667 -33.98106,-4.06551c-0.81962,-0.09804 -8.72603,5.06234 -8.72603,5.06234z" fill="#8a8a8a"/><path d="M257.48599,157.2643l1.15888,-9.68625l1.50168,-7.07359c0,0 1.12293,0.6076 1.60603,1.23292c0.48303,0.6253 0.72979,1.79071 0.72979,1.79071l-2.99758,13.9754z" fill="#9e9e9e"/><path d="M252.57561,152.41592c0,0 -0.6529,-2.21817 -0.59983,-3.81229c0.07144,-2.14664 1.5764,-7.52413 1.5764,-7.52413l1.96632,-0.0924c0,0 0.65944,0.87635 1.15167,0.785c0.67864,-0.12589 2.54355,-1.47061 2.54355,-1.47061l-2.02166,12.66684z" fill="#9c9c9c"/><path d="M252.92805,154.30175c-0.64563,-1.18957 -0.2438,-2.52441 -0.2438,-2.52441l5.69856,-6.56995c0,0 0.92239,4.02182 0.81353,4.9318c-0.30954,2.58707 0.1256,7.42274 0.1256,7.42274c0,0 -2.96896,-0.27087 -3.94834,-0.82981c-1.17468,-0.67033 -1.79978,-1.24082 -2.44547,-2.4304z" fill="#888888"/><path d="M254.78812,153.74452c-0.74371,-2.10298 -1.21691,-6.65449 1.09708,-10.47342c2.314,-3.81894 4.45808,-1.41606 4.45808,-1.41606c0,0 0.47397,4.51125 0.1992,6.80771c-0.25026,2.09193 -1.78111,6.4148 -1.78111,6.4148c0,0 -3.2295,0.76996 -3.97324,-1.33308z" fill="#b4b4b4"/><path d="M259.83455,146.59815c-0.16763,1.4011 -5.2506,0.87091 -5.083,-0.53013c0.16763,-1.4011 3.84646,-6.40165 4.65312,-6.30511c0.31241,0.03741 0.93963,0.21498 1.00873,1.29153c0.10929,1.70311 -0.4762,4.68535 -0.57887,5.54376z" fill="#bbbbbb"/></g><g stroke-width="0"><path d="M195.72281,142.48589c0,0 -5.23094,-5.57823 -5.0084,-7.43836c0.18168,-1.51882 6.18981,-0.92399 6.18981,-0.92399l7.48334,0.96767l-5.27611,10.22459z" fill="#f399c8"/><path d="M165.2178,140.48966c0,0 -0.714,-2.19823 -0.33112,-3.23275c0.42252,-1.14173 2.89646,-4.47635 2.89646,-4.47635l22.89705,2.55242l8.03717,9.64625z" fill="#ee96c3"/></g></g><g stroke-width="0"><g><path d="M262.37326,132.24744l0.73435,-6.13803l47.47956,5.68048l-0.73435,6.13803z" fill="#61585b"/><path d="M262.59646,129.00745l0.39328,-3.28689l47.66009,5.70208l-0.39328,3.28688c0,0 -8.57968,-1.0265 -17.39316,-2.08093c-2.75563,-0.3297 -6.80994,0.71333 -9.3562,0.40865c-3.0278,-0.36225 -6.09479,-2.25725 -8.03697,-2.48964c-5.82379,-0.69676 -12.87374,-1.54026 -12.87374,-1.54026z" fill="#494344"/><path d="M324.77064,129.79369l-7.01813,-19.90762l20.77111,2.48509l13.3266,18.48832c0,0 -5.83141,0.67343 -9.07127,0.54591c-4.99934,-0.19674 -18.0083,-1.61169 -18.0083,-1.61169z" fill="#5e555b"/><path d="M324.36472,133.20468l0.65795,-5.49926c0,0 12.38401,0.01814 17.33416,-0.17481c3.92847,-0.15313 6.78352,-0.39774 6.78352,-0.39774l5.07305,7.5952c0,0 -5.48425,0.95137 -9.65549,0.89943c-5.65178,-0.07037 -20.19309,-2.42277 -20.19309,-2.42277z" fill="url(#color-5)"/><path d="M316.05083,109.84245l0.47475,-3.96791l19.01593,2.2751l3.13592,4.39985z" fill="url(#color-6)"/><path d="M323.78207,133.16007l0.14961,-1.25034c0,0 15.50825,1.77847 20.87652,2.25197c4.01411,0.35409 8.59065,-0.68647 8.59065,-0.68647l0.74657,1.24223l-8.40882,1.06918z" fill="#312c30"/><g><path d="M224.73705,110.63411l0.82748,-8.82251l93.26023,11.15769l6.24623,12.1096z" fill="#8a6672"/><path d="M240.17492,120.82585c0,0 -3.06625,-3.99835 -5.67747,-5.78274c-2.61121,-1.78444 -9.65063,-2.3875 -9.65063,-2.3875l0.35931,-2.05895c0,0 12.2032,1.73833 19.17142,2.66796c16.64617,2.2206 80.27386,10.59814 80.27386,10.59814l2.8174,6.95092z" fill="#755761"/><path d="M242.70737,123.63758l-2.69612,-2.93288l87.02432,9.91879l0.83093,3.2025z" fill="#694e57"/><path d="M225.35391,102.18537l0.53804,-4.49692l90.24388,10.11261l3.14989,6.07846c0,0 2.33911,3.6417 -2.9067,2.9886c-1.6514,-0.20559 -10.30753,-4.63373 -11.9631,-4.83984c-15.94386,-1.98497 -79.06193,-9.84292 -79.06193,-9.84292z" fill="#916b77"/><path d="M226.13209,97.71726l0.18186,-2.52076l89.28862,10.54283l0.75358,2.49953z" fill="#9e7582"/><path d="M299.65175,107.20198c-7.93371,-1.60171 -72.01703,-10.30836 -72.01703,-10.30836l87.23195,10.43649l3.88285,7.95874c0,0 -11.16399,-6.48511 -19.09775,-8.08685z" fill="#b38f9a"/></g><path d="M273.36094,127.30207l1.08983,-9.10883l20.06911,2.40104l-1.08983,9.10884z" fill="#3a3336"/><path d="M274.36302,118.18697l0.89226,-1.42661l18.40714,2.20223l0.79727,1.62872z" fill="#4b4246"/><path d="M273.55942,126.82289l0.97144,-8.11969c0,0 0.4261,5.35436 2.93379,6.76857c2.50771,1.41422 15.60305,3.68508 15.60305,3.68508z" fill="#332c30"/><path d="M317.03351,112.19967l-3.17947,-6.42319c0,0 1.09491,-0.54041 1.69127,-0.46903c0.66671,0.07975 2.12152,0.92525 2.12152,0.92525l3.17947,6.42319z" fill="#757575"/><path d="M319.47011,117.25953l-4.57133,-9.2206l3.81281,0.45616l4.57133,9.22059z" fill="#5a5a5a"/><path d="M322.91883,124.1671l-4.57133,-9.22059l3.8128,0.45616l4.57133,9.2206z" fill="#505050"/><path d="M326.48327,131.32088c-0.78077,-1.57484 -3.82719,-7.71966 -3.82719,-7.71966l3.81279,0.45616l5.34032,11.03906c0,0 -2.10482,0.28749 -3.04588,0.15999c-0.73403,-0.09944 -1.93578,-3.24115 -2.28003,-3.93557z" fill="#3b3b3b"/><path d="M222.89723,113.03068l2.21841,-18.5425l3.15843,0.37787l-2.21841,18.5425z" fill="#443e42"/><path d="M203.96481,112.37597l0.02332,-5.96751l20.08532,2.40298l-0.7042,5.88605z" fill="url(#color-7)"/><path d="M203.91323,107.03461l1.28854,-10.77017l20.08532,2.40298l-1.28854,10.77018z" fill="#5e555b"/><path d="M205.18676,96.38986l1.28874,-4.03773l19.29098,2.30795l-0.49446,4.13277z" fill="url(#color-8)"/><path d="M275.46063,100.80418l0.72857,-6.08991l14.78915,2.84363l4.02985,5.22683z" fill="#5e555b"/><path d="M294.96599,103.13779l-3.99817,-5.49162c0,0 2.91278,1.044 5.00669,2.29991c2.09388,1.25587 5.43444,3.96251 5.43444,3.96251z" fill="#776b73"/><path d="M272.32246,101.59256l3.32519,-0.85549l25.45045,2.77636l3.43914,1.93337z" fill="#6d6269"/></g><g><path d="M275.26884,123.53192c0.14834,-1.23997 0.79251,-2.32788 1.30062,-3.30396c0.70808,-1.36019 1.44743,-2.46801 2.83252,-3.15453c0.84609,-0.41937 2.02153,-0.67087 3.03203,-0.79207c0.66831,-0.08014 1.70796,-0.35866 2.406,-0.27517c1.58242,0.18929 1.9126,0.31114 2.99526,0.94025c0.65217,0.37897 2.22668,1.01962 2.67802,1.75055c0.38203,0.61863 0.74173,1.61699 1.00031,2.33237c0.4418,1.22259 1.01712,3.16925 0.85216,4.54803c-0.06969,0.58268 -0.71715,1.85323 -0.82772,2.35911c-0.35097,1.60612 -0.41223,2.11205 -1.74816,3.06358c-0.81201,0.57832 -2.37365,0.94324 -3.39922,1.23339c-1.06206,0.30055 -2.43168,1.00892 -3.59615,0.86961c-0.78587,-0.09401 -2.1403,-0.79486 -2.8855,-1.02122c-1.6167,-0.49104 -2.48172,-0.7702 -3.36846,-2.02459c-0.76046,-1.07567 -0.82933,-2.69364 -1.02978,-4.0849c-0.10527,-0.73089 -0.33391,-1.67234 -0.24204,-2.44056z" fill="#3a3a3a"/><path d="M276.00881,123.50097c0.13577,-1.13476 0.72526,-2.13023 1.1902,-3.02349c0.64796,-1.24468 1.32451,-2.25844 2.59208,-2.8867c0.7742,-0.38373 1.84993,-0.6139 2.77457,-0.7248c0.61162,-0.07332 1.56304,-0.32823 2.20168,-0.25182c1.44808,0.17324 1.75021,0.28472 2.74098,0.86038c0.59678,0.34678 2.03758,0.9331 2.45065,1.60189c0.34963,0.56611 0.6788,1.47976 0.91537,2.1344c0.4043,1.11883 0.93076,2.90017 0.77977,4.16186c-0.06378,0.53319 -0.65625,1.69585 -0.75746,2.15885c-0.32116,1.46977 -0.37724,1.93271 -1.59977,2.80343c-0.74307,0.52922 -2.17215,0.86308 -3.11057,1.12868c-0.97191,0.27503 -2.22526,0.92329 -3.29083,0.79583c-0.71916,-0.08603 -1.9586,-0.72737 -2.64051,-0.93444c-1.47942,-0.44927 -2.271,-0.70479 -3.08252,-1.8527c-0.69586,-0.98438 -0.75891,-2.46497 -0.94227,-3.73812c-0.09627,-0.66883 -0.30554,-1.53039 -0.22148,-2.23331z" fill="#5a5a5a"/><path d="M288.65249,120.45201c-1.74704,-2.61183 -6.78063,-3.41605 -6.78063,-3.41605c0,0 1.99266,-0.30548 3.96795,-0.06213c1.60002,0.19709 3.11795,0.74574 4.11472,2.17526c0.99761,1.43069 1.21231,2.95166 1.33129,4.37136c0.23333,2.78341 -0.48565,5.10727 -0.48565,5.10727c0,0 -0.40065,-5.56383 -2.1477,-8.17561z" fill="#6d6d6d"/><path d="M282.76709,124.80248c0.06837,-0.57164 0.58719,-0.97958 1.15891,-0.91123c0.57164,0.06837 0.97958,0.58719 0.91123,1.15892c-0.06837,0.57164 -0.58719,0.97958 -1.15891,0.91122c-0.57164,-0.06837 -0.97958,-0.58719 -0.91122,-1.15891z" fill="#272727"/><path d="M282.6724,124.92898c0.06276,-0.52433 0.53859,-0.89845 1.06288,-0.83576c0.52433,0.06276 0.89845,0.53859 0.83576,1.06288c-0.06276,0.52433 -0.53859,0.89845 -1.06287,0.83576c-0.52433,-0.06276 -0.89845,-0.53859 -0.83576,-1.06287z" fill="#131313"/></g></g></g></g></g><path d="M181.38023,223.4821c0.18826,-1.57348 1.02359,-44.4035 1.7144,-46.00795c0.93276,-2.16631 9.19338,0.18225 12.31572,-0.96273c9.56249,-3.50677 19.85089,-6.89567 19.85089,-6.89567c0,0 13.89982,2.24758 18.1063,2.75092c3.14568,0.37634 65.03891,-0.76951 64.54894,9.56699c-0.6646,14.02027 -42.49208,-2.78593 -43.93312,9.2588c-0.36481,3.04915 2.00463,3.52951 1.06904,6.58732c-0.22457,0.73387 -3.17484,5.59671 -3.59668,7.2343c-0.66966,2.5994 2.12669,6.96503 -1.52819,9.64914c-2.91343,2.13962 -1.59113,7.35046 -2.36982,8.48159c-5.36578,7.79475 -13.18374,3.02782 -22.1328,1.95717c-10.61036,-1.26941 -26.49268,0.58033 -35.66281,-1.76298c-3.95839,-1.01156 -8.92981,4.72342 -8.38184,0.14332z" fill="#86c8f5" stroke-width="0"/></g></g></svg>