<svg version="1.1" xmlns="http://www.w3.org/2000/svg" xmlns:xlink="http://www.w3.org/1999/xlink" width="468.75604" height="156.88367" viewBox="0,0,468.75604,156.88367"><defs><linearGradient x1="473.59625" y1="184.43873" x2="473.532" y2="189.24991" gradientUnits="userSpaceOnUse" id="color-1"><stop offset="0" stop-color="#1f1d20"/><stop offset="1" stop-color="#202022"/></linearGradient><linearGradient x1="474.10063" y1="179.58998" x2="474.02668" y2="185.12568" gradientUnits="userSpaceOnUse" id="color-2"><stop offset="0" stop-color="#302d31"/><stop offset="1" stop-color="#1f1e20"/></linearGradient><linearGradient x1="138.70399" y1="223.1844" x2="138.6587" y2="226.57414" gradientUnits="userSpaceOnUse" id="color-3"><stop offset="0" stop-color="#585758"/><stop offset="1" stop-color="#575758"/></linearGradient><linearGradient x1="125.45734" y1="233.08687" x2="125.42179" y2="235.74799" gradientUnits="userSpaceOnUse" id="color-4"><stop offset="0" stop-color="#363536"/><stop offset="1" stop-color="#353536"/></linearGradient><linearGradient x1="270.05048" y1="142.20833" x2="269.9765" y2="147.74633" gradientUnits="userSpaceOnUse" id="color-5"><stop offset="0" stop-color="#5e555b"/><stop offset="1" stop-color="#2b2629"/></linearGradient><linearGradient x1="260.56981" y1="121.41291" x2="260.51642" y2="125.40873" gradientUnits="userSpaceOnUse" id="color-6"><stop offset="0" stop-color="#72676e"/><stop offset="1" stop-color="#5e555b"/></linearGradient><linearGradient x1="147.43751" y1="133.80184" x2="147.35833" y2="139.72934" gradientUnits="userSpaceOnUse" id="color-7"><stop offset="0" stop-color="#5e555b"/><stop offset="1" stop-color="#4d454a"/></linearGradient><linearGradient x1="147.62786" y1="119.55083" x2="147.57228" y2="123.7127" gradientUnits="userSpaceOnUse" id="color-8"><stop offset="0" stop-color="#74686f"/><stop offset="1" stop-color="#5e555b"/></linearGradient></defs><g transform="translate(-9.83918,-114.41915)"><g data-paper-data="{&quot;isPaintingLayer&quot;:true}" fill-rule="nonzero" stroke="none" stroke-linecap="butt" stroke-linejoin="miter" stroke-miterlimit="10" stroke-dasharray="" stroke-dashoffset="0" style="mix-blend-mode: normal"><path d="M385.89695,210.39254c0.66042,8.64834 -4.02942,14.20613 -24.13129,15.7412c-7.45623,0.56939 -20.41627,-0.01864 -26.20979,1.1307c-4.30576,0.8542 -7.83433,3.34416 -10.72307,1.67376c-3.70333,-2.14142 -5.09322,-21.94419 -5.32662,-25.00055c-0.66042,-8.64834 8.69543,-4.88977 28.79731,-6.42483c20.10188,-1.53504 36.93304,4.2314 37.59345,12.87975z" fill="#86c8f5" stroke-width="0"/><g><g stroke-width="0"><path d="M200.28645,209.01413l-10.02433,-15.48053l25.58105,-0.24856c0,0 -1.17621,5.81364 -1.41214,8.50924c-0.2282,2.60757 0.01902,7.40904 0.01902,7.40904z" fill="#7f7d7e"/><path d="M200.38218,209.21216l-3.56438,-5.65502c0,0 2.31088,3.58627 5.53851,4.24412c2.3242,0.47372 4.21432,0.18899 6.89126,0.54558c2.67692,0.35658 5.1015,1.0519 5.1015,1.0519z" fill="#6c6a6b"/></g><g><g><g><path d="M470.54116,189.20996l-1.99452,-4.83866c0,0 5.9688,1.73774 8.55403,2.66521c2.58522,0.92748 1.0317,2.04295 1.0317,2.04295z" fill="url(#color-1)" stroke-width="0"/><path d="M477.6822,179.83745c0,0 1.44842,2.34736 -1.16065,3.20545c-2.60906,0.8581 -5.52819,2.04228 -5.52819,2.04228l-0.89663,-5.5487z" data-paper-data="{&quot;index&quot;:null}" fill="url(#color-2)" stroke-width="0"/><path d="M460.92419,189.07692l0.02803,-2.09817l14.77124,0.19731c0,0 1.24686,0.81103 1.72975,1.18378c0.43407,0.33508 -0.74766,0.9279 -0.74766,0.9279z" fill="#444444" stroke-width="NaN"/><path d="M460.98402,187.12261l-1.16713,-1.76964l12.61454,0.16848l3.37178,1.68726c0,0 -4.22068,0.18166 -6.52551,0.16825c-2.59938,-0.01511 -8.29368,-0.2544 -8.29368,-0.2544z" fill="#535353" stroke-width="0"/><path d="M459.70292,185.48816l-0.31617,-0.64428l11.47276,0.15325l1.67832,0.54817z" fill="#363636" stroke-width="0"/><path d="M460.92419,189.07692l0.0152,-1.13826c0,0 6.44698,0.53976 9.3265,0.57822c2.44016,0.0326 6.85178,-0.36212 6.85178,-0.36212c0,0 0.85788,0.47373 1.10247,0.67991c0.20633,0.17392 -0.25498,0.46989 -0.25498,0.46989c0,0 -4.73773,0.34123 -7.05126,0.31034c-3.12127,-0.04169 -9.98971,-0.53797 -9.98971,-0.53797z" fill="#3a3a3a" stroke-width="NaN"/><path d="M459.7074,184.86645l-0.54166,-0.89104l13.6404,0.1822l-1.8337,0.89322z" fill="#242424" stroke-width="0"/><path d="M458.35522,184.15383l0.02209,-1.65416c0,0 8.09537,-0.09808 11.09085,-0.05807c2.04085,0.02727 5.14421,0.27493 5.14421,0.27493l-1.83338,1.465z" fill="#3a3a3a" stroke-width="0"/><path d="M458.24721,182.54049l0.02728,-2.04237c0,0 7.65701,-0.22765 10.97098,-0.18338c2.86774,0.03831 7.76844,0.4337 7.76844,0.4337l-2.44527,2.01008c0,0 -3.65349,-0.13127 -5.8977,-0.16126c-2.98311,-0.03984 -10.42371,-0.05675 -10.42371,-0.05675z" fill="#444444" stroke-width="0"/><path d="M458.23019,180.58262l0.01137,-0.85099c0,0 7.87477,-0.01853 11.47167,0.02952c2.50459,0.03345 8.04493,0.23117 8.04493,0.23117l-0.87632,0.83944c0,0 -5.04968,-0.35614 -8.01463,-0.39573c-3.26662,-0.04364 -10.63703,0.14661 -10.63703,0.14661z" fill="#535353" stroke-width="0"/><path d="M458.11088,179.81501l0.00455,-0.3404c0,0 7.68242,-0.40447 11.14245,-0.35825c2.99151,0.03997 8.41736,0.61952 8.41736,0.61952l0.03303,0.3409c0,0 -6.00614,-0.24519 -9.25089,-0.28854c-3.28715,-0.04391 -10.34647,0.02677 -10.34647,0.02677z" fill="#4e4e4e" stroke-width="0"/></g><g stroke-width="0"><g><g><g><path d="M455.07747,188.51076l-4.40558,-13.22366l0.57595,-1.71381c0,0 3.43137,3.27534 4.3204,5.77781c0.48264,1.35859 0.96366,9.17908 0.96366,9.17908z" fill="#383638"/><path d="M456.13778,187.83345c0,0 0.0665,-0.60885 -0.52928,-3.07193c-0.64972,-2.68608 -1.99347,-6.3414 -2.37223,-7.42051c-0.85021,-2.42227 -1.60331,-2.56283 -1.60331,-2.56283l4.80734,-0.51765l4.78794,13.64093z" fill="#555355"/><path d="M451.69582,174.86439l-0.56524,-1.24403c0,0 2.03069,-0.77295 2.99223,-0.76009c0.90101,0.01203 2.02646,0.75441 2.02646,0.75441l0.56428,1.31675z" fill="#686668"/></g><path d="M449.40528,188.43499l-4.40558,-13.22365l0.2449,-1.69808c0,0 3.76244,3.2596 4.65147,5.76206c0.48263,1.35858 0.96366,9.17908 0.96366,9.17908z" fill="#383638"/><path d="M450.46555,187.75768c0,0 0.0665,-0.60886 -0.52927,-3.07193c-0.64972,-2.68608 -1.99347,-6.3414 -2.37223,-7.42051c-0.85021,-2.42227 -1.60331,-2.56283 -1.60331,-2.56283l4.06408,-1.02762c0,0 1.00926,1.26784 1.26841,2.00615c0.73833,2.10351 4.26278,12.14475 4.26278,12.14475z" fill="#555355"/><path d="M446.0236,174.78859l-0.78341,-1.24695c0,0 2.24885,-0.77004 3.21041,-0.75718c0.90101,0.01203 1.73558,0.75052 1.73558,0.75052l0.68928,1.31842z" fill="#686668"/><path d="M456.96931,186.85071c0.01094,-0.81945 0.68411,-1.47485 1.50356,-1.46391c0.81945,0.01094 1.47485,0.68411 1.46391,1.50356c-0.01094,0.81945 -0.68411,1.47485 -1.50356,1.46391c-0.81945,-0.01094 -1.47485,-0.68411 -1.46391,-1.50356z" fill="#312f31"/><path d="M457.66401,183.93045l-1.92511,-5.57273l1.59313,-0.12207l1.92426,5.63725z" fill="#444144"/></g><path d="M410.14259,182.94363l-3.61981,-10.87285l29.86397,1.57549l-0.5994,9.63991z" fill="#444444"/><path d="M422.83464,179.19735c0,0 0.64288,-0.5134 1.37987,-1.60856c0.67386,-1.00131 1.42748,-2.56928 1.81829,-3.02786c0.99797,-1.6933 3.37009,-1.19475 3.37009,-1.19475l-0.98822,0.63993l-4.43727,5.2065z" fill="#292929"/><path d="M425.49309,189.76322l-6.36718,-11.05746c0,0 3.49133,0.57799 5.20882,-0.44827c1.33462,-0.79749 1.27564,-3.43049 2.85661,-3.6903c4.53591,-0.74541 17.41509,-1.00729 17.41509,-1.00729c0,0 3.14444,7.18762 4.03304,10.08679c0.61345,2.00149 0.96573,6.4386 0.96573,6.4386z" fill="#4a464a"/><path d="M429.80494,176.71109c-4.55192,-0.69692 -3.09301,-2.04149 -3.09301,-2.04149c0,0 0.81005,-1.29153 2.67915,-1.41272c4.58675,-0.29742 13.22134,0.39487 14.94376,0.39223c0.81231,-0.00126 0.33724,0.70035 0.33724,0.70035c0,0 -1.52109,2.36586 -3.07499,2.59916c-1.5539,0.2333 -7.24026,0.45941 -11.79216,-0.23752z" fill="#5e595e"/></g><g><path d="M413.60238,196.18028l-4.92129,-18.00282l18.90227,0.53882l4.74122,4.39207l6.09999,-0.01707l2.78825,13.45779z" fill="#4d4846"/><path d="M418.28733,196.63001l20.7798,-9.1148l22.32291,0.05573c0,0 1.25603,4.20001 1.38087,5.55639c0.06363,0.69153 -0.19427,2.94175 -0.19427,2.94175z" fill="#423d3b"/><path d="M414.5849,188.26879l-3.0477,-9.88773l0.82044,0.01096l3.0477,9.88773z" fill="#363332"/><path d="M418.88356,195.8363l0.01625,-1.21729c0,0 5.29801,-2.4749 14.36208,-2.35384c1.20431,0.01609 5.41824,2.61804 6.63208,2.63425c7.70142,0.10287 15.23964,0.20356 18.10747,0.24187c2.33556,0.0312 4.73792,-1.23684 4.73792,-1.23684l-0.03363,2.51716z" fill="#312e2c"/><path d="M421.42337,183.12887l-1.68179,-4.63825l8.30695,0.11096l4.09557,4.47642l6.30338,0.27828l-7.61509,1.84718z" fill="#585350"/><path d="M411.8432,190.0272l0.01507,-1.12811c0,0 8.09513,-3.63581 10.9721,-3.59737c4.33597,0.05791 16.30623,0.21781 16.30623,0.21781l-0.01507,1.12811c0,0 -12.17546,-0.16263 -16.51135,-0.22054c-2.81787,-0.03765 -10.76699,3.6001 -10.76699,3.6001z" fill="#2b2827"/></g></g></g><g><g><g><path d="M76.67106,228.20792c0.51091,2.24102 0.16694,4.82619 -0.92751,5.07568c-1.09444,0.24951 -2.52492,-1.9311 -3.03584,-4.17212c-0.51091,-2.24102 -2.5305,-10.83915 -1.43603,-11.08867c1.09444,-0.24951 4.88847,7.94408 5.39939,10.18511z" fill="#615e5f" stroke-width="0"/><g><path d="M118.65957,198.83716c-0.53223,-0.53478 -2.85517,-1.8783 -2.85517,-1.8783l9.95758,-2.74725l-6.09562,7.11922c0,0 -0.47456,-1.95891 -1.00678,-2.49367z" fill="#756a6a" stroke-width="0"/><path d="M109.65645,197.01957l0.18343,-13.7321l18.61004,-5.61861l-0.26178,19.59826z" fill="#8a7c7c" stroke-width="0"/><path d="M69.55146,201.93142l6.90826,-18.04268l34.93199,0.33326l4.36374,12.72608c0,0 -23.0089,1.26884 -30.71645,2.10015c-3.19947,0.34508 -15.48756,2.88319 -15.48756,2.88319z" fill="#7c787a" stroke-width="0"/><path d="M76.54593,186.29493l-0.12835,-1.48332c0,0 25.92191,0.34624 34.07103,0.45509c4.55945,0.0609 16.2318,-6.15412 16.2318,-6.15412l-0.02176,1.62948c0,0 -11.37791,6.19966 -15.78731,6.12611c-8.08517,-0.13486 -34.36539,-0.57323 -34.36539,-0.57323z" fill="#535353" stroke-width="0"/><path d="M37.46536,202.21073l0.26918,-20.1522c0,0 4.62495,-6.99299 11.89917,-9.19201c9.03485,-2.73124 25.89828,-0.72072 27.96874,-0.69307c1.58884,0.02123 -13.04558,10.24335 -13.04558,10.24335l-0.26918,20.1522z" fill="#8d898b" stroke-width="0"/><path d="M211.01362,158.38194l1.64448,-3.12257l107.55366,1.57948l-0.19695,14.74491c0,0 -37.8019,1.34076 -50.01607,0.76147c-6.0659,-0.28769 -58.9851,-13.9633 -58.9851,-13.9633z" fill="#c98cac" stroke-width="0"/><path d="M188.0025,259.0837l-4.37046,-12.99595c0,0 5.0596,5.90758 7.89262,7.02235c1.80498,0.71026 6.02568,1.14844 12.16845,-1.20715c4.94517,-1.89633 10.187,-7.3376 10.187,-7.3376l-11.87513,14.70535z" fill="#a08e97" stroke-width="0"/><path d="M279.11076,213.38043l-2.02225,-23.65054l18.56447,-1.15491l-0.2831,21.19512c0,0 -6.41978,1.63353 -9.19397,2.2948c-1.27736,0.30449 -7.06512,1.31551 -7.06512,1.31551z" fill="#96858d" stroke-width="0"/><path d="M186.115,262.80466l0.07399,-5.53967c0,0 12.03454,2.22946 16.69535,-0.82988c2.26829,-1.48889 19.39809,-22.19446 28.83617,-33.70141c3.68319,-4.49057 6.19499,-7.58025 6.19499,-7.58025c0,0 3.40943,-3.728 3.45196,-6.6099c0.02139,-1.44971 0.5471,-5.62179 -0.2535,-7.94403c-0.80775,-2.34301 -2.94198,-2.82988 -2.94198,-2.82988l-4.69045,-13.63615l19.81234,0.40833l-3.26404,26.5321l3.72365,2.61184c0,0 -9.6343,5.87198 -14.329,10.76539c-7.34547,7.65639 -31.13849,37.7262 -31.13849,37.7262z" fill="#918189" stroke-width="0"/><path d="M255.92795,213.42353l1.59551,-28.58513l13.77073,0.45973l10.20247,12.13951l-2.4591,16.29459z" fill="#96858d" stroke-width="0"/><path d="M251.37908,215.21213l-2.45368,-4.17892l3.88843,-26.14028l5.08053,-0.01686l-1.05737,28.57513z" fill="#8f8187" stroke-width="0"/><path d="M277.80195,213.81932c0,0 2.84055,-6.62972 1.56022,-12.05812c-0.7372,-3.12564 -5.62138,-5.16077 -6.07331,-7.07691c-0.8633,-3.66031 -2.19884,-9.32285 -2.19884,-9.32285l7.79613,4.46848c0,0 3.3095,7.25861 3.85027,11.52773c0.36334,2.8682 -1.20538,9.22382 -2.16663,11.81008c-0.08104,0.21803 -1.25598,0.11906 -1.30981,0.28367c-0.13151,0.40214 0.82953,0.64633 0.82953,0.64633z" fill="#86787e" stroke-width="0"/><path d="M278.65151,191.32685c0,0 -3.03772,-3.99586 -7.70684,-5.02995c-5.28597,-1.17067 -22.38866,-1.63524 -22.38866,-1.63524l157.91273,-12.07378l3.29096,9.34657l7.76833,11.24743c0,0 -100.74856,-3.91739 -121.33508,-4.19237c-6.71766,-0.08973 -17.54142,2.33735 -17.54142,2.33735z" fill="#df8db7" stroke-width="0"/><path d="M123.81611,236.54324l-4.31319,-36.33069c0,0 1.73317,-3.72785 2.23719,-3.93682c5.55683,-2.30383 37.7329,-12.52681 43.16784,-12.16791c5.95367,0.39315 -9.32259,12.11874 -9.32259,12.11874c0,0 -14.43558,1.83328 -17.02983,6.0489c-3.5222,5.72357 1.09297,23.14031 1.09297,23.14031z" fill="#c77da3" stroke-width="0"/><path d="M196.6297,207.58424l-1.7612,-2.12899c0,0 6.67337,-8.51819 9.13733,-10.77822c2.54381,-2.33326 5.89366,-3.00868 5.89366,-3.00868l5.9042,2.38126c0,0 -4.46896,-0.56232 -6.85541,1.12224c-2.04868,1.44612 -5.84156,4.47443 -8.68282,7.52908c-2.06681,2.22204 -3.63576,4.88328 -3.63576,4.88328z" fill="#414041" stroke-width="0"/><path d="M76.24058,185.24445l4.9557,-11.62437l48.6241,0.64948c0,0 -2.95784,4.4164 -6.1034,6.34068c-3.08728,1.88863 -12.59844,5.10006 -12.59844,5.10006z" fill="#979395" stroke-width="0"/><path d="M77.05575,184.11236l4.15577,-11.63506l48.6241,0.64948c0,0 -2.95784,4.4164 -6.1034,6.34068c-3.08728,1.88863 -12.59844,5.10006 -12.59844,5.10006z" fill="#bdb7ba" stroke-width="0"/><path d="M280.20563,214.17216l-1.86588,-0.53846l16.90313,-3.9494c0,0 -3.58753,2.00965 -6.0819,2.77332c-2.49438,0.76368 -8.95534,1.71452 -8.95534,1.71452z" fill="#887980" stroke-width="0"/><path d="M126.29538,237.04084c0,0 -2.20022,-10.49579 -3.28719,-19.04953c-1.09225,-8.59548 -2.0912,-16.65626 -2.0654,-20.24093c0.00437,-0.60732 1.78496,-10.51508 2.29166,-11.02977c2.73499,-2.77814 10.37269,5.06814 15.95105,4.039c8.25969,-1.5238 27.37333,-1.78266 27.37333,-1.78266l-8.52388,5.1973c0,0 -19.48614,2.6051 -21.94619,7.70994c-3.32744,6.9048 3.96388,27.87681 3.96388,27.87681z" fill="#d486ae" stroke-width="0"/><path d="M127.47382,233.53744c0,0 -6.11465,-40.9569 -4.65328,-51.01527c0.68376,-4.70619 -2.54909,-13.85806 -2.54909,-13.85806l50.56963,7.64474l1.20916,16.08757c0,0 -31.99811,-3.52087 -38.43176,2.6677c-4.29468,4.13108 2.13659,32.46258 2.13659,32.46258z" fill="#e490bb" stroke-width="0"/><g stroke-width="0"><path d="M266.72678,172.3981l0.11052,-8.27413l9.35916,0.12503l-0.11052,8.27413z" fill="#454545"/><path d="M267.56926,171.64448l-0.25923,-7.30221l11.32518,0.15126l-0.09749,7.29745z" fill="#b0b0b0"/><path d="M267.39869,167.15276l-0.19074,-2.83312l11.54182,0.15416l-0.02548,1.90722c0,0 -7.79647,0.21833 -9.49755,0.33424c-0.5684,0.03874 -1.82805,0.43748 -1.82805,0.43748z" fill="#bebebe"/><path d="M278.79847,171.24489c0,0 -5.50607,-2.62912 -4.88507,-6.36886c0.9228,-5.55717 5.03725,-5.02409 5.03725,-5.02409l40.22102,1.8707l-0.13437,10.05971z" fill="#9c989a"/><path d="M280.60281,169.97965c0,0 -2.43955,-3.55184 -2.6713,-4.48185c-0.34351,-1.37856 1.69059,-4.30897 1.69059,-4.30897l41.5916,0.58889l-0.49998,7.48266z" fill="#898587"/><path d="M280.50983,170.17669l-0.99362,-1.95284l38.22832,0.51063l-0.0259,1.93922z" fill="#c1bcbf"/><path d="M280.434,166.78142c0,0 -1.31494,-1.38567 -1.30242,-2.32293c0.01171,-0.87672 1.37529,-3.13113 1.37529,-3.13113l38.66321,0.51643l-0.07284,5.45406z" fill="#0d0d0d"/><path d="M280.42361,167.55865c0,0 -1.30689,-1.98937 -1.29436,-2.92665c0.01171,-0.87672 1.36721,-2.52741 1.36721,-2.52741l38.66321,0.51643l-0.07284,5.45406z" fill="#2e2e2e"/><path d="M275.57262,169.39733c-2.59765,-3.10192 -1.40137,-5.42269 -1.40137,-5.42269c0,0 1.77715,4.13645 3.00056,5.05046c1.44845,1.08213 5.0397,2.4962 5.0397,2.4962l-3.5094,0.02331c0,0 -2.67233,-1.60135 -3.12948,-2.14725z" fill="#7d7a7c"/><path d="M283.01928,167.90305c0,0 -0.85927,-2.22368 -0.84399,-3.36713c0.01343,-1.00514 0.9308,-3.13229 0.9308,-3.13229l4.8229,0.06443c0,0 -0.49051,2.19762 -0.50211,3.06578c-0.01594,1.1932 0.4153,3.43362 0.4153,3.43362z" fill="#555555"/><path d="M291.63519,168.01814c0,0 0.70029,-2.51399 0.71558,-3.65744c0.01343,-1.00513 -0.62876,-2.84198 -0.62876,-2.84198l5.38285,0.07189c0,0 -0.43953,1.70936 -0.45113,2.57752c-0.01594,1.1932 0.36432,3.92188 0.36432,3.92188z" fill="#555555"/><path d="M300.96101,168.14271c0,0 0.7003,-2.51399 0.71559,-3.65744c0.01343,-1.00514 -0.62877,-2.84198 -0.62877,-2.84198l5.30285,0.07082c0,0 -0.43953,1.70936 -0.45113,2.57752c-0.01594,1.1932 0.36432,3.92188 0.36432,3.92188z" fill="#555555"/><path d="M310.62346,168.27177c0,0 0.87333,-2.15608 0.88858,-3.29954c0.01343,-1.00513 -0.80178,-3.19988 -0.80178,-3.19988l5.14288,0.06869c0,0 0.80122,1.99262 0.78963,2.8608c-0.01594,1.1932 -0.87644,3.63862 -0.87644,3.63862z" fill="#555555"/><path d="M282.83053,162.10399l-0.65438,-0.80881l35.55941,0.47498l-1.54479,0.77944c0,0 -2.82984,-0.0378 -5.29181,-0.07069c-0.53664,-0.00717 -1.54776,-0.34946 -2.35156,-0.36022c-0.77722,-0.01038 -1.33947,0.31091 -2.30555,0.29799c-1.50654,-0.02013 -3.20633,-0.04283 -4.98585,-0.06661c-0.73778,-0.00985 -1.37458,-0.40195 -2.13168,-0.41206c-0.67321,-0.00899 -1.46554,0.36401 -2.14192,0.35498c-1.67872,-0.02243 -3.34089,-0.04463 -4.90367,-0.0655c-0.71763,-0.00958 -1.40845,-0.45722 -2.07615,-0.46613c-0.8151,-0.0109 -1.59287,0.41712 -2.30703,0.40759c-2.91321,-0.0389 -4.86502,-0.06498 -4.86502,-0.06498z" fill="#474747"/></g><g><path d="M134.73178,227.20491l3.75505,-2.81755c0,0 2.78708,2.85237 5.60889,3.78513c2.49578,0.82496 10.46432,1.52774 10.46432,1.52774l-2.71298,4.31846z" fill="#6d6a6b" stroke-width="0"/><path d="M126.58673,233.5969l9.3293,-7.26122c0,0 3.2043,2.29955 5.36405,2.99036c3.26736,1.04507 12.33254,2.67 12.33254,2.67l-4.3349,4.24981z" fill="#615e5f" stroke-width="0"/><path d="M128.29193,255.58902l-1.18167,-22.59086c0,0 4.34326,0.85002 9.16372,0.94403c3.76258,0.07338 7.8213,-0.7196 10.29671,-0.07812c4.34574,1.12612 37.70381,13.92849 37.70381,13.92849l2.34237,10.20701z" fill="#575455" stroke-width="0"/><path d="M150.24265,228.8379c7.00702,-5.47212 15.25541,-18.81521 16.548,-21.36956c0.9312,-1.84022 1.68911,-7.10659 1.68911,-7.10659l7.61199,6.91709c0,0 5.57556,20.57305 6.58713,33.23444c0.28304,3.54277 2.74762,7.52124 1.54187,8.97172c-1.08031,1.29958 -18.07068,3.36275 -23.45423,2.526c-11.32946,-1.76086 -17.15825,0.95104 -20.83219,-4.37383c-3.67394,-5.32488 3.50995,-11.49976 3.50995,-11.49976c0,0 4.97421,-5.87492 6.79838,-7.29952z" fill="#504e4f" stroke-width="0"/><path d="M155.48627,196.07977c0,0 0.41573,-1.48736 1.28152,-2.13937c1.11347,-0.83854 4.84516,-2.47454 4.84516,-2.47454c0,0 9.33849,2.19226 12.31524,4.72227c2.74646,2.33424 -3.671,12.53062 -3.671,12.53062l-1.93473,-5.38768z" fill="#464445" stroke-width="0"/><path d="M178.08792,243.61335c0,0 -9.36698,6.13122 -17.8529,6.1893c-8.18642,0.05604 -15.50495,-5.93406 -15.37894,-7.35475c0.06826,-0.76972 8.03968,-3.96885 11.57227,-8.14347c3.92683,-4.64049 3.5146,-10.34805 4.89218,-12.34027c3.84584,-5.56183 12.426,-15.62663 11.44579,-21.68391c-1.02799,-6.35239 -11.71686,-8.56921 -11.71686,-8.56921c0,0 3.88093,-2.20005 8.8679,-2.26332c2.12426,-0.02696 6.65294,1.41952 7.57101,1.81677c3.01056,1.30268 4.97926,2.96538 4.97926,2.96538c0,0 3.72342,-4.83002 7.32934,-5.09133c3.60594,-0.26131 22.39068,2.93747 22.39068,2.93747l-16.37729,12.37636z" fill="#555354" stroke-width="0"/><path d="M160.91631,222.5538c0,0 4.76559,-10.81012 9.56815,-16.18134c4.80254,-5.37124 8.92308,-8.49697 12.45511,-8.44978c2.5577,0.03415 5.73056,8.6927 5.73056,8.6927l-11.46018,28.61872c0,0 -14.66364,3.08355 -16.10764,0.58336c-1.14048,-1.97464 -0.18598,-13.26366 -0.18598,-13.26366z" fill="#585758" stroke-width="0"/><path d="M183.10508,250.15235c0,0 -2.7952,-6.22895 -2.42862,-9.24653c0.51213,-4.21555 2.12489,-16.84907 2.12489,-16.84907l1.81714,10.46089c0,0 -0.77062,9.73807 -0.67839,12.76946c0.08898,2.92478 1.48318,5.11399 1.48318,5.11399z" fill="#3f3e3f" stroke-width="0"/><path d="M182.41513,232.27628c-0.17304,-1.67726 0.19679,-9.38394 0.19679,-9.38394c0,0 9.75189,-14.43902 11.88455,-17.06384c0.62523,-0.7695 4.00367,-2.45545 4.00367,-2.45545l-1.71095,4.83149c0,0 -1.58177,0.5829 -1.76794,1.05831c-0.19837,0.50649 0.61201,1.89325 0.61201,1.89325l-5.24167,8.41085c0,0 -1.66396,0.98843 -1.84987,1.49138c-0.18597,0.50306 0.48975,1.4003 0.48975,1.4003c0,0 -3.97342,8.88898 -4.84808,11.29228c-0.40441,1.1112 -0.18849,2.54683 -0.18849,2.54683c0,0 -1.40672,-2.34418 -1.57977,-4.02147z" fill="#474647" stroke-width="0"/><path d="M169.57029,211.13448l20.94695,8.51582c0,0 -1.20235,0.99631 -1.44672,1.53215c-0.18032,0.39538 0.11343,1.39149 0.11343,1.39149z" fill="#3f3e3e" stroke-width="NaN"/><path d="M175.70802,200.86259l21.31558,7.34418c0,0 -1.12619,0.82835 -1.34461,1.38181c-0.22769,0.57697 0.12739,1.66101 0.12739,1.66101z" fill="#3f3e3e" stroke-width="NaN"/><path d="M162.88607,229.37389c0,0 10.58874,7.83513 16.38651,13.8907c5.79777,6.05559 3.84115,7.23637 3.84115,7.23637z" fill="#636162" stroke-width="NaN"/><path d="M176.47965,206.49678c0,0 -6.03888,2.82367 -8.82936,5.88259c-2.79048,3.05893 -11.33985,19.1291 -11.30051,16.18385c0.03935,-2.94526 13.43666,-23.48929 15.23144,-23.46533c0.67941,0.00908 3.73064,-1.09254 4.54581,-0.84417c1.33825,0.40777 0.35261,2.24303 0.35261,2.24303z" fill="#918f91" stroke-width="0"/><path d="M127.83751,255.45353l13.96679,-1.70191c0,0 12.59921,-0.16401 15.73355,0.03293c7.63303,0.4796 30.23098,2.85511 30.23098,2.85511l-0.53139,6.31455c0,0 -24.40641,3.23978 -31.28264,1.83217c-1.98928,-0.40722 -7.79717,-1.10292 -12.03449,-2.51182c-8.29222,-2.75718 -16.08278,-6.82103 -16.08278,-6.82103z" fill="#626061" stroke-width="0"/><path d="M186.23726,262.58897c0,0 0.09777,-4.29172 -0.31989,-6.63736c-0.46942,-2.63642 -2.35953,-8.41103 -2.35953,-8.41103l1.78218,0.0238c0,0 1.6595,4.47938 2.08446,6.86611c0.46462,2.60951 0.59497,8.18229 0.59497,8.18229z" fill="#4a494a" stroke-width="0"/><path d="M186.03086,263.4226l0.1336,-3.39568c0,0 0.56316,0.27226 0.83466,0.27588c0.32257,0.00431 0.9327,-0.25227 0.9327,-0.25227l0.13131,3.1786c0,0 -0.78193,0.39722 -1.15225,0.43246c-0.28375,0.02702 -0.87998,-0.239 -0.87998,-0.239z" fill="#363536" stroke-width="0"/><path d="M183.81918,248.56947l-0.36417,-1.62563c0,0 0.42207,-0.3488 0.79132,-0.4031c0.35165,-0.05171 0.87238,0.078 0.87238,0.078l0.47838,1.74293c0,0 -0.48857,0.50095 -0.79316,0.53655c-0.28698,0.03353 -0.98473,-0.32875 -0.98473,-0.32875z" fill="#585758" stroke-width="0"/><path d="M144.39878,261.5989c0,0 -7.85501,-3.05801 -7.8368,-4.42091c0.0183,-1.3697 6.27056,-2.45709 6.27056,-2.45709c0,0 10.94615,-0.09459 15.90039,0.1442c2.7736,0.13369 11.29462,1.16656 11.29462,1.16656c0,0 7.27708,1.15152 8.07671,2.31401c0.87224,1.26805 -3.02951,4.05783 -3.02951,4.05783c0,0 -12.74016,1.13601 -16.70183,0.87482c-1.40733,-0.09279 -13.97409,-1.67936 -13.97409,-1.67936z" fill="#6b696a" stroke-width="0"/><path d="M134.10888,254.55933l-1.96459,0.20458c0,0 0.67221,-3.42601 3.3754,-2.14758c2.7032,1.27843 21.68897,0.52052 21.68897,0.52052z" fill="#4b4949" stroke-width="0"/><path d="M127.91234,255.31048c0,0 -2.00015,0.16489 -2.48654,-3.48468c-0.2462,-1.84738 -1.79647,-16.0615 -1.79647,-16.0615l3.77434,-2.84895c0,0 0.60168,6.0023 0.76907,8.90705c0.22261,3.86326 0.66269,13.50039 0.66269,13.50039z" fill="#3f3d3e" stroke-width="0"/><path d="M134.42844,254.72955c0,0 3.22122,-2.11529 19.28066,-2.23794c1.32622,-0.01012 -1.79459,-0.05599 7.59754,0.57683c9.39213,0.63279 13.27981,2.19753 13.27981,2.19753c0,0 -15.05057,-1.27051 -21.25283,-1.35336c-7.06983,-0.09444 -18.90518,0.81696 -18.90518,0.81696z" fill="#838082" stroke-width="0"/><path d="M139.87441,225.16748c0,0 -4.39943,2.12885 -6.59587,3.71523c-2.46874,1.78302 -7.49529,6.46208 -7.49529,6.46208l-0.76302,-1.61195c0,0 3.81372,-3.80308 6.04864,-5.41724c2.44351,-1.7648 8.04252,-4.76007 8.04252,-4.76007z" fill="#4a494a" stroke-width="0"/><path d="M140.81177,224.92218l-3.58318,1.63286c0,0 0.10502,-0.64508 -0.01122,-0.89063c-0.13811,-0.29177 -0.66804,-0.7069 -0.66804,-0.7069l3.16839,-1.75956c0,0 0.74858,0.4967 0.94792,0.81088c0.15276,0.24075 0.14609,0.91333 0.14609,0.91333z" fill="url(#color-3)" stroke-width="0"/><path d="M126.71214,234.57884l-2.98715,2.69013l-0.11468,-2.18438l2.1056,-1.99427c0,0 0.72428,0.1798 0.89496,0.43481c0.1608,0.24026 0.10126,1.05368 0.10126,1.05368z" fill="url(#color-4)" stroke-width="0"/></g><path d="M257.09108,212.3425c0,0 0.98633,-4.40589 1.50815,-5.78815c0.35423,-0.93832 2.74652,-2.33816 2.74652,-2.33816l17.02082,0.00913c0,0 -1.35446,5.78017 -1.75376,7.14124c-0.17493,0.59625 -1.25004,1.27456 -1.25004,1.27456z" fill="#665b60" stroke-width="0"/><path d="M208.72509,193.43829c0,0 -3.773,-1.61298 -8.68564,-2.83095c-3.12297,-0.77428 -7.38502,-1.398 -9.24728,-1.31709c-5.41419,0.23521 -8.00115,5.30602 -8.00115,5.30602c0,0 -3.24202,-2.35927 -5.33806,-3.24202c-1.95657,-0.82402 -6.2959,-1.88302 -6.2959,-1.88302c0,0 24.62525,-4.76279 28.48383,-5.29144c7.3972,-1.01345 34.07079,-0.26573 34.07079,-0.26573l6.03257,14.36756z" fill="#8b7c84" stroke-width="0"/><g stroke-width="0"><path d="M258.5582,211.41925c0,0 0.50617,-2.58974 0.92845,-3.47895c0.43786,-0.92201 2.63547,-1.94517 2.63547,-1.94517l14.52872,0.19405c0,0 0.37314,0.98802 0.12792,1.72262c-0.33342,0.99877 -3.1464,3.7088 -3.1464,3.7088z" fill="#585852"/><path d="M258.56815,210.67395c0,0 0.49621,-1.84442 0.91849,-2.73364c0.43786,-0.92201 2.64542,-2.69047 2.64542,-2.69047l14.52872,0.19405c0,0 0.3632,1.73334 0.11797,2.46791c-0.33342,0.99877 -3.13645,2.96349 -3.13645,2.96349z" fill="#797971"/><path d="M274.89015,205.91585c-1.04639,-0.19194 -12.66431,-0.61849 -12.66431,-0.61849l14.50886,0.19379l-0.03288,2.4616c0,0 -0.76527,-1.84496 -1.81167,-2.0369z" fill="#85857b"/></g><path d="M260.23197,193.27188l0.06931,-5.18929l7.13527,0.09532l1.22801,5.20662z" fill="#7c6e75" stroke-width="0"/><path d="M250.16176,166.71142l-4.06774,-8.18632l1.37919,0.01843l5.99702,8.66374z" fill="#d495b6" stroke-width="0"/><path d="M211.26354,158.56214l13.25914,-2.91285l21.76973,2.90352l3.89453,8.145z" fill="#df9cbe" stroke-width="0"/><path d="M260.327,198.30112l0.02166,-1.62165l10.86506,0.14514l0.95133,1.63465z" fill="#7c6e75" stroke-width="0"/><path d="M219.92101,185.60619c0,0 -18.14802,0.95611 -23.78698,1.38099c-8.5386,0.64334 -25.63842,2.74042 -25.63842,2.74042c0,0 15.08167,-4.23958 28.60813,-5.57514c14.66613,-1.44809 58.73124,-2.31703 58.73124,-2.31703l-0.07223,5.40858z" fill="#75686e" stroke-width="0"/><path d="M212.88608,194.28348l-3.23533,-0.61408c0,0 9.80144,-2.25371 15.13033,-1.41966c5.32889,0.83403 14.53569,6.06279 14.53569,6.06279z" fill="#7c6e76" stroke-width="0"/><path d="M166.48795,189.63317c0,0 -32.14873,-15.82724 -32.97844,-20.45885c-0.75367,-4.20726 29.78775,2.74606 30.08692,2.64181c5.23505,-1.82412 77.20794,-8.07829 77.20794,-8.07829l26.51569,7.14411l52.76482,0.13331l7.1263,13.67184c0,0 -61.56924,0.34659 -85.33556,0.19221c-8.24993,-0.05359 -25.07207,-0.92605 -40.38984,0.00974c-11.81563,0.72184 -29.55801,4.80185 -29.55801,4.80185z" fill="#ee96c3" stroke-width="0"/><path d="M37.20039,200.45068l3.59581,-20.10776c0,0 -0.00734,-7.05486 7.2669,-9.25388c9.03485,-2.73124 25.89828,-0.72072 27.96874,-0.69307c1.58884,0.02123 -13.04558,10.24335 -13.04558,10.24335l-0.26918,20.1522z" fill="#c4b4b3" stroke-width="0"/><g stroke-width="0"><path d="M318.57799,185.95395l-2.65464,-15.17968l92.65813,8.00275l-0.83425,5.79632l-47.4892,4.22323z" fill="#ad6d8e"/><path d="M345.11252,171.97084l7.38258,-8.17485l26.80077,-1.77124l-4.44357,10.34335z" fill="#8d788b"/><path d="M319.62791,172.8192l0.21685,-16.23384l32.72052,7.21574l-4.67004,6.80723z" fill="#857183"/><path d="M362.08723,170.06515l17.14596,-8.03998l27.78877,4.14419l-0.37812,6.88956z" fill="#947e92"/><path d="M315.46735,172.15504l3.06387,-12.72617l1.48759,-3.04424l-0.20119,15.0625z" fill="#756474"/><path d="M319.90012,182.75694l-0.56001,-12.08129l43.33197,-1.07019l-1.44042,16.03925z" fill="#746373"/><path d="M361.22418,185.62912c0,0 0.46421,-6.30182 0.70091,-9.14307c0.20265,-2.4326 0.63308,-6.86962 0.63308,-6.86962l44.18392,1.49936l1.88763,8.42596z" fill="#867284"/><path d="M315.50876,172.08513l4.04768,-1.47697l0.37361,12.15681z" fill="#6f5e6d"/><path d="M399.80873,165.96535l-19.7715,-3.62804l26.67632,3.99302l-0.41096,3.54028c0,0 -0.29259,-1.57334 -1.4914,-2.29428c-0.80194,-0.48227 -5.00249,-1.61099 -5.00249,-1.61099z" fill="#978195"/><path d="M360.42197,169.39309c0,0 8.02022,-3.35846 10.81626,-4.67532c2.03682,-0.95927 4.41605,-2.49867 4.41605,-2.49867l2.5321,0.14644l-15.11601,7.06291z" fill="#9c859a"/><path d="M346.03161,170.00928c0,0 1.35303,-2.73447 2.72124,-4.06658c1.36818,-1.33212 3.6871,-2.11645 3.6871,-2.11645l-3.947,6.21592z" fill="#806b7d"/><path d="M380.83344,160.3006l2.20971,-5.70432l15.14879,3.93601l5.51403,6.47422z" fill="#55494f"/><path d="M378.26293,163.06663c0,0 1.09289,-0.77567 1.66104,-1.3529c0.42796,-0.43479 1.13438,-1.81006 1.13438,-1.81006l22.25831,4.29766c0,0 0.86116,0.50852 1.44297,0.842c0.60802,0.3485 2.12999,1.20591 2.12999,1.20591z" fill="#685960"/><path d="M381.40649,159.41599l1.71963,-4.56281l14.10065,3.51547c0,0 -7.98552,-1.63951 -12.46962,-1.44472c-2.60103,0.11299 -3.35065,2.49205 -3.35065,2.49205z" fill="#41383c"/></g><path d="M39.36423,161.19595l0.06955,-5.20787c0,0 22.35182,-0.99662 44.30724,-0.64639c13.08343,0.20871 26.63073,1.98746 33.55607,1.72983c15.61508,-0.58096 26.14321,-4.95294 26.14321,-4.95294l-6.48217,10.55748z" fill="#ffa1d1" stroke-width="0"/><path d="M36.60008,175.11787l2.37494,-16.0523c0,0 54.7639,2.7922 72.61534,2.58995c10.57447,-0.11981 24.62361,-3.69168 24.62361,-3.69168l-0.19557,14.64104c0,0 -67.49501,-0.90155 -83.76592,-1.11889c-6.68999,-0.08937 -16.01147,30.51378 -16.01147,30.51378z" fill="#ee96c3" stroke-width="0"/><path d="M214.77184,253.99668l9.46077,-13.47074c0,0 10.12955,-15.72336 19.6207,-22.45995c2.41187,-1.71188 7.59691,-2.83924 7.59691,-2.83924c0,0 -7.36983,4.88713 -10.0017,7.64365c-6.21533,6.50971 -26.67666,31.12626 -26.67666,31.12626z" fill="#70646b" stroke-width="0"/><path d="M311.63774,190.4441l-6.05964,-18.08435l1.35001,0.01804c0,0 1.83518,5.47689 2.80488,8.37089c0.13818,0.41234 1.48671,1.65156 1.65784,2.16229c0.29667,0.88536 -0.55887,1.11748 -0.2273,2.10705c0.9233,2.75546 1.82419,5.4441 1.82419,5.4441z" fill="#795467" stroke-width="0"/><path d="M136.645,173.04506c0,0 -10.39358,-6.69174 -9.66387,-10.45725c0.43692,-2.25462 17.3842,-9.98108 17.3842,-9.98108l68.47348,2.58687l-1.67789,3.074l29.57738,5.64395l-72.14451,25.61394c0,0 -0.71631,-5.62389 2.92381,-8.43368c3.53783,-2.73082 18.61881,-8.19487 18.61881,-8.19487c0,0 -34.21369,-0.506 -41.50281,-0.69006c-2.43184,-0.0614 -11.98868,0.83817 -11.98868,0.83817z" fill="#f399c8" stroke-width="0"/><g><path d="M142.54288,154.50675l0.04326,-3.23805l176.53792,2.35807l-0.04326,3.23805z" fill="#584f54" stroke-width="0"/><path d="M313.3249,153.79756l0.03654,-2.73608l3.05498,0.04081l2.65901,2.77208z" fill="#685d63" stroke-width="0"/><g fill="#685d63" stroke-width="0"><g><g><g><path d="M306.66213,153.95775l0.03976,-2.97674l3.88078,0.05183l-0.03976,2.97674z"/><path d="M300.36516,153.87366l0.03976,-2.97674l3.88078,0.05183l-0.03976,2.97674z"/></g><g><path d="M294.30579,153.7927l0.03976,-2.97674l3.88078,0.05183l-0.03976,2.97674z"/><path d="M288.00882,153.7086l0.03976,-2.97674l3.88078,0.05183l-0.03976,2.97674z"/></g></g><g><g><path d="M281.83064,153.62608l0.03976,-2.97674l3.88078,0.05183l-0.03976,2.97674z"/><path d="M275.53365,153.54197l0.03976,-2.97674l3.88078,0.05183l-0.03976,2.97674z"/></g><g><path d="M269.47432,153.46103l0.03976,-2.97674l3.88078,0.05183l-0.03976,2.97674z"/><path d="M263.1774,153.37691l0.03976,-2.97674l3.88078,0.05183l-0.03976,2.97674z"/></g></g></g><g><g><g><path d="M262.93979,153.37376l0.03976,-2.97674l3.88078,0.05183l-0.03976,2.97674z"/><path d="M256.64283,153.28963l0.03976,-2.97674l3.88078,0.05183l-0.03976,2.97674z"/></g><g><path d="M250.58346,153.2087l0.03976,-2.97674l3.88078,0.05183l-0.03976,2.97674z"/><path d="M244.28649,153.12459l0.03976,-2.97674l3.88078,0.05183l-0.03976,2.97674z"/></g></g><g><g><path d="M238.10836,153.04207l0.03976,-2.97674l3.88078,0.05183l-0.03976,2.97674z"/><path d="M231.81138,152.95796l0.03976,-2.97674l3.88078,0.05183l-0.03976,2.97674z"/></g><g><path d="M225.75204,152.87702l0.03976,-2.97674l3.88078,0.05183l-0.03976,2.97674z"/><path d="M219.45506,152.79291l0.03976,-2.97674l3.88078,0.05183l-0.03976,2.97674z"/></g></g></g></g><g><g fill="#685d63" stroke-width="0"><g><g><path d="M213.23649,152.70984l0.03976,-2.97674l3.88078,0.05183l-0.03976,2.97674z"/><path d="M206.93953,152.62574l0.03976,-2.97674l3.88078,0.05183l-0.03976,2.97674z"/></g><g><path d="M200.88017,152.54481l0.03976,-2.97674l3.88078,0.05183l-0.03976,2.97674z"/><path d="M194.58325,152.46069l0.03976,-2.97674l3.88078,0.05183l-0.03976,2.97674z"/></g></g><g><g><path d="M188.40509,152.37816l0.03976,-2.97674l3.88078,0.05183l-0.03976,2.97674z"/><path d="M182.10808,152.29405l0.03976,-2.97674l3.88078,0.05183l-0.03976,2.97674z"/></g><g><path d="M176.04873,152.21312l0.03976,-2.97674l3.88078,0.05183l-0.03976,2.97674z"/><path d="M169.75176,152.12902l0.03976,-2.97674l3.88078,0.05183l-0.03976,2.97674z"/></g></g></g><g><g fill="#685d63" stroke-width="0"><g><path d="M169.51415,152.12583l0.03976,-2.97674l3.88078,0.05183l-0.03976,2.97674z"/><path d="M163.21715,152.04172l0.03976,-2.97674l3.88078,0.05183l-0.03976,2.97674z"/></g><g><path d="M157.15781,151.96079l0.03976,-2.97674l3.88078,0.05183l-0.03976,2.97674z"/><path d="M150.86088,151.87667l0.03976,-2.97674l3.88078,0.05183l-0.03976,2.97674z"/></g></g><g fill="none" stroke-width="1" font-family="sans-serif" font-weight="normal" font-size="12" text-anchor="start"><g/><g/></g></g></g><path d="M142.65435,151.51785l2.73212,-2.70007l3.05498,0.04081l-0.03654,2.73608z" data-paper-data="{&quot;index&quot;:null}" fill="#685d63" stroke-width="0"/></g><path d="M199.12108,185.16147l-2.55525,0.23592c0,0 1.71306,-2.54488 11.32241,-3.54434c7.28531,-0.75771 27.8643,-1.79441 40.18349,-2.3757c5.72073,-0.26995 62.33772,-8.51641 62.33772,-8.51641l5.19852,0.05513c0,0 -61.85236,9.8195 -67.56853,10.06627c-12.64003,0.54566 -33.89378,1.49908 -40.04962,1.99541c-3.35099,0.27018 -8.86872,2.08376 -8.86872,2.08376z" fill="#70475c" stroke-width="0"/><path d="M299.76834,205.53519l-4.94801,1.77988l0.25356,-18.92969c0,0 7.79011,0.15246 15.4087,0.30156c21.87069,0.42802 126.98269,2.48511 126.98269,2.48511l-0.08985,6.72667z" fill="#5a5959" stroke-width="0"/><path d="M298.8316,207.15124l1.13096,-2.99122l137.42647,-6.37061l-11.97477,11.05264z" fill="#4b4a4a" stroke-width="0"/><path d="M422.1313,208.60905c0,0 -5.86266,-3.30332 -8.87577,-4.77178c-1.6148,-0.78698 -7.79768,-3.35409 -7.79768,-3.35409c0,0 7.96195,3.01036 11.2936,4.0029c1.18903,0.35422 2.3026,1.11197 3.59946,1.65746c0.41816,0.17587 2.27828,-2.55868 4.19994,-4.24752c0.57437,-0.50478 1.72964,-0.12478 2.25941,-0.44851c1.21445,-0.74219 1.588,-1.82873 1.588,-1.82873c0,0 0.32502,0.93399 -0.91002,2.13135c-0.33697,0.3267 -2.14444,0.6549 -2.47467,1.0109c-1.32345,1.42675 -2.34652,3.01229 -2.65952,3.59937c-0.87348,1.63829 1.24051,2.26821 1.24051,2.26821z" fill="#414040" stroke-width="0"/><path d="M136.59206,173.34181l3.9631,-11.04683l7.01382,-0.53068c0,0 -0.98592,2.63527 -1.56699,4.18839c-0.14634,0.39118 11.67282,-1.40728 12.01583,-0.73162c0.63642,1.25358 -4.98539,4.93871 -5.35083,5.9155c-0.41778,1.11667 -9.12676,1.3962 -9.12676,1.3962z" fill="#303030" stroke-width="0"/><path d="M136.45346,172.96988l3.84746,-10.21322c0,0 2.98248,1.34455 2.96932,2.32946c-0.02393,1.79203 -1.68012,7.55757 -1.68012,7.55757z" fill="#252525" stroke-width="0"/><path d="M294.76676,209.97032l0.03944,-2.95212l5.56274,-2.87834l-1.27742,2.93558c0,0 -1.10813,1.32059 -1.86872,1.82972c-0.66925,0.44799 -2.45602,1.06515 -2.45602,1.06515z" fill="#383838" stroke-width="0"/><g><g fill="#4b4b4b" stroke-width="0"><g data-paper-data="{&quot;origPos&quot;:null}"><g data-paper-data="{&quot;origPos&quot;:null}"><path d="M361.88369,212.23789l0.03035,-2.27254l3.74967,0.05009l-0.03035,2.27254z" data-paper-data="{&quot;origPos&quot;:null}"/><path d="M355.63577,212.04079l0.03035,-2.27254l3.74967,0.05009l-0.03035,2.27254z" data-paper-data="{&quot;origPos&quot;:null}"/></g><g data-paper-data="{&quot;origPos&quot;:null}"><path d="M374.38107,212.51848l0.03035,-2.27254l3.74967,0.05009l-0.03035,2.27254z" data-paper-data="{&quot;origPos&quot;:null}"/><path d="M368.13313,212.32137l0.03035,-2.27254l3.74967,0.05009l-0.03035,2.27254z" data-paper-data="{&quot;origPos&quot;:null}"/></g></g><g data-paper-data="{&quot;origPos&quot;:null,&quot;index&quot;:null}"><g data-paper-data="{&quot;origPos&quot;:null}"><path d="M393.58693,212.54773l0.03035,-2.27254l3.74967,0.05009l-0.03035,2.27254z" data-paper-data="{&quot;origPos&quot;:null}"/><path d="M399.83789,212.51756l0.03035,-2.27253l3.74967,0.05009l-0.03035,2.27253z" data-paper-data="{&quot;origPos&quot;:null}"/></g><g data-paper-data="{&quot;origPos&quot;:null}"><path d="M381.08653,212.49438l0.03035,-2.27254l3.74967,0.05009l-0.03035,2.27254z" data-paper-data="{&quot;origPos&quot;:null}"/><path d="M387.3375,212.46425l0.03035,-2.27254l3.74967,0.05009l-0.03035,2.27254z" data-paper-data="{&quot;origPos&quot;:null}"/></g></g></g><path d="M319.27589,203.42291l0.18179,-13.6099l84.46648,1.12823l-0.18179,13.6099z" data-paper-data="{&quot;origPos&quot;:null}" fill="#444444" stroke-width="0"/><path d="M319.31132,208.14603l0.06387,-4.78203l84.21822,1.12492l-0.06387,4.78203z" data-paper-data="{&quot;origPos&quot;:null}" fill="#414141" stroke-width="0"/><path d="M319.32709,209.5706l0.02161,-1.61749l84.20752,1.12478l-0.02161,1.61749z" data-paper-data="{&quot;origPos&quot;:null}" fill="#3f3f3f" stroke-width="0"/><g stroke-width="0"><g data-paper-data="{&quot;origPos&quot;:null}" fill="#5a5a5a"><g data-paper-data="{&quot;origPos&quot;:null}"><path d="M362.54263,204.08022l0.18365,-13.74877l3.57111,0.04769l-0.18365,13.74877z" data-paper-data="{&quot;origPos&quot;:null}"/></g><g data-paper-data="{&quot;origPos&quot;:null}"><path d="M368.61351,204.16132l0.18365,-13.74877l3.57111,0.04769l-0.18365,13.74877z" data-paper-data="{&quot;origPos&quot;:null}"/><path d="M374.86296,204.24479l0.18365,-13.74877l3.57111,0.04769l-0.18365,13.74877z" data-paper-data="{&quot;origPos&quot;:null}"/></g></g><g data-paper-data="{&quot;origPos&quot;:null}" fill="#5a5a5a"><g data-paper-data="{&quot;origPos&quot;:null}"><path d="M381.46951,204.33304l0.18365,-13.74877l3.57111,0.04769l-0.18365,13.74877z" data-paper-data="{&quot;origPos&quot;:null}"/><path d="M387.71895,204.41651l0.18365,-13.74877l3.57111,0.04769l-0.18365,13.74877z" data-paper-data="{&quot;origPos&quot;:null}"/></g><g data-paper-data="{&quot;origPos&quot;:null}"><path d="M393.78985,204.49761l0.18365,-13.74877l3.57111,0.04769l-0.18365,13.74877z" data-paper-data="{&quot;origPos&quot;:null}"/><path d="M400.03929,204.58108l0.18365,-13.74877l3.57111,0.04769l-0.18365,13.74877z" data-paper-data="{&quot;origPos&quot;:null}"/></g></g><path d="M366.17508,204.12874l-0.90453,1.91913l-5.24148,-0.02692l-0.00848,-9.79744l2.64682,-5.89286l-0.11469,13.7497z" fill="#3a3a3a"/><path d="M372.2435,204.2098l-0.90453,1.91913l-5.24148,-0.02692l-0.00848,-9.79744l2.64682,-5.89286l-0.11469,13.7497z" fill="#3a3a3a"/><path d="M378.44983,204.29271l-0.90453,1.91913l-5.24148,-0.02692l-0.00848,-9.79744l2.64682,-5.89286l-0.11469,13.7497z" fill="#3a3a3a"/><path d="M385.1389,204.38205l-0.90453,1.91913l-5.24148,-0.02692l-0.00848,-9.79744l2.64682,-5.89286l-0.11469,13.7497z" fill="#3a3a3a"/><path d="M391.4142,204.46589l-0.90453,1.91913l-5.24148,-0.02692l-0.00848,-9.79744l2.64682,-5.89286l-0.11469,13.7497z" fill="#3a3a3a"/><path d="M397.41365,204.54601l-0.90453,1.91913l-5.24148,-0.02692l-0.00848,-9.79744l2.64682,-5.89286l-0.11469,13.7497z" fill="#3a3a3a"/><path d="M403.6969,204.62994l-0.90453,1.91913l-5.24148,-0.02692l-0.00848,-9.79744l2.64682,-5.89286l-0.11469,13.7497z" fill="#3a3a3a"/></g><g stroke-width="0"><g data-paper-data="{&quot;origPos&quot;:null}" fill="#5a5a5a"><g data-paper-data="{&quot;origPos&quot;:null}"><path d="M319.31745,203.50285l0.18365,-13.74877l3.57111,0.04769l-0.18365,13.74877z" data-paper-data="{&quot;origPos&quot;:null}"/></g><g data-paper-data="{&quot;origPos&quot;:null}"><path d="M325.38829,203.58396l0.18365,-13.74877l3.57111,0.04769l-0.18365,13.74877z" data-paper-data="{&quot;origPos&quot;:null}"/><path d="M331.63773,203.66743l0.18365,-13.74877l3.57111,0.04769l-0.18365,13.74877z" data-paper-data="{&quot;origPos&quot;:null}"/></g></g><g data-paper-data="{&quot;origPos&quot;:null}" fill="#5a5a5a"><g data-paper-data="{&quot;origPos&quot;:null}"><path d="M338.2443,203.75566l0.18365,-13.74877l3.57111,0.04769l-0.18365,13.74877z" data-paper-data="{&quot;origPos&quot;:null}"/><path d="M344.49381,203.83914l0.18365,-13.74877l3.57111,0.04769l-0.18365,13.74877z" data-paper-data="{&quot;origPos&quot;:null}"/></g><g data-paper-data="{&quot;origPos&quot;:null}"><path d="M350.56468,203.92023l0.18365,-13.74877l3.57111,0.04769l-0.18365,13.74877z" data-paper-data="{&quot;origPos&quot;:null}"/><path d="M356.81414,204.00372l0.18365,-13.74877l3.57111,0.04769l-0.18365,13.74877z" data-paper-data="{&quot;origPos&quot;:null}"/></g></g><path d="M322.94983,203.55138l-0.90453,1.91913l-2.73009,0.00664l0.01227,-1.97415z" fill="#3a3a3a"/><path d="M329.01832,203.63244l-0.90453,1.91913l-5.24148,-0.02692l-0.00848,-9.79744l2.64682,-5.89286l-0.11469,13.7497z" fill="#3a3a3a"/><path d="M335.22462,203.71533l-0.90453,1.91913l-5.24148,-0.02692l-0.00848,-9.79744l2.64682,-5.89286l-0.11469,13.7497z" fill="#3a3a3a"/><path d="M341.91365,203.80467l-0.90453,1.91913l-5.24148,-0.02692l-0.00848,-9.79744l2.64682,-5.89286l-0.11469,13.7497z" fill="#3a3a3a"/><path d="M348.18904,203.88851l-0.90453,1.91913l-5.24148,-0.02692l-0.00848,-9.79744l2.64682,-5.89286l-0.11469,13.7497z" fill="#3a3a3a"/><path d="M354.18847,203.96864l-0.90453,1.91913l-5.24148,-0.02692l-0.00848,-9.79744l2.64682,-5.89286l-0.11469,13.7497z" fill="#3a3a3a"/><path d="M360.47175,204.05258l-0.90453,1.91913l-5.24148,-0.02692l-0.00848,-9.79744l2.64682,-5.89286l-0.11469,13.7497z" fill="#3a3a3a"/></g><g><g data-paper-data="{&quot;origPos&quot;:null}"><g data-paper-data="{&quot;origPos&quot;:null}" fill="none" stroke-width="1" font-family="sans-serif" font-weight="normal" font-size="12" text-anchor="start"/><g data-paper-data="{&quot;origPos&quot;:null}" fill="#4b4b4b" stroke-width="0"><path d="M325.6486,211.94446l0.03035,-2.27254l3.74967,0.05009l-0.03035,2.27254z" data-paper-data="{&quot;origPos&quot;:null}"/><path d="M319.40067,211.74737l0.03035,-2.27254l3.74967,0.05009l-0.03035,2.27254z" data-paper-data="{&quot;origPos&quot;:null}"/></g></g><g data-paper-data="{&quot;origPos&quot;:null,&quot;index&quot;:null}" fill="#4b4b4b" stroke-width="0"><g data-paper-data="{&quot;origPos&quot;:null}"><path d="M344.85451,211.97371l0.03035,-2.27254l3.74967,0.05009l-0.03035,2.27254z" data-paper-data="{&quot;origPos&quot;:null}"/><path d="M351.10546,211.94353l0.03035,-2.27253l3.74967,0.05009l-0.03035,2.27253z" data-paper-data="{&quot;origPos&quot;:null}"/></g><g data-paper-data="{&quot;origPos&quot;:null}"><path d="M332.35404,211.92039l0.03035,-2.27254l3.74967,0.05009l-0.03035,2.27254z" data-paper-data="{&quot;origPos&quot;:null}"/><path d="M338.60498,211.8902l0.03035,-2.27254l3.74967,0.05009l-0.03035,2.27254z" data-paper-data="{&quot;origPos&quot;:null}"/></g></g></g></g><path d="M149.29223,171.91733l1.09583,-4.20087c0,0 4.6527,-3.08562 8.18552,-3.18845c4.03871,-0.11757 34.00463,0.30766 34.00463,0.30766c0,0 0.6369,1.88441 0.56772,3.1008c-0.08913,1.56715 -2.24593,4.60324 -2.24593,4.60324z" fill="#242424" stroke-width="0"/><path d="M174.22673,168.44002l0.04207,-3.15003l18.0002,0.24043l-0.04207,3.15003z" fill="#313131" stroke-width="0"/><path d="M170.90746,170.32648l0.00871,-0.65218c0,0 1.08179,-1.0368 2.10479,-1.02314c0.97141,0.01297 3.15288,0.51709 5.60236,0.7132c4.66626,0.37356 10.29282,0.55038 10.29282,0.55038l-0.00871,0.65218c0,0 -5.42775,-0.07453 -10.0289,-0.44667c-2.51059,-0.20305 -4.77097,-0.80228 -5.77868,-0.81574c-1.05919,-0.01415 -2.19235,1.02197 -2.19235,1.02197z" fill="#616161" stroke-width="0"/><path d="M198.24801,154.97933l12.65174,3.19588l30.77682,5.71967c0,0 0.73009,0.23396 -7.35805,-0.60239c-2.75147,-0.28453 -13.36735,-2.03548 -22.56391,-4.06131c-2.48847,-0.54816 -15.7754,-4.16675 -15.7754,-4.16675z" fill="#df8cb7" stroke-width="0"/><path d="M17.09218,158.89647l0.07924,-5.93259c0,0 5.79298,-1.67573 9.59645,-1.62492c3.11378,0.04159 11.54869,3.6605 11.54869,3.6605l-0.29873,12.26786z" fill="#626061" stroke-width="0"/><path d="M133.00804,170.43141l3.76249,2.5565l12.26373,-1.15948l50.74043,0.67777l-0.01456,1.09093c0,0 -38.06086,-0.65365 -49.96676,-0.55042c-3.26874,0.02834 -12.97689,0.6196 -12.97689,0.6196z" fill="#ffa6d4" stroke-width="0"/><path d="M13.3562,222.78258l0.09575,-7.16895l23.64774,-16.31583l-1.78969,13.64621l-14.00565,9.94475z" fill="#3f3d3e" stroke-width="0"/><path d="M11.79382,217.7011c0,0 0.45005,-19.64758 1.38365,-29.2193c1.05373,-10.80316 4.62202,-32.35356 4.62202,-32.35356c0,0 8.61634,-0.07428 12.1761,1.61923c3.04666,1.4494 7.88373,7.92396 7.88373,7.92396l-0.44811,33.54857c0,0 -12.03868,13.53855 -15.11347,15.75681c-4.72957,3.41205 -10.50389,2.72429 -10.50389,2.72429z" fill="#555354" stroke-width="0"/><path d="M17.50713,166.72375c0,0 -1.45999,-6.01294 0.64199,-8.68233c2.10198,-2.66939 6.46475,-3.62815 9.0248,-3.59394c2.04222,0.02728 6.26746,0.16246 9.08105,4.65893c2.8136,4.49646 0.80508,11.14031 0.80508,11.14031c0,0 -6.16031,-10.48691 -8.71074,-10.94644c-3.59895,-0.64844 -10.84219,7.42347 -10.84219,7.42347z" fill="#6f6b6c" stroke-width="0"/><path d="M10.27584,222.55309c0,0 2.06247,-26.0373 2.21533,-37.48008c0.15918,-11.91675 0.22159,-32.63617 0.22159,-32.63617c0,0 1.1647,-0.62745 2.20542,-0.61355c0.95163,0.0127 2.50976,0.67654 2.50976,0.67654c0,0 -0.47014,19.1507 -0.61299,29.84458c-0.16597,12.42436 -3.10971,40.2545 -3.10971,40.2545z" fill="#333232" stroke-width="0"/><path d="M9.83918,222.99093l1.29051,-14.69231c0,0 1.04322,0.90292 1.64313,0.87224c0.75747,-0.03872 2.45353,-1.4537 2.45353,-1.4537l-1.41842,15.32677z" fill="#2e2d2d" stroke-width="0"/><path d="M36.08333,187.07846c-0.10905,8.16391 -4.34866,16.77597 -8.75262,19.6448c-3.65764,2.38268 -11.24587,9.03983 -11.13682,0.87593c0.02313,-1.73194 2.22567,-13.58293 2.44799,-20.61041c0.29401,-9.29374 -1.28504,-14.2962 -0.28949,-17.11475c1.80016,-5.09642 7.34268,-6.50202 9.55699,-6.47243c4.36486,0.0583 8.283,15.51296 8.17395,23.67686z" fill="#585758" stroke-width="0"/><path d="M70.35392,201.62046l-0.56928,-1.7485c0,0 7.95706,-1.24437 13.98095,-1.64811c8.48029,-0.56836 32.10143,-1.44039 32.10143,-1.44039l1.77865,1.30505c0,0 -25.13003,1.28486 -33.8532,1.93636c-2.56188,0.19133 -13.43854,1.59559 -13.43854,1.59559z" fill="#585657" stroke-width="0"/><path d="M64.28777,214.74111l5.37216,-13.62086l7.25434,-0.85384c0,0 -1.79555,4.28988 -1.71934,5.04613c0.36408,3.61351 3.04063,27.61844 3.04063,27.61844c0,0 -1.48321,0.42065 -2.64743,-1.47061c-2.08897,-3.39349 -3.83267,-10.27942 -5.55652,-12.40529c-1.48939,-1.83674 -5.74384,-4.31394 -5.74384,-4.31394z" fill="#5a5759" stroke-width="0"/><path d="M77.22751,184.10716l3.04001,-11.29374l2.33461,-0.07994l-4.15399,11.50109z" fill="#a5a0a2" stroke-width="0"/><path d="M84.03108,183.11444l0.01873,-1.40262l26.49389,0.35389l-0.01873,1.40262z" fill="#494748" stroke-width="0"/><path d="M83.99014,180.14234l0.01873,-1.40262l26.49389,0.35389l-0.01873,1.40262z" fill="#494748" stroke-width="0"/><path d="M64.25918,202.28851l0.26897,-20.13654l12.37472,-9.4518l4.84828,-0.24702l-16.84611,42.59235l-5.58396,-2.07813z" fill="#dbd5d8" stroke-width="0"/><path d="M37.60386,213.84795l-0.0004,-11.79187l26.66266,-0.43343c0,0 0.29636,2.54192 0.1555,3.33861c-0.35106,1.98597 -2.45082,8.89633 -2.45082,8.89633z" fill="#ccc6c9" stroke-width="0"/><path d="M41.54551,202.50919l0.00422,-0.31578l22.82655,-0.56364l-2.621,1.14937c0,0 -4.32375,0.12847 -7.03179,0.06056c-3.70804,-0.093 -13.178,-0.3305 -13.178,-0.3305z" fill="#d8d1d5" stroke-width="0"/><path d="M45.11056,198.81968l0.22706,-16.99848l16.12357,0.21537l-0.22706,16.99848z" fill="#a39999" stroke-width="0"/><path d="M37.3251,214.014l0.15172,-11.3583c0,0 8.75076,6.50413 13.00581,8.90177c4.25505,2.39764 10.7594,2.2045 10.7594,2.2045z" fill="#b4afb1" stroke-width="0"/><path d="M70.88458,220.50543c0,0 3.01531,1.08088 4.11325,0.95179c0.67448,-0.07932 1.84786,-1.65272 1.84786,-1.65272l1.5372,9.09453l-0.05603,4.19474c0,0 -1.94703,0.28546 -3.19148,-2.31398c-1.02679,-2.14474 -4.2508,-10.27433 -4.2508,-10.27433z" fill="#504e4f" stroke-width="0"/><path d="M64.58479,215.30147l15.01779,-41.54672l1.7407,0.22841l-14.92071,41.95829z" fill="#858183" stroke-width="0"/><path d="M48.29444,174.32424l1.53667,-1.6301c0,0 27.42175,-0.27768 39.83094,-0.11192c10.77034,0.14385 31.93737,0.77962 31.93737,0.77962l0.5035,1.94829c0,0 -21.28596,-0.99035 -32.63855,-1.14199c-12.9632,-0.17315 -41.16993,0.15611 -41.16993,0.15611z" fill="#918b8e" stroke-width="0"/><path d="M49.329,173.1072l2.04962,-1.9142c0,0 25.89073,-0.00719 38.29992,0.15856c10.77034,0.14385 31.93737,0.77962 31.93737,0.77962l0.5035,1.94829c0,0 -21.28596,-0.99035 -32.63855,-1.14199c-12.9632,-0.17315 -40.15185,0.1697 -40.15185,0.1697z" fill="#a59fa2" stroke-width="0"/><path d="M113.65431,194.75432l-1.84946,-5.70784c0,0 0.2277,-1.2021 0.56217,-1.31045c0.29468,-0.09548 1.34043,0.69398 1.34043,0.69398l1.84945,5.70784c0,0 -0.28784,0.87386 -0.5832,0.96956c-0.33408,0.10825 -1.31941,-0.35307 -1.31941,-0.35307z" fill="#494242" stroke-width="0"/><path d="M73.34793,196.86481l3.66924,-9.43754l3.88537,0.0519l-3.66924,9.43754z" fill="#9c989a" stroke-width="0"/><path d="M83.15173,179.21803l1.86347,-0.94315l24.43643,0.34446l2.00519,0.97677z" fill="#757274" stroke-width="0"/><path d="M83.20852,182.03033l1.86347,-0.94315l24.43643,0.34446l2.00519,0.97677z" fill="#757274" stroke-width="0"/><path d="M34.91775,212.99878l2.48355,-58.12971l1.91237,0.60631l-1.94346,58.53814z" fill="#686666" stroke-width="0"/><path d="M34.75079,213.2669l0.87165,-16.24554l2.23987,3.84872l-0.61411,13.30304z" fill="#535252" stroke-width="0"/><path d="M65.79942,190.80486c0,0 2.15519,-2.31689 2.16782,-3.26361c0.01242,-0.92902 -2.09265,-2.3646 -2.09265,-2.3646c0,0 2.99285,0.70974 2.86607,2.3965c-0.09655,1.28479 -1.17626,3.45958 -1.27836,4.56068c-0.29031,3.13086 -1.077,10.46838 -1.077,10.46838z" fill="#c4bec1" stroke-width="0"/><path d="M73.50025,188.99593l2.04764,-10.16897l2.60678,-4.31986l-2.78247,9.52188z" fill="#aca7a9" stroke-width="0"/></g></g><g stroke-width="0"><path d="M191.92021,162.74472l2.59921,-3.29479c0,0 1.82647,-1.41205 2.64768,-1.12608c0.9363,0.32606 2.67029,2.97801 2.67029,2.97801l-0.59642,4.07434c0,0 -4.28076,-0.06472 -5.54514,-0.2149c-0.56999,-0.06771 -1.77558,-2.41657 -1.77558,-2.41657z" fill="#c0c0c0"/><path d="M148.87631,171.82177c0,0 -0.13801,-2.8821 0.93625,-4.00673c1.34625,-1.40937 7.4552,-3.54018 7.4552,-3.54018l-0.77379,4.72718l-0.03901,2.92097z" fill="#838383"/><path d="M148.70512,171.7451l8.20394,-7.37239l37.55898,0.50169l-0.09992,7.48063z" fill="#999999"/><path d="M149.7128,171.10208l6.23718,-5.75833l33.76929,0.45106l-0.078,5.8406c0,0 -4.08722,-0.0546 -9.34496,-0.12481c-3.41838,-0.04567 -7.31733,-1.15985 -10.92367,-1.20802c-3.86871,-0.05168 -7.39855,0.9633 -9.57153,0.93427c-4.25278,-0.05681 -10.08831,-0.13476 -10.08831,-0.13476z" fill="#d952b3"/><path d="M153.20473,171.14654l8.44698,-5.79099l12.46299,0.16647c0,0 -7.4009,1.80866 -9.78301,2.69148c-2.52888,0.9372 -5.76896,3.00461 -5.76896,3.00461z" fill="#a5899d"/><path d="M161.1947,171.14049c0,0 5.09767,-0.90411 7.55456,-0.87128c3.13929,0.04193 9.74077,1.10231 9.74077,1.10231l-9.64873,-0.46411z" fill="#adadad"/><path d="M148.80993,171.72835l7.40918,-6.65329l34.96355,0.46703l-0.0092,0.68852c0,0 -30.27409,-0.40438 -34.22036,-0.45709c-0.82541,-0.01101 -8.14317,5.95485 -8.14317,5.95485z" fill="#8a8a8a"/><path d="M195.88972,178.59355l0.13029,-9.75447l0.7469,-7.19255c0,0 1.18078,0.48572 1.72713,1.05656c0.54634,0.57084 0.91468,1.70368 0.91468,1.70368l-1.50617,14.21368z" fill="#9e9e9e"/><path d="M190.49514,174.29034c0,0 -0.88329,-2.13691 -0.99876,-3.72772c-0.15549,-2.14222 0.77369,-7.6485 0.77369,-7.6485l1.9456,-0.2994c0,0 0.74823,0.80184 1.22806,0.6591c0.66155,-0.19682 2.37418,-1.73079 2.37418,-1.73079l-0.67378,12.80945z" fill="#9c9c9c"/><path d="M191.04457,176.12853c-0.76756,-1.11477 -0.50883,-2.48458 -0.50883,-2.48458l4.97341,-7.13458c0,0 1.34163,3.90206 1.32938,4.81843c-0.0348,2.60531 0.90817,7.36801 0.90817,7.36801c0,0 -2.98096,0.04393 -4.01386,-0.40854c-1.23883,-0.54267 -1.92069,-1.04397 -2.68827,-2.15876z" fill="#888888"/><path d="M192.83546,175.37814c-0.96146,-2.01278 -1.9123,-6.48892 -0.01419,-10.53071c1.89809,-4.0418 4.28375,-1.87855 4.28375,-1.87855c0,0 0.94733,4.43603 0.91645,6.74867c-0.02813,2.10665 -1.0943,6.56695 -1.0943,6.56695c0,0 -3.13024,1.1064 -4.09169,-0.90639z" fill="#b4b4b4"/><path d="M197.09968,167.73909c-0.01886,1.41094 -5.12937,1.4201 -5.11052,0.00916c0.01886,-1.41094 3.14946,-6.7718 3.96182,-6.76094c0.31462,0.00419 0.95706,0.11465 1.13936,1.17786c0.28841,1.68206 0.0209,4.70941 0.00935,5.57392z" fill="#bbbbbb"/></g><g stroke-width="0"><path d="M132.91189,170.41498c0,0 -5.79037,-4.99512 -5.76535,-6.86835c0.02042,-1.52951 6.05775,-1.572 6.05775,-1.572l7.54364,0.17261l-4.16775,10.72426z" fill="#f399c8"/><path d="M102.36659,171.64879c0,0 -0.94198,-2.11062 -0.67042,-3.1798c0.2997,-1.17993 2.40796,-4.75699 2.40796,-4.75699l23.03858,0.12204l9.01019,8.74429z" fill="#ee96c3"/></g></g><g stroke-width="0"><g><path d="M198.10987,153.20065l0.08256,-6.18127l47.81391,0.63866l-0.08256,6.18127z" fill="#61585b"/><path d="M197.98994,149.9552l0.04421,-3.31006l47.99572,0.6411l-0.04421,3.31006c0,0 -8.64009,-0.11542 -17.51569,-0.23396c-2.77501,-0.03706 -6.69664,1.42793 -9.26082,1.39367c-3.04912,-0.04072 -6.29899,-1.60152 -8.25486,-1.62764c-5.86478,-0.07833 -12.96435,-0.17317 -12.96435,-0.17317z" fill="#494344"/><path d="M259.9,144.17634l-9.07963,-19.05592l20.91738,0.27942l15.20315,16.97887c0,0 -5.72784,1.28501 -8.96302,1.50007c-4.99219,0.33187 -18.07787,0.29758 -18.07787,0.29758z" fill="#5e555b"/><path d="M259.85622,147.61116l0.07396,-5.53799c0,0 12.31679,-1.28874 17.2189,-2.00295c3.89045,-0.56682 6.70363,-1.11135 6.70363,-1.11135l5.84618,7.01749c0,0 -5.35328,1.52477 -9.50669,1.91326c-5.62773,0.52637 -20.33599,-0.27842 -20.33599,-0.27842z" fill="url(#color-5)"/><path d="M249.12354,125.25657l0.05338,-3.99582l19.1498,0.25579l3.58267,4.04439z" fill="url(#color-6)"/><path d="M259.27219,147.62832l0.01682,-1.25912c0,0 15.60934,0.13209 20.9976,0.03651c4.0291,-0.07146 8.47023,-1.58912 8.47023,-1.58912l0.87353,1.1565l-8.24901,1.95052z" fill="#312c30"/><g><path d="M158.40313,135.67939l-0.10812,-8.8606l93.91696,1.25448l7.48916,11.38285z" fill="#8a6672"/><path d="M174.83026,144.18521c0,0 -3.47109,-3.65245 -6.25599,-5.15138c-2.78492,-1.49893 -9.84866,-1.35581 -9.84866,-1.35581l0.14007,-2.08541c0,0 12.3185,0.44098 19.34593,0.63007c16.78756,0.45168 80.94402,2.06836 80.94402,2.06836l3.53515,6.61483z" fill="#755761"/><path d="M177.64523,146.71396l-2.99053,-2.63198l87.58508,0.68049l1.16422,3.09696z" fill="#694e57"/><path d="M158.12498,127.2127l0.0605,-4.52858l90.80714,0.53354l3.77368,5.71214c0,0 2.71031,3.37453 -2.57513,3.27863c-1.66387,-0.03019 -10.73895,-3.52019 -12.407,-3.55045c-16.06428,-0.29146 -79.6592,-1.44525 -79.6592,-1.44525z" fill="#916b77"/><path d="M158.42738,122.68744l-0.08511,-2.52588l89.90264,1.06212l1.01317,2.40601z" fill="#9e7582"/><path d="M232.53743,124.36129c-8.05846,-0.75564 -72.70271,-2.65153 -72.70271,-2.65153l87.84623,1.17339l4.70096,7.50464c0,0 -11.786,-5.27088 -19.84447,-6.02649z" fill="#b38f9a"/></g><path d="M208.51437,147.12345l0.12254,-9.17296l20.21042,0.26995l-0.12254,9.17296z" fill="#3a3336"/><path d="M208.54901,137.95347l0.73673,-1.51278l18.53676,0.24759l0.96471,1.5355z" fill="#4b4246"/><path d="M208.66119,146.626l0.10921,-8.17685c0,0 0.9887,5.27952 3.63165,6.42121c2.64294,1.14169 15.90479,2.01805 15.90479,2.01805z" fill="#332c30"/><path d="M250.3495,127.49697l-3.83952,-6.05183c0,0 1.03175,-0.65296 1.63233,-0.64493c0.6714,0.00897 2.20731,0.69621 2.20731,0.69621l3.83952,6.05183z" fill="#757575"/><path d="M253.30638,132.27151l-5.51877,-8.68673l3.83965,0.0513l5.51877,8.68673z" fill="#5a5a5a"/><path d="M257.46479,138.77658l-5.51877,-8.68673l3.83965,0.0513l5.51877,8.68673z" fill="#505050"/><path d="M261.7642,145.51432c-0.9426,-1.48367 -4.62043,-7.27272 -4.62043,-7.27272l3.83965,0.0513l6.47537,10.41394c0,0 -2.06278,0.508 -3.01201,0.48049c-0.74042,-0.02146 -2.26695,-3.0188 -2.68259,-3.67301z" fill="#3b3b3b"/><path d="M156.82647,138.25673l0.24942,-18.67308l3.18068,0.04248l-0.24942,18.67308z" fill="#443e42"/><path d="M137.93063,139.60342l-0.60648,-5.93664l20.22676,0.27017l-0.07917,5.92748z" fill="url(#color-7)"/><path d="M137.31575,134.29734l0.14487,-10.84603l20.22676,0.27017l-0.14487,10.84603z" fill="#5e555b"/><path d="M137.45893,123.57761l0.85551,-4.15116l19.42682,0.25949l-0.05559,4.16184z" fill="url(#color-8)"/><path d="M207.8062,120.55192l0.08192,-6.13277l15.00665,1.26721l4.5589,4.77242z" fill="#5e555b"/><path d="M227.44893,120.81429l-4.55533,-5.03908c0,0 3.00671,0.73084 5.2214,1.75878c2.21472,1.02793 5.82222,3.36695 5.82222,3.36695z" fill="#776b73"/><path d="M204.76881,121.66699l3.21634,-1.2016l25.60128,0.07527l3.62393,1.55966z" fill="#6d6269"/></g><g><path d="M210.01381,143.17301c0.01668,-1.24873 0.54243,-2.39851 0.94475,-3.42281c0.56059,-1.4273 1.17891,-2.60696 2.48387,-3.43579c0.79709,-0.50626 1.93945,-0.88045 2.93153,-1.10758c0.65617,-0.15021 1.66056,-0.53691 2.36353,-0.52752c1.59355,0.02128 1.93475,0.10758 3.07776,0.61892c0.68852,0.30801 2.32183,0.77898 2.84779,1.4582c0.44517,0.57488 0.90826,1.52969 1.24084,2.21383c0.56836,1.16917 1.34585,3.04423 1.32731,4.43273c-0.00784,0.58678 -0.51762,1.91854 -0.57417,2.4333c-0.17951,1.6342 -0.18706,2.14375 -1.41517,3.23093c-0.74643,0.66077 -2.26087,1.18842 -3.25004,1.58523c-1.02442,0.41095 -2.3117,1.25989 -3.48428,1.24423c-0.79144,-0.01058 -2.21225,-0.56458 -2.97715,-0.71102c-1.65947,-0.31767 -2.54915,-0.504 -3.56332,-1.65783c-0.86969,-0.98944 -1.10897,-2.59111 -1.45503,-3.95346c-0.18178,-0.71572 -0.50853,-1.62783 -0.4982,-2.40137z" fill="#3a3a3a"/><path d="M210.74635,143.06417c0.01526,-1.14269 0.49638,-2.19486 0.86455,-3.13217c0.51301,-1.30611 1.0788,-2.3856 2.27298,-3.14409c0.72941,-0.46327 1.77479,-0.80569 2.68263,-1.01353c0.60045,-0.13746 1.51959,-0.49131 2.16283,-0.48272c1.45826,0.01948 1.77048,0.09845 2.81645,0.56636c0.63005,0.28186 2.1247,0.71284 2.60602,1.33437c0.40737,0.52608 0.83114,1.39983 1.13549,2.02585c0.5201,1.06991 1.23157,2.78577 1.21462,4.05635c-0.00718,0.53695 -0.47368,1.75565 -0.52541,2.22669c-0.16427,1.49545 -0.17119,1.96174 -1.29502,2.9566c-0.68308,0.60466 -2.06892,1.0875 -2.97409,1.45062c-0.93744,0.37605 -2.11542,1.15293 -3.18846,1.1386c-0.72423,-0.00967 -2.02442,-0.51665 -2.72437,-0.65062c-1.51857,-0.2907 -2.33271,-0.46122 -3.26078,-1.51707c-0.79585,-0.90544 -1.01481,-2.37111 -1.33148,-3.6178c-0.16636,-0.65496 -0.46535,-1.48962 -0.4559,-2.19747z" fill="#5a5a5a"/><path d="M222.99775,138.69804c-2.01289,-2.41287 -7.10325,-2.6815 -7.10325,-2.6815c0,0 1.94932,-0.51401 3.93921,-0.48051c1.61188,0.02714 3.17922,0.41256 4.32129,1.72895c1.14299,1.31745 1.51701,2.80728 1.78515,4.20644c0.52573,2.74325 0.05597,5.12999 0.05597,5.12999c0,0 -0.98547,-5.4905 -2.99837,-7.90336z" fill="#6d6d6d"/><path d="M217.60425,143.6453c0.00769,-0.57566 0.48058,-1.03609 1.05625,-1.02841c0.57566,0.00769 1.03609,0.48058 1.02841,1.05625c-0.00769,0.57566 -0.48058,1.03609 -1.05625,1.02841c-0.57566,-0.00769 -1.03609,-0.48058 -1.02841,-1.05625z" fill="#272727"/><path d="M217.52342,143.78105c0.00706,-0.52798 0.44077,-0.95029 0.96876,-0.94324c0.52798,0.00706 0.95029,0.44077 0.94324,0.96876c-0.00706,0.52798 -0.44077,0.95029 -0.96876,0.94324c-0.52798,-0.00706 -0.95029,-0.44077 -0.94324,-0.96876z" fill="#131313"/></g></g></g></g></g><path d="M127.1962,252.47235c0.02117,-1.58453 -3.66765,-44.26361 -3.14997,-45.932c0.69896,-2.25265 9.16131,-0.78885 12.14535,-2.25693c9.13904,-4.49622 19.01245,-8.95183 19.01245,-8.95183c0,0 14.05934,0.76832 18.29546,0.82492c3.16784,0.04232 64.59457,-7.62823 65.19806,2.70231c0.81858,14.01213 -42.5488,1.71341 -42.71082,13.84296c-0.04103,3.07065 2.36587,3.29832 1.75818,6.43768c-0.14586,0.75348 -2.56653,5.90048 -2.81324,7.5734c-0.39162,2.65556 2.84978,6.70173 -0.50149,9.7565c-2.67142,2.43509 -0.80664,7.4773 -1.46158,8.68429c-4.51332,8.31741 -12.79064,4.40209 -21.80271,4.28172c-10.68507,-0.14272 -26.28351,3.37259 -35.64975,2.01003c-4.04305,-0.58818 -8.38156,5.6393 -8.31994,1.02696z" fill="#86c8f5" stroke-width="0"/><path d="M381.23132,201.26958c4.96144,0.69509 5.38224,7.07116 3.70158,14.42753c-1.68066,7.35634 -6.06282,12.82392 -9.78782,12.21217c-3.72499,-0.61175 -5.38224,-7.07116 -3.70158,-14.42753c1.68066,-7.35634 4.0719,-13.01296 9.78782,-12.21217z" data-paper-data="{&quot;index&quot;:null}" fill="#86c8f5" stroke-width="0"/><path d="M360.00481,212.43239c1.70042,-7.35239 3.62228,-11.31909 9.33602,-10.50487c4.95957,0.70675 5.84781,5.39954 4.14738,12.75191c-1.70042,7.35239 -6.09726,12.80962 -9.8206,12.18914c-3.72334,-0.6205 -5.36324,-7.08379 -3.6628,-14.43617z" data-paper-data="{&quot;index&quot;:null}" fill="#86c8f5" stroke-width="0"/><path d="M348.4813,216.93378c1.73461,-7.3454 4.39121,-14.10061 10.10112,-13.26316c4.95623,0.72691 5.10632,8.21961 3.37171,15.565c-1.73461,7.3454 -5.84271,8.91902 -9.56312,8.28339c-3.72043,-0.63563 -5.64432,-3.23983 -3.90972,-10.58523z" data-paper-data="{&quot;index&quot;:null}" fill="#86c8f5" stroke-width="0"/><path d="M346.19229,206.4989c4.95623,0.72691 5.82264,5.42327 4.08803,12.76865c-1.73461,7.3454 -5.84271,8.91902 -9.56312,8.28339c-3.72043,-0.63563 -5.64432,-3.23983 -3.90972,-10.58523c1.73461,-7.3454 3.6749,-11.30425 9.3848,-10.46681z" data-paper-data="{&quot;index&quot;:null}" fill="#86c8f5" stroke-width="0"/><g stroke-width="0"><g><path d="M122.84255,269.87514l0.07455,-5.58142c0,0 2.23877,0.20796 3.10614,-0.74421c1.22542,-1.34522 3.76754,-6.45157 3.76754,-6.45157l0.52555,8.10151c0,0 -3.12259,3.15706 -4.67287,4.03386c-1.11929,0.63303 -2.8009,0.64182 -2.8009,0.64182z" fill="#4d484c"/><g><g><path d="M82.26197,257.98207l4.17228,-5.50683c0,0 16.02056,-8.7356 22.68222,-12.5385c5.12434,-2.9253 13.30647,-7.7672 13.30647,-7.7672l2.28254,26.37943z" fill="#eb59c1"/><path d="M83.87414,246.87849l-0.19444,-29.2792c0,0 19.00932,9.01581 25.85034,12.06418c4.96426,2.21209 11.89358,11.56852 11.89358,11.56852l-5.93638,6.0688z" fill="#dd54b6"/><path d="M82.63732,229.88156l0.69934,-30.43835c0,0 12.38021,13.91239 17.00026,14.73986c6.84601,1.22617 19.70966,-1.36779 19.70966,-1.36779l-0.34799,26.05154z" fill="#ff77d8"/><path d="M85.15107,217.03342l0.18767,-14.05028l33.40849,-2.48141l2.11494,17.00868z" fill="#ee51c1"/></g><g><g><path d="M79.76512,247.44205l-4.49534,-40.87022l8.40059,0.11222l4.49534,40.87022z" fill="#a59da1"/><path d="M75.23199,206.76192c0,0 -0.71496,-4.50213 1.09983,-5.75979c1.81479,-1.25768 6.89992,-1.44299 6.89992,-1.44299l0.41455,7.31519z" fill="#b9b0b5"/><path d="M81.40283,258.10994l-1.5787,-10.69487l8.36045,0.11168l1.5787,10.69487z" fill="#8b8488"/></g><g><path d="M119.99856,244.5824l-4.49533,-40.87021l4.53878,0.06063l4.49534,40.87021z" fill="#a59da1"/><path d="M115.64938,204.71158l-0.72865,-6.45151c0,0 2.94356,-0.64115 3.98364,0.52256c1.04009,1.1637 1.11355,5.18046 1.11355,5.18046z" fill="#b9b0b5"/><path d="M121.62377,255.25022l-1.5787,-10.69487l4.51116,0.06025l1.57871,10.69487z" fill="#8b8488"/></g><path d="M82.24746,266.69798c0,0 -3.23324,-2.7862 -3.61106,-4.27599c-0.42057,-1.65839 1.20219,-5.22288 1.20219,-5.22288l47.72178,-3.75782c0,0 1.98276,2.36056 2.38438,3.85241c0.56291,2.09104 -3.71198,6.94893 -3.71198,6.94893z" fill="#494547"/><path d="M83.50439,203.49427c0,0 -2.30859,-0.59821 -2.73159,-1.17819c-0.46451,-0.63689 0.84547,-2.70217 0.84547,-2.70217c0,0 12.05648,-0.851 17.33746,-1.10264c6.15643,-0.29335 16.59109,-0.33781 16.59109,-0.33781c0,0 0.5147,1.2309 0.42138,1.8271c-0.09037,0.5774 -0.56936,1.70089 -0.56936,1.70089z" fill="#c2b8bd"/><path d="M82.61889,265.48212c0,0 -1.19681,-2.85153 -1.41651,-4.53022c-0.18234,-1.39314 0.17334,-3.64595 0.17334,-3.64595l44.89605,-3.45747c0,0 1.98611,3.17975 1.9639,4.84229c-0.02385,1.78603 -2.08641,4.32991 -2.08641,4.32991z" fill="#6f696b"/><path d="M93.66751,271.0599l0.07455,-5.58141l29.81224,-1.20672l-0.07455,5.58141z" fill="#333032"/><path d="M82.13403,271.02729c-1.10198,-0.6627 -2.76225,-2.15075 -2.76225,-2.15075l-0.77864,-6.83036c0,0 2.44313,2.30522 3.63219,3.6827c0.84162,0.97499 11.56562,-0.36125 11.56562,-0.36125l-0.07455,5.58141c0,0 -10.48039,0.74096 -11.58236,0.07824z" data-paper-data="{&quot;index&quot;:null}" fill="#444043"/><g><path d="M82.61009,218.45185c0,0 -2.52118,-4.77623 -2.52421,-6.51863c-0.00209,-1.20633 2.50776,-2.93217 2.50776,-2.93217l35.09922,-2.55586c0,0 1.55185,3.14487 1.55456,4.70244c0.00277,1.59194 -1.53813,4.74835 -1.53813,4.74835z" fill="#979797"/><path d="M82.67776,217.38659c0,0 -2.54938,-4.23167 -2.56297,-5.76979c-0.00941,-1.06495 2.48918,-2.57323 2.48918,-2.57323l35.07266,-2.04319c0,0 1.57045,2.78562 1.58261,4.16066c0.01243,1.40533 -1.50881,4.18239 -1.50881,4.18239z" fill="#a2a2a2"/></g><g><path d="M84.76974,235.02184c0,0 -2.52118,-4.77623 -2.52421,-6.51863c-0.00209,-1.20633 2.50776,-2.93217 2.50776,-2.93217l35.09922,-2.55586c0,0 1.55185,3.14487 1.55456,4.70244c0.00277,1.59194 -1.53813,4.74834 -1.53813,4.74834z" fill="#979797"/><path d="M84.8374,233.9566c0,0 -2.54937,-4.23167 -2.56296,-5.76979c-0.00942,-1.06494 2.48917,-2.57323 2.48917,-2.57323l35.07266,-2.04318c0,0 1.57045,2.78562 1.58261,4.16066c0.01242,1.40533 -1.50881,4.18239 -1.50881,4.18239z" fill="#a2a2a2"/></g><g><path d="M87.02978,252.08844c0,0 -2.52118,-4.77623 -2.52421,-6.51863c-0.00209,-1.20633 2.50776,-2.93217 2.50776,-2.93217l35.09922,-2.55586c0,0 1.55185,3.14487 1.55456,4.70244c0.00277,1.59194 -1.53813,4.74834 -1.53813,4.74834z" fill="#7a7a7a"/><path d="M87.09742,251.02322c0,0 -2.54938,-4.23167 -2.56297,-5.7698c-0.00942,-1.06494 2.48917,-2.57322 2.48917,-2.57322l35.07267,-2.04319c0,0 1.57044,2.78562 1.58261,4.16066c0.01242,1.40533 -1.50881,4.1824 -1.50881,4.1824z" fill="#929292"/></g></g></g></g><path d="M80.32808,251.4038c0,0 -0.36258,-1.72145 -0.63649,-4.03593c-0.80418,-6.79511 -4.66202,-40.7357 -4.66202,-40.7357l3.11022,4.34491l3.00248,29.46747z" fill="#777275"/></g></g></g></svg>