<svg version="1.1" xmlns="http://www.w3.org/2000/svg" xmlns:xlink="http://www.w3.org/1999/xlink" width="467.66563" height="160.10976" viewBox="0,0,467.66563,160.10976"><defs><linearGradient x1="463.64309" y1="177.97167" x2="463.70702" y2="182.78285" gradientUnits="userSpaceOnUse" id="color-1"><stop offset="0" stop-color="#1f1d20"/><stop offset="1" stop-color="#202022"/></linearGradient><linearGradient x1="464.01812" y1="173.1112" x2="464.09167" y2="178.64693" gradientUnits="userSpaceOnUse" id="color-2"><stop offset="0" stop-color="#302d31"/><stop offset="1" stop-color="#1f1e20"/></linearGradient><linearGradient x1="129.90183" y1="225.62485" x2="129.94687" y2="229.01458" gradientUnits="userSpaceOnUse" id="color-3"><stop offset="0" stop-color="#585758"/><stop offset="1" stop-color="#575758"/></linearGradient><linearGradient x1="116.92367" y1="235.87668" x2="116.95902" y2="238.5378" gradientUnits="userSpaceOnUse" id="color-4"><stop offset="0" stop-color="#363536"/><stop offset="1" stop-color="#353536"/></linearGradient><linearGradient x1="259.04457" y1="141.17856" x2="259.11815" y2="146.71657" gradientUnits="userSpaceOnUse" id="color-5"><stop offset="0" stop-color="#5e555b"/><stop offset="1" stop-color="#2b2629"/></linearGradient><linearGradient x1="249.01329" y1="120.64307" x2="249.06638" y2="124.6389" gradientUnits="userSpaceOnUse" id="color-6"><stop offset="0" stop-color="#72676e"/><stop offset="1" stop-color="#5e555b"/></linearGradient><linearGradient x1="136.25119" y1="136.04137" x2="136.32994" y2="141.96886" gradientUnits="userSpaceOnUse" id="color-7"><stop offset="0" stop-color="#5e555b"/><stop offset="1" stop-color="#4d454a"/></linearGradient><linearGradient x1="136.06185" y1="121.79033" x2="136.11714" y2="125.95218" gradientUnits="userSpaceOnUse" id="color-8"><stop offset="0" stop-color="#74686f"/><stop offset="1" stop-color="#5e555b"/></linearGradient></defs><g transform="translate(-1.07759,-115.05517)"><g data-paper-data="{&quot;isPaintingLayer&quot;:true}" fill-rule="nonzero" stroke="none" stroke-linecap="butt" stroke-linejoin="miter" stroke-miterlimit="10" stroke-dasharray="" stroke-dashoffset="0" style="mix-blend-mode: normal"><path d="M391.1627,186.19433c0.42711,8.66298 -4.41077,14.09238 -24.54671,15.08517c-7.46885,0.36824 -20.40833,-0.56884 -26.23072,0.42398c-4.32722,0.73786 -7.92159,3.13184 -10.76428,1.38418c-3.64428,-2.24045 -4.5,-22.07347 -4.65098,-25.13503c-0.42711,-8.66298 8.82402,-4.65366 28.95997,-5.64645c20.13596,-0.9928 36.80562,5.22513 37.23273,13.88813z" fill="#86c8f5" stroke-width="0"/><path d="M392.40352,171.65918c4.94598,0.84016 5.23352,7.66616 3.39949,15.49927c-1.83404,7.83313 -6.32958,13.59386 -10.04108,12.86698c-3.7115,-0.72688 -5.23351,-7.66616 -3.39948,-15.49927c1.83404,-7.83313 4.34296,-13.83488 10.04107,-12.86698z" data-paper-data="{&quot;index&quot;:null}" fill="#86c8f5" stroke-width="0"/><path d="M367.20154,183.76908c1.94569,-7.80615 3.99935,-11.98622 9.68304,-10.93704c4.93349,0.91069 5.66423,5.95487 3.71856,13.76102c-1.94569,7.80616 -6.52303,13.5021 -10.22377,12.7223c-3.70074,-0.7798 -5.12352,-7.74009 -3.17784,-15.54622z" data-paper-data="{&quot;index&quot;:null}" fill="#86c8f5" stroke-width="0"/><path d="M354.20812,188.53656c1.94569,-7.80615 4.79601,-14.95648 10.47969,-13.90729c4.93349,0.91069 4.86759,8.92508 2.92191,16.73121c-1.94569,7.80615 -6.09762,9.37778 -9.79839,8.59798c-3.70075,-0.77981 -5.5489,-3.61576 -3.60322,-11.42191z" data-paper-data="{&quot;index&quot;:null}" fill="#86c8f5" stroke-width="0"/><path d="M352.22071,177.31901c4.93349,0.91069 5.66423,5.95487 3.71856,13.76102c-1.94569,7.80615 -6.09762,9.37779 -9.79839,8.59798c-3.70075,-0.77981 -5.5489,-3.61577 -3.60322,-11.42192c1.94569,-7.80615 3.99935,-11.98623 9.68304,-10.93704z" data-paper-data="{&quot;index&quot;:null}" fill="#86c8f5" stroke-width="0"/><g><path d="M378.56607,205.55949c0.11523,8.67276 -4.91484,13.9246 -25.07346,14.19244c-7.47727,0.09935 -20.37468,-1.30256 -26.22901,-0.51983c-4.35096,0.58173 -8.02914,2.84485 -10.80711,0.99609c-3.56134,-2.37008 -3.7031,-22.22106 -3.74382,-25.28606c-0.11523,-8.67276 8.98573,-4.33325 29.14435,-4.60109c20.15862,-0.26784 36.59383,6.54569 36.70905,15.21845z" fill="#86c8f5" stroke-width="0"/><g><g stroke-width="0"><path d="M191.08493,209.8191l-10.43314,-15.208l25.56535,-0.92993c0,0 -1.02094,5.8429 -1.18495,8.54383c-0.15866,2.61271 0.21637,7.4059 0.21637,7.4059z" fill="#7f7d7e"/><path d="M191.18592,210.0145l-3.71375,-5.55807c0,0 2.4056,3.52344 5.6496,4.09507c2.336,0.41163 4.21786,0.07667 6.90335,0.36182c2.68548,0.28515 5.12771,0.91562 5.12771,0.91562z" fill="#6c6a6b"/></g><g><g><g><path d="M460.71618,182.82259l-2.12273,-4.78381c0,0 6.01299,1.57812 8.622,2.43639c2.60901,0.85829 1.08576,2.01474 1.08576,2.01474z" fill="url(#color-1)" stroke-width="0"/><path d="M467.60501,173.26318c0,0 1.51044,2.30794 -1.07485,3.23522c-2.58529,0.9273 -5.47181,2.18883 -5.47181,2.18883l-1.04412,-5.52285z" data-paper-data="{&quot;index&quot;:null}" fill="url(#color-2)" stroke-width="0"/><path d="M451.09909,182.94579l-0.02788,-2.09817l14.77125,-0.19626c0,0 1.26801,0.77753 1.76066,1.13728c0.44285,0.32339 -0.72267,0.94747 -0.72267,0.94747z" fill="#444444" stroke-width="NaN"/><path d="M451.10682,180.99057l-1.21387,-1.73791l12.61456,-0.16761l3.41553,1.59683c0,0 -4.21434,0.29403 -6.5187,0.34203c-2.59886,0.05414 -8.29751,-0.03335 -8.29751,-0.03335z" fill="#535353" stroke-width="0"/><path d="M449.78265,179.39085l-0.33321,-0.63563l11.47279,-0.15244l1.69233,0.50327z" fill="#363636" stroke-width="0"/><path d="M451.09909,182.94579l-0.01512,-1.13826c0,0 6.45907,0.36783 9.33859,0.32958c2.44017,-0.03242 6.8397,-0.54453 6.8397,-0.54453c0,0 0.8702,0.45071 1.12019,0.65029c0.21087,0.16835 -0.24237,0.4765 -0.24237,0.4765c0,0 -4.72695,0.46733 -7.04049,0.49807c-3.12128,0.04147 -10.00048,-0.27165 -10.00048,-0.27165z" fill="#3a3a3a" stroke-width="NaN"/><path d="M449.77056,178.76923l-0.56521,-0.8763l13.64042,-0.18123l-1.80924,0.94174z" fill="#242424" stroke-width="0"/><path d="M448.39989,178.09288l-0.02197,-1.65416c0,0 8.08988,-0.31369 11.08536,-0.3535c2.04085,-0.02712 5.14971,0.13779 5.14971,0.13779l-1.7937,1.51333z" fill="#3a3a3a" stroke-width="0"/><path d="M448.24894,176.48298l-0.02713,-2.04237c0,0 7.64821,-0.43155 10.96219,-0.47558c2.86772,-0.0381 7.77722,0.2266 7.77722,0.2266l-2.39086,2.0745c0,0 -3.6557,-0.03392 -5.89991,-0.00409c-2.98312,0.03964 -10.42153,0.22095 -10.42153,0.22095z" fill="#444444" stroke-width="0"/><path d="M448.17976,174.52627l-0.01131,-0.85099c0,0 7.87149,-0.22831 11.46838,-0.27609c2.5046,-0.03328 8.04823,0.01679 8.04823,0.01679l-0.85366,0.86249c0,0 -5.05739,-0.22149 -8.02233,-0.1821c-3.26662,0.0434 -10.62934,0.42992 -10.62934,0.42992z" fill="#535353" stroke-width="0"/><path d="M448.04006,173.76213l-0.00452,-0.34041c0,0 7.66893,-0.60898 11.12895,-0.65495c2.99152,-0.03975 8.43086,0.39507 8.43086,0.39507l0.04211,0.3399c0,0 -6.01055,-0.08511 -9.2553,-0.04199c-3.28715,0.04367 -10.34209,0.30237 -10.34209,0.30237z" fill="#4e4e4e" stroke-width="0"/></g><g stroke-width="0"><g><g><g><path d="M445.23937,182.53559l-4.7563,-13.10161l0.53009,-1.72855c0,0 3.5174,3.18277 4.47278,5.66066c0.51867,1.34525 1.20784,9.15015 1.20784,9.15015z" fill="#383638"/><path d="M446.28125,181.83026c0,0 0.05025,-0.61043 -0.61094,-3.05673c-0.72105,-2.66782 -2.16169,-6.28605 -2.56906,-7.3547c-0.91444,-2.39877 -1.67101,-2.51921 -1.67101,-2.51921l4.79184,-0.64554l5.14962,13.50853z" fill="#555355"/><path d="M441.49538,168.98412l-0.5982,-1.22851c0,0 2.00938,-0.82677 2.97093,-0.83954c0.90101,-0.01197 2.04585,0.70015 2.04585,0.70015l0.59916,1.30124z" fill="#686668"/></g><path d="M439.56714,182.61094l-4.7563,-13.1016l0.19958,-1.70398c0,0 3.84793,3.15821 4.8033,5.63611c0.51866,1.34524 1.20784,9.15015 1.20784,9.15015z" fill="#383638"/><path d="M440.60902,181.90563c0,0 0.05025,-0.61044 -0.61093,-3.05673c-0.72105,-2.66782 -2.16169,-6.28605 -2.56906,-7.3547c-0.91444,-2.39877 -1.67101,-2.51921 -1.67101,-2.51921l4.03526,-1.13553c0,0 1.04268,1.24051 1.3214,1.97165c0.7941,2.08308 4.5848,12.02688 4.5848,12.02688z" fill="#555355"/><path d="M435.82316,169.05948l-0.81636,-1.22563c0,0 2.22753,-0.82966 3.18909,-0.84244c0.90101,-0.01197 1.75495,0.70401 1.75495,0.70401l0.72414,1.29959z" fill="#686668"/><path d="M447.0863,180.82572c-0.01089,-0.81945 0.64458,-1.49257 1.46403,-1.50345c0.81945,-0.01089 1.49257,0.64458 1.50345,1.46403c0.01089,0.81945 -0.64458,1.49257 -1.46403,1.50345c-0.81945,0.01089 -1.49257,-0.64458 -1.50345,-1.46403z" fill="#312f31"/><path d="M447.70295,177.88801l-2.07289,-5.51946l1.5893,-0.16447l2.07374,5.58397z" fill="#444144"/></g><path d="M400.17211,178.16746l-3.90816,-10.77256l29.89535,0.77937l-0.34239,9.65246z" fill="#444444"/><path d="M412.75987,174.08438c0,0 0.62897,-0.53036 1.33654,-1.64473c0.64694,-1.01891 1.35852,-2.60639 1.737,-3.07521c0.9525,-1.71928 3.33706,-1.28411 3.33706,-1.28411l-0.97083,0.66603l-4.297,5.32285z" fill="#292929"/><path d="M415.69884,184.57572l-6.65947,-10.88391c0,0 3.50549,0.48479 5.19504,-0.58685c1.31292,-0.83275 1.18379,-3.46326 2.75729,-3.76509c4.51445,-0.86597 17.38208,-1.47087 17.38208,-1.47087c0,0 3.3348,7.10129 4.30031,9.97577c0.66656,1.98445 1.13691,6.41058 1.13691,6.41058z" fill="#4a464a"/><path d="M419.66147,171.41334c-4.56886,-0.57542 -3.1463,-1.95838 -3.1463,-1.95838c0,0 0.77536,-1.31265 2.64058,-1.48359c4.57721,-0.4195 13.22717,0.04253 14.94891,-0.006c0.81198,-0.02289 0.35578,0.69111 0.35578,0.69111c0,0 -1.45752,2.40554 -3.00466,2.68016c-1.54714,0.27462 -7.22546,0.65212 -11.79432,0.0767z" fill="#5e595e"/></g><g><path d="M403.98329,191.30723l-5.39912,-17.86533l18.90992,0.03509l4.85652,4.26419l6.09737,-0.17955l3.14577,13.37873z" fill="#4d4846"/><path d="M408.67856,191.632l20.52962,-9.66513l22.31648,-0.53896c0,0 1.36747,4.16505 1.5284,5.51764c0.08203,0.68959 -0.11583,2.94589 -0.11583,2.94589z" fill="#423d3b"/><path d="M404.7547,183.37239l-3.31002,-9.80305l0.82044,-0.01091l3.31002,9.80305z" fill="#363332"/><path d="M409.25343,190.8227l-0.01617,-1.21728c0,0 5.23019,-2.61516 14.29428,-2.73559c1.2043,-0.016 5.48605,2.47278 6.6999,2.45666c7.70141,-0.10232 15.23965,-0.20249 18.10749,-0.24059c2.33554,-0.03103 4.70329,-1.3626 4.70329,-1.3626l0.03345,2.51717z" fill="#312e2c"/><path d="M411.45384,178.05213l-1.80476,-4.5918l8.30695,-0.11038l4.21337,4.36573l6.30856,0.11026l-7.56318,2.04938z" fill="#585350"/><path d="M402.06084,185.20321l-0.01499,-1.12811c0,0 7.99539,-3.85015 10.87238,-3.88837c4.33598,-0.05761 16.30625,-0.21665 16.30625,-0.21665l0.01499,1.12811c0,0 -12.17547,0.16177 -16.51136,0.21937c-2.81787,0.03743 -10.66727,3.88564 -10.66727,3.88564z" fill="#2b2827"/></g></g></g><g><g><g><path d="M68.02473,232.29908c0.57043,2.22661 0.29545,4.82002 -0.79197,5.0986c-1.08742,0.27858 -2.57547,-1.86316 -3.14589,-4.08977c-0.57043,-2.22661 -2.81833,-10.76789 -1.73092,-11.04647c1.08742,-0.27858 5.09837,7.81105 5.66878,10.03765z" fill="#615e5f" stroke-width="0"/><g><path d="M109.21592,201.82021c-0.5463,-0.5204 -2.90419,-1.80158 -2.90419,-1.80158l9.88087,-3.01153l-5.90382,7.27908c0,0 -0.52657,-1.94557 -1.07285,-2.46597z" fill="#756a6a" stroke-width="0"/><path d="M100.16759,200.2431l-0.18246,-13.73212l18.45376,-6.11238l0.26039,19.59827z" fill="#8a7c7c" stroke-width="0"/><path d="M60.20768,206.22155l6.42517,-18.22029l34.92847,-0.59742l4.70121,12.60533c0,0 -22.96693,1.88132 -30.6496,2.91766c-3.18915,0.43019 -15.40526,3.29475 -15.40526,3.29475z" fill="#7c787a" stroke-width="0"/><path d="M66.78314,190.40431l-0.16781,-1.47937c0,0 25.92195,-0.34441 34.07107,-0.45269c4.55946,-0.06059 16.06209,-6.58434 16.06209,-6.58434l0.02166,1.62949c0,0 -11.20871,6.50055 -15.61852,6.54448c-8.08589,0.08057 -34.36848,0.34243 -34.36848,0.34243z" fill="#535353" stroke-width="0"/><path d="M28.1404,207.35553l-0.26775,-20.15221c0,0 4.43702,-7.11372 11.65008,-9.50573c8.95887,-2.97096 25.86989,-1.41038 27.94036,-1.43788c1.58885,-0.02111 -12.76808,10.58723 -12.76808,10.58723l0.26775,20.15221z" fill="#8d898b" stroke-width="0"/><path d="M200.4595,158.91913l1.56071,-3.16528l107.55756,-1.2862l0.19591,14.74493c0,0 -37.75274,2.34729 -49.97804,2.09358c-6.0714,-0.126 -59.33614,-12.38704 -59.33614,-12.38704z" fill="#c98cac" stroke-width="0"/><path d="M180.13918,260.19815l-4.71511,-12.8749c0,0 5.21518,5.7707 8.07689,6.80962c1.82325,0.66192 6.05414,0.98752 12.13197,-1.53086c4.89288,-2.02739 9.98793,-7.60637 9.98793,-7.60637l-11.47919,15.01648z" fill="#a08e97" stroke-width="0"/><path d="M269.9976,212.08403l-2.65157,-23.58827l18.52711,-1.64904l0.28161,21.19513c0,0 -6.37399,1.80396 -9.12957,2.53889c-1.26881,0.3384 -7.02757,1.50325 -7.02757,1.50325z" fill="#96858d" stroke-width="0"/><path d="M178.35147,263.96805l-0.0736,-5.53968c0,0 12.08966,1.90808 16.66732,-1.27433c3.09722,-2.1532 33.91903,-42.20021 33.91903,-42.20021c0,0 3.30892,-3.81751 3.27465,-6.6995c-0.01723,-1.44977 0.39715,-5.63435 -0.46502,-7.93447c-0.86988,-2.32067 -3.01632,-2.7505 -3.01632,-2.7505l-5.05204,-13.50635l19.81619,-0.11958l-2.55608,26.60963l3.79192,2.51171c0,0 -9.47446,6.12655 -14.03714,11.14327c-7.13891,7.84934 -30.12245,38.54232 -30.12245,38.54232z" fill="#918189" stroke-width="0"/><path d="M246.82417,212.74468l0.83347,-28.6175l13.7781,0.09272l10.52222,11.86341l-2.02416,16.35432z" fill="#96858d" stroke-width="0"/><path d="M242.32455,214.65382l-2.56412,-4.11206l3.1907,-26.23458l5.07828,-0.1522l-0.29576,28.59314z" fill="#8f8187" stroke-width="0"/><path d="M268.70095,212.55764c0,0 2.66292,-6.70305 1.23844,-12.0954c-0.8202,-3.10488 -5.75687,-5.00919 -6.25967,-6.91261c-0.9605,-3.63602 -2.4464,-9.26096 -2.4464,-9.26096l7.9124,4.25921c0,0 3.50167,7.16788 4.156,11.42108c0.43961,2.85751 -0.95923,9.25266 -1.85125,11.86362c-0.07521,0.22011 -1.25236,0.15248 -1.30178,0.31846c-0.12076,0.40549 0.84646,0.62401 0.84646,0.62401z" fill="#86787e" stroke-width="0"/><path d="M268.95103,190.0505c0,0 -3.14309,-3.91353 -7.83809,-4.82285c-5.31527,-1.02943 -22.42427,-1.03824 -22.42427,-1.03824l157.53504,-16.27617l3.53877,9.25557l8.06519,11.0365c0,0 -100.81717,-1.23214 -121.40371,-0.95862c-6.71766,0.08926 -17.47294,2.80381 -17.47294,2.80381z" fill="#df8db7" stroke-width="0"/><path d="M115.37509,239.37552l-5.27948,-36.2029c0,0 1.63325,-3.77269 2.13154,-3.99501c5.49348,-2.45104 37.3858,-13.52753 42.82838,-13.31355c5.96203,0.23441 -8.99644,12.36279 -8.99644,12.36279c0,0 -14.38163,2.21718 -16.86265,6.50043c-3.36849,5.81536 1.70902,23.10297 1.70902,23.10297z" fill="#c77da3" stroke-width="0"/><path d="M187.39141,208.48713l-1.81728,-2.08131c0,0 6.44407,-8.69294 8.84697,-11.0178c2.48075,-2.40021 5.81141,-3.1646 5.81141,-3.1646l5.96555,2.22313c0,0 -4.48234,-0.44307 -6.82309,1.30447c-2.00943,1.50019 -5.72029,4.62844 -8.47918,7.75771c-2.00688,2.27631 -3.50438,4.9784 -3.50438,4.9784z" fill="#414041" stroke-width="0"/><path d="M66.4499,189.36233l4.64428,-11.75227l48.62414,-0.64604c0,0 -2.83914,4.49362 -5.93234,6.50103c-3.03589,1.97021 -12.45811,5.43388 -12.45811,5.43388z" fill="#979395" stroke-width="0"/><path d="M67.23461,188.20893l3.84435,-11.74164l48.62414,-0.64604c0,0 -2.83914,4.49362 -5.93234,6.50103c-3.03589,1.97021 -12.45811,5.43388 -12.45811,5.43388z" fill="#bdb7ba" stroke-width="0"/><path d="M271.11318,212.84633l-1.87958,-0.48856l16.79192,-4.39827c0,0 -3.53272,2.1045 -6.00585,2.93437c-2.47315,0.82987 -8.9065,1.95247 -8.9065,1.95247z" fill="#887980" stroke-width="0"/><path d="M117.86675,239.80693c0,0 -2.47904,-10.43345 -3.79349,-18.9552c-1.32085,-8.56334 -2.53417,-16.59465 -2.60386,-20.17872c-0.01181,-0.60721 1.50421,-10.55889 1.99702,-11.08691c2.66002,-2.85001 10.50401,4.79004 16.05298,3.61266c8.21616,-1.7433 27.31615,-2.51123 27.31615,-2.51123l-8.38242,5.42252c0,0 -19.40984,3.12329 -21.73301,8.29183c-3.14231,6.99099 4.7051,27.76134 4.7051,27.76134z" fill="#d486ae" stroke-width="0"/><path d="M118.95143,236.27337c0,0 -7.20354,-40.77947 -6.01064,-50.87321c0.55815,-4.72274 -2.91736,-13.78523 -2.91736,-13.78523l50.75534,6.29489l1.63729,16.04965c0,0 -32.08055,-2.66722 -38.34705,3.69053c-4.18311,4.24402 3.0006,32.39413 3.0006,32.39413z" fill="#e490bb" stroke-width="0"/><g stroke-width="0"><path d="M256.52628,171.44613l-0.10993,-8.27414l9.35918,-0.12436l0.10993,8.27414z" fill="#454545"/><path d="M257.3484,170.67036l-0.45365,-7.29271l11.3252,-0.15047l0.09696,7.29746z" fill="#b0b0b0"/><path d="M257.05823,166.18478l-0.26616,-2.82703l11.54185,-0.15336l0.02534,1.90723c0,0 -7.78788,0.42594 -9.48528,0.58714c-0.56717,0.05386 -1.81575,0.48602 -1.81575,0.48602z" fill="#bebebe"/><path d="M268.56299,169.97175c0,0 -5.57416,-2.48151 -5.05299,-6.23646c0.77442,-5.5798 4.90162,-5.15648 4.90162,-5.15648l40.25657,0.79857l0.13366,10.05972z" fill="#9c989a"/><path d="M270.33295,168.6589c0,0 -2.5333,-3.48559 -2.78974,-4.40909c-0.38011,-1.36891 1.5752,-4.35246 1.5752,-4.35246l41.59253,-0.51929l-0.30047,7.49333z" fill="#898587"/><path d="M270.24528,168.85837l-1.04529,-1.92567l38.22836,-0.50792l0.02576,1.93921z" fill="#c1bcbf"/><path d="M270.07902,165.46632c0,0 -1.35139,-1.35015 -1.36384,-2.2874c-0.01165,-0.87672 1.29137,-3.16666 1.29137,-3.16666l38.66326,-0.5137l0.07247,5.45407z" fill="#0d0d0d"/><path d="M270.08934,166.24356c0,0 -1.35941,-1.95387 -1.37186,-2.89111c-0.01165,-0.87672 1.29939,-2.56294 1.29939,-2.56294l38.66326,-0.5137l0.07247,5.45407z" fill="#2e2e2e"/><path d="M265.28905,168.21078c-2.67936,-3.03162 -1.54533,-5.38344 -1.54533,-5.38344c0,0 1.88671,4.08764 3.13404,4.96875c1.47676,1.04317 5.10442,2.36106 5.10442,2.36106l-3.50753,0.1168c0,0 -2.71404,-1.52958 -3.18558,-2.06313z" fill="#7d7a7c"/><path d="M272.69326,166.51867c0,0 -0.9182,-2.2 -0.93339,-3.34345c-0.01336,-1.00515 0.84704,-3.15597 0.84704,-3.15597l4.8229,-0.06408c0,0 -0.43181,2.2099 -0.42027,3.07807c0.01585,1.19319 0.50662,3.42136 0.50662,3.42136z" fill="#555555"/><path d="M281.30917,166.40421c0,0 0.63307,-2.53176 0.61789,-3.6752c-0.01336,-1.00514 -0.70424,-2.82422 -0.70424,-2.82422l5.38285,-0.07151c0,0 -0.39386,1.72047 -0.38232,2.58864c0.01585,1.19319 0.46867,3.91079 0.46867,3.91079z" fill="#555555"/><path d="M290.63501,166.28029c0,0 0.63308,-2.53176 0.6179,-3.6752c-0.01336,-1.00515 -0.70425,-2.82422 -0.70425,-2.82422l5.30286,-0.07046c0,0 -0.39386,1.72047 -0.38232,2.58864c0.01585,1.19319 0.46867,3.91079 0.46867,3.91079z" fill="#555555"/><path d="M300.29748,166.15191c0,0 0.81557,-2.17858 0.80039,-3.32204c-0.01336,-1.00514 -0.88673,-3.17739 -0.88673,-3.17739l5.14288,-0.06833c0,0 0.85403,1.97057 0.86557,2.83875c0.01585,1.19319 -0.7792,3.66067 -0.7792,3.66067z" fill="#555555"/><path d="M272.35007,160.72669l-0.67569,-0.79109l35.55945,-0.47246l-1.52349,0.82031c0,0 -2.82983,0.03759 -5.29182,0.07031c-0.53664,0.00713 -1.55652,-0.30811 -2.36032,-0.29744c-0.77721,0.01033 -1.33071,0.34648 -2.2968,0.35931c-1.50653,0.02002 -3.20633,0.0426 -4.98586,0.06624c-0.73778,0.0098 -1.38479,-0.3652 -2.1419,-0.35513c-0.6732,0.00895 -1.45532,0.40293 -2.13171,0.41192c-1.67873,0.0223 -3.34089,0.04439 -4.90368,0.06515c-0.71765,0.00953 -1.42013,-0.41953 -2.08783,-0.41066c-0.8151,0.01083 -1.58119,0.45941 -2.29535,0.46889c-2.9132,0.0387 -4.86502,0.06464 -4.86502,0.06464z" fill="#474747"/></g><g><path d="M126.03813,229.74975l3.67866,-2.91659c0,0 2.86207,2.77712 5.70774,3.63435c2.51687,0.75818 10.50131,1.24845 10.50131,1.24845l-2.59698,4.38919z" fill="#6d6a6b" stroke-width="0"/><path d="M118.06623,236.35642l9.13255,-7.50717c0,0 3.26443,2.21338 5.4418,2.84641c3.29403,0.95767 12.39929,2.34052 12.39929,2.34052l-4.22015,4.36377z" fill="#615e5f" stroke-width="0"/><path d="M120.35668,258.29534l-1.78304,-22.55135c0,0 4.36437,0.73402 9.18562,0.69957c3.76319,-0.02688 7.79935,-0.9277 10.29099,-0.3524c4.3742,1.00996 38.06147,12.91916 38.06147,12.91916l2.61343,10.14098z" fill="#575455" stroke-width="0"/><path d="M141.58701,230.96896c6.85876,-5.65684 14.74879,-19.21491 15.97286,-21.80279c0.88184,-1.86438 1.49919,-7.14907 1.49919,-7.14907l7.79356,6.71186c0,0 6.12163,20.41723 7.47013,33.04716c0.37732,3.53399 2.94702,7.44537 1.78033,8.92745c-1.04531,1.32789 -17.97468,3.84294 -23.37863,3.14991c-11.37234,-1.45843 -17.12685,1.40778 -20.94131,-3.81732c-3.81448,-5.22511 3.20236,-11.58918 3.20236,-11.58918c0,0 4.81595,-6.00535 6.60153,-7.47803z" fill="#504e4f" stroke-width="0"/><path d="M145.95613,198.08276c0,0 0.37597,-1.4979 1.22409,-2.17274c1.09074,-0.86791 4.77752,-2.60275 4.77752,-2.60275c0,0 9.39358,1.94273 12.43668,4.39251c2.80767,2.26026 -3.3359,12.62397 -3.3359,12.62397l-2.07757,-5.33423z" fill="#464445" stroke-width="0"/><path d="M169.816,244.99739c0,0 -9.20032,6.37857 -17.6817,6.6627c-8.18203,0.2741 -15.65752,-5.51891 -15.56941,-6.94244c0.04774,-0.77126 7.9311,-4.18162 11.35123,-8.44886c3.80182,-4.74346 3.23769,-10.43801 4.56171,-12.46623c3.69632,-5.6623 12.00532,-15.95211 10.86409,-21.98114c-1.19683,-6.32276 -11.94098,-8.25405 -11.94098,-8.25405c0,0 3.82094,-2.30266 8.80447,-2.49878c2.12279,-0.08354 6.68838,1.24177 7.61671,1.61443c3.04419,1.22203 5.05649,2.83169 5.05649,2.83169c0,0 3.59342,-4.92749 7.19111,-5.28477c3.59769,-0.35729 22.46099,2.33996 22.46099,2.33996l-16.04179,12.80824z" fill="#555354" stroke-width="0"/><path d="M152.08947,224.40276c0,0 4.47594,-10.93323 9.13369,-16.43048c4.65775,-5.49726 8.69356,-8.73165 12.22559,-8.77857c2.5577,-0.03398 5.96009,8.53694 5.96009,8.53694l-10.69373,28.91385c0,0 -14.5763,3.47307 -16.0864,1.01225c-1.19267,-1.94357 -0.53925,-13.254 -0.53925,-13.254z" fill="#585758" stroke-width="0"/><path d="M175.00556,251.4004c0,0 -2.96015,-6.15227 -2.67406,-9.17855c0.39964,-4.22768 1.67528,-16.89969 1.67528,-16.89969l2.09516,10.40877c0,0 -0.51092,9.75515 -0.33798,12.783c0.16686,2.92137 1.61889,5.07267 1.61889,5.07267z" fill="#3f3e3f" stroke-width="0"/><path d="M173.83967,233.54906c-0.21767,-1.67207 -0.05327,-9.38584 -0.05327,-9.38584c0,0 9.36379,-14.69367 11.42577,-17.3744c0.6045,-0.78588 3.93683,-2.56123 3.93683,-2.56123l-1.58165,4.87534c0,0 -1.56567,0.62484 -1.73913,1.10503c-0.1848,0.51159 0.66224,1.87627 0.66224,1.87627l-5.01575,8.54749c0,0 -1.63703,1.03241 -1.80948,1.54012c-0.1725,0.50784 0.52689,1.38676 0.52689,1.38676c0,0 -3.73521,8.99168 -4.54553,11.41741c-0.37466,1.12158 -0.12058,2.55095 -0.12058,2.55095c0,0 -1.46867,-2.30588 -1.68632,-3.97795z" fill="#474647" stroke-width="0"/><path d="M160.43618,212.75696l21.16638,7.95479c0,0 -1.17539,1.028 -1.40538,1.57014c-0.16972,0.40005 0.15045,1.38798 0.15045,1.38798z" fill="#3f3e3e" stroke-width="NaN"/><path d="M166.2981,202.32521l21.50366,6.77373c0,0 -1.10371,0.85806 -1.30733,1.41714c-0.21225,0.58283 0.17159,1.65704 0.17159,1.65704z" fill="#3f3e3e" stroke-width="NaN"/><path d="M154.24022,231.16794c0,0 10.79371,7.55026 16.75074,13.44925c5.95702,5.89898 4.03254,7.13148 4.03254,7.13148z" fill="#636162" stroke-width="NaN"/><path d="M167.21953,207.93684c0,0 -5.96152,2.98353 -8.66951,6.11572c-2.70799,3.13219 -10.82623,19.42439 -10.86536,16.47913c-0.03914,-2.94526 12.80617,-23.83889 14.60092,-23.86274c0.6794,-0.00903 3.70022,-1.19153 4.52171,-0.96496c1.34863,0.37197 0.41224,2.23284 0.41224,2.23284z" fill="#918f91" stroke-width="0"/><path d="M119.8988,258.17201l13.9165,-2.07337c0,0 12.59036,-0.49959 15.72884,-0.3862c7.6431,0.2761 30.29631,2.04877 30.29631,2.04877l-0.36299,6.32646c0,0 -24.31144,3.88878 -31.22271,2.66487c-1.99943,-0.35408 -7.8238,-0.8948 -12.09714,-2.19035c-8.36272,-2.5353 -16.25878,-6.39019 -16.25878,-6.39019z" fill="#626061" stroke-width="0"/><path d="M178.46792,263.74918c0,0 -0.0166,-4.2928 -0.49659,-6.6265c-0.5395,-2.62299 -2.58277,-8.3452 -2.58277,-8.3452l1.78216,-0.02368c0,0 1.77823,4.43357 2.26663,6.80814c0.53398,2.5962 0.81273,8.16354 0.81273,8.16354z" fill="#4a494a" stroke-width="0"/><path d="M178.28382,264.58802l0.0431,-3.39804c0,0 0.57022,0.25716 0.8417,0.25355c0.32257,-0.00428 0.92565,-0.27703 0.92565,-0.27703l0.21593,3.17397c0,0 -0.77106,0.41792 -1.14032,0.46302c-0.28294,0.03456 -0.88605,-0.21548 -0.88605,-0.21548z" fill="#363536" stroke-width="0"/><path d="M175.67722,249.79906l-0.40736,-1.61535c0,0 0.41263,-0.35992 0.78031,-0.42403c0.35015,-0.06105 0.87414,0.05474 0.87414,0.05474l0.52465,1.72957c0,0 -0.47504,0.51378 -0.77858,0.55748c-0.28599,0.04117 -0.99314,-0.3024 -0.99314,-0.3024z" fill="#585758" stroke-width="0"/><path d="M136.61793,263.87403c0,0 -7.93368,-2.84767 -7.95179,-4.21058c-0.01819,-1.3697 6.20287,-2.62327 6.20287,-2.62327c0,0 10.93974,-0.38615 15.89858,-0.27943c2.77617,0.05975 11.32167,0.86526 11.32167,0.86526c0,0 7.30517,0.95726 8.13549,2.09802c0.90572,1.24436 -2.92034,4.13708 -2.92034,4.13708c0,0 -12.70538,1.47499 -16.6726,1.31943c-1.40929,-0.05526 -14.01387,-1.30651 -14.01387,-1.30651z" fill="#6b696a" stroke-width="0"/><path d="M126.14416,257.11107l-1.95845,0.25683c0,0 0.5807,-3.4427 3.31698,-2.23674c2.73629,1.20596 21.69513,-0.05746 21.69513,-0.05746z" fill="#4b4949" stroke-width="0"/><path d="M119.96981,258.027c0,0 -1.99504,0.21811 -2.57849,-3.4172c-0.29534,-1.84017 -2.22371,-16.00794 -2.22371,-16.00794l3.69711,-2.94849c0,0 0.76136,5.98414 1.00607,8.8834c0.32545,3.85596 1.02209,13.47795 1.02209,13.47795z" fill="#3f3d3e" stroke-width="0"/><path d="M126.46812,257.27271c0,0 3.16374,-2.20035 19.2142,-2.75076c1.32548,-0.04545 -1.79545,-0.00815 7.6102,0.37422c9.40564,0.38236 13.33364,1.84298 13.33364,1.84298c0,0 -15.07907,-0.86913 -21.28134,-0.78673c-7.06984,0.09394 -18.87672,1.32029 -18.87672,1.32029z" fill="#838082" stroke-width="0"/><path d="M131.12466,227.57604c0,0 -4.34116,2.2453 -6.49456,3.88962c-2.42035,1.84816 -7.32048,6.65946 -7.32048,6.65946l-0.80569,-1.59105c0,0 3.71106,-3.90333 5.90218,-5.57645c2.39563,-1.82927 7.91287,-4.97262 7.91287,-4.97262z" fill="#4a494a" stroke-width="0"/><path d="M132.05515,227.30586l-3.5384,1.72773c0,0 0.0878,-0.64764 -0.03494,-0.89002c-0.14584,-0.28799 -0.68664,-0.68884 -0.68664,-0.68884l3.12039,-1.84333c0,0 0.76154,0.47658 0.96919,0.78534c0.15912,0.2366 0.17037,0.90911 0.17037,0.90911z" fill="url(#color-3)" stroke-width="0"/><path d="M118.21776,237.33469l-2.91442,2.76873l-0.17283,-2.18053l2.05174,-2.04965c0,0 0.72881,0.16044 0.90622,0.41083c0.16715,0.2359 0.1293,1.05061 0.1293,1.05061z" fill="url(#color-4)" stroke-width="0"/></g><path d="M247.95807,211.63306c0,0 0.86862,-4.4306 1.35342,-5.82628c0.3291,-0.94743 2.68327,-2.41049 2.68327,-2.41049l17.01502,-0.44429c0,0 -1.20001,5.8142 -1.5629,7.18542c-0.15897,0.60071 -1.21564,1.3074 -1.21564,1.3074z" fill="#665b60" stroke-width="0"/><path d="M199.10568,194.024c0,0 -3.81462,-1.5119 -8.75797,-2.59857c-3.1425,-0.69082 -7.41964,-1.20077 -9.27908,-1.07028c-5.406,0.37936 -7.85696,5.51727 -7.85696,5.51727c0,0 -3.30373,-2.27208 -5.42253,-3.09867c-1.97782,-0.77161 -6.34383,-1.71463 -6.34383,-1.71463c0,0 24.48964,-5.41711 28.33277,-6.04834c7.36757,-1.21014 34.05162,-1.17326 34.05162,-1.17326l6.41316,14.20176z" fill="#8b7c84" stroke-width="0"/><g stroke-width="0"><path d="M249.40009,210.67105c0,0 0.43701,-2.60231 0.83545,-3.50246c0.41315,-0.93335 2.58271,-2.01468 2.58271,-2.01468l14.52874,-0.19303c0,0 0.39934,0.97774 0.17377,1.71858c-0.3067,1.0073 -3.0465,3.7913 -3.0465,3.7913z" fill="#585852"/><path d="M249.39018,209.92576c0,0 0.4469,-1.85699 0.84535,-2.75713c0.41315,-0.93335 2.57281,-2.76 2.57281,-2.76l14.52874,-0.19303c0,0 0.40924,1.72305 0.18366,2.4639c-0.3067,1.0073 -3.05639,3.04598 -3.05639,3.04598z" fill="#797971"/><path d="M265.57965,204.73455c-1.05114,-0.16401 -12.67629,-0.2809 -12.67629,-0.2809l14.50888,-0.19278l0.0327,2.46161c0,0 -0.81414,-1.82392 -1.86529,-1.98791z" fill="#85857b"/></g><path d="M250.58984,192.48552l-0.06895,-5.1893l7.13528,-0.09481l1.36627,5.17206z" fill="#7c6e75" stroke-width="0"/><path d="M239.81564,166.20275l-4.28437,-8.07506l1.37919,-0.01832l6.22568,8.50092z" fill="#d495b6" stroke-width="0"/><path d="M200.71415,159.09261l13.17684,-3.26502l21.83933,2.32256l4.11013,8.03836z" fill="#df9cbe" stroke-width="0"/><path d="M250.81881,197.51047l-0.02155,-1.62166l10.86509,-0.14436l0.99454,1.60873z" fill="#7c6e75" stroke-width="0"/><path d="M210.08897,185.8964c0,0 -18.11611,1.43923 -23.74176,2.01417c-8.51843,0.87058 -25.55631,3.42243 -25.55631,3.42243c0,0 14.96338,-4.63984 28.44945,-6.33525c14.62236,-1.83827 58.64866,-3.88076 58.64866,-3.88076l0.07186,5.40859z" fill="#75686e" stroke-width="0"/><path d="M203.28769,194.75802l-3.25053,-0.52767c0,0 9.73792,-2.51401 15.08714,-1.82223c5.34923,0.69179 14.69205,5.67342 14.69205,5.67342z" fill="#7c6e76" stroke-width="0"/><path d="M156.78216,191.34537c0,0 -32.55895,-14.9652 -33.51174,-19.57309c-0.86549,-4.18569 29.85034,1.95156 30.14662,1.83938c5.18461,-1.96294 76.96533,-10.13217 76.96533,-10.13217l26.6966,6.43522l52.74965,-1.27235l7.48798,13.47715c0,0 -61.53816,1.98663 -85.30015,2.4654c-8.24843,0.1662 -25.08785,-0.25782 -40.37524,1.08569c-11.79221,1.03633 -29.4196,5.58756 -29.4196,5.58756z" fill="#ee96c3" stroke-width="0"/><path d="M27.82864,205.60314l3.05888,-20.19641c0,0 -0.19527,-7.05217 7.0178,-9.44418c8.95887,-2.97096 25.86989,-1.41038 27.94036,-1.43788c1.58885,-0.02111 -12.76808,10.58723 -12.76808,10.58723l0.26775,20.15221z" fill="#c4b4b3" stroke-width="0"/><g stroke-width="0"><path d="M308.72021,183.61589l-3.05807,-15.10356l92.83845,5.53157l-0.67954,5.81648l-47.35985,5.48682z" fill="#ad6d8e"/><path d="M334.87282,168.93093l7.16219,-8.36862l26.74407,-2.48457l-4.16646,10.45805z" fill="#8d788b"/><path d="M309.41985,170.45786l-0.21569,-16.23386l32.90114,6.34153l-4.48704,6.92921z" fill="#857183"/><path d="M351.79074,166.5737l16.92568,-8.49388l27.88929,3.40245l-0.19446,6.89719z" fill="#947e92"/><path d="M305.24309,169.90477l2.72376,-12.80328l1.40598,-3.08278l0.20013,15.0625z" fill="#756474"/><path d="M309.95671,180.3848l-0.88164,-12.06209l43.28808,-2.22414l-1.01264,16.07193z" fill="#746373"/><path d="M351.34261,182.15514c0,0 0.29617,-6.31195 0.45709,-9.1585c0.13778,-2.43714 0.44985,-6.88406 0.44985,-6.88406l44.20817,0.32179l2.11142,8.37269z" fill="#867284"/><path d="M305.2826,169.83378l4.0069,-1.58427l0.69732,12.14253z" fill="#6f5e6d"/><path d="M389.38964,161.47051l-19.86113,-3.10005l26.77322,3.28096l-0.31649,3.54998c0,0 -0.3344,-1.56499 -1.55199,-2.25374c-0.8145,-0.46074 -5.04362,-1.47717 -5.04362,-1.47717z" fill="#978195"/><path d="M350.10818,165.94623c0,0 7.92789,-3.57091 10.68787,-4.9618c2.01054,-1.0132 4.34793,-2.61542 4.34793,-2.61542l2.53511,0.07894l-14.92249,7.46308z" fill="#9c859a"/><path d="M335.73933,166.94556c0,0 1.27971,-2.76954 2.61193,-4.13763c1.33223,-1.3681 3.6294,-2.21392 3.6294,-2.21392l-3.78002,6.31885z" fill="#806b7d"/><path d="M370.27017,156.31324l2.05698,-5.76117l15.24826,3.53106l5.68453,6.32504z" fill="#55494f"/><path d="M367.77426,159.14676c0,0 1.07184,-0.80451 1.62442,-1.39667c0.41623,-0.44605 1.08577,-1.83963 1.08577,-1.83963l22.3649,3.7032c0,0 0.8744,0.4854 1.46489,0.80325c0.61709,0.33219 2.16137,1.14875 2.16137,1.14875z" fill="#685960"/><path d="M370.81946,155.41368l1.59747,-4.60699l14.18929,3.1386c0,0 -8.02636,-1.42619 -12.50367,-1.11204c-2.5971,0.18223 -3.28307,2.58042 -3.28307,2.58042z" fill="#41383c"/></g><path d="M28.946,166.30472l-0.0692,-5.20787c0,0 22.31735,-1.5917 44.2743,-1.82646c13.08433,-0.13989 26.67423,1.27734 33.59024,0.83531c15.59406,-0.99671 26.00199,-5.64763 26.00199,-5.64763l-6.19862,10.72641z" fill="#ffa1d1" stroke-width="0"/><path d="M26.55369,180.29532l1.94649,-16.10986c0,0 54.81884,1.33234 72.65856,0.65461c10.56752,-0.40146 24.51653,-4.34634 24.51653,-4.34634l0.19453,14.64106c0,0 -67.49506,0.89677 -83.766,1.11296c-6.69,0.08889 -15.19292,30.9295 -15.19292,30.9295z" fill="#ee96c3" stroke-width="0"/><path d="M206.7635,254.3998l9.09855,-13.71798c0,0 9.70709,-15.98764 19.01542,-22.97466c2.36541,-1.77551 7.51858,-3.0406 7.51858,-3.0406c0,0 -7.23701,5.0817 -9.79453,7.90737c-6.03971,6.67297 -25.83801,31.82585 -25.83801,31.82585z" fill="#70646b" stroke-width="0"/><path d="M301.90205,188.28935l-6.53924,-17.91651l1.35001,-0.01794c0,0 1.98042,5.42605 3.02689,8.2932c0.14911,0.40852 1.53019,1.61137 1.71486,2.11736c0.32015,0.87714 -0.5289,1.13199 -0.17108,2.11236c0.99636,2.72989 1.96857,5.39357 1.96857,5.39357z" fill="#795467" stroke-width="0"/><path d="M126.5079,175.55815c0,0 -10.56816,-6.4125 -9.93902,-10.19609c0.37669,-2.26546 17.11215,-10.44064 17.11215,-10.44064l68.5181,0.76188l-1.5954,3.11761l29.71723,4.85403l-71.43658,27.52672c0,0 -0.86587,-5.60282 2.69812,-8.50857c3.46383,-2.8241 18.39391,-8.68796 18.39391,-8.68796c0,0 -34.21504,0.4056 -41.50645,0.41579c-2.43261,0.0034 -11.96209,1.15725 -11.96209,1.15725z" fill="#f399c8" stroke-width="0"/><g><path d="M131.90986,156.86928l-0.04302,-3.23804l176.53809,-2.34558l0.04302,3.23804z" fill="#584f54" stroke-width="0"/><path d="M302.61236,151.61086l-0.03635,-2.73608l3.05498,-0.04058l2.73192,2.70026z" fill="#685d63" stroke-width="0"/><g fill="#685d63" stroke-width="0"><g><g><g><path d="M295.95622,151.9485l-0.03955,-2.97675l3.88079,-0.05156l0.03955,2.97675z"/><path d="M289.65925,152.03217l-0.03955,-2.97675l3.88079,-0.05156l0.03955,2.97675z"/></g><g><path d="M283.59987,152.11269l-0.03955,-2.97675l3.88079,-0.05156l0.03955,2.97675z"/><path d="M277.3029,152.19636l-0.03955,-2.97675l3.88079,-0.05156l0.03955,2.97675z"/></g></g><g><g><path d="M271.12473,152.27844l-0.03955,-2.97675l3.88079,-0.05156l0.03955,2.97675z"/><path d="M264.82774,152.36211l-0.03955,-2.97675l3.88079,-0.05156l0.03955,2.97675z"/></g><g><path d="M258.76838,152.44261l-0.03955,-2.97675l3.88079,-0.05156l0.03955,2.97675z"/><path d="M252.47147,152.52627l-0.03955,-2.97675l3.88079,-0.05156l0.03955,2.97675z"/></g></g></g><g><g><g><path d="M252.23385,152.52944l-0.03955,-2.97675l3.88079,-0.05156l0.03955,2.97675z"/><path d="M245.93686,152.6131l-0.03955,-2.97675l3.88079,-0.05156l0.03955,2.97675z"/></g><g><path d="M239.8775,152.69361l-0.03955,-2.97675l3.88079,-0.05156l0.03955,2.97675z"/><path d="M233.58053,152.77727l-0.03955,-2.97675l3.88079,-0.05156l0.03955,2.97675z"/></g></g><g><g><path d="M227.4024,152.85936l-0.03955,-2.97675l3.88079,-0.05156l0.03955,2.97675z"/><path d="M221.10541,152.94303l-0.03955,-2.97675l3.88079,-0.05156l0.03955,2.97675z"/></g><g><path d="M215.04605,153.02353l-0.03955,-2.97675l3.88079,-0.05156l0.03955,2.97675z"/><path d="M208.74906,153.1072l-0.03955,-2.97675l3.88079,-0.05156l0.03955,2.97675z"/></g></g></g></g><g><g fill="#685d63" stroke-width="0"><g><g><path d="M202.5305,153.18982l-0.03955,-2.97675l3.88079,-0.05156l0.03955,2.97675z"/><path d="M196.23352,153.27349l-0.03955,-2.97675l3.88079,-0.05156l0.03955,2.97675z"/></g><g><path d="M190.17417,153.35399l-0.03955,-2.97675l3.88079,-0.05156l0.03955,2.97675z"/><path d="M183.87723,153.43766l-0.03955,-2.97675l3.88079,-0.05156l0.03955,2.97675z"/></g></g><g><g><path d="M177.69906,153.51975l-0.03955,-2.97675l3.88079,-0.05156l0.03955,2.97675z"/><path d="M171.40207,153.60341l-0.03955,-2.97675l3.88079,-0.05156l0.03955,2.97675z"/></g><g><path d="M165.3427,153.68392l-0.03955,-2.97675l3.88079,-0.05156l0.03955,2.97675z"/><path d="M159.04573,153.76758l-0.03955,-2.97675l3.88079,-0.05156l0.03955,2.97675z"/></g></g></g><g><g fill="#685d63" stroke-width="0"><g><path d="M158.80812,153.77075l-0.03955,-2.97675l3.88079,-0.05156l0.03955,2.97675z"/><path d="M152.51112,153.85441l-0.03955,-2.97675l3.88079,-0.05156l0.03955,2.97675z"/></g><g><path d="M146.45176,153.93492l-0.03955,-2.97675l3.88079,-0.05156l0.03955,2.97675z"/><path d="M140.15483,154.01858l-0.03955,-2.97675l3.88079,-0.05156l0.03955,2.97675z"/></g></g><g fill="none" stroke-width="1" font-family="sans-serif" font-weight="normal" font-size="12" text-anchor="start"><g/><g/></g></g></g><path d="M131.94165,153.87849l2.65922,-2.7719l3.05498,-0.04058l0.03635,2.73608z" data-paper-data="{&quot;index&quot;:null}" fill="#685d63" stroke-width="0"/></g><path d="M189.28458,186.00593l-2.54805,0.30391c0,0 1.64466,-2.58962 11.22397,-3.8447c7.26254,-0.95153 27.8066,-2.53605 40.10594,-3.44531c5.71151,-0.42225 62.08871,-10.17402 62.08871,-10.17402l5.19813,-0.08338c0,0 -61.56882,11.46371 -67.27639,11.86267c-12.62101,0.8822 -33.84182,2.40146 -39.98227,3.06158c-3.3426,0.35935 -8.81005,2.31927 -8.81005,2.31927z" fill="#70475c" stroke-width="0"/><path d="M290.43886,203.69127l-4.89884,1.91105l-0.25079,-18.92972c0,0 7.79142,-0.05512 15.41125,-0.10902c21.87433,-0.15476 127.00383,-0.89849 127.00383,-0.89849l0.08938,6.72667z" fill="#5a5959" stroke-width="0"/><path d="M289.5455,205.33172l1.05088,-3.02029l137.20799,-10.02927l-11.67609,11.36771z" fill="#4b4a4a" stroke-width="0"/><path d="M412.84028,203.5044c0,0 -5.94857,-3.14598 -8.99974,-4.53365c-1.6352,-0.74368 -7.88426,-3.14516 -7.88426,-3.14516c0,0 8.03932,2.7972 11.39623,3.70062c1.19803,0.32243 2.3314,1.05024 3.64234,1.56099c0.4227,0.16468 2.20932,-2.61848 4.08531,-4.35791c0.56071,-0.51991 1.72571,-0.17081 2.24667,-0.50856c1.19425,-0.77428 1.53872,-1.87037 1.53872,-1.87037c0,0 0.34977,0.92501 -0.85291,2.15484c-0.32816,0.33556 -2.12623,0.7118 -2.44685,1.07646c-1.28499,1.46148 -2.26544,3.07374 -2.5627,3.66893c-0.82953,1.66098 1.30051,2.23437 1.30051,2.23437z" fill="#414040" stroke-width="0"/><path d="M126.46289,175.85621l3.66742,-11.14848l6.99719,-0.71732c0,0 -0.91538,2.6606 -1.45486,4.22865c-0.13588,0.39494 11.6312,-1.71773 11.99208,-1.05145c0.66959,1.23618 -4.85207,5.06978 -5.19135,6.05595c-0.38788,1.12741 -9.08633,1.63883 -9.08633,1.63883z" fill="#303030" stroke-width="0"/><path d="M126.31442,175.4881l3.57403,-10.31209c0,0 3.01722,1.26461 3.03031,2.24952c0.02381,1.79201 -1.4782,7.59966 -1.4782,7.59966z" fill="#252525" stroke-width="0"/><path d="M285.55722,208.25806l-0.03923,-2.95212l5.48409,-3.02551l-1.19877,2.96857c0,0 -1.07255,1.34964 -1.81933,1.87887c-0.65708,0.46565 -2.42677,1.13019 -2.42677,1.13019z" fill="#383838" stroke-width="0"/><g><g fill="#4b4b4b" stroke-width="0"><g data-paper-data="{&quot;origPos&quot;:null}"><g data-paper-data="{&quot;origPos&quot;:null}"><path d="M352.71072,208.7369l-0.0302,-2.27252l3.74967,-0.04982l0.0302,2.27252z" data-paper-data="{&quot;origPos&quot;:null}"/><path d="M346.45976,208.70631l-0.0302,-2.27252l3.74967,-0.04982l0.0302,2.27252z" data-paper-data="{&quot;origPos&quot;:null}"/></g><g data-paper-data="{&quot;origPos&quot;:null}"><path d="M365.21114,208.68447l-0.0302,-2.27252l3.74967,-0.04982l0.0302,2.27252z" data-paper-data="{&quot;origPos&quot;:null}"/><path d="M358.96017,208.65387l-0.0302,-2.27252l3.74967,-0.04982l0.0302,2.27252z" data-paper-data="{&quot;origPos&quot;:null}"/></g></g><g data-paper-data="{&quot;origPos&quot;:null,&quot;index&quot;:null}"><g data-paper-data="{&quot;origPos&quot;:null}"><path d="M384.41095,208.20207l-0.0302,-2.27252l3.74967,-0.04982l0.0302,2.27252z" data-paper-data="{&quot;origPos&quot;:null}"/><path d="M390.65889,208.00541l-0.0302,-2.27251l3.74967,-0.04982l0.0302,2.27251z" data-paper-data="{&quot;origPos&quot;:null}"/></g><g data-paper-data="{&quot;origPos&quot;:null}"><path d="M371.91357,208.48176l-0.0302,-2.27252l3.74967,-0.04982l0.0302,2.27252z" data-paper-data="{&quot;origPos&quot;:null}"/><path d="M378.1615,208.28509l-0.0302,-2.27252l3.74967,-0.04982l0.0302,2.27252z" data-paper-data="{&quot;origPos&quot;:null}"/></g></g></g><path d="M309.88321,201.06009l-0.18082,-13.60991l84.46657,-1.12227l0.18082,13.60991z" data-paper-data="{&quot;origPos&quot;:null}" fill="#444444" stroke-width="0"/><path d="M310.04447,205.78057l-0.06354,-4.78204l84.21829,-1.11898l0.06354,4.78204z" data-paper-data="{&quot;origPos&quot;:null}" fill="#414141" stroke-width="0"/><path d="M310.09818,207.20423l-0.02149,-1.6175l84.20759,-1.11883l0.02149,1.6175z" data-paper-data="{&quot;origPos&quot;:null}" fill="#3f3f3f" stroke-width="0"/><g stroke-width="0"><g data-paper-data="{&quot;origPos&quot;:null}" fill="#5a5a5a"><g data-paper-data="{&quot;origPos&quot;:null}"><path d="M353.15212,200.56458l-0.18267,-13.74879l3.57112,-0.04745l0.18267,13.74879z" data-paper-data="{&quot;origPos&quot;:null}"/></g><g data-paper-data="{&quot;origPos&quot;:null}"><path d="M359.22301,200.48391l-0.18267,-13.74879l3.57112,-0.04745l0.18267,13.74879z" data-paper-data="{&quot;origPos&quot;:null}"/><path d="M365.47246,200.40087l-0.18267,-13.74879l3.57112,-0.04745l0.18267,13.74879z" data-paper-data="{&quot;origPos&quot;:null}"/></g></g><g data-paper-data="{&quot;origPos&quot;:null}" fill="#5a5a5a"><g data-paper-data="{&quot;origPos&quot;:null}"><path d="M372.07902,200.3131l-0.18267,-13.74879l3.57112,-0.04745l0.18267,13.74879z" data-paper-data="{&quot;origPos&quot;:null}"/><path d="M378.32846,200.23007l-0.18267,-13.74879l3.57112,-0.04745l0.18267,13.74879z" data-paper-data="{&quot;origPos&quot;:null}"/></g><g data-paper-data="{&quot;origPos&quot;:null}"><path d="M384.39936,200.14941l-0.18267,-13.74879l3.57112,-0.04745l0.18267,13.74879z" data-paper-data="{&quot;origPos&quot;:null}"/><path d="M390.64881,200.06638l-0.18267,-13.74879l3.57112,-0.04745l0.18267,13.74879z" data-paper-data="{&quot;origPos&quot;:null}"/></g></g><path d="M356.78455,200.51632l-0.85309,1.94254l-5.24035,0.11272l-0.26946,-9.79373l2.48891,-5.96128l0.25164,13.74787z" fill="#3a3a3a"/><path d="M362.85299,200.4357l-0.85309,1.94254l-5.24035,0.11272l-0.26946,-9.79373l2.48891,-5.96128l0.25164,13.74787z" fill="#3a3a3a"/><path d="M369.05932,200.35323l-0.85309,1.94254l-5.24035,0.11272l-0.26946,-9.79373l2.48891,-5.96128l0.25164,13.74787z" fill="#3a3a3a"/><path d="M375.7484,200.26436l-0.85309,1.94254l-5.24035,0.11272l-0.26946,-9.79373l2.48891,-5.96128l0.25164,13.74787z" fill="#3a3a3a"/><path d="M382.02371,200.18098l-0.85309,1.94254l-5.24035,0.11272l-0.26946,-9.79373l2.48891,-5.96128l0.25164,13.74787z" fill="#3a3a3a"/><path d="M388.02316,200.10127l-0.85309,1.94254l-5.24035,0.11272l-0.26946,-9.79373l2.48891,-5.96128l0.25164,13.74787z" fill="#3a3a3a"/><path d="M394.30642,200.01778l-0.85309,1.94254l-5.24035,0.11272l-0.26946,-9.79373l2.48891,-5.96128l0.25164,13.74787z" fill="#3a3a3a"/></g><g stroke-width="0"><g data-paper-data="{&quot;origPos&quot;:null}" fill="#5a5a5a"><g data-paper-data="{&quot;origPos&quot;:null}"><path d="M309.92689,201.13888l-0.18267,-13.74879l3.57112,-0.04745l0.18267,13.74879z" data-paper-data="{&quot;origPos&quot;:null}"/></g><g data-paper-data="{&quot;origPos&quot;:null}"><path d="M315.99774,201.05823l-0.18267,-13.74879l3.57112,-0.04745l0.18267,13.74879z" data-paper-data="{&quot;origPos&quot;:null}"/><path d="M322.24719,200.9752l-0.18267,-13.74879l3.57112,-0.04745l0.18267,13.74879z" data-paper-data="{&quot;origPos&quot;:null}"/></g></g><g data-paper-data="{&quot;origPos&quot;:null}" fill="#5a5a5a"><g data-paper-data="{&quot;origPos&quot;:null}"><path d="M328.85379,200.88741l-0.18267,-13.74879l3.57112,-0.04745l0.18267,13.74879z" data-paper-data="{&quot;origPos&quot;:null}"/><path d="M335.10325,200.80438l-0.18267,-13.74879l3.57112,-0.04745l0.18267,13.74879z" data-paper-data="{&quot;origPos&quot;:null}"/></g><g data-paper-data="{&quot;origPos&quot;:null}"><path d="M341.17415,200.72372l-0.18267,-13.74879l3.57112,-0.04745l0.18267,13.74879z" data-paper-data="{&quot;origPos&quot;:null}"/><path d="M347.42361,200.64068l-0.18267,-13.74879l3.57112,-0.04745l0.18267,13.74879z" data-paper-data="{&quot;origPos&quot;:null}"/></g></g><path d="M313.5593,201.09064l-0.85309,1.94254l-2.72893,0.07936l-0.04032,-1.97377z" fill="#3a3a3a"/><path d="M319.62777,201.01001l-0.85309,1.94254l-5.24035,0.11272l-0.26946,-9.79373l2.48891,-5.96128l0.25164,13.74787z" fill="#3a3a3a"/><path d="M325.83408,200.92754l-0.85309,1.94254l-5.24035,0.11272l-0.26946,-9.79373l2.48891,-5.96128l0.25164,13.74787z" fill="#3a3a3a"/><path d="M332.52312,200.83867l-0.85309,1.94254l-5.24035,0.11272l-0.26946,-9.79373l2.48891,-5.96128l0.25164,13.74787z" fill="#3a3a3a"/><path d="M338.79851,200.7553l-0.85309,1.94254l-5.24035,0.11272l-0.26946,-9.79373l2.48891,-5.96128l0.25164,13.74787z" fill="#3a3a3a"/><path d="M344.79796,200.67558l-0.85309,1.94254l-5.24035,0.11272l-0.26946,-9.79373l2.48891,-5.96128l0.25164,13.74787z" fill="#3a3a3a"/><path d="M351.08124,200.59211l-0.85309,1.94254l-5.24035,0.11272l-0.26946,-9.79373l2.48891,-5.96128l0.25164,13.74787z" fill="#3a3a3a"/></g><g><g data-paper-data="{&quot;origPos&quot;:null}"><g data-paper-data="{&quot;origPos&quot;:null}" fill="none" stroke-width="1" font-family="sans-serif" font-weight="normal" font-size="12" text-anchor="start"/><g data-paper-data="{&quot;origPos&quot;:null}" fill="#4b4b4b" stroke-width="0"><path d="M316.48067,209.40885l-0.0302,-2.27252l3.74967,-0.04982l0.0302,2.27252z" data-paper-data="{&quot;origPos&quot;:null}"/><path d="M310.22971,209.37825l-0.0302,-2.27252l3.74967,-0.04982l0.0302,2.27252z" data-paper-data="{&quot;origPos&quot;:null}"/></g></g><g data-paper-data="{&quot;origPos&quot;:null,&quot;index&quot;:null}" fill="#4b4b4b" stroke-width="0"><g data-paper-data="{&quot;origPos&quot;:null}"><path d="M335.68054,208.92646l-0.0302,-2.27252l3.74967,-0.04982l0.0302,2.27252z" data-paper-data="{&quot;origPos&quot;:null}"/><path d="M341.92847,208.72976l-0.0302,-2.27251l3.74967,-0.04982l0.0302,2.27251z" data-paper-data="{&quot;origPos&quot;:null}"/></g><g data-paper-data="{&quot;origPos&quot;:null}"><path d="M323.18309,209.20615l-0.0302,-2.27252l3.74967,-0.04982l0.0302,2.27252z" data-paper-data="{&quot;origPos&quot;:null}"/><path d="M329.43103,209.00946l-0.0302,-2.27252l3.74967,-0.04982l0.0302,2.27252z" data-paper-data="{&quot;origPos&quot;:null}"/></g></g></g></g><path d="M139.12061,174.09389l0.98353,-4.22856c0,0 4.56885,-3.20846 8.09768,-3.40537c4.03416,-0.22511 34.00075,-0.5983 34.00075,-0.5983c0,0 0.68686,1.86679 0.65011,3.08459c-0.04733,1.56897 -2.1225,4.66143 -2.1225,4.66143z" fill="#242424" stroke-width="0"/><path d="M163.95363,169.95361l-0.04185,-3.15003l18.00021,-0.23917l0.04185,3.15003z" fill="#313131" stroke-width="0"/><path d="M160.68579,171.92779l-0.00866,-0.65217c0,0 1.05379,-1.06525 2.07678,-1.07884c0.9714,-0.01291 3.16553,0.43292 5.61937,0.5637c4.67455,0.24913 10.30382,0.27599 10.30382,0.27599l0.00866,0.65217c0,0 -5.42781,0.0701 -10.03724,-0.17934c-2.5151,-0.13609 -4.79065,-0.6749 -5.79838,-0.6615c-1.05919,0.01408 -2.16436,1.08001 -2.16436,1.08001z" fill="#616161" stroke-width="0"/><path d="M187.60779,155.85779l12.73238,2.85772l30.91827,4.89776c0,0 0.73608,0.21443 -7.37148,-0.40617c-2.75808,-0.21113 -13.41684,-1.67868 -22.66409,-3.4588c-2.50219,-0.48168 -15.8808,-3.74503 -15.8808,-3.74503z" fill="#df8cb7" stroke-width="0"/><path d="M6.6206,164.59936l-0.07882,-5.9326c0,0 5.74627,-1.82947 9.54977,-1.88c3.11379,-0.04137 11.6421,3.35155 11.6421,3.35155l0.02819,12.27146z" fill="#626061" stroke-width="0"/><path d="M122.80259,173.04231l3.82926,2.45536l12.22851,-1.48576l50.74047,-0.67417l0.01449,1.09094c0,0 -38.06477,0.36048 -49.96369,0.78084c-3.26682,0.1154 -12.95576,0.96507 -12.95576,0.96507z" fill="#ffa6d4" stroke-width="0"/><path d="M4.58782,228.56231l-0.09526,-7.16894l23.20471,-16.94l-1.42551,13.68902l-13.73576,10.31432z" fill="#3f3d3e" stroke-width="0"/><path d="M2.89063,223.52428c0,0 -0.07351,-19.65259 0.60478,-29.24578c0.76556,-10.8274 3.75851,-32.46521 3.75851,-32.46521c0,0 8.61131,-0.30379 12.21492,1.2943c3.08419,1.36773 8.09201,7.71113 8.09201,7.71113l0.44575,33.5486c0,0 -11.67375,13.85446 -14.68835,16.15382c-4.637,3.53683 -10.42759,3.00314 -10.42759,3.00314z" fill="#555354" stroke-width="0"/><path d="M7.24393,172.4128c0,0 -1.61965,-5.97191 0.41047,-8.69635c2.03013,-2.72443 6.3658,-3.79908 8.92587,-3.83309c2.04222,-0.02714 6.26956,-0.00455 9.20195,4.41537c2.93238,4.41992 1.10157,11.11492 1.10157,11.11492c0,0 -6.43749,-10.31908 -8.99926,-10.7105c-3.61495,-0.55233 -10.6406,7.70967 -10.6406,7.70967z" fill="#6f6b6c" stroke-width="0"/><path d="M1.50245,228.41498c0,0 1.36813,-26.08301 1.2161,-37.52579c-0.15833,-11.91676 -0.64789,-32.63049 -0.64789,-32.63049c0,0 1.14757,-0.65826 2.18829,-0.67208c0.95162,-0.01265 2.5269,0.60944 2.5269,0.60944c0,0 0.04018,19.15643 0.18226,29.85031c0.16508,12.42438 -2.03626,40.32306 -2.03626,40.32306z" fill="#333232" stroke-width="0"/><path d="M1.07759,228.86429l0.89865,-14.72148c0,0 1.0669,0.8748 1.66581,0.82816c0.75616,-0.05888 2.41393,-1.51854 2.41393,-1.51854l-1.00962,15.35911z" fill="#2e2d2d" stroke-width="0"/><path d="M26.35575,192.26545c0.10847,8.1639 -3.90022,16.88586 -8.2262,19.87099c-3.59285,2.47926 -11.00105,9.3362 -11.10953,1.17228c-0.02302,-1.73192 1.86304,-13.63741 1.89808,-20.66831c0.04632,-9.29827 -1.66544,-14.2569 -0.74531,-17.10096c1.66377,-5.14256 7.16688,-6.6953 9.38118,-6.72473c4.36487,-0.05799 8.69332,15.28681 8.80179,23.45071z" fill="#585758" stroke-width="0"/><path d="M61.00158,205.88933l-0.61567,-1.73271c0,0 7.92109,-1.4559 13.9321,-2.01996c8.46215,-0.79407 32.05166,-2.29504 32.05166,-2.29504l1.81279,1.2572c0,0 -25.08688,1.95385 -33.78962,2.83749c-2.55588,0.25952 -13.39126,1.95302 -13.39126,1.95302z" fill="#585657" stroke-width="0"/><path d="M55.28709,219.16695l5.0074,-13.75915l7.22903,-1.04678c0,0 -1.68064,4.3362 -1.58432,5.09014c0.4602,3.60252 3.77528,27.52764 3.77528,27.52764c0,0 -1.47147,0.46001 -2.68567,-1.39957c-2.17862,-3.33664 -4.10515,-10.17366 -5.885,-12.25285c-1.53779,-1.79642 -5.85671,-4.15941 -5.85671,-4.15941z" fill="#5a5759" stroke-width="0"/><path d="M67.40619,188.19914l2.73807,-11.37072l2.33165,-0.1421l-3.84613,11.60768z" fill="#a5a0a2" stroke-width="0"/><path d="M74.18088,187.02554l-0.01864,-1.40262l26.49392,-0.35201l0.01864,1.40262z" fill="#494748" stroke-width="0"/><path d="M74.06081,184.05556l-0.01864,-1.40262l26.49392,-0.35201l0.01864,1.40262z" fill="#494748" stroke-width="0"/><path d="M54.92677,206.71951l-0.26754,-20.13655l12.11854,-9.77809l4.83999,-0.3761l-15.70552,43.02599l-5.63734,-1.92865z" fill="#dbd5d8" stroke-width="0"/><path d="M28.58887,218.98493l-0.31453,-11.78766l26.64164,-1.14356c0,0 0.36397,2.53312 0.24439,3.33328c-0.29804,1.99461 -2.21296,8.95847 -2.21296,8.95847z" fill="#ccc6c9" stroke-width="0"/><path d="M32.22708,207.54517l-0.0042,-0.31578l22.80345,-1.17152l-2.58944,1.21877c0,0 -4.31879,0.24361 -7.02767,0.24785c-3.70919,0.00582 -13.18214,0.02066 -13.18214,0.02066z" fill="#d8d1d5" stroke-width="0"/><path d="M35.69255,203.76202l-0.22585,-16.9985l16.12357,-0.21423l0.22585,16.9985z" fill="#a39999" stroke-width="0"/><path d="M28.31462,219.15834l-0.15092,-11.3583c0,0 8.92091,6.26872 13.23832,8.55214c4.31741,2.28343 10.8143,1.91711 10.8143,1.91711z" fill="#b4afb1" stroke-width="0"/><path d="M62.03513,224.75349c0,0 3.04303,1.00017 4.13715,0.84187c0.67213,-0.09725 1.80317,-1.70135 1.80317,-1.70135l1.77894,9.05035l0.05573,4.19475c0,0 -1.93873,0.33722 -3.25198,-2.22815c-1.08355,-2.11664 -4.52299,-10.15745 -4.52299,-10.15745z" fill="#504e4f" stroke-width="0"/><path d="M55.59893,219.71919l13.90569,-41.93203l1.74616,0.18195l-13.79768,42.34088z" fill="#858183" stroke-width="0"/><path d="M38.22278,179.19046l1.49269,-1.67046c0,0 27.40463,-1.00807 39.81382,-1.17295c10.77034,-0.1431 31.94681,-0.07144 31.94681,-0.07144l0.55522,1.93419c0,0 -21.30478,-0.42296 -32.65739,-0.27211c-12.96322,0.17224 -41.15116,1.25278 -41.15116,1.25278z" fill="#918b8e" stroke-width="0"/><path d="M39.22455,177.94629l1.9979,-1.96811c0,0 25.88136,-0.6969 38.29055,-0.86177c10.77034,-0.1431 31.94681,-0.07144 31.94681,-0.07144l0.55522,1.93419c0,0 -21.30478,-0.42296 -32.65739,-0.27211c-12.96322,0.17224 -40.13306,1.23925 -40.13306,1.23925z" fill="#a59fa2" stroke-width="0"/><path d="M104.10368,197.87216l-2.00086,-5.65655c0,0 0.19561,-1.20773 0.52706,-1.32498c0.29204,-0.1033 1.35845,0.65802 1.35845,0.65802l2.00085,5.65655c0,0 -0.26445,0.8812 -0.55716,0.98475c-0.33106,0.11711 -1.32835,-0.31779 -1.32835,-0.31779z" fill="#494242" stroke-width="0"/><path d="M63.86785,201.05562l3.41653,-9.53194l3.88538,-0.05163l-3.41653,9.53194z" fill="#9c989a" stroke-width="0"/><path d="M73.19807,183.15393l1.83767,-0.99246l24.43691,-0.30663l2.03049,0.92302z" fill="#757274" stroke-width="0"/><path d="M73.32974,185.96373l1.83767,-0.99246l24.43691,-0.30663l2.03049,0.92302z" fill="#757274" stroke-width="0"/><path d="M25.88109,218.20761l0.93414,-58.17525l1.92785,0.55516l-0.38336,58.56914z" fill="#686666" stroke-width="0"/><path d="M25.72133,218.48008l0.43858,-16.26299l2.3416,3.78769l-0.25953,13.31469z" fill="#535252" stroke-width="0"/><path d="M56.16056,195.1989c0,0 2.0927,-2.37348 2.08013,-3.3202c-0.01235,-0.92902 -2.1549,-2.30802 -2.1549,-2.30802c0,0 3.01071,0.62976 2.9289,2.31929c-0.0623,1.2869 -1.08368,3.48967 -1.15641,4.59311c-0.20681,3.13748 -0.79774,10.49335 -0.79774,10.49335z" fill="#c4bec1" stroke-width="0"/><path d="M63.81047,193.18546l1.77602,-10.21991l2.49078,-4.38777l-2.52784,9.59263z" fill="#aca7a9" stroke-width="0"/></g></g><g stroke-width="0"><path d="M181.4891,163.78899l2.51052,-3.36284c0,0 1.78821,-1.46021 2.61672,-1.19622c0.94466,0.30101 2.74866,2.90584 2.74866,2.90584l-0.48768,4.08878c0,0 -4.28096,0.04934 -5.5489,-0.06712c-0.57158,-0.0525 -1.83933,-2.36841 -1.83933,-2.36841z" fill="#c0c0c0"/><path d="M138.70228,174.00945c0,0 -0.21474,-2.8774 0.82918,-4.03024c1.30822,-1.44473 7.35826,-3.73752 7.35826,-3.73752l-0.64757,4.74611l0.03881,2.92095z" fill="#838383"/><path d="M138.52912,173.93737l8.00463,-7.58831l37.55903,-0.49903l0.09939,7.48063z" fill="#999999"/><path d="M139.51931,173.26775l6.08159,-5.92244l33.76933,-0.44868l0.0776,5.8406c0,0 -4.08723,0.05431 -9.34497,0.12417c-3.41837,0.04542 -7.34563,-0.96451 -10.95197,-0.9166c-3.86872,0.05141 -7.37026,1.16004 -9.54325,1.18891c-4.25279,0.0565 -10.08832,0.13404 -10.08832,0.13404z" fill="#d952b3"/><path d="M143.01119,173.21916l8.28971,-6.01397l12.463,-0.16559c0,0 -7.3501,2.00518 -9.70783,2.95114c-2.50302,1.00424 -5.68687,3.15722 -5.68687,3.15722z" fill="#a5899d"/><path d="M150.99817,173.00027c0,0 5.07178,-1.03959 7.52866,-1.07222c3.1393,-0.04172 9.76668,0.84243 9.76668,0.84243l-9.65767,-0.20692z" fill="#adadad"/><path d="M138.63345,173.91785l7.22933,-6.8483l34.96359,-0.46454l0.00915,0.68851c0,0 -30.27412,0.40223 -34.2204,0.45467c-0.82541,0.01096 -7.98165,6.16966 -7.98165,6.16966z" fill="#8a8a8a"/><path d="M185.87939,179.52643l-0.12961,-9.75448l0.55502,-7.2099c0,0 1.19329,0.4541 1.75465,1.01018c0.56136,0.55609 0.95974,1.67871 0.95974,1.67871l-1.127,14.24876z" fill="#9e9e9e"/><path d="M180.37208,175.36845c0,0 -0.9399,-2.11263 -1.09771,-3.6998c-0.2125,-2.13732 0.56967,-7.6664 0.56967,-7.6664l1.93693,-0.35112c0,0 0.76932,0.78163 1.24517,0.62614c0.65606,-0.21437 2.32722,-1.79343 2.32722,-1.79343l-0.33231,12.82284z" fill="#9c9c9c"/><path d="M180.9703,177.19135c-0.79699,-1.09394 -0.57482,-2.47013 -0.57482,-2.47013l4.78158,-7.26453c0,0 1.4451,3.86495 1.45728,4.78131c0.03461,2.60531 1.10412,7.3412 1.10412,7.3412c0,0 -2.97872,0.12332 -4.02333,-0.30146c-1.25284,-0.50947 -1.94783,-0.99243 -2.74481,-2.08637z" fill="#888888"/><path d="M182.74058,176.39352c-1.01474,-1.98646 -2.08448,-6.43567 -0.29472,-10.52659c1.78975,-4.09092 4.23219,-1.99199 4.23219,-1.99199c0,0 1.06518,4.40922 1.09589,6.72186c0.02799,2.10665 -0.91899,6.59377 -0.91899,6.59377c0,0 -3.09965,1.18939 -4.11439,-0.79707z" fill="#b4b4b4"/><path d="M186.79978,168.64359c0.01875,1.41094 -5.08972,1.55624 -5.10846,0.1453c-0.01875,-1.41094 2.96794,-6.85328 3.7803,-6.86408c0.31462,-0.00418 0.95976,0.08912 1.17033,1.14709c0.33311,1.67378 0.14634,4.7072 0.15782,5.57169z" fill="#bbbbbb"/></g><g stroke-width="0"><path d="M122.70604,173.02846c0,0 -5.92138,-4.83909 -5.94627,-6.71234c-0.02032,-1.52951 6.01372,-1.73282 6.01372,-1.73282l7.54555,-0.02841l-3.88059,10.83147z" fill="#f399c8"/><path d="M92.20445,175.07553c0,0 -0.99786,-2.08477 -0.75488,-3.16082c0.26815,-1.18749 2.28038,-4.81945 2.28038,-4.81945l23.03365,-0.49173l9.23993,8.50117z" fill="#ee96c3"/></g></g><g stroke-width="0"><g><path d="M187.42231,154.08341l-0.08212,-6.18127l47.81396,-0.63528l0.08212,6.18127z" fill="#61585b"/><path d="M187.21598,150.8423l-0.04397,-3.31005l47.99577,-0.63769l0.04397,3.31005c0,0 -8.6401,0.1148 -17.5157,0.23273c-2.775,0.03688 -6.65622,1.60581 -9.22041,1.63989c-3.04912,0.04051 -6.3394,-1.43314 -8.2953,-1.40716c-5.8648,0.07793 -12.96437,0.17225 -12.96437,0.17225z" fill="#494344"/><path d="M248.95014,143.41628l-9.58405,-18.80728l20.91741,-0.27793l15.65006,16.56785c0,0 -5.69158,1.43713 -8.91988,1.7383c-4.98157,0.46474 -18.06355,0.77905 -18.06355,0.77905z" fill="#5e555b"/><path d="M248.99784,146.85104l-0.07358,-5.538c0,0 12.2781,-1.61639 17.15943,-2.46096c3.87398,-0.67026 6.67163,-1.28953 6.67163,-1.28953l6.03105,6.85926c0,0 -5.31076,1.66684 -9.45234,2.16583c-5.61171,0.6761 -20.33619,0.26341 -20.33619,0.26341z" fill="url(#color-5)"/><path d="M237.67347,124.79027l-0.05309,-3.99583l19.14982,-0.25444l3.68914,3.94752z" fill="url(#color-6)"/><path d="M248.41449,146.88373l-0.01674,-1.25911c0,0 15.60731,-0.28379 20.99112,-0.52286c4.02576,-0.17877 8.42488,-1.81419 8.42488,-1.81419l0.90403,1.13282l-8.19412,2.16958z" fill="#312c30"/><g><path d="M147.26293,137.62614l-0.34411,-8.85457l93.91704,-1.24783l7.78974,11.17931z" fill="#8a6672"/><path d="M163.9108,145.69133c0,0 -3.56714,-3.55869 -6.39099,-4.9829c-2.82384,-1.42422 -9.88127,-1.09299 -9.88127,-1.09299l0.08448,-2.08839c0,0 12.32589,0.11268 19.35585,0.11448c16.79363,0.00432 80.97039,-0.08866 80.97039,-0.08866l3.71012,6.51832z" fill="#755761"/><path d="M166.79214,148.14416l-3.05958,-2.55136l87.57213,-1.65293l1.2463,3.06486z" fill="#694e57"/><path d="M146.75932,129.16983l-0.06017,-4.52859l90.78912,-1.88569l3.92451,5.60958c0,0 2.79924,3.30113 -2.48687,3.34606c-1.66408,0.01415 -10.82892,-3.23287 -12.49719,-3.21868c-16.06634,0.13658 -79.66941,0.67732 -79.66941,0.67732z" fill="#916b77"/><path d="M146.94108,124.63814l-0.15234,-2.52272l89.89902,-1.3332l1.07691,2.37818z" fill="#9e7582"/><path d="M221.06939,124.33715c-8.07572,-0.54069 -72.74754,-0.71385 -72.74754,-0.71385l87.8463,-1.16717l4.89921,7.37675c0,0 -11.92225,-4.95504 -19.99797,-5.49573z" fill="#b38f9a"/></g><path d="M197.66123,147.7312l-0.12187,-9.17296l20.21044,-0.26853l0.12187,9.17296z" fill="#3a3336"/><path d="M197.45158,138.56355l0.69617,-1.53186l18.53678,-0.24628l1.00527,1.50926z" fill="#4b4246"/><path d="M197.79475,147.23002l-0.10865,-8.17685c0,0 1.129,5.25132 3.80142,6.32218c2.67242,1.07086 15.95291,1.59364 15.95291,1.59364z" fill="#332c30"/><path d="M238.95869,126.99724l-3.99937,-5.94739c0,0 1.01399,-0.6802 1.61458,-0.68818c0.67139,-0.00892 2.22509,0.63716 2.22509,0.63716l3.99937,5.94739z" fill="#757575"/><path d="M242.04171,131.6913l-5.74821,-8.53662l3.83965,-0.05102l5.74821,8.53662z" fill="#5a5a5a"/><path d="M246.37192,138.08329l-5.74821,-8.53662l3.83965,-0.05102l5.74821,8.53662z" fill="#505050"/><path d="M250.8493,144.70411c-0.98178,-1.45803 -4.81253,-7.14705 -4.81253,-7.14705l3.83965,-0.05102l6.75049,10.23775c0,0 -2.04851,0.56276 -2.99816,0.56055c-0.74073,-0.00173 -2.34657,-2.95734 -2.77948,-3.60024z" fill="#3b3b3b"/><path d="M145.75548,140.24454l-0.24811,-18.6731l3.18068,-0.04225l0.24811,18.6731z" fill="#443e42"/><path d="M126.90222,142.09412l-0.7644,-5.91837l20.22678,-0.26874l0.07875,5.92748z" fill="url(#color-7)"/><path d="M126.1462,136.80633l-0.14411,-10.84603l20.22678,-0.26874l0.14411,10.84603z" fill="#5e555b"/><path d="M126.00377,126.08654l0.74464,-4.17248l19.42686,-0.25812l0.0553,4.16185z" fill="url(#color-8)"/><path d="M196.24548,121.18796l-0.08148,-6.13279l15.03507,0.867l4.6844,4.64929z" fill="#5e555b"/><path d="M215.88822,120.92697l-4.68795,-4.91593c0,0 3.02511,0.65049 5.26642,1.61906c2.24131,0.96857 5.90984,3.21066 5.90984,3.21066z" fill="#776b73"/><path d="M193.23887,122.38355l3.18318,-1.28685l25.5942,-0.60675l3.66419,1.46257z" fill="#6d6269"/></g><g><path d="M199.05492,143.7422c-0.0166,-1.24872 0.47835,-2.4121 0.85324,-3.44676c0.52239,-1.44173 1.10904,-2.63744 2.39148,-3.50074c0.78333,-0.52731 1.91531,-0.93179 2.90098,-1.18527c0.65194,-0.16764 1.64567,-0.58096 2.34863,-0.59029c1.59356,-0.02117 1.93693,0.05599 3.09316,0.53672c0.69647,0.28956 2.34176,0.71685 2.88564,1.38181c0.46033,0.56283 0.94869,1.50496 1.29936,2.17999c0.5993,1.15361 1.42647,3.00729 1.44491,4.3958c0.00779,0.58678 -0.46632,1.93164 -0.50913,2.44772c-0.13592,1.6384 -0.12988,2.14798 -1.32861,3.26748c-0.72857,0.68043 -2.22842,1.24822 -3.20667,1.67124c-1.01311,0.43809 -2.27732,1.32103 -3.4499,1.33661c-0.79144,0.01051 -2.2265,-0.50545 -2.99502,-0.63144c-1.66734,-0.27336 -2.56167,-0.43591 -3.60622,-1.56233c-0.89573,-0.96593 -1.1776,-2.56066 -1.55982,-3.91331c-0.2008,-0.71061 -0.55172,-1.6137 -0.562,-2.38724z" fill="#3a3a3a"/><path d="M199.78427,143.6139c-0.01518,-1.14269 0.43774,-2.2073 0.78079,-3.1541c0.47804,-1.31932 1.01486,-2.41349 2.18841,-3.20351c0.71681,-0.48254 1.7527,-0.85269 2.65467,-1.08463c0.59659,-0.15342 1.50594,-0.53163 2.14921,-0.54017c1.45827,-0.01937 1.77248,0.05125 2.83053,0.49113c0.63733,0.26497 2.14294,0.65598 2.64062,1.26448c0.42124,0.51504 0.86813,1.3772 1.18904,1.9949c0.54843,1.05567 1.30536,2.75196 1.32224,4.02257c0.00713,0.53695 -0.42674,1.76764 -0.46591,2.23989c-0.12437,1.49929 -0.11885,1.9656 -1.21579,2.99006c-0.66671,0.62265 -2.0392,1.14223 -2.93439,1.52934c-0.9271,0.40089 -2.08396,1.20888 -3.15699,1.22313c-0.72423,0.00962 -2.03747,-0.46253 -2.74073,-0.57783c-1.52576,-0.25014 -2.34417,-0.3989 -3.30003,-1.42967c-0.81969,-0.88391 -1.07762,-2.34323 -1.42738,-3.58105c-0.18374,-0.65029 -0.50487,-1.47669 -0.51428,-2.18456z" fill="#5a5a5a"/><path d="M211.91503,138.92294c-2.07645,-2.35839 -7.17215,-2.49133 -7.17215,-2.49133c0,0 1.93492,-0.56576 3.92501,-0.58527c1.61201,-0.0158 3.18908,0.32773 4.36581,1.61322c1.17768,1.28653 1.59125,2.76587 1.89657,4.15738c0.59862,2.72827 0.19261,5.12667 0.19261,5.12667c0,0 -1.13139,-5.4623 -3.20785,-7.82069z" fill="#6d6d6d"/><path d="M206.65524,144.01214c-0.00765,-0.57566 0.45283,-1.04853 1.02848,-1.05618c0.57566,-0.00765 1.04853,0.45283 1.05618,1.02848c0.00765,0.57566 -0.45283,1.04853 -1.02848,1.05618c-0.57566,0.00765 -1.04853,-0.45283 -1.05618,-1.02848z" fill="#272727"/><path d="M206.57803,144.14999c-0.00701,-0.52798 0.41531,-0.96169 0.9433,-0.96871c0.52798,-0.00701 0.96169,0.41531 0.96871,0.9433c0.00701,0.52798 -0.41531,0.96169 -0.9433,0.96871c-0.52798,0.00701 -0.96169,-0.41531 -0.96871,-0.9433z" fill="#131313"/></g></g></g></g></g><path d="M119.17832,255.20894c-0.02105,-1.58454 -4.84549,-44.1502 -4.37244,-45.8318c0.63872,-2.27048 9.13705,-1.03262 12.08092,-2.57967c9.01601,-4.73808 18.76725,-9.45512 18.76725,-9.45512c0,0 14.0748,0.39352 18.31095,0.33723c3.16783,-0.04209 62.6842,-9.70666 63.56268,0.60413c1.19154,13.98535 -40.80381,3.20667 -40.64266,15.33622c0.04079,3.07065 2.4529,3.23413 1.92905,6.38857c-0.12573,0.75711 -2.40845,5.96676 -2.6105,7.64565c-0.32072,2.66504 3.02728,6.62342 -0.24141,9.76641c-2.6056,2.50541 -0.60715,7.49615 -1.22972,8.72014c-4.29015,8.43469 -12.66883,4.74126 -21.68091,4.861c-10.68506,0.14196 -26.18434,4.07156 -35.58354,2.959c-4.05728,-0.48024 -8.22835,5.86057 -8.28963,1.24823z" fill="#86c8f5" stroke-width="0"/><path d="M377.37644,192.67246c4.89752,1.08757 4.84177,7.91939 2.61656,15.65048c-2.22522,7.73109 -7.00447,13.25873 -10.67478,12.34629c-3.6703,-0.91244 -4.84177,-7.91939 -2.61656,-15.65048c2.22522,-7.73109 5.03249,-13.59925 10.67478,-12.34629z" data-paper-data="{&quot;index&quot;:null}" fill="#86c8f5" stroke-width="0"/><path d="M354.70766,202.27389c2.22522,-7.73109 4.42793,-11.8346 10.07021,-10.58166c4.89753,1.08757 5.44636,6.15475 3.22114,13.88585c-2.22522,7.7311 -7.00447,13.25872 -10.67478,12.34629c-3.6703,-0.91244 -4.84177,-7.91939 -2.61656,-15.65048z" data-paper-data="{&quot;index&quot;:null}" fill="#86c8f5" stroke-width="0"/><path d="M341.55117,206.57086c2.22522,-7.73109 5.3309,-14.77427 10.97318,-13.52133c4.89753,1.08757 4.54339,9.09442 2.31817,16.82551c-2.22522,7.73109 -6.43101,9.15237 -10.10132,8.23995c-3.67031,-0.91244 -5.41524,-3.81304 -3.19003,-11.54413z" data-paper-data="{&quot;index&quot;:null}" fill="#86c8f5" stroke-width="0"/><path d="M339.96854,195.28912c4.89753,1.08757 5.44636,6.15475 3.22114,13.88585c-2.22522,7.73109 -6.43101,9.15237 -10.10132,8.23995c-3.67031,-0.91244 -5.41524,-3.81304 -3.19003,-11.54413c2.22522,-7.73109 4.42793,-11.8346 10.07021,-10.58166z" data-paper-data="{&quot;index&quot;:null}" fill="#86c8f5" stroke-width="0"/><g stroke-width="0"><g><path d="M115.28984,272.72155l-0.07415,-5.58143c0,0 2.2435,0.14824 3.08519,-0.82668c1.18914,-1.37739 3.59434,-6.54964 3.59434,-6.54964l0.74118,8.08463c0,0 -3.03739,3.23913 -4.56375,4.15691c-1.10203,0.66262 -2.7828,0.7162 -2.7828,0.7162z" fill="#4d484c"/><g><g><path d="M74.40683,261.91373l4.0241,-5.61602c0,0 15.78217,-9.15927 22.34015,-13.13828c5.0446,-3.06077 13.09485,-8.11891 13.09485,-8.11891l2.98445,26.30927z" fill="#eb59c1"/><path d="M75.72261,250.77117l-0.97434,-29.26364c0,0 19.24275,8.50621 26.16254,11.37126c5.02142,2.07906 12.19754,11.24758 12.19754,11.24758l-5.77262,6.22478z" fill="#dd54b6"/><path d="M74.03346,233.81318l-0.11176,-30.44617c0,0 12.74644,13.57763 17.38688,14.28175c6.87625,1.04335 19.66623,-1.89236 19.66623,-1.89236l0.34613,26.05156z" fill="#ff77d8"/><path d="M76.20406,220.90265l-0.18669,-14.05028l33.33053,-3.3705l2.56729,16.94632z" fill="#ee51c1"/></g><g><g><path d="M71.63008,251.44396l-5.5825,-40.73596l8.4006,-0.11161l5.5825,40.73596z" fill="#a59da1"/><path d="M66.01486,210.89903c0,0 -0.83464,-4.4815 0.94601,-5.78704c1.78064,-1.30556 6.85902,-1.62628 6.85902,-1.62628l0.60928,7.30155z" fill="#b9b0b5"/><path d="M73.55139,262.06445l-1.86307,-10.64902l8.36046,-0.11109l1.86307,10.64902z" fill="#8b8488"/></g><g><path d="M111.77305,247.51355l-5.58249,-40.73595l4.53879,-0.06031l5.5825,40.73595z" fill="#a59da1"/><path d="M106.36328,207.77274l-0.90027,-6.42981c0,0 2.92543,-0.71934 3.99614,0.41624c1.07072,1.13559 1.25115,5.14897 1.25115,5.14897z" fill="#b9b0b5"/><path d="M113.68187,258.13426l-1.86307,-10.64902l4.51116,-0.05994l1.86308,10.64902z" fill="#8b8488"/></g><path d="M74.6245,270.62694c0,0 -3.30632,-2.69909 -3.72366,-4.17828c-0.46459,-1.64661 1.06263,-5.25306 1.06263,-5.25306l47.60475,-5.02775c0,0 2.04494,2.3069 2.48615,3.78752c0.61842,2.07529 -3.52555,7.04537 -3.52555,7.04537z" fill="#494547"/><path d="M74.19728,207.41218c0,0 -2.32371,-0.5365 -2.76201,-1.10499c-0.4813,-0.62427 0.77319,-2.72373 0.77319,-2.72373c0,0 12.02953,-1.17188 17.30194,-1.5641c6.14641,-0.45726 16.57622,-0.77965 16.57622,-0.77965c0,0 0.5473,1.21675 0.46991,1.81522c-0.07495,0.5796 -0.52384,1.71546 -0.52384,1.71546z" fill="#c2b8bd"/><path d="M74.96342,269.40161c0,0 -1.27235,-2.81864 -1.5367,-4.49089c-0.21937,-1.38779 0.07616,-3.64927 0.07616,-3.64927l44.78802,-4.65223c0,0 2.0701,3.12571 2.09219,4.78825c0.02373,1.78601 -1.97033,4.38397 -1.97033,4.38397z" fill="#6f696b"/><path d="M86.15669,274.68308l-0.07415,-5.58142l29.76952,-2.00048l0.07415,5.58142z" fill="#333032"/><path d="M74.62644,274.95774c-1.11923,-0.6331 -2.81856,-2.0764 -2.81856,-2.0764l-0.96032,-6.80719c0,0 2.50368,2.23931 3.729,3.58463c0.86729,0.95223 11.5519,-0.66921 11.5519,-0.66921l0.07415,5.58142c0,0 -10.45694,1.01987 -11.57617,0.38676z" data-paper-data="{&quot;index&quot;:null}" fill="#444043"/><g><path d="M73.70176,222.38827c0,0 -2.64752,-4.70738 -2.69696,-6.44907c-0.03423,-1.20585 2.42876,-2.99794 2.42876,-2.99794l35.01868,-3.48996c0,0 1.63507,3.1024 1.67928,4.65937c0.04518,1.59129 -1.41108,4.78764 -1.41108,4.78764z" fill="#979797"/><path d="M73.74102,221.32159c0,0 -2.6612,-4.16225 -2.71577,-5.69948c-0.03779,-1.06432 2.41974,-2.63864 2.41974,-2.63864l35.00579,-2.97678c0,0 1.6441,2.7428 1.69289,4.117c0.04986,1.4045 -1.39686,4.2211 -1.39686,4.2211z" fill="#a2a2a2"/></g><g><path d="M76.30206,238.89483c0,0 -2.64752,-4.70738 -2.69696,-6.44907c-0.03423,-1.20585 2.42876,-2.99794 2.42876,-2.99794l35.01868,-3.48996c0,0 1.63507,3.1024 1.67928,4.65937c0.04518,1.59129 -1.41108,4.78763 -1.41108,4.78763z" fill="#979797"/><path d="M76.34129,237.82818c0,0 -2.66119,-4.16225 -2.71576,-5.69948c-0.0378,-1.06431 2.41973,-2.63864 2.41973,-2.63864l35.00579,-2.97677c0,0 1.6441,2.7428 1.69289,4.117c0.04985,1.4045 -1.39686,4.2211 -1.39686,4.2211z" fill="#a2a2a2"/></g><g><path d="M79.01592,255.89518c0,0 -2.64752,-4.70738 -2.69696,-6.44907c-0.03423,-1.20585 2.42876,-2.99794 2.42876,-2.99794l35.01868,-3.48996c0,0 1.63507,3.1024 1.67928,4.65937c0.04518,1.59129 -1.41108,4.78763 -1.41108,4.78763z" fill="#7a7a7a"/><path d="M79.05517,254.82855c0,0 -2.6612,-4.16225 -2.71577,-5.69949c-0.0378,-1.06431 2.41973,-2.63863 2.41973,-2.63863l35.0058,-2.97678c0,0 1.64409,2.7428 1.69289,4.117c0.04985,1.4045 -1.39686,4.22111 -1.39686,4.22111z" fill="#929292"/></g></g></g></g><path d="M72.29838,255.38931c0,0 -0.40831,-1.71117 -0.74379,-4.01754c-0.98491,-6.77127 -5.74553,-40.59705 -5.74553,-40.59705l3.22487,4.26051l3.78641,29.37702z" fill="#777275"/></g></g></g></g></svg>