<svg version="1.1" xmlns="http://www.w3.org/2000/svg" xmlns:xlink="http://www.w3.org/1999/xlink" width="461.73077" height="167.99217" viewBox="0,0,461.73077,167.99217"><defs><linearGradient x1="539.01769" y1="231.73765" x2="537.63105" y2="236.34511" gradientUnits="userSpaceOnUse" id="color-1"><stop offset="0" stop-color="#1f1d20"/><stop offset="1" stop-color="#202022"/></linearGradient><linearGradient x1="540.83779" y1="227.21525" x2="539.2423" y2="232.51656" gradientUnits="userSpaceOnUse" id="color-2"><stop offset="0" stop-color="#302d31"/><stop offset="1" stop-color="#1f1e20"/></linearGradient><linearGradient x1="206.40375" y1="176.76471" x2="205.42676" y2="180.01091" gradientUnits="userSpaceOnUse" id="color-3"><stop offset="0" stop-color="#585758"/><stop offset="1" stop-color="#575758"/></linearGradient><linearGradient x1="190.94238" y1="182.63654" x2="190.17541" y2="185.185" gradientUnits="userSpaceOnUse" id="color-4"><stop offset="0" stop-color="#363536"/><stop offset="1" stop-color="#353536"/></linearGradient><linearGradient x1="354.9707" y1="135.08882" x2="353.37459" y2="140.3923" gradientUnits="userSpaceOnUse" id="color-5"><stop offset="0" stop-color="#5e555b"/><stop offset="1" stop-color="#2b2629"/></linearGradient><linearGradient x1="351.58311" y1="112.48665" x2="350.43145" y2="116.31327" gradientUnits="userSpaceOnUse" id="color-6"><stop offset="0" stop-color="#72676e"/><stop offset="1" stop-color="#5e555b"/></linearGradient><linearGradient x1="239.41325" y1="93.24291" x2="237.70483" y2="98.91944" gradientUnits="userSpaceOnUse" id="color-7"><stop offset="0" stop-color="#5e555b"/><stop offset="1" stop-color="#4d454a"/></linearGradient><linearGradient x1="243.52061" y1="79.59531" x2="242.32109" y2="83.58096" gradientUnits="userSpaceOnUse" id="color-8"><stop offset="0" stop-color="#74686f"/><stop offset="1" stop-color="#5e555b"/></linearGradient></defs><g transform="translate(-82.57449,-73.93722)"><g data-paper-data="{&quot;isPaintingLayer&quot;:true}" fill-rule="nonzero" stroke="none" stroke-linecap="butt" stroke-linejoin="miter" stroke-miterlimit="10" stroke-dasharray="" stroke-dashoffset="0" style="mix-blend-mode: normal"><path d="M191.32156,217.01925c-2.25847,8.37432 -7.86712,12.23151 -24.70366,7.69086c-6.24505,-1.68422 -16.5899,-6.10349 -21.67083,-6.7437c-3.77615,-0.47582 -7.44925,0.82676 -9.25754,-1.6138c-2.31821,-3.12874 2.95263,-22.26761 3.75078,-25.22715c2.25847,-8.37432 25.74831,-9.31244 42.58482,-4.77178c16.83652,4.54065 11.55488,22.29124 9.2964,30.66556z" fill="#86c8f5" stroke-width="0"/><g><g><g stroke-width="0"><path d="M269.50737,180.10049l-5.37383,-17.64246l24.66046,6.80542c0,0 -2.73165,5.26497 -3.70076,7.79139c-0.93743,2.4439 -2.02197,7.12782 -2.02197,7.12782z" fill="#7f7d7e"/><path d="M269.54488,180.31726l-1.86932,-6.41792c0,0 1.23397,4.08395 4.15564,5.60519c2.10389,1.09544 3.99935,1.34221 6.47458,2.42217c2.47522,1.07995 4.61459,2.41606 4.61459,2.41606z" fill="#6c6a6b"/></g><g><g><g><path d="M534.76683,235.48311l-0.58497,-5.20084c0,0 5.2595,3.31419 7.48939,4.91771c2.22987,1.60352 0.42924,2.24807 0.42924,2.24807z" fill="url(#color-1)" stroke-width="0"/><path d="M544.21273,228.43942c0,0 0.746,2.65544 -1.99846,2.7619c-2.74449,0.10647 -5.87684,0.44099 -5.87684,0.44099l0.66601,-5.58107z" data-paper-data="{&quot;index&quot;:null}" fill="url(#color-2)" stroke-width="0"/><path d="M525.55834,232.70694l0.60474,-2.00933l14.1458,4.25729c0,0 0.97532,1.12303 1.33689,1.61435c0.32503,0.44166 -0.97428,0.68614 -0.97428,0.68614z" fill="#444444" stroke-width="NaN"/><path d="M526.154,230.84468l-0.6347,-2.02262l12.08042,3.63568l2.77679,2.55053c0,0 -4.1075,-0.98764 -6.31954,-1.63522c-2.49472,-0.73033 -7.90298,-2.52842 -7.90298,-2.52842z" fill="#535353" stroke-width="0"/><path d="M525.37253,228.92066l-0.12653,-0.70643l10.98698,3.3066l1.46247,0.98915z" fill="#363636" stroke-width="0"/><path d="M525.55834,232.70694l0.32806,-1.09006c0,0 6.04908,2.29423 8.80669,3.12414c2.33683,0.70328 6.6866,1.5387 6.6866,1.5387c0,0 0.69425,0.69166 0.87261,0.9572c0.15047,0.22403 -0.37451,0.38151 -0.37451,0.38151c0,0 -4.64852,-0.97663 -6.8641,-1.64339c-2.98911,-0.89959 -9.45533,-3.26808 -9.45533,-3.26808z" fill="#3a3a3a" stroke-width="NaN"/><path d="M525.54803,228.3242l-0.27535,-1.00574l13.06286,3.93138l-2.00879,0.35374z" fill="#242424" stroke-width="0"/><path d="M524.44438,227.26678l0.47675,-1.58413c0,0 7.80939,2.13496 10.67804,2.99832c1.95443,0.58822 4.86962,1.68088 4.86962,1.68088l-2.16592,0.90349z" fill="#3a3a3a" stroke-width="0"/><path d="M524.78479,225.68607l0.58865,-1.95589c0,0 7.42365,1.8897 10.59731,2.84483c2.74631,0.82652 7.34866,2.55617 7.34866,2.55617l-2.90424,1.25899c0,0 -3.47609,-1.13226 -5.62527,-1.77909c-2.8568,-0.85976 -10.00509,-2.925 -10.00509,-2.925z" fill="#444444" stroke-width="0"/><path d="M525.3076,223.79921l0.24527,-0.81496c0,0 7.57542,2.15069 11.02002,3.18739c2.39854,0.72186 7.67024,2.43759 7.67024,2.43759l-1.07361,0.56566c0,0 -4.75637,-1.73294 -7.5958,-2.58746c-3.1283,-0.9415 -10.26615,-2.78822 -10.26615,-2.78822z" fill="#535353" stroke-width="0"/><path d="M525.40429,223.02842l0.09813,-0.32601c0,0 7.49676,1.72671 10.81032,2.72395c2.86483,0.86221 7.9213,2.91349 7.9213,2.91349l-0.06212,0.33682c0,0 -5.70641,-1.88964 -8.81376,-2.82483c-3.14796,-0.94743 -9.95382,-2.82342 -9.95382,-2.82342z" fill="#4e4e4e" stroke-width="0"/></g><g stroke-width="0"><g><g><g><path d="M520.09356,230.55265l-0.59379,-13.92559l1.02561,-1.48895c0,0 2.39676,4.09361 2.5623,6.74415c0.08986,1.43896 -1.60128,9.08955 -1.60128,9.08955z" fill="#383638"/><path d="M521.29938,230.19351c0,0 0.2316,-0.56699 0.33712,-3.09891c0.11508,-2.76113 -0.17016,-6.64518 -0.2371,-7.78687c-0.15031,-2.56276 -0.83557,-2.90527 -0.83557,-2.90527l4.764,0.82619l0.84648,14.43201z" fill="#555355"/><path d="M520.60051,216.50268l-0.20082,-1.35159c0,0 2.16503,-0.18388 3.08586,0.09326c0.86287,0.25968 1.74037,1.28328 1.74037,1.28328l0.17986,1.42122z" fill="#686668"/></g><path d="M514.66154,228.91783l-0.59379,-13.92557l0.70304,-1.56499c0,0 2.71937,4.16964 2.88489,6.82016c0.08986,1.43895 -1.60127,9.08955 -1.60127,9.08955z" fill="#383638"/><path d="M515.86734,228.55867c0,0 0.23161,-0.567 0.33713,-3.09891c0.11508,-2.76113 -0.17015,-6.64517 -0.23709,-7.78687c-0.15031,-2.56276 -0.83558,-2.90527 -0.83558,-2.90527l4.18993,0.13125c0,0 0.6211,1.49675 0.66694,2.27787c0.13054,2.2255 0.75364,12.84906 0.75364,12.84906z" fill="#555355"/><path d="M515.16848,214.86781l-0.40976,-1.41448c0,0 2.37396,-0.12099 3.2948,0.15616c0.86287,0.25968 1.46181,1.19943 1.46181,1.19943l0.29958,1.45726z" fill="#686668"/><path d="M522.3694,229.47774c0.23617,-0.78474 1.06381,-1.22943 1.84857,-0.99328c0.78476,0.23617 1.22943,1.06381 0.99327,1.84856c-0.23617,0.78474 -1.06381,1.22944 -1.84855,0.99328c-0.78476,-0.23617 -1.22942,-1.06381 -0.99328,-1.84856z" fill="#312f31"/><path d="M523.84139,226.86168l-0.3161,-5.8874l1.56515,0.32136l0.29751,5.94919z" fill="#444144"/></g><path d="M478.42903,212.82687l-0.48575,-11.44927l28.27548,9.73834l-3.2308,9.10215z" fill="#444444"/><path d="M491.662,212.72048c0,0 0.75941,-0.31651 1.76948,-1.16638c0.92354,-0.77703 2.07981,-2.07684 2.58178,-2.41007c1.42568,-1.35303 3.56879,-0.22053 3.56879,-0.22053l-1.12623,0.34305l-5.69944,3.78329z" fill="#292929"/><path d="M491.30811,223.60992l-3.07607,-12.3833c0,0 3.19717,1.51705 5.13087,1.00343c1.50263,-0.39915 2.17098,-2.94657 3.76237,-2.76098c4.56581,0.53249 17.01915,3.82731 17.01915,3.82731c0,0 1.04359,7.77561 1.09947,10.8074c0.03858,2.09303 -0.84463,6.45559 -0.84463,6.45559z" fill="#4a464a"/><path d="M499.04746,212.2498c-4.18401,-1.92345 -2.41123,-2.81429 -2.41123,-2.81429c0,0 1.13437,-1.01853 2.96458,-0.62034c4.49133,0.97715 12.60143,4.02041 14.258,4.49218c0.78124,0.22248 0.13135,0.76615 0.13135,0.76615c0,0 -2.11378,1.85551 -3.67185,1.65189c-1.55806,-0.20362 -7.08685,-1.55213 -11.27085,-3.47561z" fill="#5e595e"/></g><g><path d="M478.11005,226.50448l0.22649,-18.66198l18.02306,5.72318l3.34846,5.52787l5.86885,1.66337l-1.02547,13.7053z" fill="#4d4846"/><path d="M482.49001,228.22694l22.48638,-3.04019l21.44449,6.20073c0,0 0.05089,4.38351 -0.20261,5.72182c-0.12927,0.68232 -0.99683,2.77452 -0.99683,2.77452z" fill="#423d3b"/><path d="M481.23319,219.16945l-0.20703,-10.34471l0.7857,0.23646l0.20704,10.34471z" fill="#363332"/><path d="M483.28176,227.62811l0.35085,-1.16574c0,0 5.77469,-0.92029 14.45498,1.6921c1.15332,0.34711 4.48782,4.00887 5.65026,4.35872c7.37536,2.21966 14.59437,4.39228 17.34078,5.21883c2.23667,0.67316 4.89533,0.11569 4.89533,0.11569l-0.72551,2.41057z" fill="#312e2c"/><path d="M489.22268,216.1114l-0.33952,-4.92204l7.95524,2.39419l2.70454,5.43118l5.98303,2.0033l-7.82932,-0.32123z" fill="#585350"/><path d="M478.11327,220.10487l0.32515,-1.08034c0,0 8.78336,-1.26606 11.53851,-0.43686c4.15238,1.2497 15.61581,4.69971 15.61581,4.69971l-0.32514,1.08034c0,0 -11.65995,-3.50915 -15.81226,-4.75881c-2.69855,-0.81215 -11.34208,0.49598 -11.34208,0.49598z" fill="#2b2827"/></g></g></g><g><g><g><path d="M145.38584,164.51175c-0.12597,2.29505 -1.16852,4.68558 -2.28935,4.62403c-1.12082,-0.06152 -1.89553,-2.55173 -1.76956,-4.84681c0.12597,-2.29505 0.55218,-11.11691 1.67304,-11.0554c1.12082,0.06152 2.51187,8.98309 2.38591,11.2782z" fill="#615e5f" stroke-width="0"/><g><path d="M193.83889,147.83909c-0.36439,-0.66067 -2.22754,-2.59192 -2.22754,-2.59192l10.32911,0.10103l-7.82039,5.16542c0,0 0.08323,-2.01386 -0.28117,-2.67451z" fill="#756a6a" stroke-width="0"/><path d="M185.68438,143.61256l3.9578,-13.15068l19.43775,-0.27664l-5.64849,18.76845z" fill="#8a7c7c" stroke-width="0"/><path d="M145.77736,137.29062l11.60965,-15.44275l33.48966,9.93975l0.6906,13.43572c0,0 -22.46873,-5.11627 -30.1072,-6.43956c-3.17079,-0.54932 -15.68273,-1.49314 -15.68273,-1.49314z" fill="#7c787a" stroke-width="0"/><path d="M156.80729,124.18478l0.28508,-1.46133c0,0 24.82435,7.47106 32.62842,9.81975c4.36639,1.3141 17.29891,-1.44637 17.29891,-1.44637l-0.46963,1.5605c0,0 -12.64525,2.8268 -16.86391,1.54185c-7.73541,-2.35611 -32.87887,-10.01439 -32.87887,-10.01439z" fill="#535353" stroke-width="0"/><path d="M114.8549,128.72348l5.80816,-19.29892c0,0 6.37181,-5.44902 13.97034,-5.55989c9.43766,-0.13768 25.09545,6.43885 27.07825,7.03559c1.52158,0.45794 -15.36194,6.25491 -15.36194,6.25491l-5.80816,19.29894z" fill="#8d898b" stroke-width="0"/><path d="M293.76259,134.37986l2.44077,-2.54899l102.96039,31.13588l-4.2497,14.1206c0,0 -36.7096,-9.12072 -48.29201,-13.04109c-5.75216,-1.94696 -52.85943,-29.6664 -52.85943,-29.6664z" fill="#c98cac" stroke-width="0"/><path d="M243.91053,224.85156l-0.62275,-13.697c0,0 3.23719,7.07245 5.6537,8.92429c1.53961,1.17985 5.47644,2.76335 12.03039,2.1904c5.27618,-0.46124 11.81372,-4.24867 11.81372,-4.24867l-15.46547,10.8667z" fill="#a08e97" stroke-width="0"/><path d="M344.08178,206.00416l4.56867,-23.29301l18.16475,4.00191l-6.10874,20.29771c0,0 -6.62139,-0.19746 -9.47042,-0.32569c-1.31182,-0.05903 -7.15422,-0.68089 -7.15422,-0.68089z" fill="#96858d" stroke-width="0"/><path d="M241.07134,227.9089l1.59661,-5.30512c0,0 10.9553,5.45726 16.27837,3.79967c2.59058,-0.8067 24.75989,-15.99463 37.00178,-24.4577c4.77737,-3.30269 8.04287,-5.58124 8.04287,-5.58124c0,0 4.30421,-2.645 5.13869,-5.40376c0.41978,-1.38779 2.07403,-5.25378 1.94387,-7.70671c-0.13132,-2.47486 -2.04896,-3.53061 -2.04896,-3.53061l-0.75407,-14.40058l18.9339,5.84834l-10.4441,24.60747l2.86044,3.53625c0,0 -10.87879,2.99189 -16.73949,6.40336c-9.16985,5.33763 -40.3234,27.69287 -40.3234,27.69287z" fill="#918189" stroke-width="0"/><path d="M321.78339,199.66165l9.40541,-27.04057l13.11172,4.23405l6.4651,14.47966l-6.85112,14.98743z" fill="#96858d" stroke-width="0"/><path d="M316.91788,200.12845l-1.20806,-4.69304l10.93646,-24.05886l4.88873,1.38284l-8.88533,27.17916z" fill="#8f8187" stroke-width="0"/><path d="M342.7027,206.06566c0,0 4.55637,-5.59119 4.82039,-11.16228c0.152,-3.20781 -3.98288,-6.50923 -3.88971,-8.47573c0.17804,-3.75651 0.45344,-9.5679 0.45344,-9.5679l6.2642,6.44258c0,0 1.18271,7.88932 0.52697,12.14229c-0.44053,2.85736 -3.69877,8.53527 -5.33506,10.75683c-0.13795,0.18728 -1.24021,-0.23142 -1.33728,-0.08798c-0.23715,0.35038 0.61947,0.84975 0.61947,0.84975z" fill="#86787e" stroke-width="0"/><path d="M349.71326,184.67676c0,0 -1.81993,-4.67788 -6.02376,-6.95775c-4.75921,-2.58103 -21.07273,-7.73727 -21.07273,-7.73727l155.13218,31.87806l0.58992,9.89147l4.37075,12.95178c0,0 -95.77459,-31.50946 -115.48946,-37.4428c-6.43324,-1.93613 -17.50689,-2.58347 -17.50689,-2.58347z" fill="#df8db7" stroke-width="0"/><path d="M188.41281,185.50732l5.85809,-36.11378c0,0 2.69271,-3.10646 3.23478,-3.16854c5.97641,-0.68455 39.72358,-1.65184 44.84955,0.18981c5.61522,2.01744 -12.29932,9.083 -12.29932,9.083c0,0 -14.3823,-2.21277 -18.03713,1.12545c-4.96213,4.53235 -5.32151,22.54661 -5.32151,22.54661z" fill="#c77da3" stroke-width="0"/><path d="M266.38577,177.71894l-1.10685,-2.53167c0,0 8.76104,-6.35117 11.7521,-7.8453c3.08799,-1.54255 6.49432,-1.26939 6.49432,-1.26939l5.02018,3.91504c0,0 -4.14132,-1.77121 -6.8994,-0.80895c-2.3677,0.82606 -6.84785,2.69281 -10.42043,4.84695c-2.59879,1.56698 -4.83991,3.69329 -4.83991,3.69329z" fill="#414041" stroke-width="0"/><path d="M156.80301,123.09082l7.96514,-9.81027l46.56531,14.01417c0,0 -4.05963,3.43116 -7.61349,4.41482c-3.488,0.96545 -13.51577,1.43359 -13.51577,1.43359z" fill="#979395" stroke-width="0"/><path d="M157.89842,122.22697l7.1991,-10.04083l46.56531,14.01418c0,0 -4.05964,3.43115 -7.6135,4.41481c-3.488,0.96545 -13.51578,1.4336 -13.51578,1.4336z" fill="#bdb7ba" stroke-width="0"/><path d="M344.91628,207.06677l-1.64546,-1.03146l17.33717,0.85799c0,0 -4.00224,0.94405 -6.61046,0.9913c-2.60823,0.04727 -9.08123,-0.81784 -9.08123,-0.81784z" fill="#887980" stroke-width="0"/><path d="M190.65919,186.66843c0,0 0.77512,-10.69589 2.08565,-19.21822c1.31697,-8.56394 2.57635,-16.58814 3.58828,-20.02711c0.17145,-0.58262 4.61151,-9.61701 5.24036,-9.97225c3.39428,-1.9176 8.57603,7.72858 14.22212,8.27534c8.35996,0.80961 26.80588,5.82416 26.80588,5.82416l-9.62552,2.6491c0,0 -19.45012,-2.86161 -23.22081,1.36844c-5.1002,5.72155 -3.86592,27.89057 -3.86592,27.89057z" fill="#d486ae" stroke-width="0"/><path d="M192.75682,183.62497c0,0 5.40024,-41.05721 9.57491,-50.32426c1.95329,-4.33595 1.3656,-14.02422 1.3656,-14.02422l46.50932,21.27474l-3.26768,15.79857c0,0 -29.79142,-12.19619 -37.6805,-8.01853c-5.26623,2.78872 -6.88536,31.79584 -6.88536,31.79584z" fill="#e490bb" stroke-width="0"/><g stroke-width="0"><path d="M343.46204,163.19608l2.38473,-7.92381l8.96288,2.69745l-2.38473,7.92382z" fill="#454545"/><path d="M344.47948,162.7036l1.76161,-7.09127l10.84565,3.26408l-2.10324,6.98846z" fill="#b0b0b0"/><path d="M345.55241,158.33857l0.5968,-2.7761l11.05312,3.32652l-0.54969,1.82647c0,0 -7.55516,-1.93705 -9.22239,-2.29405c-0.5571,-0.11928 -1.87785,-0.08284 -1.87785,-0.08284z" fill="#bebebe"/><path d="M355.38458,165.41168c0,0 -4.5692,-4.04371 -2.94238,-7.46783c2.41742,-5.0882 6.226,-3.44272 6.226,-3.44272l38.15081,12.87418l-2.89936,9.63378z" fill="#9c989a"/><path d="M357.46758,164.69223c0,0 -1.36713,-4.0863 -1.33383,-5.04417c0.04938,-1.41986 2.8118,-3.67683 2.8118,-3.67683l39.82139,12.01937l-2.54116,7.05568z" fill="#898587"/><path d="M357.32394,164.85605l-0.41743,-2.15095l36.60969,11.01797l-0.5589,1.85711z" fill="#c1bcbf"/><path d="M358.186,161.57117c0,0 -0.88253,-1.6942 -0.61241,-2.59178c0.2527,-0.8396 2.18435,-2.63136 2.18435,-2.63136l37.02618,11.1433l-1.57194,5.22312z" fill="#0d0d0d"/><path d="M357.96198,162.31549c0,0 -0.70853,-2.27235 -0.43839,-3.16994c0.2527,-0.8396 2.01033,-2.0532 2.01033,-2.0532l37.02618,11.1433l-1.57193,5.22313z" fill="#2e2e2e"/><path d="M352.79221,162.74724c-1.64302,-3.69731 0.14607,-5.59894 0.14607,-5.59894c0,0 0.56939,4.4659 1.49379,5.68147c1.09445,1.43917 4.15747,3.78751 4.15747,3.78751l-3.38014,-0.944c0,0 -2.12805,-2.27535 -2.41719,-2.92601z" fill="#7d7a7c"/><path d="M360.36246,163.36134c0,0 -0.21373,-2.37432 0.11584,-3.46936c0.28969,-0.96258 1.75737,-2.75486 1.75737,-2.75486l4.6187,1.39004c0,0 -1.07672,1.9776 -1.32693,2.80897c-0.34391,1.14266 -0.54629,3.41523 -0.54629,3.41523z" fill="#555555"/><path d="M368.61354,165.84459c0,0 1.3655,-2.22393 1.69506,-3.31896c0.28969,-0.96258 0.17817,-2.90526 0.17817,-2.90526l5.15494,1.55141c0,0 -0.89325,1.52223 -1.14346,2.35364c-0.34391,1.14266 -0.72974,3.87058 -0.72974,3.87058z" fill="#555555"/><path d="M377.54451,168.53243c0,0 1.36552,-2.22394 1.69509,-3.31896c0.28969,-0.96258 0.17816,-2.90525 0.17816,-2.90525l5.07834,1.52835c0,0 -0.89325,1.52223 -1.14346,2.35364c-0.34391,1.14266 -0.72974,3.87057 -0.72974,3.87057z" fill="#555555"/><path d="M386.79783,171.31729c0,0 1.43329,-1.8322 1.76284,-2.92728c0.28969,-0.96258 0.11038,-3.29695 0.11038,-3.29695l4.92513,1.48224c0,0 0.22153,2.1362 -0.02869,2.96764c-0.34391,1.14266 -1.84454,3.2566 -1.84454,3.2566z" fill="#555555"/><path d="M361.77791,157.73453l-0.40635,-0.95774l34.05379,10.24875l-1.6997,0.32391c0,0 -2.71001,-0.81561 -5.06775,-1.52518c-0.5139,-0.15468 -1.3917,-0.76215 -2.16144,-0.99386c-0.74431,-0.22402 -1.37329,-0.06996 -2.29848,-0.34842c-1.44276,-0.43421 -3.07059,-0.92413 -4.77473,-1.437c-0.70653,-0.21264 -1.21077,-0.76494 -1.9358,-0.98313c-0.64472,-0.19402 -1.50911,-0.05365 -2.15685,-0.24858c-1.60763,-0.48384 -3.19944,-0.96291 -4.69607,-1.41331c-0.68724,-0.20684 -1.2281,-0.82739 -1.86751,-1.01983c-0.78058,-0.23494 -1.64616,-0.03764 -2.33006,-0.24347c-2.78985,-0.83962 -4.65904,-1.40217 -4.65904,-1.40217z" fill="#474747"/></g><g><path d="M201.478,179.53594l4.38576,-1.67458c0,0 1.89385,3.50957 4.34969,5.18332c2.17212,1.48034 9.63906,4.35026 9.63906,4.35026l-3.79729,3.40442z" fill="#6d6a6b" stroke-width="0"/><path d="M191.88765,183.43786l10.96815,-4.41144c0,0 2.44719,3.09302 4.33318,4.35186c2.85325,1.9044 11.12049,5.96284 11.12049,5.96284l-5.33759,2.89179z" fill="#615e5f" stroke-width="0"/><path d="M187.47088,205.04926l5.08494,-22.04286c0,0 3.94125,2.01318 8.54948,3.43098c3.5969,1.10665 7.71707,1.462 9.92012,2.76033c3.86762,2.27929 32.41053,23.77264 32.41053,23.77264l-0.55894,10.45741z" fill="#575455" stroke-width="0"/><path d="M215.93947,185.37709c8.24299,-3.33102 19.84681,-13.88682 21.79283,-15.98647c1.40195,-1.51264 3.58076,-6.3667 3.58076,-6.3667l5.41291,8.74579c0,0 -0.30528,21.313 -2.81945,33.76343c-0.70349,3.48374 0.57022,7.98708 -0.98831,9.04945c-1.39642,0.95186 -18.29804,-1.74345 -23.24301,-4.03034c-10.40653,-4.81261 -16.75675,-3.81066 -18.8223,-9.94138c-2.06557,-6.13072 6.54098,-10.08859 6.54098,-10.08859c0,0 6.39968,-4.278 8.54564,-5.14522z" fill="#504e4f" stroke-width="0"/><path d="M230.00109,155.32943c0,0 0.80924,-1.31538 1.82109,-1.70377c1.30132,-0.49949 5.33925,-1.04462 5.33925,-1.04462c0,0 8.37376,4.67909 10.53871,7.93099c1.99749,3.00028 -6.97968,11.03527 -6.97968,11.03527l-0.37629,-5.71216z" fill="#464445" stroke-width="0"/><path d="M238.63939,207.24913c0,0 -10.69321,3.31475 -18.86703,1.03378c-7.88534,-2.20044 -13.2714,-9.97429 -12.75904,-11.30535c0.27758,-0.72116 8.82175,-1.60148 13.36735,-4.64193c5.05289,-3.37974 6.2283,-8.98012 8.10123,-10.51598c5.22871,-4.28776 16.24874,-11.60068 16.97445,-17.69367c0.76105,-6.38986 -8.90411,-11.46443 -8.90411,-11.46443c0,0 4.33674,-1.04628 9.14831,0.26618c2.04954,0.55905 6.00482,3.19667 6.778,3.83139c2.53546,2.08134 3.97017,4.22189 3.97017,4.22189c0,0 4.90952,-3.61795 8.44799,-2.8762c3.53848,0.74176 20.71607,8.98971 20.71607,8.98971l-19.15222,7.38798z" fill="#555354" stroke-width="0"/><path d="M227.93094,182.27519c0,0 7.55816,-9.07984 13.65413,-12.9209c6.09598,-3.84107 10.91794,-5.71126 14.30041,-4.69327c2.44942,0.73716 3.11527,9.93466 3.11527,9.93466l-18.89795,24.35641c0,0 -14.94583,-1.07366 -15.64551,-3.87482c-0.5526,-2.21235 3.47366,-12.80206 3.47366,-12.80206z" fill="#585758" stroke-width="0"/><path d="M241.66192,214.91691c0,0 -0.97185,-6.75784 0.21152,-9.55781c1.65318,-3.91153 6.68254,-15.6125 6.68254,-15.6125l-1.13379,10.55685c0,0 -3.42242,9.14937 -4.16852,12.08894c-0.71988,2.83621 0.01756,5.32469 0.01756,5.32469z" fill="#3f3e3f" stroke-width="0"/><path d="M245.92125,197.54199c0.2955,-1.66006 2.77327,-8.96693 2.77327,-8.96693c0,0 13.35099,-11.19534 16.12399,-13.13142c0.81295,-0.56757 4.52506,-1.25801 4.52506,-1.25801l-2.97528,4.17355c0,0 -1.68113,0.1248 -1.99102,0.53055c-0.33017,0.43229 0.067,1.98857 0.067,1.98857l-7.35514,6.64224c0,0 -1.87183,0.49202 -2.18904,0.92431c-0.31732,0.43239 0.08522,1.48104 0.08522,1.48104c0,0 -6.26759,7.45112 -7.77023,9.52064c-0.69476,0.95687 -0.88253,2.39645 -0.88253,2.39645c0,0 -0.7068,-2.6409 -0.41128,-4.301z" fill="#474647" stroke-width="0"/><path d="M239.39493,173.68045l17.79203,13.95483c0,0 -1.43022,0.6267 -1.81269,1.07452c-0.28223,0.33044 -0.27415,1.36892 -0.27415,1.36892z" fill="#3f3e3e" stroke-width="NaN"/><path d="M248.12397,165.49587l18.46905,12.92999c0,0 -1.31075,0.48619 -1.67312,0.9581c-0.37775,0.49196 -0.33496,1.63189 -0.33496,1.63189z" fill="#3f3e3e" stroke-width="NaN"/><path d="M227.94646,189.37401c0,0 8.02176,10.44807 11.92782,17.86606c3.90606,7.41803 1.69992,8.01435 1.69992,8.01435z" fill="#636162" stroke-width="NaN"/><path d="M247.31423,171.12472c0,0 -6.58297,1.05154 -10.1079,3.22378c-3.52494,2.17224 -16.16907,15.26683 -15.3202,12.44626c0.84886,-2.82056 19.38549,-18.88102 21.10429,-18.36376c0.65064,0.19582 3.88726,-0.02298 4.60253,0.44027c1.17422,0.76054 -0.27871,2.25341 -0.27871,2.25341z" fill="#918f91" stroke-width="0"/><path d="M187.07132,204.79388l13.89545,2.20998c0,0 12.15727,3.31181 15.11619,4.36426c7.20585,2.563 28.27594,11.06955 28.27594,11.06955l-2.2497,5.92408c0,0 -24.35494,-3.60637 -30.5777,-6.85309c-1.80024,-0.93927 -7.192,-3.20741 -10.87751,-5.7287c-7.21238,-4.93404 -13.58265,-10.98608 -13.58265,-10.98608z" fill="#626061" stroke-width="0"/><path d="M241.24827,227.73521c0,0 1.27583,-4.09886 1.52024,-6.46883c0.27472,-2.66374 0.04787,-8.73559 0.04787,-8.73559l1.70672,0.51364c0,0 0.36182,4.76317 0.11312,7.17466c-0.27193,2.63657 -1.68122,8.02978 -1.68122,8.02978z" fill="#4a494a" stroke-width="0"/><path d="M240.82028,228.47977l1.06353,-3.2276c0,0 0.46642,0.41681 0.72642,0.49507c0.30892,0.09298 0.9661,0.01433 0.9661,0.01433l-0.74908,3.09187c0,0 -0.86107,0.16653 -1.22677,0.09844c-0.28022,-0.05215 -0.78014,-0.47209 -0.78014,-0.47209z" fill="#363536" stroke-width="0"/><path d="M242.78428,213.59186l0.09757,-1.66306c0,0 0.5018,-0.21909 0.87172,-0.16961c0.35229,0.04712 0.81717,0.31522 0.81717,0.31522l-0.02007,1.80728c0,0 -0.60762,0.34707 -0.91026,0.29739c-0.28512,-0.04677 -0.85612,-0.5872 -0.85612,-0.5872z" fill="#585758" stroke-width="0"/><path d="M201.30003,215.2622c0,0 -6.70921,-5.10285 -6.31641,-6.40804c0.39479,-1.31169 6.70475,-0.63535 6.70475,-0.63535c0,0 10.54898,2.92337 15.24591,4.51719c2.62954,0.8923 10.53671,4.23169 10.53671,4.23169c0,0 6.67863,3.11091 7.12723,4.44866c0.48932,1.45922 -4.02978,3.06669 -4.02978,3.06669c0,0 -12.56043,-2.41622 -16.29701,-3.75824c-1.32736,-0.47675 -12.97136,-5.46254 -12.97136,-5.46254z" fill="#6b696a" stroke-width="0"/><path d="M193.34646,205.66124l-1.94497,-0.34431c0,0 1.58966,-3.10844 3.83629,-1.13506c2.24663,1.97341 20.70709,6.47298 20.70709,6.47298z" fill="#4b4949" stroke-width="0"/><path d="M187.18267,204.67696c0,0 -1.96823,-0.39227 -1.43081,-4.03467c0.27203,-1.84375 2.69589,-15.93523 2.69589,-15.93523l4.41294,-1.69944c0,0 -1.07446,5.93592 -1.71342,8.77446c-0.84984,3.77521 -3.0806,13.16092 -3.0806,13.16092z" fill="#3f3d3e" stroke-width="0"/><path d="M193.6068,205.91286c0,0 3.67918,-1.14646 19.15149,3.15798c1.27773,0.35549 -1.70979,-0.54802 7.14495,2.64668c8.85474,3.19467 12.16123,5.76948 12.16123,5.76948c0,0 -14.11881,-5.36592 -20.05846,-7.1535c-6.77049,-2.03762 -18.39922,-4.42062 -18.39922,-4.42062z" fill="#838082" stroke-width="0"/><path d="M206.98283,178.99342c0,0 -4.81556,0.83507 -7.36393,1.75526c-2.86429,1.03426 -8.98499,4.14822 -8.98499,4.14822l-0.28961,-1.75975c0,0 4.71355,-2.60585 7.30654,-3.54217c2.83503,-1.02369 9.04237,-2.36132 9.04237,-2.36132z" fill="#4a494a" stroke-width="0"/><path d="M207.95151,179.01573l-3.89428,0.58301c0,0 0.2786,-0.59122 0.23447,-0.85928c-0.05242,-0.31852 -0.44754,-0.86353 -0.44754,-0.86353l3.53043,-0.81904c0,0 0.58286,0.68366 0.68797,1.04057c0.08055,0.2735 -0.11104,0.91825 -0.11104,0.91825z" fill="url(#color-3)" stroke-width="0"/><path d="M191.73782,184.41637l-3.61247,1.76355l0.49128,-2.13149l2.57336,-1.33734c0,0 0.64677,0.37231 0.74062,0.66446c0.08844,0.27525 -0.19281,1.04081 -0.19281,1.04081z" fill="url(#color-4)" stroke-width="0"/></g><path d="M323.19924,198.94269c0,0 2.16146,-3.96394 3.04375,-5.14905c0.59892,-0.8045 3.2842,-1.49143 3.2842,-1.49143l16.36023,4.69586c0,0 -2.8938,5.18369 -3.65247,6.3822c-0.33235,0.52502 -1.55268,0.88106 -1.55268,0.88106z" fill="#665b60" stroke-width="0"/><path d="M281.90894,167.45065c0,0 -3.18295,-2.58962 -7.57027,-5.11329c-2.789,-1.60432 -6.71452,-3.3776 -8.52706,-3.81263c-5.26963,-1.26481 -9.15294,2.89757 -9.15294,2.89757c0,0 -2.46701,-3.16082 -4.23891,-4.58663c-1.65399,-1.33095 -5.53396,-3.54396 -5.53396,-3.54396c0,0 24.98473,2.20249 28.83968,2.75686c7.39027,1.06274 32.82668,9.12677 32.82668,9.12677l1.84289,15.47328z" fill="#8b7c84" stroke-width="0"/><g stroke-width="0"><path d="M324.86388,198.45915c0,0 1.19974,-2.35024 1.85056,-3.08877c0.67483,-0.7658 3.06921,-1.14423 3.06921,-1.14423l13.91357,4.18738c0,0 0.08664,1.05257 -0.35137,1.69124c-0.59557,0.86834 -4.04608,2.69897 -4.04608,2.69897z" fill="#585852"/><path d="M325.07869,197.74543c0,0 0.98492,-1.63647 1.63576,-2.37502c0.67483,-0.7658 3.28401,-1.85797 3.28401,-1.85797l13.91357,4.18739c0,0 -0.12815,1.76634 -0.5662,2.40499c-0.59557,0.86834 -3.83126,1.98521 -3.83126,1.98521z" fill="#797971"/><path d="M342.07989,197.66594c-0.95308,-0.47267 -12.00434,-4.08202 -12.00434,-4.08202l13.89454,4.18167l-0.70948,2.35738c0,0 -0.22763,-1.98435 -1.18071,-2.45704z" fill="#85857b"/></g><path d="M331.47025,181.47432l1.49563,-4.96957l6.83316,2.05649l-0.25323,5.34349z" fill="#7c6e75" stroke-width="0"/><path d="M329.10345,153.1677l-1.65618,-8.98997l1.32079,0.39753l3.3794,9.9802z" fill="#d495b6" stroke-width="0"/><path d="M293.95321,134.62194l13.54861,0.85101l20.12851,8.78608l1.50101,8.90255z" fill="#df9cbe" stroke-width="0"/><path d="M330.17668,186.33529l0.46739,-1.55297l10.40503,3.13147l0.4644,1.83342z" fill="#7c6e75" stroke-width="0"/><path d="M294.82876,163.00443c0,0 -17.70965,-4.07834 -23.2476,-5.22272c-8.38563,-1.73283 -25.40179,-4.42568 -25.40179,-4.42568c0,0 15.66604,0.07742 29.03732,2.51835c14.49784,2.64656 57.09858,13.94561 57.09858,13.94561l-1.55883,5.17959z" fill="#75686e" stroke-width="0"/><path d="M285.67631,169.409l-2.94113,-1.48126c0,0 10.04309,0.5325 14.93628,2.80172c4.89317,2.26922 12.30417,9.83113 12.30417,9.83113z" fill="#7c6e76" stroke-width="0"/><path d="M242.35264,152.16165c0,0 -26.54734,-24.06824 -26.06957,-28.74927c0.43404,-4.25214 27.87986,10.84266 28.1962,10.82483c5.53496,-0.312 76.44742,13.49511 76.44742,13.49511l23.52322,14.16965l50.68809,14.6582l3.08591,15.10565c0,0 -59.28424,-16.62137 -82.08916,-23.31442c-7.9162,-2.32334 -23.84771,-7.79442 -38.83095,-11.11293c-11.55759,-2.55979 -29.73753,-3.5233 -29.73753,-3.5233z" fill="#ee96c3" stroke-width="0"/><path d="M115.08483,126.95851l8.99394,-18.34014c0,0 1.93568,-6.7841 9.53423,-6.89498c9.43766,-0.13768 25.09545,6.43886 27.07826,7.0356c1.52158,0.45795 -15.36195,6.2549 -15.36195,6.2549l-5.80815,19.29893z" fill="#c4b4b3" stroke-width="0"/><g stroke-width="0"><path d="M389.57562,190.50631l1.62808,-15.32382l86.87195,33.20897l-2.39814,5.34249l-46.81612,-9.01733z" fill="#ad6d8e"/><path d="M418.93483,184.37074l9.34829,-5.82581l26.25233,5.67747l-7.12005,8.71982z" fill="#8d788b"/><path d="M394.20192,178.16849l4.67884,-15.54648l29.46843,15.94713l-6.36402,5.25804z" fill="#857183"/><path d="M435.77803,187.21313l18.69706,-3.00759l25.57318,11.63626l-2.26069,6.51908z" fill="#947e92"/><path d="M390.38512,176.38429l6.44987,-11.39042l2.26837,-2.51689l-4.34123,14.42473z" fill="#756474"/><path d="M391.72701,187.79698l2.78852,-11.7684l41.95135,10.90368l-5.8015,15.02248z" fill="#746373"/><path d="M430.66243,201.93768c0,0 2.1816,-5.93035 3.19158,-8.59657c0.86469,-2.28275 2.50032,-6.42968 2.50032,-6.42968l42.06277,13.60848l-0.50565,8.62z" fill="#867284"/><path d="M390.44416,176.32851l4.29791,-0.30525l-2.9885,11.78967z" fill="#6f5e6d"/><path d="M473.17008,193.65933l-18.00803,-8.93233l24.54536,11.18459l-1.36997,3.29024c0,0 0.15198,-1.5931 -0.80196,-2.61628c-0.63812,-0.68445 -4.36545,-2.92625 -4.36545,-2.92625z" fill="#978195"/><path d="M434.36223,186.10847c0,0 8.63497,-1.02005 11.68554,-1.51605c2.22222,-0.3613 4.9334,-1.186 4.9334,-1.186l2.39387,0.83807l-16.47651,2.62729z" fill="#9c859a"/><path d="M420.35856,182.73811c0,0 2.05372,-2.25616 3.73586,-3.16c1.6821,-0.90386 4.12737,-1.01929 4.12737,-1.01929l-5.50609,4.8887z" fill="#806b7d"/><path d="M456.48837,182.9883l3.6951,-4.87529l13.47923,7.95542l3.51801,7.74233z" fill="#55494f"/><path d="M453.25554,184.93954c0,0 1.26423,-0.44472 1.96937,-0.84319c0.53114,-0.30013 1.58897,-1.42771 1.58897,-1.42771l20.21428,10.26086c0,0 0.68784,0.72599 1.15532,1.20678c0.48856,0.50245 1.71556,1.74583 1.71556,1.74583z" fill="#685960"/><path d="M457.28286,182.29569l2.90961,-3.91287l12.5874,7.26251c0,0 -7.2253,-3.77514 -11.58966,-4.82265c-2.53157,-0.60763 -3.90736,1.47301 -3.90736,1.47301z" fill="#41383c"/></g><path d="M127.97474,89.81734l1.50096,-4.98737c0,0 21.76208,5.19703 42.7722,11.57966c12.52012,3.80348 25.05382,9.24405 31.78234,10.90343c15.17134,3.74149 26.49637,2.43772 26.49637,2.43772l-9.13881,8.36428z" fill="#ffa1d1" stroke-width="0"/><path d="M121.48374,102.4398l6.70351,-14.77766c0,0 51.87768,17.7648 69.09464,22.48619c10.19862,2.79676 24.68819,3.23175 24.68819,3.23175l-4.21977,14.02113c0,0 -64.63719,-19.45306 -80.21919,-24.14259c-6.40671,-1.92816 -23.79511,24.92489 -23.79511,24.92489z" fill="#ee96c3" stroke-width="0"/><path d="M271.04572,227.33279l12.80449,-10.34466c0,0 14.06771,-12.32605 25.04698,-16.18857c2.79003,-0.98153 8.08508,-0.63747 8.08508,-0.63747c0,0 -8.43068,2.66873 -11.71988,4.59393c-7.76762,4.54649 -34.21662,22.57676 -34.21662,22.57676z" fill="#70646b" stroke-width="0"/><path d="M381.66723,192.91169l-0.84538,-19.05382l1.29284,0.38909c0,0 0.25603,5.7705 0.3913,8.81965c0.01929,0.43446 0.97443,1.99711 0.99831,2.53522c0.04139,0.93283 -0.84498,0.92038 -0.79874,1.963c0.12881,2.90318 0.2545,5.73595 0.2545,5.73595z" fill="#795467" stroke-width="0"/><path d="M218.23143,127.9969c0,0 -8.14901,-9.29514 -6.41057,-12.71411c1.04089,-2.04713 19.46061,-4.80801 19.46061,-4.80801l65.11376,21.34267l-2.45951,2.49311l26.87966,13.57059l-76.40861,4.75689c0,0 0.86004,-5.6037 5.13318,-7.30245c4.15305,-1.65102 20.15559,-2.75091 20.15559,-2.75091c0,0 -32.75154,-9.90798 -39.70816,-12.09216c-2.32089,-0.72869 -11.75598,-2.49562 -11.75598,-2.49562z" fill="#f399c8" stroke-width="0"/><g><path d="M229.00626,111.79947l0.93326,-3.10096l169.06312,50.88084l-0.93326,3.10095z" fill="#584f54" stroke-width="0"/><path d="M393.38067,158.14661l0.78857,-2.62024l2.92563,0.88048l1.79285,3.39713z" fill="#685d63" stroke-width="0"/><g fill="#685d63" stroke-width="0"><g><g><g><path d="M386.93137,156.46585l0.85795,-2.85069l3.71646,1.11849l-0.85796,2.8507z"/><path d="M380.90103,154.65099l0.85795,-2.85069l3.71646,1.11849l-0.85796,2.85069z"/></g><g><path d="M375.09823,152.90457l0.85795,-2.85071l3.71646,1.1185l-0.85796,2.8507z"/><path d="M369.06786,151.08967l0.85796,-2.8507l3.71645,1.1185l-0.85796,2.8507z"/></g></g><g><g><path d="M363.15128,149.30904l0.85796,-2.8507l3.71645,1.11849l-0.85796,2.8507z"/><path d="M357.12091,147.49418l0.85795,-2.8507l3.71646,1.11849l-0.85796,2.85071z"/></g><g><path d="M351.31814,145.74776l0.85795,-2.85071l3.71645,1.1185l-0.85796,2.8507z"/><path d="M345.28784,143.93289l0.85795,-2.85069l3.71645,1.11849l-0.85796,2.85071z"/></g></g></g><g><g><g><path d="M345.06027,143.86445l0.85795,-2.85069l3.71645,1.11849l-0.85796,2.85069z"/><path d="M339.02996,142.04955l0.85796,-2.8507l3.71645,1.1185l-0.85795,2.8507z"/></g><g><path d="M333.22712,140.30316l0.85796,-2.85071l3.71645,1.11849l-0.85795,2.8507z"/><path d="M327.19679,138.48827l0.85796,-2.85069l3.71645,1.11848l-0.85795,2.8507z"/></g></g><g><g><path d="M321.28025,136.70766l0.85795,-2.85071l3.71646,1.11849l-0.85796,2.8507z"/><path d="M315.24987,134.89276l0.85795,-2.8507l3.71646,1.1185l-0.85796,2.85071z"/></g><g><path d="M309.44708,133.14637l0.85795,-2.8507l3.71647,1.11848l-0.85796,2.85071z"/><path d="M303.41673,131.33147l0.85796,-2.85069l3.71645,1.11849l-0.85795,2.8507z"/></g></g></g></g><g><g fill="#685d63" stroke-width="0"><g><g><path d="M297.46148,129.53921l0.85796,-2.85072l3.71645,1.1185l-0.85795,2.8507z"/><path d="M291.43113,127.72431l0.85795,-2.8507l3.71646,1.1185l-0.85795,2.85071z"/></g><g><path d="M285.62832,125.97795l0.85796,-2.8507l3.71646,1.1185l-0.85796,2.85071z"/><path d="M279.59802,124.16306l0.85796,-2.85069l3.71645,1.11849l-0.85795,2.8507z"/></g></g><g><g><path d="M273.68144,122.38244l0.85795,-2.85071l3.71646,1.11849l-0.85796,2.8507z"/><path d="M267.65108,120.56754l0.85796,-2.85069l3.71645,1.11849l-0.85795,2.8507z"/></g><g><path d="M261.84826,118.82115l0.85796,-2.85069l3.71644,1.11849l-0.85795,2.85071z"/><path d="M255.81792,117.00627l0.85796,-2.8507l3.71645,1.11849l-0.85795,2.85071z"/></g></g></g><g><g fill="#685d63" stroke-width="0"><g><path d="M255.59039,116.93778l0.85795,-2.8507l3.71646,1.11849l-0.85796,2.8507z"/><path d="M249.56001,115.12288l0.85796,-2.85071l3.71645,1.11849l-0.85795,2.8507z"/></g><g><path d="M243.75724,113.37652l0.85795,-2.8507l3.71646,1.11849l-0.85795,2.85071z"/><path d="M237.72691,111.56162l0.85795,-2.8507l3.71645,1.11849l-0.85795,2.85069z"/></g></g><g fill="none" stroke-width="1" font-family="sans-serif" font-weight="normal" font-size="12" text-anchor="start"><g/><g/></g></g></g><path d="M229.93647,108.95681l3.37002,-1.84332l2.92563,0.8805l-0.78858,2.62025z" data-paper-data="{&quot;index&quot;:null}" fill="#685d63" stroke-width="0"/></g><path d="M274.95546,156.84915l-2.52142,-0.47686c0,0 2.34763,-1.97476 11.86066,-0.28942c7.2123,1.27777 27.28112,5.94806 39.28409,8.78163c5.57387,1.31582 62.27278,8.97905 62.27278,8.97905l4.98236,1.48455c0,0 -62.16501,-7.59267 -67.72814,-8.92954c-12.30159,-2.95618 -32.99617,-7.89235 -39.05066,-9.11037c-3.29582,-0.66305 -9.09963,-0.43902 -9.09963,-0.43902z" fill="#70475c" stroke-width="0"/><path d="M366.10103,204.15079l-5.24685,0.34852l5.45649,-18.12799c0,0 7.44693,2.29176 14.72992,4.53306c20.90724,6.43409 121.38885,37.35674 121.38885,37.35674l-1.93873,6.44186z" fill="#5a5959" stroke-width="0"/><path d="M364.75549,205.44639l1.91093,-2.56413l133.86748,31.71936l-14.5554,7.32777z" fill="#4b4a4a" stroke-width="0"/><path d="M482.88665,240.80138c0,0 -4.72634,-4.79003 -7.21858,-7.03146c-1.33567,-1.20123 -6.57259,-5.37169 -6.57259,-5.37169c0,0 6.82514,5.08647 9.75465,6.9581c1.04551,0.66795 1.90738,1.70305 3.00387,2.58459c0.35356,0.28423 2.89479,-1.83238 5.2072,-2.92674c0.69117,-0.32712 1.69713,0.35634 2.29555,0.19101c1.37187,-0.37906 2.03019,-1.32072 2.03019,-1.32072c0,0 0.05525,0.98738 -1.46176,1.79835c-0.4139,0.22128 -2.24189,0.03907 -2.65737,0.29036c-1.66517,1.00714 -3.08528,2.24967 -3.54787,2.72786c-1.29084,1.33442 0.56794,2.52211 0.56794,2.52211z" fill="#414040" stroke-width="0"/><path d="M218.09882,128.26761l6.8519,-9.5284l6.88877,1.42126c0,0 -1.67349,2.26189 -2.65976,3.59495c-0.24839,0.33576 11.60905,1.86152 11.75273,2.6055c0.26662,1.38036 -6.15262,3.37494 -6.77291,4.21332c-0.70913,0.95845 -9.15835,-1.17105 -9.15835,-1.17105z" fill="#303030" stroke-width="0"/><path d="M218.06799,127.87188l6.51116,-8.75886c0,0 2.49692,2.11388 2.21305,3.05705c-0.51648,1.71615 -3.69631,6.80272 -3.69631,6.80272z" fill="#252525" stroke-width="0"/><path d="M360.07151,207.03712l0.85086,-2.82712l6.14028,-1.23524l-2.03641,2.47031c0,0 -1.42893,0.96438 -2.30032,1.24437c-0.76675,0.24638 -2.65437,0.34765 -2.65437,0.34765z" fill="#383838" stroke-width="0"/><g><g fill="#4b4b4b" stroke-width="0"><g data-paper-data="{&quot;origPos&quot;:null}"><g data-paper-data="{&quot;origPos&quot;:null}"><path d="M423.96908,227.69927l0.65498,-2.17633l3.5909,1.0807l-0.65498,2.17633z" data-paper-data="{&quot;origPos&quot;:null}"/><path d="M418.017,225.78928l0.65498,-2.17633l3.59089,1.0807l-0.65498,2.17631z" data-paper-data="{&quot;origPos&quot;:null}"/></g><g data-paper-data="{&quot;origPos&quot;:null}"><path d="M435.90602,231.41049l0.65498,-2.17633l3.5909,1.0807l-0.65498,2.17632z" data-paper-data="{&quot;origPos&quot;:null}"/><path d="M429.95392,229.50047l0.65498,-2.17632l3.59091,1.0807l-0.65499,2.17633z" data-paper-data="{&quot;origPos&quot;:null}"/></g></g><g data-paper-data="{&quot;origPos&quot;:null,&quot;index&quot;:null}"><g data-paper-data="{&quot;origPos&quot;:null}"><path d="M454.36127,236.72739l0.65498,-2.17633l3.59091,1.0807l-0.65499,2.17632z" data-paper-data="{&quot;origPos&quot;:null}"/><path d="M460.37886,238.41974l0.65497,-2.17632l3.5909,1.0807l-0.65497,2.17631z" data-paper-data="{&quot;origPos&quot;:null}"/></g><g data-paper-data="{&quot;origPos&quot;:null}"><path d="M442.35888,233.23381l0.65499,-2.17633l3.59089,1.08071l-0.65498,2.17631z" data-paper-data="{&quot;origPos&quot;:null}"/><path d="M448.37645,234.92623l0.65498,-2.17631l3.5909,1.08069l-0.65498,2.17632z" data-paper-data="{&quot;origPos&quot;:null}"/></g></g></g><path d="M385.43605,207.49205l3.92258,-13.03366l80.89008,24.34448l-3.92257,13.03365z" data-paper-data="{&quot;origPos&quot;:null}" fill="#444444" stroke-width="0"/><path d="M384.16948,212.04231l1.37825,-4.57955l80.65234,24.27292l-1.37826,4.57956z" data-paper-data="{&quot;origPos&quot;:null}" fill="#414141" stroke-width="0"/><path d="M383.79236,213.41616l0.46619,-1.54899l80.64208,24.26985l-0.46618,1.54899z" data-paper-data="{&quot;origPos&quot;:null}" fill="#3f3f3f" stroke-width="0"/><g stroke-width="0"><g data-paper-data="{&quot;origPos&quot;:null}" fill="#5a5a5a"><g data-paper-data="{&quot;origPos&quot;:null}"><path d="M426.84897,220.03848l3.96258,-13.16664l3.41991,1.02925l-3.96259,13.16663z" data-paper-data="{&quot;origPos&quot;:null}"/></g><g data-paper-data="{&quot;origPos&quot;:null}"><path d="M432.66279,221.78819l3.96258,-13.16663l3.41992,1.02925l-3.96259,13.16663z" data-paper-data="{&quot;origPos&quot;:null}"/><path d="M438.64765,223.58938l3.9626,-13.16663l3.41991,1.02925l-3.9626,13.16663z" data-paper-data="{&quot;origPos&quot;:null}"/></g></g><g data-paper-data="{&quot;origPos&quot;:null}" fill="#5a5a5a"><g data-paper-data="{&quot;origPos&quot;:null}"><path d="M444.97446,225.49349l3.96258,-13.16663l3.41991,1.02925l-3.9626,13.16664z" data-paper-data="{&quot;origPos&quot;:null}"/><path d="M450.95929,227.29466l3.9626,-13.16662l3.41991,1.02925l-3.96259,13.16662z" data-paper-data="{&quot;origPos&quot;:null}"/></g><g data-paper-data="{&quot;origPos&quot;:null}"><path d="M456.77314,229.04439l3.9626,-13.16663l3.4199,1.02923l-3.9626,13.16663z" data-paper-data="{&quot;origPos&quot;:null}"/><path d="M462.75798,230.84556l3.9626,-13.16663l3.4199,1.02924l-3.96258,13.16663z" data-paper-data="{&quot;origPos&quot;:null}"/></g></g><path d="M430.3276,221.0854l-1.39803,1.59584l-5.03141,-1.46925l2.6898,-9.42099l4.16723,-4.93617l-3.89657,13.18652z" fill="#3a3a3a"/><path d="M436.13909,222.83441l-1.39804,1.59586l-5.03141,-1.46925l2.6898,-9.42099l4.16722,-4.93616l-3.89656,13.18651z" fill="#3a3a3a"/><path d="M442.08263,224.62316l-1.39804,1.59584l-5.03141,-1.46925l2.6898,-9.42098l4.16722,-4.93616l-3.89657,13.18652z" fill="#3a3a3a"/><path d="M448.48849,226.55107l-1.39803,1.59584l-5.03141,-1.46926l2.6898,-9.42099l4.16722,-4.93616l-3.89655,13.18652z" fill="#3a3a3a"/><path d="M454.49808,228.3597l-1.39803,1.59584l-5.03141,-1.46925l2.6898,-9.42099l4.16722,-4.93616l-3.89655,13.18652z" fill="#3a3a3a"/><path d="M460.24351,230.08882l-1.39804,1.59584l-5.0314,-1.46925l2.6898,-9.42099l4.16722,-4.93616l-3.89655,13.18653z" fill="#3a3a3a"/><path d="M466.2607,231.89975l-1.39803,1.59584l-5.03141,-1.46925l2.68981,-9.42098l4.16722,-4.93617l-3.89657,13.18652z" fill="#3a3a3a"/></g><g stroke-width="0"><g data-paper-data="{&quot;origPos&quot;:null}" fill="#5a5a5a"><g data-paper-data="{&quot;origPos&quot;:null}"><path d="M385.45396,207.58034l3.9626,-13.16663l3.41992,1.02925l-3.96259,13.16663z" data-paper-data="{&quot;origPos&quot;:null}"/></g><g data-paper-data="{&quot;origPos&quot;:null}"><path d="M391.26778,209.33007l3.96258,-13.16662l3.41991,1.02925l-3.9626,13.16663z" data-paper-data="{&quot;origPos&quot;:null}"/><path d="M397.25261,211.13124l3.9626,-13.16663l3.41992,1.02924l-3.9626,13.16663z" data-paper-data="{&quot;origPos&quot;:null}"/></g></g><g data-paper-data="{&quot;origPos&quot;:null}" fill="#5a5a5a"><g data-paper-data="{&quot;origPos&quot;:null}"><path d="M403.57945,213.03533l3.9626,-13.16663l3.41992,1.02925l-3.96259,13.16663z" data-paper-data="{&quot;origPos&quot;:null}"/><path d="M409.56434,214.83653l3.9626,-13.16664l3.41992,1.02926l-3.9626,13.16662z" data-paper-data="{&quot;origPos&quot;:null}"/></g><g data-paper-data="{&quot;origPos&quot;:null}"><path d="M415.37817,216.58625l3.9626,-13.16663l3.41992,1.02925l-3.9626,13.16663z" data-paper-data="{&quot;origPos&quot;:null}"/><path d="M421.36301,218.38746l3.9626,-13.16663l3.41992,1.02925l-3.9626,13.16665z" data-paper-data="{&quot;origPos&quot;:null}"/></g></g><path d="M388.93255,208.62725l-1.39804,1.59584l-2.62637,-0.74541l0.55542,-1.89444z" fill="#3a3a3a"/><path d="M394.7441,210.3763l-1.39803,1.59586l-5.03141,-1.46926l2.68981,-9.42098l4.16722,-4.93616l-3.89656,13.18652z" fill="#3a3a3a"/><path d="M400.68761,212.16503l-1.39803,1.59584l-5.03141,-1.46925l2.6898,-9.42098l4.16723,-4.93617l-3.89656,13.18653z" fill="#3a3a3a"/><path d="M407.09345,214.0929l-1.39803,1.59584l-5.03142,-1.46924l2.68981,-9.42099l4.16723,-4.93617l-3.89656,13.18652z" fill="#3a3a3a"/><path d="M413.10311,215.90158l-1.39804,1.59585l-5.03141,-1.46925l2.6898,-9.42099l4.16723,-4.93617l-3.89657,13.18653z" fill="#3a3a3a"/><path d="M418.84853,217.63068l-1.39803,1.59585l-5.03141,-1.46925l2.6898,-9.42098l4.16723,-4.93617l-3.89656,13.18652z" fill="#3a3a3a"/><path d="M424.86575,219.44165l-1.39803,1.59586l-5.03141,-1.46925l2.6898,-9.42099l4.16723,-4.93616l-3.89656,13.18652z" fill="#3a3a3a"/></g><g><g data-paper-data="{&quot;origPos&quot;:null}"><g data-paper-data="{&quot;origPos&quot;:null}" fill="none" stroke-width="1" font-family="sans-serif" font-weight="normal" font-size="12" text-anchor="start"/><g data-paper-data="{&quot;origPos&quot;:null}" fill="#4b4b4b" stroke-width="0"><path d="M389.21575,217.439l0.65499,-2.17632l3.59089,1.0807l-0.65497,2.17632z" data-paper-data="{&quot;origPos&quot;:null}"/><path d="M383.26366,215.52903l0.65498,-2.17633l3.5909,1.0807l-0.65498,2.17633z" data-paper-data="{&quot;origPos&quot;:null}"/></g></g><g data-paper-data="{&quot;origPos&quot;:null,&quot;index&quot;:null}" fill="#4b4b4b" stroke-width="0"><g data-paper-data="{&quot;origPos&quot;:null}"><path d="M407.67106,222.75594l0.65498,-2.17632l3.5909,1.0807l-0.65498,2.17632z" data-paper-data="{&quot;origPos&quot;:null}"/><path d="M413.68864,224.44826l0.65497,-2.17631l3.5909,1.0807l-0.65498,2.17632z" data-paper-data="{&quot;origPos&quot;:null}"/></g><g data-paper-data="{&quot;origPos&quot;:null}"><path d="M395.66856,219.26236l0.65498,-2.17632l3.5909,1.0807l-0.65498,2.17632z" data-paper-data="{&quot;origPos&quot;:null}"/><path d="M401.68615,220.95468l0.65499,-2.17632l3.59091,1.0807l-0.65498,2.17632z" data-paper-data="{&quot;origPos&quot;:null}"/></g></g></g></g><path d="M230.70024,130.3955l2.21027,-3.73669c0,0 5.3225,-1.68508 8.74706,-0.81109c3.91494,0.99913 32.60519,9.65976 32.60519,9.65976c0,0 0.09337,1.98693 -0.30811,3.13725c-0.51724,1.48202 -3.42671,3.8068 -3.42671,3.8068z" fill="#242424" stroke-width="0"/><path d="M255.62826,133.91894l0.90788,-3.01665l17.23805,5.18791l-0.90789,3.01666z" fill="#313131" stroke-width="0"/><path d="M251.91785,134.81842l0.18796,-0.62457c0,0 1.32549,-0.69883 2.30517,-0.40398c0.93027,0.27999 2.88858,1.36532 5.18935,2.22837c4.38299,1.64409 9.7433,3.36348 9.7433,3.36348l-0.18797,0.62457c0,0 -5.19737,-1.56632 -9.51815,-3.19109c-2.3576,-0.88655 -4.3656,-2.08506 -5.33062,-2.3755c-1.01435,-0.30528 -2.38902,0.37874 -2.38902,0.37874z" fill="#616161" stroke-width="0"/><path d="M282.42752,127.59351l11.28252,6.55627l28.01184,13.97366c0,0 0.63742,0.42595 -6.9077,-2.60531c-2.56673,-1.03119 -12.29001,-5.6378 -20.57315,-10.11781c-2.24131,-1.21223 -14.01808,-8.3498 -14.01808,-8.3498z" fill="#df8cb7" stroke-width="0"/><path d="M107.19703,81.47361l1.70986,-5.6814c0,0 6.03046,-0.0157 9.67288,1.08053c2.98194,0.89745 10.09418,6.69916 10.09418,6.69916l-3.66541,11.71128z" fill="#626061" stroke-width="0"/><path d="M215.45483,124.48277l2.91303,3.49374l12.10887,2.26246l48.59203,14.62416l-0.3144,1.04475c0,0 -36.40933,-11.10935 -47.88334,-14.28869c-3.15016,-0.87288 -12.64579,-2.97786 -12.64579,-2.97786z" fill="#ffa6d4" stroke-width="0"/><path d="M86.01291,141.86093l2.0662,-6.86542l27.2264,-9.17304l-5.47831,12.62578l-16.20266,5.70347z" fill="#3f3d3e" stroke-width="0"/><path d="M85.91025,136.54567c0,0 5.84307,-18.76404 9.37639,-27.70857c3.9879,-10.0953 13.35265,-29.8299 13.35265,-29.8299c0,0 8.30365,2.30129 11.25943,4.90962c2.52974,2.23234 5.39688,9.78858 5.39688,9.78858l-9.66919,32.12809c0,0 -15.30141,9.69998 -18.86816,10.98576c-5.48629,1.97774 -10.84797,-0.27355 -10.84797,-0.27355z" fill="#555354" stroke-width="0"/><path d="M105.44049,89.11255c0,0 0.25227,-6.18251 3.00807,-8.16985c2.75579,-1.98735 7.2139,-1.70764 9.66553,-0.9698c1.95575,0.58861 5.98042,1.88208 7.447,6.9795c1.46662,5.09741 -2.29381,10.93129 -2.29381,10.93129c0,0 -3.03431,-11.77784 -5.3596,-12.92193c-3.28123,-1.61444 -12.46723,4.1508 -12.46723,4.1508z" fill="#6f6b6c" stroke-width="0"/><path d="M83.11484,140.79205c0,0 9.15274,-24.46268 12.45072,-35.42096c3.43458,-11.41218 9.20018,-31.31335 9.20018,-31.31335c0,0 1.29244,-0.28247 2.28911,0.01748c0.91136,0.27427 2.22643,1.34152 2.22643,1.34152c0,0 -5.72557,18.28081 -8.8077,28.52191c-3.5809,11.89831 -14.07452,37.84182 -14.07452,37.84182z" fill="#333232" stroke-width="0"/><path d="M82.57449,141.09271l5.28649,-13.76889c0,0 0.75425,1.15528 1.3394,1.291c0.73884,0.17136 2.75897,-0.72186 2.75897,-0.72186l-5.58418,14.3436z" fill="#2e2d2d" stroke-width="0"/><path d="M117.69333,113.79567c-2.35297,7.81824 -8.80018,14.92988 -13.82388,16.47504c-4.17234,1.28334 -13.30039,5.59351 -10.94745,-2.22472c0.49916,-1.65862 5.88001,-12.44486 8.02892,-19.13944c2.84189,-8.85344 2.70143,-14.09732 4.43465,-16.53276c3.13398,-4.40366 8.84929,-4.22865 10.96983,-3.59045c4.18004,1.25803 3.69089,17.19409 1.33792,25.01233z" fill="#585758" stroke-width="0"/><path d="M146.63443,137.21267l-0.06578,-1.83768c0,0 7.99208,0.99491 13.89427,2.26561c8.30893,1.78886 31.25694,7.4552 31.25694,7.4552l1.3505,1.74441c0,0 -24.51226,-5.68497 -33.07758,-7.4608c-2.51552,-0.52154 -13.35834,-2.16671 -13.35834,-2.16671z" fill="#585657" stroke-width="0"/><path d="M137.18973,148.15559l8.9153,-11.61487l7.20899,1.17682c0,0 -2.90746,3.62957 -3.04244,4.37756c-0.64505,3.57407 -4.68232,27.38795 -4.68232,27.38795c0,0 -1.5417,-0.00405 -2.14011,-2.14279c-1.07373,-3.83755 -0.85379,-10.9374 -1.92559,-13.4558c-0.92603,-2.17586 -4.33382,-5.72887 -4.33382,-5.72887z" fill="#5a5759" stroke-width="0"/><path d="M158.06496,122.26928l6.03247,-10.01995l2.26637,0.56605l-7.16048,9.91251z" fill="#a5a0a2" stroke-width="0"/><path d="M164.87887,123.18848l0.40424,-1.34324l25.37209,7.63594l-0.40423,1.34324z" fill="#494748" stroke-width="0"/><path d="M165.65797,120.32001l0.40424,-1.34324l25.37209,7.63594l-0.40424,1.34324z" fill="#494748" stroke-width="0"/><path d="M140.59137,136.17657l5.80364,-19.28392l14.49907,-5.67869l4.72886,1.09762l-27.92361,36.30662l-4.7958,-3.53546z" fill="#dbd5d8" stroke-width="0"/><path d="M111.78346,139.94889l3.2468,-11.33609l25.75115,6.92553c0,0 -0.41507,2.52525 -0.76988,3.25236c-0.88437,1.81251 -4.80588,7.87749 -4.80588,7.87749z" fill="#ccc6c9" stroke-width="0"/><path d="M118.69511,130.13396l0.09102,-0.30241l22.09922,5.744l-2.83619,0.38318c0,0 -4.19195,-1.06714 -6.77658,-1.87816c-3.53907,-1.11049 -12.5775,-3.94661 -12.5775,-3.94661z" fill="#d8d1d5" stroke-width="0"/><path d="M123.13832,127.56882l4.89921,-16.27875l15.44088,4.64706l-4.89922,16.27875z" fill="#a39999" stroke-width="0"/><path d="M111.46974,140.03176l3.27364,-10.87736c0,0 6.62137,8.6624 10.05165,12.13906c3.43028,3.47666 9.73634,5.08213 9.73634,5.08213z" fill="#b4afb1" stroke-width="0"/><path d="M141.94415,155.51362c0,0 2.60108,1.86941 3.69211,2.04768c0.67025,0.10947 2.23152,-1.07995 2.23152,-1.07995l-1.02663,9.16622l-1.209,4.01713c0,0 -1.95034,-0.26175 -2.43088,-3.10337c-0.39648,-2.34457 -1.25717,-11.04765 -1.25717,-11.04765z" fill="#504e4f" stroke-width="0"/><path d="M137.32097,148.77607l25.87804,-35.80489l1.6105,0.69892l-25.89804,36.22729z" fill="#858183" stroke-width="0"/><path d="M132.94451,104.89717l1.92614,-1.1439c0,0 26.43803,7.28429 38.3218,10.86081c10.31432,3.10416 30.4879,9.54421 30.4879,9.54421l-0.05246,2.01163c0,0 -20.19027,-6.81367 -31.06218,-10.08564c-12.41433,-3.73618 -39.62117,-11.18704 -39.62117,-11.18704z" fill="#918b8e" stroke-width="0"/><path d="M134.2742,104.0121l2.49749,-1.27577c0,0 24.8917,7.12273 36.77546,10.69924c10.31431,3.10416 30.48791,9.54422 30.48791,9.54422l-0.05248,2.01161c0,0 -20.19027,-6.81366 -31.06218,-10.08564c-12.41433,-3.73619 -38.64619,-10.89363 -38.64619,-10.89363z" fill="#a59fa2" stroke-width="0"/><path d="M190.15147,142.53579l-0.20617,-5.99644c0,0 0.54991,-1.09292 0.9013,-1.10498c0.30958,-0.01065 1.09751,1.03626 1.09751,1.03626l0.20615,5.99643c0,0 -0.51736,0.76082 -0.82763,0.77149c-0.35098,0.01206 -1.17119,-0.70275 -1.17119,-0.70275z" fill="#494242" stroke-width="0"/><path d="M150.82226,133.46536l6.12622,-8.06224l3.72086,1.11983l-6.12622,8.06223z" fill="#9c989a" stroke-width="0"/><path d="M165.10651,119.20056l2.05115,-0.39352l23.39678,7.0603l1.65867,1.49119z" fill="#757274" stroke-width="0"/><path d="M164.38664,121.91976l2.05116,-0.39353l23.39677,7.06029l1.6587,1.49118z" fill="#757274" stroke-width="0"/><path d="M109.43504,138.39289l18.39495,-55.19836l1.67148,1.1095l-17.98819,55.7397z" fill="#686666" stroke-width="0"/><path d="M109.20069,138.60466l5.31156,-15.37742l1.09344,4.31672l-4.25366,12.6196z" fill="#535252" stroke-width="0"/><path d="M145.23437,125.56105c0,0 2.70986,-1.63384 2.98271,-2.54046c0.26776,-0.88968 -1.36059,-2.84945 -1.36059,-2.84945c0,0 2.68168,1.50646 2.09532,3.09311c-0.44662,1.20852 -2.08347,3.00191 -2.48483,4.03233c-1.14124,2.92987 -3.91806,9.76704 -3.91806,9.76704z" fill="#c4bec1" stroke-width="0"/><path d="M153.1356,125.94265l4.76873,-9.21196l3.69558,-3.43502l-5.29697,8.38753z" fill="#aca7a9" stroke-width="0"/></g></g><g stroke-width="0"><path d="M274.20601,133.31616l3.406,-2.45165c0,0 2.1447,-0.8545 2.85541,-0.35345c0.81031,0.57128 1.74698,3.59821 1.74698,3.59821l-1.69532,3.75257c0,0 -4.09743,-1.24102 -5.27158,-1.73358c-0.52932,-0.22206 -1.04146,-2.81208 -1.04146,-2.81208z" fill="#c0c0c0"/><path d="M230.3267,130.18908c0,0 0.661,-2.80866 2.0034,-3.59399c1.68231,-0.98416 8.14184,-1.35034 8.14184,-1.35034l-2.04561,4.33136l-0.84185,2.7973z" fill="#838383"/><path d="M230.18325,130.06825l9.9169,-4.82819l35.9687,10.82504l-2.15603,7.16387z" fill="#999999"/><path d="M231.32905,129.72757l7.58173,-3.81812l32.33946,9.73279l-1.68333,5.5933c0,0 -3.91416,-1.178 -8.94928,-2.69333c-3.27363,-0.98525 -6.71502,-3.13001 -10.16867,-4.1694c-3.7049,-1.11503 -7.37779,-1.11133 -9.45874,-1.73761c-4.07271,-1.22573 -9.66116,-2.90761 -9.66116,-2.90761z" fill="#2e2e2e"/><path d="M234.67373,130.73189l9.71508,-3.24102l11.93529,3.59202c0,0 -7.61282,-0.29928 -10.14594,-0.10656c-2.68919,0.20458 -6.37331,1.29982 -6.37331,1.29982z" fill="#a5899d"/><path d="M242.35643,132.92632c0,0 5.14956,0.5346 7.50243,1.24272c3.00638,0.90479 9.0606,3.74205 9.0606,3.74205l-9.14787,-3.10318z" fill="#adadad"/><path d="M230.28861,130.081l8.95486,-4.35575l33.48315,10.07704l-0.19843,0.65937c0,0 -28.99226,-8.72543 -32.77143,-9.86281c-0.79047,-0.23789 -9.46816,3.48221 -9.46816,3.48221z" fill="#8a8a8a"/><path d="M273.65768,149.64533l2.81138,-9.34146l2.69866,-6.70879c0,0 1.00138,0.79208 1.3694,1.49131c0.36802,0.69923 0.41019,1.88969 0.41019,1.88969l-5.36201,13.24939z" fill="#9e9e9e"/><path d="M269.65664,144.02296c0,0 -0.26069,-2.29752 0.06636,-3.85862c0.44043,-2.10222 2.84996,-7.13975 2.84996,-7.13975l1.95283,0.24794c0,0 0.49849,0.97688 0.99906,0.97179c0.69017,-0.00702 2.75901,-1.0101 2.75901,-1.0101l-4.17512,12.12866z" fill="#9c9c9c"/><path d="M269.67864,145.94138c-0.4309,-1.28305 0.19504,-2.52863 0.19504,-2.52863l6.74579,-5.4892c0,0 0.21524,4.12063 -0.04889,4.99821c-0.75089,2.495 -1.1559,7.33323 -1.1559,7.33323c0,0 -2.87779,-0.77865 -3.74617,-1.49806c-1.04151,-0.86282 -1.55895,-1.53253 -1.98987,-2.81558z" fill="#888888"/><path d="M271.60696,145.71317c-0.37002,-2.19971 -0.05147,-6.76463 2.88624,-10.12748c2.93771,-3.36283 4.63544,-0.62628 4.63544,-0.62628c0,0 -0.31087,4.52539 -0.97739,6.74013c-0.60715,2.01746 -2.86036,6.01171 -2.86036,6.01171c0,0 -3.3139,0.20164 -3.6839,-1.99809z" fill="#b4b4b4"/><path d="M277.80988,139.54372c-0.40665,1.3512 -5.32212,-0.0473 -4.91547,-1.39849c0.40665,-1.3512 4.89249,-5.6427 5.67043,-5.40856c0.3013,0.09067 0.88849,0.37376 0.77097,1.44607c-0.18595,1.69644 -1.27676,4.53309 -1.52594,5.36099z" fill="#bbbbbb"/></g><g stroke-width="0"><path d="M215.36693,124.44053c0,0 -4.19097,-6.39652 -3.65108,-8.19043c0.44081,-1.46475 6.25643,0.15692 6.25643,0.15692l7.20445,2.24325l-6.95978,9.16194z" fill="#f399c8"/><path d="M185.66283,117.21524c0,0 -0.32435,-2.2884 0.23113,-3.24148c0.61303,-1.05177 3.6248,-3.91 3.6248,-3.91l22.11424,6.46156l6.25387,10.88736z" fill="#ee96c3"/></g></g><g stroke-width="0"><g><path d="M282.78453,125.84555l1.78153,-5.91953l45.78941,13.78068l-1.78152,5.91953z" fill="#61585b"/><path d="M283.56293,122.69257l0.95402,-3.16991l45.96352,13.83308l-0.95403,3.16991c0,0 -8.27426,-2.49022 -16.77406,-5.04827c-2.65752,-0.7998 -6.83094,-0.47135 -9.28654,-1.21041c-2.92002,-0.8788 -5.61442,-3.27418 -7.48749,-3.83789c-5.61647,-1.69032 -12.41543,-3.73651 -12.41543,-3.73651z" fill="#494344"/><path d="M344.67074,134.18555l-3.48108,-20.81946l20.0317,6.02872l9.93982,20.50896c0,0 -5.86024,-0.34199 -9.02955,-1.02611c-4.89056,-1.05568 -17.46088,-4.69209 -17.46088,-4.69209z" fill="#5e555b"/><path d="M343.68281,137.47549l1.59612,-5.30351c0,0 12.19548,2.15281 17.10475,2.81614c3.89612,0.52642 6.7505,0.77763 6.7505,0.77763l3.68771,8.35606c0,0 -5.56617,-0.00833 -9.66598,-0.77858c-5.55509,-1.04371 -19.47307,-5.86765 -19.47307,-5.86765z" fill="url(#color-5)"/><path d="M339.52096,113.02971l1.15166,-3.82663l18.33898,5.51925l2.33044,4.87458z" fill="url(#color-6)"/><path d="M343.11662,137.33116l0.36291,-1.20582c0,0 14.96947,4.42539 20.17573,5.8173c3.89299,1.04081 8.58036,0.80479 8.58036,0.80479l0.52127,1.35233l-8.4672,-0.39645z" fill="#312c30"/><g><path d="M249.43787,98.06753l2.33604,-8.54778l89.94043,27.06825l4.06505,13.00509z" fill="#8a6672"/><path d="M262.8876,110.76809c0,0 -2.33109,-4.46709 -4.59555,-6.67495c-2.26448,-2.20788 -9.09455,-4.01546 -9.09455,-4.01546l0.70891,-1.96622c0,0 11.72081,3.81611 18.42445,5.93309c16.01412,5.05707 77.24493,24.27825 77.24493,24.27825l1.57691,7.33258z" fill="#755761"/><path d="M264.89737,113.97423l-2.15012,-3.35375l84.01141,24.77283l0.26639,3.29781z" fill="#694e57"/><path d="M251.50198,89.85159l1.30521,-4.33685l87.14938,25.51882l2.0548,6.53048c0,0 1.67627,3.9904 -3.3784,2.44276c-1.59125,-0.4872 -9.3544,-6.34131 -10.94961,-6.82973c-15.36293,-4.70387 -76.18135,-23.32543 -76.18135,-23.32543z" fill="#916b77"/><path d="M253.03883,85.58455l0.61374,-2.45166l86.13428,25.77789l0.31142,2.59199z" fill="#9e7582"/><path d="M323.82263,107.60167c-7.53881,-2.9455 -69.16166,-22.56943 -69.16166,-22.56943l84.12673,25.31859l2.45263,8.509c0,0 -9.87888,-8.31265 -17.4177,-11.25815z" fill="#b38f9a"/></g><path d="M294.46026,122.86845l2.6438,-8.78457l19.35468,5.82493l-2.6438,8.78457z" fill="#3a3336"/><path d="M297.01875,114.06253l1.12483,-1.25144l17.75191,5.34256l0.50459,1.74179z" fill="#4b4246"/><path d="M294.73838,122.43066l2.35669,-7.83064c0,0 -0.50336,5.34766 1.723,7.17301c2.22636,1.82534 14.73414,6.31981 14.73414,6.31981z" fill="#332c30"/><path d="M340.08257,115.52108l-2.02456,-6.87515c0,0 1.17167,-0.34361 1.74682,-0.1705c0.64299,0.19352 1.93023,1.27712 1.93023,1.27712l2.02456,6.87515z" fill="#757575"/><path d="M341.61034,120.92526l-2.91329,-9.87061l3.67708,1.10665l2.91329,9.87059z" fill="#5a5a5a"/><path d="M343.81662,128.32395l-2.91329,-9.87059l3.67706,1.10664l2.9133,9.87061z" fill="#505050"/><path d="M346.09442,135.98515c-0.49758,-1.68588 -2.43908,-8.26389 -2.43908,-8.26389l3.67706,1.10666l3.35728,11.79446c0,0 -2.12291,-0.07968 -3.02785,-0.36751c-0.70589,-0.22451 -1.34802,-3.52634 -1.56743,-4.26972z" fill="#3b3b3b"/><path d="M247.21244,100.11103l5.38184,-17.88243l3.04602,0.91671l-5.38186,17.88244z" fill="#443e42"/><path d="M228.67634,96.20224l1.05176,-5.87413l19.37035,5.82964l-1.70838,5.6765z" fill="url(#color-7)"/><path d="M229.54636,90.932l3.12598,-10.38679l19.37035,5.82964l-3.126,10.3868z" fill="#5e555b"/><path d="M232.63595,80.66614l1.96555,-3.75507l18.60428,5.59909l-1.1995,3.98563z" fill="url(#color-8)"/><path d="M301.09657,97.12924l1.76755,-5.8731l14.07751,5.35065l3.06844,5.84332z" fill="#5e555b"/><path d="M319.90763,102.79056l-2.99158,-6.09868c0,0 2.68921,1.53056 4.53521,3.12862c1.84602,1.59806 4.66995,4.84006 4.66995,4.84006z" fill="#776b73"/><path d="M297.86956,97.36478l3.42288,-0.26945l24.59075,7.12229l3.05433,2.49728z" fill="#6d6269"/></g><g><path d="M296.98957,119.48363c0.35989,-1.19588 1.18193,-2.15641 1.85077,-3.03031c0.93196,-1.21774 1.85122,-2.18152 3.33396,-2.61895c0.90569,-0.26718 2.10692,-0.31233 3.12319,-0.25748c0.67217,0.03629 1.74421,-0.05889 2.41743,0.14373c1.52607,0.45928 1.83033,0.6362 2.78834,1.44252c0.57709,0.4857 2.01755,1.38824 2.33612,2.18604c0.26965,0.67523 0.45191,1.72066 0.58324,2.46993c0.22442,1.28047 0.45552,3.29714 0.05534,4.62685c-0.16913,0.56194 -1.02591,1.70182 -1.22204,2.18112c-0.62259,1.52158 -0.77017,2.00934 -2.25017,2.71632c-0.89953,0.42969 -2.50071,0.5199 -3.56091,0.62897c-1.09797,0.11296 -2.56926,0.5746 -3.6922,0.23663c-0.75793,-0.22812 -1.97125,-1.15196 -2.66625,-1.50336c-1.50783,-0.76236 -2.3118,-1.1865 -2.96903,-2.57497c-0.56361,-1.19068 -0.35259,-2.79632 -0.3101,-4.20128c0.02233,-0.7381 -0.0406,-1.70491 0.18234,-2.44573z" fill="#3a3a3a"/><path d="M297.72378,119.58073c0.32934,-1.09431 1.08159,-1.97331 1.69362,-2.77301c0.85285,-1.11436 1.69402,-1.99629 3.05091,-2.39661c0.82878,-0.24451 1.92804,-0.2858 2.858,-0.23561c0.61509,0.03319 1.59614,-0.05387 2.21213,0.13153c1.39651,0.4203 1.67493,0.58218 2.55161,1.32003c0.52808,0.44448 1.84625,1.27036 2.13781,2.00042c0.24676,0.61793 0.41352,1.57459 0.53372,2.26021c0.20538,1.17175 0.41684,3.01721 0.05066,4.23399c-0.15476,0.51421 -0.93882,1.55732 -1.11829,1.99593c-0.56972,1.39239 -0.70477,1.83875 -2.05912,2.48568c-0.82318,0.39318 -2.2884,0.47572 -3.25857,0.57555c-1.00474,0.10336 -2.35112,0.52581 -3.37872,0.21655c-0.69358,-0.20873 -1.80386,-1.05414 -2.43987,-1.37568c-1.37982,-0.69764 -2.11554,-1.08574 -2.71696,-2.35636c-0.51574,-1.0896 -0.32263,-2.55889 -0.28375,-3.84456c0.02043,-0.67544 -0.03715,-1.56017 0.16685,-2.23804z" fill="#5a5a5a"/><path d="M310.7038,118.75713c-1.27061,-2.87388 -6.0902,-4.53388 -6.0902,-4.53388c0,0 2.01549,0.04265 3.91923,0.62283c1.54208,0.46995 2.94269,1.27208 3.6781,2.85206c0.736,1.58124 0.68532,3.1165 0.55778,4.53542c-0.25001,2.78196 -1.35886,4.94707 -1.35886,4.94707c0,0 0.56457,-5.54959 -0.70607,-8.42347z" fill="#6d6d6d"/><path d="M304.15649,122.0279c0.16591,-0.55128 0.74731,-0.86369 1.29861,-0.69779c0.55128,0.1659 0.86368,0.74731 0.69778,1.29862c-0.16591,0.55128 -0.74731,0.86368 -1.29861,0.69778c-0.55128,-0.1659 -0.86369,-0.7473 -0.69777,-1.29861z" fill="#272727"/><path d="M304.0414,122.13613c0.15218,-0.50563 0.68542,-0.79217 1.19106,-0.63999c0.50563,0.15218 0.79217,0.68542 0.63999,1.19106c-0.15218,0.50563 -0.68542,0.79218 -1.19106,0.64001c-0.50563,-0.15218 -0.79218,-0.68542 -0.64,-1.19106z" fill="#131313"/></g></g></g></g></g><path d="M187.27575,201.75136c0.4567,-1.51744 8.66321,-43.56222 9.62029,-45.02354c1.29226,-1.97308 9.02435,1.76443 12.29727,1.17484c10.02385,-1.80573 20.74247,-3.3702 20.74247,-3.3702c0,0 13.30419,4.61018 17.36095,5.83112c3.03372,0.91303 64.19779,10.45435 61.93317,20.55169c-3.07164,13.6958 -41.37557,-10.06967 -44.87151,1.5463c-0.88502,2.94063 1.36613,3.82229 -0.08257,6.67296c-0.34771,0.68417 -4.09214,4.96559 -4.78999,6.50589c-1.10776,2.44504 0.89411,7.22737 -3.16879,9.24119c-3.23871,1.6053 -2.83451,6.96607 -3.79649,7.94603c-6.62922,6.75297 -13.50835,0.70968 -22.13882,-1.88772c-10.23265,-3.07958 -26.19603,-3.99559 -34.82493,-7.88468c-3.72475,-1.6788 -9.61041,3.11321 -8.28105,-1.30384z" fill="#86c8f5" stroke-width="0"/><g stroke-width="0"><g><path d="M178.29815,217.28244l1.60865,-5.3451c0,0 2.09495,0.81643 3.19098,0.1399c1.54849,-0.95575 5.39847,-5.16465 5.39847,-5.16465l-1.72571,7.93302c0,0 -3.87125,2.17512 -5.60303,2.59112c-1.25034,0.30032 -2.86934,-0.15428 -2.86934,-0.15428z" fill="#4d484c"/><g><g><path d="M142.56157,194.67436l5.52741,-4.14499c0,0 17.80673,-3.98621 25.25803,-5.80764c5.73178,-1.4011 14.9309,-3.80264 14.9309,-3.80264l-5.06993,25.98808z" fill="#eb59c1"/><path d="M147.16905,184.44401l7.8758,-28.20072c0,0 25.20392,11.97526 30.941,16.78961c4.16318,3.49358 -1.16421,16.32309 -1.16421,16.32309l-7.37806,4.19942z" fill="#dd54b6"/><path d="M150.37535,163.01676l6.00312,-23.21417c0,0 19.41784,6.92892 23.63142,8.99664c6.24367,3.06397 11.02799,8.11263 11.02799,8.11263l-7.50844,24.9485z" fill="#ff77d8"/><path d="M151.82754,155.71154l4.0495,-13.45538l36.64285,6.58346l-6.49329,17.16435c0,0 -6.13096,-14.42194 -9.81785,-15.53153c-6.27287,-1.88786 -24.38121,5.2391 -24.38121,5.2391z" fill="#ee51c1"/></g><g><g><path d="M143.0637,183.85428l6.93307,-40.52796l8.04491,2.42119l-6.93307,40.52796z" fill="#a59da1"/><path d="M149.90807,143.49863c0,0 0.55246,-4.52496 2.64341,-5.23423c2.09097,-0.70931 7.03053,0.51285 7.03053,0.51285l-1.61589,7.14652z" fill="#b9b0b5"/><path d="M141.70044,194.56069l1.42742,-10.71612l8.00646,2.40962l-1.42742,10.71611z" fill="#8b8488"/></g><g><path d="M182.52908,192.18444l6.93307,-40.52795l4.3466,1.30814l-6.93306,40.52796z" fill="#a59da1"/><path d="M189.32743,152.65746l1.07611,-6.40272c0,0 3.0063,0.19422 3.68572,1.59934c0.67942,1.40511 -0.35607,5.28681 -0.35607,5.28681z" fill="#b9b0b5"/><path d="M181.15382,202.88733l1.42742,-10.71613l4.32016,1.30018l-1.42741,10.71612z" fill="#8b8488"/></g><path d="M140.14747,203.04929c0,0 -2.34097,-3.56883 -2.29394,-5.10506c0.05236,-1.71008 2.59396,-4.68991 2.59396,-4.68991l46.91152,9.52881c0,0 1.25606,2.81529 1.23134,4.36007c-0.03467,2.16521 -5.48202,5.6581 -5.48202,5.6581z" fill="#494547"/><path d="M158.76049,142.63532c0,0 -2.05462,-1.21081 -2.30155,-1.88485c-0.27117,-0.74018 1.55689,-2.36488 1.55689,-2.36488c0,0 11.82467,2.50195 16.97078,3.71428c5.99919,1.4133 16.04265,4.244 16.04265,4.244c0,0 0.15584,1.32504 -0.09804,1.8725c-0.24587,0.53019 -1.01572,1.47834 -1.01572,1.47834z" fill="#c2b8bd"/><path d="M140.83938,201.98271c0,0 -0.3653,-3.07085 -0.11423,-4.74514c0.20834,-1.38949 1.17063,-3.45726 1.17063,-3.45726l44.11235,9.03939c0,0 1.03371,3.60374 0.55453,5.19588c-0.51475,1.71041 -3.19809,3.58796 -3.19809,3.58796z" fill="#6f696b"/><path d="M149.92485,210.38734l1.60865,-5.34509l28.99191,7.04945l-1.60864,5.34509z" fill="#333032"/><path d="M138.84627,207.17996c-0.87688,-0.94054 -2.06321,-2.82825 -2.06321,-2.82825l1.13237,-6.7807c0,0 1.71389,2.88888 2.47765,4.54053c0.54059,1.16907 11.21793,2.83759 11.21793,2.83759l-1.60864,5.3451c0,0 -10.27923,-2.17372 -11.15611,-3.11426z" data-paper-data="{&quot;index&quot;:null}" fill="#444043"/><g><path d="M153.78182,156.76834c0,0 -1.10846,-5.28584 -0.63155,-6.9617c0.33018,-1.16025 3.21825,-2.12821 3.21825,-2.12821l34.44602,7.20838c0,0 0.62583,3.45063 0.19951,4.94872c-0.43572,1.53116 -2.78624,4.1412 -2.78624,4.1412z" fill="#979797"/><path d="M154.14022,155.7629c0,0 -1.28551,-4.77009 -0.87502,-6.2525c0.28422,-1.02638 3.10152,-1.78829 3.10152,-1.78829l34.2793,7.69388c0,0 0.74265,3.11037 0.37569,4.4356c-0.37502,1.35441 -2.60219,3.60521 -2.60219,3.60521z" fill="#a2a2a2"/></g><g><path d="M151.29503,173.2924c0,0 -1.10846,-5.28584 -0.63155,-6.9617c0.33018,-1.16025 3.21824,-2.12823 3.21824,-2.12823l34.44601,7.20838c0,0 0.62585,3.45061 0.19953,4.94871c-0.43572,1.53116 -2.78623,4.14119 -2.78623,4.14119z" fill="#979797"/><path d="M151.65342,172.28697c0,0 -1.2855,-4.77008 -0.875,-6.25249c0.2842,-1.02636 3.10152,-1.78829 3.10152,-1.78829l34.27931,7.69391c0,0 0.74264,3.11037 0.37569,4.4356c-0.37503,1.35441 -2.60219,3.6052 -2.60219,3.6052z" fill="#a2a2a2"/></g><g><path d="M148.768,190.32151c0,0 -1.10846,-5.28584 -0.63155,-6.9617c0.33018,-1.16025 3.21824,-2.12822 3.21824,-2.12822l34.44601,7.20838c0,0 0.62583,3.45063 0.19952,4.94872c-0.43572,1.53116 -2.78623,4.14119 -2.78623,4.14119z" fill="#7a7a7a"/><path d="M149.12636,189.3161c0,0 -1.28552,-4.77008 -0.87502,-6.2525c0.2842,-1.02636 3.10152,-1.78827 3.10152,-1.78827l34.27933,7.69389c0,0 0.74262,3.11037 0.37569,4.43561c-0.37503,1.35441 -2.60219,3.60522 -2.60219,3.60522z" fill="#929292"/></g></g></g></g><path d="M142.51393,187.81788c0,0 0.1255,-1.75473 0.49948,-4.05517c1.09812,-6.75385 6.73578,-40.44453 6.73578,-40.44453l1.79349,5.0334l-5.22818,29.15498z" fill="#777275"/></g></g><g fill="#86c8f5" stroke-width="0"><path d="M183.44408,201.1669c4.66837,1.83711 3.54921,8.57686 0.14698,15.86703c-3.40221,7.29016 -8.9841,12.00594 -12.4675,10.53297c-3.4834,-1.47296 -3.54921,-8.57686 -0.14698,-15.86703c3.40221,-7.29016 7.08922,-12.64946 12.4675,-10.53297z" data-paper-data="{&quot;index&quot;:null}"/><path d="M159.55646,207.12038c3.40221,-7.29016 6.21719,-11.0005 11.59545,-8.88403c4.66837,1.83711 4.42126,6.92794 1.01904,14.21809c-3.40221,7.29017 -8.98409,12.00593 -12.46749,10.53297c-3.4834,-1.47296 -3.54921,-8.57686 -0.14698,-15.86703z" data-paper-data="{&quot;index&quot;:null}"/><path d="M145.89129,209.31571c3.40221,-7.29016 7.567,-13.76364 12.94529,-11.64718c4.66837,1.83711 3.07143,9.69108 -0.33079,16.98124c-3.40221,7.29016 -7.77805,8.03901 -11.26145,6.56606c-3.48341,-1.47296 -4.75526,-4.60996 -1.35305,-11.9001z" data-paper-data="{&quot;index&quot;:null}"/><path d="M146.0851,197.92516c4.66837,1.83711 4.42126,6.92794 1.01904,14.21809c-3.40221,7.29016 -7.77805,8.03901 -11.26145,6.56606c-3.48341,-1.47296 -4.75525,-4.60996 -1.35304,-11.9001c3.40221,-7.29016 6.21718,-11.00049 11.59544,-8.88403z" data-paper-data="{&quot;index&quot;:null}"/></g></g></g></svg>