<svg version="1.1" xmlns="http://www.w3.org/2000/svg" xmlns:xlink="http://www.w3.org/1999/xlink" width="468.42085" height="157.99524" viewBox="0,0,468.42085,157.99524"><defs><linearGradient x1="469.54969" y1="182.36633" x2="469.52921" y2="187.17788" gradientUnits="userSpaceOnUse" id="color-1"><stop offset="0" stop-color="#1f1d20"/><stop offset="1" stop-color="#202022"/></linearGradient><linearGradient x1="470.00991" y1="177.51317" x2="469.98635" y2="183.04934" gradientUnits="userSpaceOnUse" id="color-2"><stop offset="0" stop-color="#302d31"/><stop offset="1" stop-color="#1f1e20"/></linearGradient><linearGradient x1="135.02392" y1="224.15838" x2="135.00949" y2="227.5484" gradientUnits="userSpaceOnUse" id="color-3"><stop offset="0" stop-color="#585758"/><stop offset="1" stop-color="#575758"/></linearGradient><linearGradient x1="121.86796" y1="234.181" x2="121.85662" y2="236.84234" gradientUnits="userSpaceOnUse" id="color-4"><stop offset="0" stop-color="#363536"/><stop offset="1" stop-color="#353536"/></linearGradient><linearGradient x1="265.62798" y1="141.99021" x2="265.60443" y2="147.52867" gradientUnits="userSpaceOnUse" id="color-5"><stop offset="0" stop-color="#5e555b"/><stop offset="1" stop-color="#2b2629"/></linearGradient><linearGradient x1="255.95844" y1="121.28196" x2="255.94142" y2="125.27809" gradientUnits="userSpaceOnUse" id="color-6"><stop offset="0" stop-color="#72676e"/><stop offset="1" stop-color="#5e555b"/></linearGradient><linearGradient x1="142.94358" y1="134.70002" x2="142.91836" y2="140.628" gradientUnits="userSpaceOnUse" id="color-7"><stop offset="0" stop-color="#5e555b"/><stop offset="1" stop-color="#4d454a"/></linearGradient><linearGradient x1="143.00424" y1="120.44788" x2="142.98652" y2="124.61006" gradientUnits="userSpaceOnUse" id="color-8"><stop offset="0" stop-color="#74686f"/><stop offset="1" stop-color="#5e555b"/></linearGradient></defs><g transform="translate(-6.1627,-114.76795)"><g data-paper-data="{&quot;isPaintingLayer&quot;:true}" fill-rule="nonzero" stroke="none" stroke-linecap="butt" stroke-linejoin="miter" stroke-miterlimit="10" stroke-dasharray="" stroke-dashoffset="0" style="mix-blend-mode: normal"><path d="M382.86406,209.71033c0.2835,8.66889 -4.64373,14.01735 -24.79334,14.67631c-7.47394,0.24442 -20.39612,-0.90696 -26.23416,-0.01079c-4.33887,0.66604 -7.97241,3.00012 -10.78575,1.2056c-3.60666,-2.30054 -4.13357,-22.14501 -4.23379,-25.20866c-0.2835,-8.66889 8.89996,-4.50678 29.04958,-5.16574c20.14963,-0.65894 36.71396,5.83439 36.99743,14.50325z" fill="#86c8f5" stroke-width="0"/><g><g stroke-width="0"><path d="M196.47486,209.42821l-10.1648,-15.38866l25.57773,-0.48136c0,0 -1.12326,5.8241 -1.33464,8.52174c-0.20447,2.60953 0.08644,7.40857 0.08644,7.40857z" fill="#7f7d7e"/><path d="M196.57241,209.62535l-3.61568,-5.62235c0,0 2.34343,3.56508 5.5769,4.19353c2.32843,0.45254 4.21587,0.15063 6.89594,0.48286c2.68006,0.33221 5.11087,1.00542 5.11087,1.00542z" fill="#6c6a6b"/></g><g><g><g><path d="M466.53814,187.16515l-2.03849,-4.82031c0,0 5.98437,1.68335 8.57795,2.58725c2.59354,0.90391 1.05024,2.03348 1.05024,2.03348z" fill="url(#color-1)" stroke-width="0"/><path d="M473.59359,177.72804c0,0 1.46973,2.33408 -1.13142,3.21589c-2.60116,0.88182 -5.50936,2.09253 -5.50936,2.09253l-0.94709,-5.54032z" data-paper-data="{&quot;index&quot;:null}" fill="url(#color-2)" stroke-width="0"/><path d="M456.92038,187.11965l0.00893,-2.09835l14.77244,0.06286c0,0 1.25418,0.79966 1.74046,1.16798c0.43711,0.3311 -0.73918,0.93466 -0.73918,0.93466z" fill="#444444" stroke-width="NaN"/><path d="M456.9624,185.16487l-1.1832,-1.75893l12.61555,0.05367l3.387,1.6565c0,0 -4.21884,0.22005 -6.5237,0.22764c-2.59942,0.00854 -8.29565,-0.17889 -8.29565,-0.17889z" fill="#535353" stroke-width="0"/><path d="M455.66648,183.54216l-0.32202,-0.64139l11.47368,0.04883l1.68324,0.53289z" fill="#363636" stroke-width="0"/><path d="M456.92038,187.11965l0.00485,-1.13835c0,0 6.45161,0.48106 9.33136,0.49333c2.44036,0.01039 6.84818,-0.42447 6.84818,-0.42447c0,0 0.86217,0.46589 1.10861,0.66985c0.2079,0.17203 -0.25069,0.47218 -0.25069,0.47218c0,0 -4.73442,0.38435 -7.04815,0.37451c-3.12153,-0.01328 -9.99417,-0.44702 -9.99417,-0.44702z" fill="#3a3a3a" stroke-width="NaN"/><path d="M455.6653,182.92042l-0.54975,-0.88606l13.6415,0.05804l-1.82548,0.90986z" fill="#242424" stroke-width="0"/><path d="M454.3067,182.22015l0.00704,-1.6543c0,0 8.09414,-0.17175 11.08985,-0.15901c2.04102,0.00867 5.14649,0.2281 5.14649,0.2281l-1.81996,1.48163z" fill="#3a3a3a" stroke-width="0"/><path d="M454.18401,180.60785l0.00869,-2.04254c0,0 7.65461,-0.29733 10.96887,-0.28323c2.86796,0.0122 7.77205,0.36297 7.77205,0.36297l-2.42688,2.03225c0,0 -3.65454,-0.09802 -5.89893,-0.10758c-2.98337,-0.0127 -10.42379,0.03812 -10.42379,0.03812z" fill="#444444" stroke-width="0"/><path d="M454.14917,178.65022l0.00362,-0.85107c0,0 7.87428,-0.09022 11.47147,-0.07489c2.50481,0.01067 8.0467,0.15796 8.0467,0.15796l-0.86863,0.84739c0,0 -5.05271,-0.31016 -8.01789,-0.32277c-3.26689,-0.0139 -10.63524,0.24341 -10.63524,0.24341z" fill="#535353" stroke-width="0"/><path d="M454.02289,177.88375l0.00146,-0.34043c0,0 7.67843,-0.47437 11.13873,-0.45965c2.99177,0.01274 8.42264,0.54288 8.42264,0.54288l0.03613,0.34059c0,0 -6.00812,-0.19052 -9.25314,-0.20433c-3.28742,-0.01399 -10.3458,0.12094 -10.3458,0.12094z" fill="#4e4e4e" stroke-width="0"/></g><g stroke-width="0"><g><g><g><path d="M451.06875,186.60673l-4.52577,-13.183l0.56033,-1.71899c0,0 3.46105,3.24397 4.37279,5.73824c0.49499,1.35414 1.04716,9.16992 1.04716,9.16992z" fill="#383638"/><path d="M452.12284,185.91979c0,0 0.06095,-0.60944 -0.55722,-3.06698c-0.67415,-2.68004 -2.0511,-6.32299 -2.43968,-7.39863c-0.87223,-2.41444 -1.62657,-2.54812 -1.62657,-2.54812l4.80241,-0.56138l4.91188,13.59678z" fill="#555355"/><path d="M447.56301,172.9917l-0.57656,-1.23883c0,0 2.02359,-0.79139 2.98522,-0.78731c0.90108,0.00384 2.03324,0.73593 2.03324,0.73593l0.57625,1.31157z" fill="#686668"/></g><path d="M445.39608,186.58259l-4.52577,-13.18299l0.22943,-1.70023c0,0 3.79195,3.22521 4.7037,5.7195c0.49498,1.35413 1.04716,9.16992 1.04716,9.16992z" fill="#383638"/><path d="M446.45015,185.89565c0,0 0.06095,-0.60945 -0.55721,-3.06698c-0.67415,-2.68004 -2.0511,-6.32299 -2.43968,-7.39863c-0.87223,-2.41444 -1.62657,-2.54812 -1.62657,-2.54812l4.05457,-1.06457c0,0 1.02077,1.2586 1.28662,1.99452c0.75744,2.09668 4.37313,12.10545 4.37313,12.10545z" fill="#555355"/><path d="M441.89036,172.96752l-0.79474,-1.23976c0,0 2.24173,-0.79047 3.20338,-0.78638c0.90108,0.00384 1.74235,0.7347 1.74235,0.7347l0.70124,1.3121z" fill="#686668"/><path d="M452.94539,184.92952c0.00349,-0.81952 0.67066,-1.48103 1.49018,-1.47754c0.81952,0.00349 1.48103,0.67066 1.47754,1.49018c-0.00349,0.81952 -0.67066,1.48103 -1.49018,1.47754c-0.81952,-0.00349 -1.48103,-0.67066 -1.47754,-1.49018z" fill="#312f31"/><path d="M453.61348,182.00308l-1.97574,-5.55498l1.59193,-0.13656l1.97549,5.61949z" fill="#444144"/></g><path d="M406.08505,181.4488l-3.71861,-10.83945l29.87709,1.3036l-0.51164,9.64497z" fill="#444444"/><path d="M418.74246,177.58714c0,0 0.63817,-0.51925 1.36517,-1.62103c0.66472,-1.00741 1.40402,-2.58216 1.79066,-3.04428c0.98252,-1.70232 3.35906,-1.22538 3.35906,-1.22538l-0.98235,0.64888l-4.38971,5.24666z" fill="#292929"/><path d="M421.49698,188.1284l-6.46755,-10.99905c0,0 3.49644,0.5462 5.20452,-0.49565c1.32732,-0.80961 1.24436,-3.44195 2.82291,-3.71615c4.52895,-0.78666 17.4052,-1.16575 17.4052,-1.16575c0,0 3.20974,7.15869 4.12468,10.04966c0.63163,1.99583 1.02429,6.42955 1.02429,6.42955z" fill="#4a464a"/><path d="M425.68987,175.03757c-4.55807,-0.65547 -3.11146,-2.01327 -3.11146,-2.01327c0,0 0.79827,-1.29886 2.66619,-1.43704c4.58386,-0.33915 13.22439,0.27454 14.94671,0.25621c0.81228,-0.00864 0.34359,0.69725 0.34359,0.69725c0,0 -1.4995,2.3796 -3.05121,2.62703c-1.55172,0.24743 -7.23577,0.5253 -11.79384,-0.13017z" fill="#5e595e"/></g><g><path d="M409.66515,194.65341l-5.08493,-17.95729l18.90641,0.36677l4.78099,4.34873l6.09959,-0.07257l2.91062,13.43185z" fill="#4d4846"/><path d="M414.35402,195.06048l20.69598,-9.30356l22.3225,-0.14744c0,0 1.29422,4.18839 1.43138,5.54361c0.06992,0.69092 -0.16749,2.94341 -0.16749,2.94341z" fill="#423d3b"/><path d="M410.57564,186.7333l-3.13756,-9.85959l0.82051,0.00349l3.13756,9.85959z" fill="#363332"/><path d="M414.94299,194.26139l0.00518,-1.21738c0,0 5.27525,-2.52302 14.34007,-2.48446c1.2044,0.00511 5.44184,2.56863 6.65578,2.5738c7.70203,0.03276 15.24086,0.06484 18.10892,0.07705c2.33574,0.00993 4.72646,-1.2799 4.72646,-1.2799l-0.01071,2.51738z" fill="#312e2c"/><path d="M417.36704,181.53136l-1.72394,-4.62275l8.30763,0.03537l4.13617,4.43895l6.30565,0.22089l-7.59797,1.91641z" fill="#585350"/><path d="M407.85007,188.5166l0.00481,-1.1282c0,0 8.0617,-3.70933 10.93891,-3.69707c4.3363,0.01844 16.30756,0.06939 16.30756,0.06939l-0.00481,1.1282c0,0 -12.17644,-0.05182 -16.51268,-0.07027c-2.81809,-0.012 -10.73377,3.69796 -10.73377,3.69796z" fill="#2b2827"/></g></g></g><g><g><g><path d="M73.03929,229.74629c0.53129,2.23627 0.21088,4.82446 -0.88128,5.08392c-1.09213,0.25948 -2.5424,-1.90804 -3.07369,-4.14432c-0.53129,-2.23627 -2.62903,-10.81567 -1.5369,-11.07515c1.09213,-0.25948 4.96057,7.89927 5.49186,10.13554z" fill="#615e5f" stroke-width="0"/><g><path d="M114.75874,199.99457c-0.53708,-0.52991 -2.87215,-1.85224 -2.87215,-1.85224l9.93217,-2.83777l-6.03059,7.17441c0,0 -0.49235,-1.95452 -1.02944,-2.4844z" fill="#756a6a" stroke-width="0"/><path d="M105.73946,198.259l0.05844,-13.73321l18.55814,-5.78775l-0.08339,19.59983z" fill="#8a7c7c" stroke-width="0"/><path d="M65.68084,203.53564l6.74377,-18.1048l34.93357,0.0153l4.47939,12.68584c0,0 -22.9964,1.47821 -30.69607,2.37963c-3.19621,0.37418 -15.46068,3.02405 -15.46068,3.02405z" fill="#7c787a" stroke-width="0"/><path d="M72.53271,187.83616l-0.14185,-1.48208c0,0 25.924,0.11031 34.07376,0.14497c4.55982,0.01939 16.1751,-6.30162 16.1751,-6.30162l-0.00693,1.62962c0,0 -11.32102,6.30294 -15.73089,6.26954c-8.08605,-0.06127 -34.36918,-0.26042 -34.36918,-0.26042z" fill="#535353" stroke-width="0"/><path d="M33.59861,204.10698l0.08575,-20.15381c0,0 4.5611,-7.0348 11.81502,-9.29992c9.00962,-2.81336 25.89066,-0.9564 27.96127,-0.9476c1.58898,0.00677 -12.9518,10.36164 -12.9518,10.36164l-0.08575,20.15381z" fill="#8d898b" stroke-width="0"/><path d="M206.74077,158.70048l1.61599,-3.13741l107.56358,0.60054l-0.06274,14.74611c0,0 -37.7881,1.68474 -50.00707,1.21665c-6.06825,-0.23246 -59.10974,-13.42587 -59.10974,-13.42587z" fill="#c98cac" stroke-width="0"/><path d="M184.64715,259.6075l-4.48856,-12.95563c0,0 5.11316,5.86129 7.9562,6.95024c1.81138,0.69381 6.03588,1.09355 12.15696,-1.31783c4.9277,-1.94127 10.1198,-7.43001 10.1198,-7.43001l-11.74081,14.81282z" fill="#a08e97" stroke-width="0"/><path d="M275.33566,213.0769l-2.23743,-23.63115l18.5532,-1.32383l-0.0902,21.19682c0,0 -6.40466,1.69189 -9.17269,2.37837c-1.27454,0.3161 -7.05287,1.37976 -7.05287,1.37976z" fill="#96858d" stroke-width="0"/><path d="M182.79357,263.34548l0.02358,-5.54012c0,0 12.05432,2.11984 16.68711,-0.9818c3.13451,-2.09854 34.654,-41.59879 34.654,-41.59879c0,0 3.37536,-3.75889 3.39165,-6.64104c0.0082,-1.44984 0.49591,-5.62652 -0.32579,-7.94139c-0.82903,-2.33556 -2.96761,-2.80298 -2.96761,-2.80298l-4.81437,-13.59288l19.81524,0.228l-3.02242,26.56069l3.74726,2.57785c0,0 -9.58046,5.95943 -14.23044,10.89535c-7.27548,7.72292 -30.79384,38.00804 -30.79384,38.00804z" fill="#918189" stroke-width="0"/><path d="M252.1542,213.33099l1.33529,-28.59846l13.77434,0.33437l10.31252,12.04614l-2.31071,16.31632z" fill="#96858d" stroke-width="0"/><path d="M247.62179,215.16094l-2.4916,-4.1564l3.65035,-26.17458l5.08016,-0.06309l-0.79724,28.58356z" fill="#8f8187" stroke-width="0"/><path d="M274.0309,213.5277c0,0 2.78007,-6.65529 1.45041,-12.07182c-0.76561,-3.11879 -5.66813,-5.1094 -6.13747,-7.02134c-0.89657,-3.65231 -2.2836,-9.30244 -2.2836,-9.30244l7.83648,4.39734c0,0 3.37541,7.22819 3.95503,11.49222c0.38941,2.86477 -1.12139,9.23441 -2.05906,11.82931c-0.07905,0.21875 -1.25482,0.13048 -1.30717,0.29559c-0.12784,0.40332 0.83537,0.63875 0.83537,0.63875z" fill="#86787e" stroke-width="0"/><path d="M274.67571,191.02842c0,0 -3.07397,-3.96807 -7.75229,-4.95959c-5.29641,-1.12249 -22.40262,-1.43141 -22.40262,-1.43141l157.79629,-13.51052l3.37589,9.31622l7.87036,11.17625c0,0 -100.78005,-3.00028 -121.36821,-3.08787c-6.7182,-0.02858 -17.51944,2.49692 -17.51944,2.49692z" fill="#df8db7" stroke-width="0"/><path d="M120.25826,237.65215l-4.64368,-36.28993c0,0 1.69917,-3.74348 2.20128,-3.95701c5.53563,-2.35432 37.61734,-12.86971 43.05529,-12.56029c5.957,0.33895 -9.21191,12.2031 -9.21191,12.2031c0,0 -14.41829,1.96458 -16.97407,6.20366c-3.46997,5.75539 1.30353,23.12939 1.30353,23.12939z" fill="#c77da3" stroke-width="0"/><path d="M192.80528,208.03165l-1.7805,-2.11286c0,0 6.59556,-8.57857 9.03885,-10.86093c2.52247,-2.35632 5.86602,-3.06219 5.86602,-3.06219l5.92563,2.32745c0,0 -4.47388,-0.52161 -6.84492,1.18459c-2.03543,1.4647 -5.80059,4.52741 -8.61394,7.60778c-2.04649,2.24076 -3.59116,4.91617 -3.59116,4.91617z" fill="#414041" stroke-width="0"/><path d="M72.21781,186.78849l4.8497,-11.66899l48.62799,0.20692c0,0 -2.91752,4.44313 -6.04544,6.39597c-3.06996,1.91665 -12.55151,5.21453 -12.55151,5.21453z" fill="#979395" stroke-width="0"/><path d="M73.02263,185.64903l4.04969,-11.6724l48.62799,0.20692c0,0 -2.91752,4.44313 -6.04544,6.39597c-3.06996,1.91665 -12.55151,5.21453 -12.55151,5.21453z" fill="#bdb7ba" stroke-width="0"/><path d="M276.4377,213.85865l-1.87071,-0.52145l16.86649,-4.10307c0,0 -3.56909,2.04221 -6.0564,2.82856c-2.48732,0.78636 -8.93935,1.79595 -8.93935,1.79595z" fill="#887980" stroke-width="0"/><path d="M122.74197,238.12719c0,0 -2.29566,-10.47533 -3.46043,-19.01881c-1.17045,-8.5852 -2.24272,-16.63654 -2.24954,-20.22128c-0.00116,-0.60733 1.68919,-10.53088 2.19118,-11.05017c2.70962,-2.80292 10.4184,4.97352 15.98714,3.89368c8.24548,-1.59892 27.35599,-2.03171 27.35599,-2.03171l-8.47622,5.27465c0,0 -19.46164,2.78236 -21.87511,7.90937c-3.26446,6.93481 4.21745,27.83958 4.21745,27.83958z" fill="#d486ae" stroke-width="0"/><path d="M123.88844,234.61319c0,0 -6.48717,-40.89954 -5.1174,-50.9708c0.6409,-4.71222 -2.67513,-13.83428 -2.67513,-13.83428l50.63713,7.18416l1.35553,16.07589c0,0 -32.02883,-3.22951 -38.4059,3.01735c-4.25691,4.16998 2.43196,32.44177 2.43196,32.44177z" fill="#e490bb" stroke-width="0"/><g stroke-width="0"><path d="M262.57918,172.20898l0.03521,-8.2748l9.35993,0.03983l-0.03521,8.2748z" fill="#454545"/><path d="M263.41479,171.44773l-0.32567,-7.29955l11.32609,0.0482l-0.03107,7.29804z" fill="#b0b0b0"/><path d="M263.20334,166.95776l-0.21652,-2.83127l11.54276,0.04912l-0.00812,1.90738c0,0 -7.79415,0.28929 -9.49411,0.42068c-0.56803,0.0439 -1.82402,0.4541 -1.82402,0.4541z" fill="#bebebe"/><path d="M274.63991,170.94597c0,0 -5.52976,-2.57889 -4.94283,-6.32414c0.87217,-5.56536 4.99132,-5.06972 4.99132,-5.06972l40.23638,1.50455l-0.04281,10.06052z" fill="#9c989a"/><path d="M276.43264,169.66434c0,0 -2.47177,-3.52948 -2.71198,-4.45736c-0.35604,-1.37536 1.6513,-4.32418 1.6513,-4.32418l41.59523,0.21032l-0.43185,7.4869z" fill="#898587"/><path d="M276.34146,169.86224l-1.01135,-1.9437l38.23139,0.16268l-0.00825,1.93938z" fill="#c1bcbf"/><path d="M276.23473,166.46778c0,0 -1.32749,-1.37365 -1.32351,-2.31097c0.00373,-0.87679 1.34673,-3.14352 1.34673,-3.14352l38.66632,0.16453l-0.02321,5.45449z" fill="#0d0d0d"/><path d="M276.23142,167.24509c0,0 -1.32492,-1.97741 -1.32093,-2.91473c0.00373,-0.87679 1.34415,-2.53976 1.34415,-2.53976l38.66632,0.16453l-0.02321,5.45449z" fill="#2e2e2e"/><path d="M271.39737,169.12783c-2.62577,-3.07814 -1.45066,-5.40971 -1.45066,-5.40971c0,0 1.81474,4.1201 3.0464,5.02295c1.45823,1.06891 5.06223,2.45022 5.06223,2.45022l-3.50904,0.05526c0,0 -2.68679,-1.57695 -3.14891,-2.11868z" fill="#7d7a7c"/><path d="M278.83011,167.56585c0,0 -0.87947,-2.21578 -0.8746,-3.35932c0.00426,-1.00523 0.90226,-3.14063 0.90226,-3.14063l4.82328,0.02053c0,0 -0.47049,2.202 -0.47418,3.07023c-0.00507,1.19329 0.44653,3.42971 0.44653,3.42971z" fill="#555555"/><path d="M287.44672,167.6025c0,0 0.67738,-2.52026 0.68225,-3.6638c0.00426,-1.00522 -0.65459,-2.83614 -0.65459,-2.83614l5.38329,0.0229c0,0 -0.42395,1.71329 -0.42767,2.58152c-0.00507,1.19329 0.40001,3.91841 0.40001,3.91841z" fill="#555555"/><path d="M296.77326,167.6422c0,0 0.67739,-2.52026 0.68226,-3.6638c0.00426,-1.00523 -0.6546,-2.83614 -0.6546,-2.83614l5.30328,0.02257c0,0 -0.42395,1.71329 -0.42767,2.58152c-0.00507,1.19329 0.40001,3.91841 0.40001,3.91841z" fill="#555555"/><path d="M306.43651,167.68331c0,0 0.85368,-2.16395 0.85853,-3.30749c0.00426,-1.00522 -0.83088,-3.19245 -0.83088,-3.19245l5.14329,0.02189c0,0 0.81932,1.98523 0.81564,2.85349c-0.00507,1.19329 -0.84329,3.64645 -0.84329,3.64645z" fill="#555555"/><path d="M278.58859,161.76873l-0.66171,-0.80281l35.56228,0.15133l-1.53764,0.79348c0,0 -2.83006,-0.01204 -5.29224,-0.02252c-0.53669,-0.00228 -1.55088,-0.33536 -2.35476,-0.3388c-0.77728,-0.00331 -1.33658,0.32309 -2.30275,0.31897c-1.50666,-0.00641 -3.20659,-0.01365 -4.98625,-0.02121c-0.73784,-0.00314 -1.37818,-0.38943 -2.13534,-0.39264c-0.67325,-0.00287 -1.46216,0.37734 -2.1386,0.37447c-1.67886,-0.00714 -3.34116,-0.01422 -4.90406,-0.02088c-0.71769,-0.00305 -1.41254,-0.44437 -2.08031,-0.44722c-0.81517,-0.00347 -1.589,0.43161 -2.30322,0.42856c-2.91343,-0.01239 -4.86541,-0.0207 -4.86541,-0.0207z" fill="#474747"/></g><g><path d="M131.08847,228.21488l3.72924,-2.85162c0,0 2.81292,2.8269 5.64312,3.73391c2.50318,0.80222 10.47779,1.43245 10.47779,1.43245l-2.67356,4.34296z" fill="#6d6a6b" stroke-width="0"/><path d="M123.00194,234.68071l9.26282,-7.34583c0,0 3.2251,2.2703 5.39104,2.94141c3.27672,1.0153 12.35633,2.55763 12.35633,2.55763l-4.29604,4.28909z" fill="#615e5f" stroke-width="0"/><path d="M124.90722,256.65643l-1.38723,-22.57916c0,0 4.35083,0.81045 9.17194,0.86059c3.76309,0.03913 7.81441,-0.79076 10.29558,-0.17184c4.35582,1.08652 37.82901,13.58476 37.82901,13.58476l2.43516,10.18526z" fill="#575455" stroke-width="0"/><path d="M146.61359,229.70662c6.95692,-5.53566 15.08353,-18.95327 16.35282,-21.51929c0.91441,-1.84862 1.62435,-7.12167 1.62435,-7.12167l7.67464,6.84753c0,0 5.76257,20.52147 6.88934,33.17311c0.31528,3.54006 2.81596,7.49593 1.62346,8.95731c-1.06844,1.30936 -18.03933,3.52707 -23.43028,2.73937c-11.34501,-1.65769 -17.14891,1.10717 -20.87113,-4.18404c-3.72225,-5.29122 3.40513,-11.53122 3.40513,-11.53122c0,0 4.92055,-5.91995 6.73166,-7.3611z" fill="#504e4f" stroke-width="0"/><path d="M151.55884,196.90212c0,0 0.40218,-1.49108 1.26198,-2.15093c1.10579,-0.84864 4.82244,-2.51855 4.82244,-2.51855c0,0 9.35806,2.10719 12.35771,4.60998c2.76759,2.30915 -3.5568,12.56351 -3.5568,12.56351l-1.9837,-5.36985z" fill="#464445" stroke-width="0"/><path d="M174.59218,244.22803c0,0 -9.31078,6.21621 -17.79583,6.35154c-8.18557,0.13055 -15.55832,-5.7927 -15.44524,-7.21447c0.06125,-0.7703 8.00322,-4.04188 11.49767,-8.24845c3.88443,-4.67604 3.42027,-10.37961 4.77965,-12.38429c3.79508,-5.59661 12.28327,-15.73907 11.24796,-21.7872c-1.08575,-6.34278 -11.79437,-8.46222 -11.79437,-8.46222c0,0 3.86074,-2.23528 8.84691,-2.34396c2.12393,-0.04629 6.66558,1.35889 7.58722,1.74778c3.02228,1.27523 5.00604,2.91995 5.00604,2.91995c0,0 3.6793,-4.8637 7.28269,-5.15783c3.6034,-0.29414 22.41649,2.73357 22.41649,2.73357l-16.26397,12.52491z" fill="#555354" stroke-width="0"/><path d="M157.22959,223.32566c0,0 4.66702,-10.85304 9.42049,-16.26776c4.75345,-5.41472 8.84537,-8.57782 12.37768,-8.56279c2.55792,0.01087 5.80944,8.64018 5.80944,8.64018l-11.19924,28.72183c0,0 -14.63498,3.21688 -16.10168,0.72994c-1.15839,-1.96419 -0.3067,-13.26143 -0.3067,-13.26143z" fill="#585758" stroke-width="0"/><path d="M179.66861,250.72109c0,0 -2.8518,-6.20326 -2.51266,-9.22405c0.47374,-4.22002 1.97146,-16.86771 1.97146,-16.86771l1.91226,10.44392c0,0 -0.68195,9.74468 -0.56214,12.77512c0.11558,2.92385 1.52966,5.10028 1.52966,5.10028z" fill="#3f3e3f" stroke-width="0"/><path d="M178.81601,232.85205c-0.18829,-1.67562 0.11136,-9.38534 0.11136,-9.38534c0,0 9.62007,-14.52718 11.72875,-17.17131c0.61819,-0.77515 3.98115,-2.49179 3.98115,-2.49179l-1.66692,4.84686c0,0 -1.57639,0.59729 -1.75824,1.07436c-0.19374,0.50828 0.62924,1.88761 0.62924,1.88761l-5.16489,8.45821c0,0 -1.65488,1.00353 -1.83621,1.50815c-0.18138,0.50473 0.50247,1.39579 0.50247,1.39579c0,0 -3.89235,8.92479 -4.7451,11.33593c-0.39428,1.11484 -0.1653,2.54845 -0.1653,2.54845c0,0 -1.428,-2.33128 -1.61631,-4.00692z" fill="#474647" stroke-width="0"/><path d="M165.77928,211.82803l21.0236,8.32482c0,0 -1.19323,1.00721 -1.43271,1.54525c-0.17671,0.39702 0.12609,1.39041 0.12609,1.39041z" fill="#3f3e3e" stroke-width="NaN"/><path d="M171.82328,201.5007l21.38152,7.14986c0,0 -1.11859,0.83857 -1.33198,1.39399c-0.22244,0.57902 0.1425,1.6598 0.1425,1.6598z" fill="#3f3e3e" stroke-width="NaN"/><path d="M159.26135,230.12751c0,0 10.65961,7.73842 16.51225,13.74099c5.85264,6.00256 3.90684,7.20112 3.90684,7.20112z" fill="#636162" stroke-width="NaN"/><path d="M172.64613,207.12764c0,0 -6.01293,2.87851 -8.77545,5.96272c-2.76251,3.0842 -11.16526,19.23151 -11.15274,16.28602c0.01253,-2.94551 13.22232,-23.61062 15.01723,-23.60297c0.67945,0.0029 3.72055,-1.12646 4.53795,-0.8855c1.3419,0.39558 0.37302,2.23975 0.37302,2.23975z" fill="#918f91" stroke-width="0"/><path d="M124.45158,256.52505l13.95074,-1.82894c0,0 12.59719,-0.27867 15.73319,-0.11026c7.63707,0.4101 30.2557,2.57985 30.2557,2.57985l-0.47392,6.31911c0,0 -24.37591,3.46177 -31.26466,2.11681c-1.99291,-0.38909 -7.8069,-1.0319 -12.05686,-2.40218c-8.31697,-2.6816 -16.1442,-6.67436 -16.1442,-6.67436z" fill="#626061" stroke-width="0"/><path d="M182.91387,263.12869c0,0 0.0587,-4.29244 -0.38029,-6.63419c-0.49341,-2.63205 -2.43599,-8.38922 -2.43599,-8.38922l1.78231,0.00758c0,0 1.70019,4.46408 2.14688,6.84684c0.48835,2.60516 0.66942,8.17655 0.66942,8.17655z" fill="#4a494a" stroke-width="0"/><path d="M182.71508,263.96416l0.1027,-3.39675c0,0 0.56563,0.26711 0.83713,0.26827c0.3226,0.00138 0.93036,-0.26075 0.93036,-0.26075l0.16023,3.17726c0,0 -0.77829,0.40432 -1.14825,0.44294c-0.2835,0.02959 -0.88212,-0.23098 -0.88212,-0.23098z" fill="#363536" stroke-width="0"/><path d="M180.36828,249.13178l-0.37896,-1.62225c0,0 0.41889,-0.35263 0.78762,-0.41028c0.35116,-0.05491 0.87305,0.07006 0.87305,0.07006l0.49423,1.7385c0,0 -0.48398,0.50538 -0.78824,0.54374c-0.28667,0.03616 -0.98769,-0.31978 -0.98769,-0.31978z" fill="#585758" stroke-width="0"/><path d="M141.06812,262.51943c0,0 -7.88253,-2.98639 -7.87672,-4.34941c0.00583,-1.36982 6.24792,-2.51407 6.24792,-2.51407c0,0 10.94483,-0.1942 15.90104,-0.00053c2.7747,0.10842 11.30477,1.06371 11.30477,1.06371c0,0 7.28726,1.08523 8.09742,2.2404c0.88375,1.26008 -2.99245,4.08522 -2.99245,4.08522c0,0 -12.72929,1.25191 -16.69318,1.0268c-1.40811,-0.07997 -13.98881,-1.5521 -13.98881,-1.5521z" fill="#6b696a" stroke-width="0"/><path d="M130.71458,255.57383l-1.96265,0.22244c0,0 0.64099,-3.43199 3.35571,-2.1782c2.71472,1.25378 21.69281,0.32309 21.69281,0.32309z" fill="#4b4949" stroke-width="0"/><path d="M124.52513,256.38134c0,0 -1.99857,0.18309 -2.51816,-3.46191c-0.26301,-1.84507 -1.94258,-16.04449 -1.94258,-16.04449l3.74825,-2.8832c0,0 0.65628,5.99659 0.85011,8.89968c0.25776,3.86108 0.78554,13.49381 0.78554,13.49381z" fill="#3f3d3e" stroke-width="0"/><path d="M131.03566,255.74114c0,0 3.20183,-2.14452 19.25951,-2.41333c1.32607,-0.02219 -1.79503,-0.03964 7.60247,0.50766c9.39749,0.54729 13.29926,2.07657 13.29926,2.07657c0,0 -15.06149,-1.13348 -21.26426,-1.15988c-7.0704,-0.03009 -18.89695,0.98899 -18.89695,0.98899z" fill="#838082" stroke-width="0"/><path d="M136.21235,226.13073c0,0 -4.37989,2.16881 -6.56179,3.77512c-2.4524,1.80543 -7.43616,6.53004 -7.43616,6.53004l-0.77767,-1.60494c0,0 3.77895,-3.83763 5.99906,-5.47209c2.42733,-1.78697 7.99886,-4.83308 7.99886,-4.83308z" fill="#4a494a" stroke-width="0"/><path d="M137.14745,225.8769l-3.56815,1.66539c0,0 0.09914,-0.646 -0.01932,-0.89049c-0.14075,-0.2905 -0.67446,-0.70077 -0.67446,-0.70077l3.15225,-1.78832c0,0 0.75306,0.48986 0.95526,0.80222c0.15493,0.23934 0.1544,0.91195 0.1544,0.91195z" fill="url(#color-3)" stroke-width="0"/><path d="M123.13629,235.6615l-2.96254,2.71719l-0.13455,-2.18324l2.08738,-2.01335c0,0 0.72588,0.17321 0.89887,0.42666c0.16298,0.23879 0.11085,1.05272 0.11085,1.05272z" fill="url(#color-4)" stroke-width="0"/></g><path d="M253.30744,212.23943c0,0 0.94619,-4.41469 1.45541,-5.80164c0.34567,-0.94151 2.72513,-2.36305 2.72513,-2.36305l17.02021,-0.14578c0,0 -1.3018,5.79227 -1.68869,7.15689c-0.16949,0.59782 -1.23838,1.28587 -1.23838,1.28587z" fill="#665b60" stroke-width="0"/><path d="M204.7714,193.77622c0,0 -3.78753,-1.57858 -8.71104,-2.75179c-3.12991,-0.74582 -7.39743,-1.33075 -9.25889,-1.23289c-5.41183,0.28449 -7.95252,5.37862 -7.95252,5.37862c0,0 -3.26338,-2.32965 -5.36735,-3.1933c-1.96399,-0.80616 -6.3128,-1.82564 -6.3128,-1.82564c0,0 24.58088,-4.98672 28.43448,-5.55046c7.38767,-1.08072 34.06698,-0.57581 34.06698,-0.57581l6.16309,14.31206z" fill="#8b7c84" stroke-width="0"/><g stroke-width="0"><path d="M254.7661,211.30287c0,0 0.4826,-2.59424 0.89676,-3.48727c0.42945,-0.92597 2.61765,-1.96907 2.61765,-1.96907l14.52989,0.06183c0,0 0.38212,0.98457 0.1436,1.72137c-0.32431,1.00176 -3.11252,3.73729 -3.11252,3.73729z" fill="#585852"/><path d="M254.76927,210.55751c0,0 0.47941,-1.84887 0.89358,-2.7419c0.42945,-0.92597 2.62083,-2.71445 2.62083,-2.71445l14.52989,0.06183c0,0 0.37896,1.72996 0.14044,2.46673c-0.32431,1.00176 -3.10934,2.99191 -3.10934,2.99191z" fill="#797971"/><path d="M271.04729,205.65108c-1.0481,-0.18242 -12.66941,-0.50321 -12.66941,-0.50321l14.51002,0.06175l-0.01047,2.4618c0,0 -0.78204,-1.83792 -1.83013,-2.02032z" fill="#85857b"/></g><path d="M256.27463,193.14101l0.02208,-5.1897l7.13584,0.03037l1.27535,5.19522z" fill="#7c6e75" stroke-width="0"/><path d="M245.96309,166.6733l-4.14208,-8.14895l1.37931,0.00586l6.07563,8.60881z" fill="#d495b6" stroke-width="0"/><path d="M206.99233,158.8784l13.23207,-3.0334l21.79525,2.70527l3.9685,8.10922z" fill="#df9cbe" stroke-width="0"/><path d="M256.41544,198.1692l0.0069,-1.6218l10.86593,0.04623l0.96616,1.62593z" fill="#7c6e75" stroke-width="0"/><path d="M215.89558,185.84254c0,0 -18.13856,1.12124 -23.77344,1.59742c-8.5324,0.72103 -25.61242,2.97365 -25.61242,2.97365c0,0 15.04246,-4.37667 28.5562,-5.83527c14.65235,-1.5815 58.70771,-2.85147 58.70771,-2.85147l-0.023,5.40901z" fill="#75686e" stroke-width="0"/><path d="M208.9399,194.58349l-3.24079,-0.58461c0,0 9.78052,-2.34283 15.11678,-1.5573c5.33627,0.7855 14.59027,5.93025 14.59027,5.93025z" fill="#7c6e76" stroke-width="0"/><path d="M162.50137,190.35566c0,0 -32.29144,-15.53399 -33.16328,-20.15787c-0.79193,-4.20022 29.81151,2.47483 30.10971,2.36786c5.21824,-1.8717 77.13122,-8.78065 77.13122,-8.78065l26.57962,6.90249l52.76386,-0.34692l7.25043,13.60641c0,0 -61.56353,0.90696 -85.33027,0.96887c-8.25008,0.0215 -25.07946,-0.69783 -40.38806,0.37736c-11.80857,0.82934 -29.51309,5.07067 -29.51309,5.07067z" fill="#ee96c3" stroke-width="0"/><path d="M33.31761,202.34942l3.41264,-20.13965c0,0 -0.07154,-7.05451 7.18238,-9.31964c9.00962,-2.81336 25.89066,-0.9564 27.96127,-0.9476c1.58898,0.00677 -12.9518,10.36164 -12.9518,10.36164l-0.08575,20.15381z" fill="#c4b4b3" stroke-width="0"/><g stroke-width="0"><path d="M314.55164,185.29234l-2.7927,-15.15488l92.72714,7.15909l-0.78147,5.80367l-47.44881,4.65527z" fill="#ad6d8e"/><path d="M340.95779,171.06834l7.30786,-8.24171l26.78353,-2.01509l-4.34925,10.38336z" fill="#8d788b"/><path d="M315.48197,172.14859l0.06908,-16.23514l32.78485,6.91764l-4.60788,6.84944z" fill="#857183"/><path d="M357.91445,169.00822l17.07207,-8.19572l27.82533,3.89109l-0.31541,6.89273z" fill="#947e92"/><path d="M311.31554,171.52233l2.94791,-12.75354l1.45983,-3.05765l-0.06409,15.06368z" fill="#756474"/><path d="M315.8446,182.08345l-0.66993,-12.0757l43.32043,-1.46453l-1.29438,16.05169z" fill="#746373"/><path d="M357.1931,184.57941c0,0 0.40684,-6.30579 0.61767,-9.14907c0.18052,-2.43434 0.57052,-6.8751 0.57052,-6.8751l44.19574,1.09715l1.96424,8.40843z" fill="#867284"/><path d="M311.3563,171.45205l4.03407,-1.51375l0.48423,12.15289z" fill="#6f5e6d"/><path d="M395.59708,164.56527l-19.80368,-3.44794l26.71156,3.75007l-0.37872,3.54388c0,0 -0.3069,-1.57062 -1.51221,-2.28062c-0.80629,-0.47496 -5.01694,-1.56539 -5.01694,-1.56539z" fill="#978195"/><path d="M356.24315,168.35133c0,0 7.98931,-3.43131 10.77327,-4.77356c2.028,-0.97778 4.39313,-2.53876 4.39313,-2.53876l2.53332,0.1234l-15.05109,7.20019z" fill="#9c859a"/><path d="M341.85899,169.09849c0,0 1.3281,-2.74667 2.6841,-4.09118c1.35601,-1.34452 3.66768,-2.1499 3.66768,-2.1499l-3.89027,6.25157z" fill="#806b7d"/><path d="M376.57102,159.07344l2.15771,-5.7242l15.18398,3.79797l5.57272,6.42377z" fill="#55494f"/><path d="M374.02579,161.86278c0,0 1.0858,-0.78559 1.64867,-1.36796c0.42398,-0.43868 1.11785,-1.8203 1.11785,-1.8203l22.2965,4.0949c0,0 0.86573,0.50065 1.45057,0.82883c0.61117,0.34295 2.14089,1.18649 2.14089,1.18649z" fill="#685960"/><path d="M377.13601,158.18368l1.67802,-4.57826l14.13206,3.38699c0,0 -8.00011,-1.56675 -12.48226,-1.33117c-2.5999,0.13665 -3.32784,2.52244 -3.32784,2.52244z" fill="#41383c"/></g><path d="M35.12409,163.07661l0.02215,-5.20829c0,0 22.34184,-1.20002 44.29953,-1.04962c13.08477,0.08963 26.64772,1.74502 33.57043,1.42433c15.60914,-0.72306 26.09703,-5.19068 26.09703,-5.19068l-6.38582,10.61604z" fill="#ffa1d1" stroke-width="0"/><path d="M32.48676,177.02313l2.22876,-16.07324c0,0 54.78705,2.29365 72.6359,1.92893c10.57293,-0.21605 24.58899,-3.91565 24.58899,-3.91565l-0.0623,14.64221c0,0 -67.5004,-0.28721 -83.77263,-0.35645c-6.69053,-0.02847 -15.73309,30.65827 -15.73309,30.65827z" fill="#ee96c3" stroke-width="0"/><path d="M211.36907,254.27705l9.33777,-13.55629c0,0 9.98602,-15.8149 19.41547,-22.63759c2.39618,-1.73376 7.57075,-2.90825 7.57075,-2.90825c0,0 -7.32503,4.95399 -9.93172,7.73436c-6.15582,6.566 -26.39226,31.36776 -26.39226,31.36776z" fill="#70646b" stroke-width="0"/><path d="M307.65254,189.8455l-6.22397,-18.02844l1.35013,0.00576c0,0 1.88495,5.45995 2.88096,8.34502c0.14191,0.41106 1.50169,1.63796 1.67748,2.14712c0.30469,0.88262 -0.54866,1.12252 -0.20811,2.10905c0.94832,2.74693 1.87366,5.42728 1.87366,5.42728z" fill="#795467" stroke-width="0"/><path d="M132.50869,174.03986c0,0 -10.45405,-6.59687 -9.75866,-10.36886c0.41639,-2.25849 17.29264,-10.1389 17.29264,-10.1389l68.49421,1.96356l-1.64984,3.08913l29.62752,5.37453l-71.90839,26.26947c0,0 -0.76747,-5.61713 2.84694,-8.45993c3.51282,-2.76291 18.54347,-8.364 18.54347,-8.364c0,0 -34.21689,-0.1946 -41.50737,-0.31229c-2.43231,-0.03927 -11.98055,0.94725 -11.98055,0.94725z" fill="#f399c8" stroke-width="0"/><g><path d="M138.23761,155.44862l0.01378,-3.23831l176.55207,0.75124l-0.01378,3.23831z" fill="#584f54" stroke-width="0"/><path d="M309.00609,153.18511l0.01165,-2.7363l3.05523,0.01299l2.68414,2.74777z" fill="#685d63" stroke-width="0"/><g fill="#685d63" stroke-width="0"><g><g><g><path d="M302.34506,153.40595l0.01267,-2.97699l3.88109,0.01651l-0.01267,2.97699z"/><path d="M296.04757,153.37916l0.01267,-2.97699l3.88109,0.01651l-0.01267,2.97699z"/></g><g><path d="M289.98775,153.35334l0.01267,-2.97699l3.88109,0.01651l-0.01267,2.97699z"/><path d="M283.69025,153.32656l0.01267,-2.97699l3.88109,0.01651l-0.01267,2.97699z"/></g></g><g><g><path d="M277.51159,153.30027l0.01267,-2.97699l3.88109,0.01651l-0.01267,2.97699z"/><path d="M271.2141,153.27349l0.01267,-2.97699l3.88109,0.01651l-0.01267,2.97699z"/></g><g><path d="M265.15425,153.24768l0.01267,-2.97699l3.88109,0.01651l-0.01267,2.97699z"/><path d="M258.85685,153.2209l0.01267,-2.97699l3.88109,0.01651l-0.01267,2.97699z"/></g></g></g><g><g><g><path d="M258.61921,153.21989l0.01267,-2.97699l3.88109,0.01651l-0.01267,2.97699z"/><path d="M252.32174,153.19309l0.01267,-2.97699l3.88109,0.01651l-0.01267,2.97699z"/></g><g><path d="M246.26189,153.1673l0.01267,-2.97699l3.88109,0.01651l-0.01267,2.97699z"/><path d="M239.96442,153.14051l0.01267,-2.97699l3.88109,0.01651l-0.01267,2.97699z"/></g></g><g><g><path d="M233.78579,153.11423l0.01267,-2.97699l3.88109,0.01651l-0.01267,2.97699z"/><path d="M227.48831,153.08743l0.01267,-2.97699l3.88109,0.01651l-0.01267,2.97699z"/></g><g><path d="M221.42847,153.06165l0.01267,-2.97699l3.88109,0.01651l-0.01267,2.97699z"/><path d="M215.131,153.03485l0.01267,-2.97699l3.88109,0.01651l-0.01267,2.97699z"/></g></g></g></g><g><g fill="#685d63" stroke-width="0"><g><g><path d="M208.91193,153.00839l0.01267,-2.97699l3.88109,0.01651l-0.01267,2.97699z"/><path d="M202.61446,152.9816l0.01267,-2.97699l3.88109,0.01651l-0.01267,2.97699z"/></g><g><path d="M196.55463,152.95581l0.01267,-2.97699l3.88109,0.01651l-0.01267,2.97699z"/><path d="M190.25719,152.929l0.01267,-2.97699l3.88109,0.01651l-0.01267,2.97699z"/></g></g><g><g><path d="M184.07854,152.90272l0.01267,-2.97699l3.88109,0.01651l-0.01267,2.97699z"/><path d="M177.78104,152.87593l0.01267,-2.97699l3.88109,0.01651l-0.01267,2.97699z"/></g><g><path d="M171.72119,152.85014l0.01267,-2.97699l3.88109,0.01651l-0.01267,2.97699z"/><path d="M165.42371,152.82334l0.01267,-2.97699l3.88109,0.01651l-0.01267,2.97699z"/></g></g></g><g><g fill="#685d63" stroke-width="0"><g><path d="M165.18609,152.82232l0.01267,-2.97699l3.88109,0.01651l-0.01267,2.97699z"/><path d="M158.88861,152.79554l0.01267,-2.97699l3.88109,0.01651l-0.01267,2.97699z"/></g><g><path d="M152.82874,152.76977l0.01267,-2.97699l3.88109,0.01651l-0.01267,2.97699z"/><path d="M146.53131,152.74296l0.01267,-2.97699l3.88109,0.01651l-0.01267,2.97699z"/></g></g><g fill="none" stroke-width="1" font-family="sans-serif" font-weight="normal" font-size="12" text-anchor="start"><g/><g/></g></g></g><path d="M138.32186,152.45885l2.70743,-2.72482l3.05523,0.01299l-0.01165,2.7363z" data-paper-data="{&quot;index&quot;:null}" fill="#685d63" stroke-width="0"/></g><path d="M195.09246,185.58713l-2.55299,0.25918c0,0 1.68982,-2.56037 11.28968,-3.64723c7.27812,-0.82399 27.84682,-2.04794 40.16019,-2.74134c5.71804,-0.322 62.25761,-9.08342 62.25761,-9.08342l5.1988,0.0078c0,0 -61.76043,10.38203 -67.47411,10.68083c-12.63454,0.66069 -33.87872,1.8075 -40.02981,2.35982c-3.34839,0.30067 -8.84938,2.16438 -8.84938,2.16438z" fill="#70475c" stroke-width="0"/><path d="M295.92098,205.04397l-4.9316,1.82484l0.08126,-18.9312c0,0 7.79119,0.08155 15.4108,0.1613c21.87368,0.22894 127.00005,1.32928 127.00005,1.32928l-0.02863,6.72722z" fill="#5a5959" stroke-width="0"/><path d="M294.99899,206.66849l1.1037,-3.0014l137.36279,-7.62111l-11.8737,11.16116z" fill="#4b4a4a" stroke-width="0"/><path d="M418.30685,207.00404c0,0 -5.89248,-3.24983 -8.91883,-4.69081c-1.6219,-0.77225 -7.82789,-3.28298 -7.82789,-3.28298c0,0 7.98903,2.93778 11.32957,3.89994c1.19219,0.34338 2.31261,1.09096 3.6144,1.62463c0.41974,0.17207 2.25491,-2.57931 4.1611,-4.28557c0.56975,-0.50999 1.72842,-0.1405 2.25524,-0.46906c1.20764,-0.75322 1.57129,-1.8431 1.57129,-1.8431c0,0 0.3335,0.93099 -0.89059,2.13955c-0.33398,0.32976 -2.13839,0.6744 -2.46535,1.03338c-1.31042,1.43872 -2.31902,3.03353 -2.62665,3.62341c-0.85853,1.64618 1.26111,2.25683 1.26111,2.25683z" fill="#414040" stroke-width="0"/><path d="M132.45846,174.33707l3.8624,-11.08245l7.0087,-0.59448c0,0 -0.9619,2.64415 -1.52882,4.20247c-0.14278,0.39249 11.65953,-1.51346 12.00869,-0.84095c0.64782,1.24774 -4.94025,4.98387 -5.29677,5.96396c-0.4076,1.12043 -9.11367,1.4792 -9.11367,1.4792z" fill="#303030" stroke-width="0"/><path d="M132.31648,173.96642l3.75435,-10.24782c0,0 2.99459,1.31735 2.99039,2.30233c-0.00762,1.79217 -1.61127,7.57255 -1.61127,7.57255z" fill="#252525" stroke-width="0"/><path d="M290.95997,209.52445l0.01256,-2.95237l5.53631,-2.92885l-1.25065,2.94708c0,0 -1.09606,1.33063 -1.85201,1.84667c-0.66515,0.45407 -2.44621,1.08745 -2.44621,1.08745z" fill="#383838" stroke-width="0"/><g><g fill="#4b4b4b" stroke-width="0"><g data-paper-data="{&quot;origPos&quot;:null}"><g data-paper-data="{&quot;origPos&quot;:null}"><path d="M358.09477,211.18107l0.00967,-2.27271l3.74996,0.01596l-0.00967,2.27271z" data-paper-data="{&quot;origPos&quot;:null}"/><path d="M351.8453,211.04084l0.00967,-2.27271l3.74996,0.01596l-0.00967,2.27271z" data-paper-data="{&quot;origPos&quot;:null}"/></g><g data-paper-data="{&quot;origPos&quot;:null}"><path d="M370.59418,211.3479l0.00967,-2.27271l3.74996,0.01596l-0.00967,2.27271z" data-paper-data="{&quot;origPos&quot;:null}"/><path d="M364.34471,211.20766l0.00967,-2.27271l3.74996,0.01596l-0.00967,2.27271z" data-paper-data="{&quot;origPos&quot;:null}"/></g></g><g data-paper-data="{&quot;origPos&quot;:null,&quot;index&quot;:null}"><g data-paper-data="{&quot;origPos&quot;:null}"><path d="M389.79952,211.20235l0.00967,-2.27271l3.74996,0.01596l-0.00967,2.27271z" data-paper-data="{&quot;origPos&quot;:null}"/><path d="M396.04994,211.1153l0.00967,-2.2727l3.74996,0.01596l-0.00967,2.2727z" data-paper-data="{&quot;origPos&quot;:null}"/></g><g data-paper-data="{&quot;origPos&quot;:null}"><path d="M377.29916,211.26278l0.00967,-2.27271l3.74996,0.01596l-0.00967,2.27271z" data-paper-data="{&quot;origPos&quot;:null}"/><path d="M383.54957,211.17574l0.00967,-2.27271l3.74996,0.01596l-0.00967,2.27271z" data-paper-data="{&quot;origPos&quot;:null}"/></g></g></g><path d="M315.40849,202.75424l0.05791,-13.61098l84.47326,0.35943l-0.05791,13.61098z" data-paper-data="{&quot;origPos&quot;:null}" fill="#444444" stroke-width="0"/><path d="M315.48691,207.47686l0.02035,-4.78241l84.22497,0.35838l-0.02035,4.78241z" data-paper-data="{&quot;origPos&quot;:null}" fill="#414141" stroke-width="0"/><path d="M315.51565,208.90121l0.00688,-1.61763l84.21427,0.35832l-0.00688,1.61763z" data-paper-data="{&quot;origPos&quot;:null}" fill="#3f3f3f" stroke-width="0"/><g stroke-width="0"><g data-paper-data="{&quot;origPos&quot;:null}" fill="#5a5a5a"><g data-paper-data="{&quot;origPos&quot;:null}"><path d="M358.67943,203.01774l0.05851,-13.74988l3.5714,0.0152l-0.05851,13.74988z" data-paper-data="{&quot;origPos&quot;:null}"/></g><g data-paper-data="{&quot;origPos&quot;:null}"><path d="M364.75081,203.04358l0.05851,-13.74988l3.5714,0.0152l-0.05851,13.74988z" data-paper-data="{&quot;origPos&quot;:null}"/><path d="M371.00074,203.07018l0.05851,-13.74988l3.5714,0.0152l-0.05851,13.74988z" data-paper-data="{&quot;origPos&quot;:null}"/></g></g><g data-paper-data="{&quot;origPos&quot;:null}" fill="#5a5a5a"><g data-paper-data="{&quot;origPos&quot;:null}"><path d="M377.60784,203.09829l0.05851,-13.74988l3.5714,0.0152l-0.05851,13.74988z" data-paper-data="{&quot;origPos&quot;:null}"/><path d="M383.85778,203.12488l0.05851,-13.74988l3.5714,0.0152l-0.05851,13.74988z" data-paper-data="{&quot;origPos&quot;:null}"/></g><g data-paper-data="{&quot;origPos&quot;:null}"><path d="M389.92915,203.15072l0.05851,-13.74988l3.5714,0.0152l-0.05851,13.74988z" data-paper-data="{&quot;origPos&quot;:null}"/><path d="M396.1791,203.17731l0.05851,-13.74988l3.5714,0.0152l-0.05851,13.74988z" data-paper-data="{&quot;origPos&quot;:null}"/></g></g><path d="M362.31215,203.0332l-0.88703,1.92728l-5.24151,0.02078l-0.09763,-9.79697l2.59308,-5.91671l0.01046,13.75018z" fill="#3a3a3a"/><path d="M368.38109,203.05902l-0.88703,1.92728l-5.24151,0.02078l-0.09763,-9.79697l2.59308,-5.91671l0.01046,13.75018z" fill="#3a3a3a"/><path d="M374.5879,203.08544l-0.88703,1.92728l-5.24151,0.02078l-0.09763,-9.79697l2.59308,-5.91671l0.01046,13.75018z" fill="#3a3a3a"/><path d="M381.2775,203.1139l-0.88703,1.92728l-5.24151,0.02078l-0.09763,-9.79697l2.59308,-5.91671l0.01046,13.75018z" fill="#3a3a3a"/><path d="M387.55331,203.14059l-0.88703,1.92728l-5.24151,0.02078l-0.09763,-9.79697l2.59308,-5.91671l0.01046,13.75018z" fill="#3a3a3a"/><path d="M393.55325,203.16614l-0.88703,1.92728l-5.24151,0.02078l-0.09763,-9.79697l2.59308,-5.91671l0.01046,13.75018z" fill="#3a3a3a"/><path d="M399.83699,203.19288l-0.88703,1.92728l-5.24151,0.02078l-0.09763,-9.79697l2.59308,-5.91671l0.01046,13.75018z" fill="#3a3a3a"/></g><g stroke-width="0"><g data-paper-data="{&quot;origPos&quot;:null}" fill="#5a5a5a"><g data-paper-data="{&quot;origPos&quot;:null}"><path d="M315.45078,202.83382l0.05851,-13.74988l3.5714,0.0152l-0.05851,13.74988z" data-paper-data="{&quot;origPos&quot;:null}"/></g><g data-paper-data="{&quot;origPos&quot;:null}"><path d="M321.52211,202.85964l0.05851,-13.74988l3.5714,0.0152l-0.05851,13.74988z" data-paper-data="{&quot;origPos&quot;:null}"/><path d="M327.77204,202.88625l0.05851,-13.74988l3.5714,0.0152l-0.05851,13.74988z" data-paper-data="{&quot;origPos&quot;:null}"/></g></g><g data-paper-data="{&quot;origPos&quot;:null}" fill="#5a5a5a"><g data-paper-data="{&quot;origPos&quot;:null}"><path d="M334.37916,202.91434l0.05851,-13.74988l3.5714,0.0152l-0.05851,13.74988z" data-paper-data="{&quot;origPos&quot;:null}"/><path d="M340.62916,202.94095l0.05851,-13.74988l3.5714,0.0152l-0.05851,13.74988z" data-paper-data="{&quot;origPos&quot;:null}"/></g><g data-paper-data="{&quot;origPos&quot;:null}"><path d="M346.70052,202.96678l0.05851,-13.74988l3.5714,0.0152l-0.05851,13.74988z" data-paper-data="{&quot;origPos&quot;:null}"/><path d="M352.95046,202.99337l0.05851,-13.74988l3.5714,0.0152l-0.05851,13.74988z" data-paper-data="{&quot;origPos&quot;:null}"/></g></g><path d="M319.08346,202.84928l-0.88703,1.92728l-2.72991,0.03149l-0.00568,-1.97419z" fill="#3a3a3a"/><path d="M325.15244,202.87509l-0.88703,1.92728l-5.24151,0.02078l-0.09763,-9.79697l2.59308,-5.91671l0.01046,13.75018z" fill="#3a3a3a"/><path d="M331.35922,202.90149l-0.88703,1.92728l-5.24151,0.02078l-0.09763,-9.79697l2.59308,-5.91671l0.01046,13.75018z" fill="#3a3a3a"/><path d="M338.04881,202.92996l-0.88703,1.92728l-5.24151,0.02078l-0.09763,-9.79697l2.59308,-5.91671l0.01046,13.75018z" fill="#3a3a3a"/><path d="M344.32467,202.95667l-0.88703,1.92728l-5.24151,0.02078l-0.09763,-9.79697l2.59308,-5.91671l0.01046,13.75018z" fill="#3a3a3a"/><path d="M350.32462,202.98219l-0.88703,1.92728l-5.24151,0.02078l-0.09763,-9.79697l2.59308,-5.91671l0.01046,13.75018z" fill="#3a3a3a"/><path d="M356.60837,203.00893l-0.88703,1.92728l-5.24151,0.02078l-0.09763,-9.79697l2.59308,-5.91671l0.01046,13.75018z" fill="#3a3a3a"/></g><g><g data-paper-data="{&quot;origPos&quot;:null}"><g data-paper-data="{&quot;origPos&quot;:null}" fill="none" stroke-width="1" font-family="sans-serif" font-weight="normal" font-size="12" text-anchor="start"/><g data-paper-data="{&quot;origPos&quot;:null}" fill="#4b4b4b" stroke-width="0"><path d="M321.8585,211.21744l0.00967,-2.27271l3.74996,0.01596l-0.00967,2.27271z" data-paper-data="{&quot;origPos&quot;:null}"/><path d="M315.60904,211.07722l0.00967,-2.27271l3.74996,0.01596l-0.00967,2.27271z" data-paper-data="{&quot;origPos&quot;:null}"/></g></g><g data-paper-data="{&quot;origPos&quot;:null,&quot;index&quot;:null}" fill="#4b4b4b" stroke-width="0"><g data-paper-data="{&quot;origPos&quot;:null}"><path d="M341.06387,211.07189l0.00967,-2.27271l3.74996,0.01596l-0.00967,2.27271z" data-paper-data="{&quot;origPos&quot;:null}"/><path d="M347.31429,210.98481l0.00967,-2.2727l3.74996,0.01596l-0.00967,2.2727z" data-paper-data="{&quot;origPos&quot;:null}"/></g><g data-paper-data="{&quot;origPos&quot;:null}"><path d="M328.56344,211.13234l0.00967,-2.27271l3.74996,0.01596l-0.00967,2.27271z" data-paper-data="{&quot;origPos&quot;:null}"/><path d="M334.81385,211.04526l0.00967,-2.27271l3.74996,0.01596l-0.00967,2.27271z" data-paper-data="{&quot;origPos&quot;:null}"/></g></g></g></g><path d="M145.14513,172.79705l1.05755,-4.21068c0,0 4.62443,-3.12783 8.15617,-3.26282c4.03749,-0.15432 34.00602,-0.00186 34.00602,-0.00186c0,0 0.65402,1.87854 0.59592,3.0955c-0.07485,1.5679 -2.20392,4.62348 -2.20392,4.62348z" fill="#242424" stroke-width="0"/><path d="M170.04696,169.09297l0.01341,-3.1503l18.00165,0.0766l-0.01341,3.1503z" fill="#313131" stroke-width="0"/><path d="M166.74498,171.00955l0.00277,-0.65223c0,0 1.07232,-1.04659 2.09539,-1.04225c0.97149,0.00413 3.15745,0.48838 5.60863,0.66218c4.66947,0.33108 10.29741,0.45668 10.29741,0.45668l-0.00277,0.65223c0,0 -5.4282,-0.02512 -10.03255,-0.35536c-2.51234,-0.18019 -4.77808,-0.75881 -5.78588,-0.7631c-1.05927,-0.00449 -2.18295,1.04187 -2.18295,1.04187z" fill="#616161" stroke-width="0"/><path d="M193.94473,155.41419l12.6803,3.08059l30.82762,5.43931c0,0 0.73221,0.22731 -7.36323,-0.53541c-2.75395,-0.25947 -13.38532,-1.91374 -22.59993,-3.85578c-2.49335,-0.5255 -15.81267,-4.02299 -15.81267,-4.02299z" fill="#df8cb7" stroke-width="0"/><path d="M12.83206,160.97993l0.02525,-5.93306c0,0 5.77748,-1.72838 9.58126,-1.71221c3.11404,0.01324 11.58153,3.55524 11.58153,3.55524l-0.18705,12.27009z" fill="#626061" stroke-width="0"/><path d="M128.84809,171.45942l3.78561,2.52215l12.25268,-1.27104l50.74449,0.21593l-0.00465,1.09101c0,0 -38.06524,-0.30721 -49.9697,-0.09564c-3.26834,0.05809 -12.9707,0.73767 -12.9707,0.73767z" fill="#ffa6d4" stroke-width="0"/><path d="M9.67766,224.89742l0.0305,-7.16951l23.49826,-16.53039l-1.66541,13.66192l-13.91456,10.07181z" fill="#3f3d3e" stroke-width="0"/><path d="M8.06911,219.83039c0,0 0.2712,-19.65085 1.11764,-29.23067c0.95536,-10.81229 4.32737,-32.39429 4.32737,-32.39429c0,0 8.61532,-0.15269 12.19034,1.50834c3.05972,1.42161 7.95552,7.85188 7.95552,7.85188l-0.14276,33.55126c0,0 -11.91496,13.64755 -14.96945,15.89371c-4.69831,3.45495 -10.47866,2.81978 -10.47866,2.81978z" fill="#555354" stroke-width="0"/><path d="M13.31823,168.80312c0,0 -1.51466,-5.9994 0.56294,-8.68781c2.0776,-2.68841 6.43145,-3.68684 8.99175,-3.67594c2.04239,0.00869 6.26867,0.10541 9.12309,4.5761c2.85441,4.47066 0.90645,11.13254 0.90645,11.13254c0,0 -6.25548,-10.4304 -8.81001,-10.86669c-3.60471,-0.61565 -10.77418,7.52184 -10.77418,7.52184z" fill="#6f6b6c" stroke-width="0"/><path d="M6.59535,224.69597c0,0 1.82541,-26.055 1.87411,-37.4987c0.05071,-11.91769 -0.07545,-32.63682 -0.07545,-32.63682c0,0 1.15895,-0.63803 2.19975,-0.6336c0.95171,0.00404 2.51583,0.65367 2.51583,0.65367c0,0 -0.29582,19.15419 -0.34133,29.84892c-0.05288,12.42535 -2.74321,40.28114 -2.74321,40.28114z" fill="#333232" stroke-width="0"/><path d="M6.1627,225.13775l1.15674,-14.70345c0,0 1.05139,0.89339 1.65101,0.85726c0.75708,-0.0456 2.44019,-1.47597 2.44019,-1.47597l-1.27886,15.33906z" fill="#2e2d2d" stroke-width="0"/><path d="M32.07891,188.98794c-0.03473,8.16456 -4.1958,16.81486 -8.57347,19.72366c-3.63579,2.41586 -11.16313,9.1418 -11.12839,0.97725c0.00736,-1.73207 2.10194,-13.60263 2.2603,-20.63183c0.20942,-9.29603 -1.4151,-14.28393 -0.44525,-17.1114c1.7537,-5.1126 7.2832,-6.56859 9.49769,-6.55915c4.3652,0.01857 8.42385,15.43694 8.3891,23.60148z" fill="#585758" stroke-width="0"/><path d="M66.48043,203.21741l-0.58517,-1.74323c0,0 7.94541,-1.31674 13.96537,-1.77528c8.47477,-0.64553 32.087,-1.73252 32.087,-1.73252l1.79046,1.28881c0,0 -25.11728,1.51353 -33.83417,2.24438c-2.56003,0.21465 -13.42346,1.71785 -13.42346,1.71785z" fill="#585657" stroke-width="0"/><path d="M60.53395,216.39273l5.24796,-13.6692l7.24629,-0.91982c0,0 -1.75642,4.30604 -1.67335,5.06156c0.39695,3.61003 3.29187,27.5896 3.29187,27.5896c0,0 -1.47931,0.43412 -2.66071,-1.44646c-2.11976,-3.37433 -3.92608,-10.2441 -5.66919,-12.35419c-1.50605,-1.8231 -5.78286,-4.26148 -5.78286,-4.26148z" fill="#5a5759" stroke-width="0"/><path d="M73.19435,185.64227l2.93708,-11.32094l2.33379,-0.10118l-4.04914,11.53843z" fill="#a5a0a2" stroke-width="0"/><path d="M79.9886,184.58768l0.00598,-1.40274l26.49603,0.11275l-0.00598,1.40274z" fill="#494748" stroke-width="0"/><path d="M79.92062,181.61607l0.00598,-1.40274l26.49603,0.11275l-0.00598,1.40274z" fill="#494748" stroke-width="0"/><path d="M60.39203,203.94089l0.08569,-20.13815l12.28818,-9.56402l4.84583,-0.29114l-16.45777,42.7439l-5.60264,-2.02724z" fill="#dbd5d8" stroke-width="0"/><path d="M33.84302,215.74246l-0.10772,-11.79138l26.65761,-0.6761c0,0 0.31949,2.53911 0.18588,3.33705c-0.33298,1.98907 -2.36975,8.91827 -2.36975,8.91827z" fill="#ccc6c9" stroke-width="0"/><path d="M37.68131,204.36829l0.00135,-0.31581l22.82047,-0.77137l-2.61041,1.17318c0,0 -4.32239,0.16782 -7.03093,0.12456c-3.70872,-0.05925 -13.18047,-0.21056 -13.18047,-0.21056z" fill="#d8d1d5" stroke-width="0"/><path d="M41.21263,200.64649l0.07233,-16.99984l16.12487,0.06861l-0.07233,16.99984z" fill="#a39999" stroke-width="0"/><path d="M33.56579,215.91104l0.04833,-11.35921c0,0 8.80959,6.42422 13.08628,8.78302c4.2767,2.35881 10.77902,2.1065 10.77902,2.1065z" fill="#b4afb1" stroke-width="0"/><path d="M67.18294,222.09677c0,0 3.02501,1.05339 4.12175,0.9143c0.67373,-0.08544 1.83273,-1.66947 1.83273,-1.66947l1.61991,9.08016l-0.01786,4.19508c0,0 -1.94434,0.30318 -3.21242,-2.28484c-1.04627,-2.13532 -4.34412,-10.23523 -4.34412,-10.23523z" fill="#504e4f" stroke-width="0"/><path d="M60.83605,216.95036l14.63904,-41.68168l1.7427,0.21255l-14.53821,42.09236z" fill="#858183" stroke-width="0"/><path d="M44.17342,176.12309l1.52177,-1.64404c0,0 27.41808,-0.52725 39.82827,-0.47443c10.77119,0.04583 31.94314,0.48891 31.94314,0.48891l0.52119,1.94363c0,0 -21.29408,-0.79658 -32.6476,-0.84489c-12.96424,-0.05518 -41.1668,0.5308 -41.1668,0.5308z" fill="#918b8e" stroke-width="0"/><path d="M45.19688,174.8967l2.03211,-1.93278c0,0 25.88959,-0.24283 38.29977,-0.19002c10.77119,0.04583 31.94314,0.48891 31.94314,0.48891l0.52119,1.94363c0,0 -21.29408,-0.79658 -32.6476,-0.84489c-12.96424,-0.05518 -40.14862,0.53513 -40.14862,0.53513z" fill="#a59fa2" stroke-width="0"/><path d="M109.71654,195.95746l-1.90133,-5.69078c0,0 0.21676,-1.2041 0.55023,-1.31552c0.2938,-0.09815 1.34669,0.68174 1.34669,0.68174l1.90132,5.69078c0,0 -0.27986,0.87644 -0.57434,0.97482c-0.33307,0.11128 -1.32257,-0.34106 -1.32257,-0.34106z" fill="#494242" stroke-width="0"/><path d="M69.43104,198.43471l3.58319,-9.47056l3.88568,0.01652l-3.58319,9.47056z" fill="#9c989a" stroke-width="0"/><path d="M79.07382,180.69942l1.8548,-0.96008l24.43854,0.12205l2.014,0.9585z" fill="#757274" stroke-width="0"/><path d="M79.15621,183.51112l1.8548,-0.96008l24.43854,0.12205l2.014,0.9585z" fill="#757274" stroke-width="0"/><path d="M31.1493,214.91777l1.95439,-58.14992l1.9178,0.5889l-1.41059,58.55341z" fill="#686666" stroke-width="0"/><path d="M30.98478,215.18742l0.72376,-16.25279l2.2748,3.82817l-0.49302,13.3081z" fill="#535252" stroke-width="0"/><path d="M61.82769,192.44371c0,0 2.13401,-2.3364 2.13803,-3.2832c0.00396,-0.92909 -2.11409,-2.34547 -2.11409,-2.34547c0,0 2.99918,0.68248 2.88776,2.37031c-0.08486,1.28562 -1.14472,3.47013 -1.2368,4.57212c-0.26181,3.13338 -0.98167,10.47775 -0.98167,10.47775z" fill="#c4bec1" stroke-width="0"/><path d="M69.51173,190.56476l1.955,-10.18718l2.56736,-4.34342l-2.69569,9.54682z" fill="#aca7a9" stroke-width="0"/></g></g><g stroke-width="0"><path d="M187.68786,163.23686l2.5691,-3.31831c0,0 1.81356,-1.42862 2.63731,-1.15015c0.93924,0.31752 2.69726,2.95359 2.69726,2.95359l-0.55932,4.07959c0,0 -4.28117,-0.02576 -5.54688,-0.16444c-0.57057,-0.06251 -1.7975,-2.40031 -1.7975,-2.40031z" fill="#c0c0c0"/><path d="M144.72836,172.70529c0,0 -0.16424,-2.88073 0.89974,-4.01509c1.33336,-1.42157 7.42268,-3.60788 7.42268,-3.60788l-0.73073,4.73403l-0.01244,2.92119z" fill="#838383"/><path d="M144.55649,172.63019l8.13651,-7.44675l37.562,0.15982l-0.03182,7.48123z" fill="#999999"/><path d="M145.55827,171.97802l6.18453,-5.81486l33.772,0.1437l-0.02485,5.84105c0,0 -4.08755,-0.01739 -9.34572,-0.03977c-3.41863,-0.01455 -7.3276,-1.09321 -10.93421,-1.10854c-3.86902,-0.01647 -7.38948,1.03058 -9.56264,1.02133c-4.25311,-0.01809 -10.08912,-0.04293 -10.08912,-0.04293z" fill="#2e2e2e"/><path d="M149.05046,171.99069l8.39391,-5.86764l12.46398,0.05303c0,0 -7.38413,1.87596 -9.75812,2.78042c-2.52026,0.96019 -5.74137,3.05699 -5.74137,3.05699z" fill="#a5899d"/><path d="M157.04003,171.91193c0,0 5.08923,-0.95047 7.54631,-0.94002c3.13955,0.01336 9.75041,1.0136 9.75041,1.0136l-9.65255,-0.37627z" fill="#adadad"/><path d="M144.66113,172.61249l7.34833,-6.72045l34.96635,0.14879l-0.00292,0.68856c0,0 -30.27652,-0.12884 -34.2231,-0.14562c-0.82548,-0.00351 -8.08865,6.02872 -8.08865,6.02872z" fill="#8a8a8a"/><path d="M191.80145,179.04888l0.04151,-9.75526l0.6814,-7.19906c0,0 1.18515,0.47497 1.73668,1.04081c0.55152,0.56584 0.93017,1.69529 0.93017,1.69529l-1.37676,14.22681z" fill="#9e9e9e"/><path d="M186.36793,174.79496c0,0 -0.9027,-2.12877 -1.03263,-3.71848c-0.17497,-2.14073 0.70404,-7.65522 0.70404,-7.65522l1.94279,-0.31709c0,0 0.75548,0.79501 1.23401,0.64789c0.65973,-0.20283 2.35833,-1.75233 2.35833,-1.75233l-0.55717,12.81504z" fill="#9c9c9c"/><path d="M186.93407,176.62808c-0.77768,-1.10775 -0.5314,-2.47983 -0.5314,-2.47983l4.90827,-7.17956c0,0 1.37708,3.88971 1.37318,4.80615c-0.01108,2.60551 0.97521,7.35944 0.97521,7.35944c0,0 -2.98043,0.07106 -4.01743,-0.37199c-1.24371,-0.53138 -1.93012,-1.02645 -2.7078,-2.13419z" fill="#888888"/><path d="M188.71807,175.86142c-0.97974,-2.00396 -1.97128,-6.47124 -0.11005,-10.53014c1.86123,-4.0589 4.26648,-1.91744 4.26648,-1.91744c0,0 0.98766,4.42721 0.97783,6.74005c-0.00898,2.10683 -1.03449,6.57664 -1.03449,6.57664c0,0 -3.12003,1.13485 -4.09978,-0.86911z" fill="#b4b4b4"/><path d="M192.91258,168.18389c-0.00601,1.41106 -5.11623,1.46674 -5.11023,0.05567c0.00601,-1.41106 3.08771,-6.80017 3.90012,-6.79671c0.31465,0.00135 0.95806,0.10593 1.15003,1.16743c0.30371,1.67935 0.06374,4.70903 0.06009,5.57361z" fill="#bbbbbb"/></g><g stroke-width="0"><path d="M128.7518,171.44386c0,0 -5.83559,-4.94219 -5.82763,-6.8156c0.00651,-1.52963 6.04319,-1.62707 6.04319,-1.62707l7.54489,0.10396l-4.06998,10.76174z" fill="#f399c8"/><path d="M98.219,172.95564c0,0 -0.96115,-2.10196 -0.69933,-3.17356c0.28895,-1.18261 2.36457,-4.77872 2.36457,-4.77872l23.03873,-0.08765l9.08942,8.66193z" fill="#ee96c3"/></g></g><g stroke-width="0"><g><path d="M193.79042,153.63684l0.0263,-6.18177l47.81775,0.20347l-0.0263,6.18177z" fill="#61585b"/><path d="M193.64092,150.39263l0.01407,-3.31032l47.99957,0.20424l-0.01407,3.31032c0,0 -8.64079,-0.03677 -17.51708,-0.07454c-2.77523,-0.0118 -6.68336,1.48882 -9.24774,1.47791c-3.04937,-0.01297 -6.3133,-1.54411 -8.26933,-1.55244c-5.86524,-0.02496 -12.96539,-0.05516 -12.96539,-0.05516z" fill="#494344"/><path d="M255.49585,144.05053l-9.2527,-18.97248l20.91907,0.08902l15.35705,16.8398c0,0 -5.71593,1.33708 -8.94901,1.5816c-4.98896,0.37731 -18.07443,0.4621 -18.07443,0.4621z" fill="#5e555b"/><path d="M255.48333,147.4856l0.02357,-5.53844c0,0 12.30457,-1.40078 17.19996,-2.1596c3.88514,-0.60222 6.69323,-1.17232 6.69323,-1.17232l5.90981,6.96399c0,0 -5.33918,1.57344 -9.48887,1.99971c-5.6227,0.57756 -20.33769,-0.09331 -20.33769,-0.09331z" fill="url(#color-5)"/><path d="M244.54763,125.22962l0.01701,-3.99612l19.15133,0.0815l3.61934,4.01161z" fill="url(#color-6)"/><path d="M254.89947,147.50808l0.00536,-1.2592c0,0 15.60988,-0.00997 20.99705,-0.15459c4.02827,-0.10812 8.4554,-1.66613 8.4554,-1.66613l0.88401,1.1485l-8.23091,2.02552z" fill="#312c30"/><g><path d="M153.92583,136.4777l-0.18875,-8.85925l93.92449,0.39965l7.59245,11.31422z" fill="#8a6672"/><path d="M170.4297,144.83367c0,0 -3.50417,-3.62072 -6.3026,-5.09424c-2.79843,-1.47352 -9.86058,-1.26613 -9.86058,-1.26613l0.12109,-2.0866c0,0 12.32201,0.32887 19.35086,0.45395c16.79098,0.29888 80.9595,1.33156 80.9595,1.33156l3.59522,6.5824z" fill="#755761"/><path d="M173.26759,147.33667l-3.01435,-2.60464l87.58764,-0.11668l1.19235,3.08624z" fill="#694e57"/><path d="M153.57063,128.0139l0.01927,-4.52894l90.80822,-0.29296l3.82552,5.67755c0,0 2.74091,3.34972 -2.54518,3.30194c-1.66408,-0.01506 -10.77056,-3.4223 -12.43879,-3.43738c-16.06627,-0.14524 -79.66904,-0.72018 -79.66904,-0.72018z" fill="#916b77"/><path d="M153.83185,123.48607l-0.10808,-2.525l89.90858,0.24384l1.03502,2.3967z" fill="#9e7582"/><path d="M227.95406,124.48534c-8.065,-0.68226 -72.72384,-1.98974 -72.72384,-1.98974l87.85327,0.37382l4.76907,7.46154c0,0 -11.83349,-5.16338 -19.89849,-5.84565z" fill="#b38f9a"/></g><path d="M204.13915,147.4652l0.03903,-9.17369l20.21204,0.086l-0.03903,9.17369z" fill="#3a3336"/><path d="M204.09034,138.29529l0.72293,-1.51942l18.53825,0.07889l0.97864,1.52666z" fill="#4b4246"/><path d="M204.28144,146.96642l0.03481,-8.1775c0,0 1.03671,5.27031 3.68993,6.38789c2.65322,1.11759 15.92251,1.87322 15.92251,1.87322z" fill="#332c30"/><path d="M245.79393,127.4588l-3.89444,-6.01662c0,0 1.02576,-0.66233 1.6264,-0.65975c0.67144,0.00286 2.21357,0.67609 2.21357,0.67609l3.89444,6.01662z" fill="#757575"/><path d="M248.79414,132.2062l-5.59759,-8.63614l3.83996,0.01634l5.59759,8.63614z" fill="#5a5a5a"/><path d="M253.01158,138.67317l-5.59759,-8.63614l3.83996,0.01634l5.59759,8.63614z" fill="#505050"/><path d="M257.37215,145.37149c-0.95604,-1.47504 -4.68643,-7.23036 -4.68643,-7.23036l3.83996,0.01634l6.5699,10.35457c0,0 -2.05808,0.52673 -3.00751,0.50789c-0.74058,-0.01472 -2.29434,-2.99804 -2.7159,-3.64845z" fill="#3b3b3b"/><path d="M152.37269,139.06927l0.07945,-18.67457l3.18094,0.01354l-0.07945,18.67457z" fill="#443e42"/><path d="M133.48991,140.58788l-0.66048,-5.93086l20.22838,0.08607l-0.02523,5.92795z" fill="url(#color-7)"/><path d="M132.82675,135.28765l0.04616,-10.84689l20.22838,0.08607l-0.04616,10.84689z" fill="#5e555b"/><path d="M132.87237,124.56704l0.81771,-4.15878l19.42838,0.08267l-0.0177,4.16217z" fill="url(#color-8)"/><path d="M203.18919,120.90122l0.02609,-6.13327l15.01754,1.13058l4.60213,4.73073z" fill="#5e555b"/><path d="M222.83348,120.9848l-4.60099,-4.99741c0,0 3.01322,0.70346 5.23719,1.71119c2.22399,1.00773 5.85262,3.31382 5.85262,3.31382z" fill="#776b73"/><path d="M200.16207,122.04389l3.20525,-1.23081l25.60089,-0.15773l3.63798,1.52661z" fill="#6d6269"/></g><g><path d="M205.60259,143.50128c0.00532,-1.2488 0.52058,-2.40334 0.91355,-3.43126c0.54758,-1.43233 1.15512,-2.61758 2.4525,-3.45825c0.79245,-0.5135 1.93135,-0.89805 2.92131,-1.13421c0.65477,-0.15617 1.65562,-0.55199 2.35863,-0.54901c1.59369,0.00678 1.93566,0.08997 3.08326,0.59089c0.6913,0.30174 2.32881,0.75783 2.86095,1.43221c0.45038,0.57079 0.92215,1.52137 1.26092,2.20245c0.57897,1.16394 1.37352,3.03186 1.36759,4.42047c-0.0025,0.58683 -0.50013,1.92317 -0.552,2.43842c-0.16463,1.63577 -0.16754,2.14536 -1.38571,3.24366c-0.74041,0.66755 -2.24997,1.20894 -3.23547,1.61474c-1.02064,0.42025 -2.30014,1.28088 -3.47281,1.27589c-0.7915,-0.00337 -2.2173,-0.54442 -2.98348,-0.68389c-1.66229,-0.30255 -2.55363,-0.48079 -3.57827,-1.62533c-0.87864,-0.9815 -1.13251,-2.58092 -1.49094,-3.94006c-0.18831,-0.71403 -0.52333,-1.62313 -0.52004,-2.39674z" fill="#3a3a3a"/><path d="M206.33411,143.38578c0.00486,-1.14278 0.47639,-2.19929 0.836,-3.13994c0.50109,-1.31074 1.05704,-2.39532 2.24427,-3.16463c0.72517,-0.46991 1.76738,-0.82182 2.67329,-1.0379c0.59918,-0.14293 1.51504,-0.50513 2.15836,-0.50239c1.45838,0.00621 1.7713,0.08233 2.82148,0.5407c0.63259,0.27612 2.1311,0.69346 2.61804,1.3106c0.41214,0.52235 0.84385,1.3922 1.15387,2.01545c0.52983,1.06511 1.25688,2.77443 1.25148,4.04515c-0.00227,0.537 -0.45766,1.75988 -0.50512,2.23137c-0.15066,1.49688 -0.15332,1.96321 -1.26805,2.96827c-0.67754,0.61087 -2.05891,1.10629 -2.96075,1.47763c-0.93398,0.38458 -2.10485,1.17214 -3.17794,1.16756c-0.72429,-0.00308 -2.02905,-0.4982 -2.73018,-0.62582c-1.52116,-0.27687 -2.33681,-0.43995 -3.27446,-1.48734c-0.80406,-0.89816 -1.03636,-2.36177 -1.36434,-3.60553c-0.17231,-0.65342 -0.4789,-1.48531 -0.4759,-2.19323z" fill="#5a5a5a"/><path d="M218.54526,138.90831c-2.03478,-2.39446 -7.12736,-2.61674 -7.12736,-2.61674c0,0 1.94455,-0.53174 3.93466,-0.51634c1.61205,0.01247 3.18283,0.38362 4.33684,1.68956c1.15493,1.30698 1.54249,2.79335 1.82335,4.19001c0.55067,2.73836 0.10267,5.12926 0.10267,5.12926c0,0 -1.0354,-5.4813 -3.07017,-7.87573z" fill="#6d6d6d"/><path d="M213.19701,143.90447c0.00246,-0.57571 0.47114,-1.04043 1.04685,-1.03798c0.57571,0.00246 1.04043,0.47114 1.03798,1.04685c-0.00246,0.57571 -0.47114,1.04043 -1.04685,1.03798c-0.57571,-0.00246 -1.04043,-0.47114 -1.03798,-1.04685z" fill="#272727"/><path d="M213.11741,144.04095c0.00226,-0.52803 0.43211,-0.95426 0.96015,-0.95201c0.52803,0.00226 0.95426,0.43211 0.95201,0.96015c-0.00226,0.52803 -0.43211,0.95426 -0.96015,0.95201c-0.52803,-0.00226 -0.95426,-0.43211 -0.95201,-0.96015z" fill="#131313"/></g></g></g></g></g><path d="M123.78318,253.54985c0.00674,-1.58467 -4.07036,-44.2284 -3.56788,-45.90142c0.67843,-2.25891 9.15375,-0.87219 12.12431,-2.36739c9.09774,-4.57923 18.93019,-9.12449 18.93019,-9.12449c0,0 14.06573,0.64033 18.30221,0.65836c3.1681,0.01348 52.64528,-5.94907 53.34276,4.37555c0.94606,14.0041 -30.65426,-0.16615 -30.70586,11.96438c-0.01307,3.07091 2.39579,3.27666 1.81671,6.42142c-0.13899,0.75478 -2.51274,5.9236 -2.74419,7.5987c-0.36742,2.65901 2.91064,6.67551 -0.41268,9.76068c-2.64914,2.45931 -0.73854,7.48434 -1.38247,8.69723c-4.43745,8.35815 -12.75005,4.51833 -21.76284,4.47997c-10.68591,-0.04548 -26.25173,3.61167 -35.62997,2.33442c-4.04822,-0.55135 -8.32988,5.71534 -8.31025,1.10263z" fill="#86c8f5" stroke-width="0"/><path d="M378.61833,199.63359c4.91262,1.01721 4.95487,7.84911 2.84077,15.61133c-2.11409,7.76222 -6.81357,13.35783 -10.49659,12.49813c-3.68301,-0.85969 -4.95487,-7.84911 -2.84077,-15.61133c2.11409,-7.76222 4.83692,-13.67004 10.49659,-12.49813z" data-paper-data="{&quot;index&quot;:null}" fill="#86c8f5" stroke-width="0"/><path d="M356.99137,209.04179c2.07477,-7.77282 4.19745,-11.91828 9.86298,-10.77508c4.91773,0.99234 5.56477,6.04791 3.48999,13.82073c-2.07477,7.77283 -6.74587,13.39213 -10.4332,12.5511c-3.6873,-0.84104 -4.99455,-7.82394 -2.91977,-15.59676z" data-paper-data="{&quot;index&quot;:null}" fill="#86c8f5" stroke-width="0"/><path d="M343.92076,213.59323c2.07477,-7.77282 5.04322,-14.87494 10.70875,-13.73171c4.91773,0.99234 4.71899,9.00454 2.64422,16.77735c-2.07477,7.77282 -6.25222,9.27545 -9.93953,8.4344c-3.68731,-0.84104 -5.48822,-3.70723 -3.41343,-11.48006z" data-paper-data="{&quot;index&quot;:null}" fill="#86c8f5" stroke-width="0"/><path d="M342.11951,202.34434c4.91773,0.99234 5.56477,6.04791 3.48999,13.82073c-2.07477,7.77282 -6.25222,9.27545 -9.93953,8.4344c-3.68731,-0.84104 -5.48822,-3.70723 -3.41343,-11.48006c2.07477,-7.77282 4.19745,-11.91828 9.86298,-10.77508z" data-paper-data="{&quot;index&quot;:null}" fill="#86c8f5" stroke-width="0"/><g><g><path d="M119.58811,270.99153l0.02375,-5.58186c0,0 2.24057,0.18756 3.09922,-0.77245c1.21311,-1.35633 3.70867,-6.4856 3.70867,-6.4856l0.59926,8.09639c0,0 -3.09372,3.18534 -4.63596,4.07622c-1.11348,0.64319 -2.79496,0.66728 -2.79496,0.66728z" fill="#4d484c" stroke-width="0"/><g><g fill="none" stroke-width="1" font-family="sans-serif" font-weight="normal" font-size="12" text-anchor="start"/><g stroke-width="0"><g><path d="M76.30829,248.95145l-4.86713,-40.82761l8.40127,0.03573l4.86713,40.82761z" fill="#a59da1"/><path d="M71.40509,208.31426c0,0 -0.7559,-4.49545 1.04737,-5.76956c1.80328,-1.27413 6.88649,-1.50575 6.88649,-1.50575l0.48112,7.31111z" fill="#b9b0b5"/><path d="M78.04301,259.604l-1.676,-10.68005l8.36113,0.03558l1.676,10.68005z" fill="#8b8488"/></g><g><path d="M116.51403,245.72571l-4.86712,-40.8276l4.53914,0.01932l4.86713,40.8276z" fill="#a59da1"/><path d="M111.80213,205.89615l-0.78734,-6.44461c0,0 2.9376,-0.66792 3.98823,0.48627c1.05064,1.15419 1.16066,5.17011 1.16066,5.17011z" fill="#b9b0b5"/><path d="M118.23626,256.3783l-1.676,-10.68005l4.5115,0.01919l1.67601,10.68005z" fill="#8b8488"/></g><path d="M78.96578,268.18399c0,0 -3.25847,-2.75666 -3.64983,-4.24294c-0.43562,-1.65449 1.15461,-5.2336 1.15461,-5.2336l47.6856,-4.192c0,0 2.00416,2.34242 2.41934,3.83055c0.58193,2.08582 -3.64859,6.98244 -3.64859,6.98244z" fill="#494547"/><path d="M79.64741,204.97144c0,0 -2.31394,-0.57717 -2.74221,-1.15328c-0.47028,-0.63263 0.82085,-2.70975 0.82085,-2.70975c0,0 12.04824,-0.96071 17.3267,-1.26038c6.1535,-0.34937 16.58734,-0.48881 16.58734,-0.48881c0,0 0.52587,1.22616 0.438,1.82318c-0.08511,0.5782 -0.55386,1.706 -0.55386,1.706z" fill="#c2b8bd"/><path d="M79.32613,266.96479c0,0 -1.22272,-2.84052 -1.45768,-4.51715c-0.19498,-1.39144 0.14015,-3.64736 0.14015,-3.64736l44.86272,-3.86595c0,0 2.01496,3.16153 2.00789,4.82421c-0.0076,1.78616 -2.04692,4.34874 -2.04692,4.34874z" fill="#6f696b"/><path d="M90.42505,272.44178l0.02375,-5.58185l29.80004,-1.47801l-0.02375,5.58185z" fill="#333032"/><path d="M78.89177,272.51414c-1.10796,-0.65264 -2.78172,-2.12552 -2.78172,-2.12552l-0.84078,-6.823c0,0 2.46401,2.28288 3.66556,3.64949c0.85046,0.96729 11.56185,-0.46649 11.56185,-0.46649l-0.02375,5.58185c0,0 -10.47323,0.8363 -11.58117,0.18365z" data-paper-data="{&quot;index&quot;:null}" fill="#444043"/><g><path d="M78.88927,219.93656c0,0 -2.56454,-4.7531 -2.58342,-6.49538c-0.01308,-1.20627 2.48098,-2.95488 2.48098,-2.95488l35.0745,-2.8752c0,0 1.58039,3.1306 1.59729,4.6881c0.01726,1.59184 -1.49485,4.76214 -1.49485,4.76214z" fill="#979797"/><path d="M78.94725,218.87072c0,0 -2.58779,-4.20828 -2.61538,-5.74624c-0.01911,-1.0648 2.46566,-2.59579 2.46566,-2.59579l35.05262,-2.36232c0,0 1.59575,2.77122 1.6204,4.14608c0.02521,1.40516 -1.47069,4.19595 -1.47069,4.19595z" fill="#a2a2a2"/></g><g><path d="M81.19966,236.48619c0,0 -2.56454,-4.7531 -2.58342,-6.49538c-0.01308,-1.20627 2.48098,-2.95488 2.48098,-2.95488l35.0745,-2.8752c0,0 1.58039,3.1306 1.59729,4.6881c0.01726,1.59184 -1.49485,4.76213 -1.49485,4.76213z" fill="#979797"/><path d="M81.25761,235.4204c0,0 -2.58778,-4.20828 -2.61537,-5.74624c-0.01912,-1.06479 2.46565,-2.59579 2.46565,-2.59579l35.05262,-2.36231c0,0 1.59575,2.77122 1.6204,4.14608c0.0252,1.40516 -1.47069,4.19595 -1.47069,4.19595z" fill="#a2a2a2"/></g><g><path d="M83.61492,253.53153c0,0 -2.56454,-4.7531 -2.58342,-6.49538c-0.01308,-1.20627 2.48098,-2.95488 2.48098,-2.95488l35.0745,-2.8752c0,0 1.58039,3.1306 1.59729,4.6881c0.01726,1.59184 -1.49485,4.76213 -1.49485,4.76213z" fill="#7a7a7a"/><path d="M83.67288,252.46574c0,0 -2.58779,-4.20828 -2.61538,-5.74625c-0.01912,-1.06479 2.46564,-2.59578 2.46564,-2.59578l35.05263,-2.36232c0,0 1.59574,2.77122 1.6204,4.14608c0.0252,1.40516 -1.47069,4.19596 -1.47069,4.19596z" fill="#929292"/></g></g></g></g><path d="M76.90727,252.90792c0,0 -0.37823,-1.71807 -0.67319,-4.02995c-0.866,-6.78751 -5.03258,-40.69156 -5.03258,-40.69156l3.14964,4.31642l3.27056,29.43892z" fill="#777275" stroke-width="0"/></g></g></g></svg>