<svg version="1.1" xmlns="http://www.w3.org/2000/svg" xmlns:xlink="http://www.w3.org/1999/xlink" width="470.09161" height="148.94059" viewBox="0,0,470.09161,148.94059"><defs><linearGradient x1="531.53124" y1="193.73121" x2="530.99415" y2="198.51277" gradientUnits="userSpaceOnUse" id="color-1"><stop offset="0" stop-color="#1f1d20"/><stop offset="1" stop-color="#202022"/></linearGradient><linearGradient x1="532.51011" y1="188.95556" x2="531.89205" y2="194.45722" gradientUnits="userSpaceOnUse" id="color-2"><stop offset="0" stop-color="#302d31"/><stop offset="1" stop-color="#1f1e20"/></linearGradient><linearGradient x1="194.45198" y1="199.35159" x2="194.07351" y2="202.72049" gradientUnits="userSpaceOnUse" id="color-3"><stop offset="0" stop-color="#585758"/><stop offset="1" stop-color="#575758"/></linearGradient><linearGradient x1="180.29561" y1="207.90318" x2="179.9985" y2="210.54792" gradientUnits="userSpaceOnUse" id="color-4"><stop offset="0" stop-color="#363536"/><stop offset="1" stop-color="#353536"/></linearGradient><linearGradient x1="333.12582" y1="131.68637" x2="332.50755" y2="137.19026" gradientUnits="userSpaceOnUse" id="color-5"><stop offset="0" stop-color="#5e555b"/><stop offset="1" stop-color="#2b2629"/></linearGradient><linearGradient x1="325.73641" y1="110.05936" x2="325.29028" y2="114.03054" gradientUnits="userSpaceOnUse" id="color-6"><stop offset="0" stop-color="#72676e"/><stop offset="1" stop-color="#5e555b"/></linearGradient><linearGradient x1="211.93414" y1="111.26133" x2="211.27238" y2="117.1523" gradientUnits="userSpaceOnUse" id="color-7"><stop offset="0" stop-color="#5e555b"/><stop offset="1" stop-color="#4d454a"/></linearGradient><linearGradient x1="213.5252" y1="97.09815" x2="213.06056" y2="101.23442" gradientUnits="userSpaceOnUse" id="color-8"><stop offset="0" stop-color="#74686f"/><stop offset="1" stop-color="#5e555b"/></linearGradient></defs><g transform="translate(-66.23096,-96.05838)"><g data-paper-data="{&quot;isPaintingLayer&quot;:true}" fill-rule="nonzero" stroke="none" stroke-linecap="butt" stroke-linejoin="miter" stroke-miterlimit="10" stroke-dasharray="" stroke-dashoffset="0" style="mix-blend-mode: normal"><g><g stroke-width="0"><path d="M257.12956,191.30676l-8.4532,-16.3914l25.48143,2.26865c0,0 -1.74231,5.66978 -2.24221,8.32907c-0.48357,2.57248 -0.7098,7.37495 -0.7098,7.37495z" fill="#7f7d7e"/><path d="M257.20532,191.51335l-2.99093,-5.97818c0,0 1.94693,3.79613 5.09423,4.76827c2.26637,0.70002 4.17532,0.60256 6.80422,1.22073c2.62886,0.61815 4.97329,1.54854 4.97329,1.54854z" fill="#6c6a6b"/></g><g><g><g><path d="M528.02173,198.17888l-1.50898,-5.0114c0,0 5.76896,2.31635 8.2504,3.49356c2.48146,1.17726 0.82581,2.13452 0.82581,2.13452z" fill="url(#color-1)" stroke-width="0"/><path d="M536.04997,189.55413c0,0 1.21051,2.47845 -1.47027,3.07577c-2.68079,0.59736 -5.70225,1.48864 -5.70225,1.48864l-0.34661,-5.60995z" data-paper-data="{&quot;index&quot;:null}" fill="url(#color-2)" stroke-width="0"/><path d="M518.46454,197.10058l0.23426,-2.08529l14.68022,1.64915c0,0 1.16109,0.92973 1.60496,1.3482c0.39898,0.37616 -0.83529,0.84988 -0.83529,0.84988z" fill="#444444" stroke-width="NaN"/><path d="M518.71625,195.16172l-0.98741,-1.87586l12.53679,1.40835l3.18949,2.0107c0,0 -4.21808,-0.23432 -6.51042,-0.47439c-2.58529,-0.27072 -8.22844,-1.06887 -8.22844,-1.06887z" fill="#535353" stroke-width="0"/><path d="M517.6021,193.40913l-0.2513,-0.67226l11.40209,1.28084l1.61626,0.71058z" fill="#363636" stroke-width="0"/><path d="M518.46454,197.10058l0.1271,-1.13125c0,0 6.36263,1.17121 9.22438,1.49268c2.4251,0.27247 6.85414,0.31348 6.85414,0.31348c0,0 0.80712,0.5558 1.03027,0.78505c0.18825,0.19337 -0.29996,0.44253 -0.29996,0.44253c0,0 -4.74834,-0.12638 -7.04761,-0.38469c-3.10205,-0.34849 -9.8884,-1.51788 -9.8884,-1.51788z" fill="#3a3a3a" stroke-width="NaN"/><path d="M517.6677,192.7909l-0.45136,-0.93996l13.55636,1.52288l-1.91265,0.70853z" fill="#242424" stroke-width="0"/><path d="M516.39218,191.94874l0.18472,-1.64398c0,0 8.06579,0.69857 11.0428,1.03303c2.02825,0.22785 5.09224,0.77953 5.09224,0.77953l-1.96857,1.27759z" fill="#3a3a3a" stroke-width="0"/><path d="M516.44333,190.33257l0.22801,-2.02978c0,0 7.64229,0.52656 10.93584,0.89652c2.85005,0.32015 7.68809,1.19562 7.68809,1.19562l-2.63106,1.75985c0,0 -3.62283,-0.48997 -5.85329,-0.74049c-2.96471,-0.33303 -10.36762,-1.08169 -10.36762,-1.08169z" fill="#444444" stroke-width="0"/><path d="M516.61899,188.38252l0.09502,-0.84574c0,0 7.83843,0.75607 11.41318,1.15764c2.48915,0.27961 7.98321,1.0213 7.98321,1.0213l-0.95464,0.7492c0,0 -4.99015,-0.8511 -7.93685,-1.18212c-3.2465,-0.36471 -10.59992,-0.90027 -10.59992,-0.90027z" fill="#535353" stroke-width="0"/><path d="M516.57576,187.60689l0.03802,-0.3383c0,0 7.68489,0.35305 11.12365,0.73939c2.97307,0.33399 8.31558,1.44437 8.31558,1.44437l-0.00067,0.34252c0,0 -5.9529,-0.83471 -9.17762,-1.197c-3.2669,-0.36698 -10.29891,-0.99094 -10.29891,-0.99094z" fill="#4e4e4e" stroke-width="0"/></g><g stroke-width="0"><g><g><g><path d="M512.70181,195.96214l-3.08365,-13.59282l0.74172,-1.64883c0,0 3.09257,3.59692 3.73121,6.1747c0.34669,1.39947 0.0562,9.22936 0.0562,9.22936z" fill="#383638"/><path d="M513.8236,195.39244c0,0 0.12607,-0.59934 -0.22455,-3.10905c-0.38236,-2.7369 -1.36014,-6.50673 -1.63093,-7.61784c-0.60787,-2.49416 -1.34349,-2.70812 -1.34349,-2.70812l4.83498,-0.04234l3.42307,14.04571z" fill="#555355"/><path d="M510.6787,182.04938l-0.44018,-1.2936c0,0 2.09687,-0.56952 3.05247,-0.46214c0.89545,0.1006 1.94243,0.95006 1.94243,0.95006l0.43202,1.36582z" fill="#686668"/></g><path d="M507.06457,195.32886l-3.08365,-13.59281l0.41071,-1.66579c0,0 3.42361,3.61386 4.06217,6.1916c0.3467,1.39946 0.05621,9.22936 0.05621,9.22936z" fill="#383638"/><path d="M508.18631,194.75914c0,0 0.12608,-0.59935 -0.22455,-3.10905c-0.38236,-2.7369 -1.36014,-6.50673 -1.63093,-7.61784c-0.60787,-2.49416 -1.34349,-2.70812 -1.34349,-2.70812l4.14548,-0.62293c0,0 0.87969,1.36093 1.06497,2.12114c0.52789,2.16595 3.04768,12.5051 3.04768,12.5051z" fill="#555355"/><path d="M505.04141,181.41602l-0.65697,-1.31796c0,0 2.3137,-0.5451 3.26933,-0.43777c0.89545,0.1006 1.65334,0.9176 1.65334,0.9176l0.55629,1.37984z" fill="#686668"/><path d="M514.74777,194.49624c0.09149,-0.8144 0.82588,-1.4004 1.64023,-1.30892c0.81442,0.09148 1.4004,0.82588 1.30892,1.64023c-0.09149,0.8144 -0.82588,1.4004 -1.64022,1.30892c-0.81442,-0.09148 -1.4004,-0.82588 -1.30892,-1.64023z" fill="#312f31"/><path d="M515.72629,191.65847l-1.36769,-5.73506l1.59743,0.03523l1.36053,5.7992z" fill="#444144"/></g><path d="M468.53231,186.00258l-2.53288,-11.17613l29.56421,4.50503l-1.54461,9.53421z" fill="#444444"/><path d="M481.53129,183.52276c0,0 0.69027,-0.44769 1.53139,-1.46506c0.76907,-0.93016 1.67327,-2.41644 2.10727,-2.83434c1.15965,-1.58694 3.47125,-0.85751 3.47125,-0.85751l-1.04637,0.53961l-4.92783,4.74489z" fill="#292929"/><path d="M483.13763,194.29885l-5.24879,-11.63003c0,0 3.41756,0.91853 5.22765,0.06624c1.40659,-0.66236 1.60682,-3.28838 3.20572,-3.39148c4.58721,-0.29563 17.42974,0.71043 17.42974,0.71043c0,0 2.42227,7.46203 3.0214,10.43453c0.4136,2.05214 0.32779,6.50237 0.32779,6.50237z" fill="#4a464a"/><path d="M488.7123,181.73407c-4.46129,-1.14123 -2.87721,-2.33579 -2.87721,-2.33579c0,0 0.93312,-1.20559 2.80511,-1.14238c4.59374,0.15514 13.11841,1.69327 14.83275,1.86008c0.80848,0.07863 0.2667,0.73014 0.2667,0.73014c0,0 -1.74641,2.20477 -3.31569,2.28413c-1.56934,0.07934 -7.25035,-0.25494 -11.71167,-1.39618z" fill="#5e595e"/></g><g><path d="M470.67345,199.51535l-3.12682,-18.39958l18.75763,2.39531l4.28629,4.83707l6.07209,0.58296l1.45114,13.6668z" fill="#4d4846"/><path d="M475.29153,200.42364l21.57556,-7.02685l22.20921,2.251c0,0 0.83683,4.30322 0.82769,5.66527c-0.00467,0.69445 -0.48268,2.90842 -0.48268,2.90842z" fill="#423d3b"/><path d="M472.42935,191.73886l-2.06037,-10.13953l0.81537,0.09161l2.06037,10.13953z" fill="#363332"/><path d="M475.96292,199.69242l0.13592,-1.20977c0,0 5.51572,-1.94185 14.52392,-0.92987c1.19687,0.13446 5.13447,3.13824 6.34083,3.27379c7.65395,0.85982 15.14572,1.70143 17.99584,2.02161c2.32118,0.26078 4.83661,-0.76485 4.83661,-0.76485l-0.28103,2.50166z" fill="#312e2c"/><path d="M479.74019,187.29643l-1.21748,-4.78116l8.25576,0.92741l3.63548,4.85753l6.24544,0.89689l-7.75985,1.08924z" fill="#585350"/><path d="M469.52803,193.219l0.12595,-1.12114c0,0 8.41349,-2.82198 11.27268,-2.50081c4.3093,0.48411 16.20576,1.82051 16.20576,1.82051l-0.12595,1.12114c0,0 -12.10044,-1.35934 -16.40963,-1.84337c-2.80051,-0.31464 -11.06887,2.52371 -11.06887,2.52371z" fill="#2b2827"/></g></g></g><g><g><g><path d="M132.22572,198.2497c0.28806,2.28035 -0.30856,4.81919 -1.4222,4.95984c-1.11365,0.14066 -2.32273,-2.17005 -2.61077,-4.45049c-0.28806,-2.28035 -1.45216,-11.03546 -0.33847,-11.17613c1.11365,-0.14066 4.08346,8.38633 4.37145,10.66678z" fill="#615e5f" stroke-width="0"/><g><path d="M176.8993,173.151c-0.47704,-0.58451 -2.65657,-2.14997 -2.65657,-2.14997l10.1795,-1.7546l-6.76626,6.48515c0,0 -0.27958,-1.99604 -0.75669,-2.58062z" fill="#756a6a" stroke-width="0"/><path d="M168.11865,170.45669l1.53312,-13.64747l19.07237,-3.76103l-2.18801,19.47753z" fill="#8a7c7c" stroke-width="0"/><path d="M127.72498,171.40031l8.64931,-17.27573l34.72986,3.7673l3.09093,13.09356c0,0 -23.02216,-1.00029 -30.7741,-0.93106c-3.21793,0.02872 -15.69607,1.34597 -15.69607,1.34597z" fill="#7c787a" stroke-width="0"/><path d="M136.22344,156.52754l0.01818,-1.48876c0,0 25.76217,2.894 33.86104,3.80383c4.53136,0.50902 16.75836,-4.52782 16.75836,-4.52782l-0.1819,1.61948c0,0 -11.93248,5.05054 -16.31329,4.54371c-8.03273,-0.92941 -34.1424,-3.95034 -34.1424,-3.95034z" fill="#535353" stroke-width="0"/><path d="M95.76696,168.52257l2.24991,-20.02804c0,0 5.29029,-6.5042 12.7455,-7.97712c9.25965,-1.82943 25.84357,1.82993 27.90136,2.06107c1.57905,0.17738 -13.98978,8.91063 -13.98978,8.91063l-2.24991,20.02804z" fill="#8d898b" stroke-width="0"/><path d="M272.78447,141.97514l1.94363,-2.94571l106.87684,12.14996l-1.64618,14.65408c0,0 -37.75051,-2.38366 -49.84848,-4.16144c-6.00818,-0.88289 -57.32585,-19.69696 -57.32585,-19.69696z" fill="#c98cac" stroke-width="0"/><path d="M239.9807,239.92548l-3.0711,-13.36279c0,0 4.45407,6.37657 7.16369,7.76459c1.72641,0.88435 5.88346,1.73553 12.2282,-0.00454c5.10768,-1.40077 10.85927,-6.30015 10.85927,-6.30015l-13.26389,13.46612z" fill="#a08e97" stroke-width="0"/><path d="M335.14224,203.40453l0.31366,-23.73475l18.58801,0.67655l-2.36632,21.06453c0,0 -6.54933,0.99421 -9.3751,1.37947c-1.30112,0.17737 -7.16025,0.61426 -7.16025,0.61426z" fill="#96858d" stroke-width="0"/><path d="M237.73636,243.44268l0.61845,-5.50553c0,0 11.75691,3.4023 16.69599,0.81618c2.40371,-1.25857 21.48694,-20.179 32.01094,-30.7019c4.10699,-4.10659 6.91053,-6.9342 6.91053,-6.9342c0,0 3.75953,-3.37461 4.08531,-6.23836c0.16384,-1.44058 1.09736,-5.54073 0.52906,-7.93045c-0.57338,-2.41111 -2.64944,-3.10549 -2.64944,-3.10549l-3.32654,-14.03138l19.67611,2.35494l-5.85771,26.08243l3.44869,2.96539c0,0 -10.16515,4.89592 -15.31833,9.30393c-8.06288,6.89682 -34.69801,34.48073 -34.69801,34.48073z" fill="#918189" stroke-width="0"/><path d="M312.06761,201.16735l4.39921,-28.28961l13.65876,1.81188l8.959,13.08412l-4.04976,15.97371z" fill="#96858d" stroke-width="0"/><path d="M307.36488,202.49982l-2.03073,-4.39998l6.4405,-25.63109l5.05759,0.48293l-3.86266,28.33259z" fill="#8f8187" stroke-width="0"/><path d="M333.79664,203.71254c0,0 3.47883,-6.31818 2.73858,-11.84618c-0.42625,-3.18301 -5.08654,-5.68864 -5.34781,-7.63995c-0.49906,-3.72747 -1.27127,-9.49387 -1.27127,-9.49387l7.31882,5.21362c0,0 2.57959,7.54889 2.69778,11.85049c0.07949,2.89002 -2.10672,9.06054 -3.31765,11.53975c-0.10206,0.209 -1.26161,-0.00509 -1.33137,0.15347c-0.17043,0.38724 0.76194,0.72479 0.76194,0.72479z" fill="#86787e" stroke-width="0"/><path d="M336.85427,181.41272c0,0 -2.62997,-4.27525 -7.17476,-5.76352c-5.1452,-1.6849 -22.11928,-3.82931 -22.11928,-3.82931l158.33459,3.51585l2.35572,9.62495l6.62445,11.95692c0,0 -99.8748,-13.80728 -120.33442,-16.10562c-6.67629,-0.75 -17.6863,0.60079 -17.6863,0.60079z" fill="#df8db7" stroke-width="0"/><path d="M178.32238,211.18136l-0.71903,-36.57876c0,0 2.09143,-3.53934 2.61354,-3.69769c5.75651,-1.74613 38.782,-8.75499 44.1553,-7.86326c5.8862,0.97679 -10.46926,11.14308 -10.46926,11.14308c0,0 -14.54592,0.40462 -17.54221,4.34465c-4.06805,5.34942 -1.18822,23.13558 -1.18822,23.13558z" fill="#c77da3" stroke-width="0"/><path d="M253.63118,189.5242l-1.54328,-2.29186c0,0 7.47877,-7.82059 10.15312,-9.82729c2.76093,-2.07174 6.161,-2.41442 6.161,-2.41442l5.6414,2.95041c0,0 -4.392,-0.99908 -6.93257,0.44253c-2.181,1.23762 -6.25334,3.8782 -9.38122,6.63858c-2.27534,2.00795 -4.09837,4.50202 -4.09837,4.50202z" fill="#414041" stroke-width="0"/><path d="M136.02289,155.45212l6.07499,-11.08062l48.3245,5.42861c0,0 -3.37784,4.10406 -6.69745,5.70965c-3.25808,1.57587 -13.03898,3.83626 -13.03898,3.83626z" fill="#979395" stroke-width="0"/><path d="M136.94541,154.40573l5.2799,-11.16991l48.3245,5.42861c0,0 -3.37784,4.10406 -6.69745,5.70965c-3.25808,1.57587 -13.03898,3.83626 -13.03898,3.83626z" fill="#bdb7ba" stroke-width="0"/><path d="M336.15393,204.30012l-1.80388,-0.71937l17.20962,-2.26776c0,0 -3.76778,1.64709 -6.32518,2.16171c-2.55737,0.51468 -9.08056,0.82543 -9.08056,0.82543z" fill="#887980" stroke-width="0"/><path d="M180.74072,211.92045c0,0 -1.15724,-10.66129 -1.3977,-19.28047c-0.2416,-8.66119 -0.44286,-16.78115 -0.06466,-20.34596c0.06411,-0.60392 2.8105,-10.28856 3.36533,-10.75088c2.99496,-2.49569 9.82397,6.06378 15.47647,5.58824c8.36952,-0.70406 27.41598,0.91824 27.41598,0.91824l-8.99372,4.33379c0,0 -19.64786,0.67593 -22.59807,5.51407c-3.99043,6.54409 1.20289,28.1315 1.20289,28.1315z" fill="#d486ae" stroke-width="0"/><path d="M182.258,208.54997c0,0 -2.05681,-41.35969 0.38674,-51.22563c1.14328,-4.61615 -1.17378,-14.04154 -1.17378,-14.04154l49.57259,12.58133l-0.37896,16.1285c0,0 -31.49668,-6.65091 -38.50784,-1.12506c-4.68018,3.68866 -1.06654,32.51532 -1.06654,32.51532z" fill="#e490bb" stroke-width="0"/><g stroke-width="0"><path d="M326.849,161.40292l0.92374,-8.22314l9.30145,1.04492l-0.92374,8.22314z" fill="#454545"/><path d="M327.76155,160.73574l0.46022,-7.29231l11.25541,1.26439l-0.81472,7.25248z" fill="#b0b0b0"/><path d="M328.03358,156.24905l0.08881,-2.83814l11.47068,1.2886l-0.21292,1.89548c0,0 -7.7802,-0.54952 -9.48438,-0.60146c-0.56945,-0.01738 -1.86216,0.25557 -1.86216,0.25557z" fill="#bebebe"/><path d="M338.9756,161.44253c0,0 -5.22079,-3.15794 -4.23501,-6.81842c1.46486,-5.43948 5.50692,-4.50434 5.50692,-4.50434l39.842,5.81745l-1.1231,9.99772z" fill="#9c989a"/><path d="M340.89565,160.36085c0,0 -2.0784,-3.77456 -2.21754,-4.72285c-0.2063,-1.40568 2.10619,-4.12183 2.10619,-4.12183l41.33202,4.67666l-1.23349,7.39718z" fill="#898587"/><path d="M340.78371,160.54777l-0.79671,-2.04106l37.99277,4.26801l-0.21649,1.92726z" fill="#c1bcbf"/><path d="M341.04218,157.16155c0,0 -1.17229,-1.50827 -1.06764,-2.43978c0.09784,-0.87135 1.67657,-2.98067 1.67657,-2.98067l38.42498,4.31657l-0.60898,5.42044z" fill="#0d0d0d"/><path d="M340.9554,157.934c0,0 -1.10486,-2.10826 -1.00023,-3.03975c0.09784,-0.87135 1.60915,-2.38071 1.60915,-2.38071l38.42499,4.31657l-0.60898,5.42044z" fill="#2e2e2e"/><path d="M335.94707,159.28663c-2.27998,-3.34241 -0.86123,-5.53423 -0.86123,-5.53423c0,0 1.36172,4.29119 2.48927,5.32111c1.33502,1.21933 4.76974,2.97978 4.76974,2.97978l-3.49469,-0.32198c0,0 -2.50189,-1.85643 -2.9031,-2.44462z" fill="#7d7a7c"/><path d="M343.5046,158.53197c0,0 -0.63637,-2.29745 -0.50873,-3.43383c0.1122,-0.99897 1.23432,-3.02556 1.23432,-3.02556l4.79315,0.53848c0,0 -0.70428,2.13872 -0.80117,3.00153c-0.13322,1.18582 0.07558,3.45782 0.07558,3.45782z" fill="#555555"/><path d="M352.06745,159.49398c0,0 0.94416,-2.43293 1.07178,-3.56935c0.1122,-0.99897 -0.34616,-2.89003 -0.34616,-2.89003l5.34968,0.60096c0,0 -0.60552,1.65782 -0.70247,2.52063c-0.13322,1.18582 -0.02317,3.93875 -0.02317,3.93875z" fill="#555555"/><path d="M361.33582,160.53511c0,0 0.94416,-2.43292 1.0718,-3.56934c0.1122,-0.99897 -0.34616,-2.89002 -0.34616,-2.89002l5.27019,0.59202c0,0 -0.60552,1.65782 -0.70247,2.52063c-0.13322,1.18582 -0.02317,3.93875 -0.02317,3.93875z" fill="#555555"/><path d="M370.9387,161.61386c0,0 1.08114,-2.05971 1.20877,-3.19617c0.1122,-0.99897 -0.48318,-3.26318 -0.48318,-3.26318l5.11119,0.57419c0,0 0.60136,2.06176 0.50443,2.92463c-0.13322,1.18582 -1.23002,3.53479 -1.23002,3.53479z" fill="#555555"/><path d="M343.88714,152.74253l-0.57166,-0.86926l35.34031,3.97002l-1.61397,0.62372c0,0 -2.81239,-0.31595 -5.25919,-0.59079c-0.53334,-0.05994 -1.50588,-0.49997 -2.30475,-0.58978c-0.77241,-0.08674 -1.36353,0.17766 -2.32369,0.06979c-1.49726,-0.16822 -3.18661,-0.35796 -4.95514,-0.55665c-0.7332,-0.08237 -1.32837,-0.53518 -2.08081,-0.61973c-0.66907,-0.07512 -1.49424,0.21806 -2.16647,0.1426c-1.66837,-0.18741 -3.32031,-0.37301 -4.87346,-0.54746c-0.71322,-0.08012 -1.35664,-0.5935 -2.02023,-0.66806c-0.81009,-0.09103 -1.62614,0.25845 -2.33595,0.1787c-2.89528,-0.32527 -4.83504,-0.54314 -4.83504,-0.54314z" fill="#474747"/></g><g><path d="M190.1036,202.96201l4.01396,-2.43459c0,0 2.49301,3.11267 5.20946,4.31839c2.40254,1.06644 10.2633,2.54954 10.2633,2.54954l-3.12455,4.03069z" fill="#6d6a6b" stroke-width="0"/><path d="M181.3694,208.52184l9.99823,-6.30847c0,0 2.96261,2.60352 5.04394,3.50341c3.14877,1.36135 12.01017,3.86998 12.01017,3.86998l-4.73184,3.80284z" fill="#615e5f" stroke-width="0"/><path d="M180.90334,230.57505l1.04586,-22.59758c0,0 4.2386,1.27307 9.02646,1.84073c3.7371,0.44304 7.85411,0.05311 10.25446,0.93495c4.21395,1.54807 36.15112,17.56923 36.15112,17.56923l1.32713,10.3879z" fill="#575455" stroke-width="0"/><path d="M205.37867,206.11256c7.51123,-4.75644 17.03198,-17.22358 18.56954,-19.63843c1.10766,-1.7397 2.37986,-6.90601 2.37986,-6.90601l6.89478,7.63223c0,0 3.52508,21.02167 3.28649,33.72118c-0.06678,3.55346 1.99458,7.75504 0.652,9.07994c-1.20287,1.18706 -18.31384,1.56914 -23.58896,0.20695c-11.10136,-2.86662 -17.16859,-0.74111 -20.30101,-6.40154c-3.13243,-5.6604 4.62393,-11.09877 4.62393,-11.09877c0,0 5.52787,-5.35719 7.48335,-6.59549z" fill="#504e4f" stroke-width="0"/><path d="M213.8187,174.029c0,0 0.55998,-1.43927 1.48572,-2.00294c1.19056,-0.72498 5.06507,-1.98597 5.06507,-1.98597c0,0 9.07763,3.10011 11.7911,5.91061c2.50357,2.59303 -4.88563,12.10883 -4.88563,12.10883l-1.39546,-5.55186z" fill="#464445" stroke-width="0"/><path d="M231.63571,223.55507c0,0 -9.92461,5.18019 -18.37509,4.40343c-8.15222,-0.74935 -14.84615,-7.43027 -14.58105,-8.83162c0.14364,-0.75929 8.39104,-3.1589 12.31709,-6.96582c4.3642,-4.23179 4.51532,-9.95221 6.08216,-11.79927c4.37421,-5.15663 13.90266,-14.32875 13.52295,-20.45304c-0.3982,-6.42268 -10.81727,-9.68003 -10.81727,-9.68003c0,0 4.07849,-1.80769 9.0475,-1.38015c2.11665,0.18214 6.48108,2.06696 7.3556,2.55261c2.86787,1.59248 4.66347,3.44071 4.66347,3.44071c0,0 4.18039,-4.44041 7.79454,-4.34581c3.61414,0.09463 21.99319,5.12542 21.99319,5.12542l-17.51513,10.70562z" fill="#555354" stroke-width="0"/><path d="M216.61864,200.90872c0,0 5.80572,-10.28896 11.11327,-15.16185c5.3075,-4.87284 9.71549,-7.57819 13.22576,-7.18385c2.54196,0.28554 4.84784,9.2142 4.84784,9.2142l-14.21935,27.35283c0,0 -14.8958,1.62639 -16.08689,-1.00368c-0.94071,-2.07721 1.11944,-13.21764 1.11944,-13.21764z" fill="#585758" stroke-width="0"/><path d="M235.98542,230.5558c0,0 -2.16905,-6.47366 -1.50742,-9.44059c0.92426,-4.14473 3.7717,-16.55839 3.7717,-16.55839l0.77944,10.5889c0,0 -1.72466,9.61509 -1.93099,12.64082c-0.19911,2.91934 0.97304,5.23509 0.97304,5.23509z" fill="#3f3e3f" stroke-width="0"/><path d="M237.05699,212.69859c-0.00725,-1.68612 1.1188,-9.31907 1.1188,-9.31907c0,0 11.12471,-13.40989 13.50522,-15.81224c0.69783,-0.70426 4.22579,-2.04979 4.22579,-2.04979l-2.17781,4.6398c0,0 -1.63141,0.42449 -1.86346,0.87928c-0.2472,0.48453 0.42283,1.94423 0.42283,1.94423l-6.04348,7.85456c0,0 -1.75316,0.81999 -1.98759,1.3022c-0.23451,0.48231 0.34965,1.44172 0.34965,1.44172c0,0 -4.82843,8.45509 -5.93521,10.76075c-0.51174,1.06605 -0.43809,2.51592 -0.43809,2.51592c0,0 -1.16934,-2.47116 -1.17656,-4.15732z" fill="#474647" stroke-width="0"/><path d="M226.35377,190.39589l20.00787,10.53475c0,0 -1.2945,0.87324 -1.5904,1.38242c-0.21834,0.37575 -0.02398,1.39588 -0.02398,1.39588z" fill="#3f3e3e" stroke-width="NaN"/><path d="M233.47202,180.77747l20.48988,9.40501c0,0 -1.2022,0.71354 -1.474,1.24286c-0.28332,0.5518 -0.03661,1.66548 -0.03661,1.66548z" fill="#3f3e3e" stroke-width="NaN"/><path d="M217.90801,207.88946c0,0 9.76679,8.83859 14.94088,15.43497c5.17405,6.59644 3.11078,7.57911 3.11078,7.57911z" fill="#636162" stroke-width="NaN"/><path d="M233.68574,186.46028c0,0 -6.28734,2.21603 -9.3651,4.98567c-3.07778,2.76965 -13.16626,17.92106 -12.83739,14.99392c0.32884,-2.92712 15.68173,-22.05387 17.46543,-21.8535c0.67523,0.07585 3.82003,-0.72032 4.60679,-0.39295c1.29166,0.53741 0.13029,2.26682 0.13029,2.26682z" fill="#918f91" stroke-width="0"/><path d="M180.4644,230.39548l14.06646,-0.32001c0,0 12.55429,1.07594 15.65405,1.5802c7.54887,1.22799 29.80359,5.81454 29.80359,5.81454l-1.14984,6.23166c0,0 -24.60671,0.82364 -31.31116,-1.25342c-1.93959,-0.6009 -7.65091,-1.86444 -11.72908,-3.68325c-7.98083,-3.55935 -15.334,-8.36973 -15.334,-8.36973z" fill="#626061" stroke-width="0"/><path d="M237.87929,243.24013c0,0 0.51941,-4.2613 0.33449,-6.63661c-0.20783,-2.66979 -1.52088,-8.60235 -1.52088,-8.60235l1.77118,0.19899c0,0 1.21093,4.62088 1.39907,7.03783c0.20573,2.64258 -0.21266,8.20111 -0.21266,8.20111z" fill="#4a494a" stroke-width="0"/><path d="M237.59186,244.04943l0.46694,-3.3661c0,0 0.53365,0.32635 0.80347,0.35663c0.32058,0.03602 0.95297,-0.15931 0.95297,-0.15931l-0.18196,3.17613c0,0 -0.81722,0.3184 -1.18916,0.31702c-0.28501,-0.001 -0.85223,-0.32439 -0.85223,-0.32439z" fill="#363536" stroke-width="0"/><path d="M236.85175,229.05082l-0.20252,-1.6536c0,0 0.45433,-0.30557 0.82713,-0.32334c0.35503,-0.01687 0.86045,0.16339 0.86045,0.16339l0.30463,1.78155c0,0 -0.5355,0.45048 -0.84209,0.45595c-0.28889,0.00515 -0.94764,-0.424 -0.94764,-0.424z" fill="#585758" stroke-width="0"/><path d="M196.341,238.13993c0,0 -7.51616,-3.81573 -7.364,-5.17025c0.15294,-1.36126 6.48185,-1.82844 6.48185,-1.82844c0,0 10.90235,0.98249 15.80912,1.70735c2.74698,0.40586 11.12513,2.27176 11.12513,2.27176c0,0 7.12855,1.86164 7.81001,3.09719c0.74327,1.34768 -3.41393,3.7402 -3.41393,3.7402c0,0 -12.79011,-0.12253 -16.70691,-0.77207c-1.39135,-0.23075 -13.74117,-3.0456 -13.74117,-3.0456z" fill="#6b696a" stroke-width="0"/><path d="M186.7933,230.12244l-1.97514,0.01037c0,0 1.00594,-3.34327 3.57025,-1.80521c2.56436,1.53811 21.53262,2.65118 21.53262,2.65118z" fill="#4b4949" stroke-width="0"/><path d="M180.55301,230.26053c0,0 -2.00668,-0.03263 -2.13176,-3.71234c-0.0633,-1.86266 -0.20805,-16.16032 -0.20805,-16.16032l4.03622,-2.4639c0,0 0.00841,6.03242 -0.11067,8.93951c-0.15844,3.86643 -0.66832,13.50014 -0.66832,13.50014z" fill="#3f3d3e" stroke-width="0"/><path d="M187.0946,230.32332c0,0 3.41365,-1.78823 19.40729,-0.33077c1.32079,0.12038 -1.78036,-0.23227 7.50397,1.3213c9.28437,1.55348 12.99928,3.49298 12.99928,3.49298c0,0 -14.85262,-2.74461 -21.01668,-3.43703c-7.02628,-0.78933 -18.89389,-1.04637 -18.89389,-1.04637z" fill="#838082" stroke-width="0"/><path d="M195.42169,201.44018c0,0 -4.58744,1.68585 -6.92929,3.04848c-2.63215,1.53157 -8.09446,5.69358 -8.09446,5.69358l-0.60074,-1.67919c0,0 4.16928,-3.40956 6.55212,-4.79611c2.60525,-1.5159 8.47168,-3.94601 8.47168,-3.94601z" fill="#4a494a" stroke-width="0"/><path d="M196.37858,201.2883l-3.72641,1.27253c0,0 0.16796,-0.63162 0.07641,-0.88741c-0.10876,-0.30393 -0.5953,-0.76917 -0.5953,-0.76917l3.32608,-1.43941c0,0 0.69608,0.56792 0.86357,0.90018c0.12835,0.25461 0.05556,0.92325 0.05556,0.92325z" fill="url(#color-3)" stroke-width="0"/><path d="M181.39758,209.51139l-3.23727,2.38332l0.10069,-2.18505l2.29155,-1.7775c0,0 0.70309,0.25015 0.84785,0.52069c0.13638,0.25493 -0.00287,1.05851 -0.00287,1.05851z" fill="url(#color-4)" stroke-width="0"/></g><path d="M313.33141,200.20592c0,0 1.41487,-4.28749 2.07014,-5.61174c0.44477,-0.89895 2.96318,-2.05667 2.96318,-2.05667l16.93741,1.68315c0,0 -1.9164,5.61891 -2.44763,6.93415c-0.23272,0.57613 -1.36935,1.14543 -1.36935,1.14543z" fill="#665b60" stroke-width="0"/><path d="M267.05915,176.63648c0,0 -3.59605,-1.97624 -8.36514,-3.67146c-3.03166,-1.07766 -7.21174,-2.11757 -9.07293,-2.2202c-5.41107,-0.29843 -8.48421,4.49335 -8.48421,4.49335c0,0 -2.99431,-2.66671 -4.99332,-3.75135c-1.86605,-1.01248 -6.08017,-2.49308 -6.08017,-2.49308c0,0 24.97429,-2.31775 28.86618,-2.46432c7.46099,-0.28101 33.93171,3.08651 33.93171,3.08651l4.59023,14.89124z" fill="#8b7c84" stroke-width="0"/><g stroke-width="0"><path d="M314.88222,199.43142c0,0 0.75837,-2.5274 1.2661,-3.3708c0.52639,-0.87446 2.81396,-1.67656 2.81396,-1.67656l14.4392,1.62205c0,0 0.27418,1.01994 -0.04213,1.72686c-0.43004,0.9611 -3.49591,3.38133 -3.49591,3.38133z" fill="#585852"/><path d="M314.96541,198.69079c0,0 0.67517,-1.78669 1.18292,-2.63009c0.52639,-0.87446 2.89718,-2.41722 2.89718,-2.41722l14.43919,1.62205c0,0 0.19096,1.76066 -0.12529,2.46756c-0.43004,0.9611 -3.41273,2.64061 -3.41273,2.64061z" fill="#797971"/><path d="M331.67624,195.56104c-1.02246,-0.2939 -12.54207,-1.86107 -12.54207,-1.86107l14.41943,1.61984l-0.27485,2.44645c0,0 -0.5801,-1.91128 -1.60253,-2.20523z" fill="#85857b"/></g><path d="M318.33274,181.53668l0.57936,-5.15733l7.09129,0.79659l0.70997,5.30218z" fill="#7c6e75" stroke-width="0"/><path d="M310.92361,154.11457l-3.24288,-8.54672l1.37074,0.15399l5.11586,9.21156z" fill="#d495b6" stroke-width="0"/><path d="M273.01551,142.17906l13.48132,-1.59464l21.37862,5.03053l3.07453,8.48852z" fill="#df9cbe" stroke-width="0"/><path d="M317.93264,186.55092l0.18108,-1.61164l10.7981,1.21302l0.78593,1.72032z" fill="#7c6e75" stroke-width="0"/><path d="M278.97115,169.94348c0,0 -18.15406,-0.83347 -23.80746,-0.96516c-8.56049,-0.19954 -25.78364,0.20556 -25.78364,0.20556c0,0 15.42554,-2.73572 29.01777,-2.73443c14.73746,0.00136 58.67437,3.47058 58.67437,3.47058l-0.60382,5.37524z" fill="#75686e" stroke-width="0"/><path d="M271.11686,177.88682l-3.15927,-0.92932c0,0 9.9756,-1.27877 15.19658,0.07531c5.22101,1.35409 13.86893,7.46298 13.86893,7.46298z" fill="#7c6e76" stroke-width="0"/><path d="M225.40104,168.69567c0,0 -30.43621,-18.91237 -30.80642,-23.60316c-0.33624,-4.26102 29.37323,5.66242 29.68123,5.58811c5.38906,-1.30039 77.62814,-0.44556 77.62814,-0.44556l25.68447,9.71736l52.49588,5.32224l5.74706,14.30643c0,0 -61.30478,-5.71057 -84.94072,-8.20168c-8.20466,-0.86474 -24.85943,-3.38745 -40.19498,-3.9627c-11.82932,-0.44372 -29.88696,1.87146 -29.88696,1.87146z" fill="#ee96c3" stroke-width="0"/><path d="M95.67639,166.74498l5.55604,-19.65663c0,0 0.68658,-7.02136 8.14182,-8.49426c9.25965,-1.82943 25.84357,1.82994 27.90135,2.06108c1.57905,0.17738 -13.98979,8.91063 -13.98979,8.91063l-2.2499,20.02802z" fill="#c4b4b3" stroke-width="0"/><g stroke-width="0"><path d="M377.1156,179.99271l-1.14883,-15.36721l91.42181,17.07711l-1.40024,5.68617l-47.67434,-0.46795z" fill="#ad6d8e"/><path d="M404.89669,168.68714l8.15081,-7.40912l26.84503,0.87327l-5.43929,9.85618z" fill="#8d788b"/><path d="M379.45228,167.02489l1.81242,-16.1338l31.8522,10.3989l-5.3169,6.31495z" fill="#857183"/><path d="M421.97659,168.46017l17.85355,-6.31467l27.24644,6.85721l-1.05388,6.81897z" fill="#947e92"/><path d="M375.37721,165.9548l4.30066,-12.36314l1.77979,-2.88315l-1.68165,14.96969z" fill="#756474"/><path d="M378.74575,176.94125l0.63095,-12.07774l43.22714,3.19678l-3.01094,15.81984z" fill="#746373"/><path d="M419.587,183.86387c0,0 1.08174,-6.22564 1.59674,-9.02982c0.44093,-2.40088 1.30566,-6.77401 1.30566,-6.77401l43.82226,5.83767l1.04978,8.57075z" fill="#867284"/><path d="M375.42525,165.88927l4.17332,-1.07173l-0.82384,12.13462z" fill="#6f5e6d"/><path d="M459.91836,168.09028l-19.31882,-5.55504l26.15424,6.59734l-0.75714,3.48269c0,0 -0.13646,-1.59446 -1.2585,-2.42986c-0.75059,-0.55881 -4.81976,-2.09517 -4.81976,-2.09517z" fill="#978195"/><path d="M420.38553,167.62763c0,0 8.31163,-2.55339 11.22364,-3.58886c2.1213,-0.75429 4.64037,-2.05225 4.64037,-2.05225l2.50542,0.39476l-15.73737,5.54193z" fill="#9c859a"/><path d="M406.0043,166.82549c0,0 1.61542,-2.58816 3.10798,-3.77922c1.49256,-1.19113 3.87737,-1.74356 3.87737,-1.74356l-4.53922,5.79753z" fill="#806b7d"/><path d="M441.59227,160.58672l2.76003,-5.45934l14.68823,5.4069l4.85056,6.98516z" fill="#55494f"/><path d="M438.76217,163.08649c0,0 1.16385,-0.6644 1.78603,-1.18296c0.46865,-0.3906 1.30692,-1.68974 1.30692,-1.68974l21.72769,6.46599c0,0 0.80696,0.59077 1.35316,0.97984c0.5708,0.4066 2.00108,1.40955 2.00108,1.40955z" fill="#685960"/><path d="M442.24956,159.76273l2.16006,-4.37157l13.68657,4.88529c0,0 -7.78558,-2.41697 -12.26706,-2.66414c-2.59954,-0.14336 -3.5795,2.15039 -3.5795,2.15039z" fill="#41383c"/></g><path d="M101.69054,127.89339l0.58142,-5.17582c0,0 22.34148,1.20658 44.15601,3.71445c12.99949,1.49448 26.30616,4.59701 33.2232,5.02175c15.59654,0.95765 26.50363,-2.35766 26.50363,-2.35766l-7.48908,9.86878z" fill="#ffa1d1" stroke-width="0"/><path d="M97.57059,141.47592l3.94221,-15.74089c0,0 54.22372,8.16477 72.00856,9.71926c10.53498,0.92082 24.86735,-1.25196 24.86735,-1.25196l-1.6346,14.55083c0,0 -67.07911,-7.53547 -83.24976,-9.35205c-6.64878,-0.74692 -18.93494,28.79106 -18.93494,28.79106z" fill="#ee96c3" stroke-width="0"/><path d="M267.12061,237.49595l10.7398,-12.47491c0,0 11.62688,-14.65085 21.73459,-20.42135c2.56853,-1.46636 7.83932,-2.07831 7.83932,-2.07831c0,0 -7.81473,4.13859 -10.70494,6.6229c-6.82541,5.86688 -29.60866,28.35164 -29.60866,28.35164z" fill="#70646b" stroke-width="0"/><path d="M369.76738,183.77853l-4.25163,-18.59265l1.34164,0.15071c0,0 1.28761,5.6308 1.96799,8.60616c0.09694,0.42389 1.31707,1.78977 1.43714,2.31488c0.20818,0.91028 -0.66605,1.05709 -0.43341,2.07444c0.64779,2.83291 1.27989,5.59715 1.27989,5.59715z" fill="#795467" stroke-width="0"/><path d="M197.33426,149.25282c0,0 -9.68504,-7.6815 -8.5885,-11.35701c0.65652,-2.20068 18.28157,-8.22291 18.28157,-8.22291l67.88706,9.30885l-1.97208,2.89403l28.87894,8.5256l-74.31394,18.39414c0,0 -0.15973,-5.66705 3.73914,-8.10523c3.78929,-2.3696 19.33452,-6.32394 19.33452,-6.32394c0,0 -33.99802,-3.86852 -41.23372,-4.7686c-2.41396,-0.30031 -12.01301,-0.34501 -12.01301,-0.34501z" fill="#f399c8" stroke-width="0"/><g><path d="M205.02686,131.3845l0.36154,-3.21809l175.45007,19.70958l-0.36154,3.21809z" fill="#584f54" stroke-width="0"/><path d="M375.05064,147.47551l0.30546,-2.71923l3.03618,0.34109l2.37347,3.02021z" fill="#685d63" stroke-width="0"/><g fill="#685d63" stroke-width="0"><g><g><g><path d="M368.40439,146.97966l0.33238,-2.95841l3.85684,0.43326l-0.33238,2.95841z"/><path d="M362.14621,146.27663l0.33238,-2.95841l3.85685,0.43327l-0.33238,2.95841z"/></g><g><path d="M356.12422,145.60018l0.33238,-2.95842l3.85685,0.43327l-0.33238,2.95841z"/><path d="M349.86604,144.89714l0.33238,-2.95841l3.85684,0.43327l-0.33238,2.95842z"/></g></g><g><g><path d="M343.72593,144.20734l0.33238,-2.95842l3.85684,0.43327l-0.33238,2.95841z"/><path d="M337.46773,143.50434l0.33238,-2.95841l3.85684,0.43326l-0.33238,2.95842z"/></g><g><path d="M331.44578,142.82781l0.33238,-2.95841l3.85684,0.43327l-0.33238,2.95841z"/><path d="M325.1876,142.12478l0.33238,-2.95841l3.85683,0.43324l-0.33238,2.95842z"/></g></g></g><g><g><g><path d="M324.95146,142.09831l0.33238,-2.95841l3.85684,0.43327l-0.33238,2.95841z"/><path d="M318.69332,141.39525l0.33238,-2.95841l3.85685,0.43327l-0.33238,2.95841z"/></g><g><path d="M312.6713,140.71877l0.33238,-2.95842l3.85684,0.43327l-0.33238,2.95841z"/><path d="M306.41311,140.01573l0.33238,-2.95841l3.85683,0.43324l-0.33238,2.95842z"/></g></g><g><g><path d="M300.2731,139.326l0.33238,-2.95842l3.85685,0.43327l-0.33238,2.95841z"/><path d="M294.01487,138.62298l0.33238,-2.95841l3.85685,0.43327l-0.33238,2.95842z"/></g><g><path d="M287.99286,137.9465l0.33238,-2.95841l3.85684,0.43326l-0.33238,2.95842z"/><path d="M281.73471,137.24343l0.33238,-2.95841l3.85685,0.43327l-0.33238,2.95841z"/></g></g></g></g><g><g fill="#685d63" stroke-width="0"><g><g><path d="M275.55442,136.54921l0.33238,-2.95842l3.85685,0.43327l-0.33238,2.95841z"/><path d="M269.29629,135.84612l0.33238,-2.95841l3.85685,0.43327l-0.33238,2.95842z"/></g><g><path d="M263.27427,135.16968l0.33238,-2.95841l3.85685,0.43327l-0.33238,2.95842z"/><path d="M257.01615,134.4666l0.33238,-2.95841l3.85684,0.43326l-0.33238,2.95842z"/></g></g><g><g><path d="M250.87607,133.7769l0.33238,-2.95842l3.85685,0.43327l-0.33238,2.95841z"/><path d="M244.61788,133.07378l0.33238,-2.95841l3.85685,0.43327l-0.33238,2.95842z"/></g><g><path d="M238.59579,132.39732l0.33238,-2.95841l3.85685,0.43327l-0.33238,2.95842z"/><path d="M232.33766,131.69436l0.33238,-2.95841l3.85684,0.43326l-0.33238,2.95841z"/></g></g></g><g><g fill="#685d63" stroke-width="0"><g><path d="M232.10156,131.6678l0.33238,-2.95842l3.85685,0.43327l-0.33238,2.95841z"/><path d="M225.84336,130.96477l0.33238,-2.95841l3.85684,0.43326l-0.33238,2.95842z"/></g><g><path d="M219.82136,130.28828l0.33238,-2.95841l3.85684,0.43326l-0.33238,2.95842z"/><path d="M213.56322,129.5852l0.33238,-2.95841l3.85684,0.43326l-0.33238,2.95841z"/></g></g><g fill="none" stroke-width="1" font-family="sans-serif" font-weight="normal" font-size="12" text-anchor="start"><g/><g/></g></g></g><path d="M205.43174,128.42106l2.98443,-2.41826l3.03618,0.34109l-0.30546,2.71923z" data-paper-data="{&quot;index&quot;:null}" fill="#685d63" stroke-width="0"/></g><path d="M258.31582,167.45512l-2.56607,-0.01653c0,0 1.95506,-2.36404 11.61612,-2.41358c7.3245,-0.03751 27.90564,0.95478 40.22235,1.58797c5.71955,0.29401 62.8731,-2.34407 62.8731,-2.34407l5.1679,0.56614c0,0 -62.51823,3.68855 -68.23095,3.37192c-12.63242,-0.70018 -33.8769,-1.84175 -40.05167,-1.95326c-3.3613,-0.06069 -9.03065,1.2014 -9.03065,1.2014z" fill="#70475c" stroke-width="0"/><path d="M356.47127,197.62902l-5.0991,1.2846l2.11409,-18.81295c0,0 7.73735,0.91792 15.30434,1.81559c21.72256,2.57697 126.12264,14.9621 126.12264,14.9621l-0.75101,6.68518z" fill="#5a5959" stroke-width="0"/><path d="M355.38012,199.14509l1.41964,-2.86548l137.38682,7.17653l-13.00374,9.82131z" fill="#4b4a4a" stroke-width="0"/><path d="M477.93862,212.72269c0,0 -5.50935,-3.86393 -8.36341,-5.62163c-1.52951,-0.94194 -7.43001,-4.10474 -7.43001,-4.10474c0,0 7.62728,3.77882 10.84513,5.09426c1.14841,0.46948 2.18208,1.33304 3.41896,2.00346c0.39886,0.21616 2.51891,-2.32221 4.59734,-3.81386c0.62126,-0.44586 1.73353,0.04594 2.29257,-0.22415c1.28154,-0.61915 1.76016,-1.66368 1.76016,-1.66368c0,0 0.23158,0.9614 -1.11526,2.03155c-0.36744,0.29201 -2.19846,0.44085 -2.5621,0.76261c-1.45737,1.28969 -2.63142,2.76691 -3.00064,3.32034c-1.03035,1.54443 1.01143,2.37921 1.01143,2.37921z" fill="#414040" stroke-width="0"/><path d="M197.25242,149.54294l5.03039,-10.60347l7.03202,0.16176c0,0 -1.24034,2.52552 -1.97132,4.01397c-0.1841,0.37487 11.75461,-0.25242 12.02952,0.45373c0.51009,1.31009 -5.44692,4.42447 -5.90668,5.36051c-0.5256,1.07018 -9.21984,0.49178 -9.21984,0.49178z" fill="#303030" stroke-width="0"/><path d="M197.15106,149.15916l4.8333,-9.78526c0,0 2.83579,1.63139 2.72582,2.61017c-0.20009,1.78102 -2.41523,7.3557 -2.41523,7.3557z" fill="#252525" stroke-width="0"/><path d="M351.05774,201.5507l0.32958,-2.93396l5.81885,-2.31731l-1.55998,2.79571c0,0 -1.23266,1.2052 -2.03961,1.63707c-0.71007,0.38 -2.54887,0.81842 -2.54887,0.81842z" fill="#383838" stroke-width="0"/><g><g fill="#4b4b4b" stroke-width="0"><g data-paper-data="{&quot;origPos&quot;:null}"><g data-paper-data="{&quot;origPos&quot;:null}"><path d="M417.62619,210.40845l0.25372,-2.25854l3.72658,0.41863l-0.25372,2.25854z" data-paper-data="{&quot;origPos&quot;:null}"/><path d="M411.42794,209.59781l0.25372,-2.25854l3.72657,0.41863l-0.25372,2.25853z" data-paper-data="{&quot;origPos&quot;:null}"/></g><g data-paper-data="{&quot;origPos&quot;:null}"><path d="M430.03545,211.91678l0.25372,-2.25854l3.72658,0.41863l-0.25372,2.25853z" data-paper-data="{&quot;origPos&quot;:null}"/><path d="M423.83718,211.10612l0.25372,-2.25853l3.72657,0.41863l-0.25372,2.25854z" data-paper-data="{&quot;origPos&quot;:null}"/></g></g><g data-paper-data="{&quot;origPos&quot;:null,&quot;index&quot;:null}"><g data-paper-data="{&quot;origPos&quot;:null}"><path d="M449.14532,213.83486l0.25372,-2.25854l3.72658,0.41863l-0.25372,2.25853z" data-paper-data="{&quot;origPos&quot;:null}"/><path d="M455.36891,214.41962l0.25371,-2.25853l3.72658,0.41863l-0.25373,2.25852z" data-paper-data="{&quot;origPos&quot;:null}"/></g><g data-paper-data="{&quot;origPos&quot;:null}"><path d="M436.71074,212.55231l0.25372,-2.25854l3.72657,0.41863l-0.25371,2.25853z" data-paper-data="{&quot;origPos&quot;:null}"/><path d="M442.93435,213.13714l0.25372,-2.25853l3.72658,0.41863l-0.25372,2.25853z" data-paper-data="{&quot;origPos&quot;:null}"/></g></g></g><path d="M376.09197,197.44555l1.51948,-13.52604l83.946,9.43028l-1.51948,13.52604z" data-paper-data="{&quot;origPos&quot;:null}" fill="#444444" stroke-width="0"/><path d="M375.66271,202.14931l0.53393,-4.75253l83.69927,9.40254l-0.53393,4.75254z" data-paper-data="{&quot;origPos&quot;:null}" fill="#414141" stroke-width="0"/><path d="M375.53833,203.56856l0.18061,-1.6075l83.68859,9.40134l-0.18058,1.6075z" data-paper-data="{&quot;origPos&quot;:null}" fill="#3f3f3f" stroke-width="0"/><g stroke-width="0"><g data-paper-data="{&quot;origPos&quot;:null}" fill="#5a5a5a"><g data-paper-data="{&quot;origPos&quot;:null}"><path d="M419.08428,202.35513l1.53498,-13.66405l3.5491,0.39871l-1.53498,13.66405z" data-paper-data="{&quot;origPos&quot;:null}"/></g><g data-paper-data="{&quot;origPos&quot;:null}"><path d="M425.11778,203.03292l1.53498,-13.66405l3.54911,0.39871l-1.53498,13.66405z" data-paper-data="{&quot;origPos&quot;:null}"/><path d="M431.32874,203.73058l1.535,-13.66405l3.5491,0.39871l-1.53498,13.66405z" data-paper-data="{&quot;origPos&quot;:null}"/></g></g><g data-paper-data="{&quot;origPos&quot;:null}" fill="#5a5a5a"><g data-paper-data="{&quot;origPos&quot;:null}"><path d="M437.89457,204.46818l1.53498,-13.66405l3.5491,0.39871l-1.53499,13.66405z" data-paper-data="{&quot;origPos&quot;:null}"/><path d="M444.10546,205.1659l1.53498,-13.66405l3.54911,0.39871l-1.535,13.66405z" data-paper-data="{&quot;origPos&quot;:null}"/></g><g data-paper-data="{&quot;origPos&quot;:null}"><path d="M450.13897,205.84368l1.535,-13.66405l3.5491,0.39871l-1.535,13.66405z" data-paper-data="{&quot;origPos&quot;:null}"/><path d="M456.34993,206.54139l1.535,-13.66405l3.5491,0.39871l-1.53498,13.66405z" data-paper-data="{&quot;origPos&quot;:null}"/></g></g><path d="M422.69434,202.76068l-1.08887,1.82081l-5.21342,-0.54232l0.95513,-9.7508l3.21357,-5.60397l-1.46646,13.67175z" fill="#3a3a3a"/><path d="M428.7254,203.43812l-1.08887,1.82081l-5.21344,-0.5423l0.95514,-9.7508l3.21357,-5.60396l-1.46646,13.67174z" fill="#3a3a3a"/><path d="M434.89349,204.13108l-1.08887,1.82081l-5.21343,-0.5423l0.95513,-9.7508l3.21357,-5.60396l-1.46646,13.67175z" fill="#3a3a3a"/><path d="M441.54133,204.87787l-1.08887,1.82081l-5.21343,-0.5423l0.95513,-9.7508l3.21357,-5.60396l-1.46646,13.67175z" fill="#3a3a3a"/><path d="M447.77799,205.57852l-1.08887,1.82081l-5.21343,-0.5423l0.95513,-9.7508l3.21357,-5.60396l-1.46646,13.67174z" fill="#3a3a3a"/><path d="M453.74046,206.24829l-1.08887,1.82081l-5.21342,-0.54232l0.95513,-9.7508l3.21357,-5.60396l-1.46646,13.67175z" fill="#3a3a3a"/><path d="M459.98495,206.94979l-1.08887,1.82081l-5.21343,-0.5423l0.95514,-9.7508l3.21357,-5.60397l-1.46646,13.67175z" fill="#3a3a3a"/></g><g stroke-width="0"><g data-paper-data="{&quot;origPos&quot;:null}" fill="#5a5a5a"><g data-paper-data="{&quot;origPos&quot;:null}"><path d="M376.12549,197.52925l1.535,-13.66405l3.54911,0.39871l-1.53498,13.66405z" data-paper-data="{&quot;origPos&quot;:null}"/></g><g data-paper-data="{&quot;origPos&quot;:null}"><path d="M382.15891,198.20709l1.53498,-13.66405l3.5491,0.39871l-1.53498,13.66405z" data-paper-data="{&quot;origPos&quot;:null}"/><path d="M388.36982,198.90475l1.53498,-13.66405l3.54911,0.39871l-1.535,13.66405z" data-paper-data="{&quot;origPos&quot;:null}"/></g></g><g data-paper-data="{&quot;origPos&quot;:null}" fill="#5a5a5a"><g data-paper-data="{&quot;origPos&quot;:null}"><path d="M394.93573,199.64238l1.535,-13.66405l3.54912,0.39871l-1.53498,13.66405z" data-paper-data="{&quot;origPos&quot;:null}"/><path d="M401.14672,200.34007l1.53498,-13.66405l3.54911,0.39871l-1.535,13.66405z" data-paper-data="{&quot;origPos&quot;:null}"/></g><g data-paper-data="{&quot;origPos&quot;:null}"><path d="M407.18017,201.01784l1.53498,-13.66405l3.54911,0.39871l-1.535,13.66405z" data-paper-data="{&quot;origPos&quot;:null}"/><path d="M413.39115,201.71559l1.535,-13.66405l3.54911,0.39871l-1.53499,13.66405z" data-paper-data="{&quot;origPos&quot;:null}"/></g></g><path d="M379.73551,197.93481l-1.08887,1.82081l-2.71751,-0.26191l0.20638,-1.96338z" fill="#3a3a3a"/><path d="M385.76654,198.61234l-1.08887,1.82081l-5.21343,-0.5423l0.95514,-9.7508l3.21357,-5.60396l-1.46646,13.67175z" fill="#3a3a3a"/><path d="M391.93459,199.30519l-1.08887,1.82081l-5.21343,-0.5423l0.95511,-9.75079l3.21357,-5.60397l-1.46646,13.67175z" fill="#3a3a3a"/><path d="M398.58245,200.05198l-1.08887,1.82081l-5.21343,-0.5423l0.95514,-9.7508l3.21357,-5.60396l-1.46646,13.67175z" fill="#3a3a3a"/><path d="M404.81918,200.75265l-1.08887,1.82081l-5.21342,-0.54232l0.95513,-9.7508l3.21357,-5.60396l-1.46646,13.67175z" fill="#3a3a3a"/><path d="M410.78164,201.42238l-1.08887,1.82081l-5.21342,-0.54232l0.95513,-9.7508l3.21357,-5.60397l-1.46646,13.67175z" fill="#3a3a3a"/><path d="M417.02618,202.12392l-1.08887,1.82081l-5.21342,-0.54232l0.95513,-9.7508l3.21357,-5.60396l-1.46646,13.67175z" fill="#3a3a3a"/></g><g><g data-paper-data="{&quot;origPos&quot;:null}"><g data-paper-data="{&quot;origPos&quot;:null}" fill="none" stroke-width="1" font-family="sans-serif" font-weight="normal" font-size="12" text-anchor="start"/><g data-paper-data="{&quot;origPos&quot;:null}" fill="#4b4b4b" stroke-width="0"><path d="M381.59569,206.55262l0.25372,-2.25854l3.72657,0.41863l-0.25371,2.25853z" data-paper-data="{&quot;origPos&quot;:null}"/><path d="M375.3974,205.74199l0.25372,-2.25854l3.72657,0.41863l-0.25372,2.25854z" data-paper-data="{&quot;origPos&quot;:null}"/></g></g><g data-paper-data="{&quot;origPos&quot;:null,&quot;index&quot;:null}" fill="#4b4b4b" stroke-width="0"><g data-paper-data="{&quot;origPos&quot;:null}"><path d="M400.70559,208.47062l0.25372,-2.25853l3.72658,0.41863l-0.25372,2.25853z" data-paper-data="{&quot;origPos&quot;:null}"/><path d="M406.92921,209.05543l0.25373,-2.25852l3.72658,0.41863l-0.25372,2.25853z" data-paper-data="{&quot;origPos&quot;:null}"/></g><g data-paper-data="{&quot;origPos&quot;:null}"><path d="M388.27095,207.18816l0.25372,-2.25854l3.72658,0.41863l-0.25372,2.25853z" data-paper-data="{&quot;origPos&quot;:null}"/><path d="M394.4946,207.7729l0.25372,-2.25854l3.72658,0.41863l-0.25372,2.25854z" data-paper-data="{&quot;origPos&quot;:null}"/></g></g></g></g><path d="M210.03113,149.37449l1.5037,-4.07268c0,0 4.93362,-2.61306 8.45944,-2.36791c4.03067,0.28022 33.80949,3.6506 33.80949,3.6506c0,0 0.44847,1.93794 0.26,3.1416c-0.24279,1.55078 -2.6878,4.36004 -2.6878,4.36004z" fill="#242424" stroke-width="0"/><path d="M235.18672,148.36635l0.35167,-3.1306l17.88928,2.00957l-0.35167,3.1306z" fill="#313131" stroke-width="0"/><path d="M231.698,149.91724l0.07282,-0.64817c0,0 1.17856,-0.92539 2.19521,-0.81118c0.96542,0.10849 3.0867,0.82465 5.50502,1.26073c4.60692,0.83064 10.18875,1.56006 10.18875,1.56006l-0.07282,0.64817c0,0 -5.39413,-0.608 -9.93632,-1.43086c-2.47844,-0.44897 -4.66895,-1.26763 -5.67042,-1.38014c-1.05267,-0.11827 -2.28221,0.80139 -2.28221,0.80139z" fill="#616161" stroke-width="0"/><path d="M260.41542,137.33351l12.27609,4.4247l30.0651,8.7189c0,0 0.70352,0.30462 -7.26318,-1.32313c-2.71012,-0.55376 -13.10233,-3.3403 -22.0551,-6.26087c-2.4225,-0.79026 -15.28916,-5.69809 -15.28916,-5.69809z" fill="#df8cb7" stroke-width="0"/><path d="M79.75266,123.41455l0.66229,-5.89599c0,0 5.92969,-1.09786 9.70974,-0.67321c3.09459,0.34765 11.13268,4.77857 11.13268,4.77857l-1.50383,12.17896z" fill="#626061" stroke-width="0"/><path d="M193.97202,146.29415l3.49278,2.91411l12.3183,0.05233l50.42778,5.66494l-0.12175,1.08425c0,0 -37.8121,-4.39384 -49.67034,-5.46213c-3.25566,-0.29327 -12.97492,-0.6597 -12.97492,-0.6597z" fill="#ffa6d4" stroke-width="0"/><path d="M69.75141,186.62347l0.80038,-7.1248l25.13779,-13.91091l-3.12314,13.40404l-14.91585,8.51905z" fill="#3f3d3e" stroke-width="0"/><path d="M68.6964,181.41298c0,0 2.38024,-19.50808 4.25077,-28.94152c2.11113,-10.64714 7.78164,-31.7421 7.78164,-31.7421c0,0 8.58186,0.77355 11.95781,2.80895c2.88936,1.74199 7.06618,8.66094 7.06618,8.66094l-3.74555,33.34185c0,0 -13.31188,12.28886 -16.58991,14.19393c-5.04223,2.93035 -10.72091,1.678 -10.72091,1.678z" fill="#555354" stroke-width="0"/><path d="M79.39581,131.24474c0,0 -0.86152,-6.12737 1.49283,-8.57707c2.35434,-2.44971 6.79022,-2.97471 9.33449,-2.6889c2.02963,0.22799 6.22111,0.77806 8.57881,5.5295c2.35773,4.75141 -0.29451,11.16546 -0.29451,11.16546c0,0 -5.09902,-11.04196 -7.59192,-11.75009c-3.51772,-0.99926 -11.51978,6.32113 -11.51978,6.32113z" fill="#6f6b6c" stroke-width="0"/><path d="M66.70858,186.09215c0,0 4.6133,-25.70822 5.89087,-37.08046c1.33044,-11.84329 3.43035,-32.45615 3.43035,-32.45615c0,0 1.22076,-0.50987 2.25511,-0.39372c0.94575,0.10621 2.43101,0.92013 2.43101,0.92013c0,0 -2.35139,19.01163 -3.54532,29.63954c-1.38714,12.34778 -7.05376,39.75348 -7.05376,39.75348z" fill="#333232" stroke-width="0"/><path d="M66.23096,186.48496l2.7293,-14.49418c0,0 0.94938,1.00113 1.54936,1.02959c0.75761,0.03599 2.58463,-1.2053 2.58463,-1.2053l-2.91894,15.11294z" fill="#2e2d2d" stroke-width="0"/><path d="M95.87992,153.32767c-0.91148,8.11359 -5.97753,16.26696 -10.64228,18.68873c-3.87423,2.01138 -12.08045,7.88993 -11.16896,-0.22363c0.19338,-1.72128 3.55081,-13.29817 4.46323,-20.26974c1.20666,-9.21977 0.12725,-14.35324 1.39517,-17.06026c2.2927,-4.89469 7.94657,-5.74829 10.14724,-5.50108c4.33796,0.48734 6.71712,16.25239 5.80565,24.36599z" fill="#585758" stroke-width="0"/><path d="M128.55413,171.1698l-0.39453,-1.79602c0,0 8.04084,-0.45577 14.07529,-0.26504c8.49508,0.26844 32.08745,1.72386 32.08745,1.72386l1.6417,1.47369c0,0 -25.13457,-1.19295 -33.87954,-1.40259c-2.56826,-0.06156 -13.53033,0.26616 -13.53033,0.26616z" fill="#585657" stroke-width="0"/><path d="M121.22697,183.63022l6.68578,-13.02643l7.30316,-0.13623c0,0 -2.20877,4.0925 -2.20726,4.85259c0.00693,3.6318 0.30955,27.78357 0.30955,27.78357c0,0 -1.51738,0.27274 -2.48997,-1.72386c-1.74509,-3.58253 -2.80309,-10.60654 -4.3095,-12.89165c-1.30153,-1.97432 -5.29172,-4.85796 -5.29172,-4.85796z" fill="#5a5759" stroke-width="0"/><path d="M137.11686,154.41744l4.13602,-10.93996l2.33116,0.15007l-5.26503,11.0367z" fill="#a5a0a2" stroke-width="0"/><path d="M143.9851,154.0987l0.15659,-1.39401l26.33064,2.95789l-0.15659,1.394z" fill="#494748" stroke-width="0"/><path d="M144.23666,151.13696l0.15659,-1.39401l26.33064,2.95789l-0.15659,1.39401z" fill="#494748" stroke-width="0"/><path d="M122.42324,171.23519l2.24818,-20.01248l13.24435,-8.18887l4.84909,0.23102l-20.9535,40.72895l-5.35252,-2.61723z" fill="#dbd5d8" stroke-width="0"/><path d="M94.76029,180.11695l1.15935,-11.73472l26.57602,2.19105c0,0 0.04492,2.55878 -0.1736,3.33767c-0.54465,1.94181 -3.3139,8.61221 -3.3139,8.61221z" fill="#ccc6c9" stroke-width="0"/><path d="M99.79798,169.22083l0.03522,-0.31383l22.77131,1.68417l-2.72132,0.88605c0,0 -4.31542,-0.2974 -7.00365,-0.63137c-3.68092,-0.45723 -13.08162,-1.62503 -13.08162,-1.62503z" fill="#d8d1d5" stroke-width="0"/><path d="M103.70862,165.89985l1.89777,-16.89371l16.02423,1.80013l-1.89777,16.89371z" fill="#a39999" stroke-width="0"/><path d="M94.46648,180.25475l1.26803,-11.28831c0,0 8.06865,7.33325 12.06724,10.13776c3.99861,2.80452 10.49043,3.25202 10.49043,3.25202z" fill="#b4afb1" stroke-width="0"/><path d="M127.22485,190.01541c0,0 2.89437,1.37218 3.99969,1.35174c0.67899,-0.01262 2.00142,-1.46297 2.00142,-1.46297l0.63528,9.20164l-0.46832,4.16887c0,0 -1.96566,0.09258 -2.94841,-2.61664c-0.81085,-2.23531 -3.21967,-10.6426 -3.21967,-10.6426z" fill="#504e4f" stroke-width="0"/><path d="M121.46743,184.21712l19.0312,-39.86825l1.70978,0.3985l-18.97506,40.28736z" fill="#858183" stroke-width="0"/><path d="M109.2863,141.83633l1.68959,-1.47107c0,0 27.3161,2.42064 39.64884,3.80611c10.70393,1.20245 31.70586,3.91693 31.70586,3.91693l0.30946,1.98835c0,0 -21.08536,-3.07907 -32.36798,-4.34653c-12.88336,-1.44725 -40.98571,-3.8938 -40.98571,-3.8938z" fill="#918b8e" stroke-width="0"/><path d="M110.43551,140.72695l2.22796,-1.70337c0,0 25.7659,2.5393 38.09859,3.92467c10.70392,1.20245 31.70586,3.91693 31.70586,3.91693l0.30945,1.98835c0,0 -21.08535,-3.07907 -32.36798,-4.34654c-12.88336,-1.44725 -39.97383,-3.78017 -39.97383,-3.78017z" fill="#a59fa2" stroke-width="0"/><path d="M172.31992,168.59565l-1.2791,-5.86209c0,0 0.34483,-1.1739 0.6883,-1.24879c0.30266,-0.06605 1.26564,0.8224 1.26564,0.8224l1.2791,5.8621c0,0 -0.37239,0.84134 -0.67571,0.90749c-0.34315,0.07487 -1.27827,-0.48114 -1.27827,-0.48114z" fill="#494242" stroke-width="0"/><path d="M132.00136,166.73169l4.57966,-9.03093l3.86144,0.43376l-4.57966,9.03093z" fill="#9c989a" stroke-width="0"/><path d="M143.49329,150.13463l1.94722,-0.75527l24.28406,2.74619l1.89939,1.16929z" fill="#757274" stroke-width="0"/><path d="M143.27314,152.93889l1.94724,-0.75528l24.28405,2.7462l1.89941,1.16926z" fill="#757274" stroke-width="0"/><path d="M92.17069,179.00771l8.18875,-57.60367l1.84346,0.79147l-7.69137,58.06316z" fill="#686666" stroke-width="0"/><path d="M91.97816,179.25808l2.46519,-16.08104l1.8505,4.05037l-1.91952,13.17817z" fill="#535252" stroke-width="0"/><path d="M125.08546,159.95869c0,0 2.37262,-2.09368 2.47827,-3.03455c0.10374,-0.92331 -1.84994,-2.55895 -1.84994,-2.55895c0,0 2.90851,1.00066 2.61652,2.6668c-0.22242,1.26911 -1.51082,3.32712 -1.72072,4.41288c-0.59685,3.08712 -2.10136,10.31168 -2.10136,10.31168z" fill="#c4bec1" stroke-width="0"/><path d="M132.92689,158.91592l3.03783,-9.91832l3.01902,-4.04249l-3.70546,9.20204z" fill="#aca7a9" stroke-width="0"/></g></g><g stroke-width="0"><path d="M253.35455,144.4389l2.91066,-3.02315c0,0 1.95647,-1.22559 2.7456,-0.86022c0.89971,0.41656 2.36445,3.22621 2.36445,3.22621l-0.99424,3.99593c0,0 -4.25367,-0.48542 -5.49711,-0.75927c-0.5606,-0.12344 -1.52928,-2.57949 -1.52928,-2.57949z" fill="#c0c0c0"/><path d="M209.62663,149.23839c0,0 0.14614,-2.8817 1.32579,-3.8952c1.47833,-1.27014 7.76725,-2.7898 7.76725,-2.7898l-1.23497,4.62815l-0.3261,2.90295z" fill="#838383"/><path d="M209.46384,149.14537l8.88927,-6.52976l37.32753,4.19326l-0.83516,7.4345z" fill="#999999"/><path d="M210.52982,148.60449l6.77326,-5.117l33.56122,3.77018l-0.65207,5.80459c0,0 -4.06205,-0.45634 -9.28738,-1.04329c-3.39732,-0.3816 -7.16776,-1.87386 -10.75188,-2.27653c-3.84488,-0.43195 -7.45744,0.23094 -9.61698,-0.01164c-4.22656,-0.4748 -10.02616,-1.12634 -10.02616,-1.12634z" fill="#2e2e2e"/><path d="M214.00049,148.9922l8.9756,-4.93216l12.38618,1.39144c0,0 -7.54291,1.07198 -10.00027,1.71628c-2.6088,0.68389 -6.03653,2.42267 -6.03653,2.42267z" fill="#a5899d"/><path d="M221.95228,149.77202c0,0 5.16186,-0.39838 7.60361,-0.12406c3.11994,0.35049 9.58511,2.05497 9.58511,2.05497l-9.5563,-1.41082z" fill="#adadad"/><path d="M209.56971,149.13896l8.02766,-5.8923l34.74809,3.90356l-0.07688,0.68428c0,0 -30.08755,-3.37994 -34.00948,-3.82053c-0.8203,-0.09213 -8.68933,5.12509 -8.68933,5.12509z" fill="#8a8a8a"/><path d="M255.74604,160.60128l1.08905,-9.69435l1.45067,-7.08422c0,0 1.12728,0.59949 1.61487,1.22132c0.48752,0.62181 0.74267,1.7854 0.74267,1.7854l-2.8968,13.99664z" fill="#9e9e9e"/><path d="M250.80085,155.78841c0,0 -0.66887,-2.2134 -0.62728,-3.80787c0.05597,-2.1471 1.52214,-7.5353 1.52214,-7.5353l1.9656,-0.10657c0,0 0.66573,0.87157 1.15729,0.77668c0.67771,-0.13078 2.53288,-1.48891 2.53288,-1.48891l-1.93032,12.68108z" fill="#9c9c9c"/><path d="M251.16687,157.67165c-0.65418,-1.18489 -0.26199,-2.52259 -0.26199,-2.52259l5.65107,-6.61085c0,0 0.95135,4.01507 0.84905,4.92581c-0.29089,2.58923 0.17909,7.42164 0.17909,7.42164c0,0 -2.97083,-0.24946 -3.95422,-0.80134c-1.17948,-0.66185 -1.80867,-1.22782 -2.46292,-2.41272z" fill="#888888"/><path d="M253.02287,157.10103c-0.75884,-2.09756 -1.26483,-6.64555 1.02158,-10.48105c2.28642,-3.83551 4.44776,-1.44814 4.44776,-1.44814c0,0 0.50646,4.50772 0.24825,6.80609c-0.23518,2.09368 -1.73484,6.42747 -1.73484,6.42747c0,0 -3.22387,0.79321 -3.98274,-1.30442z" fill="#b4b4b4"/><path d="M258.01767,149.91848c-0.15752,1.40227 -5.24419,0.90872 -5.08668,-0.49349c0.15752,-1.40227 3.80023,-6.42921 4.60757,-6.33848c0.31267,0.03516 0.94116,0.2082 1.01801,1.28423c0.12156,1.70228 -0.44242,4.68866 -0.53891,5.54779z" fill="#bbbbbb"/></g><g stroke-width="0"><path d="M193.87797,146.26833c0,0 -5.27101,-5.54039 -5.06187,-7.40207c0.17073,-1.52009 6.18299,-0.96857 6.18299,-0.96857l7.49012,0.91371l-5.20229,10.26234z" fill="#f399c8"/><path d="M163.35937,144.49198c0,0 -0.72982,-2.19302 -0.35441,-3.23028c0.41428,-1.14474 2.86413,-4.49711 2.86413,-4.49711l22.91485,2.38735l8.10648,9.58809z" fill="#ee96c3"/></g></g><g stroke-width="0"><g><path d="M260.4529,135.54985l0.69009,-6.14316l47.51926,5.33818l-0.69009,6.14316z" fill="#61585b"/><path d="M260.65275,132.30833l0.36959,-3.28964l47.69994,5.35848l-0.36959,3.28963c0,0 -8.58685,-0.96465 -17.40771,-1.95553c-2.75793,-0.30983 -6.80462,0.76238 -9.35301,0.47607c-3.03033,-0.34042 -6.1109,-2.21327 -8.05471,-2.43166c-5.82866,-0.65477 -12.8845,-1.44745 -12.8845,-1.44745z" fill="#494344"/><path d="M322.83098,132.64651l-7.16141,-19.85652l20.78847,2.33534l13.45949,18.39181c0,0 -5.8264,0.71544 -9.0671,0.61127c-5.00062,-0.16071 -18.01945,-1.48187 -18.01945,-1.48187z" fill="#5e555b"/><path d="M322.44966,136.06034l0.6183,-5.50386c0,0 12.38382,-0.0711 17.33245,-0.29972c3.92727,-0.18144 6.78048,-0.44662 6.78048,-0.44662l5.12765,7.55845c0,0 -5.47725,0.99087 -9.64875,0.96899c-5.65214,-0.02964 -20.21003,-2.27719 -20.21003,-2.27719z" fill="url(#color-5)"/><path d="M313.96762,112.75863l0.44614,-3.97123l19.03183,2.13801l3.16754,4.37714z" fill="url(#color-6)"/><path d="M321.8667,136.01993l0.1406,-1.25138c0,0 15.52067,1.66667 20.8922,2.10147c4.01656,0.32516 8.58548,-0.74836 8.58548,-0.74836l0.7555,1.23682l-8.40089,1.12975z" fill="#312c30"/><g><path d="M222.66191,114.20829l0.76388,-8.82825l93.33821,10.48535l6.33333,12.06428z" fill="#8a6672"/><path d="M238.17284,124.28852c0,0 -3.09499,-3.97615 -5.71899,-5.74168c-2.62401,-1.76558 -9.66759,-2.31789 -9.66759,-2.31789l0.34446,-2.06148c0,0 12.21541,1.65035 19.19014,2.52974c16.66174,2.10059 80.34815,10.01939 80.34815,10.01939l2.86742,6.93044z" fill="#755761"/><path d="M240.72548,127.08193l-2.71718,-2.91337l87.09354,9.29142l0.85399,3.19643z" fill="#694e57"/><path d="M223.21788,105.75533l0.50562,-4.50068l90.31441,9.46203l3.19361,6.0556c0,0 2.36529,3.62475 -2.88509,3.00947c-1.65284,-0.19368 -10.34066,-4.55933 -11.99766,-4.75351c-15.95775,-1.87002 -79.13081,-9.27292 -79.13081,-9.27292z" fill="#916b77"/><path d="M223.96384,101.28173l0.16369,-2.52201l89.36228,9.89913l0.77157,2.49403z" fill="#9e7582"/><path d="M297.54994,110.2364c-7.94504,-1.5445 -72.08944,-9.78912 -72.08944,-9.78912l87.3049,9.8076l3.9401,7.93055c0,0 -11.21044,-6.40449 -19.15553,-7.94902z" fill="#b38f9a"/></g><path d="M271.40466,130.52543l1.02416,-9.11645l20.08589,2.25636l-1.02416,9.11646z" fill="#3a3336"/><path d="M272.34103,121.40334l0.88196,-1.43301l18.42254,2.06953l0.80899,1.62294z" fill="#4b4246"/><path d="M271.59969,130.04483l0.9129,-8.12648c0,0 0.46467,5.35115 2.98249,6.74726c2.51783,1.39612 15.6292,3.57254 15.6292,3.57254z" fill="#332c30"/><path d="M314.96726,115.10871l-3.22567,-6.40011c0,0 1.09098,-0.54829 1.68784,-0.48121c0.66727,0.07494 2.12813,0.90994 2.12813,0.90994l3.22567,6.40011z" fill="#757575"/><path d="M317.44026,120.15087l-4.63766,-9.18742l3.816,0.42868l4.63766,9.18741z" fill="#5a5a5a"/><path d="M320.93868,127.03341l-4.63766,-9.18741l3.81599,0.42868l4.63766,9.18742z" fill="#505050"/><path d="M324.55458,134.16132c-0.79209,-1.56917 -3.88272,-7.69188 -3.88272,-7.69188l3.81598,0.42868l5.41973,11.00029c0,0 -2.10269,0.30265 -3.04465,0.18193c-0.73473,-0.09415 -1.95909,-3.22712 -2.30833,-3.91904z" fill="#3b3b3b"/><path d="M220.83942,116.61806l2.08473,-18.55801l3.16108,0.3551l-2.08473,18.55801z" fill="#443e42"/><path d="M201.90277,116.0998l-0.01968,-5.96752l20.10212,2.25817l-0.66177,5.89097z" fill="url(#color-7)"/><path d="M201.8127,110.75895l1.21089,-10.77917l20.10212,2.25817l-1.21089,10.77918z" fill="#5e555b"/><path d="M203.00949,100.10529l1.25961,-4.04691l19.30711,2.16888l-0.46466,4.13623z" fill="url(#color-8)"/><path d="M273.31334,104.0131l0.68467,-6.095l14.80925,2.73698l4.06741,5.19766z" fill="#5e555b"/><path d="M292.83502,106.20609l-4.03764,-5.46267c0,0 2.92023,1.02299 5.02314,2.26378c2.10288,1.24075 5.46285,3.92325 5.46285,3.92325z" fill="#776b73"/><path d="M270.18094,104.82406l3.31894,-0.87943l25.46979,2.59288l3.45298,1.90854z" fill="#6d6269"/></g><g><path d="M273.28535,126.74162c0.13941,-1.241 0.77571,-2.33353 1.27677,-3.31324c0.69826,-1.36526 1.42961,-2.47838 2.80972,-3.17486c0.84304,-0.42545 2.01664,-0.68542 3.02624,-0.8139c0.66772,-0.08495 1.70533,-0.37096 2.40395,-0.2925c1.58374,0.17788 1.91479,0.29735 3.00196,0.91864c0.65489,0.37426 2.23397,1.00355 2.69057,1.73121c0.38648,0.61586 0.75336,1.6116 1.0171,2.3251c0.4506,1.21938 1.03993,3.16183 0.88492,4.54177c-0.06549,0.58317 -0.70378,1.85835 -0.8107,2.36501c-0.33939,1.60861 -0.397,2.11496 -1.72604,3.0761c-0.80782,0.58416 -2.36679,0.96032 -3.39025,1.25785c-1.05987,0.3082 -2.42435,1.02642 -3.58979,0.89551c-0.78653,-0.08835 -2.14597,-0.77941 -2.89278,-1.0004c-1.62019,-0.47938 -2.48721,-0.75229 -3.38296,-2.00027c-0.76819,-1.07016 -0.84872,-2.6876 -1.05919,-4.07738c-0.11054,-0.73011 -0.34596,-1.66989 -0.25962,-2.43875z" fill="#3a3a3a"/><path d="M274.02507,126.70535c0.12759,-1.13571 0.70989,-2.1354 1.16838,-3.03199c0.63897,-1.24932 1.3082,-2.26793 2.57121,-2.90531c0.77142,-0.38929 1.84546,-0.62721 2.76927,-0.74478c0.61107,-0.07773 1.56063,-0.33949 2.19981,-0.26767c1.44929,0.1628 1.75222,0.2721 2.74711,0.84061c0.59927,0.34247 2.04425,0.91839 2.46213,1.58419c0.3537,0.56358 0.68945,1.47483 0.93073,2.12774c0.41235,1.11589 0.95163,2.89339 0.80974,4.15613c-0.05994,0.53364 -0.64402,1.70053 -0.74188,2.16425c-0.31056,1.47204 -0.3633,1.93538 -1.57953,2.81489c-0.73923,0.53457 -2.16587,0.87871 -3.10235,1.15107c-0.9699,0.28203 -2.21855,0.9393 -3.285,0.81953c-0.71976,-0.08084 -1.96379,-0.71323 -2.64718,-0.91539c-1.48262,-0.4386 -2.27602,-0.6884 -3.09579,-1.83043c-0.70294,-0.97934 -0.77665,-2.45944 -0.96919,-3.73123c-0.10109,-0.66811 -0.31656,-1.52815 -0.23756,-2.23166z" fill="#5a5a5a"/><path d="M286.64645,123.56535c-1.76582,-2.59917 -6.80507,-3.3671 -6.80507,-3.3671c0,0 1.99041,-0.31983 3.9674,-0.09072c1.60139,0.18555 3.12324,0.72325 4.13029,2.14555c1.0079,1.42346 1.23355,2.94285 1.36276,4.36165c0.25338,2.78166 -0.44884,5.11064 -0.44884,5.11064c0,0 -0.44073,-5.5608 -2.20656,-8.15992z" fill="#6d6d6d"/><path d="M280.79256,127.95812c0.06424,-0.57212 0.58012,-0.98379 1.15231,-0.91955c0.57212,0.06424 0.98379,0.58012 0.91955,1.15232c-0.06424,0.57212 -0.58012,0.98379 -1.15231,0.91954c-0.57212,-0.06424 -0.98379,-0.58012 -0.91954,-1.15231z" fill="#272727"/><path d="M280.69877,128.0853c0.05898,-0.52477 0.5321,-0.90231 1.05683,-0.8434c0.52477,0.05898 0.90231,0.5321 0.8434,1.05683c-0.05898,0.52477 -0.5321,0.90231 -1.05682,0.8434c-0.52477,-0.05898 -0.90231,-0.5321 -0.8434,-1.05682z" fill="#131313"/></g></g></g></g></g><path d="M180.11944,227.36579c0.17691,-1.57479 0.70358,-44.40973 1.38281,-46.01911c0.91712,-2.17298 9.19446,0.11599 12.30847,-1.05145c9.53697,-3.57559 19.80068,-7.03854 19.80068,-7.03854c0,0 13.91565,2.14735 18.12565,2.62037c3.14831,0.35366 65.03168,-1.23818 64.61621,9.10158c-0.56355,14.0247 -42.51106,-2.47965 -43.86526,9.57515c-0.34283,3.0517 2.03001,3.51497 1.11648,6.57944c-0.21927,0.73547 -3.13443,5.61944 -3.54446,7.26003c-0.65091,2.60416 2.17683,6.94953 -1.45861,9.65991c-2.89793,2.16056 -1.53812,7.36173 -2.30864,8.49844c-5.30947,7.83321 -13.16158,3.12274 -22.11812,2.11661c-10.61923,-1.19291 -26.48781,0.77122 -35.67459,-1.50594c-3.96558,-0.98301 -8.89554,4.78764 -8.38059,0.20372z" fill="#86c8f5" stroke-width="0"/></g></g></svg>