<svg version="1.1" xmlns="http://www.w3.org/2000/svg" xmlns:xlink="http://www.w3.org/1999/xlink" width="469.82073" height="150.34054" viewBox="0,0,469.82073,150.34054"><defs><linearGradient x1="545.19107" y1="198.52868" x2="544.52936" y2="203.2945" gradientUnits="userSpaceOnUse" id="color-1"><stop offset="0" stop-color="#1f1d20"/><stop offset="1" stop-color="#202022"/></linearGradient><linearGradient x1="546.29413" y1="193.78011" x2="545.53278" y2="199.26373" gradientUnits="userSpaceOnUse" id="color-2"><stop offset="0" stop-color="#302d31"/><stop offset="1" stop-color="#1f1e20"/></linearGradient><linearGradient x1="208.07986" y1="195.35198" x2="207.61362" y2="198.70976" gradientUnits="userSpaceOnUse" id="color-3"><stop offset="0" stop-color="#585758"/><stop offset="1" stop-color="#575758"/></linearGradient><linearGradient x1="193.70519" y1="203.53128" x2="193.33919" y2="206.16737" gradientUnits="userSpaceOnUse" id="color-4"><stop offset="0" stop-color="#363536"/><stop offset="1" stop-color="#353536"/></linearGradient><linearGradient x1="348.47205" y1="131.32808" x2="347.71039" y2="136.81396" gradientUnits="userSpaceOnUse" id="color-5"><stop offset="0" stop-color="#5e555b"/><stop offset="1" stop-color="#2b2629"/></linearGradient><linearGradient x1="341.64939" y1="109.51559" x2="341.09984" y2="113.47374" gradientUnits="userSpaceOnUse" id="color-6"><stop offset="0" stop-color="#72676e"/><stop offset="1" stop-color="#5e555b"/></linearGradient><linearGradient x1="227.85454" y1="107.74786" x2="227.03927" y2="113.61956" gradientUnits="userSpaceOnUse" id="color-7"><stop offset="0" stop-color="#5e555b"/><stop offset="1" stop-color="#4d454a"/></linearGradient><linearGradient x1="229.81461" y1="93.63097" x2="229.24221" y2="97.75368" gradientUnits="userSpaceOnUse" id="color-8"><stop offset="0" stop-color="#74686f"/><stop offset="1" stop-color="#5e555b"/></linearGradient></defs><g transform="translate(-80.23822,-92.35008)"><g data-paper-data="{&quot;isPaintingLayer&quot;:true}" fill-rule="nonzero" stroke="none" stroke-linecap="butt" stroke-linejoin="miter" stroke-miterlimit="10" stroke-dasharray="" stroke-dashoffset="0" style="mix-blend-mode: normal"><g><g stroke-width="0"><path d="M270.94595,188.94531l-8.02262,-16.60637l25.41361,2.9327c0,0 -1.88964,5.62236 -2.45876,8.26777c-0.55051,2.55897 -0.90197,7.35392 -0.90197,7.35392z" fill="#7f7d7e"/><path d="M271.01639,189.15368l-2.83392,-6.05419c0,0 1.84726,3.84565 4.96809,4.89961c2.2473,0.7589 4.15817,0.7113 6.77005,1.39782c2.61185,0.68654 4.9312,1.67779 4.9312,1.67779z" fill="#6c6a6b"/></g><g><g><g><path d="M541.56665,202.88315l-1.37773,-5.04905c0,0 5.70658,2.46611 8.15647,3.70764c2.44993,1.2416 0.76981,2.15537 0.76981,2.15537z" fill="url(#color-1)" stroke-width="0"/><path d="M549.81717,194.47086c0,0 1.14543,2.50915 -1.55002,3.03637c-2.69545,0.52719 -5.73911,1.33933 -5.73911,1.33933l-0.20003,-5.61711z" data-paper-data="{&quot;index&quot;:null}" fill="url(#color-2)" stroke-width="0"/><path d="M532.0408,201.55591l0.28856,-2.0784l14.63218,2.03163c0,0 1.13642,0.95971 1.56919,1.38956c0.38905,0.38643 -0.85719,0.82776 -0.85719,0.82776z" fill="#444444" stroke-width="NaN"/><path d="M532.34303,199.62415l-0.93812,-1.90097l12.49582,1.73497l3.13595,2.09325c0,0 -4.21051,-0.34434 -6.49583,-0.64407c-2.57737,-0.33807 -8.19779,-1.2832 -8.19779,-1.2832z" fill="#535353" stroke-width="0"/><path d="M531.27498,197.8432l-0.23366,-0.67857l11.36475,1.5779l1.59716,0.75252z" fill="#363636" stroke-width="0"/><path d="M532.0408,201.55591l0.15656,-1.12756c0,0 6.32991,1.33682 9.18232,1.73288c2.41719,0.33562 6.84367,0.49227 6.84367,0.49227c0,0 0.79236,0.57668 1.00942,0.81164c0.18315,0.19821 -0.31135,0.43459 -0.31135,0.43459c0,0 -4.74345,-0.25023 -7.03517,-0.56844c-3.0919,-0.42928 -9.84537,-1.77536 -9.84537,-1.77536z" fill="#3a3a3a" stroke-width="NaN"/><path d="M531.35677,197.22682l-0.42673,-0.95147l13.51203,1.87612l-1.9305,0.65837z" fill="#242424" stroke-width="0"/><path d="M530.10361,196.3517l0.22754,-1.63861c0,0 8.04482,0.90884 11.01206,1.32079c2.02163,0.28071 5.07019,0.91218 5.07019,0.91218l-2.00126,1.22576z" fill="#3a3a3a" stroke-width="0"/><path d="M530.19694,194.73741l0.28091,-2.02316c0,0 7.62593,0.7258 10.90874,1.18157c2.84076,0.39442 7.65432,1.39585 7.65432,1.39585l-2.67611,1.69058c0,0 -3.60886,-0.58434 -5.83195,-0.89302c-2.95503,-0.41027 -10.33586,-1.35182 -10.33586,-1.35182z" fill="#444444" stroke-width="0"/><path d="M530.4234,192.79263l0.11704,-0.84298c0,0 7.81599,0.96033 11.37904,1.45504c2.48099,0.34447 7.95387,1.22927 7.95387,1.22927l-0.9739,0.72398c0,0 -4.96626,-0.98095 -7.90333,-1.38876c-3.23585,-0.44928 -10.57276,-1.17655 -10.57276,-1.17655z" fill="#535353" stroke-width="0"/><path d="M530.40042,192.01613l0.04687,-0.33717c0,0 7.67311,0.55348 11.1006,1.02935c2.96331,0.41145 8.27509,1.66084 8.27509,1.66084l-0.00957,0.34239c0,0 -5.92911,-0.98976 -9.14331,-1.43606c-3.25621,-0.45211 -10.26956,-1.25935 -10.26956,-1.25935z" fill="#4e4e4e" stroke-width="0"/></g><g stroke-width="0"><g><g><g><path d="M526.30976,200.26746l-2.72788,-13.66871l0.78448,-1.62896c0,0 2.9977,3.67637 3.56886,6.26995c0.31006,1.40805 -0.18458,9.22766 -0.18458,9.22766z" fill="#383638"/><path d="M527.44603,199.72716c0,0 0.14169,-0.59587 -0.14337,-3.11387c-0.31082,-2.74597 -1.18992,-6.53997 -1.43156,-7.65781c-0.54257,-2.50918 -1.27235,-2.74221 -1.27235,-2.74221l4.83445,0.08385l3.05548,14.13023z" fill="#555355"/><path d="M524.65036,186.30664l-0.40627,-1.30465c0,0 2.11101,-0.5146 3.06344,-0.38231c0.89254,0.1239 1.91704,1.00042 1.91704,1.00042l0.39626,1.37666z" fill="#686668"/></g><path d="M520.69096,199.48736l-2.72788,-13.6687l0.45403,-1.65447c0,0 3.32815,3.70196 3.89924,6.29547c0.31006,1.40804 -0.18457,9.22765 -0.18457,9.22765z" fill="#383638"/><path d="M521.82723,198.94707c0,0 0.14169,-0.59588 -0.14336,-3.11386c-0.31082,-2.74597 -1.18992,-6.53997 -1.43156,-7.65781c-0.54257,-2.50918 -1.27235,-2.74221 -1.27235,-2.74221l4.16032,-0.51456c0,0 0.84388,1.38344 1.00927,2.14821c0.4712,2.17902 2.72031,12.58044 2.72031,12.58044z" fill="#555355"/><path d="M519.03152,185.52642l-0.62237,-1.3347c0,0 2.32714,-0.48455 3.27965,-0.35231c0.89254,0.1239 1.62886,0.96045 1.62886,0.96045l0.52011,1.39386z" fill="#686668"/><path d="M528.39329,198.85542c0.11265,-0.81172 0.86213,-1.37837 1.67384,-1.26573c0.81173,0.11266 1.37837,0.86213 1.26573,1.67384c-0.11265,0.81172 -0.86213,1.37837 -1.67383,1.26573c-0.81173,-0.11266 -1.37837,-0.86213 -1.26573,-1.67384z" fill="#312f31"/><path d="M529.4455,196.04413l-1.21761,-5.76878l1.59597,0.07687l1.20876,5.83268z" fill="#444144"/></g><path d="M482.41516,189.15883l-2.24041,-11.23844l29.4366,5.27491l-1.79282,9.4907z" fill="#444444"/><path d="M495.47442,187.01897c0,0 0.70173,-0.4295 1.56906,-1.42459c0.79311,-0.90976 1.73577,-2.37195 2.18054,-2.77837c1.20065,-1.55615 3.49245,-0.76659 3.49245,-0.76659l-1.06005,0.51214l-5.04993,4.61468z" fill="#292929"/><path d="M496.79908,197.83335l-4.94352,-11.76302c0,0 3.39243,1.00738 5.22413,0.2026c1.42338,-0.62543 1.69208,-3.24532 3.29308,-3.3067c4.59341,-0.17585 17.40523,1.16495 17.40523,1.16495c0,0 2.22671,7.5227 2.7481,10.50985c0.35992,2.06222 0.15801,6.50872 0.15801,6.50872z" fill="#4a464a"/><path d="M502.69968,185.41834c-4.42997,-1.2572 -2.8153,-2.41006 -2.8153,-2.41006c0,0 0.96429,-1.1808 2.83394,-1.0688c4.58815,0.27493 13.0697,2.03498 14.77916,2.24644c0.80618,0.09969 0.24759,0.73686 0.24759,0.73686c0,0 -1.80339,2.15847 -3.37418,2.19682c-1.57087,0.03835 -7.24123,-0.44402 -11.67124,-1.70124z" fill="#5e595e"/></g><g><path d="M484.20301,202.7228l-2.64565,-18.47488l18.68872,2.88393l4.15858,4.94729l6.0548,0.74119l1.09405,13.7z" fill="#4d4846"/><path d="M488.7958,203.75138l21.75154,-6.46149l22.14294,2.82971c0,0 0.72427,4.32355 0.67962,5.68494c-0.02283,0.6941 -0.55841,2.8948 -0.55841,2.8948z" fill="#423d3b"/><path d="M486.16123,194.99482l-1.79519,-10.18985l0.81272,0.11286l1.7952,10.18986z" fill="#363332"/><path d="M489.48604,203.03784l0.16741,-1.2058c0,0 5.56453,-1.79723 14.54326,-0.5506c1.19298,0.16566 5.05087,3.27115 6.25327,3.4381c7.62893,1.05924 15.09614,2.09604 17.93702,2.49046c2.31358,0.32123 4.85488,-0.6384 4.85488,-0.6384l-0.34624,2.4935z" fill="#312e2c"/><path d="M493.58551,190.74464l-1.09229,-4.81131l8.22874,1.14255l3.50751,4.95071l6.21991,1.05956l-7.78562,0.88646z" fill="#585350"/><path d="M483.22224,196.39881l0.15516,-1.11749c0,0 8.48424,-2.60149 11.33412,-2.20583c4.29516,0.59634 16.1527,2.24272 16.1527,2.24272l-0.15516,1.11749c0,0 -12.06087,-1.67459 -16.35593,-2.27094c-2.79136,-0.38758 -11.13097,2.23402 -11.13097,2.23402z" fill="#2b2827"/></g></g></g><g><g><g><path d="M145.90351,192.62678c0.22843,2.28714 -0.43419,4.80956 -1.55115,4.92106c-1.11693,0.11157 -2.26533,-2.22993 -2.49377,-4.5171c-0.22843,-2.28714 -1.16373,-11.06959 -0.04673,-11.1812c1.11693,-0.11157 3.86325,8.49006 4.0917,10.77719z" fill="#615e5f" stroke-width="0"/><g><path d="M191.2168,168.70229c-0.46165,-0.59674 -2.59956,-2.21859 -2.59956,-2.21859l10.22184,-1.48836l-6.93318,6.30643c0,0 -0.22743,-2.00269 -0.68908,-2.59946z" fill="#756a6a" stroke-width="0"/><path d="M182.50945,165.77979l1.88867,-13.60286l19.16405,-3.2621l-2.69549,19.41378z" fill="#8a7c7c" stroke-width="0"/><path d="M142.1049,165.66914l9.09711,-17.0442l34.61972,4.67224l2.74827,13.16974c0,0 -22.9882,-1.60067 -30.73934,-1.73365c-3.21759,-0.05525 -15.72582,0.936 -15.72582,0.936z" fill="#7c787a" stroke-width="0"/><path d="M150.9885,151.02322l0.05704,-1.48776c0,0 25.67789,3.56524 33.75031,4.68603c4.51651,0.62705 16.87081,-4.08903 16.87081,-4.08903l-0.22413,1.61419c0,0 -12.06018,4.73751 -16.42631,4.11648c-8.00572,-1.13867 -34.02773,-4.83988 -34.02773,-4.83988z" fill="#535353" stroke-width="0"/><path d="M110.23288,161.95853l2.77169,-19.96247c0,0 5.45821,-6.36401 12.94929,-7.64185c9.30425,-1.58714 25.78707,2.50359 27.83804,2.78836c1.57387,0.21856 -14.21748,8.54258 -14.21748,8.54258l-2.77169,19.96247z" fill="#8d898b" stroke-width="0"/><path d="M287.88278,140.03889l2.01983,-2.89395l106.52343,14.93446l-2.02798,14.60614c0,0 -37.67546,-3.36784 -49.72291,-5.46067c-5.98311,-1.03936 -56.79237,-21.18597 -56.79237,-21.18597z" fill="#c98cac" stroke-width="0"/><path d="M252.53441,237.09995l-2.72139,-13.43837c0,0 4.28618,6.49059 6.95867,7.94884c1.7027,0.92911 5.83622,1.8884 12.22409,0.31453c5.14252,-1.26699 11.01998,-6.01458 11.01998,-6.01458l-13.61071,13.11545z" fill="#a08e97" stroke-width="0"/><path d="M348.61648,203.07436l0.93282,-23.71851l18.56404,1.16135l-2.91511,20.9956c0,0 -6.57304,0.82295 -9.4079,1.13439c-1.30528,0.14338 -7.17388,0.4272 -7.17388,0.4272z" fill="#96858d" stroke-width="0"/><path d="M250.19911,240.55748l0.76192,-5.4875c0,0 11.66414,3.70788 16.66902,1.25153c2.43575,-1.19544 22.00615,-19.61146 32.80113,-29.85622c4.21275,-3.99799 7.08906,-6.75154 7.08906,-6.75154c0,0 3.84632,-3.27534 4.24666,-6.1296c0.20137,-1.43583 1.24154,-5.51019 0.7358,-7.91395c-0.5103,-2.42524 -2.56747,-3.17357 -2.56747,-3.17357l-2.95928,-14.11337l19.60795,2.86749l-6.5363,25.92077l3.37013,3.05435c0,0 -10.28941,4.62904 -15.55588,8.90109c-8.24016,6.68411 -35.58584,33.56364 -35.58584,33.56364z" fill="#918189" stroke-width="0"/><path d="M325.60801,200.23586l5.13582,-28.16515l13.60681,2.16766l8.6146,13.31343l-4.46521,15.86262z" fill="#96858d" stroke-width="0"/><path d="M320.87215,201.44523l-1.91527,-4.45149l7.10709,-25.45434l5.04323,0.61471l-4.6006,28.22218z" fill="#8f8187" stroke-width="0"/><path d="M347.26327,203.34721c0,0 3.64246,-6.22527 3.04676,-11.77074c-0.343,-3.19302 -4.93638,-5.81941 -5.14668,-7.77686c-0.40169,-3.73921 -1.02313,-9.52386 -1.02313,-9.52386l7.18035,5.40281c0,0 2.38174,7.61365 2.38773,11.91689c0.00408,2.89114 -2.34237,9.00249 -3.61762,11.44928c-0.10752,0.20625 -1.26104,-0.03795 -1.33491,0.11865c-0.18045,0.38272 0.74279,0.7444 0.74279,0.7444z" fill="#86787e" stroke-width="0"/><path d="M350.90173,181.13471c0,0 -2.51755,-4.34243 -7.02199,-5.94877c-5.09945,-1.81855 -22.01183,-4.40512 -22.01183,-4.40512l158.18895,7.64594l2.10381,9.68312l6.31022,12.12573c0,0 -99.4806,-16.40851 -119.87326,-19.23992c-6.65444,-0.92397 -17.69594,0.13908 -17.69594,0.13908z" fill="#df8db7" stroke-width="0"/><path d="M191.64708,206.75687l0.23564,-36.58507c0,0 2.18306,-3.48357 2.7091,-3.62825c5.80005,-1.59538 38.99719,-7.74009 44.34536,-6.70846c5.85863,1.13005 -10.75648,10.86611 -10.75648,10.86611c0,0 -14.55153,0.02493 -17.64952,3.88545c-4.20621,5.2414 -1.79145,23.09671 -1.79145,23.09671z" fill="#c77da3" stroke-width="0"/><path d="M267.49531,187.07198l-1.48294,-2.33138c0,0 7.68026,-7.62279 10.40606,-9.55901c2.81408,-1.99903 6.22193,-2.25287 6.22193,-2.25287l5.56243,3.09655c0,0 -4.36441,-1.11341 -6.94175,0.26154c-2.2125,1.18027 -6.35237,3.7137 -9.55123,6.39156c-2.32693,1.94792 -4.21448,4.39356 -4.21448,4.39356z" fill="#414041" stroke-width="0"/><path d="M150.81611,149.94294l6.36202,-10.91833l48.16639,6.68766c0,0 -3.48378,4.01454 -6.84414,5.53296c-3.29804,1.49029 -13.13462,3.49473 -13.13462,3.49473z" fill="#979395" stroke-width="0"/><path d="M151.76563,148.9209l5.56961,-11.02838l48.16639,6.68766c0,0 -3.48378,4.01454 -6.84414,5.53296c-3.29804,1.49029 -13.13462,3.49473 -13.13462,3.49473z" fill="#bdb7ba" stroke-width="0"/><path d="M349.60442,203.99604l-1.7845,-0.76625l17.26294,-1.81796c0,0 -3.80944,1.54822 -6.3794,1.99592c-2.56995,0.44776 -9.09902,0.58819 -9.09902,0.58819z" fill="#887980" stroke-width="0"/><path d="M194.04532,207.55885c0,0 -0.87866,-10.68792 -0.89412,-19.31037c-0.01549,-8.66455 -0.00487,-16.78702 0.46627,-20.34075c0.07982,-0.60208 3.07799,-10.21171 3.6447,-10.65942c3.0591,-2.4167 9.66239,6.31798 15.32539,5.99013c8.38506,-0.48541 27.38267,1.63324 27.38267,1.63324l-9.10373,4.09764c0,0 -19.65884,0.16307 -22.73424,4.92255c-4.15979,6.43771 0.46847,28.1533 0.46847,28.1533z" fill="#d486ae" stroke-width="0"/><path d="M195.65004,204.22896c0,0 -0.9769,-41.3993 1.72319,-51.19803c1.26334,-4.58474 -0.80697,-14.06744 -0.80697,-14.06744l49.22743,13.87054l-0.79964,16.11311c0,0 -31.31242,-7.47049 -38.46535,-2.12942c-4.77482,3.5653 -1.91457,32.47641 -1.91457,32.47641z" fill="#e490bb" stroke-width="0"/><g stroke-width="0"><path d="M341.42203,160.87069l1.13803,-8.19624l9.27103,1.28725l-1.13803,8.19624z" fill="#454545"/><path d="M342.35159,160.22759l0.65031,-7.27781l11.21856,1.55764l-1.0037,7.22877z" fill="#b0b0b0"/><path d="M342.74058,155.74952l0.16285,-2.83481l11.43313,1.58744l-0.2623,1.88926c0,0 -7.76318,-0.75229 -9.46547,-0.84871c-0.56882,-0.03218 -1.86821,0.2069 -1.86821,0.2069z" fill="#bebebe"/><path d="M353.54339,161.22673c0,0 -5.13658,-3.29308 -4.05566,-6.9266c1.60629,-5.39942 5.62265,-4.35908 5.62265,-4.35908l39.67665,6.85508l-1.38362,9.96502z" fill="#9c989a"/><path d="M355.49102,160.19554c0,0 -1.97917,-3.82745 -2.09353,-4.77907c-0.16952,-1.41058 2.21301,-4.06548 2.21301,-4.06548l41.19593,5.7535l-1.42611,7.36246z" fill="#898587"/><path d="M355.37425,160.37948l-0.74318,-2.06115l37.8685,5.25784l-0.26668,1.92094z" fill="#c1bcbf"/><path d="M355.72097,157.00114c0,0 -1.13256,-1.53834 -1.00366,-2.46681c0.12058,-0.86848 1.75379,-2.93593 1.75379,-2.93593l38.29926,5.31764l-0.75011,5.40272z" fill="#0d0d0d"/><path d="M355.61409,157.77107c0,0 -1.04949,-2.13635 -0.9206,-3.06482c0.12058,-0.86848 1.67071,-2.33785 1.67071,-2.33785l38.29928,5.31766l-0.75011,5.40272z" fill="#2e2e2e"/><path d="M350.57219,158.99256c-2.19197,-3.40073 -0.71653,-5.55481 -0.71653,-5.55481c0,0 1.24929,4.3252 2.34964,5.38422c1.30274,1.25375 4.69039,3.10319 4.69039,3.10319l-3.48507,-0.41302c0,0 -2.45259,-1.92108 -2.83833,-2.51956z" fill="#7d7a7c"/><path d="M358.14681,158.43537c0,0 -0.57626,-2.31322 -0.41897,-3.4459c0.13825,-0.99569 1.3129,-2.99234 1.3129,-2.99234l4.77748,0.66331c0,0 -0.75984,2.11962 -0.87918,2.97959c-0.1641,1.18198 -0.01466,3.45859 -0.01466,3.45859z" fill="#555555"/><path d="M366.68161,159.62044c0,0 1.00733,-2.4075 1.16455,-3.54009c0.13825,-0.99569 -0.27068,-2.89814 -0.27068,-2.89814l5.33221,0.74036c0,0 -0.64856,1.64145 -0.76797,2.50146c-0.1641,1.18198 -0.12592,3.93675 -0.12592,3.93675z" fill="#555555"/><path d="M375.91967,160.90306c0,0 1.00733,-2.40747 1.16459,-3.54013c0.13825,-0.99569 -0.27069,-2.89813 -0.27069,-2.89813l5.25294,0.72934c0,0 -0.64856,1.64145 -0.76797,2.50146c-0.1641,1.18198 -0.12592,3.93675 -0.12592,3.93675z" fill="#555555"/><path d="M385.49111,162.23205c0,0 1.13454,-2.03081 1.29177,-3.16353c0.13825,-0.99569 -0.39788,-3.27469 -0.39788,-3.27469l5.09446,0.70735c0,0 0.54739,2.07675 0.42793,2.93679c-0.1641,1.18198 -1.32186,3.50153 -1.32186,3.50153z" fill="#555555"/><path d="M358.68031,152.65783l-0.54881,-0.88386l35.22471,4.89078l-1.6297,0.58137c0,0 -2.80317,-0.38921 -5.24203,-0.72779c-0.53159,-0.07385 -1.49232,-0.53911 -2.28855,-0.64968c-0.76987,-0.10691 -1.36773,0.14198 -2.32472,0.00915c-1.49241,-0.20722 -3.17616,-0.441 -4.93895,-0.68573c-0.73084,-0.10147 -1.31394,-0.56965 -2.06396,-0.6738c-0.66693,-0.09258 -1.49943,0.17905 -2.16942,0.08602c-1.66291,-0.23089 -3.30942,-0.45952 -4.85753,-0.67446c-0.7109,-0.0987 -1.34068,-0.62872 -2.00211,-0.72056c-0.80742,-0.11213 -1.63236,0.21593 -2.33979,0.11768c-2.88578,-0.40063 -4.81925,-0.66911 -4.81925,-0.66911z" fill="#474747"/></g><g><path d="M203.63879,198.84761l4.07617,-2.32902c0,0 2.41096,3.17665 5.09499,4.45289c2.37392,1.12875 10.19328,2.81643 10.19328,2.81643l-3.22867,3.94778z" fill="#6d6a6b" stroke-width="0"/><path d="M194.76244,204.17773l10.1594,-6.04545c0,0 2.89368,2.67997 4.95082,3.63381c3.11213,1.44304 11.90508,4.18202 11.90508,4.18202l-4.8295,3.67811z" fill="#615e5f" stroke-width="0"/><path d="M193.72113,226.21124l1.63515,-22.56257c0,0 4.20391,1.38324 8.9753,2.07563c3.72427,0.54044 7.85013,0.25804 10.22658,1.20219c4.17205,1.65747 35.68036,18.5065 35.68036,18.5065l1.05564,10.419z" fill="#575455" stroke-width="0"/><path d="M218.8264,202.3957c7.63282,-4.55881 17.47555,-16.77331 19.07563,-19.14725c1.1527,-1.71023 2.55926,-6.84156 2.55926,-6.84156l6.69328,7.80949c0,0 2.97541,21.10647 2.40551,33.79543c-0.15945,3.55048 1.79153,7.80442 0.4149,9.09385c-1.23347,1.15524 -18.34851,1.0908 -23.58626,-0.4086c-11.02279,-3.1553 -17.1434,-1.18883 -20.12703,-6.92907c-2.98363,-5.74021 4.91197,-10.97436 4.91197,-10.97436c0,0 5.66579,-5.21112 7.65291,-6.39797z" fill="#504e4f" stroke-width="0"/><path d="M228.10069,170.54325c0,0 0.59734,-1.42414 1.53748,-1.96353c1.20908,-0.69364 5.11514,-1.85315 5.11514,-1.85315c0,0 8.9936,3.33593 11.63282,6.21626c2.43507,2.65746 -5.1999,11.97721 -5.1999,11.97721l-1.25014,-5.58635z" fill="#464445" stroke-width="0"/><path d="M244.61941,220.51737c0,0 -10.05635,4.91952 -18.48372,3.92245c-8.12992,-0.96184 -14.64724,-7.81509 -14.34562,-9.20912c0.16338,-0.75534 8.47058,-2.9389 12.49464,-6.64207c4.47314,-4.11642 4.77347,-9.83098 6.38799,-11.63662c4.50726,-5.0407 14.27182,-13.96112 14.05201,-20.09326c-0.23052,-6.43091 -10.56102,-9.95906 -10.56102,-9.95906c0,0 4.1243,-1.70061 9.08043,-1.14363c2.11114,0.23728 6.42496,2.23535 7.28648,2.74366c2.82532,1.66672 4.5721,3.56125 4.5721,3.56125c0,0 4.29479,-4.32983 7.9053,-4.14096c3.61042,0.18885 21.85199,5.69751 21.85199,5.69751l-17.7885,10.24497z" fill="#555354" stroke-width="0"/><path d="M230.19833,197.48693c0,0 6.07218,-10.13402 11.50504,-14.86673c5.43286,-4.73272 9.90993,-7.3221 13.40871,-6.83629c2.53362,0.35178 4.60575,9.33753 4.60575,9.33753l-14.92822,26.97257c0,0 -14.93315,1.23718 -16.05527,-1.42308c-0.88624,-2.10108 1.46395,-13.18393 1.46395,-13.18393z" fill="#585758" stroke-width="0"/><path d="M248.78501,227.62913c0,0 -1.99938,-6.52809 -1.2606,-9.47667c1.03207,-4.1192 4.20249,-16.45434 4.20249,-16.45434l0.50287,10.60565c0,0 -1.97489,9.56681 -2.26021,12.58612c-0.27521,2.91316 0.83607,5.2587 0.83607,5.2587z" fill="#3f3e3f" stroke-width="0"/><path d="M250.32211,209.806c0.03674,-1.68578 1.36155,-9.28669 1.36155,-9.28669c0,0 11.47082,-13.11502 13.91315,-15.45446c0.71601,-0.68583 4.27785,-1.93881 4.27785,-1.93881l-2.29817,4.58138c0,0 -1.64197,0.3818 -1.88575,0.83039c-0.25977,0.47793 0.37197,1.95462 0.37197,1.95462l-6.24631,7.69419c0,0 -1.77393,0.77399 -2.02089,1.24988c-0.24704,0.47605 0.31193,1.45036 0.31193,1.45036c0,0 -5.04738,8.32624 -6.21394,10.60218c-0.53939,1.05234 -0.50355,2.50368 -0.50355,2.50368c0,0 -1.10447,-2.50086 -1.06768,-4.18658z" fill="#474647" stroke-width="0"/><path d="M240.20448,187.23164l19.72614,11.05323c0,0 -1.31688,0.83917 -1.6259,1.3405c-0.22805,0.36994 -0.06037,1.39481 -0.06037,1.39481z" fill="#3f3e3e" stroke-width="NaN"/><path d="M247.57124,177.80221l20.23753,9.9364c0,0 -1.22039,0.68198 -1.50592,1.20399c-0.29764,0.54418 -0.08007,1.66398 -0.08007,1.66398z" fill="#3f3e3e" stroke-width="NaN"/><path d="M231.30518,204.49889c0,0 9.53283,9.09038 14.53307,15.81958c5.00017,6.72921 2.91197,7.65765 2.91197,7.65765z" fill="#636162" stroke-width="NaN"/><path d="M247.63659,183.48867c0,0 -6.34301,2.05122 -9.49199,4.73962c-3.14902,2.68838 -13.62938,17.57141 -13.22428,14.65391c0.40508,-2.91754 16.25181,-21.63721 18.02971,-21.39037c0.673,0.09345 3.83747,-0.62042 4.6155,-0.27264c1.27722,0.57095 0.07109,2.26946 0.07109,2.26946z" fill="#918f91" stroke-width="0"/><path d="M193.28703,226.02038l14.07003,0.04711c0,0 12.52194,1.40314 15.60746,1.98812c7.51423,1.42454 29.64176,6.59023 29.64176,6.59023l-1.31204,6.19954c0,0 -24.61982,0.18134 -31.26782,-2.06999c-1.92322,-0.6513 -7.59963,-2.06341 -11.629,-3.98801c-7.88527,-3.7664 -15.11038,-8.76695 -15.11038,-8.76695z" fill="#626061" stroke-width="0"/><path d="M250.3472,240.35865c0,0 0.63041,-4.24626 0.50753,-6.62566c-0.13809,-2.67433 -1.29589,-8.63912 -1.29589,-8.63912l1.76541,0.24511c0,0 1.08987,4.65087 1.21498,7.07192c0.13669,2.64707 -0.42657,8.19281 -0.42657,8.19281z" fill="#4a494a" stroke-width="0"/><path d="M250.03882,241.16016l0.55464,-3.35274c0,0 0.52498,0.34015 0.79387,0.37751c0.31952,0.04439 0.9568,-0.13437 0.9568,-0.13437l-0.26478,3.17028c0,0 -0.82525,0.29692 -1.19702,0.28592c-0.28491,-0.00843 -0.84348,-0.34654 -0.84348,-0.34654z" fill="#363536" stroke-width="0"/><path d="M249.69029,226.14733l-0.15929,-1.65827c0,0 0.46217,-0.29362 0.83525,-0.30165c0.35535,-0.00758 0.85591,0.18585 0.85591,0.18585l0.25808,1.78889c0,0 -0.54704,0.43634 -0.85366,0.43379c-0.28888,-0.00238 -0.93625,-0.44856 -0.93625,-0.44856z" fill="#585758" stroke-width="0"/><path d="M208.95616,234.17642c0,0 -7.41406,-4.01056 -7.2266,-5.36068c0.18839,-1.35676 6.52731,-1.65869 6.52731,-1.65869c0,0 10.87299,1.26658 15.75919,2.1193c2.73546,0.47738 11.06207,2.56129 11.06207,2.56129c0,0 7.07754,2.04701 7.7265,3.29989c0.70788,1.36661 -3.51036,3.6498 -3.51036,3.6498c0,0 -12.78256,-0.45625 -16.68109,-1.2077c-1.38489,-0.26699 -13.65704,-3.40314 -13.65704,-3.40314z" fill="#6b696a" stroke-width="0"/><path d="M199.62094,225.91255l-1.97479,-0.04115c0,0 1.09282,-3.31587 3.61614,-1.71143c2.52329,1.60446 21.45613,3.2121 21.45613,3.2121z" fill="#4b4949" stroke-width="0"/><path d="M193.37912,225.88773c0,0 -2.00518,-0.08499 -2.03419,-3.76671c-0.01471,-1.86365 0.21365,-16.16025 0.21365,-16.16025l4.09915,-2.35773c0,0 -0.14898,6.03054 -0.34392,8.93354c-0.25929,3.86098 -1.02035,13.47805 -1.02035,13.47805z" fill="#3f3d3e" stroke-width="0"/><path d="M199.91689,226.1211c0,0 3.45915,-1.69855 19.40927,0.17569c1.31716,0.1548 -1.77371,-0.27861 7.46694,1.51661c9.24068,1.79517 12.9037,3.83095 12.9037,3.83095c0,0 -14.77594,-3.13122 -20.91984,-3.98425c-7.00329,-0.97236 -18.86013,-1.53902 -18.86013,-1.53902z" fill="#838082" stroke-width="0"/><path d="M208.99474,197.46512c0,0 -4.6299,1.56559 -7.00647,2.86667c-2.67121,1.46238 -8.2403,5.48044 -8.2403,5.48044l-0.55679,-1.69428c0,0 4.25681,-3.29958 6.67502,-4.62349c2.6439,-1.44742 8.57176,-3.72361 8.57176,-3.72361z" fill="#4a494a" stroke-width="0"/><path d="M209.9553,197.33823l-3.75832,1.17487c0,0 0.18438,-0.62705 0.09958,-0.88507c-0.10079,-0.30666 -0.57504,-0.78438 -0.57504,-0.78438l3.3625,-1.35213c0,0 0.68105,0.58589 0.83979,0.92245c0.12169,0.25787 0.03147,0.92441 0.03147,0.92441z" fill="url(#color-3)" stroke-width="0"/><path d="M194.76483,205.16766l-3.29838,2.29801l0.15769,-2.18169l2.33711,-1.7171c0,0 0.69637,0.26844 0.83398,0.54274c0.12972,0.25841 -0.03046,1.05807 -0.03046,1.05807z" fill="url(#color-4)" stroke-width="0"/></g><path d="M326.89651,199.30777c0,0 1.52626,-4.24916 2.21585,-5.55587c0.46815,-0.88703 3.01583,-1.97869 3.01583,-1.97869l16.8877,2.12448c0,0 -2.06237,5.56701 -2.62771,6.86793c-0.24769,0.56987 -1.39878,1.1093 -1.39878,1.1093z" fill="#665b60" stroke-width="0"/><path d="M281.25503,174.53899c0,0 -3.54329,-2.06941 -8.26648,-3.88854c-3.00252,-1.15641 -7.15402,-2.30504 -9.01189,-2.45619c-5.40143,-0.43949 -8.59856,4.27047 -8.59856,4.27047c0,0 -2.92371,-2.74391 -4.89376,-3.88037c-1.839,-1.06081 -6.01305,-2.6509 -6.01305,-2.6509c0,0 25.02629,-1.66532 28.92062,-1.71034c7.46576,-0.08623 33.83966,3.97081 33.83966,3.97081l4.20015,15.0059z" fill="#8b7c84" stroke-width="0"/><g stroke-width="0"><path d="M328.46701,198.57405c0,0 0.8241,-2.5067 1.35362,-3.33655c0.549,-0.86041 2.85678,-1.60253 2.85678,-1.60253l14.39197,1.9982c0,0 0.24743,1.02674 -0.08714,1.72516c-0.45495,0.94958 -3.58296,3.28903 -3.58296,3.28903z" fill="#585852"/><path d="M328.56949,197.83578c0,0 0.72156,-1.76849 1.25115,-2.5983c0.549,-0.86041 2.9593,-2.34082 2.9593,-2.34082l14.39197,1.99821c0,0 0.14499,1.76505 -0.18965,2.46344c-0.45495,0.94958 -3.48046,2.55065 -3.48046,2.55065z" fill="#797971"/><path d="M345.35631,195.14317c-1.01445,-0.32051 -12.48927,-2.1877 -12.48927,-2.1877l14.37227,1.99551l-0.33858,2.43846c0,0 -0.53003,-1.92572 -1.5445,-2.24629z" fill="#85857b"/></g><path d="M332.38329,180.77538l0.71373,-5.1404l7.06818,0.98136l0.57139,5.31888z" fill="#7c6e75" stroke-width="0"/><path d="M325.6922,153.16932l-3.01874,-8.62841l1.36622,0.18973l4.87374,9.34191z" fill="#d495b6" stroke-width="0"/><path d="M288.10838,140.24876l13.51835,-1.24235l21.24007,5.58664l2.85206,8.5659z" fill="#df9cbe" stroke-width="0"/><path d="M331.85249,185.77748l0.22305,-1.6064l10.76276,1.49439l0.74081,1.74023z" fill="#7c6e75" stroke-width="0"/><path d="M293.33754,168.1591c0,0 -18.12614,-1.30683 -23.77413,-1.58603c-8.55234,-0.42287 -25.78021,-0.46728 -25.78021,-0.46728c0,0 15.49164,-2.33232 29.07925,-1.97638c14.73237,0.38593 58.56379,5.0003 58.56379,5.0003l-0.74391,5.3577z" fill="#75686e" stroke-width="0"/><path d="M285.27874,175.89477l-3.13389,-1.01143c0,0 10.00552,-1.01807 15.18947,0.47184c5.18392,1.48984 13.66945,7.82232 13.66945,7.82232z" fill="#7c6e76" stroke-width="0"/><path d="M239.8183,165.51396c0,0 -29.93239,-19.70009 -30.18005,-24.39895c-0.22492,-4.26828 29.21553,6.4269 29.52534,6.36066c5.42118,-1.15933 77.61335,1.58008 77.61335,1.58008l25.42217,10.38423l52.33913,6.69011l5.37187,14.45153c0,0 -61.13493,-7.30822 -84.6978,-10.41518c-8.17933,-1.07852 -24.76258,-4.03496 -40.07793,-5.01017c-11.81375,-0.75223 -29.92564,1.09101 -29.92564,1.09101z" fill="#ee96c3" stroke-width="0"/><path d="M110.18868,160.17918l6.06701,-19.50494c0,0 0.86955,-7.00108 8.36074,-8.27898c9.30425,-1.58714 25.78708,2.50361 27.83806,2.78835c1.57387,0.21856 -14.21749,8.54258 -14.21749,8.54258l-2.77168,19.96247z" fill="#c4b4b3" stroke-width="0"/><g stroke-width="0"><path d="M391.18641,180.76575l-0.74748,-15.39192l90.9451,19.45669l-1.54816,5.64768l-47.6459,-1.71166z" fill="#ad6d8e"/><path d="M419.25304,170.18882l8.34134,-7.1939l26.8131,1.57343l-5.69464,9.7109z" fill="#8d788b"/><path d="M393.86064,167.86333l2.2328,-16.08104l31.57001,11.22644l-5.47985,6.1741z" fill="#857183"/><path d="M436.33302,170.40762l18.01227,-5.84667l27.05822,7.56578l-1.23145,6.78913z" fill="#947e92"/><path d="M389.81486,166.68718l4.62179,-12.24667l1.85441,-2.83569l-2.07165,14.92071z" fill="#756474"/><path d="M392.89561,177.75778l0.94588,-12.0572l43.12903,4.32359l-3.42267,15.73585z" fill="#746373"/><path d="M433.54233,185.7437c0,0 1.24379,-6.19527 1.83182,-8.98508c0.50342,-2.38859 1.48197,-6.73767 1.48197,-6.73767l43.65504,6.97912l0.82581,8.59529z" fill="#867284"/><path d="M389.86464,166.62303l4.19984,-0.96249l-1.14018,12.10899z" fill="#6f5e6d"/><path d="M474.27159,171.02781l-19.1673,-6.05719l25.97321,7.27754l-0.84778,3.46176c0,0 -0.09478,-1.59748 -1.19467,-2.46185c-0.73577,-0.5782 -4.76348,-2.22027 -4.76348,-2.22027z" fill="#978195"/><path d="M434.76419,169.53388c0,0 8.37544,-2.3356 11.31346,-3.29477c2.14022,-0.69866 4.69232,-1.93044 4.69232,-1.93044l2.49428,0.45999l-15.87663,5.12946z" fill="#9c859a"/><path d="M420.40885,168.35674c0,0 1.68238,-2.54508 3.20557,-3.69691c1.52314,-1.15175 3.92158,-1.64179 3.92158,-1.64179l-4.68898,5.67716z" fill="#806b7d"/><path d="M456.14744,163.04866l2.90154,-5.38553l14.54214,5.78828l4.66665,7.10933z" fill="#55494f"/><path d="M453.25307,165.47376c0,0 1.18084,-0.63382 1.81632,-1.13596c0.47867,-0.3782 1.35053,-1.65503 1.35053,-1.65503l21.55161,7.0307c0,0 0.79125,0.6116 1.32711,1.01477c0.56007,0.42135 1.96364,1.46128 1.96364,1.46128z" fill="#685960"/><path d="M456.82602,162.24211l2.27338,-4.31369l13.55443,5.24074c0,0 -7.71984,-2.61927 -12.19336,-2.98329c-2.59491,-0.21117 -3.63437,2.05625 -3.63437,2.05625z" fill="#41383c"/></g><path d="M117.2145,121.49771l0.71631,-5.15881c0,0 22.30239,1.78909 44.04404,4.86532c12.95606,1.83315 26.17725,5.28185 33.08089,5.88694c15.56622,1.36425 26.55613,-1.6653 26.55613,-1.6653l-7.74408,9.67z" fill="#ffa1d1" stroke-width="0"/><path d="M112.74153,134.96812l4.3516,-15.63267c0,0 53.99224,9.57686 71.73046,11.59477c10.50735,1.19534 24.8915,-0.60272 24.8915,-0.60272l-2.01375,14.50324c0,0 -66.85964,-9.28314 -82.97741,-11.52102c-6.62702,-0.92014 -19.67971,28.28717 -19.67971,28.28717z" fill="#ee96c3" stroke-width="0"/><path d="M279.72841,235.3794l11.06168,-12.19045c0,0 12.00516,-14.34251 22.25998,-19.84725c2.60593,-1.39886 7.89091,-1.87306 7.89091,-1.87306c0,0 -7.92003,3.93327 -10.87412,6.34132c-6.97618,5.68679 -30.33833,27.56945 -30.33833,27.56945z" fill="#70646b" stroke-width="0"/><path d="M383.74187,184.35854l-3.76509,-18.69725l1.3373,0.18564c0,0 1.14026,5.6625 1.74275,8.65456c0.08585,0.42629 1.26991,1.82353 1.37628,2.35156c0.18433,0.91536 -0.69343,1.03937 -0.48743,2.06243c0.57368,2.84884 1.13343,5.6286 1.13343,5.6286z" fill="#795467" stroke-width="0"/><path d="M212.26832,145.34549c0,0 -9.48131,-7.93162 -8.28927,-11.57725c0.71375,-2.18285 18.48988,-7.74309 18.48988,-7.74309l67.62107,11.07699l-2.04689,2.84162l28.64663,9.27619l-74.76858,16.44887c0,0 -0.0118,-5.66924 3.94935,-8.00489c3.84975,-2.26993 19.49295,-5.8173 19.49295,-5.8173c0,0 -33.88551,-4.75427 -41.09527,-5.84282c-2.40535,-0.36315 -11.99994,-0.65834 -11.99994,-0.65834z" fill="#f399c8" stroke-width="0"/><g><path d="M220.42456,127.6839l0.44538,-3.20757l174.87605,24.28076l-0.44538,3.20757z" fill="#584f54" stroke-width="0"/><path d="M389.97056,148.20577l0.3763,-2.7103l3.02624,0.42016l2.29386,3.08107z" fill="#685d63" stroke-width="0"/><g fill="#685d63" stroke-width="0"><g><g><g><path d="M383.33955,147.53661l0.40943,-2.94871l3.84425,0.53373l-0.40943,2.94871z"/><path d="M377.10185,146.6706l0.40943,-2.94871l3.84426,0.53374l-0.40943,2.94871z"/></g><g><path d="M371.09953,145.83717l0.40942,-2.94872l3.84426,0.53374l-0.40943,2.94871z"/><path d="M364.86181,144.97111l0.40943,-2.94871l3.84425,0.53374l-0.40942,2.94872z"/></g></g><g><g><path d="M358.74183,144.12141l0.40942,-2.94872l3.84425,0.53374l-0.40943,2.94871z"/><path d="M352.5041,143.25533l0.40943,-2.94871l3.84425,0.53373l-0.40942,2.94872z"/></g><g><path d="M346.50177,142.4219l0.40943,-2.94871l3.84425,0.53374l-0.40943,2.94871z"/><path d="M340.26416,141.55585l0.40943,-2.94871l3.84423,0.53375l-0.40942,2.94872z"/></g></g></g><g><g><g><path d="M340.02877,141.52315l0.40943,-2.94871l3.84425,0.53374l-0.40943,2.94871z"/><path d="M333.79111,140.65709l0.40943,-2.94871l3.84426,0.53374l-0.40943,2.94871z"/></g><g><path d="M327.78881,139.8237l0.40942,-2.94872l3.84425,0.53374l-0.40943,2.94871z"/><path d="M321.55105,138.9576l0.40943,-2.94871l3.84423,0.53375l-0.40942,2.94872z"/></g></g><g><g><path d="M315.43111,138.1079l0.40942,-2.94872l3.84426,0.53374l-0.40943,2.94871z"/><path d="M309.19341,137.2418l0.40943,-2.94871l3.84426,0.53374l-0.40942,2.94872z"/></g><g><path d="M303.19112,136.40845l0.40943,-2.94871l3.84425,0.53373l-0.40942,2.94872z"/><path d="M296.9534,135.54234l0.40943,-2.94871l3.84426,0.53374l-0.40943,2.94871z"/></g></g></g></g><g><g fill="#685d63" stroke-width="0"><g><g><path d="M290.79338,134.68705l0.40942,-2.94872l3.84426,0.53374l-0.40943,2.94871z"/><path d="M284.55572,133.82096l0.40943,-2.94871l3.84426,0.53374l-0.40942,2.94872z"/></g><g><path d="M278.55337,132.98764l0.40943,-2.94871l3.84426,0.53374l-0.40942,2.94872z"/><path d="M272.31575,132.12153l0.40943,-2.94871l3.84425,0.53373l-0.40942,2.94872z"/></g></g><g><g><path d="M266.19572,131.27176l0.40942,-2.94872l3.84426,0.53374l-0.40943,2.94871z"/><path d="M259.95799,130.40566l0.40943,-2.94871l3.84426,0.53374l-0.40942,2.94872z"/></g><g><path d="M253.95565,129.57235l0.40943,-2.94871l3.84426,0.53374l-0.40942,2.94872z"/><path d="M247.71796,128.70627l0.40943,-2.94871l3.84425,0.53373l-0.40943,2.94871z"/></g></g></g><g><g fill="#685d63" stroke-width="0"><g><path d="M247.48263,128.67357l0.40942,-2.94872l3.84426,0.53374l-0.40943,2.94871z"/><path d="M241.24491,127.80747l0.40943,-2.94871l3.84425,0.53373l-0.40942,2.94872z"/></g><g><path d="M235.24262,126.97407l0.40943,-2.94871l3.84425,0.53373l-0.40942,2.94872z"/><path d="M229.00491,126.108l0.40943,-2.94871l3.84425,0.53373l-0.40943,2.94871z"/></g></g><g fill="none" stroke-width="1" font-family="sans-serif" font-weight="normal" font-size="12" text-anchor="start"><g/><g/></g></g></g><path d="M220.90662,124.73204l3.04651,-2.33957l3.02624,0.42016l-0.3763,2.7103z" data-paper-data="{&quot;index&quot;:null}" fill="#685d63" stroke-width="0"/></g><path d="M272.75413,165.13273l-2.56474,-0.08348c0,0 2.01606,-2.31224 11.67514,-2.10964c7.32302,0.15361 27.87128,1.6826 40.16718,2.63691c5.7099,0.44316 62.91282,-0.70279 62.91282,-0.70279l5.15136,0.70082c0,0 -62.5932,2.05608 -68.29573,1.59049c-12.60985,-1.02954 -33.81731,-2.72504 -39.98707,-2.99761c-3.35853,-0.14836 -9.05896,0.96538 -9.05896,0.96538z" fill="#70475c" stroke-width="0"/><path d="M370.08894,197.85739l-5.13085,1.1511l2.60426,-18.75142c0,0 7.71079,1.11949 15.25175,2.21426c21.64793,3.14289 125.68928,18.24786 125.68928,18.24786l-0.92515,6.66334z" fill="#5a5959" stroke-width="0"/><path d="M368.95858,199.34451l1.49395,-2.82746l137.15272,10.75873l-13.25561,9.47867z" fill="#4b4a4a" stroke-width="0"/><path d="M491.12112,216.11528c0,0 -5.40665,-4.00638 -8.21389,-5.83796c-1.50445,-0.98156 -7.32035,-4.2972 -7.32035,-4.2972c0,0 7.52609,3.97655 10.70855,5.37547c1.13577,0.49931 2.14658,1.38951 3.36557,2.09196c0.39308,0.22646 2.57861,-2.2557 4.69532,-3.69261c0.63266,-0.42951 1.73173,0.09113 2.29762,-0.16425c1.29726,-0.5855 1.80298,-1.61721 1.80298,-1.61721c0,0 0.20643,0.96716 -1.16788,2.00175c-0.37495,0.28231 -2.2092,0.38332 -2.58113,0.6955c-1.49055,1.25118 -2.70274,2.69732 -3.08622,3.2409c-1.07029,1.51706 0.94898,2.40481 0.94898,2.40481z" fill="#414040" stroke-width="0"/><path d="M212.17892,145.63331l5.30531,-10.46866l7.0254,0.34515c0,0 -1.30583,2.49232 -2.07539,3.96117c-0.19386,0.36994 11.75724,0.05439 12.01362,0.76743c0.47567,1.32298 -5.56051,4.2808 -6.04453,5.2046c-0.55336,1.0561 -9.22954,0.25107 -9.22954,0.25107z" fill="#303030" stroke-width="0"/><path d="M212.08765,145.24703l5.08696,-9.65582c0,0 2.79229,1.70482 2.65681,2.6804c-0.24644,1.77516 -2.60638,7.29012 -2.60638,7.29012z" fill="#252525" stroke-width="0"/><path d="M364.57489,201.63647l0.40603,-2.92431l5.87737,-2.16469l-1.63239,2.75405c0,0 -1.26366,1.17261 -2.08165,1.58327c-0.71979,0.36137 -2.56934,0.75163 -2.56934,0.75163z" fill="#383838" stroke-width="0"/><g><g fill="#4b4b4b" stroke-width="0"><g data-paper-data="{&quot;origPos&quot;:null}"><g data-paper-data="{&quot;origPos&quot;:null}"><path d="M430.88966,212.2281l0.31255,-2.25114l3.71437,0.51572l-0.31255,2.25114z" data-paper-data="{&quot;origPos&quot;:null}"/><path d="M424.71466,211.256l0.31255,-2.25114l3.71436,0.51572l-0.31256,2.25114z" data-paper-data="{&quot;origPos&quot;:null}"/></g><g data-paper-data="{&quot;origPos&quot;:null}"><path d="M443.25523,214.05977l0.31255,-2.25114l3.71437,0.51572l-0.31256,2.25114z" data-paper-data="{&quot;origPos&quot;:null}"/><path d="M437.08022,213.08765l0.31256,-2.25114l3.71436,0.51572l-0.31255,2.25114z" data-paper-data="{&quot;origPos&quot;:null}"/></g></g><g data-paper-data="{&quot;origPos&quot;:null,&quot;index&quot;:null}"><g data-paper-data="{&quot;origPos&quot;:null}"><path d="M462.30857,216.47579l0.31255,-2.25114l3.71437,0.51572l-0.31256,2.25114z" data-paper-data="{&quot;origPos&quot;:null}"/><path d="M468.51479,217.22272l0.31254,-2.25113l3.71437,0.51572l-0.31254,2.25112z" data-paper-data="{&quot;origPos&quot;:null}"/></g><g data-paper-data="{&quot;origPos&quot;:null}"><path d="M449.91175,214.86924l0.31255,-2.25114l3.71436,0.51572l-0.31254,2.25113z" data-paper-data="{&quot;origPos&quot;:null}"/><path d="M456.11797,215.61626l0.31256,-2.25114l3.71437,0.51572l-0.31256,2.25114z" data-paper-data="{&quot;origPos&quot;:null}"/></g></g></g><path d="M389.70771,198.18593l1.87188,-13.48182l83.67138,11.61736l-1.87188,13.48182z" data-paper-data="{&quot;origPos&quot;:null}" fill="#444444" stroke-width="0"/><path d="M389.15588,202.87685l0.65773,-4.737l83.42543,11.58321l-0.65775,4.73701z" data-paper-data="{&quot;origPos&quot;:null}" fill="#414141" stroke-width="0"/><path d="M388.9945,204.29235l0.22247,-1.60228l83.41484,11.58173l-0.22246,1.60227z" data-paper-data="{&quot;origPos&quot;:null}" fill="#3f3f3f" stroke-width="0"/><g stroke-width="0"><g data-paper-data="{&quot;origPos&quot;:null}" fill="#5a5a5a"><g data-paper-data="{&quot;origPos&quot;:null}"><path d="M432.55733,204.21557l1.89098,-13.61934l3.53745,0.49116l-1.89098,13.61934z" data-paper-data="{&quot;origPos&quot;:null}"/></g><g data-paper-data="{&quot;origPos&quot;:null}"><path d="M438.57108,205.05056l1.89098,-13.61934l3.53747,0.49117l-1.89098,13.61934z" data-paper-data="{&quot;origPos&quot;:null}"/><path d="M444.76169,205.9101l1.89099,-13.61936l3.53745,0.49116l-1.89098,13.61934z" data-paper-data="{&quot;origPos&quot;:null}"/></g></g><g data-paper-data="{&quot;origPos&quot;:null}" fill="#5a5a5a"><g data-paper-data="{&quot;origPos&quot;:null}"><path d="M451.30605,206.81876l1.89098,-13.61934l3.53745,0.49116l-1.89098,13.61935z" data-paper-data="{&quot;origPos&quot;:null}"/><path d="M457.49666,207.6783l1.89098,-13.61934l3.53747,0.49117l-1.89099,13.61936z" data-paper-data="{&quot;origPos&quot;:null}"/></g><g data-paper-data="{&quot;origPos&quot;:null}"><path d="M463.51038,208.51325l1.89099,-13.61936l3.53745,0.49116l-1.89099,13.61936z" data-paper-data="{&quot;origPos&quot;:null}"/><path d="M469.70102,209.3728l1.89099,-13.61936l3.53745,0.49116l-1.89098,13.61934z" data-paper-data="{&quot;origPos&quot;:null}"/></g></g><path d="M436.15558,204.71519l-1.13602,1.79177l-5.19749,-0.67814l1.20925,-9.72256l3.35867,-5.51822l-1.8227,13.62886z" fill="#3a3a3a"/><path d="M442.16689,205.54982l-1.13602,1.79178l-5.1975,-0.67814l1.20926,-9.72258l3.35867,-5.5182l-1.82269,13.62885z" fill="#3a3a3a"/><path d="M448.31481,206.40346l-1.13602,1.79178l-5.1975,-0.67813l1.20925,-9.72256l3.35867,-5.5182l-1.8227,13.62886z" fill="#3a3a3a"/><path d="M454.94091,207.32344l-1.13602,1.79178l-5.1975,-0.67813l1.20925,-9.72256l3.35867,-5.5182l-1.8227,13.62886z" fill="#3a3a3a"/><path d="M461.15718,208.18656l-1.13602,1.79178l-5.1975,-0.67813l1.20925,-9.72256l3.35867,-5.5182l-1.82269,13.62885z" fill="#3a3a3a"/><path d="M467.10014,209.01166l-1.13602,1.79177l-5.19749,-0.67814l1.20925,-9.72256l3.35867,-5.5182l-1.8227,13.62886z" fill="#3a3a3a"/><path d="M473.32421,209.87584l-1.13602,1.79177l-5.1975,-0.67813l1.20926,-9.72258l3.35867,-5.51822l-1.8227,13.62886z" fill="#3a3a3a"/></g><g stroke-width="0"><g data-paper-data="{&quot;origPos&quot;:null}" fill="#5a5a5a"><g data-paper-data="{&quot;origPos&quot;:null}"><path d="M389.73902,198.27045l1.89099,-13.61936l3.53747,0.49117l-1.89098,13.61934z" data-paper-data="{&quot;origPos&quot;:null}"/></g><g data-paper-data="{&quot;origPos&quot;:null}"><path d="M395.75271,199.10549l1.89098,-13.61934l3.53745,0.49116l-1.89098,13.61934z" data-paper-data="{&quot;origPos&quot;:null}"/><path d="M401.94336,199.965l1.89098,-13.61934l3.53747,0.49117l-1.89099,13.61936z" data-paper-data="{&quot;origPos&quot;:null}"/></g></g><g data-paper-data="{&quot;origPos&quot;:null}" fill="#5a5a5a"><g data-paper-data="{&quot;origPos&quot;:null}"><path d="M408.48772,200.8736l1.89099,-13.61936l3.53746,0.49117l-1.89098,13.61934z" data-paper-data="{&quot;origPos&quot;:null}"/><path d="M414.67839,201.73316l1.89098,-13.61934l3.53747,0.49117l-1.89099,13.61936z" data-paper-data="{&quot;origPos&quot;:null}"/></g><g data-paper-data="{&quot;origPos&quot;:null}"><path d="M420.69216,202.56814l1.89098,-13.61934l3.53747,0.49117l-1.89099,13.61936z" data-paper-data="{&quot;origPos&quot;:null}"/><path d="M426.88278,203.42773l1.89099,-13.61936l3.53747,0.49117l-1.89098,13.61935z" data-paper-data="{&quot;origPos&quot;:null}"/></g></g><path d="M393.33721,198.77007l-1.13602,1.79178l-2.70976,-0.33276l0.25751,-1.95732z" fill="#3a3a3a"/><path d="M399.3486,199.60473l-1.13602,1.79178l-5.1975,-0.67813l1.20926,-9.72258l3.35867,-5.5182l-1.8227,13.62886z" fill="#3a3a3a"/><path d="M405.49645,200.45829l-1.13602,1.79177l-5.1975,-0.67813l1.20925,-9.72256l3.35867,-5.51822l-1.8227,13.62886z" fill="#3a3a3a"/><path d="M412.12254,201.37826l-1.13602,1.79177l-5.1975,-0.67813l1.20926,-9.72258l3.35867,-5.5182l-1.8227,13.62886z" fill="#3a3a3a"/><path d="M418.33886,202.24142l-1.13602,1.79177l-5.19749,-0.67814l1.20925,-9.72256l3.35867,-5.5182l-1.8227,13.62886z" fill="#3a3a3a"/><path d="M424.2818,203.06657l-1.13602,1.79177l-5.19749,-0.67814l1.20925,-9.72256l3.35867,-5.51822l-1.8227,13.62886z" fill="#3a3a3a"/><path d="M430.50592,203.9308l-1.13602,1.79178l-5.19749,-0.67814l1.20925,-9.72256l3.35867,-5.5182l-1.8227,13.62886z" fill="#3a3a3a"/></g><g><g data-paper-data="{&quot;origPos&quot;:null}"><g data-paper-data="{&quot;origPos&quot;:null}" fill="none" stroke-width="1" font-family="sans-serif" font-weight="normal" font-size="12" text-anchor="start"/><g data-paper-data="{&quot;origPos&quot;:null}" fill="#4b4b4b" stroke-width="0"><path d="M394.97197,207.43352l0.31255,-2.25114l3.71436,0.51572l-0.31254,2.25113z" data-paper-data="{&quot;origPos&quot;:null}"/><path d="M388.79695,206.46146l0.31255,-2.25114l3.71436,0.51572l-0.31255,2.25114z" data-paper-data="{&quot;origPos&quot;:null}"/></g></g><g data-paper-data="{&quot;origPos&quot;:null,&quot;index&quot;:null}" fill="#4b4b4b" stroke-width="0"><g data-paper-data="{&quot;origPos&quot;:null}"><path d="M414.02534,209.84948l0.31256,-2.25114l3.71437,0.51572l-0.31256,2.25114z" data-paper-data="{&quot;origPos&quot;:null}"/><path d="M420.23154,210.59648l0.31254,-2.25112l3.71437,0.51572l-0.31256,2.25114z" data-paper-data="{&quot;origPos&quot;:null}"/></g><g data-paper-data="{&quot;origPos&quot;:null}"><path d="M401.62833,208.24299l0.31255,-2.25114l3.71437,0.51572l-0.31256,2.25114z" data-paper-data="{&quot;origPos&quot;:null}"/><path d="M407.83464,208.98992l0.31255,-2.25114l3.71437,0.51572l-0.31255,2.25114z" data-paper-data="{&quot;origPos&quot;:null}"/></g></g></g></g><path d="M224.95771,145.79834l1.60945,-4.03209c0,0 5.00008,-2.48347 8.51832,-2.14639c4.02203,0.3853 33.70273,4.53154 33.70273,4.53154c0,0 0.39775,1.94895 0.17798,3.14731c-0.28322,1.54396 -2.80064,4.28842 -2.80064,4.28842z" fill="#242424" stroke-width="0"/><path d="M250.13105,145.44694l0.43324,-3.12038l17.83074,2.47568l-0.43324,3.12038z" fill="#313131" stroke-width="0"/><path d="M246.60306,146.90628l0.08968,-0.64607c0,0 1.20225,-0.89431 2.21565,-0.75361c0.96226,0.13363 3.06413,0.90492 5.47028,1.40394c4.58363,0.9506 10.14462,1.82536 10.14462,1.82536l-0.08968,0.64607c0,0 -5.37641,-0.7485 -9.89565,-1.68969c-2.46584,-0.51355 -4.63427,-1.38903 -5.63248,-1.5276c-1.04924,-0.14567 -2.30237,0.74155 -2.30237,0.74155z" fill="#616161" stroke-width="0"/><path d="M275.63903,135.07615l12.1564,4.7435l29.82736,9.50041c0,0 0.69537,0.32293 -7.22613,-1.51222c-2.69475,-0.62425 -13.01073,-3.68107 -21.88423,-6.83416c-2.40103,-0.85319 -15.13524,-6.09513 -15.13524,-6.09513z" fill="#df8cb7" stroke-width="0"/><path d="M95.40095,116.44801l0.81596,-5.87672c0,0 5.95637,-0.94274 9.72404,-0.41962c3.08445,0.42824 11.00415,5.06749 11.00415,5.06749l-1.82109,12.13562z" fill="#626061" stroke-width="0"/><path d="M208.98446,142.30009l3.41559,3.00431l12.31274,0.37367l50.26278,6.97879l-0.14999,1.08065c0,0 -37.68449,-5.37895 -49.51094,-6.75625c-3.24692,-0.37814 -12.95329,-0.99808 -12.95329,-0.99808z" fill="#ffa6d4" stroke-width="0"/><path d="M83.75385,179.37447l0.986,-7.10145l25.49214,-13.25032l-3.47183,13.318l-15.13305,8.127z" fill="#3f3d3e" stroke-width="0"/><path d="M82.83516,174.13817c0,0 2.88845,-19.43932 5.00442,-28.8208c2.3882,-10.58843 8.60721,-31.52824 8.60721,-31.52824c0,0 8.55877,0.99719 11.8804,3.11997c2.84291,1.81682 6.83785,8.84236 6.83785,8.84236l-4.6142,33.23275c0,0 -13.62797,11.93735 -16.95463,13.75626c-5.11695,2.79778 -10.76101,1.39771 -10.76101,1.39771z" fill="#555354" stroke-width="0"/><path d="M94.8399,124.26615c0,0 -0.70133,-6.14776 1.7161,-8.53521c2.41744,-2.38747 6.86553,-2.79653 9.40151,-2.44442c2.02303,0.2809 6.19872,0.94012 8.43158,5.75147c2.23294,4.8113 -0.58573,11.15399 -0.58573,11.15399c0,0 -4.80914,-11.17122 -7.28273,-11.94419c-3.49047,-1.09069 -11.68071,6.0184 -11.68071,6.0184z" fill="#6f6b6c" stroke-width="0"/><path d="M80.72591,178.76393c0,0 5.28256,-25.57909 6.85634,-36.91419c1.639,-11.80455 4.27606,-32.35559 4.27606,-32.35559c0,0 1.23362,-0.47785 2.26458,-0.33467c0.94264,0.13087 2.40623,0.9832 2.40623,0.9832c0,0 -2.84668,18.94375 -4.3174,29.53694c-1.70886,12.3074 -8.0886,39.5559 -8.0886,39.5559z" fill="#333232" stroke-width="0"/><path d="M80.23822,179.14411l3.10656,-14.41801c0,0 0.92293,1.02554 1.52194,1.06971c0.7564,0.05577 2.6152,-1.13751 2.6152,-1.13751l-3.3123,15.03166z" fill="#2e2d2d" stroke-width="0"/><path d="M110.74225,146.77175c-1.12288,8.08703 -6.39993,16.10546 -11.12634,18.40472c-3.92539,1.90966 -12.28218,7.57202 -11.15931,-0.51499c0.2382,-1.71561 3.89659,-13.20099 4.9906,-20.14637c1.44678,-9.18511 0.50171,-14.34503 1.83982,-17.01803c2.41963,-4.83318 8.09386,-5.53903 10.28736,-5.23447c4.3238,0.60034 6.29075,16.42214 5.16788,24.50919z" fill="#585758" stroke-width="0"/><path d="M142.93974,165.46033l-0.34754,-1.8057c0,0 8.05002,-0.24581 14.07739,0.10226c8.48519,0.49001 32.03154,2.5605 32.03154,2.5605l1.6027,1.51602c0,0 -25.09489,-1.84838 -33.83142,-2.28613c-2.56579,-0.12856 -13.53263,-0.08698 -13.53263,-0.08698z" fill="#585657" stroke-width="0"/><path d="M135.28999,177.72536l7.02336,-12.84755l7.30421,0.05436c0,0 -2.31477,4.03347 -2.33319,4.79335c-0.08784,3.63075 -0.41552,27.78219 -0.41552,27.78219c0,0 -1.52399,0.23303 -2.44416,-1.78828c-1.65102,-3.62681 -2.52537,-10.67603 -3.97163,-12.99968c-1.24957,-2.00761 -5.16317,-4.99436 -5.16317,-4.99436z" fill="#5a5759" stroke-width="0"/><path d="M151.93671,148.93712l4.4201,-10.82829l2.32642,0.2108l-5.5512,10.89569z" fill="#a5a0a2" stroke-width="0"/><path d="M158.8109,148.79768l0.19293,-1.38939l26.24448,3.6439l-0.19292,1.38939z" fill="#494748" stroke-width="0"/><path d="M159.1397,145.84353l0.19293,-1.38939l26.24448,3.6439l-0.19293,1.38939z" fill="#494748" stroke-width="0"/><path d="M136.80928,165.36572l2.76953,-19.94698l13.45348,-7.84059l4.84144,0.35749l-22.00909,40.16836l-5.28241,-2.75603z" fill="#dbd5d8" stroke-width="0"/><path d="M108.92394,173.52271l1.46515,-11.70053l26.50983,2.8837c0,0 -0.02187,2.55905 -0.26063,3.33208c-0.59512,1.92694 -3.5375,8.52277 -3.5375,8.52277z" fill="#ccc6c9" stroke-width="0"/><path d="M114.24426,162.76174l0.04343,-0.31281l22.71961,2.27774l-2.74355,0.81474c0,0 -4.30617,-0.40992 -6.98478,-0.81388c-3.66773,-0.55315 -13.03479,-1.96576 -13.03479,-1.96576z" fill="#d8d1d5" stroke-width="0"/><path d="M118.24024,159.54389l2.33796,-16.83843l15.97179,2.21761l-2.33796,16.83843z" fill="#a39999" stroke-width="0"/><path d="M108.62669,173.65284l1.56221,-11.2514c0,0 7.8746,7.54129 11.79863,10.44914c3.92404,2.90792 10.402,3.52466 10.402,3.52466z" fill="#b4afb1" stroke-width="0"/><path d="M141.11921,184.2649c0,0 2.85756,1.44723 3.96304,1.45563c0.67911,0.00512 2.03895,-1.41023 2.03895,-1.41023l0.39494,9.21507l-0.57692,4.15528c0,0 -1.9674,0.04126 -2.87917,-2.69272c-0.75226,-2.2557 -2.94092,-10.72298 -2.94092,-10.72298z" fill="#504e4f" stroke-width="0"/><path d="M135.51506,178.31826l20.06495,-39.35808l1.69884,0.44299l-20.01981,39.77859z" fill="#858183" stroke-width="0"/><path d="M124.44378,135.63408l1.72732,-1.42653c0,0 27.24367,3.13256 39.53606,4.83932c10.66895,1.48137 31.59287,4.74289 31.59287,4.74289l0.25748,1.99576c0,0 -20.99788,-3.62824 -32.24356,-5.18959c-12.84122,-1.78291 -40.87013,-4.96186 -40.87013,-4.96186z" fill="#918b8e" stroke-width="0"/><path d="M125.62166,134.55509l2.27163,-1.6446c0,0 25.6909,3.21069 37.98326,4.91739c10.66896,1.48139 31.59287,4.74289 31.59287,4.74289l0.25748,1.99577c0,0 -20.99787,-3.62823 -32.24356,-5.1896c-12.84122,-1.78291 -39.86165,-4.82191 -39.86165,-4.82191z" fill="#a59fa2" stroke-width="0"/><path d="M186.75778,164.02899l-1.12572,-5.89344c0,0 0.37537,-1.16445 0.72062,-1.23042c0.30423,-0.05815 1.24376,0.85517 1.24376,0.85517l1.12571,5.89345c0,0 -0.39422,0.83127 -0.69916,0.88956c-0.34497,0.06588 -1.26532,-0.51431 -1.26532,-0.51431z" fill="#494242" stroke-width="0"/><path d="M146.50163,161.11366l4.8137,-8.90833l3.84877,0.5344l-4.8137,8.90833z" fill="#9c989a" stroke-width="0"/><path d="M158.42265,144.82219l1.96624,-0.70424l24.20413,3.37884l1.86824,1.21841z" fill="#757274" stroke-width="0"/><path d="M158.12946,147.61969l1.96622,-0.70426l24.20413,3.37886l1.86825,1.2184z" fill="#757274" stroke-width="0"/><path d="M106.3642,172.34628l9.6889,-57.37036l1.8222,0.83927l-9.20379,57.84274z" fill="#686666" stroke-width="0"/><path d="M106.16522,172.59154l2.88396,-16.01127l1.74418,4.09726l-2.26267,13.12359z" fill="#535252" stroke-width="0"/><path d="M139.76483,154.1626c0,0 2.42642,-2.03103 2.55664,-2.96885c0.12777,-0.92028 -1.78257,-2.60639 -1.78257,-2.60639c0,0 2.88144,1.07618 2.54601,2.73413c-0.2555,1.26285 -1.5971,3.28658 -1.83526,4.36645c-0.67721,3.07048 -2.3697,10.25336 -2.3697,10.25336z" fill="#c4bec1" stroke-width="0"/><path d="M147.63077,153.32474l3.29556,-9.83567l3.12344,-3.96234l-3.94433,9.10224z" fill="#aca7a9" stroke-width="0"/></g></g><g stroke-width="0"><path d="M268.39522,141.99484l2.98851,-2.94621c0,0 1.98777,-1.17409 2.7671,-0.78827c0.88854,0.43992 2.27947,3.28679 2.27947,3.28679l-1.0982,3.96864c0,0 -4.23952,-0.59629 -5.47542,-0.90242c-0.55717,-0.13805 -1.46145,-2.61855 -1.46145,-2.61855z" fill="#c0c0c0"/><path d="M224.55686,145.65183c0,0 0.22131,-2.87688 1.42697,-3.85927c1.511,-1.23115 7.83736,-2.58617 7.83736,-2.58617l-1.35529,4.59433l-0.40176,2.89348z" fill="#838383"/><path d="M224.39652,145.55449l9.05659,-6.29561l37.20543,5.16578l-1.0289,7.4102z" fill="#999999"/><path d="M225.47631,145.04165l6.90449,-4.93851l33.45137,4.64458l-0.80324,5.78561c0,0 -4.04876,-0.5621 -9.25701,-1.28523c-3.38619,-0.47019 -7.11648,-2.06028 -10.68884,-2.5563c-3.8323,-0.53209 -7.46091,0.03627 -9.61346,-0.26259c-4.21272,-0.58492 -9.99336,-1.38756 -9.99336,-1.38756z" fill="#d952b3"/><path d="M228.93567,145.51975l9.10118,-4.69621l12.34568,1.71412c0,0 -7.56832,0.87483 -10.0416,1.45476c-2.62576,0.61561 -6.09767,2.26429 -6.09767,2.26429z" fill="#a5899d"/><path d="M236.8644,146.5068c0,0 5.17052,-0.26353 7.60427,0.07438c3.10974,0.43176 9.52824,2.30442 9.52824,2.30442l-9.51622,-1.65967z" fill="#adadad"/><path d="M224.50263,145.55083l8.17868,-5.68085l34.63444,4.80883l-0.09467,0.68207c0,0 -29.98914,-4.16385 -33.89821,-4.70664c-0.81763,-0.11351 -8.82009,4.89661 -8.82009,4.89661z" fill="#8a8a8a"/><path d="M270.36416,158.21414l1.34167,-9.66259l1.63502,-7.04398c0,0 1.11129,0.62871 1.58241,1.26303c0.47116,0.6343 0.69581,1.80419 0.69581,1.80419l-3.26103,13.91628z" fill="#9e9e9e"/><path d="M265.5462,153.27383c0,0 -0.61087,-2.23011 -0.52774,-3.82294c0.11195,-2.14492 1.71826,-7.49299 1.71826,-7.49299l1.96773,-0.05528c0,0 0.64275,0.88862 1.13661,0.80662c0.68084,-0.11307 2.57087,-1.42229 2.57087,-1.42229l-2.26058,12.62638z" fill="#9c9c9c"/><path d="M265.86292,155.16603c-0.62304,-1.20152 -0.19608,-2.52855 -0.19608,-2.52855l5.82158,-6.46116c0,0 0.84629,4.03851 0.72025,4.94625c-0.35835,2.58079 -0.01459,7.42375 -0.01459,7.42375c0,0 -2.96328,-0.32691 -3.93195,-0.90421c-1.16179,-0.69246 -1.77602,-1.27459 -2.39913,-2.47616z" fill="#888888"/><path d="M267.7332,154.64408c-0.70385,-2.11663 -1.09096,-6.67627 1.29473,-10.45083c2.38573,-3.7746 4.48402,-1.3316 4.48402,-1.3316c0,0 0.38867,4.5194 0.07059,6.81029c-0.28972,2.08684 -1.90198,6.38004 -1.90198,6.38004c0,0 -3.24347,0.70875 -3.94731,-1.40789z" fill="#b4b4b4"/><path d="M272.91373,147.59425c-0.19405,1.39766 -5.26607,0.77155 -5.07208,-0.62606c0.19405,-1.39766 3.96668,-6.32787 4.77135,-6.21612c0.31165,0.04328 0.93538,0.23268 0.98413,1.31036c0.07709,1.70484 -0.56459,4.6755 -0.68348,5.53183z" fill="#bbbbbb"/></g><g stroke-width="0"><path d="M208.89112,142.2718c0,0 -5.12462,-5.67603 -4.86702,-7.53167c0.21038,-1.51512 6.20615,-0.80694 6.20615,-0.80694l7.46365,1.10883l-5.46828,10.12313z" fill="#f399c8"/><path d="M178.42926,139.69976c0,0 -0.67236,-2.21129 -0.27001,-3.23848c0.444,-1.13353 2.98051,-4.42085 2.98051,-4.42085l22.84478,2.9845l7.85356,9.79632z" fill="#ee96c3"/></g></g><g stroke-width="0"><g><path d="M275.72302,133.29399l0.85012,-6.12301l47.36384,6.57623l-0.85012,6.12301z" fill="#61585b"/><path d="M276.00741,130.05885l0.45529,-3.27891l47.5439,6.60124l-0.45527,3.27892c0,0 -8.55879,-1.18837 -17.35078,-2.40908c-2.74887,-0.38164 -6.82222,0.58454 -9.36224,0.23183c-3.02042,-0.41939 -6.0511,-2.37195 -7.98853,-2.64099c-5.80957,-0.80665 -12.84232,-1.78315 -12.84232,-1.78315z" fill="#494344"/><path d="M338.15562,132.01928l-6.64089,-20.03665l20.72047,2.87694l12.97503,18.73677c0,0 -5.84312,0.56315 -9.07997,0.37449c-4.99475,-0.29117 -17.97467,-1.95152 -17.97467,-1.95152z" fill="#5e555b"/><path d="M337.68535,135.42203l0.7617,-5.48587c0,0 12.38144,0.25203 17.33436,0.15261c3.93071,-0.07891 6.78979,-0.26953 6.78979,-0.26953l4.92869,7.68963c0,0 -5.50122,0.84761 -9.67076,0.71689c-5.64947,-0.17715 -20.14369,-2.80373 -20.14369,-2.80373z" fill="url(#color-5)"/><path d="M329.81415,111.90686l0.54955,-3.95819l18.96954,2.63385l3.05227,4.4583z" fill="url(#color-6)"/><path d="M337.10363,135.36644l0.17322,-1.2473c0,0 15.47189,2.07104 20.83026,2.64589c4.0067,0.42983 8.60207,-0.52413 8.60207,-0.52413l0.72303,1.25613l-8.42747,0.91018z" fill="#312c30"/><g><path d="M238.50182,110.97371l0.99397,-8.80533l93.03285,12.91717l6.01641,12.2254z" fill="#8a6672"/><path d="M253.74444,121.45524c0,0 -2.99018,-4.05559 -5.56723,-5.88895c-2.57703,-1.83343 -9.60383,-2.56935 -9.60383,-2.56935l0.39814,-2.05182c0,0 12.16819,1.96853 19.1176,3.02959c16.60128,2.53463 80.05938,12.11242 80.05938,12.11242l2.68563,7.00285z" fill="#755761"/><path d="M256.22325,124.3142l-2.64025,-2.98323l86.82142,11.56067l0.77029,3.21761z" fill="#694e57"/><path d="M239.27809,102.53808l0.62285,-4.48596l90.03678,11.81531l3.03453,6.13685c0,0 2.26994,3.68525 -2.96264,2.93319c-1.64724,-0.23676 -10.21817,-4.82758 -11.86955,-5.06492c-15.90352,-2.28571 -78.86199,-11.33451 -78.86199,-11.33451z" fill="#916b77"/><path d="M240.14051,98.0855l0.22947,-2.51685l89.07357,12.22739l0.70624,2.51329z" fill="#9e7582"/><path d="M313.46792,108.95715c-7.90207,-1.75129 -71.80949,-11.66678 -71.80949,-11.66678l87.01925,12.08217l3.73181,8.03072c0,0 -11.03952,-6.69483 -18.94161,-8.44616z" fill="#b38f9a"/></g><path d="M286.80214,128.55707l1.26166,-9.08663l20.02017,2.77971l-1.26167,9.08664z" fill="#3a3336"/><path d="M287.97623,119.46249l0.91904,-1.40954l18.36229,2.54949l0.76641,1.64347z" fill="#4b4246"/><path d="M287.00965,128.08174l1.12464,-8.09993c0,0 0.32487,5.36147 2.80538,6.82276c2.48056,1.4613 15.53066,3.97913 15.53066,3.97913z" fill="#332c30"/><path d="M330.75218,114.28223l-3.05756,-6.48209c0,0 1.1049,-0.51967 1.69978,-0.43705c0.66506,0.09236 2.10367,0.96512 2.10367,0.96512l3.05756,6.48209z" fill="#757575"/><path d="M333.09276,119.3872l-4.39633,-9.3053l3.80351,0.5281l4.39632,9.3053z" fill="#5a5a5a"/><path d="M336.41045,126.35871l-4.39632,-9.3053l3.80351,0.52811l4.39633,9.3053z" fill="#505050"/><path d="M339.83914,133.57856c-0.75088,-1.58933 -3.6807,-7.79064 -3.6807,-7.79064l3.80351,0.52812l5.13087,11.13797c0,0 -2.10989,0.24768 -3.04831,0.10244c-0.73202,-0.11331 -1.87421,-3.27714 -2.20529,-3.97791z" fill="#3b3b3b"/><path d="M236.61701,113.33506l2.56831,-18.4973l3.15079,0.4375l-2.56831,18.4973z" fill="#443e42"/><path d="M217.70035,112.32291l0.13601,-5.966l20.03637,2.78195l-0.81525,5.87168z" fill="url(#color-7)"/><path d="M217.74967,106.98153l1.49174,-10.74393l20.03637,2.78195l-1.49175,10.74394z" fill="#5e555b"/><path d="M219.22405,96.36272l1.36479,-4.01264l19.24393,2.6719l-0.57243,4.12263z" fill="url(#color-8)"/><path d="M289.40195,102.10356l0.84348,-6.075l14.73282,3.12243l3.93041,5.30203z" fill="#5e555b"/><path d="M308.8597,104.8052l-3.89376,-5.56616c0,0 2.89252,1.09883 4.96234,2.39409c2.06977,1.29525 5.35863,4.06445 5.35863,4.06445z" fill="#776b73"/><path d="M286.24945,102.83247l3.34077,-0.79253l25.39347,3.25653l3.40197,1.99798z" fill="#6d6269"/></g><g><path d="M288.78094,124.82365c0.17174,-1.23698 0.83627,-2.31251 1.36281,-3.27884c0.73366,-1.3466 1.49382,-2.44025 2.89162,-3.10041c0.8538,-0.4033 2.03385,-0.63253 3.04644,-0.73465c0.66976,-0.06751 1.71442,-0.32642 2.41078,-0.22968c1.57856,0.21915 1.90635,0.34723 2.97695,0.99666c0.64493,0.39123 2.20703,1.06149 2.64447,1.80084c0.37026,0.62573 0.71103,1.63072 0.95608,2.35082c0.41865,1.23073 0.95705,3.1879 0.76608,4.56334c-0.0807,0.58125 -0.75206,1.83933 -0.87217,2.34309c-0.38119,1.59926 -0.45204,2.10388 -1.80577,3.02997c-0.8228,0.56287 -2.39104,0.89826 -3.42187,1.169c-1.06756,0.28047 -2.45036,0.96283 -3.61187,0.80155c-0.78402,-0.10888 -2.12495,-0.83514 -2.86567,-1.07552c-1.60716,-0.52146 -2.46672,-0.8169 -3.32965,-2.08785c-0.73997,-1.08986 -0.77834,-2.70883 -0.95239,-4.10364c-0.09141,-0.73275 -0.30225,-1.67842 -0.19591,-2.4447z" fill="#3a3a3a"/><path d="M289.52133,124.80665c0.15721,-1.13198 0.76533,-2.11615 1.24712,-3.0004c0.67135,-1.23223 1.36691,-2.23301 2.6461,-2.8372c0.78132,-0.36905 1.86126,-0.57888 2.78782,-0.67225c0.6129,-0.06177 1.56889,-0.29864 2.20604,-0.21019c1.44458,0.20056 1.74455,0.31773 2.72423,0.91197c0.59012,0.35799 2.01961,0.9714 2.41998,1.6479c0.3388,0.57263 0.65075,1.49229 0.87487,2.15125c0.38312,1.12625 0.87578,2.91723 0.70106,4.17585c-0.07391,0.53192 -0.68822,1.68318 -0.79808,2.14411c-0.34887,1.46342 -0.41364,1.92525 -1.6524,2.7727c-0.75288,0.51511 -2.18803,0.82189 -3.13131,1.06973c-0.9769,0.25666 -2.24232,0.88106 -3.30523,0.73351c-0.71743,-0.09959 -1.94449,-0.76423 -2.6224,-0.98415c-1.4707,-0.47721 -2.2573,-0.74755 -3.04698,-1.91057c-0.67715,-0.99732 -0.71222,-2.47886 -0.87151,-3.75522c-0.08365,-0.67057 -0.27659,-1.5359 -0.17922,-2.2371z" fill="#5a5a5a"/><path d="M302.22033,121.99706c-1.69742,-2.6443 -6.71493,-3.54349 -6.71493,-3.54349c0,0 1.99807,-0.26777 3.9684,0.01278c1.59602,0.22727 3.10333,0.80451 4.07293,2.25259c0.97038,1.4493 1.15632,2.97406 1.24854,4.39571c0.18074,2.78732 -0.58204,5.09719 -0.58204,5.09719c0,0 -0.2955,-5.57043 -1.99292,-8.21474z" fill="#6d6d6d"/><path d="M296.25386,126.23563c0.07915,-0.57029 0.60556,-0.96834 1.17584,-0.88913c0.57029,0.07915 0.96834,0.60556 0.88913,1.17585c-0.07915,0.57029 -0.60556,0.96834 -1.17585,0.88913c-0.57029,-0.07915 -0.96834,-0.60556 -0.88913,-1.17585z" fill="#272727"/><path d="M296.15674,126.36028c0.07263,-0.52303 0.55547,-0.88814 1.07848,-0.81554c0.52303,0.07263 0.88814,0.55547 0.81554,1.07848c-0.07263,0.52303 -0.55547,0.88814 -1.07847,0.81556c-0.52303,-0.07263 -0.88814,-0.55547 -0.81556,-1.07847z" fill="#131313"/></g></g></g></g></g><path d="M193.02126,222.98259c0.2179,-1.56961 1.86208,-44.3762 2.58312,-45.96734c0.97352,-2.14832 9.18833,0.35588 12.33166,-0.72994c9.62703,-3.32552 19.97763,-6.51953 19.97763,-6.51953c0,0 13.85483,2.50968 18.05107,3.09236c3.13806,0.43575 65.04184,0.45901 64.35673,10.78443c-0.92929,14.0052 -42.43184,-3.58802 -44.10017,8.42734c-0.42237,3.04175 1.9376,3.56675 0.94446,6.60631c-0.23839,0.72948 -3.27999,5.53577 -3.73269,7.165c-0.71868,2.58629 1.99474,7.00398 -1.71017,9.6185c-2.95333,2.0842 -1.72975,7.31908 -2.52956,8.43531c-5.51207,7.69198 -13.23859,2.77828 -22.1658,1.53877c-10.58457,-1.46961 -26.49891,0.07983 -35.62319,-2.43623c-3.93857,-1.0861 -9.01743,4.55388 -8.38304,-0.01504z" fill="#86c8f5" stroke-width="0"/></g></g></svg>