<svg version="1.1" xmlns="http://www.w3.org/2000/svg" xmlns:xlink="http://www.w3.org/1999/xlink" width="466.75947" height="156.23795" viewBox="0,0,466.75947,156.23795"><defs><linearGradient x1="504.57041" y1="188.71977" x2="505.09865" y2="193.50231" gradientUnits="userSpaceOnUse" id="color-1"><stop offset="0" stop-color="#1f1d20"/><stop offset="1" stop-color="#202022"/></linearGradient><linearGradient x1="504.47439" y1="183.84578" x2="505.08213" y2="189.34858" gradientUnits="userSpaceOnUse" id="color-2"><stop offset="0" stop-color="#302d31"/><stop offset="1" stop-color="#1f1e20"/></linearGradient><linearGradient x1="176.99016" y1="268.37654" x2="177.36228" y2="271.74613" gradientUnits="userSpaceOnUse" id="color-3"><stop offset="0" stop-color="#585758"/><stop offset="1" stop-color="#575758"/></linearGradient><linearGradient x1="165.06255" y1="279.83362" x2="165.3547" y2="282.47892" gradientUnits="userSpaceOnUse" id="color-4"><stop offset="0" stop-color="#363536"/><stop offset="1" stop-color="#353536"/></linearGradient><linearGradient x1="297.37521" y1="171.85475" x2="297.98323" y2="177.35978" gradientUnits="userSpaceOnUse" id="color-5"><stop offset="0" stop-color="#5e555b"/><stop offset="1" stop-color="#2b2629"/></linearGradient><linearGradient x1="285.4079" y1="152.38389" x2="285.84657" y2="156.35589" gradientUnits="userSpaceOnUse" id="color-6"><stop offset="0" stop-color="#72676e"/><stop offset="1" stop-color="#5e555b"/></linearGradient><linearGradient x1="174.65957" y1="178.59854" x2="175.31034" y2="184.49074" gradientUnits="userSpaceOnUse" id="color-7"><stop offset="0" stop-color="#5e555b"/><stop offset="1" stop-color="#4d454a"/></linearGradient><linearGradient x1="173.09505" y1="164.4324" x2="173.55198" y2="168.56953" gradientUnits="userSpaceOnUse" id="color-8"><stop offset="0" stop-color="#74686f"/><stop offset="1" stop-color="#5e555b"/></linearGradient></defs><g transform="translate(-43.25142,-151.33637)"><g data-paper-data="{&quot;isPaintingLayer&quot;:true}" fill-rule="nonzero" stroke="none" stroke-linecap="butt" stroke-linejoin="miter" stroke-miterlimit="10" stroke-dasharray="" stroke-dashoffset="0" style="mix-blend-mode: normal"><g><g stroke-width="0"><path d="M236.36117,246.73672l-11.85291,-14.1295l25.35607,-3.39414c0,0 -0.45195,5.9142 -0.35444,8.61831c0.09436,2.61583 0.93047,7.35037 0.93047,7.35037z" fill="#7f7d7e"/><path d="M236.48052,246.92157l-4.23312,-5.17349c0,0 2.73454,3.27468 6.01862,3.53042c2.36485,0.18415 4.20557,-0.33099 6.90606,-0.30646c2.70045,0.02451 5.19214,0.41622 5.19214,0.41622z" fill="#6c6a6b"/></g><g><g><g><path d="M502.12562,193.83069l-2.57475,-4.5565c0,0 6.13726,0.99011 8.81692,1.59243c2.67969,0.60236 1.27526,1.90048 1.27526,1.90048z" fill="url(#color-1)" stroke-width="0"/><path d="M508.05921,183.65074c0,0 1.72622,2.15133 -0.75742,3.32391c-2.48363,1.17262 -5.2349,2.70693 -5.2349,2.70693l-1.57258,-5.39619z" data-paper-data="{&quot;index&quot;:null}" fill="url(#color-2)" stroke-width="0"/><path d="M492.56539,194.88188l-0.23036,-2.08571l14.68329,-1.62166c0,0 1.33721,0.65145 1.86228,0.96197c0.47199,0.27915 -0.62781,1.01286 -0.62781,1.01286z" fill="#444444" stroke-width="NaN"/><path d="M492.38429,192.93514l-1.37599,-1.6126l12.53941,-1.3849l3.55377,1.25957c0,0 -4.16626,0.69961 -6.45524,0.96986c-2.58149,0.30481 -8.26196,0.768 -8.26196,0.768z" fill="#535353" stroke-width="0"/><path d="M490.91181,191.47069l-0.39306,-0.60047l11.40446,-1.25958l1.733,0.33752z" fill="#363636" stroke-width="0"/><path d="M492.56539,194.88188l-0.12495,-1.13148c0,0 6.46439,-0.25758 9.32675,-0.57373c2.42561,-0.26785 6.75512,-1.20244 6.75512,-1.20244c0,0 0.90963,0.36457 1.17776,0.5391c0.22619,0.14721 -0.19522,0.49769 -0.19522,0.49769c0,0 -4.65976,0.9216 -6.95951,1.17556c-3.10269,0.34266 -9.98003,0.69526 -9.98003,0.69526z" fill="#3a3a3a" stroke-width="NaN"/><path d="M490.83975,190.85316l-0.64714,-0.8176l13.55918,-1.49751l-1.70986,1.11203z" fill="#242424" stroke-width="0"/><path d="M489.41019,190.31235l-0.18157,-1.64432c0,0 8.02181,-1.09342 10.99944,-1.42227c2.02868,-0.22406 5.13896,-0.36012 5.13896,-0.36012l-1.63918,1.67945z" fill="#3a3a3a" stroke-width="0"/><path d="M489.10445,188.72451l-0.22422,-2.03019c0,0 7.57083,-1.16802 10.86507,-1.53189c2.85064,-0.31484 7.76275,-0.52545 7.76275,-0.52545l-2.17933,2.29567c0,0 -3.64185,0.31924 -5.87276,0.56567c-2.96533,0.32751 -10.35153,1.22622 -10.35153,1.22622z" fill="#444444" stroke-width="0"/><path d="M488.84668,186.78361l-0.0934,-0.84592c0,0 7.81267,-0.98731 11.38817,-1.38219c2.48967,-0.27498 8.01227,-0.76045 8.01227,-0.76045l-0.76638,0.9409c0,0 -5.05512,0.26785 -8.00242,0.59337c-3.24718,0.35862 -10.53819,1.45431 -10.53819,1.45431z" fill="#535353" stroke-width="0"/><path d="M488.63385,186.03652l-0.03737,-0.33838c0,0 7.57423,-1.34667 11.0137,-1.72649c2.9737,-0.32842 8.42959,-0.42088 8.42959,-0.42088l0.07472,0.33427c0,0 -5.99067,0.49567 -9.21607,0.85187c-3.26758,0.36089 -10.26452,1.29963 -10.26452,1.29963z" fill="#4e4e4e" stroke-width="0"/></g><g stroke-width="0"><g><g><g><path d="M486.69342,195.03943l-5.99916,-12.58109l0.36071,-1.77164c0,0 3.80828,2.82824 4.99849,5.20231c0.64615,1.28887 2.08573,8.99078 2.08573,8.99078z" fill="#383638"/><path d="M487.66236,194.23684c0,0 -0.0089,-0.6124 -0.90319,-2.98343c-0.97525,-2.58569 -2.7586,-6.04794 -3.26724,-7.07223c-1.14182,-2.29927 -1.90647,-2.34612 -1.90647,-2.34612l4.70714,-1.10525l6.42992,12.94818z" fill="#555355"/><path d="M481.6584,181.91287l-0.71404,-1.16503c0,0 1.92015,-1.01697 2.87597,-1.1225c0.89563,-0.09892 2.10388,0.49935 2.10388,0.49935l0.72198,1.23728z" fill="#686668"/></g><path d="M481.05499,195.66215l-5.99916,-12.58108l0.03409,-1.71533c0,0 4.13492,2.77192 5.32506,5.14594c0.64616,1.28886 2.08574,8.99078 2.08574,8.99078z" fill="#383638"/><path d="M482.02388,194.85953c0,0 -0.00889,-0.61241 -0.90319,-2.98343c-0.97525,-2.58569 -2.7586,-6.04794 -3.26724,-7.07223c-1.14182,-2.29927 -1.90647,-2.34612 -1.90647,-2.34612l3.90678,-1.51988c0,0 1.1576,1.134 1.50563,1.8348c0.99156,1.99671 5.72471,11.52794 5.72471,11.52794z" fill="#555355"/><path d="M476.01993,182.53552l-0.93089,-1.14109c0,0 2.13704,-1.04087 3.09286,-1.14645c0.89563,-0.09892 1.81473,0.53129 1.81473,0.53129l0.84629,1.22361z" fill="#686668"/><path d="M488.36667,193.15925c-0.08997,-0.81457 0.49748,-1.54782 1.31201,-1.63777c0.81458,-0.08998 1.54782,0.49748 1.63777,1.31201c0.08997,0.81457 -0.49748,1.54782 -1.312,1.63777c-0.81458,0.08998 -1.54782,-0.49748 -1.63777,-1.31201z" fill="#312f31"/><path d="M488.69675,190.17571l-2.59618,-5.29351l1.56603,-0.31715l2.60328,5.35768z" fill="#444144"/></g><path d="M441.41498,195.04347l-4.93009,-10.34483l29.83088,-2.11098l0.59125,9.64042z" fill="#444444"/><path d="M453.54964,189.76401c0,0 0.57483,-0.5886 1.17148,-1.76613c0.54553,-1.0766 1.10052,-2.72542 1.43192,-3.22856c0.78203,-1.80323 3.19747,-1.60033 3.19747,-1.60033l-0.90197,0.75664l-3.76294,5.71295z" fill="#292929"/><path d="M457.48788,199.92249l-7.67933,-10.18998c0,0 3.53591,0.14399 5.11409,-1.08573c1.22636,-0.95565 0.84382,-3.56136 2.38087,-4.01376c4.40972,-1.29781 17.15884,-3.14239 17.15884,-3.14239c0,0 4.00492,6.7461 5.24346,9.5139c0.85504,1.91082 1.7506,6.27086 1.7506,6.27086z" fill="#4a464a"/><path d="M460.16104,186.43899c-4.60306,-0.13154 -3.32068,-1.64541 -3.32068,-1.64541c0,0 0.64496,-1.38137 2.48497,-1.73163c4.51529,-0.85952 13.16947,-1.23493 14.87847,-1.44945c0.80596,-0.1012 0.42082,0.65354 0.42082,0.65354c0,0 -1.21845,2.53504 -2.73179,2.95776c-1.51342,0.42273 -7.12874,1.34674 -11.73184,1.2152z" fill="#5e595e"/></g><g><path d="M446.47711,207.75387l-7.099,-17.26052l18.82495,-1.79101l5.24562,3.77532l6.05153,-0.76749l4.42294,13.01247z" fill="#4d4846"/><path d="M451.18185,207.6237l19.50044,-11.60231l22.16016,-2.69131c0,0 1.76324,4.01361 2.05404,5.34427c0.14826,0.67845 0.16915,2.94335 0.16915,2.94335z" fill="#423d3b"/><path d="M446.47876,199.7816l-4.24109,-9.43761l0.81554,-0.09005l4.24109,9.43761z" fill="#363332"/><path d="M451.67588,206.76266l-0.13361,-1.21003c0,0 4.95321,-3.10797 13.96331,-4.10307c1.19712,-0.13221 5.69919,1.93148 6.90581,1.79825c7.65555,-0.8455 15.14888,-1.67309 17.9996,-1.98792c2.32167,-0.25639 4.54975,-1.81039 4.54975,-1.81039l0.27635,2.50217z" fill="#312e2c"/><path d="M452.63285,193.83933l-2.23973,-4.39605l8.25747,-0.91199l4.61528,3.93848l6.28972,-0.49939l-7.32996,2.77011z" fill="#585350"/><path d="M443.97425,201.86391l-0.12384,-1.12136c0,0 7.5863,-4.60419 10.44608,-4.92006c4.31019,-0.47602 16.20913,-1.79018 16.20913,-1.79018l0.12384,1.12136c0,0 -12.10296,1.33667 -16.41303,1.81275c-2.8011,0.30932 -10.24221,4.89754 -10.24221,4.89754z" fill="#2b2827"/></g></g></g><g><g><g><path d="M116.04667,280.99452c0.78278,2.16107 0.75947,4.76896 -0.29592,5.15123c-1.0554,0.38227 -2.74331,-1.60574 -3.5261,-3.76692c-0.78278,-2.16107 -3.84492,-10.44543 -2.78947,-10.82771c1.0554,-0.38227 5.82878,7.28222 6.61153,9.44338z" fill="#615e5f" stroke-width="0"/><g><path d="M154.10229,246.68061c-0.59398,-0.46521 -3.06456,-1.5127 -3.06456,-1.5127l9.54388,-3.95158l-5.17335,7.81511c0,0 -0.71196,-1.88559 -1.306,-2.35086z" fill="#756a6a" stroke-width="0"/><path d="M144.94398,245.98452l-1.50758,-13.65033l17.77727,-7.8657l2.15164,19.48158z" fill="#8a7c7c" stroke-width="0"/><path d="M105.74806,255.79362l4.63577,-18.75556l34.70759,-3.96733l5.89641,12.09246c0,0 -22.67797,4.09024 -30.22467,5.86359c-3.13274,0.73612 -15.01515,4.7669 -15.01515,4.7669z" fill="#7c787a" stroke-width="0"/><path d="M110.76547,239.41532l-0.30986,-1.45628c0,0 25.76753,-2.84589 33.8681,-3.74052c4.5323,-0.50058 15.35124,-8.10451 15.35124,-8.10451l0.17891,1.61981c0,0 -10.52864,7.55248 -14.91359,8.02207c-8.04035,0.86097 -34.1748,3.65951 -34.1748,3.65951z" fill="#535353" stroke-width="0"/><path d="M73.94013,260.01875l-2.2124,-20.03221c0,0 3.72937,-7.5089 10.67774,-10.58623c8.63013,-3.82216 25.6128,-3.9018 27.67099,-4.12912c1.57938,-0.17444 -11.68609,11.77066 -11.68609,11.77066l2.2124,20.03221z" fill="#8d898b" stroke-width="0"/><path d="M240.77696,195.16943l1.24779,-3.30119l106.93074,-11.66605l1.61879,14.65714c0,0 -37.34971,5.98175 -49.54236,6.9097c-6.0552,0.46085 -60.25501,-6.59964 -60.25501,-6.59964z" fill="#c98cac" stroke-width="0"/><path d="M230.33117,297.93733l-5.9363,-12.35946c0,0 5.74806,5.24016 8.69669,5.99789c1.87869,0.48277 6.12115,0.39834 11.92747,-2.69523c4.67425,-2.49035 9.20675,-8.53529 9.20675,-8.53529l-9.97555,16.05477z" fill="#a08e97" stroke-width="0"/><path d="M315.12375,241.37129l-4.91685,-23.222l18.28129,-3.43032l2.32693,21.06893c0,0 -6.17002,2.41102 -8.84174,3.40863c-1.2302,0.45933 -6.84956,2.17481 -6.84956,2.17481z" fill="#96858d" stroke-width="0"/><path d="M228.91581,301.86219l-0.60819,-5.50667c0,0 12.21741,0.7318 16.46637,-2.87777c2.06784,-1.75666 16.51988,-24.41258 24.47036,-36.99334c3.10266,-4.90966 5.21526,-8.28488 5.21526,-8.28488c0,0 2.9248,-4.11919 2.61242,-6.98441c-0.15717,-1.44133 -0.14878,-5.6464 -1.22899,-7.85248c-1.08989,-2.22584 -3.26787,-2.44637 -3.26787,-2.44637l-6.3326,-12.95543l19.71203,-2.0325l0.0253,26.73211l4.01669,2.13383c0,0 -8.83863,7.01276 -12.89553,12.44666c-6.34761,8.50201 -26.26005,41.27084 -26.26005,41.27084z" fill="#918189" stroke-width="0"/><path d="M292.12243,244.26652l-1.93375,-28.56424l13.72266,-1.23813l11.61856,10.79198l-0.43549,16.47332z" fill="#96858d" stroke-width="0"/><path d="M287.82818,246.60116l-2.94918,-3.84527l0.64253,-26.42008l5.03988,-0.64183l2.4666,28.4881z" fill="#8f8187" stroke-width="0"/><path d="M313.87892,241.96785c0,0 2.00324,-6.92883 0.06473,-12.15845c-1.11622,-3.01119 -6.21364,-4.42991 -6.89789,-6.27589c-1.30706,-3.52629 -3.32923,-8.98144 -3.32923,-8.98144l8.28668,3.4753c0,0 4.17749,6.79621 5.23935,10.96638c0.71349,2.8017 -0.06131,9.30205 -0.69701,11.98694c-0.05359,0.22634 -1.2318,0.27266 -1.26497,0.44267c-0.08104,0.41525 0.90276,0.53936 0.90276,0.53936z" fill="#86787e" stroke-width="0"/><path d="M311.95453,219.54179c0,0 -3.50629,-3.59172 -8.26717,-4.04345c-5.38984,-0.5114 -22.41975,1.13189 -22.41975,1.13189l155.22726,-31.41178l4.41594,8.87065l9.09319,10.20613c0,0 -100.46503,8.50857 -120.92891,10.76869c-6.67768,0.73749 -17.12058,4.47793 -17.12058,4.47793z" fill="#df8db7" stroke-width="0"/><path d="M163.85906,283.46566l-8.75055,-35.52393c0,0 1.26133,-3.91279 1.73579,-4.18215c5.23117,-2.97004 35.90486,-17.07436 41.34267,-17.38688c5.95685,-0.34242 -7.76062,13.17371 -7.76062,13.17371c0,0 -14.10033,3.59552 -16.15617,8.09831c-2.7912,6.11346 3.93188,22.82998 3.93188,22.82998z" fill="#c77da3" stroke-width="0"/><path d="M232.55628,245.76767l-2.00977,-1.89609c0,0 5.57454,-9.27459 7.74176,-11.82059c2.23737,-2.6285 5.4787,-3.71097 5.4787,-3.71097l6.15236,1.63669c0,0 -4.50419,-0.00814 -6.66527,1.95719c-1.8552,1.68723 -5.24666,5.15918 -7.69046,8.5402c-1.77771,2.45944 -3.00726,5.29351 -3.00726,5.29351z" fill="#414041" stroke-width="0"/><path d="M110.33318,238.4104l3.48778,-12.14581l48.33456,-5.33823c0,0 -2.39195,4.74675 -5.27687,7.04347c-2.83144,2.25419 -11.87521,6.61144 -11.87521,6.61144z" fill="#979395" stroke-width="0"/><path d="M111.00285,237.18665l2.69255,-12.05797l48.33456,-5.33823c0,0 -2.39195,4.74675 -5.27687,7.04347c-2.83144,2.25419 -11.87521,6.61144 -11.87521,6.61144z" fill="#bdb7ba" stroke-width="0"/><path d="M316.30773,242.02232l-1.91796,-0.30479l16.28877,-5.99914c0,0 -3.31299,2.43581 -5.69446,3.50058c-2.38144,1.0648 -8.67634,2.80336 -8.67634,2.80336z" fill="#887980" stroke-width="0"/><path d="M166.38075,283.65446c0,0 -3.47489,-10.14534 -5.6061,-18.50031c-2.14156,-8.39573 -4.12469,-16.27238 -4.54019,-19.83302c-0.07035,-0.60323 0.47761,-10.65482 0.91712,-11.2279c2.37237,-3.09356 10.9175,3.75338 16.32682,2.04569c8.00943,-2.52852 26.94603,-5.13713 26.94603,-5.13713l-7.81963,6.20662c0,0 -19.01753,4.98288 -20.8308,10.35161c-2.45259,7.26178 7.36372,27.17728 7.36372,27.17728z" fill="#d486ae" stroke-width="0"/><path d="M167.11917,280.03272c0,0 -11.10758,-39.89332 -10.89491,-50.05512c0.09948,-4.75458 -4.23484,-13.43907 -4.23484,-13.43907l51.126,1.36452l3.17941,15.81656c0,0 -32.18818,0.44295 -37.81153,7.37615c-3.75378,4.62811 6.11459,31.95303 6.11459,31.95303z" fill="#e490bb" stroke-width="0"/><g stroke-width="0"><path d="M297.79136,202.22413l-0.9084,-8.22486l9.3034,-1.02749l0.9084,8.22486z" fill="#454545"/><path d="M298.53474,201.3725l-1.15573,-7.21483l11.25776,-1.24335l0.80114,7.25399z" fill="#b0b0b0"/><path d="M297.81281,196.93591l-0.5379,-2.78811l11.47307,-1.26712l0.20941,1.89587c0,0 -7.71041,1.17598 -9.38427,1.50031c-0.55933,0.10835 -1.76029,0.65907 -1.76029,0.65907z" fill="#bebebe"/><path d="M309.62944,199.59431c0,0 -5.78771,-1.9317 -5.63159,-5.71939c0.232,-5.62849 4.38077,-5.60573 4.38077,-5.60573l40.14556,-3.09236l1.10442,9.99979z" fill="#9c989a"/><path d="M311.26439,198.11665c0,0 -2.85803,-3.22468 -3.20245,-4.11911c-0.51056,-1.32583 1.14755,-4.48426 1.14755,-4.48426l41.34801,-4.53308l0.42449,7.48729z" fill="#898587"/><path d="M311.19634,198.32361l-1.22632,-1.81571l38.0007,-4.19691l0.21291,1.92765z" fill="#c1bcbf"/><path d="M310.70333,194.96351c0,0 -1.47545,-1.21334 -1.57834,-2.14503c-0.09629,-0.87153 0.97958,-3.27657 0.97958,-3.27657l38.43299,-4.24464l0.59872,5.42158z" fill="#0d0d0d"/><path d="M310.78866,195.73614c0,0 -1.5417,-1.81346 -1.64461,-2.74515c-0.09629,-0.87153 1.04584,-2.67645 1.04584,-2.67645l38.433,-4.24464l0.59872,5.42158z" fill="#2e2e2e"/><path d="M306.20074,198.15769c-2.95958,-2.75877 -2.05793,-5.20907 -2.05793,-5.20907c0,0 2.27261,3.88635 3.59918,4.64292c1.57061,0.89568 5.30855,1.85715 5.30855,1.85715l-3.47988,0.45492c0,0 -2.84907,-1.26038 -3.36986,-1.74588z" fill="#7d7a7c"/><path d="M313.40697,195.75849c0,0 -1.12633,-2.10109 -1.25188,-3.23772c-0.11037,-0.99917 0.53829,-3.22301 0.53829,-3.22301l4.79416,-0.52946c0,0 -0.21639,2.24128 -0.12105,3.10426c0.13099,1.18608 0.83462,3.35644 0.83462,3.35644z" fill="#555555"/><path d="M321.97161,194.81268c0,0 0.38565,-2.58106 0.26008,-3.7177c-0.11037,-0.99917 -0.97363,-2.74302 -0.97363,-2.74302l5.35079,-0.59096c0,0 -0.22588,1.75042 -0.13059,2.61343c0.13099,1.18608 0.84412,3.84729 0.84412,3.84729z" fill="#555555"/><path d="M331.2419,193.78878c0,0 0.38566,-2.58106 0.2601,-3.71769c-0.11037,-0.99917 -0.97363,-2.74301 -0.97363,-2.74301l5.27129,-0.5822c0,0 -0.22588,1.75042 -0.13059,2.61343c0.13099,1.18608 0.84412,3.84729 0.84412,3.84729z" fill="#555555"/><path d="M340.84678,192.72798c0,0 0.60141,-2.24712 0.47584,-3.38381c-0.11037,-0.99917 -1.18939,-3.07688 -1.18939,-3.07688l5.11227,-0.56461c0,0 1.0403,1.8789 1.13563,2.74193c0.13099,1.18608 -0.42204,3.71882 -0.42204,3.71882z" fill="#555555"/><path d="M312.50616,190.02678l-0.74893,-0.72215l35.34767,-3.90392l-1.43716,0.96358c0,0 -2.81298,0.31066 -5.26027,0.58097c-0.53345,0.05888 -1.57898,-0.15634 -2.37803,-0.06816c-0.77257,0.08534 -1.29101,0.47335 -2.25138,0.57941c-1.49758,0.16537 -3.18727,0.35203 -4.95616,0.54737c-0.73336,0.081 -1.41358,-0.22976 -2.16619,-0.14665c-0.66919,0.07394 -1.40961,0.54153 -2.08197,0.61583c-1.66871,0.18431 -3.32101,0.36676 -4.87448,0.53836c-0.71336,0.07879 -1.454,-0.28042 -2.11771,-0.20713c-0.81027,0.08947 -1.5294,0.60995 -2.23936,0.68835c-2.89588,0.31981 -4.83604,0.53413 -4.83604,0.53413z" fill="#474747"/></g><g><path d="M173.54282,272.85531l3.37984,-3.25818c0,0 3.11685,2.48777 6.03203,3.06621c2.57831,0.51163 10.57276,0.22861 10.57276,0.22861l-2.16102,4.61945z" fill="#6d6a6b" stroke-width="0"/><path d="M166.24614,280.20083l8.36498,-8.35394c0,0 3.4629,1.88779 5.69123,2.30762c3.37115,0.6351 12.56737,1.1323 12.56737,1.1323l-3.77904,4.75088z" fill="#615e5f" stroke-width="0"/><path d="M170.64432,301.81604l-3.95236,-22.27382c0,0 4.41485,0.30917 9.21027,-0.19065c3.74299,-0.39016 7.67329,-1.67649 10.20885,-1.34446c4.4513,0.58284 39.1311,9.18355 39.1311,9.18355l3.58045,9.84125z" fill="#575455" stroke-width="0"/><path d="M189.13676,272.56737c6.28047,-6.29269 12.82448,-20.54928 13.79294,-23.24329c0.69769,-1.9408 0.80186,-7.26043 0.80186,-7.26043l8.40525,5.92796c0,0 8.0645,19.7307 10.62627,32.17144c0.71679,3.48106 3.65218,7.12605 2.63406,8.7139c-0.91219,1.42264 -17.51965,5.56064 -22.96522,5.39262c-11.46005,-0.3535 -16.91085,3.05499 -21.21207,-1.7774c-4.30121,-4.83236 2.06832,-11.84423 2.06832,-11.84423c0,0 4.21352,-6.4423 5.84858,-8.08053z" fill="#504e4f" stroke-width="0"/><path d="M190.30994,239.41298c0,0 0.22954,-1.52722 1.00855,-2.28078c1.00184,-0.96919 4.5039,-3.05186 4.5039,-3.05186c0,0 9.5373,1.02661 12.80272,3.17112c3.0128,1.97856 -2.10133,12.8871 -2.10133,12.8871l-2.58295,-5.1087z" fill="#464445" stroke-width="0"/><path d="M218.58843,283.80447c0,0 -8.54144,7.23713 -16.95571,8.33892c-8.1173,1.06291 -16.11727,-3.98126 -16.16705,-5.4066c-0.02697,-0.77227 7.49026,-4.92791 10.48235,-9.50546c3.32602,-5.0884 2.21465,-10.70186 3.33664,-12.84843c3.13229,-5.99277 10.40886,-17.0368 8.69079,-22.92743c-1.80176,-6.17762 -12.68222,-7.06243 -12.68222,-7.06243c0,0 3.58075,-2.66085 8.52202,-3.33722c2.10484,-0.28812 6.77704,0.59015 7.737,0.87144c3.148,0.92237 5.30628,2.33017 5.30628,2.33017c0,0 3.1008,-5.25146 6.6472,-5.95447c3.54637,-0.70298 22.58195,0.16019 22.58195,0.16019l-14.73003,14.2974z" fill="#555354" stroke-width="0"/><path d="M198.95611,265.01774c0,0 3.39932,-11.31431 7.5045,-17.23568c4.10515,-5.92131 7.80977,-9.53032 11.32078,-9.91809c2.54249,-0.2808 6.7566,7.92159 6.7566,7.92159l-7.85183,29.81134c0,0 -14.1728,4.86434 -15.91343,2.56084c-1.37475,-1.8193 -1.81653,-13.14 -1.81653,-13.14z" fill="#585758" stroke-width="0"/><path d="M224.37203,289.67646c0,0 -3.54041,-5.83769 -3.54786,-8.87748c-0.01044,-4.24652 0.0356,-16.98249 0.0356,-16.98249l3.09042,10.15785c0,0 0.43342,9.75891 0.89794,12.7559c0.44817,2.8916 2.10116,4.89265 2.10116,4.89265z" fill="#3f3e3f" stroke-width="0"/><path d="M221.48785,272.02116c-0.37809,-1.6432 -0.95929,-9.33684 -0.95929,-9.33684c0,0 7.90119,-15.52919 9.69471,-18.39647c0.52575,-0.84055 3.67116,-2.92943 3.67116,-2.92943l-1.10344,5.00531c0,0 -1.49801,0.77308 -1.6243,1.26778c-0.13451,0.52706 0.8403,1.80352 0.8403,1.80352l-4.16694,8.99189c0,0 -1.52974,1.18567 -1.65232,1.70767c-0.12264,0.5221 0.65833,1.32945 0.65833,1.32945c0,0 -2.84954,9.31033 -3.42183,11.80303c-0.26461,1.15254 0.12629,2.55066 0.12629,2.55066c0,0 -1.68447,-2.15328 -2.06254,-3.79651z" fill="#474647" stroke-width="0"/><path d="M206.13929,252.62037l21.83561,5.8738c0,0 -1.07061,1.13669 -1.24722,1.6985c-0.13031,0.41458 0.28376,1.36695 0.28376,1.36695z" fill="#3f3e3e" stroke-width="NaN"/><path d="M210.96653,241.67134l22.05722,4.66568c0,0 -1.01571,0.96059 -1.16438,1.53677c-0.15495,0.60062 0.33078,1.63272 0.33078,1.63272z" fill="#3f3e3e" stroke-width="NaN"/><path d="M201.75001,271.54364c0,0 11.47231,6.47276 17.97113,11.76892c6.49877,5.29621 4.70231,6.70879 4.70231,6.70879z" fill="#636162" stroke-width="NaN"/><path d="M212.42552,247.16782c0,0 -5.64559,3.54524 -8.03845,6.92424c-2.39287,3.37902 -8.90001,20.37901 -9.22333,17.45127c-0.32334,-2.92774 10.44442,-24.96405 12.22847,-25.16109c0.67538,-0.07459 3.56789,-1.54326 4.4074,-1.39704c1.37826,0.23999 0.62592,2.18258 0.62592,2.18258z" fill="#918f91" stroke-width="0"/><path d="M170.17662,301.73745l13.65126,-3.40748c0,0 12.4833,-1.713 15.61806,-1.90319c7.63404,-0.46323 30.35256,-0.88625 30.35256,-0.88625l0.24963,6.33194c0,0 -23.82232,6.21816 -30.8195,5.66731c-2.02428,-0.15936 -7.87366,-0.13516 -12.2521,-1.012c-8.56843,-1.71591 -16.79989,-4.79034 -16.79989,-4.79034z" fill="#626061" stroke-width="0"/><path d="M229.01066,301.63314c0,0 -0.43101,-4.27114 -1.13409,-6.54755c-0.79023,-2.55863 -3.37654,-8.05682 -3.37654,-8.05682l1.77155,-0.19565c0,0 2.19807,4.24115 2.91345,6.55745c0.78217,2.53252 1.5972,8.0469 1.5972,8.0469z" fill="#4a494a" stroke-width="0"/><path d="M228.90836,302.48586l-0.28522,-3.38634c0,0 0.59236,0.20091 0.86225,0.1711c0.32065,-0.03541 0.89455,-0.3651 0.89455,-0.3651l0.52141,3.1383c0,0 -0.72712,0.49042 -1.09026,0.57092c-0.27825,0.06175 -0.90271,-0.1289 -0.90271,-0.1289z" fill="#363536" stroke-width="0"/><path d="M224.88595,288.01774l-0.56142,-1.5685c0,0 0.37596,-0.39805 0.7357,-0.49743c0.34261,-0.09459 0.87532,-0.02995 0.87532,-0.02995l0.68919,1.67086c0,0 -0.42323,0.55726 -0.72111,0.63007c-0.28068,0.06859 -1.01771,-0.20508 -1.01771,-0.20508z" fill="#585758" stroke-width="0"/><path d="M187.36823,305.79844c0,0 -8.17158,-2.06827 -8.32121,-3.42308c-0.15036,-1.36154 5.92062,-3.20995 5.92062,-3.20995c0,0 10.85131,-1.44066 15.79732,-1.81328c2.76896,-0.20856 11.35234,-0.23201 11.35234,-0.23201c0,0 7.36347,0.24738 8.3001,1.30268c1.0216,1.15109 -2.50722,4.39975 -2.50722,4.39975c0,0 -12.50358,2.69492 -16.4673,2.9232c-1.40803,0.08109 -14.07454,0.05279 -14.07454,0.05279z" fill="#6b696a" stroke-width="0"/><path d="M176.29032,300.07844l-1.92446,0.44476c0,0 0.2456,-3.48268 3.08551,-2.5466c2.83996,0.93613 21.58823,-2.15206 21.58823,-2.15206z" fill="#4b4949" stroke-width="0"/><path d="M170.23336,301.58631c0,0 -1.96467,0.40974 -2.89641,-3.15225c-0.47163,-1.80306 -3.75903,-15.71842 -3.75903,-15.71842l3.39512,-3.29168c0,0 1.33563,5.8827 1.85917,8.74475c0.69626,3.80653 2.31877,13.3163 2.31877,13.3163z" fill="#3f3d3e" stroke-width="0"/><path d="M176.62843,300.20809c0,0 2.93647,-2.49556 18.85881,-4.59324c1.31491,-0.1732 -1.78782,0.1652 7.61078,-0.36234c9.39863,-0.52763 13.44928,0.54688 13.44928,0.54688c0,0 -15.09252,0.59097 -21.25785,1.27192c-7.02774,0.77614 -18.66101,3.13687 -18.66101,3.13687z" fill="#838082" stroke-width="0"/><path d="M178.39568,270.20053c0,0 -4.10402,2.65398 -6.08862,4.49854c-2.23061,2.07324 -6.64318,7.33521 -6.64318,7.33521l-0.95552,-1.50583c0,0 3.31681,-4.24344 5.33613,-6.12034c2.20781,-2.05204 7.39571,-5.71347 7.39571,-5.71347z" fill="#4a494a" stroke-width="0"/><path d="M179.29571,269.84182l-3.35505,2.06133c0,0 0.02485,-0.6531 -0.12075,-0.88248c-0.17297,-0.27256 -0.74996,-0.61933 -0.74996,-0.61933l2.92782,-2.13603c0,0 0.80399,0.40082 1.04049,0.68807c0.18123,0.22013 0.25736,0.88839 0.25736,0.88839z" fill="url(#color-3)" stroke-width="0"/><path d="M166.49139,281.15991l-2.63348,3.03725l-0.3826,-2.15364l1.84424,-2.23818c0,0 0.7409,0.08931 0.94166,0.32136c0.18913,0.21867 0.23011,1.03321 0.23011,1.03321z" fill="url(#color-4)" stroke-width="0"/></g><path d="M293.14369,243.05054c0,0 0.43674,-4.49374 0.78454,-5.92972c0.23605,-0.97478 2.43796,-2.6583 2.43796,-2.6583l16.89263,-2.08519c0,0 -0.633,5.90289 -0.86178,7.30279c-0.10025,0.61322 -1.08375,1.41867 -1.08375,1.41867z" fill="#665b60" stroke-width="0"/><path d="M242.81918,230.24102c0,0 -3.94278,-1.13648 -8.96798,-1.74072c-3.1945,-0.38414 -7.50095,-0.47873 -9.33911,-0.16928c-5.3441,0.8996 -7.28748,6.25016 -7.28748,6.25016c0,0 -3.50771,-1.94244 -5.69642,-2.56062c-2.04309,-0.57703 -6.47974,-1.09404 -6.47974,-1.09404c0,0 23.85212,-7.75653 27.61635,-8.7559c7.21627,-1.9159 33.77919,-4.4558 33.77919,-4.4558l7.75453,13.51616z" fill="#8b7c84" stroke-width="0"/><g stroke-width="0"><path d="M294.48606,241.95379c0,0 0.18363,-2.63233 0.49333,-3.56677c0.32106,-0.96887 2.37608,-2.25467 2.37608,-2.25467l14.44221,-1.59505c0,0 0.49189,0.93462 0.3389,1.6938c-0.208,1.03217 -2.66616,4.06772 -2.66616,4.06772z" fill="#585852"/><path d="M294.40422,241.21299c0,0 0.26547,-1.89148 0.57517,-2.82592c0.32106,-0.96887 2.29426,-2.9955 2.29426,-2.9955l14.4422,-1.59504c0,0 0.57371,1.67547 0.42076,2.43465c-0.208,1.03217 -2.74802,3.32686 -2.74802,3.32686z" fill="#797971"/><path d="M310.01676,234.48275c-1.06207,-0.06172 -12.64418,0.94443 -12.64418,0.94443l14.42243,-1.59285l0.27024,2.44697c0,0 -0.98645,-1.73678 -2.0485,-1.79854z" fill="#85857b"/></g><path d="M293.91427,223.73838l-0.56971,-5.15841l7.09277,-0.78337l1.85931,5.01599z" fill="#7c6e75" stroke-width="0"/><path d="M280.65253,198.61879l-5.04409,-7.62363l1.37103,-0.15141l7.01746,7.86003z" fill="#d495b6" stroke-width="0"/><path d="M241.04718,195.3175l12.79998,-4.52213l21.96156,0.20287l4.86707,7.60391z" fill="#df9cbe" stroke-width="0"/><path d="M294.62737,228.71775l-0.17802,-1.61198l10.80036,-1.19283l1.14523,1.5052z" fill="#7c6e75" stroke-width="0"/><path d="M252.9664,221.09085c0,0 -17.89248,3.18175 -23.43629,4.29732c-8.39458,1.68909 -25.10642,5.8742 -25.10642,5.8742c0,0 14.44545,-6.06306 27.7048,-9.05276c14.37653,-3.24164 57.99988,-9.52575 57.99988,-9.52575l0.59381,5.37636z" fill="#75686e" stroke-width="0"/><path d="M247.05256,230.56783l-3.28632,-0.21134c0,0 9.4497,-3.44255 14.84067,-3.27054c5.391,0.172 15.1712,4.22821 15.1712,4.22821z" fill="#7c6e76" stroke-width="0"/><path d="M200.43479,231.66169c0,0 -33.85183,-11.75134 -35.24518,-16.24568c-1.26563,-4.08258 29.89927,-0.93992 30.18337,-1.08021c4.97081,-2.45438 75.62733,-17.51668 75.62733,-17.51668l27.19322,3.82732l52.3803,-6.35993l8.75432,12.69112c0,0 -61.05873,7.9195 -84.66349,10.69051c-8.19384,0.96189 -24.99549,2.16589 -40.08172,4.97931c-11.63702,2.17019 -28.74259,8.4022 -28.74259,8.4022z" fill="#ee96c3" stroke-width="0"/><path d="M73.46062,258.30469l1.09443,-20.3974c0,0 -0.8753,-7.00035 6.0731,-10.07768c8.63013,-3.82216 25.6128,-3.90179 27.67099,-4.12911c1.57938,-0.17444 -11.6861,11.77066 -11.6861,11.77066l2.21241,20.03219z" fill="#c4b4b3" stroke-width="0"/><g stroke-width="0"><path d="M350.91653,209.29712l-4.50221,-14.73774l92.93876,-3.45879l-0.1147,5.85494l-46.60875,10.03425z" fill="#ad6d8e"/><path d="M375.5289,192.15543l6.32065,-9.02108l26.37919,-5.05538l-3.13712,10.81151z" fill="#8d788b"/><path d="M350.34237,196.13297l-1.78224,-16.13717l33.35973,3.13494l-3.79698,7.33015z" fill="#857183"/><path d="M392.14019,188.1756l16.0264,-10.08855l28.08752,0.69356l0.47245,6.88373z" fill="#947e92"/><path d="M346.13173,195.98582l1.47475,-13.00648l1.10175,-3.20412l1.65364,14.97282z" fill="#756474"/><path d="M351.83525,205.96173l-2.04223,-11.92055l42.87103,-6.39368l0.544,16.09462z" fill="#746373"/><path d="M393.19875,203.72757c0,0 -0.31472,-6.31107 -0.42939,-9.15985c-0.09819,-2.43907 -0.21696,-6.89529 -0.21696,-6.89529l44.0327,-3.94849l2.91004,8.12968z" fill="#867284"/><path d="M346.16417,195.91133l3.83519,-1.96379l1.86658,12.01847z" fill="#6f5e6d"/><path d="M429.07059,179.46571l-20.06766,-1.16779l26.96491,0.68039l0.02777,3.56395c0,0 -0.48397,-1.52534 -1.76235,-2.09337c-0.85516,-0.37994 -5.16266,-0.98323 -5.16266,-0.98323z" fill="#978195"/><path d="M390.40494,187.71358c0,0 7.54602,-4.31977 10.1588,-5.97066c1.90332,-1.2026 4.07503,-3.02306 4.07503,-3.02306l2.53087,-0.16623l-14.13213,8.8691z" fill="#9c859a"/><path d="M376.1997,190.0957c0,0 1.00629,-2.88019 2.20019,-4.37052c1.19387,-1.49036 3.39866,-2.55403 3.39866,-2.55403l-3.1522,6.65429z" fill="#806b7d"/><path d="M409.54251,176.17873l1.49104,-5.93287l15.51798,2.04223l6.26874,5.74657z" fill="#55494f"/><path d="M407.33186,179.23999c0,0 0.98914,-0.90424 1.48193,-1.54698c0.3712,-0.48416 0.90304,-1.9359 0.90304,-1.9359l22.61797,1.52634c0,0 0.91718,0.39872 1.53559,0.65806c0.64628,0.27103 2.2622,0.93465 2.2622,0.93465z" fill="#685960"/><path d="M410.00237,175.23031l1.14515,-4.73973l14.42609,1.75381c0,0 -8.1266,-0.64451 -12.55263,0.10052c-2.56737,0.43219 -3.01856,2.88536 -3.01856,2.88536z" fill="#41383c"/></g><path d="M70.77807,219.08198l-0.57178,-5.17688c0,0 22.05937,-3.73923 43.89105,-6.0931c13.00971,-1.40267 26.67294,-1.30432 33.5139,-2.41208c15.42497,-2.49784 25.3352,-8.13199 25.3352,-8.13199l-5.13389,11.27484z" fill="#ffa1d1" stroke-width="0"/><path d="M69.74794,233.23819l0.38181,-16.22255c0,0 54.69129,-3.96725 72.38225,-6.36441c10.47937,-1.41998 23.98233,-6.69332 23.98233,-6.69332l1.60735,14.55387c0,0 -67.09308,7.40996 -83.26713,9.19626c-6.65017,0.73445 -12.13535,32.25197 -12.13535,32.25197z" fill="#ee96c3" stroke-width="0"/><path d="M256.27123,289.59523l7.73146,-14.53243c0,0 8.11797,-16.85023 16.70813,-24.70348c2.1829,-1.99562 7.18984,-3.75241 7.18984,-3.75241c0,0 -6.7125,5.75677 -8.98519,8.81619c-5.36711,7.225 -22.64414,34.17207 -22.64414,34.17207z" fill="#70646b" stroke-width="0"/><path d="M344.5815,214.60711l-8.23873,-17.20135l1.34193,-0.14821c0,0 2.4951,5.20945 3.81353,7.96216c0.18783,0.39217 1.67863,1.45608 1.91129,1.94189c0.40337,0.84215 -0.4171,1.17774 0.0337,2.11898c1.25529,2.62091 2.48017,5.17832 2.48017,5.17832z" fill="#795467" stroke-width="0"/><path d="M168.77757,218.87151c0,0 -11.13796,-5.36203 -10.8771,-9.18873c0.15617,-2.29121 16.02403,-12.04421 16.02403,-12.04421l68.27148,-5.85784l-1.28691,3.25706l30.04712,1.96183l-68.44478,34.29604c0,0 -1.40285,-5.493 1.86393,-8.72935c3.17498,-3.14536 17.46902,-10.42348 17.46902,-10.42348c0,0 -34.01596,3.70755 -41.27236,4.42174c-2.42089,0.23826 -11.79449,2.3069 -11.79449,2.3069z" fill="#f399c8" stroke-width="0"/><g><path d="M172.34969,199.74841l-0.35547,-3.21877l175.48664,-19.38124l0.35547,3.21877z" fill="#584f54" stroke-width="0"/><path d="M341.74681,178.03135l-0.30039,-2.7198l3.03682,-0.33538l2.9799,2.4239z" fill="#685d63" stroke-width="0"/><g fill="#685d63" stroke-width="0"><g><g><g><path d="M335.15434,179.01015l-0.32677,-2.95905l3.85764,-0.42606l0.32677,2.95905z"/><path d="M328.89486,179.70147l-0.32677,-2.95905l3.85765,-0.42605l0.32677,2.95905z"/></g><g><path d="M322.87161,180.36673l-0.32677,-2.95906l3.85765,-0.42605l0.32677,2.95905z"/><path d="M316.61213,181.05803l-0.32677,-2.95905l3.85764,-0.42605l0.32677,2.95906z"/></g></g><g><g><path d="M310.47073,181.73626l-0.32677,-2.95906l3.85764,-0.42605l0.32677,2.95905z"/><path d="M304.21123,182.42761l-0.32677,-2.95905l3.85764,-0.42606l0.32677,2.95906z"/></g><g><path d="M298.18803,183.0928l-0.32677,-2.95905l3.85764,-0.42605l0.32677,2.95905z"/><path d="M291.92853,183.78412l-0.32677,-2.95905l3.85763,-0.42607l0.32677,2.95906z"/></g></g></g><g><g><g><path d="M291.69237,183.81026l-0.32677,-2.95905l3.85764,-0.42605l0.32677,2.95905z"/><path d="M285.43291,184.50153l-0.32677,-2.95905l3.85765,-0.42605l0.32677,2.95905z"/></g><g><path d="M279.40964,185.16678l-0.32677,-2.95906l3.85764,-0.42605l0.32677,2.95905z"/><path d="M273.15014,185.85808l-0.32677,-2.95905l3.85763,-0.42607l0.32677,2.95906z"/></g></g><g><g><path d="M267.00885,186.53636l-0.32677,-2.95906l3.85765,-0.42605l0.32677,2.95905z"/><path d="M260.74933,187.22769l-0.32677,-2.95905l3.85765,-0.42605l0.32677,2.95906z"/></g><g><path d="M254.72606,187.89293l-0.32677,-2.95905l3.85764,-0.42606l0.32677,2.95906z"/><path d="M248.46661,188.5842l-0.32677,-2.95905l3.85765,-0.42605l0.32677,2.95905z"/></g></g></g></g><g><g fill="#685d63" stroke-width="0"><g><g><path d="M242.28504,189.26695l-0.32677,-2.95906l3.85765,-0.42605l0.32677,2.95905z"/><path d="M236.02559,189.95821l-0.32677,-2.95905l3.85765,-0.42605l0.32677,2.95906z"/></g><g><path d="M230.00232,190.6235l-0.32677,-2.95905l3.85765,-0.42605l0.32677,2.95906z"/><path d="M223.74287,191.31475l-0.32677,-2.95905l3.85764,-0.42606l0.32677,2.95906z"/></g></g><g><g><path d="M217.60153,191.99306l-0.32677,-2.95906l3.85765,-0.42605l0.32677,2.95905z"/><path d="M211.34202,192.6843l-0.32677,-2.95905l3.85765,-0.42605l0.32677,2.95906z"/></g><g><path d="M205.31869,193.34958l-0.32677,-2.95905l3.85765,-0.42605l0.32677,2.95906z"/><path d="M199.05926,194.04093l-0.32677,-2.95905l3.85764,-0.42606l0.32677,2.95905z"/></g></g></g><g><g fill="#685d63" stroke-width="0"><g><path d="M198.8231,194.06698l-0.32677,-2.95906l3.85765,-0.42605l0.32677,2.95905z"/><path d="M192.5636,194.7583l-0.32677,-2.95905l3.85764,-0.42606l0.32677,2.95906z"/></g><g><path d="M186.54036,195.42354l-0.32677,-2.95905l3.85764,-0.42606l0.32677,2.95906z"/><path d="M180.28088,196.11478l-0.32677,-2.95905l3.85764,-0.42606l0.32677,2.95905z"/></g></g><g fill="none" stroke-width="1" font-family="sans-serif" font-weight="normal" font-size="12" text-anchor="start"><g/><g/></g></g></g><path d="M172.09255,196.7685l2.37914,-3.01571l3.03682,-0.33538l0.30039,2.7198z" data-paper-data="{&quot;index&quot;:null}" fill="#685d63" stroke-width="0"/></g><path d="M232.26979,223.20869l-2.5068,0.54853c0,0 1.38694,-2.73631 10.80028,-4.91053c7.13673,-1.64835 27.43175,-5.20925 39.58588,-7.30186c5.64406,-0.97178 60.81619,-16.12181 60.81619,-16.12181l5.16581,-0.58493c0,0 -60.17418,17.35525 -65.81654,18.30347c-12.47686,2.09674 -33.4518,5.658 -39.49977,6.90797c-3.29228,0.68045 -8.54493,3.15914 -8.54493,3.15914z" fill="#70475c" stroke-width="0"/><path d="M334.65908,231.04391l-4.69143,2.37515l-2.07751,-18.81702c0,0 7.74969,-0.80719 15.32873,-1.59661c21.75717,-2.26624 126.3236,-13.15787 126.3236,-13.15787l0.73847,6.68658z" fill="#5a5959" stroke-width="0"/><path d="M333.9283,232.76293l0.7543,-3.10764l135.59847,-23.23128l-10.52382,12.44205z" fill="#4b4a4a" stroke-width="0"/><path d="M456.47048,219.03878c0,0 -6.22457,-2.5569 -9.39545,-3.64347c-1.69931,-0.58228 -8.15113,-2.36916 -8.15113,-2.36916c0,0 8.27184,2.00783 11.7003,2.58292c1.22356,0.20526 2.42193,0.82019 3.77603,1.20201c0.43666,0.1231 1.94617,-2.81957 3.64543,-4.73202c0.50791,-0.57163 1.70116,-0.33665 2.18704,-0.72313c1.1139,-0.88597 1.35093,-2.01022 1.35093,-2.01022c0,0 0.43745,0.88688 -0.64089,2.22717c-0.29419,0.3657 -2.04756,0.91382 -2.33149,1.30771c-1.13786,1.57878 -1.95807,3.27814 -2.19645,3.89924c-0.66524,1.73331 1.51018,2.09833 1.51018,2.09833z" fill="#414040" stroke-width="0"/><path d="M168.76158,219.17252l2.57379,-11.45051l6.89525,-1.3896c0,0 -0.65419,2.73655 -1.03974,4.34936c-0.09709,0.4062 11.41095,-2.83283 11.8345,-2.2045c0.78586,1.16573 -4.33981,5.51461 -4.58232,6.52888c-0.27722,1.15961 -8.88563,2.50854 -8.88563,2.50854z" fill="#303030" stroke-width="0"/><path d="M168.57826,218.82045l2.5616,-10.60898c0,0 3.12525,0.96738 3.23337,1.94637c0.19672,1.78139 -0.73742,7.70688 -0.73742,7.70688z" fill="#252525" stroke-width="0"/><path d="M330.2412,236.06071l-0.3241,-2.93456l5.1663,-3.54094l-0.90654,3.07045c0,0 -0.93724,1.4469 -1.62938,2.04575c-0.60905,0.52694 -2.30628,1.35925 -2.30628,1.35925z" fill="#383838" stroke-width="0"/><g><g fill="#4b4b4b" stroke-width="0"><g data-paper-data="{&quot;origPos&quot;:null}"><g data-paper-data="{&quot;origPos&quot;:null}"><path d="M397.12713,230.05297l-0.2495,-2.25901l3.72735,-0.41166l0.2495,2.25901z" data-paper-data="{&quot;origPos&quot;:null}"/><path d="M390.90244,230.62613l-0.2495,-2.25901l3.72734,-0.41166l0.2495,2.259z" data-paper-data="{&quot;origPos&quot;:null}"/></g><g data-paper-data="{&quot;origPos&quot;:null}"><path d="M409.56412,228.7937l-0.2495,-2.25901l3.72735,-0.41166l0.2495,2.259z" data-paper-data="{&quot;origPos&quot;:null}"/><path d="M403.3394,229.36684l-0.2495,-2.259l3.72734,-0.41166l0.2495,2.25901z" data-paper-data="{&quot;origPos&quot;:null}"/></g></g><g data-paper-data="{&quot;origPos&quot;:null,&quot;index&quot;:null}"><g data-paper-data="{&quot;origPos&quot;:null}"><path d="M428.62766,226.45964l-0.2495,-2.25901l3.72735,-0.41166l0.2495,2.259z" data-paper-data="{&quot;origPos&quot;:null}"/><path d="M434.82738,225.66057l-0.24951,-2.259l3.72735,-0.41166l0.24949,2.25899z" data-paper-data="{&quot;origPos&quot;:null}"/></g><g data-paper-data="{&quot;origPos&quot;:null}"><path d="M416.21565,227.94475l-0.2495,-2.25901l3.72734,-0.41166l0.24951,2.259z" data-paper-data="{&quot;origPos&quot;:null}"/><path d="M422.41541,227.14575l-0.2495,-2.259l3.72735,-0.41166l0.2495,2.259z" data-paper-data="{&quot;origPos&quot;:null}"/></g></g></g><path d="M353.75849,226.54742l-1.49416,-13.52886l83.9635,-9.27315l1.49416,13.52886z" data-paper-data="{&quot;origPos&quot;:null}" fill="#444444" stroke-width="0"/><path d="M354.37481,231.23034l-0.52497,-4.75353l83.71671,-9.24592l0.52497,4.75354z" data-paper-data="{&quot;origPos&quot;:null}" fill="#414141" stroke-width="0"/><path d="M354.56578,232.64217l-0.17755,-1.60785l83.70603,-9.24474l0.17758,1.60784z" data-paper-data="{&quot;origPos&quot;:null}" fill="#3f3f3f" stroke-width="0"/><g stroke-width="0"><g data-paper-data="{&quot;origPos&quot;:null}" fill="#5a5a5a"><g data-paper-data="{&quot;origPos&quot;:null}"><path d="M396.77735,221.8762l-1.50941,-13.66689l3.54984,-0.39205l1.50941,13.66689z" data-paper-data="{&quot;origPos&quot;:null}"/></g><g data-paper-data="{&quot;origPos&quot;:null}"><path d="M402.81209,221.20971l-1.50941,-13.66689l3.54985,-0.39205l1.50941,13.66689z" data-paper-data="{&quot;origPos&quot;:null}"/><path d="M409.02435,220.52357l-1.50939,-13.6669l3.54984,-0.39205l1.50941,13.66689z" data-paper-data="{&quot;origPos&quot;:null}"/></g></g><g data-paper-data="{&quot;origPos&quot;:null}" fill="#5a5a5a"><g data-paper-data="{&quot;origPos&quot;:null}"><path d="M415.59155,219.79828l-1.50941,-13.66689l3.54984,-0.39205l1.5094,13.6669z" data-paper-data="{&quot;origPos&quot;:null}"/><path d="M421.80374,219.11217l-1.50941,-13.66689l3.54985,-0.39205l1.50939,13.6669z" data-paper-data="{&quot;origPos&quot;:null}"/></g><g data-paper-data="{&quot;origPos&quot;:null}"><path d="M427.83851,218.44569l-1.50939,-13.6669l3.54984,-0.39205l1.50939,13.6669z" data-paper-data="{&quot;origPos&quot;:null}"/><path d="M434.05076,217.75958l-1.50939,-13.6669l3.54984,-0.39205l1.50941,13.66689z" data-paper-data="{&quot;origPos&quot;:null}"/></g></g><path d="M400.38816,221.47742l-0.66151,2.01578l-5.20497,0.61818l-1.21394,-9.72197l1.90165,-6.17375l1.57796,13.65934z" fill="#3a3a3a"/><path d="M406.42047,220.81114l-0.66151,2.01579l-5.20498,0.6182l-1.21393,-9.72197l1.90165,-6.17374l1.57796,13.65933z" fill="#3a3a3a"/><path d="M412.58986,220.12981l-0.66151,2.01579l-5.20497,0.6182l-1.21394,-9.72197l1.90165,-6.17374l1.57796,13.65934z" fill="#3a3a3a"/><path d="M419.23908,219.39547l-0.66151,2.01579l-5.20497,0.6182l-1.21394,-9.72197l1.90165,-6.17374l1.57796,13.65934z" fill="#3a3a3a"/><path d="M425.47705,218.70655l-0.66151,2.01579l-5.20497,0.6182l-1.21394,-9.72197l1.90165,-6.17374l1.57796,13.65933z" fill="#3a3a3a"/><path d="M431.44075,218.04786l-0.66151,2.01578l-5.20497,0.61818l-1.21394,-9.72197l1.90165,-6.17374l1.57796,13.65934z" fill="#3a3a3a"/><path d="M437.68654,217.35807l-0.66151,2.01578l-5.20497,0.6182l-1.21393,-9.72197l1.90165,-6.17375l1.57796,13.65934z" fill="#3a3a3a"/></g><g stroke-width="0"><g data-paper-data="{&quot;origPos&quot;:null}" fill="#5a5a5a"><g data-paper-data="{&quot;origPos&quot;:null}"><path d="M353.80961,226.62169l-1.50939,-13.6669l3.54985,-0.39205l1.50941,13.66689z" data-paper-data="{&quot;origPos&quot;:null}"/></g><g data-paper-data="{&quot;origPos&quot;:null}"><path d="M359.8443,225.95524l-1.50941,-13.66689l3.54984,-0.39205l1.50941,13.66689z" data-paper-data="{&quot;origPos&quot;:null}"/><path d="M366.05648,225.26912l-1.50941,-13.66689l3.54985,-0.39205l1.50939,13.6669z" data-paper-data="{&quot;origPos&quot;:null}"/></g></g><g data-paper-data="{&quot;origPos&quot;:null}" fill="#5a5a5a"><g data-paper-data="{&quot;origPos&quot;:null}"><path d="M372.62377,224.54383l-1.50939,-13.6669l3.54986,-0.39205l1.50941,13.66689z" data-paper-data="{&quot;origPos&quot;:null}"/><path d="M378.83604,223.8577l-1.50941,-13.66689l3.54985,-0.39205l1.50939,13.6669z" data-paper-data="{&quot;origPos&quot;:null}"/></g><g data-paper-data="{&quot;origPos&quot;:null}"><path d="M384.87075,223.1912l-1.50941,-13.66689l3.54985,-0.39205l1.50939,13.6669z" data-paper-data="{&quot;origPos&quot;:null}"/><path d="M391.08304,222.50513l-1.50939,-13.6669l3.54985,-0.39205l1.5094,13.6669z" data-paper-data="{&quot;origPos&quot;:null}"/></g></g><path d="M357.42036,226.22292l-0.66151,2.01579l-2.70854,0.34249l-0.23072,-1.96067z" fill="#3a3a3a"/><path d="M363.45268,225.55672l-0.66151,2.01579l-5.20497,0.6182l-1.21393,-9.72197l1.90165,-6.17374l1.57796,13.65934z" fill="#3a3a3a"/><path d="M369.62199,224.87532l-0.66151,2.01578l-5.20497,0.6182l-1.21395,-9.72196l1.90165,-6.17375l1.57796,13.65934z" fill="#3a3a3a"/><path d="M376.27125,224.14094l-0.66151,2.01578l-5.20497,0.6182l-1.21393,-9.72197l1.90165,-6.17374l1.57796,13.65934z" fill="#3a3a3a"/><path d="M382.50928,223.45205l-0.66151,2.01578l-5.20497,0.61818l-1.21394,-9.72197l1.90165,-6.17374l1.57796,13.65934z" fill="#3a3a3a"/><path d="M388.47297,222.79332l-0.66151,2.01578l-5.20497,0.61818l-1.21394,-9.72197l1.90165,-6.17375l1.57796,13.65934z" fill="#3a3a3a"/><path d="M394.71882,222.10355l-0.66151,2.01579l-5.20497,0.61818l-1.21394,-9.72197l1.90165,-6.17374l1.57796,13.65934z" fill="#3a3a3a"/></g><g><g data-paper-data="{&quot;origPos&quot;:null}"><g data-paper-data="{&quot;origPos&quot;:null}" fill="none" stroke-width="1" font-family="sans-serif" font-weight="normal" font-size="12" text-anchor="start"/><g data-paper-data="{&quot;origPos&quot;:null}" fill="#4b4b4b" stroke-width="0"><path d="M361.13132,234.22016l-0.2495,-2.25901l3.72734,-0.41166l0.24951,2.259z" data-paper-data="{&quot;origPos&quot;:null}"/><path d="M354.90658,234.79333l-0.2495,-2.25901l3.72734,-0.41166l0.2495,2.25901z" data-paper-data="{&quot;origPos&quot;:null}"/></g></g><g data-paper-data="{&quot;origPos&quot;:null,&quot;index&quot;:null}" fill="#4b4b4b" stroke-width="0"><g data-paper-data="{&quot;origPos&quot;:null}"><path d="M380.19487,231.88602l-0.2495,-2.259l3.72735,-0.41166l0.2495,2.259z" data-paper-data="{&quot;origPos&quot;:null}"/><path d="M386.39462,231.08699l-0.24949,-2.25899l3.72735,-0.41166l0.2495,2.259z" data-paper-data="{&quot;origPos&quot;:null}"/></g><g data-paper-data="{&quot;origPos&quot;:null}"><path d="M367.7828,233.37124l-0.2495,-2.25901l3.72735,-0.41166l0.2495,2.259z" data-paper-data="{&quot;origPos&quot;:null}"/><path d="M373.98258,232.57212l-0.2495,-2.25901l3.72735,-0.41166l0.2495,2.25901z" data-paper-data="{&quot;origPos&quot;:null}"/></g></g></g></g><path d="M181.19001,216.19624l0.57065,-4.30374c0,0 4.2377,-3.63464 7.73102,-4.17137c3.99354,-0.6136 33.78409,-3.87864 33.78409,-3.87864c0,0 0.86393,1.79175 0.94493,3.00739c0.1044,1.5662 -1.6625,4.84462 -1.6625,4.84462z" fill="#242424" stroke-width="0"/><path d="M205.50715,209.67733l-0.34583,-3.13125l17.89299,-1.97621l0.34583,3.13125z" fill="#313131" stroke-width="0"/><path d="M202.44523,211.9579l-0.07158,-0.64831c0,0 0.94604,-1.16203 1.96291,-1.27435c0.96562,-0.10661 3.19251,0.1252 5.64751,0.01845c4.67678,-0.20346 10.2823,-0.72021 10.2823,-0.72021l0.07158,0.64831c0,0 -5.3957,0.59387 -10.00764,0.79069c-2.51648,0.10741 -4.83344,-0.20916 -5.83512,-0.09853c-1.05289,0.11627 -2.04994,1.28394 -2.04994,1.28394z" fill="#616161" stroke-width="0"/><path d="M227.6897,193.36337l12.94884,1.6149l31.24676,1.88938c0,0 0.75331,0.14235 -7.37629,0.30756c-2.76555,0.05619 -13.51622,-0.37527 -22.8922,-1.25419c-2.53702,-0.23781 -16.16826,-2.19405 -16.16826,-2.19405z" fill="#df8cb7" stroke-width="0"/><path d="M48.39235,219.54034l-0.65135,-5.89723c0,0 5.54276,-2.37578 9.3236,-2.79333c3.09523,-0.34184 11.91133,2.21171 11.91133,2.21171l1.213,12.21137z" fill="#626061" stroke-width="0"/><path d="M164.84671,216.72521l4.04842,2.07411l12.02788,-2.65958l50.43828,-5.57053l0.11982,1.08446c0,0 -37.85214,4.0344 -49.6548,5.6017c-3.2404,0.43033 -12.80207,2.21159 -12.80207,2.21159z" fill="#ffa6d4" stroke-width="0"/><path d="M52.54534,283.4007l-0.78705,-7.12628l21.46054,-19.1015l-0.09704,13.76274l-12.67562,11.59246z" fill="#3f3d3e" stroke-width="0"/><path d="M50.36962,278.55007c0,0 -1.97085,-19.55367 -2.222,-29.1675c-0.28352,-10.85072 0.60606,-32.67641 0.60606,-32.67641c0,0 8.54173,-1.13385 12.2828,0.1088c3.20186,1.0635 8.79881,6.89375 8.79881,6.89375l3.68312,33.34879c0,0 -10.28143,14.91693 -13.0599,17.49662c-4.27381,3.96807 -10.08888,3.996 -10.08888,3.996z" fill="#555354" stroke-width="0"/><path d="M49.76726,227.25713c0,0 -2.18872,-5.78761 -0.43114,-8.69534c1.75757,-2.90774 5.96921,-4.39599 8.51399,-4.67704c2.03004,-0.22421 6.23983,-0.60996 9.58531,3.5062c3.34549,4.11612 2.16967,10.9566 2.16967,10.9566c0,0 -7.40382,-9.64926 -9.99144,-9.79149c-3.65138,-0.20069 -9.84645,8.70111 -9.84645,8.70111z" fill="#6f6b6c" stroke-width="0"/><path d="M49.46017,283.55198c0,0 -1.15686,-26.09324 -2.41306,-37.46786c-1.30828,-11.84577 -3.79569,-32.41545 -3.79569,-32.41545c0,0 1.07865,-0.766 2.11319,-0.8803c0.94594,-0.1045 2.57391,0.36263 2.57391,0.36263c0,0 1.88975,19.06305 3.06376,29.69318c1.36399,12.35036 1.86687,40.33125 1.86687,40.33125z" fill="#333232" stroke-width="0"/><path d="M49.08071,284.04025l-0.52703,-14.73949c0,0 1.1464,0.76768 1.73794,0.66343c0.74696,-0.13161 2.25606,-1.74452 2.25606,-1.74452l0.47821,15.38482z" fill="#2e2d2d" stroke-width="0"/><path d="M70.70669,245.17145c0.89625,8.11529 -2.25147,17.18358 -6.26898,20.57247c-3.33667,2.81461 -10.04816,10.35484 -10.94441,2.23957c-0.19013,-1.72165 0.53753,-13.75357 -0.10651,-20.75502c-0.85172,-9.2593 -3.0343,-14.02941 -2.39314,-16.94909c1.15943,-5.27921 6.48688,-7.35603 8.68801,-7.59914c4.33888,-0.47917 10.1288,14.37593 11.02507,22.49121z" fill="#585758" stroke-width="0"/><path d="M106.50618,255.3863l-0.78008,-1.66517c0,0 7.74346,-2.21398 13.67195,-3.35581c8.34593,-1.60748 31.68029,-5.37922 31.68029,-5.37922l1.92573,1.07631c0,0 -24.78101,4.36714 -33.35775,6.08697c-2.51886,0.5051 -13.1401,3.23698 -13.1401,3.23698z" fill="#585657" stroke-width="0"/><path d="M102.10049,269.15365l3.65543,-14.17833l7.09417,-1.73994c0,0 -1.25407,4.47822 -1.08535,5.21935c0.80594,3.54126 6.41573,27.03445 6.41573,27.03445c0,0 -1.42017,0.59994 -2.80829,-1.13369c-2.49064,-3.11071 -5.06834,-9.72974 -7.04067,-11.62734c-1.7041,-1.63953 -6.231,-3.57445 -6.231,-3.57445z" fill="#5a5759" stroke-width="0"/><path d="M111.17265,237.16035l1.62731,-11.58193l2.30704,-0.36659l-2.70735,11.92475z" fill="#a5a0a2" stroke-width="0"/><path d="M117.8024,235.33806l-0.15399,-1.3943l26.33613,-2.90865l0.15399,1.39429z" fill="#494748" stroke-width="0"/><path d="M117.39608,232.39356l-0.15399,-1.3943l26.33613,-2.90865l0.15399,1.3943z" fill="#494748" stroke-width="0"/><path d="M100.53994,256.79918l-2.21067,-20.01667l11.11775,-10.90257l4.78107,-0.8417l-11.4775,44.34143l-5.79725,-1.37525z" fill="#dbd5d8" stroke-width="0"/><path d="M75.50947,271.55048l-1.45129,-11.70221l26.40674,-3.7107c0,0 0.60687,2.48617 0.56511,3.29407c-0.10399,2.01408 -1.33756,9.13033 -1.33756,9.13033z" fill="#ccc6c9" stroke-width="0"/><path d="M78.02599,259.81288l-0.03469,-0.31389l22.58376,-3.36793l-2.45965,1.46315c0,0 -4.27508,0.6595 -6.97092,0.92526c-3.69131,0.36396 -13.11856,1.29341 -13.11856,1.29341z" fill="#d8d1d5" stroke-width="0"/><path d="M81.11,255.71277l-1.86619,-16.89722l16.02757,-1.77012l1.86619,16.89722z" fill="#a39999" stroke-width="0"/><path d="M75.25318,271.74954l-1.24703,-11.29064c0,0 9.48457,5.378 14.00226,7.23388c4.51773,1.85588 10.9489,0.8639 10.9489,0.8639z" fill="#b4afb1" stroke-width="0"/><path d="M109.35642,274.0625c0,0 3.12537,0.70165 4.19911,0.43847c0.65958,-0.16173 1.63045,-1.86752 1.63045,-1.86752l2.64453,8.8363l0.46052,4.16975c0,0 -1.89711,0.52286 -3.45194,-1.90371c-1.28284,-2.0021 -5.48265,-9.67325 -5.48265,-9.67325z" fill="#504e4f" stroke-width="0"/><path d="M102.46421,269.67325l9.79172,-43.07883l1.75557,0.01248l-9.64474,43.47532z" fill="#858183" stroke-width="0"/><path d="M81.25578,231.01172l1.32446,-1.8068c0,0 27.1792,-3.64958 39.51452,-5.0119c10.70617,-1.18241 31.79064,-3.15593 31.79064,-3.15593l0.7394,1.87153c0,0 -21.24608,1.63623 -32.53106,2.88257c-12.88603,1.42321 -40.83792,5.22053 -40.83792,5.22053z" fill="#918b8e" stroke-width="0"/><path d="M82.13271,229.67665l1.79853,-2.15188c0,0 25.69311,-3.19272 38.02837,-4.5551c10.70616,-1.18241 31.79064,-3.15593 31.79064,-3.15593l0.73939,1.87153c0,0 -21.24607,1.63623 -32.53106,2.88256c-12.88603,1.42321 -39.82585,5.10872 -39.82585,5.10872z" fill="#a59fa2" stroke-width="0"/><path d="M148.63275,243.2446l-2.53771,-5.43693c0,0 0.07806,-1.22101 0.39664,-1.36963c0.2807,-0.13102 1.4156,0.52374 1.4156,0.52374l2.53771,5.43694c0,0 -0.17813,0.90267 -0.45946,1.03395c-0.31824,0.14855 -1.35282,-0.18806 -1.35282,-0.18806z" fill="#494242" stroke-width="0"/><path d="M108.89227,250.29841l2.48015,-9.81731l3.86223,-0.42657l-2.48015,9.81731z" fill="#9c989a" stroke-width="0"/><path d="M116.45036,231.57938l1.7333,-1.16525l24.29313,-2.66482l2.11014,0.72267z" fill="#757274" stroke-width="0"/><path d="M116.85268,234.36336l1.7333,-1.16526l24.29312,-2.66481l2.11015,0.72264z" fill="#757274" stroke-width="0"/><path d="M72.73926,271.03826l-4.68763,-57.99366l1.97243,0.36642l5.27391,58.33245z" fill="#686666" stroke-width="0"/><path d="M72.60654,271.32486l-1.13386,-16.22934l2.69642,3.54389l1.02737,13.27754z" fill="#535252" stroke-width="0"/><path d="M100.65551,245.21329c0,0 1.85373,-2.56447 1.74978,-3.50551c-0.10197,-0.9235 -2.36769,-2.08916 -2.36769,-2.08916c0,0 3.05741,0.33611 3.1392,2.02566c0.06229,1.28694 -0.74166,3.57803 -0.70749,4.68334c0.09711,3.14278 0.21922,10.52132 0.21922,10.52132z" fill="#c4bec1" stroke-width="0"/><path d="M108.07527,242.47056l0.78084,-10.34368l2.05547,-4.60774l-1.58972,9.79186z" fill="#aca7a9" stroke-width="0"/></g></g><g stroke-width="0"><path d="M222.36544,201.84833l2.17408,-3.58954c0,0 1.63883,-1.62605 2.48902,-1.44331c0.96933,0.20837 3.01643,2.62684 3.01643,2.62684l-0.09056,4.11676c0,0 -4.2562,0.46248 -5.52945,0.46897c-0.57401,0.00294 -2.05942,-2.17974 -2.05942,-2.17974z" fill="#c0c0c0"/><path d="M180.76546,216.15251c0,0 -0.49155,-2.84323 0.43616,-4.09146c1.16261,-1.56431 6.96297,-4.4306 6.96297,-4.4306l-0.18628,4.78647l0.32068,2.90356z" fill="#838383"/><path d="M180.58618,216.09757l7.2345,-8.32578l37.3353,-4.12342l0.82128,7.43605z" fill="#999999"/><path d="M181.50704,215.33538l5.48126,-6.48202l33.56822,-3.70737l0.64122,5.80579c0,0 -4.06289,0.44869 -9.28931,1.02597c-3.39802,0.37533 -7.40441,-0.25067 -10.98928,0.14521c-3.84568,0.4247 -7.22383,1.86629 -9.38382,2.10485c-4.22744,0.4669 -10.02825,1.10752 -10.02825,1.10752z" fill="#2e2e2e"/><path d="M184.97794,214.94988l7.67027,-6.78634l12.38877,-1.36824c0,0 -7.12213,2.70553 -9.37749,3.87475c-2.39437,1.2412 -5.35546,3.69162 -5.35546,3.69162z" fill="#a5899d"/><path d="M192.90642,213.96079c0,0 4.94767,-1.52448 7.38993,-1.79419c3.12059,-0.34466 9.80237,-0.1046 9.80237,-0.1046l-9.6325,0.72661z" fill="#adadad"/><path d="M180.68807,216.06802l6.53429,-7.51436l34.75535,-3.83844l0.07558,0.68442c0,0 -30.09382,3.32365 -34.01658,3.75689c-0.82047,0.09062 -7.34857,6.91154 -7.34857,6.91154z" fill="#8a8a8a"/><path d="M228.25484,217.08832l-1.07088,-9.69638l-0.14377,-7.22981c0,0 1.23158,0.33673 1.84402,0.83604c0.6124,0.49929 1.11734,1.57822 1.11734,1.57822l0.25416,14.291z" fill="#9e9e9e"/><path d="M222.37179,213.48159c0,0 -1.13953,-2.01197 -1.44981,-3.57651c-0.41788,-2.10679 -0.1733,-7.68554 -0.1733,-7.68554l1.89397,-0.5365c0,0 0.84119,0.7037 1.29983,0.50298c0.63232,-0.27671 2.14316,-2.00978 2.14316,-2.00978l0.90745,12.79502z" fill="#9c9c9c"/><path d="M223.14323,215.23814c-0.89889,-1.01189 -0.81066,-2.40312 -0.81066,-2.40312l4.05783,-7.69233c0,0 1.81155,3.70731 1.91216,4.61824c0.28601,2.58978 1.80783,7.20032 1.80783,7.20032c0,0 -2.9529,0.41037 -4.03363,0.08843c-1.2962,-0.38609 -2.03453,-0.79972 -2.93347,-1.81161z" fill="#888888"/><path d="M224.82818,214.27308c-1.20181,-1.87916 -2.69617,-6.20433 -1.30981,-10.44894c1.38637,-4.24463 4.02009,-2.39137 4.02009,-2.39137c0,0 1.48596,4.28577 1.73985,6.58463c0.2313,2.0941 -0.27796,6.65166 -0.27796,6.65166c0,0 -2.97032,1.48317 -4.17215,-0.39605z" fill="#b4b4b4"/><path d="M228.12003,206.16748c0.15492,1.40256 -4.91568,2.04042 -5.07059,0.63794c-0.15492,-1.40256 2.29234,-7.10786 3.09986,-7.19701c0.31275,-0.0345 0.9639,-0.00401 1.27565,1.02874c0.49317,1.6338 0.60017,4.67108 0.69509,5.5304z" fill="#bbbbbb"/></g><g stroke-width="0"><path d="M164.74928,216.72072c0,0 -6.36096,-4.24469 -6.56662,-6.10677c-0.16795,-1.5204 5.8183,-2.3054 5.8183,-2.3054l7.50759,-0.75687l-2.81655,11.15555z" fill="#f399c8"/><path d="M134.58783,221.70351c0,0 -1.19451,-1.97867 -1.05656,-3.07312c0.15223,-1.20785 1.80434,-5.01713 1.80434,-5.01713l22.87853,-2.71357l10.01764,7.56924z" fill="#ee96c3"/></g></g><g stroke-width="0"><g><path d="M227.33376,191.61518l-0.67863,-6.14444l47.52915,-5.24926l0.67863,6.14444z" fill="#61585b"/><path d="M226.81541,188.40914l-0.36336,-3.29033l47.70988,-5.26921l0.36336,3.29032c0,0 -8.58865,0.94853 -17.41134,1.92296c-2.7585,0.30465 -6.47008,2.24105 -9.01899,2.52252c-3.03095,0.33474 -6.44814,-0.81432 -8.39236,-0.59962c-5.82988,0.64387 -12.88719,1.42326 -12.88719,1.42326z" fill="#494344"/><path d="M287.54401,175.05674l-11.3553,-17.79395l20.79281,-2.29639l17.1767,14.97924c0,0 -5.52615,1.97999 -8.71034,2.59149c-4.91343,0.94361 -17.90386,2.51962 -17.90386,2.51962z" fill="#5e555b"/><path d="M287.92323,178.4708l-0.60798,-5.50501c0,0 12.06463,-2.79441 16.84165,-4.10637c3.79109,-1.04118 6.516,-1.9277 6.516,-1.9277l6.66519,6.24485c0,0 -5.12494,2.17184 -9.19903,3.06845c-5.52014,1.21483 -20.21574,2.22585 -20.21574,2.22585z" fill="url(#color-5)"/><path d="M274.52156,157.6067l-0.43866,-3.97205l19.0358,-2.10235l4.0531,3.57283z" fill="url(#color-6)"/><path d="M287.34567,178.55966l-0.13821,-1.25163c0,0 15.50698,-1.7895 20.84254,-2.54735c3.98966,-0.56665 8.21036,-2.61924 8.21036,-2.61924l1.00915,1.04026l-7.94637,2.95067z" fill="#312c30"/><g><path d="M185.77288,179.11262l-1.19751,-8.77996l93.35766,-10.31069l8.83282,10.37492z" fill="#8a6672"/><path d="M203.12176,185.53261c0,0 -3.89408,-3.19763 -6.84226,-4.34249c-2.9482,-1.1449 -9.94067,-0.13372 -9.94067,-0.13372l-0.11761,-2.08676c0,0 12.27914,-1.0781 19.27642,-1.75503c16.71556,-1.61732 80.58347,-7.90678 80.58347,-7.90678l4.32218,6.12958z" fill="#755761"/><path d="M206.22651,187.69583l-3.29168,-2.24404l87.00335,-10.10122l1.53643,2.93016z" fill="#694e57"/><path d="M184.45515,170.7445l-0.49716,-4.50162l90.1828,-10.64355l4.44787,5.20441c0,0 3.10494,3.01542 -2.15214,3.57057c-1.65494,0.17477 -11.09048,-2.17211 -12.74959,-1.99691c-15.97811,1.68731 -79.23171,8.36708 -79.23171,8.36708z" fill="#916b77"/><path d="M184.19841,166.21642l-0.39528,-2.49622l89.35019,-10.00764l1.30148,2.2631z" fill="#9e7582"/><path d="M257.95129,158.75901c-8.09016,0.24164 -72.47652,6.31407 -72.47652,6.31407l87.32309,-9.64419l5.58865,6.86916c0,0 -12.34497,-3.78065 -20.43519,-3.53901z" fill="#b38f9a"/></g><path d="M236.91147,184.30398l-1.00703,-9.11834l20.09007,-2.21883l1.00703,9.11835z" fill="#3a3336"/><path d="M235.81758,175.19944l0.545,-1.59196l18.42638,-2.03507l1.1463,1.40514z" fill="#4b4246"/><path d="M236.99594,183.79225l-0.8977,-8.12816c0,0 1.63079,5.11775 4.39412,5.92557c2.76333,0.80785 16.03225,0.04578 16.03225,0.04578z" fill="#332c30"/><path d="M276.01384,159.67923l-4.55495,-5.53342c0,0 0.94358,-0.77492 1.54057,-0.84082c0.66741,-0.07371 2.27619,0.41935 2.27619,0.41935l4.55495,5.53342z" fill="#757575"/><path d="M279.53574,164.05361l-6.54567,-7.9417l3.81679,-0.42153l6.54567,7.94169z" fill="#5a5a5a"/><path d="M284.46291,169.99762l-6.54567,-7.94169l3.81678,-0.42153l6.54567,7.9417z" fill="#505050"/><path d="M289.55869,176.15514c-1.11797,-1.35641 -5.48015,-6.64896 -5.48015,-6.64896l3.81678,-0.42152l7.70749,9.53805c0,0 -1.98456,0.75793 -2.92999,0.84745c-0.73743,0.06984 -2.62119,-2.71692 -3.11414,-3.31504z" fill="#3b3b3b"/><path d="M184.52533,181.86437l-2.05004,-18.56188l3.16174,-0.3492l2.05004,18.56188z" fill="#443e42"/><path d="M165.93879,185.52581l-1.33235,-5.81693l20.1063,-2.22064l0.65076,5.8922z" fill="url(#color-7)"/><path d="M164.67568,180.33568l-1.19074,-10.78143l20.1063,-2.22064l1.19074,10.78144z" fill="#5e555b"/><path d="M163.49882,169.67981l0.33822,-4.2249l19.31113,-2.1328l0.4569,4.13709z" fill="url(#color-8)"/><path d="M232.93932,158.02151l-0.67332,-6.09627l15.04853,-0.58888l5.11145,4.17523z" fill="#5e555b"/><path d="M252.46508,155.86502l-5.14073,-4.44029c0,0 3.07377,0.35532 5.39816,1.10295c2.32436,0.74761 6.19225,2.62499 6.19225,2.62499z" fill="#776b73"/><path d="M230.06216,159.50186l3.04407,-1.5882l25.41606,-3.07529l3.78831,1.10193z" fill="#6d6269"/></g><g><path d="M237.91344,180.19907c-0.13708,-1.24126 0.2432,-2.44701 0.51641,-3.51299c0.38072,-1.48546 0.8492,-2.73222 2.04223,-3.71531c0.72875,-0.60053 1.81638,-1.11239 2.77297,-1.45985c0.63266,-0.22981 1.58189,-0.73712 2.28066,-0.81431c1.58407,-0.17497 1.93328,-0.13128 3.13052,0.23553c0.72119,0.22098 2.40004,0.48737 3.00557,1.09672c0.51252,0.51571 1.08954,1.40632 1.50381,2.04432c0.70788,1.09034 1.71019,2.85549 1.86263,4.23571c0.06444,0.58329 -0.27761,1.96766 -0.27041,2.48544c0.0229,1.64387 0.07812,2.15048 -1.00684,3.3805c-0.65948,0.7476 -2.09746,1.4576 -3.03035,1.97306c-0.96607,0.53387 -2.13907,1.53474 -3.30476,1.6635c-0.78671,0.0869 -2.26488,-0.28808 -3.04201,-0.33932c-1.68596,-0.1111 -2.59181,-0.18653 -3.7402,-1.20682c-0.98484,-0.87489 -1.41931,-2.43497 -1.93045,-3.74438c-0.26848,-0.6879 -0.70494,-1.55285 -0.7899,-2.32184z" fill="#3a3a3a"/><path d="M238.62704,180.00093c-0.12545,-1.13594 0.2226,-2.23927 0.47255,-3.21478c0.3484,-1.35931 0.77708,-2.5002 1.86887,-3.39989c0.66685,-0.5495 1.6622,-1.01793 2.53751,-1.33591c0.57899,-0.21029 1.44766,-0.67458 2.08699,-0.74518c1.44959,-0.1601 1.76915,-0.12014 2.86475,0.2155c0.65995,0.2022 2.19624,0.44603 2.75039,1.00356c0.46905,0.47194 0.9971,1.28696 1.37613,1.87078c0.64781,0.99778 1.565,2.61306 1.70445,3.87607c0.05896,0.53375 -0.25404,1.80057 -0.24745,2.27445c0.02098,1.50429 0.0715,1.96788 -0.92141,3.09346c-0.60348,0.68414 -1.91942,1.33378 -2.77302,1.80554c-0.88406,0.48854 -1.95749,1.40447 -3.02414,1.52231c-0.7199,0.07953 -2.07259,-0.26362 -2.78372,-0.31045c-1.5428,-0.1016 -2.37172,-0.17068 -3.42269,-1.10433c-0.90122,-0.80065 -1.29881,-2.22825 -1.76648,-3.4265c-0.24563,-0.6295 -0.64506,-1.42103 -0.72281,-2.12469z" fill="#5a5a5a"/><path d="M250.24808,174.16056c-2.29449,-2.14688 -7.3792,-1.78712 -7.3792,-1.78712c0,0 1.87126,-0.74997 3.85018,-0.96153c1.60296,-0.1714 3.20584,0.01824 4.50118,1.18409c1.29641,1.16678 1.8509,2.59927 2.28914,3.95487c0.85927,2.65771 0.68676,5.08413 0.68676,5.08413c0,0 -1.65357,-5.32751 -3.94807,-7.47436z" fill="#6d6d6d"/><path d="M245.50431,179.7338c-0.06324,-0.57223 0.34942,-1.08734 0.92172,-1.15057c0.57223,-0.06324 1.08734,0.34942 1.15057,0.92173c0.06324,0.57223 -0.34942,1.08734 -0.92173,1.15056c-0.57223,0.06324 -1.08734,-0.34942 -1.15056,-0.92173z" fill="#272727"/><path d="M245.44081,179.8785c-0.05794,-0.52489 0.32051,-0.99728 0.84533,-1.05529c0.52489,-0.05794 0.99728,0.32051 1.05529,0.84533c0.05794,0.52489 -0.32051,0.99728 -0.84532,1.05529c-0.52489,0.05794 -0.99728,-0.32051 -1.05529,-0.84532z" fill="#131313"/></g></g></g></g></g><path d="M169.17343,298.85793c-0.17396,-1.5751 -9.08602,-43.47601 -8.77757,-45.19541c0.41648,-2.32152 8.99463,-1.91008 11.77539,-3.73415c8.51639,-5.58655 17.76652,-11.22316 17.76652,-11.22316c0,0 14.04707,-0.9674 18.25797,-1.4324c3.14898,-0.3478 63.16519,-15.51804 65.03519,-5.34027c2.53639,13.80495 -42.01469,6.93567 -40.68305,18.99299c0.33709,3.05236 2.75373,2.98212 2.5369,6.17247c-0.05206,0.76569 -1.82104,6.17142 -1.86002,7.86202c-0.06192,2.68357 3.65271,6.30018 0.7028,9.74409c-2.35148,2.7453 0.11951,7.51974 -0.38197,8.79815c-3.45564,8.80956 -12.15181,5.94241 -21.11022,6.93181c-10.62144,1.17309 -25.66884,6.58094 -35.13154,6.38115c-4.08469,-0.08628 -7.62399,6.62775 -8.13034,2.04288z" fill="#86c8f5" stroke-width="0"/></g></g></svg>