<svg version="1.1" xmlns="http://www.w3.org/2000/svg" xmlns:xlink="http://www.w3.org/1999/xlink" width="469.36623" height="154.36276" viewBox="0,0,469.36623,154.36276"><defs><linearGradient x1="483.30449" y1="185.21708" x2="483.14214" y2="190.02594" gradientUnits="userSpaceOnUse" id="color-1"><stop offset="0" stop-color="#1f1d20"/><stop offset="1" stop-color="#202022"/></linearGradient><linearGradient x1="483.90766" y1="180.37961" x2="483.72085" y2="185.91267" gradientUnits="userSpaceOnUse" id="color-2"><stop offset="0" stop-color="#302d31"/><stop offset="1" stop-color="#1f1e20"/></linearGradient><linearGradient x1="147.69177" y1="217.12556" x2="147.57737" y2="220.51367" gradientUnits="userSpaceOnUse" id="color-3"><stop offset="0" stop-color="#585758"/><stop offset="1" stop-color="#575758"/></linearGradient><linearGradient x1="134.24594" y1="226.75584" x2="134.15613" y2="229.4157" gradientUnits="userSpaceOnUse" id="color-4"><stop offset="0" stop-color="#363536"/><stop offset="1" stop-color="#353536"/></linearGradient><linearGradient x1="280.66222" y1="138.84473" x2="280.47535" y2="144.38009" gradientUnits="userSpaceOnUse" id="color-5"><stop offset="0" stop-color="#5e555b"/><stop offset="1" stop-color="#2b2629"/></linearGradient><linearGradient x1="271.60758" y1="117.86034" x2="271.47272" y2="121.85421" gradientUnits="userSpaceOnUse" id="color-6"><stop offset="0" stop-color="#72676e"/><stop offset="1" stop-color="#5e555b"/></linearGradient><linearGradient x1="158.24616" y1="127.93967" x2="158.04614" y2="133.86432" gradientUnits="userSpaceOnUse" id="color-7"><stop offset="0" stop-color="#5e555b"/><stop offset="1" stop-color="#4d454a"/></linearGradient><linearGradient x1="158.7271" y1="113.69552" x2="158.58665" y2="117.85537" gradientUnits="userSpaceOnUse" id="color-8"><stop offset="0" stop-color="#74686f"/><stop offset="1" stop-color="#5e555b"/></linearGradient></defs><g transform="translate(-18.85771,-109.79373)"><g data-paper-data="{&quot;isPaintingLayer&quot;:true}" fill-rule="nonzero" stroke="none" stroke-linecap="butt" stroke-linejoin="miter" stroke-miterlimit="10" stroke-dasharray="" stroke-dashoffset="0" style="mix-blend-mode: normal"><path d="M381.0486,208.53653c2.74266,8.22849 -0.4557,14.75949 -19.58164,21.1344c-7.09423,2.36459 -19.80855,4.94419 -25.14899,7.46722c-3.96905,1.87514 -6.78657,5.14807 -9.9947,4.22988c-4.11278,-1.17708 -10.27415,-20.04819 -11.24344,-22.95618c-0.8693,-2.60805 3.04563,-5.74342 4.81754,-8.02907c3.81853,-4.92567 9.93092,-8.52932 22.99482,-12.88367c19.12597,-6.37489 35.41375,2.80892 38.15637,11.03738z" fill="#86c8f5" stroke-width="0"/><g><g><g stroke-width="0"><path d="M209.55037,204.21402l-9.70657,-15.68173l25.5808,0.27315c0,0 -1.29453,5.78843 -1.58538,8.47867c-0.28134,2.60237 -0.13208,7.4079 -0.13208,7.4079z" fill="#7f7d7e"/><path d="M209.64207,204.41397l-3.44831,-5.72654c0,0 2.23729,3.63264 5.45081,4.35618c2.31407,0.52101 4.20959,0.27489 6.8787,0.68601c2.66909,0.4111 5.079,1.15571 5.079,1.15571z" fill="#6c6a6b"/></g><g><g><g><path d="M480.15275,189.925l-1.89544,-4.87832c0,0 5.93212,1.8591 8.49791,2.83908c2.56576,0.98001 0.98981,2.06357 0.98981,2.06357z" fill="url(#color-1)" stroke-width="0"/><path d="M487.48344,180.70007c0,0 1.40026,2.3764 -1.22577,3.18113c-2.62603,0.80473 -5.56867,1.92914 -5.56867,1.92914l-0.78329,-5.56584z" data-paper-data="{&quot;index&quot;:null}" fill="url(#color-2)" stroke-width="0"/><path d="M470.54051,189.59588l0.0708,-2.09717l14.76416,0.49849c0,0 1.23005,0.83629 1.70526,1.21881c0.42716,0.34385 -0.76643,0.91245 -0.76643,0.91245z" fill="#444444" stroke-width="NaN"/><path d="M470.64016,187.64319l-1.13082,-1.79306l12.60848,0.42569l3.33668,1.75567c0,0 -4.2235,0.09554 -6.52757,0.03516c-2.59853,-0.06812 -8.28676,-0.42346 -8.28676,-0.42346z" fill="#535353" stroke-width="0"/><path d="M469.39266,185.98297l-0.30297,-0.6506l11.46725,0.38717l1.66679,0.5823z" fill="#363636" stroke-width="0"/><path d="M470.54051,189.59588l0.03841,-1.13771c0,0 6.43463,0.67112 9.31275,0.7683c2.439,0.08235 6.85772,-0.22233 6.85772,-0.22233c0,0 0.84805,0.49112 1.08837,0.70226c0.20273,0.17808 -0.2645,0.46459 -0.2645,0.46459c0,0 -4.7437,0.24456 -7.05614,0.16649c-3.11978,-0.10533 -9.97664,-0.74156 -9.97664,-0.74156z" fill="#3a3a3a" stroke-width="NaN"/><path d="M469.40982,185.36147l-0.52338,-0.90189l13.63386,0.46031l-1.85152,0.85562z" fill="#242424" stroke-width="0"/><path d="M468.07246,184.62144l0.05583,-1.65336c0,0 8.09568,0.06702 11.08971,0.16811c2.03988,0.06886 5.13752,0.37976 5.13752,0.37976l-1.86286,1.42731z" fill="#3a3a3a" stroke-width="0"/><path d="M467.99736,183.00622l0.06892,-2.04139c0,0 7.66005,-0.07146 10.97245,0.04037c2.86636,0.09678 7.75797,0.59201 7.75797,0.59201l-2.48575,1.95981c0,0 -3.65007,-0.20575 -5.89319,-0.28151c-2.98169,-0.10068 -10.42038,-0.26929 -10.42038,-0.26929z" fill="#444444" stroke-width="0"/><path d="M468.02028,181.04841l0.02871,-0.8506c0,0 7.87352,0.14204 11.46868,0.26344c2.5034,0.08452 8.03854,0.3952 8.03854,0.3952l-0.89325,0.82141c0,0 -5.04136,-0.45903 -8.00488,-0.5591c-3.26507,-0.11023 -10.6378,-0.07035 -10.6378,-0.07035z" fill="#535353" stroke-width="0"/><path d="M467.91665,180.27854l0.01149,-0.34024c0,0 7.68908,-0.24772 11.14743,-0.13096c2.99009,0.10097 8.40297,0.79104 8.40297,0.79104l0.02607,0.3415c0,0 -5.99989,-0.36763 -9.2431,-0.47713c-3.28559,-0.11095 -10.34487,-0.18422 -10.34487,-0.18422z" fill="#4e4e4e" stroke-width="0"/></g><g stroke-width="0"><g><g><g><path d="M464.70656,188.91062l-4.13503,-13.31075l0.61077,-1.70171c0,0 3.36388,3.34462 4.20166,5.86471c0.45484,1.36815 0.77628,9.19682 0.77628,9.19682z" fill="#383638"/><path d="M465.78045,188.25507c0,0 0.0789,-0.60737 -0.46653,-3.08208c-0.59482,-2.69876 -1.86373,-6.38072 -2.22042,-7.46736c-0.80065,-2.43911 -1.55072,-2.59498 -1.55072,-2.59498l4.81687,-0.41951l4.50876,13.73572z" fill="#555355"/><path d="M461.60385,175.19812l-0.53978,-1.25529c0,0 2.04606,-0.73137 3.00714,-0.69893c0.90058,0.03041 2.01066,0.79557 2.01066,0.79557l0.53732,1.328z" fill="#686668"/></g><path d="M459.03705,188.7192l-4.13503,-13.31074l0.27947,-1.69273c0,0 3.69519,3.33563 4.53298,5.85573c0.45483,1.36814 0.77628,9.19682 0.77628,9.19682z" fill="#383638"/><path d="M460.11093,188.06365c0,0 0.0789,-0.60738 -0.46652,-3.08208c-0.59482,-2.69876 -1.86373,-6.38072 -2.22042,-7.46736c-0.80065,-2.43911 -1.55072,-2.59498 -1.55072,-2.59498l4.0842,-0.94454c0,0 0.9832,1.28816 1.22724,2.03159c0.69528,2.1181 4.01424,12.22916 4.01424,12.22916z" fill="#555355"/><path d="M455.93439,175.00667l-0.75783,-1.26267c0,0 2.26406,-0.72403 3.22518,-0.69156c0.90058,0.03041 1.71992,0.78576 1.71992,0.78576l0.66224,1.3322z" fill="#686668"/><path d="M466.63184,187.28948c0.02766,-0.81906 0.71405,-1.4606 1.53311,-1.43295c0.81906,0.02766 1.4606,0.71405 1.43295,1.53311c-0.02766,0.81906 -0.71405,1.4606 -1.53311,1.43295c-0.81906,-0.02766 -1.4606,-0.71405 -1.43295,-1.53311z" fill="#312f31"/><path d="M467.38594,184.38403l-1.81107,-5.61083l1.59526,-0.08956l1.80891,5.6753z" fill="#444144"/></g><path d="M419.89452,182.42833l-3.39732,-10.9444l29.82565,2.18412l-0.79585,9.6257z" fill="#444444"/><path d="M432.66032,178.94163c0,0 0.65321,-0.5002 1.41239,-1.58007c0.69414,-0.98737 1.47956,-2.53963 1.87966,-2.99015c1.0323,-1.67259 3.39373,-1.12578 3.39373,-1.12578l-1.00107,0.61962l-4.54253,5.11493z" fill="#292929"/><path d="M435.10278,189.55953l-6.14037,-11.18499c0,0 3.47881,0.64908 5.21688,-0.34195c1.35061,-0.77011 1.34532,-3.40376 2.93128,-3.63128c4.55018,-0.65275 17.43202,-0.65195 17.43202,-0.65195c0,0 2.99724,7.25023 3.82651,10.16693c0.5725,2.01358 0.83423,6.45695 0.83423,6.45695z" fill="#4a464a"/><path d="M439.6799,176.59805c-4.53676,-0.78961 -3.05074,-2.10415 -3.05074,-2.10415c0,0 0.83623,-1.27476 2.70741,-1.35779c4.59187,-0.20382 13.21054,0.66441 14.93266,0.69688c0.81219,0.01532 0.32288,0.70708 0.32288,0.70708c0,0 -1.56903,2.33436 -3.12736,2.5359c-1.55835,0.20156 -7.24811,0.31169 -11.78487,-0.47793z" fill="#5e595e"/></g><g><path d="M423.08366,195.73277l-4.55315,-18.09945l18.88736,0.92417l4.65066,4.48783l6.09908,0.10734l2.51324,13.51184z" fill="#4d4846"/><path d="M427.75848,196.27795l20.96136,-8.68919l22.31714,0.51094c0,0 1.17014,4.22473 1.26728,5.5834c0.04951,0.69268 -0.25422,2.93718 -0.25422,2.93718z" fill="#423d3b"/><path d="M424.22732,187.84296l-2.84543,-9.94783l0.82005,0.02768l2.84543,9.94783z" fill="#363332"/><path d="M428.37077,195.49658l0.04108,-1.21669c0,0 5.34736,-2.36635 14.40711,-2.06048c1.20372,0.04063 5.36373,2.728 6.57698,2.76896c7.69772,0.25988 15.23232,0.51428 18.09878,0.61106c2.33442,0.07881 4.76215,-1.13995 4.76215,-1.13995l-0.08495,2.51596z" fill="#312e2c"/><path d="M431.16919,182.84357l-1.58686,-4.67158l8.30297,0.28035l4.00346,4.559l6.29639,0.40676l-7.65118,1.69151z" fill="#585350"/><path d="M421.45035,189.54511l0.03807,-1.12756c0,0 8.16758,-3.46997 11.04318,-3.37287c4.33387,0.14631 16.29842,0.55028 16.29842,0.55028l-0.03807,1.12756c0,0 -12.16961,-0.41089 -16.50343,-0.55721c-2.81652,-0.0951 -10.83817,3.3798 -10.83817,3.3798z" fill="#2b2827"/></g></g></g><g><g><g><path d="M85.5693,220.88308c0.46511,2.25097 0.06851,4.82858 -1.03083,5.05572c-1.09931,0.22715 -2.48502,-1.98218 -2.95014,-4.23317c-0.46511,-2.25097 -2.30893,-10.8885 -1.20962,-11.11565c1.09931,-0.22715 4.72546,8.04212 5.19057,10.2931z" fill="#615e5f" stroke-width="0"/><g><path d="M128.148,192.37463c-0.52122,-0.54551 -2.81629,-1.93614 -2.81629,-1.93614l10.01153,-2.54363l-6.23955,6.99345c0,0 -0.43449,-1.96819 -0.95573,-2.51367z" fill="#756a6a" stroke-width="0"/><path d="M119.18383,190.37383l0.46343,-13.72551l18.72076,-5.23795l-0.66137,19.58884z" fill="#8a7c7c" stroke-width="0"/><path d="M78.98702,194.46682l7.27477,-17.89804l34.91793,1.04551l4.10333,12.81242c0,0 -23.02999,0.79939 -30.75289,1.47334c-3.20586,0.27976 -15.54313,2.56679 -15.54313,2.56679z" fill="#7c787a" stroke-width="0"/><path d="M86.2989,178.97622l-0.09809,-1.48562c0,0 25.90948,0.87479 34.05467,1.14975c4.55726,0.15385 16.3539,-5.82186 16.3539,-5.82186l-0.05499,1.6287c0,0 -11.50198,5.96632 -15.90895,5.8029c-8.08073,-0.29971 -34.34656,-1.27388 -34.34656,-1.27388z" fill="#535353" stroke-width="0"/><path d="M46.9019,194.09179l0.68007,-20.14251c0,0 4.76659,-6.89723 12.08414,-8.94744c9.08868,-2.54644 25.90761,-0.19245 27.97706,-0.12258c1.5881,0.05363 -13.25174,9.97517 -13.25174,9.97517l-0.68007,20.14251z" fill="#8d898b" stroke-width="0"/><path d="M221.30781,153.81111l1.70781,-3.0884l107.49909,3.7724l-0.49759,14.73784c0,0 -37.82135,0.5696 -50.02119,-0.25862c-6.05876,-0.41132 -58.6881,-15.16322 -58.6881,-15.16322z" fill="#c98cac" stroke-width="0"/><path d="M196.24798,254.02268l-4.10455,-13.08238c0,0 4.93808,6.00953 7.74777,7.18185c1.79013,0.74692 6.00101,1.27108 12.19054,-0.95875c4.98281,-1.79511 10.33451,-7.12835 10.33451,-7.12835l-12.17254,14.46014z" fill="#a08e97" stroke-width="0"/><path d="M288.26927,210.18678l-1.53956,-23.68685l18.58417,-0.77611l-0.71526,21.18495c0,0 -6.45177,1.50228 -9.23884,2.10682c-1.28331,0.27839 -7.09049,1.17117 -7.09049,1.17117z" fill="#96858d" stroke-width="0"/><path d="M194.28497,257.70438l0.18695,-5.53701c0,0 11.98657,2.47442 16.70882,-0.48926c3.19504,-2.0052 35.86571,-40.55872 35.86571,-40.55872c0,0 3.48475,-3.65771 3.58602,-6.53812c0.05095,-1.44897 0.66162,-5.60945 -0.09145,-7.94755c-0.75979,-2.35899 -2.88366,-2.88928 -2.88366,-2.88928l-4.41141,-13.72895l19.7999,0.81227l-3.8044,26.46001l3.6696,2.68724c0,0 -9.75204,5.67431 -14.54556,10.47094c-7.50007,7.50501 -31.90133,37.08338 -31.90133,37.08338z" fill="#918189" stroke-width="0"/><path d="M265.0904,209.75714l2.17809,-28.54664l13.75849,0.74043l9.95279,12.34504l-2.79089,16.24107z" fill="#96858d" stroke-width="0"/><path d="M260.50599,211.45262l-2.36795,-4.22807l4.42068,-26.05555l5.07981,0.08676l-1.63984,28.54761z" fill="#8f8187" stroke-width="0"/><path d="M286.95179,210.59891c0,0 2.97513,-6.57041 1.80579,-12.0238c-0.6733,-3.14001 -5.51498,-5.27434 -5.92774,-7.19928c-0.78847,-3.67715 -2.00826,-9.36574 -2.00826,-9.36574l7.70339,4.62653c0,0 3.16078,7.3246 3.6144,11.60385c0.30476,2.87501 -1.39323,9.19732 -2.40702,11.76344c-0.08546,0.21633 -1.25813,0.09343 -1.31533,0.25691c-0.13969,0.39937 0.81617,0.66311 0.81617,0.66311z" fill="#86787e" stroke-width="0"/><path d="M288.25983,188.12844c0,0 -2.95561,-4.057 -7.60266,-5.18606c-5.261,-1.2782 -22.35066,-2.09145 -22.35066,-2.09145l158.1261,-8.85113l3.09968,9.41173l7.53734,11.40349c0,0 -100.64772,-5.97104 -121.22436,-6.66576c-6.71443,-0.22669 -17.58546,1.97917 -17.58546,1.97917z" fill="#df8db7" stroke-width="0"/><path d="M132.53458,230.17801l-3.57144,-36.41109c0,0 1.80883,-3.69174 2.317,-3.89037c5.60265,-2.19005 37.98051,-11.75475 43.40698,-11.2851c5.94441,0.51447 -9.56779,11.92612 -9.56779,11.92612c0,0 -14.46995,1.53852 -17.14964,5.70039c-3.6382,5.65056 0.62086,23.15777 0.62086,23.15777z" fill="#c77da3" stroke-width="0"/><path d="M205.92358,202.70985l-1.71742,-2.16445c0,0 6.84569,-8.38034 9.35522,-10.58964c2.59086,-2.28091 5.95378,-2.88787 5.95378,-2.88787l5.85442,2.50118c0,0 -4.45655,-0.65332 -6.87687,0.98222c-2.07774,1.40404 -5.93158,4.35438 -8.83455,7.35045c-2.11167,2.17943 -3.73458,4.80813 -3.73458,4.80813z" fill="#414041" stroke-width="0"/><path d="M86.01504,177.91973l5.19171,-11.52089l48.60073,1.6409c0,0 -3.04727,4.35516 -6.23144,6.2149c-3.12515,1.82528 -12.69983,4.84211 -12.69983,4.84211z" fill="#979395" stroke-width="0"/><path d="M86.8531,176.80449l4.39214,-11.5479l48.60073,1.6409c0,0 -3.04727,4.35516 -6.23144,6.2149c-3.12515,1.82528 -12.69983,4.84211 -12.69983,4.84211z" fill="#bdb7ba" stroke-width="0"/><path d="M289.34778,211.0007l-1.85452,-0.57639l16.98016,-3.60388c0,0 -3.62777,1.93606 -6.13718,2.64872c-2.50943,0.71267 -8.98842,1.53154 -8.98842,1.53154z" fill="#887980" stroke-width="0"/><path d="M135.0032,230.7261c0,0 -1.98574,-10.53847 -2.89805,-19.1126c-0.91675,-8.61598 -1.75112,-16.69543 -1.65222,-20.27883c0.01676,-0.6071 1.99902,-10.47648 2.51611,-10.98074c2.79111,-2.72179 10.26718,5.2786 15.86536,4.36346c8.28906,-1.35505 27.40399,-1.22408 27.40399,-1.22408l-8.6281,5.0224c0,0 -19.53522,2.20721 -22.09886,7.26083c-3.46755,6.83552 3.3946,27.95185 3.3946,27.95185z" fill="#d486ae" stroke-width="0"/><path d="M136.2528,227.24744c0,0 -5.27819,-41.07306 -3.61201,-51.09954c0.77959,-4.69128 -2.26599,-13.90716 -2.26599,-13.90716l50.40323,8.67437l0.88085,16.10888c0,0 -31.91966,-4.17265 -38.47818,1.88344c-4.37803,4.04263 1.47417,32.49938 1.47417,32.49938z" fill="#e490bb" stroke-width="0"/><g stroke-width="0"><path d="M276.72356,168.96045l0.27921,-8.27015l9.35468,0.31584l-0.27921,8.27015z" fill="#454545"/><path d="M277.58126,168.22417l-0.11025,-7.30598l11.31974,0.38219l-0.24627,7.29396z" fill="#b0b0b0"/><path d="M277.50231,163.72992l-0.13293,-2.83642l11.5363,0.3895l-0.06437,1.90632c0,0 -7.79928,0.05932 -9.50238,0.14052c-0.56907,0.02713 -1.83661,0.40011 -1.83661,0.40011z" fill="#bebebe"/><path d="M288.81629,168.05366c0,0 -5.45131,-2.74085 -4.75416,-6.46715c1.03591,-5.53722 5.13866,-4.92031 5.13866,-4.92031l40.17452,2.6905l-0.33948,10.05488z" fill="#9c989a"/><path d="M290.64603,166.82546c0,0 -2.36661,-3.60083 -2.57934,-4.5354c-0.31532,-1.38526 1.7781,-4.2736 1.7781,-4.2736l41.57093,1.43691l-0.65245,7.47091z" fill="#898587"/><path d="M290.54906,167.02059l-0.9536,-1.97268l38.20996,1.29007l-0.06545,1.9383z" fill="#c1bcbf"/><path d="M290.54249,163.62446c0,0 -1.28641,-1.4122 -1.25479,-2.34898c0.02958,-0.8763 1.43885,-3.10243 1.43885,-3.10243l38.64466,1.30476l-0.18407,5.45143z" fill="#0d0d0d"/><path d="M290.51625,164.40133c0,0 -1.26604,-2.01562 -1.23441,-2.95242c0.02958,-0.8763 1.41848,-2.49901 1.41848,-2.49901l38.64466,1.30476l-0.18407,5.45143z" fill="#2e2e2e"/><path d="M285.62879,166.1407c-2.53385,-3.15423 -1.2905,-5.45015 -1.2905,-5.45015c0,0 1.69245,4.17181 2.89694,5.11061c1.42607,1.11144 4.98777,2.59844 4.98777,2.59844l-3.50913,-0.04826c0,0 -2.63912,-1.6555 -3.08506,-2.21063z" fill="#7d7a7c"/><path d="M293.10436,164.79859c0,0 -0.81374,-2.24076 -0.77514,-3.38365c0.03391,-1.00466 0.9945,-3.11266 0.9945,-3.11266l4.82059,0.16275c0,0 -0.53521,2.18716 -0.56452,3.0549c-0.04027,1.19261 0.34519,3.44138 0.34519,3.44138z" fill="#555555"/><path d="M301.71613,165.08932c0,0 0.75142,-2.49918 0.79,-3.64208c0.03391,-1.00465 -0.57067,-2.85422 -0.57067,-2.85422l5.38027,0.18164c0,0 -0.47431,1.70004 -0.5036,2.56778c-0.04027,1.19261 0.28427,3.9285 0.28427,3.9285z" fill="#555555"/><path d="M311.03746,165.40406c0,0 0.75143,-2.49918 0.79001,-3.64208c0.03391,-1.00466 -0.57068,-2.85422 -0.57068,-2.85422l5.30031,0.17896c0,0 -0.47431,1.70004 -0.5036,2.56778c-0.04027,1.19261 0.28427,3.9285 0.28427,3.9285z" fill="#555555"/><path d="M320.69528,165.73013c0,0 0.91712,-2.13783 0.9557,-3.28073c0.03391,-1.00465 -0.73637,-3.21556 -0.73637,-3.21556l5.14041,0.17356c0,0 0.76041,2.00853 0.73114,2.87631c-0.04027,1.19261 -0.95047,3.61999 -0.95047,3.61999z" fill="#555555"/><path d="M293.0339,158.99687l-0.63774,-0.82199l35.54235,1.20002l-1.56037,0.74779c0,0 -2.82847,-0.09549 -5.28928,-0.17859c-0.53639,-0.0181 -1.54032,-0.38094 -2.34373,-0.4081c-0.77683,-0.02622 -1.34552,0.28354 -2.31115,0.25093c-1.50582,-0.05084 -3.20478,-0.10821 -4.98346,-0.16826c-0.73743,-0.0249 -1.3661,-0.4299 -2.12283,-0.45544c-0.67287,-0.02272 -1.47265,0.33406 -2.14872,0.31124c-1.67792,-0.05665 -3.33928,-0.11275 -4.9013,-0.16549c-0.71729,-0.02421 -1.39883,-0.48584 -2.06622,-0.50838c-0.81471,-0.0275 -1.60104,0.38456 -2.31485,0.36044c-2.9118,-0.0983 -4.86269,-0.16417 -4.86269,-0.16417z" fill="#474747"/></g><g><path d="M143.63839,221.06423l3.81172,-2.7404c0,0 2.72833,2.90861 5.53055,3.89871c2.47844,0.87569 10.43098,1.74082 10.43098,1.74082l-2.80047,4.26222z" fill="#6d6a6b" stroke-width="0"/><path d="M135.3647,227.28878l9.47542,-7.06948c0,0 3.15674,2.36442 5.30195,3.09911c3.24534,1.11148 12.27553,2.92092 12.27553,2.92092l-4.42066,4.16054z" fill="#615e5f" stroke-width="0"/><path d="M136.62108,249.31112l-0.72074,-22.61025c0,0 4.32503,0.93841 9.14257,1.13071c3.7603,0.15008 7.83434,-0.55997 10.29616,0.13185c4.32187,1.2145 37.41193,14.69446 37.41193,14.69446l2.13373,10.25264z" fill="#575455" stroke-width="0"/><path d="M159.11276,223.01318c7.11715,-5.32808 15.63591,-18.5002 16.98033,-21.02766c0.96853,-1.82085 1.83366,-7.07068 1.83366,-7.07068l7.46936,7.07089c0,0 5.15487,20.68248 5.90805,33.36185c0.21075,3.54782 2.59367,7.57572 1.35859,9.00129c-1.10659,1.27727 -18.13549,2.99355 -23.50087,2.04721c-11.29119,-1.99154 -17.17409,0.60095 -20.73866,-4.79773c-3.5646,-5.39868 3.74372,-11.42578 3.74372,-11.42578c0,0 5.093,-5.77226 6.94581,-7.15938z" fill="#504e4f" stroke-width="0"/><path d="M165.02329,190.36878c0,0 0.44597,-1.47857 1.32487,-2.11279c1.13034,-0.81566 4.89461,-2.37524 4.89461,-2.37524c0,0 9.29184,2.38224 12.21638,4.97242c2.6983,2.38976 -3.92577,12.45315 -3.92577,12.45315l-1.82447,-5.42602z" fill="#464445" stroke-width="0"/><path d="M186.65095,238.35337c0,0 -9.49005,5.93893 -17.9754,5.82397c-8.18586,-0.1109 -15.38072,-6.249 -15.22576,-7.66683c0.08395,-0.76816 8.11894,-3.8041 11.73592,-7.90578c4.02063,-4.55946 3.72489,-10.27423 5.14279,-12.23794c3.95847,-5.48226 12.74209,-15.36999 11.88559,-21.44602c-0.89822,-6.37205 -11.53968,-8.80636 -11.53968,-8.80636c0,0 3.92498,-2.12046 8.91219,-2.08203c2.12437,0.01637 6.62261,1.55487 7.53237,1.97077c2.98336,1.36381 4.91775,3.0663 4.91775,3.0663c0,0 3.82113,-4.75309 7.43163,-4.94082c3.6105,-0.18774 22.32611,3.39345 22.32611,3.39345l-16.62627,12.03982z" fill="#555354" stroke-width="0"/><path d="M169.91233,216.94806c0,0 4.98505,-10.7107 9.89614,-15.98287c4.91107,-5.27219 9.09448,-8.31324 12.62482,-8.19404c2.55649,0.0863 5.55211,8.80775 5.55211,8.80775l-12.0414,28.37907c0,0 -14.72348,2.78388 -16.11621,0.25478c-1.09996,-1.99749 0.08452,-13.2647 0.08452,-13.2647z" fill="#585758" stroke-width="0"/><path d="M191.53368,244.99331c0,0 -2.66762,-6.28466 -2.23955,-9.29413c0.59799,-4.20422 2.46804,-16.80223 2.46804,-16.80223l1.60343,10.49577c0,0 -0.96903,9.72034 -0.93864,12.75299c0.02931,2.92599 1.37859,5.14318 1.37859,5.14318z" fill="#3f3e3f" stroke-width="0"/><path d="M191.20841,227.10692c-0.13881,-1.68045 0.38809,-9.37796 0.38809,-9.37796c0,0 10.04431,-14.23715 12.23004,-16.81795c0.64078,-0.75658 4.0529,-2.37329 4.0529,-2.37329l-1.80913,4.79559c0,0 -1.59332,0.55054 -1.78916,1.02204c-0.20865,0.50233 0.5733,1.90534 0.5733,1.90534l-5.41209,8.30222c0,0 -1.68375,0.95429 -1.87988,1.45334c-0.19619,0.49917 0.46108,1.41 0.46108,1.41c0,0 -4.15386,8.80612 -5.07734,11.19107c-0.427,1.10273 -0.24039,2.54247 -0.24039,2.54247c0,0 -1.35862,-2.37239 -1.49744,-4.05284z" fill="#474647" stroke-width="0"/><path d="M178.79738,205.70757l20.76895,8.9412c0,0 -1.22242,0.97158 -1.47765,1.50233c-0.18834,0.39163 0.08503,1.39352 0.08503,1.39352z" fill="#3f3e3e" stroke-width="NaN"/><path d="M185.1433,195.56297l21.16137,7.77731c0,0 -1.14283,0.80522 -1.3725,1.35411c-0.23942,0.57221 0.09349,1.66328 0.09349,1.66328z" fill="#3f3e3e" stroke-width="NaN"/><path d="M171.74262,223.80688c0,0 10.42677,8.04942 16.09984,14.22197c5.67308,6.17255 3.69277,7.3132 3.69277,7.3132z" fill="#636162" stroke-width="NaN"/><path d="M185.79986,201.21173c0,0 -6.0952,2.69993 -8.94746,5.70134c-2.85227,3.00139 -11.72756,18.89387 -11.62817,15.95004c0.09938,-2.94385 13.91287,-23.21042 15.70677,-23.14984c0.67907,0.02293 3.75215,-1.01623 4.5621,-0.75129c1.32965,0.43498 0.3068,2.24978 0.3068,2.24978z" fill="#918f91" stroke-width="0"/><path d="M136.1695,249.16637l13.9986,-1.41672c0,0 12.59993,0.09295 15.72961,0.35377c7.62165,0.63514 30.16646,3.47099 30.16646,3.47099l-0.66007,6.30238c0,0 -24.4674,2.7414 -31.31349,1.19387c-1.98057,-0.44769 -7.77307,-1.26168 -11.98077,-2.7567c-8.23427,-2.92571 -15.94035,-7.14757 -15.94035,-7.14757z" fill="#626061" stroke-width="0"/><path d="M194.41163,257.49123c0,0 0.18526,-4.28885 -0.18448,-6.64253c-0.41557,-2.64546 -2.18753,-8.45742 -2.18753,-8.45742l1.78131,0.06014c0,0 1.5678,4.51228 1.94404,6.90718c0.41131,2.61843 0.428,8.19274 0.428,8.19274z" fill="#4a494a" stroke-width="0"/><path d="M194.18827,258.32047l0.20283,-3.39224c0,0 0.5575,0.28367 0.82885,0.29285c0.32241,0.0109 0.93765,-0.2332 0.93765,-0.2332l0.06646,3.1806c0,0 -0.78987,0.38119 -1.16081,0.40888c-0.28425,0.02121 -0.87492,-0.25689 -0.87492,-0.25689z" fill="#363536" stroke-width="0"/><path d="M192.27992,243.42534l-0.33095,-1.63272c0,0 0.4291,-0.34012 0.79937,-0.38688c0.35264,-0.04453 0.87061,0.09578 0.87061,0.09578l0.44275,1.75231c0,0 -0.49868,0.4909 -0.80394,0.52026c-0.28761,0.02768 -0.97783,-0.34878 -0.97783,-0.34878z" fill="#585758" stroke-width="0"/><path d="M152.60204,255.64818c0,0 -7.79104,-3.21755 -7.74502,-4.5798c0.04622,-1.36905 6.31934,-2.32871 6.31934,-2.32871c0,0 10.94581,0.12865 15.89414,0.46841c2.77029,0.19021 11.26847,1.39664 11.26847,1.39664c0,0 7.25209,1.29967 8.02782,2.47822c0.84621,1.28558 -3.11162,3.9952 -3.11162,3.9952c0,0 -12.76067,0.87597 -16.7162,0.53406c-1.40513,-0.12146 -13.93696,-1.96395 -13.93696,-1.96395z" fill="#6b696a" stroke-width="0"/><path d="M142.45783,248.40026l-1.96837,0.16446c0,0 0.74192,-3.4116 3.41849,-2.07829c2.67656,1.33329 21.67384,0.96268 21.67384,0.96268z" fill="#4b4949" stroke-width="0"/><path d="M136.24726,249.02489c0,0 -2.0031,0.12407 -2.41497,-3.53467c-0.20848,-1.85202 -1.46858,-16.0948 -1.46858,-16.0948l3.83165,-2.7714c0,0 0.47916,6.01332 0.58728,8.92088c0.14378,3.86699 0.38726,13.51111 0.38726,13.51111z" fill="#3f3d3e" stroke-width="0"/><path d="M142.77384,248.57697c0,0 3.26368,-2.04917 19.3223,-1.8443c1.32614,0.01692 -1.79308,-0.09256 7.58419,0.73165c9.37726,0.82418 13.23224,2.46787 13.23224,2.46787c0,0 -15.02152,-1.57716 -21.22081,-1.78648c-7.06643,-0.23859 -18.9179,0.43128 -18.9179,0.43128z" fill="#838082" stroke-width="0"/><path d="M148.82151,219.13211c0,0 -4.44194,2.0387 -6.67026,3.57996c-2.50458,1.73232 -7.6255,6.30791 -7.6255,6.30791l-0.73,-1.62718c0,0 3.89049,-3.72451 6.15783,-5.2928c2.47898,-1.71461 8.13792,-4.59509 8.13792,-4.59509z" fill="#4a494a" stroke-width="0"/><path d="M149.76369,218.90595l-3.61572,1.55944c0,0 0.11815,-0.64279 0.00695,-0.89068c-0.13212,-0.29452 -0.65349,-0.72034 -0.65349,-0.72034l3.20361,-1.69458c0,0 0.73828,0.51186 0.93119,0.83005c0.14781,0.24381 0.12745,0.91611 0.12745,0.91611z" fill="url(#color-3)" stroke-width="0"/><path d="M135.47007,228.2731l-3.04137,2.62865l-0.07012,-2.18626l2.14585,-1.95092c0,0 0.72046,0.19454 0.8859,0.45298c0.15586,0.24349 0.07976,1.05554 0.07976,1.05554z" fill="url(#color-4)" stroke-width="0"/></g><path d="M266.27533,208.70006c0,0 1.07597,-4.38487 1.62587,-5.75619c0.37329,-0.93091 2.79363,-2.28166 2.79363,-2.28166l17.01711,0.35622c0,0 -1.47207,5.75135 -1.89902,7.10398c-0.18704,0.59255 -1.27576,1.2488 -1.27576,1.2488z" fill="#665b60" stroke-width="0"/><path d="M218.3049,188.81351c0,0 -3.73932,-1.68959 -8.62608,-3.00749c-3.10656,-0.8378 -7.35497,-1.54832 -9.21851,-1.50541c-5.41786,0.12476 -8.10768,5.14175 -8.10768,5.14175c0,0 -3.19326,-2.42488 -5.27085,-3.3502c-1.93936,-0.86373 -6.25622,-2.01102 -6.25622,-2.01102c0,0 24.71725,-4.25965 28.5858,-4.70949c7.41633,-0.86237 34.06913,0.4291 34.06913,0.4291l5.73834,14.48758z" fill="#8b7c84" stroke-width="0"/><g stroke-width="0"><path d="M267.76098,207.80692c0,0 0.5589,-2.57887 0.99921,-3.4593c0.45657,-0.9129 2.67458,-1.89102 2.67458,-1.89102l14.52174,0.4903c0,0 0.35293,0.99541 0.09277,1.72485c-0.35371,0.99177 -3.22139,3.64388 -3.22139,3.64388z" fill="#585852"/><path d="M267.78613,207.06198c0,0 0.53373,-1.83393 0.97404,-2.71435c0.45657,-0.9129 2.69974,-2.63597 2.69974,-2.63597l14.52174,0.4903c0,0 0.32777,1.74039 0.06763,2.4698c-0.35371,0.99177 -3.19623,2.89891 -3.19623,2.89891z" fill="#797971"/><path d="M284.20177,202.63772c-1.04226,-0.21325 -12.64906,-0.87661 -12.64906,-0.87661l14.50189,0.48962l-0.08307,2.46043c0,0 -0.72749,-1.86019 -1.76974,-2.07342z" fill="#85857b"/></g><path d="M269.80445,189.69745l0.17511,-5.1868l7.13184,0.2408l1.12157,5.23057z" fill="#7c6e75" stroke-width="0"/><path d="M260.27795,162.93715l-3.89995,-8.26756l1.37854,0.04654l5.8191,8.78424z" fill="#d495b6" stroke-width="0"/><path d="M221.55403,153.99637l13.31577,-2.64187l21.70598,3.34685l3.72763,8.22272z" fill="#df9cbe" stroke-width="0"/><path d="M269.79692,194.7276l0.05473,-1.62089l10.85985,0.36665l0.91779,1.65371z" fill="#7c6e75" stroke-width="0"/><path d="M229.6582,181.21135c0,0 -18.16374,0.58585 -23.81021,0.89563c-8.54996,0.4691 -25.68898,2.21703 -25.68898,2.21703c0,0 15.16499,-3.93115 28.71587,-4.9906c14.69262,-1.14871 58.76626,-1.11889 58.76626,-1.11889l-0.1825,5.40597z" fill="#75686e" stroke-width="0"/><path d="M222.44778,189.74337l-3.22213,-0.67993c0,0 9.84536,-2.05338 15.15612,-1.11081c5.31079,0.94252 14.40904,6.35794 14.40904,6.35794z" fill="#7c6e76" stroke-width="0"/><path d="M176.15412,184.14789c0,0 -31.81929,-16.47954 -32.55439,-21.1271c-0.66772,-4.22176 29.72556,3.35291 30.02679,3.25479c5.27116,-1.71699 77.35661,-6.50218 77.35661,-6.50218l26.3645,7.68333l52.75114,1.20927l6.84601,13.81431c0,0 -61.56349,-0.90899 -85.32173,-1.54799c-8.24712,-0.22181 -25.04797,-1.43713 -40.38162,-0.81388c-11.82789,0.48074 -29.64979,4.19811 -29.64979,4.19811z" fill="#ee96c3" stroke-width="0"/><path d="M46.67285,192.3267l4.00509,-20.03026c0,0 0.13654,-7.05355 7.45409,-9.10378c9.08868,-2.54644 25.90761,-0.19245 27.97706,-0.12258c1.5881,0.05363 -13.25174,9.97517 -13.25174,9.97517l-0.68007,20.14251z" fill="#c4b4b3" stroke-width="0"/><g stroke-width="0"><path d="M328.28759,183.57082l-2.34455,-15.23065l92.47568,9.89056l-0.95228,5.7781l-47.56546,3.25395z" fill="#ad6d8e"/><path d="M355.10171,170.13174l7.54773,-8.02262l26.83132,-1.22435l-4.65356,10.25059z" fill="#8d788b"/><path d="M329.60511,170.46021l0.54783,-16.22604l32.56659,7.88148l-4.80787,6.71057z" fill="#857183"/><path d="M372.11176,168.57257l17.30634,-7.68868l27.69848,4.70998l-0.51854,6.88043z" fill="#947e92"/><path d="M325.45897,169.71136l3.32274,-12.66106l1.54938,-3.01327l-0.5083,15.05524z" fill="#756474"/><path d="M329.67461,180.40146l-0.31352,-12.09021l43.34478,-0.18635l-1.76719,16.00653z" fill="#746373"/><path d="M370.93153,184.11572c0,0 0.59262,-6.29106 0.88721,-9.12688c0.25223,-2.42795 0.77302,-6.85529 0.77302,-6.85529l44.14417,2.40004l1.71543,8.4627z" fill="#867284"/><path d="M325.50179,169.64232l4.07696,-1.39413l0.12562,12.16188z" fill="#6f5e6d"/><path d="M409.90903,165.24285l-19.69339,-4.03047l26.58936,4.53617l-0.48307,3.53118c0,0 -0.26045,-1.57899 -1.4443,-2.32422c-0.79193,-0.49853 -4.9686,-1.71265 -4.9686,-1.71265z" fill="#978195"/><path d="M370.46056,167.86669c0,0 8.08703,-3.1942 10.90936,-4.45377c2.05596,-0.91755 4.46609,-2.40811 4.46609,-2.40811l2.52857,0.19806l-15.25688,6.75319z" fill="#9c859a"/><path d="M356.06063,168.18933c0,0 1.40852,-2.70631 2.80359,-4.01024c1.39507,-1.30396 3.72948,-2.04081 3.72948,-2.04081l-4.07294,6.13413z" fill="#806b7d"/><path d="M391.05319,159.19231l2.32558,-5.65807l15.06538,4.2441l5.38085,6.58531z" fill="#55494f"/><path d="M388.42683,161.90538c0,0 1.10849,-0.75323 1.68829,-1.31875c0.43673,-0.426 1.17105,-1.78655 1.17105,-1.78655l22.16605,4.75065c0,0 0.8506,0.52596 1.42549,0.87124c0.60078,0.36083 2.10496,1.2491 2.10496,1.2491z" fill="#685960"/><path d="M391.64418,158.3196l1.81231,-4.52679l14.02603,3.80228c0,0 -7.95044,-1.80199 -12.43758,-1.6987c-2.6028,0.05992 -3.40078,2.4232 -3.40078,2.4232z" fill="#41383c"/></g><path d="M49.63673,153.12424l0.17574,-5.20536c0,0 22.36752,-0.54061 44.31122,0.25726c13.07643,0.47547 26.58467,2.53012 33.51382,2.41372c15.62369,-0.26241 26.23876,-4.41881 26.23876,-4.41881l-6.69611,10.42311z" fill="#ffa1d1" stroke-width="0"/><path d="M46.58926,166.98692l2.7018,-16.00052c0,0 54.69558,3.90836 72.54742,4.07017c10.5747,0.09585 24.69378,-3.1888 24.69378,-3.1888l-0.49408,14.63401c0,0 -67.46256,-2.27771 -83.72568,-2.82681c-6.68679,-0.22578 -16.63036,30.18095 -16.63036,30.18095z" fill="#ee96c3" stroke-width="0"/><path d="M223.11549,249.4826l9.73349,-13.27502c0,0 10.44807,-15.51353 20.07461,-22.05517c2.44626,-1.66234 7.65322,-2.68372 7.65322,-2.68372c0,0 -7.46794,4.73581 -10.15549,7.43811c-6.34678,6.38161 -27.30584,30.5758 -27.30584,30.5758z" fill="#70646b" stroke-width="0"/><path d="M321.2572,187.91854l-5.68959,-18.20415l1.34938,0.04557c0,0 1.72312,5.51316 2.63361,8.42635c0.12972,0.41507 1.45273,1.68153 1.61342,2.19565c0.27853,0.89122 -0.58154,1.10585 -0.27022,2.10199c0.86689,2.77371 1.71278,5.48017 1.71278,5.48017z" fill="#795467" stroke-width="0"/><path d="M146.65566,166.95467c0,0 -10.25495,-6.90231 -9.44863,-10.65214c0.4828,-2.24522 17.58412,-9.62452 17.58412,-9.62452l68.40651,3.98265l-1.74023,3.03912l29.45613,6.24593l-72.65182,24.13742c0,0 -0.60148,-5.63732 3.09518,-8.3723c3.59278,-2.65811 18.78206,-7.8135 18.78206,-7.8135c0,0 -34.19628,-1.2036 -41.4801,-1.53624c-2.43009,-0.11098 -12.00327,0.59353 -12.00327,0.59353z" fill="#f399c8" stroke-width="0"/><g><path d="M152.93036,148.54047l0.10927,-3.23649l176.45313,5.95755l-0.10927,3.23649z" fill="#584f54" stroke-width="0"/><path d="M323.6913,151.31402l0.09233,-2.73476l3.05353,0.10309l2.60195,2.82573z" fill="#685d63" stroke-width="0"/><g fill="#685d63" stroke-width="0"><g><g><g><path d="M317.02667,151.33832l0.10045,-2.97532l3.87891,0.13095l-0.10045,2.97532z"/><path d="M310.7327,151.12584l0.10045,-2.97532l3.87891,0.13095l-0.10045,2.97532z"/></g><g><path d="M304.67627,150.92131l0.10045,-2.97532l3.87891,0.13095l-0.10045,2.97532z"/><path d="M298.38231,150.70882l0.10045,-2.97532l3.87891,0.13095l-0.10045,2.97532z"/></g></g><g><g><path d="M292.20711,150.50032l0.10045,-2.97532l3.87891,0.13095l-0.10045,2.97532z"/><path d="M285.91315,150.28785l0.10045,-2.97532l3.87891,0.13095l-0.10045,2.97532z"/></g><g><path d="M279.85671,150.08334l0.10045,-2.97532l3.87891,0.13095l-0.10045,2.97532z"/><path d="M273.56283,149.87085l0.10045,-2.97532l3.87891,0.13095l-0.10045,2.97532z"/></g></g></g><g><g><g><path d="M273.32532,149.86283l0.10045,-2.97532l3.87891,0.13095l-0.10045,2.97532z"/><path d="M267.03138,149.65034l0.10045,-2.97532l3.87891,0.13095l-0.10045,2.97532z"/></g><g><path d="M260.97492,149.44585l0.10045,-2.97532l3.87891,0.13095l-0.10045,2.97532z"/><path d="M254.68098,149.23334l0.10045,-2.97532l3.87891,0.13095l-0.10045,2.97532z"/></g></g><g><g><path d="M248.50582,149.02485l0.10045,-2.97532l3.87891,0.13095l-0.10045,2.97532z"/><path d="M242.21186,148.81237l0.10045,-2.97532l3.87891,0.13095l-0.10045,2.97532z"/></g><g><path d="M236.15542,148.60789l0.10045,-2.97532l3.87891,0.13095l-0.10045,2.97532z"/><path d="M229.86148,148.39538l0.10045,-2.97532l3.87891,0.13095l-0.10045,2.97532z"/></g></g></g></g><g><g fill="#685d63" stroke-width="0"><g><g><path d="M223.64589,148.18552l0.10045,-2.97532l3.87891,0.13095l-0.10045,2.97532z"/><path d="M217.35195,147.97303l0.10045,-2.97532l3.87891,0.13095l-0.10045,2.97532z"/></g><g><path d="M211.29552,147.76854l0.10045,-2.97532l3.87891,0.13095l-0.10045,2.97532z"/><path d="M205.00161,147.55603l0.10045,-2.97532l3.87891,0.13095l-0.10045,2.97532z"/></g></g><g><g><path d="M198.82642,147.34755l0.10045,-2.97532l3.87891,0.13095l-0.10045,2.97532z"/><path d="M192.53245,147.13505l0.10045,-2.97532l3.87891,0.13095l-0.10045,2.97532z"/></g><g><path d="M186.476,146.93056l0.10045,-2.97532l3.87891,0.13095l-0.10045,2.97532z"/><path d="M180.18204,146.71807l0.10045,-2.97532l3.87891,0.13095l-0.10045,2.97532z"/></g></g></g><g><g fill="#685d63" stroke-width="0"><g><path d="M179.94456,146.71004l0.10045,-2.97532l3.87891,0.13095l-0.10045,2.97532z"/><path d="M173.6506,146.49754l0.10045,-2.97532l3.87891,0.13095l-0.10045,2.97532z"/></g><g><path d="M167.59414,146.29307l0.10045,-2.97532l3.87891,0.13095l-0.10045,2.97532z"/><path d="M161.30024,146.08057l0.10045,-2.97532l3.87891,0.13095l-0.10045,2.97532z"/></g></g><g fill="none" stroke-width="1" font-family="sans-serif" font-weight="normal" font-size="12" text-anchor="start"><g/><g/></g></g></g><path d="M153.10273,145.55447l2.78661,-2.64379l3.05353,0.10309l-0.09233,2.73476z" data-paper-data="{&quot;index&quot;:null}" fill="#685d63" stroke-width="0"/></g><path d="M208.87167,180.34254l-2.55953,0.18378c0,0 1.7646,-2.50943 11.39233,-3.3127c7.29925,-0.609 27.89511,-1.22582 40.22357,-1.55579c5.72504,-0.15324 62.49841,-7.24345 62.49841,-7.24345l5.19632,0.16111c0,0 -62.03974,8.55617 -67.75974,8.68632c-12.64854,0.2878 -33.91729,0.80761 -40.08199,1.17829c-3.3558,0.20178 -8.90936,1.90246 -8.90936,1.90246z" fill="#70475c" stroke-width="0"/><path d="M309.08254,202.76442l-4.98328,1.67861l0.63952,-18.92057c0,0 7.7854,0.31128 15.39935,0.6157c21.85741,0.87391 126.9056,5.07401 126.9056,5.07401l-0.22701,6.72344z" fill="#5a5959" stroke-width="0"/><path d="M308.11303,204.36105l1.19173,-2.96754l137.5278,-3.56687l-12.19769,10.80614z" fill="#4b4a4a" stroke-width="0"/><path d="M431.35738,208.33289c0,0 -5.79408,-3.42218 -8.77661,-4.95179c-1.59842,-0.81975 -7.72766,-3.5124 -7.72766,-3.5124c0,0 7.89892,3.17209 11.20964,4.23235c1.18155,0.37839 2.27944,1.15869 3.56492,1.73052c0.41448,0.18437 2.32999,-2.51169 4.28568,-4.161c0.58454,-0.49296 1.73181,-0.08946 2.26808,-0.40235c1.22933,-0.71729 1.62495,-1.79595 1.62495,-1.79595c0,0 0.30591,0.94042 -0.9533,2.11235c-0.34356,0.31977 -2.15735,0.61104 -2.49476,0.96023c-1.35228,1.39945 -2.40748,2.96382 -2.73236,3.54437c-0.9067,1.62014 1.194,2.29304 1.194,2.29304z" fill="#414040" stroke-width="0"/><path d="M146.59668,167.25026l4.18754,-10.96372l7.02318,-0.38754c0,0 -1.03946,2.61463 -1.65209,4.15556c-0.1543,0.3881 11.69909,-1.16895 12.02826,-0.48644c0.61075,1.26631 -5.08507,4.836 -5.47035,5.80517c-0.44047,1.10793 -9.15333,1.20979 -9.15333,1.20979z" fill="#303030" stroke-width="0"/><path d="M146.4657,166.87559l4.05493,-10.13263c0,0 2.95444,1.4051 2.9212,2.38952c-0.06047,1.79116 -1.83389,7.52173 -1.83389,7.52173z" fill="#252525" stroke-width="0"/><path d="M303.99156,207.09666l0.09962,-2.95072l5.62028,-2.76431l-1.33703,2.90892c0,0 -1.13483,1.29773 -1.90566,1.79125c-0.67826,0.43425 -2.47722,1.01485 -2.47722,1.01485z" fill="#383838" stroke-width="0"/><g><g fill="#4b4b4b" stroke-width="0"><g data-paper-data="{&quot;origPos&quot;:null}"><g data-paper-data="{&quot;origPos&quot;:null}"><path d="M371.04829,210.73241l0.07669,-2.27144l3.74786,0.12653l-0.07669,2.27144z" data-paper-data="{&quot;origPos&quot;:null}"/><path d="M364.80568,210.40793l0.07669,-2.27144l3.74786,0.12653l-0.07669,2.27144z" data-paper-data="{&quot;origPos&quot;:null}"/></g><g data-paper-data="{&quot;origPos&quot;:null}"><path d="M383.53735,211.26778l0.07669,-2.27144l3.74786,0.12653l-0.07669,2.27144z" data-paper-data="{&quot;origPos&quot;:null}"/><path d="M377.29473,210.94331l0.07669,-2.27144l3.74786,0.12653l-0.07669,2.27144z" data-paper-data="{&quot;origPos&quot;:null}"/></g></g><g data-paper-data="{&quot;origPos&quot;:null,&quot;index&quot;:null}"><g data-paper-data="{&quot;origPos&quot;:null}"><path d="M402.73863,211.68867l0.07669,-2.27144l3.74786,0.12653l-0.07669,2.27144z" data-paper-data="{&quot;origPos&quot;:null}"/><path d="M408.98889,211.786l0.07668,-2.27143l3.74786,0.12653l-0.07668,2.27143z" data-paper-data="{&quot;origPos&quot;:null}"/></g><g data-paper-data="{&quot;origPos&quot;:null}"><path d="M390.24192,211.38043l0.07669,-2.27144l3.74786,0.12653l-0.07669,2.27144z" data-paper-data="{&quot;origPos&quot;:null}"/><path d="M396.49219,211.47776l0.07669,-2.27144l3.74786,0.12653l-0.07669,2.27144z" data-paper-data="{&quot;origPos&quot;:null}"/></g></g></g><path d="M328.62909,201.05039l0.45927,-13.60335l84.42591,2.85045l-0.45927,13.60335z" data-paper-data="{&quot;origPos&quot;:null}" fill="#444444" stroke-width="0"/><path d="M328.56822,205.77328l0.16138,-4.77973l84.17777,2.84207l-0.16138,4.77973z" data-paper-data="{&quot;origPos&quot;:null}" fill="#414141" stroke-width="0"/><path d="M328.55495,207.19786l0.05458,-1.61672l84.16706,2.84169l-0.05458,1.61672z" data-paper-data="{&quot;origPos&quot;:null}" fill="#3f3f3f" stroke-width="0"/><g stroke-width="0"><g data-paper-data="{&quot;origPos&quot;:null}" fill="#5a5a5a"><g data-paper-data="{&quot;origPos&quot;:null}"><path d="M371.87345,202.58986l0.46397,-13.74217l3.5694,0.12052l-0.46397,13.74217z" data-paper-data="{&quot;origPos&quot;:null}"/></g><g data-paper-data="{&quot;origPos&quot;:null}"><path d="M377.94143,202.79474l0.46397,-13.74217l3.5694,0.12052l-0.46397,13.74217z" data-paper-data="{&quot;origPos&quot;:null}"/><path d="M384.18786,203.00565l0.46397,-13.74217l3.5694,0.12052l-0.46397,13.74217z" data-paper-data="{&quot;origPos&quot;:null}"/></g></g><g data-paper-data="{&quot;origPos&quot;:null}" fill="#5a5a5a"><g data-paper-data="{&quot;origPos&quot;:null}"><path d="M390.79124,203.22859l0.46397,-13.74217l3.5694,0.12052l-0.46397,13.74217z" data-paper-data="{&quot;origPos&quot;:null}"/><path d="M397.03767,203.43949l0.46397,-13.74217l3.5694,0.12052l-0.46397,13.74217z" data-paper-data="{&quot;origPos&quot;:null}"/></g><g data-paper-data="{&quot;origPos&quot;:null}"><path d="M403.10565,203.64437l0.46397,-13.74217l3.5694,0.12052l-0.46397,13.74217z" data-paper-data="{&quot;origPos&quot;:null}"/><path d="M409.35209,203.85526l0.46397,-13.74217l3.5694,0.12052l-0.46397,13.74217z" data-paper-data="{&quot;origPos&quot;:null}"/></g></g><path d="M375.50413,202.71244l-0.94347,1.90028l-5.23984,-0.1338l0.19134,-9.79558l2.76644,-5.83766l-0.39504,13.7445z" fill="#3a3a3a"/><path d="M381.56966,202.91725l-0.94347,1.90028l-5.23984,-0.1338l0.19134,-9.79558l2.76644,-5.83766l-0.39504,13.7445z" fill="#3a3a3a"/><path d="M387.773,203.12669l-0.94347,1.90028l-5.23984,-0.1338l0.19134,-9.79558l2.76644,-5.83766l-0.39504,13.7445z" fill="#3a3a3a"/><path d="M394.45887,203.35242l-0.94347,1.90028l-5.23984,-0.1338l0.19134,-9.79558l2.76644,-5.83766l-0.39504,13.7445z" fill="#3a3a3a"/><path d="M400.73115,203.56418l-0.94347,1.90028l-5.23984,-0.1338l0.19134,-9.79558l2.76644,-5.83766l-0.39504,13.7445z" fill="#3a3a3a"/><path d="M406.72772,203.76665l-0.94347,1.90028l-5.23984,-0.1338l0.19134,-9.79558l2.76644,-5.83766l-0.39504,13.7445z" fill="#3a3a3a"/><path d="M413.00793,203.97869l-0.94347,1.90028l-5.23984,-0.1338l0.19134,-9.79558l2.76644,-5.83766l-0.39504,13.7445z" fill="#3a3a3a"/></g><g stroke-width="0"><g data-paper-data="{&quot;origPos&quot;:null}" fill="#5a5a5a"><g data-paper-data="{&quot;origPos&quot;:null}"><path d="M328.66902,201.13118l0.46397,-13.74217l3.5694,0.12052l-0.46397,13.74217z" data-paper-data="{&quot;origPos&quot;:null}"/></g><g data-paper-data="{&quot;origPos&quot;:null}"><path d="M334.73696,201.33604l0.46397,-13.74217l3.5694,0.12052l-0.46397,13.74217z" data-paper-data="{&quot;origPos&quot;:null}"/><path d="M340.98338,201.54697l0.46397,-13.74217l3.5694,0.12052l-0.46397,13.74217z" data-paper-data="{&quot;origPos&quot;:null}"/></g></g><g data-paper-data="{&quot;origPos&quot;:null}" fill="#5a5a5a"><g data-paper-data="{&quot;origPos&quot;:null}"><path d="M347.58679,201.7699l0.46397,-13.74217l3.5694,0.12052l-0.46397,13.74217z" data-paper-data="{&quot;origPos&quot;:null}"/><path d="M353.83329,201.98079l0.46397,-13.74217l3.5694,0.12052l-0.46397,13.74217z" data-paper-data="{&quot;origPos&quot;:null}"/></g><g data-paper-data="{&quot;origPos&quot;:null}"><path d="M359.90124,202.18566l0.46397,-13.74217l3.5694,0.12052l-0.46397,13.74217z" data-paper-data="{&quot;origPos&quot;:null}"/><path d="M366.14769,202.39655l0.46397,-13.74217l3.5694,0.12052l-0.46397,13.74217z" data-paper-data="{&quot;origPos&quot;:null}"/></g></g><path d="M332.29967,201.25377l-0.94347,1.90028l-2.72965,-0.04904l0.05254,-1.9735z" fill="#3a3a3a"/><path d="M338.36524,201.45855l-0.94347,1.90028l-5.23984,-0.1338l0.19134,-9.79558l2.76644,-5.83766l-0.39504,13.7445z" fill="#3a3a3a"/><path d="M344.56854,201.66798l-0.94347,1.90028l-5.23984,-0.1338l0.19134,-9.79558l2.76644,-5.83766l-0.39504,13.7445z" fill="#3a3a3a"/><path d="M351.25439,201.89372l-0.94347,1.90028l-5.23984,-0.1338l0.19134,-9.79558l2.76644,-5.83766l-0.39504,13.7445z" fill="#3a3a3a"/><path d="M357.52673,202.1055l-0.94347,1.90028l-5.23984,-0.1338l0.19134,-9.79558l2.76644,-5.83766l-0.39504,13.7445z" fill="#3a3a3a"/><path d="M363.52331,202.30795l-0.94347,1.90028l-5.23984,-0.1338l0.19134,-9.79558l2.76644,-5.83766l-0.39504,13.7445z" fill="#3a3a3a"/><path d="M369.80354,202.51998l-0.94347,1.90028l-5.23984,-0.1338l0.19134,-9.79558l2.76644,-5.83766l-0.39504,13.7445z" fill="#3a3a3a"/></g><g><g data-paper-data="{&quot;origPos&quot;:null}"><g data-paper-data="{&quot;origPos&quot;:null}" fill="none" stroke-width="1" font-family="sans-serif" font-weight="normal" font-size="12" text-anchor="start"/><g data-paper-data="{&quot;origPos&quot;:null}" fill="#4b4b4b" stroke-width="0"><path d="M334.82672,209.70013l0.07669,-2.27144l3.74786,0.12653l-0.07669,2.27144z" data-paper-data="{&quot;origPos&quot;:null}"/><path d="M328.58412,209.37567l0.07669,-2.27144l3.74786,0.12653l-0.07669,2.27144z" data-paper-data="{&quot;origPos&quot;:null}"/></g></g><g data-paper-data="{&quot;origPos&quot;:null,&quot;index&quot;:null}" fill="#4b4b4b" stroke-width="0"><g data-paper-data="{&quot;origPos&quot;:null}"><path d="M354.02803,210.12102l0.07669,-2.27144l3.74786,0.12653l-0.07669,2.27144z" data-paper-data="{&quot;origPos&quot;:null}"/><path d="M360.27829,210.21831l0.07668,-2.27143l3.74786,0.12653l-0.07668,2.27143z" data-paper-data="{&quot;origPos&quot;:null}"/></g><g data-paper-data="{&quot;origPos&quot;:null}"><path d="M341.53126,209.81281l0.07669,-2.27144l3.74786,0.12653l-0.07669,2.27144z" data-paper-data="{&quot;origPos&quot;:null}"/><path d="M347.78151,209.91009l0.07669,-2.27144l3.74786,0.12653l-0.07669,2.27144z" data-paper-data="{&quot;origPos&quot;:null}"/></g></g></g></g><path d="M159.32324,166.08505l1.18126,-4.17766c0,0 4.71466,-2.99009 8.24883,-3.02087c4.04029,-0.03518 33.99129,1.00101 33.99129,1.00101c0,0 0.59833,1.89701 0.50438,3.11173c-0.12106,1.56501 -2.33931,4.55648 -2.33931,4.55648z" fill="#242424" stroke-width="0"/><path d="M184.32349,163.11695l0.10631,-3.14853l17.99155,0.60744l-0.10631,3.14853z" fill="#313131" stroke-width="0"/><path d="M180.96642,164.93534l0.022,-0.65186c0,0 1.10272,-1.01452 2.12522,-0.98c0.97094,0.03278 3.14168,0.58127 5.58666,0.8273c4.65767,0.46865 10.27947,0.76016 10.27947,0.76016l-0.022,0.65186c0,0 -5.42511,-0.18519 -10.0177,-0.65107c-2.50592,-0.25422 -4.75362,-0.89939 -5.76085,-0.93339c-1.05868,-0.03573 -2.21273,0.97704 -2.21273,0.97704z" fill="#616161" stroke-width="0"/><path d="M208.61426,150.14888l12.58393,3.45319l30.6538,6.34606c0,0 0.72518,0.2488 -7.34424,-0.75233c-2.74509,-0.34057 -13.32306,-2.30764 -22.47639,-4.5206c-2.47677,-0.59881 -15.68714,-4.48758 -15.68714,-4.48758z" fill="#df8cb7" stroke-width="0"/><path d="M27.41621,150.37108l0.20021,-5.92973c0,0 5.82594,-1.55725 9.6276,-1.42891c3.1123,0.10507 11.47164,3.89523 11.47164,3.89523l-0.54883,12.25923z" fill="#626061" stroke-width="0"/><path d="M143.07275,164.26739l3.70958,2.63269l12.28483,-0.90915l50.71605,1.71232l-0.03682,1.09041c0,0 -38.03962,-1.42966 -49.94514,-1.56924c-3.26864,-0.03832 -12.98683,0.35484 -12.98683,0.35484z" fill="#ffa6d4" stroke-width="0"/><path d="M22.37823,214.16773l0.24192,-7.16549l23.97554,-15.83022l-2.06757,13.60686l-14.20555,9.65708z" fill="#3f3d3e" stroke-width="0"/><path d="M20.9198,209.05547c0,0 0.8506,-19.63431 1.97918,-29.185c1.27381,-10.77941 5.28082,-32.25259 5.28082,-32.25259c0,0 8.61608,0.10145 12.14055,1.86719c3.01647,1.51122 7.72051,8.08308 7.72051,8.08308l-1.13214,33.53247c0,0 -12.31226,13.29022 -15.43165,15.44534c-4.79816,3.3149 -10.55726,2.50953 -10.55726,2.50953z" fill="#555354" stroke-width="0"/><path d="M27.67148,158.20518c0,0 -1.33708,-6.04147 0.8189,-8.66742c2.15597,-2.62598 6.53739,-3.49557 9.09624,-3.40917c2.04124,0.06891 6.26283,0.29023 8.98417,4.84316c2.72132,4.55291 0.57776,11.15443 0.57776,11.15443c0,0 -5.94515,-10.61035 -8.48572,-11.12178c-3.58498,-0.72168 -10.99132,7.20084 -10.99132,7.20084z" fill="#6f6b6c" stroke-width="0"/><path d="M19.3032,213.87547c0,0 2.593,-25.98983 2.97916,-37.42711c0.40214,-11.91101 0.88706,-32.62486 0.88706,-32.62486c0,0 1.17726,-0.60357 2.21748,-0.56844c0.95117,0.0321 2.49546,0.72759 2.49546,0.72759c0,0 -0.86057,19.13713 -1.22144,29.82587c-0.41929,12.41838 -3.92993,40.18271 -3.92993,40.18271z" fill="#333232" stroke-width="0"/><path d="M18.85771,214.30429l1.58985,-14.66293c0,0 1.02458,0.92401 1.62501,0.90556c0.7581,-0.02327 2.48266,-1.40336 2.48266,-1.40336l-1.73067,15.29467z" fill="#2e2d2d" stroke-width="0"/><path d="M45.82873,178.93449c-0.27549,8.15998 -4.68986,16.68381 -9.1514,19.46224c-3.70546,2.30758 -11.42787,8.80862 -11.15237,0.64864c0.05845,-1.73111 2.50217,-13.53473 2.86777,-20.5562c0.48347,-9.28581 -0.99325,-14.31945 0.05958,-17.11709c1.90371,-5.05866 7.47375,-6.35094 9.687,-6.2762c4.36275,0.1473 7.96495,15.67864 7.68942,23.8386z" fill="#585758" stroke-width="0"/><path d="M79.79565,194.17231l-0.53351,-1.75974c0,0 7.98079,-1.08185 14.01164,-1.36266c8.49012,-0.39532 32.12413,-0.7855 32.12413,-0.7855l1.75168,1.34105c0,0 -25.151,0.77215 -33.88565,1.24561c-2.56524,0.13907 -13.46828,1.32123 -13.46828,1.32123z" fill="#585657" stroke-width="0"/><path d="M73.4632,207.16653l5.64879,-13.50849l7.27026,-0.70572c0,0 -1.88265,4.25238 -1.82189,5.01002c0.29032,3.62016 2.4768,27.67468 2.4768,27.67468c0,0 -1.49147,0.3903 -2.61689,-1.5243c-2.01931,-3.43538 -3.62226,-10.35543 -5.30241,-12.51601c-1.45162,-1.86672 -5.65468,-4.43017 -5.65468,-4.43017z" fill="#5a5759" stroke-width="0"/><path d="M87.02494,176.80281l3.26968,-11.2294l2.33576,-0.03232l-4.38766,11.41399z" fill="#a5a0a2" stroke-width="0"/><path d="M93.84735,175.94904l0.04735,-1.40196l26.48118,0.89409l-0.04735,1.40196z" fill="#494748" stroke-width="0"/><path d="M93.86704,172.97671l0.04735,-1.40196l26.48118,0.89409l-0.04735,1.40196z" fill="#494748" stroke-width="0"/><path d="M73.68856,194.71591l0.67954,-20.12687l12.56489,-9.19748l4.85231,-0.1481l-17.71116,42.23996l-5.54042,-2.19159z" fill="#dbd5d8" stroke-width="0"/><path d="M46.80306,205.72942l0.24006,-11.78942l26.66596,0.11034c0,0 0.24448,2.54743 0.08739,3.34108c-0.39149,1.97839 -2.63172,8.8445 -2.63172,8.8445z" fill="#ccc6c9" stroke-width="0"/><path d="M50.97512,194.47338l0.01065,-0.31563l22.8333,-0.09804l-2.64388,1.09569c0,0 -4.32545,0.04027 -7.03156,-0.08284c-3.70535,-0.16859 -13.16852,-0.59917 -13.16852,-0.59917z" fill="#d8d1d5" stroke-width="0"/><path d="M54.61465,190.85734l0.57363,-16.99031l16.11583,0.54411l-0.57363,16.99031z" fill="#a39999" stroke-width="0"/><path d="M46.52097,205.88975l0.3833,-11.35285c0,0 8.6163,6.68123 12.82157,9.16514c4.20529,2.48392 10.71221,2.42346 10.71221,2.42346z" fill="#b4afb1" stroke-width="0"/><path d="M79.94109,213.06418c0,0 2.99263,1.14215 4.09299,1.03545c0.67596,-0.06553 1.88116,-1.61469 1.88116,-1.61469l1.35142,9.12398l-0.14156,4.19273c0,0 -1.95244,0.24572 -3.14364,-2.37858c-0.98284,-2.16523 -4.04039,-10.35889 -4.04039,-10.35889z" fill="#504e4f" stroke-width="0"/><path d="M73.74873,207.73282l15.8619,-41.23183l1.73567,0.26385l-15.77322,41.64532z" fill="#858183" stroke-width="0"/><path d="M58.29737,166.43191l1.56959,-1.59845c0,0 27.42171,0.28156 39.82494,0.70034c10.76516,0.36345 31.91482,1.43072 31.91482,1.43072l0.46365,1.95816c0,0 -21.26132,-1.4242 -32.60848,-1.80732c-12.95698,-0.43748 -41.16455,-0.68347 -41.16455,-0.68347z" fill="#918b8e" stroke-width="0"/><path d="M59.35655,165.23624l2.08823,-1.87201c0,0 25.88549,0.52078 38.28871,0.93955c10.76516,0.36345 31.91482,1.43072 31.91482,1.43072l0.46365,1.95816c0,0 -21.26132,-1.4242 -32.60848,-1.80732c-12.95698,-0.43748 -40.14694,-0.64911 -40.14694,-0.64911z" fill="#a59fa2" stroke-width="0"/><path d="M123.22706,188.19057l-1.73267,-5.74437c0,0 0.25218,-1.19719 0.58878,-1.29873c0.29657,-0.08946 1.326,0.72115 1.326,0.72115l1.73266,5.74437c0,0 -0.30558,0.8678 -0.60284,0.95746c-0.3362,0.10142 -1.31193,-0.37991 -1.31193,-0.37991z" fill="#494242" stroke-width="0"/><path d="M82.88602,189.47869l3.86092,-9.36078l3.88349,0.13112l-3.86092,9.36078z" fill="#9c989a" stroke-width="0"/><path d="M93.04763,172.03549l1.88231,-0.90496l24.42431,0.84271l1.98485,1.01747z" fill="#757274" stroke-width="0"/><path d="M93.04707,174.8484l1.88231,-0.90496l24.42431,0.84271l1.98485,1.01747z" fill="#757274" stroke-width="0"/><path d="M44.13484,204.82565l3.66842,-58.06699l1.89961,0.6452l-3.13676,58.48635z" fill="#686666" stroke-width="0"/><path d="M43.96243,205.09032l1.20275,-16.22438l2.16092,3.89358l-0.88527,13.28777z" fill="#535252" stroke-width="0"/><path d="M75.46266,183.26608c0,0 2.20198,-2.27245 2.23393,-3.21872c0.03135,-0.92857 -2.04399,-2.4068 -2.04399,-2.4068c0,0 2.97776,0.77063 2.8166,2.45445c-0.12275,1.28255 -1.24656,3.43486 -1.37109,4.53365c-0.35409,3.12429 -1.29024,10.44423 -1.29024,10.44423z" fill="#c4bec1" stroke-width="0"/><path d="M83.19875,181.61455l2.25459,-10.12509l2.69433,-4.26581l-2.97606,9.46316z" fill="#aca7a9" stroke-width="0"/></g></g><g stroke-width="0"><path d="M202.12941,157.78364l2.66583,-3.24111c0,0 1.8549,-1.37451 2.67007,-1.07187c0.92947,0.34509 2.60898,3.03185 2.60898,3.03185l-0.6794,4.06133c0,0 -4.27854,-0.152 -5.5396,-0.32795c-0.56848,-0.07931 -1.72593,-2.45227 -1.72593,-2.45227z" fill="#c0c0c0"/><path d="M158.90936,165.98103c0,0 -0.07921,-2.88432 1.01776,-3.98682c1.37471,-1.38163 7.52585,-3.38742 7.52585,-3.38742l-0.87002,4.71041l-0.09858,2.91955z" fill="#838383"/><path d="M158.73978,165.90091l8.35258,-7.20357l37.54095,1.26748l-0.25245,7.47703z" fill="#999999"/><path d="M159.76037,165.27856l6.35331,-5.62994l33.75308,1.1396l-0.1971,5.83778c0,0 -4.08526,-0.13793 -9.34049,-0.31537c-3.41671,-0.11537 -7.29217,-1.30882 -10.89676,-1.43053c-3.86685,-0.13056 -7.41666,0.81222 -9.5886,0.73888c-4.25073,-0.14352 -10.08347,-0.34044 -10.08347,-0.34044z" fill="#2e2e2e"/><path d="M163.25067,165.39421l8.56329,-5.61754l12.457,0.42058c0,0 -7.43624,1.65739 -9.83587,2.49143c-2.54747,0.88544 -5.82902,2.88634 -5.82902,2.88634z" fill="#a5899d"/><path d="M171.23908,165.5511c0,0 5.11505,-0.79997 7.57076,-0.71706c3.1378,0.10594 9.71628,1.30071 9.71628,1.30071l-9.63725,-0.66077z" fill="#adadad"/><path d="M158.8449,165.8863l7.54334,-6.50082l34.94676,1.17991l-0.02323,0.68817c0,0 -30.25954,-1.02166 -34.20393,-1.15482c-0.82502,-0.02786 -8.26293,5.78756 -8.26293,5.78756z" fill="#8a8a8a"/><path d="M205.7749,173.7101l0.32918,-9.74981l0.89341,-7.17583c0,0 1.17064,0.50972 1.70524,1.09157c0.53459,0.58186 0.87977,1.72198 0.87977,1.72198l-1.79573,14.18003z" fill="#9e9e9e"/><path d="M200.46921,169.29777c0,0 -0.83952,-2.15446 -0.92253,-3.74732c-0.11176,-2.14495 0.9295,-7.63114 0.9295,-7.63114l1.95129,-0.25966c0,0 0.7317,0.81695 1.21437,0.684c0.66542,-0.18329 2.40898,-1.68202 2.40898,-1.68202l-0.93486,12.79303z" fill="#9c9c9c"/><path d="M200.98103,171.14679c-0.74468,-1.1302 -0.45804,-2.49442 -0.45804,-2.49442l5.11787,-7.03168c0,0 1.26178,3.92864 1.23084,4.84455c-0.08791,2.60406 0.75774,7.38499 0.75774,7.38499c0,0 -2.98122,-0.01687 -4.00471,-0.49031c-1.22751,-0.56782 -1.89901,-1.08292 -2.64369,-2.21313z" fill="#888888"/><path d="M202.78687,170.43308c-0.92022,-2.03197 -1.77959,-6.52656 0.20055,-10.52881c1.98012,-4.00224 4.32117,-1.7908 4.32117,-1.7908c0,0 0.85667,4.45441 0.77863,6.76596c-0.0711,2.10565 -1.228,6.54328 -1.228,6.54328c0,0 -3.15214,1.04235 -4.07237,-0.98962z" fill="#b4b4b4"/><path d="M207.20597,162.88259c-0.04763,1.41027 -5.15727,1.31521 -5.10965,-0.09505c0.04763,-1.41027 3.28691,-6.70615 4.09886,-6.67873c0.31447,0.01062 0.95452,0.13413 1.1151,1.20084c0.25405,1.68758 -0.07516,4.70886 -0.1043,5.57296z" fill="#bbbbbb"/></g><g stroke-width="0"><path d="M142.97696,164.249c0,0 -5.6873,-5.11214 -5.6241,-6.9845c0.05162,-1.52878 6.08856,-1.44815 6.08856,-1.44815l7.53855,0.32643l-4.38558,10.63704z" fill="#f399c8"/><path d="M112.41285,164.85969c0,0 -0.89875,-2.12939 -0.60544,-3.19281c0.3237,-1.17358 2.50447,-4.7069 2.50447,-4.7069l23.03129,0.59182l8.83002,8.92622z" fill="#ee96c3"/></g></g><g stroke-width="0"><g><path d="M208.51242,148.36774l0.20859,-6.17831l47.79094,1.61357l-0.20859,6.17831z" fill="#61585b"/><path d="M208.45868,145.12055l0.11169,-3.30847l47.97267,1.61969l-0.11169,3.30847c0,0 -8.63595,-0.29158 -17.50726,-0.5911c-2.77367,-0.09364 -6.72436,1.29108 -9.2873,1.20454c-3.04767,-0.1029 -6.26502,-1.72962 -8.21995,-1.79563c-5.86196,-0.19793 -12.95813,-0.4375 -12.95813,-0.4375z" fill="#494344"/><path d="M270.47372,140.60537l-8.68916,-19.2371l20.90734,0.7059l14.85375,17.28537c0,0 -5.75287,1.16793 -8.99175,1.317c-4.99791,0.23002 -18.08019,-0.07112 -18.08019,-0.07112z" fill="#5e555b"/><path d="M270.3599,144.03857l0.18689,-5.53533c0,0 12.34053,-1.03731 17.25618,-1.65142c3.9012,-0.48739 6.72489,-0.97442 6.72489,-0.97442l5.70187,7.13524c0,0 -5.38326,1.4153 -9.54371,1.71901c-5.63729,0.41149 -20.3261,-0.69304 -20.3261,-0.69304z" fill="url(#color-5)"/><path d="M260.0853,121.46976l0.13485,-3.99389l19.1406,0.64626l3.49945,4.1166z" fill="url(#color-6)"/><path d="M269.77563,144.04381l0.04248,-1.25851c0,0 15.60338,0.45038 20.99249,0.46469c4.02971,0.01072 8.50086,-1.41605 8.50086,-1.41605l0.84976,1.17408l-8.28707,1.7819z" fill="#312c30"/><g><path d="M169.17121,130.04044l0.0726,-8.86096l93.87184,3.16939l7.25549,11.5332z" fill="#8a6672"/><path d="M185.42148,138.87949c0,0 -3.39587,-3.72248 -6.14961,-5.2779c-2.75375,-1.5554 -9.81895,-1.55638 -9.81895,-1.55638l0.18257,-2.08212c0,0 12.30694,0.6921 19.32906,1.02442c16.77486,0.79392 80.88502,3.71852 80.88502,3.71852l3.39954,6.68556z" fill="#755761"/><path d="M188.18432,141.46509l-2.93623,-2.6924l87.55298,2.46638l1.10082,3.12005z" fill="#694e57"/><path d="M169.06578,121.56986l0.15283,-4.52639l90.77736,2.38516l3.65641,5.7879c0,0 2.64093,3.4291 -2.64144,3.22545c-1.66291,-0.06412 -10.66495,-3.73844 -12.33201,-3.80271c-16.05499,-0.61899 -79.61316,-3.06936 -79.61316,-3.06936z" fill="#916b77"/><path d="M169.4604,117.05169l-0.03357,-2.52708l89.86228,2.8952l0.96389,2.42617z" fill="#9e7582"/><path d="M243.5209,120.23645c-8.04137,-0.91981 -72.63354,-4.13355 -72.63354,-4.13355l87.80403,2.96451l4.54695,7.59894c0,0 -11.67607,-5.51011 -19.71744,-6.42992z" fill="#b38f9a"/></g><path d="M219.03866,142.504l0.30955,-9.16855l20.20071,0.68203l-0.30955,9.16855z" fill="#3a3336"/><path d="M219.2603,133.33664l0.76744,-1.49745l18.52787,0.62555l0.93319,1.55486z" fill="#4b4246"/><path d="M219.19562,142.00962l0.27595,-8.17293c0,0 0.88084,5.2986 3.49994,6.49394c2.61911,1.19535 15.86034,2.34196 15.86034,2.34196z" fill="#332c30"/><path d="M261.26534,123.73472l-3.71531,-6.12886c0,0 1.04486,-0.63179 1.64514,-0.6115c0.67107,0.02266 2.19267,0.74106 2.19267,0.74106l3.71531,6.12886z" fill="#757575"/><path d="M264.12424,128.56854l-5.34047,-8.79747l3.8378,0.12957l5.34047,8.79747z" fill="#5a5a5a"/><path d="M268.14912,135.15707l-5.34047,-8.79747l3.8378,0.12957l5.34047,8.79747z" fill="#505050"/><path d="M272.31025,141.98107c-0.91213,-1.50258 -4.47117,-7.36542 -4.47117,-7.36542l3.8378,0.12957l6.26167,10.54381c0,0 -2.07272,0.4658 -3.02118,0.41897c-0.73982,-0.03656 -2.20492,-3.0644 -2.60712,-3.72696z" fill="#3b3b3b"/><path d="M167.54232,132.58509l0.63014,-18.6641l3.17915,0.10735l-0.63014,18.6641z" fill="#443e42"/><path d="M148.62297,133.54618l-0.48529,-5.94776l20.21704,0.68259l-0.20003,5.92462z" fill="url(#color-7)"/><path d="M148.11642,128.22869l0.36603,-10.8408l20.21704,0.68259l-0.36603,10.8408z" fill="#5e555b"/><path d="M148.47817,117.51408l0.94,-4.13286l19.41749,0.65559l-0.14043,4.15985z" fill="url(#color-8)"/><path d="M218.8725,115.92355l0.20695,-6.12982l14.97766,1.57296l4.46061,4.86438z" fill="#5e555b"/><path d="M238.50579,116.58642l-4.45162,-5.13092c0,0 2.99116,0.79201 5.18444,1.86488c2.1933,1.07288 5.75235,3.48497 5.75235,3.48497z" fill="#776b73"/><path d="M215.81299,116.97646l3.24016,-1.13575l25.59441,0.59733l3.59138,1.63322z" fill="#6d6269"/></g><g><path d="M220.61837,138.58495c0.04216,-1.2481 0.59122,-2.38696 1.01435,-3.40283c0.58958,-1.41556 1.23181,-2.58237 2.55341,-3.38443c0.80725,-0.4899 1.95699,-0.8407 2.95348,-1.04757c0.65908,-0.13679 1.67118,-0.50292 2.37379,-0.47923c1.5928,0.05377 1.93217,0.14702 3.06448,0.68157c0.6821,0.322 2.30545,0.82617 2.81747,1.51596c0.43335,0.58382 0.87689,1.5479 1.19542,2.23868c0.5444,1.18051 1.28351,3.07104 1.23663,4.45887c-0.01981,0.58651 -0.55663,1.90759 -0.62368,2.42108c-0.21279,1.6302 -0.23073,2.13948 -1.48077,3.20139c-0.75977,0.64541 -2.28465,1.14205 -3.28168,1.51862c-1.03259,0.38996 -2.33691,1.21248 -3.50892,1.17292c-0.79105,-0.02671 -2.20028,-0.60957 -2.96202,-0.77158c-1.65265,-0.35143 -2.53835,-0.55589 -3.52878,-1.73014c-0.84931,-1.00699 -1.05591,-2.6132 -1.3741,-3.98232c-0.16717,-0.71927 -0.47522,-1.63786 -0.44914,-2.41104z" fill="#3a3a3a"/><path d="M221.35297,138.49108c0.03856,-1.14214 0.54104,-2.18428 0.92823,-3.11392c0.53953,-1.29539 1.12722,-2.36311 2.33662,-3.09706c0.73871,-0.44832 1.79084,-0.76934 2.70274,-0.95861c0.60313,-0.1252 1.52928,-0.46023 2.17224,-0.43852c1.45756,0.04921 1.7681,0.13452 2.8043,0.62367c0.62416,0.29467 2.10972,0.75601 2.57825,1.38724c0.39655,0.53427 0.80243,1.41648 1.09393,2.04859c0.49819,1.08028 1.17452,2.8103 1.13164,4.08029c-0.01811,0.5367 -0.50936,1.74562 -0.57071,2.21549c-0.19473,1.49179 -0.21116,1.95783 -1.35503,2.92959c-0.69526,0.59063 -2.09064,1.04509 -3.00304,1.38968c-0.94493,0.35687 -2.1385,1.10956 -3.21099,1.07332c-0.72388,-0.02444 -2.01348,-0.55782 -2.71054,-0.70605c-1.51233,-0.32161 -2.32281,-0.50868 -3.22917,-1.58326c-0.77722,-0.92148 -0.96625,-2.3913 -1.25742,-3.64421c-0.15296,-0.65822 -0.43489,-1.4988 -0.41101,-2.20632z" fill="#5a5a5a"/><path d="M233.69087,134.37567c-1.96327,-2.45343 -7.04708,-2.82579 -7.04708,-2.82579c0,0 1.95939,-0.47416 3.94818,-0.40008c1.61097,0.06 3.17013,0.47731 4.28512,1.81672c1.11588,1.34048 1.45944,2.83762 1.69899,4.24196c0.46967,2.7534 -0.04864,5.13006 -0.04864,5.13006c0,0 -0.8733,-5.50945 -2.83656,-7.96285z" fill="#6d6d6d"/><path d="M228.19759,139.21194c0.01943,-0.5754 0.50161,-1.02608 1.077,-1.00666c0.5754,0.01943 1.02608,0.50161 1.00666,1.077c-0.01943,0.5754 -0.50161,1.02608 -1.077,1.00666c-0.5754,-0.01943 -1.02608,-0.50161 -1.00666,-1.077z" fill="#272727"/><path d="M228.11401,139.34601c0.01783,-0.52774 0.46007,-0.9411 0.98781,-0.92329c0.52774,0.01783 0.9411,0.46007 0.92329,0.98781c-0.01783,0.52774 -0.46007,0.9411 -0.98781,0.92329c-0.52774,-0.01783 -0.9411,-0.46007 -0.92329,-0.98781z" fill="#131313"/></g></g></g></g></g><path d="M135.58913,246.17275c0.05348,-1.58379 -2.76426,-44.3292 -2.21267,-45.98667c0.74475,-2.23793 9.17549,-0.60186 12.18886,-2.0088c9.22882,-4.30894 19.19104,-8.56226 19.19104,-8.56226c0,0 14.04074,1.05487 18.27483,1.19781c3.16632,0.1069 65.07358,-6.31227 65.46629,4.02842c0.53266,14.02591 -42.9118,0.84825 -43.32112,12.97198c-0.10363,3.06919 2.29812,3.34588 1.62655,6.47221c-0.16118,0.75035 -2.68634,5.84692 -2.96709,7.51446c-0.44567,2.64702 2.7125,6.75845 -0.70034,9.74425c-2.72051,2.38011 -0.95894,7.45931 -1.63836,8.65268c-4.68201,8.22365 -12.87775,4.14036 -21.88549,3.83623c-10.67992,-0.3606 -26.34684,2.83592 -35.68331,1.28265c-4.0302,-0.6705 -8.49481,5.4672 -8.33917,0.85709z" fill="#86c8f5" stroke-width="0"/><g><g><path d="M130.88152,263.48313l0.18835,-5.57873c0,0 2.23406,0.25356 3.12066,-0.68071c1.25259,-1.31996 3.89832,-6.3734 3.89832,-6.3734l0.36023,8.11054c0,0 -3.18632,3.09271 -4.75416,3.93773c-1.13197,0.61008 -2.81343,0.58456 -2.81343,0.58456z" fill="#4d484c" stroke-width="0"/><g><g fill="none" stroke-width="1" font-family="sans-serif" font-weight="normal" font-size="12" text-anchor="start"/><g stroke-width="0"><g><path d="M88.2705,240.17629l-3.66097,-40.95338l8.39656,0.28348l3.66097,40.95338z" fill="#a59da1"/><path d="M84.56785,199.41217c0,0 -0.623,-4.51579 1.21707,-5.73616c1.84006,-1.2204 6.9279,-1.302 6.9279,-1.302l0.2653,7.32211z" fill="#b9b0b5"/><path d="M89.69032,250.87535l-1.36031,-10.72483l8.35644,0.28215l1.36031,10.72483z" fill="#8b8488"/></g><g><path d="M128.55389,238.13765l-3.66096,-40.95337l4.53659,0.15318l3.66097,40.95337z" fill="#a59da1"/><path d="M125.01863,198.18645l-0.59694,-6.46503c0,0 2.95602,-0.581 3.97215,0.60367c1.01614,1.18467 1.00768,5.20209 1.00768,5.20209z" fill="#b9b0b5"/><path d="M129.96121,248.83639l-1.36031,-10.72483l4.50898,0.15222l1.36032,10.72483z" fill="#8b8488"/></g><path d="M90.35966,259.47883c0,0 -3.17577,-2.85157 -3.52312,-4.34873c-0.38664,-1.66662 1.30845,-5.19727 1.30845,-5.19727l47.78849,-2.7839c0,0 1.9342,2.40051 2.30532,3.90023c0.52016,2.10208 -3.85291,6.87181 -3.85291,6.87181z" fill="#494547"/><path d="M92.90517,196.31388c0,0 -2.2959,-0.64516 -2.70701,-1.23365c-0.45142,-0.64622 0.9004,-2.68436 0.9004,-2.68436c0,0 12.07133,-0.60498 17.35632,-0.74886c6.16112,-0.16775 16.59455,0.00058 16.59455,0.00058c0,0 0.48949,1.24113 0.38405,1.83531c-0.10213,0.57545 -0.60393,1.68892 -0.60393,1.68892z" fill="#c2b8bd"/><path d="M90.7558,258.27079c0,0 -1.13842,-2.87536 -1.32383,-4.55817c-0.15387,-1.39658 0.24765,-3.64165 0.24765,-3.64165l44.95722,-2.54123c0,0 1.92085,3.21958 1.86475,4.88132c-0.06028,1.78516 -2.17428,4.28648 -2.17428,4.28648z" fill="#6f696b"/><path d="M101.68838,264.0727l0.18835,-5.57872l29.83068,-0.59854l-0.18835,5.57872z" fill="#333032"/><path d="M90.15798,263.80491c-1.08823,-0.68504 -2.71782,-2.20663 -2.71782,-2.20663l-0.6392,-6.84483c0,0 2.39562,2.35455 3.55634,3.75601c0.82156,0.99194 11.57058,-0.12533 11.57058,-0.12533l-0.18835,5.57872c0,0 -10.49332,0.52708 -11.58155,-0.15795z" data-paper-data="{&quot;index&quot;:null}" fill="#444043"/><g><path d="M91.70603,211.25014c0,0 -2.42326,-4.82667 -2.39073,-6.56875c0.0225,-1.20612 2.56704,-2.88043 2.56704,-2.88043l35.14403,-1.83958c0,0 1.48739,3.17585 1.45834,4.73316c-0.0297,1.59165 -1.63464,4.71599 -1.63464,4.71599z" fill="#979797"/><path d="M91.79542,210.18646c0,0 -2.46256,-4.28277 -2.44479,-5.82086c0.0123,-1.0649 2.54114,-2.52194 2.54114,-2.52194l35.10705,-1.32757c0,0 1.51333,2.81707 1.49743,4.19207c-0.01624,1.40529 -1.59378,4.15076 -1.59378,4.15076z" fill="#a2a2a2"/></g><g><path d="M93.52734,227.8607c0,0 -2.42326,-4.82667 -2.39073,-6.56875c0.0225,-1.20612 2.56704,-2.88043 2.56704,-2.88043l35.14403,-1.83958c0,0 1.48739,3.17585 1.45834,4.73316c-0.0297,1.59165 -1.63464,4.71598 -1.63464,4.71598z" fill="#979797"/><path d="M93.61672,226.79707c0,0 -2.46255,-4.28277 -2.44478,-5.82086c0.01229,-1.06489 2.54113,-2.52194 2.54113,-2.52194l35.10705,-1.32756c0,0 1.51333,2.81707 1.49743,4.19207c-0.01625,1.40529 -1.59378,4.15076 -1.59378,4.15076z" fill="#a2a2a2"/></g><g><path d="M95.43889,244.96985c0,0 -2.42326,-4.82667 -2.39073,-6.56875c0.0225,-1.20612 2.56704,-2.88043 2.56704,-2.88043l35.14403,-1.83958c0,0 1.48739,3.17585 1.45834,4.73316c-0.0297,1.59165 -1.63464,4.71598 -1.63464,4.71598z" fill="#7a7a7a"/><path d="M95.52827,243.90623c0,0 -2.46256,-4.28277 -2.44479,-5.82087c0.01229,-1.06489 2.54112,-2.52193 2.54112,-2.52193l35.10706,-1.32757c0,0 1.51332,2.81707 1.49743,4.19207c-0.01625,1.40529 -1.59378,4.15077 -1.59378,4.15077z" fill="#929292"/></g></g></g></g><path d="M88.75254,244.1487c0,0 -0.3274,-1.72849 -0.55406,-4.04805c-0.66545,-6.8101 -3.83038,-40.82227 -3.83038,-40.82227l3.02098,4.40743l2.40096,29.52258z" fill="#777275" stroke-width="0"/></g></g><g fill="#86c8f5" stroke-width="0"><path d="M374.10681,200.08796c4.99877,-0.42524 6.98657,6.11122 7.17266,14.15403c0.18608,8.04281 -2.72352,14.74582 -6.49879,14.97154c-3.77528,0.22575 -6.98657,-6.11122 -7.17266,-14.15403c-0.18608,-8.04281 0.73987,-14.48166 6.49879,-14.97154z" data-paper-data="{&quot;index&quot;:null}"/><path d="M356.05862,215.27029c-0.22679,-8.04177 0.62623,-12.62029 6.3826,-13.13936c4.99658,-0.45055 7.05778,4.21089 7.28457,12.25265c0.22679,8.04178 -2.64886,14.75938 -6.42294,15.00426c-3.77406,0.24485 -7.01744,-6.07578 -7.24424,-14.11754z" data-paper-data="{&quot;index&quot;:null}"/><path d="M344.82751,223.35847c-0.22679,-8.04177 0.59416,-15.69537 6.35054,-16.21442c4.99658,-0.45055 7.08983,7.28595 7.31662,15.3277c0.22679,8.04177 -3.34905,10.67275 -7.12314,10.91761c-3.77407,0.24485 -6.31724,-1.98912 -6.54402,-10.03089z" data-paper-data="{&quot;index&quot;:null}"/><path d="M339.89467,213.08961c4.99658,-0.45055 7.05778,4.21089 7.28457,12.25265c0.22679,8.04177 -3.34905,10.67275 -7.12314,10.91761c-3.77407,0.24485 -6.31724,-1.98912 -6.54402,-10.03089c-0.22679,-8.04177 0.62623,-12.62029 6.3826,-13.13936z" data-paper-data="{&quot;index&quot;:null}"/></g></g></g></svg>