<svg version="1.1" xmlns="http://www.w3.org/2000/svg" xmlns:xlink="http://www.w3.org/1999/xlink" width="470.10356" height="187.88994" viewBox="0,0,470.10356,187.88994"><defs><linearGradient x1="548.92882" y1="194.7583" x2="548.40816" y2="199.54164" gradientUnits="userSpaceOnUse" id="color-1"><stop offset="0" stop-color="#1f1d20"/><stop offset="1" stop-color="#202022"/></linearGradient><linearGradient x1="549.8912" y1="189.9793" x2="549.29211" y2="195.48299" gradientUnits="userSpaceOnUse" id="color-2"><stop offset="0" stop-color="#302d31"/><stop offset="1" stop-color="#1f1e20"/></linearGradient><linearGradient x1="211.87084" y1="201.53814" x2="211.50396" y2="204.90825" gradientUnits="userSpaceOnUse" id="color-3"><stop offset="0" stop-color="#585758"/><stop offset="1" stop-color="#575758"/></linearGradient><linearGradient x1="197.74398" y1="210.13839" x2="197.45597" y2="212.78411" gradientUnits="userSpaceOnUse" id="color-4"><stop offset="0" stop-color="#363536"/><stop offset="1" stop-color="#353536"/></linearGradient><linearGradient x1="350.31112" y1="133.3963" x2="349.71177" y2="138.90225" gradientUnits="userSpaceOnUse" id="color-5"><stop offset="0" stop-color="#5e555b"/><stop offset="1" stop-color="#2b2629"/></linearGradient><linearGradient x1="342.84733" y1="111.79478" x2="342.41487" y2="115.76747" gradientUnits="userSpaceOnUse" id="color-6"><stop offset="0" stop-color="#72676e"/><stop offset="1" stop-color="#5e555b"/></linearGradient><linearGradient x1="229.04988" y1="113.38828" x2="228.40836" y2="119.28149" gradientUnits="userSpaceOnUse" id="color-7"><stop offset="0" stop-color="#5e555b"/><stop offset="1" stop-color="#4d454a"/></linearGradient><linearGradient x1="230.59221" y1="99.21967" x2="230.1418" y2="103.35749" gradientUnits="userSpaceOnUse" id="color-8"><stop offset="0" stop-color="#74686f"/><stop offset="1" stop-color="#5e555b"/></linearGradient></defs><g transform="translate(-83.60633,-98.21175)"><g data-paper-data="{&quot;isPaintingLayer&quot;:true}" fill-rule="nonzero" stroke="none" stroke-linecap="butt" stroke-linejoin="miter" stroke-miterlimit="10" stroke-dasharray="" stroke-dashoffset="0" style="mix-blend-mode: normal"><path d="M106.55071,233.56599c1.45899,-3.91669 4.89525,-15.82611 7.47959,-24.23092c2.58432,-8.40479 13.09421,-17.24963 16.58927,-14.64034c3.49505,2.60929 2.00257,1.15769 3.29982,9.0423c0.54139,3.29054 -3.32615,7.17022 -5.56193,10.48712c-2.87193,4.26064 -4.9982,11.20439 -4.0723,11.76898c0.81755,0.49853 2.79168,5.80309 3.65548,5.97533c9.6579,1.92575 19.23365,-0.33738 24.66799,1.68695c7.08827,2.64045 3.47164,13.3104 4.4059,19.89232c0.50758,3.57594 0.65259,6.83833 1.87893,10.05779c1.1723,3.07757 -2.48548,8.67512 -3.85679,12.3564c-5.44629,14.62059 -24.37488,10.66084 -38.99546,5.21453c-3.94182,-1.46837 -5.97546,6.42572 -9.07841,2.49815c-6.37117,-8.06435 -11.89151,-30.85347 -10.15251,-40.8708c0.55545,-3.19969 8.77743,-6.65263 9.74044,-9.23783z" fill="#86c8f5" stroke-width="0"/><g><g><g stroke-width="0"><path d="M274.52036,193.27777l-8.50952,-16.36223l25.48912,2.18094c0,0 -1.72278,5.67573 -2.21355,8.33677c-0.47471,2.57412 -0.68441,7.37737 -0.68441,7.37737z" fill="#7f7d7e"/><path d="M274.59685,193.48402l-3.01147,-5.96786c0,0 1.96,3.78942 5.11061,4.75073c2.26873,0.69221 4.17735,0.58819 6.80835,1.1973c2.63098,0.60909 4.97861,1.53142 4.97861,1.53142z" fill="#6c6a6b"/></g><g><g><g><path d="M545.43461,199.21796l-1.52621,-5.00615c0,0 5.77688,2.29649 8.26239,3.46518c2.48551,1.1687 0.8331,2.13166 0.8331,2.13166z" fill="url(#color-1)" stroke-width="0"/><path d="M553.43313,190.56567c0,0 1.21903,2.47425 -1.45968,3.0808c-2.67873,0.60656 -5.69708,1.50826 -5.69708,1.50826l-0.36584,-5.60876z" data-paper-data="{&quot;index&quot;:null}" fill="url(#color-2)" stroke-width="0"/><path d="M535.8737,198.17258l0.22708,-2.08604l14.68579,1.59864c0,0 1.16425,0.92573 1.60957,1.34263c0.4003,0.37477 -0.83237,0.85273 -0.83237,0.85273z" fill="#444444" stroke-width="NaN"/><path d="M536.11877,196.23277l-0.99387,-1.87245l12.54158,1.36521l3.19638,1.99971c0,0 -4.21886,-0.21984 -6.51201,-0.45197c-2.58621,-0.26181 -8.2321,-1.04056 -8.2321,-1.04056z" fill="#535353" stroke-width="0"/><path d="M534.99862,194.48411l-0.2536,-0.67138l11.40639,1.24163l1.6187,0.70501z" fill="#363636" stroke-width="0"/><path d="M535.8737,198.17258l0.12319,-1.13168c0,0 6.3666,1.14931 9.22949,1.46097c2.42604,0.26409 6.85522,0.28995 6.85522,0.28995c0,0 0.80904,0.55303 1.03296,0.7815c0.1889,0.19272 -0.29842,0.44356 -0.29842,0.44356c0,0 -4.74874,-0.11006 -7.04889,-0.36044c-3.10321,-0.3378 -9.89353,-1.48385 -9.89353,-1.48385z" fill="#3a3a3a" stroke-width="NaN"/><path d="M535.06211,193.86563l-0.45464,-0.93843l13.56153,1.47625l-1.91021,0.71511z" fill="#242424" stroke-width="0"/><path d="M533.78368,193.02786l0.17902,-1.64459c0,0 8.06813,0.67082 11.04629,0.99505c2.02903,0.22088 5.09487,0.76203 5.09487,0.76203l-1.96417,1.28433z" fill="#3a3a3a" stroke-width="0"/><path d="M533.82929,191.41155l0.22104,-2.03056c0,0 7.64405,0.50025 10.93884,0.8589c2.85115,0.31036 7.69219,1.16919 7.69219,1.16919l-2.62502,1.76888c0,0 -3.62453,-0.4775 -5.85577,-0.72039c-2.96586,-0.32284 -10.37126,-1.04601 -10.37126,-1.04601z" fill="#444444" stroke-width="0"/><path d="M533.99822,189.46091l0.09211,-0.84606c0,0 7.84097,0.72909 11.41707,1.11837c2.49009,0.27106 7.98667,0.99381 7.98667,0.99381l-0.95206,0.75246c0,0 -4.99306,-0.8339 -7.94087,-1.15477c-3.24772,-0.35355 -10.60291,-0.86379 -10.60291,-0.86379z" fill="#535353" stroke-width="0"/><path d="M533.95233,188.68544l0.03685,-0.33843c0,0 7.6861,0.32662 11.12615,0.70111c2.97421,0.32376 8.32053,1.41576 8.32053,1.41576l0.00052,0.3425c0,0 -5.95575,-0.81423 -9.18171,-1.16541c-3.26813,-0.35576 -10.30226,-0.95553 -10.30226,-0.95553z" fill="#4e4e4e" stroke-width="0"/></g><g stroke-width="0"><g><g><g><path d="M530.10712,197.05396l-3.13037,-13.58215l0.73604,-1.6514c0,0 3.10494,3.58627 3.75242,6.16185c0.3515,1.39827 0.08795,9.2291 0.08795,9.2291z" fill="#383638"/><path d="M531.22694,196.48038c0,0 0.12402,-0.59979 -0.23526,-3.10829c-0.3918,-2.73561 -1.38251,-6.502 -1.6571,-7.6122c-0.61644,-2.49206 -1.35278,-2.70347 -1.35278,-2.70347l4.83477,-0.05894l3.47141,14.03385z" fill="#555355"/><path d="M528.03617,183.14822l-0.4446,-1.29208c0,0 2.0949,-0.5767 3.05086,-0.47262c0.89579,0.0975 1.9457,0.94338 1.9457,0.94338l0.43673,1.36436z" fill="#686668"/></g><path d="M524.46773,196.4401l-3.13037,-13.58214l0.40498,-1.66718c0,0 3.43602,3.60205 4.08345,6.17759c0.3515,1.39826 0.08796,9.2291 0.08796,9.2291z" fill="#383638"/><path d="M525.58752,195.86648c0,0 0.12402,-0.5998 -0.23525,-3.10829c-0.3918,-2.73561 -1.38251,-6.502 -1.6571,-7.6122c-0.61644,-2.49206 -1.35278,-2.70347 -1.35278,-2.70347l4.14328,-0.63719c0,0 0.88434,1.35793 1.07224,2.11749c0.53532,2.16411 3.09065,12.49457 3.09065,12.49457z" fill="#555355"/><path d="M522.39677,182.53428l-0.66151,-1.3157c0,0 2.3118,-0.55309 3.2678,-0.44899c0.89579,0.0975 1.65649,0.91189 1.65649,0.91189l0.56102,1.37791z" fill="#686668"/><path d="M532.14802,195.581c0.08867,-0.8147 0.82103,-1.40325 1.63574,-1.31458c0.81471,0.08867 1.40325,0.82103 1.31458,1.63574c-0.08867,0.8147 -0.82103,1.40325 -1.63573,1.31458c-0.81471,-0.08867 -1.40325,-0.82103 -1.31458,-1.63574z" fill="#312f31"/><path d="M533.11678,192.73987l-1.38742,-5.7303l1.59753,0.02971l1.38045,5.79447z" fill="#444144"/></g><path d="M485.90363,187.24637l-2.5713,-11.16737l29.57954,4.40332l-1.51178,9.53948z" fill="#444444"/><path d="M498.89399,184.72183c0,0 0.68872,-0.45004 1.52634,-1.4703c0.76586,-0.93281 1.66494,-2.42216 2.09752,-2.84157c1.1542,-1.59093 3.46828,-0.86944 3.46828,-0.86944l-1.0445,0.54321l-4.91147,4.76179z" fill="#292929"/><path d="M500.53744,195.49237l-5.28877,-11.61193c0,0 3.4207,0.90678 5.22785,0.04822c1.4043,-0.6672 1.59552,-3.29389 3.19402,-3.40246c4.58619,-0.31145 17.43206,0.65046 17.43206,0.65046c0,0 2.44792,7.45365 3.05729,10.4241c0.42067,2.05069 0.35016,6.5012 0.35016,6.5012z" fill="#4a464a"/><path d="M506.06885,182.90852c-4.4652,-1.12587 -2.88525,-2.32589 -2.88525,-2.32589c0,0 0.92899,-1.2088 2.80116,-1.15202c4.59427,0.13932 13.12415,1.64816 14.83905,1.80905c0.80876,0.07585 0.26924,0.72921 0.26924,0.72921c0,0 -1.73883,2.21077 -3.30784,2.29552c-1.56904,0.08474 -7.25118,-0.22997 -11.71638,-1.35588z" fill="#5e595e"/></g><g><path d="M488.09127,200.75169l-3.19008,-18.3887l18.76575,2.33076l4.30287,4.82232l6.07406,0.56208l1.49815,13.66171z" fill="#4d4846"/><path d="M492.71238,201.64412l21.55123,-7.10103l22.21683,2.17457c0,0 0.85165,4.30029 0.84719,5.66238c-0.00231,0.69444 -0.47266,2.91003 -0.47266,2.91003z" fill="#423d3b"/><path d="M489.8204,192.96921l-2.09529,-10.1324l0.81569,0.08879l2.0953,10.1324z" fill="#363332"/><path d="M493.38127,200.91059l0.13174,-1.21024c0,0 5.50902,-1.96079 14.52066,-0.97984c1.19735,0.13034 5.14524,3.12057 6.35205,3.25194c7.65688,0.83348 15.15149,1.64932 18.00273,1.95969c2.32205,0.25277 4.83393,-0.78148 4.83393,-0.78148l-0.27244,2.50261z" fill="#312e2c"/><path d="M497.11592,188.50166l-1.2339,-4.77695l8.25891,0.89903l3.65215,4.84499l6.24849,0.87541l-7.75604,1.11595z" fill="#585350"/><path d="M486.92414,194.45939l0.12211,-1.12158c0,0 8.40373,-2.85093 11.26404,-2.53956c4.31091,0.46926 16.2119,1.76476 16.2119,1.76476l-0.12211,1.12158c0,0 -12.10504,-1.3177 -16.41586,-1.78695c-2.80157,-0.30499 -11.06012,2.56175 -11.06012,2.56175z" fill="#2b2827"/></g></g></g><g><g><g><path d="M149.64117,200.65027c0.29587,2.27939 -0.29196,4.82025 -1.40514,4.96472c-1.11318,0.14449 -2.3302,-2.16207 -2.62607,-4.44149c-0.29587,-2.27939 -1.49011,-11.03042 -0.3769,-11.17492c1.11318,-0.14449 4.11226,8.37225 4.40814,10.65167z" fill="#615e5f" stroke-width="0"/><g><path d="M194.22818,175.39805c-0.47906,-0.58289 -2.66398,-2.14085 -2.66398,-2.14085l10.17341,-1.78958l-6.7439,6.50844c0,0 -0.28647,-1.99512 -0.76553,-2.57797z" fill="#756a6a" stroke-width="0"/><path d="M185.43826,172.73402l1.48616,-13.65268l19.05936,-3.82661l-2.12102,19.48491z" fill="#8a7c7c" stroke-width="0"/><path d="M145.04809,173.81655l8.58983,-17.30541l34.74261,3.64781l3.13597,13.08286c0,0 -23.02546,-0.92108 -30.77712,-0.82519c-3.21778,0.0398 -15.69131,1.39996 -15.69131,1.39996z" fill="#7c787a" stroke-width="0"/><path d="M153.49534,158.91466l0.01304,-1.48881c0,0 25.77198,2.80539 33.87395,3.68734c4.53308,0.49344 16.74269,-4.58546 16.74269,-4.58546l-0.17634,1.62007c0,0 -11.91506,5.09158 -16.29755,4.59978c-8.03584,-0.90177 -34.15579,-3.83289 -34.15579,-3.83289z" fill="#535353" stroke-width="0"/><path d="M113.08038,171.04874l2.18098,-20.03564c0,0 5.2679,-6.52238 12.71801,-8.02092c9.25333,-1.86124 25.84974,1.74101 27.90824,1.96509c1.57966,0.17197 -13.95903,8.95869 -13.95903,8.95869l-2.18098,20.03564z" fill="#8d898b" stroke-width="0"/><path d="M290.00552,143.89256l1.93348,-2.95235l106.91801,11.78226l-1.59577,14.65963c0,0 -37.75848,-2.25377 -49.86249,-3.98993c-6.0112,-0.86223 -57.39321,-19.49962 -57.39321,-19.49962z" fill="#c98cac" stroke-width="0"/><path d="M257.53885,241.95513l-3.11703,-13.35215c0,0 4.47596,6.36119 7.19036,7.73988c1.72941,0.87841 5.88943,1.71525 12.22808,-0.04657c5.10285,-1.41833 10.83754,-6.33743 10.83754,-6.33743l-13.21747,13.51166z" fill="#a08e97" stroke-width="0"/><path d="M352.57423,205.10706l0.23199,-23.73569l18.59026,0.61262l-2.29385,21.07253c0,0 -6.54586,1.01673 -9.3703,1.41168c-1.3005,0.18186 -7.15809,0.63889 -7.15809,0.63889z" fill="#96858d" stroke-width="0"/><path d="M255.30665,245.48013l0.59952,-5.50762c0,0 11.76855,3.36181 16.69871,0.75874c2.39938,-1.26684 21.41739,-20.25279 31.90517,-30.81185c4.09283,-4.12066 6.88659,-6.95793 6.88659,-6.95793c0,0 3.74794,-3.38752 4.06383,-6.25236c0.1589,-1.44115 1.07829,-5.54448 0.50176,-7.93222c-0.58168,-2.40911 -2.66007,-3.09637 -2.66007,-3.09637l-3.37481,-14.01983l19.6841,2.28724l-5.76796,26.10244l3.45889,2.95351c0,0 -10.1482,4.93087 -15.28622,9.35655c-8.03912,6.92452 -34.57917,34.59988 -34.57917,34.59988z" fill="#918189" stroke-width="0"/><path d="M329.49201,202.94926l4.30185,-28.30458l13.6649,1.7649l9.004,13.0532l-3.99481,15.98757z" fill="#96858d" stroke-width="0"/><path d="M324.7939,204.29794l-2.0459,-4.39298l6.35233,-25.65313l5.05919,0.46552l-3.76519,28.34571z" fill="#8f8187" stroke-width="0"/><path d="M351.22965,205.41972c0,0 3.45706,-6.33012 2.69783,-11.85557c-0.43715,-3.18151 -5.10609,-5.6711 -5.37409,-7.62147c-0.51192,-3.72574 -1.30391,-9.48948 -1.30391,-9.48948l7.33673,5.18838c0,0 2.60551,7.53999 2.73856,11.84116c0.08943,2.88975 -2.07553,9.06775 -3.27796,11.55108c-0.10137,0.20935 -1.26162,-0.00072 -1.33083,0.15806c-0.16908,0.38784 0.76443,0.72214 0.76443,0.72214z" fill="#86787e" stroke-width="0"/><path d="M354.21057,183.10946c0,0 -2.64468,-4.26618 -7.19457,-5.73884c-5.15097,-1.66716 -22.1323,-3.7532 -22.1323,-3.7532l158.34574,2.97118l2.38883,9.61678l6.66554,11.93408c0,0 -99.92172,-13.46363 -120.38917,-15.6916c-6.67882,-0.72703 -17.68411,0.6616 -17.68411,0.6616z" fill="#df8db7" stroke-width="0"/><path d="M195.78204,213.42335l-0.84489,-36.57607c0,0 2.07922,-3.54648 2.60079,-3.70665c5.75043,-1.76593 38.75164,-8.8883 44.12796,-8.0151c5.88947,0.95654 -10.43087,11.17903 -10.43087,11.17903c0,0 -14.54443,0.45466 -17.52713,4.40496c-4.04961,5.36336 -1.10863,23.13955 -1.10863,23.13955z" fill="#c77da3" stroke-width="0"/><path d="M271.01586,191.50722l-1.55115,-2.28657c0,0 7.45184,-7.84624 10.11923,-9.86214c2.75382,-2.08124 6.15267,-2.43561 6.15267,-2.43561l5.65148,2.93098c0,0 -4.39539,-0.984 -6.93098,0.4664c-2.17671,1.24512 -6.23994,3.89966 -9.35835,6.67082c-2.26841,2.0158 -4.08289,4.51609 -4.08289,4.51609z" fill="#414041" stroke-width="0"/><path d="M153.29108,157.83995l6.0368,-11.10145l48.34288,5.26236c0,0 -3.36372,4.11567 -6.67776,5.73265c-3.25263,1.58704 -13.02569,3.88108 -13.02569,3.88108z" fill="#979395" stroke-width="0"/><path d="M154.21005,156.79034l5.24149,-11.18801l48.34288,5.26236c0,0 -3.36372,4.11567 -6.67776,5.73265c-3.25263,1.58704 -13.02569,3.88108 -13.02569,3.88108z" fill="#bdb7ba" stroke-width="0"/><path d="M353.58898,205.99915l-1.80634,-0.71317l17.20172,-2.32695c0,0 -3.7621,1.66001 -6.3177,2.18344c-2.5556,0.52345 -9.07766,0.85665 -9.07766,0.85665z" fill="#887980" stroke-width="0"/><path d="M198.20289,214.15407c0,0 -1.19394,-10.65726 -1.464,-19.27555c-0.27136,-8.66034 -0.50059,-16.77956 -0.13462,-20.3456c0.06201,-0.60415 2.77508,-10.29815 3.32834,-10.76241c2.98638,-2.50597 9.84475,6.02992 15.49562,5.53497c8.36704,-0.73284 27.41894,0.82391 27.41894,0.82391l-8.97877,4.36467c0,0 -19.64543,0.74354 -22.57898,5.59179c-3.96787,6.55776 1.29967,28.12721 1.29967,28.12721z" fill="#d486ae" stroke-width="0"/><path d="M199.70859,210.77835c0,0 -2.19905,-41.35239 0.21053,-51.22661c1.12741,-4.62003 -1.22205,-14.03746 -1.22205,-14.03746l49.61557,12.41074l-0.32346,16.12972c0,0 -31.51939,-6.54252 -38.51145,-0.9926c-4.66745,3.70474 -0.95469,32.5188 -0.95469,32.5188z" fill="#e490bb" stroke-width="0"/><g stroke-width="0"><path d="M344.13656,163.13422l0.89547,-8.22628l9.30502,1.01291l-0.89547,8.22628z" fill="#454545"/><path d="M345.04678,162.46395l0.43513,-7.29384l11.25968,1.22568l-0.78977,7.25523z" fill="#b0b0b0"/><path d="M345.30337,157.97633l0.07905,-2.83842l11.47505,1.24912l-0.20641,1.89617c0,0 -7.78199,-0.52275 -9.4864,-0.56884c-0.56951,-0.0154 -1.86133,0.26197 -1.86133,0.26197z" fill="#bebebe"/><path d="M356.2632,163.13215c0,0 -5.23163,-3.13994 -4.25842,-6.80381c1.44616,-5.44449 5.49143,-4.52324 5.49143,-4.52324l39.86179,5.68039l-1.08871,10.00153z" fill="#9c989a"/><path d="M358.17951,162.0439c0,0 -2.09135,-3.76738 -2.23377,-4.71518c-0.21111,-1.40496 2.09201,-4.12903 2.09201,-4.12903l41.34787,4.53446l-1.20804,7.4014z" fill="#898587"/><path d="M358.06825,162.23122l-0.80374,-2.03835l38.00723,4.13728l-0.20987,1.92801z" fill="#c1bcbf"/><path d="M358.31506,158.8441c0,0 -1.17748,-1.50423 -1.07603,-2.43609c0.09488,-0.87166 1.66631,-2.98644 1.66631,-2.98644l38.43958,4.18435l-0.59027,5.42251z" fill="#0d0d0d"/><path d="M358.23094,159.61683c0,0 -1.11213,-2.10445 -1.01069,-3.03631c0.09488,-0.87166 1.60096,-2.38621 1.60096,-2.38621l38.43959,4.18435l-0.59027,5.42251z" fill="#2e2e2e"/><path d="M353.2273,160.98672c-2.29146,-3.33451 -0.88027,-5.53123 -0.88027,-5.53123c0,0 1.37646,4.28646 2.50757,5.31249c1.33919,1.21473 4.77998,2.96336 4.77998,2.96336l-3.49576,-0.30994c0,0 -2.50826,-1.84781 -2.9115,-2.43461z" fill="#7d7a7c"/><path d="M360.78218,160.20606c0,0 -0.6443,-2.29519 -0.52055,-3.43205c0.10878,-0.99933 1.22394,-3.02979 1.22394,-3.02979l4.795,0.52197c0,0 -0.69692,2.14114 -0.79086,3.00427c-0.12914,1.1863 0.08746,3.45754 0.08746,3.45754z" fill="#555555"/><path d="M369.34825,161.13856c0,0 0.93579,-2.43615 1.05953,-3.57299c0.10878,-0.99933 -0.35612,-2.88886 -0.35612,-2.88886l5.35172,0.58256c0,0 -0.59981,1.6599 -0.69376,2.52306c-0.12914,1.1863 -0.00963,3.93875 -0.00963,3.93875z" fill="#555555"/><path d="M378.62015,162.14784c0,0 0.9358,-2.43615 1.05955,-3.57299c0.10878,-0.99933 -0.35613,-2.88885 -0.35613,-2.88885l5.27219,0.57388c0,0 -0.59981,1.6599 -0.69376,2.52306c-0.12914,1.1863 -0.00963,3.93875 -0.00963,3.93875z" fill="#555555"/><path d="M388.2267,163.19355c0,0 1.07406,-2.06342 1.19779,-3.20029c0.10878,-0.99933 -0.49439,-3.26153 -0.49439,-3.26153l5.11314,0.55658c0,0 0.60845,2.05967 0.51449,2.92286c-0.12914,1.1863 -1.21788,3.539 -1.21788,3.539z" fill="#555555"/><path d="M361.1448,154.41529l-0.57465,-0.86728l35.35375,3.84843l-1.61181,0.62927c0,0 -2.81346,-0.30628 -5.26121,-0.5727c-0.53353,-0.05809 -1.50758,-0.49479 -2.30675,-0.58183c-0.77271,-0.08413 -1.36293,0.18235 -2.32344,0.0778c-1.49783,-0.16306 -3.1878,-0.34701 -4.957,-0.5396c-0.73351,-0.07985 -1.33023,-0.53063 -2.08294,-0.61255c-0.66933,-0.07284 -1.49347,0.22323 -2.16595,0.15005c-1.669,-0.18169 -3.32157,-0.36158 -4.87532,-0.53069c-0.71348,-0.07766 -1.35869,-0.58885 -2.02251,-0.66111c-0.81039,-0.08823 -1.62528,0.26403 -2.33531,0.18674c-2.89634,-0.31528 -4.83689,-0.52651 -4.83689,-0.52651z" fill="#474747"/></g><g><path d="M207.53492,205.16341l4.00557,-2.44836c0,0 2.50371,3.10406 5.22425,4.30047c2.4062,1.05816 10.27202,2.5142 10.27202,2.5142l-3.11068,4.04141z" fill="#6d6a6b" stroke-width="0"/><path d="M198.81984,210.75334l9.97646,-6.34281c0,0 2.97154,2.59333 5.05594,3.48604c3.15341,1.35051 12.0234,3.82866 12.0234,3.82866l-4.71876,3.81912z" fill="#615e5f" stroke-width="0"/><path d="M198.42967,232.80799l0.96816,-22.60103c0,0 4.24295,1.25849 9.03274,1.80966c3.73861,0.43021 7.85429,0.02612 10.25762,0.89966c4.21921,1.53358 36.21132,17.44477 36.21132,17.44477l1.36285,10.38328z" fill="#575455" stroke-width="0"/><path d="M222.82071,208.26145c7.49485,-4.78225 16.97264,-17.28206 18.50185,-19.70217c1.10168,-1.74351 2.3561,-6.91417 2.3561,-6.91417l6.921,7.60844c0,0 3.5974,21.00942 3.40248,33.70966c-0.05455,3.55363 2.02122,7.74812 0.68324,9.0776c-1.19881,1.19118 -18.30831,1.63215 -23.5881,0.2881c-11.11113,-2.82839 -17.17105,-0.68205 -20.32289,-6.33167c-3.15187,-5.6496 4.58576,-11.11462 4.58576,-11.11462c0,0 5.50943,-5.37618 7.46062,-6.62119z" fill="#504e4f" stroke-width="0"/><path d="M231.15033,176.14902c0,0 0.55505,-1.44118 1.47883,-2.00806c1.18806,-0.72905 5.05818,-2.0034 5.05818,-2.0034c0,0 9.08823,3.06885 11.81134,5.87001c2.51248,2.5844 -4.84395,12.12557 -4.84395,12.12557l-1.41454,-5.54703z" fill="#464445" stroke-width="0"/><path d="M249.13761,225.6135c0,0 -9.90671,5.21434 -18.35983,4.46661c-8.15476,-0.72133 -14.87162,-7.37914 -14.61132,-8.78144c0.141,-0.75978 8.38013,-3.18773 12.29305,-7.00816c4.34961,-4.24677 4.48106,-9.96766 6.04155,-11.82013c4.35643,-5.17163 13.8533,-14.3765 13.45251,-20.49945c-0.42031,-6.42129 -10.85049,-9.6428 -10.85049,-9.6428c0,0 4.07226,-1.8217 9.04271,-1.41128c2.11722,0.17481 6.48814,2.04466 7.36436,2.52728c2.87332,1.58258 4.67528,3.42466 4.67528,3.42466c0,0 4.16511,-4.45476 7.77956,-4.37259c3.61446,0.08217 22.0107,5.04973 22.0107,5.04973l-17.4782,10.76578z" fill="#555354" stroke-width="0"/><path d="M234.0427,203.01896c0,0 5.77026,-10.30891 11.06101,-15.19999c5.29074,-4.89108 9.68937,-7.61154 13.20098,-7.22927c2.54292,0.2768 4.8795,9.19745 4.8795,9.19745l-14.12517,27.40159c0,0 -14.89014,1.67762 -16.09027,-0.94834c-0.94787,-2.07399 1.07395,-13.22142 1.07395,-13.22142z" fill="#585758" stroke-width="0"/><path d="M253.51139,232.59923c0,0 -2.19129,-6.46617 -1.5399,-9.43532c0.90998,-4.14789 3.71477,-16.57126 3.71477,-16.57126l0.81588,10.58617c0,0 -1.69155,9.62095 -1.8875,12.64739c-0.18906,2.92001 0.99102,5.23169 0.99102,5.23169z" fill="#3f3e3f" stroke-width="0"/><path d="M254.52151,214.7384c-0.01305,-1.68611 1.0867,-9.32287 1.0867,-9.32287c0,0 11.07854,-13.44806 13.45074,-15.8586c0.69545,-0.70666 4.21871,-2.0643 4.21871,-2.0643l-2.16187,4.64726c0,0 -1.62996,0.43013 -1.86042,0.88572c-0.24554,0.48538 0.42953,1.94277 0.42953,1.94277l-6.01641,7.87529c0,0 -1.75029,0.82602 -1.9831,1.30903c-0.23288,0.48313 0.35461,1.44048 0.35461,1.44048c0,0 -4.7993,8.47165 -5.89815,10.78106c-0.50807,1.0678 -0.42941,2.51743 -0.42941,2.51743c0,0 -1.17784,-2.46713 -1.19087,-4.15326z" fill="#474647" stroke-width="0"/><path d="M243.74164,192.47272l20.04395,10.46585c0,0 -1.2915,0.87769 -1.58563,1.3879c-0.21705,0.37648 -0.01919,1.39597 -0.01919,1.39597z" fill="#3f3e3e" stroke-width="NaN"/><path d="M250.82676,182.82987l20.52215,9.33447c0,0 -1.19973,0.71769 -1.46971,1.24793c-0.28142,0.55275 -0.03087,1.66561 -0.03087,1.66561z" fill="#3f3e3e" stroke-width="NaN"/><path d="M235.35615,209.99524c0,0 9.79713,8.80492 14.99388,15.38351c5.19672,6.57862 3.13685,7.56833 3.13685,7.56833z" fill="#636162" stroke-width="NaN"/><path d="M251.06002,188.51188c0,0 -6.27968,2.23764 -9.34791,5.01786c-3.06825,2.78022 -13.10452,17.96623 -12.78578,15.038c0.31876,-2.92823 15.60578,-22.10768 17.39017,-21.91346c0.67548,0.07354 3.81752,-0.73346 4.60543,-0.40882c1.2935,0.53297 0.13809,2.26637 0.13809,2.26637z" fill="#918f91" stroke-width="0"/><path d="M197.99016,232.62999l14.06528,-0.36838c0,0 12.55788,1.03275 15.65937,1.52635c7.55303,1.20202 29.82343,5.71201 29.82343,5.71201l-1.12841,6.23559c0,0 -24.60374,0.90828 -31.3153,-1.14571c-1.94165,-0.59422 -7.65727,-1.83811 -11.7417,-3.64289c-7.99304,-3.53189 -15.36265,-8.31694 -15.36265,-8.31694z" fill="#626061" stroke-width="0"/><path d="M255.44883,245.27701c0,0 0.50475,-4.26305 0.31163,-6.63774c-0.21702,-2.66907 -1.55044,-8.59704 -1.55044,-8.59704l1.77187,0.19287c0,0 1.22678,4.61667 1.42326,7.03298c0.21481,2.64186 -0.18445,8.20182 -0.18445,8.20182z" fill="#4a494a" stroke-width="0"/><path d="M255.16422,246.08729l0.45536,-3.36767c0,0 0.53477,0.3245 0.8047,0.35386c0.32071,0.03493 0.95243,-0.16259 0.95243,-0.16259l-0.17104,3.17672c0,0 -0.81611,0.32119 -1.18807,0.32112c-0.28503,-0.00003 -0.85333,-0.32146 -0.85333,-0.32146z" fill="#363536" stroke-width="0"/><path d="M254.37252,231.09128l-0.20821,-1.65286c0,0 0.45328,-0.30715 0.826,-0.32617c0.35497,-0.0181 0.86103,0.16046 0.86103,0.16046l0.31077,1.78048c0,0 -0.53392,0.45231 -0.8405,0.45883c-0.28887,0.00614 -0.94909,-0.42073 -0.94909,-0.42073z" fill="#585758" stroke-width="0"/><path d="M213.89329,240.31975c0,0 -7.52925,-3.78987 -7.38174,-5.14489c0.14825,-1.36178 6.47549,-1.85075 6.47549,-1.85075c0,0 10.90568,0.94495 15.81488,1.65298c2.74836,0.39639 11.13288,2.23348 11.13288,2.23348c0,0 7.13492,1.83712 7.82059,3.07027c0.74791,1.34512 -3.40102,3.75192 -3.40102,3.75192c0,0 -12.79047,-0.07855 -16.70945,-0.7146c-1.39216,-0.22597 -13.75157,-2.99832 -13.75157,-2.99832z" fill="#6b696a" stroke-width="0"/><path d="M204.31809,232.33518l-1.97514,0.01716c0,0 0.9944,-3.34672 3.56404,-1.81748c2.56961,1.52928 21.54162,2.57708 21.54162,2.57708z" fill="#4b4949" stroke-width="0"/><path d="M198.07825,232.4947c0,0 -2.00677,-0.02573 -2.14452,-3.705c-0.06972,-1.86242 -0.26367,-16.15951 -0.26367,-16.15951l4.02775,-2.47779c0,0 0.02915,6.03231 -0.07993,8.93982c-0.14514,3.86696 -0.62189,13.50233 -0.62189,13.50233z" fill="#3f3d3e" stroke-width="0"/><path d="M204.62007,232.53495c0,0 3.40748,-1.79995 19.40603,-0.39754c1.3212,0.11583 -1.78117,-0.2261 7.50847,1.29544c9.28963,1.52151 13.01121,3.44823 13.01121,3.44823c0,0 -14.86199,-2.69349 -21.02838,-3.36474c-7.02895,-0.76512 -18.89736,-0.98138 -18.89736,-0.98138z" fill="#838082" stroke-width="0"/><path d="M212.84771,203.62336c0,0 -4.58165,1.70163 -6.91876,3.07231c-2.62685,1.54063 -8.07487,5.72137 -8.07487,5.72137l-0.60655,-1.67711c0,0 4.15753,-3.42388 6.53557,-4.81859c2.6,-1.52486 8.45807,-3.97511 8.45807,-3.97511z" fill="#4a494a" stroke-width="0"/><path d="M213.80413,203.46815l-3.722,1.28532c0,0 0.16578,-0.6322 0.07337,-0.88767c-0.10979,-0.30355 -0.59792,-0.76712 -0.59792,-0.76712l3.3211,-1.45084c0,0 0.69805,0.56554 0.86666,0.89722c0.12922,0.25417 0.05874,0.92307 0.05874,0.92307z" fill="url(#color-3)" stroke-width="0"/><path d="M198.85148,211.74275l-3.22904,2.39442l0.0932,-2.18539l2.28539,-1.78538c0,0 0.70396,0.24774 0.84964,0.51781c0.13727,0.25443 0.00078,1.05851 0.00078,1.05851z" fill="url(#color-4)" stroke-width="0"/></g><path d="M330.75251,201.98349c0,0 1.40012,-4.29235 2.05081,-5.61884c0.44171,-0.90047 2.95607,-2.06689 2.95607,-2.06689l16.94309,1.62484c0,0 -1.89706,5.62548 -2.42377,6.94252c-0.23074,0.57695 -1.36538,1.15014 -1.36538,1.15014z" fill="#665b60" stroke-width="0"/><path d="M284.39947,178.57335c0,0 -3.60284,-1.96387 -8.37769,-3.64267c-3.03537,-1.06725 -7.21897,-2.09275 -9.0805,-2.18898c-5.41206,-0.2798 -8.4687,4.52253 -8.4687,4.52253c0,0 -3.00344,-2.65637 -5.0062,-3.73412c-1.8695,-1.00604 -6.08872,-2.47219 -6.08872,-2.47219c0,0 24.96617,-2.40366 28.8575,-2.56361c7.46,-0.30667 33.94215,2.96978 33.94215,2.96978l4.64144,14.87534z" fill="#8b7c84" stroke-width="0"/><g stroke-width="0"><path d="M332.30066,201.2037c0,0 0.74971,-2.53 1.2545,-3.3751c0.52339,-0.87629 2.80821,-1.68621 2.80821,-1.68621l14.4447,1.57236c0,0 0.27765,1.019 -0.03617,1.72699c-0.42672,0.9626 -3.48427,3.39338 -3.48427,3.39338z" fill="#585852"/><path d="M332.38131,200.46273c0,0 0.66904,-1.78899 1.17385,-2.63411c0.52339,-0.87629 2.88887,-2.42718 2.88887,-2.42718l14.4447,1.57237c0,0 0.19704,1.75999 -0.11684,2.46797c-0.42672,0.9626 -3.40362,2.65236 -3.40362,2.65236z" fill="#797971"/><path d="M349.08126,197.27555c-1.02345,-0.29039 -12.5484,-1.81791 -12.5484,-1.81791l14.42493,1.57022l-0.26642,2.44737c0,0 -0.58667,-1.90927 -1.61012,-2.1997z" fill="#85857b"/></g><path d="M335.68958,183.29717l0.56161,-5.15927l7.09401,0.77221l0.72821,5.29968z" fill="#7c6e75" stroke-width="0"/><path d="M328.18619,155.90071l-3.27226,-8.53551l1.37122,0.14928l5.1475,9.19391z" fill="#d495b6" stroke-width="0"/><path d="M290.23722,144.09568l13.47576,-1.64101l21.3958,4.95698l3.10374,8.47792z" fill="#df9cbe" stroke-width="0"/><path d="M335.30676,188.31272l0.17552,-1.61227l10.80222,1.1759l0.79187,1.71757z" fill="#7c6e75" stroke-width="0"/><path d="M296.28834,171.83943c0,0 -18.15681,-0.77098 -23.81065,-0.8833c-8.56112,-0.1701 -25.78278,0.29423 -25.78278,0.29423c0,0 15.41602,-2.78876 29.00819,-2.83423c14.73737,-0.04931 58.68596,3.26871 58.68596,3.26871l-0.58534,5.3773z" fill="#75686e" stroke-width="0"/><path d="M288.46145,179.80973l-3.16242,-0.91842c0,0 9.97112,-1.31309 15.19677,0.02305c5.22565,1.33612 13.8945,7.41524 13.8945,7.41524z" fill="#7c6e76" stroke-width="0"/><path d="M242.7143,170.77591c0,0 -30.50109,-18.80759 -30.88739,-23.49706c-0.35087,-4.25981 29.39255,5.56136 29.70028,5.48597c5.38457,-1.31892 77.62613,-0.71256 77.62613,-0.71256l25.71776,9.62895l52.51389,5.14159l5.79627,14.28658c0,0 -61.32409,-5.49965 -84.96843,-7.90946c-8.20758,-0.83651 -24.87093,-3.30192 -40.20838,-3.82444c-11.83079,-0.40305 -29.88036,1.97426 -29.88036,1.97426z" fill="#ee96c3" stroke-width="0"/><path d="M112.98369,169.27149l5.48839,-19.67561c0,0 0.66242,-7.0237 8.11255,-8.52226c9.25333,-1.86124 25.84974,1.74102 27.90824,1.9651c1.57966,0.17197 -13.95904,8.95869 -13.95904,8.95869l-2.18097,20.03564z" fill="#c4b4b3" stroke-width="0"/><g stroke-width="0"><path d="M394.46678,181.55101l-1.20166,-15.36314l91.48001,16.76253l-1.38071,5.69095l-47.67565,-0.30392z" fill="#ad6d8e"/><path d="M422.20886,170.14993l8.12527,-7.43711l26.84788,0.78091l-5.40537,9.87483z" fill="#8d788b"/><path d="M396.75883,168.57522l1.75693,-16.13994l31.88778,10.28926l-5.29514,6.33319z" fill="#857183"/><path d="M439.28784,169.86423l17.83177,-6.37604l27.26986,6.76343l-1.03043,6.82256z" fill="#947e92"/><path d="M392.68011,167.51911l4.25812,-12.37786l1.76987,-2.88927l-1.63016,14.97537z" fill="#756474"/><path d="M396.08643,178.49393l0.58938,-12.07988l43.23788,3.04809l-2.95651,15.83009z" fill="#746373"/><path d="M436.95122,185.27599c0,0 1.06032,-6.22931 1.56568,-9.03526c0.43267,-2.40239 1.28235,-6.7785 1.28235,-6.7785l43.84206,5.68689l1.07923,8.56711z" fill="#867284"/><path d="M392.72796,167.45347l4.16961,-1.08606l-0.7821,12.13737z" fill="#6f5e6d"/><path d="M477.22816,169.3638l-19.33782,-5.48853l26.17679,6.50733l-0.74518,3.48529c0,0 -0.14191,-1.59401 -1.26687,-2.4255c-0.75252,-0.55621 -4.82696,-2.07859 -4.82696,-2.07859z" fill="#978195"/><path d="M437.69389,169.03714c0,0 8.3028,-2.58195 11.21123,-3.62743c2.11868,-0.76158 4.6333,-2.06819 4.6333,-2.06819l2.50677,0.38615l-15.71822,5.59607z" fill="#9c859a"/><path d="M423.31002,168.28448c0,0 1.6065,-2.59368 3.09498,-3.78991c1.48845,-1.19625 3.87136,-1.75688 3.87136,-1.75688l-4.51925,5.81317z" fill="#806b7d"/><path d="M458.87633,161.92332l2.74123,-5.46881l14.70674,5.35631l4.87455,6.96841z" fill="#55494f"/><path d="M456.05484,164.43285c0,0 1.16159,-0.66841 1.78196,-1.18911c0.4673,-0.3922 1.30108,-1.69421 1.30108,-1.69421l21.74982,6.39119c0,0 0.80899,0.58797 1.35651,0.97516c0.5722,0.40465 2.00591,1.40267 2.00591,1.40267z" fill="#685960"/><path d="M459.53075,161.0971l2.14499,-4.37896l13.70325,4.83815c0,0 -7.79382,-2.39017 -12.27616,-2.62191c-2.60001,-0.13443 -3.57208,2.16272 -3.57208,2.16272z" fill="#41383c"/></g><path d="M118.86415,130.39944l0.56361,-5.17773c0,0 22.34549,1.12972 44.16852,3.56255c13.00453,1.44975 26.3218,4.50651 33.24032,4.90745c15.59971,0.90399 26.49535,-2.44882 26.49535,-2.44882l-7.45511,9.89448z" fill="#ffa1d1" stroke-width="0"/><path d="M114.79092,143.99607l3.88803,-15.75436c0,0 54.25152,7.97825 72.04156,9.47151c10.5381,0.88456 24.86288,-1.33752 24.86288,-1.33752l-1.58456,14.55636c0,0 -67.10462,-7.30469 -83.28143,-9.06562c-6.65129,-0.72403 -18.8358,28.85603 -18.8358,28.85603z" fill="#ee96c3" stroke-width="0"/><path d="M284.67022,239.43228l10.69683,-12.5118c0,0 11.5764,-14.69079 21.66418,-20.49596c2.56347,-1.47519 7.83213,-2.10526 7.83213,-2.10526c0,0 -7.80047,4.16545 -10.68212,6.65968c-6.8052,5.8903 -29.51095,28.45332 -29.51095,28.45332z" fill="#70646b" stroke-width="0"/><path d="M387.13162,185.36205l-4.31556,-18.57791l1.34219,0.14611c0,0 1.30698,5.62636 1.99756,8.59934c0.09842,0.42359 1.32322,1.78522 1.44509,2.30991c0.21129,0.90953 -0.66242,1.05938 -0.42629,2.07596c0.65755,2.83066 1.29916,5.59269 1.29916,5.59269z" fill="#795467" stroke-width="0"/><path d="M214.58079,151.42977c0,0 -9.71141,-7.64817 -8.62753,-11.32739c0.64897,-2.20296 18.25318,-8.28573 18.25318,-8.28573l67.91868,9.07529l-1.96212,2.90084l28.90806,8.42621l-74.2502,18.64967c0,0 -0.17921,-5.6665 3.71121,-8.11803c3.7811,-2.38264 19.31264,-6.39041 19.31264,-6.39041c0,0 -34.01113,-3.75156 -41.24988,-4.62674c-2.41502,-0.29199 -12.01411,-0.3037 -12.01411,-0.3037z" fill="#f399c8" stroke-width="0"/><g><path d="M222.21187,133.53505l0.35045,-3.21932l175.51684,19.10592l-0.35045,3.21932z" fill="#584f54" stroke-width="0"/><path d="M392.28999,149.04115l0.29611,-2.72026l3.03733,0.33063l2.38386,3.01199z" fill="#685d63" stroke-width="0"/><g fill="#685d63" stroke-width="0"><g><g><g><path d="M385.64207,148.56813l0.32216,-2.95952l3.85833,0.41998l-0.32216,2.95952z"/><path d="M379.38154,147.88667l0.32216,-2.95952l3.85833,0.41999l-0.32216,2.95952z"/></g><g><path d="M373.35722,147.23087l0.32216,-2.95953l3.85833,0.41999l-0.32216,2.95952z"/><path d="M367.09664,146.54938l0.32216,-2.95952l3.85832,0.41999l-0.32216,2.95953z"/></g></g><g><g><path d="M360.95422,145.88074l0.32216,-2.95953l3.85832,0.41999l-0.32216,2.95952z"/><path d="M354.69365,145.19926l0.32216,-2.95952l3.85833,0.41998l-0.32216,2.95953z"/></g><g><path d="M348.66937,144.54346l0.32216,-2.95952l3.85832,0.41999l-0.32216,2.95952z"/><path d="M342.40886,143.86197l0.32216,-2.95952l3.85832,0.41998l-0.32216,2.95953z"/></g></g></g><g><g><g><path d="M342.17262,143.83629l0.32216,-2.95952l3.85832,0.41999l-0.32216,2.95952z"/><path d="M335.9121,143.15477l0.32216,-2.95952l3.85833,0.41999l-0.32216,2.95952z"/></g><g><path d="M329.88776,142.499l0.32216,-2.95953l3.85832,0.41999l-0.32216,2.95952z"/><path d="M323.62722,141.8175l0.32216,-2.95952l3.85832,0.41998l-0.32216,2.95953z"/></g></g><g><g><path d="M317.48484,141.1489l0.32216,-2.95953l3.85833,0.41999l-0.32216,2.95952z"/><path d="M311.22427,140.46737l0.32216,-2.95952l3.85833,0.41999l-0.32216,2.95953z"/></g><g><path d="M305.19995,139.81161l0.32216,-2.95952l3.85833,0.41998l-0.32216,2.95953z"/><path d="M298.93941,139.1301l0.32216,-2.95952l3.85833,0.41999l-0.32216,2.95952z"/></g></g></g></g><g><g fill="#685d63" stroke-width="0"><g><g><path d="M292.75681,138.4571l0.32216,-2.95953l3.85833,0.41999l-0.32216,2.95952z"/><path d="M286.49626,137.7756l0.32216,-2.95952l3.85833,0.41999l-0.32216,2.95953z"/></g><g><path d="M280.47195,137.11985l0.32216,-2.95952l3.85833,0.41999l-0.32216,2.95953z"/><path d="M274.21147,136.43835l0.32216,-2.95952l3.85833,0.41998l-0.32216,2.95953z"/></g></g><g><g><path d="M268.06902,135.76971l0.32216,-2.95953l3.85833,0.41999l-0.32216,2.95952z"/><path d="M261.80846,135.0882l0.32216,-2.95952l3.85833,0.41999l-0.32216,2.95953z"/></g><g><path d="M255.78412,134.43244l0.32216,-2.95952l3.85833,0.41999l-0.32216,2.95953z"/><path d="M249.52358,133.75095l0.32216,-2.95952l3.85833,0.41998l-0.32216,2.95952z"/></g></g></g><g><g fill="#685d63" stroke-width="0"><g><path d="M249.28736,133.72523l0.32216,-2.95953l3.85833,0.41999l-0.32216,2.95952z"/><path d="M243.02679,133.04372l0.32216,-2.95952l3.85833,0.41998l-0.32216,2.95953z"/></g><g><path d="M237.00249,132.38796l0.32216,-2.95952l3.85833,0.41998l-0.32216,2.95953z"/><path d="M230.74197,131.70644l0.32216,-2.95952l3.85833,0.41998l-0.32216,2.95952z"/></g></g><g fill="none" stroke-width="1" font-family="sans-serif" font-weight="normal" font-size="12" text-anchor="start"><g/><g/></g></g></g><path d="M222.60656,130.57023l2.97609,-2.42852l3.03733,0.33063l-0.29611,2.72026z" data-paper-data="{&quot;index&quot;:null}" fill="#685d63" stroke-width="0"/></g><path d="M275.62455,169.42221l-2.5661,-0.00771c0,0 1.94691,-2.37078 11.60774,-2.45351c7.32435,-0.0627 27.9088,0.85879 40.22755,1.44959c5.72051,0.27433 62.86465,-2.56034 62.86465,-2.56034l5.16983,0.54837c0,0 -62.50519,3.90359 -68.21898,3.60662c-12.63475,-0.65672 -33.88303,-1.72519 -40.05817,-1.81546c-3.36149,-0.04915 -9.02647,1.23245 -9.02647,1.23245z" fill="#70475c" stroke-width="0"/><path d="M373.88324,199.25824l-5.09463,1.30214l2.04937,-18.82013c0,0 7.74047,0.89129 15.31049,1.76292c21.7313,2.50223 126.17334,14.52818 126.17334,14.52818l-0.728,6.68777z" fill="#5a5959" stroke-width="0"/><path d="M372.79732,200.77805l1.4098,-2.87034l137.41063,6.70386l-12.9699,9.86597z" fill="#4b4a4a" stroke-width="0"/><path d="M495.40185,213.93398c0,0 -5.52261,-3.84496 -8.38271,-5.59281c-1.5328,-0.9367 -7.44407,-4.07917 -7.44407,-4.07917c0,0 7.64022,3.75257 10.8626,5.05691c1.15002,0.4655 2.18665,1.32553 3.42586,1.99167c0.39957,0.21479 2.51089,-2.33083 4.58418,-3.82964c0.6197,-0.44799 1.73368,0.03998 2.29177,-0.23201c1.27941,-0.62356 1.75444,-1.66972 1.75444,-1.66972c0,0 0.23488,0.96062 -1.10826,2.03535c-0.36645,0.29325 -2.19692,0.44839 -2.55947,0.77142c-1.45291,1.29467 -2.62188,2.77593 -2.98919,3.33065c-1.02504,1.54798 1.01959,2.37573 1.01959,2.37573z" fill="#414040" stroke-width="0"/><path d="M214.49992,151.72014l4.99388,-10.62073l7.03253,0.13753c0,0 -1.23163,2.52977 -1.95749,4.02072c-0.18281,0.37552 11.7537,-0.29284 12.03102,0.41233c0.51453,1.30834 -5.4317,4.44316 -5.8882,5.38083c-0.5219,1.07196 -9.21808,0.52351 -9.21808,0.52351z" fill="#303030" stroke-width="0"/><path d="M214.39726,151.33673l4.79962,-9.80185c0,0 2.84138,1.6216 2.73478,2.60079c-0.19394,1.78167 -2.38996,7.36396 -2.38996,7.36396z" fill="#252525" stroke-width="0"/><path d="M368.48323,203.19853l0.3195,-2.93505l5.81084,-2.33729l-1.55033,2.80106c0,0 -1.22848,1.20943 -2.03397,1.64405c-0.70876,0.38245 -2.54602,0.8272 -2.54602,0.8272z" fill="#383838" stroke-width="0"/><g><g fill="#4b4b4b" stroke-width="0"><g data-paper-data="{&quot;origPos&quot;:null}"><g data-paper-data="{&quot;origPos&quot;:null}"><path d="M435.08182,211.82718l0.24595,-2.25941l3.72799,0.4058l-0.24595,2.25941z" data-paper-data="{&quot;origPos&quot;:null}"/><path d="M428.88081,211.03787l0.24595,-2.25941l3.72798,0.4058l-0.24595,2.2594z" data-paper-data="{&quot;origPos&quot;:null}"/></g><g data-paper-data="{&quot;origPos&quot;:null}"><path d="M447.49612,213.2929l0.24595,-2.25941l3.72799,0.4058l-0.24595,2.2594z" data-paper-data="{&quot;origPos&quot;:null}"/><path d="M441.2951,212.50356l0.24595,-2.2594l3.72798,0.4058l-0.24595,2.25941z" data-paper-data="{&quot;origPos&quot;:null}"/></g></g><g data-paper-data="{&quot;origPos&quot;:null,&quot;index&quot;:null}"><g data-paper-data="{&quot;origPos&quot;:null}"><path d="M466.61247,215.14519l0.24595,-2.25941l3.72799,0.4058l-0.24595,2.2594z" data-paper-data="{&quot;origPos&quot;:null}"/><path d="M472.83807,215.70855l0.24594,-2.2594l3.72799,0.4058l-0.24595,2.25939z" data-paper-data="{&quot;origPos&quot;:null}"/></g><g data-paper-data="{&quot;origPos&quot;:null}"><path d="M454.17359,213.90541l0.24595,-2.25941l3.72798,0.4058l-0.24594,2.2594z" data-paper-data="{&quot;origPos&quot;:null}"/><path d="M460.39919,214.46884l0.24595,-2.2594l3.72799,0.4058l-0.24595,2.2594z" data-paper-data="{&quot;origPos&quot;:null}"/></g></g></g><path d="M393.50322,199.00732l1.47293,-13.53118l83.97793,9.14143l-1.47293,13.53118z" data-paper-data="{&quot;origPos&quot;:null}" fill="#444444" stroke-width="0"/><path d="M393.09013,203.71247l0.51755,-4.75436l83.73111,9.11456l-0.51755,4.75437z" data-paper-data="{&quot;origPos&quot;:null}" fill="#414141" stroke-width="0"/><path d="M392.97061,205.13211l0.17506,-1.60813l83.72046,9.1134l-0.17505,1.60813z" data-paper-data="{&quot;origPos&quot;:null}" fill="#3f3f3f" stroke-width="0"/><g stroke-width="0"><g data-paper-data="{&quot;origPos&quot;:null}" fill="#5a5a5a"><g data-paper-data="{&quot;origPos&quot;:null}"><path d="M436.51217,203.76893l1.48796,-13.66924l3.55045,0.38648l-1.48796,13.66924z" data-paper-data="{&quot;origPos&quot;:null}"/></g><g data-paper-data="{&quot;origPos&quot;:null}"><path d="M442.54794,204.42594l1.48796,-13.66924l3.55046,0.38648l-1.48796,13.66924z" data-paper-data="{&quot;origPos&quot;:null}"/><path d="M448.76124,205.10229l1.48797,-13.66925l3.55045,0.38648l-1.48796,13.66924z" data-paper-data="{&quot;origPos&quot;:null}"/></g></g><g data-paper-data="{&quot;origPos&quot;:null}" fill="#5a5a5a"><g data-paper-data="{&quot;origPos&quot;:null}"><path d="M455.32959,205.81729l1.48796,-13.66924l3.55045,0.38648l-1.48796,13.66925z" data-paper-data="{&quot;origPos&quot;:null}"/><path d="M461.54287,206.49364l1.48796,-13.66924l3.55046,0.38648l-1.48797,13.66925z" data-paper-data="{&quot;origPos&quot;:null}"/></g><g data-paper-data="{&quot;origPos&quot;:null}"><path d="M467.57867,207.15067l1.48797,-13.66925l3.55045,0.38648l-1.48797,13.66925z" data-paper-data="{&quot;origPos&quot;:null}"/><path d="M473.79196,207.82701l1.48797,-13.66925l3.55045,0.38648l-1.48796,13.66924z" data-paper-data="{&quot;origPos&quot;:null}"/></g></g><path d="M440.12361,204.16203l-1.08261,1.82458l-5.21525,-0.52436l0.9216,-9.75402l3.19426,-5.61498l-1.41941,13.67673z" fill="#3a3a3a"/><path d="M446.15695,204.81879l-1.08261,1.82459l-5.21526,-0.52437l0.92161,-9.75402l3.19426,-5.61497l-1.41941,13.67672z" fill="#3a3a3a"/><path d="M452.32738,205.49049l-1.08261,1.82459l-5.21526,-0.52436l0.9216,-9.75402l3.19426,-5.61497l-1.41941,13.67673z" fill="#3a3a3a"/><path d="M458.97775,206.21442l-1.08261,1.82459l-5.21526,-0.52436l0.9216,-9.75402l3.19426,-5.61497l-1.41941,13.67673z" fill="#3a3a3a"/><path d="M465.21677,206.89357l-1.08261,1.82459l-5.21526,-0.52436l0.9216,-9.75402l3.19426,-5.61497l-1.41941,13.67672z" fill="#3a3a3a"/><path d="M471.18151,207.54286l-1.08261,1.82458l-5.21525,-0.52436l0.9216,-9.75402l3.19426,-5.61497l-1.41941,13.67673z" fill="#3a3a3a"/><path d="M477.4284,208.22286l-1.08261,1.82458l-5.21526,-0.52436l0.92161,-9.75402l3.19426,-5.61498l-1.41941,13.67673z" fill="#3a3a3a"/></g><g stroke-width="0"><g data-paper-data="{&quot;origPos&quot;:null}" fill="#5a5a5a"><g data-paper-data="{&quot;origPos&quot;:null}"><path d="M393.53699,199.09084l1.48797,-13.66925l3.55046,0.38648l-1.48796,13.66924z" data-paper-data="{&quot;origPos&quot;:null}"/></g><g data-paper-data="{&quot;origPos&quot;:null}"><path d="M399.57274,199.74789l1.48796,-13.66924l3.55045,0.38648l-1.48796,13.66924z" data-paper-data="{&quot;origPos&quot;:null}"/><path d="M405.78603,200.42423l1.48796,-13.66924l3.55046,0.38648l-1.48797,13.66925z" data-paper-data="{&quot;origPos&quot;:null}"/></g></g><g data-paper-data="{&quot;origPos&quot;:null}" fill="#5a5a5a"><g data-paper-data="{&quot;origPos&quot;:null}"><path d="M412.35437,201.13922l1.48797,-13.66925l3.55046,0.38649l-1.48796,13.66924z" data-paper-data="{&quot;origPos&quot;:null}"/><path d="M418.56775,201.81557l1.48796,-13.66924l3.55046,0.38648l-1.48797,13.66925z" data-paper-data="{&quot;origPos&quot;:null}"/></g><g data-paper-data="{&quot;origPos&quot;:null}"><path d="M424.60351,202.47259l1.48796,-13.66924l3.55046,0.38648l-1.48797,13.66925z" data-paper-data="{&quot;origPos&quot;:null}"/><path d="M430.81682,203.14897l1.48797,-13.66925l3.55046,0.38648l-1.48796,13.66925z" data-paper-data="{&quot;origPos&quot;:null}"/></g></g><path d="M397.14838,199.48397l-1.08261,1.82459l-2.7184,-0.25256l0.19962,-1.96407z" fill="#3a3a3a"/><path d="M403.18176,200.14075l-1.08261,1.82459l-5.21526,-0.52436l0.92161,-9.75402l3.19426,-5.61497l-1.41941,13.67673z" fill="#3a3a3a"/><path d="M409.35215,200.81241l-1.08261,1.82458l-5.21526,-0.52436l0.9216,-9.75401l3.19426,-5.61498l-1.41941,13.67673z" fill="#3a3a3a"/><path d="M416.00252,201.53633l-1.08261,1.82458l-5.21526,-0.52436l0.92161,-9.75402l3.19426,-5.61497l-1.41941,13.67673z" fill="#3a3a3a"/><path d="M422.2416,202.21551l-1.08261,1.82458l-5.21525,-0.52436l0.9216,-9.75402l3.19426,-5.61497l-1.41941,13.67673z" fill="#3a3a3a"/><path d="M428.20634,202.86479l-1.08261,1.82458l-5.21525,-0.52436l0.9216,-9.75402l3.19426,-5.61498l-1.41941,13.67673z" fill="#3a3a3a"/><path d="M434.45325,203.54483l-1.08261,1.82459l-5.21525,-0.52436l0.9216,-9.75402l3.19426,-5.61497l-1.41941,13.67673z" fill="#3a3a3a"/></g><g><g data-paper-data="{&quot;origPos&quot;:null}"><g data-paper-data="{&quot;origPos&quot;:null}" fill="none" stroke-width="1" font-family="sans-serif" font-weight="normal" font-size="12" text-anchor="start"/><g data-paper-data="{&quot;origPos&quot;:null}" fill="#4b4b4b" stroke-width="0"><path d="M399.03821,208.09535l0.24595,-2.25941l3.72798,0.4058l-0.24594,2.2594z" data-paper-data="{&quot;origPos&quot;:null}"/><path d="M392.83721,207.30604l0.24595,-2.25941l3.72798,0.4058l-0.24595,2.25941z" data-paper-data="{&quot;origPos&quot;:null}"/></g></g><g data-paper-data="{&quot;origPos&quot;:null,&quot;index&quot;:null}" fill="#4b4b4b" stroke-width="0"><g data-paper-data="{&quot;origPos&quot;:null}"><path d="M418.15463,209.94764l0.24595,-2.2594l3.72799,0.4058l-0.24595,2.2594z" data-paper-data="{&quot;origPos&quot;:null}"/><path d="M424.3802,210.51099l0.24595,-2.25939l3.72799,0.4058l-0.24595,2.2594z" data-paper-data="{&quot;origPos&quot;:null}"/></g><g data-paper-data="{&quot;origPos&quot;:null}"><path d="M405.71564,208.70792l0.24595,-2.25941l3.72799,0.4058l-0.24595,2.2594z" data-paper-data="{&quot;origPos&quot;:null}"/><path d="M411.94125,209.27125l0.24595,-2.25941l3.72799,0.4058l-0.24595,2.25941z" data-paper-data="{&quot;origPos&quot;:null}"/></g></g></g></g><path d="M227.27796,151.50771l1.48967,-4.07786c0,0 4.92459,-2.63 8.45123,-2.39702c4.03163,0.26636 33.82184,3.53429 33.82184,3.53429c0,0 0.45514,1.93636 0.2708,3.14069c-0.2375,1.55162 -2.67278,4.36925 -2.67278,4.36925z" fill="#242424" stroke-width="0"/><path d="M252.42998,150.4131l0.34092,-3.13181l17.89608,1.94808l-0.34092,3.13181z" fill="#313131" stroke-width="0"/><path d="M248.94661,151.97594l0.07058,-0.64841c0,0 1.17534,-0.92943 2.19241,-0.8187c0.96579,0.10514 3.08954,0.81405 5.50935,1.24181c4.60972,0.81484 10.19409,1.52499 10.19409,1.52499l-0.07058,0.64841c0,0 -5.39617,-0.58945 -9.9412,-1.39669c-2.47997,-0.44047 -4.67327,-1.25155 -5.67514,-1.36062c-1.05306,-0.11464 -2.27947,0.80923 -2.27947,0.80923z" fill="#616161" stroke-width="0"/><path d="M277.62059,139.29351l12.29121,4.38245l30.09487,8.61543c0,0 0.70457,0.3022 -7.26764,-1.29816c-2.71202,-0.54442 -13.11375,-3.29523 -22.07648,-6.18493c-2.4252,-0.78191 -15.30862,-5.64547 -15.30862,-5.64547z" fill="#df8cb7" stroke-width="0"/><path d="M96.91099,125.99608l0.64205,-5.89827c0,0 5.9259,-1.11824 9.70736,-0.7066c3.09576,0.33699 11.14904,4.74026 11.14904,4.74026l-1.46193,12.18409z" fill="#626061" stroke-width="0"/><path d="M211.20839,148.48265l3.50281,2.9021l12.3184,0.00994l50.44695,5.49144l-0.11804,1.08464c0,0 -37.82694,-4.26376 -49.68887,-5.29122c-3.25667,-0.28209 -12.97712,-0.61508 -12.97712,-0.61508z" fill="#ffa6d4" stroke-width="0"/><path d="M87.12725,189.23903l0.77587,-7.12749l25.08978,-13.9973l-3.07702,13.4147l-14.88643,8.57032z" fill="#3f3d3e" stroke-width="0"/><path d="M86.05431,184.03219c0,0 2.31314,-19.51614 4.15115,-28.95598c2.0745,-10.65435 7.67241,-31.76869 7.67241,-31.76869c0,0 8.58448,0.74399 11.96739,2.76778c2.89531,1.73206 7.09595,8.63657 7.09595,8.63657l-3.63081,33.35453c0,0 -13.26952,12.3346 -16.541,14.25094c-5.0321,2.94768 -10.71506,1.71487 -10.71506,1.71487z" fill="#555354" stroke-width="0"/><path d="M96.58102,133.82742c0,0 -0.88258,-6.12438 1.4633,-8.58218c2.34589,-2.4578 6.77998,-2.99805 9.3252,-2.72099c2.03041,0.22102 6.22375,0.75668 8.59778,5.49996c2.37406,4.74325 -0.2561,11.16642 -0.2561,11.16642c0,0 -5.13698,-11.02433 -7.63229,-11.72391c-3.52114,-0.98716 -11.49793,6.36071 -11.49793,6.36071z" fill="#6f6b6c" stroke-width="0"/><path d="M84.08259,188.71816c0,0 4.52485,-25.72394 5.76326,-37.10053c1.28971,-11.84783 3.3187,-32.46775 3.3187,-32.46775c0,0 1.219,-0.51406 2.25371,-0.40142c0.94613,0.10298 2.4342,0.91175 2.4342,0.91175c0,0 -2.28598,19.01958 -3.44332,29.65158c-1.34466,12.3525 -6.91699,39.77751 -6.91699,39.77751z" fill="#333232" stroke-width="0"/><path d="M83.60633,189.11258l2.67941,-14.50347c0,0 0.9528,0.99787 1.55291,1.0243c0.75773,0.03335 2.58045,-1.21424 2.58045,-1.21424l-2.86695,15.1229z" fill="#2e2d2d" stroke-width="0"/><path d="M113.14108,155.85359c-0.88356,8.11668 -5.92153,16.28741 -10.57795,18.72522c-3.86728,2.0247 -12.05321,7.93145 -11.16967,-0.18522c0.18744,-1.72193 3.50503,-13.3103 4.39347,-20.28496c1.17492,-9.22385 0.07787,-14.3536 1.33648,-17.06494c2.27585,-4.90252 7.92676,-5.77562 10.12825,-5.53597c4.33962,0.47239 6.77297,16.22919 5.88943,24.34587z" fill="#585758" stroke-width="0"/><path d="M145.87646,173.58319l-0.40072,-1.79465c0,0 8.03923,-0.4834 14.07427,-0.31347c8.49595,0.23923 32.0932,1.61347 32.0932,1.61347l1.64673,1.46802c0,0 -25.13852,-1.1065 -33.88416,-1.28603c-2.56848,-0.05272 -13.52932,0.31269 -13.52932,0.31269z" fill="#585657" stroke-width="0"/><path d="M138.59218,186.06875l6.64092,-13.04937l7.30265,-0.16135c0,0 -2.19468,4.10007 -2.19058,4.86013c0.01942,3.63176 0.40512,27.78236 0.40512,27.78236c0,0 -1.51645,0.27795 -2.49587,-1.71529c-1.75739,-3.57648 -2.83954,-10.59683 -4.35381,-12.87674c-1.30832,-1.96984 -5.30839,-4.83973 -5.30839,-4.83973z" fill="#5a5759" stroke-width="0"/><path d="M154.38153,156.80147l4.09837,-10.95414l2.33166,0.14204l-5.22703,11.05481z" fill="#a5a0a2" stroke-width="0"/><path d="M161.2486,156.45911l0.15179,-1.39451l26.34062,2.86732l-0.15178,1.39451z" fill="#494748" stroke-width="0"/><path d="M161.49,153.49654l0.15179,-1.39451l26.34062,2.86732l-0.15179,1.39451z" fill="#494748" stroke-width="0"/><path d="M139.74584,173.66967l2.17929,-20.02007l13.21609,-8.23442l4.84985,0.21433l-20.81327,40.80082l-5.36148,-2.59883z" fill="#dbd5d8" stroke-width="0"/><path d="M112.11357,182.64654l1.11898,-11.73867l26.5834,2.09959c0,0 0.05371,2.55858 -0.16214,3.3383c-0.538,1.94367 -3.28427,8.62352 -3.28427,8.62352z" fill="#ccc6c9" stroke-width="0"/><path d="M117.11379,171.73318l0.03417,-0.31394l22.77699,1.60582l-2.71828,0.89539c0,0 -4.3164,-0.28256 -7.00577,-0.60724c-3.68246,-0.44456 -13.08713,-1.57999 -13.08713,-1.57999z" fill="#d8d1d5" stroke-width="0"/><path d="M121.01298,168.39875l1.83968,-16.90016l16.03031,1.74499l-1.83968,16.90016z" fill="#a39999" stroke-width="0"/><path d="M111.82029,182.78537l1.22924,-11.2926c0,0 8.09383,7.30545 12.10204,10.09619c4.00823,2.79074 10.50155,3.21592 10.50155,3.21592z" fill="#b4afb1" stroke-width="0"/><path d="M144.612,192.43326c0,0 2.89909,1.36222 4.00433,1.33796c0.67895,-0.01494 1.9964,-1.46983 1.9964,-1.46983l0.66692,9.1994l-0.45398,4.17048c0,0 -1.96532,0.09934 -2.95741,-2.60649c-0.81855,-2.23253 -3.25628,-10.63146 -3.25628,-10.63146z" fill="#504e4f" stroke-width="0"/><path d="M138.83467,186.65477l18.89393,-39.93346l1.71115,0.39262l-18.83637,40.35241z" fill="#858183" stroke-width="0"/><path d="M126.50779,144.31614l1.68447,-1.47687c0,0 27.32428,2.32668 39.66169,3.66968c10.70804,1.16563 31.71915,3.80788 31.71915,3.80788l0.31629,1.98729c0,0 -21.09582,-3.00654 -32.38275,-4.23517c-12.88823,-1.40294 -40.99884,-3.75279 -40.99884,-3.75279z" fill="#918b8e" stroke-width="0"/><path d="M127.65322,143.20283l2.22208,-1.71099c0,0 25.77449,2.45063 38.11188,3.79361c10.70803,1.16563 31.71915,3.80788 31.71915,3.80788l0.31628,1.98729c0,0 -21.09581,-3.00654 -32.38275,-4.23518c-12.88823,-1.40294 -39.98663,-3.64263 -39.98663,-3.64263z" fill="#a59fa2" stroke-width="0"/><path d="M189.63311,170.8585l-1.29925,-5.85763c0,0 0.34079,-1.17506 0.68402,-1.25116c0.3024,-0.06708 1.26848,0.81807 1.26848,0.81807l1.29924,5.85763c0,0 -0.36951,0.8426 -0.6726,0.90982c-0.34286,0.07605 -1.27994,-0.47673 -1.27994,-0.47673z" fill="#494242" stroke-width="0"/><path d="M149.30839,169.13324l4.54856,-9.04661l3.8629,0.42049l-4.54856,9.04661z" fill="#9c989a" stroke-width="0"/><path d="M160.74312,152.49682l1.9446,-0.76198l24.29337,2.66263l1.9034,1.16272z" fill="#757274" stroke-width="0"/><path d="M160.53267,155.30179l1.9446,-0.76199l24.29336,2.66264l1.90341,1.16271z" fill="#757274" stroke-width="0"/><path d="M109.52019,181.54623l7.99052,-57.63147l1.84618,0.78511l-7.49162,58.08928z" fill="#686666" stroke-width="0"/><path d="M109.32853,181.79728l2.40988,-16.08944l1.86441,4.04396l-1.87417,13.18467z" fill="#535252" stroke-width="0"/><path d="M142.36925,162.38409c0,0 2.36539,-2.10184 2.46784,-3.04307c0.10056,-0.92365 -1.85872,-2.55258 -1.85872,-2.55258c0,0 2.91195,0.99064 2.62565,2.65776c-0.21808,1.26982 -1.49937,3.3323 -1.70553,4.41874c-0.58621,3.08915 -2.06588,10.31885 -2.06588,10.31885z" fill="#c4bec1" stroke-width="0"/><path d="M150.20702,161.31434l3.00371,-9.9287l3.00508,-4.05289l-3.67381,9.21476z" fill="#aca7a9" stroke-width="0"/></g></g><g stroke-width="0"><path d="M270.58419,146.42314l2.90023,-3.03316c0,0 1.95226,-1.23229 2.74263,-0.86965c0.90113,0.41347 2.37553,3.21805 2.37553,3.21805l-0.9805,3.99933c0,0 -4.25529,-0.47081 -5.4997,-0.74033c-0.561,-0.12152 -1.53816,-2.57422 -1.53816,-2.57422z" fill="#c0c0c0"/><path d="M226.87299,151.37308c0,0 0.13623,-2.88219 1.31238,-3.89974c1.47397,-1.27521 7.7576,-2.81647 7.7576,-2.81647l-1.21904,4.63238l-0.31611,2.90408z" fill="#838383"/><path d="M226.70988,151.28052l8.86674,-6.5603l37.34175,4.06484l-0.8096,7.43736z" fill="#999999"/><path d="M227.77404,150.73606l6.75563,-5.14024l33.57398,3.65469l-0.63208,5.80682c0,0 -4.06357,-0.44235 -9.29091,-1.01133c-3.3986,-0.36997 -7.17419,-1.84923 -10.75966,-2.23953c-3.84633,-0.4187 -7.45659,0.25661 -9.61701,0.02143c-4.22819,-0.46026 -10.02995,-1.09182 -10.02995,-1.09182z" fill="#d952b3"/><path d="M231.24599,151.11178l8.95857,-4.96297l12.3909,1.34882c0,0 -7.53917,1.09794 -9.99431,1.75064c-2.60643,0.6929 -6.02814,2.44339 -6.02814,2.44339z" fill="#a5899d"/><path d="M239.20042,151.86427c0,0 5.16047,-0.41613 7.60315,-0.1502c3.12112,0.33975 9.59213,2.02201 9.59213,2.02201l-9.56108,-1.37795z" fill="#adadad"/><path d="M226.81578,151.27377l8.00731,-5.9199l34.76132,3.78398l-0.07451,0.68454c0,0 -30.099,-3.27642 -34.02242,-3.70352c-0.82063,-0.08932 -8.67168,5.15494 -8.67168,5.15494z" fill="#8a8a8a"/><path d="M273.03128,162.57722l1.05569,-9.69805l1.4263,-7.08917c0,0 1.12934,0.59561 1.61903,1.21574c0.48968,0.62013 0.74884,1.78282 0.74884,1.78282l-2.84865,14.00652z" fill="#9e9e9e"/><path d="M268.06953,157.78136c0,0 -0.67646,-2.2111 -0.64039,-3.80571c0.04856,-2.1473 1.49625,-7.5405 1.49625,-7.5405l1.96524,-0.11335c0,0 0.66872,0.86925 1.15995,0.7727c0.67724,-0.13313 2.52776,-1.49762 2.52776,-1.49762l-1.88672,12.68763z" fill="#9c9c9c"/><path d="M268.44199,159.66337c-0.65828,-1.18261 -0.27066,-2.52166 -0.27066,-2.52166l5.62823,-6.63024c0,0 0.96515,4.01179 0.86597,4.92287c-0.28196,2.59023 0.20463,7.42095 0.20463,7.42095c0,0 -2.97166,-0.23925 -3.95694,-0.78772c-1.18174,-0.65781 -1.8129,-1.22159 -2.4712,-2.40422z" fill="#888888"/><path d="M270.29605,159.08638c-0.76605,-2.09494 -1.28766,-6.64114 0.98554,-10.4845c2.27321,-3.84336 4.44273,-1.46342 4.44273,-1.46342c0,0 0.52195,4.50592 0.27167,6.8052c-0.22798,2.09446 -1.71274,6.4334 -1.71274,6.4334c0,0 -3.22113,0.80425 -3.98717,-1.2907z" fill="#b4b4b4"/><path d="M275.26616,151.88664c-0.15269,1.40279 -5.24103,0.92675 -5.08834,-0.47601c0.15269,-1.40279 3.77809,-6.44226 4.58574,-6.35431c0.31279,0.03404 0.94185,0.20498 1.0224,1.2807c0.12741,1.70184 -0.42625,4.69013 -0.51983,5.54963z" fill="#bbbbbb"/></g><g stroke-width="0"><path d="M211.11424,148.45719c0,0 -5.29003,-5.52223 -5.08731,-7.38463c0.1655,-1.52066 6.17963,-0.98984 6.17963,-0.98984l7.4932,0.88793l-5.16696,10.28019z" fill="#f399c8"/><path d="M180.58973,146.78579c0,0 -0.73737,-2.1905 -0.36554,-3.22908c0.41035,-1.14614 2.84865,-4.50694 2.84865,-4.50694l22.92295,2.30852l8.13942,9.56011z" fill="#ee96c3"/></g></g><g stroke-width="0"><g><path d="M277.6519,137.50974l0.66895,-6.1455l47.53736,5.17469l-0.66895,6.1455z" fill="#61585b"/><path d="M277.8406,134.26757l0.35823,-3.29092l47.71812,5.19439l-0.35823,3.29091c0,0 -8.59013,-0.93509 -17.41437,-1.89564c-2.75897,-0.30032 -6.80195,0.78578 -9.35131,0.50824c-3.03147,-0.33 -6.1185,-2.19224 -8.06305,-2.40391c-5.83087,-0.63472 -12.88938,-1.40309 -12.88938,-1.40309z" fill="#494344"/><path d="M340.01966,134.39184l-7.22969,-19.83178l20.79639,2.26381l13.5227,18.34541c0,0 -5.82395,0.73545 -9.06493,0.64246c-5.00115,-0.14352 -18.02449,-1.41986 -18.02449,-1.41986z" fill="#5e555b"/><path d="M339.65001,137.80697l0.59935,-5.50596c0,0 12.3835,-0.1137 17.33128,-0.35934c3.92667,-0.19494 6.77887,-0.46996 6.77887,-0.46996l5.15361,7.54077c0,0 -5.47383,1.00971 -9.64538,1.00218c-5.65227,-0.01024 -20.21772,-2.20764 -20.21772,-2.20764z" fill="url(#color-5)"/><path d="M331.08789,114.53452l0.43245,-3.97271l19.03905,2.07251l3.18256,4.36622z" fill="url(#color-6)"/><path d="M339.06697,137.76862l0.13629,-1.25184c0,0 15.52631,1.61327 20.89931,2.02962c4.01767,0.31133 8.58283,-0.77789 8.58283,-0.77789l0.75979,1.23421l-8.39692,1.15864z" fill="#312c30"/><g><path d="M239.78775,116.29829l0.73351,-8.83083l93.37374,10.16422l6.37478,12.0424z" fill="#8a6672"/><path d="M255.33325,126.32512c0,0 -3.10867,-3.96548 -5.73872,-5.72198c-2.63005,-1.75654 -9.6755,-2.28463 -9.6755,-2.28463l0.33739,-2.06269c0,0 12.221,1.60835 19.19874,2.46371c16.66886,2.04325 80.38213,9.74293 80.38213,9.74293l2.89125,6.92054z" fill="#755761"/><path d="M257.89545,129.10966l-2.72717,-2.90398l87.12495,8.99176l0.86498,3.19348z" fill="#694e57"/><path d="M240.31459,107.84343l0.49011,-4.50239l90.34642,9.15131l3.2144,6.04458c0,0 2.37773,3.61658 -2.87473,3.01937c-1.6535,-0.188 -10.35629,-4.52373 -12.01393,-4.7122c-15.96406,-1.8151 -79.16226,-9.00066 -79.16226,-9.00066z" fill="#916b77"/><path d="M241.04519,103.36733l0.15505,-2.52256l89.39581,9.59165l0.78018,2.49134z" fill="#9e7582"/><path d="M314.66167,112.06879c-7.95033,-1.51721 -72.12268,-9.54113 -72.12268,-9.54113l87.33813,9.50721l3.96733,7.91698c0,0 -11.23243,-6.3659 -19.18278,-7.88309z" fill="#b38f9a"/></g><path d="M288.58631,132.44766l0.99277,-9.11989l20.09353,2.18727l-0.99277,9.1199z" fill="#3a3336"/><path d="M289.4913,123.32238l0.877,-1.43604l18.42955,2.00615l0.81461,1.62013z" fill="#4b4246"/><path d="M288.77969,131.96641l0.88494,-8.12957c0,0 0.48306,5.34954 3.00568,6.73696c2.52263,1.38743 15.6414,3.51877 15.6414,3.51877z" fill="#332c30"/><path d="M332.09564,116.88117l-3.24767,-6.38898c0,0 1.08908,-0.55207 1.68618,-0.48706c0.66752,0.07267 2.13124,0.9026 2.13124,0.9026l3.24767,6.38898z" fill="#757575"/><path d="M334.58594,121.91482l-4.66922,-9.1714l3.81743,0.41555l4.66922,9.17139z" fill="#5a5a5a"/><path d="M338.10803,128.78528l-4.66922,-9.17139l3.81742,0.41555l4.66922,9.1714z" fill="#505050"/><path d="M341.74843,135.90075c-0.79749,-1.56644 -3.90917,-7.6785 -3.90917,-7.6785l3.81742,0.41556l5.45755,10.98159c0,0 -2.10168,0.30988 -3.04399,0.19239c-0.73504,-0.09164 -1.97016,-3.22037 -2.32181,-3.91108z" fill="#3b3b3b"/><path d="M237.97354,118.71431l2.0209,-18.56508l3.16229,0.34423l-2.0209,18.56508z" fill="#443e42"/><path d="M219.03521,118.26118l-0.04019,-5.96741l20.10978,2.18903l-0.64151,5.89319z" fill="url(#color-7)"/><path d="M218.92678,112.92069l1.17381,-10.78329l20.10978,2.18903l-1.17382,10.7833z" fill="#5e555b"/><path d="M220.08694,102.26296l1.24572,-4.05121l19.31446,2.10247l-0.45041,4.13779z" fill="url(#color-8)"/><path d="M290.40376,105.9289l0.66372,-6.09729l14.81858,2.68603l4.08527,5.18364z" fill="#5e555b"/><path d="M309.93286,108.05476l-4.05642,-5.44875c0,0 2.92375,1.01297 5.03086,2.2465c2.10713,1.23353 5.47631,3.90443 5.47631,3.90443z" fill="#776b73"/><path d="M287.27422,106.75062l3.31589,-0.89084l25.47854,2.50523l3.45951,1.89664z" fill="#6d6269"/></g><g><path d="M290.454,128.65741c0.13514,-1.24151 0.76765,-2.33618 1.2654,-3.31766c0.69356,-1.36765 1.42107,-2.48327 2.79881,-3.18448c0.84156,-0.42832 2.01428,-0.69236 3.02344,-0.82429c0.66747,-0.08723 1.70404,-0.37686 2.40294,-0.30076c1.58434,0.17245 1.9158,0.29077 3.0051,0.90829c0.65619,0.372 2.2374,0.99587 2.69651,1.72196c0.38859,0.61453 0.75892,1.60899 1.02509,2.32161c0.4548,1.21783 1.05079,3.15824 0.90052,4.53872c-0.06351,0.58339 -0.6974,1.86073 -0.80257,2.36782c-0.33383,1.60977 -0.38972,2.11631 -1.71548,3.082c-0.8058,0.58693 -2.36348,0.96845 -3.38585,1.26954c-1.0588,0.31185 -2.42086,1.03474 -3.58666,0.90786c-0.78688,-0.08565 -2.14866,-0.77204 -2.89621,-0.99042c-1.62182,-0.47378 -2.48979,-0.74372 -3.38985,-1.98862c-0.77185,-1.06752 -0.85799,-2.68468 -1.07317,-4.07373c-0.11302,-0.72974 -0.35169,-1.66874 -0.268,-2.43783z" fill="#3a3a3a"/><path d="M291.19356,128.61859c0.12368,-1.1361 0.70249,-2.13783 1.15795,-3.03597c0.63468,-1.25153 1.30038,-2.27242 2.56117,-2.91412c0.77009,-0.39196 1.84328,-0.63357 2.76672,-0.7543c0.6108,-0.07985 1.55938,-0.34484 2.19888,-0.27523c1.44983,0.15783 1.75315,0.26607 2.74998,0.83117c0.60046,0.3404 2.04743,0.91132 2.46759,1.57574c0.35559,0.56239 0.69451,1.47243 0.93804,2.1245c0.4162,1.11444 0.96156,2.8901 0.82407,4.15334c-0.05811,0.53384 -0.6382,1.70274 -0.73443,2.16677c-0.30549,1.4731 -0.35663,1.93663 -1.56984,2.82031c-0.7374,0.5371 -2.16282,0.88618 -3.09836,1.16174c-0.96891,0.28536 -2.21531,0.94691 -3.28214,0.83079c-0.72005,-0.07837 -1.96621,-0.70649 -2.65031,-0.9063c-1.48413,-0.43354 -2.27839,-0.68057 -3.10206,-1.81977c-0.7063,-0.9769 -0.78512,-2.45674 -0.98204,-3.72786c-0.10343,-0.66778 -0.32183,-1.52706 -0.24524,-2.23082z" fill="#5a5a5a"/><path d="M303.80408,125.43519c-1.77476,-2.59307 -6.81663,-3.34367 -6.81663,-3.34367c0,0 1.98929,-0.32665 3.96705,-0.10438c1.60202,0.18002 3.1257,0.7125 4.13765,2.13134c1.01276,1.41999 1.24367,2.9386 1.37777,4.35693c0.26296,2.78077 -0.43128,5.11214 -0.43128,5.11214c0,0 -0.45983,-5.55926 -2.2346,-8.1523z" fill="#6d6d6d"/><path d="M297.96533,129.84811c0.06228,-0.57233 0.57676,-0.98579 1.1491,-0.92351c0.57233,0.06228 0.98579,0.57676 0.92351,1.14911c-0.06228,0.57233 -0.57676,0.98579 -1.14911,0.9235c-0.57233,-0.06228 -0.98579,-0.57676 -0.9235,-1.14911z" fill="#272727"/><path d="M297.87197,129.97559c0.05715,-0.52495 0.529,-0.90416 1.05393,-0.84702c0.52495,0.05715 0.90416,0.529 0.84702,1.05393c-0.05715,0.52495 -0.529,0.90416 -1.05392,0.84702c-0.52495,-0.05715 -0.90416,-0.529 -0.84702,-1.05392z" fill="#131313"/></g></g></g></g></g><path d="M197.63475,229.6014c0.17148,-1.57537 0.55081,-44.41188 1.22453,-46.02359c0.90964,-2.17612 9.19482,0.08437 12.30475,-1.09379c9.5246,-3.60837 19.77638,-7.10659 19.77638,-7.10659c0,0 13.92291,2.09949 18.13453,2.55797c3.14952,0.34286 65.02701,-1.46191 64.64711,8.87928c-0.51528,14.02655 -42.5193,-2.33342 -43.83206,9.72597c-0.33234,3.05288 2.04209,3.50801 1.13913,6.57552c-0.21673,0.73622 -3.11507,5.63021 -3.51947,7.27213c-0.64196,2.60639 2.20072,6.94199 -1.42539,9.66483c-2.89052,2.1705 -1.51282,7.36696 -2.27936,8.50632c-5.28251,7.8514 -13.15076,3.16802 -22.1107,2.19269c-10.62328,-1.15638 -26.48497,0.86231 -35.67956,-1.38321c-3.96895,-0.96934 -8.87904,4.81819 -8.37985,0.23254z" fill="#86c8f5" stroke-width="0"/><g stroke-width="0"><g><path d="M191.64874,246.51232l0.60405,-5.54915c0,0 2.20891,0.41954 3.16276,-0.446c1.3476,-1.22281 4.36297,-6.06478 4.36297,-6.06478l-0.24588,8.11481c0,0 -3.40819,2.84639 -5.03472,3.57206c-1.17434,0.52392 -2.84916,0.37304 -2.84916,0.37304z" fill="#4d484c"/><g><g><path d="M152.38041,230.8207l4.67621,-5.0859c0,0 16.77748,-7.17533 23.77004,-10.32868c5.3789,-2.42565 13.98372,-6.46894 13.98372,-6.46894l-0.23193,26.47697z" fill="#eb59c1"/><path d="M155.03935,219.92028l2.58589,-29.16543c0,0 18.0676,10.77962 24.58836,14.46363c4.73185,2.67335 10.74168,12.64534 10.74168,12.64534l-6.48569,5.47786z" fill="#dd54b6"/><path d="M155.42161,202.8827l3.58565,-30.23451c0,0 11.0036,15.02481 15.52426,16.28711c6.69869,1.8705 19.75049,0.5094 19.75049,0.5094l-2.81945,25.90086z" fill="#ff77d8"/><path d="M159.14366,190.33122l1.52059,-13.96902l33.49319,0.70121l0.49079,17.13263z" fill="#ee51c1"/></g><g><g><path d="M150.89538,220.09127l-0.59529,-41.11239l8.352,0.90917l0.59529,41.11239z" fill="#a59da1"/><path d="M150.24443,179.16449c0,0 -0.28434,-4.54966 1.64164,-5.62936c1.926,-1.07974 7.00576,-0.78147 7.00576,-0.78147l-0.28174,7.32151z" fill="#b9b0b5"/><path d="M151.51302,230.86644l-0.55633,-10.79645l8.31209,0.90483l0.55633,10.79645z" fill="#8b8488"/></g><g><path d="M191.2186,221.06382l-0.59529,-41.11238l4.51254,0.49121l0.5953,41.11238z" fill="#a59da1"/><path d="M190.67393,180.96019l-0.11292,-6.49154c0,0 2.99112,-0.35883 3.91605,0.89836c0.92492,1.25718 0.61673,5.26277 0.61673,5.26277z" fill="#b9b0b5"/><path d="M191.82379,231.83776l-0.55633,-10.79645l4.48509,0.4882l0.55634,10.79645z" fill="#8b8488"/></g><path d="M151.53856,239.49588c0,0 -2.95415,-3.08053 -3.18883,-4.59948c-0.26124,-1.69081 1.69258,-5.08517 1.69258,-5.08517l47.86299,0.7893c0,0 1.74973,2.53812 2.00792,4.06138c0.36187,2.13504 -4.35488,6.56519 -4.35488,6.56519z" fill="#494547"/><path d="M158.78969,176.6969c0,0 -2.24139,-0.81466 -2.60742,-1.43218c-0.40196,-0.67812 1.09816,-2.60973 1.09816,-2.60973c0,0 12.08282,0.29733 17.36382,0.54816c6.15647,0.29239 16.54821,1.23868 16.54821,1.23868c0,0 0.39553,1.2742 0.24604,1.85885c-0.14477,0.5662 -0.72824,1.63918 -0.72824,1.63918z" fill="#c2b8bd"/><path d="M152.02375,238.32076c0,0 -0.92072,-2.95226 -0.98007,-4.64423c-0.04927,-1.40416 0.51865,-3.61302 0.51865,-3.61302l45.02151,0.82006c0,0 1.67528,3.35393 1.49534,5.00686c-0.19328,1.77569 -2.48803,4.11229 -2.48803,4.11229z" fill="#6f696b"/><path d="M162.49298,244.92217l0.60406,-5.54914l29.79216,1.62877l-0.60405,5.54914z" fill="#333032"/><path d="M151.01469,243.79485c-1.0341,-0.76431 -2.54564,-2.40325 -2.54564,-2.40325l-0.12675,-6.87343c0,0 2.21327,2.52673 3.2662,4.01087c0.74528,1.0505 11.54768,0.7383 11.54768,0.7383l-0.60405,5.54914c0,0 -10.50341,-0.25727 -11.53748,-1.0216z" data-paper-data="{&quot;index&quot;:null}" fill="#444043"/><g><path d="M156.4795,191.50203c0,0 -2.05638,-4.994 -1.894,-6.72881c0.11244,-1.20107 2.77479,-2.68086 2.77479,-2.68086l35.18335,0.7876c0,0 1.24631,3.27798 1.10114,4.8288c-0.14835,1.58502 -1.98194,4.58089 -1.98194,4.58089z" fill="#979797"/><path d="M156.64799,190.448c0,0 -2.13617,-4.45457 -2.00366,-5.98702c0.09174,-1.06103 2.72219,-2.32532 2.72219,-2.32532l35.10824,1.29542c0,0 1.29891,2.92211 1.18049,4.29211c-0.12102,1.40015 -1.89902,4.02029 -1.89902,4.02029z" fill="#a2a2a2"/></g><g><path d="M157.05644,208.20221c0,0 -2.05638,-4.994 -1.894,-6.72881c0.11244,-1.20107 2.77478,-2.68087 2.77478,-2.68087l35.18335,0.78761c0,0 1.24631,3.27797 1.10115,4.82879c-0.14835,1.58502 -1.98194,4.58088 -1.98194,4.58088z" fill="#979797"/><path d="M157.2249,207.14818c0,0 -2.13615,-4.45456 -2.00365,-5.98702c0.09173,-1.06102 2.72219,-2.32531 2.72219,-2.32531l35.10824,1.29543c0,0 1.29891,2.92211 1.18049,4.29211c-0.12103,1.40015 -1.89903,4.02028 -1.89903,4.02028z" fill="#a2a2a2"/></g><g><path d="M157.68617,225.40629c0,0 -2.05638,-4.994 -1.894,-6.72881c0.11244,-1.20107 2.77478,-2.68086 2.77478,-2.68086l35.18335,0.7876c0,0 1.24631,3.27798 1.10114,4.8288c-0.14835,1.58502 -1.98194,4.58088 -1.98194,4.58088z" fill="#7a7a7a"/><path d="M157.85463,224.3523c0,0 -2.13617,-4.45457 -2.00366,-5.98703c0.09173,-1.06102 2.72219,-2.3253 2.72219,-2.3253l35.10825,1.29542c0,0 1.29889,2.92211 1.18049,4.29211c-0.12103,1.40015 -1.89903,4.0203 -1.89903,4.0203z" fill="#929292"/></g></g></g></g><path d="M151.07972,224.08856c0,0 -0.19751,-1.74808 -0.25051,-4.07813c-0.15551,-6.84076 -0.77398,-40.99429 -0.77398,-40.99429l2.68371,4.62054l0.19162,29.61942z" fill="#777275"/></g></g></g></g></svg>