<svg version="1.1" xmlns="http://www.w3.org/2000/svg" xmlns:xlink="http://www.w3.org/1999/xlink" width="457.87746" height="171.1667" viewBox="0,0,457.87746,171.1667"><defs><linearGradient x1="488.73674" y1="193.588" x2="489.99456" y2="198.23223" gradientUnits="userSpaceOnUse" id="color-1"><stop offset="0" stop-color="#1f1d20"/><stop offset="1" stop-color="#202022"/></linearGradient><linearGradient x1="487.89183" y1="188.78679" x2="489.33908" y2="194.1305" gradientUnits="userSpaceOnUse" id="color-2"><stop offset="0" stop-color="#302d31"/><stop offset="1" stop-color="#1f1e20"/></linearGradient><linearGradient x1="177.31442" y1="322.70102" x2="178.20053" y2="325.97317" gradientUnits="userSpaceOnUse" id="color-3"><stop offset="0" stop-color="#585758"/><stop offset="1" stop-color="#575758"/></linearGradient><linearGradient x1="167.29175" y1="335.85699" x2="167.98748" y2="338.42581" gradientUnits="userSpaceOnUse" id="color-4"><stop offset="0" stop-color="#363536"/><stop offset="1" stop-color="#353536"/></linearGradient><linearGradient x1="281.41398" y1="208.80503" x2="282.8618" y2="214.15091" gradientUnits="userSpaceOnUse" id="color-5"><stop offset="0" stop-color="#5e555b"/><stop offset="1" stop-color="#2b2629"/></linearGradient><linearGradient x1="266.59314" y1="191.4074" x2="267.63776" y2="195.26458" gradientUnits="userSpaceOnUse" id="color-6"><stop offset="0" stop-color="#72676e"/><stop offset="1" stop-color="#5e555b"/></linearGradient><linearGradient x1="161.1974" y1="234.3508" x2="162.74706" y2="240.07273" gradientUnits="userSpaceOnUse" id="color-7"><stop offset="0" stop-color="#5e555b"/><stop offset="1" stop-color="#4d454a"/></linearGradient><linearGradient x1="157.47175" y1="220.59407" x2="158.55981" y2="224.6116" gradientUnits="userSpaceOnUse" id="color-8"><stop offset="0" stop-color="#74686f"/><stop offset="1" stop-color="#5e555b"/></linearGradient></defs><g transform="translate(-36.75043,-187.721)"><g data-paper-data="{&quot;isPaintingLayer&quot;:true}" fill-rule="nonzero" stroke="none" stroke-linecap="butt" stroke-linejoin="miter" stroke-miterlimit="10" stroke-dasharray="" stroke-dashoffset="0" style="mix-blend-mode: normal"><g><g stroke-width="0"><path d="M232.64861,292.18352l-13.8859,-12.13742l24.53188,-7.25531c0,0 0.46344,5.91328 0.97592,8.57024c0.49575,2.57015 2.05039,7.11967 2.05039,7.11967z" fill="#7f7d7e"/><path d="M232.79502,292.34768l-4.97878,-4.46053c0,0 3.20591,2.81491 6.49019,2.5623c2.36498,-0.18194 4.10456,-0.97416 6.77662,-1.36547c2.67205,-0.39129 5.19437,-0.38766 5.19437,-0.38766z" fill="#6c6a6b"/></g><g><g><g><path d="M487.10742,199.01415l-3.24519,-4.10605c0,0 6.21655,0.03397 8.95698,0.2168c2.74049,0.18283 1.55249,1.68163 1.55249,1.68163z" fill="url(#color-1)" stroke-width="0"/><path d="M491.40396,188.04248c0,0 2.03668,1.86008 -0.23693,3.40087c-2.2736,1.54082 -4.75601,3.48016 -4.75601,3.48016l-2.38413,-5.08998z" data-paper-data="{&quot;index&quot;:null}" fill="url(#color-2)" stroke-width="0"/><path d="M477.8228,201.5239l-0.54853,-2.02539l14.25888,-3.86168c0,0 1.42153,0.43792 1.98808,0.66396c0.50933,0.20318 -0.4645,1.09735 -0.4645,1.09735z" fill="#444444" stroke-width="NaN"/><path d="M477.34427,199.62814l-1.60771,-1.38166l12.17702,-3.29784l3.70526,0.69777c0,0 -4.009,1.33228 -6.22912,1.95159c-2.50385,0.69841 -8.04542,2.03012 -8.04542,2.03012z" fill="#535353" stroke-width="0"/><path d="M475.66402,198.40776l-0.48077,-0.53284l11.07481,-2.99938l1.76429,0.06685z" fill="#363636" stroke-width="0"/><path d="M477.8228,201.5239l-0.29757,-1.0988c0,0 6.34778,-1.2492 9.12745,-2.002c2.35552,-0.63794 6.48969,-2.22749 6.48969,-2.22749c0,0 0.95493,0.22024 1.24669,0.35143c0.24616,0.11066 -0.11628,0.5218 -0.11628,0.5218c0,0 -4.46248,1.62758 -6.69574,2.23244c-3.01302,0.81601 -9.75416,2.22261 -9.75416,2.22261z" fill="#3a3a3a" stroke-width="NaN"/><path d="M475.49784,197.80865l-0.7653,-0.70831l13.16728,-3.56601l-1.51837,1.36189z" fill="#242424" stroke-width="0"/><path d="M474.00204,197.49424l-0.43245,-1.5968c0,0 7.75804,-2.3147 10.64961,-3.09782c1.97008,-0.5335 5.02235,-1.14653 5.02235,-1.14653l-1.36126,1.91164z" fill="#3a3a3a" stroke-width="0"/><path d="M473.45564,195.97236l-0.53395,-1.97155c0,0 7.30095,-2.31905 10.49998,-3.18542c2.76831,-0.74969 7.58948,-1.71363 7.58948,-1.71363l-1.80015,2.60366c0,0 -3.5494,0.8758 -5.71578,1.46252c-2.87963,0.7799 -10.03956,2.80442 -10.03956,2.80442z" fill="#444444" stroke-width="0"/><path d="M472.90231,194.09427l-0.22249,-0.8215c0,0 7.56766,-2.1777 11.03984,-3.11804c2.41767,-0.65478 7.79986,-1.98423 7.79986,-1.98423l-0.61252,1.04759c0,0 -4.95371,1.04253 -7.81581,1.81769c-3.15331,0.85399 -10.18888,3.05851 -10.18888,3.05851z" fill="#535353" stroke-width="0"/><path d="M472.57705,193.38881l-0.08894,-0.32858c0,0 7.27686,-2.49606 10.61688,-3.40063c2.88773,-0.78206 8.26447,-1.71295 8.26447,-1.71295l0.1253,0.31878c0,0 -5.84307,1.41157 -8.97526,2.25983c-3.17314,0.85935 -9.94234,2.86354 -9.94234,2.86354z" fill="#4e4e4e" stroke-width="0"/></g><g stroke-width="0"><g><g><g><path d="M472.04498,202.58308l-7.86354,-11.50823l0.08381,-1.80606c0,0 4.19812,2.20855 5.73946,4.37122c0.83679,1.17409 3.44433,8.56271 3.44433,8.56271z" fill="#383638"/><path d="M472.87888,201.64092c0,0 -0.10303,-0.60375 -1.35152,-2.80895c-1.36149,-2.40487 -3.65636,-5.55144 -4.31653,-6.4853c-1.48202,-2.0962 -2.24476,-2.0248 -2.24476,-2.0248l4.48102,-1.81633l8.34574,11.80455z" fill="#555355"/><path d="M465.05012,190.38756l-0.88478,-1.04131c0,0 1.74081,-1.30031 2.66897,-1.55164c0.86976,-0.23558 2.1557,0.16964 2.1557,0.16964l0.90379,1.11147z" fill="#686668"/></g><path d="M466.56954,204.066l-7.86354,-11.50822l-0.23023,-1.70012c0,0 4.5122,2.10268 6.05345,4.2653c0.83679,1.17408 3.44434,8.56271 3.44434,8.56271z" fill="#383638"/><path d="M467.40342,203.12384c0,0 -0.10303,-0.60376 -1.35151,-2.80895c-1.36149,-2.40487 -3.65636,-5.55144 -4.31653,-6.4853c-1.48202,-2.0962 -2.24476,-2.0248 -2.24476,-2.0248l3.62639,-2.10292c0,0 1.31831,0.94238 1.77003,1.58129c1.28699,1.82036 7.43034,10.50984 7.43034,10.50984z" fill="#555355"/><path d="M459.57466,191.87042l-1.0954,-0.98427c0,0 1.95143,-1.35732 2.87964,-1.6087c0.86976,-0.23558 1.8749,0.24571 1.8749,0.24571l1.02449,1.07883z" fill="#686668"/><path d="M473.40898,200.4678c-0.21426,-0.791 0.25337,-1.60592 1.04437,-1.82019c0.791,-0.21427 1.60592,0.25337 1.82019,1.04437c0.21426,0.791 -0.25337,1.60592 -1.04436,1.82019c-0.791,0.21427 -1.60592,-0.25337 -1.82019,-1.04437z" fill="#312f31"/><path d="M473.27606,197.46901l-3.37979,-4.83099l1.49857,-0.55434l3.39666,4.89328z" fill="#444144"/></g><path d="M427.30636,209.55409l-6.46312,-9.46307l29.15082,-6.67593l2.06764,9.43464z" fill="#444444"/><path d="M438.48416,202.47029c0,0 0.47742,-0.67004 0.88575,-1.92534c0.37341,-1.14774 0.66808,-2.86227 0.91812,-3.41045c0.49525,-1.90207 2.91317,-2.07326 2.91317,-2.07326l-0.77479,0.8864l-2.83907,6.2239z" fill="#292929"/><path d="M443.93867,211.90184l-9.15581,-8.88702c0,0 3.51594,-0.40179 4.88613,-1.85972c1.0647,-1.13294 0.28581,-3.6488 1.73487,-4.3323c4.15753,-1.9609 16.47095,-5.7452 16.47095,-5.7452c0,0 4.99523,6.04955 6.64496,8.5938c1.13889,1.75648 2.69464,5.9268 2.69464,5.9268z" fill="#4a464a"/><path d="M444.50527,198.16765c-4.56846,0.57832 -3.53431,-1.11485 -3.53431,-1.11485c0,0 0.42477,-1.46417 2.18893,-2.09337c4.32928,-1.54405 12.82257,-3.24659 14.47829,-3.72157c0.78082,-0.22403 0.51641,0.58101 0.51641,0.58101c0,0 -0.8139,2.69234 -2.24418,3.34286c-1.43034,0.65056 -6.83661,2.42762 -11.40512,3.00592z" fill="#5e595e"/></g><g><path d="M434.26399,221.33417l-9.67032,-15.96262l18.32512,-4.66628l5.76405,2.92322l5.86137,-1.68949l6.37251,12.17696z" fill="#4d4846"/><path d="M438.89268,220.48172l17.48294,-14.46467l21.48215,-6.06909c0,0 2.35981,3.69445 2.85194,4.96456c0.25085,0.64758 0.62001,2.88223 0.62001,2.88223z" fill="#423d3b"/><path d="M433.03893,213.4566l-5.64278,-8.67262l0.79198,-0.21446l5.64279,8.67263z" fill="#363332"/><path d="M439.24832,219.55487l-0.31824,-1.17503c0,0 4.41604,-3.83308 13.16569,-6.20275c1.16255,-0.31486 5.92853,1.03156 7.10027,0.71421c7.43429,-2.01341 14.711,-3.98413 17.4794,-4.73388c2.25455,-0.61058 4.21697,-2.48891 4.21697,-2.48891l0.65805,2.4299z" fill="#312e2c"/><path d="M438.20543,206.63813l-2.88945,-3.9991l8.01882,-2.17172l5.1663,3.18144l6.13799,-1.46125l-6.81638,3.86501z" fill="#585350"/><path d="M430.88465,215.89954l-0.29493,-1.08897c0,0 6.78749,-5.71666 9.56464,-6.46884c4.18558,-1.13359 15.74062,-4.26296 15.74062,-4.26296l0.29493,1.08897c0,0 -11.75315,3.18306 -15.93866,4.31659c-2.72015,0.73667 -9.36667,6.4152 -9.36667,6.4152z" fill="#2b2827"/></g></g></g><g><g><g><path d="M119.03819,344.54611c1.10597,2.01494 1.48426,4.59534 0.50019,5.13543c-0.984,0.54013 -2.95777,-1.1645 -4.06372,-3.17949c-1.10597,-2.01494 -5.40638,-9.72941 -4.42234,-10.26958c0.984,-0.54013 6.87988,6.29864 7.98589,8.31358z" fill="#615e5f" stroke-width="0"/><g><path d="M151.36078,304.78521c-0.65848,-0.3683 -3.26084,-1.02316 -3.26084,-1.02316l8.82223,-5.37301l-3.90924,8.51811c0,0 -0.99365,-1.7536 -1.65214,-2.1219z" fill="#756a6a" stroke-width="0"/><path d="M142.20439,305.50664l-3.59004,-13.25582l16.35529,-10.50742l5.12361,18.91848z" fill="#8a7c7c" stroke-width="0"/><path d="M104.9846,321.23001l1.69463,-19.24551l33.68377,-9.26054l7.68687,11.04116c0,0 -21.77851,7.53099 -28.96249,10.44448c-2.98215,1.20939 -14.10283,7.02052 -14.10283,7.02052z" fill="#7c787a" stroke-width="0"/><path d="M107.42209,304.27477l-0.53024,-1.39125c0,0 25.02278,-6.77683 32.88925,-8.90729c4.40128,-1.19205 13.9214,-10.37011 13.9214,-10.37011l0.42598,1.57299c0,0 -9.24115,9.0826 -13.50165,10.22127c-7.81209,2.08788 -33.20475,8.87439 -33.20475,8.87439z" fill="#535353" stroke-width="0"/><path d="M74.2056,330.29913l-5.26842,-19.45318c0,0 2.52956,-7.99336 8.92165,-12.10316c7.93926,-5.10452 24.70742,-7.79641 26.70608,-8.33769c1.53373,-0.41534 -9.73573,13.42864 -9.73573,13.42864l5.26842,19.45318z" fill="#8d898b" stroke-width="0"/><path d="M229.07715,240.5508l0.72497,-3.45384l103.86225,-27.98059l3.85481,14.23348c0,0 -35.98452,11.65752 -47.88913,14.45051c-5.91218,1.3871 -60.55289,2.75043 -60.55289,2.75043z" fill="#c98cac" stroke-width="0"/><path d="M234.5687,343.70216l-7.76736,-11.29886c0,0 6.48591,4.29329 9.51601,4.58828c1.93059,0.18797 6.10958,-0.54832 11.37069,-4.49838c4.23542,-3.17994 7.7838,-9.85027 7.7838,-9.85027l-7.38639,17.3985z" fill="#a08e97" stroke-width="0"/><path d="M309.64765,274.76266l-8.43148,-22.1889l17.53579,-6.20239l5.54107,20.45994c0,0 -5.72558,3.33168 -8.21197,4.72854c-1.14484,0.64316 -6.43337,3.20286 -6.43337,3.20286z" fill="#96858d" stroke-width="0"/><path d="M233.77415,347.79811l-1.44825,-5.34751c0,0 12.18453,-1.15684 15.82745,-5.37722c1.77293,-2.05397 12.56682,-26.66377 18.48678,-40.31811c2.31028,-5.32859 3.87835,-8.9887 3.87835,-8.9887c0,0 2.25618,-4.52016 1.50661,-7.3032c-0.37707,-1.39999 -1.01581,-5.55624 -2.42265,-7.56989c-1.41942,-2.03161 -3.60534,-1.91444 -3.60534,-1.91444l-8.25064,-11.82673l19.16451,-5.0414l4.13826,26.4099l4.29721,1.49036c0,0 -7.65429,8.28923 -10.82677,14.28267c-4.96385,9.3775 -19.59693,44.81999 -19.59693,44.81999z" fill="#918189" stroke-width="0"/><path d="M287.36567,281.16264l-6.3059,-27.9265l13.36872,-3.33489l13.14078,8.87569l2.10443,16.34418z" fill="#96858d" stroke-width="0"/><path d="M283.48184,284.13027l-3.50576,-3.34569l-3.4304,-26.20434l4.88107,-1.40969l6.82071,27.7693z" fill="#8f8187" stroke-width="0"/><path d="M308.50941,275.54369c0,0 0.91321,-7.15457 -1.80689,-12.02362c-1.5662,-2.80358 -6.82128,-3.42107 -7.78143,-5.13975c-1.8341,-3.28314 -4.67158,-8.36225 -4.67158,-8.36225l8.72277,2.15883c0,0 5.1735,6.0725 6.8644,10.0296c1.13611,2.65859 1.37075,9.2007 1.15574,11.95146c-0.01815,0.2319 -1.17517,0.45897 -1.1818,0.63201c-0.01616,0.42281 0.975,0.39401 0.975,0.39401z" fill="#86787e" stroke-width="0"/><path d="M303.15724,253.68076c0,0 -4.01721,-3.00944 -8.7909,-2.72323c-5.40434,0.32405 -21.97857,4.56816 -21.97857,4.56816l148.5453,-54.92256l5.7283,8.08551l10.55535,8.68546c0,0 -97.9594,23.86588 -117.83181,29.24783c-6.48465,1.7562 -16.22766,7.05892 -16.22766,7.05892z" fill="#df8db7" stroke-width="0"/><path d="M166.66143,339.63095l-14.11242,-33.75442c0,0 0.64425,-4.06027 1.0716,-4.39943c4.71181,-3.7396 32.85002,-22.39569 38.17495,-23.54119c5.83319,-1.25488 -5.64117,14.21096 -5.64117,14.21096c0,0 -13.37919,5.72231 -14.71763,10.4878c-1.81727,6.4701 7.39792,21.9531 7.39792,21.9531z" fill="#c77da3" stroke-width="0"/><path d="M228.73992,291.8114l-2.27758,-1.56428c0,0 4.08105,-10.02188 5.83072,-12.87105c1.80629,-2.94147 4.84244,-4.50979 4.84244,-4.50979l6.33087,0.67054c0,0 -4.45179,0.68497 -6.28471,2.95948c-1.57345,1.95256 -4.39031,5.90501 -6.2848,9.62183c-1.37806,2.70368 -2.15695,5.6932 -2.15695,5.6932z" fill="#414041" stroke-width="0"/><path d="M106.84035,303.34832l1.57736,-12.53782l46.93754,-12.71193c0,0 -1.63308,5.05829 -4.13023,7.77155c-2.45088,2.66298 -10.71647,8.35996 -10.71647,8.35996z" fill="#979395" stroke-width="0"/><path d="M107.31373,302.03604l0.80516,-12.32871l46.93754,-12.71193c0,0 -1.63308,5.05829 -4.13023,7.77155c-2.45088,2.66298 -10.71647,8.35996 -10.71647,8.35996z" fill="#bdb7ba" stroke-width="0"/><path d="M310.91763,275.22376l-1.94203,-0.00607l15.17171,-8.43405c0,0 -2.8987,2.91654 -5.08799,4.33507c-2.18926,1.41857 -8.14168,4.10499 -8.14168,4.10499z" fill="#887980" stroke-width="0"/><path d="M169.18217,339.42952c0,0 -4.9946,-9.48984 -8.38595,-17.41739c-3.4079,-7.96624 -6.57943,-15.44394 -7.53781,-18.89826c-0.16236,-0.58523 -1.16752,-10.60141 -0.82146,-11.23531c1.86816,-3.42177 11.36499,2.02876 16.44713,-0.4909c7.525,-3.73081 25.83466,-9.22219 25.83466,-9.22219l-6.77148,7.33589c0,0 -18.02435,7.84977 -18.98992,13.43358c-1.306,7.55266 11.45782,25.72056 11.45782,25.72056z" fill="#d486ae" stroke-width="0"/><path d="M169.35448,335.73718c0,0 -17.11368,-37.70913 -18.46716,-47.78256c-0.63328,-4.71326 -6.25228,-12.62744 -6.25228,-12.62744l50.72712,-6.5185l5.57525,15.13897c0,0 -31.73671,5.39046 -36.22622,13.10639c-2.99692,5.15061 10.95839,30.63164 10.95839,30.63164z" fill="#e490bb" stroke-width="0"/><g stroke-width="0"><path d="M286.4981,238.74864l-2.16312,-7.98716l9.03451,-2.44678l2.16312,7.98716z" fill="#454545"/><path d="M287.10157,237.79283l-2.25213,-6.95108l10.93234,-2.96078l1.90778,7.04434z" fill="#b0b0b0"/><path d="M285.70555,233.52014l-0.96049,-2.67213l11.14147,-3.01741l0.49862,1.84104c0,0 -7.43759,2.34839 -9.04163,2.92643c-0.53599,0.19317 -1.63792,0.92209 -1.63792,0.92209z" fill="#bebebe"/><path d="M297.79051,234.32866c0,0 -6.01601,-1.01812 -6.44455,-4.78472c-0.6368,-5.59717 3.46611,-6.21304 3.46611,-6.21304l39.19164,-9.23272l2.62993,9.71078z" fill="#9c989a"/><path d="M299.17867,232.61704c0,0 -3.32017,-2.74651 -3.79809,-3.57727c-0.70846,-1.23151 0.4439,-4.60745 0.4439,-4.60745l40.1581,-10.84132l1.5715,7.33281z" fill="#898587"/><path d="M299.14326,232.83202l-1.49112,-1.60541l36.90236,-9.99414l0.50699,1.87192z" fill="#c1bcbf"/><path d="M298.1391,229.58777c0,0 -1.6446,-0.97185 -1.88964,-1.87663c-0.22919,-0.84634 0.46376,-3.38827 0.46376,-3.38827l37.32214,-10.10779l1.42589,5.2649z" fill="#0d0d0d"/><path d="M298.34231,230.33803c0,0 -1.80238,-1.55462 -2.04743,-2.45939c-0.22919,-0.84634 0.62158,-2.80547 0.62158,-2.80547l37.32215,-10.1078l1.42589,5.2649z" fill="#2e2e2e"/><path d="M294.18165,233.43669c-3.34882,-2.27051 -2.83498,-4.83039 -2.83498,-4.83039c0,0 2.84352,3.4904 4.27073,4.03379c1.68972,0.64335 5.53109,1.01815 5.53109,1.01815l-3.3684,0.98495c0,0 -3.00908,-0.80697 -3.5984,-1.20658z" fill="#7d7a7c"/><path d="M300.93285,229.95731c0,0 -1.43624,-1.90269 -1.73515,-3.00651c-0.26277,-0.97028 0.036,-3.26749 0.036,-3.26749l4.65559,-1.26086c0,0 0.13106,2.24787 0.35805,3.08589c0.31195,1.15183 1.34112,3.18802 1.34112,3.18802z" fill="#555555"/><path d="M309.24994,227.70487c0,0 -0.01609,-2.60964 -0.31501,-3.71342c-0.26277,-0.97028 -1.38414,-2.56056 -1.38414,-2.56056l5.19617,-1.40725c0,0 0.04619,1.76435 0.27313,2.60241c0.31195,1.15183 1.42603,3.67155 1.42603,3.67155z" fill="#555555"/><path d="M318.25232,225.26676c0,0 -0.01608,-2.60964 -0.315,-3.71345c-0.26277,-0.97028 -1.38414,-2.56055 -1.38414,-2.56055l5.11892,-1.38636c0,0 0.04619,1.76435 0.27313,2.60241c0.31195,1.15183 1.42603,3.67155 1.42603,3.67155z" fill="#555555"/><path d="M327.57958,222.74071c0,0 0.24849,-2.31292 -0.05049,-3.41674c-0.26277,-0.97028 -1.64868,-2.85725 -1.64868,-2.85725l4.96447,-1.34451c0,0 1.31702,1.69644 1.54402,2.53454c0.31195,1.15183 0.15519,3.73949 0.15519,3.73949z" fill="#555555"/><path d="M299.16086,224.43238l-0.85113,-0.59828l34.32602,-9.29637l-1.27179,1.17324c0,0 -2.73166,0.73979 -5.10827,1.38347c-0.51804,0.14026 -1.58426,0.08846 -2.36018,0.29858c-0.75026,0.20318 -1.20283,0.66635 -2.13542,0.91893c-1.4543,0.39385 -3.09516,0.83823 -4.81293,1.30347c-0.71219,0.19288 -1.43212,-0.00953 -2.16296,0.18843c-0.64991,0.17603 -1.30949,0.75204 -1.96239,0.92886c-1.62048,0.43887 -3.22501,0.8734 -4.73362,1.28196c-0.69276,0.18761 -1.47983,-0.05337 -2.12434,0.12117c-0.78683,0.21309 -1.41738,0.83803 -2.10679,1.02471c-2.81214,0.76164 -4.6963,1.2719 -4.6963,1.2719z" fill="#474747"/></g><g><path d="M174.59726,327.65684l2.83829,-3.73944c0,0 3.46253,1.97857 6.43199,2.10159c2.62635,0.1088 10.48203,-1.40095 10.48203,-1.40095l-1.42451,4.89692z" fill="#6d6a6b" stroke-width="0"/><path d="M168.51772,336.03768l6.97991,-9.54158c0,0 3.71215,1.33249 5.97852,1.40444c3.42868,0.10881 12.5919,-0.81494 12.5919,-0.81494l-3.00304,5.27581z" fill="#615e5f" stroke-width="0"/><path d="M176.18946,356.71871l-7.33255,-21.40039c0,0 4.40983,-0.37382 9.07122,-1.60556c3.63838,-0.96142 7.32402,-2.83722 9.88038,-2.89931c4.48795,-0.10901 40.07816,3.05307 40.07816,3.05307l5.05209,9.17313z" fill="#575455" stroke-width="0"/><path d="M189.9612,324.97295c5.23745,-7.18411 9.50982,-22.27786 10.05223,-25.08882c0.39076,-2.02505 -0.32486,-7.29735 -0.32486,-7.29735l9.21727,4.56403c0,0 11.00443,18.25483 15.44993,30.1532c1.24389,3.32927 4.70515,6.47921 3.94353,8.20481c-0.68245,1.54605 -16.45536,8.19019 -21.86191,8.86205c-11.37796,1.41405 -16.23939,5.62069 -21.23293,1.50763c-4.99354,-4.11299 0.22122,-12.02145 0.22122,-12.02145c0,0 3.17208,-7.01391 4.53558,-8.88421z" fill="#504e4f" stroke-width="0"/><path d="M186.01888,292.03284c0,0 -0.00818,-1.54434 0.64559,-2.40881c0.8408,-1.11177 3.98064,-3.70853 3.98064,-3.70853c0,0 9.58165,-0.45313 13.13813,1.1634c3.28137,1.49142 -0.09337,13.05695 -0.09337,13.05695l-3.33825,-4.65041z" fill="#464445" stroke-width="0"/><path d="M220.79115,331.54445c0,0 -7.32612,8.46525 -15.47066,10.84859c-7.85707,2.29924 -16.53793,-1.45385 -16.8064,-2.85463c-0.14549,-0.75897 6.64278,-6.02176 8.89491,-11.00518c2.50347,-5.53955 0.54159,-10.91516 1.31995,-13.20887c2.17287,-6.40334 7.66345,-18.43551 5.05943,-23.99164c-2.73087,-5.82684 -13.6179,-5.02698 -13.6179,-5.02698c0,0 3.12869,-3.1801 7.90706,-4.60875c2.03541,-0.60857 6.78717,-0.4597 7.77894,-0.32943c3.25239,0.42696 5.60165,1.48597 5.60165,1.48597c0,0 2.25585,-5.66606 5.65184,-6.90635c3.39595,-1.24031 22.33769,-3.31641 22.33769,-3.31641l-12.35467,16.39366z" fill="#555354" stroke-width="0"/><path d="M198.50193,316.00229c0,0 1.61788,-11.70263 4.76302,-18.18513c3.14515,-6.48248 6.25036,-10.61852 9.65988,-11.54187c2.46898,-0.66865 7.895,6.78758 7.895,6.78758l-3.17123,30.66451c0,0 -13.25556,6.98719 -15.32994,4.97895c-1.63836,-1.58612 -3.81676,-12.70399 -3.81676,-12.70399z" fill="#585758" stroke-width="0"/><path d="M227.40942,336.45653c0,0 -4.39649,-5.22343 -4.87159,-8.22582c-0.66375,-4.19435 -2.57789,-16.78575 -2.57789,-16.78575l4.61662,9.56134c0,0 1.92991,9.576 2.84997,12.46581c0.88778,2.7882 2.82897,4.51107 2.82897,4.51107z" fill="#3f3e3f" stroke-width="0"/><path d="M221.84296,319.45529c-0.62645,-1.56547 -2.38455,-9.07805 -2.38455,-9.07805c0,0 5.41761,-16.55998 6.74858,-19.6691c0.3902,-0.91149 3.17669,-3.4594 3.17669,-3.4594l-0.32019,5.1155c0,0 -1.36125,0.99443 -1.40988,1.50264c-0.05182,0.54148 1.1078,1.65276 1.1078,1.65276l-2.73371,9.52596c0,0 -1.32906,1.40696 -1.3699,1.94154c-0.04086,0.53479 0.85505,1.2123 0.85505,1.2123c0,0 -1.383,9.63793 -1.56495,12.18897c-0.08411,1.17952 0.51729,2.50085 0.51729,2.50085c0,0 -1.99574,-1.86847 -2.62217,-3.43393z" fill="#474647" stroke-width="0"/><path d="M203.69198,302.64726l22.47935,2.44403c0,0 -0.88299,1.28791 -0.97096,1.87022c-0.06494,0.42968 0.49072,1.30702 0.49072,1.30702z" fill="#3f3e3e" stroke-width="NaN"/><path d="M206.77699,291.08585l22.51247,1.21616c0,0 -0.85579,1.10548 -0.91404,1.69763c-0.06072,0.61728 0.57805,1.5624 0.57805,1.5624z" fill="#3f3e3e" stroke-width="NaN"/><path d="M202.26673,322.02055c0,0 12.33167,4.63043 19.56801,8.86354c7.23631,4.2332 5.67859,5.90531 5.67859,5.90531z" fill="#636162" stroke-width="NaN"/><path d="M209.06434,296.29239c0,0 -5.03285,4.37169 -6.87729,8.07868c-1.84446,3.70698 -5.65828,21.50577 -6.4283,18.66267c-0.76998,-2.8431 6.47878,-26.27388 8.2113,-26.74308c0.65586,-0.17761 3.28789,-2.07386 4.13996,-2.05861c1.39877,0.0251 0.95428,2.06032 0.95428,2.06032z" fill="#918f91" stroke-width="0"/><path d="M175.71529,356.71311l12.96437,-5.46744c0,0 12.07106,-3.6134 15.13921,-4.28368c7.47184,-1.63233 29.85472,-5.54606 29.85472,-5.54606l1.22093,6.21814c0,0 -22.58184,9.80967 -29.58047,10.34201c-2.02469,0.15403 -7.80065,1.07798 -12.26189,0.88532c-8.73046,-0.37707 -17.3369,-2.14828 -17.3369,-2.14828z" fill="#626061" stroke-width="0"/><path d="M233.83255,347.55716c0,0 -1.08308,-4.15394 -2.1281,-6.29507c-1.17453,-2.40657 -4.576,-7.44135 -4.576,-7.44135l1.72036,-0.46593c0,0 2.82442,3.85241 3.88776,6.03105c1.16255,2.38205 2.81638,7.70534 2.81638,7.70534z" fill="#4a494a" stroke-width="0"/><path d="M233.86274,348.41543l-0.80284,-3.30209c0,0 0.61626,0.10737 0.87831,0.0364c0.3114,-0.08432 0.82772,-0.49838 0.82772,-0.49838l0.99807,3.02071c0,0 -0.643,0.5964 -0.98942,0.7319c-0.26547,0.10385 -0.91182,0.01149 -0.91182,0.01149z" fill="#363536" stroke-width="0"/><path d="M227.662,334.73852l-0.7961,-1.4634c0,0 0.31024,-0.45118 0.65038,-0.60468c0.32399,-0.14618 0.86031,-0.16424 0.86031,-0.16424l0.93811,1.54488c0,0 -0.33245,0.61572 -0.61557,0.7335c-0.26677,0.11096 -1.03716,-0.046 -1.03716,-0.046z" fill="#585758" stroke-width="0"/><path d="M193.32702,358.08041c0,0 -8.39251,-0.78629 -8.74883,-2.10194c-0.35806,-1.32214 5.35618,-4.08271 5.35618,-4.08271c0,0 10.50041,-3.09321 15.33019,-4.22241c2.70389,-0.63214 11.18146,-1.97603 11.18146,-1.97603c0,0 7.31386,-0.88857 8.40164,0.01001c1.18659,0.98019 -1.80039,4.73312 -1.80039,4.73312c0,0 -11.94,4.58675 -15.8214,5.42222c-1.3788,0.29676 -13.89883,2.21781 -13.89883,2.21781z" fill="#6b696a" stroke-width="0"/><path d="M181.50092,354.1331l-1.83313,0.73561c0,0 -0.29323,-3.47898 2.65691,-2.99105c2.95013,0.48799 21.00002,-5.44822 21.00002,-5.44822z" fill="#4b4949" stroke-width="0"/><path d="M175.74805,356.55498c0,0 -1.87823,0.70717 -3.34699,-2.66907c-0.74348,-1.709 -6.13289,-14.95285 -6.13289,-14.95285l2.84821,-3.7749c0,0 2.2249,5.60711 3.18256,8.35453c1.27368,3.65407 4.34013,12.80088 4.34013,12.80088z" fill="#3f3d3e" stroke-width="0"/><path d="M181.85491,354.20912c0,0 2.51753,-2.91768 17.9274,-7.44034c1.27258,-0.37348 -1.74111,0.43834 7.46438,-1.52913c9.20549,-1.96756 13.37324,-1.52908 13.37324,-1.52908c0,0 -14.82185,2.90623 -20.80896,4.5277c-6.82462,1.8483 -17.9561,5.97087 -17.9561,5.97087z" fill="#838082" stroke-width="0"/><path d="M178.98382,324.28701c0,0 -3.6468,3.2539 -5.32391,5.38184c-1.88504,2.39178 -5.4354,8.27005 -5.4354,8.27005l-1.17589,-1.34084c0,0 2.62437,-4.70325 4.33087,-6.8685c1.86575,-2.36731 6.42852,-6.78342 6.42852,-6.78342z" fill="#4a494a" stroke-width="0"/><path d="M179.81797,323.79404l-2.99791,2.55299c0,0 -0.07594,-0.64916 -0.25505,-0.85337c-0.21284,-0.2427 -0.83633,-0.49653 -0.83633,-0.49653l2.56425,-2.56109c0,0 0.85611,0.27233 1.134,0.51983c0.21296,0.18962 0.391,0.83823 0.391,0.83823z" fill="url(#color-3)" stroke-width="0"/><path d="M168.90768,336.94759l-2.1348,3.4063l-0.70939,-2.06916l1.47786,-2.49528c0,0 0.74587,-0.02575 0.9799,0.17273c0.22056,0.18693 0.38638,0.98546 0.38638,0.98546z" fill="url(#color-4)" stroke-width="0"/></g><path d="M288.18771,279.80403c0,0 -0.25995,-4.50746 -0.13722,-5.97986c0.08329,-0.99951 1.9999,-3.00182 1.9999,-3.00182l16.37058,-4.65967c0,0 0.28283,5.92999 0.27217,7.34841c-0.00469,0.62137 -0.85252,1.56853 -0.85252,1.56853z" fill="#665b60" stroke-width="0"/><path d="M236.49156,274.89046c0,0 -4.07072,-0.51629 -9.12904,-0.34012c-3.21557,0.11199 -7.48528,0.68114 -9.25393,1.26973c-5.14204,1.7112 -6.23898,7.2971 -6.23898,7.2971c0,0 -3.76482,-1.37955 -6.02258,-1.65361c-2.10754,-0.25578 -6.57093,-0.08399 -6.57093,-0.08399c0,0 22.37457,-11.33429 25.94015,-12.90098c6.83554,-3.00346 32.69132,-9.60037 32.69132,-9.60037l9.74195,12.16198z" fill="#8b7c84" stroke-width="0"/><g stroke-width="0"><path d="M289.34538,278.51379c0,0 -0.22355,-2.6292 -0.06135,-3.60014c0.16813,-1.0067 2.00089,-2.59342 2.00089,-2.59342l14.02478,-3.79831c0,0 0.6298,0.84781 0.59552,1.62146c-0.04668,1.0519 -2.0085,4.42957 -2.0085,4.42957z" fill="#585852"/><path d="M289.1505,277.79436c0,0 -0.02874,-1.90981 0.13351,-2.88076c0.16813,-1.0067 1.80603,-3.31285 1.80603,-3.31285l14.02478,-3.7983c0,0 0.8247,1.56724 0.79034,2.34093c-0.04668,1.0519 -2.20338,3.71008 -2.20338,3.71008z" fill="#797971"/><path d="M303.54154,268.742c-1.05892,0.10244 -12.3483,2.87874 -12.3483,2.87874l14.00558,-3.79307l0.64353,2.37622c0,0 -1.24192,-1.56426 -2.30091,-1.46191z" fill="#85857b"/></g><path d="M285.97759,260.60326l-1.35664,-5.00929l6.88781,-1.86541l2.60898,4.67013z" fill="#7c6e75" stroke-width="0"/><path d="M269.00862,237.82344l-6.15705,-6.75669l1.33138,-0.36055l8.14327,6.68667z" fill="#d495b6" stroke-width="0"/><path d="M229.36694,240.65555l11.95173,-6.4378l21.73125,-3.17877l5.97919,6.76446z" fill="#df9cbe" stroke-width="0"/><path d="M287.44836,265.41359l-0.42395,-1.56542l10.48821,-2.84045l1.36319,1.31107z" fill="#7c6e75" stroke-width="0"/><path d="M245.10997,264.28793c0,0 -17.18978,5.89703 -22.49594,7.85226c-8.03468,2.96063 -23.90356,9.66735 -23.90356,9.66735c0,0 13.34044,-8.21356 25.98191,-13.20791c13.70651,-5.41512 55.84339,-18.3368 55.84339,-18.3368l1.41397,5.22102z" fill="#75686e" stroke-width="0"/><path d="M240.72481,274.56195l-3.27965,0.29681c0,0 8.80742,-4.85558 14.16072,-5.51513c5.35329,-0.65955 15.64112,1.84348 15.64112,1.84348z" fill="#7c6e76" stroke-width="0"/><path d="M194.83053,282.81595c0,0 -35.25691,-6.4026 -37.32515,-10.62904c-1.87871,-3.83919 29.39859,-5.52936 29.65771,-5.71168c4.53398,-3.19003 72.0314,-28.94487 72.0314,-28.94487l27.45829,-0.40248l50.7779,-14.344l10.60289,11.19294c0,0 -59.11304,17.22032 -82.01027,23.59043c-7.94826,2.21123 -24.36458,5.98615 -38.83827,11.08738c-11.16451,3.93495 -27.10743,12.72477 -27.10743,12.72477z" fill="#ee96c3" stroke-width="0"/><path d="M73.46804,328.67922l-2.05717,-20.32289c0,0 -1.94204,-6.78228 4.45012,-10.89214c7.93926,-5.10452 24.70743,-7.7964 26.7061,-8.33769c1.53373,-0.41534 -9.73574,13.42864 -9.73574,13.42864l5.26843,19.45318z" fill="#c4b4b3" stroke-width="0"/><g stroke-width="0"><path d="M340.07891,237.56304l-6.71628,-13.86944l91.29975,-17.71815l0.78757,5.80283l-44.5097,17.0865z" fill="#ad6d8e"/><path d="M361.76059,216.83831l4.85729,-9.88619l25.28716,-9.05415l-1.4362,11.16549z" fill="#8d788b"/><path d="M337.48601,224.64403l-4.24405,-15.67077l33.44481,-2.03548l-2.62386,7.8271z" fill="#857183"/><path d="M377.56165,210.34994l14.28325,-12.4344l27.85973,-3.63654l1.52603,6.72904z" fill="#947e92"/><path d="M333.30282,225.14646l-0.5441,-13.07848l0.59561,-3.33547l3.93783,14.54005z" fill="#756474"/><path d="M340.47346,234.12598l-3.85213,-11.4644l41.37672,-12.91411l3.014,15.81923z" fill="#746373"/><path d="M381.00056,225.55379c0,0 -1.28208,-6.18747 -1.83371,-8.9847c-0.47233,-2.39491 -1.27537,-6.77981 -1.27537,-6.77981l42.90076,-10.6768l4.1263,7.58512z" fill="#867284"/><path d="M333.32348,225.06789l3.48735,-2.53053l3.69365,11.58815z" fill="#6f5e6d"/><path d="M412.71208,196.06126l-20.00836,1.93395l26.7485,-3.47679l0.57582,3.51723c0,0 -0.71288,-1.43272 -2.06346,-1.79724c-0.90342,-0.24384 -5.25252,-0.17716 -5.25252,-0.17716z" fill="#978195"/><path d="M375.77595,210.16044c0,0 6.79153,-5.42938 9.11913,-7.46266c1.69559,-1.48112 3.56136,-3.61406 3.56136,-3.61406l2.47518,-0.55368l-12.59913,10.93803z" fill="#9c859a"/><path d="M362.10645,214.6999c0,0 0.55113,-3.00067 1.50151,-4.65704c0.95033,-1.65631 2.96524,-3.04659 2.96524,-3.04659l-2.09075,7.06012z" fill="#806b7d"/><path d="M392.91076,195.81822l0.56041,-6.09168l15.6474,-0.36988l7.07831,4.71355z" fill="#55494f"/><path d="M391.19745,199.18319c0,0 0.83824,-1.04567 1.2263,-1.75659c0.2923,-0.53549 0.59439,-2.05177 0.59439,-2.05177l22.58347,-1.97209c0,0 0.96761,0.25283 1.61854,0.41392c0.68035,0.16837 2.37909,0.57543 2.37909,0.57543z" fill="#685960"/><path d="M393.21922,194.81032l0.4022,-4.85946l14.52415,-0.48682c0,0 -8.12896,0.61359 -12.38764,2.03083c-2.4703,0.82205 -2.53864,3.31546 -2.53864,3.31546z" fill="#41383c"/></g><path d="M64.78223,290.33638l-1.36148,-5.02722c0,0 21.2213,-7.08898 42.43079,-12.77407c12.63895,-3.38777 26.15457,-5.39296 32.74368,-7.54016c14.85691,-4.84156 23.7822,-11.93347 23.7822,-11.93347l-3.33792,11.93052z" fill="#ffa1d1" stroke-width="0"/><path d="M65.94254,304.48252l-2.1189,-16.08808c0,0 53.42957,-12.33534 70.54096,-17.42614c10.13607,-3.01556 22.66679,-10.30378 22.66679,-10.30378l3.82763,14.13324c0,0 -65.15388,17.64536 -80.86046,21.89909c-6.45792,1.74897 -7.02823,33.73514 -7.02823,33.73514z" fill="#ee96c3" stroke-width="0"/><path d="M258.91618,331.46801l5.40329,-15.54903c0,0 5.4285,-17.8987 12.708,-26.98013c1.84985,-2.30775 6.52685,-4.81404 6.52685,-4.81404c0,0 -5.74675,6.72108 -7.52165,10.09374c-4.19147,7.96478 -17.11641,37.24939 -17.11641,37.24939z" fill="#70646b" stroke-width="0"/><path d="M334.63634,243.78457l-10.78738,-15.72879l1.30315,-0.35292c0,0 3.26697,4.76352 4.99324,7.28054c0.24598,0.35859 1.88267,1.18045 2.18734,1.62468c0.52811,0.77005 -0.23092,1.22792 0.35933,2.08857c1.64365,2.39653 3.24743,4.73499 3.24743,4.73499z" fill="#795467" stroke-width="0"/><path d="M161.58226,275.04925c0,0 -11.8304,-3.58438 -12.16146,-7.40566c-0.19823,-2.28801 13.97994,-14.36637 13.97994,-14.36637l66.55707,-16.29304l-0.77042,3.41633l29.99114,-2.68489l-62.35255,44.41921c0,0 -2.23135,-5.21173 0.49854,-8.91218c2.65315,-3.59641 15.65715,-12.98732 15.65715,-12.98732c0,0 -33.04039,8.89744 -40.10047,10.71971c-2.35541,0.60794 -11.29908,4.09424 -11.29908,4.09424z" fill="#f399c8" stroke-width="0"/><g><path d="M162.16938,255.60418l-0.84652,-3.12575l170.41456,-46.15263l0.84652,3.12575z" fill="#584f54" stroke-width="0"/><path d="M326.20749,208.08059l-0.7153,-2.64114l2.94902,-0.79868l3.31736,1.93649z" fill="#685d63" stroke-width="0"/><g fill="#685d63" stroke-width="0"><g><g><g><path d="M319.84417,210.06209l-0.77819,-2.87348l3.74616,-1.01459l0.77819,2.87348z"/><path d="M313.76562,211.70836l-0.77819,-2.87348l3.74617,-1.01459l0.77819,2.87348z"/></g><g><path d="M307.91644,213.29242l-0.7782,-2.87349l3.74617,-1.01459l0.77819,2.87348z"/><path d="M301.83785,214.93871l-0.77819,-2.87348l3.74616,-1.01458l0.7782,2.87349z"/></g></g><g><g><path d="M295.87399,216.55387l-0.7782,-2.87349l3.74616,-1.01458l0.77819,2.87348z"/><path d="M289.7954,218.20013l-0.77819,-2.87348l3.74616,-1.01459l0.7782,2.87349z"/></g><g><path d="M283.94624,219.78419l-0.77819,-2.87348l3.74616,-1.01458l0.77819,2.87348z"/><path d="M277.86773,221.4304l-0.77819,-2.87348l3.74614,-1.01457l0.7782,2.87349z"/></g></g></g><g><g><g><path d="M277.63838,221.49254l-0.77819,-2.87348l3.74616,-1.01458l0.77819,2.87348z"/><path d="M271.55984,223.13876l-0.77819,-2.87348l3.74617,-1.01459l0.77819,2.87348z"/></g><g><path d="M265.71064,224.72286l-0.7782,-2.87349l3.74616,-1.01458l0.77819,2.87348z"/><path d="M259.63206,226.36909l-0.77819,-2.87348l3.74614,-1.01457l0.7782,2.87349z"/></g></g><g><g><path d="M253.66826,227.98426l-0.7782,-2.87349l3.74617,-1.01459l0.77819,2.87348z"/><path d="M247.58968,229.63048l-0.77819,-2.87348l3.74617,-1.01459l0.7782,2.87349z"/></g><g><path d="M241.74051,231.21461l-0.77819,-2.87348l3.74616,-1.01459l0.7782,2.87349z"/><path d="M235.66195,232.86084l-0.77819,-2.87348l3.74617,-1.01459l0.77819,2.87348z"/></g></g></g></g><g><g fill="#685d63" stroke-width="0"><g><g><path d="M229.65907,234.48654l-0.7782,-2.87349l3.74617,-1.01459l0.77819,2.87348z"/><path d="M223.58054,236.13278l-0.77819,-2.87348l3.74617,-1.01459l0.7782,2.87349z"/></g><g><path d="M217.73138,237.71693l-0.77819,-2.87348l3.74617,-1.01459l0.7782,2.87349z"/><path d="M211.65288,239.36311l-0.77819,-2.87348l3.74616,-1.01459l0.7782,2.87349z"/></g></g><g><g><path d="M205.68895,240.97828l-0.7782,-2.87349l3.74617,-1.01459l0.77819,2.87348z"/><path d="M199.61037,242.62449l-0.77819,-2.87348l3.74617,-1.01459l0.7782,2.87349z"/></g><g><path d="M193.7612,244.20864l-0.77819,-2.87348l3.74617,-1.01459l0.7782,2.87349z"/><path d="M187.6826,245.85488l-0.77819,-2.87348l3.74616,-1.01459l0.77819,2.87348z"/></g></g></g><g><g fill="#685d63" stroke-width="0"><g><path d="M187.45331,245.91698l-0.7782,-2.87349l3.74617,-1.01459l0.77819,2.87348z"/><path d="M181.3747,247.56319l-0.77819,-2.87348l3.74616,-1.01459l0.7782,2.87349z"/></g><g><path d="M175.52555,249.14729l-0.77819,-2.87348l3.74616,-1.01459l0.7782,2.87349z"/><path d="M169.44698,250.79351l-0.77819,-2.87348l3.74616,-1.01459l0.77819,2.87348z"/></g></g><g fill="none" stroke-width="1" font-family="sans-serif" font-weight="normal" font-size="12" text-anchor="start"><g/><g/></g></g></g><path d="M161.45676,252.69933l1.88678,-3.34587l2.94902,-0.79868l0.7153,2.64114z" data-paper-data="{&quot;index&quot;:null}" fill="#685d63" stroke-width="0"/></g><path d="M224.98571,269.56522l-2.39253,0.92773c0,0 0.94937,-2.91716 9.91611,-6.51389c6.79812,-2.72683 26.30353,-9.36816 37.99088,-13.30601c5.42729,-1.82867 57.61122,-25.28763 57.61122,-25.28763l5.01428,-1.37283c0,0 -56.78709,26.40761 -62.21638,28.21272c-12.0056,3.99161 -32.18285,10.73788 -37.96643,12.90357c-3.14836,1.17891 -7.9571,4.43634 -7.9571,4.43634z" fill="#70475c" stroke-width="0"/><path d="M327.36128,261.55237l-4.27008,3.06872l-4.94816,-18.2733c0,0 7.5332,-1.99004 14.90048,-3.93629c21.14937,-5.58703 122.7946,-32.43863 122.7946,-32.43863l1.75858,6.49334z" fill="#5a5959" stroke-width="0"/><path d="M326.90365,263.36341l0.26719,-3.1867l130.40894,-43.81924l-8.48407,13.9132z" fill="#4b4a4a" stroke-width="0"/><path d="M445.87481,230.94706c0,0 -6.54388,-1.56868 -9.84421,-2.15438c-1.76872,-0.31389 -8.41861,-1.08672 -8.41861,-1.08672c0,0 8.4823,0.71112 11.95841,0.7518c1.2406,0.01456 2.51931,0.43775 3.91602,0.60664c0.45037,0.05443 1.48912,-3.08546 2.8739,-5.2366c0.4139,-0.64298 1.6291,-0.59443 2.04972,-1.05103c0.96429,-1.04681 1.02553,-2.19415 1.02553,-2.19415c0,0 0.56874,0.80904 -0.29056,2.29925c-0.23442,0.4066 -1.88257,1.21798 -2.10251,1.6509c-0.8814,1.73501 -1.43033,3.54039 -1.57029,4.19077c-0.39062,1.81503 1.81506,1.84099 1.81506,1.84099z" fill="#414040" stroke-width="0"/><path d="M161.61274,275.3491l0.78122,-11.7102l6.5993,-2.43406c0,0 -0.22533,2.80463 -0.35811,4.45754c-0.03346,0.41632 10.83918,-4.5549 11.35437,-3.99922c0.95585,1.03095 -3.43963,6.1167 -3.52313,7.15623c-0.09551,1.18844 -8.39383,3.84591 -8.39383,3.84591z" fill="#303030" stroke-width="0"/><path d="M161.37745,275.02943l0.89866,-10.87681c0,0 3.23691,0.47495 3.49436,1.42565c0.46853,1.72986 0.45718,7.72855 0.45718,7.72855z" fill="#252525" stroke-width="0"/><path d="M323.76792,267.18923l-0.77179,-2.84973l4.55993,-4.29373l-0.42329,3.17335c0,0 -0.70343,1.57389 -1.29523,2.27208c-0.52074,0.61441 -2.06969,1.69791 -2.06969,1.69791z" fill="#383838" stroke-width="0"/><g><g fill="#4b4b4b" stroke-width="0"><g data-paper-data="{&quot;origPos&quot;:null}"><g data-paper-data="{&quot;origPos&quot;:null}"><path d="M388.93296,250.96121l-0.59413,-2.19372l3.6196,-0.9803l0.59413,2.19372z" data-paper-data="{&quot;origPos&quot;:null}"/><path d="M382.87053,252.48537l-0.59413,-2.19372l3.61959,-0.9803l0.59412,2.19371z" data-paper-data="{&quot;origPos&quot;:null}"/></g><g data-paper-data="{&quot;origPos&quot;:null}"><path d="M401.028,247.80335l-0.59413,-2.19372l3.6196,-0.9803l0.59412,2.19371z" data-paper-data="{&quot;origPos&quot;:null}"/><path d="M394.9656,249.32744l-0.59412,-2.19371l3.61959,-0.9803l0.59413,2.19372z" data-paper-data="{&quot;origPos&quot;:null}"/></g></g><g data-paper-data="{&quot;origPos&quot;:null,&quot;index&quot;:null}"><g data-paper-data="{&quot;origPos&quot;:null}"><path d="M419.50537,242.56374l-0.59413,-2.19372l3.6196,-0.9803l0.59412,2.19371z" data-paper-data="{&quot;origPos&quot;:null}"/><path d="M425.50833,240.8202l-0.59413,-2.19371l3.6196,-0.9803l0.59412,2.1937z" data-paper-data="{&quot;origPos&quot;:null}"/></g><g data-paper-data="{&quot;origPos&quot;:null}"><path d="M407.46973,245.94097l-0.59413,-2.19372l3.61959,-0.9803l0.59413,2.19371z" data-paper-data="{&quot;origPos&quot;:null}"/><path d="M413.4727,244.19754l-0.59412,-2.19371l3.6196,-0.9803l0.59412,2.19371z" data-paper-data="{&quot;origPos&quot;:null}"/></g></g></g><path d="M345.54134,254.17062l-3.55807,-13.13786l81.53669,-22.08224l3.55807,13.13786z" data-paper-data="{&quot;origPos&quot;:null}" fill="#444444" stroke-width="0"/><path d="M346.87085,258.70289l-1.25017,-4.61615l81.29703,-22.01735l1.25017,4.61616z" data-paper-data="{&quot;origPos&quot;:null}" fill="#414141" stroke-width="0"/><path d="M347.27677,260.06851l-0.42284,-1.56138l81.28673,-22.01454l0.42285,1.56137z" data-paper-data="{&quot;origPos&quot;:null}" fill="#3f3f3f" stroke-width="0"/><g stroke-width="0"><g data-paper-data="{&quot;origPos&quot;:null}" fill="#5a5a5a"><g data-paper-data="{&quot;origPos&quot;:null}"><path d="M387.32913,242.93566l-3.59438,-13.27188l3.44722,-0.93359l3.59438,13.27188z" data-paper-data="{&quot;origPos&quot;:null}"/></g><g data-paper-data="{&quot;origPos&quot;:null}"><path d="M393.18948,241.34855l-3.59438,-13.27188l3.44723,-0.93359l3.59438,13.27188z" data-paper-data="{&quot;origPos&quot;:null}"/><path d="M399.22212,239.71475l-3.59437,-13.2719l3.44722,-0.93359l3.59438,13.27188z" data-paper-data="{&quot;origPos&quot;:null}"/></g></g><g data-paper-data="{&quot;origPos&quot;:null}" fill="#5a5a5a"><g data-paper-data="{&quot;origPos&quot;:null}"><path d="M405.59954,237.98759l-3.59438,-13.27188l3.44722,-0.93359l3.59438,13.27189z" data-paper-data="{&quot;origPos&quot;:null}"/><path d="M411.6322,236.35377l-3.59438,-13.27188l3.44723,-0.93359l3.59437,13.2719z" data-paper-data="{&quot;origPos&quot;:null}"/></g><g data-paper-data="{&quot;origPos&quot;:null}"><path d="M417.49251,234.76664l-3.59437,-13.2719l3.44722,-0.93359l3.59437,13.2719z" data-paper-data="{&quot;origPos&quot;:null}"/><path d="M423.52519,233.13283l-3.59437,-13.2719l3.44722,-0.93359l3.59438,13.27188z" data-paper-data="{&quot;origPos&quot;:null}"/></g></g><path d="M390.83558,241.98604l-0.34348,2.0936l-5.04783,1.41176l-2.6954,-9.41941l0.92899,-6.39283l3.66093,13.25388z" fill="#3a3a3a"/><path d="M396.69358,240.39952l-0.34348,2.09361l-5.04784,1.41175l-2.69539,-9.41944l0.92901,-6.39282l3.66093,13.25387z" fill="#3a3a3a"/><path d="M402.6846,238.77703l-0.34348,2.09361l-5.04784,1.41176l-2.6954,-9.41941l0.92901,-6.39282l3.66093,13.25388z" fill="#3a3a3a"/><path d="M409.14166,237.02828l-0.34348,2.09361l-5.04784,1.41176l-2.6954,-9.41941l0.92901,-6.39282l3.66093,13.25388z" fill="#3a3a3a"/><path d="M415.19931,235.38771l-0.34348,2.09361l-5.04784,1.41176l-2.6954,-9.41941l0.92901,-6.39282l3.66093,13.25387z" fill="#3a3a3a"/><path d="M420.99064,233.81925l-0.34348,2.0936l-5.04783,1.41176l-2.6954,-9.41941l0.92901,-6.39282l3.66093,13.25388z" fill="#3a3a3a"/><path d="M427.05595,232.1766l-0.34348,2.0936l-5.04784,1.41176l-2.69539,-9.41944l0.92899,-6.39283l3.66093,13.25388z" fill="#3a3a3a"/></g><g stroke-width="0"><g data-paper-data="{&quot;origPos&quot;:null}" fill="#5a5a5a"><g data-paper-data="{&quot;origPos&quot;:null}"><path d="M345.60323,254.23613l-3.59437,-13.2719l3.44723,-0.93359l3.59438,13.27188z" data-paper-data="{&quot;origPos&quot;:null}"/></g><g data-paper-data="{&quot;origPos&quot;:null}"><path d="M351.46354,252.64904l-3.59438,-13.27188l3.44722,-0.93359l3.59438,13.27188z" data-paper-data="{&quot;origPos&quot;:null}"/><path d="M357.49622,251.01523l-3.59438,-13.27188l3.44723,-0.93359l3.59437,13.2719z" data-paper-data="{&quot;origPos&quot;:null}"/></g></g><g data-paper-data="{&quot;origPos&quot;:null}" fill="#5a5a5a"><g data-paper-data="{&quot;origPos&quot;:null}"><path d="M363.87358,249.28802l-3.59437,-13.2719l3.44722,-0.93358l3.59438,13.27188z" data-paper-data="{&quot;origPos&quot;:null}"/><path d="M369.90635,247.65421l-3.59438,-13.27188l3.44723,-0.93359l3.59437,13.2719z" data-paper-data="{&quot;origPos&quot;:null}"/></g><g data-paper-data="{&quot;origPos&quot;:null}"><path d="M375.76667,246.06709l-3.59438,-13.27188l3.44723,-0.93359l3.59437,13.2719z" data-paper-data="{&quot;origPos&quot;:null}"/><path d="M381.79935,244.4333l-3.59437,-13.2719l3.44723,-0.93359l3.59438,13.27189z" data-paper-data="{&quot;origPos&quot;:null}"/></g></g><path d="M349.10965,253.28651l-0.34348,2.09361l-2.6236,0.75517l-0.52967,-1.9018z" fill="#3a3a3a"/><path d="M354.96763,251.70002l-0.34348,2.09361l-5.04784,1.41176l-2.69539,-9.41944l0.92901,-6.39282l3.66093,13.25388z" fill="#3a3a3a"/><path d="M360.95865,250.07745l-0.34348,2.0936l-5.04784,1.41176l-2.6954,-9.41941l0.92899,-6.39283l3.66093,13.25388z" fill="#3a3a3a"/><path d="M367.41566,248.32871l-0.34348,2.0936l-5.04784,1.41176l-2.69539,-9.41944l0.92901,-6.39282l3.66093,13.25388z" fill="#3a3a3a"/><path d="M373.47341,246.68817l-0.34348,2.0936l-5.04783,1.41176l-2.6954,-9.41941l0.92901,-6.39282l3.66093,13.25388z" fill="#3a3a3a"/><path d="M379.26477,245.1197l-0.34348,2.0936l-5.04783,1.41176l-2.6954,-9.41941l0.92899,-6.39283l3.66093,13.25388z" fill="#3a3a3a"/><path d="M385.33009,243.47712l-0.34348,2.09361l-5.04783,1.41176l-2.6954,-9.41941l0.92901,-6.39282l3.66093,13.25388z" fill="#3a3a3a"/></g><g><g data-paper-data="{&quot;origPos&quot;:null}"><g data-paper-data="{&quot;origPos&quot;:null}" fill="none" stroke-width="1" font-family="sans-serif" font-weight="normal" font-size="12" text-anchor="start"/><g data-paper-data="{&quot;origPos&quot;:null}" fill="#4b4b4b" stroke-width="0"><path d="M354.00694,260.61754l-0.59413,-2.19372l3.61959,-0.9803l0.59413,2.19371z" data-paper-data="{&quot;origPos&quot;:null}"/><path d="M347.94456,262.14168l-0.59413,-2.19372l3.61959,-0.9803l0.59413,2.19372z" data-paper-data="{&quot;origPos&quot;:null}"/></g></g><g data-paper-data="{&quot;origPos&quot;:null,&quot;index&quot;:null}" fill="#4b4b4b" stroke-width="0"><g data-paper-data="{&quot;origPos&quot;:null}"><path d="M372.48436,255.37788l-0.59412,-2.19371l3.6196,-0.9803l0.59412,2.19371z" data-paper-data="{&quot;origPos&quot;:null}"/><path d="M378.48728,253.63439l-0.59412,-2.1937l3.6196,-0.9803l0.59412,2.19371z" data-paper-data="{&quot;origPos&quot;:null}"/></g><g data-paper-data="{&quot;origPos&quot;:null}"><path d="M360.4486,258.75524l-0.59413,-2.19372l3.6196,-0.9803l0.59412,2.19371z" data-paper-data="{&quot;origPos&quot;:null}"/><path d="M366.4516,257.01168l-0.59413,-2.19372l3.6196,-0.9803l0.59413,2.19372z" data-paper-data="{&quot;origPos&quot;:null}"/></g></g></g></g><path d="M173.43521,270.4959l-0.09835,-4.34032c0,0 3.62791,-4.24341 6.99709,-5.31126c3.85161,-1.22077 32.78496,-9.0308 32.78496,-9.0308c0,0 1.12931,1.63745 1.39643,2.82616c0.34414,1.53152 -0.89726,5.04274 -0.89726,5.04274z" fill="#242424" stroke-width="0"/><path d="M196.45972,260.31297l-0.82351,-3.04076l17.37583,-4.70585l0.82351,3.04076z" fill="#313131" stroke-width="0"/><path d="M193.78518,263.03751l-0.1705,-0.62958c0,0 0.75593,-1.29377 1.74347,-1.56121c0.93773,-0.25395 3.17377,-0.3675 5.58312,-0.85079c4.58977,-0.92061 10.04906,-2.29378 10.04906,-2.29378l0.1705,0.62958c0,0 -5.24003,1.41704 -9.76682,2.32113c-2.46999,0.4933 -4.80806,0.53707 -5.7808,0.80051c-1.02245,0.27692 -1.828,1.58409 -1.828,1.58409z" fill="#616161" stroke-width="0"/><path d="M215.86788,240.78003l13.04307,-0.39674l31.16534,-2.94106c0,0 0.76628,0.02477 -7.2411,1.43885c-2.72398,0.48109 -13.41301,1.70893 -22.81254,2.2832c-2.54339,0.15539 -16.31329,0.31985 -16.31329,0.31985z" fill="#df8cb7" stroke-width="0"/><path d="M42.73362,294.23377l-1.55096,-5.72681c0,0 5.11125,-3.20036 8.78276,-4.19469c3.00576,-0.81407 12.10978,0.35261 12.10978,0.35261l3.07754,11.87932z" fill="#626061" stroke-width="0"/><path d="M157.36796,273.53334l4.31937,1.42651l11.47539,-4.47868l48.98046,-13.26514l0.28523,1.05308c0,0 -36.78053,9.81066 -48.20155,13.17539c-3.13561,0.92381 -12.3093,4.15507 -12.3093,4.15507z" fill="#ffa6d4" stroke-width="0"/><path d="M56.66339,356.69466l-1.87416,-6.92031l18.26576,-22.17617l2.0218,13.61374l-10.74091,13.40481z" fill="#3f3d3e" stroke-width="0"/><path d="M53.76718,352.23653c0,0 -4.95609,-19.01754 -6.6836,-28.47828c-1.94977,-10.67787 -4.42909,-32.38052 -4.42909,-32.38052c0,0 8.2655,-2.4347 12.15325,-1.78249c3.32737,0.5582 9.75479,5.45775 9.75479,5.45775l8.77067,32.38488c0,0 -7.86371,16.32127 -10.21216,19.29781c-3.61233,4.57842 -9.35385,5.50079 -9.35385,5.50079z" fill="#555354" stroke-width="0"/><path d="M45.27949,301.64709c0,0 -3.0532,-5.3819 -1.764,-8.52545c1.28923,-3.14351 5.22173,-5.26211 7.69297,-5.93142c1.97141,-0.53391 6.07169,-1.56283 10.01063,1.98956c3.93898,3.55232 3.82972,10.49226 3.82972,10.49226c0,0 -8.80033,-8.3951 -11.37906,-8.1375c-3.63881,0.36354 -8.3903,10.11255 -8.3903,10.11255z" fill="#6f6b6c" stroke-width="0"/><path d="M53.63822,357.31883c0,0 -5.15805,-25.60449 -8.14956,-36.6504c-3.11539,-11.50341 -8.73823,-31.44536 -8.73823,-31.44536c0,0 0.94792,-0.92285 1.95255,-1.19493c0.91859,-0.24879 2.59908,-0.03777 2.59908,-0.03777c0,0 4.80045,18.54526 7.5962,28.86814c3.24809,11.99344 8.05041,39.56367 8.05041,39.56367z" fill="#333232" stroke-width="0"/><path d="M53.33839,357.85965l-2.78872,-14.48285c0,0 1.25087,0.58215 1.81934,0.38815c0.71782,-0.24497 1.96072,-2.07093 1.96072,-2.07093l2.83977,15.12805z" fill="#2e2d2d" stroke-width="0"/><path d="M68.72611,316.12617c2.13428,7.88073 0.4194,17.32537 -3.02882,21.29213c-2.86386,3.29452 -8.33517,11.77761 -10.46948,3.89689c-0.45278,-1.67184 -1.58515,-13.67246 -3.29882,-20.49146c-2.26633,-9.01795 -5.15687,-13.39545 -4.9726,-16.37901c0.3333,-5.39475 5.27777,-8.2666 7.41529,-8.8455c4.21348,-1.14111 12.22018,12.64622 14.35448,20.52691z" fill="#585758" stroke-width="0"/><path d="M105.67099,320.71089l-1.02702,-1.52531c0,0 7.3106,-3.37909 12.99278,-5.41957c7.99918,-2.87254 30.47528,-10.18981 30.47528,-10.18981l2.06843,0.76719c0,0 -23.81391,8.12819 -32.02389,11.14725c-2.41115,0.88668 -12.48553,5.22027 -12.48553,5.22027z" fill="#585657" stroke-width="0"/><path d="M103.43619,334.9922l1.43026,-14.57195l6.74194,-2.81083c0,0 -0.55006,4.61787 -0.26939,5.32421c1.34122,3.37508 10.49912,25.72529 10.49912,25.72529c0,0 -1.31095,0.81132 -2.94926,-0.68808c-2.93963,-2.69037 -6.50508,-8.834 -8.7459,-10.40553c-1.93606,-1.35777 -6.70681,-2.57312 -6.70681,-2.57312z" fill="#5a5759" stroke-width="0"/><path d="M107.47749,301.98395l-0.17415,-11.6944l2.22315,-0.71721l-0.84019,12.19941z" fill="#a5a0a2" stroke-width="0"/><path d="M113.74788,299.16324l-0.36668,-1.35396l25.57492,-6.92637l0.36669,1.35396z" fill="#494748" stroke-width="0"/><path d="M112.89333,296.31635l-0.36668,-1.35396l25.57492,-6.92637l0.36668,1.35396z" fill="#494748" stroke-width="0"/><path d="M99.99323,323.02495l-5.26432,-19.43809l9.30772,-12.48346l4.59465,-1.56732l-4.51801,45.57945l-5.93981,-0.4669z" fill="#dbd5d8" stroke-width="0"/><path d="M77.5306,341.45208l-3.23465,-11.33958l25.52128,-7.72978c0,0 0.98219,2.36317 1.06525,3.16795c0.20713,2.0061 0.08322,9.22737 0.08322,9.22737z" fill="#ccc6c9" stroke-width="0"/><path d="M78.21114,329.46703l-0.08254,-0.30482l21.79657,-6.80282l-2.20524,1.8242c0,0 -4.12269,1.30944 -6.74552,1.98689c-3.59135,0.9276 -12.76332,3.29661 -12.76332,3.29661z" fill="#d8d1d5" stroke-width="0"/><path d="M80.62752,324.94118l-4.44393,-16.40885l15.5643,-4.21522l4.44393,16.40885z" fill="#a39999" stroke-width="0"/><path d="M77.30804,341.68821l-2.96941,-10.96434c0,0 10.19914,3.85456 14.94858,4.99318c4.74947,1.13864 10.95142,-0.83112 10.95142,-0.83112z" fill="#b4afb1" stroke-width="0"/><path d="M111.36103,338.72613c0,0 3.1961,0.21238 4.21655,-0.21289c0.62685,-0.26127 1.32369,-2.09615 1.32369,-2.09615l3.97265,8.32416l1.09664,4.04926c0,0 -1.79407,0.80851 -3.7038,-1.34991c-1.57564,-1.78087 -6.90581,-8.71442 -6.90581,-8.71442z" fill="#504e4f" stroke-width="0"/><path d="M103.87551,335.44957l3.04657,-44.07243l1.73661,-0.25778l-2.84033,44.44162z" fill="#858183" stroke-width="0"/><path d="M76.97072,300.51185l1.03061,-1.9891c0,0 26.29401,-7.78818 38.27275,-11.03234c10.39676,-2.81569 30.92643,-8.00993 30.92643,-8.00993l1.01857,1.73547c0,0 -20.74132,4.88587 -31.70011,7.85383c-12.51359,3.38904 -39.54829,11.44212 -39.54829,11.44212z" fill="#918b8e" stroke-width="0"/><path d="M77.63186,299.05774l1.44602,-2.40297c0,0 24.89588,-7.10817 36.87461,-10.35232c10.39676,-2.81568 30.92643,-8.00993 30.92643,-8.00993l1.01857,1.73548c0,0 -20.74131,4.88585 -31.70012,7.85382c-12.51359,3.38904 -38.56553,11.1759 -38.56553,11.1759z" fill="#a59fa2" stroke-width="0"/><path d="M145.42761,302.23177l-3.34407,-4.98166c0,0 -0.11071,-1.21844 0.18117,-1.41439c0.25716,-0.17266 1.47932,0.29969 1.47932,0.29969l3.34406,4.98167c0,0 -0.03714,0.91929 -0.2949,1.09231c-0.2916,0.19575 -1.36565,0.02235 -1.36565,0.02235z" fill="#494242" stroke-width="0"/><path d="M107.24582,315.31642l0.94003,-10.08197l3.75061,-1.01577l-0.94003,10.08197z" fill="#9c989a" stroke-width="0"/><path d="M111.83357,295.65743l1.53333,-1.41809l23.59376,-6.37112l2.1962,0.38934z" fill="#757274" stroke-width="0"/><path d="M112.6595,298.34626l1.53332,-1.4181l23.59376,-6.3711l2.19621,0.38933z" fill="#757274" stroke-width="0"/><path d="M74.71458,341.37219l-13.55533,-56.58168l2.00532,0.05855l14.18675,56.82628z" fill="#686666" stroke-width="0"/><path d="M74.62756,341.6758l-3.61755,-15.86162l3.20958,3.08677l3.05818,12.96133z" fill="#535252" stroke-width="0"/><path d="M98.32472,311.55926c0,0 1.43708,-2.81913 1.18956,-3.73304c-0.24288,-0.8968 -2.66098,-1.69997 -2.66098,-1.69997c0,0 3.07272,-0.13837 3.41348,1.51849c0.25955,1.26201 -0.18226,3.64955 0.02156,4.73644c0.57953,3.0904 1.83556,10.36232 1.83556,10.36232z" fill="#c4bec1" stroke-width="0"/><path d="M105.23404,307.70751l-0.82004,-10.34064l1.32197,-4.86915l-0.06412,9.91991z" fill="#aca7a9" stroke-width="0"/></g></g><g stroke-width="0"><path d="M211.91259,249.98315l1.59582,-3.88133c0,0 1.3691,-1.85881 2.2373,-1.80908c0.98985,0.05675 3.38469,2.13143 3.38469,2.13143l0.54392,4.08169c0,0 -4.13435,1.11186 -5.39144,1.31424c-0.56673,0.09122 -2.37029,-1.83692 -2.37029,-1.83692z" fill="#c0c0c0"/><path d="M173.00898,270.51806c0,0 -0.92318,-2.73371 -0.19857,-4.10984c0.90809,-1.72457 6.19829,-5.4492 6.19829,-5.4492l0.55245,4.75813l0.76363,2.81967z" fill="#838383"/><path d="M172.82335,270.49131l5.86723,-9.33981l36.25624,-9.81912l1.95566,7.22116z" fill="#999999"/><path d="M173.61603,269.59655l4.4186,-7.24823l32.59796,-8.82835l1.52695,5.638c0,0 -3.94543,1.06856 -9.0208,2.44309c-3.29983,0.89363 -7.35485,0.89162 -10.83609,1.83442c-3.73452,1.01142 -6.85061,2.95558 -8.94823,3.5237c-4.10528,1.1118 -9.73839,2.6374 -9.73839,2.6374z" fill="#d952b3"/><path d="M176.98623,268.68154l6.53473,-7.88568l12.03071,-3.25826c0,0 -6.62103,3.76923 -8.66959,5.27151c-2.17486,1.59486 -4.72365,4.47163 -4.72365,4.47163z" fill="#a5899d"/><path d="M184.66812,266.48429c0,0 4.65419,-2.26762 7.02586,-2.9099c3.03039,-0.8207 9.66954,-1.61162 9.66954,-1.61162l-9.40598,2.20011z" fill="#adadad"/><path d="M172.91953,270.4464l5.30023,-8.4303l33.75082,-9.14058l0.18001,0.66465c0,0 -29.22405,7.91461 -33.0334,8.94626c-0.79677,0.21578 -6.19756,7.95995 -6.19756,7.95995z" fill="#8a8a8a"/><path d="M220.07686,264.13548l-2.55008,-9.41611l-1.2545,-7.1216c0,0 1.26873,0.1432 1.95066,0.54235c0.68196,0.39908 1.34688,1.38749 1.34688,1.38749l2.45009,14.08172z" fill="#9e9e9e"/><path d="M213.70887,261.47693c0,0 -1.43554,-1.81267 -1.9829,-3.31081c-0.73708,-2.01741 -1.35379,-7.56738 -1.35379,-7.56738l1.78884,-0.82156c0,0 0.93946,0.56587 1.36173,0.29701c0.58219,-0.37072 1.80839,-2.31561 1.80839,-2.31561l2.86537,12.50301z" fill="#9c9c9c"/><path d="M214.74139,263.09388c-1.04387,-0.8615 -1.17078,-2.24976 -1.17078,-2.24976l2.82586,-8.22508c0,0 2.36044,3.38439 2.6,4.26901c0.68114,2.51494 2.89422,6.83637 2.89422,6.83637c0,0 -2.8546,0.85984 -3.97197,0.70805c-1.34018,-0.18208 -2.13334,-0.47715 -3.17729,-1.33868z" fill="#888888"/><path d="M216.2578,261.8811c-1.47664,-1.67184 -3.61868,-5.71557 -2.90197,-10.12297c0.71675,-4.40743 3.60421,-2.98147 3.60421,-2.98147c0,0 2.12772,4.00609 2.73232,6.23853c0.55077,2.03358 0.74885,6.61526 0.74885,6.61526c0,0 -2.70675,1.9225 -4.18337,0.25065z" fill="#b4b4b4"/><path d="M218.26325,253.36544c0.36888,1.362 -4.54317,2.77248 -4.91205,1.41053c-0.36888,-1.362 1.17133,-7.37596 1.95551,-7.58827c0.30368,-0.08223 0.95176,-0.15225 1.41873,0.82021c0.73868,1.53846 1.31176,4.52309 1.53778,5.35758z" fill="#bbbbbb"/></g><g stroke-width="0"><path d="M157.271,273.5439c0,0 -6.93832,-3.21539 -7.42808,-5.02364c-0.39987,-1.47647 5.39427,-3.17321 5.39427,-3.17321l7.30164,-1.90306l-1.06649,11.4561z" fill="#f399c8"/><path d="M128.23546,283.10827c0,0 -1.48473,-1.77132 -1.51686,-2.87398c-0.03544,-1.21687 1.01088,-5.23501 1.01088,-5.23501l22.18856,-6.20155l11.06302,5.93767z" fill="#ee96c3"/></g></g><g stroke-width="0"><g><path d="M215.24714,239.10741l-1.61601,-5.96681l46.15545,-12.50011l1.61601,5.96681z" fill="#61585b"/><path d="M214.24168,236.01933l-0.86535,-3.19527l46.33094,-12.54759l0.86536,3.19526c0,0 -8.34042,2.25879 -16.90813,4.57915c-2.67877,0.7255 -6.0482,3.20989 -8.52346,3.88022c-2.94336,0.7971 -6.49668,0.18758 -8.38467,0.69887c-5.66135,1.53323 -12.51467,3.38924 -12.51467,3.38924z" fill="#494344"/><path d="M272.1925,213.48159l-13.95804,-15.8348l20.19184,-5.46846l19.27704,12.15787c0,0 -5.15571,2.80672 -8.20787,3.9009c-4.70975,1.68839 -17.30298,5.24452 -17.30298,5.24452z" fill="#5e555b"/><path d="M273.09252,216.79668l-1.44779,-5.3459c0,0 11.49097,-4.61753 16.00921,-6.6489c3.58577,-1.61214 6.14175,-2.90737 6.14175,-2.90737l7.54673,5.14488c0,0 -4.72974,2.93458 -8.61731,4.44736c-5.2675,2.04974 -19.63247,5.30992 -19.63247,5.30992z" fill="url(#color-5)"/><path d="M256.64006,198.24314l-1.04464,-3.85719l18.48558,-5.00634l4.55457,2.90662z" fill="url(#color-6)"/><path d="M272.53553,216.97337l-0.32914,-1.21549c0,0 15.04696,-4.15428 20.20236,-5.72403c3.85495,-1.1738 7.70952,-3.85138 7.70952,-3.85138l1.15724,0.87258l-7.3977,4.13823z" fill="#312c30"/><g><path d="M172.2575,233.14871l-2.53421,-8.49115l90.65935,-24.55289l10.32404,8.89224z" fill="#8a6672"/><path d="M190.38762,236.82278c0,0 -4.33972,-2.56041 -7.42897,-3.23794c-3.08925,-0.6776 -9.84288,1.39743 -9.84288,1.39743l-0.43732,-2.04382c0,0 11.96704,-2.95463 18.77684,-4.7002c16.26767,-4.17008 78.40717,-20.21203 78.40717,-20.21203l5.21386,5.39152z" fill="#755761"/><path d="M193.78818,238.48246l-3.59774,-1.71079l84.41287,-23.3682l1.96899,2.65885z" fill="#694e57"/><path d="M169.66776,225.08302l-1.18393,-4.37153l87.47108,-24.39326l5.1957,4.45804c0,0 3.53195,2.50175 -1.57711,3.8592c-1.60836,0.42733 -11.29264,-0.43974 -12.90502,-0.01132c-15.52819,4.12579 -77.00077,20.45883 -77.00077,20.45883z" fill="#916b77"/><path d="M168.71737,220.64838l-0.77465,-2.40567l86.74625,-23.63684l1.6342,2.03588z" fill="#9e7582"/><path d="M240.44447,201.93135c-7.95666,1.48362 -70.64187,17.39086 -70.64187,17.39086l84.79918,-22.96583l6.57904,5.92748c0,0 -12.77969,-1.83611 -20.73639,-0.35253z" fill="#b38f9a"/></g><path d="M223.5858,230.40956l-2.39807,-8.8548l19.50938,-5.28365l2.39808,8.85482z" fill="#3a3336"/><path d="M221.10403,221.58174l0.29357,-1.65688l17.8938,-4.84612l1.34891,1.212z" fill="#4b4246"/><path d="M223.59055,229.89096l-2.1377,-7.89328c0,0 2.39885,4.80588 5.25351,5.17887c2.85472,0.37301 15.84835,-2.42166 15.84835,-2.42166z" fill="#332c30"/><path d="M258.43353,200.06132l-5.35211,-4.76665c0,0 0.8131,-0.91092 1.39283,-1.06789c0.64811,-0.17548 2.3136,0.0641 2.3136,0.0641l5.35211,4.76665z" fill="#757575"/><path d="M262.58653,203.84174l-7.68969,-6.83995l3.70646,-1.00382l7.68968,6.83995z" fill="#5a5a5a"/><path d="M268.36967,208.95682l-7.68968,-6.83995l3.70645,-1.0038l7.68969,6.83995z" fill="#505050"/><path d="M274.35225,214.25694c-1.31338,-1.16824 -6.43797,-5.72659 -6.43797,-5.72659l3.70645,-1.00379l9.08334,8.2385c0,0 -1.84433,1.05427 -2.76467,1.28818c-0.71792,0.18246 -3.00802,-2.28125 -3.58713,-2.7964z" fill="#3b3b3b"/><path d="M171.44815,236.05965l-4.88171,-18.02538l3.07038,-0.83152l4.88171,18.02538z" fill="#443e42"/><path d="M153.64639,242.53742l-2.21154,-5.5426l19.52517,-5.28795l1.54965,5.72188z" fill="url(#color-7)"/><path d="M151.59972,237.60347l-2.83549,-10.46983l19.52517,-5.28795l2.83549,10.46984z" fill="#5e555b"/><path d="M148.79722,227.25556l-0.31584,-4.22662l18.75296,-5.07883l1.08804,4.01746z" fill="url(#color-8)"/><path d="M215.61689,205.05128l-1.6033,-5.92004l14.7787,-2.8974l5.69302,3.33899z" fill="#5e555b"/><path d="M234.57824,199.91608l-5.76276,-3.59638c0,0 3.09182,-0.12188 5.50357,0.25921c2.41173,0.38109 6.52242,1.64092 6.52242,1.64092z" fill="#776b73"/><path d="M213.00174,206.95666l2.76345,-2.03768l24.64017,-6.94948l3.91274,0.50592z" fill="#6d6269"/></g><g><path d="M223.9442,226.19937c-0.32645,-1.20541 -0.13627,-2.4553 -0.03028,-3.55066c0.14762,-1.52635 0.41871,-2.83036 1.44625,-3.98527c0.62766,-0.7055 1.62361,-1.37861 2.5153,-1.86916c0.5898,-0.32443 1.44962,-0.9718 2.12821,-1.15557c1.53828,-0.41662 1.89007,-0.42716 3.12947,-0.24894c0.74663,0.10737 2.44645,0.11225 3.13853,0.62121c0.58577,0.4307 1.29295,1.22192 1.80044,1.78855c0.86724,0.96842 2.12919,2.55835 2.49222,3.89867c0.15341,0.56643 0.02842,1.98695 0.11522,2.49749c0.27564,1.62077 0.4081,2.11285 -0.47472,3.49517c-0.53659,0.84016 -1.84821,1.76296 -2.69064,2.41582c-0.87241,0.67617 -1.8775,1.84562 -3.00939,2.15216c-0.76402,0.2069 -2.28226,0.06386 -3.05797,0.13281c-1.68298,0.14966 -2.58961,0.21451 -3.88138,-0.61695c-1.10772,-0.71297 -1.77711,-2.18756 -2.48358,-3.40279c-0.3711,-0.6384 -0.9355,-1.42593 -1.13776,-2.17266z" fill="#3a3a3a"/><path d="M224.61881,225.89376c-0.29874,-1.1031 -0.12462,-2.24685 -0.02771,-3.24918c0.13511,-1.39673 0.38311,-2.59001 1.32345,-3.64692c0.57435,-0.64559 1.48579,-1.2616 2.30176,-1.71044c0.53973,-0.29689 1.32657,-0.88927 1.94747,-1.05741c1.40771,-0.38124 1.7296,-0.39093 2.86377,-0.22787c0.6832,0.09826 2.23872,0.10276 2.87204,0.56842c0.53603,0.39419 1.18323,1.11816 1.64756,1.63673c0.79362,0.88621 1.9484,2.34116 2.2806,3.56766c0.14035,0.51837 0.026,1.81825 0.10546,2.28543c0.2522,1.48315 0.37344,1.93345 -0.4344,3.19837c-0.49101,0.76883 -1.6913,1.61324 -2.46216,2.21071c-0.79835,0.61875 -1.71808,1.68893 -2.75387,1.96945c-0.69909,0.18936 -2.08846,0.05843 -2.79835,0.12158c-1.54009,0.13696 -2.36977,0.19628 -3.55187,-0.56452c-1.01367,-0.65244 -1.6262,-2.00189 -2.27267,-3.11387c-0.3396,-0.58421 -0.85607,-1.30484 -1.04111,-1.98815z" fill="#5a5a5a"/><path d="M235.20282,218.33482c-2.59751,-1.76823 -7.56632,-0.63039 -7.56632,-0.63039c0,0 1.73357,-1.02895 3.65637,-1.54252c1.5575,-0.41599 3.1705,-0.47523 4.62978,0.47739c1.46051,0.95342 2.22882,2.28355 2.87045,3.55552c1.258,2.49383 1.46086,4.91795 1.46086,4.91795c0,0 -2.45364,-5.00964 -5.05115,-6.77789z" fill="#6d6d6d"/><path d="M231.37314,224.57164c-0.15055,-0.5557 0.17796,-1.12816 0.73366,-1.27867c0.5557,-0.15055 1.12816,0.17796 1.27868,0.73367c0.15055,0.5557 -0.17796,1.12816 -0.73367,1.27867c-0.5557,0.15055 -1.12816,-0.17796 -1.27867,-0.73367z" fill="#272727"/><path d="M231.33259,224.72439c-0.13803,-0.50968 0.16323,-1.03474 0.6729,-1.17278c0.50968,-0.13803 1.03474,0.16323 1.17278,0.6729c0.13803,0.50968 -0.16323,1.03474 -0.67289,1.17278c-0.50968,0.13803 -1.03474,-0.16323 -1.17278,-0.67289z" fill="#131313"/></g></g></g></g></g><path d="M174.28091,354.02212c-0.41427,-1.52956 -15.66747,-41.56016 -15.62723,-43.30659c0.05429,-2.35796 8.59363,-3.27138 11.06056,-5.50156c7.55539,-6.83041 15.82806,-13.82327 15.82806,-13.82327c0,0 13.73089,-3.11731 17.82009,-4.22473c3.058,-0.82815 60.0252,-25.05255 63.43896,-15.2837c4.63037,13.25026 -40.44711,13.31788 -37.27611,25.02671c0.80276,2.96415 3.17978,2.5229 3.45647,5.70858c0.06637,0.76456 -0.84977,6.37815 -0.62815,8.05455c0.35173,2.66114 4.57862,5.66311 2.19374,9.51987c-1.90108,3.07443 1.27511,7.41183 0.97637,8.75212c-2.05898,9.23633 -11.09274,7.74146 -19.79221,10.0975c-10.31451,2.79343 -24.35052,10.45224 -33.73131,11.71088c-4.04932,0.54328 -6.51339,7.7219 -7.7192,3.26955z" fill="#86c8f5" stroke-width="0"/></g></g></svg>