<svg version="1.1" xmlns="http://www.w3.org/2000/svg" xmlns:xlink="http://www.w3.org/1999/xlink" width="470.07222" height="172.59851" viewBox="0,0,470.07222,172.59851"><defs><linearGradient x1="530.93816" y1="193.35046" x2="530.50658" y2="198.14266" gradientUnits="userSpaceOnUse" id="color-1"><stop offset="0" stop-color="#1f1d20"/><stop offset="1" stop-color="#202022"/></linearGradient><linearGradient x1="531.81145" y1="188.55439" x2="531.31486" y2="194.06827" gradientUnits="userSpaceOnUse" id="color-2"><stop offset="0" stop-color="#302d31"/><stop offset="1" stop-color="#1f1e20"/></linearGradient><linearGradient x1="194.06468" y1="206.40082" x2="193.76057" y2="209.77719" gradientUnits="userSpaceOnUse" id="color-3"><stop offset="0" stop-color="#585758"/><stop offset="1" stop-color="#575758"/></linearGradient><linearGradient x1="180.1003" y1="215.26246" x2="179.86157" y2="217.91309" gradientUnits="userSpaceOnUse" id="color-4"><stop offset="0" stop-color="#363536"/><stop offset="1" stop-color="#353536"/></linearGradient><linearGradient x1="331.21306" y1="135.6948" x2="330.71627" y2="141.21095" gradientUnits="userSpaceOnUse" id="color-5"><stop offset="0" stop-color="#5e555b"/><stop offset="1" stop-color="#2b2629"/></linearGradient><linearGradient x1="323.34864" y1="114.23591" x2="322.99017" y2="118.21596" gradientUnits="userSpaceOnUse" id="color-6"><stop offset="0" stop-color="#72676e"/><stop offset="1" stop-color="#5e555b"/></linearGradient><linearGradient x1="209.60053" y1="117.94657" x2="209.06878" y2="123.85071" gradientUnits="userSpaceOnUse" id="color-7"><stop offset="0" stop-color="#5e555b"/><stop offset="1" stop-color="#4d454a"/></linearGradient><linearGradient x1="210.87896" y1="103.75173" x2="210.50561" y2="107.8972" gradientUnits="userSpaceOnUse" id="color-8"><stop offset="0" stop-color="#74686f"/><stop offset="1" stop-color="#5e555b"/></linearGradient></defs><g transform="translate(-65.59117,-102.91629)"><g data-paper-data="{&quot;isPaintingLayer&quot;:true}" fill-rule="nonzero" stroke="none" stroke-linecap="butt" stroke-linejoin="miter" stroke-miterlimit="10" stroke-dasharray="" stroke-dashoffset="0" style="mix-blend-mode: normal"><path d="M140.50344,221.35725c1.66069,-3.83551 5.71163,-15.55013 8.72953,-23.80918c3.01789,-8.25903 12.39052,-16.62779 15.74516,-13.84028c3.35463,2.78751 1.93966,1.26027 2.82514,9.20166c0.36954,3.31424 -2.11152,7.06998 -4.51677,10.26612c-3.0896,4.10553 -5.57409,10.92931 -4.67881,11.54129c0.79052,0.54037 2.48613,5.94041 3.3398,6.15734c9.54468,2.42538 19.22517,0.66327 24.54689,2.96747c6.94137,3.00548 2.77478,13.47293 3.36549,20.09453c0.32093,3.59749 0.29609,6.86301 1.35336,10.14189c1.01068,3.13437 -2.93324,8.53412 -4.49414,12.13912c-6.19923,14.31758 -24.89628,9.37886 -39.21387,3.17963c-3.86013,-1.67136 -6.30152,6.1063 -9.19604,2.02267c-5.94318,-8.38475 -10.27097,-31.43012 -8.0134,-41.34345c0.72109,-3.16647 9.1115,-6.18718 10.20765,-8.71881z" fill="#86c8f5" stroke-width="0"/><g><g stroke-width="0"><path d="M256.54965,196.97616l-8.81249,-16.20106l25.52529,1.70629c0,0 -1.61687,5.7068 -2.05803,8.37651c-0.42672,2.58251 -0.54701,7.38883 -0.54701,7.38883z" fill="#7f7d7e"/><path d="M256.62998,197.18096l-3.12199,-5.91079c0,0 2.03017,3.7523 5.19812,4.65481c2.28122,0.64988 4.18757,0.51037 6.82945,1.0704c2.64186,0.56002 5.00624,1.43852 5.00624,1.43852z" fill="#6c6a6b"/></g><g><g><g><path d="M527.52753,197.87437l-1.61908,-4.97689c0,0 5.81861,2.1886 8.32544,3.31085c2.50682,1.12225 0.87263,2.11579 0.87263,2.11579z" fill="url(#color-1)" stroke-width="0"/><path d="M535.36366,189.07474c0,0 1.26486,2.45114 -1.40211,3.10743c-2.66698,0.6563 -5.66804,1.61401 -5.66804,1.61401l-0.47014,-5.60098z" data-paper-data="{&quot;index&quot;:null}" fill="url(#color-2)" stroke-width="0"/><path d="M517.94882,197.00708l0.18823,-2.0899l14.71299,1.32509c0,0 1.18127,0.9039 1.63426,1.31245c0.40721,0.36726 -0.81636,0.86808 -0.81636,0.86808z" fill="#444444" stroke-width="NaN"/><path d="M518.15775,195.06305l-1.02854,-1.85363l12.56481,1.1316l3.23304,1.9399c0,0 -4.22222,-0.14129 -6.51929,-0.33072c-2.59063,-0.21363 -8.25003,-0.8872 -8.25003,-0.8872z" fill="#535353" stroke-width="0"/><path d="M517.00526,193.33553l-0.26604,-0.66655l11.42752,1.02918l1.63154,0.67477z" fill="#363636" stroke-width="0"/><path d="M517.94882,197.00708l0.10211,-1.13377c0,0 6.3869,1.03066 9.25508,1.28897c2.43053,0.2189 6.85943,0.16235 6.85943,0.16235c0,0 0.81918,0.53788 1.04731,0.76213c0.19245,0.18918 -0.29013,0.44904 -0.29013,0.44904c0,0 -4.74996,-0.02169 -7.05437,-0.22921c-3.10896,-0.28 -9.91942,-1.29951 -9.91942,-1.29951z" fill="#3a3a3a" stroke-width="NaN"/><path d="M517.05723,192.71596l-0.47202,-0.9298l13.58664,1.22365l-1.89658,0.75054z" fill="#242424" stroke-width="0"/><path d="M515.76343,191.90213l0.14839,-1.64764c0,0 8.07921,0.52059 11.06289,0.78933c2.03279,0.18309 5.10817,0.66709 5.10817,0.66709l-1.93994,1.32066z" fill="#3a3a3a" stroke-width="0"/><path d="M515.77897,190.28526l0.18322,-2.03432c0,0 7.65203,0.35792 10.95293,0.65522c2.85643,0.25726 7.71261,1.02586 7.71261,1.02586l-2.59166,1.81741c0,0 -3.63279,-0.40997 -5.86815,-0.61131c-2.97135,-0.2676 -10.38894,-0.85286 -10.38894,-0.85286z" fill="#444444" stroke-width="0"/><path d="M515.91157,188.3318l0.07635,-0.84763c0,0 7.85318,0.58307 11.4359,0.90574c2.49471,0.22467 8.00377,0.84503 8.00377,0.84503l-0.93789,0.77004c0,0 -5.00771,-0.74085 -7.96099,-1.00681c-3.25374,-0.29305 -10.61715,-0.66636 -10.61715,-0.66636z" fill="#535353" stroke-width="0"/><path d="M515.85125,187.55732l0.03055,-0.33907c0,0 7.69085,0.18356 11.13727,0.49395c2.97972,0.26837 8.34543,1.26069 8.34543,1.26069l0.0069,0.34243c0,0 -5.96987,-0.70327 -9.20181,-0.99436c-3.27419,-0.29489 -10.31827,-0.76367 -10.31827,-0.76367z" fill="#4e4e4e" stroke-width="0"/></g><g stroke-width="0"><g><g><g><path d="M512.16244,195.99595l-3.38256,-13.52156l0.70518,-1.66481c0,0 3.17113,3.52789 3.86642,6.09096c0.37745,1.39148 0.25966,9.22587 0.25966,9.22587z" fill="#383638"/><path d="M513.27138,195.40162c0,0 0.11283,-0.60199 -0.29306,-3.10338c-0.44263,-2.72785 -1.50324,-6.47514 -1.79845,-7.58005c-0.6627,-2.48015 -1.40285,-2.67783 -1.40285,-2.67783l4.83283,-0.1489l3.73194,13.96682z" fill="#555355"/><path d="M509.83309,182.13114l-0.46856,-1.28358c0,0 2.0838,-0.61558 3.04155,-0.52931c0.89746,0.08082 1.96292,0.90701 1.96292,0.90701l0.46204,1.356z" fill="#686668"/></g><path d="M506.5126,195.48711l-3.38256,-13.52155l0.37389,-1.67442c0,0 3.50245,3.53748 4.1977,6.10054c0.37745,1.39147 0.25967,9.22586 0.25967,9.22586z" fill="#383638"/><path d="M507.62152,194.89276c0,0 0.11283,-0.602 -0.29305,-3.10338c-0.44263,-2.72785 -1.50324,-6.47514 -1.79845,-7.58005c-0.6627,-2.48015 -1.40285,-2.67783 -1.40285,-2.67783l4.13071,-0.71417c0,0 0.90946,1.34124 1.11146,2.09717c0.57549,2.15377 3.32261,12.4349 3.32261,12.4349z" fill="#555355"/><path d="M504.18324,181.62225l-0.68587,-1.30316c0,0 2.30111,-0.596 3.25888,-0.50972c0.89746,0.08082 1.67317,0.8809 1.67317,0.8809l0.58657,1.36723z" fill="#686668"/><path d="M514.17556,194.48526c0.0735,-0.81621 0.79478,-1.41828 1.611,-1.34479c0.81622,0.0735 1.41828,0.79478 1.34479,1.611c-0.0735,0.81621 -0.79478,1.41828 -1.61099,1.34479c-0.81622,-0.0735 -1.41828,-0.79478 -1.34479,-1.611z" fill="#312f31"/><path d="M515.09129,191.6266l-1.4938,-5.7035l1.5978,-0.00002l1.48802,5.76777z" fill="#444144"/></g><path d="M467.78411,187.01256l-2.77865,-11.11759l29.65635,3.85216l-1.33402,9.56596z" fill="#444444"/><path d="M480.72524,184.24675c0,0 0.68023,-0.46278 1.49872,-1.49845c0.74838,-0.94689 1.61958,-2.45272 2.04428,-2.8801c1.1244,-1.61212 3.4515,-0.93382 3.4515,-0.93382l-1.03422,0.56255l-4.82202,4.85234z" fill="#292929"/><path d="M482.56882,194.98483l-5.50392,-11.51152c0,0 3.43697,0.84298 5.22784,-0.04907c1.39164,-0.69321 1.53396,-3.32301 3.13016,-3.4613c4.5796,-0.39674 17.44115,0.32598 17.44115,0.32598c0,0 2.5862,7.4068 3.25073,10.3654c0.45876,2.0425 0.47107,6.49356 0.47107,6.49356z" fill="#4a464a"/><path d="M487.86511,182.30022c-4.48539,-1.04259 -2.92803,-2.2718 -2.92803,-2.2718c0,0 0.90633,-1.22588 2.77924,-1.20394c4.59607,0.05382 13.15255,1.40368 14.87014,1.53262c0.81003,0.06079 0.28276,0.72408 0.28276,0.72408c0,0 -1.69738,2.24275 -3.26455,2.35667c-1.56719,0.11392 -7.2542,-0.09501 -11.73957,-1.13763z" fill="#5e595e"/></g><g><path d="M470.22266,200.47482l-3.53169,-18.32616l18.80587,1.98118l4.39186,4.74141l6.08347,0.44895l1.75209,13.63147z" fill="#4d4846"/><path d="M474.85957,201.28112l21.41536,-7.50083l22.25343,1.76081c0,0 0.93152,4.28369 0.95239,5.64564c0.01062,0.69437 -0.41842,2.91832 -0.41842,2.91832z" fill="#423d3b"/><path d="M471.80667,192.66152l-2.28347,-10.09165l0.8172,0.0736l2.28348,10.09165z" fill="#363332"/><path d="M475.5147,200.53528l0.1092,-1.21248c0,0 5.47158,-2.06296 14.49991,-1.24986c1.19956,0.10805 5.20242,3.02429 6.41147,3.13318c7.67107,0.69087 15.17956,1.36711 18.03608,1.62437c2.32635,0.20953 4.81856,-0.87129 4.81856,-0.87129l-0.22583,2.50724z" fill="#312e2c"/><path d="M479.0178,188.059l-1.32257,-4.75316l8.27421,0.74519l3.74167,4.7762l6.2637,0.75898l-7.73394,1.26008z" fill="#585350"/><path d="M468.93865,194.20534l0.10121,-1.12366c0,0 8.34922,-3.00681 11.21484,-2.74871c4.31888,0.38897 16.24194,1.4628 16.24194,1.4628l-0.10121,1.12366c0,0 -12.12746,-1.09223 -16.44627,-1.48119c-2.80676,-0.2528 -11.01054,2.76711 -11.01054,2.76711z" fill="#2b2827"/></g></g></g><g><g><g><path d="M131.82926,206.67102c0.33823,2.27349 -0.20221,4.82485 -1.31252,4.99c-1.11029,0.16518 -2.37003,-2.11833 -2.70826,-4.39185c-0.33823,-2.27349 -1.6951,-11.00078 -0.58477,-11.16597c1.11029,-0.16518 4.26734,8.29428 4.60558,10.56781z" fill="#615e5f" stroke-width="0"/><g><path d="M175.93869,180.59355c-0.48982,-0.57388 -2.70334,-2.09091 -2.70334,-2.09091l10.13835,-1.97857l-6.62163,6.63279c0,0 -0.32354,-1.98944 -0.81336,-2.56329z" fill="#756a6a" stroke-width="0"/><path d="M167.10072,178.09353l1.23187,-13.67797l18.98486,-4.18058l-1.7581,19.521z" fill="#8a7c7c" stroke-width="0"/><path d="M126.73769,179.92743l8.26634,-17.46224l34.80447,3.00072l3.37887,13.02224c0,0 -23.03861,-0.49249 -30.78714,-0.25238c-3.21648,0.09966 -15.66255,1.69169 -15.66255,1.69169z" fill="#7c787a" stroke-width="0"/><path d="M134.90619,164.87094l-0.01466,-1.4888c0,0 25.81971,2.32537 33.9367,3.0564c4.54147,0.40901 16.65447,-4.8962 16.65447,-4.8962l-0.14616,1.62307c0,0 -11.81826,5.31241 -16.20915,4.90224c-8.05123,-0.75209 -34.22119,-3.19669 -34.22119,-3.19669z" fill="#535353" stroke-width="0"/><path d="M94.72401,177.75493l1.8078,-20.07275c0,0 5.14562,-6.61926 12.56656,-8.25618c9.2171,-2.0331 25.87767,1.25972 27.93997,1.44546c1.58259,0.14255 -13.78992,9.21688 -13.78992,9.21688l-1.8078,20.07275z" fill="#8d898b" stroke-width="0"/><path d="M271.11322,147.31136l1.87821,-2.98783l107.11874,9.79078l-1.32272,14.68678c0,0 -37.79387,-1.5508 -49.9281,-3.06144c-6.0262,-0.75022 -57.74611,-18.42832 -57.74611,-18.42832z" fill="#c98cac" stroke-width="0"/><path d="M240.47684,245.96108l-3.36494,-13.29183c0,0 4.59355,6.2768 7.33314,7.60476c1.74545,0.84607 5.92033,1.60537 12.2251,-0.27408c5.07558,-1.51304 10.71775,-6.53798 10.71775,-6.53798l-12.96376,13.75526z" fill="#a08e97" stroke-width="0"/><path d="M334.81012,207.35104l-0.20971,-23.73591l18.59844,0.26659l-1.90135,21.11156c0,0 -6.52581,1.13835 -9.34241,1.58578c-1.29689,0.20603 -7.14497,0.77198 -7.14497,0.77198z" fill="#96858d" stroke-width="0"/><path d="M238.31061,249.52699l0.49695,-5.51782c0,0 11.82906,3.14225 16.70995,0.44789c2.37539,-1.31127 21.03683,-20.64781 31.32633,-31.40017c4.01545,-4.19609 6.75593,-7.08487 6.75593,-7.08487c0,0 3.68425,-3.45667 3.94679,-6.32689c0.13206,-1.44385 0.97494,-5.56357 0.35408,-7.94019c-0.62641,-2.39786 -2.71722,-3.04634 -2.71722,-3.04634l-3.63509,-13.95461l19.72326,1.92059l-5.28126,26.20525l3.51325,2.88865c0,0 -10.0547,5.11885 -15.10948,9.63937c-7.90888,7.07291 -33.92937,35.23732 -33.92937,35.23732z" fill="#918189" stroke-width="0"/><path d="M311.69175,205.6231l3.77443,-28.37972l13.69537,1.51033l9.24533,12.8834l-3.69664,16.05913z" fill="#96858d" stroke-width="0"/><path d="M307.01954,207.05898l-2.12728,-4.35415l5.8739,-25.76688l5.06697,0.3713l-3.23711,28.41086z" fill="#8f8187" stroke-width="0"/><path d="M333.47159,207.68866c0,0 3.33868,-6.39336 2.47677,-11.90371c-0.49629,-3.17283 -5.21072,-5.57511 -5.51497,-7.52015c-0.58116,-3.71556 -1.48026,-9.46357 -1.48026,-9.46357l7.43201,5.05097c0,0 2.74535,7.4902 2.95842,11.78816c0.14319,2.88758 -1.90645,9.10479 -3.06246,11.61007c-0.09746,0.2112 -1.26141,0.02276 -1.32766,0.18279c-0.16183,0.39092 0.77774,0.7078 0.77774,0.7078z" fill="#86787e" stroke-width="0"/><path d="M336.03687,185.32681c0,0 -2.72361,-4.21623 -7.3001,-5.60397c-5.18109,-1.57103 -22.19831,-3.34072 -22.19831,-3.34072l158.37362,0.0243l2.56737,9.57066l6.88646,11.80799c0,0 -100.15494,-11.60202 -120.6603,-13.44878c-6.69119,-0.60263 -17.66873,0.99055 -17.66873,0.99055z" fill="#df8db7" stroke-width="0"/><path d="M178.19983,218.58336l-1.52532,-36.55402c0,0 2.01287,-3.58456 2.53137,-3.75441c5.71658,-1.87262 38.57955,-9.60782 43.97119,-8.83481c5.90624,0.84679 -10.22107,11.37118 -10.22107,11.37118c0,0 -14.53345,0.72521 -17.44214,4.73034c-3.94912,5.43779 -0.67788,23.15617 -0.67788,23.15617z" fill="#c77da3" stroke-width="0"/><path d="M253.01282,195.27113l-1.59342,-2.25731c0,0 7.30456,-7.98353 9.93397,-10.04873c2.71462,-2.13212 6.10628,-2.54968 6.10628,-2.54968l5.70504,2.82531c0,0 -4.41294,-0.90205 -6.92111,0.59529c-2.15317,1.2854 -6.1663,4.01511 -9.2326,6.84379c-2.23051,2.05767 -3.99815,4.59127 -3.99815,4.59127z" fill="#414041" stroke-width="0"/><path d="M134.68197,163.80021l5.82918,-11.21185l48.43242,4.36193c0,0 -3.28655,4.17755 -6.56994,5.85592c-3.22253,1.64727 -12.95122,4.12278 -12.95122,4.12278z" fill="#979395" stroke-width="0"/><path d="M135.58125,162.73369l5.03242,-11.28361l48.43242,4.36193c0,0 -3.28655,4.17755 -6.56994,5.85592c-3.22253,1.64727 -12.95122,4.12278 -12.95122,4.12278z" fill="#bdb7ba" stroke-width="0"/><path d="M335.8413,208.22409l-1.81929,-0.67943l17.15544,-2.64663c0,0 -3.73057,1.72973 -6.27598,2.30062c-2.54542,0.57091 -9.06014,1.02542 -9.06014,1.02542z" fill="#887980" stroke-width="0"/><path d="M180.63385,219.26891c0,0 -1.39203,-10.6332 -1.82241,-19.24497c-0.43245,-8.6538 -0.81272,-16.76734 -0.51317,-20.33957c0.05076,-0.6052 2.58297,-10.34801 3.12751,-10.82247c2.93923,-2.56111 9.95524,5.8457 15.59592,5.24568c8.35196,-0.88841 27.42951,0.31357 27.42951,0.31357l-8.89599,4.53098c0,0 -19.62819,1.10895 -22.47102,6.01095c-3.84516,6.63045 1.82282,28.09816 1.82282,28.09816z" fill="#d486ae" stroke-width="0"/><path d="M182.07647,215.86574c0,0 -2.96812,-41.30432 -0.74269,-51.22166c1.04126,-4.64021 -1.48304,-14.01229 -1.48304,-14.01229l49.83791,11.48538l-0.02328,16.13294c0,0 -31.63566,-5.95489 -38.52325,-0.27584c-4.5977,3.79094 -0.34943,32.53094 -0.34943,32.53094z" fill="#e490bb" stroke-width="0"/><g stroke-width="0"><path d="M325.59291,165.54246l0.74224,-8.24152l9.32226,0.83959l-0.74224,8.24152z" fill="#454545"/><path d="M326.4905,164.85538l0.29933,-7.30067l11.28053,1.01595l-0.65464,7.26868z" fill="#b0b0b0"/><path d="M326.66355,160.36376l0.02623,-2.8394l11.49632,1.03539l-0.1711,1.8997c0,0 -7.79037,-0.37787 -9.49534,-0.39223c-0.56971,-0.00479 -1.85613,0.29656 -1.85613,0.29656z" fill="#bebebe"/><path d="M337.71742,165.31475c0,0 -5.28915,-3.04204 -4.38428,-6.7234c1.3446,-5.47046 5.40632,-4.62462 5.40632,-4.62462l39.96058,4.93768l-0.90242,10.02006z" fill="#9c989a"/><path d="M339.61315,164.19103c0,0 -2.16109,-3.72781 -2.32113,-4.6728c-0.23721,-1.40078 2.01482,-4.16724 2.01482,-4.16724l41.42509,3.76431l-1.0701,7.4226z" fill="#898587"/><path d="M339.50539,164.3804l-0.84153,-2.02304l38.07762,3.42936l-0.17395,1.93158z" fill="#c1bcbf"/><path d="M339.68914,160.98927c0,0 -1.20526,-1.48207 -1.12118,-2.41564c0.07865,-0.87327 1.61045,-3.01693 1.61045,-3.01693l38.51079,3.46836l-0.48927,5.43256z" fill="#0d0d0d"/><path d="M339.6194,161.76342c0,0 -1.15109,-2.08339 -1.067,-3.01698c0.07865,-0.87327 1.55628,-2.41559 1.55628,-2.41559l38.5108,3.46836l-0.48927,5.43256z" fill="#2e2e2e"/><path d="M334.64213,163.22618c-2.35311,-3.29129 -0.98305,-5.51389 -0.98305,-5.51389c0,0 1.45599,4.26011 2.60599,5.26492c1.36156,1.18961 4.83429,2.87389 4.83429,2.87389l-3.50093,-0.24485c0,0 -2.54221,-1.80082 -2.9563,-2.38002z" fill="#7d7a7c"/><path d="M342.18117,162.30508c0,0 -0.6869,-2.28281 -0.58432,-3.42176c0.09016,-1.00118 1.16736,-3.05203 1.16736,-3.05203l4.80389,0.43266c0,0 -0.65696,2.15374 -0.73483,3.01845c-0.10705,1.18849 0.15179,3.45531 0.15179,3.45531z" fill="#555555"/><path d="M350.76311,163.07802c0,0 0.89029,-2.45314 0.99287,-3.59208c0.09016,-1.00118 -0.40982,-2.88172 -0.40982,-2.88172l5.36164,0.48288c0,0 -0.56882,1.67078 -0.6467,2.53553c-0.10705,1.18849 0.06367,3.93825 0.06367,3.93825z" fill="#555555"/><path d="M360.05218,163.91461c0,0 0.8903,-2.45314 0.99289,-3.59208c0.09016,-1.00118 -0.40983,-2.88171 -0.40983,-2.88171l5.28196,0.47568c0,0 -0.56882,1.67078 -0.6467,2.53553c-0.10705,1.18849 0.06367,3.93825 0.06367,3.93825z" fill="#555555"/><path d="M369.67652,164.7814c0,0 1.03548,-2.08305 1.13804,-3.22202c0.09016,-1.00118 -0.555,-3.25177 -0.555,-3.25177l5.12261,0.46135c0,0 0.64666,2.048 0.56879,2.91277c-0.10705,1.18849 -1.15182,3.56104 -1.15182,3.56104z" fill="#555555"/><path d="M342.43597,156.50858l-0.59068,-0.85644l35.41923,3.18993l-1.59982,0.65916c0,0 -2.81868,-0.25387 -5.27095,-0.47472c-0.53452,-0.04815 -1.51654,-0.46666 -2.31717,-0.53881c-0.77415,-0.06973 -1.35931,0.20769 -2.32159,0.12101c-1.50061,-0.13516 -3.1937,-0.28763 -4.96618,-0.44728c-0.73487,-0.06619 -1.33987,-0.50579 -2.09398,-0.57369c-0.67057,-0.06037 -1.48906,0.25098 -2.16278,0.19032c-1.67209,-0.1506 -3.32772,-0.29971 -4.88435,-0.43989c-0.7148,-0.06438 -1.36942,-0.56347 -2.03447,-0.62336c-0.81188,-0.07314 -1.62009,0.29422 -2.33142,0.23016c-2.90171,-0.26133 -4.84585,-0.43642 -4.84585,-0.43642z" fill="#474747"/></g><g><path d="M189.79697,210.10616l3.95931,-2.52246c0,0 2.56104,3.05693 5.30335,4.20252c2.42547,1.0132 10.31704,2.32262 10.31704,2.32262l-3.03494,4.0986z" fill="#6d6a6b" stroke-width="0"/><path d="M181.18742,215.85727l9.85671,-6.52735c0,0 3.01928,2.53759 5.11993,3.39137c3.17799,1.2916 12.09256,3.60427 12.09256,3.60427l-4.64687,3.90626z" fill="#615e5f" stroke-width="0"/><path d="M181.20769,237.91538l0.54746,-22.61513c0,0 4.26564,1.17932 9.06485,1.64127c3.74598,0.36058 7.85342,-0.12003 10.27259,0.70865c4.24702,1.4548 36.52965,16.76796 36.52965,16.76796l1.55582,10.35613z" fill="#575455" stroke-width="0"/><path d="M205.13775,212.91924c7.40456,-4.92088 16.64812,-17.59488 18.13205,-20.04303c1.06905,-1.76371 2.22703,-6.95681 2.22703,-6.95681l7.06137,7.47835c0,0 3.98771,20.93885 4.02914,33.64052c0.01158,3.55404 2.16504,7.70916 0.85203,9.0633c-1.17643,1.21327 -18.27477,1.97252 -23.57866,0.72697c-11.16184,-2.62116 -17.18076,-0.36244 -20.43719,-5.95242c-3.25645,-5.58997 4.37815,-11.19803 4.37815,-11.19803c0,0 5.40845,-5.47777 7.33612,-6.75888z" fill="#504e4f" stroke-width="0"/><path d="M212.86842,180.65738c0,0 0.52814,-1.45126 1.4412,-2.03523c1.17428,-0.75103 5.02003,-2.09718 5.02003,-2.09718c0,0 9.14375,2.89922 11.91852,5.64922c2.56013,2.53721 -4.61748,12.21359 -4.61748,12.21359l-1.51751,-5.51973z" fill="#464445" stroke-width="0"/><path d="M231.77298,229.77859c0,0 -9.80797,5.39777 -18.27354,4.80746c-8.16678,-0.56947 -15.00636,-7.10114 -14.77219,-8.50805c0.12685,-0.76226 8.31936,-3.3431 12.16052,-7.23568c4.26985,-4.32697 4.29481,-10.04932 5.82056,-11.9305c4.25945,-5.2518 13.58339,-14.63177 13.06876,-20.74621c-0.53972,-6.41235 -11.02804,-9.43922 -11.02804,-9.43922c0,0 4.03766,-1.89716 9.01488,-1.5793c2.1201,0.13539 6.52507,1.92358 7.41011,2.38981c2.90226,1.52884 4.73819,3.33707 4.73819,3.33707c0,0 4.0815,-4.53148 7.69685,-4.51659c3.61536,0.0149 22.10085,4.6393 22.10085,4.6393l-17.27485,11.08915z" fill="#555354" stroke-width="0"/><path d="M216.26027,207.46884c0,0 5.57744,-10.41449 10.77627,-15.40316c5.19882,-4.98868 9.54607,-7.79051 13.06419,-7.47365c2.54763,0.22943 5.0498,9.10505 5.0498,9.10505l-13.61286,27.65967c0,0 -14.85634,1.95439 -16.10513,-0.64878c-0.98629,-2.05599 0.82775,-13.23911 0.82775,-13.23911z" fill="#585758" stroke-width="0"/><path d="M236.27599,236.68173c0,0 -2.31122,-6.42427 -1.7152,-9.40503c0.83265,-4.16411 3.40577,-16.63752 3.40577,-16.63752l1.01272,10.56915c0,0 -1.51223,9.65075 -1.65185,12.68032c-0.1347,2.92303 1.08819,5.21235 1.08819,5.21235z" fill="#3f3e3f" stroke-width="0"/><path d="M236.95359,218.80519c-0.04442,-1.68558 0.91304,-9.34148 0.91304,-9.34148c0,0 10.82639,-13.65188 13.15332,-16.10614c0.68218,-0.71948 4.17956,-2.14245 4.17956,-2.14245l-2.07503,4.68668c0,0 -1.62167,0.46038 -1.84362,0.92017c-0.23647,0.48986 0.4656,1.93445 0.4656,1.93445l-5.86885,7.98587c0,0 -1.73462,0.85844 -1.9584,1.34571c-0.22386,0.48738 0.38136,1.43363 0.38136,1.43363c0,0 -4.64084,8.55948 -5.69652,10.88894c-0.48811,1.07706 -0.38249,2.52499 -0.38249,2.52499c0,0 -1.22354,-2.44479 -1.26795,-4.13039z" fill="#474647" stroke-width="0"/><path d="M225.76128,196.74396l20.23522,10.09106c0,0 -1.27495,0.90157 -1.55953,1.41716c-0.21,0.38045 0.00679,1.39608 0.00679,1.39608z" fill="#3f3e3e" stroke-width="NaN"/><path d="M232.66575,186.97093l20.69228,8.951c0,0 -1.18617,0.73989 -1.44623,1.27505c-0.27109,0.55789 0.00012,1.6659 0.00012,1.6659z" fill="#3f3e3e" stroke-width="NaN"/><path d="M217.70329,214.41948c0,0 9.95928,8.6211 15.27752,15.10186c5.31824,6.48079 3.27713,7.50865 3.27713,7.50865z" fill="#636162" stroke-width="NaN"/><path d="M233.00471,192.64762c0,0 -6.23695,2.3541 -9.25293,5.19093c-3.01599,2.83683 -12.76796,18.20697 -12.50375,15.27331c0.26421,-2.93365 15.19172,-22.39424 16.97942,-22.23325c0.67673,0.06096 3.8032,-0.80436 4.59702,-0.49445c1.3032,0.50881 0.18023,2.26341 0.18023,2.26341z" fill="#918f91" stroke-width="0"/><path d="M180.76494,237.74558l14.05598,-0.63003c0,0 12.57493,0.7989 15.68507,1.2347c7.57409,1.06127 29.92455,5.15609 29.92455,5.15609l-1.01219,6.25551c0,0 -24.58258,1.36593 -31.33119,-0.56282c-1.95237,-0.55799 -7.69014,-1.69532 -11.80745,-3.42379c-8.05738,-3.38256 -15.51474,-8.02964 -15.51474,-8.02964z" fill="#626061" stroke-width="0"/><path d="M238.449,249.32127c0,0 0.42533,-4.27171 0.18806,-6.6424c-0.26665,-2.66456 -1.71014,-8.5667 -1.71014,-8.5667l1.77515,0.15987c0,0 1.31247,4.59305 1.55388,7.00528c0.26393,2.63739 -0.0318,8.20384 -0.0318,8.20384z" fill="#4a494a" stroke-width="0"/><path d="M238.17951,250.1367l0.39261,-3.37556c0,0 0.54072,0.31449 0.81114,0.33884c0.3213,0.02895 0.94925,-0.18029 0.94925,-0.18029l-0.11189,3.17936c0,0 -0.80998,0.33632 -1.1819,0.34317c-0.28498,0.00528 -0.85915,-0.30552 -0.85915,-0.30552z" fill="#363536" stroke-width="0"/><path d="M237.10891,235.15802l-0.23892,-1.64871c0,0 0.44749,-0.31554 0.81979,-0.34147c0.35457,-0.0247 0.86387,0.14442 0.86387,0.14442l0.34385,1.77438c0,0 -0.52541,0.46217 -0.83183,0.47439c-0.2887,0.01153 -0.95674,-0.403 -0.95674,-0.403z" fill="#585758" stroke-width="0"/><path d="M196.8084,245.1381c0,0 -7.59846,-3.64912 -7.4762,-5.00664c0.12289,-1.3643 6.43993,-1.97092 6.43993,-1.97092c0,0 10.92138,0.74187 15.8429,1.35842c2.75527,0.34517 11.1725,2.02593 11.1725,2.02593c0,0 7.16786,1.70404 7.87636,2.92422c0.77281,1.33098 -3.33062,3.81454 -3.33062,3.81454c0,0 -12.78971,0.15947 -16.71985,-0.40357c-1.39612,-0.20003 -13.80498,-2.74193 -13.80498,-2.74193z" fill="#6b696a" stroke-width="0"/><path d="M187.08629,237.33307l-1.97448,0.05391c0,0 0.93196,-3.36464 3.52959,-1.88347c2.59763,1.4812 21.58584,2.1758 21.58584,2.1758z" fill="#4b4949" stroke-width="0"/><path d="M180.85049,237.60866c0,0 -2.0069,0.01162 -2.21308,-3.66445c-0.10437,-1.86079 -0.56431,-16.1518 -0.56431,-16.1518l3.98094,-2.5523c0,0 0.1414,6.03072 0.08643,8.93977c-0.07315,3.86898 -0.37054,13.51157 -0.37054,13.51157z" fill="#3f3d3e" stroke-width="0"/><path d="M187.39192,237.52718c0,0 3.3734,-1.86304 19.39528,-0.75857c1.32312,0.09123 -1.78507,-0.19292 7.53127,1.1555c9.31634,1.3484 13.07313,3.20554 13.07313,3.20554c0,0 -14.90954,-2.41649 -21.08735,-2.97288c-7.04196,-0.63421 -18.91234,-0.62958 -18.91234,-0.62958z" fill="#838082" stroke-width="0"/><path d="M195.08019,208.46751c0,0 -4.54919,1.78657 -6.8604,3.20052c-2.59773,1.58923 -7.96702,5.87062 -7.96702,5.87062l-0.63764,-1.66553c0,0 4.09309,-3.50064 6.44478,-4.93937c2.57119,-1.57298 8.38264,-4.1318 8.38264,-4.1318z" fill="#4a494a" stroke-width="0"/><path d="M196.03355,208.29453l-3.69745,1.35437c0,0 0.15399,-0.63517 0.05684,-0.88888c-0.11542,-0.30146 -0.61209,-0.75586 -0.61209,-0.75586l3.29353,-1.51239c0,0 0.70846,0.55245 0.88321,0.88093c0.13392,0.25172 0.07591,0.92182 0.07591,0.92182z" fill="url(#color-3)" stroke-width="0"/><path d="M181.23746,216.84593l-3.18392,2.4541l0.05252,-2.18675l2.25178,-1.8276c0,0 0.70844,0.2346 0.85913,0.50191c0.14199,0.25183 0.02047,1.05832 0.02047,1.05832z" fill="url(#color-4)" stroke-width="0"/></g><path d="M312.93405,204.63406c0,0 1.32002,-4.31767 1.9459,-5.65602c0.42487,-0.90852 2.91711,-2.12152 2.91711,-2.12152l16.97039,1.3093c0,0 -1.79205,5.65981 -2.29415,6.98641c-0.21996,0.58114 -1.34375,1.17535 -1.34375,1.17535z" fill="#665b60" stroke-width="0"/><path d="M266.15346,182.09047c0,0 -3.63876,-1.89649 -8.44402,-3.48616c-3.0547,-1.01058 -7.25666,-1.95806 -9.11966,-2.01964c-5.41633,-0.17906 -8.38308,4.67932 -8.38308,4.67932c0,0 -3.05234,-2.60002 -5.07481,-3.64032c-1.88789,-0.97108 -6.13367,-2.35846 -6.13367,-2.35846c0,0 24.91713,-2.86778 28.8048,-3.10012c7.453,-0.44542 33.99153,2.3377 33.99153,2.3377l4.91742,14.7864z" fill="#8b7c84" stroke-width="0"/><g stroke-width="0"><path d="M314.46742,203.82559c0,0 0.70251,-2.54351 1.19149,-3.39786c0.507,-0.88587 2.77635,-1.73817 2.77635,-1.73817l14.47145,1.30331c0,0 0.29657,1.01365 -0.00403,1.72736c-0.40874,0.97038 -3.42053,3.45763 -3.42053,3.45763z" fill="#585852"/><path d="M314.53428,203.08324c0,0 0.63564,-1.80113 1.12463,-2.6555c0.507,-0.88587 2.8432,-2.48052 2.8432,-2.48052l14.47145,1.30332c0,0 0.22975,1.75602 -0.0709,2.46972c-0.40874,0.97038 -3.35367,2.71523 -3.35367,2.71523z" fill="#797971"/><path d="M331.17204,199.58587c-1.02868,-0.2713 -12.58006,-1.5841 -12.58006,-1.5841l14.45166,1.30154l-0.22083,2.4519c0,0 -0.6221,-1.89802 -1.65077,-2.16935z" fill="#85857b"/></g><path d="M317.52256,185.8591l0.46551,-5.16883l7.10715,0.64008l0.8267,5.28522z" fill="#7c6e75" stroke-width="0"/><path d="M309.51071,158.607l-3.43052,-8.47314l1.37375,0.12374l5.31769,9.09654z" fill="#d495b6" stroke-width="0"/><path d="M271.34866,147.51013l13.44289,-1.89148l21.48433,4.55801l3.26095,8.4187z" fill="#df9cbe" stroke-width="0"/><path d="M317.23314,190.8809l0.14548,-1.61525l10.82223,0.97469l0.82368,1.70255z" fill="#7c6e75" stroke-width="0"/><path d="M277.91496,175.13649c0,0 -18.16802,-0.43299 -23.82297,-0.4401c-8.5628,-0.01079 -25.77284,0.77392 -25.77284,0.77392c0,0 15.36147,-3.07513 28.95043,-3.3735c14.73389,-0.32353 58.73663,2.17616 58.73663,2.17616l-0.48518,5.38727z" fill="#75686e" stroke-width="0"/><path d="M270.23773,183.25105l-3.17897,-0.85942c0,0 9.94495,-1.4984 15.19456,-0.25973c5.2496,1.23866 14.03008,7.15543 14.03008,7.15543z" fill="#7c6e76" stroke-width="0"/><path d="M224.3304,175.07002c0,0 -30.84576,-18.2368 -31.31925,-22.91827c-0.43008,-4.25254 29.49093,5.01349 29.79721,4.93239c5.35909,-1.41889 77.59944,-2.15684 77.59944,-2.15684l25.89248,9.14875l52.60047,4.16356l6.0611,14.17626c0,0 -61.41581,-4.35763 -85.10089,-6.32707c-8.22173,-0.68365 -24.92807,-2.83857 -40.27258,-3.07562c-11.83625,-0.18285 -29.83846,2.52991 -29.83846,2.52991z" fill="#ee96c3" stroke-width="0"/><path d="M94.59427,175.97977l5.12133,-19.77433c0,0 0.53161,-7.03481 7.95257,-8.67173c9.2171,-2.0331 25.87767,1.25973 27.93997,1.44547c1.58259,0.14255 -13.78993,9.21688 -13.78993,9.21688l-1.80779,20.07275z" fill="#c4b4b3" stroke-width="0"/><g stroke-width="0"><path d="M376.25711,183.01956l-1.48732,-15.33812l91.77607,15.05743l-1.27458,5.71565l-47.67305,0.58324z" fill="#ad6d8e"/><path d="M403.78225,171.10425l7.98548,-7.58701l26.85776,0.28121l-5.22069,9.9737z" fill="#8d788b"/><path d="M378.30731,170.00338l1.45631,-16.16984l32.07372,9.69414l-5.17639,6.43061z" fill="#857183"/><path d="M420.85294,170.50081l17.71004,-6.70673l27.391,6.25483l-0.9033,6.84055z" fill="#947e92"/><path d="M374.20965,169.02334l4.02706,-12.45494l1.71579,-2.92171l-1.35122,15.00312z" fill="#756474"/><path d="M377.81959,179.93288l0.36451,-12.08876l43.28711,2.24302l-2.66143,15.88236z" fill="#746373"/><path d="M418.80349,185.95338c0,0 0.94422,-6.24795 1.39729,-9.06282c0.38789,-2.41002 1.156,-6.80119 1.156,-6.80119l43.94029,4.87014l1.23846,8.54554z" fill="#867284"/><path d="M374.25627,168.95681l4.14868,-1.16346l-0.55613,12.14982z" fill="#6f5e6d"/><path d="M458.7774,169.29449l-19.4366,-5.12777l26.29335,6.01912l-0.6802,3.49854c0,0 -0.17155,-1.5911 -1.31179,-2.40151c-0.76275,-0.54211 -4.86481,-1.98841 -4.86481,-1.98841z" fill="#978195"/><path d="M419.24388,169.70351c0,0 8.25333,-2.73599 11.1418,-3.83542c2.10414,-0.80088 4.59402,-2.15404 4.59402,-2.15404l2.51353,0.33944l-15.61137,5.88758z" fill="#9c859a"/><path d="M404.8485,169.21862c0,0 1.55796,-2.62312 3.02393,-3.84683c1.46593,-1.22373 3.83801,-1.82861 3.83801,-1.82861l-4.4103,5.89626z" fill="#806b7d"/><path d="M440.29029,162.19679l2.639,-5.51886l14.80386,5.08172l5.00337,6.87651z" fill="#55494f"/><path d="M437.51599,164.75839c0,0 1.14895,-0.68991 1.75954,-1.22206c0.45992,-0.40083 1.26933,-1.71812 1.26933,-1.71812l21.86497,5.98539c0,0 0.8198,0.57282 1.37443,0.94975c0.57962,0.39392 2.03165,1.3651 2.03165,1.3651z" fill="#685960"/><path d="M440.92923,161.35854l2.06314,-4.41812l13.7909,4.58234c0,0 -7.83695,-2.24473 -12.32282,-2.39303c-2.60206,-0.08603 -3.53123,2.22881 -3.53123,2.22881z" fill="#41383c"/></g><path d="M99.75041,137.00503l0.46716,-5.18733c0,0 22.36264,0.71373 44.22716,2.74008c13.02926,1.20753 26.4011,4.01596 33.32588,4.2881c15.61383,0.61356 26.44519,-2.94141 26.44519,-2.94141l-7.26971,10.03147z" fill="#ffa1d1" stroke-width="0"/><path d="M95.93086,150.67511l3.59422,-15.82398c0,0 54.39059,6.96741 72.20533,8.12939c10.55273,0.68832 24.83367,-1.79992 24.83367,-1.79992l-1.31342,14.58333c0,0 -67.22892,-6.0548 -83.43569,-7.51442c-6.66361,-0.60015 -18.29561,29.20152 -18.29561,29.20152z" fill="#ee96c3" stroke-width="0"/><path d="M267.55656,242.93381l10.46216,-12.70867c0,0 11.30104,-14.90365 21.27906,-20.89552c2.53559,-1.52264 7.79161,-2.25063 7.79161,-2.25063c0,0 -7.72162,4.30987 -10.55637,6.8573c-6.69442,6.0159 -28.97641,28.9975 -28.97641,28.9975z" fill="#70646b" stroke-width="0"/><path d="M368.99414,186.96643l-4.66048,-18.49439l1.34468,0.12111c0,0 1.41144,5.60107 2.15723,8.56069c0.10628,0.42169 1.3562,1.7603 1.48783,2.28262c0.22817,0.90544 -0.64259,1.07152 -0.38759,2.08353c0.71011,2.81794 1.40299,5.56755 1.40299,5.56755z" fill="#795467" stroke-width="0"/><path d="M195.84179,156.25071c0,0 -9.85203,-7.46615 -8.83681,-11.1649c0.60787,-2.21465 18.09586,-8.62394 18.09586,-8.62394l68.07579,7.80994l-1.9078,2.93685l29.05984,7.88685l-73.89033,20.02804c0,0 -0.28462,-5.66218 3.55951,-8.18568c3.7361,-2.45259 19.19039,-6.74865 19.19039,-6.74865c0,0 -34.07506,-3.11806 -41.32883,-3.8584c-2.42003,-0.247 -12.01768,-0.0801 -12.01768,-0.0801z" fill="#f399c8" stroke-width="0"/><g><path d="M203.13857,138.21709l0.29048,-3.22529l175.84196,15.83674l-0.29048,3.22529z" fill="#584f54" stroke-width="0"/><path d="M373.47577,150.55584l0.24544,-2.7253l3.04294,0.27406l2.43949,2.9671z" fill="#685d63" stroke-width="0"/><g fill="#685d63" stroke-width="0"><g><g><g><path d="M366.82021,150.2066l0.26704,-2.965l3.86548,0.34812l-0.26704,2.965z"/><path d="M360.54808,149.64174l0.26704,-2.965l3.86548,0.34813l-0.26704,2.965z"/></g><g><path d="M354.5126,149.09815l0.26704,-2.96501l3.86548,0.34813l-0.26704,2.965z"/><path d="M348.24044,148.53327l0.26704,-2.965l3.86547,0.34813l-0.26704,2.96501z"/></g></g><g><g><path d="M342.08663,147.97904l0.26704,-2.96501l3.86547,0.34813l-0.26704,2.965z"/><path d="M335.81446,147.41417l0.26704,-2.965l3.86548,0.34812l-0.26704,2.96501z"/></g><g><path d="M329.77901,146.87058l0.26704,-2.965l3.86547,0.34813l-0.26704,2.965z"/><path d="M323.50692,146.30571l0.26704,-2.965l3.86547,0.34812l-0.26704,2.96501z"/></g></g></g><g><g><g><path d="M323.27023,146.28441l0.26704,-2.965l3.86547,0.34813l-0.26704,2.965z"/><path d="M316.99812,145.71951l0.26704,-2.965l3.86548,0.34813l-0.26704,2.965z"/></g><g><path d="M310.96262,145.17595l0.26704,-2.96501l3.86547,0.34813l-0.26704,2.965z"/><path d="M304.69048,144.61106l0.26704,-2.965l3.86547,0.34812l-0.26704,2.96501z"/></g></g><g><g><path d="M298.53671,144.05686l0.26704,-2.96501l3.86548,0.34813l-0.26704,2.965z"/><path d="M292.26455,143.49195l0.26704,-2.965l3.86548,0.34813l-0.26704,2.96501z"/></g><g><path d="M286.22908,142.94839l0.26704,-2.965l3.86548,0.34812l-0.26704,2.96501z"/><path d="M279.95694,142.3835l0.26704,-2.965l3.86548,0.34813l-0.26704,2.965z"/></g></g></g></g><g><g fill="#685d63" stroke-width="0"><g><g><path d="M273.76289,141.82565l0.26704,-2.96501l3.86548,0.34813l-0.26704,2.965z"/><path d="M267.49075,141.26076l0.26704,-2.965l3.86548,0.34813l-0.26704,2.96501z"/></g><g><path d="M261.45528,140.71722l0.26704,-2.965l3.86548,0.34813l-0.26704,2.96501z"/><path d="M255.18319,140.15233l0.26704,-2.965l3.86548,0.34812l-0.26704,2.96501z"/></g></g><g><g><path d="M249.02937,139.5981l0.26704,-2.96501l3.86548,0.34813l-0.26704,2.965z"/><path d="M242.75721,139.0332l0.26704,-2.965l3.86548,0.34813l-0.26704,2.96501z"/></g><g><path d="M236.72172,138.48964l0.26704,-2.965l3.86548,0.34813l-0.26704,2.96501z"/><path d="M230.44958,137.92477l0.26704,-2.965l3.86548,0.34812l-0.26704,2.965z"/></g></g></g><g><g fill="#685d63" stroke-width="0"><g><path d="M230.21291,137.90344l0.26704,-2.96501l3.86548,0.34813l-0.26704,2.965z"/><path d="M223.94074,137.33854l0.26704,-2.965l3.86548,0.34812l-0.26704,2.96501z"/></g><g><path d="M217.90529,136.795l0.26704,-2.965l3.86548,0.34812l-0.26704,2.96501z"/><path d="M211.63317,136.23009l0.26704,-2.965l3.86548,0.34812l-0.26704,2.965z"/></g></g><g fill="none" stroke-width="1" font-family="sans-serif" font-weight="normal" font-size="12" text-anchor="start"><g/><g/></g></g></g><path d="M203.47803,135.24544l2.93039,-2.48348l3.04294,0.27406l-0.24544,2.7253z" data-paper-data="{&quot;index&quot;:null}" fill="#685d63" stroke-width="0"/></g><path d="M257.20977,173.10419l-2.56581,0.04004c0,0 1.90246,-2.4066 11.56007,-2.66908c7.32191,-0.19898 27.91995,0.33935 40.24756,0.70082c5.72463,0.16784 62.80614,-3.72962 62.80614,-3.72962l5.17914,0.45209c0,0 -62.42173,5.06596 -68.14006,4.87536c-12.64478,-0.4215 -33.90927,-1.09442 -40.08502,-1.06978c-3.36182,0.01341 -9.00197,1.4002 -9.00197,1.4002z" fill="#70475c" stroke-width="0"/><path d="M356.00661,201.10673l-5.06952,1.39672l1.69883,-18.85501c0,0 7.75571,0.7471 15.34065,1.47773c21.7741,2.09745 126.42182,12.17793 126.42182,12.17793l-0.60343,6.70015z" fill="#5a5959" stroke-width="0"/><path d="M354.94916,202.64649l1.35615,-2.89608l137.51157,4.14588l-12.78408,10.1056z" fill="#4b4a4a" stroke-width="0"/><path d="M477.77725,213.5188c0,0 -5.5932,-3.74152 -8.48533,-5.43586c-1.54997,-0.90803 -7.51869,-3.93995 -7.51869,-3.93995c0,0 7.70872,3.60976 10.95481,4.85391c1.15849,0.44402 2.21093,1.28461 3.46233,1.92758c0.4035,0.20731 2.46708,-2.37716 4.51213,-3.91427c0.61125,-0.45945 1.73412,0.00771 2.28706,-0.2746c1.26759,-0.64725 1.72306,-1.70207 1.72306,-1.70207c0,0 0.25272,0.95609 -1.07018,2.05561c-0.36094,0.30001 -2.18821,0.48919 -2.54467,0.81892c-1.42857,1.32148 -2.56976,2.82424 -2.9267,3.38569c-0.99606,1.56678 1.06361,2.35634 1.06361,2.35634z" fill="#414040" stroke-width="0"/><path d="M195.76634,156.54254l4.79539,-10.71182l7.03386,0.00665c0,0 -1.18435,2.55226 -1.88235,4.05645c-0.17578,0.37886 11.74622,-0.51149 12.03661,0.1884c0.5388,1.29853 -5.34808,4.54346 -5.78706,5.48947c-0.50186,1.08149 -9.20674,0.69494 -9.20674,0.69494z" fill="#303030" stroke-width="0"/><path d="M195.65655,156.16111l4.6164,-9.88947c0,0 2.87106,1.56845 2.7827,2.54946c-0.16075,1.78497 -2.25252,7.40715 -2.25252,7.40715z" fill="#252525" stroke-width="0"/><path d="M350.68086,205.14682l0.26484,-2.94048l5.76635,-2.44501l-1.49794,2.82942c0,0 -1.20576,1.23208 -2.00303,1.68161c-0.70152,0.39557 -2.5302,0.87442 -2.5302,0.87442z" fill="#383838" stroke-width="0"/><g><g fill="#4b4b4b" stroke-width="0"><g data-paper-data="{&quot;origPos&quot;:null}"><g data-paper-data="{&quot;origPos&quot;:null}"><path d="M417.42847,212.53475l0.20386,-2.26359l3.73489,0.33636l-0.20386,2.26359z" data-paper-data="{&quot;origPos&quot;:null}"/><path d="M411.21385,211.86097l0.20386,-2.26359l3.73488,0.33636l-0.20386,2.26358z" data-paper-data="{&quot;origPos&quot;:null}"/></g><g data-paper-data="{&quot;origPos&quot;:null}"><path d="M429.86789,213.76922l0.20386,-2.26359l3.73489,0.33636l-0.20386,2.26358z" data-paper-data="{&quot;origPos&quot;:null}"/><path d="M423.65326,213.0954l0.20386,-2.26358l3.73488,0.33636l-0.20386,2.26359z" data-paper-data="{&quot;origPos&quot;:null}"/></g></g><g data-paper-data="{&quot;origPos&quot;:null,&quot;index&quot;:null}"><g data-paper-data="{&quot;origPos&quot;:null}"><path d="M449.0154,215.26549l0.20386,-2.26359l3.73489,0.33636l-0.20386,2.26358z" data-paper-data="{&quot;origPos&quot;:null}"/><path d="M455.2504,215.71291l0.20385,-2.26358l3.73489,0.33636l-0.20386,2.26357z" data-paper-data="{&quot;origPos&quot;:null}"/></g><g data-paper-data="{&quot;origPos&quot;:null}"><path d="M436.55561,214.25739l0.20386,-2.26359l3.73488,0.33636l-0.20385,2.26358z" data-paper-data="{&quot;origPos&quot;:null}"/><path d="M442.79061,214.70488l0.20386,-2.26358l3.73489,0.33636l-0.20386,2.26358z" data-paper-data="{&quot;origPos&quot;:null}"/></g></g></g><path d="M375.61854,200.49078l1.22091,-13.55625l84.13348,7.57725l-1.22091,13.55625z" data-paper-data="{&quot;origPos&quot;:null}" fill="#444444" stroke-width="0"/><path d="M375.29306,205.20281l0.42899,-4.76317l83.88621,7.55498l-0.42899,4.76318z" data-paper-data="{&quot;origPos&quot;:null}" fill="#414141" stroke-width="0"/><path d="M375.19997,206.62443l0.14511,-1.61111l83.87554,7.55402l-0.1451,1.61111z" data-paper-data="{&quot;origPos&quot;:null}" fill="#3f3f3f" stroke-width="0"/><g stroke-width="0"><g data-paper-data="{&quot;origPos&quot;:null}" fill="#5a5a5a"><g data-paper-data="{&quot;origPos&quot;:null}"><path d="M418.70864,204.45128l1.23336,-13.69457l3.55703,0.32035l-1.23336,13.69457z" data-paper-data="{&quot;origPos&quot;:null}"/></g><g data-paper-data="{&quot;origPos&quot;:null}"><path d="M424.75558,204.99588l1.23336,-13.69457l3.55704,0.32035l-1.23336,13.69457z" data-paper-data="{&quot;origPos&quot;:null}"/><path d="M430.9804,205.55651l1.23337,-13.69457l3.55703,0.32035l-1.23336,13.69457z" data-paper-data="{&quot;origPos&quot;:null}"/></g></g><g data-paper-data="{&quot;origPos&quot;:null}" fill="#5a5a5a"><g data-paper-data="{&quot;origPos&quot;:null}"><path d="M437.5609,206.14916l1.23336,-13.69457l3.55703,0.32035l-1.23336,13.69458z" data-paper-data="{&quot;origPos&quot;:null}"/><path d="M443.7857,206.70978l1.23336,-13.69457l3.55704,0.32035l-1.23337,13.69457z" data-paper-data="{&quot;origPos&quot;:null}"/></g><g data-paper-data="{&quot;origPos&quot;:null}"><path d="M449.83268,207.25439l1.23337,-13.69457l3.55703,0.32035l-1.23337,13.69457z" data-paper-data="{&quot;origPos&quot;:null}"/><path d="M456.05748,207.815l1.23337,-13.69457l3.55703,0.32035l-1.23336,13.69457z" data-paper-data="{&quot;origPos&quot;:null}"/></g></g><path d="M422.32676,204.77713l-1.04848,1.84442l-5.2241,-0.42723l0.73994,-9.76947l3.08923,-5.67346l-1.16468,13.70077z" fill="#3a3a3a"/><path d="M428.37127,205.32152l-1.04848,1.84443l-5.22411,-0.42724l0.73995,-9.76947l3.08923,-5.67345l-1.16468,13.70076z" fill="#3a3a3a"/><path d="M434.55312,205.87827l-1.04848,1.84443l-5.22411,-0.42723l0.73994,-9.76947l3.08923,-5.67345l-1.16468,13.70077z" fill="#3a3a3a"/><path d="M441.21583,206.47834l-1.04848,1.84443l-5.22411,-0.42723l0.73994,-9.76947l3.08923,-5.67345l-1.16468,13.70077z" fill="#3a3a3a"/><path d="M447.46639,207.04128l-1.04848,1.84443l-5.22411,-0.42723l0.73994,-9.76947l3.08923,-5.67345l-1.16468,13.70076z" fill="#3a3a3a"/><path d="M453.44219,207.57947l-1.04848,1.84442l-5.2241,-0.42723l0.73994,-9.76947l3.08923,-5.67345l-1.16468,13.70077z" fill="#3a3a3a"/><path d="M459.70065,208.14312l-1.04848,1.84442l-5.22411,-0.42723l0.73995,-9.76947l3.08923,-5.67346l-1.16468,13.70077z" fill="#3a3a3a"/></g><g stroke-width="0"><g data-paper-data="{&quot;origPos&quot;:null}" fill="#5a5a5a"><g data-paper-data="{&quot;origPos&quot;:null}"><path d="M375.65384,200.57367l1.23337,-13.69457l3.55704,0.32035l-1.23336,13.69457z" data-paper-data="{&quot;origPos&quot;:null}"/></g><g data-paper-data="{&quot;origPos&quot;:null}"><path d="M381.70077,201.11828l1.23336,-13.69457l3.55703,0.32035l-1.23336,13.69457z" data-paper-data="{&quot;origPos&quot;:null}"/><path d="M387.92558,201.6789l1.23336,-13.69457l3.55704,0.32035l-1.23337,13.69457z" data-paper-data="{&quot;origPos&quot;:null}"/></g></g><g data-paper-data="{&quot;origPos&quot;:null}" fill="#5a5a5a"><g data-paper-data="{&quot;origPos&quot;:null}"><path d="M394.50609,202.27154l1.23337,-13.69457l3.55704,0.32036l-1.23336,13.69457z" data-paper-data="{&quot;origPos&quot;:null}"/><path d="M400.73096,202.83217l1.23336,-13.69457l3.55704,0.32035l-1.23337,13.69457z" data-paper-data="{&quot;origPos&quot;:null}"/></g><g data-paper-data="{&quot;origPos&quot;:null}"><path d="M406.77791,203.37677l1.23336,-13.69457l3.55704,0.32035l-1.23337,13.69457z" data-paper-data="{&quot;origPos&quot;:null}"/><path d="M413.00273,203.93741l1.23337,-13.69457l3.55704,0.32035l-1.23336,13.69458z" data-paper-data="{&quot;origPos&quot;:null}"/></g></g><path d="M379.27192,200.89952l-1.04848,1.84443l-2.72262,-0.20193l0.16303,-1.96744z" fill="#3a3a3a"/><path d="M385.31649,201.44393l-1.04848,1.84443l-5.22411,-0.42723l0.73995,-9.76947l3.08923,-5.67345l-1.16468,13.70077z" fill="#3a3a3a"/><path d="M391.49831,202.00066l-1.04848,1.84442l-5.22411,-0.42723l0.73994,-9.76946l3.08923,-5.67346l-1.16468,13.70077z" fill="#3a3a3a"/><path d="M398.16099,202.60071l-1.04848,1.84442l-5.22411,-0.42723l0.73995,-9.76947l3.08923,-5.67345l-1.16468,13.70077z" fill="#3a3a3a"/><path d="M404.41163,203.16367l-1.04848,1.84442l-5.2241,-0.42723l0.73994,-9.76947l3.08923,-5.67345l-1.16468,13.70077z" fill="#3a3a3a"/><path d="M410.38741,203.70185l-1.04848,1.84442l-5.2241,-0.42723l0.73994,-9.76947l3.08923,-5.67346l-1.16468,13.70077z" fill="#3a3a3a"/><path d="M416.64591,204.26554l-1.04848,1.84443l-5.2241,-0.42723l0.73994,-9.76947l3.08923,-5.67345l-1.16468,13.70077z" fill="#3a3a3a"/></g><g><g data-paper-data="{&quot;origPos&quot;:null}"><g data-paper-data="{&quot;origPos&quot;:null}" fill="none" stroke-width="1" font-family="sans-serif" font-weight="normal" font-size="12" text-anchor="start"/><g data-paper-data="{&quot;origPos&quot;:null}" fill="#4b4b4b" stroke-width="0"><path d="M381.32167,209.47424l0.20386,-2.26359l3.73488,0.33636l-0.20385,2.26358z" data-paper-data="{&quot;origPos&quot;:null}"/><path d="M375.10705,208.80046l0.20386,-2.26359l3.73488,0.33636l-0.20386,2.26359z" data-paper-data="{&quot;origPos&quot;:null}"/></g></g><g data-paper-data="{&quot;origPos&quot;:null,&quot;index&quot;:null}" fill="#4b4b4b" stroke-width="0"><g data-paper-data="{&quot;origPos&quot;:null}"><path d="M400.46923,210.97052l0.20386,-2.26358l3.73489,0.33636l-0.20386,2.26358z" data-paper-data="{&quot;origPos&quot;:null}"/><path d="M406.70421,211.41793l0.20386,-2.26357l3.73489,0.33636l-0.20386,2.26358z" data-paper-data="{&quot;origPos&quot;:null}"/></g><g data-paper-data="{&quot;origPos&quot;:null}"><path d="M388.00934,209.96246l0.20386,-2.26359l3.73489,0.33636l-0.20386,2.26358z" data-paper-data="{&quot;origPos&quot;:null}"/><path d="M394.24434,210.40985l0.20386,-2.26359l3.73489,0.33636l-0.20386,2.26359z" data-paper-data="{&quot;origPos&quot;:null}"/></g></g></g></g><path d="M208.53822,156.09238l1.41353,-4.10488c0,0 4.8748,-2.72118 8.40516,-2.55385c4.03589,0.19129 33.88176,2.90435 33.88176,2.90435c0,0 0.4911,1.92755 0.3292,3.13511c-0.20859,1.55576 -2.59101,4.41823 -2.59101,4.41823z" fill="#242424" stroke-width="0"/><path d="M233.6655,154.52995l0.28258,-3.13761l17.92923,1.61475l-0.28258,3.13761z" fill="#313131" stroke-width="0"/><path d="M230.21182,156.15734l0.05851,-0.64961c0,0 1.15784,-0.95114 2.1768,-0.85936c0.96758,0.08715 3.10416,0.75642 5.5315,1.13908c4.62409,0.72892 10.2207,1.33504 10.2207,1.33504l-0.05851,0.64961c0,0 -5.4062,-0.48895 -9.96547,-1.21145c-2.48774,-0.39424 -4.69575,-1.16438 -5.69947,-1.25478c-1.05501,-0.09502 -2.26402,0.85151 -2.26402,0.85151z" fill="#616161" stroke-width="0"/><path d="M258.64485,142.94355l12.37063,4.15299l30.24997,8.05396c0,0 0.71008,0.28904 -7.29054,-1.1627c-2.72169,-0.49386 -13.1728,-3.05065 -22.18775,-5.77308c-2.43933,-0.73665 -15.41102,-5.35965 -15.41102,-5.35965z" fill="#df8cb7" stroke-width="0"/><path d="M77.71911,133.01093l0.53219,-5.9092c0,0 5.90406,-1.22831 9.69254,-0.8871c3.1015,0.27933 11.23532,4.53199 11.23532,4.53199l-1.23497,12.20919z" fill="#626061" stroke-width="0"/><path d="M192.41513,153.36686l3.5562,2.83643l12.31646,-0.21928l50.5404,4.55181l-0.09784,1.08664c0,0 -37.89972,-3.55917 -49.77872,-4.36573c-3.26135,-0.22144 -12.98631,-0.3735 -12.98631,-0.3735z" fill="#ffa6d4" stroke-width="0"/><path d="M69.11384,196.42499l0.64311,-7.14069l24.82499,-14.46172l-2.82688,13.46963l-14.72439,8.84582z" fill="#3f3d3e" stroke-width="0"/><path d="M67.9442,191.239c0,0 1.94959,-19.55581 3.61165,-29.02822c1.8759,-10.6911 7.07997,-31.90596 7.07997,-31.90596c0,0 8.59683,0.58412 12.01683,2.54462c2.92704,1.67789 7.25541,8.50305 7.25541,8.50305l-3.00955,33.41631c0,0 -13.03771,12.57937 -16.27296,14.55626c-4.97639,3.0408 -10.6813,1.91394 -10.6813,1.91394z" fill="#555354" stroke-width="0"/><path d="M77.53492,140.84705c0,0 -0.99639,-6.1069 1.30335,-8.60792c2.29975,-2.50102 6.72302,-3.1237 9.27295,-2.89404c2.03417,0.18321 6.23674,0.64074 8.69863,5.33901c2.46191,4.69825 -0.04828,11.16926 -0.04828,11.16926c0,0 -5.34122,-10.92684 -7.84911,-11.57986c-3.5389,-0.92147 -11.37758,6.57355 -11.37758,6.57355z" fill="#6f6b6c" stroke-width="0"/><path d="M66.06001,195.96085c0,0 4.04542,-25.80368 5.07192,-37.20134c1.06902,-11.86978 2.71399,-32.52388 2.71399,-32.52388c0,0 1.20922,-0.53665 2.24585,-0.44329c0.94789,0.08536 2.45075,0.8663 2.45075,0.8663c0,0 -1.93167,19.05882 -2.89099,29.71053c-1.11457,12.37539 -6.17563,39.89934 -6.17563,39.89934z" fill="#333232" stroke-width="0"/><path d="M65.59117,196.36406l2.40907,-14.55081c0,0 0.9712,0.97997 1.57169,0.99522c0.75821,0.01925 2.55741,-1.26203 2.55741,-1.26203l-2.58507,15.17364z" fill="#2e2d2d" stroke-width="0"/><path d="M94.50196,162.56128c-0.73238,8.13172 -5.61744,16.39478 -10.22769,18.9188c-3.82894,2.09631 -11.90355,8.15436 -11.17119,0.02264c0.15536,-1.72512 3.25676,-13.37322 4.01526,-20.36319c1.00309,-9.24411 -0.18922,-14.35257 1.01872,-17.08685c2.18422,-4.94402 7.81791,-5.92212 10.02348,-5.72347c4.34765,0.39157 7.07378,16.10035 6.34141,24.23207z" fill="#585758" stroke-width="0"/><path d="M127.56157,179.67869l-0.43405,-1.78688c0,0 8.02885,-0.63291 14.066,-0.57531c8.49893,0.08109 32.11766,1.01603 32.11766,1.01603l1.67376,1.43712c0,0 -25.15475,-0.63855 -33.90221,-0.65531c-2.56902,-0.00493 -13.52116,0.56438 -13.52116,0.56438z" fill="#585657" stroke-width="0"/><path d="M120.51087,192.29763l6.39696,-13.17068l7.29837,-0.2972c0,0 -2.11801,4.14019 -2.09978,4.90004c0.08699,3.63077 0.922,27.77 0.922,27.77c0,0 -1.51102,0.30612 -2.52736,-1.66855c-1.82364,-3.54316 -3.03623,-10.54216 -4.59266,-12.7935c-1.34474,-1.94515 -5.39752,-4.74011 -5.39752,-4.74011z" fill="#5a5759" stroke-width="0"/><path d="M135.75289,162.74163l3.89383,-11.02851l2.3339,0.09863l-5.02041,11.15015z" fill="#a5a0a2" stroke-width="0"/><path d="M142.61242,162.27154l0.12581,-1.3971l26.38943,2.3767l-0.1258,1.3971z" fill="#494748" stroke-width="0"/><path d="M142.79865,159.30499l0.12581,-1.3971l26.38943,2.3767l-0.12581,1.3971z" fill="#494748" stroke-width="0"/><path d="M121.43361,179.87923l1.80639,-20.05715l13.06058,-8.4789l4.85299,0.12406l-20.05048,41.18104l-5.4089,-2.49861z" fill="#dbd5d8" stroke-width="0"/><path d="M93.97316,189.36871l0.90037,-11.75746l26.61787,1.60458c0,0 0.10132,2.55713 -0.09999,3.34074c-0.50174,1.95335 -3.12324,8.68313 -3.12324,8.68313z" fill="#ccc6c9" stroke-width="0"/><path d="M98.76945,178.36419l0.02833,-0.31453l22.80292,1.18171l-2.70115,0.9458c0,0 -4.32092,-0.20219 -7.01586,-0.47678c-3.6901,-0.37597 -13.11426,-1.3362 -13.11426,-1.3362z" fill="#d8d1d5" stroke-width="0"/><path d="M102.60592,174.95779l1.52489,-16.93147l16.06001,1.44642l-1.52489,16.93147z" fill="#a39999" stroke-width="0"/><path d="M93.68252,189.51298l1.01892,-11.31352c0,0 8.22836,7.15359 12.28782,9.86926c4.05946,2.71567 10.55956,3.01997 10.55956,3.01997z" fill="#b4afb1" stroke-width="0"/><path d="M126.64807,198.54902c0,0 2.92393,1.30805 4.02852,1.26322c0.67857,-0.02757 1.9687,-1.50672 1.9687,-1.50672l0.83798,9.18539l-0.3763,4.1782c0,0 -1.96314,0.13589 -3.00539,-2.55102c-0.85995,-2.21691 -3.45354,-10.56903 -3.45354,-10.56903z" fill="#504e4f" stroke-width="0"/><path d="M120.76422,192.87904l18.14761,-40.27812l1.71817,0.36071l-18.08226,40.69592z" fill="#858183" stroke-width="0"/><path d="M107.65168,150.77712l1.6567,-1.50795c0,0 27.36284,1.81785 39.72311,2.93105c10.72789,0.96617 31.78451,3.21702 31.78451,3.21702l0.35321,1.98106c0,0 -21.14812,-2.61348 -32.45595,-3.63188c-12.9121,-1.16288 -41.06156,-2.98927 -41.06156,-2.98927z" fill="#918b8e" stroke-width="0"/><path d="M108.77619,149.64268l2.18986,-1.75204c0,0 25.81562,1.9706 38.17588,3.0838c10.72788,0.96617 31.78451,3.21702 31.78451,3.21702l0.3532,1.98106c0,0 -21.14811,-2.61348 -32.45595,-3.63189c-12.9121,-1.16288 -40.04749,-2.89796 -40.04749,-2.89796z" fill="#a59fa2" stroke-width="0"/><path d="M171.25994,176.14029l-1.40803,-5.83243c0,0 0.31886,-1.18119 0.66063,-1.26368c0.30111,-0.0727 1.2835,0.79434 1.2835,0.79434l1.40802,5.83243c0,0 -0.35376,0.84933 -0.65555,0.92218c-0.34138,0.08241 -1.28859,-0.45282 -1.28859,-0.45282z" fill="#494242" stroke-width="0"/><path d="M130.9101,175.16565l4.37944,-9.12967l3.87005,0.34855l-4.37944,9.12967z" fill="#9c989a" stroke-width="0"/><path d="M142.0333,158.31934l1.93008,-0.79803l24.33871,2.21013l1.92471,1.1271z" fill="#757274" stroke-width="0"/><path d="M141.87507,161.12775l1.93008,-0.79804l24.3387,2.21014l1.92472,1.12709z" fill="#757274" stroke-width="0"/><path d="M91.35977,188.31684l6.91678,-57.77016l1.86047,0.75063l-6.40945,58.21862z" fill="#686666" stroke-width="0"/><path d="M91.17281,188.57142l2.11009,-16.13149l1.93933,4.00857l-1.62852,13.21726z" fill="#535252" stroke-width="0"/><path d="M123.84658,168.54679c0,0 2.32587,-2.14549 2.41079,-3.08847c0.08335,-0.92536 -1.9059,-2.51755 -1.9059,-2.51755c0,0 2.92989,0.93629 2.67464,2.60844c-0.19441,1.27366 -1.4371,3.35963 -1.62301,4.44971c-0.52863,3.09953 -1.87351,10.3555 -1.87351,10.3555z" fill="#c4bec1" stroke-width="0"/><path d="M131.66309,167.33139l2.81844,-9.98286l2.92915,-4.10811l-3.50171,9.28152z" fill="#aca7a9" stroke-width="0"/></g></g><g stroke-width="0"><path d="M251.74234,150.20288l2.84329,-3.08661c0,0 1.929,-1.2684 2.72597,-0.92054c0.90866,0.39663 2.435,3.17329 2.435,3.17329l-0.90591,4.01688c0,0 -4.26331,-0.39154 -5.51253,-0.63787c-0.56316,-0.11106 -1.58579,-2.54515 -1.58579,-2.54515z" fill="#c0c0c0"/><path d="M208.13081,155.96531c0,0 0.08257,-2.88422 1.23958,-3.92349c1.44998,-1.30241 7.70385,-2.96033 7.70385,-2.96033l-1.13263,4.65427l-0.26202,2.90946z" fill="#838383"/><path d="M207.96599,155.8758l8.74313,-6.72415l37.41092,3.36931l-0.67107,7.45113z" fill="#999999"/><path d="M209.01984,155.31163l6.65883,-5.26504l33.63617,3.02934l-0.52393,5.81757c0,0 -4.0711,-0.36666 -9.30812,-0.83829c-3.4049,-0.30667 -7.20735,-1.71542 -10.79947,-2.03894c-3.85346,-0.34706 -7.45053,0.39531 -9.61494,0.20037c-4.23602,-0.38151 -10.04853,-0.90499 -10.04853,-0.90499z" fill="#d952b3"/><path d="M212.49818,155.6227l8.86467,-5.12881l12.41384,1.11802c0,0 -7.51743,1.23803 -9.96002,1.93631c-2.59308,0.74128 -5.98163,2.55514 -5.98163,2.55514z" fill="#a5899d"/><path d="M220.46524,156.22703c0,0 5.15183,-0.51207 7.59905,-0.29165c3.12692,0.28161 9.6281,1.84318 9.6281,1.84318l-9.58507,-1.19981z" fill="#adadad"/><path d="M208.07176,155.86709l7.89577,-6.06787l34.82571,3.13651l-0.06176,0.68581c0,0 -30.15475,-2.7158 -34.08545,-3.06981c-0.82216,-0.07404 -8.57426,5.31541 -8.57426,5.31541z" fill="#8a8a8a"/><path d="M254.48957,166.30862l0.87505,-9.71602l1.29415,-7.11448c0,0 1.14022,0.57449 1.64137,1.1854c0.50114,0.61091 0.78188,1.76857 0.78188,1.76857l-2.58753,14.0571z" fill="#9e9e9e"/><path d="M249.43946,161.60591c0,0 -0.71748,-2.19813 -0.71109,-3.79313c0.0086,-2.14783 1.35568,-7.56705 1.35568,-7.56705l1.96279,-0.1499c0,0 0.68479,0.85665 1.17412,0.75098c0.67465,-0.1457 2.49946,-1.54438 2.49946,-1.54438l-1.65031,12.72055z" fill="#9c9c9c"/><path d="M249.84687,163.48068c-0.68017,-1.17016 -0.31754,-2.51619 -0.31754,-2.51619l5.50388,-6.73382c0,0 1.03964,3.99314 0.95742,4.9059c-0.23372,2.59504 0.34268,7.41586 0.34268,7.41586c0,0 -2.9756,-0.18392 -3.97092,-0.71396c-1.19377,-0.63571 -1.83533,-1.18765 -2.51551,-2.35782z" fill="#888888"/><path d="M251.68987,162.86929c-0.8049,-2.08033 -1.41102,-6.61603 0.79028,-10.50103c2.20131,-3.88499 4.41474,-1.54583 4.41474,-1.54583c0,0 0.6057,4.49543 0.39825,6.79897c-0.18897,2.09834 -1.59274,6.46417 -1.59274,6.46417c0,0 -3.20561,0.86405 -4.0105,-1.21629z" fill="#b4b4b4"/><path d="M256.52515,155.57832c-0.12657,1.40538 -5.22287,1.02412 -5.0963,-0.38125c0.12657,-1.40538 3.65756,-6.51143 4.46671,-6.43854c0.31337,0.02821 0.9455,0.18742 1.04606,1.26145c0.15906,1.69918 -0.33891,4.69725 -0.41648,5.55834z" fill="#bbbbbb"/></g><g stroke-width="0"><path d="M192.32052,153.34314c0,0 -5.39188,-5.42285 -5.22384,-7.28869c0.13718,-1.52348 6.16014,-1.10467 6.16014,-1.10467l7.50842,0.74836l-4.97478,10.37456z" fill="#f399c8"/><path d="M161.77021,152.24001c0,0 -0.778,-2.1764 -0.42557,-3.22173c0.38896,-1.15358 2.7643,-4.55916 2.7643,-4.55916l22.96194,1.88158l8.31589,9.40701z" fill="#ee96c3"/></g></g><g stroke-width="0"><g><path d="M258.64297,141.15951l0.55449,-6.15689l47.62541,4.28926l-0.55449,6.15689z" fill="#61585b"/><path d="M258.7713,137.91439l0.29694,-3.29702l47.8065,4.30558l-0.29694,3.29701c0,0 -8.60603,-0.77509 -17.44663,-1.57128c-2.76408,-0.24893 -6.78615,0.91221 -9.34023,0.68216c-3.03709,-0.27353 -6.15823,-2.07801 -8.1064,-2.25347c-5.84167,-0.52611 -12.91325,-1.163 -12.91325,-1.163z" fill="#494344"/><path d="M320.94191,136.88167l-7.59744,-19.69383l20.83491,1.87646l13.86172,18.09061c0,0 -5.80926,0.84369 -9.05141,0.81102c-5.00295,-0.05044 -18.04778,-1.08424 -18.04778,-1.08424z" fill="#5e555b"/><path d="M320.63588,140.30309l0.49678,-5.51616c0,0 12.37924,-0.3441 17.3216,-0.68176c3.92237,-0.26797 6.76895,-0.59601 6.76895,-0.59601l5.29304,7.44357c0,0 -5.4541,1.11138 -9.62506,1.18148c-5.65149,0.09494 -20.2553,-1.83106 -20.2553,-1.83106z" fill="url(#color-5)"/><path d="M311.64221,117.19397l0.35846,-3.98007l19.07432,1.71788l3.26325,4.30624z" fill="url(#color-6)"/><path d="M320.05224,140.27559l0.11297,-1.25416c0,0 15.55364,1.32409 20.93346,1.64039c4.02278,0.23653 8.56687,-0.93746 8.56687,-0.93746l0.78263,1.21985l-8.3739,1.31468z" fill="#312c30"/><g><path d="M220.39069,120.65629l0.56906,-8.84296l93.54671,8.42503l6.59775,11.9217z" fill="#8a6672"/><path d="M236.12007,130.39211c0,0 -3.18193,-3.90694 -5.84419,-5.61422c-2.66229,-1.70729 -9.71633,-2.10419 -9.71633,-2.10419l0.29896,-2.06861c0,0 12.24882,1.38068 19.24127,2.10605c16.704,1.73274 80.54951,8.24555 80.54951,8.24555l3.01952,6.86555z" fill="#755761"/><path d="M238.73364,133.1285l-2.78073,-2.85274l87.27719,7.36904l0.92425,3.17684z" fill="#694e57"/><path d="M220.76011,112.19309l0.40625,-4.51073l90.50106,7.46863l3.32631,5.98373c0,0 2.44462,3.5717 -2.81805,3.07234c-1.65671,-0.1572 -10.43868,-4.33024 -12.09953,-4.48784c-15.99508,-1.51775 -79.31604,-7.52611 -79.31604,-7.52611z" fill="#916b77"/><path d="M221.4073,107.70416l0.10808,-2.52501l89.55882,7.92659l0.8264,2.47638z" fill="#9e7582"/><path d="M295.17294,115.03431c-7.97718,-1.36901 -72.28772,-8.19747 -72.28772,-8.19747l87.49991,7.88045l4.11396,7.8418c0,0 -11.34894,-6.15579 -19.32614,-7.52479z" fill="#b38f9a"/></g><path d="M269.4813,135.89486l0.8229,-9.13679l20.13074,1.81301l-0.8229,9.1368z" fill="#3a3336"/><path d="M270.21633,126.75431l0.85014,-1.4521l18.46369,1.66288l0.84461,1.6047z" fill="#4b4246"/><path d="M269.66569,135.41008l0.73352,-8.14462c0,0 0.58252,5.33962 3.13052,6.67987c2.54801,1.34025 15.70416,3.22712 15.70416,3.22712z" fill="#332c30"/><path d="M312.69345,119.52147l-3.366,-6.32744c0,0 1.07861,-0.57224 1.67683,-0.51835c0.66876,0.06024 2.14766,0.86278 2.14766,0.86278l3.366,6.32744z" fill="#757575"/><path d="M315.27697,124.50792l-4.83907,-9.08293l3.82451,0.34445l4.83907,9.08292z" fill="#5a5a5a"/><path d="M318.92629,131.31165l-4.83907,-9.08292l3.8245,0.34445l4.83907,9.08293z" fill="#505050"/><path d="M322.69846,138.35814c-0.8265,-1.55133 -4.05137,-7.60442 -4.05137,-7.60442l3.8245,0.34446l5.66094,10.87815c0,0 -2.09555,0.34893 -3.03989,0.249c-0.73662,-0.07795 -2.02974,-3.18315 -2.39418,-3.86721z" fill="#3b3b3b"/><path d="M218.62175,123.10565l1.67511,-18.59947l3.16815,0.28533l-1.67511,18.59947z" fill="#443e42"/><path d="M199.67826,123.00498l-0.15122,-5.96563l20.14703,1.81447l-0.53173,5.90411z" fill="url(#color-7)"/><path d="M199.47049,117.66744l0.97296,-10.80326l20.14703,1.81447l-0.97297,10.80327z" fill="#5e555b"/><path d="M200.43213,106.98996l1.17011,-4.07367l19.35024,1.74272l-0.37334,4.14544z" fill="url(#color-8)"/><path d="M270.80498,109.34687l0.55015,-6.10858l14.866,2.40984l4.18102,5.10673z" fill="#5e555b"/><path d="M290.37027,111.10897l-4.1571,-5.37234c0,0 2.94209,0.95839 5.07179,2.15251c2.12972,1.1941 5.54802,3.80187 5.54802,3.80187z" fill="#776b73"/><path d="M267.69128,110.22667l3.29874,-0.95239l25.52074,2.0307l3.4942,1.83193z" fill="#6d6269"/></g><g><path d="M271.27812,132.0705c0.11201,-1.24382 0.72405,-2.35006 1.20345,-3.34063c0.66799,-1.38031 1.37462,-2.50928 2.73907,-3.23602c0.83344,-0.44389 2.00105,-0.72972 3.00758,-0.8804c0.66573,-0.09964 1.69673,-0.4085 2.39693,-0.34543c1.58727,0.14295 1.92088,0.25506 3.02149,0.85221c0.663,0.35971 2.25554,0.95407 2.72808,1.67149c0.39995,0.6072 0.78874,1.59459 1.0681,2.30214c0.47739,1.20917 1.10937,3.13814 0.98482,4.52117c-0.05264,0.58446 -0.66266,1.87339 -0.75837,2.38234c-0.30382,1.61571 -0.35027,2.12319 -1.65784,3.11339c-0.79473,0.60183 -2.34505,1.01225 -3.36164,1.33233c-1.05281,0.33149 -2.40119,1.07962 -3.56916,0.97444c-0.78833,-0.071 -2.16265,-0.73193 -2.91414,-0.93636c-1.63035,-0.44352 -2.5032,-0.69727 -3.42627,-1.92519c-0.79158,-1.05298 -0.90781,-2.66825 -1.14878,-4.05305c-0.12658,-0.72751 -0.38269,-1.66191 -0.31331,-2.43242z" fill="#3a3a3a"/><path d="M272.01684,132.01793c0.10251,-1.13819 0.66259,-2.15052 1.10127,-3.05698c0.61128,-1.26312 1.25788,-2.29623 2.50651,-2.96127c0.76267,-0.40621 1.83116,-0.66776 2.75221,-0.80565c0.6092,-0.0912 1.55269,-0.3738 2.19338,-0.31609c1.45251,0.13082 1.75779,0.2334 2.76496,0.77985c0.60668,0.32917 2.06403,0.87306 2.49648,1.52955c0.36599,0.55567 0.72178,1.45924 0.97741,2.10668c0.43686,1.1065 1.01517,2.8717 0.90122,4.13728c-0.04818,0.53483 -0.60639,1.71433 -0.69398,2.18006c-0.27803,1.47853 -0.32053,1.94293 -1.51709,2.84904c-0.72728,0.55072 -2.14595,0.92628 -3.07621,1.21919c-0.96342,0.30334 -2.19731,0.98796 -3.26611,0.89171c-0.72138,-0.06496 -1.97902,-0.66978 -2.66671,-0.85683c-1.49193,-0.40586 -2.29067,-0.63806 -3.13537,-1.76173c-0.72436,-0.9636 -0.83071,-2.4417 -1.05122,-3.70893c-0.11584,-0.66574 -0.35019,-1.52081 -0.2867,-2.22587z" fill="#5a5a5a"/><path d="M284.56596,128.60044c-1.82269,-2.55959 -6.87766,-3.21627 -6.87766,-3.21627c0,0 1.98288,-0.36361 3.96441,-0.17818c1.60509,0.15019 3.13842,0.65421 4.17659,2.05398c1.03901,1.4009 1.29814,2.91496 1.45861,4.33053c0.31465,2.77539 -0.33607,5.11928 -0.33607,5.11928c0,0 -0.56318,-5.54974 -2.38589,-8.10931z" fill="#6d6d6d"/><path d="M278.81032,133.12124c0.05163,-0.57339 0.55832,-0.99635 1.13172,-0.94472c0.57339,0.05163 0.99635,0.55832 0.94472,1.13173c-0.05163,0.57339 -0.55832,0.99635 -1.13173,0.94471c-0.57339,-0.05163 -0.99635,-0.55832 -0.94471,-1.13173z" fill="#272727"/><path d="M278.71935,133.25043c0.04737,-0.52591 0.51208,-0.91385 1.03799,-0.86648c0.52591,0.04737 0.91385,0.51208 0.86648,1.03799c-0.04737,0.52591 -0.51208,0.91385 -1.03798,0.86648c-0.52591,-0.04737 -0.91385,-0.51208 -0.86648,-1.03798z" fill="#131313"/></g></g></g></g></g><path d="M180.35324,234.72412c0.14215,-1.57828 -0.27567,-44.41444 0.36794,-46.0384c0.869,-2.19268 9.1948,-0.08673 12.28226,-1.32256c9.45581,-3.78497 19.64072,-7.47334 19.64072,-7.47334c0,0 13.95957,1.84005 18.17899,2.22008c3.15535,0.28419 64.98855,-2.67163 64.80113,7.67484c-0.25419,14.03371 -42.55536,-1.54186 -43.64349,10.53988c-0.27547,3.05854 2.10701,3.4694 1.26128,6.55319c-0.203,0.74013 -3.00977,5.68719 -3.38355,7.33636c-0.59334,2.61788 2.32951,6.89984 -1.24531,9.68969c-2.84964,2.22391 -1.37547,7.39383 -2.12069,8.54726c-5.1355,7.94833 -13.08954,3.41216 -22.06607,2.60372c-10.64295,-0.95852 -26.46434,1.35497 -35.69912,-0.71908c-3.98629,-0.89532 -8.78785,4.98256 -8.37407,0.38841z" fill="#86c8f5" stroke-width="0"/><g stroke-width="0"><g><path d="M174.68293,251.7435l0.50069,-5.55943c0,0 2.21634,0.37836 3.15391,-0.50477c1.32461,-1.24767 4.24936,-6.14491 4.24936,-6.14491l-0.09485,8.11799c0,0 -3.35464,2.90931 -4.96737,3.66513c-1.16438,0.54568 -2.84173,0.42599 -2.84173,0.42599z" fill="#4d484c"/><g><g><path d="M135.12942,236.78527l4.58076,-5.17203c0,0 16.64106,-7.48628 23.57374,-10.76919c5.33283,-2.52532 13.86093,-6.72802 13.86093,-6.72802l0.26077,26.47671z" fill="#eb59c1"/><path d="M137.58507,225.83727l2.04274,-29.20849c0,0 18.26506,10.44157 24.85323,14.00361c4.78077,2.58484 10.97512,12.44328 10.97512,12.44328l-6.38264,5.59759z" fill="#dd54b6"/><path d="M137.65025,208.79553l3.02245,-30.29599c0,0 11.28128,14.81746 15.82463,15.99542c6.73234,1.74554 19.75655,0.14181 19.75655,0.14181l-2.33702,25.94885z" fill="#ff77d8"/><path d="M141.1381,196.17696l1.26041,-13.99489l33.50043,0.07787l0.80948,17.12054z" fill="#ee51c1"/></g><g><g><path d="M133.44501,226.08532l-1.36016,-41.09419l8.36747,0.75361l1.36016,41.09419z" fill="#a59da1"/><path d="M132.03263,185.17776c0,0 -0.36896,-4.5436 1.53661,-5.65894c1.90558,-1.11538 6.99,-0.9117 6.99,-0.9117l-0.14546,7.32549z" fill="#b9b0b5"/><path d="M134.26303,236.84713l-0.75712,-10.78423l8.32749,0.75l0.75712,10.78423z" fill="#8b8488"/></g><g><path d="M173.77934,226.30742l-1.36016,-41.09418l4.52089,0.40716l1.36017,41.09418z" fill="#a59da1"/><path d="M172.48855,186.22086l-0.23369,-6.48831c0,0 2.98393,-0.41443 3.93208,0.82534c0.94815,1.23974 0.71456,5.25038 0.71456,5.25038z" fill="#b9b0b5"/><path d="M174.58489,237.06821l-0.75712,-10.78423l4.49339,0.40467l0.75713,10.78423z" fill="#8b8488"/></g><path d="M134.44914,245.47461c0,0 -3.01095,-3.02504 -3.27387,-4.53935c-0.29267,-1.68566 1.59766,-5.11578 1.59766,-5.11578l47.86939,-0.10142c0,0 1.79665,2.50512 2.08314,4.02331c0.40154,2.12793 -4.23196,6.64509 -4.23196,6.64509z" fill="#494547"/><path d="M140.53049,182.55158c0,0 -2.25616,-0.77281 -2.63362,-1.38341c-0.4145,-0.67052 1.04941,-2.6297 1.04941,-2.6297c0,0 12.08625,0.07247 17.37102,0.22497c6.16085,0.17778 16.56841,0.93056 16.56841,0.93056c0,0 0.41917,1.26661 0.28059,1.85395c-0.13421,0.5688 -0.69762,1.65243 -0.69762,1.65243z" fill="#c2b8bd"/><path d="M134.91237,244.29066c0,0 -0.97549,-2.93461 -1.0663,-4.62519c-0.07539,-1.40299 0.45134,-3.62205 0.45134,-3.62205l45.02898,-0.0178c0,0 1.7374,3.32218 1.58825,4.97817c-0.16021,1.77898 -2.41108,4.15788 -2.41108,4.15788z" fill="#6f696b"/><path d="M145.50263,250.69614l0.5007,-5.55942l29.81731,1.07413l-0.50069,5.55942z" fill="#333032"/><path d="M134.00534,249.78259c-1.04814,-0.74494 -2.5899,-2.35547 -2.5899,-2.35547l-0.25461,-6.86988c0,0 2.2599,2.48512 3.34027,3.9494c0.76469,1.03645 11.55941,0.5233 11.55941,0.5233l-0.50069,5.55942c0,0 -10.50637,-0.06179 -11.5545,-0.80674z" data-paper-data="{&quot;index&quot;:null}" fill="#444043"/><g><path d="M138.49619,197.39714c0,0 -2.14896,-4.95487 -2.01888,-6.69241c0.09007,-1.20295 2.72442,-2.73202 2.72442,-2.73202l35.19191,0.13281c0,0 1.30708,3.25423 1.1908,4.80746c-0.11884,1.5875 -1.89636,4.61697 -1.89636,4.61697z" fill="#979797"/><path d="M138.64504,196.34016c0,0 -2.21868,-4.41405 -2.11473,-5.94871c0.07198,-1.06256 2.67846,-2.37557 2.67846,-2.37557l35.12627,0.64193c0,0 1.35306,2.89744 1.26016,4.2694c-0.09494,1.40216 -1.82387,4.05492 -1.82387,4.05492z" fill="#a2a2a2"/></g><g><path d="M139.38377,214.08369c0,0 -2.14896,-4.95487 -2.01888,-6.69241c0.09007,-1.20295 2.72441,-2.73203 2.72441,-2.73203l35.19191,0.13282c0,0 1.30708,3.25422 1.19081,4.80745c-0.11884,1.5875 -1.89636,4.61696 -1.89636,4.61696z" fill="#979797"/><path d="M139.5326,213.02672c0,0 -2.21866,-4.41404 -2.11472,-5.94871c0.07197,-1.06255 2.67846,-2.37556 2.67846,-2.37556l35.12627,0.64194c0,0 1.35306,2.89744 1.26016,4.2694c-0.09495,1.40216 -1.82388,4.05491 -1.82388,4.05491z" fill="#a2a2a2"/></g><g><path d="M140.33351,231.27307c0,0 -2.14896,-4.95487 -2.01888,-6.69241c0.09007,-1.20295 2.72441,-2.73202 2.72441,-2.73202l35.19191,0.13281c0,0 1.30708,3.25423 1.1908,4.80746c-0.11884,1.5875 -1.89636,4.61696 -1.89636,4.61696z" fill="#7a7a7a"/><path d="M140.48232,230.21612c0,0 -2.21868,-4.41405 -2.11473,-5.94872c0.07197,-1.06255 2.67846,-2.37555 2.67846,-2.37555l35.12628,0.64193c0,0 1.35304,2.89744 1.26016,4.2694c-0.09495,1.40216 -1.82388,4.05493 -1.82388,4.05493z" fill="#929292"/></g></g></g></g><path d="M133.70368,230.0785c0,0 -0.23002,-1.74411 -0.32635,-4.07276c-0.28276,-6.83668 -1.53663,-40.97279 -1.53663,-40.97279l2.76922,4.5698l0.74271,29.61073z" fill="#777275"/></g></g></g></svg>